<?xml version="1.0" encoding="UTF-8" standalone="no"?>
<!-- Generator: Adobe Illustrator 26.3.1, SVG Export Plug-In . SVG Version: 6.00 Build 0)  -->

<svg
   version="1.1"
   id="Calque_1"
   x="0px"
   y="0px"
   viewBox="0 0 591.30969 750"
   xml:space="preserve"
   sodipodi:docname="Logo CS Sedan Ardennes - 2022.svg"
   width="591.30969"
   height="750"
   inkscape:version="1.1.1 (c3084ef, 2021-09-22)"
   xmlns:inkscape="http://www.inkscape.org/namespaces/inkscape"
   xmlns:sodipodi="http://sodipodi.sourceforge.net/DTD/sodipodi-0.dtd"
   xmlns="http://www.w3.org/2000/svg"
   xmlns:svg="http://www.w3.org/2000/svg"><defs
   id="defs907" /><sodipodi:namedview
   id="namedview905"
   pagecolor="#ffffff"
   bordercolor="#666666"
   borderopacity="1.0"
   inkscape:pageshadow="2"
   inkscape:pageopacity="0.0"
   inkscape:pagecheckerboard="0"
   showgrid="false"
   inkscape:zoom="0.6625"
   inkscape:cx="523.77358"
   inkscape:cy="344.15094"
   inkscape:window-width="1440"
   inkscape:window-height="900"
   inkscape:window-x="0"
   inkscape:window-y="0"
   inkscape:window-maximized="0"
   inkscape:current-layer="Calque_1" />
<style
   type="text/css"
   id="style824">
	.st0{fill:#E30613;}
	.st1{fill:#FFFFFF;}
</style>






<g
   id="g18437"
   transform="matrix(1.0462727,0,0,1.0462727,-4.8032033,-5.2109285)"><path
     id="path14041"
     style="fill:#ffffff;stroke:none;stroke-width:1px;stroke-linecap:butt;stroke-linejoin:miter;stroke-opacity:1"
     d="M 4.6035156,4.9804688 V 426.79297 C 3.6451986,550.38007 56.947422,611.83484 98.3125,650.18945 c 45.56215,42.24623 121.86759,71.71897 188.85742,71.6211 66.98983,0.0979 143.29527,-29.37487 188.85742,-71.6211 41.36508,-38.35461 94.66731,-99.80938 93.70899,-223.39648 V 4.9804688 Z"
     sodipodi:nodetypes="ccscsccc" /><path
     id="path13579"
     style="fill:#000000;fill-opacity:1;stroke:none;stroke-width:1px;stroke-linecap:butt;stroke-linejoin:miter;stroke-opacity:1"
     d="M 20.603516,20.980469 V 426.79297 c -0.958317,108.49276 42.577131,168.79186 83.708984,207.39648 47.8263,44.88774 115.86759,71.71897 182.85742,71.6211 66.98983,0.0979 135.03112,-26.73336 182.85742,-71.6211 41.13185,-38.60462 84.66731,-98.90372 83.70899,-207.39648 V 20.980469 Z"
     sodipodi:nodetypes="ccscsccc" /><g
     id="g18430"><path
       id="path13368"
       style="fill:#044336;fill-opacity:1;stroke:none;stroke-width:1px;stroke-linecap:butt;stroke-linejoin:miter;stroke-opacity:1"
       d="M 287.16992,36.980469 H 36.603516 V 426.79297 c -0.580959,96.79465 34.463923,153.81073 73.708984,189.39648 48.59028,44.0596 105.71665,74.85105 176.85742,73.6211 z" /><path
       id="path16276"
       style="fill:#ba1f3b;fill-opacity:1;stroke:none;stroke-width:1px;stroke-linecap:butt;stroke-linejoin:miter;stroke-opacity:1"
       d="M 287.16992,36.980469 V 689.81055 c 71.14077,1.22995 128.26714,-29.5615 176.85742,-73.6211 39.24506,-35.58575 74.28995,-92.60183 73.70899,-189.39648 V 36.980469 Z" /></g></g><g
   id="g9749"
   transform="matrix(1.0462727,0,0,1.0462727,-4.8032033,-5.2109285)"><path
     id="path3711"
     style="fill:#ffffff;fill-rule:evenodd;stroke-width:1.22085"
     d="m 355.07704,106.02148 c -2.5157,-0.0608 -5.0851,-0.0564 -7.7149,0.0137 -17.6494,0.47039 -33.6249,3.35503 -51.7617,9.49804 l -8.2402,2.79102 -2.9043,1.06055 c -1.5966,0.57113 -3.2369,1.30243 -3.6445,1.62304 -0.9913,0.77976 -1.2409,1.95531 -0.6934,3.26563 0.3598,0.86128 0.7795,1.19625 2.0859,1.66601 0.8992,0.32337 1.6348,0.67671 1.6348,0.78711 0,0.11041 -1.4158,0.72622 -3.1465,1.36719 -7.4651,2.76463 -22.9922,10.23713 -23.8672,11.48633 -1.2151,1.73481 -0.3883,3.54561 2.0215,4.42187 3.3853,1.23101 3.4186,1.01291 -0.4492,2.96094 -10.6037,5.34054 -21.90157,13.47453 -30.98439,22.30664 -2.43764,2.37036 -4.68779,4.81781 -5,5.43945 -0.7561,1.50546 -1.02559,3.15591 -0.70703,4.33008 l 0.25977,0.96094 -4.66407,1.62891 c -13.13536,4.58927 -23.69758,9.93588 -32.18359,16.29101 -9.02495,6.75873 -14.79091,13.16152 -23.60547,26.20899 -4.27119,6.32229 -7.50745,10.02183 -9.68945,11.07812 -0.77227,0.37385 -2.81325,0.9714 -4.53516,1.32813 -3.80812,0.78893 -9.34301,0.67003 -12.41015,-0.26758 -2.82479,-0.86351 -8.73223,-0.78134 -12.16016,0.16992 -4.60891,1.279 -7.63232,3.01597 -10.92188,6.27148 -2.59325,2.56641 -3.10361,3.27021 -4.5332,6.25196 -0.88601,1.848 -1.83561,4.29545 -2.11133,5.43945 -1.22589,5.08632 -1.35726,12.09023 -0.27734,14.80664 0.62581,1.57413 2.60646,3.2452 4.49805,3.79492 1.00143,0.29103 3.16991,0.43325 6.46679,0.42188 5.82986,-0.0201 8.57614,-0.60914 13.33594,-2.85547 3.48203,-1.6433 5.188,-2.77691 7.75586,-5.1543 l 1.9043,-1.76367 2.02148,0.57422 c 3.04241,0.86174 14.11079,0.7768 17.62695,-0.13477 l 2.48438,-0.64453 0.18555,0.83789 c 3.3046,14.94531 9.52051,24.09902 21.88476,32.22461 3.54632,2.33059 4.14271,2.91438 5.26563,5.15821 2.0061,4.00858 1.8309,9.86628 -0.50782,16.94531 -1.06469,3.22271 -1.27331,4.23394 -1.0996,5.32031 0.27168,1.69898 1.97846,5.29579 6.68554,14.08203 1.85515,3.46283 3.0892,5.84411 3.37305,6.46094 a 132.28346,132.28346 0 0 0 -41.41406,95.73047 132.28346,132.28346 0 0 0 132.28315,132.2832 132.28346,132.28346 0 0 0 132.2852,-132.2832 132.28346,132.28346 0 0 0 -57.4394,-109.03711 c -0.2403,-0.76791 -0.0751,-1.67428 0.2734,-3.5332 3.5089,-18.71663 12.4282,-37.37386 25.9023,-54.18555 7.8798,-9.83167 20.6778,-23.25831 30.2383,-31.72461 10.5085,-9.30587 22.5078,-18.95111 32.7969,-26.35938 13.5047,-9.72354 19.3506,-14.84096 23.8926,-20.91796 7.8546,-10.50902 11.1151,-25.38227 8.414,-38.38086 -1.6337,-7.86207 -5.698,-15.75408 -10.6035,-20.58985 -3.9184,-3.86273 -5.9283,-4.27451 -11.7129,-2.39258 -2.2235,0.72339 -4.2716,1.31641 -4.5527,1.31641 -0.2812,0 -1.3316,-0.55621 -2.334,-1.23633 -5.1097,-3.46706 -10.1391,-5.11603 -13.3945,-4.39062 -0.8768,0.19537 -1.2835,0.028 -3.0196,-1.25 -5.8672,-4.3192 -12.2776,-6.30531 -15.4687,-4.79102 -1.5051,0.71417 -2.9979,2.3835 -3.6367,4.06641 l -0.5567,1.46679 -1.914,-1.45507 c -3.8814,-2.95127 -10.3649,-7.01377 -15.0332,-9.41993 -14.1295,-7.28272 -29.0741,-10.94319 -46.6836,-11.36914 z" /><path
     id="path1884"
     style="fill:#000000;stroke-width:0.32"
     d="m 350.79297,113.07812 c -6.30793,-0.002 -12.69442,0.20442 -16.07422,0.61915 -14.3418,1.75985 -27.51283,4.86978 -40.61133,9.58984 l -2.6914,0.9707 1.89062,0.97266 c 1.0405,0.53434 3.11533,1.4376 4.61133,2.00781 1.496,0.5702 2.7207,1.20361 2.7207,1.4082 0,0.20458 -2.16078,0.99601 -4.80078,1.75782 -5.8157,1.67821 -10.30472,3.23052 -15.19922,5.25781 -4.8515,2.00947 -10.88086,4.85493 -10.88086,5.13477 0,0.2627 4.44601,2.34234 6.12891,2.86718 0.6424,0.20037 2.15377,0.54703 3.35937,0.76953 1.2055,0.22249 2.16677,0.53744 2.13477,0.70118 -0.0319,0.16373 -1.35701,0.67073 -2.94531,1.12695 -11.0558,3.17567 -23.34269,9.55532 -34.39258,17.85547 -4.39826,3.30377 -10.99004,8.97485 -13.92578,11.98242 l -1.72071,1.76367 1.72071,0.21289 c 3.02762,0.37223 8.16127,-0.51346 13.33984,-2.30078 3.79318,-1.30914 3.56705,-0.59711 -0.69726,2.20899 -5.47746,3.60437 -10.99884,6.10546 -20.34375,9.21093 -18.69858,6.21386 -31.17141,13.28726 -41.48243,23.52539 -4.74728,4.71372 -7.46088,8.10045 -12.94336,16.16016 -5.10491,7.50464 -6.82703,9.71969 -9.21679,11.85352 -3.18517,2.84403 -7.15981,4.33049 -13.65039,5.10546 -3.77541,0.45077 -7.09702,0.2214 -11.6836,-0.80664 -3.96102,-0.88781 -6.73648,-0.72567 -10.60351,0.61914 -5.53891,1.92624 -9.36835,6.27353 -11.01563,12.50782 -0.70463,2.6667 -1.01862,9.89567 -0.44531,10.25 0.78479,0.48502 7.07722,0.29432 9.74414,-0.29493 3.24729,-0.71748 7.78722,-2.90593 10.15039,-4.89453 1.00676,-0.84718 2.57045,-2.47709 3.47656,-3.62109 0.9061,-1.144 1.70018,-2.13733 1.76368,-2.20703 0.0635,-0.0697 0.95463,0.25058 1.98046,0.71094 3.35285,1.50467 5.86676,1.94386 10.94922,1.91406 6.17633,-0.0362 10.01924,-0.9148 14.95899,-3.41797 0.91192,-0.4621 1.78911,-0.83984 1.94922,-0.83984 0.16013,0 0.46406,1.40509 0.67382,3.12109 2.02214,16.5428 8.40166,27.13452 20.78907,34.51367 6.41379,3.82067 9.47453,10.85891 8.64257,19.875 -0.32531,3.52557 -0.68172,5.19353 -1.94921,9.08594 l -1.00196,3.07422 2.98047,5.72461 c 2.67713,5.14393 7.57162,14.22977 8.9043,16.52734 l 0.51172,0.88086 -4.47266,4.39844 c -19.02093,18.70857 -31.04029,41.20766 -35.80469,67.02148 -2.60733,14.12391 -2.60449,30.13804 0.006,44.41797 10.31622,56.43492 57.45656,98.30555 114.92969,102.08203 2.2447,0.14738 6.81811,0.2023 10.16211,0.1211 19.3888,-0.47104 36.48071,-4.75404 53.59961,-13.42969 12.7065,-6.43949 22.62226,-13.75713 32.97656,-24.33594 20.2215,-20.65981 32.39406,-47.3717 34.88086,-76.54297 0.4929,-5.78214 0.21983,-20.18515 -0.48047,-25.33398 -2.8308,-20.81357 -9.96496,-39.3898 -21.44726,-55.84375 -8.2572,-11.83235 -20.35576,-23.82122 -31.84766,-31.56055 -4.1301,-2.78147 -3.95123,-2.17349 -2.74023,-9.32226 3.5243,-20.804 13.45522,-41.828 28.29882,-59.91407 8.3289,-10.1482 22.56885,-24.93769 31.56055,-32.77929 11.2489,-9.81011 22.2723,-18.64225 32.1582,-25.76368 14.1908,-10.22252 19.22743,-14.71066 23.35743,-20.8164 8.8501,-13.08395 9.30446,-31.28212 1.10156,-44.0918 -1.6846,-2.6307 -4.82336,-5.98828 -5.59766,-5.98828 -0.286,0 -1.37055,0.29277 -2.41015,0.65234 -1.0396,0.35956 -3.50587,1.08645 -5.48047,1.61524 l -3.58985,0.96289 -2.16992,-1.79688 c -2.0754,-1.71803 -6.99129,-4.39002 -8.77539,-4.76953 l -0.8457,-0.17969 1.5664,3.69336 c 0.8609,2.03142 1.56446,3.90308 1.56446,4.15821 0,0.32474 -0.35922,0.46112 -1.19922,0.45312 -1.1172,-0.0106 -1.31639,-0.17233 -2.8711,-2.32226 -3.2628,-4.51186 -8.25687,-8.96691 -12.08007,-10.77539 -2.0323,-0.96134 -4.43978,-1.72347 -4.26758,-1.35157 0.056,0.12083 0.47941,0.94032 0.94141,1.82032 1.7971,3.42316 5.34382,12.47839 5.01562,12.80664 -0.2469,0.24689 -3.77752,-0.49454 -5.60352,-1.17774 -1.1602,-0.43407 -3.00253,-1.72851 -5.80273,-4.07617 -18.0297,-15.11618 -33.06011,-22.02656 -54.13281,-24.88672 -3.0685,-0.41667 -9.29755,-0.62714 -15.60547,-0.62891 z m -65.125,187.23243 0.19141,3.52539 c 0.20448,3.78004 0.77293,6.92452 1.76953,9.79492 l 0.62109,1.79102 -5.48633,0.21484 c -4.6728,0.18228 -9.5445,0.67964 -16.21679,1.6582 l -1.45118,0.21289 -1.14843,-2.83398 c -2.173,-5.36469 -2.41979,-8.84656 -0.80079,-11.29297 l 0.80664,-1.21875 7.30274,-0.17383 c 5.9711,-0.14204 7.95062,-0.31082 10.85742,-0.92578 z m 41.19922,2.30468 0.52929,1.73438 c 1.3852,4.5498 4.13953,18.34434 3.73243,18.69141 -0.051,0.0431 -0.6671,-0.13297 -1.3711,-0.39258 -0.704,-0.25962 -3.00714,-1.01332 -5.11914,-1.67383 l -3.83984,-1.20117 0.0625,-1.10742 c 0.1,-1.73929 2.48292,-8.62973 4.32812,-12.51563 z m -90.87305,5.29688 c 0.018,0.002 0.0311,0.008 0.041,0.0176 0.10279,0.1028 -0.12869,2.02845 -0.51368,4.27929 -0.88381,5.16726 -0.57505,8.5899 1.12305,12.4629 l 0.71485,1.63085 -2.73829,1.24805 c -1.5062,0.68685 -2.84957,1.29409 -2.98437,1.34961 -0.13481,0.0555 -0.52149,-0.44762 -0.86133,-1.11914 -1.20873,-2.38839 -2.34673,-6.05136 -2.52148,-8.11719 -0.21762,-2.57272 0.42599,-5.02549 1.8164,-6.91406 1.00623,-1.36675 5.36501,-4.9056 5.92383,-4.83789 z" /><g
     id="g2196"
     style="fill:#ffffff"
     transform="translate(-755.90736)"><path
       style="fill:#ffffff;stroke-width:0.32"
       d="m 1118.052,372.35297 c -0.3253,-5.69539 -1.9979,-11.85699 -4.9056,-18.07123 -1.5906,-3.39936 -1.481,-3.29232 -7.507,-7.32749 -24.3488,-16.30445 -54.89,-22.19021 -84.1852,-16.22378 -20.6845,4.21271 -39.2906,14.02304 -54.63573,28.80746 -3.75922,3.62186 -10.39732,11.00438 -10.13269,11.26902 0.0677,0.0677 1.87058,-0.83801 4.00643,-2.0127 20.61304,-11.33661 42.54539,-18.01987 64.65329,-19.70128 6.0858,-0.46285 19.3277,-0.20022 24.96,0.49501 23.1002,2.85149 44.9904,11.07539 63.8205,23.97667 1.9253,1.3191 3.6378,2.3135 3.8055,2.20982 0.181,-0.11187 0.23,-1.50342 0.1205,-3.4215 z"
       id="path1898" /><path
       style="fill:#ffffff;stroke-width:0.32"
       d="m 960.48388,430.61284 c 15.99181,-13.34179 34.9186,-17.7816 51.69592,-12.12675 l 2.6743,0.90141 2.9659,-1.52934 c 3.4121,-1.75933 8.3428,-3.48164 12.8651,-4.4938 2.7581,-0.61728 4.0948,-0.70396 10.9804,-0.71212 8.6268,-0.0102 10.5154,0.21968 18.4816,2.24934 8.2511,2.10227 19.3253,6.8608 27.7089,11.90637 l 3.7904,2.28125 2.6096,-1.61264 c 10.5077,-6.49357 17.9056,-15.18938 20.381,-23.95655 0.7562,-2.6784 1.167,-8.44144 0.807,-11.32259 l -0.2267,-1.81447 -2.9359,-2.27411 c -15.9146,-12.32729 -36.8691,-21.5047 -56.7983,-24.87593 -9.9283,-1.67946 -23.2507,-2.23572 -32.2176,-1.34519 -23.42156,2.32602 -46.39947,10.86071 -68.8,25.55431 -6.01325,3.94441 -12.23263,8.37062 -13.07459,9.30499 -0.7182,0.79699 -2.69976,5.91744 -4.2174,10.89792 l -1.11067,3.64493 0.61779,2.59507 c 2.12206,8.91389 6.46794,16.15958 13.36381,22.28093 l 2.12621,1.88739 2.84581,-2.62662 c 1.56519,-1.44464 4.02554,-3.61085 5.46742,-4.8138 z"
       id="path1896" /><path
       style="fill:#ffffff;stroke-width:0.32"
       d="m 1104.6493,496.33509 c 5.5769,-3.38724 11.3351,-8.09831 16.6962,-13.65984 14.3711,-14.90855 24.7691,-35.01284 31.0693,-60.07191 l 1.283,-5.10323 -1.1591,-4.63191 c -2.8645,-11.44716 -7.9493,-23.09923 -14.4828,-33.18819 -2.1666,-3.34557 -6.8344,-9.75139 -7.1104,-9.75779 -0.088,-0.003 -0.115,1.18464 -0.06,2.63705 0.1413,3.72999 -0.6674,8.60759 -2.0308,12.24781 -1.1186,2.9865 -1.1421,3.13911 -0.8106,5.27549 0.577,3.71885 0.4272,10.19555 -0.3208,13.86717 -2.5448,12.49197 -11.4869,24.24109 -25.4546,33.44486 -2.3083,1.521 -4.4455,2.91076 -4.7495,3.08839 -0.7301,0.42669 -1.3232,4.95091 -1.7616,13.43702 -0.5656,10.94912 0.321,22.08362 2.5862,32.48 0.682,3.13015 2.7488,10.79095 3.0372,11.25748 0.2713,0.439 0.5617,0.32147 3.2682,-1.3224 z"
       id="path1894" /><path
       style="fill:#ffffff;stroke-width:0.32"
       d="m 960.37045,511.16641 c -5.97807,-16.31811 -10.61898,-37.08064 -12.60859,-56.40841 -0.26055,-2.53111 -0.51482,-4.6281 -0.56505,-4.66 -3.91026,-2.48231 -9.55973,-7.65277 -12.59324,-11.52551 -1.03933,-1.32685 -1.99957,-2.41248 -2.13388,-2.41248 -0.34427,0 -0.29773,6.02983 0.0889,11.52 1.38126,19.61344 7.38263,37.54832 17.93137,53.58717 3.63013,5.51943 10.98828,14.86675 11.38821,14.46682 0.0667,-0.0667 -0.61182,-2.12208 -1.50773,-4.56759 z"
       id="path1892" /><path
       style="fill:#ffffff;stroke-width:0.32"
       d="m 1122.5874,519.74216 c 2.9575,-2.93818 6.6194,-6.87063 8.1376,-8.73879 12.2187,-15.03596 19.9531,-31.767 23.415,-50.65171 0.4485,-2.44656 0.7521,-4.51171 0.6746,-4.58918 -0.077,-0.0774 -1.3777,2.30764 -2.8894,5.30022 -8.8541,17.52723 -19.6062,30.97351 -32.6597,40.84339 -3.6909,2.79069 -7.9198,5.54832 -10.8826,7.09648 -0.9658,0.50458 -1.7562,1.04948 -1.7566,1.21082 0,0.93373 5.9332,10.77114 9.1031,15.08701 0.4854,0.66086 1.0968,0.16534 6.858,-5.55824 z"
       id="path1890" /><path
       style="fill:#ffffff;stroke-width:0.32"
       d="m 1062.4655,550.51346 c 14.0744,-2.28554 28.1238,-7.52791 40.08,-14.95546 1.716,-1.06605 3.12,-2.04387 3.12,-2.17299 0,-0.12909 -0.9936,-1.6066 -2.2081,-3.2833 -4.2199,-5.82634 -9.3012,-15.15062 -12.0442,-22.1017 -4.0566,-10.27964 -6.9696,-22.55718 -8.1999,-34.56 -0.6285,-6.13187 -0.5328,-21.77302 0.1703,-27.84 0.306,-2.64 0.6289,-5.09507 0.7177,-5.45574 0.1366,-0.5552 -0.4669,-1.02861 -3.9372,-3.08839 -13.6495,-8.1014 -25.5161,-11.85126 -37.5386,-11.86211 -7.1933,-0.006 -12.6949,1.12151 -18.519,3.79696 l -2.3589,1.08365 0.2154,5.36282 c 1.7499,43.56918 9.7912,79.83597 22.8293,102.96281 1.9569,3.47117 5.0532,8.14785 7.2689,10.97889 l 1.8304,2.33891 1.807,-0.19946 c 0.9938,-0.10969 4.0389,-0.56192 6.7669,-1.00489 z"
       id="path1888" /><path
       style="fill:#ffffff;stroke-width:0.32"
       d="m 1037.8255,551.73608 c 0,-0.14515 -1.0341,-1.98115 -2.2981,-4.08 -8.7785,-14.57699 -16.4202,-36.14023 -20.8579,-58.85607 -3.0322,-15.52153 -4.6467,-30.03795 -5.3798,-48.37145 l -0.3859,-9.65146 -2.2591,-0.65933 c -14.17297,-4.13648 -30.07054,1.58391 -44.12165,15.87616 l -2.50244,2.54541 0.51784,4.77034 c 3.30052,30.40425 12.02892,59.3136 23.97464,79.40643 1.90518,3.20454 2.18876,3.52522 4.07995,4.61389 12.79656,7.36637 28.81536,12.58326 42.99246,14.00147 3.1134,0.31143 4.4124,0.44947 5.84,0.62061 0.22,0.0262 0.4,-0.0708 0.4,-0.216 z"
       id="path1886" /></g><g
     id="g2983"
     transform="translate(-755.90736)"><path
       style="fill:#ffffff;stroke-width:0.32"
       d="m 975.30279,322.00001 c -1.52794,-5.1595 -1.99073,-8.63306 -1.48344,-11.13427 0.9461,-4.66479 3.48822,-7.95888 10.05255,-13.02616 5.83546,-4.50463 9.40415,-8.12982 10.78285,-10.95352 1.05865,-2.16822 1.09052,-2.34713 1.08296,-6.08 -0.0107,-5.29786 -1.02575,-8.58428 -4.01282,-12.99252 -2.70688,-3.99475 -7.77845,-8.04676 -12.27434,-9.80681 l -2.26505,-0.88672 3.04,-0.0987 c 4.03624,-0.13108 8.82064,0.44449 11.98525,1.44187 10.12715,3.19175 15.56375,10.56146 18.58035,25.18724 0.1791,0.86833 0.4176,0.59092 3.5771,-4.16 1.8618,-2.79971 3.433,-5.14599 3.4915,-5.21397 0.058,-0.068 0.8433,0.19346 1.7441,0.58097 6.223,2.67706 14.5555,-0.61452 21.6613,-8.5569 6.9604,-7.7798 10.9932,-11.11879 16.5051,-13.66542 2.4032,-1.11038 6.3076,-2.48836 8.1196,-2.86569 l 1.0242,-0.2133 -1.7989,2.98197 c -6.6294,10.98946 -9.8229,24.07924 -8.7881,36.02197 0.6974,8.04871 2.5703,14.60229 6.2874,22 2.8015,5.57532 3.137,5.71601 4.1971,1.76 4.4652,-16.66167 13.0547,-30.26712 27.7461,-43.94867 l 3.7246,-3.46867 2.9715,0.3862 c 4.6737,0.60745 9.8457,0.002 15.2398,-1.78358 6.9019,-2.28486 16.2923,-8.13442 23.6741,-14.74716 l 1.3821,-1.23812 -0.6726,-1.50991 c -1.3896,-3.11935 -2.0087,-6.28076 -2.0231,-10.33009 -0.012,-3.35918 0.095,-4.15615 0.8517,-6.36485 0.476,-1.38867 1.2516,-3.18384 1.7236,-3.98927 1.1989,-2.04577 4.6703,-5.64225 6.9221,-7.17135 2.3969,-1.62772 11.3927,-6.00025 23.7464,-11.54224 22.8999,-10.27314 32.5891,-15.9849 40.3194,-23.76821 4.0765,-4.10433 6.0343,-6.98846 7.3613,-10.84409 0.766,-2.22561 0.8826,-3.06157 0.8928,-6.4 0.013,-4.21717 -0.6508,-7.31687 -2.248,-10.49898 -1.2902,-2.57051 -1.0723,-2.49538 -4.3681,-1.50641 -1.6223,0.48681 -3.9937,1.13864 -5.2697,1.44852 -1.276,0.30987 -2.32,0.67974 -2.32,0.82193 0,0.14219 0.4634,1.59872 1.0297,3.23674 0.9131,2.64068 1.0307,3.37713 1.0382,6.4982 0.01,3.20887 -0.073,3.696 -0.9094,5.51116 -1.0782,2.33876 -3.6084,4.89839 -5.8783,5.94673 -2.1942,1.0134 -6.9544,0.98662 -9.0838,-0.0511 -2.0205,-0.98471 -4.1081,-2.82881 -4.638,-4.09708 -0.6888,-1.64838 -0.5327,-2.98184 0.8629,-7.37422 1.3925,-4.38281 2.0398,-8.08245 1.4452,-8.26023 -0.1906,-0.057 -2.0025,-0.18124 -4.0265,-0.27614 -4.626,-0.2169 -8.3118,-1.10814 -12,-2.90157 -3.2766,-1.5933 -5.3405,-3.09127 -12.2527,-8.89284 -10.695,-8.97666 -17.0809,-12.9705 -25.3725,-15.86852 -13.4689,-4.70758 -35.8091,-4.98255 -55.5931,-0.68429 -1.4379,0.3124 -1.6832,0.46959 -1.6,1.02529 0.084,0.55804 0.7212,0.81163 4.2583,1.69348 5.0163,1.25065 8.1474,2.36005 11.3994,4.03897 3.3385,1.7236 5.0806,3.25132 5.0806,4.4553 0,0.51429 -0.062,0.93506 -0.1384,0.93506 -0.076,0 -1.7681,-0.41782 -3.76,-0.92849 -12.6505,-3.24328 -26.4144,-3.40675 -37.1841,-0.44162 -1.805,0.49696 -1.914,0.58735 -2.651,2.19706 -1.07,2.33714 -1.6944,5.56599 -1.7009,8.79545 l -0.01,2.74239 -4.08,1.53708 c -13.6303,5.13495 -20.138,9.26067 -31.6,20.03351 -6.4498,6.06188 -10.6901,9.06937 -16.7739,11.89698 -2.86695,1.33249 -10.58234,4.04784 -13.4027,4.71693 -1.27963,0.30358 -1.67194,0.53129 -1.59641,0.9266 0.22312,1.16786 10.45907,1.09436 16.28581,-0.11695 3.4255,-0.71211 7.0276,-1.94838 10.7391,-3.68572 2.9948,-1.40183 3.2646,-1.47379 3.4121,-0.90976 0.2124,0.81214 -3.3817,3.86427 -7.3505,6.24207 -7.4383,4.45645 -20.79939,8.75841 -36.11354,11.6277 -9.51712,1.78316 -12.71549,2.68375 -16.99104,4.78435 -11.56634,5.68259 -19.33237,15.82544 -22.49692,29.3822 -1.91755,8.21468 -1.25507,18.1015 1.69896,25.35507 2.11998,5.20558 6.28837,10.29508 10.66701,13.02417 4.43525,2.76437 10.75131,4.22026 16.32199,3.76232 1.452,-0.11937 2.64,-0.12389 2.64,-0.01 0,0.11383 -0.45192,1.10222 -1.00427,2.19641 -5.18189,10.26527 -4.23894,21.52645 2.61575,31.23848 3.27011,4.63323 8.22229,9.11815 7.54581,6.83383 z"
       id="path1904" /><g
       id="g2941"
       style="fill:#000000"><path
         style="fill:#000000;stroke-width:0.32"
         d="m 1146.3326,164.45168 c 1.1291,-0.36758 3.1329,-1.26361 4.4529,-1.99118 1.32,-0.72756 3.3305,-1.55137 4.4677,-1.83067 l 2.0678,-0.50783 -1.7312,-1.36839 c -3.5807,-2.83039 -7.5182,-4.2647 -13.7366,-5.00378 -5.3711,-0.63839 -9.1872,-1.35109 -10.2913,-1.922 -1.1348,-0.58686 -1.2564,-0.58414 -1.2564,0.0281 0,2.24 3.5747,5.46549 7.8041,7.04182 1.8061,0.67313 1.646,0.80118 -1.8041,1.44298 -1.188,0.22099 -2.16,0.50441 -2.16,0.6298 0,0.47896 2.9786,2.94531 4.2591,3.52668 1.8546,0.84199 5.2621,0.82243 7.928,-0.0455 z"
         id="path2382" /><path
         style="fill:#000000;stroke-width:0.32"
         d="m 1081.1634,173.09737 c -2.1075,-4.87137 -2.7439,-7.0384 -2.9296,-9.97529 -0.2193,-3.46971 0.3142,-5.08669 2.2745,-6.89362 2.2575,-2.08092 4.3445,-2.66507 14.5875,-4.08308 3.7308,-0.51647 6.8488,-1.5454 6.636,-2.18987 -0.1861,-0.56371 -6.3678,-3.04679 -9.6712,-3.88476 -4.7756,-1.21143 -8.0967,-1.53299 -13.7551,-1.33181 -5.195,0.18471 -9.3583,0.85441 -12.96,2.08472 l -1.76,0.60121 0.01,4.76757 c 0.01,5.54786 0.5135,8.10276 2.4075,12.20127 2.7584,5.96914 6.9513,9.51619 13.4905,11.41258 1.9413,0.56298 2.6788,0.66477 2.7464,0.37906 0.051,-0.21484 -0.4327,-1.60443 -1.0746,-3.08798 z"
         id="path2380" /></g></g></g><g
   id="g9469"
   style="fill:#ffffff"
   transform="matrix(1.0462727,0,0,1.0462727,-4.8032033,-5.2109285)"><path
     style="fill:#ffffff;stroke-width:0.32"
     d="m 111.19943,453.90558 c 3.3401,-0.94378 5.13601,-2.84726 6.30847,-6.68637 0.55379,-1.81331 0.69089,-3.08022 0.69464,-6.4192 0.005,-4.71075 -0.39915,-6.83878 -1.81097,-9.52838 -1.14059,-2.1729 -2.83793,-3.54458 -5.35214,-4.32519 -1.53257,-0.4758 -3.37266,-0.54643 -14.23999,-0.54643 -14.72181,0 -15.13032,0.0659 -17.97207,2.89667 -2.30531,2.29645 -3.01201,4.57632 -3.21859,10.38333 -0.37988,10.67834 2.86524,14.72 11.81889,14.72 h 2.97051 v -7.52 l -2.71873,-0.17347 c -4.64533,-0.2964 -5.22858,-1.05322 -5.06666,-6.57578 0.10025,-3.41926 0.15652,-3.68771 0.93626,-4.46665 0.45629,-0.45581 1.39229,-0.95927 2.08,-1.11879 1.74085,-0.4038 20.42841,-0.36844 22.21039,0.042 1.89909,0.43744 2.74941,1.29437 3.21653,3.24154 0.48087,2.00448 0.24974,5.52803 -0.45157,6.88419 -0.73616,1.42358 -1.56614,1.78889 -4.52496,1.99158 l -2.57008,0.17536 v 7.45319 c 0.14166,0.36915 0.72964,0.41401 3.13251,0.23939 1.51525,-0.2087 3.08357,-0.26741 4.55756,-0.66699 z"
     id="path1194"
     sodipodi:nodetypes="cscssssssccsssssssscccc" /><path
     style="fill:#ffffff;stroke-width:0.32"
     d="m 95.35944,498.66488 c 4.79819,-0.98727 7.3006,-2.83879 8.62692,-6.38301 0.38732,-1.03501 1.13126,-4.47386 1.65319,-7.64186 0.52193,-3.168 1.2035,-6.264 1.51459,-6.88 0.7086,-1.4031 2.42718,-2.2887 4.56435,-2.35209 1.398,-0.0415 1.71743,0.071 2.37714,0.83734 0.92461,1.07399 1.70369,3.54448 1.96215,6.22211 0.25854,2.6784 -0.23794,3.42218 -2.78373,4.17028 -1.05255,0.30931 -1.94213,0.6611 -1.91417,0.7742 l 1.69977,6.87504 c 0.094,0.38041 3.95928,-0.78515 5.59518,-1.61414 1.97995,-1.00333 3.76138,-2.97952 4.26792,-4.73459 0.6298,-2.18215 0.42853,-6.40922 -0.47124,-9.89687 -1.96672,-7.62329 -4.75208,-10.51117 -10.14484,-10.51814 -2.513,-0.003 -5.255,0.56761 -7.50347,1.56224 -3.84831,1.70227 -5.53901,5.04947 -6.73236,13.32842 -0.99464,6.90032 -1.68114,8.05433 -5.20367,8.74736 -3.12397,0.61459 -3.90169,-0.0583 -5.00129,-4.32733 -0.70764,-2.74733 -0.66379,-4.75648 0.12095,-5.54122 0.34507,-0.34509 1.42507,-0.85929 2.4,-1.14272 0.97493,-0.28342 1.7716,-0.61309 1.77036,-0.73261 l -1.43665,-6.34912 c -0.15615,-0.67875 -0.19605,-0.68326 -2.10645,-0.23756 -7.15842,1.66992 -9.45522,5.35206 -8.13716,13.04515 1.4579,8.50934 4.13716,12.5728 8.77145,13.30313 1.68768,0.26599 2.75767,0.176 6.11106,-0.51401 z"
     id="path1190"
     sodipodi:nodetypes="ssssssssssssscssssssccssss" /><path
     id="path1180"
     style="fill:#ffffff;stroke-width:0.32"
     d="m 167.73455,561.67383 -27.02539,31.65234 5.84961,5.20117 c 9.21911,8.19716 13.555,10.00112 18.49219,7.05664 7.81382,-4.66006 13.6988,-11.30781 17.78711,-19.66406 1.16158,-3.18504 1.60157,-6.0074 0.47799,-9.18793 -0.46881,-1.28328 -1.34822,-2.50143 -2.98775,-4.13824 z m 1.48243,10.48633 c 0.47522,0 5.44223,4.96712 6.01953,5.83007 1.40474,2.09981 0.62167,3.55922 -0.31641,5.47657 -1.77668,3.63142 -10.31003,13.28122 -12.72851,14.39453 -1.38902,0.63939 -2.81688,1.5276 -4.92774,0.0879 -0.88097,-0.60087 -5.65656,-4.16916 -5.84375,-4.67578 z"
     sodipodi:nodetypes="ccsscccccsssscc" /><path
     id="path1176"
     style="fill:#ffffff;stroke-width:0.32"
     d="m 198.80096,585.59961 -31.99609,29.3418 6.88086,4.20507 5.36523,-4.71289 10.94727,6.61133 -1.75391,6.79102 7.27539,4.15625 10.16016,-41.94727 z m -2.06836,11.50391 -4.86523,16.94531 -7.70703,-4.69531 z"
     sodipodi:nodetypes="ccccccccccccc" /><path
     style="fill:#ffffff;stroke-width:0.32"
     d="m 244.23523,605.86843 -7.06182,-2.5392 -6.77551,18.10544 -6.60291,-23.13024 -7.04593,-2.3607 -14.03904,39.19354 7.21791,2.383 9.55347,-26.21731 6.52092,22.27955 -2.96289,8.59159 7.04412,2.93027 z"
     id="path1174"
     sodipodi:nodetypes="cccccccccccc" /><path
     id="rect6420"
     style="fill:#ffffff;fill-rule:evenodd;stroke-width:1.03242"
     d="m 149.05371,539.60879 -31.86851,26.5188 14.58176,17.52339 5.50234,-4.57867 -9.70201,-11.65924 7.68075,-6.3914 8.61763,10.3561 5.50234,-4.57867 -8.61764,-10.35609 7.68075,-6.39141 9.70202,11.65925 5.50233,-4.57867 z"
     sodipodi:nodetypes="ccccccccccccc" /><rect
     style="fill:#ffffff;fill-rule:evenodd;stroke-width:0.865985"
     id="rect6786"
     width="7.8552351"
     height="7.8552351"
     x="-101.20287"
     y="505.83868"
     transform="rotate(-21.031807)" /><rect
     style="fill:#ffffff;fill-rule:evenodd;stroke-width:0.865985"
     id="rect6868"
     width="7.8552351"
     height="7.8552351"
     x="19.056843"
     y="467.06931"
     transform="rotate(-7.1112685)" /><path
     style="fill:#ffffff;stroke-width:0.32"
     d="m 120.9632,552.24765 c 4.28367,-2.37641 6.1182,-4.89132 6.32444,-8.66995 0.0602,-1.10346 -0.25786,-4.60746 -0.70672,-7.78663 -0.44894,-3.17917 -0.72399,-6.33735 -0.61126,-7.01817 0.25679,-1.55076 1.63207,-2.9096 3.65257,-3.60894 1.32167,-0.45749 1.66013,-0.44563 2.51874,0.0884 1.20338,0.74849 2.68533,2.87314 3.73238,5.35108 1.04735,2.47866 0.79591,3.33683 -1.40987,4.81173 -0.91196,0.6098 -1.6557,1.21142 -1.59521,1.31099 l 3.67716,6.05259 c 0.20341,0.33493 3.54355,-1.93277 4.85684,-3.21287 1.58951,-1.5493 2.69876,-3.96765 2.65751,-5.79389 -0.0513,-2.27063 -1.50694,-6.24427 -3.4081,-9.30348 -4.15557,-6.68684 -7.67683,-8.61007 -12.82511,-7.0047 -2.39899,0.74833 -4.84505,2.1125 -6.69339,3.73377 -3.16351,2.77478 -3.77636,6.47433 -2.44036,14.73146 1.11348,6.88214 0.80334,8.1886 -2.35096,9.90291 -2.79743,1.52031 -3.74073,1.11067 -6.06616,-2.63448 -1.49653,-2.41019 -2.05526,-4.34057 -1.54098,-5.32401 0.22613,-0.43246 1.10305,-1.24599 1.94867,-1.80788 0.84564,-0.56189 1.50734,-1.11464 1.47043,-1.22832 l -3.26886,-5.62938 c -0.35191,-0.60103 -0.39133,-0.59341 -2.08116,0.40297 -6.33193,3.73339 -7.42304,7.93373 -3.8656,14.88108 3.93487,7.68447 7.70629,10.76124 12.34701,10.07288 1.69002,-0.25065 2.68419,-0.65638 5.678,-2.31724 z"
     id="path7398"
     sodipodi:nodetypes="ssssssssssssscssssssccssss" /><path
     id="path7639"
     style="fill:#ffffff;stroke-width:0.32"
     d="m 334.41063,604.64994 -0.2518,43.41231 7.7627,-2.18426 0.194,-7.13856 12.2923,-3.52868 3.7855,5.9046 7.9952,-2.50667 -23.8406,-35.97813 z m 7.0266,9.34048 9.1132,15.09182 -8.6838,2.45643 z"
     sodipodi:nodetypes="ccccccccccccc" /><path
     id="path8120"
     style="fill:#ffffff;stroke-width:0.32"
     d="m 374.70313,588.98179 c -1.203,-0.008 -2.4772,0.22618 -3.8413,0.69541 -1.8792,0.64635 -16.8168,8.28753 -16.8151,8.60159 l 19.1636,37.00479 7.1185,-3.68644 -6.4094,-12.37647 c 0,-0.14151 1.4846,-1.02576 3.1681,-1.89644 l 3.0621,-1.58239 10.8184,10.3456 7.1365,-3.69578 -12.2073,-11.73669 0.6671,-1.35608 c 0.5319,-1.08161 0.6579,-1.9111 0.6212,-4.07835 -0.053,-3.13717 -1.0862,-5.59352 -3.1478,-9.41892 -2.1188,-3.93277 -5.8588,-6.71687 -9.3346,-6.81983 z m 0.891,8.63495 c 1.3728,1.18983 3.7284,5.63408 3.9971,7.5422 0.3467,2.46299 -0.8791,3.67096 -6.7377,6.6462 l -2.1964,1.11604 -6.3043,-12.1735 c 5.0591,-2.63916 7.88,-3.99754 8.7218,-3.99519 1.0562,-0.18365 1.9474,0.37202 2.5195,0.86425 z"
     sodipodi:nodetypes="cscccccccccssscccccccc" /><path
     id="path8665"
     style="fill:#ffffff;stroke-width:0.32"
     d="m 382.42393,583.3922 25.8162,32.64596 6.2361,-4.73102 c 9.8281,-7.45621 12.4379,-11.3603 10.5059,-16.77454 -3.0578,-8.56863 -8.4395,-15.63012 -15.8452,-21.26002 -2.8996,-1.75666 -5.5833,-2.73518 -8.9212,-2.24902 -1.3499,0.21122 -2.7153,0.83793 -4.6388,2.12922 z m 10.5749,0.57731 c 0.092,-0.46617 5.9273,-4.37668 6.8859,-4.77589 2.3322,-0.97115 3.6122,0.0799 5.3114,1.37158 3.2184,2.44663 11.032,12.68804 11.6557,15.27626 0.3581,1.48661 0.9529,3.05949 -0.8684,4.85147 -0.7602,0.74796 -5.186,4.7416 -5.7193,4.8269 z"
     sodipodi:nodetypes="ccsscccccsssscc" /><path
     id="path8685"
     style="fill:#ffffff;fill-rule:evenodd;stroke-width:1.03242"
     d="m 408.24093,562.59425 31.4061,27.06486 14.8821,-17.26913 -5.4226,-4.67297 -9.9017,11.49011 -7.5694,-6.52301 8.7952,-10.20583 -5.4226,-4.67298 -8.795,10.20582 -7.5694,-6.523 9.9018,-11.49002 -5.4224,-4.67298 z"
     sodipodi:nodetypes="ccccccccccccc" /><path
     style="fill:#ffffff;stroke-width:0.32"
     d="m 441.55023,516.94488 -3.918,6.40054 16.3563,10.30472 -23.9883,1.77748 -3.74,6.42125 35.5343,21.69186 3.7966,-6.58504 -23.7367,-14.66928 23.1388,-1.86961 7.8127,4.64286 4.2972,-6.30394 z"
     id="path9009"
     sodipodi:nodetypes="cccccccccccc" /><path
     style="fill:#ffffff;stroke-width:0.32"
     d="m 453.88173,485.04189 -2.5692,7.05102 18.0767,6.8521 -23.1578,6.50486 -2.3907,7.03597 39.1337,14.20484 2.4136,-7.20774 -26.1767,-9.66442 22.307,-6.42649 8.579,2.99925 2.96,-7.03164 z"
     id="path9029"
     sodipodi:nodetypes="cccccccccccc" /><path
     id="path9031"
     style="fill:#ffffff;fill-rule:evenodd;stroke-width:1.03242"
     d="m 455.01113,479.55314 40.8479,7.09239 3.8999,-22.46086 -7.0528,-1.22452 -2.5947,14.94436 -9.845,-1.70932 2.3049,-13.27411 -7.0528,-1.22453 -2.3047,13.27401 -9.845,-1.70931 2.5948,-14.94434 -7.0526,-1.22463 z"
     sodipodi:nodetypes="ccccccccccccc" /><path
     style="fill:#ffffff;stroke-width:0.32"
     d="m 470.11263,453.22634 c 4.8973,0.11041 7.7504,-1.13471 9.8356,-4.29264 0.6088,-0.92236 2.1029,-4.10775 3.32,-7.07875 1.2169,-2.97116 2.5736,-5.83638 3.0143,-6.36722 1.0045,-1.20917 2.8776,-1.68807 4.9748,-1.27198 1.372,0.27212 1.6581,0.45312 2.13,1.34719 0.661,1.25354 0.8681,3.83568 0.5217,6.5032 -0.3468,2.66847 -0.997,3.28241 -3.6457,3.44237 -1.0949,0.0662 -2.0408,0.21011 -2.0388,0.32664 l 0.1196,7.08106 c 0.01,0.39183 4.0346,0.11992 5.8144,-0.3223 2.1543,-0.5352 4.3325,-2.06312 5.2186,-3.66045 1.102,-1.98592 1.8506,-6.15122 1.7535,-9.7517 -0.2126,-7.87001 -2.2817,-11.30763 -7.5365,-12.52014 -2.4485,-0.56478 -5.2487,-0.62167 -7.6627,-0.15489 -4.1316,0.79872 -6.5278,3.68314 -9.542,11.48568 -2.5123,6.5033 -3.4394,7.47454 -7.0277,7.36251 -3.1823,-0.0994 -3.7898,-0.92923 -3.9071,-5.33598 -0.076,-2.83604 0.4165,-4.78453 1.3567,-5.37389 0.4136,-0.25927 1.5812,-0.51895 2.5948,-0.57719 1.0136,-0.0583 1.8639,-0.20159 1.8893,-0.31824 l 0.019,-6.50965 c -6e-4,-0.69644 -0.042,-0.7096 -2,-0.70246 -7.3506,0.027 -10.4125,3.10248 -10.8477,10.8955 -0.4817,8.61988 1.2217,13.17952 5.5749,14.92753 1.5855,0.63664 2.6486,0.78809 6.0714,0.86538 z"
     id="path9334"
     sodipodi:nodetypes="ssssssssssssscssssssccssss" /></g><g
   id="g18481"
   transform="matrix(1.0462727,0,0,1.0462727,-5.0033876,-5.2109285)"><rect
     style="fill:#000000;fill-rule:evenodd"
     id="rect4508"
     width="51.84"
     height="81.279999"
     x="261.44125"
     y="589.76001" /><g
     id="g13333"
     style="fill:#ffffff"><path
       style="fill:#ffffff;stroke-width:0.32"
       d="m 272.31874,621.76002 h 4.4812 V 607.0852 l -4.4812,1.23482 v -3.28295 l 5.54126,-1.83581 h 2.78024 V 621.76 h 3.2 v 3.2 h -11.52 z"
       id="path2342"
       sodipodi:nodetypes="cccccccccccc" /><path
       id="path2338"
       style="fill:#ffffff;stroke-width:0.32"
       d="m 294.04677,603.0018 c -1.40449,-0.005 -2.47946,0.37831 -3.43396,0.86719 -2.1827,1.11792 -2.54281,2.24526 -2.42781,6.43374 0.094,3.4199 0.19638,3.65894 1.30158,4.79794 0.6082,0.62701 1.71456,1.04829 2.33836,1.2216 1.6452,0.45706 3.61663,0.60195 4.91805,0.0811 l 1.55601,-0.4224 v 2.57564 c 0,2.58805 -0.57845,3.20313 -2.84905,3.20313 -2.2136,0 -3.13999,-0.35513 -3.15194,-1.76368 V 618.881 h -3.8944 c -0.12837,0.10651 -0.083,0.46 -0.083,0.71861 0,1.26038 0.6453,3.19103 1.3847,4.05074 0.4087,0.47501 1.3979,1.02417 2.3047,1.2793 2.147,0.60413 6.17486,0.38066 7.7305,-0.41992 2.62987,-1.35341 2.42847,-2.39688 2.5957,-8.19918 0.0886,-3.07514 0.24916,-6.01612 0.0666,-7.97211 -0.28354,-3.03834 -1.84142,-4.77105 -3.75902,-5.10316 -1.60147,-0.27736 -3.10091,-0.2281 -4.59703,-0.23348 z m 4.16777,8.3522 c -0.006,1.54438 -1.37576,1.92399 -3.11293,1.95459 -1.24545,0.0219 -2.87841,-0.56333 -2.87408,-1.95459 0.003,-1.10205 0.0807,-2.65629 0.0707,-3.04656 -0.022,-0.85804 0.54058,-1.77907 3.11968,-1.80699 2.56125,-0.0277 2.77569,1.27266 2.77785,1.72455 z"
       sodipodi:nodetypes="cssssscssscccsssssssccsssscc" /><path
       style="fill:#ffffff;stroke-width:0.32"
       d="m 272.31874,654.51666 h 4.4812 v -14.67483 l -4.4812,1.23482 v -3.28295 l 5.54126,-1.83581 h 2.78024 v 18.55874 h 3.2 v 3.2 h -11.52 z"
       id="path13305"
       sodipodi:nodetypes="cccccccccccc" /><path
       id="path13307"
       style="fill:#ffffff;stroke-width:0.32"
       d="m 294.04677,635.75843 c -1.40449,-0.005 -2.47946,0.37832 -3.43396,0.8672 -2.1827,1.11792 -2.54281,2.24526 -2.42781,6.43374 0.094,3.4199 0.19638,3.65894 1.30158,4.79794 0.6082,0.62701 1.71456,1.04829 2.33836,1.2216 1.6452,0.45706 3.61663,0.60195 4.91805,0.0811 l 1.55601,-0.4224 v 2.57564 c 0,2.58804 -0.57845,3.20313 -2.84905,3.20313 -2.2136,0 -3.13999,-0.35514 -3.15194,-1.76368 v -1.11507 h -3.8944 c -0.12837,0.10651 -0.083,0.46 -0.083,0.71861 0,1.26038 0.6453,3.19103 1.3847,4.05074 0.4087,0.47501 1.3979,1.02417 2.3047,1.2793 2.147,0.60414 6.17486,0.38067 7.7305,-0.41992 2.62987,-1.35341 2.42847,-2.39688 2.5957,-8.19918 0.0886,-3.07514 0.24916,-6.01612 0.0666,-7.97211 -0.28354,-3.03834 -1.84142,-4.77105 -3.75902,-5.10316 -1.60147,-0.27736 -3.10091,-0.2281 -4.59703,-0.23348 z m 4.16777,8.3522 c -0.006,1.54439 -1.37576,1.92399 -3.11293,1.9546 -1.24545,0.0219 -2.87841,-0.56333 -2.87408,-1.9546 0.003,-1.10204 0.0807,-2.65629 0.0707,-3.04656 -0.022,-0.85803 0.54058,-1.77907 3.11968,-1.80699 2.56125,-0.0277 2.77569,1.27266 2.77785,1.72455 z"
       sodipodi:nodetypes="cssssscssscccsssssssccsssscc" /></g></g></svg>
