<?xml version="1.0" encoding="utf-8"?>
<!-- Generator: Adobe Illustrator 13.0.0, SVG Export Plug-In . SVG Version: 6.00 Build 14948)  -->
<!DOCTYPE svg PUBLIC "-//W3C//DTD SVG 1.0//EN" "http://www.w3.org/TR/2001/REC-SVG-20010904/DTD/svg10.dtd">
<svg version="1.0" id="HQFL" xmlns="http://www.w3.org/2000/svg" xmlns:xlink="http://www.w3.org/1999/xlink" x="0px" y="0px"
	 width="396.851px" height="420.842px" viewBox="0 0 396.851 420.842" enable-background="new 0 0 396.851 420.842"
	 xml:space="preserve">
<path fill="#FFD300" d="M138.574,0l-3.355,6.066c-5.16,9.326-12.263,15.367-20.542,17.471c-7.591,1.929-15.582,0.41-23.111-4.392
	l-8.042-5.129L0,99.213l6.412,9.913c8.452,13.053,16.435,25.381,16.435,41.646c0,10.177-3.496,25.529-7.544,43.305
	C9.43,219.868,2.121,251.965,2.121,284.318c0,32.26,14.644,58.349,27.184,70.888c26.627,26.627,51.595,29.299,78.03,32.128
	c8.792,0.941,17.883,1.913,27.386,3.843c19.932,4.046,38.054,12.015,57.034,25.077l6.667,4.589l6.667-4.589
	c18.98-13.062,37.104-21.031,57.034-25.077c9.504-1.93,18.595-2.902,27.387-3.843c26.435-2.829,51.402-5.501,78.031-32.128
	c12.54-12.539,27.183-38.627,27.183-70.888c0-32.353-7.309-64.45-13.183-90.241c-4.048-17.776-7.543-33.127-7.543-43.305
	c0-16.265,7.983-28.593,16.435-41.646l6.419-9.923l-83.53-85.188l-8.042,5.129c-7.53,4.802-15.521,6.321-23.111,4.392
	c-8.28-2.104-15.382-8.145-20.541-17.471L258.269,0H138.574z"/>
<path d="M358.61,199.298c-4.364-19.159-8.131-35.706-8.131-48.526c0-20.146,8.088-35.295,16.418-48.511
	c-9.77-9.965-48.587-49.562-57.651-58.806c-10.654,4.531-22.034,5.629-32.871,2.875c-12.45-3.164-23.427-11.184-31.518-22.812
	c-10.677,0-82.193,0-92.87,0c-8.09,11.628-19.068,19.648-31.518,22.812c-10.837,2.754-22.217,1.656-32.872-2.875
	c-9.063,9.244-47.882,48.841-57.65,58.806c8.33,13.216,16.418,28.366,16.418,48.511c0,12.821-3.768,29.368-8.131,48.526
	c-5.904,25.926-12.595,55.312-12.595,85.02c0,23.463,10.193,44.157,20.295,54.258c20.756,20.757,39.797,22.794,63.904,25.374
	c9.33,0.998,18.979,2.03,29.562,4.18c20.758,4.213,39.696,12.038,59.022,24.367c19.327-12.329,38.264-20.153,59.021-24.367
	c10.585-2.149,20.233-3.182,29.563-4.18c24.107-2.579,43.148-4.616,63.905-25.374c10.102-10.101,20.294-30.794,20.294-54.258
	C371.205,254.61,364.514,225.224,358.61,199.298z M201.362,261.299c-1.717,0-8.154,0-9.872,0c0-2.283,0-115.641,0-117.925
	c1.717,0,8.155,0,9.872,0C201.362,145.658,201.362,259.016,201.362,261.299z"/>
<path fill="#FFD300" d="M256.095,302.802c-0.33-8.095-0.703-14.579-1.625-23.757l-0.785-6.727l-0.656-5.998
	c2.044,1.108,3.527,3.177,5.028,7.569c2.024,5.921,4.374,17.964,4.74,28.622l0.087,2.546h21.018l5.935-0.685
	c4.35-0.46,8.106-0.858,13.065-1.927l4.449-0.96l-2.606-14.338c-3.123-17.035-7.4-40.365-8.042-53.604
	c-0.358-7.382-0.488-16.669-0.626-26.502L296,201.624c-0.111-7.41-0.89-14.19-2.313-20.155c-2.412-10.108-5.66-13.718-10.76-18.771
	l-0.15-0.147c-3.427-3.397-8.606-8.531-22.791-14.409c-11.931-4.944-19.724-5.824-35.695-5.824c-10.455,0-16.244-0.009-20.579-0.042
	v82.25h13.817c5.071,0,9.77-7.183,9.77-14.018v-58.769c12.78,0.111,19.285,1.033,29.085,5.094
	c12.477,5.17,16.693,9.349,19.771,12.399l0.15,0.15c4.495,4.453,6.392,6.567,8.231,14.271c1.246,5.221,1.957,11.484,2.056,18.112
	l0.078,5.41c0.139,9.916,0.27,19.282,0.636,26.824c0.672,13.866,4.839,36.589,8.185,54.846c0,0,0.478,2.625,0.951,5.229
	c-2.509,0.393-4.878,0.658-7.594,0.945l-7.811,0.902c0,0-6.111,0.766-9.15,1.146c-0.829-10.173-2.962-20.464-4.929-26.219
	c-2.28-6.667-5.756-13.083-15.671-14.866c-5.024-0.904-9.576-1.547-15.469-1.747c-9.164-0.31-24.73-0.804-32.105-0.938v9.407
	c3.489,0.066,8.835,0.212,14.463,0.38c-0.634,7.911-0.667,14.33-0.692,20.061c-0.031,6.675-0.056,12.441-0.957,19.232l-0.356,2.681
	h40.017L256.095,302.802z M226.418,298.291c0.427-5.228,0.45-10.061,0.473-15.104c0.026-5.938,0.061-12.079,0.7-19.81
	c2.886,0.093,5.602,0.183,7.909,0.261c2.894,0.098,5.397,0.311,7.84,0.62l1.01,9.222l0.76,6.508
	c0.706,7.027,1.079,12.465,1.364,18.304H226.418z"/>
<path fill="#FFD300" d="M165.27,294.354c0.271-4.738,0.45-7.868,0.784-11.145l0.456-6.853c0.202-3.784,0.454-8.327,0.982-13.52
	c6.16,0.191,13.412,0.22,21.646,0.093v-9.405c-10.158,0.16-18.746,0.076-25.61-0.252l-4.346-0.208l-0.545,4.316
	c-0.931,7.37-1.258,13.528-1.521,18.478l-0.42,6.396c-0.355,3.484-0.54,6.698-0.817,11.562c0,0-0.115,1.945-0.23,3.876
	c-4.905,0.053-13.374,0.145-19.598,0.211c0.307-1.569,0.541-3.005,0.625-4.18c0.364-5.072,0.458-15.266,0.458-49.58
	c0-5.523-0.271-10.02-3.686-13.435c-2.981-2.981-7.722-4.043-11.165-4.043c-7.877,0-14.787,6.396-14.787,13.688
	c0,4.023,0.936,6.101,3.196,11.119l1.775,3.946c0.86,1.902,1.502,3.343,1.925,4.438c-2.188-0.56-4.705-2.445-10.155-7.895
	c-4.623-4.623-9.356-15.617-10.912-19.23c-2.492-5.788-3.379-15.287-3.379-22.246c0-6.007,1.427-13.74,4.017-21.769
	c2.967-9.201,6.713-16.133,10.546-19.519c9.181-8.11,16.671-10.313,26.253-12.54c1.901-0.442,3.762-0.841,5.577-1.204
	c-1.358,5.496-3.854,15.658-5.12,21.401c-1.183,5.366-2.022,11.027-2.022,15.138c0,5.491,1.681,11.417,3.521,13.936
	c2.817,3.854,7.031,5.868,9.778,5.868c1.994,0,3.37-0.557,5.127-2.041c2.979-2.516,5.55-12.688,5.55-19.555
	c0-6.735-1.229-14.338-10.912-35.831c8.526-1.423,15.617-2.011,20.237-2.249v59.393c0,10.639,9.024,13.008,14.757,13.008h11.883
	v-82.484c-8.198-0.104-12.895,0.093-19.533,0.372l-5.679,0.23c-6.443,0.248-19.597,1.207-35.293,4.855
	c-10.584,2.459-19.54,5.1-30.352,14.651c-6.511,5.752-10.811,16.053-13.271,23.681c-2.04,6.323-4.471,15.733-4.471,24.657
	c0,3.832,0.299,17.03,4.146,25.966c4.777,11.095,8.876,18.138,12.9,22.161c6.568,6.568,11.406,10.873,18.524,10.873
	c4.923,0,8.231-3.094,8.231-7.702c0-2.934-1.103-5.374-3.3-10.238l-1.771-3.938c-2.133-4.733-2.367-5.317-2.367-7.255
	c0-1.684,2.311-4.281,5.38-4.281c1.929,0,3.891,0.666,4.513,1.287c0.687,0.688,0.931,2.463,0.931,6.784
	c0,33.644-0.094,44.157-0.435,48.905c-0.143,1.985-1.112,6.089-1.691,8.541l-0.818,3.466h39.854L165.27,294.354z"/>
<path fill="#CD071E" d="M203.713,152.972v67.91h9.37c2.719,0,8.748-2.07,8.748-11.808v-56.102H203.713z"/>
<path fill="#CD071E" d="M172.842,192.259c-3.887,2.907-4.823,4.003-4.823,7.719v11.391c0,6.523,3.542,9.512,10.291,9.512h10.83
	v-39.629C184.429,184.082,178.086,188.337,172.842,192.259z"/>
<path fill="#FFFFFF" d="M105.792,211.234c-2.519,0.438-5.188,5.673-12.582,9.778c-6.032,3.349-11.465,4.821-17.961,4.821
	c-4.973,0-9.31-0.811-11.348-1.217c0.298,1.485,1.221,2.447,2.969,3.599c3.98,2.624,11.44,4.879,18.689,4.879
	c8.038,0,14.021-3.004,18.616-6.291c4.928-3.525,8.142-7.514,8.142-10.319C112.317,214.856,108.854,210.703,105.792,211.234z"/>
<path fill="#FFD300" d="M116.6,187.808c-0.804-1.957-4.08-2.465-7.31-1.13c-3.23,1.33-5.191,3.999-4.387,5.958
	c0.808,1.957,4.081,2.464,7.312,1.132C115.442,192.436,117.409,189.77,116.6,187.808z"/>
<path fill="#FFD300" d="M96.24,78.446H82.167v36.217h13.66c10.864,0,20.489-5.898,20.489-19.143
	C116.315,86.776,110.728,78.446,96.24,78.446z M95.879,107.886h-2.794V85.225h3.155c4.76,0,8.848,3.777,8.848,10.348
	C105.088,102.868,102.139,107.886,95.879,107.886z"/>
<polygon fill="#FFD300" points="209.416,49.36 209.416,42.582 187.428,42.582 187.428,78.799 198.344,78.799 198.344,65.14 
	209.209,65.14 209.209,58.362 198.344,58.362 198.344,49.36 "/>
<path fill="#FFD300" d="M310.82,106.903c-1.656,0.414-3.829,0.828-6.157,0.828c-5.691,0-11.02-3.415-11.02-11.125
	c0-7.864,5.277-11.227,10.503-11.227c1.036,0,4.242,0.155,6,0.672l2.692-6.415c-2.588-1.139-6.881-1.811-9.263-1.811
	c-12.312,0-21.315,7.398-21.315,18.367c0,11.848,9.883,19.092,21.938,19.092c3.309,0,6.725-0.827,8.743-1.604L310.82,106.903z"/>
<path fill="#FFD300" d="M249.713,204.447c-0.326-9.738-2.407-29.058-4.185-32.56c-0.506-0.996-1.052-1.541-1.621-1.541
	c-0.572,0-2.706,1.921-3.209,2.917c-1.769,3.488-1.863,11.563-1.507,21.918c0.03,0.914,0.056,1.828,0.076,2.741
	c0.2,9.442,1.396,17.283,3.015,20.475c0.508,0.995,1.052,1.537,1.625,1.537c0.569,0,2.703-0.462,3.208-1.458
	c1.622-3.193,2.427-2.518,2.625-11.961C249.752,206.003,249.743,205.306,249.713,204.447z"/>
<path fill="#FFD300" d="M265.493,195.722c-2.579-11.399-6.363-21.03-9.505-24.621c-0.82-0.938-1.305-1.77-2.01-1.843
	c-1.401-0.15-2.34,1.819-2.643,2.894c-1.295,4.593,2.248,20.337,4.823,31.737c2.572,11.401,4.609,18.987,7.751,22.581
	c0.738,0.841,2.042,2.079,3.243,1.342c0.604-0.368,0.491-8.193,0.829-9.392C267.824,211.475,268.066,207.127,265.493,195.722z"/>
<path fill="#FFFFFF" d="M90.535,322.877l-7.385-1.466l-4.308,21.706l7.596,1.507c2.821,0.56,4.694-0.072,6.343-1.461
	c2.354-1.959,3.416-4.791,4.084-8.155c0.877-4.421,0.419-7.621-1.613-9.803C93.813,323.655,91.976,323.161,90.535,322.877z
	 M90.988,333.648c-1.193,6.01-2.548,6.549-4.049,6.251l-1.802-0.356l2.478-12.489l1.651,0.328
	C90.888,327.705,91.989,328.602,90.988,333.648z"/>
<path fill="#FFFFFF" d="M110.375,341.083c-0.331,2.133-1.051,3.179-2.986,2.878c-1.906-0.297-2.301-1.739-1.99-3.746l2.216-14.276
	l-5.444-0.845l-2.308,14.871c-0.453,2.919-0.294,3.488,0.308,4.804c0.992,1.985,3.146,3.282,6.472,3.799
	c4.173,0.648,6.795-0.679,7.955-2.363c0.59-0.809,0.782-1.646,1.075-3.527l2.347-15.124l-5.413-0.841L110.375,341.083z"/>
<path fill="#FFFFFF" d="M133.71,337.922c-0.583,1.693-0.942,2.74-1.306,4.394l-0.031-0.005c0.009-1.786-0.079-2.978-0.25-4.242
	l-1.126-8.936l-6.664-0.721l-4.449,21.778l5.478,0.591l1.375-8.728c0.242-1.38,0.371-2.579,0.583-4.536l0.03,0.002
	c-0.06,1.975,0.051,3.231,0.222,4.495l1.29,9.145l4.625,0.501l3.576-8.875c0.461-1.133,0.733-2.221,1.177-4.056l0.031,0.002
	c-0.205,1.895-0.267,3.039-0.326,4.437l-0.442,8.925l5.295,0.571l0.432-22.21l-6.452-0.699L133.71,337.922z"/>
<path fill="#FFFFFF" d="M160.749,342.023c2.403-0.638,3.335-2.675,3.466-4.671c0.267-4.056-2.149-5.583-5.233-5.785l-9.437-0.618
	l-1.449,22.08l8.643,0.567c4.856,0.319,7.33-2.319,7.594-6.344C164.506,344.594,162.788,342.731,160.749,342.023z M158.052,346.651
	c-0.089,1.362-0.729,2.245-2.104,2.152l-2.077-0.136l0.287-4.373l2.015,0.133C157.854,344.539,158.126,345.542,158.052,346.651z
	 M158.53,337.966c-0.075,1.139-0.595,2.06-1.909,1.975l-2.168-0.143l0.251-3.835l2.107,0.14
	C158.095,336.186,158.606,336.824,158.53,337.966z"/>
<path fill="#FFFFFF" d="M172.641,332.24l-7.567,21.896l5.75,0.186l1.3-4.214l5.047,0.163l0.965,4.289l5.934,0.19l-5.74-22.326
	L172.641,332.24z M173.458,345.768l0.973-3.59c0.416-1.481,0.608-2.68,0.695-3.504c0.004,0.827,0.115,2.133,0.297,3.124l0.788,4.058
	L173.458,345.768z"/>
<path fill="#FFFFFF" d="M198.197,345.136c2.51-0.446,4.438-2.385,4.438-6.194c-0.003-3.682-2.023-6.315-8.297-6.313l-7.346,0.002
	L187,354.759l5.479-0.002l-0.005-8.762c1.194,0,1.684,0.285,2.512,2.57l2.236,6.191l6.334-0.004
	c-0.705-1.649-2.512-5.744-3.215-7.237C199.82,346.374,198.932,345.356,198.197,345.136z M194.034,341.804h-1.561l-0.002-4.508
	h1.531c1.714,0,2.539,0.507,2.542,2.094C196.543,340.883,195.901,341.804,194.034,341.804z"/>
<polygon fill="#FFFFFF" points="204.524,337.286 209.48,337.13 210.029,354.55 215.566,354.375 215.018,336.956 219.972,336.799 
	220.468,332.082 204.377,332.589 "/>
<path fill="#FFFFFF" d="M231.092,331.051c-5.621,0.363-9.506,4.751-8.999,12.608c0.43,6.622,4.125,10.646,10.293,10.246
	c7.604-0.491,9.146-6.541,8.734-12.877C240.809,336.179,238.331,330.582,231.092,331.051z M232.19,349.433
	c-2.26,0.144-3.663-1.165-4.028-6.803c-0.273-4.214,0.59-6.975,3.063-7.135c2.353-0.152,3.478,1.111,3.834,6.625
	C235.425,347.791,234.509,349.281,232.19,349.433z"/>
<path fill="#FFFFFF" d="M254.481,329.416l0.705,6.821c0.149,1.451,0.404,3.628,0.691,4.908c-0.671-1.431-1.47-2.912-2.2-4.02
	l-4.644-7.147l-5.236,0.54l2.271,22.012l5.177-0.533l-0.641-6.189c-0.28-2.717-0.67-4.72-0.882-5.561
	c0.604,1.375,1.408,2.887,2.072,3.969l4.534,7.255l5.602-0.579l-2.271-22.011L254.481,329.416z"/>
<polygon fill="#FFFFFF" points="283.01,334.029 278.261,334.753 277.7,331.081 283.541,330.191 283.23,325.518 271.611,327.286 
	274.942,349.162 280.359,348.34 278.968,339.206 283.688,338.487 "/>
<path fill="#FFFFFF" d="M290.708,340.648c-1.688,0.296-2.821,1.979-2.517,3.699c0.314,1.782,1.955,2.977,3.642,2.679
	c1.688-0.299,2.851-1.987,2.536-3.769C294.066,341.537,292.397,340.35,290.708,340.648z"/>
<path fill="#FFFFFF" d="M306.334,339.289c-1.108,0.228-2.087-0.124-2.948-0.824c-1.087-0.88-1.585-2.559-2.315-6.137
	c-0.521-2.552-0.42-3.739,0.377-5.035c0.417-0.703,1.238-1.127,2.166-1.318c1.14-0.232,2.271-0.044,3.356,0.515l1.438-4.573
	c-1.155-0.767-3.532-0.93-5.662-0.496c-3.659,0.749-6.375,2.892-7.451,6.642c-0.62,2.168-0.62,4.309-0.066,7.014
	c0.629,3.081,1.956,5.758,3.993,7.317c2.364,1.787,4.87,2.118,7.447,1.589c3.059-0.625,4.997-1.994,6.056-3.537l-3.084-3.323
	C308.694,338.451,307.684,339.013,306.334,339.289z"/>
<path fill="#FFFFFF" d="M320.104,337.816c-0.4-1.701-2.131-2.794-3.801-2.404c-1.669,0.39-2.708,2.133-2.308,3.833
	c0.411,1.762,2.115,2.864,3.783,2.474C319.447,341.328,320.515,339.578,320.104,337.816z"/>
<path fill="#FFFFFF" d="M175.965,132.371h8.682v9.641c1.594-0.001,3.32,0.011,5.228,0.039v-14.024h13.103v14.242
	c1.521,0.015,3.215,0.024,5.228,0.032v-9.929h8.682v9.944c1.603,0.001,3.348,0.002,5.266,0.003v-27.956h5.951V93.779h-15.276v12.863
	h-9.811V93.779h-13.183v12.863h-9.81V93.779h-15.276v20.583h5.951v28.004c1.846-0.077,3.561-0.146,5.266-0.202V132.371z"/>
<polygon fill="#FFD300" points="79.787,312.372 75.613,306.233 114.669,306.233 118.844,312.372 "/>
<polygon fill="#003883" points="120.267,312.372 116.091,306.233 155.146,306.233 159.32,312.372 "/>
<polygon fill="#FFD300" points="160.743,312.372 156.567,306.233 195.622,306.233 199.799,312.372 "/>
<polygon fill="#003883" points="201.221,312.372 197.045,306.233 236.101,306.233 240.276,312.372 "/>
<polygon fill="#FFD300" points="241.698,312.372 237.523,306.233 276.579,306.233 280.754,312.372 "/>
<polygon fill="#003883" points="282.176,312.372 278.001,306.233 317.056,306.233 321.231,312.372 "/>
</svg>
