<?xml version="1.0" encoding="utf-8"?>
<!-- Generator: Adobe Illustrator 26.0.0, SVG Export Plug-In . SVG Version: 6.00 Build 0)  -->
<svg version="1.1" id="Capa_2" xmlns="http://www.w3.org/2000/svg" xmlns:xlink="http://www.w3.org/1999/xlink" x="0px" y="0px"
	 viewBox="0 0 525 672" style="enable-background:new 0 0 525 672;" xml:space="preserve">
<style type="text/css">
	.st0{fill:#FFCC00;}
	.st1{fill:#E62E1E;}
	.st2{fill:#2D2E83;}
	.st3{fill:#F7F4F4;}
	.st4{fill:#009851;}
	.st5{fill:#7D361E;}
	.st6{fill:#131309;}
</style>
<path class="st0" d="M262.5,672c138.3-104.4,138.5-104.1,174-132.8C491.8,494.6,525,485.7,525,415V0H0v415
	c0,70.8,33.2,79.6,88.5,124.2C114.3,560,262.5,672,262.5,672z"/>
<path class="st1" d="M510.3,14.8c0,0,0,386.2,0,401.5c0,49.2-19,62.3-49.8,86.2s-198,150-198,150s-167.2-126.2-198-150
	s-49.8-37-49.8-86.2c0-15.3,0-401.5,0-401.5H510.3z"/>
<path class="st2" d="M510.3,14.8H14.7c0,0,0,386.2,0,401.5c0,38.2,11.5,54.7,31.1,71.3L510.3,14.8z"/>
<path class="st3" d="M74.8,41.7c0-0.5-8.7-0.8-19-0.9C52.5,31.2,49.5,23,49.1,23c-0.5,0-3.4,8.1-6.6,17.8c-10.3,0-19.1,0.3-19.1,0.7
	c0,0.5,6.9,5.7,15.1,11.6c-3.1,9.8-5.5,18.3-5.2,18.6c0.4,0.4,7.7-4.7,16.1-10.7c8.4,6,15.7,11,16,10.7c0.3-0.3-2.3-8.6-5.5-18.4
	C68,47.4,74.8,42.2,74.8,41.7z"/>
<path class="st3" d="M262.8,41.7c0-0.5-8.7-0.8-19-0.9c-3.3-9.7-6.3-17.8-6.7-17.8c-0.5,0-3.4,8.1-6.6,17.8
	c-10.3,0-19.1,0.3-19.1,0.7c0,0.5,6.9,5.7,15.1,11.6c-3.1,9.8-5.5,18.3-5.2,18.6c0.4,0.4,7.7-4.7,16.1-10.7c8.4,6,15.7,11,16,10.7
	c0.3-0.3-2.3-8.6-5.5-18.4C256.1,47.4,262.8,42.2,262.8,41.7z"/>
<path class="st3" d="M451.7,41.7c0-0.5-8.7-0.8-19-0.9c-3.3-9.7-6.3-17.8-6.7-17.8c-0.5,0-3.4,8.1-6.6,17.8
	c-10.3,0-19.1,0.3-19.1,0.7c0,0.5,6.9,5.7,15.1,11.6c-3.1,9.8-5.5,18.3-5.2,18.6c0.4,0.4,7.7-4.7,16.1-10.7c8.4,6,15.7,11,16,10.7
	c0.3-0.3-2.3-8.6-5.5-18.4C445,47.4,451.7,42.2,451.7,41.7z"/>
<path class="st3" d="M326,170.5c0-0.5-8.7-0.8-19-0.9c-3.3-9.7-6.3-17.8-6.7-17.8c-0.5,0-3.4,8.1-6.6,17.8
	c-10.3,0-19.1,0.3-19.1,0.7c0,0.5,6.9,5.7,15.1,11.6c-3.1,9.8-5.5,18.3-5.2,18.6c0.4,0.4,7.7-4.7,16.1-10.7c8.4,6,15.7,11,16,10.7
	c0.3-0.3-2.3-8.6-5.5-18.4C319.3,176.2,326,171,326,170.5z"/>
<path class="st3" d="M200.7,298.9c0-0.5-8.7-0.8-19-0.9c-3.3-9.7-6.3-17.8-6.7-17.8c-0.5,0-3.4,8.1-6.6,17.8
	c-10.3,0-19.1,0.3-19.1,0.7c0,0.5,6.9,5.7,15.1,11.6c-3.1,9.8-5.5,18.3-5.2,18.6c0.4,0.4,7.7-4.7,16.1-10.7c8.4,6,15.7,11,16,10.7
	c0.3-0.3-2.3-8.6-5.5-18.4C193.9,304.5,200.7,299.3,200.7,298.9z"/>
<path class="st3" d="M74.6,427.4c0-0.5-8.7-0.8-19-0.9c-3.3-9.7-6.3-17.8-6.7-17.8c-0.5,0-3.4,8.1-6.6,17.8
	c-10.3,0-19.1,0.3-19.1,0.7c0,0.5,6.9,5.7,15.1,11.6c-3.1,9.8-5.5,18.3-5.2,18.6c0.4,0.4,7.7-4.7,16.1-10.7c8.4,6,15.7,11,16,10.7
	c0.3-0.3-2.3-8.6-5.5-18.4C67.8,433.1,74.6,427.9,74.6,427.4z"/>
<path class="st3" d="M74.6,234.4c0-0.5-8.7-0.8-19-0.9c-3.3-9.7-6.3-17.8-6.7-17.8c-0.5,0-3.4,8.1-6.6,17.8
	c-10.3,0-19.1,0.3-19.1,0.7c0,0.5,6.9,5.7,15.1,11.6c-3.1,9.8-5.5,18.3-5.2,18.6c0.4,0.4,7.7-4.7,16.1-10.7c8.4,6,15.7,11,16,10.7
	c0.3-0.3-2.3-8.6-5.5-18.4C67.8,240.1,74.6,234.9,74.6,234.4z"/>
<polygon class="st3" points="84.5,84.7 343.8,84.7 84.5,350.7 "/>
<path class="st4" d="M129.5,94.5c24.9,0,44.4,14.5,44.4,31.4c0,13.8-16.2,31.2-44.4,31.2c-22.4,0-43-14-43-31.3
	C86.5,107.4,108,94.5,129.5,94.5z"/>
<circle class="st1" cx="123.1" cy="107.9" r="3"/>
<circle class="st1" cx="136" cy="121.7" r="3"/>
<circle class="st1" cx="158.3" cy="116" r="3"/>
<circle class="st1" cx="148.6" cy="135.4" r="3"/>
<circle class="st1" cx="120.7" cy="135.7" r="3"/>
<circle class="st1" cx="104.3" cy="116.2" r="3"/>
<path class="st5" d="M145.3,250.8c-5.8,0-9.2-1.8-9.2-9c0-8.3,0-80.9,0-82c0-1.5,0.5-2.5,1.1-3.1c-2.5,0.3-5,0.5-7.7,0.5
	c-1.7,0-3.3-0.1-5-0.2c0.5,0.7,0.9,1.7,0.9,3c0,2.3,0,79.2,0,82.1c0,7.3-3.4,8.6-5.4,8.6c-2.5,0-21.6,0-21.6,4.4
	c0,1,0.8,1.1,2.9,1.1c1.7,0,54.9,0,75.5,0l4.5-4.6C171.1,251.2,149.7,250.8,145.3,250.8z"/>
<path class="st6" d="M180.8,215.1c0-8.9-10.9-11.1-10.9-32c0-12.2,5.6-13.5,5.6-17.8c0-2.5-3.7-2.5-6.1-1.9c0,0-4-5.1-7.2-5.1
	c-2.1,0-2.2,0.9-4.5,0.9c-3.7,0-6.1-5.2-8.4-5.2c-1.2,0-3.3,3-3.3,4.5c0,2.5,4.4,4.5,4.4,8.4c0,2.7-2.2,9.4-2.2,13.1
	c0,2.7-0.6,3.6-3.1,3.6c-3.5,0-4.4-3.6-6.1-7.2c-0.9-1.8-2.2-3.9-3.2-5.6c0,8.6,0,21.2,0,33.4c1.8,1,4.4,1.9,7.5,1.9
	c4.4,12.7,10.6,16.8,10.6,17.3c0,0.5-0.7,3-0.7,5.6c0,11.4,9.1,11.6,9.1,17.7c0,1.1-1.4,3.3-2.2,4.4c2.4,0,5,0.1,7.5,0.1
	c-0.1-1-0.4-2.1-0.4-2.8c0-0.9,0.4-1.7,1.4-1.7c0.9,0,1.1,0.5,1.1,1.2c0,0.5-0.7,1.9-0.9,3.3c2.7,0.1,5.4,0.1,7.8,0.2
	c0.1-3.3-2.5-8.4-2.5-12.3c0-3.6,3.1-8.8,3.1-8.8c5.2,1.2,7.2-1.3,7.2-3.9C184.6,221.1,180.8,221.8,180.8,215.1z M142.7,193.7
	c-1.5,0-2.6-1.2-3.2-2.3c1,0.3,3.3,0.2,3.9,0.2c0.7,0,0.9,0.4,0.9,1.3C144.4,193.7,143.8,193.7,142.7,193.7z"/>
<g>
	<path class="st3" d="M45.7,487.6c5.6,4.8,11.9,9.6,18.8,14.9c8.8,6.8,28.6,21.8,52.4,39.9V415.2L45.7,487.6z"/>
</g>
<path class="st3" d="M166.2,365.1v214.6c23.3,17.6,46.2,35,63.9,48.3h0.8V299.3L166.2,365.1z"/>
<path class="st3" d="M280.5,248.7v390.2c15.5-11.7,39.3-29.6,64.7-48.9V182.9L280.5,248.7z"/>
<path class="st3" d="M394.5,552.7c28.5-21.6,53.5-40.6,64.7-49.2V66.9l-64.7,65.8V552.7z"/>
</svg>
