<?xml version="1.0" encoding="UTF-8" standalone="no"?>
<!-- Generator: Adobe Illustrator 12.0.0, SVG Export Plug-In  -->

<svg
   xmlns:dc="http://purl.org/dc/elements/1.1/"
   xmlns:cc="http://creativecommons.org/ns#"
   xmlns:rdf="http://www.w3.org/1999/02/22-rdf-syntax-ns#"
   xmlns:svg="http://www.w3.org/2000/svg"
   xmlns="http://www.w3.org/2000/svg"
   xmlns:sodipodi="http://sodipodi.sourceforge.net/DTD/sodipodi-0.dtd"
   xmlns:inkscape="http://www.inkscape.org/namespaces/inkscape"
   version="1.1"
   width="362"
   height="456.9375"
   viewBox="-0.3779297 -0.3779297 362 456.9375"
   enable-background="new -0.3779297 -0.3779297 501 501"
   xml:space="preserve"
   id="svg2"
   inkscape:version="0.48.2 r9819"
   sodipodi:docname="Havre Athletic Club logo.svg"><metadata
   id="metadata94"><rdf:RDF><cc:Work
       rdf:about=""><dc:format>image/svg+xml</dc:format><dc:type
         rdf:resource="http://purl.org/dc/dcmitype/StillImage" /></cc:Work></rdf:RDF></metadata><sodipodi:namedview
   pagecolor="#ffffff"
   bordercolor="#666666"
   borderopacity="1"
   objecttolerance="10"
   gridtolerance="10"
   guidetolerance="10"
   inkscape:pageopacity="0"
   inkscape:pageshadow="2"
   inkscape:window-width="1366"
   inkscape:window-height="706"
   id="namedview92"
   showgrid="false"
   fit-margin-top="0"
   fit-margin-left="0"
   fit-margin-right="0"
   fit-margin-bottom="0"
   inkscape:zoom="0.47105788"
   inkscape:cx="181.12207"
   inkscape:cy="228.34668"
   inkscape:window-x="-8"
   inkscape:window-y="-8"
   inkscape:window-maximized="1"
   inkscape:current-layer="svg2" />
<defs
   id="defs4">
</defs>
<polygon
   clip-rule="evenodd"
   points="500,500 0,500 0,0 0,0 500,0 "
   id="polygon6"
   style="opacity:0;fill:#ffffff;fill-rule:evenodd"
   transform="translate(-69.37793,-21.90918)" />
<path
   clip-rule="evenodd"
   d="m 0.88916,0.896972 c 0,1.486817 0,452.900878 0,454.388188 1.487304,0 357.979,0 359.46533,0 0,-1.48731 0,-452.901371 0,-454.388188 -1.48633,0 -357.978025,0 -359.46533,0 l 0,0 z"
   id="path8"
   inkscape:connector-curvature="0"
   style="opacity:0;fill:#ffffff;fill-rule:evenodd" />
<polygon
   stroke-miterlimit="2.6131001"
   points="69.518555,22.058594 430.48242,22.058594 430.48242,477.94141 430.48242,477.94141 69.518555,477.94141 "
   id="polygon10"
   style="fill:none;stroke:#7ec4d9;stroke-width:1.03686249;stroke-miterlimit:2.61310005"
   transform="translate(-69.37793,-21.90918)" />
<path
   clip-rule="evenodd"
   d="m 33.81299,435.18652 c 0,0 14.14258,3.36426 24.91748,3.36426 39.73242,0 30.97803,-14.12012 59.26172,-14.12012 23.56982,0 39.73242,14.12012 68.01758,14.12012 22.89746,0 33.67089,-14.12012 64.64941,-14.12012 28.28223,0 55.89648,16.13672 55.89648,16.13672 l 4.08106,-6.96386 c -1.20313,-0.70411 -29.85059,-17.24317 -59.97754,-17.24317 -18.13281,0 -29.92676,4.45313 -40.33106,8.37988 -8.16113,3.08008 -15.20898,5.74219 -24.31835,5.74219 -13.46192,0 -24.22413,-3.62012 -34.63038,-7.12305 -10.23388,-3.44043 -20.81396,-6.99902 -33.3872,-6.99902 -15.0874,0 -21.82178,3.83984 -27.76319,7.22656 -6.21923,3.54688 -12.09326,6.89551 -31.49853,6.89551 -9.67432,0 -22.91651,-3.11328 -23.04932,-3.14355 l -1.86816,7.84765 0,0 z"
   id="path12"
   inkscape:connector-curvature="0"
   style="fill:#516ea8;fill-rule:evenodd" />
<path
   clip-rule="evenodd"
   d="m 58.05664,289.95019 c 0,0 14.14258,3.36231 24.91699,3.36231 39.73291,0 30.97803,-14.12012 59.26221,-14.12012 23.57129,0 39.73389,14.12012 68.01611,14.12012 22.89746,0 33.67383,-14.12012 64.65137,-14.12012 28.2832,0 55.89746,16.13867 55.89746,16.13867 l 4.08008,-6.96386 c -1.20508,-0.7041 -29.85059,-17.24317 -59.97754,-17.24317 -18.13477,0 -29.92676,4.45118 -40.33008,8.37696 -8.16211,3.083 -15.21191,5.74316 -24.32129,5.74316 -13.46093,0 -24.22461,-3.62012 -34.6289,-7.12109 -10.23291,-3.43946 -20.81397,-6.99903 -33.38721,-6.99903 -15.0874,0 -21.82178,3.83789 -27.76318,7.22754 -6.21924,3.54395 -12.09375,6.89258 -31.49903,6.89258 -9.67285,0 -22.91601,-3.11133 -23.04883,-3.14355 l -1.86816,7.8496 0,0 z"
   id="path14"
   inkscape:connector-curvature="0"
   style="fill:#2363ab;fill-rule:evenodd" />
<path
   clip-rule="evenodd"
   d="m 63.44336,268.43359 c 0,0 14.14258,3.36133 24.91748,3.36133 39.73389,0 30.97803,-14.11914 59.26318,-14.11914 23.56983,0 39.7334,14.11914 68.0166,14.11914 22.89747,0 33.67286,-14.11914 64.65137,-14.11914 28.28028,0 55.89356,16.13867 55.89356,16.13867 l 4.08398,-6.96386 c -1.20605,-0.70411 -29.85058,-17.24317 -59.97754,-17.24317 -18.13476,0 -29.92969,4.45117 -40.33105,8.37695 -8.16407,3.08301 -15.21094,5.74317 -24.32032,5.74317 -13.46093,0 -24.2246,-3.62012 -34.63085,-7.1211 -10.23291,-3.44042 -20.8125,-6.99902 -33.38575,-6.99902 -15.08789,0 -21.82226,3.83789 -27.76465,7.22754 -6.21777,3.54395 -12.09228,6.89258 -31.49853,6.89258 -9.67285,0 -22.91504,-3.11133 -23.04834,-3.14356 l -1.86914,7.84961 0,0 z"
   id="path16"
   inkscape:connector-curvature="0"
   style="fill:#99aed1;fill-rule:evenodd" />
<polygon
   clip-rule="evenodd"
   points="125.96631,322.69434 125.96631,322.69434 158.16943,322.69434 153.36865,348.61328 172.15479,348.61328 176.95264,322.69434 209.1543,322.69434 194.63379,401.15332 162.43115,401.15332 167.36182,374.5127 148.57715,374.5127 143.64795,401.15332 111.44775,401.15332 "
   id="polygon18"
   style="fill-rule:evenodd"
   transform="translate(-69.37793,-21.90918)" />
<path
   clip-rule="evenodd"
   d="m 185.09863,300.78516 h 37.49024 l 17.71484,78.45898 H 204.27148 L 203.3418,369.7041 H 180.104 l -4.32422,9.54004 h -36.22021 l 45.53906,-78.45898 0,0 z m 3.64453,49.87793 h 12.74219 l -2.25195,-23.12793 -10.49024,23.12793 0,0 z"
   id="path20"
   inkscape:connector-curvature="0"
   style="fill-rule:evenodd" />
<path
   clip-rule="evenodd"
   d="m 304.39746,299.30566 c -22.21094,0 -54.56152,16.37207 -54.56152,48.96875 0,18.0127 14.75781,32.29981 39.80273,32.29981 20.27539,0 23.80469,-4.02539 23.80469,-4.02539 l 5.39844,-29.16895 c 0,0 -9.82129,7.44434 -20.1084,7.44434 -9.24121,0 -14.75879,-7.29004 -14.75879,-12.2041 0,-8.78223 9.98828,-17.2666 19.83008,-17.2666 8.79492,0 17.70898,7.58203 17.70898,7.58203 l 5.50195,-29.73926 c 0,0 -8.00683,-3.89063 -22.61816,-3.89063 l 0,0 z"
   id="path22"
   inkscape:connector-curvature="0"
   style="fill-rule:evenodd" />
<polygon
   clip-rule="evenodd"
   points="114.0835,410.50391 114.0835,410.50391 116.54443,410.50391 115.21191,419.09863 127.63818,419.09863 128.9707,410.50391 131.43408,410.50391 128.15527,431.6582 125.69141,431.6582 127.32666,421.10938 114.90039,421.10938 113.26367,431.6582 110.8042,431.6582 "
   id="polygon24"
   style="fill-rule:evenodd"
   transform="translate(-69.37793,-21.90918)" />
<path
   clip-rule="evenodd"
   d="m 76.2041,409.73633 h -1.66455 l 0.25488,-1.91504 c -1.47168,1.49707 -3.16797,2.24902 -5.08056,2.24902 -1.74121,0 -3.17383,-0.5625 -4.29493,-1.68457 -1.1206,-1.125 -1.68164,-2.57129 -1.68164,-4.33887 0,-2.03906 0.73047,-3.79492 2.19092,-5.26171 1.46289,-1.46192 3.18164,-2.19336 5.16016,-2.19336 1.07031,0 2.00976,0.21972 2.81933,0.66797 0.80567,0.44921 1.4795,1.1455 2.01661,2.0957 l 0.32275,-2.43262 h 1.69092 l -1.73389,12.81348 0,0 z m -6.32275,-1.14551 c 1.05859,0 2.02148,-0.25098 2.89013,-0.75195 0.87012,-0.50196 1.55811,-1.22657 2.06836,-2.16602 0.50928,-0.9375 0.76514,-1.96289 0.76514,-3.06738 0,-1.3252 -0.41943,-2.4043 -1.25928,-3.23535 -0.83838,-0.83106 -1.92773,-1.2461 -3.26611,-1.2461 -1.57568,0 -2.9209,0.57227 -4.04297,1.71192 -1.11865,1.14258 -1.67969,2.54394 -1.67969,4.20508 0,1.36328 0.42188,2.46289 1.25928,3.29882 0.83691,0.83106 1.92627,1.25098 3.26514,1.25098 l 0,0 z"
   id="path26"
   inkscape:connector-curvature="0"
   style="fill-rule:evenodd" />
<polygon
   clip-rule="evenodd"
   points="163.47607,418.83203 156.06787,431.64551 155.7627,431.64551 151.34619,418.83203 151.34619,418.83203 153.02686,418.83203 156.24658,428.16504 161.64209,418.83203 "
   id="polygon28"
   style="fill-rule:evenodd"
   transform="translate(-69.37793,-21.90918)" />
<path
   clip-rule="evenodd"
   d="m 98.03613,396.92285 h 1.63623 l -0.22265,1.61133 c 0.44189,-0.61328 0.97656,-1.08887 1.60205,-1.43359 0.62842,-0.33985 1.26806,-0.50879 1.92529,-0.50879 0.46582,0 0.95361,0.10839 1.45752,0.32617 l -0.77637,1.50976 c -0.41162,-0.16699 -0.75342,-0.24511 -1.02978,-0.24511 -0.57617,0 -1.14453,0.19726 -1.70948,0.59765 -0.56494,0.40235 -1.02343,0.98535 -1.37451,1.75293 -0.35058,0.76465 -0.64697,2.02149 -0.88672,3.77442 l -0.74707,5.42871 h -1.60839 l 1.73388,-12.81348 0,0 z"
   id="path30"
   inkscape:connector-curvature="0"
   style="fill-rule:evenodd" />
<path
   clip-rule="evenodd"
   d="M 119.27637,403.65137 H 107.8418 c -0.0225,1.53808 0.37256,2.74316 1.18945,3.62207 0.81689,0.8789 1.90234,1.31738 3.26123,1.31738 0.90088,0 1.73535,-0.1875 2.50439,-0.56445 0.76856,-0.37793 1.4043,-0.90235 1.90723,-1.58594 l 1.22998,0.97754 c -0.6206,0.80273 -1.43115,1.44629 -2.43213,1.92773 -1.00049,0.48438 -2.08056,0.72461 -3.24218,0.72461 -2.00879,0 -3.51856,-0.62597 -4.5254,-1.86719 -1.00976,-1.24609 -1.51367,-2.64648 -1.51367,-4.20214 0,-1.27149 0.3418,-2.49805 1.01953,-3.67578 0.68164,-1.17774 1.58936,-2.09473 2.7295,-2.75391 1.1372,-0.65332 2.36963,-0.97949 3.6997,-0.97949 1.63916,0 2.99903,0.55175 4.07471,1.66406 1.07764,1.10937 1.61328,2.52246 1.61328,4.24023 0,0.31446 -0.0249,0.70215 -0.0811,1.15528 l 0,0 z m -1.50977,-1.42383 c -0.0479,-1.20313 -0.46191,-2.17871 -1.23828,-2.92578 -0.77783,-0.74707 -1.75439,-1.11914 -2.93604,-1.11914 -1.27832,0 -2.41064,0.35644 -3.38818,1.0791 -0.97803,0.71875 -1.6709,1.70703 -2.07861,2.96582 h 9.64111 l 0,0 z"
   id="path32"
   inkscape:connector-curvature="0"
   style="fill-rule:evenodd" />
<path
   clip-rule="evenodd"
   d="m 145.09326,388.59473 8.00879,21.15429 h -2.51709 l -2.61768,-6.92382 h -9.90625 l -4.49218,6.92382 h -2.7461 l 13.72217,-21.15429 h 0.54834 l 0,0 z m -0.77392,4.58691 -4.95606,7.6377 h 7.84375 l -2.88769,-7.6377 0,0 z"
   id="path34"
   inkscape:connector-curvature="0"
   style="fill-rule:evenodd" />
<polygon
   clip-rule="evenodd"
   points="227.48145,414.03418 227.48145,414.03418 229.10645,414.03418 228.46191,418.83203 231.02393,418.83203 230.83398,420.25586 228.27295,420.25586 226.74951,431.64551 225.09668,431.64551 226.64062,420.25586 224.4292,420.25586 224.62891,418.83203 226.83057,418.83203 "
   id="polygon36"
   style="fill-rule:evenodd"
   transform="translate(-69.37793,-21.90918)" />
<path
   clip-rule="evenodd"
   d="m 172.96924,397.80469 c -0.82666,-0.81055 -1.88965,-1.21289 -3.19434,-1.21289 -1.70459,0 -3.22217,0.76464 -4.54687,2.29687 l 0.93457,-6.90234 h -0.006 l 0.74756,-5.50684 h -1.60742 l -3.15235,23.25684 h 0.006 1.60107 0.006 l 0.75098,-5.54785 c 0.2251,-1.65723 0.54053,-2.86719 0.9458,-3.62989 0.4082,-0.76269 0.98437,-1.36816 1.72803,-1.8164 0.74853,-0.44825 1.53857,-0.67188 2.37597,-0.67188 0.90039,0 1.62354,0.26856 2.17823,0.81641 0.55224,0.54199 0.82714,1.2539 0.82714,2.13476 0.0215,0.70215 -0.0503,1.64454 -0.20996,2.83008 l -0.79687,5.88477 h 1.60742 l 0.79785,-5.88477 c 0.16211,-1.21094 0.24317,-2.17578 0.24317,-2.89062 0,-1.29688 -0.41163,-2.34766 -1.23633,-3.15625 l 0,0 z"
   id="path38"
   inkscape:connector-curvature="0"
   style="fill-rule:evenodd" />
<polygon
   clip-rule="evenodd"
   points="248.45361,431.64551 250.06104,431.64551 253.21484,408.38867 253.21484,408.38867 251.6084,408.38867 "
   id="polygon40"
   style="fill-rule:evenodd"
   transform="translate(-69.37793,-21.90918)" />
<path
   clip-rule="evenodd"
   d="M 199.79004,403.65137 H 188.3584 c -0.0225,1.53808 0.375,2.74316 1.19043,3.62207 0.81543,0.8789 1.90234,1.31738 3.25781,1.31738 0.90723,0 1.74023,-0.1875 2.50781,-0.56445 0.76758,-0.37793 1.40332,-0.90235 1.90528,-1.58594 l 1.23046,0.97754 c -0.61816,0.80273 -1.43066,1.44629 -2.43164,1.92773 -1.00097,0.48438 -2.08203,0.72461 -3.24218,0.72461 -2.00879,0 -3.51856,-0.62597 -4.52442,-1.86719 -1.00781,-1.24609 -1.51465,-2.64648 -1.51465,-4.20214 0,-1.27149 0.33887,-2.49805 1.02051,-3.67578 0.67871,-1.17774 1.58887,-2.09473 2.72852,-2.75391 1.13769,-0.65332 2.37109,-0.97949 3.69824,-0.97949 1.6416,0 3.00195,0.55175 4.07617,1.66406 1.0791,1.10937 1.61328,2.52246 1.61328,4.24023 0,0.31446 -0.0254,0.70215 -0.084,1.15528 l 0,0 z m -1.50977,-1.42383 c -0.043,-1.20313 -0.458,-2.17871 -1.23535,-2.92578 -0.78027,-0.74707 -1.75586,-1.11914 -2.93652,-1.11914 -1.2793,0 -2.40625,0.35644 -3.38379,1.0791 -0.98047,0.71875 -1.67188,1.70703 -2.08301,2.96582 h 9.63867 l 0,0 z"
   id="path42"
   inkscape:connector-curvature="0"
   style="fill-rule:evenodd" />
<polygon
   clip-rule="evenodd"
   points="274.50293,414.03418 274.50293,414.03418 276.12402,414.03418 275.4834,418.83203 278.04492,418.83203 277.85449,420.25586 275.29395,420.25586 273.76855,431.64551 272.11914,431.64551 273.66211,420.25586 271.44824,420.25586 271.64551,418.83203 273.85254,418.83203 "
   id="polygon44"
   style="fill-rule:evenodd"
   transform="translate(-69.37793,-21.90918)" />
<path
   clip-rule="evenodd"
   d="m 211.85059,396.92285 h 1.55078 l -1.67676,12.81348 h -1.60938 l 1.73536,-12.81348 0,0 z m 1.29492,-5.27344 c 0.36718,0 0.67871,0.12891 0.93945,0.39258 0.25879,0.25781 0.39063,0.57031 0.39063,0.93164 0,0.37012 -0.13184,0.68653 -0.39063,0.94239 -0.26074,0.25878 -0.57227,0.38574 -0.93945,0.38574 -0.37012,0 -0.68457,-0.12696 -0.94043,-0.38574 -0.25586,-0.25586 -0.38672,-0.57227 -0.38672,-0.94239 0,-0.36133 0.13086,-0.67383 0.38672,-0.93164 0.25586,-0.26367 0.57031,-0.39258 0.94043,-0.39258 l 0,0 z"
   id="path46"
   inkscape:connector-curvature="0"
   style="fill-rule:evenodd" />
<path
   clip-rule="evenodd"
   d="m 230.68457,399.70703 -1.35449,0.79102 c -0.9502,-1.54297 -2.4043,-2.31543 -4.36035,-2.31543 -1.12989,0 -2.16309,0.25 -3.09766,0.75488 -0.93457,0.50391 -1.66699,1.20508 -2.19336,2.09961 -0.52441,0.90137 -0.78809,1.8623 -0.78809,2.88769 0,0.9043 0.19727,1.71485 0.5879,2.43164 0.39453,0.71973 0.94433,1.26661 1.65625,1.6543 0.70703,0.3877 1.54296,0.58008 2.51074,0.58008 0.9873,0 1.92968,-0.19727 2.8291,-0.59277 0.89648,-0.39746 1.60156,-0.9043 2.10058,-1.53028 l 1.35743,0.95508 c -0.84864,0.91992 -1.77051,1.58887 -2.76368,2.01172 -0.99316,0.42578 -2.1455,0.63574 -3.458,0.63574 -2.02344,0 -3.60742,-0.55176 -4.73926,-1.65625 -1.13477,-1.10254 -1.70215,-2.57422 -1.70215,-4.41308 0,-2.042 0.74707,-3.78711 2.23438,-5.23829 1.48925,-1.44628 3.31543,-2.17089 5.47851,-2.17089 1.29492,0 2.4375,0.27343 3.43067,0.82324 0.9873,0.54687 1.74707,1.31445 2.27148,2.29199 l 0,0 z"
   id="path48"
   inkscape:connector-curvature="0"
   style="fill-rule:evenodd" />
<path
   clip-rule="evenodd"
   d="m 266.37988,391.51269 -1.28418,1.77051 c -2.23242,-2.12011 -4.77539,-3.18164 -7.625,-3.18164 -1.86426,0 -3.60449,0.45313 -5.2207,1.36231 -1.61621,0.91211 -2.88086,2.13574 -3.79199,3.67871 -0.91504,1.54297 -1.36621,3.19629 -1.36621,4.96777 0,1.58301 0.34961,2.9834 1.04882,4.20703 0.70215,1.22852 1.71778,2.18848 3.04297,2.88281 1.32422,0.69629 2.8418,1.04102 4.54883,1.04102 2.60449,0 5.03125,-0.83594 7.2832,-2.50977 l 1.18262,1.68165 c -1.67676,1.11718 -3.11523,1.86914 -4.31836,2.25976 -1.20605,0.38184 -2.59961,0.57715 -4.17773,0.57715 -2.91797,0 -5.29688,-0.73145 -7.13281,-2.19336 -2.43946,-1.95801 -3.65821,-4.5752 -3.65821,-7.8457 0,-3.37598 1.21875,-6.23926 3.65821,-8.5918 2.43945,-2.35156 5.47363,-3.52637 9.09668,-3.52637 1.65625,0 3.16113,0.25586 4.52148,0.77539 1.35742,0.51856 2.75293,1.39844 4.19238,2.64453 l 0,0 z"
   id="path50"
   inkscape:connector-curvature="0"
   style="fill-rule:evenodd" />
<polygon
   clip-rule="evenodd"
   points="337.89844,431.64551 339.50684,431.64551 342.66016,408.38867 342.66016,408.38867 341.05176,408.38867 "
   id="polygon52"
   style="fill-rule:evenodd"
   transform="translate(-69.37793,-21.90918)" />
<path
   clip-rule="evenodd"
   d="m 277.06445,396.92285 h 1.66699 l -0.76757,5.36035 c -0.22559,1.58106 -0.33692,2.58106 -0.33692,3.00196 0,0.95507 0.29883,1.73828 0.89942,2.34277 0.59765,0.60351 1.38769,0.90723 2.36816,0.90723 0.81836,0 1.53027,-0.23536 2.13281,-0.70704 0.60059,-0.4707 1.03125,-1.08593 1.292,-1.84863 0.1289,-0.38476 0.28125,-1.2666 0.45898,-2.65234 l 0.86816,-6.4043 h 1.6211 l -0.62305,4.85352 c -0.30078,2.32129 -0.61523,3.96777 -0.94726,4.94238 -0.33204,0.98047 -0.92481,1.78125 -1.77832,2.41211 -0.85352,0.625 -1.89161,0.93945 -3.11524,0.93945 -1.39648,0 -2.53613,-0.45312 -3.42773,-1.36035 -0.89161,-0.90918 -1.33496,-2.04394 -1.33496,-3.39941 0,-0.54493 0.0508,-1.17578 0.14746,-1.89746 l 0.12402,-1.12989 0.0684,-0.48144 0.68359,-4.87891 0,0 z"
   id="path54"
   inkscape:connector-curvature="0"
   style="fill-rule:evenodd" />
<path
   clip-rule="evenodd"
   d="m 303.78418,398.27344 c -1.11426,-1.12207 -2.54102,-1.68164 -4.27832,-1.68164 -1.90039,0 -3.5918,0.75488 -5.08399,2.2666 l 1.67188,-12.37891 c 0,0 -1.6084,0 -1.61133,0.0147 h -0.084 l -3.14551,23.24219 h 1.60351 0.083 0.0234 l 0.3291,-2.44727 c 0.55469,0.9502 1.23633,1.65137 2.04395,2.10254 0.80566,0.45313 1.74316,0.67871 2.80957,0.67871 1.96777,0 3.67773,-0.73437 5.12988,-2.19922 1.45117,-1.46386 2.17773,-3.21679 2.17773,-5.26074 0,-1.76855 -0.55664,-3.21191 -1.66894,-4.33691 l 0,0 z m -1.63379,8.5498 c -1.12012,1.1416 -2.46777,1.71192 -4.04004,1.71192 -1.33301,0 -2.42187,-0.41797 -3.26074,-1.24903 -0.71387,-0.7041 -1.10645,-1.60351 -1.21777,-2.66211 v -0.003 c -0.0156,-0.18945 -0.0459,-0.37207 -0.0459,-0.57422 0,-0.24316 0.0176,-0.48632 0.0381,-0.7246 0.01,-0.0811 0.0225,-0.16504 0.0381,-0.24317 0.0225,-0.15723 0.0479,-0.31152 0.083,-0.46387 0.0205,-0.0937 0.043,-0.18457 0.0684,-0.27636 0.0381,-0.15137 0.0889,-0.2959 0.13964,-0.44532 0.0303,-0.0791 0.0508,-0.15722 0.0811,-0.23339 0.0908,-0.23047 0.19531,-0.45606 0.31445,-0.67871 0.50879,-0.9375 1.2002,-1.65723 2.07422,-2.15821 0.87402,-0.5039 1.83692,-0.75293 2.88574,-0.75293 1.34473,0 2.43653,0.41602 3.27246,1.25196 0.83301,0.833 1.25098,1.93261 1.25098,3.29296 0,1.66211 -0.55957,3.06543 -1.68164,4.20801 l 0,0 z"
   id="path56"
   inkscape:connector-curvature="0"
   style="fill-rule:evenodd" />
<path
   clip-rule="evenodd"
   d="m 345.65723,242.64355 c -1.20606,-0.7041 -29.85059,-17.24316 -59.97754,-17.24316 -17.47657,0 -32.26758,4.88379 -45.31543,9.19043 -11.34864,3.74707 -22.06934,7.2832 -33.44043,7.28809 -4.38477,0.13183 -17.26074,0.55175 -24.07813,-6.05664 -3.30908,-3.20508 -6.26416,-5.04102 -6.26416,-14.45557 0,-25.55078 36.02881,-45.38672 36.02881,-45.38672 0,0 -42.76318,17.81934 -42.76318,45.38672 0,29.92236 37.34228,28.57764 37.34228,28.57764 25.95996,0 47.50977,-16.47364 78.49024,-16.47364 28.28027,0 55.89453,16.13672 55.89453,16.13672 l 4.08301,-6.96387 0,0 z"
   id="path58"
   inkscape:connector-curvature="0"
   style="fill:#6ca0c8;fill-rule:evenodd" />
<path
   clip-rule="evenodd"
   d="m 125.24707,232.62793 c -2.7002,2.70019 -12.09326,6.89258 -31.49854,6.89258 -9.67285,0 -22.91601,-3.11035 -23.04785,-3.1416 l -1.86963,7.84765 c 0,0 19.52979,3.36426 24.91748,3.36426 17.17237,0 69.36426,-6.05176 72.73194,-84.72266 0,-10.75683 -2.69385,-22.18896 -2.69385,-22.18896 0,0 4.71289,73.62744 -38.53955,91.94873 l 0,0 z"
   id="path60"
   inkscape:connector-curvature="0"
   style="fill:#6ca0c8;fill-rule:evenodd" />
<path
   clip-rule="evenodd"
   d="m 160.41894,236.49609 c 0,3.89844 -3.1665,7.05957 -7.07128,7.05957 -3.90479,0 -7.07032,-3.16113 -7.07032,-7.05957 0,-3.89843 3.16553,-7.06054 7.07032,-7.06054 3.90478,0 7.07128,3.16211 7.07128,7.06054 l 0,0 z"
   id="path62"
   inkscape:connector-curvature="0"
   style="fill:#6ca0c8;fill-rule:evenodd" />
<path
   clip-rule="evenodd"
   d="m 207.89648,231.11523 c 0,4.27344 -3.46777,7.7334 -7.74609,7.7334 -4.27637,0 -7.74414,-3.45996 -7.74414,-7.7334 0,-4.26953 3.46777,-7.73095 7.74414,-7.73095 4.27832,0 7.74609,3.46142 7.74609,7.73095 l 0,0 z"
   id="path64"
   inkscape:connector-curvature="0"
   style="fill:#6ca0c8;fill-rule:evenodd" />
<path
   clip-rule="evenodd"
   d="m 143.5835,174.97168 c 0,2.22803 -1.8086,4.03418 -4.04053,4.03418 -2.23291,0 -4.04004,-1.80615 -4.04004,-4.03418 0,-2.22803 1.80713,-4.03418 4.04004,-4.03418 2.23193,0 4.04053,1.80615 4.04053,4.03418 l 0,0 z"
   id="path66"
   inkscape:connector-curvature="0"
   style="fill:#6ca0c8;fill-rule:evenodd" />
<path
   clip-rule="evenodd"
   d="m 202.50879,203.2124 c 0,2.59912 -2.11328,4.70703 -4.71485,4.70703 -2.60156,0 -4.71386,-2.10791 -4.71386,-4.70703 0,-2.59863 2.1123,-4.70654 4.71386,-4.70654 2.60157,0 4.71485,2.10791 4.71485,4.70654 l 0,0 z"
   id="path68"
   inkscape:connector-curvature="0"
   style="fill:#6ca0c8;fill-rule:evenodd" />
<path
   clip-rule="evenodd"
   d="m 221.36523,190.94189 c 0,1.76319 -1.43359,3.19336 -3.19921,3.19336 -1.76563,0 -3.19922,-1.43017 -3.19922,-3.19336 0,-1.76416 1.43359,-3.19433 3.19922,-3.19433 1.76562,0 3.19921,1.43017 3.19921,3.19433 l 0,0 z"
   id="path70"
   inkscape:connector-curvature="0"
   style="fill:#6ca0c8;fill-rule:evenodd" />
<path
   clip-rule="evenodd"
   d="m 197.71094,166.86182 c 0,2.01904 -1.63867,3.65527 -3.66309,3.65527 -2.02148,0 -3.66016,-1.63623 -3.66016,-3.65527 0,-2.02002 1.63868,-3.65674 3.66016,-3.65674 2.02442,0 3.66309,1.63672 3.66309,3.65674 l 0,0 z"
   id="path72"
   inkscape:connector-curvature="0"
   style="fill:#6ca0c8;fill-rule:evenodd" />
<path
   clip-rule="evenodd"
   d="m 245.94434,171.61035 c 0,2.78516 -2.25879,5.04346 -5.04786,5.04346 -2.79199,0 -5.05175,-2.2583 -5.05175,-5.04346 0,-2.78515 2.25976,-5.04394 5.05175,-5.04394 2.78907,0 5.04786,2.25878 5.04786,5.04394 l 0,0 z"
   id="path74"
   inkscape:connector-curvature="0"
   style="fill:#6ca0c8;fill-rule:evenodd" />
<path
   clip-rule="evenodd"
   d="m 154.02148,122.86084 c 0,2.6001 -2.11132,4.70654 -4.71435,4.70654 -2.60303,0 -4.71436,-2.10644 -4.71436,-4.70654 0,-2.59766 2.11133,-4.70654 4.71436,-4.70654 2.60303,0 4.71435,2.10888 4.71435,4.70654 l 0,0 z"
   id="path76"
   inkscape:connector-curvature="0"
   style="fill:#6ca0c8;fill-rule:evenodd" />
<path
   clip-rule="evenodd"
   d="m 142.90967,104.37109 c 0,1.85694 -1.50733,3.36182 -3.3667,3.36182 -1.86035,0 -3.36768,-1.50488 -3.36768,-3.36182 0,-1.85791 1.50733,-3.36279 3.36768,-3.36279 1.85937,0 3.3667,1.50488 3.3667,3.36279 l 0,0 z"
   id="path78"
   inkscape:connector-curvature="0"
   style="fill:#6ca0c8;fill-rule:evenodd" />
<path
   clip-rule="evenodd"
   d="m 130.78711,88.56934 c 0,1.67089 -1.35645,3.02587 -3.0293,3.02587 -1.67334,0 -3.03125,-1.35498 -3.03125,-3.02587 0,-1.67041 1.35791,-3.02588 3.03125,-3.02588 1.67285,0 3.0293,1.35547 3.0293,3.02588 l 0,0 z"
   id="path80"
   inkscape:connector-curvature="0"
   style="fill:#6ca0c8;fill-rule:evenodd" />
<path
   clip-rule="evenodd"
   d="m 266.82324,175.14014 c 0,2.13525 -1.73535,3.86572 -3.87305,3.86572 -2.13867,0 -3.87402,-1.73047 -3.87402,-3.86572 0,-2.13526 1.73535,-3.8667 3.87402,-3.8667 2.1377,0 3.87305,1.73144 3.87305,3.8667 l 0,0 z"
   id="path82"
   inkscape:connector-curvature="0"
   style="fill:#6ca0c8;fill-rule:evenodd" />
<path
   clip-rule="evenodd"
   d="m 281.2998,182.7041 c 0,1.48584 -1.20605,2.69043 -2.69238,2.69043 -1.4873,0 -2.69336,-1.20459 -2.69336,-2.69043 0,-1.48437 1.20606,-2.68896 2.69336,-2.68896 1.48633,0 2.69238,1.20459 2.69238,2.68896 l 0,0 z"
   id="path84"
   inkscape:connector-curvature="0"
   style="fill:#6ca0c8;fill-rule:evenodd" />
<path
   clip-rule="evenodd"
   d="m 158.17822,84.36719 c 0,39.69922 32.34815,71.99707 72.10889,71.99707 39.76269,0 72.10937,-32.29785 72.10937,-71.99707 0,-39.700198 -32.34668,-71.997561 -72.10937,-71.997561 -39.76074,0 -72.10889,32.297363 -72.10889,71.997561 l 0,0 z"
   id="path86"
   inkscape:connector-curvature="0"
   style="fill-rule:evenodd" />
<path
   clip-rule="evenodd"
   d="m 161.51318,84.36719 c 0,37.86425 30.85303,68.66748 68.77393,68.66748 37.92383,0 68.77539,-30.80323 68.77539,-68.66748 0,-37.864749 -30.85156,-68.668948 -68.77539,-68.668948 -37.9209,0 -68.77393,30.804199 -68.77393,68.668948 l 0,0 z"
   id="path88"
   inkscape:connector-curvature="0"
   style="fill:#ffffff;fill-rule:evenodd" />
<path
   clip-rule="evenodd"
   d="m 290.48242,101.25684 c 1.88477,-8.09717 2.59668,-26.466801 0.0557,-35.118657 1.47753,-3.227051 2.26269,-7.312011 2.54882,-10.179199 -2.02148,-4.707031 -11.11328,-19.163574 -17.50976,-24.54248 -2.71778,-0.905762 -6.79395,-0.990723 -11.00879,-0.272461 -6.46192,-5.745117 -19.33594,-11.23584 -29.5918,-11.14209 -2.12793,-4.063477 -5.46484,-5.276856 -9.57031,-6.740723 -6.7334,-0.335937 -26.93848,6.387207 -31.65234,12.103516 -0.55469,2.213867 -0.86133,5.77539 -0.0225,8.285644 -6.77929,4.86377 -16.81054,18.356446 -18.24658,26.048828 -4.31787,0.396485 -8.46435,2.779786 -11.3623,5.672852 -2.69287,5.714844 -3.3667,24.87793 -2.69287,29.92188 2.28613,5.54345 6.48974,8.87451 12.5747,12.75292 2.63428,8.37696 10.94678,19.73096 17.32569,24.67823 -0.24121,3.55761 -0.17481,7.96679 0.73926,11.31689 7.74609,4.70654 27.27441,10.42237 33.67382,11.43067 3.25977,-2.36573 6.77832,-5.77295 8.95215,-7.93262 8.64258,0.52832 24.73633,-4.52149 31.26367,-10.4541 2.30274,0.68359 5.39551,1.51318 8.94434,1.24121 3.7041,-3.36279 16.49902,-20.50879 19.53125,-26.56055 -0.85645,-3.98047 -2.00391,-7.0293 -3.95215,-10.50976 l 0,0 z M 235.25195,22.694824 c 9.64356,-0.0039 22.14258,5.321777 27.95899,10.829102 0.41015,5.924804 2.47168,13.625976 5.54687,21.654785 -3.95898,2.030273 -12.86523,8.152832 -16.5664,11.101562 -3.74414,-2.819336 -17.54004,-7.390625 -23.5918,-7.555176 -1.66113,-6.212402 -6.18262,-17.221679 -9.40039,-23.398925 6.01367,-3.802246 12.54492,-8.469727 16.05273,-12.631348 l 0,0 z M 195.83594,35.45166 c 5.13281,1.160156 13.88183,1.234863 20.58691,0.382324 3.12402,5.782227 7.84277,17.191406 9.53223,23.414063 -4.24024,2.422851 -14.62891,16.161621 -17.60742,21.755863 h -23.50489 c -1.03125,-8.152836 -3.20215,-14.919926 -6.76025,-20.549809 1.0376,-6.73584 11.33935,-20.882324 17.75342,-25.002441 l 0,0 z m -2.36328,95.5332 c -6.10254,-4.4458 -15.23829,-16.76465 -17.23536,-24.86963 3.78321,-5.48779 6.92969,-12.59472 8.50586,-22.42089 h 22.86719 c 0.99805,4.69628 12.08106,20.84521 16.65332,24.36279 -1.20312,6.76465 -4.95508,17.63965 -8.16699,22.80859 -8.14941,-1.40967 -16.67383,-1.43652 -22.62402,0.11914 l 0,0 z m 40.51757,13.8169 v 0.004 c -3.91796,-4.91455 -7.44726,-8.59912 -15.17089,-13.23828 3.31152,-5.7251 6.80664,-16.02099 8.05078,-22.7959 5.63379,-0.48242 21.72461,-6.67138 26.01758,-9.77295 4.1875,3.19434 12.9375,10.6543 16.76464,14.82276 -2.54297,6.29248 -4.19238,14.69092 -4.94922,20.7793 -5.29492,5.48828 -22.37304,11.22558 -30.71289,10.20117 l 0,0 z m 37.03809,-33.43897 c -4.32715,-4.52929 -12.55469,-11.49023 -16.65039,-14.60107 1.5957,-5.59717 0.92383,-22.479494 -0.75293,-28.181642 3.45801,-2.812988 13.50488,-9.727051 16.90918,-11.279785 l -0.0107,-0.02295 c 5.19336,3.770508 12.80859,8.311524 17.53027,9.947754 2.15039,7.809571 1.7041,24.551273 -0.0459,32.780273 -5.61621,2.7876 -10.38574,6.00635 -16.97949,11.35742 l 0,0 z"
   id="path90"
   inkscape:connector-curvature="0"
   style="fill-rule:evenodd" />
</svg>