<?xml version="1.0" encoding="UTF-8" standalone="no"?>
<!-- Generator: Adobe Illustrator 23.0.0, SVG Export Plug-In . SVG Version: 6.00 Build 0)  -->

<svg
   version="1.1"
   id="Capa_1"
   x="0px"
   y="0px"
   viewBox="0 0 68.890106 80.129997"
   xml:space="preserve"
   sodipodi:docname="Logo del Club Atlético Tucumán - 2017.svg"
   width="68.890106"
   height="80.129997"
   inkscape:version="1.1 (c68e22c387, 2021-05-23)"
   xmlns:inkscape="http://www.inkscape.org/namespaces/inkscape"
   xmlns:sodipodi="http://sodipodi.sourceforge.net/DTD/sodipodi-0.dtd"
   xmlns="http://www.w3.org/2000/svg"
   xmlns:svg="http://www.w3.org/2000/svg"><defs
   id="defs968" /><sodipodi:namedview
   id="namedview966"
   pagecolor="#ffffff"
   bordercolor="#666666"
   borderopacity="1.0"
   inkscape:pageshadow="2"
   inkscape:pageopacity="0.0"
   inkscape:pagecheckerboard="0"
   showgrid="false"
   inkscape:zoom="4.2118644"
   inkscape:cx="34.545272"
   inkscape:cy="40.006036"
   inkscape:window-width="1366"
   inkscape:window-height="705"
   inkscape:window-x="-8"
   inkscape:window-y="-8"
   inkscape:window-maximized="1"
   inkscape:current-layer="Capa_1" />
<style
   type="text/css"
   id="style897">
	.st0{fill:#FFFFFF;}
	.st1{fill:#9F8E55;}
	.st2{fill:#89B8E5;}
</style>
<g
   id="g963"
   transform="translate(-19.551442,-18.93)">
	<g
   id="g961">
		<g
   id="g901">
			<path
   class="st0"
   d="m 20.4,19.78 c -0.02,4.4 0,23.88 0.01,34.6 0.01,7.12 0.47,12.17 2.82,18.49 1.61,4.31 3.97,8.51 6.32,11.24 l 0.83,0.98 c 0.1,0.1 0.17,0.17 0.25,0.28 0.27,0.32 0.56,0.62 0.88,0.93 0.21,0.2 0.41,0.4 0.6,0.61 l 0.09,0.1 c 0.03,0.03 0.05,0.06 0.09,0.1 l 1.16,1.06 c 4.23,3.72 9.07,6.43 15.22,8.52 0.87,0.29 4.65,1.43 5.34,1.53 0.68,-0.09 4.24,-1.18 5.27,-1.53 2.77,-0.94 5.18,-1.98 7.39,-3.17 2.46,-1.32 4.37,-2.57 6.4,-4.19 l 2.32,-2.03 1.73,-1.77 c 0.16,-0.19 0.34,-0.39 0.53,-0.6 0.24,-0.26 0.48,-0.52 0.7,-0.8 1.87,-2.4 2.5,-3.21 4.22,-6.36 2.48,-4.55 4.32,-10.83 4.8,-16.4 0.19,-2.24 0.22,-4.55 0.23,-6.92 0.01,-10.73 0.02,-30.22 0,-34.67 z"
   id="path899" />
		</g>
		<g
   id="g947">
			<g
   id="g927">
				<g
   id="g905">
					<path
   class="st1"
   d="m 55.36,51.79 c -0.23,0.11 -0.7,0.31 -0.95,0.37 l 0.58,1.53 6.42,-2.45 -0.57,-1.5 c -0.83,0.17 -1.21,0.84 -2.23,-0.42 -0.16,-0.2 -0.32,-0.39 -0.48,-0.6 L 56.2,46.31 c -0.34,-0.4 -0.63,-0.8 -0.96,-1.2 L 52.83,42.1 c -0.12,-0.16 -0.42,-0.49 -0.49,-0.64 -0.17,0.01 -3.34,1.21 -3.49,1.31 -0.02,0.4 0.39,8.93 0.43,9.75 0.02,0.49 0.07,1.15 -0.18,1.5 -0.16,0.22 -0.76,0.5 -1.13,0.59 l 0.58,1.53 c 0.54,-0.21 4.96,-1.86 5.09,-1.96 l -0.57,-1.49 c -0.39,0.1 -1.38,0.71 -1.64,0.23 -0.14,-0.26 -0.21,-1.69 -0.18,-2.05 l 3.36,-1.3 c 0.1,0.21 0.87,1.13 1.12,1.47 0.27,0.4 -0.05,0.6 -0.37,0.75 z m -4.23,-2.66 -0.21,-4.04 c 0.12,0.11 2.45,2.97 2.55,3.17 z"
   id="path903" />
				</g>
				<g
   id="g909">
					<path
   class="st1"
   d="m 63.77,47.41 c -0.48,0.1 -0.79,0.33 -0.97,0.61 -0.86,1.25 0.25,2.74 1.58,2.46 2.13,-0.48 1.3,-3.49 -0.61,-3.07 z"
   id="path907" />
				</g>
				<g
   id="g913">
					<path
   class="st1"
   d="m 44.65,54.7 c -2.13,0.57 -1.17,3.56 0.76,3.02 2.09,-0.59 1.14,-3.54 -0.76,-3.02 z"
   id="path911" />
				</g>
				<g
   id="g917">
					<path
   class="st1"
   d="m 80.64,41.01 c -2.16,0.31 -1.63,3.42 0.39,3.09 2.13,-0.32 1.54,-3.37 -0.39,-3.09 z"
   id="path915" />
				</g>
				<g
   id="g921">
					<path
   class="st1"
   d="m 71.01,45.78 c -0.33,0.18 -1.11,0.5 -1.2,0.56 l 0.55,1.46 3.46,-1.31 c 0.41,-0.15 3.34,-1.24 3.44,-1.35 -0.11,-0.27 -0.44,-1.3 -0.58,-1.44 -0.42,0.12 -0.86,0.33 -1.32,0.4 -0.58,0.1 -0.65,-0.13 -0.92,-0.8 l -1.92,-4.95 c -0.17,-0.46 -0.87,-2.19 -0.95,-2.5 1.42,-0.51 2.29,-0.31 3.09,0.93 0.21,0.33 0.32,0.71 0.52,1.02 l 1.56,-0.57 -1.71,-4.45 c -0.38,0.09 -1.02,0.38 -1.42,0.53 -1.52,0.57 -9.82,3.72 -9.92,3.8 l 1.71,4.44 1.55,-0.59 c -0.18,-0.76 -0.58,-1.55 -0.23,-2.51 0.25,-0.66 1.01,-1.24 1.61,-1.35 0.12,0.17 0.39,0.97 0.49,1.22 l 2.43,6.27 c 0.27,0.67 0.34,0.86 -0.24,1.19 z"
   id="path919" />
				</g>
				<g
   id="g925">
					<path
   class="st1"
   d="m 35.26,50.58 c 0.6,0.35 1.01,0.8 1.36,1.37 0.12,0.2 0.21,0.42 0.32,0.6 0.22,-0.05 1.6,-0.57 1.69,-0.66 l -1.8,-4.67 -1.6,0.57 v 1.04 c -0.91,-0.15 -1.36,-0.31 -2.38,-0.18 -1.93,0.24 -3.88,1.43 -4.82,3.07 -0.69,1.21 -1.05,2.62 -0.74,4.26 0.48,2.58 2.12,5 4.87,5.64 1.64,0.38 3.12,0.01 4.48,-0.54 2.03,-0.83 3.44,-2.27 3.4,-4.46 -0.01,-0.61 -0.21,-1.71 -0.44,-2.18 -0.3,0.1 -0.6,0.23 -0.91,0.34 -0.3,0.11 -0.65,0.23 -0.91,0.35 0.27,1.11 0.43,1.94 -0.12,2.97 -0.83,1.52 -4.24,2.89 -6.15,-2.09 -0.34,-0.89 -0.67,-1.99 -0.55,-3.08 0.24,-2.6 2.91,-3.16 4.3,-2.35 z"
   id="path923" />
				</g>
			</g>
			<g
   id="g937">
				<g
   id="g931">
					<path
   class="st2"
   d="M 87.64,19.78 H 20.36 c -0.03,0.33 -0.02,16.3 -0.01,26.45 z"
   id="path929" />
				</g>
				<g
   id="g935">
					<path
   class="st2"
   d="m 75.18,53.87 v 33.86 l 0.38,-0.33 1.74,-1.78 c 0.37,-0.45 0.85,-0.91 1.24,-1.42 1.9,-2.44 2.52,-3.26 4.2,-6.35 2.55,-4.68 4.32,-10.9 4.79,-16.4 0.2,-2.26 0.22,-4.56 0.23,-6.84 0,0 0,-2.26 0,-5.63 z"
   id="path933" />
				</g>
			</g>
			<g
   id="g941">
				<path
   class="st2"
   d="m 60.98,61.81 c 0,-0.78 0.02,-1.62 0.02,-2.43 l -13.95,5.41 v 31.45 c 0.5,0.18 1,0.37 1.51,0.54 0.59,0.2 4.89,1.52 5.5,1.55 0.54,0.01 4.69,-1.29 5.45,-1.55 0.5,-0.17 1,-0.35 1.49,-0.54 0,-0.19 -0.02,-0.49 -0.02,-0.99 z"
   id="path939" />
			</g>
			<g
   id="g945">
				<path
   class="st2"
   d="m 23.52,73.82 c 1.47,3.71 3.59,7.62 5.99,10.4 0.27,0.32 0.53,0.63 0.8,0.95 0.07,0.08 0.14,0.13 0.21,0.22 0.52,0.63 1.03,1.07 1.51,1.58 0.08,0.09 0.12,0.14 0.2,0.22 l 0.61,0.55 0.01,-17.55 z"
   id="path943" />
			</g>
		</g>
		<g
   id="g951">
			<path
   class="st1"
   d="M 54.01,99.06 53.89,99.04 C 53.09,98.92 49.17,97.73 48.41,97.48 42.15,95.36 37.22,92.6 32.9,88.79 l -1.34,-1.25 c -0.24,-0.27 -0.43,-0.45 -0.61,-0.64 -0.36,-0.36 -0.67,-0.67 -0.96,-1.01 -0.08,-0.1 -0.12,-0.15 -0.18,-0.2 L 28.92,84.64 C 26.51,81.85 24.09,77.55 22.45,73.15 20.05,66.71 19.58,61.58 19.57,54.37 19.56,43.64 19.54,24.16 19.56,19.76 v -0.83 h 68.87 v 0.83 c 0.02,4.29 0.01,23.23 0,34.68 -0.01,2.39 -0.04,4.71 -0.24,6.99 -0.49,5.68 -2.37,12.09 -4.9,16.73 -1.75,3.21 -2.39,4.03 -4.3,6.47 -0.22,0.28 -0.46,0.54 -0.69,0.8 -0.23,0.25 -0.4,0.44 -0.56,0.63 l -1.77,1.82 -2.37,2.08 c -2.1,1.67 -4.05,2.95 -6.55,4.3 -2.24,1.21 -4.7,2.27 -7.51,3.23 -0.86,0.29 -4.62,1.46 -5.42,1.57 z M 21.23,20.62 c -0.02,5.63 0,23.61 0.02,33.76 0.01,7.02 0.46,12 2.77,18.2 1.58,4.22 3.88,8.33 6.17,10.98 l 0.83,0.99 c 0.08,0.07 0.18,0.17 0.29,0.32 0.22,0.26 0.5,0.54 0.79,0.82 0.23,0.23 0.44,0.43 0.63,0.64 l 0.11,0.13 1.18,1.08 c 4.14,3.64 8.88,6.3 14.93,8.35 0.95,0.32 4.24,1.3 5.07,1.47 0.8,-0.17 3.88,-1.1 5,-1.47 2.72,-0.93 5.1,-1.95 7.25,-3.12 2.41,-1.3 4.29,-2.52 6.27,-4.11 l 2.29,-2.01 1.68,-1.72 c 0.13,-0.16 0.32,-0.36 0.51,-0.58 0.26,-0.28 0.47,-0.51 0.65,-0.75 1.84,-2.36 2.46,-3.16 4.15,-6.24 2.43,-4.45 4.23,-10.61 4.7,-16.07 0.19,-2.21 0.22,-4.5 0.23,-6.85 0.01,-10.82 0.02,-28.32 0,-33.83 H 21.23 Z"
   id="path949" />
		</g>
		<g
   id="g955">
			
				<rect
   x="17.84"
   y="32.860001"
   transform="matrix(0.9309,-0.3653,0.3653,0.9309,-8.4271,22.0259)"
   class="st1"
   width="72.300003"
   height="0.83999997"
   id="rect953" />
		</g>
		<g
   id="g959">
			
				<rect
   x="21.360001"
   y="60.950001"
   transform="matrix(0.9309,-0.3652,0.3652,0.9309,-18.5659,24.5766)"
   class="st1"
   width="68.660004"
   height="0.83999997"
   id="rect957" />
		</g>
	</g>
</g>
</svg>
