<?xml version="1.0" encoding="utf-8"?>
<!-- Generator: Adobe Illustrator 23.1.0, SVG Export Plug-In . SVG Version: 6.00 Build 0)  -->
<svg version="1.1"
	 id="svg4150" xmlns:cc="http://creativecommons.org/ns#" xmlns:dc="http://purl.org/dc/elements/1.1/" xmlns:inkscape="http://www.inkscape.org/namespaces/inkscape" xmlns:rdf="http://www.w3.org/1999/02/22-rdf-syntax-ns#" xmlns:sodipodi="http://sodipodi.sourceforge.net/DTD/sodipodi-0.dtd" xmlns:svg="http://www.w3.org/2000/svg"
	 xmlns="http://www.w3.org/2000/svg" xmlns:xlink="http://www.w3.org/1999/xlink" x="0px" y="0px" viewBox="0 0 679.5 845.7"
	 style="enable-background:new 0 0 679.5 845.7;" xml:space="preserve">
<style type="text/css">
	.st0{fill:#FEFEFC;}
	.st1{fill:#9B844B;}
	.st2{fill:#9B844C;}
	.st3{fill:#0F4794;}
	.st4{fill:#9B844A;}
	.st5{fill:#9A844B;}
	.st6{fill:#9A844C;}
	.st7{fill:#6D7AB2;}
	.st8{fill:#CFD0D0;}
	.st9{fill:#CECFCE;}
	.st10{fill:#6D7AB1;}
	.st11{fill:#BBAC8B;}
	.st12{fill:#BCAF91;}
	.st13{fill:#D0D0D0;}
	.st14{fill:#6D7BB2;}
	.st15{fill:#6D7BB3;}
	.st16{fill:#9B834C;}
	.st17{fill:#214C8E;}
	.st18{fill:#9C844D;}
	.st19{fill:#9C844C;}
	.st20{fill:#9A834A;}
	.st21{fill:#9C864E;}
	.st22{fill:#99834B;}
	.st23{fill:#9A844A;}
	.st24{fill:#9A854B;}
	.st25{fill:#9A834B;}
	.st26{fill:#9C844B;}
	.st27{fill:#98834D;}
	.st28{fill:#234D8D;}
	.st29{fill:#98844B;}
	.st30{fill:#104693;}
</style>
<g>
	<path class="st0" d="M331.9,92.1c4.5,0.4,8.9,0.5,13.4,0.4c-0.4,17.2-0.9,34.4-1.1,51.6c7.5,0.8,15.1,0.3,22.7,0.7
		c-0.4,2.7-0.5,5.4-0.5,8.1c-11.9-0.3-23.8-0.6-35.7-0.8C331.1,132.1,331.8,112.1,331.9,92.1 M262.4,101.9c12-2.3,24-4.7,36-7.2
		c0.5,2.4,1,4.8,1.5,7.2c-7.3,1.7-14.7,3.1-22.1,4.5c1,5.9,2.4,11.7,3.4,17.6c7.1-1.2,14-2.9,21.1-4c0.1,2.3,1.5,5,0.8,7.2
		c-6.8,1.5-13.6,2.7-20.4,4.1c1.2,6.5,2.7,13,3.9,19.5c7.5-1.4,14.9-3.1,22.5-4.5c0.6,2.4,1.1,4.8,1.5,7.2
		c-12.1,2.5-24.3,4.9-36.4,7.4C270.1,141.1,266,121.5,262.4,101.9 M395.3,105.4c4-4.5,10.4-6.4,16.3-5.7c9.2,0.7,17.8,8.1,18.9,17.4
		c-2.5,0.9-5,1.7-7.6,2.5c-0.7-3-1.4-6.4-3.8-8.6c-2.7-2.6-7.5-3.8-10.6-1.3c-2.6,2.1-4.3,6.1-2.3,9.2c2.2,3.4,5.9,5.5,9,7.9
		c3.6,2.7,7,5.9,8.8,10.2c2,6,0.8,12.9-3,17.9c-4.3,5.4-11.6,7.8-18.3,7c-5.6-0.8-11.3-3.1-15.2-7.4c-2.2-2.5-3.5-5.5-4.3-8.7
		c2.6-1.1,5.2-2.2,7.9-3.2c0.8,2.2,1.4,4.6,2.8,6.5c2.6,3.8,8.3,5.4,12.3,2.9c4.2-2.2,5.1-8.5,2.1-12.1c-4.1-5-10.6-7.4-14.5-12.6
		C388.6,121,389.7,111.1,395.3,105.4 M216.5,118.1c4.3-2,8.5-4.2,13-6c8.4,18.1,17.1,36,25.4,54.1c-4.3,2-8.5,4-12.7,6.1
		c-4.1-8-7.8-16.3-11.7-24.4c-5.8,2.6-11.5,5.5-17.4,8c3.5,8.4,7.7,16.5,11.4,24.8c-4.4,1.8-8.6,3.9-12.9,6
		c-8.6-18-17.2-36.1-25.6-54.2c4.3-2,8.6-4.2,13-6c3.4,7.5,7,14.9,10.5,22.3c5.7-3,11.9-5.2,17.4-8.6
		C223.2,132.9,220,125.4,216.5,118.1 M437.3,171.7c9-17.8,17.9-35.6,27-53.3c11,5.5,21.9,11,32.9,16.6c-1.1,2.2-2.2,4.3-3.3,6.5
		c-6.8-3.2-13.5-6.8-20.2-10.1c-2.7,5.3-5.4,10.7-8,16c6.3,3.3,12.7,6.4,19,9.6c-1.1,2.2-2.3,4.4-3.5,6.6
		c-6.3-3.1-12.6-6.3-18.9-9.5c-3.1,5.8-6,11.7-8.9,17.6c6.7,3.6,13.5,6.9,20.3,10.3c-0.9,2.3-2,4.5-3.2,6.7
		C459.5,182.8,448.2,177.6,437.3,171.7 M147.3,160.2c5.7-1.7,12-1.8,17.7,0.1c-0.6,2.4-1.1,4.8-1.7,7.2c-5.4-1-11.4-2.3-16.5,0.4
		c-4.8,2.9-8.6,8-9,13.7c-0.3,4.9,1.8,9.5,4.3,13.5c3.4,5.2,7.8,10,13.4,12.8c3.9,2,8.6,3.2,13,1.8c7.5-2.3,12.8-10.2,12.3-18
		c-0.2-2.3-0.8-4.5-1.4-6.8c2.5-0.7,5.1-1.5,7.6-2.2c1.5,5.3,2.1,10.9,0.9,16.3c-3.4,12.8-16.2,22.3-29.4,22.1
		c-9.5,0.1-18.9-4.5-24.7-12c-5.9-7.3-8.5-17.4-6.4-26.6C129.6,172.4,137.2,163.3,147.3,160.2 M484.1,196.6
		c20.6-10.3,40.8-21.4,61.5-31.5c-6.5,20.3-13.8,40.3-20.4,60.5c-0.6,1.9-1.3,3.7-2.1,5.5c-3.5-3.3-7.2-6.5-10.9-9.5
		c1.5-5.1,3.3-10.1,5-15.2c-4.3-3.6-8.5-7.4-12.8-11c-4.6,2.6-9.2,5-13.9,7.4C488.5,200.7,486.2,198.7,484.1,196.6 M511.8,191.8
		c2.8,2.2,5.5,4.6,8.3,6.9c1.4-4.7,3.2-9.2,4.8-13.8C520.4,187.2,516,189.3,511.8,191.8 M323,176.3c34.3-2.6,69.1,2.8,101,15.7
		c35.4,14.2,67,37.5,91.1,66.9c28.3,34.4,46.2,77.3,50.4,121.7c1.3,10.6,1,21.3,0.9,32c-2,47.4-19.4,93.9-49.1,130.9
		c-24.7,31.2-57.8,55.8-94.9,70.3c-45.5,18-96.9,20.5-144,7.3c-36.5-10.2-70.3-29.8-97.3-56.3c-34.3-33.3-57.7-77.8-65.4-125.1
		c-7.6-45.2-1-92.7,18.8-134.1c17.5-36.9,45.2-69,79.3-91.7C246.2,192.2,284.2,179.1,323,176.3 M357.1,228.2
		c-3.5,3.4-6.8,8.6-4.2,13.4c-2.6,0-5.1,0.1-7.7,0.3c-6.5,0.3-11.8,5.5-14.7,10.9c-0.3,0.4-1,1.1-1.4,1.5c3.5-0.5,7,0.1,9.8,2.2
		c1,2.9,2.9,5.7,2.5,8.9c-0.2,3-1.4,5.9-2.3,8.7c-1.4,2.4-4.1,3.6-6.4,5.1l0.4,0.7c-5.6,0-12.3,1.7-16.4-3.3c0-0.9-0.1-1.7-0.5-2.5
		c-6.8,7.3-2.1,20.1,6.7,23.4c-2.6,8.4-6.3,16.9-12.6,23.2c-10.4-0.1-20.6-2.1-30.5-4.7c-3.7-1.8-7.5-3.4-11.1-5.4
		c-2.9-2.4-5.8-4.8-8.6-7.3c0-0.6,0.1-1.9,0.1-2.6c5-2.9,9.7-6.5,13.5-10.8c3.6-3.9,7.2-8.1,8.6-13.3c3.8-11.1-0.2-24.4-9.4-31.7
		c-1.6-1.4-3-3.1-4.7-4.4c-4.7-6-11.4-10.5-19-12c-12.4-2.9-26.1,2.4-33.2,12.9c-6.7,9.4-6.6,22.9,0,32.4c2.6,4,6.3,7,10.2,9.7
		c0.7,1.6,1.7,3.1,2.9,4.5c-0.5,0.4-1.4,1.2-1.9,1.6l-1.9,0.6c2.9,1.7,6.2,3,9.7,3.3c-0.1,1.4-0.3,2.8-0.4,4.2
		c-5.7-0.8-11.4,4.1-11.6,9.9c-0.4,3,1.6,5.5,3.3,7.7c-1.5,2-3.7,3.7-4.2,6.3c-0.4,3.1,2,5.5,3.6,7.9c0.1,2.5-0.1,5.3,1.4,7.5
		c1.7,2.5,4.9,3.4,7.8,3.6c0.1,21.9,0,43.8,0,65.7c-3.7,2-6.6,5.1-8.8,8.7c-1.9,0.3-3.9,0.7-5.1,2.3c-2.9,3.5-3.4,8.2-3.7,12.6
		c0.4-0.1,1.3-0.3,1.7-0.4l-0.2-0.6c2.1-1.1,4.3-2.2,6.7-2.5c-3.6,4.1-4,10.1-1.8,14.9c2.3-1.9,4.4-3.9,7-5.4
		c0.6,4.6,1.5,9.2,3.9,13.1c0.5,16.4-0.1,32.9,0.3,49.4c-1.4,0.1-2.9,0.1-4.3,0.2c0,2.4,0,4.8,0,7.2c0,2.3,0,4.6,0,7
		c2.3,0,4.7-0.1,7,0.4c-5,1.3-6.3,7.1-6.4,11.6c0.2,0.1,0.5,0.3,0.7,0.4c1,3.6,3.9,6.4,7.4,7.5c0.5,0.3,1.4,0.8,1.8,1.1
		c0.8,1.9,1.4,3.8,2.6,5.5c1.6,1.7,3.9,2.6,5.9,3.7c-2.4,2.3-3.8,5.4-3.8,8.7c-0.4,3.4,0.9,6.6,1.4,9.8c0,3.1-0.6,6.4,0.7,9.3
		c1.1,3.1,3.6,5.5,6.4,7.2c0.1-1.3-0.1-2.4-0.5-3.5c0.5-2.1,1-4.3,2.6-5.9c1.7,4.2-0.3,8.9,1.8,13c1.2,2.7,3.5,4.6,5.9,6.2
		c0.1-2.3-0.2-4.6,0.5-6.8c1.5-2.7,4.3-4.1,6.8-5.8c1.5,2.2,3.6,3.9,6,5.1c0.5-1,1-2,1.5-2.9c0.6,5.1,3.1,10.6,8.3,12.5
		c0.4-3.1,0.8-6.3,2.7-8.8c1.7-2.9,4.8-4.4,7.6-6c1.5,1.1,3.2,1.9,4.9,2.7c0.5,5,5.8,7.8,9.9,9.7c0.1-2.4-0.3-5,0.9-7.1
		c1.1-1.8,2.7-3.5,4.6-4.4c4.4-1.6,9.5-1.9,13.5-4.6c4.3-2.8,5.9-8.1,7.3-12.8c1.2-3.7,0.4-7.9,2.3-11.4c1.9-3.9,4.5-7.5,8.3-9.8
		c5.7-4.1,12.5-5.8,19.2-7.3c-6.5-1.6-13.4-3.1-18.4-7.8c2.8-0.9,5.7-1.6,8.6-2.3c-4.6-0.8-9.2-2-13.4-4.1c0.4-2.8,0.7-5.7,2.6-8
		c5.2-6.9,13.6-10.2,21.6-12.6c3.9,5.3,8.5,10.2,13.9,14c0.8,2.7,3.2,4.3,5.2,6.1c3.7,3.3,8.1,5.6,12.8,7.1
		c0.4,5.9,0.3,12.1-2.4,17.5c-1.3,2.4-3.5,4.8-6.5,4.4c-7.4-0.2-15.1,0-21.8,3.5c-4.8,2.4-8.6,7.2-8.7,12.7c-0.4,3.6,1.7,6.7,2,10.2
		c0.4,4,2.9,7.4,5.9,10c0.2-1.5,0.4-2.9,0.5-4.4c0.7-0.6,1.3-1.2,2-1.9c1.8,5.3,1.6,12,7,15.4c0.6-1.8,1-3.6,2-5.3
		c2.5-2.9,6.2-4.4,10-4.6c0.7,0.6,2.1,1.8,2.8,2.4c0.5-0.9,0.8-1.8,1-2.8c0.8,0.1,2.4,0.2,3.2,0.2c-0.1,4.6,1,10.4,6.1,12
		c0.8-3.1,1.2-6.6,3.6-8.9c1.9-1.4,4-2.3,6-3.6c0.4,0.1,1.3,0.2,1.7,0.3c0.5,0.2,1.6,0.5,2.2,0.7c0.6,2,1,4.1,2.2,5.8
		c1.3,1.6,3.3,2.4,5,3.4c0.5-3.4,1.6-7,4.9-8.7c2.7-1,5.6-0.7,8.4-1.5c3.3-2.1,3.7-6.3,3.8-9.8c0.3-12.3-1-25,2.5-37
		c2.9-12.1,9.5-22.9,17.4-32.4c-6.1,1.9-12.4,3.3-18.9,2.3c2.8-4.6,6.2-8.7,9.6-12.8c-4.5,2-9.3,3.3-14.2,3.5
		c-6.5,0-13-2.3-18.1-6.3c-2.7-5.3-6.5-10.3-6.9-16.4c2.3,2.1,4.5,4.3,7.2,5.9c10.9,6.6,24.1,9.2,36.8,8.1
		c7.2-0.8,14.6-2.9,19.8-8.1c4.8-4.5,6.8-11.4,6.3-17.8c-0.1-12.3-6.6-23.6-14.4-32.7c-3.6-3.3-6.8-7.3-8.2-12
		c-1.1-3.7,1.8-7.1,4.8-9c2.6-1.9,6.1-1.2,9.1-1.4c2,4.8,0.2,10-2.4,14.2c2.3-1,4.5-2.1,6.7-3.3l0.2-0.4c1.4-1,2.9-1.9,4.2-3.1
		c3,4.7,2.8,11.3-1.2,15.3c2.3-1,4.8-1.5,7.2-2.4c5.8-3.8,10.8-9.4,12.6-16.2c3.2-9.2-1.4-20.7-10.6-24.4c-3.1-6.7-9.8-11.1-17-12.7
		c-1.5-0.4-3-0.8-4.5-1.2c6-5.4,13.1-9.5,19.1-14.9c2.6-2.7,5.5-5.2,7.8-8.2c2.5-4.1,4.9-8.6,4.6-13.6c0.6-10.4-3.5-22.1-13.4-27
		c-5.3-10.2-17.9-14.9-28.8-12.7c-2.9,0.2-1.7-3-2-4.8c-4.3,6.7-13.2,9.8-20.6,6.8c7.1-2.4,11.7-9.9,10.9-17.3
		c-2.9,5.9-9.5,8.7-15.8,8.7c2.2-2.4,3.1-5.5,2.8-8.7c1.3,0.4,2.5,1,3.9,0.9c1.5-1.7,2.6-3.8,3.7-5.9c-0.9-5-6.6-6.5-10.1-9.4
		l0.5-0.8c-1.2-1.8-2.4-3.7-4.2-5c-2.1-1.5-4.7-2.4-6.5-4.4c-1.7-1.6-2.6-3.7-3.5-5.7c-12-2-24.2-4-35.2-9.6
		c-4.6-2.5-9.2-5.8-11.5-10.7c-1.2-2.3-1.1-4.9-1.2-7.4l-0.9,0.8C364.8,221.8,360.8,224.9,357.1,228.2 M382.5,257.7
		c2.9-0.1,5.7,0,8.6-0.1c0.1,3.6,2.4,6.6,5.9,7.4c-0.5,0.7-1,1.5-1.5,2.2c-4.2-1.5-8.9-2.5-12.2-5.7
		C382.2,260.6,382.7,259,382.5,257.7 M395.8,257.8c2.2,0,4.3,0,6.5,0.1c-1.3,1.5-2,3.8-3.9,4.6C395.9,262.4,395.7,259.7,395.8,257.8
		 M409.3,293.4c2.9-2.3,6.4-3.5,10.1-3.2c2.3,2.7,5.5,4.3,8.9,5.2c-0.1,1.1-0.8,2.3,0,3.3c2.4,3.7,6.5,5.6,10.5,7
		c-2.9,5-2.8,10.9-1.9,16.4c0.2-1.1,0.4-2.2,0.6-3.3c1.1-2.7,2.6-5.5,5.2-7.1c2.9-2.1,6.7-2,10.1-2l-1.1,1.4
		c-4.8,5.3-6.7,12.8-5.1,19.7c1-2.3,1.7-4.8,3.1-6.8c2.6-3.2,6.8-4.2,10.7-4.7c0.9,6.6-3.6,12-8,16.2c-8,7.3-16.9,13.7-23.9,22
		c-4.2,5-7.4,11-8.4,17.5c-1.2,9.7,1.1,20,6.9,28c5.9,8.3,13.8,15.1,19.3,23.8c2.5,5.1,3.3,11,2.7,16.7c-1,6.8-7.5,12.3-14.4,12
		c-7.4,0-15.1-1.5-21.1-6c-1.3-4.9-3.4-9.5-4.5-14.4c-3.5-12.6-3.8-25.8-7.6-38.3c-1.1-3.8-3.6-6.9-5.2-10.4
		c-0.4-3.8,0.4-7.6,0.5-11.4c9.6,3,21.1-2.4,24.3-12c2-6.6-0.8-13.4-4.8-18.6c-1,2-2.1,3.8-3.4,5.5c-0.4-1.2-0.7-2.3-1-3.4
		c-0.8-4.5-3-8.6-5.6-12.3c-0.7,1.6-0.8,3.5-2.3,4.6c-2.5,2.4-6.2,2.7-9.5,2.1c-1.6-6.1-1.5-13.1,1.7-18.7c1.5-2.7,4.5-4.2,7.5-4.4
		c6.6-0.1,12.9,3.5,16.9,8.7c-1.2-7.1-1.6-14.3-0.4-21.4c-3.5,0.6-7,0.8-10.6,0.7c-0.3-2.5,0.1-5,0.4-7.4c0.3-0.3,1-1,1.3-1.3
		C410.5,295.7,409.9,294.5,409.3,293.4 M62,300.1c4.9-1,10-1,14.9,0c11.6,2.7,21.3,12.6,23.5,24.3c1.2,5.3,0.8,11-0.8,16.2
		c-3,9.7-11,17.6-20.7,20.6c-4.7,1.5-9.7,1.6-14.6,1c-12.2-1.7-22.8-11.5-25.6-23.5c-1.6-6-1.3-12.5,0.8-18.3
		C43,310.4,51.8,302.5,62,300.1 M57.4,305.9c0.1,0.3,0.3,0.8,0.4,1.1c2.2,0.9,4.4,1.7,6.6,2.6c3.7-3.1,8.3-4.7,13.1-5
		C71,302.3,63.6,303.1,57.4,305.9 M66.4,310.9c2.1,1.3,4.2,2.7,6.3,3.9c2.3-0.6,4.4-1.9,6.8-2.1c4.1-0.6,8.2,0.4,12.1,1.5
		c-2.8-3-5.7-6.9-10.1-7.2C76.3,306.5,70.4,307.3,66.4,310.9 M46.4,315.5c11.3,4.2,21.1,11.5,31.7,17.2c1.3-3,2.7-6,4.1-8.9
		c-4-2.7-8-5.2-11.9-7.9c-5.1-3.4-10.6-6.9-16.9-7.3C50.5,310.2,48.4,312.9,46.4,315.5 M75.3,315.9c2,2.9,5.6,4.2,8.5,6.1
		c4.1,0.3,8.3-0.1,12.3,0.8c-0.8-1.8-1.3-3.9-2.6-5.5C88,314.6,81.3,314,75.3,315.9 M42.8,323.5c-0.7,1.6,1,2.7,1.9,3.8
		c8.4,7.3,19.4,10.6,30,13.5c0.8-1.9,1.7-3.8,2.5-5.8c-3.6-2.4-7.4-4.6-11.1-6.9c-6.7-3.9-13.3-8.1-20.6-10.5
		C44,319.3,43.3,321.4,42.8,323.5 M72.1,352.8c1,1.5,2.4,2.8,3.9,4c3.1-3.9,6.1-7.9,8.3-12.4c3.2-6.2,4.6-13.1,5-20
		c-1.6,0-3.3,0-4.9,0C79.6,333.5,76.3,343.3,72.1,352.8 M91.3,324.4c-0.3,6.7-1.7,13.3-4.5,19.4c-2.1,4.9-5.4,9.2-8.5,13.6
		c5.9-2.1,11.1-6.1,14.5-11.4c3.9-6,5.2-13.6,3.8-20.6C94.9,325,93.1,324.7,91.3,324.4 M41.8,327.6c0.1,3.5-0.4,7.2,1.2,10.5
		c2.4,4.5,7,7.2,11.5,9.2c4.9,2.3,10.3,3.2,15.4,4.9c1.6-3.1,2.8-6.3,4-9.5C62.4,339.9,50.7,335.7,41.8,327.6 M45.1,344.3
		c1.2,2.6,2.8,5,5.3,6.5C49.9,347.8,48,345.3,45.1,344.3 M51.6,348.6c0.9,2,1.9,3.9,2.9,5.9c2.4,1.2,4.8,2.2,7.2,3.2
		c-1.7-2.1-3.1-4.4-4.2-7C55.5,350,53.5,349.3,51.6,348.6 M60.3,351.8c1.2,2.6,3.3,4.7,5.4,6.7c2.9,0.2,5.7,0.1,8.6,0
		c-1.2-1.3-2.3-2.8-3.8-3.8C67.2,353.4,63.7,352.8,60.3,351.8 M604.5,299.8c6.4-1,13.2-0.3,19.1,2.6c10.7,4.9,18.2,16.3,17.9,28.2
		c0.7,12.9-8,25.5-20,30c-5.1,2.1-10.7,2.4-16.1,1.8c-13.5-1.7-25-13.1-26.7-26.7c-0.4-4.7-0.5-9.5,1-14
		C583,310.5,593,301.5,604.5,299.8 M602.4,304.2c4.4,1.3,9.1,2.1,12.6,5.4c2.5-1.1,5-2,7.7-2.8c-0.3-0.3-0.8-0.8-1.1-1.1
		C615.6,302.9,608.7,302.7,602.4,304.2 M595.5,307.5c-3.2,1.5-5.5,4.3-7.8,6.7c6.2-2.1,13.1-2.6,19,0.7c2.2-1.4,4.3-2.7,6.5-4.1
		C608.2,306.9,601.4,306.1,595.5,307.5 M612.5,313.7c-5.1,3.3-10.1,6.7-15.3,10c1.4,3,2.8,6.1,4.2,9.1c10.3-6,20.2-13,31.5-17.3
		c-1.9-2.6-3.9-5.2-6.7-6.9C621.3,308.6,616.7,311.1,612.5,313.7 M585.6,317.5c-0.8,1.8-1.5,3.7-2.3,5.5c4-1,8.1-0.7,12.2-0.9
		c3.2-1.6,6.1-3.8,9.1-5.8C598.5,313.7,591.5,314.8,585.6,317.5 M602.3,334.9c0.8,2,1.6,3.9,2.4,5.9c9-2.2,17.9-5.2,25.7-10.2
		c2.5-1.6,4.7-3.6,6.6-5.8c-0.8-2.6-1.7-5-2.8-7.5C622.8,321.7,612.7,328.6,602.3,334.9 M582.9,325.8c-1.3,4.8-0.5,10,1.1,14.7
		c2.7,7.9,9.5,14,17.2,16.8c-7.6-9.3-12.9-20.7-13.1-32.9C586.3,324.9,584.3,324.6,582.9,325.8 M590.3,324.3
		c0.2,12,5.4,23.4,13.2,32.4c1.3-1,2.6-2.1,3.9-3.2c-3.7-9.8-7.5-19.6-12.1-29C593.6,324.4,591.9,324.3,590.3,324.3 M605.4,342.7
		c1.3,3.1,2.6,6.3,3.8,9.5c7.7-2,15.8-3.7,22.3-8.5c2.4-1.7,4.3-4,5.4-6.6c1-3.1,0.8-6.3,0.5-9.5
		C628.8,335.9,616.9,339.8,605.4,342.7 M629.3,350.9c2.2-1.7,3.7-4.2,5.2-6.6C631.4,345.2,629.1,347.6,629.3,350.9 M621.9,350.9
		c-1,2.4-2.3,4.7-4.1,6.6c2.5-0.9,5.2-1.7,7.2-3.4c1.3-1.6,1.9-3.7,2.6-5.6C625.7,349.3,623.8,350.1,621.9,350.9 M609.5,354.4
		c-1.9,0.6-3,2.5-4.1,4.1c2.7,0.2,5.4,0.2,8.2,0c2.2-2,4.3-4.2,5.7-6.8C616.1,352.7,612.8,353.4,609.5,354.4 M260.3,354.2
		c5.5,0.3,10.7,2.1,16,3.4c0,5.1-4.7,7.9-9.1,8.8c0.4,0.6,0.9,1.2,1.3,1.8c2.2,2.9,5.5,4.5,8.9,5.4c1.1,0.4,2.3,0.9,3.4,1.4
		c-0.9,0.3-2.6,0.8-3.5,1.1c2.1,4.2,6.4,6.5,10.8,7.9c-9.6,5.2-17.7,12.9-27.1,18.5c-0.4-1.6-0.8-3.3-0.8-4.9
		C260.3,383.1,260.1,368.7,260.3,354.2 M323.6,440.8c5.5-3.9,10-8.9,15.4-13c0.5,1.9,1.1,3.7,2.1,5.4c-3.7,2.9-8.2,4.4-12.1,6.9
		c-7.9,4.9-15.2,10.7-21.8,17.1c-5.8,6-11.4,12.5-14.7,20.3c-2.2,5.3-3,11.7,0.2,16.8c2.1,3.7,6,5.5,9.3,8c1.2,1.8,0.7,4.1,0.6,6.2
		c-0.8,8-2.4,16.4-7.2,23c-3.1,4.3-8.5,6.8-13.8,6.2c-6-0.6-12.1-1.2-18.2-0.3c0.7-2.9,1.3-6,0.2-8.9c-0.8-2.6-3-4.2-4.9-5.9
		c1.9-0.1,3.9-0.1,5.8-0.2c0-4.6,0-9.2,0-13.8c-1.4-0.1-2.8-0.1-4.1-0.2c-0.1-14.6-0.1-29.1,0-43.7c1.3,0.2,2.6,0.5,4,0.7
		c0.3-2.8,0.4-5.8,1.9-8.2c3.8-6.7,11.7-10.5,19.3-10.2c5.2-0.3,10.7,1.7,13.6,6.3C308.1,451.1,316.1,446.1,323.6,440.8 M58.7,440.8
		c3.6-2,8-1.3,11.8-0.8c5.2,1.1,11-0.5,15.6,2.8c2.6,1.8,3.4,5.1,3.1,8.1c2.6-0.2,5.5-0.6,7.7,1.2c3,2.6,4,6.8,4.5,10.6
		c0.7,5.3,3.7,10.4,2.5,15.8c-0.7,3.3-3.7,5.6-6.9,6c1.4,2.4,2.2,5.3,1.1,8c-1.5,3.5-5,5.5-8.3,7.2c-5,2.2-8.9,6.8-14.5,7.3
		c-3.4,0.4-6.2-1.9-7.9-4.5c-1.9,1.8-4.2,3.6-7,3.4c-4.1-0.6-7.4-3.3-10.2-6.2c-2.6-2.8-6.1-4.6-8.6-7.5c-1.9-2-3.3-4.8-2.8-7.7
		c0.1-1.9,1.5-3.4,2.5-4.9c-2.3-1-4.5-2.6-5.3-5.1c-1.3-4.2,0.7-8.4,2.5-12c2.6-4.5,2.9-10.3,7.1-13.8c2.6-2.3,6.4-2.4,9.4-0.8
		C54.9,445.2,56.1,442.1,58.7,440.8 M61.5,443.7c-1.9,0.6-3,2.9-2.6,4.8c0.7,5,3.8,9.2,6.5,13.4c1.1-0.6,3.2-0.4,3.5-1.9
		c1.1-2.2,0.9-5.2,3-6.8c0.5,2.7,0.9,5.5,1.4,8.2c1.1,0.4,2.1,0.8,3.2,1.2c2.7-2.7,5.3-5.5,7.3-8.8c1.2-1.9,2.1-4.3,1.4-6.6
		c-2.2-3.1-6.4-3.1-9.8-3.1C70.8,444.4,66.1,442.4,61.5,443.7 M48.5,451.5c-2.7,2-3.5,5.5-4.6,8.5c-1.2,3.9-4,7.3-4.4,11.4
		c-0.4,2.1,1.3,4.2,3.4,4.5c4.9,0.8,9.8-0.5,14.4-1.8c0.1-0.7,0.3-2.1,0.4-2.8c-2.5-1.7-5.1-3.3-7.1-5.7c2.9-0.1,5.7,0.5,8.4,1.3
		c1.1-1.1,2.2-2.3,3.3-3.4c-2.3-4.1-4.5-8.6-8.3-11.7C52.5,450.8,50.1,450.2,48.5,451.5 M89.2,455.2c-4,2.4-6.8,6.3-9.9,9.8
		c0.7,1.3,1.5,2.6,2.2,3.9c2.7,0,5.4,0,8,0c-1.2,2.8-5,3.1-7.3,4.7c0,0.7,0,2.1,0,2.7c4.9,1.9,9.9,5,15.3,4.1c2.3-0.4,3.1-2.9,3-5
		c-0.2-4.1-2.3-7.8-2.7-11.9c-0.3-2.8-1-5.6-2.6-8C93.7,454,91,454.1,89.2,455.2 M66.6,466.8c-2.2,1-3.6,3.3-4,5.6
		c-0.6,4,2.7,8.3,6.9,8.3c3.4,0.3,6.8-2.2,7.5-5.6c0.5-2.5-0.1-5.4-2.1-7C72.7,466.1,69.3,465.6,66.6,466.8 M44.8,481.9
		c-2,1.2-2.7,3.8-1.7,5.9c2.2,3.7,6.4,5.6,9.3,8.8c2.3,2.2,4.7,5,8,5.4c1.8,0.3,3.4-0.9,4.2-2.4c2.2-4.3,2.1-9.3,2.6-14
		c-1.3-0.1-2.9-1.6-4-0.4c-2.3,1.6-4.4,3.6-7.1,4.6c0.7-3.1,2.7-5.6,3.9-8.5c-0.3-1.4-1.1-2.6-2.1-3.5
		C53.4,478.5,48.8,479.5,44.8,481.9 M80.8,479.6c-0.9,1.2-1.8,2.4-2.7,3.5c1.1,2.8,2.1,5.7,2.7,8.7c-3.1-1.2-4.5-4.6-7.3-6.3
		c-1.4-0.4-3.3,0.3-3.1,2c-0.4,3.6-0.7,7.3-0.1,11c0.4,1.8,1.1,4,3.1,4.6c3.7,0.6,6.9-1.9,9.7-3.9c3.4-2.7,8.1-3.6,10.8-7.1
		c1.2-1.5,1.1-3.7-0.1-5.1C90.6,483,85.4,481.5,80.8,479.6 M606.4,440.5c5.6,0.1,11.5-2.5,16.9-0.1c3.1,1.2,4.4,4.5,4.5,7.5
		c2.3-1.2,5.2-1.7,7.6-0.3c3.7,1.9,5.4,6.1,6.6,9.8c1.5,5.1,5.5,9.5,5,15.1c0,3.4-2.7,5.9-5.6,7.2c1.5,2,3,4.3,2.5,6.9
		c-0.7,4.3-4.2,7.3-7.6,9.7c-4.2,2.7-6.9,7.6-11.9,9.1c-3.3,1.4-7-0.4-9.2-2.9c-1.7,3-5.2,5.4-8.8,4.5c-5.4-0.9-9.2-5.3-14.1-7.4
		c-3.4-1.7-7.1-4.1-8.1-8c-0.9-2.4,0.2-5,1.5-7c-3.6-0.3-6.9-3.2-7.1-6.9c-0.8-5.2,2-10,2.6-15c0.5-3.8,1.5-8,4.6-10.5
		c2.1-1.9,5.1-1.4,7.7-1.2c0.1-2-0.2-4.3,1.1-6C597.3,441.1,602.3,440.4,606.4,440.5 M612.8,443.8c-4.2,1-8.6-0.1-12.7,1.4
		c-2.2,0.8-3.5,3.2-2.7,5.4c1.3,4.4,4.6,7.8,7.7,11.1c1,1.8,3,0.1,4.4-0.1c0.3-2.8,0.7-5.6,1.3-8.3c2,1.7,1.9,4.6,3,6.9
		c0.3,1.6,2.4,1.2,3.6,1.8c3-4.9,7.4-10.2,6.2-16.3C621,442.3,616.4,443.3,612.8,443.8 M628.9,452c-3.8,3-6.1,7.5-8.3,11.8
		c1.1,1.1,2.3,2.2,3.5,3.2c2.6-0.7,5.3-1.2,8.1-1.3c-1.7,2.5-4.5,3.7-6.7,5.7c0,0.7-0.1,2.1-0.1,2.8c4.8,1.2,9.6,2.6,14.6,1.8
		c2.6-0.4,4-3.3,3.2-5.7c-0.6-2.6-1.9-5.1-3.1-7.5c-1.8-3.6-2.4-7.8-5.1-10.9C633.4,450.3,630.6,450.5,628.9,452 M587.2,456.3
		c-2.1,3.3-1.9,7.5-2.9,11.2c-1,3.5-2.6,7.1-1.5,10.7c0.7,1.9,2.8,2.5,4.6,2.4c4.7-0.3,9-2.5,13.2-4.5c0-0.7,0-2,0-2.6
		c-2.6-1.2-5.2-2.4-7.7-3.6c0.2-0.2,0.7-0.7,0.9-1c2.5-0.3,5.1-0.1,7.6-0.1c0.7-1.3,1.4-2.6,2.1-3.9c-3.2-3.6-6.1-7.8-10.4-10
		C591.1,453.8,588.3,454.3,587.2,456.3 M609.7,466.9c-4.8,2-5.5,9.6-1.1,12.4c2.7,2.1,6.8,1.9,9.2-0.4c3.2-2.6,3.2-8.1,0.1-10.8
		C615.8,466.1,612.4,465.6,609.7,466.9 M624.8,477.7c-0.7,1.1-1.4,2.2-2,3.4c1.3,2.9,3.2,5.6,4,8.8c-3-1.4-5.5-3.7-8.3-5.4
		c-1,0.8-3.4,1.2-2.6,3.1c0.2,3.4,0.5,6.8,1.5,10.1c0.6,1.7,1.5,3.6,3.3,4.3c3.8,0.7,6.9-2.3,9.3-4.8c2.8-3.2,6.9-5,9.4-8.6
		c1.3-1.9,1.2-4.8-0.9-6.2C634.4,479.4,629.4,478.7,624.8,477.7 M589.3,486.4c-1.3,1.3-1.9,3.4-0.8,5.1c1.7,2.8,4.8,4.1,7.6,5.5
		c3.9,1.9,6.9,5.5,11.3,6.1c2.4,0.6,4.4-1.4,4.9-3.6c1.1-4.6,0.3-9.3-0.2-13.9c-0.7,0-2.1-0.1-2.8-0.1c-2.6,1.9-4.3,4.9-7.3,6.3
		c0.5-2.9,1.8-5.7,2.4-8.6c-0.1-1.5-1.6-2.5-2.4-3.7C597.6,481.4,592.7,482.9,589.3,486.4 M119.6,610.4c7.6-7.9,15.3-15.9,22.8-23.9
		c4.9,4.5,9.8,9.1,14.4,13.9c-0.9,0.9-1.8,1.9-2.7,2.8c-3-2.7-5.8-5.5-8.7-8.2c-2.3,2.3-4.5,4.7-6.7,7.1c2.5,2.7,5.1,5.2,7.9,7.6
		c-1,1-2,2-3,3c-2.4-2.6-5.2-4.9-7.6-7.5c-3.7,3.5-7,7.3-10.6,10.9C123.4,614.2,121.5,612.3,119.6,610.4 M527.5,591.5
		c2.3-2.3,4.7-4.8,8.1-5.3c5.5-1,11.2,4.3,9.8,10c6.1-2,12.7,3.9,11.6,10.2c-1.2,5.9-6.9,8.9-10.5,13.1c-1.3,0.9-2.2,2.9-3.8,2.9
		c-8-7.4-15.1-15.7-22.9-23.3C522.2,596.6,525,594.2,527.5,591.5 M528.3,596.5c2.2,2.3,4.3,4.8,6.8,6.8c2.1-1.6,4.6-3.8,3.9-6.7
		c-1-2-3-4.3-5.5-3.7C531.3,593.3,529.9,595.1,528.3,596.5 M537.9,606.5c2.7,2.6,5.1,5.5,8.1,7.9c1.5-1.6,3.2-3.1,4.3-5.1
		c1.1-3.5-2.5-6.9-5.8-7.1C541.5,602.1,539.8,604.8,537.9,606.5 M506,610.4c1.2-0.9,2.4-1.8,3.6-2.7c4.6,6.2,9.2,12.5,13.8,18.8
		c1.7,2.3,2.9,5.1,2.2,8c-1,5-5.5,8.4-10,10.2c-4.2,1.7-9.3,0.3-11.8-3.4c-4.7-6.4-9.4-12.7-14-19.2c2.2-1.4,4.3-2.9,6.4-4.5
		c4.4,5.7,8.5,11.6,12.9,17.4c1,1.3,2.1,2.7,3.6,3.3c4.1,1.2,8.7-2.7,8.3-6.8c-1.2-2.8-3.3-5-5-7.5
		C512.6,619.5,509.1,615.1,506,610.4 M165,614.2c7.9-2.7,17.2,1.8,20.1,9.6c3.7,9.6-2.7,21.3-12.6,23.7c-9,2.7-19.6-4.4-20-13.9
		C151.4,625.2,157.1,616.9,165,614.2 M171.5,618.7c-3.1,0.8-5.4,3.2-7.4,5.5c-2.5,3-4.6,6.4-5.4,10.2c-1.2,4.2,2.5,8.7,6.7,8.6
		c2.4-0.1,4.6-1.4,6.4-3.1c3.9-3.6,7.1-8.2,8-13.5C180.6,621.9,176,617.4,171.5,618.7 M464.1,637.4c2.2-1.5,4.6-2.8,7-4
		c4.6,8.3,9.4,16.5,13.8,24.9c3.6-1.9,7.3-3.9,10.8-6c0.9,1.2,1.8,2.5,2.6,3.8c-5.9,3.5-12,6.7-18,10.1
		C474.9,656.6,469.6,647,464.1,637.4 M203.5,636.7c7-2,15.3,1.6,18.5,8.2c4.3,8.2,0.6,19.4-7.5,23.8c-5.1,3-12,2.8-16.9-0.5
		c-4.3-2.7-7.3-7.6-7.3-12.8C189.8,647.3,195.5,638.9,203.5,636.7 M206.7,641.7c-3.3,2.1-5.6,5.4-7.2,8.8c-1.4,3.1-2.7,6.5-2.2,9.9
		c0.6,3.7,4.4,6.5,8.1,5.6c3.5-0.9,5.9-3.9,7.8-6.9c2.2-3.8,4.1-8.1,3.6-12.6C216.3,642.2,210.6,639.3,206.7,641.7 M430.2,659.7
		c1.3-8,9.1-14.4,17.2-13.8c3.2,0,6.2,1.5,8.9,3.2c-0.8,1.1-1.6,2.3-2.3,3.4c-2.4-1.3-4.9-2.6-7.6-3c-3.6,0.5-7.4,2.7-8.5,6.3
		c-1.3,3.3-0.2,7,0.9,10.2c1.5,4.3,4.8,8.5,9.5,9.4c6,0.8,11.1-5,10.9-10.7c1.5,0.3,4.8-1,4.2,1.7c-0.2,7.7-7.5,13.9-14.9,14.1
		c-2.9,0.1-6-0.1-8.6-1.5C432.7,675.8,428.7,667.3,430.2,659.7 M238.3,649.5c6.3,2.3,12.6,4.5,18.9,6.7c-0.5,1.3-0.9,2.6-1.4,4
		c-1.9-0.7-3.8-1.4-5.7-2.1c-3.4,9.1-6.4,18.3-9.7,27.4c-2.5-0.8-5-1.7-7.5-2.6c3.2-9.1,6.3-18.3,9.6-27.4c-2-0.7-4-1.5-6-2.4
		C237.2,651.9,237.8,650.7,238.3,649.5 M263.4,692.4c2.3-10.8,4.6-21.6,6.8-32.5c5.1,1.3,10.3,2,15.3,3.4c4.7,1.1,7.6,6.5,6.1,11.1
		c-0.5,2.5-2.8,3.9-4.7,5.5c5.3,3.7,3.6,12.8-2.3,15c-2.4,1-5,0.9-7.4,0.4C272.7,694.4,268,693.4,263.4,692.4 M277.1,665.6
		c-0.6,3.3-1.4,6.5-1.9,9.8c2.3,0.2,4.8,1,7,0c2.5-1.8,2.2-5.2,1.1-7.7C281.3,666.7,279.3,666,277.1,665.6 M271.9,690
		c2.4,0.5,4.9,1.3,7.4,0.8c3.5-1.6,4-7,1.5-9.6c-1.9-1.4-4.3-1.5-6.5-2C273.6,682.8,272.8,686.4,271.9,690 M311.1,676.3
		c2-3.7,3.4-7.6,5.8-11c4,12.1,8,24.2,11.7,36.4c-2.7-0.2-5.4-0.4-8-0.5c-0.9-2.9-1.9-5.7-2.8-8.5c-3.1-0.2-6.1-0.4-9.2-0.6
		c-1.2,2.6-2.5,5.2-3.8,7.8c-1.6-0.1-3.2-0.2-4.8-0.3C303.5,691.6,307.6,684,311.1,676.3 M310.6,688c2,0.1,3.9,0.3,5.9,0.5
		c-0.9-2.6-1.7-5.3-2.5-7.9C312.9,683,311.8,685.5,310.6,688 M371.4,666.2c2.6-0.5,5.3-0.8,7.9-1.2c1.2,9.4,3,18.8,4.3,28.2
		c4.2-0.5,8.3-1.5,12.6-1.7c0.1,1.4,0.2,2.8,0.4,4.3c-6.7,0.9-13.3,2.2-20,3C374.8,688,373.1,677.1,371.4,666.2 M340.5,668.3
		c2.5-0.2,5-0.2,7.5-0.4c0.5,9.6,0.9,19.2,1.3,28.8c4.1-0.2,8.3-0.5,12.4-0.6c0.1,1.5,0.2,2.9,0.3,4.4c-6.8,0.6-13.6,0.7-20.4,0.8
		C341.2,690.3,340.4,679.3,340.5,668.3L340.5,668.3z"/>
	<path class="st1" d="M337.7,9c2-2.6,1.9-6.5,4.7-8.5c2.4-0.3,4.8-0.4,7.1-0.5c-3.3,6.5-8.4,12-10.8,18.9c-0.8,1.6-1.9,3.1-2.8,4.6
		c0.3,7.5,0.4,15.1,0.7,22.6c-3.5,0.4-6.9,0.4-10.4,0.4c-0.2-7-0.2-14.1-0.7-21.1c-0.9-2.3-2.6-4.1-3.9-6.2c-4.1-6-8.4-12-12.3-18.2
		c4,0.1,8,0,12.1-0.3c3.6,5.1,7,10.3,10.5,15.4c0.3,0.1,0.8,0.2,1,0.3C334.7,14,336.1,11.4,337.7,9 M353.3,0.5
		c9.3,0.9,18.6,1.3,27.8,2c-0.2,1.7-0.3,3.4-0.4,5c-5.8-0.7-11.6-0.8-17.5-1.2c-0.5,4.9-0.6,9.9-1.1,14.8c5.5,0.2,11.1,0.6,16.6,1.1
		c-0.1,1.6-0.2,3.2-0.2,4.8c-5.6-0.2-11.1-0.8-16.6-1c-0.3,5.4-0.8,10.8-1.1,16.2c6,0.4,11.9,0.8,17.9,1.3c-0.1,1.6-0.3,3.3-0.4,4.9
		c-9.3-0.7-18.7-1.5-28-1.9C351,31.1,352.2,15.8,353.3,0.5 M401.7,12.8c1.9-3.1,3.7-6.4,6-9.3c3.9,17.1,7.6,34.2,11.5,51.3
		c-3.5-0.6-6.9-1.2-10.4-1.7c-1.1-4-1.9-8.1-2.8-12.1c-4.5-0.7-8.9-1.6-13.4-2.3c-2.3,3.5-4,7.3-6.7,10.6c-1.8-0.4-3.7-0.8-5.5-1.1
		C387.2,36.2,394.6,24.6,401.7,12.8 M395.4,34.1c3.1,0.6,6.2,1.1,9.4,1.6c-0.8-4.1-1.6-8.3-2.6-12.3
		C399.6,26.7,397.6,30.5,395.4,34.1 M266.9,6.1c5.5-1.5,11.8,0.1,15.7,4.2c5.6,5.4,7.4,13.6,7.3,21.2c-0.3,5.9-1.6,12.2-5.8,16.6
		c-5.1,5.9-14.8,7.5-21.3,3.1c-5.4-3.4-8.4-9.7-9.4-15.8c-1.1-7-0.8-14.6,2.7-20.9C258.3,10.4,262.3,7.2,266.9,6.1 M267.8,10.9
		c-3.2,1-4.5,4.5-5.1,7.5c-1.5,8.6,0.3,17.7,4.6,25.2c1.4,2.3,3.4,4.7,6.2,4.9c3.6-0.2,5.7-3.9,6.4-7.1c1.6-9.1-0.2-18.7-5-26.6
		C273.3,12.7,270.8,9.9,267.8,10.9 M434.2,11.4c4.4,1.3,8.9,2.5,13.4,3.8c3.9,1.2,8.3,1.8,11.5,4.6c5.1,4.6,5.3,13.1,1.3,18.4
		c-2.8,3.3-7.3,3.7-11.3,3.5c2,7.7,3.8,15.4,5.8,23.1c-3.8-0.9-7.5-2-11.2-3.1c-1.7-8.5-3.4-17.1-5.7-25.4c-2.1,7.3-4.2,14.7-6.2,22
		c-3.3-0.9-6.6-1.8-10-2.7C425.8,40.9,429.9,26.1,434.2,11.4 M442.9,18.5c-1.5,5.5-3,10.9-4.6,16.3c3.5,0.9,7.3,2.2,10.8,0.4
		c3.9-2.2,5.3-7.7,3.4-11.7C450.5,20.2,446.4,19.1,442.9,18.5 M225.6,15.8c5.2-1.6,11.2-0.4,15.2,3.3c5.2,4.3,7.8,10.9,8.7,17.4
		c0.7,5.9,0.5,12.3-2.4,17.7c-3.1,6.1-10.1,9.6-16.8,8.8c-4.6-0.5-8.9-3.1-11.7-6.8c-3.6-4.5-5.3-10.2-6-15.8
		c-0.6-6-0.1-12.4,3.2-17.5C218,19.4,221.7,17,225.6,15.8 M225.8,20.9c-3,1.2-4.2,4.6-4.4,7.6c-0.6,8.6,1.9,17.3,6.7,24.4
		c1.8,2.3,4,5,7.2,4.9c3.7-0.8,5.5-4.8,5.6-8.3c0.4-8.6-2.1-17.4-7.2-24.4C232,22.7,229.2,19.8,225.8,20.9 M186.5,31.1
		c4.4-1.9,8.6-4.2,12.9-6.3c5.8,14.6,11.9,29.1,17.3,43.8c-2.8,1.1-5.6,2.2-8.4,3.2c-5.3-12.7-10-25.6-15.5-38.2
		c-1.5,0.7-3.1,1.5-4.6,2.2C187.5,34.3,186.9,32.7,186.5,31.1 M475.6,27.7c7.3-3.6,16.8-0.1,20.7,6.9c1.3,2,1.6,4.4,2,6.7
		c-1.8,0.4-3.7,0.8-5.5,1.1c-0.4-2.4-0.6-5.1-2.3-7c-2-2.4-6.1-4-8.8-1.8c-2.2,1.7-4.1,5.1-2.2,7.7c2.1,3.8,6,6.1,8.6,9.5
		c1.9,2.4,3.3,5.4,3.4,8.6c-0.3,4.8-2.7,9.7-7,12.2c-5.1,3.1-11.7,2.4-16.7-0.5c-4.6-2.2-8-6.9-8.1-12c1.9-0.3,3.7-0.7,5.6-1.1
		c0.4,3.4,1.8,7,5.2,8.4c4.2,2.4,10.2-1.1,9.9-6c0.3-3.2-2.3-5.5-4.4-7.5c-2.6-2.7-5.8-5.1-7.3-8.7
		C466.2,38.1,469.6,30.5,475.6,27.7 M320.1,63.4c51.9-3,104.4,6,152.2,26.4c41.3,17.5,79.1,43.4,110.4,75.5
		c32.4,33.1,58,73,74.5,116.4c17.2,45,24.6,93.8,21.6,141.8c-2.4,37-10.7,73.6-24.8,107.9c-25.4,62-69.7,116.1-125.4,153.3
		c-51.6,34.8-113,54.8-175.2,57.2c-68.9,3-138.5-15.8-196.4-53.1c-64.4-41-114.3-104.2-138.7-176.4c-21.4-62-24.1-130.3-7.7-193.8
		c15.1-59.7,47-114.9,90.9-158c45.6-45.1,104.3-76.9,167-90.2C285.5,66.7,302.8,64.4,320.1,63.4 M321.5,74.7
		c-60.7,3.3-120.3,23.9-170,59c-42.9,30-78.5,70.5-102.7,116.9C29.1,288,16.8,329.3,12.8,371.5c-4.1,41.6,0.2,84,12,124.1
		C40.7,549.4,70.7,598.9,111,638c28.6,27.8,62.2,50.3,98.8,66.1c37.4,16.2,77.9,25.2,118.7,26.7c43.9,1.5,88-5.9,129-21.7
		c38.1-14.6,73.3-36.5,103.5-64c28.6-26.1,52.6-57.3,70.3-91.7c19.7-37.8,31.8-79.5,35.5-121.9c4.1-45.4-1.6-91.7-16.3-134.9
		c-16.7-48.7-44.9-93.4-81.9-129.2c-28.6-28.1-62.5-50.7-99.3-66.5C422.9,80.9,371.9,71.8,321.5,74.7 M520.4,73.4
		c30.7,16.9,59,38.1,84,62.7c-0.9,1.4-1.9,2.8-2.9,4.2c-25-24.4-53.1-45.7-83.7-62.4C518.6,76.3,519.5,74.8,520.4,73.4 M258.4,99.3
		c14.2-2.7,28.4-5.6,42.5-8.6c1.1,4.5,1.9,9.1,2.8,13.7c-7.3,1.6-14.6,3.2-21.9,4.3c0.4,3.9,1.3,7.7,2.2,11.5
		c6.9-1.7,13.8-2.9,20.7-4.3c1,4.5,1.7,9.1,2.8,13.5c-6.9,1.7-13.8,2.9-20.8,4.2c0.6,4.4,1.6,8.7,2.5,13c7.6-1.3,15-3.5,22.7-4.1
		c0.5,4.5,1.9,8.9,2.4,13.5c-14.3,2.7-28.6,5.7-42.8,8.6C267.1,142.9,262.6,121.1,258.4,99.3 M262.4,101.9
		c3.6,19.7,7.8,39.2,11.8,58.8c12.1-2.5,24.2-4.9,36.4-7.4c-0.4-2.4-0.9-4.8-1.5-7.2c-7.5,1.3-15,3.1-22.5,4.5
		c-1.2-6.5-2.7-13-3.9-19.5c6.8-1.4,13.6-2.7,20.4-4.1c0.7-2.2-0.8-4.9-0.8-7.2c-7.1,1.1-14,2.9-21.1,4c-1.1-5.9-2.4-11.7-3.4-17.6
		c7.4-1.4,14.8-2.8,22.1-4.5c-0.5-2.4-0.9-4.8-1.5-7.2C286.4,97.2,274.4,99.6,262.4,101.9 M396.9,99.8c10.8-7,26.8-3.2,33.5,7.7
		c2.3,3.5,3.1,7.7,3.9,11.8c-4.6,1.6-9.3,3.3-14,4.5c-0.6-2.8-0.9-5.7-2-8.4c-1-2.3-3.4-3.7-5.8-4c-2.5,0.2-3.6,2.9-4.2,5
		c2.7,4.1,7.2,6.2,10.8,9.4c3.2,2.8,6.3,6,7.9,10c2.3,6,1.3,12.9-1.7,18.5c-3.2,5.9-9.4,9.6-15.8,10.7c-9.4,1.3-19.9-2.1-25.8-9.9
		c-2.5-3.3-3.4-7.4-4.8-11.1c4.4-2.4,9.3-3.8,13.9-6c1.3,3.1,2.1,6.4,3.9,9.2c1.4,2.2,4.3,2.9,6.7,2.4c2.9-1,4.5-5,2.4-7.5
		c-2.6-3.1-6.2-5.1-9.4-7.6c-3.6-2.8-6.9-6.3-8.4-10.7C385.2,115.2,388.9,104.7,396.9,99.8 M395.3,105.4c-5.5,5.7-6.7,15.6-1.6,21.9
		c3.9,5.2,10.4,7.6,14.5,12.6c3,3.5,2.1,9.9-2.1,12.1c-4.1,2.4-9.7,0.9-12.3-2.9c-1.4-2-2-4.3-2.8-6.5c-2.7,1-5.3,2.1-7.9,3.2
		c0.8,3.1,2.1,6.2,4.3,8.7c3.9,4.3,9.5,6.6,15.2,7.4c6.7,0.8,14.1-1.5,18.3-7c3.8-5,5-12,3-17.9c-1.7-4.3-5.2-7.5-8.8-10.2
		c-3.2-2.5-6.8-4.5-9-7.9c-1.9-3.1-0.3-7.1,2.3-9.2c3.1-2.5,7.9-1.3,10.6,1.3c2.4,2.2,3.1,5.6,3.8,8.6c2.5-0.8,5.1-1.6,7.6-2.5
		c-1.1-9.3-9.7-16.7-18.9-17.4C405.6,99.1,399.3,100.9,395.3,105.4 M140.5,159.5c8.5-4.9,19.1-5,28.2-1.8c-0.2,4.5-2.1,9-2.8,13.6
		c-4.5-0.7-8.9-2.1-13.5-1.8c-5.3,0.6-9.4,5.1-11,10c-1.1,5,1,10.1,3.8,14.2c3.3,4.7,7.3,9,12.5,11.5c3.6,1.8,8.1,2.2,11.8,0.5
		c4.4-2.4,7.5-7.1,7.9-12.1c0.5-3.9-1.5-7.5-2.4-11.1c4.6-1.1,9.1-2.4,13.6-3.6l0.6,0.3c2.9,7.6,3.8,16.4,0.8,24.1
		c-4.4,10.9-14.8,19.3-26.4,20.9c-5.4,0.5-11,0.5-16.2-1.4c-14.2-4.7-24.4-19.3-23.9-34.2C123.3,176.7,130.4,165.4,140.5,159.5
		 M147.3,160.2c-10,3.2-17.6,12.2-19.9,22.4c-2.1,9.2,0.6,19.2,6.4,26.6c5.7,7.6,15.2,12.2,24.7,12c13.2,0.2,26-9.3,29.4-22.1
		c1.3-5.4,0.7-11.1-0.9-16.3c-2.5,0.7-5.1,1.5-7.6,2.2c0.6,2.2,1.2,4.5,1.4,6.8c0.5,7.8-4.8,15.7-12.3,18c-4.4,1.3-9,0.2-13-1.8
		c-5.6-2.8-10-7.6-13.4-12.8c-2.5-4-4.6-8.7-4.3-13.5c0.4-5.7,4.2-10.8,9-13.7c5.1-2.7,11.1-1.4,16.5-0.4c0.6-2.4,1.1-4.8,1.7-7.2
		C159.3,158.4,153,158.4,147.3,160.2 M321.1,169.2c40.4-3.2,81.5,4.3,118.2,21.6c29.7,14,56.4,34.3,77.8,59.2
		c31.4,36.3,51.3,82.6,55.7,130.5c0.7,5.7,0.6,11.4,1.1,17.1c0.5,7-0.4,14-0.5,21c-1.5,20.6-5.6,41-12.4,60.5
		c-17.5,51-53.4,95.3-99.5,123.3c-43,26.5-94.8,38.2-145,33.1c-52.6-5.1-103.2-28.9-140.7-66.2c-24.6-24-43.7-53.5-55.6-85.7
		c-10.4-28.4-15.5-58.8-14.3-89c1.7-55.7,24.4-110.5,62.6-151.1c25.7-27.9,58.4-49.2,94.1-61.8C281.4,175,301.1,171,321.1,169.2
		 M323,176.3c-38.8,2.8-76.8,15.9-109.1,37.6c-34.1,22.6-61.7,54.7-79.3,91.7c-19.7,41.4-26.4,88.9-18.8,134.1
		c7.7,47.3,31,91.8,65.4,125.1c27,26.5,60.8,46.1,97.3,56.3c47.1,13.3,98.5,10.8,144-7.3c37.1-14.5,70.2-39.1,94.9-70.3
		c29.6-37,47.1-83.6,49.1-130.9c0.1-10.7,0.4-21.4-0.9-32c-4.2-44.4-22.1-87.3-50.4-121.7c-24.1-29.5-55.7-52.7-91.1-66.9
		C392.2,179.1,357.3,173.7,323,176.3 M511.8,191.8c4.2-2.5,8.7-4.6,13-6.9c-1.6,4.6-3.4,9.1-4.8,13.8
		C517.2,196.5,514.6,194.1,511.8,191.8 M431.8,286.2c6.3,0,12.9-2.9,15.8-8.7c0.8,7.4-3.8,15-10.9,17.3c-2.8,0.8-5.7,0.9-8.5,0.5
		c-3.3-0.9-6.6-2.5-8.9-5.2c-0.6-0.8-1.3-1.7-1.9-2.5c1.3-1.7,2.6-3.4,3.9-5.1C424.5,284.6,428,286.1,431.8,286.2 M57.4,305.9
		c6.2-2.9,13.6-3.6,20-1.4c-4.8,0.3-9.4,1.9-13.1,5c-2.2-0.9-4.4-1.7-6.6-2.6C57.7,306.7,57.5,306.2,57.4,305.9 M66.4,310.9
		c4.1-3.6,9.9-4.4,15.2-3.9c4.4,0.3,7.3,4.2,10.1,7.2c-3.9-1.1-8-2.1-12.1-1.5c-2.4,0.3-4.5,1.5-6.8,2.1
		C70.5,313.6,68.5,312.2,66.4,310.9 M595.5,307.5c5.9-1.5,12.8-0.7,17.6,3.3c-2.2,1.3-4.3,2.7-6.5,4.1c-5.9-3.2-12.8-2.7-19-0.7
		C590,311.8,592.3,309,595.5,307.5 M46.4,315.5c2-2.6,4.1-5.3,7-7c6.3,0.4,11.7,4,16.9,7.3c3.9,2.8,8,5.2,11.9,7.9
		c-1.4,3-2.8,5.9-4.1,8.9C67.5,327,57.7,319.7,46.4,315.5 M612.5,313.7c4.1-2.6,8.8-5.1,13.8-5c2.8,1.7,4.8,4.3,6.7,6.9
		c-11.2,4.3-21.1,11.3-31.5,17.3c-1.4-3-2.8-6.1-4.2-9.1C602.4,320.4,607.4,317,612.5,313.7 M75.3,315.9c6-2,12.7-1.3,18.2,1.5
		c1.3,1.5,1.7,3.6,2.6,5.5c-4-0.9-8.2-0.6-12.3-0.8C80.9,320.2,77.3,318.8,75.3,315.9 M585.6,317.5c5.9-2.7,12.8-3.8,18.9-1.2
		c-2.9,2.1-5.8,4.3-9.1,5.8c-4.1,0.2-8.2-0.1-12.2,0.9C584.1,321.2,584.9,319.3,585.6,317.5 M42.8,323.5c0.5-2.1,1.3-4.3,2.6-6
		c7.4,2.4,14,6.6,20.6,10.5c3.7,2.3,7.5,4.5,11.1,6.9c-0.8,1.9-1.7,3.8-2.5,5.8c-10.6-2.9-21.5-6.2-30-13.5
		C43.7,326.3,42,325.2,42.8,323.5 M602.3,334.9c10.4-6.3,20.5-13.2,32-17.5c1.1,2.4,2,4.9,2.8,7.5c-2,2.2-4.1,4.2-6.6,5.8
		c-7.9,5-16.8,7.9-25.7,10.2C603.9,338.8,603.1,336.8,602.3,334.9 M72.1,352.8c4.2-9.4,7.5-19.3,12.2-28.5c1.6,0,3.3,0,4.9,0
		c-0.4,6.9-1.8,13.8-5,20c-2.2,4.5-5.2,8.5-8.3,12.4C74.5,355.6,73.1,354.3,72.1,352.8 M91.3,324.4c1.8,0.3,3.5,0.6,5.3,1
		c1.4,7,0.1,14.6-3.8,20.6c-3.4,5.3-8.6,9.2-14.5,11.4c3.1-4.3,6.4-8.6,8.5-13.6C89.7,337.7,91.1,331.1,91.3,324.4 M582.9,325.8
		c1.4-1.2,3.5-1,5.2-1.3c0.2,12.1,5.5,23.6,13.1,32.9c-7.8-2.8-14.5-8.9-17.2-16.8C582.4,335.8,581.5,330.6,582.9,325.8
		 M590.3,324.3c1.7,0,3.3,0.1,5,0.2c4.6,9.4,8.4,19.2,12.1,29c-1.3,1.1-2.6,2.2-3.9,3.2C595.6,347.7,590.5,336.3,590.3,324.3
		 M41.8,327.6c8.9,8.1,20.6,12.2,32.1,15.1c-1.2,3.2-2.4,6.5-4,9.5c-5.1-1.7-10.5-2.6-15.4-4.9c-4.5-2-9.1-4.8-11.5-9.2
		C41.4,334.9,41.8,331.1,41.8,327.6 M605.4,342.7c11.5-2.9,23.3-6.8,32-15.2c0.2,3.2,0.4,6.4-0.5,9.5c-1.1,2.6-3.1,4.9-5.4,6.6
		c-6.5,4.8-14.6,6.5-22.3,8.5C608,349,606.8,345.8,605.4,342.7 M621.9,350.9c1.9-0.8,3.9-1.6,5.8-2.4c-0.7,1.9-1.3,4-2.6,5.6
		c-2.1,1.7-4.7,2.5-7.2,3.4C619.6,355.6,620.9,353.3,621.9,350.9 M51.6,348.6c2,0.7,3.9,1.4,5.9,2.2c1.1,2.5,2.5,4.8,4.2,7
		c-2.4-1-4.8-2.1-7.2-3.2C53.4,352.5,52.5,350.6,51.6,348.6 M60.3,351.8c3.4,1,6.9,1.6,10.2,2.9c1.5,1,2.6,2.5,3.8,3.8
		c-2.9,0.2-5.7,0.2-8.6,0C63.6,356.5,61.5,354.4,60.3,351.8 M609.5,354.4c3.2-1,6.5-1.7,9.8-2.7c-1.5,2.6-3.5,4.8-5.7,6.8
		c-2.7,0.1-5.4,0.1-8.2,0C606.5,356.9,607.6,355.1,609.5,354.4 M61.5,443.7c4.6-1.3,9.3,0.8,13.9,0.6c3.4,0,7.7,0,9.8,3.1
		c0.6,2.3-0.3,4.6-1.4,6.6c-2,3.3-4.6,6.1-7.3,8.8c-1.1-0.4-2.1-0.8-3.2-1.2c-0.5-2.7-0.9-5.5-1.4-8.2c-2.1,1.6-1.9,4.6-3,6.8
		c-0.4,1.5-2.4,1.3-3.5,1.9c-2.6-4.2-5.8-8.4-6.5-13.4C58.5,446.6,59.6,444.3,61.5,443.7 M612.8,443.8c3.6-0.5,8.2-1.5,10.8,1.7
		c1.3,6.2-3.2,11.4-6.2,16.3c-1.2-0.5-3.2-0.2-3.6-1.8c-1.1-2.2-1-5.1-3-6.9c-0.6,2.8-1,5.5-1.3,8.3c-1.4,0.2-3.4,1.9-4.4,0.1
		c-3.1-3.3-6.3-6.7-7.7-11.1c-0.9-2.2,0.5-4.6,2.7-5.4C604.2,443.7,608.7,444.8,612.8,443.8 M48.5,451.5c1.6-1.3,4-0.7,5.5,0.5
		c3.8,3.1,5.9,7.5,8.3,11.7c-1.1,1.1-2.2,2.3-3.3,3.4c-2.7-0.8-5.5-1.3-8.4-1.3c2,2.3,4.6,4,7.1,5.7c-0.1,0.7-0.3,2.1-0.4,2.8
		c-4.7,1.2-9.5,2.6-14.4,1.8c-2.1-0.3-3.8-2.4-3.4-4.5c0.4-4.2,3.2-7.5,4.4-11.4C45,457,45.8,453.5,48.5,451.5 M628.9,452
		c1.7-1.5,4.5-1.6,6.1,0c2.7,3.1,3.4,7.3,5.1,10.9c1.2,2.4,2.5,4.8,3.1,7.5c0.8,2.3-0.6,5.3-3.2,5.7c-4.9,0.8-9.8-0.6-14.6-1.8
		c0-0.7,0-2.1,0.1-2.8c2.1-2.1,5-3.3,6.7-5.7c-2.7,0-5.4,0.5-8.1,1.3c-1.2-1-2.4-2.1-3.5-3.2C622.8,459.5,625.1,455,628.9,452
		 M89.2,455.2c1.8-1.1,4.4-1.2,5.9,0.4c1.7,2.3,2.3,5.2,2.6,8c0.4,4.1,2.5,7.8,2.7,11.9c0.2,2-0.7,4.6-3,5
		c-5.4,0.9-10.4-2.1-15.3-4.1c0-0.7,0-2.1,0-2.7c2.4-1.6,6.2-1.9,7.3-4.7c-2.7,0-5.4,0-8,0c-0.7-1.3-1.5-2.6-2.2-3.9
		C82.4,461.5,85.2,457.7,89.2,455.2 M587.2,456.3c1.1-2.1,4-2.5,5.9-1.3c4.4,2.3,7.3,6.4,10.4,10c-0.7,1.3-1.4,2.6-2.1,3.9
		c-2.5,0-5.1-0.2-7.6,0.1c-0.2,0.2-0.7,0.7-0.9,1c2.6,1.2,5.2,2.4,7.7,3.6c0,0.6,0,2,0,2.6c-4.2,2-8.5,4.2-13.2,4.5
		c-1.8,0-4-0.6-4.6-2.4c-1.2-3.6,0.5-7.3,1.5-10.7C585.3,463.8,585.1,459.7,587.2,456.3 M66.6,466.8c2.7-1.2,6.1-0.8,8.3,1.3
		c2,1.7,2.6,4.6,2.1,7c-0.7,3.4-4.1,5.9-7.5,5.6c-4.2-0.1-7.5-4.3-6.9-8.3C63,470.1,64.5,467.8,66.6,466.8 M609.7,466.9
		c2.6-1.3,6-0.8,8.2,1.2c3.1,2.6,3.1,8.1-0.1,10.8c-2.4,2.4-6.5,2.5-9.2,0.4C604.3,476.5,604.9,468.9,609.7,466.9 M624.8,477.7
		c4.7,1,9.7,1.7,13.6,4.6c2,1.4,2.2,4.3,0.9,6.2c-2.4,3.6-6.6,5.3-9.4,8.6c-2.4,2.5-5.5,5.5-9.3,4.8c-1.8-0.7-2.7-2.6-3.3-4.3
		c-1.1-3.3-1.3-6.7-1.5-10.1c-0.8-1.9,1.5-2.3,2.6-3.1c2.8,1.8,5.3,4,8.3,5.4c-0.8-3.2-2.6-5.9-4-8.8
		C623.4,480,624.1,478.8,624.8,477.7 M44.8,481.9c3.9-2.4,8.5-3.4,13-4.1c1,0.9,1.8,2.2,2.1,3.5c-1.2,2.9-3.2,5.4-3.9,8.5
		c2.7-1,4.8-3,7.1-4.6c1.2-1.2,2.8,0.3,4,0.4c-0.5,4.7-0.3,9.7-2.6,14c-0.8,1.5-2.4,2.7-4.2,2.4c-3.4-0.4-5.7-3.2-8-5.4
		c-2.9-3.1-7.1-5-9.3-8.8C42.2,485.7,42.9,483.1,44.8,481.9 M80.8,479.6c4.6,1.9,9.8,3.4,13.1,7.4c1.3,1.4,1.3,3.7,0.1,5.1
		c-2.8,3.5-7.4,4.4-10.8,7.1c-2.8,2-6,4.5-9.7,3.9c-2-0.6-2.7-2.8-3.1-4.6c-0.6-3.6-0.3-7.3,0.1-11c-0.2-1.7,1.7-2.4,3.1-2
		c2.7,1.8,4.2,5.1,7.3,6.3c-0.6-3-1.6-5.9-2.7-8.7C79,481.9,79.9,480.8,80.8,479.6 M589.3,486.4c3.4-3.5,8.3-5,12.8-6.8
		c0.8,1.2,2.3,2.1,2.4,3.7c-0.7,2.9-1.9,5.6-2.4,8.6c3-1.5,4.7-4.4,7.3-6.3c0.7,0,2.1,0.1,2.8,0.1c0.5,4.6,1.3,9.3,0.2,13.9
		c-0.5,2.1-2.5,4.2-4.9,3.6c-4.4-0.6-7.5-4.2-11.3-6.1c-2.8-1.4-5.9-2.8-7.6-5.5C587.4,489.9,588,487.7,589.3,486.4 M525.6,735.6
		c36.3-20.5,69.4-46.8,97.1-78c1.2,1.2,2.5,2.4,3.7,3.6c-12.5,13.2-25.3,26.2-39.4,37.8c-20.7,17.5-43.3,32.6-67.1,45.4
		c-0.7-1.4-1.5-2.9-2.3-4.3C520.2,738.4,522.9,737,525.6,735.6 M338.6,665.9c3.9-0.1,7.9-0.2,11.8-0.4c0.6,9.5,0.9,19,1.1,28.5
		c4.3-0.1,8.5-0.2,12.8-0.3c0,3.2,0,6.3,0.1,9.5c-8.3-0.1-16.6,0.6-24.9,1c0-6.5,0.1-13.1,0-19.6C339,678.3,338.8,672.1,338.6,665.9
		 M340.5,668.3c-0.1,11,0.7,22,1.1,33c6.8-0.2,13.6-0.3,20.4-0.8c-0.1-1.5-0.2-2.9-0.3-4.4c-4.1,0.1-8.3,0.4-12.4,0.6
		c-0.4-9.6-0.8-19.2-1.3-28.8C345.5,668.1,343,668.1,340.5,668.3 M310.6,688c1.1-2.5,2.3-4.9,3.4-7.4c0.8,2.7,1.6,5.3,2.5,7.9
		C314.6,688.3,312.6,688.1,310.6,688 M487.5,731.5c1.6-1.6,4.3-1.9,6.3-2.9c-1.7,7.9-3.4,15.9-5,23.8c-0.5,1.4,0.1,2.9,0.6,4.2
		c2.4,6,4.8,11.9,7.1,17.9c-3,1.2-5.9,2.4-8.9,3.5c-2.6-6.4-5.1-12.7-7.7-19.1c-7.5-5.3-15.1-10.4-22.4-15.9c3.6-1.2,7-2.8,10.6-4.1
		c5.1,3.7,10.1,7.4,15.4,10.9C485.1,743.6,486.1,737.5,487.5,731.5 M182,746c4.7-7.4,13.9-11.4,22.4-9.9c8.7,1,15.8,8.2,17.6,16.6
		c-1.5,0.4-3,0.8-4.4,1.2c-0.9-3.3-2-6.7-4.4-9.2c-2.2-2.4-5.6-3.5-8.8-3.8c-4.3-0.2-8.5,2.2-11,5.6c-4.6,6-7.4,14-5.4,21.5
		c1.6,5.7,7.7,9.4,13.5,8.8c3.8-0.1,7.1-2.4,9.9-4.8c1,1.2,2.5,2,3,3.5c-3.9,4.3-10,6.7-15.8,6c-7.2-0.8-14.3-4.9-17.8-11.4
		C176.4,762.8,177.1,753,182,746 M228.6,745.5c8.5,2.4,16.9,4.8,25.4,7.1c-0.3,1.3-0.6,2.7-0.9,4c-5.7-0.6-11-2.9-16.5-4.1
		c-1.3,4.5-2.5,9.1-4,13.6c5,1.9,10.2,3,15.4,4.5c-0.4,1.4-0.8,2.9-1.3,4.3c-5-1.5-10.1-2.8-15.2-4.3c-1.5,5-2.8,10.2-4.3,15.2
		c5.4,1.8,11,3.1,16.5,4.7c-0.4,1.4-0.8,2.8-1.1,4.2c-8.6-2.3-17.1-4.8-25.7-7C220.6,773.5,224.7,759.5,228.6,745.5 M429.8,751.1
		c7-1.9,13.7-4.4,20.8-5.9c7.9-1.2,14.8,7,13.7,14.5c-0.7,3.8-4,6.3-7.1,8.1c5,5.6,10.9,10.4,16.1,15.9c-3.3,1-6.6,1.9-9.9,3.1
		c-6.3-5.8-12.1-12-18.1-18.1c1.2,7.4,4.3,14.4,5.9,21.7c-3.1,0.7-6.1,1.7-9.1,2.6C438,779.1,433.7,765.1,429.8,751.1 M439.9,752.1
		c1.7,5.3,3.1,10.6,4.8,15.9c3.8-1.1,8.3-2.5,9.9-6.5c0.9-4.1-1-9.3-5.2-10.7C446.2,749.9,442.9,751.2,439.9,752.1 M408.7,753
		c9.3,13.8,18.4,27.7,27.5,41.7c-3.2,0.6-6.5,1.2-9.7,1.9c-2.2-3.3-4.3-6.7-6.7-9.9c-4.3,0.9-8.5,1.7-12.8,2.5
		c-0.7,3.8-1.5,7.5-2,11.3c-1.8,0.6-3.7,1-5.5,1.4C402.5,785.5,405.6,769.2,408.7,753 M407.8,784.5c3.2-0.6,6.4-1.2,9.6-1.7
		c-2.2-3.9-4.7-7.6-7.2-11.3C409.5,775.9,408.7,780.2,407.8,784.5 M258.6,753.9c2.9,0.3,5.8,0.8,8.6,1.5c3,6.5,6.5,12.7,9.7,19.1
		c2,3.7,3.7,7.5,6,11c1.4-8.9,3-17.8,4.6-26.7c1.6,0.3,3.3,0.5,5,0.8c-2.7,14.4-4.9,28.8-7.7,43.1c-1.6-0.3-3.1-0.6-4.6-1
		c-6.2-11.7-12-23.7-18.4-35.3c-2,10.3-3.7,20.7-5.4,31.1c-1.7-0.3-3.3-0.5-5-0.8C253.6,782.5,256.4,768.3,258.6,753.9 M384.1,759.6
		c1.6-0.1,3.3-0.2,5-0.4c1.4,14.5,2.8,28.9,3.9,43.4c-1.5,0.2-3,0.3-4.5,0.3c-2.3-1.8-4-4.2-6-6.3c-7.1-7.7-14.1-15.5-21.3-23.1
		c0.9,10.7,2.2,21.3,2.7,32c-1.6,0-3.3,0-4.9,0c-1-14.4-2.7-28.8-3.8-43.2c2.7-0.2,5.4-0.7,8.2-0.7c2.4,2,4.2,4.5,6.3,6.8
		c5.6,6.1,11.2,12.2,16.8,18.4C385.9,777.7,384.9,768.6,384.1,759.6 M295.3,759.9c8.8,0.7,17.5,1.2,26.3,2.3
		c-0.1,1.4-0.2,2.8-0.4,4.2c-2.8-0.2-5.6-0.4-8.4-0.6c-1,13-2.2,26-3.2,39c-3.2-0.2-6.3-0.5-9.5-0.7c0.9-13.1,2.3-26.1,3.1-39.2
		c-2.8-0.2-5.6-0.2-8.4-0.9C295,763,295.2,761,295.3,759.9 M324.8,762c8.4,0.5,16.9,0.2,25.4,0.3c0,1.5,0,2.9,0,4.4
		c-5.4,0-10.7-0.1-16,0.1c0,4.8,0,9.5,0,14.3c5,0,10,0.4,15,0.2c0,1.5,0,2.9,0,4.4c-5-0.2-10-0.3-15-0.2c0,5.3,0,10.7,0,16
		c5.3,0,10.7,0,16,0c0,1.5,0,2.9,0,4.4c-8.6,0.1-17.1-0.1-25.6-0.2C324.2,791.1,324.9,776.6,324.8,762 M406,816.5
		c4.2-0.6,8.4-1.4,12.5-2.1c0.1,0.9,0.4,2.5,0.5,3.4c-2.4,0.5-4.8,0.9-7.3,1.3c0.2,1,0.5,2.9,0.7,3.9c1.8-0.1,3.7-0.4,5.5-0.1
		c2,0.9,3.6,3.4,2.6,5.6c-1.5,3.8-3.5,7.4-5.2,11.1c-2.1,0.3-4.2,0.6-6.3,0.9c2.1-4.6,4.6-9,6.4-13.8c-2.6-0.2-5.2,0.2-7.8,0.6
		C407.2,823.7,406.6,820.1,406,816.5 M267.1,815.9c2.7,0,5.4,0.3,8.1,0.5c-1.4,8.2-2.7,16.4-4.2,24.5c-1.7-0.3-3.3-0.6-5-0.8
		c0.9-7.1,2.2-14,3.4-21c-0.7,0-2-0.1-2.7-0.1C266.8,818.2,267,816.7,267.1,815.9 M392.9,818.1c3.6-1,7.6,0.3,9.7,3.5
		c3.4,4.8,3.1,11.6,0.6,16.7c-2.6,5.3-10.6,6.4-14.5,2.1c-3.4-4-3.8-9.7-2.6-14.6C386.8,822.2,389.3,818.9,392.9,818.1 M392.8,821.7
		c-2.9,4-2.1,9.5-0.5,13.9c0.8,2,2.4,5.3,5.1,3.7c2.8-3.2,2.3-8,1.6-11.9c-0.7-2.6-1.6-5.8-4.5-6.6
		C394,821.1,393.2,821.5,392.8,821.7 M280.5,819.6c3.2-2.5,8.4-2.4,11.1,0.9c2.3,2.8,1.9,6.9,0.1,9.9c-2.5,4-5.1,8-7.5,12.1
		c-1.9-0.2-3.8-0.5-5.6-0.7c1.7-2.9,3.4-5.8,5.2-8.6c-2.1-0.5-4.5-0.8-5.7-2.8C275.9,827,277.2,822,280.5,819.6 M283.3,822.6
		c-1.1,1.8-0.8,4.1-1,6.1c0.6,0.6,1.3,1.1,2.1,1.6c3.2-0.9,3.8-4.9,3.2-7.7C287.1,820.5,284,820.7,283.3,822.6 M302.9,820.1
		c3.5-0.8,7.6,0.3,9.6,3.4c3.7,5.8,1.9,13.7-2.3,18.7c-3.7,3.9-11.2,3.6-14-1.3c-2.6-4.2-2.2-9.5-0.4-13.9
		C297,823.9,299.4,820.7,302.9,820.1 M303.6,823.5c-3.4,3.7-4,9.4-3,14.2c0.5,1.6,0.9,4,2.9,4.1c1.6,0.1,2.6-1.5,3.3-2.7
		c2-4.2,2.3-9.3,0.9-13.7C307.3,823.5,305.2,821.9,303.6,823.5 M370.9,820.1c4.9-1.7,10.3,1.6,11.6,6.5c1.2,4.9,1,10.7-2.1,14.9
		c-2.8,3.8-8.9,4.8-12.5,1.7c-2.9-2.2-4.1-6-4.3-9.5C363.3,828.4,365.3,821.9,370.9,820.1 M371.5,823.4c-3.2,4.3-2.7,10.4-0.8,15.2
		c0.7,1.5,1.8,3.9,3.9,2.8c2.3-0.9,2.8-3.6,2.9-5.8c0.3-4.2,0-9-3-12.3c-0.5-0.1-1.5-0.3-2-0.4L371.5,823.4 M346.5,824.5
		c3-5.2,12-5,14.6,0.5c1.1,2.4,0.8,5.2-0.4,7.5c-1.8,3.4-4.1,6.4-6.2,9.6c2.8-0.1,5.6-0.3,8.4-0.2c-0.1,0.8-0.2,2.3-0.3,3
		c-5.6,1-11.4,0.6-17.1,0.8c3.3-5.6,7.6-10.7,10.6-16.4c1.6-2.9-1.8-6-4.6-4.7c-2.5,0.7-2.3,3.7-2.3,5.8c-1.2-0.1-2.3-0.1-3.5-0.2
		C345.8,828.2,345.6,826.2,346.5,824.5 M318.3,821.1c4.2,0.3,8.4,0.2,12.6,0.5c0,0.9,0,2.6,0,3.4c-2.5-0.1-4.9-0.2-7.4-0.3
		c0,1.3,0,2.7-0.1,4.1c2.6,0.2,5.5,0.4,7.3,2.7c-0.2,1.7,0.1,3.7-1.1,5.2c-2.1,3-4.6,5.8-6.6,8.9c-2.2,0-4.4-0.2-6.6-0.4
		c3-4,6.2-8,9-12.1c-2.3-1.2-5-1-7.5-1C318,828.5,318.3,824.8,318.3,821.1 M333.5,837.8c3.3-1.5,6.2-3.7,9.4-5.4c0,1.6,0,3.2,0,4.9
		c-3.2,1.7-6,4.1-9.4,5.5C333.5,841.1,333.5,839.4,333.5,837.8L333.5,837.8z"/>
	<path class="st2" d="M74,125.1c25.5-24.4,54.4-45.2,85.6-61.8c0.7,1.5,1.4,2.9,2.1,4.4c-31,16.7-59.9,37.4-85.3,61.9
		c-1.7,1.7-3.4,3.4-5.2,5c-1-1.2-2-2.4-3-3.5C69.9,128.8,72,127,74,125.1 M524.6,66c31.2,17,60,38.5,85.3,63.5
		c-1,1.3-2.1,2.6-3.1,3.8c-25-24.8-53.6-46.1-84.5-63.1C523,68.8,523.8,67.4,524.6,66 M73.4,137.5c26.6-26.3,56.8-49,89.9-66.4
		c0.7,1.6,1.3,3.2,2,4.8c-32.7,17.2-62.5,39.7-88.7,65.7C75.5,140.2,74.5,138.9,73.4,137.5 M602.4,304.2c6.3-1.5,13.2-1.3,19.1,1.5
		c0.3,0.3,0.8,0.8,1.1,1.1c-2.6,0.7-5.2,1.7-7.7,2.8C611.5,306.3,606.8,305.5,602.4,304.2 M528.3,596.5c1.5-1.4,3-3.2,5.1-3.6
		c2.5-0.6,4.6,1.6,5.5,3.7c0.7,2.9-1.8,5.1-3.9,6.7C532.6,601.3,530.5,598.8,528.3,596.5 M531.7,596.5c1.1,1.2,2.2,2.4,3.3,3.6
		c1.8-1.3,2-4.5-0.6-4.9C533.7,595.5,532.4,596.2,531.7,596.5 M514.1,731.7c38.5-20.3,72.9-47.7,102.2-79.8c1.2,1.1,2.5,2.1,3.7,3.1
		c-2.9,3.8-6.4,7-9.5,10.5c-25.6,26.3-54.9,49.1-87,67c-2.4,1.4-4.9,2.8-7.5,4C515.3,734.9,514.7,733.3,514.1,731.7 M64.8,661.1
		c1.2-1.2,2.5-2.3,3.7-3.5c27,28.7,58.5,53.2,93.1,72.1c-0.9,1.5-1.7,3-2.6,4.5C124.1,715,92.1,690.3,64.8,661.1 M58.6,666.8
		c1.2-1,2.4-2.1,3.6-3.2c27.5,29.4,59.6,54.4,95,73.7c-0.7,1.4-1.5,2.8-2.2,4.3c-0.8-0.4-1.6-0.7-2.4-1.1
		c-29.9-16.6-57.5-37.3-82-61.1C66.6,675.2,62.3,671.3,58.6,666.8L58.6,666.8z"/>
	<path class="st3" d="M321.5,74.7c50.4-2.9,101.4,6.2,147.7,26.2c36.8,15.9,70.8,38.4,99.3,66.5c37,35.8,65.2,80.5,81.9,129.2
		c14.7,43.2,20.4,89.5,16.3,134.9c-3.7,42.4-15.8,84.1-35.5,121.9c-17.7,34.4-41.8,65.5-70.3,91.7c-30.1,27.5-65.4,49.4-103.5,64
		c-41,15.8-85.1,23.2-129,21.7c-40.8-1.4-81.3-10.4-118.7-26.7c-36.6-15.8-70.2-38.3-98.8-66.1c-40.3-39-70.3-88.6-86.2-142.4
		c-11.8-40.1-16.1-82.5-12-124.1c4-42.1,16.2-83.4,35.9-120.9c24.3-46.4,59.8-86.8,102.7-116.9C201.2,98.7,260.8,78,321.5,74.7
		 M328.7,88.9c0.1,6.6-0.2,13.1-0.2,19.7c-0.8,15.6-0.7,31.2-1,46.8c14.1,0,28.2,1,42.3,0.8c0-4.9,0.4-9.7,0.3-14.6
		c-5.9,0.3-11.7-0.6-17.6-0.4c-1.7-0.1-3.4,0.2-5-0.4c0.4-11.4,0.6-22.8,0.8-34.2c0-5.8,0.5-11.7,0-17.5
		C341.7,89.4,335.2,88.8,328.7,88.9 M258.4,99.3c4.2,21.8,8.7,43.5,13.1,65.3c14.3-2.8,28.5-5.9,42.8-8.6c-0.5-4.6-1.8-9-2.4-13.5
		c-7.7,0.6-15.1,2.9-22.7,4.1c-0.9-4.3-1.8-8.6-2.5-13c6.9-1.3,13.9-2.6,20.8-4.2c-1.1-4.5-1.8-9-2.8-13.5
		c-6.9,1.3-13.9,2.6-20.7,4.3c-0.9-3.8-1.8-7.6-2.2-11.5c7.4-1.1,14.7-2.7,21.9-4.3c-0.9-4.6-1.8-9.2-2.8-13.7
		C286.7,93.7,272.6,96.6,258.4,99.3 M396.9,99.8c-7.9,4.9-11.7,15.4-8.8,24.2c1.5,4.4,4.8,7.8,8.4,10.7c3.1,2.5,6.8,4.4,9.4,7.6
		c2.1,2.5,0.5,6.5-2.4,7.5c-2.4,0.5-5.3-0.3-6.7-2.4c-1.8-2.8-2.6-6.1-3.9-9.2c-4.6,2.1-9.4,3.6-13.9,6c1.4,3.8,2.3,7.9,4.8,11.1
		c5.9,7.8,16.3,11.1,25.8,9.9c6.5-1.1,12.6-4.9,15.8-10.7c3-5.6,4-12.5,1.7-18.5c-1.6-4.1-4.7-7.2-7.9-10c-3.6-3.2-8.1-5.3-10.8-9.4
		c0.6-2.1,1.7-4.7,4.2-5c2.4,0.4,4.8,1.7,5.8,4c1.1,2.7,1.4,5.6,2,8.4c4.8-1.2,9.4-2.9,14-4.5c-0.8-4.1-1.5-8.3-3.9-11.8
		C423.6,96.6,407.7,92.8,396.9,99.8 M212.3,116.5c3,7.6,6.9,14.8,10.3,22.2c-3.7,2-7.6,3.7-11.4,5.6c-3.5-7.4-7-14.9-10.6-22.4
		c-6.3,3-12.7,5.9-18.9,9c9.3,20,19,39.8,28.1,59.9c6.5-2.5,12.6-5.9,19.1-8.6c-3.5-8.4-7.6-16.4-11.4-24.6c3.9-1.7,7.6-4,11.6-5.2
		c3.5,8.2,7.7,16.1,11.3,24.3c6.3-3.1,12.7-5.9,19-9.1c-9.6-19.9-18.9-40.1-28.4-60.1C224.8,110.6,218.4,113.3,212.3,116.5
		 M450.2,138.6c-5.8,11.5-11.5,23.1-17.5,34.5c3.2,2,6.6,3.4,9.9,5.2c9.8,4.9,19.4,10.2,29.4,14.6c2-4.1,4.2-8.2,6.2-12.3
		c-6.7-3.7-13.8-6.7-20.5-10.5c2.1-3.8,4-7.8,5.9-11.7c6.3,3.1,12.3,6.5,18.7,9.3l0.7-0.4c2.2-3.8,3.9-7.9,5.9-11.8
		c-6.3-3-12.3-6.5-18.7-9.3c1.2-3.6,3.2-6.9,4.9-10.3c6.7,3.4,13.5,6.8,20.2,10.2c2-4.2,4.4-8.3,6.3-12.5
		c-12.9-6.7-25.9-13-38.8-19.7C458.3,121.9,454.6,130.4,450.2,138.6 M140.5,159.5c-10.1,5.9-17.2,17.2-17.1,29
		c-0.5,14.9,9.7,29.5,23.9,34.2c5.2,1.9,10.8,1.9,16.2,1.4c11.7-1.7,22-10.1,26.4-20.9c3.1-7.7,2.2-16.5-0.8-24.1l-0.6-0.3
		c-4.5,1.2-9,2.5-13.6,3.6c0.9,3.7,2.8,7.2,2.4,11.1c-0.4,5-3.5,9.7-7.9,12.1c-3.7,1.8-8.2,1.3-11.8-0.5c-5.2-2.4-9.3-6.8-12.5-11.5
		c-2.8-4.1-4.9-9.2-3.8-14.2c1.6-4.8,5.7-9.4,11-10c4.6-0.4,9,1,13.5,1.8c0.7-4.5,2.6-9.1,2.8-13.6
		C159.5,154.5,149,154.7,140.5,159.5 M478.3,195.9c3.8,3.8,7.9,7.3,12.1,10.7c4.6-2.4,9.2-4.9,13.9-7.2c3.1,2.7,6.3,5.3,9.2,8.1
		c-1.8,4.9-3.5,9.8-5.1,14.8c5.6,4.8,10.9,9.9,16.8,14.3c8.8-26.1,17.7-52.2,26.4-78.3C526.9,170.4,502.8,183.6,478.3,195.9
		 M321.1,169.2c-19.9,1.7-39.7,5.7-58.6,12.4c-35.8,12.5-68.4,33.9-94.1,61.8c-38.2,40.6-60.8,95.4-62.6,151.1
		c-1.2,30.2,3.9,60.6,14.3,89c11.9,32.2,31,61.8,55.6,85.7c37.5,37.3,88.1,61,140.7,66.2c50.2,5.1,102-6.6,145-33.1
		c46-28,81.9-72.3,99.5-123.3c6.8-19.5,10.8-39.9,12.4-60.5c0.1-7,1.1-14,0.5-21c-0.5-5.7-0.4-11.4-1.1-17.1
		c-4.4-47.9-24.2-94.1-55.7-130.5c-21.4-24.9-48.1-45.2-77.8-59.2C402.6,173.5,361.4,166,321.1,169.2 M62,300.1
		c-10.3,2.4-19.1,10.3-22.4,20.3c-2.1,5.8-2.4,12.3-0.8,18.3c2.8,12,13.4,21.8,25.6,23.5c4.8,0.6,9.9,0.5,14.6-1
		c9.7-2.9,17.7-10.9,20.7-20.6c1.6-5.2,2-10.8,0.8-16.2c-2.2-11.8-11.9-21.6-23.5-24.3C72,299.1,66.9,299.1,62,300.1 M604.5,299.8
		c-11.5,1.8-21.5,10.7-24.9,21.9c-1.5,4.5-1.4,9.3-1,14c1.7,13.5,13.2,25,26.7,26.7c5.4,0.6,11,0.3,16.1-1.8
		c12.1-4.5,20.7-17.1,20-30c0.3-11.8-7.2-23.2-17.9-28.2C617.8,299.4,611,298.8,604.5,299.8 M58.7,440.8c-2.6,1.3-3.8,4.4-3.7,7.2
		c-3-1.6-6.8-1.5-9.4,0.8c-4.2,3.5-4.6,9.3-7.1,13.8c-1.9,3.6-3.8,7.9-2.5,12c0.8,2.5,3,4.1,5.3,5.1c-1,1.5-2.3,3-2.5,4.9
		c-0.5,2.9,0.9,5.6,2.8,7.7c2.5,2.9,6,4.6,8.6,7.5c2.8,2.9,6.1,5.6,10.2,6.2c2.8,0.2,5.1-1.6,7-3.4c1.7,2.7,4.5,5,7.9,4.5
		c5.7-0.5,9.6-5.1,14.5-7.3c3.3-1.6,6.7-3.7,8.3-7.2c1.1-2.7,0.3-5.6-1.1-8c3.3-0.5,6.2-2.7,6.9-6c1.2-5.5-1.8-10.5-2.5-15.8
		c-0.6-3.8-1.5-8-4.5-10.6c-2.2-1.8-5.1-1.4-7.7-1.2c0.3-3-0.4-6.3-3.1-8.1c-4.6-3.3-10.4-1.7-15.6-2.8
		C66.7,439.5,62.3,438.8,58.7,440.8 M606.4,440.5c-4.2-0.1-9.2,0.5-11.7,4.3c-1.4,1.7-1,4-1.1,6c-2.6-0.1-5.6-0.7-7.7,1.2
		c-3.1,2.6-4.1,6.7-4.6,10.5c-0.6,5.1-3.4,9.8-2.6,15c0.3,3.7,3.5,6.6,7.1,6.9c-1.2,2.1-2.4,4.6-1.5,7c1,4,4.7,6.3,8.1,8
		c4.9,2.1,8.6,6.5,14.1,7.4c3.6,0.9,7-1.5,8.8-4.5c2.2,2.5,5.9,4.3,9.2,2.9c5-1.4,7.7-6.4,11.9-9.1c3.3-2.4,6.9-5.4,7.6-9.7
		c0.5-2.6-1-4.9-2.5-6.9c2.9-1.2,5.6-3.8,5.6-7.2c0.5-5.6-3.6-10-5-15.1c-1.2-3.8-2.9-7.9-6.6-9.8c-2.4-1.3-5.3-0.9-7.6,0.3
		c-0.2-3.1-1.5-6.4-4.5-7.5C618,438.1,612.1,440.7,606.4,440.5 M138.2,587.3c-7.3,7.8-14.8,15.3-21.9,23.2c2.8,3.2,5.9,6.1,9.2,8.9
		c3.7-3.4,6.9-7.3,10.5-10.7c2.6,2.5,5.2,5.1,7.8,7.6c2-2.2,4.1-4.4,6.3-6.5c-2.5-2.6-5.1-5.1-7.8-7.5c1-1.4,2.1-2.8,3.6-3.7
		c2.5,3,5.5,5.5,8.3,8.2c2.3-2,4.4-4.3,6.4-6.7c-4.6-4.3-9.1-8.6-13.6-12.9c-1.4-1.3-2.6-2.9-4.4-3.8
		C140.8,584.4,139.5,585.9,138.2,587.3 M526.7,588.8c-3.4,3.5-6.8,6.8-10.5,10c2.2,3.1,5.1,5.5,7.7,8.3c6.2,6.5,12.6,12.8,18.7,19.5
		c4-3.6,7.7-7.6,11.7-11.1c3-2.8,5.5-6.7,5.1-10.9c-0.2-6-5.6-11.2-11.6-11.1c-0.3-5.3-5.2-9.4-10.4-9.6
		C533.3,583.3,529.5,585.9,526.7,588.8 M502.5,610.3c4.6,5.8,8.8,11.9,13.3,17.8c1.3,1.5,2.2,3.3,2.9,5.2c-1.4,1-2.5,2.5-4.2,2.9
		c-1.4-0.3-2.4-1.3-3.2-2.4c-4.9-6.5-9.5-13.3-14.6-19.6c-3.5,2.5-7,4.9-10.4,7.5c4.6,6.4,9.4,12.7,13.9,19.1
		c2.1,2.9,4.5,5.9,8.2,6.7c6.2,1.8,12.7-1.8,16.7-6.4c3.6-4.1,4.2-10.6,1-15.1c-5.3-7.2-10.6-14.4-15.8-21.7
		C507.5,606,504.7,607.9,502.5,610.3 M164.5,611.8c-10.1,3-16.9,14.5-14.2,24.8c1.9,8,9.8,14.2,18.1,13.9c8,0.3,15.4-5.3,18.4-12.5
		c1.9-3.9,1.9-8.4,1.3-12.5C186.1,615.2,174.4,608.5,164.5,611.8 M460.7,636.3c6.2,11.1,12.4,22.2,18.6,33.3
		c7.4-4.1,14.8-8.2,22.2-12.4c-1.6-2.7-2.7-5.9-4.8-8.1c-3.6,1.6-7,3.8-10.4,5.8c-5.2-8.1-9.3-16.9-14.4-25
		C468.2,632.2,464.4,634.2,460.7,636.3 M203.9,634c-7.2,1.5-13.1,7.4-15.1,14.4c-2.6,7.3-0.1,16.1,6,20.8c5.4,4.4,13.4,5.4,19.7,2.4
		c10.3-4.7,15.2-18.7,9.4-28.6C220,636.2,211.6,632.4,203.9,634 M429.7,653.6c-4.5,8.5-2,20.1,5.9,25.7c7.7,6,19.8,4.8,26.1-2.6
		c3.7-3.7,4.4-9.1,4.6-14.1c-3.1-0.2-6.3-0.5-9.4-0.9c-0.2,2.8,0.1,6-1.8,8.3c-1.7,2.3-4.7,3.6-7.5,2.6c-3.4-1.4-5.5-4.8-6.6-8.1
		c-0.9-2.8-1.7-6.1-0.2-8.9c1.1-2.1,3.4-3.2,5.7-3.6c3.1,0.4,5.7,2.3,8.3,3.8c1.8-2.4,3.4-5,4.9-7.6c-3.5-2.7-7.6-5-12.2-4.9
		C440.2,642.8,433.1,647.4,429.7,653.6 M236.6,646.4c-1.1,2.9-2.1,5.7-3.1,8.6c1.9,0.6,3.8,1.3,5.8,1.9c-3,9.2-6.4,18.3-9.5,27.5
		c4.1,1.4,8.1,2.9,12.3,4.2c3.1-9.1,6.4-18.2,9.5-27.3c1.9,0.7,3.9,1.3,5.8,2.1c1-2.9,2-5.8,3-8.6
		C252.5,651.9,244.6,649.1,236.6,646.4 M260.5,694.3c4.9,1.3,9.9,2.1,14.9,3.3c3.9,0.9,8.5,1.2,12-1.2c5.3-3.3,6.6-11,3.5-16.2
		c4.7-4.1,4.8-12.2,0.3-16.4c-2.2-2.2-5.2-3.1-8.2-3.7c-4.9-0.9-9.8-2.1-14.8-2.9C265.7,669.6,263,681.9,260.5,694.3 M316.9,658.6
		c-6.8,14.3-13.9,28.5-20.8,42.8c3.4,0.5,6.8,0.8,10.2,1c1.5-2.6,2.3-5.5,4.1-7.9c1.9,0,3.8,0.3,5.7,0.4c0.7,2.8,1.6,5.6,2.5,8.3
		c4.5,0.4,9.1,1,13.6,1c-4.2-12.9-8.3-25.8-12.5-38.8C318.9,663.2,318.6,660.6,316.9,658.6 M368.6,664c1.8,12.6,3.8,25.2,5.9,37.7
		c8.3-1.1,16.5-2.8,24.9-3.7c-0.3-3.2-0.9-6.4-1.3-9.5c-4.2,0.6-8.4,1.3-12.6,1.8c-1.1-9.4-2.8-18.8-4.2-28.1
		C377.1,662.8,372.9,663.5,368.6,664 M338.6,665.9c0.2,6.2,0.4,12.4,0.8,18.7c0.1,6.5,0,13.1,0,19.6c8.3-0.4,16.6-1.1,24.9-1
		c-0.1-3.2-0.1-6.3-0.1-9.5c-4.3,0.1-8.5,0.2-12.8,0.3c-0.2-9.5-0.4-19-1.1-28.5C346.5,665.7,342.5,665.8,338.6,665.9 M369.6,220.5
		l0.9-0.8c0.1,2.5,0,5.1,1.2,7.4c2.3,4.9,6.9,8.2,11.5,10.7c10.9,5.6,23.2,7.5,35.2,9.6c0.9,2.1,1.8,4.2,3.5,5.7
		c1.8,1.9,4.3,2.9,6.5,4.4c1.8,1.3,3,3.2,4.2,5l-0.5,0.8c-1.2,1.9-2.4,3.8-3.6,5.7c-1.3-0.5-2.5-0.9-3.8-1.4c-0.1,1.7-0.1,3.3-0.1,5
		c-4.4,4.3-8,9.4-10.5,15c-0.1-2.1,0.5-4.8-1.5-6.2c-3.3-1.6-7.5-1.6-10.6,0.5c-3.6,2.6-6.3,6.9-5.3,11.4c3.2,3.2,8.1,3.3,12.1,1.5
		c0.5,1.1,0.8,2.2,1.1,3.4c-0.3,2.5-0.6,4.9-0.4,7.4c0.2,3.7,0.4,7.3,1,11c-3.5-5.3-9.6-8.5-15.9-8.8c-3.9-0.2-7.6,2.3-9.2,5.8
		c-2.1,4.7-2.1,10.1-1.5,15.1c0.8,5.7,5.1,10.4,10.5,12.2c3.2,0.6,7,0.3,9.5-2.1c1.4-1.1,1.6-3.1,2.3-4.6c2.6,3.7,4.8,7.8,5.6,12.3
		c-0.1,3-0.2,6.1-1.6,8.7c-4.2,8.1-14.6,12.8-23.4,9.5c-0.2,4-0.7,8-0.9,12c2.6,3.2,4.6,6.9,5.7,10.8c2.7,9.1,3.7,18.5,5.2,27.9
		c1.3,8.6,4,16.9,7.7,24.8c1.4,5.4,4.7,10.1,8.3,14.2c8.7,8.9,22.2,11.1,34,8.7c6.9-1.6,12.6-7.4,13.8-14.4
		c1.1-7.7-0.4-15.9-4.5-22.6c-3.2-4.1-6.1-8.5-9.8-12.3c-5.5-6.4-11.2-12.8-14.1-20.8c-2.2-5.1-1.9-10.9-1.5-16.4
		c0.8-5.2,3.4-10,6.6-14c6.3-7.7,14.3-13.7,21.8-20.2c4.3-3.8,8.6-7.8,11.1-13.1c1.8-3.2,1.7-7,1.4-10.6c-0.3-4.9-3.4-9.5-7.7-11.7
		c-5.9-3.2-13.4-2.4-19.1,0.9c-3.7,2.5-7.1,6.2-7.3,10.9c-0.2,1.1-0.4,2.2-0.6,3.3c-1-5.5-1.1-11.4,1.9-16.4
		c4.3-7.4,12.5-11.6,20.7-12.8c10.9-2.1,23.6,2.6,28.8,12.7c3,6.1,4.1,13.2,3.2,20c-1.1,7.7-6.4,14-12.1,18.9
		c-9,7.7-19.4,13.8-27.8,22.2c-4.4,4.4-8.1,9.6-10.5,15.4c4.7-4.6,10.1-8.7,16.6-10.6c5.5-1.9,11.4-1.8,17-1
		c7.1,1.5,13.8,5.9,17,12.7c1.3,3.6,1.9,7.5,1.4,11.3c-0.8,6.5-4.6,12.2-9.4,16.5c-1.3,1.1-2.8,2.1-4.2,3.1c0.7-2.1,1.8-4,2.6-5.9
		c2.3-6.7,0.2-15.1-6-19c-4-3-9.4-3.2-14.1-2.1c-4.8,1.3-8.2,5.3-10.4,9.6c0.1,0.5,0.3,1.5,0.3,2c-0.2,0.2-0.5,0.6-0.7,0.8
		c-0.9,4.6,1.5,8.8,4.2,12.2c3.8,4.8,7.5,9.8,11.4,14.6c5,7.7,7.6,17,7.1,26.2c-0.5,6.7-4,13.1-9.7,16.7c-8.4,5.4-18.9,6.3-28.7,5.3
		c-11.8-1.4-23.8-5.6-32.2-14.3c0.9,5.2,3.2,10,6,14.5c3,4.6,6.6,8.9,11.1,12.1c5.1,4,11.6,6.3,18.1,6.3c4.9-0.2,9.7-1.5,14.2-3.5
		c-3.4,4.1-6.8,8.3-9.6,12.8c-6.9,11.1-10.4,24-11,37c-0.8,8,0.7,16-0.4,24c-0.3,2.3-1.2,4.8-3.4,5.8c-3.3,1.2-7.4,0.3-10.2,2.8
		c-2.1,1.6-2.5,4.5-2.8,7c-2-2.7-3.6-6.1-2.3-9.5c-1.7,0-3.4,0-5.1,0.1c-3.1,0.2-6.3,0.7-8.9,2.5c-1.9,1.2-2.8,3.3-3.6,5.3
		c-0.5,1.2-1.1,2.3-1.6,3.5c-0.5-1.8-1.2-3.6-1.4-5.4c-0.1-2.2,0.9-4.1,1.6-6.1c-2,0.1-3.9,0.2-5.9,0.3c-6.3,0.1-14.4,0.2-17.8,6.6
		c-0.5,0.8-1.1,1.6-1.6,2.4c-1.1-3.7-1.7-7.6,0.1-11.2c-1.5,0-3,0-4.6,0c-0.1-4.6,0.8-9.5,4.5-12.6c5.1-4.3,12-5,18.4-5.7
		c4.8-0.8,9.6-0.7,14.4-0.6c6.7-9.2,12-20.3,11.1-32c-0.2-5.3-2.8-10.2-6.4-14c-6.6-0.5-13.7-0.7-19.5-4.3
		c-4.6-2.6-7.2-7.8-7.6-12.9c-5.8-1.5-12-1.1-17.8-0.2c-6.4,1.3-12.6,3.7-17.9,7.4c-3.5,2.2-5.6,6.2-6.7,10.1
		c-0.7,5.6,3.2,11.3,8.4,13.3c4.2,2.1,8.8,3.3,13.4,4.1c-2.9,0.7-5.8,1.4-8.6,2.3c-3.9,1.4-8.2,2.6-11.1,5.7
		c-2.7,2.7-5.4,5.5-6.9,9.1c-2.9,6.1-3,13.1-6,19.1c-2.3,4.4-6.8,7.2-11.6,8.2c-3.7,0.8-7.9,1.5-10.3,4.8c-1.9,2.2-1.6,5.2-1.8,7.8
		c-2.6-3.7-4.8-7.9-5-12.5c-3,0-6,0.1-9,0.9c-6.5,1.3-10.6,7.6-11.2,13.9c-1.2-2.7-2.8-5.5-2.3-8.6c0.4-2.2,1.5-4.2,2.5-6.2
		c-2.7,0-5.5,0.1-8.2,0.2c-4.4,0.2-9,0.8-12.4,3.8c-1.6,1.6-2.1,3.8-2.6,5.9c-3.3-4-1.3-9.7,0.9-13.8c-2.2,0-4.3,0-6.5,0
		c-0.2-5,0.8-10.7,5-13.9c6.2-4.3,14-2.8,21.1-3.1c5.7-0.2,11.8,0.9,17.1-1.8c10-4.3,16.8-13.8,20.4-23.9c1.7-5.5,3.2-11.4,2.3-17.3
		c-2.2-1.8-4.7-3.1-6.7-5.2c-3.1-3.1-5.3-7.4-5.1-11.9c0.1-6.2,3.7-11.9,8.5-15.7c9.2-7.5,20.6-11.4,31.1-16.8
		c9.4-4.4,19.8-8.1,26.7-16.2c4.1-4.5,4-12,0-16.6c-2.8-3.7-7.5-4.9-11.8-5.8c1.2,3.6,3.1,7.2,2.5,11.1c-0.4,3.8-3.6,6.7-7,8
		c-3.5,1.3-7.2,1.9-10.9,1.8l-0.3-0.2c-1-1.7-1.6-3.5-2.1-5.4c-2.6-4-5.5-7.8-7.7-12.1c-3.2,3.1-5.9,6.8-9.8,9.1
		c-3,1.9-5.6,4.4-8.4,6.4c-7.2,5.3-15.2,9.8-23.9,12.3c-1.7-2.2-3.6-4.3-6.3-5.3c-9.7-3.6-22,0.4-26.9,9.7c-1.1,2-1.3,4.3-1.4,6.5
		c-0.9-1.2-1.9-2.3-2.6-3.5c-0.7-2.3-0.5-4.7-0.7-7.1c-2.2-0.8-4.5-1.3-6.9-1.5c0,2-0.1,4,0.3,6c0.9,2.8,3.2,5,5.7,6.4
		c0.1,14.6,0,29.2,0,43.9c1.4,0,2.8,0,4.2,0c0,4.7,0,9.3,0,14c-2.1,0-4.3,0-6.5-0.1c2.2,1.7,4.6,3.4,5.4,6.2
		c2.2,4.8-0.4,10.8-5,13.1c-2.8,1.6-6.1,1.5-9.1,0.8c-3.5-1.1-6.4-3.9-7.4-7.5c1.9,1.2,4,2.7,6.4,2.5c4.2,0.3,7.8-4.1,7.1-8.2
		c-0.3-3.9-4.1-6.3-7.7-6.4c-2.3-0.5-4.6-0.5-7-0.4c0-2.3,0-4.6,0-7c4-0.7,8.1-1.2,11.7-3.3c-0.2-20,0-40-0.1-60
		c-0.6,0-1.9,0.1-2.6,0.1c-1.5,1.5-3,2.9-4.5,4.3c0.6-3.6,2.4-6.8,3.2-10.3c-2.3-1.5-5.1-1.4-7.6-0.8c-2.6,1.5-4.8,3.5-7,5.4
		c1.3-5.6,5.1-9.9,8.1-14.6c-2.1-0.2-4.2-0.5-6.3-0.3c-2.4,0.3-4.6,1.4-6.7,2.5c-0.1-0.4-0.4-1.1-0.5-1.5c3-5.3,8.8-7.8,13.3-11.6
		c4.4-2.8,9.8-2,14.7-2.5c4.7-0.5,9.5-0.1,14.1-1.4c11.7-3.7,22.5-9.4,33.3-15.1c10.2-5.6,20.3-11.5,30.3-17.6
		c3.1-1.8,6.1-3.6,8.8-5.8c-4.5-0.4-9-0.7-13.5-1.1c-3-0.3-6.2-0.6-8.7-2.6c-1.4-3-3.1-5.9-5.9-7.8c-5.5,9.2-17.1,13-27.4,11.6
		c-3.4-0.9-6.7-2.6-8.9-5.4c2.6-0.6,5.4-0.8,8-1.7c3-1.4,5.7-4.5,5-8c-0.8-5-5.5-8.7-10.4-9c-6.7-2.3-13.5-4.6-20.6-5.3
		c0,20.5,0,41.1,0,61.6c-2.6-0.2-5.2-0.4-7.9-0.5c-0.3-18.9-0.1-37.9-0.1-56.8c0.4-4.1-3.2-8.4-7.5-8c-2.9-0.2-6.1-1.1-7.8-3.6
		c-1.5-2.2-1.3-5-1.4-7.5c-1.6-2.4-4.1-4.7-3.6-7.9c0.5-2.6,2.7-4.3,4.2-6.3c-1.7-2.2-3.7-4.7-3.3-7.7c0.3-5.8,6-10.7,11.6-9.9
		c2.5,1.2,5.1,2.3,7.7,3.1c0-2.8,0-5.5,0-8.3c-2.4,0.4-4.9,0.8-7.3,1c-3.4-0.3-6.7-1.6-9.7-3.3l1.9-0.6c2.3-0.8,4.4-2,6.5-3.1
		c-0.9-0.5-1.9-1-2.9-1.5c-1.9-2.4-4.2-4.4-6-6.8c-4.2-6-6.1-13.3-6.5-20.6c0.5-8.6,3.3-17.4,9.5-23.6c2.5-2.2,5.3-4.3,8.5-5.3
		c4.3-0.8,8.7-0.4,13-0.2c7.5,1.5,14.3,6,19,12c6.9,9.4,7.5,23.2,0.9,32.9c-4.9,7-11.1,13.3-18.7,17.3c-0.1,2.1-0.1,4.1-0.2,6.2
		c-0.1,2.2-0.2,4.4-0.2,6.6c6.3,2.2,12.5,4.7,18.7,7.1c3.6,1.9,7.4,3.5,11.1,5.4c4.8,3.6,10.2,6.4,14.8,10.3
		c4.8,4.3,9.8,8.9,11.9,15.2c1.8,4.2,0.8,8.9-0.1,13.2c2.4-0.5,4.9-0.9,7.1-2.1c3.3-1.7,5.5-5,6.6-8.4c1.2-4.9,0.8-10-0.3-14.8
		c-0.4-1.3,0.8-2.3,1.3-3.3c4.3-6.6,7.8-13.8,10.8-21.2c1.2-3.1,2.7-6.1,3-9.4c-0.3-1.5-2.1-1.6-3.2-2.1c-5.8-1.8-11.7-5-14.3-10.7
		c-1.1-1.8-0.6-3.9-0.5-5.9c4.1,5,10.8,3.3,16.4,3.3l-0.4-0.7c1.6-0.1,3.4,0.4,4.8-0.6c6-3.5,10.5-10.1,9.9-17.3
		c-0.2-5-3-10.5-8.1-11.9c-3.3-0.6-6.3,1.6-8.9,3.3c2.9-5.5,8.2-10.7,14.7-10.9c5.9,0.4,11.7,0.7,17.6,0.5c-0.9-2.3-2-4.5-2.3-7
		C361.1,229.5,364.8,224.1,369.6,220.5 M237.3,251.7c-2.5,2.3-2.5,6-2.4,9.1l0.6,0.5c0.3,5.3,5.9,8.8,10.9,8.6
		c0.1,2.7,0.1,5.3,0.2,8c6.1-4.7,11.1-11.5,11.8-19.3c0.1-5.2-3.6-9.8-8.3-11.7C245.5,245.6,239.2,246.7,237.3,251.7 M382.5,257.7
		c0.2,1.3-0.3,2.9,0.8,3.9c3.3,3.2,8,4.2,12.2,5.7c0.5-0.7,1-1.5,1.5-2.2c-3.5-0.8-5.8-3.9-5.9-7.4
		C388.2,257.7,385.3,257.7,382.5,257.7 M395.8,257.8c-0.2,1.9,0.1,4.6,2.6,4.7c1.9-0.8,2.7-3.1,3.9-4.6
		C400.2,257.8,398,257.8,395.8,257.8 M227.4,308.4c-0.3,2,0.9,4.4,3,4.9c5.7,0.2,11.8,2.2,17.2-0.6c-3.4-3-7.4-5-11.5-6.9
		c-1.8-0.8-3.8-1.7-5.8-1.3C229,305.5,227.9,306.9,227.4,308.4 M229.6,325.6c5.9,0.4,11.7-0.5,17.3-2.4c-0.9-1.2-2.1-2.1-3.5-2.6
		c-4.2-1.6-8.6-2.9-13.1-3.3C227.7,319.4,227.5,323,229.6,325.6 M231.7,329.6c-0.5,1-1,2.1-1.5,3.1c1,0.9,1.7,2.8,3.2,2.9
		c3.8-0.5,7.7-1.6,11.1-3.5C240.8,329.5,236.1,329.3,231.7,329.6 M541.4,606.4c1-0.6,1.7-1.7,3-1.8c1.8,0.1,2.6,1.8,3.6,3
		c-0.6,1.1-1.3,2.3-1.9,3.4C544.5,609.6,542.9,608,541.4,606.4 M167.3,624.4c1.8-1.9,4.3-3.9,7.1-3.1c2,0.5,2.6,2.6,3.4,4.2
		c-1.6,5.8-4.9,11.4-10.2,14.4c-2.8,1.9-7-1.1-6.4-4.3C161.7,631.2,164.3,627.5,167.3,624.4 M208.6,643.7c3.5-1.5,6.9,2.6,5.8,5.9
		c-1.1,5-3.5,10-7.6,13.3c-2.6,2.3-7.1,0-6.9-3.4c-0.2-3.7,1.6-7.1,3.3-10.3C204.4,647,206.1,644.7,208.6,643.7L208.6,643.7z"/>
	<path class="st4" d="M328.7,88.9c6.5-0.1,13.1,0.5,19.6,0.1c0.4,5.8-0.1,11.7,0,17.5c-0.2,11.4-0.4,22.8-0.8,34.2
		c1.5,0.6,3.3,0.3,5,0.4c5.9-0.2,11.7,0.7,17.6,0.4c0.1,4.9-0.2,9.7-0.3,14.6c-14.1,0.2-28.2-0.8-42.3-0.8c0.3-15.6,0.2-31.2,1-46.8
		C328.4,102,328.7,95.4,328.7,88.9 M331.9,92.1c-0.1,20-0.8,40-1.2,60c11.9,0.2,23.8,0.5,35.7,0.8c0-2.7,0.1-5.4,0.5-8.1
		c-7.6-0.4-15.2,0.1-22.7-0.7c0.2-17.2,0.7-34.4,1.1-51.6C340.8,92.6,336.4,92.5,331.9,92.1L331.9,92.1z"/>
	<path class="st5" d="M212.3,116.5c6.1-3.2,12.5-5.9,18.7-8.9c9.6,20,18.8,40.1,28.4,60.1c-6.3,3.1-12.7,5.9-19,9.1
		c-3.6-8.2-7.8-16.1-11.3-24.3c-4.1,1.2-7.8,3.5-11.6,5.2c3.8,8.2,7.9,16.3,11.4,24.6c-6.4,2.7-12.5,6.1-19.1,8.6
		c-9.1-20.1-18.8-39.9-28.1-59.9c6.2-3.1,12.6-6,18.9-9c3.6,7.4,7,14.9,10.6,22.4c3.8-1.9,7.7-3.6,11.4-5.6
		C219.1,131.3,215.3,124.1,212.3,116.5 M216.5,118.1c3.5,7.3,6.7,14.8,10.5,22c-5.5,3.4-11.7,5.6-17.4,8.6
		c-3.6-7.4-7.1-14.8-10.5-22.3c-4.4,1.9-8.7,4-13,6c8.4,18.2,16.9,36.2,25.6,54.2c4.2-2.1,8.5-4.2,12.9-6c-3.7-8.3-8-16.4-11.4-24.8
		c5.9-2.5,11.6-5.3,17.4-8c3.9,8.2,7.6,16.4,11.7,24.4c4.2-2.1,8.5-4.1,12.7-6.1c-8.3-18.1-17-36.1-25.4-54.1
		C225.1,113.8,220.9,116.1,216.5,118.1 M450.2,138.6c4.4-8.2,8.1-16.7,12.7-24.8c12.8,6.8,25.9,13,38.8,19.7
		c-1.9,4.3-4.3,8.3-6.3,12.5c-6.7-3.4-13.4-6.8-20.2-10.2c-1.7,3.4-3.7,6.7-4.9,10.3c6.4,2.8,12.5,6.3,18.7,9.3
		c-2,3.9-3.7,8-5.9,11.8l-0.7,0.4c-6.4-2.7-12.5-6.2-18.7-9.3c-1.9,3.9-3.8,7.9-5.9,11.7c6.7,3.8,13.7,6.8,20.5,10.5
		c-2,4.1-4.1,8.2-6.2,12.3c-10-4.4-19.6-9.8-29.4-14.6c-3.3-1.7-6.8-3.2-9.9-5.2C438.7,161.7,444.4,150.1,450.2,138.6 M437.3,171.7
		c10.9,5.9,22.2,11.1,33.2,16.9c1.2-2.2,2.3-4.4,3.2-6.7c-6.8-3.4-13.6-6.7-20.3-10.3c2.9-5.9,5.8-11.8,8.9-17.6
		c6.3,3.2,12.6,6.3,18.9,9.5c1.2-2.2,2.4-4.3,3.5-6.6c-6.4-3.2-12.8-6.3-19-9.6c2.7-5.3,5.3-10.7,8-16c6.7,3.4,13.4,7,20.2,10.1
		c1.1-2.2,2.2-4.3,3.3-6.5c-10.9-5.6-21.9-11.2-32.9-16.6C455.2,136.1,446.3,153.9,437.3,171.7 M526.7,588.8c2.8-2.8,6.6-5.4,10.8-5
		c5.2,0.2,10,4.3,10.4,9.6c6,0,11.4,5.2,11.6,11.1c0.3,4.2-2.1,8.1-5.1,10.9c-4,3.6-7.7,7.6-11.7,11.1c-6.1-6.7-12.4-13-18.7-19.5
		c-2.6-2.7-5.5-5.2-7.7-8.3C519.9,595.6,523.3,592.2,526.7,588.8 M527.5,591.5c-2.5,2.6-5.2,5-7.8,7.6c7.8,7.6,14.9,15.9,22.9,23.3
		c1.7,0,2.6-2,3.8-2.9c3.6-4.2,9.3-7.2,10.5-13.1c1.1-6.3-5.5-12.2-11.6-10.2c1.5-5.7-4.3-11-9.8-10
		C532.2,586.7,529.7,589.2,527.5,591.5 M236.6,646.4c8,2.7,15.8,5.6,23.8,8.3c-1,2.9-1.9,5.8-3,8.6c-1.9-0.7-3.9-1.4-5.8-2.1
		c-3.2,9.1-6.4,18.2-9.5,27.3c-4.1-1.3-8.2-2.8-12.3-4.2c3.1-9.2,6.5-18.3,9.5-27.5c-1.9-0.6-3.8-1.3-5.8-1.9
		C234.5,652.1,235.5,649.2,236.6,646.4 M238.3,649.5c-0.6,1.2-1.2,2.4-1.7,3.6c1.9,0.9,3.9,1.7,6,2.4c-3.2,9.1-6.4,18.2-9.6,27.4
		c2.5,0.9,5,1.8,7.5,2.6c3.3-9.1,6.3-18.3,9.7-27.4c1.9,0.7,3.8,1.4,5.7,2.1c0.5-1.3,0.9-2.7,1.4-4
		C250.9,654,244.6,651.8,238.3,649.5L238.3,649.5z"/>
	<path class="st6" d="M478.3,195.9c24.5-12.3,48.6-25.5,73.3-37.6c-8.7,26.1-17.7,52.2-26.4,78.3c-5.8-4.5-11.2-9.6-16.8-14.3
		c1.6-5,3.3-9.9,5.1-14.8c-2.9-2.9-6.2-5.4-9.2-8.1c-4.7,2.3-9.3,4.8-13.9,7.2C486.2,203.2,482.1,199.7,478.3,195.9 M484.1,196.6
		c2.1,2.1,4.3,4.1,6.5,6.1c4.7-2.4,9.3-4.8,13.9-7.4c4.3,3.6,8.5,7.4,12.8,11c-1.7,5.1-3.5,10.1-5,15.2c3.7,3.1,7.4,6.3,10.9,9.5
		c0.8-1.8,1.5-3.6,2.1-5.5c6.6-20.2,13.8-40.2,20.4-60.5C525,175.2,504.8,186.3,484.1,196.6L484.1,196.6z"/>
	<path class="st7" d="M357.1,228.2c3.6-3.3,7.7-6.4,12.5-7.8c-4.8,3.6-8.5,9-9.1,15.1c0.3,2.5,1.5,4.7,2.3,7
		c-5.9,0.2-11.7-0.2-17.6-0.5c2.6-0.2,5.1-0.3,7.7-0.3C350.3,236.8,353.7,231.6,357.1,228.2 M216.2,241.4
		c7.1-10.5,20.9-15.8,33.2-12.9c-4.3-0.2-8.7-0.6-13,0.2c-3.3,1-6,3-8.5,5.3c-6.2,6.2-9,15-9.5,23.6c0.4,7.2,2.3,14.6,6.5,20.6
		c1.8,2.4,4.1,4.4,6,6.8c-1.5-0.5-3.1-0.9-4.6-1.5c-3.9-2.7-7.6-5.7-10.2-9.7C209.6,264.3,209.5,250.8,216.2,241.4 M237.3,251.7
		c1.9-5,8.2-6.1,12.8-4.8c4.7,1.9,8.3,6.5,8.3,11.7c-0.8,7.8-5.8,14.6-11.8,19.3c0-2.7-0.1-5.3-0.2-8c-5,0.3-10.6-3.3-10.9-8.6
		c2,1.7,4.1,3.7,7,3.5c4.3,0.3,8.7-3.9,7.8-8.3c-0.4-3-2.9-5.4-5.8-6.1C242,249.8,239.6,250.9,237.3,251.7 M330.5,252.9
		c2.6-1.7,5.5-3.9,8.9-3.3c5.1,1.5,7.9,6.9,8.1,11.9c0.6,7.1-3.9,13.8-9.9,17.3c-1.4,1-3.2,0.5-4.8,0.6c2.3-1.5,5-2.7,6.4-5.1
		c1-2.8,2.1-5.7,2.3-8.7c0.4-3.2-1.5-6-2.5-8.9c-2.8-2.1-6.4-2.7-9.8-2.2C329.5,254.1,330.2,253.3,330.5,252.9 M323,297.5
		c-8.9-3.2-13.5-16.1-6.7-23.4c0.3,0.8,0.5,1.7,0.5,2.5c-0.1,2-0.6,4.1,0.5,5.9c2.6,5.7,8.6,8.9,14.3,10.7c1.1,0.5,2.9,0.6,3.2,2.1
		c-0.3,3.3-1.7,6.4-3,9.4c-3,7.4-6.4,14.5-10.8,21.2c-0.5,1.1-1.7,2.1-1.3,3.3c1.1,4.8,1.6,10,0.3,14.8c-1.1,3.5-3.3,6.7-6.6,8.4
		c-2.2,1.2-4.7,1.6-7.1,2.1c0.9-4.3,1.9-9,0.1-13.2c-2.1-6.3-7.1-10.9-11.9-15.2c-4.6-4-10-6.7-14.8-10.3c10,2.6,20.2,4.6,30.5,4.7
		C316.7,314.4,320.4,305.9,323,297.5 M235.1,293.5c2.4-0.2,4.9-0.6,7.3-1c0,2.8,0,5.5,0,8.3c-2.6-0.9-5.2-2-7.7-3.1
		C234.8,296.3,235,294.9,235.1,293.5 M227.4,308.4c0.5-1.6,1.6-2.9,2.9-3.9c2-0.4,4,0.5,5.8,1.3c4.1,1.9,8.1,3.9,11.5,6.9
		c-5.5,2.8-11.5,0.9-17.2,0.6C228.4,312.8,227.1,310.4,227.4,308.4 M444.8,307.9c5.7-3.3,13.2-4.2,19.1-0.9
		c4.4,2.2,7.4,6.8,7.7,11.7c0.3,3.6,0.3,7.4-1.4,10.6c-2.6,5.2-6.9,9.2-11.1,13.1c-7.5,6.4-15.5,12.5-21.8,20.2
		c-3.3,4.1-5.8,8.9-6.6,14c-0.4,5.5-0.7,11.2,1.5,16.4c2.9,8,8.7,14.5,14.1,20.8c3.6,3.8,6.5,8.2,9.8,12.3
		c4.1,6.7,5.5,14.8,4.5,22.6c-1.2,7-6.9,12.8-13.8,14.4c-11.8,2.4-25.4,0.2-34-8.7c-3.6-4.1-6.9-8.8-8.3-14.2c2.7,3.4,5.3,6.9,9,9.2
		c6,4.5,13.7,6,21.1,6c6.9,0.3,13.4-5.2,14.4-12c0.6-5.6-0.1-11.5-2.7-16.7c-5.5-8.7-13.3-15.5-19.3-23.8c-5.8-8-8.1-18.2-6.9-28
		c1-6.5,4.2-12.5,8.4-17.5c7-8.3,16-14.7,23.9-22c4.4-4.2,9-9.7,8-16.2c-0.5-4.3-3.6-7.5-7.3-9.6c-0.4,0.3-1.1,1-1.5,1.4l1.1-1.4
		c-3.4-0.1-7.2-0.1-10.1,2c-2.6,1.6-4.1,4.4-5.2,7.1C437.7,314.1,441.1,310.4,444.8,307.9 M235,340.5c4.2-0.4,7.9,3.9,7.5,8
		c0,18.9-0.2,37.9,0.1,56.8c2.6,0.1,5.2,0.3,7.9,0.5c3.8,0.3,7.3-1.7,10.5-3.4c9.4-5.6,17.4-13.2,27.1-18.5
		c7.4-4.5,15.1-8.5,22.7-12.7c0-0.4,0-1.1,0-1.5c2.4,2,5.7,2.3,8.7,2.6c4.5,0.3,9,0.6,13.5,1.1c-2.7,2.2-5.7,4.1-8.8,5.8
		c-10,6.1-20.1,11.9-30.3,17.6c-10.8,5.7-21.6,11.4-33.3,15.1c-4.6,1.3-9.4,0.9-14.1,1.4c-4.9,0.5-10.4-0.3-14.7,2.5
		c-4.5,3.8-10.3,6.3-13.3,11.6c0.1,0.4,0.4,1.1,0.5,1.5l0.2,0.6c-0.4,0.1-1.3,0.3-1.7,0.4c0.3-4.4,0.8-9.1,3.7-12.6
		c1.2-1.6,3.2-2,5.1-2.3c2.2-3.6,5-6.8,8.8-8.7C235,384.3,235.1,362.4,235,340.5 M271.1,349.5c4.9,0.3,9.6,4,10.4,9
		c0.7,3.5-2,6.6-5,8c-2.6,0.9-5.3,1.1-8,1.7c-0.5-0.6-0.9-1.2-1.3-1.8c4.4-0.9,9.1-3.8,9.1-8.8C275.6,354.3,273.4,351.7,271.1,349.5
		 M461.8,387c4.7-1.1,10.1-0.9,14.1,2.1c6.3,3.8,8.3,12.3,6,19c-0.9,2-1.9,3.9-2.6,5.9l-0.2,0.4c-2.2,1.2-4.4,2.3-6.7,3.3
		c2.6-4.2,4.4-9.4,2.4-14.2c-2.4-5.7-8.2-10.2-14.5-9.9c-3.5,0.1-6.3,2.6-8.6,5.1c-0.1-0.5-0.3-1.5-0.3-2
		C453.6,392.4,457,388.3,461.8,387 M356.9,412.5c4.3,1,9,2.1,11.8,5.8c4,4.6,4.1,12,0,16.6c-6.9,8.1-17.3,11.8-26.7,16.2
		c-10.5,5.4-21.9,9.2-31.1,16.8c-4.8,3.8-8.4,9.5-8.5,15.7c-0.1,4.5,2,8.8,5.1,11.9c2,2.1,4.5,3.4,6.7,5.2
		c0.9,5.8-0.6,11.7-2.3,17.3c-3.6,10-10.3,19.5-20.4,23.9c-5.3,2.7-11.4,1.6-17.1,1.8c-7.1,0.2-14.9-1.2-21.1,3.1
		c-4.2,3.2-5.1,8.9-5,13.9c2.2,0,4.3,0,6.5,0c-2.2,4.1-4.2,9.8-0.9,13.8c0.4,1.1,0.6,2.3,0.5,3.5c-2.8-1.7-5.3-4-6.4-7.2
		c-1.4-2.9-0.7-6.2-0.7-9.3c-0.5-3.3-1.8-6.5-1.4-9.8c0.1-3.3,1.5-6.5,3.8-8.7c3.7-3.3,8.6-4.9,13.5-5.5c6-0.9,12.1-0.3,18.2,0.3
		c5.3,0.6,10.7-1.9,13.8-6.2c4.9-6.6,6.4-15,7.2-23c0.1-2,0.6-4.4-0.6-6.2c-3.3-2.5-7.2-4.3-9.3-8c-3.2-5.1-2.4-11.5-0.2-16.8
		c3.3-7.7,8.9-14.3,14.7-20.3c6.7-6.4,13.9-12.3,21.8-17.1c3.9-2.5,8.4-4,12.1-6.9l0.3,0.2c3.7,0.1,7.4-0.5,10.9-1.8
		c3.4-1.3,6.6-4.2,7-8C360,419.7,358.1,416.1,356.9,412.5 M230.9,435.9c2.5-0.6,5.3-0.7,7.6,0.8c-0.8,3.5-2.6,6.7-3.2,10.3
		c1.5-1.4,3-2.9,4.5-4.3c0.6,0,1.9-0.1,2.6-0.1c0.1,20-0.1,40,0.1,60c-3.6,2-7.7,2.6-11.7,3.3c0-2.4,0-4.8,0-7.2
		c1.4-0.1,2.9-0.1,4.3-0.2c-0.3-16.4,0.2-32.9-0.3-49.4C232.4,445,231.5,440.5,230.9,435.9 M244.4,442.3c2.3,0.3,4.6,0.8,6.9,1.5
		c0.2,2.4-0.1,4.8,0.7,7.1c0.8,1.2,1.8,2.3,2.6,3.5c0.1,0.3,0.4,1,0.5,1.4c-1.6-0.4-3.1-0.7-4.7-1.1c-2.6-1.4-4.8-3.6-5.7-6.4
		C244.3,446.3,244.4,444.3,244.4,442.3 M361.4,485.1c5.9-0.9,12.1-1.3,17.8,0.2c0.4,5.1,3.1,10.3,7.6,12.9
		c5.8,3.6,12.9,3.9,19.5,4.3c3.6,3.8,6.2,8.7,6.4,14c0.9,11.7-4.4,22.8-11.1,32c-4.8-0.1-9.6-0.2-14.4,0.6
		c-6.4,0.7-13.3,1.4-18.4,5.7c-3.7,3.1-4.6,8.1-4.5,12.6c1.5,0,3,0,4.6,0c-1.8,3.6-1.3,7.5-0.1,11.2c0.5-0.8,1-1.6,1.6-2.4
		c-0.2,1.5-0.3,2.9-0.5,4.4c-3-2.6-5.4-6-5.9-10c-0.3-3.5-2.4-6.6-2-10.2c0-5.5,3.9-10.3,8.7-12.7c6.7-3.5,14.4-3.7,21.8-3.5
		c3,0.4,5.2-2,6.5-4.4c2.7-5.4,2.8-11.6,2.4-17.5c-0.4-3.1-1.5-6-2.9-8.8c-5.3-0.4-10.4-2-15.1-4.4c-5.4-3.8-10-8.6-13.9-14
		c-2.3-3.1-4-6.6-6.1-9.8C362.8,485.4,361.9,485.2,361.4,485.1 M231.4,524.7c0.1-4.5,1.5-10.2,6.4-11.6c3.6,0.1,7.4,2.5,7.7,6.4
		c0.8,4.1-2.8,8.5-7.1,8.2c-2.4,0.2-4.5-1.3-6.4-2.5C231.9,525,231.5,524.8,231.4,524.7 M269,564.7c2.7-0.2,5.5-0.2,8.2-0.2
		c-0.9,2-2.1,4-2.5,6.2c-0.5,3.1,1.1,5.9,2.3,8.6l0.4,1c-2.4-1.2-4.5-2.9-6-5.1C269.8,571.9,269.4,568.3,269,564.7L269,564.7z"/>
	<path class="st8" d="M268.4,240.5c1.7,1.3,3,3,4.7,4.4c9.2,7.3,13.2,20.5,9.4,31.7c-1.4,5.2-5.1,9.4-8.6,13.3
		c-3.8,4.4-8.5,8-13.5,10.8c0,0.6-0.1,1.9-0.1,2.6c-3-2.6-6.4-4.6-9.9-6.4c0.1-2.1,0.2-4.1,0.2-6.2c7.6-4.1,13.9-10.3,18.7-17.3
		C275.9,263.6,275.3,249.9,268.4,240.5 M237.3,251.7c2.3-0.8,4.7-1.9,7.2-1.2c2.8,0.7,5.4,3.1,5.8,6.1c0.9,4.4-3.5,8.6-7.8,8.3
		c-2.8,0.2-5-1.9-7-3.5l-0.6-0.5C234.8,257.6,234.8,254,237.3,251.7 M428.5,268.9c1.2-1.9,2.4-3.8,3.6-5.7c3.5,2.9,9.2,4.3,10.1,9.4
		c-1,2.1-2.1,4.1-3.7,5.9c-1.4,0.1-2.6-0.5-3.9-0.9c0.3,3.2-0.6,6.3-2.8,8.7c-3.8-0.1-7.3-1.6-10.4-3.7c-1.3,1.7-2.6,3.4-3.9,5.1
		c0.6,0.8,1.2,1.7,1.9,2.5c-3.7-0.2-7.2,0.9-10.1,3.2c0.6,1.1,1.2,2.3,1.7,3.5c-0.3,0.3-1,1-1.3,1.3c-0.3-1.2-0.6-2.3-1.1-3.4
		c-4,1.8-8.9,1.7-12.1-1.5c-0.9-4.6,1.8-8.8,5.3-11.4c3.1-2.1,7.3-2.1,10.6-0.5c2,1.4,1.5,4.1,1.5,6.2c2.6-5.6,6.1-10.7,10.5-15
		c0-1.7,0.1-3.3,0.1-5C426,268,427.2,268.5,428.5,268.9 M436.7,294.8c7.4,3,16.4-0.1,20.6-6.8c0.3,1.8-0.8,5,2,4.8
		c-8.2,1.2-16.4,5.4-20.7,12.8c-4-1.4-8.1-3.3-10.5-7c-0.8-1,0-2.2,0-3.3C431.1,295.7,434,295.6,436.7,294.8 M409.3,305.6
		c3.5,0.1,7.1-0.1,10.6-0.7c-1.1,7.1-0.8,14.3,0.4,21.4c-4-5.2-10.3-8.8-16.9-8.7c-3,0.3-6,1.7-7.5,4.4c-3.2,5.7-3.3,12.6-1.7,18.7
		c-5.4-1.8-9.7-6.5-10.5-12.2c-0.6-5-0.7-10.4,1.5-15.1c1.6-3.5,5.3-6,9.2-5.8c6.2,0.3,12.4,3.6,15.9,8.8
		C409.8,312.9,409.5,309.3,409.3,305.6 M488.3,305.5c9.8,4.9,14,16.5,13.4,27c0.3,5-2.1,9.5-4.6,13.6c-2.2,3.1-5.2,5.5-7.8,8.2
		c-6,5.5-13.1,9.5-19.1,14.9c1.5,0.4,3,0.8,4.5,1.2c-5.7-0.8-11.6-0.8-17,1c-6.4,1.9-11.9,6-16.6,10.6c2.4-5.8,6.1-11,10.5-15.4
		c8.4-8.4,18.8-14.5,27.8-22.2c5.7-4.9,11-11.2,12.1-18.9C492.4,318.7,491.3,311.7,488.3,305.5 M451.7,311.1c0.4-0.3,1.1-1,1.5-1.4
		c3.7,2,6.8,5.2,7.3,9.6c-3.9,0.5-8.1,1.5-10.7,4.7c-1.5,2.1-2.2,4.5-3.1,6.8C445,323.8,446.9,316.3,451.7,311.1 M250.4,344.2
		c7.1,0.6,13.9,3,20.6,5.3c2.4,2.2,4.6,4.8,5.2,8.1c-5.3-1.3-10.5-3-16-3.4c-0.1,14.4,0,28.9-0.1,43.3c-0.1,1.7,0.3,3.3,0.8,4.9
		c-3.2,1.7-6.7,3.7-10.5,3.4C250.5,385.3,250.4,364.8,250.4,344.2 M416.1,344.3c4.1,5.1,6.9,12,4.8,18.6c-3.3,9.6-14.7,15-24.3,12
		c-0.1,3.8-0.9,7.6-0.5,11.4c1.6,3.5,4.1,6.6,5.2,10.4c3.8,12.5,4.2,25.7,7.6,38.3c1.1,4.9,3.2,9.5,4.5,14.4c-3.7-2.3-6.3-5.9-9-9.2
		c-3.7-7.8-6.5-16.2-7.7-24.8c-1.5-9.3-2.5-18.8-5.2-27.9c-1.2-4-3.1-7.6-5.7-10.8c0.2-4,0.7-8,0.9-12c8.7,3.3,19.2-1.4,23.4-9.5
		c1.4-2.7,1.5-5.8,1.6-8.7c0.3,1.1,0.6,2.3,1,3.4C414,348.2,415.1,346.3,416.1,344.3 M491.6,383.1c9.2,3.7,13.8,15.2,10.6,24.4
		c-1.8,6.8-6.8,12.4-12.6,16.2c-2.4,0.9-4.9,1.4-7.2,2.4c4-4,4.2-10.6,1.2-15.3c4.7-4.3,8.5-10.1,9.4-16.5
		C493.5,390.6,492.9,386.7,491.6,383.1 M451.7,398.6c2.3-2.4,5.1-4.9,8.6-5.1c6.3-0.3,12.1,4.2,14.5,9.9c-3,0.2-6.5-0.5-9.1,1.4
		c-3,1.8-5.8,5.3-4.8,9c1.4,4.7,4.5,8.7,8.2,12c7.8,9.1,14.3,20.3,14.4,32.7c0.4,6.4-1.5,13.3-6.3,17.8c-5.2,5.2-12.7,7.4-19.8,8.1
		c-12.7,1.1-25.8-1.5-36.8-8.1c-2.7-1.6-4.9-3.9-7.2-5.9c0.5,6.1,4.2,11.1,6.9,16.4c-4.5-3.2-8.1-7.5-11.1-12.1
		c-2.8-4.4-5.1-9.3-6-14.5c8.4,8.7,20.4,12.9,32.2,14.3c9.7,1,20.2,0.1,28.7-5.3c5.7-3.6,9.2-10.1,9.7-16.7
		c0.6-9.2-2.1-18.5-7.1-26.2c-3.9-4.8-7.6-9.7-11.4-14.6c-2.7-3.5-5.2-7.7-4.2-12.2C451.2,399.2,451.6,398.8,451.7,398.6
		 M321.6,424.8c3.9-2.3,6.6-6,9.8-9.1c2.2,4.3,5.1,8.1,7.7,12.1c-5.4,4-9.9,9.1-15.4,13c-7.5,5.4-15.6,10.3-24.6,12.5
		c-2.9-4.6-8.4-6.6-13.6-6.3c-7.6-0.3-15.4,3.5-19.3,10.2c-1.5,2.5-1.6,5.4-1.9,8.2c-1.3-0.3-2.6-0.5-4-0.7
		c-0.2,14.5-0.2,29.1,0,43.7c1.4,0.1,2.7,0.1,4.1,0.2c0,4.6,0,9.2,0,13.8c-1.9,0.1-3.9,0.1-5.8,0.2c2,1.6,4.2,3.3,4.9,5.9
		c1.2,2.9,0.5,6-0.2,8.9c-4.9,0.6-9.8,2.1-13.5,5.5c-2-1.1-4.3-2-5.9-3.7c-1.2-1.7-1.9-3.6-2.6-5.5c-0.5-0.3-1.4-0.8-1.8-1.1
		c3,0.6,6.3,0.7,9.1-0.8c4.6-2.3,7.2-8.3,5-13.1c-0.8-2.8-3.2-4.5-5.4-6.2c2.1,0,4.3,0,6.5,0.1c0-4.7,0-9.3,0-14c-1.4,0-2.8,0-4.2,0
		c0-14.6,0.1-29.2,0-43.9c1.5,0.4,3.1,0.8,4.7,1.1c-0.1-0.3-0.4-1-0.5-1.4c0.2-2.2,0.3-4.5,1.4-6.5c4.9-9.3,17.3-13.3,26.9-9.7
		c2.7,0.9,4.6,3,6.3,5.3c8.7-2.5,16.7-7,23.9-12.3C316,429.1,318.6,426.7,321.6,424.8 M343.4,492.5c5.4-3.7,11.6-6.1,17.9-7.4
		c0.5,0.1,1.4,0.3,1.9,0.3c2.1,3.2,3.9,6.7,6.1,9.8c-8,2.4-16.4,5.7-21.6,12.6c-1.8,2.3-2.1,5.3-2.6,8c-5.2-2.1-9.2-7.7-8.4-13.3
		C337.9,498.7,339.9,494.8,343.4,492.5 M443.1,502.5c6.4,1,12.8-0.5,18.9-2.3c-7.9,9.4-14.5,20.3-17.4,32.4c-3.5,12-2.3,24.7-2.5,37
		c-0.1,3.5-0.5,7.7-3.8,9.8c-2.7,0.8-5.7,0.5-8.4,1.5c-3.2,1.7-4.4,5.3-4.9,8.7c-1.8-1-3.8-1.8-5-3.4c-1.2-1.8-1.5-3.9-2.2-5.8
		c-0.5-0.2-1.6-0.5-2.2-0.7l-0.3-0.5c0.2-2.5,0.6-5.3,2.8-7c2.8-2.5,6.9-1.7,10.2-2.8c2.2-1.1,3.1-3.6,3.4-5.8c1.1-8-0.4-16,0.4-24
		C432.6,526.5,436.1,513.5,443.1,502.5 M383.3,509.3c4.7,2.4,9.8,4,15.1,4.4c1.4,2.8,2.6,5.7,2.9,8.8c-4.7-1.5-9.1-3.8-12.8-7.1
		C386.5,513.6,384.1,512,383.3,509.3 M338.9,528c2.9-3.1,7.2-4.4,11.1-5.7c5,4.7,12,6.2,18.4,7.8c-6.7,1.4-13.6,3.2-19.2,7.3
		c-3.7,2.3-6.4,5.9-8.3,9.8c-2,3.5-1.2,7.7-2.3,11.4c-1.3,4.7-2.9,10-7.3,12.8c-4,2.8-9,3-13.5,4.6c-1.9,0.9-3.6,2.5-4.6,4.4
		c-1.2,2.2-0.8,4.7-0.9,7.1c-4.1-2-9.3-4.7-9.9-9.7l-0.1-0.8c0.2-2.7-0.1-5.7,1.8-7.8c2.4-3.3,6.6-3.9,10.3-4.8
		c4.7-1,9.3-3.8,11.6-8.2c3-6,3.1-13,6-19.1C333.5,533.5,336.2,530.7,338.9,528 M256.6,568.5c3.4-3,8.1-3.5,12.4-3.8
		c0.3,3.6,0.8,7.2,2.4,10.4c-2.4,1.6-5.3,3.1-6.8,5.8c-0.7,2.2-0.4,4.5-0.5,6.8c-2.4-1.6-4.7-3.5-5.9-6.2
		C256.3,577.4,258.3,572.6,256.6,568.5 M277.1,579.2c0.6-6.3,4.6-12.6,11.2-13.9c0.8-0.1,2.5-0.3,3.4-0.4c0.4,4.1,2.5,7.7,5.9,10.1
		c-2.8,1.6-5.9,3.1-7.6,6c-1.9,2.5-2.3,5.7-2.7,8.8c-5.1-1.9-7.7-7.4-8.3-12.5c-0.5,1-1,2-1.5,2.9L277.1,579.2 M370.4,576.3
		c3.3-6.4,11.5-6.5,17.8-6.6c0.3,3.6,0.5,7.5,3.2,10.3c-3.8,0.2-7.5,1.7-10,4.6c-0.9,1.6-1.3,3.5-2,5.3c-5.3-3.3-5.1-10.1-7-15.4
		C371.7,575.1,371,575.7,370.4,576.3 M399,572.1c2.6-1.8,5.8-2.2,8.9-2.5c0.3,4,2.3,7.8,6,9.6c-1.9,1.3-4.1,2.3-6,3.6
		c-2.5,2.3-2.9,5.8-3.6,8.9c-5-1.6-6.2-7.4-6.1-12c-0.8,0-2.4-0.1-3.2-0.2c0.1-0.5,0.3-1.6,0.4-2.2
		C396.2,575.5,397.1,573.3,399,572.1L399,572.1z"/>
	<path class="st9" d="M226.4,283.5c1.5,0.5,3.1,1,4.6,1.5c1,0.4,1.9,1,2.9,1.5c-2.1,1.2-4.2,2.3-6.5,3.1c0.5-0.4,1.4-1.2,1.9-1.6
		C228.1,286.5,227.1,285.1,226.4,283.5L226.4,283.5z"/>
	<path class="st10" d="M250.3,296.9c3.5,1.8,7,3.8,9.9,6.4c2.8,2.5,5.6,5,8.6,7.3c-6.2-2.4-12.4-4.9-18.7-7.1
		C250.1,301.3,250.2,299.1,250.3,296.9 M229.6,325.6c-2.1-2.5-1.8-6.1,0.7-8.2c4.5,0.3,8.9,1.6,13.1,3.3c1.4,0.5,2.6,1.4,3.5,2.6
		C241.3,325,235.4,325.9,229.6,325.6 M231.7,329.6c4.4-0.3,9.1-0.1,12.8,2.5c-3.4,1.9-7.2,3-11.1,3.5c-1.6-0.1-2.2-2-3.2-2.9
		C230.7,331.6,231.2,330.6,231.7,329.6L231.7,329.6z"/>
	<path class="st11" d="M45.1,344.3c2.9,1,4.8,3.5,5.3,6.5C47.9,349.3,46.3,346.9,45.1,344.3L45.1,344.3z"/>
	<path class="st12" d="M629.3,350.9c-0.2-3.3,2.1-5.7,5.2-6.6C633,346.8,631.5,349.2,629.3,350.9L629.3,350.9z"/>
	<path class="st13" d="M304.8,362c2.8,1.8,4.6,4.8,5.9,7.8c0,0.4,0,1.1,0,1.5c-7.6,4.2-15.3,8.2-22.7,12.7
		c-4.4-1.3-8.6-3.6-10.8-7.9c0.9-0.3,2.6-0.8,3.5-1.1c-1.1-0.5-2.2-0.9-3.4-1.4C287.7,375,299.3,371.2,304.8,362L304.8,362z"/>
	<path class="st14" d="M225.6,426.4c2.1-0.2,4.2,0.1,6.3,0.3c-2.9,4.7-6.7,9-8.1,14.6C221.6,436.5,222.1,430.4,225.6,426.4
		 M288.3,565.3c2.9-0.8,6-0.9,9-0.9c0.2,4.7,2.4,8.8,5,12.5l0.1,0.8c-1.7-0.9-3.4-1.6-4.9-2.7c-3.3-2.4-5.4-6-5.9-10.1
		C290.8,565.1,289.2,565.3,288.3,565.3 M407.9,569.7c1.7-0.1,3.4-0.1,5.1-0.1c-1.3,3.4,0.3,6.8,2.3,9.5l0.3,0.5
		c-0.4-0.1-1.3-0.2-1.7-0.3C410.2,577.5,408.2,573.7,407.9,569.7L407.9,569.7z"/>
	<path class="st15" d="M388.1,569.7c2-0.1,3.9-0.2,5.9-0.3c-0.6,2-1.6,4-1.6,6.1c0.2,1.9,0.8,3.6,1.4,5.4c0.5-1.2,1.1-2.4,1.6-3.5
		c-0.1,0.5-0.3,1.7-0.4,2.2c-0.2,1-0.5,1.9-1,2.8c-0.7-0.6-2.1-1.8-2.8-2.4C388.6,577.2,388.4,573.3,388.1,569.7L388.1,569.7z"/>
	<path class="st16" d="M138.2,587.3c1.3-1.4,2.6-2.9,4.3-4c1.7,0.9,3,2.5,4.4,3.8c4.5,4.3,9,8.7,13.6,12.9c-2,2.3-4,4.6-6.4,6.7
		c-2.8-2.7-5.8-5.2-8.3-8.2c-1.5,0.9-2.6,2.3-3.6,3.7c2.7,2.4,5.3,4.8,7.8,7.5c-2.1,2.1-4.2,4.3-6.3,6.5c-2.6-2.5-5.2-5.1-7.8-7.6
		c-3.6,3.5-6.8,7.3-10.5,10.7c-3.3-2.7-6.4-5.7-9.2-8.9C123.4,602.6,130.9,595.1,138.2,587.3 M119.6,610.4c1.9,1.9,3.7,3.8,5.7,5.6
		c3.6-3.5,6.9-7.4,10.6-10.9c2.4,2.6,5.2,4.9,7.6,7.5c1-1,2-2,3-3c-2.7-2.4-5.4-4.9-7.9-7.6c2.3-2.3,4.4-4.8,6.7-7.1
		c2.9,2.7,5.7,5.5,8.7,8.2c0.9-0.9,1.8-1.9,2.7-2.8c-4.6-4.8-9.5-9.3-14.4-13.9C134.9,594.5,127.3,602.4,119.6,610.4L119.6,610.4z"
		/>
	<path class="st17" d="M531.7,596.5c0.7-0.3,2-1,2.7-1.3c2.6,0.4,2.4,3.6,0.6,4.9C533.9,598.9,532.8,597.7,531.7,596.5L531.7,596.5z
		"/>
	<path class="st18" d="M537.9,606.5c1.9-1.7,3.7-4.4,6.6-4.3c3.3,0.2,7,3.6,5.8,7.1c-1.1,1.9-2.8,3.4-4.3,5.1
		C543,612,540.6,609.1,537.9,606.5 M541.4,606.4c1.5,1.6,3.1,3.1,4.7,4.6c0.6-1.1,1.2-2.3,1.9-3.4c-1.1-1.1-1.8-2.9-3.6-3
		C543.1,604.7,542.4,605.8,541.4,606.4L541.4,606.4z"/>
	<path class="st19" d="M502.5,610.3c2.2-2.4,5-4.3,7.8-6c5.2,7.3,10.5,14.5,15.8,21.7c3.2,4.5,2.7,11-1,15.1
		c-4,4.6-10.5,8.2-16.7,6.4c-3.6-0.8-6.1-3.9-8.2-6.7c-4.6-6.4-9.4-12.7-13.9-19.1c3.4-2.5,6.9-5,10.4-7.5
		c5.1,6.3,9.7,13.1,14.6,19.6c0.8,1.1,1.8,2.1,3.2,2.4c1.7-0.4,2.9-1.8,4.2-2.9c-0.7-1.9-1.6-3.6-2.9-5.2
		C511.3,622.2,507.1,616.1,502.5,610.3 M506,610.4c3.1,4.7,6.6,9.1,9.9,13.7c1.7,2.5,3.9,4.7,5,7.5c0.4,4.2-4.2,8.1-8.3,6.8
		c-1.5-0.7-2.6-2.1-3.6-3.3c-4.3-5.8-8.4-11.7-12.9-17.4c-2.1,1.6-4.2,3.1-6.4,4.5c4.6,6.4,9.3,12.8,14,19.2
		c2.6,3.7,7.7,5.1,11.8,3.4c4.5-1.8,9-5.2,10-10.2c0.7-2.9-0.5-5.8-2.2-8c-4.6-6.3-9.2-12.5-13.8-18.8
		C508.3,608.6,507.2,609.5,506,610.4L506,610.4z"/>
	<path class="st20" d="M164.5,611.8c9.9-3.3,21.5,3.5,23.6,13.6c0.6,4.2,0.5,8.6-1.3,12.5c-3.1,7.2-10.5,12.8-18.4,12.5
		c-8.3,0.3-16.2-5.9-18.1-13.9C147.6,626.2,154.5,614.8,164.5,611.8 M165,614.2c-7.9,2.7-13.6,11-12.5,19.4c0.4,9.5,11,16.6,20,13.9
		c9.9-2.4,16.3-14.2,12.6-23.7C182.2,616,172.9,611.5,165,614.2L165,614.2z"/>
	<path class="st21" d="M171.5,618.7c4.5-1.2,9.1,3.3,8.3,7.7c-0.9,5.3-4.1,9.9-8,13.5c-1.7,1.7-3.9,3-6.4,3.1c-4.2,0-8-4.5-6.7-8.6
		c0.8-3.8,2.9-7.2,5.4-10.2C166.1,621.8,168.5,619.5,171.5,618.7 M167.3,624.4c-2.9,3.1-5.5,6.9-6.2,11.2c-0.6,3.3,3.6,6.2,6.4,4.3
		c5.3-3,8.7-8.7,10.2-14.4c-0.8-1.6-1.4-3.7-3.4-4.2C171.5,620.5,169.1,622.5,167.3,624.4L167.3,624.4z"/>
	<path class="st22" d="M460.7,636.3c3.7-2.1,7.5-4.1,11.1-6.3c5.1,8.2,9.2,16.9,14.4,25c3.4-2.1,6.8-4.2,10.4-5.8
		c2.2,2.2,3.2,5.4,4.8,8.1c-7.3,4.2-14.8,8.3-22.2,12.4C473.1,658.5,466.9,647.4,460.7,636.3 M464.1,637.4
		c5.5,9.6,10.8,19.2,16.2,28.9c6-3.4,12-6.6,18-10.1c-0.9-1.3-1.7-2.5-2.6-3.8c-3.5,2.2-7.1,4.1-10.8,6c-4.4-8.4-9.2-16.6-13.8-24.9
		C468.7,634.6,466.3,635.8,464.1,637.4 M260.5,694.3c2.5-12.4,5.2-24.7,7.7-37.1c5,0.7,9.9,2,14.8,2.9c3,0.6,6,1.5,8.2,3.7
		c4.5,4.2,4.5,12.3-0.3,16.4c3.1,5.2,1.8,12.9-3.5,16.2c-3.5,2.4-8.1,2.1-12,1.2C270.4,696.4,265.4,695.6,260.5,694.3 M263.4,692.4
		c4.6,1,9.3,2,14,3c2.4,0.5,5.1,0.6,7.4-0.4c5.8-2.2,7.5-11.3,2.3-15c1.8-1.5,4.1-3,4.7-5.5c1.5-4.5-1.4-10-6.1-11.1
		c-5-1.4-10.3-2.2-15.3-3.4C268,670.8,265.7,681.6,263.4,692.4L263.4,692.4z"/>
	<path class="st23" d="M203.9,634c7.7-1.6,16.2,2.1,20,9c5.8,9.9,0.8,23.9-9.4,28.6c-6.3,3.1-14.3,2-19.7-2.4
		c-6.1-4.8-8.5-13.5-6-20.8C190.8,641.5,196.7,635.6,203.9,634 M203.5,636.7c-8.1,2.1-13.7,10.5-13.1,18.8c0,5.1,2.9,10.1,7.3,12.8
		c4.9,3.3,11.8,3.5,16.9,0.5c8-4.5,11.7-15.6,7.5-23.8C218.8,638.3,210.6,634.8,203.5,636.7 M429.7,653.6
		c3.4-6.3,10.5-10.8,17.8-10.2c4.6-0.1,8.7,2.2,12.2,4.9c-1.6,2.6-3.1,5.2-4.9,7.6c-2.6-1.5-5.2-3.5-8.3-3.8
		c-2.3,0.3-4.6,1.5-5.7,3.6c-1.5,2.8-0.8,6,0.2,8.9c1.2,3.3,3.2,6.7,6.6,8.1c2.8,1,5.8-0.3,7.5-2.6c1.9-2.3,1.6-5.5,1.8-8.3
		c3.1,0.3,6.3,0.7,9.4,0.9c-0.1,5-0.9,10.4-4.6,14.1c-6.3,7.4-18.5,8.5-26.1,2.6C427.7,673.7,425.2,662.1,429.7,653.6 M430.2,659.7
		c-1.6,7.6,2.5,16.1,9.6,19.4c2.6,1.4,5.7,1.6,8.6,1.5c7.5-0.2,14.8-6.3,14.9-14.1c0.6-2.7-2.7-1.4-4.2-1.7
		c0.2,5.8-4.9,11.6-10.9,10.7c-4.7-0.9-8-5.1-9.5-9.4c-1.1-3.2-2.3-6.9-0.9-10.2c1.2-3.7,4.9-5.8,8.5-6.3c2.7,0.4,5.2,1.7,7.6,3
		c0.8-1.1,1.5-2.3,2.3-3.4c-2.7-1.7-5.7-3.2-8.9-3.2C439.4,645.2,431.5,651.7,430.2,659.7L430.2,659.7z"/>
	<path class="st24" d="M206.7,641.7c3.9-2.4,9.6,0.5,10.1,4.9c0.5,4.5-1.4,8.8-3.6,12.6c-1.8,3-4.2,6-7.8,6.9
		c-3.7,0.9-7.5-2-8.1-5.6c-0.5-3.5,0.8-6.9,2.2-9.9C201.2,647.1,203.5,643.8,206.7,641.7 M208.6,643.7c-2.5,1-4.1,3.3-5.4,5.5
		c-1.8,3.1-3.6,6.5-3.3,10.3c-0.1,3.3,4.4,5.7,6.9,3.4c4.1-3.2,6.5-8.3,7.6-13.3C215.5,646.3,212,642.2,208.6,643.7L208.6,643.7z"/>
	<path class="st25" d="M316.9,658.6c1.7,1.9,2,4.6,2.9,6.9c4.2,12.9,8.3,25.9,12.5,38.8c-4.6-0.1-9.1-0.7-13.6-1
		c-1-2.7-1.8-5.5-2.5-8.3c-1.9-0.2-3.8-0.4-5.7-0.4c-1.8,2.3-2.6,5.3-4.1,7.9c-3.4-0.2-6.9-0.5-10.2-1
		C303,687.2,310.1,673,316.9,658.6 M311.1,676.3c-3.6,7.8-7.7,15.3-11.1,23.1c1.6,0.1,3.2,0.2,4.8,0.3c1.3-2.6,2.6-5.1,3.8-7.8
		c3.1,0.2,6.1,0.4,9.2,0.6c0.9,2.8,1.9,5.7,2.8,8.5c2.7,0.1,5.4,0.3,8,0.5c-3.7-12.2-7.7-24.3-11.7-36.4
		C314.6,668.6,313.1,672.6,311.1,676.3L311.1,676.3z"/>
	<path class="st26" d="M368.6,664c4.2-0.6,8.4-1.2,12.7-1.9c1.4,9.4,3.1,18.7,4.2,28.1c4.2-0.4,8.4-1.1,12.6-1.8
		c0.4,3.2,1,6.3,1.3,9.5c-8.4,0.9-16.6,2.6-24.9,3.7C372.4,689.2,370.4,676.6,368.6,664 M371.4,666.2c1.8,10.9,3.4,21.8,5.2,32.6
		c6.7-0.9,13.3-2.1,20-3c-0.1-1.4-0.2-2.9-0.4-4.3c-4.2,0.2-8.4,1.2-12.6,1.7c-1.3-9.4-3-18.8-4.3-28.2
		C376.7,665.4,374,665.8,371.4,666.2L371.4,666.2z"/>
	<path class="st27" d="M277.1,665.6c2.2,0.4,4.3,1.1,6.2,2.1c1,2.5,1.3,5.9-1.1,7.7c-2.2,1-4.7,0.2-7,0
		C275.7,672.1,276.5,668.9,277.1,665.6 M278.9,668.6c-0.3,1.7-0.5,3.4-0.8,5.1c0.8-0.1,2.3-0.3,3-0.4c0.3-1.2,0.4-2.5,0.5-3.7
		C280.7,669.2,279.8,668.9,278.9,668.6L278.9,668.6z"/>
	<path class="st28" d="M278.9,668.6c0.9,0.3,1.8,0.6,2.8,0.9c-0.1,1.3-0.2,2.5-0.5,3.7c-0.8,0.1-2.3,0.3-3,0.4
		C278.4,672,278.6,670.3,278.9,668.6L278.9,668.6z"/>
	<path class="st29" d="M271.9,690c0.8-3.6,1.6-7.2,2.3-10.8c2.2,0.4,4.6,0.5,6.5,2c2.5,2.7,2.1,8-1.5,9.6
		C276.8,691.3,274.3,690.6,271.9,690 M275.1,688.5c0.9,0,2.6,0.1,3.5,0.1c0.8-1.5,2-3.4,0.9-5.1c-0.6-0.4-1.7-1.3-2.3-1.7
		C275.3,683.5,275.5,686.2,275.1,688.5L275.1,688.5z"/>
	<path class="st30" d="M275.1,688.5c0.4-2.3,0.3-4.9,2.1-6.7c0.6,0.4,1.7,1.3,2.3,1.7c1.1,1.7-0.1,3.6-0.9,5.1
		C277.7,688.6,275.9,688.5,275.1,688.5L275.1,688.5z"/>
</g>
</svg>
