<?xml version="1.0" encoding="utf-8"?>
<!-- Generator: Adobe Illustrator 23.1.0, SVG Export Plug-In . SVG Version: 6.00 Build 0)  -->
<svg version="1.1"
	 id="svg2" xmlns:cc="http://creativecommons.org/ns#" xmlns:dc="http://purl.org/dc/elements/1.1/" xmlns:rdf="http://www.w3.org/1999/02/22-rdf-syntax-ns#"
	 xmlns="http://www.w3.org/2000/svg" xmlns:xlink="http://www.w3.org/1999/xlink" x="0px" y="0px" viewBox="0 0 148.3 148.3"
	 style="enable-background:new 0 0 148.3 148.3;" xml:space="preserve">
<style type="text/css">
	.st0{fill:#02195C;}
	.st1{fill:#F80A04;}
	.st2{fill:#FFFFFF;}
</style>
<path class="st0" d="M74.2,0C33.2,0,0,33.2,0,74.1c0,41,33.2,74.2,74.2,74.2c41,0,74.2-33.2,74.2-74.2C148.3,33.2,115.1,0,74.2,0z"
	/>
<path class="st0" d="M93,70.1l-0.6,0.9c0,0.4-0.6,0.8-1.1,1c-1.1,0-2.1-0.1-3-0.2l-0.2-0.2l0-0.6l-0.3-0.8l-0.1-1.7
	c-0.5-0.9-0.4-1.1-1.3-1.7l0-0.4l-1.2,0.1L85,67.3c-1.1,0.3-2.5-0.1-3.5-0.4l-0.4-0.5c-0.2-0.5-0.5-1-0.7-1.6c-0.7-0.6-0.4-2-0.6-3
	l-0.4-0.7c-0.9-0.2-1.1-0.6-1.3-1.1c-0.5-1.6-0.2-3.2-0.5-4.8l-0.4-0.5l-0.2-0.5l-0.2-0.8c-0.5-0.5-0.6-0.2-0.9-1
	c-0.7-0.3-1.3-0.6-2-0.9c-1.1-0.6-2.4-0.9-2.9-2.1l-0.2-0.2L69.3,49l-0.6,0.3l0,0.3l-1-0.3l-0.4-0.1l-0.2-0.2l-0.7,0l-0.2,0.2
	L65.7,50l-0.5,0.3l-0.8,0.3L64,50.1c-0.2-1.2-0.1-1.7-1-2.6l-0.5,0l-1.6,0.2l-0.4,1.1l1,0.2l0.2,0.2l0.1,1.6l-0.2,0.4l-0.4,0.1
	l0,0.3L61,51.8c-0.3,0.3-0.5,0.6-0.2,1l0,0.4l0.4,0l0,0.5c0.3,0.7,0.5,1.1,1.2,1.8c1.7-0.1,1.4,1.6,1.7,2.3c-0.2,0.8-0.1,1-1,1.1
	c-1,0.3-1.1,0.5-1.9,1l-0.2,0.4c-0.4-0.2-0.9-0.4-1.3,0l-0.5,0c-0.4-0.7-1.8-0.4-2.5-0.4l-1,0.2c-0.7,0-0.8,0.5-1.7,0.4l-0.3,0.3
	c-0.5-0.3-1.1-0.4-1.6,0.4c-1.3,0.3-1.6,0.7-1.8,1.9c-0.3,0.7-0.9,1.8-1.7,2.4c-0.9,0.6-1.1,1.4-1.7,2.1c-1,0.6-2.5,1.9-3.3,2.7
	l-1.4,1.3c-1.1,0.8-1.8,1.3-2.4,2.7c-0.8,0.8-1.7,1.5-2.8,2.1l5.6,0.5l-0.2-2.4l0.2-0.5l0.6-0.3l0.4-0.3l0.5-0.4l0-0.4l0.4-0.5
	l0.4-0.1l0.1-0.4l0.5-0.2l0.3-0.5l0.4-0.1l0.3-0.3l0.4-0.4l0.7-0.1l0.7-0.3l0.2-0.3l0.2-0.2l0-0.3l0.2-0.2l0.7,0l0.8-0.3l0.3,0.3
	L50.5,70l-0.2,0.6l-0.2,0.5L50,71.7l0,2.8l8.4-8.2l2.8,0.6l0,0l0.7,0.2c0.8-0.4,1-0.8,2-0.7c0.4,0.4,0.8,1.9,1,2.6
	c0.7,0.6,0.4,0.8,0.7,1.4c0.2,1.4,0.5,2.1-0.1,3.3l-0.4,1.1c0.3,0.1,0.7,0.4,0.7,0.7c1.3,0.1,1.8,0.2,2.7,1c1.1-0.3,1.9,0,3,0.2
	l2-0.1c0.8,0.3,2.5,2.3,3,2.4c0.5,0.6,0.8,0.6,1.5,0.4c1,0.6,1.4,1,2.6,1.2c0.8,0.3,1.3,1.1,2,1.6c0.6,1.7,1.3,2.7,1.7,4.6
	c0.3,0.6,0.5,0.9,1,1.4l1.1,0.2l0.7-0.1c0.4-0.2,0.6,0.2,1,0.4c0-1.3-1.6-2.6-1.6-4.7c0.1-0.7,0.7-0.8,1.7-0.2
	c0.1,0.7,0.2,0.8,0.5,0.8c0.4,0,0.3-0.4,0.5-1c0.1-0.7-0.4-0.9-0.7-1.4c-0.3-0.8-0.3-1.3-0.2-1.5c0.3-0.3,1-0.2,2.1-0.1l0.4,0.2
	l0.4,0.4c0,0.8,0.3,1.1,1.1,1.2l0.5,0c-0.1-0.7-0.4-1.4-0.6-2.1c-0.6-0.8-1.6-2.6-3-3.1c-0.7-0.6-3.1-1.5-3.9-1.7
	c-0.6-0.4-3.3-2.3-3.9-2.4c-0.9-0.3-2.1-0.7-2.6-1.6c-0.7-1-0.6-2.5-0.7-3.3c0.3-0.1,0.8-0.5,1.4,0.1l0.5,0.1l0.3,0.4l0.2,0.5
	l0.7,0.5l0.8,0.8c1.5,0.5,2.4,1.3,4.7,2.6c0.9,0.7,2.1,0.8,2.9,1c0.6-0.9,0.4-1,1.5-1.3l0.4-0.3c0.8-0.3,1.3-0.7,2.1-1l0.2-0.6
	l0.6-0.2l0.1-0.3l0.8-0.3l0.1-0.7l-0.6,0C93.9,69.6,94.4,69.9,93,70.1z"/>
<path class="st1" d="M77.2,67L77,66.7c0-0.5-0.3-0.8-0.6-0.9l0.1-2.2l0.2-1.1c-0.4-0.5-0.2-1.4-0.8-2c-1.1,0-2.1-0.4-3.1-0.6
	l-1.3,0.2l0.2-0.2l-0.2-0.5c0.5-1,0.3-1.3,0.1-2.4c-0.3-0.6-0.6-1.1-0.9-1.8c-0.6-0.5-0.8-1.4-0.8-2.1c-0.2-0.2-0.4-0.5-0.6-0.7
	c-1.1-0.9-0.9-1.3-0.9-2.1l-1.8,0.1c-0.6,0.9-0.7,2-1.4,3.8c-0.7,0.9-0.5,2-0.6,3c0.4,0,0.7,0.4,0.9,0.8l0.6,0.5l-0.2,0.9l0.3,1.4
	c0.1,1.3,1,1.6,2,1.7c0.8,1.1,0.7,1.3,2.2,1.7c0.2,1,0.4,2.6,1.2,3.3c-0.3,0.6-0.4,0.8-0.5,1.5l0.2,0.7c0,1,0.1,0.8,1.1,1.2v0
	l1.6-0.8l0-0.4c0.8-0.4,1.5-0.8,2.3-1.1c0.7-0.2,0.9-0.6,1.1-1.1L77,67.3L77.2,67z"/>
<polygon class="st1" points="49.6,68.5 48.9,68.5 48.7,68.7 48.7,69 48.5,69.3 48.3,69.6 47.6,69.8 46.9,69.9 46.5,70.3 46.2,70.7 
	45.8,70.8 45.6,71.3 45.1,71.5 45,71.9 44.6,72 44.2,72.6 44.2,73 43.7,73.4 43.3,73.7 42.8,74 42.6,74.5 42.6,75.9 49.9,74.1 
	50,71.7 50.2,71.1 50.4,70.6 50.5,70 50.7,68.5 50.4,68.2 "/>
<path class="st1" d="M62.5,55.5c-0.7-0.7-0.9-1.1-1.2-1.8l0-0.5l-0.4,0l0-0.4c-0.3-0.4-0.2-0.7,0.2-1l0.2-0.2l0-0.3l0.4-0.1l0.2-0.4
	l-0.1-1.6L61.5,49l-1-0.1c-0.6,0.4-1.3,0.6-1.9,1.2c-0.1,0.5-0.5,0.8-0.7,1.2l-0.4,0.1l-0.1,0.4l-0.7,0.4c-1.1,1.3-2,0.5-3.2,1.3
	c-0.5,0.4-0.6,0.9-1,1.3c-0.5,0.6-1.1,1.1-1.6,1.4c-1.2,0.7-1.5,2.3-1.8,2.8c-0.4,0.8-0.6,1-1.5,1.4c-0.2,0.6-0.7,1.8-1.1,2.3
	c-0.4,2.4-1.7,2.9-3.2,4.6c-0.8,0.4-0.8,0.7-1.9,1.1c-1.1,1.1-2,2.7-3.3,3.6c0.7,1.3,0.7,1.6,1.6,2.3c0.6-1.4,1.3-1.9,2.4-2.7
	l1.4-1.3c0.8-0.8,2.3-2.1,3.3-2.7c0.7-0.7,0.8-1.5,1.7-2.1c0.8-0.6,1.4-1.7,1.7-2.4c0.2-1.2,0.5-1.6,1.8-1.9
	c0.5-0.8,1.1-0.6,1.6-0.4l0.3-0.3c0.9,0.1,1-0.3,1.7-0.4l1-0.2c0.7,0,2.1-0.3,2.5,0.4l0.5,0c0.4-0.3,0.9-0.1,1.3,0l0.2-0.4
	c0.8-0.6,1-0.8,1.9-1c0.9-0.2,0.7-0.3,1-1.1C63.9,57,64.2,55.4,62.5,55.5z"/>
<path class="st2" d="M74.9,83.6H37.3v2.8c2.4,0,6.4,0,6.4,4.4l0,0v34.3c0,4.4-4,4.4-6.4,4.4v2.8h23.2v-2.8c-2.4,0-6.4,0-6.4-4.4v-15
	l10.6,0c3,0,4.5,3.5,4.5,6.2l3.8-0.1l0-17.4h-3.8c0,4.4-1.9,6-4.6,6l-10.5,0V89.2H67c2.2,0,7.1,2.6,10,7.7c1.2-0.6,2.3-1.2,3.5-1.8
	L74.9,83.6z"/>
<path class="st2" d="M42.5,80.7c10.3-0.4,16.2-6.5,18.2-17.2l-4.2-0.7c-1.6,7.2-7.2,13.3-15,12.3c-9-1.1-11-11.8-10.8-20.6
	c0.2-7.9,1.4-17.6,10.9-19c6.9-1,11.2,3.8,14.7,9.1l3.4-1.7L54,30.2l-3.1,0l-0.7,1.4C44,29.4,37,29,31.2,32.4
	c-2.3,1.3-4.2,3.1-5.9,5.3c-3.7,5-5.5,12.3-5.5,18.1C19.8,69.3,27,81.3,42.5,80.7z"/>
<path class="st2" d="M101.9,128c-9-1.1-11-11.8-10.8-20.6c0.2-7.9,1.4-17.6,10.9-19c6.9-1,11.2,3.8,14.7,9.1l3.4-1.7l-5.8-12.9h-3.1
	l-0.7,1.4c-6.2-2.1-13.2-2.5-19.1,0.9c-2.3,1.3-4.2,3.1-5.9,5.3c-3.7,5-5.5,12.3-5.5,18.1v0c0,13.4,7.2,25.4,22.7,24.8
	c10.3-0.4,16.2-6.5,18.2-17.2l-4.2-0.7C115.2,122.9,109.6,128.9,101.9,128z"/>
<path class="st1" d="M120.6,106.3c-0.6-0.3-0.7-0.6-0.9-1.2c-0.7-0.4-1.4-0.8-2.2-0.7c-1.1,0.1-2.8-0.3-3.9-0.4l-0.6-0.7
	c-1-0.6-2.7-5.4-3.1-6.4c-0.6-1.2-1.2-3-1.6-4.2c-0.5-1.4-0.9-3.1-1.2-3.8c-1.5-4-2.3-5.4-2.9-7.3c-0.5-1.3-1.3-4.2-2.2-6.1l0.1-1.8
	c0.2-0.7,1.3-2.7,1.8-3.2l0.2-0.8l-0.2-0.5c0.3-0.8,0.8-1.5,0.7-2.3l0.2-1.2l0.1-1.2l-0.2-1.9l0.4-0.7l-0.1-1.9l0.4-0.1
	c0.4-1.3,0.8-1.8,0.8-2.6c0-1.7-0.3-3.4-0.1-5.1c0.3-2.8-0.6-5.5-0.1-8.4l-0.2-1.3c0.3-2,0.1-4-0.1-6c-0.7-3.8-1.7-5.7-2.5-8.3
	c-0.5-0.6-0.6-1.1-0.9-1.9c-0.8-0.5-1.1-1.4-1.8-1.7c-0.8-0.5-1.2-3-1.5-4.1c-1.4-2.7-2.1-4.1-4.1-6.3c-1.3-1.7-1.1-1.6-3.4-2.1
	c-1-0.4-1.7-0.6-2.7-1.3l-1.2-0.1c-1.5-0.3-2.7-0.9-4.1-1.5c-0.7,0.1-3.2,0.4-3.7,0.9l-1.2-0.6L77.7,9l-0.8,0.4l-1.4-0.1
	c-2.4,1.2-3.6,4.8-5.4,7c-1,0.9-1.7,1.5-2.4,2.5l-0.9-0.1L66.2,19c-2.1,0.6-3.7,1.7-4.5,2.7L62,23c0.3,1.1,0.1,3.2,1.1,3.4
	c-0.5,2.2-0.2,3.8,2,4.5l0.5,0.6c-0.2,2-1.5,5.1-3,6.2l-0.4,0.5c-0.6,2.8-0.6,5.8-1.5,8.5l0,0.5l0.2,0.4l1.6-0.2l0.5,0
	c0.9,0.8,0.8,1.4,1,2.6l0.4,0.4l0.8-0.3l0.5-0.3l0.6-0.6l0.2-0.2l0.7,0l0.2,0.2l0.4,0.1l1,0.3l0-0.3l0.6-0.3l1.4,0.1l0.2,0.2
	c0.6,1.2,1.8,1.5,2.9,2.1c0.7,0.3,1.3,0.7,2,0.9c0.3,0.8,0.4,0.5,0.9,1l0.2,0.8l0.2,0.5l0.4,0.5c0.3,1.7-0.1,3.2,0.5,4.8
	c0.2,0.6,0.5,0.9,1.3,1.1l0.4,0.7c0.3,1-0.1,2.4,0.6,3c0.2,0.5,0.5,1.1,0.7,1.6l0.4,0.5c1,0.3,2.5,0.8,3.5,0.4l0.2-0.7l1.2-0.1
	l0,0.4c0.9,0.7,0.8,0.9,1.3,1.7l0.1,1.7l0.3,0.8l0,0.6l0.2,0.2c0.9,0.1,1.9,0.2,3,0.2c0.4-0.2,1.1-0.6,1.1-1l0.6-0.9
	c1.3-0.3,0.9-0.5,1.8-0.9l0.6,0l0,0l0,0l0,0L95.2,70l-0.8,0.3l-0.1,0.3l-0.6,0.2l-0.2,0.6c-0.8,0.3-1.2,0.7-2.1,1l-0.4,0.3
	C90,73,90.3,73.1,89.7,74c-0.7-0.1-2-0.3-2.9-1c-2.3-1.3-3.1-2.1-4.7-2.6l-0.8-0.8l-0.7-0.5l-0.2-0.5l-0.3-0.4l-0.5-0.1
	c-0.6-0.5-1.1-0.2-1.4-0.1c0.1,0.8,0,2.3,0.7,3.3c0.6,0.8,1.7,1.3,2.6,1.6c0.6,0.1,3.4,2,3.9,2.4c0.8,0.3,3.2,1.1,3.9,1.7
	c1.4,0.5,2.4,2.3,3,3.1c0.2,0.7,0.5,1.4,0.6,2.1l-0.5,0c-0.8-0.1-1.1-0.4-1.1-1.2L91,80.8l-0.4-0.2c-1.1-0.1-1.8-0.2-2.1,0.1
	c-0.2,0.2-0.2,0.7,0.2,1.5c0.2,0.5,0.7,0.7,0.7,1.4c-0.2,0.6-0.1,1-0.5,1c-0.3,0-0.4-0.1-0.5-0.8c-1-0.6-1.6-0.5-1.7,0.2
	c0,2.1,1.6,3.4,1.6,4.7c-0.5-0.2-0.7-0.6-1-0.4l-0.7,0.1l-1.1-0.2c-0.5-0.4-0.7-0.8-1-1.4c-0.4-1.9-1.1-2.9-1.7-4.6
	c-0.7-0.6-1.2-1.3-2-1.6c-1.2-0.2-1.6-0.6-2.6-1.2c-0.7,0.2-1.1,0.1-1.5-0.4c-0.6-0.1-2.3-2.1-3-2.4l-2,0.1c-1.1-0.2-2-0.4-3-0.2
	c-0.8-0.8-1.3-0.9-2.7-1c-0.1-0.3-0.4-0.6-0.7-0.7l0.4-1.1c0.6-1.2,0.3-1.9,0.1-3.3c-0.3-0.6,0-0.8-0.7-1.4c-0.2-0.7-0.6-2.2-1-2.6
	c-1-0.1-1.2,0.3-2,0.7l-0.2,0.4l0.3,1.8c0,0.8,0.1,1.3-0.3,2l-0.2,0.7c-0.2,1.1-0.5,2.7-0.8,3.5l0.2,0.4c0.3,0.8,0.2,0.9,1,1.4
	c0.6,0.6,1,0.9,1.6,1.4l2.9,0.3c2.1,0.2,3.3,1.7,5.6,1.9c1.3,0.5,3.3,1.2,5,2.1l0.6,0.8c1,0.7,2.3,1.7,3.3,2.3
	c0.5,0.2,0.6,1.2,1.2,1.5c0.4,0.8,0.5,0.8,0.6,1c0.1,0.2,0.1,0.6,0.2,1.5c0.7,0.8,0.9,1.5,2,1.7l2.5,0.3l7-1.6
	c1.6,1.1,2.4,1.6,2.8,3.8c0.8,0.8,0.9,1.4,1.1,2.6l0.3,0.4c0.6,0.8,0.9,1.7,1.3,2.5l0.2,0.5l0,0.4c0.7,0.5,0.7,0.5,0.9,1.3l0.2,0.2
	l0.2,0.6c1,0.7,1.2,2.5,1.3,3.7c0.5-0.1,0.9,1.5,0.9,2.5c0.3,1,0.3,2.5,0.5,3.5c1.7,0.8,2.8,1.4,5,0.9c1.2-0.1,2-0.6,3.6-0.3
	l1.3-0.3c1.7,0.1,3.3,0.1,4.9,0l2.1,0.2l0.2-0.2c0.6-0.7,0.9-1.7,1.1-2.6C122.4,108.7,121.9,106.9,120.6,106.3z"/>
<g>
	<g>
		<path class="st0" d="M100,38.9c0.2,1.4,0.1,1.9,1.3,1.9c1-0.6,0.8-2.3-0.4-2.6C100.6,38.3,100,38.6,100,38.9z"/>
		<path class="st0" d="M100.5,27.3c-1-0.3-1.8-0.3-2.3,0.3l0.1,0.8C99.9,28.9,101.2,29.3,100.5,27.3z"/>
		<path class="st0" d="M93.2,16c0.6,0,0.7,0.2,0.9,0.7c0.1,0,0.2,0.1,0.3,0.1c-0.2-0.7-0.4-1.2-1-1.7c-0.5-0.4-1.2-0.4-1.8-0.1
			C91.8,15.1,92.1,15.7,93.2,16z"/>
		<path class="st0" d="M93.7,27.1c0.6,0.1,0.9,0.5,1.1,1.2c0.4,0.3,0.7,0.4,1.1,0.2c0.2-0.2,0.4-0.7,0.5-1.5l-0.1-0.6
			c-0.7-0.5-1.4-0.8-2.3-0.7C93.4,25.9,93.1,27,93.7,27.1z"/>
		<path class="st0" d="M91,58.7l0.8,0.6l0.3,0.7l0.5,0.6l0.4-0.7c0.2-0.7,0.5-0.9,1-1.4c1-0.4,1.1-0.7,1.3-1.7L96,56l0.2-0.6
			c0.4-0.9,0.9-1.5,1.1-2.3c0.9,0.4,2.2,0.9,3.2,0.9c0.4,1,0.5,1.3,0.5,2.5l0.6-0.2c-0.2-1.6-0.2-4.8-0.5-4.8
			c-0.9-0.2-2.3-0.6-2.5-1.9c-0.5-1-0.9-2.5-1.3-3.7l-0.4-1.3c-0.6-1.3-0.3-2.6-0.6-4c-0.6-2.4-0.4-2.6,1.9-3c0.1,0,0.2-0.1,0.3-0.1
			c0-0.4,0.1-0.9,0.1-1.3c0.3-1.4,0.2-2.4-0.4-3.8c-0.2,0-0.5,0.1-0.7,0.1c-0.2,0.2-0.2,0.2-0.2,0.5c-1.2,0.5-2.1,0.3-3.1-0.7
			c-0.1-0.1-0.1-0.1-0.2-0.2c-1.2-0.2-1.4-0.4-2.4-0.9c-0.4-0.2-0.8-0.4-1.3-0.6c-0.1-1.2-1.4-1.7-2.4-2c-0.1-0.2-0.3-0.4-0.4-0.6
			l-0.1-0.5c-0.1-1.2-0.4-0.9-1.5-1.4c-0.8-0.6-1.3-0.8-1.5-1.1c-0.7-1.2-0.5-1.9-0.1-2.1c0.4-0.2,5.6-0.2,6.7-0.2l2,0.3
			c0.1-0.5-0.1-0.8-0.6-1.1c-0.7-1-0.5-1.1-1.6-1.8c-3,0.1-3.7-0.7-5.6-2.2c-0.9-0.7-0.4-1.3-0.3-2.3l0.2-0.2l0-0.5l0.6-0.3l0.9-0.2
			l0-0.5c-0.5-0.3-1.1-0.5-1.6-0.1c-0.8,0.3-1.6,0.7-2.5,0.9l-1.7,0.2L80.5,15l-1.4,0.2l-0.3-0.5c-0.6-0.4-1.3-0.6-1.9-1l-0.2-0.6
			l-0.8,0.1c-0.4,0.9-1.9,0.6-1.8,1.9l0.2,0.7l0.2,0.6c-0.1,1.1,0,1.9-0.9,2.5l-1.3,0.6l-0.2,0.3L72,20.5l-0.2,0.6
			c-1,0.9-1.5,0.7-2.4,0.3l-0.6-0.8l-0.2,0.5l-0.2,0.6c0,1-1.4,2.1-2.2,2.6c-1.1,0.5-1.1,0.9-1.1,1.7l0.6,0c0.3-0.1,0.7-0.5,1.2-0.6
			c1-0.8,0.9-0.7,1.6-1.1c0.7-0.1,2.3,0.2,2.9,0.7l1.2,0.5l0.9-0.4c0.7-0.1,1-0.3,1.4,0.4c0.2,1.4,0.5,3,0.9,4.3
			c0.5,1,1.1,1.9,1.9,2.4c0.2,0.4,0.3,0.4,0.1,0.8c-0.3,1-0.9,1-1.8,1.5l-1.7,0.6c-0.2,0.1-1.1,1-1.9,1.1c-0.6,0.1-1.2,0.1-1.8,0.1
			c-0.9,0-0.8-1.3-0.9-2.1l-0.6,0l-0.1,0.3l0.2,0.7l0.1,0.9l-0.1,0.6L69.1,37c-0.2,0.6-0.2,1.2-0.2,1.8l0.6-0.1l1,0.1
			c0.5,0,0.4,0.1,0.5,0.7c0.2,0.6,0.2,0.9,0.7,1.4l0.2,1.2l-0.2,1.8l0.9,0l-0.4-1.1c-0.1-2.1-0.5-3.6,0.5-4.1c1.1,0,2.1,0.1,3.2-0.1
			c0.5-0.8,1.1-2.1,1.5-3.1l0.3-0.2c0.8,0.1,1.1,0.1,1.9-0.3c0.5-1,0.9-1.9,1.3-3l0.6,0l0.9,0l-0.2-0.4L82,30.1
			c0.5-1.1,1.5-3.5,2.5-4.3c0.9,0.4,1.3,1.1,2.1,1.3c0,0.2,0.1,0.4,0.1,0.6c0.3,0.6,0.6,1.3,0.9,1.9c0,0.9,0.1,0.7,0.8,1.1
			c0.8,0.2,1.5,0.4,2.3,0.7c0.2,0.2,0.4,0.4,0.6,0.6c0.7,0.5,1,0.7,1.6,1.3c0.9,0.4,2.4,2.2,2.7,3c0.2,1.3,0.4,2.7-1.9,2.5
			c-0.1-0.1-0.1-0.2-0.2-0.3c-1.1-0.6-1.8-1-2.4-1.5c-0.6-0.6-0.9-0.7-1.7-1c0.3,0.4,0.5,0.5,0.8,0.8c0.2,0.3,0.5,0.6,0.7,1
			c0.5,0.7,1.1,1.7,1.9,2c0.2,0.2,0.4,0.2,0.6,0.7c0.2,0.4,0.3,0.8,0.4,1.2c0.5,0.8,0.2,2.6,0.2,3.6c-0.2,1.4,0.2,2.6,0,4
			c-0.2,0.3-0.4,0.5-0.6,0.6l-0.4,0l-0.8-0.7l-0.4-0.3l-0.2-0.7c-0.4-1.4-0.2-2.1-1.3-3.6c-1.2-0.9-2-2.3-1.1-3.8
			c-0.1-1.2-0.5-1.3-1.5-2c-0.3-0.4-0.5-0.8-0.8-1.2c-0.1-0.1-0.3-0.1-0.4-0.2c0-0.4,0.1-0.7,0.1-1.1c0.2-0.4,0.2-0.6,0.2-1
			c-0.1,0-0.2,0.1-0.3,0.1L84.3,35c0.3,1,0.5,1.7,1.2,2.6c0.1,0.1,0.3,0.2,0.4,0.4c0.8,0.4,1.1,0.6,1.6,1.4c0.1,0.3,0.3,0.6,0.5,0.9
			c0.2,0.3,0.2,0.8,0.1,1.5l0.3,2.6l0.3,1.3l-0.1,1.3c-0.5,1.4-1.6,1.4-2.6,0.6l-0.9-1c-1-0.6-1-1-1.2-2.1c0-0.9-1.8-2.2-2.4-2.7
			c-0.1-0.4-0.2-0.6-0.4-0.9c-0.5-0.3-0.9-0.2-1.1,0.2c0.2,1,0.5,1.9,0.5,2.9l1.2,0.4c1,1.4,1.3,3.1,0.9,4.3c-0.3,1.1-1,1.2-2.5,0.1
			c-1-0.6-1.5-2.5-1.7-3.2l-1.5-0.5c-1.3-0.6-2.1-1.4-2.8-0.8c-0.1,0.6,0,1.4-0.3,1.9c-0.7,2.2,2.7,3.2,4.2,3.6
			c0.5,0.4,1,0.7,1.6,1.4c-0.2,0.7,0.5,1.4,1.2,1.6l0,0.5l0.6,0.3l0.2,0.2l0.8,0.1l0.1,0.4c1.1,1,0.9,1.2,2.5,1.1
			c1.7,0.9,2.6,1.9,3.4,3.8l0.2,1.6c0.6,0.3,0.9,0.2,1.5,0.1l-0.2-0.8C89.1,58.4,89.7,58.3,91,58.7z M78,21.5
			c-0.3-0.1-0.9-0.1-1.3-0.3c-1.1-0.5-1.6-0.5-1.8-1.5c-0.4-1.2,0.2-1.4,1.2-1.8c0.5,0.1,0.6-0.1,1-0.4c0.5,0,1.2-0.2,1.6,0.1
			c-0.1,0.4-0.2,0.6-0.1,0.8c0.1,0.3,0.2,0.9,0.2,1.2c0,0.5,0.3,1.1,0.1,1.7C78.5,21.3,78.3,21.4,78,21.5z M79.4,25.5
			c-0.1-0.9-0.9-1.8-0.6-2.6c1.2-0.4,1.7-0.4,2.2,1c0.1,0.5,0.3,1,0.3,1.5C80.6,26.4,80,25.8,79.4,25.5z M82.3,18.1
			c-0.8,0.5-1.7,0.3-2.2,0.1c-0.7-1-0.4-1.3,0-1.7c0.8-0.3,1.2,0,1.9,0.1C82.3,16.7,82.7,17.7,82.3,18.1z M86.2,53.8
			c-0.8-1.5-0.8-2.7-0.3-4c0.1-0.4,0.8-0.4,1.3-0.4l0.6-0.4c0.8-0.3,2.1-0.8,2.6,0.1c0.2,0.4,0.2,0.9-0.2,2.2l0.2,0.1l0.2,0.3
			c1.1,0.3,1.4-0.4,2.1-0.1l0.3,0.6c0.3,0.7,0.2,1.2,0,1.5c-0.5,0.7-1.9,0.7-2.6,1.2C88.3,54.9,86.8,54.1,86.2,53.8z"/>
		<path class="st0" d="M106.2,109c-0.1,0.3,0.3,1.3,0.4,1.6c0.6,0.2,1.7,0.3,1.9,0.2c-0.1-0.3-0.1-1.1-0.2-1.4
			C107.8,108.9,106.5,108.8,106.2,109z"/>
		<path class="st0" d="M120,109.3c-0.4-0.8-0.8-1.4-1.1-2.3l-0.6,0l-0.3-0.4l-1.3,0.2c-1.3,1.1-2.9,0.7-4.1-0.2
			c-0.2-1-1-1.3-1.8-1.9c-0.8-1.1-1-2.2-1.8-3.2c-0.4-1-0.6-1.9-0.8-3c-0.3-0.9-0.6-1.8-0.9-2.7l-0.4-0.3l-0.3-0.9
			c-0.4-1.3-0.9-2.6-1.3-4l-0.2-0.5l-0.3-1.8l-0.2-0.3l-0.2-0.6l-0.2-0.4c-2-3.8-2.9-5.1-4-9.2l0-0.3L99.5,77l-1.7,0.7
			c0.8,3.2,3.6,7.6,3.8,10.5l-0.1,0.9l-0.1,0.8l-0.8,0.1L99,88.7c-0.6-1.5-0.9-0.3-1.1,0.5l0.3,1c0.3,0.7,0.6,1.7,1,2.3
			c0.8,0.6,0.6,0.9,1.1,1.7c0.5,1.7,1.7,2.8,2.1,4.1l0.5,0.7c0.5,1.4,1.6,3.3,2.4,6l0.1,1.5l0.2,0.2l0.3-0.2l0.3,0.2
			c0.9-0.4,1.9-0.5,2.8-0.2l0.5,1.2c1,0.5,1.2,1.1,1.6,2l-0.4,0.3l-0.3,0.8l1.5,0.1c0.6-0.7,2-1,2.8-0.6l0.2,0.4l0.6,0.1v0
			c1,0.7,1.4,0.5,2.6,0.2C119.9,110.9,120.6,111.1,120,109.3z"/>
		<path class="st0" d="M94.9,82c0,0.6,0.2,1,0.6,1.4c0.6,0.2,1.3,0.5,1.8,0.3C98.3,81.2,95.1,81.5,94.9,82z"/>
		<path class="st0" d="M89.7,24.8c-0.2,0.1-0.3,0.3-0.2,0.9c0.2,0.4,0.7,1,1.5,0.8c0.6-0.2,1.1-0.4,0.7-1.1
			C91.3,24.7,90.4,24.5,89.7,24.8z"/>
		<polygon class="st0" points="94.6,86 94.4,88.2 93.7,88.1 93.5,87.5 92.9,87 92.5,86.8 92.5,86.2 91.7,85.9 90.6,88.9 90.6,90.2 
			91.6,90.2 93.3,89.7 94.9,89.3 96,88.5 96.2,88.3 96.7,87.6 95.9,87 		"/>
		<path class="st0" d="M77.5,42.7c0.3-0.4,0.5-1.5,0.2-1.8c-0.2-0.1-1.2-0.1-1.7,0.1c-0.2,0.1-0.3,0.7-0.4,0.7
			c-0.2,0.2,0,0.3-0.1,0.8C76.2,42.6,76.7,42.8,77.5,42.7z"/>
		<path class="st0" d="M100.2,62c-0.7,2.5-1.5,4.5-2.5,6.3c-0.3,0.4-1,1-0.3,1c0.6,0,1-0.3,1.6-0.7c2-2.3,1.8-4.6,1.7-7
			C100.4,61.5,100.3,61.7,100.2,62z"/>
	</g>
</g>
</svg>
