<?xml version="1.0" encoding="utf-8"?>
<!-- Generator: Adobe Illustrator 23.1.0, SVG Export Plug-In . SVG Version: 6.00 Build 0)  -->
<svg version="1.1" id="Layer_1" xmlns="http://www.w3.org/2000/svg" xmlns:xlink="http://www.w3.org/1999/xlink" x="0px" y="0px"
	 viewBox="0 0 497.1 561.1" style="enable-background:new 0 0 497.1 561.1;" xml:space="preserve">
<style type="text/css">
	.st0{fill:#364199;}
	.st1{fill:#FFFFFF;}
</style>
<g>
	<path class="st0" d="M330.7,365.7c-4.6,3.4-9.2,7.5-13.8,12.2c-18.4,19.3-26.8,46.1-26.9,75.3v0.7c0.1,29.2,8.4,56,26.9,75.3
		c29.5,30.8,61.6,31.9,83.1,31.9c17.2,0,31-4,37.4-6.5c2-0.8,3.1-1.2,4.6-1.2c1.4,0,4.2,0,5,0c0.8,0,1.6,0.1,3.1,1.4
		c4,3.3,4.2,4.4,5,4.4c0,0,9.5,0,10.7,0c1.2,0,1.1-0.6,1.1-1.6c0,0,0-51.6,0-54.5c0-3.2-0.2-3.3-1.6-3.3c-0.8,0-10.1,0-11.2,0
		c-2,0-1.9,0.1-1.9,2.5c0,2.3-0.7,16.6-10.6,28.3c-12.5,14.9-25.3,21.5-42,21.5c-10.2,0-21.3-1.1-35-21
		c-15.5-22.5-13.7-55-13.7-77.3v-0.3c0-22.3-1.8-54.8,13.7-77.3c13.7-19.9,24.8-21,35-21c16.7,0,29.5,6.6,42,21.5
		c9.8,11.7,10.6,26,10.6,28.3c0,2.3,0,2.5,1.9,2.5c1.1,0,10.4,0,11.2,0c1.4,0,1.6,0,1.6-3.3c0-2.9,0-54.5,0-54.5
		c0-1,0.1-1.6-1.1-1.6c-1.2,0-10.7,0-10.7,0c-0.9,0-1,1.1-5,4.4c-1.5,1.2-2.4,1.4-3.1,1.4c-0.8,0-3.6,0-5,0c-1.4,0-2.5-0.4-4.6-1.2
		c-6.4-2.5-20.2-6.5-37.4-6.5c-7.9,0-17.1,0.1-27.2,1.8c0,0,0.4,11.3-4.5,13.2c-4.9,1.9-12.8,2.8-16.1,5.6c-3.3,2.8-5,2.4-7.1,0.6
		c-2.1-1.8-5-0.6-8.3,0.6C333.6,368.9,330.7,365.7,330.7,365.7z"/>
	<path class="st0" d="M119.4,530.6c0,0,0,0.9,0,4.9c0,4-0.6,8.9-3.6,12.6c-3.1,3.7-5.3,4.4-7,4.4c0,0-8.5,0-9.8,0
		c-1.3,0-1.2,0-1.3,1.4c0,0.9,0,3,0,4.1c0,1.2,0.1,1.4,0.9,1.4c0,0,100.3,0,101.7,0c1.4,0,1.2-0.1,1.2-1.3c0-0.8,0-3.1,0-4.2
		s0-1.5-1-1.5s-6.2,0-9.9,0s-6.2-2.4-8.8-4.9c-2.6-2.4-4.3-7.4-4.3-10.8c0,0,0-74.6,0-75.6c0-1,0.8-1.3,1.6-1.3c0,0,24.8,0,31.5,0
		c6,0,15.1,3.5,21.8,10.7c5.8,6.3,7.9,15.8,7.9,18.8c0,2.5,0,2.6,1.9,2.6c1.5,0,3.1,0,5.7,0c2.6,0,2.6,0,2.6-3.3c0,0,0-71.1,0-72.2
		s0-1.3-1.1-1.3c-2.1,0-5,0-6.9,0c-1.9,0-2.2,0.1-2.2,3.1c0,5.3-3.2,15.7-9.4,22.5c-6.2,6.8-15.3,10-20.3,10h-30.3
		c-2.1,0-2.8,0.1-2.8-1.1c0,0,0-84.2,0-88.3c0-2.4,0.2-3,3-3s27.4,0,37.4,0c10,0,17,2.4,27.2,10.7c12.5,10.1,13.4,22.9,13.4,27.5
		c0,2.8,0.1,2.6,1.5,2.6H271c2.6,0,2.6-0.2,2.6-2.3c0,0,0-39,0-42.6c0-3.5,0.6-5.2-1.6-5.2H97.5c-2,0-2,1-2,3.7c0,2.7,0.2,4,3.1,4
		c3,0,7.2,0,9.4,0c5.4-0.1,11.4,6.2,11.4,11.8L119.4,530.6z"/>
	<path class="st0" d="M0,208.1c0.1,29.4,8.4,56.5,26.9,75.9c29.5,31.1,61.6,32.1,83.1,32.1c17.2,0,31-4.1,37.4-6.6
		c2-0.8,3.1-1.2,4.6-1.2c1.4,0,4.2,0,5,0c0.8,0,1.6,0.1,3.1,1.4c4,3.3,4.2,4.4,5,4.4c0,0,9.5,0,10.7,0c1.2,0,1.1-0.6,1.1-1.6
		c0,0,0-52,0-54.9c0-3.3-0.2-3.3-1.6-3.3c-0.8,0-10.1,0-11.2,0c-2,0-1.9,0.1-1.9,2.5c0,2.3-0.7,16.7-10.6,28.5
		c-12.5,15-25.3,21.7-42,21.7c-10.2,0-21.3-1.1-35-21.2c-15.5-22.7-13.7-55.5-13.7-77.9v-0.3c0-22.5-1.8-55.2,13.7-77.9
		c13.7-20.1,24.8-21.2,35-21.2c16.7,0,29.5,6.6,42,21.7c9.8,11.8,10.6,26.2,10.6,28.5c0,2.3,0,2.5,1.9,2.5c1.1,0,10.4,0,11.2,0
		c1.4,0,1.6,0,1.6-3.3c0-2.9,0-54.9,0-54.9c0-1,0.1-1.6-1.1-1.6c-1.2,0-10.7,0-10.7,0c-0.9,0-1,1.1-5,4.4c-1.5,1.2-2.4,1.4-3.1,1.4
		c-0.8,0-3.6,0-5,0c-1.4,0-2.5-0.5-4.6-1.2c-6.4-2.5-20.2-6.5-37.4-6.5c-21.5,0-53.6,1-83.1,32.1C8.4,150.9,0.1,178,0,207.4V208.1z"
		/>
	<path class="st0" d="M408.6,354.8c0,0,4.9,5.5,6.8,13.9c1.9,8.3,4.2,13.7,6.5,19.7c2.4,6,7.1,14.6,9.6,19.8
		c2.5,5.3,9.7,18.3,14.8,24.6c5.1,6.2,8.3,8.6,15.1,10.8c6.8,2.2,7.2,1.7,7.4-1.5c0.1-3.2,2.5-5.3,5.6-4.4c3.1,0.8,8.9,2.8,12.2,7.2
		c3.3,4.4,4.7,6.5,4.7,9.4c0,2.9-1.7,6.2-4.9,9c-3.2,2.8-8.2,3.1-12.6,3.1c-4.4,0-7.5-1.8-10.3-3.6c-2.8-1.8-3.7-3.3-5-3.3
		c-1.2,0-2.9,0.6-5.8,3.3c-2.9,2.8-5.3,3.5-8.6,2.9c-3.3-0.6-7.6-2.1-12.8-1.4c-5.1,0.7-10.5-1.2-11.9-3.7c-1.4-2.5-2.1-5.5-0.8-8.5
		c1.2-2.9,3.1-3.6,4.3-3.6s3.2,1.4,6.9,6c3.7,4.6,5.7,6.5,6.5,6.4c0.8-0.1,3.9-1.1,5.1-3.1c1.2-1.9,2.5-3.5,0-5.7
		c-2.5-2.2-4.3-3.1-5.8-6.2c-1.5-3.2-4.2-4.9-6.5-4.9c-2.4,0-4,1.4-5,2.8c-1,1.4-3.3,2.2-5.7,0.3c-2.4-1.9-4.7-3.5-6-7.5
		c-1.2-4-2.7-10.8-4.9-16.5c-2.8-7.4-3.9-10.9-13.2-24.1c-6.4-9.2-10-13.3-13.3-20.8c-2.8-6.4-4.3-10.3-5.8-18.2c0,0-0.6-6-1.4-10.1
		c-0.8-4.2-1.9-6.1-6.4-11.8c-4.4-5.7-8.7-8.7-9.3-10.8c-0.6-2.1,0.1-5.1,2.1-7.4c1.9-2.2,5-3.9,7.2-1.8c2.2,2.1,1.2,4.3-0.4,7.1
		c-1.7,2.8,1.7,5.7,5.8,10.5c4.2,4.9,6.7,8.7,7.6,11.5c1,2.8,0.4,6.9,0.4,6.9l4.6-2.2c0,0-0.3-6.8-0.7-10c-0.4-3.2-2.8-5-4.3-7.4
		c-1.5-2.4-4.4-7.5-5.1-9.6c-0.7-2.1-2.6-4.7-3.9-6.8c-1.2-2.1,0-4.6,3.3-8c3.3-3.5,8.2-5.4,10.4-4.9c2.2,0.6,2.4,4,2.4,7.2
		c0,3.2,0.4,5.5,1.9,9.2c1.5,3.6,5.3,11.5,9.3,18.6c4,7.1,5.4,12.8,5.4,12.8l11-0.1c0,0-1.9-4-3.7-7.7c-1.9-4.2-3.1-8.7-6.3-17
		c-3.1-8.3-4.6-12.2-7.4-18.3c-2.8-6.1-3-8.9-3.7-12.9c-0.7-4.1-0.9-7.8,0-9.6c0.9-1.8,4.8-5.4,6.8-7.4c2-2,3.1-5.5,2-9.6
		c-1.1-4.1-1.3-9.1-0.2-11.7c1.1-2.6,3.5-5.2,4.4-10.2c0.9-5-0.7-14.6-1.5-17.4c-0.7-2.8,0.2-4.3,1.3-3c1.1,1.3,3,1.5,4.1-0.9
		c1.1-2.4,1.7-7.2,1.5-15.7c-0.2-8.5-3.3-14.8-5.7-20.3s-0.7-5.7,0.7-16.1c1.5-10.4,0.6-13,0.6-18.3c0-5.4-2-8.9-2-11.7
		c0-2.8,0.6-7,0.6-10.5c0-3.5-1.1-8.7-3-15c-1.9-6.3-4.6-10.5-5.4-15.5c-0.7-5-2.2-10-5.5-14.6c-3.3-4.6-5.9-4.6-8.1-5.2
		c-3.7-0.9-6.2-3-8.7-6.1c-2.2-2.8-1.7-5.2-0.4-6.8c1.3-1.7,1.7-2.4,1.7-6.8c0-4.4-5.2-10.2-9.8-15c-4.6-4.8-7-8.5-11.5-13.5
		c-4.4-5-6.3-7.6-11.1-10c-4.8-2.4-6.7-1.3-12-1.3c-5.4,0-6.5-0.7-8.7-2c-2.2-1.3-4.1-2.6-7.6-3c-3.5-0.4-6.7-2.8-10.9-5.5
		c-6.2-4.1-10.5-6.8-13.9-6.8c-3.3,0-6.3,1.1-7.4,1.9c-1.1,0.7-4.1,0.9-5.5,0.9s-3.1-0.4-4.8-2.4c-1.7-2-3.3-4.4-5-4.4
		c-1.7,0-5.2,1.9-10.7,5.9c-5.5,4.1-9.8,8.9-13.1,14.2c-3.3,5.4-3.3,7-3.3,8.1c0,1.1,1.1,3.5,1.1,4.4c0,0.9-1.3,3.7-4.4,5.7
		c-3.1,2-7.2,3.9-8.9,4.6c-1.7,0.7-3.9,2-5.2,4.4c-1.3,2.4-1.1,3.5-3.7,3.5c-2.6,0-7.2,0-11.8,2.6c-4.6,2.6-7.2,5.4-8.7,5.2
		c-1.5-0.2-3.7,0.9-5,2c-1.3,1.1-0.9,3,0.4,5.9c1.3,3,1.1,4.6,1.5,6.7c0.4,2,1.5,5.4,1.9,6.8c0.4,1.5,1.3,2.8,2.6,1.3
		c1.3-1.5,3-0.2,4.4-1.9c1.5-1.7,1.7-2.8-0.4-4.4c-2-1.7-3.5-3.3-2.8-5.7c0.7-2.4,2.8-1.1,3.5,0s5.2,2,6.8,0.9
		c1.7-1.1,2.2-3.7,2.6-5.2c0.4-1.5,1.8-2,3-1.5c1.1,0.6,1.5,2.8,2.6,2.2c1.1-0.6,0.7-4.1,0.6-5.7c-0.2-1.7-1.7-3-0.7-4.3
		c0.9-1.3,2.2-4.4,4.3-4.4c2,0,3.5,2.2,3.5,4.4c0,2.2-1.1,3.3,1.8,3.3c3,0,5-1.8,7.4-3.9c2.4-2,2-3.1,1.3-4.1
		c-0.7-0.9-1.5-2.4,1.3-3.7c2.8-1.3,8-4.3,9.4-4.8c1.5-0.6,2-1.3,0.7-3.1c-1.3-1.9-4.6-2.8-4.6-6.5s0-7,5.7-13.1
		s11.5-11.1,16.7-11.3c5.2-0.2,10.4-0.4,10.4,1.3c0,1.7-0.7,4.1-6.5,6.1c-5.7,2-7.8,1.7-9.4,1.7c-1.7,0-2.2,1.5-0.6,4.1
		c1.7,2.6,4.1,5.7,6.5,6.8c2.4,1.1,4.1,2,7.2,1.5c3.1-0.6,4.4-1.1,5.2-3c0.7-1.8,1.5-3.5,0.4-4.4c-1.1-0.9-2.8-3.3-1.9-6.1
		c0.9-2.8,2.8-6.7,7-6.7c4.3,0,4.4,2.2,5.4,2.8c0.9,0.6,2.8,0.7,3.7,0.7c0.9,0,1.3,2.8,0.2,3.7c-1.1,0.9-2.6,2.4-5.4,2.8
		c-2.8,0.4-4.1,0.6-4.8,2.2c-0.7,1.7-0.2,3.5,1.1,3.1c1.3-0.4,3.3-1.1,5.7-1.7c1.6-0.4,2.6-0.7,4.1-2.4c1.5-1.7,5.7-1.5,8.1-1.7
		c6.7-0.4,13.3-0.2,13.5,1.1c0.4,2.2-0.6,3.9-2.8,5.7c-2.2,1.9-5.6,2-7,2.2c-1.5,0.2-7,3-6.7,7.4c0.4,4.8,3.7,5.9,6.1,6.3
		c2.4,0.4,5,1.7,5.5,4.3c0.6,2.6,0.9,3.1,3,3.5c2,0.4,1.1-1.5,2.6-2c1.5-0.6,3,0,5.4,2c2.4,2,3.5,3.3,5.4,3.3c1.9,0,0.7-1.8,2.2-3.5
		c1.5-1.7,3.3-0.2,6.5,4.3c3.1,4.4,5.2,8.1,8,11.5c2.8,3.3,4.1,6.1,5.7,7.2c1.7,1.1,4.1,0.2,6.8,3c2.8,2.8,3.1,5.4,2.8,10.7
		c-0.4,5.4,0.9,8.7,4.4,13.3c3.5,4.6,5,8,6.8,12.9c1.9,5,0.4,7.2,0.2,12.4c-0.2,5.2-1.9,7.6-2.6,9.4c-0.7,1.8-3.3-1.3-5.7-3.5
		c-2.4-2.2-3.7-3.5-3.7,0.4c0,3.9,0,7.8-0.7,10c-0.7,2.2,0.7,3.7,2.8,6.3c2,2.6,2.4,6.1,2.2,9.1c-0.2,3,2,3.7,2,7.2
		c0,3.5,1.9,4.6,3.7,6.5c1.8,1.8,1.3,6.8,1.7,11.8c0.4,5,4.3,6.5,7,6.5c2.8,0,4.6,0.7,5.9,3.5c1.3,2.8,1.5,8.3,1.9,12.8
		c0.4,4.4,0.2,6.7-1.5,6.8c-1.7,0.2-2.6-2.8-5.9-6.8c-3.3-4.1-6.3-5.5-8.9-6.1c-2.6-0.6-6.5-0.6-8.5,1.7c-2,2.2,0.6,4.1,3,5.7
		c2.4,1.7,2,3.3-0.7,3.9c-2.8,0.6-3.9,2.6-5.2,6.3c-0.9,2.6-0.7,8.5-2.4,10.2c-0.8,0.8-2.4,0.6-6.3,3c-3.9,2.4-6.7,5.5-8.1,9.8
		c-1.5,4.3,0.6,5.5,0.6,8.7c0,3.1-3.5,4.3-5,4.6c-1.5,0.4-3.7-2.8-5.6-5.7c-1.8-3-3.7-7.6-3.7-9.8c0-2.2-2.4-2.8-3.9-1.3
		c-1.5,1.5-2.6,1.5-5.2-1.3c-2.6-2.8-3.1-6.7-3.1-10.2c0-3.5-3.7-5.2-6.5-8.1c-2.8-3-7.8-7.2-13.9-8.3c-6.1-1.1-9.1-4.1-12.6-8.7
		c-3.5-4.6-4.6-6.1-7.2-8.7c-2.6-2.6-3.9-2.4-4.8-0.7c-0.9,1.7-2.6,1.1-4.6-0.7c-2-1.9-3.1-1.1-5.6-1.1c-2.4,0-4.8-3.9-6.8-6.5
		c-2-2.6-7.2-4.4-8.1-7.2c-0.9-2.8-0.6-4.4,1.9-8.3c2.4-3.9,2.8-5.6,1.7-6.8c-1.1-1.3-3.1-0.7-4.6,0.4c-1.5,1.1-3.1-1.1-5.9-3.5
		c-2.8-2.4-1.7-4.4-0.7-5.9c0.9-1.5-0.2-4.4-1.3-5.9c-1.1-1.5-3.1-3-3.1-4.3s-0.4-3.3-1.3-4.1c-0.9-0.7-2-0.2-2.2,2.6
		c-0.2,2.8-1.3,3.7-3.1,3.7c-1.9,0-3,0.4-3.1-2.2c-0.2-2.6,0-4.8-0.7-6.7c-0.7-1.8-1.7-5.7,0.4-7.8c2-2,3.7-3.1,3.7-4.6
		c0-1.5-3.1-0.7-6.3-0.7c-3.1,0-3.1-2.8-1.1-5c2-2.2,4.8-4.1,8.1-4.8c3.3-0.7,7-0.6,10.4-1.7c3.3-1.1,5.2,0,6.8,2
		c1.7,2-1.7,3.7-3.1,5.6c-1.5,1.8-3.7,2-6.7,2c-3,0-4.6,0.6-4.4,2.6c0.2,2,3.5,2.6,6.7,2.8c3.1,0.2,5.5-0.9,7.6-2c2-1.1,3-5,6.5-6.7
		c3.5-1.7,8.9-2.2,12.4-2.6c3.5-0.4,5-0.2,4.6-2.8c-0.4-2.6-3.7-3.7-7.2-5c-3.5-1.3-5.5-3.5-5.7-6.3c-0.2-2.8,0.2-5.7,1.5-8
		c1.3-2.2,0.4-5-1.1-5.4c-1.5-0.4-1.7-3-2.2-6.3c-0.6-3.3-4.1-4.4-5.4-4.3c-1.3,0.2-1.3,2.4-2.2,3.9c-0.9,1.5-1.5,2.6-3.5,2.8
		c-2,0.2-4.6-2.4-8.7-5.2c-4.1-2.8-7.4-2.4-10.4-1.9c-3,0.6-5.2,0.4-7.8,3.1c-2.6,2.8-5.2,4.4-8.1,5.4c-3,0.9-6.7,2.2-8.1,3.5
		c-1.5,1.3-0.4,5.7,2.8,9.8c3.1,4.1,7.6,5.9,11.7,9.1c4.1,3.1,3,7.2,0,12.8c-3,5.6-7.6,10-10.9,13.9c-3.3,3.9-5.7,8.3-5.5,10.7
		c0.2,2.4-0.2,6.3-0.9,7.4c-0.7,1.1-1.5,2.4-1.1,8.7c0.4,6.3,0.7,8-0.9,9.1c-1.7,1.1-4.4,3.5-5,7.4c-0.6,3.9-0.4,3.9,1.1,3.3
		c1.5-0.6,3-2.8,4.8-3.7c1.9-0.9,4.1-1.1,4.1-3.3c0-2.2,0.6-4.1,3-4.1s1.3,6.8,3,13.7c1.7,6.8,3.5,7.6,5,7.6c1.5,0,1.5-3,2.8-5.2
		c1.3-2.2,3.5-5.7,5.2-6.1c1.7-0.4,3.9,0.2,6.8,2.4c3,2.2,4.3,1.5,5.2-0.4c0.9-1.9,2.4-2.6,5-2.6c2.6,0,4.8,1.7,5.9,4.3
		c1.1,2.6,5.4,6.3,9.1,8.3c3.7,2,8.9,2.2,13,3.5c4.1,1.3,6.8,5.2,10,11.5c3.1,6.3,3.7,7,2.4,9.6c-1.3,2.6-1.8,5.2-1.1,12.6
		c0.7,7.4,4.3,7.8,5.6,7.2c1.3-0.6,2.6-1.8,4.3-1.5c1.7,0.4,1.8,2.8,3,9.6c1.1,6.8,4.4,12.2,6.5,16.5c2,4.3,4.1,4.1,5,2.8
		c0.9-1.3,1.5-2,3-0.4c1.5,1.7,3,3.1,3.9,3.1s2.4-0.9,5.9-3.5c3.5-2.6,3.7-5,5-5s0.9,1.9,1.7,6.1c0.7,4.3,3.3,6.5,5.7,8.7
		c2.4,2.2,2,5,0.9,5.4c-1.1,0.4-0.9,2.6,0.9,3.9c1.8,1.3,4.8,0.6,6.8,0.6c2,0,4.3,2.8,6.3,3.9c2,1.1,3.9,0.2,4.3-1.9
		c0.4-2,1.8-3,3-3.5c1.1-0.6,2.8-1.1,3.7-3.7c0.9-2.6,2.2-3.9,3.3-5.6c1.1-1.7,1.3-4.3,2.4-4.6c1.1-0.4,2,0.2,3.5,2.4
		c1.5,2.2,3.3,4.1,4.8,4.1c1.5,0,1.3-1.5,1.3-4.3s0.4-4.1,2-5.4c1.7-1.3,2.8-1.9,2.8-3.9c0-2,0.4-3.7,1.5-5c1.1-1.3,1.8-1.5,1.8-2.8
		c0-1.3,0.6-3.1,1.5-4.4c0.9-1.3,0.7-4.1-0.2-5.9c-0.9-1.8,0-4.1,1.3-5.5c1.3-1.5,2-1.5,2.4-4.4c0.4-3,1.3-5.9,2.6-9.6
		c1.3-3.7,3.3-5.4,4.4-5c1.1,0.4,1.3,2.4,1.1,6.1c-0.2,3.7-2.8,7.4-3.9,11.8c-1.1,4.4,1.5,8.1,2.4,10.7c0.9,2.6,0.2,5-1.5,9.3
		c-1.7,4.3-5,11.7-8.3,17.2c-3.3,5.5-6.7,4.8-9.6,6.3c-3,1.5-6.8,4.4-8.7,7.8c-1.9,3.3-3.7,3.9-5.6,4.3c-1.8,0.4-5.4,0.2-9.2,1.5
		c-3.9,1.3-5,4.4-6.5,7.4c-1.5,3-4.4,1.1-7.4-0.2c-3-1.3-5.7-3.1-8.3-3.3c-2.6-0.2-5-0.9-6.5-2.8c-1.5-1.8-3.5-4.1-5.4-4.1
		c-1.8,0-5.9-1.5-10.4-3.1c-4.4-1.7-5.4-4.8-5.9-7.6c-0.6-2.8-1.3-6.1-3.1-6.7c-1.9-0.6-5.4-3.1-6.8-3.1c-1.5,0-3,0-4.1,1.9
		c-1.1,1.9,1.1,7,3,9.1c1.8,2,3.9,4.4,2,4.6c-1.8,0.2-2.4,0.4-2.4,1.9c0,1.5,3.3,1.1,6.3,1.1c3,0,5.2-0.4,6.8,1.3
		c1.7,1.7,3.3,3.5,7.6,3.5c4.3,0,6.7,1.1,8.7,3.9c2,2.8,4.6,4.4,6.7,4.6c2,0.2,5.7,0.6,10,1.5c4.3,0.9,8.5,3.7,10,5.5
		c1.5,1.9,2,4.8,5.2,7.4c3.1,2.6,4.6,4.3,5.4,8.1c0.7,3.9,2.6,5.7,4.6,7.4c2,1.7,5.9,3,9.6,6.1c3.7,3.1,7,7.9,7,11.5
		c0,5.9,0.5,11.9-1.8,13c-5.3,2.5-6.9,2.2-11.2,3.5c-4.3,1.2-5.7,3.1-7.1,4c-1.4,1-2.2,0.8-3.7-0.8c-1.5-1.7-0.9-2.3,0.3-4.9
		c1.2-2.6,3.4-2.4,2.5-6.2c-0.4-1.7-3.3-2.6-3.9-2.9c-1.5-0.6-2.6-4.6-2.6-6.8c0-2.2-1.3-6.1,1.9-6.1s5.2,4,9.3,10.7
		c1.9,3.2,3.1,4.9,4.6,4.9c1.5,0,1.7-1.4,1.3-2.9c-0.9-4.4,0-8.7,0-13c0-4.3-1.5-4.1-3.9-3.7c-2.4,0.4-6.3,0.7-8,0.7
		c-1.7,0-4.8-0.2-5.5-1.5c-0.7-1.3,0.9-4.4,2.8-5.4c1.8-0.9,0.2-3.9-2.6-3.3c-2.8,0.6-5.2-0.6-6.7-2.8c-1.5-2.2-3.1-0.6-3.9,1.7
		c-0.7,2.2,1.8,5.5,4.8,8.3c3,2.8,2.4,4.4,1.1,4.6c-1.3,0.2-1.5,2.2-0.7,3.5c0.7,1.3,1.9,1.9,1.3,3.3c-0.6,1.5-3.1,2.2-5.2,2.8
		c-2,0.6-2.8-2.2-4.1-4.6c-1.3-2.4-1.7-6.1-3.5-5.9c-1.8,0.2-3.1,1.5-3.1,5.7c0,4.3,3.5,6.1,5.9,8.3c2.4,2.2,4.6,1.3,5.9-0.2
		c1.3-1.5,2.8-1.8,4.4-1.1c1.7,0.7,3,3.5,1.1,5.4c-1.9,1.8-4.1,0.6-6.1,0c-2-0.6-3.3,0.9-3,3.1c0.4,2.2,2.8,3.2,6.5,2.8
		c3.4-0.4,4.9-0.1,4.9,0.8c0,1-1.4,2.9-3.2,3.7c-1.8,0.8-4,2.2-6.5,0.1c0,0-3.7-3.5-5.6-3.5s-7.9-0.3-9.7-0.8
		c-1.8-0.6-4.9-3.6-7.6-6.2c-2.8-2.6-3.7-5-3.7-9.2c0-4.2-1.5-5.1-2.6-7.1c-1.1-1.9-1-6.8-3.1-9.2c-2.1-2.4-4.4-2.6-7.2-1.5
		c-2.8,1.1-7.1,2.2-9,0.4c-1.9-1.8-2.4-4.7-4.9-5.5c-2.5-0.8-8.6-2.9-10.7-5c-2.1-2.1-4.9-7.1-7.8-7.2c-2.9-0.1-22.6-0.7-27.5-1.1
		c-4.9-0.4-12.3-2.6-16.4-6c-4-3.3-4.4-6.9-4-9.3c0.4-2.4,2.8-1.4,4.4-2.4c1.7-1,1.9-3.1,0.4-7.2c-1.5-4.2-5.6-9.3-6.2-11.7
		c-0.7-2.4-2.1-4.3-1.5-6.2c0.6-1.9,0.1-3.9-2.2-4.9c-2.4-1-2.9-2.1-4.9-1.7c-1.9,0.4-1,3.7-1,8c0,4.3-0.3,9.2,0.3,12.1
		c0.6,2.9,0.3,5.1-1.2,5.6c-1.5,0.4-1.7,3.1-1.7,8.5c0,5.4-0.4,9.4,2.9,12.8c3.3,3.3,7.6,7.1,10.4,7.8c2.8,0.7,3.5,2.4,5.1,2.4
		c1.7,0,1.7-2.1,3.7-2.5c2.1-0.4,3.3,0,5.6,1.2c2.2,1.2,8.9,3.7,14.8,5c6,1.2,12.2,1.9,16,2.6c3.7,0.7,8,2.1,11.2,3.9
		c3.2,1.8,10.1,6,12.2,7.6c2.1,1.7,3.7,4,4.6,5.4c0.8,1.4,3.1,3.6,4.7,2.8c1.7-0.8,4-4,5.3-3.3c1.2,0.7,2.5,3.2,3.2,5.5
		c0.8,2.8,1.8,6,4,9.7c2.2,3.7,3,4.4,6.8,8c3.5,3.3,6.5,7.2,7.5,10.1c1,2.9,0.7,4,1.2,6.1c3.7,14.7,35.8,5.5,38.8,4.9
		c3.1-0.7,4.7-3.6,6-7.6c1.2-4,2.8-5.3,4.1-2c1.3,3.1,1.7,5.4,4.1,11.3c2.4,5.9,7.6,12.4,11.5,16.8c3.9,4.4,12,12,15.7,16.3
		c3.7,4.3,6.5,10,7,14.1c0.6,4.1,1.3,5.5,2.4,8.1c1.1,2.6,1.9,7,2,9.8c0.2,2.8,1.1,7,2.2,9.6c1.1,2.6,4.6,6.1,8,8.1
		c3.3,2,8.1,2,12.6,1.3c4.4-0.7,6.3-0.2,8.1,0.6c1.9,0.7,3.7,1.1,6.1,1.5c2.4,0.4,5.9-1.7,8.5-3.5c2.6-1.9,4.4-0.6,7.4,1.1
		c3,1.7,7.4,2.8,14.8,2.6c7.4-0.2,10.5-1.3,14.4-4.6c3.9-3.3,5-8,5-13c0-5-1.3-8.1-6.5-14.6c-5.2-6.5-9.8-6.3-15.5-7.4
		c-5.7-1.1-10-1.9-11.8-0.4c-1.8,1.5-3.1,2.4-4.6,2.4c-1.5,0-4.4-1.7-8.1-6.1c-3.7-4.4-10.7-17-18.1-32.2
		c-7.4-15.2-10.4-27.8-12.2-33.5c-1.9-6-3.7-10.2-3.7-10.2l-11.7-0.7C404.7,351.7,406.3,352.3,408.6,354.8z"/>
	<path class="st1" d="M319.3,371.3c-1.2-3.3-2.4-4.9-1.4-5c3.6-0.3,6.5-0.4,7.8,1.1s1.2,1.5,1.2,1.5c0.8,1.4,0.3,2.6-0.4,4
		c-0.7,1.4-1.2,5.7-2.6,5.7C321.8,378.6,320.5,374.6,319.3,371.3z"/>
	<path class="st0" d="M340.6,193.7c-2.2,0-4.3,1.8-4.6,4c-0.3,2.2,1.5,5.3,3.1,5.8c1.5,0.6,2.2-1.1,2.9-2.1c0.7-1,2.6-1.9,3.9-3.2
		c1.2-1.2,1-2.4-1.1-3.3C342.7,194,342.3,193.7,340.6,193.7z"/>
	<path class="st0" d="M323.1,179.4c-1.3,0-2.4,0.7-2.5,3.5c-0.1,2.8-1.1,5-2.5,4.4c-1.4-0.6-2.9-1.4-4-3.5c-1.1-2.1-2.6-2.2-3.1-0.8
		c-0.4,1.4-0.1,3.5,0.8,5c1,1.5,1.2,3.6,0.4,4.3c-0.8,0.7-1.8,1.5-2.1,2.8c-0.3,1.2-4.4,3.3-0.8,3.3c3.6,0,7.9,1,8.7,1.7
		c0.8,0.7,2.6-0.1,4.9,1.4c2.2,1.5,5.8,4.7,8,4.7c2.2,0,3.9,0.1,4.4-0.7c0.6-0.8-1.2-2.5-2.6-3.5c-1.4-1-1.8-5-1.4-8.2
		c0.4-3.2,1.1-10.8-0.3-11.8c-1.4-1-1.9-0.7-2.6,0.8c-0.7,1.5-1.8,1.4-2.8-0.4C324.8,180.7,324.5,179.4,323.1,179.4z"/>
	<path class="st0" d="M263.1,153.2c-0.8,0.1-2.8,1.1-2.9,2.6c-0.1,1.5,0.4,4.6,2.5,5.8c2.1,1.2,3.9,1.8,6.2,0.7
		c2.4-1.1,2.4-2.5,4.6-1.4c2.2,1.1,2.2,2.5,2.2,4.6c0,2.1,1.5,3.9,1.4,6.2c-0.1,2.4-0.7,5.3,1.8,6.7c2.5,1.4,3.6,3.1,4.9,4
		c1.2,1,4,0.3,4.7-1c0.7-1.2-0.6-3.3,0.8-5.6c1.4-2.2,2.9-1.6,2.4-3.9c-0.6-2.4-2.5-5.1-4.9-7.6c-3.3-3.6-5.7-4.9-6.1-8.6
		c-0.4-3.7,0-4.3,1.4-5.3c1.4-1,0.4-2.9-2.4-2.9c-2.8,0-5.1,0.4-6.7,2.9c-1.5,2.5-1,4.4-2.2,5.1c-1.2,0.7-2.6,0.1-4.4-0.7
		C264.6,154.2,264.7,153,263.1,153.2z"/>
	<path class="st0" d="M319,173c2.4-0.4,4.2-1.9,3.5-4.9c-0.7-2.9-1.8-5-3.2-6.5c-1.4-1.5-2.1-5.4-1.7-8c0.4-2.6,1.4-4.6,2.4-5.8
		c1-1.2,0.7-3.2-1.8-6c-2.5-2.8-4.9-2.5-6.8-3.5c-1.9-1-5.7-3.6-7.9-8.5c-2.2-4.9-4.3-10.7-6.4-14.2c-2.1-3.5-4.3-7.8-9-8.2
		c-4.7-0.4-6,0-5.7,2.9c0.3,2.9,0.7,7.9,0,10.7c-0.7,2.8-1.5,2.9-3.1,2.2c-1.5-0.7-2.4-2.4-3.9-1.9c-1.5,0.4-2.8,1-3.7,0.6
		c-1-0.4-3.3-0.6-4.4,0.6c-1.1,1.1-1.8,2.8-0.6,4.2c1.2,1.4,1.8,2.4,1.2,4.7c-0.6,2.4-2.9,6-5.7,6.8c-2.8,0.8-3.6-0.6-4.6-1.4
		c-1-0.8-2.5-1-3.7,0.6c-1.2,1.5-2.5,3.1-3.7,1.8c-1.2-1.2-0.4-4.4-2.1-5c-1.7-0.6-2.1,1.5-2.1,4.9c0,3.3,0.6,8.2,1.8,11.1
		c1.2,2.9,2.5,4.7,6.4,5c3.9,0.3,5.3-0.3,3.7-2.2c-1.5-1.9-3.7-3.5-0.3-6.8c3.5-3.3,7.2-5.4,9-6.4c1.8-1,3.3-0.1,4.4,2.2
		c1.1,2.4,2.5,2.2,4.7,1.9c2.2-0.3,2.5-1.5,3.2-3.2c0.7-1.7,2.5-1.9,5.3-1.9s3.5,1.5,4.4,2.6c1,1.1,2.4,4.2,1,4.9
		c-1.4,0.7-1.5,2.5-0.4,3.2c1.1,0.7,4.3,2.2,7.4,3.5c3.1,1.2,5.7,1.8,5.7,5.5c0,3.7-0.7,7.1,1.5,7.9c2.2,0.8,5.8,1,7.4,2.8
		C312.7,170.9,313.6,173.9,319,173z"/>
	<path class="st0" d="M316.6,122.9c-1.1,0-2.6,2.4,1.1,7.1c3.7,4.7,6.5,6.7,8.2,7.6c1.7,1,2.5,2.2,2.5,6.4c0,4.2,0.3,7.2-0.8,8.6
		c-1.1,1.4-1.2,4.3,1,4.3c2.2,0,6.9,1.9,8.5,7.6c1.5,5.7,3.2,8.6,3.2,11.1c0,2.5-0.8,5.7,1,6.4c1.8,0.7,3.9,1.4,5.4,2.2
		c1.5,0.8,3.2,1.4,4.3-0.7c1.1-2.1,3.9-4.4,2.6-6.4s-4.6-1-4.9-5.1c-0.3-4.2-0.6-7.4,1.1-8.3c1.7-1,3.5-4.3,1.9-7.1
		c-1.5-2.8-2.9-10.4-4.7-12.3c-1.8-1.9-4.6-2.5-6-3.1c-1.4-0.6-2.5-1.2-6.1-5.4c-3.6-4.2-5.3-8.6-9.2-10.7
		C321.9,123.1,318.8,122.9,316.6,122.9z"/>
	<path class="st0" d="M353,133.3c2,0.2,4.4-1.5,4.3-3.3c-0.1-1.8-1.8-4.3-5-6.8c-3.2-2.5-4.6-4.7-5.5-7.1c-1-2.4-2.6-3.5-5.4-4.4
		c-2.8-1-5.8-1-5.8-3.6c0-2.6-0.8-3.9-4.4-3.9c-3.6,0-9.7,0.3-12.3-0.8c-2.6-1.1-5.3-3.3-6.4-4.7c-1.1-1.4-0.7-2.4,0.4-3.2
		c1.1-0.8,3.1-3.6,1.2-5c-1.8-1.4-6.9-6.8-8.9-8c-1.9-1.2-3.6-0.7-6.2,1.7c-2.6,2.4-4.7,5.1-4.9,10.1c-0.1,5-0.1,9.6,1,12.6
		c0.6,1.6,7.4,8.7,10.1,10.3c2.8,1.5,5.5,1.8,9,0.4c3.5-1.4,5.7-2.5,7.1-1.4c1.4,1.1,1.1,3.7,3.1,3.7s7.1-2.5,8.6-0.6
		c1.5,1.9,4.4,5.5,8.6,8.6C345.6,131,348.7,132.9,353,133.3z"/>
	<path class="st0" d="M275.1,63.4c-1.6,0-2.2,0.7-1.7,3.1c0.6,2.4,1,4.9,1,6.2c0,1.4,0.4,4.3,2.6,5.6c2.2,1.2,4.6,1.2,5.8,1.2
		s1.5-1.9,0.4-5.3c-1.1-3.3-4.4-6.4-5.3-8.3C277.2,64,276.7,63.4,275.1,63.4z"/>
	<path class="st0" d="M247.5,53.3c-1.1-0.2-1.9,1.2-2.1,2.6c-0.1,1.4-1,2.8-1.8,3.3c-0.8,0.6-2.6,0.7-3.3,0.7c-0.7,0-2.1,0.3-1,1.8
		c1.1,1.5,3.3,2.8,4.2,4.2c0.8,1.4,2.2,1.7,2.5,0.3c0.3-1.4,0.6-3.6,1.8-5.3c1.2-1.7,1.9-1.9,3.2-2.4c1.2-0.4,0.6-0.8-0.6-2.4
		C249.3,54.7,248.2,53.4,247.5,53.3z"/>
	<path class="st0" d="M302.5,66.3c-1.7,0-3.7,0.8-3.7,2.6c0,1.8,0.4,4.2,3.7,4.9c3.3,0.7,6.1,1.4,9.7,3.6c3.6,2.2,6.1,3.2,7.8,3.2
		c1.7,0,2.6,1.1,2.6,2.4c0,1.2-1.4,1.7-3.3,1.7c-1.9,0,0.1,3.1,1.7,3.9c1.5,0.8,3.3,1,4.9,1s4.9,2.2,6.1,5.1c1.2,2.9,4.3,7.2,8,7.2
		c3.7,0,8.7-0.6,9.6,0.1c0.8,0.7,3.9,4,5.1,5.4c1.2,1.4,4.4,2.2,6.1,1.1c1.7-1.1,3.1-4.2,1.8-8.7c-1.2-4.6-4.9-7.1-6.4-9.9
		c-1.5-2.8-3.2-9.4-6.4-13.6c-3.2-4.2-7.8-7.9-14-7.9c-6.2,0-11.8-0.3-13.9-1.2c-2.1-1-3.6-2.6-4.9-2.5c-1.2,0.1-1.8,1.7-2.9,2.5
		c-1.1,0.8-2.4,1.1-5,1.1C306.5,68.3,305.1,66.3,302.5,66.3z"/>
	<path class="st1" d="M330.4,74c-0.3,1.2,0,5,4,7.6c4,2.6,7.9,5,10.4,5.7c2.5,0.7,3.7-0.3,2.2-5.7c-1.5-5.4-5.4-7.9-9.3-8.6
		C333.8,72.3,330.8,72.4,330.4,74z"/>
	<path class="st1" d="M209.9,89.9c-1.1,0.3-1.5,2.1-1.4,3.3c0.1,1.2,1.7,2.8,3.3,1c1.7-1.8,2.8-3.9,1.8-4.9
		C212.7,88.4,211.3,89.5,209.9,89.9z"/>
	<path class="st0" d="M267,42.7c-0.9,1-2.6,2.2-4.4,2.2c-1.8,0-3.7,0.1-4.4,1.1c-0.7,1-2.5,1.8-3.3,1.8c-0.8,0-2.2,2.4-1.2,3.1
		c1,0.7,1.9,1.9,1.9,3.6c0,1.7,1.2,2.4,3.6,1.2c2.4-1.1,5.1-1.1,6-0.4c0.8,0.7,1.5,3.3,5,1.9c3.5-1.4,5.4-1.9,4.6-3.7
		c-0.8-1.8-2.1-1.9-3.5-1.9c-1.4,0-2.6-1.9-1.1-3.7c1.5-1.8,2.1-2.2,0.7-3.9C269.3,42.3,268.1,41.5,267,42.7z"/>
	<path class="st0" d="M285.3,38c-2.8,0.1-3.3,1.4-5.1,1.4c-1.8,0-3.6,0.4-4.7,1.7c-1.1,1.2-1.9,2.4,0.3,2.4c2.2,0,4.3,0.7,4.6,1.8
		c0.3,1.1,1.9,1,3.3,0.4c1.4-0.6-0.3-2.2,1.5-3.1s2.8,1.5,4.9-0.1c2.1-1.7,3.1-3.1,1.7-3.7C290.3,38,288.2,37.9,285.3,38z"/>
	<path class="st1" d="M326.2,24.7c-1.5,0.1-3.1,1.2-2.4,3.7c0.7,2.5,2.8,4.3,6.1,4.3s6.1,0,8.3,1.5c2.2,1.5,4.7,4.3,8.5,8.2
		c3.7,3.9,6.5,4.9,8.7,4.7c2.2-0.1,4-1.2,2.8-2.9c-1.2-1.7-5-6.7-9.3-10.3c-4.3-3.6-9.3-4.6-12.8-6.1
		C332.7,26.4,331.9,24.4,326.2,24.7z"/>
	<path class="st1" d="M363,65.1c-0.8,1.1,0.1,3.7,1.5,5.1c1.4,1.4,2.5,1.9,4.2,1.4c1.7-0.6,0.8-4.7,0-5.7
		C366.9,63.8,363.9,63.8,363,65.1z"/>
	<path class="st1" d="M374.5,80.5c-1.8,0-4.4,1.8-3.1,4.7c1.4,2.9,5.8,6.1,9.2,7.6c3.3,1.5,6,2.9,6.9,1.8c1-1.1,0.7-3.2-3.6-8
		C379.6,81.7,376.8,80.5,374.5,80.5z"/>
	<path class="st1" d="M380.2,125.2c-2.2,0.1-1.5,2.1-2.1,4.2c-0.6,2.1-1.5,3.7-1.4,6.9c0.1,3.2,2.8,3.5,6,3.3c3.2-0.1,5-1.1,4.3-5.3
		C386.3,130.1,384.8,125,380.2,125.2z"/>
	<path class="st1" d="M380,146.5c-2.8,0.5-4,2.2-4,4.7c0,2.5,1.8,4.4,4.9,3.9c3.1-0.6,5.5-2.4,7.4-4c1.8-1.7,1.9-3.5,0.7-4.3
		C387.7,146,384.3,145.7,380,146.5z"/>
	<path class="st1" d="M384.6,160.5c-3,1.8-5,2.9-2.4,4.9c2.6,1.9,3.9,3.2,5.8,2.1c1.9-1.1,2.5-4.4,2.5-6.1
		C390.6,159.7,387.8,158.6,384.6,160.5z"/>
	<path class="st1" d="M385.2,172.1c-2.6,0-4.2,2.9-4.3,4.9c-0.1,1.9,2.2,6,4.2,6c1.9,0,1.8-2.6,3.3-4.6
		C389.9,176.4,389.7,172.1,385.2,172.1z"/>
	<path class="st0" d="M331.9,221.3c-1.8,0.1-2.6,1.8-1.8,4.3c0.8,2.5,1.8,3.1,3.7,5c1.9,1.9,0.6,2.5,0.6,4.4c0,1.9,0.4,4.6,1.7,6.5
		c1.2,1.9,3.5,2.2,4.2-1.8c0.7-4,1.8-11.4-1.4-14.6C335.6,222,335.2,221,331.9,221.3z"/>
	<path class="st0" d="M226.3,190.6c-1.9,0-3.7-0.4-5.1,3.2c-1.4,3.6-3.7,9.3-5.1,14.4c-1.4,5.1-2.4,8.5-2.1,9.4c0.3,1,1,1.4,2.8,1.2
		s2.5,0.8,4.7,2.6c2.2,1.8,3.2,2.9,3.1,4.9c-0.1,1.9-1.4,4.2-3.1,5c-1.7,0.8-2.6,3.1-1.1,3.7c1.5,0.7,4.7,2.1,7.4,3.9
		c2.6,1.8,6.7,5.3,8,7.4c1.4,2.1,2.9,1.7,3.9,1c1-0.7,2.5,0.1,2.5,3.5c0,3.3-0.4,4.7,2.5,7.6c2.9,2.9,4.6,4.2,4.7,7.6
		c0.1,3.5,0,4.4-1.4,7.2c-1.4,2.8-1,5.1,1,4.6c1.9-0.6,2.6,1.8,4.3,1.1c1.7-0.7,2.5-2.9,4.3-4.4c1.8-1.5,3.3-5.1,6.8-5.4
		c3.5-0.3,9-0.3,9.3-2.2c0.3-1.9,0.1-4.4-2.5-6.9c-2.6-2.5-4.2-2.5-5.5-2.5s-1.9-2.5,0.6-5.3c2.5-2.8,4.3-7.9,3.7-10.4
		c-0.6-2.5-1.2-2.6-5.3-5.3c-4-2.6-8-3.5-10.1-2.9c-2.1,0.6-3.7,2.6-5.8,3.9c-2.1,1.2-4,0.6-6.1-1.4c-2.1-1.9-3.2-5.3-0.8-8.2
		c2.4-2.9,3.7-7.4,2.2-9.9c-1.5-2.5-5.1-4.4-9-7.6c-3.9-3.2-6.4-5.3-4.7-6.7c1.7-1.4,2.6-3.3,1-4.3c-1.7-1-4-2.8-3.1-4.2
		c1-1.4,3.1-2.2,2.6-3.5C230.3,190.6,227.5,190.6,226.3,190.6z"/>
	<path class="st0" d="M189.9,185c-1.1,0.1-3.3,2.4-8,8.5c-4.7,6.1-6.7,8.5-9.6,8.5c-2.9,0-4.9-0.4-6.7-1.4c-1.8-1-3.6-2.1-6.8,1.5
		c-3.2,3.6-8.3,12.2-10.8,16.2c-2.5,4-7.6,10.5-10.4,12.6c-2.8,2.1-5,0.6-5.7,1.7c-0.7,1.1-1.8,5.5-5.1,12.1
		c-3.3,6.5-5.1,9.4-11.2,13.6c-6.1,4.2-7.1,5.1-7.5,7.8c-0.4,2.6-1.8,2.4-3.7,3.6c-1.9,1.2-4.2,5.1-6.1,7.2
		c-1.9,2.1-4.9,4.2-10.7,9.3c-5.8,5.1-9.3,6.8-9.3,6.8l8.6,9c0,0,5.6-3.9,11.9-11.7c6.4-7.8,11-13.6,16-17.5
		c5-3.9,8.9-6.4,11.9-10.4c3.1-4,9.9-13.9,13.2-18.3c3.3-4.4,6.5-10.8,8.3-12.3c1.8-1.5,1.7-2.4,3.5-2.4c1.8,0,4,3.3,6.7,2.1
		c2.6-1.2,4-5,6-5.5c1.9-0.6,3.2,0.7,4.6,2.1c1.4,1.4,3.1,1.8,4.9,0.3c1.8-1.5,4.7-0.6,6.5-1.1c1.8-0.6,3.3-1.7,4.7-1
		c1.4,0.7,4.4,1.4,6.7,2.5c2.2,1.1,4.7,1.7,7.9,0.3c3.2-1.4,5.8-2.8,5.8-6.1c0-3.3-0.8-8-2.4-8.7c-1.5-0.7-3.3,0.4-4.4-0.3
		c-1.1-0.7-1.1-2.4-3.7-4.9c-2.6-2.5-6.7-4-6.7-7.9c0-3.9,0.7-5,2.2-8.7C191.9,188.6,192.9,184.8,189.9,185z"/>
	<path class="st0" d="M138.5,272.1c-1.8,0-2.9,1.2-4.7,3.1c-1.8,1.8-5.3,4.2-6.9,5.4c-1.7,1.2-0.8,3.6-3.2,3.5
		c-2.4-0.1-2.8-0.1-5.8,2.9c-3.1,3.1-6.8,7.1-8.6,10.4c-1.8,3.3-4.2,5.1-2.9,5.5c1.2,0.4,2.4-0.6,5-1.7c2.6-1.1,6.1-1.4,7.9-1.9
		c1.8-0.6,5.5-3.2,6.1-5.7c0.6-2.5,2.6-3.2,4.6-2.5c1.9,0.7,2.2,3.7,4.9,3.1c2.6-0.7,3.6-2.9,2.8-6.2c-0.8-3.3-1.9-5.3,0.6-6.8
		c2.5-1.5,5.1-3.7,4.6-5.8C142.1,273.2,141.4,272.1,138.5,272.1z"/>
	<path class="st1" d="M340.5,367.8c-1.3,0.3-3.2,2.6-4.4,2.8s-3.3,1.2-3.1,3.5c0.3,2.2,2.2,4.9,2.6,6.2c0.4,1.4,1,2.5,2.1,2.5
		c1.1,0,2.5-0.1,3.2-4c0.7-3.9,1.1-5,2.8-6.2c1.7-1.2,1.2-2.5,0.4-3.7C343.3,367.5,341.7,367.5,340.5,367.8z"/>
	<path class="st1" d="M354.1,368.5c-0.9,0.9-2.6,2.2-2.4,4.2c0.3,1.9,1.5,3.6,2.2,5.3c0.7,1.7,1.9,3.7,2.8,3.7c0.8,0,1.4-1.1,2.6-5
		c1.2-3.9,1.7-5.5,2.5-6.5c0.8-1,1.1-3.1-0.7-3.3C359.4,366.6,357.3,365.6,354.1,368.5z"/>
</g>
</svg>
