<?xml version="1.0" encoding="utf-8"?>
<!-- Generator: Adobe Illustrator 23.1.0, SVG Export Plug-In . SVG Version: 6.00 Build 0)  -->
<svg version="1.1"
	 id="svg2" xmlns:cc="http://creativecommons.org/ns#" xmlns:dc="http://purl.org/dc/elements/1.1/" xmlns:rdf="http://www.w3.org/1999/02/22-rdf-syntax-ns#"
	 xmlns="http://www.w3.org/2000/svg" xmlns:xlink="http://www.w3.org/1999/xlink" x="0px" y="0px" viewBox="0 0 148.3 148.3"
	 style="enable-background:new 0 0 148.3 148.3;" xml:space="preserve">
<style type="text/css">
	.st0{fill:#0172BB;}
	.st1{fill:#FFFFFF;}
</style>
<path class="st0" d="M74.2,0C33.2,0,0,33.2,0,74.1c0,41,33.2,74.2,74.2,74.2c41,0,74.2-33.2,74.2-74.2C148.3,33.2,115.1,0,74.2,0z"
	/>
<path class="st1" d="M111.6,115c-1.3,3.2-5.4,11.3-14.7,11.3c-7.9,0-12.8-7-12.8-20.7s4.4-21.4,14-21.4c8,0,12.3,5.8,13.5,7.7l3.4-1
	l-4.3-10.2h-3.1c-0.3,1.1-0.9,1.9-2.2,1.9c-3.5,0-3.3-1.9-11.1-1.9C81,80.6,74,92.3,74,105.3c0,8.5,4.5,24.6,21.6,24.6
	c14.1,0,18.4-10.3,19.5-13.8L111.6,115z"/>
<path class="st1" d="M69,80.6H32.5v3.1h0.7c2.5,0,4.5,1.5,4.5,3.3v34.3c0,1.8-2,3.3-4.5,3.3h-0.7v3.1h8.9h2.9h9.5v-3.1h-1.2
	c-2.5,0-4.5-1.5-4.5-3.3l0-17.7h4c7.1,0,9.6,2.4,10,5.6h2.9V94.2h-2.9c-0.4,3.1-2.9,5.6-10,5.6h-4l0-14.2c0-1,0.8-1.7,1.7-1.7
	c0,0,2.1,0,6,0c9.2,0,12.7,5.4,13.7,7.5l3.6-1L69,80.6z"/>
<polygon class="st0" points="116.2,105 110.6,104.4 98.1,72.9 101.8,58.3 99.5,32 89.4,14.2 75.9,9.1 68.7,16.8 64.6,18 62.6,23.4 
	62.6,25.2 66.7,28.9 65.8,32 62.3,38.4 60.9,46.8 58.2,50.3 54.7,51 48.6,61.1 37.1,71.1 37.3,72.5 41.4,72.8 50.5,70.7 59.9,62.3 
	62,66.7 61.9,74.4 72.5,77.3 78.1,81.1 81.8,83.1 83.5,86.2 88.6,87 94.5,87.6 101.1,104.8 106.3,110.4 115.1,111.3 116.3,110.9 
	120,108.5 "/>
<path class="st1" d="M56.6,60.8c-1.3,3.2-5.4,11.3-14.7,11.3c-7.9,0-12.8-7-12.8-20.7S33.4,30,43.1,30c8,0,12.3,5.8,13.5,7.7l3.4-1
	l-4.3-10.2h-3.1c-0.3,1.1-0.9,1.9-2.2,1.9c-3.5,0-3.3-1.9-11.1-1.9C26,26.4,18.9,38.1,18.9,51c0,8.5,4.5,24.6,21.6,24.6
	c14.1,0,18.4-10.3,19.5-13.8L56.6,60.8z"/>
<g>
	<path class="st1" d="M47.6,70c0-0.7,0.6-1.5,0.6-2.4c0-0.3-0.2-0.5-0.6-0.5c-2.3,0-5.7,3.8-6.3,5.6c-0.2,0.7,9.1-2.1,9.1-2.1
		S47.6,71,47.6,70z"/>
	<path class="st1" d="M117.5,104.6c-0.2-0.3-0.5-0.5-0.9-0.5l-4.4-0.5c-0.4,0-0.8-0.3-0.9-0.7l-12-28.3c0.6-1,1-2.3,1.7-3.5
		c1.2-2.3,1.3-4.2,1.2-5.1l0.6-4.8c0,0,1.8-3.2,1.8-4.8v-2.1c0-2.2-1.2-5.9-1.2-6.9c0-1,0.9-5.5,0.9-9.2s-3.7-11-3.7-11
		C98.3,21.5,95.1,16,95.1,16s-1.4-3-3.1-3.8c-1.7-0.8-5.4-1.7-6.8-2.1c-1.3-0.3-1.9-1.8-3.4-1.9c-2.3-0.3-3.8-0.5-4.9-0.5l-1,0.1
		l-6.2,6.5c-1.8,1.9-2,3.2-2,4c0,0.8,0.6,1.8,1.6,1.8s1.8-0.7,2.5-1.7c0.7-1,1-2.4,1-2.4c0.7-1,2-3.3,2.6-4.6c0,0,0.2,3.1,3.4,3.1
		c1,0,0.8-0.2,1.5-0.2c0.7,0,1,0.2,2,0.4c1,0.2,1.5,0.9,1.5,1.4c0,0.5-0.3,2,1.5,2.6c1.4,0.5,3.4,1.1,4.2,1.3
		c0.2,0.1,0.4,0.2,0.5,0.4l0.9,1.4c0.3,0.5,0,1.1-0.5,1.2c-0.3,0.1-0.8,0.1-1.4,0.1c-2.2,0-3.9-0.7-5.5-0.7l-0.3,0
		c0,0-0.9,0.1-0.1,1l0.7,0.7l5.5,5.1l7.7,4.1l-2.7,3.6l-0.9,4.9l2.1,2.6l0.5,4.5l2.5,1.1l0.2,4.5l-3.4-2.9l-0.6,1.6l-2,2.1l-1,2.1
		l-0.8-0.3l-1.7,1.6l-0.9-2l-0.5,2.3l-1.6-0.2c-6.1-5.2-9.1-8.5-9.1-8.5s-0.3-2.3-0.7-2.8c-0.4-0.5-1.8-0.2-1.8-0.2L73,45.5v-3.3
		l1.4,1.2l2.1,0.8c0.3,0.1,0.5,0.3,0.5,0.6l0.5,1.9c0.1,0.4,0.5,0.7,0.9,0.7h0.5c0.7,0,1.2-0.5,1.2-1.2v-1.2c0-0.6-0.2-1.1-0.7-1.5
		l-0.9-0.7c0,0-1.3-0.7-1.3-2.2c0-0.7,0-1.2,0.5-1.2c0.5,0,0.5,0.2,1.1,0.2c0.6,0,1.3,0.2,1.3,0.2l2.1,1.7l0.1,2.4l2.3,1.6l2.3-0.6
		c-1.4-3.6-4.7-9.7-4.7-9.7l0.8-1.7l3.4,1.9H85v1.5c1.2,1.1,2.1,2.1,2.1,3v1.8c0,1.6,2,2.4,2,3.5c0,1.1,1,3.6,1.6,3.6
		c0.6,0,1.7-2.8,1.7-3.6c0-0.8-0.1-4.9-0.7-5.3c-0.2-0.2-0.6-0.6-1-0.8c-1.1-0.6-2.5-0.7-2.5-2.4c0-0.7,0.1-1.1,0.4-1.1
		s1.8,2.1,3.4,2.1c0.9,0,1.3-0.5,1.3-1.1c0-0.6-0.8-2.1-0.8-2.1c-0.7-1.2-1.7-1.9-2.5-2.3l-2.5-1.4c-0.7-0.3-2.1-1.8-3.4-3.3
		c0,0-0.8-0.8-1.5-0.8c-0.7,0-2.1,0.9-2.1,2.3c0,0.4,0.1,0.8,0.1,1.2l-1.4,0.3c-0.2,0-0.4,0.2-0.4,0.5l-0.2,2.9
		c0,0.2-0.2,0.3-0.4,0.3l-1.8,0c-0.6,0-1.1,0.4-1.3,0.9l-0.8,2.3c-0.1,0.2-0.3,0.3-0.5,0.3l-2.4-0.1c-0.2,0-0.5,0.2-0.5,0.4
		c-0.2,2,0.4,2.8,0.4,3.5v1.1L70,40.5c0,0-0.6-0.5-0.6-1c0-0.5,0.3-1.2,0.3-2c0-0.8-2-0.8-2-0.8s-0.7-0.3-0.7-0.7l0.1-2.4
		c0-0.4,0.3-0.6,0.5-0.8l1.2-1.3l1.4,2.2l4.7-1c0,0,1.7-0.8,1.7-2c0-1.2-1.9-3.4-2.1-4.2l-0.6-2.5c-0.1-0.4-0.5-0.7-0.9-0.7
		l-2.1,0.1c0,0-0.8-0.8-1.5-0.8c-0.8,0-5.3,1.4-5.3,1.4c-0.6,0.2-1.3,0.7-1.3,0.7s-0.1,0.2-0.1,0.8c0,0.5,0.4,1.8,1,2.4
		c0.5,0.6,1.9,1.2,1.9,1.6c0,0.5-0.2,1.9-0.2,2.3L61.8,38c-0.6,2.4-0.7,5.3-0.7,5.3l-1.1,3.8c-0.8,0.5-1.7,1.3-2.5,2.3
		c-0.4,0.5-1,0.7-1.6,0.8l-1.4,0c-0.5,0-0.9,0.2-1.3,0.6c-2,2.5-5.8,8.4-5.8,8.4c0.2,1.5-0.8,2.3-0.8,2.3L35.4,71.7l1.9,0.8l4.9-4.3
		c0,0,0.2-0.4,0.5-0.5c0.2-0.1,0.9-0.5,0.9-0.5c1.3-1.4,5.1-4.1,5.1-4.1c0.6-0.3,0.9-0.9,1.1-1.4l1.5-2.5c0.4-0.7,1.1-1.1,1.9-1.2
		l6.6-0.3c2.6-0.1,2.8-1.4,2.8-2c0-0.8-0.3-1.7-0.5-2.4c-0.3-0.7-0.8-1.4-1.4-1.8c-0.5-0.4-1.1-0.7-1.1-1.2c0-1.1,1.8-1.9,2-3
		c0.2-1.1,0.4-3.1,1-3.1c0.6,0,0.8,0.4,0.8,0.4c0.6,0.9,0.8,3.7,1.5,3.7c0.8,0,2.2-1.1,2.9-1.1c0.7,0,5.6,2.3,5.6,2.3
		c0.1,0.3,0.8,0.5,1.5,0.8c0.3,0.1,0.6,0.5,1,1l0.2,0.7l0.5,1.1L80,64.3c0.1,0.3,0.3,0.5,0.6,0.5l5.1,0.8c0.3,0,0.5,0.2,0.5,0.5
		l0.6,3.2c0.1,0.4,0.4,0.6,0.8,0.4l4.4-1.6c0.5-0.2,1.1,0.1,1.4,0.6c0.3,0.6,0,1.3-0.6,1.6l-4.1,1.4c-0.4,0.1-0.9,0.1-1.3-0.1
		l-8.7-5c-0.1-0.1-0.2-0.1-0.3,0l-1.1,0.9c-0.2,0.2-0.2,0.5,0,0.6c5.7,5.1,9.8,7.5,11.4,8.4c0.5,0.3,0.9,0.7,1.2,1.3l0.9,1.8
		c0,0,0.3,0.7,0,1c-0.3,0.3-0.9-0.3-0.9-0.3l-1.9-1.8c0,0-0.5-0.4-0.7-0.2c-0.2,0.2,0,1.2,0,1.2l1.3,4l-2-1.3c0,0-0.8-0.5-1.2-0.3
		c-0.3,0.2-0.1,1.6-0.1,1.6C85.4,84,86,86,86,86l-2.1-0.2L83,82c-0.1-0.3-0.4-0.6-0.8-0.5l-1.3,0.2c-0.5-1.4-2.1-3.5-3.2-3.7
		c-1.1-0.2-1.1-0.2-1.9-0.8c-0.9-0.5-2.4-2.3-3.5-2.5c-1.1-0.3-3.4,0-4.8,0c-1.4,0-3.9-1.1-3.9-1.8c0-0.2,0.5-0.6,1.1-1.1l0.5-0.4
		c0,0,0.1-0.5,0.1-1c0-4-2.4-5.5-3.2-5.5c-0.8,0-0.7,0.6-0.7,1.1c0,0.5,0.4,1.2,0.4,3.1c0,1.4-0.6,3.3-1.3,4.8
		c-0.3,0.8,0.1,1.6,0.9,1.9l2.2,0.7c0,0,1.3,0.2,2.5,0.6c1.2,0.3,4.7,1.7,6.2,2.1c1.5,0.5,2.8,0.9,2.8,0.9l10.2,8.3
		c0,0,2.6,0.6,3.8,0c0.3-0.1,0.6-0.5,0.9-0.9l2.3,1l9.2,18.5l4.3,4.8l8.2-0.4c0,0-1.5-2.1-2.4-2.3c-0.9-0.2-1.4-0.1-2.4-0.5
		c-0.5-0.2-1.8-1.7-3.1-3.3H103l-2.8-7l-1.4-4.7l-3-6.2l3.6,0.1l-3.4-10.2l1.1-0.9l12.6,29.9l4.9,0.1l4.1,2.2l0.2,0.3
		c-0.5,0-1.3,0.3-2,0.6l-0.8,0.2l-0.3-0.7v0.7h-1.4l0.4,2.4l2.3-0.3h2.2l-0.5-1.8l1.3,0.8l0.5-0.8l0.1-1.1
		C119.9,107.8,118.2,105.6,117.5,104.6z M93.4,85.3c-1.4,0-1.8-0.2-1.8-0.2l-0.9,0.4v-1.7c0-0.4-0.3-0.5-0.3-0.8
		c0-0.3,0.2-0.3,0.6-0.3c1.4,0,1.9,1.2,2.4,1.2c0.2,0,0.6-0.1,1-0.1c0,0,0.4-1.2,0.7-1.2c0.3,0,0.2,0.3,0.2,0.6
		c0,0.3-0.1,0.8-0.1,1.3c0,0.2,0.1,0.4,0.2,0.6C95,85,94.3,85.3,93.4,85.3z M97.4,66c0,0-0.5,1.5-1.8,1.8c0,0-0.9-0.8-0.7-1.9
		c0,0,2.1-5.3,3.8-6.3C98.6,59.6,98.7,61.4,97.4,66z"/>
	<path class="st1" d="M67.3,19l-2.8-1l-2.8,1.8l0.8,4.1C65,22.8,68.3,20.6,67.3,19z"/>
	<path class="st1" d="M76.1,18c-0.5-0.8-0.7-1.1-1.3-1.1c-0.6,0-1.3,0.8-1.3,1.6c0,0.8,0.4,1.2,0.8,1.2c0.5,0,0.3-0.1,0.5-0.1
		c0.9,0,0.2,0.8,1.9,0.8c0.6,0,1.3,0,1.3-0.7C78,18.8,76.5,18.7,76.1,18z"/>
	<path class="st1" d="M80.4,16.1H78l-0.3,1.6c0.4,0.3,1.1,0.1,1.1,0.1c0.3-0.3,0.8-0.8,1.6-0.8V16.1z"/>
	<path class="st1" d="M77.1,22c0,0.7,1,0.9,1,1.4c0,0.9,0.5,1.2,0.9,1.2c0.4,0,0.7,0.1,0.7-0.9c0-1.8-1.8-2-2.1-2S77.1,21.7,77.1,22
		z"/>
	<path class="st1" d="M87.8,47.4c-0.4-0.2-0.9-0.2-1.5-0.2c-0.5,0-0.9,0.1-1.3,0.1c-0.1,0-0.4,0.3-0.5,0.6c-0.3,0.9-0.5,2.6-0.5,3.3
		c0,1.2,0.8,1.2,0.8,1.2l1.4,0l1.4,0.7c0.6,0.3,1.4,0.2,1.8-0.3l0.7-0.7c0.3-0.3,0.2-0.8-0.2-1l-2.4-1.4l0.3-1.2
		C88,48.3,88.2,47.5,87.8,47.4z"/>
	<path class="st1" d="M75.9,61.4c0-0.9-1.5-2.9-3.2-2.9h-0.9c-0.5,0-1-0.4-1-0.9l-0.3-1.9c-0.6-3-2.9-6.5-3.8-6.5
		c-1,0-1.9,2.3-1.9,2.3c-0.6,1.3-0.8,2.5-0.9,3.3c0,0.1,0,0.3,0.2,0.4l1.6,1.4c0,0,0.1,0.6,0.1,1.2c0,0.2-0.1,0.4-0.2,0.7
		c-0.1,0.4,0,0.8,0.3,1.1l4.3,3.6c0,0,0.1,0.2,0.1,0.6c0,0.4-0.1,0.5-0.1,0.8s0.1,0.9,0.6,0.9H71c0,0-0.6,2.2-0.6,3
		c0,0.5,0.2,0.6,0.4,0.6c0,0,0.2,0.3,0.8,0.3c2,0,1.3-2.2,2.4-2.2c0.9,0,0.3,0.2,1,0.2c0.8,0,1.3-0.9,1.3-2.4c0-0.9-1.9-1.3-1.9-2
		C74.4,62.1,75.9,62.3,75.9,61.4z"/>
</g>
</svg>
