<?xml version="1.0" encoding="UTF-8" standalone="no"?>
<!-- Created with Inkscape (http://www.inkscape.org/) -->

<svg
   xmlns:dc="http://purl.org/dc/elements/1.1/"
   xmlns:cc="http://creativecommons.org/ns#"
   xmlns:rdf="http://www.w3.org/1999/02/22-rdf-syntax-ns#"
   xmlns:svg="http://www.w3.org/2000/svg"
   xmlns="http://www.w3.org/2000/svg"
   xmlns:xlink="http://www.w3.org/1999/xlink"
   xmlns:sodipodi="http://sodipodi.sourceforge.net/DTD/sodipodi-0.dtd"
   xmlns:inkscape="http://www.inkscape.org/namespaces/inkscape"
   width="173.19937mm"
   height="174.37375mm"
   viewBox="0 0 613.69856 617.85974"
   id="svg2"
   version="1.1"
   inkscape:version="0.91 r13725"
   sodipodi:docname="Como_1907_logo_(adozione_2017).svg">
  <defs
     id="defs4">
    <linearGradient
       id="linearGradient4172"
       inkscape:collect="always">
      <stop
         id="stop4174"
         offset="0"
         style="stop-color:#c57100;stop-opacity:1;" />
      <stop
         id="stop4176"
         offset="1"
         style="stop-color:#ffbb5d;stop-opacity:1" />
    </linearGradient>
    <linearGradient
       inkscape:collect="always"
       xlink:href="#linearGradient4172"
       id="linearGradient4166"
       x1="369.8139"
       y1="673.12573"
       x2="369.66687"
       y2="723.83997"
       gradientUnits="userSpaceOnUse" />
    <linearGradient
       inkscape:collect="always"
       xlink:href="#linearGradient4172"
       id="linearGradient4168"
       x1="371.5824"
       y1="649.92853"
       x2="371.26672"
       y2="706.99231"
       gradientUnits="userSpaceOnUse" />
    <linearGradient
       inkscape:collect="always"
       xlink:href="#linearGradient4172"
       id="linearGradient4170"
       x1="372.35733"
       y1="626.63513"
       x2="373.40961"
       y2="693.06372"
       gradientUnits="userSpaceOnUse" />
    <linearGradient
       inkscape:collect="always"
       xlink:href="#linearGradient4172"
       id="linearGradient4184"
       x1="374.29449"
       y1="220.10487"
       x2="364.74921"
       y2="831.24713"
       gradientUnits="userSpaceOnUse" />
    <linearGradient
       inkscape:collect="always"
       xlink:href="#linearGradient4172"
       id="linearGradient4192"
       x1="372.2139"
       y1="303.94754"
       x2="368.85013"
       y2="751.44513"
       gradientUnits="userSpaceOnUse" />
  </defs>
  <sodipodi:namedview
     id="base"
     pagecolor="#ffffff"
     bordercolor="#666666"
     borderopacity="1.0"
     inkscape:pageopacity="0.0"
     inkscape:pageshadow="2"
     inkscape:zoom="0.9899495"
     inkscape:cx="327.0957"
     inkscape:cy="356.61212"
     inkscape:document-units="px"
     inkscape:current-layer="layer2"
     showgrid="false"
     inkscape:window-width="1177"
     inkscape:window-height="931"
     inkscape:window-x="84"
     inkscape:window-y="4"
     inkscape:window-maximized="1"
     fit-margin-top="0"
     fit-margin-left="0"
     fit-margin-right="0"
     fit-margin-bottom="0" />
  <metadata
     id="metadata7">
    <rdf:RDF>
      <cc:Work
         rdf:about="">
        <dc:format>image/svg+xml</dc:format>
        <dc:type
           rdf:resource="http://purl.org/dc/dcmitype/StillImage" />
        <dc:title></dc:title>
      </cc:Work>
    </rdf:RDF>
  </metadata>
  <g
     inkscape:groupmode="layer"
     id="layer2"
     inkscape:label="Livello 2"
     style="display:inline"
     transform="translate(-65.197968,-217.25122)">
    <ellipse
       style="opacity:1;fill:#003c66;fill-opacity:1;fill-rule:nonzero;stroke:url(#linearGradient4184);stroke-width:2;stroke-linecap:round;stroke-linejoin:round;stroke-miterlimit:4;stroke-dasharray:none;stroke-dashoffset:0;stroke-opacity:1"
       id="path4252"
       cx="372.04724"
       cy="526.18109"
       rx="304.84927"
       ry="306.92987" />
    <circle
       cy="526.18109"
       cx="372.04724"
       id="ellipse4254"
       style="opacity:1;fill:#ffffff;fill-opacity:1;fill-rule:nonzero;stroke:url(#linearGradient4192);stroke-width:2;stroke-linecap:round;stroke-linejoin:round;stroke-miterlimit:4;stroke-dasharray:none;stroke-dashoffset:0;stroke-opacity:1"
       r="224.09737" />
    <path
       sodipodi:nodetypes="scscscs"
       inkscape:connector-curvature="0"
       id="path4258"
       d="m 275.71772,562.14236 c -32.92276,-47.28025 -17.82494,-138.15714 -9.74438,-210.82602 0,0 70.35701,-15.15229 106.0739,-15.15229 35.71689,0 106.0739,15.15229 106.0739,15.15229 8.08056,72.66888 23.17838,163.54577 -9.74438,210.82602 -13.56701,19.48352 -60.78453,49.15191 -96.32952,69.99639 -35.54499,-20.84448 -82.76251,-50.51287 -96.32952,-69.99639 z"
       style="opacity:1;fill:#ffffff;fill-opacity:1;fill-rule:nonzero;stroke:#c57100;stroke-width:4;stroke-linecap:round;stroke-linejoin:round;stroke-miterlimit:4;stroke-dasharray:none;stroke-dashoffset:0;stroke-opacity:1" />
    <g
       id="g4274">
      <path
         sodipodi:nodetypes="ccccc"
         inkscape:connector-curvature="0"
         id="path4260"
         d="m 385.52938,343.79078 c 28.50625,2.40638 56.55324,6.87945 84.10714,13.57142 6.16202,31.67961 9.25612,62.92094 10.71429,93.92857 l -94.82143,0 z"
         style="opacity:1;fill:#dd0001;fill-opacity:1;fill-rule:nonzero;stroke:none;stroke-width:1;stroke-linecap:round;stroke-linejoin:round;stroke-miterlimit:4;stroke-dasharray:none;stroke-dashoffset:0;stroke-opacity:1" />
      <path
         style="opacity:1;fill:#dd0001;fill-opacity:1;fill-rule:nonzero;stroke:none;stroke-width:1;stroke-linecap:round;stroke-linejoin:round;stroke-miterlimit:4;stroke-dasharray:none;stroke-dashoffset:0;stroke-opacity:1"
         d="m 358.5651,343.79078 c -28.50625,2.40638 -56.55324,6.87945 -84.10714,13.57142 -6.16202,31.67961 -9.25612,62.92094 -10.71429,93.92857 l 94.82143,0 z"
         id="path4262"
         inkscape:connector-curvature="0"
         sodipodi:nodetypes="ccccc" />
      <path
         style="opacity:1;fill:#dd0001;fill-opacity:1;fill-rule:nonzero;stroke:none;stroke-width:1;stroke-linecap:round;stroke-linejoin:round;stroke-miterlimit:4;stroke-dasharray:none;stroke-dashoffset:0;stroke-opacity:1"
         d="m 385.52938,612.66264 c 65.08249,-37.58253 90.8218,-54.58178 94.82143,-128.46066 l -94.82143,0 z"
         id="path4270"
         inkscape:connector-curvature="0"
         sodipodi:nodetypes="cccc" />
      <path
         sodipodi:nodetypes="cccc"
         inkscape:connector-curvature="0"
         id="path4272"
         d="M 358.5651,612.66264 C 293.48261,575.08011 267.7433,558.08086 263.74367,484.20198 l 94.82143,0 z"
         style="opacity:1;fill:#dd0001;fill-opacity:1;fill-rule:nonzero;stroke:none;stroke-width:1;stroke-linecap:round;stroke-linejoin:round;stroke-miterlimit:4;stroke-dasharray:none;stroke-dashoffset:0;stroke-opacity:1" />
    </g>
    <path
       style="opacity:1;fill:#003c66;fill-opacity:0.96078431;fill-rule:nonzero;stroke:url(#linearGradient4170);stroke-width:1;stroke-linecap:round;stroke-linejoin:round;stroke-miterlimit:4;stroke-dasharray:none;stroke-dashoffset:0;stroke-opacity:1"
       d="m 254.64286,662.71935 c 0,0 21.27836,-28.99752 46.78571,-33.57143 18.51802,-3.3206 33.65442,-3.96084 54.49492,7.10324 17.59168,9.3393 36.81383,22.94267 54.61223,33.96819 15.307,9.48218 26.51889,11.46636 42.67857,9.64285 13.4751,-1.52058 33.57143,-16.78571 33.57143,-16.78571 0.96713,1.61188 -17.98553,23.62811 -37.32143,27.32143 -16.01615,3.05921 -35.95555,-2.62863 -50.35715,-10.35715 C 383.55627,671.6955 373.33647,664.10841 360,656.29078 c -13.23819,-7.76002 -25.20771,-15.8319 -45,-16.60715 -29.77646,-1.16632 -53.90267,18.13032 -60.35714,23.03572 z"
       id="path4280"
       inkscape:connector-curvature="0"
       sodipodi:nodetypes="csssscssssc" />
    <path
       sodipodi:nodetypes="csssacssssc"
       inkscape:connector-curvature="0"
       id="path4282"
       d="m 253.51074,688.18224 c 0,0 19.48136,-26.49707 42.89026,-34.33623 15.37392,-5.14842 31.6226,-4.43448 48.31755,5.58445 16.56082,9.93844 30.65761,19.52277 49.18079,30.63577 11.3361,6.8011 25.25396,8.75793 38.434,9.78192 8.91175,0.69238 26.69706,-2.5209 26.69706,-2.5209 0,0 -18.34816,8.81012 -32.34695,9.53274 -17.56824,0.90689 -27.90256,-2.35605 -43.32861,-9.63667 -17.48158,-8.25077 -20.97169,-12.64445 -34.96521,-21.11821 -15.48225,-9.37525 -22.86384,-12.72738 -35.47378,-13.22696 -25.81079,-1.02257 -59.40511,25.30409 -59.40511,25.30409 z"
       style="opacity:1;fill:#003c66;fill-opacity:0.96078431;fill-rule:nonzero;stroke:url(#linearGradient4168);stroke-width:1;stroke-linecap:round;stroke-linejoin:round;stroke-miterlimit:4;stroke-dasharray:none;stroke-dashoffset:0;stroke-opacity:1" />
    <path
       style="opacity:1;fill:#003c66;fill-opacity:0.96078431;fill-rule:nonzero;stroke:url(#linearGradient4166);stroke-width:1;stroke-linecap:round;stroke-linejoin:round;stroke-miterlimit:4;stroke-dasharray:none;stroke-dashoffset:0;stroke-opacity:1"
       d="m 258.52805,704.35569 c 0,0 11.56435,-18.95222 31.52914,-26.80064 13.11199,-5.1545 29.76618,-5.62278 45.36659,2.12205 16.44569,8.16447 24.09345,14.18868 41.31992,24.24338 10.21297,5.96108 19.06953,10.50383 29.565,12.7399 8.38441,1.78631 25.71561,0.33326 25.71561,0.33326 0,0 -13.86292,5.33839 -25.8021,6.06186 -14.98346,0.90796 -21.90327,-2.23256 -37.08003,-9.39551 -15.41439,-7.27511 -15.47833,-9.40921 -29.31577,-17.10254 -16.32348,-9.07552 -22.26687,-11.48371 -33.03251,-11.60108 -24.41241,-0.26617 -48.26585,19.39932 -48.26585,19.39932 z"
       id="path4284"
       inkscape:connector-curvature="0"
       sodipodi:nodetypes="csssacssssc" />
    <path
       inkscape:connector-curvature="0"
       id="path4291"
       style="font-style:normal;font-variant:normal;font-weight:bold;font-stretch:normal;font-size:medium;line-height:125%;font-family:'Century Gothic';-inkscape-font-specification:'Century Gothic Bold';text-align:center;writing-mode:lr-tb;text-anchor:middle;fill:#ffffff;fill-opacity:1;fill-rule:nonzero;stroke:none;stroke-width:1;stroke-linecap:round;stroke-linejoin:round;stroke-miterlimit:4;stroke-dasharray:none;stroke-dashoffset:0;stroke-opacity:1"
       d="m 265.93501,261.81622 -3.88612,10.55031 q -11.30887,-4.2075 -20.62477,0.36141 -7.86262,3.85615 -10.63416,11.87207 -2.73427,7.99765 1.12189,15.86027 2.68651,5.47775 7.1548,8.55616 4.46829,3.07841 10.01604,3.36231 5.54776,0.28388 10.87646,-2.32953 4.54616,-2.22963 7.48738,-5.75232 2.92294,-3.55996 5.23877,-10.24295 l 10.69865,3.90583 q -3.16815,8.90384 -7.43828,13.86414 -4.28841,4.92305 -11.21944,8.32231 -12.78142,6.26854 -24.90795,2.18469 -12.10755,-4.13938 -18.32126,-16.80901 -4.02063,-8.19799 -3.45667,-16.37935 0.60123,-8.19964 5.59434,-15.45604 5.03036,-7.27468 13.00478,-11.18566 6.78197,-3.32616 14.44948,-3.52717 7.70477,-0.21928 14.84606,2.84253 z" />
    <path
       inkscape:connector-curvature="0"
       id="path4293"
       style="font-style:normal;font-variant:normal;font-weight:bold;font-stretch:normal;font-size:medium;line-height:125%;font-family:'Century Gothic';-inkscape-font-specification:'Century Gothic Bold';text-align:center;writing-mode:lr-tb;text-anchor:middle;fill:#ffffff;fill-opacity:1;fill-rule:nonzero;stroke:none;stroke-width:1;stroke-linecap:round;stroke-linejoin:round;stroke-miterlimit:4;stroke-dasharray:none;stroke-dashoffset:0;stroke-opacity:1"
       d="m 325.71323,234.77433 q 12.94922,0 22.24609,9.37988 9.33838,9.37988 9.33838,22.86865 0,13.36426 -9.21386,22.61963 -9.17237,9.25537 -22.2876,9.25537 -13.73779,0 -22.82715,-9.50439 -9.08936,-9.5044 -9.08936,-22.57813 0,-8.75732 4.2334,-16.10351 4.2334,-7.34619 11.6211,-11.6211 7.4292,-4.3164 15.979,-4.3164 z m -0.12451,11.37207 q -8.4668,0 -14.23584,5.89355 -5.76904,5.89356 -5.76904,14.98291 0,10.12696 7.26318,16.02051 5.64453,4.60693 12.94922,4.60693 8.25928,0 14.06982,-5.97656 5.81055,-5.97656 5.81055,-14.73389 0,-8.71582 -5.85205,-14.73388 -5.85205,-6.05957 -14.23584,-6.05957 z" />
    <path
       inkscape:connector-curvature="0"
       id="path4295"
       style="font-style:normal;font-variant:normal;font-weight:bold;font-stretch:normal;font-size:medium;line-height:125%;font-family:'Century Gothic';-inkscape-font-specification:'Century Gothic Bold';text-align:center;writing-mode:lr-tb;text-anchor:middle;fill:#ffffff;fill-opacity:1;fill-rule:nonzero;stroke:none;stroke-width:1;stroke-linecap:round;stroke-linejoin:round;stroke-miterlimit:4;stroke-dasharray:none;stroke-dashoffset:0;stroke-opacity:1"
       d="m 392.45523,232.09663 11.2574,1.61089 7.93701,44.15253 20.20649,-40.1253 11.09305,1.58737 1.54092,61.89465 -11.09306,-1.58737 -1.02974,-39.09724 -18.32148,36.32815 -10.14809,-1.45215 -7.23364,-39.98499 -12.0765,37.22178 -11.2163,-1.60501 19.08394,-58.94331 z"
       inkscape:transform-center-x="-36.188479"
       inkscape:transform-center-y="-22.679396" />
    <path
       inkscape:connector-curvature="0"
       id="path4297"
       style="font-style:normal;font-variant:normal;font-weight:bold;font-stretch:normal;font-size:medium;line-height:125%;font-family:'Century Gothic';-inkscape-font-specification:'Century Gothic Bold';text-align:center;writing-mode:lr-tb;text-anchor:middle;fill:#ffffff;fill-opacity:1;fill-rule:nonzero;stroke:none;stroke-width:1;stroke-linecap:round;stroke-linejoin:round;stroke-miterlimit:4;stroke-dasharray:none;stroke-dashoffset:0;stroke-opacity:1"
       d="m 495.41887,261.20291 q 12.94922,0 22.2461,9.37988 9.33838,9.37988 9.33838,22.86865 0,13.36426 -9.21387,22.61963 -9.17237,9.25537 -22.2876,9.25537 -13.73779,0 -22.82715,-9.50439 -9.08935,-9.5044 -9.08935,-22.57813 0,-8.75732 4.23339,-16.10351 4.2334,-7.34619 11.6211,-11.6211 7.4292,-4.3164 15.979,-4.3164 z m -0.12451,11.37207 q -8.4668,0 -14.23584,5.89355 -5.76904,5.89356 -5.76904,14.98291 0,10.12696 7.26318,16.02051 5.64453,4.60693 12.94922,4.60693 8.25928,0 14.06982,-5.97656 5.81055,-5.97656 5.81055,-14.73389 0,-8.71582 -5.85205,-14.73388 -5.85205,-6.05957 -14.23584,-6.05957 z" />
    <path
       inkscape:connector-curvature="0"
       id="path4308"
       style="font-style:normal;font-variant:normal;font-weight:bold;font-stretch:normal;font-size:medium;line-height:125%;font-family:'Century Gothic';-inkscape-font-specification:'Century Gothic Bold';text-align:center;writing-mode:lr-tb;text-anchor:middle;fill:#ffffff;fill-opacity:1;fill-rule:nonzero;stroke:none;stroke-width:1;stroke-linecap:round;stroke-linejoin:round;stroke-miterlimit:4;stroke-dasharray:none;stroke-dashoffset:0;stroke-opacity:1"
       d="m 287.86372,742.93302 16.29406,6.07622 -21.33199,57.20422 -10.81086,-4.03147 17.51804,-46.97668 -11.78305,-4.39402 10.1138,-7.87827 z"
       inkscape:transform-center-x="15.758124"
       inkscape:transform-center-y="25.983438" />
    <path
       inkscape:connector-curvature="0"
       id="path4310"
       style="font-style:normal;font-variant:normal;font-weight:bold;font-stretch:normal;font-size:medium;line-height:125%;font-family:'Century Gothic';-inkscape-font-specification:'Century Gothic Bold';text-align:center;writing-mode:lr-tb;text-anchor:middle;fill:#ffffff;fill-opacity:1;fill-rule:nonzero;stroke:none;stroke-width:1;stroke-linecap:round;stroke-linejoin:round;stroke-miterlimit:4;stroke-dasharray:none;stroke-dashoffset:0;stroke-opacity:1"
       d="m 338.95074,820.03999 -9.13889,-6.1676 13.33152,-19.14911 q -7.69229,-1.03215 -12.34139,-7.26733 -4.6491,-6.23519 -3.55072,-14.42109 1.06527,-7.93911 7.31148,-12.67049 6.29288,-4.76698 14.10858,-3.71828 8.18592,1.09839 12.84855,7.54476 4.7093,6.41076 3.71578,13.81511 -0.37532,2.7972 -1.62001,5.51962 -1.19803,2.6868 -5.03133,8.1607 l -19.63357,28.35371 z m 6.31347,-36.12924 q 3.20855,0.43052 5.70333,-1.62165 2.49478,-2.05218 2.95842,-5.50754 0.47468,-3.53763 -1.50876,-6.23257 -1.94231,-2.68942 -4.98632,-3.09786 -3.20854,-0.43053 -5.83225,1.64623 -2.61819,2.03561 -3.09287,5.57325 -0.46916,3.49649 1.43753,6.13925 1.94782,2.64828 5.32092,3.10089 z"
       inkscape:transform-center-x="-0.40174089"
       inkscape:transform-center-y="13.394721" />
    <path
       inkscape:connector-curvature="0"
       id="path4312"
       style="font-style:normal;font-variant:normal;font-weight:bold;font-stretch:normal;font-size:medium;line-height:125%;font-family:'Century Gothic';-inkscape-font-specification:'Century Gothic Bold';text-align:center;writing-mode:lr-tb;text-anchor:middle;fill:#ffffff;fill-opacity:1;fill-rule:nonzero;stroke:none;stroke-width:1;stroke-linecap:round;stroke-linejoin:round;stroke-miterlimit:4;stroke-dasharray:none;stroke-dashoffset:0;stroke-opacity:1"
       d="m 401.43527,757.41451 q 6.6761,-0.28359 11.62537,2.78795 4.99073,3.06978 7.89023,9.71784 2.9392,6.60486 3.45,18.63014 0.51608,12.14969 -1.89214,19.02322 -2.36675,6.87178 -6.75098,10.25669 -4.38599,3.34344 -11.26942,3.63582 -6.88344,0.29239 -11.70478,-2.70149 -4.82134,-2.99389 -7.75174,-9.3914 -2.93039,-6.39751 -3.44119,-18.42281 -0.71336,-16.79393 4.14938,-24.56101 5.41158,-8.53813 15.69527,-8.97495 z m 0.75879,11.01776 q -2.94412,0.12506 -5.14376,2.12939 -2.20139,1.96287 -3.20841,6.61674 -1.00701,4.65385 -0.63008,13.52769 0.49142,11.56916 3.41668,15.88982 2.96496,4.27744 7.36041,4.09074 4.22959,-0.17966 6.53968,-4.47347 2.81217,-5.18749 2.30841,-17.04691 -0.5108,-12.02529 -3.44134,-16.47036 -2.88907,-4.44682 -7.20159,-4.26364 z"
       inkscape:transform-center-x="-1.9011907"
       inkscape:transform-center-y="20.648504" />
    <path
       inkscape:connector-curvature="0"
       id="path4314"
       style="font-style:normal;font-variant:normal;font-weight:bold;font-stretch:normal;font-size:medium;line-height:125%;font-family:'Century Gothic';-inkscape-font-specification:'Century Gothic Bold';text-align:center;writing-mode:lr-tb;text-anchor:middle;fill:#ffffff;fill-opacity:1;fill-rule:nonzero;stroke:none;stroke-width:1;stroke-linecap:round;stroke-linejoin:round;stroke-miterlimit:4;stroke-dasharray:none;stroke-dashoffset:0;stroke-opacity:1"
       d="m 434.10407,754.52305 38.33958,-11.58365 1.76455,5.84034 -10.04367,62.04321 -10.79647,-1.72407 8.36676,-51.52113 -24.47376,7.39433 -3.15699,-10.44903 z"
       inkscape:transform-center-x="-19.744425"
       inkscape:transform-center-y="22.472797" />
  </g>
</svg>
