<?xml version="1.0" encoding="utf-8"?>
<!-- Generator: Adobe Illustrator 26.0.0, SVG Export Plug-In . SVG Version: 6.00 Build 0)  -->
<svg version="1.1"
	 id="svg2" inkscape:export-xdpi="87.726845" inkscape:version="0.92.4 (5da689c313, 2019-01-14)" sodipodi:docname="ca-aldosivi-logo.svg" xmlns:cc="http://creativecommons.org/ns#" xmlns:dc="http://purl.org/dc/elements/1.1/" xmlns:inkscape="http://www.inkscape.org/namespaces/inkscape" xmlns:rdf="http://www.w3.org/1999/02/22-rdf-syntax-ns#" xmlns:sodipodi="http://sodipodi.sourceforge.net/DTD/sodipodi-0.dtd" xmlns:svg="http://www.w3.org/2000/svg"
	 xmlns="http://www.w3.org/2000/svg" xmlns:xlink="http://www.w3.org/1999/xlink" x="0px" y="0px" viewBox="0 0 438.1 450.9"
	 style="enable-background:new 0 0 438.1 450.9;" xml:space="preserve">
<style type="text/css">
	.st0{fill:#00903B;}
	.st1{fill:#FCCB00;}
	.st2{fill:#231F20;}
</style>
<sodipodi:namedview  bordercolor="#666666" borderopacity="1" gridtolerance="10" guidetolerance="10" id="namedview4" inkscape:current-layer="g10" inkscape:cx="329.84736" inkscape:cy="191.24356" inkscape:pageopacity="0" inkscape:pageshadow="2" inkscape:window-height="837" inkscape:window-maximized="1" inkscape:window-width="1600" inkscape:window-x="-8" inkscape:window-y="-8" inkscape:zoom="0.57528255" objecttolerance="10" pagecolor="#ffffff" showgrid="false">
	</sodipodi:namedview>
<g id="g10" transform="matrix(1.3333333,0,0,-1.3333333,0,700)" inkscape:groupmode="layer" inkscape:label="ca-aldosivi-logo">
	<g id="g12" transform="matrix(0.75041012,0,0,0.75041012,28.830024,-63.569775)">
		<g>
			<g id="g14">
				<g id="g20" transform="translate(370.6743,610.8853)">
					<path id="path22" inkscape:connector-curvature="0" class="st0" d="M-130.9,124.5v-19.9c1.5,0.1,3.1,0.1,4.7,0.1
						c17.7,0,31.3-3.1,41-9.3c9.6-6.2,14.7-15.2,15.3-26.9h-36.9c-0.6,5.5-2.6,9.8-5.8,12.8c-3.3,3-7.5,4.5-12.8,4.5
						c-1.9,0-3.7-0.2-5.4-0.5V34.6c1.4-0.2,2.9-0.4,4.5-0.4c0.7,0,1.5,0,2.2,0.1c4.9,0.3,8.9,1.9,12,4.6c3.6,3.1,5.3,7.4,5.3,12.7
						h36.9v-0.3c0-12-4.8-21-14.4-27c-9.6-6-24-9-43.2-9c-1.1,0-2.2,0-3.3,0V-5.9v-23.9l13.4-30.4h-13.4v-19.7v-34.5v-23.9
						l13.4-30.4h-13.4v-19.7v-48.3c27.1,5.7,52,17.3,73.4,33.4V91.1C-78.9,107.2-103.8,118.8-130.9,124.5"/>
				</g>
				<g id="g24" transform="translate(244.0171,593.124)">
					<path id="path26" inkscape:connector-curvature="0" class="st0" d="M-130.9,124.5c9.8-24.3,18.5-57,18.5-96.5
						c0-50.4-8.9-87.1-16-116.7c-5.9-24.6-11.1-45.9-9.4-67.4c1.6-19.9,4.9-35,10.3-46.8c2.4-1.2,4.9-2.4,7.4-3.5
						c12.1-5.5,24.9-9.7,38.3-12.5v361.3c-15.7-3.3-30.7-8.6-44.7-15.6C-128,126-129.4,125.3-130.9,124.5"/>
				</g>
				<g id="g28" transform="translate(205.1392,602.1357)">
					<path id="path30" inkscape:connector-curvature="0" class="st0" d="M-130.9,124.5c2.8,0,5.1-2.3,5.1-5.1c0-2.8-2.3-5.1-5.1-5.1
						c-2.8,0-5.1,2.3-5.1,5.1C-136,122.2-133.7,124.5-130.9,124.5 M-158.4,56.2c-0.4-2.5-0.8-5-1.1-7.5c-2.9-26.7-1.5-49.6,0.1-64
						c0.8-6.5,1.8-12.7,3-18.7l1.9-8.8l-0.1,0.2c3.3-14.8,7.4-28.2,11.2-40.8c8.1-26.6,15.7-51.8,14.1-81.6
						c-0.3-5.6-1.2-11.1-2.7-16.5c-0.5-1.7-1-3.4-1.6-5.1c-6.3-17.4-19-33.5-37.8-47.3c-12.6-9.3-24.9-15.4-32.3-18.7
						c4.5-0.9,10.9-1.7,18.2-1.7c7.2,0,14.1,0.8,20.5,2.5c3.4,0.9,6.5,1.7,9.4,2.5c14,3.8,23.3,6.2,33.8,6.2c1.1,0,2.1,0,3.2-0.1
						v44.1v6V98.4v6v55.6c-7.7-12-28.1-47-37.8-92.8C-157,63.7-157.7,60-158.4,56.2"/>
				</g>
				<g id="g32" transform="translate(146.9126,452.6387)">
					<path id="path34" inkscape:connector-curvature="0" class="st0" d="M-130.9,124.5c5.7,0.6,10.8,1,14.2,1c1.1,0,2,0,2.7-0.1
						c4.2-0.5,7.3-1.4,9.5-2.4c-0.4,2.6-0.9,6-1.4,10.2c-1.4,10.9-2.2,22.6-2.2,35.3c0,9.4,0.6,18.6,1.7,27.5c0.1,1,0.2,1.9,0.4,2.9
						c0.1,1.3,0.3,2.5,0.4,3.8c-0.8-0.2-1.8-0.4-2.8-0.8c-5.2-1.6-13.4-4.9-22.2-11.6c-13.4-10.3-30.8-30.9-39.2-70.9
						c6.5,1,21.1,3.2,34,4.7C-134.1,124.2-132.5,124.3-130.9,124.5"/>
				</g>
				<g id="g36" transform="translate(446.1685,575.8804)">
					<path id="path38" inkscape:connector-curvature="0" class="st1" d="M-130.9,124.5v-291.2c43.7,33.8,71.8,86.5,71.8,145.6
						C-59.1,38-87.2,90.7-130.9,124.5"/>
				</g>
				<g id="g40" transform="translate(354.144,544.9028)">
					<path id="path42" inkscape:connector-curvature="0" class="st1" d="M-130.9,124.5c0-7.8,1.8-13.9,5.4-18c2.3-2.7,5.3-4.5,9-5.4
						v49.7c-3.5-1.1-6.5-3.1-8.8-5.9C-129,140.1-130.9,133.4-130.9,124.5"/>
				</g>
				<g id="g44" transform="translate(368.5483,406.501)">
					<path id="path46" inkscape:connector-curvature="0" class="st1" d="M-130.9,124.5v19.7h2.1h13.4l-13.4,30.4l-1.1,2.4l-1.1-2.3
						v23.7v21.1c-16.5,0.7-29.5,4.4-38.9,11.4c-10.4,7.6-15.6,18.5-15.6,32.6c0,14.3,5.4,25.5,16.1,33.5c9.5,7,22.2,11,38.4,11.9
						v20.4c-11.9,2.4-24.2,3.6-36.8,3.6c-12.5,0-24.7-1.2-36.6-3.6V-32.8c11.8-2.3,24-3.6,36.6-3.6c12.6,0,24.9,1.3,36.8,3.6V16
						v19.7h2.1h13.4l-13.4,30.4l-1.1,2.4l-1.1-2.3V90V124.5z"/>
				</g>
				<g id="g48" transform="translate(217.519,284.5771)">
					<path id="path50" inkscape:connector-curvature="0" class="st1" d="M-130.9,124.5C-130.9,124.5-130.9,124.5-130.9,124.5
						l0,291.5c0,0,0,0,0,0V124.5z"/>
				</g>
				<g id="g52" transform="translate(181.4854,435.0024)">
					<path id="path54" inkscape:connector-curvature="0" class="st1" d="M-130.9,124.5l0.1-0.2l-1.9,8.8c-1.2,6-2.2,12.2-3,18.7
						c-1.6,14.4-3,37.3-0.1,64c0.3,2.5,0.7,5,1.1,7.5c-0.2-0.3-0.4-0.6-0.6-0.9c-0.2-0.3-0.4-0.5-0.5-0.8c-1.8-2.6-3.5-5.3-5.1-8.1
						c-1.1-8.9-1.7-18.1-1.7-27.5c0-12.6,0.8-24.3,2.2-35.3c0.5-4.1,1-7.6,1.4-10.2c-2.2,1-5.3,2-9.5,2.4c-0.7,0.1-1.6,0.1-2.7,0.1
						c-3.4,0-8.5-0.4-14.2-1c-0.2-1.6-0.4-3.3-0.5-4.9c-0.5-5.7-0.8-11.6-0.8-17.4c0-50.9,20.9-97,54.5-130.4c1.3-1.3,2.6-2.6,4-3.8
						c1.5,5.4,2.4,10.9,2.7,16.5c1.6,29.8-6.1,55-14.1,81.6C-123.5,96.3-127.6,109.7-130.9,124.5"/>
				</g>
				<g id="g56" transform="translate(255.7549,252.0342)">
					<path id="path58" inkscape:connector-curvature="0" class="st1" d="M-130.9,124.5c-1.6,2-3.1,4.2-4.5,6.5
						c-0.3,0.5-0.6,1-0.9,1.5c-0.1,0.3-0.3,0.5-0.4,0.8c-0.5,0.9-0.9,1.7-1.4,2.6c-0.4,0.8-0.8,1.5-1.1,2.3
						c-5.4,11.8-8.7,26.9-10.3,46.8c-1.7,21.5,3.4,42.8,9.4,67.4c7.1,29.6,16,66.3,16,116.7c0,39.5-8.7,72.2-18.5,96.5
						c-0.6,1.5-1.2,3-1.9,4.5c-8.7,20.5-17.9,34.4-22.5,40.7v-54.6V149.4v-42.7c8.1-0.7,17.2-2.8,29.2-6.7c12-3.9,23.9-5.9,35.4-5.9
						c8.8,0,15.7,1.2,20.5,2.4C-104.1,103.1-120,110.9-130.9,124.5"/>
				</g>
				<g id="g60" transform="translate(295.1987,249.2266)">
					<path id="path62" inkscape:connector-curvature="0" class="st2" d="M-130.9,124.5v362.1c11.8,2.4,24,3.6,36.6,3.6
						c12.6,0,24.9-1.2,36.8-3.6v-20.4c-16.2-0.9-28.9-4.8-38.4-11.9c-10.8-8-16.1-19.2-16.1-33.5c0-14,5.2-24.9,15.6-32.6
						c9.4-6.9,22.4-10.7,38.9-11.4v-21.1h-14.1l-46.8-90.3h30.3l7.3,16.3h23.2v-34.5h-14.1l-46.8-90.3h30.3l7.3,16.3h23.2v-48.7
						c-11.9-2.4-24.2-3.6-36.8-3.6C-106.9,120.9-119.1,122.2-130.9,124.5 M-141.8,96.9c-11.5,0-23.4,2-35.4,5.9
						c-12,4-21.2,6.1-29.2,6.7v42.7v306.7v54.6c4.6-6.3,13.8-20.2,22.5-40.7c0.6-1.5,1.2-3,1.9-4.5c9.8-24.3,18.5-57,18.5-96.5
						c0-50.4-8.9-87.1-16-116.7c-5.9-24.6-11.1-45.9-9.4-67.4c1.6-19.9,4.9-35,10.3-46.8c0.4-0.8,0.7-1.6,1.1-2.3
						c0.4-0.9,0.9-1.8,1.4-2.6c0.1-0.3,0.3-0.5,0.4-0.8c0.3-0.5,0.6-1,0.9-1.5c1.4-2.3,2.9-4.4,4.5-6.5c10.9-13.6,26.8-21.4,49-28.1
						C-126.1,98.1-133.1,96.9-141.8,96.9 M-133,486.2V124.9c-13.3,2.8-26.2,7-38.3,12.5c-7,12.1-11,28.3-12.8,50.7
						c-1.7,20.7,3.4,41.7,9.2,65.9c7.2,29.8,16.1,66.9,16.1,117.8c0,41.5-9.5,75.3-18.9,98.8C-163.7,477.6-148.7,482.9-133,486.2
						 M-57.5,396.7c-3.6,1-6.6,2.8-9,5.4c-3.6,4.2-5.5,10.2-5.5,18c0,8.9,1.9,15.6,5.6,20.3c2.3,2.9,5.2,4.8,8.8,5.9V396.7z
						 M-55.4,331.9l13.4-30.4h-13.4h-2.1h-14.2l14.2,30.6l1.1,2.3L-55.4,331.9z M-57.5,193h-14.2l14.2,30.6l1.1,2.3l1.1-2.4L-42,193
						h-13.4H-57.5z M-55.4,376.8c1.1,0,2.2,0,3.3,0c19.2,0,33.6,3,43.2,9c9.6,6,14.4,15.1,14.4,27v0.3h-36.9c0-5.3-1.7-9.5-5.3-12.7
						c-3.1-2.7-7.1-4.3-12-4.6c-0.7,0-1.4-0.1-2.2-0.1c-1.6,0-3.1,0.1-4.5,0.4V447c1.7,0.3,3.5,0.5,5.4,0.5c5.3,0,9.6-1.5,12.8-4.5
						c3.2-3,5.2-7.3,5.8-12.8H5.5C5,442-0.2,450.9-9.7,457.1c-9.6,6.2-23.3,9.3-41,9.3c-1.6,0-3.2,0-4.7-0.1v19.9
						c27.1-5.7,52-17.3,73.4-33.4V158.4c-21.3-16-46.3-27.6-73.4-33.4v48.3h21.5l6.8-16.3H6.6L-38,247.3h-17.4v34.5h21.5l6.8-16.3
						H6.6L-38,355.8h-17.4V376.8z M20.1,451.2c43.7-33.8,71.8-86.5,71.8-145.6c0-59.1-28.1-111.7-71.8-145.6V451.2z M-208.6,457.4
						v-6V159.9v-6v-44.1c-1.1,0.1-2.2,0.1-3.2,0.1c-10.5,0-19.8-2.5-33.8-6.2c-2.9-0.8-6-1.6-9.4-2.5c-6.4-1.7-13.3-2.5-20.5-2.5
						c-7.3,0-13.7,0.9-18.2,1.7c7.4,3.3,19.7,9.4,32.3,18.7c18.7,13.8,31.5,29.9,37.8,47.3c0.6,1.7,1.2,3.4,1.6,5.1
						c1.5,5.4,2.4,10.9,2.7,16.5c1.6,29.8-6.1,55-14.1,81.6c-3.8,12.6-7.9,26.1-11.2,40.8l0.1-0.2l-1.9,8.8c-1.2,6-2.2,12.2-3,18.7
						c-1.6,14.4-3,37.3-0.1,64c0.3,2.5,0.7,5,1.1,7.5c0.6,3.8,1.3,7.4,2.1,11.1c9.7,45.8,30.1,80.8,37.8,92.8L-208.6,457.4z
						 M-280.5,305.6c0,5.9,0.3,11.7,0.8,17.4c6,0.6,11.3,1.1,14.7,1.1c0.9,0,1.6,0,2.2-0.1c7.4-0.8,10.5-3.4,11.3-4.1
						c3.6-19.3,8.7-36.1,13.5-51.9c7.9-26.2,15.4-51,13.9-80c-0.2-4.5-0.9-8.8-1.9-12.9C-259.7,208.6-280.5,254.7-280.5,305.6
						 M-318.1,322.7c8.4,40,25.9,60.6,39.2,70.9c8.8,6.8,16.9,10.1,22.2,11.6c1.1,0.3,2,0.6,2.8,0.8c-0.2-1.3-0.3-2.6-0.4-3.8
						c-0.1-1-0.2-1.9-0.4-2.9c-1.1-8.9-1.7-18.1-1.7-27.5c0-12.6,0.8-24.3,2.2-35.3c0.5-4.1,1-7.6,1.4-10.2c-2.2,1-5.3,2-9.5,2.4
						c-0.7,0.1-1.6,0.1-2.7,0.1c-3.4,0-8.5-0.4-14.2-1c-1.6-0.2-3.2-0.3-4.9-0.5C-297,325.9-311.6,323.7-318.1,322.7 M104.2,305.6
						c0,108.6-89.1,197-198.5,197c-28.4,0-55.8-5.8-81.5-17.4c-12,25.7-23.6,39.5-24.1,40.1l-8.2,9.7l-7.5-10.4
						c-3.3-4.7-32.6-47.7-43.9-107.3c-6.6-1.9-16.2-5.7-26.6-13.7c-15.5-11.8-35.9-35.7-44.8-81.9l-2.7-13.9l14.1,2.2
						c0.1,0,13.1,2,26.8,3.8c-0.1-2.8-0.2-5.6-0.2-8.3c0-51.8,20.1-100.6,56.6-137.6c-15.9-39.2-66.5-58.1-68.7-58.9l-27.9-10
						l28.4-9c2.2-0.7,13.8-3.9,29-3.9c8.3,0,16.2,1,23.6,2.9c2.2,0.6,4.3,1.1,6.3,1.7l3.3,0.9c13,3.5,21.6,5.8,30.5,5.8
						c8,0,17.2-1.9,30.7-6.3c13.2-4.4,26.4-6.6,39.3-6.6c19.6,0,31.6,5.2,32.9,5.8l24.7,11.4l-26.2,7.3c-0.4,0.1-0.7,0.2-1,0.3
						c5.7-0.5,11.4-0.7,17.1-0.7C15.1,108.5,104.2,196.9,104.2,305.6"/>
				</g>
				<g id="g64" transform="translate(205.1392,592.0117)">
					<path id="path66" inkscape:connector-curvature="0" class="st2" d="M-130.9,124.5c2.8,0,5.1,2.3,5.1,5.1c0,2.8-2.3,5.1-5.1,5.1
						c-2.8,0-5.1-2.3-5.1-5.1C-136,126.8-133.7,124.5-130.9,124.5"/>
				</g>
			</g>
		</g>
	</g>
</g>
</svg>
