<?xml version="1.0" encoding="UTF-8" standalone="no"?>
<!-- Created with Inkscape (http://www.inkscape.org/) -->

<svg
   xmlns:dc="http://purl.org/dc/elements/1.1/"
   xmlns:cc="http://creativecommons.org/ns#"
   xmlns:rdf="http://www.w3.org/1999/02/22-rdf-syntax-ns#"
   xmlns:svg="http://www.w3.org/2000/svg"
   xmlns="http://www.w3.org/2000/svg"
   xmlns:sodipodi="http://sodipodi.sourceforge.net/DTD/sodipodi-0.dtd"
   xmlns:inkscape="http://www.inkscape.org/namespaces/inkscape"
   width="606"
   height="714"
   id="svg2"
   version="1.1"
   inkscape:version="0.91 r13725"
   sodipodi:docname="Logo AS Nancy Lorraine 2013.svg">
  <defs
     id="defs4" />
  <sodipodi:namedview
     id="base"
     pagecolor="#ffffff"
     bordercolor="#666666"
     borderopacity="1.0"
     inkscape:pageopacity="0.0"
     inkscape:pageshadow="2"
     inkscape:zoom="1.5049519"
     inkscape:cx="201.52725"
     inkscape:cy="642.37222"
     inkscape:document-units="px"
     inkscape:current-layer="g2993"
     showgrid="false"
     inkscape:window-width="1280"
     inkscape:window-height="691"
     inkscape:window-x="0"
     inkscape:window-y="1"
     inkscape:window-maximized="1"
     fit-margin-bottom="5"
     fit-margin-top="5"
     fit-margin-right="5"
     fit-margin-left="5" />
  <metadata
     id="metadata7">
    <rdf:RDF>
      <cc:Work
         rdf:about="">
        <dc:format>image/svg+xml</dc:format>
        <dc:type
           rdf:resource="http://purl.org/dc/dcmitype/StillImage" />
        <dc:title />
      </cc:Work>
    </rdf:RDF>
  </metadata>
  <g
     inkscape:label="Calque 1"
     inkscape:groupmode="layer"
     id="layer1"
     transform="translate(-243.23273,228.33031)">
    <g
       transform="matrix(1.25,0,0,-1.25,243.43012,1025.6972)"
       inkscape:label="clubs foot"
       id="g2993">
      <path
         style="fill:#ffffff;stroke:none"
         d="M 239.9807,1000.8383 C 151.47767,1000.5141 66.57977,981.9432 23.94984,950.01725 l -0.49771,-0.35946 C 12.47224,900.01265 3.66156,854.87786 2.85274,813.89541 c -0.8107,-41.08269 2.86898,-77.9997 9.87112,-111.12608 7.00213,-33.12641 17.30281,-62.47779 29.72395,-88.39764 12.42123,-25.91984 26.96887,-48.41817 42.41537,-67.8812 15.44661,-19.46302 35.3512,-35.87613 51.42934,-49.63207 16.07825,-13.75594 31.85987,-24.85171 46.1758,-33.65027 14.31593,-8.79859 27.16774,-15.28953 37.32774,-19.88048 10.1599,-4.59095 17.62512,-7.27261 21.23535,-8.40566 5.25596,1.45015 14.00924,4.5437 25.13402,9.62227 11.12488,5.07857 24.64194,12.14277 39.37396,21.48419 14.73168,9.34143 30.67898,20.95995 46.75634,35.19868 16.07748,14.23872 35.82546,31.10588 50.98695,50.87633 15.16158,19.77046 29.29768,42.44224 41.28183,68.3789 11.9838,25.93664 21.79664,55.135 28.34133,87.87228 6.54479,32.73727 9.8105,69.01821 8.65449,109.19057 -2.69505,43.69413 -10.97889,86.79298 -19.3141,123.47563 -0.16945,0.74562 -0.33943,1.49225 -0.50998,2.23992 -0.17055,0.74766 -0.34165,1.49634 -0.5133,2.24603 -0.17165,0.7497 -0.34397,1.50042 -0.51672,2.25216 -0.0211,0.094 -0.0431,0.18796 -0.0642,0.28196 -0.0209,0.094 -0.0431,0.18801 -0.0642,0.28203 -0.021,0.094 -0.0431,0.18808 -0.0641,0.28215 -0.0209,0.094 -0.043,0.18814 -0.0642,0.28223 -0.021,0.0941 -0.0431,0.18821 -0.0642,0.28233 -0.0209,0.0941 -0.0431,0.18828 -0.0642,0.28243 -0.0221,0.0941 -0.0431,0.18833 -0.0652,0.28253 l -0.34154,0.28262 c -23.69952,17.73502 -61.45109,32.14174 -108.41724,41.03286 -35.85776,6.7882 -74.00127,9.78819 -111.51318,9.78819 z"
         id="path4424"
         inkscape:connector-curvature="0"
         sodipodi:nodetypes="cccssssssscssssssccsssssssssccssc" />
      <path
         sodipodi:nodetypes="cssccsscccssssscssccsscssssccsccssccsssscssscscccsssscccsssccssccsccscssccssscccc"
         style="fill:#e1251c;fill-opacity:1"
         d="m 251.3351,465.23 c 0.6094,2.10597 2.68585,2.78547 4.89946,4.00233 10.76285,5.9163 41.0758,26.82146 51.4736,35.49858 6.23165,5.20047 14.02404,11.06411 14.50755,11.06411 l 0.0111,-38.39768 -14.31063,-9.75095 c -5.79894,-3.95126 -17.34094,-11.71603 -28.9529,-16.88938 l -13.23263,-6.34251 -14.15188,-5.99778 z m -31.81088,-6.17487 C 169.55719,485.11077 121.15642,524.0539 90.53098,562.84268 46.07404,619.1498 19.61607,686.12923 13.03103,759.03695 c -1.64784,18.24441 -1.54729,25.10223 0.73239,49.95033 3.91976,42.72465 9.61303,78.77322 18.55937,117.51372 l 3.36423,14.56821 14.68005,6.86003 c 41.91238,19.58577 113.48019,35.91815 168.32388,38.41298 l 21.686,0.98649 0,-12.37327 -17.37735,-1.0448 C 174.10257,970.97072 119.2607,957.25921 81.24718,938.46981 L 65.05956,930.46856 60.89054,909.61583 C 49.69728,853.62889 43.40759,789.98402 45.85459,757.46814 54.56786,641.68614 111.78518,543.04062 206.06812,481.252 c 8.25039,-5.40695 19.3733,-12.06922 24.65474,-14.92243 l 9.33777,-5.04455 0.42317,-11.93468 c -0.63709,0.0215 -10.76495,4.3887 -20.95958,9.70479 z m 111.89391,27.64812 -0.64657,37.63263 12.92793,14.42168 c 20.15045,22.47873 32.00317,44.5346 49.81657,70.42452 l 7.43949,10.81252 c 0.0167,-24.26717 -0.0845,-46.69581 -0.0706,-70.96298 l -12.23551,-13.59541 c -3.13666,-3.48528 -6.09505,-6.05148 -8.21523,-8.34972 -2.12017,-2.29823 -3.92923,-3.96744 -5.86108,-5.8756 -1.93185,-1.90816 -4.14897,-3.89275 -6.76025,-6.17176 -2.61127,-2.279 -4.47918,-4.3649 -8.63766,-7.77567 -0.86874,-0.6193 -3.28945,-2.94293 -5.51509,-4.89181 -2.22564,-1.94888 -4.98749,-4.17301 -7.67605,-6.54336 -2.68855,-2.37037 -5.3038,-4.39943 -7.56127,-6.28319 -2.25746,-1.88376 -4.07589,-3.7847 -5.00827,-4.27375 -0.8219,-0.42341 -1.55415,-1.28258 -1.84242,-1.02106 -0.28826,0.26152 -0.13254,1.64372 -0.15353,2.45296 z m 79.50329,156.61335 c 0.59955,5.10147 1.76477,8.4582 4.02732,14.59465 6.57376,17.8291 13.21773,43.66289 17.26165,67.11932 7.62792,44.24521 2.8311,116.19791 -12.70775,190.6175 -2.18528,10.4658 -3.89755,15.13309 -6.12402,16.69255 -1.29564,0.9075 -2.06824,1.88607 -2.51698,3.77269 l 1.45463,18.97182 33.20096,-13.34189 2.58387,-10.27128 c 7.29101,-28.98194 15.69796,-79.4388 19.4291,-116.60973 7.07798,-70.51095 -10.06786,-146.15666 -47.59818,-209.99875 -3.89336,-6.623 -7.65605,-12.39852 -8.36145,-12.83449 z m -18.12238,298.92302 c -4.97885,2.89538 -38.53279,14.7635 -50.08927,17.71669 l -11.19875,2.86175 0.45838,31.33707 c 3.10137,0 41.82578,-7.63002 55.91184,-11.8485 l 11.36438,-3.40339 -0.79046,-37.03486 c -0.8965,-2.04243 -2.5656,-1.42599 -5.65612,0.37124 z m -83.6854,25.34055 c -5.09732,1.12225 -16.56632,2.88039 -25.48668,3.90695 -8.92025,1.02656 -19.69416,2.30473 -23.94192,2.84038 l -7.72326,0.97391 -0.71591,25.44859 5.76417,-0.04 c 3.50584,-0.024 13.4738,-0.3719 22.64207,-1.24777 9.16827,-0.87592 17.53685,-0.75621 27.03655,-1.97451 l 14.00981,-1.79669 -1.15846,-30.30978 c -0.6372,0.087 -5.32906,1.07651 -10.42637,2.19877 z"
         id="path3741"
         inkscape:connector-curvature="0" />
      <g
         style="fill:#ea1300;fill-opacity:1;stroke:none"
         id="g5291"
         transform="translate(-361.52539,52.720136)">
        <path
           id="path5293"
           transform="matrix(0.8,0,0,-0.8,361.36748,950.50187)"
           d="m 314.25391,3.1054688 0.46679,16.5566402 c 28.74495,0.576555 57.61804,2.676105 85.70899,6.527344 L 401.07031,9.4140625 383.55859,7.1679688 C 382.74749,7.0639473 381.95689,6.9858286 381.1582,6.8964844 378.93796,6.6754509 376.71407,6.4671601 374.48828,6.265625 366.14429,5.6398661 358.22407,5.5076962 349.76172,4.6992188 345.89867,4.3301497 342.01989,4.0608432 338.27734,3.8320312 330.26836,3.4749754 322.25627,3.2346737 314.25391,3.1054688 Z m 100.90429,8.2285152 -0.24804,17.001954 c 5.33394,0.85729 10.63472,1.779558 15.89257,2.771484 25.06573,4.728791 47.91782,10.77511 68.05469,17.90039 l 0.39649,-18.609374 -14.20508,-4.253907 C 467.44125,20.871431 419.03492,11.333984 415.1582,11.333984 Z"
           style="fill:#ea1300;fill-opacity:1;stroke:none;stroke-width:1.24999988"
           inkscape:connector-curvature="0"
           sodipodi:nodetypes="cccccccsccccscccc" />
      </g>
      <path
         inkscape:connector-curvature="0"
         id="path5295"
         d="m 240.4838,449.35034 c -0.63709,0.0215 -10.76495,4.3887 -20.95958,9.70479 -49.96703,26.05564 -98.3678,64.99877 -128.99324,103.78755 -44.45694,56.30712 -70.91491,123.28655 -77.49995,196.19427 -1.64784,18.24441 -1.54729,25.10223 0.73239,49.95033 3.91976,42.72465 9.61303,78.77322 18.55937,117.51372 l 3.36423,14.56821 14.68005,6.86003 c 41.91238,19.58577 113.48019,35.91815 168.32388,38.41298 l 21.686,0.98649 11.2417,0.16361 c 22.99596,-0.46124 46.09443,-2.14088 68.56719,-5.22187 l 11.58438,-1.71719 c 4.26715,-0.68583 8.50777,-1.42365 12.71405,-2.21719 20.05259,-3.78303 38.33426,-8.62009 54.44376,-14.32031 l 13.38824,-8.93063 33.20096,-13.34189 2.58387,-10.27128 c 7.29101,-28.98194 15.69796,-79.4388 19.4291,-116.60973 7.07798,-70.51095 -10.06786,-146.15666 -47.59818,-209.99875 -3.89336,-6.623 -7.65605,-12.39852 -8.36145,-12.83449 l -10.66283,-20.68982 c -2.43362,-3.35918 -4.93481,-6.75993 -7.10627,-9.58591 -14.43887,-18.76317 -33.24507,-34.77111 -48.55625,-48.28438 -4.71828,-4.16426 -9.41984,-8.06421 -14.08438,-11.76562 l -8.93906,-6.88281 c -7.36716,-5.47006 -14.57762,-10.37892 -21.50469,-14.75626 -14.02985,-8.86548 -26.90378,-15.56923 -37.49844,-20.38905 -4.34158,-1.97515 -8.27826,-3.61794 -11.7875,-4.98282 z"
         style="fill:none;fill-opacity:1;stroke:#ffffff;stroke-width:0.40000001;stroke-miterlimit:4;stroke-dasharray:none"
         sodipodi:nodetypes="cssssscssccccscccssscccsccsccc" />
      <path
         sodipodi:nodetypes="cssssscccssssssscc"
         inkscape:connector-curvature="0"
         id="path5303"
         d="m 240.48427,449.35013 c -0.63708,0.0215 -10.76474,4.38859 -20.95936,9.70469 -49.96704,26.05564 -98.36832,64.99872 -128.993756,103.78749 -44.456942,56.30712 -70.914962,123.28759 -77.500002,196.19531 -1.64784,18.24441 -1.546867,25.10191 0.732813,49.95 3.91976,42.72465 9.613035,78.77356 18.559375,117.51407 l 3.364063,14.56719 -11.7375,8.94843 -0.498438,-0.35937 C 12.471575,900.0128 3.6618475,854.87789 2.8530275,813.89544 2.0423275,772.81274 5.7212,735.89526 12.72334,702.76887 c 7.00213,-33.12641 17.30386,-62.47702 29.725,-88.39687 12.42123,-25.91984 26.967563,-48.41822 42.414062,-67.88125 15.446608,-19.46302 35.351548,-35.87687 51.429688,-49.63281 16.07825,-13.75594 31.86063,-24.85144 46.17656,-33.65 14.31594,-8.7986 27.16813,-15.28874 37.32813,-19.87969 10.15989,-4.59095 17.62414,-7.2732 21.23437,-8.40625 z"
         style="fill:#e9e8e7;fill-opacity:1;stroke:none;stroke-width:1.24999988" />
      <path
         sodipodi:nodetypes="cssssssccsccccccccccccsscccscccsccc"
         inkscape:connector-curvature="0"
         style="fill:#d1d4d5;fill-opacity:1;stroke:none;stroke-width:1.24999988"
         d="m 241.03115,434.922 c 5.25596,1.45015 14.0096,4.5433 25.13438,9.62187 11.12488,5.07858 24.64142,12.14296 39.37343,21.48438 14.73168,9.34143 30.6789,20.95971 46.75626,35.19844 16.07748,14.23872 35.82601,31.10611 50.98749,50.87656 15.16159,19.77046 29.29711,42.44303 41.28125,68.37969 11.9838,25.93664 21.79751,55.1346 28.34219,87.87188 6.5448,32.73726 9.8107,69.01826 8.65469,109.19062 -2.69505,43.69413 -10.97885,86.79234 -19.31406,123.475 -0.16945,0.74562 -0.34039,1.49295 -0.51094,2.24062 -0.17055,0.74766 -0.34085,1.49562 -0.5125,2.24532 -0.17165,0.7497 -0.34443,1.50138 -0.51719,2.25312 -0.0211,0.094 -0.043,0.18725 -0.0641,0.28125 -0.0209,0.094 -0.043,0.18879 -0.0641,0.28281 -0.021,0.094 -0.043,0.18718 -0.0641,0.28125 -0.0209,0.094 -0.0429,0.18873 -0.0641,0.28281 -0.021,0.0941 -0.043,0.1887 -0.0641,0.28282 -0.0209,0.0941 -0.043,0.1871 -0.0641,0.28125 -0.0221,0.0941 -0.0435,0.18861 -0.0656,0.28281 l -0.34219,0.28281 -14.39687,-8.27343 2.58438,-10.27188 c 7.291,-28.98194 15.69698,-79.43845 19.42812,-116.60938 7.07798,-70.51095 -10.06656,-146.15634 -47.59688,-209.99844 -3.89336,-6.623 -7.65709,-12.39996 -8.36249,-12.83593 l -10.66251,-20.68907 c -2.43361,-3.35917 -4.93479,-6.75995 -7.10624,-9.58593 -14.43888,-18.76317 -33.24508,-34.77111 -48.55625,-48.28438 -4.71828,-4.16425 -9.41984,-8.06421 -14.08438,-11.76562 l -8.93906,-6.88281 c -7.36716,-5.47006 -14.57762,-10.37891 -21.50469,-14.75626 -14.02985,-8.86548 -26.90378,-15.56924 -37.49844,-20.38905 -4.34158,-1.97515 -8.27826,-3.61794 -11.7875,-4.98282 l -10.94688,-5.34218 z"
         id="path5306" />
      <g
         style="fill:#cc1200;fill-opacity:1;stroke:none"
         id="g5287"
         transform="translate(-361.52539,52.720136)">
        <path
           sodipodi:nodetypes="csscccccscscccscccsccccccscccccccccc"
           inkscape:connector-curvature="0"
           id="path5289"
           transform="matrix(0.8,0,0,-0.8,361.36748,950.50187)"
           d="m 501.33203,539.85352 c -2.92421,4.08737 -5.8851,8.08693 -8.88281,11.98242 -18.04858,23.45396 -41.55633,43.46389 -60.69531,60.35547 -5.89785,5.20533 -11.7748,10.08026 -17.60547,14.70703 l 0.32226,18.75 c 0.0262,1.01155 -0.16892,2.7395 0.19141,3.0664 0.0155,0.014 0.0372,0.0125 0.0547,0.0215 3.0557,-2.33367 6.12426,-4.73093 9.21093,-7.21485 2.66503,-2.19944 5.64993,-4.5461 8.75,-7.27929 2.47814,-2.18483 4.91717,-4.21337 7.18946,-6.13477 0.2333,-0.20578 0.46587,-0.40662 0.69922,-0.61328 1.92538,-1.70518 3.92523,-3.46662 5.92578,-5.23242 0.75087,-0.68188 1.36563,-1.22628 1.88476,-1.66602 3.00681,-2.65646 6.08876,-5.40057 9.19922,-8.19336 0.77714,-0.72918 1.55143,-1.44482 2.38672,-2.17382 0.18249,-0.15927 0.32838,-0.29416 0.50781,-0.45118 2.73838,-2.48021 5.48348,-4.97216 8.24414,-7.55859 0.0157,-0.0147 0.0312,-0.0302 0.0469,-0.0449 2.28429,-2.24389 4.45729,-4.27095 6.97851,-7.00391 2.65023,-2.8728 6.34871,-6.0809 10.26954,-10.4375 l 15.07812,-16.75586 c 0.0724,-0.09 0.14259,-0.18139 0.21484,-0.27148 -0.005,-9.52391 0.0154,-18.63818 0.0293,-27.85156 z m -98.35742,95.64843 c -9.20895,6.83757 -18.22202,12.97365 -26.88086,18.44532 -17.53731,11.08185 -33.62973,19.46154 -46.87305,25.48632 -5.42697,2.46893 -10.34782,4.52242 -14.73437,6.22852 l 0.18359,20.3125 c 0.26088,-0.0982 0.54725,-0.21158 0.8125,-0.3125 l 16.87891,-7.15234 15.77734,-7.56055 c 10.21253,-5.23345 21.45013,-11.54722 33.34961,-19.06445 1.22294,-0.82093 2.62485,-1.74918 3.60352,-2.41602 l 17.88867,-12.1875 z"
           style="fill:#cc1200;fill-opacity:1;stroke:none;stroke-width:1.24999988" />
        <path
           style="fill:#cc1200;fill-opacity:1;stroke:none;stroke-width:1.24999988"
           d="m 287.42578,686.55273 c 15.69145,6.9716 14.17741,5.20442 -5e-5,0 z"
           transform="matrix(0.8,0,0,-0.8,361.36748,950.50187)"
           id="path5299"
           inkscape:connector-curvature="0"
           sodipodi:nodetypes="ccc" />
      </g>
      <g
         id="g9221">
        <g
           transform="translate(-361.52539,52.720136)"
           id="g5880"
           style="fill:#e1251c;fill-opacity:1">
          <path
             id="path3798"
             d="m 596.84432,755.7118 -4.95471,-6.42175 -8.5531,3.62608 -3.73679,-8.4147 -9.05134,4.78862 c -1.00789,-2.05687 -0.24115,-5.87214 -1.32863,-7.88877 l -9.41118,1.85455 -0.5536,-8.47006 -8.9683,1.16256 -0.692,-7.27982 -6.91998,-2.13136 3.04479,-6.58782 -6.67086,-3.40463 3.70911,-5.48063 -4.87167,-6.00654 5.14847,-3.70911 -5.75742,-6.31103 8.16557,-2.38047 -1.71615,-7.33518 6.97534,-2.02064 -0.11071,-6.64318 10.13085,2.57423 6.22798,-7.94414 c 2.99718,2.87144 5.99891,5.73697 8.99598,8.60846 2.93662,-2.81342 5.86561,-5.62891 8.80221,-8.44237 l 9.1067,8.24861 8.9683,-7.83342 0.16608,-0.1384 0.19377,0.1384 8.9406,7.83342 9.13438,-8.24861 c 2.93663,2.81346 5.8656,5.62895 8.80223,8.44237 2.99706,-2.87149 5.99879,-5.73702 8.99597,-8.60846 l 6.20031,7.94414 10.15853,-2.57423 -0.11072,6.64318 6.94767,2.02064 -1.68849,7.33518 8.16559,2.38047 -5.78511,6.31103 5.14847,3.70911 -4.84399,6.00654 3.70911,5.48063 -6.67086,3.40463 3.04479,6.58782 -6.91999,2.13136 -0.69199,7.27982 -8.9683,-1.16256 -0.5536,8.47006 -9.41117,-1.85455 c -1.08749,2.01663 -0.32077,5.8319 -1.32864,7.88877 l -9.05133,-3.01711 -3.7368,6.64319 -8.5531,-3.62608 -4.9547,6.42175 -6.14495,-5.39758 z m -9.96477,-43.34677 32.38551,0 c 0.89959,0 1.63312,-1.37366 1.63312,-3.10015 0,-1.7265 -0.73353,-3.12783 -1.63312,-3.12783 l -2.768,0 0,-8.29324 -5.34222,7.07532 -3.62607,-5.9958 -4.40111,6.21724 -4.37343,-6.21724 -3.62607,5.9958 -5.34223,-7.07532 0,8.29324 -2.90638,0 c -0.8995,0 -1.63313,1.40133 -1.63313,3.12783 0,1.72649 0.73363,3.10015 1.63313,3.10015 z"
             style="fill:#e1251c;fill-opacity:1"
             inkscape:connector-curvature="0"
             sodipodi:nodetypes="cccccccccccccccccccccccccccccccccccccccccccccccccccccccccsssscccccccccsss" />
          <path
             sodipodi:nodetypes="sscccsssssssccccccccccssssssscccsccccscccsssssccssccccccccccccccccccccssccssssscccsccccsccssccccsscc"
             inkscape:connector-curvature="0"
             id="path5419"
             d="m 491.42036,710.3818 c -0.90164,0.0851 -1.57171,-3.30007 -2.95266,-9.61995 -3.93708,-18.01792 -9.22887,-26.00391 -24.62135,-37.17015 l -4.40518,-3.19077 7.83407,-5.04809 c 11.85996,-7.61051 12.16004,-13.32783 0.88103,-17.4064 -2.8901,-1.04505 -5.26239,-2.37708 -5.26239,-2.95265 0,-0.57559 3.84328,-4.01363 8.54842,-7.64358 18.39775,-14.19378 20.8143,-22.00258 9.71519,-31.50295 -3.55111,-3.03963 -7.04215,-5.52432 -7.73882,-5.52432 -4.01336,0 0.2151,-3.21877 10.78673,-8.23887 26.85675,-12.75331 30.58188,-22.84977 11.90587,-32.36018 -2.54865,-1.29785 -6.60641,-4.43367 -9.00084,-6.95303 l -4.35755,-4.57185 9.00084,-1.09534 c 40.52898,-4.88262 78.33255,-19.1362 100.72372,-38.00356 l 10.19143,-8.61986 0.0714,0 10.19143,8.61986 c 22.39117,18.86736 60.19474,33.12094 100.72372,38.00356 l 9.00084,1.09534 -4.35755,4.57185 c -2.39443,2.51936 -6.45219,5.65518 -9.00084,6.95303 -18.67601,9.51041 -14.95088,19.60687 11.90587,32.36018 10.57163,5.0201 14.80009,8.23887 10.78673,8.23887 -0.69667,0 -4.18771,2.48469 -7.73882,5.52432 -11.09911,9.50037 -8.68256,17.30917 9.71519,31.50295 4.70514,3.62995 8.54842,7.06799 8.54842,7.64358 0,0.57557 -2.37229,1.9076 -5.26239,2.95265 -11.27902,4.07857 -10.97893,9.79589 0.88103,17.4064 l 7.83407,5.04809 -4.40518,3.19077 c -15.39244,11.16624 -20.68423,19.15223 -24.62131,37.17015 -2.94603,13.48241 -2.69115,13.61846 -8.23887,-4.83379 -3.96368,-13.1829 -12.3142,-23.54761 -23.5022,-29.21702 l -7.47689,-3.78607 7.02447,-6.47679 c 13.63923,-12.57218 15.61442,-24.57027 4.40517,-26.81204 -3.38471,-0.67693 -6.07052,0.12135 -10.45336,3.09553 l -5.90531,4.00037 1.07152,-12.23924 c 1.04376,-11.9647 0.97426,-12.27731 -2.92884,-14.83472 -3.29358,-2.15799 -4.8891,-2.32471 -9.19134,-0.90485 -5.64593,1.8633 -13.6212,9.5012 -16.97778,16.12056 -1.87251,3.69269 -0.27797,0.0312 0.16668,-18.0255 0.59169,-24.03085 -1.1912,-31.81242 -7.83406,-34.14605 -5.4545,-1.91611 -12.0804,2.57254 -14.21562,9.64376 -0.81279,2.69188 -1.87196,4.90712 -2.33355,4.90522 -1.57864,-0.005 -6.26249,-17.07718 -6.26249,-21.40677 0,-2.37758 1.09285,-7.50889 2.4288,-11.42964 3.06748,-9.00243 2.39192,-14.83248 -2.04782,-17.76357 l -5.00046,-2.30974 0.0238,40.74191 0,40.74191 23.97843,40.28949 5.19097,6.40536 -8.50076,8.14362 c -2.97139,-3.10143 -5.95803,-6.20896 -8.92941,-9.31039 -3.21065,3.11188 -6.40931,6.22231 -9.61995,9.33421 l -9.09609,-8.9056 -0.0238,0 -9.09609,8.9056 c -3.21063,-3.1119 -6.4093,-6.22233 -9.61995,-9.33421 -2.97138,3.10143 -5.95802,6.20896 -8.92941,9.31039 l -8.50079,-8.14362 5.19096,-6.40536 23.97844,-40.28949 0,-40.74191 0.0238,-40.74191 -5.00047,2.30974 c -4.43974,2.93109 -5.1153,8.76114 -2.04781,17.76357 1.33594,3.92075 2.4288,9.05206 2.4288,11.42964 0,4.32959 -4.68386,21.40201 -6.26249,21.40677 -0.4616,0.002 -1.52077,-2.21334 -2.33356,-4.90522 -2.13521,-7.07122 -8.76112,-11.55987 -14.21561,-9.64376 -6.64286,2.33363 -8.42575,10.1152 -7.83407,34.14605 0.44465,18.05667 2.03919,21.71819 0.16668,18.0255 -3.35658,-6.61936 -11.33185,-14.25726 -16.97778,-16.12056 -4.30224,-1.41986 -5.89776,-1.25314 -9.19134,0.90485 -3.90309,2.55741 -3.9726,2.87002 -2.92884,14.83472 l 1.07153,12.23924 -5.90532,-4.00037 c -4.38284,-2.97418 -7.06865,-3.77246 -10.45336,-3.09553 -11.20925,2.24177 -9.23405,14.23986 4.40518,26.81204 l 7.02447,6.47679 -7.4769,3.78607 c -11.188,5.66941 -19.53852,16.03412 -23.5022,29.21702 -2.94723,9.80275 -4.26435,14.35727 -5.28621,14.45374 z m 104.24786,-54.86228 0,-14.92997 -4.8576,4.8576 c -3.06948,3.06944 -4.50112,5.75712 -3.90513,7.3102 0.51817,1.35034 2.71391,2.28136 4.8576,2.45262 z m 14.07274,0 3.90513,-0.30955 c 2.14369,-0.17126 4.33943,-1.10228 4.8576,-2.45262 0.59599,-1.55308 -0.83565,-4.24076 -3.90513,-7.3102 l -4.8576,-4.8576 z"
             style="fill:#e1251c;fill-opacity:1" />
        </g>
        <g
           id="g9188">
          <g
             id="g5682">
            <path
               inkscape:connector-curvature="0"
               style="color:#000000;display:inline;overflow:visible;visibility:visible;fill:#e1251c;fill-opacity:1;fill-rule:nonzero;stroke:none;stroke-width:0.2;marker:none;enable-background:accumulate"
               d="m 206.42707,531.20928 -3.93045,-0.0546 -6.86463,-5.87505 0.0549,-4.31748 3.79221,0 0,-17.67978 6.94761,0 0,17.67978 0,0.21861 0,10.02856 z"
               id="rect3756" />
            <path
               style="color:#000000;display:inline;overflow:visible;visibility:visible;fill:#e1251c;fill-opacity:1;fill-rule:nonzero;stroke:none;stroke-width:0.2;marker:none;enable-background:accumulate"
               d="m 269.81421,530.87605 0,-7.16941 13.81223,0 -7.7781,-20.34754 8.35942,0 0.0833,0 8.52152,20.34754 0.0354,7.21004 z"
               id="rect3761"
               inkscape:connector-curvature="0"
               sodipodi:nodetypes="ccccccccc" />
            <path
               sodipodi:nodetypes="sccssccccccassssaccccssscsssssss"
               inkscape:connector-curvature="0"
               id="path3789"
               d="m 233.54638,503.25227 c 1.61109,0 2.9065,2.03689 2.9065,3.6621 l -0.11071,21.14182 c 0,1.62511 -1.29542,2.93189 -2.9065,2.93189 l -17.87133,0 c -1.61107,0 -2.57079,-1.3632 -2.57079,-2.98831 l 0.0132,-3.09943 0.0133,-3.09944 0.0133,-3.09943 c 0.37439,-2.57672 2.55809,-3.99066 4.81399,-3.77325 l 3.8088,0 c 0,0 3.10074,0 4.65111,0 0.37774,0 0.75544,0 1.13322,0 l 1.95391,0 c 0.73595,0 0.59246,-5.44916 0,-5.44916 l -1.61776,0 c -0.34025,0 -0.68049,0 -1.02073,0 -1.40046,0 -4.20137,0 -4.20137,0 l -4.08279,0 -4.08279,0 0.0277,-2.56469 c 0,-1.62521 1.2952,-3.6621 2.90639,-3.6621 z m -4.45646,17.37644 -10.00881,0 c -0.4833,0 -0.88576,1.04543 -0.88576,2.34551 l 0,0.13961 c 0,1.30009 0.40246,2.58892 0.88576,2.58892 l 10.00881,0 c 0.48329,0 0.88576,-1.28883 0.88576,-2.58892 l 0,-0.13961 c 0,-1.30008 -0.40247,-2.34551 -0.88576,-2.34551 z"
               style="color:#000000;display:inline;overflow:visible;visibility:visible;fill:#e1251c;fill-opacity:1;fill-rule:nonzero;stroke:none;stroke-width:0.2;marker:none;enable-background:accumulate" />
            <path
               style="color:#000000;display:inline;overflow:visible;visibility:visible;fill:#e1251c;fill-opacity:1;fill-rule:nonzero;stroke:none;stroke-width:0.2;marker:none;enable-background:accumulate"
               d="m 244.67437,530.98808 c -1.61109,0 -2.9065,-2.02803 -2.9065,-3.64617 l 0.11071,-21.04986 c 0,-1.61804 1.29542,-2.91914 2.9065,-2.91914 l 17.87133,0 c 1.61107,0 2.57079,1.35727 2.57079,2.97531 l -0.0132,3.08595 -0.0133,3.08596 -0.0133,3.08595 c -0.37439,2.56551 -2.55809,3.9733 -4.81399,3.75684 l -3.8088,0 c 0,0 -3.10074,0 -4.65111,0 -0.37774,0 -0.75544,0 -1.13322,0 l -1.78329,0 c -0.73595,0 -0.59246,5.42545 0,5.42545 l 1.02061,0 c 0.34025,0 0.96484,0 1.44726,0 1.40046,0 4.20137,0 4.20137,0 l 4.08279,0 4.08279,0 -0.0277,2.55354 c 0,1.61814 -1.2952,3.64617 -2.90639,3.64617 z m 4.45646,-17.30086 9.9235,0 c 0.4833,0 0.88576,-1.04088 0.88576,-2.33531 l 0,-0.139 c 0,-1.29443 -0.40246,-2.57766 -0.88576,-2.57766 l -9.9235,0 c -0.48329,0 -0.88576,1.28323 -0.88576,2.57766 l 0,0.139 c 0,1.29443 0.40247,2.33531 0.88576,2.33531 z"
               id="path3709"
               inkscape:connector-curvature="0"
               sodipodi:nodetypes="sccssccccccassssaccccssscsssssss" />
          </g>
          <g
             id="g5654">
            <path
               id="path5350"
               style="fill:#e1251c;fill-opacity:1;fill-rule:nonzero;stroke:none"
               d="m 134.99368,895.47573 2.31463,10.05036 -29.70683,0 -2.31614,-10.05036 29.70834,0 z m -29.66712,31.87877 44.97018,0 c 12.46474,0 17.89554,-6.59497 15.46335,-16.64109 l -15.41297,-64.07901 -27.14485,0 7.86603,32.52595 -29.70682,0 -7.86756,-32.52595 -27.02883,0 15.41604,64.07901 c 2.43218,10.04612 10.98223,16.64109 23.44543,16.64109"
               inkscape:connector-curvature="0" />
            <path
               id="path5352"
               style="fill:#e1251c;fill-opacity:1;fill-rule:nonzero;stroke:none"
               d="m 164.81349,868.67806 56.2669,0 2.16652,8.75318 -30.05187,0 c -17.01305,0 -25.29896,1.62006 -22.1614,14.69532 l 4.62923,19.34166 c 2.85206,11.88709 12.25863,15.88628 29.50222,15.88628 l 51.13995,0 -5.30103,-21.82841 -50.19943,0 -2.13446,-8.96843 36.11019,0 c 13.28462,0 18.22227,-4.86303 15.67405,-15.66961 l -4.6842,-19.77219 C 243.6235,852.25365 235.38492,846.6344 223.15988,846.6344 l -63.61384,0"
               inkscape:connector-curvature="0" />
            <path
               id="path5354"
               style="fill:#e1251c;fill-opacity:1;fill-rule:nonzero;stroke:none"
               d="m 271.45541,927.3545 33.31921,0 13.56708,-31.77115 c 0.92524,-2.26724 1.93139,-5.8345 3.22,-10.48228 0.0611,4.97206 0.93898,9.94415 2.14668,15.02243 l 6.5759,27.231 25.85776,0 -19.40401,-80.7201 -25.85776,0 -18.54596,42.2506 c -0.69775,1.51244 -1.81078,4.97208 -3.11313,10.47945 -0.17406,-4.96923 -1.05961,-9.83228 -2.26729,-14.91056 l -9.04473,-37.81949 -25.85777,0"
               inkscape:connector-curvature="0" />
            <path
               id="path5356"
               style="fill:#e1251c;fill-opacity:1;fill-rule:nonzero;stroke:none"
               d="m 366.86472,927.3545 28.77089,0 -14.13047,-58.67644 41.81428,0 -5.26133,-22.04366 -70.59739,0"
               inkscape:connector-curvature="0" />
          </g>
          <g
             id="g5660">
            <path
               id="path5358"
               style="fill:#e1251c;fill-opacity:1;fill-rule:nonzero;stroke:none"
               d="m 72.82275,829.22469 1.85926,7.1154 -5.6101,0 -1.85618,-7.1154 5.60702,0 z m 4.34185,-2.02864 1.72844,0 -1.08508,-4.23461 -3.93091,0 c -1.7269,0 -2.3841,0.47693 -2.25482,2.00529 l -6.73365,0 c -2.80429,0 -3.89707,1.39505 -3.15828,4.19887 l 1.87311,7.17449 c 0.7511,2.86293 2.46874,4.21673 5.34383,4.21673 l 8.04191,0 c 2.89662,0 3.88936,-1.33593 3.13826,-4.21673 l -1.94852,-7.45351 c -0.21701,-0.77242 -0.32784,-1.26722 -1.01429,-1.69053"
               inkscape:connector-curvature="0" />
            <path
               id="path5360"
               style="fill:#e1251c;fill-opacity:1;fill-rule:nonzero;stroke:none"
               d="m 91.60772,824.96673 -9.04542,0 c -2.50414,0 -3.57538,1.27409 -3.06439,3.21341 l 3.23985,12.37668 5.44849,0 -2.97357,-11.33213 5.95947,0 2.97204,11.33213 5.4254,0 -3.24293,-12.37668 c -0.51098,-1.93932 -2.21941,-3.21341 -4.71894,-3.21341"
               inkscape:connector-curvature="0" />
            <path
               id="path5362"
               style="fill:#e1251c;fill-opacity:1;fill-rule:nonzero;stroke:none"
               d="m 101.69666,840.55682 5.44387,0 -4.07867,-15.59009 -5.44695,0"
               inkscape:connector-curvature="0" />
            <path
               id="path5364"
               style="fill:#e1251c;fill-opacity:1;fill-rule:nonzero;stroke:none"
               d="m 115.1332,829.22469 11.28791,0 0.45712,1.69192 -6.0349,0 c -3.41069,0 -5.06833,0.31338 -4.40958,2.83818 l 0.97426,3.73294 c 0.60026,2.29529 2.49646,3.06909 5.9564,3.06909 l 10.26286,0 -1.11586,-4.21673 -10.07355,0 -0.44942,-1.72764 7.24618,0 c 2.66576,0 3.64156,-0.94149 3.10903,-3.03199 l -0.98504,-3.81678 c -0.4525,-1.71528 -2.11784,-2.79695 -4.57274,-2.79695 l -12.76239,0"
               inkscape:connector-curvature="0" />
            <path
               id="path5368"
               style="fill:#e1251c;fill-opacity:1;fill-rule:nonzero;stroke:none"
               d="m 147.25619,830.60187 -4.07098,9.95495 6.29039,0 1.67303,-5.86604 4.7528,5.86604 6.31348,0 -9.34401,-9.95495 -1.46832,-5.63514 -5.61009,0"
               inkscape:connector-curvature="0" />
            <path
               id="path5370"
               style="fill:#e1251c;fill-opacity:1;fill-rule:nonzero;stroke:none"
               d="m 172.54704,840.55682 14.56162,0 -1.1097,-4.21673 -9.09622,0 -0.46328,-1.79362 9.09314,0 -0.9127,-3.52678 -9.09159,0 -1.59299,-6.05296 -5.47158,0"
               inkscape:connector-curvature="0" />
            <path
               id="path5372"
               style="fill:#e1251c;fill-opacity:1;fill-rule:nonzero;stroke:none"
               d="m 198.49199,834.31694 0.52178,2.02315 -5.58702,0 -0.52176,-2.02315 5.587,0 z m -9.35477,6.23988 12.25603,0 c 2.82736,0 3.8832,-0.97996 3.28755,-3.17216 l -0.52791,-1.98055 c -0.37862,-1.41841 -1.02814,-2.08913 -2.73195,-2.56743 1.57452,-0.54289 1.74537,-1.21361 1.37906,-2.59079 l -1.37906,-5.27916 -5.34997,0 1.51449,5.80419 -5.60702,0 -1.5145,-5.80419 -5.3977,0"
               inkscape:connector-curvature="0" />
            <path
               id="path5374"
               style="fill:#e1251c;fill-opacity:1;fill-rule:nonzero;stroke:none"
               d="m 215.48236,829.22469 1.8608,7.1154 -5.61472,0 -1.8531,-7.1154 5.60702,0 z m 0.10773,-4.25796 -8.04191,0 c -2.79966,0 -3.89551,1.39505 -3.15827,4.19887 l 1.87312,7.17449 c 0.75109,2.86293 2.4903,4.21673 5.37153,4.21673 l 8.03421,0 c 2.89509,0 3.86935,-1.33593 3.11826,-4.21673 l -1.87312,-7.17449 c -0.73724,-2.80382 -2.51646,-4.19887 -5.32382,-4.19887"
               inkscape:connector-curvature="0" />
            <path
               id="path5376"
               style="fill:#e1251c;fill-opacity:1;fill-rule:nonzero;stroke:none"
               d="m 229.57148,836.34009 -5.35769,0 1.10971,4.21673 16.2054,0 -1.12201,-4.21673 -5.11296,0 -2.96282,-11.37336 -5.73475,0"
               inkscape:connector-curvature="0" />
            <path
               id="path5378"
               style="fill:#e1251c;fill-opacity:1;fill-rule:nonzero;stroke:none"
               d="m 246.75114,836.34009 -5.35768,0 1.11125,4.21673 16.20387,0 -1.11587,-4.21673 -5.11912,0 -2.9628,-11.37336 -5.73631,0"
               inkscape:connector-curvature="0" />
            <path
               id="path5380"
               style="fill:#e1251c;fill-opacity:1;fill-rule:nonzero;stroke:none"
               d="m 260.25232,840.55682 14.55393,0 -1.10818,-4.21673 -9.09004,0 -0.46019,-1.79362 9.03618,0 -0.90655,-3.52678 -9.05003,0 -0.48791,-1.795 9.02388,0 -1.10201,-4.25796 -14.49545,0"
               inkscape:connector-curvature="0" />
            <path
               id="path5382"
               style="fill:#e1251c;fill-opacity:1;fill-rule:nonzero;stroke:none"
               d="m 282.61266,829.22469 11.29562,0 0.44635,1.69192 -6.02105,0 c -3.42145,0 -5.0714,0.31338 -4.42189,2.83818 l 0.97272,3.73294 c 0.60949,2.29529 2.50261,3.06909 5.96564,3.06909 l 10.25516,0 -1.10971,-4.21673 -10.07815,0 -0.44636,-1.72764 7.2508,0 c 2.66422,0 3.63849,-0.94149 3.09671,-3.03199 l -0.97272,-3.81678 c -0.46019,-1.71528 -2.12399,-2.79695 -4.57273,-2.79695 l -12.77008,0"
               inkscape:connector-curvature="0" />
            <path
               id="path5366"
               style="fill:#e1251c;fill-opacity:1;fill-rule:nonzero;stroke:none"
               d="m 135.09867,840.55682 5.02523,0 -1.27439,-4.88058 c -0.38478,-1.50499 -1.35904,-2.21145 -3.11057,-2.21145 l -2.78427,0 0.49714,1.87335 3.08748,0 0.22625,0.85763 -2.80582,0"
               inkscape:connector-curvature="0" />
            <path
               id="path5384"
               style="fill:#e1251c;fill-opacity:1;fill-rule:nonzero;stroke:none"
               d="m 302.57969,840.55682 5.03139,0 -1.27285,-4.88058 c -0.39094,-1.50499 -1.36521,-2.21145 -3.12442,-2.21145 l -2.77195,0 0.50021,1.87335 3.0844,0 0.21548,0.85763 -2.79967,0"
               inkscape:connector-curvature="0" />
            <path
               id="path5386"
               style="fill:#e1251c;fill-opacity:1;fill-rule:nonzero;stroke:none"
               d="m 314.74028,830.60187 -4.0725,9.95495 6.29192,0 1.67611,-5.86604 4.74819,5.86604 6.31655,0 -9.34709,-9.95495 -1.47448,-5.63514 -5.59931,0"
               inkscape:connector-curvature="0" />
            <path
               id="path5388"
               style="fill:#e1251c;fill-opacity:1;fill-rule:nonzero;stroke:none"
               d="m 348.8426,833.62835 0.70338,2.71174 -5.34384,0 -0.70338,-2.71174 5.34384,0 z m -8.90844,6.92847 12.64235,0 c 2.43489,0 3.34143,-0.89475 2.73348,-3.19003 l -1.12357,-4.30058 c -0.54176,-2.04652 -1.92082,-3.03197 -4.23411,-3.03197 l -7.31237,0 -1.33904,-5.06751 -5.44387,0"
               inkscape:connector-curvature="0" />
            <path
               id="path5390"
               style="fill:#e1251c;fill-opacity:1;fill-rule:nonzero;stroke:none"
               d="m 357.86493,840.55682 5.44541,0 -4.07867,-15.59009 -5.45157,0"
               inkscape:connector-curvature="0" />
            <path
               id="path5392"
               style="fill:#e1251c;fill-opacity:1;fill-rule:nonzero;stroke:none"
               d="m 373.86871,829.22469 1.86695,7.1154 -5.61471,0 -1.8531,-7.1154 5.60086,0 z m 4.34186,-2.02864 1.73151,0 -1.082,-4.23461 -3.93707,0 c -1.73151,0 -2.38102,0.47693 -2.25174,2.00529 l -6.73057,0 c -2.81352,0 -3.89552,1.39505 -3.16443,4.19887 l 1.8808,7.17449 c 0.74339,2.86293 2.46106,4.21673 5.34228,4.21673 l 8.03575,0 c 2.89509,0 3.89553,-1.33593 3.13828,-4.21673 l -1.94853,-7.45351 c -0.21702,-0.77242 -0.32475,-1.26722 -1.01428,-1.69053"
               inkscape:connector-curvature="0" />
            <path
               id="path5394"
               style="fill:#e1251c;fill-opacity:1;fill-rule:nonzero;stroke:none"
               d="m 392.6583,824.96673 -9.05003,0 c -2.50261,0 -3.57076,1.27409 -3.05669,3.21341 l 3.23216,12.37668 5.45156,0 -2.97512,-11.33213 5.96409,0 2.97051,11.33213 5.4177,0 -3.23369,-12.37668 c -0.51407,-1.93932 -2.21787,-3.21341 -4.72049,-3.21341"
               inkscape:connector-curvature="0" />
            <path
               id="path5396"
               style="fill:#e1251c;fill-opacity:1;fill-rule:nonzero;stroke:none"
               d="m 402.66874,840.55682 14.56932,0 -1.10969,-4.21673 -9.1039,0 -0.4602,-1.79362 9.05003,0 -0.90655,-3.52678 -9.05003,0 -0.48636,-1.795 9.02233,0 -1.10971,-4.25796 -14.48621,0"
               inkscape:connector-curvature="0" />
          </g>
        </g>
      </g>
      <path
         sodipodi:nodetypes="cccssssssscssssssccsssssssssccssc"
         inkscape:connector-curvature="0"
         id="path3893"
         d="M 239.9807,1000.8383 C 151.47767,1000.5141 66.57977,981.9432 23.94984,950.01725 l -0.49771,-0.35946 C 12.47224,900.01265 3.66156,854.87786 2.85274,813.89541 c -0.8107,-41.08269 2.86898,-77.9997 9.87112,-111.12608 7.00213,-33.12641 17.30281,-62.47779 29.72395,-88.39764 12.42123,-25.91984 26.96887,-48.41817 42.41537,-67.8812 15.44661,-19.46302 35.3512,-35.87613 51.42934,-49.63207 16.07825,-13.75594 31.85987,-24.85171 46.1758,-33.65027 14.31593,-8.79859 27.16774,-15.28953 37.32774,-19.88048 10.1599,-4.59095 17.62512,-7.27261 21.23535,-8.40566 5.25596,1.45015 14.00924,4.5437 25.13402,9.62227 11.12488,5.07857 24.64194,12.14277 39.37396,21.48419 14.73168,9.34143 30.67898,20.95995 46.75634,35.19868 16.07748,14.23872 35.82546,31.10588 50.98695,50.87633 15.16158,19.77046 29.29768,42.44224 41.28183,68.3789 11.9838,25.93664 21.79664,55.135 28.34133,87.87228 6.54479,32.73727 9.8105,69.01821 8.65449,109.19057 -2.69505,43.69413 -10.97889,86.79298 -19.3141,123.47563 -0.16945,0.74562 -0.33943,1.49225 -0.50998,2.23992 -0.17055,0.74766 -0.34165,1.49634 -0.5133,2.24603 -0.17165,0.7497 -0.34397,1.50042 -0.51672,2.25216 -0.0211,0.094 -0.0431,0.18796 -0.0642,0.28196 -0.0209,0.094 -0.0431,0.18801 -0.0642,0.28203 -0.021,0.094 -0.0431,0.18808 -0.0641,0.28215 -0.0209,0.094 -0.043,0.18814 -0.0642,0.28223 -0.021,0.0941 -0.0431,0.18821 -0.0642,0.28233 -0.0209,0.0941 -0.0431,0.18828 -0.0642,0.28243 -0.0221,0.0941 -0.0431,0.18833 -0.0652,0.28253 l -0.34154,0.28262 c -23.69952,17.73502 -61.45109,32.14174 -108.41724,41.03286 -35.85776,6.7882 -74.00127,9.78819 -111.51318,9.78819 z"
         style="fill:none;stroke:#808080;stroke-width:0.99999994" />
    </g>
  </g>
</svg>
