<?xml version="1.0" encoding="utf-8"?>
<!-- Generator: Adobe Illustrator 14.0.0, SVG Export Plug-In . SVG Version: 6.00 Build 43363)  -->
<svg version="1.2" baseProfile="tiny" id="Layer_1" xmlns:svg="http://www.w3.org/2000/svg"
	 xmlns="http://www.w3.org/2000/svg" xmlns:xlink="http://www.w3.org/1999/xlink" x="0px" y="0px" width="577.57px" height="570px"
	 viewBox="0 0 577.57 570" xml:space="preserve">
<path id="path3812" fill="#A92026" d="M177.813,543.729c-38.088-15.696-70.632-38.232-99.72-67.248l24.336-21.313
	c-42.336-43.848-68.256-102.313-68.256-166.32c0-17.063,1.872-33.768,5.4-49.896l-31.608-7.776
	c15.12-64.512,49.968-118.872,102.672-159.12c106.056-80.928,255.528-80.928,361.584,0c52.704,40.248,87.552,94.608,102.672,159.12
	l-31.608,7.776c3.528,16.128,5.4,32.832,5.4,49.896c0,64.008-25.92,122.473-68.256,166.32l24.336,21.313
	c-29.088,29.016-61.632,51.552-99.72,67.248C331.965,573.896,250.893,573.896,177.813,543.729z"/>
<path id="path3814" fill="#FAB812" d="M327.068,131.168c0.216,9-1.656,15.048,9.072,16.848c11.88,1.944,25.056,1.44,36.792-1.296
	c12.744-2.952,19.728-7.92,28.368-17.712l44.496,39.024c-11.448,17.64-16.632,32.688-14.04,53.856
	c1.8,15.12,4.968,29.952,9.288,44.496c4.968,16.632,10.008,33.624,9.071,51.192c-1.512,28.729-15.336,55.439-33.336,77.256
	c-9.288,11.232-19.728,21.456-31.607,29.88c-12.024,8.424-25.272,14.688-39.384,18.864c-21.889,6.408-38.232,19.368-54.36,34.992
	c-16.128-15.624-32.472-28.584-54.36-34.992c-14.112-4.176-27.36-10.44-39.384-18.864c-11.88-8.424-22.32-18.647-31.608-29.88
	c-18-21.816-31.824-48.527-33.336-77.256c-0.936-17.568,4.104-34.56,9.072-51.192c4.32-14.544,7.488-29.376,9.288-44.496
	c2.592-21.168-2.592-36.216-14.04-53.856l44.496-39.024c8.64,9.792,15.624,14.76,28.368,17.712
	c11.736,2.736,24.912,3.24,36.792,1.296c10.728-1.8,8.856-7.848,9.072-16.848H327.068L327.068,131.168z"/>
<path id="path3816" fill="#A92026" d="M321.309,137.144c0.288,10.8,3.096,14.904,13.896,16.704c10.943,1.8,25.703,1.8,39.096-1.296
	c10.872-2.52,20.088-6.768,27.576-15.192l36.144,31.752c-11.016,16.992-14.616,33.408-12.168,53.496
	c1.872,15.408,5.112,30.6,9.504,45.432c4.752,15.912,9.72,32.472,8.856,49.248c-1.513,27.433-14.832,52.92-32.04,73.8
	c-9.36,11.305-19.296,20.952-30.456,28.729c-11.088,7.848-23.473,13.896-37.584,18.071c-20.809,6.12-37.296,17.496-52.704,32.473
	c-15.408-14.977-31.896-26.353-52.704-32.473c-14.112-4.176-26.496-10.224-37.584-18.071c-11.16-7.776-21.096-17.424-30.456-28.729
	c-17.208-20.88-30.528-46.367-32.04-73.8c-0.864-16.776,4.104-33.336,8.856-49.248c4.392-14.832,7.632-30.024,9.504-45.432
	c2.448-20.088-1.152-36.504-12.168-53.496l36.144-31.752c7.488,8.424,16.704,12.672,27.576,15.192
	c13.392,3.096,28.152,3.096,39.096,1.296c10.8-1.8,13.608-5.904,13.896-16.704H321.309L321.309,137.144z"/>
<path id="path3818" fill="#FAB812" d="M317.492,141.104h-52.127c-0.864,10.729-6.912,14.976-17.064,16.632
	c-11.376,1.872-26.712,1.872-40.68-1.368c-10.44-2.448-20.232-6.696-26.928-13.464l-30.744,26.928
	c10.368,16.56,13.32,33.912,11.016,53.208c-1.944,15.624-5.256,31.032-9.72,46.152c-3.96,13.392-8.208,27.288-8.712,41.472
	l18.648-41.904h28.584l-34.992,78.768h-5.544c5.688,14.903,14.4,28.8,24.48,41.04c9.216,11.016,18.864,20.448,29.664,28.008
	c10.8,7.632,22.752,13.464,36.504,17.496c19.872,5.832,36.576,16.632,51.552,30.815c14.903-14.184,31.68-24.983,51.552-30.815
	c13.752-4.032,25.704-9.864,36.504-17.496c10.8-7.56,20.448-16.992,29.664-28.008c10.08-12.24,18.792-26.137,24.48-41.04h-28.152
	L434.996,281c-1.079-3.96-2.231-7.92-3.384-11.808c-0.071-0.144-0.071-0.216-0.144-0.36l-34.128,78.696h-28.584l34.992-78.768h27.72
	c-4.393-14.976-7.704-30.24-9.576-45.72c-2.304-19.296,0.648-36.648,11.016-53.208l-30.743-26.928
	c-6.696,6.768-16.488,11.016-26.929,13.464c-13.968,3.24-29.304,3.24-40.68,1.368C324.404,156.08,318.356,151.832,317.492,141.104
	L317.492,141.104z M367.101,268.76h28.584l-34.992,78.768h-28.584L367.101,268.76L367.101,268.76z M325.484,268.76h33.48
	l-14.761,33.264C342.261,288.776,335.349,277.04,325.484,268.76L325.484,268.76z M234.549,268.76h22.824
	c-11.736,9.792-19.296,24.48-19.296,40.968c0,4.176,0.504,8.279,1.44,12.168l-11.376,25.632h-28.584L234.549,268.76L234.549,268.76z
	 M197.829,268.76h28.584l-34.992,78.768h-28.584L197.829,268.76L197.829,268.76z M253.845,347.528h-17.64l6.84-15.408
	C245.708,337.881,249.38,343.137,253.845,347.528z"/>
<path id="path3820" fill="#A92026" d="M291.429,355.736c25.344,0,46.008-20.664,46.008-46.008c0-25.272-20.664-45.937-46.008-45.937
	c-25.344,0-46.008,20.664-46.008,45.937C245.42,335.072,266.084,355.736,291.429,355.736z"/>
<polygon id="polygon3822" fill="#FAB812" points="249.021,312.607 260.037,301.592 274.292,306.2 279.621,322.688 270.836,334.784 
	255.429,332.336 "/>
<polygon id="polygon3824" fill="#FAB812" points="281.133,350.984 274.004,337.088 282.717,325.137 300.141,325.137 
	308.853,337.088 301.725,350.984 "/>
<polygon id="polygon3826" fill="#FAB812" points="327.429,332.336 312.021,334.784 303.236,322.688 308.564,306.2 322.82,301.592 
	333.837,312.607 "/>
<polygon id="polygon3828" fill="#FAB812" points="324.045,282.512 321.597,297.848 307.125,302.528 293.373,292.52 293.373,277.4 
	307.269,270.344 "/>
<polygon id="polygon3830" fill="#FAB812" points="275.588,270.344 289.484,277.4 289.484,292.52 275.732,302.528 261.261,297.848 
	258.813,282.512 "/>
<path id="path3832" fill="#A92026" d="M215.252,254.504c3.168-3.24,7.488-5.976,12.6-8.064c5.832-2.448,12.6-4.536,19.656-6.624
	l-0.288-5.76l-16.272,0.36c0.072-13.68,3.312-26.64,9.648-38.736l-5.184,2.16l5.544-9.432c2.448-1.656,4.392-4.32,6.264-9.288
	c0.936-2.52,1.8-5.616,2.736-9.36c0.648-1.728,2.736-1.152,3.384-0.288c1.8,5.112,4.32,9.936,7.488,14.544
	c2.376,3.456,5.688,6.408,9.288,9.288l4.752-8.712c-0.144-5.76,0.504-11.304,2.448-15.552c1.152-2.592,2.736-4.464,4.536-6.192
	c1.728-1.656,3.6-3.168,4.896-5.472c0.648-1.08,1.224-2.232,1.656-3.528c0.648-1.8,1.44-3.168,2.591-4.752
	c1.152-1.656,2.521-3.24,4.033-2.16c1.079,0.72,1.871,2.592,2.52,4.608c0.576,1.872,1.152,3.744,1.728,5.688
	c2.376,7.848,4.681,15.84,6.984,23.688c1.008,2.808,2.376,5.4,3.96,7.92c1.584,2.376,3.384,4.824,5.399,6.264l-6.336,1.44
	l0.505,6.192c1.871,1.008,3.6,2.232,4.823,3.312c1.008,0.864,2.521,2.16,0.648,3.096c-1.008,0.432-2.448,0.648-3.096,0.792
	c0.647,5.904,2.159,8.352,5.399,6.984c0.145-9.072,1.512-16.488,3.672-22.032c1.656-4.32,3.672-7.128,7.057-10.296
	c2.231-2.952,4.319-7.488,6.191-14.184c0.504-0.648,1.008-1.152,1.512-1.368c1.152-0.504,1.656,1.296,1.944,2.088l1.296,10.656
	c3.744,3.528,8.208,8.928,9.864,13.968c1.152,3.384,1.224,7.272,0.72,11.592c0.576,2.664,1.368,4.896,2.376,6.696
	c1.44,2.52,2.593,3.168,4.896,3.96c2.016,0.648,5.472,2.736,3.672,5.256c-1.512,2.16-3.96,3.456-6.192,4.752
	c1.944,2.232,0.937,3.888-1.512,5.688l-13.32-0.072v6.624c13.32,2.376,25.561,6.48,36.721,14.256H215.252L215.252,254.504z
	 M255.86,233.48l0.36,4.896c5.976,0.504,12.24-0.216,18.864-1.872l-0.144-2.736C268.893,232.76,261.765,230.888,255.86,233.48
	L255.86,233.48z M289.916,232.76l-3.744,0.432l-3.168,2.592l6.984-0.288L289.916,232.76L289.916,232.76z M298.629,231.32v3.816
	c4.896-0.072,9.72,0.144,14.615,0.288c8.28,0.36,14.904,1.008,19.08,3.024v-4.68c-3.096-2.448-8.136-2.376-11.88-2.448H298.629z"/>
<path id="path3834" fill="#A92026" d="M193.94,399.872l7.776,13.824l177.12,1.368l0.216-17.424l-14.256,0.071
	c0.359-7.92-5.832-9.936-12.385-9.647c-5.615,0.287-9.216,3.096-9.936,9.144l-2.808-0.072v-1.872l-2.521-0.144v-4.536h-2.952
	l0.072-6.695l-12.528-0.217v-2.52l-11.52-0.072v-12.313l4.176-4.463c5.688,1.584,10.44,1.871,13.32-3.961
	c4.752,0.576,8.567,0.648,7.92-2.231l5.976-1.152l-0.288-2.592c-6.479-2.592-12.815-2.88-18.72,1.224
	c-2.664-0.216-5.328,0.576-7.704,2.16c-3.023,2.088-5.904,5.256-8.855,9.145h-17.28v8.568h1.44l-0.072,12.743l-3.096,0.072
	l0.072,3.456h-1.512v-10.801h-2.304v-14.688c1.224-0.792,2.52-1.512,3.96-2.016c4.033-1.512,8.064-0.864,12.312-1.729
	c0.576-0.144,4.104-0.792,4.752-1.728c0.576-0.648-1.224-1.513-1.584-1.872c-6.912-0.145-12.527,0.216-16.776,1.367
	c-3.744,0.937-6.336,3.168-7.776,6.049h-2.304v29.447h-11.448v3.744l-37.512,0.217l0.144-22.608c1.944-1.872,4.464-2.88,7.128-3.744
	l13.464-0.36l4.968-4.967c3.744-1.009,9-4.393,10.08-8.425c0.504-2.088-0.936-3.168-2.808-4.68
	c-3.456-1.224-7.704-0.864-11.88-0.792c0.288-3.528-5.76-3.096-7.848-2.881c-1.944,0.145-3.312,0.721-4.392,2.305
	c-1.008,1.439-1.728,3.313-2.304,5.544c-1.872,0.937-3.528,1.872-5.184,3.24c-6.264-0.288-11.88,1.944-16.776,9.071l-0.576,28.368
	L193.94,399.872L193.94,399.872z M224.396,376.328h-2.232v23.4l-5.904,0.071l0.216-28.728l4.464-4.464
	c4.104,0.36,8.208,0.647,11.952,0.288l2.448-3.096c3.456-1.225,6.768-2.089,9.288-0.937c-0.144,2.088-1.368,2.952-3.024,3.456
	c-0.72,0.145-1.368,0.145-1.872,0.359c-1.44,0.648-2.232,1.225-3.24,2.377c-0.72,0.72-1.44,1.151-2.376,1.584
	C230.805,372.008,227.564,373.448,224.396,376.328z"/>
<path id="path3836" fill="#FAB812" d="M89.181,242.192l4.752,1.152c10.656-41.976,35.928-77.976,69.984-103.752
	c74.52-56.448,180.504-56.448,255.024,0c34.056,25.776,59.328,61.776,69.984,103.752l4.752-1.152
	c-9.216-35.424-28.656-67.176-55.152-92.16c-37.728-35.64-89.784-57.744-147.096-57.744c-57.312,0-109.368,22.104-147.096,57.744
	C117.836,175.016,98.396,206.768,89.181,242.192z"/>
<path id="path3838" fill="#FAB812" d="M27.549,227.072l57.816,14.184c9.36-36.216,29.16-68.544,56.232-94.104
	c38.448-36.36,91.44-58.824,149.832-58.824c58.392,0,111.384,22.464,149.832,58.824c27.072,25.56,46.872,57.888,56.231,94.104
	l57.816-14.184c-11.952-46.872-37.296-88.848-71.928-121.968c-49.177-47.088-117.145-76.32-191.952-76.32
	c-74.808,0-142.776,29.232-191.952,76.32C64.845,138.224,39.573,180.2,27.549,227.072z"/>
<path id="path3840" fill="#FAB812" d="M115.964,78.968C68.588,115.112,33.309,165.8,18.477,224.84l5.184,1.296
	c12.24-47.664,37.944-90.216,73.08-123.84c49.896-47.88,118.8-77.472,194.688-77.472c75.888,0,144.792,29.592,194.688,77.472
	c35.137,33.624,60.841,76.176,73.08,123.84l5.185-1.296c-14.832-59.04-50.112-109.728-97.488-145.872
	C364.076,0.416,218.781,0.416,115.964,78.968z"/>
<path id="path3842" fill="#FAB812" d="M437.301,428.816l-3.601-3.168c-18.144,16.775-40.031,30.239-63.72,39.672
	c-50.832,20.088-106.272,20.088-157.104,0c-23.688-9.433-45.576-22.896-63.72-39.672l-3.6,3.168
	c37.584,34.992,89.136,56.592,145.872,56.592S399.717,463.809,437.301,428.816z"/>
<path id="path3844" fill="#FAB812" d="M485.181,470.864l-44.856-39.456c-38.376,35.784-91.008,57.96-148.896,57.96
	c-57.888,0-110.52-22.176-148.896-57.96l-44.856,39.456c0.576,0.576,1.224,1.152,1.8,1.656
	c49.176,47.159,117.144,76.392,191.952,76.392c74.808,0,142.775-29.232,191.952-76.392
	C483.957,472.017,484.604,471.44,485.181,470.864z"/>
<path id="path3846" fill="#FAB812" d="M401.732,535.664c33.624-13.824,64.44-33.84,90.288-58.752l-3.888-3.456
	c-0.648,0.648-1.296,1.296-2.017,1.944c-49.896,47.808-118.8,77.472-194.688,77.472c-75.888,0-144.792-29.664-194.688-77.472
	c-0.72-0.648-1.368-1.296-2.016-1.944l-3.888,3.456c25.848,24.912,56.664,44.928,90.288,58.752
	C252.044,564.968,330.813,564.968,401.732,535.664z"/>
<path id="path3848" fill="#A92026" d="M320.589,537.536l-9.721,1.152l-2.735-26.353c-2.592,2.592-6.408,4.752-9.721,6.265
	l-0.863-8.929c3.672-1.728,10.439-7.056,10.584-11.592l8.208-1.008L320.589,537.536z"/>
<polygon id="polygon3850" fill="#A92026" points="165.212,507.944 181.413,472.448 208.053,484.616 204.813,491.816 
	187.821,483.896 185.013,490.016 200.708,497.36 197.469,504.488 181.772,497.216 178.172,504.992 195.813,513.2 192.573,520.4 "/>
<path id="path3852" fill="#A92026" d="M203.732,508.88l9.576,2.952c-1.152,4.824,1.008,8.712,4.896,9.145
	c5.112,0.647,6.552-4.248,2.88-7.849c-4.608-3.6-11.088-7.416-11.16-13.896c-0.144-5.112,3.24-9.576,7.488-11.017
	c5.112-1.655,14.544,1.729,18.36,5.616c2.952,3.096,3.888,7.2,2.376,12.096l-9.72-3.384c0.432-3.6-1.008-5.472-2.736-6.408
	c-2.304-1.296-5.184-0.359-5.544,1.656c-0.432,1.944,1.296,3.313,3.456,4.536c3.528,2.16,7.272,5.328,9.432,9.072
	c1.728,3.023,1.728,6.768-0.144,10.512c-1.728,4.248-4.968,6.336-8.712,7.2c-6.192,1.368-16.56-2.592-19.728-7.92
	C202.509,517.952,201.933,513.848,203.732,508.88z"/>
<polygon id="polygon3854" fill="#A92026" points="248.301,535.521 252.261,505.712 241.245,504.128 242.829,494.624 
	275.949,499.232 274.365,508.809 263.42,507.296 259.46,537.104 "/>
<path id="path3856" fill="#A92026" d="M274.365,537.896c2.664,0,4.896-2.232,4.896-4.896c0-2.736-2.232-4.968-4.896-4.968
	c-2.736,0-4.896,2.231-4.896,4.968C269.469,535.664,271.628,537.896,274.365,537.896z"/>
<path id="path3858" fill="#A92026" d="M332.253,513.848c-1.944-0.504-3.528-1.584-4.536-2.88c-1.872-2.447-2.448-4.896-2.16-7.128
	c1.512-11.52,22.824-14.328,26.28-2.952c1.08,3.673,0,7.992-3.385,10.44c4.032,1.368,7.057,4.392,7.704,8.28
	c1.08,5.544-1.296,10.8-6.407,13.104c-4.465,2.16-10.944,3.168-15.624,1.008c-4.608-2.159-7.272-6.983-6.48-13.104
	C328.005,518.024,329.66,515.576,332.253,513.848L332.253,513.848z M339.452,526.88c2.089,1.584,5.185,1.225,6.624-0.936
	c1.44-2.16,0.648-7.561-1.512-9.145c-2.016-1.512-5.544-1.151-6.696,1.152C336.645,520.328,337.221,525.225,339.452,526.88
	L339.452,526.88z M340.028,509.601c5.112-1.08,3.384-10.297-1.943-9.145C333.116,501.536,334.412,510.752,340.028,509.601z"/>
<path id="path3860" fill="#A92026" d="M371.709,501.176c4.823-1.943,1.512-10.728-3.456-8.64
	C363.501,494.48,366.381,503.336,371.709,501.176L371.709,501.176z M364.797,506.792c-2.017-0.216-3.744-1.008-4.969-2.16
	c-2.231-2.016-3.239-4.319-3.312-6.552c-0.576-11.592,19.944-18.144,25.272-7.56c1.728,3.456,1.439,7.848-1.44,10.872
	c4.176,0.647,7.632,3.096,9,6.84c2.088,5.184,0.647,10.8-4.032,14.04c-4.032,2.88-10.224,5.04-15.191,3.672
	c-4.896-1.296-8.353-5.544-8.641-11.736C361.412,511.544,362.564,508.88,364.797,506.792L364.797,506.792z M374.156,518.313
	c2.305,1.224,5.328,0.288,6.336-2.088c1.08-2.377-0.647-7.561-3.023-8.784c-2.232-1.152-5.688-0.145-6.408,2.304
	C370.269,512.336,371.709,517.017,374.156,518.313z"/>
<path id="path3862" fill="#A92026" d="M412.82,477.848l-8.712,4.32c-1.656-2.808-3.672-3.312-5.256-2.52
	c-3.96,1.872-1.872,8.855-0.936,12.168c1.8-4.536,5.111-7.057,10.296-7.128c5.399,0.863,9.359,4.896,11.16,9.863
	c2.304,6.408,0.287,12.744-5.545,15.984c-14.327,7.848-22.607-4.248-25.344-16.056c-1.151-4.896-1.584-9.145-0.432-12.744
	c1.872-6.048,7.704-9.288,13.752-9.792C406.412,471.584,410.156,473.601,412.82,477.848L412.82,477.848z M404.541,504.992
	c2.376,1.368,5.399,0.504,6.336-2.088c1.008-2.592-1.08-8.353-3.528-9.792c-2.376-1.296-5.832-0.36-6.48,2.304
	C400.221,498.225,401.877,503.48,404.541,504.992z"/>
<path id="path3864" fill="#A92026" d="M93.141,155.504c-1.44-1.224-2.664-2.52-3.672-3.816c-1.08-1.368-1.872-2.664-2.448-4.032l0,0
	c-0.432-0.936-0.792-2.016-1.08-3.024c-0.216-1.08-0.36-2.16-0.432-3.168l0,0c-0.072-1.08,0-2.16,0.144-3.168
	c0.144-1.008,0.432-2.016,0.792-2.952v0.072c0.432-1.296,1.08-2.448,1.872-3.6c0.72-1.224,1.656-2.304,2.736-3.456
	c2.016-2.016,4.176-3.528,6.408-4.608c2.304-1.008,4.752-1.584,7.344-1.584c2.592-0.072,5.112,0.432,7.56,1.512
	c2.448,1.008,4.824,2.592,7.128,4.68c2.376,2.016,4.104,4.176,5.328,6.408c1.296,2.304,2.016,4.68,2.16,7.128
	c0.144,2.448-0.288,4.752-1.224,7.056c-0.936,2.232-2.376,4.32-4.392,6.336c-1.944,2.088-4.104,3.6-6.408,4.68
	s-4.68,1.584-7.272,1.656c-2.52,0-5.04-0.504-7.488-1.512C97.749,159.104,95.444,157.592,93.141,155.504L93.141,155.504z
	 M100.341,147.872c1.44,1.224,2.808,2.16,4.176,2.808c1.224,0.576,2.52,0.936,3.672,0.936c1.224,0.072,2.376-0.144,3.384-0.576
	c1.008-0.432,1.944-1.08,2.808-1.944c0.864-0.864,1.512-1.8,1.872-2.808c0.36-1.008,0.504-2.016,0.36-3.168
	c-0.144-1.152-0.576-2.304-1.296-3.528c-0.72-1.224-1.872-2.52-3.312-3.816c-1.44-1.296-2.808-2.232-4.176-2.88
	c-1.224-0.576-2.448-0.936-3.6-0.936l0,0c-1.152-0.072-2.232,0.144-3.24,0.576c-1.008,0.432-1.944,1.08-2.88,2.016
	c-0.864,0.936-1.512,1.872-1.944,2.88c-0.36,1.008-0.504,2.088-0.36,3.168c0.072,1.152,0.504,2.304,1.224,3.456
	C97.821,145.28,98.9,146.576,100.341,147.872z"/>
<polygon id="polygon3866" fill="#A92026" points="167.157,114.32 148.365,78.968 157.725,74 164.564,86.816 174.645,81.488 
	167.805,68.672 177.165,63.704 195.957,98.984 186.597,104.024 179.037,89.768 168.957,95.096 176.517,109.352 "/>
<polygon id="polygon3868" fill="#A92026" points="203.373,95.312 191.637,57.008 218.997,48.656 221.732,57.656 204.524,62.912 
	206.252,68.744 222.309,63.704 224.396,71.264 208.341,76.232 210.717,83.216 229.292,77.528 232.029,86.528 "/>
<path id="path3870" fill="#A92026" d="M239.588,84.152l-5.976-39.528l16.344-2.664c4.68-0.72,9.288-0.72,12.672,1.728
	c4.536,3.24,6.12,10.296,3.6,15.336c-1.08,2.304-2.952,4.176-5.544,5.112c3.168,1.872,4.824,2.88,6.192,4.968
	c1.368,2.088,2.736,4.896,6.408,9.504l-12.312,1.656c-3.312-3.384-5.112-7.92-7.632-11.232c-1.44-1.872-3.384-2.304-5.976-1.728
	l2.304,15.192L239.588,84.152L239.588,84.152z M246.212,59.96c2.448-0.36,4.68-0.36,7.056-1.296
	c4.248-1.728,4.464-6.696-0.072-7.632c-2.52-0.432-5.76,0.504-7.992,0.864L246.212,59.96z"/>
<polygon id="polygon3872" fill="#A92026" points="285.165,78.68 278.252,38.288 289.125,38.792 291.5,60.608 298.629,39.152 
	308.564,39.584 313.028,62.12 317.996,40.304 328.797,40.736 318.213,80.048 307.845,79.616 302.66,56.432 295.604,79.112 "/>
<polygon id="polygon3874" fill="#A92026" points="369.333,92.072 384.813,55.496 394.604,59.6 382.725,87.536 398.996,94.304 
	395.324,102.872 "/>
<polygon id="polygon3876" fill="#A92026" points="446.013,138.728 474.165,110.288 494.396,130.376 489.141,135.992 
	476.469,123.392 471.213,128.432 482.085,139.232 476.541,144.704 465.669,134.12 453.572,146.216 "/>
<polygon id="polygon3878" fill="#A92026" points="85.365,209.216 50.373,189.848 56.853,177.752 81.117,183.296 63.188,167.024 
	69.957,154.928 104.949,174.368 100.557,181.784 75.141,167.816 96.885,188.12 93.429,194.384 64.772,186.752 90.261,200.432 "/>
<polygon id="polygon3880" fill="#A92026" points="145.557,131.24 126.333,107.48 117.765,114.32 111.86,107.048 137.133,86.6 
	143.037,93.944 134.541,100.784 153.836,124.616 "/>
<polygon id="polygon3882" fill="#A92026" points="332.036,81.56 342.477,42.896 370.053,50.312 367.604,59.384 350.253,54.704 
	348.669,60.608 364.868,64.784 362.637,72.344 346.364,68.096 344.709,75.224 363.429,80.336 361.053,89.336 "/>
<polygon id="polygon3884" fill="#A92026" points="401.948,106.76 422.973,73.064 431.973,78.68 415.917,104.384 430.893,113.6 
	425.925,121.52 "/>
<path id="path3886" fill="#A92026" d="M470.349,161.768c2.664,0,4.896-2.16,4.896-4.896c0-2.664-2.231-4.896-4.896-4.896
	c-2.736,0-4.896,2.232-4.896,4.896C465.452,159.608,467.612,161.768,470.349,161.768z"/>
<path id="path3888" fill="#A92026" d="M500.156,210.152c2.736,0,4.969-2.232,4.969-4.968c0-2.664-2.232-4.896-4.969-4.896
	c-2.664,0-4.896,2.232-4.896,4.896C495.261,207.92,497.492,210.152,500.156,210.152z"/>
<path id="path3890" fill="#A92026" d="M504.837,194.888c-8.28,2.16-15.049,0.648-20.017-7.272c-1.439-2.304-2.304-4.608-2.735-6.912
	l0,0c-0.792-5.04,0.647-10.08,3.815-13.968c3.456-4.248,9.145-7.704,14.4-9c5.04-1.224,10.296-0.432,14.544,2.664
	c3.744,2.736,6.84,7.344,7.775,11.952c1.225,5.616-0.575,9.648-4.104,13.824l-7.488-7.704c1.872-2.304,2.592-4.68,0.721-7.632
	c-1.944-3.096-5.04-4.032-8.496-3.024c-3.24,1.008-6.912,3.384-9.217,5.76c-2.447,2.592-3.168,5.76-1.224,8.928
	c2.304,3.6,5.832,3.096,9.288,2.016L504.837,194.888z"/>
<path id="path3892" fill="#FAB812" d="M115.245,211.448c-4.392,8.928-8.064,18.288-11.016,28.152l28.512-23.4L115.245,211.448z"/>
<path id="path3894" fill="#FAB812" d="M478.629,239.6c-2.952-9.864-6.624-19.224-11.017-28.152l-17.496,4.752L478.629,239.6z"/>
<path id="path3896" fill="#FAB812" d="M400.725,439.832c7.848-4.968,15.264-10.512,22.464-16.56l-33.768,2.231L400.725,439.832z"/>
<path id="path3898" fill="#FAB812" d="M159.668,423.272c7.2,6.048,14.616,11.592,22.464,16.56l11.304-14.328L159.668,423.272z"/>
<path id="path3900" fill="#FAB812" d="M407.709,415.568l25.775-1.656l40.393,35.496c40.968-42.264,66.096-98.712,66.096-160.561
	c0-16.344-1.8-32.328-5.112-47.808l-52.416,12.888l-21.239-17.424c5.831,16.488,8.999,34.056,8.999,52.344
	C470.204,339.393,445.94,384.896,407.709,415.568z"/>
<path id="path3902" fill="#FAB812" d="M108.98,449.408l40.392-35.496l25.776,1.656c-38.232-30.672-62.496-76.176-62.496-126.721
	c0-18.288,3.168-35.855,9-52.344l-21.24,17.424L47.997,241.04c-3.312,15.48-5.112,31.464-5.112,47.808
	C42.885,350.696,68.013,407.145,108.98,449.408z"/>
</svg>
