<?xml version="1.0" encoding="UTF-8" standalone="no"?>
<svg
   version="1.1"
   width="572.40771"
   height="570.60492"
   id="svg127"
   viewBox="0 0 572.40771 570.60492"
   sodipodi:docname="f668d99d2e82ed174feb7335e6263c0d.cdr"
   xmlns:inkscape="http://www.inkscape.org/namespaces/inkscape"
   xmlns:sodipodi="http://sodipodi.sourceforge.net/DTD/sodipodi-0.dtd"
   xmlns="http://www.w3.org/2000/svg"
   xmlns:svg="http://www.w3.org/2000/svg">
  <defs
     id="defs131" />
  <sodipodi:namedview
     id="namedview129"
     pagecolor="#ffffff"
     bordercolor="#666666"
     borderopacity="1.0"
     inkscape:pageshadow="2"
     inkscape:pageopacity="0.0"
     inkscape:pagecheckerboard="0" />
  <g
     id="Layer1000"
     transform="translate(-24.5248,-68.0751)">
    <path
       d="m 321.3923,473.8797 c 13.2199,-1.3998 33.9426,0.6073 35.6555,15.5292 0.3518,10.825 -10.8481,20.6773 -31.9084,23.3982 0.7619,-2.4057 1.0195,-3.6332 0.6426,-5.2946 -2.2904,-7.1586 -2.4029,-5.6531 -3.4902,-9.8591 -5.2071,-5.298 -2.8645,-3.8427 -7.989,-12.6966 3.7478,-3.1485 7.8799,-7.1111 7.0895,-11.0771 z"
       style="fill:#e30016;fill-rule:evenodd"
       id="path2" />
    <path
       d="m 303.0806,277.7195 c 16.0274,-0.1735 21.9883,16.4124 18.6771,29.5618 2.5276,11.4852 10.3268,16.4043 7.9002,17.2 -51.5542,16.9134 1.4532,-41.8909 -131.9278,-34.6672 -17.4889,-20.6441 -0.4583,-36.6363 15.3502,-35.1424 3.8691,0.2305 6.1981,0.3925 9.7005,1.5882 -5.0993,-31.0049 12.8918,-37.2111 20.9736,-36.8404 22.3157,1.6553 23.3135,27.2694 28.9768,22.6662 9.2064,-10.7369 27.6584,-6.8041 32.2826,9.7391 1.5048,4.9509 1.0554,15.4201 -1.9332,25.8947 z m 2.771,186.8758 c -0.0292,0.0129 -0.0603,0.0285 -0.0895,0.0421 -12.5264,6.3323 -14.3247,12.5576 -18.6472,26.9006 l 12.6863,-4.204 c 4.1958,-9.8144 11.4141,-12.643 22.2954,-13.4855 1.9223,3.6508 -4.6012,8.7508 -4.7537,9.1175 3.6129,-0.6378 5.744,3.0374 4.0291,7.6447 -2.165,5.8165 6.7302,11.1497 4.5347,22.1028 -19.8294,2.6083 -21.4142,-12.6863 -26.5339,-17.7267 -9.6964,2.325 -19.344,7.5409 -21.9469,20.3269 -5.1617,5.8843 -10.8779,2.0938 -8.6038,-2.1487 3.6644,-8.1246 8.7088,-19.1272 9.4063,-22.5042 1.5672,-11.9299 -12.1434,-11.309 -23.6876,-17.2021 -21.4081,-9.4761 -18.8398,-28.3945 0.0434,-24.5566 12.0939,2.0884 -2.1216,-0.6412 -15.2927,-12.767 65.3766,-34.0443 46.5951,-9.9507 77.3085,-21.0888 1.9393,-0.5559 3.7688,-1.0853 5.5007,-1.593 -0.3335,-0.9042 -0.7097,-1.8484 -1.1286,-2.8387 28.6263,-11.225 43.9501,-15.736 73.2855,-13.9756 0.7802,9.7974 -5.201,18.8106 -20.7499,19.9602 1.2472,5.3278 -1.1333,17.1363 -5.9134,22.7671 -6.5323,7.3396 -18.0704,1.8898 -22.9319,6.7255 1.1727,18.4791 -22.5922,11.5476 -38.8108,18.5035 z m 31.76,-169.694 c 4.0168,-4.6357 13.0625,-0.8304 15.3096,-0.2027 2.855,-3.1845 -6.1609,-11.5463 3.9219,-21.3518 7.8399,-5.5847 21.6948,-2.9215 27.1636,2.7798 10.2468,-14.1376 34.0673,-18.6283 41.7133,-4.4093 8.8241,15.7508 -2.1399,28.8181 -8.9325,32.2656 9.3121,9.9323 7.3904,29.4072 0.9558,34.1155 -52.5567,36.9637 -103.4425,-21.4617 -80.1317,-43.1971 z"
       style="fill:#009931;fill-rule:evenodd"
       id="path4" />
    <path
       d="m 299.7802,487.3327 c 4.1965,-9.8137 11.4588,-12.6912 22.3401,-13.5337 1.921,3.6501 -4.5239,8.7515 -4.6764,9.1176 3.6136,-0.6379 5.744,3.0373 4.0291,7.6446 -2.1657,5.8158 6.7302,11.1497 4.5347,22.1029 -19.8287,2.6089 -21.5579,-12.6383 -26.6782,-17.678 2.1372,-1.557 4.7502,-5.1529 4.027,-8.8356 z"
       style="fill:#006828;fill-rule:evenodd"
       id="path6" />
    <path
       d="m 300.1801,285.1147 c 19.1109,-1.6187 18.1891,22.9779 16.2362,27.0822 -7.9747,12.7454 -13.2408,2.3216 -15.7488,1.8668 -48.068,-8.7116 -72.3406,-7.0827 -101.5397,-37.6667 8.5569,-18.1246 42.5633,16.0383 17.623,-11.8736 7.1057,-0.9917 16.2457,7.6772 20.4754,10.6413 1.4214,-0.084 -0.2779,-5.6138 -3.1099,-9.8896 -3.4421,-4.3042 -3.7349,-5.9731 -4.2413,-8.1821 -0.0427,-1.8932 0.3756,-4.8723 1.8288,-6.2402 2.3386,3.4976 7.1329,5.2878 12.3475,4.0738 -0.2949,-8.7265 -19.7196,-23.8286 -0.2149,-27.7858 10.8759,27.4584 7.179,31.2028 15.0724,30.6971 -0.9626,-1.498 -2.8388,-6.8488 0.8161,-8.212 8.416,-2.895 6.1419,12.2872 10.32,12.3468 5.256,0.0827 -0.6656,-13.4605 10.3343,-16.1169 12.3651,-3.4082 6.5832,14.3098 1.3076,22.9325 10.379,6.2998 16.1074,-7.4792 17.5491,-0.2006 0.9226,3.6339 -13.9376,12.3454 -18.1307,16.0037 -3.8095,3.5302 -1.6716,4.9658 0.526,4.5428 6.2977,-2.1928 13.9451,-3.6623 3.6061,11.3023 6.6685,2.9906 11.4378,-8.2073 14.9428,-15.3218 z"
       style="fill:#006828;fill-rule:evenodd"
       id="path8" />
    <path
       d="m 347.1955,315.3888 c -2.8788,2.5474 -33.502,4.9801 -32.7822,9.4681 4.0684,14.4738 -20.8454,23.7045 -18.7462,25.147 44.7161,30.7235 118.6856,5.8226 121.3746,-29.8851 -13.2795,1.8295 -31.5309,-7.8094 -43.9407,1.0622 -1.5258,-2.2166 2.6924,-8.0243 4.9882,-9.6029 8.3869,-3.3757 47.5386,9.2612 34.4869,-6.2958 -4.6147,1.3652 -10.9945,0.2271 -14.202,-3.7918 2.7371,-8.2913 31.0821,-16.4856 13.4503,-32.0304 -18.1599,23.2911 -16.9371,30.3284 -23.9595,26.4457 1.3455,-1.1672 6.1575,-6.3316 3.6237,-9.5541 -7.8337,-5.969 -10.1675,10.3086 -14.1931,9.1901 -5.0669,-1.3977 2.8984,-13.1568 -4.0149,-17.6054 -9.7927,-5.6457 -16.1941,6.5947 -7.648,19.9284 -0.8459,1.4322 1.2804,8.7325 -2.3602,4.9963 -2.1243,-2.9432 -6.5709,-6.8556 -7.709,-5.2539 -0.2868,2.35 2.2443,5.9127 3.0041,10.2306 0.3769,4.5815 -2.2707,4.0358 -6.114,-2.3087 -2.119,-3.5756 -6.4124,-6.9031 -9.5894,-4.9869 -5.0478,4.0216 -1.5773,13.796 4.3314,14.8466 z"
       style="fill:#006828;fill-rule:evenodd"
       id="path10" />
    <path
       d="m 251.8688,435.6287 c 3.1126,0.9748 18.6215,15.9908 29.1449,18.2385 -11.223,0.6935 -17.9112,4.7002 -33.54,2.161 8.0791,15.374 24.0089,6.2862 34.3324,19.6769 0.8886,-2.3203 1.1699,-4.6954 1.1672,-7.9327 -0.003,-3.2367 -0.2901,-7.3349 -1.0859,-13.0999 3.0835,0.1234 3.2597,-0.5314 3.9226,-0.7063 1.3266,-0.3491 2.1738,11.6717 2.7459,8.5184 0.9998,3.6027 0.6087,5.0051 1.3679,6.6441 8.3455,-10.6223 23.8253,-11.5706 27.6855,-16.3433 7.0685,-8.864 -10.3803,-4.6255 -15.5671,-1.5265 3.4651,-3.9829 15.2424,-8.8233 12.4911,-14.4135 -1.5394,-3.0034 -8.0933,0.5972 -9.8076,-0.0915 -5.7921,-4.0663 29.0283,-9.6083 15.5502,-18.3924 -2.5005,-0.997 -19.3678,6.1534 -23.304,3.0449 z"
       style="fill:#006828;fill-rule:evenodd"
       id="path12" />
    <path
       d="m 250.9347,231.664 c -1.5027,7.5978 2.0511,14.6148 6.9343,24.2217 8.6959,13.7879 15.5495,36.5313 8.9616,43.9055 -0.5849,5.5799 0.3728,9.5947 2.6009,14.2637 2.9438,6.171 5.7772,12.1095 2.7425,19.6701 l -0.0522,0.1159 c -3.1553,6.4096 -1.2608,11.3842 1.0215,17.3749 3.5092,9.2125 7.8561,20.6293 -1.4512,42.3939 l -3.0469,-1.298 c 8.7814,-20.533 4.696,-31.2591 1.3991,-39.9151 -2.5528,-6.7031 -4.6724,-12.2715 -0.9273,-19.9446 2.4632,-6.188 -0.0604,-11.4764 -2.6809,-16.9703 -2.4307,-5.0946 -4.9387,-10.3519 -4.2344,-16.8916 l 0.007,-0.0638 0.019,-0.0922 c 3.0834,-14.9849 -3.7715,-28.4738 -9.8951,-40.523 h -0.003 c -5.1556,-10.1438 -10.1228,-23.8788 -8.3991,-32.5924 z"
       style="fill:#009931;fill-rule:evenodd"
       id="path14" />
    <path
       d="m 280.7595,475.8772 c 3.5491,-3.2088 5.9446,-36.1421 2.0626,-47.4661 -2.9757,-16.0274 0.4725,-24.4766 9.3216,-28.8893 2.609,-4.9685 3.2042,-9.0518 2.8625,-14.2135 l 3.3106,-0.2176 c 0.3735,5.6328 0.7571,11.4452 -2.3169,17.2604 l -0.0305,0.0556 -0.0508,0.0786 c -17.1648,9.5175 5.809,37.3887 -10.5864,74.8723 0.4785,-3.2963 -2.245,1.5109 -4.5727,-1.4804 z"
       style="fill:#009931;fill-rule:evenodd"
       id="path16" />
    <path
       d="m 402.4364,274.9987 c -1.1612,7.6575 -6.8835,13.0537 -14.7328,20.4374 -12.8538,10.0245 -27.0097,29.1001 -23.3107,38.2706 -1.3408,5.4484 -3.6027,8.9 -7.2814,12.5379 -4.86,4.8079 -9.5391,9.4355 -9.2463,17.5763 l 0.01,0.1274 c 0.7964,7.0983 -2.6714,11.1368 -6.8489,16.0003 -6.4231,7.4779 -14.383,16.7453 -13.0022,40.3766 l 3.3071,-0.1877 c -1.3028,-22.2954 6.1751,-31.0015 12.2106,-38.028 4.673,-5.4409 8.5549,-9.9621 7.631,-18.45 -0.2189,-6.657 3.9464,-10.7769 8.2737,-15.0574 4.0142,-3.9701 8.155,-8.0656 9.7086,-14.4575 l 0.015,-0.0617 0.0142,-0.0936 c 2.1772,-15.1428 13.1975,-25.5103 23.0423,-34.7716 l 0.002,0.002 c 8.2892,-7.7972 18.2534,-21.5837 19.5847,-30.3657 z"
       style="fill:#009931;fill-rule:evenodd"
       id="path18" />
    <path
       d="m 283.1034,245.9338 c 3.2259,13.7627 -9.3127,21.9476 -15.9027,31.6766 -6.0524,9.8381 -3.8819,16.9479 -3.6454,22.6892 l 4.774,-0.604 c -7.002,-17.5159 21.2658,-25.1165 21.3078,-50.5482 -1.4635,-6.3283 -8.3808,-9.346 -6.5337,-3.2136 z"
       style="fill:#009931;fill-rule:evenodd"
       id="path20" />
    <path
       d="m 234.5894,265.8126 c 10.0096,11.326 19.6809,9.8585 30.4429,13.8455 -0.1694,1.3733 0.9978,2.6076 3.5241,4.4364 l -3.1906,3.2848 c -5.3589,-4.997 -19.6952,-2.9696 -34.5343,-17.1668 -2.8185,-5.8518 -1.2662,-10.4706 3.7579,-4.3999 z"
       style="fill:#009931;fill-rule:evenodd"
       id="path22" />
    <path
       d="m 360.8349,282.9131 c 1.3787,15.0256 7.913,13.3662 14.2345,27.0612 -0.9489,1.0066 -0.006,3.2075 0.9463,6.1764 l -4.5157,0.7572 c -1.3584,-7.2 -10.9308,-14.0577 -17.6583,-34.2856 1.195,-6.3846 6.5397,-7.5755 6.9932,0.2908 z"
       style="fill:#009931;fill-rule:evenodd"
       id="path24" />
    <path
       d="m 322.2342,434.1375 c -1.5211,-2.67 6.7872,-2.3873 11.2758,-6.4184 3.9579,-4.2873 1.1489,-8.5923 -1.8464,-11.631 3.2631,-2.9988 20.6224,-1.0385 25.3307,-13.8204 10.2461,-14.1369 29.8491,-20.6848 37.4958,-6.4659 0.427,10.7607 -5.3881,19.8348 -21.0468,20.9207 1.3686,13.6076 -2.4754,21.3552 -8.8661,24.9817 -6.3886,3.4468 -16.9384,0.6243 -20.0219,4.1951 0.2847,16.4741 -15.0269,12.948 -33.8118,16.9222 11.6527,-3.2923 20.8672,-12.2357 11.4907,-28.684 z"
       style="fill:#006828;fill-rule:evenodd"
       id="path26" />
    <path
       d="M 164.9709,263.8096 527.4604,362.977 164.9479,462.5998 Z"
       style="fill:#e30016;fill-rule:evenodd"
       id="path28" />
    <path
       d="m 190.0956,447.3573 309.196,-84.3681 -309.2401,-0.0285 z"
       style="fill:#ffffff;fill-rule:evenodd"
       id="path30" />
    <path
       d="m 173.2615,362.9417 16.7948,0.0278 0.0691,-84.0523 -16.8069,-4.8146 z"
       style="fill:#ffffff;fill-rule:evenodd"
       id="path32" />
    <path
       d="m 197.8094,309.5839 66.2746,0.0711 0.0339,26.9718 -11.8445,0.0251 0.1431,-12.5346 -29.0636,0.003 0.0929,28.9138 14.3667,-0.0217 -0.0224,-9.8469 10.1791,0.0291 0.0725,19.8606 -38.7423,-0.0935 -0.4542,-38.5208 -11.0358,-0.008 z"
       style="fill:#ffffff;fill-rule:evenodd"
       id="path34" />
    <path
       d="m 197.8094,416.3402 66.2746,-0.0705 0.0339,-26.9724 -11.8445,-0.0237 0.1431,12.5338 -29.0636,-0.003 0.0929,-28.9144 14.3667,0.0224 -0.0224,9.8455 10.1791,-0.0278 0.0725,-19.8619 -38.7423,0.0936 -0.4542,38.522 -11.0358,0.008 z"
       style="fill:#e30016;fill-rule:evenodd"
       id="path36" />
    <path
       d="m 308.1142,448.7354 c -11.9197,4.8099 -16.4761,11.3686 -18.6398,21.7897 l -1.6349,-11.2033 c 4.2127,-15.3076 22.2872,-11.7489 26.5759,-18.6771 -1.4113,3.6258 0.5965,4.5639 -6.3012,8.0907 z"
       style="fill:#009931;fill-rule:evenodd"
       id="path38" />
    <path
       d="m 263.6807,459.3421 c 8.5292,-0.8642 18.9089,0.2081 19.3061,7.8846 l 1.5509,-12.7514 c -1.5136,-0.2075 -2.3785,-0.322 -3.8582,-0.688 -6.3588,0.791 -24.3411,2.7757 -34.1948,1.9576 3.0252,2.3229 8.5977,4.7007 17.196,3.5972 z"
       style="fill:#009931;fill-rule:evenodd"
       id="path40" />
    <path
       d="m 368.104,416.7341 c -5.8307,-0.2312 -8.3184,-0.4305 -15.1598,-0.6813 -10.0726,-0.3518 -3.0347,18.8581 -22.5156,19.538 14.6168,7.4914 36.1848,5.0099 37.6754,-18.8567 z"
       style="fill:#009931;fill-rule:evenodd"
       id="path42" />
    <path
       d="m 314.2547,495.2471 c -4.6208,-9.5541 5.807,-9.4023 3.2726,-5.1075 -1.8973,6.1086 3.7437,10.5579 4.6032,17.8189 -12.6538,1.4445 -12.5678,-8.719 -17.9938,-13.6441 7.4372,-0.7199 8.8295,0.4419 10.118,0.9327 z"
       style="fill:#009931;fill-rule:evenodd"
       id="path44" />
    <path
       d="m 323.4523,499.0823 c 9.6876,5.6368 12.9805,-7.8643 17.2122,-4.6242 2.2498,2.249 7.5647,0.9998 10.9986,-1.7522 2.708,5.5528 -11.3897,12.8538 -25.3849,14.8852 -0.3274,-3.341 -1.618,-6.0808 -2.8259,-8.5088 z"
       style="fill:#ffffff;fill-rule:evenodd"
       id="path46" />
    <g
       id="Layer1001">
      <g
         id="Layer1002">
        <path
           d="m 339.9215,119.0329 -21.4086,-20.8911 28.8331,-2.0007 12.1903,-28.0646 12.5533,28.0646 28.9828,2.1063 -22.0394,21.1107 7.1938,30.8185 -26.4422,-15.7037 -26.5408,15.4421 z"
           style="fill:#f39412;fill-rule:evenodd"
           id="path48" />
        <path
           d="M 339.7669,119.0329 318.5024,98.1418 c 4.3217,0.8252 11.9484,4.8071 14.8204,8.3344 1.4322,1.5559 3.7924,0.9615 2.8343,-0.6329 l 15.1883,-3.435 -4.0001,-6.2679 6.0952,-14.0309 6.0958,-14.0344 c 0.2063,5.2483 -1.3825,12.8995 -3.8965,18.7904 -0.8524,2.0553 0.7266,3.4742 1.8329,1.9937 l 9.7602,12.8526 4.863,-5.5777 28.9772,2.1119 c -4.5987,1.6847 -8.2127,2.7749 -17.7981,2.4106 -3.0182,-0.4063 -3.7839,2.0979 -1.6657,2.5384 l -10.3218,14.1037 0.914,17.0672 c -2.0818,-0.9965 -2.5916,1.6679 0.2489,3.1672 5.9749,3.3126 11.8316,8.9294 13.7981,12.6917 l -13.2428,-7.9001 -13.2812,-7.821 -0.1427,-7.4378 -16.6596,5.3294 c 0.5888,-2.0329 -2.2797,-2.079 -2.8364,0.9126 -1.3224,5.7098 -3.6119,12.3504 -6.8518,16.6078 l 3.3504,-15.4421 z"
           style="fill:#ffcb00;fill-rule:evenodd"
           id="path50" />
        <path
           d="m 345.0488,116.9728 -11.0099,-13.7806 16.3449,-2.2818 8.7316,-14.9015 8.7385,15.2036 17.3316,2.5301 -12.633,13.6512 2.6113,18.5225 -15.5932,-8.1938 -17.0414,7.5994 z"
           style="fill:#ffcb00;fill-rule:evenodd"
           id="path52" />
      </g>
      <g
         id="Layer1003">
        <path
           d="m 226.8532,119.0329 -21.4086,-20.8911 28.8331,-2.0007 12.1903,-28.0646 12.5533,28.0646 28.9828,2.1063 -22.0394,21.1107 7.1938,30.8185 -26.4422,-15.7037 -26.5408,15.4421 z"
           style="fill:#f39412;fill-rule:evenodd"
           id="path55" />
        <path
           d="M 226.6986,119.0329 205.4341,98.1418 c 4.3217,0.8252 11.9484,4.8071 14.8204,8.3344 1.4322,1.5559 3.7923,0.9615 2.8343,-0.6329 l 15.1882,-3.435 -4,-6.2679 6.0952,-14.0309 6.0958,-14.0344 c 0.2063,5.2483 -1.3825,12.8995 -3.8965,18.7904 -0.8525,2.0553 0.7266,3.4742 1.8329,1.9937 l 9.7602,12.8526 4.863,-5.5777 28.9771,2.1119 c -4.5986,1.6847 -8.2126,2.7749 -17.798,2.4106 -3.0182,-0.4063 -3.784,2.0979 -1.6658,2.5384 l -10.3217,14.1037 0.914,17.0672 c -2.0819,-0.9965 -2.5917,1.6679 0.2489,3.1672 5.9749,3.3126 11.8316,8.9294 13.798,12.6917 l -13.2427,-7.9001 -13.2813,-7.821 -0.1426,-7.4378 -16.6596,5.3294 c 0.5888,-2.0329 -2.2797,-2.079 -2.8364,0.9126 -1.3224,5.7098 -3.6119,12.3504 -6.8518,16.6078 l 3.3504,-15.4421 z"
           style="fill:#ffcb00;fill-rule:evenodd"
           id="path57" />
        <path
           d="m 231.9805,116.9728 -11.0099,-13.7806 16.3449,-2.2818 8.7315,-14.9015 8.7386,15.2036 17.3316,2.5301 -12.633,13.6512 2.6112,18.5225 -15.5931,-8.1938 -17.0414,7.5994 z"
           style="fill:#ffcb00;fill-rule:evenodd"
           id="path59" />
      </g>
      <g
         id="Layer1004">
        <path
           d="m 130.3682,168.783 -21.4086,-20.8911 28.8331,-2.0007 12.1904,-28.0646 12.5532,28.0646 28.9828,2.1063 -22.0394,21.1107 7.1938,30.8184 -26.4422,-15.7036 -26.5408,15.4421 z"
           style="fill:#f39412;fill-rule:evenodd"
           id="path62" />
        <path
           d="m 130.2137,168.783 -21.2646,-20.8911 c 4.3217,0.8252 11.9484,4.807 14.8204,8.3343 1.4322,1.556 3.7924,0.9616 2.8343,-0.6328 l 15.1883,-3.435 -4.0001,-6.2679 6.0952,-14.0309 6.0959,-14.0344 c 0.2063,5.2483 -1.3826,12.8994 -3.8966,18.7904 -0.8524,2.0552 0.7266,3.4741 1.8329,1.9937 l 9.7602,12.8526 4.863,-5.5777 28.9772,2.1119 c -4.5987,1.6846 -8.2127,2.7749 -17.7981,2.4105 -3.0182,-0.4063 -3.7839,2.0979 -1.6657,2.5385 l -10.3218,14.1036 0.914,17.0673 c -2.0818,-0.9965 -2.5916,1.6678 0.249,3.1672 5.9748,3.3126 11.8315,8.9294 13.798,12.6917 l -13.2428,-7.9001 -13.2812,-7.821 -0.1427,-7.4379 -16.6596,5.3295 c 0.5888,-2.0329 -2.2797,-2.0791 -2.8364,0.9125 -1.3224,5.7099 -3.6119,12.3505 -6.8518,16.6079 l 3.3504,-15.4421 z"
           style="fill:#ffcb00;fill-rule:evenodd"
           id="path64" />
        <path
           d="m 135.4955,166.7228 -11.0099,-13.7805 16.3449,-2.2818 8.7316,-14.9016 8.7385,15.2037 17.3316,2.5301 -12.6329,13.6511 2.6112,18.5226 -15.5932,-8.1938 -17.0414,7.5993 z"
           style="fill:#ffcb00;fill-rule:evenodd"
           id="path66" />
      </g>
      <g
         id="Layer1005">
        <path
           d="m 71.5727,257.7301 -21.4086,-20.8911 28.8331,-2.0007 12.1903,-28.0646 12.5533,28.0646 28.9828,2.1063 -22.0394,21.1107 7.1938,30.8184 -26.4422,-15.7036 -26.5408,15.4421 z"
           style="fill:#f39412;fill-rule:evenodd"
           id="path69" />
        <path
           d="M 71.4181,257.7301 50.1536,236.839 c 4.3217,0.8252 11.9484,4.807 14.8204,8.3343 1.4322,1.556 3.7924,0.9616 2.8343,-0.6328 l 15.1883,-3.435 -4.0001,-6.2679 6.0952,-14.0309 6.0958,-14.0344 c 0.2063,5.2483 -1.3825,12.8994 -3.8965,18.7904 -0.8525,2.0552 0.7266,3.4741 1.8329,1.9937 l 9.7602,12.8525 4.863,-5.5776 28.9772,2.1119 c -4.5987,1.6846 -8.2127,2.7748 -17.7981,2.4105 -3.0182,-0.4063 -3.7839,2.0979 -1.6657,2.5385 l -10.3218,14.1036 0.914,17.0673 c -2.0819,-0.9965 -2.5917,1.6678 0.2489,3.1671 5.9749,3.3127 11.8316,8.9295 13.7981,12.6918 l -13.2428,-7.9001 -13.2813,-7.8211 -0.1426,-7.4378 -16.6596,5.3294 c 0.5888,-2.0329 -2.2797,-2.079 -2.8364,0.9126 -1.3224,5.7099 -3.6119,12.3505 -6.8518,16.6079 l 3.3504,-15.4421 z"
           style="fill:#ffcb00;fill-rule:evenodd"
           id="path71" />
        <path
           d="m 76.7,255.6699 -11.0099,-13.7805 16.3449,-2.2819 8.7315,-14.9015 8.7386,15.2036 17.3316,2.5301 -12.633,13.6512 2.6112,18.5225 -15.5931,-8.1937 -17.0414,7.5993 z"
           style="fill:#ffcb00;fill-rule:evenodd"
           id="path73" />
      </g>
      <g
         id="Layer1006">
        <path
           d="m 45.9439,364.7681 -21.4086,-20.8911 28.8331,-2.0007 12.1903,-28.0646 12.5533,28.0646 28.9827,2.1063 -22.0393,21.1107 7.1938,30.8184 -26.4422,-15.7036 -26.5408,15.4421 z"
           style="fill:#f39412;fill-rule:evenodd"
           id="path76" />
        <path
           d="M 45.7893,364.7681 24.5248,343.877 c 4.3217,0.8252 11.9483,4.807 14.8204,8.3343 1.4322,1.556 3.7923,0.9616 2.8343,-0.6328 l 15.1882,-3.435 -4,-6.2679 6.0952,-14.0309 6.0958,-14.0344 c 0.2063,5.2483 -1.3825,12.8994 -3.8965,18.7904 -0.8525,2.0552 0.7266,3.4741 1.8329,1.9937 l 9.7602,12.8526 4.863,-5.5777 28.9771,2.1119 c -4.5986,1.6846 -8.2126,2.7748 -17.798,2.4105 -3.0182,-0.4063 -3.784,2.0979 -1.6658,2.5385 l -10.3217,14.1036 0.914,17.0673 c -2.0819,-0.9965 -2.5917,1.6678 0.2489,3.1671 5.9749,3.3127 11.8316,8.9295 13.798,12.6918 l -13.2427,-7.9001 -13.2813,-7.8211 -0.1426,-7.4378 -16.6596,5.3294 c 0.5888,-2.0328 -2.2798,-2.079 -2.8364,0.9126 -1.3224,5.7099 -3.6119,12.3505 -6.8518,16.6079 l 3.3504,-15.4421 z"
           style="fill:#ffcb00;fill-rule:evenodd"
           id="path78" />
        <path
           d="m 51.0712,362.7079 -11.0099,-13.7805 16.3449,-2.2819 8.7315,-14.9015 8.7386,15.2036 17.3316,2.5301 -12.633,13.6512 2.6112,18.5225 -15.5931,-8.1937 -17.0414,7.5993 z"
           style="fill:#ffcb00;fill-rule:evenodd"
           id="path80" />
      </g>
      <g
         id="Layer1007">
        <path
           d="M 70.0651,471.8061 48.6565,450.915 77.4896,448.9143 89.68,420.8497 l 12.5532,28.0646 28.9828,2.1063 -22.0394,21.1107 7.1938,30.8184 -26.4422,-15.7036 -26.5408,15.4421 z"
           style="fill:#f39412;fill-rule:evenodd"
           id="path83" />
        <path
           d="M 69.9106,471.8061 48.646,450.915 c 4.3217,0.8252 11.9484,4.807 14.8204,8.3343 1.4322,1.556 3.7924,0.9616 2.8343,-0.6328 l 15.1883,-3.435 -4.0001,-6.2679 6.0952,-14.0309 6.0959,-14.0344 c 0.2062,5.2483 -1.3826,12.8994 -3.8966,18.7904 -0.8524,2.0552 0.7266,3.4741 1.8329,1.9937 l 9.7602,12.8526 4.863,-5.5777 28.9772,2.1119 c -4.5987,1.6846 -8.2127,2.7749 -17.7981,2.4105 -3.0182,-0.4063 -3.7839,2.0979 -1.6657,2.5385 l -10.3218,14.1036 0.914,17.0673 c -2.0818,-0.9965 -2.5916,1.6678 0.249,3.1672 5.9748,3.3126 11.8315,8.9294 13.798,12.6917 l -13.2428,-7.9001 -13.2812,-7.821 -0.1427,-7.4379 -16.6596,5.3294 c 0.5888,-2.0328 -2.2797,-2.079 -2.8364,0.9126 -1.3224,5.7099 -3.6119,12.3505 -6.8518,16.6079 l 3.3504,-15.4421 z"
           style="fill:#ffcb00;fill-rule:evenodd"
           id="path85" />
        <path
           d="m 75.1924,469.7459 -11.0099,-13.7805 16.3449,-2.2818 8.7316,-14.9016 8.7385,15.2037 17.3316,2.5301 -12.633,13.6511 2.6113,18.5226 -15.5932,-8.1938 -17.0414,7.5993 z"
           style="fill:#ffcb00;fill-rule:evenodd"
           id="path87" />
      </g>
      <g
         id="Layer1008">
        <path
           d="m 131.8758,556.2304 -21.4086,-20.891 28.8331,-2.0008 12.1903,-28.0645 12.5533,28.0645 28.9828,2.1063 -22.0394,21.1107 7.1938,30.8185 -26.4422,-15.7037 -26.5408,15.4421 z"
           style="fill:#f39412;fill-rule:evenodd"
           id="path90" />
        <path
           d="m 131.7212,556.2304 -21.2645,-20.891 c 4.3217,0.8251 11.9484,4.807 14.8204,8.3343 1.4322,1.5559 3.7924,0.9615 2.8343,-0.6329 l 15.1883,-3.435 -4.0001,-6.2679 6.0952,-14.0309 6.0958,-14.0343 c 0.2063,5.2483 -1.3825,12.8994 -3.8965,18.7903 -0.8525,2.0553 0.7266,3.4742 1.8329,1.9938 l 9.7602,12.8525 4.863,-5.5777 28.9772,2.1119 c -4.5987,1.6847 -8.2127,2.7749 -17.7981,2.4106 -3.0182,-0.4063 -3.7839,2.0979 -1.6657,2.5384 l -10.3218,14.1037 0.914,17.0672 c -2.0819,-0.9965 -2.5917,1.6679 0.2489,3.1672 5.9749,3.3126 11.8316,8.9295 13.7981,12.6917 l -13.2428,-7.9 -13.2813,-7.8211 -0.1426,-7.4378 -16.6596,5.3294 c 0.5888,-2.0329 -2.2797,-2.079 -2.8364,0.9126 -1.3224,5.7098 -3.6119,12.3504 -6.8518,16.6078 l 3.3504,-15.4421 z"
           style="fill:#ffcb00;fill-rule:evenodd"
           id="path92" />
        <path
           d="m 137.0031,554.1703 -11.0099,-13.7806 16.3449,-2.2818 8.7316,-14.9015 8.7385,15.2036 17.3316,2.5301 -12.633,13.6512 2.6112,18.5225 -15.5931,-8.1938 -17.0414,7.5994 z"
           style="fill:#ffcb00;fill-rule:evenodd"
           id="path94" />
      </g>
      <g
         id="Layer1009">
        <path
           d="m 229.8683,607.4881 -21.4086,-20.8911 28.8332,-2.0007 12.1903,-28.0646 12.5532,28.0646 28.9828,2.1063 -22.0393,21.1107 7.1937,30.8184 -26.4422,-15.7036 -26.5408,15.4421 z"
           style="fill:#f39412;fill-rule:evenodd"
           id="path97" />
        <path
           d="M 229.7138,607.4881 208.4493,586.597 c 4.3217,0.8252 11.9483,4.807 14.8204,8.3343 1.4321,1.556 3.7923,0.9616 2.8343,-0.6328 l 15.1882,-3.435 -4,-6.2679 6.0951,-14.0309 6.0959,-14.0344 c 0.2063,5.2483 -1.3826,12.8994 -3.8966,18.7904 -0.8524,2.0552 0.7266,3.4741 1.8329,1.9937 l 9.7602,12.8525 4.863,-5.5776 28.9772,2.1119 c -4.5986,1.6846 -8.2127,2.7748 -17.7981,2.4105 -3.0182,-0.4063 -3.7839,2.0979 -1.6657,2.5385 l -10.3218,14.1036 0.914,17.0673 c -2.0818,-0.9965 -2.5916,1.6678 0.249,3.1671 5.9749,3.3127 11.8315,8.9295 13.798,12.6918 l -13.2428,-7.9001 -13.2812,-7.8211 -0.1427,-7.4378 -16.6596,5.3294 c 0.5889,-2.0329 -2.2797,-2.079 -2.8363,0.9126 -1.3224,5.7099 -3.612,12.3505 -6.8518,16.6079 l 3.3503,-15.4421 z"
           style="fill:#ffcb00;fill-rule:evenodd"
           id="path99" />
        <path
           d="m 234.9956,605.4279 -11.0098,-13.7805 16.3449,-2.2819 8.7315,-14.9015 8.7385,15.2036 17.3317,2.5301 -12.633,13.6512 2.6112,18.5225 -15.5932,-8.1937 -17.0414,7.5993 z"
           style="fill:#ffcb00;fill-rule:evenodd"
           id="path101" />
      </g>
      <g
         id="Layer1010">
        <path
           d="m 341.4291,605.9805 -21.4086,-20.8911 28.8331,-2.0007 12.1903,-28.0646 12.5533,28.0646 28.9827,2.1063 -22.0393,21.1107 7.1938,30.8184 -26.4422,-15.7036 -26.5408,15.4421 z"
           style="fill:#f39412;fill-rule:evenodd"
           id="path104" />
        <path
           d="M 341.2745,605.9805 320.01,585.0894 c 4.3217,0.8252 11.9484,4.807 14.8204,8.3343 1.4322,1.556 3.7923,0.9616 2.8343,-0.6328 l 15.1882,-3.435 -4,-6.2679 6.0952,-14.0309 6.0958,-14.0344 c 0.2063,5.2483 -1.3825,12.8994 -3.8965,18.7904 -0.8525,2.0553 0.7266,3.4741 1.8329,1.9937 l 9.7602,12.8526 4.863,-5.5777 28.9771,2.1119 c -4.5986,1.6846 -8.2126,2.7749 -17.798,2.4105 -3.0182,-0.4063 -3.784,2.0979 -1.6658,2.5385 l -10.3217,14.1036 0.914,17.0673 c -2.0819,-0.9965 -2.5917,1.6678 0.2489,3.1672 5.9749,3.3126 11.8316,8.9294 13.798,12.6917 l -13.2427,-7.9001 -13.2813,-7.821 -0.1426,-7.4379 -16.6596,5.3295 c 0.5888,-2.0329 -2.2797,-2.0791 -2.8364,0.9126 -1.3224,5.7098 -3.6119,12.3504 -6.8518,16.6078 l 3.3504,-15.4421 z"
           style="fill:#ffcb00;fill-rule:evenodd"
           id="path106" />
        <path
           d="m 346.5564,603.9203 -11.0099,-13.7805 16.3449,-2.2818 8.7315,-14.9016 8.7386,15.2037 17.3316,2.5301 -12.633,13.6511 2.6112,18.5226 -15.5931,-8.1938 -17.0414,7.5994 z"
           style="fill:#ffcb00;fill-rule:evenodd"
           id="path108" />
      </g>
      <g
         id="Layer1011">
        <path
           d="m 440.9292,554.7229 -21.4086,-20.8911 28.8331,-2.0007 12.1903,-28.0646 12.5533,28.0646 28.9828,2.1063 -22.0394,21.1106 7.1938,30.8185 -26.4422,-15.7036 -26.5408,15.4421 z"
           style="fill:#f39412;fill-rule:evenodd"
           id="path111" />
        <path
           d="m 440.7746,554.7229 -21.2645,-20.8911 c 4.3217,0.8252 11.9484,4.807 14.8204,8.3343 1.4322,1.556 3.7924,0.9616 2.8343,-0.6329 l 15.1883,-3.435 -4.0001,-6.2678 6.0952,-14.0309 6.0958,-14.0344 c 0.2063,5.2483 -1.3825,12.8994 -3.8965,18.7904 -0.8524,2.0552 0.7266,3.4741 1.8329,1.9937 l 9.7602,12.8525 4.863,-5.5776 28.9772,2.1119 c -4.5987,1.6846 -8.2127,2.7748 -17.7981,2.4105 -3.0182,-0.4063 -3.7839,2.0979 -1.6657,2.5385 l -10.3218,14.1036 0.914,17.0673 c -2.0818,-0.9965 -2.5916,1.6678 0.2489,3.1671 5.9749,3.3126 11.8316,8.9295 13.7981,12.6917 l -13.2428,-7.9 -13.2812,-7.8211 -0.1427,-7.4378 -16.6596,5.3294 c 0.5888,-2.0329 -2.2797,-2.079 -2.8364,0.9126 -1.3224,5.7099 -3.6119,12.3505 -6.8518,16.6079 l 3.3504,-15.4421 z"
           style="fill:#ffcb00;fill-rule:evenodd"
           id="path113" />
        <path
           d="m 446.0565,552.6627 -11.0099,-13.7805 16.3449,-2.2819 8.7316,-14.9015 8.7385,15.2036 17.3316,2.5301 -12.633,13.6512 2.6113,18.5225 -15.5932,-8.1938 -17.0414,7.5994 z"
           style="fill:#ffcb00;fill-rule:evenodd"
           id="path115" />
      </g>
      <g
         id="Layer1012">
        <path
           d="m 513.5438,457.1696 -29.1935,-28.4879 39.3179,-2.7282 16.6232,-38.27 17.1181,38.27 39.5221,2.8722 -30.0538,28.7873 9.8097,42.0253 -36.0576,-21.4141 -36.192,21.0574 z"
           style="fill:#f39412;fill-rule:evenodd"
           id="path118" />
        <path
           d="M 513.3331,457.1696 484.336,428.6817 c 5.8932,1.1253 16.2932,6.5551 20.2096,11.365 1.953,2.1218 5.1714,1.3112 3.865,-0.863 l 20.7113,-4.6841 -5.4546,-8.5471 8.3116,-19.1331 8.3125,-19.1378 c 0.2813,7.1568 -1.8853,17.5901 -5.3135,25.6233 -1.1624,2.8026 0.9908,4.7375 2.4994,2.7187 l 13.3095,17.5263 6.6313,-7.606 39.5144,2.8799 c -6.2709,2.2972 -11.1991,3.7839 -24.2701,3.2871 -4.1158,-0.5541 -5.16,2.8608 -2.2715,3.4615 l -14.0752,19.2323 1.2464,23.2736 c -2.8389,-1.3589 -3.5341,2.2743 0.3395,4.3189 8.1476,4.5172 16.134,12.1765 18.8155,17.3069 l -18.0584,-10.7729 -18.1108,-10.665 -0.1945,-10.1426 -22.7177,7.2674 c 0.803,-2.7721 -3.1087,-2.835 -3.8678,1.2445 -1.8032,7.7862 -4.9253,16.8416 -9.3434,22.6471 l 4.5687,-21.0574 z"
           style="fill:#ffcb00;fill-rule:evenodd"
           id="path120" />
        <path
           d="m 520.5356,454.3603 -15.0135,-18.7917 22.2886,-3.1116 11.9066,-20.3203 11.9162,20.7323 23.6341,3.4501 -17.2268,18.6153 3.5608,25.258 -21.2635,-11.1733 -23.2383,10.3628 z"
           style="fill:#ffcb00;fill-rule:evenodd"
           id="path122" />
      </g>
    </g>
  </g>
</svg>
