<?xml version="1.0" encoding="UTF-8"?>
<!DOCTYPE svg PUBLIC "-//W3C//DTD SVG 1.1//EN" "http://www.w3.org/Graphics/SVG/1.1/DTD/svg11.dtd">
<!-- Creator: CorelDRAW -->
<svg xmlns="http://www.w3.org/2000/svg" xml:space="preserve" width="1655px" height="2104px" shape-rendering="geometricPrecision" text-rendering="geometricPrecision" image-rendering="optimizeQuality" fill-rule="evenodd" clip-rule="evenodd"
viewBox="0 0 1684.66 2141.82"
 xmlns:xlink="http://www.w3.org/1999/xlink">
 <g id="Ebene_x0020_1">
  <metadata id="CorelCorpID_0Corel-Layer"/>
  <path fill="#B83E21" d="M0 0l1684.66 0 0 1016.51c0,341.73 -503.086,915.148 -842.327,1125.31 -338.842,-210.165 -842.336,-783.579 -842.336,-1125.31l0 -1016.51z"/>
  <path fill="white" d="M1594.47 1099.66c-9.10586,34.3402 -19.861,66.1945 -32.2738,99.2918 -16.1285,37.6544 -33.5096,73.2304 -52.124,109.638 -37.6496,67.0192 -78.1914,129.908 -122.878,192.793 -39.3025,52.5423 -79.4284,103.433 -122.044,153.902 -126.183,144.387 -264.368,282.158 -422.817,390.962 -158.047,-108.808 -296.228,-246.575 -422.82,-390.962 -62.8876,-74.8784 -120.812,-151.005 -175.418,-232.098 -24.4097,-37.6472 -47.1654,-75.7067 -69.0964,-114.597 -24.8184,-47.5741 -46.3311,-93.9148 -65.3675,-143.975 -10.338,-31.8579 -18.6168,-62.0545 -24.8184,-94.7431l-4.96465 -55.4346 0 -935.008 1525.38 0 -1.24297 963.138 -9.51458 57.0923z"/>
  <path fill="#B83E21" d="M194.038 653.675l230.437 -472.053 184.52 0 86.8838 472.053 -175.836 0 -4.95864 -53.7817 -117.499 0 -22.3397 53.7817 -181.207 0zm311.112 -163.005l-11.5822 -123.703 -50.8871 123.703 62.4692 0z"/>
  <path fill="#B83E21" d="M255.266 364.903c29.3744,-4.96826 58.3352,-10.3416 87.2949,-15.7222l-23.995 48.817c-27.7203,8.68753 -55.8529,17.7898 -84.8126,26.892 7.44818,-19.0292 14.4804,-40.9566 21.5127,-59.9869z"/>
  <path fill="#B83E21" d="M242.025 431.922c-4.54993,7.03225 -10.7539,18.2057 -13.2363,28.9633 22.3397,-9.9329 47.1654,-19.0328 72.8108,-28.135l9.52179 -19.0304c-23.9974,6.20521 -47.1654,12.4128 -69.0964,18.2021z"/>
  <path fill="#B83E21" d="M1004.1 352.072c-41.3761,-33.5132 -115.431,-51.7117 -127.012,-11.5786 -14.8988,49.2294 168.797,-32.6849 159.697,179.552 -5.37937,121.633 -165.902,215.548 -376.903,95.986l55.0247 -129.912c47.996,40.5394 128.669,79.0209 147.698,38.0631 29.7939,-62.8912 -206.026,-21.5127 -167.139,-200.236 33.5096,-153.082 244.505,-195.279 363.658,-101.367l-55.0223 129.492z"/>
  <path fill="#B83E21" d="M1395.48 481.155l-23.5863 159.28c-178.309,54.6159 -378.553,-23.995 -347.938,-223.817 26.8896,-177.076 188.243,-296.222 390.966,-218.033l-58.3316 144.385c-95.159,-34.3378 -139.01,21.1028 -143.564,88.5414 -4.96104,67.0216 78.6049,112.944 182.454,49.6441z"/>
  <path fill="white" d="M701.256 304.085c2.48232,-7.03586 4.96465,-14.0645 8.27522,-20.688 108.395,-15.7162 218.854,-26.4737 334.697,-26.065l-7.03826 16.9628c-120.383,1.65528 -229.612,11.9969 -335.934,29.7903z"/>
  <path fill="white" d="M693.393 336.352c0.414722,-3.30937 1.24537,-6.61633 1.65528,-9.92689 70.3321,-12.4152 137.77,-21.1004 197.757,-24.4097 -58.3316,9.51458 -127.01,20.6904 -199.412,34.3366z"/>
  <path fill="white" d="M318.566 397.998l23.995 -48.8207c95.5665,-17.3751 190.725,-36.8201 287.531,-52.951l3.7289 20.2685c-103.429,20.2697 -206.035,47.9936 -315.255,81.5032z"/>
  <path fill="white" d="M301.599 432.747l9.52179 -19.0267c57.0887,-14.8951 119.147,-30.6149 182.032,-45.5065l-4.54993 11.1663c-65.7834,15.7234 -129.91,33.5132 -187.004,53.367zm335.941 -95.5665l1.65528 9.51458c-47.99,9.51458 -96.807,19.8634 -144.385,31.0297l-0.827041 -9.51097c47.5741,-11.1699 95.9788,-21.931 143.556,-31.0333z"/>
  <path fill="white" d="M1083.95 273.886c4.13761,-5.38057 8.27161,-10.3464 12.8215,-15.3075 76.9557,2.89464 156.384,11.1663 238.714,26.4737 -90.1835,-7.44818 -173.347,-10.7575 -251.536,-11.1663z"/>
  <path fill="white" d="M1451.33 191.556c60.8103,0 110.462,49.2294 110.462,110.043 0.00360628,60.8176 -49.6513,110.469 -110.465,110.469 -60.8176,0 -110.459,-49.6513 -110.459,-110.469 0.00360628,-60.8176 49.6417,-110.043 110.463,-110.043z"/>
  <path fill="#1F1A17" d="M1451.33 190.102c30.8289,0 58.8281,12.4982 79.1098,32.7018 20.2469,20.1687 32.7991,48.0225 32.7991,78.7961 0,30.8097 -12.5751,58.7896 -32.8508,79.0653 -20.2757,20.2757 -48.2557,32.8508 -79.0617,32.8508 -30.8061,-0.00240419 -58.786,-12.5751 -79.0593,-32.8508 -20.2721,-20.2757 -32.8508,-48.2557 -32.8508,-79.0653 0,-30.7796 12.5559,-58.6273 32.7991,-78.7961 20.2829,-20.2036 48.2821,-32.6982 79.1146,-32.7018zm0 2.89825c-30.0415,0 -57.3267,12.1724 -77.0795,31.8519 -19.7119,19.6362 -31.936,46.7663 -31.936,76.7477 0,30.0115 12.2505,57.2642 32.0009,77.0182 19.7528,19.7504 47.0031,32.0009 77.011,32.0009 30.0115,0 57.2642,-12.2505 77.0146,-32.0046 19.7528,-19.7504 31.9997,-47.0067 31.9997,-77.0146 0,-29.985 -12.2241,-57.1079 -31.9384,-76.7477 -19.7504,-19.6795 -47.0319,-31.8483 -77.0723,-31.8519z"/>
  <path fill="#B83E21" d="M846.47 752.14c-4.55233,23.5827 -19.0328,46.7506 -15.7222,64.544 2.07001,13.2363 31.4396,2.89464 29.7903,-10.3428 -1.24537,-18.618 -10.3488,-37.2349 -14.0681,-54.2012z"/>
  <path fill="#EEB800" d="M846.571 762.95c-1.69736,5.81814 -3.74813,11.5365 -5.74721,17.1046 -4.81198,13.4154 -9.32945,25.9881 -7.43736,36.1446l0.00961675 0.0757319c0.353416,2.25513 2.10968,3.42597 4.44294,3.75775l0.00961675 0c1.53147,0.213973 3.31297,0.109391 5.17622,-0.266865 1.92696,-0.389479 3.91041,-1.06025 5.79169,-1.96663 5.25075,-2.52079 9.60233,-6.72091 9.05417,-11.1338l-0.0192335 -0.14906c-0.752511,-11.2288 -4.4754,-22.5705 -8.06725,-33.5228 -1.10713,-3.39111 -2.21065,-6.73413 -3.2132,-10.0435zm-2.73597 -11.3129l5.26397 -0.0613068c1.38962,6.35066 3.56661,12.9838 5.78929,19.7564 3.70966,11.3021 7.54915,23.0141 8.34013,34.8307l-0.0192335 -0.146655c0.876327,7.04547 -4.96826,13.2242 -12.0822,16.6382 -2.27076,1.0903 -4.69177,1.91133 -7.05509,2.38495 -2.41741,0.486848 -4.81559,0.616674 -6.97936,0.308938l0.00961675 0c-4.66653,-0.66596 -8.21391,-3.2132 -9.00248,-8.25598l0.0168293 0.0745298c-2.16137,-11.5978 2.57969,-24.81 7.64532,-38.9166 3.11222,-8.6671 6.34706,-17.6828 8.07326,-26.6132z"/>
  <path fill="#B83E21" d="M722.768 1052.91c-34.7525,-7.02864 -72.3997,-19.0292 -107.563,-26.8896 2.47872,-22.758 3.30937,-54.6087 -20.2757,-62.4692 3.30937,-21.5151 -21.1004,-31.442 -27.7203,-12.8215 5.7953,2.47631 12.8275,8.26921 12.4128,14.0609 -5.37817,0.412318 -14.0681,4.54993 -15.7174,10.7551 -13.2435,-1.24297 -26.065,11.1735 -24.001,23.5851 9.51818,-5.38298 21.1004,-4.54872 27.7203,-2.89464 -9.10226,2.47631 -11.5822,16.548 -6.20521,23.5803 7.86049,9.9293 16.1393,19.4415 26.0662,27.3008 -5.37817,13.6558 -12.8251,30.6149 -8.27281,41.3761 -2.90065,7.85689 -13.6582,15.7234 -21.931,15.7234 9.9281,18.6108 35.5844,19.0292 43.4401,-5.7965 12.8287,2.47992 20.688,-13.2399 20.2733,-24.4061 7.03225,0.823435 14.0669,2.48232 21.0992,3.71808 0.415925,9.51578 -7.44697,15.727 -14.4792,20.2769 13.2399,12.8215 35.1673,4.13761 34.7525,-15.7234 21.1004,3.72168 40.1259,12.4128 60.4016,17.7898 -1.65408,-14.0681 2.07121,-33.0973 0,-47.1654z"/>
  <path fill="#EEB800" d="M720.348 1055.16c-18.4786,-3.82266 -37.7518,-8.99287 -57.0057,-14.1559 -16.5108,-4.43212 -33.0191,-8.85823 -48.7161,-12.3671l-2.34889 -0.525315 0.259652 -2.37293c1.21652,-11.1795 2.03394,-24.5648 -0.322161,-36.0015 -2.24912,-10.9138 -7.44096,-20.075 -18.1276,-23.6344l-2.16137 -0.720054 0.345001 -2.23349c1.09992,-7.13924 -1.21051,-12.7723 -4.8192,-16.1285 -1.50021,-1.39443 -3.22642,-2.39818 -5.01393,-2.94032 -1.7238,-0.521709 -3.5017,-0.619079 -5.17021,-0.22359 -2.54724,0.607058 -4.91657,2.39818 -6.58026,5.58854 2.80328,1.52786 5.63902,3.64475 7.77755,6.06457 2.48353,2.8105 4.08592,6.07899 3.8455,9.4701l-0.168293 2.31644 -2.32365 0.182718c-2.56647,0.194739 -6.03932,1.39804 -8.88468,3.34543 -2.14574,1.46295 -3.88156,3.32619 -4.43693,5.40582l-0.584218 2.19382 -2.25152 -0.210366c-1.51945,-0.143049 -3.04731,-0.0721257 -4.54392,0.175506l0.0108188 -0.00360628c-4.28426,0.71765 -8.28604,2.92349 -11.3165,5.97801 -2.94633,2.96196 -4.95263,6.70047 -5.36735,10.5917 3.29975,-1.3211 6.71129,-2.0676 10.0183,-2.4114 6.06096,-0.632302 11.7986,0.0841466 15.8135,1.0879l0.0516901 5.20146c-0.986919,0.263259 -1.86565,0.71765 -2.63138,1.30427 -1.88008,1.43169 -3.18435,3.71567 -3.86233,6.26411 -0.704427,2.65062 -0.727267,5.54887 -0.0324565,8.10572 0.376255,1.38 0.960473,2.64461 1.74905,3.68081l-0.0228398 -0.0432754c3.93325,4.96946 7.93743,9.79466 12.1147,14.2725 4.17608,4.4754 8.62863,8.726 13.5127,12.5919l1.56032 1.23575 -0.733277 1.85002c-0.775351,1.96663 -1.02539,2.60253 -1.2069,3.06053 -5.01033,12.5871 -10.8814,27.35 -7.09716,36.2972l0.0516901 1.96302c-1.64807,4.47179 -5.46111,8.88588 -9.98219,12.1267 -3.09539,2.21666 -6.56824,3.92364 -9.96175,4.77111 2.91027,3.86834 6.67763,6.50694 10.7119,7.78116 2.32365,0.73448 4.76029,1.01577 7.18492,0.811414 2.42342,-0.20075 4.79996,-0.882337 7.0058,-2.05678 4.83602,-2.5833 9.04095,-7.57079 11.4692,-15.2389l0.720054 -2.28157 2.34649 0.454392c0.869114,0.164687 1.72621,0.2296 2.56046,0.20075 3.58224,-0.135837 6.63917,-2.14814 9.00128,-5.06562 2.53522,-3.13146 4.27705,-7.27267 5.06562,-11.3514 0.360628,-1.86325 0.516901,-3.71567 0.451987,-5.4551l-0.114199 -3.12905 3.10862 0.364235c4.80958,0.561378 9.54102,1.4918 14.2701,2.41741 2.32245,0.454392 4.6497,0.911187 6.98657,1.32351l2.13492 0.373851 0.0913592 2.15776c0.240419,5.52362 -1.88849,10.0603 -5.08606,13.8469 -2.19022,2.60013 -4.87329,4.81319 -7.59964,6.74976 3.24806,2.21306 6.87357,3.2132 10.3981,3.14227 2.27797,-0.0528921 4.51386,-0.542144 6.58026,-1.4353 2.07121,-0.891954 3.96932,-2.18661 5.5657,-3.83228 3.15069,-3.25768 5.15939,-7.94704 5.03677,-13.7496l-0.0685194 -3.2745 3.22281 0.574601c12.9033,2.27196 24.9747,6.36028 37.0173,10.4366 6.61753,2.2383 13.2302,4.47179 19.9223,6.38312 -0.330576,-6.01408 0.0360628,-12.5619 0.408712,-19.1397 0.435158,-7.74629 0.879933,-15.5323 0.169495,-22.1618zm2.94633 -4.88771l1.85603 0.377458 0.27528 1.87527c1.12035,7.60685 0.623887,16.3785 0.133432,25.0889 -0.444775,7.85569 -0.885943,15.6705 -0.122614,22.157l0.460402 3.90801 -3.80944 -1.00976c-8.15861,-2.16377 -16.054,-4.83242 -23.9625,-7.50948 -10.8717,-3.676 -21.7687,-7.36643 -33.185,-9.65402 -0.564984,5.86021 -2.97639,10.7287 -6.45885,14.3242 -2.09886,2.16497 -4.58839,3.86473 -7.28469,5.03317 -2.70351,1.16844 -5.627,1.81035 -8.59618,1.87286 -5.85179,0.122614 -11.9007,-2.00269 -16.8558,-6.80506l-2.41501 -2.34288 2.82733 -1.82718c3.33581,-2.15896 6.86035,-4.69899 9.44365,-7.75952 1.9498,-2.31764 3.37067,-4.96826 3.72769,-8.04201 -1.59277,-0.298119 -3.19276,-0.605855 -4.78914,-0.920804 -3.65797,-0.714044 -7.31114,-1.4353 -10.9294,-1.96663 -0.0913592,1.14199 -0.253642,2.32365 -0.484444,3.5041 -0.943644,4.8781 -3.06654,9.87881 -6.17876,13.7243 -3.28653,4.05587 -7.67177,6.86636 -12.9706,7.06471 -0.467615,0.0156272 -0.937633,0.00601047 -1.42088,-0.0192335 -2.9824,7.93743 -7.81121,13.2783 -13.3481,16.2319 -2.91748,1.55791 -5.99965,2.44987 -9.08302,2.70952 -3.08578,0.253642 -6.22084,-0.106986 -9.24531,-1.06385 -6.38312,-2.02192 -12.2085,-6.71129 -15.9602,-13.7471l-2.10607 -3.94888 4.46818 0c3.53416,0 7.6946,-1.73943 11.3357,-4.35158 3.39832,-2.44025 6.27613,-5.57531 7.71023,-8.7236 -3.82506,-10.933 2.24311,-26.1912 7.44818,-39.2724 0.168293,-0.421935 0.334182,-0.830647 0.483242,-1.2045 -4.44895,-3.66398 -8.59978,-7.67177 -12.5451,-11.9031 -4.40688,-4.72543 -8.47717,-9.62156 -12.4068,-14.5838l-0.0192335 -0.0456796c-1.23695,-1.61561 -2.1253,-3.50771 -2.67466,-5.52603 -0.937633,-3.4464 -0.911187,-7.33758 0.0324565,-10.8814 0.71765,-2.6999 1.97624,-5.21468 3.74573,-7.23661 -2.30441,-0.179112 -4.81319,-0.188729 -7.38326,0.0805403 -3.95249,0.409914 -8.05764,1.47978 -11.7793,3.58585l-3.33942 1.88969 -0.629897 -3.78059c-0.276482,-1.63966 -0.320959,-3.28773 -0.168293,-4.91416 0.489252,-5.25676 3.08578,-10.2214 6.91805,-14.0801 3.7902,-3.82026 8.82698,-6.58507 14.24,-7.48304l0.00961675 -0.00360628c1.25258,-0.204356 2.53762,-0.311342 3.82987,-0.308938 1.23215,-2.54964 3.35144,-4.705 5.81814,-6.39274 2.70591,-1.85002 5.89026,-3.17353 8.7224,-3.83829 -0.401499,-1.17565 -1.18046,-2.36572 -2.17339,-3.49208 -2.21666,-2.51238 -5.42024,-4.63407 -8.29806,-5.86382l-2.31764 -0.99293 0.83786 -2.36933c2.31644,-6.51295 6.59108,-10.0796 11.3514,-11.2059 2.61576,-0.626291 5.35172,-0.489252 7.96387,0.305332 2.55084,0.76934 5.00071,2.19022 7.1164,4.15684 4.39726,4.09193 7.36643,10.5989 6.73053,18.6793 11.498,4.71221 17.1575,14.9216 19.6266,26.8957 2.33326,11.3225 1.76588,24.1958 0.656343,35.2694 15.4108,3.50771 31.0044,7.6934 46.6064,11.8803 19.7985,5.30604 39.6102,10.6277 58.566,14.4564z"/>
  <path fill="#B83E21" d="M794.756 885.767c-20.2733,-6.20521 -56.2652,-11.9909 -75.7103,-2.89224 -31.4456,14.8927 -50.8871,15.3111 -79.4356,5.79289 2.48232,14.0681 14.0681,18.2021 23.995,23.5827 -13.2375,10.7611 -23.995,15.7258 -42.1971,17.3751 15.3075,21.9274 53.7829,15.3075 71.5727,-2.47992 27.7167,-28.5437 64.5368,-33.512 101.775,-22.7544 1.23936,-1.65528 2.48232,-3.31057 3.30937,-4.54993 2.0676,-4.96826 -0.414722,-9.92689 -3.30937,-14.0741z"/>
  <path fill="#EEB800" d="M793.065 888.07c-11.2925,-3.37067 -27.1781,-6.55502 -42.268,-7.12962 -11.6014,-0.443573 -22.6643,0.64312 -30.6149,4.3624l0.00961675 -0.00360628c-16.054,7.60685 -29.0835,11.5209 -41.7812,12.3155 -11.3129,0.710438 -22.2916,-1.04823 -34.8439,-4.86488 3.19997,7.76553 10.4101,11.4884 17.4652,15.1223 1.4353,0.74049 2.86579,1.47978 3.85512,2.01591l3.52815 1.91133 -3.11823 2.53161c-6.80506,5.52963 -13.0043,9.58911 -19.8874,12.4898 -5.61017,2.36933 -11.6267,3.95008 -18.7431,4.91055l0 0.00961675c6.90844,6.91204 17.1334,9.52419 27.7624,8.96281 10.8285,-0.574601 22.0115,-4.43573 30.5849,-10.4198 2.22988,-1.55791 4.27104,-3.24565 6.06577,-5.04038l-0.0192335 0.0264461c13.6943,-14.1006 29.5691,-22.6126 46.6268,-26.4256 17.8054,-3.98494 36.861,-2.8129 56.0308,2.4691 0.736884,-0.989324 1.42088,-1.93056 1.95701,-2.71553 0.664758,-1.76227 0.557772,-3.56661 0.0228398,-5.32528 -0.53974,-1.77189 -1.52305,-3.53776 -2.63259,-5.20266zm2.4703 -4.8769l1.42689 1.035c1.57715,2.25513 3.05693,4.77352 3.88156,7.49025 0.893156,2.9271 1.00615,6.01288 -0.298119,9.15154l-0.253642 0.456796c-0.855891,1.28504 -2.1253,2.97999 -3.39471,4.67014l-1.10593 1.47617 -1.7815 -0.509688c-18.9294,-5.47073 -37.7193,-6.78823 -55.1677,-2.88743 -16.048,3.58945 -31.0044,11.6206 -43.9365,24.9386l-0.0228398 0.0300524c-2.03755,2.03755 -4.31912,3.93205 -6.77981,5.64984 -9.37153,6.5418 -21.5836,10.7672 -33.4026,11.3898 -12.0258,0.629897 -23.7281,-2.44987 -31.8375,-10.5628l0 0.00601047c-1.33432,-1.32711 -2.55806,-2.78044 -3.66038,-4.35759l-2.64821 -3.79982 4.61364 -0.419531c8.81736,-0.798191 15.8075,-2.38495 22.1618,-5.06562 5.2796,-2.22628 10.1805,-5.23151 15.3724,-9.17679 -0.0420733,-0.0228398 -0.0841466,-0.0456796 -0.12622,-0.0685194 -9.47971,-4.88411 -19.2119,-9.90405 -21.61,-23.5082l-0.781361 -4.43933 4.26623 1.42208c13.9419,4.64609 25.6347,6.87598 37.6219,6.11986 12.0197,-0.756117 24.4422,-4.49824 39.8278,-11.7865l0.013223 -0.00360628c8.8402,-4.134 20.7433,-5.35413 33.0744,-4.88411 15.9963,0.610664 32.8508,4.05707 44.5472,7.6333z"/>
  <path fill="#B83E21" d="M665.261 1190.26c2.48232,10.7575 7.8629,27.7227 19.4451,31.4456 -3.31057,8.27522 -7.44818,11.1699 -16.9628,12.8251 -6.20761,14.0705 36.8225,25.2368 33.1009,-14.4768 10.3428,-3.31417 11.9969,-18.2093 7.44818,-26.4809 5.78929,-2.89825 13.6522,-7.44457 19.4415,-10.3428 5.79289,1.65288 2.89825,13.2411 -11.1735,20.6856 13.2375,21.0992 35.9991,-4.1352 30.6185,-21.9214 27.7203,37.2289 81.4996,33.9219 93.9124,95.9752 3.72168,-7.85569 7.03466,-27.308 3.72168,-37.2313 16.1345,9.92329 26.8933,34.7525 32.2738,57.5082 4.96465,-7.03586 9.92689,-16.1357 10.7539,-26.8896 10.3452,14.0609 25.6527,39.2989 26.4773,55.0211 1.24297,16.5504 -3.31057,24.4109 -8.68753,41.7848 6.21122,-2.47872 16.1321,-7.44697 21.5163,-14.4756 -4.54993,23.1632 -8.27522,43.0205 -24.4109,58.7439 -12.8251,-16.97 -31.4492,-44.2683 -51.7153,-50.4759 6.20882,-2.0676 21.9214,0 28.5449,2.48593 -43.0278,-60.8212 -144.799,-44.2671 -169.622,1.24297 -8.27522,-9.93411 -10.7551,-23.1704 -12.8251,-38.0631 -17.3775,19.4427 -17.3775,61.2299 -4.13761,72.3973 -12.8251,-4.55714 -20.688,-13.2375 -31.0309,-22.3397 -3.30937,15.7222 -2.47872,35.576 11.5822,48.4047 -16.5432,-6.21122 -32.263,-16.5468 -43.8512,-30.6185 -2.89825,27.3056 29.7903,69.0964 65.7822,76.5409 13.6522,24.4073 61.2335,44.2707 98.4647,40.5418 -3.72168,4.134 -9.51097,11.5882 -9.51097,16.9652 9.92329,-6.20761 15.7162,-11.9969 23.1607,-12.4116 17.7934,-0.828243 67.0228,-21.925 85.6396,-35.5772 -4.1304,62.4692 -87.2949,96.807 -100.947,158.448 8.69355,-8.68994 15.7222,-16.9555 26.4809,-21.0992 -7.02624,14.4828 -12.4128,32.2726 -13.6534,48.8194 5.78929,-8.268 12.4128,-15.3075 18.2057,-19.4415 -15.3111,52.9547 -9.10226,93.9124 7.44457,142.733 -10.7551,-16.5504 -27.3044,-38.8877 -42.1971,-52.9559 19.4415,64.544 38.4754,143.972 50.8846,213.065 14.0681,-73.6451 30.2026,-150.595 50.06,-217.618 -15.3051,15.7198 -28.1326,34.7525 -39.7148,56.6835 -27.3044,-61.6518 -2.07001,-139.014 32.2666,-202.311 4.55353,11.1675 10.3464,24.8232 15.7234,33.9219 1.65769,-30.6077 3.72529,-53.7817 13.2363,-78.6037 9.10346,-25.238 11.5858,-59.1635 9.09985,-81.4996 19.861,-18.2057 37.6544,-43.4461 43.4461,-83.5696 4.1352,9.50857 5.78929,21.0968 6.20521,36.4042 11.9969,-21.5187 13.2399,-60.4052 10.3428,-90.1895 9.92689,9.09865 16.1309,23.5755 23.1668,40.1295 2.48593,-33.5096 -1.23695,-76.5373 -24.4097,-114.6 11.5882,10.3392 20.688,22.3397 30.6173,37.2325 3.72529,-44.2647 -28.135,-117.083 -91.4325,-158.452 2.48593,-4.54993 7.02864,-8.69114 11.1699,-11.1699 26.4773,-1.24056 56.2652,-1.24056 79.8503,1.65408 -6.61993,-10.3416 -18.6204,-20.688 -30.6173,-27.7203 14.8951,-6.62594 42.1971,-2.07001 67.4375,-6.20761 24.8196,-3.72168 42.1971,-17.3715 69.9174,-25.6467 -18.2021,-4.13761 -49.6477,-10.3428 -74.4697,-9.51818 48.8231,-9.10226 95.5701,-31.0236 134.457,-70.7444 -16.1321,-2.89464 -33.5096,7.8629 -52.9547,5.79289 27.7203,-12.0005 51.2994,-36.8238 62.8888,-61.2335 -11.5894,-2.89464 -27.7203,3.31297 -40.5526,2.48954 14.4864,-14.0717 40.5526,-24.0022 50.8943,-47.996 -14.8951,1.23575 -30.6185,4.96465 -45.0942,10.7575 19.4415,-18.6216 31.4384,-42.613 38.0619,-66.1921 -33.1033,16.1321 -61.6482,43.0217 -110.469,57.9193 16.554,-16.5564 23.5863,-31.8579 33.0973,-47.1618 -10.7479,2.89464 -20.2685,9.51217 -30.6077,20.2661 12.4092,-20.6844 18.6108,-50.4747 16.5432,-71.9838 -26.4773,62.884 -180.791,167.142 -201.898,230.024 -7.44096,-11.1699 -19.8574,-15.7174 -34.3342,-22.3373 9.92329,3.30696 21.0968,9.92449 30.199,10.3392 1.24657,-17.3739 -9.10226,-30.199 -19.0255,-48.4047 9.92689,14.0645 19.0255,19.861 33.0937,25.2344 -2.47631,-21.9238 -1.65528,-39.7112 -19.4451,-59.1599 16.1381,10.7587 39.3061,12.8287 57.5082,14.8988 -4.54993,-20.6904 -27.3056,-41.7884 -46.3407,-53.7853 19.8634,11.9945 47.996,19.0267 57.0947,19.0267 -9.9305,-14.4804 -25.2344,-37.6472 -51.2958,-48.4023 3.30937,-6.20401 10.7503,-7.03225 17.3739,-8.27161 -1.65168,-5.7953 -14.0669,-11.9969 -24.4097,-13.2435 10.7575,-16.9555 19.0328,-31.0236 21.9274,-46.747 -68.2621,34.7501 -156.796,61.2299 -203.547,44.2671 1.23936,8.27882 5.37456,18.2033 8.27161,26.4809 0,9.50857 0.831849,17.3751 1.24056,26.4749 3.72529,-14.8964 14.8988,-17.3715 28.5509,-17.3715 20.2697,-0.00360628 28.129,6.61272 35.1613,16.5468 4.14121,5.78568 13.6522,14.0609 10.3452,22.3397 -5.7953,13.2375 -41.7848,20.6808 -55.8553,26.065 -4.134,1.65528 -9.92449,-11.5858 -17.3715,-15.3111 1.23936,15.727 -2.89464,43.8524 3.30937,44.2707 8.27281,-0.00240419 30.6089,-12.8275 53.3646,-19.4451 -35.1625,14.8951 -53.7793,19.4451 -75.292,64.5368 9.51458,-11.1699 25.232,-19.4451 33.0949,-24.8184 -16.1321,14.8879 -33.9219,39.7136 -40.1271,64.9516 6.61753,-9.9305 16.1321,-16.1381 23.995,-23.5827 -16.9628,28.1362 -39.7172,84.8126 -4.13761,123.284l-39.7172 24.8256c-5.7965,-3.31057 -10.3464,-12.8287 -14.0681,-28.1362 -2.89464,-12.4056 -17.3775,-20.2661 -25.6503,-12.8215 -10.7539,-19.0364 -45.0978,-12.8251 -40.5478,15.7234 8.69355,-8.69114 23.5851,-8.69114 26.8957,1.65168 -14.4828,2.48232 -24.822,19.8574 -18.2021,35.9979 2.47992,-9.9329 10.3428,-6.20761 15.7162,-10.3452 -0.824637,22.752 19.4523,23.168 41.7884,23.5767zm206.856 230.443c-5.78929,0.412318 -16.1309,1.24657 -20.2721,5.38057 9.9305,7.03225 22.3457,7.44457 31.0309,14.4828 -72.812,60.3992 -148.522,21.1004 -147.695,-26.4809 1.24056,-49.6441 68.2633,-70.3321 136.937,6.61753z"/>
  <path fill="#EEB800" d="M904.511 1414.44c-2.04837,1.82117 -7.10077,3.70365 -12.8708,5.26397 -6.52256,1.75866 -14.1847,3.2132 -19.2792,3.67721l-0.480838 -5.33489c4.76751,-0.435158 12.069,-1.82718 18.374,-3.53175 5.07644,-1.37279 9.34027,-2.8718 10.7059,-4.08472l3.55099 4.01019z"/>
  <path fill="#EEB800" d="M891.667 1479.34c1.59037,-1.13598 3.19997,-2.25873 5.02596,-3.52694 6.91324,-4.80357 16.9171,-11.7517 21.5872,-16.1093l3.65437 3.92604c-4.98148,4.6509 -15.1512,11.7156 -22.1738,16.5961 -2.14934,1.48939 -4.00778,2.78165 -4.98869,3.48247l-3.10501 -4.36841z"/>
  <path fill="#EEB800" d="M646.643 1158.62c-5.08486,0 -11.1242,0.733277 -15.4565,2.74198 -2.79126,1.29225 -4.79636,3.11583 -5.04639,5.58854l-5.33489 -0.528921c0.471221,-4.68937 3.69043,-7.87011 8.13217,-9.93411 5.13054,-2.38495 12.0041,-3.24445 17.7056,-3.24445l0 5.37697z"/>
  <path fill="#EEB800" d="M682.216 1220.71c1.24056,-3.08938 4.23257,-5.15338 7.54915,-6.16314 1.92095,-0.584218 3.97172,-0.830647 5.82775,-0.723661 2.05077,0.120209 3.95249,0.66596 5.36374,1.65528 1.47737,1.035 2.43063,2.48954 2.57729,4.38043l-5.38057 0.399095c-0.00961675,-0.122614 -0.116603,-0.248833 -0.286098,-0.369043 -0.563782,-0.396691 -1.48218,-0.623887 -2.56647,-0.685194 -1.27182,-0.0781361 -2.67346,0.0913592 -3.98134,0.490454 -1.90171,0.577005 -3.5606,1.606 -4.12559,3.01485l-4.97787 -1.99908z"/>
  <path fill="#EEB800" d="M817.098 849.777c4.96224,-2.48232 14.4804,-4.134 17.3751,-3.72168 5.37697,1.65168 16.1321,8.27522 12.8215,11.5846 -2.89464,2.06159 -15.3075,10.7575 -13.2363,4.54993 4.134,-13.6558 -7.86049,-10.7539 -16.9603,-12.4128z"/>
  <path fill="#EEB800" d="M824.543 855.152c2.48353,0 4.1352,1.65769 4.1352,3.31297 0,1.65168 -1.65168,3.31297 -4.1352,3.31297 -2.0664,-0.00240419 -4.13761,-1.65769 -4.13761,-3.31297 0,-1.65889 2.07121,-3.31057 4.13761,-3.31297z"/>
  <path fill="#EEB800" d="M745.017 1182.71c-1.18767,-3.56661 -2.85257,-6.2593 -4.27344,-8.56011 -0.480838,-0.778957 -0.938836,-1.51584 -1.33072,-2.20344l-1.18767 -2.08083 2.14814 -1.07708c8.17424,-4.08952 27.9763,-18.8092 44.5761,-31.1535 8.23915,-6.12707 15.703,-11.6795 20.5053,-15.0154l0.0192335 -0.013223c4.12198,-2.81651 9.11308,-5.41664 15.733,-7.04547 6.543,-1.6096 14.6523,-2.25272 25.0721,-1.19128l-0.441169 4.51747c-9.85597,-1.00615 -17.4688,-0.412318 -23.5466,1.08429 -5.99364,1.47016 -10.5207,3.83588 -14.2592,6.38913l0.0192335 -0.013223c-4.98148,3.46684 -12.3118,8.91834 -20.3995,14.9312 -15.4722,11.504 -33.7007,25.0601 -43.0927,30.4142 0.013223,0.0228398 0.0264461,0.0480838 0.0420733,0.0745298 1.56152,2.53161 3.39471,5.49357 4.73505,9.52179l-4.31912 1.42088z"/>
  <path fill="#EEB800" d="M818.751 1017.34c-39.7184,0.824637 -59.9941,33.9183 -60.3992,62.0545 13.6486,-5.7965 0,19.4415 -15.3111,35.5796 -9.51458,10.3428 -24.4097,22.3397 -23.1704,24.8196 1.65769,2.89825 16.5504,-13.2339 25.238,-21.5127 12.0005,-12.0005 17.7922,-22.7544 21.1028,-28.5437 3.71928,-7.03586 19.4451,-26.0662 9.10226,-23.995 -3.31297,-17.7874 17.7874,-43.0278 43.4377,-48.4023z"/>
  <path fill="#EEB800" d="M641.376 1125.67c-1.92455,1.68774 -5.45871,4.98148 -8.48318,8.83058 -1.87887,2.39097 -3.53656,4.97066 -4.40087,7.42413l-5.06562 -1.78511c1.08429,-3.08217 3.04731,-6.16193 5.24474,-8.9556 3.25527,-4.14482 7.08755,-7.71384 9.17679,-9.54102l3.52815 4.02702z"/>
  <path fill="#EEB800" d="M627.188 1137.08c0.299321,0.610664 0.607058,1.22734 0.9184,2.01591 0.0781361,0.038467 0.152666,0.0877529 0.227196,0.129826 3.48607,2.03154 5.16299,5.54887 5.62099,9.33306 0.418329,3.45963 -0.227196,7.21016 -1.41847,10.1024 -0.288503,0.700821 -0.609462,1.35596 -0.943644,1.93056l-4.64489 -2.68668c0.230802,-0.396691 0.444775,-0.828243 0.629897,-1.28263 0.876327,-2.1253 1.34995,-4.8805 1.03861,-7.43375 -0.269269,-2.24311 -1.16483,-4.26743 -2.97278,-5.32287 -0.2296,-0.135837 -0.467615,-0.250036 -0.704427,-0.347405l-1.13237 -0.466413 -0.389479 -1.16243c-0.330576,-0.99293 -0.691204,-1.7202 -1.04101,-2.43063l4.81198 -2.37894z"/>
  <path fill="#EEB800" d="M594.35 966.163c-1.94739,-0.431552 -6.47448,0.246429 -9.96536,0.762128 -2.02553,0.298119 -3.74212,0.555368 -4.7639,0.555368l0 -5.37817c0.670769,0 2.19262,-0.227196 3.98735,-0.492859 3.89118,-0.578207 8.94358,-1.32711 11.8971,-0.671971l-1.15521 5.2255z"/>
  <path fill="none" stroke="#EEB800" stroke-width="6.34946" d="M585.41 996.644c-7.44457,-3.30696 -12.8227,-1.65168 -17.7874,-0.406308 -4.13761,1.23695 -6.61993,4.54993 -7.85929,8.26921"/>
  <path fill="#EEB800" d="M566.51 993.801c0.104582,-0.0480838 0.227196,-0.181516 0.363032,-0.385872l0.0108188 0c0.603451,-0.908783 0.891954,-2.50276 0.846274,-4.39125 -0.0516901,-2.08684 -0.534932,-4.39005 -1.47617,-6.45765l-0.00961675 -0.00360628c-0.885943,-1.94619 -2.16137,-3.676 -3.83228,-4.78914l2.98119 -4.45256c2.5809,1.7202 4.48261,4.24459 5.74481,7.01903l-0.00961675 0c1.26581,2.77804 1.91373,5.82535 1.97865,8.55771 0.0757319,2.93311 -0.531326,5.64383 -1.76828,7.49987l0.00961675 0c-0.671971,1.00615 -1.54469,1.79473 -2.61215,2.27797l-2.22628 -4.87449z"/>
  <path fill="#EEB800" d="M589.235 1045.09c3.18675,2.76121 5.01153,5.42866 6.80265,8.04802 1.79473,2.62537 3.557,5.19906 6.70408,7.56117l-3.2156 4.28306c-3.87796,-2.91027 -5.88064,-5.83376 -7.9218,-8.81977 -1.60239,-2.34649 -3.23484,-4.72784 -5.87704,-7.01903l3.50771 -4.05346z"/>
  <path fill="#EEB800" d="M598.148 1097.66c0.187527,-0.649131 0.219983,-1.26941 0.10338,-1.84041 -0.181516,-0.879933 -0.727267,-1.7226 -1.58676,-2.4691 -1.00615,-0.883539 -2.42823,-1.61682 -4.18689,-2.13612 -3.30696,-0.97009 -7.67177,-1.13838 -12.7302,-0.0973696l-1.07107 -5.25315c5.9672,-1.22734 11.2348,-0.996536 15.3135,0.204356 2.50877,0.736884 4.61123,1.85603 6.20521,3.24806 1.74304,1.52185 2.88503,3.37548 3.31057,5.43226 0.292109,1.42208 0.233206,2.91388 -0.211569,4.42611l-5.14617 -1.51464z"/>
  <path fill="#EEB800" d="M1041.49 1052.7c-7.05509,0.419531 -18.2213,1.24297 -29.7458,2.81771 -11.5653,1.57715 -23.6728,3.91642 -32.7655,7.35321l-1.8921 -5.01995c9.51818,-3.60268 22.0308,-6.02369 33.9435,-7.64893 11.956,-1.63605 23.1355,-2.46309 30.1449,-2.87902l0.314949 5.37697z"/>
  <path fill="#EEB800" d="M862.188 887.01c-8.26921,14.9012 -19.0304,38.4802 -25.6503,43.0302 -27.3044,-2.064 -56.6739,8.27522 -57.5046,6.62113 -1.23936,-2.07121 25.6503,-9.09985 52.5459,-9.93411 0.824637,-14.0609 15.3075,-26.059 30.6089,-39.7172z"/>
  <path fill="#EEB800" d="M675.35 1424.11c2.9824,2.74438 9.68046,7.01542 16.7969,8.26199 4.45857,0.778957 9.05778,0.320959 12.8384,-2.61936l3.29614 4.24099c-5.16901,4.02101 -11.2468,4.68697 -17.0589,3.6712 -8.25598,-1.44492 -16.0383,-6.40596 -19.5076,-9.60593l3.63513 -3.94888z"/>
  <path fill="#EEB800" d="M851.818 1364.52c-3.72168,1.16483 -7.93983,1.17805 -12.1207,0.613068 -4.0198,-0.545751 -7.98551,-1.61321 -11.4031,-2.68067l-0.0805403 -0.0288503c-4.07029,-1.41847 -6.47809,-3.23604 -9.19121,-5.2832 -3.87074,-2.92349 -8.44712,-6.38072 -20.3983,-9.55424l1.36558 -5.19184c12.991,3.45241 18.017,7.24622 22.2688,10.4594 2.36572,1.78511 4.46458,3.37428 7.71624,4.50425l-0.0841466 -0.0300524c3.20599,1.00014 6.89281,1.99908 10.5243,2.48954 3.47886,0.467615 6.91565,0.480838 9.80668,-0.425541l1.59638 5.12813z"/>
  <path fill="#EEB800" d="M887.892 1550.28c-1.93657,5.38298 -3.65076,13.6257 -4.30951,21.3011 -0.538538,6.3146 -0.385872,12.0883 0.935229,15.2329l-4.937 2.07602c-1.71298,-4.06308 -1.98225,-10.7215 -1.3788,-17.7501 0.698417,-8.07447 2.53161,-16.8522 4.62446,-22.6643l5.06562 1.80434z"/>
  <path fill="#EEB800" d="M709.674 1405.14c-3.28412,0.698417 -6.4288,0.587824 -9.44125,0.00721257 -2.90666,-0.561378 -5.65946,-1.5483 -8.28123,-2.6422l2.06039 -4.96104c2.33687,0.972494 4.7615,1.85603 7.22699,2.32966 2.36572,0.454392 4.80958,0.548155 7.31835,0.013223l1.11675 5.25315z"/>
  <path fill="#EEB800" d="M952.975 1281.39c1.13478,6.82549 -0.0589026,11.2288 -1.17565,15.3471 -0.934027,3.46564 -1.81636,6.71129 -0.911187,11.0665l-3.63513 0.756117c-1.09391,-5.24113 -0.10338,-8.88949 0.954463,-12.7867 1.01938,-3.75414 2.10006,-7.75952 1.09992,-13.7664l3.66759 -0.616674z"/>
  <path fill="#EEB800" d="M797.618 1169.83c2.99442,2.54844 6.11986,4.22897 9.0145,4.89733 2.19382,0.506082 4.24219,0.418329 5.95878,-0.324565 1.67091,-0.723661 3.07977,-2.11208 4.05947,-4.23498 1.10593,-2.39457 1.6649,-5.70514 1.47978,-10.0183l-0.114199 -2.61455 2.50637 0.752511c9.40038,2.81651 14.4179,2.11569 16.3749,-0.882337 2.07001,-3.17112 1.22253,-9.03494 -1.28263,-16.1682l3.50891 -1.22614c2.8682,8.17424 3.676,15.1416 0.885943,19.415 -2.68788,4.11236 -8.33773,5.58493 -18.1252,3.09299 -0.0805403,3.74573 -0.752511,6.80265 -1.85964,9.20684 -1.38481,3.00524 -3.46203,5.01033 -5.96359,6.09462 -2.45708,1.06746 -5.29282,1.21291 -8.25959,0.528921 -3.46564,-0.805403 -7.14284,-2.7552 -10.5989,-5.69913l2.41501 -2.82011z"/>
  <path fill="#EEB800" d="M1107.44 872.478c-4.39365,2.09285 -8.91112,3.98855 -13.5909,5.77606 -4.6497,1.77189 -9.44606,3.4428 -14.4444,5.1113l-0.135837 0.0420733c-18.0567,4.92017 -33.0131,10.5532 -46.4645,16.8942 -13.4707,6.35066 -25.4844,13.4382 -37.5991,21.2398l0.0108188 -0.013223c-2.78525,1.81156 -4.96585,3.20959 -7.22098,4.65691 -30.7832,19.7564 -76.6251,49.1873 -89.336,85.8151l-5.08245 -1.74544c13.3216,-38.3937 60.1011,-68.4184 91.5178,-88.5835 2.76482,-1.7779 5.41543,-3.47525 7.20054,-4.63407l0.013223 -0.013223c12.2926,-7.91459 24.4879,-15.1055 38.2086,-21.5764 13.7363,-6.48049 28.9729,-12.2217 47.2976,-17.2164 4.90094,-1.63845 9.59632,-3.2709 14.1234,-4.99711 4.52709,-1.72981 8.90511,-3.56661 13.1918,-5.60777l2.31043 4.85165z"/>
  <path fill="#EEB800" d="M915.975 1046.3c16.1297,-46.3443 83.5708,-112.533 164.66,-146.457 -60.8139,17.3775 -164.248,93.5001 -164.66,146.457z"/>
  <path fill="#EEB800" d="M1148.9 928.386c-59.5782,0 -101.775,19.0328 -136.524,45.0978 16.9628,-21.5127 50.0564,-41.3725 81.0837,-49.6513 10.7611,-2.89464 24.8256,5.79289 54.2012,-0.408712l1.23936 4.96224z"/>
  <path fill="#EEB800" d="M1151.95 891.579c-4.89012,1.91373 -10.7251,3.6183 -16.274,4.83122 -5.61138,1.23094 -10.9956,1.98346 -14.912,1.98346l0.00360628 -5.38057c3.54017,0 8.51804,-0.700821 13.7748,-1.85363 5.30003,-1.16122 10.8393,-2.77443 15.4541,-4.57878l1.9534 4.99831z"/>
  <path fill="#EEB800" d="M1125.32 987.542c-62.0605,-3.30456 -118.326,16.9652 -163.005,43.4461 20.2697,-22.7556 64.9564,-34.7501 99.2894,-46.747 9.93411,-3.31297 41.3725,-0.415925 66.2017,-1.65528 0.415925,1.23695 -3.31297,3.71928 -2.48593,4.95623z"/>
  <path fill="#EEB800" d="M839.487 1178.65c2.43664,-1.12636 4.58839,-2.91508 6.06817,-4.93339 1.35716,-1.85002 2.1229,-3.85512 1.96302,-5.627l3.1002 -1.54108c3.2156,2.9271 5.80852,2.62537 9.15034,2.2383 0.847476,-0.0961675 1.7202,-0.197143 2.26595,-0.242823l1.24537 -0.106986 0.572197 1.14199c0.593835,1.17805 1.33673,2.38255 2.09525,3.60268 1.95461,3.13747 3.98614,6.41197 4.3071,10.3092l0.00360628 0.150262c0,3.61109 -2.39818,6.10063 -4.75428,8.54088 -1.1456,1.19368 -2.28879,2.37894 -2.93431,3.53656l-3.24205 -1.80675c0.88955,-1.59398 2.18781,-2.94393 3.49809,-4.3035 1.80194,-1.87286 3.63153,-3.77097 3.70365,-5.84458 -0.259652,-3.02808 -2.03154,-5.87704 -3.73611,-8.61541 -0.577005,-0.931623 -1.148,-1.85002 -1.6673,-2.77203 -0.351012,0.0396691 -0.645525,0.0745298 -0.935229,0.106986 -3.36466,0.389479 -6.1427,0.708033 -9.34508,-1.148 -0.442371,1.56994 -1.23335,3.13386 -2.2948,4.57878 -1.83079,2.50156 -4.49824,4.72183 -7.50948,6.11385l-1.55431 -3.37788z"/>
  <path fill="#EEB800" d="M869.054 1182.12c1.18166,0.828243 2.49194,1.58797 3.7866,2.33086 3.2168,1.84281 6.34465,3.63754 8.31849,6.93128 2.32966,3.88517 2.67706,9.37273 2.98841,14.3602 0.00360628,0.00360628 0,0.00601047 0,0.00961675l0.00360628 -0.00961675c0,0.00360628 -0.00360628,0.00601047 -0.00360628,0.00961675 0.0552963,0.827041 0.10338,1.63244 0.175506,2.57969l-3.72289 0.276482c-0.0552963,-0.736884 -0.116603,-1.68534 -0.175506,-2.63259l0.00360628 -0.00961675c-0.284896,-4.57277 -0.607058,-9.59271 -2.45708,-12.6785 -1.46655,-2.44746 -4.18209,-4.00538 -6.97695,-5.60777 -1.35236,-0.778957 -2.72875,-1.56753 -4.07871,-2.51478l2.13853 -3.0449z"/>
  <path fill="#EEB800" d="M878.112 1190.76c0.470019,-0.587824 1.14199,-1.27903 1.85603,-2.02192 1.53507,-1.57715 3.33221,-3.43679 3.54978,-4.9358l0.0168293 -0.0709236c0.366639,-2.01832 0.271673,-3.95609 -0.0973696,-5.76044 -0.377458,-1.82117 -1.04582,-3.53776 -1.81156,-5.07284l3.33581 -1.66129c0.883539,1.77189 1.65889,3.7878 2.10968,5.99364 0.461604,2.22628 0.570995,4.63407 0.114199,7.15967l0.0120209 -0.0649131c-0.385872,2.68307 -2.64461,5.02355 -4.56916,7.0058 -0.599845,0.616674 -1.16483,1.2045 -1.6096,1.75866l-2.90666 -2.32966z"/>
  <path fill="#EEB800" d="M880.098 1171.01c0.908783,0.758521 2.14093,0.483242 3.36226,-0.188729 1.41126,-0.781361 2.80328,-2.07001 3.79982,-3.06654l1.16483 1.16844c-1.07107,1.07107 -2.57969,2.4691 -4.16646,3.34543 -1.77549,0.979707 -3.65437,1.3211 -5.2255,0.00961675l1.06506 -1.26821z"/>
  <path fill="#EEB800" d="M861.571 1168.66c0.509688,-0.185123 0.950857,-0.429148 1.31389,-0.723661 0.879933,-0.721257 1.39924,-1.79833 1.57114,-3.07977 0.197143,-1.45453 -0.0360628,-3.16151 -0.671971,-4.94301 -0.626291,-1.77189 -1.65168,-3.59186 -3.03769,-5.29282l2.23229 -2.85257c2.59652,1.23094 5.17982,1.23335 7.27988,0.536134 0.9761,-0.328172 1.84882,-0.807807 2.55685,-1.38601 0.671971,-0.551761 1.18046,-1.17084 1.48338,-1.81396 0.334182,-0.697215 0.418329,-1.42448 0.194739,-2.10006l3.52334 -1.18046c0.545751,1.64446 0.370245,3.3298 -0.357022,4.86367 -0.540942,1.15521 -1.40164,2.22387 -2.48833,3.10982 -1.04823,0.859497 -2.32365,1.56753 -3.74813,2.04116 -1.54469,0.515698 -3.2745,0.756117 -5.08606,0.616674 0.370245,0.742894 0.691204,1.48579 0.954463,2.22267 0.830647,2.32365 1.12276,4.63047 0.847476,6.67162 -0.299321,2.20704 -1.25619,4.11837 -2.91508,5.46833 -0.693608,0.557772 -1.50142,1.01938 -2.41982,1.34635l-1.23335 -3.5041z"/>
  <path fill="#EEB800" d="M898.357 1201.47c2.6999,3.14828 3.98254,7.93142 4.06308,12.7638 0.0841466,5.09808 -1.17445,10.3681 -3.52694,13.889l-3.07977 -2.07001c1.92696,-2.88863 2.95595,-7.35081 2.88142,-11.7577 -0.0613068,-4.04986 -1.06746,-7.96387 -3.16031,-10.4065l2.82252 -2.41861z"/>
  <path fill="#EEB800" d="M730.667 1028.77c2.85257,0.712842 6.21843,2.07001 9.03855,3.78059 1.33312,0.804201 2.56647,1.70938 3.59186,2.67947 0.937633,-2.064 2.064,-3.94888 3.37187,-5.70394 1.91854,-2.5809 4.1893,-4.85526 6.76298,-7.001l1.43169 -1.19729 1.19368 1.4353c0.710438,0.855891 1.76227,1.29466 2.90787,1.48579 1.3211,0.217579 2.78766,0.123816 4.08231,-0.0613068l0.522911 3.676c-1.59758,0.234408 -3.444,0.343799 -5.21829,0.0492859 -1.34755,-0.22359 -2.6386,-0.675577 -3.75895,-1.46655 -1.87887,1.67091 -3.54017,3.40673 -4.94181,5.28921 -1.69736,2.27436 -3.05693,4.80237 -4.02702,7.70783l-1.33432 4.00418 -2.04717 -3.69043c-0.772947,-1.39443 -2.44746,-2.79367 -4.47179,-4.0198 -2.51839,-1.52546 -5.49477,-2.72996 -8.00595,-3.35625l0.901571 -3.61109z"/>
  <path fill="#EEB800" d="M745.592 1038.16c0.486848,1.21412 0.853487,2.56407 0.911187,3.97172l0 0.0108188c0.0228398,0.508486 0.00961675,1.03741 -0.0552963,1.56633 0.847476,0.00360628 1.70457,0.0853487 2.54123,0.238015 1.97384,0.353416 3.85872,1.11915 5.14376,2.14814l0.613068 0.489252 0.0721257 0.788574c0.2296,2.54123 -0.00360628,5.29643 -0.704427,8.02278 -0.675577,2.61816 -1.77189,5.23392 -3.29374,7.62609l-3.14107 -2.0063c1.30788,-2.06039 2.25152,-4.29989 2.82612,-6.53579 0.522911,-2.02793 0.7465,-4.04024 0.674375,-5.9119 -0.771744,-0.441169 -1.7779,-0.778957 -2.84536,-0.97009 -1.37279,-0.253642 -2.8105,-0.250036 -3.96571,0.076934l-4.05587 1.15281 1.88849 -3.77097c0.464008,-0.922006 0.616674,-1.85964 0.580611,-2.76241 0,-0.00601047 0,-0.00601047 0,-0.00961675l0 0.00721257c0,-0.00360628 0,-0.00360628 0,-0.00721257 -0.0456796,-0.962877 -0.298119,-1.8921 -0.639514,-2.73837l3.45001 -1.38601z"/>
  <polygon fill="#EEB800" points="745.185,1047.19 741.048,1051.32 738.416,1048.71 742.548,1044.57 "/>
  <path fill="#EEB800" d="M761.869 985.786c0.185123,3.23243 0.0360628,6.26291 -0.110593,9.23569 -0.15507,3.18675 -0.307736,6.31821 -0.0156272,9.45687 0.317353,0.13223 0.628695,0.262057 0.937633,0.389479 3.19997,1.32351 5.99364,2.47872 8.00234,5.69432l-3.1543 1.96663c-1.38241,-2.20945 -3.65437,-3.15069 -6.2593,-4.22777 -0.658748,-0.276482 -1.34034,-0.555368 -2.01952,-0.857093l-0.960473 -0.424339 -0.13223 -1.04823c-0.480838,-3.82627 -0.301726,-7.43495 -0.120209,-11.1254 0.139443,-2.8718 0.284896,-5.7989 0.106986,-8.85222l3.72529 -0.207962z"/>
  <path fill="#EEB800" d="M760.516 1007.54c-1.17084,0.335384 -2.27797,0.929219 -3.30937,1.72981l0 -0.00961675c-1.12997,0.879933 -2.17819,2.02192 -3.13506,3.36586l-3.02447 -2.15535c1.15882,-1.62283 2.45347,-3.02447 3.87435,-4.1304l0 -0.00721257c1.39924,-1.09391 2.92349,-1.89811 4.57637,-2.37173l1.01817 3.57863z"/>
  <path fill="#EEB800" d="M763.874 978.413c0.744096,2.9848 4.67975,5.12693 8.34374,7.1188 1.3175,0.71164 2.60253,1.41486 3.67721,2.10006l-1.99668 3.13867c-1.0927,-0.698417 -2.26475,-1.33072 -3.45602,-1.97985 -4.35519,-2.36933 -9.03734,-4.91296 -10.1769,-9.48933l3.60869 -0.888348z"/>
  <polygon fill="#1F1A17" points="1436.85,321.869 1484.84,323.112 1496.42,301.599 1475.74,261.058 1452.16,260.233 1427.75,300.776 "/>
  <polygon fill="#1F1A17" points="1537.79,300.776 1500.56,304.498 1488.56,324.767 1510.9,363.245 1529.11,360.354 1545.66,317.738 "/>
  <polygon fill="#1F1A17" points="1432.3,323.943 1424.02,303.258 1379.75,299.535 1367.34,317.738 1382.65,360.756 1405.4,364.903 "/>
  <path fill="#1F1A17" d="M1422.78 408.339c-19.4451,-5.37336 -37.2385,-16.1309 -50.8907,-30.199l10.7575 -12.4128 22.3433 4.13761 20.688 33.1009 -2.89825 5.37336z"/>
  <path fill="#1F1A17" d="M1484.84 406.685c-10.7587,3.31297 -21.925,5.38298 -33.5132,5.38298 -8.68393,0 -17.3751,-1.23936 -25.6503,-3.31297l2.89825 -4.96465c18.618,2.89464 38.0559,2.89464 54.1916,-2.48353l2.07361 5.37817z"/>
  <path fill="#1F1A17" d="M1537.38 370.692c-12.8251,15.727 -29.7939,27.7203 -48.8243,34.7525l-2.48593 -4.54872 25.6503 -33.5132 18.2057 -2.89464 7.45419 6.20401z"/>
  <path fill="#1F1A17" d="M1342.52 318.978c-1.24898,-5.79289 -1.65769,-11.5822 -1.65769,-17.3787 0.00360628,-16.5468 4.134,-32.6789 10.7539,-46.7494l11.1675 0 13.2435 41.3761 -12.4128 19.4379 -21.0943 3.31417z"/>
  <path fill="#1F1A17" d="M1352.86 251.537c7.44457,-14.4768 17.7838,-26.8872 30.6125,-36.8165l3.72168 6.2016 -23.5791 30.6149 -10.7551 0z"/>
  <path fill="#1F1A17" d="M1386.37 212.649c13.6498,-9.9293 29.7843,-16.9591 46.747,-19.8538l4.97186 11.1699 -10.7575 15.7162 -36.8262 0 -4.1352 -7.03225z"/>
  <polygon fill="#1F1A17" points="1452.57,256.093 1475.74,256.924 1496.01,222.992 1486.49,205.615 1441.4,205.205 1430.64,221.337 "/>
  <path fill="#1F1A17" d="M1493.52 199.822c12.8275,5.38298 24.8256,13.2471 34.7549,23.174l-28.9597 -1.24297 -9.9329 -16.9628 4.13761 -4.96826z"/>
  <path fill="#1F1A17" d="M1554.34 262.713c4.55233,12.4128 7.45058,25.2344 7.45058,38.8865 0.00360628,5.79289 -0.834253,11.1735 -1.24537,16.548l-10.7515 -1.65288 -7.44818 -17.3739 11.9945 -36.4078z"/>
 </g>
</svg>
