<?xml version="1.0" encoding="UTF-8" standalone="no"?>
<!-- Generator: Adobe Illustrator 19.2.0, SVG Export Plug-In . SVG Version: 6.00 Build 0)  -->
<svg xmlns:dc="http://purl.org/dc/elements/1.1/" xmlns:cc="http://creativecommons.org/ns#" xmlns:rdf="http://www.w3.org/1999/02/22-rdf-syntax-ns#" xmlns:svg="http://www.w3.org/2000/svg" xmlns="http://www.w3.org/2000/svg" xmlns:sodipodi="http://sodipodi.sourceforge.net/DTD/sodipodi-0.dtd" xmlns:inkscape="http://www.inkscape.org/namespaces/inkscape" version="1.1" id="Layer_1" x="0px" y="0px" viewBox="0 0 588 700" xml:space="preserve" inkscape:version="0.91 r13725" sodipodi:docname="as-cannes-1902-seeklogo.com.svg" width="588" height="700"><metadata id="metadata87"><rdf:RDF><cc:Work rdf:about=""><dc:format>image/svg+xml</dc:format><dc:type rdf:resource="http://purl.org/dc/dcmitype/StillImage"/><dc:title/></cc:Work></rdf:RDF></metadata><defs id="defs85"/><sodipodi:namedview pagecolor="#ffffff" bordercolor="#666666" borderopacity="1" objecttolerance="10" gridtolerance="10" guidetolerance="10" inkscape:pageopacity="0" inkscape:pageshadow="2" inkscape:window-width="1440" inkscape:window-height="788" id="namedview83" showgrid="false" inkscape:zoom="0.93263021" inkscape:cx="357.11055" inkscape:cy="471.55781" inkscape:window-x="0" inkscape:window-y="1" inkscape:window-maximized="1" inkscape:current-layer="Layer_1"/><style type="text/css" id="style3">
	.st0{fill:#DB0D15;}
	.st1{fill:#FFFFFF;}
</style><g id="g4344"><path class="st0" d="M 573.90137,73.968467 C 572.49245,66.45421 567.56122,59.879235 560.75142,56.356927 558.63804,55.417645 449.21167,3.0000001e-7 293.76048,3.0000001e-7 138.30929,3.0000001e-7 28.882922,55.417645 26.769537,56.356927 19.959742,59.879235 15.028511,66.21939 13.619588,73.968467 4.2267665,125.39416 -3.0300002e-6,173.06273 -3.0300002e-6,217.20899 -3.0300002e-6,307.14525 17.611537,382.52264 44.146257,444.75008 c 39.684669,93.22375 99.563903,156.6253 149.111033,196.30997 49.78196,39.68467 89.46663,56.35692 91.11037,57.06139 3.05267,1.1741 6.10533,1.87856 9.39282,1.87856 3.28749,0 6.34015,-0.70446 9.39282,-1.87856 2.11339,-0.93929 72.32472,-30.05703 143.0057,-104.96478 35.4579,-37.33647 70.68098,-86.17914 97.2157,-148.40658 26.53472,-62.22744 44.14626,-137.60483 44.14626,-227.54109 0,-44.14626 -4.22677,-91.81483 -13.61959,-143.240523 z" id="path7" inkscape:connector-curvature="0" style="fill:#db0d15"/><path class="st1" d="M 570.84871,74.438108 C 569.6746,67.863133 565.44783,62.227441 559.3425,59.174774 557.46394,58.235492 448.27239,3.2874877 293.76048,3.0526672 139.01375,3.0526672 30.057025,58.235492 28.178461,59.174774 22.073127,62.227441 17.846357,67.863133 16.672255,74.438108 7.2794334,125.62898 3.0526639,173.06273 3.0526639,216.97417 c 0,89.46662 17.3767191,164.37437 43.6766181,226.13217 39.449849,92.75411 98.859448,155.45119 148.171758,195.13586 49.54713,39.44985 88.99698,56.12211 90.4059,56.59175 2.58303,1.1741 5.40087,1.64374 8.21872,1.64374 2.81785,0 5.63569,-0.46964 8.21872,-1.64374 1.87856,-0.70446 71.62026,-29.82221 142.06642,-104.0255 35.22308,-37.10164 70.21134,-85.70949 96.74606,-147.46729 26.2999,-61.7578 43.91144,-136.66555 43.67662,-226.13217 0.23482,-44.14626 -3.99195,-91.58001 -13.38477,-142.770882 z" id="path9" inkscape:connector-curvature="0" style="fill:#ffffff"/><path class="st0" d="m 564.03891,75.847031 c -0.93928,-4.46159 -3.75713,-8.453539 -7.74908,-10.332103 -1.1741,-0.469641 -109.42636,-55.182824 -262.52935,-55.417645 -153.10299,0 -261.35525,54.713184 -262.529353,55.417645 -3.991949,2.113385 -7.044615,5.870513 -7.749077,10.332103 -9.392821,50.721239 -13.38477,97.920159 -13.38477,141.361959 0,88.52734 17.141898,162.49581 43.206977,223.54915 38.980208,91.58 97.450523,153.3378 146.293193,192.31801 48.84267,38.98021 87.82288,55.18282 88.76216,55.65246 1.87856,0.70447 3.75713,1.17411 5.63569,1.17411 1.87856,0 3.75713,-0.46964 5.63569,-1.17411 1.17411,-0.46964 70.21134,-29.11774 139.71822,-102.61657 34.75344,-36.632 69.27205,-84.53539 95.33713,-145.58873 26.06508,-61.05333 43.20698,-135.0218 43.20698,-223.54914 -0.23482,-43.4418 -4.46159,-90.4059 -13.85441,-141.127139 z" id="path11" inkscape:connector-curvature="0" style="fill:#db0d15"/><path class="st1" d="m 507.44716,429.25193 c -36.632,86.17913 -91.81482,144.1798 -137.60483,181.04663 -23.01241,18.316 -43.67662,31.23113 -58.23549,39.68467 -7.27944,4.22677 -13.38477,7.04461 -17.37672,9.158 0,0 -0.23482,0 -0.23482,0.23482 -17.37672,-8.45354 -72.79436,-37.57129 -127.03791,-96.27642 -64.106,-69.27206 -127.507544,-178.93324 -127.507544,-345.65582 0,-39.68467 3.522308,-82.422 11.741027,-128.681649 C 76.081849,77.490775 170.24488,39.68467 293.9953,39.68467 c 73.02919,0 135.49145,13.14995 179.87253,26.299899 22.07313,6.574975 39.68467,13.14995 51.66051,18.081181 4.69641,1.878564 8.45354,3.522308 11.50621,4.931231 7.9839,46.259649 11.74103,89.231799 11.74103,128.681649 -0.46965,84.30057 -16.90708,154.04227 -41.32842,211.5733 z" id="path13" inkscape:connector-curvature="0" style="fill:#ffffff"/><path class="st0" d="m 501.10701,426.43408 c -36.16236,84.77021 -90.40591,142.06642 -135.49145,178.22879 -22.54277,18.08118 -42.97215,30.76148 -57.53103,38.9802 -5.87051,3.28749 -10.56692,5.87052 -14.32405,7.51426 -19.4901,-9.62764 -70.21134,-38.04093 -120.46293,-91.58001 -31.93559,-34.04897 -63.63637,-78.19523 -87.353239,-134.55216 -23.716874,-56.35693 -39.68467,-124.6897 -39.68467,-208.05099 0,-38.04093 3.287488,-79.36934 11.036565,-123.98524 C 85.944311,80.543442 176.58504,45.790004 293.9953,46.024824 c 72.0899,0 134.08252,12.915129 177.99396,26.065079 21.83831,6.574975 39.21503,12.915129 50.95606,17.84636 3.05266,1.174103 5.63569,2.348206 7.9839,3.287488 7.51425,44.615899 11.03656,85.709489 11.03656,123.985239 -0.46964,83.83093 -16.67226,152.63335 -40.85877,209.22509 z" id="path15" inkscape:connector-curvature="0" style="fill:#db0d15"/><path class="st1" d="m 174.00201,556.05502 c 49.07749,53.06944 99.32908,81.71754 119.75847,92.04964 3.52231,-1.64374 7.74908,-3.99195 12.68031,-6.80979 14.32405,-7.9839 34.51862,-20.66421 57.06139,-38.74539 44.85072,-35.92754 98.85944,-92.98893 134.55216,-177.05468 0.46964,-0.93928 0.93928,-2.11338 1.1741,-3.05267 25.1258,-67.62831 32.40524,-133.8477 32.40524,-188.09124 0,-76.55149 -14.55888,-129.85575 -14.55888,-130.56022 -0.93928,-3.75712 -3.5223,-7.044611 -7.04461,-8.453535 -0.93928,-0.23482 -100.97283,-45.555182 -216.50453,-45.555182 -115.5317,0 -215.565247,45.320362 -216.504529,45.555182 -3.522308,1.643744 -5.870513,4.696415 -7.044616,8.453535 -0.234821,0.93929 -14.558873,54.00873 -14.558873,130.56022 0,54.47836 7.279436,120.69775 32.640054,188.56088 0,0 0,0 0,0.23483 23.482054,55.18282 54.713184,98.85944 85.944314,132.90842 z" id="path17" inkscape:connector-curvature="0" style="fill:#ffffff"/></g><g id="g4315"><g id="g4303"><path style="fill:#db0d15" inkscape:connector-curvature="0" id="path19" d="m 185.74304,86.883596 c -0.70447,-3.287487 -3.75713,-5.870513 -7.27944,-5.870513 l -27.23918,0 c -3.52231,0 -6.57498,2.348205 -7.27944,5.870513 L 110.36565,227.30627 c -0.23482,0.46964 -0.23482,1.17411 -0.23482,1.64375 l 0,0.46964 c 0,1.87856 0.70446,3.99195 2.11338,5.40087 1.40892,1.40892 3.28749,2.11339 5.40087,2.11339 l 25.59544,0 c 3.52231,0 6.8098,-2.58303 7.27944,-6.10534 l 3.99195,-20.66421 19.95974,0 3.99195,20.66421 c 0.70446,3.52231 3.75713,6.10534 7.27944,6.10534 l 25.83025,0 c 2.34821,0 4.46159,-0.93929 5.87052,-2.81785 1.40892,-1.87857 1.87856,-4.22677 1.40892,-6.34016 L 185.74304,86.883596 Z m -17.84636,90.405904 -7.04462,0 3.52231,-17.37672 3.52231,17.37672 z" class="st0"/><path style="fill:#ffffff" inkscape:connector-curvature="0" id="path25" d="m 183.62965,231.53304 -5.16605,-26.76954 -29.11775,0 -5.16605,26.76954 -29.35256,0 0,-2.11338 0,-0.70446 34.04897,-142.066424 30.52667,0 33.81416,142.301244 -2.11339,0.46964 0,-2.11339 0,2.11339 2.11339,-0.46964 0.70446,2.58302 -30.29185,0 0,0 z m -1.87856,-30.76149 5.16605,26.76954 21.36867,0 -32.40524,-136.665545 -23.95169,0 -32.64005,136.665545 21.36866,0 5.16606,-26.76954 35.92754,0 0,0 z m -33.34452,-14.08923 13.14995,-65.74975 3.99195,0 12.68031,63.40155 -2.11339,0.46964 0,-2.11339 0,2.11339 2.11339,-0.46964 0.46964,2.3482 -30.29185,0 0,0 z m 4.93123,-3.99195 20.42939,0 -10.09728,-50.95605 -10.33211,50.95605 0,0 z" class="st1"/></g><g id="g4307"><path style="fill:#db0d15" inkscape:connector-curvature="0" id="path21" d="m 334.38443,66.21939 c -3.99195,-1.878564 -8.21872,-2.583026 -12.91513,-2.583026 l -52.13016,0 c -6.10533,0 -11.97584,1.174103 -16.43743,4.931231 -2.34821,1.878564 -3.99195,4.22677 -5.16605,7.044616 -1.17411,2.583026 -1.40893,5.635693 -1.40893,8.453539 l 0,31.23113 c 0,3.28749 0.70446,6.57498 2.11339,9.62764 1.40892,3.05267 3.75713,5.63569 6.34015,7.51426 l 49.07749,37.57128 0,16.43744 -16.67225,0 0,-21.13385 c 0,-1.87856 -0.70447,-3.99195 -2.11339,-5.40087 -1.40892,-1.40892 -3.28749,-2.11338 -5.40087,-2.11338 l -25.83026,0 c -1.87856,0 -3.99195,0.70446 -5.40087,2.11338 -1.40893,1.40892 -2.11339,3.28749 -2.11339,5.40087 l 0,33.57934 c 0,2.81785 0.46964,5.87051 1.64375,8.45354 1.64374,3.99195 4.93123,7.51426 8.68836,9.39282 3.99195,1.87856 8.21871,2.58303 12.91513,2.58303 l 52.13015,0 c 6.10534,0 11.97585,-1.17411 16.43744,-4.93124 2.34821,-1.87856 3.99195,-4.22677 5.16605,-7.04461 1.1741,-2.58303 1.64375,-5.63569 1.64375,-8.45354 l 0,-33.57934 c 0,-3.28748 -0.70447,-6.80979 -2.11339,-9.62764 -1.40892,-3.05267 -3.75713,-5.63569 -6.34015,-7.74908 l -49.07749,-37.33646 0,-14.089232 16.67225,0 0,19.020462 c 0,1.87857 0.70446,3.99195 2.11339,5.40087 1.40892,1.40893 3.28749,2.11339 5.40087,2.11339 l 25.83026,0 c 1.87856,0 3.99195,-0.70446 5.40087,-2.11339 1.40892,-1.40892 2.11339,-3.28748 2.11339,-5.40087 l 0,-31.46595 c 0,-2.817846 -0.46965,-5.635693 -1.64375,-8.453539 -1.87856,-4.22677 -5.16605,-7.514257 -8.92318,-9.392821 z" class="st0"/><path style="fill:#ffffff" inkscape:connector-curvature="0" id="path27" d="m 268.63468,213.68668 c -5.40087,0 -9.86246,-1.1741 -13.14995,-3.75713 l 0,0 c -3.05266,-2.58302 -4.69641,-6.57497 -4.69641,-11.27138 l 0,0 0,-35.4579 30.05703,0 0,28.6481 27.70882,0 0,-24.42133 -51.19087,-39.21503 c -4.22677,-3.28749 -6.57498,-7.74908 -6.57498,-12.91513 l 0,0 0,-31.23113 c 0,-4.696411 1.40893,-8.68836 4.69641,-11.271385 l 0,0 c 3.05267,-2.583026 7.51426,-3.757129 13.14995,-3.757129 l 0,0 52.36498,0 c 5.40087,0 9.86246,1.174103 13.14995,3.757129 l 0,0 c 3.28749,2.583025 4.69641,6.574974 4.69641,11.271385 l 0,0 0,33.34452 -30.05703,0 0,-26.534725 -27.70882,0 0,22.307955 51.19088,38.9802 c 4.22677,3.28749 6.57497,7.74908 6.57497,13.14995 l 0,0 0,33.57934 c 0,4.69641 -1.40892,8.68836 -4.69641,11.27138 l 0,0 c -3.28749,2.58303 -7.51426,3.75713 -13.14995,3.75713 l 0,0 -52.36498,0 0,-0.23482 z m 52.36498,-4.22677 c 4.93123,0 8.45354,-0.93928 10.56693,-2.81784 l 0,0 c 2.11338,-1.64375 3.05266,-4.22677 3.28748,-7.9839 l 0,0 0,-33.57934 c 0,-4.22677 -1.64374,-7.27943 -4.93123,-9.86246 l 0,0 -52.83462,-40.38913 0,-28.413285 35.92754,0 0,26.534725 21.83831,0 0,-29.352571 c 0,-3.757128 -1.1741,-6.340154 -3.28748,-7.983898 l 0,0 c -2.11339,-1.643744 -5.6357,-2.817846 -10.56693,-2.817846 l 0,0 -52.36498,0 c -4.93123,0 -8.45354,0.939282 -10.3321,2.817846 l 0,0 c -2.11338,1.643744 -3.05267,4.22677 -3.05267,8.218719 l 0,0 0,31.23113 c 0,3.99195 1.40893,7.04462 4.93123,9.62764 l 0,0 52.83462,40.38913 0,30.52667 -35.92754,0 0,-28.6481 -21.83831,0 0,31.46595 c 0,3.99195 1.17411,6.34015 3.05267,7.9839 l 0,0 c 2.11338,1.64374 5.40087,2.81784 10.3321,2.81784 l 0,0 52.36498,0 0,0.23482 z" class="st1"/></g><g id="g4311"><path style="fill:#db0d15" inkscape:connector-curvature="0" id="path23" d="m 439.81885,139.95304 c 1.40892,1.40892 3.28749,2.11338 5.40087,2.11338 l 25.83026,0 c 1.87856,0 3.99195,-0.70446 5.40087,-2.11338 1.40893,-1.40893 2.11339,-3.28749 2.11339,-5.40088 l 0,-32.87487 c 0,-2.817847 -0.46964,-5.870513 -1.64375,-8.453539 -1.64374,-3.991949 -4.93123,-7.514257 -8.92318,-9.392821 -3.99195,-1.878565 -8.21872,-2.583026 -12.91513,-2.583026 l -54.00872,0 c -6.10533,0 -11.74102,1.174102 -16.43743,4.931231 -2.34821,1.878564 -3.99195,4.226769 -4.93124,7.044616 -1.1741,2.583026 -1.40892,5.635692 -1.40892,8.453539 l 0,114.82724 c 0,2.81785 0.46964,5.63569 1.40892,8.45354 1.64375,3.99195 4.69641,7.51425 8.68836,9.39282 3.75713,1.87856 8.21872,2.58303 12.68031,2.58303 l 54.00872,0 c 6.34016,0 11.97585,-1.17411 16.67226,-4.93124 2.34821,-1.87856 3.99195,-4.22677 5.16605,-7.04461 1.17411,-2.81785 1.64375,-5.63569 1.64375,-8.45354 l 0,-34.75344 c 0,-1.87856 -0.70446,-3.99195 -2.11339,-5.40087 -1.40892,-1.40892 -3.28749,-2.11339 -5.40087,-2.11339 l -25.83026,0 c -1.87856,0 -3.99195,0.70447 -5.40087,2.11339 -1.40892,1.40892 -2.11339,3.28749 -2.11339,5.40087 l 0,22.07313 -18.55082,0 0,-89.2318 18.55082,0 0,20.19456 c -0.23482,1.87857 0.70447,3.75713 2.11339,5.16606 z" class="st0"/><path style="fill:#ffffff" inkscape:connector-curvature="0" id="path29" d="m 400.83864,231.53304 c -5.40087,0 -9.86246,-1.1741 -12.91513,-3.75713 l 0,0 c -3.05266,-2.58302 -4.69641,-6.57497 -4.69641,-11.27138 l 0,0 0,-114.82724 c 0,-4.696411 1.40893,-8.68836 4.69641,-11.271386 l 0,0 c 3.05267,-2.583025 7.51426,-3.757128 12.91513,-3.757128 l 0,0 54.24354,0 c 5.6357,0 10.09729,1.174103 13.14995,3.757128 l 0,0 c 3.28749,2.583026 4.69641,6.574975 4.69641,11.271386 l 0,0 0,34.98826 -30.05702,0 0,-27.70882 -29.58739,0 0,100.26836 29.58739,0 0,-29.58738 30.05702,0 0,36.86682 c 0,4.69641 -1.40892,8.68836 -4.69641,11.27138 l 0,0 c -3.28748,2.58303 -7.74907,3.75713 -13.14995,3.75713 l 0,0 -54.24354,0 0,0 z m 54.00872,-4.22677 c 4.93123,0 8.45354,-0.93928 10.56693,-2.81784 l 0,0 c 2.11338,-1.64375 3.28748,-4.22677 3.28748,-7.9839 l 0,0 0,-32.64005 -21.8383,0 0,29.58738 -37.80611,0 0,-108.48708 37.80611,0 0,27.70882 21.8383,0 0,-30.76149 c 0,-3.991949 -1.1741,-6.340154 -3.28748,-8.218718 l 0,0 c -2.11339,-1.643744 -5.6357,-2.817847 -10.56693,-2.817847 l 0,0 -54.24354,0 c -4.93123,0 -8.21872,0.939283 -10.3321,2.817847 l 0,0 c -2.11339,1.643743 -3.05267,4.226769 -3.05267,8.218718 l 0,0 0,114.82724 c 0,3.99195 1.1741,6.34015 3.05267,7.9839 l 0,0 c 2.11338,1.64374 5.40087,2.81784 10.3321,2.81784 l 0,0 54.24354,0 0,-0.23482 z" class="st1"/></g></g><g id="g4291"><path class="st1" d="m 185.03857,43.206978 c 0.23483,1.408923 -0.70446,2.113385 -2.58302,2.348205 -3.99195,0.704462 -5.87051,0.939282 -9.86246,1.643744 -1.87857,0.23482 -2.81785,-0.234821 -3.05267,-1.408923 -1.40892,-7.044616 -2.11339,-10.566924 -3.28749,-17.61154 -0.23482,-1.408923 0.46964,-2.113385 2.58303,-2.583026 3.99195,-0.704462 6.10533,-1.174103 10.09728,-1.878564 1.87857,-0.234821 3.05267,0.23482 3.28749,1.408923 0.23482,2.113385 0.46964,3.052667 0.93928,5.166052 -1.87856,0.23482 -2.81785,0.469641 -4.69641,0.704461 -0.23482,-1.643743 -0.46964,-2.583026 -0.70446,-4.226769 -2.58303,0.469641 -3.75713,0.704461 -6.34016,1.174102 1.17411,6.340155 1.64375,9.627642 2.81785,15.967796 2.34821,-0.469641 3.75713,-0.704461 6.10533,-1.174102 -0.23482,-1.878564 -0.46964,-2.817847 -0.70446,-4.46159 1.87857,-0.234821 2.81785,-0.469641 4.69641,-0.704462 0.23482,2.583026 0.46964,3.522308 0.70446,5.635693" id="path31" inkscape:connector-curvature="0" style="fill:#ffffff"/><path class="st1" d="m 204.05904,35.4579 c -1.40893,-3.757128 -2.11339,-5.635692 -3.75713,-9.392821 -0.46964,3.991949 -0.70446,6.105334 -0.93928,10.097283 1.87856,-0.469641 2.81784,-0.469641 4.69641,-0.704462 m 7.04461,6.105334 c -1.87856,0.234821 -2.81784,0.469641 -4.69641,0.704462 -0.70446,-1.643744 -0.93928,-2.348206 -1.40892,-3.991949 -2.34821,0.23482 -3.52231,0.469641 -5.87051,0.939282 -0.23482,1.643744 -0.23482,2.583026 -0.46964,4.226769 -1.87857,0.234821 -2.81785,0.469641 -4.69642,0.704462 0,0 0,0 0,0 1.17411,-8.92318 1.64375,-13.619591 3.05267,-22.542771 2.11339,-0.23482 3.05267,-0.469641 5.16605,-0.704462 3.75713,7.983898 5.40088,12.210668 8.92318,20.664207" id="path33" inkscape:connector-curvature="0" style="fill:#ffffff"/><path class="st1" d="m 235.99463,38.745388 c -1.64374,0.23482 -2.58303,0.23482 -4.22677,0.469641 -3.52231,-5.166052 -5.40087,-7.749078 -8.92318,-12.915129 0.23482,0.704461 0.46964,1.174102 0.46964,1.643743 0.46964,4.931231 0.70446,7.279437 1.1741,12.210668 -1.87856,0.23482 -2.81784,0.23482 -4.69641,0.469641 -0.93928,-8.68836 -1.40892,-13.14995 -2.3482,-21.838309 1.64374,-0.234821 2.58302,-0.234821 4.22677,-0.469641 3.75713,4.931231 5.40087,7.514257 9.158,12.680308 -0.23482,-0.704461 -0.46964,-1.174102 -0.46964,-1.643743 -0.46964,-4.696411 -0.70446,-7.044616 -1.17411,-11.741027 1.87857,-0.23482 2.81785,-0.23482 4.69641,-0.469641 0.93929,8.68836 1.40893,12.915129 2.11339,21.603489" id="path35" inkscape:connector-curvature="0" style="fill:#ffffff"/><path class="st1" d="m 262.05971,37.101644 c -1.64375,0 -2.58303,0 -4.22677,0.234821 -3.28749,-5.400873 -4.93123,-7.983898 -8.45354,-13.384771 0.23482,0.704462 0.46964,1.174103 0.46964,1.643744 0.23482,4.931231 0.46964,7.279436 0.70446,12.210668 -1.87856,0.23482 -2.81784,0.23482 -4.69641,0.23482 -0.70446,-8.688359 -0.93928,-13.14995 -1.64374,-21.838309 1.64374,-0.234821 2.58302,-0.234821 4.22677,-0.234821 3.52231,5.166052 5.16605,7.749078 8.45354,12.915129 -0.23482,-0.704461 -0.46964,-1.174102 -0.46964,-1.643743 -0.23482,-4.696411 -0.46965,-7.044616 -0.70447,-11.975847 1.87857,0 2.81785,-0.234821 4.69641,-0.234821 0.93929,8.92318 1.17411,13.38477 1.64375,22.07313" id="path37" inkscape:connector-curvature="0" style="fill:#ffffff"/><path class="st1" d="m 285.07212,36.397182 c -5.16605,0 -7.9839,0.234821 -13.14995,0.234821 -0.23482,-8.68836 -0.46964,-13.14995 -0.70446,-21.838309 5.40087,-0.234821 7.9839,-0.234821 13.38477,-0.234821 0,1.174103 0,1.643744 0,2.817847 -3.28749,0 -5.16605,0 -8.45354,0.23482 0,2.583026 0,3.757129 0.23482,6.340154 2.81785,0 4.46159,0 7.27944,-0.23482 0,1.174102 0,1.643744 0,2.817846 -2.81785,0 -4.22677,0 -7.27944,0.234821 0,2.817846 0,4.226769 0.23482,6.809795 3.28749,0 5.16605,0 8.45354,-0.23482 0,1.408923 0,1.878564 0,3.052666" id="path39" inkscape:connector-curvature="0" style="fill:#ffffff"/><path class="st1" d="m 309.72828,34.518618 c 0,1.408923 -0.93929,1.878564 -2.81785,1.878564 -3.75713,0 -5.63569,0 -9.62764,-0.23482 -1.87857,0 -2.81785,-0.704462 -2.81785,-2.113385 0,-2.113385 0,-3.052667 0,-5.166052 1.87857,0 2.81785,0 4.69641,0 0,1.878565 0,2.583026 0,4.461591 2.34821,0 3.52231,0 5.87052,0 0,-1.643744 0,-2.583026 0,-4.22677 -3.75713,-2.583026 -5.6357,-3.757128 -9.62765,-6.340154 -0.70446,-0.469641 -0.93928,-1.174103 -0.93928,-1.878565 0,-1.878564 0,-2.817846 0,-4.931231 0,-1.408923 0.93928,-2.113384 3.05267,-1.878564 3.99195,0 5.87051,0 9.86246,0.234821 1.87856,0 3.05267,0.704461 2.81785,2.113384 0,1.878565 0,2.817847 -0.23482,4.931232 -1.87857,0 -2.81785,0 -4.93123,0 0,-1.643744 0,-2.583026 0,-4.22677 -2.34821,0 -3.52231,0 -5.87052,0 0,1.643744 0,2.348205 0,3.991949 3.75713,2.583026 5.87052,3.757128 9.62764,6.340154 0.70447,0.469641 0.93929,1.174103 0.93929,1.878565 0.23482,2.113384 0,3.052666 0,5.166051" id="path41" inkscape:connector-curvature="0" style="fill:#ffffff"/><path class="st1" d="m 340.02012,38.040926 c -1.87856,-0.23482 -2.81784,-0.23482 -4.69641,-0.23482 0.46964,-6.105334 0.70447,-9.158001 0.93929,-15.498155 -0.70447,0 -1.17411,0 -1.87857,-0.234821 0,-0.23482 0,-0.23482 0,-0.469641 1.1741,-2.348205 1.64375,-3.522308 2.81785,-5.870513 1.64374,0 2.58302,0.23482 4.22677,0.23482 -0.46964,8.92318 -0.70446,13.384771 -1.40893,22.07313" id="path43" inkscape:connector-curvature="0" style="fill:#ffffff"/><path class="st1" d="m 362.09325,27.708823 c 0.23482,-2.817847 0.46965,-4.22677 0.70447,-6.809796 -2.58303,-0.23482 -3.75713,-0.469641 -6.10534,-0.704461 -0.23482,2.817846 -0.46964,4.226769 -0.70446,6.809795 2.34821,0.469641 3.75713,0.469641 6.10533,0.704462 m 3.75713,10.801744 c -0.23482,1.408923 -1.1741,1.878564 -3.05266,1.643744 -3.75713,-0.469641 -5.6357,-0.704462 -9.39283,-0.939282 -1.87856,-0.234821 -2.81784,-0.939282 -2.58302,-2.348205 0.23482,-1.878565 0.23482,-2.817847 0.46964,-4.696411 1.87856,0.23482 2.81785,0.23482 4.69641,0.469641 -0.23482,1.408923 -0.23482,2.348205 -0.46964,3.757128 2.3482,0.234821 3.52231,0.234821 5.87051,0.704462 0.23482,-2.583026 0.46964,-3.991949 0.70446,-6.574975 -3.28748,-0.23482 -4.69641,-0.469641 -7.98389,-0.704461 -1.87857,-0.234821 -2.81785,-0.939283 -2.58303,-2.113385 0.23482,-3.287488 0.46964,-5.166052 0.70446,-8.453539 0,-1.408923 1.1741,-1.878564 3.05267,-1.643744 3.99195,0.469641 5.87051,0.469641 9.86246,0.939282 1.87857,0.234821 2.81785,0.939282 2.81785,2.348205 -0.93928,6.809796 -1.40893,10.332104 -2.11339,17.61154" id="path45" inkscape:connector-curvature="0" style="fill:#ffffff"/><path class="st1" d="m 386.74941,40.389131 c 0.93928,-6.340154 1.40892,-9.627641 2.34821,-16.202616 -2.58303,-0.469641 -3.75713,-0.469641 -6.34016,-0.939282 -0.93928,6.340154 -1.40892,9.627641 -2.11338,16.202616 2.3482,0.234821 3.5223,0.469641 6.10533,0.939282 m 4.46159,1.408924 c -0.23482,1.408923 -1.1741,1.878564 -3.05267,1.643743 -3.99195,-0.469641 -5.87051,-0.939282 -9.86246,-1.408923 -1.87856,-0.23482 -2.81785,-0.939282 -2.58303,-2.348205 0.93929,-7.044616 1.40893,-10.566924 2.34821,-17.61154 0.23482,-1.408923 1.1741,-1.878564 3.28749,-1.643744 3.99195,0.469641 6.10533,0.704462 10.09728,1.408924 1.87856,0.23482 2.81785,1.174102 2.58303,2.348205 -1.17411,7.044616 -1.87857,10.566924 -2.81785,17.61154" id="path47" inkscape:connector-curvature="0" style="fill:#ffffff"/><path class="st1" d="m 418.45018,32.640054 c -0.23482,0.704462 -0.70446,1.408923 -1.40892,2.113385 -4.22677,3.522308 -6.34016,5.166051 -10.56693,8.688359 3.75713,0.704462 5.87052,0.939282 9.62765,1.878565 -0.23482,1.174102 -0.23482,1.643743 -0.46964,2.817846 -6.10534,-1.174103 -9.15801,-1.643744 -15.26334,-2.817846 0.23482,-0.704462 0.23482,-1.174103 0.23482,-1.878565 5.16605,-4.46159 7.74908,-6.574974 12.91513,-11.036565 0.23482,-1.643743 0.46964,-2.348205 0.70446,-3.991949 -2.3482,-0.469641 -3.52231,-0.704461 -5.87051,-0.939282 -0.23482,1.643744 -0.46964,2.348206 -0.70446,3.991949 -1.87857,-0.23482 -2.81785,-0.469641 -4.69641,-0.704461 0.23482,-1.878565 0.46964,-2.817847 0.70446,-4.696411 0.23482,-1.408923 1.40892,-1.878564 3.28749,-1.408923 3.75712,0.704462 5.63569,0.939282 9.39282,1.643744 1.87856,0.469641 2.81784,1.174102 2.58302,2.583025 0,1.174103 -0.23482,2.113385 -0.46964,3.757129" id="path49" inkscape:connector-curvature="0" style="fill:#ffffff"/></g><g id="g4326"><path class="st0" d="m 411.64039,270.51325 c 0.23482,-0.70446 0.23482,-1.40892 -0.23482,-2.11338 -0.46965,-0.46964 -1.17411,-0.93929 -1.87857,-0.93929 -2.81785,0.23482 -5.40087,0.70447 -8.21872,1.40893 3.75713,-5.16605 6.34016,-11.03657 7.9839,-16.90708 0.23482,-0.70446 0,-1.64374 -0.70446,-2.11339 -0.70446,-0.46964 -1.40892,-0.70446 -2.11339,-0.23482 -9.39282,4.69641 -17.37671,11.50621 -28.6481,16.20262 2.34821,-3.52231 4.22677,-6.8098 6.10533,-9.86246 0.46964,-0.70446 0.46964,-1.64375 0,-2.34821 -0.46964,-0.70446 -1.40892,-0.93928 -2.11338,-0.70446 -1.40892,0.46964 -2.81785,0.93928 -4.22677,1.64374 1.40892,-4.69641 2.3482,-9.62764 2.3482,-13.85441 0,-0.93928 0,-2.11338 -0.23482,-3.05266 0,-0.93929 -0.70446,-1.64375 -1.64374,-1.87857 -0.93928,-0.23482 -1.87856,0.46964 -2.11338,1.17411 -3.99195,9.39282 -18.55083,23.24723 -33.34452,36.86682 -4.46159,4.22677 -9.158,8.45354 -13.38477,12.68031 0,0 0,0 0,0 -0.93928,-3.75713 -3.05267,-7.04462 -5.63569,-10.33211 3.05266,0.93929 5.63569,1.40893 7.27943,1.40893 0.70447,0 1.40893,-0.46964 1.87857,-1.17411 0.46964,-0.70446 0.23482,-1.40892 -0.23482,-2.11338 -2.81785,-4.22677 -7.27944,-10.80175 -14.55888,-15.02851 0.70447,-0.23483 1.40893,-0.23483 2.11339,-0.46965 0.46964,0 1.1741,-0.46964 1.40892,-0.93928 0.23482,-0.46964 0.46964,-1.1741 0.23482,-1.64374 -0.70446,-2.11339 -2.3482,-3.05267 -3.99195,-3.99195 -0.93928,-0.46964 -1.87856,-0.93928 -2.81784,-1.1741 2.81784,-4.69641 4.93123,-8.68836 5.87051,-13.61959 0.23482,-0.70447 -0.23482,-1.64375 -0.70446,-2.11339 -0.70446,-0.46964 -1.40892,-0.46964 -2.11339,-0.23482 -5.16605,2.58303 -10.56692,5.16605 -16.20261,7.27944 -0.93928,-5.6357 -3.28749,-10.80175 -4.22677,-15.26334 -0.23482,-0.93928 -1.1741,-1.64374 -2.11339,-1.64374 -0.23482,0 -0.46964,0 -0.70446,0 0,0 0,0 0,0 0,0 0,0 0,0 -0.70446,0.23482 -1.1741,0.70446 -1.40892,1.64374 -1.1741,6.57498 -5.16605,13.14995 -5.40087,19.72493 0,0 0,0.23482 0,0.23482 -8.92318,2.58302 -17.37672,3.99195 -24.42134,3.99195 -4.22677,0 -7.74908,-0.46964 -10.80174,-1.64375 -0.70446,-0.23482 -1.40893,-0.23482 -2.11339,0.23482 -0.46964,0.46964 -0.93928,1.17411 -0.70446,1.87857 0.46964,3.05266 1.87857,6.10533 2.58303,8.68836 0,2.81784 0.23482,5.16605 0.46964,7.74908 -0.23482,0 -0.23482,0 -0.46964,0.23482 -5.6357,2.58302 -9.86247,3.75712 -14.08924,3.75712 -3.28748,0 -6.57497,-0.70446 -10.3321,-1.87856 -0.70446,-0.23482 -1.40892,0 -1.87856,0.46964 -0.46964,0.46964 -0.70446,1.1741 -0.70446,1.87857 0.46964,2.81784 2.11338,4.93123 3.75712,6.10533 0.70447,0.46964 1.40893,0.93928 2.34821,1.40892 -3.05267,1.87857 -5.63569,2.81785 -10.09728,3.28749 -0.70446,0 -1.40893,0.46964 -1.64375,1.1741 -0.23482,0.70446 -0.23482,1.40893 0.23482,2.11339 2.81785,3.99195 7.27944,5.40087 11.50621,5.40087 5.63569,0 11.27138,-2.34821 15.02851,-5.87051 2.11339,-2.34821 4.46159,-3.99195 7.04462,-5.40088 0,0.23482 0,0.70447 0,0.93929 0,2.3482 -0.23482,4.93123 -0.23482,7.27943 0,1.40893 0,2.58303 0.23482,3.75713 0.23482,0.46964 0.23482,1.1741 0.70446,1.64374 0.23482,0.46965 0.70446,0.70447 1.1741,1.17411 -2.81784,2.81784 -5.40087,6.57497 -7.98389,11.97584 -0.46965,0.93929 -0.23482,2.11339 0.70446,2.58303 0.46964,0.23482 0.70446,0.46964 1.1741,0.23482 -1.87856,3.28749 -3.52231,6.8098 -4.46159,10.56692 0,0 0,0.23482 0,0.23482 -7.74908,-1.87856 -15.49816,-4.22676 -23.24723,-5.87051 0.23482,-1.40892 0.23482,-3.05267 0.23482,-4.69641 0,-3.28749 -0.23482,-6.57497 -1.64375,-9.39282 -0.93928,-2.58303 -2.81784,-4.69641 -5.40087,-6.10533 0,-4.69641 -3.52231,-8.21872 -7.27943,-8.21872 -2.58303,0 -4.93124,1.64374 -5.87052,4.69641 -0.46964,0.93928 0.23482,2.11338 1.1741,2.58302 0.70447,0.23482 1.40893,0.70447 2.11339,1.40893 -0.46964,0.23482 -0.93928,0.46964 -1.1741,0.70446 -0.93929,0.46964 -1.64375,1.1741 -2.34821,2.11338 -4.69641,0.46964 -8.68836,4.22677 -8.68836,8.92318 0,0.46964 0,0.93929 0,1.17411 0,0.70446 0.46964,1.1741 1.1741,1.40892 0.70447,0.23482 1.40893,0.23482 1.87857,0 1.1741,-0.70446 2.3482,-0.93928 3.52231,-0.93928 -0.46964,0.93928 -0.46964,2.11338 -0.46964,3.05266 0,1.40893 0.46964,3.05267 1.40892,4.22677 2.3482,2.81785 4.69641,5.87052 7.74908,8.21872 -1.17411,3.28749 -2.81785,6.8098 -2.81785,10.33211 0,0.70446 0,1.64374 0.23482,2.3482 -0.46964,0.70446 -1.1741,1.40892 -1.87856,1.87857 -1.17411,0.70446 -2.34821,1.1741 -3.05267,1.1741 -0.70446,0 -1.40892,0.46964 -1.87856,0.93928 -0.46965,0.70446 -0.46965,1.40892 0,2.11338 1.87856,3.52231 5.16605,5.40088 8.68835,5.40088 3.52231,0 7.04462,-2.11339 8.68836,-6.34016 2.34821,-0.23482 4.22677,-1.87856 5.40088,-3.52231 0.93928,-1.40892 1.40892,-2.81784 1.64374,-4.22676 0.93928,0.23482 1.87856,0.23482 2.58303,0.46964 -0.23482,0.23482 -0.46964,0.70446 -0.70447,0.93928 -0.70446,0.70446 -1.64374,1.64374 -2.81784,2.3482 -0.46964,0.23482 -0.93928,0.93929 -0.93928,1.40893 0,0.70446 0.23482,1.1741 0.70446,1.64374 1.87856,1.64374 3.99195,2.58303 6.10533,2.58303 2.34821,0 4.46159,-0.93929 6.10534,-2.34821 1.1741,-1.1741 1.87856,-2.58302 2.3482,-4.22677 2.81785,0.70446 5.63569,1.64375 8.68836,2.58303 0.46964,4.69641 1.87856,9.158 4.93123,13.38477 l -9.62764,6.10533 c -0.93928,-1.1741 -1.87856,-3.52231 -2.81785,-7.04461 -0.93928,-3.75713 -4.22677,-6.57498 -7.98389,-6.8098 -0.70447,0 -1.40893,0 -1.87857,0.23482 -1.87856,-1.87856 -4.46159,-3.05267 -6.80979,-3.05267 -2.34821,0 -4.46159,0.70447 -6.34016,2.34821 -1.64374,1.64374 -2.81784,3.99195 -2.81784,6.80979 0,0.70447 0,1.40893 0.23482,1.87857 0.23482,0.70446 0.70446,1.40892 1.40892,1.64374 0.70446,0.23482 1.64374,0 2.11338,-0.46964 0.93929,-0.93928 2.34821,-1.40892 3.28749,-1.40892 -2.81785,1.87856 -4.69641,5.40087 -4.69641,8.92318 0,1.40892 0.23482,2.81784 0.93928,4.22677 0.23482,0.70446 1.17411,1.40892 2.11339,1.1741 0.93928,0 1.64374,-0.70446 1.87856,-1.64374 0.23482,-0.46964 0.23482,-0.70447 0.23482,-0.70447 0,0 0.23482,-0.23482 0.93928,-0.23482 0.23482,1.17411 0.70447,2.11339 1.17411,2.81785 1.64374,2.11339 3.99195,3.05267 6.34015,3.52231 1.87857,0.46964 4.22677,0.46964 6.34016,0.46964 0.46964,1.64374 0.93928,3.28749 1.87856,4.93123 0.70446,1.64374 1.87856,3.05267 3.28749,4.22677 -0.23482,0.23482 -0.23482,0.23482 -0.46964,0.46964 -0.46965,0.23482 -1.17411,0.70446 -2.58303,0.93928 -0.70446,0 -1.1741,0.46964 -1.64374,1.17411 -0.23482,0.46964 -0.46964,1.1741 -0.46964,1.64374 0,1.87856 1.1741,3.28749 2.58302,3.99195 1.40892,0.93928 2.81785,1.40892 4.69641,1.40892 1.87857,0 3.99195,-0.70446 5.63569,-2.3482 1.64375,-1.64375 2.58303,-3.99195 2.58303,-7.27944 0,0 0,-0.23482 0,-0.23482 0.93928,-0.70446 1.64374,-1.40892 2.11339,-2.34821 0.23482,-0.46964 0.46964,-0.93928 0.46964,-1.40892 1.1741,1.1741 2.81784,1.87857 4.22677,1.87857 2.58302,0 4.46159,-1.40893 6.10533,-3.28749 0.70446,-0.93928 1.40892,-2.34821 1.87856,-3.52231 4.46159,4.22677 9.86247,6.57498 14.32406,9.39282 5.87051,3.75713 10.56692,7.9839 12.6803,17.37672 0.23483,0.93928 0.93929,1.64374 1.87857,1.64374 0.93928,0 1.64374,-0.46964 2.11338,-1.1741 0.93929,-1.87856 1.64375,-4.93123 1.87857,-7.9839 2.81784,3.52231 4.93123,9.158 6.10533,14.32406 0.23482,0.70446 0.70446,1.40892 1.64375,1.64374 0.70446,0.23482 1.64374,-0.23482 2.11338,-0.93928 0.93928,-1.40893 2.11338,-3.05267 2.81785,-4.93123 2.81784,4.46159 5.63569,10.09728 5.63569,13.14995 0,0.70446 0,1.1741 0,1.64374 0,3.75713 -1.1741,6.10533 -2.81785,11.27139 -0.23482,0.70446 0,1.64374 0.46964,2.11338 0.46965,0.46964 1.40893,0.70446 2.11339,0.46964 0.93928,-0.46964 1.87856,-0.93928 3.05267,-1.40892 -0.93929,4.22677 -2.34821,7.74908 -4.69641,10.80174 -2.58303,-3.28748 -5.6357,-7.51425 -9.15801,-10.80174 0.23482,0 0.46965,0.23482 0.70447,0.23482 0.93928,0.23482 1.87856,0 2.3482,-0.70446 0.46964,-0.70446 0.46964,-1.64375 0,-2.34821 -7.04461,-9.86246 -18.08118,-13.85441 -28.88292,-13.85441 -11.27139,0 -22.30795,4.22677 -28.17847,11.74103 -1.1741,-2.34821 -1.64374,-5.40088 -2.11338,-8.92318 0,-0.70446 -0.70446,-1.40893 -1.40893,-1.64375 -0.70446,-0.23482 -1.64374,0 -2.11338,0.70446 -3.52231,3.99195 -4.93123,9.86247 -4.93123,15.26334 0,1.64374 0.23482,3.28749 0.46964,4.69641 -1.1741,-1.1741 -2.58303,-2.34821 -3.99195,-3.75713 -0.46964,-0.46964 -1.40892,-0.70446 -2.11338,-0.46964 -0.70447,0.23482 -1.17411,0.70446 -1.40893,1.64374 -0.23482,1.64375 -0.46964,3.52231 -0.46964,5.40088 0,1.87856 0.23482,3.99195 0.93928,5.87051 -2.81784,-1.64374 -5.16605,-3.75713 -7.27943,-6.34015 -0.46964,-0.70447 -1.40893,-0.93929 -2.11339,-0.70447 -0.70446,0.23482 -1.40892,0.93929 -1.40892,1.64375 0,0.46964 0,0.93928 0,1.40892 0,5.16605 2.81785,10.80174 7.04462,15.73298 3.99194,4.69641 9.39282,8.45353 15.26333,9.86246 2.58303,3.99195 7.04462,7.04461 12.21067,9.62764 5.16605,2.34821 11.27138,3.99195 17.1419,4.22677 -0.46965,0.93928 -0.93929,2.11338 -0.93929,3.28749 0,0.70446 0.46964,1.40892 1.17411,1.87856 0.70446,0.46964 1.40892,0.23482 2.11338,0 1.64375,-1.1741 3.05267,-2.11338 3.99195,-2.81785 1.1741,-0.70446 1.87856,-0.93928 2.58303,-0.93928 3.5223,-0.23482 8.92318,-2.11338 14.55887,-4.46159 3.75713,-1.64374 7.51426,-3.28748 10.56692,-5.16605 -2.11338,7.27944 -7.74907,13.85441 -14.08923,20.42939 -7.51426,7.98389 -15.73297,15.96779 -18.316,26.76954 -0.23482,0.93928 0.23482,1.87856 0.93928,2.3482 0.70446,0.46964 1.87857,0.23482 2.34821,-0.23482 0.93928,-0.93928 1.87856,-1.87856 2.81784,-2.81784 -1.1741,3.28748 -1.87856,6.80979 -2.11338,10.3321 0,0.93928 0.46964,1.87856 1.40892,2.11338 0.93928,0.23482 1.87857,0 2.34821,-0.70446 0.23482,-0.23482 0.46964,-0.46964 0.46964,-0.70446 -0.70446,4.22677 -1.1741,8.45354 -1.1741,12.44549 0,5.63569 0.70446,11.03656 2.11338,16.67226 -2.3482,-2.81785 -4.69641,-5.6357 -7.04462,-7.9839 -0.70446,-0.70446 -1.64374,-0.70446 -2.58302,-0.23482 -0.70446,0.46964 -1.1741,1.40892 -0.93928,2.3482 6.34015,21.13385 12.68031,46.96411 16.67225,69.50688 0.23482,0.93928 0.93929,1.64374 2.11339,1.64374 0,0 0,0 0,0 0.93928,0 1.87856,-0.70446 2.11338,-1.64374 4.69641,-24.18651 9.86247,-49.31231 16.43744,-71.15062 0.23482,-0.93928 0,-1.87856 -0.93928,-2.34821 -0.70446,-0.46964 -1.87857,-0.23482 -2.58303,0.23482 -4.22677,4.46159 -7.9839,9.39283 -11.27138,15.02852 -1.40893,-4.46159 -2.11339,-9.158 -2.11339,-14.08923 0,-13.85441 5.16605,-28.88293 11.97585,-42.50252 1.1741,2.58303 2.3482,5.16605 3.52231,7.27944 0.46964,0.70446 1.40892,1.1741 2.3482,0.93928 0.93929,-0.23482 1.40893,-0.93928 1.64375,-1.87856 0.46964,-10.09729 1.1741,-17.37672 4.22677,-25.1258 2.3482,-6.57498 3.5223,-14.79369 3.5223,-21.60349 0,-1.87856 0,-3.52231 -0.23482,-4.93123 4.69641,-4.46159 9.158,-10.56693 11.97585,-18.55082 0,0.70446 0,1.64374 0,2.3482 0,0.93928 0.70446,1.64375 1.64374,1.87857 0.93929,0.23482 1.87857,-0.23482 2.34821,-0.93929 3.05267,-5.63569 3.99195,-13.85441 3.99195,-21.60348 0,-0.70447 0,-1.40893 0,-2.11339 1.1741,2.11339 2.11338,4.46159 3.28749,7.04462 0.46964,0.93928 1.1741,1.40892 2.11338,1.1741 0.93928,-0.23482 1.64374,-0.93928 1.64374,-1.87857 0.23483,-1.87856 0.23483,-3.99194 0.23483,-5.87051 0,-6.10533 -0.70447,-12.68031 -2.58303,-19.4901 0.23482,0.23482 0.46964,0.70446 0.70446,0.93928 0.46964,0.70446 1.40892,1.1741 2.11339,0.93928 0.93928,-0.23482 1.40892,-0.93928 1.64374,-1.87856 0,-0.93928 0,-1.64375 0,-2.58303 0,-15.02851 -10.09728,-36.632 -29.11775,-50.01677 0.46964,-0.46964 0.93929,-0.93928 1.40893,-1.1741 3.28748,-0.23482 6.57497,-0.23482 9.86246,-0.23482 5.40087,0 10.80174,0.23482 15.26333,0.70446 0.70447,0 1.64375,-0.23482 1.87857,-0.93928 0.46964,-0.70447 0.46964,-1.64375 0,-2.11339 -1.64375,-2.58303 -3.99195,-4.93123 -6.8098,-7.04462 1.40893,-0.23482 3.05267,-0.23482 4.69641,-0.23482 3.75713,0 8.21872,0 12.68031,-0.70446 8.68836,-1.40892 14.55887,-5.87051 23.24723,-8.45354 0.93929,-0.23482 1.40893,-1.1741 1.40893,-2.11338 0,-0.93928 -0.70446,-1.64375 -1.64375,-1.87857 -3.05266,-0.70446 -7.51425,-1.64374 -12.21066,-2.3482 11.74102,-3.99195 23.01241,-10.56692 32.87487,-20.66421 0.46964,-0.46964 0.70446,-1.40892 0.46964,-2.11338 -0.23482,-0.70446 -0.93928,-1.17411 -1.64374,-1.40893 -0.70446,-0.23482 -1.64375,-0.23482 -2.34821,-0.23482 -2.11338,0 -3.99195,0.46964 -6.10533,0.93929 5.63569,-4.46159 10.3321,-10.09729 13.14995,-15.9678 0.23482,-0.46964 0.23482,-1.1741 0,-1.64374 -0.23482,-0.46964 -0.70446,-0.93929 -1.40893,-1.17411 -0.93928,-0.23482 -1.87856,-0.23482 -2.81784,-0.23482 -1.40892,0 -2.58303,0.23482 -3.99195,0.23482 4.22677,-0.70446 9.158,-4.22677 11.74103,-10.09728 z M 252.66689,374.0691 c 0,0 0,0 0,0 0.23482,-0.23482 0.46964,-0.46964 0.70446,-0.46964 -0.23482,0.23482 -0.46964,0.23482 -0.70446,0.46964 z m 6.80979,-107.07816 c 1.17411,-0.46964 2.81785,-0.70446 4.93123,-0.70446 3.05267,0 4.93123,0.46964 6.34016,1.1741 0.70446,0.46965 1.1741,0.70447 1.87856,1.40893 -3.28749,-0.70446 -6.80979,-0.93928 -10.3321,-1.17411 -1.40892,0 -2.81785,0 -4.22677,0.23483 0.46964,-0.46965 0.93928,-0.70447 1.40892,-0.93929 z m 9.86246,13.61959 c -3.05266,0.93929 -5.87051,1.87857 -8.21871,2.58303 0,0 -0.23482,-0.23482 -0.23482,-0.23482 -0.70447,-0.70446 -1.40893,-1.87857 -2.58303,-3.05267 2.81785,-0.93928 5.63569,-1.1741 8.68836,-1.1741 1.87856,0 3.99195,0.23482 6.10533,0.46964 -1.1741,0.46964 -2.58302,0.93928 -3.75713,1.40892 z m 12.68031,181.28145 c -6.10533,0 -11.5062,-2.11338 -15.26333,-5.16605 -3.75713,-3.05267 -5.87051,-7.04461 -5.87051,-11.27138 0,0 0,-0.23482 0,-0.23482 l -2.11339,0 2.11339,0 c 0.23482,-7.51426 5.40087,-12.44549 13.38477,-12.44549 6.80979,0 15.73297,3.52231 25.12579,13.14995 -1.40892,0.23482 -2.58302,0.70446 -3.75713,1.87856 -0.46964,0.46964 -0.70446,0.93928 -0.70446,1.64374 0,0.70447 0.46964,1.17411 0.93928,1.40893 2.81785,1.87856 5.6357,2.58302 7.74908,3.28749 -7.74908,5.63569 -15.02851,7.74907 -21.60349,7.74907 z m 30.05703,-154.51191 c -0.23482,-1.64374 -0.46964,-3.28748 -1.1741,-4.69641 0.93928,0.46964 1.87856,0.93929 3.05267,1.17411 0,0 0.23482,0 0.23482,0 -0.70447,1.1741 -1.40893,2.3482 -2.11339,3.5223 z m 4.46159,-6.57497 c -0.46964,-4.46159 -0.70446,-8.92318 -2.58302,-13.38477 4.46159,1.1741 8.92318,1.64374 12.6803,2.11338 -3.75712,3.75713 -7.27943,7.51426 -10.09728,11.27139 z" id="path51" inkscape:connector-curvature="0" style="fill:#db0d15"/><path class="st1" d="m 410.93592,268.63469 0.70447,-1.64375 -1.87857,0.23482 c -3.52231,0.23482 -7.27943,0.93929 -10.80174,2.11339 4.69641,-5.63569 7.74907,-12.44549 9.62764,-19.02046 l 0.70446,-2.34821 -2.3482,1.1741 c -10.09729,4.93123 -18.78565,12.68031 -32.17042,17.61154 3.52231,-4.46159 5.6357,-8.45354 8.21872,-12.44549 l 1.64375,-2.3482 -2.81785,0.70446 c -2.11339,0.70446 -4.22677,1.64374 -6.34016,3.05267 2.11339,-5.16605 3.28749,-11.03657 3.28749,-16.20262 0,-0.93928 0,-1.87856 -0.23482,-2.81785 l -2.11338,-0.23482 c -4.22677,9.86247 -19.02047,23.71688 -33.81416,37.57129 -10.56692,9.86246 -20.89903,19.72492 -27.23918,28.41328 l -0.23482,-1.40892 c -0.70446,-5.63569 -0.70446,-10.80174 -3.75713,-16.20262 4.93123,1.87857 10.56692,2.34821 15.02851,2.81785 l 1.64375,0.23482 -0.23482,-1.64374 c -0.93929,-4.46159 -4.22677,-8.92318 -8.21872,-12.44549 4.46159,1.64374 8.45354,2.3482 10.56692,2.3482 l 2.11339,0 -1.17411,-1.87856 c -3.05266,-4.46159 -7.98389,-11.74103 -15.96779,-15.73298 0.93928,-0.70446 2.3482,-0.93928 3.99195,-1.1741 l 1.1741,-0.23482 -0.23482,-1.1741 c -0.46964,-1.64375 -1.87856,-2.58303 -3.52231,-3.52231 -1.1741,-0.70446 -2.3482,-1.1741 -3.75713,-1.40892 3.05267,-4.93123 5.6357,-9.39282 6.57498,-14.32406 l 0.46964,-2.3482 -2.11339,0.93928 c -5.63569,2.81785 -11.5062,5.40087 -17.61154,7.74908 -0.46964,-3.52231 -1.64374,-6.8098 -2.58302,-10.09728 -0.70446,-2.34821 -1.40892,-4.46159 -1.87857,-6.57498 l -1.64374,0 c -0.46964,3.05267 -1.64374,5.87051 -2.58303,8.68836 -1.40892,4.22677 -2.81784,8.21872 -2.58302,11.74103 -9.158,2.81784 -18.316,4.46159 -25.83026,4.46159 -4.22677,0 -7.9839,-0.46964 -11.27138,-1.64375 l -1.87857,-0.70446 0.23482,1.87857 c 0.46964,2.81784 1.87857,6.10533 2.81785,8.68836 0,3.05266 0.23482,5.63569 0.46964,8.68836 l 0.70446,0 c -0.46964,0.23482 -0.93928,0.23482 -1.40892,0.46964 -5.16605,2.3482 -9.158,3.5223 -13.14995,3.99195 -3.99195,0.23482 -7.74908,-0.46965 -12.44549,-2.11339 l -1.40892,-0.46964 0.23482,1.40892 c 0.70446,4.46159 3.99195,6.10534 7.04461,7.74908 0,0 0,0 0,0 -1.64374,1.40892 -3.28748,2.34821 -5.16605,3.05267 -2.11338,0.93928 -4.46159,1.40892 -7.27944,1.64374 l -1.64374,0.23482 0.93928,1.1741 c 0.46964,0.46965 0.70446,0.93929 1.17411,1.40893 l 0,0 c 2.58302,2.58302 6.57497,3.75713 10.56692,3.52231 3.99195,-0.23483 7.9839,-1.64375 11.03656,-3.75713 0.70447,-0.46964 1.64375,-1.17411 2.34821,-1.87857 l 0,0 c 2.58303,-2.81784 5.63569,-4.69641 8.68836,-6.34015 l 0,0.23482 c 0,0.70446 0,1.64374 0,2.3482 0,2.34821 -0.23482,5.16606 -0.23482,7.27944 0,1.40892 0,2.58303 0.23482,3.52231 0,0.46964 0.23482,0.93928 0.46964,1.40892 0.23482,0.46964 0.70446,0.93928 1.40892,0.93928 l 0,0 0,0 c 0.23482,0 0.70447,0 0.93929,-0.23482 -3.28749,2.81785 -6.34016,7.04462 -9.39283,13.38477 l 1.87857,1.17411 c 0.93928,-1.17411 2.11338,-2.11339 3.28749,-3.05267 -3.28749,4.46159 -6.34016,9.86246 -7.51426,15.26333 l 2.11338,0.93929 c 0.93929,-1.40893 1.87857,-2.34821 3.05267,-3.52231 -0.70446,1.40892 -1.40892,3.05266 -2.11338,4.93123 -4.46159,-0.93928 -8.92318,-2.34821 -13.38477,-3.52231 -5.16606,-1.40892 -10.33211,-2.81785 -15.26334,-3.99195 0.46964,-3.75713 0.46964,-7.9839 -0.23482,-11.74102 -0.70446,-3.99195 -2.58302,-7.27944 -6.57497,-8.92318 0.23482,-2.58303 -0.70447,-4.69642 -2.11339,-6.10534 -0.70446,-0.70446 -1.40892,-1.1741 -2.3482,-1.40892 -0.93929,-0.23482 -1.87857,-0.23482 -2.58303,0 -1.64374,0.46964 -3.05267,1.64374 -3.75713,3.75713 l -0.23482,0.70446 0.70446,0.23482 c 0.93928,0.46964 2.11339,1.1741 2.81785,1.87856 0.23482,0.46964 0.70446,0.70446 0.70446,1.17411 -0.93928,0.23482 -1.87856,0.70446 -2.81785,1.1741 -0.70446,0.46964 -1.40892,1.1741 -1.87856,2.11338 -0.46964,0 -0.93928,0 -1.1741,0 -1.87857,0.23482 -3.52231,1.17411 -4.69641,2.58303 -1.17411,1.1741 -2.11339,2.81785 -2.34821,4.69641 0,0.46964 0,1.1741 0,1.64374 l 0.23482,1.17411 1.1741,-0.70447 c 1.17411,-0.70446 2.58303,-0.93928 3.99195,-1.1741 0.93929,0 1.64375,0 2.34821,0 -0.46964,0.70446 -0.93928,1.40893 -1.1741,2.34821 -0.23482,1.1741 -0.23482,2.3482 0,3.52231 0.23482,0.70446 0.46964,1.1741 0.93928,1.87856 l 0,0 c 1.40892,1.64374 2.58302,3.28749 3.99195,4.93123 1.40892,1.40892 2.58302,2.81785 4.22677,3.99195 0,0.23482 0,0.23482 -0.23482,0.46964 -1.64375,4.22677 -3.75713,9.39282 -2.34821,12.91513 -0.46964,0.93928 -1.40892,2.11338 -2.58302,2.81785 -1.17411,0.93928 -2.58303,1.40892 -3.75713,1.40892 l -1.40893,0 0.70447,1.1741 c 1.1741,2.34821 3.05266,3.75713 5.16605,4.46159 0.93928,0.23482 2.11338,0.46964 3.05266,0.23482 0.93929,0 2.11339,-0.46964 3.05267,-0.93928 1.87857,-0.93928 3.52231,-2.81785 4.46159,-5.40087 0.23482,0 0.23482,0 0.46964,0 1.64375,0 3.28749,-0.93928 4.22677,-2.34821 0.93928,-1.1741 1.64375,-2.81784 2.11339,-4.46159 0,-0.46964 0.23482,-0.70446 0.23482,-1.1741 1.1741,0.23482 2.3482,0.46964 3.5223,0.70446 0.46965,0 1.17411,0.23482 1.64375,0.23482 0,0.93928 -0.46964,1.87857 -1.1741,2.58303 -0.93929,0.93928 -2.11339,1.87856 -3.05267,2.58302 l -1.40892,2.11339 0.70446,0.70446 c 1.64374,1.64374 3.52231,2.34821 5.63569,2.34821 0.93928,0 1.87856,-0.23482 2.81785,-0.70447 0.93928,-0.46964 1.64374,-0.93928 2.3482,-1.64374 1.1741,-1.1741 1.87857,-2.81785 2.11339,-4.69641 3.5223,0.70446 7.04461,1.87856 10.56692,3.05267 0.23482,5.16605 1.87856,10.09728 5.63569,14.55887 l -11.27138,7.04462 c -1.17411,-1.17411 -2.58303,-3.75713 -3.52231,-8.21872 -0.93928,-3.52231 -3.99195,-6.10534 -7.04462,-6.10534 -0.70446,0 -1.40892,0.23482 -2.11338,0.46964 -1.64374,-2.11338 -4.22677,-3.05266 -6.8098,-3.05266 -2.11338,0 -3.99195,0.70446 -5.63569,2.11338 -1.64374,1.40893 -2.58302,3.52231 -2.58302,6.10534 0,0.46964 0,1.1741 0.23482,1.87856 l 0.46964,2.11338 1.64374,-1.64374 c 1.1741,-1.1741 2.81785,-1.87856 3.99195,-1.64374 0.93928,0 1.64374,0.23482 2.3482,0.70446 -3.5223,1.40892 -6.10533,5.16605 -6.10533,9.158 0,1.1741 0.23482,2.58303 0.70446,3.75713 l 1.40893,3.28749 0.93928,-3.28749 c 0.46964,-1.40893 0.70446,-1.40893 1.40892,-1.64375 0.46964,-0.23482 0.93928,-0.23482 1.64374,-0.46964 0.46965,3.05267 2.34821,5.16606 4.93124,6.10534 2.58302,0.93928 5.87051,0.93928 9.158,1.1741 0.93928,3.28749 2.3482,7.74908 5.87051,9.86246 -0.93928,1.64375 -1.64374,2.11339 -4.22677,2.58303 l -0.70446,0 -0.23482,0.46964 c -0.23482,0.46964 -0.23482,0.93928 -0.23482,1.40892 0.23482,3.05267 3.28748,4.46159 6.10533,4.46159 1.64374,0 3.52231,-0.46964 4.93123,-2.11338 1.40893,-1.40893 2.34821,-3.75713 2.34821,-6.57498 0,-0.23482 0,-0.46964 0,-0.70446 1.87856,-0.93928 3.05266,-3.28749 3.05266,-5.16605 1.17411,1.87856 3.05267,3.05267 4.93124,3.05267 3.75712,-0.23482 6.80979,-3.75713 7.51425,-7.74908 4.69641,4.69641 10.33211,7.27944 15.49816,10.56692 5.87051,3.75713 11.03656,8.21872 13.14995,18.08118 l 0.70446,3.52231 1.40892,-3.05267 c 0.93928,-2.11338 1.64375,-5.87051 1.87857,-9.39282 0,-0.23482 0,-0.46964 0,-0.70446 3.75712,3.75713 6.57497,10.33211 7.98389,16.67226 l 0.46965,2.3482 1.40892,-2.11338 c 1.1741,-1.87856 2.58302,-3.99195 3.28749,-6.57497 3.05266,4.69641 6.80979,11.5062 7.04461,15.26333 0,0.70446 0,1.1741 0,1.64374 0,3.99195 -1.1741,6.57498 -2.81784,11.74103 l -0.70447,2.3482 2.11339,-0.93928 c 1.40892,-0.46964 3.28749,-1.40892 4.93123,-2.58302 -1.1741,5.63569 -2.58303,10.3321 -6.10533,14.32405 -3.28749,-4.46159 -7.74908,-10.56692 -12.68031,-13.85441 1.87856,0.23482 3.52231,0.46964 4.46159,0.93928 l 3.52231,1.1741 -2.11339,-3.05266 c -6.80979,-9.62765 -17.84636,-13.61959 -28.41328,-13.61959 -11.74103,0 -23.24724,4.69641 -28.64811,12.44548 -1.64374,-2.81784 -2.3482,-6.57497 -3.05266,-10.56692 l -0.23483,-2.34821 -2.58302,1.87857 c -3.28749,3.75713 -4.69641,9.39282 -4.69641,14.79369 0,2.58303 0.46964,5.16605 1.1741,7.04462 -2.11338,-1.40893 -3.99195,-3.28749 -6.34015,-5.40087 l -1.40893,-1.17411 -0.46964,1.87857 c -0.23482,1.64374 -0.46964,3.28748 -0.46964,5.16605 0,2.81785 0.46964,5.63569 1.87857,8.21872 -3.75713,-1.87857 -7.27944,-4.69641 -9.86247,-7.9839 l -1.64374,-2.11339 -0.23482,2.58303 c 0,0.46964 0,0.93928 0,1.1741 0.23482,9.62764 10.3321,22.30795 22.30795,25.1258 4.93123,7.74908 18.316,13.61959 30.05703,13.61959 0.23482,0 0.46964,0 0.70446,0 -0.93928,1.1741 -1.64375,2.81785 -1.87857,4.22677 l 0,2.11338 1.64375,-1.1741 c 3.28749,-2.11338 5.16605,-3.99195 7.04461,-3.99195 5.87052,-0.23482 19.49011,-6.10533 26.76954,-10.56692 -1.40892,8.68836 -7.98389,15.9678 -14.79369,23.24723 -7.51426,7.9839 -15.73297,15.9678 -18.08118,26.53472 l -0.93928,3.75713 2.81784,-2.81785 c 1.87857,-2.11338 3.75713,-3.75712 5.6357,-5.16605 -1.64375,4.22677 -2.81785,8.92318 -3.28749,13.38477 l -0.23482,4.22677 2.3482,-3.28749 c 0.93929,-1.40892 2.11339,-2.58302 3.05267,-3.75712 -1.40892,5.63569 -1.87856,10.80174 -1.87856,15.96779 0,7.04462 1.1741,13.85441 3.28748,20.89903 -3.05266,-4.22677 -6.57497,-8.45354 -9.86246,-11.50621 l -3.05266,-3.05266 1.1741,3.99195 c 6.34015,21.36866 12.68031,47.43374 16.67226,70.21133 l 2.3482,0 c 4.69641,-24.18651 9.86246,-49.54713 16.43744,-71.62026 l -1.87857,-1.1741 c -4.69641,4.69641 -8.68836,10.3321 -12.21066,16.90708 -1.87857,-5.16605 -2.81785,-10.80175 -2.81785,-16.43744 0,-14.79369 5.87051,-30.76149 13.14995,-44.85072 1.40892,3.28749 2.81785,6.57497 4.22677,9.158 l 1.87856,3.28749 0.23482,-3.75713 c 0.46965,-10.09728 1.17411,-17.61154 4.22677,-25.59544 2.34821,-6.57497 3.28749,-14.55887 3.28749,-21.36867 0,-1.87856 0,-3.75713 -0.23482,-5.40087 5.63569,-5.40087 11.03657,-12.68031 13.38477,-23.24723 0.46964,2.11338 0.70446,4.46159 0.70446,7.27943 l 0,4.22677 2.11339,-3.5223 c 3.05266,-5.40088 3.99195,-13.61959 3.99195,-21.36867 0,-1.87857 0,-3.75713 -0.23482,-5.63569 1.87856,2.81784 3.5223,6.34015 5.16605,10.3321 l 2.11338,-0.46964 c 0.23482,-1.87857 0.23482,-3.99195 0.23482,-5.87052 0,-7.74907 -1.1741,-16.67225 -4.69641,-25.36061 1.40893,1.87856 3.05267,3.99195 4.46159,6.34015 l 1.87857,2.81785 0.23482,-3.28749 c 0,-0.70446 0,-1.64374 0,-2.58303 0,-15.02851 -10.33211,-36.86682 -29.82221,-50.25159 0.70446,-0.93928 1.64374,-1.64374 2.58303,-2.3482 3.28748,-0.23482 6.80979,-0.23482 10.3321,-0.23482 5.40087,0 10.80174,0.23482 15.49815,0.70446 l 2.34821,0.23482 -1.40892,-2.11339 c -1.87857,-3.05266 -5.16606,-5.87051 -8.45354,-8.21872 4.69641,-0.93928 12.44548,0 19.72492,-1.1741 8.45354,-1.40892 14.32405,-5.87051 23.24723,-8.45354 l 4.22677,-1.1741 -4.22677,-0.93928 c -4.22677,-0.93928 -10.3321,-2.11339 -16.43743,-2.81785 13.38477,-3.75713 26.06508,-10.80174 36.86682,-21.83831 l 1.40892,-1.64374 -2.11338,-0.46964 c -0.70446,-0.23482 -1.40893,-0.23482 -2.11339,-0.23482 -3.5223,0 -7.04461,1.1741 -10.56692,1.87856 7.27944,-4.46159 13.38477,-11.50621 16.67226,-18.316 l 0.70446,-1.1741 -1.40892,-0.23482 c -0.93929,-0.23482 -1.64375,-0.23482 -2.58303,-0.23482 -2.58303,0 -5.16605,0.70446 -7.74908,0.93928 4.69641,-3.28749 11.27139,-6.8098 14.32405,-13.85441 z m -152.86816,-4.22677 c 1.40892,-0.70446 3.28749,-0.93929 5.40087,-0.93929 6.57498,0 8.45354,1.87857 10.80175,4.93124 0,0 0.23482,0.23482 0.23482,0.23482 -3.52231,-0.70446 -7.51426,-1.40893 -11.50621,-1.64375 -2.81785,0 -5.40087,0 -7.74908,0.46964 0.70446,-1.40892 1.64375,-2.3482 2.81785,-3.05266 z m 11.97585,15.02851 c -3.75713,1.40892 -7.51426,2.34821 -10.09729,3.28749 0,0 -0.23482,-0.23482 -0.46964,-0.46964 -0.93928,-1.17411 -2.3482,-3.28749 -4.46159,-4.46159 1.40893,-0.46964 2.58303,-0.93928 3.99195,-1.17411 5.16605,-1.1741 10.56693,-0.93928 16.20262,0.46965 -1.40893,0.70446 -3.28749,1.64374 -5.16605,2.3482 z m 11.27138,183.16001 c -6.57497,0 -11.97585,-2.11338 -15.96779,-5.40087 -3.99195,-3.28749 -6.34016,-7.51425 -6.34016,-12.21067 0,0 0,-0.23482 0,-0.23482 0.23482,-7.98389 5.87051,-13.38477 14.55887,-13.61959 7.51426,0 17.1419,4.22677 27.23919,14.7937 -1.87857,0.23482 -3.75713,0.70446 -5.16606,1.87856 l -0.93928,0.93928 1.1741,0.70446 c 3.05267,2.11339 6.57498,2.58303 8.92318,3.99195 -8.21871,6.8098 -16.43743,9.158 -23.48205,9.158 z" id="path53" inkscape:connector-curvature="0" style="fill:#ffffff"/><path class="st0" d="m 203.5894,291.6471 c 0.46964,-1.1741 1.40892,-1.64375 2.11338,-1.87857 0.46964,-0.23482 1.1741,0 1.64374,0 0.70447,0.23482 1.17411,0.46965 1.64375,0.93929 0.93928,0.93928 1.64374,2.58302 1.64374,4.46159 -0.93928,0 -2.11338,0.23482 -2.81784,0.23482 -0.23482,0 -0.46965,0 -0.46965,0 -0.23482,-0.70446 -0.70446,-1.40893 -1.1741,-2.11339 -0.70446,-0.46964 -1.64374,-1.1741 -2.58302,-1.64374 z" id="path55" inkscape:connector-curvature="0" style="fill:#db0d15"/><path class="st0" d="m 197.48406,305.73633 c -1.1741,0.23482 -2.11338,0.46964 -3.28748,0.70446 0.23482,-1.1741 0.70446,-2.58302 1.87856,-3.52231 0.93928,-0.93928 2.3482,-1.64374 3.75713,-1.87856 0.46964,0 0.70446,0 1.1741,0 0.46964,0.46964 0.93928,0.93928 1.1741,1.40892 0.23482,0.70446 0.46964,1.40893 0.46964,2.11339 0,0.70446 0,1.1741 -0.23482,1.40892 -1.40892,-0.23482 -3.05266,-0.46964 -4.93123,-0.23482 z" id="path57" inkscape:connector-curvature="0" style="fill:#db0d15"/><path class="st0" d="m 208.75545,345.421 c -0.70446,0.46964 -1.40893,0.70446 -2.34821,0.70446 -0.70446,0 -1.64374,0 -2.3482,-0.23482 -1.40893,-0.46964 -2.58303,-1.40892 -3.52231,-2.58302 1.1741,-0.23483 2.3482,-0.93929 3.28749,-1.64375 1.40892,-0.93928 2.3482,-2.11338 3.05266,-3.52231 1.40893,-0.23482 2.81785,-0.23482 3.75713,0 0.46964,0.23482 0.93928,0.46964 1.40893,0.70447 0.23482,0.23482 0.46964,0.46964 0.46964,0.70446 0,0.23482 0,0.23482 0,0.46964 l 0,0 c -0.70446,3.05266 -2.11339,4.69641 -3.75713,5.40087 z" id="path59" inkscape:connector-curvature="0" style="fill:#db0d15"/><path class="st0" d="m 233.88124,334.61926 -1.1741,-0.23482 0,1.1741 c 0,1.87856 -0.70446,3.52231 -1.64374,4.46159 -0.46964,0.46964 -1.1741,0.93928 -1.87857,1.1741 -0.70446,0.23482 -1.40892,0.46964 -2.11338,0.46964 -1.1741,0 -2.34821,-0.23482 -3.52231,-0.93928 0.93928,-0.70446 1.87857,-1.40892 2.58303,-2.11339 1.1741,-1.1741 1.87856,-2.81784 1.64374,-4.46159 l 0,-0.70446 -0.70446,-0.23482 c -0.70446,-0.23482 -1.64374,-0.23482 -2.34821,-0.46964 -1.64374,-0.23482 -3.05266,-0.70446 -4.69641,-0.70446 l -0.93928,-0.23482 0,0.93928 c 0,0.46964 0,1.1741 -0.23482,1.87857 -0.23482,1.40892 -0.93928,2.81784 -1.64374,3.75712 -0.70446,0.93929 -1.87857,1.64375 -3.05267,1.64375 0,0 0,0 0,0 0,-0.23482 0,-0.23482 0,-0.46964 -0.23482,-0.70446 -0.46964,-1.40893 -1.1741,-1.87857 -0.46964,-0.46964 -1.1741,-0.93928 -2.11339,-1.1741 -1.1741,-0.46964 -2.58302,-0.46964 -4.22677,-0.23482 -0.70446,-2.81785 0.93929,-7.27944 2.34821,-11.03657 0.46964,0.46965 0.70446,0.93929 0.93928,1.40893 0.70446,0.93928 1.40892,1.87856 2.58303,2.81784 l 1.1741,-1.40892 c -0.93928,-0.70446 -1.64374,-1.64374 -2.11339,-2.58303 -0.46964,-0.70446 -0.93928,-1.40892 -1.87856,-2.11338 l 0,0 -0.46964,-0.46964 c -1.64374,-1.1741 -3.05267,-2.58303 -4.46159,-4.22677 -1.40892,-1.40892 -2.58303,-3.05267 -3.99195,-4.69641 l 0,0 c -0.23482,-0.23482 -0.46964,-0.70446 -0.46964,-1.1741 -0.23482,-0.93929 -0.23482,-1.87857 0,-2.58303 0.23482,-0.93928 0.70446,-1.64374 1.1741,-2.11338 0.23482,-0.23482 0.46964,-0.23482 0.93928,-0.46965 l 0,-0.23482 0.23482,0.23482 c 0.46965,-0.23482 0.70447,-0.46964 0.93929,-0.70446 0.46964,-0.70446 0.70446,-1.40892 0.46964,-2.58302 0,-0.93928 -0.23482,-1.87857 -0.70446,-2.81785 -0.23482,-0.70446 -0.70447,-1.40892 -1.40893,-1.87856 0.23482,-0.46964 0.70446,-0.93929 1.17411,-1.17411 0.93928,-0.70446 2.11338,-0.93928 2.81784,-1.1741 l 0,0 c 0.23482,0 0.93928,0 1.64375,-0.23482 1.1741,-0.23482 2.58302,-0.46964 3.28748,-0.23482 l 0,0 c 3.52231,1.1741 5.16605,4.22677 5.87052,7.74908 0.70446,3.75713 0.46964,8.21872 0,11.97584 l 0,0.70447 0.70446,0.23482 c 5.16605,1.1741 10.56692,2.58302 15.96779,3.99195 4.46159,1.1741 8.92318,2.3482 13.14995,3.28748 -1.1741,3.99195 -2.11338,8.21872 -2.11338,12.44549 -2.81785,-0.70446 -6.57498,-1.87856 -10.56693,-2.58302 z" id="path61" inkscape:connector-curvature="0" style="fill:#db0d15"/><path class="st0" d="m 243.27407,283.6632 0,0 c -0.46965,0.46964 -1.17411,1.1741 -1.87857,1.64374 -2.81784,1.87857 -6.57497,3.28749 -10.09728,3.52231 -3.52231,0.23482 -6.8098,-0.70446 -9.158,-3.05266 l 0,0 c 2.3482,-0.23483 4.22677,-0.93929 6.10533,-1.64375 2.34821,-0.93928 4.22677,-2.3482 6.57498,-4.22677 l 0.93928,-0.93928 -1.1741,-0.70446 c -0.23482,-0.23482 -0.70447,-0.46964 -1.17411,-0.70446 -2.3482,-1.17411 -4.69641,-2.34821 -5.87051,-4.93123 4.22677,1.1741 7.74908,1.87856 11.50621,1.64374 4.22677,-0.23482 8.45354,-1.64374 13.85441,-3.99195 l 0,0 c 2.58302,-1.1741 6.34015,-1.64374 10.09728,-1.40892 4.69641,0.23482 9.62764,1.1741 13.38477,2.11338 0.70446,0.93928 1.40892,2.11339 1.40892,2.81785 0,0.23482 0,0.46964 -0.23482,0.70446 0,0.23482 -0.23482,0.46964 -0.46964,0.93928 -6.34015,-1.64374 -12.44549,-2.11338 -18.316,-0.70446 -5.63569,1.40892 -11.03656,4.22677 -15.49815,8.92318 z" id="path63" inkscape:connector-curvature="0" style="fill:#db0d15"/><path class="st0" d="m 292.8212,235.75981 c 0.70446,-1.87856 1.40892,-3.75713 1.87856,-5.63569 0.23482,1.1741 0.70446,2.11338 1.1741,3.28749 1.17411,3.28748 2.11339,6.80979 2.58303,10.09728 -2.81785,0.93928 -5.40087,1.87856 -8.21872,2.81785 -0.23482,-3.28749 1.1741,-6.8098 2.58303,-10.56693 z" id="path65" inkscape:connector-curvature="0" style="fill:#db0d15"/><path class="st0" d="m 255.24991,370.07716 c -1.40892,0.70446 -3.28748,1.64374 -4.69641,2.58302 0.23482,0.70446 0.46964,1.40892 0.46964,2.11339 l 0.23482,-0.23482 c 2.81785,-1.40893 3.99195,-3.52231 3.99195,-4.46159 z" id="path67" inkscape:connector-curvature="0" style="fill:#db0d15"/><path class="st0" d="m 245.38745,380.8789 c -0.23482,0 -0.46964,-0.23482 -0.70446,-0.23482 -0.46964,0 -0.93928,0 -1.40892,0.23482 -0.23482,0 -0.70447,0.23482 -0.93929,0.46964 l -0.23482,0.70446 c -0.93928,2.81785 -2.81784,4.22677 -5.63569,4.69641 0,0.46964 0.23482,0.93929 0.93928,1.40893 0.70446,0.46964 1.87857,0.70446 2.81785,0.70446 2.3482,0 4.93123,-1.1741 4.93123,-6.34016 0.23482,-0.46964 0.23482,-0.93928 0.23482,-1.64374 l 0,0 z" id="path69" inkscape:connector-curvature="0" style="fill:#db0d15"/><path class="st0" d="m 312.3113,466.82321 c -0.46964,0.23482 -0.70446,0.46964 -1.1741,0.70447 -0.93928,10.80174 -8.21872,18.78564 -15.73298,26.76954 -6.57497,6.80979 -13.14995,13.38477 -16.20261,21.13384 1.64374,-1.64374 3.52231,-3.05266 5.87051,-3.99195 l 2.58303,-0.93928 -1.17411,2.58303 c -1.64374,3.52231 -3.05266,7.51426 -3.75712,11.74102 1.1741,-1.40892 2.58302,-2.58302 3.75712,-3.5223 l 2.58303,-1.87857 -0.93928,3.05267 c -1.87857,6.80979 -2.81785,13.14995 -2.81785,19.02046 0,9.158 2.11339,17.84636 5.16605,27.474 l -2.11338,0.93929 c -2.81785,-4.22677 -6.57498,-9.62765 -10.56693,-14.08924 5.40088,18.55083 10.56693,40.38914 14.32406,60.11406 3.99195,-20.66421 8.68836,-42.03287 14.08923,-61.28816 -3.52231,4.22677 -6.8098,9.158 -9.62764,14.7937 l -1.17411,2.11338 -0.93928,-2.11338 c -2.81784,-6.10534 -3.99195,-12.91513 -3.99195,-19.72493 0,-16.20262 6.57498,-33.34451 14.55888,-48.13821 -0.23483,-1.40892 -0.46965,-3.28749 -0.23483,-5.16605 0.23483,-2.58303 0.93929,-5.63569 1.64375,-7.51426 l 1.64374,0.70447 c -0.70446,1.87856 -1.1741,4.46159 -1.40892,7.04461 0,1.40892 -0.23482,2.58303 0,3.75713 l 0.46964,1.40892 c 0.93928,2.34821 2.11338,5.16605 3.28749,7.51426 0.46964,-8.21872 1.40892,-15.02851 4.22677,-22.07313 2.11338,-6.10533 3.28748,-14.08923 3.28748,-20.66421 0,-1.40892 0,-2.58302 -0.23482,-3.99195 -1.64374,1.40893 -3.75712,3.05267 -5.40087,4.22677 z" id="path71" inkscape:connector-curvature="0" style="fill:#db0d15"/><path class="st0" d="m 340.25494,282.4891 c 0.93929,-0.46964 1.87857,-1.1741 2.34821,-1.64375 l 0,0 c 3.99195,-2.58302 7.9839,-4.93123 12.68031,-7.04461 4.46159,-2.11339 9.39282,-3.99195 15.02851,-5.63569 l 0,0 c 4.22677,-4.22677 6.57498,-8.45354 9.158,-12.44549 -2.11338,1.1741 -4.22677,2.81784 -6.57497,5.16605 l -1.87857,-1.40892 c 3.05267,-5.16606 5.16606,-12.44549 5.40088,-18.78565 -6.10534,10.09729 -19.25529,22.07313 -32.17042,34.2838 -5.63569,5.16605 -11.27138,10.56692 -16.20261,15.73298 4.22677,-3.05267 8.68836,-5.87052 12.21066,-8.21872 z" id="path73" inkscape:connector-curvature="0" style="fill:#db0d15"/><path class="st0" d="m 310.66756,307.38007 c 0,0.23482 0,0.70447 0,0.93929 l 0,1.1741 -0.46964,0 c 0.23482,0.23482 0.46964,0.46964 0.46964,0.46964 1.1741,-2.58303 2.58302,-5.16605 4.69641,-7.74908 l -1.40892,-0.46964 c -2.11339,-0.70446 -3.75713,-1.64374 -5.40088,-2.58302 1.17411,2.3482 2.11339,5.16605 2.11339,8.21871 z" id="path75" inkscape:connector-curvature="0" style="fill:#db0d15"/><path class="st0" d="m 220.26165,362.32808 c 0.23482,-0.93928 0.93929,-1.64375 1.87857,-2.11339 0,0 0,-0.23482 0.23482,-0.23482 0.23482,-0.70446 0.46964,-1.64374 0.23482,-2.3482 0,-0.70446 -0.23482,-1.17411 -0.70446,-1.64375 -3.05267,0.46964 -5.63569,3.75713 -5.63569,7.27944 0,0.23482 0,0.46964 0,0.46964 0.46964,-0.46964 0.93928,-0.46964 1.40892,-0.70446 1.1741,-0.23482 2.11338,-0.23482 2.58302,-0.70446 l 0,0 z" id="path77" inkscape:connector-curvature="0" style="fill:#db0d15"/><path class="st0" d="m 221.9054,352.70044 c 0.23482,-0.46964 0.46964,-0.70447 0.93928,-1.17411 0.70446,-0.93928 1.64374,-1.87856 2.34821,-2.3482 -1.17411,-1.64375 -3.05267,-2.58303 -5.16606,-2.58303 -3.05266,0 -5.63569,1.87857 -5.87051,5.40087 1.1741,-0.70446 2.58303,-0.93928 3.75713,-0.93928 1.40892,0 2.81785,0.46964 3.99195,1.64375 z" id="path79" inkscape:connector-curvature="0" style="fill:#db0d15"/><path class="st0" d="m 395.43777,272.62664 0,0 c -1.64374,0.46964 -3.52231,0.93928 -5.40087,1.40892 -1.87857,0.46964 -3.52231,0.70446 -4.93123,0.70446 l 0,-1.87856 c 1.1741,0 2.81784,-0.23482 4.46159,-0.70447 1.64374,-0.23482 3.28748,-0.93928 4.69641,-1.40892 l 0,-0.23482 c 5.63569,-5.40087 9.158,-11.97585 11.5062,-18.78564 -9.86246,5.40087 -19.02046,13.38477 -34.28379,18.08118 l -0.23483,-0.23482 c -5.87051,1.64374 -10.80174,3.52231 -15.26333,5.63569 -4.46159,2.11339 -8.45354,4.46159 -12.44549,7.04462 l 0,0 c -0.93928,0.70446 -1.64374,0.93928 -2.3482,1.64374 -7.27944,4.69641 -16.90708,11.03657 -23.48206,18.55082 -2.81784,3.75713 -4.93123,7.04462 -5.87051,10.09729 l -0.70446,2.11338 -1.1741,-1.87856 c -2.11339,-3.28749 -6.10534,-4.69641 -10.80175,-7.04462 l 0.93928,-2.11338 c 2.81785,0.93928 6.10534,2.58302 8.45354,3.28748 0,-4.69641 -3.05266,-8.45354 -6.10533,-14.08923 l 1.87856,-1.1741 c 2.81785,3.99195 5.16606,5.63569 8.68836,7.27943 -0.70446,-6.34015 -0.93928,-11.5062 -5.87051,-16.90707 l 1.40892,-1.64375 c 4.46159,3.05267 11.03657,3.99195 16.90708,4.46159 -2.11338,-5.87051 -8.68836,-11.97584 -14.32405,-15.49815 l 1.1741,-1.87857 c 0,0 0,0 0,0 l 0,0 c 0,0 0,0 0,0 4.93123,3.05267 11.97585,5.16606 15.73298,5.87052 -3.28749,-4.69641 -7.9839,-10.56693 -15.02852,-13.61959 l -1.1741,-0.46964 0.70446,-1.17411 c 1.17411,-1.87856 3.05267,-2.58302 4.69641,-3.05266 -0.46964,-0.23482 -0.93928,-0.70447 -1.40892,-0.93929 -1.40892,-0.70446 -3.28749,-1.40892 -4.69641,-1.40892 l -1.87857,-0.23482 0.93929,-1.40892 c 3.05266,-4.69641 5.40087,-8.68836 6.57497,-12.68031 -17.37672,8.45354 -38.27574,15.26333 -54.00872,15.49815 -3.75713,0 -7.04462,-0.46964 -10.09728,-1.1741 0.46964,2.11339 1.64374,4.46159 2.3482,6.57498 l 0,0.23482 0,0.23482 c 0,1.64374 0,3.05266 0.23482,4.46159 0.70446,-0.70447 1.40893,-1.17411 2.11339,-1.64375 1.87856,-0.93928 4.22677,-1.1741 6.34015,-1.1741 7.04462,0 10.09728,2.58303 12.44549,5.87051 0.93928,1.40893 3.75713,3.75713 3.75713,6.8098 0,0.46964 0,1.1741 -0.23482,1.64374 -1.40892,2.81785 -4.93123,4.46159 -8.92318,5.87052 -3.75713,1.40892 -7.9839,2.58302 -10.09728,3.28748 -0.23483,0 -0.46965,0.23482 -0.70447,0.23482 -0.93928,0 -1.40892,-0.46964 -1.87856,-0.93928 -0.46964,-0.46964 -0.93928,-0.93928 -1.40892,-1.64374 -0.23482,-0.46964 -0.70447,-0.70446 -0.93929,-1.1741 0,2.3482 -0.23482,5.16605 -0.23482,7.27943 0,1.64375 0.23482,3.05267 0.23482,3.52231 1.17411,-0.23482 3.52231,-1.1741 6.34016,-2.34821 3.05267,-1.40892 6.80979,-3.05266 10.80174,-3.99194 l 0.23482,0.93928 c 2.34821,-0.93928 9.39282,-2.58303 16.43744,-2.81785 0.23482,-4.69641 4.93123,-8.68836 10.09728,-13.14995 -2.81784,4.93123 -6.34015,12.68031 -8.45354,14.08923 -7.51425,-0.46964 -15.26333,1.64375 -18.08118,2.11339 l 0.23482,0.70446 c -10.09728,4.22677 -15.49815,5.63569 -21.36866,15.26333 2.3482,-1.64374 4.93123,-3.05266 6.34015,-3.99195 l 1.40892,1.87857 c -3.99195,3.75713 -8.45354,9.62764 -11.27138,15.73297 1.40892,-1.40892 3.05266,-2.58302 4.22677,-3.75712 l 1.64374,1.40892 c -3.28749,5.63569 -7.51426,14.55887 -7.51426,23.48205 0,5.6357 1.64375,11.03657 5.87052,15.73298 1.1741,-1.64375 4.69641,-4.69641 7.27943,-7.27944 5.16606,-5.40087 9.62765,-13.61959 5.16606,-11.74102 0.23482,-9.39283 6.80979,-20.19457 19.95974,-20.42939 -8.45354,1.87856 -15.49815,10.09728 -14.32405,15.96779 3.52231,-0.70446 -1.87857,5.6357 -3.05267,7.9839 -1.1741,1.87857 -3.05267,5.40088 -7.04461,9.39282 -2.11339,2.11339 -5.6357,5.6357 -7.27944,6.8098 l 0.46964,0.46964 -14.79369,9.39282 -0.70447,-0.23482 c -2.3482,-1.40892 -3.99194,-4.93123 -5.16605,-10.09728 -0.46964,-2.58303 -3.05266,-4.46159 -4.93123,-4.22677 -0.70446,0 -1.1741,0.23482 -1.87856,0.70446 l -0.93928,0.93928 0,-0.23482 c -0.46965,0.46964 -1.17411,1.1741 -1.87857,1.87857 -0.46964,0.46964 -0.93928,1.1741 -1.1741,1.87856 0.93928,0.70446 1.40892,1.64374 1.64374,2.81785 0,0.70446 0,1.40892 0,2.11338 1.40893,-0.46964 3.05267,-0.46964 4.22677,-0.46964 l 0,1.87856 c -1.64374,0 -3.75713,0.23483 -5.16605,0.93929 -0.70446,0.23482 -1.1741,0.70446 -1.40892,1.1741 l 0,0.70446 c 0,0.23482 0,0.23482 0,0.46964 0,3.28749 1.1741,4.22677 3.52231,5.16605 2.3482,0.93929 5.63569,0.93929 9.158,0.93929 l 0.93928,0 0.23482,0.93928 c 0.70446,3.28749 2.58302,8.21872 5.16605,9.39282 0.46964,-0.46964 1.1741,-0.93928 1.87856,-1.1741 0.70447,-0.23482 1.40893,-0.23482 1.87857,-0.23482 0.70446,0 1.40892,0.23482 1.87856,0.46964 0,0 0.23482,0.23482 0.23482,0.23482 1.17411,-0.70446 1.87857,-2.34821 1.87857,-3.99195 0,-0.93928 -0.23482,-2.11339 -0.70446,-2.81785 l -0.46964,-0.93928 0.93928,-0.46964 c 1.87856,-0.93928 4.46159,-2.34821 6.34015,-3.52231 l 0.46964,-0.23482 0.46964,0.23482 c 1.17411,0.23482 1.87857,1.40892 1.87857,2.34821 0,1.87856 -1.40893,3.99195 -3.99195,5.87051 0.70446,0.93928 1.64374,1.1741 2.3482,1.1741 1.17411,0 2.58303,-0.70446 3.52231,-2.11338 0.93928,-1.40893 1.64375,-3.05267 1.64375,-4.69641 0,-0.46964 0,-0.93928 -0.23482,-1.64375 l 0.23482,-0.23482 c -0.46965,-1.1741 -0.93929,-2.11338 -1.40893,-2.81784 -0.23482,-0.23482 -0.23482,-0.46964 -0.46964,-0.70447 l -0.46964,-0.70446 0.70446,-0.46964 c 2.58303,-1.40892 9.158,-6.10533 14.7937,-10.3321 2.81784,-2.11339 5.16605,-3.75713 6.80979,-4.93123 1.40892,-0.93928 3.05267,-1.87857 5.16605,-2.34821 2.11339,-0.46964 4.93123,-0.70446 8.21872,-0.46964 l -0.23482,1.40892 c -3.28749,-0.23482 -5.87051,-0.23482 -7.74908,0.46965 -1.87856,0.46964 -3.5223,1.1741 -4.69641,2.11338 -1.64374,1.1741 -3.99195,3.05267 -6.80979,4.93123 -5.16605,3.75713 -11.03657,8.21872 -14.32406,10.09728 0,0 0,0 0,0 0.46965,0.70447 0.93929,1.64375 1.40893,2.81785 l 0.23482,-0.23482 c 4.22677,5.87051 10.80174,8.68836 17.1419,12.44549 5.40087,3.28749 10.3321,7.74908 13.14995,15.49815 0.23482,-1.40892 0.46964,-3.05266 0.46964,-4.46159 0,-1.1741 -0.23482,-2.3482 -0.46964,-3.05266 l -0.93929,-3.05267 2.58303,1.64374 c 5.16605,3.28749 8.45354,10.33211 10.56692,17.1419 0.93929,-1.87856 1.87857,-3.99195 1.87857,-6.10533 l 0.23482,-3.05267 1.87856,2.34821 c 3.52231,4.69641 8.68836,12.91513 8.92318,18.78564 0,0.70446 0,1.1741 0,1.87856 0,3.75713 -0.93928,6.34016 -2.11338,9.86247 1.64374,-0.93929 3.28749,-2.11339 4.22677,-3.28749 l 2.11338,0.93928 c -1.40892,7.51426 -2.81784,14.55887 -8.45354,19.95975 l -0.93928,0.93928 -0.23482,-0.46964 c -0.93928,0.46964 -1.87856,0.70446 -3.28749,1.1741 -1.40892,0.46964 -3.05266,0.70446 -4.46159,0.93928 l 0.23482,0.46964 -2.3482,0.23482 c -1.1741,0 -3.05267,0.23482 -4.46159,0.70446 2.58302,1.17411 5.87051,1.64375 8.68836,3.75713 l 1.1741,0.93928 -1.1741,0.93929 c -8.92318,7.27943 -18.08118,10.3321 -26.06508,10.3321 0,0 0,0 0,0 -13.85441,0 -24.42134,-9.158 -24.65616,-19.72492 0,0 0,-0.23482 0,-0.23482 0.23482,-9.15801 7.04462,-15.73298 16.90708,-15.73298 8.68836,0 19.49011,4.93123 30.29185,16.90708 1.64374,-0.23482 3.52231,-0.70446 5.40087,-1.1741 0.93928,-0.23483 1.87857,-0.46965 2.58303,-0.93929 -4.22677,-5.63569 -10.09728,-13.61959 -15.9678,-15.49815 l -0.23482,0 c -0.93928,0.23482 -2.11338,0.23482 -3.28749,0 -1.40892,-0.23482 -2.58302,-0.46964 -3.75712,-0.93928 l 0,0 c -1.40893,-0.46965 -2.11339,-1.17411 -3.05267,-1.64375 -1.1741,-0.93928 -2.81785,-2.11338 -6.8098,-3.05266 l 0.46965,-1.64375 c 4.22676,1.1741 5.87051,2.34821 7.27943,3.52231 0.70446,0.70446 1.40892,1.1741 2.58303,1.40892 l 0,0 c 1.1741,0.23482 2.3482,0.70446 3.52231,0.70446 0.70446,0 1.1741,0 1.64374,0 l 1.40892,-0.46964 c 0.70446,-0.23482 1.64375,-0.23482 2.81785,-0.23482 1.40892,0 2.81784,0.23482 3.99195,0.46964 -6.34016,-7.04461 -15.49816,-10.09728 -24.42134,-10.09728 -11.97584,0 -23.48205,5.16605 -27.474,12.91513 l -0.70446,1.40892 -1.1741,-1.1741 c -2.34821,-2.81785 -3.28749,-6.57497 -3.99195,-10.3321 -1.87857,3.05266 -2.58303,7.27943 -2.58303,11.03656 0,4.22677 1.1741,7.74908 2.81785,9.158 l 0,0.23482 c 0.70446,0.23482 1.40892,0.46964 2.11338,0.70447 0.70446,0.23482 1.64375,0.23482 2.34821,0 l 0.46964,1.64374 c -1.1741,0.23482 -2.11339,0.23482 -3.05267,0 -0.93928,-0.23482 -1.87856,-0.46964 -2.58302,-0.93928 l -0.23482,0.23482 c -3.75713,-1.40893 -6.34016,-3.75713 -9.15801,-6.10534 0,0.93929 -0.23482,1.87857 -0.23482,2.81785 0,3.75713 0.93929,7.51426 3.99195,10.09728 l -0.23482,0.23482 c 0.93928,0.93929 3.28749,2.34821 5.40087,2.81785 1.40893,0.23482 3.05267,0 4.22677,-0.93928 l 1.17411,1.40892 c -1.64375,1.40892 -3.75713,1.64374 -5.6357,1.1741 -2.58302,-0.46964 -4.93123,-1.87856 -6.10533,-2.81784 l 0,0.23482 c -4.69641,-1.87857 -9.158,-4.46159 -12.91513,-8.21872 1.1741,8.21872 10.80175,19.25528 20.66421,21.13385 l 0.46964,0 0.23482,0.46964 c 3.75713,6.80979 17.1419,12.91513 28.41328,12.91513 0.93929,0 2.11339,0 3.05267,-0.23482 l 3.05267,-0.23482 -1.87857,2.11338 c -0.46964,0.46964 -0.93928,0.93928 -1.40892,1.64374 1.64374,-1.1741 3.05267,-1.87856 4.93123,-2.11338 5.40087,-0.23482 21.83831,-7.27944 27.70882,-11.50621 l 1.87857,-1.40892 0,0.46964 c 2.11338,-1.40892 4.69641,-3.28749 6.34015,-4.69641 l 0,-0.23482 0.46964,-0.46964 c 6.34016,-5.87051 12.21067,-13.85441 14.08924,-27.00436 l 0.46964,-3.99195 1.64374,3.75713 c 0.93928,2.11338 1.40892,4.69641 1.87856,7.51425 1.40893,-4.46159 1.87857,-10.3321 1.87857,-15.73297 0,-3.05267 -0.23482,-6.10533 -0.46964,-8.92318 l -0.23482,-3.05267 2.11338,1.87857 c 2.58303,2.3482 4.22677,5.40087 5.87052,9.158 0,-0.23482 0,-0.70446 0,-0.93929 0,-9.86246 -1.87857,-21.13384 -7.9839,-31.46595 l 1.64374,-1.40892 c 3.05267,2.81785 5.63569,5.87051 8.21872,9.62764 -0.46964,-14.32405 -10.80175,-35.4579 -29.82221,-47.66857 l -0.93928,-0.46964 0.46964,-0.93928 c 0.93928,-1.64374 2.58303,-3.28749 4.22677,-4.22677 l 0.23482,-0.23482 0.23482,0 c 3.52231,-0.23482 7.04462,-0.23482 10.80175,-0.23482 4.46159,0 9.158,0.23482 13.14995,0.46964 -2.11339,-2.58302 -5.16606,-4.93123 -8.21872,-6.80979 l -1.87857,-1.17411 2.11339,-0.93928 c 5.63569,-2.3482 14.32405,-0.70446 22.54277,-2.11338 6.57497,-0.93928 11.74102,-4.46159 19.02046,-7.04462 -5.63569,-1.1741 -12.68031,-2.3482 -18.78564,-2.3482 -0.46964,0 -0.93928,0 -1.40892,0 l 0,-0.23482 c -2.34821,0.23482 -5.87052,0.46964 -9.62765,0.93928 -3.75712,0.46964 -7.74907,1.1741 -10.80174,2.3482 l -0.70446,-1.64374 c 3.05266,-1.1741 7.27943,-1.87857 11.27138,-2.58303 3.75713,-0.46964 7.51426,-0.70446 9.86247,-0.93928 l 0,-0.23482 c 15.26333,-2.81785 29.58738,-9.39282 42.03287,-21.13385 -3.75713,0.23482 -8.21872,2.11339 -13.14995,2.11339 -0.70446,0 -1.1741,0 -1.87856,0 l -3.99195,-0.46964 c -18.55082,0 -35.4579,6.34015 -48.84267,14.32405 6.57497,-7.51426 21.36867,-11.50621 32.87487,-15.49816 2.81785,-0.93928 11.50621,-0.23482 19.02046,-0.46964 l 0.70447,-0.23482 c 8.21871,-3.52231 15.49815,-10.80174 19.4901,-18.316 -0.23482,0 -0.46964,0 -0.70446,0 -3.05267,0 -6.8098,1.1741 -10.3321,1.1741 -0.23483,0 -0.46965,0 -0.93929,0 l -2.58302,-0.23482 0.23482,-0.23482 c -17.84636,0.70446 -30.52667,6.8098 -41.32842,14.7937 5.6357,-7.04462 16.43744,-13.61959 26.76954,-16.43744 3.28749,-0.93928 7.51426,1.64374 15.9678,0.23482 l 0.23482,-0.23482 c 4.69641,-4.46159 11.97585,-7.51426 15.73298,-13.61959 -3.75713,0.70446 -8.21872,1.64374 -12.21067,3.28749 z M 287.42033,262.52935 c -0.70447,0 -1.40893,-0.46964 -1.40893,-1.1741 0,-0.46964 0.70446,-1.1741 1.40893,-1.1741 0.70446,0 1.40892,0.46964 1.40892,1.1741 0,0.70446 -0.70446,1.1741 -1.40892,1.1741 z m 7.51425,-1.1741 c -0.93928,0.70446 -5.16605,3.52231 -4.46159,1.40892 1.40893,-4.46159 -2.58302,-3.5223 -5.63569,-3.99195 1.64374,-0.70446 4.69641,-1.40892 5.63569,-1.1741 1.87857,0.46964 5.40087,2.58303 4.46159,3.75713 z m -29.35256,56.12211 c -0.46964,0 -0.93929,-0.23482 -1.17411,-0.46964 -0.70446,0.46964 -1.1741,1.1741 -1.64374,1.64374 -0.46964,0.70446 -0.93928,1.40892 -1.1741,2.3482 0,0.23483 0.23482,0.70447 0.23482,1.17411 0,0.23482 0,0.46964 0,0.46964 0.23482,0 0.46964,0 0.93928,0 0.70446,0 1.1741,0.46964 1.64374,0.70446 l 0.23482,0.23482 0,0.23482 c 0,0.93928 0,1.64374 -0.23482,2.58303 -0.23482,0.93928 -0.70446,1.64374 -1.1741,2.58302 l -0.93928,-0.70446 c 0.46964,-0.70446 0.70446,-1.40892 0.93928,-2.11338 0.23482,-0.70447 0.23482,-1.40893 0.23482,-1.87857 -0.23482,-0.23482 -0.46964,-0.23482 -0.93928,-0.23482 -0.46964,0 -0.93928,0 -1.1741,0 l -1.17411,1.1741 -0.93928,-0.93928 1.1741,-1.40892 c 0.23483,-0.23482 0.23483,-0.46964 0.23483,-0.70446 0,-0.23482 0,-0.70446 -0.23483,-0.93928 l 0,0 c -0.23482,-0.46965 -0.70446,-0.93929 -1.40892,-1.17411 -0.93928,-0.46964 -1.87856,-0.93928 -2.58302,-1.1741 l 0.23482,-1.1741 c 0.93928,0.23482 2.11338,0.70446 3.05266,1.1741 0.46964,0.23482 0.93929,0.46964 1.17411,0.93928 0.23482,-0.70446 0.70446,-1.40892 1.1741,-1.87856 0.70446,-0.93928 1.40892,-1.64375 2.11338,-2.34821 l 0.46964,-0.46964 0.46965,0.46964 c 0.23482,0.23482 0.46964,0.46964 0.93928,0.46964 0.46964,0 0.93928,0 1.40892,0 l 0.23482,1.17411 c -0.93928,0.23482 -1.64374,0.23482 -2.11338,0.23482 z m 3.05266,-5.16605 c -0.46964,-0.70447 -1.1741,-0.93929 -2.11338,-1.40893 -0.23482,0 -0.23482,-0.23482 -0.46964,-0.23482 -0.23482,0 -0.70446,0.23482 -0.93928,0.46964 l 0,0 c -0.46965,0.23482 -0.70447,0.70446 -0.93929,1.17411 l -0.93928,-0.70447 c 0.46964,-0.46964 0.70446,-0.93928 1.1741,-1.40892 0.23482,-0.23482 0.70447,-0.46964 0.93929,-0.70446 0,-1.1741 0,-2.11339 0,-3.28749 0,-0.93928 0,-1.87856 0,-2.81784 l 1.1741,0 c 0,1.1741 0,2.11338 0,3.05266 0,1.1741 0,2.11339 0,3.05267 0,0 0.23482,0 0.23482,0.23482 0.93928,0.46964 1.87856,0.93928 2.58302,1.87856 l -0.70446,0.70447 z m 2.11339,-7.04462 c -0.46964,-0.23482 -0.70446,-0.46964 -1.1741,-0.70446 -1.40893,-0.70446 -3.05267,-1.64375 -3.28749,-3.05267 l 1.1741,-0.23482 c 0.23482,0.93928 1.64374,1.64374 2.81785,2.34821 0.46964,0.23482 0.93928,0.46964 1.1741,0.70446 l -0.70446,0.93928 z m 15.73297,56.59175 c 0,1.1741 -0.23482,2.3482 -0.70446,3.05266 -0.46964,0.93929 -1.1741,1.64375 -1.87856,2.11339 -0.70446,0.23482 -1.64375,0.46964 -2.81785,0.23482 -1.1741,-0.23482 -2.3482,-0.93928 -3.52231,-1.87857 l 0.70447,-0.93928 c 0.93928,0.93928 2.11338,1.40893 3.05266,1.64375 0.70446,0.23482 1.40893,0.23482 1.87857,0 0.46964,-0.23482 0.93928,-0.70447 1.40892,-1.40893 0.46964,-0.70446 0.46964,-1.87856 0.46964,-3.28748 l 0,-0.93929 0.70446,0.23482 c 3.05267,0.93929 4.69641,0.70447 5.40087,-0.23482 0.70447,-0.93928 0.46965,-3.05266 -0.46964,-5.40087 l 1.17411,-0.46964 c 0.93928,2.81785 1.1741,4.93123 0.23482,6.34015 -0.46964,1.40893 -2.34821,1.87857 -5.6357,0.93929 z m 21.60349,4.93123 c 0.23482,0.70446 0.23482,1.64374 0,2.3482 l 0,0 c 0,0.93929 -0.93928,1.64375 -1.40892,2.34821 -0.23482,0.23482 -0.23482,0.23482 -0.23482,0.46964 0.70446,1.1741 0.70446,2.81785 0.93928,4.46159 0,0.23482 0,0.46964 0,0.93928 l -1.1741,0 c 0,-0.23482 0,-0.46964 0,-0.93928 0,-1.40892 -0.23482,-3.28749 -0.70446,-4.22677 -0.46964,-0.70446 -1.40893,-1.40892 -2.34821,-1.87856 -0.23482,0 -0.23482,-0.23482 -0.46964,-0.23482 -0.23482,0.70446 -0.93928,1.1741 -1.40892,1.64374 -0.46964,0.46964 -0.70446,0.70446 -0.93929,1.1741 l -1.1741,-0.70446 c 0.23482,-0.46964 0.70446,-0.93928 1.1741,-1.40892 0.70447,-0.70446 1.17411,-1.17411 1.17411,-1.87857 0,-0.93928 -0.70446,-1.87856 -1.17411,-2.81784 -0.23482,-0.23482 -0.46964,-0.70447 -0.46964,-0.93929 -0.23482,0 -0.23482,0 -0.23482,0 -1.1741,0.23482 -2.11338,0.23482 -3.05266,-0.46964 -0.23482,0.46964 -0.46964,0.93929 -0.70447,1.40893 -0.70446,0.93928 -1.40892,1.64374 -2.58302,2.11338 l -0.46964,-1.1741 c 0.70446,-0.46964 1.40892,-0.93928 2.11338,-1.64375 0.46964,-0.70446 0.70446,-1.1741 0.70446,-1.87856 l 0.93929,-0.46964 c 1.1741,0.93928 1.87856,0.93928 3.05266,0.70446 0.23482,0 0.46964,0 0.70446,0 0.23483,0 0.23483,0 0.46965,-0.23482 0.23482,-0.23482 0.46964,-0.70446 0.46964,-0.93928 0,-0.46964 0,-0.93928 -0.23482,-1.64375 -0.23482,-0.46964 -0.46964,-1.1741 -0.93929,-1.64374 l 0.70447,-0.93928 c 0.93928,0.46964 1.64374,0.46964 2.3482,0.23482 0.23482,0 0.70446,-0.23482 0.93928,-0.46964 0.23482,-0.23482 0.46964,-0.46964 0.46964,-0.70446 0,-0.23482 0.23482,-0.46964 0,-0.70446 l 1.17411,-0.46965 c 0.23482,0.46965 0,1.17411 -0.23482,1.64375 -0.23482,0.46964 -0.46964,0.70446 -0.93929,0.93928 -0.23482,0.23482 -0.70446,0.46964 -1.1741,0.70446 -0.46964,0.23482 -1.1741,0.23482 -1.64374,0.23482 0,0.23482 0.23482,0.46964 0.23482,0.70446 0.23482,0.70447 0.46964,1.64375 0.23482,2.11339 0,0.70446 -0.46964,1.40892 -0.93928,1.87856 0,0 -0.23482,0 -0.23482,0 0.23482,0.23482 0.23482,0.46964 0.46964,0.70446 0.70446,0.93929 1.1741,1.87857 1.40892,3.28749 0.23482,0.23482 0.70446,0.46964 0.93928,0.46964 0.70446,0.46964 1.64375,0.93929 2.11339,1.64375 0,0 0,0 0.23482,-0.23482 0.46964,-0.46964 1.1741,-1.17411 1.1741,-1.64375 l 0,0 c 0,-0.70446 0,-1.40892 0,-1.87856 0,-0.46964 -0.23482,-1.1741 -0.46964,-1.64375 -0.23482,0 -0.70446,0 -0.93928,-0.23482 l 0.23482,-0.46964 c 0.23482,0.23482 0.70446,0.23482 1.1741,0 0.46964,-0.23482 0.93928,-0.70446 1.1741,-0.93928 l 0.46964,0.46964 c -0.23482,0.23482 -0.70446,0.70446 -1.1741,0.93928 -0.23482,0.46964 0,1.17411 0.23482,1.87857 z m 20.19457,39.21503 c 0.23482,-1.17411 0.70446,-2.58303 0.46964,-4.46159 l 1.1741,-0.23482 c 0.46964,2.3482 0,3.75712 -0.46964,5.16605 -0.23482,1.1741 -0.70446,2.11338 -0.23482,3.75713 l -1.1741,0.23482 c -0.46964,-2.11339 -0.23482,-3.28749 0.23482,-4.46159 z m -16.43744,-22.54277 -0.93928,-0.70447 c 0.70446,-0.93928 0.93928,-2.3482 0.93928,-3.99194 0,-1.40893 -0.23482,-2.58303 -0.93928,-3.52231 l 0.93928,-0.70446 c 0.93928,0.93928 1.40892,2.58302 1.40892,4.22677 -0.23482,1.87856 -0.46964,3.5223 -1.40892,4.69641 z m 5.63569,-59.87924 c 0.23482,-17.37672 34.2838,-42.50252 54.24355,-48.37303 -26.53472,11.27139 -48.84267,33.1097 -54.24355,48.37303 z" id="path81" inkscape:connector-curvature="0" style="fill:#db0d15"/></g></svg>