<?xml version="1.0" encoding="UTF-8" standalone="no"?>
<svg
   xmlns:dc="http://purl.org/dc/elements/1.1/"
   xmlns:cc="http://creativecommons.org/ns#"
   xmlns:rdf="http://www.w3.org/1999/02/22-rdf-syntax-ns#"
   xmlns:svg="http://www.w3.org/2000/svg"
   xmlns="http://www.w3.org/2000/svg"
   xmlns:sodipodi="http://sodipodi.sourceforge.net/DTD/sodipodi-0.dtd"
   xmlns:inkscape="http://www.inkscape.org/namespaces/inkscape"
   sodipodi:docname="Logo FC Gueugnon 1995.svg"
   inkscape:version="1.0 (4035a4f, 2020-05-01)"
   version="1.1"
   id="svg2"
   height="304.53055"
   width="610.00006">
  <defs
     id="defs4" />
  <sodipodi:namedview
     inkscape:document-rotation="0"
     inkscape:window-maximized="1"
     inkscape:window-y="23"
     inkscape:window-x="0"
     inkscape:window-height="780"
     inkscape:window-width="1434"
     fit-margin-left="5"
     fit-margin-right="5"
     fit-margin-top="5"
     fit-margin-bottom="5"
     showgrid="false"
     inkscape:current-layer="layer1"
     inkscape:document-units="px"
     inkscape:cy="58.232626"
     inkscape:cx="71.004287"
     inkscape:zoom="1.979899"
     inkscape:pageshadow="2"
     inkscape:pageopacity="0.0"
     borderopacity="1.0"
     bordercolor="#666666"
     pagecolor="#ffffff"
     id="base" />
  <metadata
     id="metadata7">
    <rdf:RDF>
      <cc:Work
         rdf:about="">
        <dc:format>image/svg+xml</dc:format>
        <dc:type
           rdf:resource="http://purl.org/dc/dcmitype/StillImage" />
        <dc:title />
      </cc:Work>
    </rdf:RDF>
  </metadata>
  <g
     transform="translate(-413.84146,-527.64953)"
     id="layer1"
     inkscape:groupmode="layer"
     inkscape:label="Calque 1">
    <path
       inkscape:connector-curvature="0"
       d="M 492.47409,532.64953 H 946.1244 v 32.72026 h 72.7171 v 229.09003 h -68.18732 v 32.72027 H 492.47409 V 794.45982 H 418.84146 V 565.36979 h 72.71706"
       style="fill:#1a5dad;fill-opacity:1;fill-rule:nonzero;stroke:none;stroke-width:48.189"
       id="path4979" />
    <path
       inkscape:connector-curvature="0"
       d="m 956.33083,703.92253 h -34.64781 v -37.53916 h 81.82478 v 91.70349 c -26.50391,19.99838 -45.53853,22.21509 -86.54731,22.21509 -53.05598,-1.87937 -85.39072,-40.18954 -85.39072,-100.76302 0,-60.57344 32.33474,-98.88362 85.39072,-100.76298 41.24971,-1.34929 84.66791,5.6381 85.34261,61.87454 h -47.1288 c -2.36127,-18.74547 -15.32408,-24.38357 -30.88909,-24.38357 -31.85287,0 -43.17726,31.90106 -43.17726,63.27201 0,38.06924 16.72155,63.22386 50.69472,63.22386 8.72219,0 17.44441,-1.59025 24.52816,-3.18047"
       style="fill:#fff200;fill-opacity:1;fill-rule:nonzero;stroke:none;stroke-width:48.189"
       id="path4983" />
    <path
       inkscape:connector-curvature="0"
       d="M 436.12201,583.55146 H 606.99986 V 628.078 H 506.09228 v 30.93727 h 86.4027 v 44.52654 h -85.48709 v 79.1262 h -72.71706"
       style="fill:#fff200;fill-opacity:1;fill-rule:nonzero;stroke:none;stroke-width:48.189"
       id="path4987" />
    <path
       inkscape:connector-curvature="0"
       d="M 510.65579,554.46463 H 924.3093 v 10.8907 H 818.8238 v 229.09003 h 105.4855 v 10.93889 H 514.31815 v -11.8545 H 618.83986 V 565.35533 H 510.65579"
       style="fill:#fff200;fill-opacity:1;fill-rule:nonzero;stroke:none;stroke-width:48.189"
       id="path4991" />
    <path
       inkscape:connector-curvature="0"
       d="m 747.39338,640.1397 c -1.10836,-19.42011 -12.09543,-30.50356 -30.50357,-30.50356 -25.78106,0 -30.4554,40.38228 -30.4554,72.66884 0,31.37098 5.15623,68.42824 30.4554,68.42824 18.84185,0 29.58799,-11.08345 30.50357,-31.70828 h 47.08054 c 0.67464,54.40526 -38.35836,73.53625 -77.58411,73.53625 -50.4056,0 -77.53595,-40.33409 -77.53595,-112.66566 0,-72.33153 27.13035,-111.5091 77.53595,-112.08736 39.22575,0 78.25875,17.92627 77.58411,72.33153"
       style="fill:#1a5dad;fill-opacity:1;fill-rule:nonzero;stroke:none;stroke-width:48.189"
       id="path4995" />
  </g>
</svg>
