<?xml version="1.0" encoding="UTF-8"?>
<svg xmlns="http://www.w3.org/2000/svg" xmlns:xlink="http://www.w3.org/1999/xlink" width="542.82pt" height="542.82pt" viewBox="0 0 542.82 542.82" version="1.1">
<g id="surface1">
<path style=" stroke:none;fill-rule:nonzero;fill:rgb(71.798706%,63.499451%,30.198669%);fill-opacity:1;" d="M 540.039063 271.410156 C 540.039063 419.773438 419.769531 540.042969 271.40625 540.042969 C 123.046875 540.042969 2.773438 419.773438 2.773438 271.410156 C 2.773438 123.050781 123.046875 2.777344 271.40625 2.777344 C 419.769531 2.777344 540.039063 123.050781 540.039063 271.410156 "/>
<path style=" stroke:none;fill-rule:nonzero;fill:rgb(100%,100%,100%);fill-opacity:1;" d="M 522.921875 271.410156 C 522.921875 410.316406 410.3125 522.925781 271.40625 522.925781 C 132.5 522.925781 19.894531 410.316406 19.894531 271.410156 C 19.894531 132.503906 132.5 19.898438 271.40625 19.898438 C 410.3125 19.898438 522.921875 132.503906 522.921875 271.410156 "/>
<path style=" stroke:none;fill-rule:nonzero;fill:rgb(15.299988%,27.49939%,58.799744%);fill-opacity:1;" d="M 467.492188 271.410156 C 467.492188 379.703125 379.699219 467.496094 271.40625 467.496094 C 163.113281 467.496094 75.320313 379.703125 75.320313 271.410156 C 75.320313 163.117188 163.113281 75.324219 271.40625 75.324219 C 379.699219 75.324219 467.492188 163.117188 467.492188 271.410156 "/>
<path style=" stroke:none;fill-rule:nonzero;fill:rgb(13.699341%,12.199402%,12.5%);fill-opacity:1;" d="M 79.492188 79.496094 C 28.230469 130.761719 0 198.914063 0 271.410156 C 0 343.90625 28.230469 412.0625 79.492188 463.324219 C 130.757813 514.589844 198.910156 542.820313 271.40625 542.820313 C 343.902344 542.820313 412.058594 514.589844 463.320313 463.324219 C 514.585938 412.0625 542.816406 343.90625 542.816406 271.410156 C 542.816406 198.914063 514.585938 130.761719 463.320313 79.496094 C 412.058594 28.234375 343.902344 0.00390625 271.40625 0.00390625 C 198.910156 0.00390625 130.757813 28.234375 79.492188 79.496094 M 5.550781 271.410156 C 5.550781 124.816406 124.8125 5.554688 271.40625 5.554688 C 418.003906 5.554688 537.265625 124.816406 537.265625 271.410156 C 537.265625 418.007813 418.003906 537.269531 271.40625 537.269531 C 124.8125 537.269531 5.550781 418.007813 5.550781 271.410156 "/>
<path style=" stroke:none;fill-rule:nonzero;fill:rgb(13.699341%,12.199402%,12.5%);fill-opacity:1;" d="M 17.121094 271.410156 C 17.121094 411.628906 131.191406 525.699219 271.40625 525.699219 C 411.621094 525.699219 525.695313 411.628906 525.695313 271.410156 C 525.695313 131.195313 411.621094 17.125 271.40625 17.125 C 131.191406 17.125 17.121094 131.195313 17.121094 271.410156 M 22.667969 271.410156 C 22.667969 134.257813 134.253906 22.675781 271.40625 22.675781 C 408.5625 22.675781 520.144531 134.257813 520.144531 271.410156 C 520.144531 408.566406 408.5625 520.148438 271.40625 520.148438 C 134.253906 520.148438 22.667969 408.566406 22.667969 271.410156 "/>
<path style=" stroke:none;fill-rule:nonzero;fill:rgb(13.699341%,12.199402%,12.5%);fill-opacity:1;" d="M 72.546875 271.410156 C 72.546875 381.0625 161.753906 470.273438 271.40625 470.273438 C 381.058594 470.273438 470.269531 381.0625 470.269531 271.410156 C 470.269531 161.757813 381.058594 72.550781 271.40625 72.550781 C 161.753906 72.550781 72.546875 161.757813 72.546875 271.410156 M 78.097656 271.410156 C 78.097656 164.820313 164.816406 78.101563 271.40625 78.101563 C 378 78.101563 464.71875 164.820313 464.71875 271.410156 C 464.71875 378.003906 378 464.722656 271.40625 464.722656 C 164.816406 464.722656 78.097656 378.003906 78.097656 271.410156 "/>
<path style=" stroke:none;fill-rule:nonzero;fill:rgb(15.299988%,27.49939%,58.799744%);fill-opacity:1;" d="M 124.953125 458.503906 L 109.257813 444.15625 C 104.109375 439.386719 104.109375 439.386719 103.1875 438.425781 C 99.851563 434.894531 99.929688 432.441406 103.558594 428.476563 C 106.402344 425.363281 108.324219 424.773438 111.089844 426.15625 C 108.652344 423.03125 108.9375 420.945313 112.144531 417.4375 C 114.988281 414.324219 117.277344 413.464844 119.808594 414.578125 C 121.445313 415.289063 121.835938 415.589844 129.203125 422.265625 L 144.9375 436.644531 L 124.953125 458.503906 M 117.136719 435.535156 C 114.777344 433.378906 113.765625 432.574219 113.160156 432.382813 C 112.488281 432.128906 111.75 432.476563 111.03125 433.261719 C 110.191406 434.179688 110.039063 434.941406 110.574219 435.734375 C 110.878906 436.128906 110.976563 436.21875 113.960938 439.007813 L 123.332031 447.578125 L 126.507813 444.101563 L 117.136719 435.535156 M 124.414063 427.507813 C 120.417969 423.914063 120.417969 423.914063 119.714844 423.695313 C 118.949219 423.414063 118.269531 423.699219 117.429688 424.617188 C 116.503906 425.632813 116.378906 426.359375 116.980469 427.214844 C 117.25 427.578125 117.25 427.578125 121.089844 431.148438 L 130.492188 439.742188 L 133.816406 436.105469 L 124.414063 427.507813 "/>
<path style=" stroke:none;fill-rule:nonzero;fill:rgb(15.299988%,27.49939%,58.799744%);fill-opacity:1;" d="M 89.640625 424.398438 L 76.886719 406.71875 C 70.910156 398.4375 70.910156 398.4375 70.730469 396.214844 C 70.523438 393.570313 71.71875 391.886719 75.894531 388.875 C 79.460938 386.304688 81.085938 385.675781 82.996094 386.269531 C 84.027344 386.566406 84.773438 387.066406 86.027344 388.351563 C 83.785156 384.332031 84.398438 382.902344 90.046875 379.046875 L 92.28125 377.4375 L 97.472656 384.636719 L 96.214844 385.546875 C 93.515625 387.496094 92.753906 388.261719 92.558594 389.28125 C 92.34375 390.199219 92.664063 390.792969 94.84375 393.816406 L 102.300781 404.152344 L 108.386719 399.761719 L 113.660156 407.070313 L 89.640625 424.398438 M 88.859375 398.191406 C 86.136719 394.570313 86.136719 394.570313 85.410156 394.328125 C 84.636719 394.011719 83.761719 394.3125 82.246094 395.402344 C 80.628906 396.574219 80.152344 397.355469 80.371094 398.34375 C 80.519531 399.007813 80.597656 399.113281 82.953125 402.453125 L 90.382813 412.75 L 96.285156 408.488281 L 88.859375 398.191406 "/>
<path style=" stroke:none;fill-rule:nonzero;fill:rgb(15.299988%,27.49939%,58.799744%);fill-opacity:1;" d="M 59.023438 376.578125 L 85.285156 362.890625 L 89.65625 371.273438 L 63.394531 384.964844 L 59.023438 376.578125 "/>
<path style=" stroke:none;fill-rule:nonzero;fill:rgb(15.299988%,27.49939%,58.799744%);fill-opacity:1;" d="M 52.992188 325.347656 L 53.746094 325.089844 C 56.519531 324.144531 61.367188 322.675781 62.753906 322.339844 C 66.148438 321.558594 68.699219 322.703125 70.519531 325.835938 C 72.082031 328.492188 73.253906 331.378906 75.851563 338.980469 C 79.140625 348.601563 79.78125 351.714844 78.988281 354.613281 C 78.195313 357.652344 76.292969 358.816406 67.09375 361.960938 C 53.984375 366.4375 52.683594 365.523438 46.484375 347.371094 C 42.925781 336.953125 42.277344 332.855469 43.871094 330.246094 C 44.855469 328.597656 46.464844 327.671875 50.570313 326.222656 L 53.480469 334.753906 C 51.859375 335.355469 51.550781 335.554688 51.359375 336.226563 C 51.058594 337.269531 51.566406 339.300781 53.746094 345.6875 C 57.191406 355.773438 57.246094 355.800781 64.515625 353.316406 C 69.265625 351.695313 70.605469 350.957031 71.046875 349.773438 C 71.390625 348.855469 71.257813 348.058594 70.523438 345.632813 L 68.902344 340.605469 C 65.5 330.648438 65.328125 330.425781 62.21875 331.484375 L 61.421875 331.757813 L 65.253906 342.976563 L 59.664063 344.886719 L 52.992188 325.347656 "/>
<path style=" stroke:none;fill-rule:nonzero;fill:rgb(15.299988%,27.49939%,58.799744%);fill-opacity:1;" d="M 37.050781 307.6875 L 47.597656 306.527344 L 45.367188 286.269531 L 34.820313 287.429688 L 33.789063 278.03125 L 63.226563 274.792969 L 64.257813 284.191406 L 53.621094 285.363281 L 55.847656 305.621094 L 66.484375 304.449219 L 67.519531 313.851563 L 38.082031 317.089844 L 37.050781 307.6875 "/>
<path style=" stroke:none;fill-rule:nonzero;fill:rgb(15.299988%,27.49939%,58.799744%);fill-opacity:1;" d="M 37.175781 231.488281 L 44.691406 232.183594 L 43.476563 245.316406 L 65.449219 247.351563 L 64.578125 256.765625 L 42.601563 254.734375 L 41.386719 267.863281 L 33.871094 267.167969 L 37.175781 231.488281 "/>
<path style=" stroke:none;fill-rule:nonzero;fill:rgb(15.299988%,27.49939%,58.799744%);fill-opacity:1;" d="M 51.765625 185.058594 C 54.089844 183.410156 57.128906 183.652344 65.230469 186.164063 C 73.371094 188.6875 76.015625 190.203125 77 192.878906 C 77.984375 195.554688 77.453125 198.316406 73.828125 210.023438 C 70.132813 221.941406 69.023438 224.480469 66.699219 226.128906 C 64.316406 227.808594 61.335938 227.535156 53.023438 224.960938 C 45.132813 222.515625 42.449219 220.984375 41.464844 218.308594 C 40.480469 215.632813 40.996094 212.910156 44.664063 201.078125 C 48.332031 189.246094 49.441406 186.710938 51.765625 185.058594 M 50.640625 214.039063 C 51.460938 214.851563 53.019531 215.523438 56.621094 216.640625 C 60.144531 217.730469 61.367188 217.828125 62.488281 217.0625 C 63.734375 216.191406 64.28125 214.875 66.488281 207.75 C 68.632813 200.835938 68.894531 199.386719 68.402344 197.976563 C 67.941406 196.765625 66.804688 196.085938 63.367188 195.023438 C 59.167969 193.722656 57.480469 193.476563 56.308594 193.949219 C 54.863281 194.570313 54.445313 195.464844 52 203.351563 C 49.371094 211.835938 49.25 212.679688 50.640625 214.039063 "/>
<path style=" stroke:none;fill-rule:nonzero;fill:rgb(15.299988%,27.49939%,58.799744%);fill-opacity:1;" d="M 64.234375 156.335938 L 91.105469 154.066406 L 91.574219 153.261719 L 72.402344 142.335938 L 77.03125 134.394531 L 102.613281 149.316406 L 94.71875 162.855469 L 67.765625 165.175781 L 67.273438 166.019531 L 86.484375 176.96875 L 81.855469 184.90625 L 56.273438 169.988281 L 64.234375 156.335938 "/>
<path style=" stroke:none;fill-rule:nonzero;fill:rgb(15.299988%,27.49939%,58.799744%);fill-opacity:1;" d="M 171.378906 83.847656 L 154.554688 93.863281 L 154.945313 99.46875 L 146.097656 104.738281 L 144.414063 71.273438 L 156.46875 64.097656 L 184.933594 81.613281 L 176.121094 86.863281 L 171.378906 83.847656 M 154.6875 73.167969 L 153.160156 74.074219 L 153.984375 86.65625 L 165.355469 79.890625 L 154.6875 73.167969 "/>
<path style=" stroke:none;fill-rule:nonzero;fill:rgb(15.299988%,27.49939%,58.799744%);fill-opacity:1;" d="M 194.632813 47.1875 L 216.113281 63.484375 L 217 63.199219 L 210.066406 42.25 L 218.820313 39.449219 L 227.84375 67.65625 L 212.914063 72.429688 L 191.335938 56.117188 L 190.402344 56.414063 L 197.351563 77.40625 L 188.597656 80.207031 L 179.574219 52 L 194.632813 47.1875 "/>
<path style=" stroke:none;fill-rule:nonzero;fill:rgb(15.299988%,27.49939%,58.799744%);fill-opacity:1;" d="M 231.910156 37.007813 L 253.1875 35.191406 C 260.710938 34.550781 261.730469 34.507813 264.296875 34.824219 C 267.265625 35.152344 269.355469 36.664063 270.472656 39.335938 C 271.316406 41.355469 271.648438 43.199219 272.0625 48.023438 C 272.71875 55.71875 272.308594 58.785156 270.3125 60.960938 C 268.230469 63.1875 265.65625 63.851563 255.703125 64.699219 L 234.421875 66.511719 L 231.910156 37.007813 M 255.148438 57.171875 C 263.289063 56.480469 263.828125 55.988281 263.257813 49.308594 C 262.949219 45.679688 262.5 44.070313 261.53125 43.171875 C 260.511719 42.1875 259.304688 42.113281 253.816406 42.582031 L 241.386719 43.640625 L 242.628906 58.238281 L 255.148438 57.171875 "/>
<path style=" stroke:none;fill-rule:nonzero;fill:rgb(15.299988%,27.49939%,58.799744%);fill-opacity:1;" d="M 350.3125 47.742188 L 346.355469 57.589844 L 365.261719 65.195313 L 369.222656 55.347656 L 377.996094 58.878906 L 366.945313 86.355469 L 358.171875 82.824219 L 362.164063 72.898438 L 343.257813 65.292969 L 339.265625 75.21875 L 330.488281 71.691406 L 341.539063 44.214844 L 350.3125 47.742188 "/>
<path style=" stroke:none;fill-rule:nonzero;fill:rgb(15.299988%,27.49939%,58.799744%);fill-opacity:1;" d="M 419.398438 87.640625 C 420.277344 90.351563 419.132813 93.179688 414.308594 100.15625 C 409.460938 107.164063 407.222656 109.234375 404.375 109.371094 C 401.527344 109.507813 399.050781 108.171875 388.972656 101.203125 C 378.707031 94.109375 376.621094 92.289063 375.742188 89.574219 C 374.851563 86.800781 376.007813 84.039063 380.957031 76.878906 C 385.652344 70.085938 387.917969 67.980469 390.765625 67.84375 C 393.613281 67.710938 396.054688 69.019531 406.242188 76.0625 C 416.433594 83.109375 418.519531 84.929688 419.398438 87.640625 M 392.085938 77.882813 C 391.066406 78.417969 389.960938 79.703125 387.816406 82.808594 C 385.71875 85.839844 385.257813 86.976563 385.652344 88.277344 C 386.109375 89.726563 387.203125 90.644531 393.339844 94.886719 C 399.289063 99 400.597656 99.6875 402.089844 99.640625 C 403.382813 99.5625 404.371094 98.679688 406.414063 95.722656 C 408.914063 92.105469 409.65625 90.566406 409.554688 89.308594 C 409.394531 87.742188 408.667969 87.078125 401.875 82.382813 C 394.570313 77.332031 393.800781 76.960938 392.085938 77.882813 "/>
<path style=" stroke:none;fill-rule:nonzero;fill:rgb(15.299988%,27.49939%,58.799744%);fill-opacity:1;" d="M 436.804688 101.414063 L 427.960938 124.417969 L 429.140625 125.683594 L 452.609375 118.363281 L 459.335938 125.570313 L 427.804688 135.1875 L 418.386719 125.089844 L 430.050781 94.175781 L 436.804688 101.414063 "/>
<path style=" stroke:none;fill-rule:nonzero;fill:rgb(15.299988%,27.49939%,58.799744%);fill-opacity:1;" d="M 482.207031 161.894531 L 476.269531 165.546875 L 463.753906 145.199219 L 460.085938 147.453125 L 471.972656 166.78125 L 466.414063 170.199219 L 454.527344 150.875 L 450.519531 153.339844 L 463.125 173.839844 L 457.074219 177.558594 L 439.8125 149.5 L 465.039063 133.980469 L 482.207031 161.894531 "/>
<path style=" stroke:none;fill-rule:nonzero;fill:rgb(15.299988%,27.49939%,58.799744%);fill-opacity:1;" d="M 483.675781 260.792969 L 481.816406 241.300781 L 476.585938 239.257813 L 475.605469 229.003906 L 506.574219 241.796875 L 507.90625 255.761719 L 479.894531 273.996094 L 478.921875 263.789063 L 483.675781 260.792969 M 500.46875 250.269531 L 500.300781 248.503906 L 488.574219 243.867188 L 489.828125 257.039063 L 500.46875 250.269531 "/>
<path style=" stroke:none;fill-rule:nonzero;fill:rgb(15.299988%,27.49939%,58.799744%);fill-opacity:1;" d="M 507.59375 290.539063 L 485.636719 288.339844 L 483.539063 309.28125 L 476.03125 308.53125 L 479.070313 278.179688 L 508.535156 281.132813 L 507.59375 290.539063 "/>
<path style=" stroke:none;fill-rule:nonzero;fill:rgb(15.299988%,27.49939%,58.799744%);fill-opacity:1;" d="M 503.601563 321.996094 L 497.511719 342.375 C 495.460938 349.085938 495.460938 349.085938 494.996094 350.335938 C 493.269531 354.871094 491.023438 355.867188 485.878906 354.332031 C 481.835938 353.125 480.46875 351.648438 480.511719 348.558594 C 478.757813 352.109375 476.753906 352.761719 472.203125 351.402344 C 468.160156 350.195313 466.394531 348.511719 466.292969 345.746094 C 466.222656 343.964844 466.320313 343.484375 469.125 333.941406 L 475.222656 313.519531 L 503.601563 321.996094 M 475.929688 335.976563 C 474.4375 341.132813 474.4375 341.132813 474.542969 341.863281 C 474.625 342.675781 475.175781 343.164063 476.363281 343.519531 C 477.683594 343.914063 478.394531 343.707031 478.898438 342.792969 C 479.109375 342.394531 479.109375 342.394531 480.652344 337.386719 L 484.300781 325.175781 L 479.578125 323.765625 L 475.929688 335.976563 M 486.324219 339.03125 C 485.40625 342.097656 485.125 343.355469 485.214844 343.984375 C 485.277344 344.699219 485.914063 345.214844 486.9375 345.519531 C 488.125 345.875 488.878906 345.679688 489.359375 344.851563 C 489.582031 344.410156 489.621094 344.28125 490.832031 340.382813 L 494.46875 328.214844 L 489.957031 326.867188 L 486.324219 339.03125 "/>
<path style=" stroke:none;fill-rule:nonzero;fill:rgb(15.299988%,27.49939%,58.799744%);fill-opacity:1;" d="M 484.183594 375.78125 L 457.347656 363.257813 L 461.347656 354.6875 L 488.183594 367.214844 L 484.183594 375.78125 "/>
<path style=" stroke:none;fill-rule:nonzero;fill:rgb(15.299988%,27.49939%,58.799744%);fill-opacity:1;" d="M 457.269531 416.769531 C 454.570313 417.6875 451.726563 416.585938 444.6875 411.859375 C 437.605469 407.113281 435.503906 404.902344 435.328125 402.058594 C 435.148438 399.214844 436.449219 396.714844 443.273438 386.539063 C 450.222656 376.175781 452.015625 374.0625 454.714844 373.148438 C 457.476563 372.21875 460.257813 373.335938 467.480469 378.179688 C 474.34375 382.78125 476.480469 385.015625 476.65625 387.859375 C 476.832031 390.707031 475.558594 393.164063 468.660156 403.453125 C 461.761719 413.742188 459.96875 415.855469 457.269531 416.769531 M 466.640625 389.324219 C 466.089844 388.3125 464.785156 387.222656 461.652344 385.121094 C 458.59375 383.070313 457.445313 382.625 456.152344 383.039063 C 454.710938 383.515625 453.808594 384.621094 449.65625 390.816406 C 445.625 396.828125 444.953125 398.144531 445.023438 399.632813 C 445.121094 400.925781 446.015625 401.902344 449.003906 403.90625 C 452.652344 406.351563 454.203125 407.070313 455.460938 406.953125 C 457.023438 406.769531 457.679688 406.035156 462.277344 399.175781 C 467.226563 391.800781 467.585938 391.023438 466.640625 389.324219 "/>
<path style=" stroke:none;fill-rule:nonzero;fill:rgb(15.299988%,27.49939%,58.799744%);fill-opacity:1;" d="M 437.179688 440.71875 L 410.769531 435.261719 L 410.09375 435.902344 L 425.375 451.824219 L 418.679688 458.121094 L 398.390625 436.550781 L 409.804688 425.808594 L 436.304688 431.238281 L 437.019531 430.566406 L 421.703125 414.613281 L 428.398438 408.316406 L 448.691406 429.886719 L 437.179688 440.71875 "/>
<path style=" stroke:none;fill-rule:nonzero;fill:rgb(13.699341%,12.199402%,12.5%);fill-opacity:1;" d="M 111.40625 416.761719 C 109.433594 418.921875 108.46875 420.6875 108.46875 422.433594 C 108.46875 423.121094 108.625 423.804688 108.921875 424.507813 C 106.628906 424.328125 104.792969 425.640625 102.816406 427.800781 C 98.859375 432.132813 98.761719 435.195313 102.460938 439.109375 C 103.40625 440.101563 103.40625 440.101563 108.578125 444.886719 L 124.28125 459.242188 C 124.476563 459.421875 124.734375 459.515625 125 459.503906 C 125.265625 459.492188 125.515625 459.375 125.691406 459.179688 L 145.675781 437.316406 C 146.046875 436.910156 146.019531 436.277344 145.609375 435.90625 L 129.878906 421.527344 C 122.476563 414.820313 122.023438 414.453125 120.207031 413.660156 C 116.433594 412.003906 113.519531 414.449219 111.40625 416.761719 M 111.863281 426.789063 C 112.15625 426.429688 112.164063 425.910156 111.878906 425.542969 C 109.914063 423.019531 109.769531 421.515625 112.882813 418.113281 C 116.023438 414.671875 117.875 414.820313 119.40625 415.496094 C 120.878906 416.136719 121.222656 416.382813 128.535156 423.007813 C 128.535156 423.007813 142.183594 435.480469 143.523438 436.707031 C 142.308594 438.035156 126.105469 455.761719 124.890625 457.089844 C 123.550781 455.863281 109.933594 443.417969 109.933594 443.417969 C 104.8125 438.675781 104.8125 438.675781 103.90625 437.730469 C 102.476563 436.214844 101.753906 435.003906 101.753906 433.753906 C 101.753906 432.402344 102.59375 431.011719 104.296875 429.152344 C 107.109375 426.074219 108.582031 426.023438 110.640625 427.050781 C 111.058594 427.261719 111.566406 427.152344 111.863281 426.789063 "/>
<path style=" stroke:none;fill-rule:nonzero;fill:rgb(13.699341%,12.199402%,12.5%);fill-opacity:1;" d="M 110.292969 432.589844 C 109.128906 433.863281 108.945313 435.109375 109.746094 436.296875 C 110.128906 436.796875 110.183594 436.847656 113.136719 439.605469 L 113.277344 439.738281 L 122.65625 448.316406 C 122.855469 448.492188 123.113281 448.585938 123.378906 448.574219 C 123.644531 448.5625 123.890625 448.445313 124.070313 448.25 L 127.246094 444.777344 C 127.617188 444.367188 127.589844 443.738281 127.183594 443.363281 L 117.8125 434.796875 C 115.226563 432.433594 114.25 431.679688 113.464844 431.429688 C 112.90625 431.21875 111.683594 431.066406 110.292969 432.589844 M 114.503906 438.144531 C 111.695313 435.527344 111.609375 435.441406 111.371094 435.128906 C 111.242188 434.9375 111.078125 434.691406 111.769531 433.9375 C 112.1875 433.480469 112.59375 433.238281 112.808594 433.316406 C 113.382813 433.503906 114.972656 434.914063 116.460938 436.273438 C 116.460938 436.273438 123.84375 443.019531 125.097656 444.164063 C 124.484375 444.835938 123.882813 445.496094 123.269531 446.164063 C 122.015625 445.019531 114.636719 438.269531 114.636719 438.269531 C 114.644531 438.277344 114.503906 438.144531 114.503906 438.144531 "/>
<path style=" stroke:none;fill-rule:nonzero;fill:rgb(13.699341%,12.199402%,12.5%);fill-opacity:1;" d="M 116.691406 423.941406 C 115.90625 424.804688 114.996094 426.140625 116.164063 427.789063 C 116.5 428.246094 116.5 428.246094 120.40625 431.878906 L 129.816406 440.480469 C 130.226563 440.855469 130.855469 440.824219 131.230469 440.417969 L 134.554688 436.78125 C 134.929688 436.371094 134.898438 435.742188 134.492188 435.367188 C 134.492188 435.367188 125.082031 426.765625 125.082031 426.765625 C 120.925781 423.027344 120.925781 423.027344 120.015625 422.742188 C 118.523438 422.199219 117.402344 423.167969 116.691406 423.941406 M 121.761719 430.410156 C 118.070313 426.976563 117.996094 426.90625 117.789063 426.621094 C 117.695313 426.488281 117.613281 426.375 117.613281 426.21875 C 117.613281 426.019531 117.75 425.75 118.167969 425.289063 C 118.921875 424.46875 119.191406 424.570313 119.371094 424.636719 C 119.890625 424.800781 119.910156 424.804688 123.742188 428.25 C 123.746094 428.253906 131.152344 435.023438 132.40625 436.171875 C 131.765625 436.867188 131.066406 437.632813 130.429688 438.332031 C 129.175781 437.183594 121.761719 430.410156 121.761719 430.410156 "/>
<path style=" stroke:none;fill-rule:nonzero;fill:rgb(13.699341%,12.199402%,12.5%);fill-opacity:1;" d="M 91.695313 376.628906 L 89.460938 378.238281 C 85.679688 380.820313 83.832031 382.554688 83.832031 384.863281 C 83.832031 385.078125 83.925781 385.332031 83.960938 385.5625 C 83.734375 385.46875 83.511719 385.378906 83.269531 385.308594 C 80.816406 384.542969 78.742188 385.585938 75.308594 388.0625 C 71.320313 390.941406 69.46875 392.910156 69.734375 396.292969 C 69.9375 398.796875 70.054688 398.953125 76.078125 407.304688 L 88.832031 424.984375 C 88.984375 425.199219 89.21875 425.34375 89.480469 425.386719 C 89.742188 425.425781 90.011719 425.363281 90.226563 425.210938 L 114.242188 407.882813 C 114.691406 407.558594 114.792969 406.933594 114.46875 406.484375 L 109.195313 399.175781 C 108.871094 398.726563 108.246094 398.628906 107.800781 398.949219 C 107.800781 398.949219 103.746094 401.878906 102.527344 402.757813 C 101.53125 401.378906 95.65625 393.230469 95.65625 393.230469 C 93.863281 390.75 93.507813 390.113281 93.507813 389.699219 C 93.507813 389.632813 93.515625 389.570313 93.53125 389.507813 C 93.65625 388.859375 94.15625 388.265625 96.800781 386.359375 L 98.058594 385.449219 C 98.332031 385.253906 98.472656 384.949219 98.472656 384.636719 C 98.472656 384.433594 98.414063 384.230469 98.285156 384.054688 L 93.089844 376.851563 C 92.769531 376.402344 92.144531 376.304688 91.695313 376.628906 M 86.628906 389.152344 C 86.886719 388.960938 87.027344 388.65625 87.027344 388.351563 C 87.027344 388.1875 86.988281 388.019531 86.902344 387.863281 C 86.234375 386.671875 85.789063 385.796875 85.789063 384.964844 C 85.789063 383.574219 87.042969 382.308594 90.609375 379.875 C 90.609375 379.875 91.390625 379.3125 92.054688 378.832031 C 92.859375 379.949219 95.273438 383.296875 96.078125 384.414063 C 95.871094 384.5625 95.628906 384.738281 95.628906 384.738281 C 92.875 386.722656 91.847656 387.679688 91.574219 389.089844 C 91.523438 389.316406 91.496094 389.527344 91.496094 389.738281 C 91.496094 390.828125 92.21875 391.886719 94.035156 394.402344 L 101.488281 404.734375 C 101.8125 405.183594 102.4375 405.285156 102.886719 404.964844 C 102.886719 404.964844 106.941406 402.035156 108.160156 401.15625 C 108.96875 402.28125 111.453125 405.722656 112.261719 406.84375 C 110.800781 407.898438 91.328125 421.949219 89.867188 423.003906 C 88.800781 421.523438 77.699219 406.132813 77.699219 406.132813 C 71.886719 398.078125 71.886719 398.078125 71.726563 396.132813 C 71.714844 395.964844 71.707031 395.804688 71.707031 395.644531 C 71.707031 393.910156 72.582031 392.5 76.480469 389.683594 C 80.121094 387.058594 81.34375 386.800781 82.695313 387.226563 C 83.488281 387.453125 84.074219 387.78125 85.3125 389.050781 C 85.664063 389.410156 86.226563 389.453125 86.628906 389.152344 "/>
<path style=" stroke:none;fill-rule:nonzero;fill:rgb(13.699341%,12.199402%,12.5%);fill-opacity:1;" d="M 81.664063 394.59375 C 80.03125 395.769531 79.023438 396.894531 79.398438 398.5625 C 79.585938 399.414063 79.679688 399.550781 82.097656 402.976563 L 89.570313 413.335938 C 89.726563 413.550781 89.960938 413.695313 90.222656 413.738281 C 90.484375 413.78125 90.753906 413.714844 90.96875 413.5625 L 96.871094 409.300781 C 97.320313 408.976563 97.421875 408.351563 97.097656 407.90625 C 97.097656 407.90625 89.660156 397.59375 89.65625 397.589844 C 86.804688 393.796875 86.75 393.722656 85.730469 393.378906 C 84.480469 392.867188 83.195313 393.492188 81.664063 394.59375 M 83.761719 401.867188 C 81.453125 398.589844 81.445313 398.5625 81.347656 398.128906 C 81.335938 398.0625 81.320313 397.992188 81.320313 397.910156 C 81.320313 397.609375 81.535156 397.152344 82.832031 396.214844 C 84.292969 395.160156 84.777344 395.148438 85.035156 395.253906 C 85.507813 395.414063 85.523438 395.421875 88.050781 398.785156 C 88.0625 398.800781 93.898438 406.886719 94.890625 408.265625 C 93.875 408.996094 91.621094 410.621094 90.609375 411.355469 C 89.613281 409.976563 83.761719 401.867188 83.761719 401.867188 "/>
<path style=" stroke:none;fill-rule:nonzero;fill:rgb(13.699341%,12.199402%,12.5%);fill-opacity:1;" d="M 84.824219 362.003906 L 58.5625 375.691406 C 58.328125 375.8125 58.152344 376.023438 58.070313 376.277344 C 57.992188 376.53125 58.015625 376.804688 58.136719 377.039063 L 62.507813 385.425781 C 62.765625 385.914063 63.367188 386.105469 63.859375 385.847656 L 90.121094 372.160156 C 90.355469 372.039063 90.53125 371.828125 90.609375 371.574219 C 90.691406 371.320313 90.667969 371.046875 90.542969 370.8125 L 86.171875 362.425781 C 85.917969 361.9375 85.3125 361.746094 84.824219 362.003906 M 84.859375 364.238281 C 85.511719 365.488281 87.65625 369.601563 88.308594 370.851563 C 86.710938 371.683594 65.417969 382.78125 63.820313 383.613281 C 63.167969 382.363281 61.027344 378.253906 60.375 377.003906 C 61.972656 376.167969 83.265625 365.070313 84.859375 364.238281 "/>
<path style=" stroke:none;fill-rule:nonzero;fill:rgb(13.699341%,12.199402%,12.5%);fill-opacity:1;" d="M 62.53125 321.367188 C 61.140625 321.703125 56.300781 323.160156 53.425781 324.144531 L 52.667969 324.402344 C 52.417969 324.488281 52.210938 324.671875 52.09375 324.90625 C 51.976563 325.144531 51.957031 325.421875 52.042969 325.671875 L 58.71875 345.210938 C 58.804688 345.460938 58.984375 345.667969 59.222656 345.785156 C 59.460938 345.902344 59.738281 345.917969 59.988281 345.832031 L 65.578125 343.925781 C 65.828125 343.839844 66.035156 343.65625 66.152344 343.417969 C 66.21875 343.277344 66.253906 343.128906 66.253906 342.976563 C 66.253906 342.867188 66.234375 342.757813 66.199219 342.652344 C 66.199219 342.652344 63.242188 333.996094 62.695313 332.394531 C 64.761719 331.695313 64.875 331.921875 67.953125 340.929688 L 69.574219 345.941406 C 70.285156 348.300781 70.332031 348.832031 70.109375 349.421875 C 69.808594 350.226563 68.371094 350.941406 64.191406 352.371094 C 60.746094 353.550781 59.183594 354.042969 58.273438 353.398438 C 57.167969 352.617188 56.238281 349.886719 54.691406 345.363281 C 52.960938 340.289063 52.066406 337.378906 52.320313 336.507813 C 52.378906 336.300781 52.402344 336.21875 53.828125 335.691406 C 54.339844 335.503906 54.601563 334.945313 54.429688 334.429688 L 51.515625 325.898438 C 51.429688 325.648438 51.246094 325.441406 51.003906 325.324219 C 50.765625 325.207031 50.488281 325.191406 50.234375 325.28125 C 46.316406 326.664063 44.238281 327.683594 43.015625 329.734375 C 41.238281 332.636719 41.828125 336.835938 45.539063 347.695313 C 51.695313 365.714844 53.308594 367.726563 67.414063 362.90625 C 76.574219 359.777344 79.007813 358.507813 79.957031 354.867188 C 80.804688 351.757813 80.1875 348.574219 76.796875 338.660156 C 74.195313 331.039063 72.980469 328.050781 71.378906 325.328125 C 69.339844 321.816406 66.359375 320.484375 62.53125 321.367188 M 62.988281 323.3125 C 65.9375 322.632813 68.054688 323.59375 69.652344 326.339844 C 71.175781 328.925781 72.355469 331.835938 74.90625 339.304688 C 78.132813 348.753906 78.746094 351.707031 78.023438 354.351563 C 77.378906 356.828125 75.984375 357.867188 66.769531 361.015625 C 54.210938 365.304688 53.488281 364.78125 47.429688 347.046875 C 45.097656 340.21875 44.046875 336.203125 44.046875 333.617188 C 44.046875 332.398438 44.28125 331.496094 44.726563 330.769531 C 45.472656 329.515625 46.824219 328.691406 49.957031 327.527344 C 50.417969 328.878906 51.796875 332.914063 52.226563 334.171875 C 51.226563 334.59375 50.664063 335.007813 50.398438 335.957031 C 50.320313 336.21875 50.277344 336.507813 50.277344 336.855469 C 50.277344 338.253906 50.949219 340.597656 52.800781 346.011719 C 56.316406 356.304688 56.773438 357.019531 64.839844 354.265625 C 69.65625 352.617188 71.363281 351.789063 71.984375 350.121094 C 72.460938 348.855469 72.210938 347.75 71.480469 345.34375 L 69.851563 340.300781 C 66.46875 330.398438 66.035156 329.128906 61.898438 330.539063 L 61.097656 330.8125 C 60.679688 330.957031 60.421875 331.34375 60.421875 331.757813 C 60.421875 331.867188 60.4375 331.976563 60.472656 332.082031 C 60.472656 332.082031 63.441406 340.765625 63.984375 342.355469 C 62.945313 342.710938 61.328125 343.261719 60.289063 343.617188 C 59.730469 341.992188 54.816406 327.601563 54.261719 325.972656 C 57.042969 325.03125 61.691406 323.625 62.988281 323.3125 "/>
<path style=" stroke:none;fill-rule:nonzero;fill:rgb(13.699341%,12.199402%,12.5%);fill-opacity:1;" d="M 63.117188 273.800781 L 33.679688 277.035156 C 33.414063 277.066406 33.171875 277.199219 33.007813 277.402344 C 32.84375 277.609375 32.765625 277.875 32.792969 278.140625 L 33.828125 287.539063 C 33.886719 288.089844 34.382813 288.484375 34.929688 288.425781 C 34.929688 288.425781 42.851563 287.550781 44.484375 287.375 C 44.671875 289.078125 46.304688 303.9375 46.492188 305.640625 C 44.863281 305.820313 36.941406 306.691406 36.941406 306.691406 C 36.429688 306.75 36.050781 307.183594 36.050781 307.6875 C 36.050781 307.722656 36.050781 307.757813 36.054688 307.796875 L 37.089844 317.195313 C 37.117188 317.460938 37.25 317.703125 37.457031 317.867188 C 37.664063 318.035156 37.929688 318.109375 38.191406 318.082031 L 67.628906 314.84375 C 67.894531 314.816406 68.132813 314.683594 68.300781 314.476563 C 68.464844 314.269531 68.542969 314.007813 68.515625 313.742188 L 67.480469 304.339844 C 67.417969 303.792969 66.925781 303.394531 66.378906 303.457031 C 66.378906 303.457031 58.367188 304.335938 56.734375 304.515625 C 56.546875 302.8125 54.914063 287.953125 54.726563 286.246094 C 56.359375 286.066406 64.367188 285.1875 64.367188 285.1875 C 64.878906 285.132813 65.257813 284.699219 65.257813 284.195313 C 65.257813 284.15625 65.257813 284.121094 65.253906 284.085938 L 64.21875 274.683594 C 64.191406 274.421875 64.058594 274.179688 63.851563 274.011719 C 63.644531 273.847656 63.378906 273.769531 63.117188 273.800781 M 62.339844 275.894531 C 62.496094 277.296875 63 281.90625 63.15625 283.308594 C 61.523438 283.488281 53.511719 284.367188 53.511719 284.367188 C 53 284.425781 52.621094 284.859375 52.621094 285.363281 C 52.621094 285.398438 52.625 285.433594 52.628906 285.472656 L 54.855469 305.730469 C 54.914063 306.277344 55.410156 306.675781 55.960938 306.613281 C 55.960938 306.613281 63.96875 305.734375 65.601563 305.554688 C 65.757813 306.957031 66.261719 311.566406 66.417969 312.964844 C 64.625 313.164063 40.757813 315.789063 38.96875 315.984375 C 38.8125 314.582031 38.304688 309.972656 38.152344 308.570313 C 39.78125 308.390625 47.707031 307.519531 47.707031 307.519531 C 48.21875 307.464844 48.597656 307.03125 48.597656 306.527344 C 48.597656 306.492188 48.59375 306.453125 48.589844 306.417969 L 46.363281 286.160156 C 46.300781 285.613281 45.808594 285.214844 45.261719 285.277344 C 45.261719 285.277344 37.335938 286.148438 35.707031 286.324219 C 35.550781 284.925781 35.046875 280.316406 34.890625 278.914063 C 36.683594 278.71875 60.550781 276.09375 62.339844 275.894531 "/>
<path style=" stroke:none;fill-rule:nonzero;fill:rgb(13.699341%,12.199402%,12.5%);fill-opacity:1;" d="M 36.535156 230.71875 C 36.332031 230.890625 36.203125 231.132813 36.179688 231.398438 L 32.875 267.074219 C 32.824219 267.625 33.230469 268.113281 33.78125 268.164063 L 41.296875 268.859375 C 41.558594 268.882813 41.824219 268.800781 42.027344 268.632813 C 42.230469 268.464844 42.359375 268.21875 42.382813 267.957031 C 42.382813 267.957031 43.347656 257.523438 43.507813 255.820313 C 45.324219 255.988281 64.484375 257.761719 64.484375 257.761719 C 64.746094 257.785156 65.011719 257.707031 65.214844 257.535156 C 65.417969 257.367188 65.546875 257.125 65.570313 256.859375 L 66.445313 247.441406 C 66.445313 247.410156 66.449219 247.378906 66.449219 247.347656 C 66.449219 246.839844 66.058594 246.402344 65.539063 246.355469 C 65.539063 246.355469 46.378906 244.582031 44.5625 244.414063 C 44.71875 242.710938 45.6875 232.277344 45.6875 232.277344 C 45.691406 232.246094 45.691406 232.214844 45.691406 232.183594 C 45.691406 231.953125 45.609375 231.726563 45.460938 231.546875 C 45.289063 231.34375 45.046875 231.214844 44.78125 231.191406 L 37.265625 230.492188 C 37.003906 230.46875 36.738281 230.550781 36.535156 230.71875 M 38.078125 232.578125 C 39.347656 232.695313 42.332031 232.972656 43.601563 233.089844 C 43.445313 234.789063 42.480469 245.222656 42.480469 245.222656 C 42.476563 245.253906 42.476563 245.285156 42.476563 245.316406 C 42.476563 245.550781 42.554688 245.773438 42.707031 245.953125 C 42.875 246.160156 43.117188 246.285156 43.382813 246.3125 C 43.382813 246.3125 62.542969 248.085938 64.359375 248.253906 C 64.230469 249.65625 63.800781 254.273438 63.671875 255.679688 C 61.855469 255.511719 42.695313 253.738281 42.695313 253.738281 C 42.144531 253.6875 41.660156 254.089844 41.609375 254.640625 C 41.609375 254.640625 40.640625 265.074219 40.484375 266.777344 C 39.214844 266.65625 36.230469 266.382813 34.960938 266.265625 C 35.128906 264.4375 37.910156 234.40625 38.078125 232.578125 "/>
<path style=" stroke:none;fill-rule:nonzero;fill:rgb(13.699341%,12.199402%,12.5%);fill-opacity:1;" d="M 51.1875 184.242188 C 48.621094 186.066406 47.503906 188.539063 43.710938 200.785156 C 41.042969 209.382813 40.015625 213.257813 40.015625 215.828125 C 40.015625 216.921875 40.203125 217.773438 40.527344 218.652344 C 41.644531 221.699219 44.382813 223.328125 52.726563 225.914063 C 61.460938 228.621094 64.585938 228.84375 67.273438 226.945313 C 69.84375 225.121094 70.964844 222.636719 74.78125 210.320313 C 78.554688 198.148438 79.027344 195.488281 77.941406 192.53125 C 76.820313 189.488281 74.035156 187.84375 65.527344 185.207031 C 57.050781 182.582031 53.832031 182.363281 51.1875 184.242188 M 53.320313 224.003906 C 45.796875 221.671875 43.246094 220.261719 42.402344 217.964844 C 41.523438 215.574219 42.035156 212.941406 45.617188 201.375 C 49.203125 189.808594 50.273438 187.347656 52.347656 185.875 C 54.34375 184.457031 57.28125 184.746094 64.933594 187.117188 C 72.617188 189.5 75.21875 190.925781 76.0625 193.222656 C 76.929688 195.585938 76.394531 198.359375 72.871094 209.726563 C 69.265625 221.363281 68.191406 223.839844 66.117188 225.3125 C 64.089844 226.746094 61.21875 226.453125 53.320313 224.003906 M 51.1875 184.242188 L 51.1875 184.242188 "/>
<path style=" stroke:none;fill-rule:nonzero;fill:rgb(13.699341%,12.199402%,12.5%);fill-opacity:1;" d="M 55.933594 193.023438 C 54.007813 193.851563 53.527344 195.054688 51.046875 203.058594 C 49.527344 207.957031 48.765625 210.492188 48.765625 212.121094 C 48.765625 213.285156 49.15625 213.984375 49.941406 214.753906 C 50.898438 215.703125 52.449219 216.394531 56.328125 217.59375 C 59.960938 218.71875 61.523438 218.933594 63.054688 217.886719 C 64.617188 216.796875 65.238281 215.164063 67.445313 208.046875 C 69.65625 200.902344 69.941406 199.347656 69.347656 197.644531 C 68.675781 195.890625 66.980469 195.09375 63.664063 194.066406 C 59.1875 192.679688 57.382813 192.4375 55.933594 193.023438 M 56.917969 215.683594 C 53.523438 214.632813 52.015625 213.992188 51.34375 213.332031 C 51.34375 213.328125 51.34375 213.328125 51.339844 213.324219 C 50.429688 212.4375 50.351563 212.050781 52.957031 203.648438 C 55.332031 195.988281 55.699219 195.300781 56.703125 194.871094 C 57.59375 194.511719 59.265625 194.800781 63.074219 195.976563 C 66.425781 197.015625 67.183594 197.585938 67.46875 198.332031 C 67.839844 199.390625 67.640625 200.652344 65.535156 207.453125 C 63.429688 214.25 62.886719 215.5625 61.917969 216.242188 C 61.214844 216.722656 60.363281 216.75 56.917969 215.683594 M 49.941406 214.757813 C 49.941406 214.753906 49.9375 214.753906 49.9375 214.75 C 49.9375 214.753906 49.941406 214.753906 49.941406 214.757813 "/>
<path style=" stroke:none;fill-rule:nonzero;fill:rgb(13.699341%,12.199402%,12.5%);fill-opacity:1;" d="M 76.167969 133.890625 L 71.535156 141.832031 C 71.445313 141.984375 71.402344 142.160156 71.402344 142.335938 C 71.402344 142.421875 71.410156 142.507813 71.433594 142.59375 C 71.503906 142.851563 71.671875 143.070313 71.90625 143.203125 C 71.90625 143.203125 86.722656 151.648438 89.453125 153.203125 C 86.667969 153.4375 64.152344 155.335938 64.152344 155.335938 C 63.828125 155.363281 63.535156 155.550781 63.371094 155.828125 L 55.410156 169.484375 C 55.316406 169.644531 55.273438 169.816406 55.273438 169.988281 C 55.273438 170.332031 55.449219 170.664063 55.769531 170.851563 L 81.351563 185.773438 C 81.578125 185.90625 81.851563 185.941406 82.109375 185.875 C 82.367188 185.808594 82.585938 185.640625 82.71875 185.410156 L 87.347656 177.472656 C 87.4375 177.316406 87.484375 177.144531 87.484375 176.96875 C 87.484375 176.882813 87.472656 176.796875 87.449219 176.710938 C 87.382813 176.449219 87.210938 176.230469 86.980469 176.101563 C 86.980469 176.101563 71.980469 167.550781 69.335938 166.046875 C 71.988281 165.816406 94.800781 163.851563 94.800781 163.851563 C 95.125 163.824219 95.417969 163.640625 95.582031 163.359375 L 103.476563 149.820313 C 103.570313 149.660156 103.613281 149.488281 103.613281 149.316406 C 103.613281 148.972656 103.433594 148.636719 103.117188 148.453125 L 77.535156 133.53125 C 77.058594 133.253906 76.445313 133.414063 76.167969 133.890625 M 77.390625 135.761719 C 78.949219 136.671875 99.6875 148.769531 101.246094 149.675781 C 100.394531 151.136719 94.570313 161.121094 94.113281 161.902344 C 93.121094 161.988281 67.679688 164.179688 67.679688 164.179688 C 67.355469 164.207031 67.066406 164.390625 66.902344 164.671875 L 66.410156 165.515625 C 66.320313 165.671875 66.273438 165.84375 66.273438 166.019531 C 66.273438 166.105469 66.285156 166.195313 66.308594 166.277344 C 66.375 166.535156 66.546875 166.757813 66.777344 166.890625 C 66.777344 166.890625 83.515625 176.425781 85.113281 177.335938 C 84.40625 178.550781 82.195313 182.335938 81.496094 183.539063 C 79.9375 182.632813 59.195313 170.535156 57.640625 169.628906 C 58.492188 168.164063 64.378906 158.070313 64.839844 157.285156 C 65.835938 157.203125 91.1875 155.0625 91.1875 155.0625 C 91.511719 155.035156 91.804688 154.851563 91.96875 154.570313 L 92.4375 153.765625 C 92.527344 153.609375 92.574219 153.4375 92.574219 153.261719 C 92.574219 153.175781 92.5625 153.085938 92.539063 153 C 92.46875 152.742188 92.300781 152.523438 92.070313 152.390625 C 92.070313 152.390625 75.371094 142.878906 73.773438 141.964844 C 74.480469 140.753906 76.6875 136.964844 77.390625 135.761719 "/>
<path style=" stroke:none;fill-rule:nonzero;fill:rgb(13.699341%,12.199402%,12.5%);fill-opacity:1;" d="M 155.957031 63.238281 L 143.902344 70.414063 C 143.582031 70.605469 143.394531 70.953125 143.414063 71.324219 L 145.097656 104.789063 C 145.113281 105.140625 145.316406 105.453125 145.625 105.621094 C 145.933594 105.785156 146.308594 105.777344 146.609375 105.597656 L 155.460938 100.328125 C 155.761719 100.148438 155.945313 99.820313 155.945313 99.46875 C 155.945313 99.445313 155.945313 99.421875 155.945313 99.398438 C 155.945313 99.398438 155.664063 95.382813 155.59375 94.40625 C 156.554688 93.835938 170.402344 85.59375 171.359375 85.019531 C 172.183594 85.546875 175.585938 87.707031 175.585938 87.707031 C 175.902344 87.910156 176.308594 87.914063 176.632813 87.722656 L 185.445313 82.476563 C 185.746094 82.296875 185.929688 81.972656 185.933594 81.621094 C 185.933594 81.273438 185.753906 80.945313 185.457031 80.765625 L 156.992188 63.246094 C 156.675781 63.050781 156.277344 63.046875 155.957031 63.238281 M 156.460938 65.265625 C 157.402344 65.847656 180.507813 80.066406 183.003906 81.601563 C 181.148438 82.707031 176.910156 85.226563 176.136719 85.6875 C 175.3125 85.164063 171.914063 83.003906 171.914063 83.003906 C 171.597656 82.800781 171.191406 82.792969 170.867188 82.988281 L 154.042969 93.003906 C 153.738281 93.183594 153.554688 93.511719 153.554688 93.863281 C 153.554688 93.886719 153.554688 93.910156 153.558594 93.933594 C 153.558594 93.933594 153.839844 97.949219 153.90625 98.925781 C 153.132813 99.386719 148.878906 101.921875 147.011719 103.03125 C 146.863281 100.089844 145.496094 72.925781 145.441406 71.824219 C 146.347656 71.285156 155.550781 65.808594 156.460938 65.265625 "/>
<path style=" stroke:none;fill-rule:nonzero;fill:rgb(13.699341%,12.199402%,12.5%);fill-opacity:1;" d="M 154.175781 72.308594 L 152.648438 73.214844 C 152.324219 73.410156 152.136719 73.765625 152.160156 74.140625 L 152.988281 86.722656 C 153.011719 87.070313 153.210938 87.382813 153.519531 87.542969 C 153.828125 87.703125 154.195313 87.695313 154.496094 87.515625 L 165.867188 80.75 C 166.164063 80.570313 166.351563 80.25 166.355469 79.902344 C 166.359375 79.554688 166.183594 79.230469 165.886719 79.042969 L 155.21875 72.320313 C 154.902344 72.121094 154.496094 72.113281 154.175781 72.308594 M 154.671875 74.339844 C 155.480469 74.851563 161.464844 78.621094 163.441406 79.863281 C 161.589844 80.96875 156.726563 83.859375 154.875 84.964844 C 154.722656 82.632813 154.261719 75.578125 154.199219 74.621094 C 154.410156 74.492188 154.457031 74.46875 154.671875 74.339844 "/>
<path style=" stroke:none;fill-rule:nonzero;fill:rgb(13.699341%,12.199402%,12.5%);fill-opacity:1;" d="M 218.515625 38.496094 L 209.761719 41.296875 C 209.507813 41.378906 209.296875 41.558594 209.175781 41.796875 C 209.101563 41.9375 209.066406 42.09375 209.066406 42.25 C 209.066406 42.355469 209.082031 42.460938 209.117188 42.5625 C 209.117188 42.5625 214.476563 58.757813 215.464844 61.734375 C 213.238281 60.050781 195.234375 46.390625 195.234375 46.390625 C 194.976563 46.191406 194.636719 46.132813 194.324219 46.234375 L 179.269531 51.046875 C 179.019531 51.128906 178.808594 51.308594 178.6875 51.542969 C 178.566406 51.777344 178.542969 52.054688 178.621094 52.304688 L 187.644531 80.511719 C 187.726563 80.765625 187.902344 80.976563 188.140625 81.097656 C 188.375 81.21875 188.648438 81.242188 188.902344 81.160156 L 197.65625 78.359375 C 197.910156 78.277344 198.121094 78.101563 198.242188 77.863281 C 198.3125 77.71875 198.351563 77.566406 198.351563 77.40625 C 198.351563 77.300781 198.335938 77.195313 198.300781 77.09375 C 198.300781 77.09375 192.878906 60.703125 191.921875 57.816406 C 194.042969 59.421875 212.3125 73.230469 212.3125 73.230469 C 212.570313 73.425781 212.910156 73.480469 213.21875 73.382813 L 228.144531 68.609375 C 228.398438 68.527344 228.609375 68.351563 228.730469 68.113281 C 228.851563 67.878906 228.875 67.605469 228.796875 67.351563 L 219.773438 39.144531 C 219.605469 38.617188 219.042969 38.328125 218.515625 38.496094 M 218.171875 40.707031 C 218.722656 42.421875 226.035156 65.292969 226.585938 67.007813 C 224.972656 67.523438 213.964844 71.046875 213.101563 71.320313 C 212.308594 70.71875 191.9375 55.320313 191.9375 55.320313 C 191.679688 55.125 191.339844 55.066406 191.027344 55.164063 L 190.097656 55.464844 C 189.84375 55.546875 189.632813 55.726563 189.511719 55.964844 C 189.441406 56.105469 189.402344 56.261719 189.402344 56.414063 C 189.402344 56.523438 189.421875 56.628906 189.453125 56.730469 C 189.453125 56.730469 195.507813 75.015625 196.085938 76.765625 C 194.746094 77.191406 190.570313 78.527344 189.246094 78.949219 C 188.695313 77.234375 181.382813 54.363281 180.832031 52.648438 C 182.445313 52.132813 193.574219 48.574219 194.441406 48.296875 C 195.238281 48.902344 215.507813 64.28125 215.507813 64.28125 C 215.765625 64.476563 216.105469 64.535156 216.414063 64.4375 L 217.304688 64.152344 C 217.558594 64.070313 217.769531 63.890625 217.890625 63.652344 C 217.964844 63.511719 218 63.355469 218 63.199219 C 218 63.09375 217.984375 62.988281 217.949219 62.886719 C 217.949219 62.886719 211.910156 44.640625 211.332031 42.894531 C 212.671875 42.464844 216.847656 41.132813 218.171875 40.707031 "/>
<path style=" stroke:none;fill-rule:nonzero;fill:rgb(13.699341%,12.199402%,12.5%);fill-opacity:1;" d="M 253.101563 34.195313 L 231.824219 36.007813 C 231.558594 36.03125 231.316406 36.15625 231.144531 36.359375 C 230.972656 36.5625 230.890625 36.824219 230.910156 37.089844 L 233.425781 66.597656 C 233.472656 67.148438 233.957031 67.558594 234.507813 67.511719 L 255.785156 65.695313 C 266.03125 64.824219 268.738281 64.105469 271.042969 61.644531 C 273.273438 59.210938 273.746094 56.007813 273.058594 47.9375 C 272.636719 43.007813 272.28125 41.074219 271.398438 38.949219 C 270.144531 35.964844 267.730469 34.195313 264.40625 33.832031 C 261.699219 33.496094 260.585938 33.558594 253.101563 34.195313 M 253.273438 36.1875 C 260.808594 35.546875 261.726563 35.515625 264.175781 35.816406 C 266.816406 36.109375 268.570313 37.386719 269.550781 39.722656 C 270.339844 41.617188 270.664063 43.417969 271.0625 48.105469 C 271.25 50.285156 271.347656 52.078125 271.347656 53.574219 C 271.347656 57.089844 270.804688 58.945313 269.574219 60.285156 C 267.820313 62.160156 265.773438 62.839844 255.617188 63.703125 C 255.617188 63.703125 237.144531 65.277344 235.335938 65.433594 C 235.179688 63.636719 233.144531 39.714844 232.988281 37.917969 C 234.800781 37.761719 253.273438 36.1875 253.273438 36.1875 "/>
<path style=" stroke:none;fill-rule:nonzero;fill:rgb(13.699341%,12.199402%,12.5%);fill-opacity:1;" d="M 253.730469 41.585938 L 241.300781 42.644531 C 240.75 42.691406 240.34375 43.175781 240.390625 43.726563 L 241.632813 58.324219 C 241.679688 58.875 242.164063 59.28125 242.714844 59.234375 L 255.234375 58.167969 C 263.601563 57.457031 264.898438 56.789063 264.253906 49.222656 C 263.914063 45.253906 263.402344 43.539063 262.214844 42.4375 C 260.859375 41.132813 259.296875 41.109375 253.730469 41.585938 M 253.902344 43.578125 C 259.21875 43.125 260.160156 43.238281 260.839844 43.890625 C 261.589844 44.585938 261.984375 46.125 262.261719 49.390625 C 262.367188 50.628906 262.449219 51.613281 262.449219 52.40625 C 262.449219 55.472656 261.195313 55.652344 255.0625 56.175781 C 255.0625 56.175781 245.230469 57.011719 243.539063 57.15625 C 243.40625 55.554688 242.605469 46.152344 242.46875 44.550781 C 244.152344 44.40625 253.902344 43.578125 253.902344 43.578125 "/>
<path style=" stroke:none;fill-rule:nonzero;fill:rgb(13.699341%,12.199402%,12.5%);fill-opacity:1;" d="M 341.148438 43.296875 C 340.902344 43.398438 340.710938 43.597656 340.613281 43.84375 L 329.5625 71.316406 C 329.355469 71.828125 329.605469 72.410156 330.117188 72.617188 L 338.890625 76.148438 C 339.136719 76.246094 339.410156 76.242188 339.65625 76.140625 C 339.898438 76.035156 340.09375 75.839844 340.191406 75.59375 C 340.191406 75.59375 343.195313 68.117188 343.8125 66.59375 C 345.402344 67.234375 359.269531 72.8125 360.863281 73.449219 C 360.25 74.976563 357.242188 82.449219 357.242188 82.449219 C 357.195313 82.570313 357.171875 82.699219 357.171875 82.824219 C 357.171875 82.957031 357.195313 83.089844 357.25 83.214844 C 357.355469 83.460938 357.550781 83.652344 357.796875 83.753906 L 366.570313 87.28125 C 367.085938 87.488281 367.667969 87.238281 367.871094 86.726563 L 378.925781 59.25 C 379.023438 59.003906 379.019531 58.730469 378.914063 58.484375 C 378.8125 58.242188 378.613281 58.050781 378.367188 57.949219 L 369.59375 54.421875 C 369.082031 54.214844 368.5 54.464844 368.292969 54.976563 C 368.292969 54.976563 365.320313 62.371094 364.707031 63.894531 C 363.117188 63.253906 349.246094 57.675781 347.65625 57.035156 C 348.269531 55.511719 351.242188 48.117188 351.242188 48.117188 C 351.289063 47.996094 351.3125 47.871094 351.3125 47.742188 C 351.3125 47.609375 351.289063 47.476563 351.234375 47.351563 C 351.128906 47.109375 350.933594 46.914063 350.6875 46.816406 L 341.914063 43.285156 C 341.667969 43.1875 341.390625 43.191406 341.148438 43.296875 M 342.09375 45.515625 C 343.402344 46.042969 347.703125 47.773438 349.015625 48.300781 C 348.402344 49.820313 345.425781 57.214844 345.425781 57.214844 C 345.378906 57.335938 345.355469 57.464844 345.355469 57.589844 C 345.355469 57.722656 345.382813 57.855469 345.433594 57.980469 C 345.539063 58.226563 345.734375 58.417969 345.980469 58.515625 L 364.890625 66.121094 C 365.136719 66.222656 365.410156 66.21875 365.652344 66.113281 C 365.898438 66.011719 366.089844 65.8125 366.1875 65.566406 C 366.1875 65.566406 369.164063 58.171875 369.777344 56.648438 C 371.085938 57.175781 375.386719 58.90625 376.695313 59.433594 C 376.023438 61.105469 367.0625 83.382813 366.390625 85.054688 C 365.082031 84.527344 360.777344 82.796875 359.472656 82.269531 C 360.085938 80.746094 363.09375 73.269531 363.09375 73.269531 C 363.140625 73.148438 363.164063 73.023438 363.164063 72.898438 C 363.164063 72.761719 363.136719 72.628906 363.085938 72.503906 C 362.980469 72.261719 362.78125 72.066406 362.535156 71.96875 L 343.628906 64.363281 C 343.382813 64.265625 343.105469 64.269531 342.863281 64.371094 C 342.621094 64.476563 342.425781 64.671875 342.328125 64.917969 C 342.328125 64.917969 339.320313 72.394531 338.710938 73.917969 C 337.398438 73.394531 333.097656 71.660156 331.789063 71.136719 C 332.464844 69.464844 341.421875 47.1875 342.09375 45.515625 "/>
<path style=" stroke:none;fill-rule:nonzero;fill:rgb(13.699341%,12.199402%,12.5%);fill-opacity:1;" d="M 390.71875 66.847656 C 387.476563 67.003906 385.101563 69.125 380.136719 76.3125 C 374.933594 83.832031 373.785156 86.75 374.789063 89.882813 C 375.761719 92.878906 377.796875 94.695313 388.402344 102.027344 C 398.882813 109.273438 401.277344 110.519531 404.421875 110.371094 C 407.664063 110.214844 410.066406 108.050781 415.132813 100.722656 C 419.105469 94.976563 420.675781 91.890625 420.675781 89.332031 C 420.675781 88.640625 420.5625 87.988281 420.351563 87.335938 C 419.382813 84.339844 417.355469 82.53125 406.8125 75.238281 C 396.269531 67.949219 393.863281 66.695313 390.71875 66.847656 M 389.539063 100.382813 C 379.519531 93.453125 377.476563 91.6875 376.691406 89.265625 C 375.9375 86.902344 377.074219 84.253906 381.777344 77.449219 C 386.257813 70.972656 388.367188 68.960938 390.8125 68.84375 C 393.355469 68.722656 395.714844 70 405.675781 76.886719 C 415.636719 83.773438 417.664063 85.53125 418.445313 87.949219 C 419.199219 90.277344 418.042969 92.996094 413.488281 99.585938 C 408.914063 106.203125 406.773438 108.253906 404.328125 108.371094 C 401.8125 108.492188 399.328125 107.148438 389.539063 100.382813 M 420.351563 87.335938 C 420.351563 87.335938 420.351563 87.335938 420.351563 87.332031 C 420.351563 87.332031 420.351563 87.332031 420.351563 87.335938 "/>
<path style=" stroke:none;fill-rule:nonzero;fill:rgb(13.699341%,12.199402%,12.5%);fill-opacity:1;" d="M 391.617188 76.996094 C 390.425781 77.628906 389.300781 78.898438 386.992188 82.238281 C 385.300781 84.691406 384.519531 86.097656 384.519531 87.441406 C 384.519531 87.816406 384.578125 88.183594 384.695313 88.570313 C 385.269531 90.390625 386.640625 91.46875 392.769531 95.710938 C 398.921875 99.960938 400.320313 100.699219 402.121094 100.640625 C 403.996094 100.527344 405.261719 99.148438 407.238281 96.289063 C 409.902344 92.4375 410.675781 90.789063 410.550781 89.230469 C 410.339844 87.144531 409.335938 86.324219 402.445313 81.558594 C 395.207031 76.554688 393.9375 75.757813 391.617188 76.996094 M 393.90625 94.0625 C 388.054688 90.015625 386.964844 89.105469 386.605469 87.976563 C 386.359375 87.164063 386.589844 86.34375 388.636719 83.378906 C 390.660156 80.453125 391.722656 79.203125 392.550781 78.765625 C 392.554688 78.765625 392.558594 78.761719 392.558594 78.761719 C 393.683594 78.160156 394.070313 78.203125 401.308594 83.203125 C 407.902344 87.765625 408.449219 88.324219 408.558594 89.410156 C 408.636719 90.367188 407.859375 91.875 405.59375 95.152344 C 403.597656 98.042969 402.828125 98.59375 402.03125 98.640625 C 400.90625 98.679688 399.765625 98.113281 393.90625 94.0625 M 391.613281 77 C 391.613281 77 391.617188 76.996094 391.621094 76.996094 C 391.617188 76.996094 391.613281 77 391.613281 77 "/>
<path style=" stroke:none;fill-rule:nonzero;fill:rgb(13.699341%,12.199402%,12.5%);fill-opacity:1;" d="M 429.855469 93.191406 C 429.515625 93.261719 429.234375 93.496094 429.113281 93.820313 L 417.453125 124.734375 C 417.316406 125.09375 417.398438 125.492188 417.65625 125.769531 L 427.074219 135.867188 C 427.335938 136.148438 427.730469 136.253906 428.097656 136.144531 L 459.628906 126.527344 C 459.957031 126.425781 460.210938 126.164063 460.300781 125.832031 C 460.390625 125.496094 460.300781 125.144531 460.066406 124.890625 L 453.34375 117.679688 C 453.078125 117.398438 452.679688 117.296875 452.3125 117.410156 C 452.3125 117.410156 430.585938 124.1875 429.445313 124.539063 C 429.292969 124.378906 429.269531 124.355469 429.117188 124.191406 C 429.546875 123.085938 437.738281 101.773438 437.738281 101.773438 C 437.78125 101.65625 437.804688 101.535156 437.804688 101.414063 C 437.804688 101.164063 437.710938 100.921875 437.535156 100.730469 L 430.78125 93.492188 C 430.546875 93.238281 430.195313 93.128906 429.855469 93.191406 M 430.417969 96.035156 C 431.839844 97.5625 435.027344 100.976563 435.644531 101.640625 C 435.21875 102.75 427.027344 124.058594 427.027344 124.058594 C 426.980469 124.175781 426.960938 124.296875 426.960938 124.417969 C 426.960938 124.664063 427.054688 124.910156 427.230469 125.097656 L 428.410156 126.363281 C 428.671875 126.644531 429.070313 126.753906 429.4375 126.636719 C 429.4375 126.636719 451.167969 119.859375 452.308594 119.503906 C 452.929688 120.171875 456.09375 123.5625 457.511719 125.082031 C 454.792969 125.910156 429.203125 133.714844 428.109375 134.046875 C 427.371094 133.253906 420.277344 125.648438 419.542969 124.859375 C 419.941406 123.796875 429.40625 98.707031 430.417969 96.035156 "/>
<path style=" stroke:none;fill-rule:nonzero;fill:rgb(13.699341%,12.199402%,12.5%);fill-opacity:1;" d="M 464.515625 133.132813 L 439.289063 148.648438 C 439.0625 148.785156 438.902344 149.007813 438.839844 149.265625 C 438.777344 149.523438 438.820313 149.796875 438.960938 150.023438 L 456.222656 178.085938 C 456.511719 178.554688 457.128906 178.699219 457.597656 178.410156 L 463.648438 174.691406 C 463.875 174.550781 464.035156 174.328125 464.097656 174.070313 C 464.117188 173.992188 464.125 173.914063 464.125 173.839844 C 464.125 173.652344 464.074219 173.472656 463.976563 173.3125 C 463.976563 173.3125 452.855469 155.234375 451.894531 153.667969 C 452.664063 153.191406 453.425781 152.726563 454.199219 152.25 C 455.15625 153.808594 465.5625 170.722656 465.5625 170.722656 C 465.699219 170.949219 465.925781 171.109375 466.183594 171.171875 C 466.441406 171.234375 466.710938 171.191406 466.9375 171.050781 L 472.496094 167.632813 C 472.804688 167.441406 472.972656 167.113281 472.972656 166.777344 C 472.972656 166.601563 472.925781 166.421875 472.824219 166.257813 C 472.824219 166.257813 462.417969 149.339844 461.460938 147.78125 C 462.160156 147.351563 462.726563 147.003906 463.425781 146.574219 C 464.386719 148.136719 475.417969 166.066406 475.417969 166.066406 C 475.558594 166.296875 475.777344 166.457031 476.039063 166.515625 C 476.296875 166.578125 476.566406 166.535156 476.792969 166.394531 L 482.730469 162.742188 C 483.199219 162.453125 483.347656 161.839844 483.058594 161.367188 L 465.890625 133.460938 C 465.753906 133.230469 465.527344 133.070313 465.269531 133.011719 C 465.011719 132.949219 464.738281 132.992188 464.515625 133.132813 M 464.710938 135.359375 C 465.664063 136.910156 479.878906 160.015625 480.828125 161.566406 C 479.789063 162.203125 477.636719 163.527344 476.597656 164.167969 C 475.636719 162.605469 464.605469 144.675781 464.605469 144.675781 C 464.46875 144.449219 464.242188 144.285156 463.984375 144.226563 C 463.726563 144.164063 463.457031 144.207031 463.230469 144.347656 L 459.5625 146.601563 C 459.253906 146.789063 459.085938 147.121094 459.085938 147.457031 C 459.085938 147.632813 459.132813 147.816406 459.234375 147.980469 C 459.234375 147.980469 469.640625 164.894531 470.597656 166.453125 C 469.597656 167.066406 467.742188 168.210938 466.742188 168.824219 C 465.785156 167.265625 455.378906 150.351563 455.378906 150.351563 C 455.238281 150.125 455.015625 149.964844 454.757813 149.902344 C 454.5 149.839844 454.226563 149.882813 454.003906 150.023438 L 449.992188 152.488281 C 449.6875 152.675781 449.519531 153.007813 449.519531 153.339844 C 449.519531 153.519531 449.566406 153.699219 449.664063 153.863281 C 449.664063 153.863281 460.789063 171.945313 461.75 173.511719 C 460.699219 174.15625 458.453125 175.535156 457.402344 176.183594 C 456.449219 174.632813 442.144531 151.378906 441.1875 149.824219 C 442.722656 148.882813 463.175781 136.300781 464.710938 135.359375 "/>
<path style=" stroke:none;fill-rule:nonzero;fill:rgb(13.699341%,12.199402%,12.5%);fill-opacity:1;" d="M 475.011719 228.199219 C 474.753906 228.386719 474.605469 228.6875 474.605469 229.003906 C 474.605469 229.035156 474.605469 229.066406 474.609375 229.097656 L 475.589844 239.351563 C 475.625 239.726563 475.867188 240.050781 476.222656 240.1875 C 476.222656 240.1875 479.972656 241.652344 480.882813 242.007813 C 480.988281 243.121094 482.515625 259.160156 482.621094 260.273438 C 481.796875 260.796875 478.386719 262.941406 478.386719 262.941406 C 478.097656 263.125 477.921875 263.445313 477.921875 263.789063 C 477.921875 263.820313 477.921875 263.851563 477.925781 263.882813 L 478.898438 274.09375 C 478.933594 274.441406 479.144531 274.746094 479.460938 274.898438 C 479.773438 275.050781 480.144531 275.027344 480.441406 274.835938 L 508.449219 256.601563 C 508.761719 256.398438 508.9375 256.039063 508.898438 255.667969 L 507.570313 241.699219 C 507.535156 241.332031 507.300781 241.011719 506.957031 240.871094 L 475.988281 228.078125 C 475.664063 227.945313 475.292969 227.988281 475.011719 228.199219 M 476.757813 230.5625 C 479.480469 231.683594 504.617188 242.066406 505.636719 242.488281 C 505.734375 243.539063 506.753906 254.199219 506.851563 255.253906 C 505.921875 255.859375 483.1875 270.660156 480.734375 272.257813 C 480.527344 270.109375 480.0625 265.203125 479.976563 264.304688 C 480.800781 263.785156 484.207031 261.636719 484.207031 261.636719 C 484.5 261.453125 484.675781 261.132813 484.675781 260.792969 C 484.675781 260.761719 484.671875 260.730469 484.671875 260.695313 L 482.8125 241.207031 C 482.777344 240.828125 482.53125 240.507813 482.183594 240.367188 C 482.183594 240.367188 478.429688 238.902344 477.519531 238.550781 C 477.4375 237.652344 476.964844 232.722656 476.757813 230.5625 "/>
<path style=" stroke:none;fill-rule:nonzero;fill:rgb(13.699341%,12.199402%,12.5%);fill-opacity:1;" d="M 487.976563 243.066406 C 487.695313 243.277344 487.546875 243.617188 487.578125 243.964844 L 488.835938 257.132813 C 488.867188 257.480469 489.078125 257.785156 489.390625 257.9375 C 489.703125 258.089844 490.074219 258.070313 490.367188 257.882813 L 501.007813 251.113281 C 501.324219 250.914063 501.5 250.550781 501.464844 250.175781 L 501.296875 248.40625 C 501.257813 248.035156 501.015625 247.710938 500.667969 247.574219 L 488.941406 242.9375 C 488.617188 242.808594 488.253906 242.859375 487.976563 243.066406 M 489.726563 245.398438 C 491.898438 246.257813 498.472656 248.855469 499.363281 249.210938 C 499.386719 249.457031 499.390625 249.507813 499.414063 249.757813 C 498.605469 250.269531 492.640625 254.066406 490.671875 255.320313 C 490.464844 253.171875 489.929688 247.542969 489.726563 245.398438 "/>
<path style=" stroke:none;fill-rule:nonzero;fill:rgb(13.699341%,12.199402%,12.5%);fill-opacity:1;" d="M 478.4375 277.40625 C 478.230469 277.574219 478.101563 277.816406 478.074219 278.078125 L 475.035156 308.429688 C 475.007813 308.695313 475.089844 308.960938 475.257813 309.164063 C 475.425781 309.371094 475.667969 309.5 475.929688 309.527344 L 483.441406 310.277344 C 483.992188 310.332031 484.480469 309.929688 484.535156 309.382813 C 484.535156 309.382813 486.351563 291.242188 486.53125 289.4375 C 488.347656 289.617188 507.496094 291.535156 507.496094 291.535156 C 507.757813 291.5625 508.023438 291.484375 508.226563 291.316406 C 508.433594 291.148438 508.5625 290.902344 508.589844 290.640625 L 509.53125 281.230469 C 509.585938 280.679688 509.1875 280.191406 508.636719 280.136719 L 479.167969 277.183594 C 478.90625 277.15625 478.640625 277.238281 478.4375 277.40625 M 479.964844 279.273438 C 481.757813 279.453125 505.648438 281.847656 507.441406 282.027344 C 507.300781 283.429688 506.839844 288.042969 506.699219 289.445313 C 504.886719 289.265625 485.734375 287.347656 485.734375 287.347656 C 485.472656 287.320313 485.210938 287.398438 485.003906 287.566406 C 484.796875 287.734375 484.667969 287.976563 484.640625 288.242188 C 484.640625 288.242188 482.824219 306.382813 482.644531 308.1875 C 481.378906 308.058594 478.394531 307.761719 477.125 307.636719 C 477.304688 305.835938 479.785156 281.074219 479.964844 279.273438 "/>
<path style=" stroke:none;fill-rule:nonzero;fill:rgb(13.699341%,12.199402%,12.5%);fill-opacity:1;" d="M 474.746094 312.640625 C 474.515625 312.765625 474.34375 312.980469 474.265625 313.234375 L 468.164063 333.65625 C 465.351563 343.238281 465.214844 343.804688 465.292969 345.785156 C 465.445313 349.90625 468.914063 351.464844 471.914063 352.363281 C 475.796875 353.519531 478.144531 353.207031 479.925781 351.207031 C 480.75 353.382813 482.765625 354.445313 485.59375 355.289063 C 491.214844 356.96875 494.015625 355.722656 495.929688 350.691406 C 496.410156 349.40625 496.410156 349.40625 498.46875 342.667969 L 504.558594 322.285156 C 504.632813 322.03125 504.605469 321.757813 504.480469 321.523438 C 504.355469 321.289063 504.140625 321.117188 503.886719 321.039063 L 475.511719 312.5625 C 475.257813 312.488281 474.980469 312.515625 474.746094 312.640625 M 472.488281 350.445313 C 468.023438 349.113281 467.355469 347.382813 467.289063 345.710938 C 467.285156 345.53125 467.277344 345.363281 467.277344 345.199219 C 467.277344 343.898438 467.613281 342.628906 470.082031 334.222656 C 470.082031 334.222656 475.375 316.507813 475.894531 314.765625 C 477.621094 315.28125 500.628906 322.152344 502.355469 322.671875 C 501.835938 324.410156 496.554688 342.089844 496.554688 342.089844 C 494.515625 348.761719 494.515625 348.761719 494.058594 349.984375 C 492.519531 354.035156 490.820313 354.761719 486.164063 353.371094 C 482.167969 352.179688 481.480469 350.875 481.511719 348.570313 C 481.519531 348.105469 481.199219 347.695313 480.746094 347.585938 C 480.292969 347.476563 479.824219 347.695313 479.617188 348.113281 C 478.199219 350.984375 476.90625 351.765625 472.488281 350.445313 "/>
<path style=" stroke:none;fill-rule:nonzero;fill:rgb(13.699341%,12.199402%,12.5%);fill-opacity:1;" d="M 479.101563 322.886719 C 478.871094 323.011719 478.695313 323.226563 478.621094 323.480469 C 478.621094 323.480469 474.972656 335.695313 474.96875 335.695313 C 473.414063 341.066406 473.414063 341.066406 473.554688 342.007813 C 473.710938 343.589844 475.070313 344.175781 476.078125 344.476563 C 477.195313 344.808594 478.792969 345.050781 479.773438 343.277344 C 480.039063 342.777344 480.039063 342.777344 481.609375 337.679688 L 485.257813 325.464844 C 485.417969 324.933594 485.117188 324.378906 484.585938 324.21875 L 479.863281 322.808594 C 479.609375 322.730469 479.335938 322.757813 479.101563 322.886719 M 480.25 325.007813 C 481.15625 325.28125 482.148438 325.578125 483.058594 325.847656 C 482.570313 327.476563 479.695313 337.097656 479.695313 337.097656 C 478.210938 341.917969 478.179688 342.015625 478.015625 342.328125 C 477.835938 342.652344 477.710938 342.878906 476.648438 342.558594 C 475.585938 342.242188 475.558594 341.953125 475.539063 341.761719 C 475.523438 341.660156 475.511719 341.574219 475.511719 341.472656 C 475.511719 341.035156 475.730469 340.257813 476.890625 336.257813 C 476.894531 336.25 479.765625 326.636719 480.25 325.007813 "/>
<path style=" stroke:none;fill-rule:nonzero;fill:rgb(13.699341%,12.199402%,12.5%);fill-opacity:1;" d="M 489.484375 325.984375 C 489.25 326.113281 489.074219 326.324219 489 326.578125 L 485.363281 338.746094 C 484.363281 342.097656 484.109375 343.304688 484.226563 344.128906 C 484.277344 344.714844 484.667969 345.882813 486.648438 346.476563 C 488.304688 346.96875 489.507813 346.589844 490.222656 345.351563 C 490.511719 344.789063 490.535156 344.714844 491.761719 340.761719 L 495.425781 328.5 C 495.582031 327.96875 495.28125 327.414063 494.753906 327.257813 L 490.242188 325.90625 C 489.988281 325.832031 489.71875 325.859375 489.484375 325.984375 M 490.628906 328.109375 C 491.496094 328.371094 492.355469 328.625 493.222656 328.886719 C 492.738281 330.511719 489.875 340.09375 489.875 340.09375 C 488.683594 343.925781 488.644531 344.046875 488.46875 344.398438 C 488.351563 344.597656 488.203125 344.851563 487.222656 344.558594 C 486.628906 344.382813 486.230469 344.121094 486.210938 343.894531 C 486.128906 343.292969 486.703125 341.246094 487.28125 339.320313 C 487.28125 339.320313 490.144531 329.738281 490.628906 328.109375 "/>
<path style=" stroke:none;fill-rule:nonzero;fill:rgb(13.699341%,12.199402%,12.5%);fill-opacity:1;" d="M 461.003906 353.75 C 460.753906 353.839844 460.550781 354.027344 460.4375 354.265625 L 456.441406 362.835938 C 456.207031 363.335938 456.421875 363.929688 456.925781 364.164063 L 483.761719 376.6875 C 484.261719 376.921875 484.855469 376.707031 485.089844 376.207031 L 489.089844 367.636719 C 489.199219 367.398438 489.214844 367.121094 489.121094 366.871094 C 489.03125 366.625 488.847656 366.421875 488.605469 366.308594 L 461.769531 353.78125 C 461.527344 353.671875 461.253906 353.660156 461.003906 353.75 M 461.828125 356.019531 C 463.460938 356.78125 485.222656 366.933594 486.855469 367.699219 C 486.257813 368.976563 484.296875 373.175781 483.699219 374.453125 C 482.066406 373.691406 460.308594 363.535156 458.675781 362.773438 C 459.273438 361.496094 461.230469 357.296875 461.828125 356.019531 "/>
<path style=" stroke:none;fill-rule:nonzero;fill:rgb(13.699341%,12.199402%,12.5%);fill-opacity:1;" d="M 454.394531 372.199219 C 451.410156 373.210938 449.625 375.273438 442.445313 385.980469 C 435.347656 396.566406 434.132813 398.976563 434.328125 402.121094 C 434.53125 405.359375 436.730469 407.730469 444.128906 412.691406 C 451.496094 417.632813 454.519531 418.761719 457.589844 417.71875 C 460.570313 416.707031 462.351563 414.65625 469.488281 404.007813 C 476.628906 393.363281 477.851563 390.9375 477.652344 387.800781 C 477.453125 384.558594 475.296875 382.214844 468.039063 377.351563 C 460.445313 372.257813 457.515625 371.148438 454.394531 372.199219 M 445.242188 411.03125 C 438.5625 406.550781 436.476563 404.441406 436.324219 401.996094 C 436.167969 399.484375 437.480469 396.980469 444.105469 387.09375 C 450.890625 376.976563 452.628906 374.910156 455.035156 374.09375 C 457.390625 373.300781 460.058594 374.40625 466.925781 379.011719 C 473.464844 383.394531 475.507813 385.476563 475.65625 387.921875 C 475.816406 390.460938 474.570313 392.839844 467.828125 402.894531 C 461.085938 412.953125 459.355469 415.007813 456.949219 415.824219 C 454.628906 416.609375 451.894531 415.492188 445.242188 411.03125 "/>
<path style=" stroke:none;fill-rule:nonzero;fill:rgb(13.699341%,12.199402%,12.5%);fill-opacity:1;" d="M 455.847656 382.089844 C 454.035156 382.683594 452.976563 384.070313 448.824219 390.257813 C 444.660156 396.472656 443.941406 397.882813 444.027344 399.679688 C 444.164063 401.554688 445.5625 402.800781 448.445313 404.734375 C 452.339844 407.34375 454 408.09375 455.554688 407.945313 C 457.636719 407.707031 458.441406 406.691406 463.109375 399.730469 C 466.675781 394.414063 468.058594 392.289063 468.058594 390.636719 C 468.058594 390.019531 467.863281 389.46875 467.515625 388.839844 C 466.878906 387.671875 465.535156 386.523438 462.207031 384.289063 C 459.1875 382.265625 457.640625 381.511719 455.847656 382.089844 M 449.5625 403.074219 C 446.644531 401.121094 446.082031 400.355469 446.023438 399.558594 C 445.96875 398.4375 446.519531 397.289063 450.484375 391.371094 C 454.449219 385.464844 455.34375 384.359375 456.464844 383.988281 C 457.273438 383.730469 458.097656 383.945313 461.09375 385.953125 C 464.046875 387.929688 465.3125 388.972656 465.761719 389.800781 C 465.765625 389.804688 465.765625 389.804688 465.765625 389.808594 C 466.382813 390.921875 466.347656 391.3125 461.449219 398.617188 C 456.980469 405.277344 456.433594 405.832031 455.347656 405.960938 C 454.390625 406.050781 452.871094 405.296875 449.5625 403.074219 M 467.515625 388.839844 C 467.519531 388.84375 467.519531 388.84375 467.519531 388.84375 C 467.519531 388.839844 467.515625 388.839844 467.515625 388.839844 "/>
<path style=" stroke:none;fill-rule:nonzero;fill:rgb(13.699341%,12.199402%,12.5%);fill-opacity:1;" d="M 427.714844 407.589844 L 421.019531 413.886719 C 420.824219 414.070313 420.710938 414.324219 420.703125 414.589844 C 420.703125 414.597656 420.703125 414.605469 420.703125 414.613281 C 420.703125 414.871094 420.804688 415.121094 420.984375 415.308594 C 420.984375 415.308594 432.9375 427.761719 435.046875 429.960938 C 432.4375 429.425781 410.003906 424.832031 410.003906 424.832031 C 409.6875 424.765625 409.355469 424.859375 409.117188 425.082031 L 397.703125 435.820313 C 397.300781 436.199219 397.28125 436.835938 397.660156 437.234375 L 417.953125 458.804688 C 418.332031 459.207031 418.964844 459.226563 419.367188 458.847656 L 426.0625 452.550781 C 426.253906 452.367188 426.367188 452.113281 426.375 451.847656 C 426.375 451.839844 426.375 451.832031 426.375 451.824219 C 426.375 451.566406 426.273438 451.316406 426.097656 451.128906 C 426.097656 451.128906 414.285156 438.824219 412.109375 436.5625 C 414.847656 437.128906 436.976563 441.699219 436.976563 441.699219 C 437.296875 441.761719 437.625 441.671875 437.863281 441.445313 L 449.378906 430.617188 C 449.570313 430.433594 449.683594 430.183594 449.691406 429.917969 C 449.699219 429.652344 449.601563 429.394531 449.421875 429.203125 L 429.128906 407.632813 C 428.75 407.230469 428.117188 407.210938 427.714844 407.589844 M 428.355469 409.730469 C 429.589844 411.042969 446.042969 428.53125 447.277344 429.84375 C 446.046875 431.007813 437.535156 439.011719 436.871094 439.632813 C 435.894531 439.429688 410.972656 434.285156 410.972656 434.285156 C 410.652344 434.21875 410.324219 434.3125 410.085938 434.535156 L 409.40625 435.175781 C 409.214844 435.355469 409.101563 435.609375 409.09375 435.878906 C 409.09375 435.886719 409.09375 435.894531 409.09375 435.902344 C 409.09375 436.160156 409.191406 436.40625 409.371094 436.59375 C 409.371094 436.59375 422.679688 450.460938 423.953125 451.785156 C 422.929688 452.75 419.738281 455.753906 418.722656 456.707031 C 417.488281 455.394531 401.035156 437.90625 399.800781 436.59375 C 401.035156 435.433594 409.453125 427.515625 410.113281 426.894531 C 411.089844 427.09375 436.105469 432.214844 436.105469 432.214844 C 436.425781 432.28125 436.753906 432.1875 436.988281 431.964844 L 437.703125 431.296875 C 437.894531 431.113281 438.011719 430.859375 438.019531 430.59375 C 438.019531 430.585938 438.019531 430.578125 438.019531 430.566406 C 438.019531 430.308594 437.917969 430.0625 437.738281 429.875 C 437.738281 429.875 424.398438 415.976563 423.125 414.652344 C 424.148438 413.6875 427.34375 410.683594 428.355469 409.730469 "/>
<path style=" stroke:none;fill-rule:nonzero;fill:rgb(100%,100%,100%);fill-opacity:1;" d="M 337.636719 239.960938 C 337.636719 239.960938 332.605469 243.828125 324.6875 250.691406 C 319.136719 255.503906 315.4375 258.460938 315.066406 259.570313 C 314.699219 260.679688 318.398438 261.421875 335.417969 266.601563 C 352.4375 271.78125 370.195313 271.410156 380.929688 271.039063 C 391.65625 270.671875 400.167969 266.230469 401.648438 267.339844 C 403.128906 268.453125 399.429688 274.371094 395.355469 279.921875 C 391.285156 285.472656 390.546875 285.839844 383.886719 287.320313 C 377.226563 288.800781 365.757813 289.539063 352.066406 288.429688 C 338.378906 287.320313 326.167969 281.769531 326.167969 281.769531 C 326.167969 281.769531 328.757813 285.101563 336.898438 288.0625 C 345.035156 291.023438 348.738281 291.390625 349.476563 293.242188 C 350.21875 295.089844 346.519531 298.050781 336.898438 299.53125 C 327.277344 301.011719 322.839844 298.050781 315.4375 298.050781 C 308.035156 298.050781 292.867188 309.152344 269.929688 317.289063 C 246.988281 325.429688 232.1875 319.511719 212.945313 313.589844 C 202.820313 310.476563 189.636719 303.972656 182.238281 301.382813 C 174.839844 298.792969 170.027344 300.273438 160.777344 303.972656 C 157.492188 305.285156 153.007813 305.820313 153.007813 305.820313 C 153.007813 305.820313 152.824219 303.566406 154.117188 299.902344 C 156.339844 293.613281 159.296875 292.132813 163.367188 289.539063 C 167.4375 286.953125 170.027344 282.511719 171.878906 278.8125 C 173.726563 275.109375 176.316406 269.929688 181.867188 267.339844 C 188.34375 264.320313 198.148438 266.601563 204.066406 266.601563 C 209.988281 266.601563 214.429688 264.753906 214.429688 264.753906 C 214.429688 264.753906 203.328125 265.121094 194.078125 261.421875 C 184.828125 257.722656 177.058594 251.0625 170.765625 246.621094 C 164.476563 242.183594 161.148438 239.960938 149.308594 240.332031 C 137.46875 240.699219 114.15625 242.921875 105.648438 243.660156 C 97.136719 244.402344 91.957031 244.03125 91.957031 241.8125 C 91.957031 239.589844 91.84375 237.886719 101.945313 232.929688 C 120.816406 223.679688 145.238281 220.351563 155.96875 218.132813 C 166.699219 215.910156 175.578125 218.132813 183.71875 223.679688 C 191.859375 229.230469 210.105469 238.964844 219.238281 243.289063 C 233.296875 249.953125 249.945313 257.722656 251.796875 256.609375 C 253.648438 255.503906 255.867188 253.28125 258.457031 245.511719 C 260.675781 238.851563 266.855469 227.789063 285.835938 221.460938 C 308.035156 214.0625 325.386719 211.582031 355.398438 218.132813 C 375.746094 222.570313 397.578125 226.640625 415.339844 226.273438 C 433.097656 225.902344 444.195313 224.789063 446.785156 224.421875 C 449.378906 224.050781 446.046875 230.339844 440.867188 234.039063 C 435.6875 237.742188 416.445313 245.964844 387.21875 244.402344 C 362.980469 243.105469 337.636719 239.960938 337.636719 239.960938 "/>
<path style=" stroke:none;fill-rule:nonzero;fill:rgb(13.699341%,12.199402%,12.5%);fill-opacity:1;" d="M 284.960938 218.828125 C 265.867188 225.191406 258.578125 236.375 255.824219 244.632813 C 253.632813 251.214844 251.855469 253.148438 250.875 253.886719 C 246.847656 253.296875 228.445313 244.582031 220.425781 240.785156 C 211.480469 236.546875 193.339844 226.882813 185.28125 221.390625 C 176.078125 215.113281 166.304688 213.160156 155.40625 215.414063 L 148.925781 216.648438 C 136.109375 219.015625 116.742188 222.589844 100.726563 230.441406 C 90.78125 235.3125 89.179688 237.761719 89.183594 241.738281 C 89.183594 242.96875 89.664063 244.046875 90.542969 244.851563 C 92.28125 246.445313 95.554688 247.324219 105.886719 246.425781 L 110.878906 245.980469 C 121.578125 245.019531 139.488281 243.414063 149.394531 243.105469 C 160.480469 242.757813 163.203125 244.679688 169.167969 248.890625 L 173.394531 251.984375 C 178.503906 255.789063 184.28125 259.984375 190.9375 263.011719 C 187.367188 262.996094 183.765625 263.394531 180.695313 264.828125 C 174.265625 267.824219 171.335938 273.691406 169.394531 277.570313 C 167.742188 280.878906 165.390625 284.964844 161.878906 287.199219 L 161.023438 287.738281 C 157.191406 290.148438 153.882813 292.230469 151.5 298.976563 C 150.050781 303.082031 150.21875 305.753906 150.242188 306.046875 C 150.300781 306.800781 150.667969 307.492188 151.253906 307.96875 C 151.835938 308.449219 152.589844 308.667969 153.339844 308.578125 C 153.535156 308.554688 158.226563 307.980469 161.808594 306.550781 C 170.882813 302.917969 174.914063 301.757813 181.320313 304 C 184.253906 305.027344 188.257813 306.746094 192.496094 308.5625 C 198.824219 311.28125 205.996094 314.355469 212.132813 316.246094 L 216.503906 317.605469 C 233.84375 323.035156 248.816406 327.726563 270.855469 319.90625 C 282.1875 315.886719 291.59375 311.179688 299.152344 307.398438 C 306.496094 303.726563 312.296875 300.828125 315.4375 300.828125 C 318.09375 300.828125 320.375 301.253906 322.789063 301.703125 C 326.648438 302.425781 331.019531 303.242188 337.316406 302.273438 C 341.738281 301.59375 349.492188 299.867188 351.726563 295.953125 C 352.136719 295.230469 352.347656 294.46875 352.347656 293.714844 C 352.347656 293.203125 352.246094 292.695313 352.054688 292.210938 C 351.886719 291.789063 351.621094 291.480469 351.367188 291.148438 C 351.527344 291.164063 351.683594 291.183594 351.84375 291.199219 C 364.410156 292.214844 376.613281 291.78125 384.488281 290.03125 C 391.691406 288.429688 393.027344 287.789063 397.59375 281.5625 C 404.835938 271.6875 406.332031 267.386719 403.3125 265.121094 C 401.574219 263.816406 399.398438 264.4375 395.449219 265.558594 C 391.71875 266.617188 386.605469 268.070313 380.832031 268.269531 C 371.96875 268.574219 353.523438 269.210938 336.226563 263.945313 L 326.507813 261.023438 C 323.589844 260.15625 321.164063 259.433594 319.460938 258.882813 C 320.535156 257.914063 321.902344 256.742188 323.269531 255.574219 L 326.503906 252.789063 C 332.574219 247.527344 336.929688 244.046875 338.574219 242.75 C 349.484375 245.078125 361.851563 245.894531 387.078125 247.171875 C 417.855469 248.730469 437.507813 239.851563 442.480469 236.300781 C 445.9375 233.832031 451.746094 227.613281 450.195313 223.746094 C 449.59375 222.242188 448.101563 221.429688 446.394531 221.675781 C 443.898438 222.03125 432.824219 223.132813 415.28125 223.496094 C 397.363281 223.871094 375.253906 219.621094 355.988281 215.421875 C 325.097656 208.679688 307.191406 211.417969 284.960938 218.828125 M 253.226563 258.992188 C 255.488281 257.632813 258.195313 255.070313 261.089844 246.390625 C 263.441406 239.332031 269.796875 229.730469 286.714844 224.09375 C 308.007813 216.996094 325.167969 214.375 354.804688 220.84375 C 374.390625 225.113281 396.902344 229.429688 415.394531 229.046875 C 428.773438 228.765625 438.34375 228.078125 443.492188 227.582031 C 442.511719 228.910156 441.074219 230.484375 439.253906 231.78125 C 435.023438 234.804688 416.40625 243.101563 387.355469 241.632813 C 357.523438 240.117188 345.976563 239.28125 333.574219 235.808594 C 313.6875 230.242188 299.71875 231.667969 289.765625 233.535156 C 277.164063 235.898438 268.257813 245.445313 267.886719 245.851563 C 266.847656 246.980469 266.921875 248.730469 268.046875 249.769531 C 269.171875 250.808594 270.925781 250.738281 271.96875 249.613281 C 272.046875 249.527344 280.039063 241.003906 290.789063 238.988281 C 300.097656 237.242188 313.167969 235.921875 331.789063 241.082031 C 329.5625 242.898438 326.550781 245.402344 322.867188 248.59375 L 319.65625 251.359375 C 314.464844 255.804688 312.945313 257.15625 312.433594 258.695313 L 312.632813 261.1875 C 313.550781 262.957031 314.847656 263.339844 324.921875 266.34375 L 334.609375 269.257813 C 352.796875 274.789063 371.859375 274.132813 381.023438 273.8125 C 387.472656 273.589844 393.1875 271.96875 396.964844 270.894531 C 397.359375 270.785156 397.773438 270.664063 398.1875 270.554688 C 397.359375 272.101563 395.875 274.523438 393.121094 278.28125 C 389.484375 283.234375 389.367188 283.261719 383.285156 284.613281 C 375.921875 286.25 364.335938 286.640625 352.292969 285.664063 C 339.273438 284.609375 327.433594 279.296875 327.3125 279.246094 C 326.152344 278.71875 324.78125 279.050781 323.988281 280.054688 C 323.59375 280.558594 323.394531 281.164063 323.394531 281.773438 C 323.394531 282.371094 323.589844 282.972656 323.976563 283.476563 C 324.292969 283.882813 327.308594 287.527344 335.949219 290.671875 L 342.730469 292.941406 C 343.894531 293.308594 345.035156 293.675781 345.890625 293.996094 C 344.519531 294.820313 341.679688 295.988281 336.476563 296.789063 C 331.109375 297.613281 327.5625 296.953125 323.8125 296.25 C 321.253906 295.769531 318.609375 295.277344 315.4375 295.277344 C 310.984375 295.277344 304.980469 298.28125 296.671875 302.4375 C 289.246094 306.148438 280.011719 310.769531 269 314.675781 C 248.703125 321.878906 235.226563 317.65625 218.164063 312.308594 L 213.765625 310.9375 C 207.910156 309.140625 200.886719 306.125 194.683594 303.464844 C 190.355469 301.605469 186.265625 299.851563 183.152344 298.761719 C 174.597656 295.769531 168.964844 297.710938 159.746094 301.394531 C 158.660156 301.828125 157.398438 302.171875 156.246094 302.429688 C 156.375 301.941406 156.527344 301.410156 156.734375 300.824219 C 158.472656 295.902344 160.546875 294.597656 163.980469 292.4375 L 164.855469 291.882813 C 169.519531 288.914063 172.386719 284.003906 174.359375 280.050781 C 176.144531 276.480469 178.367188 272.035156 183.039063 269.855469 C 187.035156 267.992188 192.929688 268.527344 198.128906 268.996094 C 200.269531 269.191406 202.292969 269.375 204.066406 269.375 C 210.46875 269.375 215.292969 267.398438 215.492188 267.3125 C 216.730469 266.800781 217.421875 265.472656 217.140625 264.164063 C 216.855469 262.855469 215.675781 261.933594 214.335938 261.976563 C 214.230469 261.980469 203.683594 262.277344 195.105469 258.84375 C 188.191406 256.078125 182.089844 251.539063 176.707031 247.53125 L 172.367188 244.355469 C 165.476563 239.492188 161.613281 237.171875 149.222656 237.558594 C 139.152344 237.871094 121.144531 239.488281 110.382813 240.453125 L 105.40625 240.898438 C 98.617188 241.488281 95.9375 241.175781 94.871094 240.910156 C 95.28125 239.933594 96.882813 238.503906 103.167969 235.421875 C 118.5 227.90625 137.414063 224.417969 149.933594 222.105469 L 156.53125 220.847656 C 166.007813 218.886719 174.152344 220.515625 182.15625 225.972656 C 190.433594 231.617188 208.945313 241.484375 218.050781 245.800781 C 247.238281 259.625 250.878906 260.398438 253.226563 258.992188 "/>
<path style=" stroke:none;fill-rule:nonzero;fill:rgb(13.699341%,12.199402%,12.5%);fill-opacity:1;" d="M 181.632813 282.480469 C 181.632813 284.773438 183.234375 286.378906 185.527344 286.378906 C 186.910156 286.378906 188.136719 285.828125 188.890625 284.863281 C 189.5625 284.007813 189.792969 282.894531 189.523438 281.8125 C 188.996094 279.6875 187.277344 278.203125 185.339844 278.203125 C 184.472656 278.203125 181.632813 278.511719 181.632813 282.480469 M 184.136719 283.148438 C 183.996094 282.578125 184.140625 281.925781 184.519531 281.441406 C 184.851563 281.019531 185.273438 280.828125 185.527344 280.828125 C 186.257813 280.828125 187.023438 281.570313 187.140625 282.300781 C 186.980469 282.988281 186.195313 283.753906 185.339844 283.753906 C 184.644531 283.753906 184.183594 283.328125 184.136719 283.148438 "/>
</g>
</svg>
