<?xml version="1.0" encoding="utf-8"?>
<!-- Generator: Adobe Illustrator 13.0.0, SVG Export Plug-In . SVG Version: 6.00 Build 14948)  -->
<!DOCTYPE svg PUBLIC "-//W3C//DTD SVG 1.0//EN" "http://www.w3.org/TR/2001/REC-SVG-20010904/DTD/svg10.dtd">
<svg version="1.0" id="Ebene_1" xmlns="http://www.w3.org/2000/svg" xmlns:xlink="http://www.w3.org/1999/xlink" x="0px" y="0px"
	 width="357.022px" height="396.2px" viewBox="0 0 357.022 396.2" enable-background="new 0 0 357.022 396.2" xml:space="preserve">
<path fill="#E30B1F" d="M328.462,189.303c-3.419-1.268-7.326-2.846-11.562-4.644c0-82.701,0-184.659,0-184.659H13.815
	c0,0,0,71.334,0,143.065c-9.377,3.79-15.382,7.452-13.456,13.432c0,0,2.823-0.079,13.217-0.945c0.08-0.006,0.159-0.011,0.239-0.018
	c0,62.34,0,121.858,0,131.615c0,21.595,6.371,36.824,29.388,49.563c22.741,12.598,34.696,17.349,58.068,26.56
	c24.289,9.571,47.792,15.93,64.083,32.927c16.282-16.998,39.801-23.356,64.09-32.927c23.372-9.21,35.32-13.961,58.067-26.56
	c23.014-12.739,29.389-27.969,29.389-49.563c0-6.738,0-37.211,0-75.955c7.746,0.538,15.284,0.138,22.424-0.881
	c16.53-2.362,17.698-10.859,17.698-10.859C349.005,198.042,349.473,197.096,328.462,189.303z"/>
<path fill="#004793" d="M142.937,166.408c0,0,21.947-26.908,44.603-26.908c22.666,0,34.466-0.474,57.596,11.094
	c14.145,7.074,34.29,17.054,52.613,25.525c0-72.192,0-156.261,0-156.261H32.973c0,0,0,56.798,0,117.113
	c5.464-0.988,12.129-1.483,22.147-1.483C75.892,135.487,100.445,140.684,142.937,166.408z"/>
<path fill="#004793" d="M234.519,180.576c0,0,0,3.774-2.835,5.665c-2.829,1.878-6.604,4.952-5.665,6.604
	c0.945,1.655,1.651,4.013,13.691,7.552c12.039,3.542,17.942,6.61,34.463,9.445c0,0,4.958,1.652,6.849,6.375
	c1.89,4.72,7.081,9.439,9.21,11.091c2.123,1.655-0.239,2.594-2.368,3.068c-2.129,0.471-9.678,1.894-29.505,2.129
	c0,0-3.068,2.362-4.013,4.72c-0.945,2.355-1.413,4.952-7.319,1.655c-5.897-3.313-15.814-9.449-32.102-9.449
	c-5.43,0-17.937,2.129-33.989,10.862c-16.052,8.733-37.242,10.234-61.139,1.178c-15.575-5.903-10.529-8.476-33.043-12.984
	c-8.262-1.646-16.526-0.939-20.301-9.911c0,0-16.285-0.706-21.717-1.184c-5.429-0.468-6.607-4.481-6.845-6.371
	c-0.236-1.884,26.678-4.491,26.678-4.491s4.481-10.378,10.855-15.808c6.371-5.426,8.262-7.555,19.356-9.439
	c0,0-19.121-19.833-43.673-23.133c0,0-7.468-1.792-18.134-2.596c0,57.161,0,112.589,0,121.299c0,18.869,5.561,32.167,25.67,43.309
	c19.868,11.003,30.312,15.157,50.729,23.196c21.214,8.359,41.757,13.914,55.982,28.764c14.231-14.85,34.771-20.405,55.989-28.764
	c20.417-8.039,30.861-12.193,50.732-23.196c20.103-11.142,25.674-24.44,25.674-43.309c0-5.954,0-33.747,0-68.997
	c-4-1.145-8.013-2.593-12.014-4.388C267.331,195.206,256.468,192.377,234.519,180.576z"/>
<path fill="#FFFFFF" d="M27.456,14.187h275.811c0,0,0,89.286,0,164.461c2.728,1.239,5.392,2.431,7.97,3.563
	c0-79.371,0-175.846,0-175.846H19.479c0,0,0,66.507,0,134.512c2.762-1.032,5.305-1.917,7.976-2.653
	C27.456,74.82,27.456,14.187,27.456,14.187z"/>
<path fill="#FFFFFF" d="M303.266,279.258c0,19.654-5.806,33.512-26.751,45.108c-20.69,11.464-31.571,15.788-52.839,24.167
	c-22.109,8.708-43.5,14.504-58.322,29.963c-14.818-15.459-36.212-21.255-58.315-29.963c-21.268-8.378-32.142-12.702-52.845-24.167
	c-20.945-11.597-26.738-25.454-26.738-45.108c0-9.01,0-65.488,0-124.009c-2.553-0.088-5.226-0.106-7.976-0.024
	c0,61.818,0,121.087,0,128.734c0,13.455,0.707,32.927,27.976,47.802c24.754,13.506,32.573,16.637,56.645,25.847
	c24.075,9.21,49.928,19.472,61.254,30.805c11.33-11.333,37.176-21.595,61.254-30.805c24.079-9.21,31.892-12.341,56.651-25.847
	c27.266-14.875,27.976-34.347,27.976-47.802c0-5.271,0-35.073,0-73.327c-2.641-0.342-5.3-0.799-7.97-1.385
	C303.266,245.02,303.266,273.127,303.266,279.258z"/>
<path fill="#FFFFFF" d="M6.027,152.007c0,0,17.698-12.269,47.447-12.269c0,0,25.963-1.655,56.174,14.159
	c30.215,15.813,33.757,19.591,33.757,19.591s8.494-12.039,19.588-19.358c11.094-7.311,13.93-10.385,34.234-10.385
	c20.295,0,31.866,4.487,46.97,11.807c15.107,7.32,42.96,22.895,65.623,31.627c22.656,8.733,38.241,14.636,38.241,14.636
	s-4.958,4.958-25.023,4.958c-20.06,0-42.96-9.439-65.146-20.065c-22.194-10.623-48.157-25.021-51.938-27.382
	c-3.774-2.361-7.549-4.013-8.726-2.829c-1.184,1.178,0,4.246,5.897,7.788c5.903,3.536,26.198,15.813,26.198,15.813
	s-2.167,4.566-5.903,7.555c-5.897,4.723-5.659,8.498,3.074,12.979c8.965,4.613,21.313,7.521,41.315,12.517
	c1.884,0.468,6.836,0,8.255,4.72c1.422,4.719,6.375,8.494,6.375,8.494s-11.094,1.184-22.188,1.184c-4.487,0-7.794,2.355-9.917,5.897
	c0,0-18.411-8.732-35.169-8.732c-16.759,0-29.037,8.732-42.96,13.691c-13.93,4.958-29.436,7.486-52.406-1.891
	c-11.562-4.719-10.617-9.204-27.146-11.323c-16.52-2.129-15.575-2.835-17.698-4.49c-2.129-1.652-3.542-2.597-4.958-5.665
	c0,0-20.065-0.939-21.717-1.655c-1.46-0.622-1.417-0.945-1.417-0.945l21.711-1.884c0,0,5.448-19.287,22.195-22.895
	c12.039-2.597,10.855-3.78,10.617-5.903c-0.229-2.12-21.24-21.718-43.428-26.905C35.771,149.649,23.025,150.594,6.027,152.007"/>
<path fill="#E30B1F" d="M86.986,209.669c3.689,0,6.676-2.986,6.676-6.669c0-3.69-2.986-6.682-6.676-6.682
	c-3.687,0-6.676,2.992-6.676,6.682C80.311,206.683,83.3,209.669,86.986,209.669"/>
<path fill="#004793" d="M86.986,206.332c1.847,0,3.344-1.491,3.344-3.332c0-1.847-1.498-3.344-3.344-3.344
	c-1.84,0-3.338,1.498-3.338,3.344C83.648,204.84,85.146,206.332,86.986,206.332"/>
<path fill="#FFFFFF" d="M62.558,95.041l5.923-2.588c3.69-1.649,5.039-3.181,5.046-5.303c0.001-0.958-0.29-2.109-0.895-3.483
	l-2.011-4.608c-0.924-2.02-2.023-2.811-3.676-2.836c-0.631,0-1.359,0.134-2.184,0.42l-0.619,0.214l-0.533-1.286l0.457-0.319
	c2.057-1.458,2.743-2.532,2.75-3.83c0.002-0.692-0.212-1.52-0.654-2.532l-1.548-3.53c-0.899-1.97-2.078-2.77-3.981-2.801
	c-1.153-0.002-2.586,0.35-4.276,1.093l-6.335,2.776L62.558,95.041z M63.47,78.414c0.958-0.017,1.653,0.716,2.011,1.609l-0.636,0.279
	l0,0l0.636-0.278l2.744,6.271c0.192,0.441,0.316,0.858,0.319,1.292c0.017,0.956-0.715,1.651-1.608,2.009l-0.019,0.008l-0.007,0.003
	c-0.112,0.044-0.163,0.067-0.28,0.125l-0.651,0.318l-4.776-10.911l0.657-0.27c0.136-0.056,0.195-0.078,0.289-0.123l0.01-0.005
	l0.015-0.007C62.618,78.539,63.037,78.416,63.47,78.414z M56.46,66.594c0.633-0.273,1.144-0.471,1.706-0.479
	c0.433-0.01,0.895,0.174,1.207,0.488c0.317,0.311,0.531,0.696,0.744,1.176l-0.635,0.28l0,0l0.635-0.279l2.089,4.773
	c0.216,0.5,0.36,0.937,0.364,1.402c0.012,0.505-0.234,1.01-0.598,1.329c-0.36,0.329-0.801,0.554-1.35,0.799l-0.637,0.282
	l-4.159-9.491L56.46,66.594z"/>
<path fill="#FFFFFF" d="M89.237,81.081c-0.25-0.728-0.416-1.184-0.506-1.448l-2.251-6.371c-0.973-2.594-1.799-3.394-3.53-3.43
	c-0.596,0-1.321,0.118-2.19,0.368l-0.615,0.175l-0.526-1.393l0.621-0.258c2.102-0.909,2.936-2.075,2.96-3.767
	c0-0.635-0.133-1.358-0.418-2.166l-1.143-3.249c-0.922-2.464-2.088-3.387-4.272-3.431c-1.057-0.001-2.367,0.267-3.937,0.821
	l-6.529,2.303l10.399,29.459l4.845-1.71l-5.026-14.229l0.6-0.255c0.025-0.013,0.113-0.045,0.154-0.057
	c0.33-0.115,0.66-0.178,0.987-0.178c1.344-0.001,2.272,1.07,2.756,2.52l2.375,6.716c0.22,0.634,0.345,0.992,0.378,1.069l0.009,0.021
	l0.005,0.015c0.442,1.266,0.969,2.274,1.537,3.047l4.736-1.672C90.107,83.128,89.613,82.146,89.237,81.081z M77.081,69.488
	c-0.146,0.05-0.234,0.075-0.346,0.113l-0.65,0.223l-3.43-9.718l0.653-0.231c0.585-0.206,1.07-0.339,1.558-0.343
	c0.468-0.011,0.969,0.176,1.296,0.524c0.332,0.342,0.524,0.761,0.708,1.266l-0.654,0.233l0.654-0.231l1.734,4.916
	c0.147,0.422,0.243,0.812,0.244,1.21C78.879,68.457,78.069,69.186,77.081,69.488z"/>
<rect x="87.925" y="52.209" transform="matrix(0.9591 -0.283 0.283 0.9591 -15.4966 28.3836)" fill="#FFFFFF" width="5.136" height="31.239"/>
<path fill="#FFFFFF" d="M94.764,50.726c-0.819,0.893-1.201,2.005-1.207,3.565c-0.001,0.995,0.167,2.158,0.49,3.493l4.032,16.74
	c0.547,2.282,1.32,3.949,2.248,5.001c0.936,1.049,1.977,1.529,3.315,1.539c0.462,0,0.96-0.062,1.498-0.192
	c1.956-0.481,3.278-1.631,4.238-3.684l0.629-1.368l1.267,2.739l1.904-0.46l-3.559-14.774l-6.541,1.572l0.852,3.542l1.584-0.386
	l1.515,6.277c0.078,0.332,0.126,0.637,0.126,0.935c0.072,0.809-0.6,1.594-1.38,1.713c-0.161,0.036-0.323,0.061-0.494,0.061
	c-0.464,0.015-0.954-0.229-1.223-0.595c-0.279-0.359-0.421-0.777-0.541-1.271l-4.983-20.708c-0.08-0.331-0.128-0.636-0.128-0.932
	c-0.066-0.776,0.548-1.583,1.312-1.699c0.184-0.047,0.367-0.074,0.551-0.074c0.466-0.015,0.959,0.227,1.23,0.593
	c0.28,0.359,0.421,0.776,0.54,1.264l1.194,4.964l4.952-1.192l-0.98-4.084c-0.911-3.521-2.599-4.962-5.606-5.011
	c-0.785,0-1.665,0.114-2.637,0.349l-0.163-0.675l0.162,0.675C96.934,49.131,95.586,49.833,94.764,50.726z"/>
<polygon fill="#FFFFFF" points="120.442,76.783 117.78,61.24 121.155,60.659 123.824,76.208 128.887,75.336 123.601,44.542 
	118.539,45.408 120.586,57.34 117.205,57.92 115.157,45.99 110.143,46.849 115.424,77.647 "/>
<polygon fill="#FFFFFF" points="131.021,46.885 131.71,46.811 134.747,74.65 139.809,74.095 136.773,46.254 140.959,45.795 
	140.61,42.586 127.216,44.042 127.563,47.259 "/>
<polygon fill="#FFFFFF" points="150.847,40.545 150.847,40.545 150.847,40.545 "/>
<path fill="#FFFFFF" d="M144.35,49.309l0.847,17.196c0.127,2.668,0.646,4.53,1.615,5.668c0.961,1.131,2.427,1.729,4.881,1.737
	c0.256,0,0.521-0.006,0.796-0.02c2.592-0.13,4.178-0.767,5.138-1.834c0.964-1.064,1.422-2.72,1.422-5.135
	c0-0.352-0.009-0.717-0.028-1.098l-0.851-17.204c-0.128-2.648-0.639-4.51-1.604-5.651c-0.958-1.134-2.426-1.74-4.904-1.749
	c-0.25,0-0.51,0.007-0.78,0.02c-2.575,0.131-4.162,0.769-5.126,1.841c-0.97,1.069-1.435,2.73-1.435,5.15
	C144.321,48.575,144.331,48.935,144.35,49.309z M149.737,45.172c0.297-0.43,0.821-0.645,1.292-0.657
	c0.05-0.004,0.096-0.004,0.137-0.004c0.523-0.018,1.104,0.211,1.408,0.673c0.3,0.449,0.373,0.947,0.404,1.521l1.049,21.274
	c0.004,0.095,0.007,0.193,0.007,0.294c-0.003,0.542-0.077,1.033-0.395,1.456c-0.324,0.428-0.85,0.604-1.329,0.617l-0.014,0h-0.01
	c-0.014,0-0.044,0.002-0.095,0.002c-0.019,0.001-0.037,0.001-0.056,0.001c-0.497,0-1.042-0.241-1.32-0.683
	c-0.289-0.443-0.361-0.936-0.393-1.512h0l-1.048-21.269c-0.005-0.096-0.007-0.188-0.007-0.276
	C149.37,46.078,149.443,45.594,149.737,45.172z"/>
<path fill="#FFFFFF" d="M165.638,47.329l0.755,0.027l0.778,0.026l0.064,0.599c0.473,4.395,0.84,6.978,0.958,7.725l2.964,17.204
	l6.389,0.107l0.511-31.234l-3.727-0.062l-0.167,12.81c-0.005,0.219-0.007,0.512-0.007,0.872c0,1.618,0.048,4.577,0.164,8.843
	l0.02,0.729l-1.656-0.038l-0.021-0.656c-0.122-3.615-0.341-6.722-0.747-9.356l-1.998-13.277l-7.642-0.129l-0.511,31.232l3.773,0.066
	l0.306-18.702c0.004-0.194,0.006-0.403,0.006-0.628c0-1.279-0.061-3.092-0.174-5.405L165.638,47.329z"/>
<path fill="#FFFFFF" d="M188.245,66.778c-0.072,0.601-0.107,1.167-0.107,1.7c0.003,2.092,0.534,3.605,1.547,4.685
	c1.015,1.081,2.59,1.789,4.85,2.057c0.635,0.074,1.222,0.119,1.773,0.119c1.424-0.005,2.595-0.28,3.916-1.151l0.608-0.405
	l0.374,0.629c0.45,0.745,0.818,0.963,1.149,1.003l2.327,0.276l0.423-3.574c-0.678-0.114-1.244-0.468-1.658-0.958l-0.361-0.407
	l0.308-0.448c0.49-0.719,0.719-1.369,0.822-2.231l1.064-8.981l-3.838-0.453l-0.238,1.952c-0.007,0.089-0.021,0.24-0.047,0.423
	c-0.034,0.312-0.074,0.662-0.074,1.11c0,0.137,0.004,0.284,0.014,0.44l-1.343,0.288c-0.835-2.199-1.492-3.963-2.052-5.123
	l-0.316-0.657l0.671-0.284c1.824-0.77,3.132-1.477,3.979-2.273c0.843-0.802,1.285-1.662,1.45-3l0.405-3.42
	c0.022-0.198,0.034-0.39,0.034-0.575c-0.012-2.385-1.824-4.29-5.317-4.739c-0.5-0.06-0.974-0.088-1.419-0.088
	c-3.421,0.064-5.113,1.504-5.526,4.506l-0.35,2.923c-0.042,0.362-0.065,0.688-0.065,0.998c0.004,1.191,0.316,2.174,1.305,4.092
	l0.334,0.645l-0.659,0.305c-2.37,1.158-2.912,2.043-3.254,4.5l-0.689-0.082l0,0l0.688,0.082L188.245,66.778z M195.531,51.584
	l0.003-0.026c0.012-0.087,0.014-0.101,0.021-0.175l0.001-0.016l0.387-3.254c0.064-0.51,0.133-0.976,0.375-1.42
	c0.222-0.455,0.796-0.823,1.373-0.795c0.093,0,0.184,0.007,0.268,0.018c0.454,0.048,0.91,0.228,1.2,0.606
	c0.286,0.376,0.343,0.801,0.344,1.202c0,0.213-0.017,0.432-0.044,0.665l-0.417,3.514c-0.063,0.551-0.186,1.076-0.567,1.512
	c-0.38,0.427-0.87,0.668-1.543,0.946l-0.565,0.229l-0.3-0.531c-0.434-0.756-0.571-1.409-0.566-1.94
	C195.498,51.92,195.514,51.742,195.531,51.584z M193.01,67.476l0.69,0.081l-0.689-0.083l1.069-8.938l4.942,11.969l-0.417,0.325
	c-0.744,0.582-1.583,0.888-2.431,0.888c-0.004,0-0.008,0-0.013,0c-0.144,0-0.29-0.008-0.439-0.025
	c-1.717-0.167-2.808-1.667-2.755-3.492C192.966,67.965,192.982,67.724,193.01,67.476z"/>
<polygon fill="#FFFFFF" points="222.055,79.197 227.065,80.317 233.874,49.825 228.865,48.706 226.221,60.512 222.877,59.768 
	225.516,47.96 220.55,46.848 213.74,77.339 218.707,78.446 222.148,63.055 225.49,63.809 "/>
<path fill="#FFFFFF" d="M242.013,51.708c-1.513,0.01-2.566,0.463-3.484,1.41c-0.914,0.951-1.663,2.465-2.276,4.553l-4.886,16.516
	c-0.451,1.508-0.685,2.807-0.684,3.897c0.05,2.742,1.28,4.278,5.114,5.481c1.189,0.352,2.213,0.519,3.084,0.519
	c1.514-0.01,2.56-0.464,3.473-1.412c0.91-0.952,1.654-2.471,2.27-4.56l4.896-16.507c0.446-1.508,0.681-2.809,0.68-3.901
	c-0.05-2.73-1.26-4.275-5.119-5.479l0.197-0.666l0,0l-0.198,0.665C243.899,51.872,242.882,51.708,242.013,51.708z M245.441,57
	c-0.001,0.35-0.075,0.695-0.186,1.076l-6.051,20.417c-0.146,0.484-0.313,0.885-0.599,1.218c-0.27,0.329-0.717,0.544-1.145,0.544
	c-0.011,0-0.023,0-0.035,0c-0.213,0-0.417-0.038-0.619-0.097c-0.719-0.148-1.308-0.896-1.249-1.619
	c0.002-0.348,0.074-0.694,0.185-1.075l0.667,0.196l-0.667-0.197l6.046-20.424c0.147-0.479,0.319-0.88,0.606-1.211
	c0.278-0.335,0.738-0.562,1.187-0.551c0.197,0,0.388,0.035,0.568,0.089C244.886,55.514,245.501,56.259,245.441,57z"/>
<path fill="#FFFFFF" d="M253.688,88.889l14.911-27.79l-4.1-1.527l-8.157,16.661c-1.137,2.274-2.104,4.366-2.947,6.228l-0.268,0.593
	l-1.397-0.524l0.205-0.631c0.961-2.972,1.461-4.711,1.61-5.234l5.767-19.017l-4.95-1.841l-7.637,30.489L253.688,88.889z"/>
<polygon fill="#FFFFFF" points="271.358,62.307 258.614,90.825 268.434,95.211 269.885,91.979 264.755,89.683 269.778,78.439 
	274.779,80.678 276.137,77.645 271.125,75.412 274.767,67.27 279.897,69.565 281.178,66.698 "/>
<path fill="#FFFFFF" d="M78.783,294.422l-4.204-1.853c-0.754-0.335-1.352-0.953-1.366-1.785c-0.001-0.224,0.05-0.446,0.139-0.638
	c0.221-0.606,0.907-1.065,1.581-1.025c0.608,0.006,1.242,0.212,2.049,0.563l2.626,1.156c1.939,0.861,5.971,3.056,8.46,4.58
	l2.473-5.587c-3.442-2.321-7.309-4.481-11.107-6.166c-4.47-1.972-8.002-2.896-10.704-2.893c-0.247,0-0.488,0.008-0.712,0.022
	c-2.526,0.203-4.66,1.834-5.923,4.663c-0.53,1.199-0.781,2.292-0.781,3.287c0.009,2.327,1.34,4.29,4.425,6.098
	c1.209,0.734,3.435,1.884,4.396,2.304l1.962,0.87c0.514,0.23,0.898,0.422,1.215,0.675c0.312,0.236,0.588,0.653,0.578,1.102
	c-0.001,0.266-0.075,0.495-0.167,0.704c-0.252,0.625-0.936,1.014-1.592,0.988c-0.443-0.002-0.896-0.122-1.379-0.333
	c-3.998-1.76-7.402-3.611-11.964-6.49l-2.263,5.126c4.377,2.929,7.261,4.504,11.933,6.568c4.199,1.853,6.775,2.583,9.107,2.582
	c0.566,0,1.122-0.042,1.687-0.124c2.69-0.4,4.893-2.028,5.915-4.353c0.397-0.905,0.59-1.842,0.589-2.74
	c0-1.519-0.542-2.918-1.544-3.904C83.17,296.819,80.841,295.328,78.783,294.422z"/>
<path fill="#FFFFFF" d="M106.209,297.24c-2.822-0.76-5.436-1.144-7.502-1.144c-0.912,0-1.717,0.076-2.371,0.218
	c-3.473,0.788-6.083,3.473-7.213,7.589c-0.346,1.282-0.516,2.42-0.515,3.445c0.003,1.629,0.414,2.97,1.279,4.261
	c1.594,2.443,4.88,4.469,9.467,5.705c3.902,1.058,6.792,1.434,12.897,1.687l2.925-3.661c-3.791-0.183-8.34-0.783-11.151-1.539
	c-1.389-0.379-2.415-0.774-3.166-1.345c-0.757-0.556-1.188-1.4-1.171-2.302c0-0.39,0.065-0.788,0.177-1.205l0.181-0.67l16.385,4.426
	c0.157-0.486,0.277-0.859,0.353-1.124c0.39-1.451,0.588-2.958,0.587-4.311c0.002-1.364-0.205-2.574-0.573-3.394
	C115.583,301.043,112.383,298.909,106.209,297.24z M109.326,306.387l-0.174,0.684l-8.833-2.394l0.312-0.733
	c0.767-1.902,2.136-3.057,3.936-3.027c0.535,0,1.094,0.09,1.685,0.25c2.006,0.492,3.296,1.95,3.261,3.827
	C109.512,305.44,109.448,305.906,109.326,306.387z"/>
<polygon fill="#FFFFFF" points="131.444,313.504 131.444,313.504 131.444,313.504 "/>
<path fill="#FFFFFF" d="M137.814,324.069l10.92,1.34l2.444-19.951l-10.912-1.336l-0.532,4.337l-1.039-1.77
	c-1.448-2.441-3.719-3.743-7.558-4.228c-0.662-0.084-1.308-0.124-1.93-0.124c-2.322-0.002-4.308,0.567-5.606,1.537
	c-1.83,1.395-3.057,3.959-3.532,7.886c-0.121,0.983-0.183,1.896-0.181,2.738c0.003,2.843,0.677,4.853,2.003,6.265
	c1.327,1.414,3.404,2.306,6.402,2.672c0.958,0.117,1.807,0.178,2.571,0.178c2.523-0.014,4.109-0.613,6.072-2.176l1.335-1.075
	L137.814,324.069z M135.038,318.995c-0.015,0-0.029,0-0.043,0c-0.198,0-0.399-0.013-0.603-0.038c-2.289-0.241-3.75-2.133-3.7-4.569
	c0-0.313,0.021-0.637,0.063-0.969c0.26-2.504,1.89-4.293,4.183-4.263c0.202,0,0.408,0.013,0.616,0.038
	c2.329,0.232,3.822,2.039,3.767,4.383c0,0.286-0.018,0.581-0.055,0.884C138.986,317.121,137.344,318.995,135.038,318.995z"/>
<path fill="#FFFFFF" d="M183.957,305.153l-10.999,0.172l0.062,3.832l-1.265-1.55c-1.582-1.913-3.525-2.659-7.549-2.679
	c-0.155,0-0.313,0-0.475,0.004c-3.671,0.056-5.949,0.768-7.424,2.123c-1.551,1.383-2.559,4.135-2.552,7.396
	c0,0.086,0,0.174,0.002,0.264c0.047,3.309,1.102,5.971,2.748,7.357c1.442,1.245,3.684,1.892,7.178,1.892
	c0.154,0,0.308,0,0.463-0.002c3.614-0.064,5.627-0.558,8.033-1.983l1.038-0.621l0.012,1.21c0,0.113,0.002,0.22,0.003,0.326
	c0.009,0.657-0.073,1.148-0.317,1.633c-1.066,1.986-3.688,2.549-8.343,2.645c-0.344,0.005-0.682,0.008-1.015,0.008
	c-2.855,0.001-5.293-0.228-7.94-0.767l0.573,4.292c2.921,0.202,6.635,0.332,9.339,0.332c0.372,0,0.725-0.002,1.053-0.007
	c6.341-0.092,10.99-0.754,13.632-1.841c2.675-1.161,3.977-3.327,4.008-7.046c0-0.07,0-0.139,0-0.207L183.957,305.153z
	 M171.808,317.965c-0.735,0.903-1.848,1.41-3.125,1.421c-0.011,0-0.03,0-0.06,0c-0.009,0-0.018,0-0.027,0
	c-1.249,0-2.363-0.498-3.106-1.397c-0.75-0.902-1.133-2.147-1.16-3.617c-0.002-0.055-0.001-0.098-0.001-0.125
	c0-1.35,0.359-2.528,1.094-3.386c0.728-0.855,1.818-1.335,3.061-1.352c0.053-0.002,0.086-0.001,0.103-0.002
	c1.277-0.006,2.404,0.445,3.163,1.307c0.762,0.858,1.137,2.055,1.161,3.469c0,0.031,0,0.068,0,0.109
	C172.91,315.831,172.546,317.064,171.808,317.965z"/>
<path fill="#FFFFFF" d="M214.992,300.585l-10.873,1.659l1.754,11.482c0.079,0.514,0.124,0.974,0.124,1.396
	c0.004,0.813-0.179,1.543-0.69,2.075c-0.511,0.526-1.206,0.754-2.023,0.877c-0.306,0.046-0.592,0.072-0.871,0.073
	c-0.802,0.017-1.586-0.277-2.067-0.919c-0.479-0.629-0.7-1.444-0.867-2.521l-1.761-11.482l-10.873,1.662l1.871,12.203
	c0.418,2.753,1.715,4.649,3.547,5.523c1.444,0.665,3.404,1.024,5.906,1.022c1.71,0,3.673-0.166,5.892-0.503
	c5.413-0.829,9.073-2.215,11.059-4.007c1.196-1.121,1.857-2.719,1.861-4.755c0-0.503-0.041-1.032-0.126-1.583l0.687-0.106l0,0
	l-0.687,0.105L214.992,300.585z"/>
<polygon fill="#FFFFFF" points="216.452,294.643 222.798,319.015 233.439,316.247 227.101,291.874 "/>
<polygon fill="#FFFFFF" points="229.82,291.067 237.787,314.958 248.226,311.482 240.252,287.59 "/>
<path fill="#FFFFFF" d="M256.364,285.799c-4.542,2.07-6.798,3.394-8.343,4.848c-1.145,1.068-1.741,2.491-1.744,4.054
	c0,0.912,0.207,1.87,0.643,2.825c1.147,2.501,3.054,3.809,5.16,3.813c0.324,0,0.656-0.031,0.995-0.095
	c1.479-0.271,4.428-1.269,6.691-2.303c0.192-0.091,0.651-0.297,1.286-0.63l0.023-0.012l0.91-0.41
	c0.311-0.139,0.597-0.245,0.941-0.249c0.546-0.031,1.046,0.43,1.198,0.856c0.076,0.183,0.117,0.375,0.117,0.579
	c-0.001,0.295-0.089,0.646-0.389,0.92l-0.001-0.001c-0.195,0.172-0.282,0.192-0.521,0.334c-0.233,0.127-0.545,0.288-0.928,0.479
	c-0.764,0.38-1.807,0.876-3.014,1.426c-1.694,0.771-4.596,1.837-7.921,2.914l2.379,4.291c4.012-1.329,7.744-2.763,10.24-3.904
	c4.068-1.842,6.689-3.549,8.123-5.175c0.876-1.006,1.322-2.257,1.324-3.654c0-1.02-0.242-2.115-0.745-3.223
	c-1.01-2.207-2.672-3.372-4.329-3.369c-0.064,0-0.13,0.002-0.178,0.005c-1.134,0.101-1.425,0.195-6.05,2.21l-3.1,1.414
	c-0.429,0.187-0.822,0.302-1.226,0.305c-0.457,0.024-1.032-0.24-1.244-0.743c-0.07-0.151-0.125-0.339-0.125-0.545
	c0.032-0.707,0.513-1.079,1.102-1.455c0.625-0.389,1.557-0.842,2.988-1.493c2.515-1.144,5.512-2.338,7.958-3.169l-2.234-4.911
	C263.719,282.668,259.298,284.468,256.364,285.799z"/>
<polygon fill="#FFFFFF" points="136.227,289.877 145.037,289.876 145.037,277.919 151.012,277.919 151.012,271.424 130.279,271.424 
	130.279,277.919 136.227,277.919 "/>
<path fill="#FFFFFF" d="M167.811,289.877h8.244v-9.687c-0.004-2.182-0.55-3.638-1.569-4.583c-1.02-0.949-2.646-1.474-5.021-1.474
	c-3.588,0.033-5.103,0.681-6.636,2.668l-1.25,1.66v-7.861h-8.25v19.275h8.25v-7.281c0-0.962,0.201-1.801,0.798-2.397
	c0.603-0.59,1.444-0.789,2.418-0.788c0.908,0,1.698,0.171,2.272,0.73c0.567,0.565,0.744,1.354,0.744,2.25V289.877z"/>
<path fill="#FFFFFF" d="M180.91,287.967c1.645,1.468,4.482,2.326,8.162,2.322c3.106-0.002,5.335-0.295,9.909-1.328l1.303-2.995
	c-2.836,0.599-6.216,1.04-8.42,1.043c-1.368-0.007-2.361-0.121-3.144-0.599c-0.806-0.487-1.136-1.403-1.115-2.354v-0.695h13.205
	c0.016-0.323,0.025-0.576,0.025-0.765c0.013-2.301-0.661-4.657-1.516-5.69c-1.44-1.819-4.216-2.773-9.179-2.772
	c-0.021,0-0.043,0-0.065,0c-3.222,0-5.995,0.518-7.457,1.288c-2.397,1.279-3.787,3.744-3.797,7.027
	C178.833,285.109,179.472,286.705,180.91,287.967z M187.163,280.125c0.146-1.056,0.499-1.932,1.178-2.532
	c0.68-0.6,1.59-0.832,2.633-0.83c1.027-0.002,1.932,0.285,2.568,0.915c0.638,0.627,0.934,1.523,0.949,2.531l0.012,0.707h-7.453
	L187.163,280.125z"/>
<path fill="#FFFFFF" d="M125.294,87.739l-4.984,31.239h4.497l0.854-8.707h4.49l0.638,8.707h5.325l-3.687-31.239H125.294z
	 M126.022,106.862l1.124-10.786c0.04-0.363,0.133-1.83,0.267-4.402l0.035-0.658h0.659h0.904l0.016,0.677
	c0.044,1.824,0.045,3.314,0.133,4.457l0.727,9.967l0.054,0.745H126.022z"/>
<polygon fill="#FFFFFF" points="143.592,87.739 138.454,87.739 138.454,118.978 149.212,118.978 149.212,115.422 143.592,115.422 
	"/>
<path fill="#FFFFFF" d="M165.636,112.599v-5.027c-0.003-1.524-0.374-2.562-1.049-3.27c-0.676-0.708-1.745-1.164-3.344-1.292
	l-0.64-0.051v-0.641v-0.75l0.557-0.113c1.867-0.376,2.96-0.91,3.576-1.626c0.618-0.71,0.899-1.728,0.901-3.357v-3.853
	c-0.014-1.737-0.537-2.847-1.597-3.638c-1.068-0.792-2.817-1.245-5.276-1.242h-6.92v31.24h6.462c2.883,0.003,4.71-0.492,5.763-1.44
	C165.122,116.604,165.633,115.083,165.636,112.599z M160.544,113.236c-0.001,0.729-0.13,1.395-0.617,1.889
	c-0.494,0.486-1.161,0.616-1.893,0.617c-0.136,0-0.223,0-0.368,0h-0.695v-11.858h0.695c0.144,0,0.232,0,0.368,0
	c0.731,0,1.397,0.13,1.893,0.616c0.487,0.495,0.615,1.162,0.617,1.894V113.236z M160.544,98.238
	c-0.001,0.835-0.114,1.57-0.712,2.078c-0.601,0.47-1.292,0.503-2.165,0.514h-0.695V90.469h0.695
	c0.869,0.013,1.549,0.032,2.156,0.488c0.606,0.498,0.721,1.232,0.721,2.066V98.238z"/>
<rect x="168.382" y="87.739" fill="#FFFFFF" width="5.139" height="31.239"/>
<path fill="#FFFFFF" d="M177.836,88.824c-1.018,1.177-1.5,3.111-1.497,5.922v17.224c-0.003,2.813,0.47,4.744,1.482,5.917
	c1,1.172,2.646,1.805,5.429,1.811c2.791-0.006,4.441-0.638,5.443-1.811c1.014-1.173,1.486-3.104,1.483-5.917V94.747
	c0.003-2.793-0.459-4.729-1.468-5.909c-0.998-1.179-2.646-1.822-5.458-1.828C180.49,87.016,178.843,87.648,177.836,88.824z
	 M181.475,92.574c0.004-0.606,0.073-1.128,0.371-1.587c0.298-0.474,0.882-0.714,1.404-0.696c0.55-0.017,1.156,0.202,1.472,0.693
	c0.309,0.476,0.357,0.994,0.363,1.59v21.3c-0.006,0.623-0.067,1.151-0.39,1.619c-0.332,0.48-0.924,0.673-1.444,0.658
	c-0.02,0-0.04,0.001-0.06,0.001c-0.515,0-1.081-0.233-1.367-0.701c-0.293-0.469-0.342-0.98-0.348-1.577V92.574z"/>
<path fill="#FFFFFF" d="M205.444,110.259l0.032,0.726h-0.726h-0.93l-0.034-0.659c-0.188-3.612-0.457-6.714-0.899-9.348l-2.217-13.24
	h-7.645l0,31.239h3.784V100.27c0-1.28-0.097-3.313-0.276-6.024l-0.049-0.741h0.742h0.792l0.076,0.609
	c0.544,4.388,0.95,6.966,1.086,7.707l3.244,17.157h6.389V87.739h-3.727l0.044,12.808
	C205.131,101.792,205.212,105.051,205.444,110.259z"/>
</svg>
