<?xml version="1.0" encoding="utf-8"?>
<!-- Generator: Adobe Illustrator 13.0.2, SVG Export Plug-In . SVG Version: 6.00 Build 14948)  -->
<!DOCTYPE svg PUBLIC "-//W3C//DTD SVG 1.0//EN" "http://www.w3.org/TR/2001/REC-SVG-20010904/DTD/svg10.dtd">
<svg version="1.0" id="Ñëîé_1" xmlns="http://www.w3.org/2000/svg" xmlns:xlink="http://www.w3.org/1999/xlink" x="0px" y="0px"
	 width="544.922px" height="544.921px" viewBox="0 0 544.922 544.921" enable-background="new 0 0 544.922 544.921"
	 xml:space="preserve">
<path fill="#6684A9" d="M133.491,38.057C174.18,13.882,221.699,0,272.461,0c50.761,0,98.279,13.881,138.966,38.054L133.491,38.057z"
	/>
<path fill="#6684A9" d="M24.564,159.243c9.552-20.88,21.665-40.345,35.937-57.991l423.93,0.011
	c14.27,17.645,26.379,37.107,35.929,57.984L24.564,159.243z"/>
<path fill="#253E79" d="M9.568,344.291c31.519,115.623,137.278,200.63,262.893,200.63c125.611,0,231.369-85.002,262.89-200.621"/>
<path fill="#6684A9" d="M544.807,280.441c0.076-2.651,0.115-5.313,0.115-7.981c0-17.079-1.572-33.792-4.579-50H4.578
	C1.572,238.668,0,255.381,0,272.46c0,2.666,0.039,5.323,0.114,7.972L544.807,280.441z"/>
<g>
	<path fill="#FFFFFF" d="M304.441,447.866c2.238,1.993,4.289,4.191,6.123,6.563l-57.241,74.013
		c-2.774-1.185-5.414-2.622-7.892-4.283L304.441,447.866z"/>
	<path fill="#FFFFFF" d="M296.886,442.345c1.979,1.171,3.865,2.479,5.648,3.909l-59.132,76.469c-1.84-1.374-3.58-2.878-5.205-4.497
		L296.886,442.345z"/>
	<path fill="#FFFFFF" d="M289.622,438.832c1.445,0.555,2.858,1.177,4.232,1.863l-58.016,75.009c-1.011-1.161-1.968-2.37-2.866-3.625
		L289.622,438.832z"/>
	<path fill="#FFFFFF" d="M280.038,436.252c1.327,0.214,2.636,0.481,3.925,0.8l-54.142,70.001c-0.634-1.166-1.222-2.36-1.761-3.582
		L280.038,436.252z"/>
	<path fill="#FFFFFF" d="M268.024,435.823c1.158-0.102,2.329-0.161,3.51-0.18l-46.209,59.759c-0.275-1.133-0.509-2.282-0.703-3.444
		L268.024,435.823z"/>
	<path fill="#FFFFFF" d="M252.046,440.073c1.043-0.481,2.106-0.928,3.19-1.337l-31,40.101c0.05-0.47,0.107-0.938,0.17-1.405
		c0.092-0.679,0.197-1.353,0.317-2.021L252.046,440.073z"/>
	<path fill="#FFFFFF" d="M254.518,528.935c5.505,2.179,11.505,3.377,17.786,3.377c26.696,0,48.337-21.641,48.337-48.337
		c0-10.657-3.448-20.508-9.29-28.499L254.518,528.935z"/>
	<path fill="#253E79" d="M272.48,476.862c0.421,0.642,0.421,1.692,0,2.334l-12.174,18.537c-0.421,0.642-0.18,0.941,0.537,0.666
		l51.699-19.873c0.717-0.275,0.717-0.726,0-1.001l-51.699-19.872c-0.717-0.275-0.958,0.025-0.537,0.666L272.48,476.862z"/>
</g>
<g>
	<path fill="#FFFFFF" d="M180.576,397.419l8.835-31.59h19.713v62.638h-14.647l0.069-30.794l-8.26,30.794h-11.315
		c0,0-8.259-31.509-8.259-30.193v30.193h-14.579v-62.638h19.714L180.576,397.419z"/>
	<path fill="#FFFFFF" d="M226.954,365.829h22.077l12.877,62.638h-17.458l-1.72-13.546h-9.605l-1.782,13.546H214.14L226.954,365.829z
		 M241.736,401.842l-3.82-18.009l-3.82,18.009H241.736z"/>
	<path fill="#FFFFFF" d="M357.481,365.829h22.076l12.878,62.638h-17.458l-1.72-13.546h-9.605l-1.781,13.546h-17.205L357.481,365.829
		z M372.262,401.842l-3.819-18.009l-3.82,18.009H372.262z"/>
	<path fill="#FFFFFF" d="M268.467,380.552h-11.476v-14.723h39.049v14.723h-11.101v47.915h-16.473V380.552z"/>
	<path fill="#FFFFFF" d="M298.355,365.829h22.203c4.977,0,9.402,0.054,12.868,1.72c3.468,1.667,7.542,4.31,7.542,16.621
		c0,5.396-1.494,7.146-2.77,8.926c-1.279,1.78-3.848,4.155-3.848,4.155c3.385,1.54,4.771,4.476,4.771,7.233
		c0,3.54,0.771,16.622,0.771,16.622c0.152,4.309,1.721,7.36,1.721,7.36h-16.766c-0.808-2.128-1.27-5.667-1.27-17.364
		c0-6.157-1.231-6.618-3.848-6.618l-4.979-0.027v24.01h-16.396V365.829z M319.873,391.224c1.342,0,2.459-0.454,3.354-1.362
		c0.896-0.908,1.343-2.694,1.343-5.354c0-3.827-0.976-6-2.923-6.521h-2.108h-4.84v13.236H319.873z"/>
</g>
<g>
	<g>
		<path fill="#253E79" d="M44.25,236.182h18.856c2.238,0,4.063,0.165,5.475,0.494c1.412,0.329,2.633,0.877,3.667,1.643
			c1.033,0.767,1.911,1.898,2.636,3.394c0.653,1.498,0.981,2.977,0.981,4.437c0,2.775-0.953,5.039-2.856,6.79
			c-0.589,0.622-1.28,1.132-2.076,1.533l-3.218,1.205c0.795,0.219,1.435,0.493,1.92,0.821c0.484,0.218,1.211,0.884,2.182,1.997
			c0.968,1.113,2.059,3.511,3.27,7.194l1.608,5.087c0.413,1.459,0.914,2.434,1.501,2.926c0.588,0.492,1.571,0.885,2.955,1.176v0.767
			H70.281l-2.071-7.49c-0.829-2.953-1.683-5.24-2.563-6.861c-0.88-1.622-1.907-2.816-3.079-3.582
			c-1.174-0.766-2.365-1.147-3.571-1.147h-2.434v10.388c0,2.953,0.427,4.949,1.279,5.987c0.853,1.039,2.201,1.669,4.045,1.887v0.819
			H44.25v-0.82c1.719-0.146,3.026-0.749,3.921-1.808c0.824-1.059,1.238-3.083,1.238-6.074v-22.003c0-2.81-0.346-4.77-1.038-5.883
			c-0.691-1.113-2.064-1.779-4.121-2V236.182z M56.563,255.344h2.899c2.657,0,4.779-0.837,6.367-2.513
			c0.759-0.801,1.346-1.766,1.76-2.895c0.414-1.129,0.622-2.422,0.622-3.879c0-2.839-0.552-4.825-1.656-5.954
			c-1.001-1.129-1.985-1.857-2.951-2.187c-0.45-0.144-0.958-0.253-1.528-0.326s-1.286-0.11-2.149-0.11h-3.364V255.344z"/>
		<path fill="#253E79" d="M95.549,274.366c-1.511,1.284-3.555,1.928-6.134,1.928c-2.395,0-4.292-0.557-5.692-1.669
			c-1.401-1.111-2.1-2.69-2.1-4.733c0-1.167,0.219-2.169,0.661-3.008l1.046-1.587l1.377-1.039c0.513-0.366,1.127-0.712,1.845-1.041
			c0.715-0.327,2.156-0.801,4.322-1.421l4.075-1.314c0.66-0.291,1.119-0.601,1.376-0.93c0.256-0.511,0.386-1.769,0.386-3.776
			c0-1.786-0.276-3.062-0.826-3.829c-0.551-0.767-1.523-1.149-2.918-1.149c-1.212,0-2.057,0.253-2.534,0.76l-0.826,1.195
			l-0.274,0.815l-0.22,1.359c-0.331,1.81-1.432,2.715-3.305,2.715c-0.845,0-1.524-0.226-2.037-0.68
			c-0.515-0.455-0.771-1.117-0.771-1.99c0-1.597,0.97-2.886,2.913-3.869c0.916-0.398,2.089-0.726,3.519-0.979
			c1.428-0.254,3.004-0.382,4.727-0.382c3.188,0,5.47,0.532,6.844,1.593c1.375,1.062,2.062,2.893,2.062,5.491v13.071
			c0,0.623,0.018,1.209,0.056,1.757c0.036,0.55,0.138,1.136,0.305,1.758c0.166,0.622,0.747,0.934,1.745,0.934
			c0.48,0,0.877-0.1,1.191-0.297c0.314-0.199,0.749-0.613,1.303-1.246l0.442,0.451c-1.205,2.026-3.159,3.04-5.862,3.04
			c-1.022,0-1.89-0.122-2.601-0.363c-0.713-0.246-1.288-0.533-1.727-0.871c-0.292-0.299-0.694-0.915-1.204-1.852L95.549,274.366z
			 M96.71,260.826c-0.815,0.329-1.5,0.62-2.054,0.875c-0.556,0.256-1,0.492-1.332,0.71c-0.74,0.366-1.443,0.823-2.11,1.369
			c-1.924,1.496-2.886,3.667-2.886,6.512c0,1.277,0.359,2.326,1.082,3.147c0.72,0.821,1.636,1.231,2.748,1.231
			c1.701,0,2.831-0.593,3.386-1.779c0.553-1.185,0.887-2.105,0.999-2.764c0.11-0.657,0.167-1.642,0.167-2.955V260.826z"/>
		<path fill="#253E79" d="M130.27,266.795l-0.673,2.411c-0.15,0.548-0.562,1.405-1.235,2.572c-0.562,1.097-1.683,2.082-3.367,2.958
			c-1.571,0.876-3.441,1.313-5.61,1.313c-3.705,0-6.726-1.163-9.064-3.492c-2.338-2.328-3.507-5.384-3.507-9.169
			c0-4.039,1.283-7.35,3.85-9.933c2.566-2.583,5.911-3.876,10.033-3.876c2.436,0,4.477,0.481,6.127,1.444
			c1.648,0.962,2.473,2.188,2.473,3.677c0,0.909-0.264,1.625-0.791,2.151c-0.529,0.527-1.244,0.79-2.148,0.79
			c-1.206,0-2.016-0.307-2.43-0.923l-0.791-1.521c-0.152-0.507-0.227-1.177-0.227-2.01c0-1.701-0.785-2.552-2.355-2.552
			c-1.869,0-3.477,1.091-4.821,3.27c-1.271,2.253-1.907,5.068-1.907,8.449c0,3.707,0.709,6.604,2.132,8.695
			c1.422,2.089,3.386,3.133,5.893,3.133c3.778,0,6.285-2.517,7.52-7.552L130.27,266.795z"/>
		<path fill="#253E79" d="M131.276,274.987c0.89-0.109,1.471-0.227,1.741-0.354c0.27-0.128,0.677-0.548,1.218-1.259
			c0.542-0.712,0.812-2.034,0.812-3.969v-9.958v-2.956c0-1.166-0.099-2.051-0.294-2.654c-0.196-0.601-0.451-1.067-0.76-1.395
			c-0.311-0.327-0.596-0.538-0.857-0.629c-0.262-0.091-0.49-0.155-0.687-0.192c-0.196-0.035-0.523-0.054-0.98-0.054v-0.71
			l8.966-0.821h0.384v19.37c0,1.862,0.24,3.212,0.721,4.051c0.481,0.729,1.395,1.239,2.741,1.531v0.657h-13.005V274.987z
			 M137.485,236.263c0.963,0,1.797,0.41,2.504,1.227c0.706,0.817,1.059,1.789,1.059,2.915c0,1.055-0.338,1.98-1.011,2.78
			c-0.675,0.799-1.509,1.198-2.504,1.198c-0.932,0-1.767-0.38-2.505-1.145c-0.321-0.362-0.578-0.781-0.771-1.253
			c-0.192-0.472-0.289-0.999-0.289-1.581c0-1.053,0.337-2.006,1.011-2.859C135.654,236.69,136.489,236.263,137.485,236.263z"/>
		<path fill="#253E79" d="M145.469,274.987c1.385-0.146,2.36-0.63,2.924-1.453c0.564-0.822,0.847-2.201,0.847-4.139v-9.975v-2.959
			c0-1.169-0.098-2.082-0.294-2.74c-0.133-0.621-0.371-1.068-0.714-1.342c-0.344-0.274-0.679-0.484-1.007-0.631l-1.524-0.22v-0.792
			l8.771-0.914h0.386v3.448c0.223-0.292,0.639-0.711,1.246-1.259c0.351-0.328,0.702-0.656,1.055-0.985
			c1.021-0.801,2.762-1.204,5.222-1.204c2.554,0,4.302,0.505,5.244,1.513c0.943,1.007,1.526,1.979,1.75,2.913
			c0.224,0.934,0.336,2.225,0.336,3.874v11.266c0,1.979,0.242,3.28,0.727,3.903c0.485,0.623,0.889,1.045,1.212,1.263
			c0.161,0.073,0.388,0.147,0.679,0.221c0.292,0.074,0.598,0.146,0.922,0.22v0.649h-12.543v-0.649c1.179-0.22,2-0.732,2.461-1.539
			c0.461-0.806,0.693-2.16,0.693-4.066v-9.233c0-2.894-0.183-4.835-0.548-5.824c-0.366-0.99-0.867-1.704-1.502-2.145
			c-0.636-0.439-1.336-0.66-2.098-0.66c-0.828,0-1.582,0.267-2.265,0.797c-0.683,0.531-1.264,1.493-1.74,2.885
			c-0.414,1.43-0.619,3.555-0.619,6.375v7.804c0,1.942,0.239,3.391,0.718,4.342c0.48,0.843,1.343,1.264,2.59,1.264v0.649h-12.928
			V274.987z"/>
		<path fill="#253E79" d="M178.707,265.212c-2.487-1.532-3.731-3.778-3.731-6.735c0-2.446,1.043-4.527,3.13-6.242
			c2.087-1.715,4.691-2.574,7.813-2.574c1.088,0,1.805,0.037,2.15,0.109c0.344,0.073,0.68,0.145,1.006,0.216
			c0.327,0.073,0.98,0.271,1.962,0.595c0.618-2.209,1.364-3.796,2.238-4.758c0.874-0.959,1.966-1.441,3.277-1.441
			c1.747,0,2.622,0.799,2.622,2.395c0,0.617-0.208,1.171-0.622,1.661c-0.416,0.49-0.964,0.735-1.65,0.735
			c-0.361,0-0.631-0.074-0.81-0.222l-0.597-0.278c-0.433-0.222-0.884-0.371-1.352-0.446c-1.08,0-1.786,0.913-2.121,2.737
			c1.711,1.021,2.914,2.116,3.606,3.283c0.691,1.167,1.039,2.535,1.039,4.104c0,2.372-1.02,4.397-3.058,6.074
			c-1.02,0.84-2.148,1.47-3.385,1.888c-1.238,0.419-2.602,0.629-4.094,0.629l-2.458-0.15h-0.928c-0.765,0-1.457,0.166-2.074,0.493
			c-0.438,0.292-0.692,0.729-0.764,1.313c0,0.692,0.4,1.167,1.202,1.421l1.694,0.383l0.929,0.109l2.896,0.22
			c3.387,0.328,6.228,0.875,8.522,1.64c2.295,0.767,3.442,2.917,3.442,6.454c0,2.698-1.22,4.886-3.659,6.563
			c-2.44,1.677-5.59,2.516-9.45,2.516c-3.459,0-6.309-0.604-8.547-1.81c-2.24-1.206-3.359-2.778-3.359-4.714
			c0-1.279,0.536-2.312,1.609-3.097c1.073-0.788,2.465-1.179,4.176-1.179c1.2,0,1.819,0.236,1.855,0.711l-0.487,0.219
			c-1.737,0.438-2.605,1.569-2.605,3.395c0,1.46,0.738,2.728,2.215,3.804c1.476,1.076,3.291,1.615,5.443,1.615
			c2.225,0,4.011-0.51,5.361-1.528c1.35-1.021,2.024-2.332,2.024-3.934c0-1.058-0.138-1.806-0.412-2.24
			c-0.273-0.438-0.793-0.875-1.56-1.312c-0.657-0.292-1.35-0.529-2.08-0.711l-3.668-0.437c-0.804-0.073-1.481-0.137-2.028-0.191
			c-0.546-0.056-1.331-0.173-2.353-0.355c-1.096-0.109-2.3-0.43-3.613-0.955c-1.315-0.528-1.971-1.793-1.971-3.797
			c0-1.165,0.272-2.021,0.818-2.568l1.475-1.256c0.399-0.292,1.29-0.748,2.673-1.367L178.707,265.212z M181.623,258.458v0.382
			c0,4.762,1.378,7.142,4.133,7.142c2.9,0,4.352-2.453,4.352-7.359c0-5.271-1.342-7.906-4.024-7.906
			c-1.415,0-2.513,0.672-3.292,2.017C182.012,254.078,181.623,255.987,181.623,258.458z"/>
		<path fill="#253E79" d="M242.35,236.025l0.916,14.01l-0.916,0.164c-2.343-9.074-6.299-13.611-11.864-13.611
			c-3.294,0-5.986,1.79-8.073,5.371c-2.087,3.58-3.131,8.182-3.131,13.806c0,5.443,0.712,9.452,2.138,12.027
			c1.426,2.576,3.021,4.411,4.787,5.507c1.832,1.022,3.768,1.534,5.806,1.534c2.918,0,5.37-1.045,7.357-3.136
			c1.985-2.09,3.335-5.08,4.048-8.967l0.916,0.11c-0.713,4.394-2.273,7.735-4.682,10.022c-2.408,2.289-5.58,3.432-9.515,3.432
			c-5.394,0-9.83-1.89-13.306-5.669c-3.478-3.782-5.216-8.629-5.216-14.547c0-5.843,1.763-10.729,5.292-14.656
			c3.527-3.925,7.886-5.89,13.077-5.89c2.238,0,4.308,0.365,6.207,1.096c0.984,0.365,1.595,0.583,1.833,0.656
			c0.78,0.256,1.339,0.402,1.679,0.437c0.984,0,1.645-0.564,1.984-1.696H242.35z"/>
		<path fill="#253E79" d="M244.879,274.987c1.468-0.218,2.486-0.747,3.053-1.587c0.6-0.767,0.901-2.1,0.901-3.997v-24.639
			l-0.082-3.012c0-1.678-0.241-2.828-0.72-3.449c-0.275-0.51-0.618-0.876-1.028-1.096c-0.412-0.219-1.028-0.329-1.851-0.329v-0.656
			l9.379-1.259h0.563v34.439c0,1.897,0.259,3.248,0.778,4.051c0.519,0.804,1.523,1.315,3.011,1.533v0.657h-14.005V274.987z"/>
		<path fill="#253E79" d="M266.29,250.067h0.354v17.114c0,2.443,0.228,4.276,0.685,5.496c0.457,1.221,1.631,1.831,3.527,1.831
			c0.948,0,1.845-0.327,2.69-0.983s1.37-1.385,1.573-2.189c0.101-0.363,0.193-0.901,0.278-1.611c0.083-0.711,0.159-1.32,0.229-1.832
			l0.204-3.992v-4.428v-2.954c0-1.566-0.186-2.651-0.554-3.252c-0.367-0.602-0.78-1.011-1.235-1.231
			c-0.28-0.182-0.877-0.328-1.789-0.437v-0.711l9.37-0.82h0.304v17.96v2.472c0,1.537,0.234,2.535,0.707,2.992
			c0.47,0.458,1.508,0.797,3.113,1.017v0.597l-9.673,0.945v-3.491l-0.811,0.83l-1.825,1.77c-0.405,0.37-1.055,0.664-1.951,0.887
			c-0.895,0.219-2.036,0.33-3.42,0.33c-2.634,0-4.442-0.476-5.421-1.423c-0.98-0.949-1.588-1.9-1.825-2.849
			c-0.236-0.949-0.354-2.264-0.354-3.943v-8.707v-2.958c0-1.387-0.086-2.344-0.259-2.875c-0.173-0.529-0.468-0.949-0.882-1.26
			c-0.415-0.31-0.77-0.52-1.063-0.63c-0.293-0.109-0.75-0.165-1.373-0.165v-0.696L266.29,250.067z"/>
		<path fill="#253E79" d="M283.738,236.228l9.459-1.263h0.359v17.313c1.324-1.018,2.499-1.734,3.526-2.152
			c1.027-0.417,2.219-0.627,3.578-0.627c3.378,0,6.173,1.19,8.384,3.569c2.211,2.38,3.318,5.437,3.318,9.171
			c0,4.136-1.196,7.513-3.587,10.13c-2.392,2.618-5.511,3.926-9.357,3.926c-1.663,0-3.569-0.465-5.717-1.393l-1.714-0.752
			l-1.145-0.291c-1.148,0-2.035,0.813-2.662,2.436h-0.783v-31.438l-0.166-3.022c0-0.842-0.052-1.529-0.154-2.061
			c-0.104-0.531-0.291-1.018-0.564-1.458c-0.207-0.439-0.541-0.787-1.004-1.042c-0.463-0.257-1.053-0.387-1.771-0.387V236.228z
			 M293.557,262.716v0.88c0,4.1,0.424,7.066,1.273,8.897c0.848,1.831,2.242,2.746,4.183,2.746c1.939,0,3.499-1.098,4.677-3.295
			c1.179-2.198,1.767-5.273,1.767-9.229c0-7.944-1.992-11.918-5.976-11.918c-0.9,0-1.767,0.255-2.598,0.769
			c-0.832,0.512-1.49,1.301-1.975,2.363c-0.244,0.549-0.426,1.024-0.547,1.427s-0.285,1.116-0.493,2.142
			C293.661,258.89,293.557,260.628,293.557,262.716z"/>
		<path fill="#253E79" d="M346.74,244.772v-3.015c0-0.911-0.059-1.605-0.171-2.08c-0.114-0.475-0.384-1.06-0.806-1.753
			c-0.424-0.694-1.252-1.042-2.487-1.042v-0.659l9.103-1.259h0.343v31.95v3.391c0,0.475,0.106,1.003,0.321,1.588
			c0.213,0.582,0.569,1.075,1.063,1.477c0.395,0.219,1.219,0.475,2.472,0.766v0.602l-9.523,1.313v-2.923l-1.572,1.474
			c-1.375,1.129-3.209,1.693-5.501,1.693c-3.307,0-5.958-1.148-7.955-3.444s-2.996-5.45-2.996-9.462
			c0-4.009,1.084-7.301,3.253-9.871c2.169-2.571,4.95-3.856,8.342-3.856c1.238,0,2.25,0.146,3.033,0.437
			c0.423,0.144,0.879,0.354,1.368,0.627c0.489,0.272,1.06,0.644,1.714,1.116V244.772z M335.405,262.321v0.657
			c0,4.015,0.524,7.036,1.572,9.06c1.048,2.025,2.586,3.038,4.615,3.038c2.356,0,3.78-0.901,4.272-2.702
			c0.491-1.802,0.786-3.232,0.885-4.287c0.098-1.056,0.147-2.566,0.147-4.532v-0.983v-0.813v-0.714c0-1.611-0.054-2.838-0.157-3.68
			c0-0.622-0.101-1.282-0.297-1.979c-0.196-0.695-0.476-1.465-0.838-2.308c-0.591-1.574-1.922-2.362-3.99-2.362
			C337.476,250.716,335.405,254.585,335.405,262.321z"/>
		<path fill="#253E79" d="M362.818,259.892l-0.084,2.728c0,3.455,0.763,6.218,2.289,8.291c1.525,2.073,3.589,3.109,6.19,3.109
			c3.952,0,6.501-2.354,7.646-7.064l0.779,0.164c-0.104,0.438-0.208,0.93-0.313,1.476c-0.104,0.545-0.243,0.982-0.416,1.309
			c-0.14,0.475-0.852,1.657-2.138,3.55c-1.284,1.894-4.046,2.84-8.284,2.84c-3.857,0-6.879-1.14-9.068-3.42
			c-2.189-2.282-3.282-5.429-3.282-9.445c0-4.159,1.181-7.507,3.543-10.045c2.36-2.536,5.471-3.805,9.328-3.805
			c3.786,0,6.313,0.87,7.581,2.606c1.269,1.737,2.076,3.063,2.424,3.977c0.347,0.914,0.521,2.158,0.521,3.73H362.818z
			 M362.984,258.836h8.248h1.148c0.695,0,1.043-0.564,1.043-1.695c0-1.968-0.427-3.544-1.278-4.728
			c-0.853-1.185-1.976-1.777-3.366-1.777C365.438,250.636,363.507,253.37,362.984,258.836z"/>
		<path fill="#253E79" d="M391.039,274.824c1.072-0.11,1.884-0.274,2.438-0.493c0.552-0.219,1.215-0.747,1.986-1.588
			c0.334-0.437,0.603-1.14,0.804-2.106c0.2-0.966,0.301-2.198,0.301-3.694v-22.003c0-2.772-0.385-4.706-1.154-5.8
			c-0.672-1.059-2.063-1.751-4.174-2.082v-0.875h17.203c3.8,0,6.567,0.494,8.301,1.478c1.732,0.984,3.025,2.252,3.876,3.802
			c0.85,1.551,1.276,3.165,1.276,4.841c0,1.642-0.359,3.191-1.072,4.651c-0.715,1.459-1.66,2.617-2.84,3.475
			c-1.179,0.857-2.383,1.45-3.611,1.777c-0.598,0.147-1.287,0.256-2.067,0.329c-0.782,0.073-1.786,0.109-3.015,0.109h-5.829v10.294
			c0,2.702,0.39,4.609,1.172,5.722c0.781,1.114,2.288,1.835,4.519,2.164v0.82h-18.113V274.824z M403.462,255.507h2.687
			c2.652,0,4.724-0.8,6.217-2.403c1.49-1.603,2.237-3.878,2.237-6.828c0-2.73-0.664-4.88-1.989-6.445
			c-1.327-1.565-3.333-2.35-6.018-2.35h-3.134V255.507z"/>
		<path fill="#253E79" d="M433.72,274.366c-1.405,1.284-3.308,1.928-5.707,1.928c-2.228,0-3.992-0.557-5.295-1.669
			c-1.304-1.111-1.954-2.69-1.954-4.733c0-1.167,0.204-2.169,0.614-3.008l0.974-1.587l1.281-1.039
			c0.478-0.366,1.049-0.712,1.717-1.041c0.665-0.327,2.006-0.801,4.02-1.421l3.791-1.314c0.615-0.291,1.042-0.601,1.28-0.93
			c0.239-0.511,0.359-1.769,0.359-3.776c0-1.786-0.257-3.062-0.769-3.829c-0.513-0.767-1.417-1.149-2.715-1.149
			c-1.127,0-1.914,0.253-2.357,0.76l-0.768,1.195l-0.256,0.815l-0.205,1.359c-0.308,1.81-1.333,2.715-3.074,2.715
			c-0.785,0-1.418-0.226-1.896-0.68c-0.478-0.455-0.717-1.117-0.717-1.99c0-1.597,0.903-2.886,2.71-3.869
			c0.852-0.398,1.943-0.726,3.273-0.979c1.328-0.254,2.794-0.382,4.397-0.382c2.964,0,5.087,0.532,6.365,1.593
			c1.278,1.062,1.92,2.893,1.92,5.491v13.071c0,0.623,0.017,1.209,0.05,1.757c0.034,0.55,0.129,1.136,0.284,1.758
			c0.153,0.622,0.695,0.934,1.624,0.934c0.446,0,0.815-0.1,1.107-0.297c0.293-0.199,0.696-0.613,1.212-1.246l0.412,0.451
			c-1.121,2.026-2.939,3.04-5.453,3.04c-0.952,0-1.759-0.122-2.42-0.363c-0.663-0.246-1.198-0.533-1.606-0.871
			c-0.271-0.299-0.646-0.915-1.12-1.852L433.72,274.366z M434.8,260.826c-0.759,0.329-1.396,0.62-1.911,0.875
			c-0.517,0.256-0.93,0.492-1.238,0.71c-0.689,0.366-1.343,0.823-1.962,1.369c-1.791,1.496-2.687,3.667-2.687,6.512
			c0,1.277,0.334,2.326,1.007,3.147c0.671,0.821,1.522,1.231,2.556,1.231c1.583,0,2.633-0.593,3.15-1.779
			c0.516-1.185,0.826-2.105,0.93-2.764c0.103-0.657,0.155-1.642,0.155-2.955V260.826z"/>
		<path fill="#253E79" d="M446.694,274.995c0.7,0,1.288-0.118,1.766-0.355c0.478-0.236,0.875-0.594,1.194-1.068
			c0.54-0.802,0.811-2.188,0.811-4.16v-9.962v-2.957c0-1.167-0.08-2.062-0.24-2.682c-0.161-0.62-0.449-1.112-0.865-1.478
			c-0.193-0.183-0.385-0.31-0.578-0.384c-0.192-0.072-0.384-0.154-0.576-0.246s-0.594-0.137-1.203-0.137v-0.71l8.897-0.821h0.337
			l-0.077,4.491c0.863-1.63,1.744-2.835,2.64-3.614c0.896-0.78,2.016-1.17,3.359-1.17c1.089,0,1.968,0.309,2.641,0.925
			c0.671,0.617,1.007,1.413,1.007,2.391c0,0.798-0.223,1.461-0.671,1.985c-0.446,0.526-1.023,0.789-1.726,0.789
			c-0.575,0-1.063-0.155-1.463-0.465c-0.399-0.309-0.807-0.846-1.222-1.612c-0.416-0.765-0.815-1.184-1.198-1.257
			c-0.96,0-1.735,0.785-2.326,2.354c-0.592,1.569-0.887,3.65-0.887,6.24v8.319c0,1.314,0.047,2.218,0.143,2.71
			c0.097,0.492,0.32,0.958,0.673,1.396c0.352,0.439,0.712,0.758,1.079,0.958c0.368,0.2,0.968,0.375,1.799,0.521v0.649h-13.313
			V274.995z"/>
		<path fill="#253E79" d="M467.057,274.371c0.889-0.108,1.47-0.227,1.74-0.354c0.271-0.126,0.678-0.547,1.219-1.259
			c0.541-0.71,0.812-2.033,0.812-3.967v-9.96v-2.955c0-1.168-0.099-2.052-0.295-2.655c-0.196-0.601-0.45-1.067-0.76-1.396
			c-0.311-0.327-0.597-0.538-0.857-0.629c-0.262-0.091-0.491-0.155-0.687-0.191c-0.196-0.035-0.523-0.054-0.98-0.054v-0.711
			l8.966-0.82h0.384v19.371c0,1.86,0.241,3.21,0.722,4.049c0.481,0.73,1.395,1.239,2.741,1.531v0.658h-13.004V274.371z
			 M473.265,235.647c0.963,0,1.799,0.41,2.505,1.227s1.059,1.789,1.059,2.914c0,1.054-0.337,1.98-1.011,2.78
			c-0.675,0.799-1.508,1.199-2.504,1.199c-0.932,0-1.767-0.38-2.505-1.145c-0.32-0.363-0.578-0.781-0.771-1.253
			c-0.192-0.473-0.289-0.999-0.289-1.581c0-1.053,0.337-2.006,1.012-2.859C471.435,236.075,472.27,235.647,473.265,235.647z"/>
		<path fill="#253E79" d="M481.711,266.226h0.587c0.497,1.781,0.949,3.07,1.359,3.866c0.409,0.799,1.165,1.883,2.268,3.255
			c1.102,1.262,2.649,1.893,4.642,1.893c1.387,0,2.543-0.422,3.467-1.268c0.926-0.843,1.389-1.944,1.389-3.304
			c0-1.248-0.313-2.137-0.934-2.67c-0.623-0.532-1.279-0.963-1.974-1.293c-0.692-0.33-1.769-0.734-3.226-1.212
			c-1.457-0.477-2.531-0.927-3.223-1.35c-0.694-0.421-1.609-1.165-2.746-2.23c-0.961-0.989-1.439-2.44-1.439-4.349
			c0-2.276,0.869-4.176,2.608-5.7c1.737-1.522,3.956-2.285,6.653-2.285c1.065,0,1.783,0.038,2.156,0.112
			c0.373,0.073,1.232,0.369,2.582,0.887l1.33,0.277c0.319,0,0.594-0.07,0.824-0.211c0.23-0.143,0.471-0.497,0.719-1.065l0.598,0.11
			v8.497h-0.692c-0.318-1.114-0.62-1.905-0.904-2.373l-0.532-1.294c-1.35-2.588-3.248-3.883-5.696-3.883
			c-1.279,0-2.325,0.366-3.142,1.098c-0.816,0.733-1.225,1.685-1.225,2.857c0,1.099,0.426,2.034,1.281,2.803
			c0.853,0.768,2.293,1.482,4.321,2.143l3.04,0.933c0.961,0.439,1.797,0.971,2.509,1.594c1.706,1.319,2.56,3.205,2.56,5.659
			c0,2.455-0.924,4.498-2.77,6.126c-1.846,1.631-4.207,2.445-7.08,2.445c-0.746,0-1.377-0.037-1.891-0.115
			c-0.516-0.075-1.092-0.246-1.73-0.513l-2.29-0.743l-1.064-0.172c-0.743,0-1.274,0.379-1.593,1.137h-0.742V266.226z"/>
	</g>
	<g>
		<path fill="#253E79" d="M44.25,235.874c-0.17,0-0.308,0.138-0.308,0.308v0.875c0,0.158,0.119,0.29,0.275,0.307
			c1.947,0.208,3.257,0.832,3.893,1.854c0.657,1.059,0.991,2.984,0.991,5.721v22.003c0,2.907-0.395,4.887-1.172,5.886
			c-0.828,0.979-2.077,1.551-3.704,1.688c-0.159,0.014-0.282,0.147-0.282,0.308v0.82c0,0.17,0.138,0.309,0.308,0.309h17.638
			c0.17,0,0.308-0.139,0.308-0.309v-0.819c0-0.156-0.117-0.288-0.271-0.306c-1.753-0.207-3.046-0.805-3.843-1.776
			c-0.803-0.977-1.209-2.926-1.209-5.792c0,0,0-9.501,0-10.081c0.47,0,2.125,0,2.125,0c1.141,0,2.285,0.37,3.403,1.098
			c1.125,0.735,2.126,1.903,2.978,3.471c0.863,1.592,1.717,3.878,2.537,6.798l2.071,7.49c0.037,0.133,0.158,0.226,0.296,0.226
			h10.869c0.17,0,0.308-0.139,0.308-0.309v-0.767c0-0.146-0.102-0.271-0.244-0.301c-1.327-0.28-2.275-0.653-2.821-1.11
			c-0.538-0.45-1.009-1.384-1.403-2.774l-1.611-5.097c-1.236-3.759-2.326-6.146-3.332-7.302c-1.01-1.159-1.758-1.837-2.287-2.076
			c-0.293-0.201-0.693-0.383-1.136-0.552c0.904-0.339,2.416-0.905,2.416-0.905c0.855-0.429,1.583-0.966,2.192-1.61
			c1.946-1.79,2.94-4.15,2.94-7.001c0-1.495-0.339-3.029-1.007-4.56c-0.748-1.545-1.666-2.725-2.733-3.518
			c-1.063-0.789-2.335-1.359-3.78-1.695c-1.431-0.333-3.296-0.502-5.545-0.502H44.25z M63.105,236.489
			c2.202,0,4.021,0.164,5.405,0.486c1.363,0.317,2.559,0.852,3.554,1.591c0.986,0.732,1.841,1.836,2.541,3.28
			c0.629,1.442,0.951,2.893,0.951,4.303l0,0c0,2.672-0.928,4.88-2.757,6.564c-0.575,0.606-1.245,1.101-2.005,1.485l-3.188,1.191
			c-0.121,0.045-0.2,0.161-0.2,0.289c0,0.005,0,0.009,0,0.014c0.006,0.133,0.097,0.247,0.226,0.283
			c0.759,0.209,1.374,0.471,1.83,0.779c0.349,0.162,0.954,0.605,2.122,1.945c0.938,1.077,2.018,3.461,3.21,7.088l1.606,5.083
			c0.432,1.523,0.955,2.53,1.597,3.069c0.595,0.498,1.537,0.883,2.845,1.18c0,0.094,0,0.114,0,0.219c-0.569,0-9.892,0-10.327,0
			c-0.118-0.425-2.009-7.266-2.009-7.266c-0.833-2.964-1.704-5.293-2.589-6.925c-0.9-1.658-1.97-2.901-3.182-3.692
			c-1.22-0.795-2.478-1.198-3.74-1.198h-2.434c-0.17,0-0.308,0.138-0.308,0.308v10.388c0,3.056,0.441,5.078,1.349,6.182
			c0.856,1.044,2.202,1.688,3.976,1.946c0,0.111,0,0.138,0,0.258c-0.584,0-16.438,0-17.022,0c0-0.118,0-0.144,0-0.252
			c1.653-0.196,2.955-0.813,3.848-1.869c0.884-1.135,1.311-3.184,1.311-6.273v-22.003c0-2.894-0.354-4.872-1.083-6.046
			c-0.707-1.137-2.09-1.831-4.075-2.093c0-0.129,0-0.169,0-0.311C45.153,236.489,63.105,236.489,63.105,236.489z"/>
		<path fill="#253E79" d="M56.563,237.173c-0.17,0-0.308,0.138-0.308,0.308v17.863c0,0.17,0.138,0.308,0.308,0.308h2.899
			c2.732,0,4.95-0.878,6.591-2.609c0.784-0.827,1.398-1.836,1.826-3.001c0.425-1.16,0.64-2.5,0.64-3.984
			c0-2.91-0.586-4.985-1.744-6.169c-1.021-1.152-2.058-1.917-3.072-2.262c-0.472-0.152-1.004-0.266-1.587-0.341
			c-0.582-0.075-1.318-0.112-2.188-0.112H56.563z M59.927,237.789c0.845,0,1.555,0.036,2.11,0.107
			c0.545,0.071,1.041,0.176,1.472,0.315c0.907,0.309,1.856,1.015,2.815,2.097c1.051,1.076,1.578,3.007,1.578,5.75
			c0,1.411-0.202,2.681-0.602,3.773c-0.399,1.085-0.968,2.023-1.694,2.79c-1.521,1.604-3.587,2.417-6.144,2.417c0,0-2.099,0-2.591,0
			c0-0.584,0-16.664,0-17.248C57.378,237.789,59.927,237.789,59.927,237.789z"/>
		<path fill="#253E79" d="M89.376,249.821c-1.444,0.256-2.651,0.592-3.588,1c-2.061,1.042-3.098,2.436-3.098,4.151
			c0,0.96,0.294,1.707,0.875,2.22c0.567,0.503,1.321,0.757,2.241,0.757c2.034,0,3.248-0.998,3.608-2.967l0.222-1.365
			c0,0,0.223-0.65,0.248-0.724c0.045-0.066,0.802-1.16,0.802-1.16c0.385-0.404,1.162-0.627,2.28-0.627
			c1.283,0,2.181,0.344,2.669,1.021c0.509,0.71,0.768,1.938,0.768,3.649c0,2.426-0.192,3.317-0.354,3.638
			c-0.19,0.235-0.613,0.517-1.225,0.787l-4.045,1.301c-2.159,0.619-3.627,1.102-4.355,1.436c-0.733,0.336-1.371,0.696-1.895,1.07
			l-1.384,1.044c-0.029,0.021-0.053,0.047-0.072,0.076l-1.045,1.587c-0.478,0.905-0.711,1.965-0.711,3.178
			c0,2.134,0.746,3.808,2.216,4.976c1.45,1.151,3.43,1.735,5.884,1.735c2.642,0,4.772-0.674,6.334-2.003
			c0.006-0.004,0.012-0.011,0.018-0.017c0,0,0.557-0.554,0.88-0.876c0.421,0.74,0.776,1.29,1.048,1.567
			c0.498,0.388,1.091,0.688,1.846,0.946c0.742,0.253,1.65,0.382,2.701,0.382c2.807,0,4.868-1.074,6.126-3.191
			c0.072-0.121,0.053-0.273-0.045-0.374l-0.442-0.45c-0.061-0.062-0.143-0.095-0.229-0.092c-0.086,0.002-0.167,0.04-0.223,0.104
			c-0.531,0.606-0.946,1.007-1.235,1.188c-0.263,0.166-0.608,0.249-1.027,0.249c-1.261,0-1.401-0.53-1.447-0.704
			c-0.162-0.604-0.261-1.174-0.295-1.699c0-0.001-0.055-1.736-0.055-1.736v-13.071c0-2.687-0.734-4.616-2.182-5.735
			c-1.423-1.1-3.789-1.657-7.032-1.657C92.428,249.435,90.819,249.564,89.376,249.821z M83.973,256.731
			c-0.449-0.396-0.667-0.972-0.667-1.759c0-1.485,0.897-2.66,2.743-3.594c0.877-0.381,2.038-0.704,3.434-0.951
			c1.408-0.25,2.981-0.377,4.673-0.377c3.104,0,5.343,0.515,6.656,1.529c1.289,0.996,1.943,2.761,1.943,5.248v13.071l0.056,1.777
			c0.037,0.565,0.142,1.176,0.314,1.816c0.205,0.771,0.892,1.162,2.042,1.162c0.537,0,0.993-0.116,1.355-0.345
			c0.294-0.185,0.683-0.558,1.143-1.063c0.016,0.017,0.016,0.017,0.032,0.032c-1.161,1.807-2.938,2.708-5.455,2.708
			c-0.983,0-1.825-0.116-2.502-0.349c-0.681-0.232-1.232-0.51-1.637-0.822c-0.156-0.164-0.509-0.63-1.123-1.754
			c-0.046-0.086-0.13-0.144-0.226-0.157c-0.096-0.014-0.193,0.018-0.261,0.087c0,0-1.122,1.116-1.147,1.143
			c-1.447,1.229-3.442,1.853-5.931,1.853c-2.312,0-4.162-0.539-5.501-1.602c-1.334-1.06-1.983-2.53-1.983-4.493
			c0-1.111,0.211-2.075,0.625-2.864c0,0,0.946-1.433,1.001-1.517c0.079-0.06,1.335-1.006,1.335-1.006
			c0.486-0.346,1.09-0.687,1.787-1.007c0.7-0.32,2.14-0.793,4.278-1.406l4.085-1.316c0.745-0.327,1.233-0.662,1.524-1.033
			c0.314-0.612,0.451-1.893,0.451-3.966c0-1.868-0.289-3.18-0.883-4.008c-0.61-0.848-1.676-1.278-3.168-1.278
			c-1.313,0-2.215,0.281-2.758,0.857l-0.855,1.231c-0.016,0.023-0.029,0.05-0.038,0.076l-0.274,0.815l-0.232,1.408
			c-0.302,1.65-1.284,2.457-3.001,2.457C85.031,257.333,84.431,257.136,83.973,256.731z"/>
		<path fill="#253E79" d="M96.595,260.54l-2.068,0.881c0,0-1.373,0.733-1.373,0.733c-0.723,0.355-1.452,0.828-2.135,1.388
			c-1.988,1.546-2.999,3.818-2.999,6.75c0,1.35,0.39,2.478,1.159,3.351c0.778,0.887,1.78,1.336,2.979,1.336
			c1.823,0,3.056-0.658,3.665-1.956c0.571-1.224,0.907-2.153,1.024-2.843c0.114-0.677,0.171-1.688,0.171-3.006v-6.348
			c0-0.104-0.049-0.201-0.135-0.258C96.797,260.51,96.69,260.5,96.595,260.54z M89.642,273.236
			c-0.668-0.759-1.006-1.749-1.006-2.944c0-2.732,0.931-4.841,2.768-6.269c0.653-0.536,1.342-0.983,2.057-1.335
			c0.033-0.019,1.325-0.707,1.325-0.707s1.021-0.435,1.617-0.689c0,0.8,0,5.882,0,5.882c0,1.285-0.055,2.261-0.163,2.904
			c-0.106,0.625-0.434,1.527-0.975,2.685c-0.505,1.076-1.521,1.601-3.107,1.601C91.13,274.362,90.307,273.994,89.642,273.236z"/>
		<path fill="#253E79" d="M110.445,253.239c-2.614,2.63-3.939,6.045-3.939,10.15c0,3.852,1.211,7.011,3.598,9.387
			c2.387,2.378,5.509,3.583,9.281,3.583c2.213,0,4.151-0.455,5.76-1.354c1.724-0.896,2.901-1.937,3.491-3.087
			c0.685-1.187,1.098-2.052,1.258-2.631l0.672-2.409c0.023-0.083,0.011-0.172-0.035-0.247c-0.046-0.073-0.121-0.124-0.206-0.139
			l-0.898-0.164c-0.161-0.029-0.315,0.071-0.354,0.229c-1.208,4.925-3.57,7.317-7.221,7.317c-2.42,0-4.264-0.98-5.638-2.999
			c-1.379-2.026-2.079-4.894-2.079-8.521c0-3.31,0.628-6.102,1.868-8.298c1.273-2.063,2.807-3.114,4.553-3.114
			c1.396,0,2.047,0.713,2.047,2.245c0,0.874,0.079,1.56,0.239,2.098l0.813,1.575c0.489,0.732,1.393,1.088,2.702,1.088
			c0.983,0,1.78-0.295,2.365-0.879c0.585-0.584,0.881-1.381,0.881-2.37c0-1.6-0.883-2.926-2.625-3.942
			c-1.691-0.986-3.805-1.486-6.282-1.486C116.509,249.272,113.06,250.606,110.445,253.239z M110.539,272.339
			c-2.268-2.257-3.417-5.269-3.417-8.95c0-3.936,1.265-7.205,3.761-9.716c2.495-2.511,5.797-3.785,9.814-3.785
			c2.367,0,4.376,0.472,5.972,1.402c1.561,0.911,2.32,2.027,2.32,3.411c0,0.83-0.229,1.463-0.701,1.934
			c-0.472,0.47-1.104,0.699-1.93,0.699c-1.092,0-1.823-0.265-2.173-0.787l-0.774-1.491c-0.12-0.419-0.192-1.066-0.192-1.868
			c0-1.871-0.92-2.859-2.663-2.859c-1.974,0-3.684,1.149-5.083,3.416c-1.298,2.3-1.953,5.193-1.953,8.611
			c0,3.754,0.735,6.737,2.185,8.867c1.476,2.17,3.544,3.27,6.147,3.27c3.845,0,6.441-2.536,7.736-7.508
			c0.125,0.023,0.157,0.029,0.294,0.054c-0.135,0.487-0.582,2.086-0.582,2.086c-0.143,0.522-0.548,1.363-1.205,2.501
			c-0.537,1.047-1.625,1.998-3.242,2.839c-1.525,0.851-3.362,1.279-5.469,1.279C115.781,275.742,112.805,274.598,110.539,272.339z"
			/>
		<path fill="#253E79" d="M140.434,249.727l-8.994,0.822c-0.158,0.015-0.28,0.147-0.28,0.307v0.71c0,0.164,0.144,0.299,0.308,0.308
			l0.926,0.05c-0.001,0,0.64,0.179,0.64,0.179c0.212,0.074,0.459,0.259,0.735,0.55c0.277,0.293,0.51,0.724,0.69,1.279
			c0.186,0.57,0.28,1.431,0.28,2.559v12.914c0,1.857-0.252,3.129-0.749,3.782c-0.667,0.878-0.978,1.107-1.103,1.166
			c-0.165,0.078-0.583,0.198-1.648,0.329c-0.154,0.018-0.271,0.149-0.271,0.305v0.657c0,0.17,0.138,0.309,0.308,0.309h13.005
			c0.17,0,0.308-0.139,0.308-0.309v-0.657c0-0.146-0.101-0.271-0.243-0.301c-1.26-0.273-2.117-0.744-2.55-1.4
			c-0.441-0.771-0.67-2.082-0.67-3.881v-19.37c0-0.17-0.138-0.308-0.307-0.308H140.434z M140.462,250.342c0,0,0.037,0,0.047,0
			c0,0.595,0,19.063,0,19.063c0,1.935,0.25,3.31,0.763,4.203c0.501,0.763,1.416,1.292,2.7,1.611c0,0.053,0,0.059,0,0.117
			c-0.573,0-11.817,0-12.389,0c0-0.043,0-0.045,0-0.087c0.762-0.103,1.294-0.212,1.565-0.339c0.202-0.096,0.562-0.34,1.331-1.352
			c0.588-0.772,0.874-2.131,0.874-4.154v-12.914c0-1.208-0.101-2.108-0.309-2.749c-0.209-0.643-0.488-1.152-0.829-1.512
			c-0.349-0.369-0.669-0.6-0.979-0.708c0,0-0.731-0.204-0.731-0.204c-0.002,0-0.424-0.024-0.729-0.042c0-0.067,0-0.073,0-0.139
			C132.302,251.089,140.462,250.342,140.462,250.342z"/>
		<path fill="#253E79" d="M134.739,237.354c-0.715,0.905-1.077,1.931-1.077,3.05c0,0.619,0.104,1.19,0.311,1.697
			c0.205,0.503,0.483,0.954,0.826,1.342c0.803,0.831,1.72,1.248,2.735,1.248c1.085,0,2.007-0.44,2.74-1.308
			c0.719-0.854,1.084-1.855,1.084-2.978c0-1.196-0.382-2.245-1.135-3.115c-0.766-0.885-1.686-1.334-2.737-1.334
			C136.395,235.955,135.47,236.426,134.739,237.354z M135.25,243.024c-0.287-0.325-0.528-0.717-0.707-1.155
			c-0.176-0.433-0.266-0.926-0.266-1.465c0-0.977,0.318-1.875,0.945-2.668c0.618-0.784,1.358-1.165,2.263-1.165
			c0.876,0,1.619,0.366,2.272,1.12c0.653,0.755,0.984,1.669,0.984,2.713c0,0.987-0.307,1.832-0.939,2.582
			c-0.618,0.733-1.36,1.089-2.269,1.089C136.68,244.075,135.933,243.731,135.25,243.024z"/>
		<path fill="#253E79" d="M156.967,250.785c-0.02,0.018-0.606,0.564-0.606,0.564l-0.468,0.438c-0.289,0.261-0.525,0.486-0.729,0.689
			c0-0.941,0-2.653,0-2.653c0-0.17-0.138-0.308-0.308-0.308h-0.386l-8.803,0.916c-0.156,0.016-0.276,0.148-0.276,0.306v0.792
			c0,0.153,0.112,0.283,0.264,0.305c0,0,1.36,0.196,1.467,0.211c0.297,0.137,0.605,0.327,0.916,0.576
			c0.286,0.226,0.489,0.619,0.605,1.165c0.193,0.652,0.288,1.544,0.288,2.676v12.934c0,1.864-0.266,3.198-0.792,3.965
			c-0.509,0.74-1.418,1.186-2.703,1.32c-0.156,0.018-0.275,0.149-0.275,0.307v0.657c0,0.17,0.138,0.309,0.308,0.309h12.928
			c0.169,0,0.307-0.139,0.307-0.309v-0.649c0-0.17-0.138-0.308-0.307-0.308c-1.138,0-1.897-0.362-2.323-1.108
			c-0.447-0.89-0.678-2.304-0.678-4.189v-7.804c0-2.781,0.204-4.897,0.607-6.29c0.45-1.313,1-2.236,1.632-2.728
			c0.626-0.486,1.324-0.732,2.077-0.732c0.694,0,1.342,0.204,1.923,0.605c0.58,0.402,1.047,1.074,1.388,1.998
			c0.351,0.95,0.529,2.875,0.529,5.717v9.233c0,1.841-0.22,3.157-0.653,3.913c-0.417,0.73-1.154,1.185-2.25,1.389
			c-0.146,0.028-0.251,0.155-0.251,0.304v0.649c0,0.17,0.138,0.309,0.308,0.309h12.543c0.169,0,0.307-0.139,0.307-0.309v-0.649
			c0-0.143-0.101-0.267-0.239-0.3l-0.914-0.219l-0.627-0.202c-0.249-0.174-0.633-0.575-1.097-1.171
			c-0.439-0.563-0.662-1.813-0.662-3.715v-11.266c0-1.666-0.116-2.993-0.344-3.946c-0.235-0.983-0.849-2.01-1.825-3.051
			c-0.999-1.068-2.839-1.61-5.469-1.61C159.826,249.515,158.056,249.931,156.967,250.785z M154.502,250.129c0,0,0.036,0,0.047,0
			c0,0.509,0,3.142,0,3.142c0,0.131,0.083,0.249,0.208,0.292s0.261,0.001,0.343-0.104c0.211-0.274,0.617-0.684,1.208-1.217
			c0.004-0.003,1.059-0.988,1.059-0.988c0.942-0.738,2.635-1.121,5.012-1.121c2.452,0,4.141,0.477,5.02,1.415
			c0.901,0.963,1.464,1.896,1.675,2.774c0.217,0.906,0.327,2.185,0.327,3.802v11.266c0,2.07,0.259,3.409,0.792,4.093
			c0.51,0.655,0.93,1.09,1.282,1.329c0.045,0.024,0.776,0.263,0.776,0.263c0,0,0.414,0.1,0.688,0.165c0,0.046,0,0.049,0,0.099
			c-0.571,0-11.356,0-11.927,0c0-0.054,0-0.058,0-0.107c1.128-0.263,1.951-0.799,2.421-1.621c0.494-0.862,0.735-2.242,0.735-4.219
			v-9.233c0-2.957-0.186-4.897-0.568-5.931c-0.386-1.044-0.929-1.815-1.615-2.291c-0.687-0.474-1.452-0.715-2.273-0.715
			c-0.892,0-1.718,0.29-2.454,0.862c-0.729,0.567-1.349,1.585-1.842,3.028c-0.423,1.462-0.636,3.636-0.636,6.475v7.804
			c0,2.011,0.246,3.477,0.752,4.48c0.5,0.877,1.368,1.332,2.557,1.403c0,0.031,0,0.032,0,0.063c-0.572,0-11.739,0-12.313,0
			c0-0.047,0-0.05,0-0.094c1.322-0.191,2.297-0.698,2.871-1.535c0.606-0.883,0.9-2.293,0.9-4.313v-12.934
			c0-1.191-0.104-2.143-0.308-2.828c-0.141-0.667-0.417-1.178-0.817-1.495c-0.359-0.287-0.719-0.512-1.071-0.671
			c-0.027-0.012-0.055-0.02-0.083-0.024c0,0-0.9-0.13-1.261-0.181c0-0.111,0-0.135,0-0.248
			C146.525,250.96,154.502,250.129,154.502,250.129z"/>
		<path fill="#253E79" d="M193.048,245.617c-0.86,0.946-1.601,2.499-2.212,4.583c-0.431-0.131-1.693-0.514-1.693-0.514l-1.01-0.218
			c-0.371-0.077-1.094-0.115-2.213-0.115c-3.18,0-5.874,0.889-8.008,2.644c-2.151,1.768-3.242,3.948-3.242,6.479
			c0,3.059,1.304,5.413,3.877,6.998c0.003,0.003,0.717,0.405,1.23,0.696c-1.086,0.5-1.818,0.882-2.179,1.146l-1.493,1.271
			c-0.621,0.62-0.927,1.558-0.927,2.803c0,2.133,0.729,3.506,2.164,4.082c1.339,0.537,2.583,0.865,3.697,0.977
			c-0.021-0.003,2.354,0.355,2.354,0.355c0.001,0,2.03,0.191,2.03,0.191l3.66,0.436c0.667,0.168,1.35,0.401,1.992,0.686
			c0.69,0.396,1.178,0.803,1.422,1.194c0.167,0.265,0.365,0.839,0.365,2.077c0,1.512-0.623,2.719-1.902,3.688
			c-1.29,0.974-3.032,1.467-5.176,1.467c-2.075,0-3.845-0.523-5.262-1.556c-1.406-1.024-2.089-2.188-2.089-3.556
			c0-1.681,0.776-2.693,2.373-3.096l0.539-0.236c0.118-0.053,0.191-0.175,0.181-0.305c-0.077-0.996-1.646-0.996-2.163-0.996
			c-1.771,0-3.237,0.418-4.357,1.239c-1.151,0.842-1.735,1.967-1.735,3.345c0,2.049,1.184,3.727,3.521,4.986
			c2.275,1.224,5.2,1.845,8.693,1.845c3.906,0,7.144-0.864,9.624-2.569c2.517-1.731,3.793-4.025,3.793-6.817
			c0-3.667-1.229-5.937-3.653-6.745c-2.309-0.77-5.199-1.327-8.59-1.656l-2.902-0.219l-0.916-0.108l-1.662-0.378
			c-0.86-0.273-0.962-0.771-0.962-1.12c0.059-0.458,0.265-0.816,0.627-1.058c0.544-0.287,1.194-0.44,1.903-0.44h0.928
			c0,0,2.442,0.149,2.445,0.149c1.535,0,2.944-0.218,4.206-0.646c1.267-0.429,2.438-1.082,3.482-1.941
			c2.104-1.731,3.169-3.855,3.169-6.312c0-1.615-0.364-3.049-1.082-4.26c-0.686-1.159-1.878-2.255-3.521-3.265
			c0.474-2.271,1.444-2.291,1.771-2.291c0.385,0.066,0.809,0.206,1.211,0.412l0.606,0.283c-0.024-0.011-0.046-0.025-0.067-0.042
			c0.235,0.195,0.573,0.293,1.007,0.293c0.776,0,1.41-0.284,1.884-0.843c0.462-0.545,0.695-1.171,0.695-1.86
			c0-1.233-0.508-2.703-2.929-2.703C195.158,244.075,193.979,244.594,193.048,245.617z M191.181,250.85
			c0.073-0.039,0.13-0.105,0.152-0.186c0.602-2.153,1.332-3.712,2.17-4.633c0.82-0.902,1.817-1.341,3.049-1.341
			c1.579,0,2.314,0.664,2.314,2.087c0,0.547-0.18,1.025-0.549,1.463c-0.357,0.42-0.82,0.625-1.415,0.625
			c-0.282,0-0.494-0.053-0.613-0.151c-0.021-0.018-0.043-0.032-0.066-0.042l-0.596-0.278c-0.45-0.231-0.936-0.391-1.434-0.471
			c-1.292-0.004-2.108,1.002-2.472,2.985c-0.023,0.126,0.035,0.254,0.145,0.32c1.66,0.991,2.837,2.059,3.498,3.176
			c0.661,1.116,0.996,2.444,0.996,3.947c0,2.264-0.991,4.229-2.945,5.836c-0.986,0.813-2.092,1.43-3.288,1.834
			c-1.2,0.407-2.544,0.613-3.996,0.613l-2.439-0.149l-0.947-0.001c-0.81,0-1.557,0.178-2.219,0.528
			c-0.54,0.358-0.842,0.874-0.925,1.547c-0.002,0.615,0.244,1.381,1.414,1.751l1.72,0.392l0.959,0.114l2.909,0.221
			c3.34,0.323,6.184,0.87,8.449,1.626c2.174,0.726,3.232,2.741,3.232,6.161c0,2.578-1.187,4.701-3.527,6.31
			c-2.375,1.635-5.496,2.461-9.275,2.461c-3.39,0-6.217-0.596-8.401-1.771c-2.151-1.159-3.197-2.612-3.197-4.443
			c0-1.188,0.485-2.118,1.484-2.849c1.012-0.742,2.356-1.119,3.993-1.119c0.721,0,1.224,0.093,1.436,0.255
			c-0.093,0.041-0.193,0.086-0.193,0.086c-1.833,0.457-2.787,1.699-2.787,3.676c0,1.557,0.788,2.92,2.341,4.053
			c1.524,1.111,3.417,1.675,5.625,1.675c2.281,0,4.147-0.536,5.546-1.592c1.425-1.077,2.147-2.483,2.147-4.179l0,0
			c0-1.126-0.15-1.913-0.458-2.404c-0.303-0.484-0.848-0.947-1.667-1.415c-0.703-0.313-1.419-0.558-2.158-0.742l-3.707-0.443
			c-0.008-0.001-2.032-0.191-2.032-0.191l-2.331-0.353c-1.08-0.108-2.268-0.423-3.553-0.938c-1.195-0.479-1.777-1.628-1.777-3.511
			c0-1.077,0.245-1.867,0.728-2.35l1.457-1.24c0.363-0.264,1.243-0.713,2.6-1.32c0.106-0.048,0.177-0.15,0.182-0.267
			c0-0.004,0-0.01,0-0.014c0-0.111-0.059-0.213-0.156-0.268c0,0-1.718-0.971-1.736-0.981c-2.411-1.486-3.583-3.603-3.583-6.473
			c0-2.338,1.015-4.358,3.017-6.004c2.022-1.661,4.584-2.504,7.618-2.504c1.321,0,1.864,0.055,2.086,0.102l1.004,0.216l1.931,0.587
			C191.02,250.898,191.108,250.891,191.181,250.85z"/>
		<path fill="#253E79" d="M182.525,252.579c-0.802,1.386-1.209,3.364-1.209,5.879v0.382c0,4.943,1.494,7.449,4.44,7.449
			c3.092,0,4.66-2.58,4.66-7.667c0-5.451-1.458-8.214-4.333-8.214C184.557,250.409,183.36,251.139,182.525,252.579z M181.931,258.84
			v-0.382c0-2.405,0.379-4.279,1.127-5.571c0.726-1.254,1.716-1.863,3.025-1.863c2.466,0,3.716,2.556,3.716,7.598
			c0,4.745-1.322,7.052-4.043,7.052C183.182,265.674,181.931,263.438,181.931,258.84z"/>
		<path fill="#253E79" d="M216.679,241.216c-3.564,3.965-5.371,8.966-5.371,14.861c0,5.969,1.782,10.933,5.297,14.755
			c3.52,3.828,8.073,5.77,13.533,5.77c3.999,0,7.271-1.185,9.727-3.518c2.446-2.322,4.051-5.753,4.773-10.195
			c0.013-0.083-0.008-0.167-0.059-0.234c-0.05-0.067-0.125-0.11-0.208-0.121l-0.917-0.11c-0.161-0.019-0.31,0.09-0.339,0.25
			c-0.699,3.81-2.034,6.775-3.969,8.811c-1.915,2.018-4.316,3.039-7.134,3.039c-1.977,0-3.879-0.503-5.656-1.495
			c-1.7-1.056-3.274-2.871-4.667-5.386c-1.394-2.517-2.1-6.514-2.1-11.879c0-5.542,1.04-10.135,3.089-13.651
			c2.019-3.463,4.645-5.218,7.807-5.218c5.382,0,9.273,4.501,11.566,13.38c0.04,0.156,0.194,0.255,0.352,0.227l0.916-0.164
			c0.154-0.027,0.264-0.167,0.253-0.324l-0.917-14.009c-0.01-0.162-0.145-0.288-0.307-0.288h-0.662c-0.136,0-0.255,0.089-0.294,0.22
			c-0.302,1.007-0.839,1.477-1.689,1.477c-0.285-0.032-0.828-0.175-1.583-0.422c-0.007-0.003-1.822-0.653-1.822-0.653
			c-1.923-0.739-4.048-1.115-6.314-1.115C224.728,235.225,220.251,237.24,216.679,241.216z M217.058,270.416
			c-3.407-3.704-5.134-8.528-5.134-14.338c0-5.739,1.754-10.601,5.213-14.45c3.451-3.841,7.774-5.788,12.849-5.788
			c2.19,0,4.241,0.362,6.097,1.075c0.003,0.002,1.854,0.664,1.854,0.664c0.801,0.263,1.371,0.411,1.737,0.449
			c0.764,0.002,1.705-0.332,2.209-1.694c0.074,0,0.091,0,0.18,0c0.035,0.541,0.846,12.93,0.879,13.447
			c-0.156,0.028-0.219,0.039-0.375,0.067c-2.382-8.992-6.442-13.568-12.08-13.568c-3.396,0-6.202,1.859-8.339,5.523
			c-2.105,3.611-3.173,8.308-3.173,13.961c0,5.471,0.732,9.567,2.177,12.177c1.444,2.608,3.09,4.499,4.893,5.618
			c1.882,1.052,3.886,1.581,5.969,1.581c2.993,0,5.544-1.087,7.581-3.231c1.966-2.07,3.325-5.054,4.06-8.841
			c0.128,0.016,0.164,0.019,0.307,0.037c-0.724,4.146-2.233,7.362-4.519,9.533c-2.337,2.221-5.467,3.348-9.303,3.348
			C224.856,275.986,220.456,274.112,217.058,270.416z"/>
		<path fill="#253E79" d="M254.532,234.656l-9.42,1.263c-0.153,0.021-0.266,0.151-0.266,0.305v0.656c0,0.17,0.138,0.308,0.307,0.308
			c0.766,0,1.341,0.098,1.707,0.293c0.353,0.188,0.656,0.515,0.901,0.97c0.463,0.606,0.683,1.703,0.683,3.303l0.083,3.02v24.63
			c0,1.817-0.282,3.1-0.836,3.807c-0.527,0.78-1.484,1.27-2.856,1.473c-0.15,0.022-0.262,0.152-0.262,0.305v0.657
			c0,0.17,0.138,0.309,0.308,0.309h14.005c0.169,0,0.307-0.139,0.307-0.309v-0.657c0-0.153-0.112-0.283-0.263-0.305
			c-1.39-0.203-2.331-0.673-2.797-1.396c-0.484-0.747-0.729-2.054-0.729-3.884v-34.439c0-0.171-0.138-0.309-0.308-0.309H254.532z
			 M254.572,235.269c0,0,0.11,0,0.214,0.001c0,0.602,0,34.133,0,34.133c0,1.978,0.271,3.358,0.829,4.219
			c0.532,0.824,1.54,1.358,2.962,1.613c0,0.048,0,0.051,0,0.102c-0.576,0-12.814,0-13.39,0c0-0.052,0-0.055,0-0.104
			c1.404-0.255,2.423-0.806,3-1.661c0.638-0.813,0.955-2.183,0.955-4.169v-24.639c0,0-0.083-3.021-0.083-3.021
			c0-1.754-0.256-2.943-0.783-3.627c-0.277-0.521-0.665-0.932-1.127-1.179c-0.402-0.213-0.978-0.313-1.688-0.341
			c0-0.05,0-0.053,0-0.103C245.964,236.426,254.572,235.269,254.572,235.269z"/>
		<path fill="#253E79" d="M281.622,249.759l-9.396,0.821c-0.159,0.014-0.28,0.147-0.28,0.307v0.711c0,0.156,0.116,0.287,0.271,0.306
			c1.071,0.127,1.493,0.282,1.658,0.389c0.434,0.212,0.806,0.587,1.141,1.133c0.337,0.549,0.507,1.59,0.507,3.092v7.382
			l-0.203,3.975l-0.227,1.813l-0.27,1.566c-0.187,0.737-0.679,1.417-1.466,2.027c-0.786,0.609-1.627,0.919-2.501,0.919
			c-1.768,0-2.827-0.533-3.239-1.631c-0.441-1.178-0.665-2.991-0.665-5.389v-17.114c0-0.17-0.137-0.308-0.308-0.308h-0.354
			c-0.009,0-0.018,0-0.026,0.001l-9.4,0.803c-0.159,0.014-0.281,0.146-0.281,0.307v0.696c0,0.17,0.138,0.308,0.308,0.308
			c0.723,0,1.087,0.079,1.266,0.146c0.263,0.098,0.595,0.295,0.987,0.588c0.361,0.271,0.621,0.644,0.772,1.109
			c0.162,0.497,0.244,1.431,0.244,2.779v11.665c0,1.697,0.123,3.049,0.364,4.018c0.25,1.003,0.892,2.01,1.909,2.995
			c1.05,1.017,2.893,1.511,5.635,1.511c1.398,0,2.573-0.114,3.494-0.341c0.957-0.236,1.638-0.55,2.084-0.957l1.832-1.776
			c0,0,0.156-0.16,0.288-0.295c0,0.928,0,2.735,0,2.735c0,0.088,0.037,0.171,0.102,0.229c0.064,0.059,0.15,0.087,0.236,0.079
			l9.674-0.945c0.157-0.016,0.277-0.148,0.277-0.308v-0.597c0-0.153-0.114-0.283-0.266-0.305c-1.907-0.262-2.652-0.651-2.941-0.933
			c-0.279-0.271-0.612-0.972-0.612-2.771v-20.432c0-0.17-0.139-0.308-0.309-0.308H281.622z M266.336,250.375
			c0,0.594,0,16.806,0,16.806c0,2.472,0.237,4.356,0.704,5.604c0.505,1.349,1.789,2.031,3.815,2.031
			c1.013,0,1.981-0.353,2.879-1.048c0.897-0.696,1.464-1.488,1.684-2.356l0,0c0-0.003,0.285-1.65,0.285-1.65
			c0-0.002,0.229-1.828,0.229-1.828l0.205-4.017v-7.397c0-1.64-0.195-2.756-0.598-3.414c-0.396-0.648-0.855-1.101-1.364-1.347
			c-0.259-0.169-0.825-0.307-1.614-0.418c0-0.079,0-0.088,0-0.17c0.527-0.046,8.998-0.787,9.058-0.792c0,0.598,0,20.123,0,20.123
			c0,1.641,0.262,2.692,0.8,3.213c0.494,0.48,1.497,0.824,3.021,1.055c0,0.029,0,0.029,0,0.059c-0.505,0.05-8.447,0.826-9.058,0.886
			c0-0.553,0-3.152,0-3.152c0-0.125-0.075-0.238-0.191-0.284c-0.115-0.048-0.249-0.021-0.337,0.07l-0.81,0.829l-1.82,1.764
			c-0.356,0.325-0.968,0.599-1.81,0.808c-0.871,0.214-1.998,0.322-3.346,0.322c-2.539,0-4.291-0.449-5.207-1.337
			c-0.934-0.903-1.52-1.813-1.741-2.701c-0.229-0.921-0.345-2.222-0.345-3.869v-11.665c0-1.433-0.09-2.404-0.275-2.97
			c-0.191-0.587-0.524-1.062-0.989-1.411c-0.445-0.333-0.819-0.551-1.141-0.672c-0.273-0.102-0.678-0.15-1.172-0.168
			c0-0.06,0-0.063,0-0.122c0.529-0.045,9.081-0.776,9.106-0.778C266.305,250.375,266.329,250.375,266.336,250.375z"/>
		<path fill="#253E79" d="M293.197,234.656l-9.5,1.266c-0.154,0.021-0.267,0.151-0.267,0.306v0.659c0,0.17,0.138,0.308,0.308,0.308
			c0.66,0,1.207,0.117,1.622,0.347c0.408,0.226,0.694,0.522,0.874,0.905c0.271,0.438,0.446,0.894,0.542,1.386
			c0.098,0.512,0.147,1.186,0.147,2.001l0.168,3.039v31.421c0,0.17,0.137,0.309,0.307,0.309h0.783c0.128,0,0.241-0.078,0.287-0.198
			c0.577-1.495,1.348-2.223,2.353-2.233c0.098,0.024,1.091,0.275,1.091,0.275l1.667,0.737c2.179,0.941,4.143,1.419,5.84,1.419
			c3.92,0,7.144-1.355,9.584-4.025c2.434-2.665,3.667-6.143,3.667-10.339c0-3.796-1.144-6.953-3.399-9.38
			c-2.263-2.434-5.159-3.667-8.609-3.667c-1.392,0-2.635,0.219-3.693,0.649c-0.916,0.373-1.97,1.022-3.103,1.851
			c0-1.097,0-16.727,0-16.727c0-0.171-0.139-0.309-0.309-0.309H293.197z M293.238,235.269h0.011c0,0.589,0,17.009,0,17.009
			c0,0.118,0.067,0.225,0.172,0.277c0.105,0.051,0.23,0.039,0.323-0.033c1.293-0.994,2.455-1.705,3.455-2.111
			c0.985-0.401,2.15-0.604,3.462-0.604c3.272,0,6.018,1.168,8.159,3.471c2.146,2.311,3.235,5.326,3.235,8.961
			c0,4.037-1.181,7.376-3.508,9.923c-2.318,2.538-5.389,3.825-9.129,3.825c-1.612,0-3.495-0.46-5.594-1.367l-1.714-0.753
			l-1.192-0.307c-0.024-0.006-0.05-0.009-0.075-0.009c-1.229,0-2.181,0.835-2.852,2.436c-0.105,0-0.149,0-0.285,0
			c0-0.604,0-31.13,0-31.13s-0.167-3.046-0.167-3.05c0-0.833-0.055-1.542-0.159-2.09c-0.109-0.566-0.313-1.092-0.605-1.562
			c-0.217-0.466-0.599-0.864-1.116-1.15c-0.435-0.24-0.989-0.358-1.614-0.394c0-0.055,0-0.058,0-0.113
			C284.55,236.43,293.238,235.269,293.238,235.269z"/>
		<path fill="#253E79" d="M296.722,251.305c-0.88,0.542-1.585,1.382-2.094,2.496c-0.002,0.004-0.561,1.467-0.561,1.467l-0.5,2.169
			c-0.212,1.417-0.318,3.188-0.318,5.279v0.88c0,4.128,0.438,7.164,1.302,9.026c0.898,1.94,2.399,2.924,4.462,2.924
			c2.054,0,3.718-1.163,4.948-3.457c1.197-2.231,1.803-5.385,1.803-9.373c0-8.112-2.113-12.226-6.283-12.226
			C298.525,250.49,297.597,250.764,296.722,251.305z M294.656,255.445l0.532-1.392c0.457-0.998,1.082-1.748,1.855-2.225
			c0.777-0.479,1.597-0.723,2.437-0.723c3.762,0,5.668,3.907,5.668,11.61c0,3.885-0.582,6.941-1.73,9.083
			c-1.13,2.106-2.571,3.132-4.405,3.132c-1.827,0-3.104-0.84-3.903-2.567c-0.826-1.78-1.244-4.73-1.244-8.768v-0.88
			c0-2.061,0.104-3.802,0.308-5.173C294.174,257.543,294.656,255.445,294.656,255.445z"/>
		<path fill="#253E79" d="M352.379,234.656l-9.145,1.263c-0.152,0.021-0.266,0.151-0.266,0.305v0.659
			c0,0.17,0.138,0.308,0.308,0.308c1.114,0,1.862,0.301,2.225,0.894c0.403,0.662,0.661,1.223,0.768,1.665
			c0.108,0.452,0.163,1.128,0.163,2.008c0,0,0,8.556,0,9.516c-0.506-0.33-1.255-0.817-1.255-0.817
			c-0.505-0.282-0.981-0.5-1.419-0.649c-0.808-0.3-1.864-0.453-3.133-0.453c-3.471,0-6.356,1.333-8.577,3.965
			c-2.206,2.614-3.325,6.002-3.325,10.069c0,4.069,1.033,7.32,3.071,9.664c2.049,2.355,4.804,3.551,8.188,3.551
			c2.354,0,4.271-0.594,5.696-1.763c0,0,0.599-0.562,1.069-1.002c0,0.813,0,2.212,0,2.212c0,0.09,0.038,0.175,0.104,0.233
			c0.067,0.058,0.156,0.084,0.245,0.071l9.524-1.313c0.151-0.021,0.265-0.15,0.265-0.305v-0.602c0-0.143-0.099-0.268-0.237-0.299
			c-1.222-0.285-2.026-0.533-2.393-0.736c-0.405-0.334-0.73-0.787-0.925-1.313c-0.2-0.547-0.302-1.046-0.302-1.481v-35.341
			c0-0.171-0.139-0.309-0.308-0.309H352.379z M352.414,235.27c0,0.6,0,35.036,0,35.036c0,0.508,0.114,1.078,0.34,1.694
			c0.231,0.632,0.622,1.173,1.158,1.608c0.436,0.248,1.207,0.491,2.358,0.768c0,0.045,0,0.048,0,0.094
			c-0.483,0.066-8.277,1.141-8.908,1.228c0-0.546,0-2.57,0-2.57c0-0.123-0.073-0.233-0.186-0.282s-0.242-0.025-0.333,0.058
			l-1.571,1.475c-1.298,1.063-3.082,1.609-5.291,1.609c-3.197,0-5.797-1.123-7.724-3.339c-1.938-2.229-2.92-5.344-2.92-9.26
			c0-3.918,1.071-7.172,3.18-9.672c2.099-2.486,4.825-3.747,8.107-3.747c1.195,0,2.18,0.141,2.926,0.417
			c0.41,0.141,0.854,0.344,1.325,0.607l1.684,1.097c0.095,0.062,0.222,0.071,0.321,0.017c0.099-0.054,0.166-0.153,0.166-0.266
			v-10.083c0-0.928-0.06-1.652-0.179-2.152c-0.122-0.506-0.405-1.125-0.842-1.842c-0.441-0.724-1.273-1.104-2.441-1.165
			c0-0.053,0-0.056,0-0.107C344.085,236.422,352.4,235.272,352.414,235.27z"/>
		<path fill="#253E79" d="M335.098,262.321v0.657c0,4.047,0.541,7.143,1.606,9.202c1.1,2.125,2.745,3.203,4.889,3.203
			c2.501,0,4.038-0.985,4.569-2.929c0.494-1.813,0.794-3.272,0.894-4.34c0.1-1.06,0.149-2.595,0.149-4.561v-2.51
			c0-1.614-0.054-2.865-0.16-3.718c0.002-0.607-0.101-1.3-0.305-2.024c-0.201-0.707-0.486-1.496-0.852-2.345
			c-0.634-1.687-2.073-2.549-4.273-2.549C337.29,250.409,335.098,254.417,335.098,262.321z M337.251,271.897
			c-1.021-1.972-1.537-4.972-1.537-8.919v-0.657c0-7.496,1.985-11.297,5.901-11.297c1.944,0,3.155,0.707,3.702,2.163
			c0.359,0.838,0.638,1.602,0.83,2.284c0.188,0.668,0.284,1.306,0.284,1.894c0.105,0.866,0.157,2.092,0.157,3.68v2.51
			c0,1.947-0.049,3.462-0.146,4.504c-0.097,1.031-0.391,2.457-0.875,4.234c-0.454,1.665-1.755,2.476-3.976,2.476
			C339.671,274.769,338.251,273.829,337.251,271.897z"/>
		<path fill="#253E79" d="M359.455,253.175c-2.406,2.584-3.625,6.034-3.625,10.254c0,4.079,1.133,7.329,3.369,9.658
			c2.236,2.332,5.363,3.516,9.289,3.516c4.326,0,7.199-1.002,8.539-2.975c1.753-2.582,2.082-3.312,2.178-3.637
			c0.166-0.3,0.313-0.755,0.424-1.339l0.31-1.461c0.017-0.08,0.003-0.168-0.041-0.235c-0.046-0.069-0.114-0.121-0.195-0.138
			l-0.78-0.163c-0.162-0.035-0.322,0.067-0.361,0.228c-1.117,4.596-3.521,6.829-7.347,6.829c-2.521,0-4.464-0.977-5.942-2.984
			c-1.479-2.009-2.229-4.737-2.229-8.108c0,0,0.059-1.948,0.074-2.42c0.576,0,16.418,0,16.418,0c0.17,0,0.308-0.138,0.308-0.308
			c0-1.601-0.183-2.892-0.541-3.839c-0.356-0.936-1.185-2.298-2.463-4.049c-1.324-1.813-3.958-2.732-7.83-2.732
			C365.081,249.272,361.866,250.585,359.455,253.175z M359.643,272.661c-2.121-2.211-3.197-5.316-3.197-9.232
			c0-4.06,1.164-7.368,3.46-9.834c2.291-2.46,5.354-3.708,9.104-3.708c3.663,0,6.131,0.834,7.333,2.48
			c1.246,1.706,2.048,3.019,2.384,3.904c0.308,0.812,0.459,1.944,0.483,3.313c-0.629,0-16.391,0-16.391,0
			c-0.167,0-0.303,0.133-0.308,0.299c0,0-0.084,2.728-0.084,2.729c0,3.515,0.791,6.366,2.349,8.481
			c1.58,2.147,3.746,3.236,6.438,3.236c4.008,0,6.645-2.37,7.858-7.014c0.092,0.02,0.106,0.021,0.203,0.043
			c-0.084,0.388-0.251,1.179-0.251,1.179c-0.099,0.515-0.229,0.926-0.386,1.224c-0.112,0.36-0.55,1.206-2.12,3.521
			c-1.219,1.794-3.921,2.704-8.03,2.704C364.736,275.986,361.76,274.868,359.643,272.661z"/>
		<path fill="#253E79" d="M362.679,258.807c-0.009,0.086,0.021,0.172,0.079,0.236c0.059,0.064,0.141,0.101,0.227,0.101h9.396
			c0.616,0,1.351-0.347,1.351-2.003c0-2.024-0.448-3.675-1.337-4.908c-0.91-1.264-2.126-1.905-3.615-1.905
			C365.269,250.328,363.217,253.18,362.679,258.807z M368.779,250.943c1.298,0,2.317,0.54,3.117,1.65
			c0.81,1.126,1.221,2.657,1.221,4.548c0,1.388-0.535,1.388-0.736,1.388c0,0-8.399,0-9.044,0
			C363.891,253.438,365.667,250.943,368.779,250.943z"/>
		<path fill="#253E79" d="M391.24,235.874c-0.172,0-0.31,0.138-0.31,0.308v0.875c0,0.152,0.111,0.281,0.261,0.304
			c2.011,0.314,3.344,0.968,3.962,1.942c0.738,1.049,1.108,2.942,1.108,5.636v22.003c0,1.464-0.1,2.687-0.296,3.632
			c-0.19,0.917-0.442,1.584-0.747,1.983c-0.718,0.779-1.348,1.287-1.854,1.487c-0.527,0.209-1.321,0.367-2.356,0.472
			c-0.156,0.017-0.277,0.149-0.277,0.308v0.82c0,0.17,0.138,0.309,0.309,0.309h18.113c0.17,0,0.308-0.139,0.308-0.309v-0.82
			c0-0.153-0.112-0.282-0.263-0.305c-2.134-0.315-3.583-0.999-4.312-2.036c-0.74-1.055-1.116-2.92-1.116-5.545c0,0,0-9.408,0-9.986
			c0.553,0,5.521,0,5.521,0c1.26,0,2.255-0.036,3.044-0.111c0.791-0.073,1.502-0.186,2.112-0.336
			c1.264-0.337,2.514-0.952,3.719-1.827c1.215-0.884,2.202-2.091,2.935-3.588c0.731-1.497,1.104-3.107,1.104-4.786
			c0-1.72-0.442-3.399-1.314-4.989c-0.874-1.594-2.218-2.914-3.993-3.922c-1.774-1.007-4.617-1.518-8.453-1.518H391.24z
			 M408.443,236.489c3.727,0,6.469,0.484,8.149,1.438c1.675,0.952,2.938,2.191,3.757,3.683c0.822,1.498,1.238,3.078,1.238,4.693
			c0,1.585-0.35,3.104-1.041,4.516c-0.688,1.406-1.61,2.537-2.742,3.361c-1.145,0.831-2.326,1.413-3.511,1.729
			c-0.575,0.141-1.255,0.249-2.018,0.319c-0.759,0.072-1.763,0.108-2.985,0.108h-5.829c-0.169,0-0.307,0.138-0.307,0.308v10.294
			c0,2.793,0.4,4.723,1.227,5.898c0.794,1.132,2.307,1.876,4.463,2.236c0,0.111,0,0.14,0,0.264c-0.585,0-16.913,0-17.498,0
			c0-0.116,0-0.139,0-0.248c0.945-0.109,1.718-0.264,2.243-0.471c0.604-0.239,1.29-0.783,2.101-1.665
			c0.384-0.501,0.665-1.231,0.878-2.253c0.204-0.988,0.309-2.252,0.309-3.758v-22.003c0-2.863-0.396-4.818-1.212-5.978
			c-0.679-1.07-2.079-1.789-4.118-2.151c0-0.129,0-0.174,0-0.321C392.142,236.489,408.443,236.489,408.443,236.489z"/>
		<path fill="#253E79" d="M403.462,237.173c-0.169,0-0.307,0.138-0.307,0.308v18.026c0,0.17,0.138,0.308,0.307,0.308h2.687
			c2.728,0,4.896-0.841,6.441-2.5c1.541-1.654,2.32-4.022,2.32-7.038c0-2.793-0.694-5.029-2.063-6.644
			c-1.382-1.632-3.486-2.458-6.252-2.458H403.462z M406.596,237.789c2.576,0,4.522,0.754,5.781,2.241
			c1.273,1.502,1.918,3.603,1.918,6.247c0,2.855-0.726,5.082-2.156,6.619c-1.424,1.529-3.439,2.305-5.99,2.305c0,0-1.896,0-2.379,0
			c0-0.584,0-16.827,0-17.411C404.271,237.789,406.596,237.789,406.596,237.789z"/>
		<path fill="#253E79" d="M427.97,249.821c-1.348,0.257-2.473,0.594-3.347,1.003c-1.921,1.044-2.887,2.437-2.887,4.147
			c0,0.956,0.273,1.701,0.813,2.213c0.532,0.508,1.242,0.764,2.107,0.764c1.906,0,3.043-1,3.378-2.971l0.206-1.364
			c0,0,0.209-0.657,0.231-0.729c0.042-0.064,0.746-1.161,0.746-1.161c0.354-0.398,1.069-0.619,2.099-0.619
			c1.198,0,2.003,0.331,2.46,1.013c0.475,0.711,0.716,1.942,0.716,3.657c0,2.43-0.18,3.323-0.331,3.646
			c-0.176,0.233-0.567,0.514-1.132,0.782l-3.761,1.3c-2.038,0.627-3.367,1.099-4.055,1.437c-0.684,0.337-1.279,0.698-1.769,1.072
			l-1.287,1.044c-0.027,0.022-0.05,0.048-0.068,0.079l-0.974,1.586c-0.443,0.901-0.66,1.96-0.66,3.169
			c0,2.129,0.694,3.8,2.062,4.968c1.354,1.156,3.204,1.743,5.495,1.743c2.467,0,4.458-0.677,5.915-2.011
			c0.006-0.005,0.011-0.011,0.017-0.017c0,0,0.479-0.513,0.79-0.846c0.383,0.723,0.709,1.264,0.959,1.537
			c0.466,0.391,1.021,0.691,1.726,0.952c0.695,0.255,1.545,0.384,2.527,0.384c2.623,0,4.548-1.077,5.722-3.2
			c0.064-0.116,0.047-0.259-0.042-0.356l-0.411-0.45c-0.061-0.066-0.146-0.104-0.236-0.101c-0.09,0.002-0.173,0.044-0.23,0.113
			c-0.492,0.605-0.878,1.004-1.146,1.185c-0.238,0.162-0.554,0.244-0.935,0.244c-1.033,0-1.251-0.399-1.325-0.7
			c-0.151-0.603-0.243-1.175-0.275-1.701l-0.051-1.738v-13.071c0-2.683-0.683-4.609-2.029-5.728
			c-1.329-1.104-3.537-1.664-6.563-1.664C430.813,249.435,429.314,249.564,427.97,249.821z M422.973,256.738
			c-0.417-0.397-0.621-0.975-0.621-1.767c0-1.489,0.834-2.666,2.55-3.598c0.81-0.378,1.888-0.7,3.184-0.947
			c1.308-0.25,2.768-0.376,4.34-0.376c2.877,0,4.953,0.512,6.169,1.522c1.199,0.996,1.808,2.764,1.808,5.254v13.071l0.052,1.776
			c0.034,0.563,0.133,1.173,0.292,1.813c0.132,0.532,0.571,1.167,1.923,1.167c0.507,0,0.938-0.118,1.28-0.35
			c0.27-0.183,0.625-0.55,1.044-1.04c0.005,0.007,0.006,0.007,0.012,0.014c-1.077,1.808-2.724,2.709-5.058,2.709
			c-0.91,0-1.688-0.116-2.315-0.346c-0.629-0.232-1.139-0.508-1.514-0.819c-0.145-0.161-0.473-0.627-1.043-1.752
			c-0.045-0.09-0.133-0.151-0.231-0.165c-0.1-0.015-0.2,0.021-0.268,0.095c0,0-1.041,1.115-1.067,1.143
			c-1.34,1.224-3.188,1.845-5.495,1.845l0,0c-2.141,0-3.854-0.537-5.096-1.595c-1.224-1.045-1.845-2.559-1.845-4.5
			c0-1.115,0.195-2.082,0.583-2.873c0,0,0.879-1.432,0.931-1.516c0.078-0.062,1.241-1.006,1.241-1.006
			c0.45-0.344,1.011-0.684,1.658-1.003c0.649-0.32,1.986-0.792,3.975-1.404l3.801-1.316c0.7-0.331,1.158-0.667,1.429-1.041
			c0.291-0.609,0.418-1.887,0.418-3.957c0-1.865-0.269-3.173-0.82-4c-0.571-0.854-1.57-1.287-2.971-1.287
			c-1.215,0-2.086,0.292-2.589,0.865l-0.796,1.231c-0.015,0.023-0.026,0.049-0.034,0.075l-0.255,0.815l-0.216,1.404
			c-0.28,1.649-1.188,2.454-2.771,2.454C423.944,257.333,423.394,257.139,422.973,256.738z"/>
		<path fill="#253E79" d="M434.677,260.543l-1.925,0.882l-1.28,0.734c-0.671,0.354-1.351,0.829-1.987,1.39
			c-1.85,1.544-2.79,3.815-2.79,6.742c0,1.346,0.361,2.471,1.076,3.342c0.729,0.892,1.668,1.345,2.794,1.345
			c1.71,0,2.864-0.661,3.433-1.964c0.531-1.223,0.842-2.15,0.952-2.839c0.105-0.676,0.158-1.686,0.158-3.002v-6.348
			c0-0.105-0.051-0.204-0.139-0.26S434.772,260.499,434.677,260.543z M428.247,273.244c-0.621-0.76-0.938-1.753-0.938-2.952
			c0-2.736,0.867-4.848,2.575-6.275c0.607-0.535,1.247-0.981,1.909-1.333c0.033-0.021,1.231-0.707,1.231-0.707
			s0.907-0.415,1.467-0.672c0,0.82,0,5.869,0,5.869c0,1.285-0.051,2.263-0.152,2.908c-0.099,0.626-0.404,1.53-0.907,2.688
			c-0.468,1.071-1.406,1.593-2.868,1.593C429.62,274.362,428.862,273.996,428.247,273.244z"/>
		<path fill="#253E79" d="M458.597,250.679c-0.712,0.62-1.419,1.513-2.108,2.65c0.021-1.29,0.056-3.292,0.056-3.294
			c0-0.08-0.031-0.158-0.088-0.216c-0.058-0.059-0.138-0.092-0.22-0.092h-0.337l-8.925,0.822c-0.158,0.015-0.28,0.147-0.28,0.307
			v0.71c0,0.17,0.139,0.308,0.308,0.308c0.763,0,1.003,0.075,1.07,0.107c0.002,0.001,0.602,0.257,0.602,0.257
			c0.153,0.059,0.313,0.166,0.474,0.318c0.376,0.331,0.636,0.776,0.779,1.332c0.153,0.594,0.231,1.47,0.231,2.604v12.918
			c0,1.9-0.256,3.242-0.76,3.988c-0.288,0.429-0.649,0.753-1.075,0.965c-0.432,0.215-0.979,0.323-1.629,0.323
			c-0.169,0-0.308,0.138-0.308,0.308v0.649c0,0.17,0.139,0.309,0.308,0.309h13.313c0.17,0,0.308-0.139,0.308-0.309v-0.649
			c0-0.149-0.106-0.278-0.254-0.304c-0.793-0.139-1.367-0.304-1.705-0.487c-0.332-0.181-0.664-0.477-0.986-0.88
			c-0.318-0.396-0.524-0.82-0.609-1.262c-0.092-0.467-0.139-1.358-0.139-2.651v-8.319c0-2.543,0.291-4.606,0.867-6.132
			c0.539-1.429,1.225-2.154,2.038-2.154c0.103,0.025,0.444,0.209,0.927,1.096c0.439,0.811,0.866,1.37,1.305,1.709
			c0.452,0.352,1.008,0.529,1.651,0.529c0.794,0,1.454-0.301,1.96-0.896c0.494-0.58,0.745-1.315,0.745-2.186
			c0-1.062-0.373-1.942-1.107-2.617c-0.728-0.668-1.687-1.006-2.849-1.006C460.745,249.435,459.547,249.854,458.597,250.679z
			 M456.432,254.67c0.841-1.589,1.705-2.776,2.569-3.526c0.835-0.726,1.896-1.094,3.157-1.094c1.004,0,1.822,0.284,2.433,0.845
			s0.907,1.269,0.907,2.164c0,0.73-0.195,1.314-0.598,1.786c-0.389,0.458-0.877,0.68-1.491,0.68c-0.511,0-0.927-0.131-1.274-0.399
			c-0.363-0.283-0.748-0.793-1.141-1.517c-0.467-0.858-0.928-1.32-1.409-1.414c-1.154-0.005-2.034,0.854-2.673,2.548
			c-0.602,1.595-0.906,3.731-0.906,6.349v8.319c0,1.351,0.049,2.256,0.148,2.77c0.105,0.541,0.354,1.055,0.734,1.528
			c0.373,0.467,0.768,0.815,1.173,1.036c0.356,0.193,0.916,0.354,1.639,0.496c0,0.045,0,0.048,0,0.096c-0.574,0-12.124,0-12.698,0
			c0-0.031,0-0.032,0-0.063c0.608-0.033,1.154-0.141,1.595-0.359c0.522-0.26,0.965-0.653,1.313-1.172
			c0.582-0.861,0.863-2.278,0.863-4.332v-12.918c0-1.187-0.083-2.115-0.249-2.759c-0.177-0.678-0.5-1.227-0.961-1.632
			c-0.21-0.2-0.438-0.35-0.67-0.439c-0.003-0.001-0.557-0.236-0.557-0.236c-0.129-0.062-0.396-0.138-1.025-0.159
			c0-0.063,0-0.067,0-0.13c0.524-0.049,8.604-0.794,8.613-0.794c-0.01,0.541-0.072,4.182-0.072,4.184
			c0,0.14,0.096,0.263,0.231,0.298C456.221,254.86,456.365,254.796,456.432,254.67z"/>
		<path fill="#253E79" d="M476.214,249.112l-8.993,0.822c-0.158,0.015-0.279,0.147-0.279,0.307v0.711
			c0,0.163,0.145,0.299,0.307,0.308l0.926,0.05c-0.001,0,0.64,0.18,0.64,0.18c0.212,0.074,0.46,0.259,0.735,0.549
			c0.277,0.294,0.511,0.724,0.691,1.279c0.185,0.57,0.278,1.431,0.278,2.56v12.915c0,1.856-0.251,3.127-0.749,3.78
			c-0.667,0.878-0.977,1.107-1.104,1.166c-0.164,0.078-0.582,0.198-1.647,0.329c-0.154,0.019-0.271,0.15-0.271,0.305v0.658
			c0,0.17,0.138,0.308,0.309,0.308h13.004c0.17,0,0.308-0.138,0.308-0.308v-0.658c0-0.144-0.101-0.271-0.242-0.301
			c-1.259-0.272-2.117-0.743-2.55-1.399c-0.441-0.771-0.671-2.083-0.671-3.88V249.42c0-0.17-0.138-0.308-0.308-0.308H476.214z
			 M476.243,249.727c0,0,0.037,0,0.047,0c0,0.594,0,19.064,0,19.064c0,1.934,0.249,3.309,0.763,4.202
			c0.501,0.762,1.416,1.293,2.7,1.611c0,0.053,0,0.059,0,0.116c-0.572,0-11.816,0-12.389,0c0-0.042,0-0.044,0-0.086
			c0.762-0.104,1.295-0.212,1.565-0.34c0.201-0.095,0.562-0.339,1.33-1.351c0.59-0.773,0.875-2.132,0.875-4.153
			c0,0,0-12.915,0-12.915c0-1.209-0.102-2.108-0.31-2.75c-0.209-0.642-0.488-1.151-0.828-1.512c-0.35-0.368-0.671-0.599-0.98-0.708
			l-0.731-0.203c-0.001,0-0.423-0.025-0.729-0.042c0-0.068,0-0.074,0-0.14C468.081,250.474,476.243,249.727,476.243,249.727z"/>
		<path fill="#253E79" d="M470.519,236.738c-0.714,0.905-1.076,1.931-1.076,3.05c0,0.62,0.104,1.19,0.312,1.697
			c0.204,0.502,0.481,0.954,0.824,1.341c0.803,0.832,1.72,1.249,2.735,1.249c1.085,0,2.007-0.44,2.739-1.308
			c0.72-0.854,1.084-1.855,1.084-2.979c0-1.196-0.381-2.244-1.135-3.115c-0.765-0.885-1.686-1.333-2.737-1.333
			C472.175,235.34,471.251,235.811,470.519,236.738z M471.03,242.408c-0.287-0.325-0.529-0.716-0.707-1.155
			c-0.176-0.433-0.267-0.925-0.267-1.465c0-0.977,0.319-1.875,0.945-2.669c0.619-0.784,1.358-1.165,2.263-1.165
			c0.878,0,1.62,0.366,2.272,1.121c0.652,0.756,0.984,1.668,0.984,2.713c0,0.987-0.308,1.832-0.939,2.581
			c-0.618,0.733-1.36,1.09-2.269,1.09C472.46,243.459,471.714,243.116,471.03,242.408z"/>
		<path fill="#253E79" d="M498.472,249.456c-0.29,0.663-0.499,0.865-0.599,0.926c-0.18,0.111-0.398,0.166-0.662,0.166l-1.268-0.271
			c-1.332-0.515-2.193-0.81-2.584-0.888c-0.401-0.08-1.127-0.117-2.217-0.117c-2.76,0-5.067,0.794-6.856,2.361
			c-1.8,1.577-2.712,3.572-2.712,5.931c0,1.984,0.514,3.52,1.525,4.563c1.156,1.084,2.097,1.848,2.806,2.279
			c0.711,0.433,1.817,0.898,3.288,1.379c1.434,0.47,2.507,0.873,3.189,1.197c0.664,0.316,1.305,0.737,1.906,1.25
			c0.546,0.469,0.824,1.289,0.824,2.436c0,1.28-0.421,2.286-1.287,3.077c-0.874,0.798-1.939,1.186-3.26,1.186
			c-1.891,0-3.375-0.602-4.41-1.787c-1.076-1.339-1.828-2.415-2.225-3.191c-0.397-0.771-0.847-2.053-1.338-3.81
			c-0.037-0.133-0.158-0.226-0.296-0.226h-0.587c-0.171,0-0.309,0.138-0.309,0.309v9.662c0,0.17,0.138,0.308,0.309,0.308h0.742
			c0.124,0,0.236-0.074,0.283-0.188c0.271-0.647,0.688-0.949,1.31-0.949l1.016,0.168l2.243,0.732
			c0.639,0.267,1.246,0.446,1.78,0.524c0.526,0.079,1.177,0.119,1.937,0.119c2.938,0,5.389-0.85,7.284-2.523
			c1.907-1.682,2.874-3.821,2.874-6.356c0-2.541-0.902-4.527-2.681-5.902c-0.718-0.629-1.587-1.182-2.568-1.63l-3.077-0.948
			c-1.973-0.643-3.391-1.342-4.207-2.077c-0.793-0.713-1.178-1.556-1.178-2.574c0-1.091,0.366-1.951,1.122-2.629
			c0.753-0.676,1.741-1.02,2.936-1.02c2.345,0,4.119,1.216,5.424,3.718l0.521,1.269c0.289,0.485,0.583,1.258,0.894,2.341
			c0.037,0.132,0.158,0.223,0.295,0.223h0.692c0.171,0,0.308-0.138,0.308-0.308v-8.497c0-0.149-0.105-0.276-0.251-0.303
			l-0.599-0.109C498.67,249.251,498.529,249.325,498.472,249.456z M494.24,274.2c0.988-0.901,1.488-2.089,1.488-3.532
			c0-1.335-0.35-2.312-1.04-2.903c-0.642-0.549-1.329-0.999-2.041-1.338c-0.706-0.335-1.804-0.748-3.262-1.226
			c-1.426-0.467-2.489-0.911-3.159-1.32c-0.674-0.409-1.58-1.146-2.695-2.192c-0.888-0.915-1.342-2.305-1.342-4.125
			c0-2.173,0.842-4.013,2.503-5.468c1.673-1.466,3.843-2.209,6.45-2.209c1.29,0,1.852,0.058,2.097,0.106
			c0.353,0.069,1.203,0.363,2.53,0.872l1.378,0.292c0.439,0.006,0.771-0.08,1.049-0.251c0.252-0.155,0.484-0.496,0.722-0.984
			c0.059,0.011,0.064,0.012,0.126,0.023c0,0.465,0,7.379,0,7.933c-0.08,0-0.091,0-0.161,0c-0.302-1.015-0.587-1.767-0.864-2.225
			l-0.511-1.251c-1.412-2.713-3.422-4.074-5.981-4.074c-1.351,0-2.477,0.396-3.347,1.177c-0.881,0.79-1.326,1.829-1.326,3.086
			c0,1.186,0.465,2.206,1.382,3.031c0.88,0.794,2.372,1.536,4.432,2.207l3.046,0.936c0.89,0.409,1.709,0.929,2.396,1.53
			c1.655,1.282,2.454,3.054,2.454,5.427c0,2.352-0.896,4.335-2.665,5.896c-1.779,1.571-4.094,2.368-6.877,2.368
			c-0.729,0-1.35-0.037-1.846-0.111c-0.485-0.071-1.043-0.237-1.657-0.493l-2.313-0.752l-1.11-0.183
			c-0.838-0.004-1.441,0.399-1.818,1.134c-0.093,0-0.133,0-0.258,0c0-0.559,0-8.49,0-9.048c0.024,0,0.025,0,0.049,0
			c0.481,1.695,0.913,2.917,1.317,3.7c0.415,0.813,1.189,1.925,2.3,3.307c1.166,1.335,2.806,2.006,4.882,2.006
			C492.026,275.546,493.264,275.093,494.24,274.2z"/>
	</g>
</g>
<g>
	<path fill="#253E79" d="M237.389,101.704c11.815-9.493,24.886-12.05,41.508-11.945h27.126l24.38,37.879
		c0,0-30.967-0.02-39.348-0.02c-8.261,0-14.313-0.031-20.008,6.157c-3.96,4.304-9.08,12.269-9.08,22.623
		c0,10.897,3.896,18.802,7.695,23.393c6.019,7.274,13.698,7.506,20.819,7.609l36.432-0.036v43.367h-56.741
		c-11.825-0.145-27.766-5.71-41.427-21.363c-12.574-14.407-16.86-34.703-16.949-53.278
		C211.7,136.197,221.409,114.016,237.389,101.704z"/>
	<path fill="#253E79" d="M389.396,155.013v75.718h-48.018V89.759h72.447c17.123,0,30.871,7.5,41.951,19.905
		c13.749,15.391,14.365,40.424-2.872,59.508c-17.228,19.074-40.63,17.237-40.63,17.237L389.396,155.013z M415.725,138.378
		c0-8.645-8.645-12.05-13.099-12.05c-4.453,0-13.368,0.059-13.368,0.059v22.777c0,0,9.177-0.046,14.94-0.046
		C409.961,149.119,415.725,145.975,415.725,138.378z"/>
	<path fill="#253E79" d="M127.097,172.558v58.174H79.08V89.759h48.017c37.297,0,51.352-2.2,67.154,16.006
		c10.776,12.417,13.013,36.543,4.309,48.94c-6.16,8.774-18.16,14.774-18.16,14.774l43.783,61.252h-56.044L127.097,172.558z
		 M153.563,138.378c0-8.645-8.645-12.05-13.098-12.05c-4.454,0-13.368,0.059-13.368,0.059v22.777c0,0,9.176-0.046,14.939-0.046
		C147.799,149.119,153.563,145.975,153.563,138.378z"/>
</g>
</svg>
