<?xml version="1.0" encoding="utf-8"?>
<!-- Generator: Adobe Illustrator 13.0.2, SVG Export Plug-In . SVG Version: 6.00 Build 14948)  -->
<!DOCTYPE svg PUBLIC "-//W3C//DTD SVG 1.0//EN" "http://www.w3.org/TR/2001/REC-SVG-20010904/DTD/svg10.dtd">
<svg version="1.0" id="Ebene_1" xmlns="http://www.w3.org/2000/svg" xmlns:xlink="http://www.w3.org/1999/xlink" x="0px" y="0px"
	 width="391.51px" height="566.929px" viewBox="0 0 391.51 566.929" enable-background="new 0 0 391.51 566.929"
	 xml:space="preserve">
<path fill-rule="evenodd" clip-rule="evenodd" fill="#8DAABB" d="M0,0h391.51l-0.019,372.234
	c-0.573,107.605-87.999,194.695-195.74,194.695S0.582,479.839,0.009,372.234L0,0L0,0z M40.949,142.071v17.644
	c0,1.134,0.528,1.977,1.583,2.544c0.727,0.367,1.082,0.799,1.082,1.299v1.469c0,0.498-0.355,0.743-1.082,0.743H29.5
	c-0.613,0-0.912-0.232-0.912-0.689v-1.522c0-0.477,0.357-0.909,1.084-1.299c1.055-0.588,1.58-1.433,1.58-2.544v-38.542
	c0-1.101-0.525-1.934-1.58-2.5c-0.727-0.365-1.084-0.822-1.084-1.333v-1.433c0-0.5,0.357-0.756,1.084-0.756h10.95
	c6.173,0,10.876,1.088,14.114,3.256c3.221,2.178,4.846,5.31,4.846,9.411c0,6.533-3.894,10.754-11.664,12.665
	c2.282,0.868,4.022,1.844,5.204,2.944c1.184,1.088,2.097,2.7,2.737,4.834l3.053,10.32c0.386,1.323,0.768,2.211,1.142,2.679
	c0.384,0.465,0.997,0.91,1.865,1.321c0.243,0.135,0.374,0.334,0.374,0.623v1.856c0,0.478-0.301,0.71-0.914,0.71h-8.354
	c-0.812,0-1.327-0.345-1.555-1.044l-5.673-17.9c-0.612-1.977-1.297-3.254-2.026-3.844C43.03,142.395,42.089,142.093,40.949,142.071
	L40.949,142.071z M40.949,119.096v19.108c3.007,0,5.216-0.744,6.643-2.222c1.412-1.466,2.122-4.099,2.122-7.876
	c0-3.689-0.71-6.111-2.153-7.266C46.137,119.673,43.927,119.096,40.949,119.096L40.949,119.096z M76.645,146.205v-4.556
	c0-2.689-1.339-4.033-4.02-4.033c-0.94,0-1.41,0.222-1.41,0.677c0,0.179,0.085,0.434,0.243,0.79c0.34,0.623,0.498,1.167,0.498,1.622
	c0,0.822-0.34,1.522-1.042,2.102c-0.698,0.577-1.651,0.866-2.878,0.866c-1.339,0-2.411-0.322-3.223-0.967
	c-0.797-0.633-1.196-1.477-1.196-2.521c0-1.711,0.97-3.111,2.937-4.178c1.966-1.078,4.234-1.611,6.828-1.611
	c3.65,0,6.487,0.766,8.499,2.289c2.025,1.534,3.036,3.7,3.036,6.5v16.211c0,0.889,0.112,1.566,0.355,2.033
	c0.229,0.467,0.756,0.766,1.556,0.889c0.668,0.11,1.011,0.401,1.011,0.856v1.399c0,1.144-1.14,1.721-3.434,1.721
	c-3.053,0-5.175-1.154-6.346-3.455c-2.666,2.413-5.245,3.624-7.727,3.624c-2.365,0-4.319-0.766-5.846-2.301
	c-1.524-1.532-2.294-3.488-2.294-5.876C62.19,152.16,67.008,148.138,76.645,146.205L76.645,146.205z M76.645,149.527
	c-3.933,1.132-5.901,3.609-5.901,7.455c0,3.011,1.026,4.521,3.05,4.521c0.899,0,1.597-0.343,2.097-1.022
	c0.499-0.689,0.754-1.433,0.754-2.265V149.527L76.645,149.527z M110.534,156.203c-0.499,6.834-3.947,10.256-10.323,10.256
	c-3.763,0-6.842-1.3-9.263-3.879c-2.425-2.588-3.638-6.533-3.638-11.855c0-5.565,1.283-9.687,3.864-12.343
	c2.564-2.666,5.816-3.989,9.71-3.989c2.649,0,4.859,0.61,6.657,1.833c1.796,1.233,2.695,2.755,2.695,4.577
	c0,1.146-0.414,2.068-1.256,2.745c-0.827,0.689-1.867,1.034-3.123,1.034c-1.111,0-2.025-0.291-2.737-0.845
	c-0.712-0.567-1.067-1.267-1.067-2.089c0-0.733,0.34-1.512,1.038-2.311c0.315-0.345,0.457-0.611,0.457-0.777
	c0-0.723-0.725-1.078-2.209-1.078c-3.191,0-4.805,2.511-4.805,7.521v7.521c0,6.333,1.682,9.5,5.061,9.5
	c2.552,0,4.037-2.056,4.421-6.188L110.534,156.203L110.534,156.203z M117.991,114.951c6.481,0,6.558,10.688,0.116,10.688
	C111.718,125.639,111.685,114.951,117.991,114.951L117.991,114.951z M122.325,135.072v25.521c0,1.132,0.6,1.934,1.798,2.411
	c0.498,0.21,0.754,0.534,0.754,0.945v1.198c0,0.411-0.297,0.623-0.912,0.623H112.43c-0.613,0-0.91-0.212-0.91-0.623v-1.198
	c0-0.434,0.255-0.746,0.783-0.945c1.169-0.457,1.753-1.256,1.753-2.411v-20.144c0-1.177-0.6-2-1.796-2.477
	c-0.499-0.212-0.739-0.501-0.739-0.846v-1.21c0-0.389,0.297-0.588,0.91-0.611L122.325,135.072L122.325,135.072z M128.075,160.693
	v-20.244c0-1.2-0.6-2.022-1.796-2.477c-0.498-0.2-0.741-0.478-0.741-0.846v-1.21c0-0.389,0.299-0.588,0.912-0.611l9.893-0.233v2.677
	c2.369-1.977,4.963-2.967,7.771-2.967c2.097,0,3.723,0.633,4.905,1.89c1.184,1.256,1.784,2.901,1.784,4.911v19.499
	c0,0.677,0.37,1.366,1.127,2.089c0.353,0.345,0.54,0.577,0.54,0.71v1.368c0,0.343-0.2,0.521-0.629,0.521h-10.191
	c-0.472,0-0.698-0.179-0.698-0.521v-1.69c0-0.176,0.141-0.344,0.455-0.521c0.756-0.457,1.127-1,1.127-1.634v-19.82
	c0-1.578-0.727-2.378-2.167-2.378c-1.398,0-2.737,0.656-4.022,1.957v19.92c0,0.746,0.328,1.379,0.97,1.923
	c0.301,0.256,0.457,0.444,0.457,0.554v1.791c0,0.276-0.198,0.421-0.583,0.421h-10.366c-0.442,0-0.668-0.166-0.668-0.488v-1.724
	c0-0.155,0.185-0.344,0.554-0.554C127.618,162.438,128.075,161.671,128.075,160.693L128.075,160.693z M172.683,135.693
	c1.923-1.522,3.65-2.278,5.191-2.278c0.965,0,1.821,0.222,2.535,0.667c0.727,0.444,1.084,1.024,1.084,1.745
	c0,1.279-0.812,1.922-2.452,1.922c-0.542,0-1.125-0.146-1.796-0.434c-0.527-0.21-0.912-0.322-1.127-0.322
	c-0.457,0-0.899,0.099-1.337,0.301c2.051,2.232,3.094,4.689,3.094,7.388c0,3.376-0.957,6.065-2.855,8.065c-1.881,2-4.533,3-7.924,3
	c-0.897,0-1.996-0.089-3.31-0.268l-2.122,4.134h3.833c9.552,0,14.331,2.577,14.331,7.721c0,2.645-1.271,4.722-3.821,6.233
	c-2.552,1.5-5.875,2.255-9.995,2.255c-3.293,0-5.873-0.444-7.758-1.333c-1.881-0.889-2.822-2.089-2.822-3.611
	c0-0.866,0.372-1.589,1.099-2.166c0.712-0.577,1.667-0.866,2.838-0.866c1.082,0,1.996,0.255,2.737,0.754
	c0.727,0.5,1.097,1.123,1.097,1.889c0,0.455-0.187,0.979-0.583,1.556c1.341,0.5,2.725,0.756,4.132,0.756
	c1.813,0,3.366-0.368,4.664-1.111c1.298-0.733,1.938-1.645,1.938-2.733c0-2.344-3.308-3.511-9.937-3.511
	c-1.341,0-2.951,0.033-4.847,0.089c-0.97,0.043-1.698,0.066-2.166,0.066c-0.899,0-1.342-0.202-1.342-0.613
	c0-0.309,0.214-0.876,0.627-1.731l4.633-9.01c-3.124-2.112-4.676-5.146-4.676-9.112c0-3.11,0.914-5.677,2.737-7.7
	c1.825-2.033,4.62-3.044,8.368-3.044C168.989,134.394,170.959,134.828,172.683,135.693L172.683,135.693z M166.708,152.848
	c1.169,0,1.983-0.511,2.425-1.532c0.455-1.022,0.669-2.978,0.669-5.889c0-3.323-0.214-5.511-0.669-6.556
	c-0.442-1.055-1.2-1.576-2.255-1.576c-1.396,0-2.266,0.777-2.635,2.332c-0.357,1.568-0.544,3.922-0.544,7.066
	c0,2.211,0.23,3.8,0.673,4.735C164.827,152.37,165.598,152.848,166.708,152.848L166.708,152.848z M205.507,136.35v-15.821
	c0-1.2-0.586-2.022-1.757-2.477c-0.527-0.202-0.796-0.478-0.796-0.845v-1.21c0-0.391,0.326-0.578,0.97-0.578l9.852-0.268v45.642
	c0,0.978,0.341,1.678,1.038,2.112c0.345,0.222,0.5,0.577,0.5,1.078v1.4c0,0.388-0.24,0.587-0.743,0.587h-9.063v-3.098
	c-2.256,2.209-4.579,3.32-6.974,3.32c-6.044,0-9.068-4.688-9.068-14.064c0-11.821,3.266-17.733,9.807-17.733
	C201.2,134.394,203.28,135.039,205.507,136.35L205.507,136.35z M205.507,139.572c-1.17-0.702-2.227-1.044-3.182-1.044
	c-1.84,0-2.951,1.055-3.364,3.154c-0.398,2.1-0.598,4.456-0.598,7.066v5.79c0,5.011,1.169,7.521,3.505,7.521
	c1.313,0,2.523-0.677,3.639-2.022V139.572L205.507,139.572z M239.237,157.825c-0.642,5.756-3.964,8.634-9.978,8.634
	c-3.979,0-7.144-1.323-9.483-3.945c-2.336-2.621-3.507-6.554-3.507-11.789c0-5.077,1.098-9.066,3.322-11.976
	c2.209-2.901,5.191-4.356,8.91-4.356c3.324,0,5.989,1.124,8.025,3.378c2.027,2.266,3.053,5.243,3.053,8.954v2.733
	c0,0.523-0.354,0.789-1.055,0.789h-13.03v2.666c0,2.924,0.369,5.179,1.084,6.734c0.727,1.565,1.995,2.344,3.805,2.344
	c2.124,0,3.579-1.578,4.392-4.755L239.237,157.825L239.237,157.825z M231.555,146.66v-4.487c0-3.123-1.026-4.689-3.095-4.689
	c-1.966,0-2.965,2-2.965,5.989v3.188H231.555L231.555,146.66z M263.872,142.494v17.221c0,1.134,0.527,1.977,1.582,2.544
	c0.727,0.367,1.082,0.799,1.082,1.299v1.469c0,0.498-0.355,0.743-1.082,0.743h-13.032c-0.613,0-0.912-0.232-0.912-0.689v-1.522
	c0-0.477,0.357-0.909,1.084-1.299c1.055-0.588,1.58-1.433,1.58-2.544v-38.542c0-1.101-0.525-1.934-1.58-2.5
	c-0.727-0.365-1.084-0.822-1.084-1.333v-1.433c0-0.5,0.357-0.756,1.084-0.756h11.278c6.13,0,10.862,1.244,14.229,3.733
	c3.349,2.478,5.03,5.79,5.03,9.911C283.131,137.928,276.7,142.494,263.872,142.494L263.872,142.494z M263.872,119.027v19.633
	c2.508,0,4.331-0.222,5.487-0.667c1.155-0.457,2.081-1.345,2.779-2.679c0.699-1.333,1.042-3.399,1.042-6.198
	c0-2.778-0.313-4.855-0.957-6.234c-0.642-1.376-1.595-2.344-2.88-2.911C268.063,119.405,266.237,119.096,263.872,119.027
	L263.872,119.027z M293.581,146.205v-4.556c0-2.689-1.34-4.033-4.021-4.033c-0.94,0-1.41,0.222-1.41,0.677
	c0,0.179,0.085,0.434,0.243,0.79c0.341,0.623,0.498,1.167,0.498,1.622c0,0.822-0.341,1.522-1.042,2.102
	c-0.698,0.577-1.653,0.866-2.878,0.866c-1.34,0-2.411-0.322-3.223-0.967c-0.798-0.633-1.198-1.477-1.198-2.521
	c0-1.711,0.97-3.111,2.936-4.178c1.967-1.078,4.234-1.611,6.83-1.611c3.65,0,6.487,0.766,8.497,2.289
	c2.026,1.534,3.038,3.7,3.038,6.5v16.211c0,0.889,0.112,1.566,0.354,2.033c0.229,0.467,0.756,0.766,1.556,0.889
	c0.669,0.11,1.012,0.401,1.012,0.856v1.399c0,1.144-1.143,1.721-3.435,1.721c-3.053,0-5.175-1.154-6.347-3.455
	c-2.666,2.413-5.245,3.624-7.727,3.624c-2.365,0-4.319-0.766-5.846-2.301c-1.523-1.532-2.294-3.488-2.294-5.876
	C279.126,152.16,283.943,148.138,293.581,146.205L293.581,146.205z M293.581,149.527c-3.934,1.132-5.902,3.609-5.902,7.455
	c0,3.011,1.026,4.521,3.051,4.521c0.899,0,1.597-0.343,2.097-1.022c0.499-0.689,0.755-1.433,0.755-2.265V149.527L293.581,149.527z
	 M314.184,141.649c1.84-4.666,4.419-7,7.726-7c1.341,0,2.381,0.355,3.151,1.078c0.771,0.712,1.155,1.568,1.155,2.533
	c0,0.979-0.372,1.811-1.082,2.5c-0.729,0.677-1.685,1.021-2.852,1.021c-1.271,0-2.454-0.488-3.509-1.466
	c-1.996,2.5-3.01,5.478-3.01,8.957v11.066c0,0.976,0.528,1.854,1.6,2.633c0.442,0.299,0.669,0.532,0.669,0.688v1.624
	c0,0.322-0.184,0.488-0.557,0.488h-11.393c-0.34,0-0.511-0.112-0.511-0.322v-2.022c0-0.2,0.199-0.355,0.584-0.488
	c0.896-0.324,1.339-0.945,1.339-1.856v-20.088c0-1.144-0.454-2.089-1.368-2.822c-0.372-0.31-0.555-0.544-0.555-0.721v-1.591
	c0-0.432,0.398-0.667,1.184-0.687l7.428-0.1V141.649L314.184,141.649z M333.218,115.061c6.482,0,6.555,10.578,0.114,10.578
	C326.94,125.639,326.909,115.061,333.218,115.061L333.218,115.061z M337.549,135.072v25.521c0,1.132,0.601,1.934,1.799,2.411
	c0.498,0.21,0.754,0.534,0.754,0.945v1.198c0,0.411-0.298,0.623-0.91,0.623h-11.535c-0.612,0-0.911-0.212-0.911-0.623v-1.198
	c0-0.434,0.255-0.746,0.783-0.945c1.169-0.457,1.752-1.256,1.752-2.411v-20.144c0-1.177-0.598-2-1.794-2.477
	c-0.498-0.212-0.741-0.501-0.741-0.846v-1.21c0-0.389,0.299-0.588,0.911-0.611L337.549,135.072L337.549,135.072z M352.266,134.394
	c2.723,0,4.976,0.534,6.74,1.588c1.771,1.067,2.656,2.411,2.656,4.045c0,0.933-0.418,1.734-1.242,2.401
	c-0.813,0.677-1.882,1.009-3.193,1.009c-1.056,0-1.996-0.243-2.808-0.733c-0.828-0.488-1.242-1.188-1.242-2.1
	c0-0.366,0.127-0.777,0.387-1.233c0.153-0.299,0.238-0.534,0.238-0.689c0-0.754-0.739-1.132-2.207-1.132
	c-1.055,0-1.995,0.299-2.822,0.899c-0.828,0.589-1.227,1.422-1.227,2.489c0,0.91,0.371,1.766,1.125,2.588
	c0.743,0.812,2.723,2.112,5.931,3.922c3.094,1.734,5.247,3.333,6.473,4.799c1.227,1.468,1.84,3.113,1.84,4.957
	c0,2.932-1.211,5.21-3.636,6.822c-2.424,1.622-5.302,2.434-8.653,2.434c-3.167,0-5.733-0.6-7.699-1.777
	c-1.967-1.19-2.951-2.689-2.951-4.513c0-0.999,0.398-1.854,1.169-2.587c0.787-0.723,1.91-1.09,3.396-1.09
	c2.664,0,4.003,0.99,4.003,2.967c0,0.322-0.085,0.743-0.255,1.267c-0.156,0.478-0.243,0.81-0.243,1.011
	c0,1.055,0.972,1.589,2.924,1.589c1.468,0,2.693-0.355,3.678-1.088c0.97-0.723,1.455-1.558,1.455-2.49
	c0-1.021-0.43-1.956-1.269-2.812c-0.855-0.866-2.511-2.033-4.992-3.499c-3.349-2-5.702-3.721-7.056-5.167
	c-1.368-1.445-2.054-3.167-2.054-5.189c0-2.577,1.169-4.676,3.507-6.277C346.576,135.193,349.257,134.394,352.266,134.394
	L352.266,134.394z M196.474,196.656l0.342,0.01L25.606,407.355c-1.088-5.203-1.96-10.498-2.589-15.867l157.771-194.14
	C185.947,196.889,191.176,196.669,196.474,196.656L196.474,196.656z M226.297,199.237c5.272,0.914,10.472,2.064,15.565,3.449
	l-60.875,74.903l-13.491-5.991L226.297,199.237L226.297,199.237z M167.369,294.339L40.731,450.169
	c-2.4-4.721-4.583-9.561-6.572-14.504l125.518-154.434L167.369,294.339L167.369,294.339z M23.378,347.97
	c0.834-6.238,1.991-12.365,3.464-18.367l94.15-115.877c5.615-2.693,11.392-5.085,17.301-7.168L23.378,347.97L23.378,347.97z
	 M260.396,208.82c5.868,2.322,11.585,4.955,17.119,7.881l-61.962,76.246l-17.283-7.674L260.396,208.82L260.396,208.82z
	 M187.1,327.949L61.758,482.199c-3.997-4.838-7.737-9.908-11.209-15.154l126.689-155.896L187.1,327.949L187.1,327.949z
	 M287.341,222.276c7.122,4.382,13.896,9.237,20.296,14.54l-57.943,71.322l-23.61-10.502L287.341,222.276L287.341,222.276z
	 M153.022,427.087l-65.419,80.51c-6.527-5.209-12.667-10.865-18.375-16.922l123.884-152.473l3.707,6.313
	c3.603,6.121,3.975,12.004-1.122,18.271l-56.174,69.141L153.022,427.087L153.022,427.087z M314.678,242.986
	c8.296,7.668,15.849,16.12,22.524,25.249l-47.039,57.876l-31.624-14.049L314.678,242.986L314.678,242.986z M230.807,399.164
	L124.364,530.142c-10.343-4.697-20.145-10.363-29.306-16.906l74.984-92.266L230.807,399.164L230.807,399.164z M340.408,272.763
	c8.989,13.133,16.206,27.541,21.37,42.896l-25.24,31.064l-41.307-18.357L340.408,272.763L340.408,272.763z M319.915,367.173
	L175.864,544.437c-16.251-1.908-31.825-6.037-46.409-12.09l111.07-136.674L319.915,367.173L319.915,367.173z M363.512,321.162
	c4.753,15.879,7.315,32.709,7.283,50.145c-0.079,96.336-78.279,174.422-174.633,174.328c-4.898-0.01-9.753-0.23-14.553-0.621
	L328.69,364.017l25.859-9.27l-13.456-5.994L363.512,321.162L363.512,321.162z"/>
<polygon points="114.594,103.604 95.234,103.604 95.236,60.492 82.897,103.604 68.952,103.604 56.831,60.087 56.831,103.604 
	37.473,103.604 37.473,20.064 62.84,20.064 75.968,66.777 89.009,20.064 114.594,20.064 114.594,103.604 "/>
<path d="M185.692,103.607h-21.971l-2.232-14.837h-14.956l-2.658,14.837h-21.857l18.728-83.763l26.306-0.002L185.692,103.607
	L185.692,103.607z M157.509,69.672l-3.669-20.235l-3.729,20.346L157.509,69.672L157.509,69.672z"/>
<path d="M365.075,103.607h-21.972l-2.231-14.837h-14.956l-2.657,14.837h-21.857l18.728-83.763l26.306-0.002L365.075,103.607
	L365.075,103.607z M336.893,69.672l-3.669-20.235l-3.729,20.346L336.893,69.672L336.893,69.672z"/>
<polygon points="235.128,40.572 217.625,40.572 217.625,103.607 197.981,103.607 197.981,40.572 180.521,40.572 180.521,20.066 
	235.128,20.066 235.128,40.572 "/>
<path d="M297.694,103.607h-19.376c-0.706-1.238-2.583-2.849-2.97-4.406l-0.862-3.451l-0.402-4.953l-0.249-10.549
	c0-6.305,0.07-8.533-6.452-9.232h-7.033v32.591h-19.432V20.066h32.794c13.524,0,21.372,9.558,21.525,22.441
	c0.11,9.153-4.96,17.57-9.734,19.677c4.662,2.98,7.979,8.31,8.125,16.527l0.083,4.729v5.665c0,1.352,0.027,2.27,0.069,2.739
	c0.041,0.469,0.124,1.069,0.264,1.765l0.721,3.246L297.694,103.607L297.694,103.607z M274.401,46.309
	c0-5.227-3.527-8.861-6.52-8.861h-7.754v17.736l8.42,0.002C271.403,55.186,274.401,51.536,274.401,46.309L274.401,46.309z"/>
</svg>
