<?xml version="1.0" encoding="utf-8"?>
<!-- Generator: Adobe Illustrator 26.0.0, SVG Export Plug-In . SVG Version: 6.00 Build 0)  -->
<svg version="1.1" id="CA_Huracan" xmlns="http://www.w3.org/2000/svg" xmlns:xlink="http://www.w3.org/1999/xlink" x="0px" y="0px"
	 viewBox="0 0 349.54 575.61" style="enable-background:new 0 0 349.54 575.61;" xml:space="preserve">
<style type="text/css">
	.st0{fill:#FFFFFF;}
	.st1{fill:#FF0000;}
</style>
<g id="Globo">
	<g id="Fondo_1_">
		<path class="st0" d="M345.75,175.86c0,0.91,0,1.82,0,2.73c-0.57,30.8-7.83,54.87-18.33,75.75c-5.89,11.72-12.88,22.36-20.98,31.9
			c-0.97,1.14-1.31,2.51-1.82,4.06c-11.65,35.2-23.65,70.41-35.32,105.69c-0.48,1.43-1.23,3.02-1.26,4.62
			c-0.04,1.79-0.15,3.73,0.07,5.81c0.73,6.72,1.86,13.65,2.8,20.7c1.59,11.99,3.26,24.04,4.97,36.16c0.24,1.71,0.36,3.5,0.7,5.18
			c0.09,0.46-0.33,5.83,0.95,6.9c3.5,2.94,11,4.1,10.73,10.79c-0.16,4.01-2.14,7.26-4.27,9.65c-2.25,2.52-4.85,4.23-7.69,6.23
			c0,1.96-1.36,11.13,0.24,12.72c0.71,0.71,7.75,1.78,7.8,3.24c0.23,6.66-0.09,9.42-0.35,16.01c-0.05,1.2,0.06,2.28-0.49,2.94
			c-2.43,2.9-5.93,5.58-9.3,7.97c-10.05,7.15-22.21,12.61-35.32,16.44c-17.94,5.24-38.51,8.04-60.92,8.04
			c-22.86,0-43.2-2.69-60.78-8.18c-17.6-5.5-32.89-13.42-44-24.97c-0.13-3.57-0.07-8.04-0.07-12.45c0-4.13-0.23-1.86,0-5.26
			c0.12-1.82,6.36-2.12,7.84-2.49c1.63-0.41,0.71-10.87,0.76-12.6c-5.93-3.81-11.94-7.12-13.92-14.48
			c-2.13-7.9,5.22-10.11,9.44-13.56c0.46-0.38-0.34-6.84-0.21-7.77c2.84-19.99,5.83-40.35,8.53-60.29c0.23-1.67,0.57-3.48,0.56-5.46
			c-0.01-1.87,0.14-3.81-0.42-5.39C73.8,362.75,61.58,328.66,49.67,294.9c-0.27-0.78-0.51-1.55-0.91-2.1
			c-0.39-0.54-0.89-0.97-1.4-1.54c-9.4-10.6-17.52-22.35-24.41-35.39C11.9,234.95,4.62,210.54,3.79,179.36c0-1.42,0-2.85,0-4.27
			c0.07-1.65,0.13-3.55,0.21-5.25c1.19-25.23,6.99-45.69,15.32-63.79c8.88-19.3,20.53-35.64,34.62-49.73
			c14.04-14.04,30.41-25.73,49.73-34.62C123,12.8,145.49,6.79,172.64,6.24c1.42,0,2.85,0,4.27,0c27.34,0.51,49.73,6.68,69.11,15.53
			c19.41,8.86,35.85,20.74,49.87,34.76c14.01,14,25.79,30.6,34.62,50.01C339.35,125.97,345.3,148.44,345.75,175.86z"/>
	</g>
	<g id="Cuerpo">
		<path class="st1" d="M349.54,173.38c0,0.93,0,1.86,0,2.79c-0.58,31.48-8,56.08-18.73,77.43c-6.02,11.98-13.16,22.85-21.45,32.6
			c-0.99,1.16-1.33,2.56-1.86,4.15c-11.9,35.98-24.17,71.97-36.1,108.03c-0.49,1.47-1.26,3.08-1.29,4.72
			c-0.04,1.83-0.16,3.81,0.07,5.93c0.74,6.87,1.91,13.95,2.86,21.16c1.62,12.26,3.33,24.58,5.08,36.96
			c0.25,1.75,0.37,3.58,0.72,5.29c0.09,0.47,0.2,0.65,0.57,0.93c1.41,1.05,2.84,1.9,4.15,3c3.58,3,7.49,7.32,7.22,14.16
			c-0.16,4.1-2.19,7.42-4.36,9.87c-2.3,2.58-4.96,4.33-7.86,6.36c0,2,0,4,0,6c2.72,0.66,5.79,0.37,7.43,2
			c0.73,0.72,0.74,2.44,0.79,3.93c0.24,6.81-0.1,14-0.36,20.73c-0.05,1.23,0.07,2.33-0.5,3c-2.49,2.97-6.07,5.7-9.51,8.15
			c-10.27,7.31-22.7,12.89-36.11,16.8c-18.34,5.35-39.37,8.22-62.27,8.22c-23.37,0-44.15-2.75-62.13-8.37
			c-17.99-5.62-33.62-13.71-44.97-25.52c-0.13-3.65-0.07-8.22-0.07-12.73c0-4.23-0.23-8.47,0-11.94c0.12-1.86,2.13-2.48,3.65-2.86
			c1.66-0.41,3.19-0.6,5.08-0.64c0.17-1.65,0.03-3.6,0.07-5.36c-6.06-3.9-12.2-7.28-14.23-14.8c-2.18-8.08,2.84-13.77,7.15-17.3
			c0.48-0.39,1.74-1.24,1.93-1.79c0.26-0.74,0.22-1.77,0.36-2.72c2.9-20.43,5.96-41.24,8.72-61.63c0.23-1.7,0.58-3.55,0.57-5.58
			c-0.01-1.91,0.14-3.89-0.43-5.51c-12.15-34.46-24.65-69.31-36.82-103.81c-0.28-0.8-0.53-1.58-0.93-2.14
			c-0.4-0.55-0.91-0.99-1.43-1.57c-9.61-10.84-17.91-22.84-24.95-36.18C8.29,233.78,0.85,208.83,0,176.95c0-1.45,0-2.91,0-4.36
			c0.07-1.69,0.13-3.62,0.21-5.36c1.22-25.79,7.14-46.7,15.66-65.2c9.08-19.73,20.99-36.43,35.39-50.83
			c14.35-14.35,31.08-26.3,50.83-35.39C121.85,6.71,144.84,0.56,172.59,0c1.45,0,2.91,0,4.36,0c27.95,0.52,50.83,6.83,70.64,15.87
			c19.84,9.06,36.64,21.2,50.98,35.53c14.32,14.31,26.36,31.28,35.39,51.12C343,122.38,349.08,145.35,349.54,173.38z M339.6,174.09
			c0-15.47-2.3-29.54-5.5-41.75c0-0.04-0.01-0.08-0.07-0.07c-9.27,13.87-18.43,27.85-27.74,41.68c4.64,7,9.28,14.17,14.01,21.23
			c4.52,6.76,8.99,13.85,13.66,20.45c0.08,0.11,0.15,0.53,0.43,0.43C337.64,203.82,339.6,189.51,339.6,174.09z M329.88,230.72
			c0.26-0.73,0.74-1.76,0.71-2.07c-0.02-0.28-0.58-0.9-0.93-1.43c-9.86-14.78-19.51-29.57-29.31-44.11
			c-1.49,2.03-3.16,4.6-4.72,6.94c-3.79,5.68-7.59,11.43-11.37,17.16c-0.76,1.16-1.82,2.33-2.29,3.43c-0.45,1.05-0.65,2.34-1,3.5
			c-10.7,35.98-22.38,72.64-32.96,108.32c19.43-9.56,35.95-22.59,49.97-38.18C311.32,269.45,322.39,251.42,329.88,230.72z
			 M330.24,119.83c0.01-0.3-0.4-1.12-0.64-1.79c-0.23-0.65-0.53-1.31-0.71-1.79c-14.13-37.11-39.07-64.78-70.92-83.79
			c-9.43,8.07-20.02,14.97-32.17,20.31c24.82,37.46,49.66,74.88,74.57,112.25c9.34-14.02,18.68-28.2,28.1-42.25
			C328.97,121.99,330.22,120.44,330.24,119.83z M277.62,495.11c1.89-1.76,4.3-4.39,2.72-7.51c-1.43-2.8-4.43-4.76-7.22-6.44
			c-7.27-4.38-16.85-7.38-26.02-9.58c-4.48,12.89-8.72,26.03-13.08,39.04c9.57-1.66,18.56-3.83,27.02-6.79
			C266.97,501.75,273.34,499.08,277.62,495.11z M294.35,174.09c-5.47-8.38-10.98-16.72-16.59-24.95
			c-5.81,8.58-11.81,16.97-17.59,25.6c5.82,8.19,11.51,16.51,17.37,24.67C283.12,190.94,288.73,182.51,294.35,174.09z
			 M260.82,398.95c10.48-31.66,21.21-63.44,31.6-94.95c-13.89,12.64-29.84,23.21-48.33,31.24c-6.45,21.24-12.92,42.46-19.38,63.7
			C236.74,398.95,248.78,398.95,260.82,398.95z M272.18,208.98c-6.04-8.24-12.02-17.15-18.09-25.59
			c-9.12,13.19-18.3,26.69-27.45,39.61c0-5.77,0-11.53,0-17.3c7.1-10.36,14.33-20.61,21.38-31.03c-6.68-9.57-13.37-19-20.09-28.6
			c-0.45-0.65-1.29-1.65-1.29-2.15c0-5.5,0-11.16,0-16.95c9.22,12.95,18.27,26.06,27.45,39.04c5.9-8.61,11.82-17.21,17.8-25.74
			c-18.49-27.95-37.01-55.88-55.62-83.72c-4.76,1.72-9.78,3.19-15.09,4.36c6.21,19.1,12.67,38.33,18.73,57.34
			c-3.46,0-6.91,0-10.37,0c-6.04-18.51-12.17-36.92-18.16-55.48c-10.35,1.58-23.56,1.83-34.32,0.43
			c-5.6,18.31-11.02,36.79-16.66,55.05c-3.41-0.05-7.01,0.1-10.3-0.07c5.71-18.86,11.36-37.78,17.09-56.62
			c-6.22-1.29-12.03-2.99-17.59-4.93c-18.01,26.75-35.98,53.53-53.91,80.36c7.11,9.52,14.28,18.99,21.38,28.53
			c10.07-13.36,19.89-27.37,29.89-40.54c0,5.53,0,11.06,0,16.59c-3.9,5.4-7.87,10.82-11.8,16.23c-3.94,5.43-8.06,10.68-11.73,16.16
			c7.4,9.81,14.64,19.58,22.09,29.46c0.5,0.67,1.32,1.51,1.43,2.07c0.23,1.21,0,2.72,0,4.07c0,4.2,0,8.07,0,12.23
			c-9.95-13.14-19.79-26.39-29.74-39.54c-5.27,7.18-10.32,14.16-15.66,21.38c-0.42,0.57-2.11,2.47-2.14,3.15
			c-0.02,0.36,0.43,1.16,0.64,1.86c12.46,40.2,25.11,80.92,37.46,120.76c11.91,4.39,25.1,7.88,39.82,9.22
			c-9.22-36.92-18.39-73.88-27.52-110.89c3.41,0,6.82,0,10.22,0c9.16,37.32,18.51,74.43,27.67,111.75
			c6.05,0.28,12.53,0.14,18.37-0.21c9.36-36.86,18.29-74.13,27.45-111.18c3.38,0,6.77,0,10.15,0
			c-8.91,36.79-17.97,73.45-27.02,110.1c14.55-1.97,27.46-5.57,39.25-10.3C248.07,288.3,260.03,248.54,272.18,208.98z
			 M268.18,467.72c-1.89-14.12-3.81-28.22-5.79-42.25c-4.04,12.23-8.16,24.4-12.23,36.61C256.46,463.67,262.52,465.49,268.18,467.72
			z M257.45,408.88c-10.27,0-20.54,0-30.81,0c-0.11,0.02-0.05,0.16,0,0.21c3.97,16.11,8.16,33.06,12.23,49.33
			c0.17,0.68,0.1,1.12,0.64,1.36c0.27,0.12,0.41,0.02,0.79,0.14c0.93-2.02,1.52-4.18,2.22-6.29
			C247.45,438.72,252.57,423.8,257.45,408.88z M247.88,27.88c0.24-0.19,0.73-0.39,0.57-0.57c-14.53-7.28-30.95-13.04-49.97-15.59
			c7.3,10.86,14.43,21.89,21.81,32.67C230.46,40.03,239.79,34.31,247.88,27.88z M227.5,538.36 M239.58,531.93 M248.09,539.29
			 M248.09,539.29c0-2.83-3.96-7.11-10.9-7.11c-6.94,0-9.69,6.18-9.69,8.86c0,2.68,0,16.98,0,16.98c1.17,0.75,18.36-2.99,20.59-5.29
			C248.09,552.73,248.09,542.12,248.09,539.29z M228.5,457.93c-3.26-13.12-6.45-26.29-9.8-39.32c-3.71,12.35-7.49,24.64-11.22,36.96
			C214.67,456.17,221.71,456.93,228.5,457.93z M222.92,512.34c4.81-14.26,9.58-28.55,14.3-42.9c-10.3-1.95-21.24-3.26-32.6-4.15
			c-5.2,16.4-10.14,33.04-15.16,49.62C201.19,514.63,212.24,513.66,222.92,512.34z M214.34,398.95
			c5.97-19.7,11.99-39.34,17.95-59.06c-11.44,3.86-24.15,7.07-38.18,8.58c-3.75,14.82-7.64,30.32-11.37,45.33
			c-0.5,2.02-1.04,3.38-0.21,5.15C193.13,398.95,203.74,398.95,214.34,398.95z M211.27,408.88c-8.72,0-17.45,0-26.17,0
			c-0.08,0.01-0.08,0.11-0.07,0.21c3.68,14.79,7.47,29.93,11.15,44.76c0.16,0.63,0.12,1.16,0.79,1.07c0.43-0.05,0.52-0.49,0.71-1.14
			C202.24,438.7,206.81,423.8,211.27,408.88z M198.19,51.48c4.28-1.01,8.44-2.14,12.44-3.43c-7.69-11.69-15.7-23.8-23.52-35.53
			c-0.43-0.64-1.27-2.17-1.72-2.29c-0.25-0.07-0.54,0.05-0.79,0c-0.12,0.03,0.02,0.09,0,0.21C189.19,24.06,193.5,37.95,198.19,51.48
			z M165.15,544.15 M177.88,536.72 M190.03,543.94 M190.03,543.94c0-3.66-4.95-7.22-12.15-7.22s-12.73,4.2-12.73,7.43
			c0,3.24,0,20.59,0,20.59c10.41,1.37,16.83,1.06,24.88,0.07C190.03,564.82,190.03,547.59,190.03,543.94z M188.18,53.19
			c-4.07-12.65-8.3-25.39-12.44-37.89c-0.6-1.8-1-3.67-1.86-5.36c-0.24,0-0.48,0-0.71,0c-0.1,0.02-0.08,0.16-0.14,0.22
			c-4.29,14.51-8.75,28.86-13.01,43.4C168.88,54.54,179.66,54.39,188.18,53.19z M186.1,454.5c-3.12-12.4-6.13-24.9-9.29-37.25
			c-3.13,12.45-6.27,24.9-9.44,37.32C173.59,454.42,179.81,454.41,186.1,454.5z M178.95,515.13c5.17-16.75,10.24-33.61,15.37-50.4
			c-9.52-0.43-19.79-0.47-29.45-0.14c-4.21,16.55-8.45,33.07-12.58,49.69C160.91,514.82,169.76,515.15,178.95,515.13z
			 M176.95,376.21c2.15-9.03,4.5-17.86,6.65-26.88c-4.32,0.21-9.05,0.21-13.37,0.22C172.54,358.36,174.6,367.43,176.95,376.21z
			 M171.23,398.95c0.76-1.89,0.28-3.23-0.21-5.22c-3.73-14.93-7.46-30.18-11.15-44.83c-14.21-1.18-26.79-4-38.54-7.65
			c-0.02-0.27-0.18,0.21,0,0.14c5.92,19.23,11.9,38.39,17.87,57.55C149.88,398.95,160.55,398.95,171.23,398.95z M168.66,408.88
			c-8.77,0-17.54,0-26.31,0c-0.11,0.02-0.05,0.16,0,0.21c4.59,14.81,9.28,29.91,13.87,44.61c0.12,0.4,0.1,1.1,0.64,1.29
			c0.4-0.28,0.4-0.88,0.5-1.29C161.09,438.77,165,423.84,168.66,408.88z M162.51,10.87c0.08-0.54,0.05-0.43-0.21-0.5
			c-0.45-0.12-1.13,0.26-1.79,0.14c-8.36,12.56-16.84,25.01-25.17,37.61c4.71,1.49,9.48,2.91,14.73,3.86
			c3.8-12.45,7.91-26.35,11.8-39.18C162.04,12.23,162.43,11.4,162.51,10.87z M154.36,465.65c0.16-0.86,0.04-0.52-0.43-0.5
			c-10.08,0.47-20.08,1.85-29.53,3.22c-3.76,13.5-7.43,27.08-11.15,40.61c9.15,1.98,18.87,3.39,28.96,4.43
			c3.59-14.13,7.24-28.25,10.8-42.47C153.35,469.55,154.08,467.16,154.36,465.65z M147.21,12.58c0.12-0.23,0.29-0.31-0.07-0.36
			c-0.45-0.06-1.15,0.24-1.79,0.36c-17.6,3.27-32.81,8.65-46.33,15.73c7.64,6.33,16.83,11.72,26.67,16.09
			c1.95-2.55,3.7-5.28,5.5-8.01c4.48-6.78,9.05-13.54,13.59-20.3C145.41,15.15,146.65,13.61,147.21,12.58z M146.42,455.71
			c-3.32-10.55-6.46-21.28-9.94-31.67c-3.01,11.36-6.2,22.54-9.22,33.89C133.45,456.99,139.9,456.32,146.42,455.71z M130.48,540.79
			c-0.07-2.73-2.91-7.76-11.15-8.72c-8.25-0.96-11.72,4.36-11.72,5.79c0,1.43,0,13.94,0,13.94c0.71,1.05,14.17,5.75,22.88,7.08
			C130.48,558.88,130.55,543.52,130.48,540.79z M130.48,540.79 M130.41,408.88c-10.84,0-21.69,0-32.53,0
			c5.58,16.05,11.77,33.15,17.52,49.48c0.17,0.47,0.42,1.45,0.79,1.43c0.37-0.02,0.56-1.04,0.64-1.36
			C121.29,441.84,125.94,425.25,130.41,408.88z M94.44,398.95c11.44,0,22.88,0,34.32,0c-6.36-20.71-12.83-41.32-19.23-61.99
			c-18.01-7.23-33.71-17.15-47.4-28.46c5.34,15.06,10.82,30.18,16.16,45.33c4.98,14.13,10.06,28.35,15.01,42.4
			C93.62,397.15,93.9,398.13,94.44,398.95z M103.6,506.62c3.29-12.02,6.73-24.25,9.87-36.18c-10.79,2.41-21.63,5.4-30.24,10.37
			c-2.79,1.61-5.82,3.55-7.44,6.08c-0.62,0.97-1.15,2.22-0.86,3.72c0.5,2.55,3.13,4.67,5.08,6.08
			C86.61,501.46,95.11,504.13,103.6,506.62z M104.67,324.02c0.28,0.13,0.6,0.36,0.93,0.29c-8.7-28.43-18.07-57.51-26.74-86.15
			c-2.92-9.64-5.89-19.27-8.94-28.74c-0.23-0.72-0.98-1.47-1.43-2.14c-6.61-9.91-13.39-20.05-19.95-29.67
			c-1.33,1.64-2.75,3.94-4.07,5.93c-9.01,13.51-18.25,26.98-27.1,40.47c7.64,23.62,19.2,43.71,34.17,60.2
			c7.47,8.23,15.49,15.96,24.52,22.66C84.8,313.34,94.38,319.22,104.67,324.02z M120.18,52.76c-11.5-5.09-21.5-11.67-30.6-19.16
			c-31.59,19.46-55.25,46.84-69.42,83.72c9.39,14.19,18.9,28.24,28.38,42.33C72.38,123.97,96.35,88.44,120.18,52.76z M106.1,462
			c-4.56-13.28-9.48-26.84-14.23-40.18c-2.19,15.61-4.41,31.2-6.58,46.83C91.74,465.95,98.66,463.72,106.1,462z M73.78,197.33
			c5.87-7.69,11.52-15.6,17.23-23.45c-7.12-9.35-14.08-18.85-21.23-28.17c-5.05,7.67-10.22,15.23-15.3,22.88
			C60.95,178.13,67.37,187.72,73.78,197.33z M42.54,168.52c-8.83-12.96-17.46-26.11-26.31-39.04c-1.62,5.71-3.15,12.16-4.22,18.95
			c-3.13,19.91-2.67,44.38,1.93,62.63C23.45,197.14,33.03,182.68,42.54,168.52z"/>
	</g>
	<path id="H_1_" class="st1" d="M194.97,123.26c8.89,0,17.78,0,26.67,0c-0.05,33.24,0.1,66.68-0.07,99.81c-8.79,0-17.59,0-26.38,0
		c0-13.16,0-26.31,0-39.47c-12.77,0-25.55,0-38.32,0c-0.17,12.89-0.02,26.1-0.07,39.11c-8.27,0-16.54,0-24.81,0
		c0-33.08,0-66.16,0-99.24c-0.01-0.1-0.01-0.2,0.07-0.21c8.29,0,16.59,0,24.88,0c0,11.75,0,23.5,0,35.25c12.65,0,25.31,0,37.96,0
		C195.06,146.9,194.92,134.98,194.97,123.26z"/>
</g>
</svg>
