<?xml version="1.0" encoding="UTF-8" standalone="no"?>
<svg
   width="800"
   height="800"
   viewBox="0 0 800 800.00001"
   id="svg2"
   version="1.1"
   inkscape:version="1.2 (dc2aeda, 2022-05-15)"
   sodipodi:docname="Logo CA Paris XIVe.svg"
   xml:space="preserve"
   xmlns:inkscape="http://www.inkscape.org/namespaces/inkscape"
   xmlns:sodipodi="http://sodipodi.sourceforge.net/DTD/sodipodi-0.dtd"
   xmlns="http://www.w3.org/2000/svg"
   xmlns:svg="http://www.w3.org/2000/svg"
   xmlns:rdf="http://www.w3.org/1999/02/22-rdf-syntax-ns#"
   xmlns:cc="http://creativecommons.org/ns#"
   xmlns:dc="http://purl.org/dc/elements/1.1/"><defs
     id="defs4"><clipPath
       clipPathUnits="userSpaceOnUse"
       id="clipPath4473"><path
         inkscape:connector-curvature="0"
         id="path4475"
         d="m 538.582,462.047 h 34.016 v 34.016 h -34.016 z"
         style="stroke-width:1" /></clipPath></defs><sodipodi:namedview
     id="base"
     pagecolor="#ffffff"
     bordercolor="#666666"
     borderopacity="1.0"
     inkscape:pageopacity="0.0"
     inkscape:pageshadow="2"
     inkscape:zoom="0.40290655"
     inkscape:cx="550.99625"
     inkscape:cy="294.11287"
     inkscape:document-units="px"
     inkscape:current-layer="layer1"
     showgrid="false"
     inkscape:window-width="1920"
     inkscape:window-height="893"
     inkscape:window-x="0"
     inkscape:window-y="25"
     inkscape:window-maximized="0"
     units="px"
     inkscape:document-rotation="0"
     inkscape:showpageshadow="2"
     inkscape:pagecheckerboard="0"
     inkscape:deskcolor="#d1d1d1"
     showguides="false"><sodipodi:guide
       position="900.18161,497.66191"
       orientation="0,-1"
       id="guide7002"
       inkscape:locked="false" /></sodipodi:namedview><metadata
     id="metadata7"><rdf:RDF><cc:Work
         rdf:about=""><dc:format>image/svg+xml</dc:format><dc:type
           rdf:resource="http://purl.org/dc/dcmitype/StillImage" /><dc:title /></cc:Work></rdf:RDF></metadata><g
     inkscape:label="Calque 1"
     inkscape:groupmode="layer"
     id="layer1"
     transform="translate(1769.5082,552.72598)"><g
       id="g12515"
       transform="matrix(0.99960305,0,0,0.99960305,-0.70241044,-0.21940588)"
       style="stroke-width:1.0004"><circle
         style="fill:#000000;stroke:none;stroke-width:2.0008;stroke-linecap:square"
         id="circle824"
         cx="-1369.3494"
         cy="-152.56714"
         r="400.15884" /><circle
         style="fill:#ffffff;stroke:none;stroke-width:2.0008;stroke-linecap:square"
         id="circle822"
         cx="-1369.3494"
         cy="-152.56714"
         r="388.99002" /><g
         id="g6486"
         style="stroke-width:1.0004"><path
           id="path587"
           style="fill:#000000;stroke-width:2.00079;stroke-linecap:square"
           d="m -1265.6986,-152.56714 -103.6508,263.65079 c -145.6103,10e-6 -263.6508,-118.0404756 -263.6508,-263.65079 0,-145.61031 118.0405,-263.6508 263.6508,-263.65079 z"
           sodipodi:nodetypes="ccscc" /><path
           id="circle5850"
           style="fill:#6956ae;fill-opacity:1;stroke-width:2.00079;stroke-linecap:square"
           d="m -1105.6986,-152.56714 c 0,145.6103144 -118.0405,263.6508 -263.6508,263.65079 v -527.30158 c 145.6103,-10e-6 263.6508,118.04048 263.6508,263.65079 z"
           sodipodi:nodetypes="sccs" /></g></g><g
       id="g12573"
       transform="matrix(0.99960305,0,0,0.99960305,-0.70241044,-0.21940588)"
       style="stroke-width:1.0004"><g
         id="g880"
         transform="translate(0.07325287)"
         style="stroke-width:1.0004"><g
           id="g727"
           style="fill:#000000;stroke-width:1.0004"><path
             d="m -1463.9183,153.40441 -12.8567,4.26982 -5.5322,-18.59223 26.779,-7.83962 19.8044,5.75292 -18.514,63.73412 -21.6048,-6.27592 z"
             style="font-weight:900;font-size:93.7411px;line-height:1.25;font-family:'Avenir Next';-inkscape-font-specification:'Avenir Next Heavy';letter-spacing:6px;white-space:pre;fill:#000000;stroke-width:0.160079"
             id="path710" /><path
             d="m -1395.5902,157.69826 q -2.5219,-0.21452 -4.1514,1.24623 -1.5282,1.37528 -1.6791,3.14996 -0.1589,1.86807 1.1071,3.57511 1.3594,1.71499 3.8813,1.9295 2.5219,0.21451 4.058,-1.25417 1.6295,-1.46075 1.7884,-3.32883 0.151,-1.77467 -1.2164,-3.39625 -1.266,-1.70704 -3.7879,-1.92155 z m -2.1769,25.59264 q -2.8955,-0.24629 -4.533,1.30785 -1.544,1.5621 -1.7268,3.71039 -0.1827,2.14828 1.0753,3.94873 1.3594,1.71498 4.2549,1.96127 2.8956,0.2463 4.4317,-1.22239 1.6375,-1.55415 1.8202,-3.70244 0.1827,-2.14828 -1.1687,-3.95667 -1.2581,-1.80045 -4.1536,-2.04674 z m 17.1621,-7.10143 q 4.6126,2.17987 7.3533,6.45841 2.842,4.19309 2.3653,9.79732 -0.4767,5.60423 -3.2468,9.41402 -2.6688,3.72434 -6.8062,5.91255 -4.0441,2.19616 -9.0899,2.89592 -4.9602,0.80111 -10.0974,0.36414 -5.1373,-0.43697 -9.9923,-1.9789 -4.8551,-1.54193 -8.4701,-4.38958 -3.6151,-2.84765 -5.7099,-6.97718 -1.9934,-4.21498 -1.5167,-9.81921 0.4608,-5.41742 3.7834,-9.08614 3.416,-3.66078 8.5412,-5.29458 l 0.024,-0.28021 q -3.9747,-1.93744 -6.5683,-5.73308 -2.5857,-3.88905 -2.1487,-9.02625 0.437,-5.13721 2.9965,-8.68269 2.5595,-3.54547 6.4008,-5.57071 3.9348,-2.0173 8.7938,-2.73295 4.8589,-0.71565 9.8093,-0.29457 4.857,0.41314 9.5252,1.93918 4.6683,1.52604 8.1124,4.17099 3.5376,2.6529 5.4614,6.57973 2.0173,3.93477 1.5804,9.07198 -0.437,5.13721 -3.4556,8.54956 -3.0106,3.31894 -7.6211,4.43204 z"
             style="font-weight:900;font-size:93.7411px;line-height:1.25;font-family:'Avenir Next';-inkscape-font-specification:'Avenir Next Heavy';letter-spacing:6px;white-space:pre;fill:#000000;stroke-width:0.160079"
             id="path712" /><path
             d="m -1337.1674,188.17323 q -4.2842,0.48895 -8.5417,-0.44041 -4.1749,-1.03312 -7.6605,-3.46582 -3.4855,-2.43269 -5.909,-6.30748 -2.3305,-3.88542 -2.9363,-9.1942 -0.7122,-6.24015 1.0847,-11.16271 1.7864,-5.01569 5.4298,-8.6394 3.6435,-3.6237 8.6784,-5.80227 5.035,-2.17856 10.8094,-2.83759 5.7745,-0.65902 11.1709,0.32906 5.3857,0.89494 9.7413,3.51138 4.3556,2.61644 7.2262,7.10067 2.8598,4.39109 3.5826,10.72437 0.7122,6.24015 -1.1753,12.02219 -1.8051,5.67829 -4.544,10.614 l -12.6753,22.86395 -26.9164,3.07189 13.2578,-21.89259 0.4019,-0.61197 z m 4.5476,-16.36974 q 2.9803,-0.34014 4.6305,-2.41545 1.7326,-2.17909 1.4138,-4.97318 -0.3296,-2.88723 -2.5086,-4.61988 -2.086,-1.74328 -5.0664,-1.40314 -3.1666,0.3614 -4.8992,2.54048 -1.6396,2.16845 -1.31,5.05569 0.3188,2.79409 2.4048,4.53737 2.1684,1.63951 5.3351,1.27811 z"
             style="font-weight:900;font-size:93.7411px;line-height:1.25;font-family:'Avenir Next';-inkscape-font-specification:'Avenir Next Heavy';letter-spacing:6px;white-space:pre;fill:#000000;stroke-width:0.160079"
             id="path714" /><path
             d="m -1279.4625,199.76329 9.3919,-53.22835 -27.1327,8.71283 -5.6748,-17.67194 50.3383,-16.1646 4.8436,15.08362 -7.1327,55.3581 z"
             style="font-weight:900;font-size:93.7411px;line-height:1.25;font-family:'Avenir Next';-inkscape-font-specification:'Avenir Next Heavy';letter-spacing:6px;white-space:pre;fill:#000000;stroke-width:0.160079"
             id="path716" /></g><g
           id="g820"
           style="fill:#000000;stroke-width:1.0004"><path
             d="m -1641.2681,-329.35732 q -6.292,-4.88867 -9.6743,-11.07784 -3.3822,-6.18917 -4.0187,-12.85659 -0.6364,-6.66743 1.4649,-13.34447 2.0848,-6.80858 6.6859,-12.7305 4.7161,-6.06998 10.9133,-9.92086 6.1231,-3.9084 12.2724,-4.94746 l 4.6312,20.92993 q -3.0749,-0.0149 -5.7626,1.45817 -2.7618,1.41553 -4.8898,4.15442 -1.7254,2.22072 -2.4065,4.77799 -0.7551,2.49977 -0.4249,5.13052 0.3877,2.55674 1.9018,5.0389 1.44,2.42465 4.0308,4.43763 2.5909,2.01298 5.2962,2.8091 2.6888,0.66458 5.2621,0.4084 2.6307,-0.3302 4.9403,-1.62218 2.2356,-1.34949 3.9035,-3.49619 2.3581,-3.03498 2.7676,-6.15941 0.467,-3.19846 -0.2578,-5.77968 l 21.3512,-0.74261 q 0.7925,6.31381 -1.0868,13.1634 -1.9533,6.79207 -7.072,13.38021 -4.6011,5.92192 -10.6832,9.62476 -6.0246,3.62881 -12.6425,4.65989 -6.6919,0.97357 -13.451,-0.71665 -6.8331,-1.74772 -13.0511,-6.57888 z"
             style="font-weight:900;font-size:93.7411px;line-height:1.25;font-family:'Avenir Next';-inkscape-font-specification:'Avenir Next Heavy';letter-spacing:-2.5px;white-space:pre;fill:#000000;stroke-width:0.160079"
             id="path671" /><path
             d="m -1601.154,-422.8196 18.3706,-14.9998 62.0163,35.04516 -18.8062,15.35553 -8.8525,-5.3579 -16.3375,13.33975 3.6245,9.62661 -18.298,14.94051 z m 23.5752,10.64252 6.1639,16.14561 8.3503,-6.81809 z"
             style="font-weight:900;font-size:93.7411px;line-height:1.25;font-family:'Avenir Next';-inkscape-font-specification:'Avenir Next Heavy';letter-spacing:-2.5px;white-space:pre;fill:#000000;stroke-width:0.160079"
             id="path673" /><path
             d="m -1488.0486,-440.97045 8.294,19.69809 -20.4757,8.6213 -25.7547,-61.16776 26.2641,-11.05855 q 4.6653,-1.96434 9.5943,-2.8192 4.8928,-0.94125 9.4535,-0.014 4.5244,0.84122 8.3576,3.90597 3.7968,2.97837 6.3068,8.93962 2.4009,5.70209 1.9144,10.58568 -0.4002,4.84722 -2.8875,8.84413 -2.4009,3.96053 -6.5069,7.01164 -4.0196,3.01473 -8.7713,5.01545 z m -10.7311,-25.48657 4.147,9.84905 4.3197,-1.81884 q 2.3327,-0.98218 3.7605,-2.90561 1.4778,-2.04619 0.3137,-4.81084 -0.6183,-1.46871 -1.5005,-2.11441 -0.9185,-0.73209 -2.0871,-0.85031 -1.0822,-0.1546 -2.2782,0.1455 -1.2322,0.21372 -2.3553,0.68662 z"
             style="font-weight:900;font-size:93.7411px;line-height:1.25;font-family:'Avenir Next';-inkscape-font-specification:'Avenir Next Heavy';letter-spacing:-2.5px;white-space:pre;fill:#000000;stroke-width:0.160079"
             id="path675" /><path
             d="m -1441.4193,-502.05983 23.3335,-4.24464 37.3331,60.66657 -23.8869,4.34531 -5.1573,-8.97091 -20.7512,3.77488 -1.4831,10.17887 -23.2413,4.22786 z m 15.4879,20.7166 -2.4132,17.1129 10.6062,-1.92939 z"
             style="font-weight:900;font-size:93.7411px;line-height:1.25;font-family:'Avenir Next';-inkscape-font-specification:'Avenir Next Heavy';letter-spacing:-2.5px;white-space:pre;fill:#000000;stroke-width:0.160079"
             id="path677" /><path
             d="m -1374.1381,-510.24686 28.5524,1.4853 q 4.868,0.25323 9.5887,1.53135 4.8193,1.18938 8.4324,3.91176 3.7116,2.63364 5.8328,6.96804 2.1261,4.24079 1.7998,10.51296 -0.3165,6.08494 -3.5557,10.60983 -3.2343,4.43128 -8.9826,6.66668 l 15.4529,27.74394 -25.6504,-1.33434 -11.4995,-24.34677 -0.6553,-0.0341 -1.232,23.68447 -21.5314,-1.12006 z m 19.888,29.10106 4.3999,0.22888 q 1.1234,0.0584 2.4437,-0.0606 1.414,-0.11418 2.5666,-0.61743 1.251,-0.59199 2.0535,-1.5828 0.901,-1.07954 0.9935,-2.85822 0.092,-1.77867 -0.5092,-2.84252 -0.6017,-1.06385 -1.6071,-1.58549 -1.0006,-0.61526 -2.2127,-0.77218 -1.2073,-0.25054 -2.237,-0.3041 l -5.336,-0.27758 z"
             style="font-weight:900;font-size:93.7411px;line-height:1.25;font-family:'Avenir Next';-inkscape-font-specification:'Avenir Next Heavy';letter-spacing:-2.5px;white-space:pre;fill:#000000;stroke-width:0.160079"
             id="path679" /><path
             d="m -1298.2475,-502.0578 21.8532,5.34665 -15.7726,64.46726 -21.8532,-5.34665 z"
             style="font-weight:900;font-size:93.7411px;line-height:1.25;font-family:'Avenir Next';-inkscape-font-specification:'Avenir Next Heavy';letter-spacing:-2.5px;white-space:pre;fill:#000000;stroke-width:0.160079"
             id="path681" /><path
             d="m -1260.2763,-419.97143 q -3.7549,-1.46576 -7.1498,-3.59602 -3.3417,-2.00885 -6.2701,-4.5608 -2.807,-2.60518 -5.1283,-5.4233 -2.2873,-2.90545 -3.8269,-5.92158 l 18.0478,-8.85448 q 1.2627,3.20993 4.1271,6.44132 2.9518,3.26547 6.794,4.76532 1.7465,0.68174 3.3823,0.61588 1.7231,-0.0318 2.3708,-1.69093 0.3409,-0.87324 0.055,-1.68903 -0.198,-0.78171 -1.1819,-1.8702 -0.9498,-1.17581 -2.8261,-2.81391 -1.789,-1.60401 -4.611,-3.91313 -2.7346,-2.27504 -5.0709,-4.7971 -2.3021,-2.60939 -3.7545,-5.59144 -1.365,-2.94795 -1.5499,-6.34095 -0.1509,-3.48032 1.4512,-7.58454 2.2498,-5.76336 6.1755,-8.8599 3.9258,-3.09653 8.5819,-4.19724 4.7776,-1.15396 9.8489,-0.48253 5.0713,0.67142 9.6121,2.44397 6.1127,2.38612 11.4796,7.19816 5.4543,4.84612 8.5186,11.17445 l -18.0711,8.14094 q -1.0731,-3.43781 -3.6182,-5.94073 -2.5109,-2.59024 -4.956,-3.54469 -2.2704,-0.88627 -3.9403,-0.73308 -1.6357,0.0659 -2.2152,1.55037 -0.5454,1.39718 0.5791,2.64117 1.2118,1.27808 4.0337,3.5872 2.9092,2.34321 6.0314,5.17206 3.1222,2.82885 5.2923,6.29233 2.2915,3.41024 3.0387,7.42523 0.7472,4.01499 -1.1276,8.8178 -2.1816,5.58872 -6.0882,8.89399 -3.7852,3.25203 -8.5436,4.61472 -4.637,1.30945 -9.6892,0.84676 -5.0862,-0.37537 -9.8017,-2.21609 z"
             style="font-weight:900;font-size:93.7411px;line-height:1.25;font-family:'Avenir Next';-inkscape-font-specification:'Avenir Next Heavy';letter-spacing:-2.5px;white-space:pre;fill:#000000;stroke-width:0.160079"
             id="path683" /><path
             d="m -1167.4792,-416.31418 -13.519,-0.87311 1.858,-19.30865 27.7625,2.79534 16.1923,12.77187 -41.1022,52.10964 -17.6643,-13.93294 z"
             style="font-weight:900;font-size:93.7411px;line-height:1.25;font-family:'Avenir Next';-inkscape-font-specification:'Avenir Next Heavy';letter-spacing:-2.5px;white-space:pre;fill:#000000;stroke-width:0.160079"
             id="path685" /><path
             d="m -1134.207,-323.40775 -13.127,-15.41643 8.9215,-7.59665 -20.7236,-24.33797 13.8462,-11.79 44.0511,-4.51298 17.5026,20.55524 -28.3348,24.12695 5.8342,6.85175 -13.2752,11.30381 -5.7735,-6.78037 z m 21.7847,-45.26667 -19.9469,2.45647 7.4143,8.70742 12.7756,-10.8784 z"
             style="font-weight:900;font-size:93.7411px;line-height:1.25;font-family:'Avenir Next';-inkscape-font-specification:'Avenir Next Heavy';letter-spacing:-2.5px;white-space:pre;fill:#000000;stroke-width:0.160079"
             id="path687" /></g></g><g
         id="g12535"
         style="stroke-width:1.0004"><g
           id="g5795"
           style="stroke-width:1.0004"><path
             inkscape:connector-curvature="0"
             id="path4496"
             d="m -1049.4104,-209.10832 c -2.6312,13.68695 -3.4546,29.29679 -2.0494,45.73202 v 0 c 4.3943,51.0653 31.4672,90.72027 57.1172,88.579699 v 0 c -11.76,-6.730098 -47.541,-44.743359 -52.1054,-97.822249 v 0 c -1.0919,-12.66202 -0.9487,-24.87053 0.2327,-36.20829 v 0 c 0.9934,-9.48745 -6.9002,-11.76407 -4.5375,-19.78214 v 0 c -3.5799,7.43758 3.2219,9.67792 1.3424,19.50096"
             style="fill:#099dfa;fill-opacity:1;stroke-width:1.0004" /><path
             inkscape:connector-curvature="0"
             id="path7730"
             style="fill:#e52c11;fill-opacity:1;fill-rule:nonzero;stroke:none;stroke-width:1.0004"
             d="m -1023.9038,-88.847358 c -11.0797,-9.69606 -23.8242,-16.861532 -35.1277,-14.258382 -9.6568,2.22221 -15.0893,11.111017 -15.9932,15.292387 -2.7834,-3.37412 -3.8037,-4.371844 -3.6515,-5.414919 1.3872,-9.514648 26.4018,-32.072278 54.7724,4.380914" /><path
             inkscape:connector-curvature="0"
             id="path7732"
             style="fill:#e52c11;fill-opacity:1;fill-rule:nonzero;stroke:none;stroke-width:1.0004"
             d="m -1055.5787,-210.29389 c -2.9355,26.26734 -10.507,110.34822 -57.6632,133.041893 52.365,-0.82539 63.8296,-111.454783 57.6632,-133.041893" /><path
             inkscape:connector-curvature="0"
             id="path7766"
             style="fill:#e52c11;fill-opacity:1;fill-rule:nonzero;stroke:none;stroke-width:2.3806"
             d="m 554.9566,486.1733 c 0.255,0.271 0.699,0.882 0.494,1.663 0.044,-1.082 -0.75,-1.526 -0.829,-1.647 -0.313,-0.475 0.772,-0.38 0.807,-0.399 -0.213,0.091 -0.775,0.061 -0.472,0.383"
             transform="matrix(8.9497414,0,0,-9.0702134,-6024.3747,4194.5092)"
             clip-path="url(#clipPath4473)" /><path
             inkscape:connector-curvature="0"
             id="path7884"
             style="fill:#e52c11;fill-opacity:1;fill-rule:nonzero;stroke:none;stroke-width:1.0004"
             d="m -1061.7228,-129.16828 c -0.3044,1.18819 -0.6623,2.35825 -1.0651,3.51924 12.8697,1.02493 27.8516,-5.2063 31.172,-8.87974 -5.2088,1.90474 -17.9085,6.37636 -30.1069,5.3605" /></g><g
           id="g10448"
           transform="translate(0,-1.2629604)"
           style="stroke-width:1.0004"><path
             style="fill:#000000;stroke-width:1.0004"
             d="m -1731.1543,-185.48224 c 9.1607,-2.79124 10.2415,-3.43592 13.9757,-8.33632 1.7726,-2.32618 4.031,-5.26972 5.0187,-6.54119 1.9276,-2.48141 2.2136,-3.64682 1.1548,-4.70565 -1.0023,-1.00229 -2.8648,-0.81784 -7.5194,0.74465 -7.3565,2.4695 -16.3377,9.26204 -20.1956,15.27407 -2.2977,3.58061 -2.1923,5.35813 0.3285,5.53788 0.339,0.0242 3.5958,-0.86387 7.2373,-1.97344 z"
             id="path6900" /><path
             style="fill:#ff008a;fill-opacity:1;stroke-width:1.0004"
             d="m -1690.8843,-174.36307 c -1.5224,-1.42409 -4.0628,-4.70041 -5.6451,-7.28071 -5.0983,-8.31358 -8.4235,-9.82777 -12.4421,-5.66567 -2.6239,2.71766 -4.3505,3.51722 -5.8557,2.71167 -1.518,-0.8124 -1.3602,-1.45087 0.9651,-3.90474 1.1231,-1.18526 3.4404,-4.83638 5.1496,-8.11361 1.7091,-3.27722 3.7778,-6.45377 4.597,-7.05898 2.0645,-1.52519 6.5584,-1.87571 9.5157,-0.74222 4.3185,1.65519 7.2781,5.00073 12.3792,13.99354 3.1613,5.57308 4.3838,9.18581 3.1083,9.18581 -0.4132,0 -0.5936,0.76793 -0.4903,2.08768 0.1428,1.82648 0,2.11093 -1.1496,2.27348 -1.1329,0.16032 -1.2678,0.41129 -0.984,1.83051 0.3845,1.92222 -0.8269,2.73597 -2.509,1.68549 -0.8855,-0.55302 -1.0397,-0.4835 -1.0397,0.46885 0,2.0449 -2.5593,1.37249 -5.5994,-1.4711 z"
             id="path6549" /><path
             style="fill:#000000;stroke-width:1.0004"
             d="m -1700.8729,-134.32411 c -1.7989,-0.68724 -11.5982,-7.96939 -13.2393,-9.83856 -2.6736,-3.04499 -2.7879,-5.03689 -0.6854,-11.93727 3.1537,-10.3505 5.0449,-13.35058 9.1179,-14.46397 0.9671,-0.26437 5.0698,-0.26547 9.2044,-0.002 8.6374,0.54945 10.4255,1.29177 12.2286,5.07659 2.0989,4.4056 4.4461,16.24788 3.7612,18.97651 -0.6573,2.61894 -4.2352,5.7008 -10.7113,9.22624 -5.8159,3.1661 -7.6635,3.73183 -9.6761,2.96292 z"
             id="path6589" /><path
             style="fill:#000000;stroke-width:1.0004"
             d="m -1740.5426,-132.63399 c 0.4623,-9.56534 0.22,-10.80025 -3.1337,-15.96854 -1.5919,-2.45335 -3.6012,-5.57227 -4.465,-6.93096 -1.6858,-2.65163 -2.6864,-3.31397 -4.0403,-2.67437 -1.2817,0.60548 -1.7363,2.42104 -1.8354,7.3299 -0.1566,7.75835 3.2085,18.50437 7.5669,24.16407 2.5957,3.37081 4.3046,3.87115 5.3241,1.55872 0.1371,-0.31097 0.3996,-3.67646 0.5834,-7.47882 z"
             id="path7009" /><path
             style="fill:#6956ae;fill-opacity:1;stroke-width:1.0004"
             d="m -1716.4918,-166.7934 c -1.8541,0.95283 -5.7953,2.23922 -8.7581,2.85844 -9.5461,1.99529 -12.0931,4.61488 -9.5304,9.80187 1.6733,3.38681 1.8436,5.28192 0.5776,6.42719 -1.2769,1.15501 -1.8247,0.7911 -3.3504,-2.22564 -0.737,-1.45707 -3.3925,-4.87011 -5.9011,-7.58457 -2.5087,-2.71437 -4.8013,-5.7333 -5.0947,-6.70863 -0.7395,-2.45797 0.4464,-6.80674 2.511,-9.20839 3.0148,-3.50711 7.1626,-5.16479 17.349,-6.93361 6.3128,-1.0962 10.1261,-1.02846 9.6959,0.17229 -0.1394,0.38898 0.5227,0.81784 1.8,1.16575 1.7676,0.48165 1.9872,0.71203 1.7524,1.84909 -0.2312,1.12058 -0.04,1.33223 1.3914,1.54377 1.9392,0.28641 2.2967,1.7013 0.7404,2.93049 -0.8193,0.64707 -0.8059,0.81568 0.091,1.13691 1.9251,0.68976 0.4288,2.87227 -3.2736,4.77504 z"
             id="path7011" /><path
             style="fill:#000000;stroke-width:1.0004"
             d="m -1691.9737,-106.19893 c -8.9976,-3.27922 -10.2488,-3.41415 -16.1793,-1.74476 -2.8152,0.79245 -6.3898,1.78597 -7.9436,2.2078 -3.0323,0.82325 -3.9617,1.58234 -3.7526,3.06506 0.198,1.40356 1.797,2.37631 6.4554,3.927252 7.3627,2.451225 18.6232,2.425675 25.3211,-0.05746 3.9891,-1.478872 4.9739,-2.962402 3.068,-4.622022 -0.2562,-0.22321 -3.3923,-1.47234 -6.969,-2.77587 z"
             id="path7017" /><path
             style="fill:#fce300;fill-opacity:1;stroke-width:1.0004"
             d="m -1717.4601,-139.30104 c 0.3598,2.05335 0.4191,6.19875 0.1314,9.21187 -0.9265,9.70824 0.8195,12.91778 6.5333,12.00928 3.7307,-0.59324 5.591,-0.19366 6.3092,1.35516 0.7242,1.56199 0.2141,1.9772 -3.1194,2.53926 -1.6101,0.27153 -5.6573,1.79494 -8.9938,3.38535 -3.3364,1.59047 -6.8996,2.88423 -7.9181,2.87509 -2.5667,-0.023 -6.3678,-2.44565 -8.0489,-5.12977 -2.4548,-3.91957 -2.8073,-8.37239 -1.4745,-18.62497 0.8259,-6.35381 2.0219,-9.9754 3.041,-9.20831 0.3301,0.2485 0.9361,-0.25654 1.6472,-1.37307 0.9844,-1.54514 1.2696,-1.68652 2.2858,-1.12502 1.0015,0.55325 1.2602,0.43386 1.887,-0.87069 0.8489,-1.76699 2.3061,-1.6886 3.0182,0.1623 0.3749,0.97438 0.5399,1.01157 1.1127,0.25069 1.2298,-1.63376 2.8701,0.44263 3.5889,4.54283 z"
             id="path7019" /><path
             style="fill:#000000;stroke-width:1.0004"
             d="m -1652.1636,-145.74448 c -5.6332,7.74445 -6.108,8.90994 -6.1387,15.07088 -0.015,2.92456 -0.045,6.63452 -0.068,8.24439 -0.045,3.14181 0.4286,4.24449 1.9115,4.45232 1.4037,0.19671 2.7797,-1.07202 5.5551,-5.12218 4.3864,-6.40121 7.467,-17.2322 6.9271,-24.35516 -0.3215,-4.24226 -1.4759,-5.59797 -3.5968,-4.22363 -0.2852,0.1848 -2.3507,2.85485 -4.5899,5.93338 z"
             id="path7025" /><path
             style="fill:#7bcb1a;fill-opacity:1;stroke-width:1.0004"
             d="m -1691.0103,-130.37427 c 2.0729,0.22031 6.074,1.30647 8.8909,2.41383 9.0764,3.56772 12.6429,2.77444 13.3453,-2.96829 0.4585,-3.7497 1.3556,-5.4277 3.0424,-5.69088 1.7011,-0.26541 1.9596,0.33936 1.5806,3.69865 -0.183,1.62257 0.1653,5.93293 0.774,9.57862 0.6088,3.64563 0.8698,7.42741 0.5802,8.40387 -0.73,2.46081 -4.1068,5.44657 -7.1504,6.32227 -4.4446,1.27879 -8.8219,0.38978 -18.3095,-3.71855 -5.8797,-2.54602 -9.0311,-4.69432 -8.0127,-5.46234 0.3299,-0.2488 0.012,-0.97053 -0.8656,-1.96202 -1.2138,-1.37228 -1.271,-1.68537 -0.4511,-2.50735 0.808,-0.81015 0.7646,-1.09176 -0.3166,-2.05397 -1.4644,-1.30318 -0.9872,-2.6823 0.9883,-2.85644 1.04,-0.0917 1.1213,-0.24001 0.5478,-1.00036 -1.2313,-1.63265 1.2169,-2.63683 5.3564,-2.19704 z"
             id="path7027" /><path
             style="fill:#000000;stroke-width:1.0004"
             d="m -1678.3655,-194.53159 c 5.7412,7.66478 6.7151,8.46181 12.5935,10.30622 2.7905,0.87554 6.3268,1.99788 7.8584,2.49413 2.9892,0.96849 4.1824,0.84097 4.8178,-0.51488 0.6016,-1.28349 -0.2055,-2.97216 -3.2582,-6.8176 -4.8248,-6.07764 -14.2675,-12.21243 -21.2334,-13.795 -4.1487,-0.94258 -5.7844,-0.23877 -5.0958,2.19283 0.092,0.32701 2.0356,3.08746 4.3177,6.1343 z"
             id="path7033" /><path
             style="fill:#02a4ed;fill-opacity:1;stroke-width:1.0004"
             d="m -1675.122,-152.88079 c 0.8212,-1.91606 3.0379,-5.41951 4.926,-7.78523 6.0834,-7.62241 6.3761,-11.2644 1.0951,-13.62741 -3.4482,-1.54289 -4.7874,-2.89451 -4.542,-4.58397 0.2476,-1.70383 0.9016,-1.77264 4.0002,-0.42081 1.4966,0.6529 5.7183,1.58992 9.3815,2.0823 3.6632,0.49229 7.354,1.35698 8.2018,1.92143 2.1366,1.42251 3.995,5.52914 3.9351,8.69566 -0.087,4.62401 -2.2265,8.54521 -8.9476,16.40132 -4.1653,4.86865 -7.1466,7.24725 -7.5806,6.04782 -0.1405,-0.38855 -0.924,-0.29695 -2.1299,0.24915 -1.669,0.75563 -1.985,0.71812 -2.529,-0.30762 -0.5361,-1.01079 -0.818,-1.05227 -2.0561,-0.30259 -1.6767,1.01549 -2.854,0.15317 -2.4385,-1.78597 0.2188,-1.02082 0.101,-1.14217 -0.7945,-0.81819 -1.923,0.69565 -2.1613,-1.93975 -0.5215,-5.76589 z"
             id="path7035" /></g></g><path
         style="fill:#fdfdfd;stroke-width:1.0004"
         d="m -1426.9688,91.419443 c 0,-4.601976 -3.2634,-8.95794 -8.7257,-11.646987 -1.8962,-0.9335 -3.5787,-2.039025 -3.739,-2.456785 -0.1603,-0.417814 0.3239,-2.815755 1.0761,-5.328879 1.9997,-6.680919 1.9298,-7.052304 -2.1898,-11.626277 -3.5286,-3.917829 -5.8454,-7.668253 -7.3841,-11.953403 -0.6574,-1.83087 -0.6835,-2.877272 -0.1465,-5.884871 1.3023,-7.293807 -1.0639,-24.004788 -4.712,-33.2787756 -2.6837,-6.8222463 -3.4827,-9.57667916 -4.7361,-16.3264467 -0.6069,-3.2683367 -1.4731,-6.6503827 -1.9249,-7.5156577 -1.2131,-2.323006 -3.5874,-4.375649 -7.1245,-6.159131 l -3.1416,-1.58409 1.2923,-3.064584 c 2.022,-4.794884 3.2711,-11.767594 2.5172,-14.051847 -1.2629,-3.826617 -5.6036,-4.182146 -9.3543,-0.766152 -1.7859,1.626517 -2.1285,0.826873 -0.9597,-2.239822 1.203,-3.156437 4.2834,-6.475919 7.1027,-7.653901 2.5767,-1.076598 8.1303,-1.078274 12.0872,-0.0039 7.7575,2.106756 14.3478,0.98877 18.8622,-1.417586 3.2624,-1.738969 3.0148,-2.903344 5.0898,-5.513247 1.7926,-2.233648 2.7703,-3.984524 2.7703,-4.961242 0,-2.338912 -2.2549,-5.177715 -5.7461,-7.23416 -1.369,-0.806335 -1.5169,-1.139797 -1.1516,-2.595357 0.7022,-2.797389 0.4994,-5.801748 -0.4559,-6.757116 -0.5676,-0.567577 -2.4334,-1.047065 -5.0844,-1.306622 -6.0479,-0.592167 -6.845,-1.671544 -7.6027,-10.29536 -0.7153,-8.142013 -2.3818,-10.855514 -6.1576,-10.026224 -0.9006,0.19781 -4.5811,2.135847 -8.1789,4.306758 -8.4077,5.073253 -14.4823,8.405404 -18.9855,8.736574 -13.3595,0.982479 -20.2594,-6.990672 -24.6524,-18.623002 -1.6804,-4.59161 -1.8072,-15.51818 -0.2423,-20.87147 5.4019,-27.10871 39.1643,-42.5132 48.928,-62.80873 6.4771,-14.70954 -5.1081,-27.12628 -18.5482,-27.07101 -7.0223,0.0289 -9.4726,0.81634 -18.8948,6.01914 -8.7704,4.84288 -10.9148,5.58117 -15.2095,5.23643 -5.586,-0.44839 -13.3423,-4.87026 -21.0105,-11.97817 l -3.0619,-2.83821 6.6806,2.26664 c 8.8681,3.00884 12.4547,3.26087 19.1351,1.3446 9.8225,-2.81756 15.9896,-6.51552 9.6048,-5.75934 -5.5823,0.66115 -12.6296,-1.70787 -22.1034,-7.43032 -5.6211,-3.39529 -6.485,-4.40942 -2.0829,-2.44519 1.7822,0.79523 4.5393,1.58481 6.1269,1.75463 9.0199,-0.50839 12.8039,-8.96092 15.1517,-12.64374 -4.7428,-2.93792 -12.666,-6.25527 -16.2388,-8.98708 -15.8719,-12.31205 -23.4152,-29.71988 -21.0434,-48.5626 1.2387,-9.84148 4.7705,-20.46437 9.6912,-29.14939 1.0814,-1.90857 2.1378,-4.66431 2.3477,-6.12387 0.6757,-4.69793 2.4239,-12.42067 3.1591,-13.95442 0.8237,-1.71862 2.3198,-2.19598 3.5869,-1.14443 0.7123,0.59116 0.8223,1.52447 0.5799,4.91723 -0.1646,2.30317 -0.714,4.62157 -0.7212,5.25047 -0.015,1.2783 -0.2068,1.04291 3.4641,0.70174 2.1372,-0.19864 5.9998,-0.74981 8.5835,-1.22484 7.4544,-1.37054 10.8259,-1.57359 14.4124,-0.86801 5.0691,1.25663 9.2981,3.21849 13.4235,6.02164 -2.7281,0.21057 -5.5787,0.29183 -8.2046,0.8991 2.2557,4.57875 6.2121,9.32216 8.3239,13.50034 3.0757,6.13887 3.0879,5.8462 -0.3967,9.55765 -8.9868,9.5719 -16.0507,21.35161 -18.1149,30.20825 -1.167,5.00711 -1.0769,4.88979 -2.4473,3.18493 -2.4071,-2.9946 -5.475,-9.35989 -5.5576,-11.53089 -0.081,-2.13682 -0.087,-2.14154 -2.3572,-2.05664 -1.6817,0.0629 -3.1748,-0.10907 -5.0104,-1.63657 -2.2965,-1.91104 -4.3198,-3.14673 -5.7967,-5.30382 -1.839,-2.686 -1.9485,-3.13445 -1.9485,-7.3798 0,-6.28954 1.7797,-9.69817 6.9437,-13.29925 3.6044,-2.51353 11.7063,0.15096 11.7063,3.84986 0,1.84495 -2.7801,4.73284 -6.3585,6.60498 -3.2705,1.71105 -3.5039,2.13339 -2.4535,4.43881 1.1618,2.54997 4.0376,2.29028 7.4384,-0.67171 1.6935,-1.475 6.1413,-7.92196 7.1601,-10.37856 2.0888,-5.03627 0.5291,-9.58522 -3.992,-11.64302 -3.8297,-1.74309 -12.2402,-1.75005 -15.4867,-0.0128 -4.3971,2.35291 -7.2834,6.7274 -9.2343,13.99573 -1.8991,7.07519 -1.8972,25.40627 -0.353,34.22359 0.3204,2.9688 1.0298,3.78851 3.5064,5.14336 l 67.1978,36.76108 c 0.7535,0.23611 6.6923,4.59067 10.5498,8.03195 8.5056,7.58796 12.9907,23.24138 11.1018,38.74685 -1.2507,10.2672 -4.698,21.33964 -9.7011,31.15719 -1.4216,2.78951 -1.5275,2.36144 -2.3553,4.00413 -0.2854,-1.38608 -0.8369,-2.5086 -1.2092,-3.3287 -2.3099,-5.14796 -18.6511,1.89182 -24.913,7.33618 -10.4457,10.03736 -17.9324,22.12107 -18.2328,37.15138 -0.087,4.34303 0.036,4.73821 1.6148,6.70769 3.1514,3.93023 9.2309,4.90344 16.0613,2.5711 2.087,-0.71264 3.8378,-2.00598 6.9962,-5.16821 l 52.5683,-61.47151 c 3.8029,-4.80805 -2.3467,-23.3417 -15.4706,-46.01693 -1.8608,-3.21503 -3.9002,-6.53032 -4.5319,-7.36731 -0.6318,-0.83699 -1.8697,-2.18147 -2.4382,-3.19456 -1.3933,-2.48292 -2.0272,-3.94411 -1.9965,-6.13959 0.051,-3.67844 2.1268,-10.87163 4.7193,-16.38704 0.6681,-1.42126 1.1079,-2.69089 0.9774,-2.82141 -0.1305,-0.13052 -2.4192,1.25699 -5.086,3.08335 -2.6667,1.82635 -5.0041,3.32065 -5.1941,3.32065 -0.19,0 -0.1643,-3.75783 0.057,-8.35073 0.2215,-4.5929 0.2687,-8.35073 0.1051,-8.35073 -0.1637,0 -3.0019,4.91195 -6.3072,10.91544 l -6.0095,10.91545 -0.7255,-3.53897 c -0.3991,-1.94644 -1.8831,-10.17781 -3.2979,-18.29193 -3.4698,-19.90028 -3.4816,-26.50924 -0.067,-37.29993 3.5476,-11.21017 10.0817,-20.64001 17.8417,-25.74837 2.8837,-1.89838 8.001,-3.91788 9.4372,-3.72431 2.9867,0.40259 2.751,-0.81506 -0.3901,-2.01465 -3.4507,-1.31786 -9.8056,-0.83675 -15.0226,1.1373 -4.0294,1.52468 -11.9219,5.58753 -15.278,7.86473 -1.0543,0.71534 -1.9944,1.2231 -2.0891,1.12835 -0.5257,-0.52568 2.3727,-7.05404 4.6168,-10.3988 6.0487,-9.01541 19.5167,-18.69751 34.6274,-24.89345 2.9091,-1.19285 2.9371,-1.22682 2.084,-2.52883 -0.4756,-0.72586 -1.5024,-1.66102 -2.2818,-2.07812 -1.3017,-0.69666 -1.798,-0.56694 -6.0961,1.59349 -2.5734,1.29354 -6.2556,2.86023 -8.1826,3.48155 -3.3927,1.09392 -11.946,3.28132 -12.8617,3.28924 2.1777,-2.83515 4.8592,-5.97869 6.539,-8.38158 1.4665,-2.02073 3.874,-3.74787 12.2957,-8.82073 5.7598,-3.4694 13.1908,-8.07696 16.5134,-10.23905 6.1605,-4.00871 6.6398,-4.81746 2.8656,-4.8357 -2.0869,-0.0101 -3.525,-0.49097 -3.525,-1.17867 0,-0.90558 11.5389,-5.51044 13.8081,-5.51044 0.4447,0 2.5347,-1.2796 4.6443,-2.84354 l 3.8358,-2.84353 3.748,2.53465 c 4.6431,3.13996 9.7511,5.5155 11.3519,5.27929 0.8788,-0.12969 1.374,-0.78606 1.8146,-2.40523 0.5143,-1.88985 1.027,-2.43595 3.3878,-3.60847 2.465,-1.22429 3.6534,-1.4058 10.4366,-1.59414 7.3673,-0.20455 9.0598,0.14194 6.4121,1.31277 -1.7663,0.78109 -2.6366,2.86688 -2.6461,6.34188 l -0.01,3.00875 7.2373,-0.34618 c 3.9806,-0.1904 7.2328,-0.16647 7.2273,0.0532 -0.01,0.21965 -0.7353,1.71461 -1.6215,3.32212 -1.8547,3.36403 -1.8806,3.35004 3.8584,2.08769 4.8885,-1.07528 4.8876,-1.07556 3.0269,0.90833 -0.8993,0.95888 -1.3736,1.83937 -1.054,1.95664 0.3196,0.11728 3.2006,1.84502 6.4022,3.83943 3.2017,1.99441 8.524,5.0123 11.8275,6.70641 4.1914,2.14945 6.883,3.96833 8.9075,6.01932 2.8302,2.86739 4.7448,4.25287 9.86,7.13509 1.3779,0.77639 4.0991,2.32161 6.0471,3.43383 1.9481,1.11222 4.1401,2.17235 4.8713,2.35586 2.0413,0.51233 1.6459,2.26622 -1.4598,6.47598 l -2.7723,3.75783 h -3.5845 c -2.9706,0 -4.0438,0.27706 -6.2659,1.61762 -1.6019,0.96637 -4.2504,1.89191 -6.5784,2.29893 -5.5176,0.96465 -5.7569,1.19288 -3.0964,2.95353 7.5002,4.96338 20.06,6.65002 31.762,4.26529 5.5496,-1.13093 14.2535,-3.94064 19.7837,-6.38635 l 3.0552,-1.35115 -0.6462,1.22382 c -2.2777,4.31318 -8.9074,11.28649 -11.1783,11.75753 -0.6967,0.1445 -3.5214,0.65569 -6.2771,1.13598 -6.3137,1.10039 -12.5861,3.09279 -18.5814,5.90225 -6.5774,3.08231 -7.0034,2.99561 -8.5984,-1.75014 -1.6743,-4.98199 -3.3047,-7.69067 -5.1588,-8.57047 -2.8563,-1.3554 -8.58,-0.98101 -8.58,0.56124 0,0.39807 0.1979,0.80726 0.4399,0.90933 0.2419,0.10206 1.291,1.38185 2.3313,2.84398 l 1.8914,2.65842 -2.6701,2.71091 c -1.9045,1.9335 -2.5331,2.93775 -2.1922,3.50192 0.2629,0.43506 2.0833,2.98083 4.0453,5.65728 2.6746,3.64855 3.9632,4.94546 5.1496,5.18274 4.2714,0.85428 -0.07,1.92869 -8.0346,1.98847 -6.225,0.0467 -9.046,-0.95216 -11.8106,-4.18191 -1.0543,-1.23181 -2.3214,-3.45702 -2.8156,-4.94491 -0.4942,-1.48788 -1.1003,-2.70524 -1.347,-2.70524 -0.2467,0 -0.8529,0.85206 -1.3471,1.89346 -2.8031,5.90714 1.528,11.34816 13.9523,17.52784 14.4693,7.19688 28.7173,7.82318 47.328,2.08039 10.5455,-3.25407 22.3683,-9.54878 26.2603,-13.98148 2.9503,-3.36017 2.1324,-7.84321 -3.2457,-17.78991 -3.4458,-6.37318 -3.5513,-7.88323 -0.7237,-10.3659 3.5426,-3.11041 15.1972,-7.96474 16.3513,-6.81059 1.1397,1.13965 -0.097,4.79074 -2.3598,6.9646 -2.3049,2.21479 -2.6063,3.51753 -1.3641,5.89546 1.7922,3.43047 5.3385,5.55024 5.3385,3.19101 0,-1.78078 5.6564,-11.90286 7.904,-14.14402 2.1996,-2.19343 2.577,-2.36483 4.6205,-2.09873 1.7018,0.22161 2.7449,0.84681 4.434,2.65761 l 2.2087,2.36784 -1.7656,0.72044 c -2.0389,0.83196 -3.0883,2.43892 -2.5452,3.89758 0.2077,0.55802 1.2089,2.23268 2.2248,3.72145 1.016,1.48878 1.8472,3.1798 1.8472,3.75783 0,1.29233 -0.1436,1.2981 3.0705,-0.12364 5.09,-2.25156 11.7458,-0.55544 17.518,4.46419 l 2.4952,2.16992 -2.5997,-0.29302 c -1.4297,-0.16116 -3.4921,-0.12559 -4.5829,0.079 -1.8695,0.35072 -1.9833,0.49628 -1.9833,2.53731 0,5.60331 -3.1211,15.12674 -5.0754,15.48654 -0.4949,0.0911 -1.6955,-0.50371 -2.6678,-1.32188 -0.9724,-0.81817 -1.8505,-1.39378 -1.9513,-1.27913 -0.1009,0.11465 -1.3543,2.42379 -2.7853,5.13143 -2.2048,4.17153 -2.4932,5.0638 -1.8896,5.84551 5.6148,7.27128 7.2296,8.15777 11.9992,6.58754 1.4436,-0.47524 2.7101,-0.77866 2.8145,-0.67427 0.3326,0.33266 -3.3659,8.80255 -5.3568,12.26744 -2.7912,4.85758 -4.39,6.40222 -6.6265,6.40222 -2.004,0 -5.1226,-1.39858 -8.9222,-4.00129 -3.3614,-2.30252 -6.8039,-3.76628 -8.891,-3.78049 -5.2189,-0.0356 -33.1641,14.34699 -39.8196,20.494 -1.7922,1.65518 -1.9465,2.66891 -0.4774,3.13517 2.3766,0.75431 2.8842,6.05817 1.1378,11.88735 -0.5424,1.81012 -0.8232,2.14528 -1.3023,1.55399 -0.7317,-0.90316 -3.8783,-2.00967 -5.7149,-2.00967 -1.4385,0 -1.43,-0.32415 -0.1435,5.50103 0.4856,2.19876 1.2116,3.5457 2.7285,5.06266 2.3688,2.36879 4.0219,2.78213 11.1635,2.79135 5.6927,0.007 6.7717,-0.57768 8.025,-4.35079 1.0443,-3.14409 3.3881,-5.55799 7.2694,-7.48677 3.0931,-1.53707 9.0374,-3.52158 9.4156,-3.1434 0.1338,0.13383 -0.1097,1.74438 -0.5412,3.57902 -0.9134,3.88304 -1.038,7.51106 -0.2581,7.51106 0.6132,0 0.8861,-0.42241 5.0363,-7.79402 5.147,-9.14224 9.3894,-13.91788 12.3639,-13.91788 1.3149,0 1.2621,0.26027 -0.6997,3.44871 -0.9262,1.50523 -1.5537,2.94755 -1.3945,3.20515 0.1592,0.2576 1.8087,-0.004 3.6657,-0.58243 4.1102,-1.27925 7.1798,-0.78566 10.8597,1.74621 3.3224,2.2859 3.3975,2.61743 0.7536,3.32938 -3.3092,0.89106 -4.9633,2.74296 -4.9633,5.55679 0,3.58438 -1.9849,6.37693 -7.2423,10.18901 -1.085,0.78672 -1.1445,0.92679 -0.2733,0.64365 5.1274,-1.66657 12.1516,-3.04099 15.5414,-3.04099 4.471,0 8.1097,1.43238 9.8996,3.897 1.631,2.24588 2.32,7.59096 1.5873,12.31342 -0.3467,2.23462 -0.7278,4.16036 -0.8469,4.27944 -0.1191,0.11908 -0.7213,-0.74723 -1.3382,-1.92513 -0.617,-1.17789 -1.7344,-2.88864 -2.4833,-3.80166 l -1.3614,-1.66003 -2.5994,1.29816 c -1.4296,0.714 -3.4609,1.29817 -4.5139,1.29817 -2.1242,0 -7.2234,-1.09428 -8.7356,-1.87464 -2.4764,-1.27785 0.072,4.50862 3.1924,7.24814 1.103,0.96842 3.4624,2.49625 5.2432,3.39519 5.9786,3.01798 6.5098,7.3202 2.1863,17.7058 l -1.7151,4.11977 -0.9561,-2.13559 c -1.3109,-2.92784 -4.6201,-5.74468 -6.7489,-5.74468 -1.2916,0 -2.3018,-0.64628 -4.351,-2.78358 -1.4679,-1.53097 -2.967,-2.78358 -3.3315,-2.78358 -0.3644,0 -1.3927,0.53986 -2.2852,1.19968 -1.5198,1.12363 -2.0488,1.17825 -8.3446,0.8617 -3.7773,-0.18992 -6.5905,-0.12539 -6.422,0.14732 0.165,0.26691 -0.6022,1.22895 -1.7049,2.13787 -2.5891,2.13417 -5.6703,2.71089 -18.604,3.48214 l -10.2992,0.61417 -2.4092,2.7375 c -2.6601,3.02252 -5.1126,3.69316 -6.1841,1.69102 -0.751,-1.40331 -4.134,-2.69203 -8.3059,-3.16402 l -3.4209,-0.38703 v 10.12044 c 0,11.52696 0.4148,11.03216 -5.0382,6.00956 -1.9231,-1.77126 -3.6595,-3.02387 -3.8588,-2.78357 -0.1993,0.2403 -0.7578,1.439 -1.2412,2.66377 -1.515,3.8387 -4.734,12.15455 -5.5657,14.37823 l -0.7968,2.13048 -1.737,-3.24392 c -0.9554,-1.78415 -2.1199,-3.74495 -2.5879,-4.35734 -0.8199,-1.07289 -0.8515,-1.0502 -0.8686,0.62297 -0.033,3.21611 -1.7093,11.46813 -2.8852,14.20163 -1.1597,2.69593 -2.3072,3.73866 -1.744,1.5848 0.4676,-1.78794 -0.8571,-5.60235 -2.9436,-8.47621 -1.0559,-1.45441 -2.1053,-2.638 -2.332,-2.63018 -0.2267,0.008 -2.2241,2.57567 -4.4387,5.70633 -5.9115,8.35672 -6.6805,9.21149 -7.3748,8.19734 -0.3145,-0.45929 -0.8666,-1.83716 -1.227,-3.06193 -0.8265,-2.80879 -0.806,-2.78663 -1.7374,-1.87561 -0.4286,0.4192 -3.9327,3.38691 -7.7869,6.59492 -3.8542,3.208 -6.9183,5.9221 -6.8091,6.03132 0.1092,0.10922 5.6682,0.42872 12.3533,0.71 33.6703,1.4167 52.1062,3.07548 57.737,5.19493 7.7031,2.89944 13.721,8.38058 18.5725,16.91612 0.9915,1.74434 1.8057,3.32723 1.8094,3.51754 0,0.1903 -2.0068,0.46256 -4.4676,0.60501 -5.6509,0.32713 -6.1831,0.80067 -4.3998,3.91459 1.2426,2.1696 1.3748,3.082992 1.5513,10.719502 l 0.193,8.347807 -2.5861,-3.33041 c -3.9303,-5.061411 -4.3387,-5.116432 -4.9598,-0.668214 -0.1628,1.165672 -3.0888,7.667156 -6.5021,14.447743 -3.4134,6.780588 -6.6769,13.522617 -7.2522,14.982291 -2.3264,5.90208 -2.3883,12.576902 -0.1324,14.267897 1.5402,1.15445 4.9118,0.448117 8.1518,-1.707757 6.6251,-4.408268 15.9766,-14.465387 18.1371,-19.505593 1.1707,-2.730989 4.5937,-6.397567 7.9687,-8.535526 1.1421,-0.72353 2.1769,-1.315502 2.2996,-1.315502 0.1227,0 0.3297,2.317328 0.46,5.149617 0.1907,4.142942 0.5483,5.837055 1.8292,8.666182 1.4654,3.236254 1.7051,3.488245 3.0077,3.161309 2.5425,-0.638124 6.9834,-3.074806 9.1775,-5.035586 1.182,-1.056356 2.5147,-1.920645 2.9616,-1.920645 1.2779,0 5.4464,3.093032 7.6804,5.698789 l 2.0348,2.373584 -3.9726,0.36388 c -2.185,0.200134 -4.0968,0.487967 -4.2484,0.639627 -0.1517,0.151655 0.4922,1.636559 1.4309,3.29978 2.1016,3.723886 2.1314,4.845695 0.1757,6.619441 -1.8884,1.712623 -6.0385,4.386945 -6.8079,4.386945 -0.3127,0 -0.5686,0.204921 -0.5686,0.455382 0,0.250455 2.191,0.748526 4.8688,1.106817 7.2001,0.963362 9.026,2.721865 9.0409,8.70685 l 0.01,3.310107 -1.6578,-2.614213 c -1.9514,-3.076921 -3.3555,-3.35313 -5.6876,-1.118808 -1.2485,1.196119 -2.2295,1.543766 -4.9017,1.737057 -2.6724,0.193303 -3.3409,0.430213 -3.3409,1.184017 0,1.338405 2.6273,3.682377 5.6018,4.997628 1.3969,0.617693 2.9734,1.602138 3.5032,2.187664 1.4145,1.562978 1.7233,4.535465 0.7205,6.935504 -0.9028,2.160729 -2.015,2.749044 -2.0548,1.086942 -0.013,-0.535838 -0.4907,-1.851078 -1.0619,-2.922755 l -1.0386,-1.948504 h -8.2631 c -8.2569,0 -8.2657,-0.0011 -11.8688,-1.843624 -3.3811,-1.728808 -3.7625,-1.804805 -6.1238,-1.220304 -8.5296,2.111332 -12.9981,4.982876 -15.281,9.819875 -2.0211,4.2824049 -4.6669,7.458867 -7.9531,9.5481363 -3.3692,2.14202922 -5.3405,2.48034515 -5.6401,0.96797215 -0.3149,-1.58923865 -1.5432,-2.35273485 -5.9335,-3.68809465 -2.1433,-0.6519304 -5.3632,-1.9248044 -7.1552,-2.8286096 -1.7921,-0.9038107 -5.505,-2.6177091 -8.2509,-3.8086682 -4.5966,-1.993648 -5.2736,-2.139123 -8.5374,-1.834349 -3.4077,0.318218 -3.6109,0.265035 -5.2496,-1.373573 -1.4494,-1.449431 -1.7045,-2.123452 -1.7045,-4.502497 0,-7.259696 3.5897,-27.396053 7.9028,-44.33021 2.0868,-8.193292 2.2199,-9.144451 1.6591,-11.86356 -0.6043,-2.929954 -2.6805,-7.70999 -3.5941,-8.274617 -0.6488,-0.400991 -8.5779,2.804866 -14.2287,5.752858 -6.3638,3.320005 -10.2104,5.950413 -12.6491,8.649837 -2.052,2.27122 -2.0594,2.297442 -1.6955,5.956877 0.2011,2.021583 0.5018,7.18292 0.6683,11.469628 l 0.3028,7.794015 -1.987,-3.61865 c -2.4024,-4.375387 -4.2797,-7.605637 -5.1222,-4.897041 -2.719,10.458139 -4.9181,21.609266 -9.645,28.00073 -0.3418,-4.185411 0.3649,-9.330795 -0.8362,-12.827394 -5.0508,6.375576 -11.9497,10.070689 -19.1737,13.004691 2.9203,-5.076426 6.4621,-10.174682 8.0163,-14.930255 -3.9345,4.03208 -8.0249,10.219251 -12.2772,11.69909 -2.2897,0.641069 -3.2988,0.606257 -7.7402,-0.267023 -3.754,-0.738116 -5.3985,-0.848329 -6.2064,-0.415956 -0.6045,0.323536 -3.1429,1.096913 -5.6409,1.71862 -7.51,1.869144 -11.6107,4.636003 -12.9686,8.750291 -1.6086,4.874126 1.4287,24.1890769 6.3388,40.310385 l 0.763,2.505219 14.7329,-0.214168 c 15.695,-0.228142 18.0611,0.05233 19.6559,2.32913 1.1354,1.620988 1.0517,3.312401 -0.2374,4.798775 -0.9217,1.062659 -1.4228,1.186361 -3.5275,0.870703 -2.2742,-0.340988 -2.5615,-0.23922 -3.9362,1.394517 -0.8156,0.969352 -1.483,1.562199 -1.483,1.317466 0,-0.244732 -0.3753,0.09097 -0.8341,0.745943 -1.3108,1.871455 -5.5798,3.228838 -10.1603,3.23062 -2.2195,0 -4.0358,0.182213 -4.0362,0.40295 0,0.555268 9.7509,3.527739 16.1305,4.916744 6.8863,1.499345 10.3592,3.661183 9.1151,5.674154 -0.2157,0.349116 -0.1022,0.429339 0.2766,0.19524 0.8567,-0.529492 0.8678,5.518998 0.016,8.90071 l -0.6264,2.487961 -1.2964,-2.798163 c -1.4446,-3.118051 -2.3405,-3.424913 -4.2944,-1.471009 -1.6841,1.68412 -5.5615,2.257091 -12.007,1.774308 l -4.8097,-0.360307 2.2269,1.048518 c 6.4705,3.046681 13.2174,8.713431 13.7914,11.583577 0.4001,2.000501 -0.1725,4.809854 -1.504,7.379318 -0.9313,1.797244 -4.7188,7.310063 -5.0222,7.310063 -0.08,0 0.105,-1.269701 0.4118,-2.821601 0.4576,-2.314321 0.4056,-2.973862 -0.2892,-3.668698 -0.7584,-0.758414 -1.0265,-0.754405 -2.5589,0.03786 -2.455,1.269534 -3.3338,1.114266 -5.2317,-0.924147 -3.9555,-4.248407 -6.5562,-4.600362 -6.5562,-0.887015 0,4.880835 -4.5673,10.17865 -12.1085,14.04515 l -1.8093,0.927654 z"
         id="path6872"
         sodipodi:nodetypes="csssssssscscssssscscsscsssssscccsssscsssssccccsccsssssccccssscssssssssscssscccssscccscsccsssssssscscccscssssscssssssccsssssccssssssccsccssssscsssscsssssscsssssssssccssssssscssssssccsssscsssssscssssssscssssssssssssscssssssssscsssscsssssccsssssscssssssssscssscssssscsscssscssssssssscssscssscsssssscsssscsssssssccssssscscscscssssssssssssssssscsccccccssssscsssssssccsssccssscsssssscssscc" /></g></g></svg>
