<?xml version="1.0" encoding="UTF-8" standalone="no"?>
<svg xmlns:dc="http://purl.org/dc/elements/1.1/" xmlns:cc="http://creativecommons.org/ns#" xmlns:rdf="http://www.w3.org/1999/02/22-rdf-syntax-ns#" xmlns:svg="http://www.w3.org/2000/svg" xmlns="http://www.w3.org/2000/svg" xmlns:sodipodi="http://sodipodi.sourceforge.net/DTD/sodipodi-0.dtd" xmlns:inkscape="http://www.inkscape.org/namespaces/inkscape" inkscape:version="1.0 (4035a4f, 2020-05-01)" sodipodi:docname="Logo Paris Football Club - 1970s.svg" viewBox="0 0 800 799.99927" height="799.99927" width="800" xml:space="preserve" id="svg833" version="1.1"><metadata id="metadata839"><rdf:RDF><cc:Work rdf:about=""><dc:format>image/svg+xml</dc:format><dc:type rdf:resource="http://purl.org/dc/dcmitype/StillImage"/><dc:title/></cc:Work></rdf:RDF></metadata><defs id="defs837"/><sodipodi:namedview inkscape:current-layer="g841" inkscape:window-maximized="0" inkscape:window-y="0" inkscape:window-x="0" inkscape:cy="389.11068" inkscape:cx="282.96369" inkscape:zoom="0.50363561" showgrid="false" id="namedview835" inkscape:window-height="900" inkscape:window-width="1440" inkscape:pageshadow="2" inkscape:pageopacity="0" guidetolerance="10" gridtolerance="10" objecttolerance="10" borderopacity="1" bordercolor="#666666" pagecolor="#ffffff"/><g transform="matrix(1.3333333,0,0,-1.3333333,-18.897333,775.21197)" inkscape:label="logo" inkscape:groupmode="layer" id="g841"><g transform="matrix(1.0583336,0,0,1.0583336,-0.82676225,-33.915686)" id="g973"><path style="fill:#3764a4;fill-opacity:1;fill-rule:evenodd;stroke:none;stroke-width:0.1" d="m 297.637,581.409 c 156.527,0 283.465,-126.938 283.465,-283.464 0,-156.526 -126.938,-283.4645 -283.465,-283.4645 -156.526,0 -283.464,126.9385 -283.464,283.4645 0,156.526 126.938,283.464 283.464,283.464 z" id="path849"/><path style="fill:#ffffff;fill-opacity:1;fill-rule:evenodd;stroke:none;stroke-width:0.1" d="m 297.637,507.212 c 115.556,0 209.268,-93.712 209.268,-209.267 0,-115.555 -93.712,-209.2669 -209.268,-209.2669 -115.554,0 -209.2659,93.7119 -209.2659,209.2669 0,115.555 93.7119,209.267 209.2659,209.267" id="path941"/><path style="fill:#231f20;fill-opacity:1;fill-rule:evenodd;stroke:none;stroke-width:0.1" d="m 297.637,501.029 c 112.14,0 203.085,-90.944 203.085,-203.084 0,-112.141 -90.945,-203.0837 -203.085,-203.0837 -112.139,0 -203.0827,90.9437 -203.0827,203.0837 0,112.139 90.9427,203.084 203.0827,203.084 z" id="path847"/><path style="fill:#ffffff;fill-opacity:1;fill-rule:evenodd;stroke:none;stroke-width:0.1" d="m 297.637,487.237 c -104.525,0 -189.29,-84.767 -189.29,-189.292 0,-104.525 84.765,-189.291 189.29,-189.291 104.526,0 189.293,84.765 189.293,189.291 0,104.526 -84.767,189.292 -189.293,189.292" id="path945"/><path id="path851" style="fill:#e83928;fill-opacity:1;fill-rule:evenodd;stroke:none;stroke-width:0.1" d="m 297.637,497.7 c 110.303,0 199.756,-89.452 199.756,-199.755 0,-110.302 -89.453,-199.7544 -199.756,-199.7544 -110.302,0 -199.7538,89.4524 -199.7538,199.7544 0,110.303 89.4518,199.755 199.7538,199.755 z m 0,-7.134 c 106.364,0 192.622,-86.258 192.622,-192.621 0,-106.363 -86.258,-192.62 -192.622,-192.62 -106.362,0 -192.619,86.257 -192.619,192.62 0,106.363 86.257,192.621 192.619,192.621"/></g><g transform="matrix(1.0583336,0,0,1.0583336,-0.82676225,-33.915686)" id="g937"><path id="path853" style="fill:#3764a4;fill-opacity:1;fill-rule:evenodd;stroke:none;stroke-width:0.1" d="m 451.604,198.821 c -32.6,-50.524 -89.382,-83.984 -153.967,-83.984 -64.585,0 -121.366,33.46 -153.965,83.984 h 307.932"/><path id="path855" style="fill:#3764a4;fill-opacity:1;fill-rule:evenodd;stroke:none;stroke-width:0.1" d="m 119.493,318.316 242.252,147.227 c 53.81,-35.797 85.22,-74.941 78.497,-153.365 -3.671,-42.838 -35.538,-88.035 -74.415,-123.957 5.793,14.004 11.013,29.443 10.964,44.222 -0.222,65.936 -72.298,103.285 -133.809,107.066 -40.136,2.467 -83.16,-6.965 -121.248,-24.662 -4.073,-1.892 -5.306,1.607 -2.241,3.469"/></g><g transform="matrix(1.0583336,0,0,1.0583336,-0.82676225,-33.915686)" id="g966"><g id="g919"><path d="m 219.841,501.483 -11.164,-4.51 -19.802,49.013 17.086,6.904 c 5.537,2.237 10.421,2.627 14.653,1.168 4.514,-1.501 7.87,-4.976 10.071,-10.422 2.218,-5.491 2.086,-10.322 -0.4,-14.494 -2.232,-3.753 -6.185,-6.775 -11.857,-9.067 l -5.242,-2.118 z m -15.842,39.211 5.226,-12.934 4.97,2.008 c 5.491,2.218 7.357,5.506 5.596,9.863 -1.723,4.266 -5.331,5.289 -10.822,3.071 l -4.97,-2.008" style="fill:#ffffff;fill-opacity:1;fill-rule:nonzero;stroke:none;stroke-width:0.1" id="path857"/><path d="m 283.348,515.787 -12.98,-2.057 -4.829,8.899 -18.709,-2.963 -1.988,-9.978 -12.763,-2.022 12.543,55.509 9.717,1.539 z m -22.611,16.043 -8.91,17.768 -3.128,-19.675 z" style="fill:#ffffff;fill-opacity:1;fill-rule:nonzero;stroke:none;stroke-width:0.1" id="path859"/><path d="m 330.095,515.009 h -13.949 l -13.29,19.089 v -19.089 h -11.967 v 52.863 h 19.163 c 5.775,0 10.413,-1.542 13.913,-4.626 3.5,-3.083 5.249,-7.489 5.249,-13.216 0,-4.209 -1.248,-7.856 -3.744,-10.939 -2.497,-3.084 -5.8,-4.92 -9.911,-5.507 z m -27.532,42.29 V 541.66 h 5.36 c 2.741,0 5.041,0.514 6.901,1.542 1.86,1.028 2.79,3.084 2.79,6.168 0,2.496 -0.71,4.441 -2.129,5.837 -1.419,1.395 -3.378,2.092 -5.874,2.092 h -7.048" style="fill:#ffffff;fill-opacity:1;fill-rule:nonzero;stroke:none;stroke-width:0.1" id="path861"/><path d="m 347.493,510.014 -11.85,2.519 10.991,51.708 11.85,-2.519 -10.991,-51.708" style="fill:#ffffff;fill-opacity:1;fill-rule:nonzero;stroke:none;stroke-width:0.1" id="path863"/><path d="m 391.506,512.111 c -1.721,-4.998 -4.61,-8.313 -8.667,-9.945 -4.055,-1.632 -8.629,-1.571 -13.719,0.182 -5.323,1.832 -9.005,4.783 -11.047,8.851 -2.041,4.068 -2.146,8.763 -0.314,14.085 l 11.386,-3.92 c -0.654,-1.898 -0.757,-3.7 -0.31,-5.407 0.538,-1.894 1.711,-3.152 3.515,-3.773 1.713,-0.589 3.285,-0.497 4.717,0.279 1.431,0.775 2.442,2.019 3.032,3.731 0.207,0.601 0.298,1.166 0.272,1.692 -0.092,1.534 -1.726,3.933 -4.898,7.2 -4.03,4.08 -6.648,7.078 -7.852,8.993 -2.422,3.941 -2.988,7.785 -1.698,11.534 1.531,4.443 4.462,7.393 8.795,8.852 3.929,1.339 8.186,1.22 12.767,-0.358 4.628,-1.593 7.946,-4.211 9.953,-7.853 2.006,-3.797 2.22,-7.986 0.642,-12.568 l -11.107,3.825 c 0.573,1.666 0.616,3.178 0.126,4.538 -0.49,1.359 -1.544,2.318 -3.164,2.875 -1.389,0.479 -2.665,0.53 -3.83,0.154 -1.319,-0.373 -2.21,-1.232 -2.672,-2.574 -0.701,-2.037 0.226,-4.607 2.78,-7.713 2.604,-2.812 5.199,-5.647 7.787,-8.505 2.968,-3.559 4.438,-6.731 4.411,-9.516 -0.014,-1.393 -0.316,-2.947 -0.905,-4.659" style="fill:#ffffff;fill-opacity:1;fill-rule:nonzero;stroke:none;stroke-width:0.1" id="path865"/></g><g id="g933"><path d="m 109.475,166.498 -8.521,13.636 -9.0903,-5.68 8.3253,-13.325 -9.0273,-5.642 -8.3265,13.326 -17.745,-11.09 -6.3808,10.212 44.8306,28.013 14.901,-23.848 -8.966,-5.602" style="fill:#ffffff;fill-opacity:1;fill-rule:nonzero;stroke:none;stroke-width:0.1" id="path867"/><path d="m 98.6609,111.705 c -5.2406,5.62 -7.7461,12.219 -7.5164,19.795 0.2301,7.576 3.1551,13.985 8.7754,19.226 5.6201,5.24 12.1991,7.695 19.7371,7.362 7.538,-0.332 13.928,-3.308 19.169,-8.928 5.308,-5.692 7.858,-12.266 7.649,-19.722 -0.209,-7.456 -3.159,-13.838 -8.85,-19.146 -5.656,-5.274 -12.237,-7.78 -19.743,-7.517 -7.507,0.261 -13.913,3.238 -19.2211,8.93 z m 32.2181,30.044 c -3.004,3.222 -6.724,4.806 -11.159,4.753 -4.435,-0.053 -8.281,-1.598 -11.538,-4.636 -3.258,-3.038 -5.086,-6.783 -5.484,-11.237 -0.397,-4.454 0.906,-8.291 3.91,-11.513 3.071,-3.294 6.86,-4.88 11.366,-4.761 4.299,0.127 8.114,1.743 11.442,4.848 3.33,3.104 5.173,6.815 5.532,11.131 0.358,4.316 -0.998,8.121 -4.069,11.415" style="fill:#ffffff;fill-opacity:1;fill-rule:nonzero;stroke:none;stroke-width:0.1" id="path869"/><path d="m 149.909,69.4551 c -6.445,4.1855 -10.473,9.9816 -12.082,17.3883 -1.61,7.4074 -0.322,14.3326 3.863,20.7776 4.186,6.445 9.976,10.418 17.371,11.919 7.394,1.501 14.314,0.159 20.759,-4.026 6.527,-4.239 10.592,-10.001 12.193,-17.2855 1.601,-7.2847 0.283,-14.191 -3.956,-20.718 -4.212,-6.4859 -9.991,-10.5093 -17.338,-12.071 -7.346,-1.5618 -14.283,-0.2231 -20.81,4.0156 z m 23.993,36.9459 c -3.695,2.399 -7.687,3.036 -11.977,1.912 -4.291,-1.124 -7.648,-3.554 -10.075,-7.289 -2.426,-3.7361 -3.293,-7.8127 -2.602,-12.2306 0.692,-4.4176 2.885,-7.8262 6.579,-10.225 3.777,-2.4528 7.837,-3.0758 12.181,-1.8692 4.14,1.1629 7.449,3.6531 9.929,7.4707 2.479,3.818 3.371,7.8645 2.674,12.1391 -0.696,4.275 -2.932,7.639 -6.709,10.092" style="fill:#ffffff;fill-opacity:1;fill-rule:nonzero;stroke:none;stroke-width:0.1" id="path871"/><path d="m 226.627,79.4965 -9.667,3.9058 -15.814,-39.1429 -11.165,4.5109 15.815,39.1426 -9.667,3.9055 3.989,9.8706 30.497,-12.321 -3.988,-9.8715" style="fill:#ffffff;fill-opacity:1;fill-rule:nonzero;stroke:none;stroke-width:0.1" id="path873"/><path d="m 262.688,43.9723 c -1.245,-5.3891 -4.022,-9.043 -8.333,-10.9606 -3.794,-1.6363 -8.505,-1.8047 -14.132,-0.5054 l -17.241,3.9804 11.892,51.5082 17.026,-3.9308 c 4.817,-1.1121 8.425,-3 10.824,-5.6641 2.799,-3.1078 3.67,-6.9508 2.613,-11.5293 -1.091,-4.7219 -3.873,-7.7461 -8.349,-9.0738 5.198,-3.1594 7.098,-7.7672 5.7,-13.8246 z m -9.122,23.8078 c 0.727,3.1476 -0.913,5.184 -4.92,6.1086 l -4.864,1.123 -2.296,-9.9433 4.364,-1.0075 c 4.34,-1.0023 6.912,0.2375 7.716,3.7192 z M 239.339,55.768 236.696,44.3215 242.92,42.8848 c 4.865,-1.1235 7.738,0.223 8.619,4.0379 0.881,3.816 -1.04,6.2687 -5.761,7.3589 l -6.439,1.4864" style="fill:#ffffff;fill-opacity:1;fill-rule:nonzero;stroke:none;stroke-width:0.1" id="path875"/><path d="m 313.014,25.4695 -13.135,0.459 -3.042,9.6563 -18.931,0.6613 -3.855,-9.4156 -12.914,0.4508 22.903,52.0957 9.833,-0.3434 z m -19.136,20.0633 -5.356,19.141 -6.824,-18.716 z" style="fill:#ffffff;fill-opacity:1;fill-rule:nonzero;stroke:none;stroke-width:0.1" id="path877"/><path d="m 349.288,31.1352 -27.701,-3.8934 -7.357,52.3488 11.924,1.6758 5.855,-41.6605 15.777,2.2171 1.502,-10.6878" style="fill:#ffffff;fill-opacity:1;fill-rule:nonzero;stroke:none;stroke-width:0.1" id="path879"/><path d="m 383.646,40.0387 -26.889,-7.7106 -14.571,50.8157 11.575,3.3187 11.596,-40.4406 15.314,4.3914 2.975,-10.3746" style="fill:#ffffff;fill-opacity:1;fill-rule:nonzero;stroke:none;stroke-width:0.1" id="path881"/><path d="m 448.103,92.4258 c 1.174,-6.0477 0.69,-11.6692 -1.455,-16.8633 -2.198,-5.3953 -5.903,-9.5973 -11.118,-12.6078 -6.74,-3.891 -13.796,-4.8848 -21.169,-2.9817 -7.373,1.9043 -13.005,6.2262 -16.896,12.9661 -3.818,6.6129 -4.721,13.5375 -2.711,20.7746 2.011,7.2363 6.322,12.7633 12.935,16.5823 5.468,3.157 11.068,4.397 16.8,3.721 5.731,-0.675 10.877,-3.201 15.437,-7.576 L 428.8,100.017 c -5.432,3.533 -10.67,3.844 -15.714,0.931 -3.9,-2.2507 -6.305,-5.4765 -7.215,-9.6757 -0.91,-4.1993 -0.228,-8.27 2.049,-12.2121 2.251,-3.8997 5.493,-6.5782 9.725,-8.0344 4.232,-1.4563 8.276,-1.0711 12.134,1.1558 5.129,2.9614 7.507,7.5555 7.133,13.7832 l 11.191,6.461" style="fill:#ffffff;fill-opacity:1;fill-rule:nonzero;stroke:none;stroke-width:0.1" id="path883"/><path d="m 487.836,103.671 -20.788,-18.7179 -35.373,39.2849 8.949,8.058 28.15,-31.265 11.84,10.661 7.222,-8.021" style="fill:#ffffff;fill-opacity:1;fill-rule:nonzero;stroke:none;stroke-width:0.1" id="path885"/><path d="m 503.753,149.468 c 4.506,-3.918 7.013,-8.384 7.52,-13.396 0.507,-5.013 -1.183,-9.754 -5.068,-14.224 -3.726,-4.285 -8.139,-6.659 -13.242,-7.119 -5.103,-0.461 -9.778,1.155 -14.027,4.848 l -26.265,22.832 7.9,9.087 25.323,-22.013 c 4.803,-4.174 8.826,-4.396 12.069,-0.665 3.211,3.694 2.415,7.628 -2.387,11.803 l -25.323,22.013 7.9,9.087 25.6,-22.253" style="fill:#ffffff;fill-opacity:1;fill-rule:nonzero;stroke:none;stroke-width:0.1" id="path887"/><path d="m 531.153,189.142 c 4.637,-3.014 7.12,-6.875 7.446,-11.582 0.238,-4.125 -1.216,-8.608 -4.364,-13.451 l -9.642,-14.836 -44.325,28.808 9.523,14.651 c 2.694,4.145 5.704,6.889 9.028,8.231 3.878,1.566 7.786,1.069 11.726,-1.492 4.064,-2.641 5.953,-6.292 5.668,-10.952 4.748,3.803 9.728,4.011 14.94,0.623 z m -25.491,-0.42 c -2.709,1.761 -5.184,0.917 -7.424,-2.53 l -2.721,-4.187 8.557,-5.561 2.44,3.755 c 2.427,3.735 2.143,6.576 -0.852,8.523 z m 6.415,-17.479 9.849,-6.402 3.481,5.356 c 2.721,4.186 2.44,7.346 -0.843,9.48 -3.284,2.134 -6.246,1.169 -8.887,-2.894 l -3.6,-5.54" style="fill:#ffffff;fill-opacity:1;fill-rule:nonzero;stroke:none;stroke-width:0.1" id="path889"/></g></g></g></svg>