<svg id="Layer_1" xmlns:rdf="http://www.w3.org/1999/02/22-rdf-syntax-ns#" xmlns="http://www.w3.org/2000/svg" xml:space="preserve" overflow="visible" height="567.43" viewBox="0 0 413.162 567.429" width="413.16" version="1.1" enable-background="new 0 0 413.162 567.429" xmlns:cc="http://creativecommons.org/ns#" xmlns:dc="http://purl.org/dc/elements/1.1/"><metadata id="metadata164"><rdf:RDF><cc:Work rdf:about=""><dc:format>image/svg+xml</dc:format><dc:type rdf:resource="http://purl.org/dc/dcmitype/StillImage"/><dc:title/></cc:Work></rdf:RDF></metadata>
<g id="g3">
<path id="path5" fill="#FFF" clip-rule="evenodd" d="M211.27,283.55c64.355,0,116.85,52.459,116.85,116.78,0,64.366-52.492,116.83-116.85,116.83-64.313,0-116.81-52.461-116.81-116.83,0.002-64.32,52.5-116.78,116.81-116.78" fill-rule="evenodd"/>
</g>
<g id="g7">
<path id="path9" fill="#2487BC" clip-rule="evenodd" d="M277.35,237.14c62.078,25.369,105.83,86.364,105.83,157.56,0,93.947-76.188,170.14-170.13,170.14-93.946,0-170.13-76.188-170.13-170.14,0-72.373,45.217-134.21,108.94-158.79l9.845,16.642,45.038,16.052,38.71-6.049,22.1-14.55,9.8-10.86zm-64.3,52.24c-58.159,0-105.32,47.164-105.32,105.32,0,58.16,47.164,105.32,105.32,105.32,58.158,0,105.32-47.164,105.32-105.32,0-58.16-47.16-105.32-105.32-105.32z" fill-rule="evenodd"/>
<g id="XMLID_1_">
<g id="g12">
<polygon id="polygon14" points="280.52,226.34,281.12,228.25,278.81,232.87,276.2,232.87,275.4,230.66,277.89,226.16" fill="#FFF"/>
<polygon id="polygon16" points="271.78,234.88,273.29,236.49,272.98,239.5,269.57,241.61,261.03,241.61,261.13,240.4,265.45,236.39,268.36,236.29,268.97,235.18" fill="#FFF"/>
<polygon id="polygon18" points="218.45,78.696,219.85,80.606,218.55,85.227,214.73,85.227,214.73,81.207,216.64,78.696" fill="#FFF"/>
<path id="path20" d="M217.24,19.787c1.24,2.08,1.91,4.15,2.21,6.23-0.29,1.05-0.71,2.11-1.41,3.17h-5.92l-0.33-1.02-0.979-0.59,1.75-3.53,1.26,0.13,0.91-4.39h2.513z" fill="#FFF"/>
<polygon id="polygon22" points="217.54,47.157,219.55,54.086,216.14,54.387,213.23,48.566,214.71,48.316,215.22,47.146" fill="#FFF"/>
<path id="path24" d="M219.95,55.196l1.11,21.19-1.11,0.05-1.6-6.88-2.41,0.1-2.31,7.94c-0.841,0.03-1.681-0.14-2.511-0.1-0.439-2.57-0.54-5.23-0.41-7.84,0.11-2.07,0.74-4.08,1.11-6.13h1.86l0.6,1.31h1.61l3.06-9.84,1,0.2z" fill="#FFF"/>
<path id="path26" d="M210.15,120.92c1.18-8.28,2.26-13.55,2.06-21.97l1.511-0.1-0.101,23.03c-2.01,6.1-2.89,11.7-3.819,17.8h-2.42c0.74-6.73,1.91-12.71,2.77-18.76z" fill="#FFF"/>
<path id="path28" d="M221.04,100.22c0.721,9.57,2.341,19.04,3.41,28.6,0.391,3.57,0.75,7.15,0.431,10.76h-3.62c-0.931-8.05-1.971-16.1-2.301-24.15-0.34-8.31,0.33-16.62-0.01-24.92l1.91,0.1c0.07,3.217-0.06,6.416,0.18,9.61z" fill="#FFF"/>
<polygon id="polygon30" points="226.78,152.52,226.78,153.63,221.46,153.63,219.95,152.12,220.05,147.8,224.77,147.9,226.78,149.91,226.78,151.32,223.56,151.37,223.48,152.49" fill="#FFF"/>
<polygon id="polygon32" points="224.37,156.44,224.37,161.66,211.72,161.66,208.2,158.65,209.31,155.42,218.14,155.5,219.85,156.55" fill="#FFF"/>
<path id="path34" d="M232.41,162.67l0.101,6.83h-3.521c-1.2-3.15-2.01-6.3-3.609-9.45v-3.41h3.51l0.34,2.18,1.53,0.47,1.65,3.38z" fill="#FFF"/>
<path id="path36" d="M202.58,182.65l1.71,2.61c-0.97,2.05-1.54,3.29-3.52,4.02h-1.91l-1.71-3.41,3.52-3.02,1.91-0.2z" fill="#FFF"/>
<path id="path38" d="M222.4,183.48c0.01,1.15-0.49,2.34-0.74,3.59l-7.229,0.1c-0.45-1.52-1.05-2.88-1.07-4.17-0.06-3.84,1.92-8.87,3.38-11.5h2.61c1.01,2.99,3.01,7.89,3.05,11.98z" fill="#FFF"/>
<polygon id="polygon40" points="239.24,197.52,239.34,198.82,218.95,198.92,219.15,197.32,222.97,195.83,224.07,195.61,224.47,194,230.3,194,230.6,195.81,237.43,195.81,237.53,194,243.56,194,243.56,196.61" fill="#FFF"/>
<polygon id="polygon42" points="244.26,202.14,243.96,202.84,240.71,204.33,239.64,205.25,219.45,205.25,219.05,206.86,213.62,206.88,212.21,205.18,183.6,205.05,183.6,202.84,185.91,201.64,212.82,201.64,213.33,200.53,218.88,200.55,219.45,202.12" fill="#FFF"/>
<path id="path44" d="M180.03,219.22l3.22,0.1c-0.94,3.41-2.99,6.8-3.32,10.76l-3.91,0.06-0.61-1.87c0.63-3.22,1.57-5.84,4.62-9.05z" fill="#FFF"/>
<path id="path46" d="M203.96,211.27l1.01,2.32-1.88,2.18-0.2,4.88-2.46-0.26-1.33-2.03-0.86,0.7,1.3,3.79-1.41,2.4-2.38,0.13-0.52-1.69-2.09,0.15-0.4,1.68-1.75-0.07c0.16-3.28,0.45-6.17,1.41-9.45,0.14-2.58,4.31-1.35,6.46-2.02,1.1-0.8,0.96-3.01,5.1-2.71z" fill="#FFF"/>
<polygon id="polygon48" points="222.74,222.58,212.8,222.71,212.78,223.5,219.42,223.67,219.4,224.18,209.56,224.18,209.61,221.52,211.12,220.53,218.67,220.37,218.46,220.03,211.53,219.91,211.52,219.01,222.21,219.01,222.29,220.33,220.77,220.42,220.62,220.98,222.67,221.64" fill="#FFF"/>
<path id="path50" d="M244.39,222.13l0.06,2.15-4.09-0.14c-1.49-3.95-9.71-8.81-17.89-12.87l-0.101-2.21h6.13c1.32,0.42,0.051,1.26,1.19,1.71,8.61,3.36,13.21,7,14.7,11.36z" fill="#FFF"/>
<polygon id="polygon52" points="258.42,223.63,259.12,229.36,257.92,231.57,254.1,231.57,251.99,225.64,253.4,222.53,256.91,222.43" fill="#FFF"/>
<polygon id="polygon54" points="254.5,242.41,256.11,247.33,254.5,249.04,253.6,249.04,250.79,246.03,250.59,244.32,251.69,242.51" fill="#FFF"/>
<polygon id="polygon56" points="243.06,249.24,245.26,253.36,240.64,256.17,238.74,256.27,237.23,252.46,241.15,248.84" fill="#FFF"/>
<polygon id="polygon58" points="171.86,246.29,173.25,249.7,172.55,251.35,168.23,251.25,167.08,247.74,167.83,244.92,170.49,244.92,171.01,245.9" fill="#FFF"/>
<path id="path60" d="M163.94,236.31c-1.61-4.72-3.21-7.04-5.23-10.86-0.46-1.81,3.29,0.61,5.13,2.01,1.18,1.85,2.25,3.42,2.62,5.53l-1.61,3.52-0.91-0.2z" fill="#FFF"/>
<polygon id="polygon62" points="217.54,237.59,224.47,237.49,224.57,238.3,222.77,239.24,221.76,240.4,219.35,240.4,217.89,239.16" fill="#FFF"/>
<polygon id="polygon64" points="221.16,255.67,221.46,257.98,219.85,260.39,218.85,260.39,213.73,255.87,214.43,253.86,219.65,253.76" fill="#FFF"/>
<polygon id="polygon66" points="196.65,238.5,196.05,241.41,193.34,241.51,192.81,240.08,195.03,239.74,194.94,238.6" fill="#FFF"/>
<polygon id="polygon68" points="195.52,250.99,192.9,256.62,187.88,256.62,187.3,253.26,188.08,250.99,189.86,250.75,190.99,249.94,194.21,249.89" fill="#FFF"/>
<polygon id="polygon70" points="203.98,252.36,205.49,254.16,204.69,256.17,205.29,256.88,204.19,259.09,201.88,259.09,200.07,256.07,201.67,252.36" fill="#FFF"/>
<path id="path72" d="M240.64,247.03c0.51,1.24-6.16,4.58-9.44,3.72-5.569-1.46-8.81-3.31-12.45-3.24-5.47,0.12-6.27,2.59-9.449,2.79-2.18,0.14-5.62-1.93-9.73-2.76-1.33-0.27-3.22,2.07-4.73,1.3l-2.81-3.21,0.51-1.6,3.29-1.14,2.73-1.68c2.84-0.06,6.02-0.1,8.29-0.71,2.56-0.69,4.18-1.95,6.979-1.7,3.23,1.61,4.641,3.69,6.4,3.81,1.37,0.09,4.78-2.02,7.56-2.11l3.311-0.1c5.7,1.45,6.28,1.74,9.54,6.63z" fill="#FFF"/>
<path id="path74" d="M217.24,19.787h-2.51l-0.91,4.39-1.26-0.13-1.75,3.53,0.979,0.59,0.33,1.02h5.92c0.7-1.06,1.12-2.12,1.41-3.17-0.3-2.08-0.97-4.15-2.21-6.23zm1.71,35.21l-3.06,9.84h-1.61l-0.6-1.31h-1.86c-0.37,2.05-1,4.06-1.11,6.13l-2.72-0.14,0.63-12.41,0.98-12.96-0.34-6.08c-2.84-5.33-4.85-7.98-2.34-12.24,0.52-0.88,1.28-1.51,2.22-2.63l1.26-4.46,2.61-5.2,0.67-12.11c0.09-1.6,2-1.54,2.069,0l0.37,9.17,0.96,4.08,2.88,3.74,2.181,5.76c2.81,2.23,3.81,7.67-0.91,9.96l0.2,7.89,0.85,13.02-2.33,0.15-1-0.2zm-2.81-0.61l3.41-0.3-2.011-6.93-2.319-0.01-0.511,1.17-1.479,0.25,2.91,5.82z"/>
<path id="path76" d="M259.12,229.36l-0.699-5.73-1.511-1.2-3.51,0.1-1.41,3.11,2.11,5.93h3.82l1.2-2.21zm19.69,3.51l2.31-4.62-0.6-1.91-2.63-0.18-2.49,4.5,0.8,2.21h2.613zm-60.36-154.17h-1.81l-1.91,2.51v4.02h3.82l1.3-4.62-1.4-1.91zm0.5,120.22l20.391-0.1-0.101-1.3,4.32-0.91v-2.61h-6.03l-0.1,1.81h-6.83l-0.3-1.81h-5.83l-0.4,1.61-1.1,0.22-3.82,1.49-0.2,1.6zm3.82,40.32l1.8-0.94-0.1-0.81-6.931,0.1,0.351,1.57,1.46,1.24h2.41l1.01-1.16zm1.68-110.42c-1.069-9.56-2.689-19.03-3.41-28.6-0.239-3.19-0.109-6.39-0.18-9.61l-1.91-0.1c0.34,8.3-0.33,16.61,0.01,24.92,0.33,8.05,1.37,16.1,2.301,24.15h3.62c0.32-3.61-0.04-7.19-0.43-10.76zm-0.08,32.84v-5.22l-4.52,0.11-1.71-1.05-8.83-0.08-1.11,3.23,3.521,3.01h12.653zm2.41-10.34v-1.41l-2.01-2.01-4.72-0.1-0.101,4.32,1.51,1.51h5.32v-1.11l-3.3-0.03,0.08-1.12,3.22-0.05zm5.63,11.35l-1.649-3.38-1.53-0.47-0.34-2.18h-3.51v3.41c1.6,3.15,2.409,6.3,3.609,9.45h3.521l-0.1-6.83zm8.74,86.17l-3.92,3.62,1.51,3.81,1.9-0.1,4.62-2.81-2.2-4.12-1.91-0.4zm-45.63,2.15l-1.31-1.1-3.22,0.05-1.13,0.81-1.78,0.24-0.78,2.27,0.58,3.36h5.02l2.62-5.63zm0.53-9.58l0.6-2.91-1.71,0.1,0.09,1.14-2.22,0.34,0.53,1.43,2.71-0.1zm23.37-17.74l-6.641-0.17,0.021-0.79,9.939-0.13-0.069-0.94-2.051-0.66,0.15-0.56,1.52-0.09-0.08-1.32h-10.689l0.01,0.9,6.93,0.12,0.211,0.34-7.551,0.16-1.51,0.99-0.05,2.66h9.84l0.02-0.51zm-0.54-23.12l-5.551-0.02-0.51,1.11h-26.91l-2.31,1.2v2.21l28.609,0.13,1.41,1.7,5.431-0.02,0.399-1.61h20.19l1.069-0.92,3.25-1.49,0.301-0.7-24.811-0.02-0.57-1.57zm1.35,42.06c-1.76-0.12-3.17-2.2-6.4-3.81-2.8-0.25-4.42,1.01-6.979,1.7-2.27,0.61-5.45,0.65-8.29,0.71l-2.73,1.68-3.29,1.14-0.51,1.6,2.81,3.21c1.51,0.77,3.4-1.57,4.73-1.3,4.11,0.83,7.55,2.9,9.73,2.76,3.18-0.2,3.979-2.67,9.449-2.79,3.641-0.07,6.881,1.78,12.45,3.24,3.28,0.86,9.95-2.48,9.44-3.72-3.26-4.89-3.84-5.18-9.54-6.63l-3.311,0.1c-2.78,0.09-6.19,2.2-7.56,2.11zm-56.39-15.15c-1.84-1.4-5.59-3.82-5.13-2.01,2.02,3.82,3.62,6.14,5.23,10.86l0.91,0.2,1.61-3.52c-0.37-2.11-1.44-3.68-2.62-5.53zm-8.49-7.64c2.2,1.55,4.76,4.33,10.73,5.74,2.09-5.65,3.73-9.44,6.05-12.29,2.55-3.12,4.58-5.9,6.53-10.15-0.29-2.17-0.13-4,0.09-5.9,0.13-1.07,1.14-1.7,1.43-2.69,0.37-1.27,0.08-2.47,0.72-3.6,1.59-2.79,4.7-3.76,7.22-7.04,4.14-9.51,7.33-18.37,9.86-31.39-2.02-1.08-3.86-2-4.06-4.91-0.16-2.24,1.91-6.14,4.02-6.3,1.4-0.11,2.39-0.42,4.87-0.57,3.07-16.29,4.91-32.91,3.96-50l-0.44-7.69,1.32-6.91,0.34-6.6,2.72,0.14c-0.13,2.61-0.029,5.27,0.41,7.84,0.83-0.04,1.67,0.13,2.511,0.1l2.31-7.94,2.41-0.1,1.6,6.88,1.11-0.05-1.11-21.19,2.33-0.15,1.41,21.59c0.86,2.6,1.7,6.11,1.72,9.34,0.011,1.93-0.529,3.38-0.81,5.54,0.27,16.5,1.229,32.36,4.18,47.79,1.97-0.15,6.96,0.11,7.521,4.79,0.22,1.8,0.79,3.72-4.101,7.39,0.34,9.8,2.69,20.23,9.46,32.71,5.74,5.19,8.61,10.58,6.851,16.3,3.34,10.23,6.04,11.77,9.649,17.4,2.58,4.04,3.431,7.18,5.24,12.19l21.24-11.88,4.03,4.53-9.19,12.76c62.27,26.03,106.04,87.51,106.04,159.2,0,95.24-77.23,172.48-172.48,172.48-95.24,0-172.48-77.24-172.48-172.48,0-72.37,44.61-134.35,107.83-159.94,0.58-0.34,1.79-0.63,2.51-0.98,0.41-1.47,0.41-3.07,0.16-3.98-0.27-1.01-0.24-0.57-1.02-1.8-0.52-2.47-0.27-4.11,0.05-6.47,0.13-0.95,0.52-1.73,1.05-2.76,1.43-0.28,3.18,0.33,4.21,1.05zm226.65,174.88c0-1.17-0.02-2.35-0.04-3.52-4.5,3.76-10.97,9.979-14.52,15.84-1.62,20.61-7.29,40.09-16.19,57.64-1.3,7.32-1.359,16.16,3.57,21.96,17.19-26.46,27.18-58.02,27.18-91.92zm-31.21,62.81c6.561-14.36,10.94-29.931,12.721-46.28-9.53-23.03-30.21-43.82-44.301-49.6-1.369-0.561-3.069-0.19-4.829,0.25,3.35,10.34,5.159,21.369,5.159,32.819,0,33.59-15.56,63.54-39.859,83.061,23.56,5.78,53.44-4.85,71.11-20.25zm-25.16-169.14c5.14,1.83,11.619,2.681,19.06,0.45-17.11-21.25-39.27-38.28-64.64-49.26l-7.601,6.53c0.46,1.54,1.05,3.06,1.84,4.51,0.48,0.88,1.051,1.74,1.71,2.57,18.82,8.39,35.67,20.42,49.63,35.2zm-9.09,64.97c8.16-16.061,9.561-47.33,3.301-65.881-11.391-11.339-24.58-20.89-39.101-28.16-15.34,1.1-31.84,4.37-46.45,12.26-5.71,3.08-12.52,7.57-17.14,12.62-0.67,0.729-0.83,2.51-0.85,4.08,43.989,1.319,81.27,29.33,96.229,68.39,1.51-0.81,3.04-1.41,4.01-3.31zm-0.52,41.36c0-56.859-46.11-102.97-102.98-102.97-56.859,0-102.97,46.11-102.97,102.97,0,56.87,46.11,102.98,102.97,102.98,56.87,0,102.98-46.11,102.98-102.98zm-42.73-158.21l-1.51-1.61-2.81,0.3-0.61,1.11-2.91,0.1-4.319,4.01-0.101,1.21h8.54l3.41-2.11,0.31-3.01zm-31.1,306.76c16.09-14.239,31.39-38.64,30.61-60.39-17.04,11.57-37.61,18.34-59.761,18.34-22.82,0-43.97-7.189-61.31-19.42,0.47,10.8,4.56,25.391,10.67,36.21,5.52,9.79,12.69,18.391,20.33,25.03,9.79,1.99,19.93,3.04,30.31,3.04,9.97,0,19.72-0.97,29.15-2.81zm22.37,12.4c-6.061-6.92-11.19-9.4-15.7-10.24-11.5,2.721-23.49,4.17-35.82,4.17-11.77,0-23.229-1.319-34.24-3.81-5.06,1.04-10.23,3.58-14.26,10.81,15.37,4.601,31.65,7.08,48.5,7.08,17.97,0,35.28-2.81,51.52-8.01zm-8.45-308.32l-1.61-4.92-2.81,0.1-1.1,1.81,0.199,1.71,2.811,3.01h0.899l1.61-1.71zm-11.66-23.05l-0.06-2.15c-1.49-4.36-6.09-8-14.7-11.36-1.14-0.45,0.13-1.29-1.19-1.71h-6.13l0.101,2.21c8.18,4.06,16.399,8.92,17.89,12.87l4.09,0.14zm-22.79-37.21c0.25-1.25,0.75-2.44,0.74-3.59-0.04-4.09-2.04-8.99-3.05-11.98h-2.61c-1.46,2.63-3.439,7.66-3.38,11.5,0.021,1.29,0.62,2.65,1.07,4.17l7.23-0.1zm-0.2,70.91l-0.3-2.31-1.51-1.91-5.22,0.1-0.7,2.01,5.12,4.52h1l1.61-2.41zm-7.84-136.1l0.101-23.03-1.511,0.1c0.2,8.42-0.88,13.69-2.06,21.97-0.86,6.05-2.03,12.03-2.77,18.76h2.42c0.93-6.1,1.81-11.7,3.82-17.8zm-4.49,166.41c0-0.989-0.07-1.989-0.3-2.479-2.2-4.72-9.65-11.65-16.75-16.76-11.24-8.1-26.12-13.65-41.16-12.4-18.73,8.44-35.43,20.58-49.17,35.49-2.05,9.72-3.19,21-2.23,32.149,1.25,14.45,6.65,29.15,13.02,35.141,14.15-40.3,51.85-69.53,96.59-71.14zm-3.64-34.13l-1.51-1.8h-2.31l-1.6,3.71,1.81,3.02h2.31l1.1-2.21-0.6-0.71,0.8-2.01zm-0.52-40.57l-1.01-2.32c-4.14-0.3-4,1.91-5.1,2.71-2.15,0.67-6.32-0.56-6.46,2.02-0.96,3.28-1.25,6.17-1.41,9.45l1.75,0.07,0.4-1.68,2.09-0.15,0.52,1.69,2.38-0.13,1.41-2.4-1.3-3.79,0.86-0.7,1.33,2.03,2.46,0.26,0.2-4.88,1.88-2.18zm-0.68-28.33l-1.71-2.61-1.91,0.2-3.52,3.02,1.71,3.41h1.91c1.98-0.73,2.55-1.97,3.52-4.02zm-21.04,34.06l-3.22-0.1c-3.05,3.21-3.99,5.83-4.62,9.05l0.61,1.87,3.91-0.06c0.33-3.96,2.38-7.35,3.32-10.76zm-10,30.38l-1.39-3.41-0.85-0.39-0.52-0.98h-2.66l-0.75,2.82,1.15,3.51,4.32,0.1,0.7-1.65zm-28.6,2.49l-6.8-0.31c1.33-2.85,2.8-7.14,3.76-10.33-25.21,11.78-47.03,29.6-63.6,51.6,5.41,1.21,12.59,1.11,18.82-0.8,13.1-14.86,29.01-27.2,46.9-36.17,0.43-1.69,0.73-2.94,0.92-3.99zm-32.61,227.79c11.25,1.62,22.56,0.74,32.96-3.37-23.49-19.53-38.45-48.979-38.45-81.91,0-10.1,1.41-19.88,4.04-29.14-2.27-0.36-4.74-0.25-7.25,0.55-11.3,3.62-32.93,21.39-41.37,37.88,1.45,23.99,8.49,46.47,19.84,66.16,8.703,5.59,19.99,8.36,30.23,9.83zm-37.257,11.83c2.23-6.36,3.73-13.53,3.79-20.23-11.58-20.21-18.74-43.279-20.15-67.89-2.27-4.87-5.66-9.67-14.28-13.27-0.04,1.42-0.06,2.85-0.06,4.279,0,36.14,11.36,69.64,30.7,97.11z"/>
</g>
<g id="g78">
</g>
</g>
<path id="path80" clip-rule="evenodd" d="M213.05,297.78c53.516,0,96.917,43.4,96.917,96.918,0,53.516-43.401,96.916-96.917,96.916-53.517,0-96.917-43.4-96.917-96.916,0-53.52,43.4-96.92,96.92-96.92zm0,11.74c-47.039,0-85.184,38.146-85.184,85.184,0,47.039,38.145,85.184,85.184,85.184,47.038,0,85.184-38.145,85.184-85.184,0-47.04-38.14-85.18-85.18-85.18z" fill-rule="evenodd"/>
<path id="path82" fill="#EA0D19" clip-rule="evenodd" d="M213.05,300.83c51.832,0,93.866,42.035,93.866,93.867s-42.034,93.865-93.866,93.865c-51.833,0-93.867-42.033-93.867-93.865s42.04-93.87,93.87-93.87zm0,5.63c48.722,0,88.234,39.514,88.234,88.234,0,48.723-39.513,88.234-88.234,88.234-48.722,0-88.235-39.512-88.235-88.234-0.01-48.71,39.51-88.23,88.23-88.23z" fill-rule="evenodd"/>
<path id="path84" clip-rule="evenodd" d="M279.84,439.56c-14.433,21.455-38.937,35.574-66.732,35.574s-52.299-14.119-66.732-35.574h133.46,0.001z" fill-rule="evenodd"/>
<path id="path86" fill="#2487BC" clip-rule="evenodd" d="M273.84,442.61h-121.47c14.615,18.545,36.882,29.473,60.737,29.473s46.12-10.93,60.73-29.47z" fill-rule="evenodd"/>
<path id="path88" clip-rule="evenodd" d="M135.97,379.7l111.2-64.229c23.637,16.73,32.409,39.01,32.664,61.557,0.148,13.158-3.256,27.16-10.398,39.707-4.886,8.584-11.522,16.297-19.968,22.016-2.883,1.953-5.578,0.91-3.143-2.611,9.849-14.246,5.085-33.553-2.859-42.313-11.798-13.01-27.525-19.139-48.911-20.314-17.69-0.973-36.145,2.273-57.461,9.303-0.737,0.242-1.527,0.004-1.918-0.906-0.36-0.87,0.15-1.85,0.8-2.22z" fill-rule="evenodd"/>
<path id="path90" fill="#2487BC" clip-rule="evenodd" d="M147.86,376.35c15.263-4.215,30.947-6.764,46.863-5.889,19.728,1.086,37.447,6.365,51.004,21.313,4.985,5.498,7.967,13.484,8.869,20.773,0.895,7.236-0.079,14.547-3.246,21.027,6.287-5.031,11.442-11.338,15.435-18.354,6.555-11.514,10.149-24.9,9.999-38.164-0.273-24.156-10.539-43.697-29.8-57.959l-99.12,57.25z" fill-rule="evenodd"/>
<path id="path92" d="M24.228,136.82c2.987,3.559,4.802,6.492,5.443,8.805,0.35,1.084,0.57,2.088,0.665,3.008,0.063,0.758,0.025,1.587-0.132,2.475l-0.462,1.185-0.672,0.808-1.024,1.211-2.983,2.503,9.533,11.356-4.973,4.174-29.623-35.27,8.32-6.984,0.333-0.279c1.354-1.137,3.33-1.363,5.937-0.675,1.292,0.293,2.753,1.093,4.384,2.398,1.631,1.3,3.385,3.07,5.254,5.3zm-4.957,3.93c-0.572-0.682-1.122-1.247-1.645-1.7-0.533-0.457-1.012-0.73-1.436-0.82-0.83-0.277-1.675-0.053-2.537,0.67l-2.128,1.787,6.699,7.98,2.128-1.787c0.697-0.585,1.038-1.344,1.018-2.272-0.027-0.94-0.723-2.22-2.099-3.86z"/>
<path id="path94" d="M62.024,147.47l-5.503,3.998-5.809-5.741-4.925,3.577,3.7,7.275-5.502,3.998-20.541-42.025,4.924-3.578,33.656,32.49zm-17.618-8.74l-9.291-9.325,5.982,11.729,3.309-2.4z"/>
<path id="path96" d="M80.265,136.66l-5.703,3.427c-0.561-0.46-1.132-1.022-1.703-1.668l-1.234-1.48-1.525-2.27-1.992-3.149-0.767-1.277c-0.218-0.363-0.477-0.691-0.783-0.979-0.363-0.373-0.701-0.677-1.019-0.909-0.353-0.355-0.708-0.503-1.069-0.456l-1.307,0.508-2.3,1.383,8.18,13.613-5.491,3.3-23.729-39.492,9.655-5.801c2.325-1.397,4.673-1.154,7.042,0.717,2.319,1.721,4.419,4.152,6.301,7.283,1.604,2.67,2.617,4.958,3.041,6.875,0.145,0.528,0.231,1.31,0.271,2.348l0.004,1.229,1.272,0.684c0.438,0.256,0.846,0.566,1.226,0.929,1.025,0.965,2.147,2.343,3.363,4.135l1.367,2.22,1.609,2.678c0.384,0.639,0.653,1.068,0.798,1.283,0.146,0.214,0.341,0.483,0.579,0.787l1.135,1.407,2.779,2.68zm-22.068-22.53c-0.735-1.224-1.469-2.038-2.191-2.425-0.741-0.243-1.45-0.155-2.128,0.252l-2.742,1.647,4.151,6.909,2.873-1.726c0.584-0.351,0.923-0.954,1.011-1.815,0.125-0.59-0.201-1.54-0.974-2.83z"/>
<polygon id="polygon98" points="89.349,132.26,83.317,135.21,63.12,93.797,69.152,90.855,89.349,132.26"/>
<path id="path100" d="M104.96,109.9l0.601,1.486,0.507,1.625c0.187,0.538,0.427,1.412,0.725,2.62,0.247,1.273,0.377,2.492,0.398,3.645,0.072,3.897-0.846,7.244-4.834,8.644-6.737,2.366-12.913-5.834-15.166-11.955l5.92-2.372c0.894,2.21,2.601,4.727,5.152,3.648,1.894-0.801,1.69-2.707,1.051-4.164-1.043-2.38-4.709-2.76-6.916-2.823-3.75-0.108-6.427-1.545-8.479-4.652-1.006-1.524-2.003-3.508-2.996-5.964-1.81-4.48-2.405-8.09-1.792-10.848,0.294-0.989,0.661-2,1.304-2.881,1.079-1.478,1.843-2.097,3.483-2.784,6.691-2.805,11.265,5.15,13.394,10.185l-5.671,2.332c-0.463-1.03-0.863-2.371-1.74-3.122-0.642-0.55-1.807-0.89-2.66-0.545-1.574,0.635-1.504,2.641-0.972,3.984,0.944,2.382,2.313,2.608,5.304,2.864,7.446,0.632,10.494,3.939,13.374,11.069z"/>
<polygon id="polygon102" points="129.74,80.97,120.05,83.386,121.73,90.112,129.92,88.071,132.65,99.043,124.47,101.08,128.46,117.12,122.22,118.67,111.07,73.97,127.01,69.997,129.74,80.97"/>
<path id="path104" d="M157.52,88.042c1.146,6.038,1.368,11.661,0.674,16.879-0.333,2.591-1.174,4.656-2.518,6.217-0.666,0.736-1.401,1.36-2.204,1.86-0.808,0.5-1.674,0.844-2.606,1.021-1.812,0.344-3.578,0.015-5.295-0.986-1.718-1.001-3.247-2.638-4.576-4.914-2.53-4.543-4.369-9.839-5.518-15.897-0.364-1.922-0.622-3.484-0.771-4.678-0.153-1.192-0.253-2.563-0.31-4.09-0.146-2.816-0.028-5.492,0.354-8.029,0.383-2.537,1.205-4.62,2.47-6.239,0.635-0.794,1.327-1.442,2.083-1.933s1.589-0.828,2.503-1.001c0.959-0.182,1.892-0.201,2.796-0.067,0.903,0.134,1.803,0.448,2.702,0.941,1.761,0.898,3.308,2.532,4.652,4.91,2.59,4.602,4.44,9.937,5.59,16.005zm-6.78,1.17c-0.399-2.104-0.784-3.8-1.155-5.068-0.368-1.277-0.798-2.365-1.279-3.264-0.812-1.594-1.609-2.653-2.381-3.192l-0.876-0.35-0.585-0.016-0.398,0.076-0.827,0.22-0.814,0.797c-0.453,0.708-0.802,1.984-1.047,3.842-0.083,0.711-0.053,1.895,0.088,3.532,0.165,1.485,0.438,3.203,0.808,5.154l0.236,1.398,0.215,0.981c0.147,0.772,0.383,1.686,0.717,2.729,0.331,1.054,0.656,1.95,0.976,2.689,0.083,0.185,0.16,0.36,0.235,0.524,0.073,0.155,0.173,0.347,0.303,0.574,0.187,0.397,0.448,0.853,0.782,1.358,0.32,0.54,0.801,1.027,1.439,1.454,0.324,0.149,0.62,0.251,0.896,0.293,0.277,0.053,0.553,0.053,0.839-0.001,1.105-0.209,1.838-1.001,2.192-2.385,0.354-1.383,0.505-2.992,0.464-4.816l-0.151-1.846-0.201-1.879-0.48-2.807z"/>
<path id="path106" d="M183.7,85.463c0.631,6.113,0.378,11.735-0.753,16.876-0.551,2.553-1.563,4.54-3.034,5.982-0.726,0.678-1.511,1.238-2.353,1.668-0.847,0.431-1.739,0.7-2.683,0.797-1.834,0.189-3.566-0.287-5.193-1.429-1.627-1.143-3.012-2.903-4.145-5.283-2.138-4.74-3.523-10.173-4.156-16.306-0.201-1.945-0.326-3.524-0.374-4.726-0.052-1.201-0.036-2.576,0.037-4.102,0.093-2.818,0.437-5.475,1.031-7.97,0.595-2.496,1.591-4.502,2.988-6.009,0.7-0.738,1.445-1.325,2.239-1.75,0.795-0.425,1.654-0.691,2.579-0.786,0.972-0.101,1.903-0.041,2.792,0.169s1.758,0.599,2.612,1.166c1.68,1.043,3.083,2.802,4.221,5.285,2.13,4.795,3.53,10.268,4.17,16.412zm-6.86,0.594c-0.22-2.13-0.46-3.853-0.723-5.147-0.259-1.305-0.595-2.425-0.999-3.361-0.675-1.657-1.38-2.78-2.104-3.382l-0.844-0.422-0.582-0.064-0.403,0.042-0.842,0.149-0.878,0.726c-0.511,0.667-0.967,1.91-1.368,3.74-0.143,0.701-0.213,1.884-0.211,3.527,0.04,1.493,0.166,3.228,0.37,5.204l0.118,1.413,0.131,0.995c0.081,0.783,0.239,1.712,0.483,2.78,0.241,1.078,0.489,1.998,0.746,2.763,0.067,0.19,0.129,0.371,0.19,0.542,0.06,0.16,0.143,0.359,0.253,0.598,0.153,0.411,0.375,0.887,0.664,1.418,0.274,0.565,0.712,1.092,1.313,1.571,0.31,0.176,0.596,0.303,0.867,0.368,0.271,0.076,0.547,0.1,0.836,0.069,1.119-0.115,1.916-0.842,2.385-2.191,0.469-1.348,0.755-2.938,0.869-4.76l0.005-1.852-0.042-1.889-0.26-2.837z"/>
<polygon id="polygon108" points="206.43,73.496,200.24,73.604,200.85,108.36,194.38,108.48,193.78,73.717,187.6,73.824,187.41,62.517,206.23,62.188,206.43,73.496"/>
<path id="path110" d="M246.65,95.002c-0.333,4.654-1.227,7.931-2.676,9.829-1.229,1.624-2.638,2.602-4.229,2.955l-1.962,0.223-0.632,0.017-10.64-0.759,3.281-45.956,11.211,0.801c2.054,0.146,3.515,1.029,4.395,2.637,0.878,1.619,1.453,3.475,1.724,5.58l0.032,2.491,0.001,1.183-0.015,0.943c-0.169,2.374-0.606,4.344-1.314,5.891-0.114,0.396-0.379,0.896-0.794,1.489l-0.939,1.24,1.011,1.503c0.343,0.554,0.642,1.249,0.901,2.098,0.66,1.963,0.88,4.571,0.64,7.842zm-6.2-19.041c0.061-0.846-0.045-1.58-0.307-2.21-0.276-0.549-0.666-0.836-1.17-0.872l-3.48-0.248-0.438,6.13,3.48,0.249c0.224,0.016,0.467-0.06,0.731-0.218,0.219-0.108,0.46-0.403,0.713-0.882,0.27-0.47,0.42-1.123,0.48-1.949zm-0.42,17.407c0.088-1.228-0.043-2.067-0.394-2.518-0.447-0.623-1.073-0.958-1.872-1.015l-3.48-0.249-0.522,7.317,4.022,0.287c0.233,0.017,0.407-0.013,0.527-0.087l0.446-0.362c0.166-0.113,0.436-0.487,0.807-1.125,0.22-0.428,0.37-1.175,0.45-2.248z"/>
<path id="path112" d="M267.71,112.57l-6.719-1.064-0.048-8.168-6.012-0.953-2.527,7.76-6.718-1.064,15.191-44.241,6.012,0.952,0.83,46.769zm-6.28-18.637l0.024-13.164-4.063,12.524,4.04,0.64z"/>
<polygon id="polygon114" points="285.47,116.01,269.91,112.71,279.49,67.641,285.79,68.979,278.56,102.98,287.82,104.95,285.47,116.01"/>
<polygon id="polygon116" points="304.1,121.27,288.74,117.15,300.66,72.647,306.88,74.313,297.88,107.89,307.03,110.34,304.1,121.27"/>
<path id="path118" d="M341.78,116.76c-0.438,1.084-0.821,1.956-1.146,2.606l-1.061,1.926c-0.169,0.367-0.315,0.665-0.431,0.875-0.119,0.219-0.26,0.453-0.421,0.711l-1.128,1.709c-0.619,1.011-1.421,2.004-2.406,2.978-0.929,0.976-1.959,1.898-3.096,2.777-0.981,0.686-2.098,1.094-3.357,1.222-0.639,0.066-1.262,0.07-1.867,0.004-0.603-0.075-1.203-0.229-1.796-0.468-1.6-0.647-2.773-1.534-3.528-2.653-0.761-1.122-1.348-2.977-1.766-5.568-0.249-1.841-0.04-4.268,0.631-7.277,0.667-3.012,1.816-6.531,3.444-10.56,2.679-6.628,5.691-11.872,9.023-15.704,1.634-1.806,3.327-3.019,5.075-3.63,1.748-0.61,3.422-0.592,5.025,0.056,0.513,0.207,0.967,0.458,1.363,0.751,0.403,0.286,0.669,0.494,0.809,0.594,0.135,0.111,0.38,0.344,0.735,0.71,0.989,0.924,1.621,2.005,1.894,3.253,0.634,2.823,0.702,5.618,0.197,8.382-0.343,1.737-1.188,4.274-2.532,7.603l-5.927-2.395,0.418-1.036c0.175-0.431,0.32-0.841,0.44-1.217,0.116-0.376,0.215-0.962,0.298-1.765,0.072-0.473,0.083-0.893,0.039-1.256,0.017-0.384-0.021-0.801-0.111-1.25-0.186-0.878-0.682-1.48-1.482-1.804-1.237-0.5-2.59,0.203-4.063,2.119-1.63,2.086-3.194,4.992-4.702,8.724l-1.044,2.814c-0.121,0.297-0.225,0.568-0.305,0.804-0.083,0.245-0.157,0.505-0.218,0.782-0.078,0.27-0.218,0.883-0.42,1.828-0.231,0.866-0.377,1.633-0.437,2.301-0.077,0.649-0.069,1.355,0.032,2.122,0.098,0.776,0.271,1.393,0.514,1.859,0.269,0.455,0.622,0.776,1.06,0.953,0.77,0.311,1.554,0.137,2.351-0.524l0.76-0.608c0.34-0.32,0.765-0.862,1.278-1.637l1.607-2.821,0.358-0.67,5.92,2.4z"/>
<polygon id="polygon120" points="351.62,142.4,337.58,134.94,359.21,94.256,364.89,97.277,348.57,127.97,356.93,132.42,351.62,142.4"/>
<path id="path122" d="M378.24,142.84c-0.377,0.582-0.888,1.262-1.526,2.044l-2.059,2.216c-0.418,0.443-0.825,0.833-1.206,1.166-0.364,0.343-0.851,0.706-1.469,1.106-0.944,0.657-2.033,1.258-3.244,1.792-2.302,1.034-4.629,0.792-6.979-0.734-1.172-0.76-2.048-1.749-2.624-2.961-0.683-1.172-0.925-2.488-0.729-3.953,0.225-2.717,1.017-5.521,2.375-8.401l0.656-1.264,1.032-1.896,1.654-2.652,15.384-23.689,5.444,3.536-14.51,22.344-1.122,1.727c-0.254,0.39-0.436,0.679-0.553,0.887-0.112,0.199-0.351,0.636-0.718,1.298-0.363,0.665-0.655,1.437-0.865,2.313-0.423,1.465-0.114,2.529,0.917,3.199,0.984,0.639,2.079,0.474,3.273-0.49,1.204-0.97,2.672-2.792,4.407-5.465l14.511-22.344,5.445,3.536-15.385,23.689-2.12,2.97z"/>
<path id="path124" d="M397.58,158.47c-2.833,3.708-5.379,5.955-7.633,6.746-1.919,0.683-3.633,0.727-5.157,0.147l-1.762-0.891-0.537-0.333-8.477-6.477,27.976-36.607,8.931,6.825c1.636,1.25,2.373,2.79,2.225,4.617-0.154,1.835-0.693,3.703-1.623,5.61l-1.341,2.1-0.648,0.989-0.53,0.78c-1.444,1.891-2.892,3.297-4.333,4.202-0.313,0.269-0.809,0.541-1.481,0.808l-1.465,0.521,0.019,1.812c-0.018,0.651-0.149,1.397-0.398,2.249-0.52,1.99-1.77,4.29-3.76,6.9zm5.27-19.32c0.516-0.674,0.83-1.345,0.958-2.016,0.07-0.61-0.098-1.064-0.5-1.371l-2.771-2.119-4.535,5.988,2.771,2.119c0.179,0.136,0.425,0.197,0.732,0.22,0.242,0.019,0.604-0.087,1.08-0.346,0.48-0.25,1.77-1.81,2.27-2.47zm-9.91,14.32c1.151-1.507,2.227-4.18,0.146-5.703l-2.069-1.516-5.258,6.732,3.204,2.448c0.185,0.142,0.347,0.213,0.487,0.217l0.573-0.058c0.2-0.002,0.632-0.167,1.291-0.497,0.44-0.23,0.98-0.77,1.63-1.62z"/>
<path id="path126" fill="#2487BC" clip-rule="evenodd" d="M1.653,137.2l28.113,33.491,3.175-2.666-9.533-11.356,3.805-3.193,0.956-1.129,0.549-0.66,0.35-0.896c0.112-0.679,0.157-1.37,0.101-2.045-0.097-0.938-0.324-1.866-0.613-2.762l-0.008-0.023-0.006-0.023c-0.784-2.832-3.35-6.147-5.211-8.363-1.53-1.823-3.227-3.652-5.088-5.141-1.091-0.873-2.528-1.856-3.911-2.17l-0.021-0.004-0.02-0.005c-1.539-0.406-3.561-0.671-4.883,0.439l-0.332,0.279-7.423,6.22zm14.847-0.1c0.705,0.167,1.347,0.598,1.892,1.065,0.642,0.556,1.231,1.184,1.777,1.833,0.997,1.188,2.327,2.963,2.373,4.584,0.028,1.271-0.461,2.381-1.436,3.199l-3.027,2.542-8.207-9.778,3.027-2.541c1.036-0.85,2.282-1.3,3.601-0.89z" fill-rule="evenodd"/>
<path id="path128" fill="#2487BC" clip-rule="evenodd" d="M60.204,147.34l-31.942-30.842-3.33,2.42,19.494,39.885,3.562-2.588-3.7-7.274,6.541-4.752,5.809,5.742,3.566-2.59zm-13.999-8.46l-5.529,4.017-9.997-19.6,15.526,15.58z" fill-rule="evenodd"/>
<path id="path130" fill="#2487BC" clip-rule="evenodd" d="M41.431,107.62l22.521,37.48,3.48-2.091-8.18-13.613,3.392-2.038,1.532-0.595,0.14-0.019c0.764-0.101,1.443,0.208,1.985,0.724,0.385,0.29,0.743,0.623,1.079,0.967,0.377,0.357,0.698,0.765,0.966,1.211l0.76,1.265,1.976,3.124,1.482,2.206,1.184,1.42c0.3,0.338,0.615,0.671,0.945,0.985l3.653-2.196-1.729-1.664-1.188-1.474c-0.217-0.277-0.431-0.564-0.628-0.855-0.292-0.431-0.565-0.891-0.833-1.337l-1.604-2.67-1.352-2.195c-0.92-1.355-1.989-2.794-3.188-3.923-0.301-0.288-0.632-0.544-0.991-0.756l-1.869-1.004-0.006-1.907c-0.025-0.635-0.062-1.452-0.229-2.062l-0.008-0.029-0.006-0.028c-0.493-2.229-1.734-4.581-2.901-6.524-1.569-2.612-3.532-5.118-5.994-6.945l-0.014-0.011-0.014-0.011c-1.824-1.44-3.662-1.863-5.711-0.632l-8.65,5.19zm18.902,9.53c-0.124,1.098-0.6,2.067-1.569,2.649l-3.878,2.33-5.36-8.92,3.748-2.251c0.962-0.578,2.03-0.712,3.098-0.362l0.098,0.032,0.091,0.049c1.123,0.602,2,1.785,2.643,2.855,0.595,0.98,1.34,2.4,1.129,3.61z" fill-rule="evenodd"/>
<polygon id="polygon132" points="87.78,131.72,68.612,92.424,64.689,94.337,83.857,133.64,87.78,131.72" fill="#2487BC" clip-rule="evenodd" fill-rule="evenodd"/>
<path id="path134" fill="#2487BC" clip-rule="evenodd" d="M80.265,89.086c-0.69,3.184,0.562,7.191,1.743,10.115,0.791,1.957,1.721,3.992,2.887,5.757,1.852,2.804,4.188,4.03,7.534,4.126,2.79,0.08,6.687,0.627,7.957,3.525,0.95,2.167,0.811,4.667-1.669,5.716-2.875,1.215-4.984-0.87-6.208-3.225l-3.795,1.521c2.152,4.96,7.428,12.241,13.25,10.196,3.477-1.221,4.112-4.163,4.05-7.515-0.021-1.146-0.155-2.29-0.371-3.415-0.202-0.818-0.411-1.692-0.687-2.487l-0.006-0.017-0.499-1.597-0.583-1.442c-2.603-6.442-5.187-9.732-12.397-10.349-2.975-0.254-5.068-0.503-6.295-3.601-0.777-1.959-0.611-4.603,1.624-5.505,1.242-0.501,2.864-0.113,3.862,0.743,0.799,0.685,1.217,1.57,1.604,2.487l3.485-1.434c-0.659-1.436-1.418-2.845-2.297-4.145-2.088-3.089-5.12-5.993-9.085-4.331-1.458,0.611-2.057,1.117-2.989,2.395-0.541,0.73-0.858,1.61-1.117,2.477z" fill-rule="evenodd"/>
<polygon id="polygon136" points="128.32,80.115,126.15,71.419,112.5,74.824,123.07,117.25,127.04,116.26,123.04,100.23,131.23,98.189,129.06,89.493,120.88,91.534,118.63,82.531,128.32,80.115" fill="#2487BC" clip-rule="evenodd" fill-rule="evenodd"/>
<path id="path138" fill="#2487BC" clip-rule="evenodd" d="M142.02,107.54c1.022,1.749,2.374,3.448,4.146,4.481,1.4,0.815,2.889,1.15,4.486,0.847,0.79-0.15,1.523-0.442,2.205-0.864,0.724-0.451,1.371-1.009,1.943-1.641,1.345-1.567,1.975-3.572,2.235-5.594,0.729-5.49,0.366-11.081-0.664-16.507-1.032-5.443-2.737-10.796-5.433-15.648-0.988-1.749-2.337-3.509-4.163-4.44l-0.016-0.008-0.016-0.009c-0.721-0.396-1.493-0.688-2.309-0.809-0.803-0.119-1.609-0.092-2.406,0.059-0.748,0.143-1.444,0.419-2.083,0.833-0.694,0.45-1.289,1.034-1.8,1.673-1.277,1.636-1.926,3.66-2.232,5.689-0.389,2.576-0.478,5.197-0.343,7.806,0.049,1.328,0.132,2.672,0.301,3.992,0.192,1.538,0.471,3.083,0.759,4.604,1.02,5.386,2.7,10.715,5.38,15.525zm2.73-5.72c-0.303-0.46-0.592-0.942-0.83-1.439-0.114-0.202-0.226-0.411-0.328-0.628-0.079-0.174-0.16-0.359-0.244-0.543-0.394-0.91-0.723-1.862-1.019-2.805-0.298-0.932-0.564-1.887-0.748-2.849l-0.218-0.993-0.238-1.415c-0.329-1.73-0.625-3.48-0.819-5.231l-0.003-0.029c-0.1-1.17-0.221-2.607-0.082-3.782,0.175-1.333,0.488-3.179,1.223-4.326l0.072-0.112,1.13-1.106,1.166-0.31,0.564-0.107,0.92,0.025,1.197,0.477,0.111,0.077c1.187,0.828,2.103,2.343,2.75,3.611,0.586,1.097,1.022,2.289,1.365,3.479,0.494,1.687,0.854,3.453,1.182,5.178l0.004,0.023,0.479,2.841,0.208,1.943,0.154,1.88v0.035c0.038,1.709-0.076,3.473-0.5,5.134-0.416,1.627-1.386,2.919-3.11,3.247-0.418,0.079-0.839,0.082-1.257,0.004-0.411-0.066-0.808-0.21-1.186-0.384l-0.084-0.039-0.077-0.052c-0.7-0.48-1.33-1.07-1.77-1.81z" fill-rule="evenodd"/>
<path id="path140" fill="#2487BC" clip-rule="evenodd" d="M166.6,103.58c0.872,1.829,2.074,3.637,3.754,4.816,1.322,0.928,2.785,1.389,4.399,1.223,0.799-0.083,1.555-0.311,2.27-0.675,0.759-0.389,1.451-0.889,2.075-1.471,1.472-1.448,2.269-3.393,2.699-5.386,1.191-5.408,1.3-11.01,0.733-16.504-0.569-5.511-1.816-10.989-4.093-16.051-0.836-1.826-2.032-3.694-3.773-4.775l-0.015-0.009-0.015-0.01c-0.686-0.455-1.43-0.812-2.233-1.001-0.79-0.187-1.595-0.228-2.402-0.144-0.758,0.078-1.475,0.294-2.146,0.653-0.729,0.391-1.371,0.922-1.935,1.516-1.411,1.521-2.229,3.484-2.705,5.48-0.604,2.535-0.915,5.138-1,7.749-0.063,1.327-0.094,2.673-0.036,4.003,0.061,1.548,0.208,3.111,0.368,4.652,0.56,5.472,1.79,10.92,4.05,15.941zm0.74-13.967l-0.133-1.007-0.119-1.429c-0.181-1.752-0.328-3.521-0.374-5.283v-0.029c-0.001-1.174,0-2.617,0.236-3.776,0.288-1.313,0.755-3.125,1.583-4.207l0.082-0.106,1.22-1.007,1.188-0.21,0.571-0.059,0.915,0.101,1.152,0.577,0.104,0.087c1.112,0.925,1.898,2.513,2.435,3.831,0.491,1.142,0.825,2.366,1.066,3.582,0.35,1.722,0.56,3.512,0.741,5.259l0.002,0.023,0.238,2.872,0.043,1.954-0.005,1.887-0.002,0.035c-0.106,1.706-0.369,3.453-0.932,5.072-0.552,1.586-1.627,2.793-3.372,2.973-0.425,0.044-0.844,0.011-1.254-0.102-0.404-0.101-0.787-0.278-1.148-0.482l-0.081-0.046-0.073-0.058c-0.668-0.533-1.244-1.179-1.623-1.95-0.263-0.484-0.51-0.988-0.705-1.504-0.097-0.211-0.19-0.429-0.274-0.654-0.064-0.181-0.128-0.366-0.195-0.557-0.319-0.95-0.565-1.92-0.781-2.885-0.23-0.948-0.42-1.923-0.52-2.897z" fill-rule="evenodd"/>
<polygon id="polygon142" points="205.23,72.343,205.08,63.383,188.6,63.67,188.76,72.631,194.93,72.523,195.54,107.28,199.65,107.21,199.05,72.451,205.23,72.343" fill="#2487BC" clip-rule="evenodd" fill-rule="evenodd"/>
<path id="path144" fill="#2487BC" clip-rule="evenodd" d="M245.97,74.895l0.015-0.896-0.002-1.167-0.031-2.42c-0.234-1.78-0.723-3.519-1.581-5.101-0.742-1.357-1.933-1.921-3.448-2.029l-10.04-0.717-3.115,43.615,9.413,0.672,0.523-0.014,1.847-0.21c1.468-0.344,2.598-1.325,3.493-2.508,1.72-2.251,2.243-6.468,2.438-9.201,0.167-2.328,0.172-5.141-0.585-7.375l-0.006-0.017-0.006-0.017c-0.188-0.613-0.429-1.256-0.766-1.805l-1.466-2.18,1.432-1.89c0.217-0.31,0.512-0.763,0.616-1.123l0.024-0.084,0.036-0.08c0.79-1.66,1.11-3.643,1.24-5.453zm-6.13,4.923c-0.422,0.246-0.89,0.396-1.385,0.361l-4.65-0.332,0.604-8.47,4.651,0.332c0.977,0.07,1.701,0.655,2.135,1.515l0.02,0.039,0.017,0.04c0.36,0.871,0.458,1.808,0.392,2.743-0.059,0.817-0.213,1.692-0.604,2.416-0.29,0.52-0.66,1.07-1.19,1.356zm-0.36,17.852l-0.481,0.392-0.064,0.04c-0.372,0.23-0.799,0.291-1.229,0.259l-5.192-0.371,0.689-9.658,4.65,0.332c1.121,0.08,2.069,0.574,2.73,1.485,0.677,0.89,0.699,2.236,0.623,3.302-0.062,0.86-0.188,1.967-0.609,2.731l-0.014,0.023c-0.28,0.462-0.67,1.132-1.11,1.465z" fill-rule="evenodd"/>
<path id="path146" fill="#2487BC" clip-rule="evenodd" d="M266.51,111.19l-0.777-44.395-4.066-0.644-14.418,41.987,4.349,0.689,2.527-7.76,7.985,1.265,0.048,8.168,4.36,0.68zm-3.91-15.884l-6.75-1.069,6.79-20.928-0.04,21.997z" fill-rule="evenodd"/>
<polygon id="polygon148" points="284.56,114.62,286.43,105.86,277.17,103.89,284.4,69.882,280.4,69.033,271.3,111.8,284.56,114.62" fill="#2487BC" clip-rule="evenodd" fill-rule="evenodd"/>
<polygon id="polygon150" points="303.27,119.83,305.59,111.17,296.45,108.72,305.44,75.143,301.5,74.084,290.18,116.32,303.27,119.83" fill="#2487BC" clip-rule="evenodd" fill-rule="evenodd"/>
<path id="path152" fill="#2487BC" clip-rule="evenodd" d="M341.84,100.8c-0.066,0.637-0.153,1.356-0.344,1.973-0.135,0.42-0.285,0.839-0.449,1.249l3.748,1.514c0.801-2.017,1.631-4.263,2.029-6.289,0.482-2.641,0.399-5.295-0.189-7.916-0.229-1.05-0.764-1.915-1.548-2.647l-0.021-0.02-0.021-0.021c-0.188-0.194-0.403-0.424-0.612-0.6-0.257-0.187-0.508-0.38-0.768-0.564l-0.021-0.016c-0.338-0.25-0.714-0.448-1.104-0.605-1.395-0.563-2.784-0.53-4.199-0.036-1.792,0.626-3.33,1.915-4.58,3.296-3.817,4.39-6.651,10.007-8.817,15.37-1.348,3.337-2.607,6.855-3.387,10.375-0.467,2.097-0.902,4.7-0.616,6.851,0.246,1.518,0.702,3.792,1.577,5.083,0.714,1.058,1.833,1.751,2.997,2.222,0.481,0.195,0.98,0.327,1.487,0.391,0.538,0.059,1.078,0.05,1.617-0.006,1.014-0.103,1.943-0.421,2.78-1,1.043-0.808,2.031-1.685,2.941-2.641l0.012-0.012,0.013-0.013c0.84-0.831,1.613-1.748,2.231-2.757l0.01-0.017,1.13-1.713c0.131-0.209,0.261-0.423,0.381-0.643,0.142-0.258,0.27-0.533,0.393-0.8l0.018-0.039,1.07-1.942c0.229-0.462,0.444-0.937,0.648-1.416l-3.824-1.545-1.496,2.626-0.022,0.033c-0.413,0.624-0.905,1.329-1.452,1.843l-0.034,0.032-0.785,0.628c-1.023,0.849-2.257,1.221-3.534,0.705-0.702-0.284-1.246-0.794-1.63-1.443l-0.016-0.027-0.015-0.027c-0.36-0.689-0.541-1.486-0.637-2.25-0.105-0.794-0.129-1.599-0.036-2.395,0.075-0.826,0.249-1.653,0.462-2.454,0.129-0.604,0.254-1.25,0.424-1.843,0.066-0.295,0.147-0.585,0.245-0.87,0.097-0.287,0.207-0.57,0.321-0.851l1.044-2.814,0.006-0.016c1.245-3.082,2.81-6.373,4.861-9,1.27-1.651,3.2-3.392,5.433-2.49,1.18,0.477,1.929,1.41,2.191,2.657,0.096,0.472,0.149,0.958,0.138,1.441,0.07,0.483,0.04,0.972-0.03,1.452z" fill-rule="evenodd"/>
<polygon id="polygon154" points="351.13,140.81,355.34,132.9,346.98,128.46,363.3,97.762,359.69,95.843,339.16,134.45,351.13,140.81" fill="#2487BC" clip-rule="evenodd" fill-rule="evenodd"/>
<path id="path156" fill="#2487BC" clip-rule="evenodd" d="M366.05,137.42c0.216-0.893,0.53-1.771,0.973-2.582,0.241-0.434,0.479-0.874,0.724-1.309,0.183-0.321,0.39-0.638,0.591-0.947l1.121-1.727,13.871-21.36-3.477-2.258-14.736,22.691-1.632,2.618-1.008,1.85-0.643,1.239c-1.184,2.513-2.029,5.2-2.258,7.977l-0.003,0.029-0.004,0.029c-0.15,1.135-0.001,2.21,0.58,3.207l0.025,0.043,0.021,0.045c0.493,1.04,1.237,1.854,2.202,2.481,1.873,1.216,3.794,1.575,5.865,0.645,1.06-0.467,2.099-1.02,3.05-1.682l0.016-0.011,0.017-0.011c0.445-0.289,0.915-0.612,1.304-0.977l0.015-0.015,0.017-0.014c0.393-0.343,0.766-0.708,1.12-1.083l2.031-2.187c0.499-0.612,0.997-1.25,1.427-1.912l0.013-0.018,2.11-2.997,14.732-22.687-3.477-2.258-13.871,21.36c-1.224,1.885-2.895,4.322-4.654,5.74-1.394,1.125-3.064,1.589-4.649,0.56-1.58-1.02-1.89-2.7-1.39-4.46z" fill-rule="evenodd"/>
<path id="path158" fill="#2487BC" clip-rule="evenodd" d="M400.57,149.31l-0.027-2.626,2.234-0.793c0.35-0.14,0.847-0.356,1.131-0.601l0.066-0.057,0.073-0.046c1.548-0.971,2.901-2.454,4.006-3.896l0.503-0.74,0.64-0.976,1.303-2.04c0.78-1.617,1.328-3.338,1.479-5.132,0.125-1.542-0.562-2.666-1.768-3.589l-7.999-6.112-26.551,34.742,7.498,5.73,0.445,0.276,1.658,0.838c1.413,0.517,2.902,0.318,4.297-0.178,2.674-0.938,5.427-4.174,7.091-6.352,1.417-1.854,2.967-4.202,3.56-6.486l0.005-0.017,0.005-0.017c0.18-0.6,0.33-1.27,0.35-1.91zm4.39-11.95c-0.177,0.926-0.609,1.763-1.178,2.507-0.559,0.73-1.878,2.38-2.637,2.793-0.517,0.281-1.132,0.532-1.731,0.485-0.489-0.038-0.957-0.155-1.354-0.458l-3.701-2.828,5.952-7.858,3.709,2.834c0.775,0.593,1.063,1.485,0.953,2.439l-0.006,0.043v0.06zm-14.85,19.4l-0.617,0.063-0.074-0.002c-0.438-0.012-0.828-0.196-1.17-0.458l-4.146-3.168,6.688-8.564,2.987,2.189c2.594,1.9,1.762,5.178,0.092,7.362-0.523,0.685-1.235,1.539-2.007,1.948l-0.025,0.013c-0.48,0.24-1.17,0.58-1.73,0.62z" fill-rule="evenodd"/>
</g>
</svg>