<?xml version="1.0" encoding="utf-8"?>
<!-- Generator: Adobe Illustrator 13.0.0, SVG Export Plug-In . SVG Version: 6.00 Build 14948)  -->
<!DOCTYPE svg PUBLIC "-//W3C//DTD SVG 1.0//EN" "http://www.w3.org/TR/2001/REC-SVG-20010904/DTD/svg10.dtd">
<svg version="1.0" id="Ebene_1" xmlns="http://www.w3.org/2000/svg" xmlns:xlink="http://www.w3.org/1999/xlink" x="0px" y="0px"
	 width="336.382px" height="336.383px" viewBox="0 0 336.382 336.383" enable-background="new 0 0 336.382 336.383"
	 xml:space="preserve">
<path fill-rule="evenodd" clip-rule="evenodd" fill="#1C2C80" d="M168.133,0c92.708,0,168.249,75.579,168.249,168.221
	c0,92.574-75.541,168.162-168.249,168.162C75.539,336.383,0,260.795,0,168.221C0,75.579,75.539,0,168.133,0L168.133,0z"/>
<path fill-rule="evenodd" clip-rule="evenodd" fill="#FFFFFF" d="M168.133,8.91c87.827,0,159.388,71.55,159.388,159.311
	c0,87.693-71.561,159.311-159.388,159.311c-87.713,0-159.282-71.617-159.282-159.311C8.851,80.46,80.42,8.91,168.133,8.91
	L168.133,8.91z"/>
<path fill-rule="evenodd" clip-rule="evenodd" fill="#1C2C80" d="M168.19,47.953c66.258,0,120.277,54.018,120.277,120.268
	c0,66.191-54.02,120.258-120.277,120.258c-66.2,0-120.286-54.066-120.286-120.258C47.904,101.971,101.99,47.953,168.19,47.953
	L168.19,47.953z"/>
<path fill-rule="evenodd" clip-rule="evenodd" fill="#E10321" d="M277.472,157.694c-11.176,13.28-19.004,21.292-31.291,17.128
	c-11.809-3.961-20.125-11.177-29.436-36.124c-3.656,26.604,6.813,48.276,21.455,56.21c-0.594,8.373-4.834,16.633-10.564,23.34
	l-0.861-8.211c-3.598,4.613-7.244,8.748-10.891,11.801l-2.305,8.152c-4.078,2.363-8.211,3.809-11.914,4.078
	c-21.082,1.5-30.365-23.332-30.26-40.547c12.824-1.234,28.057,3.531,40.775,10.297c-2.9-23.656-16.422-37.866-37.234-42.268
	c0.756-7.723-0.105-18.24-0.967-26.02c-1.713-16.038-7.396-31.272-10.621-39.32c-6.115-15.551-7.723-26.067-15.608-26.44
	c-5.904-0.268-10.995,9.12-17.388,19.742c-4.611,7.778-10.133,15.177-13.779,24.19c-5.158,12.871-8.804,25.054-9.444,31.053
	c-1.13,6.278-1.771,17.11-1.991,23.818c-19.311,6.324-37.014,37.551-28.373,60.717c9.703-10.238,19.904-20.43,31.761-23.063
	c2.249,11.963,9.924,27.408,19.475,38.135c12.765,14.383,29.022,21.465,44.151,22.152c22.91,1.129,46.135-7.875,61.32-25.684
	l8.527-2.957c3.377-3.109,6.65-8.793,9.875-15.502l-8.535,3.168c3.865-8.096,6.393-17.32,7.195-27.627
	C264.009,197.053,279.462,178.803,277.472,157.694L277.472,157.694z"/>
<path fill-rule="evenodd" clip-rule="evenodd" fill="#FFFFFF" d="M122.478,140.479c12.65-9.091,21.866-9.292,36.805,2.517
	c-3.054-16.325-9.217-27.885-16.335-28.038C133.607,114.756,124.766,129.646,122.478,140.479L122.478,140.479z"/>
<path fill-rule="evenodd" clip-rule="evenodd" fill="#FFFFFF" d="M214.62,73.034c17.264,1.568,30.135,17.339,28.662,35.129
	c-1.531,17.741-16.871,30.976-34.191,29.454c-17.313-1.569-30.193-17.34-28.662-35.129C181.962,84.747,197.3,71.464,214.62,73.034
	L214.62,73.034z"/>
<path fill="#E10321" d="M214.667,72.558l0.014,0.001l0.033,0.006c2.443,0.226,4.801,0.731,7.041,1.482
	c2.25,0.756,4.387,1.761,6.379,2.979c10.238,6.262,16.699,18.19,15.623,31.177l-0.004,0.051v0.002l0,0
	c-0.787,8.978-5.064,16.816-11.336,22.221c-6.273,5.408-14.547,8.38-23.32,7.622l-0.021-0.002l-0.025-0.002h-0.002l-0.006-0.001
	h-0.006h-0.006l-0.047-0.007c-2.445-0.226-4.803-0.731-7.045-1.482c-2.256-0.756-4.395-1.76-6.391-2.978
	c-10.256-6.262-16.713-18.19-15.596-31.178c0.002-0.015,0.004-0.03,0.006-0.045l0.01-0.1v-0.001v-0.005l0.002-0.01
	c0.813-8.935,5.08-16.744,11.324-22.132c6.256-5.396,14.492-8.365,23.236-7.611l0.133,0.013H214.667L214.667,72.558z
	 M214.636,73.514l-0.033-0.001l-0.023-0.002l-0.131-0.013c-8.477-0.73-16.465,2.148-22.529,7.38
	c-6.068,5.235-10.215,12.826-11.002,21.51l0,0l-0.01,0.108l-0.002,0.031c-1.086,12.617,5.184,24.204,15.139,30.283
	c1.938,1.182,4.012,2.156,6.197,2.889c2.18,0.729,4.467,1.22,6.84,1.439l0.031,0.001l0.018,0.001l0,0l0.047,0.005h0.002
	c8.51,0.733,16.529-2.147,22.615-7.392c6.088-5.247,10.24-12.859,11.006-21.581l0,0l0.004-0.049
	c1.047-12.617-5.229-24.204-15.168-30.283c-1.932-1.183-4.004-2.156-6.186-2.889C219.28,74.224,216.999,73.733,214.636,73.514
	L214.636,73.514z M209.177,137.146L209.177,137.146L209.177,137.146L209.177,137.146z"/>
<path fill-rule="evenodd" clip-rule="evenodd" fill="#E10321" d="M191.091,80.996l-0.115,0.095h0.162
	C191.138,81.091,191.091,81.044,191.091,80.996L191.091,80.996z"/>
<polygon fill-rule="evenodd" clip-rule="evenodd" fill="#E10321" points="190.937,81.091 190.966,81.11 190.976,81.091 
	190.937,81.091 "/>
<path fill-rule="evenodd" clip-rule="evenodd" fill="#E10321" d="M233.95,121.751l-5.129,1.617l-3.598,1.12l-4.096-6.44
	l-1.971-3.091l1.971-4.21l3.359-7.043l4.334-1.168l5.129-1.368l4.594,9.272L233.95,121.751L233.95,121.751z M221.128,128.087
	l-4.287,5.368l-5.281-0.449l-6.709-0.556l-2.316-4.115l-2.564-4.459l2.564-2.89l4.633-5.273l4.393,0.412l5.77,0.507l3.799,5.876
	l1.971,3.091L221.128,128.087L221.128,128.087z M194.831,120.69l-8.037-3.608l-2.172-13.13l7.549-8.104l2.66,1.464l6.422,3.598
	l1.281,4.364l2.508,8.822l-2.508,2.938l-4.439,5.071L194.831,120.69L194.831,120.69z M193.749,83.732l1.082-0.564l7.703-3.904
	l0.641-0.354l8.385,3.704l2.516,1.119l-0.736,9.167l-1.779,0.967l-9.025,4.967l-0.295,0.152l-7.408-4.258l-1.924-1.062
	L193.749,83.732L193.749,83.732z M216.296,84.029l4.832-1.569l5.283-1.675l2.41,2.383l5.627,5.531l-0.795,10.238l-4.832,1.369
	l-4.881,1.32l-2.813-2.89l-5.627-5.732L216.296,84.029L216.296,84.029z M238.046,87.379l-2.219-0.105l-7.006-6.891l-1.281-1.32
	v-1.818c-2.02-1.225-4.145-2.182-6.412-2.89c-2.076-0.661-4.287-1.12-6.508-1.32c-1.041-0.105-2.076-0.105-3.061-0.105
	c-3.16,0-6.174,0.507-9.025,1.474c-0.295,0.047-0.592,0.152-0.889,0.249l0.439,2.736l-7.254,3.703l-1.924,1.015l-1.941-0.995
	c-5.848,5.312-9.799,12.813-10.537,21.378c0,0.153,0,0.306-0.047,0.45l2.314,1.32l2.221,13.636
	c-0.393,0.756-0.688,1.474-1.129,2.182c2.564,5.072,6.363,9.426,11.043,12.518c1.934,1.272,4.049,2.335,6.221,3.196l1.482-0.661
	l2.221-1.014l6.805,0.612l5.033,0.459l2.172,1.771c0.783-0.201,1.568-0.402,2.363-0.66c2.719-0.861,5.33-2.125,7.693-3.703
	c2.861-1.876,5.379-4.201,7.502-6.891l-0.842-3.195l4.393-11.302l3.004-0.258c0.203-0.909,0.299-1.876,0.404-2.785
	C243.923,100.556,241.894,93.312,238.046,87.379L238.046,87.379z"/>
<polygon fill-rule="evenodd" clip-rule="evenodd" fill="#1C2C80" points="294.259,245.186 282.19,260.957 283.108,237.195 
	278.323,233.492 265.29,250.182 258.907,258.383 264.056,262.412 265.29,260.852 275.329,247.607 274.524,271.1 279.349,274.91 
	299.415,249.215 294.259,245.186 "/>
<polygon fill-rule="evenodd" clip-rule="evenodd" fill="#1C2C80" points="93.397,291.264 96.995,286.756 81.329,274.037 
	83.74,271.09 98.976,283.426 100.268,284.506 104.124,279.674 98.976,275.492 81.492,261.33 80.784,262.191 81.329,262.879 
	79.99,263.178 73.119,271.627 64.908,281.77 73.119,288.422 87.712,300.219 91.684,295.281 75.053,281.818 77.674,278.545 
	93.397,291.264 "/>
<polygon fill-rule="evenodd" clip-rule="evenodd" fill="#1C2C80" points="75.215,255.271 72.373,255.865 53.808,259.885 
	52.898,258.707 62.497,239.023 57.081,232.047 44.363,258.498 51.933,268.258 72.373,263.914 79.244,262.432 80.038,261.445 
	75.215,255.271 "/>
<path fill-rule="evenodd" clip-rule="evenodd" fill="#1C2C80" d="M149.195,309.99l-5.799-0.861l5.799-8.258l0.584-0.861l1.607,0.219
	l3.655,10.564L149.195,309.99L149.195,309.99z M149.195,293.732l-3.866-0.584l-15.072,20.813l-2.42,3.32l2.42,0.326l6.651,0.965
	l2.842-4.133l9.445,1.34l7.771,1.129l1.666,4.719l8.966,1.234l-9.934-27.943L149.195,293.732L149.195,293.732z"/>
<path fill-rule="evenodd" clip-rule="evenodd" fill="#1C2C80" d="M201.788,308l-0.594,0.057l-7.35,1.072
	c0.213,1.607,0.105,2.689-0.324,3.225c-0.268,0.373-0.908,0.689-1.934,0.908c-1.016,0.27-3.004,0.584-6.057,1.016
	c-2.469,0.373-4.182,0.535-5.205,0.594c-0.967,0-1.715-0.115-2.201-0.432c-0.537-0.268-0.91-0.805-1.234-1.607
	c-0.268-0.758-0.537-2.152-0.805-4.135c-0.268-1.98-0.373-3.424-0.316-4.344c0.049-0.967,0.27-1.607,0.689-2.096
	c0.326-0.373,0.967-0.641,1.934-0.908c0.918-0.211,2.631-0.537,5.148-0.852c2.469-0.385,4.354-0.594,5.637-0.65
	c1.234-0.049,2.037,0.057,2.363,0.266c0.268,0.164,0.43,0.385,0.535,0.652c0.105,0.316,0.268,0.852,0.432,1.713l7.941-1.072
	c-0.115-0.746-0.162-1.178-0.162-1.34c-0.326-2.152-0.756-3.703-1.398-4.717c-0.641-1.082-1.607-1.771-2.898-2.154
	c-0.967-0.314-2.201-0.43-3.752-0.373c-1.559,0.059-3.971,0.326-7.348,0.805c-6.709,0.965-11.158,1.828-13.313,2.631
	c-2.143,0.805-3.482,2.086-3.971,3.855c-0.21,0.758-0.268,1.83-0.21,3.168c0.057,1.396,0.325,3.541,0.746,6.596
	c0.431,3.061,0.813,5.203,1.081,6.381c0.316,1.455,0.805,2.527,1.396,3.33c0.584,0.756,1.389,1.34,2.412,1.713
	c1.129,0.383,2.785,0.537,4.928,0.432c2.154-0.105,5.693-0.537,10.623-1.236c4.727-0.641,8.047-1.34,9.875-2.086
	c1.178-0.43,2.096-1.023,2.736-1.77c0.326-0.383,0.594-0.861,0.805-1.34c0.43-1.234,0.488-2.842,0.211-4.881
	C202.161,310.096,201.999,309.234,201.788,308L201.788,308z"/>
<path fill-rule="evenodd" clip-rule="evenodd" fill="#1C2C80" d="M124.774,298.498c-0.383,0.803-0.755,1.396-1.023,1.721
	c-0.326,0.326-0.699,0.479-1.072,0.537c-0.325,0.047-0.642,0-1.024-0.105c-0.373-0.162-1.444-0.594-3.215-1.396l-1.665-0.756
	l-8.584-4.02l2.736-5.848l5.848,2.68l4.345,2.039c1.665,0.803,2.689,1.291,3.063,1.502c0.315,0.162,0.593,0.383,0.803,0.65
	c0.269,0.316,0.374,0.699,0.374,1.178C125.311,297.109,125.09,297.75,124.774,298.498L124.774,298.498z M128.315,305.904
	c0.804-0.211,1.502-0.643,2.143-1.398c0.374-0.42,0.805-1.119,1.283-2.037c0.268-0.479,0.535-1.016,0.804-1.607
	c0.967-2.086,1.502-3.646,1.607-4.775c0.114-1.121-0.152-2.143-0.794-3.158c-0.488-0.65-1.024-1.186-1.617-1.617
	c-0.105-0.105-0.269-0.211-0.374-0.258c-0.804-0.488-3.271-1.666-7.348-3.598l-7.245-3.379l-10.354-4.832l-5.953,12.822
	l-5.148,11.053l5.148,2.412l2.087,0.967l2.852-6.068l10.249,4.775c0.42,0.221,0.804,0.373,1.119,0.535
	c0.86,0.432,1.503,0.758,1.771,0.969c0.487,0.324,0.756,0.641,0.86,1.07c0.164,0.432,0.105,0.918-0.057,1.561
	c-0.162,0.584-0.535,1.549-1.177,2.889l-0.594,1.293l7.196,3.33l1.015-2.201c0.966-2.096,1.56-3.492,1.771-4.191
	c0.162-0.689,0.162-1.34,0-1.98c-0.326-1.072-1.178-1.98-2.68-2.842C126.276,306.066,127.396,306.115,128.315,305.904
	L128.315,305.904z"/>
<path fill-rule="evenodd" clip-rule="evenodd" fill="#1C2C80" d="M226.784,294.324c-0.211,0.221-0.479,0.432-0.805,0.641
	c-0.373,0.164-1.445,0.643-3.215,1.398l-4.297,1.713l-6.172,2.527l-2.459-6.012l8.631-3.492l1.828-0.746
	c1.713-0.641,2.785-1.072,3.166-1.176c0.375-0.164,0.689-0.221,1.016-0.164c0.432,0,0.803,0.211,1.129,0.537
	c0.316,0.324,0.584,0.908,0.908,1.664c0.326,0.852,0.537,1.445,0.537,1.934C227.108,293.578,227.003,293.951,226.784,294.324
	L226.784,294.324z M237.194,297.379c-0.383-0.643-0.861-1.074-1.443-1.389c-0.223-0.105-0.49-0.221-0.758-0.268
	c-0.859-0.221-1.932-0.115-3.166,0.268c1.291-0.756,2.096-1.504,2.525-2.307c0.422-0.756,0.584-1.559,0.422-2.525
	c-0.105-0.91-0.479-2.25-1.234-4.02c-0.852-2.096-1.656-3.598-2.355-4.451c-0.756-0.803-1.711-1.338-2.842-1.502
	c-1.023-0.162-1.932-0.113-2.793,0.105c-0.805,0.27-3.158,1.178-7.082,2.736c-0.162,0.049-0.373,0.162-0.535,0.211l-16.738,6.756
	l-1.234,0.488l1.234,3.004l8.643,21.398l7.396-3.006l-2.469-6.219l3.703-1.502l6.756-2.68c1.561-0.641,2.584-1.025,3.063-1.129
	c0.535-0.105,0.967-0.105,1.396,0.057c0.373,0.211,0.746,0.594,1.072,1.129c0.326,0.527,0.805,1.492,1.34,2.842l0.535,1.283
	l2.363-0.908l4.939-2.039l-0.92-2.26C238.161,299.369,237.567,297.971,237.194,297.379L237.194,297.379z"/>
<path fill-rule="evenodd" clip-rule="evenodd" fill="#1C2C80" d="M265.722,269.053l-0.432-0.584l-7.186-8.805l-6.221,5.045
	l7.617,9.387c0.479,0.594,1.072,1.396,1.771,2.363c0.641,0.908,1.129,1.607,1.338,2.039c0.164,0.479,0.27,0.908,0.27,1.34
	c-0.059,0.697-0.479,1.396-1.178,2.191c-0.756,0.813-2.201,2.094-4.354,3.816c-2.68,2.145-4.508,3.484-5.57,3.914
	c-1.08,0.488-2.037,0.373-2.852-0.324c-0.584-0.479-1.77-1.77-3.541-3.914l-7.615-9.389l-1.283,1.072l-4.938,3.971l4.938,6.115
	l2.678,3.273c1.936,2.41,3.217,3.914,3.809,4.555c0.537,0.594,1.236,1.291,2.039,1.99c2.096,1.818,4.402,2.086,7.023,0.852
	c1.188-0.582,2.471-1.387,3.867-2.354c1.445-1.023,3.379-2.527,5.848-4.508c1.34-1.07,2.525-2.037,3.539-2.898
	c1.445-1.283,2.574-2.307,3.33-3.053c1.34-1.342,2.201-2.574,2.574-3.656c0.746-1.924,0.594-3.855-0.592-5.732
	C269.96,274.631,268.296,272.383,265.722,269.053L265.722,269.053z"/>
<path fill-rule="evenodd" clip-rule="evenodd" fill="#E10321" d="M72.047,66.681c-0.105,0.315-0.268,0.583-0.479,0.908
	c-0.22,0.268-1.023,1.178-2.363,2.574l-4.823,4.985l-3.005,3.168l-4.669-4.508l7.674-7.942l0.153-0.153
	c1.292-1.34,2.097-2.151,2.364-2.363c0.325-0.268,0.593-0.479,0.861-0.593c0.43-0.153,0.86-0.153,1.29,0.057
	c0.374,0.163,0.911,0.536,1.552,1.129c0.593,0.642,1.023,1.13,1.234,1.55C72.047,65.866,72.105,66.249,72.047,66.681L72.047,66.681z
	 M86.162,68.229c-1.666-1.606-2.794-2.574-3.378-3.005c-0.115-0.048-0.163-0.152-0.268-0.21c-0.547-0.268-1.024-0.431-1.561-0.488
	c-1.129-0.047-2.306,0.488-3.598,1.617c0.861-1.187,1.292-2.201,1.349-3.119c0.105-0.852-0.115-1.656-0.593-2.46
	c-0.488-0.803-1.396-1.885-2.795-3.225c-1.654-1.55-2.946-2.573-3.971-3.053c-1.072-0.487-2.086-0.535-3.272-0.268
	c-0.909,0.268-1.714,0.698-2.411,1.282c-0.269,0.221-0.699,0.594-1.283,1.187c-1.023,1.015-2.526,2.518-4.507,4.555l-5.578,5.79
	l-7.886,8.162l7.886,7.608l10.085,9.771l0.967,0.908l5.579-5.741l-4.832-4.67l7.837-8.153c1.177-1.177,1.923-1.923,2.354-2.249
	c0.431-0.325,0.86-0.478,1.291-0.478c0.431,0.048,0.909,0.211,1.445,0.584c0.535,0.324,1.34,1.022,2.363,2.038l1.015,0.966
	l0.115-0.057l4.449-4.613l0.967-1.015l-0.967-0.908L86.162,68.229L86.162,68.229z"/>
<path fill-rule="evenodd" clip-rule="evenodd" fill="#E10321" d="M59.339,92.048c-0.86-0.641-2.526-1.665-5.042-3.109
	c-0.651-0.326-1.35-0.699-2.039-1.129l-10.679-5.686l-3.752,7.081l10.67,5.686c0.641,0.373,1.502,0.861,2.526,1.444
	c0.967,0.594,1.665,1.072,2.038,1.397c0.316,0.324,0.584,0.698,0.746,1.129c0.221,0.642,0.105,1.445-0.21,2.469
	c-0.373,1.015-1.234,2.785-2.526,5.197c-1.607,3.004-2.784,4.938-3.589,5.799c-0.86,0.86-1.771,1.129-2.736,0.804
	c-0.756-0.221-2.307-0.91-4.775-2.202l-3.646-1.932l-7.034-3.752l-2.41,4.45l-1.398,2.632l1.398,0.745l9.281,4.938
	c0.048,0,0.105,0.058,0.163,0.058c2.622,1.388,4.344,2.248,5.091,2.623c0.804,0.372,1.665,0.697,2.688,1.022
	c2.623,0.861,4.881,0.211,6.805-1.933c0.861-1.024,1.779-2.249,2.688-3.704c0.21-0.372,0.431-0.746,0.699-1.176
	c0.746-1.341,1.77-3.11,2.89-5.206c1.99-3.751,3.33-6.488,3.971-8.202c0.698-1.77,1.024-3.225,0.967-4.401
	C62.076,95.053,61.157,93.388,59.339,92.048L59.339,92.048z"/>
<polygon fill-rule="evenodd" clip-rule="evenodd" fill="#E10321" points="36.325,166.822 41.903,166.986 42.172,158.564 
	36.325,158.402 26.881,158.028 15.885,157.646 15.56,166.067 26.881,166.497 36.325,166.822 "/>
<polygon fill-rule="evenodd" clip-rule="evenodd" fill="#E10321" points="36.325,178.785 26.881,179.914 22.583,180.449 
	21.139,168.861 14.488,169.666 18.401,201.205 25.052,200.402 23.607,188.756 26.881,188.439 36.325,187.264 43.081,186.449 
	42.058,178.086 36.325,178.785 "/>
<path fill-rule="evenodd" clip-rule="evenodd" fill="#E10321" d="M40.134,133.187c-0.115,0.432-0.383,1.771-0.919,4.076
	l-2.518,11.054l-0.372-0.105l-3.866-0.861l2.517-11.053c0.756-3.053,1.187-4.718,1.292-4.985l0.058-0.058
	c0.372-0.689,1.071-0.908,2.086-0.642c1.071,0.221,1.665,0.699,1.771,1.455C40.182,132.384,40.182,132.767,40.134,133.187
	L40.134,133.187z M29.827,135.119l-2.517,11.053l-0.43-0.105l-3.646-0.86l2.517-10.995c0.593-2.469,0.967-3.865,1.13-4.135v-0.047
	c0.43-0.651,1.071-0.861,2.037-0.593c1.015,0.21,1.55,0.64,1.665,1.339C30.631,131.254,30.421,132.709,29.827,135.119
	L29.827,135.119z M46.085,125.416c-0.86-0.86-2.306-1.56-4.401-2.037c-2.412-0.537-4.24-0.431-5.358,0.373
	c-0.163,0.047-0.269,0.162-0.384,0.269c-0.535,0.478-1.014,1.233-1.444,2.353c-0.105-1.388-0.478-2.411-1.233-3.157
	c-0.747-0.699-2.039-1.235-3.915-1.665c-0.909-0.22-1.723-0.374-2.468-0.374c-0.432-0.057-0.862-0.057-1.293,0
	c-0.909,0.154-1.713,0.536-2.411,1.178c-0.642,0.698-1.234,1.828-1.713,3.483c-0.221,0.756-0.813,3.062-1.723,6.976l-4.239,18.45
	l11.379,2.632l9.444,2.143l4.822,1.131l4.239-18.451c0.967-4.345,1.561-6.976,1.666-7.837c0.21-1.388,0.268-2.517,0.104-3.32
	C47.053,126.699,46.679,126,46.085,125.416L46.085,125.416z"/>
<path fill-rule="evenodd" clip-rule="evenodd" fill="#E10321" d="M320.868,172.775c-0.104-1.818-0.641-3.168-1.5-4.135
	c-1.178-1.176-3.217-1.875-6.164-2.086c-2.631-0.22-4.564,0.163-5.742,1.072c-0.754,0.535-1.291,1.291-1.664,2.305
	c-0.373,1.025-0.641,2.469-0.861,4.402c-0.105,0.967-0.316,3.111-0.689,6.383c-0.383,3.158-0.65,5.254-0.697,6.221
	c-0.115,1.283-0.326,2.086-0.594,2.469c-0.268,0.316-0.641,0.479-1.188,0.537h-0.42c-1.082-0.105-1.723-0.432-1.934-1.025
	c-0.162-0.43-0.219-0.908-0.219-1.607c0.057-0.697,0.16-2.736,0.371-6.115c0.279-3.215,0.43-5.148,0.545-5.74
	c0.049-0.584,0.27-1.072,0.537-1.445c0.211-0.326,0.584-0.479,1.119-0.594c0.383-0.047,0.861-0.047,1.396-0.047l0.537-7.723
	l-1.178-0.115h-0.756c-1.502-0.048-2.678,0-3.539,0.269c-0.957,0.325-1.715,0.966-2.355,1.933c-0.594,0.908-1.072,2.307-1.396,4.182
	c-0.326,1.828-0.641,4.775-0.91,8.699c-0.324,4.717-0.488,7.875-0.43,9.654c0,1.607,0.211,2.891,0.584,3.799
	c0.383,0.918,0.967,1.666,1.828,2.26c1.186,0.746,3.004,1.176,5.473,1.396h0.746c1.561,0.047,2.736-0.059,3.656-0.326
	c1.014-0.324,1.875-0.967,2.516-1.875c0.537-0.805,0.92-1.934,1.234-3.33c0.27-1.445,0.594-4.182,1.025-8.422
	c0.479-5.043,0.852-7.826,1.07-8.469c0.27-0.697,0.861-1.023,1.771-0.967c0.967,0.049,1.502,0.479,1.666,1.234
	c0.152,0.746,0.152,2.844-0.115,6.221c-0.164,2.842-0.316,4.66-0.479,5.521c-0.105,0.861-0.27,1.445-0.488,1.77
	c-0.211,0.27-0.422,0.432-0.699,0.49c-0.258,0.104-0.795,0.104-1.551,0.104l-0.535,7.723c0.641,0.059,1.014,0.105,1.234,0.105
	c2.412,0.162,4.135-0.162,5.205-0.967c1.072-0.852,1.818-2.469,2.355-4.822c0.324-1.561,0.65-4.182,0.918-8.047
	C320.927,178.191,321.032,174.545,320.868,172.775L320.868,172.775z"/>
<path fill-rule="evenodd" clip-rule="evenodd" fill="#E10321" d="M256.544,59.436c-0.314,0-0.641-0.104-0.957-0.325
	c-0.324-0.163-1.348-0.804-2.957-1.934l-0.967-0.641l-8.258-5.847l3.703-5.254l4.555,3.168l4.67,3.272
	c1.504,1.071,2.412,1.714,2.736,1.98c0.27,0.211,0.537,0.479,0.699,0.747c0.211,0.383,0.27,0.813,0.162,1.234
	c-0.162,0.431-0.43,1.023-0.918,1.723c-0.535,0.746-0.967,1.234-1.34,1.502C257.349,59.331,256.927,59.436,256.544,59.436
	L256.544,59.436z M260.038,67.914c-0.107-1.129-0.814-2.201-2.154-3.272c1.293,0.641,2.42,0.909,3.33,0.851
	c0.861-0.104,1.607-0.42,2.307-1.013c0.057-0.059,0.105-0.059,0.105-0.106c0.697-0.593,1.617-1.664,2.631-3.167
	c0.756-1.072,1.396-2.038,1.77-2.899c0.326-0.536,0.537-1.072,0.643-1.503c0.326-1.071,0.219-2.143-0.26-3.214
	c-0.113-0.27-0.219-0.479-0.383-0.748c-0.314-0.593-0.744-1.081-1.232-1.511c-0.432-0.374-1.504-1.12-3.168-2.308
	c-0.91-0.688-2.086-1.491-3.426-2.458l-8.537-5.962l-7.348-5.196l-15.129,21.56l6.602,4.612l3.809-5.474l9.283,6.498
	c1.34,0.909,2.248,1.607,2.621,1.98l0.162,0.163c0.268,0.325,0.432,0.641,0.479,1.013c0.059,0.433-0.047,0.921-0.314,1.504
	c-0.049,0.105-0.105,0.22-0.164,0.268c-0.268,0.594-0.803,1.397-1.502,2.412l-0.803,1.129l2.305,1.665l4.135,2.899l1.445-2.039
	c1.293-1.827,2.096-3.109,2.41-3.76C259.979,69.196,260.085,68.556,260.038,67.914L260.038,67.914z"/>
<path fill-rule="evenodd" clip-rule="evenodd" fill="#E10321" d="M278.382,92.153c-0.641-0.105-1.34-0.593-2.086-1.339
	c-0.756-0.747-2.152-2.364-4.191-4.882c-2.039-2.516-3.379-4.286-4.078-5.358c0-0.057-0.047-0.114-0.104-0.22
	c-0.861-1.34-0.91-2.574-0.059-3.703c0.059-0.048,0.115-0.105,0.162-0.211c0.488-0.536,1.293-1.292,2.422-2.144
	c2.029-1.722,3.531-2.688,4.393-3.005c0.908-0.325,1.77-0.162,2.574,0.432c0.699,0.535,2.41,2.458,5.102,5.73
	c2.354,2.9,3.75,4.776,4.285,5.638c0.488,0.804,0.652,1.607,0.488,2.248c-0.113,0.593-0.488,1.187-1.129,1.828
	c-0.594,0.642-1.607,1.608-3.109,2.785c-1.234,0.966-2.145,1.664-2.842,1.989C279.56,92.211,278.976,92.316,278.382,92.153
	L278.382,92.153z M287.769,96.45c0.326-0.221,0.594-0.488,0.92-0.756c3.156-2.574,5.311-4.555,6.324-6.01
	c1.502-2.144,1.455-4.508-0.162-7.187c-1.129-1.818-3.426-4.929-7.025-9.33c0-0.058-0.057-0.058-0.057-0.105
	c-3.541-4.344-6.115-7.303-7.674-8.746c-2.25-2.144-4.555-2.68-6.92-1.665c-1.281,0.536-3.004,1.665-5.148,3.272
	c-0.592,0.488-1.291,1.023-1.98,1.607c-0.859,0.698-1.664,1.34-2.42,1.99c-1.924,1.713-3.322,3.054-4.078,4.125
	c-1.502,2.144-1.443,4.507,0.164,7.196c0.756,1.225,2.096,3.053,3.914,5.464c0.967,1.187,1.99,2.47,3.168,3.971
	c0.43,0.479,0.859,1.016,1.232,1.503c2.959,3.54,5.045,5.952,6.441,7.244c2.258,2.144,4.555,2.679,6.977,1.655
	C282.89,100.038,285.032,98.594,287.769,96.45L287.769,96.45z"/>
<path fill-rule="evenodd" clip-rule="evenodd" fill="#E10321" d="M293.511,126.535c1.178-0.315,2.898-0.966,5.148-2.037l3.109-1.445
	l11.109-5.148l-3.377-7.292l-7.732,3.589l-6.373,3.005c-1.023,0.479-1.779,0.746-2.211,0.861c-0.42,0.104-0.805,0.048-1.176-0.115
	c-0.861-0.373-1.818-1.876-3.053-4.449c-0.594-1.177-0.967-2.201-1.188-3.005c-0.211-0.852-0.268-1.444-0.162-1.876
	c0.059-0.105,0.115-0.162,0.162-0.268c0.162-0.268,0.373-0.479,0.699-0.698c0.383-0.269,1.234-0.699,2.574-1.34l-3.273-6.977
	l-0.104-0.269c-1.072,0.432-1.877,0.804-2.518,1.131c-1.502,0.697-2.689,1.338-3.494,1.932c-1.875,1.446-2.574,3.378-2.094,5.79
	c0.43,1.99,1.559,4.985,3.434,9.015c1.561,3.32,2.844,5.684,3.867,7.023c0.316,0.374,0.594,0.699,0.908,1.023
	c0.805,0.747,1.617,1.282,2.527,1.55C291.31,126.804,292.38,126.804,293.511,126.535L293.511,126.535z"/>
<path fill-rule="evenodd" clip-rule="evenodd" fill="#E10321" d="M299.788,136.029c0.479-0.153,1.129-0.373,1.98-0.536
	c0.432-0.105,0.92-0.211,1.455-0.269c2.621-0.479,4.402-0.641,5.311-0.479c0.91,0.163,1.609,0.699,2.039,1.608
	c0.373,0.804,0.908,3.329,1.664,7.512c0.641,3.646,0.967,6.01,1.016,6.966c0.057,0.967-0.211,1.723-0.699,2.259
	c-0.373,0.373-0.967,0.747-1.818,1.014c-0.859,0.269-2.201,0.594-4.076,0.92c-1.561,0.268-2.738,0.373-3.436,0.373
	c-0.594-0.058-1.072-0.221-1.455-0.431c-0.104-0.105-0.209-0.162-0.258-0.269c-0.488-0.431-0.861-1.129-1.188-2.2
	c-0.326-1.015-0.756-3.11-1.281-6.278c-0.594-3.378-0.918-5.684-0.967-6.918C297.97,137.693,298.554,136.622,299.788,136.029
	L299.788,136.029z M300.056,163.607c0.488,0.048,1.072,0.048,1.713,0.048c1.781-0.048,4.076-0.315,6.977-0.852
	c4.076-0.698,6.928-1.454,8.535-2.2c2.307-1.129,3.426-3.226,3.322-6.336c-0.107-2.143-0.643-6.057-1.656-11.636
	c-0.967-5.579-1.771-9.445-2.422-11.482c-0.965-2.948-2.734-4.556-5.311-4.776c-1.77-0.153-4.611,0.115-8.584,0.814
	c-0.268,0-0.584,0.047-0.861,0.104c-3.693,0.698-6.268,1.397-7.77,2.086c-2.365,1.13-3.436,3.273-3.33,6.335
	c0.105,2.144,0.641,6.058,1.607,11.693c1.023,5.579,1.828,9.388,2.469,11.426C295.653,161.78,297.425,163.388,300.056,163.607
	L300.056,163.607z"/>
<path fill-rule="evenodd" clip-rule="evenodd" fill="#E10321" d="M107.195,49.568c-0.22,0.585-0.813,1.227-1.665,1.819
	c-0.918,0.641-2.736,1.723-5.579,3.273c-3.005,1.665-5.043,2.736-6.173,3.167c-1.501,0.641-2.735,0.431-3.646-0.594
	c-0.487-0.535-1.128-1.502-1.933-2.947c-0.488-0.908-0.909-1.722-1.234-2.411c-0.535-1.081-0.861-1.886-0.967-2.47
	c-0.162-0.918,0.163-1.722,0.91-2.42c0-0.048,0-0.048,0.057-0.048c0.698-0.642,2.842-1.991,6.488-3.972
	c3.225-1.828,5.311-2.899,6.278-3.273c0.908-0.324,1.664-0.372,2.306-0.056c0.535,0.219,1.071,0.697,1.617,1.396
	c0.526,0.699,1.225,1.876,2.19,3.542c0.757,1.396,1.235,2.469,1.455,3.167C107.455,48.383,107.455,49.023,107.195,49.568
	L107.195,49.568z M114.86,44.68c-0.584-1.34-1.396-2.842-2.354-4.612c-1.991-3.589-3.655-6.058-4.89-7.292
	c-1.819-1.875-4.183-2.249-7.082-1.129c-1.98,0.803-5.474,2.574-10.459,5.311c-1.129,0.65-2.144,1.234-3.11,1.828
	c-1.771,0.967-3.272,1.875-4.449,2.621c-1.024,0.652-1.828,1.188-2.469,1.618c-2.47,1.875-3.436,4.076-2.795,6.593
	c0.373,1.714,1.56,4.345,3.541,7.828c0.593,1.129,1.176,2.096,1.723,2.957c1.233,2.086,2.306,3.588,3.215,4.507
	c0.373,0.373,0.804,0.698,1.234,0.957c1.608,0.967,3.541,1.024,5.79,0.115c2.038-0.757,5.53-2.574,10.574-5.369
	c4.88-2.679,8.209-4.717,9.98-6.009c0.583-0.421,1.12-0.909,1.55-1.445c1.292-1.503,1.723-3.216,1.235-5.101
	C115.885,47.148,115.455,46.076,114.86,44.68L114.86,44.68z"/>
<path fill-rule="evenodd" clip-rule="evenodd" fill="#E10321" d="M216.257,23.072c-1.396-0.65-4.02-1.512-7.723-2.584
	c-5.264-1.502-8.803-2.354-10.572-2.621c-1.818-0.221-3.217,0-4.346,0.698c-1.396,0.852-2.518,2.679-3.32,5.568
	c-0.756,2.527-0.805,4.46-0.162,5.856c0.373,0.804,1.014,1.493,1.932,2.087c0.91,0.535,2.25,1.129,4.078,1.713
	c0.965,0.325,3.004,0.966,6.113,2.038c3.006,1.023,4.986,1.665,5.953,1.99c1.234,0.373,2.037,0.747,2.363,1.072
	c0.324,0.373,0.373,0.966,0.162,1.713c-0.324,1.023-0.756,1.56-1.396,1.665c-0.432,0.058-0.967,0-1.666-0.163
	c-0.641-0.152-2.631-0.699-5.846-1.607c-3.111-0.909-4.986-1.503-5.58-1.713c-0.535-0.22-0.965-0.488-1.291-0.804
	c-0.422-0.537-0.422-1.397-0.049-2.632l-7.455-2.144l-0.381,1.177c-0.537,1.828-0.699,3.225-0.584,4.183
	c0.105,1.023,0.535,1.933,1.34,2.736c0.746,0.757,2.037,1.503,3.809,2.259c1.77,0.698,4.508,1.607,8.314,2.679
	c4.557,1.34,7.676,2.144,9.389,2.47c1.607,0.314,2.898,0.373,3.855,0.162c1.025-0.162,1.885-0.594,2.584-1.292
	c0.967-1.014,1.818-2.68,2.459-5.042c0.537-1.819,0.756-3.273,0.65-4.346c-0.113-1.129-0.535-2.038-1.291-2.89
	c-0.697-0.698-1.713-1.292-3.004-1.885c-1.34-0.536-4.02-1.502-8.096-2.785c-4.832-1.56-7.512-2.469-8.049-2.794
	c-0.65-0.431-0.861-1.071-0.592-1.924c0.268-0.967,0.754-1.396,1.559-1.396c0.746,0,2.785,0.43,6.057,1.396
	c2.738,0.805,4.508,1.34,5.313,1.608c0.803,0.315,1.396,0.583,1.664,0.908c0.211,0.21,0.326,0.479,0.373,0.747
	c0,0.325-0.047,0.813-0.268,1.502l7.512,2.152l0.326-1.186c0.697-2.306,0.697-4.02,0.104-5.254
	C219.903,25.158,218.515,24.086,216.257,23.072L216.257,23.072z"/>
<polygon fill-rule="evenodd" clip-rule="evenodd" fill="#E10321" points="141.205,17.914 145.817,37.014 145.014,37.178 
	127.147,21.188 114.86,24.029 113.464,24.354 114.86,30.469 119.367,49.99 127.311,48.173 122.746,29.072 123.55,28.861 
	141.473,44.899 155.042,41.732 149.147,16.096 141.205,17.914 "/>
<polygon fill-rule="evenodd" clip-rule="evenodd" fill="#E10321" points="156.383,41.732 185.626,42.269 185.731,35.942 
	164.324,35.57 164.43,31.331 184.603,31.704 184.659,25.914 164.487,25.531 164.593,21.723 185.837,22.105 185.95,15.934 
	156.813,15.445 156.383,41.732 "/>
<polygon fill-rule="evenodd" clip-rule="evenodd" fill="#1C2C80" points="39.847,203.584 44.333,212.674 54.364,214.132 
	47.106,221.207 48.819,231.197 39.847,226.48 30.875,231.197 32.588,221.207 25.33,214.132 35.361,212.674 "/>
<polygon fill-rule="evenodd" clip-rule="evenodd" fill="#1C2C80" points="299.672,202.408 304.158,211.498 314.189,212.956 
	306.931,220.031 308.645,230.021 299.672,225.305 290.699,230.021 292.413,220.031 285.154,212.956 295.186,211.498 "/>
</svg>
