<?xml version="1.0" encoding="utf-8"?>
<!-- Generator: Adobe Illustrator 14.0.0, SVG Export Plug-In . SVG Version: 6.00 Build 43363)  -->
<svg version="1.2" baseProfile="tiny" id="Layer_1" xmlns:svg="http://www.w3.org/2000/svg"
	 xmlns="http://www.w3.org/2000/svg" xmlns:xlink="http://www.w3.org/1999/xlink" x="0px" y="0px" width="540px" height="600px"
	 viewBox="0 0 540 600" xml:space="preserve">
<path id="path2940" d="M351.316,450.164c-1.69-8.791-5.075-15.939-11.571-18.679c-3.113-1.313-6.119-1.816-8.894-1.816
	c-9.214,0.003-15.895,5.541-15.912,5.552l-0.099,0.083l0.058,0.117c0.009,0.021,4.804,9.85,9.097,19.315
	c-0.651,0.586-4.563,4.246-7.063,9.672c-1.896-3.739-3.665-7.094-4.942-9.24c-1.871-3.146-4.155-4.325-6.803-4.321
	c-3.919,0.008-8.62,2.488-14.308,4.622c-12.727,4.771-38.111,10.422-62.886,10.422s-50.156-5.65-62.887-10.422
	c-5.69-2.131-10.391-4.614-14.311-4.622c-2.645-0.004-4.929,1.169-6.795,4.321c-1.281,2.147-3.052,5.503-4.949,9.243
	c-2.501-5.428-6.41-9.089-7.062-9.675c4.292-9.467,9.087-19.295,9.097-19.315l0.057-0.117l-0.1-0.083
	c-0.016-0.011-6.699-5.549-15.914-5.552c-2.774,0-5.779,0.501-8.89,1.816c-6.496,2.738-9.88,9.888-11.572,18.679
	c-0.878,4.565-2.586,12.166-2.586,20.271c0,7.456,1.444,15.351,6.33,21.706c7.957,10.333,21.054,18.171,29.858,18.182
	c2.445,0,4.568-0.611,6.149-1.96c6.35-5.447,6.926-9.812,12.211-14.133l1.795,0.663c7.631,2.862,33.032,11.482,69.567,11.482
	c36.538,0,61.936-8.62,69.569-11.482l1.792-0.663c5.285,4.321,5.861,8.684,12.213,14.133c1.575,1.353,3.7,1.96,6.146,1.96
	c8.804-0.008,21.899-7.849,29.86-18.182c4.881-6.351,6.323-14.247,6.323-21.703C353.896,462.33,352.19,454.727,351.316,450.164z"/>
<path id="path2942" fill="#FFFFFF" d="M318.186,481.114c-0.765-1.556-5.967-12.141-10.021-18.688
	c-1.753-2.82-3.781-3.81-6.208-3.815c-3.603-0.006-8.082,2.248-13.515,4.219c-12.169,4.396-36.806,9.794-60.45,9.794
	c-23.645,0-48.284-5.398-60.454-9.794c-5.435-1.967-9.915-4.225-13.515-4.219c-2.429,0.007-4.454,0.992-6.207,3.815
	c-4.051,6.548-9.26,17.131-10.022,18.688c1.421,0.21,9.854,1.638,25.808,8.079c7.126,2.877,31.683,10.449,64.389,10.449
	s57.26-7.572,64.389-10.449C308.33,482.753,316.762,481.325,318.186,481.114z"/>
<path id="path2944" fill="#FFFFFF" d="M119.616,461.48c1.175-4.35,8.838-21.517,9.383-22.731c-0.242-0.247-1.517-1.465-4.44-1.469
	c-1.633,0-3.776,0.386-6.524,1.545c-3.756,1.534-7.472,16.884-8.616,22.72c1.115-1.396,2.806-1.941,4.542-1.941
	C116.061,459.603,118.238,460.396,119.616,461.48z"/>
<path id="path2946" fill="#FFFFFF" d="M145.806,496.654l3.891-4.803c-2.606-0.836-5.001-1.539-7.163-2.125
	C145.181,493.009,145.704,495.64,145.806,496.654z"/>
<path id="path2948" fill="#FFFFFF" d="M125.578,470.483l-0.065,0.259l-0.205-0.171c-2.173-1.816-5.655-3.241-8.942-3.241
	c-2.753,0.003-5.351,0.986-7.006,3.541c-0.735,1.131-1.065,2.471-1.065,3.954c-0.006,5.807,5.13,13.696,10.488,18.781
	c5.048,4.801,12.035,9.974,16.8,9.96c1.576-0.003,2.892-0.543,3.871-1.843c0.362-0.483,0.524-1.139,0.524-1.908
	c0.016-4.32-5.11-11.983-5.118-11.977c-1.869-2.266-3.165-3.938-3.165-6.317c0-1.426,0.461-3.076,1.51-5.243
	c0.741-1.533,1.526-3.152,2.332-4.796c-2.384-5.312-6.187-8.016-7.009-8.555C126.936,466.646,126.006,468.769,125.578,470.483z"/>
<path id="path2950" fill="#FFFFFF" d="M342.023,459.603c1.733,0,3.427,0.545,4.543,1.943c-1.145-5.838-4.857-21.188-8.614-22.722
	c-2.754-1.159-4.895-1.545-6.522-1.545c-2.915,0.004-4.199,1.203-4.444,1.464c0.521,1.167,8.206,18.379,9.384,22.736
	C337.739,460.396,339.922,459.603,342.023,459.603z"/>
<path id="path2952" fill="#FFFFFF" d="M310.177,496.653c0.101-1.02,0.623-3.646,3.271-6.927c-2.161,0.589-4.554,1.289-7.16,2.125
	L310.177,496.653z"/>
<path id="path2954" fill="#FFFFFF" d="M346.623,470.871c-1.655-2.555-4.254-3.538-7.005-3.541c-3.29,0-6.773,1.425-8.939,3.241
	l-0.209,0.168l-0.063-0.256c-0.428-1.714-1.354-3.835-2.947-7.553c-0.818,0.548-4.627,3.245-7.009,8.549
	c0.803,1.644,1.592,3.266,2.33,4.799c1.048,2.167,1.51,3.817,1.51,5.239c-0.004,2.381-1.302,4.053-3.154,6.309
	c0,0.011-5.145,7.669-5.131,11.989c0,0.771,0.161,1.425,0.526,1.908c0.977,1.3,2.292,1.84,3.871,1.843
	c4.763,0.014,11.749-5.159,16.8-9.96c5.355-5.085,10.496-12.976,10.485-18.778C347.688,473.344,347.357,472.002,346.623,470.871z"/>
<path id="path2956" d="M160.438,483.243c0.751,0.284,1.321,0.407,1.713,0.376c0.641-0.059,1.118-0.478,1.434-1.255l5.136-12.717
	c0.315-0.777,0.273-1.4-0.124-1.869c-0.243-0.286-0.751-0.607-1.523-0.959l0.269-0.669l9.188,3.713l-0.27,0.666
	c-0.835-0.296-1.438-0.432-1.808-0.401c-0.62,0.06-1.089,0.481-1.407,1.269l-5.137,12.715c-0.297,0.736-0.291,1.311,0.02,1.724
	c0.31,0.416,0.875,0.789,1.697,1.119l-0.269,0.669l-9.187-3.713L160.438,483.243L160.438,483.243z"/>
<path id="path2958" d="M173.316,488.141c0.517,0.062,0.917,0.021,1.202-0.127c0.295-0.157,0.521-0.547,0.677-1.173l2.015-8.085
	c0.139-0.556,0.136-0.962-0.008-1.228c-0.134-0.262-0.488-0.503-1.061-0.722l0.167-0.669l5.21,1.298l-0.492,1.974
	c0.603-0.552,1.294-0.962,2.073-1.224c0.79-0.27,1.596-0.301,2.42-0.097c1.182,0.296,2.019,0.826,2.511,1.598
	c0.501,0.771,0.562,1.922,0.18,3.454l-1.657,6.646c-0.154,0.616-0.15,1.042,0.011,1.273c0.17,0.23,0.493,0.44,0.97,0.626
	l-0.164,0.656l-6.458-1.609l0.164-0.656c0.517,0.024,0.886-0.028,1.107-0.154c0.221-0.123,0.406-0.486,0.557-1.086l1.66-6.66
	c0.157-0.626,0.21-1.112,0.164-1.455c-0.074-0.62-0.429-1.006-1.064-1.165c-0.475-0.117-0.957-0.054-1.446,0.196
	c-0.479,0.24-0.869,0.51-1.171,0.806l-1.834,7.356c-0.15,0.603-0.156,1.009-0.02,1.222c0.137,0.217,0.439,0.436,0.907,0.653
	l-0.164,0.66l-6.62-1.65L173.316,488.141L173.316,488.141z"/>
<path id="path2960" d="M200.333,481.128l-0.109,0.686c-0.495-0.06-0.876-0.064-1.146-0.014c-0.261,0.054-0.415,0.229-0.463,0.527
	c-0.011,0.074-0.001,0.216,0.031,0.426c0.042,0.204,0.075,0.353,0.097,0.45l1.254,5.705l0.219,0.034l2.644-4.484
	c0.127-0.213,0.236-0.435,0.329-0.663c0.101-0.228,0.162-0.405,0.184-0.545c0.062-0.393-0.032-0.657-0.28-0.802
	c-0.247-0.151-0.62-0.269-1.12-0.358l0.108-0.685l4.237,0.673l-0.108,0.681c-0.378-0.029-0.703,0.045-0.975,0.227
	c-0.271,0.173-0.563,0.518-0.879,1.039l-6.266,10.367l-0.71-0.11l-2.049-8.829c-0.145-0.62-0.29-1.206-0.438-1.751
	c-0.138-0.543-0.291-1.076-0.461-1.601c-0.177-0.53-0.328-0.873-0.454-1.024c-0.125-0.15-0.377-0.274-0.754-0.37l0.109-0.685
	L200.333,481.128L200.333,481.128z"/>
<path id="path2962" d="M210.816,483.826c1.245-1.122,2.681-1.628,4.31-1.514c0.929,0.063,1.786,0.37,2.572,0.915
	c0.784,0.543,1.368,1.265,1.75,2.162c0.285,0.676,0.456,1.538,0.513,2.587c0.03,0.494,0.035,0.866,0.018,1.126l-7.206-0.506
	c-0.015,1.138,0.1,2.131,0.346,2.979c0.444,1.595,1.36,2.439,2.75,2.538c0.662,0.046,1.302-0.117,1.92-0.49
	c0.376-0.222,0.852-0.609,1.427-1.162l0.622,0.446c-0.976,1.373-2.058,2.301-3.248,2.782c-0.77,0.308-1.639,0.425-2.605,0.356
	c-1.39-0.096-2.653-0.733-3.791-1.915c-1.139-1.178-1.624-2.97-1.456-5.372C208.89,486.589,209.583,484.942,210.816,483.826
	L210.816,483.826z M216.573,487.811c0.098-1.669,0.05-2.84-0.143-3.521c-0.194-0.679-0.648-1.043-1.366-1.095
	c-0.736-0.05-1.269,0.296-1.599,1.039c-0.32,0.746-0.549,1.85-0.689,3.312L216.573,487.811L216.573,487.811z"/>
<path id="path2964" d="M223.581,495.43c0.542-0.073,0.919-0.209,1.128-0.406c0.208-0.197,0.317-0.574,0.326-1.126l0.013-0.832
	l-0.135-7.707c-0.01-0.589-0.119-0.989-0.326-1.196c-0.207-0.21-0.61-0.345-1.211-0.41l-0.012-0.689l5.382-0.097l0.039,2.229
	c0.586-0.796,1.17-1.428,1.752-1.899c0.582-0.471,1.261-0.713,2.036-0.728c0.581-0.01,1.105,0.169,1.573,0.539
	c0.477,0.36,0.722,0.899,0.734,1.622c0.01,0.552-0.148,1.012-0.474,1.379c-0.317,0.363-0.738,0.552-1.263,0.561
	c-0.6,0.011-1.126-0.262-1.578-0.815c-0.443-0.557-0.753-0.83-0.928-0.827c-0.378,0.007-0.757,0.247-1.136,0.725
	c-0.371,0.47-0.548,1.136-0.533,2.002l0.094,5.356c0.016,0.939,0.16,1.525,0.432,1.764c0.281,0.226,0.827,0.367,1.641,0.426
	l0.011,0.679l-7.554,0.133L223.581,495.43L223.581,495.43z"/>
<path id="path2966" d="M238.888,495.221c0.509-0.108,0.874-0.281,1.095-0.513c0.229-0.244,0.315-0.685,0.259-1.329l-0.726-8.299
	c-0.05-0.57-0.186-0.956-0.407-1.159c-0.212-0.204-0.625-0.313-1.238-0.336l-0.061-0.69l5.349-0.465l0.177,2.024
	c0.39-0.719,0.911-1.329,1.563-1.831c0.658-0.513,1.411-0.806,2.256-0.879c1.213-0.104,2.178,0.126,2.894,0.69
	c0.726,0.566,1.157,1.638,1.294,3.207l0.598,6.823c0.056,0.636,0.196,1.036,0.425,1.199c0.236,0.164,0.61,0.256,1.122,0.277
	l0.059,0.676l-6.631,0.58l-0.059-0.676c0.496-0.146,0.83-0.314,0.998-0.503c0.169-0.19,0.226-0.596,0.172-1.212l-0.598-6.836
	c-0.057-0.646-0.164-1.119-0.32-1.432c-0.271-0.559-0.733-0.812-1.385-0.753c-0.487,0.04-0.922,0.259-1.305,0.654
	c-0.374,0.385-0.655,0.768-0.844,1.144l0.661,7.556c0.054,0.616,0.18,1.003,0.379,1.159c0.199,0.16,0.556,0.269,1.07,0.323
	l0.059,0.676l-6.796,0.596L238.888,495.221L238.888,495.221z"/>
<path id="path2968" d="M257.303,482.29c0.935-1.394,2.207-2.229,3.814-2.513c0.917-0.163,1.823-0.074,2.717,0.265
	c0.894,0.34,1.633,0.897,2.219,1.675c0.441,0.586,0.816,1.383,1.124,2.388c0.148,0.469,0.245,0.833,0.29,1.086l-7.113,1.255
	c0.261,1.107,0.612,2.041,1.057,2.806c0.815,1.44,1.909,2.039,3.282,1.798c0.654-0.116,1.236-0.429,1.745-0.939
	c0.312-0.309,0.679-0.799,1.103-1.475l0.71,0.283c-0.613,1.57-1.438,2.729-2.476,3.485c-0.673,0.482-1.487,0.811-2.441,0.978
	c-1.372,0.243-2.753-0.07-4.143-0.94c-1.39-0.869-2.293-2.488-2.712-4.862C256.101,485.433,256.375,483.672,257.303,482.29
	L257.303,482.29z M263.851,484.76c-0.309-1.641-0.639-2.77-0.99-3.38c-0.352-0.612-0.881-0.856-1.59-0.733
	c-0.726,0.13-1.159,0.596-1.3,1.396c-0.13,0.803-0.086,1.928,0.133,3.377L263.851,484.76L263.851,484.76z"/>
<path id="path2970" d="M271.715,486.975l0.762-0.203c0.619,1.235,1.366,2.031,2.242,2.377c0.874,0.34,1.693,0.407,2.46,0.2
	c0.702-0.188,1.178-0.48,1.425-0.883c0.244-0.409,0.296-0.872,0.158-1.391c-0.133-0.487-0.422-0.86-0.872-1.113
	c-0.246-0.132-0.616-0.249-1.11-0.345l-2.297-0.444c-1.209-0.239-2.129-0.604-2.757-1.095c-0.638-0.49-1.067-1.153-1.293-1.989
	c-0.284-1.061-0.159-2.074,0.375-3.037c0.53-0.975,1.461-1.641,2.79-1.994c0.579-0.154,1.22-0.224,1.923-0.2
	c0.701,0.012,1.131,0,1.291-0.044c0.224-0.063,0.367-0.147,0.433-0.259c0.071-0.127,0.116-0.28,0.133-0.467l0.603-0.163l1.06,3.956
	l-0.694,0.188c-0.507-0.857-1.129-1.489-1.868-1.895c-0.738-0.403-1.5-0.499-2.284-0.29c-0.606,0.164-1.015,0.453-1.227,0.873
	c-0.204,0.419-0.253,0.823-0.148,1.216c0.087,0.319,0.306,0.604,0.659,0.854c0.348,0.262,0.927,0.469,1.742,0.623l1.689,0.32
	c1.047,0.196,1.84,0.446,2.379,0.752c0.903,0.521,1.496,1.305,1.775,2.347c0.271,1.015,0.155,2.063-0.347,3.144
	c-0.496,1.069-1.48,1.801-2.95,2.194c-0.366,0.101-0.746,0.158-1.143,0.176c-0.385,0.028-0.873,0.022-1.467-0.021l-0.511-0.033
	c-0.187-0.019-0.302-0.024-0.351-0.021c-0.038,0-0.088,0.009-0.15,0.023c-0.15,0.043-0.27,0.143-0.352,0.296
	c-0.074,0.146-0.146,0.379-0.211,0.703l-0.655,0.173L271.715,486.975L271.715,486.975z"/>
<path id="path2972" d="M284.654,483.49l0.731-0.293c0.765,1.153,1.604,1.85,2.515,2.088c0.909,0.229,1.73,0.194,2.467-0.103
	c0.676-0.274,1.111-0.622,1.309-1.052c0.191-0.436,0.188-0.899-0.014-1.396c-0.19-0.469-0.523-0.802-1-0.999
	c-0.263-0.103-0.644-0.173-1.145-0.21l-2.334-0.16c-1.23-0.089-2.188-0.339-2.871-0.749c-0.691-0.407-1.199-1.015-1.525-1.819
	c-0.41-1.018-0.41-2.034,0.004-3.06c0.408-1.029,1.25-1.804,2.525-2.318c0.555-0.226,1.184-0.37,1.885-0.436
	c0.696-0.07,1.121-0.14,1.275-0.2c0.213-0.086,0.346-0.188,0.398-0.312c0.056-0.13,0.08-0.29,0.072-0.479l0.578-0.231l1.534,3.797
	l-0.666,0.271c-0.606-0.789-1.303-1.338-2.086-1.648c-0.781-0.313-1.55-0.314-2.302-0.014c-0.581,0.237-0.953,0.573-1.111,1.019
	c-0.15,0.438-0.15,0.848,0.001,1.222c0.125,0.308,0.378,0.563,0.759,0.771c0.377,0.217,0.979,0.353,1.807,0.404l1.716,0.11
	c1.063,0.071,1.88,0.223,2.452,0.457c0.962,0.41,1.645,1.113,2.05,2.115c0.394,0.975,0.405,2.028,0.039,3.159
	c-0.362,1.123-1.251,1.969-2.661,2.538c-0.352,0.144-0.723,0.247-1.112,0.314c-0.379,0.074-0.864,0.127-1.458,0.157l-0.512,0.027
	c-0.188,0.006-0.305,0.017-0.352,0.021c-0.037,0.006-0.086,0.021-0.145,0.046c-0.146,0.059-0.25,0.17-0.313,0.333
	c-0.058,0.154-0.101,0.396-0.127,0.725l-0.627,0.253L284.654,483.49L284.654,483.49z"/>
<path id="path2974" d="M411.991,472.815c-4.46-7.763-9.988-13.42-17.022-13.895c-0.541-0.04-1.077-0.057-1.603-0.057
	c-13.535,0.006-20.624,11.651-20.633,11.664l-0.069,0.109l0.093,0.098c0.018,0.017,7.753,7.746,14.892,15.296
	c-0.424,0.771-2.932,5.506-3.529,11.45c-3.01-2.919-5.776-5.52-7.685-7.133c-1.903-1.604-3.681-2.298-5.415-2.298
	c-4.604,0.021-8.747,4.756-14.444,9.451c-10.483,8.657-32.644,22.267-56.069,30.331c-0.025,0.008-8.35,3.071-21.59,6.144
	c-13.24,3.071-31.37,6.146-50.924,6.146c-39.107,0-72.439-12.292-72.513-12.289c-23.429-8.064-45.588-21.674-56.072-30.331
	c-5.701-4.69-9.844-9.432-14.447-9.451c-1.734,0-3.512,0.688-5.414,2.298c-1.906,1.613-4.674,4.214-7.685,7.133
	c-0.598-5.944-3.104-10.679-3.527-11.45c7.138-7.55,14.874-15.279,14.891-15.296l0.089-0.093l-0.066-0.114
	c-0.01-0.013-7.105-11.658-20.637-11.664c-0.523,0-1.058,0.014-1.602,0.057c-7.031,0.475-12.56,6.132-17.021,13.895
	c-3.615,6.291-11.545,18.905-11.548,31.912c0,3.002,0.421,6.021,1.419,8.995c4.792,14.216,17.061,27.545,25.953,27.575
	c0.985,0,1.927-0.167,2.812-0.512c7.78-3.09,9.748-7.024,16.152-9.387l1.477,1.212c6.285,5.187,28.799,22.822,63.664,34.832
	c0.006,0.003,36.466,13.843,84.074,13.843c47.611,0,84.066-13.84,84.077-13.847c34.861-12.006,57.375-29.643,63.66-34.828
	l1.478-1.212c6.404,2.36,8.371,6.297,16.147,9.387c0.886,0.349,1.831,0.512,2.816,0.512c8.884-0.03,21.151-13.365,25.948-27.575
	c0.998-2.969,1.419-5.993,1.419-8.995C423.534,491.717,415.601,479.104,411.991,472.815z"/>
<path id="path2976" fill="#FFFFFF" d="M368.974,528.908c12.981-11.283,20.49-15.381,21.769-16.043
	c-1.229-1.224-9.597-9.536-15.56-14.407c-1.724-1.406-3.299-1.987-4.84-1.987c-4.164-0.019-8.178,4.346-13.675,8.791
	c-10.077,8.117-32.892,21.687-55.246,29.38c-22.34,7.693-44.729,12.892-73.43,12.892c-28.7,0-51.092-5.197-73.435-12.892
	c-22.356-7.693-45.169-21.263-55.246-29.38c-5.5-4.445-9.517-8.813-13.678-8.796c-1.542,0.005-3.116,0.58-4.84,1.992
	c-5.963,4.871-14.332,13.181-15.557,14.406c1.276,0.661,8.784,4.758,21.769,16.044c5.801,5.042,25.598,19.864,58.757,31.279
	c33.162,11.421,58.956,13.688,82.229,13.688c23.271,0,49.064-2.267,82.225-13.688C343.377,548.772,363.173,533.95,368.974,528.908z"
	/>
<path id="path2978" fill="#FFFFFF" d="M54.438,488.381c2.528-3.73,15.361-17.465,16.271-18.436c-0.218-0.463-1.827-3.556-8.71-3.563
	c-0.53,0-1.09,0.017-1.68,0.063c-4.054,0.228-12.564,13.537-15.547,18.681c0.837-0.532,1.758-0.764,2.689-0.764
	C50.247,484.369,53.136,486.367,54.438,488.381z"/>
<path id="path2980" fill="#FFFFFF" d="M67.968,528.05c0,0.984-0.121,1.696-0.219,2.114l5.24-3.274
	c-2.193-1.637-4.224-3.082-6.079-4.343C67.736,524.841,67.968,526.7,67.968,528.05z"/>
<path id="path2982" fill="#FFFFFF" d="M62.393,492.653c-2.72,3-4.287,4.701-5.25,6.183l-0.146,0.227l-0.139-0.231
	c-1.943-3.221-6.286-6.525-10.5-6.525c-0.006,0-0.013,0-0.02,0c-1.609,0-3.202,0.476-4.656,1.614
	c-2.104,1.644-2.984,4.595-2.98,8.095c-0.004,5.191,1.933,11.558,4.488,16.468c3.622,7.013,9.464,15.241,14.382,15.206
	c0.866-0.003,1.705-0.248,2.519-0.797c1.15-0.768,1.577-2.778,1.573-5.087c0-4.306-1.395-9.545-1.398-9.551
	c-0.776-2.825-1.553-4.364-1.56-5.823c0-1.339,0.684-2.526,2.548-4.411c1.54-1.554,3.238-3.259,4.979-4.997
	C65.711,497.229,62.999,493.437,62.393,492.653z"/>
<path id="path2984" fill="#FFFFFF" d="M408.517,484.362c0.934,0,1.856,0.229,2.691,0.764c-2.983-5.147-11.496-18.456-15.547-18.683
	c-0.596-0.043-1.154-0.062-1.683-0.062c-6.888,0.008-8.505,3.099-8.713,3.56c0.882,0.943,13.746,14.708,16.274,18.438
	C402.834,486.365,405.727,484.369,408.517,484.362z"/>
<path id="path2986" fill="#FFFFFF" d="M388.233,530.165c-0.101-0.419-0.223-1.132-0.223-2.115c0-1.35,0.226-3.207,1.055-5.497
	c-1.852,1.261-3.885,2.703-6.078,4.34L388.233,530.165z"/>
<path id="path2988" fill="#FFFFFF" d="M414.298,493.919c-1.457-1.14-3.05-1.614-4.66-1.614c-4.22-0.011-8.575,3.301-10.515,6.525
	l-0.144,0.231l-0.142-0.227c-0.964-1.48-2.53-3.181-5.247-6.18c-0.603,0.791-3.324,4.579-3.846,10.367
	c1.742,1.735,3.439,3.44,4.978,4.994c1.864,1.885,2.544,3.072,2.544,4.41c-0.003,1.46-0.786,2.998-1.553,5.824
	c0,0.009-1.401,5.245-1.398,9.547c-0.006,2.313,0.421,4.323,1.57,5.091c0.813,0.549,1.651,0.794,2.519,0.797
	c4.914,0.035,10.758-8.193,14.387-15.206c2.552-4.91,4.487-11.275,4.484-16.473C417.275,498.508,416.396,495.562,414.298,493.919z"
	/>
<path id="path2990" d="M100.949,511.003c0.635,1.045,1.003,1.609,1.105,1.693c0.267,0.216,0.561,0.283,0.884,0.206
	c0.33-0.071,0.606-0.203,0.83-0.397l0.583,0.476l-3.973,4.905l-0.533-0.432c0.358-1.475,0.522-2.731,0.494-3.771
	c-0.065-1.932-0.72-3.398-1.962-4.406c-1.406-1.139-2.899-1.342-4.477-0.604c-1.566,0.73-3.176,2.118-4.829,4.159
	c-1.216,1.505-2.043,2.881-2.48,4.133c-0.822,2.341-0.352,4.226,1.409,5.652c1.079,0.873,2.326,1.385,3.741,1.535
	c0.814,0.084,1.893,0.037,3.237-0.143l0.21,1.019c-1.561,0.25-2.818,0.33-3.771,0.237c-1.697-0.166-3.222-0.795-4.575-1.891
	c-2.068-1.678-3.306-3.693-3.709-6.057c-0.45-2.615,0.257-5.073,2.12-7.373c1.847-2.282,4.083-3.528,6.71-3.74
	c2.465-0.198,4.708,0.521,6.729,2.158C99.567,509.069,100.319,509.951,100.949,511.003L100.949,511.003z"/>
<path id="path2992" d="M102.954,532.839c0.263-0.013,0.607-0.073,1.035-0.19l2.204-3.267c-0.696-0.259-1.375-0.383-2.038-0.373
	c-1.124,0.017-1.964,0.436-2.518,1.259c-0.33,0.486-0.471,0.935-0.424,1.335c0.058,0.4,0.226,0.693,0.503,0.883
	C102.081,532.728,102.493,532.848,102.954,532.839L102.954,532.839z M100.991,527.334c1.367,0.064,3.286,0.497,5.757,1.292
	l1.099-1.625c0.446-0.663,0.634-1.249,0.561-1.751c-0.061-0.509-0.449-1.003-1.162-1.482c-0.401-0.271-0.784-0.42-1.149-0.441
	c-0.353-0.027-0.606,0.071-0.758,0.299c-0.059,0.087-0.094,0.17-0.104,0.247c-0.01,0.077-0.009,0.17,0.006,0.274l0.028,0.24
	c0.019,0.193,0.005,0.386-0.039,0.579c-0.033,0.188-0.106,0.367-0.219,0.533c-0.285,0.423-0.648,0.657-1.089,0.697
	c-0.429,0.04-0.83-0.067-1.201-0.317c-0.429-0.29-0.711-0.666-0.846-1.126c-0.126-0.456-0.027-0.925,0.297-1.405
	c0.58-0.86,1.443-1.269,2.591-1.225c1.147,0.04,2.311,0.459,3.491,1.258c1.268,0.854,2.163,1.813,2.686,2.874
	c0.51,1.067,0.319,2.265-0.575,3.586l-3.655,5.423c-0.108,0.159-0.161,0.322-0.16,0.495c0.014,0.167,0.072,0.287,0.174,0.354
	c0.087,0.059,0.173,0.096,0.259,0.111c0.097,0.013,0.268-0.003,0.512-0.054l0.021,0.7c-0.781,0.213-1.506,0.243-2.176,0.09
	c-0.424-0.096-0.821-0.269-1.192-0.519c-0.663-0.447-1.017-0.968-1.063-1.562c-0.028-0.336,0.063-0.746,0.274-1.229
	c-1.038,0.204-2.032,0.167-2.983-0.103c-0.581-0.159-1.101-0.395-1.56-0.702c-0.612-0.413-1.053-0.993-1.325-1.736
	c-0.267-0.752-0.123-1.538,0.433-2.361C98.602,527.744,99.625,527.272,100.991,527.334L100.991,527.334z"/>
<path id="path2994" d="M110.186,538.979c0.47,0.129,0.835,0.16,1.094,0.092c0.27-0.07,0.55-0.366,0.84-0.891l6.665-12.023
	c0.277-0.496,0.377-0.87,0.301-1.113c-0.077-0.243-0.306-0.536-0.688-0.879l0.32-0.576l4.472,2.479l-7.737,13.96
	c-0.29,0.521-0.396,0.91-0.315,1.166c0.079,0.256,0.305,0.555,0.675,0.903l-0.313,0.563l-5.625-3.117L110.186,538.979
	L110.186,538.979z"/>
<path id="path2996" d="M125.227,535.444c1.499-0.549,2.948-0.484,4.346,0.197c0.797,0.389,1.445,0.965,1.944,1.727
	s0.756,1.604,0.774,2.532c0.011,0.7-0.146,1.522-0.471,2.47c-0.149,0.444-0.277,0.777-0.386,0.999l-6.183-3.016
	c-0.418,0.999-0.671,1.915-0.756,2.754c-0.178,1.565,0.33,2.64,1.522,3.22c0.568,0.277,1.192,0.363,1.871,0.252
	c0.412-0.062,0.97-0.233,1.675-0.515l0.389,0.614c-1.352,0.865-2.638,1.298-3.86,1.298c-0.79-0.003-1.599-0.207-2.429-0.61
	c-1.192-0.583-2.081-1.598-2.664-3.047c-0.584-1.446-0.374-3.201,0.631-5.264C122.54,537.192,123.738,535.99,125.227,535.444
	L125.227,535.444z M128.889,541.014c0.682-1.438,1.058-2.492,1.13-3.161c0.072-0.666-0.2-1.15-0.816-1.452
	c-0.631-0.31-1.226-0.191-1.783,0.349c-0.549,0.542-1.145,1.435-1.789,2.677L128.889,541.014L128.889,541.014z"/>
<path id="path2998" d="M140.08,552.057c0.625-0.307,0.978-0.56,1.057-0.753l2.459-6.088c0.082-0.203,0.02-0.576-0.185-1.126
	c-0.205-0.546-0.61-0.939-1.212-1.188c-0.889-0.357-1.739,0.016-2.554,1.117c-0.438,0.589-0.9,1.488-1.388,2.693
	c-0.52,1.286-0.83,2.288-0.93,3.008c-0.176,1.302,0.164,2.128,1.02,2.474C138.884,552.411,139.461,552.364,140.08,552.057
	L140.08,552.057z M137.729,541.442c1.41-0.77,2.773-0.886,4.094-0.353c0.66,0.266,1.18,0.666,1.562,1.199
	c0.239,0.324,0.497,0.836,0.773,1.536l1.851-4.583c0.254-0.629,0.288-1.063,0.103-1.311c-0.182-0.253-0.649-0.553-1.401-0.896
	l0.247-0.61l5.389,2.179l-5.815,14.395c-0.21,0.524-0.259,0.925-0.146,1.209c0.117,0.274,0.45,0.549,1,0.829l-0.232,0.573
	c-1.458-0.429-2.404-0.688-2.841-0.776c-0.434-0.099-1.221-0.216-2.363-0.346l0.667-1.649c-0.67,0.3-1.249,0.487-1.734,0.563
	c-0.771,0.127-1.515,0.044-2.232-0.246c-1.222-0.493-2.076-1.44-2.562-2.84c-0.486-1.4-0.371-2.988,0.347-4.766
	C135.233,543.573,136.332,542.204,137.729,541.442L137.729,541.442z"/>
<path id="path3000" d="M153.681,547.521c1.491-0.836,3.067-0.984,4.731-0.444c1.696,0.552,2.884,1.612,3.566,3.183
	c0.69,1.572,0.752,3.229,0.188,4.969c-0.557,1.711-1.571,3.013-3.042,3.899c-1.469,0.882-3.064,1.042-4.785,0.484
	c-1.671-0.543-2.86-1.591-3.566-3.144c-0.704-1.557-0.766-3.229-0.188-5.008C151.166,549.673,152.198,548.358,153.681,547.521
	L153.681,547.521z M153.407,556.549c-0.068,1.206,0.332,1.952,1.201,2.233c0.827,0.271,1.508,0.021,2.044-0.75
	c0.536-0.768,1.116-2.112,1.741-4.033c0.622-1.915,0.933-3.34,0.935-4.283c0.012-0.946-0.379-1.551-1.173-1.808
	c-0.869-0.283-1.63,0.084-2.283,1.102c-0.434,0.683-0.939,1.905-1.514,3.68C153.773,554.483,153.457,555.772,153.407,556.549
	L153.407,556.549z"/>
<path id="path3002" d="M164.146,561.486c0.492,0.059,0.874,0.019,1.144-0.123c0.281-0.148,0.497-0.52,0.645-1.117l1.92-7.696
	c0.132-0.529,0.129-0.919-0.007-1.172c-0.128-0.247-0.465-0.479-1.011-0.685l0.16-0.643l4.961,1.239l-0.469,1.878
	c0.575-0.525,1.233-0.912,1.975-1.165c0.751-0.256,1.52-0.284,2.304-0.09c1.125,0.281,1.922,0.787,2.392,1.521
	c0.478,0.733,0.534,1.832,0.172,3.287l-1.579,6.33c-0.146,0.59-0.144,0.993,0.011,1.213c0.162,0.222,0.469,0.419,0.923,0.599
	l-0.156,0.626l-6.151-1.536l0.156-0.626c0.492,0.024,0.843-0.023,1.055-0.145c0.21-0.117,0.387-0.463,0.53-1.036l1.582-6.341
	c0.149-0.599,0.201-1.062,0.156-1.389c-0.07-0.589-0.409-0.959-1.014-1.108c-0.453-0.111-0.911-0.051-1.377,0.188
	c-0.457,0.229-0.828,0.484-1.116,0.769l-1.747,7.007c-0.143,0.569-0.148,0.959-0.018,1.162c0.129,0.207,0.417,0.413,0.863,0.623
	l-0.157,0.629l-6.304-1.572L164.146,561.486L164.146,561.486z"/>
<path id="path3004" d="M186.129,548.707c0.479-0.333,1.003-0.45,1.575-0.352c0.562,0.099,1.006,0.389,1.333,0.867
	c0.336,0.469,0.453,0.988,0.353,1.56s-0.39,1.024-0.868,1.36c-0.469,0.326-0.983,0.44-1.546,0.342
	c-0.57-0.103-1.024-0.385-1.36-0.856c-0.327-0.476-0.439-0.999-0.339-1.569C185.376,549.484,185.661,549.037,186.129,548.707
	L186.129,548.707z M181.346,565.517c0.481,0.003,0.822-0.057,1.023-0.183c0.3-0.188,0.504-0.583,0.61-1.189l1.378-7.814
	c0.095-0.533,0.068-0.913-0.08-1.138c-0.146-0.229-0.479-0.441-1-0.629l0.114-0.65l5.101,0.9l-1.78,10.096
	c-0.103,0.58-0.082,0.968,0.063,1.162s0.446,0.383,0.905,0.562l-0.112,0.637l-6.334-1.117L181.346,565.517L181.346,565.517z"/>
<path id="path3006" d="M198.171,566.846c0.228-0.134,0.506-0.347,0.835-0.643l0.48-3.913c-0.737,0.086-1.398,0.287-1.985,0.595
	c-0.994,0.524-1.551,1.277-1.672,2.265c-0.072,0.583,0.004,1.046,0.228,1.382c0.234,0.33,0.517,0.515,0.848,0.555
	C197.343,567.142,197.764,567.059,198.171,566.846L198.171,566.846z M193.923,562.831c1.247-0.563,3.152-1.052,5.717-1.462
	l0.24-1.949c0.097-0.796-0.001-1.398-0.295-1.815c-0.285-0.425-0.854-0.688-1.708-0.795c-0.479-0.06-0.887-0.017-1.224,0.129
	c-0.326,0.139-0.506,0.343-0.54,0.609c-0.012,0.105-0.006,0.194,0.02,0.27c0.026,0.075,0.069,0.154,0.13,0.24l0.134,0.204
	c0.104,0.162,0.18,0.342,0.227,0.532c0.057,0.187,0.073,0.376,0.048,0.577c-0.062,0.506-0.28,0.875-0.654,1.113
	c-0.365,0.229-0.77,0.316-1.214,0.265c-0.514-0.063-0.936-0.271-1.264-0.623c-0.321-0.349-0.446-0.811-0.375-1.385
	c0.126-1.029,0.711-1.785,1.752-2.27c1.042-0.48,2.27-0.639,3.682-0.463c1.518,0.186,2.75,0.633,3.699,1.342
	c0.939,0.719,1.311,1.872,1.116,3.457l-0.796,6.487c-0.024,0.194,0.003,0.364,0.083,0.516c0.089,0.146,0.193,0.226,0.316,0.236
	c0.105,0.017,0.198,0.011,0.282-0.018c0.092-0.031,0.236-0.124,0.432-0.278l0.336,0.614c-0.598,0.546-1.23,0.9-1.897,1.066
	c-0.42,0.107-0.853,0.136-1.297,0.08c-0.794-0.1-1.345-0.4-1.654-0.906c-0.177-0.287-0.283-0.693-0.315-1.222
	c-0.833,0.65-1.734,1.069-2.704,1.262c-0.591,0.123-1.161,0.147-1.71,0.083c-0.732-0.089-1.389-0.406-1.968-0.946
	c-0.579-0.549-0.808-1.316-0.687-2.301C191.98,564.277,192.677,563.395,193.923,562.831L193.923,562.831z"/>
<path id="path3008" d="M207.41,569.097c0.494-0.037,0.861-0.147,1.1-0.34c0.248-0.196,0.388-0.604,0.42-1.219l0.415-7.922
	c0.029-0.546-0.048-0.928-0.229-1.146c-0.173-0.224-0.547-0.384-1.124-0.481l0.035-0.66l5.107,0.27l-0.102,1.934
	c0.464-0.626,1.036-1.132,1.717-1.521c0.688-0.396,1.437-0.57,2.244-0.527c1.159,0.062,2.037,0.407,2.638,1.036
	c0.609,0.629,0.875,1.695,0.796,3.194l-0.341,6.517c-0.032,0.604,0.048,1.002,0.241,1.187c0.201,0.187,0.541,0.324,1.021,0.41
	l-0.034,0.646l-6.33-0.333l0.034-0.646c0.487-0.07,0.823-0.185,1.007-0.342s0.292-0.53,0.322-1.119l0.342-6.528
	c0.032-0.613-0.005-1.075-0.112-1.391c-0.182-0.564-0.584-0.863-1.207-0.895c-0.465-0.024-0.904,0.122-1.316,0.443
	c-0.404,0.314-0.72,0.638-0.948,0.968l-0.378,7.214c-0.031,0.586,0.036,0.969,0.204,1.145c0.167,0.176,0.489,0.326,0.966,0.446
	l-0.033,0.645l-6.489-0.339L207.41,569.097L207.41,569.097z"/>
<path id="path3010" d="M233.363,552.188l16.228-0.852l0.311,5.435l-0.776,0.04c-0.356-1.925-1.153-3.198-2.391-3.821
	c-0.695-0.342-1.715-0.493-3.06-0.459l0.744,14.188c0.052,0.99,0.257,1.642,0.617,1.946c0.368,0.31,1.1,0.433,2.197,0.373
	l0.035,0.686l-9.607,0.506l-0.037-0.686c1.053-0.056,1.743-0.256,2.068-0.599c0.333-0.353,0.474-1.019,0.422-2.001l-0.744-14.188
	c-1.314,0.105-2.313,0.364-2.995,0.777c-1.252,0.771-1.913,2.118-1.978,4.052l-0.776,0.04L233.363,552.188L233.363,552.188z"/>
<path id="path3012" d="M254.619,568.507c0.479-0.13,0.817-0.309,1.015-0.543c0.206-0.239,0.266-0.666,0.181-1.275l-1.914-13.611
	c-0.075-0.53-0.222-0.885-0.442-1.067c-0.223-0.19-0.622-0.279-1.197-0.271l-0.092-0.653l5.168-0.725l1.056,7.515
	c0.456-0.736,0.958-1.326,1.509-1.767c0.557-0.453,1.214-0.731,1.971-0.839c1.027-0.143,1.918,0.037,2.672,0.546
	c0.753,0.496,1.23,1.462,1.433,2.897l0.903,6.42c0.084,0.603,0.24,0.984,0.466,1.147c0.234,0.151,0.598,0.247,1.092,0.284
	l0.09,0.641l-6.277,0.883l-0.089-0.642c0.465-0.161,0.772-0.34,0.923-0.527c0.15-0.19,0.184-0.577,0.104-1.16l-0.91-6.473
	c-0.086-0.609-0.211-1.058-0.375-1.344c-0.286-0.521-0.739-0.737-1.355-0.647c-0.462,0.064-0.91,0.343-1.346,0.838
	c-0.428,0.497-0.63,0.82-0.607,0.979l1.004,7.151c0.082,0.586,0.221,0.946,0.419,1.089c0.197,0.139,0.542,0.225,1.035,0.253
	l0.089,0.638l-6.434,0.907L254.619,568.507L254.619,568.507z"/>
<path id="path3014" d="M270.221,548.464c0.316-0.489,0.76-0.796,1.326-0.916c0.56-0.119,1.08-0.019,1.562,0.303
	c0.487,0.309,0.791,0.747,0.912,1.313c0.121,0.567,0.022,1.095-0.296,1.585c-0.313,0.48-0.747,0.78-1.305,0.897
	c-0.567,0.12-1.096,0.026-1.584-0.284c-0.48-0.317-0.781-0.762-0.901-1.329C269.813,549.466,269.909,548.941,270.221,548.464
	L270.221,548.464z M272.082,565.841c0.446-0.18,0.74-0.36,0.879-0.553c0.209-0.286,0.25-0.729,0.121-1.332l-1.648-7.762
	c-0.113-0.533-0.28-0.872-0.5-1.023c-0.223-0.159-0.61-0.23-1.164-0.213l-0.137-0.645l5.066-1.076l2.131,10.028
	c0.123,0.575,0.287,0.928,0.494,1.055c0.207,0.126,0.557,0.188,1.049,0.182l0.135,0.632l-6.291,1.337L272.082,565.841
	L272.082,565.841z"/>
<path id="path3016" d="M281.388,560.385l0.726-0.193c0.588,1.181,1.301,1.937,2.135,2.267c0.832,0.323,1.612,0.385,2.344,0.19
	c0.671-0.18,1.123-0.459,1.357-0.842c0.231-0.39,0.281-0.829,0.149-1.322c-0.124-0.466-0.401-0.82-0.829-1.063
	c-0.234-0.126-0.587-0.236-1.059-0.33l-2.188-0.422c-1.152-0.229-2.027-0.577-2.625-1.042c-0.607-0.466-1.018-1.099-1.23-1.896
	c-0.271-1.009-0.151-1.975,0.357-2.894c0.506-0.926,1.391-1.561,2.654-1.899c0.552-0.146,1.162-0.209,1.832-0.188
	c0.667,0.013,1.076-0.003,1.23-0.043c0.211-0.059,0.35-0.139,0.41-0.247c0.068-0.12,0.111-0.269,0.127-0.443l0.573-0.154
	l1.011,3.769l-0.664,0.18c-0.481-0.817-1.074-1.418-1.779-1.805c-0.702-0.383-1.428-0.475-2.174-0.276
	c-0.578,0.157-0.967,0.435-1.168,0.832c-0.194,0.397-0.24,0.783-0.143,1.156c0.083,0.306,0.291,0.576,0.628,0.813
	c0.331,0.25,0.884,0.447,1.66,0.592l1.608,0.307c0.996,0.188,1.752,0.429,2.268,0.719c0.859,0.496,1.423,1.239,1.689,2.231
	c0.26,0.97,0.147,1.969-0.33,2.997c-0.474,1.019-1.41,1.712-2.811,2.088c-0.349,0.097-0.711,0.151-1.088,0.17
	c-0.365,0.024-0.832,0.02-1.396-0.021l-0.486-0.034c-0.178-0.016-0.288-0.021-0.333-0.019c-0.035,0-0.083,0.009-0.144,0.023
	c-0.145,0.037-0.254,0.133-0.334,0.281c-0.072,0.139-0.141,0.36-0.203,0.666l-0.623,0.169L281.388,560.385L281.388,560.385z"/>
<path id="path3018" d="M291.67,550.228l-0.219-0.72c0.162-0.276,0.367-0.612,0.616-1.002c0.319-0.546,0.609-1.101,0.871-1.658
	c0.521-1.096,0.947-2.232,1.286-3.41l0.654-0.2l1.334,4.36l2.457-0.75l0.349,1.135l-2.458,0.75l2.373,7.765
	c0.111,0.36,0.258,0.647,0.441,0.857c0.283,0.326,0.617,0.432,1.004,0.311c0.337-0.102,0.582-0.305,0.738-0.609
	c0.151-0.313,0.276-0.713,0.375-1.202l0.709,0.113c-0.086,0.796-0.271,1.482-0.555,2.058c-0.501,1.008-1.283,1.674-2.352,2.001
	c-0.605,0.186-1.17,0.23-1.692,0.145c-1.007-0.169-1.688-0.829-2.039-1.981l-2.56-8.366L291.67,550.228L291.67,550.228z"/>
<path id="path3020" d="M305.867,556.801c0.405-0.271,0.668-0.523,0.786-0.765c0.124-0.25,0.084-0.656-0.121-1.218l-4.7-12.918
	c-0.196-0.536-0.41-0.857-0.645-0.959c-0.232-0.103-0.604-0.12-1.113-0.057l-0.227-0.618l4.805-1.749l5.46,14.996
	c0.203,0.563,0.43,0.896,0.674,1.006c0.243,0.104,0.618,0.132,1.122,0.08l0.224,0.606l-6.046,2.198L305.867,556.801L305.867,556.801
	z"/>
<path id="path3022" d="M313.056,543.104c0.57-1.493,1.569-2.541,3.002-3.148c0.815-0.349,1.676-0.46,2.578-0.336
	c0.899,0.123,1.707,0.48,2.419,1.076c0.533,0.453,1.052,1.109,1.554,1.977c0.238,0.403,0.404,0.719,0.502,0.946l-6.333,2.687
	c0.479,0.972,1.006,1.765,1.582,2.381c1.065,1.159,2.208,1.479,3.432,0.962c0.58-0.246,1.055-0.663,1.417-1.245
	c0.224-0.353,0.46-0.886,0.709-1.604l0.719,0.11c-0.232,1.589-0.749,2.844-1.551,3.766c-0.521,0.593-1.206,1.07-2.057,1.432
	c-1.221,0.519-2.569,0.521-4.046,0.013c-1.476-0.508-2.663-1.819-3.559-3.929C312.614,546.28,312.491,544.584,313.056,543.104
	L313.056,543.104z M319.661,543.995c-0.637-1.458-1.185-2.433-1.643-2.926c-0.458-0.494-1.002-0.604-1.633-0.34
	c-0.646,0.276-0.948,0.802-0.906,1.576c0.051,0.771,0.333,1.804,0.847,3.104L319.661,543.995L319.661,543.995z"/>
<path id="path3024" d="M337.303,543.363c0.655-0.41,1.078-0.777,1.268-1.098c0.294-0.493,0.246-1.076-0.141-1.745l-6.529-11.313
	c-0.391-0.679-0.868-1.012-1.43-1.002c-0.342,0.006-0.877,0.188-1.604,0.546l-0.342-0.593l13.25-7.65l2.722,4.713l-0.569,0.329
	c-1.129-1.285-2.202-2.02-3.22-2.204c-1.023-0.188-2.456,0.246-4.298,1.311c-0.685,0.396-1.075,0.729-1.175,0.996
	c-0.095,0.259-0.019,0.602,0.228,1.027l3.124,5.407c1.275-0.706,1.975-1.461,2.095-2.271c0.128-0.813-0.045-1.896-0.521-3.247
	l0.595-0.342l4.561,7.896l-0.594,0.343c-0.89-1.169-1.743-1.901-2.565-2.201c-0.813-0.3-1.847-0.09-3.102,0.636l3.142,5.445
	c0.418,0.722,0.894,1.062,1.425,1.018c0.537-0.055,1.233-0.342,2.094-0.856l0.342,0.593l-8.411,4.855L337.303,543.363
	L337.303,543.363z"/>
<path id="path3026" d="M350.989,531.784c0.11-0.623,0.426-1.116,0.942-1.479c0.519-0.36,1.086-0.484,1.704-0.37
	c0.618,0.102,1.107,0.413,1.473,0.932c0.362,0.518,0.488,1.088,0.379,1.714c-0.107,0.611-0.421,1.1-0.938,1.462
	c-0.519,0.361-1.087,0.49-1.706,0.39c-0.617-0.114-1.107-0.433-1.47-0.95C351.01,532.962,350.883,532.397,350.989,531.784
	L350.989,531.784z"/>
<path id="path3028" d="M358.383,507.49c1.146-0.422,1.771-0.678,1.872-0.762c0.262-0.223,0.386-0.496,0.371-0.829
	c-0.009-0.336-0.085-0.636-0.231-0.893l0.575-0.479l4.059,4.835l-0.523,0.44c-1.38-0.633-2.582-1.032-3.609-1.205
	c-1.905-0.304-3.473,0.059-4.696,1.085c-1.388,1.166-1.87,2.591-1.45,4.279c0.421,1.679,1.476,3.521,3.163,5.535
	c1.242,1.48,2.438,2.554,3.582,3.224c2.143,1.252,4.081,1.152,5.817-0.306c1.063-0.892,1.804-2.021,2.223-3.38
	c0.237-0.783,0.396-1.851,0.478-3.204l1.039-0.013c-0.051,1.579-0.212,2.828-0.487,3.747c-0.485,1.634-1.395,3.01-2.728,4.129
	c-2.039,1.712-4.258,2.541-6.652,2.485c-2.652-0.057-4.93-1.219-6.834-3.487c-1.886-2.248-2.683-4.683-2.392-7.299
	c0.277-2.458,1.412-4.524,3.404-6.195C356.223,508.478,357.229,507.907,358.383,507.49L358.383,507.49z"/>
<path id="path3030" d="M376.151,512.434c0.131-0.62,0.462-1.104,0.993-1.446c0.53-0.346,1.102-0.45,1.714-0.314
	c0.615,0.127,1.095,0.453,1.44,0.983c0.344,0.53,0.45,1.107,0.318,1.728c-0.13,0.607-0.46,1.082-0.989,1.429
	c-0.53,0.345-1.104,0.453-1.719,0.33c-0.612-0.137-1.092-0.47-1.436-1.003C376.131,513.608,376.021,513.041,376.151,512.434
	L376.151,512.434z"/>
<path id="path3032" d="M499.09,77.749c0,0,18.219,9.108,27.328,9.108L501.26,73.411c0,0,13.881,3.036,19.52,3.903
	c-39.039-26.026-90.656-40.34-152.688-51.185c-58.665-10.256-119.871,10.3-127.095,18.653c-13.88,16.049-36.87,12.145-32.532,5.205
	c4.337-6.94-0.434-4.338,12.579-8.242c13.014-3.904,23.424-9.109,10.411-15.616c-13.013-6.506-27.328-1.301-33.4-2.603
	c-6.072-1.301-16.45-8.241-27.761-8.241c-15.183,0-27.762,5.639-39.474,9.108c-11.712,3.47-42.943,6.941-57.692,9.978
	c-8.962,1.845-30.363,10.411-30.363,10.411c-0.434,4.337,5.205,3.47,5.205,3.47s-2.168,1.735-0.434,6.073
	c1.735,4.337,6.507,2.603,6.507,2.603s-3.904,3.036-1.301,6.94c2.603,3.904,6.506,0,6.506,0s-3.037,3.471-2.168,6.94
	c0.867,3.47,5.639,2.604,5.639,2.604s-4.771,2.168-2.603,5.638c2.169,3.471,6.941-0.433,6.941-0.433s-3.904,3.47-2.169,7.808
	c1.735,4.337,9.543-1.302,9.543-1.302s-2.169,7.374,1.301,9.109c3.47,1.735,10.844-1.735,10.844-1.735s-0.867,5.206,1.735,8.676
	c2.603,3.47,6.94-0.868,6.94-0.868s-3.47,3.904,0.868,6.506c4.338,2.603,20.387-19.954,20.387-19.954s-2.602,9.11-2.602,9.977
	c0,4.338,8.241-2.169,8.241-2.169s0.867,9.543,5.639,9.543c4.771,0,3.47-8.241,2.603-12.579c-0.867-4.338,2.603-6.94,4.337-3.037
	c1.735,3.904,4.338,11.712,19.086,6.506c8.15-2.876,7.807-0.867,6.506,1.735c-1.301,2.603-3.904,6.941-2.602,10.845
	c1.3,3.904,5.204,4.337,5.204,4.337s-3.904,4.338-1.734,7.375c2.168,3.036,6.507,0.867,6.507,0.867s-10.411,19.52-14.315,23.857
	c-0.88,0.978-2.069,2.11-3.487,3.302c-4.872,4.096-12.447,8.899-19.503,10.579c-5.212,1.241-4.603,4.896-2.07,7.39
	c4.375-3.317,9.036-6.21,12.96-8.574c-2.625,2.287-5.651,6.492-8.199,10.999c0.75,0.094,1.5,0.05,2.208-0.166
	c7.001-6.73,15.289-13.516,19.674-15.729c-10.65,11.645-12.837,14.698-16.367,23.32c2.872,0.415,5.675-1.624,5.675-1.624
	s-3.037,3.036,0,6.941c3.037,3.903,6.939,0.433,6.939,0.433s-1.538,4.857,1.735,6.941c7.855,4.999,8.657,0.886,8.695-0.725
	c0.125,1.835,1.025,7.478,7.355,8.532c2.602,0.434,9.108-22.989,9.108-22.989s2.169,14.748,0.868,18.652
	c-0.772,2.318,0.06,4.865,0.865,6.545c0.55,1.153,1.087,1.913,1.087,1.913s-1.186,1.213-2.998,2.345
	c-1.812,1.13-3.5,1.587-9.517,3.965c-2.99,1.183-4.223,2.929-4.709,4.396h-0.003c-0.487,1.472-0.21,2.647-0.21,2.647
	s-3.402,3.622-2.552,6.859c-37.369,22.689-62.334,63.771-62.334,110.682c0,71.461,57.93,129.392,129.392,129.392
	c71.463,0,129.391-57.931,129.391-129.392c0-52.188-30.911-97.128-75.41-117.591c0.35-0.875,0.357-1.754,0.154-2.586
	c-0.651-2.668-3.389-4.861-3.389-4.861s0.434-4.771-5.855-6.289c-2.959-0.714-4.91-1.14-6.349-1.481
	c-1.622-0.385-2.594-0.663-3.628-1.123c-1.952-0.867-2.819-1.518-2.819-1.518c2.819,0.434,5.875-0.155,3.687-4.121
	c-0.968-1.753-3.623-3.831-3.47-6.29c0.298-4.801-1.639-10.348-1.952-16.917c-0.103-2.158-2.89-6.719-1.952-8.675
	c0.938-1.956-1.843-10.407-0.868-11.711c0.044-0.059,0.086-0.117,0.13-0.169c1.396-1.956,2.399-4.868,1.605-6.772
	c4.023,0.448,8.242,1.952,13.446,5.639c1.365,0.611,2.354,0.879,3.229,1.133h0.031c1.258,0.353,2.292,0.668,3.897,1.903
	c5.639,4.338,8.457,8.892,9.976,20.387c0.586,4.433,2.386-2.169,2.819-6.506c0.397-3.979-1.519-9.543-2.387-11.062
	c-0.865-1.518-1.084-2.602,0.436-1.735c0,0,7.024,6.827,8.012,8.004c0.986,1.176,2.279,5.104,2.693,6.593
	c0.412,1.489,1.104,1.914,1.174,3.191c0.068,1.278-3.412,3.698-3.412,3.698s8.721,1.036,10.813-9.409
	c1.394-6.939-4.189-14.91-4.189-14.91s0.089-0.041,0.223-0.155c0.481-0.434,1.539-1.906,1.163-6.234
	c-0.482-5.541-1.09-8.841-3.681-13.984c-0.433-3.471-0.65-7.375-1.085-15.183c-0.434-7.808-6.94-12.579-6.94-12.579
	s-2.168-9.109-6.071-18.653c-3.904-9.542,1.301-14.748,1.301-14.748s8.242-4.772,13.015-9.109c4.771,7.808,13.88,0.868,13.88,0.868
	h6.073c0,0,2.603,5.638,8.674,8.674c6.074,3.037,9.109-2.168,9.109-2.168s4.339,2.602,9.978,3.903s11.712-4.771,11.712-4.771
	s0.868,4.337,6.507,4.771c2.57,0.198,3.699-0.325,4.166-0.954c0.259,0.928,1.224,2.031,4.075,2.689
	c5.641,1.301,5.641-3.904,5.641-3.904s0.434,3.904,5.203,5.205c4.772,1.301,11.278-4.772,11.278-4.772s1.735,3.904,6.507,3.904
	c4.772,0,6.94-4.337,6.94-4.337s6.073,4.337,12.146,4.337c6.071,0,10.409-3.904,10.409-3.904s3.037,4.772,6.941,6.507
	c3.902,1.735,3.469-3.47,3.469-3.47c8.243,7.374,26.026,13.447,26.026,13.447l-18.22-13.881c0,0,20.39,12.58,33.401,16.484
	l-16.483-12.145c0,0,26.459,13.88,46.414,15.615L499.09,77.749z M172.936,213.643c-0.023,0.012-0.048,0.021-0.071,0.032
	c0.035-0.059,0.072-0.103,0.108-0.164C172.952,213.561,172.953,213.597,172.936,213.643z M165.377,215.79
	c0,0,0.637,0.528,1.61,0.838c-1.691,0.906-3.354,1.854-4.998,2.832C162.792,217.085,165.377,215.79,165.377,215.79z
	 M205.717,203.305c-0.16-0.042-0.317-0.086-0.499-0.125c-2.483-0.527-2.634,0.566-5,0.265c-2.453-0.312-3.747-0.263-6.502-2.724
	c1.585-0.745,1.527-1.811,0.946-2.781c-0.771-1.292-2.464-2.423-2.464-2.423l5.422,2.385l-2.385-5.422
	c1.083,2.386,5.205,3.47,5.205,3.47s-2.826-7.466-3.546-12.811c1.085,2.385,3.979,2.4,3.979,2.4s-1.882-5.932-2.603-11.278
	c1.084,2.385,3.688,2.603,3.688,2.603s-3.904-13.013-2.169-19.302c1.084,0,2.819,2.602,4.771,4.337
	c1.952,1.735,1.952,3.904,4.337,5.206c2.386,1.301,2.169-3.037,2.386-0.867c0.217,2.168,3.253,2.386,4.338,1.3
	c1.084-1.084,6.29-6.289,9.542-11.278c9.543,1.084,3.688,20.171,3.688,20.171l3.253-3.688c1.301,3.688-0.867,9.109-0.867,9.109
	s3.037-1.301,4.555-7.158c1.003-3.87,1.518,12.363-2.386,17.785l4.338-3.471l0.217,8.242c0,0,2.385,0.217,3.253-2.819l5.856,3.253
	c-0.071,0.083-0.141,0.165-0.21,0.255c-2.254,2.575-3.548,2.583-5.864,3.214c-2.301,0.627-2.603-0.434-4.988,0.434
	c-0.029,0.011-0.051,0.021-0.079,0.032c-2.63-0.16-5.272-0.266-7.941-0.266C220.389,201.356,212.957,202.049,205.717,203.305z
	 M251.714,203.565c1.294,0.042,2.499,0.244,3.351,0.65C253.955,203.98,252.834,203.773,251.714,203.565z M277.217,208.53
	c0,0,1.824,0.608,3.107,2.042c0.562,0.627,1.018,1.414,1.176,2.375c-2.316-1.055-4.668-2.044-7.057-2.964
	C276.117,209.74,277.217,208.53,277.217,208.53z M270.523,208.547c-0.295-0.103-0.592-0.2-0.888-0.301
	c0.021-0.255-0.04-0.554-0.257-0.913C269.766,207.822,270.146,208.208,270.523,208.547z"/>
<path id="path3034" fill="#FFFFFF" d="M230.375,211.179c-0.797-0.016-1.586-0.06-2.387-0.06c-5.363,0-10.633,0.389-15.81,1.072
	c0.013,0.102,0.032,0.193,0.043,0.299c-0.063-0.1-0.143-0.185-0.213-0.278c-26.64,3.558-50.514,15.848-68.612,33.943
	c-21.648,21.651-35.037,51.555-35.037,84.591c0,33.037,13.389,62.941,35.037,84.592c21.651,21.647,51.556,35.037,84.592,35.037
	c33.037,0,62.941-13.39,84.593-35.037c21.646-21.649,35.034-51.555,35.034-84.592s-13.388-62.94-35.034-84.591
	c-21.057-21.052-49.922-34.255-81.877-34.969c-0.125,0.19-0.24,0.387-0.334,0.596C230.361,211.57,230.374,211.381,230.375,211.179z"
	/>
<path id="path3036" d="M116.636,330.746c0.003-61.497,49.854-111.346,111.354-111.349l0,0c61.496,0,111.351,49.853,111.351,111.349
	l0,0c0,61.5-49.854,111.351-111.351,111.354l0,0C166.49,442.096,116.64,392.246,116.636,330.746L116.636,330.746z"/>
<path id="path3038" fill="#FFFFFF" d="M323.709,282.504c-0.815-0.159-2.234-0.237-3.771-0.231c-2.752,0-5.938,0.203-7.537,0.32
	c1.826,4.646,3.013,9.576,3.782,14.449c2.853-5.589,6.845-11.46,8.185-13.382C324.146,283.275,323.938,282.885,323.709,282.504z"/>
<path id="path3040" fill="#FFFFFF" d="M336.548,327.143c-0.786-11.486-3.529-28.372-12.072-43.295
	c-1.095,2.641-4.424,10.958-4.706,15.184c-0.338,5.063,2.362,10.461,3.038,15.857c0.568,4.556,2.938,8.75-3.731,18.158
	c1.034,0.952,2.238,2.154,3.492,3.576c0.666-1.214,1.313-2.689,1.926-4.525c0.066,2.511,0.023,4.69-0.158,6.645
	c2.685,3.441,5.315,7.854,6.726,13.064c2.236-3.563,4.032-7.426,4.971-9.576c0.396-3.774,0.607-7.604,0.607-11.484
	C336.638,329.538,336.587,328.342,336.548,327.143z"/>
<polygon id="polygon3042" fill="#FFFFFF" points="176.881,257.668 176.88,257.666 176.879,257.666 "/>
<path id="path3044" fill="#FFFFFF" d="M313.357,304.092c0.307-1.343,0.881-2.895,1.61-4.526c-0.758-5.856-2.09-11.842-4.356-17.287
	c-2.3-4.104-6.896-9.149-12.191-13.907c2.054,13.211,4.748,25.887,6.841,32.684C307.959,309.828,311.672,311.514,313.357,304.092z"
	/>
<path id="path3046" fill="#FFFFFF" d="M267.954,265.288c-7.141,11.19-9.896,23.724-11.27,37.742c0.52-0.313,1.044-0.621,1.578-0.914
	c0,0-0.804,1.295-1.778,3.114c-0.341,3.895-0.594,7.896-0.813,12.021c-0.012,0.224-0.043,0.416-0.062,0.63
	c3.002,0.913,7.003-1.332,13.189,1.094c-1.355,0.979-11.44,2.408-10.688,5.418c1.311,5.246,10.838,2.711,10.838,2.711
	c-11.741,5.568-5.269,12.041,3.913,9.937c-1.501,1.695-3.688,4.296-9.25,4.464l5.88,4.006c0.325-0.172,0.646-0.375,0.96-0.644
	c-0.034,0.429-0.111,0.799-0.186,1.172l3.747,2.552c-0.348-1.535-0.73-3.354-1.146-5.69c1.793,1.569,3.584,3.612,5.18,6.672
	c1.69-0.435,3.423-0.976,5.187-1.617c-0.144-1.258-0.243-2.021-0.243-2.021s0.584,0.898,1.311,1.615
	c0.889-0.342,1.773-0.695,2.666-1.076c0.082-0.648,0.113-1.486,0.072-2.563c-0.338-8.773-3.037-15.859-7.761-28.682
	c7.761,3.713,7.423,10.459,9.447,10.796c5.418,0.903,2.024-8.772,1.013-20.921c-0.873-10.463-1.729-25.438,3.873-40.819
	c-7.722-6.219-15.876-11.19-20.197-11.62c-0.556,0-1.113,0.017-1.676,0.046c0.067,0.526,0.117,1.125,0.117,1.781
	C272.273,256.633,271.416,259.862,267.954,265.288z"/>
<path id="path3048" fill="#FFFFFF" d="M166.24,305.779c-3.19,9.847-4.947,13.833-1.012,13.833c2.362,0,9.448-7.083,9.448-7.083
	c-7.515,10.197-9.895,21.449-9.371,29.199c3.061,1.802,6.226,3.525,9.308,5c1.406-2.395,2.963-4.567,6.153-8.08
	c-0.609-0.559-1.098-1.122-1.53-1.609c0.92,0.211,1.812,0.333,2.663,0.381c0.283-0.304,0.569-0.609,0.875-0.934
	c-0.091,0.305-0.18,0.625-0.269,0.958c7.241,0.104,10.927-5.466,0.645-10.341c0,0,9.527,2.533,10.838-2.711
	c0.753-3.01-8.73-5.043-10.085-6.021c7.677-3.01,11.712,2.048,14.602-1.807c0.366-0.487,1.917-3.841,2.893-3.412
	c-0.088-1.445-0.184-2.871-0.288-4.285c-1.79-2.89-5.141-5.657-6.971-7.956c0,0,3.12,0.475,6.498,2.319
	c-1.369-14.099-4.113-26.701-11.289-37.944c-2.778-4.354-4.215-7.584-4.39-9.771l-7.735,2.867c-0.71,0.466-6.004,3.939-11.865,8.495
	C169.121,277.018,171.045,290.943,166.24,305.779z"/>
<path id="path3050" fill="#FFFFFF" d="M181.645,344.865c4.064,3.463,9.106-1.432,9.634-3.463c-4.628,0.453-7.417-0.52-9.286-1.787
	c-0.581,2.738-1.071,6.094-1.404,9.674c1.932,0.727,3.756,1.289,5.419,1.645C183.844,350.129,181.946,348.602,181.645,344.865z"/>
<path id="path3052" fill="#FFFFFF" d="M148.355,302.405c-0.299-8.678,1.532-16.823,4.537-24.204
	c-1.674,1.933-2.97,3.785-3.632,5.418h-0.001l0,0c-2.993,7.276-4.118,14.702-4.118,21.837c0,3.253,0.244,6.438,0.643,9.522
	c0.294,0.421,0.571,0.863,0.884,1.26C151.73,322.65,148.693,312.19,148.355,302.405z"/>
<path id="path3054" fill="#FFFFFF" d="M329.767,368.814c2.571-6.868,4.479-14.063,5.618-21.512c-1.075,2.125-2.404,4.52-3.896,6.721
	C331.21,358.467,330.792,363.508,329.767,368.814z"/>
<path id="path3056" fill="#FFFFFF" d="M195.183,432.916c-2.492-2.248-4.563-4.616-7.827-6.216
	C189.877,429.15,192.477,431.207,195.183,432.916z"/>
<path id="path3058" fill="#FFFFFF" d="M217.236,434.213c0.517-1.931,1.137-4.394,1.485-6.313c0.151-0.831,0.217-1.62,0.217-2.408
	c0-2.701-0.777-5.336-1.562-9.001c-0.204-0.929-0.285-1.766-0.285-2.554c0.006-3.29,1.431-5.663,1.969-9.985
	c0.121-0.973,0.207-1.814,0.267-2.581c-4.259-0.442-8.239-0.999-11.764-1.567C205.328,411.607,212.437,426.121,217.236,434.213z"/>
<path id="path3060" fill="#FFFFFF" d="M264.431,425.905c1.92,0.64,4.651,0.733,7.849,0.125c2.146-2.12,4.026-4.432,5.594-6.924
	c-0.541-0.422-1.313-1.074-2.223-1.859C260.867,421.003,261.674,424.983,264.431,425.905z"/>
<path id="path3062" fill="#FFFFFF" d="M198.999,404.512c2.18,0.619,5.185-2.024,7.398-4.896c-1.026-0.172-2.019-0.341-2.952-0.506
	C202.423,400.19,200.886,402.163,198.999,404.512z"/>
<path id="path3064" fill="#FFFFFF" d="M232.651,402.194c-0.139,0.507-0.284,1.013-0.469,1.494c-0.673,1.742-0.913,3.889-0.913,6.204
	c0,3.405,0.522,7.175,0.922,10.593c0.608,5.175,0.402,9.251,0.598,13.445c7.09-8.264,13.604-20.806,14.282-32.425
	c-4.065,0.504-8.225,0.724-12.35,0.724C234.028,402.229,233.342,402.205,232.651,402.194z"/>
<path id="path3066" fill="#FFFFFF" d="M188.649,415.909c-1.096,0.99-2.214,1.912-3.344,2.733
	C189.609,419.42,190.18,417.842,188.649,415.909z"/>
<path id="path3068" fill="#FFFFFF" d="M267.49,346.055l-6.616-4.506C261.413,343.147,264.358,346.165,267.49,346.055z"/>
<path id="path3070" fill="#FFFFFF" d="M270.506,366.18c0.248,0.66,0.537,1.291,0.85,1.861c1.688-4.96,2.992-10.188,3.615-15.412
	c-0.131-0.568-0.271-1.15-0.421-1.767l-4.753-3.238c-2.481,5.652-10.781,2.761-10.781,6.874c0,2.032,3.462,5.268,8.73,2.105
	c0,0-4.666,6.927-12.042,6.174c-2.574-0.262-4.516,0.979-4.516,3.611c0,2.334,2.408,2.334,3.838,4.063
	c1.354,1.582,1.354,3.312,1.656,5.418c-2.408-1.354-3.932-3.144-6.698-3.46c-6.548-0.753-1.354,5.268-4.215,10.387
	c-0.441,0.785-4.817-7.68-10.236-6.625c-1.256,0.244,1.806,4.367-0.602,9.785c-0.401-0.537-0.767-1.091-1.12-1.641
	c-0.539,1.564-1.067,3.059-1.063,4.576c0,0.399,0.036,0.802,0.118,1.211c0.315,1.568,0.558,3.648,0.558,5.869
	c-0.002,1.523-0.137,3.107-0.42,4.646c0.574,0.008,1.144,0.029,1.719,0.029c4.159,0,8.342-0.229,12.409-0.747
	c0.016-1.479-0.05-2.941-0.246-4.371c0.731,1.738,2.084,3.1,3.639,3.866c1.876-0.327,3.719-0.723,5.507-1.201
	c0.417-0.597,1.642-2.375,3.284-5.041c0.193-1.428,0.229-3.1,0.055-5.046c-1.35-15.185-4.049-17.548-4.049-17.548
	c4.386,2.363,5.399,3.039,7.423,5.736c1.295,1.728,2.934,2.373,4.444,2.127c1.414-3.086,2.782-6.381,3.981-9.838
	C271.008,367.818,270.805,367.024,270.506,366.18z"/>
<path id="path3072" fill="#FFFFFF" d="M218.722,392.52c-0.189-1.232-0.272-2.148-0.272-2.92c0-2.008,0.564-3.012,1.29-5.912
	c0.233-0.945,0.338-1.551,0.338-1.998c0-0.029-0.002-0.057-0.003-0.086c-0.971,1.332-1.817,2.894-2.905,4.354
	c-2.409-5.418,0.653-9.541-0.603-9.784c-5.418-1.056-9.795,7.409-10.235,6.623c-2.86-5.119,2.333-11.139-4.215-10.386
	c-2.353,0.271-3.811,1.604-5.674,2.829c-0.389,1.505-0.79,3.292-1.131,5.238c0.358,0.863,0.718,1.727,1.077,2.544
	c3.345,7.643,6.505,13.187,7.281,14.52c1.173,0.208,2.445,0.422,3.762,0.638c0.374-0.563,0.71-1.115,0.988-1.633
	c-0.204,0.56-0.354,1.135-0.507,1.709c3.458,0.558,7.346,1.1,11.501,1.532c0.007-0.25,0.015-0.501,0.015-0.738
	C219.428,396.901,219.139,395.234,218.722,392.52z"/>
<path id="path3074" fill="#FFFFFF" d="M188.413,357.914c2.912,0.075,4.672-1.969,4.672-3.415c0-2.069-2.102-2.364-4.508-2.862
	l-0.949,0.664C187.795,354.159,188.081,356.036,188.413,357.914z"/>
<path id="path3076" fill="#FFFFFF" d="M197.073,370.454c1.43-1.729,3.838-1.729,3.838-4.063c0-2.635-1.943-3.873-4.516-3.611
	c-2.943,0.301-5.446-0.627-7.401-1.844c1.148,5.287,2.808,10.511,4.618,15.289c0.781-0.783,1.485-1.635,2.086-2.444
	C195.888,372.567,196.196,371.479,197.073,370.454z"/>
<path id="path3078" fill="#FFFFFF" d="M131.823,329.4c0,0,2.285,4.105,5.011,7.52c1.516-1.309,3.057-2.488,4.551-3.506
	c-1.03-2.311-2.307-5.525-4.165-11.1c-2.699-8.1-3.037-21.935,1.688-32.731c0,8.555,1.72,16.234,4.941,22.257
	c-0.182-2.092-0.289-4.221-0.289-6.383c0-7.025,1.069-14.365,3.896-21.585c-3.449-0.772-7.223-0.966-10.043-0.966
	c-0.152,0-0.278,0.004-0.424,0.005c-0.899,1.06-4.36,5.179-7.912,9.976c-2.023,2.711-4.057,5.669-5.655,8.364
	c-2.641,9.382-4.085,19.267-4.085,29.495c0,1.63,0.051,3.246,0.123,4.857c1.038,6.385,3.048,12.097,6.149,16.035
	c1.414-3.691,3.975-7.345,6.966-10.592C131.108,334.829,131.823,329.4,131.823,329.4z"/>
<path id="path3080" fill="#FFFFFF" d="M130.136,365.842c-0.675-2.023-1.688-5.736-1.351-10.797
	c3.712,12.146,17.209,20.244,20.583,21.596c3.374,1.351,4.724-0.676,0-4.726c-4.724-4.049-6.749-7.422-6.749-7.422
	s5.735,2.698,8.773,1.687c3.037-1.012,2.024-1.351-3.375-4.725c-5.398-3.373-8.098-5.061-12.823-13.497
	c-0.928-1.657-1.615-3.38-2.131-5.077c-2.921,3.301-5.325,6.947-6.372,10.465c-0.005,0.396-0.008,0.791-0.008,1.193
	c0.015,4.821,0.348,10.307,1.397,16.018c0.009,0.002,0.019,0.006,0.028,0.009C130.811,371.24,131.622,370.299,130.136,365.842z"/>
<path id="path3082" fill="#FFFFFF" d="M184.354,356.604c0.847,0.51,1.641,0.837,2.387,1.047c-0.288-1.697-0.522-3.396-0.68-5.082
	c-1.733-0.354-3.631-0.936-5.612-1.659c-0.895,11.41-0.144,24.495,4.349,27.417c2.705,1.758,5.353,0.807,7.558-0.967
	c-2.112-5.501-4.058-11.624-5.269-17.82C185.333,358.045,184.354,356.604,184.354,356.604z"/>
<path id="path3084" fill="#FFFFFF" d="M147.344,392.835c3.375-1.011,2.844-2.86-0.674-3.036c-3.485-0.175-8.317-1.164-12.875-4.908
	c2.857,4.967,6.11,9.672,9.688,14.105C143.833,395.487,144.528,393.678,147.344,392.835z"/>
<path id="path3086" fill="#FFFFFF" d="M166.24,346.946c2.362,7.084,4.386,7.084,6.749,2.698c0.292-0.543,0.568-1.049,0.84-1.541
	c-2.765-1.321-5.583-2.831-8.325-4.416C165.677,344.889,165.921,345.991,166.24,346.946z"/>
<path id="path3088" fill="#FFFFFF" d="M160.503,397.898c-5.561-0.931-10.56,0.144-15.768,2.66c1.954,2.333,4.011,4.575,6.154,6.733
	c4.184-2.524,7.771-3.773,13.326-5.009C170.289,400.934,166.578,398.91,160.503,397.898z"/>
<path id="path3090" fill="#FFFFFF" d="M183.1,418.221c1.488-0.96,2.977-2.135,4.439-3.457c-0.665-0.581-1.479-1.159-2.403-1.682
	c-7.36-4.161-23.813-7.101-33.839-5.378c0.204,0.197,0.413,0.389,0.616,0.587c6.557,4.423,14.795,8.063,25.093,10.51
	C178.637,418.091,180.618,417.84,183.1,418.221z"/>
<path id="path3092" fill="#FFFFFF" d="M140.933,340.872c4.049,2.362,4.724,1.687,3.037-2.026c-0.634-1.393-1.228-2.526-1.917-3.979
	c-1.373,0.954-2.79,2.064-4.191,3.281C138.886,339.305,139.939,340.292,140.933,340.872z"/>
<path id="path3094" fill="#FFFFFF" d="M194.861,383.469c-0.782,6.254-0.67,13.613,2.422,19.489c0.131,0.25,0.277,0.449,0.428,0.637
	c1.856-2.293,3.409-4.27,4.488-5.446C201.251,396.507,198.129,390.961,194.861,383.469z"/>
<path id="path3096" fill="#FFFFFF" d="M138.479,269.175c-5.573,8.086-10.064,16.966-13.3,26.433
	c4.434-6.424,9.704-12.624,10.685-13.799C135.99,280.585,136.587,275.036,138.479,269.175z"/>
<path id="path3098" fill="#FFFFFF" d="M175.085,419.964c-6.656-1.685-12.454-3.884-17.485-6.48c4.5,3.833,9.332,7.276,14.417,10.341
	C172.865,422.281,173.852,420.956,175.085,419.964z"/>
<path id="path3100" fill="#FFFFFF" d="M173.903,424.952c6.222,3.578,12.824,6.571,19.746,8.876c-3.389-2.222-6.61-4.98-9.712-8.362
	C181.37,424.825,178.148,424.585,173.903,424.952z"/>
<path id="path3102" fill="#FFFFFF" d="M120.316,345.152c1.079,8.138,3.036,15.995,5.812,23.459
	c-0.781-5.029-1.037-9.825-1.023-14.072c0-0.354,0.004-0.701,0.007-1.047C123.116,351.215,121.537,348.365,120.316,345.152z"/>
<path id="path3104" fill="#FFFFFF" d="M270.247,429.946c-0.802,0.655-1.621,1.297-2.476,1.905
	c13.996-5.515,26.589-13.817,37.047-24.276c0.138-0.137,0.267-0.285,0.404-0.424c-6.692,4.731-15.115,8.977-25.78,12.41
	c-1.253,2.04-2.709,3.957-4.328,5.756c1.024-0.306,2.071-0.656,3.152-1.104C278.267,424.215,275.207,426.862,270.247,429.946z"/>
<path id="path3106" fill="#FFFFFF" d="M157.467,253.141c2.354,2.472,5.075,6.712,7.294,12.198
	c5.371-4.146,10.187-7.331,11.397-8.136c0.436-2.655,3.643-19.933,17.079-29.395c-16.021,5.407-30.381,14.417-42.077,26.113
	c-3.183,3.184-6.146,6.583-8.917,10.14c-1.53,3.03-2.617,6.443-3.351,9.484c-0.838,3.452-1.235,6.395-1.394,7.784
	c2.96,0.004,6.906,0.217,10.59,1.078c1.275-2.636,3.707-5.548,6.626-8.434C157.764,266.54,157.467,260.436,157.467,253.141z"/>
<path id="path3108" fill="#FFFFFF" d="M298.05,265.95c5.727,5.007,10.84,10.486,13.655,15.112c1.303-0.101,5.028-0.366,8.232-0.366
	c1.104,0.001,2.112,0.035,2.988,0.119c-0.479-1.068-1.277-2.749-2.469-4.924c-2.101-3.836-5.367-9.103-10.025-14.819
	c-8.833-10.831-22.648-23.253-43.003-30.59c5.827,5.856,13.208,15.588,14.782,24.021c3.759,2.092,7.935,4.981,11.99,8.227
	c0.769-1.958,1.623-3.918,2.621-5.876C297.184,259.853,297.599,262.907,298.05,265.95z"/>
<path id="path3110" fill="#FFFFFF" d="M271.459,372.393c-0.641,1.664-1.311,3.285-1.998,4.854
	C270.533,376.217,271.293,374.553,271.459,372.393z"/>
<path id="path3112" fill="#FFFFFF" d="M276.24,361.116c-0.105-1.455-0.232-2.674-0.377-3.756c-0.81,4.217-2,8.368-3.4,12.325
	C274.582,372.174,276.994,371.389,276.24,361.116z"/>
<path id="path3114" fill="#FFFFFF" d="M312.008,357.406c-10.461,8.1-11.471,11.136-15.857,17.207
	c-4.387,6.075,2.699,4.389,10.797-0.676c-2.023,5.738-2.699,6.751,2.024,5.4c4.725-1.349,12.822-10.461,12.822-10.461
	s-3.711,6.75-1.688,9.112c1.547,1.803,3.759,1.226,5.876-0.919c2.729-8.295,3.462-16.405,3.938-23.243
	c-1.045-5.007-3.365-9.351-5.885-12.838C322.909,347.596,319.596,351.532,312.008,357.406z"/>
<path id="path3116" fill="#FFFFFF" d="M318.132,334.328c-1.057,1.395-2.295,2.891-3.763,4.518c-3.039,3.375-1.668,4.129,1.352,3.377
	c1.824-0.455,3.956-1.229,5.979-4.179c-0.106-0.124-0.216-0.264-0.322-0.386C320.211,336.333,319.1,335.227,318.132,334.328z"/>
<path id="path3118" fill="#FFFFFF" d="M280.291,355.045c2.023,6.41,4.047,7.422,3.709,1.688c-0.156-2.686-0.389-5.217-0.59-7.157
	c-1.568,0.563-3.121,1.056-4.645,1.462C279.305,352.227,279.817,353.547,280.291,355.045z"/>
<path id="path3120" fill="#FFFFFF" d="M306.346,404.356c2.268-1.73,4.311-3.519,6.15-5.349c1.235-1.527,2.43-3.09,3.58-4.684
	c-5.244,3.815-10.742,4.921-17.565,4.921C291.045,399.246,298.648,403.212,306.346,404.356z"/>
<path id="path3122" fill="#FFFFFF" d="M275.229,410.046c-1.619,0.703-2.592,1.359-3.103,1.967c1.48,1.331,2.839,2.54,3.984,3.54
	c1.369,0.29,2.93,0.486,4.518,0.564c-1.094,0.222-2.114,0.447-3.086,0.672c0.658,0.562,1.181,0.987,1.517,1.232
	c9.801-3.193,17.659-7.042,23.983-11.305c-2.605,0.619-5.949,1.169-9.932,1.303C287.34,408.214,282.99,406.672,275.229,410.046z"/>
<path id="path3124" fill="#FFFFFF" d="M311.672,388.45c-4.935,3.699,0.276,4.015,6.36,3.013c1.698-2.517,3.313-5.091,4.803-7.75
	c-0.012,0.002-0.02,0.01-0.027,0.014C319.298,385.227,317.069,384.401,311.672,388.45z"/>
<polygon id="polygon3126" fill="#FFFFFF" points="195.624,227 195.614,227.004 195.686,227.124 "/>
<path id="path3128" fill="#FFFFFF" d="M187.061,251.42c1.043-0.163,0.87-2.43,0.87-2.43s0.696,0.971,1.738,0.809
	c1.043-0.162,1.043-2.186,1.043-2.186s0.869,1.214,1.912,1.053c1.043-0.163,1.216-1.944,1.216-1.944s0.869,1.133,2.086,1.133
	c1.216,0,1.39-1.782,1.39-1.782s0.174,1.296,1.391,1.134c1.216-0.162,1.737-1.782,1.737-1.782s0.522,1.539,1.651,1.377
	c1.13-0.162,1.304-1.944,1.304-1.944s0.174,1.539,1.738,1.458s1.304-1.863,1.304-1.863s0.347,1.701,1.564,1.62
	c1.216-0.081,1.65-1.943,1.65-1.943s0.174,1.701,1.391,1.62c1.217-0.081,1.564-1.862,1.564-1.862s0.087,1.619,1.304,1.539
	c1.216-0.082,1.564-1.943,1.564-1.943s0.348,1.862,1.651,1.781c1.303-0.081,1.304-1.943,1.304-1.943s0.695,1.62,1.912,1.62
	c1.216,0,1.737-1.943,1.737-1.943s0.174,1.862,1.739,1.862c1.199,0,1.477-1.088,1.542-1.599c-0.003,0.47,0.169,1.423,1.586,1.599
	c0.968,0.12,1.456-0.964,1.571-1.531c0.141,0.566,0.676,1.651,1.645,1.531c1.347-0.167,1.522-1.031,1.513-1.52
	c0.083,0.536,0.39,1.52,1.529,1.52c1.564,0,1.738-1.862,1.738-1.862s0.522,1.943,1.738,1.943c1.217,0,1.912-1.62,1.912-1.62
	s0,1.862,1.304,1.943c1.304,0.081,1.65-1.781,1.65-1.781s0.349,1.862,1.564,1.943c1.217,0.08,1.303-1.539,1.303-1.539
	s0.348,1.781,1.564,1.862c1.217,0.081,1.391-1.62,1.391-1.62s0.435,1.863,1.651,1.943c1.216,0.081,1.564-1.62,1.564-1.62
	s-0.261,1.782,1.303,1.863s1.739-1.458,1.739-1.458s0.173,1.782,1.303,1.944s1.651-1.377,1.651-1.377s0.522,1.62,1.738,1.782
	c1.217,0.162,1.391-1.134,1.391-1.134s0.173,1.782,1.39,1.782s2.086-1.133,2.086-1.133s0.173,1.781,1.216,1.944
	c1.043,0.161,1.911-1.053,1.911-1.053s0,2.024,1.043,2.186c1.043,0.162,1.738-0.809,1.738-0.809s-0.133,1.858,0.625,2.32
	c0.426-0.046,0.85-0.083,1.274-0.114c0.254-0.192,0.36-0.425,0.36-0.425s0.043,0.147,0.103,0.39
	c0.684-0.042,1.365-0.072,2.043-0.073c1.884,0.239,4.256,1.116,6.896,2.45c-2.203-8.8-11.075-19.525-16.576-24.288
	c-8.176-3.229-24.905-5.783-40.349-5.776c-10.915-0.006-21.232,1.287-27.398,4.359c-7.772,4.618-12.391,12.086-15.055,18.435
	c-1.858,4.424-2.758,8.258-3.132,10.182l7.103-2.63c0.123-1.767,0.678-3.048,0.678-3.048S186.019,251.582,187.061,251.42z"/>
<path id="path3130" fill="#009B7A" d="M313.357,345.596c-1.476,0.619-4.892,2.697-7.592,5.904c-0.17-8.098,7.93-17.546,10.46-20.414
	c2.53-2.867,5.735-6.916,5.062-13.16c-0.399-3.703-2.868-6.918-4.724-14.17c-3.038,11.471-8.436,10.627-11.474,4.721
	c-3.037-5.901-7.592-25.305-8.94-37.791c-3.375,8.773-4.387,30.033-2.362,42.179s5.397,24.633,2.024,40.152
	c-0.338-7.086-1.181-12.821-3.374-17.545c-2.42-5.213-4.454-4.203-3.712,0c3.037,17.209-4.05,34.08-3.374,43.528
	c-2.025-7.087-1.688-10.799-3.375-13.497c-1.686-2.697-3.374-4.389-3.374,2.022s-2.362,16.198-5.735,21.935
	c1.349-5.398,1.349-7.423,1.012-10.123c-0.338-2.699-3.037-4.05-4.387,1.687c-1.35,5.739-0.674,17.886-6.749,26.659
	c1.012-6.75,1.702-5.399,0.353-13.838c-1.42,12.396-12.837,10.8-12.837,10.8s-1.315,21.175-18.333,33.756
	c-0.207,0.255-0.44,0.479-0.688,0.684c5.731,0.932,14.088-1.078,25.094-4.916c11.135-3.879,10.966-6.241,7.254-5.734
	c-3.712,0.506-5.061,0.339-8.773,0c0,0,2.193-1.182,3.374-3.037c1.181-1.854,3.037-4.216,6.074-6.072
	c3.037-1.856,6.074-2.192,6.074-2.192s-2.025-1.015-4.725-0.17c-2.699,0.843-5.567,2.192-9.279,1.013
	c5.736-0.17,8.604-2.192,10.966-4.22c2.361-2.021,4.893-5.904,11.641-7.758c6.747-1.855,11.137-0.51,12.99-0.34
	c1.855,0.17,3.543-1.181,0.844-2.362c-2.697-1.181-6.242-1.181-9.785-0.842c4.217-4.049,10.799-5.569,15.186-7.256
	s12.82-7.253,16.364-14.849c-2.193,2.025-3.558,2.656-8.772,4.22c-3.375,1.014-4.387,3.882-4.387,3.882s-0.676-4.725,0.844-7.086
	c0,0-6.243,3.709-11.643,3.204c0.17-11.302,13.498-23.788,17.886-28.007c4.386-4.219,7.712-6.315,9.784-10.461
	C320.444,341.717,316.563,344.245,313.357,345.596z"/>
<path id="path3132" fill="#009B7A" d="M216.39,437.248c-9.661-8.809-10.675-25.87-11.683-29.229
	c-1.012-3.374-4.387,1.012-3.037,4.049c1.349,3.037,3.037,10.124,2.361,14.509c0,0-4.049-11.135-9.11-19.233
	c-4.082-6.53-5.736-16.194-5.736-24.293c-7.085,2.362-12.147-6.41-12.147-13.16c0-6.748,0.675-22.943,0.675-22.943
	s-2.896,4.866-4.724,10.121c-2.7,7.762,3.037,12.822-0.338,21.596c-0.337-8.436-4.723-17.547-7.761-25.98
	c-3.037-8.438-4.724-15.522,0-27.33c-4.724,1.348-7.423-4.725-4.387-12.822c3.037-8.102,9.786-29.357-0.337-51.628
	c-0.675,8.773-1.35,13.498-4.386,19.908c-3.037,6.411-5.062,19.91-4.05,30.031c1.013,10.123,4.05,19.571,5.062,30.031
	c-1.688-5.398-6.074-13.834-10.461-19.572c-4.386-5.735-5.736-7.084-7.761-16.195c-1.687,11.136,9.448,37.794,12.485,41.168
	c3.037,3.373,6.749,8.773,6.749,8.773s-3.375-3.375-9.449-6.752c-6.073-3.373-9.447-2.361-13.16-8.098
	c2.7,7.423,7.424,13.498,14.173,18.223s8.436,6.074,11.81,10.459c3.374,4.389,6.749,9.448,6.749,9.448s-5.622-4.705-9.786-7.086
	c-2.362-1.351-8.773-2.022-8.773-2.022s4.049,2.361,7.085,6.748c3.037,4.385,12.147,12.484,12.147,12.484s-7.761-5.063-15.184-7.762
	s-14.172-5.061-18.222-9.784c1.013,4.385,6.074,10.796,14.847,13.158c-13.834-1.013-17.208-6.411-20.583-9.449
	c2.699,7.426,8.098,11.476,16.534,12.485c8.436,1.013,13.497,4.726,13.497,4.726s-7.085-1.351-12.484,4.724
	c7.423-2.024,12.147-2.701,20.246,0.677c8.099,3.373,16.534,7.422,25.645,17.882c6.162,7.074,8.436,14.509,14.847,18.558
	c-2.024,0-11.948-6.549-16.196-10.796c-3.037-3.037-10.123-2.701-15.184-0.339c7.423-0.336,11.81,0.676,16.534,4.725
	c4.705,4.031,9.417,10.404,23.457,10.122l0.012-0.045C216.366,437.33,216.375,437.299,216.39,437.248z"/>
<path id="path3134" fill="#009B7A" d="M223.246,378.832c0.005,0.151,0.01,0.299,0.01,0.452c0,1.522-0.201,3.252-0.86,4.837
	c-0.459,1.1-0.637,1.961-0.637,2.729c-0.01,1.998,1.25,3.418,1.995,6.627c0.174,0.754,0.249,1.594,0.249,2.479
	c0,4.316-1.774,9.817-2.612,13.45c-0.285,1.223-0.406,2.513-0.406,3.849c-0.003,3.375,0.79,7.061,1.755,10.922
	c0.328,1.308,0.458,2.465,0.458,3.512c-0.003,3.308-1.305,5.505-1.808,8.035c-0.114,0.566-0.17,1.038-0.17,1.42
	c0.029,1.143,0.41,1.409,1.296,1.438c0.513,0,1.187-0.129,1.985-0.328c0.257-0.552,2.113-4.621,2.113-9.885
	c0-1.417-0.135-2.917-0.466-4.456c-0.793-3.657-0.678-4.744-1.352-8.104c-0.17-0.851-0.256-1.534-0.256-2.151
	c0.003-1.878,0.781-3.101,2.291-6.378c0.827-1.802,1.024-2.665,1.024-3.383c0-0.702-0.194-1.315-0.194-2.518
	c0-0.563,0.043-1.26,0.171-2.154c0.335-2.359,0.419-4.123,0.419-5.719c0-1.599-0.082-3.029-0.082-4.72
	c-0.003-3.383,0.341-5.453,1.703-8.17c0.163-0.327,0.276-0.625,0.393-0.925c-1.07-0.862-2.39-1.411-4.218-1.411
	C224.948,378.28,224.037,378.487,223.246,378.832z"/>
<path id="path3136" fill="#9D3393" d="M229.083,246.543c-0.042,0-0.039,0.121,0.006,0.295
	C229.127,246.664,229.125,246.543,229.083,246.543z"/>
<path id="path3138" fill="#9D3393" d="M227.439,262.928C226.726,262.939,228.958,263.001,227.439,262.928L227.439,262.928z"/>
<path id="path3140" fill="#9D3393" d="M232.012,246.849c-0.004-0.178-0.032-0.306-0.032-0.306S231.982,246.67,232.012,246.849z"/>
<path id="path3142" fill="#9D3393" d="M190.62,256.093c-0.337,0.759-0.253,1.096,0.506,1.519c0.759,0.422,2.108-1.181,2.108-1.181
	s-0.59,1.771,0.675,2.361c1.265,0.591,2.446-1.434,2.446-1.434s-0.506,2.025,0.843,2.447c1.35,0.421,2.193-1.519,2.193-1.519
	s-0.421,2.193,1.181,2.446c1.603,0.254,2.193-2.024,2.193-2.024s-0.271,2.284,1.603,2.616c1.435,0.252,2.193-1.771,2.193-1.771
	s-0.084,1.939,1.519,2.193c1.603,0.252,2.109-1.856,2.109-1.856s-0.168,2.024,1.772,2.277c1.939,0.253,1.855-2.108,1.855-2.108
	s0.337,2.193,2.277,2.362c1.94,0.169,1.855-2.108,1.855-2.108s-0.084,2.277,2.025,2.361c2.108,0.085,1.855-2.193,1.855-2.193
	s0.169,2.446,1.94,2.446s1.771-2.446,1.771-2.446s0.084,2.362,1.856,2.446c0.016,0.001,0.025,0.001,0.041,0.002
	c0.071-0.001,0.161-0.002,0.296-0.002c1.519,0,1.772-2.614,1.772-2.614s0,2.699,1.771,2.614c1.771-0.084,1.856-2.446,1.856-2.446
	s0,2.446,1.771,2.446c1.772,0,1.94-2.446,1.94-2.446s-0.252,2.278,1.856,2.193c2.109-0.084,2.024-2.361,2.024-2.361
	s-0.084,2.277,1.856,2.108c1.94-0.168,2.277-2.362,2.277-2.362s-0.084,2.362,1.856,2.108c1.939-0.253,1.771-2.277,1.771-2.277
	s0.507,2.108,2.109,1.856c1.603-0.254,1.518-2.193,1.518-2.193s0.759,2.024,2.194,1.771c1.874-0.332,1.603-2.616,1.603-2.616
	s0.589,2.278,2.193,2.024c1.602-0.253,1.181-2.446,1.181-2.446s0.844,1.94,2.194,1.519c1.349-0.422,0.843-2.447,0.843-2.447
	s1.181,2.025,2.446,1.434c1.265-0.59,0.675-2.361,0.675-2.361s1.349,1.603,2.108,1.181c0.759-0.422,0.844-0.674,0.507-1.434
	c2.867-0.168,0.68-2.716,0.68-2.716s-0.321,0.721-1.287,0.577c-0.965-0.144-0.804-2.162-0.804-2.162s-0.644,0.864-1.609,0.72
	c-0.966-0.145-0.966-1.946-0.966-1.946s-0.804,1.081-1.77,0.937c-0.965-0.145-1.126-1.73-1.126-1.73s-0.804,1.009-1.931,1.009
	c-1.126,0-1.287-1.586-1.287-1.586s-0.16,1.154-1.287,1.009c-1.126-0.144-1.609-1.585-1.609-1.585s-0.483,1.369-1.529,1.225
	c-1.046-0.144-1.207-1.729-1.207-1.729s-0.161,1.369-1.608,1.297c-1.449-0.073-1.208-1.658-1.208-1.658s-0.321,1.513-1.448,1.441
	c-1.126-0.071-1.528-1.729-1.528-1.729s-0.161,1.514-1.288,1.441c-1.125-0.071-1.448-1.657-1.448-1.657s-0.08,1.442-1.207,1.369
	c-1.126-0.072-1.448-1.729-1.448-1.729s-0.321,1.657-1.528,1.585c-1.208-0.071-1.208-1.73-1.208-1.73s-0.643,1.442-1.77,1.442
	c-1.125,0-1.608-1.73-1.608-1.73s-0.161,1.658-1.609,1.658c-1.054,0-1.338-0.874-1.416-1.352c0.008,0.436-0.153,1.203-1.399,1.352
	c-0.896,0.106-1.392-0.859-1.522-1.363c-0.107,0.504-0.558,1.47-1.454,1.363c-1.311-0.157-1.471-1.004-1.468-1.423
	c-0.061,0.456-0.319,1.423-1.428,1.423c-1.448,0-1.608-1.658-1.608-1.658s-0.482,1.73-1.609,1.73s-1.77-1.442-1.77-1.442
	s0,1.659-1.206,1.73c-1.208,0.072-1.529-1.585-1.529-1.585s-0.322,1.657-1.448,1.729c-1.126,0.073-1.207-1.369-1.207-1.369
	s-0.322,1.585-1.448,1.657c-1.126,0.073-1.288-1.441-1.288-1.441s-0.402,1.659-1.528,1.729c-1.126,0.072-1.448-1.441-1.448-1.441
	s0.241,1.585-1.208,1.658c-1.448,0.072-1.608-1.297-1.608-1.297s-0.161,1.585-1.207,1.729c-1.046,0.144-1.529-1.225-1.529-1.225
	s-0.483,1.442-1.609,1.585c-1.125,0.145-1.287-1.009-1.287-1.009s-0.161,1.586-1.287,1.586c-1.126,0-1.93-1.009-1.93-1.009
	s-0.161,1.585-1.126,1.73c-0.965,0.144-1.77-0.937-1.77-0.937s0,1.801-0.965,1.946c-0.965,0.144-1.609-0.72-1.609-0.72
	s0.161,2.018-0.804,2.162c-0.965,0.144-1.288-0.577-1.288-0.577S187.919,256.346,190.62,256.093z"/>
<path id="path3144" fill="#9D3393" d="M226.167,246.778c0.019-0.139,0.02-0.235,0.02-0.235S226.168,246.636,226.167,246.778z"/>
<path id="path3146" fill="#9D3393" d="M192.729,261.913c-2.024-2.361-5.568-2.699,1.181,7.086c5.376,7.796,7.86,25.009,9.332,35.954
	c0.275,0.219,0.551,0.434,0.818,0.673C202.854,272.391,194.639,264.142,192.729,261.913z"/>
<path id="path3148" fill="#9D3393" d="M200.658,269.169c4.218,8.437,6.242,33.742,6.411,39.31
	c0.336-25.813-2.531-37.284-4.387-43.358C201.949,262.72,197.52,262.892,200.658,269.169z"/>
<path id="path3150" fill="#9D3393" d="M209.599,266.468c-0.254-2.495-3.766-2.886-2.699,4.049
	c1.152,7.486,2.671,15.484,3.931,28.984c0.228,0.273,0.454,0.545,0.676,0.819C211.548,279.956,210.366,273.976,209.599,266.468z"/>
<path id="path3152" fill="#9D3393" d="M212.805,271.53c0.675,9.617,1.688,15.353,3.038,33.573
	c0.337-25.813,0.506-29.355-0.338-37.622C215.25,264.986,212.313,264.53,212.805,271.53z"/>
<path id="path3154" fill="#9D3393" d="M220.372,294.452c0.376-17.825,0.935-19.887,0.194-27.14c-0.254-2.494-3.19-2.951-2.699,4.05
	c0.674,9.616,1.012,13.328,2.362,31.549c0.03-2.323,0.064-4.442,0.102-6.395c-0.131-0.856-0.283-1.762-0.453-2.83
	C220.015,293.926,220.187,294.184,220.372,294.452z"/>
<path id="path3156" fill="#9D3393" d="M225.796,267.65c-0.254-2.495-3.191-2.951-2.7,4.05c0.647,9.215,0.368,13.044,1.531,29.378
	c0.063,0.143,0.122,0.288,0.182,0.432C225.19,277.375,226.621,275.726,225.796,267.65z"/>
<path id="path3158" fill="#9D3393" d="M262.576,269.337c6.749-9.785,3.206-9.448,1.181-7.085
	c-1.91,2.229-10.121,10.473-11.33,43.686c0.266-0.207,0.536-0.412,0.813-0.615C254.71,294.378,257.193,277.141,262.576,269.337z"/>
<path id="path3160" fill="#9D3393" d="M253.634,264.95c-1.855,6.074-4.724,17.547-4.387,43.36
	c0.169-5.568,2.193-30.875,6.411-39.312C258.796,262.723,254.367,262.551,253.634,264.95z"/>
<path id="path3162" fill="#9D3393" d="M249.416,270.349c1.067-6.935-2.444-6.544-2.699-4.049
	c-0.752,7.368-1.905,13.274-1.908,32.743c0.258-0.234,0.514-0.456,0.766-0.659C246.816,285.456,248.292,277.659,249.416,270.349z"/>
<path id="path3164" fill="#9D3393" d="M240.643,267.312c-0.844,8.267-0.675,11.811-0.337,37.622
	c1.349-18.219,2.362-23.956,3.036-33.571C243.833,264.361,240.897,264.818,240.643,267.312z"/>
<path id="path3166" fill="#9D3393" d="M237.774,271.699c0.491-7.001-2.444-6.544-2.7-4.05c-0.826,8.097-0.034,9.735,0.316,34.046
	c0.055-0.186,0.119-0.371,0.178-0.557C236.788,284.754,237.127,280.926,237.774,271.699z"/>
<path id="path3168" fill="#9D3393" d="M231.532,271.362c0.491-7-2.445-6.544-2.699-4.05c-0.775,7.605,0.446,9.515,0.91,29.864
	c0.188-0.267,0.373-0.523,0.554-0.771C231.122,283.618,230.947,279.705,231.532,271.362z"/>
<path id="path3170" fill="#009B7A" d="M252.067,324.155c-1.741,0.842-4.216,1.742-7.354,1.742c-5.87,0-8.43-6.171-8.43-6.171
	s-2.258,6.774-10.235,6.774c-7.979,0-10.235-6.774-10.235-6.774s-2.56,6.171-8.43,6.171c-3.326,0-5.977-1.015-7.648-1.894
	c1.274-1.859,2.98-3.5,4.609-5.046c5.689,5.394,6.484-6.028,6.484-6.028s0.001,5.276,4.84,5.445c7.375,0.26,9.911-9.334,9.911-9.334
	s2.305,9.594,9.68,9.334c4.838-0.169,5.301-5.705,5.301-5.705s0.152,9.764,6.195,5.146
	C248.813,319.569,250.512,321.932,252.067,324.155L252.067,324.155z"/>
<path id="path3172" fill="#009B7A" d="M194.438,337.422c7.7,7.715,12.343-0.383,12.343-0.383s0.002,3.717,6.322,3.913
	c9.633,0.299,12.945-8.431,12.945-8.431s3.612,8.431,13.246,8.128c6.319-0.197,6.322-3.913,6.322-3.913s4.508,7.91,12.156,0.564
	c-0.659-4.273-2.342-8.338-4.513-11.875c-0.67,1.217-3.366,5.59-8.246,5.59c-5.687,0-9.074-9.168-9.074-9.168
	s-2.187,8.865-9.916,8.865c-7.728,0-9.915-8.865-9.915-8.865s-3.943,8.869-9.63,8.869c-4.666,0-6.867-3.68-7.544-5.015
	C196.765,329.326,195.019,333.045,194.438,337.422L194.438,337.422z"/>
<path id="path3174" fill="#009B7A" d="M194.289,342.608c7.622,7.055,12.494-2.56,12.494-2.56s0.002,6.123,6.322,6.32
	c9.633,0.303,12.945-10.836,12.945-10.836s3.01,11.139,12.644,10.836c6.319-0.197,6.924-6.624,6.924-6.624s4.48,10.867,12.494,2.259
	c0,3.764-1.004,7.604-1.591,9.484c-0.896,0.619-5.422,3.1-10.812,3.1c-6.223,0-8.935-4.867-8.935-4.867s-2.394,6.638-10.85,6.638
	c-8.456,0-10.85-6.638-10.85-6.638s-2.712,4.867-8.935,4.867c-5.55,0-9.525-2.638-10.276-3.171
	C195.355,349.79,194.138,345.617,194.289,342.608L194.289,342.608z"/>
<path id="path3176" fill="#009B7A" d="M243.748,368.48c5.153-3.42,9.249-8.305,11.695-14.063c-1.225,1.563-5.618,5.438-10.378,5.438
	c-6.029,0-8.656-8.055-8.656-8.055s-2.318,9.863-10.511,9.863c-8.191,0-10.51-9.863-10.51-9.863s-2.627,8.055-8.655,8.055
	c-5.077,0-8.53-3.528-9.521-4.863c2.475,5.518,6.887,10.33,11.879,13.639c2.545-0.742,4.062-4.354,4.062-4.354s0.002,6.09,4.2,6.207
	c6.399,0.179,8.599-7.043,8.599-7.043s2.4,7.043,8.798,6.863c4.199-0.117,4.2-6.207,4.2-6.207s1.531,3.789,4.26,4.4L243.748,368.48
	L243.748,368.48z"/>
<path id="path3178" fill="#E7A614" d="M53.608,46.084c17.351-5.639,46.413-10.845,62.463-12.146
	c-25.158,6.94-46.848,20.82-46.848,20.82s56.39-20.386,78.08-22.556C118.241,39.576,90.479,59.53,90.479,59.53
	s38.171-17.35,52.052-21.254C117.806,46.95,94.816,75.58,94.816,75.58s41.208-31.665,68.102-42.509
	c-39.039,16.917-56.823,52.919-56.823,52.919s32.966-36.871,47.715-40.774c-17.351,9.109-23.424,34.702-23.424,34.702
	s27.761-45.545,63.33-51.185c-11.278-7.374-25.158-8.675-37.737-5.639c-12.58,3.036-32.533,7.808-45.98,7.808
	C96.551,30.902,60.548,41.746,53.608,46.084L53.608,46.084z"/>
<path id="path3180" fill="#FFE300" d="M297.17,156.261c1.904,1.076,3.004,4.017,3.47,5.965c0.466,1.948,1.534,4.47,3.206,4.072
	c1.668-0.399,2.579-4.17,2.65-5.807c0.108-2.495-1.17-6.795-3.688-10.194c-0.65,4.229-4.046,5.564-4.046,5.564
	s-3.212-2.45-5.281-3.721C292.808,151.726,295.266,155.186,297.17,156.261L297.17,156.261z"/>
<path id="path3182" fill="#E7A614" d="M194.801,31.119c-29.642,5.319-38.822,34.918-38.822,34.918s17.35-26.46,35.785-30.147
	C199.432,34.357,203.259,29.6,194.801,31.119L194.801,31.119z"/>
<path id="path3184" fill="#E7A614" d="M200.448,33.513c-15.198,10.563-20.396,27.318-20.396,27.318s10.818-16.497,24.446-25.254
	C208.128,33.244,205.449,30.036,200.448,33.513L200.448,33.513z"/>
<path id="path3186" fill="#E7A614" d="M208.368,34.486c-9.475,9.827-12.917,20.924-12.917,20.924s8.069-12.306,19.048-21.302
	C216.232,32.688,210.534,32.239,208.368,34.486L208.368,34.486z"/>
<path id="path3188" fill="#E7A614" d="M282.855,60.832c-0.65-4.988-13.23-9.327-22.339-9.327c-9.108,0-22.339,0-22.339,0
	s5.639,4.339,14.314,4.556C261.167,56.277,273.963,54.976,282.855,60.832L282.855,60.832z"/>
<path id="path3190" fill="#E7A614" d="M448.772,59.964c-29.063-15.832-65.717-19.302-78.079-20.169
	c-12.362-0.867-22.556,1.952-31.883,1.952c-9.325,0-29.931,1.518-46.63,16.483c8.676-4.555,20.821-10.411,28.629-10.411
	s22.773-3.904,31.665-3.904C361.368,43.915,406.914,43.264,448.772,59.964L448.772,59.964z"/>
<path id="path3192" fill="#E7A614" d="M247.72,44.783c13.014-7.158,86.754-43.161,192.594,3.036c0,0-11.494-3.47-28.195-8.458
	c2.82,1.952,1.736,4.989,1.736,4.989s-7.157-9.109-21.688-9.76c2.819,2.386,1.733,6.073,1.733,6.073s-3.974-5.514-7.373-6.94
	c-6.724-2.819-18.436-3.47-18.436-3.47s3.902,4.338,5.205,6.941c-5.64-5.423-24.074-8.025-24.074-8.025s2.603,1.084,5.854,2.819
	c3.254,1.735,4.989,5.422,4.989,5.422s-6.94-3.687-11.712-5.422c-3.508-1.275-12.146-2.603-12.146-2.603s0.218,0,3.471,1.952
	c3.253,1.952,2.82,7.157,2.82,7.157s-2.604-3.037-6.073-5.422c-3.471-2.386-10.411-2.603-10.411-2.603s7.157,4.988,5.855,9.977
	c0,0-3.035-7.808-12.578-9.326c-3.029-0.482-8.242,0.217-8.242,0.217s2.387,0.867,4.339,3.037c1.952,2.168,1.517,7.808,1.517,7.808
	s-3.902-6.29-7.59-7.808c-3.688-1.518-12.146,0-12.146,0s4.555,1.3,8.24,3.687c3.687,2.387,1.734,7.157,1.734,7.157
	s-1.301-5.206-8.023-7.591c-6.725-2.385-15.834-0.65-15.834-0.65s4.988,0.433,11.063,2.819c6.072,2.386,6.289,9.326,6.289,9.326
	s-2.604-5.422-11.061-7.591c-7.447-1.909-16.267-2.385-16.267-2.385s9.188,3.518,13.663,9.109c4.338,5.422,2.818,9.326,2.818,9.326
	s-3.035-8.025-10.625-10.628C265.284,42.191,255.746,44.565,247.72,44.783L247.72,44.783z"/>
<path id="path3194" fill="#E7A614" d="M246.548,169.627c2.362-5.061,3.542-15.185,3.542-15.185s1.856,0.338,4.218-3.373
	C254.983,155.118,249.584,168.278,246.548,169.627L246.548,169.627z"/>
<path id="path3196" fill="#E7A614" d="M248.742,173.002c-2.7,3.375-3.881,8.604-3.881,8.604s4.049-4.05,5.061-6.749
	C250.935,172.158,248.742,173.002,248.742,173.002L248.742,173.002z"/>
<path id="path3198" fill="#E7A614" d="M247.392,149.213c0,0-3.543,7.93-1.688,11.304c1.35-7.423,6.749-9.11,9.111-18.559
	c-5.568,7.761-10.798,7.93-10.798,7.93s-0.337,2.193-3.543,6.073c-2.588,3.133-4.892,7.423-4.892,7.423s3.374-3.711,5.735-5.398
	C243.68,156.299,245.704,151.743,247.392,149.213L247.392,149.213z"/>
<path id="path3200" fill="#E7A614" d="M256.372,165.942c1.986,11.952-5.437,17.182-5.437,17.182s2.362-3.205,1.372-8.466
	C251.62,171.006,255.23,168.388,256.372,165.942L256.372,165.942z"/>
<path id="path3202" fill="#E7A614" d="M256.671,178.063c-0.17,9.448,2.699,10.798,5.904,14.678
	c-3.458-0.506-5.146-2.531-7.423-5.062c-0.337,2.109-0.337,3.29,0,5.398c-1.35-1.519-2.7-5.567-2.7-5.567
	c-1.349,2.447-2.024,5.315-2.7,8.099c-0.168-1.265-1.349-3.206-1.349-4.472C248.403,185.824,255.827,186.499,256.671,178.063
	L256.671,178.063z"/>
<path id="path3204" fill="#E7A614" d="M170.626,130.991c-4.049,7.086-14.509,24.295-20.245,31.044
	c-5.736,6.748-6.412,8.773-4.387,9.448C148.019,172.158,165.902,148.538,170.626,130.991L170.626,130.991z"/>
<path id="path3206" fill="#E7A614" d="M167.589,126.605c-3.374,7.423-7.498,14.429-13.16,18.896c-2.48,1.957-3.273,3.577-1.35,4.049
	C155.003,150.023,164.553,140.777,167.589,126.605L167.589,126.605z"/>
<path id="path3208" fill="#E7A614" d="M172.961,134.993c-3.887,7.582-13.929,25.996-19.436,33.216
	c-5.507,7.222-6.155,9.388-4.211,10.11C151.258,179.042,168.426,153.769,172.961,134.993L172.961,134.993z"/>
<path id="path3210" fill="#E7A614" d="M172.65,146.513c-3.731,8.113-6.86,15.556-12.147,23.282
	c-5.286,7.727-5.908,10.044-4.042,10.817C158.327,181.385,168.297,166.602,172.65,146.513L172.65,146.513z"/>
<path id="path3212" fill="#E7A614" d="M197.79,171.145c-3.542-3.205-4.724-12.315-4.724-12.315s-0.337,3.206-1.518,3.711
	C190.366,163.048,192.896,168.615,197.79,171.145L197.79,171.145z"/>
<path id="path3214" fill="#E7A614" d="M196.271,179.075c-0.844-4.387-3.375-13.497-3.375-13.497s-2.024,5.23-1.35,6.917
	C192.024,173.688,193.572,174.183,196.271,179.075L196.271,179.075z"/>
<path id="path3216" fill="#E7A614" d="M195.427,185.148c-3.542-3.205-6.579-14.171-6.579-14.171s-0.337,3.206-1.519,3.711
	C186.148,175.194,190.535,182.618,195.427,185.148L195.427,185.148z"/>
<path id="path3218" fill="#E7A614" d="M195.765,195.271c-3.543-3.205-4.725-12.315-4.725-12.315s-0.336,3.205-1.518,3.711
	C188.342,187.174,190.873,192.741,195.765,195.271L195.765,195.271z"/>
<path id="path3220" fill="#E7A614" d="M191.547,95.562c1.687-3.375,7.423-8.099,7.423-8.099s-7.423,1.012-16.534,9.785
	c0.337-3.712,5.062-15.184,13.497-23.283c-6.749,1.35-12.148,7.086-12.148,7.086s2.362-10.798,10.798-17.884
	c-8.098,0.337-13.834,6.074-13.834,6.074c2.362-1.012,8.099-2.7,8.099-2.7s-9.111,6.411-17.547,22.271
	c2.025-3.375,10.123-9.448,10.123-9.448s-7.423,9.111-9.786,16.197c4.387-6.411,13.498-12.822,13.498-12.822
	s-11.473,12.484-15.184,25.644c5.399-8.773,10.122-12.485,10.122-12.485s-0.674,1.35-2.361,5.398c2.024-2.7,9.448-4.386,9.448-4.386
	c-3.375,2.362-4.049,7.762-4.049,7.762s3.037-3.712,9.11-3.712c-10.797,8.098-15.184,25.307-15.184,32.73
	c5.399-16.196,17.209-25.982,17.209-25.982s-4.05,0.338-6.412,1.688c2.024-4.049,11.135-10.46,14.847-12.823
	c-3.712,0.338-8.436,3.038-8.436,3.038s5.061-6.074,10.797-8.099C201.67,91.175,195.259,92.187,191.547,95.562L191.547,95.562z"/>
<path id="path3222" fill="#E7A614" d="M179.399,102.311c-5.736,5.398-9.786,20.582-9.786,20.582s6.411-11.472,9.786-14.171
	C179.399,108.722,178.725,105.01,179.399,102.311L179.399,102.311z"/>
<path id="path3224" fill="#E7A614" d="M281.977,102.986c3.037,2.024,5.734,11.134,5.734,11.134s-4.047-6.073-7.42-6.748
	C276.916,106.696,281.977,102.986,281.977,102.986L281.977,102.986z"/>
<path id="path3226" fill="#E7A614" d="M287.713,99.611c13.498,5.062,8.773,18.221,8.773,18.221s0-9.448-7.086-13.159
	C286.935,103.381,287.713,99.611,287.713,99.611L287.713,99.611z"/>
<path id="path3228" fill="#E7A614" d="M259.707,116.482c3.375,3.374,11.136,3.374,11.136,3.374s-7.086-3.374-8.437-5.061
	C261.058,113.109,259.707,116.482,259.707,116.482L259.707,116.482z"/>
<path id="path3230" fill="#E7A614" d="M268.48,110.408c3.375,3.375,10.123,6.074,10.123,6.074s-7.086-7.086-8.436-8.773
	C268.818,106.022,268.48,110.408,268.48,110.408L268.48,110.408z"/>
<path id="path3232" fill="#E7A614" d="M284.002,151.237c-1.688-5.736-4.447-11.7-8.771-14.172
	c-7.086-4.049-11.811-10.46-11.811-10.46s0.338,2.699,2.362,6.411s7.423,6.074,7.423,6.074s-2.699,0.675-5.399-0.337
	c-3.958-1.485-6.411-3.711-6.411-3.711s1.021,2.547,5.062,4.724c4.387,2.362,5.399,1.35,8.774,3.712
	C278.604,145.839,282.314,147.188,284.002,151.237L284.002,151.237z"/>
<path id="path3234" fill="#FFE300" d="M176.785,207.166c2.109-1.35,5.062-2.109,5.062-2.109s-0.844,0.337-4.302,2.7
	c-3.459,2.362-3.374,4.303-3.121,5.483c0.364,1.701,4.856,2.071,5.989,0.844c2.025-2.193,2.109-4.218,4.302-6.074
	c2.193-1.855,5.652-3.458,8.183-2.784c2.53,0.675,4.488,0.825,5.737,2.025c2.192,2.108,3.964,2.699,5.398,2.53
	c1.173-0.138,2.221-0.995,2.362-3.542c0.085-1.52-1.012-2.025-2.868-1.688c-1.855,0.338-5.905,0-7.423-0.675
	c-1.519-0.675-3.374-1.012-4.049-2.699c-0.675-1.688-3.881-1.35-6.243-0.674c-2.361,0.674-4.049,0-4.049,0s-1.603,1.771-2.7,2.53
	c-1.096,0.759-5.483,3.037-8.267,3.712c-2.784,0.674-5.82,2.108-5.989,4.133c-0.169,2.025,0.169,3.796,2.784,4.219
	c2.615,0.421,4.164-1.792,4.387-2.868C172.482,209.781,175.127,208.227,176.785,207.166L176.785,207.166z"/>
<path id="path3236" fill="#FFE300" d="M264.354,201.321c-2.294-1.002-5.329-1.291-5.329-1.291s0.886,0.201,4.671,1.993
	c3.786,1.792,4.006,3.721,3.941,4.928c-0.094,1.736-4.473,2.805-5.784,1.77c-2.343-1.851-2.743-3.836-5.199-5.327
	c-2.457-1.49-6.124-2.532-8.518-1.469s-4.304,1.517-5.349,2.897c-1.836,2.426-3.494,3.287-4.937,3.344
	c-1.179,0.047-2.348-0.634-2.887-3.13c-0.32-1.486,0.683-2.158,2.57-2.115c1.885,0.043,5.832-0.923,7.226-1.827
	c1.394-0.904,3.175-1.528,3.577-3.3c0.402-1.771,3.622-1.938,6.061-1.643c2.438,0.297,3.999-0.633,3.999-0.633
	s1.86,1.499,3.062,2.077s5.892,2.142,8.747,2.373c2.854,0.231,6.08,1.173,6.562,3.146s0.427,3.776-2.09,4.602
	c-2.518,0.826-4.392-1.118-4.781-2.147C269.014,203.232,266.158,202.11,264.354,201.321L264.354,201.321z"/>
<path id="path3238" fill="#E7A614" d="M53.608,46.084c17.351-5.639,46.413-10.845,62.463-12.146
	c-25.158,6.94-46.848,20.82-46.848,20.82s56.39-20.386,78.08-22.556C118.241,39.576,90.479,59.53,90.479,59.53
	s38.171-17.35,52.052-21.254C117.806,46.95,94.816,75.58,94.816,75.58s41.208-31.665,68.102-42.509
	c-39.039,16.917-56.823,52.919-56.823,52.919s32.966-36.871,47.715-40.774c-17.351,9.109-23.424,34.702-23.424,34.702
	s27.761-45.545,63.33-51.185c-11.278-7.374-25.158-8.675-37.737-5.639c-12.58,3.036-32.533,7.808-45.98,7.808
	C96.551,30.902,60.548,41.746,53.608,46.084L53.608,46.084z"/>
<path id="path3240" fill="#FFE300" d="M297.17,156.261c1.904,1.076,3.004,4.017,3.47,5.965c0.466,1.948,1.534,4.47,3.206,4.072
	c1.668-0.399,2.579-4.17,2.65-5.807c0.108-2.495-1.17-6.795-3.688-10.194c-0.65,4.229-4.046,5.564-4.046,5.564
	s-3.212-2.45-5.281-3.721C292.808,151.726,295.266,155.186,297.17,156.261L297.17,156.261z"/>
<path id="path3242" fill="#E7A614" d="M194.801,31.119c-29.642,5.319-38.822,34.918-38.822,34.918s17.35-26.46,35.785-30.147
	C199.432,34.357,203.259,29.6,194.801,31.119L194.801,31.119z"/>
<path id="path3244" fill="#E7A614" d="M200.448,33.513c-15.198,10.563-20.396,27.318-20.396,27.318s10.818-16.497,24.446-25.254
	C208.128,33.244,205.449,30.036,200.448,33.513L200.448,33.513z"/>
<path id="path3246" fill="#E7A614" d="M208.368,34.486c-9.475,9.827-12.917,20.924-12.917,20.924s8.069-12.306,19.048-21.302
	C216.232,32.688,210.534,32.239,208.368,34.486L208.368,34.486z"/>
<path id="path3248" fill="#E7A614" d="M282.855,60.832c-0.65-4.988-13.23-9.327-22.339-9.327c-9.108,0-22.339,0-22.339,0
	s5.639,4.339,14.314,4.556C261.167,56.277,273.963,54.976,282.855,60.832L282.855,60.832z"/>
<path id="path3250" fill="#E7A614" d="M448.772,59.964c-29.063-15.832-65.717-19.302-78.079-20.169
	c-12.362-0.867-22.556,1.952-31.883,1.952c-9.325,0-29.931,1.518-46.63,16.483c8.676-4.555,20.821-10.411,28.629-10.411
	s22.773-3.904,31.665-3.904C361.368,43.915,406.914,43.264,448.772,59.964L448.772,59.964z"/>
<path id="path3252" fill="#E7A614" d="M247.72,44.783c13.014-7.158,86.754-43.161,192.594,3.036c0,0-11.494-3.47-28.195-8.458
	c2.82,1.952,1.736,4.989,1.736,4.989s-7.157-9.109-21.688-9.76c2.819,2.386,1.733,6.073,1.733,6.073s-3.974-5.514-7.373-6.94
	c-6.724-2.819-18.436-3.47-18.436-3.47s3.902,4.338,5.205,6.941c-5.64-5.423-24.074-8.025-24.074-8.025s2.603,1.084,5.854,2.819
	c3.254,1.735,4.989,5.422,4.989,5.422s-6.94-3.687-11.712-5.422c-3.508-1.275-12.146-2.603-12.146-2.603s0.218,0,3.471,1.952
	c3.253,1.952,2.82,7.157,2.82,7.157s-2.604-3.037-6.073-5.422c-3.471-2.386-10.411-2.603-10.411-2.603s7.157,4.988,5.855,9.977
	c0,0-3.035-7.808-12.578-9.326c-3.029-0.482-8.242,0.217-8.242,0.217s2.387,0.867,4.339,3.037c1.952,2.168,1.517,7.808,1.517,7.808
	s-3.902-6.29-7.59-7.808c-3.688-1.518-12.146,0-12.146,0s4.555,1.3,8.24,3.687c3.687,2.387,1.734,7.157,1.734,7.157
	s-1.301-5.206-8.023-7.591c-6.725-2.385-15.834-0.65-15.834-0.65s4.988,0.433,11.063,2.819c6.072,2.386,6.289,9.326,6.289,9.326
	s-2.604-5.422-11.061-7.591c-7.447-1.909-16.267-2.385-16.267-2.385s9.188,3.518,13.663,9.109c4.338,5.422,2.818,9.326,2.818,9.326
	s-3.035-8.025-10.625-10.628C265.284,42.191,255.746,44.565,247.72,44.783L247.72,44.783z"/>
<path id="path3254" fill="#E7A614" d="M246.548,169.627c2.362-5.061,3.542-15.185,3.542-15.185s1.856,0.338,4.218-3.373
	C254.983,155.118,249.584,168.278,246.548,169.627L246.548,169.627z"/>
<path id="path3256" fill="#E7A614" d="M248.742,173.002c-2.7,3.375-3.881,8.604-3.881,8.604s4.049-4.05,5.061-6.749
	C250.935,172.158,248.742,173.002,248.742,173.002L248.742,173.002z"/>
<path id="path3258" fill="#E7A614" d="M247.392,149.213c0,0-3.543,7.93-1.688,11.304c1.35-7.423,6.749-9.11,9.111-18.559
	c-5.568,7.761-10.798,7.93-10.798,7.93s-0.337,2.193-3.543,6.073c-2.588,3.133-4.892,7.423-4.892,7.423s3.374-3.711,5.735-5.398
	C243.68,156.299,245.704,151.743,247.392,149.213L247.392,149.213z"/>
<path id="path3260" fill="#E7A614" d="M256.372,165.942c1.986,11.952-5.437,17.182-5.437,17.182s2.362-3.205,1.372-8.466
	C251.62,171.006,255.23,168.388,256.372,165.942L256.372,165.942z"/>
<path id="path3262" fill="#E7A614" d="M256.671,178.063c-0.17,9.448,2.699,10.798,5.904,14.678
	c-3.458-0.506-5.146-2.531-7.423-5.062c-0.337,2.109-0.337,3.29,0,5.398c-1.35-1.519-2.7-5.567-2.7-5.567
	c-1.349,2.447-2.024,5.315-2.7,8.099c-0.168-1.265-1.349-3.206-1.349-4.472C248.403,185.824,255.827,186.499,256.671,178.063
	L256.671,178.063z"/>
<path id="path3264" fill="#E7A614" d="M170.626,130.991c-4.049,7.086-14.509,24.295-20.245,31.044
	c-5.736,6.748-6.412,8.773-4.387,9.448C148.019,172.158,165.902,148.538,170.626,130.991L170.626,130.991z"/>
<path id="path3266" fill="#E7A614" d="M167.589,126.605c-3.374,7.423-7.498,14.429-13.16,18.896c-2.48,1.957-3.273,3.577-1.35,4.049
	C155.003,150.023,164.553,140.777,167.589,126.605L167.589,126.605z"/>
<path id="path3268" fill="#E7A614" d="M172.961,134.993c-3.887,7.582-13.929,25.996-19.436,33.216
	c-5.507,7.222-6.155,9.388-4.211,10.11C151.258,179.042,168.426,153.769,172.961,134.993L172.961,134.993z"/>
<path id="path3270" fill="#E7A614" d="M172.65,146.513c-3.731,8.113-6.86,15.556-12.147,23.282
	c-5.286,7.727-5.908,10.044-4.042,10.817C158.327,181.385,168.297,166.602,172.65,146.513L172.65,146.513z"/>
<path id="path3272" fill="#E7A614" d="M197.79,171.145c-3.542-3.205-4.724-12.315-4.724-12.315s-0.337,3.206-1.518,3.711
	C190.366,163.048,192.896,168.615,197.79,171.145L197.79,171.145z"/>
<path id="path3274" fill="#E7A614" d="M196.271,179.075c-0.844-4.387-3.375-13.497-3.375-13.497s-2.024,5.23-1.35,6.917
	C192.024,173.688,193.572,174.183,196.271,179.075L196.271,179.075z"/>
<path id="path3276" fill="#E7A614" d="M195.427,185.148c-3.542-3.205-6.579-14.171-6.579-14.171s-0.337,3.206-1.519,3.711
	C186.148,175.194,190.535,182.618,195.427,185.148L195.427,185.148z"/>
<path id="path3278" fill="#E7A614" d="M195.765,195.271c-3.543-3.205-4.725-12.315-4.725-12.315s-0.336,3.205-1.518,3.711
	C188.342,187.174,190.873,192.741,195.765,195.271L195.765,195.271z"/>
<path id="path3280" fill="#E7A614" d="M191.547,95.562c1.687-3.375,7.423-8.099,7.423-8.099s-7.423,1.012-16.534,9.785
	c0.337-3.712,5.062-15.184,13.497-23.283c-6.749,1.35-12.148,7.086-12.148,7.086s2.362-10.798,10.798-17.884
	c-8.098,0.337-13.834,6.074-13.834,6.074c2.362-1.012,8.099-2.7,8.099-2.7s-9.111,6.411-17.547,22.271
	c2.025-3.375,10.123-9.448,10.123-9.448s-7.423,9.111-9.786,16.197c4.387-6.411,13.498-12.822,13.498-12.822
	s-11.473,12.484-15.184,25.644c5.399-8.773,10.122-12.485,10.122-12.485s-0.674,1.35-2.361,5.398c2.024-2.7,9.448-4.386,9.448-4.386
	c-3.375,2.362-4.049,7.762-4.049,7.762s3.037-3.712,9.11-3.712c-10.797,8.098-15.184,25.307-15.184,32.73
	c5.399-16.196,17.209-25.982,17.209-25.982s-4.05,0.338-6.412,1.688c2.024-4.049,11.135-10.46,14.847-12.823
	c-3.712,0.338-8.436,3.038-8.436,3.038s5.061-6.074,10.797-8.099C201.67,91.175,195.259,92.187,191.547,95.562L191.547,95.562z"/>
<path id="path3282" fill="#E7A614" d="M179.399,102.311c-5.736,5.398-9.786,20.582-9.786,20.582s6.411-11.472,9.786-14.171
	C179.399,108.722,178.725,105.01,179.399,102.311L179.399,102.311z"/>
<path id="path3284" fill="#E7A614" d="M281.987,71.675c0.65-5.638-2.602-6.506-10.192-8.024c-7.59-1.518-24.942-0.217-35.569-1.084
	c-10.627-0.868-9.542-4.771-9.542-4.771s-13.286,4.103-17.568,0.433c-1.519-1.301-5.422-3.471-1.735-13.88
	c-13.88,18.218-3,50.686,23.207,65.933c23.857,13.881,31.448,12.579,31.448,12.579c-11.061-4.337-14.964-10.193-14.964-10.193
	s6.29,1.952,9.326,2.169c-5.422-2.603-7.374-9.327-7.374-9.327s6.29,4.122,10.844,4.122c-5.422-4.772-5.639-12.58-5.639-12.58
	s7.808,6.941,14.315,7.374c-1.301-4.121-4.555-7.374-6.073-8.892c11.277,3.47,13.23,6.073,16.701,7.808
	c-5.206-4.338-5.422-9.977-4.338-13.23c1.519,3.904,8.024,7.374,9.977,9.326c-1.52-5.206,1.084-9.977,1.084-9.977
	C286.759,83.171,281.338,77.315,281.987,71.675z M250.29,117.839c-17.534-6.689-37.488-19.269-42.259-46.163
	C208.431,73.71,227.984,108.113,250.29,117.839z M241.149,98.261c-2.7-3.374-1.688-4.724-1.688-4.724s8.773,4.05,11.135,8.099
	C248.234,100.623,243.849,101.635,241.149,98.261z M247.223,83.752l2.024-7.086c0,0,0.338,3.712,2.362,8.099
	c2.024,4.387,4.724,8.772,4.724,8.772C251.609,91.512,247.223,83.752,247.223,83.752z M259.538,84.173
	c-1.074-8.075,1.079-12.201,0.848-13.283c1.525,8.566,6.537,19.548,11.829,23.93C265.078,91.587,263.518,88.309,259.538,84.173z
	 M271.166,68.724c1.115,3.552,6.685,7.494,6.685,7.494c0.167-2.618,1.81-3.348,2.646-5.107c-0.943,5.162-1.686,16.245,1.728,21.32
	C276.574,86.615,272.732,77.452,271.166,68.724z"/>
<path id="path3286" fill="#E7A614" d="M281.977,102.986c3.037,2.024,5.734,11.134,5.734,11.134s-4.047-6.073-7.42-6.748
	C276.916,106.696,281.977,102.986,281.977,102.986L281.977,102.986z"/>
<path id="path3288" fill="#E7A614" d="M287.713,99.611c13.498,5.062,8.773,18.221,8.773,18.221s0-9.448-7.086-13.159
	C286.935,103.381,287.713,99.611,287.713,99.611L287.713,99.611z"/>
<path id="path3290" fill="#E7A614" d="M259.707,116.482c3.375,3.374,11.136,3.374,11.136,3.374s-7.086-3.374-8.437-5.061
	C261.058,113.109,259.707,116.482,259.707,116.482L259.707,116.482z"/>
<path id="path3292" fill="#E7A614" d="M268.48,110.408c3.375,3.375,10.123,6.074,10.123,6.074s-7.086-7.086-8.436-8.773
	C268.818,106.022,268.48,110.408,268.48,110.408L268.48,110.408z"/>
<path id="path3294" fill="#E7A614" d="M284.002,151.237c-1.688-5.736-4.447-11.7-8.771-14.172
	c-7.086-4.049-11.811-10.46-11.811-10.46s0.338,2.699,2.362,6.411s7.423,6.074,7.423,6.074s-2.699,0.675-5.399-0.337
	c-3.958-1.485-6.411-3.711-6.411-3.711s1.021,2.547,5.062,4.724c4.387,2.362,5.399,1.35,8.774,3.712
	C278.604,145.839,282.314,147.188,284.002,151.237L284.002,151.237z"/>
<path id="path3296" fill="#FFE300" d="M176.785,207.166c2.109-1.35,5.062-2.109,5.062-2.109s-0.844,0.337-4.302,2.7
	c-3.459,2.362-3.374,4.303-3.121,5.483c0.364,1.701,4.856,2.071,5.989,0.844c2.025-2.193,2.109-4.218,4.302-6.074
	c2.193-1.855,5.652-3.458,8.183-2.784c2.53,0.675,4.488,0.825,5.737,2.025c2.192,2.108,3.964,2.699,5.398,2.53
	c1.173-0.138,2.221-0.995,2.362-3.542c0.085-1.52-1.012-2.025-2.868-1.688c-1.855,0.338-5.905,0-7.423-0.675
	c-1.519-0.675-3.374-1.012-4.049-2.699c-0.675-1.688-3.881-1.35-6.243-0.674c-2.361,0.674-4.049,0-4.049,0s-1.603,1.771-2.7,2.53
	c-1.096,0.759-5.483,3.037-8.267,3.712c-2.784,0.674-5.82,2.108-5.989,4.133c-0.169,2.025,0.169,3.796,2.784,4.219
	c2.615,0.421,4.164-1.792,4.387-2.868C172.482,209.781,175.127,208.227,176.785,207.166L176.785,207.166z"/>
<path id="path3298" fill="#FFE300" d="M264.354,201.321c-2.294-1.002-5.329-1.291-5.329-1.291s0.886,0.201,4.671,1.993
	c3.786,1.792,4.006,3.721,3.941,4.928c-0.094,1.736-4.473,2.805-5.784,1.77c-2.343-1.851-2.743-3.836-5.199-5.327
	c-2.457-1.49-6.124-2.532-8.518-1.469s-4.304,1.517-5.349,2.897c-1.836,2.426-3.494,3.287-4.937,3.344
	c-1.179,0.047-2.348-0.634-2.887-3.13c-0.32-1.486,0.683-2.158,2.57-2.115c1.885,0.043,5.832-0.923,7.226-1.827
	c1.394-0.904,3.175-1.528,3.577-3.3c0.402-1.771,3.622-1.938,6.061-1.643c2.438,0.297,3.999-0.633,3.999-0.633
	s1.86,1.499,3.062,2.077s5.892,2.142,8.747,2.373c2.854,0.231,6.08,1.173,6.562,3.146s0.427,3.776-2.09,4.602
	c-2.518,0.826-4.392-1.118-4.781-2.147C269.014,203.232,266.158,202.11,264.354,201.321L264.354,201.321z"/>
<path id="path3300" fill="#FFFFFF" d="M295.979,136.95c-2.376-1.95-2.851-1.818-3.819-3.912c-0.968-2.094-1.735-2.991-1.735-2.991
	s-0.013,4.065,1.53,6.145c-1.229,1.232-2.502,2.208-0.099,5.269c2.247,2.863,4.658,0.856,4.658,0.856s2.014,2.698,1.61,4.94
	C300.269,143.654,297.266,138.005,295.979,136.95z M296.338,140.546c-0.413,0.354-0.951,0.569-1.538,0.569
	c-1.306,0-2.361-1.058-2.361-2.362c0-0.563,0.261-1.281,0.589-1.688C293.461,136.53,296.842,140.112,296.338,140.546z"/>
</svg>
