<?xml version="1.0" encoding="UTF-8" standalone="no"?>
<svg
   version="1.1"
   width="459.71509"
   height="720.34888"
   id="svg33"
   viewBox="0 0 459.71509 720.34888"
   sodipodi:docname="7df7b34bad11595e2052735cb957632b.cdr"
   xmlns:inkscape="http://www.inkscape.org/namespaces/inkscape"
   xmlns:sodipodi="http://sodipodi.sourceforge.net/DTD/sodipodi-0.dtd"
   xmlns="http://www.w3.org/2000/svg"
   xmlns:svg="http://www.w3.org/2000/svg">
  <defs
     id="defs37" />
  <sodipodi:namedview
     id="namedview35"
     pagecolor="#ffffff"
     bordercolor="#666666"
     borderopacity="1.0"
     inkscape:pageshadow="2"
     inkscape:pageopacity="0.0"
     inkscape:pagecheckerboard="0" />
  <g
     id="Layer1000"
     transform="translate(-76.1423,-35.8257)">
    <path
       d="m 76.1423,133.9075 v 408.604 c 3.5753,5.1477 9.4308,9.2075 13.9331,13.7361 4.6732,4.7007 9.5723,8.7194 14.2384,13.4309 9.0953,9.1828 19.4987,17.4642 28.6832,26.6555 9.2124,9.2189 19.4417,17.4955 28.6869,26.6511 4.7316,4.686 9.5562,8.7477 14.2322,13.4368 3.2208,3.2306 10.9659,10.8986 14.3002,13.3693 3.7423,2.7723 10.9015,9.7954 14.3825,13.2868 4.68,4.6937 9.5731,8.7109 14.2375,13.4314 9.0806,9.1894 19.4894,17.4606 28.6816,26.6571 9.187,9.191 19.6344,17.4693 28.6843,26.6538 3.7596,3.8155 10.2988,10.0378 14.4139,13.2551 5.0516,3.9487 8.8622,9.131 14.5704,13.0992 h 1.627 c 5.7082,-3.9682 9.5179,-9.1505 14.5696,-13.0992 4.115,-3.2173 10.6543,-9.4396 14.4138,-13.2551 9.0499,-9.1845 19.4979,-17.4628 28.685,-26.6538 9.1921,-9.1965 19.601,-17.4677 28.6815,-26.6571 4.6644,-4.7205 9.5575,-8.7377 14.2375,-13.4314 3.481,-3.4914 10.6402,-10.5145 14.3825,-13.2868 3.3344,-2.4707 11.0795,-10.1387 14.3002,-13.3693 4.6755,-4.6891 9.5,-8.7508 14.2316,-13.4368 9.2458,-9.1556 19.4752,-17.4322 28.6875,-26.6511 9.1839,-9.1913 19.5879,-17.4727 28.6826,-26.6555 4.6661,-4.7115 9.5653,-8.7302 14.2384,-13.4309 4.5029,-4.5286 10.3578,-8.5884 13.9337,-13.7361 v -408.604 c -0.6309,-0.9085 -1.3716,-2.8488 -2.8479,-2.8488 h -2.0342 c -2.4505,0 -7.4593,13.3121 -8.8126,16.0098 -2.6682,5.3195 -5.711,10.6597 -8.9252,15.4902 -5.299,7.9631 -15.271,20.9999 -27.8268,20.9999 h -0.8138 c -12.8606,0 -23.9075,-13.7242 -29.81,-21.4577 -3.2329,-4.2364 -7.6181,-10.8425 -10.0591,-15.5775 -1.4436,-2.8001 -3.1385,-5.4451 -4.6122,-8.409 -1.2198,-2.4522 -2.5484,-7.0557 -5.5585,-7.0557 H 432.93 c -3.5243,0 -27.4081,51.6858 -64.2789,51.6858 h -1.2206 c -14.2937,0 -28.6147,-12.9577 -36.1063,-20.4497 -4.7634,-4.7639 -8.5595,-10.0295 -12.6451,-15.4318 -2.0755,-2.7442 -9.1772,-15.8043 -12.2723,-15.8043 h -0.8136 c -3.0118,0 -10.7141,13.5712 -12.6065,16.2842 -3.2973,4.7279 -8.8254,11.5115 -12.9214,15.5622 -5.01,4.9541 -9.8054,9.1264 -15.8809,13.0093 -3.5844,2.2907 -15.5599,7.6153 -21.6496,6.8301 l -10.5859,-1.1557 c -0.961,-0.7143 -7.1587,-3.0441 -9.0806,-3.9957 -2.5849,-1.2807 -5.7344,-3.4163 -7.9316,-5.0896 -5.3733,-4.0924 -8.6765,-7.5708 -13.3906,-12.2434 -4.3112,-4.2724 -7.8429,-9.5661 -11.6024,-14.4397 -1.5617,-2.0242 -9.3507,-14.7617 -10.874,-14.7617 h -1.6277 c -3.2785,0 -9.0451,12.6335 -10.8969,15.552 -3.4745,5.4757 -6.5855,10.4403 -10.4259,15.6172 -5.3883,7.2624 -17.6862,22.9584 -29.1237,22.9584 h -3.2544 c -10.2785,0 -21.5955,-15.4171 -25.7638,-22.6568 -3.0802,-5.3501 -5.8601,-10.0604 -8.5473,-15.8686 -1.2651,-2.734 -5.8797,-15.6022 -8.4062,-15.6022 h -2.0336 c -1.4762,0 -2.2169,1.9403 -2.8479,2.8488 z"
       style="fill:#f4b700;fill-rule:evenodd"
       id="path2" />
    <path
       d="m 277.5217,175.4189 v 544.5346 c 0,0.9748 25.7928,25.0614 28.478,26.8605 2.6858,-1.7991 28.4777,-25.8857 28.4777,-26.8605 V 176.6401 c 0,-0.0998 -13.6981,-14.5678 -15.1571,-16.1745 -2.7743,-3.0549 -12.0277,-17.064 -13.3206,-18.0119 -0.0547,0.04 -11.9027,15.9778 -13.0181,17.5005 -1.8505,2.526 -13.0377,14.8179 -15.4599,15.4647 z"
       style="fill:#ffffff;fill-rule:evenodd"
       id="path4" />
    <path
       d="m 370.2781,190.4771 h -1.627 c -9.8445,0 -20.5005,-4.9722 -26.4439,-8.9535 v 531.5111 c 1.5063,-0.4025 25.7261,-23.5403 28.7771,-26.5612 3.0738,-3.0444 28.5857,-25.7536 28.5857,-27.1596 V 180.3027 c -1.7813,0.4757 -9.0825,5.1812 -12.8503,6.6802 -4.5885,1.8258 -10.2433,3.4942 -16.4416,3.4942 z"
       style="fill:#079a38;fill-rule:evenodd"
       id="path6" />
    <path
       d="m 212.4298,659.721 57.3621,53.3137 V 181.5236 c -7.8097,4.1338 -15.6407,8.9535 -27.6638,8.9535 h -0.4071 c -13.1683,0 -20.8698,-5.7166 -29.2912,-10.1744 z"
       style="fill:#079a38;fill-rule:evenodd"
       id="path8" />
    <path
       d="m 407.2997,173.791 v 478.6044 c 4.5159,-3.0254 55.7351,-51.95 55.7351,-52.5002 V 183.1513 c 0,-0.8405 -7.2941,-7.918 -8.4359,-9.061 -2.5512,-2.5551 -5.718,-6.6804 -7.7581,-9.7384 -1.7079,-2.5594 -12.8631,-21.0617 -13.5043,-21.4909 -3.9092,7.3914 -19.495,26.5479 -26.0368,30.93 z"
       style="fill:#ffffff;fill-rule:evenodd"
       id="path10" />
    <path
       d="m 149.3714,182.3377 v 417.9649 c 0,0.5153 50.8578,49.098 55.3286,52.0928 V 174.6051 c -1.2487,-1.8652 -5.1628,-5.3694 -7.0178,-7.2249 -2.6861,-2.687 -4.4118,-5.0851 -6.9137,-7.7338 -1.9462,-2.0608 -11.916,-14.9122 -12.1059,-17.1927 -1.7362,0.464 -5.5899,8.3446 -6.8403,10.2504 -2.3978,3.6552 -4.5096,6.9627 -6.9089,10.5882 -1.8881,2.8517 -5.0606,7.3386 -7.298,9.7923 -1.1325,1.2421 -8.244,8.3784 -8.244,9.2531 z"
       style="fill:#ffffff;fill-rule:evenodd"
       id="path12" />
    <path
       d="m 83.8721,539.6627 57.7692,54.1278 V 188.0351 c -3.4552,0.9232 -7.8506,4.8838 -13.4252,4.8838 h -4.8821 c -9.6613,0 -19.3513,-9.843 -24.1016,-15.3658 -3.2485,-3.7763 -5.3722,-7.5336 -8.2026,-11.7365 -2.1481,-3.1893 -5.2835,-10.624 -7.1577,-12.7812 z"
       style="fill:#079a38;fill-rule:evenodd"
       id="path14" />
    <path
       d="m 486.2242,191.2907 h -2.4406 c -6.0715,0 -8.9873,-2.7227 -13.019,-3.6624 l 0.0808,405.8419 57.2823,-53.8075 V 152.6281 c -0.9185,0.6729 -6.1147,10.4111 -7.4852,12.454 -2.5999,3.8741 -5.5267,8.479 -8.6803,11.666 -5.7665,5.8269 -14.5596,14.5426 -25.738,14.5426 z"
       style="fill:#079a38;fill-rule:evenodd"
       id="path16" />
    <path
       d="m 305.5932,35.8257 -12.6156,36.8759 -38.8474,1.2373 30.7783,23.2285 -11.048,37.5537 32.1392,-21.5697 32.2109,21.5487 -10.9627,-37.2991 30.4186,-23.726 -38.2138,-0.7152 z"
       style="fill:#f4b700;fill-rule:evenodd"
       id="path18" />
    <path
       d="m 416.2499,388.2679 h 23.5958 c 9.1352,0 18.7144,-2.5951 18.7144,-11.3955 v -3.6627 c 0,-5.0125 -4.3801,-8.3902 -8.5437,-9.3605 2.899,-2.5206 6.5092,-3.3367 6.5092,-9.3606 v -2.035 c 0,-5.9644 -6.2492,-10.1741 -12.6116,-10.1741 h -27.6641 z"
       style="fill:#303027;fill-rule:evenodd"
       id="path20" />
    <path
       d="m 283.5904,388.2549 14.6622,0.007 2.0517,-7.727 16.081,0.0564 2.2258,7.6762 15.1452,-0.0354 -17.1794,-45.953 -15.7187,0.0553 z"
       style="fill:#303027;fill-rule:evenodd"
       id="path22" />
    <path
       d="m 157.1012,363.4424 v 3.2556 c 0,13.1859 9.1445,22.3835 22.3752,22.3835 h 1.6274 c 10.3079,0 20.3414,-6.5526 20.3261,-16.225 l -12.5966,-3.3097 c -0.4206,5.059 -3.2899,8.5465 -8.9501,8.5465 -6.5381,0 -8.543,-5.6455 -8.543,-12.2094 v -1.2209 c 0,-6.4162 2.9936,-12.6162 8.9501,-12.6162 4.0427,0 7.3048,2.9407 8.1759,6.6915 l 12.5723,-2.6215 c -0.7022,-8.4373 -9.8309,-14.6514 -19.5282,-14.6514 h -2.4406 c -13.1619,0 -21.9685,8.8285 -21.9685,21.977 z"
       style="fill:#303027;fill-rule:evenodd"
       id="path24" />
    <path
       d="m 430.8953,378.0933 h 7.3233 c 3.0898,0 6.1028,-1.0446 6.1028,-4.0697 v -1.6277 c 0,-1.4879 -2.8151,-3.2559 -4.4757,-3.2559 h -8.9504 z"
       style="fill:#ffffff;fill-rule:evenodd"
       id="path26" />
    <path
       d="m 430.8953,360.1865 h 5.6963 c 3.41,0 6.1024,-1.0791 6.1024,-4.477 0,-1.5888 -1.5526,-3.6627 -2.8483,-3.6627 h -8.9504 z"
       style="fill:#ffffff;fill-rule:evenodd"
       id="path28" />
    <path
       d="m 303.7096,370.2841 9.5102,-0.0145 -4.3724,-14.9669 -0.6588,0.0465 z"
       style="fill:#ffffff;fill-rule:evenodd"
       id="path30" />
  </g>
</svg>
