<?xml version="1.0" encoding="utf-8"?>
<!-- Generator: Adobe Illustrator 26.0.0, SVG Export Plug-In . SVG Version: 6.00 Build 0)  -->
<svg version="1.1" id="Слой_2" xmlns="http://www.w3.org/2000/svg" xmlns:xlink="http://www.w3.org/1999/xlink" x="0px" y="0px"
	 viewBox="0 0 570.5 584.6" style="enable-background:new 0 0 570.5 584.6;" xml:space="preserve">
<style type="text/css">
	.st0{fill:#04351B;}
	.st1{fill:#FBFDFE;}
</style>
<g>
	<path class="st0" d="M280.5,583.5C226.2,558.8,8.4,405.6,0,102.6c-0.1-3,1.1-5.9,3.4-8l23.6-22c3.3-3.1,8.2-3.4,12-1
		c5,3.1,11,5.1,16.1,5.1c11.8,0,22.2-10.1,22.2-21.9c0-4.9-1.8-10.5-4.7-15.5c-2-3.4-1.3-7.8,1.6-10.6l27.2-25.3
		c3.9-3.6,9.7-4.3,14.4-1.7c48.8,27.3,106.7,43.6,169.5,44.6C348,45.2,405.7,29,454.5,1.7c4.8-2.7,10.9-2,14.9,1.8l26.8,25
		c3,2.8,3.7,7.3,1.7,10.8c-2.9,5-4.7,10.6-4.7,15.4c0,11.8,10.4,21.9,22.2,21.9c5.1,0,11-1.9,16.1-5c3.9-2.4,9-1.8,12.3,1.3l22.5,21
		c2.7,2.5,4.2,6.1,4.1,9.8C561.6,405.9,344.2,558.9,290,583.5C287,584.9,283.5,584.9,280.5,583.5z"/>
	<path class="st1" d="M554.5,100.4l-14.4-13.7c-2.8-2.6-7-3.1-10.4-1.3c-5.7,3.1-11.4,5-16.6,4.8c-17.2-0.8-34.7-17.6-34.4-35.8
		c0.1-3.7,1.3-7.4,3.2-11c2.2-4.2,1.4-9.4-2.1-12.7l-14.2-13.4c-3.1-3-7.8-3.6-11.6-1.5c-20.2,10.9-87.4,43.3-168.6,42.4h-0.4
		c-65-1.1-118.9-15.8-169.4-42.9c-3.5-1.9-7.8-1.2-10.7,1.6L89.8,32.1c-2.8,2.8-3.4,7.1-1.6,10.6c2.1,4.1,3.9,8.1,3.9,12.2
		C92,71.4,75.3,89.8,56.6,89.8c-5.3,0-10.8-1-16.5-4.1c-3.1-1.7-7-1.2-9.5,1.2l-15.3,14.4c-1.9,1.8-3,4.3-2.9,6.9
		c2.4,66.7,15.4,128.9,38.8,188.5c19.9,50.9,49.3,100.7,83.5,144.2c56.6,72,115.5,109.1,144.7,123.6c3.7,1.8,8.1,1.8,11.8,0
		c29.2-14.7,89-53.5,145.5-125.3c34.2-43.4,61.6-90.2,81.5-140.9c23.4-59.5,39.3-119.4,40-189C558.3,105.9,556.9,102.7,554.5,100.4z
		 M491.2,287.8c-18.3,46.6-46.2,95.3-79,137c-46.6,59.2-93.6,88.1-119.8,102.9c-4.5,2.5-10,2.6-14.5,0.1
		c-28.1-15.4-77.2-48.1-123.8-107.3c-34-43.2-57.3-86.2-76-135.3c-18.7-48.9-29.5-99.9-30.3-158c-0.1-5.3,4.1-8.9,9.3-7.8
		c23.6,5.1,65-24.1,61.4-57.7c-0.6-5.8,5.6-10,10.7-7.1c44.5,25,102.1,33.8,155.3,34.7c0,0,95.6,1.7,156.3-34.7
		c5.5-3.3,12.3,1.2,11.5,7.6c-2.4,17.7,1.8,24.9,23.2,44.6c11.5,10.6,25.5,14.5,36.7,12.5c5.6-1,10.8,3.4,10.5,9.1
		C520.2,178.7,513.1,232.1,491.2,287.8z"/>
	<g>
		<path class="st1" d="M210.1,233.4c3,0,5.4,2.4,5.4,5.4v6.9c0,6.8-1,13.7-3.3,20.1c-6.6,18.3-21.4,30.1-41.2,30.1h-6.2
			c-24.3,0-43.9-19.7-43.9-43.9v-80.1c0-26.4,14.7-50.7,48-50.7c6.2,0,12,2.2,16.8,5.9c0.7,0.5,1.3,1.1,2,1.6
			c0.7,0.6,1.8,0.2,1.8-0.8v-0.4c0-1.5,1.2-2.7,2.7-2.7h16.1c1.9,0,3.4,1.5,3.4,3.4V175c0,2.5-2,4.5-4.5,4.5h-15.4
			c-2.5,0-4.5-2-4.5-4.5v-4.6c0-5.2-0.9-11.2-3.7-15.9c-2.8-4.7-7.5-8.1-15.2-8.1c-12.7,0-18.8,7.7-18.8,22.8v79.2
			c0,10.9,2.7,22.8,19.7,22.8c14.5,0,19.7-12,19.7-22.8v-9.6c0-3,2.4-5.4,5.4-5.4H210.1z"/>
		<path class="st1" d="M437.5,265.8c-6.2,18.5-21.7,30.1-41.5,30.1h-2.3c-6.7,0-13.3-1.7-18.9-5.3c-2.2-1.4-4.5-3.7-6.3-6
			c-0.4-0.5-1.1-0.2-1.1,0.4l0,4c0,2.2-1.9,4.1-4.1,4l-12.8-0.1c-3.1,0-5.5-2.5-5.5-5.6l0.1-46.4c0-2.7,2.2-4.9,4.9-4.9l14.7,0
			c2.9,0,5.4,2.3,5.6,5.2c0.4,4.4,1.1,9.3,2.2,12.4c4.7,12.7,14.2,18.5,22.6,17.7c7.2-0.7,11.9-3.7,14.7-7.9
			c8.7-15.1-7.8-29.1-7.8-29.1l-35.1-29.4c-13.3-11.1-20.8-25.5-20.8-42.8c0-1.5,2.1-38.5,38-40.4c6.2-0.3,18.7,2.8,23.5,6.5
			c0.7,0.5,1.3,1.1,2,1.6c0.7,0.6,1.8,0.2,1.8-0.8v-0.4c0-1.8,0.2-3.6,2.7-3.6l16.1-0.2c1.9,0,3.4,1.5,3.4,3.4V170
			c0,2.5-2,4.5-4.5,4.5h-15.4c-2.5,0-4.5-2-4.5-4.5c0,0-0.4-20.9-18.8-23.6c-4.9-0.7-9.4,0.6-12.9,3.8c-7.1,6.5-6.6,17.8,0.5,24.2
			l42.6,38.3c7.3,6.4,13.5,18.1,13.5,18.1C437.8,238,442,252.3,437.5,265.8z"/>
		<path class="st1" d="M332,429.3L299.4,307h10.4c2.1,0,3.8-1.7,3.8-3.8v-15.5c0-2.1-1.7-3.8-3.8-3.8h-60c-2.1,0-3.8,1.7-3.8,3.8
			v15.5c0,2.1,1.7,3.8,3.8,3.8h10.8l-33.3,122.2H218c-2.1,0-3.8,1.7-3.8,3.8v14.6c0,2.1,1.7,3.8,3.8,3.8h46.6c2.1,0,3.8-1.7,3.8-3.8
			v-14.6c0-2.1-1.7-3.8-3.8-3.8h-11.2l7.1-27.2h37.3l6.7,27.2h-10.9c-2.1,0-3.8,1.7-3.8,3.8v14.6c0,2.1,1.7,3.8,3.8,3.8h46.6
			c2.1,0,3.8-1.7,3.8-3.8v-14.6c0-2.1-1.7-3.8-3.8-3.8H332z M266.4,379.4l13.2-51.1l12.6,51.1H266.4z"/>
	</g>
</g>
</svg>
