<?xml version="1.0" encoding="UTF-8" standalone="no"?>
<svg
   version="1.1"
   width="73.980301"
   height="70.208504"
   id="svg12"
   viewBox="0 0 73.9803 70.208504"
   sodipodi:docname="31a685ca0b844ccdc097a5ff8ab71311.cdr"
   xmlns:inkscape="http://www.inkscape.org/namespaces/inkscape"
   xmlns:sodipodi="http://sodipodi.sourceforge.net/DTD/sodipodi-0.dtd"
   xmlns="http://www.w3.org/2000/svg"
   xmlns:svg="http://www.w3.org/2000/svg">
  <defs
     id="defs16" />
  <sodipodi:namedview
     id="namedview14"
     pagecolor="#ffffff"
     bordercolor="#666666"
     borderopacity="1.0"
     inkscape:pageshadow="2"
     inkscape:pageopacity="0.0"
     inkscape:pagecheckerboard="0" />
  <path
     d="M 5.0726,0 4.0408,1.0834 C 5.2914,2.6294 6.0148,4.4101 4.911,5.6117 3.8409,6.7765 2.5461,6.9259 0.7892,5.1639 L 0,5.9924 C 2.9055,19.7249 6.9279,33.7113 12.4327,45.4243 17.869,56.9917 26.5938,65.9942 37.1018,70.2085 47.7513,66.962 55.6943,58.0921 61.41,46.1715 67.2531,33.9848 71.4736,19.927 73.9803,5.9868 73.696,5.6636 73.5316,5.3405 73.2472,5.0176 72.049,6.4448 70.1983,5.9068 69.747,5.1823 68.7903,3.6465 69.2651,2.4511 70.0259,1.2526 L 69.0123,0.1009 C 57.9144,9.6174 16.6113,9.8388 5.0726,0 Z"
     style="fill:#009035;fill-rule:evenodd"
     id="path2" />
  <path
     d="M 7.9464,6.213 C 7.5971,7.8588 6.5713,9.0624 4.3699,9.1899 9.9947,30.6153 16.0773,56.8508 36.8884,66.38 56.3987,60.9795 65.8273,26.6975 69.8601,8.7814 67.3665,8.8421 66.5521,7.8366 66.2411,6.0531 58.8934,9.4963 47.4763,10.8397 35.8568,10.7064 25.6048,10.5888 14.5052,9.2296 7.9464,6.213 Z"
     style="fill:none;stroke:#ffffff;stroke-width:1.6328;stroke-linecap:butt;stroke-linejoin:miter;stroke-dasharray:none"
     id="path4" />
  <path
     d="m 26.4509,18.2466 c 0.0666,-0.4929 0.2191,-0.8566 0.4499,-1.095 0.2307,-0.2427 0.5513,-0.3637 0.9697,-0.3637 0.4224,0 0.7509,0.1094 0.9856,0.3206 0.2347,0.2151 0.3521,0.5162 0.3521,0.9074 0,0.1445 -0.0196,0.4575 -0.0547,0.9345 -0.0391,0.4771 -0.0587,0.8839 -0.0587,1.2204 0,0.2735 0.0196,0.6375 0.0587,1.091 0.0351,0.4575 0.0547,0.7744 0.0547,0.9581 0,0.5593 -0.1449,0.974 -0.4343,1.2515 -0.2854,0.2738 -0.7234,0.4108 -1.3062,0.4108 -0.5474,0 -0.9581,-0.1214 -1.2356,-0.3677 -0.2778,-0.2426 -0.4578,-0.6571 -0.5397,-1.2359 -0.1525,-0.9856 -0.3991,-1.6427 -0.7353,-1.9672 -0.3365,-0.3246 -0.8487,-0.4848 -1.5449,-0.4848 -1.0795,0 -1.9006,0.434 -2.4715,1.3023 -0.5673,0.8643 -0.8527,2.1197 -0.8527,3.7621 0,1.588 0.2815,2.8355 0.8407,3.7349 0.5633,0.9034 1.3377,1.3533 2.323,1.3533 0.7589,0 1.3573,-0.1604 1.7952,-0.485 0.438,-0.3246 0.6922,-0.794 0.7625,-1.404 0.0315,-0.2152 0.0471,-0.5281 0.0511,-0.9386 0.004,-0.4147 0.0431,-0.6882 0.1213,-0.8251 0.1366,-0.2778 0.3401,-0.485 0.606,-0.6299 0.2659,-0.1445 0.5828,-0.2188 0.9386,-0.2188 0.6882,0 1.2163,0.2112 1.58,0.6375 0.3677,0.4224 0.5514,1.0324 0.5514,1.8264 0,1.5876 -0.5982,2.8391 -1.7989,3.7505 -1.2008,0.911 -2.8627,1.3685 -4.9864,1.3685 -2.198,0 -3.9461,-0.735 -5.2368,-2.2016 C 16.3454,29.3924 15.7,27.4096 15.7,24.9145 c 0,-2.5381 0.657,-4.5445 1.9712,-6.0227 1.3138,-1.4783 3.0974,-2.2176 5.3538,-2.2176 0.841,0 1.5449,0.1293 2.1118,0.3912 0.5712,0.2582 1.0091,0.6531 1.3141,1.1812 z"
     style="fill:#ffffff;fill-rule:evenodd"
     id="path6" />
  <path
     d="m 47.4568,31.5629 v 0.0666 c 0,0.442 -0.1253,0.7821 -0.3756,1.0129 -0.254,0.2347 -0.6177,0.352 -1.0987,0.352 -0.5202,0 -0.9309,-0.129 -1.2283,-0.3793 -0.297,-0.2503 -0.4456,-0.5944 -0.4456,-1.0326 0,-0.1134 0.0272,-0.3637 0.0859,-0.743 0.0587,-0.3832 0.0862,-0.7078 0.0862,-0.9737 0,-0.2973 -0.0275,-0.6726 -0.0862,-1.1185 -0.0587,-0.4459 -0.0859,-0.7393 -0.0859,-0.8762 0,-0.5749 0.1681,-1.0208 0.5043,-1.3453 0.3365,-0.3246 0.8019,-0.4887 1.3964,-0.4887 0.2775,0 0.5357,0.0507 0.7781,0.1564 0.2466,0.1015 0.4578,0.2503 0.6298,0.438 0.2384,0.2543 0.3949,0.6882 0.4731,1.3102 0.0275,0.2658 0.0587,0.4731 0.0899,0.6179 0.0822,0.3597 0.3795,0.6687 0.8878,0.9346 0.5085,0.2619 1.1069,0.3949 1.7912,0.3949 0.7274,0 1.2946,-0.1525 1.709,-0.4536 0.4108,-0.301 0.618,-0.7197 0.618,-1.2554 0,-0.8448 -0.8368,-1.4313 -2.5107,-1.7521 -0.8838,-0.1681 -1.5996,-0.3286 -2.1393,-0.4811 -1.4235,-0.3832 -2.495,-0.9462 -3.2148,-1.6971 -0.7234,-0.7472 -1.0834,-1.6702 -1.0834,-2.7612 0,-1.4 0.5242,-2.5498 1.5761,-3.4571 1.0483,-0.9034 2.4012,-1.3573 4.0595,-1.3573 0.841,0 1.6036,0.1213 2.2842,0.36 0.6842,0.2424 1.3334,0.6217 1.9553,1.1418 -0.008,-0.0547 -0.0235,-0.129 -0.0471,-0.2188 -0.0311,-0.1369 -0.0467,-0.2308 -0.0467,-0.2738 0,-0.2699 0.1406,-0.4967 0.4144,-0.6843 0.2778,-0.184 0.6219,-0.2778 1.0287,-0.2778 0.4926,0 0.8719,0.1409 1.1381,0.4223 0.2659,0.2855 0.3988,0.6843 0.3988,1.2045 0,0.1448 -0.0195,0.4147 -0.0547,0.8019 -0.0391,0.3909 -0.0587,0.7158 -0.0587,0.9777 0,0.1876 0.0196,0.4459 0.0587,0.7665 0.0352,0.3206 0.0547,0.5513 0.0547,0.6882 0,0.3756 -0.1564,0.6922 -0.4654,0.9505 -0.313,0.2619 -0.7078,0.3912 -1.1849,0.3912 -0.8487,0 -1.4199,-0.5398 -1.7093,-1.6192 -0.0351,-0.1369 -0.0663,-0.2426 -0.0898,-0.309 -0.1134,-0.4067 -0.3793,-0.7237 -0.7901,-0.9544 -0.4104,-0.2307 -0.9269,-0.3441 -1.5446,-0.3441 -0.7313,0 -1.3101,0.1369 -1.7365,0.4147 -0.4223,0.2735 -0.6335,0.6491 -0.6335,1.1222 0,0.7118 0.8759,1.2124 2.624,1.4942 0.8096,0.1289 1.4431,0.2503 1.9007,0.3557 1.5409,0.3597 2.6829,0.919 3.4182,1.6858 0.739,0.7625 1.1067,1.7677 1.1067,3.0112 0,1.6192 -0.5788,2.9098 -1.7362,3.8755 -1.1577,0.9661 -2.6986,1.4511 -4.6228,1.4511 -0.9385,0 -1.7365,-0.125 -2.3975,-0.3793 -0.6608,-0.2503 -1.22,-0.6415 -1.6815,-1.1656 z"
     style="fill:#ffffff;fill-rule:evenodd"
     id="path8" />
  <path
     d="m 38.6107,47.465 -1.3612,-4.6735 -1.353,4.6735 z m -4.7441,-6.4023 c 0.2387,-0.6959 0.5242,-1.1537 0.8604,-1.3726 0.3364,-0.2151 1.1772,-0.3245 2.5225,-0.3245 1.3572,0 2.202,0.1014 2.5265,0.305 0.3246,0.1992 0.6061,0.6647 0.8527,1.3921 l 3.3318,10.0119 c 0.1916,0.5984 0.3561,0.9777 0.493,1.1421 0.1369,0.1641 0.3089,0.2463 0.5162,0.2463 0.176,0 0.4067,-0.0235 0.6882,-0.0705 0.2818,-0.0428 0.4771,-0.0664 0.5828,-0.0664 0.3833,0 0.6999,0.1409 0.9581,0.4184 0.2543,0.2778 0.3833,0.6375 0.3833,1.0834 0,0.5474 -0.1565,0.9737 -0.4655,1.2748 -0.309,0.3013 -0.7429,0.4538 -1.2982,0.4538 -0.137,0 -0.5477,-0.0391 -1.232,-0.1134 -0.6845,-0.0743 -1.2985,-0.1134 -1.8383,-0.1134 -0.5589,0 -1.1537,0.0272 -1.7872,0.0783 -0.6335,0.0547 -0.9933,0.0819 -1.0794,0.0819 -0.739,0 -1.2983,-0.1486 -1.6699,-0.4419 -0.3753,-0.2931 -0.563,-0.7314 -0.563,-1.3139 0,-0.4263 0.1134,-0.7668 0.3402,-1.0247 0.2228,-0.2543 0.5278,-0.3833 0.9073,-0.3833 0.1174,0 0.2229,0.0391 0.3246,0.1134 0.0116,0.0156 0.0196,0.0235 0.0196,0.0235 0.2151,0 0.3832,-0.051 0.5045,-0.1488 0.1251,-0.0975 0.1837,-0.2307 0.1837,-0.3909 0,-0.0587 -0.004,-0.1134 -0.0116,-0.1644 -0.008,-0.0507 -0.0196,-0.1015 -0.0354,-0.1565 l -0.3087,-1.2943 c -0.0666,-0.0119 -0.1644,-0.0195 -0.2858,-0.0314 -0.9853,-0.0703 -1.6894,-0.1055 -2.1078,-0.1055 -0.1916,0 -0.5984,0.0236 -1.224,0.0743 -0.3521,0.0235 -0.6375,0.0431 -0.8606,0.0626 l -0.4456,1.2827 c -0.0159,0.0547 -0.0275,0.1018 -0.0354,0.1449 -0.008,0.0428 -0.0117,0.0975 -0.0117,0.1641 0,0.176 0.0627,0.3169 0.1837,0.4144 0.1214,0.0978 0.2858,0.1488 0.493,0.1488 0,0 0.008,-0.004 0.0235,-0.0119 0.1055,-0.0819 0.2149,-0.125 0.3322,-0.125 0.3716,0 0.669,0.129 0.8918,0.3833 0.2228,0.2579 0.3325,0.5984 0.3325,1.0247 0,0.5905 -0.184,1.0284 -0.5516,1.3178 -0.3637,0.2894 -0.919,0.438 -1.658,0.438 -0.0862,0 -0.4499,-0.0272 -1.0913,-0.0819 -0.6412,-0.0511 -1.2396,-0.0783 -1.7989,-0.0783 -0.5397,0 -1.1537,0.0391 -1.8303,0.1134 -0.6806,0.0743 -1.0951,0.1134 -1.2399,0.1134 -0.563,0 -1.0012,-0.1525 -1.3062,-0.4538 -0.305,-0.3011 -0.4575,-0.7274 -0.4575,-1.2748 0,-0.4459 0.1253,-0.8056 0.3792,-1.0834 0.2503,-0.2775 0.5712,-0.4184 0.9621,-0.4184 0.0902,0 0.2778,0.0236 0.5593,0.0664 0.2855,0.047 0.5202,0.0705 0.7118,0.0705 0.1995,0 0.3637,-0.0822 0.4966,-0.2426 0.1369,-0.1602 0.3053,-0.5397 0.5125,-1.1458 z"
     style="fill:#ffffff;fill-rule:evenodd"
     id="path10" />
</svg>
