<?xml version="1.0" encoding="utf-8"?>
<!-- Generator: Adobe Illustrator 26.0.0, SVG Export Plug-In . SVG Version: 6.00 Build 0)  -->
<!DOCTYPE svg PUBLIC "-//W3C//DTD SVG 1.1//EN" "http://www.w3.org/Graphics/SVG/1.1/DTD/svg11.dtd" [
	<!ENTITY ns_extend "http://ns.adobe.com/Extensibility/1.0/">
	<!ENTITY ns_ai "http://ns.adobe.com/AdobeIllustrator/10.0/">
	<!ENTITY ns_graphs "http://ns.adobe.com/Graphs/1.0/">
	<!ENTITY ns_vars "http://ns.adobe.com/Variables/1.0/">
	<!ENTITY ns_imrep "http://ns.adobe.com/ImageReplacement/1.0/">
	<!ENTITY ns_sfw "http://ns.adobe.com/SaveForWeb/1.0/">
	<!ENTITY ns_custom "http://ns.adobe.com/GenericCustomNamespace/1.0/">
	<!ENTITY ns_adobe_xpath "http://ns.adobe.com/XPath/1.0/">
]>
<svg version="1.1" id="Estrellas" xmlns:x="&ns_extend;" xmlns:i="&ns_ai;" xmlns:graph="&ns_graphs;"
	 xmlns="http://www.w3.org/2000/svg" xmlns:xlink="http://www.w3.org/1999/xlink" x="0px" y="0px" width="837.2px" height="1000px"
	 viewBox="0 0 837.2 1000" style="enable-background:new 0 0 837.2 1000;" xml:space="preserve">
<style type="text/css">
	.Collage_x0020_en_x0020_papel_x0020_de_x0020_seda{opacity:0.8;fill:#CD7C3F;}
	.Transformación{fill:none;stroke:#0076BA;stroke-width:7;stroke-linecap:round;stroke-miterlimit:50;}
	.Pergamino{fill:#F4DE38;fill-opacity:0.43;}
	.Espirografía{fill:#FFFFFF;stroke:#C3D272;stroke-width:2;}
	.Polo{fill:none;stroke:#C3D272;}
	.Texto_x0020_hielo{fill:#63B2E5;stroke:#B6D9F3;stroke-width:3;}
	.Texto_x0020_sorbete{fill:url(#SVGID_1_);fill-opacity:0.5;stroke:#142726;stroke-width:0.5;}
	.Texto_x0020_de_x0020_neón{fill:none;stroke:#BD2F84;stroke-width:10;stroke-linecap:round;stroke-linejoin:round;}
	.Esgrafiado{fill:#211915;}
	.Garabato_x0020_doble{fill:#211915;}
	.Bola_x0020_de_x0020_pelo{fill:#523F25;}
	.st0{fill:#283253;}
	.st1{fill:#B0B0AF;}
	.st2{fill:#FFFFFF;}
</style>

<linearGradient id="SVGID_1_" gradientUnits="userSpaceOnUse" x1="2321.4668" y1="1017.3224" x2="2322.4668" y2="1017.3224">
	<stop  offset="0.191" style="stop-color:#63B2E5"/>
	<stop  offset="0.4494" style="stop-color:#D1AFCF"/>
	<stop  offset="0.5562" style="stop-color:#FAEC40"/>
	<stop  offset="0.573" style="stop-color:#CE6D49"/>
	<stop  offset="0.58" style="stop-color:#CF6F4A"/>
	<stop  offset="0.7063" style="stop-color:#DC9652"/>
	<stop  offset="0.8225" style="stop-color:#E5B258"/>
	<stop  offset="0.9241" style="stop-color:#EBC35C"/>
	<stop  offset="1" style="stop-color:#EDC95D"/>
</linearGradient>
<g id="Escudo_dos_estrellas_00000090292953381217852590000008939416213570221699_">
	<g>
		<g>
			<path class="st0" d="M418.5,242.6h305.6l102.4,142.5C789.1,412,710,452.7,735,540.5c10.6,59.2,86.4,90.6,85.9,198.4
				c0.5,262.7-308.4,152.2-396.8,249.8C335.7,891.1,15.6,1001.6,16,738.9c-0.4-107.8,75.5-139.2,86.2-198.4
				c24.9-87.9-54.1-128.6-91.7-155.4L113,242.6H418.5z"/>
			<path class="st1" d="M424.1,1000l-5.6-6.1c-30.3-33.6-92.1-41.4-157.6-49.6c-59.7-7.5-121.5-15.3-169.6-42.8
				C35.5,869.6,8.4,816.4,8.6,738.9c-0.3-68,28.3-106.2,53.5-139.8c15.4-20.7,28.8-38.5,32.6-59.9l0.1-0.7
				c20.8-73-34.5-110.5-75-137.9c-4.9-3.3-9.6-6.4-13.6-9.4L0,386.8l109.2-151.7H728l109.2,151.7l-6.3,4.4c-4.1,3-8.7,6.2-13.5,9.4
				c-40.5,27.4-95.9,64.8-75.1,137.9l0.2,0.7c3.8,21.5,17.2,39.2,32.6,59.9c25.2,33.6,53.7,71.8,53.5,139.9
				c0.1,77.5-26.1,130.7-80.1,162.6c-46.8,27.5-106.7,35.3-164.8,42.8c-63.5,8.2-123.7,16-154.1,49.6L424.1,1000z M109.5,542.1
				C105,567.1,90,587,74.2,608.2C50.4,639.9,23.4,676,23.7,738.9c-0.3,160.3,121.4,175.5,239.2,190.4c64.8,8.1,126,15.9,161.3,48.7
				c35-32.8,94.8-40.5,157.7-48.7c114-14.7,231.8-30,231.6-190.3c0.2-63-26.7-99.1-50.5-130.8c-15.9-21.2-30.8-41.1-35.4-66.1
				c-23.5-83.3,42.2-127.6,81.2-154.1c2.5-1.6,4.9-3.2,7.1-4.8l-95.6-133.1H116.9L21.3,383.3c2.2,1.6,4.6,3.2,7,4.8
				C67.4,414.5,133.1,458.8,109.5,542.1"/>
			<path class="st2" d="M138.8,400.6H216V904c-42.7-9-66.3-14.3-77.2-22.3V400.6z"/>
			<path class="st2" d="M216.3,904.2l-0.3,0c-42-8.8-66.2-14.1-77.3-22.3v-0.1V400.4h77.7V904.2z M139.1,881.6
				c11,8,35.2,13.4,76.8,22.1V401h-76.8V881.6z"/>
			<path class="st2" d="M698.9,400.6h-77.2V904c42.7-9,66.4-14.3,77.2-22.3V400.6z"/>
			<path class="st2" d="M621.4,904.2V400.4h77.7v481.4l-0.1,0.1c-11,8.2-35.3,13.6-77.2,22.3L621.4,904.2z M621.9,401v502.7
				c41.6-8.7,65.7-14.1,76.7-22.1V401H621.9z"/>
			<path class="st2" d="M297,400.6h77.2v528.1c-25.7-6.6-55.6-13.7-77.2-17.1V400.6z"/>
			<path class="st2" d="M374.3,929l-0.3-0.1c-22.4-5.8-53.9-13.4-77.2-17h-0.3V400.4h77.7V929z M297.2,911.5
				c23.1,3.6,54.4,11.2,76.7,17V401h-76.7V911.5z"/>
			<path class="st2" d="M543.3,400.6h-77.2v528.1c25.5-6.6,55.5-13.7,77.2-17.1V400.6z"/>
			<path class="st2" d="M465.9,929.1V400.4h77.7v511.5h-0.2c-23.4,3.6-54.8,11.2-77.2,17L465.9,929.1z M466.4,401v527.5
				c22.3-5.8,53.6-13.4,76.7-17V401H466.4z"/>
			<path class="st2" d="M292.6,298h-43.5v44h43.5v-15l16.2,3.4v8.2c0,6.3-1.1,10.6-3.6,13c-2.5,2.3-7,3.4-13.6,3.4h-41.4
				c-6.8,0-11.4-1.2-13.7-3.4c-2.3-2.3-3.5-6.6-3.5-13V302c0-6.4,1.2-10.6,3.5-13c2.4-2.3,6.9-3.4,13.7-3.4h41.4
				c6.7,0,11.2,1.1,13.6,3.4c2.4,2.4,3.6,6.6,3.6,13v6.5l-16.2,2.6V298z"/>
			<path class="st2" d="M351.5,334.2h2.4c1.2,0,2,0.3,2.4,1c0.6,0.7,0.8,2,0.8,3.9V350c0,2.2-0.2,3.4-0.8,4.1
				c-0.5,0.6-2.2,0.9-4.8,0.9h-12c-1.2,0-2-0.3-2.5-1.1c-0.6-0.7-0.7-2.1-0.7-3.9v-10.9c0-2,0.1-3.4,0.7-4c0.5-0.6,2.1-0.9,4.9-0.9
				H351.5z"/>
			<path class="st2" d="M373.4,355l39.3-69.4h15.5l39.9,69.4H450l-8.4-15.1h-44l-8.1,15.1H373.4z M404.5,327.3h30.4l-15-28.3
				L404.5,327.3z"/>
			<path class="st2" d="M499.8,334.2h2.5c1.2,0,2,0.3,2.5,1c0.5,0.7,0.7,2,0.7,3.9V350c0,2.2-0.2,3.4-0.7,4.1
				c-0.6,0.6-2.2,0.9-4.9,0.9h-12c-1.1,0-2-0.3-2.5-1.1c-0.4-0.7-0.7-2.1-0.7-3.9v-10.9c0-2,0.3-3.4,0.9-4c0.5-0.6,2.2-0.9,4.8-0.9
				H499.8z"/>
			<polygon class="st2" points="567.2,298 567.2,355 551.2,355 551.2,298 519.3,298 519.3,285.6 599.4,285.6 599.4,298 			"/>
			<polygon class="st1" points="289.1,0 309.3,62.4 374.9,62.4 321.9,100.9 342.1,163.3 289.1,124.8 236,163.3 256.3,100.9 
				203.2,62.4 268.8,62.4 			"/>
			<polygon class="st1" points="548.1,0 568.4,62.4 634,62.4 580.9,100.9 601.2,163.3 548.1,124.8 495,163.3 515.3,100.9 
				462.3,62.4 527.8,62.4 			"/>
		</g>
	</g>
</g>
</svg>
