<?xml version="1.0" encoding="utf-8"?>
<!-- Generator: Adobe Illustrator 16.0.3, SVG Export Plug-In . SVG Version: 6.00 Build 0)  -->
<!DOCTYPE svg PUBLIC "-//W3C//DTD SVG 1.1//EN" "http://www.w3.org/Graphics/SVG/1.1/DTD/svg11.dtd">
<svg version="1.1" id="Capa_1" xmlns="http://www.w3.org/2000/svg" xmlns:xlink="http://www.w3.org/1999/xlink" x="0px" y="0px"
	 width="192.381px" height="211.389px" viewBox="0 0 192.381 211.389" enable-background="new 0 0 192.381 211.389"
	 xml:space="preserve">
<path d="M8.628,26.002c0.145,0.022,50.411,8.188,83.609-24.383c2.189-2.154,5.709-2.162,7.906,0
	C131.7,32.58,178.672,26.733,183.367,26.06c0.141-0.032,0.284-0.059,0.431-0.08c3.085-0.451,5.953,1.684,6.404,4.77
	c18.891,128.46-91.267,179.935-91.582,180.086l0,0c-1.483,0.708-3.261,0.765-4.859,0C93.445,210.685-16.712,159.21,2.179,30.75
	l0.016,0.002l0.007-0.046C2.676,27.632,5.554,25.526,8.628,26.002"/>
<path fill-rule="evenodd" clip-rule="evenodd" fill="#FFFFFF" d="M96.19,5.638C60.954,40.21,7.766,31.567,7.766,31.567
	C-10.517,155.894,96.19,205.757,96.19,205.757s106.707-49.863,88.424-174.189C184.614,31.567,131.428,40.21,96.19,5.638"/>
<path fill-rule="evenodd" clip-rule="evenodd" d="M123.876,128.037c0.047,0.188,0.188,0.376,0.282,0.61
	c0.423,0.564,0.471,1.224,0.564,1.976c0.047,0.376-0.048,0.847,0.094,1.176c0,0.423,0.235,0.752,0.282,1.129
	c-0.235,0.094-0.376,0.234-0.611,0.141c-0.141-0.329-0.329-0.518-0.376-0.94c-0.282-1.034,0.188-2.305-0.282-3.245
	c-0.094-0.423-0.235-0.894-0.282-1.363C123.782,127.52,123.735,127.896,123.876,128.037 M128.202,142.708
	c0.423,1.411,0.94,2.774,1.27,4.186c-0.188,0-0.188-0.188-0.282-0.329c-0.188-0.329-0.329-0.705-0.517-1.082
	c-0.142-0.188-0.235-0.61-0.377-0.799c-0.047-0.188-0.234-0.424-0.281-0.611c-0.142-0.142-0.142-0.376-0.33-0.518
	c0-0.376-0.329-0.471-0.329-0.894C127.591,142.567,128.202,142.144,128.202,142.708z M131.776,128.883
	c0,0.235-0.142,0.282-0.188,0.471c-0.094,0.047-0.094,0.234-0.141,0.282c-0.095,0.141-0.095,0.329-0.188,0.47
	c0,0.329-0.235,0.611-0.282,0.894c-0.141,0.095-0.188,0.282-0.282,0.424c-0.047,0.047-0.094,0.234-0.188,0.281
	c-0.329,0.33-0.564,0.659-0.894,0.94c0.047,0.095-0.095,0.142-0.095,0.142c-0.141,0.188-0.188,0.423-0.329,0.471
	c-0.188,0.234-0.188,0.705-0.517,0.611c-0.188,0-0.33-0.235-0.377-0.282c0-0.235,0.142-0.424,0.188-0.658
	c0.141-0.142,0.282-0.33,0.376-0.518c0.188-0.235,0.376-0.329,0.471-0.564c0.282-0.188,0.611-0.564,0.847-0.706
	c0.141-0.234,0.423-0.47,0.517-0.846c0.094-0.048,0.235-0.094,0.142-0.188c0.094-0.094,0.141-0.282,0.188-0.376
	c0.095-0.094,0.188-0.235,0.188-0.376C131.447,129.307,131.447,128.836,131.776,128.883z M123.688,148.633l0.048-0.234l0.047-0.188
	l0.094-0.235l0.141-0.234l0.095-0.235l0.094-0.235c0,0,0.094-0.141,0.142-0.235c0-0.094,0.141-0.281,0.141-0.281l0.094-0.235v-0.282
	l0.048-0.142v-0.047c0.141-0.705,0.046-1.505,0.234-2.163c0-0.047,0-0.094,0-0.141l0.095-0.33v-0.046
	c0.094-0.142,0.141-0.283,0.141-0.518c-0.047,0-0.094,0-0.094,0c-0.047-0.047-0.095-0.047-0.142-0.047c-0.094,0-0.188,0-0.282-0.048
	h-0.141l-0.047,0.048l-0.188,0.517c-0.047,0.377-0.141,0.753-0.188,1.082c0.048,1.034,0.142,1.975-0.188,2.868
	c-0.188,0.329-0.235,0.705-0.235,1.082v0.234L123.688,148.633z M131.635,146.8l-0.047-0.047c0-0.048,0-0.095-0.047-0.142
	l-0.142-0.471c-0.141-0.47-0.329-0.94-0.47-1.316c-0.142-0.188-0.235-0.376-0.423-0.564c-0.424-0.611-1.035-1.128-1.364-1.786
	c-0.141-0.188-0.188-0.33-0.282-0.564c-0.047,0-0.094-0.048-0.094,0c-0.094,0.047-0.142,0.094-0.235,0.141
	c-0.047,0.047-0.094,0.141-0.235,0.141c0,0.753,0.706,1.458,1.176,1.929c0.706,0.658,1.364,1.316,1.646,2.257
	c0.141,0.142,0.234,0.471,0.423,0.518l0.094-0.047c0-0.047,0-0.047-0.047-0.094L131.635,146.8z M131.447,146.47v0.048
	C131.447,146.47,131.447,146.47,131.447,146.47z M135.679,135.701c0.095,0.188-0.141,0.282-0.282,0.282
	c-0.281,0.142-0.517,0.376-0.847,0.471c-0.234,0.188-0.658,0.282-1.034,0.282l-0.047,0.047c-0.705,0.094-1.316-0.095-1.928,0.142
	c-0.282,0.094-0.564,0.188-0.847,0.141c0.047-0.188-0.047-0.329-0.047-0.518c0.188-0.047,0.329-0.188,0.518-0.282
	c0.987-0.376,2.304,0.094,3.291-0.234c0.188,0,0.424-0.095,0.611-0.235C135.256,135.796,135.491,135.749,135.679,135.701z
	 M118.985,132.786c0,0,0.047,0,0.094,0c0.095,0.142,0.33,0.235,0.377,0.329h0.047l0.094,0.094l-0.047-0.047l0.329,0.235v0.047
	c0.47,0.564,1.128,1.082,1.928,1.363v0.188c-0.094,0.141-0.188,0.235-0.282,0.376c-0.047,0.048-0.141,0.094-0.188,0.048
	c-0.142-0.095-0.424-0.095-0.564-0.283h-0.047c-0.142-0.141-0.377-0.188-0.471-0.375c0-0.048-0.047,0-0.141,0
	c-0.424-0.377-0.847-1.129-1.364-1.459c-0.329-0.375-0.8-0.47-1.175-0.705c0,0,0,0-0.048-0.047h-0.094
	c-0.142-0.141-0.329-0.188-0.471-0.329v-0.141c0.048-0.047,0.095,0,0.142,0l1.411,0.563l0.423,0.142H118.985z M129.284,129.871
	c0,0,0,0,0,0.046l0,0l-0.095,0.235c0,0.048,0,0.094-0.047,0.142l0,0l-0.047,0.188c0,0.047-0.047,0.047-0.047,0.047l-0.282,0.846
	c-0.047,0.142-0.094,0.329-0.142,0.471h0.048l-0.471,1.457c0,0-0.047,0-0.047,0.048l-0.047,0.141l-0.235-0.047l-0.047-0.047
	c-0.142-0.047-0.329-0.095-0.424-0.188v-0.047h-0.047l0.047-0.141v-0.094c0.095-0.095,0.188-0.235,0.235-0.377l0,0l0.047-0.094
	v-0.047h0.047l0.33-0.753c0,0,0-0.047,0.047-0.047c0-0.047,0-0.094,0.047-0.094l0.188-0.377c0-0.046,0-0.046,0-0.094
	c0.048,0,0.048-0.047,0.048-0.047l0.752-1.599c0-0.047,0.047-0.094,0.047-0.094l0.188-0.376l0.188-0.33h0.095l0.047,0.188
	l-0.188,0.423L129.284,129.871z M121.055,139.511L121.055,139.511l-0.048-0.094l-0.046-0.048l-4.327,2.211l0.095,0.141l0.047-0.047
	h-0.047l0.047,0.094l4.562-1.552v-0.094l-0.047-0.047c-0.048-0.142-0.142-0.33-0.188-0.471v-0.047L121.055,139.511z
	 M121.524,140.451c-0.047,0-0.047,0-0.047-0.047c-0.94,0.141-1.552,0.752-2.163,1.457c-0.235,0.188-0.376,0.471-0.658,0.612
	c-0.282,0.329-0.658,0.47-1.034,0.658c-0.047,0.188-0.33,0.047-0.282,0.329c0.987-0.094,1.975-0.518,2.539-1.176
	c0.094-0.095,0.282-0.235,0.423-0.376c0.33-0.188,0.564-0.659,1.129-0.706c0.094-0.141,0.423-0.047,0.376-0.282
	C121.713,140.78,121.619,140.639,121.524,140.451z M129.049,141.627c0,0.047,0.047,0.141,0.094,0.141l0,0l0.047,0.047
	c0,0.047,0.047,0.047,0.047,0.047l2.116,1.882l1.082,0.987l0.047,0.047l0.047-0.235l0.047-0.141l-0.752-0.847
	c-0.142-0.142-0.282-0.329-0.424-0.471l-0.188-0.234h-0.047l-0.235-0.235c0,0,0-0.047,0-0.094l-0.188-0.188
	c-0.188-0.047-0.282-0.142-0.282-0.329l-0.188-0.142l-0.188-0.329c-0.329,0.048-0.329-0.376-0.564-0.376
	c-0.047,0.094-0.141,0.188-0.234,0.282C129.189,141.485,129.143,141.58,129.049,141.627z M118.421,130.623l1.364,1.552
	c0,0,0.047,0,0.047,0.047l2.068,2.352h0.048c0.282,0.047,0.282-0.188,0.47-0.282v-0.142l0.094-0.094l0.048-0.047l-3.997-3.386
	H118.421z M121.007,139.229c-0.375,0.423-0.987,0.47-1.551,0.47c-1.223-0.094-2.445,0-3.574,0.424h-0.376
	c0-0.095,0.047-0.095,0.141-0.142c0.376-0.094,0.658-0.329,0.987-0.47l0.235-0.142l0.142-0.094h0.094
	c0-0.047,0.047-0.047,0.047-0.047h0.047c0,0,0.094-0.094,0.188-0.094c0,0,0.047,0,0.094,0c0.94-0.329,2.305,0.094,3.198-0.518
	c0.094-0.047,0.141-0.047,0.188,0C120.913,138.806,120.961,139.04,121.007,139.229z M123.029,143.884l-1.223,3.809l0.047,0.048
	l0.095-0.048l1.646-3.573c0.094-0.188,0.188-0.376,0.282-0.518c0-0.047,0-0.094,0-0.141l0.047-0.094
	c0.047-0.095,0.094-0.142,0.142-0.235c0.094-0.142,0.188-0.282,0.141-0.471c0,0,0,0,0-0.047c-0.047,0-0.094,0-0.141,0
	c-0.048,0-0.095,0-0.095-0.047c-0.047-0.047-0.047-0.047-0.047-0.047h-0.047c-0.047,0-0.047,0-0.047-0.047c-0.047,0-0.047,0-0.094,0
	h-0.188c-0.047,0.141-0.142,0.234-0.142,0.423c0,0.094-0.047,0.188-0.094,0.282L123.029,143.884z M132.293,141.721l0.329,0.329
	c0,0.141,0.048,0.235,0.188,0.235l0.141,0.141c0.048,0.235,0.282,0.188,0.377,0.329c0.094,0.235,0.376,0.095,0.47,0.282
	c0.188,0.095,0.424,0.235,0.611,0.33c0.047,0.188,0.141,0.188,0.188,0.329c-0.471-0.095-0.94-0.283-1.458-0.471
	c-0.658-0.142-1.129-0.752-1.692-1.082c-0.471-0.517-0.988-0.987-1.646-1.175l0.047-0.235c0.047-0.047,0.095-0.142,0.142-0.188
	l0.141-0.141c0.564-0.048,1.129,0.47,1.552,0.846C131.823,141.392,132.011,141.721,132.293,141.721z M122.089,143.084l-0.094,0.095
	c0,0,0,0-0.047,0c0,0.047,0,0.047,0,0.047v0.047l-0.188,0.188c-0.047,0-0.094,0.047-0.094,0.094l-0.094,0.094
	c-0.095,0.095-0.235,0.188-0.33,0.329l-0.094,0.142c-0.142,0.094-0.142,0.282-0.282,0.423c-0.047,0.047-0.047,0.094-0.047,0.142
	l-0.141,0.234c-0.047,0-0.047,0-0.047,0c-0.048,0.142-0.095,0.282-0.142,0.424v0.047c-0.047,0.047-0.047,0.047-0.047,0.094v0.095
	v-0.048c0,0.048,0.047,0.142-0.047,0.142c0,0.329-0.188,0.564-0.329,0.894c0,0.047-0.048,0.188,0.047,0.188
	c0.188-0.048,0.141-0.33,0.329-0.377c0.47-1.504,1.739-2.021,2.539-3.197c0.142-0.235,0.329-0.564,0.376-0.894
	c-0.188-0.095-0.329-0.235-0.518-0.329c0-0.047-0.047-0.047-0.094-0.047c0,0.141-0.094,0.094-0.047,0.188
	c-0.094,0.094-0.141,0.282-0.188,0.377c-0.046,0.047-0.046,0.094-0.094,0.141c-0.047,0.047-0.094,0.141-0.094,0.141l-0.188,0.235
	L122.089,143.084z M125.852,128.366c-0.048,0.846,0.234,1.646,0.141,2.397c0.141,0.753,0.094,1.317,0.188,2.116
	c-0.142,0.142-0.471,0.048-0.658,0.048c-0.048-1.505,0.046-3.104,0.188-4.609L125.852,128.366z M118.985,144.777l0.047-0.047
	l0.142-0.188l0.141-0.141c0-0.188,0.235-0.188,0.235-0.376c0.235-0.142,0.329-0.424,0.564-0.658
	c0.047-0.095,0.141-0.142,0.188-0.188l0.282-0.329c0,0,0,0,0-0.047l0.518-0.612c0.047-0.047,0.047-0.047,0.047-0.047l0,0
	l0.094-0.141c0.048,0,0.048-0.047,0.048-0.047l0.658-0.8l0.141,0.094c0.047,0.095,0.142,0.142,0.188,0.188
	c0.094,0.094,0.141,0.142,0.234,0.235c0.048,0.235-0.234,0.188-0.281,0.376c-0.8,0.658-1.505,1.27-2.258,1.928l-0.094,0.095
	l-0.188,0.141c-0.094,0.094-0.141,0.188-0.281,0.188l-0.377,0.329L118.985,144.777z M120.819,138.241
	c-1.41-0.048-2.963-0.142-4.373-0.282c0.987-0.142,1.787-0.282,2.68-0.282c0.283-0.142,0.612,0,0.941-0.094
	c0.234-0.048,0.517-0.048,0.752-0.048c0,0.142,0,0.282,0,0.424C120.819,138.053,120.819,138.147,120.819,138.241z M130.601,139.511
	l-0.047,0.047C130.554,139.558,130.601,139.558,130.601,139.511z M130.318,140.122l-0.047-0.047h-0.047
	c0.094-0.188,0.188-0.377,0.234-0.564l0.048-0.094h0.047v0.047l-0.047-0.047l0.094,0.047l0.564,0.281
	c0.047,0.048,0.094,0.048,0.141,0.048c0.047,0.047,0.142,0.094,0.188,0.141l0.141,0.047c0.094,0.047,0.188,0.095,0.282,0.142l0,0
	l0.188,0.094c0.047,0,0.047,0.047,0.094,0.047c0.658,0.329,1.364,0.706,2.022,1.035l0,0l1.505,0.752l0.047,0.188l-4.186-1.646
	c-0.047,0-0.094,0-0.094,0c-0.188-0.047-0.376-0.141-0.611-0.188C130.694,140.356,130.507,140.216,130.318,140.122L130.318,140.122z
	 M123.5,133.491l0.188-0.094c0.048,0,0.142,0,0.188-0.047l0.376-0.188l-0.047-0.094v-0.047c-0.047-0.142-0.141-0.282-0.188-0.377
	l-0.094-0.188c-0.047-0.047-0.047-0.047-0.047-0.047c-0.047-0.095-0.047-0.142-0.094-0.235l-0.8-1.646h-0.047
	c0-0.047-0.047-0.142-0.095-0.188l-0.375-0.847c-0.048,0-0.048,0-0.048,0v-0.047l-0.47-0.94H121.9v0.047l-0.047,0.047l1.271,3.668
	c0,0.095,0.047,0.188,0.047,0.235L123.5,133.491z M134.174,139.182l0.376,0.141l0.048,0.047c0.423,0.188,0.799,0.471,1.223,0.658
	c0.141-0.094,0.188,0.142,0.329,0.048v0.141c-0.235,0-0.518-0.047-0.706-0.094c-0.376-0.142-0.752-0.188-1.128-0.329l-0.047-0.048
	c-0.8-0.188-1.552,0.095-2.352,0c-0.141-0.141-0.329-0.047-0.47-0.141c-0.142-0.141-0.329-0.047-0.471-0.141
	c-0.047-0.095-0.282-0.095-0.329-0.188c0-0.235,0-0.47,0.141-0.658c0.142,0.094,0.377,0,0.471,0.141
	c0.094,0.048,0.329,0.142,0.518,0.188C132.528,139.135,133.422,138.946,134.174,139.182z M126.181,142.943
	c-0.142,1.552-0.188,3.104-0.283,4.655c-0.046,0.047-0.094,0.047-0.141,0.047c-0.141-0.423,0.047-0.846-0.141-1.316
	c-0.048-1.082-0.142-2.304-0.142-3.386C125.71,142.99,125.897,142.85,126.181,142.943z M127.355,143.226
	c0.047,0.235,0.188,0.423,0.188,0.705c0.141,1.129-0.235,2.492,0.329,3.48c0.047,0.234,0.094,0.517,0.094,0.705h-0.094
	c-0.142,0-0.094-0.142-0.188-0.188c-0.094-0.423-0.329-0.752-0.517-1.081c-0.047-0.329-0.235-0.611-0.282-0.987
	c-0.095-0.894,0.047-1.834-0.376-2.634c0.047-0.142-0.048-0.235,0-0.376c0.234,0.094,0.329-0.142,0.611-0.095L127.355,143.226z
	 M134.738,132.081c-0.094,0.282-0.423,0.329-0.564,0.517c-0.188,0-0.376,0.282-0.563,0.282c-0.518,0.423-1.224,0.753-1.505,1.364
	c-0.424,0.329-0.753,0.705-1.223,0.893c-0.188,0.188-0.564,0.188-0.753,0.283c-0.141-0.188-0.329-0.33-0.329-0.612
	c0.377-0.046,0.518-0.188,0.847-0.376c0.94-0.658,1.458-1.457,2.539-1.834c0.235-0.188,0.611-0.094,0.894-0.329
	C134.269,132.269,134.456,132.081,134.738,132.081z M115.835,135.701c0.094,0.095,0.329,0,0.47,0.095
	c0,0.141,0.188,0.047,0.282,0.094c0,0.047,0.047,0.094,0.095,0.047h0.094v0.047c1.081,0.329,2.351-0.094,3.433,0.235
	c0.188,0.094,0.471,0.141,0.611,0.329c0.094-0.047,0.094,0.094,0.188,0.094l0,0c-0.046,0.188-0.094,0.377-0.141,0.564
	c-0.141,0-0.234-0.094-0.423-0.141c-0.047-0.095-0.235-0.047-0.376-0.141c-0.988-0.33-2.163-0.095-3.104-0.471
	c-0.047,0-0.141-0.142-0.281-0.095c-0.188-0.141-0.377-0.234-0.564-0.281c-0.047-0.095-0.282-0.095-0.377-0.142
	c-0.094-0.094-0.423-0.047-0.376-0.282L115.835,135.701z M134.504,134.291c-0.095,0.235-0.424,0.329-0.612,0.471
	c-0.47,0.141-0.893,0.423-1.363,0.658c-0.658,0.188-1.27,0.705-2.021,0.846c-0.048-0.282-0.235-0.376-0.188-0.658
	c0.329,0.047,0.564-0.282,0.894-0.235c0.235-0.188,0.517-0.188,0.799-0.282c0.424-0.234,0.94-0.282,1.317-0.517
	C133.751,134.479,134.08,134.244,134.504,134.291z M131.635,132.363c-0.047,0-0.047,0.047-0.094,0.094l-0.282,0.282
	c0,0.047-0.047,0.094-0.047,0.141c-0.047,0-0.094,0.048-0.142,0.095l-0.563,0.658c0,0,0,0.047-0.048,0.047l-0.658,0.799
	l-0.047,0.048v-0.048c-0.376,0.329-0.329-0.188-0.611-0.234c0-0.329,0.376-0.376,0.471-0.611c0.564-0.282,1.081-1.035,1.646-1.411
	c0.047-0.141,0.235-0.141,0.235-0.376c0.188,0.094,0.141-0.094,0.188-0.142v-0.047c0.188,0,0.095-0.141,0.235-0.188l0.047-0.095
	c0.188,0.095,0.235-0.094,0.329-0.188h0.188v0.188h-0.047l-0.564,0.659C131.776,132.175,131.729,132.269,131.635,132.363z
	 M119.032,134.808c0.094,0.048,0.235,0.142,0.377,0.142c0.234,0.188,0.517,0.094,0.799,0.235c0.047,0.141,0.282,0.141,0.471,0.188
	c0.188,0,0.282,0.188,0.517,0.188c0,0,0,0.047,0.047,0.047h0.095c0,0.047,0,0.142-0.047,0.188c-0.048,0.141-0.142,0.329-0.188,0.47
	h-0.282c-0.329-0.188-0.658-0.376-0.987-0.517l-0.376-0.142l-0.988-0.518l-1.316-0.658c-0.047-0.047-0.141-0.094-0.141-0.188
	C117.716,134.291,118.327,134.667,119.032,134.808z M135.773,137.817v0.142c-1.787,0-3.292,0.234-4.985,0.234
	c0.048-0.234-0.141-0.658,0.188-0.752C132.575,137.583,134.174,137.677,135.773,137.817z M128.108,127.802
	c-0.094,0.141-0.142,0.329-0.142,0.47c-0.141,0.047,0,0.235-0.094,0.282c0,0.282-0.188,0.471-0.188,0.705
	c-0.141,0.377-0.141,0.8-0.141,1.176l0.094,0.095v1.081h-0.047l-0.094,0.658c-0.095,0.095-0.095,0.282-0.142,0.424
	c-0.047,0.094-0.094,0.188-0.141,0.329c0,0-0.047,0-0.047,0.047v0.047c-0.235-0.047-0.471-0.047-0.658-0.141v-0.188
	c0.047-0.047,0.188-0.188,0.188-0.376c0-0.142,0.047-0.282,0.094-0.376h0.048c0.141-0.847,0-1.646,0.188-2.446
	c0.142-0.329,0.235-0.752,0.471-1.034v-0.047c0.047,0,0.047,0,0.047-0.047v-0.094c0.047,0,0.094,0,0.094-0.048v-0.094
	c0.047-0.141,0.142-0.282,0.188-0.471c0.094-0.094,0.047-0.376,0.282-0.328V127.802z M124.675,135.607
	c0.048,0.094,0.235,0.142,0.235,0.235c0.941,0.752,0.377,2.116,0.377,3.197c0.094,0.188,0.141,0.377,0.281,0.518
	c0.142-0.094,0.188,0.094,0.283,0.047v0.141c-0.188,0-0.377,0-0.518-0.047v-0.094c-0.235,0-0.705,0.141-0.753-0.235
	c0-0.094-0.047-0.234,0.048-0.282c0.141,0.095,0.094,0.377,0.423,0.377c0.188-0.095,0.094-0.282,0.235-0.424
	c-0.188-0.987,0.423-2.163-0.424-2.681c-0.141-0.188-0.329-0.234-0.47-0.328c-0.471-0.235-0.94-0.142-1.458-0.142
	c-0.095,0.142-0.282,0-0.376,0.094c-0.282,0.095-0.518,0.376-0.847,0.376c-0.141-0.281,0.329-0.328,0.423-0.563
	c0.33-0.095,0.564-0.282,0.94-0.376C123.594,135.325,124.205,135.372,124.675,135.607z M125.71,141.392
	c-0.188,0.047-0.518,0.047-0.518-0.142L125.71,141.392z M125.663,140.498c0.047,0.094-0.095,0.141-0.141,0.094h-0.095v-0.141
	C125.522,140.498,125.568,140.451,125.663,140.498z M126.368,141.25c-0.047,0.282-0.471,0.095-0.658,0.142
	C125.852,141.203,126.086,141.298,126.368,141.25z M126.697,140.592c0.094,0.095,0.188,0.095,0.329,0.142
	c0.047,0.188-0.235,0.282-0.423,0.423c0.188-0.188-0.094-0.235-0.235-0.329c-0.423,0.094-1.034-0.188-1.363,0.142l0.047,0.234
	c-0.094-0.094-0.377-0.047-0.282-0.282c-0.141,0-0.188-0.047-0.188-0.188c0.329,0.141,0.471-0.423,0.847-0.471
	C125.897,140.404,126.368,140.122,126.697,140.592z M129.519,135.796c0.095,0.235,0.471,0.235,0.471,0.563h-0.188
	c0-0.094-0.188-0.094-0.188-0.188c-0.8-0.471-1.834-0.376-2.634,0c-0.329,0.141-0.423,0.564-0.799,0.564v-0.188
	c0.047-0.094,0.234-0.188,0.188-0.329c0.471-0.564,1.316-0.894,2.21-0.799C128.954,135.561,129.236,135.654,129.519,135.796z
	 M127.544,137.583c0.047,0.141,0.188,0.188,0.188,0.376h-0.329c0-0.095-0.188-0.142-0.234-0.235h-0.142
	c-0.047-0.141,0.142-0.141,0.188-0.282c0.188,0.094,0.141-0.094,0.329-0.047V137.583z M127.967,137.395
	c0,0.094,0.048,0.188,0.142,0.188s0.188-0.095,0.188-0.188c0-0.047-0.094-0.141-0.188-0.141S127.967,137.348,127.967,137.395z
	 M129.236,137.535c0.095,0.329-0.282,0.329-0.423,0.471h-0.235c0.095-0.188,0.235-0.329,0.282-0.611
	C129.002,137.348,129.096,137.535,129.236,137.535z M129.002,136.736c0.234,0.047,0.376,0.188,0.563,0.329
	c0.095,0.188,0.282,0.188,0.424,0.329c0.047,0.047,0,0.188,0.141,0.188h0.188v0.141c-0.235,0.141-0.518,0.047-0.8,0
	c-0.376,0.47-1.223,0.752-1.975,0.47c0-0.141-0.188,0-0.235-0.094c-0.188-0.094-0.329-0.235-0.518-0.235
	c0.048-0.141-0.141-0.188-0.094-0.329c0.047-0.047,0.235,0,0.235-0.141l0.235-0.141l0.282-0.095l0.141-0.047h0.047h0.142h0.188
	h0.142h0.141h0.142h0.234l0.142,0.047l0.235,0.095l0.141,0.094l0.094,0.047l0.095-0.095l-0.095-0.094l-0.141-0.047l-0.094-0.047
	l-0.095-0.047l-0.141-0.047h-0.094l-0.095-0.048l-0.094-0.046h-0.188l-0.141,0.046h-0.188h-0.141l-0.095,0.048l-0.188,0.047h-0.142
	l-0.141,0.047l-0.141,0.047l-0.142,0.095l-0.094,0.046c-0.047-0.234,0.188-0.375,0.329-0.517l0.329-0.142l0.376-0.094l0.282-0.047
	l0.376,0.094l0.282,0.094c0.047,0,0.094,0,0.094,0.048H129.002z M123.265,137.395c0,0.094,0.094,0.188,0.188,0.188
	c0.094,0,0.188-0.095,0.188-0.188c0-0.095-0.094-0.141-0.188-0.141C123.358,137.254,123.265,137.3,123.265,137.395z M124.581,137.63
	v0.234c-0.329,0.048-0.517,0.329-0.846,0.188c0-0.047,0-0.188,0.094-0.141c0.188-0.142,0.094-0.564,0.423-0.471L124.581,137.63z
	 M122.512,137.864l-0.141-0.188c0-0.047,0-0.094,0-0.142c0.141-0.047,0.235-0.188,0.376-0.141c0,0.235,0.235,0.423,0.329,0.518
	l0.048,0.141C122.794,138.193,122.747,137.912,122.512,137.864z M124.77,137.254c0.047,0.094,0,0.094-0.095,0.094l-0.046-0.048
	l-0.188-0.141l-0.094-0.094l-0.095-0.095l-0.141-0.046l-0.095-0.048l-0.141-0.047h-0.141h-0.048l-0.282-0.047l-0.094,0.047h-0.141
	l-0.188,0.047h-0.094l-0.142,0.048l-0.141,0.094l-0.188,0.094l-0.141,0.142l-0.095,0.094l-0.094,0.141l-0.094,0.095l-0.047,0.094
	h0.094l0.329-0.377l0.188-0.094l0.141-0.047l0.141-0.047l0.188-0.047l0.142-0.047h0.234h0.095l0.094-0.048h0.094l0.188,0.095
	l0.141,0.047l0.095,0.047l0.188,0.047l0.33,0.235c0.094,0.188,0.281,0.188,0.188,0.518h-0.235c-0.517,0.329-1.223,0.517-1.834,0.234
	c-0.141-0.094-0.329-0.094-0.376-0.234l-0.282-0.235c-0.235,0-0.47,0.188-0.705,0.094c0.047-0.188,0.329-0.141,0.376-0.376
	c0.376-0.376,0.847-0.8,1.411-0.847C123.829,136.501,124.394,136.783,124.77,137.254z M126.979,139.369l-0.141,0.048v0.141
	c-0.188,0.094-0.377,0-0.611-0.047c0-0.094,0.094-0.094,0.141-0.142l0.471,0.048C126.839,139.369,126.886,139.369,126.979,139.369z
	 M122.982,141.814c0.047,0,0.142,0.047,0.188,0.047c0.047,0.048,0.141,0.142,0.188,0.188c0.188,0.094,0.377,0.188,0.564,0.282
	c0.235,0.094,0.518,0.142,0.752,0.235c0.424,0.094,0.941,0.141,1.411,0.094c0.329,0,0.611-0.047,0.94-0.141c0,0,0,0,0.047,0
	c0.424-0.188,0.847-0.33,1.223-0.564c0.282-0.188,0.564-0.424,0.847-0.658c0.376-0.424,0.705-0.894,0.94-1.411l0,0
	c0-0.047,0.047-0.047,0.047-0.047c0.235-0.611,0.377-1.223,0.377-1.881c0-1.317-0.518-2.539-1.364-3.386
	c-0.894-0.847-2.069-1.364-3.386-1.364s-2.492,0.518-3.339,1.364c-0.188,0.188-0.376,0.423-0.564,0.658v0.047
	c-0.517,0.753-0.847,1.692-0.847,2.681c0,1.316,0.565,2.492,1.411,3.339C122.606,141.485,122.794,141.627,122.982,141.814z
	 M120.208,129.212c0.141,0.095,0.188,0.142,0.235,0.235c0.141,0.518,0.47,0.894,0.752,1.27c0.095,0.188,0.329,0.471,0.518,0.658
	c0.235,0.282,0.658,0.329,0.799,0.753c0.235,0.188,0.518,0.564,0.564,0.847c0.095,0.094,0.142,0.188,0.188,0.282
	c0,0.094,0.094,0.234,0,0.376c-0.188,0.047-0.282,0.235-0.518,0.235c-0.188-0.471-0.423-0.753-0.658-1.129
	c-0.423-0.424-0.847-0.94-1.223-1.411c-0.234-0.47-0.423-0.94-0.518-1.457c-0.094-0.235-0.188-0.424-0.234-0.659
	C120.161,129.212,120.208,129.212,120.208,129.212z M163.947,122.513c3.304-7.24,6.157-15.052,8.363-23.464H97.687v23.464H163.947z
	 M97.687,194.337c9.497-5.429,29.592-18.544,47.213-40.796H97.687V194.337z M158.77,59.157c1.193,0,2.16,0.968,2.16,2.161
	c0,1.193-0.967,2.161-2.16,2.161s-2.161-0.968-2.161-2.161C156.608,60.125,157.576,59.157,158.77,59.157z M153.275,66.126
	c-0.579-1.265-2.283-2.709-6.972-2.979c-8.643-0.499-4.155-4.82-9.308-4.82c-5.153,0-1.663,3.325-7.979,4.654
	c-3.65,0.769-5.58,1.315-6.559,2.185c3.576,0.333,8.732,0.453,16.406,0.453C146.021,65.618,150.495,65.855,153.275,66.126z
	 M108.614,40.396c0,0-5.983,0.166-3.324,5.484c2.659,5.319,1.33,4.488-0.166,6.15c-1.496,1.662-1.994,3.324,0.665,4.986
	c0,0-0.665,1.33-2.909,0.748c-2.243-0.582,1.787,4.529,4.363,4.737c0,0,2.618,15.665,25.888,15.665c0,0,2.41,2.078-0.748,4.155
	s-4.487,1.413-4.487,3.075c0,1.663,1.911,1.746,1.911,1.746h17.701c0,0,1.912-0.25,1.912-1.663c0-1.413-1.413-1.08-4.488-2.825
	s-3.573-4.488-3.573-4.488s16.122-0.915,21.109-6.399c4.985-5.485,5.899-15.707-3.906-15.707c-9.807,0-6.565,9.64-0.166,9.64
	c0,0,2.492,1.33-19.53,1.33s-23.602-0.997-26.76-5.235c0,0,2.825-1.579,2.825-3.075c0-1.496-4.404-0.167-4.404-1.994
	c0-1.829,4.57-2.494,4.57-5.236c0-2.742-7.895-6.544-7.895-8.726S109.716,41.497,108.614,40.396z M173.059,96.057
	c3.835-15.979,5.356-34.038,3.316-54.329c-16.448,0.793-50.793-0.649-78.688-22.337v76.666H173.059z M147.791,149.771
	c5.197-6.985,10.106-14.803,14.373-23.489H97.687v23.489H147.791z"/>
<path fill="#F20A24" d="M52.12,68.16c0.085-0.031,0.173-0.059,0.261-0.085V57.716c-2.782,0.222-5.354,1.127-7.517,2.534L52.12,68.16
	z M49.6,70.51c0.089-0.215,0.196-0.421,0.321-0.617l-7.254-7.909c-2.368,2.251-3.943,5.222-4.305,8.525H49.6z M49.92,74.047
	c-0.125-0.196-0.232-0.402-0.321-0.617H38.361c0.361,3.304,1.937,6.275,4.305,8.526L49.92,74.047z M52.381,75.866
	c-0.088-0.026-0.176-0.054-0.261-0.085l-7.255,7.909c2.164,1.407,4.735,2.312,7.517,2.533V75.866z M55.321,75.781
	c-0.086,0.031-0.173,0.059-0.261,0.085v10.357c2.782-0.221,5.353-1.126,7.517-2.534L55.321,75.781z M57.841,73.43
	c-0.088,0.215-0.196,0.421-0.321,0.617l7.255,7.909c2.368-2.251,3.943-5.222,4.304-8.526H57.841z M57.52,69.893
	c0.125,0.196,0.233,0.402,0.321,0.617H69.08c-0.362-3.304-1.937-6.274-4.305-8.525L57.52,69.893z M55.06,68.075
	c0.088,0.026,0.175,0.054,0.261,0.085l7.255-7.909c-2.164-1.407-4.735-2.313-7.517-2.534V68.075z M53.72,70.056
	c1.141,0,2.065,0.857,2.065,1.914c0,1.057-0.924,1.914-2.065,1.914c-1.141,0-2.065-0.857-2.065-1.914
	C51.655,70.913,52.58,70.056,53.72,70.056z M57.859,54.275c1.087,0.218,2.142,0.519,3.154,0.896c0.045-0.042,0.09-0.086,0.135-0.131
	c3.091-3.091,2.061-3.778-0.602-3.778c-2.662,0,0.086-1.545,5.324-3.177c5.238-1.631,8.726-6.495,8.93-4.121
	c1.374,2.232-8.415,6.526-8.415,6.526s1.421,2.987-2.337,6.113c5.527,3.198,9.205,8.884,9.205,15.367
	c0,9.998-8.745,18.103-19.534,18.103c-10.788,0-19.534-8.105-19.534-18.103c0-5.124,2.297-9.75,5.989-13.044
	c-2.059-1.196-6.916-4.603-5.002-9.252c2.404-5.839,29.237-7.857,40.314-16.529c0,0,2.747,2.576-3.95,6.354
	c-6.698,3.778-32.629,10.303-31.255,13.395s5.323-2.576,6.697-0.858s-3.95,1.889-2.576,3.263s1.717-1.631,3.349-1.374
	c0.574,0.09,0.765,0.309,0.921,0.553c1.325-0.327,2.705-0.529,4.124-0.59c-0.468-0.699-1.401-1.483-2.212-2.024
	c-1.803-1.202-0.685-2.31,2.232-3.091c2.917-0.781,19.148-6.869,22.497-9.188c0,0,1.803,1.031-2.919,3.263
	c-4.723,2.232-11.854,5.714-17.259,6.87c0,0-1.374,1.288,0.772,2.318C57.33,52.716,58.651,53.273,57.859,54.275z M54.581,99.049
	H30.367l24.214,24.214V99.049z M88.052,99.049H63.837v24.214L88.052,99.049z M94.694,127.083V104.59l-22.492,22.493H94.694z
	 M94.694,158.832v-22.493H72.202L94.694,158.832z M63.837,171.307c12.482,11.733,24.242,19.247,30.857,23.029v-23.32l-30.857-30.856
	V171.307z M44.751,149.988c3.196,4.281,6.501,8.245,9.83,11.909v-21.738L44.751,149.988z M35.653,136.339
	c1.319,2.232,2.678,4.396,4.067,6.497l6.497-6.497H35.653z M31.818,129.438h20.085l-30.39-30.39h5.521l29.901,29.901V99.049h4.544
	v29.901l29.902-29.901h3.311v2.21l-28.18,28.18h28.18v4.545h-28.18l28.18,28.18v5.521l-33.213-33.213v34.577
	c-1.511-1.476-3.028-3.013-4.544-4.613v-29.964l-13.596,13.596c-0.768-1.062-1.528-2.143-2.28-3.241l10.843-10.843H34.291
	C33.448,132.497,32.624,130.981,31.818,129.438z M20.777,101.643c2.596,9.204,5.964,17.671,9.839,25.44h15.6L20.777,101.643z
	 M94.694,19.391C66.799,41.08,32.455,42.523,16.006,41.729c-2.04,20.291-0.519,38.35,3.317,54.329h75.371V19.391z"/>
</svg>
