<?xml version="1.0" encoding="utf-8"?>
<!-- Generator: Adobe Illustrator 26.0.0, SVG Export Plug-In . SVG Version: 6.00 Build 0)  -->
<!DOCTYPE svg PUBLIC "-//W3C//DTD SVG 1.1//EN" "http://www.w3.org/Graphics/SVG/1.1/DTD/svg11.dtd" [
	<!ENTITY ns_extend "http://ns.adobe.com/Extensibility/1.0/">
	<!ENTITY ns_ai "http://ns.adobe.com/AdobeIllustrator/10.0/">
	<!ENTITY ns_graphs "http://ns.adobe.com/Graphs/1.0/">
	<!ENTITY ns_vars "http://ns.adobe.com/Variables/1.0/">
	<!ENTITY ns_imrep "http://ns.adobe.com/ImageReplacement/1.0/">
	<!ENTITY ns_sfw "http://ns.adobe.com/SaveForWeb/1.0/">
	<!ENTITY ns_custom "http://ns.adobe.com/GenericCustomNamespace/1.0/">
	<!ENTITY ns_adobe_xpath "http://ns.adobe.com/XPath/1.0/">
]>
<svg version="1.1" id="Layer_1" xmlns:x="&ns_extend;" xmlns:i="&ns_ai;" xmlns:graph="&ns_graphs;"
	 xmlns="http://www.w3.org/2000/svg" xmlns:xlink="http://www.w3.org/1999/xlink" x="0px" y="0px" width="632.6px" height="1000px"
	 viewBox="0 0 632.6 1000" style="enable-background:new 0 0 632.6 1000;" xml:space="preserve">
<style type="text/css">
	._x005B_Default_x005D_{fill:#FFFFFF;stroke:#000000;stroke-miterlimit:10;}
	.Round_x0020_Corners_x0020_2_x0020_pt{fill:#FFFFFF;stroke:#000000;stroke-miterlimit:10;}
	.Live_x0020_Reflect_x0020_X{fill:none;}
	.Bevel_x0020_Soft{fill:url(#SVGID_1_);}
	.Dusk{fill:#FFFFFF;}
	.Foliage_GS{fill:#FFE100;}
	.Pompadour_GS{fill-rule:evenodd;clip-rule:evenodd;fill:#66B0E0;}
	.st0{fill-rule:evenodd;clip-rule:evenodd;fill:#FFFFFF;}
	.st1{fill-rule:evenodd;clip-rule:evenodd;fill:#4C2F13;}
	.st2{fill-rule:evenodd;clip-rule:evenodd;fill:#BEA363;}
</style>

<linearGradient id="SVGID_1_" gradientUnits="userSpaceOnUse" x1="718.0791" y1="3587.2954" x2="718.7862" y2="3588.0027">
	<stop  offset="0" style="stop-color:#E8EAED"/>
	<stop  offset="0.1738" style="stop-color:#E4E6E9"/>
	<stop  offset="0.352" style="stop-color:#D7D8DC"/>
	<stop  offset="0.5323" style="stop-color:#C1C0C4"/>
	<stop  offset="0.7139" style="stop-color:#A4A2A3"/>
	<stop  offset="0.8949" style="stop-color:#808181"/>
	<stop  offset="1" style="stop-color:#696E6D"/>
</linearGradient>
<g>
	<g>
		<g>
			<path class="st0" d="M628.6,310.7l-1-12.5l-12.5,0.7c-116.4,6.3-211.3-26.8-289.8-101.1l-8.9-8.4l-8.9,8.4
				c-78.6,74.3-173.4,107.4-289.8,101.1l-12.5-0.7l-1.1,12.5c-2.7,31.5-4,62.6-4.1,92.4C-0.2,537.7,26.8,656.5,80.2,756
				c51.3,95.5,128.4,176.1,229.2,239.7l6.9,4.4l6.9-4.4C424,932.1,501.1,851.5,552.4,756.1c53.4-99.5,80.4-218.2,80.3-352.8
				C632.6,373.4,631.2,342.3,628.6,310.7z"/>
		</g>
		<path class="st1" d="M315.7,560.6c4.3-2.9,24.2-16.3,28.5-19.2c-4.3-3-32.4-22.8-39.9-28.1C306.4,522.2,314.5,555.5,315.7,560.6z
			 M400.7,431.8c2.2,3.2,18.5,27.5,20.7,30.7c2.9-1.9,11.9-8,11.9-8c9.7-6.5,15.8-11.5,18.1-14.8c2.2-3.2,3.3-6.4,3.4-10v-0.2
			c0-3.5-1-6.7-3.1-9.8c-2.7-4-6-6.4-10-7.3c-4.1-1-8.2-0.5-12.3,1.3c-3.2,1.4-9.2,5-18.3,11.2C410.9,424.9,403.4,429.9,400.7,431.8
			z M611.7,326.1l-1-11.8l-11.8,0.6c-110.1,6-199.8-25.3-274.1-95.6l-8.4-8l-8.4,8c-74.3,70.3-164,101.6-274.1,95.6L22,314.3
			l-1,11.8c-2.5,29.8-3.8,59.2-3.8,87.4C16.9,540.8,42.5,653.1,93,747.2c48.5,90.3,121.4,166.6,216.8,226.7l6.5,4.1l6.5-4.1
			c95.4-60.1,168.3-136.3,216.8-226.6c50.5-94.1,76.1-206.4,75.9-333.7C615.5,385.4,614.2,356,611.7,326.1z M456.7,379.5
			c9.4,3,17.6,9.7,24.4,19.7c5.2,7.8,8.2,15.4,8.9,22.8c0.2,1.6,0.2,3.1,0.2,4.7c0,5.6-1,10.8-2.9,15.5c-2.4,6-5.7,11.2-9.7,15.3
			c-5.4,5.3-13.9,12-25.3,19.7c0,0-11.5,7.8-14.5,9.8c2.4,3.5,31,45.9,31,45.9l-29,19.6l-84.7-125.6l42.3-28.6
			c15.6-10.5,26-16.6,31.7-18.6C438.1,376.5,447.3,376.5,456.7,379.5z M331.3,625.7l-30.9,20.9l-34.6-159.4l27.9-18.9l1.3-0.9
			l136.3,90.8l-31.6,21.3c0,0-27.2-18.7-29.6-20.3c-2.4,1.6-44.8,30.2-47.2,31.9C323.6,594,331.3,625.7,331.3,625.7z M56.4,570.9
			c-9.9-48.9-14.8-101-14.8-156.1c0-0.4,0-0.9,0-1.3c0-23.9,1.1-48.7,2.9-73.9c106.3,3.2,197.7-28.7,271.9-95
			c35.4,31.7,74.9,55.5,118,71.4L56.4,570.9z M125.9,603.8c3.3-19,14-34.8,31.9-46.9c15.7-10.6,31.8-14.7,47.7-12.2
			c9.5,1.4,19.3,6.2,29.1,14.3l1.9,1.6l-24.3,26.2l-1.7-1.6c-5.3-4.9-11.3-7.7-17.9-8.1c-6.6-0.5-13.1,1.4-19.3,5.6
			c-8.7,5.8-13.7,13.7-15,23.3c-1.3,9.7,2.8,21.7,12.2,35.7c10,14.9,19.9,23.7,29.4,26.2c9.5,2.6,18.3,1,26.8-4.8
			c6.3-4.3,10.3-9.7,12.1-16.6c1.9-6.8,1-15.3-2.7-25.2l-0.9-2.3l34-10.3l0.7,2.1c5.3,16.3,5.8,31,1.3,43.7
			c-4.5,12.7-13.8,23.9-27.5,33.2c-17,11.5-35.1,15.3-53.8,11.4c-18.7-4-34.8-15.9-48-35.5C128.1,643,122.7,622.8,125.9,603.8z
			 M518.1,735.8C472.7,820.2,404.8,891.9,316.3,949c-66-42.6-120.5-93.3-162.8-151.3l432.7-291.9C577,591.5,554.1,668.6,518.1,735.8
			z"/>
	</g>
	<polygon class="st2" points="315.2,0 335.3,62.2 400.7,62.1 347.7,100.4 368,162.5 315.2,124 262.4,162.5 282.8,100.4 229.8,62.1 
		295.2,62.2 	"/>
</g>
</svg>
