<?xml version="1.0" encoding="utf-8"?>
<!-- Generator: Adobe Illustrator 12.0.0, SVG Export Plug-In . SVG Version: 6.00 Build 51448)  -->
<!DOCTYPE svg PUBLIC "-//W3C//DTD SVG 1.1//EN" "http://www.w3.org/Graphics/SVG/1.1/DTD/svg11.dtd" [
	<!ENTITY ns_svg "http://www.w3.org/2000/svg">
	<!ENTITY ns_xlink "http://www.w3.org/1999/xlink">
]>
<svg  version="1.1" id="Layer_1" xmlns="&ns_svg;" xmlns:xlink="&ns_xlink;" width="200" height="259.915"
	 viewBox="0 0 200 259.915" overflow="visible" enable-background="new 0 0 200 259.915" xml:space="preserve">
<g>
	<path d="M100.347,89.958V89.31l0.828-0.804c1.992-1.896,2.904-2.904,2.904-4.08c0-0.792-0.372-1.524-1.536-1.524
		c-0.708,0-1.296,0.36-1.656,0.66l-0.336-0.744c0.528-0.444,1.308-0.792,2.208-0.792c1.668,0,2.376,1.152,2.376,2.268
		c0,1.44-1.044,2.604-2.688,4.188l-0.611,0.576v0.024h3.492v0.876H100.347z"/>
	<path d="M110.955,82.89c-0.216-0.012-0.492,0.012-0.792,0.06c-1.668,0.264-2.532,1.476-2.712,2.772h0.023
		c0.372-0.504,1.032-0.912,1.896-0.912c1.38,0,2.352,1.008,2.352,2.52c0,1.44-0.972,2.76-2.604,2.76
		c-1.656,0-2.748-1.296-2.748-3.324c0-1.536,0.54-2.748,1.319-3.528c0.648-0.636,1.513-1.032,2.496-1.152
		c0.313-0.048,0.576-0.06,0.769-0.06V82.89z M109.143,89.274c0.9,0,1.513-0.756,1.513-1.872c0-1.116-0.637-1.788-1.608-1.788
		c-0.636,0-1.236,0.384-1.524,0.96c-0.06,0.12-0.107,0.264-0.107,0.456c0.012,1.284,0.612,2.244,1.716,2.244H109.143z"/>
	<path d="M115.143,90.09c-1.524,0-2.568-1.428-2.593-4.008c0-2.628,1.141-4.056,2.725-4.056c1.632,0,2.58,1.464,2.58,3.948
		c0,2.652-0.996,4.116-2.7,4.116H115.143z M115.19,89.274c1.067,0,1.584-1.26,1.584-3.252c0-1.92-0.48-3.18-1.584-3.18
		c-0.96,0-1.584,1.224-1.584,3.18c-0.024,2.028,0.6,3.252,1.571,3.252H115.19z"/>
	<path d="M121.694,86.046c0-0.744-0.012-1.344-0.048-1.896h0.948l0.06,0.996h0.024c0.42-0.72,1.115-1.128,2.052-1.128
		c1.416,0,2.472,1.188,2.472,2.952c0,2.088-1.284,3.12-2.64,3.12c-0.78,0-1.44-0.336-1.788-0.912h-0.024v3.156h-1.056V86.046z
		 M122.75,87.594c0,0.144,0.013,0.3,0.049,0.432c0.18,0.732,0.827,1.236,1.571,1.236c1.116,0,1.765-0.912,1.765-2.244
		c0-1.164-0.601-2.16-1.717-2.16c-0.72,0-1.403,0.504-1.607,1.296c-0.024,0.144-0.061,0.3-0.061,0.432V87.594z"/>
	<path d="M129.014,84.15l0.828,1.236c0.216,0.336,0.396,0.624,0.588,0.948h0.036c0.191-0.336,0.384-0.636,0.588-0.948l0.804-1.236
		h1.152l-1.98,2.808l2.028,3h-1.2l-0.852-1.308c-0.229-0.336-0.42-0.66-0.624-1.008h-0.024c-0.192,0.348-0.396,0.66-0.612,1.008
		l-0.84,1.308h-1.164l2.064-2.964l-1.968-2.844H129.014z"/>
</g>
<g>
	<g>
		<g>
			<g>
				<polygon fill="#FB1D0E" points="147.76,162.061 191.544,217.683 106.896,234.079 93.104,234.08 8.456,217.685 52.24,162.063 
									"/>
				<path fill="#FFFFFF" d="M147.76,161.402l-95.839,0.002l-44.65,56.724l85.77,16.61h13.919l85.77-16.612l-44.649-56.724H147.76z
					 M147.44,162.719c0.386,0.491,41.629,52.885,42.919,54.522c-2.067,0.4-83.404,16.154-83.526,16.179
					c-0.125,0-13.541,0.001-13.666,0.001c-0.123-0.024-81.459-15.777-83.526-16.178c1.29-1.638,42.533-54.032,42.919-54.522
					C53.193,162.721,146.807,162.719,147.44,162.719z"/>
				<polygon fill="#FB1D0E" points="167.025,94.436 199.133,112.293 189.502,131.908 127.328,135.128 72.672,135.129 10.5,131.91 
					0.867,112.294 32.975,94.436 				"/>
				<path fill="#FFFFFF" d="M167.025,93.778H32.804L0,112.023l10.08,20.523l62.558,3.24h54.691l62.594-3.241L200,112.022
					l-32.805-18.244H167.025z M166.854,95.094c0.291,0.161,30.359,16.886,31.411,17.471c-0.511,1.041-8.865,18.055-9.185,18.706
					c-0.764,0.039-61.787,3.199-61.787,3.199H72.672c0,0-60.988-3.159-61.751-3.199c-0.319-0.65-8.675-17.664-9.186-18.706
					c1.052-0.585,31.121-17.309,31.412-17.471C33.486,95.094,166.514,95.094,166.854,95.094z"/>
				<path fill="#FB1D0E" d="M157.685,108.488l39.697,22.835c0,0-10.215,28.981-34.151,56.794
					c-23.936,27.811-62.756,47.426-62.756,47.426h-0.948c0,0-38.822-19.614-62.757-47.426
					c-23.935-27.811-34.151-56.794-34.151-56.794l39.696-22.834L157.685,108.488z"/>
				<path fill="#FFFFFF" d="M157.685,107.83L42.14,107.831L1.815,131.026l0.183,0.517c0.102,0.291,10.531,29.419,34.273,57.004
					c23.745,27.592,62.57,47.388,62.959,47.584l0.14,0.071l1.261-0.001l0.14-0.071c0.39-0.196,39.212-19.992,62.959-47.583
					c23.743-27.587,34.171-56.714,34.273-57.005l0.183-0.518l-40.324-23.194H157.685z M157.51,109.147
					c0.298,0.171,38.123,21.929,39.062,22.469c-1.454,3.883-11.93,30.613-33.84,56.071c-22.881,26.583-59.905,45.904-62.417,47.196
					c-0.175,0-0.454,0.001-0.629,0.001c-2.521-1.297-39.54-20.616-62.417-47.197C15.36,162.231,4.883,135.5,3.429,131.616
					c0.938-0.538,38.763-22.296,39.062-22.468C42.842,109.148,157.159,109.147,157.51,109.147z"/>
				<path fill="#FB1D0E" d="M100.109,225.297c-5.837,0-23.059-0.586-55.167-4.685c-27.519-3.514-40.28-7.611-40.28-7.611
					l-2.627,33.081c0,0,10.863,4.263,39.405,8.782c22.185,3.514,53.416,4.392,57.503,4.392l2.115-0.001
					c4.085,0,35.318-0.879,57.504-4.392c28.54-4.521,39.403-8.782,39.403-8.782L195.339,213c0,0-12.763,4.098-40.28,7.611
					c-32.109,4.099-49.331,4.685-55.168,4.685L100.109,225.297z"/>
				<path fill="#FFFFFF" d="M195.137,212.374c-0.126,0.04-13.039,4.122-40.161,7.585c-33.967,4.334-50.706,4.679-55.06,4.679
					c-4.58-0.009-21.309-0.392-54.89-4.679c-27.123-3.462-40.035-7.544-40.163-7.584l-0.792-0.254l-2.732,34.396l0.455,0.18
					c0.11,0.043,11.258,4.341,39.543,8.82c22.265,3.524,53.889,4.398,57.606,4.398l2.115-0.001c3.717,0,35.342-0.874,57.606-4.398
					c28.284-4.479,39.432-8.777,39.542-8.82l0.455-0.179l-2.731-34.397L195.137,212.374z M155.143,221.265
					c23.553-3.007,36.443-6.482,39.604-7.4c0.12,1.521,2.447,30.824,2.521,31.77c-2.277,0.81-13.752,4.61-38.81,8.578
					c-22.184,3.514-53.697,4.384-57.401,4.384l-2.115,0.001c-3.704,0-35.218-0.871-57.4-4.383
					c-25.06-3.969-36.534-7.77-38.812-8.579c0.075-0.945,2.402-30.248,2.522-31.77c3.161,0.918,16.052,4.394,39.605,7.4
					c33.599,4.289,50.395,4.679,55.029,4.688l0.219,0.001c0,0,0.001,0,0.002,0v-0.002
					C104.739,225.944,121.529,225.555,155.143,221.265z"/>
			</g>
			<g>
				<path fill="#FFFFFF" d="M99.95,192.364c0,0-39.33-19.616-62.165-62.797C9.999,77.022,23.734,7.489,23.734,7.489
					S40.42,18.76,62.67,18.76c22.265,0,37.266-17.416,37.266-17.416s15.023,17.421,37.29,17.421
					c22.248,0,38.936-11.271,38.936-11.271s13.734,69.533-14.052,122.079C139.275,172.752,99.95,192.364,99.95,192.364z"/>
				<path fill="#FB1D0E" d="M99.271,0.77c-0.147,0.171-15.013,17.111-36.6,17.111c-21.705,0-38.281-11.009-38.445-11.12
					l-1.097-0.739l-0.255,1.297C22.733,8.018,9.396,77.762,37.009,129.978c22.704,42.933,62.152,62.975,62.549,63.172l0.392,0.195
					l0.392-0.195c0.396-0.197,39.841-20.234,62.544-63.167C190.5,77.766,177.162,8.022,177.023,7.324l-0.256-1.297l-1.097,0.74
					c-0.165,0.111-16.74,11.12-38.444,11.12c-21.589,0-36.478-16.945-36.626-17.116L99.937,0L99.271,0.77z M99.937,2.634
					c3.137,3.279,17.453,17.009,37.29,17.009c19.047,0,34.203-8.259,38.3-10.72c0.739,4.303,3.088,19.526,3.088,39.388
					c0,23.979-3.432,54.663-17.28,80.851c-21.261,40.202-57.339,60.079-61.384,62.213c-4.045-2.135-40.128-22.016-61.388-62.218
					c-13.849-26.188-17.281-56.87-17.281-80.85c0-19.863,2.349-35.085,3.089-39.389c4.096,2.461,19.253,10.72,38.3,10.72
					C82.506,19.638,96.804,5.914,99.937,2.634z"/>
				<path fill="#FB1D0E" d="M112.657,25.164c0,0-0.878,0-2.306,1.537c-1.161,1.251-1.756,2.196-4.501,2.196
					c-2.744,0-12.295-0.33-14.052,0.768c-1.757,1.098-2.744,3.425-6.258,3.623c-7.794,0.439-9.99,0.769-9.99,1.098
					c0,0.769,5.599,1.867,9.332,2.745c3.732,0.878,5.379,2.635,8.563,2.745s4.67,0.886,4.501,2.745
					c-0.22,2.415-1.262,3.896-5.928,8.563c-2.964,2.964-17.345,14.576-17.345,26.677c0,20.639,9.771,28.874,9.771,28.874
					s-1.647,1.756,2.525,11.088c4.172,9.331,9.077,16.998,8.893,21.517c-0.22,5.38-1.208,5.16-4.392,9.771
					c-3.184,4.611-7.685,12.296-8.453,12.406c-0.769,0.109-5.16-0.988-7.465-0.55c-0.971,0.186-2.306,0.769-3.293,1.977
					s-1.647,1.866-1.647,1.866s0.988,0.549,4.063-0.549c1.113-0.398,4.062,0.11,7.794,0.22c2.206,0.064,8.673,0.329,11.088,0.878
					s2.744,0.329,2.744,0.329l2.086,0.33c0,0,0.988-2.306-2.964-3.185c-3.952-0.878-6.477-1.427-6.477-1.427
					s-0.659-1.208,1.976-4.83c2.635-3.623,12.625-15.59,12.955-18.554s0.042-7.795,0.878-7.795c0.988,0,3.952,4.392,6.258,8.124
					c2.306,3.733,5.818,7.466,4.172,10.869c-2.139,4.42-7.685,14.602-7.685,14.602s-3.403,0.109-5.16,0.109s-3.184,0-4.831,0.22
					c-1.646,0.22-1.757,2.305-1.757,2.305s5.599-0.22,7.905,0.11c2.305,0.329,2.854,1.316,6.587,1.316
					c3.036,0,5.38-1.098,9.002-0.549c2.213,0.336,3.952,0.879,3.952,0.879s-0.878-3.293-3.952-3.732
					c-2.752-0.393-7.795-0.329-7.795-0.329s3.212-5.706,6.258-10.979c2.854-4.94,6.853-8.485,4.063-12.516
					c-1.977-2.854-2.635-4.83-1.867-6.587c0.769-1.756-0.109-3.843,0.769-4.392c0.879-0.549,3.074,0.988,7.905,6.697
					c4.83,5.709,6.696,8.344,6.696,8.344s1.537-16.028-3.732-30.959c-4.594-13.015-7.38-15.697-7.466-17.236
					c-0.109-1.976,1.098-1.865,2.525-3.073s1.428-3.513,1.428-3.513s4.24,0.375,6.916-2.855c3.184-3.842,2.305-6.147,2.305-6.147
					s5.709-3.623,5.709-6.807c0-2.305-2.085-3.403-2.085-3.403s5.159-4.062,5.159-6.807s-2.196-3.842-2.196-3.842
					s2.745-4.391,2.745-8.343s-2.854-3.513-2.854-3.513s3.623-5.27,3.623-12.186c0-6.917-0.769-7.465-0.769-7.465
					s-1.537,5.818-5.27,11.088c-3.732,5.269-8.344,8.014-8.344,8.014s1.646-4.94,1.208-11.856c-0.439-6.916-2.196-9.88-2.196-9.88
					s-3.402,19.432-17.675,35.021c-6.507,7.108-14.091,11.16-17.345,8.014c-3.294-3.184,0.592-9.725,7.574-16.467
					c3.185-3.074,10.649-10.209,7.904-15.479c-2.404-4.616-3.403-6.367-1.646-8.783C111.843,26.793,113.755,26.152,112.657,25.164z"
					/>
				<path fill="#FB1D0E" d="M86.596,19.567c-0.362,0.023-0.638,0.336-0.614,0.699c0.006,0.099,0.543,9.958-6.547,18.531
					c-6.6,7.979-13.42,14.352-15.661,16.446l-0.311,0.289c-0.265,0.249-0.278,0.666-0.03,0.932c0.249,0.266,0.667,0.279,0.933,0.031
					l0.307-0.288c2.257-2.109,9.124-8.525,15.777-16.57c7.436-8.99,6.874-19.031,6.846-19.455
					C87.272,19.818,86.959,19.543,86.596,19.567z"/>
				<path fill="#FB1D0E" d="M77.747,40.973c0,0-2.745-2.635-7.465-3.074s-10.539,1.208-10.539,1.208s3.184,4.062,7.355,4.611
					s10.429-1.537,10.429-1.537L77.747,40.973z"/>
				<path fill="#FB1D0E" d="M72.696,47.011c0,0-4.048-1.783-8.892-1.537c-6.478,0.329-11.527,6.038-11.527,6.038
					s4.161,1.781,9.222,1.208c5.818-0.659,10.539-4.501,10.539-4.501L72.696,47.011z"/>
				<path fill="#FB1D0E" d="M78.186,41.412c0,0,2.854,1.757,3.733,5.929c0.878,4.171-0.769,8.453-0.769,8.453
					s-4.501-1.757-5.16-5.599c-0.658-3.842,1.537-8.014,1.537-8.014L78.186,41.412z"/>
				<path fill="#FB1D0E" d="M72.587,47.999c0,0,1.976,1.976,1.866,6.697s-2.964,9.221-2.964,9.221s-2.964-2.415-3.184-6.806
					c-0.22-4.391,3.074-8.673,3.074-8.673L72.587,47.999z"/>
				<path fill="#FB1D0E" d="M64.244,56.013c0,0,1.207,4.501,0.11,7.246c-1.098,2.745-6.587,7.245-6.587,7.245
					s-2.196-5.489-0.11-9.332c2.086-3.842,5.807-5.641,5.807-5.641L64.244,56.013z"/>
			</g>
		</g>
		<g>
			<path fill="#FFFFFF" d="M12.729,240.562c0.92-4.746,1.855-9.492,2.802-14.237c3.405,0.634,6.812,1.228,10.219,1.783
				c-0.098,0.56-0.195,1.119-0.292,1.679c-2.75-0.448-5.499-0.922-8.248-1.421c-0.286,1.476-0.571,2.95-0.854,4.426
				c2.405,0.437,4.812,0.854,7.217,1.252c-0.098,0.559-0.195,1.118-0.292,1.678c-2.416-0.4-4.831-0.818-7.246-1.256
				c-0.414,2.158-0.825,4.317-1.233,6.478C14.109,240.817,13.419,240.691,12.729,240.562z"/>
			<path fill="#FFFFFF" d="M25.825,227.675c-3.554-0.58-7.107-1.202-10.659-1.866c-1.011,5.032-2.007,10.064-2.988,15.098
				c1.002,0.187,2.006,0.371,3.009,0.552c-0.002,0,1.08-5.727,1.225-6.479c0.807,0.161,7.253,1.264,7.253,1.251
				c0.147-0.849,0.294-1.697,0.441-2.545c0,0.013-6.408-1.084-7.21-1.244c0.12-0.627,0.563-2.935,0.684-3.563
				c0.81,0.166,8.255,1.433,8.256,1.415c0.146-0.849,0.293-1.697,0.44-2.545C26.125,227.724,25.975,227.7,25.825,227.675z
				 M25.221,228.467c-0.054,0.312-0.088,0.501-0.142,0.813c-0.81-0.113-8.24-1.41-8.239-1.428c-0.344,1.763-0.687,3.524-1.027,5.288
				c0,0.013,6.42,1.141,7.225,1.26c-0.055,0.312-0.088,0.501-0.143,0.812c-0.807-0.119-7.239-1.249-7.239-1.263
				c-0.001,0-1.1,5.725-1.241,6.477c-0.397-0.072-0.74-0.135-1.136-0.209c0.143-0.786,2.453-12.59,2.617-13.376
				C16.683,227.007,24.433,228.36,25.221,228.467z"/>
			<path fill="#FFFFFF" d="M26.485,235.769c0.397-2.374,1.391-4.122,2.958-5.256c1.568-1.137,3.405-1.547,5.526-1.244
				c1.389,0.198,2.596,0.688,3.623,1.471c1.029,0.783,1.761,1.777,2.198,2.985c0.436,1.209,0.562,2.531,0.372,3.968
				c-0.193,1.457-0.679,2.721-1.466,3.789c-0.786,1.067-1.804,1.82-3.052,2.254c-1.249,0.433-2.553,0.554-3.906,0.36
				c-1.466-0.209-2.728-0.728-3.777-1.553c-1.051-0.825-1.778-1.849-2.184-3.066S26.275,237.023,26.485,235.769z M28.579,236.121
				c-0.279,1.723-0.001,3.158,0.845,4.302c0.844,1.144,2.029,1.826,3.545,2.043c1.544,0.221,2.887-0.107,4.022-0.978
				c1.134-0.872,1.822-2.233,2.076-4.081c0.161-1.167,0.092-2.213-0.204-3.141c-0.296-0.926-0.811-1.682-1.542-2.271
				c-0.733-0.589-1.592-0.954-2.588-1.096c-1.414-0.202-2.701,0.078-3.872,0.845C29.694,232.511,28.928,233.968,28.579,236.121z"/>
			<path fill="#FFFFFF" d="M29.165,230.162c-1.657,1.199-2.722,3.056-3.139,5.534c-0.221,1.316-0.121,2.631,0.303,3.907
				c0.431,1.294,1.215,2.397,2.332,3.275c1.112,0.874,2.466,1.433,4.014,1.653c1.427,0.204,2.822,0.074,4.139-0.384
				c1.334-0.463,2.433-1.277,3.27-2.413c0.824-1.123,1.339-2.464,1.539-3.983c0.197-1.498,0.062-2.9-0.397-4.168
				c-0.466-1.283-1.256-2.354-2.349-3.188c-1.089-0.829-2.377-1.353-3.84-1.562C32.798,228.514,30.83,228.958,29.165,230.162z
				 M29.26,242.208c-0.974-0.766-1.66-1.728-2.037-2.856c-0.383-1.146-0.475-2.328-0.279-3.511c0.373-2.247,1.314-3.918,2.777-4.978
				c1.478-1.071,3.168-1.448,5.182-1.161c1.302,0.187,2.445,0.649,3.407,1.38c0.953,0.728,1.642,1.663,2.045,2.784
				c0.411,1.14,0.53,2.406,0.347,3.769c-0.185,1.378-0.65,2.588-1.391,3.594c-0.73,0.988-1.685,1.693-2.837,2.095
				c-1.167,0.405-2.405,0.52-3.673,0.338C31.431,243.467,30.236,242.976,29.26,242.208z"/>
			<path fill="#FFFFFF" d="M30.601,231.382c-1.272,0.832-2.112,2.399-2.482,4.667c-0.299,1.829,0.008,3.386,0.919,4.62
				c0.917,1.242,2.223,1.996,3.867,2.23c1.673,0.239,3.151-0.124,4.385-1.072c1.223-0.938,1.971-2.408,2.237-4.36
				c0.167-1.224,0.09-2.343-0.225-3.327c-0.322-1.006-0.89-1.839-1.688-2.48c-0.795-0.641-1.74-1.041-2.815-1.194
				C33.274,230.248,31.865,230.554,30.601,231.382z M29.808,240.176c-0.771-1.042-1.027-2.384-0.77-3.985
				c0.326-2.02,1.031-3.392,2.086-4.084c1.08-0.708,2.236-0.96,3.543-0.773c0.904,0.13,1.696,0.465,2.359,0.998
				c0.658,0.529,1.128,1.222,1.396,2.061c0.274,0.863,0.337,1.856,0.185,2.954c-0.239,1.725-0.879,3.005-1.916,3.799
				c-1.04,0.797-2.239,1.089-3.658,0.887C31.64,241.833,30.582,241.222,29.808,240.176z"/>
			<path fill="#FFFFFF" d="M43.167,238.113c0.306-2.386,1.227-4.169,2.744-5.358c1.518-1.192,3.329-1.668,5.452-1.441
				c1.39,0.147,2.608,0.593,3.663,1.338c1.052,0.747,1.819,1.713,2.299,2.905c0.48,1.191,0.656,2.51,0.52,3.952
				c-0.138,1.462-0.576,2.742-1.319,3.838c-0.744,1.095-1.728,1.884-2.955,2.362c-1.227,0.478-2.52,0.646-3.874,0.501
				c-1.467-0.156-2.741-0.63-3.817-1.416c-1.074-0.787-1.836-1.783-2.285-2.986C43.145,240.606,43.005,239.375,43.167,238.113z
				 M45.262,238.389c-0.213,1.731,0.117,3.156,1,4.269c0.882,1.111,2.088,1.752,3.604,1.913c1.544,0.165,2.869-0.211,3.965-1.122
				c1.098-0.911,1.733-2.296,1.917-4.151c0.116-1.173,0.007-2.216-0.322-3.132c-0.33-0.914-0.869-1.651-1.62-2.213
				c-0.75-0.563-1.622-0.896-2.617-1.002c-1.414-0.15-2.684,0.176-3.818,0.984C46.234,234.743,45.529,236.225,45.262,238.389z"/>
			<path fill="#FFFFFF" d="M45.621,232.415c-1.605,1.257-2.593,3.151-2.915,5.642c-0.171,1.324-0.023,2.633,0.447,3.894
				c0.476,1.277,1.296,2.353,2.439,3.188c1.139,0.834,2.505,1.343,4.055,1.508c1.428,0.152,2.811-0.027,4.105-0.532
				c1.31-0.511,2.374-1.363,3.164-2.528c0.78-1.151,1.244-2.51,1.386-4.036c0.141-1.504-0.048-2.9-0.553-4.149
				c-0.51-1.268-1.337-2.309-2.457-3.103c-1.116-0.789-2.419-1.267-3.882-1.422C49.173,230.637,47.231,231.15,45.621,232.415z
				 M46.165,244.448c-0.997-0.729-1.714-1.666-2.132-2.781c-0.423-1.132-0.558-2.309-0.407-3.497
				c0.288-2.259,1.159-3.963,2.574-5.074c1.43-1.124,3.098-1.562,5.112-1.347c1.304,0.139,2.46,0.561,3.443,1.256
				c0.976,0.693,1.697,1.603,2.142,2.709c0.451,1.124,0.617,2.386,0.486,3.753c-0.132,1.385-0.551,2.609-1.252,3.641
				c-0.688,1.015-1.612,1.754-2.746,2.195c-1.147,0.446-2.375,0.605-3.642,0.471C48.37,245.626,47.165,245.18,46.165,244.448z"/>
			<path fill="#FFFFFF" d="M47.095,233.582c-1.233,0.877-2.009,2.474-2.293,4.753c-0.229,1.839,0.133,3.383,1.086,4.583
				c0.958,1.209,2.284,1.914,3.928,2.091c1.673,0.178,3.132-0.238,4.325-1.229c1.183-0.982,1.874-2.478,2.065-4.438
				c0.121-1.229,0.001-2.346-0.348-3.317c-0.359-0.993-0.956-1.806-1.773-2.418c-0.815-0.61-1.773-0.978-2.848-1.092
				C49.71,232.351,48.321,232.709,47.095,233.582z M46.634,242.398c-0.805-1.014-1.108-2.346-0.912-3.955
				c0.249-2.029,0.897-3.426,1.921-4.155c1.047-0.746,2.188-1.04,3.496-0.9c0.904,0.096,1.706,0.402,2.387,0.911
				c0.674,0.505,1.168,1.181,1.466,2.009c0.305,0.853,0.407,1.844,0.296,2.946c-0.173,1.731-0.765,3.033-1.767,3.864
				c-1.006,0.834-2.188,1.168-3.608,1.017C48.519,243.987,47.443,243.416,46.634,242.398z"/>
			<path fill="#FFFFFF" d="M63.811,247.255c0.333-4.251,0.672-8.501,1.014-12.752c-1.665-0.128-3.33-0.265-4.995-0.41
				c0.052-0.565,0.104-1.13,0.156-1.696c3.986,0.35,7.973,0.646,11.959,0.892c-0.036,0.566-0.073,1.133-0.109,1.699
				c-1.666-0.104-3.331-0.214-4.996-0.334c-0.323,4.252-0.642,8.503-0.956,12.755C65.193,247.359,64.502,247.307,63.811,247.255z"/>
			<path fill="#FFFFFF" d="M71.974,232.851c-4.133-0.254-8.266-0.564-12.399-0.93c-0.08,0.855-0.16,1.713-0.24,2.569
				c0,0.006,4.25,0.363,5,0.416c-0.07,0.815-1.03,12.75-1.026,12.75c1.004,0.078,2.007,0.152,3.011,0.224
				c-0.003,0,0.877-11.939,0.942-12.756c0.751,0.06,5,0.335,5,0.329c0.055-0.858,0.109-1.717,0.164-2.575
				C72.276,232.869,72.125,232.861,71.974,232.851z M71.465,233.7c-0.021,0.314-0.033,0.506-0.054,0.821
				c-0.75-0.04-4.991-0.333-4.991-0.339c-0.003,0-0.912,11.938-0.97,12.755c-0.397-0.029-0.74-0.055-1.138-0.085
				c0.06-0.817,0.998-12.752,1.002-12.752c0,0.006-4.241-0.333-4.99-0.405c0.028-0.314,0.046-0.506,0.075-0.819
				C61.204,232.976,70.66,233.68,71.465,233.7z"/>
			<path fill="#FFFFFF" d="M73.094,247.875c0.281-4.822,0.566-9.645,0.855-14.467c1.887,0.107,3.773,0.203,5.66,0.288
				c1.152,0.051,2.07,0.234,2.755,0.555c0.685,0.319,1.214,0.79,1.589,1.413c0.373,0.624,0.549,1.267,0.526,1.932
				c-0.022,0.619-0.22,1.196-0.597,1.729c-0.376,0.534-0.932,0.957-1.667,1.264c0.922,0.293,1.623,0.756,2.104,1.393
				c0.482,0.636,0.71,1.376,0.682,2.219c-0.022,0.679-0.196,1.305-0.523,1.878s-0.722,1.009-1.186,1.31
				c-0.464,0.3-1.041,0.518-1.731,0.652c-0.689,0.135-1.533,0.181-2.524,0.137C77.056,248.088,75.075,247.988,73.094,247.875z
				 M75.622,239.602c1.099,0.058,2.198,0.111,3.296,0.161c0.893,0.041,1.538,0.012,1.93-0.085c0.519-0.123,0.914-0.349,1.188-0.676
				c0.273-0.327,0.419-0.744,0.439-1.253c0.019-0.48-0.084-0.911-0.31-1.287c-0.227-0.375-0.559-0.64-0.999-0.794
				c-0.441-0.152-1.202-0.252-2.286-0.303c-1.005-0.047-2.011-0.097-3.016-0.148C75.782,236.679,75.702,238.14,75.622,239.602z
				 M75.259,246.29c1.288,0.067,2.576,0.131,3.864,0.188c0.663,0.029,1.13,0.025,1.4-0.01c0.476-0.06,0.876-0.175,1.201-0.349
				c0.325-0.172,0.597-0.432,0.814-0.777c0.217-0.345,0.334-0.75,0.352-1.212c0.021-0.541-0.113-1.018-0.398-1.428
				c-0.287-0.411-0.685-0.707-1.196-0.89c-0.512-0.183-1.255-0.294-2.228-0.338c-1.179-0.053-2.358-0.11-3.538-0.173
				C75.438,242.964,75.349,244.626,75.259,246.29z"/>
			<path fill="#FFFFFF" d="M73.976,232.969c-0.151-0.009-0.301-0.018-0.452-0.025c-0.313,5.114-0.62,10.229-0.923,15.343
				c2.139,0.124,4.277,0.233,6.417,0.329c1.029,0.046,1.918-0.004,2.642-0.147c0.748-0.145,1.388-0.388,1.9-0.72
				c0.523-0.338,0.971-0.83,1.33-1.462c0.359-0.63,0.553-1.328,0.577-2.071c0.03-0.94-0.231-1.777-0.771-2.491
				c-0.376-0.495-0.913-0.862-1.521-1.171c0.434-0.28,0.818-0.596,1.09-0.981c0.423-0.602,0.648-1.261,0.672-1.962
				c0.026-0.745-0.174-1.475-0.589-2.166c-0.421-0.697-1.021-1.232-1.785-1.589c-0.738-0.345-1.724-0.544-2.932-0.598
				C77.745,233.172,75.86,233.077,73.976,232.969z M79.589,234.134c1.085,0.048,1.953,0.219,2.579,0.512
				c0.607,0.283,1.062,0.688,1.393,1.237c0.332,0.556,0.484,1.11,0.463,1.696c-0.02,0.54-0.189,1.031-0.52,1.5
				c-0.326,0.461-0.821,0.835-1.472,1.107c-0.365,0.152-0.73,0.304-1.096,0.456c0.378,0.12,0.757,0.242,1.136,0.362
				c0.834,0.266,1.448,0.667,1.875,1.231c0.423,0.56,0.618,1.197,0.592,1.947c-0.021,0.608-0.178,1.175-0.469,1.684
				c-0.292,0.51-0.641,0.897-1.042,1.157c-0.411,0.265-0.937,0.463-1.563,0.584c-0.649,0.127-1.459,0.171-2.409,0.129
				c0,0.007-4.678-0.223-5.471-0.274c0.043-0.799,0.74-12.793,0.79-13.591C75.143,233.922,79.589,234.141,79.589,234.134z"/>
			<path fill="#FFFFFF" d="M75.887,234.779c-0.151-0.009-0.302-0.017-0.454-0.024c-0.098,1.754-0.197,3.508-0.294,5.262
				c1.253,0.067,2.506,0.129,3.758,0.187c0.951,0.043,1.627,0.009,2.066-0.099c0.611-0.146,1.093-0.425,1.43-0.826
				c0.333-0.4,0.514-0.909,0.538-1.511c0.021-0.564-0.104-1.078-0.373-1.524c-0.282-0.467-0.699-0.798-1.24-0.986
				c-0.488-0.171-1.279-0.277-2.418-0.329C77.896,234.88,76.891,234.832,75.887,234.779z M78.857,235.804
				c1.288,0.06,1.882,0.183,2.153,0.277c0.339,0.119,0.587,0.315,0.759,0.601c0.182,0.305,0.264,0.648,0.248,1.05
				c-0.017,0.416-0.128,0.742-0.34,0.995c-0.212,0.254-0.519,0.425-0.94,0.525c-0.242,0.06-0.745,0.12-1.799,0.072
				c0,0.002-2.154-0.101-2.833-0.137c0.034-0.632,0.155-2.878,0.189-3.509C76.95,235.715,78.857,235.805,78.857,235.804z"/>
			<path fill="#FFFFFF" d="M75.553,240.863c-0.153-0.008-0.307-0.017-0.46-0.024c-0.109,1.955-0.217,3.909-0.324,5.864
				c1.445,0.078,2.889,0.148,4.333,0.213c0.496-0.004,0.99-0.008,1.486-0.013c0.531-0.067,0.991-0.202,1.365-0.401
				c0.396-0.21,0.727-0.524,0.984-0.935c0.257-0.407,0.396-0.886,0.415-1.42c0.023-0.633-0.138-1.201-0.476-1.688
				c-0.341-0.487-0.819-0.844-1.42-1.059c-0.566-0.2-1.339-0.319-2.369-0.365C77.909,240.982,76.731,240.924,75.553,240.863z
				 M79.046,241.913c0.92,0.041,1.622,0.146,2.088,0.312c0.421,0.149,0.739,0.385,0.972,0.72c0.232,0.334,0.337,0.717,0.32,1.169
				c-0.015,0.387-0.111,0.724-0.288,1.003c-0.175,0.277-0.392,0.485-0.645,0.621c-0.271,0.144-0.619,0.244-1.034,0.295
				c-0.002,0.001-1.318,0.007-1.318,0.006c0,0.002-2.675-0.123-3.396-0.163c0.035-0.659,0.184-3.451,0.219-4.111
				C76.664,241.802,79.046,241.915,79.046,241.913z"/>
			<path fill="#FFFFFF" d="M85.996,248.435c2.131-4.771,4.203-9.554,6.212-14.351c0.74,0.013,1.479,0.023,2.218,0.032
				c1.987,4.856,4.042,9.698,6.164,14.527c-0.784,0.001-1.567,0-2.351-0.004c-0.589-1.466-1.172-2.934-1.75-4.401
				c-2.165-0.017-4.329-0.048-6.493-0.095c-0.596,1.451-1.197,2.902-1.804,4.351C87.46,248.477,86.728,248.457,85.996,248.435z
				 M90.608,242.592c1.749,0.035,3.497,0.062,5.245,0.077c-0.524-1.339-1.043-2.68-1.558-4.021c-0.46-1.227-0.807-2.238-1.042-3.037
				c-0.217,0.938-0.51,1.863-0.881,2.772C91.79,239.787,91.202,241.19,90.608,242.592z"/>
			<path fill="#FFFFFF" d="M94.432,233.678c-0.843-0.011-1.685-0.022-2.526-0.038c-2.133,5.087-4.336,10.157-6.606,15.213
				c1.069,0.033,2.139,0.063,3.208,0.089c0.004,0.001,1.602-3.852,1.802-4.352c0.555,0.02,5.31,0.089,5.855,0.085
				c0.191,0.497,1.746,4.403,1.75,4.403c1.125,0.005,2.248,0.006,3.373,0.003c-2.26-5.117-4.445-10.251-6.553-15.399
				C94.633,233.681,94.533,233.679,94.432,233.678z M94.117,234.553c0.164,0.513,5.253,12.568,5.776,13.651
				c-0.556,0-1.016-0.001-1.331-0.003c-0.204-0.494-1.756-4.399-1.752-4.399c-2.376-0.017-4.752-0.052-7.128-0.104
				c0.003,0-1.592,3.852-1.805,4.349c-0.301-0.008-0.678-0.018-1.187-0.032c0.513-1.054,5.645-12.964,5.82-13.486
				C92.897,234.536,93.738,234.548,94.117,234.553z"/>
			<path fill="#FFFFFF" d="M92.811,235.516c-0.212,0.911-0.501,1.821-0.864,2.707c-0.666,1.6-1.338,3.196-2.017,4.794
				c2.197,0.048,4.394,0.08,6.591,0.096c-0.605-1.537-1.203-3.076-1.795-4.616c-0.521-1.505-1.038-3.011-1.549-4.518
				C93.054,234.491,92.933,235.003,92.811,235.516z M92.797,238.545c0.197-0.486,0.317-0.989,0.472-1.485
				c0.292,0.854,0.597,1.736,0.597,1.737c-0.001,0,0.982,2.56,1.321,3.426c-0.87-0.007-3.035-0.039-3.902-0.057
				C91.655,241.294,92.799,238.545,92.797,238.545z"/>
			<path fill="#FFFFFF" d="M102.169,248.639c-0.021-4.83-0.043-9.661-0.066-14.492c0.67-0.003,1.34-0.006,2.009-0.013
				c0.039,4.263,0.078,8.527,0.117,12.79c2.541-0.022,5.082-0.065,7.623-0.129c0.015,0.566,0.029,1.134,0.044,1.701
				C108.653,248.578,105.411,248.625,102.169,248.639z"/>
			<path fill="#FFFFFF" d="M104.107,233.696c-0.82,0.007-1.64,0.013-2.459,0.015c0.019,5.123,0.037,10.246,0.056,15.37
				c3.557-0.013,7.113-0.064,10.671-0.157c-0.022-0.86-0.046-1.72-0.069-2.579c0.001,0.014-6.796,0.145-7.616,0.136
				c-0.008-0.818-0.13-12.789-0.131-12.789C104.408,233.693,104.258,233.695,104.107,233.696z M103.662,234.578
				c0.007,0.819,0.104,12.789,0.104,12.789c0,0.014,6.811-0.085,7.633-0.121c0.007,0.315,0.012,0.507,0.019,0.823
				c-0.803,0.037-7.979,0.143-8.782,0.128c-0.004-0.799-0.071-12.812-0.076-13.612C102.943,234.583,103.276,234.581,103.662,234.578
				z"/>
			<path fill="#FFFFFF" d="M114.292,248.431c-0.147-4.829-0.298-9.657-0.451-14.485c0.67-0.021,1.339-0.042,2.009-0.064
				c0.153,4.261,0.306,8.521,0.456,12.782c2.542-0.087,5.083-0.196,7.625-0.324c0.028,0.566,0.059,1.133,0.087,1.699
				C120.775,248.203,117.534,248.333,114.292,248.431z"/>
			<path fill="#FFFFFF" d="M115.833,233.442c-0.818,0.028-1.638,0.055-2.458,0.078c0.157,5.121,0.311,10.242,0.463,15.363
				c3.557-0.103,7.114-0.247,10.67-0.43c-0.045-0.858-0.09-1.719-0.135-2.577c-0.001,0.014-6.797,0.318-7.617,0.331
				c-0.027-0.818-0.469-12.781-0.471-12.781C116.135,233.432,115.984,233.437,115.833,233.442z M115.412,234.335
				c0.031,0.818,0.445,12.782,0.443,12.781c0,0.015,6.81-0.259,7.632-0.316c0.016,0.315,0.025,0.508,0.041,0.823
				c-0.803,0.057-7.979,0.347-8.783,0.354c-0.024-0.8-0.409-12.807-0.438-13.605C114.693,234.359,115.026,234.348,115.412,234.335z"
				/>
			<path fill="#FFFFFF" d="M142.374,241.649c0.699,0.099,1.398,0.195,2.098,0.291c-0.272,1.609-0.932,2.88-1.978,3.805
				c-1.045,0.925-2.385,1.456-4.009,1.589c-1.683,0.136-3.075-0.079-4.174-0.637s-1.962-1.422-2.592-2.588
				c-0.629-1.166-0.987-2.441-1.081-3.822c-0.102-1.505,0.113-2.839,0.639-4c0.526-1.162,1.321-2.072,2.387-2.735
				c1.066-0.663,2.26-1.047,3.593-1.155c1.509-0.122,2.81,0.136,3.912,0.777c1.102,0.644,1.924,1.609,2.466,2.904
				c-0.652,0.21-1.304,0.419-1.956,0.626c-0.453-1.017-1.034-1.735-1.747-2.155c-0.711-0.42-1.57-0.59-2.582-0.508
				c-1.161,0.095-2.11,0.435-2.85,1.025c-0.741,0.59-1.237,1.343-1.489,2.263c-0.252,0.919-0.344,1.854-0.274,2.806
				c0.089,1.228,0.357,2.287,0.808,3.176c0.449,0.889,1.097,1.529,1.941,1.922c0.846,0.392,1.744,0.551,2.69,0.474
				c1.149-0.093,2.098-0.484,2.838-1.17C141.755,243.85,142.208,242.886,142.374,241.649z"/>
			<path fill="#FFFFFF" d="M133.418,233.181c-1.137,0.708-1.997,1.691-2.559,2.931c-0.554,1.221-0.786,2.635-0.681,4.205
				c0.097,1.434,0.474,2.777,1.126,3.993c0.669,1.241,1.604,2.176,2.781,2.774c1.174,0.597,2.669,0.829,4.437,0.687
				c1.725-0.14,3.173-0.718,4.291-1.708s1.83-2.356,2.118-4.057c0.024-0.146,0.05-0.292,0.074-0.438
				c-1.012-0.138-2.021-0.278-3.03-0.422c-0.021,0.149-0.04,0.299-0.061,0.448c-0.153,1.134-0.565,2.02-1.226,2.629
				c-0.668,0.617-1.503,0.96-2.55,1.045c-0.857,0.068-1.681-0.077-2.445-0.432c-0.757-0.351-1.323-0.913-1.732-1.72
				c-0.423-0.833-0.68-1.848-0.766-3.016c-0.067-0.9,0.021-1.796,0.258-2.664c0.229-0.835,0.666-1.499,1.335-2.034
				c0.663-0.529,1.537-0.839,2.599-0.927c0.907-0.072,1.681,0.076,2.306,0.445c0.625,0.37,1.151,1.027,1.563,1.954
				c0.056,0.124,0.109,0.247,0.165,0.371c0.94-0.298,1.881-0.6,2.819-0.903c-0.061-0.144-0.121-0.288-0.181-0.432
				c-0.578-1.379-1.473-2.424-2.655-3.115c-1.182-0.688-2.587-0.969-4.186-0.84C135.818,232.071,134.543,232.482,133.418,233.181z
				 M134.536,246.31c-1.01-0.512-1.818-1.321-2.401-2.403c-0.599-1.106-0.945-2.335-1.036-3.65
				c-0.099-1.428,0.104-2.705,0.598-3.796c0.484-1.075,1.229-1.93,2.214-2.54c0.996-0.621,2.134-0.985,3.384-1.087
				c1.404-0.114,2.626,0.125,3.639,0.716c0.878,0.514,1.534,1.307,2.027,2.281c-0.423,0.138-0.758,0.243-1.073,0.345
				c-0.464-0.893-1.023-1.594-1.715-2.002c-0.795-0.469-1.755-0.66-2.859-0.57c-1.251,0.102-2.293,0.478-3.104,1.125
				c-0.812,0.646-1.363,1.484-1.641,2.489c-0.264,0.96-0.362,1.952-0.291,2.949c0.092,1.279,0.375,2.401,0.849,3.335
				c0.492,0.975,1.216,1.69,2.152,2.124c0.918,0.427,1.906,0.602,2.935,0.519c1.256-0.102,2.311-0.538,3.128-1.295
				c0.714-0.661,1.146-1.598,1.371-2.709c0.364,0.052,0.727,0.103,1.165,0.162c-0.299,1.285-0.84,2.362-1.702,3.124
				c-0.96,0.85-2.216,1.347-3.725,1.469C136.867,247.024,135.549,246.825,134.536,246.31z"/>
			<path fill="#FFFFFF" d="M147.4,246.278c-0.494-4.807-0.996-9.613-1.505-14.418c0.669-0.066,1.338-0.136,2.007-0.205
				c0.469,4.239,0.932,8.479,1.39,12.719c2.54-0.266,5.081-0.552,7.622-0.859c0.07,0.563,0.141,1.127,0.21,1.688
				C153.883,245.595,150.642,245.953,147.4,246.278z"/>
			<path fill="#FFFFFF" d="M147.854,231.218c-0.818,0.086-1.638,0.169-2.457,0.25c0.535,5.098,1.063,10.195,1.581,15.293
				c3.557-0.353,7.113-0.746,10.669-1.179c-0.106-0.854-0.215-1.707-0.322-2.562c0,0.015-6.795,0.796-7.614,0.866
				c-0.083-0.814-1.399-12.717-1.404-12.717C148.155,231.187,148.005,231.203,147.854,231.218z M147.498,232.139
				c0.094,0.814,1.38,12.719,1.375,12.719c0,0.015,6.808-0.737,7.63-0.852c0.038,0.313,0.062,0.504,0.101,0.817
				c-0.803,0.113-7.979,0.906-8.781,0.97c-0.078-0.797-1.338-12.746-1.428-13.542C146.78,232.212,147.112,232.179,147.498,232.139z"
				/>
			<path fill="#FFFFFF" d="M167.6,229.167c0.667-0.1,1.337-0.199,2.005-0.302c0.448,2.758,0.894,5.516,1.335,8.273
				c0.229,1.439,0.236,2.608,0.017,3.509c-0.218,0.901-0.749,1.686-1.592,2.353s-2.02,1.109-3.522,1.318
				c-1.463,0.203-2.689,0.132-3.681-0.21c-0.991-0.341-1.743-0.928-2.254-1.757s-0.864-2.005-1.064-3.527
				c-0.365-2.77-0.733-5.537-1.104-8.305c0.669-0.085,1.338-0.171,2.007-0.259c0.384,2.764,0.764,5.527,1.141,8.291
				c0.17,1.248,0.421,2.151,0.75,2.709c0.33,0.559,0.821,0.958,1.476,1.196c0.653,0.238,1.422,0.297,2.303,0.175
				c1.509-0.21,2.537-0.684,3.082-1.408c0.544-0.726,0.676-1.989,0.396-3.787C168.465,234.68,168.034,231.924,167.6,229.167z"/>
			<path fill="#FFFFFF" d="M169.533,228.433c-0.817,0.124-1.636,0.246-2.454,0.367c0.455,2.901,0.906,5.803,1.353,8.705
				c0.259,1.674,0.151,2.842-0.317,3.469c-0.465,0.619-1.396,1.033-2.763,1.224c-0.796,0.11-1.491,0.059-2.065-0.15
				c-0.557-0.202-0.962-0.531-1.241-1.003c-0.3-0.508-0.534-1.366-0.698-2.553c-0.4-2.908-0.803-5.816-1.21-8.725
				c-0.97,0.128-1.939,0.252-2.908,0.373c0.388,2.914,0.771,5.828,1.152,8.742c0.206,1.574,0.582,2.816,1.121,3.692
				c0.563,0.915,1.399,1.572,2.49,1.947c1.061,0.364,2.378,0.445,3.912,0.232c1.586-0.222,2.854-0.703,3.762-1.42
				c0.921-0.729,1.509-1.604,1.748-2.595c0.231-0.948,0.225-2.184-0.015-3.671c-0.468-2.902-0.939-5.804-1.414-8.705
				C169.835,228.386,169.686,228.41,169.533,228.433z M169.223,229.369c0.128,0.778,1.258,7.841,1.256,7.841
				c0.219,1.38,0.228,2.505,0.021,3.346c-0.197,0.812-0.667,1.503-1.437,2.111c-0.77,0.609-1.876,1.021-3.284,1.217
				c-1.373,0.192-2.537,0.128-3.449-0.188c-0.896-0.308-1.555-0.821-2.015-1.568c-0.479-0.773-0.818-1.905-1.012-3.361
				c0.002,0-0.946-7.087-1.054-7.867c0.386-0.05,0.718-0.093,1.104-0.143c0.11,0.781,1.074,7.855,1.072,7.855
				c0.179,1.315,0.439,2.254,0.802,2.867c0.38,0.646,0.955,1.113,1.71,1.388c0.725,0.266,1.581,0.333,2.54,0.2
				c1.637-0.228,2.782-0.768,3.403-1.594c0.621-0.831,0.775-2.173,0.474-4.104c0.002,0-1.107-7.055-1.233-7.834
				C168.506,229.477,168.838,229.427,169.223,229.369z"/>
			<path fill="#FFFFFF" d="M175.255,242.664c-0.789-4.77-1.591-9.537-2.404-14.304c1.885-0.302,3.768-0.614,5.652-0.938
				c1.15-0.198,2.101-0.217,2.852-0.053s1.382,0.509,1.894,1.036c0.513,0.527,0.834,1.117,0.962,1.771
				c0.118,0.608,0.054,1.215-0.199,1.817c-0.252,0.603-0.707,1.134-1.365,1.593c0.979,0.087,1.777,0.387,2.398,0.903
				c0.62,0.518,1.012,1.189,1.175,2.02c0.13,0.667,0.097,1.315-0.1,1.945s-0.49,1.142-0.883,1.534
				c-0.395,0.394-0.917,0.729-1.571,1.011c-0.653,0.28-1.478,0.508-2.47,0.678C179.216,242.018,177.236,242.347,175.255,242.664z
				 M175.904,234.043c1.097-0.18,2.194-0.364,3.291-0.552c0.893-0.152,1.524-0.32,1.891-0.499c0.485-0.232,0.825-0.538,1.022-0.916
				c0.195-0.378,0.246-0.816,0.15-1.317c-0.09-0.474-0.29-0.871-0.6-1.189c-0.309-0.317-0.698-0.504-1.168-0.559
				c-0.472-0.055-1.246,0.013-2.33,0.197c-1.004,0.172-2.008,0.34-3.011,0.505C175.402,231.157,175.653,232.6,175.904,234.043z
				 M177.042,240.649c1.286-0.211,2.573-0.427,3.861-0.649c0.661-0.113,1.124-0.219,1.384-0.311c0.457-0.161,0.828-0.36,1.11-0.6
				c0.283-0.237,0.495-0.551,0.633-0.934c0.139-0.385,0.164-0.805,0.078-1.26c-0.102-0.531-0.341-0.968-0.715-1.308
				c-0.377-0.339-0.837-0.542-1.386-0.61c-0.547-0.066-1.307-0.017-2.279,0.151c-1.178,0.202-2.356,0.399-3.534,0.592
				C176.479,237.365,176.76,239.007,177.042,240.649z"/>
			<path fill="#FFFFFF" d="M172.777,227.926c-0.151,0.023-0.302,0.048-0.451,0.072c0.856,5.057,1.702,10.113,2.533,15.172
				c2.139-0.339,4.276-0.691,6.413-1.06c1.028-0.177,1.898-0.418,2.584-0.714c0.709-0.303,1.289-0.678,1.723-1.112
				c0.443-0.443,0.778-1.02,0.993-1.715c0.216-0.692,0.251-1.415,0.108-2.146c-0.181-0.924-0.629-1.685-1.324-2.265
				c-0.484-0.402-1.1-0.646-1.771-0.813c0.367-0.368,0.677-0.758,0.857-1.193c0.284-0.68,0.358-1.37,0.223-2.06
				c-0.144-0.732-0.507-1.402-1.077-1.987c-0.574-0.589-1.291-0.981-2.13-1.165c-0.809-0.177-1.829-0.159-3.035,0.05
				C176.541,227.313,174.659,227.625,172.777,227.926z M178.582,227.855c1.084-0.188,1.981-0.209,2.667-0.058
				c0.665,0.146,1.209,0.441,1.661,0.907c0.455,0.47,0.732,0.978,0.845,1.555c0.103,0.531,0.046,1.047-0.176,1.576
				c-0.219,0.521-0.625,0.992-1.207,1.398c-0.327,0.227-0.654,0.454-0.982,0.681c0.402,0.037,0.804,0.073,1.207,0.109
				c0.887,0.079,1.585,0.338,2.134,0.795c0.546,0.457,0.882,1.036,1.024,1.775c0.116,0.598,0.087,1.184-0.089,1.744
				c-0.175,0.56-0.434,1.015-0.773,1.354c-0.348,0.347-0.825,0.652-1.42,0.907c-0.612,0.263-1.405,0.481-2.354,0.645
				c0,0.007-4.677,0.791-5.469,0.909c-0.123-0.789-2.13-12.644-2.272-13.434C174.143,228.605,178.583,227.861,178.582,227.855z"/>
			<path fill="#FFFFFF" d="M175.074,229.28c-0.151,0.025-0.302,0.05-0.453,0.074c0.301,1.732,0.601,3.465,0.898,5.198
				c1.252-0.205,2.503-0.414,3.755-0.628c0.95-0.163,1.611-0.341,2.021-0.541c0.571-0.273,0.985-0.65,1.229-1.115
				c0.24-0.462,0.304-0.998,0.19-1.591c-0.106-0.556-0.348-1.028-0.715-1.407c-0.385-0.394-0.874-0.627-1.452-0.694
				c-0.521-0.062-1.327,0.006-2.465,0.2C177.08,228.947,176.076,229.116,175.074,229.28z M178.24,229.641
				c1.286-0.22,1.901-0.228,2.191-0.194c0.362,0.044,0.652,0.182,0.888,0.424c0.25,0.258,0.408,0.574,0.483,0.971
				c0.077,0.409,0.042,0.751-0.11,1.044c-0.153,0.293-0.419,0.527-0.813,0.716c-0.226,0.109-0.711,0.278-1.763,0.458
				c0,0.002-2.151,0.366-2.831,0.476c-0.108-0.623-0.497-2.84-0.606-3.463C176.335,229.964,178.24,229.643,178.24,229.641z"/>
			<path fill="#FFFFFF" d="M176.119,235.289c-0.153,0.025-0.306,0.051-0.46,0.075c0.332,1.932,0.662,3.863,0.99,5.795
				c1.443-0.235,2.888-0.478,4.331-0.727c0.489-0.109,0.979-0.221,1.468-0.333c0.511-0.179,0.937-0.41,1.262-0.687
				c0.346-0.289,0.604-0.668,0.767-1.124c0.164-0.452,0.194-0.949,0.094-1.476c-0.119-0.622-0.405-1.142-0.851-1.544
				c-0.447-0.402-1-0.646-1.645-0.727c-0.604-0.074-1.397-0.023-2.426,0.153C178.474,234.899,177.296,235.095,176.119,235.289z
				 M179.807,235.561c0.92-0.157,1.637-0.208,2.135-0.146c0.451,0.057,0.819,0.218,1.125,0.494c0.305,0.276,0.495,0.627,0.579,1.07
				c0.072,0.382,0.052,0.731-0.061,1.042c-0.111,0.309-0.279,0.559-0.499,0.745c-0.237,0.199-0.56,0.372-0.958,0.512
				c-0.002,0.001-1.304,0.29-1.304,0.289c0.001,0.003-2.673,0.456-3.393,0.572c-0.111-0.651-0.589-3.408-0.702-4.061
				C177.427,235.966,179.807,235.563,179.807,235.561z"/>
		</g>
	</g>
	<g>
		<path fill="#FFFFFF" d="M39.098,181.453l12.208-20.001l2.74,3.099l-9.176,14.646l15.514-7.48l2.74,3.099l-21.299,9.722
			L39.098,181.453z"/>
	</g>
	<g>
		<path fill="#FFFFFF" d="M52.392,194.862l14.434-17.124l10.87,9.162l-2.441,2.896l-7.89-6.651l-3.184,3.777l7.345,6.191
			l-2.441,2.896l-7.345-6.19l-3.927,4.658l8.185,6.899l-2.441,2.896L52.392,194.862z"/>
	</g>
	<g>
		<path fill="#FFFFFF" d="M69.336,208.945l12.63-18.494l6.712,4.584c1.688,1.152,2.801,2.156,3.338,3.012
			c0.538,0.855,0.747,1.865,0.625,3.029c-0.122,1.165-0.556,2.295-1.303,3.391c-0.949,1.389-2.081,2.3-3.393,2.731
			c-1.313,0.432-2.74,0.294-4.282-0.414c0.364,0.938,0.578,1.841,0.64,2.708c0.062,0.867-0.019,2.277-0.242,4.229l-0.537,4.912
			l-3.787-2.585l0.446-5.594c0.162-1.991,0.218-3.276,0.172-3.854c-0.047-0.578-0.191-1.052-0.433-1.421
			c-0.243-0.368-0.729-0.803-1.46-1.302l-0.645-0.44l-5.263,7.706L69.336,208.945z M79.829,200.491l2.34,1.598
			c1.518,1.036,2.517,1.608,2.999,1.714c0.481,0.106,0.956,0.046,1.423-0.181c0.468-0.225,0.892-0.616,1.273-1.175
			c0.427-0.625,0.63-1.227,0.612-1.803c-0.02-0.576-0.251-1.091-0.694-1.543c-0.229-0.217-0.983-0.764-2.266-1.639l-2.469-1.687
			L79.829,200.491z"/>
	</g>
	<g>
		<path fill="#FFFFFF" d="M27.859,167.644l18.005-13.318l2.318,3.135l-18.005,13.317L27.859,167.644z"/>
	</g>
	<g>
		<path fill="#FFFFFF" d="M17.709,150.082l19.107-11.255l1.978,3.357l-15.844,9.333l4.904,8.324l-3.264,1.923L17.709,150.082z"/>
	</g>
	<g>
		<path fill="#FFFFFF" d="M121.919,215.309l-12.513-18.574l5.179-3.49c1.963-1.321,3.306-2.091,4.027-2.307
			c1.104-0.338,2.277-0.249,3.524,0.268c1.246,0.518,2.367,1.514,3.363,2.991c0.768,1.14,1.234,2.218,1.402,3.234
			c0.167,1.018,0.125,1.932-0.124,2.745c-0.25,0.812-0.61,1.48-1.08,2.007c-0.65,0.696-1.707,1.535-3.167,2.521l-2.103,1.417
			l4.723,7.011L121.919,215.309z M114.755,197.698l3.557,5.281l1.767-1.19c1.271-0.856,2.057-1.526,2.354-2.01
			c0.297-0.482,0.428-1.015,0.392-1.593s-0.238-1.144-0.609-1.693c-0.456-0.678-1.004-1.12-1.642-1.331
			c-0.638-0.209-1.256-0.193-1.853,0.049c-0.442,0.176-1.245,0.655-2.407,1.438L114.755,197.698z"/>
	</g>
	<g>
		<path fill="#FFFFFF" d="M132.241,193.64c-1.508-1.712-2.553-3.343-3.136-4.893c-0.427-1.144-0.656-2.307-0.688-3.485
			c-0.032-1.18,0.144-2.229,0.53-3.152c0.507-1.232,1.347-2.364,2.519-3.396c2.122-1.867,4.497-2.592,7.123-2.176
			c2.627,0.417,5.145,1.994,7.554,4.731c2.388,2.716,3.625,5.396,3.709,8.042c0.085,2.646-0.931,4.897-3.046,6.759
			c-2.143,1.886-4.517,2.621-7.123,2.207C137.076,197.864,134.597,196.318,132.241,193.64z M135.149,190.879
			c1.68,1.91,3.329,3.027,4.948,3.352c1.62,0.324,3.008-0.023,4.166-1.04c1.156-1.019,1.676-2.343,1.558-3.975
			c-0.118-1.631-1.038-3.425-2.758-5.381c-1.701-1.933-3.331-3.057-4.891-3.373s-2.938,0.053-4.134,1.105
			c-1.196,1.052-1.737,2.382-1.623,3.99C132.53,187.166,133.441,188.938,135.149,190.879z"/>
	</g>
	<g>
		<path fill="#FFFFFF" d="M150.282,175.907c-1.724-1.494-2.979-2.969-3.767-4.426c-0.576-1.076-0.959-2.198-1.149-3.361
			c-0.19-1.165-0.157-2.229,0.101-3.194c0.337-1.29,1.016-2.525,2.039-3.706c1.853-2.135,4.108-3.173,6.767-3.113
			c2.658,0.061,5.365,1.283,8.12,3.673c2.732,2.368,4.318,4.859,4.758,7.47c0.44,2.609-0.263,4.979-2.109,7.107
			c-1.869,2.155-4.122,3.204-6.761,3.144C155.642,179.441,152.977,178.244,150.282,175.907z M152.792,172.779
			c1.923,1.668,3.707,2.554,5.354,2.656c1.649,0.104,2.978-0.427,3.987-1.592c1.01-1.164,1.347-2.546,1.01-4.146
			c-0.337-1.6-1.488-3.254-3.457-4.961c-1.945-1.687-3.711-2.581-5.299-2.685c-1.588-0.103-2.904,0.447-3.948,1.651
			c-1.044,1.203-1.401,2.595-1.071,4.172C149.697,169.452,150.839,171.086,152.792,172.779z"/>
	</g>
	<g>
		<path fill="#FFFFFF" d="M175.783,161.03l-18.901-11.598l2.038-3.322l15.673,9.617l5.053-8.233l3.229,1.98L175.783,161.03z"/>
	</g>
</g>
</svg>
