<?xml version="1.0" encoding="UTF-8" standalone="no"?>
<!-- Created with Inkscape (http://www.inkscape.org/) -->

<svg
   xmlns:dc="http://purl.org/dc/elements/1.1/"
   xmlns:cc="http://creativecommons.org/ns#"
   xmlns:rdf="http://www.w3.org/1999/02/22-rdf-syntax-ns#"
   xmlns:svg="http://www.w3.org/2000/svg"
   xmlns="http://www.w3.org/2000/svg"
   xmlns:sodipodi="http://sodipodi.sourceforge.net/DTD/sodipodi-0.dtd"
   xmlns:inkscape="http://www.inkscape.org/namespaces/inkscape"
   width="1000"
   height="1371.4863"
   viewBox="0 0 264.58333 362.87243"
   version="1.1"
   id="svg8"
   inkscape:version="0.92.4 (5da689c313, 2019-01-14)"
   sodipodi:docname="A.svg">
  <defs
     id="defs2">
    <radialGradient
       id="SVGID_1_"
       cx="206.4487"
       cy="259.90329"
       r="133.9066"
       gradientTransform="matrix(0.53861101,0,0,0.53861101,-118.83783,-201.54013)"
       gradientUnits="userSpaceOnUse">
      <stop
         offset="0"
         style="stop-color:#FFFFFF"
         id="stop16" />
      <stop
         offset="0.1"
         style="stop-color:#FFFFFF"
         id="stop18" />
      <stop
         offset="0.45"
         style="stop-color:#FFFFFF"
         id="stop20" />
      <stop
         offset="0.63"
         style="stop-color:#E5E4E4"
         id="stop22" />
      <stop
         offset="0.84"
         style="stop-color:#D1D3D4"
         id="stop24" />
      <stop
         offset="1"
         style="stop-color:#BCBEC0"
         id="stop26" />
    </radialGradient>
  </defs>
  <sodipodi:namedview
     id="base"
     pagecolor="#ffffff"
     bordercolor="#666666"
     borderopacity="1.0"
     inkscape:pageopacity="0.82352941"
     inkscape:pageshadow="2"
     inkscape:zoom="0.24748738"
     inkscape:cx="797.80428"
     inkscape:cy="154.68803"
     inkscape:document-units="px"
     inkscape:current-layer="layer1"
     showgrid="false"
     units="px"
     inkscape:window-width="1920"
     inkscape:window-height="1017"
     inkscape:window-x="1912"
     inkscape:window-y="-8"
     inkscape:window-maximized="1"
     inkscape:pagecheckerboard="true"
     fit-margin-top="0"
     fit-margin-left="0"
     fit-margin-right="0"
     fit-margin-bottom="0" />
  <metadata
     id="metadata5">
    <rdf:RDF>
      <cc:Work
         rdf:about="">
        <dc:format>image/svg+xml</dc:format>
        <dc:type
           rdf:resource="http://purl.org/dc/dcmitype/StillImage" />
        <dc:title></dc:title>
      </cc:Work>
    </rdf:RDF>
  </metadata>
  <g
     inkscape:label="Layer 1"
     inkscape:groupmode="layer"
     id="layer1"
     transform="translate(116.48282,200.15913)">
    <path
       inkscape:connector-curvature="0"
       style="fill:#e22227;stroke-width:0.54982752"
       d="m 117.02795,-88.339606 -0.0978,-1.846864 h -1.84633 -99.274114 v 0 0 h -99.274688 -1.847417 l -0.09722,1.846864 c -0.0027,0.02707 -0.341606,6.49731 -0.341606,16.995183 0.0076,25.088617 1.91284,73.1154887 15.153227,111.377468 0.0835,0.211597 20.859367,60.198365 85.381625,100.154345 l 1.024882,0.63559 v 0 0 l 1.024337,-0.63559 C 81.356173,100.23141 102.13085,40.244719 102.21443,40.033045 c 13.2404,-38.2625131 15.1439,-86.288851 15.15379,-111.377468 0.001,-10.497873 -0.3376,-16.96824 -0.34034,-16.995183 z"
       id="path6" />
    <path
       inkscape:connector-curvature="0"
       style="fill:#fae700;stroke-width:0.54982752"
       d="m 113.30343,-83.655074 c -0.0309,-1.057869 -0.0605,-1.939787 -0.0875,-2.63367 H 15.809623 v 0 0 h -97.407394 c -0.02669,0.693883 -0.05643,1.575801 -0.08731,2.63367 -0.08426,2.898688 -0.168134,7.103775 -0.168134,12.310651 -0.01144,24.868137 1.954054,72.6635473 14.937703,110.102394 0,0 0.07053,0.202829 0.232185,0.63342 2.398332,6.439573 23.893298,60.12856 82.492258,96.844969 58.599516,-36.715837 80.093377,-90.405396 82.492273,-96.844969 0.161652,-0.430515 0.232032,-0.63342 0.232032,-0.63342 12.983624,-37.4388467 14.948714,-85.234257 14.938264,-110.102394 5.4e-4,-5.206876 -0.083,-9.41141 -0.16771,-12.310651 z"
       id="path8" />
    <path
       inkscape:connector-curvature="0"
       style="fill:#e22227;stroke-width:0.54982752"
       d="m 106.67855,-77.616861 -0.0271,-1.923305 h -1.92109 -35.375358 l -0.008,1.941994 c -0.101643,29.482292 -24.032887,53.354701 -53.53828,53.353596 -29.505945,10e-4 -53.43719,-23.871304 -53.539458,-53.353596 l -0.0065,-1.941994 h -37.299422 l -0.02669,1.923305 c -0.02287,1.872701 -0.04194,3.971403 -0.04194,6.272438 0,0.003 0,0.0305 0,0.04728 0,12.261702 0.480002,30.182241 2.556706,49.569702 2.06843,19.3945903 5.765474,40.266626 12.001075,58.244315 v 0 c 0.0038,0.01144 0.01144,0.0305 0.01906,0.0549 l 0.132296,0.383239 0.01144,0.01144 c 0.970984,2.609472 6.250433,16.043423 17.785269,33.249182 11.859778,17.693424 30.271852,39.284625 57.328312,57.287065 l 1.078758,0.71752 1.080412,-0.71752 C 43.944002,109.50025 62.35608,87.90852 74.21641,70.215629 85.750687,53.00987 91.03068,39.575919 92.001675,36.966447 l 0.01106,-0.01144 0.133058,-0.383773 c 0.0091,-0.02669 0.01487,-0.04346 0.0183,-0.05452 6.235589,-17.977193 9.932077,-38.8491905 12.000527,-58.245458 2.0723,-19.349526 2.55395,-37.23926 2.5567,-49.499322 v 0 -0.116665 c -0.001,-2.301035 -0.0195,-4.399699 -0.0435,-6.272423 z"
       id="path10" />
    <path
       inkscape:connector-curvature="0"
       style="fill:#fae700;stroke-width:0.54982752"
       d="m -57.000708,34.837702 0.146403,0.432154 c 0.03812,0.122765 5.074911,14.271343 17.492765,32.774137 v 0 c 11.480397,17.129317 29.22168,37.982057 55.169695,55.489657 v 0 C 41.756162,106.02605 59.497998,85.17331 70.979497,68.043993 v 0 C 83.395708,49.541199 88.433218,35.391934 88.471157,35.269856 v 0 l 0.145144,-0.430515 0.008,-0.0076 C 94.63008,17.372498 98.261132,-3.0920888 100.29,-22.142519 v 0 c 2.05691,-19.197748 2.53415,-36.995141 2.53305,-49.154018 v 0 -0.0076 c 0,-0.02288 0,-0.0549 0.001,-0.09951 v 0 c 0,-1.501578 -0.008,-2.917374 -0.0194,-4.238618 v 0 H 73.206858 C 72.077512,-44.913516 46.81404,-20.350004 15.80981,-20.348326 v 0 c -31.005057,-0.002 -56.266887,-24.56519 -57.397331,-55.293962 v 0 h -29.599128 c -0.01144,1.341565 -0.01906,2.785993 -0.01906,4.335953 v 0 0.0076 c 0,12.158877 0.476151,29.95627 2.534707,49.155123 v 0 c 2.028322,19.0493251 5.659904,39.513912 11.66515,56.97313 v 0 z"
       id="path12" />
    <path
       inkscape:connector-curvature="0"
       style="fill:#e22227;stroke-width:0.54982752"
       d="m 80.194465,-46.341589 -64.384812,62.267981 -64.3848,-62.267981 c -39.582636,17.369052 -68.205543,58.462623 -67.905333,105.326052 0.23904,38.586353 19.307736,71.578757 46.663837,91.135577 l 29.532348,-25.84355 C -57.63245,111.54139 -72.460198,90.458248 -72.665276,63.575515 -72.825785,43.150007 -64.754358,24.036326 -52.993558,11.616288 L 15.809112,77.779223 84.611225,11.616288 C 96.372037,24.036326 104.44351,43.150007 104.2824,63.575515 104.07732,90.458782 89.250666,111.54139 71.901414,124.27649 l 29.533436,25.84355 c 27.35611,-19.55682 46.42468,-52.549224 46.66331,-91.135577 0.30078,-46.863429 -28.32216,-87.957 -67.903695,-105.326052 z"
       id="path14" />
    <circle
       style="clip-rule:evenodd;fill:url(#SVGID_1_);fill-rule:evenodd;stroke-width:0.54982752"
       cx="15.80909"
       cy="-77.786217"
       r="50.862347"
       id="circle29" />
    <path
       style="stroke-width:0.54982752"
       inkscape:connector-curvature="0"
       d="m 15.91082,-47.085496 -17.9172258,8.319434 0.048915,0.06863 7.5194442,10.70568 c 7.1483026,1.481257 14.2971576,1.367986 21.0611426,-0.112852 l 8.262806,-11.583218 z"
       id="path31" />
    <polygon
       transform="matrix(0.54982754,0,0,0.54982754,-121.64887,-205.32421)"
       points="213.931,224.006 214.016,224.064 249.934,248.482 284.648,223.023 271.884,184.718 228.197,184.799 "
       id="polygon33" />
    <path
       style="stroke-width:0.54982752"
       inkscape:connector-curvature="0"
       d="m -28.773657,-53.385949 7.779511,0.999578 -0.102253,-21.751213 -13.023765,-13.246968 c -2.281237,11.865829 -0.215524,23.698656 5.184874,33.718189 0.04838,0.08349 0.09455,0.17004 0.14461,0.252392 z"
       id="path35" />
    <path
       style="stroke-width:0.54982752"
       inkscape:connector-curvature="0"
       d="m 53.442049,-53.062682 0.0676,0.0031 6.53305,0.20626 0.02249,-0.03431 c 0.18693,-0.284417 0.363985,-0.576765 0.542673,-0.867625 1.78089,-3.324251 3.230786,-6.889914 4.263918,-10.683148 1.580201,-5.800702 2.081649,-11.639873 1.639033,-17.308577 -0.0122,-0.163864 -0.02135,-0.327156 -0.03508,-0.490448 -0.18144,-2.070097 -0.502,-4.112708 -0.930868,-6.12453 l -12.30348,15.632142 z"
       id="path37" />
    <path
       style="stroke-width:0.54982752"
       inkscape:connector-curvature="0"
       d="m -25.99098,-106.71209 19.2588055,-8.89456 12.168241,-11.9461 -0.2287157,0.0434 c -0.00101,0 -0.00202,0 -0.00419,5.5e-4 -0.3656249,0.0726 -0.7290653,0.15174 -1.0914075,0.23314 -11.9142099,2.83216 -22.5522703,9.91889 -29.7412643,20.00767 -0.07751,0.11934 -0.158908,0.23753 -0.234244,0.35629 z"
       id="path39" />
    <path
       style="stroke-width:0.54982752"
       inkscape:connector-curvature="0"
       d="m 37.566886,-116.21146 20.090689,9.54775 c -6.578683,-9.5461 -16.429937,-16.91049 -28.489307,-20.18856 -0.613605,-0.16768 -1.22941,-0.30955 -1.844118,-0.45251 l 0.134164,0.14515 z"
       id="path41" />
    <polygon
       transform="matrix(0.54982754,0,0,0.54982754,-121.64887,-205.32421)"
       style="fill:#666666"
       points="182.88,238.73 214.075,224.104 214.016,224.064 213.931,224.006 213.982,223.866 182.781,238.495 182.88,238.596 "
       id="polygon43" />
    <polygon
       transform="matrix(0.54982754,0,0,0.54982754,-121.64887,-205.32421)"
       style="fill:#666666"
       points="249.804,248.394 250.064,287.854 250.187,287.797 250.318,287.849 250.06,248.391 249.934,248.482 "
       id="polygon45" />
    <polygon
       transform="matrix(0.54982754,0,0,0.54982754,-121.64887,-205.32421)"
       style="fill:#666666"
       points="217.6,302.928 217.807,302.833 183.064,277.945 183.065,278.156 182.891,278.134 217.698,303.068 217.688,303.054 "
       id="polygon47" />
    <polygon
       transform="matrix(0.54982754,0,0,0.54982754,-121.64887,-205.32421)"
       style="fill:#666666"
       points="318.447,276.926 318.446,276.741 284.483,301.169 284.698,301.253 284.591,301.404 318.615,276.933 318.57,276.931 "
       id="polygon49" />
    <polygon
       transform="matrix(0.54982754,0,0,0.54982754,-121.64887,-205.32421)"
       style="fill:#666666"
       points="318.084,241.28 318.082,241.158 318.177,241.038 284.603,222.887 284.648,223.023 284.508,223.126 "
       id="polygon51" />
    <polygon
       transform="matrix(0.54982754,0,0,0.54982754,-121.64887,-205.32421)"
       style="fill:#666666"
       points="289.713,162.14 289.574,162.074 289.501,161.995 271.731,184.718 271.884,184.718 271.935,184.874 "
       id="polygon53" />
    <polygon
       transform="matrix(0.54982754,0,0,0.54982754,-121.64887,-205.32421)"
       style="fill:#666666"
       points="209.122,163.059 209.005,163.173 208.917,163.214 228.141,184.956 228.197,184.799 228.343,184.799 "
       id="polygon55" />
    <polygon
       transform="matrix(0.54982754,0,0,0.54982754,-121.64887,-205.32421)"
       style="clip-rule:evenodd;fill-rule:evenodd"
       points="83.454,159.112 59.385,159.396 72.924,173.802 64.707,187.427 26.476,145.854 61.403,145.025 46.067,113.371 100.517,127.976 91.859,142.369 72.888,137.185 "
       id="polygon57" />
    <polygon
       transform="matrix(0.54982754,0,0,0.54982754,-121.64887,-205.32421)"
       style="clip-rule:evenodd;fill-rule:evenodd"
       points="183.367,42.152 143.263,31.417 161.609,82.502 176.798,76.939 169.277,55.841 209.855,67.349 191.182,16.404 176.357,21.535 "
       id="polygon59" />
    <path
       inkscape:connector-curvature="0"
       style="clip-rule:evenodd;fill-rule:evenodd;stroke-width:0.54982752"
       d="m 12.215984,-200.15913 -15.8157862,30.46595 9.7638359,-0.30901 1.3316791,-3.64591 11.2560772,-0.53663 1.654981,3.27697 9.888091,-0.4866 z m -2.199305,19.74046 2.503361,-5.41305 2.964123,5.36247 z"
       id="path61" />
    <path
       inkscape:connector-curvature="0"
       style="clip-rule:evenodd;fill-rule:evenodd;stroke-width:0.54982752"
       d="m 82.946347,-146.75493 6.412638,7.35614 3.672845,-1.2778 7.54638,8.38213 -1.496069,3.34515 6.639159,7.35779 10.81346,-32.21825 z m 20.173173,8.58171 -3.467767,-4.22268 5.788037,-1.43779 z"
       id="path63" />
    <path
       inkscape:connector-curvature="0"
       style="clip-rule:evenodd;fill-rule:evenodd;stroke-width:0.54982752"
       d="m 56.316002,-192.1058 c 0,0 -3.290171,-2.02392 -10.006308,-3.61402 l -4.760966,-1.22666 -8.130289,27.66457 8.636133,2.56274 3.046044,-10.68589 3.652513,12.52177 10.186649,2.93388 -4.90226,-14.58857 c 0,0 5.972222,-0.6532 7.118614,-6.51381 1.130445,-5.86007 -4.84013,-9.05401 -4.84013,-9.05401 z m -4.458001,8.00494 c 0,0 -0.564126,3.71188 -5.207421,1.7589 l 1.656635,-5.54117 c 0,0 4.439861,0.41017 3.550786,3.78227 z"
       id="path65" />
    <path
       inkscape:connector-curvature="0"
       style="clip-rule:evenodd;fill-rule:evenodd;stroke-width:0.54982752"
       d="m 91.13548,-164.14817 c -0.02021,-0.0627 -0.04175,-0.13855 -0.06104,-0.20565 -1.694575,-6.32027 -7.445218,-7.70309 -7.445218,-7.70309 -4.759307,-1.14969 -7.258828,2.44069 -7.258828,2.44069 -4.478345,5.65387 -0.750511,9.60108 -0.750511,9.60108 4.40302,5.9101 12.107754,4.20179 12.107754,4.20179 l -5.388865,7.00645 c -6.128918,-0.53387 -9.619766,-3.35613 -9.619766,-3.35613 -9.483983,-6.72384 -7.466107,-15.09607 -7.466107,-15.09607 2.278484,-12.80438 13.110638,-13.2305 13.110638,-13.2305 11.097715,-1.14969 18.07942,9.66212 18.07942,9.66212 l -5.306933,6.709"
       id="path67" />
    <path
       inkscape:connector-curvature="0"
       style="clip-rule:evenodd;fill-rule:evenodd;stroke-width:0.54982752"
       d="m 138.94848,-114.09902 c 0,0 0,-13.49057 -10.33126,-15.50734 0,0 -6.14817,-0.88797 -8.57017,5.71601 0,0 -0.64713,1.28989 -0.447,7.98129 0,0 0.54323,6.46213 -3.12467,4.11162 0,0 -2.88824,-2.61883 -2.52426,-11.6503 l -7.30115,4.6103 c 0,0 0.28205,9.12879 7.20383,14.77057 0,0 8.16879,5.019376 12.70707,-3.15271 0,0 1.17168,-1.87821 1.20796,-8.91436 0,0 -0.12097,-2.84865 0.1864,-3.69484 0,0 0.10172,-1.62859 1.75175,-1.1112 0,0 1.37292,-0.13691 2.25924,5.45539 0,0 0.26447,1.82818 0.12097,4.65264 z"
       id="path69" />
    <path
       inkscape:connector-curvature="0"
       style="clip-rule:evenodd;fill-rule:evenodd;stroke-width:0.54982752"
       d="m -46.10642,-169.1417 c -5.044667,-6.85911 -15.1912,-7.96151 -22.655629,-2.48688 -7.464467,5.48673 -9.423515,15.49305 -4.377205,22.35214 5.042497,6.8591 15.169202,7.98295 22.634763,2.49622 7.46391,-5.49443 9.441091,-15.50184 4.398071,-22.36148 z m -9.060063,16.32767 c -3.306675,2.42804 -8.008787,1.60165 -10.528625,-1.83532 -2.541875,-3.44357 -1.916157,-8.19133 1.370159,-10.61168 3.308848,-2.42033 8.02968,-1.60604 10.551729,1.84303 2.522614,3.43697 1.89526,8.18913 -1.393263,10.60397 z"
       id="path71" />
    <polygon
       transform="matrix(0.54982754,0,0,0.54982754,-121.64887,-205.32421)"
       points="159.3,668.688 162.874,668.688 165.903,649.658 176.657,668.688 177.864,668.688 178.178,668.688 189.036,649.785 192.018,668.688 196.289,668.688 191.504,639.702 190.543,639.702 190.224,639.702 177.473,662.054 164.82,639.702 163.94,639.702 163.477,639.702 158.654,668.688 "
       id="polygon73" />
    <path
       style="stroke-width:0.54982752"
       inkscape:connector-curvature="0"
       d="m 4.0647939,148.42383 c -1.8655677,-1.59453 -4.1797904,-2.39891 -6.9074857,-2.3967 -1.6934647,0 -3.279175,0.36906 -4.7373093,1.09745 -1.4570476,0.73895 -2.6259839,1.75832 -3.4710689,3.06309 -0.857175,1.29925 -1.278345,2.72659 -1.277247,4.25292 -0.0042,2.29222 0.949004,4.27049 2.8035727,5.86887 1.8518196,1.60547 4.1495491,2.40492 6.8233576,2.40382 0.00202,0 0.00496,0 0.00724,0 2.64412002,0 4.9094122,-0.80495 6.7612281,-2.41099 1.8551251,-1.60166 2.8074274,-3.61126 2.8035729,-5.93155 0.00303,-2.34884 -0.9490044,-4.35738 -2.8052162,-5.94691 z m 0.3623461,5.93593 c 0,1.17278 -0.3106477,2.2191 -0.9319661,3.16149 -0.6185504,0.95669 -1.4801327,1.70502 -2.60068345,2.25815 -1.11999412,0.55312 -2.33566075,0.82858 -3.66295155,0.82858 -1.9909211,-0.002 -3.6497563,-0.59545 -5.0507135,-1.80067 -1.3954634,-1.20634 -2.0657007,-2.63311 -2.0701004,-4.36947 0.00202,-1.17663 0.3106477,-2.22627 0.9336093,-3.17308 0.6279026,-0.95779 1.4905791,-1.71104 2.6133259,-2.27957 1.129903,-0.56579 2.3169792,-0.85333 3.5733335,-0.85333 1.2865993,0.002 2.4830163,0.28709 3.63490633,0.85443 1.14034177,0.5696 2.01292337,1.31629 2.62872867,2.25045 0.623503,0.93251 0.9325113,1.97002 0.9325113,3.12302 z"
       id="path75" />
    <path
       style="stroke-width:0.54982752"
       inkscape:connector-curvature="0"
       d="m 18.20251,154.70506 c 0.886864,-0.34084 1.595596,-0.85554 2.095386,-1.54008 0.492651,-0.68508 0.743373,-1.49224 0.741719,-2.37748 0.003,-1.07102 -0.361775,-2.00411 -1.081514,-2.74142 -0.698279,-0.73293 -1.623638,-1.20798 -2.724386,-1.42846 -0.74777,-0.14449 -2.081649,-0.21617 -4.059375,-0.21617 H 9.3414857 v 0.30119 15.63598 h 2.3642583 v -7.12302 h 0.508044 l 6.343908,7.12302 h 3.043849 l -6.360406,-7.13674 c 1.205224,-0.0465 2.189956,-0.2055 2.961371,-0.49704 z m -1.211819,-1.84524 c -0.510796,0.17767 -1.359725,0.27527 -2.533061,0.27527 l -2.754085,-0.0229 10e-4,-4.60699 h 2.829414 c 1.200817,-0.002 2.053608,0.0972 2.517658,0.25697 0.463505,0.16547 0.839584,0.42777 1.119449,0.79778 0.284264,0.37516 0.426115,0.77361 0.427769,1.21895 -0.002,0.46517 -0.136909,0.87095 -0.41897,1.25197 -0.277669,0.37554 -0.668041,0.64772 -1.189276,0.82916 z"
       id="path77" />
    <polygon
       transform="matrix(0.54982754,0,0,0.54982754,-121.64887,-205.32421)"
       points="283.484,651.163 268.479,651.163 268.479,643.524 283.618,643.528 283.618,639.702 264.178,639.702 264.178,640.25 264.178,668.688 283.484,668.688 283.484,664.864 268.481,664.864 268.481,654.978 283.484,654.978 "
       id="polygon79" />
    <polygon
       transform="matrix(0.54982754,0,0,0.54982754,-121.64887,-205.32421)"
       points="291.321,639.702 287.019,639.702 287.019,640.25 287.019,668.688 303.735,668.688 303.735,664.864 291.321,664.864 "
       id="polygon81" />
    <polygon
       transform="matrix(0.54982754,0,0,0.54982754,-121.64887,-205.32421)"
       points="310.499,668.688 310.499,639.702 306.198,639.702 306.198,640.25 306.198,668.688 "
       id="polygon83" />
    <path
       style="stroke-width:0.54982752"
       inkscape:connector-curvature="0"
       d="m 59.643009,146.40153 h -0.178695 -0.448655 -0.1798 l -8.690565,15.93732 h 2.63587 l 2.738138,-5.02431 h 7.351199 l 2.717245,5.02431 h 2.628176 z m 2.087147,8.80717 h -5.058411 l 2.538001,-4.65376 z"
       id="path85" />
    <polygon
       transform="matrix(0.54982754,0,0,0.54982754,-121.64887,-205.32421)"
       style="fill:#e22227"
       points="230.519,107.211 240.261,116.707 237.961,130.116 250.002,123.785 262.045,130.116 259.744,116.707 269.485,107.211 256.023,105.255 250.002,93.056 243.981,105.255 "
       id="polygon87" />
  </g>
</svg>
