<?xml version="1.0" encoding="utf-8"?>
<!-- Generator: Adobe Illustrator 13.0.0, SVG Export Plug-In . SVG Version: 6.00 Build 14948)  -->
<!DOCTYPE svg PUBLIC "-//W3C//DTD SVG 1.1//EN" "http://www.w3.org/Graphics/SVG/1.1/DTD/svg11.dtd">
<svg version="1.1" id="Ebene_1" xmlns="http://www.w3.org/2000/svg" xmlns:xlink="http://www.w3.org/1999/xlink" x="0px" y="0px"
	 width="279.636px" height="307.721px" viewBox="0 0 279.636 307.721" enable-background="new 0 0 279.636 307.721"
	 xml:space="preserve">
<g>
	<path fill-rule="evenodd" clip-rule="evenodd" d="M150.646,98.219c0,0-4.156,1.313-5.688,1.094c0,0,0.875-2.188,3.063-2.844
		c0,0-2.987-0.091-6.39-0.107c-0.021-1.856,0.921-3.393,0.921-3.393c-2.334,0.275-4.064,2.1-5.03,3.422
		c-2.606,0.057-4.842,0.201-5.47,0.515c-1.75,0.875-7,4.594-9.625,1.75c0,0-1.531,1.094-0.875,2.625
		c0.656,1.531,2.406,4.594,2.406,4.594s3.281-0.875,4.594,0.219c0,0,0.22,0.223,0.464,0.603c-0.749-0.066-1.483-0.021-1.996,0.272
		c-1.532,0.875-4.813,1.094-5.469-0.438c-0.656-1.531-0.656-3.719-3.063-3.719c-2.406,0-3.5,3.5-3.5,3.5s1.969-1.75,3.5-0.875
		c1.531,0.875,1.313,2.625,2.844,3.281c1.096,0.47,2.747,1.167,3.359,2.326c-0.216,0.15-0.394,0.321-0.515,0.518
		c-0.834,1.355-0.671,2.805-0.3,3.885c-0.422,0.01-0.799,0.026-1.085,0.052c-1.604,0.146-4.667,2.625-6.271,3.938
		s-6.271,2.479-6.271,2.479c0.729,0.438,3.063,0.438,3.063,0.438s-1.312,3.208-3.208,4.667c0,0,6.125-1.604,8.167,0.146
		c0,0-2.479,3.354-2.479,5.542c0,0,4.375-3.646,7.729-3.063c0,0-1.458,6.417-1.021,8.021c0,0,3.646,0.583,7.438-3.792
		c0,0,0.292,2.917-2.042,4.958c0,0,7.583,1.167,9.187-9.333c0,0,3.354,0.729,4.229,4.375c0,0,3.792-2.188,3.792-5.542
		c0-3.354-4.083-4.083-2.917-9.042c0,0,2.771,1.458,4.958-1.385c0,0-2.406-0.438-2.625-1.531v-6.563c0,0,3.938,0.219,5.031-3.719
		c0,0-3.5,0.438-3.719-1.969S150.208,102.156,150.646,98.219L150.646,98.219z M125.359,115.436c0.446-0.848,1.005-1.686,1.005-1.686
		c1.094,0,2.406,1.75,2.406,1.75S127.042,115.442,125.359,115.436l1.364-5.409c0,0,1.438-2.458,2.829-0.927
		c0,0,0.371,0.602,0.139,1.159c0,0-2.041-0.835-2.968-0.232L125.359,115.436L125.359,115.436z"/>
	<path fill-rule="evenodd" clip-rule="evenodd" d="M155.453,276.331c-0.366-6.602-1.865-11.369-3.599-14.76l-5.391,2.818
		c1.329,2.641,2.557,6.563,2.874,12.281c0.534,9.615-7.181,18.438-12.028,22.992v8.059
		C139.29,306.233,156.374,292.899,155.453,276.331L155.453,276.331z"/>
	<path fill-rule="evenodd" clip-rule="evenodd" d="M251.927,210.364v30.99c0,0-2.916-7.656-23.697-7.656
		c-32.084,0-56.146,16.406-89.896,33.541c-36.523,18.545-61.407,23.809-86.928,23.809c-20.052,0-24.792-14.328-24.792-14.328
		v-39.012c0,0,5.834,14.584,24.792,14.584c25.521,0,49.583-10.93,88.063-30.848c36.393-18.836,63.604-26.393,82.927-26.393
		C247.917,195.051,251.927,210.364,251.927,210.364L251.927,210.364z"/>
	<path fill-rule="evenodd" clip-rule="evenodd" d="M226.406,238.932v16.043c0,0,21.511,2.057,21.511-8.881
		C247.917,237.708,226.406,238.932,226.406,238.932L226.406,238.932z"/>
	<path fill-rule="evenodd" clip-rule="evenodd" d="M228.594,259.583c0,0,25.886,13.49,46.302-8.02l-12.031-1.824l16.771-17.863
		c0,0-11.667,5.104-21.875,5.104C257.761,236.979,261.77,261.407,228.594,259.583L228.594,259.583z"/>
	<path fill-rule="evenodd" clip-rule="evenodd" d="M53.594,247.551v-13.125c0,0-21.146-6.563-21.146,1.459
		C32.448,245.729,53.594,247.551,53.594,247.551L53.594,247.551z"/>
	<path fill-rule="evenodd" clip-rule="evenodd" d="M2.552,236.25l12.031-5.834L0,212.551c0,0,14.583,9.115,21.511,9.48
		c6.927,0.363,28.072-1.459,30.625,7.291c0,0-22.239-2.918-26.979,1.094c-4.739,4.01-3.281,14.219-3.281,14.219
		S11.667,235.157,2.552,236.25L2.552,236.25z"/>
	<path fill-rule="evenodd" clip-rule="evenodd" fill="#FFFFFF" d="M59.625,263.754c0.007,0.475,0.022,1.598,0.028,2.072
		c0.461-0.006,1.812-0.023,1.812-0.023l-1.816,13.225c0,0-3.289-14.664-3.415-15.229c-0.49,0.008-3.49,0.049-3.989,0.055
		c-0.102,0.58-2.654,15.152-2.654,15.152L46.779,266c0,0,1.218-0.018,1.651-0.023c-0.007-0.475-0.021-1.598-0.028-2.072
		c-0.647,0.008-6.919,0.094-7.566,0.102c0.006,0.477,0.021,1.598,0.028,2.072c0.424-0.006,1.436-0.02,1.436-0.02
		s3.859,15.033,4,15.578c0.495-0.006,4.452-0.059,4.968-0.066c0.104-0.57,2.361-12.912,2.361-12.912s2.5,12.273,2.616,12.846
		c0.52-0.006,4.479-0.061,4.985-0.066c0.115-0.566,3.162-15.676,3.162-15.676s1.063-0.014,1.496-0.02
		c-0.006-0.475-0.021-1.598-0.027-2.072C65.229,263.678,60.255,263.747,59.625,263.754L59.625,263.754z"/>
	<path fill-rule="evenodd" clip-rule="evenodd" fill="#FFFFFF" d="M91.921,257.5c0.12,0.402,0.661,2.201,0.661,2.201l-0.924-0.725
		c-1.21-0.947-2.363-1.113-4.116-0.586c-1.418,0.426-2.481,1.232-3.074,2.334c-0.624,1.158-0.706,2.596-0.238,4.154
		c0.812,2.701,2.375,3.34,5.162,3.627l2.219,0.176c2.285,0.146,3.794,0.242,4.251,1.764c0.378,1.26-0.285,2.381-1.651,2.793
		c-1.935,0.58-3.56-0.291-4.139-2.219l-0.091-0.398c-0.003-0.012-0.032-0.141-0.062-0.281c-0.574,0.174-2.878,0.865-3.414,1.025
		c0.178,0.594,1.455,4.842,1.633,5.438c0.537-0.162,2.854-0.859,3.392-1.02c-0.118-0.395-0.562-1.873-0.562-1.873l0.781,0.406
		c1.498,0.777,3.104,0.893,4.91,0.35c3.257-0.979,4.571-3.385,3.605-6.602c-0.841-2.801-2.738-3.432-6.171-3.666l-1.613-0.078
		c-2.051-0.078-3.532-0.135-4.001-1.699c-0.151-0.5-0.098-1.027,0.149-1.486c0.276-0.514,0.765-0.898,1.378-1.082
		c1.473-0.443,2.912,0.316,3.348,1.768c0,0,0.08,0.52,0.143,0.92c0.603-0.182,2.883-0.867,3.416-1.025
		c-0.177-0.59-1.397-4.652-1.575-5.242C94.799,256.635,92.459,257.338,91.921,257.5L91.921,257.5z"/>
	<path fill-rule="evenodd" clip-rule="evenodd" fill="#FFFFFF" d="M98.14,255.516c0.239,0.59,2.257,5.564,2.496,6.154
		c0.501-0.203,2.346-0.953,2.847-1.156c-0.236-0.582-1.717-4.232-1.717-4.232l1.973-0.801l4.982,12.283c0,0-1.735,0.703-2.228,0.904
		c0.179,0.439,0.601,1.479,0.78,1.92c0.617-0.25,8.332-3.381,8.95-3.631c-0.18-0.441-0.601-1.48-0.78-1.922
		c-0.494,0.201-2.252,0.914-2.252,0.914l-4.983-12.281l1.973-0.801c0,0,1.482,3.652,1.718,4.234c0.5-0.205,2.345-0.953,2.846-1.156
		c-0.238-0.588-2.258-5.564-2.497-6.152C111.605,250.053,98.781,255.256,98.14,255.516L98.14,255.516z"/>
	<path fill-rule="evenodd" clip-rule="evenodd" fill="#FFFFFF" d="M120.497,245.971c0.22,0.422,0.74,1.416,0.96,1.836
		c0.402-0.209,1.506-0.787,1.506-0.787l6.139,11.748c0,0-1.103,0.576-1.505,0.787c0.22,0.42,0.739,1.416,0.96,1.836
		c0.613-0.32,12.602-6.586,13.214-6.906c-0.288-0.555-2.479-4.746-2.769-5.299c-0.501,0.26-2.709,1.414-3.209,1.676
		c0.282,0.539,1.81,3.463,1.81,3.463l-4.018,2.1l-6.139-11.746c0,0,1.203-0.629,1.621-0.848c-0.22-0.422-0.74-1.416-0.96-1.836
		C127.524,242.299,121.08,245.667,120.497,245.971L120.497,245.971z"/>
	<path fill-rule="evenodd" clip-rule="evenodd" fill="#FFFFFF" d="M142.832,233.838c-3.283,1.744-4.894,3.863-4.894,6.588
		c0,1.59,0.55,3.387,1.637,5.436c1.53,2.883,3.248,4.582,5.251,5.197c1.88,0.576,4.028,0.199,6.567-1.148
		c2.52-1.336,4.024-2.9,4.602-4.779c0.616-2.01,0.172-4.385-1.356-7.266c-1.521-2.867-3.234-4.561-5.232-5.174
		C147.523,232.116,145.373,232.491,142.832,233.838L142.832,233.838z M146.845,247.833l-0.002-0.002
		c-0.436-0.408-0.906-1.219-1.676-2.668l-1.879-3.541c-0.761-1.432-1.165-2.268-1.258-2.859c-0.212-1.451,0.364-2.547,1.714-3.262
		c1.352-0.719,2.542-0.582,3.637,0.418c0.503,0.482,1.156,1.631,2.344,3.867l1.226,2.309c0.766,1.443,1.268,2.459,1.279,3.393
		c0.028,1.201-0.552,2.129-1.725,2.752C149.156,248.954,147.925,248.819,146.845,247.833L146.845,247.833z"/>
	<path fill-rule="evenodd" clip-rule="evenodd" fill="#FFFFFF" d="M152.747,228.999c0.285,0.568,2.696,5.367,2.982,5.934
		c0.483-0.242,2.262-1.137,2.744-1.379c-0.282-0.563-2.052-4.082-2.052-4.082l1.902-0.957l5.955,11.842c0,0-1.674,0.842-2.148,1.08
		c0.213,0.426,0.717,1.428,0.931,1.852c0.596-0.299,8.034-4.039,8.629-4.338c-0.214-0.424-0.718-1.426-0.931-1.852
		c-0.477,0.24-2.172,1.092-2.172,1.092l-5.954-11.842l1.901-0.957c0,0,1.77,3.52,2.052,4.08c0.483-0.242,2.262-1.135,2.745-1.379
		c-0.286-0.568-2.697-5.363-2.982-5.932C165.73,222.471,153.365,228.688,152.747,228.999L152.747,228.999z"/>
	<path fill-rule="evenodd" clip-rule="evenodd" fill="#FFFFFF" d="M178.62,216.823c0.181,0.439,0.606,1.479,0.787,1.918
		c0.42-0.174,1.571-0.646,1.571-0.646l1.979,4.82l-4.991,2.051l-1.979-4.82c0,0,1.151-0.473,1.571-0.645
		c-0.18-0.441-0.606-1.479-0.787-1.918c-0.605,0.248-7.047,2.895-7.652,3.143c0.18,0.439,0.606,1.479,0.787,1.918
		c0.42-0.172,1.571-0.645,1.571-0.645l5.036,12.258c0,0-1.151,0.475-1.571,0.646c0.181,0.439,0.606,1.477,0.787,1.916
		c0.605-0.248,7.047-2.893,7.652-3.143c-0.18-0.439-0.606-1.477-0.787-1.916c-0.42,0.172-1.571,0.645-1.571,0.645l-2.182-5.313
		l4.99-2.051l2.183,5.313c0,0-1.151,0.475-1.571,0.646c0.181,0.439,0.606,1.477,0.787,1.916c0.605-0.248,7.047-2.893,7.652-3.143
		c-0.18-0.439-0.606-1.477-0.786-1.916c-0.421,0.172-1.572,0.645-1.572,0.645l-5.036-12.26c0,0,1.152-0.473,1.571-0.646
		c-0.18-0.439-0.606-1.477-0.787-1.916C185.667,213.928,179.226,216.575,178.62,216.823L178.62,216.823z"/>
	<path fill-rule="evenodd" clip-rule="evenodd" fill="#FFFFFF" d="M189.757,212.7c0.133,0.455,0.446,1.533,0.58,1.988
		c0.436-0.127,1.63-0.475,1.63-0.475l3.712,12.723c0,0-1.195,0.35-1.631,0.477c0.134,0.457,0.447,1.533,0.58,1.99
		c0.628-0.184,7.313-2.135,7.941-2.318c-0.133-0.455-0.446-1.531-0.58-1.988c-0.436,0.127-1.631,0.477-1.631,0.477l-3.711-12.725
		c0,0,1.195-0.35,1.631-0.475c-0.133-0.457-0.446-1.535-0.58-1.99C197.07,210.565,190.385,212.516,189.757,212.7L189.757,212.7z"/>
	<path fill-rule="evenodd" clip-rule="evenodd" fill="#FFFFFF" d="M205.937,208.571c-0.055,0.545-1.606,15.805-1.606,15.805
		s-1.013,0.168-1.435,0.238c0.077,0.469,0.262,1.576,0.34,2.045c0.62-0.104,5.504-0.916,6.124-1.02
		c-0.078-0.469-0.262-1.576-0.341-2.045c-0.432,0.072-1.661,0.277-1.661,0.277l0.182-3.564l4.349-0.723l1.393,3.301
		c0,0-1.134,0.188-1.543,0.256c0.079,0.469,0.263,1.576,0.341,2.045c0.641-0.107,6.953-1.158,7.594-1.266
		c-0.078-0.467-0.263-1.574-0.341-2.043c-0.397,0.066-1.306,0.217-1.306,0.217s-6.338-13.943-6.566-14.443
		C210.971,207.731,206.422,208.489,205.937,208.571L205.937,208.571z M207.655,218.213l0.521-8.072l3.151,7.924l-3.701,0.617
		L207.655,218.213L207.655,218.213z"/>
	<path fill-rule="evenodd" clip-rule="evenodd" fill="#FFFFFF" d="M220.433,208.487c0.454,0.006,1.699,0.018,1.699,0.018
		l-0.14,13.256c0,0-1.245-0.014-1.698-0.02c-0.006,0.477-0.017,1.598-0.021,2.072c0.63,0.008,5.63,0.059,6.26,0.066
		c0.005-0.477,0.017-1.598,0.021-2.072c-0.454-0.006-1.699-0.018-1.699-0.018l0.106-10.104c0,0,7.043,11.902,7.249,12.252
		c0.354,0.004,3.649,0.039,4.253,0.045c0.008-0.709,0.161-15.326,0.161-15.326s1.245,0.014,1.698,0.02
		c0.006-0.477,0.017-1.6,0.021-2.074c-0.63-0.006-5.655-0.059-6.285-0.066c-0.006,0.477-0.018,1.6-0.022,2.074
		c0.454,0.004,1.698,0.018,1.698,0.018l-0.1,9.582c0,0-6.657-11.377-6.863-11.729c-0.374-0.004-5.673-0.059-6.317-0.066
		C220.449,206.891,220.438,208.012,220.433,208.487L220.433,208.487z"/>
	<path fill-rule="evenodd" clip-rule="evenodd" fill="#FFFFFF" d="M83.798,272.081c-0.561,0.098-3.111,0.537-3.671,0.635
		c0.103,0.6,0.66,3.824,0.66,3.824l-4.365,0.754l-0.968-5.609c0,0,0.986-0.17,1.81-0.313l0.236,1.27l3.005-0.561l-0.901-4.814
		l-3,0.561l0.165,0.883c-0.816,0.141-1.774,0.307-1.774,0.307l-0.825-4.785l3.927-0.676c0,0,0.465,2.697,0.565,3.275
		c0.561-0.098,3.111-0.537,3.671-0.633c-0.105-0.605-0.813-4.713-0.918-5.318c-0.68,0.117-13.474,2.324-14.153,2.441
		c0.081,0.467,0.271,1.574,0.352,2.043c0.459-0.08,1.752-0.303,1.752-0.303l2.253,13.061c0,0-1.293,0.223-1.751,0.303
		c0.081,0.469,0.272,1.574,0.352,2.043c0.682-0.119,13.911-2.4,14.592-2.518C84.703,277.334,83.903,272.698,83.798,272.081
		L83.798,272.081z"/>
	<path fill-rule="evenodd" clip-rule="evenodd" d="M139.18,216.694c-0.252-1.004-0.91-2.098-2.256-4.279
		c-0.981-1.592-3.232-5.246-3.402-6.541c0.051-0.152,0.102-0.305,0.102-0.305c0.838-2.475,1.127-3.57,1.127-8.256
		c0-3.711-1.486-12.09-2.368-16.736l-5.913,1.711c0.927,4.951,2.156,12.17,2.156,15.025c0,3.918-0.154,4.373-0.803,6.293
		l-0.207,0.613c-0.167,0.5-0.246,1.021-0.246,1.564c0,2.584,1.782,5.699,4.341,9.846c0.569,0.924,1.323,2.15,1.527,2.607
		c0.069,0.412,0.102,1.311,0.102,2.504c0,0.746-0.012,1.596-0.033,2.486c1.838-0.945,3.697-1.904,5.593-2.885
		c0.188-0.098,0.373-0.189,0.561-0.287C139.436,218.624,139.354,217.397,139.18,216.694L139.18,216.694z"/>
	<path fill-rule="evenodd" clip-rule="evenodd" d="M138.164,203.428c0,0-0.206-0.611-0.208-0.617
		c-0.583-1.723-0.673-1.988-0.673-5.498c0-1.109,0.223-3.068,0.556-5.363c8.32-6.557,13.225-15.855,13.225-15.855l6.344,6.563
		c5.469-3.5,8.75-16.188,8.75-16.188c1.094,1.75,5.031,4.813,5.031,4.813c4.594-4.813,6.344-22.532,6.344-22.532
		c3.063,1.531,7,1.094,7,1.094c2.406-12.25-4.813-28-4.813-28l7.438,0.438c-0.438-9.844-16.844-24.063-16.844-24.063l7.219-0.656
		c-2.844-5.25-16.406-12.469-16.406-12.469v-5.25l6.563-0.656l-2.406-10.5l12.25-1.094l1.75,7.438l4.594-3.938
		c5.031,9.406,7,25.375,7,25.375l6.344-3.5c4.156,11.594,4.156,27.125,4.156,27.125l7.438-3.063
		c-1.313,33.906-10.719,38.938-10.719,38.938l8.75,0.219c-6.344,13.344-18.375,21.656-18.375,21.656l6.344,1.313
		c-9.625,13.781-25.813,18.813-25.813,18.813l7.219,4.156c-14.771,8.014-30.218,5.078-37.749,2.789
		C138.413,204.407,138.323,203.907,138.164,203.428L138.164,203.428z"/>
	<path fill-rule="evenodd" clip-rule="evenodd" d="M125.265,203.428c0,0,0.206-0.611,0.207-0.617
		c0.583-1.723,0.673-1.988,0.673-5.498c0-1.109-0.222-3.068-0.555-5.363c-8.32-6.557-13.226-15.855-13.226-15.855l-6.344,6.563
		c-5.469-3.5-8.75-16.188-8.75-16.188c-1.094,1.75-5.031,4.813-5.031,4.813c-4.594-4.813-6.344-22.532-6.344-22.532
		c-3.062,1.531-7,1.094-7,1.094c-2.406-12.25,4.813-28,4.813-28l-7.437,0.438c0.437-9.844,16.844-24.063,16.844-24.063l-7.219-0.656
		c2.844-5.25,16.407-12.469,16.407-12.469v-5.25l-6.563-0.656l2.407-10.5l-12.25-1.094l-1.75,7.438l-4.593-3.938
		c-5.032,9.406-7,25.375-7,25.375l-6.344-3.5c-4.157,11.594-4.157,27.125-4.157,27.125l-7.437-3.063
		c1.312,33.906,10.718,38.938,10.718,38.938l-8.75,0.219c6.344,13.344,18.375,21.656,18.375,21.656l-6.344,1.313
		c9.625,13.781,25.813,18.813,25.813,18.813l-7.219,4.156c14.771,8.014,30.218,5.078,37.749,2.789
		C125.015,204.407,125.105,203.907,125.265,203.428L125.265,203.428z"/>
	<path fill-rule="evenodd" clip-rule="evenodd" d="M195.183,56.51V74.74c0,0,13.724-1.094,13.724-10.573
		C208.906,57.24,195.183,56.51,195.183,56.51L195.183,56.51z"/>
	<path fill-rule="evenodd" clip-rule="evenodd" d="M197.239,80.573c0,0,16.405-4.01,19.323-14.948
		c2.917-10.938,0.729-14.219,0.729-14.219s5.103,0.365,9.114-0.729c4.011-1.094,13.125-3.646,18.958-2.188
		c0,0-12.76,7.656-18.594,15.677l17.136,2.552c0,0-8.75,3.281-13.125,5.469S212.552,84.583,197.239,80.573L197.239,80.573z"/>
	<path fill-rule="evenodd" clip-rule="evenodd" d="M63.438,35V19.688c0,0-16.042,4.01-16.042,11.667S63.438,35,63.438,35L63.438,35z
		"/>
	<path fill-rule="evenodd" clip-rule="evenodd" d="M62.344,16.406c0,0-16.771,2.552-20.417,8.385
		c-3.646,5.833-4.01,17.865-4.01,17.865s-21.511,1.094-26.25-5.469c0,0,13.854,0.729,16.771-6.927c0,0-2.552-2.917-5.833-3.646
		c-3.281-0.729-10.208-4.375-12.761-10.208c0,0,3.646,1.094,14.219,1.094C34.636,17.5,53.959,8.021,62.344,16.406L62.344,16.406z"/>
	<path fill-rule="evenodd" clip-rule="evenodd" d="M200.886,25.885c-5.766-0.887-15.857-1.636-31.549-0.978l4.059-11.783
		c0,0-2.257-1.912-6.498-4.275l-4.424,16.417c-0.548,0.034-1.103,0.07-1.66,0.107l4.659-17.293c-1.535-0.805-3.283-1.64-5.237-2.457
		l-4.275,20.105c-0.545,0.043-1.085,0.085-1.639,0.131l4.431-20.836c-1.66-0.651-3.449-1.279-5.368-1.859l-3.636,23.101
		c-0.538,0.05-1.073,0.1-1.619,0.152l3.73-23.694c-1.594-0.444-3.267-0.852-5.02-1.208l-2.912,25.33
		c-0.533,0.056-1.063,0.111-1.604,0.17l2.966-25.804c-1.782-0.324-3.648-0.586-5.582-0.789l-1.761,27.088
		c-0.525,0.062-1.057,0.125-1.589,0.189l1.783-27.426C136.067,0.101,133.92,0,131.688,0c-2.178,0-4.274,0.098-6.301,0.264
		l1.86,28.607c-0.522,0.072-1.044,0.144-1.563,0.217l-1.865-28.68c-1.934,0.198-3.799,0.459-5.583,0.779l3.276,28.504
		c-0.522,0.078-1.039,0.157-1.558,0.236l-3.27-28.44c-1.753,0.353-3.428,0.756-5.022,1.196l4.384,27.851
		c-0.521,0.082-1.038,0.166-1.555,0.249l-4.354-27.663c-1.921,0.576-3.71,1.201-5.374,1.849l5.635,26.49
		c-0.52,0.087-1.04,0.174-1.555,0.262l-5.563-26.156c-1.952,0.813-3.703,1.644-5.244,2.446l6.587,24.444
		c-0.52,0.091-1.042,0.183-1.557,0.275L96.609,8.777c-4.325,2.396-6.63,4.348-6.63,4.348l7.126,20.691
		c-19.61,3.632-34.947,7.017-43.512,7.017c-8.021,0-10.573-6.198-10.573-6.198v26.979c0,0,0.365,5.833,15.313,5.833
		c9.45,0,30.025-3.937,47.829-7.339l10.942,31.766h1.897l-8.769-32.543c0.522-0.099,1.037-0.197,1.552-0.295l8.849,32.838h1.002
		l-7.095-33.359c0.52-0.098,1.039-0.195,1.548-0.291l7.157,33.649h0.86l-5.374-34.139c0.521-0.096,1.043-0.192,1.55-0.284
		l5.418,34.422h1.372l-4.014-34.917c0.525-0.092,1.05-0.184,1.554-0.271l4.045,35.188h1.107l-2.318-35.657
		c0.538-0.086,1.059-0.167,1.562-0.244l2.335,35.901h0.839l2.383-36.654c0.531-0.069,1.061-0.138,1.591-0.208l-2.397,36.862h1.107
		l4.281-37.249c0.533-0.068,1.069-0.137,1.609-0.204l-4.306,37.453h1.373l5.954-37.824c0.535-0.063,1.077-0.126,1.623-0.19
		l-5.983,38.014h0.86l8.156-38.35c0.542-0.058,1.091-0.115,1.646-0.17l-8.192,38.52h1.002l10.465-38.833
		c0.549-0.05,1.105-0.099,1.671-0.147l-10.504,38.981h1.746l13.555-39.352c9.547-0.671,21.577-1.117,38.508-1.117
		c9.115,0,13.49,9.479,13.49,9.479V33.542C211.823,33.542,209.174,27.161,200.886,25.885L200.886,25.885z"/>
	<path fill-rule="evenodd" clip-rule="evenodd" fill="#FFFFFF" d="M52.068,48.768c0.374,0.008,1.279,0.029,1.279,0.029
		l-0.269,11.526c0,0-0.905-0.021-1.279-0.03c-0.01,0.437-0.028,1.247-0.039,1.684c0.675,0.016,10.371,0.241,11.046,0.257
		c0.015-0.606,0.104-4.444,0.117-5.052c-0.51-0.011-2.032-0.047-2.543-0.059c-0.013,0.588-0.078,3.368-0.078,3.368l-3.598-0.083
		l0.268-11.525c0,0,0.981,0.023,1.378,0.032c0.01-0.437,0.029-1.247,0.039-1.684c-0.629-0.015-5.652-0.131-6.283-0.146
		C52.097,47.521,52.079,48.331,52.068,48.768L52.068,48.768z"/>
	<path fill-rule="evenodd" clip-rule="evenodd" fill="#FFFFFF" d="M63.584,46.872c0.057,0.434,0.162,1.237,0.218,1.67
		c0.371-0.049,1.269-0.167,1.269-0.167l1.494,11.432c0,0-0.897,0.117-1.269,0.166c0.057,0.433,0.162,1.236,0.219,1.67
		c0.621-0.081,5.376-0.703,5.997-0.784c-0.057-0.434-0.162-1.237-0.219-1.67c-0.371,0.049-1.269,0.166-1.269,0.166l-1.494-11.43
		c0,0,0.897-0.118,1.269-0.167c-0.057-0.433-0.162-1.236-0.219-1.67C68.96,46.168,64.205,46.791,63.584,46.872L63.584,46.872z"/>
	<path fill-rule="evenodd" clip-rule="evenodd" fill="#FFFFFF" d="M77.824,44.759c0.071,0.432,0.204,1.23,0.275,1.662
		c0.374-0.063,1.368-0.227,1.368-0.227l-0.532,11.674l-4.219-10.888c0,0,0.836-0.138,1.153-0.19
		c-0.072-0.432-0.204-1.23-0.275-1.662c-0.61,0.102-4.929,0.817-5.54,0.917c0.071,0.431,0.204,1.23,0.275,1.661
		c0.31-0.051,0.974-0.161,0.974-0.161s5.073,12.26,5.289,12.782c0.475-0.078,3.434-0.568,3.905-0.646
		c0.04-0.562,0.965-13.818,0.965-13.818s0.729-0.12,1.068-0.177c-0.071-0.431-0.203-1.23-0.274-1.661
		C81.672,44.123,78.409,44.663,77.824,44.759L77.824,44.759z"/>
	<path fill-rule="evenodd" clip-rule="evenodd" fill="#FFFFFF" d="M82.803,43.897c0.078,0.43,0.223,1.227,0.301,1.657
		c0.368-0.067,1.259-0.229,1.259-0.229l2.061,11.342c0,0-0.891,0.162-1.26,0.229c0.079,0.43,0.224,1.227,0.302,1.657
		c0.616-0.112,5.335-0.969,5.951-1.081c-0.078-0.43-0.223-1.227-0.302-1.657c-0.368,0.067-1.259,0.229-1.259,0.229l-2.06-11.343
		c0,0,0.89-0.162,1.259-0.229c-0.078-0.431-0.224-1.228-0.301-1.657C88.137,42.928,83.419,43.785,82.803,43.897L82.803,43.897z"/>
	<path fill-rule="evenodd" clip-rule="evenodd" fill="#FFFFFF" d="M98.62,40.955c0.082,0.429,0.233,1.225,0.315,1.654
		c0.368-0.07,1.257-0.239,1.257-0.239l1.617,8.514c0,0-6.989-8.819-7.257-9.157c-0.375,0.071-3.919,0.744-4.52,0.858
		c0.082,0.43,0.232,1.226,0.314,1.655c0.368-0.07,1.257-0.239,1.257-0.239l2.151,11.326c0,0-0.89,0.169-1.258,0.239
		c0.082,0.429,0.232,1.225,0.314,1.654c0.583-0.111,3.869-0.735,4.453-0.846c-0.082-0.429-0.233-1.225-0.314-1.654
		c-0.368,0.07-1.257,0.239-1.257,0.239l-1.7-8.951c0,0,7.36,9.204,7.629,9.539c0.345-0.066,2.443-0.464,2.992-0.569
		c-0.131-0.69-2.465-12.98-2.465-12.98s0.889-0.168,1.257-0.238c-0.082-0.429-0.233-1.226-0.314-1.655
		C102.508,40.217,99.204,40.844,98.62,40.955L98.62,40.955z"/>
	<path fill-rule="evenodd" clip-rule="evenodd" fill="#FFFFFF" d="M113.667,38.095c0.056,0.298,0.295,1.568,0.295,1.568
		l-0.759-0.554c-0.996-0.727-2.075-0.915-3.608-0.626c-1.555,0.292-2.628,0.898-3.28,1.853c-0.942,1.379-1.092,3.561-0.47,6.866
		c1.021,5.42,2.861,7.363,6.353,6.706c1.877-0.353,3.006-1.165,3.45-2.481l0.583-1.731c0,0,0.198,2.571,0.233,3.031
		c0.561-0.105,2.2-0.414,2.709-0.51c-0.12-0.64-1.068-5.675-1.068-5.675s0.776-0.146,1.103-0.208
		c-0.085-0.45-0.264-1.399-0.348-1.848c-0.599,0.113-4.493,0.846-5.092,0.958c0.085,0.45,0.263,1.399,0.348,1.849
		c0.363-0.068,1.214-0.229,1.214-0.229l0.309,1.189c0.334,1.773-0.537,3.172-2.167,3.479c-0.798,0.15-1.444,0.046-1.977-0.317
		c-1.2-0.819-1.68-2.945-2.229-5.859c-0.435-2.308-0.564-3.94,0.127-4.952c0.348-0.509,0.878-0.825,1.622-0.965
		c0.748-0.141,1.46,0.002,2.063,0.414c0.709,0.484,1.205,1.315,1.398,2.341c0,0,0.057,0.383,0.081,0.541
		c0.538-0.101,2.256-0.424,2.772-0.521c-0.112-0.593-0.799-4.243-0.911-4.836C115.9,37.675,114.184,37.998,113.667,38.095
		L113.667,38.095z"/>
	<path fill-rule="evenodd" clip-rule="evenodd" fill="#FFFFFF" d="M126.189,35.929c0.06,0.373,0.353,2.203,0.353,2.203l-0.857-0.994
		c-0.809-0.938-1.636-1.221-2.951-1.01c-0.982,0.158-1.779,0.624-2.304,1.348c-0.659,0.911-0.883,2.178-0.644,3.665
		c0.384,2.398,1.445,3.112,3.532,3.725c0.001,0,1.649,0.438,1.649,0.438c1.733,0.43,2.878,0.714,3.098,2.089
		c0.185,1.15-0.441,2.042-1.556,2.221c-0.712,0.114-1.366-0.026-1.889-0.404c-0.596-0.432-0.988-1.143-1.135-2.058
		c0-0.001-0.036-0.35-0.036-0.35c-0.001-0.008-0.011-0.113-0.018-0.195c-0.528,0.085-1.969,0.315-2.466,0.395
		c0.095,0.593,0.662,4.137,0.757,4.73c0.5-0.08,1.954-0.313,2.454-0.393c-0.058-0.361-0.292-1.821-0.292-1.821l0.754,0.608
		c1.038,0.838,2.207,1.139,3.576,0.92c1.135-0.182,1.995-0.666,2.555-1.44c0.645-0.891,0.859-2.147,0.622-3.632
		c-0.398-2.483-1.698-3.232-4.283-3.887l-1.203-0.277c-1.563-0.34-2.691-0.585-2.918-2c-0.162-1.01,0.459-1.89,1.445-2.048
		c0.537-0.086,1.079,0.043,1.523,0.366c0.5,0.362,0.836,0.934,0.944,1.609c0,0,0.016,0.409,0.028,0.749
		c0.549-0.088,1.971-0.316,2.464-0.395c-0.093-0.589-0.635-3.968-0.729-4.557C128.161,35.613,126.691,35.849,126.189,35.929
		L126.189,35.929z"/>
	<path fill-rule="evenodd" clip-rule="evenodd" fill="#FFFFFF" d="M131.356,35.227c0.078,0.613,0.633,4.962,0.712,5.576
		c0.476-0.061,1.637-0.209,2.113-0.27c-0.078-0.605-0.499-3.906-0.499-3.906l1.773-0.226l1.459,11.436c0,0-1.33,0.17-1.797,0.229
		c0.056,0.434,0.158,1.237,0.213,1.67c0.637-0.081,6.398-0.816,7.035-0.897c-0.056-0.434-0.158-1.237-0.213-1.67
		c-0.469,0.06-1.817,0.231-1.817,0.231l-1.458-11.435l1.772-0.227c0,0,0.422,3.301,0.498,3.906c0.477-0.061,1.638-0.208,2.113-0.27
		c-0.078-0.613-0.633-4.962-0.712-5.576C141.88,33.884,132.028,35.141,131.356,35.227L131.356,35.227z"/>
	<path fill-rule="evenodd" clip-rule="evenodd" fill="#FFFFFF" d="M149.737,32.545c-1.972,0.184-3.38,0.814-4.303,1.926
		c-1.129,1.361-1.545,3.459-1.27,6.414c0.501,5.378,2.672,7.594,7.039,7.188c4.353-0.406,6.07-2.985,5.569-8.362
		c-0.274-2.953-1.07-4.937-2.431-6.065C153.228,32.721,151.722,32.361,149.737,32.545L149.737,32.545z M148.519,44.941l-0.001-0.003
		c-0.191-0.471-0.293-1.273-0.424-2.683l-0.321-3.441c-0.13-1.395-0.178-2.193-0.076-2.693c0.268-1.252,1.008-1.942,2.203-2.053
		c1.183-0.11,2.031,0.431,2.523,1.609c0.217,0.554,0.352,1.686,0.554,3.86l0.21,2.243c0.13,1.405,0.196,2.381-0.059,3.125
		c-0.328,0.992-1.023,1.546-2.066,1.643C149.866,46.66,149.01,46.119,148.519,44.941L148.519,44.941z"/>
	<path fill-rule="evenodd" clip-rule="evenodd" fill="#FFFFFF" d="M165.471,31.906c0.023,0.436,0.065,1.245,0.089,1.682
		c0.374-0.02,1.278-0.066,1.278-0.066l0.452,8.653c0,0-5.734-9.681-5.954-10.052c-0.381,0.02-3.983,0.208-4.595,0.241
		c0.023,0.437,0.065,1.245,0.089,1.682c0.374-0.02,1.278-0.067,1.278-0.067l0.603,11.513c0,0-0.904,0.047-1.278,0.067
		c0.022,0.437,0.065,1.246,0.088,1.682c0.594-0.031,3.933-0.206,4.525-0.237c-0.021-0.436-0.064-1.245-0.087-1.682
		c-0.374,0.02-1.278,0.067-1.278,0.067l-0.476-9.098c0,0,6.051,10.112,6.271,10.481c0.352-0.019,2.484-0.131,3.042-0.16
		c-0.036-0.702-0.69-13.194-0.69-13.194s0.904-0.048,1.278-0.067c-0.022-0.437-0.065-1.245-0.089-1.682
		C169.423,31.699,166.065,31.875,165.471,31.906L165.471,31.906z"/>
	<path fill-rule="evenodd" clip-rule="evenodd" fill="#FFFFFF" d="M188.249,43.2c-1.231,0.015-1.903,0.605-1.892,1.663
		c0.006,0.474,0.152,0.854,0.435,1.131c0.335,0.326,0.853,0.494,1.497,0.486c1.214-0.014,1.904-0.62,1.893-1.663
		c-0.006-0.487-0.149-0.873-0.429-1.144C189.428,43.356,188.908,43.192,188.249,43.2L188.249,43.2z"/>
	<path fill-rule="evenodd" clip-rule="evenodd" fill="#FFFFFF" d="M195.749,30.808c-1.731,0.002-2.922,0.695-3.642,2.12
		c-0.539,1.058-0.646,2.854-0.643,5.411c0.005,3.133,0.265,4.825,0.897,5.84c0.942,1.515,2.553,2.249,4.924,2.246
		c1.873-0.002,3.229-0.451,4.146-1.371c0.981-0.984,1.459-2.507,1.459-4.654c0-0.007-0.028-0.643-0.045-1.048
		c-0.446,0-1.446,0.002-1.919,0.003c0.015,0.522,0.05,1.76,0.05,1.764c0,1.372-0.293,2.333-0.896,2.937
		c-0.494,0.496-1.203,0.748-2.108,0.749c-0.825,0.002-1.439-0.209-1.875-0.644c-0.896-0.893-0.962-2.648-0.966-5.433l-0.001-1.334
		c-0.004-2.041,0.142-3.454,0.875-4.189c0.356-0.357,0.84-0.539,1.438-0.539c0.586-0.001,1.071,0.185,1.438,0.551
		c0.542,0.541,0.807,1.44,0.809,2.749c0,0-0.007,0.357-0.012,0.656c0.529-0.001,2.193-0.003,2.714-0.004
		c-0.001-0.615-0.007-4.831-0.008-5.446c-0.517,0-2.125,0.003-2.642,0.004c0.001,0.392,0.002,2.152,0.002,2.152l-0.677-0.952
		C198.318,31.318,197.231,30.805,195.749,30.808L195.749,30.808z"/>
	<path fill-rule="evenodd" clip-rule="evenodd" fill="#FFFFFF" d="M202.973,45.248c-0.16,0.446-0.155,0.854,0.014,1.212
		c0.198,0.422,0.625,0.76,1.231,0.978c1.144,0.411,2.002,0.084,2.354-0.897c0.165-0.459,0.164-0.87-0.002-1.222
		c-0.193-0.412-0.623-0.746-1.243-0.969C204.166,43.933,203.33,44.252,202.973,45.248L202.973,45.248z"/>
	<path fill-rule="evenodd" clip-rule="evenodd" fill="#FFFFFF" d="M180.766,37.285c-0.677,0.012-1.767,0.031-1.767,0.031
		l-0.076-4.331l2.89-0.051c0,0,0.041,2.343,0.051,2.909c0.511-0.009,2.033-0.036,2.543-0.045c-0.01-0.596-0.07-3.998-0.082-4.593
		c-0.67,0.012-9.646,0.171-10.317,0.183c0.008,0.437,0.022,1.247,0.029,1.684c0.401-0.007,1.398-0.024,1.398-0.024l0.203,11.526
		c0,0-0.996,0.018-1.396,0.025c0.007,0.437,0.021,1.247,0.029,1.684c0.63-0.011,5.634-0.1,6.264-0.111
		c-0.008-0.438-0.022-1.247-0.03-1.684c-0.396,0.007-1.378,0.025-1.378,0.025l-0.087-4.965c0,0,1.047-0.019,1.727-0.031v1.268h2.354
		v-4.317h-2.354V37.285L180.766,37.285z"/>
	<path fill-rule="evenodd" clip-rule="evenodd" fill="#FFFFFF" d="M202.032,129.938l-2.188-2.188l-4.375,5.906
		c0,0,1.094-14.656-2.406-24.719l1.969-7.875l-3.281,0.656l-0.656,4.156c0,0-2.625-10.5-7.656-15.531l1.313-9.406h-3.281
		l-0.875,4.813c0,0-4.375-9.625-8.969-12.031L169.657,77c0,0,5.25,3.719,8.313,10.719l-7.438-2.844V87.5l9.625,3.938
		c0,0,6.344,6.781,7.875,13.781L183.22,105v3.063l6.125,0.656c0,0,3.063,15.969,2.625,25.375l-4.813-3.938L185.626,133l6.563,6.563
		c0,0-2.188,15.969-8.969,24.5l-1.531-7l-3.281,0.875l0.656,13.125c0,0-4.813,6.344-10.938,11.594l-1.094-7.438l-2.406,1.75
		l-0.656,9.844c0,0-5.906,6.125-13.125,9.188l1.313-10.063l-3.281,0.875l-3.063,11.156l-8.53-0.582
		c0.001,2.27,0.043,3.162,0.237,3.998l9.168-0.572l14.219,3.281l-0.219-2.406l-8.75-1.969c0,0,10.938-4.375,17.281-11.375
		l10.938-0.219l-0.438-3.281l-7.438,0.219c0,0,8.75-8.531,11.813-14l8.75-1.531l-0.656-3.5l-6.125,1.094
		c0,0,8.531-14.001,9.625-28.219L202.032,129.938L202.032,129.938z"/>
	<path fill-rule="evenodd" clip-rule="evenodd" fill="#FFFFFF" d="M102.521,204.094l14.219-3.281l9.168,0.572
		c0.194-0.836,0.236-1.729,0.236-3.998l-8.53,0.582l-3.063-11.156l-3.281-0.875L112.583,196c-7.219-3.063-13.125-9.188-13.125-9.188
		l-0.656-9.844l-2.406-1.75l-1.094,7.438c-6.125-5.25-10.938-11.594-10.938-11.594l0.657-13.125l-3.281-0.875l-1.531,7
		c-6.782-8.531-8.969-24.5-8.969-24.5L77.802,133l-1.531-2.844l-4.813,3.938c-0.438-9.406,2.625-25.375,2.625-25.375l6.125-0.656
		V105l-4.813,0.219c1.531-7,7.875-13.781,7.875-13.781l9.625-3.938v-2.625l-7.437,2.844c3.062-7,8.313-10.719,8.313-10.719
		l-1.969-3.281c-4.593,2.406-8.968,12.031-8.968,12.031l-0.875-4.813h-3.281l1.312,9.406c-5.031,5.031-7.656,15.531-7.656,15.531
		l-0.656-4.156l-3.281-0.656l1.969,7.875c-3.5,10.063-2.407,24.719-2.407,24.719l-4.375-5.906l-2.188,2.188l6.344,8.969
		c1.094,14.218,9.625,28.219,9.625,28.219l-6.125-1.094l-0.656,3.5l8.75,1.531c3.063,5.469,11.813,14,11.813,14l-7.438-0.219
		l-0.438,3.281l10.938,0.219c6.343,7,17.281,11.375,17.281,11.375l-8.75,1.969L102.521,204.094L102.521,204.094z"/>
	<path fill-rule="evenodd" clip-rule="evenodd" d="M152.833,154.875c1.926-0.352,2.406-2.407,2.406-2.407
		c1.313,1.094,0.438,5.032,0.438,5.032c1.094-0.656,1.75-1.313,1.75-1.313c0.875,3.5-2.406,5.469-2.406,5.469
		c1.094,0.875,3.063,0,3.063,0c-0.219,2.188-3.719,3.5-3.719,3.5c0.656,0.656,1.969,0.875,1.969,0.875
		c-1.75,2.406-4.594,1.75-4.594,1.75c-1.531,2.406,2.625,3.938,2.625,3.938c-2.625,2.406-5.469,0-5.469,0
		c-2.188,2.188,0,5.25,0,5.25c-3.938-0.219-4.813-2.844-4.813-2.844c-2.844-1.094-5.25,2.844-5.25,2.844
		c-1.969-2.406,1.094-7,1.094-7c-1.75-1.094-2.844-0.438-2.844-0.438c0-3.063,4.594-4.156,4.594-4.156s1.531,1.969,3.281,1.531
		s2.625-2.625,1.75-4.594s-2.844-1.531-4.375-0.219s-3.938,0.438-3.938,0.438c-1.313,6.563-5.468,7.219-5.468,7.219
		c0.656-1.969,0-3.063,0-3.063c-2.188,0.875-2.844,3.063-2.844,3.063c-1.75-3.938,2.406-6.781,2.406-6.781s0-3.938,0-7.875
		c0-3.938,2.625-7.657,2.625-10.5c0-2.844-3.063-5.469-3.063-5.469c5.25-1.969,5.906-8.094,5.906-8.094s2.844,3.719,4.813,7.875
		s5.906,9.187,10.063,9.187s3.5-1.969,3.5-3.063c0-0.423-0.926-2.775-3.281-3.5c-2.844-0.875-6.781-2.843-6.563-7.656
		c0,0,1.969,3.938,5.906,4.375c0,0,0-1.313-1.094-2.844s-3.281-4.375-3.281-7.219s2.188-14.875-1.531-17.5
		c0,0,1.531-1.094,3.719,1.531c0,0,1.313-4.813,0.656-6.344s4.594-4.594,8.531-3.281c0,0-4.594,1.75-4.594,4.156
		s2.188,3.938,0.438,9.406c0,0,3.063-0.438,2.844-4.594c0,0,1.969,2.844,0.656,5.906s-8.313,5.906-7.656,9.625
		s2.625,5.031,2.625,5.031s3.063-2.844,0.875-6.344c0,0,5.25,2.188,1.313,9.188c0,0,1.531,5.25,3.063,6.562
		c0,0,2.188,0.219,2.406-3.062c0,0,2.803,9.304-5.469,12.688c-4.813,1.968-9.406-1.094-9.406-1.094l-0.438,3.062
		c0,0,1.313,0.438,1.969,0c0.656-0.437,1.094-1.312,2.406-0.656C151.739,153.125,150.427,155.313,152.833,154.875L152.833,154.875z"
		/>
	<path fill-rule="evenodd" clip-rule="evenodd" d="M125.708,162.969c3.5,0.219,3.5-2.406,3.5-2.406
		c-2.406,0.875-2.625-1.969-2.625-1.969c3.719-0.219,3.5-3.719,3.5-3.719s-3.281,1.75-3.281-1.313c0-1.708,2.657-3.145,5.005-4.081
		c0.136-0.383,0.275-0.76,0.411-1.125c0.533-1.436,1.036-2.791,1.036-3.762c0-0.854-0.509-1.791-1.079-2.567
		c-0.851,0.476-1.789,0.816-2.748,0.816c-3.281,0-2.625-1.968-7.219-1.968c-3.281,0-6.344,7-6.344,7s-5.031-2.188-4.156,3.281
		c0,0,0.656-0.875,1.968-0.656c0,0,0.657,2.188,3.719,1.531c0,0,4.157,7.001-5.906,8.095l-0.218-0.656c0,0,1.093-2.406-2.844-2.844
		c0,0-0.219-1.969-3.281-1.75c0,0,1.312,1.313,1.531,3.281c0,0-2.844,1.75-0.657,2.844c0,0-3.938,0.875-4.593,3.938
		c0,0,1.531-1.75,2.843-1.313c1.313,0.438-0.875,1.969,2.407,1.531c0,0-2.188,3.938,0.219,5.906c0,0,0.875-2.406,1.75-2.844
		c0,0,1.532,0.656,3.063-1.531c0,0,0,1.969,2.188,1.969c0,0,0.218,2.188,3.063,1.75c0,0-1.313-0.875-0.438-2.625
		c0,0,1.531,0.219,1.094-3.063c-0.231-1.734,1.75,2.406,2.406,3.063c0.656,0.656,2.625,0.219,2.625,0.219
		c-1.75-0.438-0.875-2.406-0.875-2.406c4.157,2.844,5.032-0.656,5.032-0.656C123.521,164.938,125.708,162.969,125.708,162.969
		L125.708,162.969z"/>
	<path fill-rule="evenodd" clip-rule="evenodd" d="M108.208,117.688c0,0,0.438,1.75-1.312,3.063l0.112,0.062l2.791-0.7
		c1.771-0.443,4.663-1.394,5.544-2.114c0.989-0.809,1.905-1.522,2.756-2.127l-9.891-7.808l0.438-4.594c0,0,4.594,1.094,3.938-5.25
		c0,0-1.531,2.188-3.718,1.531c0,0-1.094-1.531-4.375-2.844l-0.438,3.5c0,0-3.281-2.625-6.125,1.313l1.969,0.438
		c0,0-1.093,1.75,1.75,2.625c0,0-1.312,4.156-3.5,5.031c0,0,1.531,1.531,2.407,0.436c0.652-0.813,3.261-1.803,2.35,0.072
		c-0.475,0.976-2.442,0.544-2.312,2.079c1.823,0.959,5.722,0.389,5.616,3.287c-0.913,0.049-1.865,0.017-2.778,0.065
		C103.125,117.873,106.883,118.486,108.208,117.688L108.208,117.688z"/>
	<path fill-rule="evenodd" clip-rule="evenodd" fill="#FFFFFF" d="M131.407,101.403c0,0,0.927-2.457,5.378-1.483
		C136.785,99.919,134.931,102.794,131.407,101.403L131.407,101.403z"/>
	<path fill-rule="evenodd" clip-rule="evenodd" d="M117.177,133.109c-0.985,1.203-2.188,0.875-2.188,0.875
		c-0.875-0.766-0.328-2.625,0.546-4.156c0.516-0.901,0.272-1.762-0.015-2.32c-0.782,0.121-1.468,0.272-1.845,0.46
		c-1.313,0.656-7,4.156-10.062,3.063c0,0,1.969-2.844-5.031-3.938c0,0,0.437,0.656,1.094,2.188c0,0-1.094,1.094-1.313,1.75
		c0,0-5.469,0.875-5.25,3.938c0,0,2.188-1.313,4.156,0.438c0,0-3.281,4.156,1.313,6.781c0,0-0.438-1.312,0.437-2.406
		c0,0,2.625,0.438,1.969-1.969c0,0,1.532,4.156,6.344,3.5c0,0-1.75-2.406,0.438-3.938c0,0,3.938,3.938,6.781,2.406
		c0,0-1.969-1.969-1.094-3.719c0,0,2.333,2.771,5.688,2.188c0,0-2.737-6.391,2.473-3.146l0.151-2.651
		C120.349,131.578,118.161,131.906,117.177,133.109L117.177,133.109z"/>
</g>
</svg>
