<?xml version="1.0" encoding="UTF-8" standalone="no"?>
<svg
   version="1.1"
   id="Layer_1"
   x="0px"
   y="0px"
   viewBox="0 0 103 145.5"
   style="enable-background:new 0 0 103 145.5;"
   xml:space="preserve"
   sodipodi:docname="idpKHbSeaL_1771734072251.svg"
   inkscape:version="1.4.3 (0d15f75042, 2025-12-25)"
   xmlns:inkscape="http://www.inkscape.org/namespaces/inkscape"
   xmlns:sodipodi="http://sodipodi.sourceforge.net/DTD/sodipodi-0.dtd"
   xmlns="http://www.w3.org/2000/svg"
   xmlns:svg="http://www.w3.org/2000/svg"><defs
   id="defs1" /><sodipodi:namedview
   id="namedview1"
   pagecolor="#ffffff"
   bordercolor="#000000"
   borderopacity="0.25"
   inkscape:showpageshadow="2"
   inkscape:pageopacity="0.0"
   inkscape:pagecheckerboard="0"
   inkscape:deskcolor="#d1d1d1"
   inkscape:zoom="2.5290698"
   inkscape:cx="51.6"
   inkscape:cy="72.754023"
   inkscape:window-width="1280"
   inkscape:window-height="730"
   inkscape:window-x="0"
   inkscape:window-y="0"
   inkscape:window-maximized="1"
   inkscape:current-layer="Layer_1" />
 <style
   type="text/css"
   id="style1">
  .st0{fill:#FFFFFF;}
	.st1{fill:#94BEE5;}
	.st2{fill:#660033;}
	.st3{fill:#FFE600;}
 </style>
 <g
   id="Setup">
  <g
   id="Styles-Export"
   transform="translate(-1301.000000, -205.000000)">
   <g
   id="Master-Crest-_x2F_-Home-_x2F_-Default"
   transform="translate(1301.000000, 205.000000)">
    <g
   id="colour-on-dark"
   transform="translate(14.400000, 0.000000)">
     <path
   id="Path"
   class="st0"
   d="M-14.4,0v110.1c0,16.9,19.9,22.4,34.5,26.5c2.9,0.8,5.7,1.6,8.1,2.4c1.4,0.5,2.8,1.2,4.1,2      c1.7,1.1,3.4,3,3.5,3l1.4,1.5l1.4-1.5c0,0,1.8-1.9,3.5-3c1.3-0.8,2.7-1.5,4.1-2c2.4-0.8,5.1-1.6,8.1-2.4      c14.6-4,34.5-9.6,34.5-26.5V0H-14.4z"
   style="fill:#7b003a">
     </path>
     <path
   id="Path_1_"
   class="st1"
   d="M84.9,110.1c0,14.1-17.6,19-31.7,22.9c-3,0.8-5.8,1.6-8.2,2.4c-1.8,0.6-3.4,1.4-5,2.4      c-1,0.7-1.9,1.4-2.8,2.3c-0.9-0.8-1.8-1.6-2.8-2.2c-1.6-1-3.3-1.8-5-2.4c-2.5-0.8-5.3-1.6-8.2-2.4c-14.1-4-31.7-8.8-31.7-22.9      V3.8h95.5V110.1z">
     </path>
     <polygon
   id="Path_2_"
   class="st0"
   points="1.2,45.8 4.2,44.2 7.3,45.8 6.7,42.4 9.2,40 5.8,39.5 4.2,36.3 2.7,39.5 -0.7,40       1.8,42.4     ">
     </polygon>
     <path
   id="Path_3_"
   class="st2"
   d="M37.1,9.1c-0.9,0.1-1.9,0.1-3,0.1c-1.2,0-2.4,0-4-0.1c-0.4,0.2-0.4,0.8-0.1,1.1l1,0.2      c0.8,0.2,1,0.3,1,0.5c-0.1,0.4-0.2,0.8-0.3,1.2c-0.4,1.1-1.8,4.7-2.6,6.7l-1.2,3c-0.4,1-0.9,2.1-1.2,2.6l-1.1-2.7l-2.8-7.2      c-0.8-1.9-1.3-3.3-1.3-3.5s0.2-0.5,0.8-0.6l1-0.2c0.2-0.3,0.2-0.9,0-1.1c-2,0.1-3.3,0.1-4.8,0.1c-1.7,0-2.7-0.1-4.4-0.1      c-0.3,0.2-0.4,0.7-0.1,1.1l1.3,0.3c1,0.3,1.2,0.3,2.4,3.4l5.2,13.1c0.5,1.1,1,2.8,1.3,3.7c0.2,0.2,0.6,0.3,0.9,0.3      c0.4,0,0.8-0.1,1.1-0.3c0.7-1.8,1.6-4.3,3.2-8.2l2.4-5.6c1.1-2.6,1.9-4.4,2.6-5.5c0.4-0.7,1-0.9,1.9-1.1l0.8-0.2      C37.4,10,37.4,9.2,37.1,9.1">
     </path>
     <path
   id="Path_4_"
   class="st2"
   d="M51.4,9.2h-7.2c-1.5,0-3.2,0-4.5-0.1c-0.4,0.1-0.4,0.9-0.1,1.1l0.6,0.1      c1.4,0.2,1.6,0.5,1.6,3.5v12c0,3-0.2,3.2-1.6,3.4l-1.1,0.2c-0.3,0.2-0.3,0.9,0,1.1c1.9-0.1,3.5-0.1,5-0.1c1.5,0,3.1,0,5.1,0.1      c0.2-0.2,0.2-0.9,0-1.1l-1.2-0.2c-1.4-0.2-1.6-0.5-1.6-3.4v-4.4c0-0.9,0-1,0.9-1h2.9c1.7,0,2.1,0.3,2.4,1.8l0.2,0.8      c0.2,0.3,1,0.3,1.2,0c-0.1-1-0.1-2.1-0.1-3.3c0-1.2,0-2.4,0.1-3.4c-0.2-0.3-1-0.3-1.2,0L52.6,17c-0.3,1.6-0.7,1.8-2.4,1.8h-2.9      c-0.9,0-0.9-0.1-0.9-1V12c0-1.3,0-1.3,1.1-1.3h3c1.6,0,2.6,0.4,3.2,1.1c0.3,0.4,0.6,1.2,0.9,2.5c0.4,0.3,1.1,0.2,1.2-0.1      c-0.1-2.1-0.1-4.5-0.1-5C55.3,9.2,53.4,9.2,51.4,9.2">
     </path>
     <path
   id="Path_5_"
   class="st2"
   d="M78.3,24.5c-0.9,2.2-2.7,5-6.6,5c-3.9,0-7.6-3.4-7.6-9.9s3.8-9.5,7.4-9.5      c3.1,0,5.2,1.6,6.1,4.6c0.2,0.3,1.1,0.2,1.2-0.2c-0.2-1.7-0.4-3.4-0.4-5c-1-0.1-3.4-0.8-6.6-0.8c-3.4,0-6.6,1-8.9,2.9      c-2.2,1.8-3.9,4.6-3.9,8.5c0,4,1.8,6.7,4.1,8.4c2.3,1.7,5.5,2.4,8.7,2.4c2.5,0,4.8-0.7,6.5-1.2c0.5-0.7,1-2.7,1.2-5.1      C79.3,24.4,78.6,24.3,78.3,24.5">
     </path>
     <path
   id="Shape"
   class="st2"
   d="M15.1,29.3c-1.2-0.2-1.5-0.9-2.1-2.9L8.6,13.8c-0.8-2.3-1.2-3.5-1.4-4.4C7,8.9,6.8,8.7,6.4,8.7      C6.3,8.7,5.3,10,4,10.5l-0.8,2.1c-0.1,0.3-0.2,0.6-0.4,1l-0.4,1.1v0l-3,7.9c-0.9,2.3-1.5,3.9-2,5.2c-0.5,1.3-1.2,1.5-2,1.6      l-0.9,0.1c-0.2,0.3-0.3,0.9,0.1,1.1c1.5,0,2.2-0.1,3.3-0.1c1.3,0,2.5,0,3.6,0.1c0.3-0.2,0.3-0.9,0.1-1.1l-1-0.2      c-0.9-0.2-1.3-0.4-1.3-0.5c0-0.4,0.1-0.8,0.2-1.2l1.3-3.7c0.2-0.6,0.3-0.6,1.1-0.6h3.8c1.1,0,1.4,0.1,1.5,0.6l0.9,2.8      c0.4,1.2,0.6,2,0.6,2.2c0,0.2-0.1,0.4-0.9,0.5l-1,0.2c-0.2,0.1-0.2,0.4-0.2,0.6c0,0.2,0.1,0.4,0.3,0.5c1.5-0.1,2.7-0.1,4.4-0.1      c1.7,0,3.4,0,5,0.1c0.3-0.2,0.2-1,0-1.1L15.1,29.3z M5.7,21.5h-3c-0.8,0-1-0.1-0.7-1l0.8-2.4c0.5-1.5,1.1-3.2,1.4-4      c0.3,0.7,0.9,2.4,1.3,3.8l0.8,2.6C6.6,21.4,6.4,21.5,5.7,21.5">
     </path>
     <path
   id="Shape_1_"
   class="st3"
   d="M26.7,46.6c-0.6,0.6-0.5,1.3-1,1.8c-0.2,0.2-0.5,0.4-0.9,0.4c-0.3,0-0.6-0.1-0.9-0.4      c-0.2-0.2-0.4-0.5-0.4-0.9v0c0-0.6,0.7-1.2,2.7-1.2c0.3,0,0.5,0,0.8,0C27,46.4,26.8,46.5,26.7,46.6 M76.1,61.7      c-0.3,0-0.6,0-0.9,0.1c0,0,3.8-3.7,3.8-9.6c0-2.7-0.6-3.7-0.7-3.7c-0.2,0-0.2,1.6-1.4,2.8c-0.9,0.9-2.3,1-3,1.8      c0.7-1.6,0.2-3.8,0.1-3.8s0,1.1-1.5,2.6c-0.9,0.9-3,1.6-4.8,3.3c0.7-1.7,0.1-3.5-0.1-3.5s0,1-1,2c-0.9,0.9-2.7,1.4-4,2.7      c-1.8,1.8-1.5,4.6-1.5,5.7v0.3c-0.3,0.2-0.5,0.4-0.8,0.6c-2.1,1.7-3.2,4.3-3.2,7c0,5.2,3.4,8.7,6.4,11.8c1.3,1.4,2.6,2.7,3.5,4      c0.9,1.4,1.4,2.7,1.4,4c0,1.2-0.4,2.4-1.2,3.4c-0.8,1-2,1.5-3.5,1.5c-2.6,0-4.4-1-6.4-2c-1-0.6-2.1-1.1-3.1-1.5      c-0.6-5.6-4.6-9-4.6-14.3c0-2.9,1.3-4.5,0.8-6.5c0.9,0.9,2.5,1.2,3,1.2c0.3,0,0.6-0.1,0.9-0.3c0,0,0,0,0,0c0,0,0,0,0,0l0,0      c-0.8-0.6-1.3-1.5-1.3-2.5c0-1.7,0.6-3.1,0.6-4.8c0-1.1-0.4-2.2-1.1-3c0.8,0.7,1.8,1.2,2.8,1.3c0.6,0,0.9-0.1,1.1-0.2      c0,0,0-0.1,0-0.1c0,0,0,0,0,0c-0.3-0.2-1.7-1.1-1.7-2.5c0-1.6,0.4-1.9,0.4-3c0-0.7-0.2-1.3-0.5-1.9c0.5,0.3,1,0.4,1.6,0.4      c1,0,1.5-0.2,1.9-0.5c0,0,0,0,0-0.1s0,0-0.1,0c-2.5-0.2-2.1-5.8-4.5-7.9c0.2,0,0.4,0.1,0.6,0.1c0.8,0,1.8-0.7,2.1-1.3      c0,0,0,0,0,0c0,0,0,0,0,0c0,0,0,0,0,0c-4.5-0.2-5.9-10.1-15.9-8.1c0.5-0.6,1.1-1.2,1.8-1.6c0,0,0,0,0,0c0,0,0,0,0-0.1      c0,0,0,0,0,0c-0.5-0.2-1.4-0.5-3.7-0.5c-2.2,0-4.3,1.1-5.6,2.8c0.5-1.1-0.1-2.5-0.7-3.1c0,0,0,0,0,0s0,0,0,0c0,0,0,0,0,0      c-0.1,0.5-0.4,0.9-0.7,1.3c-1.8,1.8-5.1,3-5.1,6.7c0,0-1.1,0.7-2.5,1.7c-1.4,1-2.2,2.5-2.2,3c-0.5,0.3-2.8,2-4.7,3.8      c0,0,0,0.1,0,0.2c0.2,0.3,0.3,0.6,0.4,0.9c0,0.1,0.1,0.1,0.2,0.1c0,0,0,0,0.1,0c0.3-0.3,0.6-0.5,1-0.7c-0.4,0.4-0.6,1-0.5,1.5      c0,1.4,3,3.3,3.2,3.1c0.1-0.1-0.4-1.5,0.1-2c0.7-0.7,3.1-0.8,3.8-0.8c0.7,0,1.1,0.3,1.1,0.8c0,1.3-0.7,3.7-3.1,3.7      c-0.9,0-1.6-0.9-1.7-0.8c-0.2,0.2,0,1.5,0.3,2c-0.2,0.3-0.3,0.6-0.3,1c0,1.7,2.7,3.8,3,3.5c0.2-0.2-0.6-2.1-0.1-2.1      c0.3,0,1,1.1,1.8,1.1c0,0,0,0,0.1,0c0.1-0.1-0.5-1.1-0.2-1.4c0.9-0.9,3.3-2.7,3.9-2.9c1.3-0.4,2,0.5,2,1.8c0,2.8-3,3.4-5.4,5.8      c-2.4,2.4-2.9,5.9-5.9,5.9c-0.4,0,2.2-0.7,3-3.4c-7.9,0.1-9.3-4.4-15.6-5.2c0-0.1-0.1-0.2-0.1-0.3c-0.2-0.2-2.4-2.1-2.4-6.5      c0-0.4-0.1-0.8-0.4-1.1c-0.3-0.3-0.6-0.5-1-0.5H4.1c-0.3-0.6-1-1.9-2.6-1.9c-1.5,0-1.9,0.7-1.8,0.8c0.1,0.1,0.7-0.2,1.5,0.6      c0.4,0.4,0.6,0.8,0.7,1.3c-0.2,0.2-0.3,0.5-0.3,0.8C1,56,0.5,56.2,0.1,56.6c-0.5-0.3-1.1-0.4-1.7-0.4c-2.2,0-2.6,2-2.5,2.1      c0.1,0.1,0.5-0.3,1.1-0.3c0.8,0,1.6,0.6,2,1c-0.1,0.5,0.1,1,0.4,1.3c0,0-1,0.3-1.2,1.8l-0.2,0c-2.9,0.8-2.3,3.1-2.2,3.1      c0.1,0,0.3-1,1.6-1c0.4,0,0.8,0,1.1,0.1c0.4,0.8,1.2,1.2,2.1,1.2c0.6,0,1.2-0.1,1.6-0.1c0.7,0,1.1,0.4,1.1,1.3      c0,1.4-1.3,1-1.9,1.5C1,68.6,1,69,1,69.5v0.1c-0.2,0.1-0.4,0.1-0.6,0.1c-0.9,0-1.4-0.8-1.5-0.7c-0.2,0.2,0.4,2.7,2.2,2.7      c0.5,0,1-0.1,1.4-0.4c0.2,0,0.3,0.1,0.5,0.1c1.8,0,2.3-2.2,4.6-2.2s6.7,3.2,7.3,7.1c0,0,0,0,0,0c0,0,0,0,0,0c0,0,0,0,0,0      c0.6-0.5,1-1.3,1-2.1c1.5,1.2,2.9,2.4,4.2,3.8c0,0-9.1,7-9.6,7.3c-0.3,0.2-0.7,0.4-1.1,0.3c-1.3,0-1.7-2.1-3.7-2.1      c-0.3,0-0.7,0.1-0.9,0.3c-0.3-0.1-0.5-0.1-0.8-0.1c-2.4,0-2.9,3.2-2.6,3.2s0.4-0.8,1.6-0.8c0.2,0,0.3,0,0.5,0      c0,0.6,0.2,1.1,0.6,1.5c-0.5,0.2-0.8,0.6-1,1c-2.9,0.1-2.8,3.5-2.6,3.5c0.2,0,0.3-1.4,2-1.4c0.1,0,0.3,0.1,0.4,0.1      c0.3,1.3,1.2,2,2.2,2c-0.3,0.5-0.2,1.2,0.1,1.9c-0.7,1.4,0.5,3.3,0.8,3.3c0.2,0-0.1-1.2,0.5-2c0.1,0,0.2,0,0.4,0      c0.9,0,1.7-0.5,2.1-1.3c0,0,0.1,1.3,1.4,1.5c0.3,1.2,1,2.2,1.3,2.2c0.2,0-0.2-1.6,0.3-2.6c1.9-1.9,0.4-4.3,2.4-6.3      c2.3-2.3,7.8-4.3,12.4-4.5c1.6,1.9,3.9,4.7,5,5.4c0,0,0,0.1-0.1,0.1c-2.8,2.8-8.1,0.3-10.8,3.1c-1.1,1.1-1.2,2.1-2.8,2.1      c-0.5,0-0.9-0.2-1.2-0.5c0,0-0.1,0-0.1,0c0,0,0,0,0,0c-0.2,0.8,0.1,1.7,0.7,2.2c0.9,1,2.1,0.8,2.4,0.6c-0.8,1-2.4,1-3.4,0.4      c0,0,0,0,0,0c0,0,0,0,0,0c0,0,0,0,0,0c0.8,2.9,3.8,2.4,3.8,2.4c0.6,3.1,3.8,4.5,3.8,6.6c0,0.7-0.3,1.3-0.8,1.8      c-1.2,1.2-3.8,2-6.6,2c-4.6,0-4.6-3.3-7.1-3.3c-0.3,0-0.6,0-0.9,0.1c-0.6-0.6-1.3-0.9-2.1-0.9c-1.5,0-2.4,1.7-2.2,1.9      c0.1,0.1,0.6-0.4,1.3-0.4c0.4,0,0.8,0.3,0.9,0.7c-0.1,0.2-0.2,0.3-0.3,0.5c-0.3-0.1-0.6-0.1-1-0.1c-2.9,0-2.8,3.3-2.5,3.3      c0.2,0,0.6-1.2,1.9-1.1c-0.3,0.5-0.4,1.1-0.4,1.7v0.3c-0.7,0.4-1.1,1.1-1.2,1.9c0,1.2,0.2,1.8,0.4,1.8s0.4-1.4,1.5-1.8      c0.5,0.7,1.2,1.1,2,1.3c-0.1,0.6-0.2,1.3-0.2,1.9c0,1.1,0.3,2.6,0.6,2.6c0.2,0,0.4-1.7,1.1-2.4c0.3,0.3,0.7,0.6,1.1,0.7      c0.4,0.2,0.9,0.3,1.4,0.3h0.1c3.8-0.1,6.3-3.6,9.2-3.6c1.6,0,1.6,1.5,1.1,2.1c4.4,0,5.6-3.3,8.3-3.3c1.3,0,2.6,0.7,3.8,0.7      c1,0,1.9-0.5,2.4-1.4c0,0,0-0.1,0-0.1h0c-2,0-2.9-0.9-3.1-1.5c3.6,1.5,4.7-0.8,4.9-1.4c0,0,0-0.1,0-0.1c0,0,0,0,0,0      c-0.2,0.1-0.5,0.1-0.7,0.1c-2,0-4.1-2-4.1-4.7c0-2.6,1.8-4.1,3.5-4.6c1.3-3.8,3.3-4.6,2.5-7v0l0,0c0.3,0.6,0.5,1.2,0.6,1.9      c0,2.5-2.4,4-2.4,8c0,4.5,3.5,4.4,3.5,7.4c0,0.8-0.2,1.5-0.6,2.1c0,0,0,0,0,0c0,0,0,0,0,0h0c0.4,0.1,2.1,0.1,3.7-2.5      c2.1,1.1,1.5,2.9,1.4,3.3c0,0,0,0.1,0,0.1h0c2.7-0.1,3.6-3.8,3.6-3.8c2.4-0.3,4.3,0.6,4.3,1.6c0,2.6-4.9,7.5-8.5,7.5      c-1.3,0-1.8-1.4-3-1.4c-0.7,0-1.3,0.3-1.5,0.9c-0.4-0.2-0.9-0.3-1.4-0.3c-1.1,0-2.1,0.6-2.5,2c-1.5,0.5-1.9,2.9-1.7,3.1      c0.2,0.2,0.9-1.1,2.1-0.8c0.2,0.3,0.4,0.6,0.7,0.9c-0.3,0.2-0.6,0.4-0.8,0.6c-1.5,1.5-1.1,3.2-1,3.3s0.4-0.6,0.9-1      c0.4-0.4,0.9-0.7,1.4-0.6c0.5,1,1.6,1.2,2.3,1.2c-0.1,0.9-0.1,2.4,0.1,2.6c0.2,0.2,0.8-1.3,1.9-2c0.6,0.4,1.2,0.6,1.9,0.7      c2,0,3.8-0.9,5.2-2.4c2.1-2.1,3.5-5.5,5.3-5.5c1.1,0,0.9,1,0.9,1.1c2.9,0,1.7-3.5,7.1-9c0.7-0.7,1.4-1.3,1.6-1.9      c0,0,0-0.1-0.1-0.1c0,0,0,0,0,0c-0.5,0.3-1.7,0.4-2.3-0.2c0,0,4.4-2.2,4.6-5.5c0,0,0-0.1-0.1-0.1c0,0,0,0,0,0      c-1.2,0.9-3.4,0.7-3.4,0.7c1-0.8,1.8-3.2,0.7-5.4c0,0-0.1,0-0.1,0c0,0,0,0,0,0c-1,2.4-3.1,3.3-5,3.3c-2.7,0-5-2.2-5-5.2      c0-2.6,0.8-3.7,1.2-6c0.6,0.3,1.2,0.6,1.8,0.9c2.1,1.1,4.5,2.3,7.9,2.3c1.2,0,2.3-0.2,3.4-0.7c1-0.4,1.8-1.1,2.5-1.9      c1.3-1.5,2-3.5,1.9-5.5c0-4.3-2.9-7.3-5.7-10.2c-1.4-1.4-2.8-3-3.9-4.6c-1.1-1.7-1.6-3.3-1.6-5.1c0-1.8,1-3.6,2.3-4.9      c0,0,3,1.7,6.5,1.7c3.5,0,5.5-2.5,5.5-2.5c1.6-1.6,3.3-1.3,3.5-1.5C78.3,62.5,77.4,61.6,76.1,61.7">
     </path>
    </g>
   </g>
  </g>
 </g>
</svg>
