<?xml version="1.0" encoding="UTF-8"?>
<!DOCTYPE svg PUBLIC "-//W3C//DTD SVG 1.1//EN" "http://www.w3.org/Graphics/SVG/1.1/DTD/svg11.dtd">
<!-- Creator: Brennpeter -->
<svg xmlns="http://www.w3.org/2000/svg" xml:space="preserve" width="51mm" height="51mm" style="shape-rendering:geometricPrecision; text-rendering:geometricPrecision; image-rendering:optimizeQuality; fill-rule:evenodd; clip-rule:evenodd"
viewBox="0 0 51 51"
 xmlns:xlink="http://www.w3.org/1999/xlink">
 <defs>
  <style type="text/css">
   <![CDATA[
    .fil0 {fill:black;fill-rule:nonzero}
    .fil2 {fill:#009B28;fill-rule:nonzero}
    .fil1 {fill:white;fill-rule:nonzero}
   ]]>
  </style>
 </defs>
 <g id="Ebene_x0020_1">
  <metadata id="Brennpeter-Layer"/>
  <path class="fil0" d="M19.8961 1.1319c-6.5042,1.5015 -12.0343,5.4461 -15.5717,11.1071 -2.4903,3.9853 -3.8065,8.5482 -3.8065,13.1954 0,1.8948 0.2186,3.802 0.6496,5.6693 0.6507,2.8184 1.7713,5.4742 3.3278,7.8965 -0.0803,0.1223 -3.754,5.7133 -3.754,5.7133 0,0 8.6918,-0.0382 8.7745,-0.0386 0.889,0.7386 1.8168,1.4119 2.7588,2.0006 5.6608,3.5374 12.3603,4.6585 18.8646,3.1571 6.5043,-1.5014 12.0344,-5.446 15.5718,-11.1073 2.4905,-3.9853 3.8068,-8.5484 3.8068,-13.1958 0,-1.8946 -0.2187,-3.802 -0.6497,-5.6691 -0.6508,-2.8184 -1.7711,-5.474 -3.3276,-7.8965 0.0802,-0.1221 3.7537,-5.7131 3.7537,-5.7131 0,0 -8.6916,0.0382 -8.7742,0.0385 -0.8893,-0.7386 -1.817,-1.4121 -2.7592,-2.0007 -5.661,-3.5373 -12.3607,-4.6584 -18.8647,-3.1567z"/>
  <path class="fil1" d="M48.7233 20.1247c-0.6856,-2.9706 -1.9075,-5.7268 -3.5863,-8.164 1.6505,-2.5124 2.9734,-4.5255 2.9734,-4.5255l-7.0101 0.0308c-0.9222,-0.7941 -1.9106,-1.5241 -2.9621,-2.1811 -5.3946,-3.371 -11.7794,-4.4395 -17.9777,-3.0084 -6.1986,1.4311 -11.4688,5.1902 -14.8398,10.585 -3.371,5.3949 -4.4395,11.7797 -3.0084,17.9779 0.6857,2.9707 1.9075,5.7268 3.5865,8.1642 -1.6509,2.5122 -2.9737,4.5255 -2.9737,4.5255l7.0105 -0.0307c0.9221,0.7938 1.9103,1.5238 2.9617,2.1808 5.3947,3.371 11.7793,4.4397 17.9776,3.0086 6.1985,-1.4308 11.4688,-5.1901 14.8402,-10.5851 3.371,-5.395 4.4393,-11.7794 3.0082,-17.978z"/>
  <path class="fil2" d="M44.7187 37.4802c-6.6266,10.6043 -20.5945,13.8293 -31.1989,7.2027 -10.6043,-6.6263 -13.8291,-20.5945 -7.2029,-31.1988 6.6264,-10.6044 20.5945,-13.8291 31.1988,-7.2029 10.6043,6.6265 13.8293,20.5946 7.203,31.199z"/>
  <path class="fil1" d="M13.6535 6.4003c-3.1643,0.7303 -5.8546,2.6494 -7.5754,5.4033 -1.249,1.9986 -1.8443,4.2235 -1.8443,6.4228 0,4.0566 2.0255,8.0266 5.7119,10.33 0.6763,0.4227 1.3874,0.7737 2.1246,1.0545 -1.3992,2.1294 -9.1452,13.9182 -9.1452,13.9182l12 -0.0527c0,0 4.2814,-6.8323 7.6514,-12.2098 -0.0567,0.4734 -0.0913,0.9495 -0.0913,1.4284 0,0.9177 0.1046,1.8417 0.3161,2.7581 0.7305,3.1643 2.6495,5.8546 5.4033,7.5754 2.7541,1.7208 6.0131,2.2662 9.1775,1.5358 3.1643,-0.7307 5.8545,-2.6496 7.5754,-5.4036 1.2488,-1.9985 1.8441,-4.2233 1.8441,-6.4227 0,-4.0566 -2.0254,-8.0265 -5.712,-10.3301 -0.6759,-0.4225 -1.3869,-0.7736 -2.1245,-1.0544 1.3994,-2.1294 9.1453,-13.9183 9.1453,-13.9183l-11.9999 0.0529c0,0 -4.2816,6.8321 -7.6513,12.2095 0.0565,-0.4731 0.091,-0.9494 0.091,-1.4283 0,-0.9176 -0.1044,-1.8419 -0.3159,-2.7581 -0.7307,-3.1642 -2.6496,-5.8545 -5.4036,-7.5753 -2.7538,-1.7208 -6.0128,-2.2662 -9.1772,-1.5356zm1.3369 14.0832l0 0c-0.5977,-0.3735 -1.0141,-0.9572 -1.1727,-1.644 -0.1585,-0.6866 -0.0402,-1.3939 0.3333,-1.9913 0.7708,-1.2337 2.4017,-1.6101 3.6353,-0.8392 0.8028,0.5016 1.2442,1.3532 1.2442,2.2303 0,0.45 -0.1168,0.9064 -0.3599,1.326 -0.035,0.0531 -0.1326,0.2019 -0.1674,0.255 -0.8132,1.0957 -2.353,1.3879 -3.5128,0.6632zm21.0549 9.9973l0 0c0.5974,0.3734 1.0139,0.9574 1.1724,1.644 0.1585,0.6866 0.0403,1.3939 -0.3331,1.9912 -0.771,1.2337 -2.4016,1.6103 -3.6353,0.8393 -0.8031,-0.5016 -1.2444,-1.3532 -1.2444,-2.2304 0,-0.4499 0.1172,-0.9064 0.3601,-1.326 0.0347,-0.053 0.1326,-0.2019 0.1674,-0.2549 0.8134,-1.0956 2.353,-1.3877 3.5129,-0.6632z"/>
  <path class="fil0" d="M40.4671 23.4042c-1.06,-0.6625 -2.1893,-1.1213 -3.3428,-1.3884l8.8023 -13.3962 -9.1643 0.0405 -11.4291 18.2381c-3.2141,5.1439 -1.6498,11.9197 3.494,15.134 5.1438,3.2143 11.9196,1.6498 15.1339,-3.494 3.2143,-5.1439 1.6499,-11.9197 -3.494,-15.134zm-2.5862 11.3344l0 0c-1.1159,1.7859 -3.4685,2.3289 -5.2541,1.213 -1.7543,-1.0959 -2.3082,-3.3848 -1.2699,-5.158l0.2195 -0.3338c1.1692,-1.5937 3.3875,-2.0399 5.0915,-0.9753 1.7856,1.1162 2.3289,3.4685 1.213,5.2541zm-15.6727 -25.8064l0 0c-5.1437,-3.2142 -11.9197,-1.65 -15.134,3.4939 -3.2142,5.144 -1.6496,11.9198 3.4942,15.1339 1.0601,0.6625 2.1894,1.1214 3.3428,1.3884l-8.802 13.3963 9.1639 -0.0403 11.429 -18.2382c3.2143,-5.1439 1.6499,-11.9198 -3.4939,-15.134zm-2.5297 11.2386l0 0 -0.2191 0.3337c-1.1697,1.5937 -3.3879,2.0398 -5.0915,0.9753 -1.786,-1.1161 -2.3291,-3.4683 -1.2132,-5.2541 1.116,-1.786 3.4683,-2.3289 5.2541,-1.213 1.7542,1.096 2.3082,3.3848 1.2697,5.1581z"/>
 </g>
</svg>
