<?xml version="1.0" encoding="UTF-8" standalone="no"?>
<svg
   version="1.1"
   width="490.5141"
   height="595.8006"
   id="svg31"
   viewBox="0 0 490.5141 595.8006"
   sodipodi:docname="33b5e5ab40fba247ee63475c512fc776.cdr"
   xmlns:inkscape="http://www.inkscape.org/namespaces/inkscape"
   xmlns:sodipodi="http://sodipodi.sourceforge.net/DTD/sodipodi-0.dtd"
   xmlns="http://www.w3.org/2000/svg"
   xmlns:svg="http://www.w3.org/2000/svg">
  <defs
     id="defs35" />
  <sodipodi:namedview
     id="namedview33"
     pagecolor="#ffffff"
     bordercolor="#666666"
     borderopacity="1.0"
     inkscape:pageshadow="2"
     inkscape:pageopacity="0.0"
     inkscape:pagecheckerboard="0" />
  <g
     id="Layer1000"
     transform="translate(-52.3807,-123.0446)">
    <path
       d="M 542.8948,123.0446 V 598.046 c 0,66.687 -118.3063,67.4601 -119.5058,67.4601 -45.621,0 -86.5182,14.8477 -113.9924,41.8002 l -11.7573,11.5389 -11.7596,-11.5531 C 258.4025,680.3395 217.506,665.4919 171.8851,665.4919 170.6878,665.5114 52.3807,664.7375 52.3807,598.046 V 123.0446 h 490.5126 z m 0,0 z"
       style="fill:#00273e;fill-rule:evenodd"
       id="path2" />
    <path
       d="m 526.2126,139.7419 v 458.2988 c 0,10.3198 -3.9604,18.5259 -12.4644,25.8228 -7.9245,6.7963 -19.4394,12.4209 -34.2278,16.7183 -27.5305,7.9981 -55.8732,8.2241 -56.1157,8.2241 -50.4333,0 -95.068,16.5396 -125.6941,46.5848 l -0.0593,0.0578 -0.0676,-0.0676 c -30.6186,-30.0347 -75.2548,-46.5743 -125.6468,-46.5743 -0.2838,0 -28.6227,-0.2244 -56.1533,-8.224 -14.7899,-4.2974 -26.3047,-9.922 -34.2292,-16.7183 C 73.0504,616.5673 69.09,608.3613 69.09,598.0415 V 139.7231 l 457.1068,-10e-4 z m 0,0 z"
       style="fill:#029cdc;fill-rule:evenodd"
       id="path4" />
    <path
       d="m 133.775,270.945 v 357.884 c 19.8567,4.0062 37.3617,4.2742 38.2234,4.2839 9.299,0.002 18.4185,0.536 27.3241,1.5771 V 270.9465 l -65.5475,7e-4 z"
       style="fill:#ffffff;fill-rule:evenodd"
       id="path6" />
    <path
       d="m 264.8693,270.945 v 382.5711 c 11.8406,5.8055 22.8315,12.7865 32.7775,20.8971 9.946,-8.1069 20.9309,-15.0879 32.77,-20.8888 V 270.9532 h -65.5393 z"
       style="fill:#ffffff;fill-rule:evenodd"
       id="path8" />
    <path
       d="m 395.968,270.945 v 363.7631 c 8.9132,-1.0427 18.047,-1.5786 27.3579,-1.5809 0.8542,-0.01 18.3472,-0.2837 38.1896,-4.2839 V 270.9592 h -65.5632 z"
       style="fill:#ffffff;fill-rule:evenodd"
       id="path10" />
    <path
       d="m 133.8981,270.945 0.0375,358.0432 c 19.9754,3.9003 37.0239,3.9724 37.9112,3.9724 h 1.1147 c 9.0347,0 17.8547,0.4886 26.4819,1.4517 V 270.927 c -23.7729,0.0195 -45.9828,0.0195 -65.5453,0.0195 z"
       style="fill:#ffffff;fill-rule:evenodd"
       id="path12" />
    <path
       d="m 264.9293,270.945 v 382.3925 0.0495 c 11.9818,6.0652 23.0365,13.426 32.996,22.0711 9.7868,-8.2901 20.6966,-15.4332 32.4817,-21.37 V 270.9412 h -65.4604 z"
       style="fill:#ffffff;fill-rule:evenodd"
       id="path14" />
    <path
       d="m 395.908,270.945 v 363.7826 c 8.826,-1.0727 17.8623,-1.6049 27.0178,-1.6049 l 0.6478,8e-4 c 10.151,-0.0976 23.9838,-1.3047 37.8143,-4.01 V 270.951 H 395.908 Z"
       style="fill:#ffffff;fill-rule:evenodd"
       id="path16" />
    <path
       d="m 133.167,185.9468 h -16.7581 v 18.1483 h 16.1958 c 9.5189,0 13.5469,-2.965 13.5469,-9.4341 0,-5.8114 -3.6346,-8.7149 -12.9846,-8.7149 z m 12.7526,24.9168 -0.0773,0.1885 21.3483,24.4919 h -17.6701 l -16.274,-21.5502 h -16.8398 v 21.5502 h -14.603 v -60.4769 h 31.8482 c 18.381,0 27.749,7.0245 27.749,18.9409 0,8.155 -5.5691,15.2688 -15.4813,16.8556 z"
       style="fill:#ffffff;fill-rule:evenodd"
       id="path18" />
    <path
       d="m 207.2283,190.6196 -10.7522,21.8662 26.8452,7e-4 -10.4985,-21.8662 -2.6273,-5.9638 -0.2259,-8e-4 -2.7406,5.9639 z m 21.2566,32.6664 h -37.3016 l -5.9976,12.2557 -15.6306,8e-4 32.4299,-60.4769 h 16.1906 l 32.6642,60.4769 H 234.382 l -5.8963,-12.2557 z"
       style="fill:#ffffff;fill-rule:evenodd"
       id="path20" />
    <path
       d="m 307.7879,188.6897 c -4.9031,-1.5313 -11.2551,-2.8164 -18.6346,-2.8164 -17.4735,0 -23.6085,5.9661 -23.6085,19.2742 0,14.0272 6.3655,19.7531 23.9613,19.7531 6.9074,0 13.1099,-1.3601 18.2818,-3.4634 l 1.8669,10.6373 c -6.0457,2.655 -14.1999,4.6675 -21.9435,4.6675 -25.139,0 -37.4788,-11.7535 -37.4788,-31.5937 0,-18.4643 11.7596,-31.292 38.7136,-31.292 7.4156,0 15.3341,1.4577 20.44,3.227 l -1.5892,11.6064 z"
       style="fill:#ffffff;fill-rule:evenodd"
       id="path22" />
    <path
       d="m 320.8558,235.544 h 14.7583 v -60.4769 h -14.7583 z"
       style="fill:#ffffff;fill-rule:evenodd"
       id="path24" />
    <path
       d="m 408.3213,235.544 -39.3433,-37.4923 -4.5879,-4.5894 -0.2387,0.0728 0.1591,6.5268 v 35.4821 h -13.3066 v -60.4769 h 12.2737 l 36.8017,35.985 4.627,4.6614 0.1591,-0.1711 -0.1591,-6.4525 v -34.0228 h 13.2075 v 60.4769 z"
       style="fill:#ffffff;fill-rule:evenodd"
       id="path26" />
    <path
       d="m 493.4824,232.9603 c -6.4248,2.3412 -15.9662,3.871 -24.8177,3.871 -27.8323,0 -39.6774,-11.9997 -39.6774,-31.3693 0,-19.35 11.9562,-31.6057 39.6774,-31.6057 8.212,0 16.9945,1.2115 23.4673,3.3223 l -1.4615,11.749 c -6.2184,-2.0057 -13.6955,-3.227 -21.3085,-3.227 -18.2736,0 -25.0399,5.5946 -25.0399,19.5205 0,13.5708 6.1072,19.6818 23.8501,19.6818 4.8379,0 9.0145,-0.5622 12.6551,-1.6146 v -19.1932 h 12.6551 z"
       style="fill:#ffffff;fill-rule:evenodd"
       id="path28" />
  </g>
</svg>
