<?xml version="1.0" encoding="UTF-8"?>
<!DOCTYPE svg PUBLIC "-//W3C//DTD SVG 1.1//EN" "http://www.w3.org/Graphics/SVG/1.1/DTD/svg11.dtd">
<!-- Creator: CorelDRAW -->
<svg xmlns="http://www.w3.org/2000/svg" xml:space="preserve" width="1880px" height="1457px" style="shape-rendering:geometricPrecision; text-rendering:geometricPrecision; image-rendering:optimizeQuality; fill-rule:evenodd; clip-rule:evenodd"
viewBox="0 0 2039.57 1579.9"
 xmlns:xlink="http://www.w3.org/1999/xlink">
 <defs>
  <style type="text/css">
   <![CDATA[
    .fil0 {fill:#262A4F}
   ]]>
  </style>
 </defs>
 <g id="Ebene_x0020_1">
  <metadata id="CorelCorpID_0Corel-Layer"/>
  <path class="fil0" d="M1810.53 1279.91l62.7288 0 53.2671 157.368 52.0308 -157.368 61.0135 0 -78.6778 213.31c-12.0431,27.8653 -25.6708,66.1044 -40.7538,86.6856l-65.109 -0.130666c16.7612,-24.8855 36.1216,-64.4185 40.2414,-77.5748l-84.741 -222.29zm-70.6278 91.8047c-0.426587,-16.9405 -4.82953,-29.8701 -13.2076,-38.6862 -8.38058,-8.87507 -18.5815,-13.2511 -30.6182,-13.2511 -12.8796,0 -23.5174,4.64762 -31.8916,13.9365 -8.37802,9.35802 -12.5119,22.0211 -12.4043,38.0009l88.1217 0zm-3.32559 59.3085l58.691 9.78076c-7.51588,21.4242 -19.4385,37.778 -35.7642,48.9461 -16.2667,11.2207 -36.6711,16.8329 -61.1122,16.8329 -38.7708,0 -67.4482,-12.608 -86.0297,-37.778 -14.6603,-20.1982 -22.0147,-45.6308 -22.0147,-76.4129 0,-36.7121 9.66547,-65.5138 28.9426,-86.2988 19.2835,-20.84 43.7118,-31.2075 73.1988,-31.2075 33.1342,-0.00384313 59.2841,10.9042 78.4562,32.6538 19.1708,21.7995 28.352,55.1425 27.4937,100.078l-147.677 -0.00256209c0.426587,17.4286 5.14851,30.9462 14.2798,40.618 9.07619,9.67572 20.4083,14.4809 33.9412,14.4809 9.23888,0 17.0238,-2.45704 23.306,-7.48385 6.28608,-5.01913 11.0657,-13.0884 14.2888,-24.2066zm-392.458 70.5381l-58.9715 0 0 -221.651 54.7748 0 0 31.4714c6.40009,-10.1676 12.8886,-19.2861 21.5113,-26.1128 7.61068,-6.02603 16.9559,-10.3893 28.4917,-10.3893 7.48129,-0.00384313 15.1829,1.72428 22.7129,4.43113l-0.0269019 58.6c-9.93577,-6.41546 -20.5441,-10.4418 -29.0822,-10.4418 -8.21789,-0.00256209 -15.2009,2.29307 -20.9438,6.78312 -5.7506,4.54002 -10.256,12.7195 -13.5342,24.5307 -3.27563,11.8074 -4.93586,36.6007 -4.93586,74.33l0.00384313 68.4487zm-163.104 -72.1445l58.6961 9.78076c-7.52229,21.4216 -19.4373,37.778 -35.7667,48.9461 -16.2705,11.2207 -36.6724,16.8329 -61.1134,16.8329 -38.7631,0 -67.4405,-12.6119 -86.0233,-37.7818 -14.659,-20.1944 -22.0173,-45.6333 -22.0173,-76.4091 0,-36.7121 9.66675,-65.5138 28.94,-86.2988 19.2797,-20.8413 43.7143,-31.2088 73.1988,-31.2088 33.1303,-0.00256209 59.2867,10.9055 78.4549,32.6512 19.1695,21.8021 28.3533,55.1425 27.4937,100.079l-147.68 -0.00384313c0.432993,17.426 5.15748,30.9487 14.29,40.618 9.07875,9.67956 20.4045,14.4848 33.94,14.4848 9.23376,0 17.0238,-2.45704 23.3035,-7.48514 6.28864,-5.02425 11.0631,-13.0871 14.2836,-24.2053zm3.33071 -59.3149c-0.429149,-16.938 -4.83338,-29.8701 -13.214,-38.6811 -8.37162,-8.87507 -18.5777,-13.2562 -30.6054,-13.2562 -12.886,-0.00384313 -23.52,4.64762 -31.9005,13.9429 -8.37802,9.35674 -12.5094,22.0186 -12.3979,37.9945l88.1178 0zm-173.237 -80.201l0 41.4277 -43.4914 0 0 84.6296c0,18.1088 0.376627,28.6441 1.12732,31.6315 0.804495,3.20773 2.73887,5.69296 5.24459,7.4134 3.80726,2.62101 10.3982,3.53568 17.2377,3.48059 8.24736,-0.0717384 16.8637,-1.56159 21.3537,-3.18083l0.089673 42.5127c-13.6931,5.82618 -29.2129,8.76746 -46.5608,8.76746 -10.6314,0 -20.1892,-1.76143 -28.73,-5.34323 -8.53559,-3.52927 -14.7653,-8.12438 -18.7955,-13.7879 -3.96739,-5.61225 -6.64093,-13.2665 -8.26657,-22.8128 -1.16831,-6.85742 -1.88185,-20.6248 -1.88185,-41.3598l0 -91.9507 -34.9443 0 0 -41.4277 34.9443 0 0 -48.7463 59.1816 -34.2 0 82.9463 43.4914 0zm-170.006 211.66l-58.9626 0 0 -113.125c0,-23.9337 -1.23877,-39.4318 -3.7637,-46.4365 -2.52237,-7.05599 -6.60378,-12.5004 -12.2967,-16.4038 -5.63915,-3.8995 -12.4569,-5.8185 -20.4595,-5.8185 -10.2048,0 -19.3335,2.77474 -27.4425,8.33447 -8.10516,5.55973 -13.6931,12.9296 -16.6997,22.1198 -3.00917,9.1902 -4.51183,26.1832 -4.51183,50.9279l0 100.402 -58.9651 0 0 -221.651 54.7787 0 0 32.5436c19.4373,-25.0649 43.9244,-37.5679 73.4089,-37.5679 12.9936,-0.00384313 24.9137,2.30203 35.6578,7.00218 10.7889,4.65403 18.9005,10.5776 24.4321,17.8488 5.53154,7.21227 9.39773,15.4417 11.5448,24.6332 2.14831,9.14024 3.27947,22.3363 3.27947,39.4344l0 137.757zm-470.705 -115.587c0,-19.4475 4.83338,-38.3109 14.5001,-56.5299 9.66675,-18.283 23.306,-32.1734 41.0318,-41.7902 17.6643,-9.57067 37.4295,-14.3759 59.2316,-14.3759 33.7209,-0.00256209 61.3223,10.9055 82.8617,32.6512 21.5356,21.8021 32.3246,49.3214 32.3246,82.5568 0,33.5544 -10.9004,61.344 -32.6525,83.4113 -21.7483,22.0122 -49.1318,33.0791 -82.1046,33.0791 -20.4083,0 -39.9007,-4.59894 -58.4271,-13.7891 -18.529,-9.18764 -32.5987,-22.6514 -42.2655,-40.3964 -9.66675,-17.7437 -14.5001,-39.3255 -14.5001,-64.8169zm60.4153 3.15137c0,21.9596 5.26253,38.799 15.7351,50.4974 10.5251,11.6998 23.4149,17.5285 38.8259,17.5285 15.3559,0 28.3008,-5.82875 38.7182,-17.5285 10.4174,-11.7023 15.6274,-28.6403 15.6274,-50.9202 0,-21.6906 -5.21,-38.4249 -15.6274,-50.1247 -10.4174,-11.6498 -23.3624,-17.5272 -38.7182,-17.5272 -15.4109,0 -28.3008,5.87743 -38.8259,17.5272 -10.4725,11.6972 -15.7351,28.5391 -15.7351,50.5474zm-430.812 112.436l0 -306.025 106.091 0 63.6819 208.772 62.9453 -208.772 106.338 0 0 306.025 -65.8879 0 0 -240.889 -69.626 240.889 -68.2758 0 -69.38 -240.889 0 240.889 -65.8866 0zm1505.16 0l-58.9651 0 0 -221.651 54.7748 0 0 31.4714c6.40009,-10.1676 12.8835,-19.2861 21.5087,-26.1128 7.61452,-6.02603 16.9559,-10.3893 28.4955,-10.3893 7.48129,-0.00384313 15.1791,1.72428 22.7065,4.43113l-0.0243398 58.6c-9.93193,-6.41546 -20.5377,-10.4418 -29.0861,-10.4418 -8.21277,-0.00256209 -15.1906,2.29307 -20.9322,6.78312 -5.75445,4.54002 -10.2637,12.7195 -13.5393,24.5307 -3.27563,11.8074 -4.94098,36.6007 -4.94098,74.33l0.00256209 68.4487zm-857.09 -349.065l-80.9555 -303.09 -85.3687 294.52 -473.787 -119.515 285.98 -1024.41 584.769 0 130.232 379.248 130.23 -379.248 584.768 0 285.979 1024.41 -473.786 119.515 -85.3738 -294.52 -80.9491 303.09 -721.737 0z"/>
 </g>
</svg>
