<?xml version="1.0" encoding="UTF-8"?>
<svg xmlns="http://www.w3.org/2000/svg" xmlns:xlink="http://www.w3.org/1999/xlink" width="535.26pt" height="285.42pt" viewBox="0 0 535.26 285.42" version="1.1">
<g id="surface1">
<path style=" stroke:none;fill-rule:nonzero;fill:rgb(13.699341%,12.199402%,12.5%);fill-opacity:1;" d="M 346.996094 250.953125 C 366.871094 272.15625 395.117188 285.421875 426.402344 285.421875 C 486.429688 285.421875 535.261719 236.585938 535.261719 176.558594 C 535.261719 116.53125 486.429688 67.695313 426.402344 67.695313 C 420.046875 67.695313 413.816406 68.242188 407.757813 69.292969 L 407.621094 69.074219 C 375.3125 27.09375 324.578125 -0.00390625 267.632813 -0.00390625 C 210.726563 -0.00390625 160.023438 27.058594 127.710938 68.984375 L 127.472656 69.285156 C 121.425781 68.242188 115.203125 67.695313 108.863281 67.695313 C 48.835938 67.695313 0 116.53125 0 176.558594 C 0 236.585938 48.835938 285.421875 108.863281 285.421875 C 140.113281 285.421875 168.328125 272.183594 188.199219 251.027344 L 188.570313 251.320313 C 208.429688 272.308594 236.527344 285.421875 267.632813 285.421875 C 298.75 285.421875 326.859375 272.296875 346.714844 251.296875 L 346.996094 250.953125 "/>
<path style=" stroke:none;fill-rule:nonzero;fill:rgb(66.699219%,59.199524%,36.499023%);fill-opacity:1;" d="M 388.976563 231.941406 C 410.625 243.769531 432.132813 245.488281 449.539063 236.78125 C 461.289063 230.902344 469.402344 221.328125 472.386719 209.820313 C 474.976563 199.828125 473.382813 189.195313 468.121094 181.363281 C 461.042969 170.824219 449.660156 166.179688 438.605469 162.324219 C 430.617188 159.539063 424.773438 157.066406 420.753906 155.058594 C 416.59375 152.984375 413.140625 149.492188 412.617188 144.265625 C 412.140625 139.503906 413.808594 134.414063 420.015625 131.671875 C 426.222656 128.925781 434.523438 130.21875 439.03125 131.832031 C 447.144531 134.738281 451.679688 139.503906 451.679688 139.503906 L 465.101563 125.855469 C 460.3125 121.152344 454.761719 117.464844 448.441406 114.800781 C 442.117188 112.132813 435.738281 110.800781 429.296875 110.800781 C 418.546875 110.800781 409.886719 113.691406 403.332031 119.46875 C 396.773438 125.242188 393.492188 132.851563 393.492188 142.296875 C 393.492188 149.523438 394.160156 155.117188 399.726563 162.566406 C 404.394531 168.808594 412.03125 173.542969 432.398438 180.648438 C 443.535156 184.53125 449.160156 187.539063 452.34375 192.273438 C 456.257813 198.101563 456.160156 211.867188 441.097656 219.402344 C 426.035156 226.9375 409.0625 220.910156 398.03125 214.878906 L 388.976563 231.941406 "/>
<path style=" stroke:none;fill-rule:nonzero;fill:rgb(66.699219%,59.199524%,36.499023%);fill-opacity:1;" d="M 212.632813 176.558594 C 212.632813 233.871094 166.171875 280.328125 108.863281 280.328125 C 51.550781 280.328125 5.09375 233.871094 5.09375 176.558594 C 5.09375 119.246094 51.550781 72.789063 108.863281 72.789063 C 166.171875 72.789063 212.632813 119.246094 212.632813 176.558594 M 108.863281 270.144531 C 160.464844 270.144531 202.449219 228.160156 202.449219 176.558594 C 202.449219 124.953125 160.464844 82.972656 108.863281 82.972656 C 57.257813 82.972656 15.277344 124.953125 15.277344 176.558594 C 15.277344 228.160156 57.257813 270.144531 108.863281 270.144531 "/>
<path style=" stroke:none;fill-rule:nonzero;fill:rgb(66.699219%,59.199524%,36.499023%);fill-opacity:1;" d="M 199.003906 41.476563 L 192.007813 45.335938 C 191.679688 45.515625 191.496094 45.882813 191.546875 46.253906 L 196.324219 81.945313 C 196.363281 82.242188 196.546875 82.503906 196.816406 82.640625 C 197.085938 82.773438 197.40625 82.769531 197.667969 82.621094 L 203.410156 79.453125 C 203.703125 79.292969 203.882813 78.984375 203.882813 78.65625 C 203.882813 78.609375 203.878906 78.5625 203.871094 78.515625 C 203.871094 78.515625 202.847656 71.871094 202.679688 70.792969 C 203.652344 70.257813 213.375 64.894531 214.359375 64.351563 C 215.183594 65.085938 220.152344 69.523438 220.152344 69.523438 C 220.441406 69.78125 220.863281 69.828125 221.199219 69.640625 L 227.449219 66.195313 C 227.714844 66.050781 227.886719 65.785156 227.914063 65.484375 C 227.945313 65.183594 227.824219 64.890625 227.59375 64.695313 L 200.027344 41.578125 C 199.738281 41.335938 199.332031 41.296875 199.003906 41.476563 M 199.820313 51.503906 C 202.234375 53.636719 207.644531 58.40625 209.007813 59.609375 C 207.476563 60.453125 203.179688 62.824219 201.632813 63.679688 C 201.359375 61.855469 200.292969 54.695313 199.820313 51.503906 "/>
<path style=" stroke:none;fill-rule:nonzero;fill:rgb(66.699219%,59.199524%,36.499023%);fill-opacity:1;" d="M 270.71875 24.230469 L 251.246094 25.273438 C 250.742188 25.300781 250.359375 25.730469 250.386719 26.230469 L 252.175781 59.742188 C 252.203125 60.246094 252.632813 60.632813 253.136719 60.605469 L 259.777344 60.25 C 260.019531 60.234375 260.246094 60.128906 260.40625 59.949219 C 260.558594 59.78125 260.640625 59.5625 260.640625 59.339844 C 260.640625 59.320313 259.996094 47.234375 259.910156 45.632813 C 261.46875 45.550781 271.226563 45.027344 271.226563 45.027344 C 271.710938 45.003906 272.089844 44.601563 272.089844 44.117188 C 272.089844 44.101563 271.824219 39.164063 271.824219 39.164063 C 271.8125 38.921875 271.703125 38.695313 271.523438 38.53125 C 271.34375 38.371094 271.105469 38.289063 270.867188 38.300781 C 270.867188 38.300781 261.109375 38.820313 259.550781 38.90625 C 259.480469 37.59375 259.230469 32.90625 259.160156 31.59375 C 260.730469 31.511719 271.078125 30.957031 271.078125 30.957031 C 271.320313 30.945313 271.546875 30.835938 271.710938 30.65625 C 271.859375 30.488281 271.941406 30.269531 271.941406 30.046875 C 271.941406 30.03125 271.679688 25.09375 271.679688 25.09375 C 271.652344 24.589844 271.222656 24.203125 270.71875 24.230469 "/>
<path style=" stroke:none;fill-rule:nonzero;fill:rgb(66.699219%,59.199524%,36.499023%);fill-opacity:1;" d="M 316.164063 36.777344 C 311.613281 38.59375 308.234375 42.109375 306.121094 47.234375 C 305.03125 49.867188 304.488281 52.417969 304.488281 54.867188 C 304.488281 57.1875 304.976563 59.414063 305.953125 61.539063 C 307.945313 65.878906 311.765625 69.234375 317.304688 71.523438 C 318.851563 72.160156 321.1875 72.652344 324.441406 73.03125 L 326.300781 73.269531 C 326.746094 73.328125 327.167969 73.050781 327.292969 72.621094 L 328.796875 67.484375 C 328.875 67.222656 328.84375 66.9375 328.6875 66.710938 C 328.53125 66.484375 328.296875 66.34375 328.023438 66.320313 L 325.894531 66.160156 C 323.347656 66.019531 321.527344 65.730469 320.476563 65.296875 C 317.21875 63.953125 315.070313 61.96875 313.90625 59.230469 C 312.746094 56.496094 312.808594 53.648438 314.09375 50.523438 C 315.445313 47.25 317.488281 44.992188 320.167969 43.820313 C 322.871094 42.640625 325.742188 42.707031 328.945313 44.027344 C 330.453125 44.648438 332.40625 46.078125 334.753906 48.277344 C 334.742188 48.269531 335.140625 48.648438 335.140625 48.648438 C 335.351563 48.84375 335.636719 48.929688 335.921875 48.882813 C 336.203125 48.832031 336.445313 48.648438 336.574219 48.394531 L 339 43.636719 C 339.199219 43.246094 339.09375 42.769531 338.746094 42.503906 L 337.191406 41.300781 C 334.722656 39.339844 332.703125 38.042969 331.023438 37.351563 C 325.707031 35.15625 320.710938 34.964844 316.164063 36.777344 "/>
<path style=" stroke:none;fill-rule:nonzero;fill:rgb(66.699219%,59.199524%,36.499023%);fill-opacity:1;" d="M 86.550781 218.0625 L 86.550781 135.121094 L 86.703125 134.976563 C 93.3125 131.441406 100.855469 129.433594 108.863281 129.433594 C 134.847656 129.433594 155.984375 150.574219 155.984375 176.558594 C 155.984375 202.542969 134.847656 223.683594 108.863281 223.683594 C 100.90625 223.683594 93.40625 221.699219 86.828125 218.207031 L 86.550781 218.0625 M 175.078125 176.558594 C 175.078125 140.046875 145.375 110.339844 108.863281 110.339844 C 88.59375 110.339844 70.421875 119.492188 58.269531 133.882813 C 56.3125 136.195313 54.515625 138.644531 52.890625 141.207031 C 52.664063 141.566406 52.671875 142.28125 53.449219 142.269531 C 55.082031 142.246094 58.148438 142.222656 61.519531 142.292969 C 65.34375 142.375 67.460938 142.71875 67.460938 144.945313 L 67.460938 208.171875 C 67.460938 210.398438 65.34375 210.742188 61.519531 210.824219 C 58.148438 210.894531 55.082031 210.871094 53.449219 210.847656 C 52.671875 210.835938 52.664063 211.550781 52.890625 211.910156 C 54.515625 214.476563 56.3125 216.921875 58.269531 219.234375 C 70.421875 233.625 88.59375 242.777344 108.863281 242.777344 C 145.375 242.777344 175.078125 213.070313 175.078125 176.558594 "/>
<path style=" stroke:none;fill-rule:nonzero;fill:rgb(1.599121%,35.299683%,66.299438%);fill-opacity:1;" d="M 20.367188 176.558594 C 20.367188 127.761719 60.066406 88.0625 108.863281 88.0625 C 157.65625 88.0625 197.355469 127.761719 197.355469 176.558594 C 197.355469 225.355469 157.65625 265.054688 108.863281 265.054688 C 60.066406 265.054688 20.367188 225.355469 20.367188 176.558594 M 108.863281 133.253906 C 132.738281 133.253906 152.164063 152.679688 152.164063 176.558594 C 152.164063 200.4375 132.738281 219.863281 108.863281 219.863281 C 102.460938 219.863281 96.128906 218.359375 90.371094 215.628906 C 90.371094 211.183594 90.371094 141.828125 90.371094 137.488281 C 96.128906 134.757813 102.457031 133.253906 108.863281 133.253906 M 55.351563 131.417969 C 53.285156 133.859375 51.375 136.46875 49.664063 139.164063 C 48.769531 140.578125 48.707031 142.414063 49.503906 143.847656 C 50.304688 145.273438 51.800781 146.113281 53.503906 146.089844 L 61.4375 146.113281 C 62.476563 146.132813 63.160156 146.179688 63.640625 146.226563 C 63.640625 148.636719 63.640625 204.480469 63.640625 206.890625 C 63.160156 206.9375 62.476563 206.984375 61.4375 207.007813 C 61.429688 207.007813 53.507813 207.027344 53.507813 207.027344 C 51.800781 207.003906 50.304688 207.84375 49.503906 209.269531 C 48.707031 210.699219 48.769531 212.539063 49.664063 213.953125 C 51.375 216.648438 53.285156 219.253906 55.351563 221.699219 C 68.714844 237.519531 88.21875 246.597656 108.863281 246.597656 C 147.480469 246.597656 178.898438 215.175781 178.898438 176.558594 C 178.898438 137.941406 147.480469 106.519531 108.863281 106.519531 C 88.21875 106.519531 68.71875 115.597656 55.351563 131.417969 "/>
<path style=" stroke:none;fill-rule:nonzero;fill:rgb(66.699219%,59.199524%,36.499023%);fill-opacity:1;" d="M 282.058594 204.136719 C 286.722656 222.171875 289.019531 239.234375 289.019531 239.234375 C 293.671875 237.640625 298.09375 235.542969 302.21875 233.007813 C 302.21875 233.007813 302 215.382813 306.667969 184.832031 C 311.335938 154.28125 318.226563 133.882813 318.226563 133.882813 C 311.65625 126.105469 303.332031 119.859375 293.867188 115.761719 C 293.867188 115.761719 294.785156 136.035156 293.300781 153.855469 C 292.132813 167.867188 289.480469 178.46875 289.480469 178.46875 C 289.480469 178.46875 282.480469 157.464844 267.632813 135.1875 C 252.78125 157.464844 245.777344 178.46875 245.777344 178.46875 C 245.777344 178.46875 243.128906 167.867188 241.960938 153.855469 C 240.476563 136.035156 241.394531 115.761719 241.394531 115.761719 C 231.933594 119.859375 223.605469 126.105469 217.035156 133.882813 C 217.035156 133.882813 223.925781 154.28125 228.59375 184.832031 C 233.261719 215.382813 233.042969 233.007813 233.042969 233.007813 C 237.167969 235.542969 241.589844 237.640625 246.242188 239.234375 C 246.242188 239.234375 248.539063 222.171875 253.203125 204.136719 C 257.871094 186.105469 267.632813 170.40625 267.632813 170.40625 C 267.632813 170.40625 277.390625 186.105469 282.058594 204.136719 "/>
<path style=" stroke:none;fill-rule:nonzero;fill:rgb(66.699219%,59.199524%,36.499023%);fill-opacity:1;" d="M 239.320313 60.613281 C 239.320313 62.667969 237.652344 64.335938 235.597656 64.335938 C 233.539063 64.335938 231.871094 62.667969 231.871094 60.613281 C 231.871094 58.554688 233.539063 56.890625 235.597656 56.890625 C 237.652344 56.890625 239.320313 58.554688 239.320313 60.613281 "/>
<path style=" stroke:none;fill-rule:nonzero;fill:rgb(66.699219%,59.199524%,36.499023%);fill-opacity:1;" d="M 284.03125 56.632813 C 284.03125 58.691406 282.367188 60.355469 280.308594 60.355469 C 278.253906 60.355469 276.585938 58.691406 276.585938 56.632813 C 276.585938 54.578125 278.253906 52.910156 280.308594 52.910156 C 282.367188 52.910156 284.03125 54.578125 284.03125 56.632813 "/>
<path style=" stroke:none;fill-rule:nonzero;fill:rgb(66.699219%,59.199524%,36.499023%);fill-opacity:1;" d="M 341.472656 78.273438 C 341.472656 80.332031 339.808594 81.996094 337.75 81.996094 C 335.695313 81.996094 334.027344 80.332031 334.027344 78.273438 C 334.027344 76.21875 335.695313 74.550781 337.75 74.550781 C 339.808594 74.550781 341.472656 76.21875 341.472656 78.273438 "/>
<path style=" stroke:none;fill-rule:nonzero;fill:rgb(66.699219%,59.199524%,36.499023%);fill-opacity:1;" d="M 402.140625 70.199219 C 370.734375 30.535156 322.15625 5.089844 267.632813 5.089844 C 213.195313 5.089844 164.6875 30.453125 133.277344 70.011719 L 132.96875 70.386719 C 136.621094 71.214844 140.203125 72.226563 143.710938 73.414063 L 143.914063 73.1875 C 173.523438 37.808594 217.996094 15.273438 267.632813 15.273438 C 317.273438 15.273438 361.75 37.816406 391.359375 73.203125 L 391.539063 73.421875 C 395.042969 72.234375 398.628906 71.21875 402.28125 70.390625 L 402.140625 70.199219 "/>
<path style=" stroke:none;fill-rule:nonzero;fill:rgb(66.699219%,59.199524%,36.499023%);fill-opacity:1;" d="M 197.992188 114.117188 C 195.996094 111.277344 193.871094 108.542969 191.625 105.910156 L 191.824219 105.695313 C 210.761719 85.445313 237.71875 72.789063 267.632813 72.789063 C 324.941406 72.789063 371.402344 119.246094 371.402344 176.558594 C 371.402344 233.871094 324.941406 280.328125 267.632813 280.328125 C 237.761719 280.328125 210.839844 267.707031 191.90625 247.507813 L 191.546875 247.292969 C 193.824219 244.636719 195.972656 241.871094 197.988281 239.007813 L 198.308594 239.367188 C 215.445313 258.261719 240.175781 270.144531 267.632813 270.144531 C 319.234375 270.144531 361.21875 228.160156 361.21875 176.558594 C 361.21875 124.953125 319.234375 82.972656 267.632813 82.972656 C 240.117188 82.972656 215.339844 94.90625 198.199219 113.871094 L 197.992188 114.117188 "/>
<path style=" stroke:none;fill-rule:nonzero;fill:rgb(66.699219%,59.199524%,36.499023%);fill-opacity:1;" d="M 357.011719 239.289063 C 374.148438 258.226563 398.910156 270.144531 426.402344 270.144531 C 478.003906 270.144531 519.988281 228.160156 519.988281 176.558594 C 519.988281 124.953125 478.003906 82.972656 426.402344 82.972656 C 398.960938 82.972656 374.242188 94.84375 357.109375 113.714844 L 356.742188 114.09375 C 354.742188 111.242188 352.605469 108.496094 350.347656 105.855469 L 350.714844 105.5625 C 369.648438 85.390625 396.554688 72.789063 426.402344 72.789063 C 483.710938 72.789063 530.171875 119.246094 530.171875 176.558594 C 530.171875 233.871094 483.710938 280.328125 426.402344 280.328125 C 396.5 280.328125 369.554688 267.683594 350.617188 247.445313 L 350.382813 247.21875 C 352.625 244.597656 354.746094 241.867188 356.734375 239.035156 L 357.011719 239.289063 "/>
<path style=" stroke:none;fill-rule:nonzero;fill:rgb(1.599121%,35.299683%,66.299438%);fill-opacity:1;" d="M 400.808594 116.601563 C 393.421875 123.105469 389.675781 131.75 389.675781 142.296875 C 389.675781 149.519531 390.199219 156.199219 396.667969 164.851563 C 402.175781 172.21875 411.199219 177.296875 431.140625 184.253906 C 441.953125 188.027344 446.671875 190.679688 449.171875 194.40625 C 450.445313 196.300781 451.261719 200 450.210938 203.992188 C 449.296875 207.449219 446.679688 212.339844 439.390625 215.988281 C 425.851563 222.757813 410.421875 217.300781 399.859375 211.527344 C 398.964844 211.039063 397.910156 210.929688 396.933594 211.222656 C 395.953125 211.515625 395.136719 212.1875 394.65625 213.089844 L 385.605469 230.152344 C 384.621094 232 385.3125 234.292969 387.144531 235.292969 C 409.921875 247.738281 432.6875 249.480469 451.25 240.195313 C 463.996094 233.816406 472.816406 223.371094 476.082031 210.777344 C 478.941406 199.75 477.152344 187.957031 471.289063 179.230469 C 463.558594 167.722656 451.523438 162.785156 439.863281 158.71875 C 432.84375 156.269531 426.824219 153.820313 422.460938 151.644531 C 418.78125 149.808594 416.746094 147.195313 416.414063 143.882813 C 416.003906 139.789063 417.734375 136.855469 421.558594 135.164063 C 426.308594 133.0625 433.277344 133.828125 437.742188 135.425781 C 444.816406 137.960938 448.886719 142.105469 448.925781 142.148438 C 449.640625 142.886719 450.632813 143.3125 451.660156 143.316406 C 452.6875 143.316406 453.683594 142.914063 454.402344 142.179688 L 467.824219 128.535156 C 468.535156 127.8125 468.929688 126.839844 468.921875 125.824219 C 468.910156 124.8125 468.5 123.84375 467.777344 123.132813 C 462.667969 118.109375 456.660156 114.121094 449.925781 111.28125 C 443.160156 108.429688 436.21875 106.980469 429.296875 106.980469 C 417.640625 106.980469 408.054688 110.21875 400.808594 116.601563 M 359.660156 234.660156 C 370.316406 217.835938 376.492188 197.902344 376.492188 176.558594 C 376.492188 155.304688 370.371094 135.449219 359.796875 118.675781 L 359.695313 118.464844 C 375.933594 99.847656 399.816406 88.0625 426.402344 88.0625 C 475.195313 88.0625 514.894531 127.761719 514.894531 176.558594 C 514.894531 225.355469 475.195313 265.054688 426.402344 265.054688 C 399.949219 265.054688 376.171875 253.386719 359.941406 234.929688 L 359.660156 234.660156 "/>
</g>
</svg>
