<?xml version="1.0" encoding="UTF-8" standalone="no"?>
<!-- Created with Inkscape (http://www.inkscape.org/) -->

<svg
   xmlns:dc="http://purl.org/dc/elements/1.1/"
   xmlns:cc="http://creativecommons.org/ns#"
   xmlns:rdf="http://www.w3.org/1999/02/22-rdf-syntax-ns#"
   xmlns:svg="http://www.w3.org/2000/svg"
   xmlns="http://www.w3.org/2000/svg"
   xmlns:sodipodi="http://sodipodi.sourceforge.net/DTD/sodipodi-0.dtd"
   xmlns:inkscape="http://www.inkscape.org/namespaces/inkscape"
   width="999.95654"
   height="999.75604"
   id="svg4173"
   version="1.1"
   inkscape:version="0.48.5 r10040"
   sodipodi:docname="A.svg">
  <defs
     id="defs4175">
    <clipPath
       clipPathUnits="userSpaceOnUse"
       id="clipPath4368">
      <path
         inkscape:connector-curvature="0"
         d="m 0,30.046 595.275,0 0,811.843 L 0,841.889 0,30.046 z"
         id="path4370" />
    </clipPath>
    <linearGradient
       x1="-124.755"
       y1="0"
       x2="124.755"
       y2="0"
       gradientUnits="userSpaceOnUse"
       gradientTransform="matrix(-0.9601288,0.0399017,-0.0399017,-0.9601288,698.71097,529.76053)"
       id="linearGradient5948">
      <stop
         style="stop-opacity:1;stop-color:#fff200"
         offset="0"
         id="stop5950" />
      <stop
         style="stop-opacity:1;stop-color:#fff870"
         offset="0.828125"
         id="stop5952" />
      <stop
         style="stop-opacity:1;stop-color:#fffde0"
         offset="1"
         id="stop5954" />
    </linearGradient>
    <linearGradient
       x1="-123.171"
       y1="0"
       x2="123.171"
       y2="0"
       gradientUnits="userSpaceOnUse"
       gradientTransform="matrix(-0.9586945,0.0660248,-0.0660248,-0.9586945,700.77902,534.09981)"
       id="linearGradient5926">
      <stop
         style="stop-opacity:1;stop-color:#ed1c24"
         offset="0"
         id="stop5928" />
      <stop
         style="stop-opacity:1;stop-color:#f57d64"
         offset="0.59375"
         id="stop5930" />
      <stop
         style="stop-opacity:1;stop-color:#feece3"
         offset="1"
         id="stop5932" />
    </linearGradient>
    <clipPath
       clipPathUnits="userSpaceOnUse"
       id="clipPath8182">
      <path
         inkscape:connector-curvature="0"
         d="m 617.953,521.575 122.882,0 0,45.354 -122.882,0 0,-45.354 z"
         id="path8184" />
    </clipPath>
    <clipPath
       clipPathUnits="userSpaceOnUse"
       id="clipPath9374">
      <path
         inkscape:connector-curvature="0"
         d="m 11.279,709.706 215.572,0 0,124.956 -215.572,0 0,-124.956 z"
         id="path9376" />
    </clipPath>
    <clipPath
       clipPathUnits="userSpaceOnUse"
       id="clipPath10240">
      <path
         inkscape:connector-curvature="0"
         d="m 155.934,544.252 116.192,0 0,37.417 -116.192,0 0,-37.417 z"
         id="path10242" />
    </clipPath>
    <linearGradient
       x1="0"
       y1="0"
       x2="1"
       y2="0"
       gradientUnits="userSpaceOnUse"
       gradientTransform="matrix(-66.441391,0,0,66.441406,554.08699,783.36581)"
       spreadMethod="pad"
       id="linearGradient10722">
      <stop
         style="stop-opacity:1;stop-color:#b5dc17"
         offset="0"
         id="stop10724" />
      <stop
         style="stop-opacity:1;stop-color:#0faa4b"
         offset="1"
         id="stop10726" />
    </linearGradient>
    <clipPath
       clipPathUnits="userSpaceOnUse"
       id="clipPath10702">
      <path
         inkscape:connector-curvature="0"
         d="m 476.221,695.904 89.291,0 0,138.899 -89.291,0 0,-138.899 z"
         id="path10704" />
    </clipPath>
    <clipPath
       clipPathUnits="userSpaceOnUse"
       id="clipPath11091">
      <path
         inkscape:connector-curvature="0"
         d="m 21.102,519.108 44.027,0 0,49.455 -44.027,0 0,-49.455 z"
         id="path11093" />
    </clipPath>
    <clipPath
       clipPathUnits="userSpaceOnUse"
       id="clipPath11099">
      <path
         inkscape:connector-curvature="0"
         d="m 21.102,568.563 44.027,0 0,-49.455 -44.027,0 0,49.455 z"
         id="path11101" />
    </clipPath>
    <clipPath
       clipPathUnits="userSpaceOnUse"
       id="clipPath11107">
      <path
         inkscape:connector-curvature="0"
         d="m 21.102,568.563 44.027,0 0,-49.455 -44.027,0 0,49.455 z"
         id="path11109" />
    </clipPath>
    <clipPath
       clipPathUnits="userSpaceOnUse"
       id="clipPath11115">
      <path
         inkscape:connector-curvature="0"
         d="m -6.967,614.668 100.167,0 0,-141.665 -100.167,0 0,141.665 z"
         id="path11117" />
    </clipPath>
    <clipPath
       clipPathUnits="userSpaceOnUse"
       id="clipPath13316">
      <path
         inkscape:connector-curvature="0"
         d="m 21.059,105.3575 59.783,0 0,59.782 -59.783,0 0,-59.782 z"
         id="path13318" />
    </clipPath>
  </defs>
  <sodipodi:namedview
     id="base"
     pagecolor="#ffffff"
     bordercolor="#666666"
     borderopacity="1.0"
     inkscape:pageopacity="0.0"
     inkscape:pageshadow="2"
     inkscape:zoom="0.39829999"
     inkscape:cx="673.09988"
     inkscape:cy="159.44909"
     inkscape:document-units="px"
     inkscape:current-layer="layer1"
     showgrid="false"
     fit-margin-left="0.5"
     fit-margin-bottom="0.5"
     fit-margin-top="0.5"
     fit-margin-right="0.5"
     inkscape:window-width="1061"
     inkscape:window-height="1021"
     inkscape:window-x="851"
     inkscape:window-y="-3"
     inkscape:window-maximized="0" />
  <metadata
     id="metadata4178">
    <rdf:RDF>
      <cc:Work
         rdf:about="">
        <dc:format>image/svg+xml</dc:format>
        <dc:type
           rdf:resource="http://purl.org/dc/dcmitype/StillImage" />
        <dc:title></dc:title>
      </cc:Work>
    </rdf:RDF>
  </metadata>
  <g
     inkscape:label="Layer 1"
     inkscape:groupmode="layer"
     id="layer1"
     transform="translate(-1200.9702,1903.6193)">
    <g
       transform="matrix(16.710688,0,0,-16.710688,849.50131,856.23309)"
       id="g13312">
      <g
         clip-path="url(#clipPath13316)"
         id="g13314">
        <path
           inkscape:connector-curvature="0"
           id="path13320"
           style="fill:#231f20;fill-opacity:1;fill-rule:nonzero;stroke:none"
           d="m 57.3486,123.6124 c -1.9749,-1.4086 -3.6215,-2.1719 -6.2231,-2.1929 l 0,24.3369 9.7065,0 0,-15.3019 c -0.0866,-2.3422 -1.657,-5.541 -3.4834,-6.8421" />
        <path
           inkscape:connector-curvature="0"
           id="path13322"
           style="fill:none;stroke:#231f20;stroke-width:0.2298;stroke-linecap:butt;stroke-linejoin:miter;stroke-miterlimit:3.86369991;stroke-opacity:1;stroke-dasharray:none"
           d="m 57.3486,123.6124 c -1.9749,-1.4086 -3.6215,-2.1719 -6.2231,-2.1929 l 0,24.3369 9.7065,0 0,-15.3019 c -0.0866,-2.3422 -1.657,-5.541 -3.4834,-6.8421 z" />
        <path
           inkscape:connector-curvature="0"
           id="path13324"
           style="fill:#d0b503;fill-opacity:1;fill-rule:nonzero;stroke:none"
           d="m 41.6079,137.7845 9.5176,0 0,7.9719 -9.5176,0 0,-7.9719 z" />
        <path
           inkscape:connector-curvature="0"
           id="path13326"
           style="fill:none;stroke:#231f20;stroke-width:0.2298;stroke-linecap:butt;stroke-linejoin:miter;stroke-miterlimit:3.86369991;stroke-opacity:1;stroke-dasharray:none"
           d="m 41.6079,137.7845 9.5176,0 0,7.9719 -9.5176,0 0,-7.9719 z" />
        <path
           inkscape:connector-curvature="0"
           id="path13328"
           style="fill:#c4161d;fill-opacity:1;fill-rule:nonzero;stroke:none"
           d="m 41.6079,129.8074 9.5176,0 0,7.9748 -9.5176,0 0,-7.9748 z" />
        <path
           inkscape:connector-curvature="0"
           id="path13330"
           style="fill:none;stroke:#231f20;stroke-width:0.2298;stroke-linecap:butt;stroke-linejoin:miter;stroke-miterlimit:3.86369991;stroke-opacity:1;stroke-dasharray:none"
           d="m 41.6079,129.8074 9.5176,0 0,7.9748 -9.5176,0 0,-7.9748 z" />
        <path
           inkscape:connector-curvature="0"
           id="path13332"
           style="fill:#d0b503;fill-opacity:1;fill-rule:nonzero;stroke:none"
           d="m 41.6079,129.8074 9.5176,0 0,-8.3897 c -2.4194,-0.005 -4.4643,0.8698 -6.2321,2.3602 -1.8503,1.5591 -3.1551,4.2431 -3.2855,6.0295" />
        <path
           inkscape:connector-curvature="0"
           id="path13334"
           style="fill:none;stroke:#231f20;stroke-width:0.2298;stroke-linecap:butt;stroke-linejoin:miter;stroke-miterlimit:3.86369991;stroke-opacity:1;stroke-dasharray:none"
           d="m 41.6079,129.8074 9.5176,0 0,-8.3897 c -2.4194,-0.005 -4.4643,0.8698 -6.2321,2.3602 -1.8503,1.5591 -3.1551,4.2431 -3.2855,6.0295 z" />
        <path
           inkscape:connector-curvature="0"
           id="path13336"
           style="fill:#d0b503;fill-opacity:1;fill-rule:nonzero;stroke:none"
           d="m 58.8076,127.2453 -1.6094,0 0,1.7341 c 0,0.6291 -0.6263,1.2972 -1.4134,1.2972 -0.809,0 -1.4248,-0.6881 -1.4248,-1.2972 l 0,-1.7341 -1.6046,0 0,4.2191 6.0522,0" />
        <path
           inkscape:connector-curvature="0"
           id="path13338"
           style="fill:#d0b503;fill-opacity:1;fill-rule:evenodd;stroke:none"
           d="m 53.336,140.0407 4.9034,0 0,-7.1315 -4.9034,0 0,7.1315 z m 2.8857,-1.0341 0,-2.5569 0.8879,0 0,2.5569 -0.8879,0 z m -1.7761,0 0,-2.5569 0.8881,0 0,2.5569" />
        <path
           inkscape:connector-curvature="0"
           id="path13340"
           style="fill:#d0b503;fill-opacity:1;fill-rule:nonzero;stroke:none"
           d="m 52.7554,141.1662 6.0522,0 -0.5892,-0.9095 -4.8986,0" />
        <path
           inkscape:connector-curvature="0"
           id="path13342"
           style="fill:#d0b503;fill-opacity:1;fill-rule:nonzero;stroke:none"
           d="m 53.3198,132.6531 4.9091,0 0.5787,-0.9089 -6.0551,0" />
        <path
           inkscape:connector-curvature="0"
           id="path13344"
           style="fill:#d0b503;fill-opacity:1;fill-rule:nonzero;stroke:none"
           d="m 55.1804,143.3009 1.2002,0 0,-1.1274 1.2268,0 0,1.1274 1.2002,0 0,-1.915 -6.0513,0 -9e-4,1.915 1.2001,0 0,-1.1274 1.2249,0" />
        <path
           inkscape:connector-curvature="0"
           id="path13346"
           style="fill:none;stroke:#c4161d;stroke-width:0.2924;stroke-linecap:butt;stroke-linejoin:miter;stroke-miterlimit:3.86369991;stroke-opacity:1;stroke-dasharray:none"
           d="m 23.4236,135.2481 c 0,15.2019 12.3243,27.5267 27.5267,27.5267 15.2029,0 27.5272,-12.3248 27.5272,-27.5267 0,-15.2029 -12.3243,-27.5263 -27.5272,-27.5263 -15.2024,0 -27.5267,12.3234 -27.5267,27.5263 z" />
        <path
           inkscape:connector-curvature="0"
           id="path13348"
           style="fill:none;stroke:#c4161d;stroke-width:0.48730001;stroke-linecap:butt;stroke-linejoin:miter;stroke-miterlimit:3.86369991;stroke-opacity:1;stroke-dasharray:none"
           d="m 25.6902,135.2481 c 0,13.9513 11.3093,25.2601 25.2601,25.2601 13.9505,0 25.2592,-11.3088 25.2592,-25.2601 0,-13.9504 -11.3087,-25.2602 -25.2592,-25.2602 -13.9508,0 -25.2601,11.3098 -25.2601,25.2602 z" />
        <path
           inkscape:connector-curvature="0"
           id="path13350"
           style="fill:none;stroke:#c4161d;stroke-width:0.82249999;stroke-linecap:butt;stroke-linejoin:miter;stroke-miterlimit:3.86369991;stroke-opacity:1;stroke-dasharray:none"
           d="m 27.9578,135.2481 c 0,12.6993 10.2937,22.993 22.9925,22.993 12.6989,0 22.9931,-10.2937 22.9931,-22.993 0,-12.6988 -10.2942,-22.993 -22.9931,-22.993 -12.6988,0 -22.9925,10.2942 -22.9925,22.993 z" />
        <path
           inkscape:connector-curvature="0"
           id="path13352"
           style="fill:none;stroke:#c4161d;stroke-width:1.14230001;stroke-linecap:butt;stroke-linejoin:miter;stroke-miterlimit:3.86369991;stroke-opacity:1;stroke-dasharray:none"
           d="m 30.2239,135.2481 c 0,11.4468 9.2797,20.7264 20.7264,20.7264 11.4463,0 20.725,-9.2796 20.725,-20.7264 0,-11.4463 -9.2787,-20.7259 -20.725,-20.7259 -11.4467,0 -20.7264,9.2796 -20.7264,20.7259 z" />
        <path
           inkscape:connector-curvature="0"
           id="path13354"
           style="fill:none;stroke:#c4161d;stroke-width:1.37090003;stroke-linecap:butt;stroke-linejoin:miter;stroke-miterlimit:3.86369991;stroke-opacity:1;stroke-dasharray:none"
           d="m 32.491,135.2481 c 0,10.1952 8.2646,18.4593 18.4593,18.4593 10.1939,0 18.459,-8.2641 18.459,-18.4593 0,-10.1938 -8.2651,-18.4589 -18.459,-18.4589 -10.1947,0 -18.4593,8.2651 -18.4593,18.4589 z" />
        <path
           inkscape:connector-curvature="0"
           id="path13356"
           style="fill:none;stroke:#c4161d;stroke-width:1.82790005;stroke-linecap:butt;stroke-linejoin:miter;stroke-miterlimit:3.86369991;stroke-opacity:1;stroke-dasharray:none"
           d="m 34.7581,135.2481 c 0,8.9423 7.2495,16.1927 16.1922,16.1927 8.9423,0 16.1918,-7.2504 16.1918,-16.1927 0,-8.9422 -7.2495,-16.1918 -16.1918,-16.1918 -8.9427,0 -16.1922,7.2496 -16.1922,16.1918 z" />
        <path
           inkscape:connector-curvature="0"
           id="path13358"
           style="fill:none;stroke:#c4161d;stroke-width:0.19490001;stroke-linecap:butt;stroke-linejoin:miter;stroke-miterlimit:4.19999981;stroke-opacity:1;stroke-dasharray:none"
           d="m 21.1565,135.2481 c 0,16.455 13.3389,29.7938 29.7938,29.7938 16.4545,0 29.7934,-13.3388 29.7934,-29.7938 0,-16.4545 -13.3389,-29.7924 -29.7934,-29.7924 -16.4549,0 -29.7938,13.3379 -29.7938,29.7924 z" />
      </g>
    </g>
  </g>
</svg>
