<?xml version="1.0" encoding="UTF-8" standalone="no"?>
<!-- Created with Inkscape (http://www.inkscape.org/) -->

<svg
   xmlns:dc="http://purl.org/dc/elements/1.1/"
   xmlns:cc="http://creativecommons.org/ns#"
   xmlns:rdf="http://www.w3.org/1999/02/22-rdf-syntax-ns#"
   xmlns:svg="http://www.w3.org/2000/svg"
   xmlns="http://www.w3.org/2000/svg"
   version="1.1"
   width="550"
   height="800"
   id="svg3116">
  <defs
     id="defs3118" />
  <metadata
     id="metadata3121">
    <rdf:RDF>
      <cc:Work
         rdf:about="">
        <dc:format>image/svg+xml</dc:format>
        <dc:type
           rdf:resource="http://purl.org/dc/dcmitype/StillImage" />
        <dc:title></dc:title>
      </cc:Work>
    </rdf:RDF>
  </metadata>
  <g
     transform="translate(0,-252.36218)"
     id="layer1">
    <g
       transform="matrix(1.9633302,0,0,-1.9633302,-298.88945,1451.1877)"
       id="g2993">
      <path
         d="m 369.66699,269.22266 c 0,0 -24.33398,1.66699 -60.33398,-12.33301 -33.31104,-12.9541 -53.99951,-33.66699 -53.99951,-33.66699 0,0 37.5581,-10.11426 65.99951,3.66699 32.33398,15.66699 48.33398,42.33301 48.33398,42.33301 z"
         id="path2995"
         style="fill:#a86b3f;fill-opacity:1;fill-rule:nonzero;stroke:none" />
      <path
         d="m 213.72803,578.08105 -48,-332 c -0.47412,-3.27929 1.80029,-6.32226 5.08008,-6.79687 3.27929,-0.47363 6.32226,1.80078 6.79687,5.08008 l 48,332 c 0.47412,3.27929 -1.80029,6.32226 -5.08008,6.79687 -3.27929,0.47412 -6.32275,-1.80029 -6.79687,-5.08008 z"
         id="path2997"
         style="fill:#b48d3e;fill-opacity:1;fill-rule:nonzero;stroke:none" />
      <path
         d="m 215.17676,583.23047 c -1.60498,-1.19971 -2.64649,-2.95215 -2.93311,-4.93457 l 0,0 -48,-332 c -0.59179,-4.09277 2.25684,-7.9043 6.34961,-8.4961 4.09278,-0.59082 7.90381,2.25684 8.4961,6.34961 l 48,332 c 0.59179,4.09278 -2.25684,7.90381 -6.34961,8.4961 -1.98291,0.28662 -3.9585,-0.21582 -5.56299,-1.41504 m -44.1543,-342.46192 c -2.45557,0.35547 -4.16504,2.64258 -3.81006,5.09766 l 48,332 c 0.17237,1.18994 0.79737,2.24121 1.76026,2.96094 0.96289,0.71973 2.14795,1.02148 3.3374,0.84961 2.45605,-0.35547 4.16553,-2.64258 3.81055,-5.09766 l -48,-332 c -0.35547,-2.45605 -2.64258,-4.16504 -5.09815,-3.81055 z"
         id="path2999"
         style="fill:#231f20;fill-opacity:1;fill-rule:nonzero;stroke:none" />
      <path
         d="m 245.21875,577.64844 c -1.15283,-6.61231 -12.86719,-10.09473 -26.16504,-7.77588 -13.29834,2.31885 -23.14453,9.56006 -21.99023,16.17334 1.15283,6.61279 12.86718,10.09424 26.16552,7.77441 13.29737,-2.31836 23.14356,-9.5581 21.98975,-16.17187 z"
         id="path3001"
         style="fill:#b48d3e;fill-opacity:1;fill-rule:nonzero;stroke:none" />
      <path
         d="m 199.63525,592.16064 c -2.25781,-1.58691 -3.6582,-3.6123 -4.04931,-5.85693 -0.39209,-2.24463 0.23974,-4.62402 1.82666,-6.88183 3.60644,-5.13086 11.80029,-9.35596 21.3833,-11.02686 9.58154,-1.6709 18.7207,-0.46875 23.85156,3.13867 2.25733,1.5874 3.65772,3.61231 4.04883,5.85694 0.0757,0.43212 0.11279,0.86962 0.11279,1.30957 0,1.84716 -0.65869,3.74951 -1.93994,5.57226 -3.60644,5.13037 -11.7998,9.35498 -21.38232,11.02539 -9.58203,1.67188 -18.72217,0.46973 -23.85157,-3.13721 m 19.67627,-20.81054 c -8.69433,1.51611 -16.32666,5.36181 -19.44433,9.79687 -1.13574,1.61524 -1.58155,3.17676 -1.32617,4.64112 0.25537,1.46435 1.2041,2.78271 2.81933,3.91845 4.43506,3.11768 12.91748,4.15235 21.61084,2.63623 8.69434,-1.51611 16.32617,-5.36084 19.44385,-9.79541 1.13525,-1.61523 1.58154,-3.17675 1.32617,-4.64111 l 0,0 c -0.25537,-1.46436 -1.2041,-2.78271 -2.81933,-3.91846 -4.43506,-3.11816 -12.91749,-4.15332 -21.61036,-2.63769 m 27.38477,6.04053 0,0 0,0 0,0 z"
         id="path3003"
         style="fill:#231f20;fill-opacity:1;fill-rule:nonzero;stroke:none" />
      <path
         d="m 235,230.88965 c 0,0 -31.13379,16.6084 -42,41.66699 -16.3335,37.66699 -13.98975,75.10254 7,103 26.3335,35 66.98779,51.62402 104.33301,41 C 343,405.55664 353,389.88965 353,389.88965 c 0,0 -15.99902,0.33398 -23.33301,-2.66602 -7.33398,-3 -18.33398,-9.333 -19.66699,-15 -1.33301,-5.66699 -1.33398,-13.66699 -6.66699,-29.66699 -5.33301,-16 -14.3335,-40.99902 -26.66651,-54.33301 -12.333,-13.33398 -18.333,-18 -18.333,-18 0,0 -0.92774,-6.96484 -8.96387,-19.14941 C 241.3335,238.88965 238,234.55566 235,230.88965 z"
         id="path3005"
         style="fill:#a86b3f;fill-opacity:1;fill-rule:nonzero;stroke:none" />
      <path
         d="m 402.33301,448.89014 c -13.32422,10.15088 -23.56543,10.52441 -26.66602,12.333 -4,2.3335 -7.33301,5.667 -20.66699,16.3335 -13.33398,10.6665 -31.08496,19.40674 -45,23.6665 -16.3335,5 -31.14697,10.64454 -51,25 -21.6665,15.667 -34,42 -34,42 0,0 16.16504,-34.68603 13.6665,-92.333 -2.2915,-52.87549 -10.0415,-72.62549 -10.0415,-72.62549 0,0 25.7085,15.625 60.375,15.625 34.66602,0 64.66699,-29.66602 64.66699,-29.66602 0,0 14.33887,-4.0166 30.66602,-0.66699 13,2.66699 35.33398,8.33301 37.33398,25 2,16.6665 -12.33398,30.00049 -19.33398,35.3335 z"
         id="path3007"
         style="fill:#ed1b29;fill-opacity:1;fill-rule:nonzero;stroke:none" />
      <path
         d="m 378.33301,386.88965 c -14.63379,-1.92578 -22.33301,2 -36,2 -24,0 -32.59863,-17.94043 -32.66602,-18.33301 -1.66699,-9.66699 -4,-27.66699 -15.66699,-54.33301 -11.66699,-26.66601 -35.6665,-46 -35.6665,-46 0,0 -3.3335,-8.66699 -8.3335,-18 -5,-9.333 -17,-24.66699 -21.6665,-30 -4.66651,-5.333 -4.667,-7.66699 2,-11.33398 6.01416,-3.30762 13,-1.66602 15,0.33398 2,2 13.72412,19.11524 36,32 33.99951,19.66602 63.33349,26 87.33349,25.66602 14.66504,-0.2041 21.85352,1.39355 27,6.33398 8.33301,8 7.28614,12.61035 6,22.66602 C 398,326.55664 399.52441,351.38574 408,378.22363 c 4,12.66602 9.66699,24 9.66699,24 0,0 -14.00097,-12.00097 -39.33398,-15.33398 z"
         id="path3009"
         style="fill:#ffffff;fill-opacity:1;fill-rule:nonzero;stroke:none" />
      <path
         d="m 273.60303,460.22754 -3.24268,-4.62891 c -2.1416,-2.89648 -6.09082,-0.19336 -4.10058,2.86133 0,0 12.04345,17.19287 12.04394,17.19336 2.80127,3.94629 6.07129,5.36133 9.99365,4.32861 4.65869,-1.22656 4.42139,-5.99072 4.33252,-7.78466 -0.1958,-3.92139 -1.58984,-22.85059 -1.64941,-23.6543 -0.10156,-1.37695 -1.29981,-2.41113 -2.67676,-2.30957 -1.37695,0.10156 -2.41113,1.2998 -2.30957,2.67676 0.005,0.0757 0.22217,3.01757 0.49756,6.82519 l -12.88867,4.49219 m 13.25586,0.63184 c 0.34912,4.90429 0.68994,9.84082 0.77685,11.58691 0.125,2.50684 -0.30078,2.61865 -0.61181,2.70068 -1.04786,0.27588 -2.48291,0.65381 -4.64356,-2.38867 l -5.84277,-8.34131 10.32129,-3.55761 z"
         id="path3011"
         style="fill:#ffffff;fill-opacity:1;fill-rule:nonzero;stroke:none" />
      <path
         d="m 277.896,475.94287 c 0.0229,0.0327 0.021,0.0303 -12.0459,-17.1958 -1.21289,-1.86133 -0.52637,-3.56055 0.6206,-4.35693 1.18799,-0.8252 3.04346,-0.77686 4.29151,0.91113 0,0 2.65527,3.79004 3.0332,4.32959 0.65576,-0.22852 11.50537,-4.00977 12.16992,-4.2417 -0.0493,-0.67725 -0.46972,-6.44385 -0.46972,-6.44385 -0.006,-0.0742 -0.008,-0.14843 -0.008,-0.22217 0,-1.55322 1.20459,-2.87207 2.77979,-2.98828 0.79883,-0.0591 1.57324,0.19678 2.17969,0.72022 0.60693,0.52344 0.97314,1.25195 1.03222,2.05127 0.0147,0.19336 1.45166,19.68799 1.65039,23.66601 0.0854,1.72364 0.34473,6.96338 -4.70459,8.29297 -4.14892,1.09229 -7.59472,-0.38379 -10.5288,-4.52246 m 0.81689,-0.57715 c 2.66455,3.75391 5.75879,5.10645 9.45703,4.13282 3.78076,-0.99561 4.10254,-4.41065 3.96045,-7.27491 -0.19775,-3.96826 -1.63428,-23.45019 -1.64844,-23.64355 -0.0395,-0.5332 -0.28369,-1.01904 -0.68798,-1.36768 -0.40479,-0.34912 -0.9209,-0.51953 -1.45362,-0.48047 -1.09961,0.0811 -1.92871,1.042 -1.84765,2.14161 0,0.001 0.49755,6.82568 0.49755,6.82568 0.0166,0.22558 -0.1206,0.43359 -0.33398,0.5083 l -12.88867,4.49219 c -0.21143,0.0737 -0.44385,-0.002 -0.57422,-0.18506 l -3.24268,-4.62891 c -0.90722,-1.22705 -2.1167,-1.2251 -2.90918,-0.67431 -0.78906,0.54785 -1.20654,1.68017 -0.36279,2.97558 -0.009,-0.0132 12.03418,17.17871 12.03418,17.17871 z"
         id="path3013"
         style="fill:#231f20;fill-opacity:1;fill-rule:nonzero;stroke:none" />
      <path
         d="m 281.97266,473.04785 -5.84473,-8.34424 c -0.0898,-0.12841 -0.11426,-0.2915 -0.0659,-0.44091 0.0483,-0.14942 0.16406,-0.26709 0.3125,-0.31836 l 10.32129,-3.55762 c 0.14746,-0.0508 0.31006,-0.0312 0.43945,0.0552 0.12989,0.0859 0.21192,0.22657 0.22217,0.38184 l 0.77783,11.59766 c 0.12207,2.44726 -0.25146,3.01611 -0.98388,3.20898 -1.12207,0.29541 -2.81739,0.74219 -5.17871,-2.58252 m 0.81738,-0.57617 c 1.95801,2.75732 3.14941,2.44385 4.10644,2.19189 0.0688,-0.0254 0.26075,-0.21435 0.26075,-1.42431 0,-0.22071 -0.006,-0.47461 -0.021,-0.76807 0,0 -0.57031,-8.50879 -0.73242,-10.92627 -1.02197,0.35254 -8.04004,2.77149 -9.07617,3.12842 0.66552,0.94971 5.4624,7.79834 5.4624,7.79834 z"
         id="path3015"
         style="fill:#231f20;fill-opacity:1;fill-rule:nonzero;stroke:none" />
      <path
         d="m 410.25,384.88965 c 0,0 -10.875,-5.625 -24.75,-7 -13.875,-1.375 -26.125,-1.375 -32.5,-1.25 -6.375,0.125 -17.40234,-1.1582 -26.125,-4 -11.125,-3.625 -18,-9.25 -18,-9.25 0,0 -0.75,-2.875 -1.625,-6.5 -0.875,-3.625 -1.375,-7.75 -1.375,-7.75 0,0 11.625,7.625 22,10.125 10.375,2.5 25.375,3.125 33.5,2.5 8.125,-0.625 18.125,-0.125 25.875,1.625 7.75,1.75 17.875,6 17.875,6 0,0 3.125,10.25 5.125,15.5 z"
         id="path3017"
         style="fill:#ed1b29;fill-opacity:1;fill-rule:nonzero;stroke:none" />
      <path
         d="m 410.02051,385.33398 c -0.1084,-0.0557 -10.95703,-5.59765 -24.56934,-6.94628 -13.11621,-1.29981 -24.88086,-1.39649 -32.4414,-1.24805 -6.53223,0.12793 -17.66016,-1.21289 -26.29004,-4.02442 -11.08594,-3.6123 -18.0918,-9.28222 -18.16114,-9.33886 -0.084,-0.0684 -0.1416,-0.15625 -0.16699,-0.26074 l -1.62793,-6.50879 c -0.87109,-3.61133 -1.37988,-7.76563 -1.38476,-7.80664 -0.0234,-0.19336 0.0674,-0.38282 0.23242,-0.48536 0.16504,-0.10254 0.375,-0.10058 0.53808,0.007 0.11524,0.0752 11.67383,7.60645 21.84278,10.05664 9.94922,2.39746 24.7666,3.14746 33.34472,2.48828 8.63965,-0.66504 18.61036,-0.0391 26.02344,1.63574 7.70313,1.73926 17.85645,5.9834 17.95801,6.02637 0.13672,0.0576 0.24121,0.17285 0.28516,0.31543 0.0312,0.10156 3.14257,10.29395 5.11328,15.46777 0.0742,0.19336 0.0205,0.41309 -0.13379,0.55079 -0.1543,0.13769 -0.37891,0.16601 -0.5625,0.0713 m -24.47168,-7.94238 c 11.27344,1.11719 20.67383,5.07031 23.81055,6.5166 -1.85157,-5.08105 -4.3125,-13.06738 -4.64356,-14.14648 -1.44727,-0.59766 -10.54785,-4.29688 -17.57617,-5.88477 -7.32129,-1.65234 -17.17871,-2.27148 -25.72656,-1.61425 -8.65528,0.66601 -23.61133,-0.0918 -33.65528,-2.51172 -8.69336,-2.09473 -18.31933,-7.80176 -21.24414,-9.61719 0.2041,1.44726 0.62403,4.16016 1.22266,6.63867 0,0 1.50488,6.02051 1.58203,6.3291 0.66504,0.52735 7.32324,5.67774 17.71191,9.0625 8.52344,2.77735 19.51172,4.10254 25.95996,3.97559 7.58692,-0.14844 19.39649,-0.0537 32.5586,1.25195 z"
         id="path3019"
         style="fill:#231f20;fill-opacity:1;fill-rule:nonzero;stroke:none" />
      <path
         d="m 402.25,357.88965 c 0,0 -4.625,-2 -14.5,-4 -9.875,-2 -20.125,-2.5 -26.375,-2.875 -6.25,-0.375 -16.5,-0.875 -26.5,-3 -10,-2.125 -20.75,-5.875 -26.75,-8.125 -6,-2.25 -6,-2.25 -6,-2.25 0,0 -0.375,-2.5 -2.625,-8 -2.25,-5.5 -4.375,-10.25 -4.375,-10.25 0,0 14.42969,7.15527 27.875,10.625 15.5,4 22.25,4.875 37.75,5.625 11.75977,0.56933 23,2.125 29.5,3.75 6.5,1.625 10,2.75 10,2.75 0,0 0.625,5.75 1.375,9.625 0.75,3.875 0.625,6.125 0.625,6.125 z"
         id="path3021"
         style="fill:#ed1b29;fill-opacity:1;fill-rule:nonzero;stroke:none" />
      <path
         d="m 402.05176,358.34863 c -0.0459,-0.0195 -4.70606,-2.00586 -14.40137,-3.96875 -9.17285,-1.8584 -18.68848,-2.41797 -24.98535,-2.78808 l -2.55078,-0.15137 c -6.34668,-0.37305 -15.9375,-0.93848 -25.34278,-2.93652 -10.23925,-2.17578 -21.20019,-6.03809 -26.82226,-8.14649 l -6,-2.25 c -0.16895,-0.0635 -0.29102,-0.21387 -0.31836,-0.39258 -0.004,-0.0254 -0.40234,-2.52832 -2.59375,-7.88574 l -4.36865,-10.23535 c -0.082,-0.19238 -0.0371,-0.41992 0.11474,-0.56348 0.15235,-0.14355 0.37647,-0.18164 0.56397,-0.0889 0.14404,0.0713 14.53955,7.17285 27.77783,10.58886 15.69531,4.05078 22.47656,4.87598 37.64941,5.61036 10.95313,0.53027 22.57129,2.00781 29.59668,3.76367 6.44141,1.61035 9.99707,2.74804 10.03223,2.75976 0.1875,0.0596 0.32227,0.22559 0.34375,0.42188 0.006,0.0566 0.63184,5.77344 1.36914,9.58398 0.75293,3.89063 0.63867,6.15332 0.63281,6.24707 -0.009,0.16309 -0.0967,0.31153 -0.23632,0.39746 -0.13868,0.0859 -0.31153,0.0986 -0.46094,0.0342 m -93.75098,-18.92675 c 5.5957,2.09863 16.50293,5.9414 26.67774,8.10351 9.33203,1.9834 18.87793,2.54492 25.19531,2.91699 l 2.5498,0.15137 c 6.3252,0.37207 15.88282,0.93359 25.12598,2.80566 7.85254,1.59082 12.3125,3.14747 13.89941,3.75489 -0.0166,-0.91992 -0.11718,-2.72168 -0.61523,-5.29492 -0.64551,-3.33399 -1.20215,-8.08497 -1.34473,-9.33985 -0.94629,-0.29297 -4.26855,-1.29687 -9.66015,-2.64453 -6.96778,-1.74219 -18.50879,-3.20898 -29.40332,-3.73633 -15.25098,-0.7373 -22.06934,-1.56738 -37.85059,-5.63965 -11.1416,-2.87597 -23.0498,-8.31933 -26.76807,-10.083 0.81348,1.90722 3.85596,9.03418 3.85596,9.03418 1.86328,4.55371 2.44531,7.03613 2.60059,7.82031 0.48144,0.18066 5.7373,2.15137 5.7373,2.15137 z"
         id="path3023"
         style="fill:#231f20;fill-opacity:1;fill-rule:nonzero;stroke:none" />
      <path
         d="m 287.75,304.01465 c 0,0 17.25,10.5 35.75,16 11.85938,3.52539 24.875,6.5 34.875,7.25 10,0.75 21.75,1.375 28.75,2.75 7,1.375 12.375,3.125 12.375,3.125 0,0 0.125,-7 0.125,-10.375 0,-3.375 0,-7 0,-7 0,0 -7.84473,-2.3125 -19.25,-3.25 -9.125,-0.75 -20.75,-1.375 -32,-3.5 -11.25,-2.125 -25.25,-5.75 -37.25,-11.25 -12,-5.5 -18.75,-9.75 -23.75,-12.75 -5,-3 -12,-4.75 -15.5,-5.125 -3.5,-0.375 -3.5,-0.375 -3.5,-0.375 0,0 6.25,6.375 10.375,11.5 4.125,5.125 9,13 9,13 z"
         id="path3025"
         style="fill:#ed1b29;fill-opacity:1;fill-rule:nonzero;stroke:none" />
      <path
         d="m 399.3457,333.61523 c -0.0537,-0.0176 -5.43066,-1.75683 -12.31738,-3.11035 -5.66602,-1.1123 -14.45801,-1.73144 -22.96094,-2.33008 l -5.72949,-0.41113 c -9.0791,-0.68164 -21.50195,-3.26269 -34.98047,-7.26953 -18.34961,-5.45605 -35.69433,-15.94726 -35.86719,-16.05273 -0.0674,-0.041 -0.12402,-0.0967 -0.16552,-0.16407 -0.0483,-0.0781 -4.90625,-7.90722 -8.96436,-12.94921 -4.06201,-5.04688 -10.28027,-11.39942 -10.34228,-11.46387 -0.14795,-0.15039 -0.18506,-0.37793 -0.0933,-0.56738 0.0923,-0.19043 0.29346,-0.30176 0.50342,-0.2793 l 3.5,0.375 c 3.31739,0.35547 10.51465,2.08008 15.7041,5.19336 l 1.42383,0.85742 c 4.8125,2.90527 11.40381,6.88281 22.27686,11.86719 12.87988,5.90332 27.30371,9.35547 37.13476,11.21289 9.29688,1.75586 18.73145,2.47558 27.05469,3.11035 l 4.89356,0.38281 c 11.32519,0.93067 19.27148,3.24512 19.35058,3.26856 0.21289,0.0625 0.3584,0.25781 0.3584,0.47949 l 0,7 -0.125,10.38379 c -0.002,0.15918 -0.0791,0.30664 -0.20898,0.39941 -0.12891,0.0918 -0.29493,0.11621 -0.44532,0.0674 m -75.70312,-14.08007 c 13.41211,3.9873 25.76074,6.55566 34.76953,7.23047 l 5.72559,0.4121 c 8.5332,0.60059 17.35742,1.22168 23.08398,2.34668 5.62207,1.10352 10.19531,2.44922 11.78613,2.93848 0.0147,-1.16894 0.11719,-9.69824 0.11719,-9.69824 0,0 0,-5.94141 0,-6.6211 -1.61621,-0.44238 -8.87988,-2.3164 -18.79102,-3.13085 l -4.88769,-0.38184 c -8.34961,-0.63672 -17.8125,-1.3584 -27.16406,-3.125 -9.88575,-1.86719 -24.39356,-5.34082 -37.36524,-11.28711 -10.92578,-5.00684 -17.54443,-9.00195 -22.37744,-11.91895 l -1.42187,-0.85644 c -5.05176,-3.03125 -12.06299,-4.70996 -15.2959,-5.05664 0,0 -1.11426,-0.11914 -2.12891,-0.22754 1.90625,1.98437 6.30078,6.63379 9.44678,10.54199 3.95508,4.91406 8.60596,12.36035 8.9707,12.94629 1.06641,0.6416 17.80957,10.61914 35.53223,15.8877 z"
         id="path3027"
         style="fill:#231f20;fill-opacity:1;fill-rule:nonzero;stroke:none" />
      <path
         d="m 231.25,225.63965 c 5.625,0.375 13.56494,5.69629 20.125,11.125 10.875,9 23.75,16.75 48.875,29.25 21.32129,10.60742 63.25,21 75.75,22.75 9.08008,1.27148 26.25,4.125 26.25,4.125 l -1.75,12.875 c 0,0 -16.20703,-1.61035 -29.375,-3.875 -19.625,-3.375 -51.27539,-11.86231 -73.125,-21.625 -29.375,-13.125 -46.5,-26 -46.5,-26 0,0 -5.375,-8.875 -10.875,-16.375 -5.5,-7.5 -9.375,-12.25 -9.375,-12.25 z"
         id="path3029"
         style="fill:#ed1b29;fill-opacity:1;fill-rule:nonzero;stroke:none" />
      <path
         d="m 400.4502,306.26172 c -0.16211,-0.0156 -16.375,-1.6377 -29.41016,-3.87891 -20.00684,-3.4414 -51.58984,-11.98633 -73.24414,-21.66211 -29.08985,-12.99707 -46.42481,-25.92773 -46.59619,-26.05664 -0.0513,-0.0381 -0.0942,-0.0859 -0.12744,-0.14062 -0.0537,-0.0879 -5.42725,-8.94239 -10.85059,-16.33789 -5.42822,-7.40235 -9.32031,-12.18262 -9.35889,-12.2295 -0.12597,-0.15429 -0.14843,-0.36914 -0.0571,-0.54589 0.0913,-0.17676 0.27881,-0.28223 0.47754,-0.26953 6.13965,0.40917 14.48828,6.33789 20.41065,11.23925 11.0039,9.10645 23.76855,16.74414 48.77881,29.1875 21.09179,10.49317 62.86035,20.91895 75.59668,22.70215 8.98242,1.25781 26.09082,4.09863 26.26269,4.12695 0.2666,0.0439 0.4502,0.29297 0.41309,0.56055 l -1.75,12.875 c -0.0361,0.2666 -0.27637,0.45703 -0.54492,0.42969 M 298.2041,279.80859 c 21.57813,9.64161 53.06055,18.15821 73.00586,21.58789 11.80078,2.03028 26.17969,3.54688 28.85938,3.82129 0.11621,-0.85351 1.50293,-11.05664 1.62011,-11.91406 -2.7373,-0.45312 -17.59375,-2.90039 -25.75879,-4.04394 -12.78613,-1.79004 -54.7207,-12.25879 -75.90332,-22.79786 -25.08691,-12.48046 -37.90185,-20.15136 -48.97119,-29.3125 -7.52392,-6.22558 -14.04443,-9.99316 -18.61279,-10.82226 1.40967,1.76953 4.57275,5.7959 8.58496,11.2666 5.31348,7.24609 10.5376,15.81641 10.84717,16.32617 0.84619,0.62891 17.93896,13.20313 46.32861,25.88867 z"
         id="path3031"
         style="fill:#231f20;fill-opacity:1;fill-rule:nonzero;stroke:none" />
      <path
         d="m 414,400.63965 c 0,0 -16.625,17.75 -43.5,34.125 -15.60449,9.50781 -39.125,19.25 -39.125,19.25 0,0 0.375,1.375 0.625,5.25 0.25,3.875 0.25,6.5 0.25,6.5 0,0 24.47461,-9.36719 46.75,-23 22.875,-14 41.625,-33 41.625,-33 0,0 -0.75,-3.25 -2.5,-5.375 -1.75,-2.125 -4.125,-3.75 -4.125,-3.75 z"
         id="path3033"
         style="fill:#ffffff;fill-opacity:1;fill-rule:nonzero;stroke:none" />
      <path
         d="m 331.9668,466.17676 c -0.13575,-0.0933 -0.2168,-0.24756 -0.2168,-0.41211 0,-0.0259 -0.003,-2.65576 -0.24902,-6.46777 -0.24219,-3.75147 -0.60547,-5.13819 -0.6084,-5.15186 -0.0654,-0.24219 0.0596,-0.49609 0.29101,-0.59229 0.23536,-0.0972 23.66407,-9.83691 39.05664,-19.21484 26.50196,-16.14844 43.22852,-33.86328 43.39454,-34.04004 0.16894,-0.17969 0.44433,-0.20996 0.64746,-0.0713 0.0996,0.0684 2.4541,1.69043 4.22851,3.84571 1.80469,2.19043 2.56934,5.44238 2.60156,5.58007 0.0381,0.167 -0.0107,0.33887 -0.13183,0.46387 -0.1875,0.19043 -19.05469,19.20361 -41.71973,33.07471 -22.05957,13.50097 -46.58691,22.94678 -46.83203,23.04053 -0.15332,0.0591 -0.32715,0.0386 -0.46191,-0.0547 m 0.53222,-6.94434 c 0.17481,2.71436 0.22559,4.77881 0.24121,5.80274 3.91797,-1.54346 25.95313,-10.42871 45.99903,-22.69678 21.4248,-13.11231 39.41308,-30.81397 41.3291,-32.72412 -0.20801,-0.77442 -0.94434,-3.22461 -2.3291,-4.90723 -1.30469,-1.58398 -2.97754,-2.88965 -3.67969,-3.40723 -2.31348,2.39551 -18.55957,18.81788 -43.2998,33.89161 -14.40332,8.77636 -35.76856,17.84765 -38.81055,19.12451 0.12988,0.65332 0.37012,2.12988 0.5498,4.9165 z"
         id="path3035"
         style="fill:#231f20;fill-opacity:1;fill-rule:nonzero;stroke:none" />
      <path
         d="m 402,393.01465 c 0,0 -9.11523,9.61523 -29.875,22.875 -19.375,12.375 -41.875,21.375 -41.875,21.375 l -0.125,-15.75 c 0,0 21.25,-8.25 33.5,-16.75 12.25,-8.5 19.5,-17.125 19.5,-17.125 0,0 5.5,0.75 10,2.125 4.5,1.375 8.875,3.25 8.875,3.25 z"
         id="path3037"
         style="fill:#ffffff;fill-opacity:1;fill-rule:nonzero;stroke:none" />
      <path
         d="m 329.97168,437.67969 c -0.1377,-0.0918 -0.2207,-0.2461 -0.22168,-0.41114 l -0.125,-15.75 c -0.002,-0.20751 0.125,-0.39501 0.31934,-0.47021 0.21191,-0.082 21.33593,-8.32666 33.3955,-16.69482 12.04786,-8.35938 19.33008,-16.9502 19.40235,-17.03614 0.11035,-0.13086 0.28027,-0.19629 0.45019,-0.17285 0.0557,0.007 5.5918,0.77051 10.0791,2.1416 4.47364,1.36719 8.88184,3.25 8.92579,3.26856 0.15039,0.0645 0.25976,0.19824 0.29199,0.3584 0.0332,0.16113 -0.0127,0.32617 -0.12598,0.44531 -0.0918,0.0967 -9.39551,9.81152 -29.96875,22.95215 -19.19336,12.25879 -41.7334,21.32812 -41.95898,21.41845 -0.15332,0.061 -0.32715,0.043 -0.46387,-0.0493 m 0.77246,-1.15772 c 3.76074,-1.54834 23.78223,-9.98486 41.11133,-21.0542 17.78711,-11.36035 27.08105,-20.12011 29.26562,-22.27734 -1.38671,-0.57129 -4.73535,-1.90625 -8.14257,-2.94727 -3.85254,-1.17773 -8.50586,-1.90136 -9.6543,-2.06933 -1.1543,1.32617 -8.25391,9.25781 -19.41406,17.00195 -11.35352,7.87793 -30.6084,15.62012 -33.28223,16.67822 0.005,0.62549 0.10547,13.35694 0.11621,14.66797 z"
         id="path3039"
         style="fill:#231f20;fill-opacity:1;fill-rule:nonzero;stroke:none" />
      <path
         d="m 262.41992,492.57275 c -10.8706,-9.42675 -16.4956,-23.35839 -15.0459,-37.26709 1.51514,-14.53906 10.54102,-25.44336 24.14502,-29.16894 16.11035,-4.41016 31.70948,8.01074 32.36573,8.5415 3.21093,2.59815 3.70507,7.29395 1.11914,10.51514 -2.58496,3.22168 -7.3003,3.73633 -10.53174,1.16406 -2.84766,-2.2666 -11.81055,-7.71924 -18.9917,-5.75293 -7.51856,2.0586 -12.3252,7.98389 -13.1875,16.25586 -0.94238,9.04346 2.77881,18.15723 9.9541,24.3794 5.4834,4.75488 11.64502,6.05566 18.8374,3.97754 6.85498,-1.98096 10.07764,-9.75391 10.10987,-9.83204 1.54785,-3.81689 5.8955,-5.6997 9.72461,-4.18212 3.8291,1.51757 5.72949,5.81054 4.24218,9.65136 -0.23144,0.59864 -5.83789,14.70557 -19.91259,18.77295 -12.11622,3.50147 -23.46778,1.06201 -32.82862,-7.05469 z"
         id="path3041"
         style="fill:#ffffff;fill-opacity:1;fill-rule:nonzero;stroke:none" />
      <path
         d="m 262.09229,492.95068 0,0 c -10.99415,-9.53418 -16.68213,-23.62646 -15.21534,-37.69677 1.53711,-14.75196 10.69971,-25.81739 24.50977,-29.59961 16.3501,-4.47559 32.14844,8.09765 32.8125,8.63525 3.40918,2.75879 3.94531,7.79053 1.19433,11.2168 -2.74902,3.42676 -7.78857,3.98388 -11.23291,1.24219 -2.79248,-2.22266 -11.56835,-7.57276 -18.54834,-5.66163 -7.30859,2.00098 -11.98242,7.76905 -12.82226,15.8252 -0.92529,8.88135 2.73242,17.83447 9.78467,23.94971 5.34472,4.63525 11.354,5.90234 18.37109,3.875 6.56592,-1.89746 9.7544,-9.46582 9.78662,-9.54248 1.64942,-4.06788 6.30274,-6.06836 10.3711,-4.45606 4.06836,1.61279 6.09765,6.23145 4.52343,10.29688 -0.23437,0.60742 -5.91992,14.93457 -20.23974,19.07275 -12.28662,3.55078 -23.8003,1.07617 -33.29492,-7.15723 m 33.01757,6.19629 c 13.84912,-4.00195 19.35694,-17.88379 19.58448,-18.47265 1.37695,-3.55518 -0.39844,-7.59619 -3.95996,-9.00635 -3.55958,-1.41065 -7.63086,0.33935 -9.07715,3.90527 -0.13672,0.33203 -3.40967,8.09473 -10.43409,10.12451 -7.36816,2.12891 -13.6831,0.79346 -19.30371,-4.08007 -7.29834,-6.32911 -11.083,-15.60352 -10.12353,-24.80909 0.88476,-8.48828 5.82422,-14.57031 13.55273,-16.68652 7.38086,-2.021 16.53174,3.5332 19.43506,5.84424 3.01465,2.39941 7.42432,1.9126 9.83057,-1.08594 2.40625,-2.99805 1.93847,-7.3999 -1.04395,-9.81348 -0.64843,-0.52441 -16.0581,-12.79003 -31.91943,-8.44775 -13.39697,3.66895 -22.28662,14.41211 -23.77979,28.73828 -1.43261,13.7461 4.12842,27.51758 14.87647,36.8374 l 0,0 c 9.22607,8.00049 20.41699,10.4043 32.3623,6.95215 z"
         id="path3043"
         style="fill:#231f20;fill-opacity:1;fill-rule:nonzero;stroke:none" />
      <path
         d="m 275.8335,419.38965 c 0,0 -13.66895,3.35986 -22.5,7.1665 -9.667,4.16699 -18,9.66699 -18,9.66699 0,0 -0.3335,-4.33349 -1.667,-12 -1.33349,-7.6665 -5,-20.99951 -5,-20.99951 0,0 6.66602,5.33399 21.33301,10 14.66699,4.66602 25.83399,6.16602 25.83399,6.16602 z"
         id="path3045"
         style="fill:#ffffff;fill-opacity:1;fill-rule:nonzero;stroke:none" />
      <path
         d="m 235.11377,436.67236 c -0.15918,-0.0781 -0.26514,-0.23437 -0.27881,-0.41064 -0.003,-0.0435 -0.34814,-4.40332 -1.66113,-11.95313 -1.31397,-7.55468 -4.95264,-20.81933 -4.98926,-20.95214 -0.0576,-0.20899 0.0273,-0.42872 0.20703,-0.54981 0.18067,-0.11914 0.41748,-0.1084 0.58692,0.0264 0.0664,0.0527 6.7832,5.33691 21.17236,9.91406 14.45215,4.59766 25.63769,6.13184 25.74902,6.14746 0.23828,0.0312 0.41992,0.22852 0.43262,0.46777 0.0132,0.24024 -0.14648,0.45508 -0.37988,0.5127 -0.13623,0.0337 -13.73047,3.39404 -22.42139,7.14014 -9.5127,4.10058 -17.83936,9.57031 -17.92236,9.62549 -0.14795,0.0972 -0.33643,0.10937 -0.49512,0.0317 m -0.95459,-12.53466 c 0.99316,5.71093 1.43603,9.61425 1.59668,11.22168 2.13184,-1.35547 9.29883,-5.77881 17.37988,-9.26221 6.5874,-2.83985 15.9419,-5.45313 20.24658,-6.59229 -4.05371,-0.69433 -12.90869,-2.4248 -23.53418,-5.80468 -11.40869,-3.62989 -17.89111,-7.58106 -20.33251,-9.25196 0.96484,3.59571 3.57031,13.52051 4.64355,19.68946 z"
         id="path3047"
         style="fill:#231f20;fill-opacity:1;fill-rule:nonzero;stroke:none" />
      <path
         d="m 271.2876,379.87695 c -24.90869,-13.43847 -47.02588,-46.91015 -41.10303,-84.88476 4.93652,-31.65235 18.60547,-43.43164 19.18506,-43.91797 l 1.93066,2.29687 c -0.13379,0.11231 -13.40625,11.65821 -18.15185,42.08399 -5.70752,36.59765 15.58252,68.84375 39.56396,81.78125 24.50733,13.22168 51.66553,6.92676 51.93701,6.8623 l 0.70215,2.91602 c -1.15234,0.27832 -28.51855,6.64355 -54.06396,-7.1377 z"
         id="path3049"
         style="fill:#231f20;fill-opacity:1;fill-rule:nonzero;stroke:none" />
      <path
         d="m 210.71973,290.59277 c -9.34864,-4.1914 -21.46582,-5.86621 -21.58741,-5.88281 l 0.40186,-2.97266 c 0.5127,0.0693 12.66064,1.7461 22.41309,6.11719 9.64648,4.32422 19.41259,10.36719 19.51025,10.42774 l -1.58203,2.54882 c -0.0957,-0.0596 -9.69678,-5.99902 -19.15576,-10.23828 z"
         id="path3051"
         style="fill:#231f20;fill-opacity:1;fill-rule:nonzero;stroke:none" />
      <path
         d="m 265.25537,417.38184 c 0.0317,-0.0899 3.22901,-9.03028 4.59522,-18.04981 1.62841,-10.75098 1.64941,-20.0166 1.64941,-20.1084 l 3,0 c 0,0.0947 -0.019,9.57325 -1.68359,20.55762 -1.41162,9.31836 -4.60352,18.24121 -4.73877,18.61719 l -2.82227,-1.0166 z"
         id="path3053"
         style="fill:#231f20;fill-opacity:1;fill-rule:nonzero;stroke:none" />
      <path
         d="m 250.30615,401.88672 c -0.95361,-0.49805 -23.51758,-12.43945 -37.57177,-34.52442 -16.9961,-26.70898 -12.417,-55.50781 -12.21387,-56.7207 0.1372,-0.8164 0.90967,-1.36719 1.72656,-1.23144 0.81689,0.13672 1.36816,0.91015 1.23242,1.72656 -0.0479,0.28613 -4.57373,28.90625 11.78614,54.61426 13.60986,21.38769 36.20214,33.35742 36.42871,33.47558 0.73388,0.38379 1.01855,1.29004 0.63525,2.02442 -0.3833,0.73437 -1.28906,1.01855 -2.02344,0.63574 z"
         id="path3055"
         style="fill:#231f20;fill-opacity:1;fill-rule:nonzero;stroke:none" />
      <path
         d="m 201.25879,327.05469 c -6.92285,-0.34571 -12.08203,-3.05957 -12.29834,-3.17481 -0.72998,-0.38965 -1.00586,-1.2959 -0.61768,-2.02636 0.38868,-0.73145 1.29639,-1.00879 2.02784,-0.6211 0.0474,0.0244 4.81347,2.51563 11.03759,2.82617 6.39258,0.31934 12.89942,-0.95996 12.96436,-0.97265 0.8125,-0.16211 1.60254,0.36523 1.76465,1.17676 0.16211,0.8125 -0.36426,1.60253 -1.17676,1.76464 -0.2793,0.0557 -6.92676,1.36621 -13.70166,1.02735 z"
         id="path3057"
         style="fill:#231f20;fill-opacity:1;fill-rule:nonzero;stroke:none" />
      <path
         d="m 192.70264,346.16504 c -0.8086,-0.17969 -1.31836,-0.98047 -1.13916,-1.78906 0.17871,-0.80762 0.979,-1.31836 1.78759,-1.14063 0.0557,0.0127 5.60889,1.21289 11.55909,0.49512 5.95214,-0.71777 11.25683,-3.30078 11.31005,-3.32715 0.74317,-0.36523 1.64258,-0.0596 2.00782,0.68359 0.36572,0.74219 0.0605,1.64063 -0.68164,2.00782 -0.23389,0.11523 -5.8003,2.833 -12.27686,3.61425 -6.47656,0.78125 -12.32275,-0.48925 -12.56689,-0.54394 z"
         id="path3059"
         style="fill:#231f20;fill-opacity:1;fill-rule:nonzero;stroke:none" />
      <path
         d="m 201.05469,364.52734 c -0.008,-0.82617 0.65625,-1.5039 1.48242,-1.51464 0.0288,0 2.94141,-0.0576 8.48682,-1.69434 5.56103,-1.6416 11.16943,-5.57031 11.22509,-5.61035 0.67676,-0.47754 1.61328,-0.31641 2.09034,0.36035 0.47753,0.67676 0.31689,1.6123 -0.35987,2.09082 -0.24414,0.17187 -6.06006,4.25195 -12.10644,6.03613 -6.01123,1.77539 -9.17871,1.81641 -9.31055,1.81739 -0.82666,0.006 -1.49951,-0.65821 -1.50781,-1.48536 z"
         id="path3061"
         style="fill:#231f20;fill-opacity:1;fill-rule:nonzero;stroke:none" />
      <path
         d="m 213.89502,382.64746 c -0.23389,-0.79394 0.22021,-1.62793 1.01416,-1.8623 0.0537,-0.0166 5.42676,-1.62793 9.13037,-4.71387 3.79785,-3.16406 6.38867,-6.69531 6.41406,-6.73047 0.4878,-0.66894 1.42578,-0.81738 2.09571,-0.3291 0.66943,0.4873 0.81738,1.4248 0.33056,2.09375 -0.11377,0.15625 -2.82373,3.85742 -6.91943,7.27051 -4.19092,3.49218 -9.95996,5.21484 -10.20361,5.28711 -0.79444,0.23339 -1.62745,-0.22071 -1.86182,-1.01563 z"
         id="path3063"
         style="fill:#231f20;fill-opacity:1;fill-rule:nonzero;stroke:none" />
      <path
         d="m 230.10693,397.08496 c -0.47558,-0.67676 -0.31201,-1.6123 0.36426,-2.08887 0.0312,-0.0215 3.16699,-2.25683 5.96192,-6.29296 2.91406,-4.20899 5.22314,-8.48243 5.24609,-8.52442 0.39307,-0.72949 1.30273,-1.00293 2.03174,-0.60937 0.72949,0.39257 1.00244,1.30175 0.60986,2.03125 -0.0972,0.17968 -2.40771,4.458 -5.4209,8.80957 -3.11719,4.50195 -6.56103,6.94043 -6.70605,7.04199 -0.67774,0.47461 -1.61133,0.31055 -2.08692,-0.36719 z"
         id="path3065"
         style="fill:#231f20;fill-opacity:1;fill-rule:nonzero;stroke:none" />
      <path
         d="m 245.76758,405.08984 c -0.66309,-0.49707 -0.79785,-1.43652 -0.30176,-2.09961 0.0195,-0.0264 1.97412,-2.65429 4.54395,-7.47265 2.55419,-4.78809 3.86865,-9.32813 3.88134,-9.37305 0.22852,-0.79687 1.0586,-1.25781 1.85498,-1.0293 0.7959,0.22754 1.25733,1.05665 1.02979,1.85352 -0.0561,0.19629 -1.4082,4.87891 -4.11865,9.96094 -2.69043,5.04394 -4.70655,7.74707 -4.79102,7.86035 -0.49658,0.66211 -1.43603,0.7959 -2.09863,0.2998 z"
         id="path3067"
         style="fill:#231f20;fill-opacity:1;fill-rule:nonzero;stroke:none" />
      <path
         d="m 181.10352,319.05566 c 0,-37.51953 20.57763,-71.81445 53.70263,-89.50195 l 1.41309,2.64649 c -32.146,17.16503 -52.11572,50.44628 -52.11572,86.85546 0,54.25684 44.14111,98.39747 98.39746,98.39747 27.06836,0 52.2959,-10.76368 71.03515,-30.3086 l 2.16602,2.07617 c -19.31152,20.14063 -45.30762,31.23243 -73.20117,31.23243 -55.91065,0 -101.39746,-45.48633 -101.39746,-101.39747 z"
         id="path3069"
         style="fill:#231f20;fill-opacity:1;fill-rule:nonzero;stroke:none" />
      <path
         d="m 282.50098,220.6582 c -9.06153,0 -18.03614,1.23047 -26.67383,3.65821 l -0.81152,-2.88868 c 8.90185,-2.50097 18.14941,-3.76953 27.48535,-3.76953 35.88379,0 69.44336,19.2627 87.58398,50.27051 l -2.58984,1.51563 C 349.8916,239.35156 317.32324,220.6582 282.50098,220.6582 z"
         id="path3071"
         style="fill:#231f20;fill-opacity:1;fill-rule:nonzero;stroke:none" />
      <path
         d="m 224.36572,569.58203 c -0.75,-0.35058 -1.0747,-1.2417 -0.72558,-1.99219 0.16015,-0.34375 15.979,-35.07373 13.52783,-91.63476 -2.24951,-51.90039 -9.86328,-71.94727 -9.93994,-72.14356 -0.30078,-0.77148 0.0806,-1.64355 0.85058,-1.94336 0.771,-0.30175 1.64063,0.0772 1.94287,0.84864 0.31983,0.81543 7.86719,20.58691 10.14356,73.1084 0.17773,4.10156 0.26025,8.09082 0.26025,11.9624 0,29.5332 -4.79687,52.16455 -8.79004,65.93408 5.84717,-8.875 14.77295,-20.24463 26.48584,-28.71387 18.99952,-13.73828 33.24805,-19.65039 51.43946,-25.21875 15.23437,-4.66357 32.28613,-13.63135 44.50195,-23.40381 l 11.31055,-9.21191 c 4.61425,-3.81152 6.92968,-5.72412 9.53808,-7.24561 1.02832,-0.5996 2.47852,-0.96728 4.48731,-1.47656 4.78515,-1.21289 12.79492,-3.24267 21.9873,-10.72461 13.63184,-11.09472 19.44727,-20.11767 19.44727,-30.16992 0,-2.38867 -0.91016,-5.47754 -2.31641,-9.15332 -0.084,-0.11035 -0.20312,-0.18555 -0.25488,-0.32129 -0.0596,-0.1582 -6.41699,-15.87598 -40.09766,-19.70215 -8.37402,-0.95117 -14.37988,-0.12988 -20.73926,0.73926 -4.57226,0.62402 -9.2998,1.27051 -15.09179,1.27051 -25.57715,0 -34.11035,-19.38379 -34.14453,-19.5791 l -0.4375,-2.6045 c -1.68555,-10.14062 -4.50684,-27.11328 -15.125,-51.38085 -11.37793,-26.00586 -34.99659,-45.24219 -35.23389,-45.4336 -0.20557,-0.16601 -0.36377,-0.38281 -0.4585,-0.62988 -0.0332,-0.085 -3.36132,-8.69336 -8.25586,-17.83008 -5.09814,-9.51562 -17.26025,-24.90527 -21.47314,-29.7207 -2.4624,-2.81348 -4.01416,-5.18848 -3.58398,-7.62989 0.37646,-2.13281 2.11181,-3.87207 5.98974,-6.00585 6.37891,-3.50782 14.20069,-1.99512 16.78369,0.58789 l 1.69629,2.01171 c 4.19776,5.18653 15.34766,18.96485 33.99414,29.75 29.87549,17.28125 58.99951,25.84864 86.56201,25.46485 15.30176,-0.21289 22.64454,1.55371 28.05957,6.75195 8.49903,8.16016 7.83301,13.28906 6.62208,22.60059 l -0.17286,1.33789 c -3.91992,30.64062 -1.9873,55.20996 6.26563,79.66406 2.66113,7.88477 5.58008,14.63965 8.15625,20.59961 3.49512,8.08887 6.25586,14.47754 6.25586,19.21289 0,11.05225 -6.14649,20.771 -20.55274,32.49707 -9.70703,7.90039 -18.11914,10.03174 -23.1455,11.30567 -1.63575,0.41455 -3.04883,0.77294 -3.71192,1.15966 -2.39746,1.39844 -4.65039,3.25928 -9.13965,6.96729 l -11.34668,9.2417 c -12.49218,9.99316 -29.92578,19.1626 -45.49707,23.9292 -17.89062,5.47656 -31.89843,11.28711 -50.56054,24.78125 -21.08741,15.24853 -33.39893,41.16113 -33.52051,41.42138 -0.35156,0.74903 -1.24317,1.07227 -1.99268,0.72217 M 378.50195,385.39941 c 19.28223,2.18946 30.03028,8.10645 35.92285,13.20704 -2.50097,-5.79102 -5.27929,-12.29883 -7.8457,-19.90332 -5.63379,-16.69043 -8.37793,-33.41504 -8.37793,-51.99708 0,-9.14648 0.66504,-18.74316 1.97754,-29.00683 l 0.17383,-1.34473 c 0.38184,-2.93652 0.69238,-5.32129 0.69238,-7.4414 0,-4.48243 -1.38769,-7.7793 -6.41699,-12.60743 -4.75879,-4.56836 -11.54688,-6.11621 -25.94043,-5.91601 -28.11133,0.39062 -57.75391,-8.3125 -88.10498,-25.86719 -19.12744,-11.06348 -30.53125,-25.15625 -34.82422,-30.46094 l -1.48535,-1.77734 c -1.41797,-1.41797 -7.625,-3.15527 -13.2168,-0.0801 -2.86621,1.57617 -4.29004,2.81543 -4.48095,3.89844 -0.0161,0.0898 -0.0239,0.18457 -0.0239,0.2832 0,1.05078 0.91553,2.56934 2.91113,4.85059 4.2793,4.88965 16.64698,20.54785 21.85987,30.2793 4.4414,8.29003 7.60058,16.11621 8.26562,17.79882 2.87109,2.39649 24.82861,21.2627 35.78613,46.30762 10.76758,24.61035 13.62793,41.81348 15.33594,52.09277 0,0 0.35938,2.13672 0.40723,2.42383 0.40039,0.86231 8.46386,17.25098 31.21582,17.25098 5.58789,0 10.21289,-0.63184 14.68554,-1.24317 6.55079,-0.8955 12.73731,-1.74121 21.4834,-0.74707 z"
         id="path3073"
         style="fill:#231f20;fill-opacity:1;fill-rule:nonzero;stroke:none" />
    </g>
  </g>
</svg>
