<?xml version="1.0" encoding="UTF-8" ?>
<!DOCTYPE svg PUBLIC "-//W3C//DTD SVG 1.1//EN" "http://www.w3.org/Graphics/SVG/1.1/DTD/svg11.dtd">
<svg width="420pt" height="719pt" viewBox="0 0 420 719" version="1.1" xmlns="http://www.w3.org/2000/svg">
<path fill="#ef4034" stroke="#ef4034" stroke-width="0.09375" opacity="1.00" d=" M 144.0 38.2 C 154.8 17.7 176.9 4.3 200.0 3.8 C 227.0 1.9 254.7 15.0 269.2 38.1 C 288.1 37.6 309.6 41.3 322.1 56.9 C 333.3 71.2 332.2 90.7 329.0 107.6 C 342.7 111.7 356.8 119.2 363.4 132.5 C 367.8 141.1 366.7 151.2 364.3 160.3 C 373.6 163.2 382.8 168.9 386.5 178.4 C 390.5 188.4 387.3 199.4 383.3 208.8 C 399.4 216.8 410.8 233.8 410.3 252.0 C 409.6 268.8 404.4 286.9 390.7 297.7 C 375.7 312.1 352.7 317.3 333.4 308.8 C 324.5 323.3 310.4 335.7 293.3 338.9 C 279.2 341.8 264.8 337.8 252.3 331.3 C 252.2 356.2 252.2 381.1 252.3 406.0 C 271.8 397.0 290.5 386.4 309.5 376.6 C 337.0 364.3 371.0 373.1 391.6 394.4 C 392.7 406.2 391.8 418.1 391.9 430.0 C 370.7 409.1 337.2 399.8 309.3 412.4 C 287.2 424.0 265.3 436.0 242.6 446.4 C 234.8 449.9 226.9 453.1 218.6 454.7 C 218.5 395.4 218.3 336.0 218.6 276.7 C 230.2 287.4 244.8 294.1 260.1 297.2 C 272.5 300.0 286.0 297.0 296.0 289.1 C 306.0 281.5 312.6 270.4 317.4 259.0 C 323.6 268.3 332.8 278.3 345.0 278.0 C 357.8 275.8 367.1 263.2 369.5 251.0 C 370.5 235.7 354.5 227.6 342.0 223.7 C 350.8 214.2 351.6 198.7 343.3 188.8 C 337.0 182.0 326.8 181.6 318.4 183.7 C 323.4 176.5 327.1 167.9 326.4 159.0 C 325.9 150.8 320.2 143.7 313.3 139.6 C 304.5 134.7 293.8 134.5 284.2 136.8 C 293.6 125.4 300.2 108.9 293.5 94.6 C 287.9 84.5 278.0 76.3 266.8 73.3 C 257.4 70.8 247.7 74.4 240.3 80.1 C 239.7 71.1 238.1 61.3 231.2 54.8 C 220.8 44.7 203.9 44.5 191.3 50.2 C 179.9 55.7 175.6 68.9 175.8 80.8 C 167.6 73.9 156.3 69.3 145.6 72.6 C 134.4 76.3 125.5 86.2 122.5 97.5 C 119.5 111.0 124.7 124.8 132.2 135.8 C 116.1 126.4 94.9 137.4 90.3 154.6 C 87.5 166.2 93.1 177.7 100.0 186.6 C 95.3 184.3 90.3 182.4 85.0 182.8 C 72.8 182.8 62.3 195.7 65.3 207.7 C 67.2 215.8 73.4 222.0 80.0 226.8 C 70.7 227.4 59.7 228.4 53.7 236.8 C 44.4 250.7 53.3 272.4 69.4 276.4 C 82.1 278.5 93.3 270.0 101.6 261.4 C 102.4 271.8 107.0 282.2 115.1 288.9 C 125.9 297.8 140.8 300.9 154.4 298.3 C 172.0 295.2 187.7 286.1 201.9 275.6 C 202.1 335.2 202.2 394.8 201.9 454.4 C 189.6 453.1 178.3 448.0 167.5 442.5 C 145.3 432.5 123.2 422.2 100.4 413.5 C 76.4 406.9 49.1 413.2 30.8 430.3 C 30.7 418.8 30.7 407.4 30.8 395.9 C 30.6 393.2 33.1 391.5 34.9 389.9 C 52.7 375.4 77.6 370.9 99.6 376.4 C 123.0 385.0 145.4 395.9 168.2 405.7 C 168.2 381.8 168.2 357.9 168.1 334.1 C 151.5 342.0 131.4 344.8 113.9 338.0 C 101.1 333.1 91.5 322.3 85.6 310.3 C 71.4 314.6 55.7 316.2 41.4 311.5 C 29.1 307.5 19.0 298.2 13.2 286.8 C 4.9 270.9 1.5 251.6 7.4 234.4 C 11.5 222.4 21.2 213.3 32.3 207.8 C 29.4 197.5 28.1 185.9 33.2 176.1 C 37.3 168.0 45.5 163.1 53.9 160.3 C 49.6 148.2 46.9 133.6 54.2 122.1 C 60.9 112.0 73.6 108.9 84.9 107.5 C 85.4 103.3 83.7 99.2 83.5 95.0 C 82.0 79.3 85.3 61.5 97.6 50.7 C 110.2 39.5 127.9 37.5 144.0 38.2 Z" />
<path fill="#ef4034" stroke="#ef4034" stroke-width="0.09375" opacity="1.00" d=" M 300.5 432.6 C 318.1 421.4 340.6 419.4 360.2 426.1 C 372.1 429.9 382.5 437.1 391.8 445.3 C 391.9 457.6 391.8 470.0 391.8 482.3 C 381.6 473.1 369.7 465.4 356.3 461.8 C 337.7 456.6 317.0 459.1 300.6 469.4 C 274.9 482.3 250.2 499.1 221.3 503.5 C 202.4 506.2 183.3 500.8 166.5 492.5 C 144.5 482.6 122.6 472.4 100.0 463.8 C 76.1 457.7 48.7 463.5 30.8 481.0 C 30.7 468.7 30.7 456.3 30.8 444.0 C 48.8 426.6 76.2 420.9 100.1 427.0 C 125.9 436.7 150.9 448.7 176.1 459.9 C 191.4 466.1 208.5 469.3 224.9 466.0 C 252.3 460.7 275.9 444.9 300.5 432.6 Z" />
<path fill="#ef4034" stroke="#ef4034" stroke-width="0.09375" opacity="1.00" d=" M 310.1 478.1 C 337.8 466.1 370.9 475.4 391.8 496.1 C 391.8 508.4 391.8 520.7 391.9 533.0 C 370.9 512.3 337.8 502.9 310.1 515.0 C 293.8 523.4 277.8 532.4 261.4 540.4 C 247.0 548.0 231.3 553.2 215.1 554.7 C 198.6 555.4 182.2 550.8 167.4 543.5 C 145.2 533.5 123.1 523.2 100.4 514.5 C 76.4 508.1 49.0 514.1 30.8 531.3 C 30.7 520.2 30.7 509.0 30.7 497.9 C 30.2 494.2 33.6 492.1 36.0 490.0 C 58.0 473.0 90.1 470.4 114.7 483.3 C 133.8 491.3 152.8 499.8 171.6 508.5 C 184.8 514.6 199.4 518.2 214.0 518.0 C 230.9 516.6 247.2 511.0 262.1 503.1 C 278.3 495.2 294.0 486.4 310.1 478.1 Z" />
<path fill="#ef4034" stroke="#ef4034" stroke-width="0.09375" opacity="1.00" d=" M 229.8 587.7 C 233.8 575.8 245.7 567.4 258.1 566.8 C 267.6 567.1 277.7 572.3 281.3 581.7 C 287.4 596.4 286.3 613.0 284.8 628.5 C 273.2 628.5 261.5 628.4 249.8 628.6 C 249.9 636.5 249.0 645.0 252.7 652.3 C 254.1 655.5 258.7 657.3 261.4 654.5 C 265.9 649.7 265.4 642.6 265.9 636.5 C 281.6 636.5 297.3 636.5 313.0 636.5 C 313.5 642.2 311.1 649.0 315.2 653.8 C 317.7 657.3 324.0 657.0 325.8 652.9 C 329.4 645.5 325.3 636.4 318.5 632.4 C 307.3 624.3 293.4 616.4 290.5 601.6 C 287.2 588.8 294.4 574.9 306.4 569.5 C 319.1 563.8 335.7 566.8 345.1 577.3 C 345.1 574.4 345.2 571.6 345.3 568.7 C 367.1 568.8 389.0 568.7 410.9 568.8 C 411.1 575.8 411.1 582.9 410.9 589.9 C 404.5 590.1 398.0 590.1 391.6 590.1 C 391.5 619.0 391.5 647.9 391.5 676.8 C 382.5 676.8 373.5 676.8 364.5 676.8 C 364.5 647.9 364.5 619.0 364.4 590.1 C 359.0 590.1 353.5 589.9 348.0 590.2 C 347.7 594.3 347.8 598.4 347.8 602.5 C 341.0 602.5 334.1 602.5 327.2 602.6 C 326.9 597.5 328.5 590.7 323.6 587.3 C 319.3 584.6 314.3 588.5 314.0 593.0 C 312.0 602.4 320.5 609.3 327.7 613.4 C 341.8 621.2 353.3 637.0 350.3 653.7 C 348.7 668.6 332.8 677.5 318.9 677.1 C 305.1 676.3 294.3 665.7 288.4 653.9 C 285.0 667.0 273.1 677.1 259.4 677.2 C 249.3 678.0 239.6 672.1 234.4 663.7 C 225.4 649.6 224.1 632.2 225.0 616.0 C 225.7 606.5 226.8 596.8 229.8 587.7 M 345.1 580.3 C 345.3 583.2 342.7 590.5 347.1 590.0 C 348.0 586.6 346.7 583.3 345.1 580.3 M 252.4 588.6 C 248.5 594.3 249.6 601.7 249.8 608.3 C 254.4 608.3 259.0 608.3 263.6 608.3 C 263.7 601.8 264.8 594.7 261.2 588.9 C 259.3 585.9 254.4 585.4 252.4 588.6 Z" />
<path fill="#ef4034" stroke="#ef4034" stroke-width="0.09375" opacity="1.00" d=" M 95.8 578.8 C 105.2 567.8 121.8 565.8 135.1 570.0 C 150.5 575.8 156.5 593.8 155.9 609.0 C 155.0 627.5 159.2 648.0 148.3 664.4 C 138.7 680.0 115.6 681.5 101.4 671.6 C 90.4 663.5 86.3 649.2 86.0 636.1 C 76.6 636.1 67.2 636.0 57.9 636.1 C 57.8 649.7 57.8 663.3 57.9 676.9 C 49.0 676.8 40.0 676.8 31.1 676.9 C 31.2 640.8 31.1 604.8 31.2 568.8 C 48.9 568.7 66.7 568.7 84.5 568.8 C 84.5 575.8 84.5 582.9 84.5 589.9 C 75.6 590.2 66.7 589.9 57.9 590.1 C 57.8 597.6 57.8 605.2 57.9 612.7 C 67.3 612.8 76.7 612.7 86.1 612.7 C 85.6 600.8 87.6 588.0 95.8 578.8 M 118.5 587.4 C 114.1 590.7 113.5 596.8 113.3 601.9 C 113.4 615.5 113.2 629.2 113.4 642.8 C 113.8 647.8 115.1 654.9 121.0 655.9 C 127.5 655.0 128.2 647.0 128.6 641.8 C 128.5 627.0 129.1 612.2 128.3 597.4 C 128.1 592.5 124.8 584.3 118.5 587.4 Z" />
<path fill="#ef4034" stroke="#ef4034" stroke-width="0.09375" opacity="1.00" d=" M 162.2 568.8 C 175.1 568.7 188.1 568.7 201.0 568.8 C 209.1 568.8 215.2 575.8 218.0 582.8 C 221.5 592.1 221.9 602.6 219.1 612.1 C 217.2 618.9 211.4 623.5 204.9 625.6 C 214.9 630.4 218.5 641.6 220.2 651.8 C 222.4 661.1 225.9 670.4 232.2 677.8 C 239.7 686.0 251.7 687.3 262.2 686.7 C 262.2 695.6 262.3 704.4 262.2 713.2 C 249.8 715.1 236.5 713.8 225.5 707.4 C 214.6 700.8 206.8 690.1 201.0 679.0 C 197.3 669.3 196.6 658.8 195.8 648.5 C 195.3 643.0 193.5 635.9 186.9 635.3 C 186.7 649.2 186.9 663.0 186.9 676.9 C 178.6 676.8 170.4 676.8 162.1 676.9 C 162.2 640.8 162.1 604.8 162.2 568.8 M 186.7 585.4 C 186.7 595.5 186.8 605.5 186.6 615.6 C 190.8 617.0 195.6 615.4 197.2 611.2 C 199.8 604.2 200.5 595.8 197.3 588.8 C 195.5 584.7 190.5 585.1 186.7 585.4 Z" />
</svg>
