<?xml version="1.0" encoding="UTF-8" standalone="no"?>
<!-- Generator: Adobe Illustrator 19.2.0, SVG Export Plug-In . SVG Version: 6.00 Build 0)  -->

<svg
   xmlns:dc="http://purl.org/dc/elements/1.1/"
   xmlns:cc="http://creativecommons.org/ns#"
   xmlns:rdf="http://www.w3.org/1999/02/22-rdf-syntax-ns#"
   xmlns:svg="http://www.w3.org/2000/svg"
   xmlns="http://www.w3.org/2000/svg"
   xmlns:sodipodi="http://sodipodi.sourceforge.net/DTD/sodipodi-0.dtd"
   xmlns:inkscape="http://www.inkscape.org/namespaces/inkscape"
   version="1.1"
   id="Layer_1"
   inkscape:output_extension="org.inkscape.output.svg.inkscape"
   inkscape:version="0.91 r13725"
   sodipodi:docname="Logo Everton FC 1972.svg"
   sodipodi:version="0.32"
   x="0px"
   y="0px"
   viewBox="0 0 700 690"
   xml:space="preserve"
   width="700"
   height="690"><metadata
     id="metadata8"><rdf:RDF><cc:Work
         rdf:about=""><dc:format>image/svg+xml</dc:format><dc:type
           rdf:resource="http://purl.org/dc/dcmitype/StillImage" /><dc:title></dc:title></cc:Work></rdf:RDF></metadata><defs
     id="defs6" /><sodipodi:namedview
     bordercolor="#666666"
     borderopacity="1.0"
     gridtolerance="10.0"
     guidetolerance="10.0"
     id="base"
     inkscape:current-layer="Layer_1"
     inkscape:cx="-845.81786"
     inkscape:cy="-152.11691"
     inkscape:pageopacity="0.0"
     inkscape:pageshadow="2"
     inkscape:window-height="788"
     inkscape:window-maximized="1"
     inkscape:window-width="1440"
     inkscape:window-x="0"
     inkscape:window-y="1"
     inkscape:zoom="0.14382717"
     objecttolerance="10.0"
     pagecolor="#ffffff"
     showgrid="false"
     showguides="false" /><g
     id="g3371"
     transform="matrix(0.3388364,0,0,0.33922165,610.6046,182.42443)"><path
       id="path3348"
       d="m -193.61914,659.92188 c -9.11621,-0.0547 -18.21875,0.20312 -27.28125,0.57812 -49,2.2 -97.89883,11.09961 -143.79883,28.59961 -70.5,26.9 -137.40156,71.10039 -187.60156,127.90039 -34.2,38.7 -60.79883,84.7 -69.79883,136 -9,51.4 -0.59961,105.4996 29.40039,148.5996 12.7,18.2 33.19922,32.5008 52.19922,43.3008 19.9,11.3 43.30078,17.0992 65.80078,20.6992 5.5,0.9 12.29961,-0.8 12.59961,5.5 0.2,4.6 -3,10.6 -4.5,15 -4.3,12.6 -7.30117,25.6 -10.70117,38.5 -6.8,26.2 -8.19844,54.5008 -5.39844,81.3008 5.2,50.8 31.79961,94.4004 69.09961,128.4004 41.5,37.8 98.00039,55.7992 152.90039,60.6992 50.9,4.5 102.5,-2.8008 150.5,-20.8008 47.300001,-17.8 91.900001,-44.1984 127.500001,-80.3984 37.8,-38.4 71.79961,-92.3012 68.09961,-148.2012 -1.4,-21.6 -7.29961,-43.3988 -20.59961,-60.7988 -17.2,-22.5 -42.601562,-37.0008 -70.6015622,-41.3008 -54.8999998,-8.4 -107.0999988,9.7996 -145.9999988,48.5996 -38.4,38.4 -56.79844,89.1996 -57.89844,143.0996 -0.2,7.9 -1.7,27.4004 10.5,28.4004 7.9,0.6 11.79922,-11.3004 13.69922,-16.9004 8.1,-23.2 12.5,-47.0984 22,-69.8984 20.8,-50.2 54.79961,-99.8012 111.099609,-112.7012 25.5,-5.8 54.2011722,-5.3 77.201172,8 21.8,12.7 37.49961,36.6008 40.09961,61.8008 11,106.3 -89.000391,186.4988 -178.400391,221.7988 -24.7,9.8 -49.79922,17.8008 -76.19922,21.8008 -30.2,4.6 -65.00039,4.7996 -94.40039,-4.4004 -19.5,-6.1 -37.5,-16 -50.5,-32 -22.3,-27.3 -26.40039,-66.0004 -23.40039,-99.9004 4.4,-48.7 24.59922,-95.3984 46.69922,-138.3984 4.8,-9.3 9.50078,-18.7012 14.80078,-27.7012 3.3,-5.6 7.00078,-16.6988 12.30078,-20.2988 4.2,-2.9 14.49883,-2.7016 19.29883,-3.6016 8,-1.4 16.00039,-2.7984 23.90039,-4.3984 11.7,-2.4 23.30039,-5.1 34.90039,-8 86.4,-22 167.800001,-58.8012 241.500001,-109.2012 52.1,-35.59999 101.998829,-76.59921 145.798829,-122.19921 29.3,-30.4 56.5,-63.80078 72.5,-103.30078 12.1,-29.7 15.60039,-68.50039 -2.09961,-96.90039 -16,-25.7 -43.99961,-38.49961 -73.09961,-42.09961 -42.8,-5.4 -86.099219,6.30039 -125.699219,21.40039 -42.4,16.2 -83.101562,38.49922 -121.101562,63.19922 C -103.20078,772.39922 -137.7,796.2 -170,822.5 c -41.8,34 -81.50078,69.5 -119.30078,108 -35.7,36.4 -71.39922,75.3004 -99.69922,117.9004 -18.9,28.5 -38,56.4 -54.5,86.5 -2.5,4.5 -4.49922,10.2988 -7.69922,14.2988 -2.7,3.3 -3.40156,2.4008 -8.10156,1.8008 -12.9,-1.6 -25.69922,-3.6004 -38.19922,-7.4004 -25.2,-7.6 -48.9,-21.0992 -63.5,-43.6992 -32.8,-50.7 -12.89961,-114.90118 11.90039,-164.20118 24.7,-49.1 61.70039,-93.39844 101.90039,-130.39844 36.8,-33.9 78,-63.00078 123,-84.80078 20,-9.7 40.59844,-17.69961 61.89844,-24.09961 27.3,-8.2 54.20156,-11.89961 82.60156,-12.59961 9.8,-0.3 22.89844,1.39922 32.39844,-1.80078 10.1,-3.4 10.00039,-12.79922 1.40039,-17.19922 -9,-4.6 -21.59883,-3.90039 -31.29883,-4.40039 -5.475,-0.3 -10.95019,-0.4457 -16.41992,-0.47851 z m 358.82812,19.40429 c 15.20171,-0.14592 30.5879,4.24258 40.29102,16.17383 17.6,21.5 10.2,54.4 0.5,77.5 -10.5,25.2 -25.40039,49.40078 -40.90039,71.80078 -48.4,70 -112.800001,131.29922 -181.000001,181.69922 -72.2,53.3 -153.798829,90.8996 -242.298829,106.5996 -1.4,0.2 -10.70078,2.9004 -12.30078,0.9004 -1.5,-2.1 2.80039,-7.8 3.90039,-9.5 46.6,-77.2 99.49883,-151.30078 156.79883,-220.80078 30.499999,-37 62.900389,-71.79961 96.900389,-105.59961 30.7,-30.5 62.600391,-59.49883 97.900391,-84.79883 18.5,-13.3 40.40078,-26.80039 62.80078,-31.90039 5.54063,-1.26562 11.45971,-2.01712 17.4082,-2.07422 z"
       style="fill:#053a9a;fill-opacity:1"
       inkscape:connector-curvature="0" /><g
       id="g3366"><path
         inkscape:connector-curvature="0"
         style="fill:#053a9a;fill-opacity:1"
         d="m -571.18555,209.50977 c -7.5332,-0.1668 -17.11484,6.07773 -22.71484,9.49023 -6.6,4.1 -12.69961,8.69922 -18.59961,13.69922 -30,25.6 -56.60078,55.60117 -81.30078,86.20117 -17.3,21.4 -34.99883,43.79961 -48.79883,67.59961 -15.7,26.9 -31.30117,53.19961 -45.20117,81.09961 -6.6,13.3 -12.39844,26.9 -18.39844,40.5 -3.9,8.7 -7.1,17.6 -10.5,26.5 -2.3,6.2 -2.90156,10.70117 -9.60156,12.70117 -18,5.4 -36.6,8.29844 -54.5,13.89844 -14.2,4.4 -28.09844,9.40078 -41.89844,14.80078 -29.1,11.4 -56.40078,26.70039 -83.30078,42.40039 -16.5,9.6 -37.2004,21.90039 -48.4004,37.90039 -2.7,3.8 -5.6988,10.29883 -1.7988,14.29883 3.6,3.8 8.1988,3.9e-4 11.7988,-2.09961 7.8,-4.5 15.4,-9.2 23,-14 25.10001,-15.9 50.10079,-33.2 76.80079,-46.5 28.7,-14.2 58.00039,-26.3 88.90039,-34.5 3.9,-1 22.79844,-7.59961 24.39844,-3.09961 0.7,2 -2.49922,7.7 -3.19922,9.5 -1.5,3.9 -2.99961,7.79961 -4.59961,11.59961 -5.3,12.8 -10.79961,25.30078 -16.59961,37.80078 -24.7,53.1 -53.30117,105.49844 -92.70117,149.39844 -28.4,31.7 -62.79961,58.2 -102.09961,75 -35.7,15.2 -73.9996,21.40117 -112.5996,21.70117 -33.4,0.2 -67.6004,-3.09961 -98.4004,-16.59961 -14.2,-6.2 -29.5996,-13.70078 -40.0996,-25.30078 -11.7,-12.9 -16.8996,-34.10078 -5.0996,-48.80078 11.5,-14.3 36.0988,-17.7 52.7988,-21 20.1,-3.9 42,-8.29961 56,-24.59961 12.8,-14.9 12.4008,-36.99883 6.8008,-54.79883 -5.2,-16.3 -18.0996,-28.3 -33.5996,-35 -38.6,-16.7 -87,-6.70156 -116.5,22.39844 -34.3,33.9 -41.9008,87.30078 -21.8008,130.80078 30.4,65.9 111.9008,87.49961 177.8008,93.59961 35.4,3.2 71.9984,1.59961 107.3984,-0.90039 64.5,-5.3 126.7008,-23.39844 184.3008,-52.39844 56,-28.2 103.39922,-70.70039 141.69922,-119.90039 22.3,-28.7 39.30078,-60.8 54.80078,-93.5 6.6,-13.9 12.49922,-27.90078 17.69922,-42.30078 3.2,-8.9 6.20156,-17.90039 9.10156,-26.90039 1.1,-3.3 2.4,-12.19961 5,-14.09961 1.9,-1.4 7.99883,-1.29961 10.29883,-1.59961 6,-0.9 12.09961,-1.8 18.09961,-2.5 5.7,-0.7 11.50117,-1.29922 17.20117,-1.69922 2.5,-0.2 7.49883,-1.30078 9.79883,-0.30078 2.6,1.1 2.00156,0.29922 1.10156,3.69922 -1.3,5.4 -4.80117,10.70117 -7.20117,15.70117 -3.9,8.2 -8.00039,16.3 -11.90039,24.5 -6.2,13.3 -11.9,26.79961 -18,40.09961 -3.7,8.2 -7,16.60039 -10.5,24.90039 -1.3,2.9 -10.19961,20.09883 -8.09961,21.79883 1.7,1.4 11.40117,-1.7 13.20117,-2 11.4,-2 22.79922,-4.19883 34.19922,-6.29883 l 17.09961,-3 c 2.3,-0.4 6.30078,-0.30039 8.30078,-1.40039 4.3,-2.3 5.79961,-10.99961 7.59961,-15.59961 14.8,-37.2 26.99922,-74.80039 36.19922,-113.90039 1.8,-7.8 1.60117,-12.4 9.20117,-16.5 7.2,-3.8 14.29883,-7.29922 21.29883,-11.69922 14.9,-9.4 28.70117,-21.10039 39.20117,-35.40039 11.6,-15.8 18.8,-36.60078 14,-56.30078 C -468.49961,390.49961 -489.1,385.2 -505,391.5 c -30.1,11.8 -47.69922,46.5 -61.69922,73.5 -8.2,15.7 -15.90156,31.19961 -23.60156,47.09961 -0.9,1.7 -1.79844,5.30078 -3.39844,6.30078 -1.7,1.2 -6.40039,0.8 -8.40039,1 -9.2,1 -18.30039,2.09922 -27.40039,3.19922 -5.7,0.7 -18.09922,4.49961 -23.69922,2.09961 -3.4,-1.5 -2.20078,-3.49883 -1.80078,-7.29883 2.4,-21.5 6.69922,-42.8 10.69922,-64 7,-37.4 16,-74.89961 27.5,-111.09961 10,-31.3 21.6,-61.80039 36,-91.40039 3,-6.2 24.20117,-37.10039 12.70117,-40.90039 -0.975,-0.3125 -2.00977,-0.46641 -3.08594,-0.49023 z m 73.66797,199.9414 c 12.42966,-0.65032 18.49297,16.41055 14.91797,29.24805 -5.9,21 -26.30039,36.6 -43.90039,47.5 31.78125,-19.5 0.54565,-0.24011 -0.26953,0.18359 -3.46853,2.25897 -7.96697,6.58626 -9.42969,1.41797 -0.7,-2.4 0.69961,-6.70156 1.09961,-9.10156 1.4,-8.5 3.3,-16.79961 5.5,-25.09961 3.8,-14.3 9.5,-32.09961 22.5,-40.59961 3.50625,-2.30625 6.71365,-3.39875 9.58203,-3.54883 z"
         id="path3344" /><path
         style="fill:#053a9a;fill-opacity:1"
         d="m -1069.7,540.1 c -50.1,-6.4 -94.2,-39.6 -104.5,-90.4 -10.8,-53.6 7.5,-106.2 37,-150.7 58.4,-87.9 148.1,-151.3 243.9,-193.7 47.3,-20.9 98.8,-35.7 150.3,-41.1 62.9,-6.6 126.5,-0.4 188.1,13.1 29.3,6.4 58.4,13.9 87.7,20.8 15.1,3.6 30.4,7.1 45.6,10 15.1,2.9 30.8,6.4 46.2,6 16.4,-0.4 32.3,-4.4 47.4,-10.8 7.2,-3.1 14.4,-6.5 21.6,-9.7 4.2,-1.9 12.7,-8.4 16.2,-2.7 4.5,7.2 -4.9,21.6 -9,26.9 -6.7,8.9 -15.9,16.7 -24.2,24.1 -19,17 -41.4,31.1 -65.2,40.4 -31.1,12.2 -62.4,12.5 -94.7,5.8 -47.3,-9.7 -92.2,-28.6 -137.7,-44.2 -54.4,-18.6 -110.2,-34.8 -168.1,-36.2 -34.6,-0.8 -69.4,4.2 -101.9,16.3 -29.4,10.9 -57.2,26 -83.7,42.9 -47.8,30.7 -90.7,68.4 -127.1,112 -35.8,42.8 -62.6,96.4 -56.9,153.4 2.5,24.5 12.6,51.4 34.3,65.4 28.4,18.2 64.9,14.8 94.6,1.4 32.1,-14.5 58.3,-38.4 81.3,-64.7 20.7,-23.7 38,-49.3 51.9,-77.5 24.2,-48.9 31.4,-101.2 28,-155.3 -0.3,-5.6 -2,-13 1.8,-17.9 8.6,-11.1 19.4,8.2 22.6,15.4 13.1,29.5 16.9,62.1 16.6,94.1 -0.6,56.2 -15.4,110.4 -48.1,156.2 -26.1,36.6 -62.8,66.8 -105.7,81.1 -27.6,9.3 -58.9,13.4 -88.3,9.6 z"
         id="path3340"
         inkscape:connector-curvature="0" /></g><path
       id="path3338"
       d="m -1243.7461,-537.77344 c -79.8835,0.0644 -160.7012,28.36328 -219.6543,81.57422 -45.8,41.4 -71.9988,99.3 -56.7988,161 5.9,23.8 18.2988,45.89844 34.2988,64.39844 5.1,5.9 10.5008,11.60039 16.3008,16.90039 2.6,2.5 14.0996,9.00039 14.5996,12.40039 0.6,4 -4.3,3.19961 -7.5,3.59961 -5.2,0.7 -10.2008,1.69961 -15.3008,2.59961 -92.5,16.9 -188.1988,48.40078 -256.2988,115.80078 -29.2,28.9 -52.2008,64.6 -61.8008,105 -10.6,44.6 -8,94.50078 11.5,135.80078 42.7,90.4 146.8012,133.99922 241.7012,137.19922 48.6,1.6 95.5992,-3.49922 141.6992,-18.19922 43.1,-13.9 85.5996,-39 118.5996,-70 30.7,-28.8 57.6008,-62.10039 68.3008,-103.40039 12.8,-49.599999 1.9988,-102.4011712 -40.2012,-134.201171 -45.2,-34.1 -117.0996,-28.499219 -162.5996,2.300781 -46.1,31.1 -77.5992,82.299219 -83.6992,137.69922 -1.7,16 -2.2996,32.60117 -1.0996,48.70117 0.6,7.6 1.2988,18.3 7.7988,23.5 21.8,17.6 26.5,-33.10117 28.5,-43.20117 10.9,-55.300001 40.1996,-106.698439 85.5996,-140.89843875 11.3,-8.59999995 23.6016,-15.40039025 37.1016,-19.90039025 12,-4 22.9996,-4.500782 35.5996,-4.300782 27.5,0.4 51.4004,13.100391 65.4004,37.400391 16.3,28 14.4984,63.899609 5.8984,94.09961 -8,28.4 -25.0992,53.79961 -45.1992,75.09961 -31.2,33.1 -69.9,59.00039 -112.5,74.90039 -25.9,9.7 -52.9,16.2 -80.5,19.5 -19.3,2.3 -39.1,1.50117 -58.5,1.20117 -42.8,-0.6 -87.4004,-18.60039 -112.4004,-54.40039 -18.2,-26 -21.8988,-55.50078 -21.7988,-86.30078 0,-24.4 3.2988,-47.998829 9.2988,-71.798829 9.4,-37.4 27.1012,-73.3003904 49.2012,-104.90039 31.7,-45.2 72.0996,-85.900001 121.0996,-112.000001 12,-6.3 24.3004,-12.20117 36.9004,-17.20117 8.6,-3.4 21.8992,-11.89844 30.6992,-6.89844 19.9,11.4 39.1992,24.19844 60.1992,31.89844 23.7,8.7 50.9004,16.40117 76.4004,13.20117 23.3,-2.9 52.6012,-23.59961 32.7012,-48.09961 -16.4,-20.2 -48.0016,-27.00117 -72.6016,-29.70117 -13.9,-1.6 -28,-1.9 -42,-2 -7.2,0 -14.3,0.2 -21.5,0.5 -4.1,0.1 -10.2984,1.50117 -14.3984,0.20117 -5.4,-1.6 -7.0016,-11.40039 -8.1016,-16.40039 -3,-13.2 -4.3992,-26.70117 -4.1992,-40.20117 0.5,-25.4 4.0992,-50.49922 12.1992,-74.69922 12.6,-37.7 35.4,-71.50078 63,-99.80078 34.9,-35.9 74.8016,-64.89844 126.1016,-70.39844 55.1,-5.9 109.2996,16 138.0996,64.5 29.9,50.2 17.4992,118.19844 -22.3008,158.89844 -18.7,19.2 -40.5004,31.90156 -67.9004,32.60156 -14.5,0.4 -28.2988,-1.70117 -39.7988,-11.20117 -9.4,-7.8 -17,-19.99883 -18.5,-32.29883 -2.7,-21.8 -0.2996,-44.00156 10.9004,-63.10156 6.7,-11.4 14.8992,-20.6 24.1992,-30 5.4,-5.4 10.9008,-10.69961 16.3008,-16.09961 2.8,-2.7 12.9996,-10.09961 13.0996,-14.09961 0.2,-5.8 -11.4004,-5.9 -14.9004,-5.5 -7.2,0.8 -14.2992,3.60039 -20.6992,6.90039 -9.3,4.8 -17.7008,11.39961 -25.3008,18.59961 -13.6,12.9 -24.7008,25.99922 -32.8008,42.69922 -19.1,39.6 -5.1,92.20039 34.5,113.40039 56.8,30.4 126.6,-6.69922 157.5,-57.19922 24.9,-40.7 28.9016,-96.6 8.6016,-140 -22.2,-47.4 -71.1016,-76.50117 -120.6016,-87.70117 -23.625,-5.36719 -47.9912,-7.99238 -72.4453,-7.97266 z m -101.8164,342.31055 c 13.3375,0.0375 26.6625,1.51328 38.5625,4.36328 9.8,2.4 21.5004,6.39922 27.9004,14.69922 7.3,9.3 4.7004,23.70039 -7.5996,26.90039 -19.9,5.2 -43.4008,-1.29922 -61.8008,-9.19922 -10.5,-4.6 -20.8996,-11.20117 -29.5996,-18.70117 -2.4,-2.1 -10.1,-7.39883 -10.5,-10.79883 -0.2,-2.5 2.0004,-2.4 4.4004,-3 11.95,-2.9 25.2992,-4.30117 38.6367,-4.26367 z"
       style="fill:#053a9a;fill-opacity:1"
       inkscape:connector-curvature="0" /></g></svg>