<?xml version="1.0" encoding="UTF-8" standalone="no"?>
<!-- Generator: Adobe Illustrator 13.0.0, SVG Export Plug-In . SVG Version: 6.00 Build 14948)  -->

<svg
   xmlns:dc="http://purl.org/dc/elements/1.1/"
   xmlns:cc="http://creativecommons.org/ns#"
   xmlns:rdf="http://www.w3.org/1999/02/22-rdf-syntax-ns#"
   xmlns:svg="http://www.w3.org/2000/svg"
   xmlns="http://www.w3.org/2000/svg"
   xmlns:xlink="http://www.w3.org/1999/xlink"
   xmlns:sodipodi="http://sodipodi.sourceforge.net/DTD/sodipodi-0.dtd"
   xmlns:inkscape="http://www.inkscape.org/namespaces/inkscape"
   version="1.1"
   id="Layer_1"
   x="0px"
   y="0px"
   width="760"
   height="700"
   viewBox="0 0 760.00001 700.00001"
   enable-background="new 0 0 192.756 192.756"
   xml:space="preserve"
   sodipodi:version="0.32"
   inkscape:version="0.91 r13725"
   sodipodi:docname="Logo Everton FC 1983.svg"
   inkscape:output_extension="org.inkscape.output.svg.inkscape"><metadata
     id="metadata2915"><rdf:RDF><cc:Work
         rdf:about=""><dc:format>image/svg+xml</dc:format><dc:type
           rdf:resource="http://purl.org/dc/dcmitype/StillImage" /><dc:title></dc:title></cc:Work></rdf:RDF></metadata><defs
     id="defs2913" /><sodipodi:namedview
     inkscape:window-height="788"
     inkscape:window-width="1440"
     inkscape:pageshadow="2"
     inkscape:pageopacity="0.0"
     guidetolerance="10.0"
     gridtolerance="10.0"
     objecttolerance="10.0"
     borderopacity="1.0"
     bordercolor="#666666"
     pagecolor="#ffffff"
     id="base"
     showgrid="false"
     inkscape:zoom="0.20888645"
     inkscape:cx="109.71242"
     inkscape:cy="-94.687101"
     inkscape:window-x="0"
     inkscape:window-y="1"
     inkscape:current-layer="Layer_1"
     inkscape:window-maximized="1" /><g
     id="g4516"
     transform="matrix(0.35037701,0,0,0.35040679,380.14662,272.62538)"><path
       sodipodi:nodetypes="ccccccccccccccccccccccccc"
       inkscape:connector-curvature="0"
       id="path4390"
       d="m 391.12305,-778.02539 c -4.16237,25.64324 -12.94267,27.3171 -19.30078,26.72461 l -615.18327,0.4082 0,35.05078 c 14.24213,1.26942 26.96839,11.63958 27.13248,27.51758 l 0,709.45922 c 0.0742,18.33695 -16.03418,18.662247 -27.13248,18.738047 l 0,35.384765 172.355141,0 0,-35.384765 C -94.856056,36.001727 -97.967773,28.129873 -98.053,21.135 l -0.08567,-337.23656 316.5,0 c 18.33695,-0.0742 25.65662,16.03451 25.73242,27.13281 l 35.38477,0 0,-153.60352 -35.38477,0 c -4.1704,25.69275 -12.97642,27.32527 -25.73242,27.13282 l -316.5,0 0,-236.11524 472.74414,0.48633 c 9.14145,-0.51443 16.44188,15.56307 16.51758,26.64648 l 35.38672,0 0,-153.60351 z"
       style="fill:#2c3c77;fill-opacity:1;fill-rule:evenodd;stroke:none;stroke-width:1px;stroke-linecap:butt;stroke-linejoin:miter;stroke-opacity:1" /><path
       sodipodi:nodetypes="ccccccccccccccccccccccccccccc"
       inkscape:connector-curvature="0"
       id="path4404"
       d="m -677.9053,-486.85279 c 3.8873,15.30045 1.78852,23.86219 -1.89871,25.07104 l -405.16049,176.22727 10.8745,25.03978 c 8.2455,-2.73992 23.3525,-2.43054 27.2875,6.37977 l 166.50169,383.38882 c 3.39609,9.27088 -5.15219,18.65546 -13.86164,24.02515 l 13.95591,32.64465 425.53728,-184.535831 20.41353,17.561423 32.5649,-14.1425821 -54.70871,-125.9729299 -32.56488,14.14258 0.43038,26.188225 -309.19788,134.603619 -52.40456,-120.554412 198.42242,-86.172742 c 10.20255,-4.47992 14.27163,8.78569 17.0003,14.9533 l 35.19503,-13.10435 -53.912,-124.13848 -32.80497,18.60779 c 3.89476,15.32991 4.64403,20.44695 -2.5124,23.42747 l -198.42242,86.17274 -44.96296,-108.55304 289.29544,-125.31578 c 4.9707,-2.49953 15.32157,10.19795 18.04663,16.3572 l 34.39945,-14.9393 -53.11532,-122.304 z"
       style="fill:#2c3c77;fill-opacity:1;fill-rule:evenodd;stroke:none;stroke-width:1px;stroke-linecap:butt;stroke-linejoin:miter;stroke-opacity:1" /><path
       sodipodi:nodetypes="sssccssccssccccsccsccccccs"
       inkscape:connector-curvature="0"
       id="rect4419"
       d="m 703.03964,-427.20797 c -85.25545,0.20497 -163.95924,39.51651 -209.77206,107.12789 l -15.92774,23.50586 C 393.95151,-173.51128 442.53676,11.308079 593.00195,98.375 l 1.87696,1.271484 c 72.66428,49.236616 154.5843,69.507886 228.55154,62.528616 6.92374,-0.6533 4.01634,22.15691 12.68933,21.90012 l 32.55141,-0.96377 -8.52908,-158.040153 -36.95061,4.786573 c -6.16232,0.798265 -0.48639,22.745883 -6.64066,24.12832 C 763.3156,65.944439 700.83855,54.396964 646.48047,17.564453 l -3.51758,-2.382812 C 546.33229,-41.391389 514.51467,-158.28138 569.03125,-240.42383 l 10.33789,-15.25781 c 29.73965,-43.89031 80.12024,-69.31286 135.20898,-69.61892 42.84682,-0.23804 88.5417,15.72173 129.5918,43.53689 l 3.51953,2.38281 c 42.63081,37.61026 90.31271,86.18769 99.4973,139.33936 1.36054,7.87353 -16.26667,17.85602 -16.26667,17.85602 l 14.46078,35.507746 138.74674,-68.274766 -15.9547,-32.01967 c 0,0 -23.0647,6.26759 -25.9273,-1.73013 -35.0326,-72.29901 -88.37028,-132.75962 -139.29248,-170.35629 -63.66539,-43.13906 -133.60369,-68.30881 -199.91348,-68.14938 z"
       style="opacity:1;fill:#2c3c77;fill-opacity:1;fill-rule:evenodd;stroke:none;stroke-width:2;stroke-linecap:round;stroke-linejoin:miter;stroke-miterlimit:4;stroke-dasharray:none;stroke-dashoffset:0;stroke-opacity:1" /></g><g
     id="g4507"
     transform="matrix(0.35037701,0,0,0.35040679,384.83272,272.62538)"><g
       id="g4382"><path
         id="path4384"
         d="m -680.12109,212.61133 c -5.74291,0.13083 -11.95919,2.2083 -18.16407,7.35156 -37.1945,30.65258 -63.0208,64.65676 -80.71289,98.78906 l -45.08203,-49.74609 c -19.36037,-23.50048 -35.7576,-14.14251 -43.79883,-6.45703 -7.35157,7.02633 -14.28037,25.85215 -0.90429,37.63086 l 71.3457,62.05859 c -3.18771,9.46109 -5.84015,18.82325 -8.03125,28.01563 l -66.12109,-25.61914 c -27.84137,-12.32699 -38.30258,3.39036 -42.04493,13.86523 -3.4214,9.57647 -1.17462,29.509 16.0625,34.04102 l 84.68555,21.71679 c -1.32244,13.04744 -1.81067,25.37942 -1.7539,36.77735 l -65.35547,-5.64063 c -30.17848,-4.04423 -35.82447,13.97454 -36.48633,25.07813 -0.60513,10.15129 7.12863,28.65966 24.94531,28.1875 l 80.27539,-2.61719 c 1.73947,11.19554 4.17256,22.13569 7.18164,32.83008 l -65.96875,6.74218 c -30.40274,1.66434 -32.5841,20.4194 -31.16015,31.45118 1.3018,10.08564 12.35857,26.82327 29.77343,23.03125 l 82.95313,-18.5918 c 3.38768,7.49199 7.04222,14.84054 10.95898,22.0332 l -64.83789,23.25391 c -29.11334,8.91687 -26.72687,27.64669 -22.69531,38.01367 3.68577,9.47786 18.43901,23.07026 34.43359,15.20703 l 76.98828,-38.43164 c 4.83919,6.78701 9.87912,13.40908 15.08789,19.86524 l -53.64453,36.29882 c -25.55721,16.55071 -18.13121,33.90929 -11.41406,42.77539 6.14102,8.10571 21.9352,16.71529 35.16406,4.77149 l 57.71094,-52.42578 c 51.5114,53.29414 112.18533,92.45792 157.26172,115.18945 19.53557,11.85665 28.81615,0.1899 32.24609,-7.69531 1.67045,-3.84026 6.59984,-15.2016 -15.91796,-26.37891 -52.60717,-26.72516 -99.94742,-60.81665 -138.34571,-99.50195 l 38.43555,-13.17774 c 29.47104,-7.65212 28.68477,-27.4462 26.43164,-35.73046 -2.10871,-7.75324 -13.43487,-16.00501 -29.75391,-10.95508 l -63.68164,28.19336 c -3.57792,-4.38491 -7.04515,-8.81296 -10.39062,-13.28321 l 63.41992,-22.09179 c 16.79519,-5.9648 17.35875,-26.01647 13.14453,-35.27149 -4.60954,-10.12325 -15.51007,-20.67429 -42.2168,-6.05078 l -57.73242,28.16016 c -3.97551,-6.84469 -7.66731,-13.75937 -11.0664,-20.73242 l 73.77929,-18.67774 c 17.2509,-4.47926 19.5581,-24.40528 16.16602,-33.99219 -3.71028,-10.48627 -13.65035,-24.06207 -41.5293,-11.82031 l -64.96094,22.6582 c -2.76568,-9.09271 -5.00842,-18.24582 -6.70117,-27.4375 l 83.66992,-6.0625 c 17.76818,-1.39615 23.52222,-20.61241 21.85743,-30.64453 -1.82097,-10.97324 -9.32306,-28.29938 -38.91211,-21.11718 l -70.49219,13.6289 c 0.0292,-8.36402 0.45749,-17.10984 1.35351,-26.12109 l 91.41993,0.68554 c 17.82293,0.0251 25.09194,-18.67175 24.23242,-28.80468 -0.94017,-11.0835 -7.03793,-28.9542 -37.10547,-24.1543 l -70.45313,7.86524 c 1.49802,-5.58353 3.19202,-11.19166 5.10157,-16.80274 l 88.10156,-16.31445 c 17.505,-3.3515 21.09937,-23.08445 18.33594,-32.8711 -3.02268,-10.70473 -12.39391,-27.09616 -41.00782,-16.6875 l -39.68164,12.34961 c 18.0688,-26.31141 48.07691,-49.43481 71.39258,-71.40234 15.68108,-13.16267 11.40418,-30.61943 4.85547,-36.82227 -4.86989,-4.61269 -12.253,-8.57598 -20.64648,-8.38476 z"
         style="fill:#efc53b;fill-opacity:1;fill-rule:evenodd;stroke:none;stroke-width:1px;stroke-linecap:butt;stroke-linejoin:miter;stroke-opacity:1"
         inkscape:connector-curvature="0" /><path
         inkscape:connector-curvature="0"
         style="fill:#efc53b;fill-opacity:1;fill-rule:evenodd;stroke:none;stroke-width:1px;stroke-linecap:butt;stroke-linejoin:miter;stroke-opacity:1"
         d="m -515.98073,212.61133 c 5.74291,0.13083 11.95919,2.2083 18.16407,7.35156 37.1945,30.65258 63.0208,64.65676 80.71289,98.78906 l 45.08203,-49.74609 c 19.36037,-23.50048 35.7576,-14.14251 43.79883,-6.45703 7.35157,7.02633 14.28037,25.85215 0.90429,37.63086 l -71.3457,62.05859 c 3.18771,9.46109 5.84015,18.82325 8.03125,28.01563 l 66.12109,-25.61914 c 27.84137,-12.32699 38.30258,3.39036 42.04493,13.86523 3.4214,9.57647 1.17462,29.509 -16.0625,34.04102 l -84.68555,21.71679 c 1.32244,13.04744 1.81067,25.37942 1.7539,36.77735 l 65.35547,-5.64063 c 30.17848,-4.04423 35.82447,13.97454 36.48633,25.07813 0.60513,10.15129 -7.12863,28.65966 -24.94531,28.1875 l -80.27539,-2.61719 c -1.73947,11.19554 -4.17256,22.13569 -7.18164,32.83008 l 65.96875,6.74218 c 30.40274,1.66434 32.5841,20.4194 31.16015,31.45118 -1.3018,10.08564 -12.35857,26.82327 -29.77343,23.03125 l -82.95313,-18.5918 c -3.38768,7.49199 -7.04222,14.84054 -10.95898,22.0332 l 64.83789,23.25391 c 29.11334,8.91687 26.72687,27.64669 22.69531,38.01367 -3.68577,9.47786 -18.43901,23.07026 -34.43359,15.20703 l -76.98828,-38.43164 c -4.83919,6.78701 -9.87912,13.40908 -15.08789,19.86524 l 53.64453,36.29882 c 25.55721,16.55071 18.13121,33.90929 11.41406,42.77539 -6.14102,8.10571 -21.9352,16.71529 -35.16406,4.77149 l -57.71094,-52.42578 c -51.5114,53.29414 -112.18533,92.45792 -157.26172,115.18945 -19.53557,11.85665 -28.81615,0.1899 -32.24609,-7.69531 -1.67045,-3.84026 -6.59984,-15.2016 15.91796,-26.37891 52.60717,-26.72516 99.94742,-60.81665 138.34571,-99.50195 l -38.43555,-13.17774 c -29.47104,-7.65212 -28.68477,-27.4462 -26.43164,-35.73046 2.10871,-7.75324 13.43487,-16.00501 29.75391,-10.95508 l 63.68164,28.19336 c 3.57792,-4.38491 7.04515,-8.81296 10.39062,-13.28321 l -63.41992,-22.09179 c -16.79519,-5.9648 -17.35875,-26.01647 -13.14453,-35.27149 4.60954,-10.12325 15.51007,-20.67429 42.2168,-6.05078 l 57.73242,28.16016 c 3.97551,-6.84469 7.66731,-13.75937 11.0664,-20.73242 l -73.77929,-18.67774 c -17.2509,-4.47926 -19.5581,-24.40528 -16.16602,-33.99219 3.71028,-10.48627 13.65035,-24.06207 41.5293,-11.82031 l 64.96094,22.6582 c 2.76568,-9.09271 5.00842,-18.24582 6.70117,-27.4375 l -83.66992,-6.0625 c -17.76818,-1.39615 -23.52222,-20.61241 -21.85743,-30.64453 1.82097,-10.97324 9.32306,-28.29938 38.91211,-21.11718 l 70.49219,13.6289 c -0.0292,-8.36402 -0.45749,-17.10984 -1.35351,-26.12109 l -91.41993,0.68554 c -17.82293,0.0251 -25.09194,-18.67175 -24.23242,-28.80468 0.94017,-11.0835 7.03793,-28.9542 37.10547,-24.1543 l 70.45313,7.86524 c -1.49802,-5.58353 -3.19202,-11.19166 -5.10157,-16.80274 l -88.10156,-16.31445 c -17.505,-3.3515 -21.09937,-23.08445 -18.33594,-32.8711 3.02268,-10.70473 12.39391,-27.09616 41.00782,-16.6875 l 39.68164,12.34961 c -18.0688,-26.31141 -48.07691,-49.43481 -71.39258,-71.40234 -15.68108,-13.16267 -11.40418,-30.61943 -4.85547,-36.82227 4.86989,-4.61269 12.253,-8.57598 20.64648,-8.38476 z"
         id="path4386" /></g><use
       height="100%"
       width="100%"
       transform="translate(1168.5153,0)"
       style="fill:#aa0000"
       id="use4388"
       xlink:href="#g4382"
       y="0"
       x="0" /><g
       id="g4503"><path
         style="fill:#efc43a;fill-opacity:1;fill-rule:evenodd;stroke:none;stroke-width:1px;stroke-linecap:butt;stroke-linejoin:miter;stroke-opacity:1"
         d="m 35.224609,110.12305 c -4.130971,-0.0232 -8.544331,0.64599 -12.003906,2.67578 -10.95537,6.42766 -21.007813,15.55414 -35.189453,15.11914 -14.181645,0.435 -24.232132,-8.69148 -35.1875,-15.11914 -3.459577,-2.02979 -7.872784,-2.69703 -12.003906,-2.67383 -4.131123,0.0232 -7.979557,0.73694 -10.306641,1.47461 -6.827171,2.16417 -9.65231,8.8639 -6.53125,22.30273 8.806378,67.34715 14.257359,134.02341 -8.378906,195.08204 l -83.177737,233.97851 c -60.86912,22.14184 -68.3736,48.86736 -68.4707,63.51563 -0.14618,22.04069 4.5984,35.30136 12.76953,43.05273 10.52995,9.989 26.75074,10.82873 45.52734,9.52344 l 0,105.99219 c -4.45915,-1.88753 -10.71644,-3.11512 -17.75781,-3.19141 -23.05245,-0.24979 -54.26449,11.76442 -56.44531,52.78711 l 0,175.33402 c 0.33753,30.1892 12.80726,63.6306 44.32812,85.6035 37.57431,26.1927 71.47991,51.699 122.808598,70.9219 89.1652112,33.3929 175.671792,55.6826 284.066402,52.9199 22.31956,-0.067 54.05186,-29.3476 53.25782,-63.4492 l 0,-203.4434 c 0.33496,-24.01862 -22.52688,-77.87439 -98.73633,-89.18555 l 0,-184.28906 c 18.7766,1.30529 34.99544,0.46556 45.52539,-9.52344 8.17113,-7.75137 12.91571,-21.01204 12.76953,-43.05273 -0.0971,-14.64827 -7.59963,-41.37379 -68.46875,-63.51563 L 60.439453,328.98438 C 37.803193,267.92575 43.25612,201.24949 52.0625,133.90234 c 3.12106,-13.43883 0.29592,-20.13856 -6.53125,-22.30273 -2.327085,-0.73767 -6.175669,-1.45334 -10.306641,-1.47656 z m -59.160156,65.66797 23.935547,0 C -25.58228,297.09645 51.041394,429.22811 83.777344,548.00391 54.011554,542.2311 21.18191,537.08555 -11.96875,537.83008 c -33.150663,-0.74453 -65.980318,4.40102 -95.74609,10.17383 32.735929,-118.7758 109.3615715,-250.90746 83.779293,-372.21289 z m 11.966797,406.57617 c 34.186015,-0.15734 111.845575,8.81846 168.05078,33.1914 17.38556,6.19922 18.06627,25.24691 -2.30078,19.27735 -46.99614,-15.90963 -115.672204,-28.8185 -165.75,-28.34961 -50.077796,-0.46889 -118.75386,12.43998 -165.75,28.34961 -20.36705,5.96956 -19.68829,-13.07813 -2.30273,-19.27735 56.20521,-24.37294 133.866715,-33.34874 168.05273,-33.1914 z m 0,67.96484 c 46.50259,-0.17827 81.818535,10.00033 116.0918,19.14844 -4.04095,3.34122 -35.834681,1.58968 -37.113284,8.25391 -1.948769,5.24787 11.530503,6.06887 18.316406,8.02929 8.817851,2.54744 18.454338,-0.19279 16.404298,8.47071 -1.58815,7.69867 -35.821531,1.01794 -36.789064,10.52734 -0.101977,4.23134 11.111188,6.72629 17.773438,7.02344 10.929919,0.4875 18.728346,0.68305 19.470706,6.76562 0.76762,5.29709 -11.716937,2.13177 -18.527347,2.78516 -10.124706,0.97135 -19.233493,2.75293 -18.857422,6.40429 0.804456,5.9171 11.447411,6.65055 18.810547,8.23047 5.34535,1.14695 16.984672,2.42802 15.585938,7.92578 -2.119071,6.45428 -35.444477,3.07006 -34.601563,12.48633 1.235584,9.301 39.469857,4.8527 37.560547,13.07422 -1.41536,4.12406 -9.087038,1.95722 -14.513672,3.33008 -7.97787,0.9719 -16.216622,1.89143 -16.195312,6.9668 -0.821122,8.85756 27.691505,9.23543 27.291015,17.78711 -0.0071,9.33847 -21.435044,5.74639 -26.814453,8.00976 -5.618837,2.36411 -7.808645,4.42321 -7.996094,6.60938 -0.356046,4.15245 8.610234,7.67796 25.980469,8.27929 17.358267,2.80349 15.784907,12.21211 -1.853515,12.07227 -14.62464,1.2277 -35.755453,-1.20337 -37.72461,3.78516 -0.951923,4.22976 14.388429,10.11275 27.644531,13.14648 15.100848,3.45591 19.147529,6.64607 15.21875,9.05664 -2.754482,1.69007 -11.14176,0.61298 -24.005859,0.51172 -30.296117,-0.23847 -64.2737328,-2.79255 -64.9785156,3.7793 -0.694189,7.33566 20.9777576,11.09081 48.7207036,15.76953 14.736052,2.48517 30.190127,5.59827 37.457031,8.25 20.985041,7.65753 -16.244486,4.73895 -18.708985,4.50586 -38.097745,-3.60328 -55.420065,-6.95096 -57.029296,-0.60547 -1.090389,4.2996 31.71705,14.36308 89.992182,28.33594 l 0.0137,6.54296 C 25.621369,912.81854 -56.805843,889.98832 -128.6582,858.57812 l 0.59765,-189.09765 c 34.273262,-9.14811 69.589209,-19.32671 116.0918,-19.14844 z m -176.02734,174.48633 c 3.95364,0.0576 8.15649,0.71533 10.80078,0.0215 l 0,15.96289 -20.96289,-9.07617 c 0.40941,-6.06298 5.07885,-6.98223 10.16211,-6.9082 z m -14.26758,50.17969 c 12.49288,8.15331 26.09728,15.79242 40.69336,22.95507 l 0,23.10743 c -13.97221,-8.25132 -27.55007,-17.01142 -40.69336,-26.26953 l 0,-19.79297 z m 356.05664,37.84179 c 6.04409,1.58593 22.03222,2.29696 20.96484,8.88672 l -20.96484,5.07617 0,-13.96289 z m -270.05664,4.71289 c 13.03209,4.98315 26.620649,9.68871 40.693358,14.14063 l 0,31.71289 c -13.831555,-5.58149 -27.404588,-11.60299 -40.693358,-18.05078 l 0,-27.80274 z m 87.999998,27.7168 c 14.990502,3.90347 30.3946872,7.57805 46.166016,11.03711 0.166433,0.0365 0.343169,0.0767 0.509765,0.11328 l 0,37.1543 C 2.6225843,989.72476 -12.948492,985.3513 -28.263672,980.46289 l 0,-35.19336 z m -173.999998,1.95899 c 12.49299,8.44905 26.09713,16.64747 40.69336,24.5 l 0,29.48828 c -14.03785,-8.22903 -27.61761,-16.99 -40.69336,-26.27735 l 0,-27.71093 z m 406.67578,14.45898 0,52.2598 c -15.64187,0.2868 -31.20944,0.077 -46.67578,-0.6094 l 0,-39.88868 c 15.69178,-1.72261 31.32056,-5.3935 46.67578,-11.76172 z m -138.675782,5.05859 c 15.269271,3.03584 30.898949,5.60679 46.675782,6.94141 l 0,36.2363 c -15.705029,-1.6733 -31.274908,-3.8399 -46.675782,-6.5019 l 0,-36.67581 z m -181.999998,26.83789 c 13.03204,5.62971 26.620704,10.97912 40.693358,16.00782 l 0,33.1797 c -13.872518,-5.4315 -27.445208,-11.3002 -40.693358,-17.5957 l 0,-31.59182 z m 87.999998,31.12892 c 14.990471,4.251 30.3947212,8.1347 46.166016,11.5937 0.172029,0.038 0.337859,0.074 0.509765,0.1114 l 0,35.4297 c -15.83054,-3.699 -31.399483,-7.9024 -46.675781,-12.5957 l 0,-34.5391 z m -173.999998,2.5156 c 12.49299,8.4491 26.09713,16.6475 40.69336,24.5 l 0,15.0977 c -9.79746,-6.9904 -19.42638,-14.3273 -28.89258,-22.0196 l -11.80078,-12.0996 0,-5.4785 z m 267.999998,19.1348 c 15.151118,2.8729 30.484668,5.324 46.675782,6.9531 l 0,34.2461 c -15.741024,-1.6376 -31.308171,-3.7386 -46.675782,-6.2891 l 0,-34.9101 z m 138.675782,6.6152 0,38.8828 c -15.67637,0.1428 -31.24252,-0.1549 -46.67578,-0.8828 l 0,-35.4902 c 14.53829,-0.06 29.97807,-0.8277 46.67578,-2.5098 z m -320.67578,20.6055 c 13.03204,5.6297 26.620703,10.9791 40.693358,16.0078 l 0,27.4707 c -13.883567,-6.4676 -27.441368,-13.5116 -40.693358,-21.1289 l 0,-22.3496 z m 87.999998,31.1289 c 14.990471,4.251 30.3947212,8.1347 46.166016,11.5937 0.172029,0.038 0.337859,0.074 0.509765,0.1114 l 0,34.3281 c -15.9503561,-4.1603 -31.500912,-8.9366 -46.675781,-14.3281 l 0,-31.7051 z m 94,21.6504 c 15.151118,2.8729 30.484668,5.324 46.675782,6.9531 l 0,34.3496 c -15.919046,-1.6898 -31.470551,-3.8868 -46.675782,-6.5879 l 0,-34.7148 z m 138.675782,6.6152 0,23.9746 c -4.08249,7.3855 -9.83335,14.9726 -14.72656,14.9395 -10.80696,-0.073 -21.45173,-0.3547 -31.94922,-0.8301 l 0,-35.5742 c 14.53829,-0.06 29.97807,-0.8277 46.67578,-2.5098 z"
         id="path4431"
         inkscape:connector-curvature="0" /><path
         style="fill:#efc43a;fill-opacity:1;fill-rule:evenodd;stroke:none;stroke-width:1px;stroke-linecap:butt;stroke-linejoin:miter;stroke-opacity:1"
         d="m -16.683594,685.57227 c -23.492056,-0.0759 -45.771169,1.86772 -66.251953,6.81054 l 0,121.01953 c 22.428238,-4.34495 47.418331,-5.21408 70.966797,-5.07812 23.548466,-0.13596 48.538559,0.73317 70.966797,5.07812 l 0,-121.01953 c -21.84617,-5.27234 -45.738969,-7.13329 -70.966797,-6.76953 -1.576739,-0.0227 -3.148707,-0.036 -4.714844,-0.041 z m 4.714844,32.04101 c 17.103497,0.38586 24.889424,0.97992 38.966797,2.07031 l 0,56.91797 c -16.715839,0.098 -15.418331,-0.4133 -38.966797,-0.27734 -23.548466,-0.13596 -22.250958,0.37537 -38.966797,0.27734 l 0,-56.91797 c 14.077373,-1.09039 21.8633,-1.68445 38.966797,-2.07031 z"
         id="path4436"
         inkscape:connector-curvature="0" /></g></g></svg>