<?xml version="1.0" encoding="UTF-8" standalone="no"?>
<!-- Generator: Adobe Illustrator 13.0.0, SVG Export Plug-In . SVG Version: 6.00 Build 14948)  -->

<svg
   xmlns:dc="http://purl.org/dc/elements/1.1/"
   xmlns:cc="http://creativecommons.org/ns#"
   xmlns:rdf="http://www.w3.org/1999/02/22-rdf-syntax-ns#"
   xmlns:svg="http://www.w3.org/2000/svg"
   xmlns="http://www.w3.org/2000/svg"
   xmlns:sodipodi="http://sodipodi.sourceforge.net/DTD/sodipodi-0.dtd"
   xmlns:inkscape="http://www.inkscape.org/namespaces/inkscape"
   version="1.1"
   id="Layer_1"
   x="0px"
   y="0px"
   width="700"
   height="700"
   viewBox="0 0 700.00001 700.00001"
   enable-background="new 0 0 192.756 192.756"
   xml:space="preserve"
   sodipodi:version="0.32"
   inkscape:version="0.91 r13725"
   sodipodi:docname="Logo Everton FC 1982.svg"
   inkscape:output_extension="org.inkscape.output.svg.inkscape"><metadata
     id="metadata2915"><rdf:RDF><cc:Work
         rdf:about=""><dc:format>image/svg+xml</dc:format><dc:type
           rdf:resource="http://purl.org/dc/dcmitype/StillImage" /><dc:title /></cc:Work></rdf:RDF></metadata><defs
     id="defs2913" /><sodipodi:namedview
     inkscape:window-height="788"
     inkscape:window-width="1440"
     inkscape:pageshadow="2"
     inkscape:pageopacity="0.0"
     guidetolerance="10.0"
     gridtolerance="10.0"
     objecttolerance="10.0"
     borderopacity="1.0"
     bordercolor="#666666"
     pagecolor="#ffffff"
     id="base"
     showgrid="false"
     inkscape:zoom="0.48245901"
     inkscape:cx="285.78299"
     inkscape:cy="452.95119"
     inkscape:window-x="0"
     inkscape:window-y="1"
     inkscape:current-layer="Layer_1"
     inkscape:window-maximized="1"
     showguides="false" /><g
     id="g4449"><g
       transform="matrix(0.28262644,0,0,0.28262644,209.76566,308.02083)"
       id="g4552"><circle
         style="opacity:1;fill:#1e3a7b;fill-opacity:1;fill-rule:evenodd;stroke:none;stroke-width:2;stroke-linecap:round;stroke-linejoin:miter;stroke-miterlimit:4;stroke-dasharray:none;stroke-dashoffset:0;stroke-opacity:1"
         id="circle4540"
         cx="496.18268"
         cy="148.53235"
         r="1238.3838" /><circle
         r="1213.5055"
         cy="148.53235"
         cx="496.18268"
         id="circle4538"
         style="opacity:1;fill:#ffffff;fill-opacity:1;fill-rule:evenodd;stroke:none;stroke-width:2;stroke-linecap:round;stroke-linejoin:miter;stroke-miterlimit:4;stroke-dasharray:none;stroke-dashoffset:0;stroke-opacity:1" /><circle
         style="opacity:1;fill:#1e3a7b;fill-opacity:1;fill-rule:evenodd;stroke:none;stroke-width:2;stroke-linecap:round;stroke-linejoin:miter;stroke-miterlimit:4;stroke-dasharray:none;stroke-dashoffset:0;stroke-opacity:1"
         id="path4536"
         cx="496.18268"
         cy="148.53235"
         r="1108.464" /></g><g
       id="g4408"><g
         id="g4557"
         transform="matrix(0.28262644,0,0,0.28262644,208.96746,308.02083)"><g
           style="fill:#ffc525;fill-opacity:1"
           id="g4328"><path
             inkscape:connector-curvature="0"
             style="fill:#ffc525;fill-opacity:1"
             d="m -279.81754,638.52793 c 3.48068,-1.03363 18.06716,-7.70326 32.41437,-14.82125 42.21419,-20.94363 53.32502,-26.11413 56.03075,-26.07413 3.04689,0.045 16.28004,6.18825 55.5412,25.78375 33.13137,16.536 38.114812,18.12025 47.979812,15.25237 9.235138,-2.68475 14.990413,-9.41412 11.760738,-13.75137 -0.812163,-1.09075 -13.0079,-6.97138 -27.10165,-13.06825 -38.53871,-16.67162 -50,-21.94163 -50,-22.9905 0,-2.10463 20.0513,0.3555 53.75,6.595 34.260087,6.34337 68.014875,0.1895 96.839925,-17.65512 12.156425,-7.52563 15.051462,-9.66638 14.210137,-10.50775 -1.330937,-1.33088 -45.22305,-4.70988 -71.675062,-5.51763 l -27.5,-0.83987 5,-2.231 c 2.75,-1.227 10.625,-4.70925 17.5,-7.73825 l 12.5,-5.50738 13.229587,2.39963 c 52.165513,9.46237 96.516275,4.5455 124.987663,-13.8565 8.750162,-5.6555 17.35074,-12.50338 17.38521,-13.84225 0.0441,-1.71225 -27.97936,-9.89188 -40.436423,-11.80263 -15.527775,-2.38187 -33.422125,-1.55862 -47.666037,2.19275 -17.2204625,4.5355 -16.892475,4.52263 -11.875,0.466 2.40625,-1.94537 8.03125,-7.03375 12.5,-11.30737 l 8.125,-7.77013 12.5,-0.83787 c 64.81921,-4.34475 103.69817,-26.99938 113.72297,-66.266 1.04612,-4.09763 1.90203,-9.35013 1.90203,-11.67238 l 0,-4.22225 -5.3125,0.82663 c -9.09206,1.41462 -27.76041,6.60062 -38.00698,10.55812 -16.304445,6.29725 -38.376783,20.10938 -50.80742,31.79338 -4.803675,4.51525 -5.3522,4.128 -1.91255,-1.34988 1.60295,-2.55287 7.1332,-13.06425 12.28945,-23.35862 8.86485,-17.69863 9.613075,-18.77438 13.75,-19.76813 8.907787,-2.13975 25.76311,-7.57537 31.23311,-10.07225 34.40541,-15.70537 55.12829,-57.79225 49.91614,-101.37675 -0.75033,-6.27425 -1.78509,-11.84887 -2.29948,-12.388 -1.18388,-1.24087 -33.74306,32.11425 -41.66216,42.6805 -5.9665,7.961 -15.10774,23.02738 -24.18061,39.85388 -2.6851,4.97975 -5.323663,9.05787 -5.863475,9.0625 -0.539813,0 -0.4658,-0.976 0.164475,-2.17913 2.842325,-5.42575 12.67937,-55.45537 12.68841,-64.53137 0.002,-2.76925 1.5096,-4.91475 6.56609,-9.34913 25.7151,-22.55125 39.54899,-43.61037 46.82676,-71.28337 2.59959,-9.88475 3.17643,-15.0255 3.2426,-28.89863 0.0697,-14.623 -0.37207,-18.53387 -3.31084,-29.306 -1.86522,-6.837 -3.60796,-12.64762 -3.87272,-12.91237 -1.1355,-1.1355 -7.81653,4.58762 -13.74301,11.77262 -10.96969,13.299 -19.41972,32.58875 -26.42087,60.31338 -2.32535,9.20837 -4.52187,17.0365 -4.88116,17.39575 -0.3593,0.35937 -0.64925,-5.48738 -0.64434,-12.9925 0.005,-7.50525 -0.62271,-22.133 -1.39471,-32.50625 l -1.40364,-18.86025 7.45328,-10.05225 c 25.99639,-35.06133 31.44031,-66.92038 19.18029,-112.247305 -3.75145,-13.869587 -4.388,-14.631775 -8.33484,-9.979825 -15.05373,17.7431 -22.899975,40.677738 -25.030688,73.16491 -0.810962,12.36468 -1.087725,13.64782 -2.013575,9.33509 -1.373875,-6.39965 -2.377475,-10.18955 -7.944275,-30 C 79.786667,79.891925 79.918792,80.988788 83.036267,77.02605 92.449967,65.059938 97.987692,34.137713 94.403192,13.554 91.63193,-2.359725 82.388817,-16.8577 69.485255,-25.5302 c -4.347375,-2.921875 -8.35805,-5.3125 -8.912625,-5.3125 -3.3074,0 -5.0795,38.679825 -2.428975,53.017788 0.734775,3.974812 1.0826,7.480312 0.772912,7.789987 C 58.606892,30.27475 56.259317,26.704063 53.69973,22.030213 51.140155,17.356363 46.560142,9.7801625 43.521917,5.194225 40.483705,0.6082875 36.304292,-7.250875 34.23433,-12.270575 23.11768,-39.228737 4.55183,-57.288637 -20.06732,-65.092412 c -3.4375,-1.089625 -9.765625,-2.7793 -14.0625,-3.75485 -6.443975,-1.463013 -7.8125,-1.48255 -7.8125,-0.1115 0,3.4561 13.88095,29.146925 20.952725,38.77925 10.579912,14.410687 16.5598875,18.706862 36.547275,26.2565495 5.15625,1.947625 10.444975,4.421825 11.752712,5.498225 4.582775,3.7720375 17.361675,24.6190255 25.719075,41.9570755 9.291525,19.275987 10.3761,21.89265 9.051488,21.837825 C 61.586905,65.349663 59.21393,61.8866 56.80768,57.674338 42.488292,32.607563 11.91338,11.917125 -18.68267,6.58905 -23.300445,5.7849 -27.370858,5.4192125 -27.728045,5.7763875 c -0.357188,0.3571875 2.251887,6.1621755 5.797937,12.8999875 20.931013,39.770775 41.295,55.683163 81.435888,63.6339 10.787262,2.136638 10.827262,2.158775 12.077312,6.6829 0.689813,2.496538 2.471363,8.757913 3.959013,13.914165 4.287887,14.86206 9.946462,37.98579 9.423425,38.50881 -0.262563,0.26256 -2.000388,-1.96639 -3.861838,-4.95321 C 72.74283,123.04731 58.536268,109.70605 42.246667,99.972563 34.779105,95.5105 1.721655,81.6573 -1.45847,81.6573 c -2.282175,0 0.8550375,8.583763 8.827275,24.15244 20.918187,40.85031 49.361512,68.02181 76.871375,73.43406 l 7.372363,1.45037 0.739212,5.794 c 2.207475,17.30276 4.012962,55.14288 2.5618,53.69163 -0.354263,-0.35425 -1.484888,-3.872 -2.5125,-7.81725 -6.231138,-23.923 -19.28855,-39.14913 -46.103425,-53.76075 -9.414125,-5.12975 -24.446275,-11.15488 -25.414675,-10.1865 -1.027813,1.02787 3.5272,19.574 7.396875,30.117 8.991963,24.49875 25.846425,51.02987 59.556712,93.75 4.114326,5.214 4.839801,6.97525 4.376525,10.625 -1.333712,10.50737 -5.539074,35.9495 -6.508325,39.375 l -1.061075,3.75 -0.939187,-5 c -1.6913,-9.00413 -5.3841,-23.64813 -7.266613,-28.816 -8.63215,-23.6975 -34.557937,-55.37837 -53.692687,-65.61175 -5.068038,-2.71038 -7.1875,-3.337 -7.1875,-2.12513 0,2.66888 2.395575,16.06113 3.743525,20.92788 0.666462,2.40625 2.121412,8.3125 3.233225,13.125 2.712825,11.7425 9.4466,33.96612 14.01865,46.266 4.839512,13.0195 12.155487,26.20725 29.198812,52.63387 5.080063,7.87688 7.106388,12.12613 6.556925,13.75 -3.117637,9.21363 -8.064787,20.7205 -14.4458,33.60013 -7.493212,15.12462 -10.946112,20.46137 -9.300549,14.375 4.190525,-15.49937 4.01685,-38.11825 -0.388651,-50.61663 -4.025837,-11.42124 -13.46935,-26.0685 -23.866137,-37.01749 -9.642125,-10.15413 -11.852125,-11.46051 -12.989187,-7.67838 -2.188638,7.28 -3.7282005,40.2215 -3.753488,80.3125 -0.0235,37.306 0.33815,47.33437 1.9836375,55 1.3759245,6.40975 1.6123745,9.8635 0.7475625,10.91962 -4.7602125,5.81275 -38.677213,31.58038 -41.5682,31.58038 -0.4961,0 1.718975,-2.91513 4.922375,-6.47813 16.5175125,-18.37137 24.4543375,-44.5685 20.7598125,-68.52187 -2.1720875,-14.08263 -9.4434875,-33.76875 -15.4062505,-41.70988 -1.601725,-2.13312 -2.140262,-1.32325 -6.2345,9.375 -6.151362,16.07363 -29.632562,82.139 -38.257675,107.63963 l -7.079087,20.92962 -11.875,5.01038 c -6.53125,2.75562 -12.340713,5.00912 -12.9099,5.00775 -0.5692,0 0.935012,-2.30388 3.3427,-5.11675 6.599013,-7.7095 12.542162,-20.0865 17.651675,-36.76075 2.52805,-8.25 5.92335,-19.07813 7.5451,-24.0625 1.621762,-4.98438 2.615,-9.0625 2.207212,-9.0625 -1.799037,0 -37.383277,19.19775 -44.336597,23.91962 -10.6537,7.23475 -21.72094,19.027 -29.12519,31.03288 -3.4375,5.57387 -9.0625,13.85937 -12.5,18.41212 -6.15588,8.15301 -6.48531,8.37738 -21.875,14.89838 -8.59375,3.6415 -16.2171,6.647 -16.94078,6.67887 -0.72368,0.0325 -8.31743,-2.95175 -16.875,-6.6305 -17.71098,-7.61362 -18.92861,-8.77237 -33.68422,-32.05637 -13.73054,-21.66638 -24.56486,-30.88237 -54.375,-46.25325 -9.625,-4.96287 -18.30844,-9.66538 -19.29654,-10.45013 -1.41929,-1.127 -1.65025,-1.03287 -1.09991,0.44838 0.38315,1.03125 3.89557,12.24337 7.80537,24.91575 8.06095,26.12687 11.32925,33.72275 18.30992,42.554 2.69838,3.41362 4.90616,6.4795 4.90616,6.813 0,0.77088 -7.2353,-1.82625 -16.875,-6.05738 l -7.5,-3.29187 -6.71565,-19.65425 c -23.6391,-69.18288 -42.63528,-120.44163 -44.26229,-119.43613 -2.11161,1.30501 -11.69101,23.14625 -14.15862,32.28188 -1.7282,6.39825 -2.34514,12.78162 -2.29534,23.75 0.0591,13.023 0.52305,16.318 3.51992,25 3.5566,10.3035 12.33763,25.74712 17.07947,30.0385 3.40341,3.08 6.01661,7.62562 3.51972,6.1225 -7.37672,-4.44088 -29.58082,-21.30325 -37.74122,-28.66175 l -3.55403,-3.20475 2.27559,-9.64725 c 4.03104,-17.08937 2.6584,-119.29125 -1.82341,-135.76475 l -0.84414,-3.10275 -6.79749,5.86013 c -12.96586,11.17787 -26.87881,32.63162 -30.71615,47.36412 -2.44331,9.3805 -2.40262,29.79638 0.0785,39.37113 1.0669,4.11725 1.75086,8.05287 1.51993,8.74562 -0.54068,1.62213 -17.11724,-31.83 -21.63377,-43.65762 l -3.45085,-9.03688 6.65163,-10.33812 c 26.50296,-41.1915 34.26505,-59.03488 44.40851,-102.086 2.36526,-10.03863 4.86619,-20.65088 5.55761,-23.58263 0.69142,-2.93162 1.25713,-6.45875 1.25713,-7.83787 0,-2.47938 -0.0595,-2.47713 -5.3125,0.19512 -18.00804,9.16088 -39.59076,33.32338 -52.0758,58.30038 -3.55529,7.11262 -11.3617,34.4355 -11.3617,39.76662 0,7.13713 -3.43045,-8.36362 -6.86585,-31.024 -1.68873,-11.139 -1.75656,-13.8145 -0.39761,-15.683 0.90115,-1.23912 7.51786,-9.79375 14.70378,-19.0105 26.14932,-33.53937 42.81979,-61.6605 50.51362,-85.2105 3.2121,-9.832 6.18192,-23.5715 5.28817,-24.46525 -1.76474,-1.76475 -29.38875,11.85125 -41.47385,20.44263 -15.58074,11.0765 -25.41731,25.6835 -30.2073,44.85687 -2.1236,8.50038 -2.19809,8.60738 -2.611,3.75 -0.4598,-5.409 1.92314,-46.255 3.07286,-52.672 0.65825,-3.674 1.18709,-4.01737 8.35899,-5.42837 9.1174,-1.79375 22.92921,-8.38013 30.81033,-14.69238 16.80221,-13.4575 34.1053,-35.68951 45.49706,-58.45725 4.29219,-8.578437 10.80422,-23.72925 10.81017,-25.150775 0.001,-0.440262 -20.67098,7.303975 -28.74937,10.769788 -23.75301,10.190567 -42.47589,24.962317 -54.39795,42.918237 -2.60206,3.91899 -4.91306,6.94341 -5.13555,6.72093 -0.57098,-0.57099 8.73056,-37.29444 12.01517,-47.437217 1.50132,-4.635963 3.1566,-8.692888 3.67843,-9.0154 0.52182,-0.3225 6.48055,-1.784875 13.24162,-3.249725 13.62444,-2.951838 27.74948,-8.023775 36.29853,-13.03385 7.81217,-4.578238 20.99442,-17.195438 27.52034,-26.340688 6.26967,-8.78615 20.8314,-35.670975 19.8514,-36.650975 -1.20493,-1.2049375 -22.35804,3.8385 -31.82199,7.587163 -19.58246,7.7566 -40.26068,25.062412 -52.4295,43.878837 -2.98024,4.608275 -5.59228,8.378675 -5.80453,8.378675 -2.29176,0 19.46709,-42.82555 28.11408,-55.333875 l 6.49869,-9.4006625 12.5522,-4.708325 c 21.37329,-8.0171125 28.81692,-14.0741745 41.39267,-33.6821375 7.15868,-11.161725 16.18174,-29.114875 15.68403,-31.206412 -0.29731,-1.249388 -2.89123,-0.993588 -11.63264,1.147162 -32.68464,8.004388 -51.38249,24.04315 -64.35391,55.201913 -2.12972,5.115787 -6.87396,13.926512 -10.54277,19.579387 -3.66881,5.652875 -8.18387,13.287013 -10.03348,16.964738 -1.8496,3.677737 -3.58053,6.469187 -3.8465,6.203225 -0.26597,-0.265975 0.0417,-4.118775 0.68391,-8.5618 2.1653,-14.982488 0.91016,-46.644538 -2.03819,-51.415075 -1.17562,-1.902213 -10.56681,4.034612 -17.75872,11.226525 -7.61965,7.61965 -12.46686,16.229137 -15.92011,28.276912 -3.42209,11.939063 -2.03662,36.72145 2.84963,50.971988 3.29547,9.611087 4.8496,12.705075 9.62608,19.16365 0.76927,1.040175 -0.58038,7.466012 -3.96694,18.887162 -2.82309,9.520855 -6.0761,21.670005 -7.22892,26.998125 -1.15282,5.32813 -2.63527,9.6875 -3.29433,9.6875 -0.65906,0 -0.89217,-0.49531 -0.51802,-1.10069 0.37413,-0.60538 0.12635,-8.33976 -0.55065,-17.1875 -1.41887,-18.543272 -5.58598,-35.652772 -11.82949,-48.569947 -4.38419,-9.070463 -14.14204,-21.975113 -16.19988,-21.424188 -1.7936,0.480188 -7.94367,23.290413 -9.57733,35.52165 -1.93105,14.457838 -0.74439,37.125435 2.53303,48.385675 3.70752,12.73789 11.37115,27.46875 20.78075,39.94438 l 8.25233,10.94125 -1.34575,17.12787 c -0.74015,9.42038 -1.34574,24.09925 -1.34574,32.61975 0,8.5205 -0.4701,14.95738 -1.04467,14.30425 -0.57458,-0.65312 -2.03472,-5.96875 -3.24475,-11.8125 -6.55665,-31.66462 -22.14328,-63.46525 -36.45806,-74.38362 -5.50811,-4.20125 -5.51101,-4.19763 -9.42218,11.72625 -2.3441,9.54375 -2.93933,15.264 -2.87793,27.65737 0.19377,39.109 16.11855,71.06113 49.68809,99.69625 l 6.0155,5.13125 1.73783,12.27375 c 2.25253,15.909 6.17608,35.9845 9.44496,48.327 2.89715,10.93888 2.53445,13.47475 -0.89189,6.23575 -5.21455,-11.01687 -20.17326,-35.56787 -28.05119,-46.039 -10.29993,-13.69037 -39.19432,-42.77112 -40.46085,-40.72187 -1.92766,3.119 -3.11302,25.60612 -1.93848,36.77462 2.37186,22.55375 9.11216,39.44338 21.95462,55.01288 11.98739,14.53287 27.95521,23.60337 53.049,30.13462 4.46875,1.16313 8.86971,2.49388 9.77993,2.95725 0.9102,0.46338 4.29897,6.4675 7.53062,13.3425 6.01134,12.78863 11.19435,22.37413 15.34915,28.38688 3.71629,5.37825 2.71956,6.66412 -1.7222,2.22175 -5.98279,-5.9835 -22.48145,-18.07663 -31.6805,-23.221 -15.44775,-8.63888 -40.22535,-17.18763 -57.6945,-19.90575 l -5.3125,-0.82663 0,4.38388 c 0,6.7835 3.59948,19.43512 7.88393,27.71087 2.31737,4.47612 7.68445,11.29275 13.31196,16.90713 19.1071,19.06274 50.48104,30.18474 93.53551,33.15824 l 12.8564,0.88788 8.8925,8.27337 c 4.89086,4.55038 10.63674,9.60363 12.7686,11.2295 3.70328,2.82425 3.73678,2.92763 0.7511,2.31975 -1.71875,-0.34987 -7.54724,-1.81387 -12.9522,-3.25312 -20.02099,-5.3315 -44.05376,-4.68475 -66.6463,1.7935 -13.35016,3.828 -21.6515,6.8725 -21.6515,7.94075 0,1.28962 11.917,10.37937 20.21259,15.41725 27.84792,16.912 69.76189,21.1585 121.2692,12.28675 l 14.60679,-2.51587 11.64321,5.3965 c 6.40376,2.96825 13.75259,6.08974 16.33071,6.93699 2.57813,0.84713 4.6875,1.97326 4.6875,2.50251 0,0.52937 -13.07812,1.31912 -29.0625,1.75524 -27.30371,0.74501 -66.73217,3.71663 -68.15209,5.13651 -0.96483,0.96487 4.24804,4.89275 15.09447,11.37362 29.28268,17.49688 62.14541,23.21037 96.49512,16.77662 24.0324,-4.50125 45.93319,-7.58087 51.17414,-7.19587 4.71035,0.34588 3.14059,1.22075 -21.79914,12.14875 -58.4065,25.59238 -53.08294,22.89925 -53.49632,27.06275 -0.4876,4.911 3.96826,9.12838 11.89786,11.261 7.76149,2.08738 7.58957,2.08863 14.97324,-0.10375 z"
             id="path4280" /><path
             id="path4326"
             d="m 1100.6039,638.52793 c 3.4807,-1.03363 18.0671,-7.70326 32.4144,-14.82125 42.2141,-20.94363 53.325,-26.11413 56.0307,-26.07413 3.0469,0.045 16.28,6.18825 55.5412,25.78375 33.1314,16.536 38.1148,18.12025 47.9798,15.25237 9.2352,-2.68475 14.9904,-9.41412 11.7608,-13.75137 -0.8122,-1.09075 -13.0079,-6.97138 -27.1017,-13.06825 -38.5387,-16.67162 -50,-21.94163 -50,-22.9905 0,-2.10463 20.0513,0.3555 53.75,6.595 34.2601,6.34337 68.0149,0.1895 96.8399,-17.65512 12.1565,-7.52563 15.0515,-9.66638 14.2102,-10.50775 -1.331,-1.33088 -45.2231,-4.70988 -71.6751,-5.51763 l -27.5,-0.83987 5,-2.231 c 2.75,-1.227 10.625,-4.70925 17.5,-7.73825 l 12.5,-5.50738 13.2296,2.39963 c 52.1655,9.46237 96.5163,4.5455 124.9877,-13.8565 8.7501,-5.6555 17.3507,-12.50338 17.3852,-13.84225 0.044,-1.71225 -27.9794,-9.89188 -40.4365,-11.80263 -15.5277,-2.38187 -33.4221,-1.55862 -47.666,2.19275 -17.2205,4.5355 -16.8925,4.52263 -11.875,0.466 2.4063,-1.94537 8.0313,-7.03375 12.5,-11.30737 l 8.125,-7.77013 12.5,-0.83787 c 64.8192,-4.34475 103.6982,-26.99938 113.723,-66.266 1.0461,-4.09763 1.902,-9.35013 1.902,-11.67238 l 0,-4.22225 -5.3125,0.82663 c -9.0921,1.41462 -27.7604,6.60062 -38.007,10.55812 -16.3044,6.29725 -38.3768,20.10938 -50.8074,31.79338 -4.8037,4.51525 -5.3522,4.128 -1.9125,-1.34988 1.6029,-2.55287 7.1332,-13.06425 12.2894,-23.35862 8.8649,-17.69863 9.6131,-18.77438 13.75,-19.76813 8.9078,-2.13975 25.7631,-7.57537 31.2331,-10.07225 34.4054,-15.70537 55.1283,-57.79225 49.9162,-101.37675 -0.7504,-6.27425 -1.7851,-11.84887 -2.2995,-12.388 -1.1839,-1.24087 -33.7431,32.11425 -41.6622,42.6805 -5.9665,7.961 -15.1077,23.02738 -24.1806,39.85388 -2.6851,4.97975 -5.3237,9.05787 -5.8635,9.0625 -0.5398,0 -0.4658,-0.976 0.1645,-2.17913 2.8423,-5.42575 12.6794,-55.45537 12.6884,-64.53137 0,-2.76925 1.5096,-4.91475 6.5661,-9.34913 25.7151,-22.55125 39.549,-43.61037 46.8268,-71.28337 2.5996,-9.88475 3.1764,-15.0255 3.2426,-28.89863 0.07,-14.623 -0.3721,-18.53387 -3.3109,-29.306 -1.8652,-6.837 -3.6079,-12.64762 -3.8727,-12.91237 -1.1355,-1.1355 -7.8165,4.58762 -13.743,11.77262 -10.9697,13.299 -19.4197,32.58875 -26.4209,60.31338 -2.3253,9.20837 -4.5218,17.0365 -4.8811,17.39575 -0.3593,0.35937 -0.6493,-5.48738 -0.6444,-12.9925 0,-7.50525 -0.6227,-22.133 -1.3947,-32.50625 l -1.4036,-18.86025 7.4533,-10.05225 c 25.9963,-35.06133 31.4403,-66.92038 19.1802,-112.247305 -3.7514,-13.869587 -4.388,-14.631775 -8.3348,-9.979825 -15.0537,17.7431 -22.9,40.677738 -25.0307,73.16491 -0.8109,12.36468 -1.0877,13.64782 -2.0136,9.33509 -1.3738,-6.39965 -2.3774,-10.18955 -7.9442,-30 -6.2918,-22.390375 -6.1597,-21.293512 -3.0422,-25.25625 9.4137,-11.966112 14.9514,-42.888337 11.3669,-63.47205 -2.7712,-15.913725 -12.0144,-30.4117 -24.9179,-39.0842 -4.3474,-2.921875 -8.3581,-5.3125 -8.9126,-5.3125 -3.3074,0 -5.0795,38.679825 -2.429,53.017788 0.7348,3.974812 1.0826,7.480312 0.7729,7.789987 -0.3097,0.309675 -2.6573,-3.261012 -5.2168,-7.934862 -2.5596,-4.67385 -7.1396,-12.2500505 -10.1779,-16.835988 -3.0382,-4.5859375 -7.2176,-12.4451 -9.2875,-17.4648 -11.1167,-26.958162 -29.6825,-45.018062 -54.3017,-52.821837 -3.4375,-1.089625 -9.7656,-2.7793 -14.0625,-3.75485 -6.444,-1.463013 -7.8125,-1.48255 -7.8125,-0.1115 0,3.4561 13.881,29.146925 20.9527,38.77925 10.5799,14.410687 16.5599,18.706862 36.5473,26.2565495 5.1563,1.947625 10.445,4.421825 11.7527,5.498225 4.5828,3.7720375 17.3617,24.6190255 25.7191,41.9570755 9.2915,19.275987 10.3761,21.89265 9.0515,21.837825 -0.4941,-0.0205 -2.867,-3.483563 -5.2733,-7.695825 -14.3194,-25.066775 -44.8943,-45.757213 -75.4903,-51.085288 -4.6178,-0.80415 -8.6882,-1.1698375 -9.0454,-0.8126625 -0.3572,0.3571875 2.2519,6.1621755 5.7979,12.8999875 20.931,39.770775 41.295,55.683163 81.4359,63.6339 10.7873,2.136638 10.8273,2.158775 12.0773,6.6829 0.6898,2.496538 2.4714,8.757913 3.959,13.914165 4.2879,14.86206 9.9465,37.98579 9.4235,38.50881 -0.2626,0.26256 -2.0004,-1.96639 -3.8619,-4.95321 -8.3608,-13.41563 -22.5674,-26.75689 -38.857,-36.490377 -7.4676,-4.462063 -40.525,-18.315263 -43.7051,-18.315263 -2.2822,0 0.855,8.583763 8.8272,24.15244 20.9182,40.85031 49.3615,68.02181 76.8714,73.43406 l 7.3724,1.45037 0.7392,5.794 c 2.2075,17.30276 4.0129,55.14288 2.5618,53.69163 -0.3543,-0.35425 -1.4849,-3.872 -2.5125,-7.81725 -6.2312,-23.923 -19.2886,-39.14913 -46.1034,-53.76075 -9.4142,-5.12975 -24.4463,-11.15488 -25.4147,-10.1865 -1.0278,1.02787 3.5272,19.574 7.3969,30.117 8.9919,24.49875 25.8464,51.02987 59.5567,93.75 4.1143,5.214 4.8398,6.97525 4.3765,10.625 -1.3337,10.50737 -5.5391,35.9495 -6.5083,39.375 l -1.0611,3.75 -0.9392,-5 c -1.6913,-9.00413 -5.3841,-23.64813 -7.2666,-28.816 -8.6322,-23.6975 -34.5579,-55.37837 -53.6927,-65.61175 -5.068,-2.71038 -7.1875,-3.337 -7.1875,-2.12513 0,2.66888 2.3956,16.06113 3.7435,20.92788 0.6665,2.40625 2.1214,8.3125 3.2333,13.125 2.7128,11.7425 9.4466,33.96612 14.0186,46.266 4.8395,13.0195 12.1555,26.20725 29.1988,52.63387 5.0801,7.87688 7.1064,12.12613 6.5569,13.75 -3.1176,9.21363 -8.0647,20.7205 -14.4458,33.60013 -7.4932,15.12462 -10.9461,20.46137 -9.3005,14.375 4.1905,-15.49937 4.0168,-38.11825 -0.3887,-50.61663 -4.0258,-11.42124 -13.4693,-26.0685 -23.8661,-37.01749 -9.6421,-10.15413 -11.8521,-11.46051 -12.9892,-7.67838 -2.1886,7.28 -3.7282,40.2215 -3.7535,80.3125 -0.024,37.306 0.3382,47.33437 1.9837,55 1.3759,6.40975 1.6123,9.8635 0.7475,10.91962 -4.7602,5.81275 -38.6772,31.58038 -41.5682,31.58038 -0.4961,0 1.719,-2.91513 4.9224,-6.47813 16.5175,-18.37137 24.4543,-44.5685 20.7598,-68.52187 -2.1721,-14.08263 -9.4435,-33.76875 -15.4062,-41.70988 -1.6018,-2.13312 -2.1403,-1.32325 -6.2345,9.375 -6.1514,16.07363 -29.6326,82.139 -38.2577,107.63963 l -7.0791,20.92962 -11.875,5.01038 c -6.5312,2.75562 -12.3407,5.00912 -12.9099,5.00775 -0.5692,0 0.935,-2.30388 3.3427,-5.11675 6.599,-7.7095 12.5422,-20.0865 17.6517,-36.76075 2.528,-8.25 5.9233,-19.07813 7.5451,-24.0625 1.6217,-4.98438 2.615,-9.0625 2.2072,-9.0625 -1.799,0 -37.3833,19.19775 -44.3366,23.91962 -10.6537,7.23475 -21.7209,19.027 -29.1252,31.03288 -3.4375,5.57387 -9.0625,13.85937 -12.5,18.41212 -6.1559,8.15301 -6.4853,8.37738 -21.875,14.89838 -8.5937,3.6415 -16.2171,6.647 -16.9408,6.67887 -0.7237,0.0325 -8.3174,-2.95175 -16.875,-6.6305 -17.711,-7.61362 -18.9286,-8.77237 -33.6842,-32.05637 -13.7305,-21.66638 -24.5649,-30.88237 -54.375,-46.25325 -9.625,-4.96287 -18.3084,-9.66538 -19.2965,-10.45013 -1.4193,-1.127 -1.6503,-1.03287 -1.0999,0.44838 0.3831,1.03125 3.8955,12.24337 7.8053,24.91575 8.061,26.12687 11.3293,33.72275 18.3099,42.554 2.6984,3.41362 4.9062,6.4795 4.9062,6.813 0,0.77088 -7.2353,-1.82625 -16.875,-6.05738 l -7.5,-3.29187 -6.7156,-19.65425 c -23.6391,-69.18288 -42.6353,-120.44163 -44.2623,-119.43613 -2.1116,1.30501 -11.691,23.14625 -14.1587,32.28188 -1.7282,6.39825 -2.3451,12.78162 -2.2953,23.75 0.059,13.023 0.5231,16.318 3.5199,25 3.5566,10.3035 12.3377,25.74712 17.0795,30.0385 3.4034,3.08 6.0166,7.62562 3.5197,6.1225 -7.3767,-4.44088 -29.58081,-21.30325 -37.74121,-28.66175 l -3.55403,-3.20475 2.27559,-9.64725 c 4.03104,-17.08937 2.6584,-119.29125 -1.82341,-135.76475 l -0.84414,-3.10275 -6.79749,5.86013 c -12.96586,11.17787 -26.87881,32.63162 -30.71615,47.36412 -2.44331,9.3805 -2.40262,29.79638 0.0785,39.37113 1.0669,4.11725 1.75086,8.05287 1.51993,8.74562 -0.54068,1.62213 -17.11724,-31.83 -21.63377,-43.65762 l -3.45085,-9.03688 6.65163,-10.33812 c 26.50296,-41.1915 34.26505,-59.03488 44.40851,-102.086 2.36526,-10.03863 4.86619,-20.65088 5.55761,-23.58263 0.69142,-2.93162 1.25713,-6.45875 1.25713,-7.83787 0,-2.47938 -0.0595,-2.47713 -5.3125,0.19512 -18.00804,9.16088 -39.59076,33.32338 -52.0758,58.30038 -3.55529,7.11262 -11.3617,34.4355 -11.3617,39.76662 0,7.13713 -3.43045,-8.36362 -6.86585,-31.024 -1.68873,-11.139 -1.75656,-13.8145 -0.39761,-15.683 0.90115,-1.23912 7.51786,-9.79375 14.70378,-19.0105 26.14932,-33.53937 42.81979,-61.6605 50.51362,-85.2105 3.2121,-9.832 6.18192,-23.5715 5.28817,-24.46525 -1.76474,-1.76475 -29.38875,11.85125 -41.47385,20.44263 -15.58074,11.0765 -25.41731,25.6835 -30.2073,44.85687 -2.1236,8.50038 -2.19809,8.60738 -2.611,3.75 -0.4598,-5.409 1.92314,-46.255 3.07286,-52.672 0.65825,-3.674 1.18709,-4.01737 8.35899,-5.42837 9.1174,-1.79375 22.92921,-8.38013 30.81033,-14.69238 16.80221,-13.4575 34.1053,-35.68951 45.49706,-58.45725 4.29219,-8.578437 10.80425,-23.72925 10.81015,-25.150775 10e-4,-0.440262 -20.67096,7.303975 -28.74935,10.769788 -23.75301,10.190567 -42.47589,24.962317 -54.39795,42.918237 -2.60206,3.91899 -4.91306,6.94341 -5.13555,6.72093 -0.57098,-0.57099 8.73056,-37.29444 12.01517,-47.437217 1.50132,-4.635963 3.1566,-8.692888 3.67843,-9.0154 0.52182,-0.3225 6.48055,-1.784875 13.24162,-3.249725 13.62444,-2.951838 27.74948,-8.023775 36.29853,-13.03385 7.81217,-4.578238 20.99442,-17.195438 27.5203,-26.340688 6.2697,-8.78615 20.8314,-35.670975 19.8514,-36.650975 -1.2049,-1.2049375 -22.358,3.8385 -31.82195,7.587163 -19.58246,7.7566 -40.26068,25.062412 -52.4295,43.878837 -2.98024,4.608275 -5.59228,8.378675 -5.80453,8.378675 -2.29176,0 19.46709,-42.82555 28.11408,-55.333875 l 6.49869,-9.4006625 12.5522,-4.708325 c 21.37331,-8.0171125 28.81691,-14.0741745 41.39271,-33.6821375 7.1586,-11.161725 16.1817,-29.114875 15.684,-31.206412 -0.2973,-1.249388 -2.8912,-0.993588 -11.6326,1.147162 -32.68469,8.004388 -51.38254,24.04315 -64.35396,55.201913 -2.12972,5.115787 -6.87396,13.926512 -10.54277,19.579387 -3.66881,5.652875 -8.18387,13.287013 -10.03348,16.964738 -1.8496,3.677737 -3.58053,6.469187 -3.8465,6.203225 -0.26597,-0.265975 0.0417,-4.118775 0.68391,-8.5618 2.1653,-14.982488 0.91016,-46.644538 -2.03819,-51.415075 -1.17562,-1.902213 -10.56681,4.034612 -17.75872,11.226525 -7.61965,7.61965 -12.46686,16.229137 -15.92011,28.276912 -3.42209,11.939063 -2.03662,36.72145 2.84963,50.971988 3.29547,9.611087 4.8496,12.705075 9.62608,19.16365 0.76927,1.040175 -0.58038,7.466012 -3.96694,18.887162 -2.82309,9.520855 -6.0761,21.670005 -7.22892,26.998125 -1.15282,5.32813 -2.63527,9.6875 -3.29433,9.6875 -0.65906,0 -0.89217,-0.49531 -0.51802,-1.10069 0.37413,-0.60538 0.12635,-8.33976 -0.55065,-17.1875 C 899.54236,98.575838 895.37525,81.466338 889.13174,68.549163 884.74755,59.4787 874.9897,46.57405 872.93186,47.124975 c -1.7936,0.480188 -7.94367,23.290413 -9.57733,35.52165 -1.93105,14.457838 -0.74439,37.125435 2.53303,48.385675 3.70752,12.73789 11.37115,27.46875 20.78075,39.94438 l 8.25233,10.94125 -1.34575,17.12787 c -0.74015,9.42038 -1.34574,24.09925 -1.34574,32.61975 0,8.5205 -0.4701,14.95738 -1.04467,14.30425 -0.57458,-0.65312 -2.03472,-5.96875 -3.24475,-11.8125 -6.55665,-31.66462 -22.14328,-63.46525 -36.45806,-74.38362 -5.50811,-4.20125 -5.51101,-4.19763 -9.42218,11.72625 -2.3441,9.54375 -2.93933,15.264 -2.87793,27.65737 0.19377,39.109 16.11855,71.06113 49.68809,99.69625 l 6.0155,5.13125 1.73783,12.27375 c 2.25253,15.909 6.17608,35.9845 9.44496,48.327 2.89715,10.93888 2.53445,13.47475 -0.89189,6.23575 -5.21455,-11.01687 -20.17326,-35.56787 -28.05119,-46.039 -10.29993,-13.69037 -39.19432,-42.77112 -40.46085,-40.72187 -1.92766,3.119 -3.11302,25.60612 -1.93848,36.77462 2.37186,22.55375 9.11216,39.44338 21.95462,55.01288 11.98739,14.53287 27.95521,23.60337 53.049,30.13462 4.46875,1.16313 8.86971,2.49388 9.77993,2.95725 0.9102,0.46338 4.29897,6.4675 7.53062,13.3425 6.01134,12.78863 11.19435,22.37413 15.34915,28.38688 3.71629,5.37825 2.71956,6.66412 -1.7222,2.22175 -5.98279,-5.9835 -22.48145,-18.07663 -31.6805,-23.221 -15.44775,-8.63888 -40.22535,-17.18763 -57.6945,-19.90575 l -5.3125,-0.82663 0,4.38388 c 0,6.7835 3.59948,19.43512 7.88393,27.71087 2.31737,4.47612 7.68445,11.29275 13.31196,16.90713 19.1071,19.06274 50.48104,30.18474 93.53551,33.15824 l 12.8564,0.88788 8.8925,8.27337 c 4.89086,4.55038 10.63674,9.60363 12.7686,11.2295 3.70328,2.82425 3.73678,2.92763 0.7511,2.31975 -1.71875,-0.34987 -7.54724,-1.81387 -12.9522,-3.25312 -20.02099,-5.3315 -44.05376,-4.68475 -66.6463,1.7935 -13.35016,3.828 -21.6515,6.8725 -21.6515,7.94075 0,1.28962 11.917,10.37937 20.21259,15.41725 27.84792,16.912 69.76189,21.1585 121.26916,12.28675 l 14.6068,-2.51587 11.6432,5.3965 c 6.4038,2.96825 13.7526,6.08974 16.3308,6.93699 2.5781,0.84713 4.6875,1.97326 4.6875,2.50251 0,0.52937 -13.0782,1.31912 -29.0625,1.75524 -27.3038,0.74501 -66.73222,3.71663 -68.15214,5.13651 -0.96483,0.96487 4.24804,4.89275 15.09444,11.37362 29.2827,17.49688 62.1454,23.21037 96.4952,16.77662 24.0324,-4.50125 45.9331,-7.58087 51.1741,-7.19587 4.7103,0.34588 3.1406,1.22075 -21.7991,12.14875 -58.4065,25.59238 -53.083,22.89925 -53.4964,27.06275 -0.4876,4.911 3.9683,9.12838 11.8979,11.261 7.7615,2.08738 7.5896,2.08863 14.9732,-0.10375 z"
             style="fill:#ffc525;fill-opacity:1"
             inkscape:connector-curvature="0" /></g><g
           style="fill:#ffc525;fill-opacity:1"
           id="g4506"><path
             inkscape:connector-curvature="0"
             style="fill:#ffc525;fill-opacity:1"
             d="m 777.433,700.17268 -4.37532,-1.62588 c -2.40628,-0.89418 -10.5625,-4.4375 -18.125,-7.874 -29.41763,-13.36775 -67.77412,-23.84287 -119.9475,-32.75787 -77.6995,-13.2765 -192.68676,-13.48913 -270.0525,-0.49925 -32.48428,5.45425 -63.82741,12.52962 -86.25,19.47025 l -12.5,3.86924 11.25,2.23138 c 6.1875,1.22738 19.125,3.68712 28.75,5.46638 9.625,1.77912 22,4.08137 27.5,5.116 10.34291,1.94549 44.92679,8.37199 74.375,13.82049 9.28125,1.71713 31.78125,5.94463 50,9.39438 18.21875,3.44962 35.9375,6.77787 39.375,7.396 3.4375,0.61812 19.75,3.70975 36.25,6.87037 16.5,3.1605 34.21875,6.52688 39.375,7.4805 5.15625,0.95375 18.375,3.47963 29.375,5.613 11,2.13338 22.53125,4.33363 25.625,4.88925 14.11213,2.53475 83.708,16.176 112.5,22.05075 17.53125,3.57713 35.68532,7.4309 36.87532,7.5189 z"
             id="path4288" /><path
             inkscape:connector-curvature="0"
             style="fill:#ffc525;fill-opacity:1"
             d="m 777.433,608.26955 c -1.17276,-0.42175 -9.93782,-3.71163 -17.50032,-7.311 -14.945,-7.113 -40.434,-15.88375 -63.125,-21.72113 -16.67875,-4.29075 -54.99087,-12.12675 -65,-13.2945 l -6.48168,-0.802 0,26.2355 c 0,27.79028 -1.74165,34.68825 -7.43539,40.9865 -1.28313,1.41925 -2.33288,2.93163 -2.33288,3.36088 0,0.42912 2.67188,1.14537 5.9375,1.59162 51.911,7.09288 110.83825,22.174 144.0625,36.86963 5.84375,2.58487 11.40515,4.761 11.87527,4.836 z"
             id="path4284" /><path
             inkscape:connector-curvature="0"
             style="fill:#ffc525;fill-opacity:1"
             d="m 237.78284,671.15705 c 29.23488,-12.26762 73.72511,-23.61 124.97099,-31.86013 l 20.32115,-3.27149 -2.8634,-3.12163 c -5.11218,-5.57301 -6.87951,-8.86433 -7.63767,-21.3636 l -0.75798,-46.40421 c -2.30227,-1.86356 -9.17599,0.9584 -18.75825,2.71419 -50.58775,9.26936 -87.70539,19.92487 -116.1203,33.3345 l -17.62938,8.60493 0,61.94819 2.81218,1.1305 c 4.58769,1.84413 8.10616,1.45963 15.66266,-1.71125 z"
             id="path4282" /><path
             inkscape:connector-curvature="0"
             style="fill:#ffc525;fill-opacity:1"
             d="m 453.68268,630.28143 c 29.28405,-1.61163 88.483,-0.87163 113.17075,1.41462 17.83437,1.65163 23.58687,0.75225 30.06737,-4.70075 7.53163,-6.3375 7.38688,-4.69188 7.38688,-83.97125 l 0,-72.46363 -5.3125,-0.77599 c -2.92188,-0.42688 -10.51563,-1.18263 -16.875,-1.67963 l -11.5625,-0.9035 0,34.95838 c 0,32.80274 -0.15963,35.288 -2.58875,40.30587 -2.67388,5.5235 -7.9845,9.66125 -15.17938,11.827 -2.43612,0.73338 -24.28737,1.194 -53.71237,1.1325 -55.24011,-0.115 -58.71049,-0.528 -65.5911,-7.796 -2.13313,-2.25325 -4.50841,-5.32537 -5.27841,-6.82712 -0.93574,-1.82488 -1.39999,-14.42688 -1.39999,-38.00238 l 0,-35.27212 -12.8125,0.813 c -7.04688,0.44725 -14.90418,1.16587 -17.46066,1.59712 l -4.64817,0.78413 -0.0584,71.12912 c -0.0574,69.74463 -0.008,71.249 2.58889,77.28313 4.22067,9.81125 12.25141,14.05912 24.89087,13.16625 4.46875,-0.31575 19.9375,-1.22413 34.375,-2.01875 z"
             id="path4276" /><path
             inkscape:connector-curvature="0"
             style="fill:#ffc525;fill-opacity:1"
             d="m 260.55768,571.65593 c 26.94629,-9.07475 50.12205,-14.49738 105.625,-24.71363 l 5,-0.92025 0.66285,-73.17188 -2.83143,0.62438 c -1.55728,0.34337 -9.45083,1.78963 -17.54121,3.21387 -51.04406,8.98575 -96.98969,22.81063 -124.10226,37.34213 -2.69551,1.44475 -7.19308,3.92645 -8.06263,3.92645 l 0,69.75867 11.56218,-4.97787 c 6.35936,-2.7379 19.71875,-7.72475 29.6875,-11.08187 z"
             id="path4274" /><path
             inkscape:connector-curvature="0"
             style="fill:#ffc525;fill-opacity:1"
             d="m 777.433,518.44155 c -1.81587,-2.67912 -30.80719,-15.40513 -48.75032,-21.50287 -22.98725,-7.81188 -62.08362,-17.1395 -90.38838,-21.565 -4.59887,-0.719 -11.76518,-1.606 -12.9683,-1.97113 l 0,72.91175 9.91918,1.53888 c 49.37039,7.65941 103.481,22.30737 130.9255,34.992 8.792,4.0635 10.54357,6.37525 11.26232,4.55762 z"
             id="path4272" /><path
             inkscape:connector-curvature="0"
             style="fill:#ffc525;fill-opacity:1"
             d="m 550.667,537.731 0,-71.94757 -9.61819,-0.81313 c -12.43075,-1.05075 -72.26277,-1.054 -84.67753,0 l -9.56328,0.8085 0,71.9522 z"
             id="path4270" /><path
             inkscape:connector-curvature="0"
             style="fill:#ffc525;fill-opacity:1"
             d="m 255.31257,207.12793 c 34.21285,-12.00025 84.73257,-23.26638 128.37011,-28.62725 38.0803,-4.678 74.85981,-6.84338 116.22163,-6.84238 22.70312,6.3e-4 47.18462,0.54913 54.40337,1.219 7.21875,0.66988 19.875,1.77975 28.125,2.46638 32.47863,2.70337 47.2085,4.78537 81.25,11.48425 42.52013,8.3675 79.86525,19.29975 103.96438,30.43425 5.232,2.41725 9.713,4.39512 9.95762,4.39512 l -0.17168,-55.625 -12.27457,-28.471 -10.32375,-4.76959 c -26.58187,-12.28083 -77.73637,-25.87006 -123.652,-32.84821 -51.42575,-7.815562 -66.52325,-8.83145 -131.875,-8.873662 -57.88844,-0.03737 -66.66797,0.387012 -106.05296,5.126537 -18.57926,2.2358 -21.82234,1.674313 -24.04146,-4.162425 -1.88333,-4.953537 -0.49133,-8.565487 4.14337,-10.75115 4.38671,-2.068725 42.55275,-6.243425 76.55471,-8.373762 79.16209,-4.959788 176.54034,3.622387 248.77134,21.924775 19.19375,4.86345 42.31475,11.895917 53.6545,16.319517 1.80875,0.70558 2.21663,0.49708 1.64625,-0.84152 L 714.68318,17.870175 C 713.52181,16.8102 686.92768,10.15645 669.44781,6.552475 640.47918,0.57975 622.50243,-1.978875 573.05768,-7.1666875 c -7.21875,-0.7574 -27.1875,-1.653775 -44.375,-1.991925 -17.1875,-0.3381625 -32.74862,-1.1849125 -34.58025,-1.8816875 -4.40741,-1.676612 -6.89999,-7.5561 -4.9851,-11.758825 2.5925,-5.689887 5.4841,-5.98285 43.94035,-4.451675 60.944,2.42655 109.0785,8.413338 157.96488,19.6470375 7.4745,1.717575 13.81762,2.8952125 14.09587,2.616975 0.67713,-0.6770625 -35.67162,-88.1228995 -36.96087,-88.9185875 -0.39875,-0.246037 -6.06863,-1.391125 -12.59988,-2.544637 -52.256,-9.229108 -87.14362,-12.151858 -150.625,-12.618748 -28.1875,-0.20731 -51.95312,-0.41001 -52.8125,-0.45044 -2.84764,-0.13395 -6.5625,-5.01904 -6.5625,-8.62976 0,-2.02901 1.13066,-4.5789 2.6328,-5.9375 2.50889,-2.26918 5.31775,-2.38013 59.68745,-2.35751 45.58188,0.019 61.32788,0.46812 78.30475,2.23371 29.0645,3.02269 49.87238,5.63196 62.16675,7.79561 5.68325,1.00019 10.69538,1.8193 11.138,1.82024 l -35.80475,-87.35096 -8.125,-0.75507 c -4.46875,-0.41528 -12.90625,-1.34016 -18.75,-2.05528 -5.84375,-0.71513 -27.14037,-2.25213 -47.32587,-3.41558 -35.7185,-2.05875 -36.76413,-2.19342 -39.0625,-5.03186 -2.91125,-3.59524 -3.009,-7.409 -0.2895,-11.29165 l 2.07212,-2.95839 25.74038,0.73251 c 23.92412,0.68083 68.37412,3.82013 74.793,5.28228 l 2.80275,0.63841 -77.48038,-189.33379 c 0,-2.07517 9.22175,-25.67682 23.72062,-60.70891 25.76638,-62.25687 27.52938,-67.04237 27.52938,-74.72456 0,-4.10858 -0.893,-9.6482 -1.98463,-12.31029 -2.67112,-6.51456 -11.01024,-14.96572 -18.64037,-18.89056 -8.4245,-4.3335 -21.99588,-5.32284 -30.17388,-2.19965 -10.88837,4.15835 -13.56212,8.36106 -27.32612,42.95295 -6.875,17.27836 -12.839,31.41675 -13.25338,31.41865 -0.41425,0.002 -6.32052,-13.91841 -13.12495,-30.93404 -13.62591,-34.07394 -17.09898,-39.58076 -27.4581,-43.53695 -7.58771,-2.89776 -21.46403,-1.93571 -29.91357,2.07393 -13.46198,6.38825 -21.22665,17.85427 -21.09479,31.15052 0.0851,8.58924 -1.43076,4.50162 31.05976,83.75 3.24143,7.90625 9.49015,23.20993 13.88605,34.00816 l 7.99255,19.63318 -239.96825,575.77566 0,54.14225 10.31218,-4.472 c 5.67185,-2.45967 17.23345,-6.89963 25.69239,-9.86663 z"
             id="path4262" /><path
             inkscape:connector-curvature="0"
             style="opacity:1;fill:#ffc525;fill-opacity:1;fill-rule:evenodd;stroke:none;stroke-width:2;stroke-linecap:round;stroke-linejoin:miter;stroke-miterlimit:4;stroke-dasharray:none;stroke-dashoffset:0;stroke-opacity:1"
             d="m 140.12695,677.97266 c -9.5154,-0.0718 -15.29969,3.58877 -17.00586,11.32617 l 1.45703,36.38672 109.97657,20.81054 0,-51.18554 -90.12305,-17.07813 c -1.51061,-0.16153 -2.94534,-0.2495 -4.30469,-0.25976 z"
             id="path4504" /><path
             inkscape:connector-curvature="0"
             style="opacity:1;fill:#ffc525;fill-opacity:1;fill-rule:evenodd;stroke:none;stroke-width:2;stroke-linecap:round;stroke-linejoin:miter;stroke-miterlimit:4;stroke-dasharray:none;stroke-dashoffset:0;stroke-opacity:1"
             d="m 257.0332,699.57031 0,51.17969 147.52149,27.91602 0,-51.14258 -147.52149,-27.95313 z"
             id="path4502" /><path
             inkscape:connector-curvature="0"
             style="opacity:1;fill:#ffc525;fill-opacity:1;fill-rule:evenodd;stroke:none;stroke-width:2;stroke-linecap:round;stroke-linejoin:miter;stroke-miterlimit:4;stroke-dasharray:none;stroke-dashoffset:0;stroke-opacity:1"
             d="m 427.0332,731.7832 0,51.13477 153.52149,29.05078 0,-51.09375 -153.52149,-29.0918 z"
             id="path4500" /><path
             inkscape:connector-curvature="0"
             style="opacity:1;fill:#ffc525;fill-opacity:1;fill-rule:evenodd;stroke:none;stroke-width:2;stroke-linecap:round;stroke-linejoin:miter;stroke-miterlimit:4;stroke-dasharray:none;stroke-dashoffset:0;stroke-opacity:1"
             d="m 125.27539,743.11523 2.69141,67.21289 106.58789,20.16797 0,-66.70312 -109.2793,-20.67774 z"
             id="path4498" /><path
             inkscape:connector-curvature="0"
             style="opacity:1;fill:#ffc525;fill-opacity:1;fill-rule:evenodd;stroke:none;stroke-width:2;stroke-linecap:round;stroke-linejoin:miter;stroke-miterlimit:4;stroke-dasharray:none;stroke-dashoffset:0;stroke-opacity:1"
             d="m 603.0332,765.13477 0,51.08789 149.52149,28.29296 0,-51.04882 -149.52149,-28.33203 z"
             id="path4496" /><path
             inkscape:connector-curvature="0"
             style="opacity:1;fill:#ffc525;fill-opacity:1;fill-rule:evenodd;stroke:none;stroke-width:2;stroke-linecap:round;stroke-linejoin:miter;stroke-miterlimit:4;stroke-dasharray:none;stroke-dashoffset:0;stroke-opacity:1"
             d="m 257.0332,768.04688 0,66.70312 147.52149,27.91602 0,-66.70313 -147.52149,-27.91601 z"
             id="path4494" /><path
             inkscape:connector-curvature="0"
             style="opacity:1;fill:#ffc525;fill-opacity:1;fill-rule:evenodd;stroke:none;stroke-width:2;stroke-linecap:round;stroke-linejoin:miter;stroke-miterlimit:4;stroke-dasharray:none;stroke-dashoffset:0;stroke-opacity:1"
             d="m 775.0332,797.72656 0,51.04297 108.49805,20.5293 -0.80273,-10.50195 c -2.31643,-23.13739 -7.19023,-41.61623 -71.56836,-54.22461 l -36.12696,-6.84571 z"
             id="path4492" /><path
             inkscape:connector-curvature="0"
             style="opacity:1;fill:#ffc525;fill-opacity:1;fill-rule:evenodd;stroke:none;stroke-width:2;stroke-linecap:round;stroke-linejoin:miter;stroke-miterlimit:4;stroke-dasharray:none;stroke-dashoffset:0;stroke-opacity:1"
             d="m 427.0332,800.21484 0,66.70313 153.52149,29.05078 0,-66.70313 -153.52149,-29.05078 z"
             id="path4490" /><path
             inkscape:connector-curvature="0"
             style="opacity:1;fill:#ffc525;fill-opacity:1;fill-rule:evenodd;stroke:none;stroke-width:2;stroke-linecap:round;stroke-linejoin:miter;stroke-miterlimit:4;stroke-dasharray:none;stroke-dashoffset:0;stroke-opacity:1"
             d="m 128.66406,827.75586 0.75196,18.7832 c 2.66405,20.476 11.11613,44.74477 36.43945,48.33203 l 68.69922,12.49219 0,-59.57031 -105.89063,-20.03711 z"
             id="path4488" /><path
             inkscape:connector-curvature="0"
             style="opacity:1;fill:#ffc525;fill-opacity:1;fill-rule:evenodd;stroke:none;stroke-width:2;stroke-linecap:round;stroke-linejoin:miter;stroke-miterlimit:4;stroke-dasharray:none;stroke-dashoffset:0;stroke-opacity:1"
             d="m 603.0332,833.51953 0,66.70313 149.52149,28.29296 0,-66.70312 -149.52149,-28.29297 z"
             id="path4486" /><path
             inkscape:connector-curvature="0"
             style="opacity:1;fill:#ffc525;fill-opacity:1;fill-rule:evenodd;stroke:none;stroke-width:2;stroke-linecap:round;stroke-linejoin:miter;stroke-miterlimit:4;stroke-dasharray:none;stroke-dashoffset:0;stroke-opacity:1"
             d="m 257.0332,852.04688 0,59.40234 147.52149,26.82422 0,-58.31055 -147.52149,-27.91601 z"
             id="path4484" /><path
             inkscape:connector-curvature="0"
             style="opacity:1;fill:#ffc525;fill-opacity:1;fill-rule:evenodd;stroke:none;stroke-width:2;stroke-linecap:round;stroke-linejoin:miter;stroke-miterlimit:4;stroke-dasharray:none;stroke-dashoffset:0;stroke-opacity:1"
             d="m 775.0332,866.06641 0,66.70312 115.00586,21.76172 -5.16797,-67.68164 -109.83789,-20.7832 z"
             id="path4482" /><path
             inkscape:connector-curvature="0"
             style="opacity:1;fill:#ffc525;fill-opacity:1;fill-rule:evenodd;stroke:none;stroke-width:2;stroke-linecap:round;stroke-linejoin:miter;stroke-miterlimit:4;stroke-dasharray:none;stroke-dashoffset:0;stroke-opacity:1"
             d="m 427.0332,884.21484 0,58.14649 153.52149,27.91406 0,-57.00977 -153.52149,-29.05078 z"
             id="path4480" /><path
             inkscape:connector-curvature="0"
             style="opacity:1;fill:#ffc525;fill-opacity:1;fill-rule:evenodd;stroke:none;stroke-width:2;stroke-linecap:round;stroke-linejoin:miter;stroke-miterlimit:4;stroke-dasharray:none;stroke-dashoffset:0;stroke-opacity:1"
             d="m 603.0332,917.51953 0,56.84375 149.52149,27.18752 0,-55.7383 -149.52149,-28.29297 z"
             id="path4478" /><path
             inkscape:connector-curvature="0"
             style="opacity:1;fill:#ffc525;fill-opacity:1;fill-rule:evenodd;stroke:none;stroke-width:2;stroke-linecap:round;stroke-linejoin:miter;stroke-miterlimit:4;stroke-dasharray:none;stroke-dashoffset:0;stroke-opacity:1"
             d="m 775.0332,950.06641 0,55.57229 120.58399,21.9258 -4.23633,-55.48247 -116.34766,-22.01562 z"
             id="path4434" /><path
             inkscape:connector-curvature="0"
             style="fill:#ffc525;fill-opacity:1"
             d="m 777.433,312.9073 -5e-5,-70.89787 C 593.36353,163.46735 365.75181,177.18624 219.308,243.158 l 0,69.74955 c 180.41612,-75.17899 409.55422,-59.17864 558.125,-2.5e-4 z"
             id="path4448" /><path
             inkscape:connector-curvature="0"
             style="fill:#ffc525;fill-opacity:1"
             d="m 777.433,405.54917 -5e-5,-70.89787 C 593.36353,256.10922 365.75181,269.82811 219.308,335.79987 l 0,69.74955 c 180.41612,-75.17899 409.55422,-59.17864 558.125,-2.5e-4 z"
             id="path4450" /><path
             inkscape:connector-curvature="0"
             style="fill:#ffc525;fill-opacity:1"
             d="m 777.433,496.66058 -5e-5,-70.89787 C 593.36353,347.22063 365.75181,360.93952 219.308,426.91128 l 0,69.74955 c 180.41612,-75.17899 409.55422,-59.17864 558.125,-2.5e-4 z"
             id="path4452" /></g></g><g
         id="g4229"
         style="fill:#ffc525;fill-opacity:1"
         transform="translate(-1.4469011,0)"><path
           d="m 123.59163,175.71312 27.96921,-31.34696 8.77956,7.83353 -17.60526,19.73139 8.38735,7.48358 16.5554,-18.55475 8.77957,7.83353 -16.55541,18.55475 10.31825,9.20642 18.19748,-20.39514 8.77957,7.83353 -28.56144,32.01071 -45.04428,-40.19059 z"
           style="font-style:normal;font-variant:normal;font-weight:bold;font-stretch:normal;font-size:82.80860901px;line-height:125%;font-family:sans-serif;-inkscape-font-specification:'sans-serif Bold';letter-spacing:1px;word-spacing:0px;fill:#ffc525;fill-opacity:1;stroke:none;stroke-width:1px;stroke-linecap:butt;stroke-linejoin:miter;stroke-opacity:1"
           id="path4208"
           inkscape:connector-curvature="0" /><path
           d="m 169.78813,126.99364 13.18146,-8.43246 37.49981,28.90625 -10.55785,-46.14158 13.18146,-8.432462 13.69589,62.901992 -15.63383,10.00129 -51.36694,-38.80303 z"
           style="font-style:normal;font-variant:normal;font-weight:bold;font-stretch:normal;font-size:82.80860901px;line-height:125%;font-family:sans-serif;-inkscape-font-specification:'sans-serif Bold';letter-spacing:1px;word-spacing:0px;fill:#ffc525;fill-opacity:1;stroke:none;stroke-width:1px;stroke-linecap:butt;stroke-linejoin:miter;stroke-opacity:1"
           id="path4210"
           inkscape:connector-curvature="0" /><path
           d="m 247.03819,83.475363 40.18156,-12.261733 3.43423,11.253932 -25.29234,7.718165 3.28081,10.751183 23.78408,-7.25791 3.43423,11.25393 -23.78408,7.25791 4.0361,13.22627 26.14316,-7.9778 3.43423,11.25394 -41.03238,12.52136 -17.6196,-57.739247 z"
           style="font-style:normal;font-variant:normal;font-weight:bold;font-stretch:normal;font-size:82.80860901px;line-height:125%;font-family:sans-serif;-inkscape-font-specification:'sans-serif Bold';letter-spacing:1px;word-spacing:0px;fill:#ffc525;fill-opacity:1;stroke:none;stroke-width:1px;stroke-linecap:butt;stroke-linejoin:miter;stroke-opacity:1"
           id="path4212"
           inkscape:connector-curvature="0" /><path
           d="m 341.58342,91.931998 q 4.89062,-0.135591 6.94195,-2.012687 2.09174,-1.878218 1.97632,-6.041309 -0.11429,-4.122672 -2.30577,-5.841689 -2.15106,-1.720138 -7.04169,-1.584547 l -6.54777,0.181535 0.42918,15.480231 6.54778,-0.181534 z m -6.2497,10.932822 0.63313,22.83637 -15.56107,0.43142 -1.67303,-60.344607 23.76599,-0.658904 q 11.92342,-0.330572 17.57167,3.517326 5.68868,3.846777 5.92848,12.496306 0.16585,5.981917 -2.63782,9.902343 -2.76325,3.919306 -8.53307,5.899496 3.21323,0.639005 5.79088,3.1563 2.61695,2.47576 5.34829,7.61801 l 8.92256,16.90319 -16.57153,0.45944 -7.77188,-14.79127 q -2.34851,-4.46522 -4.6983,-6.0585 -2.30937,-1.5944 -6.1087,-1.48907 l -4.4056,0.12215 z"
           style="font-style:normal;font-variant:normal;font-weight:bold;font-stretch:normal;font-size:82.80860901px;line-height:125%;font-family:sans-serif;-inkscape-font-specification:'sans-serif Bold';letter-spacing:1px;word-spacing:0px;fill:#ffc525;fill-opacity:1;stroke:none;stroke-width:1px;stroke-linecap:butt;stroke-linejoin:miter;stroke-opacity:1"
           id="path4214"
           inkscape:connector-curvature="0" /><path
           d="m 388.72368,66.206972 54.09106,13.024447 -2.75444,11.439316 -19.45863,-4.685393 -11.37746,47.251058 -15.13449,-3.64419 11.37746,-47.251062 -19.49795,-4.694859 2.75445,-11.439317 z"
           style="font-style:normal;font-variant:normal;font-weight:bold;font-stretch:normal;font-size:82.80860901px;line-height:125%;font-family:sans-serif;-inkscape-font-specification:'sans-serif Bold';letter-spacing:1px;word-spacing:0px;fill:#ffc525;fill-opacity:1;stroke:none;stroke-width:1px;stroke-linecap:butt;stroke-linejoin:miter;stroke-opacity:1"
           id="path4216"
           inkscape:connector-curvature="0" /><path
           d="m 486.30978,111.41403 q -6.17901,-3.53022 -12.19204,-0.91181 -6.01303,2.61841 -10.74674,10.9039 -4.71365,8.25038 -3.91572,14.76006 0.79792,6.50967 6.97693,10.0399 6.21412,3.55028 12.22715,0.93187 6.01303,-2.61841 10.72668,-10.86879 4.73371,-8.28549 3.93578,-14.79517 -0.79793,-6.50967 -7.01204,-10.05996 z m 5.5962,-9.79513 q 12.63889,7.22091 15.66896,18.54501 3.03007,11.3241 -4.25102,24.06831 -7.26103,12.7091 -18.55503,15.8495 -11.294,3.1404 -23.93288,-4.08051 -12.60378,-7.20085 -15.66896,-18.54501 -3.03007,-11.3241 4.23096,-24.0332 7.28108,-12.74421 18.57509,-15.884611 11.3291,-3.120344 23.93288,4.080511 z"
           style="font-style:normal;font-variant:normal;font-weight:bold;font-stretch:normal;font-size:82.80860901px;line-height:125%;font-family:sans-serif;-inkscape-font-specification:'sans-serif Bold';letter-spacing:1px;word-spacing:0px;fill:#ffc525;fill-opacity:1;stroke:none;stroke-width:1px;stroke-linecap:butt;stroke-linejoin:miter;stroke-opacity:1"
           id="path4218"
           inkscape:connector-curvature="0" /><path
           d="m 542.96177,138.56479 11.67891,12.88006 -15.92452,44.07692 30.67253,-27.81209 9.91349,10.93308 -44.72079,40.55025 -11.6789,-12.88007 15.92451,-44.07692 -30.67253,27.81209 -9.91349,-10.93308 44.72079,-40.55024 z"
           style="font-style:normal;font-variant:normal;font-weight:bold;font-stretch:normal;font-size:82.80860901px;line-height:125%;font-family:sans-serif;-inkscape-font-specification:'sans-serif Bold';letter-spacing:1px;word-spacing:0px;fill:#ffc525;fill-opacity:1;stroke:none;stroke-width:1px;stroke-linecap:butt;stroke-linejoin:miter;stroke-opacity:1"
           id="path4220"
           inkscape:connector-curvature="0" /></g></g></g></svg>