<?xml version="1.0" encoding="utf-8"?>
<!-- Generator: Adobe Illustrator 16.0.3, SVG Export Plug-In . SVG Version: 6.00 Build 0)  -->
<!DOCTYPE svg PUBLIC "-//W3C//DTD SVG 1.1//EN" "http://www.w3.org/Graphics/SVG/1.1/DTD/svg11.dtd">
<svg version="1.1" id="Capa_1" xmlns="http://www.w3.org/2000/svg" xmlns:xlink="http://www.w3.org/1999/xlink" x="0px" y="0px"
	 width="1000px" height="1078px" viewBox="0 0 1000 1078" enable-background="new 0 0 1000 1078" xml:space="preserve">
<g id="_x23_ffffffff">
	<path fill="#FFFFFF" d="M220.14,18c7.97,1.8,15.54,4.95,23.27,7.53c16.94,6.08,34.12,11.43,51.29,16.79
		c15.29,4.58,30.479,9.56,46.05,13.16c18.74,4.32,37.49,8.6,56.38,12.26c23.07,4.7,46.41,8.45,69.96,9.58
		c5.29,0.28,10.54,1.08,15.84,1.38c27.37,0.87,54.801,0.09,82.011-3.07c12.72-1.46,25.279-4,37.96-5.79
		c19.8-3.82,39.46-8.35,59.119-12.82c8.15-1.79,16.11-4.49,24.381-5.68c-10.511,11.82-21.87,22.83-32.971,34.09
		c-15.01,15.65-30.56,30.78-45.72,46.28c-10.47,10.86-21.17,21.49-31.83,32.16c-12.01,12.01-23.68,24.32-35.76,36.25
		c-3.47,3.38-6.79,6.9-9.94,10.57c17.16,3.24,34.44,6.36,50.95,12.2c63.91,22.01,117.53,72.36,142.99,135.05
		c5.62,13.2,9.16,27.14,13.2,40.87c13.77-13.39,26.97-27.35,40.59-40.899c38.29-38.37,76.41-76.93,114.46-115.54
		c18.29-18.08,35.92-36.82,54.63-54.47c-1.94,5.53-4.64,10.74-7.01,16.09c-21.87,49.04-39.971,99.79-53.471,151.77
		c-5.149,18.38-8.899,37.2-10.34,56.26c-2.859,40.511-3.399,81.24-8.89,121.53c-1.26,7.63-1.95,15.34-2.87,23.021
		c-7.63,58.97-22.62,117.279-47.47,171.42c-8.79,18.54-17.87,36.979-28.561,54.51c-23.75,39.43-52,76.02-82.51,110.44
		c-7.43,8.21-15.01,16.279-22.39,24.54c-6.98,8.329-15.061,15.609-22.61,23.399c-5.07,5.311-10.729,9.98-16.28,14.771
		c-35.33,30.96-72.27,60.08-110.27,87.689c-8.47,6.25-16.69,12.87-25.62,18.46c-1.77,0.8-3.83,2.7-5.8,1.44
		c-4.96-2.53-9.36-6.01-13.87-9.221c-17.85-13.5-36.15-26.39-53.71-40.27c-28.561-21.93-56.15-45.09-83.09-68.98
		c-25.99-25.439-50.72-52.159-73.78-80.289c4.41-6.79,10.6-12.08,16.13-17.9c14.4-14.26,28.38-28.94,42.78-43.21
		c13.74-13.601,27.11-27.561,40.75-41.24c12.74-12.6,25.229-25.439,37.78-38.22c13.029-13.43,26.79-26.15,39.25-40.12
		c-15.36-4.76-31.101-8.5-45.83-15.07c-31.49-13.41-60.011-33.76-83.03-59.069c-22.97-24.96-40.15-55.061-50.74-87.24
		c-4.68-14.2-7.58-28.9-9.75-43.67c-6.34,4.229-11.24,10.13-16.67,15.39c-13.6,13.41-26.69,27.311-40.26,40.75
		c-19.55,19.37-38.18,39.72-58.52,58.29c-2.5-9.47-3.5-19.25-4.89-28.92c-4-26.91-6.08-54.05-8.3-81.15
		c-3.55-36.939-1.83-74.55-10.53-110.859c-4.45-20.09-10.57-39.75-16.47-59.45c-2.65-9.43-6.09-18.6-9.13-27.9
		c-4.51-14.08-10.25-27.71-15.43-41.55c-3.27-8.55-7.14-16.86-10.54-25.37c-5.48-13.46-12-26.46-17.8-39.78
		c16.97-16.67,34.01-33.28,50.92-50c17.73-16.94,34.66-34.69,52.39-51.62c11.89-11.77,23.67-23.66,35.76-35.23
		C204.33,33.62,211.91,25.47,220.14,18 M436.18,258.22c-14.8,4.5-29.85,8.84-43.31,16.69c-39.01,20.54-70.08,55.04-87.69,95.34
		c-2.42,5.13-3.63,10.72-6.16,15.79c-3.23,7.25-4.45,15.15-6.22,22.83c-3.88,13.66-4.33,28-4.66,42.11
		c-0.66,19.119,2.47,38.17,7.22,56.64c9.65,32.29,26.51,62.68,50.331,86.67c9.329,9.8,20.069,18.11,31.02,26.01
		c8.9,6.181,18.72,10.84,28.44,15.561c8.529,4.18,17.779,6.479,26.83,9.22c10.039,2.95,20.43,4.45,30.76,6.02
		c2.59,4.601,4.31,9.65,7.16,14.12c1.18-5.51,1.619-11.13,2.42-16.7c1.05-8.55,2.439-17.079,2.51-25.71
		c-3.14,3.25-5.37,7.261-8.53,10.471c-4.3,1.09-8.88-0.13-13.21-0.641c-19.03-3.46-37.51-9.97-54.52-19.159
		c-31.521-16.83-56.87-44.07-73.46-75.54c-5-9.761-8.971-20.011-12.721-30.301c-3.239-13.75-6.33-27.59-7.72-41.659
		c0.08-16.061-0.53-32.33,3.12-48.091c2.05-8.56,2.66-17.569,6.36-25.649c3.31-7.85,6.189-15.87,9.43-23.74
		c5.56-9.29,10.939-18.74,17.5-27.39c13.27-17.61,29.66-32.94,48.32-44.73c9.119-5.86,19.05-10.26,28.699-15.15
		c6.82-2.85,14.17-4.11,21.24-6.22c4.69-1.979,7.93,3.1,11.69,4.99c-2.601-13.51-6.59-26.71-9.94-40.04
		C438.76,245.84,437.8,252.13,436.18,258.22 M486.88,244.16c5.351,4.91,12.11,8.51,15.89,14.93c5.931,9.52,7.141,20.95,8.29,31.85
		c-0.26,13.69,0.381,27.37,0.21,41.06c-0.079,52.34-0.119,104.67,0.101,157c-0.37,27.67-0.561,55.34,0.02,83.01
		c-0.06,26.67-0.43,53.33-0.21,80c-0.109,2.58,0.301,5.521-1.42,7.71c-2.3,2.92-5.34,5.13-7.81,7.9
		c13.84-2.271,27.71-4.58,41.34-7.91c-4.85-2.99-10.81-3.67-15.51-6.82c-0.63-5.62,0.25-11.26,0.21-16.89
		c-0.061-24.67,0.439-49.34,0.01-74c-0.14-28.72,0.22-57.45-0.26-86.16c6.59,0.61,13.21,0.48,19.81,0.83
		c2.141-0.14,3.48,1.63,4.46,3.28c5.2,8.71,8.87,18.24,14,26.99c6.25,10.149,10.67,21.26,16.28,31.739
		c10.18,20.13,21.02,39.931,30.66,60.33c5.08,14.561,2.75,30.53-1.99,44.87c10.26-8.71,20.34-17.61,30.51-26.42
		c12.23-10.84,24.91-21.22,36.79-32.45c-7.37,0.521-15.63,2.46-22.2-2.05c-3.26-1.69-2.659-5.85-2.909-8.9
		c-0.021-19.43-0.03-38.859,0-58.29c9.47-0.39,18.96,0.131,28.43-0.439c6.61-0.41,11.59-5.75,14.47-11.29
		c5.11-10.24,7.061-21.72,7.91-33.04c1.71-23.49,0.07-47.07-2.33-70.45c-2.09-19.25-7.21-38.72-18.439-54.75
		c-7.11-11.22-15.94-21.32-25.94-30.04c-12.65-11.729-25.75-22.94-39.38-33.51c1.41,3.69,3.3,7.17,5.28,10.59
		c4.229,7.37,6.89,15.49,9.409,23.56c2.771,9.29,3.301,19.01,3.58,28.63c0.12,7.64,0.96,15.3,0.091,22.93
		c-0.511,11.34-0.11,22.69-0.211,34.04c0.5,28.68-0.479,57.38,0.221,86.06c0.689,8.631,0.16,17.28-0.09,25.91
		c0.13,28.4,0.319,56.811-0.311,85.21c-4.97-5.27-8.68-11.55-12.229-17.81c-8.511-16.17-16.9-32.41-25.4-48.59
		c-9.85-18.63-19.75-37.261-28.25-56.55c5.16-3.86,10.31-7.86,14.31-12.98c10.61-13.49,19.801-28.94,22.051-46.25
		c2.3-10.5,1.85-21.31,1.76-31.98c-0.17-13.08-3.41-25.84-6.86-38.37c-6.63-22.29-15.399-44.15-28.239-63.64
		c-7.391-10.97-15.341-22.29-27.211-28.81C527.79,244.71,506.84,243.29,486.88,244.16 M455.36,302.28
		c-13.82,8.78-28,17.04-41.04,26.97c-17.03,12.41-32.71,27.19-44.07,45.06c-9.36,14.08-14.8,30.39-17.87,46.92
		c-1.689,9.159-0.63,18.52-1.29,27.76c0.57,39.33,14.33,78.35,38.55,109.34c2.841,3.479,5.33,7.65,9.57,9.57
		c3.37,1.3,6.73-0.73,9.74-2.07c0.43-8.58-6.83-14.15-11.17-20.64c-16-21.98-25.48-48.15-30.13-74.79
		c-1.601-8.37-0.96-16.9-0.9-25.36c28.02-0.08,56.04,0.04,84.04-0.75c0.36,46.26,0.15,92.53,0.229,138.8
		c0.57,4.32-4.13,6.141-6.47,8.95c6.98,3.979,14.33,7.24,21.46,10.93c5.66,2.67,11.04,6.3,17.36,7.2
		c-3.49-6.17-10.23-9.64-13.64-15.86c-2.721-4.63-1.681-10.199-1.881-15.31c-0.18-17.33,0.271-34.66,0.15-52
		c0.09-27.67-0.2-55.33,0.2-82.99c-0.37-14-0.13-28.01-0.21-42.01c0.06-21.66-0.431-43.32-0.25-64.98
		c0.77-13.56,0.7-27.2-0.38-40.73C463.22,297.98,459.12,299.83,455.36,302.28z"/>
	<path fill="#FFFFFF" d="M529.92,266.75c12.32,5.95,23.98,14.17,31.5,25.83c10.19,15.69,18.21,32.9,23.04,51.01
		c2.28,8.64,4.31,17.36,5.97,26.15c2.23,11.6,2.58,23.48,2.08,35.26c-0.399,8.91-2.58,17.8-6.74,25.72
		c-5.239,10.141-11.199,20.561-20.96,27c-4.75,2.8-10.5,2.48-15.81,2.53c-6.91-0.26-13.83,0.69-20.72-0.12
		c0.12-58.05-0.37-116.1-0.101-174.15C528.56,279.57,527.89,272.95,529.92,266.75z"/>
	<path fill="#FFFFFF" d="M386.56,378.59c15.98-22.98,38.61-41.06,64.21-52.29c0.521,33.89,0.12,67.78,0.2,101.67
		c-27.39,0.04-54.779,0.08-82.17-0.02C369.21,410.08,376.98,393.33,386.56,378.59z"/>
	<path fill="#FFFFFF" d="M653.33,333.04c6.08,5.17,11.09,11.44,15.65,17.97c5.899,7.88,10.55,16.68,13.97,25.91
		c4.439,11.49,5.319,23.9,6.939,36c1.58,23.57,2.551,47.43-1.31,70.84c-1.28,5.36-2.34,12.471-8.33,14.54
		c-8.86,2.15-18.09,1.141-27.1,0.7c-0.08-28.67,0.069-57.33,0.029-86C652.96,386.35,653.03,359.7,653.33,333.04z"/>
</g>
<g id="_x23_0f0f0fff">
	<path fill="#0F0F0F" d="M216.92,2.96c1.79-1.58,4.26-0.72,6.28-0.15c5.09,1.69,9.88,4.21,15,5.84c13.36,4.43,26.65,9.1,40.16,13.05
		c5.26,1.48,9.68,5.33,15.29,5.58c6.82,0.6,12.74,4.38,19.36,5.78c13.23,2.43,25.9,7.08,39.01,10.03
		c16.91,3.59,33.62,8.04,50.631,11.19c6.359,1.84,13.029,1.979,19.34,4.01c13,1.84,25.819,5.15,38.979,5.64
		c7.021,0.25,13.95,1.86,20.99,1.43c14.67-0.69,29.36-0.35,44.04-0.22c8.46,0.25,16.83-1.14,25.25-1.74
		c13.32-2.48,26.91-3,40.11-6.19c3.909-1.09,7.8-2.35,11.84-2.92c12.91-1.7,25.49-5.2,38.22-7.84
		c15.47-3.24,30.66-7.57,46.021-11.27c5.14-1.05,9.979-3.1,14.97-4.69c10.72-3.13,21.56-5.93,31.99-10.021
		c9.6-2.76,19.119-5.78,28.76-8.439c9.04-3.94,18.109-7.94,27.729-10.29c14.62,12.44,26.36,27.93,41.311,40.02
		c3.109,2.6,5.53,5.87,8.03,9.04c3.079,4,7.85,6.07,11.409,9.54c4.641,4.37,8.53,9.47,13.12,13.9
		c12.33,12.68,25.351,24.65,37.771,37.24c14.5,14.5,28.989,29,43.489,43.5c7.2,7.19,14.671,14.28,20.131,22.94
		c-4.29,12.27-10.53,23.73-15.5,35.72c-4.46,10.51-9.051,20.98-13.221,31.61c-3.6,10.28-8.54,20.04-11.739,30.47
		c-3.48,8.24-5.431,17.01-8.98,25.21c-1.08,2.61-1.94,5.29-2.56,8.04c-1.83,8.03-5.69,15.42-7.521,23.46
		c-3.74,15.53-8.76,30.75-11.54,46.5c-1.75,7.76-4.08,15.57-3.62,23.61c0.17,2.55-0.739,4.97-1.069,7.46
		c-0.881,7.28-0.45,14.64-0.83,21.95c-2.5,16.67-1.2,33.67-3.82,50.33c-1.14,8.31-0.45,16.739-1.52,25.05
		c-0.601,4.31-0.211,8.71-1.16,12.979c-1.521,5.78-1.181,11.811-1.99,17.7c-1.04,9.08-1.021,18.26-2.68,27.271
		c-2.051,13.67-4.33,27.3-7.19,40.819c-4.53,26.881-12.729,52.96-21.229,78.811c-8.881,24.6-18.351,49.109-30.82,72.16
		c-5.891,11.29-12.561,22.149-18.84,33.229c-11.08,19.7-24.17,38.17-37.88,56.11c-9.421,13.08-19.851,25.39-30.301,37.66
		c-10.54,13.06-21.96,25.38-33.33,37.71c-2.399,2.33-5.63,3.63-7.829,6.189c-3.16,3.511-5.99,7.311-9.311,10.681
		c-11.59,11.75-23.15,23.56-35.8,34.189c-5.49,4.88-10.97,9.8-16.99,14.021c-12.399,10.689-25.29,20.77-38.37,30.62
		c-9.24,6.709-17.979,14.09-27.38,20.569c-5.34,3.21-9.64,7.83-15,11c-8.82,5.39-17.189,11.45-25.58,17.46
		c-5.59,3.62-10.95,8.141-17.58,9.641c-4.2-0.131-7.79-2.801-11.279-4.87c-17.75-11.79-35.62-23.45-52.45-36.55
		c-21.16-16.131-42.71-31.79-63.101-48.9c-9.42-8.58-19.31-16.63-28.75-25.18c-10.689-10.32-21.159-20.87-31.569-31.471
		c-10.011-9.68-18.83-20.47-28.23-30.71c-5.39-6-11.43-11.51-15.6-18.489c-2.34-4.19-6.44-6.86-9.5-10.431
		c-34.54-43.13-65.69-89.5-87.85-140.27c-5.04-9.521-7.66-20.101-12-29.94c-3.02-6.74-5.47-13.74-7.18-20.93
		c-2.68-8.9-6.55-17.42-8.33-26.59c-3.23-9.261-5.22-18.88-7.62-28.38c-3.7-19.421-7.62-38.801-10.76-58.32
		c-1.39-7.811-1.21-15.8-3.05-23.54c-0.03-5.61-2.08-11.03-1.39-16.64c0.27-3.44-2.23-6.41-1.91-9.841
		c0.15-3.06,0.8-6.109,0.42-9.17c-0.32-2.689-1.68-5.149-1.71-7.88c0.05-8.88,0.51-17.83-0.47-26.68c-2.37-14-1-28.33-3.28-42.32
		c-0.19-10.04-0.66-20.069-1.43-30.08c-0.65-7.27-2.88-14.26-4.29-21.4c-1.63-11.02-5.56-21.52-7.87-32.4
		c-2.44-6.63-2.94-13.79-5.57-20.36c-1.98-5.13-3.99-10.27-5.24-15.64c-1.67-7.76-5.73-14.71-7.66-22.39
		c-3.96-10.95-7.64-22.021-12.39-32.66c-6.36-17.26-13.91-34.05-21.06-51c-3.49-8.39-8.1-16.35-10.72-25.08
		c3.97-7.84,10.95-13.67,16.94-19.97c29.36-29.3,58.6-58.73,88.06-87.93c4.36-4.33,8.34-9.05,13.18-12.87
		c6.62-5.37,11.37-12.56,17.71-18.2c4.15-3.88,8.1-7.97,12.25-11.84C199.58,18.9,207.36,9.91,216.92,2.96 M220.14,18
		c-8.23,7.47-15.81,15.62-23.81,23.34c-12.09,11.57-23.87,23.46-35.76,35.23c-17.73,16.93-34.66,34.68-52.39,51.62
		c-16.91,16.72-33.95,33.33-50.92,50c5.8,13.32,12.32,26.32,17.8,39.78c3.4,8.51,7.27,16.82,10.54,25.37
		c5.18,13.84,10.92,27.47,15.43,41.55c3.04,9.3,6.48,18.47,9.13,27.9c5.9,19.7,12.02,39.36,16.47,59.45
		c8.7,36.31,6.98,73.92,10.53,110.859c2.22,27.101,4.3,54.24,8.3,81.15c1.39,9.67,2.39,19.45,4.89,28.92
		c3.09,15.54,7.11,30.87,10.23,46.41c2.69,10.9,6.05,21.63,9.7,32.25c2.53,7.74,5.76,15.24,7.8,23.14
		c3.73,11.63,9.07,22.66,14.14,33.74c6.98,15.33,14.6,30.39,23.1,44.95c18.22,32.13,40.11,62,63.14,90.82
		c23.06,28.13,47.79,54.85,73.78,80.289c26.939,23.891,54.529,47.051,83.09,68.98c17.56,13.88,35.86,26.77,53.71,40.27
		c4.51,3.211,8.91,6.69,13.87,9.221c1.97,1.26,4.03-0.641,5.8-1.44c8.93-5.59,17.15-12.21,25.62-18.46
		c38-27.609,74.939-56.729,110.27-87.689c5.551-4.79,11.21-9.46,16.28-14.771c7.55-7.79,15.63-15.07,22.61-23.399
		c7.38-8.261,14.96-16.33,22.39-24.54c30.51-34.421,58.76-71.011,82.51-110.44c10.69-17.53,19.771-35.97,28.561-54.51
		c24.85-54.141,39.84-112.45,47.47-171.42c0.92-7.681,1.61-15.391,2.87-23.021c5.49-40.29,6.03-81.02,8.89-121.53
		c1.44-19.06,5.19-37.879,10.34-56.26c13.5-51.979,31.601-102.729,53.471-151.77c2.37-5.35,5.069-10.56,7.01-16.09
		c2.58-3.44,5.85-9.09,1.78-12.67c-12.811-13.19-26.471-25.54-39.37-38.64c-17.41-17.27-35.351-33.98-52.49-51.52
		c-11.03-9.25-20.72-19.94-31.01-29.98c-6.13-6.56-13.22-12.1-19.44-18.56c-6.22-6.12-12.1-12.7-19.34-17.66
		c-18.439,5.45-36.05,13.34-54.57,18.55c-15.35,4.75-30.63,9.8-46.159,13.92c-8.271,1.19-16.23,3.89-24.381,5.68
		c-19.659,4.47-39.319,9-59.119,12.82c-12.681,1.79-25.24,4.33-37.96,5.79c-27.21,3.16-54.641,3.94-82.011,3.07
		c-5.3-0.3-10.55-1.1-15.84-1.38c-23.55-1.13-46.89-4.88-69.96-9.58c-18.89-3.66-37.64-7.94-56.38-12.26
		c-15.57-3.6-30.76-8.58-46.05-13.16c-17.17-5.36-34.35-10.71-51.29-16.79C235.68,22.95,228.11,19.8,220.14,18z"/>
	<path fill="#0F0F0F" d="M436.18,258.22c1.62-6.09,2.58-12.38,4.91-18.26c3.351,13.33,7.34,26.53,9.94,40.04
		c-3.761-1.89-7-6.97-11.69-4.99c-7.07,2.11-14.42,3.37-21.24,6.22c-9.649,4.89-19.58,9.29-28.699,15.15
		c-18.66,11.79-35.051,27.12-48.32,44.73c-6.561,8.65-11.94,18.1-17.5,27.39c-3.24,7.87-6.12,15.89-9.43,23.74
		c-3.7,8.08-4.311,17.09-6.36,25.649c-3.65,15.761-3.04,32.03-3.12,48.091c1.39,14.069,4.48,27.909,7.72,41.659
		c3.75,10.29,7.721,20.54,12.721,30.301c16.59,31.47,41.939,58.71,73.46,75.54c17.01,9.189,35.489,15.699,54.52,19.159
		c4.33,0.511,8.91,1.73,13.21,0.641c3.16-3.21,5.391-7.221,8.53-10.471c-0.07,8.631-1.46,17.16-2.51,25.71
		c-0.801,5.57-1.24,11.19-2.42,16.7c-2.851-4.47-4.57-9.52-7.16-14.12c-10.33-1.569-20.721-3.069-30.76-6.02
		c-9.051-2.74-18.301-5.04-26.83-9.22c-9.721-4.721-19.54-9.38-28.44-15.561c-10.95-7.899-21.69-16.21-31.02-26.01
		c-23.82-23.99-40.681-54.38-50.331-86.67c-4.75-18.47-7.88-37.521-7.22-56.64c0.33-14.11,0.78-28.45,4.66-42.11
		c1.77-7.68,2.99-15.58,6.22-22.83c2.53-5.07,3.74-10.66,6.16-15.79c17.61-40.3,48.68-74.8,87.69-95.34
		C406.33,267.06,421.38,262.72,436.18,258.22z"/>
	<path fill="#0F0F0F" d="M486.88,244.16c19.96-0.87,40.91,0.55,58.89,10.04c11.87,6.52,19.82,17.84,27.211,28.81
		c12.84,19.49,21.609,41.35,28.239,63.64c3.45,12.53,6.69,25.29,6.86,38.37c0.09,10.67,0.54,21.48-1.76,31.98
		c-2.25,17.31-11.44,32.76-22.051,46.25c-4,5.12-9.149,9.12-14.31,12.98c8.5,19.289,18.4,37.92,28.25,56.55
		c8.5,16.18,16.89,32.42,25.4,48.59c3.55,6.26,7.26,12.54,12.229,17.81c0.63-28.399,0.44-56.81,0.311-85.21
		c0.25-8.63,0.779-17.279,0.09-25.91c-0.7-28.68,0.279-57.38-0.221-86.06c0.101-11.35-0.3-22.7,0.211-34.04
		c0.869-7.63,0.029-15.29-0.091-22.93c-0.279-9.62-0.81-19.34-3.58-28.63c-2.52-8.07-5.18-16.19-9.409-23.56
		c-1.98-3.42-3.87-6.9-5.28-10.59c13.63,10.57,26.729,21.78,39.38,33.51c10,8.72,18.83,18.82,25.94,30.04
		c11.229,16.03,16.35,35.5,18.439,54.75c2.4,23.38,4.04,46.96,2.33,70.45c-0.85,11.32-2.8,22.8-7.91,33.04
		c-2.88,5.54-7.859,10.88-14.47,11.29c-9.47,0.57-18.96,0.05-28.43,0.439c-0.03,19.431-0.021,38.86,0,58.29
		c0.25,3.051-0.351,7.21,2.909,8.9c6.57,4.51,14.83,2.57,22.2,2.05c-11.88,11.23-24.56,21.61-36.79,32.45
		c-10.17,8.81-20.25,17.71-30.51,26.42c4.74-14.34,7.07-30.31,1.99-44.87c-9.641-20.399-20.48-40.2-30.66-60.33
		c-5.61-10.479-10.03-21.59-16.28-31.739c-5.13-8.75-8.8-18.28-14-26.99c-0.979-1.65-2.319-3.42-4.46-3.28
		c-6.6-0.35-13.22-0.22-19.81-0.83c0.479,28.71,0.12,57.44,0.26,86.16c0.43,24.66-0.07,49.33-0.01,74
		c0.04,5.63-0.84,11.27-0.21,16.89c4.7,3.15,10.66,3.83,15.51,6.82c-13.63,3.33-27.5,5.64-41.34,7.91c2.47-2.771,5.51-4.98,7.81-7.9
		c1.721-2.189,1.311-5.13,1.42-7.71c-0.22-26.67,0.15-53.33,0.21-80c-0.58-27.67-0.39-55.34-0.02-83.01
		c-0.22-52.33-0.18-104.66-0.101-157c0.171-13.69-0.47-27.37-0.21-41.06c-1.149-10.9-2.359-22.33-8.29-31.85
		C498.99,252.67,492.23,249.07,486.88,244.16 M529.92,266.75c-2.03,6.2-1.36,12.82-1.74,19.23c-0.27,58.05,0.221,116.1,0.101,174.15
		c6.89,0.811,13.81-0.14,20.72,0.12c5.31-0.05,11.06,0.27,15.81-2.53c9.761-6.439,15.721-16.859,20.96-27
		c4.16-7.92,6.341-16.81,6.74-25.72c0.5-11.78,0.15-23.66-2.08-35.26c-1.66-8.79-3.689-17.51-5.97-26.15
		c-4.83-18.11-12.85-35.32-23.04-51.01C553.9,280.92,542.24,272.7,529.92,266.75 M653.33,333.04c-0.3,26.66-0.37,53.31-0.15,79.96
		c0.04,28.67-0.109,57.33-0.029,86c9.01,0.44,18.239,1.45,27.1-0.7c5.99-2.069,7.05-9.18,8.33-14.54
		c3.86-23.41,2.89-47.27,1.31-70.84c-1.62-12.1-2.5-24.51-6.939-36c-3.42-9.23-8.07-18.03-13.97-25.91
		C664.42,344.48,659.41,338.21,653.33,333.04z"/>
	<path fill="#0F0F0F" d="M455.36,302.28c3.76-2.45,7.859-4.3,12-5.99c1.08,13.53,1.149,27.17,0.38,40.73
		c-0.181,21.66,0.31,43.32,0.25,64.98c0.08,14-0.16,28.01,0.21,42.01c-0.4,27.66-0.11,55.32-0.2,82.99
		c0.12,17.34-0.33,34.67-0.15,52c0.2,5.11-0.84,10.68,1.881,15.31c3.409,6.221,10.149,9.69,13.64,15.86
		c-6.32-0.9-11.7-4.53-17.36-7.2c-7.13-3.689-14.479-6.95-21.46-10.93c2.34-2.81,7.04-4.63,6.47-8.95
		c-0.079-46.27,0.131-92.54-0.229-138.8c-28,0.79-56.021,0.67-84.04,0.75c-0.06,8.46-0.7,16.99,0.9,25.36
		c4.649,26.64,14.13,52.81,30.13,74.79c4.34,6.489,11.6,12.06,11.17,20.64c-3.01,1.34-6.37,3.37-9.74,2.07
		c-4.24-1.92-6.729-6.091-9.57-9.57c-24.22-30.99-37.979-70.01-38.55-109.34c0.66-9.24-0.399-18.601,1.29-27.76
		c3.07-16.53,8.51-32.84,17.87-46.92c11.36-17.87,27.04-32.65,44.07-45.06C427.36,319.32,441.54,311.06,455.36,302.28
		 M386.56,378.59c-9.579,14.74-17.35,31.49-17.76,49.36c27.391,0.1,54.78,0.06,82.17,0.02c-0.08-33.89,0.32-67.78-0.2-101.67
		C425.17,337.53,402.54,355.61,386.56,378.59z"/>
</g>
<g id="_x23_92452dff">
	<path fill="#D33335" d="M732.56,37.42c18.521-5.21,36.131-13.1,54.57-18.55c7.24,4.96,13.12,11.54,19.34,17.66
		c6.221,6.46,13.311,12,19.44,18.56c10.29,10.04,19.979,20.73,31.01,29.98c17.14,17.54,35.08,34.25,52.49,51.52
		c12.899,13.1,26.56,25.45,39.37,38.64c4.069,3.58,0.8,9.23-1.78,12.67c-18.71,17.65-36.34,36.39-54.63,54.47
		c-38.05,38.61-76.17,77.17-114.46,115.54c-13.62,13.55-26.82,27.51-40.59,40.899c-4.04-13.729-7.58-27.669-13.2-40.87
		c-25.46-62.69-79.08-113.04-142.99-135.05c-16.51-5.84-33.79-8.96-50.95-12.2c3.15-3.67,6.471-7.19,9.94-10.57
		c12.08-11.93,23.75-24.24,35.76-36.25c10.66-10.67,21.36-21.3,31.83-32.16c15.16-15.5,30.71-30.63,45.72-46.28
		c11.101-11.26,22.46-22.27,32.971-34.09C701.93,47.22,717.21,42.17,732.56,37.42z"/>
	<path fill="#D33335" d="M249.13,494.13c5.43-5.26,10.33-11.16,16.67-15.39c2.17,14.77,5.07,29.47,9.75,43.67
		c10.59,32.18,27.77,62.28,50.74,87.24c23.02,25.31,51.54,45.659,83.03,59.069c14.729,6.57,30.47,10.311,45.83,15.07
		c-12.46,13.97-26.221,26.69-39.25,40.12c-12.551,12.78-25.04,25.62-37.78,38.22c-13.64,13.68-27.01,27.64-40.75,41.24
		c-14.4,14.27-28.38,28.95-42.78,43.21c-5.53,5.82-11.72,11.11-16.13,17.9c-23.03-28.82-44.92-58.69-63.14-90.82
		c-8.5-14.561-16.12-29.62-23.1-44.95c-5.07-11.08-10.41-22.11-14.14-33.74c-2.04-7.899-5.27-15.399-7.8-23.14
		c-3.65-10.62-7.01-21.35-9.7-32.25c-3.12-15.54-7.14-30.87-10.23-46.41c20.34-18.57,38.97-38.92,58.52-58.29
		C222.44,521.44,235.53,507.54,249.13,494.13z"/>
</g>
</svg>
