<?xml version="1.0" encoding="UTF-8" ?>
<!DOCTYPE svg PUBLIC "-//W3C//DTD SVG 1.1//EN" "http://www.w3.org/Graphics/SVG/1.1/DTD/svg11.dtd">
<svg width="1072pt" height="1156pt" viewBox="0 0 1072 1156" version="1.1" xmlns="http://www.w3.org/2000/svg">
<g id="#54535187">
<path fill="#545351" opacity="0.53" d=" M 531.17 0.00 L 533.00 0.00 C 534.50 2.58 535.75 5.30 537.02 8.00 C 529.80 -7.00 525.86 15.27 520.06 20.01 C 522.84 12.90 526.49 6.04 531.17 0.00 Z" />
</g>
<g id="#9e9c99fc">
<path fill="#9e9c99" opacity="1.00" d=" M 520.06 20.01 C 525.86 15.27 529.80 -7.00 537.02 8.00 C 543.52 18.73 550.58 29.01 557.14 39.76 C 560.89 45.58 563.50 52.58 569.00 57.07 C 580.26 70.96 590.61 85.80 602.90 98.97 C 610.21 108.48 618.90 117.37 628.33 124.76 C 633.77 128.42 638.16 133.38 643.02 137.75 C 647.30 142.36 652.66 146.18 658.42 148.73 C 674.12 158.16 688.38 169.98 705.06 177.78 C 710.21 182.28 716.67 185.28 723.34 186.76 C 747.45 197.65 773.34 203.29 799.04 208.89 C 809.03 212.39 819.65 214.07 830.24 213.85 C 850.49 217.44 871.24 217.31 891.75 216.75 C 900.57 216.94 909.46 217.56 918.25 216.23 C 923.36 215.39 928.49 214.79 933.68 214.62 C 941.50 215.43 949.31 214.65 957.08 213.79 C 974.38 235.99 992.08 257.13 1009.94 278.84 C 1015.12 287.72 1022.45 295.28 1029.19 302.99 C 1030.64 304.47 1032.04 306.01 1033.22 307.72 C 1038.67 315.97 1044.64 324.54 1052.30 330.88 C 1055.52 334.30 1058.32 338.07 1061.09 341.87 C 1063.04 347.04 1069.01 350.37 1069.57 356.02 C 1043.20 362.68 1016.54 369.21 992.20 382.16 C 984.59 384.43 977.81 388.68 971.81 393.78 C 955.51 407.60 938.23 422.84 930.04 443.00 C 922.65 497.98 920.37 553.57 914.83 608.78 C 913.67 616.54 913.10 624.36 913.13 632.21 C 908.36 679.65 905.10 727.22 900.66 774.69 C 897.15 808.77 895.55 843.52 884.09 876.12 C 869.68 918.34 846.38 958.14 811.13 986.22 C 775.15 1018.56 727.67 1032.18 683.08 1048.11 C 647.38 1064.18 614.02 1085.09 583.06 1108.99 C 576.65 1112.78 571.68 1118.48 567.07 1124.22 C 561.20 1131.03 553.73 1136.07 547.09 1142.02 C 540.28 1143.92 537.88 1154.23 530.52 1153.61 C 520.96 1141.66 511.72 1129.02 499.77 1119.38 C 492.59 1111.21 484.38 1103.57 475.13 1097.71 C 473.17 1095.52 470.46 1094.36 467.95 1092.99 C 453.36 1080.82 437.08 1070.24 419.95 1061.98 C 412.97 1057.63 405.77 1053.16 397.71 1051.18 C 359.73 1034.64 319.07 1023.51 284.98 999.21 C 279.53 993.39 272.60 989.07 265.65 985.28 C 264.00 984.02 262.41 982.68 261.02 981.16 C 239.56 962.13 222.37 938.25 206.95 913.98 C 197.89 896.46 189.45 878.42 184.97 859.09 C 182.93 850.76 182.66 841.77 178.96 833.94 C 178.41 827.15 178.17 820.30 176.20 813.73 C 173.23 795.70 173.68 777.28 170.79 759.23 C 170.40 747.49 170.41 735.48 168.00 724.00 C 167.77 715.61 168.12 707.04 166.12 698.83 C 158.59 615.07 152.19 531.10 144.70 447.30 C 146.42 440.49 143.53 433.04 137.88 429.05 C 115.76 395.65 77.44 379.37 42.10 364.07 C 36.86 361.06 30.80 359.46 24.78 359.14 C 19.78 357.19 14.65 355.63 9.36 354.71 C 3.51 353.61 1.48 349.53 5.86 345.00 C 8.10 344.28 8.90 341.99 9.99 340.15 C 15.63 334.87 21.36 328.77 25.03 321.88 C 36.18 306.75 47.84 291.67 60.88 278.00 C 69.62 269.96 76.62 259.92 83.15 250.04 C 91.95 237.35 102.49 226.10 111.71 213.77 C 118.88 213.92 126.06 214.14 133.23 213.81 C 147.41 214.54 161.68 214.44 175.79 216.11 C 189.54 217.68 203.52 217.37 217.30 216.32 C 270.08 212.39 323.12 200.26 369.83 175.00 C 378.64 172.12 386.90 166.75 393.84 160.67 C 406.09 152.09 417.80 142.78 429.91 133.99 C 443.31 123.69 455.32 110.86 464.99 97.00 C 472.10 89.80 480.43 83.02 485.01 73.86 C 493.04 62.28 501.07 50.71 508.73 38.87 C 513.42 33.22 517.54 26.94 520.06 20.01 M 531.46 39.33 C 482.41 128.20 397.64 198.36 298.62 223.55 C 240.84 241.25 179.99 235.32 120.55 235.34 C 92.47 270.29 64.71 305.52 36.06 340.03 C 32.29 344.89 43.05 343.28 44.93 345.23 C 92.52 358.74 139.90 388.37 161.64 434.34 C 173.53 561.47 184.25 688.71 194.97 815.96 C 199.29 842.41 207.46 868.11 216.78 893.19 C 229.03 917.07 244.59 939.43 263.29 958.71 C 297.83 992.23 343.71 1008.61 387.85 1025.21 C 442.37 1049.81 495.72 1081.28 534.19 1127.99 C 564.40 1094.80 601.00 1067.40 641.13 1047.16 C 680.12 1026.08 723.59 1015.25 762.88 994.86 C 812.14 968.94 850.18 922.91 866.58 869.76 C 873.73 836.05 878.06 801.82 882.61 767.68 C 889.43 682.25 898.02 596.99 904.54 511.57 C 908.49 485.42 906.34 458.15 913.71 432.67 C 936.66 383.57 988.12 357.54 1037.98 343.87 C 1007.66 307.30 978.48 269.24 946.88 234.06 C 861.84 243.84 772.24 233.53 695.01 194.99 C 646.27 167.72 601.60 131.89 567.14 87.83 C 553.94 73.02 542.42 53.77 531.46 39.33 Z" />
</g>
<g id="#49494779">
<path fill="#494947" opacity="0.47" d=" M 508.73 38.87 C 511.44 32.03 515.55 25.79 520.06 20.01 C 517.54 26.94 513.42 33.22 508.73 38.87 Z" />
</g>
<g id="#3f3c3dff">
<path fill="#3f3c3d" opacity="1.00" d=" M 531.46 39.33 C 542.42 53.77 553.94 73.02 567.14 87.83 C 601.60 131.89 646.27 167.72 695.01 194.99 C 772.24 233.53 861.84 243.84 946.88 234.06 C 978.48 269.24 1007.66 307.30 1037.98 343.87 C 988.12 357.54 936.66 383.57 913.71 432.67 C 906.34 458.15 908.49 485.42 904.54 511.57 C 898.02 596.99 889.43 682.25 882.61 767.68 C 878.06 801.82 873.73 836.05 866.58 869.76 C 850.18 922.91 812.14 968.94 762.88 994.86 C 723.59 1015.25 680.12 1026.08 641.13 1047.16 C 601.00 1067.40 564.40 1094.80 534.19 1127.99 C 495.72 1081.28 442.37 1049.81 387.85 1025.21 C 343.71 1008.61 297.83 992.23 263.29 958.71 C 244.59 939.43 229.03 917.07 216.78 893.19 C 207.46 868.11 199.29 842.41 194.97 815.96 C 184.25 688.71 173.53 561.47 161.64 434.34 C 139.90 388.37 92.52 358.74 44.93 345.23 C 43.05 343.28 32.29 344.89 36.06 340.03 C 64.71 305.52 92.47 270.29 120.55 235.34 C 179.99 235.32 240.84 241.25 298.62 223.55 C 397.64 198.36 482.41 128.20 531.46 39.33 M 507.03 84.17 C 473.08 129.23 430.26 168.47 379.96 194.90 C 318.61 229.27 246.81 242.23 177.01 239.97 C 161.11 237.68 140.78 239.51 123.31 238.20 C 108.03 254.44 95.17 273.07 81.25 290.34 C 78.45 294.43 74.28 297.55 72.21 301.99 C 60.10 313.39 51.27 328.44 39.96 340.76 C 51.07 342.30 61.32 347.83 72.24 349.72 C 109.26 369.26 147.46 393.21 164.78 433.15 C 171.59 498.70 175.11 564.76 183.24 630.09 C 183.02 651.24 185.79 674.39 188.25 696.25 C 188.86 707.04 189.85 719.58 191.02 729.11 C 195.47 773.14 194.14 819.61 209.99 861.22 C 211.42 871.15 216.16 880.43 219.22 890.01 C 221.42 897.82 226.80 904.28 230.72 911.29 C 239.11 920.33 243.53 934.47 254.08 940.20 C 253.83 940.43 253.34 940.90 253.09 941.14 C 281.66 979.75 328.05 999.12 371.79 1015.29 C 432.53 1039.03 490.24 1073.11 534.28 1121.86 C 556.33 1100.40 579.47 1079.99 605.80 1063.77 C 652.28 1030.97 708.65 1018.12 758.97 992.94 C 806.71 969.65 842.47 926.24 860.91 876.90 C 869.61 844.57 873.58 811.12 877.87 777.95 C 885.10 704.39 891.24 630.62 897.95 556.96 C 898.55 534.71 903.41 510.60 901.77 489.67 C 906.95 479.67 904.42 465.60 906.08 454.09 C 906.49 440.94 910.66 427.00 919.30 416.30 C 943.21 377.38 985.98 356.73 1027.92 342.89 C 1032.85 341.45 1026.74 336.73 1025.66 334.37 C 1007.70 313.30 990.48 290.18 972.27 270.25 C 967.41 262.19 960.14 255.83 954.79 248.09 C 950.48 243.79 946.81 233.69 938.48 237.55 C 904.46 242.63 869.76 240.21 835.94 238.97 C 835.64 238.01 834.79 237.54 833.38 237.54 C 779.64 230.73 725.22 218.41 678.90 189.10 C 630.45 161.71 589.67 121.83 554.98 79.20 C 548.32 67.80 539.93 57.33 532.02 46.77 C 522.46 58.07 517.43 73.08 507.03 84.17 Z" />
</g>
<g id="#5a57568e">
<path fill="#5a5756" opacity="0.56" d=" M 557.14 39.76 C 562.06 44.79 565.59 50.95 569.00 57.07 C 563.50 52.58 560.89 45.58 557.14 39.76 Z" />
</g>
<g id="#b6afaaff">
<path fill="#b6afaa" opacity="1.00" d=" M 507.03 84.17 C 517.43 73.08 522.46 58.07 532.02 46.77 C 539.93 57.33 548.32 67.80 554.98 79.20 C 538.49 70.75 522.33 77.76 507.03 84.17 Z" />
<path fill="#b6afaa" opacity="1.00" d=" M 39.96 340.76 C 51.27 328.44 60.10 313.39 72.21 301.99 C 67.28 317.65 65.53 334.17 72.24 349.72 C 61.32 347.83 51.07 342.30 39.96 340.76 Z" />
</g>
<g id="#53525086">
<path fill="#535250" opacity="0.53" d=" M 464.99 97.00 C 469.95 88.03 478.53 81.66 485.01 73.86 C 480.43 83.02 472.10 89.80 464.99 97.00 Z" />
</g>
<g id="#cfc8c0ff">
<path fill="#cfc8c0" opacity="1.00" d=" M 507.03 84.17 C 522.33 77.76 538.49 70.75 554.98 79.20 C 589.67 121.83 630.45 161.71 678.90 189.10 C 725.22 218.41 779.64 230.73 833.38 237.54 C 834.79 237.54 835.64 238.01 835.94 238.97 C 827.08 243.41 818.94 249.08 810.38 254.03 C 798.51 246.26 781.61 248.23 768.12 242.86 C 693.71 222.78 627.57 178.66 575.28 122.64 C 564.72 112.63 552.40 101.80 537.02 101.92 C 516.17 100.08 502.08 118.89 488.58 131.59 C 427.31 199.04 341.50 243.25 250.94 253.94 C 216.15 259.34 180.07 254.45 146.14 265.24 C 125.39 273.72 104.81 287.36 95.52 308.57 C 89.39 322.78 92.02 340.03 102.42 351.58 C 120.10 369.55 141.73 383.76 156.16 404.84 C 190.59 450.53 190.04 510.19 195.45 564.51 C 197.30 582.83 197.40 601.50 200.98 619.55 C 195.22 623.31 188.94 626.22 183.24 630.09 C 175.11 564.76 171.59 498.70 164.78 433.15 C 147.46 393.21 109.26 369.26 72.24 349.72 C 65.53 334.17 67.28 317.65 72.21 301.99 C 74.28 297.55 78.45 294.43 81.25 290.34 C 105.96 263.30 139.16 240.21 177.01 239.97 C 246.81 242.23 318.61 229.27 379.96 194.90 C 430.26 168.47 473.08 129.23 507.03 84.17 Z" />
</g>
<g id="#504f4d81">
<path fill="#504f4d" opacity="0.51" d=" M 429.91 133.99 C 442.01 122.03 453.10 109.12 464.99 97.00 C 455.32 110.86 443.31 123.69 429.91 133.99 Z" />
</g>
<g id="#54525187">
<path fill="#545251" opacity="0.53" d=" M 602.90 98.97 C 611.90 107.00 620.60 115.50 628.33 124.76 C 618.90 117.37 610.21 108.48 602.90 98.97 Z" />
<path fill="#545251" opacity="0.53" d=" M 369.83 175.00 C 377.67 170.01 385.58 164.92 393.84 160.67 C 386.90 166.75 378.64 172.12 369.83 175.00 Z" />
</g>
<g id="#e4dcd4ff">
<path fill="#e4dcd4" opacity="1.00" d=" M 488.58 131.59 C 502.08 118.89 516.17 100.08 537.02 101.92 C 552.40 101.80 564.72 112.63 575.28 122.64 C 627.57 178.66 693.71 222.78 768.12 242.86 C 781.61 248.23 798.51 246.26 810.38 254.03 C 804.30 257.89 797.88 261.14 791.76 264.92 C 787.99 267.28 784.30 269.71 780.47 271.94 C 778.09 267.60 772.64 268.11 768.49 268.24 C 726.99 257.76 686.87 241.62 651.17 217.78 C 614.96 197.75 586.69 166.97 555.77 140.21 C 551.54 133.99 538.91 138.35 537.98 130.91 C 533.23 127.98 531.37 137.80 525.45 135.55 C 496.72 154.16 475.55 183.50 446.62 202.66 C 385.72 248.62 310.91 273.64 235.31 280.39 C 205.83 284.64 172.25 278.29 143.85 292.82 C 131.23 298.96 119.00 311.25 123.23 326.71 C 121.82 331.53 129.41 335.21 126.33 338.76 C 135.93 345.09 144.49 353.46 151.35 362.70 C 176.99 380.54 192.67 409.59 202.57 438.43 C 217.69 491.39 216.95 546.74 222.23 601.17 C 221.50 604.57 226.52 601.83 228.55 602.92 C 219.53 608.74 210.08 613.86 200.98 619.55 C 197.40 601.50 197.30 582.83 195.45 564.51 C 190.04 510.19 190.59 450.53 156.16 404.84 C 141.73 383.76 120.10 369.55 102.42 351.58 C 92.02 340.03 89.39 322.78 95.52 308.57 C 104.81 287.36 125.39 273.72 146.14 265.24 C 180.07 254.45 216.15 259.34 250.94 253.94 C 341.50 243.25 427.31 199.04 488.58 131.59 Z" />
</g>
<g id="#f4ece2ff">
<path fill="#f4ece2" opacity="1.00" d=" M 525.45 135.55 C 531.37 137.80 533.23 127.98 537.98 130.91 C 538.91 138.35 551.54 133.99 555.77 140.21 C 586.69 166.97 614.96 197.75 651.17 217.78 C 686.87 241.62 726.99 257.76 768.49 268.24 C 772.64 268.11 778.09 267.60 780.47 271.94 C 685.06 328.63 590.14 386.19 495.08 443.49 C 406.11 496.40 317.42 549.87 228.55 602.92 C 226.52 601.83 221.50 604.57 222.23 601.17 C 216.95 546.74 217.69 491.39 202.57 438.43 C 192.67 409.59 176.99 380.54 151.35 362.70 C 144.49 353.46 135.93 345.09 126.33 338.76 C 129.41 335.21 121.82 331.53 123.23 326.71 C 119.00 311.25 131.23 298.96 143.85 292.82 C 172.25 278.29 205.83 284.64 235.31 280.39 C 310.91 273.64 385.72 248.62 446.62 202.66 C 475.55 183.50 496.72 154.16 525.45 135.55 M 284.41 287.38 C 262.55 287.26 247.94 308.11 246.24 328.17 C 245.02 353.52 242.63 380.06 251.70 404.33 C 261.52 430.39 305.88 434.32 318.71 408.69 C 320.54 403.96 329.75 389.98 317.01 392.92 C 307.46 389.20 305.78 395.79 303.22 402.22 C 297.78 410.45 286.55 411.31 277.99 407.96 C 265.23 403.30 266.38 386.97 264.24 375.83 C 264.49 354.23 262.10 330.54 271.38 310.32 C 281.05 298.00 304.72 301.67 308.77 317.26 C 313.05 318.07 320.73 319.46 324.90 316.78 C 322.81 297.67 302.77 284.92 284.41 287.38 M 408.28 292.14 C 392.54 334.90 380.88 378.94 366.00 421.96 C 372.59 422.10 379.18 422.09 385.77 421.94 C 389.66 412.72 391.03 402.40 395.26 393.21 C 411.44 392.61 427.68 393.12 443.88 393.07 C 446.69 402.76 449.97 412.30 453.31 421.85 C 459.40 421.39 468.59 423.54 473.02 420.96 C 460.19 377.92 445.84 335.18 432.62 292.17 C 424.51 291.82 416.39 291.86 408.28 292.14 Z" />
</g>
<g id="#5856548c">
<path fill="#585654" opacity="0.55" d=" M 643.02 137.75 C 648.73 140.45 653.86 144.38 658.42 148.73 C 652.66 146.18 647.30 142.36 643.02 137.75 Z" />
</g>
<g id="#5856558d">
<path fill="#585655" opacity="0.55" d=" M 705.06 177.78 C 711.25 180.52 717.67 183.01 723.34 186.76 C 716.67 185.28 710.21 182.28 705.06 177.78 Z" />
</g>
<g id="#5b595790">
<path fill="#5b5957" opacity="0.56" d=" M 799.04 208.89 C 809.52 210.06 819.68 213.08 830.24 213.85 C 819.65 214.07 809.03 212.39 799.04 208.89 Z" />
</g>
<g id="#51504e83">
<path fill="#51504e" opacity="0.51" d=" M 933.68 214.62 C 941.06 215.20 950.64 210.59 957.08 213.79 C 949.31 214.65 941.50 215.43 933.68 214.62 Z" />
<path fill="#51504e" opacity="0.51" d=" M 111.71 213.77 C 118.54 211.56 126.18 213.42 133.23 213.81 C 126.06 214.14 118.88 213.92 111.71 213.77 Z" />
</g>
<g id="#5956548e">
<path fill="#595654" opacity="0.56" d=" M 175.79 216.11 C 189.63 215.96 203.47 215.80 217.30 216.32 C 203.52 217.37 189.54 217.68 175.79 216.11 Z" />
</g>
<g id="#5654528a">
<path fill="#565452" opacity="0.54" d=" M 891.75 216.75 C 900.53 215.61 909.40 216.00 918.25 216.23 C 909.46 217.56 900.57 216.94 891.75 216.75 Z" />
</g>
<g id="#23231dff">
<path fill="#23231d" opacity="1.00" d=" M 938.48 237.55 C 946.81 233.69 950.48 243.79 954.79 248.09 C 941.33 256.01 927.76 263.75 914.40 271.82 C 681.76 407.72 449.10 543.58 216.66 679.82 C 206.95 684.87 197.84 690.97 188.25 696.25 C 185.79 674.39 183.02 651.24 183.24 630.09 C 188.94 626.22 195.22 623.31 200.98 619.55 C 210.08 613.86 219.53 608.74 228.55 602.92 C 317.42 549.87 406.11 496.40 495.08 443.49 C 495.86 452.30 484.89 450.75 479.94 454.92 C 476.42 459.92 472.44 463.58 471.64 469.45 C 472.80 472.75 479.14 470.09 478.52 466.61 C 478.37 460.00 486.67 465.95 490.40 462.47 C 495.53 461.46 493.69 466.77 491.21 468.88 C 493.27 471.19 496.02 473.03 499.13 473.51 C 504.66 467.63 512.08 480.16 518.01 472.08 C 526.34 480.98 523.03 468.72 527.69 463.71 C 530.93 459.02 531.96 467.37 534.90 468.99 C 529.13 473.92 536.51 477.03 536.22 482.81 C 544.14 483.39 530.63 472.20 539.96 472.37 C 543.21 475.09 551.87 467.65 550.87 474.72 C 547.72 479.75 544.27 471.25 541.13 476.28 C 540.06 481.35 547.22 481.72 550.15 479.19 C 556.11 475.03 566.29 475.69 568.97 468.34 C 556.27 470.93 563.05 462.41 569.61 460.47 C 577.66 468.34 586.13 458.75 593.85 455.82 C 601.02 446.19 615.64 446.49 622.66 437.54 C 646.15 428.48 664.91 412.39 687.38 401.39 C 694.12 390.31 709.39 393.58 716.48 382.59 C 717.94 379.42 720.66 378.87 723.74 379.60 C 732.97 368.16 750.23 367.42 757.89 353.80 C 766.75 354.14 773.99 348.79 779.74 342.63 C 780.64 338.42 771.64 338.14 774.82 332.93 C 774.88 327.40 771.07 331.96 771.56 335.17 C 768.53 330.58 768.69 324.86 775.52 324.51 C 777.58 319.72 782.74 314.96 786.31 321.51 C 790.90 321.51 795.77 316.78 788.21 315.68 C 781.54 313.67 794.58 303.78 782.98 306.85 C 779.21 304.26 786.80 295.82 789.89 301.15 C 794.70 305.36 795.86 293.66 790.26 296.19 C 784.32 301.61 783.44 290.07 787.84 287.93 C 780.44 280.69 792.16 280.47 796.95 277.08 C 792.87 274.38 791.51 269.73 791.76 264.92 C 797.88 261.14 804.30 257.89 810.38 254.03 C 818.94 249.08 827.08 243.41 835.94 238.97 C 869.76 240.21 904.46 242.63 938.48 237.55 Z" />
</g>
<g id="#bbb4aeff">
<path fill="#bbb4ae" opacity="1.00" d=" M 123.31 238.20 C 140.78 239.51 161.11 237.68 177.01 239.97 C 139.16 240.21 105.96 263.30 81.25 290.34 C 95.17 273.07 108.03 254.44 123.31 238.20 Z" />
</g>
<g id="#d2cbc3ff">
<path fill="#d2cbc3" opacity="1.00" d=" M 914.40 271.82 C 927.76 263.75 941.33 256.01 954.79 248.09 C 960.14 255.83 967.41 262.19 972.27 270.25 C 962.55 275.68 953.28 281.88 943.50 287.18 C 938.41 277.33 922.90 278.11 914.40 271.82 Z" />
</g>
<g id="#55535288">
<path fill="#555352" opacity="0.53" d=" M 60.88 278.00 C 67.33 268.02 74.95 258.66 83.15 250.04 C 76.62 259.92 69.62 269.96 60.88 278.00 Z" />
</g>
<g id="#2c2f27ff">
<path fill="#2c2f27" opacity="1.00" d=" M 780.47 271.94 C 784.30 269.71 787.99 267.28 791.76 264.92 C 791.51 269.73 792.87 274.38 796.95 277.08 C 792.16 280.47 780.44 280.69 787.84 287.93 C 783.44 290.07 784.32 301.61 790.26 296.19 C 795.86 293.66 794.70 305.36 789.89 301.15 C 786.80 295.82 779.21 304.26 782.98 306.85 C 794.58 303.78 781.54 313.67 788.21 315.68 C 795.77 316.78 790.90 321.51 786.31 321.51 C 782.74 314.96 777.58 319.72 775.52 324.51 C 768.69 324.86 768.53 330.58 771.56 335.17 C 771.07 331.96 774.88 327.40 774.82 332.93 C 771.64 338.14 780.64 338.42 779.74 342.63 C 773.99 348.79 766.75 354.14 757.89 353.80 C 750.23 367.42 732.97 368.16 723.74 379.60 C 720.66 378.87 717.94 379.42 716.48 382.59 C 709.39 393.58 694.12 390.31 687.38 401.39 C 664.91 412.39 646.15 428.48 622.66 437.54 C 615.64 446.49 601.02 446.19 593.85 455.82 C 586.13 458.75 577.66 468.34 569.61 460.47 C 563.05 462.41 556.27 470.93 568.97 468.34 C 566.29 475.69 556.11 475.03 550.15 479.19 C 547.22 481.72 540.06 481.35 541.13 476.28 C 544.27 471.25 547.72 479.75 550.87 474.72 C 551.87 467.65 543.21 475.09 539.96 472.37 C 530.63 472.20 544.14 483.39 536.22 482.81 C 536.51 477.03 529.13 473.92 534.90 468.99 C 531.96 467.37 530.93 459.02 527.69 463.71 C 523.03 468.72 526.34 480.98 518.01 472.08 C 512.08 480.16 504.66 467.63 499.13 473.51 C 496.02 473.03 493.27 471.19 491.21 468.88 C 493.69 466.77 495.53 461.46 490.40 462.47 C 486.67 465.95 478.37 460.00 478.52 466.61 C 479.14 470.09 472.80 472.75 471.64 469.45 C 472.44 463.58 476.42 459.92 479.94 454.92 C 484.89 450.75 495.86 452.30 495.08 443.49 C 590.14 386.19 685.06 328.63 780.47 271.94 Z" />
</g>
<g id="#7e251eff">
<path fill="#7e251e" opacity="1.00" d=" M 972.27 270.25 C 990.48 290.18 1007.70 313.30 1025.66 334.37 C 1026.74 336.73 1032.85 341.45 1027.92 342.89 C 985.98 356.73 943.21 377.38 919.30 416.30 C 910.66 427.00 906.49 440.94 906.08 454.09 C 901.94 456.61 897.83 459.18 893.45 461.25 C 891.38 459.44 887.01 456.85 889.68 453.76 C 899.30 454.22 895.44 443.39 896.45 437.61 C 902.62 435.32 903.03 427.66 902.41 422.45 C 906.17 413.61 916.62 412.17 917.51 401.67 C 916.48 393.10 932.51 397.32 927.41 388.51 C 929.76 379.01 941.52 383.83 946.27 375.31 C 945.22 363.92 960.86 364.42 967.14 357.13 C 973.95 354.85 971.25 348.32 978.82 346.84 C 979.19 340.76 990.45 333.28 982.41 329.43 C 981.07 319.22 982.11 307.78 975.73 299.29 C 969.54 296.33 959.18 299.85 955.44 292.61 C 952.14 281.09 943.98 297.46 940.56 289.02 C 941.53 288.40 942.51 287.79 943.50 287.18 C 953.28 281.88 962.55 275.68 972.27 270.25 Z" />
</g>
<g id="#f4ebe2ff">
<path fill="#f4ebe2" opacity="1.00" d=" M 216.66 679.82 C 449.10 543.58 681.76 407.72 914.40 271.82 C 922.90 278.11 938.41 277.33 943.50 287.18 C 942.51 287.79 941.53 288.40 940.56 289.02 C 914.05 304.64 887.43 320.07 861.00 335.82 C 832.17 352.73 803.20 369.42 774.60 386.70 C 679.55 442.13 584.79 498.06 489.84 553.66 C 447.81 578.33 405.87 603.15 363.78 627.71 C 317.84 654.72 271.92 681.74 225.92 708.63 C 224.34 709.46 222.80 710.34 221.24 711.20 C 217.74 701.13 220.62 689.87 216.66 679.82 Z" />
<path fill="#f4ebe2" opacity="1.00" d=" M 555.06 822.05 C 568.08 823.17 584.14 818.01 594.59 828.31 C 601.51 837.48 601.57 853.43 590.99 860.03 C 579.91 865.44 566.92 862.37 555.05 862.89 C 554.94 849.27 554.92 835.66 555.06 822.05 Z" />
</g>
<g id="#504f4d82">
<path fill="#504f4d" opacity="0.51" d=" M 1009.94 278.84 C 1016.95 286.28 1024.02 294.16 1029.19 302.99 C 1022.45 295.28 1015.12 287.72 1009.94 278.84 Z" />
</g>
<g id="#262425ff">
<path fill="#262425" opacity="1.00" d=" M 284.41 287.38 C 302.77 284.92 322.81 297.67 324.90 316.78 C 320.73 319.46 313.05 318.07 308.77 317.26 C 304.72 301.67 281.05 298.00 271.38 310.32 C 262.10 330.54 264.49 354.23 264.24 375.83 C 266.38 386.97 265.23 403.30 277.99 407.96 C 286.55 411.31 297.78 410.45 303.22 402.22 C 305.78 395.79 307.46 389.20 317.01 392.92 C 329.75 389.98 320.54 403.96 318.71 408.69 C 305.88 434.32 261.52 430.39 251.70 404.33 C 242.63 380.06 245.02 353.52 246.24 328.17 C 247.94 308.11 262.55 287.26 284.41 287.38 Z" />
</g>
<g id="#8d2821ff">
<path fill="#8d2821" opacity="1.00" d=" M 940.56 289.02 C 943.98 297.46 952.14 281.09 955.44 292.61 C 959.18 299.85 969.54 296.33 975.73 299.29 C 982.11 307.78 981.07 319.22 982.41 329.43 C 990.45 333.28 979.19 340.76 978.82 346.84 C 971.25 348.32 973.95 354.85 967.14 357.13 C 960.86 364.42 945.22 363.92 946.27 375.31 C 941.52 383.83 929.76 379.01 927.41 388.51 C 932.51 397.32 916.48 393.10 917.51 401.67 C 916.62 412.17 906.17 413.61 902.41 422.45 C 903.03 427.66 902.62 435.32 896.45 437.61 C 895.44 443.39 899.30 454.22 889.68 453.76 C 887.01 456.85 891.38 459.44 893.45 461.25 C 887.46 465.47 880.77 468.53 874.71 472.63 C 840.94 491.94 807.55 511.91 773.85 531.36 C 773.36 523.49 790.86 519.76 793.69 513.61 C 784.01 511.19 795.66 503.95 797.07 512.17 C 806.27 509.85 799.44 499.69 803.07 494.95 C 809.13 494.37 805.06 498.77 804.90 501.91 C 824.18 499.96 838.76 486.74 855.80 478.82 C 857.49 472.62 849.30 467.25 849.45 476.56 C 846.04 482.16 848.57 469.66 843.90 470.17 C 835.74 472.83 837.91 459.28 837.11 454.94 C 842.36 455.85 839.54 469.16 847.69 466.88 C 849.60 462.11 855.46 457.74 850.15 453.14 C 862.19 454.03 855.51 445.56 852.98 440.35 C 866.85 441.78 845.94 428.26 860.84 432.57 C 864.20 422.42 851.00 415.77 844.14 411.37 C 835.00 411.52 845.26 405.44 847.53 404.31 C 851.28 412.26 856.18 402.89 851.23 398.73 C 848.41 395.07 850.85 391.84 854.57 390.50 C 854.93 382.42 850.81 367.43 864.63 372.64 C 871.74 369.68 860.20 371.77 860.95 367.21 C 863.61 365.04 865.80 362.39 866.07 358.82 C 863.28 362.50 860.24 366.31 857.70 360.27 C 852.39 365.69 846.64 361.27 849.75 354.77 C 854.43 355.77 865.82 353.29 861.89 346.12 C 861.40 342.90 858.03 345.00 855.95 344.89 C 855.52 340.77 862.57 340.66 861.00 335.82 C 887.43 320.07 914.05 304.64 940.56 289.02 Z" />
</g>
<g id="#292727ff">
<path fill="#292727" opacity="1.00" d=" M 408.28 292.14 C 416.39 291.86 424.51 291.82 432.62 292.17 C 445.84 335.18 460.19 377.92 473.02 420.96 C 468.59 423.54 459.40 421.39 453.31 421.85 C 449.97 412.30 446.69 402.76 443.88 393.07 C 427.68 393.12 411.44 392.61 395.26 393.21 C 391.03 402.40 389.66 412.72 385.77 421.94 C 379.18 422.09 372.59 422.10 366.00 421.96 C 380.88 378.94 392.54 334.90 408.28 292.14 M 419.28 310.10 C 413.23 333.14 406.34 355.97 400.01 378.93 C 413.00 379.08 426.07 379.50 439.00 377.84 C 436.55 364.70 431.68 351.89 428.02 339.00 C 424.72 330.19 424.80 316.37 419.28 310.10 Z" />
</g>
<g id="#5655548a">
<path fill="#565554" opacity="0.54" d=" M 1033.22 307.72 C 1040.17 314.91 1046.62 322.63 1052.30 330.88 C 1044.64 324.54 1038.67 315.97 1033.22 307.72 Z" />
</g>
<g id="#f4ebe3ff">
<path fill="#f4ebe3" opacity="1.00" d=" M 419.28 310.10 C 424.80 316.37 424.72 330.19 428.02 339.00 C 431.68 351.89 436.55 364.70 439.00 377.84 C 426.07 379.50 413.00 379.08 400.01 378.93 C 406.34 355.97 413.23 333.14 419.28 310.10 Z" />
<path fill="#f4ebe3" opacity="1.00" d=" M 706.09 823.06 C 719.00 824.01 736.60 819.08 745.66 831.32 C 749.90 840.46 749.58 852.35 743.91 860.90 C 732.92 868.83 718.61 865.36 706.05 865.92 C 706.01 851.63 705.82 837.33 706.09 823.06 Z" />
</g>
<g id="#5755538b">
<path fill="#575553" opacity="0.55" d=" M 9.99 340.15 C 13.74 333.13 19.21 327.22 25.03 321.88 C 21.36 328.77 15.63 334.87 9.99 340.15 Z" />
</g>
<g id="#962b24ff">
<path fill="#962b24" opacity="1.00" d=" M 774.60 386.70 C 803.20 369.42 832.17 352.73 861.00 335.82 C 862.57 340.66 855.52 340.77 855.95 344.89 C 858.03 345.00 861.40 342.90 861.89 346.12 C 865.82 353.29 854.43 355.77 849.75 354.77 C 846.64 361.27 852.39 365.69 857.70 360.27 C 860.24 366.31 863.28 362.50 866.07 358.82 C 865.80 362.39 863.61 365.04 860.95 367.21 C 860.20 371.77 871.74 369.68 864.63 372.64 C 850.81 367.43 854.93 382.42 854.57 390.50 C 850.85 391.84 848.41 395.07 851.23 398.73 C 856.18 402.89 851.28 412.26 847.53 404.31 C 845.26 405.44 835.00 411.52 844.14 411.37 C 851.00 415.77 864.20 422.42 860.84 432.57 C 845.94 428.26 866.85 441.78 852.98 440.35 C 855.51 445.56 862.19 454.03 850.15 453.14 C 855.46 457.74 849.60 462.11 847.69 466.88 C 839.54 469.16 842.36 455.85 837.11 454.94 C 837.91 459.28 835.74 472.83 843.90 470.17 C 848.57 469.66 846.04 482.16 849.45 476.56 C 849.30 467.25 857.49 472.62 855.80 478.82 C 838.76 486.74 824.18 499.96 804.90 501.91 C 805.06 498.77 809.13 494.37 803.07 494.95 C 799.44 499.69 806.27 509.85 797.07 512.17 C 795.66 503.95 784.01 511.19 793.69 513.61 C 790.86 519.76 773.36 523.49 773.85 531.36 C 694.07 578.11 614.20 624.70 534.39 671.41 C 529.31 667.71 534.99 665.51 538.25 663.07 C 532.52 655.03 526.54 667.69 523.09 672.08 C 519.11 679.19 515.97 669.41 519.95 665.97 C 525.83 661.59 531.75 656.00 539.27 655.23 C 544.97 649.76 532.19 651.73 536.22 648.32 C 540.95 650.75 545.78 646.76 547.82 642.53 C 552.37 641.23 562.82 640.12 557.99 633.90 C 561.25 634.86 565.26 636.83 561.83 632.14 C 557.51 629.15 553.61 638.01 548.06 634.19 C 547.86 648.71 538.86 629.36 533.61 635.59 C 530.69 638.98 525.34 638.76 523.15 643.14 C 518.50 650.17 515.59 635.42 510.52 641.52 C 507.43 646.34 510.01 653.12 513.74 657.22 C 512.21 660.09 510.15 666.38 506.10 663.08 C 507.26 660.32 512.93 654.36 504.25 657.00 C 500.47 652.04 507.65 651.00 502.71 644.37 C 501.33 637.31 490.33 638.82 490.38 646.37 C 489.69 651.65 485.84 647.04 484.02 644.90 C 479.46 640.32 476.22 656.27 472.93 648.97 C 477.08 645.57 472.91 637.18 468.35 641.54 C 462.87 642.17 463.42 623.37 458.00 631.09 C 457.99 634.46 461.02 638.27 457.72 640.93 C 454.73 647.90 465.29 651.77 470.13 647.95 C 464.95 652.88 463.16 657.52 463.85 663.80 C 447.28 673.07 468.52 651.55 454.16 653.77 C 449.81 653.34 451.18 643.34 446.02 645.91 C 444.46 649.87 443.73 663.44 438.18 659.71 C 439.13 656.30 443.06 645.24 435.83 649.96 C 431.40 646.68 438.45 637.94 430.45 636.49 C 432.77 628.60 423.39 634.78 418.31 633.27 C 416.57 636.85 415.09 643.68 409.99 639.96 C 404.90 637.11 404.84 644.84 403.77 648.11 C 399.54 645.72 407.55 639.65 401.60 637.39 C 396.11 633.00 407.57 636.23 405.82 632.34 C 403.89 628.58 399.83 635.19 398.14 630.87 C 396.04 628.20 390.49 616.73 390.71 627.81 C 390.69 633.17 384.66 629.52 381.35 630.17 C 384.16 634.24 373.27 646.17 376.59 636.60 C 379.10 630.49 371.10 633.40 368.79 636.20 C 367.18 633.32 366.33 629.96 363.78 627.71 C 405.87 603.15 447.81 578.33 489.84 553.66 C 496.56 552.53 497.76 564.62 491.47 560.47 C 484.08 557.96 494.37 571.16 486.76 568.30 C 483.76 562.35 472.89 570.60 480.95 571.86 C 487.70 568.14 491.41 576.26 497.78 574.38 C 504.26 576.57 494.79 586.03 502.86 583.98 C 501.00 579.31 506.31 576.72 504.00 572.01 C 511.15 569.38 510.88 581.06 518.36 578.60 C 522.07 577.28 536.89 576.34 528.91 570.07 C 520.06 568.90 521.59 559.29 526.91 567.02 C 532.79 558.14 535.68 575.25 540.80 571.83 C 541.76 563.20 550.79 560.53 557.85 565.13 C 558.99 572.89 567.25 577.15 574.45 577.17 C 574.64 580.30 573.67 583.88 575.95 586.50 C 582.10 581.36 575.07 572.01 585.94 571.86 C 590.18 572.91 595.40 586.57 595.57 575.63 C 607.46 579.90 601.83 562.45 610.88 562.98 C 614.35 563.71 613.64 566.64 612.22 568.98 C 618.02 569.04 626.05 564.71 629.73 570.86 C 625.92 575.62 623.34 592.78 631.83 582.39 C 626.89 581.17 629.93 574.03 633.84 577.11 C 642.04 580.02 629.05 568.11 635.28 565.12 C 641.75 563.58 637.24 575.28 643.05 575.03 C 642.84 568.00 635.61 561.33 642.93 556.01 C 635.79 549.09 648.40 539.37 648.83 551.25 C 651.59 555.53 651.66 549.57 651.18 547.27 C 653.44 544.18 657.02 545.33 659.91 546.67 C 666.00 539.92 667.64 526.81 679.43 528.73 C 678.38 516.51 683.92 527.24 688.71 524.04 C 683.82 515.55 696.87 511.90 702.78 515.75 C 704.80 511.22 701.03 501.93 708.40 500.38 C 709.24 491.56 717.28 496.50 721.08 501.15 C 727.59 500.65 718.29 494.75 723.98 492.61 C 726.56 497.50 732.78 498.38 737.72 498.84 C 742.63 493.02 730.31 492.43 728.56 488.50 C 732.99 490.63 737.70 486.65 732.76 483.23 C 725.87 476.34 743.57 476.40 740.46 484.02 C 743.92 481.61 754.06 483.09 750.93 477.06 C 745.02 470.28 759.63 470.28 761.06 464.29 C 747.71 466.99 764.26 449.62 754.02 444.77 C 758.64 445.60 762.51 448.35 765.99 451.00 C 767.73 446.44 765.77 437.88 766.02 431.99 C 775.17 429.40 771.00 437.59 769.09 441.34 C 775.10 439.05 772.46 431.45 773.05 427.10 C 779.76 435.77 782.48 416.87 773.03 419.64 C 772.56 414.34 779.92 411.58 783.15 412.73 C 782.75 425.37 791.65 417.68 787.07 409.95 C 792.17 405.34 797.02 422.69 802.95 413.95 C 798.90 411.36 793.41 406.85 789.49 402.26 C 788.14 406.56 786.17 399.13 786.34 398.55 C 784.38 392.50 774.33 394.62 774.60 386.70 Z" />
</g>
<g id="#5655538a">
<path fill="#565553" opacity="0.54" d=" M 1061.09 341.87 C 1065.05 345.77 1068.57 350.11 1072.00 354.49 L 1072.00 357.06 C 1071.18 356.70 1070.37 356.35 1069.57 356.02 C 1069.01 350.37 1063.04 347.04 1061.09 341.87 Z" />
<path fill="#565553" opacity="0.54" d=" M 166.12 698.83 C 168.12 707.04 167.77 715.61 168.00 724.00 C 165.50 715.91 166.45 707.16 166.12 698.83 Z" />
<path fill="#565553" opacity="0.54" d=" M 206.95 913.98 C 222.37 938.25 239.56 962.13 261.02 981.16 C 237.86 963.74 220.22 939.47 206.95 913.98 Z" />
</g>
<g id="#4d4c4b7e">
<path fill="#4d4c4b" opacity="0.49" d=" M 0.00 351.29 C 1.89 349.16 3.21 346.30 5.86 345.00 C 1.48 349.53 3.51 353.61 9.36 354.71 C 6.08 354.45 2.94 353.42 0.00 351.96 L 0.00 351.29 Z" />
<path fill="#4d4c4b" opacity="0.49" d=" M 178.96 833.94 C 182.66 841.77 182.93 850.76 184.97 859.09 C 181.91 851.00 180.03 842.50 178.96 833.94 Z" />
</g>
<g id="#504e4d82">
<path fill="#504e4d" opacity="0.51" d=" M 24.78 359.14 C 30.80 359.46 36.86 361.06 42.10 364.07 C 36.14 363.19 30.53 360.82 24.78 359.14 Z" />
</g>
<g id="#4d4c4a7e">
<path fill="#4d4c4a" opacity="0.49" d=" M 971.81 393.78 C 977.81 388.68 984.59 384.43 992.20 382.16 C 985.58 386.36 978.82 390.31 971.81 393.78 Z" />
</g>
<g id="#9d3028ff">
<path fill="#9d3028" opacity="1.00" d=" M 489.84 553.66 C 584.79 498.06 679.55 442.13 774.60 386.70 C 774.33 394.62 784.38 392.50 786.34 398.55 C 786.17 399.13 788.14 406.56 789.49 402.26 C 793.41 406.85 798.90 411.36 802.95 413.95 C 797.02 422.69 792.17 405.34 787.07 409.95 C 791.65 417.68 782.75 425.37 783.15 412.73 C 779.92 411.58 772.56 414.34 773.03 419.64 C 782.48 416.87 779.76 435.77 773.05 427.10 C 772.46 431.45 775.10 439.05 769.09 441.34 C 771.00 437.59 775.17 429.40 766.02 431.99 C 765.77 437.88 767.73 446.44 765.99 451.00 C 762.51 448.35 758.64 445.60 754.02 444.77 C 764.26 449.62 747.71 466.99 761.06 464.29 C 759.63 470.28 745.02 470.28 750.93 477.06 C 754.06 483.09 743.92 481.61 740.46 484.02 C 743.57 476.40 725.87 476.34 732.76 483.23 C 737.70 486.65 732.99 490.63 728.56 488.50 C 730.31 492.43 742.63 493.02 737.72 498.84 C 732.78 498.38 726.56 497.50 723.98 492.61 C 718.29 494.75 727.59 500.65 721.08 501.15 C 717.28 496.50 709.24 491.56 708.40 500.38 C 701.03 501.93 704.80 511.22 702.78 515.75 C 696.87 511.90 683.82 515.55 688.71 524.04 C 683.92 527.24 678.38 516.51 679.43 528.73 C 667.64 526.81 666.00 539.92 659.91 546.67 C 657.02 545.33 653.44 544.18 651.18 547.27 C 651.66 549.57 651.59 555.53 648.83 551.25 C 648.40 539.37 635.79 549.09 642.93 556.01 C 635.61 561.33 642.84 568.00 643.05 575.03 C 637.24 575.28 641.75 563.58 635.28 565.12 C 629.05 568.11 642.04 580.02 633.84 577.11 C 629.93 574.03 626.89 581.17 631.83 582.39 C 623.34 592.78 625.92 575.62 629.73 570.86 C 626.05 564.71 618.02 569.04 612.22 568.98 C 613.64 566.64 614.35 563.71 610.88 562.98 C 601.83 562.45 607.46 579.90 595.57 575.63 C 595.40 586.57 590.18 572.91 585.94 571.86 C 575.07 572.01 582.10 581.36 575.95 586.50 C 573.67 583.88 574.64 580.30 574.45 577.17 C 567.25 577.15 558.99 572.89 557.85 565.13 C 550.79 560.53 541.76 563.20 540.80 571.83 C 535.68 575.25 532.79 558.14 526.91 567.02 C 521.59 559.29 520.06 568.90 528.91 570.07 C 536.89 576.34 522.07 577.28 518.36 578.60 C 510.88 581.06 511.15 569.38 504.00 572.01 C 506.31 576.72 501.00 579.31 502.86 583.98 C 494.79 586.03 504.26 576.57 497.78 574.38 C 491.41 576.26 487.70 568.14 480.95 571.86 C 472.89 570.60 483.76 562.35 486.76 568.30 C 494.37 571.16 484.08 557.96 491.47 560.47 C 497.76 564.62 496.56 552.53 489.84 553.66 Z" />
</g>
<g id="#4a49477a">
<path fill="#4a4947" opacity="0.48" d=" M 137.88 429.05 C 143.53 433.04 146.42 440.49 144.70 447.30 C 144.22 440.61 142.06 434.37 137.88 429.05 Z" />
</g>
<g id="#dbd4ccff">
<path fill="#dbd4cc" opacity="1.00" d=" M 893.45 461.25 C 897.83 459.18 901.94 456.61 906.08 454.09 C 904.42 465.60 906.95 479.67 901.77 489.67 C 891.63 495.65 881.41 501.49 871.15 507.27 C 870.82 495.68 877.68 484.03 874.71 472.63 C 880.77 468.53 887.46 465.47 893.45 461.25 Z" />
</g>
<g id="#f4ece3ff">
<path fill="#f4ece3" opacity="1.00" d=" M 773.85 531.36 C 807.55 511.91 840.94 491.94 874.71 472.63 C 877.68 484.03 870.82 495.68 871.15 507.27 C 663.62 629.45 455.75 751.04 248.19 873.18 C 242.58 864.88 240.97 854.41 238.10 844.88 C 262.31 830.17 286.99 816.27 311.29 801.71 C 385.76 758.47 460.01 714.81 534.39 671.41 C 614.20 624.70 694.07 578.11 773.85 531.36 Z" />
</g>
<g id="#1c1e1aff">
<path fill="#1c1e1a" opacity="1.00" d=" M 871.15 507.27 C 881.41 501.49 891.63 495.65 901.77 489.67 C 903.41 510.60 898.55 534.71 897.95 556.96 C 891.92 560.56 885.86 564.09 879.90 567.81 C 870.48 573.26 861.28 579.10 851.85 584.53 C 665.71 695.62 479.24 806.16 292.94 916.98 C 285.03 921.85 276.87 926.32 268.93 931.14 C 263.96 934.12 258.94 937.05 254.08 940.20 C 243.53 934.47 239.11 920.33 230.72 911.29 C 226.80 904.28 221.42 897.82 219.22 890.01 C 228.60 883.93 238.61 878.91 248.19 873.18 C 455.75 751.04 663.62 629.45 871.15 507.27 Z" />
</g>
<g id="#d1cac2ff">
<path fill="#d1cac2" opacity="1.00" d=" M 879.90 567.81 C 885.86 564.09 891.92 560.56 897.95 556.96 C 891.24 630.62 885.10 704.39 877.87 777.95 C 873.58 811.12 869.61 844.57 860.91 876.90 C 842.47 926.24 806.71 969.65 758.97 992.94 C 708.65 1018.12 652.28 1030.97 605.80 1063.77 C 579.47 1079.99 556.33 1100.40 534.28 1121.86 C 490.24 1073.11 432.53 1039.03 371.79 1015.29 C 328.05 999.12 281.66 979.75 253.09 941.14 C 253.34 940.90 253.83 940.43 254.08 940.20 C 258.94 937.05 263.96 934.12 268.93 931.14 C 304.63 974.61 358.65 994.65 408.00 1018.00 C 429.88 1028.09 450.57 1040.48 471.25 1052.79 C 489.49 1064.82 507.33 1079.67 529.49 1083.48 C 553.36 1087.82 574.80 1074.26 593.95 1062.00 C 635.38 1032.83 682.50 1014.08 728.43 993.49 C 775.87 973.69 817.33 937.72 838.00 890.00 C 865.08 827.43 863.80 757.75 871.22 691.18 C 874.82 651.48 877.99 611.75 881.70 572.08 C 881.45 570.53 880.53 569.20 879.90 567.81 Z" />
</g>
<g id="#e5ddd5ff">
<path fill="#e5ddd5" opacity="1.00" d=" M 851.85 584.53 C 861.28 579.10 870.48 573.26 879.90 567.81 C 880.53 569.20 881.45 570.53 881.70 572.08 C 877.99 611.75 874.82 651.48 871.22 691.18 C 863.80 757.75 865.08 827.43 838.00 890.00 C 817.33 937.72 775.87 973.69 728.43 993.49 C 682.50 1014.08 635.38 1032.83 593.95 1062.00 C 574.80 1074.26 553.36 1087.82 529.49 1083.48 C 507.33 1079.67 489.49 1064.82 471.25 1052.79 C 450.57 1040.48 429.88 1028.09 408.00 1018.00 C 358.65 994.65 304.63 974.61 268.93 931.14 C 276.87 926.32 285.03 921.85 292.94 916.98 C 291.78 919.40 292.31 921.91 294.41 923.61 C 321.23 951.43 356.36 967.73 391.33 982.73 C 396.08 988.06 404.10 988.17 410.95 991.08 C 443.71 1006.63 476.09 1024.03 504.90 1045.09 C 511.86 1048.60 520.19 1049.50 525.95 1055.18 C 551.38 1060.81 573.97 1044.32 594.14 1031.29 C 612.85 1022.06 629.05 1009.90 648.37 1001.35 C 652.83 1000.29 656.65 994.02 661.17 997.76 C 673.99 988.47 691.55 982.24 707.17 976.16 C 739.60 963.65 770.67 944.44 793.73 917.73 C 817.30 886.61 828.66 848.24 834.08 810.23 C 842.93 738.36 847.33 665.49 855.03 594.01 C 855.87 590.51 857.48 584.32 851.85 584.53 Z" />
</g>
<g id="#f5ece3ff">
<path fill="#f5ece3" opacity="1.00" d=" M 292.94 916.98 C 479.24 806.16 665.71 695.62 851.85 584.53 C 857.48 584.32 855.87 590.51 855.03 594.01 C 847.33 665.49 842.93 738.36 834.08 810.23 C 828.66 848.24 817.30 886.61 793.73 917.73 C 770.67 944.44 739.60 963.65 707.17 976.16 C 691.55 982.24 673.99 988.47 661.17 997.76 C 656.65 994.02 652.83 1000.29 648.37 1001.35 C 629.05 1009.90 612.85 1022.06 594.14 1031.29 C 573.97 1044.32 551.38 1060.81 525.95 1055.18 C 520.19 1049.50 511.86 1048.60 504.90 1045.09 C 476.09 1024.03 443.71 1006.63 410.95 991.08 C 404.10 988.17 396.08 988.06 391.33 982.73 C 356.36 967.73 321.23 951.43 294.41 923.61 C 292.31 921.91 291.78 919.40 292.94 916.98 M 537.01 807.08 C 535.19 847.17 535.42 894.89 537.00 934.92 C 539.54 940.28 549.90 935.97 554.33 936.34 C 556.08 918.08 554.36 898.71 555.05 880.06 C 561.92 879.85 568.81 879.84 575.70 880.14 C 587.35 898.20 596.90 917.63 608.25 935.89 C 614.39 932.99 632.39 940.86 625.92 930.09 C 615.34 912.04 604.06 894.34 594.05 876.00 C 606.64 871.01 616.25 857.44 618.73 843.69 C 620.80 825.04 606.47 806.66 587.48 805.40 C 571.22 805.72 551.18 802.37 537.01 807.08 M 688.00 806.02 C 686.33 847.01 686.33 895.01 688.00 935.97 C 691.15 938.51 701.72 937.61 705.85 935.75 C 706.38 918.20 705.69 900.61 706.06 883.06 C 723.38 882.65 743.34 885.68 757.81 873.73 C 776.10 854.57 772.39 811.86 742.01 806.98 C 724.59 802.93 704.14 804.96 688.00 806.02 Z" />
</g>
<g id="#45454373">
<path fill="#454543" opacity="0.45" d=" M 913.13 632.21 C 913.10 624.36 913.67 616.54 914.83 608.78 C 914.91 616.63 914.35 624.46 913.13 632.21 Z" />
</g>
<g id="#8f2721ff">
<path fill="#8f2721" opacity="1.00" d=" M 390.71 627.81 C 390.49 616.73 396.04 628.20 398.14 630.87 C 399.83 635.19 403.89 628.58 405.82 632.34 C 407.57 636.23 396.11 633.00 401.60 637.39 C 407.55 639.65 399.54 645.72 403.77 648.11 C 404.84 644.84 404.90 637.11 409.99 639.96 C 415.09 643.68 416.57 636.85 418.31 633.27 C 423.39 634.78 432.77 628.60 430.45 636.49 C 438.45 637.94 431.40 646.68 435.83 649.96 C 443.06 645.24 439.13 656.30 438.18 659.71 C 443.73 663.44 444.46 649.87 446.02 645.91 C 451.18 643.34 449.81 653.34 454.16 653.77 C 468.52 651.55 447.28 673.07 463.85 663.80 C 463.16 657.52 464.95 652.88 470.13 647.95 C 465.29 651.77 454.73 647.90 457.72 640.93 C 461.02 638.27 457.99 634.46 458.00 631.09 C 463.42 623.37 462.87 642.17 468.35 641.54 C 472.91 637.18 477.08 645.57 472.93 648.97 C 476.22 656.27 479.46 640.32 484.02 644.90 C 485.84 647.04 489.69 651.65 490.38 646.37 C 490.33 638.82 501.33 637.31 502.71 644.37 C 507.65 651.00 500.47 652.04 504.25 657.00 C 512.93 654.36 507.26 660.32 506.10 663.08 C 510.15 666.38 512.21 660.09 513.74 657.22 C 510.01 653.12 507.43 646.34 510.52 641.52 C 515.59 635.42 518.50 650.17 523.15 643.14 C 525.34 638.76 530.69 638.98 533.61 635.59 C 538.86 629.36 547.86 648.71 548.06 634.19 C 553.61 638.01 557.51 629.15 561.83 632.14 C 565.26 636.83 561.25 634.86 557.99 633.90 C 562.82 640.12 552.37 641.23 547.82 642.53 C 545.78 646.76 540.95 650.75 536.22 648.32 C 532.19 651.73 544.97 649.76 539.27 655.23 C 531.75 656.00 525.83 661.59 519.95 665.97 C 515.97 669.41 519.11 679.19 523.09 672.08 C 526.54 667.69 532.52 655.03 538.25 663.07 C 534.99 665.51 529.31 667.71 534.39 671.41 C 460.01 714.81 385.76 758.47 311.29 801.71 C 293.69 804.29 278.14 817.71 263.30 827.21 C 255.30 826.93 249.49 831.94 245.81 838.30 C 245.12 830.67 241.00 837.96 237.00 838.11 C 241.98 830.13 231.88 820.92 238.48 813.51 C 238.68 807.98 234.19 818.60 231.71 815.33 C 226.12 807.28 227.07 796.81 222.87 788.20 C 213.96 784.63 228.00 776.13 220.48 771.49 C 214.27 767.47 227.55 761.79 219.85 760.66 C 216.17 761.45 213.71 760.66 215.38 756.49 C 212.90 749.27 223.40 753.29 221.64 747.42 C 212.40 741.76 223.55 728.22 214.84 723.86 C 216.77 718.33 233.02 714.93 225.92 708.63 C 271.92 681.74 317.84 654.72 363.78 627.71 C 366.33 629.96 367.18 633.32 368.79 636.20 C 371.10 633.40 379.10 630.49 376.59 636.60 C 373.27 646.17 384.16 634.24 381.35 630.17 C 384.66 629.52 390.69 633.17 390.71 627.81 Z" />
</g>
<g id="#d4cdc5ff">
<path fill="#d4cdc5" opacity="1.00" d=" M 188.25 696.25 C 197.84 690.97 206.95 684.87 216.66 679.82 C 220.62 689.87 217.74 701.13 221.24 711.20 C 211.10 717.05 201.26 723.43 191.02 729.11 C 189.85 719.58 188.86 707.04 188.25 696.25 Z" />
</g>
<g id="#7f2520ff">
<path fill="#7f2520" opacity="1.00" d=" M 221.24 711.20 C 222.80 710.34 224.34 709.46 225.92 708.63 C 233.02 714.93 216.77 718.33 214.84 723.86 C 223.55 728.22 212.40 741.76 221.64 747.42 C 223.40 753.29 212.90 749.27 215.38 756.49 C 213.71 760.66 216.17 761.45 219.85 760.66 C 227.55 761.79 214.27 767.47 220.48 771.49 C 228.00 776.13 213.96 784.63 222.87 788.20 C 227.07 796.81 226.12 807.28 231.71 815.33 C 234.19 818.60 238.68 807.98 238.48 813.51 C 231.88 820.92 241.98 830.13 237.00 838.11 C 241.00 837.96 245.12 830.67 245.81 838.30 C 249.49 831.94 255.30 826.93 263.30 827.21 C 278.14 817.71 293.69 804.29 311.29 801.71 C 286.99 816.27 262.31 830.17 238.10 844.88 C 228.62 850.14 219.40 855.85 209.99 861.22 C 194.14 819.61 195.47 773.14 191.02 729.11 C 201.26 723.43 211.10 717.05 221.24 711.20 Z" />
</g>
<g id="#514f4e83">
<path fill="#514f4e" opacity="0.51" d=" M 168.00 724.00 C 170.41 735.48 170.40 747.49 170.79 759.23 C 168.92 747.58 167.91 735.80 168.00 724.00 Z" />
</g>
<g id="#262424ff">
<path fill="#262424" opacity="1.00" d=" M 537.01 807.08 C 551.18 802.37 571.22 805.72 587.48 805.40 C 606.47 806.66 620.80 825.04 618.73 843.69 C 616.25 857.44 606.64 871.01 594.05 876.00 C 604.06 894.34 615.34 912.04 625.92 930.09 C 632.39 940.86 614.39 932.99 608.25 935.89 C 596.90 917.63 587.35 898.20 575.70 880.14 C 568.81 879.84 561.92 879.85 555.05 880.06 C 554.36 898.71 556.08 918.08 554.33 936.34 C 549.90 935.97 539.54 940.28 537.00 934.92 C 537.00 892.31 536.98 849.69 537.01 807.08 M 555.06 822.05 C 554.92 835.66 554.94 849.27 555.05 862.89 C 566.92 862.37 579.91 865.44 590.99 860.03 C 601.57 853.43 601.51 837.48 594.59 828.31 C 584.14 818.01 568.08 823.17 555.06 822.05 Z" />
</g>
<g id="#252424ff">
<path fill="#252424" opacity="1.00" d=" M 688.00 806.02 C 704.14 804.96 724.59 802.93 742.01 806.98 C 772.39 811.86 776.10 854.57 757.81 873.73 C 743.34 885.68 723.38 882.65 706.06 883.06 C 705.69 900.61 706.38 918.20 705.85 935.75 C 701.72 937.61 691.15 938.51 688.00 935.97 C 688.00 892.65 688.00 849.33 688.00 806.02 M 706.09 823.06 C 705.82 837.33 706.01 851.63 706.05 865.92 C 718.61 865.36 732.92 868.83 743.91 860.90 C 749.58 852.35 749.90 840.46 745.66 831.32 C 736.60 819.08 719.00 824.01 706.09 823.06 Z" />
</g>
<g id="#8c8783ff">
<path fill="#8c8783" opacity="1.00" d=" M 688.00 935.97 C 686.33 895.01 686.33 847.01 688.00 806.02 C 688.00 849.33 688.00 892.65 688.00 935.97 Z" />
</g>
<g id="#beb9b5ff">
<path fill="#beb9b5" opacity="1.00" d=" M 537.00 934.92 C 535.42 894.89 535.19 847.17 537.01 807.08 C 536.98 849.69 537.00 892.31 537.00 934.92 Z" />
</g>
<g id="#53515086">
<path fill="#535150" opacity="0.53" d=" M 176.20 813.73 C 178.17 820.30 178.41 827.15 178.96 833.94 C 176.44 827.51 176.22 820.53 176.20 813.73 Z" />
</g>
<g id="#d4ccc4ff">
<path fill="#d4ccc4" opacity="1.00" d=" M 209.99 861.22 C 219.40 855.85 228.62 850.14 238.10 844.88 C 240.97 854.41 242.58 864.88 248.19 873.18 C 238.61 878.91 228.60 883.93 219.22 890.01 C 216.16 880.43 211.42 871.15 209.99 861.22 Z" />
</g>
<g id="#4f4e4c80">
<path fill="#4f4e4c" opacity="0.50" d=" M 265.65 985.28 C 272.60 989.07 279.53 993.39 284.98 999.21 C 277.75 995.88 271.72 990.31 265.65 985.28 Z" />
</g>
<g id="#5856558c">
<path fill="#585655" opacity="0.55" d=" M 397.71 1051.18 C 405.77 1053.16 412.97 1057.63 419.95 1061.98 C 412.25 1059.10 404.60 1055.69 397.71 1051.18 Z" />
</g>
<g id="#5857558c">
<path fill="#585755" opacity="0.55" d=" M 419.95 1061.98 C 437.08 1070.24 453.36 1080.82 467.95 1092.99 C 452.36 1082.11 435.32 1072.72 419.95 1061.98 Z" />
</g>
<g id="#504e4d81">
<path fill="#504e4d" opacity="0.51" d=" M 475.13 1097.71 C 484.38 1103.57 492.59 1111.21 499.77 1119.38 C 490.76 1113.16 482.91 1105.28 475.13 1097.71 Z" />
</g>
<g id="#53525085">
<path fill="#535250" opacity="0.52" d=" M 567.07 1124.22 C 571.68 1118.48 576.65 1112.78 583.06 1108.99 C 578.14 1114.47 573.21 1120.06 567.07 1124.22 Z" />
</g>
<g id="#54535287">
<path fill="#545352" opacity="0.53" d=" M 530.52 1153.61 C 537.88 1154.23 540.28 1143.92 547.09 1142.02 C 542.90 1146.93 538.12 1151.28 533.72 1156.00 L 532.26 1156.00 C 531.68 1155.19 531.10 1154.39 530.52 1153.61 Z" />
</g>
</svg>
