<?xml version="1.0" encoding="utf-8"?>
<!-- Generator: Adobe Illustrator 13.0.2, SVG Export Plug-In . SVG Version: 6.00 Build 14948)  -->
<!DOCTYPE svg PUBLIC "-//W3C//DTD SVG 1.0//EN" "http://www.w3.org/TR/2001/REC-SVG-20010904/DTD/svg10.dtd">
<svg version="1.0" id="Ebene_1" xmlns="http://www.w3.org/2000/svg" xmlns:xlink="http://www.w3.org/1999/xlink" x="0px" y="0px"
	 width="282.344px" height="362.061px" viewBox="0 0 282.344 362.061" enable-background="new 0 0 282.344 362.061"
	 xml:space="preserve">
<path fill-rule="evenodd" clip-rule="evenodd" fill="#E32219" d="M141.396,359.85L139.302,2.407
	c9.336-0.089,20.152,4.529,31.555,18.658l98.689,174.546c0,0,23.752,30.383,0,54.133l-88.01,88.01
	C181.536,337.754,167.911,355.676,141.396,359.85L141.396,359.85z"/>
<path fill-rule="evenodd" clip-rule="evenodd" fill="#2160A5" d="M141.396,359.85c0,0-18.78-0.369-40.507-22.096l-88.011-88.01
	c0,0-23.937-20.254,0-54.133l95.376-174.546c0,0,13.609-19.892,33.142-18.597V359.85L141.396,359.85z"/>
<path d="M271.399,194.409c1.68,2.221,23.945,32.662-0.291,56.898l-88.01,88.01c-0.826,0.855-18.059,18.494-41.313,22.699
	l-0.389-2.166l-0.061,2.211c-0.057-0.002-19.655-0.391-42.009-22.744l-88.01-88.01l0.002-0.002
	c-1.826-1.627-24.341-22.771-0.298-56.885l95.3-174.408l1.934,1.053l-1.813-1.269c0.089-0.126,30.386-44.405,66.133-0.112
	l-1.719,1.381l1.924-1.079L271.399,194.409L271.399,194.409z M267.983,248.184c22.371-22.371-0.127-51.15-0.189-51.232l1.752-1.34
	l-1.924,1.08L169.024,22.31c-31.729-39.145-58.483-0.661-58.947,0.009L14.812,196.667l-1.933-1.055l1.804,1.27
	c-22.777,32.24-0.425,51.143-0.362,51.199l-1.441,1.664l1.563-1.561l88.012,88.01c19.905,19.906,36.92,21.338,38.825,21.439
	c22.211-4.135,38.613-21.355,38.66-21.406l1.598,1.527l-1.563-1.561L267.983,248.184L267.983,248.184z"/>
<path fill-rule="evenodd" clip-rule="evenodd" fill="#FFE75C" stroke="#000000" stroke-width="0.3674" stroke-miterlimit="2.6131" d="
	M141.368,2.467c0,0-2.549,14.424-19.611,29.4c0,0-17.676,15.712-17.676,23.076c0,0-2.701,21.357,18.167,42.225h31.421
	c0,0,20.623-9.33,23.08-23.076c0,0,5.154-15.465-5.893-23.567c0,0-1.289-3.682-15.223,4.419
	C155.634,54.943,151.696,12.795,141.368,2.467L141.368,2.467z"/>
<path fill-rule="evenodd" clip-rule="evenodd" fill="#FFE75C" stroke="#000000" stroke-width="0.3674" stroke-miterlimit="2.6131" d="
	M122.248,97.168c0,0-6.138-0.245-6.138,3.192c0,2.946,1.474,3.929,6.138,3.929s40.751,0,40.751,0s2.945-0.001,2.945-2.702
	c0,0,1.23-4.419-3.682-4.419H122.248L122.248,97.168z"/>
<path fill-rule="evenodd" clip-rule="evenodd" fill="#FFE75C" stroke="#000000" stroke-width="0.3674" stroke-miterlimit="2.6131" d="
	M126.227,104.331c0,0-5.069-0.243-5.069,3.193c0,2.945,1.215,3.928,5.069,3.928c3.853,0,33.671,0,33.671,0s2.434-0.001,2.434-2.702
	c0,0,1.018-4.419-3.039-4.419H126.227L126.227,104.331z"/>
<path fill-rule="evenodd" clip-rule="evenodd" fill="#FFE75C" stroke="#000000" stroke-width="0.3674" stroke-miterlimit="2.6131" d="
	M130.35,111.465c0,0-3.741-0.246-3.741,3.192c0,2.945,0.896,3.927,3.741,3.927c2.843,0,24.847,0,24.847,0s1.799-0.001,1.799-2.7
	c0,0,0.748-4.419-2.248-4.419H130.35L130.35,111.465z"/>
<polygon fill-rule="evenodd" clip-rule="evenodd" fill="#FFE75C" points="96.987,227.807 51.545,233.911 102.061,233.911 
	96.987,227.807 "/>
<polyline fill="none" stroke="#000000" stroke-width="0.3674" stroke-miterlimit="2.6131" points="96.987,227.807 51.545,233.911 
	102.061,233.911 "/>
<polygon fill-rule="evenodd" clip-rule="evenodd" fill="#FFE75C" points="106.346,154.79 96.103,106.498 115.357,148.682 
	106.346,154.79 "/>
<polyline fill="none" stroke="#000000" stroke-width="0.3674" stroke-miterlimit="2.6131" points="106.346,154.79 96.103,106.498 
	115.357,148.682 "/>
<polygon fill-rule="evenodd" clip-rule="evenodd" fill="#FFE75C" points="178.759,235.159 231.985,249.008 183.71,229.625 
	178.759,235.159 "/>
<polyline fill="none" stroke="#000000" stroke-width="0.3674" stroke-miterlimit="2.6131" points="178.759,235.159 231.985,249.008 
	183.71,229.625 "/>
<polygon fill-rule="evenodd" clip-rule="evenodd" fill="#FFE75C" points="134.768,246.43 141.396,359.85 150.235,246.43 
	134.768,246.43 "/>
<polyline fill="none" stroke="#000000" stroke-width="0.3674" stroke-miterlimit="2.6131" points="134.768,246.43 141.396,359.85 
	150.235,246.43 "/>
<path fill-rule="evenodd" clip-rule="evenodd" fill="#FFE75C" stroke="#000000" stroke-width="0.3674" stroke-miterlimit="2.6131" d="
	M195.161,196.35c0,29.896-24.234,54.131-54.133,54.131c-29.896,0-54.132-24.234-54.132-54.131c0-29.897,24.236-54.132,54.132-54.132
	C170.927,142.218,195.161,166.453,195.161,196.35L195.161,196.35z"/>
<polygon fill-rule="evenodd" clip-rule="evenodd" fill="#FFE75C" points="168.866,241.299 211.364,274.417 175.667,236.465 
	168.866,241.299 "/>
<polyline fill="none" stroke="#000000" stroke-width="0.3674" stroke-miterlimit="2.6131" points="168.866,241.299 211.364,274.417 
	175.667,236.465 "/>
<polygon fill-rule="evenodd" clip-rule="evenodd" fill="#FFE75C" points="106.028,235.366 69.957,269.629 114.505,241.209 
	106.028,235.366 "/>
<polyline fill="none" stroke="#000000" stroke-width="0.3674" stroke-miterlimit="2.6131" points="106.028,235.366 69.957,269.629 
	114.505,241.209 "/>
<polygon fill-rule="evenodd" clip-rule="evenodd" fill="#FFE75C" stroke="#000000" stroke-width="0.3674" stroke-miterlimit="2.6131" points="
	135.137,118.584 135.137,142.218 149.13,142.218 149.13,118.584 135.137,118.584 "/>
<path fill-rule="evenodd" clip-rule="evenodd" fill="#FFFFFF" stroke="#000000" stroke-width="0.3674" stroke-miterlimit="2.6131" d="
	M71.43,180.147c0,0,0.23-8.597,21.474-8.597l-5.289,16.02C87.614,187.571,76.401,185.12,71.43,180.147L71.43,180.147z"/>
<polygon fill-rule="evenodd" clip-rule="evenodd" fill="#FFE75C" points="165.7,154.001 184.851,105.394 174.886,154.122 
	165.7,154.001 "/>
<polyline fill="none" stroke="#000000" stroke-width="0.3674" stroke-miterlimit="2.6131" points="165.7,154.001 184.851,105.394 
	174.886,154.122 "/>
<polygon fill-rule="evenodd" clip-rule="evenodd" fill="#FFE75C" points="99.784,174.992 54.123,152.16 95.734,182.725 
	99.784,174.992 "/>
<polyline fill="none" stroke="#000000" stroke-width="0.3674" stroke-miterlimit="2.6131" points="99.784,174.992 54.123,152.16 
	95.734,182.725 "/>
<path fill-rule="evenodd" clip-rule="evenodd" fill="#FFFFFF" stroke="#000000" stroke-width="0.3674" stroke-miterlimit="2.6131" d="
	M210.259,180.147c0,0-2.053-10.589-22.201-10.589l6.617,19.606C194.675,189.165,210.259,181.987,210.259,180.147L210.259,180.147z"
	/>
<polygon fill-rule="evenodd" clip-rule="evenodd" fill="#FFE75C" points="182.272,172.045 229.407,151.792 186.323,180.147 
	182.272,172.045 "/>
<polyline fill="none" stroke="#000000" stroke-width="0.3674" stroke-miterlimit="2.6131" points="182.272,172.045 229.407,151.792 
	186.323,180.147 "/>
<path fill-rule="evenodd" clip-rule="evenodd" fill="#FFFFFF" stroke="#000000" stroke-width="0.3674" stroke-miterlimit="2.6131" d="
	M71.43,180.147c0,0,76.597,43.453,138.829,0v32.773c0,0-46.031,41.98-139.934-5.154L71.43,180.147L71.43,180.147z"/>
<path fill-rule="evenodd" clip-rule="evenodd" d="M137.546,219.583c0.02,1.061,0.444,3.076,3.224,3.076
	c1.507,0,3.181-0.453,3.181-2.467c0-1.486-1.146-1.883-2.756-2.361l-1.635-0.477c-2.46-0.715-4.837-1.404-4.837-5.594
	c0-2.121,0.913-5.859,5.856-5.859c4.664,0,5.916,3.816,5.938,6.15h-3.055c-0.086-0.85-0.339-2.865-3.117-2.865
	c-1.21,0-2.651,0.559-2.651,2.283c0,1.484,0.977,1.803,1.611,1.986l3.713,1.139c2.077,0.639,3.987,1.701,3.987,5.119
	c0,5.727-4.666,6.23-6.003,6.23c-5.558,0-6.511-4.004-6.511-6.361H137.546L137.546,219.583z"/>
<polygon fill-rule="evenodd" clip-rule="evenodd" points="83.563,209.325 80.381,207.84 80.381,192.17 75.778,190.024 
	75.778,186.657 88.165,192.434 88.165,195.801 83.563,193.655 83.563,209.325 "/>
<polygon fill-rule="evenodd" clip-rule="evenodd" points="107.993,202.825 99.912,200.354 99.912,204.358 107.335,206.627 
	107.335,209.995 99.912,207.725 99.912,212.657 108.353,215.237 108.353,218.606 96.794,215.071 96.794,196.034 107.993,199.459 
	107.993,202.825 "/>
<polygon fill-rule="evenodd" clip-rule="evenodd" points="120.966,218.887 128.537,220.084 128.537,223.532 117.784,221.831 
	117.784,202.793 120.966,203.297 120.966,218.887 "/>
<polygon fill-rule="evenodd" clip-rule="evenodd" points="161.261,224.264 158.079,224.655 158.079,208.987 153.476,209.551 
	153.476,206.182 165.864,204.663 165.864,208.03 161.261,208.596 161.261,224.264 "/>
<path fill-rule="evenodd" clip-rule="evenodd" d="M180.146,205.418l0.049-0.012l2.113,6.951l-4.35,1.186L180.146,205.418
	L180.146,205.418z M177.009,217.092l6.299-1.719l1.09,3.625l3.877-1.057l-6.014-17.396l-4.111,1.123l-6.082,20.695l3.756-1.023
	L177.009,217.092L177.009,217.092z"/>
<path fill-rule="evenodd" clip-rule="evenodd" d="M195.468,204.168v-5.09l3.969-1.85c1.865-0.869,2.227,0.447,2.227,1.455
	c0,1.883-0.807,2.975-2.461,3.746L195.468,204.168L195.468,204.168z M192.353,216.284l3.115-1.455v-7.449l3.289-1.533
	c2.354-1.1,2.482-0.15,2.482,2.447c0,1.965,0.125,2.883,0.338,3.686l3.52-1.643v-0.502c-0.676-0.002-0.676-0.691-0.676-3.475
	c0-3.553-0.68-3.82-1.93-3.926c1.504-1.338,2.354-3.537,2.354-5.631c0-1.645-0.742-5.037-4.793-3.146l-7.699,3.592V216.284
	L192.353,216.284z"/>
</svg>
