<?xml version="1.0" encoding="UTF-8" standalone="no"?>
<svg
   xmlns:dc="http://purl.org/dc/elements/1.1/"
   xmlns:cc="http://creativecommons.org/ns#"
   xmlns:rdf="http://www.w3.org/1999/02/22-rdf-syntax-ns#"
   xmlns:svg="http://www.w3.org/2000/svg"
   xmlns="http://www.w3.org/2000/svg"
   xmlns:sodipodi="http://sodipodi.sourceforge.net/DTD/sodipodi-0.dtd"
   xmlns:inkscape="http://www.inkscape.org/namespaces/inkscape"
   version="1.1"
   id="svg2"
   width="722.79999"
   height="874.08002"
   viewBox="0 0 722.8 874.08"
   sodipodi:docname="avs_vila-dash-avesh.svg"
   inkscape:version="1.0.2 (e86c870879, 2021-01-15)">
  <metadata
     id="metadata14">
    <rdf:RDF>
      <cc:Work
         rdf:about="">
        <dc:format>image/svg+xml</dc:format>
        <dc:type
           rdf:resource="http://purl.org/dc/dcmitype/StillImage" />
        <dc:title></dc:title>
      </cc:Work>
    </rdf:RDF>
  </metadata>
  <defs
     id="defs6" />
  <sodipodi:namedview
     id="namedview4"
     pagecolor="#ffffff"
     bordercolor="#000000"
     borderopacity="0.25"
     inkscape:showpageshadow="2"
     inkscape:pageopacity="0.0"
     inkscape:pagecheckerboard="0"
     inkscape:deskcolor="#d1d1d1"
     inkscape:document-rotation="0"
     showgrid="false"
     inkscape:zoom="50.19078"
     inkscape:cx="714.50739"
     inkscape:cy="440.93324"
     inkscape:window-width="1920"
     inkscape:window-height="1017"
     inkscape:window-x="-8"
     inkscape:window-y="-8"
     inkscape:window-maximized="1"
     inkscape:current-layer="g8" />
  <g
     id="g8"
     inkscape:groupmode="layer"
     inkscape:label="avs_vila-dash-avesh"
     transform="matrix(1.3333333,0,0,-1.3333333,-0.66666667,1121.8529)">
    <path
       d="M 126.37954,282.0543 C 75.231106,327.6544 41.516506,372.40537 20.442536,420.24082 -1.4036539,469.82871 0.41665614,488.90049 0.50356614,516.98887 V 841.38902 H 542.49575 V 516.98887 c 0.0869,-28.08838 1.90771,-47.16016 -19.93896,-96.74805 C 501.48257,372.40537 467.76821,327.6544 416.61977,282.0543 334.3893,208.74424 271.49966,185.87949 271.49966,185.87949 c 0,0 -62.88965,22.86475 -145.12012,96.17481 z"
       style="fill:#af242b;fill-opacity:1;fill-rule:nonzero;stroke:none"
       id="path10" />
    <path
       d="m 137.28774,298.59092 c -47.310046,42.34228 -78.494136,83.89599 -97.986806,128.31347 -20.20728,46.04492 -18.52344,63.7544 -18.44312,89.83545 V 817.96152 H 522.1769 V 516.73984 c 0.0801,-26.08105 1.76319,-43.79053 -18.44287,-89.83545 -19.49316,-44.41748 -50.67724,-85.97119 -97.9873,-128.31347 -76.05811,-68.07276 -134.22949,-89.30323 -134.22949,-89.30323 0,0 -58.17139,21.23047 -134.2295,89.30323 z"
       style="fill:#f8a01b;fill-opacity:1;fill-rule:nonzero;stroke:none"
       id="path12" />
    <path
       d="m 516.24673,812.03183 c 0,-11.39721 0,-295.29199 0,-295.29199 0,-0.0186 0.0644,-9.63525 0.0644,-11.70361 0,-19.84961 -1.45166,-38.02393 -18.00732,-75.74951 -19.40381,-44.21485 -50.97364,-85.521 -96.51172,-126.27686 -66.41358,-59.44092 -119.48584,-82.9292 -130.2749,-87.34424 -10.78907,4.41504 -63.86133,27.90332 -130.27491,87.34375 v 4.9e-4 c -45.538566,40.75586 -77.107906,82.06201 -96.511466,126.27686 -16.55615,37.72412 -18.0083,55.89843 -18.0083,75.74756 0,2.06884 0.0647,11.68701 0.0647,11.68701 0,0 0,283.91333 0,295.31054 11.44213,0 478.017566,0 489.459466,0 z"
       style="fill:#ffffff;fill-opacity:1;fill-rule:nonzero;stroke:none"
       id="path14" />
    <path
       d="m 339.96206,305.12558 c -1.23535,1.17041 -0.9751,1.36524 0.13037,1.49561 1.10498,0.12988 6.37158,0.71533 18.37793,2.53516 11.44336,1.73584 19.43359,4.15185 19.43359,4.15185 -6.25634,-5.40869 -12.36816,-10.47607 -18.30615,-15.21777 -9.88281,-0.92383 -18.40039,5.86474 -19.63574,7.03515 z"
       style="fill:#efa329;fill-opacity:1;fill-rule:nonzero;stroke:none"
       id="path16" />
    <path
       d="m 385.26382,370.44687 c -20.56201,15.51758 -54.4043,42.41455 -66.30274,53.20801 -8.15918,7.40088 -14.88916,16.31983 -18.72558,26.65772 -3.83545,10.33789 -4.16113,19.18066 -3.70606,21.13086 0.28711,1.22949 1.24463,0.45556 7.60694,-6.82666 10.79345,-12.35401 25.73388,-27.30762 37.12597,-38.03614 12.28858,-11.57324 50.01953,-43.90625 50.01953,-43.90625 0,0 -48.78418,54.56934 -61.65771,71.01905 -9.75488,12.46435 -25.55225,29.25878 -30.23389,47.13867 -3.71045,14.17334 -3.64111,24.77197 -2.73047,29.84326 0.40772,2.27295 0.84522,2.146 2.86084,-0.9751 12.04444,-18.6499 32.76905,-47.20361 50.71436,-68.91992 32.49805,-39.32715 67.73877,-79.02783 67.73877,-79.02783 h 25.17676 c -15.48633,-20.67725 -34.41651,-40.97754 -57.0376,-61.22364 -2.31152,-2.06884 -4.60547,-4.09228 -6.88037,-6.06982 0,0 -22.62598,-0.88086 -32.76856,-0.68603 -10.14306,0.19531 -13.78418,0.45507 -19.96093,4.35595 -7.21387,4.55664 -10.20752,10.14307 -10.04932,10.58838 0.0913,0.25684 0.4917,0.46485 4.97803,-0.11963 4.48633,-0.58545 20.29004,-2.40771 32.89941,-2.86084 18.0752,-0.65088 29.57764,0.16407 29.57764,0.16407 0,0 -20.21485,2.76123 -40.50049,6.53222 -20.28613,3.77149 -24.1875,4.22656 -31.85938,10.33838 -7.67236,6.11182 -11.09375,14.38525 -11.0083,15.05957 0.085,0.67481 1.45069,0.15479 5.80664,-1.21045 4.35645,-1.36572 24.47754,-7.45752 41.0918,-10.8584 19.37549,-3.96631 35.78662,-6.46972 35.78662,-6.46972 0,0 -24.73291,7.37988 -43.52344,13.55664 -18.79052,6.17724 -24.77246,8.3872 -32.11962,16.38525 -7.34717,7.99707 -10.76612,17.49121 -10.85791,19.05029 -0.065,1.10498 2.52441,-0.15283 3.9663,-0.84521 11.63819,-5.5918 32.0542,-15.34424 54.16065,-23.27686 21.27441,-7.63427 31.40381,-10.66308 31.40381,-10.66308 0,0 -15.73438,8.25732 -42.0542,22.43408 -26.03516,14.02441 -34.72803,17.87988 -42.11133,31.4585 -5.62549,10.3457 -5.62549,18.083 -5.23535,18.66455 0.36133,0.53759 3.51855,-1.64453 11.81006,-7.76221 9.12597,-6.7334 26.78515,-19.60742 46.90185,-31.37549 21.43604,-12.53906 29.69727,-16.47217 29.69727,-16.47217 z"
       style="fill:#f8a01b;fill-opacity:1;fill-rule:nonzero;stroke:none"
       id="path18" />
    <path
       d="m 446.32925,386.05283 v 211.44092 l 0.003,1.47314 h -89.77002 l 4.8e-4,2.16797 v 183.74268 l 0.7378,-0.0132 h 83.96094 c 12.22314,0.0996 23.6665,0.87989 34.97949,-10.04321 11.31347,-10.92309 16.38476,-26.13745 16.38476,-45.25317 0,-19.11524 -5.58545,-30.56055 -12.15527,-44.08399 0,0 -2.79932,23.27783 -16.45313,35.63184 -13.65332,12.35303 -36.92236,15.75342 -43.42822,15.02881 0,0 29.11231,-3.79395 42.3169,-22.41553 0,0 -11.76514,8.40967 -27.3667,11.2876 -13.39405,2.4707 -25.35694,1.17041 -29.51856,-5.46143 -3.01123,-4.79883 -3.03418,-9.62304 -3.07763,-18.20556 v -54.44239 -1.56054 h 89.81201 l -0.019,-1.43702 c 0,-65.2915 0,-127.16992 0,-127.16992 0,-0.0903 0.0635,-9.61816 0.0635,-11.55566 0,-18.24268 -1.32471,-32.95117 -16.02539,-66.44922 -7.70996,-17.56885 -17.54932,-34.69873 -29.64795,-51.56006 l -0.79736,-1.12207 m 11.18701,364.32129 c 6.12451,-4.87695 16.74609,-7.72803 16.74609,-7.72803 -9.65136,13.85889 -22.52002,21.16455 -22.52002,21.16455 0,0 -1.24853,-7.84521 5.77393,-13.43652 z"
       style="fill:#af242b;fill-opacity:1;fill-rule:nonzero;stroke:none"
       id="path20" />
    <path
       d="M 140.13687,645.34726 H 96.704254 l 9.7e-4,1.21387 v 89.55225 l -9.7e-4,2.38379 h 43.433096 l -0.0215,-2.73096 v -89.11816 l 0.021,-1.30079 m 46.35937,-347.8081 v 487.3374 l -1.0625,-0.0122 H 50.297984 c 0,-47.93701 0,-268.21484 0,-268.21484 0,0 -0.06348,-9.5293 -0.06348,-11.46728 0,-18.24219 1.32471,-32.95069 16.02539,-66.44727 7.72266,-17.59815 17.58057,-34.75488 29.70752,-51.64307 l 0.73779,-0.95312 v 211.09521 l -4.8e-4,1.7334 h 43.431636 l -0.0205,-1.38769 V 337.41807 l 0.009,-1.18212 c 5.35498,-5.24317 10.95312,-10.47705 16.79638,-15.70704 l 4.9e-4,-4.8e-4 c 10.23828,-9.16309 20.13379,-17.42774 29.56983,-24.86231 l 0.004,1.87305 z"
       style="fill:#af242b;fill-opacity:1;fill-rule:nonzero;stroke:none"
       id="path22" />
    <path
       d="m 249.81265,252.72568 c -12.59034,7.13184 -28.37256,16.9668 -46.35938,30.07862 l -0.009,0.79931 v 501.27393 l 0.75879,-0.0132 h 134.71875 l 0.69336,0.0127 v -46.38037 h -87.94824 l -1.84277,-0.0215 v -92.3916 l 0.0215,-0.73633 h 89.76953 v -46.37988 h -89.76953 l -0.0215,-0.99707 V 253.89168 l -0.0117,-1.16602 z"
       style="fill:#af242b;fill-opacity:1;fill-rule:nonzero;stroke:none"
       id="path24" />
  </g>
</svg>
