<?xml version="1.0" encoding="utf-8"?>
<!-- Generator: Adobe Illustrator 13.0.2, SVG Export Plug-In . SVG Version: 6.00 Build 14948)  -->
<!DOCTYPE svg PUBLIC "-//W3C//DTD SVG 1.0//EN" "http://www.w3.org/TR/2001/REC-SVG-20010904/DTD/svg10.dtd">
<svg version="1.0" id="Ñëîé_1" xmlns="http://www.w3.org/2000/svg" xmlns:xlink="http://www.w3.org/1999/xlink" x="0px" y="0px"
	 width="481.442px" height="631.871px" viewBox="0 0 481.442 631.871" enable-background="new 0 0 481.442 631.871"
	 xml:space="preserve">
<g>
	<path fill="#4C88B8" d="M239.642,629.006c0,0-4.968-18.12-19.995-18.284c-36.2-0.396-98.082-0.284-116.076-0.261
		c-19.734,0.023-62.791-27.286-62.791-62.839c0-35.552-0.018-260.772-0.083-287.183c-0.09-36.361-36.974-65.485-36.974-65.485
		l26.978-46.435c0,0,91.508,49.14,209.94,48.761h0.162c118.432,0.379,209.94-48.761,209.94-48.761l26.976,46.435
		c0,0-36.884,29.124-36.972,65.485c-0.063,26.411-0.082,251.631-0.082,287.183c0,35.553-43.057,62.862-62.792,62.839
		c-17.995-0.023-79.878-0.135-116.077,0.261c-15.025,0.164-19.993,18.284-19.993,18.284H239.642z"/>
	<polygon fill="#FFFFFF" points="441.268,384.628 152.333,188.75 237.43,198.296 285.16,195.132 440.358,300.344 	"/>
	<path fill="#FFFFFF" d="M4.44,195.114l5.441-9.429l431.127,292.271l-2.133,82.221L39.852,289.667c0,0,5.967-40.445-6.129-58.269
		C21.627,213.574,4.44,195.114,4.44,195.114z"/>
	<polygon fill="#FFFFFF" points="254.929,612.279 40.82,467.128 40.657,383.35 375.466,610.327 	"/>
	<path fill="#4C88B8" d="M241.167,0c3.82,0,5.577,0.625,8.277,1.751c1.91,0.795,2.067,5.411,0.955,6.206
		c-1.115,0.795-3.818,1.432-3.98,4.138c-0.156,2.706,0,4.774,0,4.774s0.319,0.159,3.503,0.159c3.182,0,3.819-0.159,3.819-2.068
		c0-1.91,1.433-1.91,4.137-1.91c2.708,0,3.82-0.319,3.979,3.183c0.079,1.748,0.478,1.432,1.749,3.183
		c1.276,1.75,1.752,2.387,0.797,3.342c-0.955,0.955-2.546,3.184-2.546,5.252c0,2.068-0.796,2.069-4.296,2.069
		c-3.504,0-3.98-0.795-3.98-2.069c0-1.274-0.339-2.387-2.703-2.387c-2.865,0-4.405,0-4.405,0s-0.054,2.864-0.054,8.593
		c0,5.729,1.698,7.798,1.698,7.798s0.425-0.212,9.363-1.432c7.748-1.059,24.802-5.146,40.186,1.91
		c16.822,7.715,19.494,27.214,19.494,27.214s1.2-0.12,2.626,0c1.91,0.159,3.023,0.636,3.023,0.636
		c0.955-0.477,2.104-1.547,5.332-2.546c10.027-3.104,26.179-4.456,36.205,10.504c8.995,13.42,3.184,32.943-4.933,54.667
		s-17.205,42.896-17.205,42.896c-3.887,0.833-7.85,1.634-11.883,2.397l-4.811-14.976l20.371-2.228c0,0-7.639-4.457-24.509-10.186
		c-19.456-6.608-21.166-6.207-21.166-6.207l10.346,13.209l-24.828,5.729l-16.232-15.277l16.392-6.525c0,0-24.985-5.092-42.491-5.252
		h-5.173c-17.505,0.16-42.492,5.252-42.492,5.252l16.393,6.525l-16.232,15.277l-24.827-5.729l10.344-13.209
		c0,0-1.709-0.402-21.167,6.207c-16.869,5.729-24.508,10.186-24.508,10.186l20.371,2.228l-4.809,14.976
		c-4.035-0.763-7.999-1.563-11.886-2.397c0,0-9.087-21.172-17.204-42.896c-8.116-21.724-13.928-41.247-4.934-54.667
		c10.026-14.96,26.18-13.607,36.206-10.504c3.229,1,4.376,2.069,5.331,2.546c0,0,1.114-0.477,3.024-0.636
		c1.427-0.12,2.626,0,2.626,0s2.672-19.499,19.496-27.214c15.384-7.056,32.438-2.968,40.184-1.91
		c8.939,1.22,9.363,1.432,9.363,1.432s1.698-2.069,1.698-7.798c0-5.729-0.05-8.593-0.05-8.593s-1.541,0-4.406,0
		c-2.367,0-2.706,1.112-2.706,2.387c0,1.274-0.476,2.069-3.978,2.069c-3.501,0-4.297-0.001-4.297-2.069
		c0-2.068-1.592-4.297-2.546-5.252c-0.955-0.955-0.479-1.592,0.795-3.342c1.274-1.75,1.672-1.435,1.751-3.183
		c0.158-3.502,1.272-3.183,3.978-3.183c2.706,0,4.138,0,4.138,1.91c0,1.909,0.637,2.068,3.82,2.068s3.501-0.159,3.501-0.159
		s0.158-2.068,0-4.774c-0.159-2.706-2.865-3.343-3.979-4.138c-1.113-0.795-0.954-5.411,0.955-6.206
		C234.877,0.625,236.632,0,240.451,0H241.167z M208.718,110.682c-3.237,3.296-3.91,7.89-1.499,10.255l3.096,3.041
		c2.409,2.367,6.99,1.611,10.227-1.686l0,0c3.238-3.301,3.911-7.892,1.501-10.259l-3.098-3.04
		C216.536,106.626,211.957,107.383,208.718,110.682L208.718,110.682z M150.576,127.657c-3.238,3.296-3.91,7.89-1.499,10.255
		l3.096,3.042c2.409,2.366,6.989,1.609,10.227-1.687l0,0c3.238-3.3,3.911-7.892,1.501-10.258l-3.098-3.04
		C158.394,123.602,153.814,124.358,150.576,127.657L150.576,127.657z M160.72,77.504c0,0-1.035-0.154-2.865,0.637
		c-5.889,2.546-14.641,8.912-20.211,19.416c-10.78,20.33-2.706,37.717-2.706,37.717s3.981-12.618,12.732-22.597
		c9.071-10.346,15.596-13.211,15.596-13.211s-0.637-5.46-0.637-10.556c0-6.366,0.796-11.246,0.796-11.246
		C163.585,76.708,160.72,77.504,160.72,77.504z M133.983,73.207c-12.322,2.82-16.392,14.483-14.323,30.238
		c1.422,10.824,6.049,19.098,6.049,19.098s-0.956-16.551,6.843-29.124c7.897-12.734,17.665-19.576,17.665-19.576
		S147.192,70.183,133.983,73.207z M186.184,68.539c3.921-20.391,19.097-23.553,19.097-23.553s-8.623-1.764-19.097,3.396
		c-14.217,7.002-18.036,25.25-16.764,46.682c1.122,18.896,8.064,40.742,8.064,40.742s4.88-1.274,11.671-2.547
		c6.79-1.273,8.275-1.699,8.275-1.699C195.731,127.104,181.939,90.608,186.184,68.539z M216.58,78.777
		c8.109,0,7.828,0.08,6.844-15.119c-0.85-13.104-1.273-14.801-1.273-14.801s-0.942-0.111-7.534-0.053
		c-5.994,0.053-15.966,3.396-20.635,14.854c-4.083,10.021-2.493,19.946-2.493,19.946C200.824,79.573,204.327,78.777,216.58,78.777z
		 M243.364,186.463h0.163c29.568,0.095,57.457-2.897,82.666-7.44c0,0-8.794-5.872-30.121-11.441
		c-17.557-4.586-36.157-7.64-52.675-7.64h-5.173c-16.519,0-35.12,3.054-52.678,7.64c-21.325,5.569-30.118,11.441-30.118,11.441
		c25.206,4.543,53.097,7.535,82.666,7.44h0.162H243.364z M272.902,110.682c-3.238-3.299-7.818-4.056-10.228-1.688l-3.097,3.04
		c-2.41,2.367-1.738,6.958,1.5,10.259l0,0c3.237,3.296,7.818,4.052,10.228,1.686l3.096-3.041
		C276.81,118.572,276.139,113.979,272.902,110.682L272.902,110.682z M331.045,127.657c-3.24-3.299-7.818-4.056-10.228-1.688
		l-3.1,3.04c-2.41,2.367-1.734,6.958,1.503,10.258l0,0c3.238,3.296,7.815,4.052,10.227,1.687l3.097-3.042
		C334.955,135.547,334.284,130.953,331.045,127.657L331.045,127.657z M225.889,149.12c0,3.691,3.063,6.684,6.844,6.684h15.913
		c3.781,0,6.844-2.993,6.844-6.684l0,0c0-3.69-3.063-6.684-6.844-6.684h-15.913C228.953,142.436,225.889,145.43,225.889,149.12
		L225.889,149.12z M318.196,77.664c0,0,0.795,4.88,0.795,11.246c0,5.096-0.638,10.556-0.638,10.556s6.526,2.865,15.598,13.211
		c8.751,9.979,12.73,22.597,12.73,22.597s8.075-17.388-2.704-37.717c-5.57-10.503-14.323-16.87-20.213-19.416
		c-1.83-0.791-2.865-0.637-2.865-0.637S318.035,76.708,318.196,77.664z M331.403,73.843c0,0,9.77,6.841,17.665,19.576
		c7.799,12.572,6.846,29.124,6.846,29.124s4.625-8.274,6.046-19.098c2.069-15.755-2-27.418-14.323-30.238
		C334.428,70.183,331.403,73.843,331.403,73.843z M284.19,131.56c0,0,1.485,0.425,8.276,1.699
		c6.789,1.273,11.671,2.547,11.671,2.547s6.941-21.847,8.064-40.742c1.271-21.432-2.548-39.68-16.766-46.682
		c-10.474-5.16-19.097-3.396-19.097-3.396s15.176,3.162,19.097,23.553C299.679,90.608,285.889,127.104,284.19,131.56z
		 M290.13,83.605c0,0,1.592-9.926-2.492-19.946c-4.67-11.458-14.642-14.801-20.635-14.854c-6.594-0.059-7.533,0.053-7.533,0.053
		s-0.425,1.697-1.272,14.801c-0.985,15.199-1.268,15.119,6.841,15.119C277.295,78.777,280.795,79.573,290.13,83.605z
		 M239.188,48.594c-2.97,0-10.565-0.849-10.354,0.849c0.212,1.697,1.113,20.264,1.91,37.77c0.684,15.049,1.062,42.228,2.758,42.228
		c1.698,0,4.457-0.212,5.941-0.212h2.732c1.486,0,4.242,0.212,5.94,0.212c1.696,0,2.073-27.178,2.761-42.228
		c0.793-17.505,1.696-36.073,1.908-37.77c0.211-1.698-7.385-0.849-10.354-0.849H239.188z"/>
	<path fill="#E31B23" d="M87.513,257.137c-5.29,0.363-13.916,6.866-12.599,22.284c1.133,13.271,6.764,25.833,13.953,30.542
		c8.786,5.755,25.8,5.484,36.831,2.152c11.03-3.334,14.678-10.646,12.832-17.849c-2.054-8.015-6.522-12.263-15.582-11.064
		c-8.709,1.151-16.125,3.706-17.723,2.66c-1.598-1.046-1.241-7.275-1.435-13.496C103.521,263.629,97.373,256.462,87.513,257.137z"/>
	<path fill="#E31B23" d="M280.476,210.381c-5.297,0.205-14.115,6.447-13.262,21.896c0.733,13.299,5.985,26.024,13.03,30.947
		c8.607,6.016,25.625,6.256,36.749,3.256c11.125-3.001,14.991-10.2,13.363-17.455c-1.813-8.073-6.151-12.453-15.243-11.527
		c-8.741,0.89-16.231,3.221-17.796,2.127s-1.022-7.309-1.029-13.533C296.281,217.352,290.35,210.003,280.476,210.381z"/>
	<path fill="#E31B23" d="M217.277,521.471c-5.292,0.305-13.989,6.714-12.845,22.144c0.989,13.283,6.479,25.905,13.616,30.694
		c8.722,5.853,25.738,5.77,36.804,2.56c11.066-3.214,14.797-10.485,13.029-17.707c-1.966-8.037-6.387-12.335-15.458-11.235
		c-8.721,1.055-16.167,3.527-17.753,2.465c-1.586-1.064-1.161-7.286-1.285-13.512C233.213,528.14,227.142,520.906,217.277,521.471z"
		/>
	<path fill="#E31B23" d="M354.123,436.837c-5.297,0.259-14.049,6.593-13.036,22.032c0.872,13.29,6.255,25.961,13.352,30.81
		c8.671,5.928,25.688,5.991,36.781,2.877c11.092-3.116,14.885-10.357,13.181-17.594c-1.898-8.055-6.279-12.388-15.363-11.368
		c-8.729,0.981-16.195,3.389-17.771,2.31c-1.574-1.075-1.099-7.296-1.168-13.521C370,443.644,363.992,436.356,354.123,436.837z"/>
	<path fill="#E31B23" d="M98.346,440.806c-5.292,0.311-13.98,6.732-12.813,22.161c1.006,13.28,6.516,25.896,13.659,30.675
		c8.731,5.84,25.747,5.731,36.809,2.505c11.062-3.227,14.78-10.503,13.003-17.723c-1.977-8.034-6.403-12.326-15.476-11.214
		c-8.719,1.067-16.16,3.55-17.748,2.489c-1.587-1.062-1.171-7.285-1.305-13.508C114.292,447.452,108.211,440.226,98.346,440.806z"/>
	<path fill="#E31B23" d="M381.486,291.836c-5.294,0.31-13.983,6.725-12.826,22.156c1.001,13.278,6.504,25.898,13.646,30.681
		c8.724,5.845,25.741,5.748,36.806,2.526c11.063-3.221,14.784-10.495,13.013-17.718c-1.973-8.035-6.396-12.328-15.47-11.222
		c-8.719,1.064-16.163,3.542-17.75,2.479c-1.584-1.062-1.166-7.286-1.295-13.509C397.427,298.493,391.352,291.26,381.486,291.836z"
		/>
	<polygon fill="#4C88B8" points="440.425,329.753 40.836,517.915 40.874,427.774 446.07,236.973 441.296,249.86 	"/>
	<path fill="#FFFFFF" d="M67.436,475.505c0.237,1.297,0.712,2.173,1.427,2.627c0.714,0.454,2.657,1.376,4.646-0.692
		c1.148-1.193,1.08-2.112,0.636-3.729c-0.397-1.445-2.146-1.831-5.68-1.34c-3.535,0.491-6.308,0.556-8.318,0.197
		c-2.012-0.358-3.342-2.332-3.997-5.92c-0.707-3.874-0.017-7.194,2.071-9.972c2.085-2.776,4.736-4.92,7.95-6.436
		c3.091-1.453,5.954-1.919,8.593-1.393c2.639,0.525,4.615,2.515,5.57,6.071c0.256,0.954-0.618,2.307-3.881,3.818
		c-3.263,1.514-4.696,1.18-4.974,0.351c-0.191-1.05-1.007-2.204-1.791-2.499c-0.781-0.29-1.449-0.246-2.228,0.158
		c-2.148,1.116-2.387,2.469-1.878,4.086c0.387,1.229,2.039,1.646,5.425,1.14c3.386-0.51,6.172-0.546,8.354-0.111
		c2.183,0.438,3.611,2.494,4.281,6.171c0.766,4.204,0.024,7.738-2.227,10.597c-2.252,2.855-5.134,5.111-8.651,6.768
		c-3.425,1.612-6.568,2.126-9.431,1.54c-2.862-0.585-4.957-2.86-5.401-6.957c-0.181-1.666,0.921-3.575,4.435-4.69
		C65.631,474.256,67.332,474.607,67.436,475.505z"/>
	<path fill="#FFFFFF" d="M112.997,451.348c0.793,4.354,0.105,8.367-2.064,12.039c-2.169,3.673-5.012,6.335-8.528,7.99
		c-4.282,2.018-8.052,2.095-11.312,0.237c-3.26-1.856-5.408-5.626-6.443-11.305c-0.976-5.352-0.41-10.209,1.699-14.575
		c2.11-4.364,5.214-7.513,9.313-9.443c3.516-1.654,6.842-1.929,9.983-0.823c3.14,1.105,5.169,3.886,5.933,8.368
		c0.404,2.371-8.67,7.159-9.862,4.646c-0.434-1.466-1.007-2.47-1.72-3.015c-0.712-0.545-1.636-0.552-2.766-0.019
		c-1.622,0.763-2.568,2.131-2.839,4.104s-0.19,4.146,0.243,6.521c0.552,3.028,1.329,5.018,2.333,5.968
		c1.002,0.949,2.101,1.144,3.294,0.583c2.292-1.081,3.174-3.291,2.922-6.653C102.975,453.205,112.699,449.071,112.997,451.348z"/>
	<path fill="#FFFFFF" d="M122.318,412.953l10.936-5.167l3.018,15.28l10.097-4.771l-3.017-15.278l10.983-5.19l8.859,44.866
		l-10.983,5.19l-3.422-17.343l-10.099,4.772l3.424,17.341l-10.936,5.166L122.318,412.953z"/>
	<path fill="#FFFFFF" d="M190.76,416.486c1.778-0.902,1.68,0.48,1.68,0.48c-0.103,4.185-1.243,7.759-3.425,10.719
		c-2.183,2.96-4.896,5.208-8.135,6.732c-4.099,1.931-7.747,1.902-10.948-0.085c-3.202-1.987-5.302-5.725-6.302-11.221
		c-0.942-5.164-0.336-10.033,1.817-14.608c2.155-4.577,5.205-7.793,9.15-9.653c4.677-2.201,9.878-2.028,12.94,0.568
		c2.567,2.174,4.26,5.534,4.359,10.481c0.058,2.886-1.519,3.663-3.045,4.558c-6.564,2.864-14.716,7.04-14.716,7.04
		c0.336,1.841,1.031,3.198,2.085,4.078c1.054,0.883,2.664,1.584,4.038,0.937c0.823-0.387,1.432-0.835,2.148-2.148
		c0.374-0.684,0.325-1.53,0.55-2.49C182.978,421.778,182.286,420.186,190.76,416.486z M181.664,410.695
		c-0.455-1.758-1.153-3.043-2.096-3.856c-0.943-0.812-2.088-0.901-3.432-0.269c-1.282,0.604-2.194,1.652-2.735,3.139
		c-0.539,1.488-0.702,3.192-0.484,5.106L181.664,410.695z"/>
	<path fill="#FFFFFF" d="M222.868,401.208c1.777-0.903,1.679,0.48,1.679,0.48c-0.103,4.184-1.243,7.757-3.425,10.719
		c-2.183,2.959-4.896,5.207-8.136,6.732c-4.098,1.931-7.747,1.902-10.947-0.086c-3.203-1.985-5.302-5.726-6.303-11.219
		c-0.942-5.165-0.335-10.035,1.818-14.611c2.155-4.574,5.205-7.793,9.149-9.65c4.678-2.204,9.878-2.03,12.942,0.565
		c2.567,2.175,4.259,5.535,4.358,10.484c0.058,2.884-1.519,3.663-3.046,4.555c-6.565,2.865-14.715,7.041-14.715,7.041
		c0.335,1.841,1.03,3.198,2.084,4.079c1.055,0.881,2.664,1.582,4.038,0.936c0.823-0.388,1.432-0.835,2.148-2.147
		c0.374-0.686,0.326-1.532,0.551-2.49C215.086,406.499,214.393,404.909,222.868,401.208z M213.772,395.417
		c-0.456-1.759-1.153-3.044-2.097-3.857c-0.942-0.811-2.087-0.9-3.43-0.269c-1.282,0.604-2.194,1.653-2.735,3.14
		c-0.541,1.488-0.703,3.19-0.485,5.106L213.772,395.417z"/>
	<path fill="#FFFFFF" d="M275.386,376.5c1.777-0.903,1.679,0.481,1.679,0.481c-0.102,4.183-1.242,7.757-3.424,10.719
		c-2.183,2.959-4.896,5.207-8.136,6.731c-4.1,1.932-7.747,1.902-10.948-0.086c-3.202-1.986-5.302-5.725-6.303-11.22
		c-0.94-5.164-0.337-10.034,1.818-14.609c2.154-4.575,5.205-7.792,9.149-9.652c4.677-2.202,9.879-2.029,12.941,0.568
		c2.565,2.174,4.26,5.535,4.358,10.482c0.058,2.886-1.52,3.662-3.045,4.556c-6.564,2.865-14.716,7.041-14.716,7.041
		c0.336,1.84,1.03,3.197,2.084,4.078c1.053,0.883,2.664,1.584,4.037,0.937c0.824-0.388,1.433-0.835,2.148-2.149
		c0.373-0.683,0.325-1.53,0.553-2.488C267.605,381.792,266.913,380.2,275.386,376.5z M266.29,370.708
		c-0.455-1.757-1.153-3.043-2.097-3.855c-0.942-0.811-2.088-0.9-3.431-0.269c-1.281,0.604-2.194,1.651-2.736,3.138
		c-0.537,1.488-0.7,3.192-0.484,5.106L266.29,370.708z"/>
	<path fill="#FFFFFF" d="M365.86,334.008c1.778-0.902,1.679,0.481,1.679,0.481c-0.1,4.184-1.242,7.756-3.423,10.719
		c-2.184,2.96-4.896,5.206-8.136,6.732c-4.1,1.93-7.747,1.902-10.948-0.086c-3.201-1.987-5.302-5.727-6.303-11.221
		c-0.94-5.164-0.336-10.033,1.817-14.61c2.155-4.574,5.205-7.791,9.151-9.65c4.676-2.203,9.878-2.029,12.94,0.566
		c2.566,2.174,4.259,5.536,4.357,10.483c0.059,2.886-1.52,3.662-3.045,4.557c-6.564,2.864-14.714,7.04-14.714,7.04
		c0.335,1.841,1.028,3.198,2.082,4.078c1.054,0.883,2.666,1.584,4.038,0.937c0.825-0.389,1.432-0.836,2.148-2.149
		c0.373-0.684,0.324-1.529,0.552-2.488C358.08,339.299,357.386,337.709,365.86,334.008z M356.764,328.217
		c-0.456-1.758-1.153-3.042-2.098-3.856c-0.94-0.811-2.087-0.9-3.429-0.268c-1.282,0.604-2.195,1.651-2.737,3.138
		c-0.538,1.488-0.701,3.19-0.484,5.105L356.764,328.217z"/>
	<path fill="#FFFFFF" d="M225.135,375.307l9.072-4.416l1.313,5.729c0.239-5.013,5.071-7.764,6.804-8.713
		c0.103-0.057,2.268-1.434,2.982,4.178c1.434,7.043-0.119,4.895-2.883,7.227c-3.072,2.593-3.278,4.163-3.442,6.381
		c-0.142,1.911-0.25,4.016,0.185,6.396l2.479,13.594l-9.976,4.697L225.135,375.307z"/>
	<path fill="#FFFFFF" d="M276.896,350.997c0.718-0.835,2.702-1.705,3.702-2.268c2.744-1.552,5.847-2.745,6.172-1.187
		c0.335,1.608,0.916,3.945,0.968,3.804c0.784-2.095,1.712-3.85,2.788-5.258c1.222-1.599,2.721-2.815,4.496-3.652
		c2.144-1.008,4.134-1.177,5.97-0.505c1.834,0.673,3.093,1.918,3.773,3.733c0.679,1.818,1.188,3.427,1.527,4.824
		c0.338,1.399,0.649,2.881,0.933,4.438l3.093,18.151l-9.549,4.774l-3.437-18.271c-1.458-6.913-2.532-8.822-4.919-7.987
		c-1.405,0.491-2.029,0.954-2.984,3.343c-0.584,1.461,0.555,6.145,0.905,8.071l3.153,18.066l-10.265,4.896
		C283.223,385.97,276.81,351.095,276.896,350.997z"/>
	<path fill="#FFFFFF" d="M304.51,337.948l10.025-4.774l9.669,16.472l0.954-21.484l9.907-4.656l-2.268,39.031l-10.742,5.371
		L304.51,337.948z"/>
	<path fill="#FFFFFF" d="M86.852,498.358l353.654-166.529l0.024-4.235c-83.512,39.325-266.147,125.324-357.318,168.256
		L86.852,498.358z M385.705,263.288L40.217,425.976l0.773,3.856c81.886-38.559,255.583-120.352,348.404-164.06L385.705,263.288z"/>
	<path fill="#4C88B8" d="M449.388,145.996c-0.909,0.489-92.288,48.793-208.576,48.42c-116.468,0.373-207.847-47.931-208.757-48.42
		l-2.44-1.31L0,195.662l1.947,1.541c0.358,0.283,35.8,28.721,35.886,63.244l0.082,287.176c0,18.496,10.711,33.077,19.698,42.053
		c13.737,13.72,33.065,23.665,45.961,23.649l3.733-0.005c21.419-0.028,78.317-0.104,112.308,0.267
		c12.653,0.138,17.221,16.021,17.266,16.183l0.583,2.097l6.516,0.005l0.586-2.102c0.041-0.161,4.611-16.045,17.262-16.183
		c33.991-0.371,90.889-0.295,112.309-0.267l3.733,0.005c12.896,0.016,32.228-9.93,45.963-23.652
		c8.987-8.973,19.698-23.554,19.698-42.05l0.082-287.177c0.084-34.522,35.523-62.96,35.882-63.243l1.947-1.541l-29.613-50.976
		L449.388,145.996z M449.627,152.304c2.341,4.029,22.301,38.386,24.398,41.998c-7.742,6.651-36.063,33.212-36.143,66.131
		l-0.083,287.19c0,16.533-9.796,29.788-18.017,37.998c-14.296,14.278-32.242,21.976-41.884,21.976c-0.008,0-3.757-0.007-3.757-0.007
		c-21.428-0.026-78.35-0.104-112.378,0.269c-12.089,0.132-18.347,9.963-21.044,15.931c-2.694-5.968-8.952-15.799-21.042-15.931
		c-34.027-0.372-90.951-0.295-112.379-0.269l-3.733,0.007c-9.636,0.011-27.598-7.687-41.905-21.976
		c-8.219-8.21-18.017-21.464-18.017-37.998l-0.082-287.19c-0.082-32.919-28.402-59.48-36.147-66.131
		c2.099-3.612,22.059-37.969,24.399-41.998c15.418,7.697,101.688,48.184,208.836,47.841
		C347.927,200.488,434.209,160.001,449.627,152.304z"/>
	<path fill="#FFFFFF" d="M396.775,319.327c1.776-0.902,1.678,0.482,1.678,0.482c-0.1,4.184-1.241,7.756-3.424,10.718
		c-2.181,2.96-4.895,5.207-8.136,6.732c-4.099,1.931-7.746,1.902-10.945-0.086c-3.202-1.985-5.304-5.726-6.305-11.219
		c-0.94-5.165-0.335-10.034,1.818-14.611c2.153-4.575,5.204-7.792,9.149-9.651c4.679-2.203,9.879-2.029,12.941,0.566
		c2.567,2.176,4.26,5.535,4.358,10.484c0.058,2.885-1.52,3.662-3.046,4.556c-6.564,2.864-14.714,7.04-14.714,7.04
		c0.336,1.842,1.028,3.198,2.082,4.079c1.055,0.882,2.666,1.583,4.039,0.937c0.824-0.389,1.431-0.836,2.147-2.148
		c0.373-0.685,0.325-1.532,0.552-2.49C388.994,324.619,388.3,323.028,396.775,319.327z M387.677,313.536
		c-0.455-1.758-1.152-3.043-2.097-3.855c-0.941-0.812-2.086-0.902-3.429-0.27c-1.281,0.605-2.196,1.652-2.735,3.139
		c-0.54,1.488-0.702,3.192-0.486,5.107L387.677,313.536z"/>
	<path fill="#FFFFFF" d="M399.162,293.545c0.716-0.836,2.703-1.704,3.7-2.268c2.745-1.551,5.849-2.744,6.174-1.186
		c0.333,1.607,0.915,3.943,0.967,3.804c0.784-2.096,1.713-3.851,2.789-5.259c1.222-1.598,2.722-2.814,4.497-3.652
		c2.143-1.008,4.133-1.176,5.969-0.505c1.833,0.673,3.092,1.917,3.773,3.733c0.679,1.818,1.188,3.426,1.526,4.824
		c0.339,1.399,0.65,2.881,0.934,4.438l3.092,18.152l-9.549,4.773l-3.437-18.271c-1.457-6.913-2.531-8.823-4.919-7.988
		c-1.404,0.493-2.028,0.956-2.983,3.343c-0.585,1.462,0.554,6.146,0.904,8.074l3.154,18.065l-10.266,4.894
		C405.488,328.518,399.077,293.645,399.162,293.545z"/>
</g>
</svg>
