<?xml version="1.0" encoding="UTF-8"?>
<svg xmlns="http://www.w3.org/2000/svg" xmlns:xlink="http://www.w3.org/1999/xlink" width="596pt" height="596pt" viewBox="0 0 596 596" version="1.1">
<g id="surface1">
<path style=" stroke:none;fill-rule:evenodd;fill:rgb(100%,100%,100%);fill-opacity:1;" d="M 0 0.417969 L 595.277344 0.417969 L 595.277344 595.691406 L 0 595.691406 L 0 0.417969 "/>
<path style=" stroke:none;fill-rule:evenodd;fill:rgb(87.799072%,23.098755%,19.999695%);fill-opacity:1;" d="M 297.640625 175.828125 C 365.132813 175.828125 419.871094 230.5625 419.871094 298.054688 C 419.871094 365.550781 365.132813 420.285156 297.640625 420.285156 C 230.148438 420.285156 175.414063 365.550781 175.414063 298.054688 C 175.414063 230.5625 230.148438 175.828125 297.640625 175.828125 "/>
<path style=" stroke:none;fill-rule:evenodd;fill:rgb(13.699341%,12.199402%,12.5%);fill-opacity:1;" d="M 297.636719 173.363281 C 366.496094 173.363281 422.332031 229.199219 422.332031 298.058594 C 422.332031 366.910156 366.496094 422.75 297.636719 422.75 C 228.78125 422.75 172.945313 366.910156 172.945313 298.058594 C 172.945313 229.199219 228.78125 173.363281 297.636719 173.363281 Z M 417.40625 298.054688 C 417.40625 364.1875 363.773438 417.820313 297.640625 417.820313 C 231.507813 417.820313 177.878906 364.1875 177.878906 298.054688 L 417.40625 298.054688 "/>
<path style=" stroke:none;fill-rule:evenodd;fill:rgb(13.699341%,12.199402%,12.5%);fill-opacity:1;" d="M 297.636719 14.589844 C 454.164063 14.589844 581.101563 141.527344 581.101563 298.054688 C 581.101563 454.582031 454.164063 581.519531 297.636719 581.519531 C 141.109375 581.519531 14.171875 454.582031 14.171875 298.054688 C 14.171875 141.527344 141.109375 14.589844 297.636719 14.589844 Z M 297.636719 29.378906 C 445.996094 29.378906 566.3125 149.695313 566.3125 298.054688 C 566.3125 446.414063 445.996094 566.730469 297.636719 566.730469 C 149.277344 566.730469 28.964844 446.414063 28.964844 298.054688 C 28.964844 149.695313 149.277344 29.378906 297.636719 29.378906 "/>
<path style=" stroke:none;fill-rule:nonzero;fill:rgb(13.699341%,12.199402%,12.5%);fill-opacity:1;" d="M 147.367188 225.414063 L 87.164063 186.117188 L 91.464844 179.53125 L 99.820313 166.726563 C 104.347656 159.792969 108.757813 155.640625 113.085938 154.230469 C 117.398438 152.839844 122.386719 153.980469 128.019531 157.660156 C 134.382813 161.8125 137.703125 166.117188 137.984375 170.554688 C 138.113281 172.773438 137.476563 175.628906 136.074219 179.144531 L 136.539063 178.429688 C 138.894531 174.820313 141.777344 172.824219 145.179688 172.417969 C 148.59375 172.023438 152.28125 173.25 156.230469 176.140625 C 158.5 177.753906 160.910156 179.371094 163.464844 180.992188 C 166.128906 182.644531 168.171875 183.839844 169.605469 184.601563 C 171.023438 185.351563 172.160156 185.84375 173.003906 186.039063 L 168.703125 192.632813 L 164.40625 199.21875 C 163.605469 199.011719 162.523438 198.503906 161.121094 197.722656 C 159.722656 196.9375 157.699219 195.6875 155.019531 193.9375 L 147.71875 189.171875 C 144.746094 187.144531 142.222656 186.363281 140.148438 186.835938 C 138.078125 187.3125 136.007813 189.144531 133.9375 192.3125 L 131.429688 196.152344 L 156 212.191406 L 151.699219 218.777344 Z M 122.210938 190.136719 L 124.597656 186.484375 C 126.828125 183.0625 127.71875 180.394531 127.28125 178.488281 C 126.847656 176.578125 124.882813 174.46875 121.34375 172.15625 C 118.050781 170.011719 115.394531 169.144531 113.417969 169.570313 C 111.4375 169.988281 109.371094 171.847656 107.222656 175.140625 L 104.839844 178.796875 L 122.210938 190.136719 "/>
<path style=" stroke:none;fill-rule:nonzero;fill:rgb(13.699341%,12.199402%,12.5%);fill-opacity:1;" d="M 157.542969 105.871094 L 164.304688 101.925781 L 171.101563 97.960938 L 208.464844 140.699219 L 208.429688 140.714844 L 189.234375 87.386719 L 195.761719 83.582031 L 202.265625 79.785156 L 224.15625 150.25 L 216.179688 154.898438 L 208.160156 159.578125 L 157.542969 105.871094 "/>
<path style=" stroke:none;fill-rule:nonzero;fill:rgb(13.699341%,12.199402%,12.5%);fill-opacity:1;" d="M 279.316406 77.664063 C 279.410156 72.378906 281.253906 68.203125 284.871094 65.1875 C 288.464844 62.15625 293.320313 60.691406 299.398438 60.800781 C 305.308594 60.902344 310.039063 62.363281 313.605469 65.15625 C 317.195313 67.949219 318.9375 71.585938 318.859375 76.035156 C 318.789063 80.101563 317.082031 83.882813 313.734375 87.351563 C 311.324219 89.78125 308.09375 92.125 304.046875 94.363281 L 318.097656 111.816406 C 318.390625 110.96875 318.632813 110.105469 318.796875 109.222656 C 319.527344 105.773438 319.898438 100.660156 319.90625 93.933594 L 325.703125 94.035156 L 331.480469 94.136719 C 331.824219 101.152344 331.34375 107.160156 330.007813 112.164063 C 329.066406 115.699219 327.671875 118.753906 325.835938 121.378906 L 336.128906 134.070313 L 328.394531 133.933594 L 320.636719 133.796875 L 316.890625 129.382813 C 315.234375 130.359375 313.464844 131.25 311.605469 132.035156 C 307.304688 133.753906 302.644531 134.554688 297.613281 134.464844 C 290.210938 134.335938 284.300781 132.351563 279.855469 128.5 C 275.390625 124.644531 273.222656 119.632813 273.332031 113.445313 C 273.421875 108.3125 274.746094 104.195313 277.316406 101.078125 C 279.222656 98.800781 282.492188 96.246094 287.132813 93.40625 C 285.054688 90.742188 283.433594 88.363281 282.222656 86.222656 C 280.25 82.796875 279.277344 79.945313 279.316406 77.664063 Z M 299.902344 125.289063 C 303.035156 125.34375 305.691406 124.816406 307.910156 123.691406 L 310.722656 121.914063 L 293.71875 101.542969 C 292.097656 102.574219 290.792969 103.59375 289.824219 104.640625 C 287.867188 106.742188 286.847656 109.453125 286.789063 112.777344 C 286.726563 116.449219 287.882813 119.441406 290.285156 121.746094 C 292.6875 124.03125 295.894531 125.21875 299.902344 125.289063 Z M 292.785156 76.429688 C 292.757813 77.953125 293.339844 79.757813 294.550781 81.816406 C 295.332031 83.078125 296.441406 84.699219 297.917969 86.65625 C 299.578125 85.660156 300.953125 84.65625 302.054688 83.613281 C 304.253906 81.585938 305.359375 79.359375 305.398438 76.960938 C 305.4375 74.890625 304.886719 73.214844 303.769531 71.941406 C 302.640625 70.652344 301.136719 70 299.238281 69.964844 C 297.296875 69.933594 295.738281 70.507813 294.5625 71.671875 C 293.40625 72.835938 292.820313 74.425781 292.785156 76.429688 "/>
<path style=" stroke:none;fill-rule:nonzero;fill:rgb(13.699341%,12.199402%,12.5%);fill-opacity:1;" d="M 359.082031 140.84375 L 412.972656 91.464844 L 428.488281 100.246094 L 408.601563 171.582031 L 394.78125 163.273438 L 400.191406 148.585938 L 382.988281 137.859375 L 371.851563 149.15625 L 365.488281 145.015625 Z M 413.496094 106.523438 L 390.578125 130.035156 L 403.796875 137.984375 L 413.496094 106.523438 "/>
<path style=" stroke:none;fill-rule:nonzero;fill:rgb(13.699341%,12.199402%,12.5%);fill-opacity:1;" d="M 481.65625 144.039063 L 486.03125 150.53125 L 490.433594 157.058594 L 450.230469 197.128906 L 450.210938 197.097656 L 502.171875 174.460938 L 506.394531 180.722656 L 510.605469 186.964844 L 441.722656 213.410156 L 436.566406 205.757813 L 431.371094 198.0625 L 481.65625 144.039063 "/>
<path style=" stroke:none;fill-rule:nonzero;fill:rgb(13.699341%,12.199402%,12.5%);fill-opacity:1;" d="M 66.503906 365.359375 L 132.558594 336.980469 L 147.765625 372.371094 L 142.859375 374.480469 L 137.941406 376.59375 L 128.964844 355.710938 L 111.503906 363.214844 L 120.175781 383.394531 L 115.269531 385.503906 L 110.347656 387.617188 L 101.679688 367.4375 L 82.566406 375.648438 L 91.707031 396.921875 L 86.800781 399.03125 L 81.878906 401.144531 L 66.503906 365.359375 "/>
<path style=" stroke:none;fill-rule:nonzero;fill:rgb(13.699341%,12.199402%,12.5%);fill-opacity:1;" d="M 95.917969 426.78125 L 136.253906 417.421875 L 153.117188 383.191406 L 158.152344 389.5 L 163.203125 395.824219 L 150.976563 418.574219 L 175.902344 411.71875 L 180.609375 417.617188 L 185.328125 423.515625 L 147.390625 432.507813 L 129.628906 468.984375 L 124.859375 463.011719 L 120.089844 457.035156 L 132.613281 432.285156 L 105.4375 438.699219 L 100.691406 432.753906 L 95.917969 426.78125 "/>
<path style=" stroke:none;fill-rule:nonzero;fill:rgb(13.699341%,12.199402%,12.5%);fill-opacity:1;" d="M 204.667969 492.628906 L 203.503906 494.425781 C 199.035156 501.578125 194.359375 505.695313 189.484375 506.800781 C 184.59375 507.898438 178.664063 506.179688 171.671875 501.640625 C 164.246094 496.816406 160.085938 491.792969 159.152344 486.546875 C 158.234375 481.320313 160.363281 474.722656 165.527344 466.773438 L 177.59375 448.191406 C 182.789063 440.183594 187.976563 435.523438 193.121094 434.242188 C 198.292969 432.953125 204.578125 434.714844 212.003906 439.535156 C 218.445313 443.722656 222.234375 448.359375 223.367188 453.429688 C 224.445313 458.171875 223.152344 463.34375 219.472656 468.941406 L 218.726563 470.09375 L 217.558594 471.886719 L 204.414063 463.347656 L 205.574219 461.554688 C 207.675781 458.457031 208.761719 455.824219 208.84375 453.679688 C 208.917969 451.511719 208.015625 449.824219 206.121094 448.59375 C 203.648438 446.988281 201.289063 446.722656 199.023438 447.78125 C 196.773438 448.851563 194.34375 451.398438 191.726563 455.421875 L 179.648438 474.019531 C 176.25 479.253906 174.398438 483.234375 174.078125 485.949219 C 173.761719 488.667969 174.925781 490.878906 177.554688 492.582031 C 179.585938 493.902344 181.671875 494.015625 183.808594 492.914063 C 185.933594 491.804688 188.125 489.453125 190.355469 485.882813 L 191.519531 484.089844 L 204.667969 492.628906 "/>
<path style=" stroke:none;fill-rule:nonzero;fill:rgb(13.699341%,12.199402%,12.5%);fill-opacity:1;" d="M 228.976563 525.964844 L 245.148438 455.914063 L 282.679688 464.578125 L 281.480469 469.78125 L 280.273438 474.996094 L 258.128906 469.886719 L 253.855469 488.40625 L 275.253906 493.347656 L 274.054688 498.546875 L 272.851563 503.769531 L 251.449219 498.828125 L 246.765625 519.097656 L 269.332031 524.304688 L 268.128906 529.507813 L 266.925781 534.726563 L 228.976563 525.964844 "/>
<path style=" stroke:none;fill-rule:nonzero;fill:rgb(13.699341%,12.199402%,12.5%);fill-opacity:1;" d="M 298.972656 535.984375 L 295.839844 464.15625 L 303.703125 463.816406 L 311.617188 463.46875 L 314.28125 524.613281 L 334.304688 523.738281 L 334.539063 529.070313 L 334.769531 534.425781 L 298.972656 535.984375 "/>
<path style=" stroke:none;fill-rule:nonzero;fill:rgb(13.699341%,12.199402%,12.5%);fill-opacity:1;" d="M 369.507813 473.003906 L 368.59375 471.066406 C 367.023438 467.597656 365.425781 465.386719 363.777344 464.4375 C 362.113281 463.488281 360.0625 463.59375 357.582031 464.761719 C 355.152344 465.90625 353.628906 467.4375 353.027344 469.3125 C 352.429688 471.191406 352.742188 473.429688 353.972656 476.035156 C 354.929688 478.066406 356.480469 479.472656 358.613281 480.238281 C 360.703125 481 363.910156 481.332031 368.246094 481.210938 C 376.804688 481.003906 383.203125 481.714844 387.425781 483.378906 C 391.679688 485.003906 394.824219 488 396.863281 492.328125 C 399.945313 498.855469 400.421875 504.59375 398.308594 509.550781 C 396.210938 514.5 391.492188 518.703125 384.191406 522.144531 C 376.230469 525.902344 369.894531 527.117188 365.222656 525.765625 C 360.550781 524.433594 356.65625 520.460938 353.558594 513.886719 L 353.277344 513.289063 L 352.363281 511.351563 L 366.445313 504.714844 L 367.355469 506.648438 C 368.769531 509.808594 370.5 511.875 372.539063 512.835938 C 374.578125 513.777344 376.917969 513.636719 379.585938 512.378906 C 382.183594 511.152344 383.785156 509.53125 384.398438 507.511719 C 385.015625 505.488281 384.644531 503.050781 383.304688 500.203125 C 382.300781 498.082031 380.667969 496.617188 378.371094 495.820313 C 376.09375 495.007813 372.613281 494.664063 367.902344 494.773438 C 359.722656 495 353.578125 494.300781 349.523438 492.695313 C 345.457031 491.113281 342.433594 488.191406 340.4375 483.964844 C 337.460938 477.652344 337.058594 472.078125 339.226563 467.230469 C 341.375 462.386719 346.113281 458.226563 353.414063 454.785156 C 360.917969 451.25 366.921875 450.203125 371.378906 451.664063 C 375.585938 453.0625 379.117188 456.835938 381.984375 463.003906 L 382.675781 464.425781 L 383.589844 466.363281 L 369.507813 473.003906 "/>
<path style=" stroke:none;fill-rule:nonzero;fill:rgb(13.699341%,12.199402%,12.5%);fill-opacity:1;" d="M 432.402344 497.238281 L 389.132813 439.820313 L 395.417969 435.085938 L 401.746094 430.320313 L 445.015625 487.734375 L 438.730469 492.46875 L 432.402344 497.238281 "/>
<path style=" stroke:none;fill-rule:nonzero;fill:rgb(13.699341%,12.199402%,12.5%);fill-opacity:1;" d="M 482.457031 450.257813 C 476.929688 457.078125 471.617188 460.742188 466.5 461.230469 C 461.382813 461.714844 455.339844 459.148438 448.394531 453.523438 L 425.390625 434.894531 C 420.1875 430.683594 417.546875 425.980469 417.464844 420.773438 C 417.394531 415.585938 419.859375 409.882813 424.910156 403.652344 C 429.953125 397.421875 435.027344 393.808594 440.132813 392.78125 C 445.253906 391.769531 450.402344 393.371094 455.601563 397.582031 L 478.609375 416.214844 C 485.554688 421.839844 489.320313 427.214844 489.90625 432.320313 C 490.496094 437.429688 488.007813 443.402344 482.457031 450.257813 Z M 474.0625 443.460938 C 476.015625 441.050781 476.621094 438.785156 475.898438 436.664063 C 475.171875 434.519531 472.925781 431.933594 469.15625 428.878906 L 446.140625 410.242188 C 443.628906 408.203125 441.273438 407.210938 439.109375 407.257813 C 436.929688 407.296875 434.992188 408.363281 433.300781 410.449219 C 431.613281 412.539063 430.96875 414.65625 431.398438 416.78125 C 431.816406 418.890625 433.289063 420.96875 435.800781 423.003906 L 458.816406 441.644531 C 462.589844 444.699219 465.585938 446.355469 467.835938 446.621094 C 470.0625 446.882813 472.140625 445.835938 474.0625 443.460938 "/>
<path style=" stroke:none;fill-rule:nonzero;fill:rgb(13.699341%,12.199402%,12.5%);fill-opacity:1;" d="M 513.019531 400.109375 L 445.90625 374.34375 L 448.726563 367 L 454.203125 352.726563 C 457.171875 344.996094 460.613281 340.007813 464.542969 337.71875 C 468.46875 335.453125 473.585938 335.523438 479.867188 337.933594 C 486.964844 340.660156 491.113281 344.164063 492.320313 348.445313 C 492.910156 350.589844 492.886719 353.515625 492.257813 357.246094 L 492.5625 356.449219 C 494.105469 352.425781 496.503906 349.871094 499.746094 348.757813 C 503 347.652344 506.859375 348.074219 511.332031 350.070313 C 513.890625 351.171875 516.589844 352.246094 519.425781 353.300781 C 522.375 354.351563 524.621094 355.09375 526.1875 355.53125 C 527.730469 355.96875 528.941406 356.210938 529.8125 356.226563 L 526.996094 363.570313 L 524.175781 370.917969 C 523.347656 370.882813 522.1875 370.613281 520.648438 370.144531 C 519.117188 369.675781 516.871094 368.875 513.886719 367.726563 L 505.753906 364.605469 C 502.414063 363.246094 499.785156 363.011719 497.855469 363.910156 C 495.929688 364.808594 494.292969 367.035156 492.9375 370.566406 L 491.292969 374.851563 L 518.683594 385.367188 L 515.863281 392.710938 Z M 481.015625 370.90625 L 482.578125 366.835938 C 484.039063 363.023438 484.351563 360.226563 483.523438 358.449219 C 482.695313 356.675781 480.328125 355.027344 476.386719 353.511719 C 472.714844 352.101563 469.9375 351.816406 468.09375 352.644531 C 466.246094 353.472656 464.617188 355.722656 463.210938 359.398438 L 461.644531 363.472656 L 481.015625 370.90625 "/>
<path style=" stroke:none;fill-rule:evenodd;fill:rgb(13.699341%,12.199402%,12.5%);fill-opacity:1;" d="M 181.835938 162.769531 C 185.933594 162.769531 189.253906 166.089844 189.253906 170.183594 C 189.253906 174.28125 185.933594 177.601563 181.835938 177.601563 C 177.746094 177.601563 174.425781 174.28125 174.425781 170.183594 C 174.425781 166.089844 177.746094 162.769531 181.835938 162.769531 "/>
<path style=" stroke:none;fill-rule:evenodd;fill:rgb(13.699341%,12.199402%,12.5%);fill-opacity:1;" d="M 238.925781 128.878906 C 243.019531 128.878906 246.339844 132.199219 246.339844 136.289063 C 246.339844 140.386719 243.019531 143.707031 238.925781 143.707031 C 234.832031 143.707031 231.511719 140.386719 231.511719 136.289063 C 231.511719 132.199219 234.832031 128.878906 238.925781 128.878906 "/>
<path style=" stroke:none;fill-rule:evenodd;fill:rgb(13.699341%,12.199402%,12.5%);fill-opacity:1;" d="M 421.816406 168.867188 C 425.914063 168.867188 429.234375 172.1875 429.234375 176.277344 C 429.234375 180.375 425.914063 183.695313 421.816406 183.695313 C 417.726563 183.695313 414.40625 180.375 414.40625 176.277344 C 414.40625 172.1875 417.726563 168.867188 421.816406 168.867188 "/>
<path style=" stroke:none;fill-rule:evenodd;fill:rgb(13.699341%,12.199402%,12.5%);fill-opacity:1;" d="M 454.328125 216.265625 C 458.425781 216.265625 461.742188 219.585938 461.742188 223.675781 C 461.742188 227.773438 458.425781 231.09375 454.328125 231.09375 C 450.234375 231.09375 446.914063 227.773438 446.914063 223.675781 C 446.914063 219.585938 450.234375 216.265625 454.328125 216.265625 "/>
</g>
</svg>