<svg version="1.1" xmlns="http://www.w3.org/2000/svg" xml:space="preserve" overflow="visible" width="200" height="250.59" viewBox="0 0 200 250.594" enable-background="new 0 0 200 250.594">
<title>Standard Athletic Club</title>
<path d="M4.494,26.873l13.325,2.454c25.257,1.912,58.731-10.541,78.088-26.368l3.942-2.959,7.886,5.923c20.499,16.999,53.325,25.316,79.367,22.665l8.605-0.99,1.465,9.852,0.738,8.632c3.624,25.658,2.959,52.39-5.406,77.116l-4.957,15.517-7.378,17.505c-14.713,31.943-33.879,57.119-60.844,79.582l-7.15,5.673-12.326,9.118-8.158-5.674c-67-52.748-103.6-128.54-88.196-214.36l0.994-3.687" fill="#EFAD28"/>
<polyline points="16.332,121.55,100.35,121.48,100.58,237.65,88.778,228.91,78.545,219.3,65.262,205.83,54.121,192.85,38.84,171.32,27.493,151.64,19.455,129.95,16.332,121.55" fill="#1F4E9C"/>
<path d="M174.25,148.42l-7.361,15.119c-12.422,22.287-30.862,43.049-49.286,60.433l-17.257,13.444-0.122-115.9,84.718-0.372-2.623,8.212-8.07,19.07" fill="#E93A51"/>
<path d="M10.656,53.465l2.721-15.635,18.979,1.105c17.405,1.405,47.625-10.643,61.359-21.43l6.134-4.445,0.503,108.41-83.601,0.179-2.725-10.112-2.435-14.479-1.329-13.12-0.342-12.819,0.738-17.657" fill="#E93A51"/>
<polyline points="99.753,12.317,99.849,50.989,100.35,121.48,185.19,121.4,187.46,111.12,189.53,99.924,191.77,81.072,191.37,57.543,188.44,37.59,177.84,38.936,164.05,38.198,140.38,34.225,123.89,28.221,112.18,21.072" fill="#FFF"/>
<path d="M43.956,50.631l-2.264-0.363-3.182-0.61-2.955-1.735-2.238-2.089-1.713-0.856-4.548-0.376-0.503,0.717,0.614,0.765,0.748,0.619-0.636,0.841-0.846,0.38-0.38,0.756,1.737,0.107,0.367,0.734-0.367,0.505,1.722-0.129,1.862,0.5,2.19,0.848,1.991,1.124,0.995,0.459,0.719,1.005-0.487,0.988-2.34,0.863-2.089,0.618h-2.943l-0.88-0.618-0.739-0.737-1.357,0.118-1.097,0.878-0.621,0.841v1.132l1.091,0.605h3.09l3.811,0.629,1.849,0.114,3.464-0.376,1.72-1.115h2.69l2.247,0.402c4.703,1.062,10.469-0.829,15.012-2.234l2.229-0.26,0.992-0.243,0.712,1.232,0.999,0.868v0.854l-1.097,0.494c-5.072,0.563-7.225-1.742-10.379,0.616l-0.726,0.748,0.726,1.105c7.54,1.276,8.543-0.791,14.783-0.863l1.733-0.242,0.509-0.988-0.743-0.743-0.603-1.349,0.249-1.123,1.208-0.367,3.095,0.5,6.891,2.091,0.734,0.614-0.372,0.492-0.728,0.38h-3.075l-0.618,0.375-0.136,0.842,1.224,0.997,3.705,0.122h2.113l1.337-0.988v-1.348l-0.129-1.366-1.105-0.988-1.947-1.106-4.332-1.355-0.865-1.219,1.224-1.854,1.252-0.258,1.718-0.494,0.363-1.097c0.372-10.18-17.038-0.734-21.538-3.7l-0.629-1.23,1.471-1.724,1.254-0.724h2.211l1.842,0.105,1.222,0.494,1.464,0.479h1.733l1.602-0.354,0.999-0.243h1.373l1.327,0.118-2.104-1.464-1.11-1.11-1.464-0.756-1.09,0.255-1.128,0.247-2.301,0.599-2.365,0.14-1.729,0.114-1.857,0.634-1.351,0.356-0.986,0.872-0.367,0.986-0.231,1.72,0.465,1.102,1.248,0.89,1.342,0.59,1.858,0.125,2.955-0.616,2.457-0.38,3.079-0.721,2.472-0.245h1.23l1.482,0.245,1.235,0.861,1.239,0.997,0.221,0.979-0.863,0.739-1.473,0.131-4.297-0.631h-5.909l-2.483,0.372-3.818,1.348-3.326,0.988-2.332,0.223-1.355-1.32,0.116-1.61,0.256-1.598,0.854-1.478,0.734-0.854-1.589-0.389,0.594-2.207-0.223-0.99-1.224-1.114-0.988,0.243-0.404,0.496-0.479-1.086s-1.606-0.247-2.085-0.247c-0.509,0-3.468-0.253-3.468-0.253l-2.57,0.376-1.213,0.603-0.5,0.983,0.107,0.811,0.599,0.533,1.307,0.568,0.797,0.234-0.125,0.791-0.918-0.111c-2.994-0.855-5.582-0.175-4.257-3.989l0.394-0.424-0.505-0.376-0.868,0.734c-2.172,4.515,2.166,4.305,5.335,4.989l1.261,0.291-0.179,0.314-1.556,0.302,0.184,0.572,0.927,0.123h0.992l0.494,0.319-0.05,0.907-0.1,1.657" fill="#EFAD28"/>
<path d="M44.277,73.91l-2.192-0.376-3.208-0.61-2.959-1.705-2.225-2.111-1.724-0.853-4.559-0.367-0.465,0.726,0.572,0.756,0.756,0.614-0.605,0.846-0.859,0.389-0.376,0.748,1.72,0.118,0.372,0.723-0.372,0.505,1.731-0.146,1.822,0.505,2.243,0.861,1.969,1.114,0.988,0.5,0.721,0.973-0.487,0.997-2.336,0.861-2.096,0.604h-2.944l-0.867-0.604-0.743-0.747-1.344,0.133-1.11,0.876-0.625,0.842v1.105l1.104,0.619h3.075l3.855,0.612,1.812,0.136,3.459-0.376,1.733-1.106h2.69l2.238,0.376c5.147,1.075,10.093-0.815,15.03-2.208l2.188-0.262,1.007-0.238,0.739,1.23,0.97,0.846v0.863l-1.064,0.498c-5.066,0.603-7.346-1.759-10.383,0.629l-0.739,0.734,0.739,1.106c7.433,1.285,8.615-0.787,14.77-0.859l1.737-0.247,0.5-0.988-0.726-0.748-0.621-1.375,0.24-1.082,1.226-0.372,3.071,0.494,6.906,2.091,0.761,0.614-0.389,0.483-0.734,0.385h-3.079l-0.616,0.354-0.14,0.868,1.222,0.988,3.737,0.118h2.078l1.355-0.988v-1.34l-0.111-1.366-1.141-0.984-1.943-1.114-4.332-1.351-0.865-1.237,1.222-1.831,1.259-0.262,1.718-0.507,0.372-1.08c0.286-10.2-16.99-0.71-21.546-3.708l-0.639-1.232,1.51-1.733,1.226-0.729h2.196l1.862,0.129,1.208,0.494,1.473,0.492h1.737l1.606-0.385,0.983-0.242h1.361l1.375,0.135-2.135-1.482-1.102-1.101-1.469-0.756-1.095,0.269-1.13,0.242-2.321,0.612-2.356,0.113-1.709,0.131-1.853,0.629-1.37,0.352-0.979,0.854-0.367,0.985-0.238,1.729,0.466,1.114,1.263,0.872,1.366,0.619,1.803,0.118,2.977-0.612,2.489-0.389,3.055-0.722,2.467-0.258h1.226l1.478,0.258,1.226,0.837,1.252,1.021,0.243,0.957-0.892,0.748-1.444,0.136-4.319-0.641h-5.909l-2.457,0.367-3.84,1.366-3.326,0.97-2.31,0.277-1.373-1.37,0.111-1.611,0.26-1.576,0.846-1.482,0.739-0.872-1.584-0.372,0.612-2.229-0.26-0.977-1.222-1.102-0.979,0.24-0.363,0.503-0.498-1.124s-1.642-0.231-2.089-0.231c-0.496,0-3.459-0.245-3.459-0.245l-2.588,0.372-1.252,0.616-0.483,0.971,0.15,0.822,0.573,0.54,1.312,0.551,0.811,0.243-0.133,0.8-0.931-0.116c-2.919-0.841-5.658-0.175-4.227-3.997l0.358-0.429-0.5-0.372-0.868,0.726c-2.109,4.559,2.116,4.282,5.326,4.99l1.27,0.321-0.192,0.306-1.53,0.308,0.201,0.564,0.914,0.116h0.983l0.503,0.324-0.09,0.909-0.118,1.647" fill="#EFAD28"/>
<path d="M44.277,98.569l-2.192-0.389-3.208-0.621-2.959-1.713-2.225-2.081-1.724-0.866-4.559-0.365-0.465,0.723,0.572,0.734,0.756,0.632-0.605,0.85-0.859,0.372-0.376,0.734,1.72,0.126,0.372,0.743-0.372,0.496,1.731-0.125,1.822,0.505,2.243,0.841,1.969,1.115,0.988,0.492,0.721,0.99-0.487,0.988-2.336,0.848-2.096,0.625h-2.944l-0.867-0.625-0.743-0.721-1.344,0.116-1.11,0.85-0.625,0.87v1.105l1.104,0.629h3.075l3.855,0.612,1.812,0.135,3.459-0.389,1.733-1.11h2.69l2.238,0.376c4.865,1.18,10.272-0.837,15.03-2.229l2.188-0.245,1.007-0.229,0.739,1.222,0.97,0.883v0.872l-1.064,0.461c-5.103,0.56-7.394-1.661-10.383,0.612l-0.739,0.747,0.739,1.124c7.33,1.254,8.611-0.726,14.77-0.863l1.737-0.26,0.5-0.97-0.726-0.748-0.621-1.379,0.24-1.108,1.226-0.363,3.071,0.518,6.906,2.083,0.761,0.607-0.389,0.507-0.734,0.356h-3.079l-0.616,0.387-0.14,0.865,1.222,0.986,3.737,0.116h2.078l1.355-0.988v-1.366l-0.111-1.324-1.141-1.007-1.943-1.115-4.332-1.346-0.865-1.241,1.222-1.849,1.259-0.223,1.718-0.525,0.372-1.095c0.247-10.204-16.99-0.693-21.546-3.711l-0.636-1.239,1.51-1.696,1.226-0.743h2.196l1.862,0.125,1.208,0.496,1.473,0.49h1.737l1.605-0.36,0.983-0.251h1.361l1.375,0.129-2.135-1.481-1.102-1.115-1.469-0.739-1.095,0.243-1.13,0.251-2.321,0.612-2.356,0.145-1.709,0.125-1.853,0.601-1.37,0.359-0.979,0.872-0.367,0.966-0.238,1.75,0.466,1.093,1.263,0.863,1.366,0.636,1.803,0.107,2.977-0.618,2.489-0.372,3.055-0.726,2.467-0.249h1.226l1.478,0.249,1.226,0.861,1.252,0.971,0.243,0.979-0.892,0.767-1.444,0.116-4.319-0.621h-5.909l-2.457,0.358-3.84,1.386-3.326,0.957-2.31,0.251-1.373-1.357,0.111-1.595,0.26-1.608,0.846-1.464,0.739-0.872-1.584-0.38,0.612-2.194-0.26-1.003-1.222-1.08-0.979,0.225-0.363,0.496-0.498-1.102s-1.642-0.256-2.089-0.256c-0.496,0-3.459-0.245-3.459-0.245l-2.588,0.376-1.252,0.612-0.483,0.973,0.15,0.815,0.573,0.555,1.312,0.542,0.811,0.249-0.133,0.8-0.931-0.118c-2.95-0.866-5.649-0.179-4.227-4.017l0.358-0.411-0.5-0.376-0.868,0.756c-2.144,4.454,2.184,4.323,5.326,4.963l1.27,0.308-0.192,0.315-1.53,0.313,0.201,0.563,0.914,0.121h0.983l0.503,0.292-0.09,0.936-0.12,1.667" fill="#EFAD28"/>
<path d="M123.12,138.31l-2.229-0.35-3.265-0.607-3.024-1.695-2.229-2.072-1.762-0.848-4.62-0.358-0.498,0.726,0.595,0.726,0.752,0.607-0.56,0.433-0.988,0.323,0.21,0.748,1.211,0.572,0.394,0.721-0.394,0.485,1.862-0.629,1.717,0.568,2.466,1.058,2.028,0.747,1.188,0.734,0.415,1.264-0.52,0.996-2.125,0.455-2.631,0.41-3.681-0.219-0.878-0.59-0.761-0.738-1.386,0.118-1.146,0.835-0.603,0.869v1.089l1.127,0.594h3.121l5.525,0.932,2.53-0.101,2.313-0.971,2.129-0.494,1.485-0.157,2.304,0.651,2.999,0.062h2.701l1.879-0.358,2.216-0.42,2.558-0.406,1.582-0.577,2.426-0.528,1.928-0.398,1.202,0.314,1.114,1.281,0.358,1.001-0.253,0.717-0.796,0.205c-3.527,0.14-8.257-2.295-11.137,0.612l0.096,1.167,1.066,0.528,1.774-0.034,2.05,0.113h3.598l4.476-0.607,2.562-0.38,1.766-0.254,0.455-0.358-0.014-1.285-0.917-0.734-0.201-1.146,1.245-0.358,3.974,0.026,6.193,1.937,0.729,1.202-0.362,0.468-0.787-0.148-2.395-0.293-1.023,0.69,0.192,1.215,1.04,0.507,3.436,0.141,2.02-0.175,1.368-0.232,0.651-1.254-0.262-1.395-0.909-1.831-2.317-0.997-4.195-0.962-0.831-0.922,0.643-1.727,1.229-0.253,2.028-0.49,0.795-1.022,0.114-1.6-1.285-1.259-1.276-0.975-2.142-0.844-1.486-0.127-2.479-0.118c-5.63,0.997-6.486,2.055-12.934,1.679l-1.119-0.468-0.463-1.451,1.354-1.464c9.074-2.824,3.742,3.072,13.899-0.219l1.359,0.096-2.098-1.451-1.102-0.927-1.587-0.48-1.127,0.092-1.176,0.148-2.4,0.66-2.119,0.127-3.523,0.454-1.639,0.424-1.01,0.857-0.372,0.961-0.253,1.688,0.498,1.105,1.25,0.84,1.398,0.581,1.862,0.145,3.016-0.599,2.479-0.367,3.143-0.752,2.496-0.21h1.259l1.517,0.21,1.398,0.45,1.954,1.193,0.354,1.136-1.565,0.752-1.766,0.136-4.782-0.8-4.921-0.088-3.209,0.643-3.868,1.334-3.107,0.729-2.229,0.092-1.485-0.9-0.219-1.635,0.271-1.556,0.865-1.486,0.761-0.835-1.626-0.376,0.621-2.172-0.254-0.971-1.232-1.089-1.014,0.245-0.35,0.472-0.521-1.079s-1.622-0.254-2.129-0.254c-0.502,0-3.487-0.244-3.487-0.244l-2.649,0.389-1.271,0.604-0.494,0.957,0.162,0.804,0.581,0.542,1.346,0.542,0.787,0.245-0.104,0.787-0.936-0.127c-2.846-0.87-5.787-0.079-4.301-3.951l0.341-0.402-0.521-0.389-0.844,0.734c-2.264,4.506,2.304,4.227,5.377,4.93l1.319,0.307-0.192,0.288-1.564,0.314,0.196,0.547,0.914,0.127h1.005l0.529,0.314-0.092,0.892-0.12,1.64" fill="#EFAD28"/>
<path d="M121.85,161.08l-2.177-0.057-3.117-0.594-2.828-1.626-2.202-1.954-1.644-0.835-4.406-0.332-0.507,0.699,1.294,0.826,0.026,0.45-0.551,0.411-0.962,0.314,0.271,0.708,1.115,0.546,0.38,0.695-0.38,0.45,1.77-0.586,1.661,0.556,2.339,1.014,1.979,0.726,1.067,0.678,0.384,1.229-0.459,0.935-1.988,0.468-2.636,0.188-2.198-0.088-1.587-0.493-1.211-0.743-1.312,0.148-0.742,0.765-0.158,0.822v0.83l0.293,0.848h2.999l5.249,0.853,2.413-0.074,2.198-0.962,2.063-0.463,1.386-0.148,2.202,0.611,2.851,0.083h2.622l1.774-0.358,2.09-0.389,2.465-0.372,1.495-0.555,2.352-0.503,1.796-0.41,1.167,0.318,1.054,1.216,0.376,0.97-0.24,0.683-0.805,0.205-1.608-0.092-3.033-0.494h-3.637l-1.381,0.302-0.936,0.883,0.078,1.084,0.997,0.494c6.657,0.311,8.912-0.014,15.508-1.102l0.438-0.328v-1.232l-0.892-0.708-0.175-1.093,1.311-1.105,3.672,0.786,6.163,1.762,0.874,1.036-0.787,0.664-0.773-0.153-2.264-0.275-1.351,0.49,0.542,1.324,0.979,0.494,3.313,0.113,1.914-0.145,1.325-0.227,0.594-1.181-0.231-1.346-0.865-1.788-2.221-0.936-3.999-0.948-0.809-0.865,0.607-1.644,1.202-0.254,1.905-0.463,0.778-0.971,0.104-1.547-1.232-1.207-1.202-0.913-2.05-0.817-1.407-0.118-2.404-0.109c-5.363,0.953-6.206,1.958-12.335,1.604l-1.062-0.45-0.415-1.395,1.25-1.421c8.602-2.64,3.732,2.96,13.278-0.2l1.32,0.108-2.037-1.385-1.049-0.905-1.508-0.441-1.063,0.044-1.102,0.166-2.316,0.638-2.037,0.123-1.582,0.175-1.739,0.24-1.591,0.42-0.953,0.817-0.367,0.922-0.254,1.635,0.503,1.036,1.202,0.804,1.294,0.604,1.818,0.104,2.841-0.594,2.391-0.342,3.012-0.703,2.387-0.205h1.188l1.416,0.205,1.355,0.437,1.862,1.124,0.358,1.105-1.478,0.708-1.723,0.136-4.563-0.756-4.721-0.088-3.038,0.599-3.697,1.276-2.99,0.726-2.129,0.079-1.372-0.861-0.219-1.556,0.254-1.525,0.844-1.403,0.733-0.8-1.577-0.358,0.577-2.107-0.219-0.9-1.189-1.049-0.957,0.21-0.371,0.489-0.464-1.062s-1.569-0.219-2.045-0.219c-0.446,0-3.331-0.258-3.331-0.258l-2.491,0.35-1.216,0.586-0.48,0.952,0.109,0.726,0.595,0.551,1.245,0.529,0.805,0.231-0.122,0.752-0.918-0.118c-2.763-0.826-5.438-0.153-4.101-3.776l0.376-0.433-0.498-0.35-0.839,0.708c-2.177,4.301,2.237,4.069,5.153,4.721l1.228,0.275-0.157,0.293-1.495,0.314,0.167,0.521,0.926,0.122h0.936l0.468,0.284,0.599,1.04-0.7,1.14" fill="#EFAD28"/>
<path d="M118.46,182.95l-1.644-0.026-2.295-0.42-2.15-1.167-1.587-1.385-1.259-0.586-3.273-0.254-0.35,0.494,0.918,0.604,0.074,0.318-0.441,0.28-0.695,0.245,0.153,0.498,0.892,0.385,0.249,0.507-0.249,0.314,1.303-0.437,1.219,0.397,1.744,0.712,1.442,0.499,0.813,0.524,0.297,0.856-0.358,0.646-1.486,0.337-1.976,0.136-1.621-0.057-1.158-0.346-0.914-0.516-0.975,0.078-0.551,0.564-0.118,0.56v0.581l0.214,0.625h2.247c9.069,2.041,4.214-1.613,13.681-0.07h1.924l1.324-0.253,1.569-0.267,1.853-0.284,1.084-0.397,1.74-0.354,1.346-0.275,0.893,0.219,0.786,0.865,0.254,0.673-0.18,0.49-0.607,0.126-1.171-0.018-2.256-0.389h-2.731l-1.01,0.236-0.708,0.604,0.065,0.777,0.734,0.358c4.899,0.21,6.714-0.061,11.543-0.777l0.333-0.254-0.018-0.865-0.634-0.481-0.157-0.795,0.983-0.77,2.731,0.529,4.611,1.245,0.612,0.748-0.582,0.476-0.572-0.104-1.696-0.192-0.979,0.346,0.402,0.918,0.733,0.38,2.448,0.079,1.434-0.123,1.01-0.157,0.394-0.83-0.153-0.949-0.638-1.276-1.684-0.659-2.968-0.669-0.576-0.621,0.45-1.176,0.896-0.161,1.425-0.337,0.551-0.669,0.105-1.119-0.944-0.839c-4.516-3.755-10.285,1.342-15.193-0.581l-0.337-1.001,0.975-0.975c6.242-1.924,2.867,2.094,9.835-0.157l0.987,0.087-1.485-1.01-0.787-0.62-1.123-0.319-0.8,0.053-0.84,0.117-1.7,0.442-1.517,0.083-1.171,0.126-1.32,0.166-1.189,0.289-0.69,0.586-0.258,0.651-0.179,1.158,0.341,0.756,0.874,0.555,1.022,0.433,1.32,0.058,2.133-0.416,1.774-0.231,2.229-0.48,1.774-0.157h0.909l1.032,0.157,1.005,0.284,1.386,0.786,0.293,0.783-1.163,0.52-1.241,0.088-3.414-0.547-3.483-0.061-2.246,0.445-2.771,0.896-2.212,0.489-1.6,0.065-1.031-0.586-0.145-1.11,0.153-1.066,0.643-0.987,0.524-0.595-1.167-0.258,0.472-1.473-0.184-0.674-0.892-0.733-0.734,0.166-0.24,0.336-0.346-0.734-1.534-0.17-2.486-0.157-1.858,0.235-0.892,0.411-0.354,0.646,0.078,0.542,0.468,0.385,0.914,0.376,0.594,0.148-0.078,0.529-0.674-0.074c-1.888-0.639-4.169,0.018-3.077-2.675l0.298-0.289-0.406-0.235-0.591,0.484c-1.612,3.082,1.792,2.907,3.82,3.327l0.927,0.209-0.148,0.219-1.093,0.188,0.109,0.385,0.682,0.091h0.713l0.376,0.206,0.406,0.729-0.46,0.74" fill="#EFAD28"/>
<path d="M139.97,40.449l-2.15,0.103-1.805-0.103-1.548-0.158-0.966-0.896-1.088-0.765-0.324,0.271-0.668,1.307-1.054,0.643-1.486,0.166-0.402,0.429-1.639-0.177-1.181,0.177-1.219,0.56c-0.905,2.391-0.861,3.256,0.546,5.273l0.568,0.802,0.323,0.883h-4.511l-1.005-0.546-0.065-0.592,0.41-1.091,0.232-1.311-0.062-1.25-0.367-0.717-0.782-0.463-1.019-0.195-0.835,0.35-0.512,0.542-0.664,1.405-0.035,1.097,0.101,1.235c2.749,6.181,6.229,2.708,11.36,4.699l1.534,0.033,1.229,0.621-0.271,0.778-1.193,0.118-1.298-0.035-0.586,0.17-0.629,0.397-0.517,0.505-0.218,1.064,0.288,0.78,1.425,0.479,1.495,0.457,1.285,0.247,0.625,0.536,0.445,0.876,0.224,0.726,0.052,0.874-0.428,0.286-0.586,0.247v0.441h0.293l0.057,0.649-0.074,0.747-0.311,0.487-0.756,0.568h-0.949l-0.738-0.16-0.293-0.704-0.424-0.076h-0.459l-0.507,0.17-0.446-0.044-1.302-1.11-1.442-0.277-3.427-0.313-1.412-0.831-1.753,0.758-1.381,1.163h-1.364l-0.878-0.658-0.441-0.214-0.893,0.645c-0.437,3.049-1.949,1.921-1.635,6.073l0.394,1.383h0.485l0.756-0.721,0.849-0.397,0.437,0.039,0.114,1.025v1.016l0.638,0.546,0.599-0.85,0.547-0.293,0.747,0.175,0.529,0.831,0.463-0.262,0.429-0.669,0.77-1.72,0.734-0.85,0.507-0.175,0.726-0.043,0.463,0.334,0.761,0.935,0.979,0.789,0.69,0.096h0.922l0.844,0.4-0.113,0.986-0.402,1.086-1.451,0.758-1.674,0.826-1.744,0.507-0.433,0.424-0.634-0.245-0.944-0.367h-0.787l-0.987,0.295h-0.607l-0.547-0.466-0.664,0.057h-0.778l-0.463,0.448-0.053,1.938-0.267,0.837-0.293,1.602,0.079,0.824,0.214,0.546,0.616,0.184,0.521-0.35,0.161,2.013,0.473,0.417,0.454-0.042,0.402-0.665,0.563,0.052,0.477,0.439h0.761l0.581-0.413h0.494l0.66-0.726,0.769-0.655,0.162-0.743,0.363,0.039,1.185,0.494,1.621,0.03,1.089-0.944,0.791-0.293,0.817,0.153,10.639,3.89h1.411l0.861-0.26h0.892l1.958,0.527,1.32,0.922-0.341,0.409-0.726-0.376-1.019-0.618-1.141-0.022-1.455,0.136-1.159,0.38-1.014,0.5-0.236,1.467-0.734,0.258-0.262,0.544,0.044,2.896,1.075,2.343,0.708,1.453,0.35,1.344v1.337l-0.551,0.336-0.595,0.062-0.987-0.756-0.656,0.695-1.753,0.155-1.367-0.439-1.81-0.358-1.675-0.664-1.324,0.356-0.687-0.33-1.171-0.856-0.358,0.179-0.109,1.263-0.175,0.8-0.157,2.164-0.219,0.157v0.509l0.245,0.385v0.824l0.271,0.617,0.577,0.371,0.568,0.219,0.595,0.136v0.439l-0.307,0.54-0.161,0.66,0.109,0.394,0.463,0.265,0.979-0.453,0.892,0.031,0.931,0.439,0.555-0.116,1.268-0.87,0.94-0.267,0.948-0.083,1.022,0.4,0.332,0.465,0.612-0.245,0.791-0.481,1.832-0.14,2.185-0.223,3.261-0.841,2.519-1.158,1.079-1.025,0.367-0.949v-0.99l-0.302-0.743-2.343-2.122-0.48-1.128,0.297-0.555,0.489-0.658,0.66-0.046,1.045,0.378,1.81,0.944,1.229,1.213,0.424,0.649c3.951,0.035,2.098,1.683,5.564,3.429l0.896,0.479,1.276,0.256h2.36l1.049-0.422,0.446,0.166,0.244,0.778,0.464,1.693,0.297,1.014,0.332,0.645-0.14,0.601-0.524-0.188-0.537,0.066-0.582,0.585-0.786,0.188-1.373,0.096-0.983,0.612-0.267,0.787-0.922,0.336-1.25,1.412-0.241,1.167,0.385,0.407,0.547,0.319,0.394,0.997v0.704l0.35,0.492,0.367,0.4h0.686l0.621-0.669h0.586l0.345,0.511,0.429,0.483,0.616-0.029,0.438-0.612,0.542-0.218,0.283,0.5,0.293,0.509,0.857,0.149,0.961-0.299,1.058-1.196,0.822-0.809,0.533-0.061,0.376,0.289,0.625-0.315,1.298-1.637-0.235-0.909,0.235-0.793,0.773-0.16,0.612,0.221,0.722,0.118,0.096-0.59-2.325-2.708-0.157-0.675,0.279-0.306v-0.686l-0.524-0.621-0.445-0.861,0.148-5.192-0.406-0.761-0.905-0.251-2.256-0.367-2.176-1.554-0.66-6.207,0.502-0.756,0.407-0.229,1.402,0.041,1.198-0.091,1.849-0.424,1.264-1.281,0.943-1.042,0.358-1.06,0.21-2.063-0.136-2.142-0.258-1.219-0.516-1.563-0.664-1.016-2.242-1.915-1.832-2.441-0.76-0.828-0.639-0.586-0.394-0.8-2.894-2.485-1.687-2.175-0.734-2.207-0.533-2.426-0.14-2.177,0.83-1.967,0.9-1.263,0.922-0.958h0.87l0.542-0.385,0.441-0.806,1.08-0.203,0.874,0.037,1.102,0.389,0.332,0.426,0.17,0.958,0.538,0.846,0.883,0.833,0.065,0.568-0.468,0.712-1.748,0.813-0.813,0.743-0.192,0.538-0.244,1.525,0.244,0.883,2.326,3.532,0.489-0.201,0.604-0.126,0.563,0.328,0.136,0.787,0.034,1.854,0.044,0.861,0.699,0.358,0.508,0.787,0.227,1.105-0.14,1.051,0.385,0.155h0.445l0.604-0.621,0.634-0.376,0.485-0.265-0.639-0.662-0.48-0.585-0.219-0.927,0.805-0.765,0.065-0.784-0.018-1.025-0.459-1.149c0.065-2.037,2.907-3.873,0.459-7.313l-1.854-1.34-1.026-0.985-0.805-1.958-1.058-1.669-1.513-0.981-2.22-0.205-2.369,0.081-1.635,0.748-1.11,1.093-1.434,1.561-0.997,2.185c-3.754,15.547,16.426,18.109,11.941,27.515l-0.8,1.11-1.01,0.439-1.185,0.358-0.887-0.059-1.583-0.813-1.621-1.525-0.944-1.429-0.703-0.914-1.119-0.979-0.56-0.472-1.652-0.489-2.71-0.844-3.19-1.145-1.583-0.695-0.826-0.92-0.817-1.392-0.227-1.106,0.227-0.905,0.778-0.826,0.397-0.583v-0.837l-0.249-1.001,0.69-1.071,2.186-2.474,0.123-2.382,0.087-0.645-0.35-0.546-0.148-0.738,0.228-1.003,0.314-0.546,0.062-1.412-0.236-1.053-0.477-1.436,0.521-0.981,0.35-0.653,0.057-1.136-0.341-1.124-0.586-1.106-0.24-1.825-0.035-1.617,0.275-0.881,0.258-0.824-0.258-0.287-1.132-0.179-1.656-0.269-2.138-1.392-1.88-1.02" fill="#EFAD28"/>
<path d="M43.537,149.82l-2.714-0.385-1.584-1.093c-3.661-2.719-4.117-4.008-4.211-8.519l0.269-1.346,0.874-1.482,0.736-0.97,2.065-1.604,1.753-0.738,1.835-0.743,2.229,0.122,2.089,1.102,4.32,4.449,1.74,9.729,2.203,1.478,0.73,1.232,4.063,13.55,1.25,1.592,8.722,6.661,1.733,1.845,0.983,1.591,0.126,2.237-0.367,3.432,0.995,2.959,0.258,1.984,0.712,4.922,0.868,1.241,1.486,1.11,1.973,0.987,1.34,1.351,2.47,3.091,4.305,4.795,1.617,0.734,1.102,0.376,0.625,0.983-0.505,1.836-3.72,6.398h-0.846l-0.238-1.342,0.354-2.334,0.507-2.111-0.739-1.093-12.685-9.729-2.229-2.846-1.473-1.245-1.96-2.339-2.981-4.306-1.827-3.321-1.722-1.608-3.322-2.692-3.221-3.213-1.853-1.958-2.212-2.846-1.213-2.85-0.995-3.178-1.368-1.481-3.327-1.968-1.23-1.241,1.012-4.196,0.723-2.478,0.114-2.439,0.621-1.228,0.597-0.757-0.857-0.1" fill="#EFAD28"/>
<path d="M54.744,140.93l-0.973-1.105v-1.6l9.629-3.436,10.324-2.837,5.564-1.241,4.933-0.367,2.695,0.263,8.501,75.022-0.848,0.122-0.859-0.122-4.714-30.063,1.239,28.581-1.086-0.371-1.268-1.11-2.085-27.598-1.084,23.786-0.64,0.245-1.218-0.861-0.607-1.854,2.205-45.457-3.822-0.494-3.929,0.254-4.319,0.366-4.557,1.347-3.822,1.355-3.199,1.485-1.349,0.358-0.868-0.48-0.627-1.229,3.429-2.216,4.843-1.979,7.145-1.719,6.023-0.406,5.053-0.101,0.26-5.424-3.84,0.249c-6.902,0.131-16.695,2.959-23.267,5.275l-1.735,0.529-0.986-1.984,0.502-0.853,7-2.601,4.712-1.46,5.873-1.377,5.09-0.861,6.39-0.603-0.231-4.546-0.883-0.516c-7.099-0.162-18.999,4.287-25.994,6.661l-2.6,1" fill="#EFAD28"/>
</svg>
