<?xml version="1.0" encoding="utf-8"?>
<!-- Generator: Adobe Illustrator 13.0.0, SVG Export Plug-In . SVG Version: 6.00 Build 14948)  -->
<!DOCTYPE svg PUBLIC "-//W3C//DTD SVG 1.0//EN" "http://www.w3.org/TR/2001/REC-SVG-20010904/DTD/svg10.dtd">
<svg version="1.0" id="Ebene_1" xmlns="http://www.w3.org/2000/svg" xmlns:xlink="http://www.w3.org/1999/xlink" x="0px" y="0px"
	 width="280.629px" height="243.033px" viewBox="0 0 280.629 243.033" enable-background="new 0 0 280.629 243.033"
	 xml:space="preserve">
<polygon fill-rule="evenodd" clip-rule="evenodd" points="0,0 280.629,0 140.312,243.033 0,0 "/>
<path fill-rule="evenodd" clip-rule="evenodd" fill="#21691E" d="M167.876,186.281l-27.564,47.742L109.583,180.8
	c5.335-2.107,11.479-2.672,17.162-2.672C140.982,178.128,153.756,183.732,167.876,186.281L167.876,186.281z"/>
<path fill-rule="evenodd" clip-rule="evenodd" fill="#FFFFFF" d="M173.04,177.337l-3.018,5.227
	c-14.828-2.377-28.068-8.453-42.896-8.453c-7.294,0-14.052,1.193-19.55,3.211l-2.713-4.695c6.798-3.053,14.04-4.26,21.464-4.26
	C142.417,168.367,156.634,175.521,173.04,177.337L173.04,177.337z"/>
<path fill-rule="evenodd" clip-rule="evenodd" fill="#004C99" d="M247.032,49.182l-16.507,28.592l-15.372-16.408l-25.566,21.491
	l-19.806-21.271l-15.375,12.961l0.464,2.545l33.123,35.479l25.781-21.832l5.738,6.109l-24.016,41.596l-16.886-18.047l-15.105,12.779
	l-0.636,26.574l10.574-8.867l9.176,9.861l-5.271,9.131c-19.225,0.34-34.035-7.83-51.23-7.83c-9.561,0-18.203,2.051-24.292,5.322
	l-1.808-3.135c-0.215-2.117-1.059-4.936-1.526-6.752c-2.437-9.139-5.154-25.896-5.154-35.643c0.609,0,7.25-3.337,7.414-3.474
	l0.507-9.32c-3.046,0.16-6.304,1.646-11.096,1.521c0-3.81-3.855-9.475-3.855-15.836c3.281-3.565,5.816-7.526,7.74-12.108
	c0.661-1.573,4.771-17.378,5.197-17.348c12.276,2.041,17.294,1.405,24.334,2.375l4.322-4.687
	c-8.793-1.474-14.705-0.656-26.528-3.079c2.021-3.229,6.251-7.518,8.512-10.701H247.032L247.032,49.182z M91.543,49.182h11.601
	c-1.441,3.399-4.395,5.092-7.088,8.383C94.176,53.455,92.965,50.81,91.543,49.182L91.543,49.182z M76.815,49.182h8.262
	c2.538,3.464,5.774,8.692,6.002,15.693c0.729,4.33-0.684,9.382-2.672,13.617c-1.868,3.978-4.242,7.236-5.822,8.499
	c0-2.903-2.617-7.37-1.956-11.625c0.513-3.295,0.934-9.087,0.059-13.816C79.831,56.912,78.112,52.46,76.815,49.182L76.815,49.182z
	 M61.334,49.182h8.57c2.537,3.11,6.911,18.6,3.363,23.123c-0.5,0.639-1.435,0.349-2.686,0.008
	C70.311,63.532,64.235,52.582,61.334,49.182L61.334,49.182z M43.806,66.87L33.595,49.182h19.033
	c3.833,4.809,11.035,14.19,11.798,22.097c-2.104-0.784-5.435-2.308-8.88-3.128C51.639,67.221,47.526,67.032,43.806,66.87
	L43.806,66.87z M84.625,137.572L48.172,74.443c2.544,0.239,6.079,0.962,8.862,1.775c3.358,0.979,6.735,3.393,10.89,5.726
	c7.079,8.01,11.672,20.586,13.86,35.422C82.628,123.099,84.168,130.412,84.625,137.572L84.625,137.572z"/>
<path fill-rule="evenodd" clip-rule="evenodd" fill="#FFED00" d="M133.523,95.716h39.925v16.224l-7.225,7.224v50.019
	c-11.568-1.572-21.838-5.34-32.7-6.668V95.716L133.523,95.716z"/>
<path fill-rule="evenodd" clip-rule="evenodd" fill="#FFFFFF" d="M100.04,95.716h33.483v66.799
	c-2.432-0.295-4.893-0.471-7.405-0.471c-8.354,0-16.006,1.564-21.867,4.143l-2.426,1.172l-1.786-3.135V95.716L100.04,95.716z"/>
<path fill="none" stroke="#000000" stroke-width="2.1253" stroke-linecap="round" stroke-linejoin="round" stroke-miterlimit="2.6131" d="
	M100.123,112.701h33.378 M133.501,129.621h-33.378 M133.523,146.605h-33.461 M122.369,95.716v66.488 M111.194,163.845V95.716"/>
<path fill-rule="evenodd" clip-rule="evenodd" d="M160.823,107.63h7.77V95.716h-7.77V107.63L160.823,107.63z M149.543,107.63h7.77
	V95.716h-7.77V107.63L149.543,107.63z M138.25,107.63h7.769V95.716h-7.769V107.63L138.25,107.63z M143.663,164.349V148
	c0-2.969,2.42-5.389,5.387-5.389s5.386,2.42,5.386,5.389l0.003,18.916C150.8,166.066,147.231,165.152,143.663,164.349
	L143.663,164.349z M143.631,131.712l0.032-4.865c0-2.969,2.42-8.468,5.387-9.618c3.071,0.837,5.386,6.649,5.386,9.618l0.003,4.865
	H143.631L143.631,131.712z"/>
<polygon fill-rule="evenodd" clip-rule="evenodd" fill="#FFFFFF" points="129.716,95.717 175.995,95.717 136.131,53.427 
	129.717,59.699 129.716,95.717 "/>
<polygon fill-rule="evenodd" clip-rule="evenodd" fill="#E32219" points="92.873,95.717 129.716,95.717 129.717,59.699 
	92.873,95.717 "/>
<path fill="none" stroke="#000000" stroke-width="2.1253" stroke-linecap="round" stroke-linejoin="round" stroke-miterlimit="2.6131" d="
	M129.716,60.234h12.785 M149.21,67.257h-19.494 M129.716,74.464h26.29 M129.716,81.58h32.911 M169.248,88.602h-39.532"/>
<path fill-rule="evenodd" clip-rule="evenodd" fill="#FFFFFF" d="M245.798,17.886h12.23l-6.116,10.591L245.798,17.886
	L245.798,17.886z M234.504,19.266c-1.529-0.132-3.2-0.378-4.835-0.377c-1.854,0-3.66,0.319-5.15,1.477
	c-1.287,0.996-1.926,2.388-1.926,4.166c0,1.783,0.597,3.146,1.783,4.093c1.443,1.147,3.67,1.485,5.854,1.476
	c1.496-0.006,2.971-0.175,4.162-0.357l1.088,7.936c-2.728,0.496-5.742,0.859-8.52,0.859c-4.514,0-8.078-1.265-10.691-3.794
	c-2.613-2.535-3.922-5.988-3.922-10.359c0-4.249,1.392-7.599,4.17-10.046c1.912-1.682,4.323-2.788,7.234-3.313
	c1.629-0.295,3.341-0.407,5.064-0.393c2.361,0.019,4.746,0.276,6.967,0.625L234.504,19.266L234.504,19.266z M192.28,17.886h12.229
	l-6.115,10.591L192.28,17.886L192.28,17.886z M184.113,11.1l-0.019,7.423h-12.76l0.035,2.896h12.553l0.074,7.213h-12.739
	l-0.001,9.427h-9.597l0.024-26.959H184.113L184.113,11.1z M138.427,17.886h12.229l-6.114,10.591L138.427,17.886L138.427,17.886z
	 M123.835,11.1l9.593,26.959h-10.262l-1.147-4.405h-9.139l-1.084,4.405h-10.515L111.567,11.1H123.835L123.835,11.1z M118.507,20.428
	l-0.572-2.384l-0.361-1.509l-0.532,1.793l-0.65,2.311l-1.641,6.129h5.476L118.507,20.428L118.507,20.428z M84.447,17.886h12.229
	l-6.115,10.591L84.447,17.886L84.447,17.886z M58.62,11.1c3.511,0,6.125,0.209,7.844,0.63c1.714,0.419,3.14,1.118,4.273,2.101
	c1.285,1.127,2.251,2.543,2.901,4.234c0.645,1.69,0.972,3.668,0.972,5.934c0,1.196-0.078,2.305-0.23,3.331
	c-0.152,1.021-0.396,1.997-0.728,2.925c-0.61,1.822-1.558,3.379-2.842,4.674c-1.094,1.132-2.477,1.938-4.147,2.412
	c-1.675,0.479-4.195,0.718-7.565,0.718H47.689L47.679,11.1H58.62L58.62,11.1z M59.997,18.557l-2.84,0.094l-0.021,11.55h2.383
	c1.959,0,3.41-0.473,4.356-1.42c0.948-0.953,1.427-2.404,1.427-4.362c0-1.934-0.445-3.395-1.329-4.382
	C63.089,19.051,61.765,18.557,59.997,18.557L59.997,18.557z M22.58,17.886h12.229l-6.114,10.591L22.58,17.886L22.58,17.886z"/>
</svg>
