<?xml version="1.0" encoding="utf-8"?>
<!-- Generator: Adobe Illustrator 13.0.2, SVG Export Plug-In . SVG Version: 6.00 Build 14948)  -->
<!DOCTYPE svg PUBLIC "-//W3C//DTD SVG 1.0//EN" "http://www.w3.org/TR/2001/REC-SVG-20010904/DTD/svg10.dtd">
<svg version="1.0" id="Layer_1" xmlns="http://www.w3.org/2000/svg" xmlns:xlink="http://www.w3.org/1999/xlink" x="0px" y="0px"
	 width="505.438px" height="504.796px" viewBox="0 0 505.438 504.796" enable-background="new 0 0 505.438 504.796"
	 xml:space="preserve">
<path fill="#2C3389" d="M366.767,126.557c-16.703,7.632-62.639,24.912-111.742,0.864c-14.977,10.512-64.367,22.464-110.305-0.864
	c3.024,47.088,7.632,88.561,18.864,127.584c16.704,58.32,46.657,108.72,91.872,158.544c30.672-34.271,58.32-73.151,78.049-119.664
	C352.944,247.085,364.608,193.373,366.767,126.557z"/>
<path fill="#FFFFFF" d="M353.665,143.117c-14.689,6.768-53.426,14.976-97.777-2.593c-14.111,7.488-57.168,16.416-97.775,4.177
	c6.336,99.071,30.096,172.08,97.344,249.983C319.825,322.108,349.2,239.597,353.665,143.117z"/>
<path fill="#2C3389" d="M168.048,157.229c27.361,4.177,55.152,7.057,87.408-6.336c37.439,14.688,64.943,10.08,87.553,6.048
	c-2.449,32.4-8.352,63.792-16.85,94.032l-39.6,0.288v-32.688c0.289-6.48,0.434-9.217,9.791-9.648v-3.168l-33.264-0.145v3.169
	c9.938,0.72,9.506,2.592,10.225,9.792v32.832H239.04c0-10.944,0.145-21.889,0.145-32.977c0.432-6.191,0.432-9.216,9.648-9.504
	l0.143-3.168l-33.264-0.145c0,1.152,0.145,2.305,0.145,3.313c7.199,0.144,9.936,1.44,10.078,9.792l-0.143,32.544
	c-13.68,0-27.217,0-40.896,0C176.399,220.157,171.071,191.501,168.048,157.229z"/>
<path fill="#DF1235" d="M187.632,260.621h38.303l-0.287,34.848c-0.143,4.752-1.297,7.344-9.646,7.776v3.312h32.832
	c0-1.008,0-2.304,0-3.312c-5.328-0.576-9.074-0.288-9.648-7.488v-34.992h33.982c0,11.521,0,23.04,0,34.561
	c-0.143,7.775-5.184,7.199-9.936,7.92v3.312h33.119v-3.312c-4.318-0.145-9.502-0.576-9.791-7.776v-34.704
	c12.098,0,24.336,0,36.434,0c-15.408,51.264-42.193,86.4-67.25,119.375C232.128,351.196,203.04,309.581,187.632,260.621z"/>
<path fill="#2C3389" d="M0,240.749h57.456c1.872-16.992,4.752-33.12,9.359-47.664c29.377-92.88,110.594-137.376,189.217-136.368
	c93.887,1.152,183.311,70.56,192.096,184.32l57.311,0.144c-0.863-8.352-1.438-16.416-2.59-24.336
	c-1.729-12.672-4.176-24.768-7.633-36.288c-15.84-52.992-44.928-92.448-80.064-121.824C359.136,11.789,284.976-7.651,215.136,2.717
	C108.72,18.413,11.808,100.925,0,240.749z"/>
<path fill="#DF1235" d="M0.144,262.637c19.152,0,37.872,0.432,57.168,0.432c26.496,250.704,371.232,241.489,390.529-0.287h57.598
	c-1.582,17.424-3.598,36-7.199,49.68C434.017,561.437,94.752,569.356,13.248,332.333C6.336,312.316,2.736,287.98,0.144,262.637z"/>
<g>
	<path fill="#FFFFFF" d="M80.928,372.509c4.752,6.48-1.296,12.529-7.488,16.703c-1.728,1.154-3.743,2.305-5.615,3.313v8.641
		c3.6-0.865,7.199-2.592,10.8-5.041c6.624-4.607,11.088-10.367,11.376-16.414v-1.873c-0.145-3.025-1.296-6.049-3.601-9.072
		c-4.896-6.768-11.52-8.496-18.575-6.912v8.785C72.576,368.478,77.472,367.901,80.928,372.509z M67.824,392.524
		c-4.896,2.16-9.792,2.594-13.104-2.016c-4.752-6.48,1.152-12.385,7.344-16.561c1.872-1.295,3.744-2.447,5.761-3.311v-8.785
		c-3.601,0.863-7.345,2.592-10.801,5.041c-6.768,4.607-11.088,10.367-11.52,16.561v1.871c0.144,2.879,1.296,6.049,3.6,9.07
		c4.896,6.625,11.664,8.498,18.721,6.77V392.524z"/>
	<path fill="#FFFFFF" d="M99.792,396.702c3.168,3.311,8.64,6.047,3.168,11.518c-1.872,1.729-3.456,2.305-4.752,2.16v7.92
		c3.888,0.578,7.775-0.863,11.088-4.176c3.024-2.879,4.32-5.758,4.464-8.352v-1.008c-0.144-3.744-2.736-7.344-6.192-10.656
		l-8.495-8.063l-0.864,0.863v11.377L99.792,396.702z M98.208,410.38c-2.736-0.143-4.896-3.168-7.2-5.184l7.2-6.91v-11.377
		l-30.24,29.23l5.904,5.762l11.952-11.664l4.319,4.031c2.593,2.305,5.328,3.602,8.064,4.031V410.38z"/>
	<path fill="#FFFFFF" d="M119.808,438.894l4.176-5.762l13.104,8.785l-12.672,17.424c-2.88-0.721-5.616-1.873-8.208-3.313
		c-1.729-0.863-3.456-1.729-7.632-4.607c-6.192-4.176-11.664-14.256-1.729-28.08c10.08-13.824,21.889-12.385,28.225-8.064
		c9.071,6.191,12.672,13.104,6.624,21.313l-7.345-4.896c3.313-4.318,1.729-7.631-2.016-10.225
		c-6.048-4.031-12.528-1.152-18.144,6.77c-5.761,7.775-6.337,14.688-0.288,18.719c2.592,1.873,4.752,2.592,6.768,3.457l5.328-7.344
		L119.808,438.894z"/>
	<polygon fill="#FFFFFF" points="134.063,465.677 137.952,458.765 144,461.788 140.112,468.702 	"/>
	<path fill="#FFFFFF" d="M176.544,446.524c3.744-0.287,7.344-1.295,10.799-2.736l7.201,2.305l-13.248,38.592l-7.631-2.447
		l10.367-30.24c-3.313,1.15-6.623,2.016-10.08,2.303L176.544,446.524z"/>
	<path fill="#FFFFFF" d="M232.993,460.204c8.207,0.721,8.926,8.928,8.35,16.273c-0.719,6.768-2.734,14.256-9.791,14.543v6.625
		c11.375,0,17.424-8.641,18.576-20.449c0.143-1.15,0.143-2.303,0.143-3.311v-0.145c0-10.801-5.039-19.152-16.559-20.16
		c-0.719-0.145-1.441-0.145-2.16-0.145v6.625C231.983,460.062,232.56,460.062,232.993,460.204z M231.552,491.021
		c-0.432,0.145-1.008,0.145-1.439,0c-8.209-0.721-8.928-9.072-8.354-16.271c0.721-6.77,2.881-14.4,9.793-14.688v-6.625
		c-11.377,0-17.424,8.783-18.576,20.449c-1.15,12.527,3.744,22.607,16.416,23.615c0.721,0.145,1.441,0.145,2.16,0.145V491.021z"/>
	<path fill="#FFFFFF" d="M279.935,467.692c-0.43-4.607-3.168-7.92-8.207-7.488c-5.76,0.434-6.48,10.225-5.902,16.129
		c0.432,5.904,2.879,15.264,8.783,14.832c4.896-0.432,7.057-4.176,6.623-8.641l8.785-0.721c0.576,10.658-5.904,15.121-14.832,15.842
		c-11.232,1.008-17.137-8.352-18.289-20.592c-1.008-12.385,3.168-22.465,14.4-23.473c8.783-0.721,16.129,2.734,17.424,13.248
		L279.935,467.692z"/>
	<polygon fill="#FFFFFF" points="290.304,451.71 320.687,444.366 322.56,451.276 311.327,454.013 320.112,488.286 312.048,490.3 
		303.263,455.886 292.032,458.62 	"/>
	<path fill="#FFFFFF" d="M338.112,443.501c2.305-2.736,4.176-5.904,5.615-9.215l6.768-3.168l18.576,36.574l-7.344,3.455
		l-14.4-28.799c-1.584,3.168-3.455,5.904-5.615,8.496L338.112,443.501z"/>
	<path fill="#FFFFFF" d="M384.624,439.468c1.584,0.434,3.168,1.586,4.465,3.313c2.158,3.168,1.727,6.625-0.721,8.064
		c-1.297,0.865-2.592,1.008-3.744,0.865v6.623c2.447-0.287,4.895-1.152,7.057-2.447c3.455-2.305,5.904-6.049,6.191-10.225v-1.295
		c-0.145-2.018-0.721-3.889-2.016-5.762c-2.736-4.031-7.057-5.615-11.232-4.752V439.468L384.624,439.468z M384.624,432.702v-9.648
		C386.495,426.22,386.351,430.108,384.624,432.702z M380.017,448.396c-2.16-3.311-1.586-6.623,0.863-8.207
		c1.152-0.721,2.447-0.863,3.744-0.721v-5.615c-0.432,0.145-0.865,0.145-1.297,0.287l0,0l0,0c0.576-0.43,0.865-0.863,1.297-1.438
		v-9.648c-0.145-0.289-0.287-0.434-0.287-0.576c-2.736-3.889-6.77-5.041-10.512-4.465v6.48c1.727,0,3.311,0.863,4.463,2.592
		c2.016,2.736,1.297,5.617-1.008,7.055c-1.152,0.721-2.305,1.008-3.455,1.008v5.041c0.143,0,0.143,0,0.143,0h0.145
		c-0.145,0.145-0.145,0.289-0.287,0.289v12.959c2.879,3.889,6.91,5.184,10.799,4.896v-6.623
		C382.896,451.421,381.312,450.269,380.017,448.396z M373.825,418.013v6.48c-1.01,0-2.16,0.287-3.314,1.008
		c-2.303,1.439-3.021,4.463-1.15,7.201c1.15,1.727,2.734,2.592,4.465,2.445v5.041c-4.32,1.152-8.209,0.289-11.09-4.031
		c-1.008-1.439-1.584-3.025-1.584-4.609v-1.152c0.145-4.029,2.881-7.918,6.338-10.08C369.36,419.165,371.519,418.3,373.825,418.013
		L373.825,418.013z M373.825,440.478c-2.594,3.311-3.314,8.064-0.434,12.383c0.145,0.145,0.289,0.434,0.434,0.576V440.478z"/>
	<path fill="#FFFFFF" d="M410.399,419.597c1.297,0.289,2.736,1.152,4.031,2.592c2.449,2.736,2.594,6.191,0.434,8.064
		c-1.439,1.152-3.023,1.584-4.465,1.152v6.91c3.025-0.143,5.904-1.582,8.352-3.598c4.896-4.033,6.914-11.809,1.873-17.57
		c-2.881-3.168-6.623-4.318-10.225-3.6V419.597z M406.368,428.956c-2.736-3.023-2.592-6.336-0.434-8.207
		c1.297-1.152,2.881-1.441,4.465-1.152v-6.049c-1.008,0.145-2.016,0.432-2.881,0.865v-0.145l0,0
		c2.594-3.023,2.449-8.064-0.719-11.52c-2.881-3.168-6.191-4.031-9.361-3.602v6.77c1.441,0.145,2.881,0.721,4.033,2.016
		c2.305,2.592,2.018,5.473,0,7.199c-1.297,1.008-2.592,1.586-4.033,1.586v5.328c0.578-0.145,1.154-0.289,1.729-0.578v0.145
		c-2.303,3.457-2.447,8.496,1.152,12.527c3.023,3.314,6.625,4.465,10.08,4.176v-6.91
		C408.96,431.118,407.519,430.253,406.368,428.956z M397.438,399.147v6.77c-1.295,0-2.734,0.432-4.029,1.584
		c-2.018,1.729-2.162,4.752,0,7.201c1.15,1.295,2.592,2.016,4.029,2.016v5.328c-3.598,1.15-7.055,0.432-10.078-3.025
		c-4.609-5.041-2.16-12.383,2.447-16.271C391.825,401.021,394.56,399.581,397.438,399.147z"/>
	<path fill="#FFFFFF" d="M419.903,385.038c1.152,0.574,2.447,1.439,3.457,2.447c2.879,2.592,4.32,5.76,1.871,8.207
		c-1.584,1.584-3.6,1.729-5.328,1.01v7.631c3.023,0.145,5.904-0.721,8.064-2.879c2.16-2.16,3.168-3.889,3.168-6.77
		c3.6,3.025,9.791,8.783,5.76,12.816c-1.584,1.729-4.32,0.865-6.479-0.576l-5.617,5.471c6.48,5.904,11.809,3.891,16.561-0.861
		c2.305-2.305,3.455-4.609,3.6-7.057v-1.729c-0.432-6.191-6.623-12.529-12.24-17.711c-4.176-3.891-8.641-6.77-12.816-7.201V385.038z
		 M416.448,394.396c-2.881-2.592-4.607-6.047-1.873-8.783c1.441-1.439,3.313-1.439,5.328-0.574v-7.201
		c-3.455-0.289-6.768,0.721-9.936,3.889c-5.184,5.184-5.184,13.104,1.152,18.863c2.447,2.305,5.615,3.6,8.783,3.744v-7.631
		C418.608,396.269,417.456,395.405,416.448,394.396z"/>
</g>
<g>
	<polygon fill="#FFFFFF" points="84.24,137.213 49.536,110.86 54.576,104.524 68.399,114.893 77.328,103.805 63.647,93.437 
		68.832,87.101 103.536,113.453 98.496,119.645 83.231,108.125 74.16,119.213 89.424,130.877 	"/>
	<polygon fill="#FFFFFF" points="108.864,109.564 102.96,104.381 107.567,99.485 113.472,104.813 	"/>
	<polygon fill="#FFFFFF" points="117.936,100.061 89.136,67.949 108.144,52.253 112.896,57.581 100.224,68.093 107.136,75.869 
		118.944,66.077 123.696,71.405 111.888,81.196 124.271,94.877 	"/>
	<polygon fill="#FFFFFF" points="133.344,87.533 128.448,81.341 133.92,77.309 138.815,83.645 	"/>
	<path fill="#FFFFFF" d="M148.32,44.333c-2.16-3.889-6.192-5.904-10.513-3.456c-5.184,2.735-1.728,11.808,1.296,16.992
		c3.024,5.184,9.217,12.815,14.4,10.08c4.32-2.305,4.608-6.624,2.304-10.513l7.776-4.176c4.896,9.504,1.008,16.272-6.769,20.448
		c-9.792,5.328-19.151-0.864-25.487-11.664c-6.192-10.8-6.769-21.744,3.168-26.928c7.775-4.177,15.84-4.032,21.6,5.184
		L148.32,44.333z"/>
	<polygon fill="#FFFFFF" points="174.528,64.349 171.505,57.148 177.841,54.701 180.864,61.9 	"/>
	<polygon fill="#FFFFFF" points="199.151,55.853 191.376,13.949 199.585,12.509 202.751,29.069 217.151,26.621 214.128,10.061 
		222.337,8.765 230.112,50.524 221.903,51.821 218.593,33.533 204.048,35.98 207.36,54.413 	"/>
	<path fill="#FFFFFF" d="M251.136,15.965v-0.144h0.145l5.328,18h-5.473v7.056h7.631l2.881,8.928h8.496L256.175,7.469h-5.039V15.965z
		 M245.519,33.965l5.617-18V7.469h-4.752l-13.68,42.624l7.92-0.144l2.881-8.929l7.631-0.144v-7.056L245.519,33.965z"/>
	<path fill="#FFFFFF" d="M290.88,25.037l3.168-6.192l0,0l2.303,18.72l-5.471-0.863V43.9l6.336,1.009l1.152,9.359l8.352,1.296
		l-6.191-44.063l-9.648-1.584V25.037z M285.409,35.837l5.471-10.8V9.917h-0.145l-20.879,39.744l7.775,1.296l4.463-8.496l8.785,1.439
		v-7.199L285.409,35.837z"/>
	<path fill="#FFFFFF" d="M332.208,26.909l3.311,1.151c3.457,1.296,4.898,3.456,3.602,7.057c-1.295,3.312-3.744,4.464-6.912,3.743
		v8.496c0.576,1.152,0.432,2.593,0,4.032v13.248l5.617,2.017c-0.578-2.736,1.008-7.633,1.584-10.225
		c1.439-5.76,2.879-9.792-2.881-12.672h0.145c4.895,0.432,9.215-1.872,11.23-7.056c0.434-1.296,0.721-2.448,0.863-3.456v-1.872
		c-0.574-4.896-4.895-7.776-9.646-9.504l-6.912-2.448V26.909z M329.04,25.757l3.168,1.152v-7.488l-8.496-3.024l-15.264,39.889
		l7.92,2.735l6.049-16.128l8.35,3.024c0.723,0.288,1.152,0.72,1.441,1.439V38.86c-0.145,0-0.432-0.144-0.719-0.287l-6.48-2.305
		L329.04,25.757L329.04,25.757z M332.208,51.389v13.248l-3.023-1.008c0.863-3.888,1.727-7.488,2.879-11.232
		C332.063,52.108,332.208,51.677,332.208,51.389z"/>
	<polygon fill="#FFFFFF" points="340.56,68.381 362.735,31.661 369.935,35.692 351.505,66.221 366.048,74.429 362.304,80.477 	"/>
	<polygon fill="#FFFFFF" points="392.544,49.373 412.417,65.356 407.808,70.829 394.128,59.885 387.647,67.517 400.319,77.741 
		395.567,83.213 382.896,72.845 375.263,81.629 389.376,92.86 384.624,98.333 364.175,81.917 	"/>
	<polygon fill="#FFFFFF" points="405.216,120.221 400.896,115.037 423.505,84.221 423.36,84.221 394.271,107.405 389.376,101.645 
		423.36,74.573 432.001,84.653 412.417,110.429 412.56,110.429 442.8,97.325 451.151,107.117 417.167,134.188 412.271,128.285 
		441.36,105.245 441.36,105.101 	"/>
</g>
</svg>
