<?xml version="1.0" encoding="utf-8"?>
<!-- Generator: Adobe Illustrator 13.0.2, SVG Export Plug-In . SVG Version: 6.00 Build 14948)  -->
<!DOCTYPE svg PUBLIC "-//W3C//DTD SVG 1.0//EN" "http://www.w3.org/TR/2001/REC-SVG-20010904/DTD/svg10.dtd">
<svg version="1.0" id="Ebene_1" xmlns="http://www.w3.org/2000/svg" xmlns:xlink="http://www.w3.org/1999/xlink" x="0px" y="0px"
	 width="438.393px" height="561.259px" viewBox="0 0 438.393 561.259" enable-background="new 0 0 438.393 561.259"
	 xml:space="preserve">
<path fill-rule="evenodd" clip-rule="evenodd" fill="#007AAB" d="M438.393,449.477V0H219.196h-0.001H0v449.477
	c0.551,11.47,9.327,21.059,21.085,24.012c94.4,18.929,167.837,51.451,197.922,87.771h0.378
	c30.086-36.319,103.522-68.842,197.922-87.771C429.067,470.536,437.842,460.947,438.393,449.477L438.393,449.477z"/>
<path fill="#FFFFFF" d="M11.525,452.222c0.631,1.69,1.393,3.085,2.345,4.321c0.949,1.23,2.12,2.332,3.568,3.445
	c1.034,0.668,2.013,1.213,3.019,1.673c1.02,0.466,2.087,0.85,3.284,1.198c7.222,1.491,14.342,3.047,21.369,4.667
	c7.254,1.673,14.375,3.404,21.368,5.194l0.026,0.009c6.62,1.784,13.255,3.659,19.928,5.637c6.642,1.972,13.232,4.02,19.784,6.164
	l0.026,0.009c4.885,1.673,9.721,3.384,14.514,5.142c4.793,1.761,9.584,3.58,14.388,5.476l0.037,0.018
	c4.512,1.86,8.886,3.727,13.125,5.604c4.38,1.939,8.704,3.926,12.981,5.962l0.037,0.018c3.867,1.937,7.734,3.943,11.631,6.044
	c3.908,2.106,7.718,4.239,11.44,6.413l0.045,0.038c2.602,1.603,5.145,3.211,7.639,4.84c2.524,1.644,5.029,3.325,7.522,5.048
	l0.054,0.035c3.634,2.672,7.321,5.435,10.942,8.408c3.006,2.467,5.905,5.027,8.596,7.717c2.691-2.689,5.591-5.25,8.597-7.717
	c3.624-2.974,7.31-5.736,10.945-8.408l0.056-0.035c2.49-1.723,4.995-3.401,7.518-5.048c2.493-1.626,5.039-3.237,7.641-4.84
	l0.047-0.038c3.721-2.171,7.529-4.307,11.438-6.413c3.896-2.101,7.767-4.107,11.634-6.044l0.035-0.018
	c4.277-2.036,8.599-4.02,12.979-5.962c4.239-1.875,8.613-3.741,13.128-5.604l0.035-0.018c4.802-1.893,9.595-3.715,14.388-5.473
	c4.793-1.761,9.63-3.472,14.514-5.145l0.029-0.009c5.341-1.746,10.562-3.393,15.683-4.951c5.095-1.55,10.356-3.091,15.782-4.626
	l0.026-0.009c8.467-2.279,16.945-4.421,25.462-6.439c8.399-1.986,16.939-3.873,25.635-5.669l0.917,4.503
	c-8.446,1.743-16.937,3.624-25.506,5.651c-8.452,2.001-16.884,4.134-25.318,6.404l0.026-0.009
	c-5.109,1.447-10.336,2.979-15.691,4.605c-5.32,1.62-10.509,3.255-15.565,4.907c-0.012,0.003-0.018,0.006-0.029,0.009l0.029-0.009
	c-0.012,0.003-0.018,0.006-0.029,0.009c-4.802,1.644-9.592,3.34-14.379,5.098c-4.802,1.764-9.563,3.571-14.297,5.438l0.035-0.018
	c-4.271,1.764-8.604,3.615-13.017,5.569c-4.257,1.884-8.525,3.847-12.82,5.889c-0.012,0.006-0.023,0.012-0.035,0.018l0.035-0.018
	c-0.009,0.006-0.023,0.012-0.035,0.018c-3.926,1.969-7.746,3.946-11.47,5.953c-3.721,2.007-7.477,4.116-11.294,6.343l0.047-0.035
	c-2.522,1.556-5.036,3.146-7.553,4.787c-2.487,1.62-4.954,3.275-7.412,4.975l0.056-0.035c-3.636,2.669-7.292,5.411-10.749,8.247
	c-3.437,2.821-6.768,5.813-9.838,9.059l-1.676,1.772l-1.674-1.772c-3.073-3.246-6.403-6.24-9.841-9.062
	c-3.454-2.836-7.112-5.575-10.745-8.244l0.054,0.035c-2.459-1.699-4.928-3.357-7.414-4.978c-2.517-1.641-5.03-3.231-7.55-4.784
	l0.045,0.035c-3.819-2.229-7.575-4.336-11.297-6.343c-3.724-2.007-7.544-3.987-11.468-5.953c-0.012-0.006-0.025-0.012-0.037-0.018
	l0.037,0.018c-0.012-0.006-0.025-0.012-0.037-0.018c-4.293-2.045-8.562-4.005-12.82-5.889c-4.412-1.954-8.745-3.806-13.017-5.569
	l0.037,0.018c-4.737-1.866-9.498-3.677-14.298-5.438c-4.789-1.758-9.577-3.454-14.377-5.098c-0.01-0.003-0.019-0.006-0.028-0.009
	l0.028,0.009c-0.01-0.003-0.019-0.006-0.028-0.009c-6.56-2.145-13.097-4.181-19.63-6.117c-6.511-1.931-13.115-3.797-19.819-5.602
	l0.026,0.009c-7.198-1.843-14.279-3.565-21.259-5.177c-7.172-1.655-14.291-3.211-21.374-4.673l-0.18-0.044
	c-1.437-0.416-2.729-0.885-3.983-1.456c-1.255-0.571-2.458-1.239-3.708-2.057l-0.144-0.097c-1.777-1.359-3.237-2.742-4.465-4.333
	c-1.233-1.6-2.21-3.384-3.013-5.531L11.525,452.222L11.525,452.222z"/>
<polygon fill="#FFFFFF" points="414.504,462.901 417.53,461.896 418.972,466.273 415.942,467.278 414.504,462.901 "/>
<path fill="#FFFFFF" d="M417.296,461.996c2.353-1.075,4.315-2.341,5.9-3.926c1.538-1.541,2.745-3.413,3.63-5.742
	c0.158-0.58,0.287-1.128,0.39-1.676c0.105-0.586,0.188-1.169,0.243-1.787l4.576,0.413c-0.073,0.782-0.17,1.5-0.299,2.203
	c-0.132,0.712-0.296,1.415-0.501,2.153l-0.062,0.188c-1.134,3.032-2.701,5.47-4.717,7.488c-1.995,1.998-4.406,3.563-7.251,4.866
	L417.296,461.996L417.296,461.996z"/>
<polygon fill="#FFFFFF" points="427.441,449.073 427.441,10.951 10.951,10.951 11.077,450.171 11.615,452.509 7.129,453.535 
	6.527,450.924 6.464,450.412 6.338,8.646 6.338,6.34 432.053,6.34 432.053,449.073 427.441,449.073 "/>
<polygon fill-rule="evenodd" clip-rule="evenodd" fill="#FFFFFF" points="26.805,29.622 413.016,29.622 413.016,120.05 
	26.805,120.05 26.805,29.622 "/>
<path fill-rule="evenodd" clip-rule="evenodd" fill="#007AAB" d="M57.916,61.162l-8.764,18.904h9.677L57.916,61.162L57.916,61.162z
	 M32.259,98.366l23.465-48.265h9.042l3.505,48.265h-8.568l-0.372-9.853H45.211l-4.544,9.853H32.259L32.259,98.366z M72.473,98.366
	l1.964-9.653h7.774l-1.964,9.653H72.473L72.473,98.366z M88.654,80.065h7.616l-0.246,1.207c-1.356,7.44-1.252,10.053,2.555,10.053
	c1.904,0,3.335-0.803,4.14-2.411c0.68-1.005,1.166-2.615,1.658-5.029l6.876-33.785h7.932l-6.835,33.584
	c-0.86,4.225-2.149,7.441-3.751,9.854c-2.722,4.021-6.461,6.034-11.38,6.034c-9.836,0-11.101-7.039-8.81-18.3L88.654,80.065
	L88.654,80.065z M116.531,98.366l1.966-9.653h7.772l-1.964,9.653H116.531L116.531,98.366z M169.481,61.162l-8.764,18.904h9.678
	L169.481,61.162L169.481,61.162z M143.824,98.366l23.467-48.265h9.042l3.504,48.265h-8.566l-0.375-9.853h-14.12l-4.544,9.853
	H143.824L143.824,98.366z M188.439,79.863l6.057-29.763h8.09l-6.056,29.763c-0.655,3.22-0.829,5.632-0.523,7.241
	c0.42,2.615,2.196,4.022,5.528,4.022c3.173,0,5.521-1.408,7.006-4.022c0.961-1.608,1.77-4.021,2.424-7.241l6.057-29.763h8.09
	l-6.057,29.763c-1.022,5.029-2.476,9.051-4.318,11.865c-3.442,5.229-8.417,7.844-14.921,7.844c-6.664,0-10.575-2.615-11.889-7.844
	C187.232,88.915,187.417,84.892,188.439,79.863L188.439,79.863z M239.982,81.875l-10.969,16.491h-9.362l17.208-24.535l-6.75-23.73
	h9.519l3.63,15.687l10.175-15.687h9.041l-16.33,23.328l7.301,24.938h-9.677L239.982,81.875L239.982,81.875z M296.124,50.101
	l-1.761,8.648h-20.147l-2.089,10.257h18.404l-1.676,8.243h-18.404l-2.537,12.47h20.941l-1.761,8.647h-28.717l9.823-48.265H296.124
	L296.124,50.101z M318.694,58.547h-9.36l-2.619,12.87h9.044c1.746,0,3.214-0.201,4.289-0.804c1.749-0.804,2.909-2.613,3.483-5.429
	s0.19-4.828-1.192-5.833C321.668,58.749,320.282,58.547,318.694,58.547L318.694,58.547z M322.002,50.101
	c5.353,0.201,7.403,1.809,8.895,4.625c1.093,2.414,1.591,5.432,0.814,9.25c-0.899,4.425-3.671,9.453-8.203,11.464
	c3.164,1.608,3.858,4.424,2.467,11.263l-0.653,3.217c-0.451,2.212-0.58,3.62-0.744,4.424c0.032,1.408,0.346,2.212,0.855,2.817
	l-0.243,1.206h-8.728c0.047-1.005,0.094-2.01,0.056-2.615c0.129-1.408,0.214-2.615,0.501-4.022l0.94-4.625
	c1.072-6.034,0.129-7.642-4.632-7.642h-8.247l-3.85,18.904h-7.614l9.823-48.265H322.002L322.002,50.101z M356.848,58.547h-9.36
	l-2.619,12.87h9.041c1.746,0,3.217-0.201,4.289-0.804c1.752-0.804,2.912-2.613,3.486-5.429c0.571-2.815,0.188-4.828-1.195-5.833
	C359.821,58.749,358.436,58.547,356.848,58.547L356.848,58.547z M360.152,50.101c5.353,0.201,7.406,1.809,8.895,4.625
	c1.096,2.414,1.591,5.432,0.814,9.25c-0.899,4.425-3.668,9.453-8.203,11.464c3.164,1.608,3.861,4.424,2.47,11.263l-0.656,3.217
	c-0.448,2.212-0.577,3.62-0.741,4.424c0.032,1.408,0.343,2.212,0.855,2.817l-0.246,1.206h-8.728c0.047-1.005,0.094-2.01,0.059-2.615
	c0.126-1.408,0.214-2.615,0.501-4.022l0.94-4.625c1.069-6.034,0.129-7.642-4.632-7.642h-8.25l-3.847,18.904h-7.617l9.823-48.265
	H360.152L360.152,50.101z M407.666,50.101l-1.761,8.648h-20.147l-2.089,10.257h18.404l-1.679,8.243h-18.401l-2.54,12.47h20.944
	l-1.764,8.647H369.92l9.823-48.265H407.666L407.666,50.101z"/>
<path fill-rule="evenodd" clip-rule="evenodd" fill="#FFFFFF" d="M220.563,247.012c33.538,0,60.895,27.354,60.895,60.894
	c0,33.542-27.357,60.896-60.895,60.896c-33.541,0-60.896-27.354-60.896-60.896C159.667,274.367,187.022,247.012,220.563,247.012
	L220.563,247.012z"/>
<path fill-rule="evenodd" clip-rule="evenodd" fill="#FFFFFF" d="M220.563,253.386c30.028,0,54.52,24.492,54.52,54.52
	c0,30.029-24.492,54.524-54.52,54.524c-30.029,0-54.523-24.495-54.523-54.524C166.04,277.878,190.534,253.386,220.563,253.386
	L220.563,253.386z"/>
<path fill-rule="evenodd" clip-rule="evenodd" fill="#FFFFFF" d="M250.219,369.089l46.5,95.915l-76.157-50.446L144.4,465.007
	l46.503-95.921c8.974,4.374,19.039,6.835,29.66,6.835S241.248,373.46,250.219,369.089L250.219,369.089z"/>
<polygon fill-rule="evenodd" clip-rule="evenodd" fill="#007AAB" points="174.664,436.144 220.562,390.511 266.458,436.141 
	220.562,404.902 174.664,436.144 "/>
<path fill-rule="evenodd" clip-rule="evenodd" fill="#FFFFFF" d="M281.742,278.249l95.918-46.5l-50.449,76.157l50.452,76.163
	l-95.921-46.503c4.374-8.974,6.832-19.037,6.832-29.66S286.116,287.219,281.742,278.249L281.742,278.249z"/>
<polygon fill-rule="evenodd" clip-rule="evenodd" fill="#007AAB" points="348.8,353.805 303.167,307.906 348.797,262.012 
	317.558,307.906 348.8,353.805 "/>
<path fill-rule="evenodd" clip-rule="evenodd" fill="#FFFFFF" d="M190.904,246.725l-46.5-95.917l76.157,50.448l76.16-50.451
	l-46.5,95.922c-8.974-4.375-19.037-6.835-29.662-6.835C209.94,239.893,199.874,242.353,190.904,246.725L190.904,246.725z"/>
<polygon fill-rule="evenodd" clip-rule="evenodd" fill="#007AAB" points="266.461,179.667 220.562,225.3 174.667,179.67 
	220.562,210.911 266.461,179.667 "/>
<path fill-rule="evenodd" clip-rule="evenodd" fill="#FFFFFF" d="M159.381,337.566l-95.917,46.497l50.446-76.157l-50.449-76.16
	l95.921,46.503c-4.375,8.971-6.833,19.037-6.833,29.657C152.549,318.529,155.007,328.595,159.381,337.566L159.381,337.566z"/>
<polygon fill-rule="evenodd" clip-rule="evenodd" fill="#007AAB" points="92.323,262.009 137.956,307.906 92.326,353.802 
	123.565,307.906 92.323,262.009 "/>
<path fill="#007AAB" d="M198.113,294.555l0.574-0.949l9.135-15.059l0.334-0.551l0.625,0.166l12.188,3.218l10.553-2.566l0.527-0.127
	l0.343,0.422l11.42,14.076l0.791,0.976l-1.192,0.39l-12.454,4.061v11.37h-20.648v-11.687l-11.134-3.413L198.113,294.555
	L198.113,294.555z M200.742,293.556l10.683,3.278l0.611,0.185v11.229h17.191v-10.89l0.598-0.196l11.856-3.864l-10.283-12.68
	l-10.238,2.49l-0.422-0.006l-11.771-3.107L200.742,293.556L200.742,293.556z"/>
<path fill="#007AAB" d="M200.483,333.535l0.857-0.419l8.979-4.386v-16.406h20.707v16.403l9.401,4.512l0.873,0.422l-0.516,0.817
	l-9.694,15.328l-0.451,0.712l-0.718-0.428l-8.322-4.948l-9.601,5.42l-0.718,0.404l-0.438-0.706l-9.858-15.914L200.483,333.535
	L200.483,333.535z M202.954,334.252l8.918,14.396l9.316-5.259l0.434-0.246l0.428,0.258l8.03,4.775l8.728-13.796l-9.018-4.33
	l-0.492-0.237v-15.762h-17.25v15.756l-0.486,0.237L202.954,334.252L202.954,334.252z"/>
<path fill="#007AAB" d="M174.167,277.717c1.405-2.149,2.953-4.194,4.627-6.119c1.671-1.922,3.486-3.735,5.424-5.427l1.134,1.298
	c-1.859,1.622-3.617,3.382-5.253,5.263c-1.629,1.872-3.13,3.854-4.487,5.931L174.167,277.717L174.167,277.717z"/>
<polygon fill="#007AAB" points="185.644,266.719 187.242,280.012 187.38,281.153 186.243,280.964 174.749,279.041 175.033,277.339 
	185.389,279.072 183.927,266.922 185.644,266.719 "/>
<path fill="#007AAB" d="M172.021,281.287c1.947-3.53,4.273-6.833,6.918-9.85c2.659-3.028,5.638-5.766,8.883-8.155l1.02,1.392
	c-3.148,2.317-6.034,4.969-8.604,7.897c-2.561,2.918-4.813,6.119-6.703,9.548L172.021,281.287L172.021,281.287z"/>
<polygon fill="#007AAB" points="189.19,263.887 191.394,284.445 191.514,285.567 190.4,285.388 172.642,282.554 172.913,280.852 
	189.558,283.507 187.474,264.07 189.19,263.887 "/>
<path fill="#007AAB" d="M168.729,288.412c2.417-6.393,5.987-12.227,10.447-17.246c4.49-5.049,9.886-9.278,15.929-12.425l0.797,1.534
	c-5.855,3.048-11.086,7.147-15.434,12.04c-4.326,4.865-7.784,10.519-10.124,16.707L168.729,288.412L168.729,288.412z"/>
<polygon fill="#007AAB" points="196.27,259.112 205.05,276.073 205.276,276.511 205.012,276.929 195.157,292.545 194.814,293.087 
	194.197,292.917 187.236,290.99 181.625,298.337 181.088,299.038 180.4,298.49 169,289.39 170.076,288.042 180.787,296.588 
	186.218,289.481 186.571,289.018 187.134,289.173 194.039,291.083 203.29,276.428 194.736,259.903 196.27,259.112 "/>
<path fill="#007AAB" d="M246.952,259.238c5.713,3.114,10.822,7.206,15.1,12.044c4.254,4.813,7.69,10.37,10.078,16.441l-1.608,0.627
	c-2.314-5.883-5.643-11.265-9.762-15.926c-4.146-4.692-9.097-8.657-14.631-11.675L246.952,259.238L246.952,259.238z"/>
<polygon fill="#007AAB" points="271.819,288.746 259.248,297.479 258.489,298.003 258.015,297.221 254.71,291.775 248.836,293.187 
	248.312,293.313 247.969,292.891 235.26,277.273 234.864,276.791 235.198,276.265 245.81,259.531 247.271,260.457 236.988,276.668 
	248.962,291.379 254.924,289.944 255.536,289.794 255.861,290.336 259.017,295.537 270.835,287.328 271.819,288.746 "/>
<path fill="#007AAB" d="M253.327,263.301c3.278,2.416,6.284,5.187,8.962,8.253c2.663,3.051,4.998,6.394,6.949,9.976l-1.515,0.823
	c-1.887-3.469-4.151-6.708-6.732-9.664c-2.59-2.968-5.505-5.653-8.684-7.997L253.327,263.301L253.327,263.301z"/>
<polygon fill="#007AAB" points="268.617,282.792 250.723,285.649 249.609,285.828 249.729,284.706 251.959,263.905 253.676,264.088 
	251.566,283.771 268.345,281.09 268.617,282.792 "/>
<path fill="#007AAB" d="M256.931,266.196c1.963,1.714,3.806,3.563,5.505,5.527c1.708,1.973,3.272,4.056,4.679,6.233l-1.453,0.939
	c-1.377-2.13-2.892-4.15-4.529-6.042c-1.652-1.91-3.437-3.703-5.335-5.36L256.931,266.196L256.931,266.196z"/>
<polygon fill="#007AAB" points="266.531,279.277 254.88,281.225 253.743,281.414 253.881,280.271 255.507,266.744 257.224,266.946 
	255.735,279.333 266.247,277.573 266.531,279.277 "/>
<path fill="#007AAB" d="M273.694,292.282c0.741,2.508,1.31,5.089,1.688,7.726c0.375,2.584,0.568,5.224,0.568,7.898
	c0,3.384-0.311,6.706-0.902,9.94c-0.604,3.311-1.506,6.521-2.672,9.598l-1.614-0.606c1.131-2.988,2.007-6.097,2.593-9.302
	c0.568-3.114,0.867-6.334,0.867-9.63c0-2.602-0.188-5.159-0.548-7.658c-0.369-2.555-0.92-5.054-1.635-7.479L273.694,292.282
	L273.694,292.282z"/>
<polygon fill="#007AAB" points="271.225,327.93 263.077,324.371 262.116,323.952 262.714,323.09 268.787,314.313 267.99,312.948 
	268.002,312.962 260.563,300.766 260.133,300.06 260.818,299.6 272.382,291.81 273.349,293.243 262.468,300.573 269.476,312.063 
	269.484,312.078 270.557,313.915 270.835,314.386 270.521,314.84 264.727,323.21 271.913,326.351 271.225,327.93 "/>
<path fill="#007AAB" d="M202.975,360.42c-7.419-2.496-14.145-6.527-19.794-11.71c-5.676-5.203-10.271-11.578-13.397-18.732
	l1.581-0.688c3.028,6.929,7.481,13.104,12.986,18.152c5.474,5.021,11.99,8.927,19.173,11.344L202.975,360.42L202.975,360.42z"/>
<polygon fill="#007AAB" points="170.279,328.824 178.31,325.894 178.901,325.68 179.287,326.175 188.99,338.659 198.491,334.504 
	199.159,334.211 199.559,334.818 209.675,350.175 209.982,350.644 209.681,351.119 203.978,360.069 202.519,359.137 207.92,350.659 
	198.511,336.376 189.064,340.51 188.448,340.78 188.036,340.25 178.307,327.731 170.867,330.444 170.279,328.824 "/>
<path fill="#007AAB" d="M236.095,361.065c-2.493,0.732-5.06,1.295-7.682,1.67c-2.569,0.369-5.191,0.56-7.85,0.56
	c-2.424,0-4.83-0.161-7.197-0.472c-2.414-0.316-4.772-0.785-7.063-1.397l0.445-1.67c2.237,0.598,4.522,1.055,6.841,1.359
	c2.271,0.296,4.6,0.451,6.974,0.451c2.587,0,5.128-0.185,7.61-0.539c2.54-0.363,5.024-0.908,7.436-1.614L236.095,361.065
	L236.095,361.065z"/>
<polygon fill="#007AAB" points="205.772,360.168 210.026,352.604 210.372,352.267 221.18,346.466 221.602,346.238 222.018,346.475 
	231.946,352.15 232.263,352.46 236.596,359.799 235.11,360.678 230.895,353.539 221.575,348.212 211.411,353.667 207.28,361.012 
	205.772,360.168 "/>
<path fill="#007AAB" d="M270.199,332.433c-3.223,6.486-7.685,12.258-13.066,17.007v0.003c-5.344,4.711-11.602,8.414-18.472,10.802
	l-0.565-1.629c6.647-2.312,12.715-5.9,17.895-10.471v0.003c5.215-4.6,9.539-10.195,12.662-16.479L270.199,332.433L270.199,332.433z"
	/>
<polygon fill="#007AAB" points="237.642,359.878 232.289,351.081 232.011,350.624 232.298,350.172 242.101,334.657 242.508,334.015 
	243.196,334.337 252.226,338.574 260.52,327.11 260.962,326.495 261.627,326.855 269.833,331.291 269.016,332.811 261.475,328.736 
	253.207,340.165 252.788,340.742 252.144,340.437 243.152,336.221 234.041,350.638 239.115,358.979 237.642,359.878 "/>
<path fill="#007AAB" d="M266.736,314.345l-0.311,0.463l-13.957,20.745l-0.41,0.609l-0.662-0.305l-17.651-8.106l-0.51-0.234v-26.906
	l0.615-0.188l19.646-5.982l0.627-0.19l0.352,0.56l11.965,19.061L266.736,314.345L266.736,314.345z M264.683,314.313l-11.314-18.023
	l-18.401,5.602v24.524l16.479,7.57L264.683,314.313L264.683,314.313z"/>
<path fill="#007AAB" d="M207.825,299.805v27.589l-0.514,0.231l-16.63,7.403l-0.645,0.287l-0.409-0.574l-14.446-20.338l-0.344-0.486
	l0.331-0.492l12.681-18.879l0.354-0.527l0.604,0.179l18.396,5.423L207.825,299.805L207.825,299.805z M206.095,301.094l-17.168-5.06
	l-11.996,17.854l13.692,19.28l15.472-6.891V301.094L206.095,301.094z"/>
<path fill-rule="evenodd" clip-rule="evenodd" fill="#FFFFFF" d="M220.563,253.383c7.85,0,15.318,1.677,22.074,4.686l-10.392,16.783
	l-11.524,3.171l-11.988-3.078l-8.662-17.552C206.402,254.813,213.321,253.383,220.563,253.383L220.563,253.383z"/>
<path fill="#007AAB" d="M168.034,325.446c-0.936-2.792-1.657-5.681-2.14-8.646c-0.472-2.903-0.719-5.877-0.719-8.895
	c0-2.578,0.18-5.127,0.529-7.629c0.354-2.552,0.883-5.048,1.572-7.471l1.661,0.475c-0.669,2.353-1.182,4.77-1.523,7.233
	c-0.334,2.408-0.51,4.878-0.51,7.392c0,2.941,0.239,5.821,0.694,8.619c0.467,2.874,1.165,5.672,2.071,8.373L168.034,325.446
	L168.034,325.446z"/>
<polygon fill="#007AAB" points="168.615,292.346 179.467,300.347 180.122,300.831 179.679,301.513 171.719,313.794 177.311,322.654 
	177.936,323.644 176.801,323.946 169.071,326.005 168.631,324.338 175.226,322.581 169.967,314.246 169.673,313.783 
	169.975,313.317 177.791,301.258 167.596,293.738 168.615,292.346 "/>
</svg>
