<?xml version="1.0" encoding="utf-8"?>
<!-- Generator: Adobe Illustrator 13.0.2, SVG Export Plug-In . SVG Version: 6.00 Build 14948)  -->
<!DOCTYPE svg PUBLIC "-//W3C//DTD SVG 1.0//EN" "http://www.w3.org/TR/2001/REC-SVG-20010904/DTD/svg10.dtd">
<svg version="1.0" id="Layer_1" xmlns="http://www.w3.org/2000/svg" xmlns:xlink="http://www.w3.org/1999/xlink" x="0px" y="0px"
	 width="337.426px" height="331.774px" viewBox="0 0 337.426 331.774" enable-background="new 0 0 337.426 331.774"
	 xml:space="preserve">
<polygon fill="#FFFFFF" points="213.718,259.708 228.208,251.355 235.197,262.265 220.707,267.379 "/>
<polygon fill="#FFFFFF" points="23.985,31.109 22.962,27.188 29.44,22.585 39.328,18.665 48.533,18.324 56.204,19.688 
	85.524,11.505 92.854,10.823 95.752,6.05 105.992,9.433 109.049,13.04 118.766,14.062 113.311,33.837 102.23,38.098 90.979,33.496 
	85.354,28.552 76.66,29.916 62.34,30.256 51.09,34.519 46.487,32.644 40.35,36.052 28.587,37.246 29.248,35.542 "/>
<g>
	<path d="M32.526,241.771c2.193-2.908,2.098-5.494,0.074-8.5c-1.427-2.117-3.695-4.313-6.305-2.554
		c-2.462,1.659-1.063,5.011-0.113,7.166c1.267,3.156,3.065,7.314,3.083,10.739c0.035,3.987-1.644,7.552-4.993,9.809
		c-3.3,2.223-7.514,2.771-11.292,1.521c-3.943-1.283-7.072-4.545-9.361-7.944c-4.281-6.352-5.405-13.973,0.166-19.945l6.585,6.162
		c-2.882,3.373-2.389,6.763-0.032,10.261c1.526,2.267,4.388,4.706,7.195,2.815c2.808-1.891,0.761-6.098-0.189-8.465
		c-2.816-6.838-5.026-13.943,2.362-18.92c3.152-2.124,6.74-2.75,10.385-1.698c3.728,1.069,6.375,3.51,8.465,6.614
		c3.981,5.911,5.165,12.129,0.697,18.146L32.526,241.771z"/>
	<path d="M29.105,281.721l-7.037-6.382l27.37-30.173l11.348,10.294c2.947,2.672,5.63,5.107,6.58,9.097
		c0.916,4.117-0.075,7.948-2.908,11.071c-2.592,2.859-6.238,4.844-10.196,4.7c-4.55-0.198-7.281-2.755-10.491-5.669l-4.531-4.109
		L29.105,281.721z M48.184,268.642c1.672,1.516,3.08,2.794,5.508,2.592c1.338-0.149,2.522-0.839,3.402-1.806
		c1.077-1.187,1.709-2.858,1.421-4.482c-0.341-1.834-1.793-3.152-3.113-4.347l-3.914-3.551l-7.261,8.004L48.184,268.642z"/>
	<path d="M81.626,317.71l-8.961-5.022l1.917-8.523l-11.501-6.446l-6.321,6.056l-7.304-4.094l31.314-29.15l9.635,5.402L81.626,317.71
		z M76.323,296.563l3.216-14.604L68.76,292.323L76.323,296.563z"/>
	<path d="M99.667,323.538l-9.164-2.506l10.749-39.291l16.553,4.53c3.493,0.955,7.028,1.985,9.531,4.762
		c2.627,2.998,3.353,7.32,2.304,11.156c-1.223,4.468-4.928,7.888-9.589,8.274l2.525,19.343l-10.195-2.789l-1.767-17.166l-6.7-1.833
		L99.667,323.538z M105.762,301.26l5.041,1.378c1.89,0.516,3.904,1.253,5.832,0.734c1.74-0.508,3.042-2.123,3.513-3.841
		c0.422-1.546-0.04-3.457-1.137-4.62c-1.28-1.396-3.978-1.889-5.696-2.358l-4.811-1.315L105.762,301.26z"/>
	<path d="M164.426,299.076l-10.212-0.207l-0.656,32.653l-9.499-0.189l0.656-32.653l-10.33-0.208l0.162-8.074L164.588,291
		L164.426,299.076z"/>
	<path d="M204.287,324.869l-10.092,1.924l-4.017-7.757l-12.949,2.469l-0.939,8.702l-8.225,1.568l5.205-42.458l10.849-2.069
		L204.287,324.869z M186.619,312.099l-6.938-13.246l-1.578,14.869L186.619,312.099z"/>
	<path d="M275.34,283.617l-8.249-4.329l-4.251,3.459l5.41,6.643l-1.922,1.565l-12.493-15.343l5.749-4.68
		c1.251-1.02,2.585-1.846,4.253-1.902c1.666-0.055,3.309,0.729,4.365,2.025c1.474,1.813,1.729,4.319,0.342,6.268l8.81,4.654
		L275.34,283.617z M265.168,278.25c1.028-0.838,1.823-1.597,1.947-2.999c0.099-0.974-0.256-1.913-0.858-2.651
		c-0.727-0.895-1.664-1.358-2.802-1.25c-1.053,0.078-1.72,0.583-2.524,1.239l-3.826,3.114l4.462,5.48L265.168,278.25z"/>
	<path d="M273.516,272.348c-3.523-3.451-5.68-8.958-1.684-13.036c3.897-3.977,9.318-2.258,12.802,1.153
		c3.46,3.392,5.7,9.059,1.764,13.078C282.421,277.601,277.059,275.82,273.516,272.348z M282.918,262.42
		c-1.256-1.23-2.921-2.458-4.681-2.93c-1.738-0.45-3.59-0.125-4.882,1.193c-3.088,3.152-0.537,7.349,1.998,9.832
		c2.43,2.38,6.675,4.603,9.602,1.613C287.923,269.1,285.35,264.803,282.918,262.42z"/>
	<path d="M297.496,260.675l-13.772-10.996l-3.509,4.396l-1.69-1.35l8.564-10.729l1.691,1.349l-3.508,4.395l13.771,10.996
		L297.496,260.675z"/>
	<path d="M307.508,247.04l-14.751-9.639l-3.076,4.707l-1.812-1.183l7.512-11.492l1.812,1.185l-3.078,4.706l14.75,9.642
		L307.508,247.04z"/>
	<path d="M319.988,225.308l-5.978,11.328l-17.502-9.237l5.844-11.073l1.889,0.996l-4.686,8.877l5.562,2.936l3.716-7.042l1.761,0.929
		l-3.716,7.042l6.403,3.379l4.821-9.134L319.988,225.308z"/>
	<path d="M326.266,210.221l-9.313,0.215l-2.039,5.086l7.952,3.187l-0.923,2.303l-18.365-7.36l2.757-6.88
		c0.601-1.5,1.367-2.871,2.797-3.725c1.432-0.857,3.247-0.968,4.8-0.348c2.167,0.871,3.609,2.939,3.339,5.317l9.962-0.204
		L326.266,210.221z M314.767,210.461c0.492-1.231,0.82-2.281,0.247-3.567c-0.383-0.899-1.149-1.548-2.033-1.901
		c-1.071-0.431-2.116-0.382-3.058,0.264c-0.885,0.579-1.222,1.344-1.608,2.309l-1.835,4.578l6.559,2.628L314.767,210.461z"/>
	<path d="M309.841,197.454l1.654-6.035c0.746-2.727,1.859-4.605,4.497-5.827c2.369-1.115,4.943-1.126,7.42-0.448
		c2.336,0.64,4.478,1.883,6.023,3.772c1.723,2.118,2.072,4.336,1.355,6.952l-1.867,6.815L309.841,197.454z M328.508,196.228
		c0.602-2.198,0.582-4.087-0.994-5.865c-1.188-1.341-3.042-2.328-4.765-2.801c-1.947-0.533-4.114-0.588-6.017,0.237
		c-1.998,0.857-2.724,2.304-3.272,4.305l-0.96,3.505l15.049,4.122L328.508,196.228z"/>
	<path d="M335.695,171.858l-6.012,1.049l-1.161,7.234l5.415,2.652l-0.328,2.049l-18.521-9.459l0.452-2.819l20.556-3.212
		L335.695,171.858z M317.895,174.636l8.885,4.524l0.964-6.009L317.895,174.636z"/>
	<path d="M337.383,162.331l-0.005,2.076l-19.791-0.05l0.011-3.691l15.851-5.932l-15.822-5.868l0.008-3.634l19.791,0.048
		l-0.007,2.482l-17.28-0.043v0.115l17.265,6.304l-0.005,1.673l-17.296,6.362v0.116L337.383,162.331z"/>
	<g>
		<circle fill="#FFFFFF" cx="155.012" cy="145.793" r="127.694"/>
		<g>
			<path fill="#DB2F36" d="M183.648,55.148c0.773,0.762,1.507,2.017,2.009,2.239c0.5,0.223,5.03,2.527,6.909,7.227
				c1.879,4.702,1.621,3.118,3.694,9.345c2.074,6.227,10.609,11.474,11.79,10.437c0.883,1.8-0.085,7.311,0.229,8.77
				c-2.001-0.766-2.341-0.136-2.341-0.136s-1.852-0.22-3.082-1.574c-1.816-4.643-6.462-10.748-6.462-10.748
				s-7.611-11.678-10.315-13.023c-2.704-1.347-3.861-1.17-4.606-0.029c-0.744,1.141-0.296,2.839-0.166,4.306
				c0.131,1.468,1.769,2.373,2.825,2.631c1.056,0.256,6.786,7.171,6.786,7.171s4.216,6.126,6.733,8.71
				c2.517,2.583,6.097,5.608,6.928,6.305c0.831,0.698,0.922,5.238,0.848,6.285c-0.073,1.047,6.221,4.313,7.134,4.147
				c0.913-0.166,0.662-1.628,0.662-1.628s-0.035-3.314-0.08-4.294c-0.045-0.98-1.074-1.915-1.074-1.915s-1.586,0.197-2.115-0.576
				c-0.527-0.773-1.211-3.566-0.937-4.254c0.274-0.688,5.275,3.804,5.545,4.284c0.268,0.479-0.381,1.061-0.161,1.849
				c0.221,0.789,2.325,1.12,3.583,1.736c1.257,0.617,2.755,2.449,2.755,2.449l1.942,2.119c0,0-0.814,0.96-0.783,1.634
				c0.032,0.674,1.755,2.065,1.786,5.319c0.03,3.253,6.821,0.109,6.821,0.109s-0.979-6.463-1.683-7.043
				c-0.703-0.582-5.623-3.359-5.623-3.359s-0.136-2.878,1.1-4.042c1.233-1.163-0.822-3.093-3.007-3.849
				c-2.184-0.758-4.12-0.175-4.12-0.175s0.588-1.808,0.567-2.298c-0.024-0.49-0.829-1.927-2.479-3.077
				c-1.649-1.15-3.673-1.055-3.245-2.426c0.426-1.37,3.125-7.945,1.971-8.996c-1.155-1.05-6.384-1.295-7.498-1.428
				c-1.11-0.132-3.867-3.932-5.383-8.712c-1.513-4.78-1.982-8.195-5.075-12.594c-3.092-4.398-7.984-6.563-9.625-6.24
				C184.762,50.122,182.875,54.386,183.648,55.148z"/>
			<path fill="#DB2F36" d="M208.892,117.943l4.861-2.378c0,0-1.044-1.302-0.835-3.4c0.209-2.097,0.065-2.521-0.678-2.669
				c-0.744-0.148-2.356,2.137-3.01,3.887C208.575,115.133,208.892,117.943,208.892,117.943z"/>
			<path fill="#DB2F36" d="M180.898,43.672c0,0-2,0.585-2.22-0.203c-0.222-0.788-0.934-1.552-0.934-1.552l-0.196-2.877
				c0,0,1.083-1.771,6.08,0.021c4.997,1.792,7.781,4.854,7.133,5.437C190.113,45.081,180.898,43.672,180.898,43.672z"/>
			<path fill="#DB2F36" d="M165.743,33.476c1.404,0.262,2.752,2.817,2.88,3.794c0.127,0.977-3.666,2.138-3.666,2.138l-2.954,1.612
				c0,0-1.039,0.541-2.119-1.537c-1.08-2.079-0.827-1.927-0.827-1.927l0.736-1.754C159.793,35.802,164.338,33.213,165.743,33.476z"
				/>
			<path fill="#DB2F36" d="M171.761,117.929c0,0-3.787-2.196-5.299-11.704c-1.511-9.507-1.776-15.144-2.715-19.438
				c-0.938-4.295-4.904-8.53-5.917-12.659c-1.012-4.127,0.545-12.797,1.312-13.897c0.767-1.1,1.627-1.959,1.627-1.959
				s0.786-0.692,0.462,1.124c-0.324,1.817,0.735,6.924,1.839,9.493c1.103,2.567,3.261,4.922,5.685,9.475
				c2.424,4.553,3.172,18.682,3.663,23.898c0.491,5.217,3.068,9.518,3.068,9.518s1.023,0.852,0.371,2.683
				c-0.65,1.832-2.374,3.469-2.374,3.469L171.761,117.929z"/>
			<path fill="#DB2F36" d="M139.873,70.061c-0.568,0.109-0.619,0.765-0.281,0.996c0.339,0.229,1.927,4.412,3.159,6.237
				c1.233,1.825,3.11,5.175,4.017,8.817c2.214,5.299,2.588,11.504,4.147,13.313c1.559,1.811,4.655,8.459,4.655,8.459l3.295,0.418
				c0,0,3.5-0.41,3.782-3.125c0.282-2.715-2.98-7.638-2.98-7.638s0.099-1.396-0.741-1.848c-0.84-0.452-2.489-2.421-2.489-2.421
				l-6.149-15.839l0.313-2.062c0,0-1.306-1.658-2.884-3.876c-1.578-2.218-4.716-2.807-4.266-1.928
				c0.451,0.879-1.504-0.665-1.504-0.665S140.441,69.952,139.873,70.061z"/>
			<path fill="#DB2F36" d="M120.97,45.018l-1.597-9.135l1.503-7.193l-1.072-1.915c0,0-1.323,1.905-2.338,5.146
				c-1.013,3.24-0.765,12.439-0.765,12.439l0.29,8.768c0,0,1.292,5.281,2.899,6.802c1.606,1.521,4.972,3.88,4.972,3.88
				s-2.381-4.922-3.087-10.785C121.071,47.162,120.97,45.018,120.97,45.018z"/>
			<polygon fill="#DB2F36" points="127.888,92.894 126.399,75.586 124.557,82.121 125.653,88.455 			"/>
			<path fill="#DB2F36" d="M145.371,100.36c-0.5-2.801-5.666-16.005-6.099-17.396c-0.434-1.393-0.542-8.939-1.079-11.187
				c-0.535-2.247-2.776-6.809-3.937-7.981c-1.161-1.174-1.824-4.827-1.824-4.827l-1.024,0.417c0,0,0.053-0.188-0.334-0.599
				c-0.388-0.412-1.111-0.132-1.111-0.132s-1.676,0.938-2.146,1.391c-0.471,0.452,0.161,0.791,0.161,0.791s0.796,3.893,1.388,6.014
				c0.591,2.121,2.061,3.342,3.153,6.975c1.091,3.632-0.085,11.241-0.061,13.082c0.025,1.841,1.829,6.238,1.829,6.238
				s1.439,3.186,3.05,7.409c1.611,4.222,1.858,6.851,1.858,6.851l4.634,1.931l4.999-0.788c0,0,0.339-0.629-0.667-2.424
				C147.155,104.329,145.871,103.162,145.371,100.36z"/>
			<path fill="#DB2F36" d="M91.492,33.612c0,0,2.593,2.907,5.394,1.546c2.802-1.359,1.776-4.013,1.776-4.013l-1.91-5.805
				l1.629-5.398c0,0,0.522-1.519-1.181-2.483c-1.704-0.964-2.334-0.872-2.334-0.872s1.897-4.04,2.421-4.208
				c0.525-0.168,3.214,1.302,4.29,2.417c1.076,1.117,1.866,1.387,1.866,1.387s0.635,0.891,1.54,1.401
				c0.904,0.51,1.208-0.856,1.517-0.809c0.31,0.047,0.629-0.131,5.353,0.648c4.724,0.781,4.738,1.497,4.738,1.497l-0.788,2.412
				c0,0-3.827-0.414-6.407-0.436c-2.58-0.021-4.724-1.639-5.814-1.772c-1.09-0.133-2.265,2.317-2.265,2.317s-1.11,2.507-0.842,2.986
				c0.267,0.479,0.849,1.515,1.407,2.062c0.559,0.548,1.105-0.011,5.297,1.226c4.192,1.235,6.722,0.174,6.722,0.174l-0.734,5.275
				c0,0-1.967-0.05-4.84,1.539c-2.873,1.588-5.455,2.384-5.455,2.384l-0.508,3.135c0,0,3.743,1.257,6.551,0.02
				c2.807-1.237,5.915-0.871,6.683-0.642c0.769,0.229,0.313-3.781,0.313-3.781l3.958-23.765c0,0-2.801-0.379-4.263-0.126
				c-1.461,0.253-6.301,1.36-6.691,0.479c-0.389-0.882-2.923-2.974-2.923-2.974l-5.872-2.998l-4.411,0.207l-1.646,6.791
				l-9.729,5.534l0.862,4.38c0,0,2.02-0.566,5.547-0.425c3.527,0.141,5.165,1.886,5.165,1.886s-0.237,2.365-1.807,3.36
				c-1.57,0.995-3.596,3.608-3.596,3.608L91.492,33.612z"/>
			<path fill="#DB2F36" d="M60.708,153.692l7.953,3.719l9.066,8.251l3.605-5.163c0,0,0.621-4.205-7.093-9.819
				c-4.996-3.635-9.738-3.39-10.711-3.18c-1.202,0.259-2.277,2.073-2.277,2.073L60.708,153.692z"/>
			<path fill="#DB2F36" d="M66,137.395c0,0,4.182,0.131,10.34,5.736c6.158,5.605,5.255,12.524,5.255,12.524s-0.037,2.704,2.777-0.13
				c1.716-1.8,2.575-0.939,2.575-0.939l3.259-3.837c0,0,0.036-7.943-5.582-14.229c-5.617-6.285-14.888-4.949-14.888-4.949
				L66,137.395z"/>
			<path fill="#DB2F36" d="M77.27,121.146c0,0-0.141,2.217,0.96,2.984c1.1,0.767,3.155-0.803,7.536,3.575
				c4.382,4.378,4.963,8.035,5.232,8.514c0.269,0.479,4.318-0.448,4.318-0.448l0.891-7.165c0,0,0.126-2.543-4.601-7.315
				c-4.728-4.773-9.384-4.553-9.384-4.553s-1.437,2.523-3.962,2.806C75.734,119.827,77.27,121.146,77.27,121.146z"/>
			<path fill="#DB2F36" d="M207.475,251.009c0,0,6.108,1.923,10.969-3.096c4.861-5.018,3.545-12.079,3.545-12.079l-1.643-4.895
				c0,0-1.871-3.229-2.775-2.878c-0.904,0.35-0.396,2.044-0.396,2.044s1.91,7.955-3.321,11.639
				c-5.229,3.684-10.42,0.367-11.62,0.976c-1.2,0.61-0.403,3.151-0.403,3.151L207.475,251.009z"/>
			<path fill="#DB2F36" d="M189.623,230.48c0,0,0.377-1.124,1.71-1.493c1.334-0.37,9.026,5.224,14.317-2.393
				c5.292-7.617,1.29-14.368,1.29-14.368l5.771,3.905c0,0,3.135,9.185-2.851,17.694c-5.987,8.51-17.186,2.774-17.186,2.774
				L189.623,230.48z"/>
			<path fill="#DB2F36" d="M213.787,253.354c1.329-0.432,5.14,0.924,7.789-0.183c2.65-1.106,3.582-6.125,3.582-6.125l3.187,7.711
				c0,0-1.697,4.376-4.339,5.667c-2.64,1.291-7.285,0.467-7.285,0.467l-5.068-5.964
				C211.651,254.927,212.456,253.784,213.787,253.354z"/>
			<path fill="#DB2F36" d="M222.364,263.388c0.84-0.409,1.803,0.467,3.308-0.156c1.506-0.624,3.63-5.083,3.63-5.083l2.357,4.433
				l-10.302,2.879l-0.648-0.706C220.71,264.756,221.524,263.796,222.364,263.388z"/>
			<path d="M26.006,31.248c-0.718,0.402-4.715,1.573-5.595-1.456c-0.88-3.028,8.483-7.645,12.579-9.311
				c4.098-1.667,11.172-5.315,16.336-5.19c5.163,0.125,7.466,2.105,7.466,2.105s26.332-6.766,29.937-5.829
				c1.249,0.432-0.071,1.108-0.071,1.108c-22.572,5.729-27.867,10.645-29.74,9.996c-1.872-0.65-8.027-3.553-16.814-2.402
				c-8.789,1.15-15.536,6.503-15.631,7.122c-0.093,0.618,2.691-0.249,3.045,2.066C27.7,30.677,26.724,30.846,26.006,31.248z"/>
			<path d="M38.612,27.708c5.129-0.61,8.204-0.51,9.044-0.917c0.841-0.407-0.021-3.069-0.511-3.046
				c-0.49,0.023-0.653-0.829-1.389-0.794c-0.735,0.034-13.942,3.849-15.459,5.517c-1.518,1.667,0.408,0.84,0.408,0.84
				S33.483,28.317,38.612,27.708z"/>
			<path d="M31.385,33.329c-0.379-0.229-5.067,4.536-3.54,5.691c1.529,1.157,8.014-1.973,8.014-1.973s-0.165,1.727,2.804,2.202
				c2.97,0.474,7.495-5.142,7.495-5.142s0.322-0.999,1.219-0.181c0.899,0.818,2.438,2.22,5.479,1.585
				c3.04-0.635,10.727-4.313,9.875-4.15c-0.852,0.164,4.873-0.843,7.807-1.104c2.936-0.261,4.569,0.522,7.107-0.334
				c1.815-0.577,2.511-1.469,2.709-2.46c0.199-0.992-7.561-1.486-9.638-1.266c-2.078,0.221-6.104,0.779-7.429,1.332
				c-1.325,0.554-1.92,0.951-3.199,2.484c-1.279,1.534-5.439,1.852-6.426,1.776c-0.986-0.077-2.904-1.706-4.392-2.004
				c-1.488-0.298-4.773,0.347-7.574,0.848c-2.802,0.5-7.972,2.831-7.209,3.41c0.765,0.577,2.539-0.857,5.713-1.252
				c3.175-0.395,5.66,0.225,5.66,0.225s-4.091,1.79-4.599,1.445s-1.189-1.788-1.901-1.262c-0.711,0.525-2.253,1.704-5.282,2.582
				c-3.028,0.879-3.886,0.92-3.927,0.062C30.111,34.984,31.764,33.556,31.385,33.329z"/>
			<path d="M106.132,8.935c0,0,1.09,2.282-0.689,1.015c-1.779-1.268-5.045-2.833-6.153-2.904c-1.109-0.07-2.084,0.098-2.557,0.489
				c-0.473,0.391,1.889,3.595,0.702,7.089c-1.187,3.495-9.77,3.776-11.299,5.198c-1.53,1.423-0.58,3.343,0.504,5.502
				c1.084,2.16,5.644,7.718,5.644,7.718s1.528,1.155-0.695,0.892c-2.222-0.263-9.687-7.526-10.84-11.156
				c-1.153-3.63,0.843-5.565,2.898-6.276c2.054-0.711,5.137-3.066,7.202-3.532c2.066-0.466,1.361-2.397,1.361-2.397
				s-1.229-2.645-0.697-4.389c0.532-1.745,5.496-0.627,7.836-0.491C101.688,5.829,106.132,8.935,106.132,8.935z"/>
			<path d="M114.916,15.522c0.612-0.029,1.286-3.991,1.286-3.991s0.823-0.775-0.408-0.84c-1.23-0.065-5.742,0.638-6.22,0.906
				c-0.479,0.269-0.678,1.261-2.72,2.216c-2.043,0.956-1.588,0.198-3.391,1.02c-1.804,0.822-6.802,6.828-7.351,8.205
				s-0.994,2.38-1.571,3.145c-0.578,0.763-1.478,2.525,0.08,4.293c1.556,1.769,3.126,1.204,4.352,1.146
				c1.225-0.057,3.231,0.831,3.231,0.831s-6.498,8.042-4.143,11.125c2.355,3.082,9.855-1.938,10.451-2.334
				c0.596-0.397,2.224-2.315-0.577-1.816c-2.801,0.5-5.023,0.236-5.023,0.236s0.58-3.342,1.835-5.367
				c1.256-2.024,1.834-2.789,2.388-4.042c0.555-1.254,0.405-1.861-0.716-2.177c-1.12-0.315-5.968-1.561-7.199-1.626
				c-1.231-0.065-1.411-1.285-1.119-2.894c0.293-1.61,1.526-4.125,4.374-6.224c2.85-2.098,4.197-2.162,6.525-2.271
				C111.327,14.954,114.304,15.55,114.916,15.522z"/>
			<path d="M123.255,23.112c0,0-3.03,3.459-4.491,6.352c-1.459,2.892-1.019,7.047-4.159,8.177c-3.14,1.13-1.564-9.751-0.739-13.105
				c0.825-3.355,4.89-10.914,6.129-13.306c1.239-2.392,5.331-6.759,7.035-7.084c1.705-0.327,3.314-0.034,3.314-0.034
				s8.929-3.367,12.833-3.919c3.904-0.552,5.408,0.114,7.321,1.621c5.343,3.924,6.949,11.953,6.949,11.953s1.866,0.527,2.972,5.756
				c1.105,5.229,0.23,15.339-0.418,17.212c-0.648,1.872-2.412,3.552-2.412,3.552s-0.218,3.204-1.742,4.75
				c-1.524,1.544-2.71,5.04-3.066,5.302c-0.357,0.263-1.366-0.304-1.039-1.179c0.328-0.875,2.354-4.777,2.354-4.777
				s0.993-2.38,0.352-2.964c-0.641-0.584-1.208,0.425-1.348,0.063c-0.14-0.362-0.186-1.342-0.186-1.342l-0.385-0.35
				c0,0-0.256-2.813-0.045-3.559c0.211-0.747,0.321-0.998,0.946-0.782c0.624,0.217,0.792,1.191,0.792,1.191s0.362-0.14,1.109,0.071
				c0.747,0.21,0.909,1.063,0.909,1.063s1.723-2.539,0.301-6.646c-1.422-4.108-2.476-5.655-3.456-5.609
				c-0.98,0.045-1.964,5.25-1.785,6.47c0.181,1.22-0.904,1.639-0.904,1.639s1.917,4.209-1.502,4.616
				c-3.419,0.405-4.124-1.526-5.588-3.914c-1.462-2.387-2.063-2.113-3.067-2.558c-1.003-0.443-9.074,0.304-11.997,0.81
				c-2.923,0.507-4.341-0.9-4.854-1.367C122.877,30.744,123.255,23.112,123.255,23.112z"/>
			<path d="M137.598,61.735c0,0,2.743,0.853,4.504-0.826c1.763-1.679,4.91-5.266,5.74-5.919c0.83-0.652,2.376-1.708,2.376-1.708
				s0.935-1.026,0.413,0.964c-0.52,1.989-1.958,5.372-3.19,7.887c-1.233,2.514-2.874,4.188-5.313,4.548
				c-2.439,0.36-3.138-1.449-3.668-2.284c-0.531-0.835-1.703-2.254-1.703-2.254s-1.126-0.438-1.283-1.168
				c-0.157-0.729,0.316-1.12,1.185-0.915C137.529,60.265,137.598,61.735,137.598,61.735z"/>
			<path d="M138.755,57.629c0.864,0.082,1.727,0.163,2.2-0.227c0.474-0.391-0.861-2.661-0.861-2.661s-1.178-1.541-2.152-1.373
				c-0.974,0.169-0.433,1.249-0.433,1.249s-2.818,0.132-3.53,0.658c-0.712,0.524-1.061-1.67-1.061-1.67s0.093-0.619,0.176-1.482
				c0.082-0.864-1.646-1.028-1.646-1.028s-2.872,1.608-3.712,2.017c-0.84,0.407-0.979-2.534-0.979-2.534s-0.101-4.784-0.164-6.132
				c-0.064-1.348-0.845-2.293-1.621-3.117c-0.775-0.823-2.631-1.105-3.372-1.192c-0.741-0.087-0.669-3.776-0.738-5.247
				c-0.069-1.469,0.802-6.422,0.802-6.422s0.031-1.967-0.98,0.045c-1.01,2.012-1.859,7.456-1.744,9.907s0.521,5.87,1.169,6.576
				c0.646,0.707,3.191-0.027,4.229,1.152c1.038,1.18,0.934,9.413,1.494,10.86c0.56,1.447,2.427,1.973,3.372,1.192
				c0.945-0.781,2.113-2.065,2.113-2.065s-0.078,3.565,0.891,3.274C133.176,59.119,137.893,57.546,138.755,57.629z"/>
			<path d="M126.221,39.183c0.81,1.559,2.369,0.748,2.369,0.748s2.404-1.095,4.593-1.567c2.188-0.472,2.929-0.383,4.394-0.576
				c1.465-0.191,1.045-1.277-0.332-1.825c-1.376-0.55-4.212-0.785-6.051-0.698c-1.837,0.086-4.714,1.573-4.714,1.573
				S125.411,37.624,126.221,39.183z"/>
			<path d="M130.258,41.45c0,0-1.798,0.943-0.199,0.991c1.599,0.049,3.069-0.021,3.069-0.021s-0.165,1.727,1.189,1.786
				c1.354,0.06,0.667-1.505,0.667-1.505s4.201,0.54,4.708,0.884c0.508,0.344,0.427-1.372,0.427-1.372s0.728-0.158,0.093-0.618
				c-0.636-0.462-3.483-0.942-5.327-0.978C133.041,40.581,130.258,41.45,130.258,41.45z"/>
			<path d="M174.489,36.667c1.254,0.554,1.771,3.724,1.829,4.949c0.058,1.226,0.255,2.812-1.542,3.757
				c-1.798,0.944-3.916-2.271-4.067-2.878c-0.149-0.608-1.545-1.524-2.87-0.971s-2.349,4.899-2.395,6.499
				c-0.049,1.598,1.63,5.94,1.63,5.94s-2.662,0.863-5.417,2.343s-4.763,3.172-5.825,4.082c-1.063,0.909,0.408,0.84,0.408,0.84
				s1.646-1.551,5.721-3.707c4.074-2.157,7.042-1.683,7.042-1.683s1.599,0.047,1.641-1.675c0.042-1.72-1.829-4.949-1.215-7.556
				c0,0,4.022,4.6,5.915,3.038c1.892-1.563,2.652-3.687,2.577-7.859c-0.072-4.171-0.905-6.22-0.952-7.2
				c-0.046-0.98-1.027-0.934-1.621-0.538c-0.596,0.396-1.162,1.405-1.162,1.405S173.235,36.112,174.489,36.667z"/>
			<path d="M164.602,40.571c0,0,2.837-2.345,0.298-1.488c-2.538,0.857-4.068,2.279-9.814,10.655
				c-5.747,8.375-4.993,27.006-4.993,27.006s-5.107-6.76-6.234-7.197c-1.126-0.438-0.321,0.997-0.321,0.997
				s5.707,9.065,6.902,10.973c1.195,1.909,4.779,10.214,4.626,12.186c0.519,0.59,2.662-0.861,2.662-0.861s0.519,0.589-0.092-1.961
				c-0.612-2.55-5.538-10.67-5.538-10.67s0.411-14.755,3.747-22.159C159.183,50.65,164.602,40.571,164.602,40.571z"/>
			<path d="M181.731,44.432c0,0-3.604-1.796-0.311-1.378c3.295,0.418,12.378,0.318,20.971,7.2s10.324,19.328,10.324,19.328
				s0.033,2.455,1.418,2.307c1.386-0.146,3.069,0.838,3.069,0.838s2.123,1.62,2.166,2.518c0.042,0.899-1.319-0.184-1.319-0.184
				s-7.861-0.039-9.16-1.534c-1.297-1.495-2.832-7.972-8.396-18.354C194.929,44.793,181.731,44.432,181.731,44.432z"/>
			<path d="M220.354,84.041c-0.339,1.49-2.271,5.674-2.217,8.538c0.054,2.863,2.65,2.414,3.551,2.371
				c0.897-0.043,2.381-1.586,4.201-1.18c1.82,0.404,1.644,1.886,1.608,2.871c-0.035,0.984-0.072,5.407-0.072,5.407
				s-5.331,1.561-7.81,2.824c-2.478,1.262-5.455,4.104-6.146,5.119c-1.26,1.042-1.93,2.465-0.697,2.571
				c1.233,0.105,3.355-3.515,9.347-4.943c5.99-1.427,9.063,1.211,9.063,1.211s1.12,1.176,2.278-0.271
				c1.162-1.447,1.801-3.523,1.004-4.796c-0.796-1.272-2.873-1.911-2.873-1.911s0.586-6.659,0.227-9.099
				c-0.36-2.44-1.297-3.214-2.489-4.14c-1.189-0.927-3.85-0.065-3.85-0.065s-2.311-0.382-4.179,1.669
				c-0.454-0.961,0.385-5.749,0.385-5.749s0.475-2.067,0.213-4.185C221.634,78.168,220.694,82.551,220.354,84.041z"/>
			<path d="M192.414,90.513c-0.279-0.723-0.4-1.537,0.701-0.77c1.1,0.767,2.799,2.078,4.486,3.145
				c1.688,1.067,3.206,3.78,3.206,3.78s0.053-0.659,0.669,0.295c2.058,1.95,2.353,8.24,2.353,8.24s2.369-0.111,3.991,1.287
				c1.621,1.396,1.29,3.05,0.021,3.929c-1.27,0.878-3.351,0.157-3.351,0.157s-2.171,0.839-3.235,0.807
				c-1.066-0.031-2.014-1.05-2.014-1.05s0.178-1.4-0.58-1.856c-0.758-0.456-0.905-1.841-0.851-2.417
				c0.057-0.575,1.924-0.908,1.493-4.818c-0.43-3.909-1.386-5.093-2.661-6.097C195.368,94.141,192.693,91.237,192.414,90.513z"/>
			<path d="M219.492,110.936c0,0-3.939,3.297-8.172,5.542c-4.234,2.246-4.756,1.615-5.758,1.172
				c-1.003-0.445-0.458-2.763-0.458-2.763s0.187-1.237-0.913-0.285c-1.103,0.953-1.507,4.493-1.207,5.707
				c0.303,1.214,2.734,2.409,5.897,1.769c3.162-0.64,9.98-5.382,9.98-5.382s1.63,5.082,8.963,4.328
				c7.333-0.754,11.186-9.369,11.136-10.431c-0.05-1.062-0.828-0.206-0.828-0.206s-0.277-0.643-1.079-0.277
				c-0.802,0.366-2.848,2.099-8.033,3.243c-5.187,1.145-5.478,0.176-6.169-0.611c-0.692-0.786-1.046-1.342-1.493-2.14
				C220.912,109.804,219.492,110.936,219.492,110.936z"/>
			<path d="M206.542,162.878c0,0,3.748-3.862,4.988-7.111c1.239-3.252,0.591-13.538,0.613-16.568s0.547-12.715,0.612-14.847
				c0.063-2.131-1.212-1.417-1.404-0.261c-0.192,1.155-3.382,9.902-2.989,14.795c0.394,4.893-0.53,9.604-0.967,12.49
				c-0.439,2.885-4.668,6.932-5.452,7.707c-0.782,0.772-1.276,2.434-1.297,5.464c-0.021,3.029,0.57,10.371,0.57,10.371
				s-0.005,1.637,1.22,1.579c1.226-0.058,0.783-2.493,0.783-2.493s-1.409-5.583-0.739-7.005
				C203.149,165.576,206.542,162.878,206.542,162.878z"/>
			<path d="M230.11,166.108c0.375-2.473-0.559-6.687-1.718-8.679c-1.158-1.993-1.851-8.018-1.06-10.348
				c0.792-2.329,3.189-12.267,3.413-14.488c0.224-2.221,1.638-8.674,1.292-9.066c-0.346-0.393-0.567-1.61-0.567-1.61
				s-0.948-1.02-1.338,1.127c-0.39,2.147-3.66,10.979-3.925,12.301c-0.266,1.323-2.697,8.806-2.88,10.125
				c-0.184,1.319-0.834,10.109-0.52,11.568c0.557,3.167,2.995,6.244,3.767,10.466c0.772,4.222-0.512,4.773-0.973,7.167
				c-0.461,2.397-0.943,2.583-1.265,2.68c-0.324,0.098-0.457,2.478,1.683,0.985C228.159,176.844,229.734,168.582,230.11,166.108z"/>
			<path d="M205.157,171.703c0.289-2.552,1.14-0.136,0.937,0.775c-0.202,0.91-2.058,8.448,0.241,8.585
				c2.299,0.137,5.421-6.56,5.421-6.56s-0.414-3.583,1.577-3.021c1.991,0.562-0.332,3.372-0.332,3.372s-1.613,5.726-1.864,7.376
				c-0.25,1.648-0.173,5.001-4.589,5.126c-4.415,0.125-3.417-4.751-3.034-7.061C203.898,177.984,204.867,174.255,205.157,171.703z"
				/>
			<path d="M211.76,181.545c-0.055,0.575,0.087,1.878-0.095,3.196c-0.185,1.319,1.377,1.409,3.396,0.824
				c2.019-0.586,2.617-5.281,2.714-6.678c0.099-1.396,0.831-4.952,0.831-4.952s1.823-1.313,0.395-2.063
				c-1.427-0.752-1.226,1.775-1.226,1.775s-1.566,3.268-2.943,5.297C213.452,180.974,212.349,180.126,211.76,181.545z"/>
			<path d="M219.676,179.29c-0.271-0.56-2.282,0.188-1.849,2.46c0.435,2.272,2.171,0.881,2.171,0.881s2.186-2.231,2.678-3.975
				c0.491-1.742,0.718-3.882,0.718-3.882c0.331,0.067,1.856-0.578,1.064-3.488c-1.758-0.817-1.733,3.192-1.733,3.192
				S221.145,179.139,219.676,179.29z"/>
			<path d="M155.595,107.556c-6.435-0.188-9.548,1.513-12.224,1.188c-2.676-0.324-8.52-4.471-8.795-6.832
				c-0.275-2.362-0.287-7.846-0.806-9.295c-0.517-1.45-0.338-2.851-0.99-2.778c-0.652,0.071-1.418-0.548-1.756-0.777
				c-0.337-0.229-3.321,2.49-3.321,2.49s-3.78-5.512-2.134-11.444c1.646-5.93,2.013-10.287,1.891-12
				c-0.121-1.714-1.034-3.718-2.173-4.441c-1.14-0.725-4.856-3.17-6.846-7.169c-1.99-4-1.56-7.05-1.399-11.479
				c0.31-1.242-0.582-1.036-0.852,0.164c-0.271,1.2-0.421,11.932,1.14,16.402c1.561,4.471,5.523,6.904,6.163,8.307
				c0.639,1.402,0.545,8.119,0.594,12.621c0.048,4.501,2.783,12.149,2.783,12.149s-8.624-0.577-14.874-0.283
				c-6.249,0.295-13.096,0.944-14.19,1.159c-1.095,0.216-1.264,1.86,0.22,2.078c1.485,0.217,9.834,1.953,13.421,15.538
				s1.362,18.521,1.156,19.349c-0.207,0.829-0.508,4.855,1.701,4.833s2.536-0.038,6.029-0.612c12.22-3.03,29.63-1.885,29.63-1.885
				s2.464,3.651,5.454,14.972c2.988,11.322,2.858,27.702,2.858,27.702s0.22,2.937,1.469,3.37c1.249,0.433,20.989,7.609,25.933,8.278
				c4.943,0.668,10.541,1.305,11.612-2.02c1.071-3.327,2.322-18.53,1.199-40.664c-1.124-22.134-6.766-30.712-6.766-30.712
				s4.55,1.014,5.61-2.557c1.06-3.569-1.277-11.484-2.29-13.892c-1.015-2.408-5.378-9.9-6.409-10.915s-2.168-4.319-2.168-4.319
				s-1.291-1.332-0.708,0.607c0.98,1.672,5.681,16.352,6.207,18.783c0.523,2.432,1.652,7.291,0.239,8.585
				c-1.413,1.294-5.247-0.162-5.559,0.18c-0.312,0.342-0.345,4.847-8.343,5.386c-7.999,0.54-11.156-0.457-13.659-3.205
				C162.134,111.668,162.032,107.744,155.595,107.556z"/>
			<path d="M98.852,107.4c0.779-0.405,3.041-1.924,3.041-1.924s2.305-0.599,2.179,1.924c-0.127,2.524-2.439,4.29-2.439,4.29
				s-0.881,0.84-4.244,2.472c-3.361,1.632-5.546,2.164-7.134,2.361c-1.587,0.198-0.052-1.103-0.052-1.103s5.097-1.283,7.87-3.686
				c0.698-0.831,0.52-0.699,0.482-1.496S98.073,107.805,98.852,107.4z"/>
			<path d="M91.472,104.555c2.043-0.957,1.54-2.529,1.122-3.554c-0.416-1.024-0.701-1.871-3.207-1.629
				c-2.506,0.24-8.026,3.019-9.313,4.368c-1.288,1.35-0.788,5.44-5.069,12.335c-4.285,6.9-8.928,16.445-10.993,20.841
				c-2.064,4.396-5.205,14.675-4.4,16.11c0.806,0.147,1.365,0.304,1.365,0.304c1.259-11.111,8.669-20.67,10.225-22.831
				c1.556-2.161,8.424-11.511,10.06-14.597c1.636-3.085,2.284-6.247,4.36-7.819C87.696,106.512,89.43,105.51,91.472,104.555z"/>
			<path d="M77.754,165.375c0,0,0.32-2.349,2.185-4.463c1.865-2.113,6.681-5.472,10.562-11.733
				c3.881-6.262,4.403-12.119,4.292-15.799c-0.112-3.679,0.352-4.252,2.396-6.498c2.043-2.246,6.897-4.807,7.933-4.978
				c1.036-0.172,1.847,0.097,1.847,0.097s3.062,2.434,2.352,4.31c-0.709,1.875-8.221,4.071-9.716,6.229
				c0.428,1.269-1.434,6.085-1.785,7.76c-0.351,1.674-1.744,8.616-5.875,13.478c-4.131,4.861-12.671,11.28-13.345,12.602
				L77.754,165.375z"/>
			<path d="M54.958,213.332c16.741-0.788,29.675-14.999,28.888-31.74c-0.788-16.742-14.999-29.676-31.74-28.888
				c-16.742,0.789-31.503,14.299-30.716,31.042C22.178,200.486,38.216,214.12,54.958,213.332z"/>
			<path fill="#FFFFFF" d="M80.551,183.05c0,0-0.895,1.884-3.229,1.871c-0.966-4.867-5.741-9.8-5.741-9.8l1.556-8.67l1.827-0.331
				c0,0-2.343-5.417-11.472-8.917c0.642,0.584-0.03,1.967-0.369,2.598c-0.339,0.629-8.077,0.625-11.555,2.384
				c-3.313-2.545-9.118-3.255-9.147-3.868c-0.028-0.612,1.285-1.411,4.479-4.017c-9.22,2.398-15.865,9.956-15.865,9.956
				s1.47-0.069,1.738,0.411c0.269,0.478-2.431,8.342-2.502,9.45c-0.07,1.108-2.487,1.96-5.699,6.777
				c-0.869,7.653,3.248,14.216,3.248,14.216l9.473,2.992c0,0,6.292,8.424,6.326,9.159c0.035,0.735-1.658,1.306-1.658,1.306
				s12.887,5.042,18.653,2.315c-1.506-0.666-3.045-2.067-3.045-2.067s5.787-7.517,6.313-9.383
				c4.807,0.387,10.021-3.666,10.517-3.565c0.496,0.099,1.446,2.019,1.726,2.742C81.917,191.214,80.551,183.05,80.551,183.05z
				 M56.933,190.056c-0.719,0.402-11.292,0.163-11.804-0.304c-0.514-0.467-3.723-11.246-3.723-11.246s8.489-7.521,9.959-7.591
				c1.47-0.069,10.633,6.744,10.633,6.744S57.651,189.653,56.933,190.056z"/>
			<path d="M34.321,217.155c0,0-0.842,2.985,0.981,3.883c1.824,0.896,3.409-1.941,3.409-1.941s3.486,1.004,4.998,0.502
				c0.063,1.349-0.765,2.001,0.982,2.595c1.747,0.592,4.016-4.671,4.016-4.671s4.58-3.165,5.497-4.558
				c-18.488-4.042-19.646-6.443-19.646-6.443s-2.769,1.173-2.756,5.35C31.813,216.044,34.321,217.155,34.321,217.155z"/>
			<path d="M183.734,204.478c-0.999-0.321-0.61-5.129,0.615-5.187c1.225-0.058,1.265,0.8,1.265,0.8s3.513,1.554,4.036,4.845
				c0.523,3.291-0.172,4.183-0.172,4.183s1.041,9.039-0.257,10.206c-1.296,1.165-0.536-0.958-0.536-0.958s0.353-5.543-0.766-8.438
				C186.802,207.034,184.73,204.798,183.734,204.478z"/>
			<path d="M199.417,214.177c0,0,1.745,0.532,2.341,0.135c0.594-0.395,0.565-1.008,0.565-1.008s0.881,0.448,0.93-1.149
				c0.048-1.599-2-3.345-2-3.345s-1.976-2.854-3.881-6.816c-1.907-3.963-3.456-8.188-3.775-9.77
				c-0.321-1.583-1.091,0.297-1.091,0.297s0.014,5.525,2.158,11.933C196.806,210.862,199.417,214.177,199.417,214.177z"/>
			<path d="M205.592,212.292c-1.633-0.784-0.342-2.072-0.342-2.072s0.286-1.732,1.536-1.3c1.248,0.433,2.951,0.107,8.043,3.921
				c5.092,3.811,6.142,13.097,6.142,13.097s3.053,10.048,5.754,17.905c2.704,7.855,7.735,15.601,7.541,16.714
				c-0.193,1.114-3.373,1.388-3.373,1.388s-5.292-10.682-6.229-14.936c-0.936-4.254-3.732-14.07-7.07-22.387
				C214.255,216.305,207.226,213.074,205.592,212.292z"/>
			<path d="M240.272,265.555c-4.175-5.208-7.887-3.192-7.887-3.192s-5.382,0.438-11.041,2.854c0,0-4.303-5.325-9.593-10.724
				c-5.288-5.402-16.019-14.229-18.929-18.638c-2.91-4.405-6.904-16.253-9.092-18.361c-2.187-2.108-9.53-4.218-11.048-5.129
				c-1.516-0.911-4.052-5.212-6.254-10.268c-2.204-5.052-2.331-15.608-2.331-15.608l-0.893-0.695c0,0-1.159,6.686,1.303,17.254
				c2.461,10.568,7.26,15.993,8.625,16.296c1.366,0.305,6.325,1.299,7.882,3.069c1.556,1.768,7.501,13.277,11.262,17.521
				c3.761,4.245,24.257,24.895,24.946,26.458c0,0-0.649,4.452,1.853,5.44c2.502,0.987,4.118,3.981,3.546,4.867
				c-0.573,0.887-0.651,1.873-0.302,4.067c0.349,2.195-2.204,18.402-2.892,19.417c-0.69,1.015-1.138,9.754-0.971,13.308
				c0.166,3.554,2.46,5.288,5.15,5.039s5.31-1.968,5.31-1.968s2.053,1.867,3.337,0.455c1.286-1.41-0.162-3.43-0.162-3.43
				s3.311-2.734,4.082-4.613c0,0,1.919,1.63,2.836,0.235s-0.085-4.418-0.085-4.418s2.417-3.428,2.461-7.729
				c0.043-4.299-0.298-8.95-0.265-10.795c0.038-1.844,0.501-5.058,0.501-5.058s1.153,1.051,1.82-0.454
				c0.666-1.505-1.088-4.861-1.088-4.861S244.448,270.762,240.272,265.555z"/>
			<path fill="#FFFFFF" d="M232.386,262.363c0,0,2.742,0.854,2.391,3.817c-0.352,2.965-2.864,7.013-2.864,7.013
				c0.175,1.097-0.439,3.705-0.439,3.705s-0.411,1.738,0.857-0.04c1.268-1.779,2.704-5.164,3.057-8.127
				c0.352-2.963,0.848-2.865,0.01-5.035C234.558,261.525,232.386,262.363,232.386,262.363z"/>
			<path fill="#FFFFFF" d="M233.538,279.011c-1.051,1.154-0.866,2.497-0.107,2.952c0.758,0.456,0.648-1.872,1.7-3.027
				c1.05-1.156,1.268-1.779,2.038-3.657c0.772-1.88,0.739-5.194,0.739-5.194C236.971,273.692,234.588,277.857,233.538,279.011z"/>
			<path fill="#FFFFFF" d="M221.365,302.181c0.7-0.771,1.534-1.301,2.514-1.347c2.313-0.477,4.616-1.076,6.764,0.173
				c0.255,0.233,0.519,0.589,0.419,1.086c-2.987-0.842-6.167-0.569-9.22-0.18C221.842,301.913,221.347,301.813,221.365,302.181z"/>
			<path fill="#FFFFFF" d="M221.762,300.198c1.921-0.951,4.166-0.198,6.087-1.146c-0.006-0.123-0.023-0.49-0.03-0.613
				c-1.382-0.673-2.98-0.72-4.434-0.283c-0.49,0.023-0.968,0.292-1.313,0.798C221.967,299.328,221.867,299.823,221.762,300.198z"/>
			<path fill="#FFFFFF" d="M222.817,293.884c0.613-0.029,1.083-0.42,1.691-0.571c1.342-0.187,2.813-0.255,4.172-0.073l0.023,0.49
				c-1.085,0.419-2.328,0.109-3.542,0.412c-0.974,0.169-1.914,1.071-2.794,0.623C221.994,294.659,222.205,293.913,222.817,293.884z"
				/>
			<path fill="#FFFFFF" d="M224.948,289.608c1.244,0.147,2.322-0.231,3.566,0.079c0.123-0.007,0.525,0.711,0.403,0.717
				c-2.068,0.466-4.045,0.191-5.988,0.649c-0.018-0.368-0.035-0.735,0.199-0.991C223.729,289.788,224.207,289.521,224.948,289.608z"
				/>
			<path fill="#FFFFFF" d="M223.374,287.471c1.547-1.055,3.532-0.656,5.375-0.621c0.245-0.01,0.624,0.216,0.741,0.088
				c0.234-0.256,0.21-0.746,0.07-1.108c-0.134-0.24-0.379-0.228-0.629-0.338c-1.604-0.17-3.203-0.219-4.774,0.346
				c-0.245,0.012-0.477,0.27-0.588,0.52C223.461,286.731,223.726,287.087,223.374,287.471z"/>
			<path fill="#FFFFFF" d="M224.175,283.627c1.939-0.583,4.028-0.558,5.989-0.65c-0.029-0.613,0.181-1.359-0.56-1.447
				c-1.715,0.081-3.449-0.207-5.012,0.48C224.106,282.157,223.773,282.909,224.175,283.627z"/>
			<path fill="#FFFFFF" d="M224.791,278.439c-0.091,0.082-0.245,0.013-0.245,0.013c-0.227,0.378-0.203,0.868-0.076,0.985
				c0.757,0.456,1.349-0.064,2.072-0.342c0.963-0.414,2.076-0.221,3.063-0.145c0.245-0.011,0.747,0.21,0.864,0.083
				c0.231-0.256,0.203-0.869,0.074-0.986C228.773,276.902,226.444,277.011,224.791,278.439z"/>
			<path d="M89.319,37.89c0.787-0.693,0.102-1.315,0.102-1.315s-1.035-1.097-1.681-0.903c-0.646,0.194-30.248,14.85-50.258,55.907
				c-20.01,41.058-10.957,73.38-10.957,73.38s0.91-1.515,2.319-2.893c0.569-1.826-5.135-39.547,15.44-75.556
				C64.86,50.502,88.532,38.581,89.319,37.89z"/>
			<path d="M229.657,42.616c-29.747-21.442-60.261-23.439-60.261-23.439s-4.219-0.597-4.794-0.469
				c-0.692-0.135-2.101-0.338-1.087-0.448c0.212-0.023,4.842,0.251,5.2,0.234c0,0,29.449,0.98,61.71,23.525
				c35.531,24.363,53.007,63.905,54.387,98.307c2.824,70.481-48.74,106.064-49.046,106.079c-0.11,0.005-2.538,2.012-3.082,1.669
				c-1.058-0.663-2.595-1.533-2.302-2.558c0.119-0.415,2.291-1.813,2.416-2.165c0.488-1.374,50.159-32.816,48.211-108.127
				C280.094,99.846,259.247,63.947,229.657,42.616z"/>
			<path d="M52.538,221.946c0,0,27.252,36.297,77.065,45.743c49.811,9.447,77.514-7.331,77.514-7.331s2.078-1.51,2.03,1.379
				c-0.049,2.888-1.565,3.266-1.565,3.266s-25.52,16.184-77.014,7.553C79.075,263.926,52.538,221.946,52.538,221.946z"/>
			<path fill="#DB2F36" d="M181.339,46.538c2.742-0.436,1.514-0.439,3.034-0.757c1.521-0.317,2.36,1.854,2.498,2.216
				c0.141,0.361-0.743,1.141-0.743,1.141s-7.073,6.289-7.779,10.865c-0.705,4.578,1.978,12.004,1.978,12.004
				s4.796,13.221,5.223,15.78c0.429,2.559,1.241,14.616,1.745,17.479c0.502,2.862,2.744,4.844,2.788,5.763
				c0.042,0.919-2.209,0.043-3.063,0.144c-0.855,0.102-0.593,0.458-1.883,0.457c-1.29,0-5.351-2.818-6.196-9.042
				c-0.846-6.223-1.001-10.821-2.206-15.554c-1.205-4.732-8.41-22.14-6.221-27.831C172.703,53.514,178.596,46.973,181.339,46.538z"
				/>
		</g>
	</g>
</g>
<path d="M194.053,290.475c-1.92-5.18,0.883-11.04,6.278-13.041c5.367-1.987,11.287,0.641,13.206,5.822
	c1.96,5.287-0.818,11.139-6.185,13.127C201.958,298.383,196.011,295.762,194.053,290.475z M195.904,289.789
	c1.601,4.322,6.361,6.373,10.762,4.743c4.348-1.611,6.621-6.271,5.019-10.59c-1.551-4.188-6.32-6.267-10.669-4.654
	C196.615,280.918,194.353,285.603,195.904,289.789z M210.359,290.507l-1.853,0.688l-4.923-3.731l-1.904,0.706l1.809,4.885
	l-1.609,0.596l-3.929-10.601l4.75-1.76c0.914-0.338,1.846-0.623,2.848-0.475c0.975,0.158,1.725,0.948,2.054,1.833
	c0.775,2.094-0.439,3.429-2.353,4.199L210.359,290.507z M202.962,286.198c1.529-0.568,3.723-1.075,3.017-2.98
	c-0.508-1.369-1.785-1.109-3.154-0.602l-2.818,1.044l1.185,3.193L202.962,286.198z"/>
</svg>
