<?xml version="1.0" encoding="UTF-8" standalone="no"?>
<svg
   version="1.1"
   width="890.33752"
   height="1000.5514"
   id="svg67"
   viewBox="0 0 890.33752 1000.5514"
   sodipodi:docname="Club Atlético Rosario Central 1983.svg"
   inkscape:version="1.1 (c68e22c387, 2021-05-23)"
   xmlns:inkscape="http://www.inkscape.org/namespaces/inkscape"
   xmlns:sodipodi="http://sodipodi.sourceforge.net/DTD/sodipodi-0.dtd"
   xmlns="http://www.w3.org/2000/svg"
   xmlns:svg="http://www.w3.org/2000/svg">
  <defs
     id="defs71" />
  <sodipodi:namedview
     id="namedview69"
     pagecolor="#ffffff"
     bordercolor="#666666"
     borderopacity="1.0"
     inkscape:pageshadow="2"
     inkscape:pageopacity="0.0"
     inkscape:pagecheckerboard="0"
     showgrid="false"
     fit-margin-top="0"
     fit-margin-left="0"
     fit-margin-right="0"
     fit-margin-bottom="0"
     inkscape:zoom="0.49781066"
     inkscape:cx="461.01865"
     inkscape:cy="615.69593"
     inkscape:window-width="1366"
     inkscape:window-height="705"
     inkscape:window-x="-8"
     inkscape:window-y="-8"
     inkscape:window-maximized="1"
     inkscape:current-layer="svg67" />
  <g
     id="Layer1000"
     transform="matrix(1.9157121,0,0,1.9157121,-97.454719,-43.173223)">
    <path
       d="m 458.9455,200.884 c 0.6328,27.4634 -2.3745,61.5235 -2.3745,81.1318 0,1.8028 -0.0185,3.5994 -0.0521,5.3914 -6.1314,5.0454 -10.681,12.1035 -13.2794,21.645 -12.5379,-10.512 -24.5348,-14.1838 -36.6293,-12.2932 -3.4989,30.0044 10.3031,57.0137 33.2882,67.2517 -0.451,0.0429 -0.9215,0.03 -1.4141,-0.0544 -11.6716,-1.9983 -22.8844,3.4247 -29.8796,12.7123 -5.0216,6.6674 -7.6062,14.8272 -10.9853,22.3595 C 362.0166,478.389 269.4181,510 206.7857,440.0614 175.4973,398.1713 164.3088,327.5001 164.7058,276.2742 c 0.4384,-56.5673 14.8311,-132.7304 63.05,-168.5774 16.1902,-12.0361 34.6163,-18.145 54.6814,-19.3376 25.4602,-1.513 50.2771,7.7373 70.673,22.5816 17.2809,12.5771 34.2648,31.4565 42.2425,51.4727 4.7267,11.8596 9.0742,25.2803 19.5268,33.4438 5.95,4.6472 12.937,6.7086 20.4517,6.5334 1.6306,-0.0382 3.2565,-0.2271 4.8517,-0.5658 2.5482,-0.541 4.9688,-1.363 7.2554,-2.6492 3.6623,0.9812 7.5065,1.5656 11.5072,1.7083 z"
       style="fill:#ffe225;fill-rule:evenodd;stroke:#00ff00;stroke-width:0.2005;stroke-linecap:butt;stroke-linejoin:miter;stroke-dasharray:none"
       id="path2" />
    <path
       d="m 406.6102,296.759 c 12.0945,-1.8906 24.0914,1.7812 36.6293,12.2932 3.0815,-11.3159 8.9074,-19.1392 16.8617,-24.254 7.3252,7.5194 12.1682,17.1212 13.622,28.9052 13.1257,-13.3728 26.9088,-18.855 41.3639,-16.2799 3.0713,39.2419 -20.0196,71.6402 -55.4582,70.934 0.2318,0.3465 0.446,0.6297 0.6383,0.8302 7.2655,7.5767 12.1682,17.1212 13.622,28.9052 13.1258,-13.3728 26.9088,-18.855 41.3639,-16.28 2.9345,37.4934 -18.0145,68.7371 -50.7967,70.8312 3.0731,4.6662 12.3197,19.6191 10.943,23.1935 -1.3328,3.4603 -6.424,3.596 -10.7988,3.6558 0.01,1.3112 -3e-4,2.624 -0.0495,3.9396 -0.4621,12.3406 -3.7113,24.9622 -15.4763,31.239 -8.3522,4.4562 -17.7207,3.6497 -25.8805,-0.7765 -0.9436,-0.4923 -1.8762,-1.0165 -2.8111,-1.5362 -80.3164,41.3378 -171.8313,45.3572 -250.9615,-1.2349 C 151.659,500.6655 135.5541,487.6448 121.4539,472.6174 73.5227,421.5333 50.6289,349.8738 50.9754,280.5967 51.6061,154.5987 126.027,45.445 255.0651,25.6077 c 56.7049,-8.7174 114.0317,2.0901 164.9716,27.9311 9.2279,-5.2186 20.2191,-7.6386 30.1472,-2.0067 12.7789,7.2491 14.4024,20.2343 14.4024,35.587 0,11.8942 0.3724,22.9773 0,35.2128 4.1579,5.1898 6.5734,10.9236 7.9365,16.7481 0.5594,2.1377 0.9959,4.3588 1.3012,6.6644 13.6828,-13.2952 27.365,-18.1106 41.0478,-16.4591 0.0256,0.2128 0.0437,0.4228 0.0677,0.6349 0.1047,0.0179 0.2089,0.0345 0.3136,0.0532 0.289,3.6904 0.3458,7.3204 0.1834,10.868 -0.3149,13.762 -4.2622,25.8499 -10.633,35.4902 -9.7231,15.3158 -25.5034,24.9736 -45.0346,24.5755 -4.2971,-0.0876 -8.4178,-0.6831 -12.3306,-1.7314 -2.2866,1.2862 -4.7072,2.1082 -7.2554,2.6492 -1.5952,0.3387 -3.2211,0.5276 -4.8517,0.5658 -7.5147,0.1752 -14.5017,-1.8862 -20.4517,-6.5334 -10.4526,-8.1635 -14.8001,-21.5842 -19.5268,-33.4438 -7.9777,-20.0162 -24.9616,-38.8956 -42.2425,-51.4727 -20.3959,-14.8443 -45.2128,-24.0946 -70.673,-22.5816 -20.0651,1.1926 -38.4912,7.3015 -54.6814,19.3376 -48.2189,35.847 -62.6116,112.0101 -63.05,168.5774 -0.397,51.2259 10.7915,121.8971 42.0799,163.7872 62.6324,69.9386 155.2309,38.3276 190.8337,-41.0333 3.3791,-7.5323 5.9637,-15.6921 10.9853,-22.3595 6.9952,-9.2876 18.208,-14.7106 29.8796,-12.7123 0.4926,0.0844 0.9631,0.0973 1.4141,0.0544 -22.9851,-10.238 -36.7871,-37.2473 -33.2882,-67.2517 z"
       style="fill:#003e7c;fill-rule:evenodd;stroke:#003e7c;stroke-width:0.2005;stroke-linecap:butt;stroke-linejoin:miter;stroke-dasharray:none"
       id="path4" />
    <path
       d="m 420.4261,62.6156 c 7.4957,-5.2156 16.6452,-8.665 25.3645,-3.7189 12.4602,7.0684 11.6853,25.296 11.6853,37.6863 v 58.5559 l -0.001,0.081 c -0.1694,13.7257 -2.265,35.3436 -18.9318,38.8831 -1.1167,0.2373 -2.2543,0.3691 -3.3958,0.3957 -20.398,0.4758 -26.3109,-19.5762 -32.4614,-35.0078 -8.5393,-21.4256 -26.4562,-41.4876 -44.9302,-54.9328 -21.9421,-15.9697 -48.4085,-25.706 -75.7868,-24.079 -21.6152,1.2846 -41.493,7.9249 -58.9226,20.8825 -50.5289,37.5642 -65.7758,115.6973 -66.2342,174.8513 -0.4105,52.9537 11.2357,125.4197 43.86,168.8539 66.4155,74.5011 166.0684,42.0783 204.1499,-42.8074 2.9453,-6.565 5.815,-15.168 10.0884,-20.8414 5.2356,-6.9516 13.4375,-11.188 22.2418,-9.6808 13.2368,2.2664 19.587,15.0829 19.4102,27.4577 v 71.4532 c 0,4.188 0.2581,8.2685 0.1002,12.4897 -0.3465,9.2529 -2.2995,19.7657 -11.3037,24.5695 -6.0232,3.2137 -12.6532,2.3843 -18.4548,-0.7802 -1.8288,-0.951 -4.3844,-2.4648 -6.5297,-3.4831 -1.0455,0.5194 -2.1414,1.1407 -2.9937,1.5817 C 339.293,545.4339 250.4089,549.649 173.4272,504.3218 156.2994,494.2369 140.8063,481.7056 127.2108,467.216 80.6711,417.6146 58.5329,347.8708 58.8695,280.6362 59.4786,158.8954 130.7863,52.7001 256.2644,33.4102 312.1287,24.822 368.321,35.7103 418.3502,61.5436 Z m -7.9783,10.8141 -0.1342,-0.1958 C 358.795,45.5986 305.5271,39.1481 258.2635,46.4141 34.1029,80.8746 17.6419,397.3269 180.1027,492.9843 c 63.1583,37.188 146.1274,44.3953 231.2313,0.3563 10.2289,-5.2932 8.6929,-4.7156 21.7624,1.9767 12.6207,7.0323 10.3091,-17.1307 10.3091,-24.6692 v -71.5582 c 0.2571,-14.2325 -11.0449,-18.9721 -17.9859,-9.7566 -2.7116,3.6003 -4.8311,9.9253 -8.5934,18.3114 -42.1018,93.8468 -153.5847,127.915 -226.3402,45.7661 -74.1621,-97.9372 -71.5537,-376.4227 90.7024,-386.0653 63.171,-3.7542 117.0809,45.529 133.7192,87.2742 6.9171,17.3551 9.9766,26.958 19.9331,26.7259 5.438,-0.1268 9.2568,-8.3411 9.4784,-26.288 V 96.583 c 0,-17.9343 0,-35.8691 -18.0932,-21.9084 l -0.5884,0.5021 c -2.0006,1.7069 -4.3767,2.4092 -6.9839,2.064 -2.6071,-0.3455 -4.7185,-1.642 -6.2058,-3.811 z"
       style="fill:#ffe225;fill-rule:evenodd"
       id="path6" />
    <path
       d="m 511.2664,132.9636 c -11.1278,20.547 -25.5847,36.9319 -42.0286,50.8331 3.9368,-11.1154 5.9195,-22.0529 4.9835,-32.7256 10.9596,-12.0535 23.9256,-17.9035 37.0451,-18.1075 z"
       style="fill:#f6af95;fill-rule:evenodd;stroke:#f6af95;stroke-width:0.2005;stroke-linecap:butt;stroke-linejoin:miter;stroke-dasharray:none"
       id="path8" />
    <path
       d="m 504.2062,188.7805 c 5.4587,0 9.8841,4.4254 9.8841,9.8842 0,5.4587 -4.4254,9.8841 -9.8841,9.8841 -5.4588,0 -9.8842,-4.4254 -9.8842,-9.8841 0,-5.4588 4.4254,-9.8842 9.8842,-9.8842 z"
       style="fill:#003e7c;fill-rule:evenodd"
       id="path10" />
    <path
       d="m 406.7762,213.034 c 12.0945,-1.8906 24.0914,1.7812 36.6293,12.2932 3.0816,-11.3159 8.9074,-19.1392 16.8617,-24.254 7.3252,7.5193 12.1682,17.1211 13.622,28.9052 13.1258,-13.3729 26.9088,-18.855 41.3639,-16.28 3.0721,39.2517 -20.0307,71.6566 -55.4842,70.9338 -34.32,-0.6997 -57.4039,-33.7714 -52.9927,-71.5982 z"
       style="fill:#003e7c;fill-rule:evenodd;stroke:#003e7c;stroke-width:0.2005;stroke-linecap:butt;stroke-linejoin:miter;stroke-dasharray:none"
       id="path12" />
    <path
       d="m 504.0399,272.6716 c 5.4587,0 9.8841,4.4254 9.8841,9.8842 0,5.4587 -4.4254,9.8841 -9.8841,9.8841 -5.4588,0 -9.8842,-4.4254 -9.8842,-9.8841 0,-5.4588 4.4254,-9.8842 9.8842,-9.8842 z"
       style="fill:#003e7c;fill-rule:evenodd"
       id="path14" />
    <path
       d="m 417.1585,272.6716 c 5.4587,0 9.8842,4.4254 9.8842,9.8842 0,5.4587 -4.4255,9.8841 -9.8842,9.8841 -5.4588,0 -9.8842,-4.4254 -9.8842,-9.8841 0,-5.4588 4.4254,-9.8842 9.8842,-9.8842 z"
       style="fill:#003e7c;fill-rule:evenodd"
       id="path16" />
    <g
       id="Layer1001">
      <path
         d="m 410.1817,216.6058 c 8.3756,-1.3141 18.7848,2.033 32.4762,13.1234 -1.1078,9.7181 -0.7512,19.4362 -0.0831,29.1544 -13.2426,-13.0926 -24.0235,-27.1917 -32.3931,-42.2778 z"
         style="fill:#ffe225;fill-rule:evenodd"
         id="path18" />
      <path
         d="m 468.9886,267.5215 c 3.9794,-10.8183 6.21,-21.7958 5.3156,-33.058 11.4517,-12.185 23.8488,-18.3808 37.294,-17.9409 -11.1959,20.3678 -25.876,36.8338 -42.6096,50.9989 z"
         style="fill:#ffe225;fill-rule:evenodd"
         id="path20" />
      <path
         d="m 460.308,206.6803 c 0.9934,23.437 0.7931,46.3753 -0.8717,69.8123 -12.4929,-21.1414 -19.355,-52.4543 0.8717,-69.8123 z"
         style="fill:#ffe225;fill-rule:evenodd"
         id="path22" />
      <path
         d="m 410.0157,300.3308 c 8.3756,-1.3141 18.7847,2.033 32.4762,13.1234 -1.1078,9.7181 -0.7513,19.4363 -0.0832,29.1544 -13.2425,-13.0926 -24.0235,-27.1917 -32.393,-42.2778 z"
         style="fill:#ffe225;fill-rule:evenodd"
         id="path24" />
      <path
         d="m 468.8226,351.2466 c 3.9794,-10.8183 6.21,-21.7958 5.3156,-33.058 11.4516,-12.1851 23.8488,-18.3809 37.2939,-17.9409 -11.1959,20.3678 -25.8759,36.8337 -42.6095,50.9989 z"
         style="fill:#ffe225;fill-rule:evenodd"
         id="path26" />
      <path
         d="m 460.142,290.4054 c 0.9933,23.4369 0.7931,46.3753 -0.8718,69.8122 -12.4929,-21.1413 -19.3549,-52.4542 0.8718,-69.8122 z"
         style="fill:#ffe225;fill-rule:evenodd"
         id="path28" />
      <path
         d="m 468.9886,183.7965 c 3.9794,-10.8183 6.21,-21.7958 5.3156,-33.058 11.4517,-12.1851 23.8488,-18.3809 37.294,-17.9409 -11.1959,20.3678 -25.876,36.8337 -42.6096,50.9989 z"
         style="fill:#ffe225;fill-rule:evenodd"
         id="path30" />
      <path
         d="m 468.9886,435.636 c 3.9794,-10.8183 6.21,-21.7958 5.3156,-33.058 11.4517,-12.185 23.8488,-18.3808 37.294,-17.9408 -11.1959,20.3677 -25.876,36.8337 -42.6096,50.9988 z"
         style="fill:#ffe225;fill-rule:evenodd"
         id="path32" />
    </g>
    <path
       d="m 504.2059,356.5627 c 5.4588,0 9.8842,4.4254 9.8842,9.8842 0,5.4587 -4.4254,9.8841 -9.8842,9.8841 -5.4587,0 -9.8842,-4.4254 -9.8842,-9.8841 0,-5.4588 4.4255,-9.8842 9.8842,-9.8842 z"
       style="fill:#003e7c;fill-rule:evenodd"
       id="path35" />
    <g
       id="Layer1002">
      <path
         d="m 220.0898,160.8305 4.9667,15.3866 16.1684,-0.0311 -13.0986,9.4785 5.0259,15.3673 -13.0624,-9.5286 -13.062,9.5286 5.0259,-15.3673 -13.0987,-9.4785 16.1684,0.0311 z"
         style="fill:#003e7c;fill-rule:evenodd;stroke:#003e7c;stroke-width:0.2005;stroke-linecap:butt;stroke-linejoin:miter;stroke-dasharray:none"
         id="path37" />
      <path
         d="m 362.2894,160.8305 4.9667,15.3866 16.1684,-0.0311 -13.0986,9.4785 5.0259,15.3673 -13.0624,-9.5286 -13.062,9.5286 5.0259,-15.3673 -13.0987,-9.4785 16.1684,0.0311 z"
         style="fill:#003e7c;fill-rule:evenodd;stroke:#003e7c;stroke-width:0.2005;stroke-linecap:butt;stroke-linejoin:miter;stroke-dasharray:none"
         id="path39" />
      <path
         d="m 291.1896,127.6062 4.9667,15.3866 16.1684,-0.0311 -13.0986,9.4785 5.0259,15.3673 -13.0624,-9.5286 -13.062,9.5286 5.0259,-15.3673 -13.0987,-9.4785 16.1684,0.0311 z"
         style="fill:#003e7c;fill-rule:evenodd;stroke:#003e7c;stroke-width:0.2005;stroke-linecap:butt;stroke-linejoin:miter;stroke-dasharray:none"
         id="path41" />
    </g>
    <path
       d="m 185.8772,222.4616 c 39.8069,-5.174 74.6974,-16.2552 105.3124,-33.7227 30.6151,17.4675 65.5056,28.5487 105.3125,33.7227 -6.2132,7.9186 -10.4652,17.2212 -10.4652,29.7359 v 79.0731 c 0.145,45.2123 -11.4588,69.4065 -47.5089,93.97 -19.0342,12.9694 -38.4465,18.0382 -47.3384,36.6014 -8.8918,-18.5632 -28.3042,-23.632 -47.3383,-36.6014 -36.0502,-24.5635 -47.6539,-48.7577 -47.5089,-93.97 v -79.0731 c 0,-12.5147 -4.252,-21.8173 -10.4652,-29.7359 z"
       style="fill:#003e7c;fill-rule:evenodd;stroke:#003e7c;stroke-width:0.2005;stroke-linecap:butt;stroke-linejoin:miter;stroke-dasharray:none"
       id="path44" />
    <g
       id="Layer1003">
      <path
         d="m 221.4195,262.3304 h -19.8144 v 68.9402 c 0,29.6549 4.8164,49.88 19.8144,67.6062 z"
         style="fill:#ffe225;fill-rule:evenodd"
         id="path46" />
      <path
         d="M 261.2882,262.3304 H 241.3538 V 417.025 c 1.7502,1.288 3.5666,2.5758 5.4609,3.8665 4.6793,3.1881 9.5573,5.9692 14.4735,8.7145 z"
         style="fill:#ffe225;fill-rule:evenodd"
         id="path48" />
      <path
         d="m 301.157,262.3304 h -19.9344 v 179.5485 c 1.7109,1.3207 3.3597,2.7227 4.9238,4.2299 1.8448,1.7778 3.5273,3.6623 5.0432,5.6669 1.516,-2.0046 3.1985,-3.8891 5.0433,-5.6669 1.5641,-1.5072 3.2132,-2.9092 4.9241,-4.2301 z"
         style="fill:#ffe225;fill-rule:evenodd"
         id="path50" />
      <path
         d="m 341.0257,262.3304 h -19.9344 v 167.2753 c 4.9159,-2.7453 9.7942,-5.5261 14.4733,-8.7142 1.8943,-1.2907 3.711,-2.5788 5.4611,-3.8668 z"
         style="fill:#ffe225;fill-rule:evenodd"
         id="path52" />
      <path
         d="m 380.7742,262.3304 h -19.8141 v 136.5461 c 14.9977,-17.7261 19.8141,-37.9513 19.8141,-67.6059 z"
         style="fill:#ffe225;fill-rule:evenodd"
         id="path54" />
    </g>
    <g
       id="Layer1004">
      <path
         d="m 234.7228,246.3007 2.3232,7.8785 c -2.611,1.4862 -5.6661,2.3403 -8.9313,2.3403 -9.6116,0 -17.403,-7.4017 -17.403,-16.5323 0,-9.1305 7.7914,-16.5322 17.403,-16.5322 3.131,0 6.069,0.7854 8.6072,2.1603 l -1.7265,8.3096 c -1.6572,-1.5902 -3.9612,-2.5759 -6.5086,-2.5759 -5.0462,0 -9.1369,3.8673 -9.1369,8.6382 0,4.771 4.0907,8.6383 9.1369,8.6383 2.4106,0 4.6033,-0.8826 6.236,-2.3248 z"
         style="fill:#ffe225;fill-rule:evenodd"
         id="path57" />
      <path
         d="m 362.802,246.6327 2.3233,7.8786 c -2.6111,1.4862 -5.6661,2.3403 -8.9314,2.3403 -9.6116,0 -17.403,-7.4017 -17.403,-16.5323 0,-9.1305 7.7914,-16.5323 17.403,-16.5323 3.1311,0 6.069,0.7855 8.6072,2.1604 l -1.7265,8.3095 c -1.6572,-1.5901 -3.9612,-2.5758 -6.5086,-2.5758 -5.0462,0 -9.1369,3.8673 -9.1369,8.6382 0,4.7709 4.0907,8.6382 9.1369,8.6382 2.4106,0 4.6033,-0.8825 6.236,-2.3248 z"
         style="fill:#ffe225;fill-rule:evenodd"
         id="path59" />
      <path
         d="m 246.2087,255.7688 18.6639,-42.4314 6.3411,-3.005 19.441,45.4367 h -10.0118 l -3.5144,-8.6388 h -17.4207 l -3.5465,8.6388 z m 16.2952,-15.4492 6.3574,-15.4848 5.4963,15.4848 z"
         style="fill:#ffe225;fill-rule:evenodd"
         id="path61" />
      <path
         d="m 300.0849,210.0856 c 14.6791,3.1279 26.8528,8.7819 27.0778,16.9443 0.1373,4.9812 -2.648,8.9101 -5.8885,12.0874 l 7.1247,16.6518 h -8.6725 L 313.7791,241.15 h -6.0524 v 14.6191 h -7.6418 z m 7.6418,10.1333 c 5.0327,0.9231 7.9361,2.1225 9.9304,4.4281 3.9684,4.5883 2.0349,10.9285 -9.9304,9.8586 z"
         style="fill:#ffe225;fill-rule:evenodd"
         id="path63" />
    </g>
  </g>
</svg>
