<?xml version="1.0" encoding="UTF-8" standalone="no"?>
<svg
   version="1.1"
   width="850.46613"
   height="1000.1525"
   id="svg54"
   viewBox="0 0 850.46613 1000.1526"
   sodipodi:docname="Club Atlético Rosario Central 1989.svg"
   inkscape:version="1.1 (c68e22c387, 2021-05-23)"
   xmlns:inkscape="http://www.inkscape.org/namespaces/inkscape"
   xmlns:sodipodi="http://sodipodi.sourceforge.net/DTD/sodipodi-0.dtd"
   xmlns="http://www.w3.org/2000/svg"
   xmlns:svg="http://www.w3.org/2000/svg">
  <defs
     id="defs58" />
  <sodipodi:namedview
     id="namedview56"
     pagecolor="#ffffff"
     bordercolor="#666666"
     borderopacity="1.0"
     inkscape:pageshadow="2"
     inkscape:pageopacity="0.0"
     inkscape:pagecheckerboard="0"
     showgrid="false"
     fit-margin-top="0"
     fit-margin-left="0"
     fit-margin-right="0"
     fit-margin-bottom="0"
     inkscape:zoom="2.06125"
     inkscape:cx="646.4524"
     inkscape:cy="889.02366"
     inkscape:window-width="1366"
     inkscape:window-height="705"
     inkscape:window-x="-8"
     inkscape:window-y="-8"
     inkscape:window-maximized="1"
     inkscape:current-layer="svg54" />
  <g
     id="Layer1000"
     transform="matrix(1.9822735,0,0,1.9822735,-136.24446,-62.255375)">
    <path
       d="m 311.4583,75.2703 c 88.452,0 160.1566,89.0124 160.1566,198.8149 0,109.8026 -71.7046,198.815 -160.1566,198.815 -88.4518,0 -160.1563,-89.0124 -160.1563,-198.815 0,-109.8025 71.7045,-198.8149 160.1563,-198.8149 z"
       style="fill:#ffe129;fill-rule:evenodd;stroke:#1b1918;stroke-width:0.2083;stroke-linecap:butt;stroke-linejoin:miter;stroke-dasharray:none"
       id="path2" />
    <path
       d="m 416.212,178.5313 c -19.5028,-39.8271 -51.2893,-82.3419 -99.6463,-84.5688 -4.287,-0.1974 -8.5836,-0.0683 -12.8534,0.36 -24.439,2.4519 -46.7909,11.4081 -66.1212,26.5558 -42.233,33.094 -63.3008,89.9668 -65.1496,142.4359 -1.1873,33.6907 2.9351,64.1267 16.64,95.0186 20.2614,45.671 57.7802,85.0123 109.2498,91.995 8.2,1.1123 16.5146,1.0232 24.6865,-0.28 20.3896,-3.252 38.5094,-13.7166 53.4857,-27.6541 17.7292,-16.4996 31.1632,-37.8269 40.6959,-59.9685 6.7429,-17.8008 34.4829,-16.6275 34.4829,4.9846 l -3e-4,113.5065 c 0.1324,10.2683 -1.2126,24.4409 -12.046,29.1981 -2.9382,1.2903 -6.038,1.9453 -9.2479,1.9213 -12.6029,-0.0943 -24.4038,-10.7585 -32.9474,-19.0299 -3.5232,-3.4108 -6.9472,-6.9327 -10.4696,-10.3457 -67.1895,40.499 -136.0709,39.6048 -203.807,-0.5806 -36.9558,-21.9252 -65.4405,-52.4926 -85.578,-90.3607 -18.7172,-35.1973 -27.406,-72.1589 -28.6069,-111.857 -1.2083,-39.9449 5.1208,-78.9849 22.237,-115.3 6.0858,-12.9118 13.3963,-25.1878 21.7713,-36.7445 29.5833,-40.8227 67.4741,-70.6723 115.5239,-86.3449 27.1624,-8.8594 55.3991,-12.2552 83.7911,-8.3726 26.9753,3.6889 52.0248,13.6672 74.8152,28.3335 l 25.0932,-22.7261 c 2.6244,-2.3767 5.778,-4.2405 9.0989,-5.46 4.469,-1.6416 9.4266,-2.179 14.0816,-1.0301 12.5386,3.0949 16.2909,15.8069 16.2909,27.3056 v 120.8077 c 0,7.121 -7.6959,12.4821 -14.0955,13.4594 -10.5969,1.6183 -17.7847,-6.1667 -21.3748,-15.2585 z"
       style="fill:#ffe129;fill-rule:evenodd;stroke:#ffe129;stroke-width:0.2083;stroke-linecap:butt;stroke-linejoin:miter;stroke-dasharray:none"
       id="path4" />
    <path
       d="m 447.5818,59.5227 v 120.8077 c 0,7.8236 -19.0996,18.409 -27.6135,-3.4516 -32.7241,-66.9208 -74.465,-90.87 -116.6652,-86.6363 -84.8999,8.5174 -132.4923,91.5261 -134.9597,172.9273 -1.7586,38.5286 4.328,68.2844 16.9899,96.826 21.6433,48.7851 60.9696,87.4118 112.4469,94.3953 50.2482,6.8171 97.1602,-29.8252 123.2237,-90.4331 5.0625,-13.5764 26.5779,-13.6912 26.5779,3.4518 V 480.969 c 0.2034,15.7667 -3.7594,22.8287 -9.5945,25.391 -17.5996,7.7284 -35.4616,-14.7481 -50.4645,-28.8428 -66.4829,41.204 -134.6598,41.1444 -202.2663,1.0355 C 147.0183,455.8671 119.9013,424.9486 101.2066,389.7934 81.5562,352.8414 74.1735,315.9563 73.0778,279.7377 71.3214,221.6708 85.7682,172.3654 116.3078,130.2235 146.4393,88.6441 184.0597,60.2846 229.7828,45.3709 285.2287,27.2861 338.9446,34.304 387.5231,66.5984 l 27.4404,-24.8518 c 10.4381,-9.4535 32.6183,-10.6992 32.6183,17.7761 z"
       style="fill:#003e7c;fill-rule:evenodd"
       id="path6" />
    <path
       d="m 462.7697,473.0301 c 15.4115,-6.1145 26.2993,-16.2729 30.4442,-30.5582 4.8219,-16.619 3.5322,-45.1414 0.6205,-81.9655 -3.1265,15.0316 -7.3433,29.9543 -11.3902,43.1455 -0.4153,-27.4327 -4.8781,-50.3447 -14.4972,-67.6523 30.1523,-15.0644 33.4879,-56.9453 25.8874,-109.7624 -3.3037,14.5947 -6.8198,29.5894 -11.0452,41.4197 -0.0512,-26.9868 -5.2419,-48.8341 -14.4972,-66.6168 29.5063,-16.4905 34.3526,-56.7957 25.1974,-110.1074 -2.5388,15.5138 -5.9759,28.7824 -10.355,39.694 -4.106,-57.8909 -16.2524,-74.9128 -31.41,-76.6266 l -0.3496,-0.0292 c 0.2116,1.8523 0.3075,3.7175 0.3075,5.5518 v 57.8064 l 3.2348,50.2302 c 0,6.1916 -2.1468,19.9263 -7.3353,24.1613 -14.65,9.3575 -22.1677,39.5392 -23.1255,75.7636 -4.4081,-12.6511 -7.7884,-27.1001 -10.355,-42.9728 -7.0943,37.8277 -4.8786,85.3498 31.41,103.5495 -4.7485,5.1538 -8.4825,11.0688 -11.3903,17.6034 12.1748,1.076 20.7961,10.27 20.7961,24.9226 v 77.2453 c 0,10.0217 -1.898,10.7907 -3.1932,11.6814 l -0.0419,0.4529 v 20.9498 c 0.087,6.7394 -0.4628,15.1608 -3.9135,21.4981 l -0.1867,2.0257 v 25.9426 c 0,3.007 2.4603,5.4674 5.4671,5.4674 h 4.2536 c 3.0068,0 5.4672,-2.4604 5.4672,-5.4674 z"
       style="fill:#003e7c;fill-rule:evenodd;stroke:#003e7c;stroke-width:0.2083;stroke-linecap:butt;stroke-linejoin:miter;stroke-dasharray:none"
       id="path8" />
    <path
       d="m 450.5161,221.0598 c 0,-1.8121 0.4188,-4.6598 1.3805,-6.5584 1.5618,2.1085 3.0205,5.0544 3.0205,9.2336 v 88.103 c -0.018,3.8706 -1.6213,6.024 -4.401,6.9031 z"
       style="fill:#ffe129;fill-rule:evenodd;stroke:#ffe129;stroke-width:0.2083;stroke-linecap:butt;stroke-linejoin:miter;stroke-dasharray:none"
       id="path10" />
    <path
       d="m 450.5161,364.3033 c 0,-1.8122 0.4188,-4.6599 1.3805,-6.5585 1.5618,2.1085 3.0205,5.0544 3.0205,9.2337 v 88.1029 c -0.018,3.8706 -1.6213,6.024 -4.401,6.9031 z"
       style="fill:#ffe129;fill-rule:evenodd;stroke:#ffe129;stroke-width:0.2083;stroke-linecap:butt;stroke-linejoin:miter;stroke-dasharray:none"
       id="path12" />
    <path
       d="m 450.6889,89.4661 c 0,-1.8122 0.4188,-4.6599 1.3805,-6.5584 1.5618,2.1085 3.0205,5.0543 3.0205,9.2336 v 88.103 c -0.0181,3.8706 -1.6214,6.0239 -4.401,6.9031 z"
       style="fill:#ffe129;fill-rule:evenodd;stroke:#ffe129;stroke-width:0.2083;stroke-linecap:butt;stroke-linejoin:miter;stroke-dasharray:none"
       id="path14" />
    <path
       d="m 485.8525,70.2659 c 2.1922,0 3.9694,2.8201 3.9694,6.2993 0,3.4792 -1.7772,6.2993 -3.9694,6.2993 -2.1924,0 -3.9696,-2.8201 -3.9696,-6.2993 0,-3.4792 1.7772,-6.2993 3.9696,-6.2993 z"
       style="fill:#003e7c;fill-rule:evenodd;stroke:#003e7c;stroke-width:0.2083;stroke-linecap:butt;stroke-linejoin:miter;stroke-dasharray:none"
       id="path16" />
    <path
       d="m 485.8525,206.0447 c 2.1922,0 3.9694,2.8201 3.9694,6.2993 0,3.4792 -1.7772,6.2992 -3.9694,6.2992 -2.1924,0 -3.9696,-2.82 -3.9696,-6.2992 0,-3.4792 1.7772,-6.2993 3.9696,-6.2993 z"
       style="fill:#003e7c;fill-rule:evenodd;stroke:#003e7c;stroke-width:0.2083;stroke-linecap:butt;stroke-linejoin:miter;stroke-dasharray:none"
       id="path18" />
    <path
       d="m 485.8525,341.3494 c 2.1922,0 3.9694,2.8201 3.9694,6.2993 0,3.4792 -1.7772,6.2993 -3.9694,6.2993 -2.1924,0 -3.9696,-2.8201 -3.9696,-6.2993 0,-3.4792 1.7772,-6.2993 3.9696,-6.2993 z"
       style="fill:#003e7c;fill-rule:evenodd;stroke:#003e7c;stroke-width:0.2083;stroke-linecap:butt;stroke-linejoin:miter;stroke-dasharray:none"
       id="path20" />
    <path
       d="m 217.1848,224.5117 c 0,-10.5024 -8.1286,-19.873 -13.9793,-26.0607 -12.6379,-13.0061 -5.3764,-19.7893 2.9097,-19.7882 3.7294,6e-4 8.5027,-1.0292 11.0696,-1.6112 30.1856,-6.8455 58.6675,-20.0594 85.6008,-39.0037 26.9333,18.9443 55.4152,32.1582 85.6008,39.0037 2.5669,0.582 7.3403,1.6118 11.0696,1.6112 8.2861,-0.001 15.5477,6.7821 2.9097,19.7882 -5.8506,6.1877 -13.9793,15.5583 -13.9793,26.0607 v 133.7512 c 0,14.727 -10.1842,29.6686 -23.1258,34.8615 -24.4355,9.805 -45.6523,19.169 -62.475,31.755 -16.8227,-12.586 -38.0395,-21.95 -62.475,-31.755 -12.9416,-5.1929 -23.1258,-20.1345 -23.1258,-34.8615 z"
       style="fill:#003e7c;fill-rule:evenodd;stroke:#003e7c;stroke-width:0.2083;stroke-linecap:butt;stroke-linejoin:miter;stroke-dasharray:none"
       id="path22" />
    <g
       id="Layer1001">
      <path
         d="m 241.5233,218.9024 v 167.294 c -10.0776,-4.7897 -17.5042,-16.9266 -17.5042,-27.9335 l 0.004,-139.3605 z"
         style="fill:#ffe129;fill-rule:evenodd"
         id="path24" />
      <path
         d="m 276.5317,218.9024 v 182.451 c -5.7665,-2.8127 -11.638,-5.4346 -17.5042,-7.9294 V 218.9024 Z"
         style="fill:#ffe129;fill-rule:evenodd"
         id="path26" />
      <path
         d="m 311.54,218.9024 v 191.8987 c -2.9909,1.8045 -5.9152,3.687 -8.7544,5.6571 -2.8376,-1.969 -5.7605,-3.8504 -8.7498,-5.6541 V 218.9024 Z"
         style="fill:#ffe129;fill-rule:evenodd"
         id="path28" />
      <path
         d="m 346.5484,218.9024 v 174.5197 c -5.8663,2.4945 -11.7377,5.1167 -17.5042,7.9291 V 218.9024 Z"
         style="fill:#ffe129;fill-rule:evenodd"
         id="path30" />
      <path
         d="m 381.5568,218.9024 v 102.3428 l -0.005,37.0177 c 0,11.0053 -7.4242,23.1402 -17.4995,27.9313 V 218.9024 Z"
         style="fill:#ffe129;fill-rule:evenodd"
         id="path32" />
    </g>
    <g
       id="Layer1002">
      <path
         d="m 277.4969,111.7931 4.0514,8.0305 8.8892,1.3715 -6.3857,6.3343 1.4428,8.8783 -7.9977,-4.1156 -7.998,4.1156 1.4429,-8.8783 -6.3857,-6.3343 8.8895,-1.3715 z"
         style="fill:#003e7c;fill-rule:evenodd;stroke:#003e7c;stroke-width:0.2083;stroke-linecap:butt;stroke-linejoin:miter;stroke-dasharray:none"
         id="path35" />
      <path
         d="m 329.0445,111.7931 4.0513,8.0305 8.8892,1.3715 -6.3856,6.3343 1.4428,8.8783 -7.9977,-4.1156 -7.998,4.1156 1.4428,-8.8783 -6.3856,-6.3343 8.8894,-1.3715 z"
         style="fill:#003e7c;fill-rule:evenodd;stroke:#003e7c;stroke-width:0.2083;stroke-linecap:butt;stroke-linejoin:miter;stroke-dasharray:none"
         id="path37" />
      <path
         d="m 230.2856,138.1586 7.6035,4.8053 8.3296,-3.3933 -2.2209,8.7158 5.8018,6.8737 -8.9759,0.5814 -4.7443,7.6415 -3.3267,-8.3569 -8.7336,-2.1506 6.9201,-5.7463 z"
         style="fill:#003e7c;fill-rule:evenodd;stroke:#003e7c;stroke-width:0.2083;stroke-linecap:butt;stroke-linejoin:miter;stroke-dasharray:none"
         id="path39" />
      <path
         d="m 375.2903,138.1586 -7.6035,4.8053 -8.3296,-3.3933 2.2208,8.7158 -5.8017,6.8737 8.9758,0.5814 4.7444,7.6415 3.3266,-8.3569 8.7337,-2.1506 -6.9201,-5.7463 z"
         style="fill:#003e7c;fill-rule:evenodd;stroke:#003e7c;stroke-width:0.2083;stroke-linecap:butt;stroke-linejoin:miter;stroke-dasharray:none"
         id="path41" />
    </g>
    <g
       id="Layer1003">
      <path
         d="m 258.6912,185.5072 c 0,-8.9567 6.506,-11.3528 13.893,-9.3192 v 4.6599 c -5.9792,-1.6006 -8.4567,0.2203 -8.4567,3.969 v 10.4414 c 0,4.0694 3.0289,5.1935 8.4567,3.3657 v 5.0049 c -8.7055,2.7039 -13.893,-1.41 -13.893,-9.6647 z"
         style="fill:#ffe129;fill-rule:evenodd"
         id="path44" />
      <path
         d="m 286.6906,175.4113 h 3.6695 3.6695 l 5.884,28.8215 h -5.799 l -0.9587,-5.4363 -2.7958,-2e-4 -2.7958,2e-4 -0.9587,5.4363 h -5.799 z m 3.6695,8.0251 -2.0503,11.1317 h 2.0503 2.0503 z"
         style="fill:#ffe129;fill-rule:evenodd"
         id="path46" />
      <path
         d="m 308.0496,175.4113 h 8.7156 c 4.626,0 7.5934,2.5571 7.5934,6.3015 v 4.3523 c 0,2.3543 -1.8764,4.7687 -4.0669,5.5978 l 4.4718,12.5699 h -5.9275 l -4.1552,-12.4775 -1.3674,-0.0349 v 12.5124 h -5.2638 z m 5.2638,4.9188 h 3.7676 c 1.2028,0 2.1867,0.9839 2.1867,2.1867 v 2.1848 c 0,1.2028 -0.9839,2.1867 -2.1867,2.1867 h -3.7676 z"
         style="fill:#ffe129;fill-rule:evenodd"
         id="path48" />
      <path
         d="m 332.9017,185.4071 c 0,-8.9567 6.506,-11.3528 13.893,-9.3192 v 4.6599 c -5.9792,-1.6006 -8.4567,0.2203 -8.4567,3.9691 v 10.4414 c 0,4.0694 3.0289,5.1935 8.4567,3.3657 v 5.0049 c -8.7055,2.7039 -13.893,-1.4101 -13.893,-9.6648 z"
         style="fill:#ffe129;fill-rule:evenodd"
         id="path50" />
    </g>
  </g>
</svg>
