<?xml version="1.0" encoding="UTF-8" standalone="no"?>
<svg
   version="1.1"
   width="1205.8895"
   height="1000.0596"
   id="svg106"
   viewBox="0 0 1205.8895 1000.0596"
   sodipodi:docname="Club Atlético Rosario Central 1998.svg"
   inkscape:version="1.1 (c68e22c387, 2021-05-23)"
   xmlns:inkscape="http://www.inkscape.org/namespaces/inkscape"
   xmlns:sodipodi="http://sodipodi.sourceforge.net/DTD/sodipodi-0.dtd"
   xmlns="http://www.w3.org/2000/svg"
   xmlns:svg="http://www.w3.org/2000/svg">
  <defs
     id="defs110" />
  <sodipodi:namedview
     id="namedview108"
     pagecolor="#ffffff"
     bordercolor="#666666"
     borderopacity="1.0"
     inkscape:pageshadow="2"
     inkscape:pageopacity="0.0"
     inkscape:pagecheckerboard="0"
     showgrid="false"
     fit-margin-top="0"
     fit-margin-left="0"
     fit-margin-right="0"
     fit-margin-bottom="0"
     inkscape:zoom="0.85083919"
     inkscape:cx="974.91983"
     inkscape:cy="758.66275"
     inkscape:window-width="1366"
     inkscape:window-height="705"
     inkscape:window-x="-8"
     inkscape:window-y="-8"
     inkscape:window-maximized="1"
     inkscape:current-layer="svg106" />
  <g
     id="Layer1000"
     transform="matrix(2.3141154,0,0,2.3141154,-61.040337,-156.43862)">
    <path
       d="m 239.2682,91.1117 c 55.5284,0 103.6715,42.0472 127.4159,103.5071 v -67.7162 h 83.035 V 430.41 h -83.035 v -61.9894 c -23.7444,61.4599 -71.8875,103.5071 -127.4159,103.5071 -79.0671,0 -143.1638,-85.2483 -143.1638,-190.408 0,-105.1597 64.0967,-190.408 143.1638,-190.408 z"
       style="fill:#ffe127;fill-rule:evenodd;stroke:#ffe127;stroke-width:0.216;stroke-linecap:butt;stroke-linejoin:miter;stroke-dasharray:none"
       id="path2" />
    <g
       id="Layer1001">
      <path
         d="m 428.9598,212.6214 c 1.6555,-21.4101 9.3204,-35.8804 18.4326,-35.8804 10.3436,0 16.738,10.1171 19.8641,36.1491 14.8266,-12.6762 26.3435,-17.0784 34.4897,-13.0524 9.307,8.7486 1.7288,27.4243 -2.3882,37.5783 -7.5342,18.582 -29.5702,46.2507 -51.9656,46.2507 -33.6138,0 -71.5442,-67.1463 -52.9707,-83.393 6.1152,-4.716 17.9237,-0.1154 34.5381,12.3477 z"
         style="fill:#003e7c;fill-rule:evenodd"
         id="path4" />
      <path
         d="m 428.9598,105.6957 c 1.6555,-21.4101 9.3204,-35.8804 18.4326,-35.8804 10.3436,0 16.738,10.1172 19.8641,36.1491 C 482.0831,93.2882 493.6,88.886 501.7462,92.912 c 9.307,8.7486 1.7288,27.4244 -2.3882,37.5784 -7.5342,18.5819 -29.5702,46.2506 -51.9656,46.2506 -33.6138,0 -71.5442,-67.1462 -52.9707,-83.393 6.1152,-4.716 17.9237,-0.1154 34.5381,12.3477 z"
         style="fill:#003e7c;fill-rule:evenodd"
         id="path6" />
      <path
         d="m 428.9598,319.5471 c 1.6555,-21.4101 9.3204,-35.8804 18.4326,-35.8804 10.3436,0 16.738,10.1171 19.8641,36.1491 14.8266,-12.6763 26.3435,-17.0785 34.4897,-13.0524 9.307,8.7485 1.7288,27.4243 -2.3882,37.5783 -7.5342,18.582 -29.5702,46.2506 -51.9656,46.2506 -33.6138,0 -71.5442,-67.1462 -52.9707,-83.393 6.1152,-4.716 17.9237,-0.1153 34.5381,12.3478 z"
         style="fill:#003e7c;fill-rule:evenodd"
         id="path8" />
      <path
         d="m 428.9598,425.8463 c 1.6555,-21.4101 9.3204,-35.8804 18.4326,-35.8804 10.3436,0 16.738,10.1171 19.8641,36.1491 14.8266,-12.6763 26.3435,-17.0785 34.4897,-13.0524 9.307,8.7485 1.7288,27.4243 -2.3882,37.5783 -7.5342,18.582 -29.5702,46.2507 -51.9656,46.2507 -33.6138,0 -71.5442,-67.1463 -52.9707,-83.393 6.1152,-4.716 17.9237,-0.1154 34.5381,12.3477 z"
         style="fill:#003e7c;fill-rule:evenodd"
         id="path10" />
    </g>
    <path
       d="m 396.2752,461.8386 c 0.4904,11.6816 -6.4145,21.8472 -18.4181,23.497 -12.6652,1.7404 -20.6966,-5.5826 -26.4353,-15.9631 l -0.129,-0.2335 -2.6867,-5.3731 c -27.388,19.4457 -58.3846,30.7088 -91.9921,34.6238 -30.7937,3.5875 -61.6369,-0.6225 -90.8227,-10.8457 -27.5737,-9.6585 -52.035,-25.3145 -72.8373,-45.7818 -25.6292,-25.2161 -44.6298,-54.7503 -55.3771,-89.1584 -15.95,-51.065 -15.0542,-103.1975 5.004,-152.9966 15.6685,-38.9006 41.0006,-71.4327 75.543,-95.3294 37.5523,-25.9789 79.4019,-38.605 125.1111,-36.3004 38.2187,1.9269 74.1059,13.8775 105.3057,35.6366 2.0301,-3.8115 4.1856,-7.5561 6.3867,-11.2726 3.3729,-5.6962 9.39,-9.3472 15.8519,-10.385 13.8861,-2.23 25.1841,7.5541 25.1841,21.5802 v 88.863 c 0,3.7026 -1.0734,7.2411 -3.3409,10.1931 -4.411,5.7424 -10.8048,6.7428 -17.5422,7.0089 -5.0131,0.1982 -9.7438,-0.9535 -13.6874,-4.1745 -5.5355,-4.521 -6.3566,-10.2308 -9.2616,-16.1076 -19.9511,-40.3637 -55.6818,-67.9249 -101.2212,-71.3364 -24.9554,-1.8698 -52.3607,6.453 -72.8535,20.6274 -21.9943,15.213 -39.3937,35.2324 -51.6694,58.9728 -15.1259,29.2536 -20.914,61.5507 -19.3172,94.3064 1.7104,35.0895 10.8895,70.3638 32.4294,98.6825 24.0497,31.6182 55.895,56.4146 96.9135,58.5221 14.432,0.7416 28.9162,-1.4354 42.7073,-5.6528 33.2149,-10.1583 64.4425,-40.8175 76.297,-73.3317 6.9738,-19.1274 40.4683,-15.9327 40.5462,5.5819 z"
       style="fill:#003e7c;fill-rule:evenodd;stroke:#003e7c;stroke-width:0.216;stroke-linecap:butt;stroke-linejoin:miter;stroke-dasharray:none"
       id="path13" />
    <path
       d="m 389.7561,461.9954 c 0.3989,8.4138 -4.1028,15.6877 -12.7865,16.8811 -9.8121,1.3485 -15.4672,-4.7273 -19.8419,-12.6584 l -0.0638,-0.1153 -6.099,-12.1981 c -27.8159,21.4988 -59.8023,33.8967 -95.1052,38.0092 -29.8954,3.483 -59.5577,-0.5907 -87.9132,-10.523 -26.6729,-9.343 -50.2778,-24.4585 -70.4199,-44.2761 C 72.6395,412.6286 54.2336,384.0636 43.8001,350.6601 28.2472,300.867 29.0477,250.6558 48.6283,202.0431 63.8371,164.2836 88.3553,132.7995 121.8331,109.6396 158.25,84.4461 198.527,72.2514 242.9067,74.4888 c 39.6808,2.0007 76.5318,15.1143 108.004,38.9027 2.8743,-6.0738 6.1821,-11.912 9.6265,-17.7282 2.3794,-4.0184 6.7331,-6.5403 11.2759,-7.2697 9.8357,-1.5797 17.6306,5.0338 17.6306,15.143 v 88.863 c 0,2.2601 -0.602,4.4124 -1.9916,6.2215 -3.0237,3.9364 -8.0787,4.2862 -12.6292,4.466 -3.3936,0.134 -6.618,-0.514 -9.3058,-2.7094 -3.9875,-3.2567 -5.2932,-9.4 -7.541,-13.9473 -20.9982,-42.482 -58.7758,-71.3679 -106.579,-74.9489 -26.451,-1.9817 -55.3371,6.749 -77.0494,21.767 -22.881,15.8264 -40.9779,36.6364 -53.7517,61.3403 -15.6571,30.2808 -21.6921,63.686 -20.0381,97.6184 1.7762,36.4402 11.3919,72.9142 33.7524,102.312 25.2658,33.2169 58.7676,58.8767 101.7681,61.0863 15.2053,0.7812 30.4168,-1.4856 44.9484,-5.9295 35.1765,-10.758 67.9617,-42.8998 80.5158,-77.3331 4.5184,-12.3928 27.8498,-10.7949 27.9011,3.3724 z m -6.832,-358.4588 c 0,-11.2703 -13.2064,-10.5818 -16.7772,-4.5513 -4.8509,8.1915 -9.2506,16.0849 -12.6164,24.7853 -33.4993,-27.6673 -72.0354,-40.8082 -110.952,-42.7703 -46.5727,-2.348 -84.8421,11.7289 -117.0363,34.001 -30.9903,21.4393 -55.438,51.1733 -70.8664,89.4776 -19.186,47.6342 -19.6169,96.3286 -4.6525,144.2375 9.3251,29.8556 25.8837,57.981 52.0758,83.751 19.9021,19.5818 42.7156,33.9129 68.0026,42.7703 28.0536,9.8266 56.4409,13.5281 85.0037,10.2005 37.9737,-4.4238 70.6079,-18.527 98.0674,-41.6965 l 9.6635,19.3274 c 3.676,6.6643 7.1791,10.1821 13.2458,9.3484 4.2301,-0.5814 7.5121,-3.8435 7.1549,-10.2435 l -0.3129,-86.4352 c 0,-6.6509 -13.1624,-6.9058 -15.2561,-1.1628 -13.1927,36.1843 -47.4344,69.9271 -84.7346,81.3345 -53.4649,16.3508 -108.1384,2.6034 -153.8122,-57.4444 -21.6329,-28.4408 -33.0726,-64.853 -35.0753,-105.9414 -1.7788,-36.4904 5.123,-70.6907 20.759,-100.9304 14.2046,-27.4717 33.7373,-48.4237 55.834,-63.7078 22.7673,-15.7476 53.1164,-25.0138 81.2452,-22.9065 44.8446,3.3593 87.4474,29.0168 111.9367,78.5613 4.2222,8.5419 3.5309,13.3163 10.7447,13.0312 5.7164,-0.2259 8.3586,-0.7855 8.3586,-4.1729 z"
       style="fill:#ffe129;fill-rule:evenodd"
       id="path15" />
    <g
       id="Layer1002">
      <path
         d="m 428.9598,212.6214 c 1.6555,-21.4101 9.3204,-35.8804 18.4326,-35.8804 10.3436,0 16.738,10.1171 19.8641,36.1491 14.8266,-12.6762 26.3435,-17.0784 34.4897,-13.0524 9.307,8.7486 1.7288,27.4243 -2.3882,37.5783 -7.5342,18.582 -29.5702,46.2507 -51.9656,46.2507 -33.6138,0 -71.5442,-67.1463 -52.9707,-83.393 6.1152,-4.716 17.9237,-0.1154 34.5381,12.3477 z"
         style="fill:none"
         id="path17" />
      <path
         d="m 397.1064,202.7789 c 8.0197,-0.5054 17.8075,3.2174 31.3171,15.8375 -0.8039,12.2488 1.0695,24.8544 3.8475,37.5806 -9.9828,-9.3308 -21.3639,-25.4753 -35.1646,-53.4181 z"
         style="fill:none"
         id="path19" />
      <path
         d="m 463.4986,255.9288 c 2.6345,-12.6975 3.9861,-25.181 3.7579,-37.4017 12.6136,-11.355 23.3566,-17.0992 31.6752,-15.569 -13.0544,25.1161 -24.7652,42.171 -35.4331,52.9707 z"
         style="fill:none"
         id="path21" />
      <path
         d="m 447.3927,180.4096 c 8.4024,2.122 15.5191,15.9245 15.569,44.9178 0.0403,23.3918 -6.7748,42.3116 -15.569,53.3285 -1.4366,-32.133 -1.9052,-64.681 0,-98.2463 z"
         style="fill:none"
         id="path23" />
    </g>
    <g
       id="Layer1003">
      <path
         d="m 397.1064,202.7789 c 8.0197,-0.5054 17.8075,3.2174 31.3171,15.8375 -0.8039,12.2488 1.0695,24.8544 3.8475,37.5806 -9.9828,-9.3308 -21.3639,-25.4753 -35.1646,-53.4181 z"
         style="fill:#ffe129;fill-rule:evenodd"
         id="path26" />
      <path
         d="m 463.4986,255.9288 c 2.6345,-12.6975 3.9861,-25.181 3.7579,-37.4017 12.6136,-11.355 23.3566,-17.0992 31.6752,-15.569 -13.0544,25.1161 -24.7652,42.171 -35.4331,52.9707 z"
         style="fill:#ffe129;fill-rule:evenodd"
         id="path28" />
      <path
         d="m 447.3927,180.4096 c 8.4024,2.122 15.5191,15.9245 15.569,44.9178 0.0403,23.3918 -6.7748,42.3116 -15.569,53.3285 -1.4366,-32.133 -1.9052,-64.681 0,-98.2463 z"
         style="fill:#ffe129;fill-rule:evenodd"
         id="path30" />
      <path
         d="m 397.1064,95.8533 c 8.0197,-0.5055 17.8075,3.2173 31.3171,15.8374 -0.8039,12.2488 1.0695,24.8545 3.8475,37.5806 -9.9828,-9.3308 -21.3639,-25.4752 -35.1646,-53.418 z"
         style="fill:#ffe129;fill-rule:evenodd"
         id="path32" />
      <path
         d="m 463.4986,149.0031 c 2.6345,-12.6975 3.9861,-25.181 3.7579,-37.4017 12.6136,-11.355 23.3566,-17.0991 31.6752,-15.569 -13.0544,25.1161 -24.7652,42.171 -35.4331,52.9707 z"
         style="fill:#ffe129;fill-rule:evenodd"
         id="path34" />
      <path
         d="m 447.3927,73.4839 c 8.4024,2.1221 15.5191,15.9245 15.569,44.9178 0.0403,23.3918 -6.7748,42.3117 -15.569,53.3285 -1.4366,-32.133 -1.9052,-64.6809 0,-98.2463 z"
         style="fill:#ffe129;fill-rule:evenodd"
         id="path36" />
      <path
         d="m 397.1064,309.7046 c 8.0197,-0.5054 17.8075,3.2173 31.3171,15.8374 -0.8039,12.2488 1.0695,24.8545 3.8475,37.5806 -9.9828,-9.3308 -21.3639,-25.4752 -35.1646,-53.418 z"
         style="fill:#ffe129;fill-rule:evenodd"
         id="path38" />
      <path
         d="m 463.4986,362.8545 c 2.6345,-12.6975 3.9861,-25.181 3.7579,-37.4017 12.6136,-11.3551 23.3566,-17.0992 31.6752,-15.5691 -13.0544,25.1161 -24.7652,42.1711 -35.4331,52.9708 z"
         style="fill:#ffe129;fill-rule:evenodd"
         id="path40" />
      <path
         d="m 447.3927,287.3353 c 8.4024,2.122 15.5191,15.9244 15.569,44.9178 0.0403,23.3918 -6.7748,42.3116 -15.569,53.3284 -1.4366,-32.1329 -1.9052,-64.6809 0,-98.2462 z"
         style="fill:#ffe129;fill-rule:evenodd"
         id="path42" />
      <path
         d="m 397.1064,416.0038 c 8.0197,-0.5054 17.8075,3.2173 31.3171,15.8375 -0.8039,12.2487 1.0695,24.8544 3.8475,37.5806 -9.9828,-9.3308 -21.3639,-25.4753 -35.1646,-53.4181 z"
         style="fill:#ffe129;fill-rule:evenodd"
         id="path44" />
      <path
         d="m 463.4986,469.1537 c 2.6345,-12.6975 3.9861,-25.181 3.7579,-37.4017 12.6136,-11.3551 23.3566,-17.0992 31.6752,-15.569 -13.0544,25.1161 -24.7652,42.171 -35.4331,52.9707 z"
         style="fill:#ffe129;fill-rule:evenodd"
         id="path46" />
      <path
         d="m 447.3927,393.6345 c 8.4024,2.122 15.5191,15.9245 15.569,44.9178 0.0403,23.3918 -6.7748,42.3116 -15.569,53.3285 -1.4366,-32.133 -1.9052,-64.681 0,-98.2463 z"
         style="fill:#ffe129;fill-rule:evenodd"
         id="path48" />
    </g>
    <path
       d="m 155.4273,204.6583 c 29.2368,-1.7748 58.2126,-4.7869 86.9723,-7.5163 28.7598,2.7294 57.7355,5.7415 86.9723,7.5163 -7.1866,60.2785 -6.1273,122.5891 -4.653,185.7552 0.1542,6.6172 -2.7428,10.1639 -17.3257,14.2228 -12.8089,3.5654 -62.3534,7.7145 -64.9936,12.2624 -2.4091,-4.1499 -43.8752,-7.9679 -60.8445,-11.3133 -1.6268,-0.3209 -3.0285,-0.6373 -4.1491,-0.9491 -14.5828,-4.0589 -17.4798,-7.6056 -17.3256,-14.2228 1.4743,-63.1661 2.5336,-125.4767 -4.6531,-185.7552 z"
       style="fill:#003e7c;fill-rule:evenodd;stroke:#003e7c;stroke-width:0.216;stroke-linecap:butt;stroke-linejoin:miter;stroke-dasharray:none"
       id="path51" />
    <g
       id="Layer1004">
      <path
         d="m 216.9882,405.1341 v -161.822 h -17.1797 v 159.4176 c 3.168,0.4456 6.3377,0.8796 9.5051,1.3221 2.5515,0.3563 5.1129,0.7121 7.6746,1.0823 z"
         style="fill:#ffe129;fill-rule:evenodd"
         id="path53" />
      <path
         d="M 181.5551,399.8234 V 243.3121 h -16.8982 c 3.2341,48.9549 2.2329,98.312 1.0914,147.2338 -0.0179,0.7602 0.002,1.7498 0.2874,2.4695 1.1534,2.9098 10.328,5.4459 12.8905,6.1591 0.8504,0.2367 1.7309,0.4516 2.6289,0.6489 z"
         style="fill:#ffe129;fill-rule:evenodd"
         id="path55" />
      <path
         d="m 250.2734,243.3121 v 164.7703 c -2.4585,0.4867 -5.3799,1.152 -7.8738,2.2178 -2.4939,-1.0658 -5.4153,-1.7311 -7.8738,-2.2178 V 243.3121 h 7.8738 z"
         style="fill:#ffe129;fill-rule:evenodd"
         id="path57" />
      <path
         d="m 267.8111,405.1341 v -161.822 h 17.1796 v 159.4176 c -3.168,0.4456 -6.3377,0.8796 -9.5051,1.3221 -2.5515,0.3563 -5.1128,0.7121 -7.6745,1.0823 z"
         style="fill:#ffe129;fill-rule:evenodd"
         id="path59" />
      <path
         d="M 303.2442,399.8234 V 243.3121 h 16.8981 c -3.234,48.9549 -2.2328,98.312 -1.0913,147.2338 0.0179,0.7602 -0.002,1.7498 -0.2874,2.4695 -1.1535,2.9098 -10.3281,5.4459 -12.8906,6.1591 -0.8504,0.2367 -1.7308,0.4516 -2.6288,0.6489 z"
         style="fill:#ffe129;fill-rule:evenodd"
         id="path61" />
      <path
         d="m 197.8386,227.5451 5.6056,1.5339 c -0.8608,2.8119 -2.2956,4.8986 -4.2975,6.2659 -2.0022,1.3615 -4.5378,2.0451 -7.6142,2.0451 -3.8104,0 -6.9404,-1.1592 -9.3961,-3.4777 -2.4492,-2.3186 -3.677,-5.4872 -3.677,-9.512 0,-4.2508 1.2345,-7.5563 3.697,-9.9105 2.4624,-2.3543 5.7057,-3.5313 9.7231,-3.5313 3.5101,0 6.3595,0.9273 8.5484,2.7763 1.3081,1.0938 2.2822,2.6634 2.9363,4.7144 l -5.7257,1.2129 c -0.3403,-1.3198 -1.0477,-2.3661 -2.1222,-3.1332 -1.0811,-0.7668 -2.3889,-1.1473 -3.9238,-1.1473 -2.1289,0 -3.8571,0.6777 -5.1786,2.0391 -1.3278,1.3555 -1.9885,3.555 -1.9885,6.5991 0,3.2221 0.654,5.5229 1.9552,6.8902 1.3078,1.3733 3.003,2.057 5.0916,2.057 1.5418,0 2.8696,-0.434 3.9774,-1.308 1.1078,-0.8738 1.9086,-2.2411 2.389,-4.1139 z"
         style="fill:#ffe129;fill-rule:evenodd"
         id="path63" />
      <path
         d="m 302.2891,227.6951 5.6056,1.5339 c -0.8608,2.8119 -2.2956,4.8986 -4.2975,6.2659 -2.0022,1.3614 -4.5378,2.0451 -7.6142,2.0451 -3.8104,0 -6.9404,-1.1592 -9.3961,-3.4778 -2.4492,-2.3186 -3.677,-5.4872 -3.677,-9.512 0,-4.2508 1.2345,-7.5563 3.697,-9.9105 2.4624,-2.3542 5.7057,-3.5312 9.7231,-3.5312 3.5101,0 6.3595,0.9272 8.5484,2.7763 1.3081,1.0938 2.2822,2.6633 2.9363,4.7144 l -5.7257,1.2128 c -0.3403,-1.3198 -1.0477,-2.3661 -2.1222,-3.1332 -1.0811,-0.7668 -2.3889,-1.1472 -3.9238,-1.1472 -2.1289,0 -3.8571,0.6777 -5.1786,2.0391 -1.3278,1.3554 -1.9885,3.555 -1.9885,6.5991 0,3.222 0.654,5.5228 1.9552,6.8901 1.3078,1.3733 3.003,2.057 5.0916,2.057 1.5418,0 2.8696,-0.4339 3.9774,-1.3079 1.1078,-0.8738 1.9086,-2.2412 2.389,-4.1139 z"
         style="fill:#ffe129;fill-rule:evenodd"
         id="path65" />
      <path
         d="m 240.5853,236.4326 h -6.3 l -2.4944,-6.3412 h -11.5851 l -2.4005,6.3412 h -6.1857 l 11.215,-27.8549 h 6.1793 z m -10.6906,-11.0485 -4.0142,-10.3094 -3.8997,10.3094 z"
         style="fill:#ffe129;fill-rule:evenodd"
         id="path67" />
      <path
         d="m 255.7678,221.2996 h 6.459 c 1.4045,0 2.4377,-0.3016 3.0935,-0.8982 0.662,-0.6029 0.9901,-1.5468 0.9901,-2.8382 0,-1.2257 -0.3219,-2.1566 -0.9593,-2.7859 -0.6434,-0.6357 -1.5959,-0.9505 -2.8705,-0.9505 h -6.7128 z m -5.494,15.9283 v -28.2778 h 12.9555 c 2.9137,0 5.0669,0.6554 6.4713,1.973 1.4043,1.3175 2.1035,3.3365 2.1035,6.0435 0,1.724 -0.3402,3.1662 -1.027,4.3132 -0.6804,1.1538 -1.6642,1.9403 -2.951,2.3597 1.1569,0.4392 1.9796,1.1012 2.4685,1.9994 0.4887,0.8979 0.7671,2.2942 0.8413,4.1885 l 0.1113,3.3429 c 0,0.0262 0,0.0655 0,0.1181 0.0372,1.6912 0.3836,2.7138 1.0394,3.0743 v 0.8652 h -6.0135 c -0.1919,-0.3999 -0.3404,-0.885 -0.4455,-1.4684 -0.099,-0.5834 -0.1609,-1.2782 -0.1857,-2.0845 l -0.0742,-2.9824 c -0.0619,-1.7567 -0.371,-2.9365 -0.9342,-3.5526 -0.5629,-0.6164 -1.5776,-0.9243 -3.0377,-0.9243 h -5.828 v 11.0122 z"
         style="fill:#ffe129;fill-rule:evenodd"
         id="path69" />
    </g>
    <g
       id="Layer1005">
      <path
         d="m 242.3611,134.8656 4.245,13.1507 13.8189,-0.0265 -11.1953,8.101 4.2955,13.1343 -11.1641,-8.144 -11.164,8.144 4.2955,-13.1343 -11.1953,-8.101 13.8188,0.0265 z"
         style="fill:#003e7c;fill-rule:evenodd;stroke:#003e7c;stroke-width:0.216;stroke-linecap:butt;stroke-linejoin:miter;stroke-dasharray:none"
         id="path72" />
      <g
         id="Layer1006">
        <path
           d="m 203.9201,144.8872 3.4933,10.8219 11.3717,-0.0218 -9.2127,6.6664 3.5348,10.8083 -9.1871,-6.7017 -9.187,6.7017 3.5348,-10.8083 -9.2127,-6.6664 11.3717,0.0218 z"
           style="fill:#003e7c;fill-rule:evenodd;stroke:#003e7c;stroke-width:0.216;stroke-linecap:butt;stroke-linejoin:miter;stroke-dasharray:none"
           id="path74" />
        <path
           d="m 170.6346,164.9302 3.4933,10.8218 11.3716,-0.0218 -9.2127,6.6664 3.5348,10.8084 -9.187,-6.7018 -9.187,6.7018 3.5348,-10.8084 -9.2127,-6.6664 11.3716,0.0218 z"
           style="fill:#003e7c;fill-rule:evenodd;stroke:#003e7c;stroke-width:0.216;stroke-linecap:butt;stroke-linejoin:miter;stroke-dasharray:none"
           id="path76" />
      </g>
      <g
         id="Layer1007">
        <path
           d="m 280.802,145.0664 -3.4933,10.8219 -11.3716,-0.0219 9.2127,6.6664 -3.5348,10.8084 9.187,-6.7018 9.187,6.7018 -3.5348,-10.8084 9.2127,-6.6664 -11.3716,0.0219 z"
           style="fill:#003e7c;fill-rule:evenodd;stroke:#003e7c;stroke-width:0.216;stroke-linecap:butt;stroke-linejoin:miter;stroke-dasharray:none"
           id="path79" />
        <path
           d="m 314.0875,165.1093 -3.4932,10.8219 -11.3717,-0.0219 9.2127,6.6665 -3.5348,10.8083 9.187,-6.7018 9.1871,6.7018 -3.5348,-10.8083 9.2127,-6.6665 -11.3717,0.0219 z"
           style="fill:#003e7c;fill-rule:evenodd;stroke:#003e7c;stroke-width:0.216;stroke-linecap:butt;stroke-linejoin:miter;stroke-dasharray:none"
           id="path81" />
      </g>
    </g>
    <text
       x="520.48572"
       y="203.1375"
       id="text87"><tspan
         font-family="'Swis721 BT'"
         font-size="52.5px"
         fill="#003e7c"
         id="tspan85">1</tspan></text>
    <text
       x="520.48572"
       y="268.18951"
       id="text91"><tspan
         font-family="'Swis721 BT'"
         font-size="52.5px"
         fill="#003e7c"
         id="tspan89">8</tspan></text>
    <text
       x="517.90167"
       y="331.09399"
       id="text95"><tspan
         font-family="'Swis721 BT'"
         font-size="52.5px"
         fill="#003e7c"
         id="tspan93">8</tspan></text>
    <text
       x="517.90167"
       y="393.3663"
       id="text99"><tspan
         font-family="'Swis721 BT'"
         font-size="51px"
         fill="#003e7c"
         id="tspan97">9</tspan></text>
    <text
       x="519.94891"
       y="266.4873"
       id="text103"><tspan
         font-family="'Swis721 BT'"
         font-size="51px"
         fill="#003e7c"
         id="tspan101">8</tspan></text>
  </g>
</svg>
