<?xml version="1.0" encoding="UTF-8" standalone="no"?>
<svg
   version="1.1"
   width="914.43463"
   height="1000.1065"
   id="svg63"
   viewBox="0 0 914.43463 1000.1065"
   sodipodi:docname="Club Atlético Rosario Central 1992.svg"
   inkscape:version="1.1 (c68e22c387, 2021-05-23)"
   xmlns:inkscape="http://www.inkscape.org/namespaces/inkscape"
   xmlns:sodipodi="http://sodipodi.sourceforge.net/DTD/sodipodi-0.dtd"
   xmlns="http://www.w3.org/2000/svg"
   xmlns:svg="http://www.w3.org/2000/svg">
  <defs
     id="defs67" />
  <sodipodi:namedview
     id="namedview65"
     pagecolor="#ffffff"
     bordercolor="#666666"
     borderopacity="1.0"
     inkscape:pageshadow="2"
     inkscape:pageopacity="0.0"
     inkscape:pagecheckerboard="0"
     showgrid="false"
     fit-margin-top="0"
     fit-margin-left="0"
     fit-margin-right="0"
     fit-margin-bottom="0"
     inkscape:zoom="2.9804647"
     inkscape:cx="877.88324"
     inkscape:cy="43.4496"
     inkscape:window-width="1366"
     inkscape:window-height="705"
     inkscape:window-x="-8"
     inkscape:window-y="-8"
     inkscape:window-maximized="1"
     inkscape:current-layer="svg63" />
  <g
     id="Layer1000"
     transform="matrix(2.0266647,0,0,2.0266647,-115.17785,-75.009325)">
    <path
       d="m 297.5655,75.3763 c 91.7181,0 166.07,92.9401 166.07,207.5877 0,114.6472 -74.3519,207.5873 -166.07,207.5873 -91.7184,0 -166.0703,-92.9401 -166.0703,-207.5873 0,-114.6476 74.3519,-207.5877 166.0703,-207.5877 z"
       style="fill:#ffe129;fill-rule:evenodd;stroke:#ffe129;stroke-width:0.216;stroke-linecap:butt;stroke-linejoin:miter;stroke-dasharray:none"
       id="path2" />
    <path
       d="m 428.0726,70.2082 c 5.4975,-3.4197 12.259,-8.5172 19.0225,-6.2765 9.6783,3.2066 9.477,17.6256 9.3106,25.8333 v 96.2059 c 0,9.2979 -3.1575,21.329 -13.7562,23.4692 -5.3873,1.0879 -10.5296,-1.1693 -14.3958,-4.843 -4.2329,-4.0227 -7.0514,-9.6514 -8.8667,-15.1447 -10.5534,-26.6967 -26.379,-50.0148 -50.1376,-66.524 -23.7322,-16.4909 -46.5774,-25.6805 -75.9191,-25.4333 -71.2766,0.6006 -114.1631,52.4732 -129.1558,118.3238 -10.7227,47.0965 -10.8553,94.4254 1.3782,141.2302 13.0407,49.8918 42.8918,93.6842 94.4591,108.436 15.5673,4.4535 31.9323,5.7827 48.045,4.4053 26.3129,-2.2495 50.402,-14.2707 69.9857,-31.659 18.1789,-16.1413 33.3737,-37.804 41.2875,-60.8681 1.7813,-5.5068 4.9776,-10.8011 9.4008,-14.5819 4.2809,-3.6593 9.9224,-5.959 15.5769,-4.4938 9.5846,2.4834 12.098,13.0584 12.098,21.6703 v 104.1517 c 0,6.9434 -1.0689,15.8284 -8.549,18.72 -6.8133,2.6336 -13.8529,-2.0038 -19.773,-4.9088 -1.5877,-0.7792 -3.5504,-0.9927 -4.9848,0.2123 l -0.6429,0.54 -0.7509,0.3748 C 368.4044,525.6499 310.8044,538.3794 251.9734,525.0217 186.6881,510.1988 135.1743,475.5912 98.0215,419.2943 64.3425,368.261 51.0471,311.3456 59.334,250.5118 69.5557,175.4742 107.8407,116.1499 172.1092,75.8166 251.5487,25.9622 334.7977,25.8934 418.2287,66.3148 l 0.4539,0.22 0.4178,0.2818 c 1.601,1.0791 6.7181,4.2947 8.9722,3.3916 z"
       style="fill:#ffe129;fill-rule:evenodd;stroke:#ffe129;stroke-width:0.216;stroke-linecap:butt;stroke-linejoin:miter;stroke-dasharray:none"
       id="path4" />
    <path
       d="m 449.3191,89.693 c 0.5431,-26.7296 -7.1867,-19.8153 -17.839,-13.2596 -4.2579,2.2028 -9.6976,0.7381 -16.3411,-3.7409 C 333.8637,33.3153 253.3697,33.1858 175.8762,81.8189 112.2214,121.767 76.1077,179.8792 66.3557,251.4682 c -8.3186,61.0679 5.928,115.9606 37.5806,163.9228 37.9763,57.545 89.5056,89.0744 149.606,102.7201 55.052,12.4997 110.5852,1.7533 164.9982,-25.404 3.8639,-3.246 8.8518,-3.0195 12.6649,-1.1484 9.3116,4.5692 18.1137,11.1399 18.1137,-7.4491 V 379.9579 c 0,-23.0256 -18.0147,-16.7026 -23.2642,-0.358 -15.5931,45.5215 -60.7612,92.5095 -117.3943,97.3513 -65.1345,5.5684 -127.2078,-31.0473 -149.9641,-118.11 -12.4812,-47.7522 -12.4642,-96.139 -1.4318,-144.5956 16.7644,-73.6333 65.0492,-123.2387 136.0058,-123.8368 34.4965,-0.2906 59.0337,12.1152 80.0229,26.7001 24.1307,16.7677 41.1993,40.5989 52.7618,69.9355 7.039,21.5937 23.2639,20.2819 23.2639,-1.0735 z"
       style="fill:#003e7c;fill-rule:evenodd;stroke:#003e7c;stroke-width:0.216;stroke-linecap:butt;stroke-linejoin:miter;stroke-dasharray:none"
       id="path6" />
    <path
       d="m 480.1893,186.105 c 5.1641,0 9.3503,4.1862 9.3503,9.3503 0,5.1642 -4.1862,9.3504 -9.3503,9.3504 -5.1642,0 -9.3504,-4.1862 -9.3504,-9.3504 0,-5.1641 4.1862,-9.3503 9.3504,-9.3503 z"
       style="fill:#003e7c;fill-rule:evenodd"
       id="path8" />
    <path
       d="m 438.5373,279.1616 c 5.1641,0 9.3503,4.1862 9.3503,9.3503 0,5.1642 -4.1862,9.3504 -9.3503,9.3504 -5.1642,0 -9.3504,-4.1862 -9.3504,-9.3504 0,-5.1641 4.1862,-9.3503 9.3504,-9.3503 z"
       style="fill:#003e7c;fill-rule:evenodd"
       id="path10" />
    <path
       d="m 480.1893,279.1616 c 5.1641,0 9.3503,4.1862 9.3503,9.3503 0,5.1642 -4.1862,9.3504 -9.3503,9.3504 -5.1642,0 -9.3504,-4.1862 -9.3504,-9.3504 0,-5.1641 4.1862,-9.3503 9.3504,-9.3503 z"
       style="fill:#003e7c;fill-rule:evenodd"
       id="path12" />
    <path
       d="m 480.1893,375.0817 c 5.1641,0 9.3503,4.1862 9.3503,9.3504 0,5.1642 -4.1862,9.3504 -9.3503,9.3504 -5.1642,0 -9.3504,-4.1862 -9.3504,-9.3504 0,-5.1642 4.1862,-9.3504 9.3504,-9.3504 z"
       style="fill:#003e7c;fill-rule:evenodd"
       id="path14" />
    <path
       d="m 296.4053,469.9877 v 0.2103 c -0.002,-0.0689 -0.002,-0.1389 0,-0.2103 z m 0,-305.1771 c 29.7598,37.5681 75.7465,46.4266 130.324,40.0858 -45.3643,21.134 -16.691,128.2842 -32.9279,177.1651 -4.9697,25.956 -33.4802,47.6541 -80.5297,71.5819 -11.2218,5.707 -16.7632,12.5917 -16.8698,16.3443 -0.1032,-3.7528 -5.6449,-10.6373 -16.8664,-16.3443 -47.0495,-23.9278 -75.5601,-45.6259 -80.5298,-71.5819 -16.2368,-48.8809 12.4365,-156.0311 -32.9278,-177.1651 54.5774,6.3408 100.5642,-2.5177 130.3274,-40.0858 z"
       style="fill:#003e7c;fill-rule:evenodd;stroke:#003e7c;stroke-width:0.216;stroke-linecap:butt;stroke-linejoin:miter;stroke-dasharray:none"
       id="path16" />
    <g
       id="Layer1001">
      <path
         d="m 223.3891,266.2078 v 140.7988 c -7.4894,-7.359 -14.0587,-16.243 -16.0311,-26.5444 l -0.1054,-0.5499 -0.1766,-0.5315 c -3.4064,-10.2555 -4.4181,-22.4759 -4.8955,-33.2278 -0.623,-14.0315 -0.3279,-28.1602 -0.2041,-42.203 0.1092,-12.3817 0.2078,-25.1552 -0.5638,-37.7422 z"
         style="fill:#ffe129;fill-rule:evenodd"
         id="path18" />
      <path
         d="m 265.1117,266.2078 v 170.1737 c -7.0957,-3.9563 -14.1617,-8.1859 -20.8613,-12.721 V 266.2078 Z"
         style="fill:#ffe129;fill-rule:evenodd"
         id="path20" />
      <path
         d="m 306.8342,266.2078 v 181.2444 c -3.3738,1.9123 -7.1461,4.4354 -10.4306,7.4058 -3.2845,-2.9704 -7.0571,-5.4938 -10.4307,-7.4061 V 266.2078 Z"
         style="fill:#ffe129;fill-rule:evenodd"
         id="path22" />
      <path
         d="m 348.5568,266.2078 v 157.4524 c -6.6997,4.5351 -13.7653,8.765 -20.8613,12.7213 V 266.2078 Z"
         style="fill:#ffe129;fill-rule:evenodd"
         id="path24" />
      <path
         d="m 369.4181,266.2078 v 140.7988 c 7.4894,-7.359 14.0587,-16.243 16.0311,-26.5444 l 0.1054,-0.5499 0.1766,-0.5315 c 3.4064,-10.2555 4.4181,-22.4759 4.8954,-33.2278 0.6231,-14.0315 0.328,-28.1602 0.2041,-42.203 -0.1091,-12.3817 -0.2077,-25.1552 0.5641,-37.7422 z"
         style="fill:#ffe129;fill-rule:evenodd"
         id="path26" />
    </g>
    <g
       id="Layer1002">
      <path
         d="m 234.5,244.7427 1.7808,7.6794 c -2.7085,1.6523 -5.87,2.6008 -9.2464,2.6008 -10.0315,0 -18.1638,-8.3727 -18.1638,-18.701 0,-10.3284 8.1323,-18.701 18.1638,-18.701 3.2772,0 6.3516,0.8934 9.0063,2.4567 l -1.4933,7.8636 c -1.7825,-1.5148 -4.0785,-2.4463 -6.6612,-2.4463 -6.0392,0 -10.5117,5.0942 -10.5117,10.827 0,5.7327 4.4725,10.8269 10.5117,10.8269 2.5597,0 4.8382,-0.915 6.6138,-2.4061 z"
         style="fill:#ffe129;fill-rule:evenodd;stroke:#ffe129;stroke-width:0.216;stroke-linecap:butt;stroke-linejoin:miter;stroke-dasharray:none"
         id="path29" />
      <path
         d="m 379.4556,244.7427 1.7807,7.6794 c -2.7085,1.6523 -5.87,2.6008 -9.2463,2.6008 -10.0315,0 -18.1639,-8.3727 -18.1639,-18.701 0,-10.3284 8.1324,-18.701 18.1639,-18.701 3.2771,0 6.3516,0.8934 9.0062,2.4567 l -1.4933,7.8636 c -1.7824,-1.5148 -4.0785,-2.4463 -6.6611,-2.4463 -6.0392,0 -10.5117,5.0942 -10.5117,10.827 0,5.7327 4.4725,10.8269 10.5117,10.8269 2.5597,0 4.8382,-0.915 6.6138,-2.4061 z"
         style="fill:#ffe129;fill-rule:evenodd;stroke:#ffe129;stroke-width:0.216;stroke-linecap:butt;stroke-linejoin:miter;stroke-dasharray:none"
         id="path31" />
      <path
         d="m 248.0621,254.3071 19.8644,-48.1394 h 2.6844 2.6844 l 19.8643,48.1394 h -9.8427 l -3.6241,-9.6636 h -9.0819 -9.082 l -3.624,9.6636 z m 22.5488,-36.3282 -6.5727,18.7682 h 6.5727 6.5727 z"
         style="fill:#ffe129;fill-rule:evenodd;stroke:#ffe129;stroke-width:0.216;stroke-linecap:butt;stroke-linejoin:miter;stroke-dasharray:none"
         id="path33" />
      <path
         d="m 310.2945,206.1677 h 7.1583 c 12.1241,0 20.198,3.5728 19.5999,15.793 -0.2761,5.6418 -2.2558,10.2112 -5.641,13.4663 l 7.5161,18.8801 h -7.6955 l -6.9792,-16.5537 c -2.1523,0.1323 -4.4101,0.0544 -6.8003,-0.2906 v 16.8443 h -7.1583 z m 7.1583,7.1584 h 5.6342 c 4.2094,0 7.6535,3.4441 7.6535,7.6535 v 2.2309 c 0,4.2094 -3.4441,7.6535 -7.6535,7.6535 h -5.6342 z"
         style="fill:#ffe129;fill-rule:evenodd;stroke:#ffe129;stroke-width:0.216;stroke-linecap:butt;stroke-linejoin:miter;stroke-dasharray:none"
         id="path35" />
    </g>
    <path
       d="m 191.467,181.1588 23.5329,-16.0166 -1.0737,-24.3383 15.5695,13.8694 30.0646,-20.6697 -1.2526,-24.6064 15.9273,14.3164 23.9799,-16.7327 -14.3163,25.5017 15.1219,13.6902 -23.5332,1.7895 -14.6744,25.412 -0.5369,-24.5174 -13.2426,0.716 -7.7848,13.5111 15.122,14.2273 -23.6225,1.1634 -14.406,25.4117 -0.8053,-24.2487 z"
       style="fill:#003e7c;fill-rule:evenodd"
       id="path38" />
    <path
       d="m 291.5935,129.7984 24.1591,1.1631 0.8952,-24.5172 14.3164,25.8594 23.7115,1.5211 -15.3899,13.869 7.9634,13.6009 12.9745,0.7161 0.9844,-24.0699 14.2268,25.1436 24.2487,1.4315 -15.5693,14.0483 13.4221,24.6064 -23.2645,-15.3902 -15.5693,14.0483 0.9839,-24.5172 -29.975,-21.2065 -15.48,14.4059 0.8949,-24.5171 z"
       style="fill:#003e7c;fill-rule:evenodd"
       id="path40" />
    <g
       id="Layer1003">
      <path
         d="m 456.4267,100.5608 2.2879,-0.936 c 6.6225,4.1904 11.9911,10.4136 16.8216,28.2747 8.4512,-14.4386 17.9152,-22.5451 28.275,-25.0535 9.6219,28.8474 1.2943,62.2404 -27.0221,79.9929 -4.8739,3.867 -8.6666,8.0042 -11.632,12.3477 4.4003,5.8082 7.7086,13.9371 10.2002,23.8011 9.4252,-15.4743 18.8501,-24.1342 28.275,-25.0537 9.4269,33.5509 0.0582,62.966 -27.7381,80.3509 -4.953,4.6527 -8.9461,9.3052 -11.99,13.9583 6.5418,7.1348 10.5781,16.3091 12.348,26.3064 10.9902,-16.543 20.5061,-24.7363 28.6328,-25.0535 9.4362,39.21 -2.9347,65.6575 -29.1697,80.7086 -5.5596,4.9717 -9.4133,9.7623 -11.6322,13.7795 6.4729,7.8143 10.3493,18.3132 11.9903,27.2013 9.0467,-14.8836 18.6307,-24.4871 29.1696,-25.7698 8.7848,40.6959 -3.5345,73.9551 -40.0859,84.4668 2.6521,4.2763 6.7729,8.8466 11.8109,13.6003 l -20.5351,3e-4 -0.0447,-98.2462 c -4.2313,-7.5603 -11.3656,-13.3895 -20.9376,-20.043 -23.3852,-16.255 -29.5137,-48.4529 -20.9378,-75.8769 9.9042,1.0411 19.3246,9.3376 28.2747,24.6957 3.2738,-11.6155 7.4027,-20.8355 13.0638,-25.7695 -1.6662,-2.139 -5.1937,-6.2719 -10.2002,-11.99 -30.89,-15.5423 -41.1696,-48.1654 -32.2121,-82.3192 14.0304,3.8497 22.6559,14.2838 28.4539,25.0537 2.0957,-10.9562 6.7663,-20.2 14.2444,-28.4689 l 0.3257,-5.197 z"
         style="fill:#003e7c;fill-rule:evenodd"
         id="path42" />
      <g
         id="Layer1004">
        <path
           d="m 476.1334,411.0874 c 6.0458,-9.9281 12.3316,-17.4963 18.9823,-21.7981 -2.5175,16.3445 -11.7046,38.7093 -21.5932,56.6589 2.5265,-11.323 3.939,-22.9213 2.6109,-34.8608 z"
           style="fill:#ffe129;fill-rule:evenodd"
           id="path44" />
        <path
           d="m 476.259,314.5394 c 6.9253,-10.4225 13.2647,-17.5283 19.0403,-21.4379 -2.7096,17.1692 -10.8904,38.4282 -22.1796,57.5085 2.6016,-10.9809 4.0838,-22.9899 3.1393,-36.0706 z"
           style="fill:#ffe129;fill-rule:evenodd"
           id="path46" />
        <path
           d="m 475.3809,218.9494 c 6.3637,-10.4408 12.7275,-17.7732 19.0913,-21.715 -4.1718,21.6986 -12.4506,40.6219 -23.097,60.1846 3.3809,-12.2513 4.4756,-24.7504 4.0057,-38.4696 z"
           style="fill:#ffe129;fill-rule:evenodd"
           id="path48" />
        <path
           d="m 475.5713,127.8397 c 5.6977,-9.7192 11.8557,-16.562 18.4374,-20.7547 -3.7451,19.1248 -10.2416,38.1827 -21.3358,56.6957 2.7879,-11.9387 3.9422,-23.7688 2.8984,-35.941 z"
           style="fill:#ffe129;fill-rule:evenodd"
           id="path50" />
        <path
           d="m 456.2983,201.0036 v 62.9921 c -11.4355,-18.4108 -13.2378,-44.8611 0,-62.9921 z"
           style="fill:#ffe129;fill-rule:evenodd"
           id="path52" />
        <path
           d="m 418.8969,212.2778 c 8.0382,25.507 18.447,44.1658 30.7802,57.2655 -23.4561,-7.6478 -33.3955,-35.7108 -30.7802,-57.2655 z"
           style="fill:#ffe129;fill-rule:evenodd"
           id="path54" />
        <path
           d="m 420.3286,308.1977 c 8.0382,25.507 18.4471,44.1658 30.7803,57.2655 -23.4561,-7.6479 -33.3955,-35.7109 -30.7803,-57.2655 z"
           style="fill:#ffe129;fill-rule:evenodd"
           id="path56" />
        <path
           d="m 456.2983,297.6392 v 62.9921 c -11.4355,-18.4108 -13.2378,-44.8611 0,-62.9921 z"
           style="fill:#ffe129;fill-rule:evenodd"
           id="path58" />
      </g>
    </g>
  </g>
</svg>
