<?xml version="1.0" encoding="utf-8"?>
<!-- Generator: Adobe Illustrator 16.0.3, SVG Export Plug-In . SVG Version: 6.00 Build 0)  -->
<!DOCTYPE svg PUBLIC "-//W3C//DTD SVG 1.1//EN" "http://www.w3.org/Graphics/SVG/1.1/DTD/svg11.dtd">
<svg version="1.1" id="Capa_1" xmlns="http://www.w3.org/2000/svg" xmlns:xlink="http://www.w3.org/1999/xlink" x="0px" y="0px"
	 width="179.586px" height="280.977px" viewBox="0 0 179.586 280.977" enable-background="new 0 0 179.586 280.977"
	 xml:space="preserve">
<g>
	<path fill-rule="evenodd" clip-rule="evenodd" fill="#004784" d="M171.594,110.266c0,28.238,0,56.48,0,84.719
		c-0.145,23.816-20.277,35.027-41.047,40.922c-13.535,3.77-27.066,7.535-40.598,11.301c-13.535-3.766-27.07-7.531-40.601-11.301
		C28.59,230.45,8.449,219.114,8.301,194.989c0-28.242,0-56.48,0-84.719c0.051-19.258,0.101-38.52,0.152-57.781
		c29.52,16.386,52.871,14.277,81.508-8.594c27.574,22.883,51.363,24.937,81.395,8.496
		C171.438,71.684,171.516,90.973,171.594,110.266L171.594,110.266z M171.594,110.266"/>
	<path fill-rule="evenodd" clip-rule="evenodd" fill="#FFCB00" d="M166.695,110.278v84.64c0,20.121-17.305,30.659-37.48,36.277
		l-39.266,10.926L50.68,231.196c-19.809-5.516-37.481-16.324-37.481-36.277v-84.64l0.133-49.993
		C38.859,73.16,66.387,69.641,89.91,50.207c22.879,19.539,51.078,23.36,76.578,10.078L166.695,110.278z M168.328,110.274v84.668
		l-0.051,1.925l-0.156,1.896l-0.262,1.84l-0.355,1.789l-0.453,1.734l-0.547,1.684l-0.641,1.625l-0.723,1.578l-0.813,1.52
		L163.438,212l-0.969,1.418l-1.039,1.363l-1.113,1.313l-1.184,1.262l-1.242,1.215l-1.309,1.164l-1.363,1.121l-1.422,1.07
		l-1.473,1.026l-1.52,0.985l-1.57,0.941l-1.609,0.902l-1.656,0.859l-1.691,0.824l-1.73,0.785l-1.762,0.746l-1.793,0.711l-1.82,0.676
		l-1.848,0.645l-1.871,0.609l-1.891,0.582l-1.906,0.547l-39.707,11.051l-39.711-11.051l-1.871-0.539l-1.867-0.574l-1.848-0.605
		l-1.824-0.641l-1.808-0.676l-1.778-0.715l-1.754-0.746l-1.718-0.789l-1.688-0.824l-1.652-0.867l-1.61-0.902l-1.57-0.949
		l-1.523-0.988l-1.477-1.035l-1.426-1.078l-1.375-1.125l-1.312-1.168l-1.254-1.219l-1.192-1.27l-1.125-1.316l-1.05-1.367
		l-0.981-1.419l-0.902-1.468l-0.821-1.523l-0.738-1.574l-0.648-1.625l-0.555-1.676l-0.465-1.73l-0.363-1.785l-0.262-1.832
		l-0.16-1.883l-0.055-1.914v-84.668l0.141-52.586l4.707,2.277l2.359,1.039l2.364,0.946l2.375,0.851l2.375,0.758l2.383,0.664
		l2.386,0.57l2.391,0.477l2.391,0.383l2.394,0.289l2.391,0.199l2.394,0.105l2.391,0.012l2.387-0.078l2.386-0.172l2.379-0.266
		l2.375-0.355l2.367-0.449l2.364-0.543l2.355-0.633l2.344-0.727l2.332-0.816l2.324-0.91l2.313-1.004l2.3-1.094l2.282-1.187
		l2.273-1.282l2.25-1.375l2.238-1.464l2.219-1.559l2.195-1.652l3.235-2.59l3.164,2.617l2.148,1.66l2.176,1.571l2.195,1.476
		l2.223,1.383l2.246,1.293l2.266,1.203l2.285,1.105l2.301,1.016l2.32,0.926l2.332,0.828l2.348,0.738l2.359,0.645l2.371,0.551
		l2.383,0.457l2.387,0.363l2.398,0.273l2.402,0.176l2.406,0.082l2.406-0.012l2.414-0.105l2.41-0.203l2.414-0.297l2.406-0.391
		l2.406-0.488l2.402-0.586l2.398-0.68l2.387-0.777l2.379-0.875l2.371-0.973l2.359-1.07l4.723-2.351L168.328,110.274z
		 M168.328,110.274"/>
	<path fill-rule="evenodd" clip-rule="evenodd" fill="#FBC400" d="M146.199,86.539h5.535c0.031,0.887,0.051,1.457,0.051,1.719
		c0,1.402-0.211,2.496-0.629,3.285c-0.457,0.887-1.355,1.492-2.695,1.809c-1.34,0.324-3.656,0.48-6.949,0.48
		c-3.457,0-5.922-0.066-7.387-0.199c-1.469-0.133-2.578-0.391-3.32-0.773c-0.664-0.344-1.164-0.813-1.492-1.399
		c-0.324-0.586-0.539-1.383-0.641-2.406c-0.078-0.824-0.117-2.316-0.117-4.473c0-2.101,0.039-3.621,0.117-4.55
		c0.082-0.93,0.238-1.653,0.469-2.168c0.504-1.153,1.531-1.903,3.074-2.243c1.547-0.339,4.656-0.511,9.34-0.511
		c2.34,0,4.043,0.054,5.109,0.16c1.066,0.109,1.91,0.305,2.543,0.597c0.824,0.391,1.402,0.973,1.742,1.739
		c0.336,0.769,0.504,1.894,0.504,3.39c0,0.075-0.004,0.379-0.016,0.903h-5.531c-0.027-0.606-0.066-1.008-0.113-1.215
		c-0.047-0.203-0.148-0.371-0.297-0.508c-0.215-0.184-0.75-0.32-1.613-0.402c-0.859-0.086-2.164-0.129-3.91-0.129
		c-1.73,0-2.93,0.039-3.594,0.113c-0.668,0.078-1.137,0.223-1.41,0.445c-0.328,0.27-0.555,0.715-0.688,1.344
		c-0.125,0.633-0.191,1.637-0.191,3.012c0,1.371,0.063,2.344,0.176,2.906c0.113,0.567,0.332,0.969,0.664,1.219
		c0.309,0.242,0.805,0.398,1.48,0.48c0.684,0.078,1.883,0.118,3.602,0.118c2.117,0,3.535-0.036,4.238-0.102
		c0.703-0.074,1.18-0.227,1.43-0.469C146.008,88.403,146.18,87.676,146.199,86.539L146.199,86.539z M101.672,84.395h7.781
		c1.359-0.028,2.168-0.047,2.43-0.07c0.258-0.024,0.488-0.09,0.672-0.211c0.238-0.149,0.406-0.372,0.504-0.668
		c0.098-0.297,0.148-0.746,0.148-1.352c0-0.59-0.055-1.035-0.168-1.332c-0.109-0.289-0.301-0.504-0.578-0.633
		c-0.195-0.094-0.426-0.14-0.699-0.16c-0.27-0.019-1.043-0.031-2.32-0.043h-7.77V84.395z M96.133,93.551v-18.16h13.375
		c3.141,0.008,5.02,0.039,5.641,0.101c0.625,0.059,1.223,0.262,1.801,0.618c0.688,0.418,1.16,0.988,1.422,1.722
		c0.258,0.735,0.383,1.883,0.383,3.453c0,1.321-0.082,2.29-0.242,2.911c-0.164,0.625-0.473,1.117-0.93,1.488
		c-0.484,0.402-1.219,0.68-2.207,0.828c1.164,0.086,1.996,0.422,2.504,1c0.289,0.344,0.477,0.762,0.559,1.254
		c0.078,0.492,0.117,1.523,0.117,3.098v1.687h-5.453v-0.973c0-1.011-0.035-1.726-0.113-2.16c-0.078-0.429-0.215-0.761-0.418-0.996
		c-0.203-0.207-0.484-0.344-0.844-0.402c-0.359-0.059-1.113-0.086-2.258-0.086h-7.797v4.617H96.133z M77.367,86.5l-3.504-6.875
		h-1.101L69.258,86.5H77.367z M80.863,93.551l-1.558-3.074H67.293l-1.559,3.074h-6.32l9.633-18.16h8.598l9.5,18.16H80.863z
		 M45.473,86.539h5.535c0.031,0.887,0.051,1.457,0.051,1.719c0,1.402-0.211,2.496-0.629,3.285c-0.457,0.887-1.356,1.492-2.696,1.809
		c-1.339,0.324-3.656,0.48-6.949,0.48c-3.457,0-5.922-0.066-7.387-0.199c-1.468-0.133-2.578-0.391-3.32-0.773
		c-0.664-0.344-1.164-0.813-1.492-1.399c-0.324-0.586-0.539-1.383-0.641-2.406c-0.074-0.824-0.117-2.316-0.117-4.473
		c0-2.101,0.043-3.621,0.117-4.55c0.082-0.93,0.239-1.653,0.469-2.168c0.504-1.153,1.531-1.903,3.074-2.243
		c1.547-0.339,4.657-0.511,9.34-0.511c2.34,0,4.043,0.054,5.11,0.16c1.066,0.109,1.91,0.305,2.542,0.597
		c0.825,0.391,1.403,0.973,1.743,1.739c0.336,0.769,0.504,1.894,0.504,3.39c0,0.075-0.004,0.379-0.016,0.903H45.18
		c-0.024-0.606-0.067-1.008-0.114-1.215c-0.046-0.203-0.148-0.371-0.296-0.508c-0.215-0.184-0.75-0.32-1.614-0.402
		c-0.859-0.086-2.164-0.129-3.91-0.129c-1.73,0-2.93,0.039-3.594,0.113c-0.668,0.078-1.132,0.223-1.41,0.445
		c-0.328,0.27-0.554,0.715-0.687,1.344c-0.125,0.633-0.192,1.637-0.192,3.012c0,1.371,0.063,2.344,0.176,2.906
		c0.113,0.567,0.332,0.969,0.664,1.219c0.309,0.242,0.805,0.398,1.485,0.48c0.679,0.078,1.878,0.118,3.597,0.118
		c2.117,0,3.535-0.036,4.238-0.102c0.704-0.074,1.18-0.227,1.43-0.469C45.281,88.403,45.453,87.676,45.473,86.539L45.473,86.539z
		 M45.473,86.539"/>
	<path fill-rule="evenodd" clip-rule="evenodd" fill="#FBC400" d="M123.926,245.833l6.992,9.629l11.742-3.703l-7.383,9.703
		l7.016,9.66l-11.555-3.691l-7.348,9.652l0.203-11.938l-11.617-3.711l11.746-3.703L123.926,245.833z M123.926,245.833"/>
	<path fill-rule="evenodd" clip-rule="evenodd" fill="#004784" d="M124.934,249.028l5.574,7.675l9.281-2.925l-5.836,7.668
		l5.574,7.676l-9.184-2.934l-5.836,7.672l0.164-9.484l-9.18-2.934l9.281-2.93L124.934,249.028z M124.934,249.028"/>
	<path fill-rule="evenodd" clip-rule="evenodd" fill="#FBC400" d="M55.66,245.063l-6.992,9.629l-11.742-3.703l7.383,9.703
		l-7.012,9.66l11.555-3.692l7.343,9.653l-0.203-11.938l11.617-3.711l-11.742-3.703L55.66,245.063z M55.66,245.063"/>
	<path fill-rule="evenodd" clip-rule="evenodd" fill="#004784" d="M54.652,248.258l-5.574,7.676l-9.281-2.926l5.84,7.668
		l-5.575,7.676l9.18-2.934l5.836,7.672l-0.164-9.484l9.184-2.934l-9.282-2.931L54.652,248.258z M54.652,248.258"/>
	<path fill-rule="evenodd" clip-rule="evenodd" fill="#FBC400" d="M155.902,232.262l9.02,7.762l10.578-6.301l-4.961,11.144
		l9.047,7.79l-12.094-0.941l-4.931,11.082l-2.542-11.664l-12.16-0.941l10.578-6.305L155.902,232.262z M155.902,232.262"/>
	<path fill-rule="evenodd" clip-rule="evenodd" fill="#004784" d="M157.617,235.141l7.188,6.187l8.363-4.979l-3.918,8.809
		l7.188,6.188l-9.609-0.746l-3.918,8.805l-2.023-9.266l-9.609-0.75l8.363-4.98L157.617,235.141z M157.617,235.141"/>
	<path fill-rule="evenodd" clip-rule="evenodd" fill="#FBC400" d="M23.684,231.492l-9.016,7.763L4.09,232.953l4.957,11.146
		L0,251.887l12.094-0.941l4.933,11.082l2.543-11.664l12.16-0.941l-10.582-6.306L23.684,231.492z M23.684,231.492"/>
	<path fill-rule="evenodd" clip-rule="evenodd" fill="#004784" d="M21.969,234.372l-7.188,6.188l-8.359-4.981l3.918,8.81
		l-7.188,6.188l9.61-0.747l3.918,8.806l2.019-9.267l9.61-0.75l-8.36-4.979L21.969,234.372z M21.969,234.372"/>
	<path fill-rule="evenodd" clip-rule="evenodd" fill="#FBC400" d="M90.004,251.333l3.773,11.284h12.313l-9.961,7.036l3.785,11.324
		l-9.91-7l-9.91,7l3.785-11.324l-9.961-7.036H86.23L90.004,251.333z M90.004,251.333"/>
	<path fill-rule="evenodd" clip-rule="evenodd" fill="#004784" d="M90.004,254.684l3.008,8.996h9.73l-7.871,5.559l3.008,8.996
		l-7.875-5.559l-7.871,5.559l3.008-8.996l-7.875-5.559h9.73L90.004,254.684z M90.004,254.684"/>
	<path fill-rule="evenodd" clip-rule="evenodd" fill="#004784" d="M90.062,0l5.556,16.614h18.129L99.078,26.969l5.574,16.668
		L90.062,33.336L75.477,43.637l5.57-16.668L66.379,16.614h18.129L90.062,0z M90.062,0"/>
	<path fill-rule="evenodd" clip-rule="evenodd" fill="#FBC400" d="M90.062,4.934l4.427,13.246h14.328l-11.59,8.184l4.426,13.242
		l-11.591-8.184l-11.588,8.184l4.429-13.242l-11.59-8.184h14.325L90.062,4.934z M90.062,4.934"/>
	<path fill-rule="evenodd" clip-rule="evenodd" fill="#FBC400" d="M15.766,100.426h15.293V219.27
		c-9.625-6.192-15.778-15.07-14.875-29.082L15.766,100.426z M164.008,100.485l-15.504-0.012v118.992
		c9.746-6.195,15.996-15.102,15.086-29.215L164.008,100.485z M131.727,100.461l-16.777-0.015V231.77
		c5.711-1.434,11.402-2.945,16.777-4.735V100.461z M98.172,100.43l-8.395-0.004h-8.382v135.492c2.98,0.828,5.843,1.629,8.496,2.605
		c2.652-0.887,5.429-1.703,8.281-2.484V100.43z M47.836,100.426h16.777v131.23c-5.711-1.441-11.406-2.957-16.777-4.754V100.426z
		 M47.836,100.426"/>
</g>
</svg>
