<?xml version="1.0" encoding="UTF-8" standalone="no"?>
<!-- Created with Inkscape (http://www.inkscape.org/) -->

<svg
   xmlns:dc="http://purl.org/dc/elements/1.1/"
   xmlns:cc="http://creativecommons.org/ns#"
   xmlns:rdf="http://www.w3.org/1999/02/22-rdf-syntax-ns#"
   xmlns:svg="http://www.w3.org/2000/svg"
   xmlns="http://www.w3.org/2000/svg"
   xmlns:sodipodi="http://sodipodi.sourceforge.net/DTD/sodipodi-0.dtd"
   xmlns:inkscape="http://www.inkscape.org/namespaces/inkscape"
   width="1000"
   height="1000"
   viewBox="0 0 264.58333 264.58334"
   version="1.1"
   id="svg8"
   inkscape:version="0.92.4 (5da689c313, 2019-01-14)"
   sodipodi:docname="R.svg">
  <defs
     id="defs2" />
  <sodipodi:namedview
     id="base"
     pagecolor="#ffffff"
     bordercolor="#666666"
     borderopacity="1.0"
     inkscape:pageopacity="0.82352941"
     inkscape:pageshadow="2"
     inkscape:zoom="0.35"
     inkscape:cx="1128.6995"
     inkscape:cy="676.06354"
     inkscape:document-units="px"
     inkscape:current-layer="layer1"
     showgrid="false"
     units="px"
     inkscape:window-width="1920"
     inkscape:window-height="1017"
     inkscape:window-x="1912"
     inkscape:window-y="-8"
     inkscape:window-maximized="1"
     inkscape:pagecheckerboard="true"
     fit-margin-top="0"
     fit-margin-left="0"
     fit-margin-right="0"
     fit-margin-bottom="0" />
  <metadata
     id="metadata5">
    <rdf:RDF>
      <cc:Work
         rdf:about="">
        <dc:format>image/svg+xml</dc:format>
        <dc:type
           rdf:resource="http://purl.org/dc/dcmitype/StillImage" />
        <dc:title></dc:title>
      </cc:Work>
    </rdf:RDF>
  </metadata>
  <g
     inkscape:label="Layer 1"
     inkscape:groupmode="layer"
     id="layer1"
     transform="translate(195.4856,185.82986)">
    <g
       transform="matrix(0.23198483,0,0,0.23196449,-201.24346,-191.6916)"
       id="g6350"
       style="fill:#0032a0;fill-opacity:1;stroke:none">
      <path
         d="M 595.08,50.48 C 294.05,50.48 50,294.5 50,595.53 c 0,301.03 244,545.05 545.05,545.05 301.05,0 545.05,-244 545.05,-545 0,-301 -244,-544.9999 -545.05,-544.9999 M 1165.31,595.63 c 0,315 -255.32,570.26 -570.26,570.26 -314.94,0 -570.23,-255.41 -570.23,-570.36 0,-314.95 255.31,-570.26 570.26,-570.26 314.95,0 570.26,255.32 570.26,570.26"
         id="path6348"
         inkscape:connector-curvature="0"
         style="vector-effect:none;fill-rule:nonzero" />
    </g>
    <g
       transform="matrix(0.23198483,0,0,0.23196449,-201.24346,-191.6916)"
       id="g6356"
       style="fill:#0032a0;fill-opacity:1;stroke:none">
      <path
         d="m 293.91,379.36 c -27.46,32 -51.23,86.81 -55.65,115.86 -0.169,1.77 1.005,3.39 2.74,3.78 20.05,5.55 76.79,19.75 100.3,22.8 1.794,0.243 3.478,-0.917 3.89,-2.68 9.17,-42.27 26.31,-77.71 37.23,-95.39 0.565,-0.921 0.678,-2.049 0.308,-3.064 -0.37,-1.015 -1.183,-1.805 -2.208,-2.146 C 331.93,402.5 306,384.36 298.36,379 c -1.353,-1.027 -3.258,-0.89 -4.45,0.32 m 301.53,-59.95 c 106.78,0 183.21,69.85 195.5,82.15 1.153,1.154 2.85,1.577 4.41,1.1 10.646,-3.258 21.11,-7.08 31.35,-11.45 1.334,-0.526 2.326,-1.67 2.659,-3.065 0.332,-1.394 -0.037,-2.863 -0.989,-3.935 C 810.14,363.27 731.1,281 595.59,281 h -0.69 c -135.51,0 -214.53,82.24 -232.78,103.18 -0.948,1.073 -1.314,2.541 -0.982,3.933 0.333,1.393 1.322,2.537 2.652,3.067 10.247,4.369 20.718,8.191 31.37,11.45 1.557,0.473 3.249,0.051 4.4,-1.1 12.3,-12.3 88.71,-82.15 195.49,-82.15 l 0.39,-0.01"
         id="path6354"
         inkscape:connector-curvature="0"
         style="vector-effect:none;fill-rule:nonzero" />
    </g>
    <g
       transform="matrix(0.23198483,0,0,0.23196449,-201.24346,-191.6916)"
       id="g6362"
       style="fill:#0032a0;fill-opacity:1;stroke:none">
      <path
         d="m 595.63,853.6 c 103.46,0 179.57,-71.38 190.25,-87 0,0 48.38,-65.62 48.38,-170.58 0,-104.96 -48.38,-170 -48.38,-170 -8.6,-13.93 -86.79,-87 -190.25,-87 h -0.76 c -103.46,0 -181.66,73 -190.25,87 0,0 -48.38,65 -48.38,170 0,105 48.38,170.58 48.38,170.58 10.69,15.59 86.79,87 190.25,87 h 0.76"
         id="path6360"
         inkscape:connector-curvature="0"
         style="vector-effect:none;fill-rule:nonzero" />
    </g>
    <g
       transform="matrix(0.23198483,0,0,0.23196449,-201.24346,-191.6916)"
       id="g6368"
       style="fill:#0032a0;fill-opacity:1;stroke:none">
      <path
         d="m 595.63,261.29 c 152.67,0 238.41,98.1 253.12,116.28 1.33,1.625 3.616,2.096 5.48,1.13 8.459,-4.389 16.653,-9.271 24.54,-14.62 1.017,-0.66 1.71,-1.717 1.912,-2.912 0.201,-1.196 -0.108,-2.421 -0.852,-3.378 C 858.1,332.24 765,223.6 595.29,223.6 h -0.08 c -170.86,0 -264.67,109.19 -284.54,134.19 -0.735,0.96 -1.039,2.183 -0.838,3.376 0.201,1.192 0.888,2.248 1.898,2.914 7.887,5.349 16.081,10.231 24.54,14.62 1.861,0.965 4.144,0.494 5.47,-1.13 14.72,-18.18 100.46,-116.28 253.13,-116.28 h 0.76"
         id="path6366"
         inkscape:connector-curvature="0"
         style="vector-effect:none;fill-rule:nonzero" />
    </g>
    <g
       transform="matrix(0.23198483,0,0,0.23196449,-201.24346,-191.6916)"
       id="g6374"
       style="fill:#ff0000;fill-opacity:1;stroke:none">
      <path
         d="m 565.42,413.2 c 0,0 -6.07,0.57 -7.14,-7.81 0,0 11.65,-4.67 23.84,-2.53 0,0 -12.67,3.39 -16.7,10.34 M 532,445.9 c -26.7,8.55 -30.82,-10.55 -24.79,-16.61 -3.81,0.46 -13,6.38 -8.38,16.93 10.24,19 44.85,-9 55,7 l 9.67,5.78 -8.21,-2.45 c -5.79,-1.21 -14.13,-2.95 -21.37,-0.61 l -4.65,-3.5 c -0.47,2.005 -0.688,4.061 -0.65,6.12 h 0.07 c -10.4,9.15 1.68,18.74 1.68,18.74 -1.028,-3.334 -0.231,-6.964 2.1,-9.56 0,0 -2.56,12.22 10.4,19.72 0,0 -7.54,-16.49 3,-18.26 4,-0.65 5.71,2.28 11.1,4.32 9,3.26 13.69,-4.12 13.79,3.66 0.09,5.94 -1.47,8.41 -6.62,14.12 -3.59,4 -9.15,7.44 -15.25,10.34 -10.9,4.47 -25.39,8.75 -29.72,-4 0,0 -10.87,8.66 -3.29,15 0,0 -26,-14.46 -30.32,-18.82 -4.32,-4.36 -2.67,-13.32 -10.38,-15.39 0,0 -0.39,-12.37 -6,-17.67 0,0 5.33,-26.07 -14.45,-27.32 0,0 4.9,7 1.29,11.13 -3.61,4.13 -1.29,7.25 1.75,14.08 0,0 -6.3,-4.37 -7.8,-10.42 -1.5,-6.05 -2.53,-9.91 -8.87,-9.8 0,0 -9.18,-10.14 -18.72,2.15 0,0 9,-2.24 9.22,5.48 0.22,7.72 9,16.92 12.82,19.73 0,0 -16.17,-7.08 -25.18,-1.29 0,0 -11.27,-1.64 -12.46,11.64 0.61,-0.46 9,-6.71 11.46,-2.68 2.46,4.03 4.27,5.13 10.61,5.65 6.34,0.52 15.24,6 16.41,13.43 0,0 -18.05,-3.25 -19.52,6 -3.079,2.268 -7.215,2.481 -10.51,0.54 0,0 3.66,17.81 41.34,7.76 0,0 26.41,7.62 -1.11,17.06 0,0 24.32,0.83 40.37,26.19 9,-1 56.24,-34.56 56.24,-34.56 0,0 -24.79,35 -60.25,45.71 -43.53,13.15 -64.93,-14 -75.23,-3.74 0,0 -15.61,0.79 -16.19,13.45 0,0 8.87,-7.2 11.45,-2.36 2.94,5.47 16.73,4.81 23.85,4.11 0,0 -22.8,4.16 -23.7,14 0,0 -12.74,8.08 -7.57,19.24 0,0 4.08,-7.68 10.42,-7.63 6.34,0.05 11,-0.67 19.7,-9.1 0,0 -16.43,23.34 -6,35 0.733,-5.351 5.053,-9.493 10.43,-10 7.84,-1.08 -0.16,-16.23 19.75,-14.51 0,0 0.25,7.88 -3.2,13.88 0,0 4.91,4.21 -6.27,9.67 0,0 14.94,4.05 23,-12.15 2.52,-5.08 8.29,-30.69 27.4,-6.88 0,0 6.46,-17.93 32.68,-21.92 23.14,-3.53 7.69,17.93 -2.25,23.26 0,0 51.27,-4.38 57.3,77.92 0,0 -3.34,-34.55 -25.61,-53.63 -16.43,-14.07 -46.11,-19.71 -77.2,3 0,0 18.78,-0.55 12.68,17.41 -6.53,19.24 26.49,40.67 7,46.12 -23.09,6.48 -43.18,-48.38 -61.26,-25.84 0,0 10.69,-2.22 16,6.64 0,0 -18.68,-11.19 -27.25,9.21 0.47,-0.15 13.61,-7.26 23.72,5.12 0,0 -25,-12.9 -31.49,14 0,0 8.11,-7.85 15.77,-2 4.1,3.14 11.75,-3.69 19.6,3.81 0,0 -25,-5.91 -26.58,19.1 0,0 9.2,-9.83 23.8,-0.58 C 473.41,736.5 484.3,724 484.3,724 l -4.9,14.09 c 0,0 22,-11.55 36.36,-7.35 18.5,5.42 27.26,4.44 29,-11.31 9,-5.19 15.52,7.31 15.52,7.31 2.1,-17.76 -11.42,-19.1 -15.12,-21.39 -6,-3.69 13.94,-10.13 13.94,-10.13 -4.737,-1.49 -9.305,-3.471 -13.63,-5.91 -18.89,-10.79 -6.71,-28.34 11.89,-16.59 18.6,11.75 28.57,19.86 28.57,19.86 -6,5 -11.51,20.6 -5.18,33.65 0,0 5.18,-19.39 12.86,-3.84 l 0.05,-0.07 c 8,13.67 19.34,23.82 46.34,37.89 15.07,7.85 -9.66,30.19 -37.31,15.19 -22.31,-12.08 -28.35,8.57 -28.35,8.57 0,0 9.58,-7 16.39,-2.17 0,0 -20.08,-1.1 -22,22.68 0.77,-0.46 4.4,-8.15 10.56,-6.4 0,0 7.83,-12.45 17.35,-5.88 0,0 -19,-2.26 -21.13,30.33 0,0 6.74,-11.53 14.76,-10.7 0,0 5,-17 18.8,-8.09 0,0 -16.94,-7.71 -17.69,26.89 0,0 6.44,-11.83 13.52,-9.47 6.28,2.12 27.92,9.63 51.12,-14.31 h 12 c 0,0 3.17,-21.21 13.75,-28.4 1.478,-0.94 3.094,-1.641 4.79,-2.08 1.357,-0.288 2.751,-0.359 4.13,-0.21 4.92,0.86 6.95,5.66 6.95,5.66 0,0 2.75,-11.14 -7.37,-24.38 14.15,-8.42 13.47,-21.73 13.47,-21.73 -11.88,11.54 -31.33,7.76 -40.57,3.84 -9.72,-4.39 -20.73,-13.36 -8.85,-29.73 17.39,-24 14.36,-45.27 14.64,-50.65 0,0 7.25,11.69 5,26.23 0,0 19.72,17.68 54.84,9.59 18.54,-4.55 26.86,20.35 12.65,30.17 -14,9.7 -25.32,-5.27 -25.32,-5.27 7.36,19.36 37,21.09 47.14,0.54 9.74,-19.81 -6.54,-36.85 -12.73,-40.3 17.2,-21.6 20.4,-51.23 -7.45,-97 l -3.84,-6.32 c -8.37,-16.3 12.84,-29.3 24.49,-17.68 11.21,11.16 -0.53,24 -0.53,24 18.2,-10.4 13,-40 -7.47,-45.73 -17.21,-4.84 -28.82,5.22 -32.88,12 -6.41,-11.15 -11.07,-20.21 -13.93,-28 -3.57,-11.84 12,-17.23 17.74,-8.11 5.39,8.63 -3.82,14.93 -3.82,14.93 12.9,-3.86 13.93,-23.14 2,-29.72 -5.702,-3.368 -12.77,-3.429 -18.53,-0.16 0.867,-5.393 3.175,-10.451 6.68,-14.64 3,-3.65 5.54,-4.77 8,-3.52 8.38,4.37 15.76,5.44 21.94,3.2 4.691,-1.747 8.517,-5.251 10.67,-9.77 l 0.67,-1.58 -1.39,1 c -3.87,2.81 -7.84,3.63 -11.78,2.46 -1.458,-0.436 -2.834,-1.112 -4.07,-2 8.65,-1.54 15.09,-5.56 19.17,-12 4.91,-7.68 5.43,-17.46 5,-24.3 -0.267,-4.435 -0.971,-8.833 -2.1,-13.13 l -0.4,-1.4 -0.49,1.37 c -4.65,12.87 -12.4,15.66 -21.37,18.89 -1.94,0.7 -3.93,1.41 -5.93,2.24 3.328,-4.49 4.34,-10.288 2.73,-15.64 -0.806,-3.319 -2.661,-6.289 -5.29,-8.47 0,0 2.16,9 -7.9,18.44 -3.005,2.617 -5.712,5.558 -8.07,8.77 -3.141,4.526 -4.146,10.2 -2.75,15.53 -2.206,1.474 -4.336,3.059 -6.38,4.75 0,0 -24,17.82 -13.17,56.57 6,21.5 19.3,40.08 30.79,59.32 -10.27,-0.12 -24.81,4.24 -33.22,20.76 -11.22,22.1 6.28,50.83 30.61,47 0,0 -25,-4.36 -19.63,-26.78 4.56,-18.89 33.13,-22.18 41.33,1.28 14.47,41.4 -34.94,68.35 -74.05,16.71 -22.07,-29.14 -63.16,-53.83 -42,-82.39 14.43,22.21 42,9.77 42,9.77 -31.21,-17.45 -14.48,-50.66 -14.48,-50.66 l 14.15,11.09 c 13.44,-41.48 -9.43,-64.74 -9,-64.76 13,-0.38 21.3,14.95 21.3,14.95 C 688.54,446.37 660,435 660,435 c 17,-15.32 30.09,2.06 30.09,2.06 1.92,-29.68 -28.2,-38.95 -28.2,-38.95 l 15.89,-4.92 C 649.13,360.07 614,382.9 614,382.9 c 7,-10.12 2.39,-18.44 2.39,-18.44 0,0 -4.11,11.12 -26.43,12.83 -19.94,1.52 -22.11,14.6 -22.11,14.6 11.35,-4.15 20.1,-1.4 20.1,-1.4 0,0 -22.23,3.72 -29.29,7.86 -8.25,4.82 -5.75,7.14 -15.68,9.39 -10.88,2.46 -18.44,4.63 -19.54,5.61 -1.43,1.25 -1.83,2.77 -0.3,8.54 l 11.45,-5 c 0,0 -4.13,10.91 -12.83,8.47 0,0 -4.79,11.56 3.42,13.43 0.61,1.91 2,5.32 4.21,5.72 -0.478,-2.201 0.346,-4.482 2.12,-5.87 -0.06,0 4.79,0.56 12.21,-2.29 8.77,-3.38 30.29,-11.63 22.79,14 0,0 -7.13,-13.2 -34.47,-4.43"
         id="path6372"
         inkscape:connector-curvature="0"
         style="vector-effect:none;fill-rule:nonzero" />
    </g>
    <g
       transform="matrix(0.23198483,0,0,0.23196449,-201.24346,-191.6916)"
       id="g6380"
       style="fill:#0032a0;fill-opacity:1;stroke:none">
      <path
         d="m 651.56,894.39 c -1.449,0.257 -2.874,0.635 -4.26,1.13 0.12,0.91 0.27,1.83 0.45,2.74 l 6.77,33.29 c 0.18,0.9 0.4,1.81 0.64,2.69 1.916,-0.095 3.822,-0.339 5.7,-0.73 5.63,-1.13 18.77,-5.25 15.17,-23 -3.16,-15.5 -13.52,-18 -24.47,-16.14 m -52.06,9.76 c -0.38,1.28 -0.77,2.47 -1.08,3.34 l -6.34,18.34 15.42,-0.15 -6.85,-18.2 c -0.33,-0.88 -0.73,-2.07 -1.15,-3.33"
         id="path6378"
         inkscape:connector-curvature="0"
         style="vector-effect:none;fill-rule:nonzero" />
    </g>
    <g
       transform="matrix(0.23198483,0,0,0.23196449,-201.24346,-191.6916)"
       id="g6386"
       style="fill:#0032a0;fill-opacity:1;stroke:none">
      <path
         d="m 724.13,922.29 c -0.371,-3.366 -1.28,-6.651 -2.69,-9.73 l -3.8,-8.64 -22.3,-17.44 c -5.24,-4 -7.65,-5.28 -9.6,-6.17 l 13.82,-6.07 c 0.72,1.42 2.13,3.25 5.36,5.84 l 9.79,7.58 c 2.14,1.78 4.17,3.44 5.75,4.89 0,-1.62 0.07,-3.49 0.17,-5.77 l 1.06,-14.23 c 0.28,-4.31 0,-6.26 -0.68,-7.72 l 11,-4.85 c -1.177,4.109 -1.928,8.328 -2.24,12.59 l -2.38,26 4.18,9.52 c 1.31,3.124 3.113,6.018 5.34,8.57 l -12.78,5.63 m -62.4,18.79 c -5.814,1.154 -11.686,1.996 -17.59,2.52 0.69,-2.93 0.17,-6.52 -0.58,-10.13 l -6.67,-32.85 c -0.72,-3.56 -1.69,-7 -3.4,-9.48 3.08,-0.62 10.9,-3.18 18.06,-4.63 18.16,-3.69 31.94,3.26 35.41,20.35 3.81,18.73 -5.85,30.28 -25.23,34.22 m -48.17,5.5 c -0.007,-3.174 -0.597,-6.319 -1.74,-9.28 l -1.39,-3.81 -21,0.21 -1.24,3.66 c -1.128,3.032 -1.687,6.245 -1.65,9.48 l -13,0.12 c 2.13,-2.88 4,-6.55 6.16,-12.29 l 11.4,-30.39 c 2.39,-6.46 2.91,-9.31 2.26,-11.38 l 10,-0.09 c 1.31,0.005 2.491,0.792 3,2 l 16.4,39.51 c 1.45,3.5 4.13,9.27 6.14,12.11 l -15.34,0.15 m -50.75,-44.53 c -3.93,-2.35 -6.29,-3.3 -12.17,-4.41 l -9.94,-1.89 c -0.15,0.64 -0.3,1.28 -0.42,1.92 l -2,10.81 15.67,3 c 0.523,0.115 0.863,0.622 0.77,1.15 l -1.53,8.09 c -2.46,-1.34 -5.24,-2.36 -11.28,-3.51 l -5.09,-1 -2.82,14.84 c -0.12,0.64 -0.23,1.3 -0.32,1.94 l 8.93,1.7 c 7.27,1.36 11.69,1.08 15.47,0.34 l -3.53,10.09 -21,-4 -4.83,-0.92 -9,-1.7 c 1.607,-2.965 2.715,-6.175 3.28,-9.5 l 6.31,-33.38 c 0.682,-3.288 0.828,-6.665 0.43,-10 l 34.92,6.61 -1.85,9.82 M 507,898.85 c -3.42,6.74 -10.83,8.17 -16.71,7.38 1.09,11.92 5.17,24.3 10.2,26.34 -2.923,2.086 -6.74,2.445 -10,0.94 -3.41,-1.55 -6.73,-5.3 -8.54,-10.72 -2.473,-7.895 -3.523,-16.167 -3.1,-24.43 0.031,-0.314 0.207,-0.595 0.477,-0.758 0.27,-0.164 0.601,-0.19 0.893,-0.072 5.36,2.21 12.32,3.51 15.36,-3.22 2.78,-6.13 0.13,-11.13 -5.86,-14 -1.624,-0.809 -3.36,-1.372 -5.15,-1.67 -0.45,0.82 -0.87,1.65 -1.25,2.51 l -14,31 c -1.454,3.056 -2.4,6.329 -2.8,9.69 l -12.77,-5.78 c 2.255,-2.52 4.088,-5.386 5.43,-8.49 l 14,-31 c 1.429,-3.012 2.354,-6.238 2.74,-9.55 6,2.41 10.21,3.57 16,6.2 10.85,4.9 21,13.78 15,25.6 m 367.56,-72.27 c -30,-18.76 -54.8,-27.26 -78.36,-35.1 -2.66,-0.9 -5.601,-0.223 -7.6,1.75 -15.92,15.91 -89.59,80.1 -192.94,80.1 h -0.88 c -103.36,0 -177,-64.19 -192.93,-80.1 -2.008,-1.972 -4.953,-2.649 -7.62,-1.75 -23.54,7.84 -48.31,16.34 -78.35,35.1 -1.812,1.122 -3.064,2.959 -3.445,5.055 -0.381,2.097 0.144,4.257 1.445,5.945 21.72,27.91 117,130 281.18,130 h 0.25 c 164.23,0 259.47,-102 281.18,-130 1.304,-1.687 1.831,-3.848 1.45,-5.945 -0.382,-2.098 -1.635,-3.935 -3.45,-5.055 M 275.58,334.59 c -19.41,1.78 -40.75,-1.61 -52.07,-5 -0.651,-0.205 -1.162,-0.713 -1.373,-1.362 -0.21,-0.649 -0.094,-1.36 0.313,-1.908 6.88,-10.26 12.92,-24 0.36,-33.55 -11.39,-8.61 -23.14,-5.58 -31.67,5.7 -2.356,3.08 -4.324,6.439 -5.86,10 1.47,1.33 3.17,2.62 4.74,3.81 19.253,14.54 38.497,29.113 57.73,43.72 6.16,4.66 12.89,8.53 18.72,10.27 -5.86,8.073 -11.613,16.213 -17.26,24.42 -4.213,-5.873 -9.31,-11.057 -15.11,-15.37 -19.24,-14.593 -38.487,-29.177 -57.74,-43.75 -5.6,-4.341 -11.855,-7.764 -18.53,-10.14 7.45,-11.67 11.61,-20.06 19.68,-31.06 14.92,-20.43 38.88,-36.9 60.58,-18.79 12.41,10.22 11.7,26.78 7,38.27 25.41,3.59 53.43,1.74 60.48,-7.93 3.11,7.29 1.33,14.6 -3.21,20.23 -5.08,6.25 -14.48,11.28 -26.79,12.47 m 83.34,-117.41 c -11.24,-8.26 -22.443,-16.467 -33.61,-24.62 -1.54,-1.13 -3.69,-2.86 -5.83,-4.58 0.79,2.65 1.43,5.38 1.89,7.26 3.387,13.387 6.823,26.84 10.31,40.36 8.873,-6.46 17.953,-12.6 27.24,-18.42 m -38.11,50.4 c -5.473,-23.193 -10.807,-46.193 -16,-69 -3.39,-14.58 -5.82,-20.28 -9.36,-23.21 5.787,-4.173 11.67,-8.203 17.65,-12.09 2.415,-1.532 5.519,-1.441 7.84,0.23 25.287,17.333 50.8,35.06 76.54,53.18 6.86,4.68 18.77,12.49 26,15.65 -9.88,4.887 -19.54,10.097 -28.98,15.63 -3.775,-5.701 -8.512,-10.702 -14,-14.78 l -7,-5.16 c -12.833,7.8 -25.277,16.203 -37.33,25.21 0.72,2.66 1.45,5.34 2.18,8 2.62,10.15 5.64,15.28 8.18,19.09 -7.333,5.62 -14.49,11.463 -21.47,17.53 0.13,-8.08 -1.07,-17.29 -4.24,-30.33 M 443.8,200.75 c -5.86,-23.41 -12,-47.11 -18,-70.46 -1.94,-7.46 -4.84,-14.56 -8.35,-19.32 7.2,-2.72 14.457,-5.28 21.77,-7.68 2.021,-0.679 4.243,-0.368 6,0.84 20.86,16.5 42,34.21 62.92,52.44 2.78,2.28 8.36,7.05 11.74,10.45 -1,-3 -2.48,-8.43 -3.11,-11.16 -3.72,-15.85 -7.23,-31.2 -11,-47 -1.631,-7.061 -4.386,-13.8137 -8.16,-20 8.08,-1.6533 16.197,-3.11 24.35,-4.37 -0.85,6 -0.07,13.67 1.7,21.22 5.52,23.65 10.76,46.8 16.14,70.51 1.74,7.75 4.44,15.19 7.83,20.54 -7.507,1.067 -14.993,2.317 -22.46,3.75 -1.3,0.245 -2.64,-0.124 -3.63,-1 -22,-19.79 -44.34,-38.92 -66.37,-56.73 -2.81,-2.22 -7.66,-5.66 -10.27,-8.41 1.09,2.23 3,9.18 3.74,12 4,16 8.23,32.43 12.18,48.5 1.88,7.66 4.66,14.87 7.91,19.87 -7.64,2.413 -15.207,5.013 -22.7,7.8 0.64,-6.33 -0.28,-14.16 -2.19,-21.81 M 575,133.61 c 4.73,-38.75 37.47,-58.1 70.23,-53.75 17,2.22 29,9 33.94,13.72 -0.927,7.713 -1.867,15.417 -2.82,23.11 C 672.1,110.9 657.78,99.16 640.67,97 c -26.74,-3.37 -38.63,15.54 -41,34.93 -3.26,26.62 11.49,45.26 34.65,48.19 7.047,0.78 14.178,0.099 20.95,-2 1.04,-8.573 2.087,-17.15 3.14,-25.73 -1.15,-0.15 -2.28,-0.31 -3.42,-0.48 -9.94,-1.37 -16.25,-1.19 -23,0 0.667,-5.82 1.377,-11.633 2.13,-17.44 0.03,-0.548 0.283,-1.059 0.701,-1.415 0.418,-0.355 0.964,-0.523 1.509,-0.465 15.047,1.913 30.09,4.027 45.13,6.34 -2.607,21.253 -5.207,42.513 -7.8,63.78 -4,-2.267 -8.04,-4.523 -12.12,-6.77 -1.465,-0.732 -3.144,-0.909 -4.73,-0.5 -9.688,2.068 -19.649,2.541 -29.49,1.4 -29.19,-3.66 -57,-24.57 -52.3,-63.15 m 147.64,58.78 c 9.18,-22.34 18.367,-44.673 27.56,-67 2.93,-7.14 4.94,-14.6 5.25,-20.52 24.054,7.776 47.487,17.357 70.1,28.66 -2.713,6.58 -5.42,13.163 -8.12,19.75 -7,-7.11 -11.32,-10.49 -23.06,-15.64 -6.593,-2.86 -13.24,-5.573 -19.94,-8.14 -0.665,1.261 -1.256,2.56 -1.77,3.89 l -8.95,21.74 c 10.6,4.047 21.053,8.457 31.36,13.23 1.059,0.443 1.583,1.641 1.19,2.72 -2.233,5.42 -4.46,10.837 -6.68,16.25 -4.54,-4.08 -9.83,-7.66 -22,-12.66 -3.41,-1.39 -6.82,-2.74 -10.26,-4.05 -4.08,9.933 -8.163,19.86 -12.25,29.78 -0.53,1.32 -1.07,2.63 -1.62,4 6.087,2.32 12.133,4.763 18.14,7.33 14.5,6.24 23.53,8 31.57,8.75 -3.873,6.42 -7.753,12.84 -11.64,19.26 -22.535,-11.215 -45.881,-20.721 -69.84,-28.44 4.06,-4.72 7.93,-11.55 10.94,-18.84 m 144.86,92.8 c -1.42,-19.43 2.39,-40.71 6,-52 0.22,-0.648 0.738,-1.15 1.393,-1.348 0.655,-0.199 1.365,-0.069 1.907,0.348 10.11,7.07 23.75,13.38 33.52,1 8.84,-11.22 6,-23 -5.08,-31.77 -3.026,-2.419 -6.337,-4.458 -9.86,-6.07 -1.34,1.45 -2.67,3.12 -3.89,4.67 l -44.87,56.89 c -4.79,6.06 -8.78,12.71 -10.64,18.51 -7.947,-6 -15.973,-11.9 -24.08,-17.7 5.952,-4.108 11.235,-9.11 15.66,-14.83 l 44.91,-56.84 c 4.449,-5.524 8.003,-11.713 10.53,-18.34 11.52,7.67 19.82,12 30.66,20.27 20.13,15.33 36.14,39.6 17.63,61 -10.46,12.2 -27,11.16 -38.41,6.25 -4.08,25.33 -2.77,53.38 6.77,60.63 -7.35,3 -14.61,1 -20.15,-3.62 -6.16,-5.18 -11,-14.69 -12,-27 m 43.77,48.92 20,-13.86 c -2.36,13 1,29.93 7.79,39.78 6.08,8.78 13.66,9.92 20.15,5.42 19.43,-13.48 -15.6,-52.76 15,-74 18.1,-12.53 38.87,-2.75 52.25,16.55 6.74,9.72 10.21,19.91 10.87,25.46 l -19,13.19 c 0.7,-8.48 -0.59,-22.17 -7.34,-31.89 -5.7,-8.23 -13,-10.75 -19.39,-6.34 -17.68,12.25 17.44,51.67 -15,74.13 -18.37,12.73 -38.83,5.13 -52.86,-15.12 -8.71,-12.55 -12.43,-26.57 -12.5,-33.31 M 123.14,725.34 181,706 c 6.18,-2.07 12.07,-4.92 16.09,-8.16 l 20.25,60.61 -17.05,5.7 c 0.18,-8.23 -0.32,-12.72 -3.74,-23 l -5.77,-17.31 -3.43,1.16 -18.76,6.27 9.08,27.16 c 0.165,0.428 0.153,0.905 -0.035,1.323 -0.188,0.419 -0.535,0.746 -0.965,0.907 l -14,4.69 c -0.09,-5.08 -1,-10.31 -4.48,-20.82 l -2.93,-8.78 -25.72,8.59 c -6.3,2.09 -12.2,4.95 -16.22,8.18 l -8,-24 c 5.16,0.18 11.59,-1.1 17.88,-3.2 m 96.4,138.35 c 18.12,-11.18 24.48,-31.18 14.25,-47.77 -9.58,-15.55 -27.77,-18.16 -43.9,-8.22 -17.77,11 -24.51,30.87 -14,48 9.36,15.18 27.85,17.77 43.64,8 m -43.44,-71.52 c 25.43,-15.67 55.3,-8.08 71.7,18.52 15.82,25.68 10,53.45 -14.71,68.68 -25.43,15.69 -54.76,8.41 -71.31,-18.43 -15.75,-25.56 -10.4,-53.53 14.32,-68.77 m 125.67,159.55 c 14.63,-15.48 15.61,-36.45 1.44,-49.84 -13.26,-12.55 -31.5,-10.39 -44.53,3.39 -14.34,15.16 -15.71,36.15 -1.14,49.93 13,12.25 31.49,10 44.23,-3.48 M 241.4,893.8 c 20.52,-21.7 51.34,-22.07 74,-0.59 21.9,20.71 23.47,49 3.51,70.15 -20.52,21.7 -50.75,22.25 -73.65,0.58 -21.8,-20.63 -23.87,-49 -3.91,-70.14 m 99.25,119.06 30.73,-52.7 c 0.62,-1.07 1.07,-2.1 1.7,-3.17 l -6.34,-3.69 c -9.68,-5.65 -15,-7.17 -21.72,-8.35 l 9.03,-15.53 69.78,40.7 -9.06,15.53 c -4.28,-5 -8.28,-9.15 -18,-14.79 l -6.32,-3.69 c -0.708,0.959 -1.356,1.961 -1.94,3 l -30.73,52.68 c -3.35,5.74 -5.91,11.77 -6.78,16.86 l -21.75,-12.68 c 4.495,-4.12 8.318,-8.91 11.33,-14.21 m 136.47,46.4 c 3.55,-11.93 -5.93,-19.8 -19.34,-24.24 -0.3,-0.05 -0.559,-0.24 -0.703,-0.51 -0.144,-0.27 -0.158,-0.59 -0.037,-0.87 l 2.74,-9.14 c 0.076,-0.28 0.266,-0.53 0.525,-0.67 0.26,-0.14 0.565,-0.16 0.845,-0.07 10.19,2.6 18.12,-1.24 21,-10.78 2.57,-8.61 -2.74,-16 -13.34,-19.14 -1.891,-0.591 -3.872,-0.838 -5.85,-0.73 l -22.3,74.76 c 2.684,1.49 5.507,2.72 8.43,3.66 12.42,3.85 24.38,0.06 28.06,-12.27 m -60.83,11.3 c 3.55,-4.14 5.81,-10.25 7.7,-16.61 l 17.17,-57.53 c 1.86,-6.22 3.19,-12.61 2.62,-18 11.25,2.93 18.63,3.83 26.19,6.09 20.41,6.08 37.4,15.92 31.63,35.27 -3.34,11.13 -13.32,15.09 -22.88,14.25 10.29,4.22 22.91,15.63 18.43,30.62 -7.59,25.44 -34.05,21.72 -48.5,17.42 -10.982,-3.27 -21.783,-7.12 -32.36,-11.53 m 160.28,-6.33 -9.92,-33.49 c -0.45,-1.55 -1,-3.79 -1.55,-6 -0.84,2.17 -1.8,4.33 -2.46,5.8 l -13.67,32 27.6,1.69 m -51.1,12.54 24.43,-52.9 c 5.17,-11.33 6.45,-16.37 5.58,-20.17 l 18,1.15 c 2.387,0.17 4.429,1.78 5.15,4.06 l 24.18,72.92 c 2.22,6.39 6.25,17.18 9.51,22.5 l -27.6,-1.75 c 0.377,-5.69 -0.243,-11.41 -1.83,-16.89 l -2.06,-6.92 -37.83,-2.41 -2.62,6.35 c -3.42,8 -4,12.9 -4.25,16.77 L 512.8,1098 c 4.18,-4.87 8.07,-11.27 12.58,-21.24 m 115.62,6 -9,-60.33 c -0.823,-5.99 -2.585,-11.82 -5.22,-17.26 l 24.9,-3.69 c -1.06,5 -0.94,11.61 0,18 l 9,60.33 c 0.152,1.18 0.369,2.36 0.65,3.52 l 14.38,-2.12 c 13.13,-2 20.49,-5.14 26.55,-8.56 l -0.09,19.17 -61.17,9.11 c 0.942,-6.02 0.942,-12.15 0,-18.17 m 94.16,-18.23 -20.61,-57.4 c -1.988,-5.71 -4.856,-11.082 -8.5,-15.91 l 23.68,-8.5 c 0,5.15 1.37,11.55 3.57,17.68 l 20.61,57.4 c 0.378,1.14 0.826,2.25 1.34,3.33 l 13.66,-4.91 c 12.51,-4.48 19.1,-9 24.37,-13.58 l 3.67,18.81 -58.19,20.89 c -0.251,-6.09 -1.466,-12.1 -3.6,-17.81 m 87.07,-66.69 c -17.57,-25.52 -11.78,-54.69 14.19,-72.57 9.1,-6.28 18.23,-9.37 24.67,-9.77 l 11.13,16.17 c -9.36,-0.93 -21,1 -30,7.21 -14.48,10 -16.43,28.09 -5.13,44.51 12,17.42 31.61,22.72 48,11.43 9.69,-6.67 13.85,-15.75 15.79,-26.82 l 11.22,16.3 c -2.89,7 -10.6,17 -22,24.88 -25.28,17.41 -51.44,12.59 -67.92,-11.34 M 932.49,950 888.1,908.12 c -4.36,-4.195 -9.351,-7.68 -14.79,-10.33 l 17.26,-18.32 c 2.29,4.63 6.46,9.69 11.19,14.16 l 44.4,41.83 c 0.857,0.837 1.759,1.628 2.7,2.37 l 10,-10.57 c 9.11,-9.67 12.92,-16.73 15.57,-23.17 l 11.78,15.12 -42.39,45 c -3.007,-5.302 -6.831,-10.097 -11.33,-14.21 m 39.61,-77.57 -32.78,-20.09 c -5.54,-3.39 -11.52,-6.08 -16.58,-7.08 l 13.14,-21.46 c 3.981,4.552 8.651,8.453 13.84,11.56 l 31.73,19.44 c 11.78,7.23 26.08,13.56 35.91,-2.49 9.83,-16.05 -1.28,-27.54 -13.09,-34.77 L 972.56,798.1 C 967,794.71 961,792 956,791 l 10.77,-17.57 c 4.01,4.524 8.707,8.388 13.92,11.45 l 32.74,20.12 c 17.81,10.91 32.05,27.9 15.21,55.38 -16.05,26.17 -37.09,24 -56.54,12.06 m 83.78,-148.07 c -11.83,-3.84 -19.94,5.46 -24.67,18.75 -0.06,0.302 -0.25,0.56 -0.52,0.701 -0.28,0.14 -0.6,0.147 -0.88,0.019 l -9.08,-3 c -0.28,-0.085 -0.51,-0.279 -0.65,-0.54 -0.13,-0.26 -0.15,-0.563 -0.06,-0.84 2.84,-10.14 -0.81,-18.16 -10.29,-21.23 -8.55,-2.76 -16,2.37 -19.43,12.89 -0.639,1.879 -0.937,3.856 -0.88,5.84 l 74.22,24 c 1.55,-2.648 2.85,-5.437 3.87,-8.33 4.13,-12.34 0.62,-24.38 -11.63,-28.34 m 9.89,61.06 c -4.07,-3.63 -10.11,-6 -16.43,-8.08 l -57.11,-18.5 c -6.17,-2 -12.54,-3.48 -17.91,-3.05 3.18,-11.17 4.27,-18.53 6.69,-26 6.57,-20.27 16.79,-37 36,-30.79 11,3.57 14.76,13.65 13.71,23.2 4.46,-10.19 16.17,-22.53 31,-17.72 25.26,8.18 20.93,34.56 16.28,48.9 -3.53,10.898 -7.62,21.602 -12.27,32.07 M 293.85,812.9 c -27.46,-32 -51.22,-86.81 -55.64,-115.86 -0.186,-1.778 0.987,-3.415 2.73,-3.81 20.05,-5.55 76.79,-19.75 100.31,-22.8 1.791,-0.243 3.473,0.919 3.88,2.68 9.17,42.27 26.31,77.71 37.24,95.39 0.564,0.922 0.677,2.052 0.304,3.067 -0.372,1.015 -1.187,1.804 -2.214,2.143 -48.59,16 -74.48,34.19 -82.16,39.51 -1.354,1.022 -3.256,0.885 -4.45,-0.32 M 340,545.74 c 0.322,-2.223 -1.209,-4.291 -3.43,-4.63 -36.28,-6.11 -73.5,-16 -100,-22.78 -1.915,-0.515 -3.907,0.518 -4.59,2.38 -2.798,9.58 -4.769,19.383 -5.89,29.3 -5.4,41.48 -2.66,94.49 5.83,121.54 0.687,1.859 2.675,2.89 4.59,2.38 26.49,-6.75 63.71,-16.67 100,-22.78 2.219,-0.345 3.751,-2.406 3.44,-4.63 -2.53,-17.5 -3.28,-39.09 -3.28,-50.38 h 0.06 c 0,-11.27 0.74,-32.87 3.27,-50.39 M 896.38,379.36 c 27.45,32 51.22,86.81 55.64,115.86 0.185,1.781 -0.992,3.419 -2.74,3.81 -20,5.55 -76.79,19.75 -100.3,22.8 -1.794,0.243 -3.478,-0.917 -3.89,-2.68 -9.16,-42.27 -26.31,-77.71 -37.23,-95.39 -0.565,-0.921 -0.678,-2.049 -0.308,-3.064 0.37,-1.015 1.183,-1.805 2.208,-2.146 48.59,-16.05 74.49,-34.19 82.17,-39.51 1.354,-1.022 3.256,-0.885 4.45,0.32 m 0.05,433.54 c 27.46,-32 51.23,-86.81 55.65,-115.86 0.185,-1.781 -0.992,-3.419 -2.74,-3.81 -20.05,-5.55 -76.79,-19.75 -100.3,-22.8 -1.795,-0.248 -3.483,0.914 -3.89,2.68 -9.17,42.27 -26.31,77.71 -37.23,95.39 -0.565,0.921 -0.678,2.049 -0.308,3.064 0.37,1.015 1.183,1.805 2.208,2.146 48.59,16 74.49,34.19 82.16,39.51 1.353,1.027 3.258,0.89 4.45,-0.32 M 850.32,545.74 c -0.322,-2.227 1.215,-4.296 3.44,-4.63 36.28,-6.11 73.5,-16 100,-22.78 1.913,-0.514 3.901,0.519 4.58,2.38 2.803,9.579 4.774,19.382 5.89,29.3 5.41,41.48 2.67,94.49 -5.83,121.54 -0.679,1.861 -2.667,2.894 -4.58,2.38 -26.49,-6.75 -63.71,-16.67 -100,-22.78 -2.225,-0.334 -3.762,-2.403 -3.44,-4.63 2.53,-17.5 3.27,-39.09 3.27,-50.38 h -0.06 c 0,-11.27 -0.74,-32.87 -3.27,-50.39"
         id="path6384"
         inkscape:connector-curvature="0"
         style="vector-effect:none;fill-rule:nonzero" />
    </g>
  </g>
</svg>
