<?xml version="1.0" encoding="utf-8"?>
<!-- Generator: Adobe Illustrator 23.0.3, SVG Export Plug-In . SVG Version: 6.00 Build 0)  -->
<svg version="1.1" id="Layer_1" xmlns="http://www.w3.org/2000/svg" xmlns:xlink="http://www.w3.org/1999/xlink" x="0px" y="0px"
	 viewBox="0 0 429.8 566.9" style="enable-background:new 0 0 429.8 566.9;" xml:space="preserve">
<style type="text/css">
	.st0{fill-rule:evenodd;clip-rule:evenodd;fill:#5CA94E;}
	.st1{fill-rule:evenodd;clip-rule:evenodd;fill:#FBDE1D;}
	.st2{fill-rule:evenodd;clip-rule:evenodd;}
	.st3{fill-rule:evenodd;clip-rule:evenodd;fill:#A79F9F;}
	.st4{fill-rule:evenodd;clip-rule:evenodd;fill:#FFFFFF;}
</style>
<g>
	<g>
		<path class="st0" d="M8.8,348.6c6-1.2,12.1-1.8,18.8-1.2c16.9,1.6,30.2,2,38.1-2.9c0.5-6-0.2-14.5,1.6-21.3
			c2.4-8.7,7.7-14.9,1.8-20.4C73.5,298,88,291.6,79.7,279c10.6-5.8,15.1-13.1,10.8-22.4c10.4-2.6,15.8-8,14-17.4
			c11.3-1.4,19.6-5,19.3-14.5c11.2,0.1,16.7-4.3,17.6-12.3c9.3,0.6,15-2.3,16.9-10.1c9.5,1.3,17.5,1.3,18.6-4.6
			c9.6,3,17.9,4.5,20.7-1c13.2,3.2,20.8,2.6,21.7-2.7c13.5,6.8,26.7,13.2,31.1,5.3c10.9,6.9,22.2,11.2,34.3,10.4
			c12.5,9.2,21.7,19.6,32.5,29.4c18.1,17.8,26,18.5,37.1,29.3c7.2,7,11.9,19.8,17.7,28.6c19.7,29.8,32.3,32.3,46.7,42.4
			c3.3,2.3,6.9,5.5,10.5,9L428.6,9.3c-5.3-0.8-18.8-4.2-24.1-2c-1.2,0.5-2.2,1.2-2.4,2.5c-0.3,1.5,0.8,3.6,0.1,6.1
			c-3.3-1-6.7-2.6-11.4-4.8c-4.4-2.1-10-3.6-14.3-4.6c-3.4-0.8-8.8,0.5-9.7,2.5c-1.1,2.3,1.4,6,0.5,9.2c-6.2,0.2-13.3-0.9-19.2-1.7
			c-6.2-0.8-12.2-1.7-17.7-3.2c-7.4-2-13.8-5.4-19.9-8.1c-3.2-1.4-6.4-2.6-9.3-3.5c-3.9-1.2-9.4-1-12.2,0.4c-1.6,0.8-1.5,3.4-1,6.4
			c-8.3-4.4-14.7-6.1-21.8-7.4c-7.2-1.3-15.5,0.8-15.7,4.4c0.5,2.2,0.7,4.3,0.4,6.5c-6.2-2.1-12.4-4.9-20.8-6.7
			c-10-2.1-21.8-1.5-22.3,1.8c-0.1,0.8,0.2,1.9,1.2,3.3l0.3,4.8c-10.6-3.8-27.4-10.7-39.4-8.1c-4.6,1-8.6,2.8-8.3,5.3
			c0.1,1,1.3,1.8,2.7,2.4l0.2,7.7c-10.7-0.6-27.6-4-37.3-0.8c-6.6,2.2-10.7,5.5-5.4,9.4l0.3,6.6c-2.9,0.3-9.1,0.5-14.1,1.6
			c-9,2.1-17.6,5.2-21.7,8.8c-2.6,2.3-3.8,4.7-0.6,7.8l3,4.6c-10.7,3.9-22.8,4.5-30.3,11c-6.9,5.9-11.8,13.2-5.8,15.9l4.4,6.1
			c-4.2,2.8-9.1,7.9-13.8,12.9c-8.6,9.3-15.7,20.6-11.8,29l6.6,6.1c-7.4,10-27.5,29-21,38.4l6.5,3.3c-4.9,7.4-20,26.9-14.3,38
			l10.2,4.9c-8.7,11.5-21.5,31.9-14.3,40.8l9.8,4c-4.5,8.1-12.6,20-13.7,28.8c-0.4,3.4-0.2,6.3,2.4,8.5l10.6,0.1
			C8.7,321,7,334.5,8.8,348.6L8.8,348.6z"/>
		<path class="st1" d="M287.9,136.1c-8.6,3.9-20.3,0.6-33.1-9.7l-0.2,4.2c-3.7,5.7-16.7,3-33.9-3.5l-0.6,9.3
			c-6.8,2.3-15.7,2.3-28.9-3.1l0.2,4.8c-2.1,6.4-13.7,6.1-28.2,3.1l-0.8-0.5l1.8,6.7c-2.2,5.9-9.4,8.2-23.2,7.8l-1.2,0l3.1,8.4
			c-5,8.6-15.8,9.5-24.4,6.9l3.2,6c-3,9.7-10.2,13.8-24.8,13.8l-1.6,0.1l7,8.8c-0.6,8.7-8.1,14.3-18.7,17.5l-2.5,0.7l3.3,3.4
			c1.1,11.3-9,17.3-14.3,21.2l-2.1,0.9c0.2,1,7.2,4.1,7.3,5c0.4,3.9,0,7.1-1.5,9.4c-2.8,4.3-10.4,9.3-14.4,13.7
			c0.4,1.1,3.4,0.8,3.6,1.9c2.1,10.6-5.4,21.3-14.6,27.4l7.5,0.8c2.9,7.6-3.3,15.3-6.5,27.1c-1.6,6-1.5,15.1-0.4,20.3
			c-5.3,0-9.2-0.8-13.5-1.1c-4.5-0.3-8.8-0.4-12.6-0.4c-1-3.8-0.9-13.4,0.9-18.1c4.7-12.2,11-20.6,9.3-30.9l-9.2-1.2
			c-0.5-8.3,5.8-17,10.1-23.6c2.2-3.4,3.8-7,3.8-10.5l-6.4-2.8c-0.8-13.8,7.6-15,12.7-23c1.2-2,2.1-4.6,2.4-6.9l-10-6.9l0.3-2.4
			c1.2-5.1,4.3-9.2,7.8-13.1c3.8-4.2,10.3-9.7,11.2-14.3l-5.8-5.2c1.1-4.8,4.1-9.3,9.6-13.5c4.4-3.4,9.8-8,11.3-13.1l-1.8-2.9
			c4.3-15.9,10.7-14.6,21-22.9c2.8-2.3,4.3-5.5,4.9-9.1l-3.5-5.8c7.9-9.9,13.4-7,21.3-10.1c4.1-1.7,6.9-4.2,7.5-7.7l-3.1-7.3
			c3.6-2.5,8.7-4.9,12.4-5.6c6.8-1.1,14.2,1.3,18.5-4.2l-1.7-5.9c2.3-2.7,7.1-4,10.9-4.6c7.2-1,11.9,2.5,18.2,2.8
			c2.9,0.1,5.8-0.5,8.8-2.6l-1-11.1c7-3.3,13.6,4.4,23.7,6.2c5.1,0.9,10.3,1.5,13.7,0.5l0.5-3.1c2.4-2.2,7-3.1,10.8-2.9
			c9,0.4,17.6,9.2,25.6,6.5l0.2-5.5c3.7-2.7,7.8-2.7,12.1-1.5c7.2,2,14.9,11.4,22.1,8.8l0.5-4.1c9.2-3.1,14.7,2.6,22.2,6.8
			c2.1,1.2,4.4,0.2,6.5,1.2l50.8-3.9c11.5-2.3,24.3,0.4,39,10.4l0.2-9.6c4.9-2.1,14.1,2,17.4,5.5l0,88.4
			c-7.6-11-15.6-19.6-23.9-24.1l-91.8-4.6c-9.6-2.5-15.5-7.6-25.1-7.5L287.9,136.1L287.9,136.1z"/>
		<path class="st2" d="M8,350c-2.5-13.8-0.9-27,5.1-41c-3.4-0.3-4.1,0-8.8-0.1c-3.3-0.1-4.1-2.4-4.2-3.6c-1-9.9,4.7-21.8,13.7-34.3
			c-3.4-1.3-6-2-8.6-3c-5.1-1.8-3.5-12.4,0.8-22.7c3.2-7.7,9.6-15.1,12.1-18.9c-2.7-1.8-4.5-2.5-7.3-3.4
			c-11.6-3.7,5.1-32.8,11.7-39.6c-1.9-1.1-4.6-1.7-6.2-3.2c-1.3-1.2-1.7-2.9-1.6-4.2c0.9-9.8,15.8-27.7,21.9-34.3l-4.4-3.8
			c-11.3-9.8,12.4-37.1,23.8-44.8c-0.7-1.2-1.9-3-4.3-4.7c-2.3-1.6-2.9-3.1-2.5-5C50.5,76,57.8,69.4,66,65.8c6-2.7,15.3-3.4,21-5.6
			c-1.1-2.4-1.8-3.9-3.4-5.1c-1.9-1.4-1.8-3.9-0.3-5.4c3.5-3.7,7.6-6.4,13.8-8.5c7-2.5,12.9-3.8,24-4.4c0.7-5-2.2-5.4-2.9-7.8
			c-0.5-1.9,0.1-4.2,3.1-6.1c4.5-2.7,11.5-3.4,16.3-3.5c7-0.2,14.2,1.2,21.3,1.8c1.5,0.1,3.1,0.3,4.6,0.4c0.8-7.7-4.1-5.6-3.1-10.3
			c1-5,11.6-5.2,14.4-5.3c16.1-0.2,25.8,6.4,33.2,8.4c0.3-2.8-1.2-3.3-1.6-5.6c-0.4-2.2,1.8-4,4.6-4.6c9.5-1.9,20.9-0.1,29.9,3.4
			c3,1.2,5.5,2.4,9.2,3.6c0-0.5,0.2-1.1-0.1-2.4c-0.2-1-0.7-1.9-0.8-2.6l-0.1-0.3l0,0c-0.1-1.4,0.6-2.6,2.4-3.6
			c4-2.1,10.9-2.4,15.3-1.8c3.3,0.5,6.1,1.1,8.9,2c3.2,1.1,8.7,4.1,11.1,5c-1.5-5.9,2.2-7.9,9.8-7.1c13.2,1.4,21.2,9.5,34.9,12.8
			c13.3,3.2,26.3,3.9,34.6,4.3c0-2.7-0.1-2.7-0.7-4.3c-2.4-6.3,4-9.4,13.5-7.1c10.5,2.5,17,7.3,22.6,8.9c0.2-0.8,0.1-2-0.1-2.7
			c-0.3-1.2-0.5-1.9-0.4-3c0.1-1.2,1.2-2.2,3.3-2.9c2-0.7,5.1-0.6,7.6-0.4c7.5,0.5,14.3,1.8,17.1,2.5l0.6,342.9
			c-11.1-13.4-22-16-33.7-24.9c-35.6-31.1-28.6-52.3-54.3-66.5c-19.2-10.7-39.3-36.3-57.3-49.3c-9.9-0.2-23.4-1.7-33.5-10.3
			c-0.7,1-1.5,1.7-2.4,2.3c-7.9,4.8-19.2-1.8-29-7.7c-0.3,1.1-0.8,1.9-1.6,2.6c-4.2,3.8-12.2,2.4-19.7,0.2l-0.6-0.1
			c-0.3,1-1,1.7-1.6,2.1c-4.8,3.2-11.5,1.5-18.9-1c-2.2,8.1-18.7,3.9-18.8,4.5c0.2,0.9-0.2,2.3-0.6,3.1c-2.8,5.9-9.6,7.2-16.4,7
			c-0.2,9.3-9.3,12.1-17.1,12.3c0.2,0.8,0.1,1.3,0,1.9c-1.7,9.1-11,11.4-19.1,12.2c2.6,9.5-7.3,16.3-14,17.5
			c1.5,2.9,1.8,5.8,1.4,8.3c-1,6-6.5,10.1-12.4,13.5c1.7,1.4,2.4,3.1,2.6,4.6c0.3,2.1,0.1,4.2-0.7,6.2c-1.8,4.8-7.1,9.2-12.6,13.3
			c2.5,1.6,3.1,3.7,2.7,6.5c-0.5,3.3-2.5,7.8-4.4,13.8c-2.1,6.7-2.1,16-1.9,21.7C47.8,355.2,28.3,343.7,8,350L8,350z M376.5,15.6
			L376.5,15.6L369,154.3l-1.7-0.1l7.4-135.4c-0.5,0.2-1.1,0.3-1.8,0.4c-1.3,0.1-2.7,0.1-4,0c-1.1,0-2.3-0.1-3.4-0.2
			c-11.5-0.6-22.9-1.6-34.1-4.3c-4.5-1.1-8.7-2.8-12.8-4.7c-4-1.9-7.9-4-12.1-5.6c-3.2-1.2-6.3-2-9.7-2.4c-2.3-0.3-5.5-0.6-7.5,1
			c-0.3,0.3-0.6,0.7-0.6,1.2c0,0.6,0.6,0.8,1.2,1.1c1,0.4,2,0.6,3.1,0.8c1.3,0.2,2.4,0.3,3.5,1.1c1.6,1.2,1,2.6,0.9,4.4l-13,197.5
			l1,0l2.1,1.6c8.9,6.9,16.8,14.8,24.8,22.6c7.2,7,14.9,15.5,23.5,20.7c7.9,5.6,15.6,9.3,21.9,17c5,6.7,8.7,14.2,12.8,21.5
			c4.5,7.8,9.6,14.9,15.6,21.7c5.5,5.9,10.8,10.1,16.5,14.1l10.7-309.1c-1,0.3-1.9,0.2-2.9,0.1c-1.8-0.3-3.5-0.8-5.2-1.3
			c-4-1.3-7.6-2.8-11.4-4.6c-4.5-2.2-9-4.1-13.8-5.4c-2.3-0.6-4.6-0.9-7-0.9c-1.5,0.1-2.7,0.3-4,0.9c-0.9,0.6-1.5,1.1-1.8,2.2
			c0,0.6,0.3,1,0.9,1.3c1.2,0.7,2.5,0.8,3.9,0.9c1.1,0.1,2,0,2.9,0.5C375.8,13.4,376.5,14.3,376.5,15.6L376.5,15.6z M414.8,16.9
			L414.8,16.9L404,329.4c3.5,2.4,7.2,4.6,11.1,7.1c4.7,3,8.9,6.3,12.8,10.3l0.2,0.2L427.6,9.9c-5.1-1.1-10.3-1.7-15.6-2.2
			c-1.3-0.1-2.6-0.2-3.8-0.1c-1.5,0.1-2.8,0.2-4.2,0.9c-0.5,0.3-1,0.6-1,1.2c0.1,1.1,1.3,1.5,2.2,1.9c1.3,0.5,2.6,0.9,3.9,1.3
			c1.4,0.4,2.8,0.8,4.1,1.4c1.1,0.7,1.6,1.2,1.8,2.5L414.8,16.9L414.8,16.9z M65.7,303.5l-47.3-6.1c0.1,0.6,0.1,1.3-0.1,2.1
			c-0.9,4.6-3.6,9.5-5.3,14.2c-4,11-5.5,22.1-3.7,34.2c4.5-1.2,9.1-1.6,13.7-1.5c8,0.1,15.8,1.4,23.8,1.5c6.2,0,12.1-0.8,17.7-3.6
			c-0.2-5.7-0.1-11.4,1-17c0.9-4.8,2.8-9.3,4.3-13.9c0.7-2,1.8-4.7,0.8-6.7c-0.3-0.7-0.9-1.3-1.5-1.8
			C68.1,303.9,67,303.6,65.7,303.5L65.7,303.5z M79,280.2L23.8,258l0,0.2c0,0.9-0.3,1.7-0.7,2.5c-1.9,3.6-4.7,6.8-7.1,10l0,0
			c-4.7,6.6-9.1,13.5-12,21.1c-1.2,3.2-2,6.3-2.2,9.7c-0.1,1.4-0.1,3.4,0.4,4.4c0.5,1,1.6,1.1,2.6,1.1c2-0.4,3.1-2.2,4.1-4.1
			c0.7-1.2,1.3-2.4,2-3.6c0.7-1.1,1.4-2.1,2.5-2.9c0.5-0.4,1-0.7,1.5-0.9c1-0.3,1.6-0.3,2.7-0.2l48.4,6.2c0.9,0.1,1.7,0.3,2.6,0.5
			c3-2.4,6-4.6,8.6-7.5c1.7-1.8,3.2-3.8,4-6.2c0.5-1.6,0.7-3.2,0.4-4.9C81.1,282.2,80,280.6,79,280.2L79,280.2z M86.9,256.1
			l-62.6-39.7c0,0.3,0,0.7,0,1c-0.5,4.2-4.4,9-7.6,13.8c-0.4,0.6-0.9,1.2-1.3,1.8c-1.6,2.2-3.2,4.5-4.6,6.8
			c-1.4,2.3-2.6,4.6-3.6,7.1c-1.5,3.7-2.7,7.5-3.2,11.5c-0.3,2.3-0.5,5.1,0.8,7.1c0.3,0.3,0.7,0.7,1.1,0.9c0.2,0.1,0.5,0.1,0.7,0.2
			c0.9,0.1,1.6,0,2.4-0.4c1.1-0.5,1.9-1.3,2.7-2.2c1.6-2,2.9-4.2,4.6-6c1.4-1.6,3.2-2.9,5.1-2.5c0.6,0.1,1.2,0.4,1.8,0.6l55.6,22.3
			l0.3-0.1c3.1-1.9,6.2-3.8,8.7-6.4c1.9-2,3.2-4.2,3.5-7c0.1-0.9,0.1-1.8,0-2.6C90.6,258.6,89.7,257.9,86.9,256.1L86.9,256.1z
			 M99.8,236.3l-67.9-64.3c-0.2,0.8-0.4,1.5-0.7,2.2c-0.8,1.8-2.6,3.9-3.7,5.4c-2.4,3.3-5.1,6.3-7.4,9.6c-1.5,2.1-2.8,4.2-4.2,6.6
			c-1.7,3-3.2,6.1-4.6,9.3c-1.4,3.6-2.7,7.3-2.9,11.2c0.1,1.7,0.2,3.2,1.4,4.3c1.7,0.7,4.5-3.2,5.5-4.3c0.9-0.9,1.8-1.8,2.8-2.5
			c0.3-0.2,0.7-0.4,1-0.5c2.2-0.7,3.4,0,3.9,0.3l67,42.5c5.2-1.2,9.6-3.2,12.6-7.7c0.9-1.4,1.4-2.6,1.6-3.9
			C104.6,240,102.7,239,99.8,236.3L99.8,236.3z M121.8,224l-75.9-92.1c-0.1,0.4-0.2,0.9-0.4,1.4c-0.8,1.7-1.9,3.2-3.1,4.6
			c-2.3,2.5-4.7,4.9-6.9,7.5c-2.4,2.7-4.7,5.5-6.9,8.4c-3.5,4.6-6.7,9.2-9.4,14.3c-1.1,2.3-2.1,4.6-2.7,7.1
			c-0.2,1.3-0.1,2.3,0.6,3.4l0.1,0.1l0-0.1c1.1,0.7,3-1.7,3.6-2.4c0.9-1.3,2.6-3.3,3.4-4.6c0.9-1.3,1.8-2.3,3.1-3.2
			c1.3-0.5,2.7-0.4,3.5,0.1c0.5,0.4,0.8,0.7,1.2,1.2l72.4,68.5c4.7-0.5,9.4-1.2,13.6-3.7c2.5-1.7,4-3.6,4.8-6.5
			C123.2,226,123.2,225.7,121.8,224L121.8,224z M138.7,210L70.3,82.5c-0.4,1-0.9,1.8-1.6,2.7c-0.7,0.8-1.5,1.6-2.3,2.3l-0.7,0.6
			c-1.2,1-2.4,1.8-3.7,2.7c-3.8,2.6-7.6,5.2-11,8.3c-4.8,4.5-9.2,9.4-13,14.8c-2.5,3.6-4.6,7.2-6.1,11.3c-0.9,2.6-1.5,5.1-0.9,7.8
			c0,0.2,0.1,0.4,0.1,0.6c0.7,1.1,1.6,0.8,2.7,0c1-0.9,1.6-1.9,2.3-3.1c0.8-1.3,1.6-2.3,2.7-3.1c1.1-0.6,2.1-0.8,3.3-0.6
			c1,0.3,1.6,0.6,2.4,1.3c0.1,0.1,0.2,0.3,0.3,0.4l0.1-0.1l79,95.7c3.5-0.2,6.7-0.5,9.9-1.8c3-1.5,4.8-3.4,5.7-6
			C140.6,213.5,140,212.3,138.7,210L138.7,210z M156.6,201.8L100.6,54.7c-0.3,0.4-0.6,0.7-1,1.1c-1,1-1.7,1.5-2.9,2.1
			c-1.4,0.8-2.9,1.5-4.4,2.1c-2.4,1-4.9,1.8-7.4,2.5c-2.5,0.7-5.1,1.3-7.8,1.9c-3.5,0.7-7,1.4-10.3,2.9c-3,1.3-5.7,2.9-8.2,5
			c-3.4,2.8-6.1,5.8-7.4,10c-0.5,1.7-0.6,2.5,0.4,3.6c0.4,0.2,0.7,0.1,1.2,0c0.9-0.3,1.6-0.8,2.4-1.3c1.7-1.3,3.1-2.7,4.5-4.3
			c1-1.2,1.8-2.1,3.1-2.9c1.3-0.6,2.5-1,3.8-1c1.6,0,3.2,0.8,3.9,2.4l71.2,132.7c3.2,0,6.2-0.2,9.3-1.2c2.7-1.1,4.3-2.5,5.7-5
			C157.2,203.8,157.3,203.6,156.6,201.8L156.6,201.8z M175.7,194.9L133.5,35c-0.2,0.2-0.5,0.5-0.8,0.8c-1.8,1.1-3.6,1.5-5.7,1.9
			c-1.8,0.3-3.3,0.4-5.1,0.5c-2,0.2-4.3,0.4-6.3,0.6c-3.7,0.4-7.4,0.9-11,1.8c-3.1,0.8-6.1,1.7-9.1,2.9c-2.8,1.1-5.3,2.5-7.6,4.3
			c-1.3,1-2.7,2-3.6,3.4c-0.7,1.1-0.2,1.9,0.6,2.7l0,0c1.2,1.1,2,0.9,3.3,0.1c1.1-0.7,2.1-1.6,3.1-2.4c2.1-1.6,4.5-3.2,7.3-2.4
			c1.8,0.5,2.2,1.7,2.8,3.2l56.8,149.2c2,0.2,4,0.4,5.9,0.6c2,0.1,4.1,0.2,6.1,0c1.9-0.3,3.6-0.7,4.8-2.3
			C176.3,197.9,176.2,196.8,175.7,194.9L175.7,194.9z M196.3,195L177.8,21.8c-0.3,0.3-0.7,0.5-1.2,0.7c-0.8,0.3-1.6,0.5-2.4,0.6
			c-2.2,0.3-3.5,0.2-5.7,0.1c-3-0.1-6.1-0.3-9.1-0.5c-1.6-0.1-3.3-0.3-4.9-0.4c-4.3-0.5-8.5-1.1-12.8-1.3c-4.3-0.2-8.6,0.1-12.9,0.9
			c-2.3,0.5-4.4,1.1-6.4,2.3c-1.3,0.8-2.4,1.7-2.5,3.3c-0.1,1,0.3,1.4,0.9,2.2c1.2,0.9,2.1,0.7,3.6,0.5c2.2-0.4,4.3-1,6.6-1.1
			c3,0.5,3.5,2.4,4.1,4.7L177.2,194c0.3,1.1,0.5,2.1,0.5,3.2c2.6,0.7,5.1,1.6,7.8,2.2c2.3,0.4,4.5,0.7,6.8,0.3
			c1.5-0.3,2.5-0.9,3.1-1.5C196.2,197.5,196.4,196.7,196.3,195L196.3,195z M218.3,193.2l3-174.4c-0.5,0.3-1,0.4-1.7,0.5
			c-1.9,0.2-2.8-0.4-4.6-0.9c-1.4-0.4-2.7-0.9-4.1-1.3c-1.7-0.6-3.3-1.2-4.9-1.8l0,0c-4.6-1.6-9-3.7-13.7-5.2
			c-3.9-1.2-7.7-2-11.7-2.4c-3.7-0.3-7.3-0.3-10.9,0.1c-2.3,0.3-4.7,0.7-6.5,2.2c-0.7,0.6-0.9,1.1-1,2c-0.1,0.7,0.3,1.1,0.9,1.5
			c0.6,0.4,1.4,0.6,2.1,0.8c2,0.5,3.8,0.4,5.8,0.2c2.2-0.2,3.2-0.5,5.2,0.2c2.3,0.9,2.8,2.5,3.1,4.7l18.9,176.4
			c2.4,0.7,4.8,1.3,7.3,1.8c2.6,0.4,5.1,0.7,7.7,0.3c1.7-0.3,2.8-0.9,3.7-1.7C218.1,195.2,218.3,194.7,218.3,193.2L218.3,193.2z
			 M250,196.2l10.1-181.7c-0.4,0.2-0.9,0.3-1.4,0.3c-1.3,0.1-2.4-0.3-3.6-0.6c-1.3-0.4-2.6-0.7-3.9-1.2c-3.1-1-6.2-2.2-9.1-3.4
			c-1.4-0.6-2.7-1.1-4.1-1.6c-2.7-0.9-5.4-1.6-8.1-2.1c-3.4-0.6-6.8-1-10.3-1c-2.4,0-4.8,0.2-7.2,0.6c-1.1,0.2-2,0.4-3,1
			c-0.4,0.4-0.7,0.6-1,1.1c-0.1,0.4-0.1,0.8,0,1.1c0.3,0.5,0.9,0.8,1.6,1.1c1.1,0.5,2.2,0.8,3.3,1c1.7,0.3,2.4,0.4,4.1,0.7
			c2,0.3,3.6,0.6,4.9,2.1c0.8,1,0.7,2.3,0.7,3.5l-3,176c2.4,1.4,4.7,2.9,7.1,4.2c3,1.6,6,3.2,9.2,4.3c2.7,0.9,5.3,1.5,8,1
			C248.8,201.8,249.8,200.3,250,196.2L250,196.2z M282.5,208.9l13-197.4c-0.9,0.2-1.8,0-2.7-0.2c-0.3-0.1-3.4-1.2-3.4-1.2
			c-4.5-1.9-8.8-4.3-13.3-6.1c-2.1-0.7-4.2-1.3-6.4-1.7c-3.1-0.6-6.1-0.9-9.3-0.7c-2.5,0.2-4.9,0.6-7.2,1.5c-1,0.5-2.2,1-2.1,2.3
			c0.3,1.1,1.8,1.4,2.8,1.6c1.2,0.3,2.4,0.3,3.6,0.4c1.5,0.2,2.6,0.4,3.6,1.5c0.8,0.8,1,1.6,1.1,2.5c0,0.8-0.1,1.6-0.2,2.5
			l-10.3,184.6c3.3,2.7,6.5,4.9,10.5,6.5C268.7,207.8,275.5,208.6,282.5,208.9L282.5,208.9z"/>
	</g>
	<g>
		<path class="st3" d="M318.7,71.7c11.7,8.5,17.5,24.7,24,45.9c2.7,8.6,6.4,15.3,11,21.6l42.2,67c4.6,31.7,7.1,64.4,9,96.8
			c14.7,23.7,6.9,30.8,10.3,46.2l-16.5-0.3l-3.9-7.4l-3.4-0.4l-4,8h-72.2c-1.3-48-4.3-95.7,0-143l-17.5-6c2.9-18.6,7.3-43.1,9.5-66
			c0.8-8.3,1.9-16.6,1.6-24C308.1,90.2,309.5,77,318.7,71.7L318.7,71.7z"/>
		<path class="st4" d="M318.2,71.7c2.1-1.2,4.2-2.3,6.2-3.5c0.4-5.3,0.1-10.8,0.6-16c0.4-4.1,1.6-7.9,2.1-12c0.4-2.9,0.4-5.9,1-8.8
			c0.6-3.1,1.4-6.3,2.3-9.4c0.7-15.5,8-14.8,15.5-13.5c11.3-4,15.3,1.7,16,11.7c0.5,1.8,1.8,3.5,2.4,5.3c0.8,2.5,1.3,4.9,2,7.4
			c1.9,6.3,4.5,12.6,6.3,18.9c1.6,5.6,3.8,10.4,4.3,16.7c8.3,1.1,10.3,7.4,13.5,17.5c3.8,12.2,7,28.1,9.8,43
			c6.1-6.7,7.5-15.2,8.2-24c4-6.4,6.8-3.5,9.5,0.8c0.3,9.2,0.5,18.3,0.7,27.5c1.9,5.8,1.5,14-1.2,24.5c6.2,10.5-5.3,28.4-21.7,48.2
			c-6.4,5-4.8,5.5-11.1,10.5c-5.3,4.2-6.2,14.6-23.9,17c4.2-13.2,8.3-26.3,12.5-39.5c-19.9,18-13.9,17.3-24.5,24.2
			c-4.4-4.2-8-8-12.4-9.9c-6.2-2.7-9-7.5-12.2-17.8c-0.4-10.5,1.2-20.4,5.5-32.3c-0.9-3.4,2.6-8.6,7.3-11.2c4.9-9.8,13.8-5.8,16.5-8
			c-5.5-7.1-7.8-13.8-10.5-21.2c-4.3-12-7.8-24.4-12.8-33.5C326.8,78.5,322.9,74.5,318.2,71.7L318.2,71.7z"/>
		<path class="st2" d="M346,7.7c-7.6-3.2-17.2,1.3-16.4,14.7c-2,2.4-2.6,10.4-3.1,15.8c-0.3,3.1-1.4,5.6-1.7,8.6
			c-0.8,7-0.5,13.7-1.2,20.8c-3,0.8-5.4,3.1-7.4,4.7c-6.9,5.8-7.7,14.8-7.9,23.7c-0.6,37.5-5.1,67.7-10.3,95.9
			c-0.5,2.9-0.4,5.6-0.9,8.4c5.6,2.5,11.2,4,16.9,6.5c-3.5,50.2-0.3,94,0.5,143.1l74.1,0l3-7.7l2.9,0l3.6,7.7l17.6,0
			c0.3-3.3-0.3-5.6-0.6-9.1c-0.5-5.9,0.5-12.5-0.6-18c-1.5-8-5.4-14.7-8.8-20.2c-1.5-33.8-4.5-69-8.9-97.3l0.9-0.9l0,0
			c8.8-8.8,23.1-29.3,22.8-42.3c-0.2-1.4-0.8-3.8-2-5.2c0.5-2.3,0.8-3.8,1.4-6c1.6-6.6,1.1-12.6-0.1-18.8l0-1.1
			c1.6-7.3,0.8-15.8-0.5-25c-1.7-5.3-5.5-6.2-8.2-5.1c-1.7,0.7-3.6,3.3-3.8,6.5c-0.5,9.7-1.2,12.8-6.2,19.1
			c-3.7-18.3-6-31.3-12.4-49.2c-0.8-2.4-2.3-5-4.6-7.2c-1.6-1.6-4.6-2.4-6.2-2.8c-0.3-2.6-0.9-5.8-1.8-8.3c-0.5-1.5-1.2-4-1.6-5.5
			c-0.9-3.3-2.2-6.5-3.2-9.8c-1.3-4.2-3.1-8.3-4.3-12.6c-0.6-2.1-0.7-4.4-1.4-6.5c-1-3-2-4.4-2.8-5.7C361.8,6.8,353.7,4.5,346,7.7
			L346,7.7z M372,277c-0.6,9.4-1.2,18.8,2.2,25.5c-1,13.1-2,26.2-3,39.2c2.3,3,4.7,4.3,7,4c0-1.8,0-3.7,0-5.5
			c0.4-13.9,0.5-19.8,1-33.7c0.1-1.7,0.4-5.3-1.7-8.9c-3.1-5.3-3.4-16.7-4.1-21.3C372.6,275.1,372.1,275.4,372,277L372,277z
			 M355.7,344.2c1.6-7.8,3.1-17.2,4.5-25.3c2.3-13.4,5.5-26.2,6.7-40.5c0-2.3,0-4.5,0-6.7c-2.3,3.5-4.4,5.5-6.7,9
			c0.4,18.9-0.2,39.1-6.5,56C354.4,338.7,355,342.2,355.7,344.2L355.7,344.2z M384.8,324l-0.6-26.1l-4.5-32.2l-6.7-35.8
			c-1.2,0.9-2.4,1.7-3.8,2.4c-2.8,1.2-7,1.3-9.9,1.9c0.3-0.9,0.5-1.8,0.7-2.8L337.5,210l0-0.1l-1.2-0.7c-4.5-0.5-20.6-3-20.7-2.6
			l-0.3,5l-0.3,4.6l-0.2,4.6l-0.2,4.6l-0.2,4.5l-0.1,4.5l-0.1,4.5l-0.1,4.5L314,248l0,4.4l0,4.4l0,4.4l0,4.4l0.1,4.4l0.1,4.4
			l0.1,4.4l0.1,4.4l0.1,4.4l0.1,4.4l0.1,4.4l0.1,4.4l0.1,4.4l0.1,4.4l0.1,4.4l0.1,4.4l0.1,4.5l0.1,4.5l0.1,4.5l0.1,4.5l0.1,4.5
			l0.1,4.6l0.1,2.9l71.3,0l3-7.7l5.1,0l2.8,5.9l-1.5-19.6c-1.3-1.7-3.4-0.3-3.7,1c0,0.3,0.1,3.9,0.3,6.6c0.5,5.8-3.2,3.8-5.7,0.6
			C384.8,331.7,384.9,328.1,384.8,324L384.8,324z M385.8,216.6c1.6,17.2,4.1,34.7,0.1,49.8c-1.2,4.5-2.4,5.9-1.3,10.5
			c1.4,5.9,2.9,11.8,3.6,17.9c0.9,8,0.9,16.2,1.1,24.3c0.2,7.3,6.2,0.7,6.7-4l1.2-22.5l6.2-0.2c-0.8-15.4-1.9-30.8-3.4-46.2
			c-1.3-13.1-2.8-26.1-4.8-39L385.8,216.6L385.8,216.6z M403.8,301.3c-1.7-1-3-1.5-3.6,1.2l-0.2,45.9l14.1,0l0-0.1
			c-0.1-2.4-0.5-4.8-0.7-7.2c-0.3-3.5-0.1-7-0.1-10.4c0-4.3-0.4-8.1-1.8-12.2c-1.8-5.4-4.5-10.3-7.6-15.1L403.8,301.3L403.8,301.3z
			 M402,127.8c1.5,0.7,2.7,1.5,3.7,2.8c1.7-3.8,3.3-7.7,4.5-11.6c1.1-3.4,1.8-6.7,2.4-10.2c0.3-2.1,0.5-4.3,0.7-6.4
			c-0.4,0-0.7,0-1.2,0.1c-0.8,0.2-1.2,0.4-1.8,1c-0.7,0.7-1.1,1.5-1.4,2.4c-0.4,1.2-0.4,2.3-0.4,3.6c-0.1,2.2-0.3,4.4-0.7,6.5
			c-0.4,2.4-1.1,4.6-2.3,6.8C404.5,124.6,403.3,126.2,402,127.8L402,127.8z M407.1,131.8c1.8,0.7,3.3,1.9,4.4,3.5
			c0.9-2.9,1.7-5.8,2.1-8.9c0.5-3.3,0.6-6.6,0.5-9.9c-0.1-1.3-0.2-2.6-0.3-3.9c-0.5,2.3-1.1,4.6-1.8,6.8
			C410.6,123.7,408.9,127.8,407.1,131.8L407.1,131.8z M412.7,137.1c1.4,1.5,2.1,3.3,2.4,5.2c1.2-4.5,2.5-9.1,3.1-13.7
			c0.3-2.2,0.4-4.3,0.4-6.5c0-2.9-0.2-5.9-0.5-8.8c-0.2-2.2-0.3-4.5-0.8-6.7c-0.3-1.5-1.1-2.7-2.3-3.6c-0.1,1.6-0.3,3.3-0.5,4.9
			l0.1,0c0.5,2.9,1,5.7,1.1,8.6c0.2,3.4,0,6.8-0.5,10.2C414.7,130.3,413.8,133.7,412.7,137.1L412.7,137.1z M415.7,146.9
			c1.1,1.2,1.9,2.5,2.3,3.7c0.7-3.1,1-6.2,0.9-9.3c-0.1-1.7-0.2-3.4-0.5-5.1L415.7,146.9L415.7,146.9z M416.6,156.7
			c0.5-2.9,0.4-5.8-1.7-8.1l-10.7,19.3c0.5,3.3,0.4,7.2,0.1,10.8l12.3-21.6L416.6,156.7L416.6,156.7L416.6,156.7z M414,146.6
			c-0.1-2.7-0.4-5.7-2-7.8l-9.3,18.4c0.7,2.1,1.1,4.7,1.3,7.5l10-18L414,146.6L414,146.6z M410.8,137.3c-0.9-1.8-2.6-3.2-4.5-3.9
			l-8.5,16.6c1.6,1.5,2.8,3.2,3.9,5.3l9-17.7L410.8,137.3L410.8,137.3z M405,132.4c-1.2-1.6-2.4-2.4-4-3.1l-0.8,1
			c-0.8,2.3-1.7,4.6-2.8,6.8c-1.1,2.2-2.3,4.4-3.6,6.5c1.4,1.5,2.4,2.7,3.3,4.4L405,132.4L405,132.4z M404,182.6
			c0.8,4.5,0.8,8-0.1,12c3.4-4.5,6.4-9.2,9.1-14.1c2.2-4.2,4.1-8.4,5.1-13.1c0.5-2.2,0.8-4.2,0.2-6.4c-0.2-0.8-0.5-1.4-0.9-2
			L404,182.6L404,182.6z M401.8,197.3c1.1-4.3,1.5-9.6,0.6-13.2l-18.5,17.4c-0.5,2.2-1.2,4.4-2,6l-0.5,2.4c-0.3,3.4-0.5,6.1-2.3,9
			c-0.6,0.6-0.6,1.6-0.8,3l8.5-8.6C391.8,208.1,397.1,203,401.8,197.3L401.8,197.3z M402.2,181.8c0.5-3.9,0.8-7.8,0.4-11.7
			l-19.3,17.4c0,1.2,0,2.4-0.2,3.7c0.7,1.1,1,2.5,1.2,3.9c0.1,1.2,0.2,2.4,0,3.6L402.2,181.8L402.2,181.8z M402.4,167.5
			c-0.1-2.9-0.3-5.6-1-8.4l-20,18.3c0,0.7,0,1.4-0.1,2.2c1,2.2,1.5,4,1.8,5.8l18.8-16.9L402.4,167.5L402.4,167.5z M400.8,157.2
			c-1-2.2-2.3-4.1-3.9-5.8L378.4,169l0,0.1c1.4,1.7,2.4,3.8,2.8,6.3l19.4-17.8L400.8,157.2L400.8,157.2z M396,149.9
			c-0.8-2-1.8-3.3-3.2-4.9c-1.1,1.8-2.3,3.5-3.6,5.2c-2.6,3.6-5.3,7.1-7.8,10.8c-1.2,1.7-2.1,3.2-3.3,4.8c0.1,0.4,0.1,0.7,0.2,1
			l17.7-16.8L396,149.9L396,149.9z M376.4,168.5l0.2-0.2c0-0.2,0-0.5,0-0.7c-0.6,0.7-1.2,1.4-1.8,2c-1.1,1.1-2.2,2-3.7,2.4l-0.2,0
			c0.3,2.5,1.4,4.6,2.4,5.6c0.8-1.4,2.5-3.7,3.1-7.7c0-0.3,0.1-0.7,0.1-1.1L376.4,168.5L376.4,168.5z M382.5,200.4
			c0.3-1.6,0.4-3.1,0.1-4.2c-2.8,4.5-7,5.8-9.5,9.6c-1.2,1.8-2.5,5.5-2.4,9c2.9-1.7,5.8-2.5,8.3-5.6c0.9-1.2,2.4-4.5,3.2-7.7
			L382.5,200.4L382.5,200.4z M358.5,138.3c2.2,0.3,4.5,0.4,6.8,0.5c-1.3-1.3-2.7-2.7-3.9-4.1c-4.1-4.7-7.3-9.7-10.1-15.3
			c-2-4.1-3.6-8.3-5-12.6c-1.8-5.5-3.3-11-5.4-16.4c-1.9-5.1-4.1-9.6-7.6-13.8c-2.6-3.1-5.5-5.3-8.9-7.4c-1.8,0.6-3.2,1.4-4.6,2.5
			c1.9,1.3,3.7,2.8,5.2,4.5c2.4,2.6,4.4,5.4,6.1,8.5c1.8,3.1,3.2,6.4,4.6,9.7c2,5,3.6,10.1,5.3,15.3c1.2,3.7,2.4,7.4,3.7,11
			c1.5,4.2,3.2,8.2,5.5,12.1c1.1,2,2.5,3.9,3.9,5.7c0.5-0.1,1-0.1,1.5-0.1C356.5,138.1,357.5,138.2,358.5,138.3L358.5,138.3z
			 M367.8,139c2.7,0.1,5.3,0.2,8,0.1c0.8,0,1.6-0.1,2.4-0.2c0.3-6-0.8-13.2-0.3-17.4c-9.6,11.3-23.2,4.5-23.6-8.7
			c0-1.2,0.6-1,0.7-0.5c4.1,15.1,21.2,13.6,20.6,0.3c-0.2-4.5-0.5-9.2,0.6-19.1c0.1-1.2,1.1-1.4,1.4-0.2c1.3,4.8,2.8,9.8,4.1,14.6
			c1,3.4,2,6.9,3,10.3c1.1,3.6,2.3,7.1,3.7,10.5c-1.6,2.4-3,4.9-4.3,7.5c-1.4,2.6-2.7,5.2-4.1,7.8c-1.1,1.9-2.2,3.8-3.4,5.7
			c-0.8,1.2-1.6,2.3-2.6,3.3c-0.7,0.7-1.5,1.3-2.3,2c-0.5,0.4-1,0.7-1.5,1.1c-1.9,1.5-3.5,3-4.7,5.1c-0.4,0.6-0.7,1.2-0.8,1.9
			c-0.2,1,0.1,1.8,0.5,2.8c0.6,1.3,1.5,2.6,2.6,3.7c1,1,2.1,1.3,3.4,0.7c1.5-0.7,2.6-1.9,3.6-3.1c1.9-2.2,3.4-4.7,5.1-7
			c2.6-3.6,5.2-7.2,7.8-10.8c3-4.1,5.8-8.4,8-12.9c1.6-3.2,3.3-6.8,3.1-10.4c-1.4-6.9-2.7-13.8-4.3-20.7c-1.3-5.9-2.9-11.8-4.7-17.6
			c-1.2-3.9-2.3-8-4.1-11.7c-0.3-0.5-0.5-1-0.8-1.4c-0.6-1-1.3-2-2.2-2.8c-1.3-1.2-3.2-2.1-5.1-2.3c-1.6,2.9-3.2,5.9-4.1,9.3
			c-0.6,2.2-0.8,4.3-1,6.6c-0.1,2.6-0.2,5.1-0.5,7.7c-0.2,1.7-0.4,3.5-0.5,5.2c0,1.1-1,2.5-2.2,0.1c-1.1-2.5-2.2-4.9-3.2-7.5
			c-1.4-3.8-2.5-7.7-3.4-11.6c-0.7-3.1-1.2-6.3-1.6-9.5c-0.2-1.8-0.4-3.6-0.5-5.4c-0.3-0.9-0.6-1.6-1.3-1.6
			c-1.8-0.2-3.4,0.4-5.5,0.7c-1.9,0.3-5.3-0.1-7.1-0.8c-2-0.8-1.1-1,0.2-1c1.4,0,2.7-0.3,3.6-0.5c0.8-0.2,1.8-0.6,2.8-1.5
			c0.7-0.7,1.2-0.9,1.7-1.8c0.7-1.4,1.1-3.6,1.5-5.4c0.7-3.2,0.8-5.9,0-9c-0.3-1.1-0.5-2.3-0.6-3.4c-0.7,0.4-1.9,0.2-2.9,0.5
			c-1.7,0.6-3.6,1.1-3.6,3.1c0,2.1,0,4.2,0.2,6.2c-2.1,0.8-1.8,0.3-1.9,0c-0.1-2.7-0.1-5-0.3-7.8c-0.3-4.3,5-6.6,8.1-7.4l-0.1-2.1
			c-0.1-1.3-0.2-2.6-0.3-4c-0.7,0.5-1.5,0.9-2.3,1.3c-2.5,1.2-4.9,1.7-7.7,1.7c-3.2,0-6.1-0.7-8.8-2.2c-0.2-0.1-0.3-0.2-0.5-0.3
			c-0.1,1.6-0.2,3.1-0.3,4.7c-0.1,1.4-0.1,2.8-0.2,4.2c1.9-0.5,3.7-0.7,5.2,0c1.6,0.7,2.6,2.7,3,4.1c-0.7,0.2-1.3,0.2-2.7-0.4
			c-1.1-0.4-1.8-0.6-3-0.7c-0.9-0.1-1.8,0.2-2.7,0.4c0,1.3,0,2.7,0,4c0,3.3,0.1,6.5,0.2,9.8c0.1,3.3,0.4,6.5,0.6,9.8
			c0.1,2.2,0.2,4.4,0.2,6.7c0,2-0.1,4-0.3,6c2.7,3.7,4.5,7.7,6.2,12.1c2,5.4,3.6,11,5.4,16.5c1.4,4.3,3,8.4,5,12.4
			c2.7,5.5,5.8,10.3,9.9,14.9C364.3,135.5,366.1,137.2,367.8,139L367.8,139z M378.2,140.6c-1.4,0.1-2.9,0.2-4.3,0.2
			c-2.5,0-5,0-7.5-0.2c-0.9-0.1-1.8-0.1-2.6-0.2c0.8,0.6,1.4,1.2,2.1,2c2.8-0.1,5.6-0.2,8.3-0.5c1.5-0.2,2.8-0.6,4.1-1.1
			L378.2,140.6L378.2,140.6z M377.9,142.7c-1.2,0.4-2.3,0.7-3.6,0.8c-2.4,0.3-4.9,0.4-7.3,0.5l0.2,0.3l0.2,0.4
			c2,1.4,3.9,2.6,5.4,4.5c0.3,0.5,0.6,1,0.9,1.5c1.1-1.2,2-2.6,2.8-4.1C377.2,145.6,377.6,144.2,377.9,142.7L377.9,142.7z
			 M337.8,161.5l1.6-2.2c0.6-1.2,1.2-2.5,1.5-3.8c-1.9-0.3-4.3-0.4-7,1.1c-5.1,2.9-6,7.6-6.1,11.2
			C330.7,163.5,333.9,165.1,337.8,161.5L337.8,161.5z M342.5,156.3c2.7,23.1,16,39,30,35.4c-2-4.3-1.6-8.4-0.1-12.9
			c-1.5-1.6-2.5-4.6-3.2-6.8c-0.5-0.1-1-0.4-1.6-0.7c-1.4-0.9-2.3-2.3-3.2-3.7c-0.6-1-1.2-2.1-1.4-3.3c-0.3-1.5,0.3-2.9,1.1-4.2
			c0.7-1.2,1.5-2.3,2.4-3.2c-0.6-0.4-1.2-0.7-1.8-1.1c-1.7-1.3-2.5-2.7-3.3-4.7c-0.5-1.2-1.2-2.3-1.9-3.3c-1.9,0.2-3.8,0.5-5.8,0.4
			c-1.4-0.1-2.8-0.3-4.3-0.6c-1.6,2.6-3.2,4.5-6.2,5.8C343.1,154.4,342.8,155.4,342.5,156.3L342.5,156.3z M352,138.6
			c-1.6,0.2-3.2,0.5-4.8,0.8l0,0c-1.9,0.1-3.6,0.4-5.4,1.2c-3.2,1.6-4.3,3.5-6.4,6.5l-0.1,0.2c-3,1.8-4.9,4-6.1,7.2
			c-0.5,1.3-0.7,2.4-0.8,3.6c-0.7,1.4-1.4,3.8-1.6,5.6c-1.3-6.2-3-14.9-3.3-22.6c-0.2-5.5-1.1-11.1-1.2-16.6l0-1.1
			c8.1,4.5,15.9,5.1,22.8,2.7c1.1,2.5,2.3,5,3.6,7.4C349.7,135.3,350.8,137,352,138.6L352,138.6z M336.2,188.8c-2,1.5-3,2.8-3.8,4.9
			c-0.1,0.4-0.3,0.8-0.4,1.3c-1.9,6.5,1.4,10.7,4.2,12.2c-0.7-5.1,1.1-8.8,1.6-10.7C338.6,193.7,337.3,190.2,336.2,188.8
			L336.2,188.8z M335.1,178.6c-2.3,0.9-3.7,1.7-5.1,3.6c-0.3,0.3-0.5,0.7-0.8,1.1c-3.7,5.7-1.8,10.6,0.4,12.9c0.8-5,3.7-8,4.8-9.7
			C335.9,184,335.8,180.3,335.1,178.6L335.1,178.6z M335.7,166.1c-2.9,0.8-3.9,1-5.9,3.5c-3.7,4.6-3.9,9.8-2.9,13.7
			c2.1-4.8,6.2-6.8,7.4-8.4C336,172.5,336.2,167.8,335.7,166.1L335.7,166.1z M347.4,147.9c-2.2-0.8-4.3-1.3-7.3-0.7
			c-4.4,0.8-8.4,4.1-9.5,8.5c5.2-3.7,8.1-2.3,12.1-3.9C345.2,150.9,346.7,149.1,347.4,147.9L347.4,147.9z M357.2,146.4
			c-1.8-2.3-3.4-4.1-6.4-5c-5.6-1.7-10.6,1.4-11.9,3.4c5.1-0.7,5.1-0.3,7.1,0.2C348.3,145.6,352.7,147.1,357.2,146.4L357.2,146.4z
			 M372.5,152c-0.6-1.5-1.6-2.8-3-3.7c0.4,2.2,0.6,3.9,0.4,5.8C370.8,153.4,371.7,152.8,372.5,152L372.5,152z M367.8,155.7
			c0.6-4.7,0-7.9-3-11.9c-2.7-3.7-6.5-4.1-9.5-3.9l-2,0.1l1.5,1.1c3.6,2.1,6,5.1,7.5,7.8C364,152.1,363.3,153.4,367.8,155.7
			L367.8,155.7z M361.4,232.2c2.6-0.5,4.9,0.1,9.5-2.6c2.1-1.2,4.9-4.1,5.7-7.9c-4,2.3-9.4,2-12.8,5
			C362.1,228.1,362.3,230.3,361.4,232.2L361.4,232.2z M374,190.7c2.4-2.5,3.1-3.1,4.6-6.8c0.9-2.2,2.2-8.3-0.6-12.3
			c-1.2,4.2-2.8,6.4-4.3,9.5C372,184.5,372.9,188.9,374,190.7L374,190.7z M373.5,203c2.6-2.7,4.6-3.1,6.5-6.6
			c1.2-2.1,2.3-9.8,0.9-13.4c-2,4.9-5,7-6.9,11.1C373.2,196.1,372.6,199.5,373.5,203L373.5,203z M365.4,223.9
			c4.4-1.6,7.2-1.3,10.5-3.7c2-1.4,3.6-4.8,3.9-8.8c-3.3,2.6-7.9,3.7-11.4,6.7C366.8,219.6,365.8,222.1,365.4,223.9L365.4,223.9z
			 M367.5,111.4c1.1,0,2,0.9,2,2c0,1.1-0.9,2-2,2c-1.1,0-2-0.9-2-2C365.5,112.3,366.4,111.4,367.5,111.4L367.5,111.4z M323.8,106
			c1.8,1.4,3.6,1.9,4.8,3.9c0.8,1.4,0,3.5-0.9,3.1c-5.4-2.5-4.4-0.4-4.1,0.6c4.9,14.2,16.5,13.2,19.9,8.5c-0.1-0.3-0.3-0.7-0.4-1
			c-1.5-4-2.8-8.1-4.1-12.2c-1.7-5.1-3.3-10.3-5.4-15.3c-1.2-2.8-2.4-5.6-4-8.3c-1.7-3-3.6-5.6-5.9-8.1c-1.6-1.8-3.4-3.2-5.4-4.6
			c-1.9,1.6-3.6,3.2-4.9,5.4c-1.5,2.6-2.3,5.4-2.8,8.3c-0.7,4.4-0.7,8.7-0.8,13.2c-0.2,9.9-0.7,19.9-1.5,29.8
			c-1.1,13.8-2.8,27.6-5,41.3c-1.5,9.6-3.2,19.1-4.5,28.8c5,2.1,10.2,3.7,15.2,5.8c1.2-7.8,2.3-15.6,3.3-23.4
			c0.6-5.1,1.2-10.2,1.6-15.4c0.7-8.4,1.2-16.9,1.4-25.4c0.1-5.5,0.1-11,0-16.5c-0.2-6.9-0.6-13.8-1.2-20.7
			c-0.1-1.5-0.1-2.9,0.3-4.4c0.5-1.7,1.3-3.1,2.4-4.5c1.5-1.9,3.4-3.4,5.2-4.8c0.6-0.5,1.1-0.3,1.4,0c0.3,0.3,0.3,0.9-0.4,1.4
			c-1.8,1.4-3.5,2.8-4.9,4.5c-0.8,0.9-1.4,1.9-1.8,3c-0.2,0.5-0.3,1-0.4,1.6C320.6,103.2,322.2,104.7,323.8,106L323.8,106z
			 M349.1,74.6c-2.1-4.5,2-7.3,5.3-5.6c-1.6,0.6-2.6,1.2-3.5,2.1C350.2,71.8,349.5,72.9,349.1,74.6L349.1,74.6z M343.1,54.5
			c2.6-1.2,5.4-0.9,8-0.2c-0.9,0.9-2.6,2.3-4.2,2.3C345.5,56.8,344.1,55.5,343.1,54.5L343.1,54.5z M358.4,42.9
			c0.5,2.1,1.3,4.2,2,6.3c0.5,1.5,1,3.1,1.3,4.7c0.5,2.8,0.4,5.8,0.5,8.6c0.1,2.3,0.4,4.7,0.6,7c0.4,3.1,0.9,6.3,1.6,9.3l0.3,1.3
			c1.3,5.4,3.1,10.6,5.3,15.6c0.1-1.5,0.3-2.9,0.5-4.4c0.2-2.3,0.2-4.5,0.4-6.8c0.1-2.2,0.4-4.2,1-6.3c0.7-2.7,1.9-5.4,3.4-7.9
			c0.8-1.4,0.6-2.5,0.4-3.2c-0.2-2.5-0.9-5.1-1.7-7.6c-0.9-2.8-1.6-5.7-2.5-8.5c-1.1-3.3-2.2-6.6-3.3-9.8c-1.2-3.3-2.5-6.6-3.4-10
			c-0.5-2-0.6-4.1-1.3-6c-0.5-1.6-1.3-3-2.1-4.4c-0.2,0.5-0.3,0.9-0.6,1.4c-0.9,1.9-2.4,3.6-4,5l0,0.2c0.2,1.6,0.3,3.2,0.4,4.8
			c0.1,2,0.2,4,0.4,6C357.9,40,358.1,41.5,358.4,42.9L358.4,42.9z M334.8,75.7c0.1-1.3,0.1-2.7,0.1-4c0-2.2-0.1-4.4-0.2-6.6
			c-0.2-3.3-0.4-6.5-0.6-9.8c-0.1-3.3-0.2-6.6-0.2-9.9c0-3.9,0.1-7.9,0.3-11.8c0.1-1.9,0.2-3.8,0.4-5.8c-1.6-1.3-2.6-2.8-3.5-4.5
			c-1,1.6-1.4,3.2-1.7,5.1c-0.5,3-0.8,5.9-1.1,8.9c-0.3,3.2-1.3,6.1-1.8,9.2c-0.3,2.1-0.4,4.2-0.5,6.3c-0.1,2.6-0.2,5.1-0.3,7.7
			c-0.1,2.4-0.2,4.8-0.5,7.2c3.6,2.2,6.6,4.5,9.3,7.7L334.8,75.7L334.8,75.7z M346.7,9.3v11.8c1.6,0.1,3.1,0.5,4.7,1.1
			c1.9,0.9,3.5,2,5.1,3.4c0.9-0.8,1.7-1.8,2.4-2.9c1-1.5,1.5-2.6,1.8-4c-0.5-4.3-1.3-8.5-5.7-10.2C352.1,7.5,349.6,8.2,346.7,9.3
			L346.7,9.3z M345,21.1V9.2c-3.4-1.1-6.4-1.3-9.4,1c-3.2,2.4-4.1,5.7-4.3,9.3l0.1,0.4c0.9,2.6,2,4.6,3.7,6.2l0,0
			c1.4-1.6,2.9-2.8,4.8-3.8C341.6,21.6,343.2,21.2,345,21.1L345,21.1z M355.3,26.7c-1.3-1.3-2.9-2.2-4.6-2.9c-1.6-0.6-3-0.9-4.7-1
			l-0.7,0c-1.7,0.1-3.2,0.5-4.7,1.1c-1.7,0.9-3,1.9-4.2,3.3c0.6,0.4,1.3,0.8,2.1,1.2c2.2,1.1,4.4,1.5,6.9,1.5c3,0,5.5-0.6,8.1-2.1
			C354.1,27.5,354.8,27.1,355.3,26.7L355.3,26.7z"/>
	</g>
	<g>
		<path class="st4" d="M220.3,212c75.7,0,137.2,61.4,137.2,137.2S296,486.3,220.3,486.3S83.2,424.9,83.2,349.1S144.6,212,220.3,212
			L220.3,212z"/>
		<path class="st2" d="M220.1,209.9c76.6,0,138.7,62.1,138.7,138.7c0,76.6-62.1,138.7-138.7,138.7c-76.6,0-138.7-62.1-138.7-138.7
			C81.4,272,143.5,209.9,220.1,209.9L220.1,209.9z M87.7,321.7l13.6,1.6l31.9-31.7l19.8-53.1l-5.4-3.8
			C117.2,254,95.1,285.2,87.7,321.7L87.7,321.7z M100.9,326.2l-13.8-1.7c-1.4,7.8-2.1,15.8-2.1,24c0,30.7,10.2,58.9,27.4,81.6
			l8.8-2.9l1.7-48L100.9,326.2L100.9,326.2z M279.7,438.2l12.1,24.8c32.6-20.5,55.8-54.5,61.8-94.2l-16-12.7l-37.2,33.2L279.7,438.2
			L279.7,438.2z M289.4,464.6l-12.2-24.9l-64.5-10.6l-53.9,28.8L157,468c18.8,10,40.3,15.6,63.1,15.6
			C245.4,483.7,269.1,476.7,289.4,464.6L289.4,464.6z M125.8,380.6l-1.6,47.2l33.6,27.3l52.5-28v-40.8l-50.3-19.1L125.8,380.6
			L125.8,380.6z M299.9,386l36.5-32.6l-4.8-48.8l-31.4-27.1l-30.8,24.6l-1.2,58.9L299.9,386L299.9,386z M162,364.9l49.5,18.8
			l53.8-22.8l1.2-58.5l-48.7-24.4L164.3,306L162,364.9L162,364.9z M301,274.3l30.9,26.6l11.5-7.5c-21.1-47.1-68.4-79.8-123.3-79.8
			c-2.6,0-5.2,0.1-7.7,0.2l-4.8,11.8l20.2,14.6l52.3-7.9L301,274.3L301,274.3z M225.3,241.9l-19.6-14.2l-49.6,10.8l-19.9,53.6
			l26.9,11.2l53.9-28.1L225.3,241.9L225.3,241.9z"/>
	</g>
	<g>
		<path class="st2" d="M314.5,241.3c1.4,0.2,2.7,0.8,3.9,1.6l19.5-19.5l2.4,2.4l-19.5,19.5c0.8,1.1,1.4,2.4,1.6,3.9l27.5,0l0,3.4
			l-27.5,0c-0.2,1.4-0.8,2.8-1.6,3.9l19.4,19.4l-2.4,2.4l-19.4-19.4c-1.1,0.8-2.5,1.4-3.9,1.6V288h0v0h-3.4l0-27.4
			c-1.4-0.3-2.8-0.8-3.9-1.6l-19.3,19.3l-2.4-2.4l19.3-19.3c-0.8-1.1-1.4-2.5-1.6-3.9l-27.4,0l0-3.4l27.4,0c0.3-1.4,0.8-2.7,1.6-3.9
			l-19.4-19.4l2.4-2.4l19.4,19.4c1.1-0.8,2.4-1.3,3.8-1.6l0-27.4l3.4,0L314.5,241.3L314.5,241.3z"/>
		<path class="st4" d="M312.8,192.9c32,0,58,26,58,58s-26,58-58,58s-58-26-58-58S280.7,192.9,312.8,192.9L312.8,192.9z M312.8,215.7
			c19.4,0,35.2,15.8,35.2,35.2c0,19.4-15.8,35.2-35.2,35.2c-19.4,0-35.2-15.8-35.2-35.2C277.6,231.5,293.3,215.7,312.8,215.7
			L312.8,215.7z"/>
		<path class="st2" d="M312.8,196.2c30.2,0,54.7,24.5,54.7,54.7c0,30.2-24.5,54.7-54.7,54.7c-30.2,0-54.7-24.5-54.7-54.7
			C258,220.7,282.5,196.2,312.8,196.2L312.8,196.2z M312.8,213.2c20.8,0,37.7,16.9,37.7,37.7c0,20.8-16.9,37.7-37.7,37.7
			c-20.8,0-37.7-16.9-37.7-37.7C275,230.1,291.9,213.2,312.8,213.2L312.8,213.2z"/>
		<path class="st2" d="M312.8,191.8c32.6,0,59.1,26.5,59.1,59.1c0,32.6-26.5,59.1-59.1,59.1c-32.6,0-59.1-26.5-59.1-59.1
			C253.6,218.3,280.1,191.8,312.8,191.8L312.8,191.8z M312.8,193.8c31.6,0,57.1,25.6,57.1,57.1s-25.6,57.1-57.1,57.1
			s-57.1-25.6-57.1-57.1S281.2,193.8,312.8,193.8L312.8,193.8z"/>
	</g>
	<g>
		<g>
			<g>
				<polygon class="st2" points="220.5,559.7 220.5,559.7 220.5,559.7 220.5,559.7 220.5,558.5 220.5,508.5 203.1,508.5 190,526.2 
					190,526.3 184.9,535 184.9,558.6 195.7,558.6 202.4,552.1 202.4,566.9 213.2,566.9 220.5,559.7 				"/>
				<path class="st1" d="M208.6,558.6h10.8v-48.9l-15.7,0l-12.6,17.1v23.6h10.8v-17.1h6.7V558.6L208.6,558.6z M201.9,526.4v-0.3
					l6.7-8.8v9H201.9L201.9,526.4z"/>
			</g>
			<g>
				<polygon class="st2" points="181.3,503.5 173.5,506.1 172.5,500.7 161.7,497.4 161.4,497.3 153.1,504.5 140.9,544.7 
					152.3,548.4 159.3,543.4 160.9,551.9 171.1,555 180.9,548.1 181,548.2 193.6,507.1 181.4,503.4 181.3,503.5 				"/>
				<polygon class="st1" points="150.3,537.6 160.4,540.7 167.8,516.3 173.1,544.6 173.2,544.6 173.2,544.6 180.3,546.8 
					192.2,507.9 182.1,504.8 175.9,525.1 171.5,501.6 171.5,501.6 171.5,501.5 162.2,498.7 150.3,537.6 				"/>
			</g>
			<g>
				<polygon class="st2" points="137.6,534 159.4,497.4 149.3,491.3 148.1,490.6 148.1,490.6 148.1,490.6 148.1,490.6 141.4,490.9 
					143.3,487.7 133.3,481.8 133.3,481.8 132,481 132,481 132,481 131.9,481 121.8,483.3 99.7,520.4 128.1,537.4 137.4,534.2 
					137.6,534 				"/>
				<polygon class="st1" points="111.5,517.4 137,532.7 157.9,497.8 148.5,492.2 133.1,518 126.3,514 141.7,488.1 132.4,482.5 
					111.5,517.4 				"/>
			</g>
			<g>
				<polygon class="st2" points="95,507.2 111.4,488.7 124.1,487.7 124.1,487.7 124.1,487.7 124.1,487.7 124.1,487.7 130.7,480.3 
					108.5,460.6 108.5,460.5 108,460.1 107.9,460.1 107.9,460.1 96.3,462 89.7,469.4 96.3,475.3 73.8,500.6 83.3,509.1 95,507.2 
					95,507.2 				"/>
				<polygon class="st1" points="87.1,498.6 94.9,505.6 117.4,480.2 124,486.1 129.1,480.4 108,461.7 103,467.4 109.6,473.3 
					87.1,498.6 				"/>
			</g>
			<g>
				<polygon class="st2" points="69.5,488.2 81.7,478.6 82.3,473.7 87.2,474.2 104.4,460.6 106.9,458.7 106.9,458.7 107,458.6 
					87.8,434.3 75,434.6 41.4,461.2 49.5,471.6 59.6,471.1 47.8,480.5 55.9,490.6 66.6,490.5 69.5,488.3 69.5,488.2 				"/>
				<path class="st1" d="M55.7,461.1l6.8,8.6l13.9-11l0.2,0.2l-1.1,11l-14.6,11.5l5.9,7.5L80.6,478l1.6-12l5.3,6.7l16.3-12.9
					l1.5-1.2l0,0l0.1-0.1l-17.8-22.5L55.7,461.1L55.7,461.1z M86.1,461.5L81,455l6.5-5.1l5.1,6.4L86.1,461.5L86.1,461.5z"/>
			</g>
			<g>
				<polygon class="st2" points="47.9,450.8 47.9,450.8 86.6,432.2 73.7,405.5 73.1,404.1 73,404 73,403.9 72.9,404 62.7,401 
					24,419.6 38.1,449 47.9,450.8 				"/>
				<path class="st1" d="M35.8,423l12.6,26.3l36.6-17.6l-12.6-26.3L35.8,423L35.8,423z M47.8,429.4l22.7-10.9l3.2,6.6L51,436
					L47.8,429.4L47.8,429.4z"/>
			</g>
			<g>
				<polygon class="st2" points="26.9,394.4 26.9,394.4 27,394.4 27.5,394.3 27.5,394.3 36,392.9 46.1,398.5 46.3,398.4 46.3,398.4 
					52.4,397.4 62.1,404.2 62.2,404.2 71.8,402.6 67,374.3 67,374.3 57.2,370.4 14.9,377.5 17,389.9 26.9,394.4 26.9,394.4 				"/>
				<polygon class="st1" points="26,382.3 27.8,393.1 45.8,390.1 47,397.2 52.3,396.3 51.1,389.2 60.4,387.6 63,402.9 70.5,401.6 
					66.1,375.6 26,382.3 				"/>
			</g>
		</g>
		<g>
			<g>
				<polygon class="st2" points="408.3,372 408.3,372 408.3,372 408.1,372 408.1,372 386.7,369 374.9,377.3 371.9,398.7 
					371.9,398.7 371.9,398.7 378.8,407.9 421.3,413.7 424.5,390.2 408.3,372 				"/>
				<path class="st1" d="M413.5,403.2l2.7-19.8l-8.5-10.4l-20.7-2.8l-11.1,7.7l-2.7,19.8L413.5,403.2L413.5,403.2z M406.4,391.3
					l-23.4-3.2l1-7.2l23.4,3.2L406.4,391.3L406.4,391.3z"/>
			</g>
			<g>
				<polygon class="st2" points="414.3,420.9 400.5,413.8 395.8,415.2 394.2,410.5 374.7,400.4 372,399 372,399 371.9,398.9 
					357.6,426.3 363.1,437.9 401.1,457.7 407.2,446 402.7,436.9 416.1,443.9 422,432.4 417.5,422.6 414.3,420.9 414.3,420.9 				"/>
				<path class="st1" d="M395.2,444.6l5-9.7l-15.7-8.2l0.1-0.3l10.5-3.5l16.5,8.6l4.4-8.5l-15.6-8.1l-11.6,3.5l3.9-7.5l-18.5-9.6
					l-1.7-0.9l0,0l-0.1-0.1l-13.2,25.4L395.2,444.6L395.2,444.6z M383,416.7l-3.8,7.3l-7.3-3.8l3.8-7.3L383,416.7L383,416.7z"/>
			</g>
			<g>
				<polygon class="st2" points="397,461.5 397,461.5 397,461.5 397,461.5 396,460.9 354.9,432.4 344.9,446.7 352.1,467.6 
					352.1,467.7 356.4,476.8 375.9,490.2 382,481.4 380.4,472.2 392.6,480.6 398.7,471.7 397,461.5 				"/>
				<path class="st1" d="M389.3,470.7l6.1-8.9L355.1,434l-8.9,12.9l6.9,20.1l19.4,13.4l6.1-8.9l-14-9.7l3.8-5.5L389.3,470.7
					L389.3,470.7z M359,457.9l-0.2-0.1l-3.4-10.5l7.4,5.1L359,457.9L359,457.9z"/>
			</g>
			<g>
				<polygon class="st2" points="364.8,490.6 347.2,473.3 346.9,460.5 346.9,460.5 346.9,460.5 346.9,460.5 346.9,460.5 
					339.9,453.6 319,474.8 319,474.8 318.5,475.3 318.5,475.3 318.5,475.3 319.8,487 326.8,494 333,487.7 357.2,511.5 366.1,502.4 
					364.8,490.6 364.8,490.6 				"/>
				<polygon class="st1" points="355.9,498.1 363.2,490.6 339.1,466.8 345.3,460.5 339.9,455.2 320.1,475.3 325.5,480.6 
					331.7,474.3 355.9,498.1 				"/>
			</g>
			<g>
				<polygon class="st2" points="334,517.4 319.8,497.2 321.8,484.6 321.8,484.6 321.8,484.6 321.8,484.6 321.8,484.6 316.1,476.5 
					291.7,493.6 291.7,493.6 291.2,494 291.2,494 291.2,494 290.3,505.8 296,513.9 303.2,508.8 322.7,536.6 333.1,529.2 334,517.4 
					334,517.4 				"/>
				<polygon class="st1" points="323.8,523.2 332.4,517.2 313,489.4 320.2,484.3 315.8,478.1 292.7,494.3 297.1,500.5 304.4,495.4 
					323.8,523.2 				"/>
			</g>
			<g>
				<polygon class="st2" points="278.5,500 278.5,500 290.4,494.4 308.7,533.2 308.7,533.2 306.3,543.4 294.4,549 276.1,510.2 
					278.5,500 278.5,500 				"/>
				<polygon class="st1" points="297.3,537.3 307.2,532.7 289.9,495.9 280,500.5 297.3,537.3 				"/>
			</g>
			<g>
				<polygon class="st2" points="287.5,528.5 283.4,514.1 279.4,515.2 279.4,515.2 276.2,516.1 278.5,510.2 278.5,510 275.8,500.7 
					257.8,505.8 257.4,506 246.4,524.4 251.5,542.4 256.9,540.9 253.2,548.5 256.1,558.9 278.4,552.6 278.4,552.6 278.9,552.4 
					288.8,533 287.5,528.5 287.5,528.5 				"/>
				<polygon class="st1" points="256.3,530.9 274.2,525.7 276.5,534 258.5,539.1 260.9,547.3 280.9,541.6 280.9,541.6 282.1,541.3 
					287.5,532.8 282.6,515.4 264.7,520.6 262.7,513.5 277.1,509.4 275,502.1 258.1,506.9 252.3,517.1 256.3,530.9 				"/>
			</g>
		</g>
	</g>
</g>
</svg>
