<?xml version="1.0" encoding="utf-8"?>
<!-- Generator: Adobe Illustrator 23.0.3, SVG Export Plug-In . SVG Version: 6.00 Build 0)  -->
<svg version="1.1" id="Ñëîé_1" xmlns="http://www.w3.org/2000/svg" xmlns:xlink="http://www.w3.org/1999/xlink" x="0px" y="0px"
	 viewBox="0 0 522.7 634.5" style="enable-background:new 0 0 522.7 634.5;" xml:space="preserve">
<style type="text/css">
	.st0{fill-rule:evenodd;clip-rule:evenodd;}
	.st1{fill-rule:evenodd;clip-rule:evenodd;fill:#D4D4D5;}
	.st2{fill-rule:evenodd;clip-rule:evenodd;fill:#FFFFFF;}
	.st3{fill-rule:evenodd;clip-rule:evenodd;fill:#499F6B;}
	.st4{fill-rule:evenodd;clip-rule:evenodd;fill:#FFE51F;}
</style>
<g>
	<path class="st0" d="M471.3,296.6c14.9,2.7,25.5,2.7,31.7,0c9.2-4,11.4-10.8,11.4-10.9c0,0-0.3-3.6-0.3-3.6
		c-0.9-11.2-3.6-45.2-5.8-75.6c-2.5-35.7-2.7-62.6-0.6-99.2c1.4-25.4,4.3-49.2,6.3-66.5l2.1-18.3c0.5-5.1,0.5-8.7,0.2-11.2
		c-0.4-3.8-1.7-4.9-6.4-7.1c-1.4-0.6-3-1.2-4.9-1.7c-12-3.5-23.8-3.3-35.1,0.6l-0.3,0.1c0,0,5.7,14.9,7.4,19.3
		c-4.6,0.4-9.7,0.8-15.4,1.1c-13.4,0.8-33.9-0.5-54.7-2.8l0-0.1c-0.6-1.4-1.3-2.9-2.1-4.6c-2.6-5.8-5.9-7.5-12.8-9.3
		c-5.4-1.4-10.8-0.5-10.8-0.5s-4.9-2.2-10.4-0.4c-4,1.4-8.5,5-10.6,7.9l-0.1,0.1c0,0-0.1,0-0.1,0c-28.2-5.5-38-4.9-62.1-2.6
		c-27.9,2.7-27.4,8.1-27.1,11.6c0.2,1.7,0.3,2.6,0.5,4.3c0.1,0.5,0.2,2.3,0.2,2.7c0.4,5.2,1,11.8,1.6,18.2l0,0.2
		c-1.2,0-2.4,0.1-3.6,0.1l-3.9,0.1c-9.6,0.3-19,0.4-28,0.6c-24.4,0.3-47.5,0.6-68.4,4.6c-20.9,4-34.1,13.4-36.3,20.6
		c-0.2,0.8-0.4,1.5-0.3,2.2c0.1,1,1.3,4.3,2.8,10l4.3,16.6l0,0.1c-17.7,5.8-35.3,14.3-55.4,26.6c-28,17.2-46.7,42.8-51.5,51.2
		c-3.3,5.7-4.5,11.7-3.1,15.2c0.4,1,1.8,2.4,3.1,3.7c3.1,3.4,8.6,8.8,15.6,14.8l0.2,0.1c-0.2,0.2-0.4,0.5-0.7,0.7
		c-25.3,27.6-34.5,48-42.5,68.2c-6,15.3-6.4,31.8-3.8,39.1c0.3,0.9,0.7,1.7,1.1,2.2c1.1,1.4,2.2,1.9,3.4,2.5c1.7,0.8,4.2,1.7,7.8,3
		l3.1,1.1l10.2,3.8l0.2,0.1c-7.3,17.1-9.5,34.4-10.4,54.8c-0.1,1.8-0.1,3.6-0.1,5.3c0,17.5,3.5,32.1,3.6,32.3l0.1,0.3l0.3-0.1
		c0.1,0,6.8-3,20.5-9.5c13.6-6.5,16.5-7.2,22.3-5.2c5.7,2,26.4,7.5,26.6,7.5l0.4,0.1l0-0.4c0-0.3-1.6-30.4,6.6-48.1l1.1-2.3
		c7.7-16.4,12.4-26.4,8.4-32.6c-0.8-1.3-1.9-2.3-3.3-3.2l0-0.1c3.3-5.2,11.3-17,19.9-25c4.4-4,9.2-7.9,13.5-11.2
		c7.3-5.7,13.6-10.6,15.4-14.8c2-4.6,1.7-8.1-1.3-11.6l0.1-0.1c16.7-12.2,40.1-14.7,49.8-15.3c15.2-0.8,24.6-3.9,27.9-9.1
		c1.1-1.7,1.5-3.7,1.3-6.1l0.1,0c4.6,0.3,15.8,1,29.3,3.3l-0.1,0.2c-3.2,4.5-6,9.2-8.4,14.2l-0.4,0
		c-81.7,2.1-147.5,69.3-147.5,151.5c0,83.6,68,151.6,151.6,151.6C338,562,406,494,406,410.4c0-6-0.4-11.9-1-17.8l0-0.1
		c1.8-2.7,2.6-4,2.6-4c7.4,6.6,10.1,8.1,15.2,8.1c3.8,0,6-0.2,6.8-0.2c0,0-1.7,3-1.4,7c0.5,4.9,3.8,7.9,8,13.4
		c4.2,5.5,5.8,8.8,10.2,14.7c4.5,5.9,7.6,7.4,10.1,5.3c2.5-2,4.5-10.5,4.3-15.4c-0.1-4.9-2.7-6.2-5.5-10.2c-2.7-4-2.6-6.6-2.6-6.6
		s7.4,1,11.7-2.6c5.4-4.5,5.5-10.9,5.5-10.9s6.8,9.1,18.9,7.1c9.5-1.6,13-17.1,13-17.1c6.5,7.9,12.5,10,18.4,4.9
		c5.9-5.1,0.4-14.2-5-22.1c-5.4-7.9-16.2-22.2-25-36.3c-10.2-16.2-13.4-20.2-18.8-30.8L471.3,296.6z"/>
	<g>
		<path class="st1" d="M172.1,514.1c7.5,4.3,21.3,11.7,36.2,16.4l0.3,0.1c1.5,3.8,7.5,16.3,25.3,28.1l0.3,0.2
			c-36-4.9-67.9-22.6-91.1-48.3l0.4,0c3.4,0.3,7.5,0.8,11.6,1.2c7.2,0.8,13.6,1.6,16.8,2L172.1,514.1z"/>
		<path class="st1" d="M345.3,529.3c-15.7,3.4-31.8,4.3-36.2,4.5l-0.2,0c-6.3,4.7-26.3,18.8-48.2,26.1l-0.3,0.1
			c32-1.2,61.5-12.6,85.3-30.9L345.3,529.3z"/>
		<path class="st2" d="M245.4,272.4c-3,9.5-4.7,19.6-4.7,30.2c0,8.9,1.2,17.5,3.4,25.7l0,0.1c-2.7,4.3-5.8,9.4-8.3,13.6l-0.1,0.1
			c-5.6,1.3-43.9,10.4-57.2,19.8l-0.3,0.3l-27-25l-0.2-0.2c0.5-1.7,3.5-11.5,15.5-32.6c4.5-7.9,9.7-14.5,14.6-19.9l0.2-0.1
			c8.3-2.5,39.6-11.5,64.1-12.4L245.4,272.4z"/>
		<path class="st2" d="M326.9,401.2c-39.2-5.3-71.1-33.3-82.1-70.4l0-0.1c-2.7,4.3-5.6,9.2-7.9,13.1l0,0.1c0.7,3.6,2.9,12.3,9.5,24
			c7.7,13.7,18.4,28.6,21.2,32.5h0.2c5.6-0.3,14.8-0.5,26.4,0.2c13.2,0.8,25.3,4.1,31.2,5.9l0.1-0.3c0.4-1,1-2.7,1.8-5L326.9,401.2z
			"/>
		<path class="st2" d="M326.2,408.9c10.9,17.3,17.2,42.1,18.7,48.4l0,0.1c-4.1,6.1-12.2,17.9-20.7,26.5
			c-6.2,6.4-11.8,11.5-15.8,14.9l-0.1,0.1c-6.4,0.2-37.7,1.2-56.4-2.3l-0.3-0.1c-2.8-3.5-9-11.8-14.5-23.3
			c-5.2-10.9-7.4-20.6-8.3-25.5l0-0.3c4.4-3.6,25.7-21.7,38.9-45.4l0.2,0c5.5-0.3,14.7-0.5,26,0.2c14,0.8,26.7,4.5,32,6.2
			L326.2,408.9z"/>
		<path class="st1" d="M390.2,397.4c-1,16.7-3.5,36.9-4.6,45.4l0,0.1c1,3.7,4,15.9,5.1,29.7l0.1-0.3c8.6-18.9,13.4-39.8,13.4-61.9
			c0-5.3-0.3-10.5-0.8-15.7l0-0.2c-2.6,2.5-8.4,4.9-13.2,2.7L390.2,397.4z"/>
		<path class="st2" d="M240.5,505.4c-51.8-0.4-78.3-15.6-88.9-23.9l-0.1-0.1c-6.7-13.3-11.5-25.7-12.6-28.7l0.1-0.1
			c3-2.9,8.4-8,14.6-13.1c7.4-6.1,16.8-12.3,20.8-14.9l0.2,0.1c6.2,3.8,28.7,16.9,52.5,23l0,0.2c0.9,5,3.2,14.9,8.4,25.9
			c5.2,10.9,11,19,14.1,22.9l-0.2,0.2C248.1,498.5,244.8,501.6,240.5,505.4L240.5,505.4z"/>
		<path class="st1" d="M151.5,481.4c5.5,10.9,12.3,22.5,19.6,30l0.2,0.1c6.8,4,21.8,12.3,37.8,17.4l0.2,0
			c10.1-5.3,22.8-15.9,31.4-23.6l-0.1,0C188.7,505,162.2,489.8,151.5,481.4L151.5,481.4z"/>
		<path class="st2" d="M177.3,364.2c-1.7,6.2-6.7,27.4-4.4,59.2l0,0.2c-4.3,2.8-13.3,8.7-20.4,14.6c-6.2,5.1-11.6,10.2-14.6,13.1
			l-0.2,0.2c-4-2.2-20-11.3-31.8-22.2l-0.1-0.1c-0.8-6.2-1.2-12.5-1.2-18.8c0-7.9,0.6-15.6,1.8-23.2l0.2-0.3
			c2.7-5,7.3-12.9,14.1-22.5c9.9-14,24.4-23.5,28.9-26.3l0.3,0.3l27.5,25.5L177.3,364.2z"/>
		<path class="st2" d="M249.6,260.6c-20.5,0.7-40,5.4-57.6,13.6l-0.1,0.1c-2.4,2-5.2,4.6-8.2,7.6l0.2,0
			c11.4-3.3,39.4-10.8,61.8-11.6l0.3,0c1.1-3.3,2.4-6.5,3.9-9.6L249.6,260.6z"/>
		<path class="st1" d="M389.2,476c-9.6,19.7-23.5,37-40.3,50.7l-0.3,0.1c-14.8,3.6-30.9,4.8-37.5,5.2l-0.1,0
			c0.2-13.9-1-27.8-1.3-31.9l0.1,0c4-3.4,9.6-8.5,15.8-14.9c8.5-8.7,16.7-20.4,20.8-26.6l0.2,0c5-1.2,24.9-6,38.4-11.5l0,0.2
			c1.4,6,3.6,17,4.3,28.6L389.2,476z"/>
	</g>
	<g>
		<path class="st2" d="M323.5,302.4l-47.7-19.8l-0.2-0.1c-1.9,6.3-3,13-3,20c0,6.9,1,13.6,3,20l0.1,0l48.1-19.9L323.5,302.4z"/>
		<path class="st2" d="M328.1,314.4l-47.6,19.7l-0.1,0.1c6.4,12,16.2,21.9,28.2,28.2l0.1-0.1l19.9-48L328.1,314.4z"/>
		<path class="st2" d="M340,319.7l-19.7,47.5l0,0.1c6.3,1.9,13,3,19.9,3c6.9,0,13.6-1,20-3l-0.1-0.2l-19.9-48L340,319.7z"/>
		<path class="st2" d="M328.4,290.5l-19.7-47.7l-0.1-0.2c-12,6.4-21.8,16.2-28.2,28.2l0.2,0.1l48,19.9L328.4,290.5z"/>
		<path class="st2" d="M342.7,280.1c-1.3-8.5-2.5-17.7-3.5-28c-0.6-6.4-1.1-12-1.5-17.2l0-0.2c-6,0.2-11.9,1.2-17.4,2.9l0.1,0.2
			l19.9,48L342.7,280.1z"/>
	</g>
	<g>
		<g>
			<path class="st3" d="M58.8,317.8c-3.3-2.1-6.7-4.7-10.2-8.1l-0.2-0.2c-8.1-7.9-11.4-11.1-15.2-11c2.3,3.4,3.3,6.8,3.3,10.6
				c0,6.2-2.7,13.4-7.4,23.3c-8.5,18.1-10.9,36.2-11.8,57.9c-0.1,1.8-0.1,3.6-0.1,5.3c0,16,3,29.6,3.5,31.8
				c1.4-0.6,8.1-3.6,20.2-9.4c1.2-0.6,2.3-1.1,3.4-1.6l0-0.1c-0.8-6.8-1.9-19.2-1-32.7c1-14.6,7.7-35.7,12.7-50.3
				c2.5-7.3,2.9-12.4,2.9-15.5L58.8,317.8z"/>
			<path class="st4" d="M59.7,318.4c5.4,3.3,10.9,5.4,16.8,7.7l5.7,2.2c0.8,0.3,1.6,0.6,2.5,0.9l0,0.1c0.4,1.8,0.5,5.4-1.8,11.6
				c-5.8,15.3-9.3,28.1-10.8,39.1c-1.8,12.9-0.9,27.6-0.3,35.2l0,0.2c-3.4-1-6.5-1.9-8.2-2.5c-5.3-1.9-8.3-1.5-18.8,3.3l0-0.1
				c-0.8-6.8-1.9-19-0.9-32.4c1-14.6,7.7-35.6,12.7-50.1c2.4-7.1,3-12.1,2.9-15.3L59.7,318.4z"/>
			<path class="st3" d="M85.4,329.5c0.4,2,0.3,5.7-1.9,11.6c-5.7,15.2-9.3,28-10.8,39c-1.8,13.1-0.9,27.9-0.3,35.3l0,0.1
				c7.1,2,15.5,4.3,17.4,4.7c0-0.8-0.1-3-0.1-6.1c0-9.9,0.9-29.1,6.8-41.8l1.1-2.3c5.8-12.3,9.8-20.9,9.8-26.9c0-2-0.4-3.6-1.3-5.1
				c-2.6-4.1-8.9-5.6-15-7.1C89.2,330.4,87.2,329.9,85.4,329.5L85.4,329.5z"/>
		</g>
		<g>
			<path class="st3" d="M123.9,253.7c-1.2,3.5-4.9,10.3-16,21.7C91.3,292.6,80.1,310,75.8,325l0,0.1c0.3,0.1,0.7,0.3,1,0.4l5.8,2.3
				c2.6,1.1,5.7,1.8,8.7,2.5c4.1,1,8.4,2,11.6,3.9l0.1-0.1c3.4-5.2,11.3-17,20-25.1c4.4-4,9.3-7.9,13.6-11.3
				c7.2-5.7,13.4-10.5,15.2-14.6c2.7-6.3,1.1-10.2-6.5-15.5l-7.2-4.8C133.8,260.2,128.9,257.1,123.9,253.7L123.9,253.7z"/>
			<path class="st4" d="M95.4,226.1c4.9,6.4,9,11.3,15.6,17.3c3.7,3.4,8,6.7,12.4,9.9l0,0.1c-1.1,3.3-4.7,10.1-15.9,21.6
				c-16.7,17.2-28,34.7-32.3,49.8l0,0.1C66,321.4,58,318,49.1,309.3l-0.2-0.2c-1-1-2-1.9-2.8-2.7l0-0.1
				c6.8-27.9,20.2-42.7,32.1-55.8l4.7-5.2c9.1-10.3,11.7-16.5,12.5-19.5L95.4,226.1z"/>
			<path class="st3" d="M94.7,225.1c-1.6-2.1-3.3-4.5-5.2-7.1l-4.8-6.5c-3.4-4.6-6.3-9.3-8.8-13.5c-5.8-9.6-10-16.6-16.9-16.3l0.4,0
				c0.6,0.1,1.2,0.2,1.7,0.5c0.8,0.4,2.6,1.5,3.2,4.4c0.9,4.4-1.2,13-16.1,29.3C23,243.5,13.8,263.8,5.9,284
				C-1.9,303.6,0,322.8,4,325.8c1.6,1.2,3.3,1.5,5,1c2.8-0.8,5.4-4,7-8.3c2.5-7,5.3-13.7,10.3-17.5c0.7-0.5,1.4-1,2.2-1.4
				c2.2-1,3.8-1.7,6.1-1.4c0.9,0.2,1.7,0.5,2.7,1c2.2,1.2,4.7,3.4,8.2,6.8l0-0.1c6.8-27.8,20.3-42.5,32.2-55.6l4.7-5.2
				c9.5-10.7,11.9-17,12.4-19.7L94.7,225.1z"/>
		</g>
		<g>
			<path class="st3" d="M171.7,77.3c2.8-0.1,6.3,0.4,8.2,2.4c2.2,2.3,2.5,5.5,3.5,15.1c0.6,5.6,1.3,13.2,2.8,24c1,7.4,2,14.3,3.1,21
				l-0.1,0.1c-3.8,2.6-13.2,7.7-36.6,17c-31.4,12.5-61.5,27.1-71,49.1l-0.1,0.1c-1.9-2.9-3.6-5.7-5.1-8.2
				c-6-9.9-10.6-17.6-18.5-16.5c-1,0.1-2.1,0.5-3.3,0.9c-0.8,0.4-2,0.8-3.7,2.1c-1.3,1-2.5,2.2-3.5,3.8c-3.4,5.7-11,11.6-15,10.3
				c-1.1-0.4-1.9-1.2-2.4-2.4c-1.3-3.4-0.1-9.2,3.1-14.7c4.8-8.4,23.3-33.9,51.3-51c24.9-15.2,45.8-24.6,68-30.3
				c19.3-5,25.6-7.3,26.5-16.1c0.2-1.9-0.4-3.5-1.8-4.6c-1.3-1-3.1-1.7-5.2-1.9L171.7,77.3z"/>
			<path class="st4" d="M189.5,140.4c2.1,12,4.8,23.7,9.8,37.6c3.1,8.5,5.7,14.3,8.5,19.4l-0.1,0c-3.1,2.2-9.5,5.5-22.4,9.3l0,0
				l-11.9,3.3c-20.6,5.5-46.2,12.3-63.4,31.4l-0.1,0.1c-8-7.6-12.4-13.5-19.9-23.8l-4.8-6.5c-1.1-1.5-2.2-3.1-3.3-4.6l0-0.1
				c9.4-22,39.5-36.6,70.9-49.1C175.7,148.3,185.3,143.2,189.5,140.4L189.5,140.4z"/>
			<path class="st3" d="M208,198c-3.2,2.2-9.6,5.5-22.5,9.3l-11.9,3.3c-20.6,5.5-46,12.3-63.2,31.2l-0.1,0.1c0.4,0.3,0.7,0.7,1.1,1
				c7.9,7.3,18.8,14.3,26.8,19.5l7.2,4.8c2.1,1.5,3.8,2.8,5,4.2l0.1-0.1c16.7-12.3,40.3-14.9,50.1-15.4c15-0.8,24.2-3.8,27.5-8.8
				c3.2-5-0.4-14-7.8-27.7c-2.7-5-5-8.8-7.2-12.5C211.3,203.8,209.7,201,208,198L208,198z"/>
		</g>
		<g>
			<g>
				<path class="st3" d="M303.3,181c-5-0.1-10.2-0.6-15.5-1.4c-23.7-3.5-58.8-8.8-88-2l-0.1,0c0,0.1,0,0.1,0.1,0.2
					c5,13.8,8.9,20.4,13.8,28.7c2.2,3.7,4.5,7.6,7.2,12.6c5.1,9.4,8.3,16.4,9,21.6l0.1,0c4.5,0.2,16,1.1,29.8,3.4l0.1-0.1
					c6.2-8.5,13.6-15.9,22.1-22.1l0-0.1c0-0.7,0.1-1.6,0.3-2.6c0.9-4.6,1.9-6.1,6.2-10.2c4.3-4.2,9.7-10.8,13-21.2
					c0.7-2.1,1.4-4.3,2.1-6.7L303.3,181z"/>
				<path class="st3" d="M317.1,180.4c2.8-0.3,5.1-0.7,7-1.1l0.1,0c1.6,10.6,3.1,19.4,3.9,24.4l0,0.1c-7.3,0.9-14.4,2.6-21.1,5v-0.1
					c0.1-0.8,0.2-1.6,0.2-2.5c0.5-6.9,4.6-15.7,9.7-25.6L317.1,180.4z"/>
			</g>
			<g>
				<path class="st4" d="M315.9,109.6c0.3,6.9,0.9,14.6,1.9,23.7l0.6,4.9l0,0.2c-2.1,4-4.3,8.5-6.2,14.1c-2.8,8.1-5.8,18.8-8.6,28.1
					l-0.1,0c-5.1-0.1-10.3-0.6-15.6-1.4c-23.8-3.5-59-8.8-88.3-2l0,0c-7.6-21.3-9.9-37.5-12.6-57.9l0.1,0
					c18.2-10.2,57.3-11.4,87-7.1c23.6,3.4,37.3-0.8,42-2.7L315.9,109.6z"/>
				<path class="st4" d="M322.7,169.5c0.5,3.2,0.9,6.3,1.4,9.2l-0.1,0c-1.8,0.4-4,0.8-6.6,1.1l-0.1,0c1.2-2.3,2.4-4.7,3.7-7.1
					c0.6-1.2,1.2-2.3,1.7-3.4L322.7,169.5z"/>
			</g>
			<path class="st3" d="M305,26.8c3.7,0.2,8.2,0.9,10.9,3.3c3.7,3.3,3.2,8.9,2.3,19.1c-0.3,3.9-0.7,8.2-0.9,13.3l-0.6,10.7
				c-0.7,10.3-1.4,20.9-0.8,35.4l0,0.2c-4.4,1.8-18.2,6.2-41.9,2.7c-29.7-4.3-68.8-3.1-87.1,7.1l-0.1,0c-1.5-10.8-2.2-18.4-2.8-23.9
				c-1-9.7-1.3-13-3.6-15.5c-1.2-1.3-3-2-4.8-2.3c-1.1-0.2-2.3-0.3-3.3-0.3c-5.5,0-10.2,0.8-15.5,2.3l-1.2,0.4
				c-7.5,2.2-15.9,4.8-21.3-0.6c-1.1-1.1-1.3-2.6-0.8-4.4c1.7-5.7,12.7-15.8,35.8-20.2c20.9-4,43.9-4.3,68.3-4.6
				c9-0.1,18.4-0.2,28-0.6l3.9-0.1c32.8-1,37-1.2,44.5-8.6c0.7-0.7,2.2-2.6,1.8-5.1c-0.4-2.5-2.6-4.7-6.5-6.6
				c-1.7-0.8-3.2-1.4-4.7-1.7L305,26.8z"/>
		</g>
		<g>
			<g>
				<path class="st3" d="M325.1,181.2c4.5,0.1,8.9,0.7,12,1.2l0.1,0c-0.5,2.6-0.8,5.4-0.9,8.4c-0.2,4.1-0.2,8.1-0.2,12.1l0,0.2
					c-2.5,0.1-5,0.3-7.5,0.6l0-0.1c-0.8-4.6-2.1-12.7-3.6-22.4L325.1,181.2z"/>
				<path class="st3" d="M426.9,201.3c1.9,0.6,4,1.2,6.2,1.9l0.1,0.1c0.7,1.2,2.6,2.4,5.4,3.1c2,0.5,3.9,0.4,5.8-0.2l0.2,0
					c10.2,2.4,22.1,4.6,33.9,5.3c16.4,0.9,24.8-2.9,29-6.1l0.1-0.1c0,0.4,0.1,0.9,0.1,1.3c2.6,36.3,6,78.7,6.1,79.1
					c-0.4,1.1-2.9,6.8-11.1,10.4c-6.1,2.7-16.8,2.7-31.8,0c0,0-0.2-0.4-0.3-0.5c-5.8-11.5-11-24.5-17.1-37.7
					c-6.2-13.2-11.6-26-17.9-38.6C431.1,210,428.1,203.9,426.9,201.3L426.9,201.3z"/>
			</g>
			<g>
				<path class="st4" d="M334.8,95l0.1-0.2c-8.6-1.2-14.6-1.7-18.6-1.9l0,0.2c-0.2,10.6,0.2,23.1,2.2,40l0.5,4.1l0,0.1
					c1.6-3,3-5.8,4.1-8.7c2.7-6.9,4.2-14.6,6.8-21.8C331,103.7,332.7,99.5,334.8,95z"/>
				<path class="st4" d="M339.2,131c0,0-2.3,5.3-5.8,14.3c-3.1,7.9-5.2,13-10.3,23.1l0,0.3c0.6,4.2,1.2,8.2,1.8,12l0.1,0
					c4.6,0.1,9.1,0.7,12.2,1.2l0.1,0c2.6-13.7,9.1-22.1,9.1-22.1s0.6-3.5-1.6-9.4C342.7,144.5,339.2,131,339.2,131z"/>
				<path class="st4" d="M507,109.9l-0.1,0c-14.2,4.2-28.7,3.8-37.1,2.9l-0.1,0c0.3,0.3,0.6,0.6,0.8,0.9c0.5,0.5,1.5,2,1.5,2.8
					c0.1,2.6-0.1,9.6-3.1,24.5c-4,19.8-6.8,24.4-9.2,33.8c-2.5,9.4-2.6,12.8-3,17.6c-0.4,4.8-2.7,8.1-6.5,10.8
					c-1.4,1-2.9,1.9-4.3,2.5l-0.2,0.1c10,2.3,21.5,4.4,33,5.1c16.6,0.9,25-3.1,28.9-6.4l0.1-0.1C505.3,170.6,505.1,144.5,507,109.9z
					"/>
				<path class="st4" d="M429,197.1c0,0-1.3,1.6-2.9,2.6c0,0,0.1,0.3,0.4,0.8l0.1,0c1.9,0.6,4,1.2,6.3,1.9l0-0.1c0-0.1,0-0.3,0-0.4
					c0.1-1.6,0.9-1.6,3.8-3.9c2.9-2.3,3-3,3-3s-3.3,2.5-6.2,2.9C430.5,198.3,429,197.1,429,197.1z"/>
			</g>
			<g>
				<path class="st3" d="M359.7,14.4c-3.9,5.9-1.9,8.2-1.3,12.6c0.6,4.5,0.3,6.3,0.4,11c0.1,4.6,2.3,9.2,3.2,13
					c0.9,3.8,2.7,6.9,4.2,8.1c1.4,1.2,1,2.7,1,2.7s-1.3,0.1-4.7,2.5c-3.4,2.4-5,4.7-5,4.7c-5.8,0.5-9.2,2.8-13.9,9.9
					c-3.1,4.8-6,10.2-8.4,15.3l-0.1,0.2c-8.7-1.3-14.8-1.8-18.8-1.9l0-0.1c0.1-6.9,0.5-13,0.9-19l0.6-10.8c0.2-5.1,0.6-9.4,0.9-13.2
					c0.9-10.4,1.4-16.2-2.5-19.6c-1.9-1.7-4.6-2.6-7.3-3.1c-1.4-0.2-2.7-0.3-4-0.4c-5,0.1-6.1,0.3-12.9,1.5
					c-1.5,0.3-3.2,0.5-5.1,0.7c-6.2,0.5-11.3-0.4-13.9-2.7c-1-0.8-1.6-1.8-1.7-2.8l0-0.3c-0.3-3.3-0.7-8.3,26.6-11
					c24.1-2.3,33.9-2.8,61.8,2.6L359.7,14.4z"/>
				<path class="st3" d="M469.1,112.2c-1.2-1.3-2.5-2.6-3.8-3.9l0-0.3c0.1-0.8,0.1-1.6,0.2-2.5c0.7-7.2,1.3-13.2,2.1-18.4
					c2.6-17,6.7-24.9,14.3-33.6c9.9-11.3,24.7-20.5,24.7-20.5c-26.4-1-39.7,4.9-51,14.2c-5.4,4.4-10.4,9.3-14.6,14.5
					c0,0-0.2-3.4-3-6.2c-1.6-1.6-5.3-4.3-8.8-7.1c-3.5-2.9-5.3-5-5.3-7.9c0-2.8-2.2-6.9-4.2-9.2c-1.9-2.4-4.3-1.7-7.6-3.7
					c-2.1-1.2-3.4-3.2-4.8-6l-0.1-0.2c20.6,2.3,41,3.6,54.4,2.8c5.2-0.3,9.9-0.6,14.2-1c1.3-0.1,1.7-0.1,3.1-0.3
					c1.1-0.1,2.2-0.2,3.3-0.3c14.9-1.5,24-3.6,28.4-6.5c2.9-1.9,4.5-3.6,5-5.2l0.1-0.3c0.4,2.4,0.5,6.1,0,11.9l-2.1,18.3
					c-2.1,17.4-4.9,41.2-6.3,66.6c0,0.7-0.1,1.4-0.1,2.1l-0.1,0c-14.6,4.4-29.5,3.8-37.7,2.9L469.1,112.2z"/>
			</g>
		</g>
	</g>
	<g>
		<path class="st2" d="M288.7,217.7c0.5-0.5,1.1-1.1,1.8-1.6c4.3-3.1,8.5-4.3,8.6-4.3l1.3-0.4l-0.2,1.3c-0.4,2.6-0.5,6.8,0.5,7.8
			c0.1,0.1,0.2,0.2,0.4,0.2c2.1-0.1,4.6-5.6,5.2-14.6c0.5-8.1,5.9-18.4,12.1-30.4l1.7-3.3c6.6-12.8,8.9-18,12.5-27.3
			c3.4-8.9,5.8-14.3,5.8-14.3c0.2-0.9,0.2-3.2-1.1-7.4c-1.3-4.2-2.4-9.9-2.1-11.6c0.3-1.7,3.5-4,6.9-9.7c3.5-5.7,6.7-11.8,10-19.7
			c2.2-5.2,3.5-8.4,4.3-10.5c0.7-1.7,0.2-1.9-1.9-1.4c-3.9,0.9-6.7,3.6-10.2,9c-6.1,9.3-11.2,20.9-13.8,28c-1.2,3.3-2.1,6.7-3.1,10
			c-1.1,3.9-2.2,8-3.7,11.8c-1.1,2.9-2.6,5.6-4.1,8.6c-2.2,4.2-4.6,9-6.7,15.1c-2.1,6.1-4.4,13.7-6.5,21l-4.3,14.3
			c-2.7,8.4-7.1,15.7-13.2,21.6c-4.1,4-5.1,5.3-6,9.8c-0.2,0.8-0.2,1.5-0.3,2c0,0,1.1-0.8,3.2-2.1C288,218,288.7,217.7,288.7,217.7z
			"/>
		<path class="st2" d="M433.2,79.6c0.6,0.5,1.3,1,1.9,1.5c3.1,2.4,6.3,5,9.5,7.9c6.8,6.1,12.9,11.6,18.4,17c0.3,0.3,0.9,0.8,1.3,0.7
			c0.4-0.1,0.4-0.9,0.5-1.1c0.6-6.3,1.2-12.9,2.1-18.5c2.8-17.9,7.2-25.8,14.5-34.1c7.5-8.6,17.9-16,22.5-19.1
			c-24.6-0.5-36.9,5.3-47.6,14.1c-6.4,5.3-16.8,14.9-21.9,25.9c-0.5,1-0.9,2.1-1.3,3.1C432.3,78.3,432.4,78.9,433.2,79.6z"/>
		<path class="st2" d="M437.8,390.9c-5.3,0.2-5.6,2.6-6.9,6.1c-1.3,3.5-2.5,6.9,0.6,11.5c3,4.6,6.9,8.4,10.5,14.1
			c3.6,5.8,5.8,8.4,8.2,11c2.5,2.6,5.6,4.2,7.6-2c2-6.2,2.7-12.4-0.4-15.7c-3.2-3.3-5.2-7.1-7.1-11.1c-1.9-4-3.9-7.5-5.6-9.7
			C443,392.9,441.9,390.8,437.8,390.9z"/>
		<path class="st2" d="M353.9,173.6c0-23.8,13.3-43.1,29.6-43.1c16.3,0,29.6,19.3,29.6,43.1c0,23.8-13.3,43.1-29.6,43.1
			C367.2,216.7,353.9,197.4,353.9,173.6z M379.5,169.9c5.8-4.9,20.1-11.4,20.1-11.4s2.2,6.1,3.3,16.6c1.2,10.5-0.7,24.6-0.7,24.6
			c4.2-7.1,6.8-16.5,6.6-26.7c-0.3-17.9-10.5-39.4-24.3-39.4c-13.8,0-28.1,18.9-27,38.2c0.5,7.8,2.2,15.2,4.8,21.6
			C362.3,193.5,370.2,177.7,379.5,169.9z"/>
		<path class="st2" d="M443.1,119.9c2.5,2.6,4.6,5.2,5.9,7c1,1.3,1.6,2.7,1.5,5.5c-0.1,2-0.2,5.1-0.4,10
			c-0.6,11.8-2.2,19.8-2.2,19.8c-2.3,0.5-3.8,1.1-4.9,1.6c-1.4,0.7-2,2.5-2,3.3c-0.2,2.6-0.5,5.8-1,8.7c-0.7,3.6-4.6,2.5-7.2,2.6
			c-2.6,0.1-3,5.1-3.8,10c-0.7,4.9-5.5,5.8-5.5,5.8c-3.6-7.8-4.6-9.7-4.6-9.7s0.4-4.6,0.3-14.6c-0.1-10-1.9-16.5-1.9-16.5
			s2.7-2.7,11.4-14.1C435.5,130.3,441,122.7,443.1,119.9L443.1,119.9z"/>
		<path class="st2" d="M357.8,149.4c0.2-0.5,0.5-1,0.7-1.4l0.1-0.2c-0.2-0.9-0.6-1.9-1-3.2c-2.3-6.2-6.3-20.2-6.3-20.2
			s7.4,7.7,12.9,14.9l0.2-0.2c5.3-6.1,12-9.8,19.3-9.8c0.5,0,0.9,0,1.4,0l-0.7-0.2c-7.5-1.6-10.7-4-15.2-13.1
			c-6.6-13.4-8.7-25-7.6-35.2c1-10.2,6.3-16.5,6.1-18.3c0,0-1.4,0.5-3.5,2.3c-3.8,3.3-5.3,6.2-8.9,16.6c-3.6,10.4-7.8,18.5-12,23.5
			c-4.2,5.1-6.2,7.6-6.2,7.6s0.1,4.2,4.3,16.3c4.2,12.1,6.6,19.2,7.4,20.3c0.7,1.2,2,1.3,1-3.8c-1-5.1-1.9-7.5-1.9-7.5
			s8.4,8.8,10,11.5L357.8,149.4z"/>
		<path class="st2" d="M388.3,129.9c5.6,1.2,10.7,4.7,14.9,9.7l0.1,0c1.3-0.5,5.6-2.5,19.4-9.9c12.7-6.8,17.5-9.7,19.3-10.8
			l-0.1-0.1c-1-0.9-2-1.9-3.1-2.7c-6.3-5.1-13.1-6.5-23.8-3.8c0,0-6,8-10.3,11.4c-6,4.7-10.4,6.6-16,6.3L388.3,129.9z"/>
		<path class="st2" d="M383.6,25.2c0.1,0.3-0.2,0.9-0.7,0.9c-1.9,0-6.9-0.1-13,0.2c-7.9,0.4-9.7,0.5-9.8-1.2
			c-0.1-1.6,1.5-3.4,3.1-4.2c1.5-0.9,3.8-0.3,5.5-0.2c1.7,0.1,4,0.3,6.7,0.2c2.7-0.1,3.9-0.5,6,1.3
			C382.8,23.5,383.4,24.4,383.6,25.2z"/>
		<path class="st2" d="M351.4,235.4c0,0,1,8.7,6.3,33.5c5.4,24.8,9.4,42.7,15,63.1c5.6,20.4,9.8,33.7,14,46.6
			c4.2,12.9,6.2,16.2,10.4,14.4c4.2-1.7,8.5-5.8,4.6-22.7c-3.8-16.9-11.5-39.3-17.5-55.2c-6-16-13.1-33.5-21.4-53.5
			C354.7,241.5,351.4,235.4,351.4,235.4z"/>
		<path class="st2" d="M365.9,258.5c0,0,3.3,9,14.4,35.8c11.2,26.7,19,43.7,24.8,58.9c5.8,15.2,5.6,23.3,8.7,30.6
			c3.1,7.3,6.5,9.2,9.8,8.9c3.3-0.4,11-6,8.3-24.6c-2.7-18.7-11.2-37.3-21.9-53.7c-10.8-16.4-21.5-28.5-29.8-38.7
			C371.8,265.4,365.9,258.5,365.9,258.5z"/>
		<path class="st2" d="M486.7,392.8c7-2,11-11,4.2-28.1c-6.7-17.1-19-43.1-28.9-59.6c-9.8-16.5-21.4-30-33.3-44.8
			c-11.9-14.8-21-25.8-25-29.4c-4-3.7-10.8-2.1-6.2,2.1c4.6,4.2,13.6,16.2,22.3,28.9c8.8,12.6,16.6,32.9,21.7,47.5
			c6.3,18.1,13.1,35.8,19,48.9c6,13.1,9.4,22.7,13.5,28.5C478.2,392.4,479.9,394.7,486.7,392.8z"/>
		<path class="st2" d="M458.6,276.5c6.3,14.4,13.7,30,19.4,38.9c5.8,8.9,23.5,35.2,32.9,48.9c9.4,13.7,7.3,16.7,5.6,18.3
			c-1.7,1.5-4.2,0.4-7.7-3.3c-3.5-3.7-6.5-12.1-12.3-24c-5.8-11.9-15-26.6-23.3-39.3c-8.3-12.7-11.9-20-13.3-23.9
			c-1.3-3.8-4.4-14-8.5-22.7c-4-8.7-10.8-25.2-10.8-25.2S446.3,248.3,458.6,276.5z"/>
		<path class="st2" d="M365.2,215.6c-0.9-0.4,0.6,3.8,4.6,12.1c4,8.4,7.8,16,13.4,23.5c7.4,9.8,11.5,13,21.5,23.4
			c10,10.4,17.9,18.9,21.5,22.9c3.6,4,0.7-4-1.3-11c-2-6.9-9.2-22.7-17.9-32.6c-8.7-10-12.8-16.2-17.2-18
			c-4.3-1.9-8.4-3.6-14.4-10.1C369.4,219.4,367.5,216.5,365.2,215.6z"/>
		<path class="st2" d="M441.9,267.9c0.5-1.8-4-13.9-9.1-22.1c-5.1-8.2-9.7-14.4-10.2-15.3c-0.6-0.9-1.2,0-3,1.4
			c-1.9,1.4-1.9,1,2.9,8.2C427.2,247.4,441.5,269.6,441.9,267.9z"/>
		<path class="st2" d="M381.1,392.5c-3.1,0.5-5.5,2.3-8.4,3c-2.9,0.7-2.6,3-2.6,4.9s-1.3,6.8-5.1,11c-3.8,4.2-5.6,9.4-4.5,13.7
			c1.2,4.3,3.8,8.4,5.2,9.2c1.4,0.9,4.5-0.4,9.1-6.1c4.6-5.6,4.9-9.5,6.9-12.6c2-3,5.8-7.1,4.5-13.3
			C384.9,396.3,383.8,392.1,381.1,392.5z"/>
		<path class="st2" d="M389.1,116.2c0,1.3,0.6,2,1.5,0.7c1-1.3,2.1-1.7,2.8-0.8c0.7,1,1.2,1.3,1.3-1c0.1-2.2,1.5-0.4,1.7,2.3
			c0.2,2.7-2,4.6-4.8,4.6c-2.8,0-4.6-2.5-4.6-4.2c0-1.7,0.8-3.5,1.8-3.7C389.6,114.1,389.1,114.9,389.1,116.2z M366.6,52.8
			c0.8,1.2,2.1,1.5,3.8,1.5c1.6,0,2.8-0.3,3.9-0.9c1.2-0.6,1.2-1.2-0.6-2.2c-1.7-1.1-2.7-0.8-3.8-0.6c-1.1,0.2-1.3-0.2-2.3,0.1
			C366.6,51.1,366.1,52,366.6,52.8z M373.6,47.7c1.1,0,2.2-1.3,1.3-2.6c-1-1.3-1.3-2.7-1-5.3c0.3-2.6,0.7-2.9,3.2-2.7
			c2.5,0.2,5.5-0.7,6.8-1c1.3-0.3,1.9-0.4,0.3-1.8c-1.6-1.4-3.3-2.8-5.3-3c-2-0.2-2.5,1.3-4,2.4c-1.5,1.2-1.6,3-2.3,4.9
			c-0.7,1.9-0.4,2.9,0.3,4.4c0.7,1.5,1.7,2.4,1.1,3.3c-0.7,0.9-1.4,0.5-2.5,0.3c-1-0.1-1.7-0.1-1.7,0.4c0,0.5,1,0.7,1.7,0.6
			c0.8-0.1,0.7-0.7,1.2-0.4C373.2,47.5,373.2,47.7,373.6,47.7z M363.4,31.5c1.9-0.6,4.7-1.3,5.7,1c0.9,2,0.9,4.3-0.8,4.3
			c-1.6,0-3.6-0.7-4.6-1.2c-2.1-1-3-0.3-3.3,2.1c-0.2,1.7,0.1,3.7,0.5,5.5c1.1,4.5,1.8,6.9,3.7,10.7c1.8,3.8,3.8,5.8,6.8,6
			c3.1,0.2,6.3-0.8,10.2-3.2c3.9-2.4,5.2-3.4,5.8-3.7c0.6-0.3,0.9,0.8-1.2,3.6c-1.8,2.4-2.2,2.8-6.4,8c-4.4,5.4-7.1,8.9-7.6,8.9
			c-0.5,0-0.2-1.9-0.2-4.9c0-3,0-4.1-1.4-3.8c-1,0.3-2.8,4.3-4.9,10.2c-2.1,5.9-2.3,14.1-0.4,22.7c1.9,8.6,4.9,16.2,11.6,23.2
			c6.2,6.3,16.7,6.7,23.7,1.3c2.6-2,6.6-5.4,7.4-10.9c0.3-2.3,0.1-5.2-0.1-7c-0.1-0.9,0.1-2,0.9-2.7c1-0.8,2.9-1.9,6-2.6
			c5.7-1.3,15.3,2,21.2,6.2c5.9,4.1,15.6,14.2,15.6,14.2c0.4,14.2,0.5,17.3-0.7,31.2c-0.6,7.1-2.7,20.2-5.4,25.4
			c-2.3,4.5-4.8,8.8-10.3,14.7c-2.9,3.2-6,5.9-5.1,6.2c0.1,0,0.8,0.5,3.3,0.1c2.6-0.4,5.8-2.7,5.8-2.7l1.8-1.3l-0.4,2.2
			c-0.2,0.9-1.9,2.4-3.3,3.5l-1.9,1.4c-1.3,1-1.5,1.1-1.5,1.9c-0.1,1.1,1.7,2.7,5.1,3.6c3.3,0.9,6.8-0.1,10.8-3
			c3.9-2.8,5.8-6,6.1-10.2l0.1-1.2c0.4-4.2,0.7-7.9,2.9-16.5c0.8-3.2,1.7-5.8,2.6-8.6c1.8-5.6,3.9-12,6.6-25.1
			c3.1-15,3.2-21.9,3.1-24.2c0-0.5-0.7-1.6-1.3-2.3c-7.2-7.9-15.9-15.7-25.9-24.8c-4.9-4.4-10-8.3-14.7-11.8
			c-6.6-5-14.7-6.7-16.7-6.4c-2,0.3-3.1,2.1-4.8,3c-1.7,0.9-2.6,0.8-4.7-0.4c-2.1-1.2-2.9-1.7-4.5-1.3c-1.6,0.5-2.6,0.1-0.3-1.6
			c2.3-1.7,4.4-2,3-3.8c-1.4-1.8-3.3-1.7-6-2.4c-2.7-0.7-3.8-1.3-3.8-4.6c0-3.4,0.3-6.4-0.3-8.2c-0.6-1.7-0.6-2.9,0-6.1
			c0.4-2.1,0.4-4.1,0.3-5.5c0-0.7-0.3-2.1-0.7-2.7c-0.3-0.5-0.8-1-1.4-1.5c-1.3-1.1-2.7-2.1-3.8-4.6c-0.4-1-0.7-1.8-0.8-2.4
			c-0.2-0.8-0.7-1.3-1.5-1.4c-1.8-0.2-5.4-0.6-9.4-0.6c-4.6,0-9.5,0.5-11.6,0.7c-0.6,0.1-1.7,0.6-1.4,2.5
			C361.1,31.6,361.6,32.1,363.4,31.5z M368.3,46.1c-0.4-0.3-1.4-0.2-1,0.5c0.5,0.7,1.2,1,1.2,0.6C368.5,46.8,368.6,46.5,368.3,46.1z
			 M366.4,32.4c-1.1-0.2-2,0.5-1.6,1.3c0.4,0.8,2.3,1.5,2.6,1.3C367.7,34.6,367.6,32.6,366.4,32.4z M379.4,32.6
			c-1-0.2-1.8,0.9-1.8,1.5c0,0.6,0.2,0.8,1.5,0.8c1.3,0,2.3-0.5,1.8-1C380.5,33.4,380.1,32.7,379.4,32.6z"/>
		<path class="st2" d="M352.9,168.6c-0.2,0.5-0.4,1-0.6,1.4c-1,1.9-0.1,6.9,1.6,20.5c1.7,13.6,4.2,24.7,10.2,38.7
			c6.1,14,15.4,26.4,27.8,40.6c9.7,11.2,29.8,31.6,42.5,49.6c12.7,18.1,17.5,31,24.2,48.7c6.7,17.7,4.9,26,1.3,28.9
			c-3.5,2.9-10.6,1.8-10.6,1.8s-1.6-2.5-3.8-5.4c0,0-0.8-11.8-4.1-21.5c-8.5-24.7-13.9-43.2-26.4-59.2c-12.5-16-21.2-27.1-29.4-37.9
			c-8.3-10.8-31-41.8-34.1-59.8c-3.1-18.1-3.7-31.9-3.7-40c0-8.1-0.8-9-1.5-1.9c-0.8,7.1-2.1,21-0.2,42.7c1.9,21.7,5,48.9,11.5,78.9
			c6.5,30,10.2,38.9,15.2,61c5,22.1,6,27.3,4.2,30.8c-1.7,3.5-7.7,4.1-13.5,3.9c0,0-0.6-24.1-4.4-43.3c-3.8-19.2-9-35-11.7-48.1
			c-2.7-13.1-6.3-31.9-7.7-51c-1.3-19-2.9-39.1-2.3-54.4c0.6-15.4,4.8-26.6,8.3-30.4c2.9-3.2,4.9-3.9,8.3-3.8l0.2,0
			c-0.7,2.9-1.2,6-1.5,9.2L352.9,168.6z"/>
		<path class="st2" d="M438.9,64.3c-3,3.8-5.2,7.8-6.7,11.8c-0.2,0.6-1.2,1.2-2,0.4c-0.7-0.6-1.4-1.4-1.9-1.9
			c-1-1.2-0.9-3.4-3.8-4.3c-3-1-3.2-0.4-3.7-3.1c-0.5-2.7-2.8-4.8-5.1-4.7c-2.3,0.1,0-2.2-2.7-3.3c-2.7-1.1-3-2.4-4.8-3.4
			c-1.8-1,0.5-3.8-2.1-4.5c-2.6-0.7-0.1-3.9-3.8-4c-1.6,0-2.6-1.6-5.1-2.1c-2.5-0.4-4.6-2.6-4.6-4.2c0-1.6-0.4-4.5-2.3-5.6
			c-1.9-1.2-3.8-3.2-4.8-6.3c-1-3.2-0.9-6.5-3.6-7.9c-2.7-1.4-3.3-1.7-6.5-1.6c-3.2,0.1-3.8-0.3-1.6-2.9c2.2-2.6,6.2-7.9,8.2-9.1
			c2-1.2,4.5-1.4,9.8-0.1c5.3,1.3,8.9,3.5,11.3,7.4c2.3,3.9,4,9.7,6.3,12.1c2.3,2.5,5.1,2.5,7.2,3.5c2.2,1,4.9,4.2,5.5,6.8
			c0.6,2.6,0.1,7.1,5.1,11c4.9,3.9,9.4,7.7,11,9.8C439.5,59.8,440.4,62.6,438.9,64.3z M376,18c2.2-0.2,6.1,0.1,8.4,3.2
			c2.3,3.1,1.9,4.5,3,7.1c1.1,2.6,2.9,4.5,4.5,5.8c1.6,1.3,2.6,2.5,2.7,4.7c0.1,2.2,1.3,4.4,4,4.9c2.7,0.5,4.7,0.4,6.3,2.7
			c1.6,2.3,1.2,3.4,2.8,4.3c1.6,1,1.9,2.3,2.4,3.8c0.5,1.4,2.1,2.2,3.8,3.3c1.6,1.1,1.9,2.8,4.3,3.3c2.4,0.5,4,1.3,4.2,3.6
			c0.2,2.2,1.8,3.3,4,3.8c2.2,0.5,3.2,1.6,3.8,3.9c0.6,2.3,1.3,2.5,0.8,0.1c-0.5-2.4-0.8-3.9-3.9-4.9c-3.2-1-3.6-2-3.9-3.7
			c-0.4-1.6-1.2-3.4-3.4-3.7c-2.2-0.3-3-1.7-4.3-2.8c-1.3-1.1-3.2-1.7-4-3.7c-0.9-1.9-1.8-3.4-3.2-4.3c-1.3-1-0.6-3-2.8-4.4
			c-2.2-1.4-2.9-1.7-5.1-2c-2.2-0.3-4.8-1.6-4.9-3.7c-0.1-2-0.7-4.7-3.2-6.5c-2.5-1.8-4-3.9-4.3-6.5c-0.3-2.6-0.6-5.5-4-7.3
			c-3.5-1.8-6.2-1.9-7.6-1.6C374.9,17.5,375,18.1,376,18z M379.5,15.9c2.4,0,6.5,1.3,8.8,3.8c2.2,2.5,1.6,4.1,2,6.6
			c0.4,2.5,1.7,4.1,3.4,5c1.6,0.9,3.8,1.7,3.8,4.5c0.1,2.8,1.1,4.4,4.7,4.7c3.7,0.3,5.1,2.6,5.8,4.6c0.7,2,1.3,3.5,3.1,4.7
			c1.7,1.3,1.6,3.5,4.4,4.7c2.8,1.3,2.4,2.5,4.9,3.5c2.5,1,3.8,2.9,4.1,4.3c0.4,1.4,1.5,3.1,3.8,3.5c2.3,0.4,2.2,1.1,3.2,2.5
			c1,1.4,1.5,2.6,1.7,1.6c0.2-1-0.7-4-2.5-4.7c-1.8-0.7-4.4-1.3-5.3-3.5c-0.9-2.1-2.1-3.7-4.2-4.6c-2.1-1-3.2-3.2-4.7-3.6
			c-1.5-0.4-2.4-2.4-3.9-3.7c-1.5-1.3-3-3.1-3.5-4.9c-0.5-1.8-1.3-4.5-4.3-5.1c-3.1-0.6-6.3-0.9-6.5-3.6c-0.3-2.7-0.6-5.5-3.2-6.3
			c-2.6-0.8-3.9-2.8-4.1-5.5c-0.2-2.7-0.3-6-4.6-7.9c-4.3-1.9-6.5-1.9-7.6-1.5C377.7,15.6,378.2,15.9,379.5,15.9z M382.6,13.7
			c3.1,0,6.2,2,7.5,4c1.3,2,2.1,5.4,2.4,6.8c0.3,1.4,2,2.9,4.5,3.3c2.5,0.4,3.1,3.5,3.1,5.5c0,2,0.8,3.8,3.6,4.1
			c2.8,0.4,5.8,1.3,6.5,4.3c0.8,3,1.2,4.7,3.4,6.5c2.2,1.8,3.7,4.2,6.3,4.9c2.7,0.7,3.4,1.8,4.7,4.2c1.3,2.4,3.3,4.7,5.3,5.3
			c2,0.6,2.7,1.4,3.8,2.7c1.1,1.3,1.8,0.5,1.1-0.4c-0.8-0.9-1.5-1.8-3.9-3.1c-2.4-1.3-3.2-1.8-5.1-4.7c-1.9-2.9-2.5-5.2-5.3-5.4
			c-2.8-0.2-3.3-2.3-4.9-3.7c-1.6-1.3-3.1-3.1-3.4-5.5c-0.3-2.4-1-4.7-4.2-5.4c-4.2-0.9-6.7-1.5-6.7-4.5c0-3-1.6-6-4.3-6.4
			c-2.7-0.5-3.5-2.7-5-7.4c-1.5-4.7-3.4-5.9-5.9-6C383.4,12.9,379.4,13.7,382.6,13.7z M437.6,61.2c0-1.3-2.5-3.5-5.3-5.6
			c-2.8-2.1-5.6-5.3-7.9-7.7c-2.3-2.4-4-5.7-4.9-8.9c-0.9-3.3-2-6.3-6.8-7.4c-4.8-1.2-7.3-5.4-9.1-10.1c-1.8-4.7-5.2-8.9-8.4-10.6
			c-3.2-1.7-6.9-1.8-8.4-1.6c-1.4,0.2-0.8,0.6,1.2,0.6c1.9,0,5.5,1.1,8.1,3.3c2.6,2.2,4.2,3.9,5.7,8.1c1.4,4.1,3.4,8.1,6.5,9.5
			c3.2,1.4,6.4,2.8,7.7,3.9c1.3,1.2,1.5,2.3,2.3,5.1c0.8,2.8,1.3,4.3,4.3,7.4c3.1,3.1,5.7,6.8,9,9.8C435,60,437.6,62.1,437.6,61.2z
			 M385.5,10.7c-1.7,0-1,1.1,1.2,1.2c2.1,0.1,4.8,0.9,6.8,5c2,4.1,1.5,5.6,3.8,6.9c2.3,1.3,4.3,2.9,4.8,5.8c0.5,2.9,1.9,4,5.3,5.3
			c3.4,1.3,5.4,1.3,6.3,5c1,3.7,0.8,5.5,3.3,7.2c2.5,1.7,6.2,4,6.9,5.1c0.8,1.1,3.2,5.1,5,6.7c1.8,1.6,3.7,2.8,5.4,4.1
			c1.7,1.3,2.7,1.1,0.3-1.1c-2.4-2.1-4.2-3-6.3-5.9c-2-2.9-4.3-5.6-7.5-7.9c-3.2-2.3-4.7-5.2-5.5-8.6c-0.8-3.4-1.9-4.2-5.5-5.5
			c-3.6-1.3-5.8-2.2-6.8-5.3c-1.1-3.1-2.2-4.5-4.4-5.9c-2.2-1.3-1.9-3.4-3.3-6.2C394,14.1,392,10.6,385.5,10.7z"/>
		<path class="st2" d="M377.7,10c-2.6,3.1-5.2,6.3-6.7,7.9c-1.5,1.6-2.5,1.3-5.1,1.3c-2.6,0.1-3.7,0.4-5.5,2.1
			c-1.8,1.7-1.6,0.1-1.6-1.1c0-1.2,0.8-4.7,4.6-8.1c3.8-3.4,5.5-4.1,9-5.5c3.6-1.3,5.7-0.3,6.3-0.1C379.4,6.8,380.1,7.1,377.7,10z
			 M361.6,19.4c1.4-0.9,3-1.4,4.9-1.5c1.8-0.1,3.8-0.6,4.2-0.9c0.5-0.3,0-0.5-3.6,0c-3.5,0.5-5,0.9-6,1.7
			C360.1,19.5,359.9,20.5,361.6,19.4z M370.3,14.9c1.1,0,2-0.8,0.4-0.9c-1.6-0.1-4.6,0.4-6.7,1c-2.1,0.6-2.4,1.1-2.9,1.8
			c-0.5,0.7,0.7,0,2-0.5C364.3,15.7,368.9,14.8,370.3,14.9z M372.3,12.6c1.2-0.1,2-0.8,0.4-0.8c-1.6,0-5.2,0.1-7.2,0.8
			c-2,0.6-4.8,2.6-2.1,1.5C366.1,13.1,370.5,12.7,372.3,12.6z M374.9,10.5c0.6-0.2,0.1-0.8-1.7-0.8c-1.8,0-5,0.1-6,0.6
			c-1,0.4-2.1,1.3,0.6,0.8C370.4,10.6,374.4,10.7,374.9,10.5z M376.4,8.5c0.9,0,0.8-0.5-0.7-0.6c-1.4-0.1-4.6,0.2-5.5,0.5
			c-0.9,0.3-1.6,0.7,1.1,0.4C373.9,8.5,375.5,8.5,376.4,8.5z"/>
	</g>
	<g>
		<path class="st0" d="M89.8,459.8l-3.7-0.5l-38.6,18l0,0l12.9,27.7l13,2.5l25.4-11.9l0.4-0.2l-32.5,24.8l0,0l6.9,9.1l13.2-0.4
			l0.5-0.3l-0.1,1.2l-15.5,11.8l6.1,8l13.2-0.4l14.9-11.4c0,0,0.3-2.3,0.7-4.9l0-0.3l6.2-0.2l2.7-2.1l0.5-0.4l-1.3,1.5l6.8,6.3
			l-24,26.2l0,0l8.1,7.4l13-2.7c0,0,9.6-10.4,16.7-18.1l0.1-0.1l1.1,1l10.7-2.2l0.2,0l-21.2,36.5l0,0l26.9,15.6l12.1-5.4l11.2-19.4
			l0.2-0.3l-10.1,32.9l0,0l10.6,3.2l10.6-8c0,0,0.1-0.3,0.2-0.8l0.1-0.3l2.4,13.2l0.1,0l0,0l7.4,2.3l10.6-8l2.6-8.5l0,0.3l-0.7,22.3
			l11.3,0.3l7.1-9.3l0.1-0.2l-0.6,18.4l0,0l11.3,0.4L248,624l1.6-51.7l-16.8-0.6l-0.1,0.1L219,589.4l-6.4,9.1l-0.1,0.2l8.9-29.1
			l-11-3.4l-8.8,7.3l0-0.2c-1-5.4-1.9-10.4-1.9-10.4l-0.2-0.1l-9.9-3l-6.1,5.1l0.1-0.2l3.5-6.1l-10.3-6l-11.9,6.1l-10.2,17.6
			l-0.4-0.2c0.2-0.4,15.8-27.3,15.8-27.3l-10.3-6l-8.6,4.3l0.2-0.2l5.7-6.2l-22.3-20.1l-9.1,2.3l0.1-0.1l6.7-5.1L114,493.3
			l-12.3,0.9l0.2-0.1l10.6-5l-13.1-28.1l-9.1-1.3l0.2-0.1l7.9-1.3l-4.7-27.8l-12.3-5.3l-42,7.1l0,0l1.9,11.3l11.9,5.9
			c0,0,4-0.7,8.3-1.4l0.2,0l11.6,5.7l4.6-0.8l0.2,0l0.2,0.9l11.6,5.7L89.8,459.8z"/>
		<path class="st4" d="M93.2,431.2c0.1,0.4,4.5,26.4,4.6,26.9c-0.4,0.1-6.9,1.2-7.4,1.2c-0.1-0.4-2.7-16-2.7-16L77.4,445
			c0,0,1.2,7.1,1.3,7.5c-0.4,0.1-4.7,0.8-5.1,0.9c-0.1-0.4-1.3-7.5-1.3-7.5S53.9,449,53.5,449c-0.1-0.4-1.8-10.4-1.8-10.8
			C52.1,438.1,92.7,431.3,93.2,431.2z"/>
		<path class="st4" d="M99.1,461.7c0.2,0.4,12.5,26.8,12.7,27.2c-0.4,0.2-37.7,17.6-38.1,17.8c-0.2-0.4-12.5-26.8-12.7-27.2
			C61.4,479.4,98.7,461.9,99.1,461.7z M97,474.8l-24.2,11.3l3.4,7.3l24.4-11.4l-3.4-7.3L97,474.8z"/>
		<path class="st4" d="M113.9,493.9c0.3,0.4,17.7,23.2,18,23.5c-0.2,0.1-18.4,14-18.7,14.3c-0.3-0.3-5.6-7.3-5.6-7.3
			s-1.9,12.9-1.9,13c-0.1,0.1-14.1,10.7-14.4,11c-0.3-0.3-5.5-7.3-5.8-7.6c0.4-0.3,15.4-11.8,15.4-11.8l1.4-11.7l-0.4-0.5
			c0,0-14.4,11-14.8,11.3c-0.3-0.3-6.4-8.4-6.7-8.7C80.8,519.2,113.5,494.2,113.9,493.9z M113.4,508.1l-7.1,5.4l5.5,7.2l7.3-5.5
			l-5.5-7.2L113.4,508.1z"/>
		<path class="st4" d="M134.9,521.1c0.3,0.3,21.1,19.4,21.4,19.7c-0.3,0.3-6.4,7-6.7,7.3c-0.3-0.3-6.8-6.3-6.8-6.3
			s-23.7,25.8-24,26.2c-0.3-0.3-7.4-6.8-7.8-7.1c0.3-0.3,24-26.2,24-26.2s-6.5-6-6.8-6.3C128.5,528,134.6,521.4,134.9,521.1z"/>
		<path class="st4" d="M159.9,543.4c0.4,0.2,9.1,5.3,9.5,5.5c-0.2,0.4-15.8,27.3-15.8,27.3l7.5,4.4c0,0,15.6-26.9,15.8-27.3
			c0.4,0.2,9.1,5.3,9.5,5.5c-0.2,0.4-20.9,36-21.1,36.4c-0.4-0.2-26.2-15.1-26.5-15.4C139,579.4,159.6,543.8,159.9,543.4z"/>
		<path class="st4" d="M189.8,560.4c0.4,0.1,9.2,2.8,9.4,2.9c0,0.2,4.6,24.6,4.6,24.6l0.4,0c0,0,6.3-20.6,6.5-21.1
			c0.4,0.1,9.7,3,10.1,3.1c-0.1,0.4-12.2,39.9-12.4,40.3c-0.4-0.1-7.2-2.2-7.2-2.2c0-0.2-5.5-29.5-5.5-29.5l-0.4,0
			c0,0-7.6,24.9-7.8,25.3c-0.4-0.1-9.7-3-10.1-3.1C177.6,600.3,189.7,560.8,189.8,560.4z"/>
		<path class="st4" d="M233,572.2c0.2,0,15.6,0.5,16.1,0.5c0,0.5-1.6,50.3-1.6,50.8c-0.4,0-10.4-0.3-10.8-0.3
			c0-0.5,0.8-26.6,0.8-26.6l-7.5-0.2c0,0-0.5,17.4-0.6,17.9c-0.4,0-10.4-0.3-10.8-0.3c0-0.5,0.8-24.3,0.8-24.4
			C219.5,589.4,232.9,572.4,233,572.2z M237.6,580.1l-7.3,9.1l0,0.6l7.5,0.2l0.3-10.4L237.6,580.1z"/>
	</g>
	<g>
		<path class="st0" d="M356.5,552.4l6.7,7.2l6.8-6.3l24.2,26l0,0l8.1-7.5l-1.6-13.1c0,0-9.7-10.4-16.8-18l-0.1-0.1l1.1-1l-1.6-13.1
			l-7.4-7.9l-0.2,0.2l-21.8,20.3l1.6,9.4l0,0.3l-4.7-7.6l-0.2,0.1l-25.4,15.6l-0.2,7.5l-0.1-0.2l-2.8-6.3l-0.2,0.1l-10.7,4.7
			l-2.2,13.2l1.5,3.4l-0.2,0c-2,0.6-4.4,1.3-6.7,2l-0.1,0l-1.2-4.3l6.7-4.8l-2.3-8.1l-0.2,0.1l-17.8,5.1l-6.1,10.8l-4,12.6l4.1,14.4
			l0,0l5.4-1.5l0.1,0l-3.2,10.2l2.5,8.6l21-6v0l1.3-0.4l5.6-8.9l3.7-10.3l0.1-0.1l7,16l0,0l10.5-4.6l2.8-12.9l-8.2-18.7l0,0l7-4.3
			l18.6,30.3l0,0l9.4-5.8l1-13.2c0,0-7.4-12-12.9-20.9l-0.2-0.3l1.3-0.8l0.8-11.1L356.5,552.4z"/>
		<path class="st4" d="M306.5,564.5c0.1,0.4,1.9,6.8,2,7.2c-0.4,0.1-15.1,4.3-15.1,4.3l2.2,7.9c0,0,18.3-5.3,18.7-5.4
			c0.1,0.4,5,17.7,5.1,17.9c-0.1,0.2-5.5,8.6-5.5,8.7c-0.1,0-19.8,5.6-22,6.3c-0.1-0.4-2.2-7.8-2.3-8.2c0.4-0.1,18.8-5.4,18.8-5.4
			l-2.6-9.1c0,0-18.3,5.3-18.8,5.4c-0.1-0.4-4-13.9-4-14.1c0.1-0.2,5.9-10.3,6-10.5C289.3,569.4,306.1,564.6,306.5,564.5z"/>
		<path class="st4" d="M322.1,558.2c0.2,0.4,16.7,38.2,16.9,38.6c-0.4,0.2-9.7,4.2-10.1,4.4c-0.2-0.4-16.7-38.2-16.9-38.6
			C312.4,562.5,321.7,558.4,322.1,558.2z"/>
		<path class="st4" d="M350.7,541.6c0.2,0.4,5,8.1,5.2,8.4c-0.4,0.2-7.9,4.9-7.9,4.9s18.4,29.9,18.6,30.3c-0.4,0.2-8.6,5.3-9,5.5
			c-0.2-0.4-18.6-30.3-18.6-30.3s-7.5,4.6-7.9,4.9c-0.2-0.4-5-8.1-5.2-8.4C326.3,556.6,350.3,541.8,350.7,541.6z"/>
		<path class="st4" d="M375.8,519.1c0.3,0.3,6.5,6.9,6.8,7.3c-0.3,0.3-6.8,6.3-6.8,6.3s23.9,25.7,24.2,26c-0.3,0.3-7.4,6.9-7.7,7.2
			c-0.3-0.3-24.2-26-24.2-26s-6.5,6-6.8,6.3c-0.3-0.3-6.5-6.9-6.8-7.3C354.9,538.6,375.5,519.4,375.8,519.1z"/>
	</g>
	<g>
		<path class="st0" d="M405.4,504.1l34.7,17.2l0,0l5.1-10.2l-6.2-11.7c0,0-0.1-0.1-0.3-0.2l-0.2-0.1l1.2-0.4l17.5,8.7l4.5-9
			l-6.2-11.7l-16.8-8.4l-4.9,1.6l-2.9-5.5l-9.7-4.8l0.4,0.1l38.2,9.2l0,0l4.9-20.4l-7.7-11.7l-8.7-10.1l-21.5-5.2l-0.1,0l-12.4,6.9
			l-5,20.7l7.7,8.1l0.2,0.2l-6-3l-1.8-0.9l-0.1-0.1l-0.2-0.1l-0.1,0.2l-13.5,27.1l6.1,10.3l-0.1-0.1l-8.5-5.9l-0.1,0.2l-9.5,13.6
			l7.2,21.2l4.9,12.3l20.3,14.1l6.4-9.3l-3.9-11L418,536l15.1,10.5l0,0l6.4-9.3l-4.4-12.5l-29.3-20.3L405.4,504.1z"/>
		<path class="st4" d="M392.8,495.9c0.4,0.3,41.4,28.7,41.7,29c-0.2,0.4-5.9,8.6-6.2,8.9c-0.4-0.3-21.8-15.2-21.8-15.2l-4.2,6.1
			c0,0,14.3,9.9,14.7,10.2c-0.2,0.4-5.9,8.6-6.2,8.9c-0.4-0.3-20-13.8-20.1-13.9c0-0.1-7-20.6-7.1-20.9
			C383.7,508.9,392.5,496.2,392.8,495.9z M392.7,509.5l3.6,11.1l0.5,0.3l4.3-6.1l-8.5-5.9L392.7,509.5z"/>
		<path class="st4" d="M409,464.2c0.1,0.1,20.7,10.3,21.1,10.5c-0.2,0.4-4.1,8.2-4.1,8.2s12.4-4,12.5-4.1c0.2,0.1,15.9,7.9,16.3,8.1
			c-0.2,0.4-4.1,8.2-4.2,8.6c-0.4-0.2-17.4-8.6-17.4-8.6l-11.1,3.9l-0.3,0.6c0,0,16.2,8,16.6,8.3c-0.2,0.4-4.7,9.4-4.9,9.8
			c-0.4-0.2-37.3-18.5-37.7-18.7C396,490.3,408.8,464.6,409,464.2z M412.5,476.8l-3.9,7.9l8.2,4.1l4-8.1l-8.2-4.1L412.5,476.8z"/>
		<path class="st4" d="M426.6,432.1c0.2,0,21,5.1,21.1,5.1c0.1,0.1,7.5,11.4,7.6,11.6c0,0.2-4.7,19.6-4.8,20
			c-0.4-0.1-40.5-9.8-40.9-9.9c0.1-0.4,4.8-19.9,4.8-20C414.6,438.8,426.5,432.2,426.6,432.1z M422.1,442.5l-1.8,7.7l24.5,5.9
			l1.9-7.9l-24.5-5.9L422.1,442.5z"/>
	</g>
</g>
</svg>
