<?xml version="1.0" encoding="utf-8"?>
<!-- Generator: Adobe Illustrator 23.0.3, SVG Export Plug-In . SVG Version: 6.00 Build 0)  -->
<svg version="1.1" id="Ñëîé_1" xmlns="http://www.w3.org/2000/svg" xmlns:xlink="http://www.w3.org/1999/xlink" x="0px" y="0px"
	 viewBox="0 0 518.9 598.7" style="enable-background:new 0 0 518.9 598.7;" xml:space="preserve">
<style type="text/css">
	.st0{fill:#FFFFFF;}
	.st1{fill:#F0C825;}
	.st2{fill:#1A9057;}
	.st3{fill:#998553;}
</style>
<g>
	<g>
		<path d="M510.5,0H5.5l0.3,2.8c0.1,0.9,2.6,23,14.1,51.6l3.9,9.5c10,24.1,22.4,54,21.4,90.2c-1.4,51.2-14.3,85.2-25.7,115.2
			C7.1,301.9-3.6,330.1,1.2,372c4.9,43.2,35.4,97.2,79.6,141.1c51.9,51.6,115.3,82,178.6,85.6l0.1,0l0.1,0
			c63.2-3.7,126.7-34.1,178.6-85.6c44.1-43.9,74.6-97.9,79.6-141.1c4.8-41.9-5.9-70.1-18.3-102.7c-11.4-30-24.3-64-25.7-115.2
			c-1-36.2,11.4-66.1,21.4-90.2l3.9-9.5c11.5-28.6,14-50.7,14.1-51.6l0.3-2.8H510.5z"/>
		<path class="st0" d="M62.1,454.1c55.3-77.5,206.4-289.6,206.4-289.6s65-91.2,100.2-140.5l0.1-0.2c64.6,0,113.2,0,115.4,0
			c-2.1,7.4-4.5,14.7-7.3,21.7c0,0,0.1-0.2,0.2-0.3c-0.4,0.8-1.2,2.8-4,9.5c-2.7,6.5-5.7,13.6-8.5,21.4l-0.4,1.2
			c-59.3,83.2-275.9,387.1-323.9,454.4l-0.3-0.2C108.4,510,82.1,482.6,62.7,455L62.1,454.1z"/>
		<path class="st1" d="M160.5,544.5l289.4-406l0.4-0.4c-0.3,3.9-0.4,7.9-0.4,11.9l0.1,4.7c0.1,2.3,0.1,4.5,0.3,6.8l-0.7,1.1
			C364,282.5,234.1,464.6,173.3,550l-0.5,1c-3.8-1.9-7.6-3.9-11.2-5.9L160.5,544.5z"/>
		<path class="st2" d="M30.3,393.2c-2.8-8.5-4.7-16.6-5.5-23.9c-0.7-5.8-1-11.6-1-17.1c0-27.3,7.9-48.1,17.9-74.4
			c12-31.8,25.7-67.8,27.2-123L69,150c0-39.1-13.4-71.6-23.3-95.3L42,45.5c-2.8-7-5.2-14.3-7.3-21.7c3.7,0,138,0,258.9,0l-0.1,0.3
			L31,392.3L30.3,393.2z"/>
		<path class="st2" d="M41.1,419c73.6-103.3,208.6-292.7,281.5-394.9l0.1-0.3c5.6,0,11.2,0,16.7,0l-0.2,0.3L48.6,431.9l-0.4,0.5
			c-2.4-4.2-4.6-8.3-6.7-12.4L41.1,419z"/>
		<path class="st1" d="M195.7,559.5l257.5-361.2l0.6-1c5.2,32.6,14.7,57.6,23.3,80.4c10,26.3,17.9,47.1,17.9,74.4
			c0,5.5-0.3,11.3-1,17.1c-7.7,67.7-102.7,197.2-234.6,205.6c-22.7-1.4-44.3-6.5-64.5-14.1L195.7,559.5z"/>
		<path class="st3" d="M507.6,5.1c-1,6.8-4.4,25.3-13.3,47.4l-3.9,9.4c-9.8,23.6-21.8,52.7-21.8,88c0,1.4,0,2.9,0.1,4.3
			c1.4,52,14.5,86.5,26,116.9c10.1,26.7,19.1,50.3,19.1,81c0,6.1-0.4,12.5-1.1,19.2c-4.7,41.4-35.4,95.6-78.1,138.1
			c-51,50.6-113.2,80.5-175.1,84.2c-61.9-3.6-124.1-33.5-175.1-84.2C41.6,467,11,412.8,6.2,371.4c-0.8-6.8-1.1-13.1-1.1-19.3
			c0-30.7,9-54.4,19.1-81c11.5-30.4,24.6-64.9,26-116.9c0-1.4,0.1-2.9,0.1-4.3c0-35.3-12.1-64.4-21.8-88l-3.9-9.4
			C15.7,30.4,12.3,11.9,11.3,5.1C17,5.1,501.9,5.1,507.6,5.1z M186.9,563c22.5,9.3,46.7,15.4,72.3,17l0.2,0l0.2,0
			c134.7-8.5,231.6-140.8,239.5-210.1c0.7-6,1-12,1-17.7c0-28.2-8.4-50.5-18.2-76.2c-9.6-25.3-20.2-53.4-24.8-91.8l-0.6,0.7
			c-86.1,120.7-205.6,288.4-269,377.4L186.9,563z M35.3,418.5c3.7,7.6,7.9,15.4,12.8,23.3l0.5-0.8C117.7,343.9,279.4,117,349.2,19.1
			l0.3-0.4h-29.2l-0.4,0.5l-284,398.5L35.3,418.5z M28.9,403.9C104.2,298.3,227.6,125.2,303,19.4l0.5-0.7H27.9l0.9,3.2
			c2.3,8.7,5.1,17.3,8.5,25.5l3.8,9.2C50.7,80,63.9,111.9,63.9,150l-0.1,4.6c-1.5,54.3-15,89.9-26.9,121.3
			c-9.8,25.8-18.2,48-18.2,76.2c0,5.7,0.3,11.7,1,17.7c1.1,10,4.1,21.3,8.8,33.4L28.9,403.9z M153.1,546c6.9,4.1,14,7.9,21.3,11.4
			l0.6-1l279.9-392.7l0.5-0.6c-0.1-2.8-0.3-5.6-0.3-8.5L455,150c0-10.8,1.1-21.1,2.8-30.9l0.1-0.7c-82.5,115.7-249,349.3-304.4,427
			L153.1,546z M55.9,453.9c21,30.7,50.2,61.4,85.7,84.9l0.4-0.6L467.6,81.5l1-1.4c3.1-8.5,6.3-16.3,9.3-23.4c0,0,3.8-9.3,3.8-9.3
			c3.3-8.3,6.2-16.9,8.5-25.6l0.9-3.2h-3.3H366.2L366,19L56.6,453L55.9,453.9z"/>
	</g>
	<g>
		<g>
			<path d="M121.2,403.3l-29,40.6l60.6,43.2L163,473c0,0-19.3-13.8-24.4-17.4c3.7-5.2,18.8-26.3,18.8-26.3l-13.4-9.5
				c0,0-15.1,21.1-18.8,26.3c-3.2-2.3-6.4-4.5-9.5-6.8c3.9-5.4,21.3-29.9,21.3-29.9l-13.4-9.5L121.2,403.3z"/>
			<path class="st3" d="M157.1,474l-5.2,7.3l-53.7-38.3l26.5-37.2l6.4,4.6l-21.3,29.9l16.5,11.7l18.8-26.3l6.4,4.6l-18.8,26.3
				L157.1,474z"/>
		</g>
		<g>
			<path d="M145.2,366.6c-6,8.4-8.3,17.2-6.8,26.2c1.6,9.7,8.1,19.5,17.4,26.1c15.8,11.3,38.3,13.5,52.9-7l0,0
				c6-8.4,8.3-17.2,6.8-26.2c-1.6-9.7-8.1-19.5-17.4-26.1C182.3,348.3,159.8,346.1,145.2,366.6z M187.9,374
				c11.2,8,14.1,19.1,7.5,28.3c-6.6,9.3-18.1,10.1-29.2,2.1c-7.2-5.1-11-11.6-11-18c0-3.5,1.1-7,3.5-10.3
				C165.2,366.8,176.7,366,187.9,374z"/>
			<path class="st3" d="M205.3,409.4c-14.3,20-35.4,14.3-46.9,6c-11.6-8.3-23.9-26.3-9.6-46.3c14.3-20.1,35.4-14.3,46.9-6
				C207.3,371.3,219.6,389.3,205.3,409.4z M155.1,373.6c-8.3,11.7-4.1,25.3,8.5,34.3c12.6,9,26.9,8.5,35.2-3.1
				c8.3-11.7,4.1-25.3-8.5-34.3C177.7,361.5,163.5,361.9,155.1,373.6z"/>
		</g>
		<g>
			<path d="M257.4,319l-10.1-6.5c-5.4-3.6-9.5-4.2-12.9-3.6c-0.7-4.6-3-9.4-9.2-13.8c-5.1-3.7-10.4-5.1-15.7-4.2
				c-6.3,1.1-12.1,5.3-17.3,12.6L172,331.9l60.6,43.2l10.1-14.2c0,0-18-12.9-23-16.4c3.2-4.5,10.1-14.1,10.1-14.1
				c4.1-5.7,6.7-4.5,10.5-1.8c0.1,0.1,10.2,7.2,15.5,8.9l3,1l10.6-14.9C269.4,323.6,261.8,321.9,257.4,319z M205.7,312.4
				c1.1-1.6,2.8-3.7,4.9-4c1.4-0.2,3.1,0.4,5.1,1.8c2.1,1.5,3.4,2.9,3.4,5c0,1.7-0.9,3.8-2.9,6.6c0,0-6.4,9-9.5,13.4
				c-3.5-2.5-7.8-5.6-11.3-8.1C198.5,322.5,205.7,312.4,205.7,312.4z"/>
			<path class="st3" d="M236.9,361.9l-5.2,7.3L178,330.9l17.7-24.8c6.3-8.8,15.7-15.5,27-7.4c7.9,5.7,8,11.8,7.5,16.7
				c3.5-2.2,7-4.3,14.7,0.8l10,6.5c3,2.1,8,2.7,8,2.7l-5.8,8.2c-4-1.3-12.4-6.9-14.4-8.3c-4.4-3.1-10.2-5.9-16.4,2.8l-12.5,17.6
				L236.9,361.9z M207.6,341.1l12-16.8c3.8-5.3,6.4-11.9-1.5-17.5c-8.3-5.9-13.3-0.3-15.9,3.3L189.3,328L207.6,341.1z"/>
		</g>
		<g>
			<path d="M244.4,230.5l-33.6,47.1l13.4,9.5c0,0,9.7-13.6,13-18.2c6,4.2,47.3,33.7,47.3,33.7l10.1-14.2c0,0-41.3-29.5-47.3-33.7
				c3.2-4.5,13-18.2,13-18.2l-13.4-9.5L244.4,230.5z"/>
			<path class="st3" d="M216.8,276.6l31.1-43.6l6.4,4.6l-13,18.2l47.3,33.7l-5.2,7.3L236.2,263l-13,18.2L216.8,276.6z"/>
		</g>
		<g>
			<path d="M293.2,260.9c0,5.2,4.2,9.4,9.4,9.4c5.2,0,9.4-4.2,9.4-9.4c0-5.2-4.2-9.4-9.4-9.4C297.5,251.5,293.2,255.7,293.2,260.9z"
				/>
			<path class="st3" d="M302.7,255.7c-2.8,0-5.2,2.3-5.2,5.2c0,2.8,2.3,5.2,5.2,5.2c2.8,0,5.2-2.3,5.2-5.2
				C307.8,258,305.5,255.7,302.7,255.7z"/>
		</g>
		<g>
			<path d="M291.3,161.8c-10.8,15.2-5.6,29.1,4.4,36.3c4.7,3.4,14.4,7.5,26.1-2.7l10.4-9.2c8.3-7.3,9.5-6.4,12.4-4.4
				c1.3,0.9,2,2,2.2,3.3c0.5,2.8-1.1,7-4.2,11.3c-3.7,5.2-9.7,10.2-17.2,4.9l-3.5-2.5l-9.8,13.7l3.5,2.5c5.1,3.6,11.5,7,20.9,4.9
				c5.3-1.2,11.8-3.8,19.3-14.2c8.4-11.8,12.3-28.2-2.2-38.5c-9.2-6.5-19.2-5.7-28.3,2.2l-14.5,12.9c-3.2,2.8-4.6,2.3-6,1.2
				c-1.7-1.2-2.6-2.5-2.9-4c-0.4-2.4,0.8-5.6,3.2-9c2.5-3.6,7.8-8.9,14.6-4.4l3.4,2.2l9.8-13.8l-3.8-2.4
				C311.6,140.7,298.9,151.1,291.3,161.8z"/>
			<path class="st3" d="M322,162.3c-8.6-5.5-16.1-0.5-20.4,5.5c-3.3,4.6-7.5,13.2,0.7,19c4.6,3.3,8.4,1.1,11.3-1.5l14.5-12.8
				c6.6-5.8,14.5-8,23.1-2c12.7,9.1,7.8,23.4,1.3,32.6c-7.1,10-12.9,11.7-16.7,12.6c-7.4,1.6-12.5-0.7-17.5-4.2l4.9-6.8
				c9.7,6.9,18.2,1,23.1-5.9c3.7-5.2,8.7-15,1-20.5c-5.6-4-9.3-2.7-17.7,4.7l-10.4,9.2c-3.3,2.9-11.5,9.1-20.8,2.4
				c-8.4-6-12.7-17.3-3.4-30.3c13.4-18.8,25.9-12.6,32.1-8.7L322,162.3z"/>
		</g>
		<g>
			<path d="M364.7,160.8c0,5.2,4.2,9.4,9.4,9.4c5.2,0,9.4-4.2,9.4-9.4c0-5.2-4.2-9.4-9.4-9.4C368.9,151.3,364.7,155.6,364.7,160.8z"
				/>
			<path class="st3" d="M374.1,155.6c-2.8,0-5.2,2.3-5.2,5.2c0,2.8,2.3,5.2,5.2,5.2c2.8,0,5.2-2.3,5.2-5.2
				C379.2,157.9,376.9,155.6,374.1,155.6z"/>
		</g>
		<g>
			<path d="M350.8,78.3c-5.6,7.9-7.9,16.7-6.4,25.3c1.6,9.8,7.7,18.6,17.5,25.6c23.7,16.9,42.7,8,51.7-4.8
				c3.9-5.5,15.1-24.9-4.9-44.1l-3.6-3.4l-9.9,13.9l2.4,2.5c8.9,9.5,6,16.9,3.4,20.5c-4.4,6.2-12.2,12.9-29.1,0.9
				c-11-7.9-14-18.1-7.8-26.9c4.7-6.5,10.3-8.4,16.7-5.7l3.2,1.4l9.8-13.7l-4.2-2.3C378.5,61.4,362.2,62.3,350.8,78.3z"/>
			<path class="st3" d="M382.6,78.3c-10.9-4.7-18.2,1.9-21.9,7.1c-6.9,9.7-5.4,22.7,8.8,32.8c12.6,9,25.6,11.5,35.1-1.9
				c3.4-4.7,6.9-14.5-3.8-25.8l5-7c18.1,17.4,7.3,34.5,4.4,38.6c-8.7,12.2-25.2,18.5-45.8,3.8c-16.5-11.8-21.3-29.4-10.1-45
				c9.9-13.8,23.6-14.9,33.3-9.5L382.6,78.3z"/>
		</g>
		<g>
			<path d="M423.3,78.4c0,5.2,4.2,9.4,9.4,9.4c5.2,0,9.4-4.2,9.4-9.4c0-5.2-4.2-9.4-9.4-9.4C427.5,69,423.3,73.3,423.3,78.4z"/>
			<path class="st3" d="M432.7,73.3c-2.8,0-5.2,2.3-5.2,5.2c0,2.8,2.3,5.2,5.2,5.2c2.8,0,5.2-2.3,5.2-5.2
				C437.9,75.6,435.6,73.3,432.7,73.3z"/>
		</g>
	</g>
</g>
</svg>
