<?xml version="1.0" encoding="utf-8"?>
<!-- Generator: Adobe Illustrator 13.0.0, SVG Export Plug-In . SVG Version: 6.00 Build 14948)  -->
<!DOCTYPE svg PUBLIC "-//W3C//DTD SVG 1.0//EN" "http://www.w3.org/TR/2001/REC-SVG-20010904/DTD/svg10.dtd">
<svg version="1.0" id="HQFL" xmlns="http://www.w3.org/2000/svg" xmlns:xlink="http://www.w3.org/1999/xlink" x="0px" y="0px"
	 width="485.467px" height="603.959px" viewBox="0 0 485.467 603.959" enable-background="new 0 0 485.467 603.959"
	 xml:space="preserve">
<path fill="#FFDD00" d="M0,301.979c0,166.512,108.89,301.979,242.734,301.979s242.733-135.468,242.733-301.979
	C485.467,135.468,376.578,0,242.734,0S0,135.468,0,301.979z"/>
<path fill="#FFFFFF" d="M7.686,301.979c0-162.274,105.442-294.293,235.048-294.293c129.606,0,235.048,132.019,235.048,294.293
	S372.34,596.273,242.734,596.273C113.128,596.273,7.686,464.254,7.686,301.979z"/>
<path fill="#FFDD00" d="M242.734,27.712c-118.564,0-215.022,123.036-215.022,274.268s96.458,274.268,215.022,274.268
	c118.564,0,215.023-123.036,215.023-274.268S361.298,27.712,242.734,27.712z"/>
<path d="M299.138,45.427v513.105c20.222-7.359,39.189-18.581,56.405-32.99V78.417C338.328,64.008,319.36,52.786,299.138,45.427z"/>
<path d="M411.948,148.095v307.768c24-43.499,38.123-96.61,38.123-153.884S435.948,191.596,411.948,148.095z"/>
<path d="M186.329,45.427v513.105c17.94,6.53,36.86,10.029,56.405,10.029V35.398C223.189,35.398,204.27,38.897,186.329,45.427z"/>
<path d="M73.521,148.095v307.768c15.197,27.546,34.36,51.227,56.405,69.679V78.417C107.881,96.869,88.718,120.549,73.521,148.095z"
	/>
<path fill="#004A99" d="M355.543,78.417v447.125c22.044-18.452,41.206-42.133,56.404-69.679V148.095
	C396.75,120.551,377.587,96.869,355.543,78.417z"/>
<path fill="#004A99" d="M35.398,301.979c0,57.273,14.123,110.385,38.123,153.884V148.095
	C49.521,191.596,35.398,244.706,35.398,301.979z"/>
<path fill="#004A99" d="M242.734,35.398v533.164c19.545,0,38.465-3.499,56.404-10.029V45.427
	C281.199,38.897,262.279,35.398,242.734,35.398z"/>
<path fill="#004A99" d="M129.926,78.417v447.125c17.215,14.409,36.184,25.631,56.403,32.99V45.427
	C166.109,52.786,147.141,64.008,129.926,78.417z"/>
<path fill="#FFDD00" d="M299.492,275.007l23.7,88.445h-123.36l0,0c-41.446,0-75.249-33.804-75.249-75.25
	c0-36.063,25.592-66.337,59.543-73.593l0,0l-23.78-88.751h6.945L155.34,81.254h92.237l11.952,44.604h25.769l0,0
	c41.446,0,75.249,33.803,75.249,75.248C360.546,237.699,334.19,268.335,299.492,275.007L299.492,275.007z M285.297,212.956
	c6.527,0,11.85-5.324,11.85-11.85s-5.322-11.849-11.85-11.849l0,0h-8.782l6.351,23.699H285.297L285.297,212.956z M200.671,276.354
	h-0.84l0,0c-6.527,0-11.849,5.322-11.849,11.848c0,6.527,5.322,11.85,11.849,11.85l0,0h7.189L200.671,276.354L200.671,276.354z"/>
<path fill="#FFFFFF" d="M345.253,234.302c-10.832,19.46-30.864,33.151-54.146,35.12c-0.011,0-0.021,0.001-0.033,0.002l0,0
	l23.402,87.339H199.832l0,0c-37.762,0-68.56-30.798-68.56-68.56c0-35.292,26.906-64.505,61.256-68.17l0,0l-23.44-87.485l6.927,0.022
	l-11.958-44.628h78.394l11.951,44.605h30.896l0,0c37.762,0,68.56,30.798,68.56,68.559
	C353.857,213.134,350.733,224.456,345.253,234.302L345.253,234.302z M277.738,219.644h7.56l0,0c10.21,0,18.538-8.327,18.538-18.538
	c0-10.21-8.328-18.539-18.538-18.539l0,0h-17.493L277.738,219.644L277.738,219.644z M215.76,306.741l-9.934-37.076h-5.995l0,0
	c-10.21,0-18.539,8.328-18.539,18.538c0,10.211,8.328,18.539,18.539,18.539l0,0H215.76L215.76,306.741z"/>
<path d="M281.022,350.073h-9.985l-9.818-36.643h9.984L281.022,350.073L281.022,350.073z M264.113,350.073h-64.281l0,0
	c-34.078,0-61.872-27.794-61.872-61.871c0-34.076,27.793-61.869,61.872-61.869l0,0h31.124l9.819,36.643h-40.943l0,0
	c-13.896,0-25.228,11.333-25.228,25.227c0,13.896,11.333,25.228,25.228,25.228l0,0h54.462L264.113,350.073L264.113,350.073z
	 M237.879,226.333h9.985l9.819,36.643h-9.985L237.879,226.333L237.879,226.333z M259.425,306.741l-9.935-37.076h9.985l9.935,37.076
	H259.425L259.425,306.741z M236.088,219.644l-9.934-37.076h9.984l9.936,37.076H236.088L236.088,219.644z M276.334,306.741
	l-9.934-37.076h6.202l9.934,37.076H276.334L276.334,306.741z M252.998,219.644l-9.934-37.076h6.202l9.934,37.076H252.998
	L252.998,219.644z M289.461,306.741l-9.935-37.076h4.686l9.934,37.076H289.461L289.461,306.741z M266.125,219.644l-9.936-37.076
	h4.686l9.934,37.076H266.125L266.125,219.644z M254.791,226.333h6.2l9.819,36.643h-6.202L254.791,226.333L254.791,226.333z
	 M305.758,350.073h-4.686l-9.819-36.643h4.686L305.758,350.073L305.758,350.073z M294.147,350.073h-6.2l-9.819-36.643h6.2
	L294.147,350.073L294.147,350.073z M247.471,132.548l-10.16-37.916h-4.686l10.161,37.916H247.471L247.471,132.548z M225.702,94.632
	H219.5l10.159,37.916h6.202L225.702,94.632L225.702,94.632z M212.575,94.632h-9.984l10.159,37.916h9.985L212.575,94.632
	L212.575,94.632z M195.666,94.632h-22.892l10.161,37.916h22.891L195.666,94.632L195.666,94.632z"/>
<path fill="#004A99" d="M252.501,306.741h-31.725l-9.766-37.076h31.556L252.501,306.741L252.501,306.741z M267.916,226.333h17.382
	l0,0c13.896,0,25.227-11.333,25.227-25.227c0-13.896-11.331-25.227-25.227-25.227l0,0h-67.86l11.719,43.764h-29.811l-21.542-80.408
	h107.494l0,0c34.078,0,61.872,27.794,61.872,61.871c0,34.077-27.794,61.87-61.872,61.87l0,0h-7.563L267.916,226.333L267.916,226.333
	z"/>
<path fill="#FFFFFF" d="M191.02,504.317c0,28.515,23.199,51.714,51.714,51.714c28.516,0,51.714-23.199,51.714-51.714
	c0-28.516-23.198-51.715-51.714-51.715C214.219,452.603,191.02,475.802,191.02,504.317z"/>
<path fill="#E32219" d="M195.07,504.317c0-26.283,21.382-47.665,47.664-47.665c26.283,0,47.664,21.382,47.664,47.665
	c0,26.281-21.381,47.664-47.664,47.664C216.452,551.981,195.07,530.599,195.07,504.317z"/>
<path fill="#FFFFFF" d="M200.404,504.318c0-2.105,1.717-3.823,3.822-3.823c2.105,0,3.822,1.718,3.822,3.823
	s-1.717,3.822-3.822,3.822C202.121,508.141,200.404,506.424,200.404,504.318L200.404,504.318z"/>
<path fill="#FFFFFF" d="M270.748,493.921c-7.588,6.607-14.396,7.053-22.83,7.503l-0.92,0.05l-1.42-1.42l0.05-0.923
	c0.45-8.434,0.896-15.24,7.503-22.827c-4.113-0.803-7.933-3.16-10.396-6.431c-2.464,3.271-6.283,5.628-10.396,6.431
	c6.607,7.587,7.053,14.396,7.504,22.83l0.049,0.92l-1.42,1.42l-0.92-0.05c-8.435-0.45-15.241-0.896-22.829-7.503
	c-0.803,4.112-3.161,7.932-6.432,10.396c3.271,2.465,5.629,6.284,6.432,10.397c7.586-6.607,14.393-7.053,22.828-7.504l0.921-0.049
	l1.42,1.42l-0.049,0.92c-0.451,8.436-0.896,15.242-7.504,22.829c4.113,0.803,7.933,3.16,10.396,6.431
	c2.464-3.271,6.283-5.628,10.396-6.431c-6.607-7.586-7.053-14.393-7.503-22.827l-0.05-0.922l1.42-1.42l0.923,0.049
	c8.434,0.451,15.24,0.896,22.827,7.503c0.802-4.112,3.16-7.932,6.431-10.396C273.908,501.853,271.549,498.033,270.748,493.921z"/>
<path fill="#FFFFFF" d="M227.844,473.071c2.105,0,3.822,1.716,3.822,3.821s-1.716,3.822-3.822,3.822s-3.822-1.717-3.822-3.822
	S225.739,473.071,227.844,473.071L227.844,473.071z M242.732,461.986c2.106,0,3.822,1.717,3.822,3.822
	c0,2.104-1.716,3.821-3.822,3.821c-2.105,0-3.822-1.717-3.822-3.821C238.911,463.703,240.627,461.986,242.732,461.986
	L242.732,461.986z M257.625,473.071c-2.105,0-3.823,1.716-3.823,3.821s1.718,3.822,3.823,3.822c2.104,0,3.822-1.717,3.822-3.822
	S259.729,473.071,257.625,473.071L257.625,473.071z M257.625,535.563c-2.105,0-3.823-1.717-3.823-3.822s1.718-3.821,3.823-3.821
	c2.104,0,3.822,1.716,3.822,3.821S259.729,535.563,257.625,535.563L257.625,535.563z M242.732,546.647
	c2.106,0,3.822-1.717,3.822-3.822s-1.716-3.821-3.822-3.821c-2.105,0-3.822,1.716-3.822,3.821S240.627,546.647,242.732,546.647
	L242.732,546.647z M227.844,535.563c2.105,0,3.822-1.717,3.822-3.822s-1.716-3.821-3.822-3.821s-3.822,1.716-3.822,3.821
	S225.739,535.563,227.844,535.563L227.844,535.563z M273.98,489.427c0,2.105-1.716,3.821-3.821,3.821s-3.822-1.716-3.822-3.821
	s1.717-3.822,3.822-3.822S273.98,487.321,273.98,489.427L273.98,489.427z M285.065,504.314c0,2.105-1.718,3.823-3.822,3.823
	s-3.823-1.718-3.823-3.823s1.719-3.821,3.823-3.821S285.065,502.209,285.065,504.314L285.065,504.314z M273.98,519.207
	c0-2.105-1.716-3.822-3.821-3.822s-3.822,1.717-3.822,3.822s1.717,3.822,3.822,3.822S273.98,521.313,273.98,519.207L273.98,519.207z
	 M211.487,519.207c0-2.105,1.718-3.822,3.823-3.822s3.822,1.717,3.822,3.822s-1.716,3.822-3.822,3.822
	S211.487,521.313,211.487,519.207L211.487,519.207z M200.404,504.314c0,2.105,1.717,3.823,3.822,3.823
	c2.105,0,3.822-1.718,3.822-3.823s-1.717-3.821-3.822-3.821C202.121,500.493,200.404,502.209,200.404,504.314L200.404,504.314z
	 M211.487,489.427c0,2.105,1.718,3.821,3.823,3.821s3.822-1.716,3.822-3.821s-1.716-3.822-3.822-3.822
	S211.487,487.321,211.487,489.427L211.487,489.427z"/>
<path fill="#FFDD00" d="M388.133,396.28c-1.664-4.102-4.128-7.801-7.312-10.966c-0.048-0.048-0.097-0.095-0.144-0.143
	c-3.241-3.135-6.99-5.552-11.147-7.184c-4.014-1.597-8.405-2.419-12.991-2.419c-4.584,0-8.975,0.822-13.052,2.444
	c-0.238,0.093-0.464,0.217-0.701,0.316c-2.429-1.731-5.394-2.761-8.604-2.761h-8.917c-0.931,0-1.837,0.096-2.72,0.261
	c-0.884-0.165-1.791-0.261-2.722-0.261c-4.584,0-8.974,0.822-13.05,2.445c-2.522,0.988-4.91,2.29-7.128,3.875
	c-2.687-3.818-7.119-6.32-12.143-6.32h-8.903c-1.029,0-2.035,0.105-3.007,0.306c-0.971-0.2-1.977-0.306-3.008-0.306h-10.469
	c-2.664,0-5.224,0.717-7.451,2.01c-3.634-1.26-7.502-2.01-11.567-2.01c-4.584,0-8.976,0.822-13.052,2.444
	c-4.109,1.612-7.868,4.044-11.104,7.203c-1.03,1.006-1.975,2.071-2.851,3.183l-3.099-5.387c-2.65-4.605-7.559-7.443-12.872-7.443
	h-10.469c-2.049,0-4.001,0.415-5.776,1.165c-3.46-0.928-6.731-1.154-8.986-1.165c-3.825-0.018-7.329,0.589-10.505,1.798
	c-2.106-1.146-4.522-1.798-7.089-1.798h-8.916c-2.589,0-5.02,0.665-7.139,1.83c-3.475-1.215-7.391-1.83-11.728-1.83h-3.431h-8.917
	c-8.201,0-14.85,6.648-14.85,14.85v37.731c0,8.201,6.648,14.851,14.85,14.851h8.917c4.452,0,8.428-1.969,11.139-5.073
	c2.721,3.104,6.706,5.073,11.159,5.073h8.916c2.361,0,4.584-0.566,6.565-1.546c2.92,0.979,6.153,1.49,9.691,1.506
	c3.45,0.016,6.714-0.468,9.722-1.415c1.934,0.923,4.091,1.455,6.377,1.455h8.916c2.37,0,4.58-0.606,6.568-1.595
	c1.996,0.975,4.175,1.595,6.473,1.595h10.225c2.961,0,5.779-0.907,8.167-2.485c0.03,0.012,0.059,0.028,0.091,0.041
	c4.061,1.618,8.447,2.444,13.006,2.444l0.344-0.002c-2.221,0.015-4.385-0.514-6.37-1.436c2.011,0.871,4.406,1.436,7.349,1.438h6.209
	c2.297,0,4.478-0.62,6.474-1.595c1.986,0.988,4.196,1.595,6.566,1.595h8.916c1.031,0,2.037-0.105,3.008-0.307
	c0.972,0.201,1.978,0.307,3.007,0.307h20.643c2.921,0,5.637-0.856,7.933-2.313c3.963,1.526,8.222,2.311,12.645,2.313
	c0.002,0,0.003,0,0.004,0c0.922,0,1.831-0.094,2.726-0.26c0.882,0.163,1.786,0.26,2.716,0.26h8.917c3.22,0,6.191-1.035,8.623-2.775
	c0.246,0.104,0.478,0.231,0.726,0.329c4.067,1.62,8.45,2.446,13.008,2.446c4.52,0,8.886-0.823,12.979-2.446
	c4.166-1.651,7.903-4.068,11.106-7.18c3.317-3.285,5.806-6.991,7.493-11.111c1.66-4.039,2.506-8.413,2.506-12.979
	C390.625,404.709,389.787,400.333,388.133,396.28z"/>
<path fill="#FFFFFF" d="M381.259,399.086c-1.292-3.184-3.202-6.05-5.675-8.508c-2.602-2.521-5.528-4.407-8.767-5.679
	c-3.168-1.261-6.637-1.905-10.278-1.905c-3.64,0-7.106,0.645-10.307,1.918c-1.822,0.716-3.538,1.656-5.153,2.765
	c-1.092-2.742-3.766-4.683-6.896-4.683h-8.917c-0.961,0-1.878,0.188-2.72,0.522c-0.844-0.334-1.761-0.522-2.722-0.522
	c-3.64,0-7.107,0.646-10.306,1.918c-3.214,1.262-6.141,3.156-8.663,5.619c-2.521,2.464-4.457,5.343-5.75,8.563
	c-0.067,0.168-0.113,0.344-0.177,0.513c0-5.064,0-9.188,0-9.188c0-4.1-3.325-7.425-7.425-7.425h-8.903
	c-1.07,0-2.087,0.232-3.007,0.641c-0.921-0.408-1.936-0.641-3.008-0.641h-10.469c-2.438,0-4.666,1.235-6.047,3.214
	c-0.881-0.468-1.761-0.941-2.693-1.308c-3.169-1.261-6.637-1.906-10.278-1.906c-3.64,0-7.107,0.646-10.307,1.918
	c-3.214,1.262-6.141,3.156-8.663,5.619c-2.523,2.464-4.457,5.345-5.752,8.563c-0.708,1.767-1.2,3.62-1.515,5.532l-10.306-17.91
	c-1.325-2.302-3.778-3.722-6.435-3.722h-10.469c-1.892,0-3.614,0.713-4.924,1.879c-3.556-1.546-7.458-1.868-9.871-1.879
	c-4.489-0.02-8.262,1.062-11.435,3.231c-1.337-1.95-3.581-3.231-6.125-3.231h-8.916c-2.484,0-4.676,1.225-6.025,3.097
	c-3.396-2.049-7.692-3.097-12.842-3.097h-3.431h-8.917c-4.1,0-7.425,3.325-7.425,7.425v37.731c0,4.101,3.325,7.425,7.425,7.425
	h8.917c4.102,0,7.425-3.324,7.425-7.425c0,0,0-2.82,0-5.544c2.738-0.266,5.226-0.951,7.447-2.058v7.602
	c0,4.101,3.324,7.425,7.425,7.425h8.916c2.282,0,4.322-1.032,5.684-2.651c2.87,1.709,6.419,2.594,10.606,2.612
	c3.948,0.019,7.528-0.827,10.58-2.395c1.358,1.491,3.309,2.434,5.486,2.434h8.916c2.831,0,5.209-1.641,6.461-3.971
	c0.014,0.023,0.15,0.259,0.15,0.259c1.327,2.296,3.777,3.712,6.43,3.712h10.224c2.651,0,5.101-1.413,6.427-3.708
	c0.083-0.144,0.146-0.294,0.219-0.441c1.374,0.87,2.821,1.622,4.348,2.228c3.197,1.273,6.658,1.922,10.271,1.922l0.26-0.001
	c-0.402,0.003-0.774-0.159-1.168-0.22c0.685,0.118,1.393,0.22,2.232,0.221h6.207c2.652,0,5.104-1.414,6.43-3.712
	c0,0,0.136-0.235,0.15-0.259c1.252,2.33,3.631,3.971,6.461,3.971h8.916c1.072,0,2.087-0.231,3.008-0.641
	c0.92,0.409,1.937,0.641,3.007,0.641h20.643c2.799,0,5.235-1.55,6.5-3.839c1.217,0.731,2.479,1.389,3.813,1.917
	c3.197,1.273,6.655,1.922,10.268,1.922c0.938,0.002,1.854-0.188,2.713-0.524c0.846,0.335,1.764,0.524,2.729,0.524h8.917
	c3.143,0,5.823-1.955,6.907-4.713c1.614,1.112,3.337,2.061,5.177,2.791c3.2,1.273,6.66,1.922,10.272,1.922
	c3.578,0,7.024-0.647,10.243-1.923c3.253-1.29,6.17-3.175,8.668-5.602c2.556-2.531,4.49-5.408,5.795-8.601
	c1.296-3.149,1.954-6.573,1.954-10.165C383.2,405.675,382.547,402.243,381.259,399.086z M171.62,402.287
	c-0.084-0.251-0.146-0.512-0.188-0.786c0.055,0.278,0.132,0.549,0.211,0.819C171.635,402.31,171.627,402.298,171.62,402.287z
	 M240.033,434.724c0.414,0.185,0.863,0.346,1.363,0.474C240.921,435.069,240.472,434.941,240.033,434.724z"/>
<path fill="#004A99" d="M178.786,400.793c-0.022-1.496-1.604-3.24-3.817-3.258c-2.171-0.016-3.793,1.152-3.757,3.59
	c0.008,0.617,0.331,1.252,1.003,1.842c1.341,1.174,3.839,2.003,5.612,2.593c5.35,1.775,8.878,4.005,8.887,10.652
	c0,2.897-0.817,5.476-2.4,7.483c-2.171,2.755-5.78,4.438-10.693,4.416c-3.535-0.017-6.209-0.798-8.041-2.429
	c-2.012-1.79-3.005-4.106-3.005-7.95l0,0l7.929,0.004l0,0c0.022,1.497,1.079,3.031,3.291,3.049c3.151,0.023,4.257-1.973,4.294-3.837
	c0.074-3.721-3.36-4.111-6.304-4.939c-3.079-0.865-5.641-1.998-7.275-3.94c-1.19-1.416-1.886-3.264-1.931-5.75l0,0l-0.003,0.002l0,0
	c0-0.04,0-0.079,0-0.118c0-0.046,0-0.092,0-0.14c0-0.215,0.009-0.422,0.026-0.619c0.149-2.542,0.952-4.805,2.375-6.609
	c2.17-2.753,4.938-4.438,9.851-4.415c3.536,0.016,7.052,0.799,8.883,2.43c2.011,1.79,3.004,4.102,3.004,7.944l0,0H178.786
	L178.786,400.793z M221.833,428.15c-3.409,0-6.813,0-10.223,0l0,0l-3.029-5.246v0.181h-10.012v5.065h-8.916v-37.731h10.469
	L221.833,428.15L221.833,428.15z M204.446,415.743l-5.877-10.179v10.179H204.446L204.446,415.743z M148.381,428.15v-37.731h8.916
	v37.731H148.381L148.381,428.15z M117.167,428.15v-37.731h8.917h3.431l0,0c4.754,0,8.274,1.061,10.559,3.17
	c2.285,2.11,3.424,5.368,3.424,9.764c0,3.729-1.111,6.664-3.345,8.808c-2.232,2.145-5.29,3.222-9.176,3.222l0,0h-4.893v12.769
	H117.167L117.167,428.15z M126.084,397.865v10.075h3.417l0,0c1.567,0,2.803-0.436,3.703-1.302c0.9-0.864,1.35-2.049,1.35-3.554
	c0-1.775-0.46-3.089-1.382-3.941c-0.923-0.852-2.343-1.278-4.262-1.278l0,0H126.084L126.084,397.865z"/>
<path d="M366.686,409.285c0,1.387-0.248,2.683-0.738,3.876c-0.49,1.198-1.212,2.268-2.161,3.209c-0.95,0.924-2.046,1.63-3.284,2.121
	c-1.237,0.491-2.559,0.739-3.956,0.739c-1.414,0-2.741-0.248-3.974-0.739c-1.237-0.491-2.333-1.207-3.293-2.147
	c-0.938-0.915-1.653-1.972-2.135-3.16c-0.482-1.193-0.725-2.493-0.725-3.898c0-1.407,0.242-2.711,0.725-3.912
	c0.481-1.198,1.197-2.26,2.135-3.175c0.95-0.928,2.042-1.64,3.28-2.126c1.233-0.49,2.563-0.733,3.986-0.733s2.754,0.243,3.987,0.733
	c1.237,0.486,2.333,1.198,3.293,2.126c0.928,0.925,1.64,1.99,2.126,3.188C366.444,406.589,366.686,407.888,366.686,409.285
	L366.686,409.285z M375.775,409.285c0-2.65-0.462-5.115-1.391-7.396c-0.923-2.272-2.273-4.295-4.034-6.046
	c-1.819-1.761-3.897-3.111-6.247-4.032c-2.339-0.931-4.861-1.393-7.563-1.393c-2.698,0-5.222,0.462-7.562,1.393
	c-2.349,0.921-4.418,2.271-6.223,4.032c-1.777,1.735-3.136,3.748-4.049,6.02c-0.914,2.281-1.375,4.755-1.375,7.422
	c0,2.665,0.461,5.131,1.375,7.396c0.913,2.255,2.271,4.26,4.049,5.993c1.82,1.788,3.899,3.146,6.247,4.076
	c2.338,0.932,4.855,1.4,7.537,1.4c2.65,0,5.158-0.469,7.506-1.4c2.348-0.931,4.427-2.272,6.23-4.024
	c1.802-1.785,3.169-3.815,4.099-6.087C375.305,414.374,375.775,411.918,375.775,409.285L375.775,409.285z"/>
<polygon points="325.266,428.15 325.266,390.419 334.183,390.419 334.183,428.15 325.266,428.15 "/>
<path d="M319.825,419.23c-1.41-0.001-2.734-0.249-3.964-0.738c-1.238-0.49-2.334-1.206-3.294-2.148
	c-0.937-0.914-1.652-1.972-2.134-3.16c-0.482-1.193-0.726-2.493-0.726-3.898s0.243-2.71,0.726-3.912
	c0.481-1.198,1.197-2.258,2.134-3.173c0.951-0.929,2.043-1.641,3.28-2.127c1.23-0.49,2.558-0.732,3.978-0.734l0,0v-8.92l0,0
	c-2.697,0-5.221,0.462-7.56,1.393c-2.349,0.921-4.419,2.272-6.223,4.032c-1.776,1.736-3.135,3.748-4.049,6.02
	c-0.913,2.281-1.375,4.756-1.375,7.422c0,2.667,0.462,5.131,1.375,7.396c0.914,2.256,2.272,4.26,4.049,5.993
	c1.821,1.788,3.9,3.146,6.248,4.076c2.338,0.932,4.853,1.4,7.534,1.4l0,0V419.23L319.825,419.23z"/>
<polygon points="278.601,428.15 278.601,390.419 287.504,390.419 287.504,419.233 299.244,419.233 299.244,428.15 278.601,428.15 
	"/>
<path d="M245.654,418.937l16.464-28.518h10.469v37.731h-8.916v-5.065h-10.012v-0.181l-3.029,5.246h-7.355v-0.001l0,0
	c-0.058,0.001-0.116,0.001-0.175,0.001c-2.682,0-5.2-0.469-7.537-1.4c-2.348-0.931-4.427-2.288-6.248-4.076
	c-1.776-1.733-3.135-3.737-4.049-5.993c-0.914-2.265-1.375-4.729-1.375-7.396c0-2.666,0.461-5.141,1.375-7.422
	c0.914-2.271,2.273-4.283,4.049-6.02c1.805-1.76,3.875-3.111,6.223-4.032c2.34-0.931,4.863-1.393,7.562-1.393
	c2.701,0,5.225,0.462,7.563,1.393c1.836,0.721,3.508,1.706,5.021,2.942l0,0l-4.685,8.113l0,0c-0.192-0.229-0.396-0.452-0.613-0.667
	c-0.959-0.929-2.055-1.641-3.293-2.127c-1.232-0.49-2.563-0.734-3.987-0.734c-1.422,0-2.752,0.244-3.987,0.734
	c-1.238,0.486-2.329,1.198-3.278,2.127c-0.939,0.915-1.653,1.975-2.136,3.173c-0.483,1.202-0.725,2.507-0.725,3.912
	s0.242,2.705,0.725,3.898c0.482,1.188,1.197,2.246,2.136,3.16c0.958,0.942,2.054,1.658,3.292,2.148
	c1.234,0.49,2.559,0.738,3.974,0.738C243.986,419.23,244.835,419.132,245.654,418.937L245.654,418.937z M257.793,415.743h5.877
	v-10.179L257.793,415.743L257.793,415.743z"/>
</svg>
