<?xml version="1.0" encoding="utf-8"?>
<!-- Generator: Adobe Illustrator 13.0.0, SVG Export Plug-In . SVG Version: 6.00 Build 14948)  -->
<!DOCTYPE svg PUBLIC "-//W3C//DTD SVG 1.1//EN" "http://www.w3.org/Graphics/SVG/1.1/DTD/svg11.dtd">
<svg version="1.1" id="HQFL" xmlns="http://www.w3.org/2000/svg" xmlns:xlink="http://www.w3.org/1999/xlink" x="0px" y="0px"
	 width="457.991px" height="625.484px" viewBox="0 0 457.991 625.484" enable-background="new 0 0 457.991 625.484"
	 xml:space="preserve">
<path d="M452.948,245.404c-7.522,0-11.46-2.637-15.267-5.187c-3.541-2.37-7.199-4.821-13.341-4.821
	c-3.509,0-8.94,0.991-15.814,2.245c-10.233,1.867-22.965,4.189-34.951,4.189c-10.005,0-18.195-2.591-25.324-6.985
	c7.56-5.45,18.022-4.167,29.098-2.795c13.304,1.649,28.385,3.519,40.643-6.578l3.272-2.695l-4.214,0.469
	c-3.111,0.347-5.989-2.21-9.034-4.917c-1.353-1.203-2.736-2.397-4.171-3.365c17.948-3.833,23.27-13.537,27.461-21.496
	c2.663-5.054,4.962-9.42,9.953-11.417l-0.774-2.395c-1.651,0.413-4.05-0.358-6.826-1.251c-4.777-1.536-11.075-3.512-18.332-0.991
	c2.559-5.096,3.578-11.926,3.578-18.488c0-7.449-1.214-14.423-2.653-17.758c-3.199-11.5-6.58-16.183-9.296-19.945
	c-3.288-4.554-5.663-7.843-5.663-21.861c0-7.197-6.209-11.139-13.398-15.704c-6.147-3.903-13.114-8.327-18.289-15.765l-1.793-2.575
	l-0.488,3.098c-0.163,1.031-1.223,7.951-1.223,13.371c0,0.752,0.047,1.428,0.093,2.103c-10.474-6.595-19.341-6.17-27.22-5.751
	c-8.815,0.468-15.778,0.838-23.058-8.173l-1.978-2.448l-0.26,3.135c-0.181,2.167-0.268,4.221-0.268,6.171
	c0,24.022,13.096,32.434,25.793,40.588c2.441,1.569,4.7,3.109,6.927,4.709c-4.934,2.294-14.751,4.56-18.566,5.319l-0.085,2.453
	c2.985,0.814,5.243,2.814,7.633,4.931c3.47,3.073,7.403,6.555,14.148,6.555c9.342,0,19.06-2.817,28.457-5.542
	c2.869-0.831,5.636-1.632,8.281-2.327c3.453,5.9,5.185,11.685,5.185,17.312c0,4.337-1.09,8.573-3.142,12.704
	c-3.334-7.095-10.795-10.322-16.429-12.729c-2.837-1.212-5.516-2.355-6.284-3.512l-0.811-1.217l-1.086,0.982
	c-5.902,5.339-7.012,12.808-7.012,20.226c0,2.303,0.107,4.602,0.212,6.829c0.107,2.298,0.209,4.524,0.209,6.64
	c0,6.264-0.909,11.56-5.33,14.876c0.011-0.25,0.085-0.522,0.085-0.767c0-5.525-3.054-9.854-6.026-14.063
	c-3.189-4.52-6.488-9.195-6.488-15.643v-1.896l-1.75,0.734c-14.225,5.963-16.916,20.03-19.078,31.333l-1.008,4.801
	c-0.578-0.856-1.159-1.715-1.742-2.58c-8.082-11.982-16.452-24.327-27.396-35.426c0.002,0,0.002,0,0.004,0
	c0.215-0.005,0.425-0.03,0.64-0.043c0.338-0.021,0.674-0.049,1.006-0.094c0.221-0.03,0.436-0.069,0.655-0.109
	c0.345-0.065,0.681-0.145,1.015-0.238c0.176-0.049,0.354-0.094,0.526-0.152c0.5-0.166,0.985-0.355,1.442-0.595
	c2.52-1.321,3.852-3.554,3.852-6.458c0-2.992-2.4-8.102-6.851-11.678c-0.291-0.234-0.608-0.469-0.937-0.703
	c-0.072-0.052-0.146-0.103-0.223-0.155c-0.703-0.486-1.484-0.958-2.35-1.397c-0.021-0.011-0.046-0.022-0.068-0.035
	c-0.449-0.225-0.916-0.439-1.408-0.642l-0.002,0c-1.12-7.104,3.34-16.438,4.373-20.415c0.724-2.901,1.488-6.141,1.853-9.875
	c0.159-1.614,0.241-3.086,0.241-4.435c0-6.479-1.878-10.147-6.376-13.146c-2.843-1.896-4.928-2.692-6.241-3.039
	c0.274-1.189,0.615-2.675,0.615-2.675c0.022-0.098,0.034-0.196,0.034-0.295c0-0.275-0.086-0.547-0.253-0.773
	c-0.223-0.309-0.571-0.503-0.95-0.536c0,0-4.097-0.341-5.967-0.499c0.175-0.96,0.36-1.971,0.36-1.971
	c0.011-0.077,0.019-0.155,0.019-0.231c0-0.588-0.405-1.123-0.995-1.278l-5.845-1.536c-2.887-0.771-5.14-4.425-7.748-8.656
	l-3.247-5.032c-2.49-3.556-5.307-6.247-7.366-8.213c-1.385-1.325-2.694-2.576-2.999-3.281c-0.441-1.034-0.634-2.451-0.634-3.614
	c0-0.925,0.13-1.644,0.341-1.935c0.973,0.132,4.249,2.214,7.214,4.613c0.468,0.38,1.14,0.391,1.622,0.024
	c0.33-0.255,0.516-0.646,0.516-1.044c0-0.177-0.037-0.354-0.111-0.524c0,0-1.136-2.616-2.048-4.721
	c0.126,0.021,0.211,0.042,0.353,0.061l5.94,0.629c0.453,0.047,0.884-0.144,1.166-0.503c0.174-0.229,0.263-0.504,0.263-0.785
	c0-0.164-0.029-0.326-0.089-0.481c-0.111-0.296-1.21-2.968-5.48-5.596c-0.383-0.236-1.325-0.821-1.604-1.097
	c0.019-0.124,0.048-0.312,0.048-0.312c0.093-0.495,0.223-1.189,0.223-2.228c0-0.688-0.056-1.524-0.219-2.552l-0.538-3.502
	c-0.679-4.46-1.213-7.984-1.981-10.294c-0.156-0.458-0.219-0.92-0.219-1.372c0-0.188,0.022-0.373,0.041-0.556
	c0.074-0.171,0.107-0.354,0.089-0.549c0.322-1.53,1.191-2.783,1.436-3.11c0-0.002,1.859-2.146,1.859-2.146
	c6.279-7.131,7.752-9.178,7.752-10.27c0-0.307-0.118-0.537-0.278-0.785c-0.289-0.455-0.916-0.846-1.807-0.579
	c-3.232,0.969-8.799,0.554-13.271,0.219c-4.561-0.34-7.207-0.499-8.55,0.171c-1.358,0.68-3.593,2.677-6.175,4.987
	c-2.531,2.263-5.4,4.827-7.534,6.199c-2.635,1.693-4.991,1.798-7.207,0.322c-2.687-1.792-14.276-11.546-14.393-11.644
	c-0.277-0.232-0.633-0.34-0.989-0.301c-0.137,0.016-13.745,1.491-21.434-0.58c-0.939-0.252-1.588,0.165-1.882,0.639
	c-0.117,0.19-0.245,0.397-0.245,0.744c0,1.196,1.533,4.091,10.153,13.781c0.041,0.191,0.089,0.486,0.089,0.978
	c0,0.969-0.227,2.457-1.254,4.225c-1.533,2.62-1.814,7.39-1.814,10.579c0,1.333,0.044,2.307,0.074,2.803
	c-0.097,0.108-0.178,0.193-0.28,0.31c-0.254,0.293-0.343,0.666-0.299,1.023c-0.264,0.375-0.635,0.833-1.18,1.379
	c-1.186,1.185-5.154,1.394-7.592,1.163c-0.521-0.048-1.021,0.215-1.273,0.672c-0.111,0.199-0.164,0.417-0.164,0.635
	c0,0.285,0.089,0.566,0.271,0.8c2.787,3.623,9.426,5.129,11.905,5.581c-0.056,0.369-0.239,0.898-0.987,1.645
	c-1.221,1.219-1.606,2.796-1.606,4.483c0,1.577,0.337,3.254,0.657,4.827l0.278,1.425c0.241,1.332,0.412,2.272,0.412,3.025
	c0,1.144-0.393,1.857-1.529,2.851c-1.959,1.714-2.698,3.652-2.698,6.209c0,1.352,0.215,2.892,0.557,4.649
	c-1.202,0.068-2.611,0.34-4.24,0.94c-1.728,0.636-3.251,1.587-4.583,2.701c-11.003,5.329-18.627,16.575-18.627,29.599
	c0,14.415,9.333,26.665,22.262,31.103c-0.182,0.008-0.364,0.036-0.545,0.048c-0.661,0.044-1.319,0.101-1.976,0.19
	c-0.325,0.045-0.646,0.111-0.97,0.166c-0.514,0.087-1.028,0.175-1.537,0.289c-0.345,0.078-0.685,0.169-1.028,0.259
	c-0.479,0.125-0.954,0.255-1.423,0.401c-0.341,0.107-0.673,0.222-1.007,0.34c-0.46,0.163-0.911,0.336-1.356,0.52
	c-0.319,0.132-0.634,0.263-0.944,0.405c-0.449,0.206-0.881,0.426-1.312,0.653c-0.28,0.147-0.562,0.289-0.831,0.446
	c-0.458,0.263-0.889,0.547-1.315,0.835c-0.213,0.144-0.438,0.278-0.642,0.427c-0.616,0.448-1.201,0.918-1.735,1.415
	c-2.663,2.481-4.071,5.408-4.071,8.466c0,0.354,0.028,0.69,0.072,1.015c0.017,0.11,0.044,0.211,0.063,0.318
	c0.041,0.208,0.082,0.417,0.141,0.614c0.033,0.121,0.078,0.235,0.121,0.351c0.061,0.171,0.125,0.34,0.199,0.502
	c0.054,0.118,0.113,0.231,0.172,0.344c0.08,0.148,0.163,0.294,0.254,0.435c0.07,0.111,0.143,0.22,0.219,0.327
	c0.095,0.131,0.197,0.258,0.301,0.382c0.085,0.102,0.168,0.205,0.26,0.303c0.109,0.119,0.226,0.23,0.343,0.342
	c0.098,0.093,0.193,0.188,0.295,0.277c0.126,0.11,0.262,0.213,0.397,0.318c0.1,0.079,0.197,0.162,0.302,0.238l0,0
	c-4.822,6.32-6.689,12.125-6.689,17.353c0,1.358,0.128,2.677,0.354,3.957l-0.156-0.036c-0.779,3.385-1.037,7.19-0.831,11.198
	c-4.405,1.976-8.459,4.526-12.261,7.453c-5.785-10.685-12.411-17.882-17.762-23.67c-5.444-5.89-9.743-10.542-10.474-16.107
	l-0.447-3.398l-1.863,2.878c-1.197,1.85-2.353,4.372-3.69,7.29c-3.024,6.598-6.839,14.64-13.261,20.05
	c-1.412-2.314-1.785-6.184-1.785-10.735c0-1.698,0.043-3.476,0.085-5.279c0.048-2.024,0.099-4.105,0.099-6.201
	c0-8.067-0.733-16.375-5.093-22.674l-0.492-0.71l-0.841,0.201c-8.862,2.127-14.151,17.919-14.543,27.951
	c-5.405-5.112-7.802-11.306-7.802-17.556c0-6.12,2.132-12.217,5.437-17.228c5.453-0.997,10.862-1.245,15.628-0.701
	c25.077,2.893,32.886-3.329,38.586-7.871c2.848-2.269,5.097-4.06,8.827-4.28l0.265-2.473c0,0-10.878-3.046-14.96-4.19
	c13.196-7.497,26.59-24.061,27.322-50.336l0.078-2.746l-2.134,1.732c-10.723,8.715-20.599,10.152-30.151,11.542
	c-8.884,1.292-17.335,2.539-24.722,9.943c0.141-1.07,0.252-2.123,0.252-3.098c0-7.022-3.351-11.692-6.183-15.641
	c-2.341-3.267-4.382-6.112-4.382-9.65c0-0.202,0.007-0.407,0.02-0.614l0.166-2.494l-2.104,1.349
	c-14.519,9.307-16.317,17.752-18.397,27.531c-2.056,9.67-4.388,20.629-19.02,36.309c-11.638,13.004-16.543,36.04-4.077,55.691
	c-4.83,0.536-17.121,0.773-24.186-5.704l-2.436-2.232l0.33,3.288c2.097,20.932,23.687,42.409,37.583,46.485
	c-0.867,2.354-4.251,8.084-17.072,8.617l-4.145,0.173l3.54,2.164c20.989,12.828,34.492,10.497,47.548,8.243
	c9.027-1.558,17.581-3.021,28.591,0.156c-9.231,7.095-19.957,12.146-34.009,12.146c-9.7,0-17.662-2.301-24.687-4.331
	c-11.116-3.212-19.896-5.749-29.071,2.509C10.173,249.3,2.545,254.104,0,254.742l0.033,2.454c2.431,0.538,5.682,3.766,9.122,7.183
	c4.156,4.127,8.8,8.531,13.649,10.041c-10.528,9.233-20.559,27.312-20.559,46.279c0,0.185,0.001,0.369,0.003,0.553
	c0.165,16.205,7.558,30.249,21.364,40.64c1.941,3.609,1.973,8.193,1.999,13.497c0.05,10.847,0.115,24.349,16.037,38.823l1.976-1.495
	c-0.182-0.364-0.265-0.769-0.265-1.21c0-2.724,3.171-6.843,6.251-10.844c2.438-3.167,4.875-6.41,6.222-9.459
	c4.286,4.453,9.737,6.943,15.092,9.25c6.223,2.681,12.248,5.286,16.384,10.956c-6.012,2.611-16.857,7.7-16.857,18.068
	c0,0.152,0.024,0.315,0.03,0.472c-6.097,0.212-8.333-1.777-10.65-3.9c-3.767-3.451-7.663-7.019-25.196-1.822l0.327,2.47
	c5.784,0.14,9.637,5.16,13.039,9.591c2.879,3.748,5.598,7.289,9.192,7.248c2.546-0.026,5.015-1.793,7.774-5.556
	c1.579-1.837,5.221-2.392,6.557-2.182c0.106,0.367,0.139,0.489,0.256,0.899c-1.351,0.989-3.117,1.913-5.223,2.948
	c-5.277,2.598-11.842,5.826-15.187,12.77c-2.449,4.438-2.828,8.038-3.13,10.933c-0.416,3.96-0.688,6.576-6.012,9.619
	c-1.028,0.614-1.577,1.503-1.577,2.441c0,0.39,0.097,0.789,0.29,1.18c1.351,2.725,7.67,4.75,14.897,1.859
	c7.281-3.358,8.194-10.7,9.075-17.799c0.891-7.17,1.814-13.922,8.628-17.21c-0.225,1.837-1.293,5.214-4.169,9.14
	c-2.202,3.144-3.13,7.236-3.13,11.549c0,6.008,1.801,12.442,4.464,17.328l0.054,0.097l0.068,0.087
	c0.583,0.728,0.993,3.424,0.993,6.156c0,2.06-0.234,4.14-0.8,5.418c-0.167,0.494-0.239,0.936-0.239,1.329
	c0,1.154,0.624,1.885,1.331,2.237c1.928,0.965,5.629-0.339,8.246-4.126c5.136-7.634,6.619-14.603,6.619-20.729
	c0-0.33-0.067-0.612-0.076-0.939c2.702,6.389,5.425,12.132,16.451,8.194l0.742-0.268l-0.006,15.746
	c0,3.651,0.74,15.938,10.253,20.691c-0.074-0.04,105.567,62.764,105.567,62.764l0.644,0.382l106.209-63.189
	c9.433-4.709,10.173-16.996,10.173-20.647l-0.003-17.037c13.997-2.346,16.098-11.424,17.615-18.117
	c0.596-2.62,1.156-4.905,2.239-6.42c0.941,1.184,1.702,2.69,1.702,4.678c0,2.515-1.218,5.791-4.828,10.125
	c-3.253,4.067-4.969,8.974-4.969,13.749c0,2.183,0.357,4.339,1.091,6.372c2.342,6.507,8.032,11.007,16.025,12.671l2.167,0.451
	l-0.716-2.093c-0.824-2.412-1.161-4.747-1.161-7.018c0-5.166,1.736-10.016,3.435-14.755c0.487-1.365,0.949-2.701,1.384-4.03
	c0.569,2.649,1.666,5.08,3.905,6.754c4.545,3.399,12.356,2.898,23.879-1.532l2.139-0.824l-1.841-1.365
	c-5.204-3.865-7.496-9.73-9.711-15.402c-2.317-5.929-4.505-11.528-9.873-13.714c-0.076-0.029-3.954-0.806-3.954-0.806
	c-3.602-0.504-5.589-1.031-5.884-3.699c5.511-0.742,10.228,1.198,13.332,5.674c0.656,1.344,2.26,1.996,3.994,1.514
	c2.81-0.782,5.602-4.53,5.09-10.91c-0.284-3.434,1.015-4.868,2.661-6.685c2.027-2.238,4.551-5.023,4.132-11.889l-0.177-2.899
	l-1.211,1.278l0.254-0.761c1.425-4.271,17.025-36.876,21.218-41.767l-0.214-0.186l0.258,0.13l0.818-1.069
	c9.418-12.3,25.181-32.882,25.181-57.616c0-15.101-1.699-21.917-20.757-40.618c19.854-3.292,22.303-12.555,24.245-20.071
	c1.047-4.049,1.872-7.248,5.144-8.993l4.449-2.373H452.948z M57.891,334.693c-13.844,3.655-25.804,6.802-29.872-3.162
	c4-6.149,9.749-11.263,14.938-15.872c2.486-2.205,4.722-4.23,6.572-6.178c0.08,6.752,5.282,13.292,10.003,19.207
	c1.274,1.6,2.52,3.164,3.59,4.65L57.891,334.693z M86.456,454.998c-0.195,2.546-0.384,5.362-0.433,8.021
	c-0.241-1.294-0.475-2.626-0.724-3.8c-0.568-2.689-1.063-5.04-1.063-6.964c0-1.065,0.206-1.963,0.583-2.75
	c0.592-0.056,1.102-0.101,1.946-0.178c0,0.056,0.009,0.066,0.009,0.126C86.774,450.809,86.607,452.998,86.456,454.998z
	 M104.092,477.447l-0.154-0.21c-2.958-3.981-3.802-7.076-3.802-10.097c0-1.843,0.313-3.655,0.655-5.626
	c0.396-2.286,0.826-4.78,0.826-7.691c0-1.152-0.107-2.402-0.271-3.697c1.228-1.566,2.146-2.947,2.757-4.135L104.092,477.447z
	 M104.104,441.36c-1.121-0.757-2.791-0.171-3.399,0.048c-11.764,3.717-19.651-0.104-23.399-11.368
	c-0.462-2.017-0.176-3.831,0.905-5.438c1.918-2.854,6.407-4.981,12.64-6.012c1.087,3.407,1.761,7.511,1.867,12.592l0.083,4.06
	l2.23-3.396c4.138-6.294,7.142-12.699,9.084-19.037L104.104,441.36z M104.127,380.575c-2.307-6.523-6.127-12.483-11.434-17.586
	c3.36-1.445,8.932-4.479,11.443-5.871L104.127,380.575z M103.099,342.319l-0.036-0.266l-0.141-0.229
	c-7.428-12.098-19.813-12.084-28.921-10.746c3.14-6.694,4.928-13.549,6.537-19.838c2.305-9.012,4.336-16.949,9.582-22.636
	c0.362,7.026,10.236,15.985,14.033,18.908l-0.015,41.211C103.726,346.568,103.351,344.218,103.099,342.319z M351.116,422.822
	c-1.408,1.251-2.816,1.598-3.42,1.571c0.093-4.779,2.138-8.22,5.459-11.069c0.363,1.28,0.544,2.438,0.544,3.451
	C353.699,419.952,352.205,421.855,351.116,422.822z M342.426,376.33c-1.664,2.084-3.4,4.212-5.513,6.099l-0.005-25.144l5.855,3.253
	c3.832,2.272,7.733,4.515,11.434,5.772C348.663,368.605,345.483,372.506,342.426,376.33z M370.88,458.683
	c0,0-0.037,0.649-0.067,1.14c-0.629-0.687-1.328-1.345-2.08-2c-2.33-2.028-4.614-4.238-5.138-8.387
	C369.27,452.671,370.88,456.789,370.88,458.683z M389.489,421.602c-4.49-0.217-10.066-0.447-16.985,9.127
	c-0.447-0.468-0.99-1.295-0.99-2.282c0-0.186,0.021-0.375,0.066-0.557l0.039-0.152v-0.155c0-7.533-7.327-14.785-15.97-16.109
	c3.272-2.229,7.288-4.189,11.743-6.305c6.111-2.906,12.832-6.201,18.687-10.944c-0.62,2.041-0.928,3.912-0.928,5.604
	c0,6.273,3.677,10.335,6.62,13.586c1.472,1.629,2.861,3.166,3.529,4.669l0.846,1.905
	C394.148,421.802,392.163,421.731,389.489,421.602z M381.692,338.396c-12.432-0.842-26.504-1.767-44.783,10.083l-0.014-72.706
	c2.505-1.808,5.236-3.349,7.372-3.599c0.9-0.105,1.568,0.037,2.045,0.434c2.716,3.162,3.961,9.907,5.403,17.718
	c2.911,15.771,6.896,37.372,28.6,44.771l1.132,0.388l0.445-1.111c1.882-4.702,7.428-17.012,11.224-19.775
	c10.85,3.783,18.26,7.231,23.099,11.146C404.937,339.957,394.669,339.276,381.692,338.396z"/>
<path d="M393.693,560.19c2.197-1.995,3.313-4.632,3.313-7.832c0-2.713-0.956-4.772-1.967-6.958
	c-1.445-3.117-3.154-6.806-3.154-14.046c0-2.03,0.145-4.356,0.456-7.008c0.132-0.604,0.204-1.205,0.221-1.795
	c0.004-0.1,0.006-0.2,0.006-0.301c0-3.714-2.024-7.177-5.103-9.201c0.79-1.2,1.353-2.324,1.733-3.375
	c0.011-0.029,0.031-0.064,0.042-0.097c0.103-0.289,0.154-0.557,0.227-0.835c0.198-0.749,0.328-1.466,0.328-2.115
	c0-1.916-0.749-3.396-1.823-4.363c-3.971-3.578-13.545-2.034-25.982,9.483l-1.293,1.198l1.553,0.837
	c1.694,0.913,4.09,6.383,4.331,7.739c-0.104,0.32-0.307,0.617-0.307,0.967c0,0.456,0.084,0.953,0.189,1.473
	c0.062,0.301,0.124,0.6,0.198,0.924c0.012,0.051,0.024,0.111,0.035,0.164c0.278,1.235,0.577,2.938,0.692,5.08
	c-2.39-0.107-17.412-0.794-17.412-0.794c-19.59-1.062-35.063-1.904-41.072,3.788c-1.814,1.719-2.735,3.979-2.735,6.721v23.242
	c0,0.712,0.037,1.404,0.103,2.08c0.043,0.469,0.118,0.918,0.191,1.371c0.025,0.155,0.044,0.318,0.074,0.473
	c0.668,3.616,2.289,6.637,4.811,8.919c-13.491,4.776-52.133,8.417-90.797,8.417c-38.667,0-77.308-3.641-90.801-8.417
	c2.523-2.282,4.145-5.305,4.815-8.921c0.03-0.152,0.046-0.312,0.072-0.468c0.074-0.452,0.15-0.905,0.193-1.376
	c0.065-0.676,0.102-1.366,0.102-2.078v-23.242c0-2.74-0.92-5.002-2.735-6.721c-6.01-5.69-21.484-4.848-41.074-3.783
	c0,0-15.024,0.687-17.414,0.796c0.121-2.229,0.438-4.004,0.727-5.251c0.204-0.887,0.386-1.677,0.386-2.396
	c0-0.35-0.201-0.646-0.305-0.967c0.241-1.356,2.637-6.826,4.331-7.739l1.553-0.837l-1.293-1.198
	c-12.439-11.518-22.012-13.062-25.982-9.483c-1.072,0.968-1.822,2.445-1.822,4.363c0,1.776,0.705,3.949,2.332,6.422
	c-3.08,2.024-5.104,5.49-5.104,9.209c0,0.099,0.004,0.293,0.004,0.293c0.017,0.583,0.087,1.177,0.217,1.771
	c0.304,2.639,0.445,4.958,0.445,6.979c0,7.278-1.704,10.971-3.144,14.096c-1.009,2.186-1.963,4.253-1.963,6.962
	c0,3.2,1.115,5.835,3.312,7.83c3.401,3.087,9.454,4.414,17.061,3.845c0.211,0.563,0.455,1.134,0.455,1.651
	c0,1.765-1.15,3.369-2.861,5.577c-1.881,2.435-4.017,5.191-4.017,8.984c0,15.947,61.7,45.238,162.51,45.238
	c100.808,0,162.506-29.291,162.506-45.238c0-3.793-2.134-6.55-4.018-8.984c-1.711-2.21-2.861-3.814-2.861-5.581
	c0-0.516,0.243-1.084,0.455-1.647C384.24,564.603,390.293,563.275,393.693,560.19z"/>
<path fill="#FFFFFF" d="M369.961,530.221c-0.111-2.604-0.518-4.5-0.842-5.902c-0.171-0.738-0.327-1.404-0.327-1.806
	c0-0.148,0.022-0.26,0.07-0.324l0.006-0.008l0,0c1.249-1.685,3.997-2.011,6.906-2.354c3.831-0.452,8.106-0.996,10.436-4.709
	c2.376,1.612,3.907,4.503,3.82,7.405c-0.065,0.471-0.113,0.913-0.167,1.365c-0.763,3.344-4.014,6.476-11.287,6.476
	C378.577,530.363,371.793,530.252,369.961,530.221z"/>
<path fill="#007CBF" d="M364.762,512.672c11.306-10.063,19.171-10.65,21.521-8.533c1.744,1.571,1.132,4.905-1.561,8.494
	l-0.923,1.231l0.179,0.086c-1.752,2.561-5.036,2.961-8.5,3.373c-2.516,0.297-5.094,0.608-7.021,1.859
	C367.687,517.173,366.323,514.351,364.762,512.672z"/>
<path fill="#FFFFFF" d="M314.157,574.909c-3.101-2.26-4.954-5.637-5.374-9.915c-0.057-0.62-0.091-1.255-0.091-1.907V545.53
	c2.694,2.553,7.98,4.515,18.047,4.515c5.624,0,12.636-2.279,18.823-4.288c5.101-1.659,9.918-3.224,12.994-3.224
	c4.507,0,8.75,3.923,8.75,6.964C367.306,558.321,345.308,565.617,314.157,574.909z"/>
<path fill="#FFFFFF" d="M132.317,564.994c-0.419,4.278-2.275,7.655-5.377,9.915c-31.15-9.292-53.146-16.586-53.146-25.412
	c0-3.041,4.242-6.964,8.747-6.964c3.078,0,7.896,1.566,12.999,3.224c6.188,2.011,13.2,4.288,18.822,4.288
	c10.066,0,15.352-1.962,18.046-4.515v17.557C132.408,563.739,132.375,564.374,132.317,564.994z"/>
<path fill="#FFFFFF" d="M72.233,522.188c0.048,0.064,0.07,0.176,0.07,0.324c0,0.399-0.156,1.067-0.327,1.806
	c-0.323,1.402-0.731,3.299-0.842,5.902c-1.832,0.031-8.615,0.143-8.615,0.143c-7.289,0-10.538-3.146-11.291-6.498
	c-0.056-0.467-0.106-0.928-0.173-1.417c-0.068-2.921,1.433-5.729,3.832-7.333c2.327,3.715,6.6,4.259,10.434,4.711
	c2.909,0.344,5.657,0.67,6.906,2.354l0,0L72.233,522.188z"/>
<path fill="#007CBF" d="M54.816,504.139c2.347-2.117,10.212-1.529,21.518,8.533c-1.561,1.679-2.924,4.501-3.694,6.511
	c-1.928-1.251-4.505-1.563-7.021-1.859c-3.462-0.412-6.745-0.813-8.497-3.373l0.18-0.086l-0.924-1.231
	C53.686,509.044,53.072,505.708,54.816,504.139z"/>
<path fill="#007CBF" d="M377.044,572.806c1.716,2.215,3.488,4.509,3.488,7.44c0,12.396-56.062,42.717-159.982,42.717
	c-103.923,0-159.986-30.32-159.986-42.717c0-2.932,1.774-5.224,3.488-7.44c2.249-2.906,4.798-6.197,2.444-10.667l-0.394-0.75
	l-0.842,0.082c-7.397,0.716-13.137-0.403-16.161-3.149c-1.649-1.497-2.484-3.503-2.484-5.963c0-2.156,0.763-3.812,1.729-5.908
	c1.59-3.449,3.659-7.938,3.336-17.048c2.21,2.041,5.698,3.482,10.84,3.482l8.568-0.143v0.039l1.327-0.062l1.211-0.019v-0.037
	l17.633-0.805c18.985-1.032,33.981-1.849,39.204,3.099c1.308,1.239,1.944,2.839,1.944,4.887c0,6.68-11.305,7.678-18.046,7.678
	c-5.223,0-12.033-2.211-18.043-4.163c-5.297-1.722-10.301-3.348-13.778-3.348c-5.582,0-11.271,4.787-11.271,9.485
	c0,10.68,20.984,17.709,55.543,28.007c11.73,5.254,52.829,9.364,93.737,9.364c40.903,0,82.002-4.11,93.732-9.364
	c34.562-10.298,55.547-17.328,55.547-28.007c0-4.698-5.69-9.485-11.273-9.485c-3.476,0-8.478,1.626-13.773,3.348
	c-6.01,1.952-12.821,4.163-18.044,4.163c-6.741,0-18.047-0.998-18.047-7.678c0-2.048,0.637-3.647,1.946-4.889
	c5.222-4.945,20.216-4.133,39.201-3.101l17.646,0.802v0.044l1.501,0.026l1.043,0.046v-0.031l8.548,0.143
	c5.132,0,8.617-1.438,10.828-3.472c-0.336,9.096,1.744,13.596,3.344,17.049c0.969,2.089,1.733,3.74,1.733,5.896
	c0,2.46-0.835,4.468-2.484,5.963c-3.024,2.746-8.764,3.865-16.161,3.149l-0.843-0.082l-0.394,0.75
	C372.25,566.608,374.797,569.899,377.044,572.806z"/>
<polygon fill="#FFFFFF" points="82.878,581.218 79.939,587.475 77.03,586.109 83.564,572.16 86.478,573.529 83.999,578.81 
	89.443,581.359 91.918,576.075 94.831,577.437 88.296,591.386 85.383,590.024 88.314,583.768 "/>
<path fill="#FFFFFF" d="M105.67,591.961c-1.347,3.826-4.234,4.646-7.893,3.355c-1.336-0.472-3.206-1.496-3.997-3.389
	c-0.471-1.169-0.364-2.449,0.115-3.919l3.399-9.63l3.095,1.095l-3.329,9.426c-0.72,2.022,0.145,3.329,1.559,3.826
	c2.086,0.735,3.288,0.022,3.915-1.736l3.374-9.567l3.099,1.092L105.67,591.961z"/>
<path fill="#FFFFFF" d="M118.28,585.167l-6.55-1.822l-4.126,14.836l6.42,1.789c4.898,1.361,7.44-2.872,8.324-6.057
	C123.127,591.101,123.279,586.559,118.28,585.167z M119.119,593.26c-0.675,2.438-2.227,4.743-4.75,4.042l-3.017-0.835l2.702-9.716
	l2.976,0.828C118.351,587.946,120.34,588.881,119.119,593.26z"/>
<path fill="#FFFFFF" d="M133.076,588.804l-6.639-1.466l-3.329,15.04l6.516,1.439c4.965,1.099,7.27-3.272,7.982-6.497
	C138.238,594.474,138.141,589.924,133.076,588.804z M134.353,596.841c-0.545,2.476-1.974,4.861-4.531,4.298l-3.058-0.68l2.174-9.845
	l3.017,0.668C133.295,591.575,135.332,592.403,134.353,596.841z"/>
<polygon fill="#FFFFFF" points="152.198,595.205 144.146,593.802 143.589,596.989 150.985,598.281 150.514,600.964 143.122,599.673 
	142.435,603.606 150.848,605.072 150.376,607.755 138.861,605.747 141.511,590.573 152.666,592.521 "/>
<path fill="#FFFFFF" d="M163.231,593.999l-7.715-1.036l-2.049,15.268l3.125,0.419l0.801-5.975l3.295,0.441
	c2.36,0.312,2.379,1.14,2.097,3.225c-0.204,1.57-0.186,2.375-0.067,3.129l3.525,0.471l0.056-0.404
	c-0.646-0.345-0.571-0.901-0.271-3.132c0.379-2.847-0.237-3.406-1.417-4.127c1.574-0.308,2.62-1.64,2.846-3.321
	C167.636,597.639,167.291,594.54,163.231,593.999z M164.226,598.849c-0.201,1.511-1.083,1.975-2.75,1.756l-3.737-0.505l0.545-4.078
	l3.975,0.53C164.133,596.804,164.333,598.04,164.226,598.849z"/>
<path fill="#FFFFFF" d="M172.007,605.766c-0.063,0.854,0.208,2.521,3.006,2.791c1.518,0.145,3.236-0.052,3.392-1.678
	c0.115-1.194-1.009-1.625-2.59-2.167l-1.611-0.545c-2.419-0.816-4.757-1.604-4.427-4.977c0.164-1.711,1.373-4.632,6.35-4.149
	c4.698,0.457,5.663,3.655,5.496,5.533l-3.073-0.297c-0.022-0.69-0.119-2.338-2.917-2.608c-1.209-0.119-2.709,0.189-2.846,1.573
	c-0.115,1.198,0.846,1.551,1.466,1.763l3.651,1.28c2.045,0.713,3.882,1.755,3.615,4.509c-0.449,4.612-5.184,4.564-6.531,4.435
	c-5.596-0.546-6.242-3.863-6.056-5.763L172.007,605.766z"/>
<polygon fill="#FFFFFF" points="187.044,611.818 183.834,611.607 184.843,596.236 195.783,596.956 195.605,599.673 187.879,599.168 
	187.653,602.634 194.414,603.079 194.232,605.8 187.475,605.354 "/>
<polygon fill="#FFFFFF" points="200.014,612.538 196.796,612.39 197.494,597.005 200.704,597.149 "/>
<polygon fill="#FFFFFF" points="214.78,600.281 206.616,600.088 206.534,603.324 214.041,603.502 213.978,606.227 206.467,606.048 
	206.378,610.037 214.91,610.241 214.846,612.965 203.157,612.684 203.524,597.286 214.85,597.558 "/>
<polygon fill="#FFFFFF" points="220.917,610.175 228.577,610.145 228.588,612.932 217.711,612.977 217.652,597.572 220.869,597.562 
	"/>
<path fill="#FFFFFF" d="M243.907,604.396c-0.097-2.913-1.317-7.292-6.502-7.121l-6.798,0.223l0.508,15.393l6.669-0.219
	C242.868,612.505,244.018,607.699,243.907,604.396z M237.309,610.026l-3.133,0.104l-0.334-10.075l3.092-0.104
	c1.369-0.045,3.548,0.248,3.699,4.794C240.719,607.272,239.925,609.938,237.309,610.026z"/>
<polygon fill="#FFFFFF" points="259.519,611.433 256.312,611.682 255.336,599.038 250.698,599.398 250.49,596.678 262.977,595.721 
	263.189,598.437 258.542,598.793 "/>
<path fill="#FFFFFF" d="M279.58,601.646c-0.809-7.184-6.234-7.459-8.253-7.232c-2.029,0.227-7.262,1.696-6.453,8.884
	c0.802,7.185,6.23,7.459,8.253,7.233C275.157,610.305,280.389,608.835,279.58,601.646z M272.823,607.822
	c-1.723,0.196-4.275-0.598-4.754-4.884c-0.482-4.286,1.829-5.622,3.559-5.819c1.726-0.192,4.278,0.602,4.758,4.888
	C276.86,606.293,274.551,607.633,272.823,607.822z"/>
<path fill="#FFFFFF" d="M279.747,593.917l3.389-0.542c3.28,8.016,3.647,9.044,4.197,10.736l0.04-0.004
	c0.026-1.637,0.012-3.218,0.346-11.463l3.362-0.538c3.12,8.063,3.396,8.843,4.045,10.762l0.044-0.008
	c0.026-1.48,0.07-2.835,0.698-11.519l3.225-0.516l-1.849,15.894l-3.05,0.49c-2.761-7.207-3.273-8.646-4.249-11.489l-0.041,0.007
	c0,2.999-0.078,4.142-0.453,12.243l-2.965,0.471L279.747,593.917z"/>
<polygon fill="#FFFFFF" points="309.902,588.484 312.841,587.857 316.047,602.924 312.901,603.592 304.465,594.162 304.424,594.169 
	306.71,604.912 303.775,605.54 300.569,590.474 303.883,589.769 312.099,598.986 312.14,598.975 "/>
<path fill="#FFFFFF" d="M328.906,583.522l-3.563,1.039l-0.942,16.328l3.251-0.953l0.141-3.348l5.455-1.6l1.837,2.772l3.354-0.979
	L328.906,583.522z M327.871,593.795l0.178-6.401l0.037-0.012l3.548,5.311L327.871,593.795z"/>
<polygon fill="#FFFFFF" points="343.987,594.781 340.962,595.888 335.678,581.422 345.972,577.659 346.908,580.216 339.63,582.877 
	340.826,586.139 347.193,583.813 348.128,586.369 341.76,588.699 "/>
<path fill="#FFFFFF" d="M358.585,577.37c-0.631-0.724-1.821-2.078-4.227-0.928c-1.396,0.664-2.998,2.571-1.124,6.501
	c1.194,2.498,3.251,4.271,5.715,3.096c1.606-0.769,2.289-2.212,1.822-4.082l2.905-1.385c0.864,3.292-0.104,6.346-3.585,8.012
	c-3.699,1.767-7.544,0.538-9.838-4.264c-2.319-4.857-0.697-8.676,2.884-10.387c4.16-1.989,7.214,0.07,8.35,2.049L358.585,577.37z"/>
<path fill="#C4A100" d="M106.619,467.007c-0.005,16.825-0.009,27.65-0.009,27.65c0,3.286,0.638,14.329,8.938,18.48
	c0,0,103.728,61.666,105.003,62.423c8.375-4.981,104.923-62.427,105.001-62.468c8.22-4.106,8.857-15.149,8.857-18.436l-0.005-27.684
	L220.55,417.47L106.619,467.007z"/>
<path fill="#FFFFFF" d="M156.611,358.933v-82.759c-7.359,0-16.846,0-25.595,0v93.84l-24.368,10.551c0,1.788,0,3.581,0,5.371
	l113.902-49.524l113.84,49.5v-5.421l-24.206-10.48v-93.836h-25.595v82.752l-25.598-11.081v-71.671h-24.451v-0.451
	c-0.084,0.068-0.165,0.134-0.249,0.201c-0.297,0.238-0.598,0.479-0.895,0.718v60.119l-12.847-5.718l-12.744,5.726v-41.495
	c-5.236,3.152-10.784,6.012-16.834,8.348l-0.575,0.223l-0.529-0.318c-2.809-1.686-5.353-3.645-7.66-5.809v50.133L156.611,358.933z"
	/>
<path fill="#007CBF" d="M156.611,358.933l25.598-11.084v-50.133c-6.286-5.9-10.735-13.396-13.489-21.542c-1.583,0-6.14,0-12.108,0
	V358.933z"/>
<path fill="#007CBF" d="M220.55,331.042l12.847,5.718v-60.119c-8.041,6.479-16.3,13.037-25.59,18.631v41.495L220.55,331.042z"/>
<path fill="#007CBF" d="M131.016,276.174c-12.43,0-23.329,0-24.331,0c-0.002,7.861-0.019,55.56-0.037,104.391l24.368-10.551V276.174
	z"/>
<polygon fill="#007CBF" points="258.992,347.845 284.589,358.926 284.589,276.174 258.992,276.174 "/>
<path fill="#007CBF" d="M310.184,276.174v93.836l24.206,10.48l-0.019-102.751c-1.948,1.628-3.509,3.188-4.124,4.01l-0.758,1.007
	L328.483,282c-1.872-1.406-4.249-3.838-6.739-6.584v0.758H310.184z"/>
<path fill="#FFFFFF" d="M212.651,211.548c-13.909,7.674-27.159,14.995-32.76,21.497c5.429,10.937,10.428,28.946,11.044,39.406
	c7.8-4.354,15.823-9.789,23.611-15.102c15.846-10.812,32.122-21.863,47.75-24.464c-18.763-13.774-13.844-31.538-8.459-48.881
	C245,193.683,228.614,202.741,212.651,211.548z"/>
<path fill="#FFFFFF" d="M236.413,150.145c-9.652,4.203-18.922,3.133-23.32,1.682c-5.288,2.885-21.458,3.149-27.234,0.53
	c-4.919,5.775-14.923,10.884-19.274,10.433l-0.806-0.216c-1.603-0.427-3.631-0.973-5.501-1.839
	c-4.568,5.895-6.342,11.277-6.342,16.123c0,10.13,7.602,17.943,12.851,23.339c2.475,2.546,4.31,4.498,4.896,6.181
	c28.173-8.346,63.312-23.898,65.849-31.302c0.081-0.238,0.112-0.438,0.112-0.608c0-0.319-0.114-0.537-0.241-0.711l-0.263-0.36
	l0.021-0.445c0.203-4.017,1.945-6.935,4.906-8.216c3.557-1.54,8.595-0.447,12.25,2.654c1.396,1.185,2.456,2.535,3.169,3.981
	c0.334-1.895,0.521-3.776,0.521-5.614c0-3.511-0.642-6.866-1.852-9.963C250.131,156.645,240.48,153.552,236.413,150.145z"/>
<path fill="#FFFFFF" d="M272.444,232.467c0.547-2.544,2.299-9.13,6.767-15.231c-0.536-3.81-1.272-7.14-2.514-9.762
	c-5.859,6.626-9.595,16.358-9.595,22.299c0,0.987,0.115,1.852,0.326,2.596C269.11,232.3,270.783,232.302,272.444,232.467z"/>
<path fill="#FFFFFF" d="M137.759,246.364l-0.333,3.983c-0.013,0.157-0.019,0.315-0.019,0.476c0,4.202,4.44,9.3,8.376,13.818
	c1.94,2.227,3.683,4.273,4.92,6.169c1.586-4.663,5.457-8.814,9.801-13.445l4.824-5.306c0.262-6.832,1.523-13.486,3.709-19.477
	c-10.491-9.933-16.74-24.773-18.087-37.912c-11.42,5.37-20.203,14.625-29.437,24.447c-14.31,15.217-29.107,30.953-54.705,30.953
	c-10.059,0-18.202-2.354-25.388-4.43c-10.768-3.112-18.549-5.36-26.541,1.812c-2.27,2.837-7.639,6.63-11.463,8.572
	c2.323,1.451,4.784,3.852,7.515,6.564c4.542,4.512,9.691,9.625,14.5,9.995l3.253,0.25l-2.576,2.002
	c-10.658,8.288-21.341,26.645-21.341,45.858c0,0.177,0,0.354,0.001,0.531c0.145,14.068,6.092,26.407,17.15,35.993
	c-1.009-3.399-1.492-6.602-1.492-9.604c0-15.322,11.745-25.751,20.855-33.84c4.175-3.707,7.778-6.908,9.409-9.803l2.251,1.13
	c-0.609,1.371-0.879,2.763-0.879,4.166c0,6.017,4.961,12.236,9.438,17.849c2.759,3.458,5.221,6.563,6.455,9.429
	c5.476-8.342,7.919-17.257,10.137-25.929c2.637-10.314,5.128-20.058,12.953-26.319l3.64-2.913l-1.675,4.35
	c-2.407,6.253,6.708,15.909,11.142,19.601l0.011-31.683H127.4c0.614-8.319,4.904-20.736,7.802-24.216L137.759,246.364z"/>
<path fill="#007CBF" d="M377.014,133.417c-9.228,2.676-18.77,5.442-27.754,5.442c-5.789,0-9.038-2.876-12.477-5.921
	c-1.551-1.373-3.163-2.739-4.989-3.837c5.053-1.155,13.842-3.4,17.453-5.808l1.471-0.98l-1.406-1.071
	c-2.777-2.115-5.812-4.064-8.746-5.95c-12.122-7.786-24.626-15.818-24.626-38.615c0-0.88,0.081-1.858,0.12-2.784
	c7.422,7.565,15.031,7.191,23.047,6.765c8.455-0.449,17.196-0.914,28.012,6.86l3.168,2.275l-1.234-3.698
	c-0.31-0.928-0.431-2.417-0.431-4.16c0-3.229,0.412-7.303,0.798-10.311c5.185,6.407,11.458,10.568,17.123,14.165
	c6.83,4.337,12.226,7.763,12.226,13.575c0,14.833,2.577,18.401,6.142,23.338c1.647,2.281,3.549,4.928,5.505,9.37
	C402.687,126.021,390.14,129.613,377.014,133.417z"/>
<path fill="#FFFFFF" d="M319.047,202.776l0.204,0.052l1.479-7.034c2.063-10.786,4.495-22.876,16.071-28.67
	c0.612,6.203,3.765,10.956,6.708,15.124c2.952,4.183,5.57,7.89,5.57,12.574c0,0.938-0.106,1.917-0.334,2.945l-0.575,2.586
	l2.369-1.185c7.485-3.744,8.813-10.912,8.813-18.662c0-2.147-0.103-4.34-0.202-6.516c-0.107-2.273-0.214-4.565-0.214-6.822
	c0-6.525,1.026-12.689,5.411-17.298c1.431,1.171,3.637,2.122,6.273,3.248c6.167,2.635,13.844,5.913,16.034,13.798l0.787,2.828
	l1.511-2.517c6.503-10.839,6.346-22.394-0.425-34.353c12.275-2.95,21.577-2.836,25.315,9.057l1.052-0.312l-1.002,0.445
	c2.558,5.753,4.99,28.233-2.675,37.286l1.575,1.917c7.895-4.384,14.656-2.208,20.091-0.46c1.303,0.419,2.521,0.791,3.683,1.069
	c-3.382,2.636-5.399,6.439-7.496,10.418c-4.427,8.407-9.444,17.937-29.232,20.946l-0.117,2.47c2.158,0.541,4.325,2.466,6.617,4.504
	c2.319,2.061,4.692,4.17,7.351,5.098c-10.88,7.18-23.631,5.773-36.033,4.236c-11.782-1.461-22.911-2.84-31.313,3.552l0.804,1.057
	C336.21,227.023,327.774,215.591,319.047,202.776z"/>
<path fill="#FFFFFF" d="M26.416,149.348c0-11.361,4.251-22.042,10.587-29.124C52.096,104.053,54.61,92.235,56.63,82.74
	c1.945-9.146,3.627-16.473,15.536-24.694c0.499,3.557,2.473,6.488,4.646,9.517c2.828,3.944,5.728,7.987,5.728,14.106
	c0,2.152-0.358,4.561-1.205,7.312l2.214,1.128c7.487-9.984,16.217-11.254,26.325-12.725c8.782-1.277,18.661-2.796,29.072-10.379
	c-1.642,25.271-15.482,40.83-28.344,46.952l-3.038,1.445c0,0,11.619,3.254,16.647,4.662c-2.034,0.919-3.769,2.211-5.515,3.603
	c-5.655,4.505-12.691,10.111-36.729,7.338c-15.213-1.739-36.933,3.852-47.229,17.64c-3.488,4.674-5.244,9.843-5.244,15.3
	c0,0.596,0.158,1.217,0.201,1.821C27.517,160.345,26.416,154.777,26.416,149.348z"/>
<path fill="#007CBF" d="M71.799,232.762c-12.442,2.148-24.26,4.136-42.527-6.028c14.221-2.03,15.842-10.937,15.901-11.352
	l0.166-1.156l-1.141-0.253c-12.161-2.703-32.673-22.33-36.429-41.623c9.385,6.108,23.316,4.64,25.737,4.032l-0.274-1.095
	l1.128-0.622c-3.772-8.877-2.943-17.354,2.401-24.513c5.709-7.646,15.664-12.758,25.897-15.22
	c-6.589,11.617-7.318,27.555,6.24,38.007l2.252,1.737l-0.226-2.835c-0.037-0.487-0.058-1.009-0.058-1.559
	c0-8.459,4.548-23.555,11.827-26.378c3.468,5.64,4.171,13.047,4.171,20.362c0,2.06-0.048,4.108-0.097,6.1
	c-0.044,1.873-0.087,3.688-0.087,5.416c0,5.916,0.507,10.81,3.197,13.498l0.777,0.777l0.876-0.665
	c7.589-5.762,11.878-15.12,15.011-21.951c0.748-1.629,1.429-3.07,2.089-4.375c1.685,4.924,5.481,9.221,10.242,14.373
	c5.322,5.756,11.929,12.919,17.616,23.547c-6.029,4.939-11.471,10.726-16.811,16.404c-5.299,5.635-10.671,11.338-16.636,16.25
	l0.061-0.188C90.758,229.489,81.121,231.153,71.799,232.762z"/>
<path fill="#007CBF" d="M71.921,398.138c-5.928-2.554-11.526-4.966-15.573-9.966l-1.549-1.915l-0.647,2.375
	c-0.843,3.091-3.739,6.854-6.541,10.49c-3.021,3.927-5.786,7.663-6.481,10.957c-12.73-12.875-12.951-24.925-12.998-34.705
	c-0.019-3.942-0.054-7.509-0.828-10.723l0.254,0.189l-0.561-1.34c-0.31-0.998-0.703-1.963-1.209-2.889l-0.009-0.022
	c-1.98-4.729-2.832-9.042-2.832-13.005c0-4.999,1.373-9.428,3.531-13.434c5.45,9.986,18.388,6.587,32.055,2.979l5.611-1.452
	l-0.335-1.35c1.365,2.014,2.329,3.858,2.457,5.399l0.276,3.337l1.993-2.69c1.813-2.447,3.323-4.973,4.626-7.528l0.145,0.886
	c13.547-2.189,21.98,0.679,27.338,9.247c0.273,2.008,1.236,8.643,2.431,11.846c-3.668,2.035-10.96,5.956-12.973,6.461l-2.323,0.582
	l1.794,1.585c9.045,8.003,13.916,18.523,14.55,30.1l-0.002,4.579c-0.391,9.271-3.488,19.062-9.121,28.696
	C93.239,407.331,82.416,402.659,71.921,398.138z"/>
<path fill="#007CBF" d="M89.061,469.636c-0.969-2.928-0.46-9.587-0.091-14.448c0.31-4.073,0.469-6.435,0.141-7.578l-0.288-1.002
	l-5.577,0.511l-0.334,0.512c-1.991,3.062-1.147,7.055-0.08,12.11c1.677,7.938,3.975,18.808-4.559,31.491
	c-1.934,2.798-4.385,3.533-4.973,3.305c0.017-0.095,0.068-0.414,0.068-0.414c0.668-1.503,0.989-3.928,0.989-6.375
	c0-3.186-0.542-6.409-1.561-7.682l0.123,0.182c-4.271-7.834-6.001-19.775-1.5-26.199c4.054-5.538,5.418-11.01,4.385-13.086
	l-0.498-1.001l-1.052,0.373c-9.793,3.468-10.884,12.252-11.847,20.004c-0.833,6.71-1.62,13.048-7.569,15.794
	c-4.523,1.808-8.693,1.36-10.791,0.104c-0.677-0.406-0.85-0.738-0.867-0.821c0.028-0.024,0.317-0.273,0.317-0.273
	c6.423-3.67,6.806-7.312,7.248-11.529c0.293-2.806,0.627-5.987,2.861-10.038c2.999-6.222,8.875-9.114,14.061-11.664
	c2.562-1.262,4.776-2.349,6.386-3.714l0.62-0.525l-1.082-3.816l-0.497-0.249c-2.026-1.013-7.672-0.027-10.105,2.808
	c-2.249,3.062-4.19,4.585-5.828,4.604c-2.334,0.025-4.68-3.03-7.164-6.265c-2.614-3.406-5.709-7.407-9.934-9.366
	c12.105-2.884,15.024-0.26,18.061,2.523c2.631,2.412,5.615,5.144,13.784,4.503l1.307-0.102l-0.152-1.303
	c-1.037-8.836,6.845-13.623,15.621-17.445c0.464,0.813,0.885,1.696,1.278,2.628c-4.885,0.856-10.988,2.757-13.845,7.004
	c-1.472,2.188-1.889,4.721-1.238,7.529c4.181,12.582,13.626,17.184,26.628,13.076c0.404-0.146,0.679-0.214,0.883-0.253
	c-0.221,0.868-1.232,2.808-3.319,5.411l-0.343,0.43l0.08,0.542c0.206,1.396,0.288,2.687,0.288,3.906c0,2.67-0.399,4.985-0.791,7.249
	c-0.349,2.012-0.69,3.981-0.69,6.049c0,3.017,0.835,6.275,3.336,10.12C93.317,479.453,91.626,475.713,89.061,469.636z"/>
<path fill="#007CBF" d="M392.782,430.543c-1.651,1.822-3.353,3.702-3.353,7.451c0,0.36,0.015,0.735,0.048,1.132
	c0.037,0.463,0.055,0.904,0.055,1.325c0,4.394-1.902,6.561-3.309,6.95c-0.388,0.108-0.903,0.134-1.152-0.363
	c-3.96-5.733-10.162-8.138-17.109-6.752L367,440.478l-0.052,0.979c-0.01,0.194-0.016,0.384-0.016,0.567
	c0,5.671,4.708,6.331,8.174,6.817l3.431,0.672c4.288,1.747,6.191,6.624,8.397,12.268c1.999,5.118,4.37,10.762,8.959,14.989
	c-9.448,3.38-16.06,3.82-19.564,1.198c-4.148-3.103-3.571-10.238-3.148-15.448l0.223-3.838c0-2.86-2.266-8.731-10.753-12.587
	l-1.72-0.779l-0.062,1.887c-0.007,0.202-0.011,0.402-0.011,0.6c0,6.507,3.581,9.626,6.218,11.921
	c1.974,1.721,3.091,2.771,3.091,4.325c0,3.948-1.464,8.034-3.013,12.365c-1.707,4.769-3.574,9.982-3.574,15.63
	c0,1.793,0.28,3.645,0.72,5.526c-5.983-1.771-10.323-5.346-12.147-10.417c-0.637-1.763-0.946-3.633-0.946-5.529
	c0-4.206,1.525-8.543,4.405-12.143c3.584-4.305,5.379-8.225,5.379-11.728c0-2.756-1.109-5.25-3.333-7.471l-0.809-0.811l-0.883,0.729
	c-2.333,1.924-3.084,5.237-3.88,8.744c-1.488,6.554-3.277,13.891-15.154,16.064c0-1.813,0-9.587,0-14.226l0.238,0.351
	c1.944-1.321,3.728-3.104,5.451-4.828c2.019-2.019,3.926-3.924,5.703-4.687c12.736-3.813,20.344-11.945,20.344-21.777
	c0-0.184-0.002-0.369-0.008-0.555c-0.1-3.437-1.137-6.698-2.85-9.5c2.013,2.297,3.268,5.017,3.28,7.744
	c-0.396,2.067,0.625,4.152,1.804,5.259c1.052,0.989,1.924,0.907,2.351,0.771c0.511-0.163,0.887-0.557,1.09-1.087
	c6.225-8.776,10.7-8.566,15.03-8.357c2.257,0.111,4.57,0.169,6.834-1.102C395.925,426.892,394.424,428.732,392.782,430.543z"/>
<path fill="#FFFFFF" d="M417.265,372.99l-0.503,1.807c-4.201,5.236-16.85,31.351-20.559,40.02c-0.763-1.032-1.62-2.053-2.564-3.096
	c-2.857-3.155-5.969-6.594-5.969-11.9c0-2.653,0.777-5.771,2.752-9.556l-2.028-1.455c-6.288,6.574-14.681,10.562-22.086,14.079
	c-10.886,5.176-21.171,10.063-21.171,21.828c0,0.857,0.479,1.581,1.276,1.94c1.607,0.724,4.286-0.096,6.374-1.948
	c1.186-1.05,3.429-3.614,3.429-7.96c0-0.708-0.07-1.469-0.204-2.274c5.785,2.329,9.937,8.249,10.127,14.887
	c0.006,0.167,0.008,0.332,0.008,0.499c0,8.772-6.776,15.823-18.681,19.394c-2.358,1.004-4.433,3.076-6.628,5.271
	c-1.27,1.267-2.572,2.563-3.906,3.638c0-0.557,0-0.905,0-0.905h-0.005l-0.014-72.495l0.476,0.6c2.866-2.274,4.973-4.909,7.008-7.457
	c3.735-4.674,7.263-9.09,15.114-10.584l-0.235-2.499c-4.344,0-9.875-3.28-15.226-6.453l-7.142-3.964v-3.775l0.392,0.584
	c18.063-12.075,31.96-11.133,44.221-10.301c13.145,0.891,24.511,1.64,36.579-13.493c4.043,3.981,5.721,8.522,5.721,14.4
	C423.821,349.426,421.083,359.26,417.265,372.99z"/>
<path fill="#007CBF" d="M445.957,256.139c-1.929,7.462-4.114,15.919-24.638,18.596l-2.596,0.338l1.884,1.819
	c20.726,20.009,21.779,26.049,21.779,40.566c0,21.354-12.316,39.686-21.521,51.946c3.173-11.494,5.461-20.462,5.461-27.615
	c0-13.591-8.061-21.188-33.031-29.813l-0.54-0.187l-0.497,0.284c-4.669,2.665-10.48,15.982-12.229,20.197
	c-19.303-7.271-22.936-26.704-25.832-42.402c-1.509-8.173-2.812-15.231-6.123-19.056c-1.169-0.994-2.497-1.33-4.097-1.144
	c-5.183,0.605-12.124,6.586-14.862,9.536c-3.104-2.621-7.42-7.593-11.32-12.129c-3.505-4.076-6.531-7.596-8.483-9.224l-1.043-0.87
	l-0.79,1.106c-0.633,0.887-5.232,7.511-5.982,12.492c-15.732-11.104-17.512-29.637-18.829-44.717
	c-0.767-8.791-1.429-16.382-4.561-21.342l-0.843-1.333l-1.117,1.115c-6.754,6.755-11.509,18.057-11.509,25.499
	c0,0.626,0.116,1.149,0.186,1.716c-10.021-6.981-13.345-15.017-13.345-23.711c0-7.744,2.569-15.998,5.204-24.464l0.789-2.555l0,0
	l0.732-2.338c0.016-0.042,0.019-0.083,0.034-0.126l0.003,0.002c0.004-0.009,0.002-0.019,0.004-0.028
	c1.517-4.219,2.286-8.461,2.286-12.543c0-2.899-0.416-5.705-1.178-8.377c5.479,3.189,13.428,6.197,20.447,2.716
	c1.215,0.72,2.732,1.273,4.356,1.625c11.863,11.468,20.711,24.56,29.257,37.232c16.429,24.361,30.615,45.401,60.162,45.401
	c12.214,0,25.07-2.346,35.402-4.23c6.484-1.183,12.082-2.205,15.363-2.205c5.375,0,8.416,2.037,11.936,4.395
	c3.35,2.243,7.234,4.625,13.396,5.314C447.576,249.913,446.778,252.958,445.957,256.139z"/>
<path fill="#FFFFFF" d="M167.066,160.32c-0.019-0.017-0.639-0.183-0.639-0.183c-4.729-1.259-8.975-2.698-8.975-6.431
	c0-2.374,1.098-4.602,3.268-6.621c3.972-3.699,10.999-5.993,17.294-5.718l5.945,9.381
	C179.199,156.378,169.931,160.578,167.066,160.32z"/>
<path fill="#007CBF" d="M186.404,149.897l-6.097-9.622c4.709-4.669,14.583-1.657,16.033-1.176c1.305,1.036,10.175,8.08,14.247,11.16
	C204.541,152.363,190.015,152.017,186.404,149.897z"/>
<path fill="#FFFFFF" d="M213.611,149.354c-2.021-1.393-11.84-9.166-14.924-11.612c4.852-5.974,19.286-5.551,23.98-3.358
	c1.125,1.226,7.665,8.385,11.971,13.808C225.768,151.792,217.407,150.688,213.611,149.354z"/>
<path fill="#007CBF" d="M237.57,147.846c-3.651-4.76-9.667-11.457-12.125-14.159c5.688-2.653,14.53-2.665,22.13,3.428
	c1.484,1.523,3.438,6.464,5.012,10.446c0.903,2.287,1.72,4.344,2.459,5.879C249.504,153.834,240.576,150.806,237.57,147.846z"/>
<path fill="#FFFFFF" d="M257.953,153.535c-0.808-1.308-1.882-4.02-3.019-6.9c-1.455-3.682-2.948-7.439-4.428-9.78
	c8.522-2.479,13.747-0.242,19.208,4.168c1.356,1.551,2.527,4.528,3.763,7.685c1.245,3.175,2.633,6.713,4.515,9.526
	C270.947,161.174,262.591,156.709,257.953,153.535z"/>
<path fill="#007CBF" d="M292.225,158.65c-3.266,1.712-8.665,0.943-11.452-0.884c-2.065-2.651-3.533-6.368-4.946-9.978
	c-0.989-2.524-1.938-4.94-3.045-6.787c7.847-1.211,13.018,1.287,16.036,3.713c4.075,3.276,5.906,7.651,5.906,9.712
	C294.724,156.386,293.908,157.769,292.225,158.65z"/>
<path fill="#C4A100" d="M238.124,3.442c0.761-0.38,4.323-0.114,7.184,0.1c3.915,0.291,8.209,0.586,11.679,0.153
	c-1.659,2.142-4.535,5.41-5.855,6.907l-1.985,2.306c-0.245,0.324-0.665,0.944-1.062,1.75c-0.738-0.886-1.774-1.995-3.259-3.373
	c-3.276-3.041-7.051-4.366-11.437-4.019C235.34,5.527,237.214,3.896,238.124,3.442z"/>
<path fill="#C4A100" d="M180.67,3.062c7.342,1.338,17.286,0.501,19.709,0.262c0.854,0.718,2.924,2.453,5.254,4.375
	c-3.666-0.93-8.331-1.49-12.205,0.077c-2.266,0.917-4.008,2.463-5.218,4.592C185.202,8.926,182.166,5.22,180.67,3.062z"/>
<path fill="#C4A100" d="M188.349,21.766c1.295-2.223,1.603-4.184,1.603-5.552c0-0.795-0.1-1.367-0.178-1.695
	c0.95-2.201,2.435-3.699,4.537-4.551c3.579-1.451,8.166-0.71,11.595,0.258c-1.562,0.098-3.31,0.38-5.195,0.981
	c-6.672,2.125-7.796,5.637-9.658,11.456l-0.763,2.346c-1.566,4.705-1.996,5.076-3.269,6.18c-0.037,0.031-0.082,0.072-0.121,0.103
	c0-0.031-0.002-0.061-0.002-0.094C186.897,28.043,187.176,23.771,188.349,21.766z"/>
<path fill="#C4A100" d="M223.884,65.208c-0.575-1.723-1.154-3.461-1.154-3.461c-0.175-0.52-0.653-0.877-1.199-0.898
	c-0.549-0.019-1.05,0.303-1.262,0.808c0,0-0.883,2.121-1.737,4.174c-0.675-2.021-1.362-4.083-1.362-4.083
	c-0.178-0.537-0.679-0.898-1.245-0.898s-1.067,0.362-1.245,0.898c0,0-0.566,1.696-1.125,3.364c-1.102-3.905-2.468-8.744-2.683-9.505
	c0.371-0.541,1.588-2.309,2.366-3.441c1.371,0.537,3.189,0.813,5.464,0.813c2.601,0,4.665-0.098,6.249-0.405
	c0.598,0.862,1.525,2.2,1.885,2.717C226.601,56.082,225.061,61.256,223.884,65.208z"/>
<path fill="#C4A100" d="M213.564,46.916c0.052-0.064,0.066-0.139,0.104-0.207c0.765,0.195,1.681,0.332,2.792,0.4
	c2.325,0.147,5.598,0.222,8.24-0.213c1.57,1.846,1.392,2.452,1.392,2.457c-0.056,0.121-0.215,0.265-0.605,0.408
	c-0.241,0-0.482,0.053-0.701,0.192c-1.043,0.223-2.872,0.401-6.082,0.401c-2.476,0-4.036-0.36-4.914-0.819
	c-0.063-0.067-0.13-0.131-0.208-0.185c-0.074-0.051-0.16-0.069-0.241-0.102c-0.175-0.141-0.308-0.283-0.379-0.425
	C212.655,48.196,213.282,47.28,213.564,46.916z"/>
<path fill="#C4A100" d="M213.457,43.833c0.026-0.078,0.104-0.239,0.364-0.536c1.87-1.525,4.056-2.358,6.427-2.358
	c1.269,0,3.663,0.017,5.971,2.834c-1.203,0.589-4.995,1.005-9.593,0.717C214.366,44.349,213.653,43.975,213.457,43.833z"/>
<path fill="#C4A100" d="M242.298,47.109c-0.453,0.834-0.639,1.998-0.639,3.211c0,1.572,0.312,3.203,0.738,4.335
	c0,0.25-0.007,0.73-0.011,1.397l-2.698-7.019c-0.227-0.586-0.835-0.931-1.454-0.822c-0.62,0.109-1.073,0.642-1.084,1.269
	c0,0-0.122,6.58-0.212,11.501c-1.792-3.548-4.074-8.311-4.938-11.194c-0.828-2.777-1.811-4.873-2.865-6.479
	c-0.096-0.44-0.33-0.938-0.813-1.475c-0.167-0.186-0.371-0.283-0.59-0.34c-2.523-2.72-5.292-3.179-7.485-3.179
	c-2.368,0-5.05,0.756-7.511,2.548c-0.189,0.063-0.368,0.155-0.52,0.304c-0.13,0.132-0.247,0.263-0.36,0.394
	c-2.242,1.911-4.229,4.752-5.519,8.783c-1.358,4.243-4.288,9.186-6.576,12.698c0.638-4.659,1.408-10.269,1.408-10.269
	c0.009-0.06,0.013-0.12,0.013-0.178c0-0.451-0.234-0.875-0.624-1.117c-0.441-0.274-1.004-0.26-1.432,0.033
	c-1.973,1.354-4.242,2.796-5.927,3.756c1.997-4.419,4.648-12.068,5.173-14.428c0.019-0.086,0.026-0.171,0.026-0.258
	c0.312-0.338,0.622-0.663,0.935-1.039c0.976-1.172,1.648-2.233,2.145-3.224c5.418-6.519,13.367-7.849,15.85-8.105
	c0.241,0.849,0.479,1.75,0.712,2.755c0.293,1.269,0.735,3.187,2.245,3.228c1.414,0.04,1.989-1.539,2.457-3.158
	c0.278-0.964,0.553-1.833,0.831-2.658c2.95,0.499,14.28,2.908,16.718,10.712c0.025,0.076,0.074,0.133,0.111,0.201
	c0.151,0.528,0.318,1.082,0.516,1.675c0.79,2.368,1.563,4.001,2.271,5.14C242.876,46.316,242.561,46.631,242.298,47.109z"/>
<path fill="#C4A100" d="M210.039,27.53c-0.616-0.793-1.073-1.563-1.388-2.342l6.602-2.539c0.453,0.883,0.909,1.946,1.364,3.255
	C215.164,26.078,212.759,26.503,210.039,27.53z"/>
<path fill="#C4A100" d="M208.128,22.576c-0.009-0.839,0.111-1.73,0.358-2.711c0.993-0.871,1.954-1.305,2.822-1.198
	c0.538,0.068,1.453,0.411,2.518,1.718L208.128,22.576z"/>
<path fill="#C4A100" d="M205.567,23.603c0.193,1.749,0.854,3.372,2.007,4.996c-1.564,0.772-3.169,1.755-4.709,3.012
	c0.021-0.144,0.044-0.287,0.067-0.429c0.263-1.775,0.538-3.611,1.811-6.083C205.014,24.569,205.292,24.071,205.567,23.603z"/>
<path fill="#C4A100" d="M230.134,18.072c0.816,1.451,1.347,2.873,1.584,4.305l-4.442-1.932
	C228.538,18.698,229.562,18.2,230.134,18.072z"/>
<path fill="#C4A100" d="M225.899,22.71l5.922,2.573c-0.077,0.817-0.244,1.651-0.497,2.505c-2.779-1.083-5.355-1.655-6.843-1.921
	C224.968,24.627,225.443,23.59,225.899,22.71z"/>
<path fill="#C4A100" d="M234.104,20.856c0.445,0.674,0.887,1.461,1.325,2.361c2.019,4.176,2.88,6.803,3.418,9.042
	c-1.529-1.408-3.307-2.523-5.103-3.41C234.613,26.074,234.753,23.447,234.104,20.856z"/>
<path fill="#C4A100" d="M243.415,40.139c-0.761-2.276-1.076-3.922-1.413-5.664c-0.587-3.026-1.188-6.155-4.212-12.402
	c-1.855-3.84-3.934-6.008-6.187-6.526c-0.431-0.38-1.058-0.467-1.562-0.144c-0.015,0.01-0.022,0.026-0.041,0.036
	c-3.674,0.426-6.895,5.229-9.58,14.242c-2.075-8.546-5.023-13.149-8.79-13.618c-2.227-0.278-5.633,0.856-9.222,7.836
	c-1.47,2.857-1.792,5.002-2.074,6.894c-0.353,2.349-0.631,4.206-3.014,7.067c-3.52,4.219-6.386,5.648-10.231,5.099h-0.002
	c-0.001,0-0.001-0.001-0.003-0.001c-1.683-0.233-5.535-1.079-8.415-2.618c2.082-0.152,4.449-0.63,5.767-1.946
	c1.455-1.454,2.078-2.596,2.349-3.357c0.82-0.879,1.438-1.419,1.95-1.863c1.709-1.478,2.331-2.191,4.043-7.335l0.774-2.377
	c1.82-5.687,2.573-8.041,7.951-9.754c6.193-1.971,10.765-0.065,10.813-0.046c0.262,0.111,0.534,0.11,0.794,0.053
	c0.598,0.456,1.106,0.832,1.466,1.072c3.091,2.059,6.58,1.957,10.086-0.297c1.57-1.013,3.448-2.563,5.303-4.184
	c5.376-1.516,9.611-0.667,13.251,2.71c2.408,2.241,3.488,3.646,3.956,4.377c-0.074,0.418-0.126,0.849-0.126,1.297
	c0,0.712,0.107,1.457,0.355,2.21c0.702,2.096,1.247,5.692,1.878,9.857l0.542,3.518c0.141,0.874,0.189,1.568,0.189,2.13
	c0,0.809-0.101,1.344-0.182,1.756c-0.06,0.332-0.09,0.625-0.09,0.892c0,1.395,0.876,2.018,2.851,3.235
	c1.276,0.784,2.115,1.526,2.779,2.201c-1.414-0.148-2.831-0.298-2.831-0.298c-1.812-0.257-2.412-0.507-2.42-0.509
	c-0.493-0.209-1.084-0.103-1.462,0.277c-0.253,0.256-0.39,0.594-0.39,0.937c0,0.171,0.033,0.34,0.104,0.504
	c0,0,0.605,1.393,1.132,2.605c-0.783-0.522-1.577-1.004-2.323-1.391c-0.186-0.267-0.464-0.478-0.786-0.564l0.189,0.049
	C246.569,46.094,245.148,45.353,243.415,40.139z"/>
<path fill="#C4A100" d="M172.499,94.96c-2.828-0.751-3.421-3.979-3.421-6.556c0-3.026,2.991-8.507,8.401-10.498
	c3.47-1.278,5.453-0.772,6.361-0.341c-0.23,0.704-0.683,1.77-1.637,2.885c-1.366,1.592-1.48,4.611-1.592,7.532
	c-0.056,1.394-0.126,3.303-0.405,3.785l0,0C179.038,93.816,175.249,95.691,172.499,94.96z"/>
<path fill="#FFFFFF" d="M171.824,97.498c4.041,1.074,8.964-1.452,10.663-4.426c0.277-0.482,0.435-1.105,0.54-1.893
	c4.275-1.521,8.222-2.273,10.721-2.33c1.968,1.1,3.751,2.664,5.364,4.446c-7.951,2.37-25.407,11.784-30.671,15.285
	c-0.708-2.744-1.25-5.229-1.59-7.031c1.327-1.554,2.857-2.946,4.5-4.198C171.514,97.408,171.673,97.458,171.824,97.498z"/>
<path fill="#FFFFFF" d="M192.631,86.369c-2.481,0.194-5.812,0.864-9.411,2.052c0.004-0.119,0.009-0.213,0.015-0.336
	c0.082-2.122,0.193-5.026,0.961-5.926c1.807-2.106,2.323-4.24,2.437-4.83c1.981,0.024,3.92,0.224,5.794,0.61
	C191.939,80.506,192.327,84.235,192.631,86.369z"/>
<path fill="#FFFFFF" d="M211.54,110.543c-1.06-3.14-6.544-18.083-16.289-23.747c-0.419-2.643-0.709-6.231-0.379-8.228
	c12.599,3.724,21.824,15.384,21.824,29.174c0,1.554-0.154,3.069-0.38,4.561L211.54,110.543z"/>
<path fill="#FFFFFF" d="M215.833,114.813c-0.852,3.558-2.303,6.885-4.282,9.836c-1.808-2.184-4.392-4.985-5.203-5.856
	c1.576-1.694,3.134-3.612,4.654-5.76L215.833,114.813z"/>
<path fill="#FFFFFF" d="M206.005,103.848c-8.459,7.394-28.837,14.76-33.751,16.468c-1.208-2.897-2.256-6.124-3.123-9.193
	c2.859-2.131,25.093-14.271,31.745-15.717C202.964,98.135,204.68,101.148,206.005,103.848z"/>
<path fill="#FFFFFF" d="M167.662,83.712c-0.766,1.622-1.211,3.251-1.211,4.692c0,3.956,1.186,6.223,2.568,7.53
	c-1.38,1.115-2.655,2.351-3.826,3.677l-7.069-3.397C160.169,91.26,163.481,86.956,167.662,83.712z"/>
<path fill="#FFFFFF" d="M175.757,136.267c-11.61-4.292-19.924-15.44-19.924-28.524c0-3.189,0.503-6.26,1.419-9.148l7.112,3.417
	c0.753,3.927,4.973,24.314,12.224,29.146l0.076,0.05C176.214,132.383,175.713,134.209,175.757,136.267z"/>
<path fill="#FFFFFF" d="M173.297,122.623c5.271-1.843,24.843-8.988,33.818-16.402c1.039,2.342,1.722,4.222,2.009,5.062
	c-12.754,18.219-28.398,18.437-31.25,17.667C176.208,127.781,174.672,125.463,173.297,122.623z"/>
<path fill="#FFFFFF" d="M205.471,131.323c-3.586,0.885-6.8,2.468-8.791,4.978c-0.128,0.047-0.256,0.096-0.386,0.142
	c-2.913-0.868-11.107-2.75-16.451,1.037c-0.508-0.109-1.002-0.251-1.499-0.386c-0.308-2.274,0.431-4.45,0.857-5.449
	c4.804,0.245,15.243-1.202,25.383-11.046c0.948,1.021,3.768,4.087,5.418,6.139C208.655,128.419,207.141,129.96,205.471,131.323z"/>
<path fill="#C4A100" d="M221.036,131.229c-2.993-0.734-7.063-1.054-11.127-0.66c5.718-5.921,9.259-13.963,9.259-22.827
	c0-18.143-14.76-32.902-32.903-32.902c-0.685,0-1.354,0.062-2.03,0.103c-0.228-0.078-0.436-0.161-0.703-0.225
	c-0.445-2.128-0.657-3.706-0.657-4.919c0-2.139,0.649-3.167,1.807-4.178c1.872-1.639,2.419-3.12,2.419-4.818
	c0-1.027-0.2-2.135-0.431-3.403c-0.019-0.104-0.308-1.579-0.308-1.579c-0.301-1.486-0.605-2.999-0.605-4.29
	c0-1.09,0.215-2.021,0.838-2.643c1.154-1.152,1.641-2.265,1.774-3.201c2.286,0.042,4.364-0.561,6.394-1.889
	c-1.373,4.167-3.667,10.264-4.973,12.441c-0.753,1.256-0.278,1.994,0.069,2.323c0.647,0.607,1.392,1.273,8.313-3.254
	c-0.529,3.858-1.765,12.85-1.765,12.85c-0.007,0.06-0.011,0.12-0.011,0.179c0,0.525,0.315,1.009,0.813,1.212
	c0.553,0.229,1.191,0.053,1.549-0.426c0.31-0.41,7.572-10.145,10.081-17.983c0.416-1.304,0.931-2.494,1.521-3.573
	c-0.193,0.845-0.121,1.663,0.243,2.406c0.124,0.255,0.28,0.493,0.462,0.716l-2.706,3.936c-0.223,0.321-0.289,0.725-0.182,1.1
	l4.012,14.201c0.156,0.555,0.657,0.942,1.232,0.956c0.577,0.014,1.095-0.351,1.276-0.897c0,0,0.612-1.838,1.225-3.675
	c0.612,1.837,1.225,3.675,1.225,3.675c0.174,0.52,0.649,0.877,1.199,0.897c0.545,0.02,1.05-0.303,1.258-0.808
	c0,0,0.883-2.12,1.741-4.174c0.673,2.021,1.362,4.084,1.362,4.084c0.182,0.544,0.694,0.907,1.266,0.897
	c0.575-0.009,1.072-0.39,1.239-0.937l4.319-14.511c0.115-0.383,0.048-0.795-0.178-1.123l-1.874-2.704
	c0.441-0.32,0.787-0.699,1.005-1.177c0.649-1.445-0.096-3.021-1.054-4.326c0.082-0.039,0.17-0.073,0.249-0.114
	c0.642,1.206,1.254,2.693,1.807,4.545c1.563,5.235,7.27,15.815,7.511,16.263c0.286,0.525,0.887,0.791,1.466,0.65
	c0.583-0.141,0.995-0.654,1.002-1.251c0,0,0.097-5.161,0.182-9.949c1.11,2.877,2.22,5.764,2.22,5.764
	c0.093,0.246,0.267,0.426,0.464,0.569c-0.074,9.006-0.189,22.696-0.216,26.111c-3.306-3.008-4.182-2.486-4.734-2.145
	c-0.591,0.366-0.765,0.929-0.765,1.475c0,0.59,0.204,1.16,0.304,1.436c0.624,1.754,0.813,5.45,0.813,9.096
	c0,2.068-0.063,4.075-0.142,5.75c-1.287-1.035-2.631-2.108-2.631-2.108c-0.412-0.33-0.979-0.378-1.443-0.129
	c-0.427,0.23-0.69,0.677-0.69,1.157c0,0.041,0.004,0.083,0.008,0.124c0,0.011,0.04,0.473,0.04,1.52
	c0,1.695-0.107,4.923-0.656,10.259c-0.493,4.768-1.358,7.232-1.922,8.319c-1.213-3.314-4.639-5.24-4.791-5.323
	c-0.363-0.198-0.801-0.213-1.176-0.04c-0.378,0.174-0.649,0.517-0.735,0.923L221.036,131.229z"/>
<path fill="#C4A100" d="M270.928,138.79c-3.689-2.923-7.941-5.356-13.765-5.397l-0.864-4.491c-1.358-9.824-0.312-16.481,3.14-19.79
	c3.707-3.552,6.854-2.534,6.987-2.488c0.683,0.231,1.429-0.123,1.67-0.8s-0.1-1.418-0.775-1.668c-0.193-0.07-4.75-1.678-9.696,3.063
	c-4.16,3.986-5.44,11.257-3.908,22.164l0.744,4.155l0.017,0.002c-1.792,0.202-3.718,0.61-5.812,1.287
	c-8.731-6.696-18.831-6.266-25.087-2.931c0.475-2.258,1.694-8.09,2.173-10.374c0.846,0.726,1.804,1.775,2.193,3.076
	c0.608,2.031,1.866,2.139,2.378,2.09c3.043-0.288,4.164-7.99,4.509-11.286c0.464-4.5,0.612-7.48,0.653-9.417
	c1.229,0.982,2.464,1.972,2.464,1.972c0.382,0.306,0.901,0.374,1.347,0.178c0.449-0.198,0.75-0.625,0.783-1.113
	c0.022-0.3,0.278-4.169,0.278-8.42c0-3.019-0.145-6.183-0.582-8.444c0.816,0.701,1.781,1.614,2.679,2.552
	c0.367,0.386,0.936,0.51,1.433,0.313c0.493-0.197,0.824-0.675,0.827-1.209l0.282-33.771c0.346,0.338,0.709,0.688,1.109,1.069
	c2.086,1.995,4.688,4.477,7.029,7.82l3.157,4.905c2.906,4.708,5.415,8.774,9.308,9.814c0.004,0,2.979,0.782,4.698,1.233
	c-0.186,1.004-0.401,2.2-0.401,2.2c-0.015,0.078-0.022,0.157-0.022,0.236c0,0.287,0.097,0.567,0.271,0.797
	c0.227,0.295,0.563,0.48,0.932,0.511c0,0,3.985,0.333,5.9,0.493c-0.275,1.179-0.587,2.536-0.587,2.536
	c-0.019,0.092-0.029,0.188-0.029,0.28c0,0.292,0.1,0.579,0.282,0.814c0.237,0.311,0.612,0.499,1.005,0.513
	c0.019,0.001,2.261,0.11,6.398,2.868c3.343,2.232,5.202,4.741,5.202,10.952c0,1.24-0.074,2.628-0.227,4.191
	c-0.378,3.884-1.231,7.295-1.988,10.303l-0.238,0.95c0.01-0.004,0.021-0.007,0.03-0.011c-1.109,4.399-4.556,11.692-4.051,18.417
	C279.575,138.09,275.65,137.84,270.928,138.79z"/>
<path fill="#E32219" d="M303.977,272.725c-0.091-0.27-0.131-0.583-0.131-0.929c0-2.766,2.638-7.645,4.885-11.024
	c1.833,1.787,4.403,4.755,7.149,7.95c1.394,1.619,2.845,3.302,4.284,4.931h-15.879L303.977,272.725z"/>
<path fill="#E32219" d="M301.319,273.652h-64.205c14.803-11.878,29.116-22.542,47.127-22.97
	C287.055,259.436,292.025,267.641,301.319,273.652z"/>
<path fill="#E32219" d="M165.281,255.86c0.097,5.98,0.963,12.018,2.644,17.792h-15.313c0.771-4.966,4.939-9.452,9.733-14.561
	L165.281,255.86z"/>
<path fill="#E32219" d="M149.467,273.652H129.94c0.518-6.588,3.273-15.154,5.57-19.826c1.325,4.235,4.958,8.553,8.374,12.471
	C146.175,268.929,148.512,271.621,149.467,273.652z"/>
<path fill="#FFFFFF" d="M276.503,388.071c-2.687,0.895-6.616-1.251-6.616-4.468v-15.015c0-1.433,1.429-3.039,5.362-1.789
	c4.646,1.607,13.048,5.541,15.734,11.798c1.61,3.398-0.36,5.006-2.687,5.9L276.503,388.071z"/>
<path fill="#FFFFFF" d="M275.287,399.4c-1.678-2.278-0.854-6.68,2.204-7.674l14.287-4.643c1.358-0.438,3.329,0.423,3.358,4.55
	c-0.101,4.917-1.243,14.124-6.364,18.61c-2.728,2.575-4.865,1.206-6.438-0.731L275.287,399.4z"/>
<path fill="#FFFFFF" d="M258.464,391.864c2.694,0.854,4.617,4.901,2.725,7.507l-8.825,12.146c-0.839,1.158-2.942,1.618-5.392-1.707
	c-2.81-4.033-7.3-12.153-5.789-18.788c0.697-3.696,3.229-3.841,5.633-3.199L258.464,391.864z"/>
<path fill="#FFFFFF" d="M266.106,383.414c0.021,2.828-3.232,5.908-6.298,4.913l-14.276-4.643c-1.361-0.438-2.449-2.297-0.044-5.651
	c2.965-3.923,9.303-10.695,16.087-11.314c3.722-0.479,4.649,1.885,4.775,4.375L266.106,383.414z"/>
<path fill="#FFFFFF" d="M268.106,398.009c-2.828,0-5.114-2.285-5.114-5.109c0-2.82,2.286-5.11,5.114-5.11
	c2.816,0,5.103,2.29,5.103,5.11C273.208,395.724,270.922,398.009,268.106,398.009z"/>
<path fill="#FFFFFF" d="M264.139,401.742c1.644-2.301,6.089-2.876,7.979-0.271l8.828,12.146c0.842,1.158,0.631,3.299-3.288,4.598
	c-4.705,1.433-13.819,3.188-19.66-0.297c-3.3-1.803-2.653-4.26-1.299-6.349L264.139,401.742z"/>
<path d="M279.264,377.076c-3.295-2.587-5.41-5.389-4.724-6.269c0.687-0.879,3.923,0.498,7.218,3.08
	c3.299,2.579,5.418,5.385,4.728,6.265C285.795,381.035,282.564,379.655,279.264,377.076z"/>
<path d="M286.605,398.629c1.433-3.934,3.447-6.813,4.497-6.431c1.047,0.382,0.739,3.885-0.701,7.818
	c-1.433,3.934-3.447,6.813-4.497,6.432C284.857,406.065,285.165,402.566,286.605,398.629z"/>
<path d="M268.37,412.267c4.186,0.152,7.548,1.177,7.507,2.29c-0.041,1.12-3.466,1.903-7.655,1.755
	c-4.187-0.152-7.545-1.177-7.504-2.293C260.754,412.901,264.183,412.118,268.37,412.267z"/>
<path d="M249.762,399.138c1.15,4.026,1.218,7.54,0.142,7.849c-1.072,0.308-2.88-2.709-4.026-6.735
	c-1.154-4.026-1.218-7.541-0.145-7.849C246.805,392.098,248.609,395.111,249.762,399.138z"/>
<path d="M256.498,377.388c-3.47,2.338-6.794,3.488-7.414,2.561c-0.627-0.928,1.685-3.577,5.162-5.915
	c3.466-2.338,6.791-3.485,7.414-2.561C262.284,372.4,259.979,375.046,256.498,377.388z"/>
<path fill="#FFFFFF" d="M172.998,398.009c2.82,0,5.106-2.285,5.106-5.109c0-2.82-2.286-5.11-5.106-5.11
	c-2.824,0-5.106,2.29-5.106,5.11C167.892,395.724,170.174,398.009,172.998,398.009z"/>
<path fill="#FFFFFF" d="M164.597,388.071c2.683,0.895,6.613-1.251,6.613-4.468v-15.015c0-1.433-1.429-3.039-5.362-1.789
	c-4.646,1.607-13.048,5.541-15.734,11.798c-1.61,3.398,0.36,5.006,2.687,5.9L164.597,388.071z"/>
<path fill="#FFFFFF" d="M165.81,399.4c1.677-2.278,0.854-6.68-2.204-7.674l-14.284-4.643c-1.362-0.438-3.333,0.423-3.362,4.55
	c0.1,4.917,1.243,14.124,6.364,18.61c2.731,2.575,4.869,1.206,6.438-0.731L165.81,399.4z"/>
<path fill="#FFFFFF" d="M176.958,401.742c-1.644-2.301-6.086-2.876-7.979-0.271l-8.828,12.146c-0.842,1.158-0.631,3.299,3.288,4.598
	c4.709,1.433,13.819,3.188,19.66-0.297c3.299-1.803,2.657-4.26,1.303-6.349L176.958,401.742z"/>
<path fill="#FFFFFF" d="M182.632,391.864c-2.694,0.854-4.617,4.901-2.724,7.507l8.829,12.146c0.835,1.158,2.939,1.618,5.388-1.707
	c2.816-4.033,7.299-12.153,5.793-18.788c-0.702-3.696-3.232-3.841-5.637-3.199L182.632,391.864z"/>
<path fill="#FFFFFF" d="M174.991,383.414c-0.019,2.828,3.232,5.908,6.298,4.913l14.279-4.643c1.358-0.438,2.446-2.297,0.045-5.651
	c-2.969-3.923-9.307-10.695-16.087-11.314c-3.726-0.479-4.65,1.885-4.78,4.375L174.991,383.414z"/>
<path d="M161.832,377.076c3.295-2.587,5.414-5.389,4.724-6.269c-0.687-0.879-3.923,0.498-7.222,3.08
	c-3.295,2.579-5.414,5.385-4.724,6.265C155.301,381.035,158.533,379.655,161.832,377.076z"/>
<path d="M154.492,398.629c-1.433-3.934-3.447-6.813-4.494-6.431c-1.05,0.382-0.734,3.885,0.698,7.818
	c1.433,3.934,3.448,6.813,4.498,6.432C156.243,406.065,155.932,402.566,154.492,398.629z"/>
<path d="M172.727,412.267c-4.186,0.152-7.544,1.177-7.507,2.29c0.041,1.12,3.47,1.903,7.655,1.755
	c4.186-0.152,7.544-1.177,7.507-2.293C180.342,412.901,176.913,412.118,172.727,412.267z"/>
<ellipse transform="matrix(-0.9614 -0.2752 0.2752 -0.9614 269.0985 837.1455)" cx="193.279" cy="399.694" rx="2.023" ry="7.584"/>
<path d="M184.599,377.388c3.47,2.338,6.794,3.488,7.418,2.561s-1.685-3.577-5.162-5.915c-3.47-2.338-6.795-3.485-7.418-2.561
	C178.813,372.4,181.122,375.046,184.599,377.388z"/>
<path d="M239.499,428.465h-12.85l-3.071,4.824c0,0,0,11.66,0,13.768c-1.824,0-7.657,0-8.541,0c-0.625-0.705-4.29-4.828-4.29-4.828
	h-8.982v32.555c0,0,3.331,0,4.798,0c-0.429,2.781-10.365,67.395-10.365,67.395H245.1c0,0-2.414-64.881-2.509-67.395
	c1.054,0,3.531,0,3.531,0v-29.516c0,0-3.888,0-5.362,0c0-2.157,0-16.803,0-16.803H239.499z"/>
<path fill="#FFFFFF" d="M199.138,539.655c2.673,0,40.955,0,43.346,0c-0.084-2.219-1.971-52.939-2.414-64.872h-30.955
	C207.284,486.689,199.517,537.203,199.138,539.655z"/>
<path fill="#FFFFFF" d="M239.975,472.262c0,0,0.586,0,1.308,0c0.798,0,1.761,0,2.316,0c0-2.179,0-22.292,0-24.472
	c-1.476,0-5.362,0-5.362,0s0-14.646,0-16.804c-1.896,0-9.107,0-10.204,0c-0.488,0.769-1.651,2.596-1.932,3.037
	c0,0.698,0,15.555,0,15.555h-12.196c0,0-3.665-4.123-4.29-4.828c-0.777,0-3.781,0-5.327,0c0,2.214,0,25.298,0,27.512
	c0.839,0,2.516,0,3.745,0c0.837,0,1.469,0,1.469,0H239.975z"/>
<rect x="231.634" y="456.538" width="4.286" height="8.939"/>
<rect x="227.341" y="478.707" width="4.293" height="8.939"/>
<path d="M210.349,473.701v7.467c0,0,4.03,0.807,5.362,1.072c0,1.18,0,3.126,0,3.414c-0.121,0.363-2.241,6.735-2.241,6.735
	l2.011,4.024c0,0,4.319,0,5.949,0c0,1.026,0,1.917,0,2.476c-0.668,0.613-3.876,3.559-3.876,3.559l1.703,1.857l4.696-4.309v-6.104
	c0,0-5.709,0-6.914,0c-0.312-0.627-0.616-1.234-0.846-1.696c0.28-0.844,2.041-6.134,2.041-6.134v-5.89c0,0-4.03-0.805-5.362-1.072
	c0-1.455,0-5.399,0-5.399H210.349z"/>
<rect x="213.036" y="456.538" width="4.297" height="8.939"/>
<rect x="227.341" y="506.595" width="4.293" height="8.937"/>
<rect x="214.832" y="520.181" width="4.282" height="8.939"/>
<rect x="222.335" y="456.538" width="4.29" height="8.939"/>
<rect x="218.405" y="509.452" width="4.286" height="8.943"/>
<rect x="211.254" y="509.452" width="4.29" height="8.943"/>
<path fill="#E32219" d="M233.662,185.43c0-1.716,0.725-3.26,1.879-4.354c-12.122,9.808-45.392,22.599-64.701,28.188l-2.308,0.477
	c0,0,0.854-2.265,0.875-2.326c0.004-0.016,0.004-0.032,0.004-0.049c0-0.854-2.557-3.481-4.435-5.411
	c-3.702-3.806-8.884-9.148-11.66-15.842c-0.093,1.125-0.152,2.271-0.152,3.449c0,15.47,8.051,35.05,22.633,45.188
	c4.026-7.895,18.672-16.052,35.634-25.411c10.42-5.749,21.628-11.94,30.427-18.331c-0.681,0.269-1.421,0.421-2.198,0.421
	C236.348,191.43,233.662,188.743,233.662,185.43z"/>
<path fill="#ECE21B" d="M235.541,181.076c0.203-0.164,0.399-0.328,0.59-0.49C235.924,180.737,235.727,180.9,235.541,181.076z"/>
<path fill="#ECE21B" d="M244.396,189.105c-0.82,0.636-1.667,1.271-2.537,1.903C242.868,190.611,243.741,189.948,244.396,189.105z"/>
<path fill="#FFFFFF" d="M252.685,169.313c-2.904-2.467-6.949-3.417-9.615-2.263c-2.05,0.887-3.216,2.955-3.381,5.973
	c0.21,0.47,0.478,0.925,0.478,1.445c0,0.461-0.084,0.938-0.249,1.425c-0.492,1.436-1.817,3.018-3.787,4.694
	c-0.191,0.163-0.387,0.326-0.59,0.49c-1.155,1.094-1.879,2.638-1.879,4.354c0,3.313,2.687,6,6,6c0.777,0,1.517-0.152,2.198-0.421
	c0.871-0.633,1.717-1.267,2.537-1.903c5.153-3.996,9.255-8.059,11.526-12.133C256.334,174.197,255.194,171.441,252.685,169.313z"/>
<path fill="#FFFFFF" d="M283.488,248.19c-2.041-7.436-2.726-15.135-3.335-22.108c-0.149-1.73-0.304-3.397-0.473-5.007
	c-3.888,6.398-4.96,12.845-4.971,12.917l-0.193,1.217l-1.221-0.165c-2.049-0.276-4.123-0.321-6.218-0.207l-0.697,0.755
	c-0.34-0.203-0.651-0.412-0.979-0.617c-15.864,1.581-32.888,13.167-49.435,24.456c-8.373,5.712-17.027,11.615-25.439,16.157
	l1.125,25.013c16.051-6.534,28.768-16.738,41.057-26.643C248.692,261.079,263.827,248.927,283.488,248.19z"/>
<path fill="#FFFFFF" d="M188.536,276.664v-0.861l-0.084-1.876l0.065-0.003c-0.201-9.521-4.983-27.308-10.301-38.567
	c-0.332,0.574-0.618,1.141-0.804,1.7l-0.514,1.542l-1.368-0.881c-1.561-1.007-3.028-2.151-4.451-3.351
	c-2.169,6.296-3.312,13.302-3.312,20.432c0,17.478,6.861,35.587,21.871,45.513l-1.065-23.667L188.536,276.664z"/>
</svg>
