<?xml version="1.0" encoding="UTF-8" standalone="no"?>
<svg
   version="1.1"
   width="1110.6279"
   height="1000.3265"
   id="svg96"
   viewBox="0 0 1110.6279 1000.3265"
   sodipodi:docname="Club Atlético Rosario Central 2000.svg"
   inkscape:version="1.1 (c68e22c387, 2021-05-23)"
   xmlns:inkscape="http://www.inkscape.org/namespaces/inkscape"
   xmlns:sodipodi="http://sodipodi.sourceforge.net/DTD/sodipodi-0.dtd"
   xmlns="http://www.w3.org/2000/svg"
   xmlns:svg="http://www.w3.org/2000/svg">
  <defs
     id="defs100" />
  <sodipodi:namedview
     id="namedview98"
     pagecolor="#ffffff"
     bordercolor="#666666"
     borderopacity="1.0"
     inkscape:pageshadow="2"
     inkscape:pageopacity="0.0"
     inkscape:pagecheckerboard="0"
     showgrid="false"
     fit-margin-top="0"
     fit-margin-left="0"
     fit-margin-right="0"
     fit-margin-bottom="0"
     inkscape:zoom="0.2127098"
     inkscape:cx="77.570475"
     inkscape:cy="928.49508"
     inkscape:window-width="1366"
     inkscape:window-height="705"
     inkscape:window-x="-8"
     inkscape:window-y="-8"
     inkscape:window-maximized="1"
     inkscape:current-layer="svg96" />
  <g
     id="Layer1000"
     transform="matrix(2.314733,0,0,2.314733,-61.056628,-156.48037)">
    <path
       d="m 239.2682,91.1117 c 55.5284,0 103.6715,42.0472 127.4159,103.5071 v -67.7162 h 83.035 V 430.41 h -83.035 v -61.9894 c -23.7444,61.4599 -71.8875,103.5071 -127.4159,103.5071 -79.0671,0 -143.1638,-85.2483 -143.1638,-190.408 0,-105.1597 64.0967,-190.408 143.1638,-190.408 z"
       style="fill:#ffe127;fill-rule:evenodd;stroke:#ffe127;stroke-width:0.216;stroke-linecap:butt;stroke-linejoin:miter;stroke-dasharray:none"
       id="path2" />
    <g
       id="Layer1001">
      <path
         d="m 428.9598,212.6214 c 1.6555,-21.4101 9.3204,-35.8804 18.4326,-35.8804 10.3436,0 16.738,10.1171 19.8641,36.1491 14.8266,-12.6762 26.3435,-17.0784 34.4897,-13.0524 9.307,8.7486 1.7288,27.4243 -2.3882,37.5783 -7.5342,18.582 -29.5702,46.2507 -51.9656,46.2507 -33.6138,0 -71.5442,-67.1463 -52.9707,-83.393 6.1152,-4.716 17.9237,-0.1154 34.5381,12.3477 z"
         style="fill:#003e7c;fill-rule:evenodd"
         id="path4" />
      <path
         d="m 428.9598,105.6957 c 1.6555,-21.4101 9.3204,-35.8804 18.4326,-35.8804 10.3436,0 16.738,10.1172 19.8641,36.1491 C 482.0831,93.2882 493.6,88.886 501.7462,92.912 c 9.307,8.7486 1.7288,27.4244 -2.3882,37.5784 -7.5342,18.5819 -29.5702,46.2506 -51.9656,46.2506 -33.6138,0 -71.5442,-67.1462 -52.9707,-83.393 6.1152,-4.716 17.9237,-0.1154 34.5381,12.3477 z"
         style="fill:#003e7c;fill-rule:evenodd"
         id="path6" />
      <path
         d="m 428.9598,319.5471 c 1.6555,-21.4101 9.3204,-35.8804 18.4326,-35.8804 10.3436,0 16.738,10.1171 19.8641,36.1491 14.8266,-12.6763 26.3435,-17.0785 34.4897,-13.0524 9.307,8.7485 1.7288,27.4243 -2.3882,37.5783 -7.5342,18.582 -29.5702,46.2506 -51.9656,46.2506 -33.6138,0 -71.5442,-67.1462 -52.9707,-83.393 6.1152,-4.716 17.9237,-0.1153 34.5381,12.3478 z"
         style="fill:#003e7c;fill-rule:evenodd"
         id="path8" />
      <path
         d="m 428.9598,425.8463 c 1.6555,-21.4101 9.3204,-35.8804 18.4326,-35.8804 10.3436,0 16.738,10.1171 19.8641,36.1491 14.8266,-12.6763 26.3435,-17.0785 34.4897,-13.0524 9.307,8.7485 1.7288,27.4243 -2.3882,37.5783 -7.5342,18.582 -29.5702,46.2507 -51.9656,46.2507 -33.6138,0 -71.5442,-67.1463 -52.9707,-83.393 6.1152,-4.716 17.9237,-0.1154 34.5381,12.3477 z"
         style="fill:#003e7c;fill-rule:evenodd"
         id="path10" />
    </g>
    <path
       d="m 396.2752,461.8386 c 0.4904,11.6816 -6.4145,21.8472 -18.4181,23.497 -12.6652,1.7404 -20.6966,-5.5826 -26.4353,-15.9631 l -0.129,-0.2335 -2.6867,-5.3731 c -27.388,19.4457 -58.3846,30.7088 -91.9921,34.6238 -30.7937,3.5875 -61.6369,-0.6225 -90.8227,-10.8457 -27.5737,-9.6585 -52.035,-25.3145 -72.8373,-45.7818 -25.6292,-25.2161 -44.6298,-54.7503 -55.3771,-89.1584 -15.95,-51.065 -15.0542,-103.1975 5.004,-152.9966 15.6685,-38.9006 41.0006,-71.4327 75.543,-95.3294 37.5523,-25.9789 79.4019,-38.605 125.1111,-36.3004 38.2187,1.9269 74.1059,13.8775 105.3057,35.6366 2.0301,-3.8115 4.1856,-7.5561 6.3867,-11.2726 3.3729,-5.6962 9.39,-9.3472 15.8519,-10.385 13.8861,-2.23 25.1841,7.5541 25.1841,21.5802 v 88.863 c 0,3.7026 -1.0734,7.2411 -3.3409,10.1931 -4.411,5.7424 -10.8048,6.7428 -17.5422,7.0089 -5.0131,0.1982 -9.7438,-0.9535 -13.6874,-4.1745 -5.5355,-4.521 -6.3566,-10.2308 -9.2616,-16.1076 -19.9511,-40.3637 -55.6818,-67.9249 -101.2212,-71.3364 -24.9554,-1.8698 -52.3607,6.453 -72.8535,20.6274 -21.9943,15.213 -39.3937,35.2324 -51.6694,58.9728 -15.1259,29.2536 -20.914,61.5507 -19.3172,94.3064 1.7104,35.0895 10.8895,70.3638 32.4294,98.6825 24.0497,31.6182 55.895,56.4146 96.9135,58.5221 14.432,0.7416 28.9162,-1.4354 42.7073,-5.6528 33.2149,-10.1583 64.4425,-40.8175 76.297,-73.3317 6.9738,-19.1274 40.4683,-15.9327 40.5462,5.5819 z"
       style="fill:#003e7c;fill-rule:evenodd;stroke:#003e7c;stroke-width:0.216;stroke-linecap:butt;stroke-linejoin:miter;stroke-dasharray:none"
       id="path13" />
    <path
       d="m 389.7561,461.9954 c 0.3989,8.4138 -4.1028,15.6877 -12.7865,16.8811 -9.8121,1.3485 -15.4672,-4.7273 -19.8419,-12.6584 l -0.0638,-0.1153 -6.099,-12.1981 c -27.8159,21.4988 -59.8023,33.8967 -95.1052,38.0092 -29.8954,3.483 -59.5577,-0.5907 -87.9132,-10.523 -26.6729,-9.343 -50.2778,-24.4585 -70.4199,-44.2761 C 72.6395,412.6286 54.2336,384.0636 43.8001,350.6601 28.2472,300.867 29.0477,250.6558 48.6283,202.0431 63.8371,164.2836 88.3553,132.7995 121.8331,109.6396 158.25,84.4461 198.527,72.2514 242.9067,74.4888 c 39.6808,2.0007 76.5318,15.1143 108.004,38.9027 2.8743,-6.0738 6.1821,-11.912 9.6265,-17.7282 2.3794,-4.0184 6.7331,-6.5403 11.2759,-7.2697 9.8357,-1.5797 17.6306,5.0338 17.6306,15.143 v 88.863 c 0,2.2601 -0.602,4.4124 -1.9916,6.2215 -3.0237,3.9364 -8.0787,4.2862 -12.6292,4.466 -3.3936,0.134 -6.618,-0.514 -9.3058,-2.7094 -3.9875,-3.2567 -5.2932,-9.4 -7.541,-13.9473 -20.9982,-42.482 -58.7758,-71.3679 -106.579,-74.9489 -26.451,-1.9817 -55.3371,6.749 -77.0494,21.767 -22.881,15.8264 -40.9779,36.6364 -53.7517,61.3403 -15.6571,30.2808 -21.6921,63.686 -20.0381,97.6184 1.7762,36.4402 11.3919,72.9142 33.7524,102.312 25.2658,33.2169 58.7676,58.8767 101.7681,61.0863 15.2053,0.7812 30.4168,-1.4856 44.9484,-5.9295 35.1765,-10.758 67.9617,-42.8998 80.5158,-77.3331 4.5184,-12.3928 27.8498,-10.7949 27.9011,3.3724 z m -6.832,-358.4588 c 0,-11.2703 -13.2064,-10.5818 -16.7772,-4.5513 -4.8509,8.1915 -9.2506,16.0849 -12.6164,24.7853 -33.4993,-27.6673 -72.0354,-40.8082 -110.952,-42.7703 -46.5727,-2.348 -84.8421,11.7289 -117.0363,34.001 -30.9903,21.4393 -55.438,51.1733 -70.8664,89.4776 -19.186,47.6342 -19.6169,96.3286 -4.6525,144.2375 9.3251,29.8556 25.8837,57.981 52.0758,83.751 19.9021,19.5818 42.7156,33.9129 68.0026,42.7703 28.0536,9.8266 56.4409,13.5281 85.0037,10.2005 37.9737,-4.4238 70.6079,-18.527 98.0674,-41.6965 l 9.6635,19.3274 c 3.676,6.6643 7.1791,10.1821 13.2458,9.3484 4.2301,-0.5814 7.5121,-3.8435 7.1549,-10.2435 l -0.3129,-86.4352 c 0,-6.6509 -13.1624,-6.9058 -15.2561,-1.1628 -13.1927,36.1843 -47.4344,69.9271 -84.7346,81.3345 -53.4649,16.3508 -108.1384,2.6034 -153.8122,-57.4444 -21.6329,-28.4408 -33.0726,-64.853 -35.0753,-105.9414 -1.7788,-36.4904 5.123,-70.6907 20.759,-100.9304 14.2046,-27.4717 33.7373,-48.4237 55.834,-63.7078 22.7673,-15.7476 53.1164,-25.0138 81.2452,-22.9065 44.8446,3.3593 87.4474,29.0168 111.9367,78.5613 4.2222,8.5419 3.5309,13.3163 10.7447,13.0312 5.7164,-0.2259 8.3586,-0.7855 8.3586,-4.1729 z"
       style="fill:#ffe129;fill-rule:evenodd"
       id="path15" />
    <g
       id="Layer1002">
      <path
         d="m 428.9598,212.6214 c 1.6555,-21.4101 9.3204,-35.8804 18.4326,-35.8804 10.3436,0 16.738,10.1171 19.8641,36.1491 14.8266,-12.6762 26.3435,-17.0784 34.4897,-13.0524 9.307,8.7486 1.7288,27.4243 -2.3882,37.5783 -7.5342,18.582 -29.5702,46.2507 -51.9656,46.2507 -33.6138,0 -71.5442,-67.1463 -52.9707,-83.393 6.1152,-4.716 17.9237,-0.1154 34.5381,12.3477 z"
         style="fill:none"
         id="path17" />
      <path
         d="m 397.1064,202.7789 c 8.0197,-0.5054 17.8075,3.2174 31.3171,15.8375 -0.8039,12.2488 1.0695,24.8544 3.8475,37.5806 -9.9828,-9.3308 -21.3639,-25.4753 -35.1646,-53.4181 z"
         style="fill:none"
         id="path19" />
      <path
         d="m 463.4986,255.9288 c 2.6345,-12.6975 3.9861,-25.181 3.7579,-37.4017 12.6136,-11.355 23.3566,-17.0992 31.6752,-15.569 -13.0544,25.1161 -24.7652,42.171 -35.4331,52.9707 z"
         style="fill:none"
         id="path21" />
      <path
         d="m 447.3927,180.4096 c 8.4024,2.122 15.5191,15.9245 15.569,44.9178 0.0403,23.3918 -6.7748,42.3116 -15.569,53.3285 -1.4366,-32.133 -1.9052,-64.681 0,-98.2463 z"
         style="fill:none"
         id="path23" />
    </g>
    <g
       id="Layer1003">
      <path
         d="m 397.1064,202.7789 c 8.0197,-0.5054 17.8075,3.2174 31.3171,15.8375 -0.8039,12.2488 1.0695,24.8544 3.8475,37.5806 -9.9828,-9.3308 -21.3639,-25.4753 -35.1646,-53.4181 z"
         style="fill:#ffe129;fill-rule:evenodd"
         id="path26" />
      <path
         d="m 463.4986,255.9288 c 2.6345,-12.6975 3.9861,-25.181 3.7579,-37.4017 12.6136,-11.355 23.3566,-17.0992 31.6752,-15.569 -13.0544,25.1161 -24.7652,42.171 -35.4331,52.9707 z"
         style="fill:#ffe129;fill-rule:evenodd"
         id="path28" />
      <path
         d="m 447.3927,180.4096 c 8.4024,2.122 15.5191,15.9245 15.569,44.9178 0.0403,23.3918 -6.7748,42.3116 -15.569,53.3285 -1.4366,-32.133 -1.9052,-64.681 0,-98.2463 z"
         style="fill:#ffe129;fill-rule:evenodd"
         id="path30" />
      <path
         d="m 397.1064,95.8533 c 8.0197,-0.5055 17.8075,3.2173 31.3171,15.8374 -0.8039,12.2488 1.0695,24.8545 3.8475,37.5806 -9.9828,-9.3308 -21.3639,-25.4752 -35.1646,-53.418 z"
         style="fill:#ffe129;fill-rule:evenodd"
         id="path32" />
      <path
         d="m 463.4986,149.0031 c 2.6345,-12.6975 3.9861,-25.181 3.7579,-37.4017 12.6136,-11.355 23.3566,-17.0991 31.6752,-15.569 -13.0544,25.1161 -24.7652,42.171 -35.4331,52.9707 z"
         style="fill:#ffe129;fill-rule:evenodd"
         id="path34" />
      <path
         d="m 447.3927,73.4839 c 8.4024,2.1221 15.5191,15.9245 15.569,44.9178 0.0403,23.3918 -6.7748,42.3117 -15.569,53.3285 -1.4366,-32.133 -1.9052,-64.6809 0,-98.2463 z"
         style="fill:#ffe129;fill-rule:evenodd"
         id="path36" />
      <path
         d="m 397.1064,309.7046 c 8.0197,-0.5054 17.8075,3.2173 31.3171,15.8374 -0.8039,12.2488 1.0695,24.8545 3.8475,37.5806 -9.9828,-9.3308 -21.3639,-25.4752 -35.1646,-53.418 z"
         style="fill:#ffe129;fill-rule:evenodd"
         id="path38" />
      <path
         d="m 463.4986,362.8545 c 2.6345,-12.6975 3.9861,-25.181 3.7579,-37.4017 12.6136,-11.3551 23.3566,-17.0992 31.6752,-15.5691 -13.0544,25.1161 -24.7652,42.1711 -35.4331,52.9708 z"
         style="fill:#ffe129;fill-rule:evenodd"
         id="path40" />
      <path
         d="m 447.3927,287.3353 c 8.4024,2.122 15.5191,15.9244 15.569,44.9178 0.0403,23.3918 -6.7748,42.3116 -15.569,53.3284 -1.4366,-32.1329 -1.9052,-64.6809 0,-98.2462 z"
         style="fill:#ffe129;fill-rule:evenodd"
         id="path42" />
      <path
         d="m 397.1064,416.0038 c 8.0197,-0.5054 17.8075,3.2173 31.3171,15.8375 -0.8039,12.2487 1.0695,24.8544 3.8475,37.5806 -9.9828,-9.3308 -21.3639,-25.4753 -35.1646,-53.4181 z"
         style="fill:#ffe129;fill-rule:evenodd"
         id="path44" />
      <path
         d="m 463.4986,469.1537 c 2.6345,-12.6975 3.9861,-25.181 3.7579,-37.4017 12.6136,-11.3551 23.3566,-17.0992 31.6752,-15.569 -13.0544,25.1161 -24.7652,42.171 -35.4331,52.9707 z"
         style="fill:#ffe129;fill-rule:evenodd"
         id="path46" />
      <path
         d="m 447.3927,393.6345 c 8.4024,2.122 15.5191,15.9245 15.569,44.9178 0.0403,23.3918 -6.7748,42.3116 -15.569,53.3285 -1.4366,-32.133 -1.9052,-64.681 0,-98.2463 z"
         style="fill:#ffe129;fill-rule:evenodd"
         id="path48" />
    </g>
    <g
       id="Layer1004">
      <path
         d="m 242.3611,134.8656 4.2451,13.1508 13.8187,-0.0266 -11.1952,8.1011 4.2956,13.1343 -11.1642,-8.1442 -11.1643,8.1442 4.2956,-13.1343 -11.1951,-8.1011 13.8186,0.0266 z"
         style="fill:#003e7c;fill-rule:evenodd;stroke:#003e7c;stroke-width:0.216;stroke-linecap:butt;stroke-linejoin:miter;stroke-dasharray:none"
         id="path51" />
      <g
         id="Layer1005">
        <path
           d="m 203.9202,144.8872 3.4931,10.8219 11.3717,-0.0219 -9.2126,6.6666 3.5346,10.8082 -9.1868,-6.7017 -9.1868,6.7017 3.5345,-10.8082 -9.2126,-6.6666 11.3717,0.0219 z"
           style="fill:#003e7c;fill-rule:evenodd;stroke:#003e7c;stroke-width:0.216;stroke-linecap:butt;stroke-linejoin:miter;stroke-dasharray:none"
           id="path53" />
        <path
           d="m 170.6346,164.9302 3.4931,10.8218 11.3718,-0.0218 -9.2126,6.6665 3.5345,10.8082 -9.1868,-6.7017 -9.1868,6.7017 3.5345,-10.8082 -9.2126,-6.6665 11.3718,0.0218 z"
           style="fill:#003e7c;fill-rule:evenodd;stroke:#003e7c;stroke-width:0.216;stroke-linecap:butt;stroke-linejoin:miter;stroke-dasharray:none"
           id="path55" />
      </g>
      <g
         id="Layer1006">
        <path
           d="m 280.802,145.0664 -3.4931,10.8218 -11.3718,-0.0218 9.2126,6.6665 -3.5345,10.8082 9.1868,-6.7016 9.1868,6.7016 -3.5345,-10.8082 9.2126,-6.6665 -11.3718,0.0218 z"
           style="fill:#003e7c;fill-rule:evenodd;stroke:#003e7c;stroke-width:0.216;stroke-linecap:butt;stroke-linejoin:miter;stroke-dasharray:none"
           id="path58" />
        <path
           d="m 314.0875,165.1093 -3.4931,10.8218 -11.3718,-0.0218 9.2126,6.6665 -3.5345,10.8083 9.1868,-6.7017 9.1868,6.7017 -3.5345,-10.8083 9.2126,-6.6665 -11.3717,0.0218 z"
           style="fill:#003e7c;fill-rule:evenodd;stroke:#003e7c;stroke-width:0.216;stroke-linecap:butt;stroke-linejoin:miter;stroke-dasharray:none"
           id="path60" />
      </g>
    </g>
    <g
       id="Layer1007">
      <path
         d="m 422.4764,176.741 c 3.4592,0 6.2635,2.8845 6.2635,6.4423 0,3.5578 -2.8043,6.4423 -6.2635,6.4423 -3.4594,0 -6.2637,-2.8845 -6.2637,-6.4423 0,-3.5578 2.8043,-6.4423 6.2637,-6.4423 z"
         style="fill:#003e7c;fill-rule:evenodd;stroke:#003e7c;stroke-width:0.216;stroke-linecap:butt;stroke-linejoin:miter;stroke-dasharray:none"
         id="path64" />
      <path
         d="m 422.4764,283.0436 c 3.4592,0 6.2635,2.8846 6.2635,6.4423 0,3.5578 -2.8043,6.4423 -6.2635,6.4423 -3.4594,0 -6.2637,-2.8845 -6.2637,-6.4423 0,-3.5577 2.8043,-6.4423 6.2637,-6.4423 z"
         style="fill:#003e7c;fill-rule:evenodd;stroke:#003e7c;stroke-width:0.216;stroke-linecap:butt;stroke-linejoin:miter;stroke-dasharray:none"
         id="path66" />
      <path
         d="m 422.4764,389.3462 c 3.4592,0 6.2635,2.8846 6.2635,6.4423 0,3.5578 -2.8043,6.4423 -6.2635,6.4423 -3.4594,0 -6.2637,-2.8845 -6.2637,-6.4423 0,-3.5577 2.8043,-6.4423 6.2637,-6.4423 z"
         style="fill:#003e7c;fill-rule:evenodd;stroke:#003e7c;stroke-width:0.216;stroke-linecap:butt;stroke-linejoin:miter;stroke-dasharray:none"
         id="path68" />
    </g>
    <g
       id="Layer1008">
      <path
         d="m 162.589,205.3877 c 39.9821,0.2432 67.6735,-6.8349 80.574,-23.891 12.9005,17.0561 40.5918,24.1342 80.5739,23.891 v 165.9804 c 0,10.5885 -2.2694,18.18 -8.992,24.1591 -8.3322,7.4109 -20.9574,11.861 -35.6131,16.9982 -14.9207,5.2305 -30.4325,9.3475 -35.9688,25.9509 -5.5364,-16.6034 -21.0481,-20.7204 -35.9688,-25.9509 -14.6557,-5.1372 -27.2809,-9.5873 -35.6131,-16.9982 -6.7226,-5.9791 -8.9921,-13.5706 -8.9921,-24.1591 z"
         style="fill:#003e7c;fill-rule:evenodd"
         id="path71" />
      <path
         d="m 167.1083,246.2788 h 16.901 v 152.4529 c -3.435,-1.7781 -6.7623,-3.8559 -9.6023,-6.3816 -4.8045,-4.2732 -6.6773,-9.4694 -7.2987,-15.302 z"
         style="fill:#ffe127;fill-rule:evenodd"
         id="path73" />
      <path
         d="m 200.9103,246.2788 h 16.901 V 411.753 c -3.0186,-1.107 -6.1112,-2.1535 -9.2106,-3.24 -2.5548,-0.8958 -5.1267,-1.7901 -7.6904,-2.7148 z"
         style="fill:#ffe127;fill-rule:evenodd"
         id="path75" />
      <path
         d="m 234.7123,246.2788 h 16.9011 v 173.8078 c -3.2406,2.3482 -6.1107,5.163 -8.4504,8.6822 -2.3397,-3.5195 -5.2098,-6.3343 -8.4507,-8.6825 z"
         style="fill:#ffe127;fill-rule:evenodd"
         id="path77" />
      <path
         d="m 268.5144,246.2788 h 16.901 v 159.5194 c -2.5637,0.9244 -5.1353,1.819 -7.6901,2.7148 -3.0994,1.0865 -6.192,2.1328 -9.2109,3.24 z"
         style="fill:#ffe127;fill-rule:evenodd"
         id="path79" />
      <path
         d="m 302.3164,246.2788 h 16.901 v 130.7719 c -0.6217,5.8314 -2.4945,11.0267 -7.2984,15.2994 -2.84,2.526 -6.1676,4.6035 -9.6026,6.3819 z"
         style="fill:#ffe127;fill-rule:evenodd"
         id="path81" />
      <g
         id="Layer1009">
        <path
           d="m 193.7373,228.8568 5.8714,1.8034 c -0.9017,3.3064 -2.4047,5.7597 -4.5015,7.3673 -2.097,1.6007 -4.7531,2.4043 -7.9752,2.4043 -3.9912,0 -7.2695,-1.3629 -9.8416,-4.089 -2.5651,-2.7258 -3.8512,-6.4513 -3.8512,-11.1835 0,-4.9975 1.2929,-8.8838 3.8721,-11.6518 2.5793,-2.768 5.9763,-4.1519 10.1841,-4.1519 3.6765,0 6.6611,1.0905 8.9538,3.2644 1.3699,1.286 2.3904,3.1311 3.0756,5.5426 l -5.9973,1.4261 c -0.3563,-1.5517 -1.0973,-2.782 -2.2226,-3.6837 -1.1325,-0.9017 -2.5025,-1.349 -4.11,-1.349 -2.2297,0 -4.0402,0.7969 -5.4241,2.3976 -1.391,1.5936 -2.0829,4.1797 -2.0829,7.7584 0,3.7885 0.6851,6.4936 2.048,8.1011 1.37,1.6146 3.1454,2.4186 5.3331,2.4186 1.6147,0 3.0056,-0.5103 4.1658,-1.5378 1.1605,-1.0276 1.9993,-2.6351 2.5025,-4.8371 z"
           style="fill:#ffe127;fill-rule:evenodd"
           id="path83" />
        <path
           d="m 239.2262,239.6577 h -6.5052 l -2.5758,-7.5734 H 218.183 l -2.4787,7.5734 h -6.3873 l 11.5804,-33.2674 h 6.3805 z m -11.0386,-13.1956 -4.1449,-12.3126 -4.0269,12.3126 z"
           style="fill:#ffe127;fill-rule:evenodd"
           id="path85" />
        <path
           d="m 193.7373,228.8568 5.8714,1.8034 c -0.9017,3.3064 -2.4047,5.7597 -4.5015,7.3673 -2.097,1.6007 -4.7531,2.4043 -7.9752,2.4043 -3.9912,0 -7.2695,-1.3629 -9.8416,-4.089 -2.5651,-2.7258 -3.8512,-6.4513 -3.8512,-11.1835 0,-4.9975 1.2929,-8.8838 3.8721,-11.6518 2.5793,-2.768 5.9763,-4.1519 10.1841,-4.1519 3.6765,0 6.6611,1.0905 8.9538,3.2644 1.3699,1.286 2.3904,3.1311 3.0756,5.5426 l -5.9973,1.4261 c -0.3563,-1.5517 -1.0973,-2.782 -2.2226,-3.6837 -1.1325,-0.9017 -2.5025,-1.349 -4.11,-1.349 -2.2297,0 -4.0402,0.7969 -5.4241,2.3976 -1.391,1.5936 -2.0829,4.1797 -2.0829,7.7584 0,3.7885 0.6851,6.4936 2.048,8.1011 1.37,1.6146 3.1454,2.4186 5.3331,2.4186 1.6147,0 3.0056,-0.5103 4.1658,-1.5378 1.1605,-1.0276 1.9993,-2.6351 2.5025,-4.8371 z"
           style="fill:#ffe127;fill-rule:evenodd"
           id="path87" />
        <path
           d="m 306.1208,228.678 5.8714,1.8034 c -0.9017,3.3063 -2.4047,5.7597 -4.5015,7.3672 -2.097,1.6007 -4.7531,2.4043 -7.9752,2.4043 -3.9912,0 -7.2695,-1.3629 -9.8416,-4.0889 -2.5651,-2.7258 -3.8512,-6.4514 -3.8512,-11.1836 0,-4.9974 1.2929,-8.8837 3.8721,-11.6518 2.5793,-2.768 5.9763,-4.1519 10.1841,-4.1519 3.6765,0 6.6611,1.0905 8.9538,3.2644 1.3699,1.2861 2.3904,3.1312 3.0756,5.5426 l -5.9973,1.4261 c -0.3563,-1.5517 -1.0973,-2.7819 -2.2227,-3.6836 -1.1324,-0.9017 -2.5024,-1.349 -4.1099,-1.349 -2.2297,0 -4.0402,0.7968 -5.4241,2.3975 -1.391,1.5936 -2.0829,4.1797 -2.0829,7.7584 0,3.7885 0.6851,6.4936 2.048,8.1012 1.37,1.6146 3.1454,2.4185 5.3331,2.4185 1.6146,0 3.0056,-0.5102 4.1658,-1.5378 1.1605,-1.0276 1.9993,-2.6351 2.5025,-4.837 z"
           style="fill:#ffe127;fill-rule:evenodd"
           id="path89" />
        <path
           d="m 256.2415,220.805 h 6.8516 c 1.4899,0 2.5858,-0.3535 3.2811,-1.0528 0.7024,-0.7069 1.0502,-1.8133 1.0502,-3.3273 0,-1.4369 -0.3413,-2.5282 -1.017,-3.2658 -0.6826,-0.7455 -1.6934,-1.1143 -3.0453,-1.1143 h -7.1206 z m -5.8278,18.6735 v -33.1512 h 13.7424 c 3.0912,0 5.375,0.7685 6.8649,2.3131 1.4899,1.5446 2.2315,3.9115 2.2315,7.0852 0,2.0211 -0.3612,3.7117 -1.0897,5.0564 -0.7217,1.3525 -1.7654,2.2746 -3.1303,2.7664 1.2272,0.515 2.1002,1.2912 2.6184,2.3439 0.5185,1.0528 0.8138,2.6896 0.8926,4.9105 l 0.1182,3.9189 c 0,0.0309 0,0.0768 0,0.1383 0.0394,1.9826 0.4068,3.1816 1.1027,3.6043 v 1.0142 h -6.3794 c -0.2032,-0.4688 -0.3608,-1.0375 -0.4725,-1.7212 -0.1049,-0.684 -0.1704,-1.4987 -0.1967,-2.4437 l -0.0788,-3.4966 c -0.0655,-2.0593 -0.3938,-3.4426 -0.991,-4.1649 -0.5973,-0.7226 -1.6736,-1.0837 -3.2224,-1.0837 h -6.1821 v 12.9101 z"
           style="fill:#ffe127;fill-rule:evenodd"
           id="path91" />
      </g>
    </g>
  </g>
</svg>
