<?xml version="1.0" encoding="UTF-8"?>
<svg width="1e3" height="853.1" version="1.1" viewBox="0 0 1000.1 853.07" xmlns="http://www.w3.org/2000/svg"><g transform="matrix(1.8229 0 0 1.8229 -16.311 -90.609)" fill-rule="evenodd"><path d="m209.41 386.56-0.0614-0.016-0.5589-0.2511c-18.175-8.1666-31.464-19.626-31.951-41.11l-2e-3 -0.0821v-0.078c-0.0603-55.584-0.4406-111.18-0.4406-166.76 0-5.919-0.6149-9.8328-2.4406-15.55l-2.8795-9.0175 9.4565-0.4231c18.996-0.8499 46.337-10.528 63.149-19.648 12.365-6.7079 24.488-15.891 34.446-25.827l5.1169-5.1059 5.1169 5.1059c9.7729 9.7522 22.342 18.26 34.446 24.826 16.642 9.0277 44.368 19.81 63.149 20.65l9.4561 0.4231-2.879 9.0171c-1.8255 5.7176-2.4404 9.6318-2.4404 15.551 0 55.582-0.4408 111.17-0.4408 166.76v0.0822l-2e-3 0.0823c-0.4875 21.484-13.776 32.943-31.95 41.11l-0.5625 0.2528-0.0616 0.0159c-8.9823 3.9696-18.357 6.7938-27.523 10.271-14.734 5.5888-27.535 14.991-40.173 24.188-0.6515 0.4741-1.2658 0.9979-1.9252 1.4687l-4.2086 3.0058-4.2098-3.0043c-0.6601-0.4712-1.2748-0.9957-1.9269-1.4702-12.638-9.1977-25.438-18.599-40.173-24.188-9.168-3.4776-18.543-6.3019-27.527-10.272z" fill="#fff"/><path d="m208.8 388.24-0.0458-0.0119-0.6908-0.3102c-9.3102-4.1831-17.388-9.2323-23.237-16.029-5.9131-6.871-9.5146-15.471-9.7685-26.674l-2e-3 -0.0818-7e-3 -0.035v-0.078h7e-3c-0.0274-25.399-0.1221-50.8-0.2164-76.2-0.1153-31.142-0.2314-62.291-0.2314-90.559 0-2.8975-0.1459-5.2735-0.5076-7.5783-0.3666-2.3367-0.9568-4.6628-1.8418-7.4344l-3.5865-11.232 11.784-0.5276c8.7143-0.3898 19.268-2.6893 29.744-5.9486 11.951-3.7186 23.768-8.683 32.63-13.49 6.074-3.2949 12.067-7.1751 17.748-11.434 5.8069-4.3539 11.32-9.1224 16.293-14.085l6.3741-6.3604 6.3741 6.3604c4.547 4.5376 9.7088 8.802 15.146 12.72 6.0792 4.3813 12.54 8.35 18.895 11.797 9.0278 4.8974 21.338 10.314 33.678 14.348 10.185 3.3303 20.368 5.7192 28.696 6.0918l11.783 0.5276-3.586 11.232c-0.8849 2.7715-1.4751 5.0976-1.8418 7.4343-0.3616 2.3053-0.5076 4.6813-0.5076 7.5786 0 26-0.114 54.696-0.2273 83.384-0.1064 26.899-0.2134 53.798-0.2134 83.371v0.0823l-7e-3 0.0418-2e-3 0.0821c-0.2557 11.199-3.8567 19.797-9.7683 26.667-5.8488 6.7962-13.927 11.846-23.237 16.029l-0.6953 0.312-0.0454 0.0119c-5.7281 2.5245-11.642 4.5987-17.558 6.6733-3.3039 1.1586-6.6102 2.3185-9.9472 3.5841-14.281 5.4167-26.801 14.53-39.137 23.509l-0.6166 0.4487v7e-3c-0.2706 0.1969-0.561 0.4248-0.8512 0.6526-0.3271 0.2567-0.6551 0.5139-1.0879 0.8231l-5.2418 3.7439-5.2439-3.7424c-0.3543-0.2529-0.7197-0.5398-1.0841-0.8256h-7e-3c-0.2896-0.2273-0.5803-0.4557-0.8497-0.6516v-7e-3l-0.6092-0.4434c-12.338-8.981-24.86-18.096-39.145-23.514-3.3372-1.2658-6.6432-2.4255-9.9472-3.5841-5.9172-2.0752-11.832-4.1496-17.561-6.6751zm0.7159-3.5769 0.4268 0.1918 0.0778 0.02 0.1089 0.0484c5.7122 2.5248 11.557 4.5746 17.405 6.6255 3.3709 1.1822 6.7444 2.3654 10.031 3.6119 14.712 5.5799 27.441 14.846 39.983 23.975l0.6059 0.441 3e-3 -5e-3c0.3447 0.2506 0.6533 0.4931 0.9617 0.7352l-3e-3 4e-3c0.3059 0.2397 0.6123 0.4805 0.9541 0.7243l3.1756 2.2665 3.1755-2.2681c0.2623-0.1872 0.6059-0.4569 0.948-0.7252 0.3089-0.2425 0.6186-0.4856 0.9632-0.7362l3e-3 5e-3 0.6133-0.4463c12.54-9.1272 25.267-18.391 39.975-23.97 3.2865-1.2463 6.6594-2.4297 10.031-3.6119 5.8468-2.0504 11.691-4.1002 17.402-6.6239l0.11-0.0487 0.0776-0.02 0.4298-0.1931c8.8643-3.9829 16.519-8.7476 21.979-15.093 5.3959-6.2707 8.6832-14.143 8.9163-24.425l1e-3 -0.0471h-6e-3v-0.0823c0-26.009 0.114-54.697 0.2275-83.385 0.1065-26.898 0.2131-53.79 0.2131-83.37 0-3.0217 0.1622-5.5627 0.5639-8.1234 0.3968-2.5285 1.0271-5.0193 1.9675-7.965l2.172-6.8026-7.1288-0.3191c-8.6887-0.3884-19.195-2.8422-29.646-6.2595-12.574-4.1114-25.102-9.6218-34.279-14.6-6.4276-3.4867-13.01-7.5357-19.273-12.049-5.5928-4.0308-10.902-8.4171-15.578-13.084l-3.8598-3.8516-3.8597 3.8516c-5.0761 5.065-10.716 9.9421-16.67 14.406-5.8643 4.3969-12.004 8.3775-18.181 11.728-9.0362 4.902-21.086 9.9639-33.272 13.756-10.732 3.3389-21.598 5.6969-30.653 6.1021l-7.1287 0.3191 2.1722 6.8028c0.9405 2.9457 1.5707 5.4365 1.9675 7.9651 0.4017 2.5604 0.5639 5.1014 0.5639 8.1231 0 32.101 0.1087 61.327 0.2172 90.559 0.0942 25.4 0.189 50.802 0.2164 76.2h7e-3v0.078h-6e-3l1e-3 0.0469c0.2329 10.282 3.5205 18.154 8.9166 24.425 5.4606 6.3452 13.115 11.11 21.98 15.093z"/><path d="m283.25 416.59c-0.5609-0.4005-1.3219-1.0301-1.8726-1.4309-13.278-9.663-26.365-19.226-41.866-25.104-9.1822-3.4848-18.665-6.3185-27.637-10.334-0.04-0.01-0.0701-0.0298-0.1102-0.04-14.129-6.3485-27.237-15.251-27.677-34.667 0-0.0602-0.4405-166.75-0.4405-166.75 0-6.1584-0.4306-10.384-2.784-17.754 18.124-0.811 46.543-9.803 66.28-20.518 14.099-7.6403 26.956-17.934 36.109-27.067 9.1521 9.1326 22.01 18.425 36.108 26.065 19.737 10.715 48.155 20.708 66.28 21.519-2.3531 7.3701-2.7837 11.596-2.7837 17.754 0 0-0.4408 166.69-0.4408 166.75-0.4405 19.416-13.548 28.318-27.677 34.667-0.04 0.0102-0.0701 0.0301-0.1101 0.04-8.9721 4.0156-18.455 6.8493-27.637 10.334-15.501 5.8779-28.589 15.441-41.866 25.104-0.551 0.4008-1.3119 1.0304-1.8725 1.4309z" fill="#001581" stroke="#001581" stroke-width=".193"/><g fill="#fbc700" stroke="#fbc700" stroke-width=".193"><path d="m213.3 219.69v151c-14.349-6.8493-20.117-14.219-20.408-25.795-0.01-2.4834-0.12-44.53-0.3303-125.21z"/><path d="m253.18 219.69v166.79c-3.4045-1.7125-6.9091-3.2745-10.544-4.6563-3.1643-1.2018-6.3687-2.3232-9.4828-3.4146v-158.72z"/><path d="m293.36 219.69v178.79c-3.4345 2.3531-6.789 4.7565-10.113 7.1698-3.3543-2.4335-6.7491-4.8666-10.214-7.2399v-178.72z"/><path d="m333.29 219.69v158.74c-3.0942 1.0815-6.2787 2.203-9.4229 3.3945-3.6548 1.3917-7.1896 2.964-10.604 4.6864v-166.82z"/><path d="m373.94 219.69c-0.2101 80.688-0.3202 122.74-0.3304 125.21-0.2904 11.546-6.0281 18.906-20.297 25.745v-150.95z"/></g><path d="m233.32 192.04c-0.504 3.5278-1.8932 6.2585-4.161 8.1997-2.2678 1.9409-5.1962 2.9147-8.7853 2.9147-4.2974 0-7.7638-1.4029-10.4-4.2089-2.6355-2.8058-3.9499-6.5038-3.9499-11.08 0-4.7606 1.3416-8.5608 4.0181-11.394 2.6834-2.8332 6.2722-4.2497 10.767-4.2497 3.5618 0 6.4765 0.9399 8.7309 2.8126 2.2541 1.8795 3.5414 4.4403 3.8615 7.6888h-7.0692c-0.3474-1.4098-1.0013-2.4721-1.9614-3.1803-0.9671-0.7152-2.2339-1.0692-3.8002-1.0692-2.1044 0-3.7662 0.8307-4.992 2.4926-1.2189 1.6616-1.8319 3.9362-1.8319 6.8239 0 2.8671 0.5788 5.1009 1.7366 6.6878 1.1576 1.5869 2.7853 2.3836 4.883 2.3836 1.689 0 3.0443-0.4088 4.0589-1.2326 1.0216-0.8241 1.6551-2.0228 1.907-3.5891zm3.807 10.297v-7.0282h7.3962v7.0282zm21.003-11.482h6.4223l-3.269-10.127zm-0.7014-17.898h8.2202l10.379 29.38h-8.0839l-1.7911-5.3939h-9.8205l-1.6753 5.3939h-7.8046zm21.677 29.38v-7.0282h7.3961v7.0282zm20.063-16.794h5.605c1.5118 0 2.6289-0.2791 3.3371-0.8376 0.7152-0.5585 1.0692-1.4505 1.0692-2.6697 0-1.0828-0.3474-1.8795-1.0352-2.4041-0.6946-0.5243-1.7503-0.7899-3.1735-0.7899h-5.8026zm-7.4777 16.794v-29.38h14.056c3.7254 0 6.4631 0.6675 8.2271 1.9956 1.7637 1.3279 2.6423 3.3914 2.6423 6.1838 0 1.6479-0.3745 3.0576-1.1236 4.236-0.756 1.1781-1.9206 2.1657-3.5007 2.9624 1.2871 0.4904 2.1931 1.1578 2.7242 2.0022 0.5312 0.8446 0.8378 2.3291 0.9194 4.4608 0.0408 0.5994 0.0818 1.4029 0.1226 2.411 0.0953 2.3699 0.5038 3.7389 1.2258 4.1134v1.0147h-7.8862c-0.3814-1.0352-0.6062-2.4586-0.6607-4.27-0.0476-1.8048-0.1021-2.9422-0.1566-3.412-0.1226-1.1441-0.504-1.9819-1.1578-2.5131-0.647-0.5311-1.6277-0.7967-2.9284-0.7967h-5.0262v10.992zm30.013 0v-7.0282h7.3961v7.0282zm38.696-10.297c-0.504 3.5278-1.8932 6.2585-4.161 8.1997-2.2678 1.9409-5.1962 2.9147-8.7853 2.9147-4.2974 0-7.7638-1.4029-10.4-4.2089-2.6355-2.8058-3.9499-6.5038-3.9499-11.08 0-4.7606 1.3416-8.5608 4.0181-11.394 2.6834-2.8332 6.2722-4.2497 10.767-4.2497 3.5617 0 6.4764 0.9399 8.7308 2.8126 2.2541 1.8795 3.5414 4.4403 3.8615 7.6888h-7.0692c-0.3474-1.4098-1.0012-2.4721-1.9614-3.1803-0.9671-0.7152-2.2339-1.0692-3.8002-1.0692-2.1043 0-3.7662 0.8307-4.992 2.4926-1.2189 1.6616-1.8319 3.9362-1.8319 6.8239 0 2.8671 0.5788 5.1009 1.7366 6.6878 1.1576 1.5869 2.7853 2.3836 4.883 2.3836 1.689 0 3.0443-0.4088 4.059-1.2326 1.0215-0.8241 1.655-2.0228 1.9069-3.5891z" fill="#fbc700"/><path d="m347.49 512.77c-23.449-14.881-48.018-25.983-74.232-30.397-68.878-11.597-120.77-38.849-156.78-81.911-40.267-48.15-54.636-96.922-54.394-146.54 0.2466-50.614 17.946-96.783 52.154-138.87 13.353-15.509 27.817-27.686 42.875-38.076l-1.6001-3.1996c-16.745 11.217-33.49 25.044-50.234 44.795-27.823 33.183-48.718 75.241-48.955 134.07-0.2448 60.796 21.502 110.45 56.314 151.66 28.25 33.445 66.851 61.2 121.59 74.872 37.931 9.4744 70.826 21.431 100.47 38.396 3.3063-3.1999 8.2126-4.1598 12.799-4.7997z" stroke="#000" stroke-width=".1931"/><g stroke-width=".1931"><path d="m153.99 76.254 47.483-25.113c0.0114 0.0011 0.0231 0.0023 0.0345 0.0033-18.521 22.039-43.706 32.275-47.355 25.437-0.058-0.109-0.1125-0.2182-0.1629-0.3277z" fill="#003426" stroke="#003426"/><path d="m153.99 76.254 47.483-25.113c-13.26-1.2457-52.954 13.24-47.483 25.113z" fill="#008237" stroke="#008237"/></g><g stroke-width=".1923"><path d="m214.8 471.68-45.035 29.277c-0.0114 0-0.0232-2e-4 -0.0346-2e-4 16.466-23.614 40.63-36.071 44.878-29.588 0.0676 0.1033 0.1317 0.2072 0.1917 0.3117z" fill="#003426" stroke="#003426"/><path d="m214.8 471.68-45.035 29.277c13.318 0.0495 51.55-17.944 45.035-29.277z" fill="#008237" stroke="#008237"/></g><g stroke-width=".0404"><path d="m213.38 469.27-14.618-51.688c3e-3 -0.011 7e-3 -0.0221 0.0104-0.033 17.674 22.724 22.412 49.493 14.962 51.63-0.1187 0.0339-0.2369 0.0643-0.3545 0.0907z" fill="#003426" stroke="#003426"/><path d="m213.38 469.27-14.618-51.688c-3.9934 12.705 1.8638 54.552 14.618 51.688z" fill="#008237" stroke="#008237"/></g><g stroke-width=".1931"><path d="m175.86 456.88-47.447 25.181c-0.0114-1e-3 -0.0231-2e-3 -0.0345-3e-3 18.489-22.066 43.66-32.337 47.318-25.505 0.0582 0.1089 0.1129 0.218 0.1635 0.3274z" fill="#003426" stroke="#003426"/><path d="m175.86 456.88-47.447 25.181c13.261 1.2268 52.935-13.316 47.447-25.181z" fill="#008237" stroke="#008237"/></g><g stroke-width=".057"><path d="m174.66 454.35-9.991-52.778c4e-3 -0.0106 9e-3 -0.0213 0.0133-0.0319 15.596 24.197 17.948 51.281 10.339 52.75-0.1212 0.0234-0.2417 0.0432-0.3611 0.0591z" fill="#003426" stroke="#003426"/><path d="m174.66 454.35-9.991-52.778c-5.1011 12.302-2.9667 54.503 9.991 52.778z" fill="#008237" stroke="#008237"/></g><g stroke-width=".19"><path d="m140.81 431.69-51.216 16.194c-0.0111-3e-3 -0.0223-6e-3 -0.0334-9e-3 22.172-18.362 48.784-23.917 51.148-16.536 0.0375 0.1176 0.0715 0.2348 0.1015 0.3516z" fill="#003426" stroke="#003426"/><path d="m140.81 431.69-51.216 16.194c12.821 3.6025 54.469-3.5333 51.216-16.194z" fill="#008237" stroke="#008237"/></g><g stroke-width=".0894"><path d="m140.09 428.99-0.2914-53.714c6e-3 -0.01 0.0127-0.0194 0.0189-0.029 10.968 26.617 8.3883 53.68 0.6384 53.75-0.1235 1e-3 -0.2455-1e-3 -0.3659-7e-3z" fill="#003426" stroke="#003426"/><path d="m140.09 428.99-0.2914-53.714c-7.2398 11.178-12.765 53.07 0.2914 53.714z" fill="#008237" stroke="#008237"/></g><g stroke-width=".1796"><path d="m105.2 397.29-53.389 5.9098c-0.0102-5e-3 -0.0206-0.0106-0.0308-0.0157 25.323-13.693 52.507-13.959 53.389-6.2588 0.0139 0.1227 0.0244 0.2443 0.0311 0.3647z" fill="#003426" stroke="#003426"/><path d="m105.2 397.29-53.389 5.9098c11.874 6.0305 54.114 7.1421 53.389-5.9098z" fill="#008237" stroke="#008237"/></g><g stroke-width=".121"><path d="m105.01 394.5 10.175-52.742c8e-3 -8e-3 0.0162-0.0165 0.0242-0.0248 5.5743 28.243-2.2262 54.285-9.8416 52.846-0.1213-0.023-0.2405-0.049-0.3575-0.0783z" fill="#003426" stroke="#003426"/><path d="m105.01 394.5 10.175-52.742c-9.2781 9.5543-22.856 49.568-10.175 52.742z" fill="#008237" stroke="#008237"/></g><g stroke-width=".1631"><path d="m80.749 355.98-53.552-4.1856c-0.0091-7e-3 -0.0183-0.0142-0.0274-0.0212 27.438-8.7118 54.192-3.8861 53.617 3.8428-0.0093 0.1231-0.0217 0.2445-0.0376 0.364z" fill="#003426" stroke="#003426"/><path d="m80.749 355.98-53.552-4.1856c10.536 8.1461 51.822 17.143 53.552 4.1856z" fill="#008237" stroke="#008237"/></g><g stroke-width=".147"><path d="m81.091 353.2 19.865-49.907c9e-3 -7e-3 0.019-0.0133 0.0284-0.0199 0.1905 28.787-12.346 52.91-19.557 50.07-0.1148-0.0453-0.2271-0.0931-0.3365-0.1438z" fill="#003426" stroke="#003426"/><path d="m81.091 353.2 19.865-49.907c-10.902 7.6492-31.728 44.415-19.865 49.907z" fill="#008237" stroke="#008237"/></g><g stroke-width=".1435"><path d="m68.959 318.77-52.09-13.112c-0.0078-8e-3 -0.0156-0.0171-0.0234-0.0255 28.511-3.9844 54.076 5.262 52.212 12.785-0.0298 0.1198-0.0624 0.2374-0.0982 0.3525z" fill="#003426" stroke="#003426"/><path d="m68.959 318.77-52.09-13.112c9.0199 9.7985 48.211 25.595 52.09 13.112z" fill="#008237" stroke="#008237"/></g><g stroke-width=".1659"><path d="m69.762 316.09 27.958-45.866c0.0103-5e-3 0.021-0.01 0.0313-0.0148-4.6424 28.411-21.048 50.088-27.681 46.079-0.1056-0.0639-0.2083-0.1299-0.3076-0.1982z" fill="#003426" stroke="#003426"/><path d="m69.762 316.09 27.958-45.866c-12.031 5.7115-38.731 38.462-27.958 45.866z" fill="#008237" stroke="#008237"/></g><g stroke-width=".1294"><path d="m59.584 280.82-50.455-18.428c-0.0069-9e-3 -0.0138-0.0186-0.0207-0.0278 28.77-1.0145 53.242 10.826 50.61 18.116-0.0421 0.1161-0.0866 0.2297-0.1341 0.3405z" fill="#003426" stroke="#003426"/><path d="m59.584 280.82-50.455-18.428c7.9582 10.679 45.305 30.444 50.455 18.428z" fill="#008237" stroke="#008237"/></g><g stroke-width=".1753"><path d="m60.66 278.24 32.551-42.729c0.0108-4e-3 0.0219-8e-3 0.0327-0.0115-7.5557 27.779-26.116 47.643-32.298 42.969-0.0985-0.0745-0.1938-0.1508-0.2855-0.229z" fill="#003426" stroke="#003426"/><path d="m60.66 278.24 32.551-42.729c-12.557 4.4366-42.501 34.25-32.551 42.729z" fill="#008237" stroke="#008237"/></g><g stroke-width=".0631"><path d="m71.653 185.99-39.244-36.677c-0.0028-0.0111-0.0054-0.0225-0.0082-0.0336 26.88 10.307 44.78 30.768 39.509 36.45-0.084 0.0904-0.1695 0.1776-0.2565 0.261z" fill="#003426" stroke="#003426"/><path d="m71.653 185.99-39.244-36.677c3.1532 12.939 29.809 45.725 39.244 36.677z" fill="#008237" stroke="#008237"/></g><g stroke-width=".193"><path d="m73.653 184.03 46.658-26.614c0.0115 6e-4 0.0231 1e-3 0.0346 2e-3 -17.809 22.618-42.654 33.652-46.52 26.934-0.0614-0.1071-0.1194-0.2145-0.1733-0.3223z" fill="#003426" stroke="#003426"/><path d="m73.653 184.03 46.658-26.614c-13.292-0.8223-52.504 14.922-46.658 26.614z" fill="#008237" stroke="#008237"/></g><g stroke-width=".0262"><path d="m92.449 142.38-31.313-43.644c-6e-4 -0.0114-9e-4 -0.0231-0.0014-0.0346 24.345 15.365 37.898 38.931 31.617 43.472-0.1001 0.0723-0.2009 0.141-0.3025 0.2058z" fill="#003426" stroke="#003426"/><path d="m92.449 142.38-31.313-43.644c0.5618 13.306 20.291 50.672 31.313 43.644z" fill="#008237" stroke="#008237"/></g><g stroke-width=".1905"><path d="m94.794 140.85 50.962-16.975c0.0111 3e-3 0.0224 6e-3 0.0335 9e-3 -21.888 18.699-48.412 24.66-50.889 17.316-0.0393-0.1171-0.0751-0.2337-0.1069-0.35z" fill="#003426" stroke="#003426"/><path d="m94.794 140.85 50.962-16.975c-12.875-3.406-54.409 4.3659-50.962 16.975z" fill="#008237" stroke="#008237"/></g><g stroke-width=".0251"><path d="m121.89 101.63-18.725-50.346c2e-3 -0.0111 5e-3 -0.0225 8e-3 -0.0337 19.444 21.229 26.318 47.531 19.064 50.26-0.1156 0.0434-0.231 0.0832-0.3461 0.119z" fill="#003426" stroke="#003426"/><path d="m121.89 101.63-18.725-50.346c-2.9593 12.985 6.2424 54.226 18.725 50.346z" fill="#008237" stroke="#008237"/></g><g stroke-width=".1754"><path d="m124.56 100.77 53.633-2.9669c0.01 0.0057 0.02 0.0117 0.0299 0.0174-26.037 12.28-53.195 11.052-53.652 3.3153-7e-3 -0.1233-0.011-0.2453-0.011-0.3658z" fill="#003426" stroke="#003426"/><path d="m124.56 100.77 53.633-2.9669c-11.525-6.6739-53.64-10.105-53.633 2.9669z" fill="#008237" stroke="#008237"/></g><g stroke-width=".0966"><path d="m58.436 233.92-45.491-28.564c-0.0048-0.0104-0.0095-0.0211-0.0144-0.0315 28.347 5.019 49.804 21.711 45.708 28.29-0.0654 0.1047-0.1327 0.2065-0.2023 0.305z" fill="#003426" stroke="#003426"/><path d="m58.436 233.92-45.491-28.564c5.5514 12.106 37.945 39.238 45.491 28.564z" fill="#008237" stroke="#008237"/></g><g stroke-width=".1883"><path d="m60.028 231.62 40.76-34.984c0.0114-2e-3 0.023-3e-3 0.0344-4e-3 -13.193 25.587-35.494 41.135-40.563 35.272-0.0807-0.0934-0.158-0.1879-0.2313-0.2835z" fill="#003426" stroke="#003426"/><path d="m60.028 231.62 40.76-34.984c-13.207 1.715-48.719 24.614-40.76 34.984z" fill="#008237" stroke="#008237"/></g><path d="m219.01 511.49c23.449-14.881 48.018-25.983 74.232-30.397 68.878-11.597 120.77-38.849 156.78-81.911 40.267-48.15 54.636-96.922 54.394-146.54-0.2466-50.614-17.946-96.783-52.154-138.87-13.353-15.509-27.817-27.686-42.875-38.076l1.6001-3.1996c16.745 11.217 33.49 25.044 50.234 44.795 27.823 33.183 48.718 75.241 48.955 134.07 0.2448 60.796-21.502 110.45-56.314 151.66-28.25 33.445-66.851 61.2-121.59 74.872-37.931 9.4743-70.826 21.431-100.47 38.396-3.3063-3.1999-8.2126-4.1598-12.799-4.7997z" stroke="#000" stroke-width=".1931"/><g stroke-width=".1931"><path d="m412.51 74.974-47.483-25.113c-0.0114 1e-3 -0.023 0.0022-0.0344 0.0032 18.521 22.039 43.706 32.275 47.355 25.437 0.058-0.109 0.1125-0.2182 0.1629-0.3277z" fill="#003426" stroke="#003426"/><path d="m412.51 74.974-47.483-25.113c13.26-1.2458 52.954 13.24 47.483 25.113z" fill="#008237" stroke="#008237"/></g><g stroke-width=".1923"><path d="m351.7 470.4 45.035 29.277c0.0114 0 0.0232-2e-4 0.0346-2e-4 -16.466-23.614-40.63-36.071-44.878-29.588-0.0676 0.1033-0.1317 0.2072-0.1917 0.3117z" fill="#003426" stroke="#003426"/><path d="m351.7 470.4 45.035 29.277c-13.318 0.0495-51.55-17.944-45.035-29.277z" fill="#008237" stroke="#008237"/></g><g stroke-width=".0404"><path d="m353.12 467.99 14.618-51.688c-3e-3 -0.0109-7e-3 -0.0221-0.0104-0.033-17.674 22.724-22.412 49.493-14.962 51.63 0.1187 0.0339 0.2369 0.0643 0.3545 0.0907z" fill="#003426" stroke="#003426"/><path d="m353.12 467.99 14.618-51.688c3.9935 12.705-1.8637 54.552-14.618 51.688z" fill="#008237" stroke="#008237"/></g><g stroke-width=".1931"><path d="m390.64 455.6 47.447 25.18c0.0114-1e-3 0.0231-2e-3 0.0345-3e-3 -18.489-22.066-43.66-32.337-47.318-25.505-0.0582 0.1089-0.1128 0.2181-0.1634 0.3275z" fill="#003426" stroke="#003426"/><path d="m390.64 455.6 47.447 25.18c-13.261 1.2268-52.935-13.316-47.447-25.18z" fill="#008237" stroke="#008237"/></g><g stroke-width=".057"><path d="m391.84 453.07 9.9909-52.778c-4e-3 -0.0106-9e-3 -0.0213-0.0133-0.0319-15.596 24.197-17.948 51.281-10.339 52.751 0.1213 0.0233 0.2417 0.0431 0.3612 0.059z" fill="#003426" stroke="#003426"/><path d="m391.84 453.07 9.9909-52.778c5.1011 12.302 2.9668 54.503-9.9909 52.778z" fill="#008237" stroke="#008237"/></g><g stroke-width=".19"><path d="m425.69 430.41 51.216 16.194c0.011-3e-3 0.0222-6e-3 0.0333-9e-3 -22.172-18.362-48.784-23.917-51.148-16.536-0.0376 0.1176-0.0716 0.2348-0.1016 0.3516z" fill="#003426" stroke="#003426"/><path d="m425.69 430.41 51.216 16.194c-12.822 3.6025-54.469-3.5333-51.216-16.194z" fill="#008237" stroke="#008237"/></g><g stroke-width=".0894"><path d="m426.41 427.71 0.2914-53.714c-6e-3 -0.01-0.0127-0.0193-0.0189-0.029-10.968 26.617-8.3883 53.68-0.6384 53.75 0.1235 1e-3 0.2455-1e-3 0.3659-7e-3z" fill="#003426" stroke="#003426"/><path d="m426.41 427.71 0.2914-53.714c7.2398 11.178 12.765 53.07-0.2914 53.714z" fill="#008237" stroke="#008237"/></g><g stroke-width=".1796"><path d="m461.3 396.01 53.389 5.9098c0.0102-5e-3 0.0206-0.0106 0.0309-0.0157-25.323-13.692-52.507-13.959-53.389-6.2588-0.014 0.1227-0.0245 0.2443-0.0312 0.3647z" fill="#003426" stroke="#003426"/><path d="m461.3 396.01 53.389 5.9098c-11.874 6.0305-54.114 7.1421-53.389-5.9098z" fill="#008237" stroke="#008237"/></g><g stroke-width=".121"><path d="m461.49 393.22-10.175-52.743c-8e-3 -8e-3 -0.0162-0.0165-0.0241-0.0248-5.5744 28.243 2.2261 54.285 9.8415 52.846 0.1213-0.023 0.2406-0.049 0.3575-0.0782z" fill="#003426" stroke="#003426"/><path d="m461.49 393.22-10.175-52.743c9.2781 9.5543 22.856 49.568 10.175 52.743z" fill="#008237" stroke="#008237"/></g><g stroke-width=".1631"><path d="m485.75 354.7 53.552-4.1856c9e-3 -7e-3 0.0183-0.0142 0.0274-0.0212-27.438-8.7118-54.192-3.8861-53.617 3.8428 9e-3 0.1231 0.0217 0.2445 0.0376 0.364z" fill="#003426" stroke="#003426"/><path d="m485.75 354.7 53.552-4.1856c-10.536 8.1461-51.822 17.143-53.552 4.1856z" fill="#008237" stroke="#008237"/></g><g stroke-width=".147"><path d="m485.41 351.92-19.865-49.907c-9e-3 -7e-3 -0.019-0.0132-0.0284-0.0199-0.1905 28.787 12.346 52.91 19.557 50.07 0.1148-0.0453 0.2271-0.0931 0.3365-0.1437z" fill="#003426" stroke="#003426"/><path d="m485.41 351.92-19.865-49.907c10.902 7.6492 31.728 44.415 19.865 49.907z" fill="#008237" stroke="#008237"/></g><g stroke-width=".1435"><path d="m497.54 317.49 52.09-13.112c8e-3 -8e-3 0.0156-0.0171 0.0234-0.0255-28.511-3.9843-54.076 5.262-52.212 12.785 0.0298 0.1198 0.0624 0.2374 0.0982 0.3525z" fill="#003426" stroke="#003426"/><path d="m497.54 317.49 52.09-13.112c-9.0198 9.7985-48.211 25.595-52.09 13.112z" fill="#008237" stroke="#008237"/></g><g stroke-width=".1659"><path d="m496.74 314.81-27.958-45.866c-0.0103-5e-3 -0.021-0.01-0.0313-0.0148 4.6425 28.411 21.048 50.088 27.681 46.079 0.1056-0.0639 0.2083-0.1299 0.3076-0.1982z" fill="#003426" stroke="#003426"/><path d="m496.74 314.81-27.958-45.866c12.031 5.7115 38.731 38.462 27.958 45.866z" fill="#008237" stroke="#008237"/></g><g stroke-width=".1294"><path d="m506.91 279.54 50.455-18.428c7e-3 -9e-3 0.0137-0.0186 0.0206-0.0278-28.77-1.0145-53.241 10.826-50.61 18.116 0.042 0.1161 0.0866 0.2297 0.1341 0.3405z" fill="#003426" stroke="#003426"/><path d="m506.91 279.54 50.455-18.428c-7.9582 10.679-45.306 30.444-50.455 18.428z" fill="#008237" stroke="#008237"/></g><g stroke-width=".1753"><path d="m505.84 276.96-32.551-42.729c-0.0108-4e-3 -0.0219-8e-3 -0.0327-0.0115 7.5557 27.779 26.116 47.643 32.298 42.969 0.0984-0.0745 0.1937-0.1508 0.2854-0.229z" fill="#003426" stroke="#003426"/><path d="m505.84 276.96-32.551-42.729c12.557 4.4367 42.501 34.25 32.551 42.729z" fill="#008237" stroke="#008237"/></g><g stroke-width=".0631"><path d="m494.85 184.71 39.244-36.677c3e-3 -0.0112 5e-3 -0.0226 8e-3 -0.0337-26.88 10.307-44.78 30.768-39.509 36.45 0.0841 0.0904 0.1695 0.1776 0.2565 0.261z" fill="#003426" stroke="#003426"/><path d="m494.85 184.71 39.244-36.677c-3.1532 12.939-29.809 45.725-39.244 36.677z" fill="#008237" stroke="#008237"/></g><g stroke-width=".193"><path d="m492.84 182.75-46.658-26.614c-0.0114 7e-4 -0.0231 1e-3 -0.0346 2e-3 17.809 22.618 42.654 33.652 46.52 26.934 0.0615-0.1071 0.1194-0.2145 0.1733-0.3223z" fill="#003426" stroke="#003426"/><path d="m492.84 182.75-46.658-26.614c13.292-0.8223 52.504 14.922 46.658 26.614z" fill="#008237" stroke="#008237"/></g><g stroke-width=".0262"><path d="m474.05 141.1 31.313-43.644c5e-4 -0.0114 8e-4 -0.0231 1e-3 -0.0346-24.345 15.365-37.898 38.931-31.617 43.472 0.1001 0.0723 0.2009 0.141 0.3026 0.2058z" fill="#003426" stroke="#003426"/><path d="m474.05 141.1 31.313-43.644c-0.5619 13.306-20.292 50.672-31.313 43.644z" fill="#008237" stroke="#008237"/></g><g stroke-width=".1905"><path d="m471.7 139.57-50.962-16.975c-0.0111 3e-3 -0.0224 6e-3 -0.0335 9e-3 21.888 18.699 48.412 24.66 50.889 17.316 0.0393-0.1171 0.0751-0.2337 0.1069-0.35z" fill="#003426" stroke="#003426"/><path d="m471.7 139.57-50.962-16.975c12.875-3.406 54.409 4.3659 50.962 16.975z" fill="#008237" stroke="#008237"/></g><g stroke-width=".0251"><path d="m444.61 100.35 18.725-50.346c-2e-3 -0.0111-5e-3 -0.0225-8e-3 -0.0337-19.444 21.229-26.318 47.531-19.064 50.26 0.1156 0.0434 0.231 0.0832 0.3461 0.119z" fill="#003426" stroke="#003426"/><path d="m444.61 100.35 18.725-50.346c2.9593 12.985-6.2425 54.226-18.725 50.346z" fill="#008237" stroke="#008237"/></g><g stroke-width=".1754"><path d="m441.94 99.49-53.633-2.9669c-0.01 0.0057-0.02 0.0117-0.0299 0.0174 26.037 12.28 53.195 11.052 53.652 3.3153 7e-3 -0.1232 0.011-0.2452 0.011-0.3658z" fill="#003426" stroke="#003426"/><path d="m441.94 99.49-53.633-2.9669c11.525-6.6739 53.64-10.105 53.633 2.9669z" fill="#008237" stroke="#008237"/></g><g stroke-width=".0966"><path d="m508.06 232.64 45.491-28.564c5e-3 -0.0104 0.01-0.0211 0.0144-0.0315-28.347 5.0191-49.804 21.711-45.708 28.29 0.0654 0.1048 0.1327 0.2066 0.2023 0.305z" fill="#003426" stroke="#003426"/><path d="m508.06 232.64 45.491-28.564c-5.5514 12.106-37.945 39.238-45.491 28.564z" fill="#008237" stroke="#008237"/></g><g stroke-width=".1883"><path d="m506.47 230.34-40.76-34.984c-0.0114-2e-3 -0.023-3e-3 -0.0344-4e-3 13.193 25.587 35.494 41.135 40.563 35.272 0.0807-0.0935 0.158-0.188 0.2314-0.2836z" fill="#003426" stroke="#003426"/><path d="m506.47 230.34-40.76-34.984c13.207 1.715 48.719 24.614 40.76 34.984z" fill="#008237" stroke="#008237"/></g></g></svg>
