<?xml version="1.0" encoding="UTF-8" standalone="no"?>
<svg
   version="1.1"
   width="1056.1071"
   height="1000.0486"
   id="svg73"
   viewBox="0 0 1056.1071 1000.0486"
   sodipodi:docname="Club Atlético Rosario Central 1995.svg"
   inkscape:version="1.1 (c68e22c387, 2021-05-23)"
   inkscape:export-filename="C:\Users\dante\Desktop\CARC\Club Atlético Rosario Central 1995.png"
   inkscape:export-xdpi="96"
   inkscape:export-ydpi="96"
   xmlns:inkscape="http://www.inkscape.org/namespaces/inkscape"
   xmlns:sodipodi="http://sodipodi.sourceforge.net/DTD/sodipodi-0.dtd"
   xmlns="http://www.w3.org/2000/svg"
   xmlns:svg="http://www.w3.org/2000/svg">
  <defs
     id="defs77" />
  <sodipodi:namedview
     id="namedview75"
     pagecolor="#ffffff"
     bordercolor="#666666"
     borderopacity="1.0"
     inkscape:pageshadow="2"
     inkscape:pageopacity="0.0"
     inkscape:pagecheckerboard="0"
     showgrid="false"
     fit-margin-top="0"
     fit-margin-left="0"
     fit-margin-right="0"
     fit-margin-bottom="0"
     inkscape:zoom="0.58331024"
     inkscape:cx="678.02684"
     inkscape:cy="575.16563"
     inkscape:window-width="1366"
     inkscape:window-height="705"
     inkscape:window-x="-8"
     inkscape:window-y="-8"
     inkscape:window-maximized="1"
     inkscape:current-layer="layer2" />
  <g
     inkscape:groupmode="layer"
     id="layer2"
     inkscape:label="Layer 2">
    <path
       d="m 443.38171,76.69872 c 124.62189,0 232.66902,94.36592 285.95836,232.30004 V 157.02368 h 186.3547 V 838.18283 H 729.34007 V 699.06036 C 676.05073,836.99448 568.0036,931.36041 443.38171,931.36041 c -177.44958,0 -321.30124,-191.32199 -321.30124,-427.33074 0,-236.00897 143.85166,-427.33095 321.30124,-427.33095 z"
       style="fill:#ffffff;fill-rule:evenodd;stroke:none;stroke-width:0.484767;stroke-linecap:butt;stroke-linejoin:miter;stroke-dasharray:none;fill-opacity:1"
       id="path2-2" />
  </g>
  <g
     id="Layer1000"
     transform="matrix(2.2436098,0,0,2.2436098,-107.44767,-136.44241)">
    <path
       d="m 359.4594,466.7888 c -0.8214,-1.8117 -3.4378,-6.9185 -5.4426,-7.4337 -1.7451,-0.4486 -5.6911,1.7168 -7.108,2.5917 -2.7562,1.7025 -5.3696,3.8131 -7.7661,5.991 l -0.1897,0.1724 -0.1956,0.1657 C 296.8261,503.8383 244.2122,515.1277 191.4075,499.6913 140.684,484.8631 104.5685,449.9303 79.1207,404.6056 55.5389,362.6047 45.8429,316.8493 48.3957,268.8675 51.186,216.4199 67.7291,169.1856 101.9035,128.8968 134.1046,90.9344 174.5926,65.0906 225.0822,61.3614 c 45.7335,-3.3779 85.4255,12.8842 119.5922,42.6798 1.3929,1.2146 6.782,5.531 8.9063,4.639 2.4944,-1.0474 5.0049,-5.9836 5.9599,-8.3186 3.9606,-9.683 9.6605,-19.5926 21.097,-21.1695 3.3153,-0.457 6.6701,-0.1012 9.7879,1.1296 9.3546,3.692 12.8365,12.9282 12.8365,22.3162 v 85.6305 c 0,7.8756 -1.2932,16.093 -5.5439,22.8683 -4.1574,6.6271 -10.7136,11.0411 -18.5412,11.9088 -13.2652,1.4701 -21.4604,-7.7056 -26.3894,-18.7951 -1.4281,-3.2134 -2.925,-6.3963 -4.4946,-9.5431 -11.7985,-23.6553 -28.5602,-46.9831 -51.3357,-61.1242 -16.4142,-10.1915 -34.3148,-14.5475 -53.5777,-13.4593 -33.1336,1.8719 -57.6822,21.9498 -75.8891,48.3602 -23.1161,33.5311 -33.2188,72.6708 -34.181,113.0727 -0.9632,40.4399 10.1054,79.5045 31.9603,113.5314 14.7028,22.8913 34.7619,43.3275 61.9773,49.9927 17.401,4.2613 35.2351,2.2687 52.1559,-3.0896 23.1362,-7.3264 45.1891,-30.4893 58.3202,-50.2515 5.5436,-8.343 10.3761,-17.2146 14.1925,-26.4807 2.5699,-6.24 5.2541,-12.6518 10.6352,-17.0363 4.6555,-3.7931 10.21,-5.1193 16.131,-4.6917 16.4944,1.1915 23.0687,17.0671 24.5041,31.3764 l 0.0761,0.7572 v 88.888 c 0,9.905 -4.307,20.2257 -14.5827,23.3062 -7.6238,2.2854 -15.0566,-0.6518 -20.366,-6.2592 -3.9332,-4.154 -6.7092,-9.5413 -8.8539,-14.8108 z"
       style="fill:#003e7c;fill-rule:evenodd;stroke:#003e7c;stroke-width:0.216;stroke-linecap:butt;stroke-linejoin:miter;stroke-dasharray:none"
       id="path2" />
    <path
       d="m 366.4512,463.7986 c -1.9805,-4.438 -5.4508,-10.4986 -10.5415,-11.8072 -7.2661,-1.8677 -16.9932,5.8854 -21.8805,10.3198 l -0.0934,0.0848 -0.0961,0.0815 c -39.8936,33.8566 -89.8422,44.666 -140.2987,29.916 C 144.759,478.1329 110.2164,444.4594 85.7502,400.8834 62.8884,360.1647 53.5083,315.8843 55.9881,269.2713 58.6945,218.4034 74.6409,172.791 107.7016,133.8151 138.633,97.3492 177.2923,72.5148 225.6421,68.9438 c 43.642,-3.2234 81.3244,12.3015 114.0353,40.8276 4.2188,3.679 10.9442,8.3975 16.8466,5.9192 4.7756,-2.0051 8.1885,-7.8893 10.054,-12.4508 2.7894,-6.82 6.8896,-15.3838 15.0982,-16.5157 2.0197,-0.2783 4.0561,-0.0809 5.9581,0.6696 6.2759,2.4771 8.0246,9.138 8.0246,15.2442 v 85.6305 c 0,6.3592 -0.9391,13.341 -4.3812,18.8277 -2.9232,4.6594 -7.4227,7.7813 -12.9383,8.3926 -9.7286,1.0781 -15.0925,-6.4253 -18.6042,-14.3264 -1.474,-3.3161 -3.0187,-6.601 -4.6385,-9.8484 -12.4477,-24.957 -30.1149,-49.2801 -54.129,-64.1901 -17.7435,-11.0169 -37.18,-15.7679 -58.017,-14.5909 -35.5523,2.0084 -62.1333,23.2234 -81.7201,51.6356 -23.9707,34.7707 -34.5241,75.3 -35.5222,117.2073 -1.003,42.1165 10.3633,82.3213 33.164,117.821 15.809,24.6133 37.3585,46.1157 66.5659,53.2687 18.8037,4.605 37.9638,2.568 56.2598,-3.2258 24.9402,-7.8975 48.2324,-32.0346 62.3575,-53.2922 5.8114,-8.7463 10.8894,-18.0795 14.8901,-27.7932 3.7885,-9.1991 7.4042,-17.8913 19.1884,-17.04 12.3152,0.8895 16.4515,14.2433 17.4868,24.5518 l 0.038,0.379 v 88.5075 c 0,6.406 -2.3074,13.968 -9.1629,16.0233 -4.8389,1.4507 -9.3607,-0.7171 -12.6616,-4.2036 -3.2465,-3.4287 -5.6208,-8.2232 -7.3832,-12.5737 z M 334.6803,115.5017 C 301.985,86.9893 266.085,73.5805 226.202,76.5262 182.3383,79.766 145.0628,101.523 113.4997,138.7334 82.4615,175.3252 66.287,218.8024 63.5806,269.6752 c -2.4744,46.5059 7.2229,89.0574 28.7992,127.4861 26.1933,46.6525 60.7821,75.5065 103.2946,87.9345 50.0036,14.6177 96.9232,2.4105 133.2458,-28.4152 19.2869,-17.5001 35.0211,-17.3003 44.531,4.1477 7.364,18.265 14.6046,14.0666 14.6046,3.7243 v -88.1268 c -1.1058,-11.0129 -4.8407,-17.3216 -10.4694,-17.7282 -6.3939,-0.462 -8.0526,3.713 -11.6106,12.352 -15.9987,38.8456 -50.0252,75.3188 -81.9825,85.4385 -51.919,16.4409 -97.327,0.0514 -131.5181,-53.1826 -24.6833,-38.4303 -35.3723,-79.9273 -34.3678,-122.1107 1.1213,-47.0759 13.8118,-87.9044 36.8634,-121.3419 24.0361,-34.8659 53.8098,-53.005 87.5511,-54.9109 61.5563,-3.4777 101.4017,41.9258 124.161,93.1323 2.7621,6.2144 5.758,10.4183 10.8192,9.8575 5.4885,-0.6082 10.5537,-5.8407 10.5537,-19.6634 v -85.6305 c 0,-6.4632 -2.2198,-8.8122 -5.341,-8.3819 -3.6571,0.5042 -6.4076,5.2802 -9.0994,11.862 -6.1813,15.114 -19.4794,26.3502 -38.9351,9.3837 z"
       style="fill:#ffe127;fill-rule:evenodd"
       id="path4" />
    <g
       id="Layer1001">
      <path
         d="m 397.8477,310.5701 c 12.9191,-2.7858 26.3127,1.5054 39.7434,11.5199 1.385,-21.4623 8.0866,-35.369 19.1996,-43.0073 11.4922,4.0503 18.8827,18.6327 21.16,43.2265 10.7045,-8.3427 23.5574,-14.3096 39.3192,-11.643 4.6169,32.1586 -26.057,75.8389 -60.4792,75.8389 -31.0285,0 -62.2826,-41.1746 -58.943,-75.935 z"
         style="fill:#003e7c;fill-rule:evenodd;stroke:#003e7c;stroke-width:0.216;stroke-linecap:butt;stroke-linejoin:miter;stroke-dasharray:none"
         id="path6" />
      <path
         d="m 397.8477,206.8917 c 12.9191,-2.7858 26.3127,1.5054 39.7434,11.5199 1.385,-21.4623 8.0866,-35.3689 19.1996,-43.0073 11.4922,4.0503 18.8827,18.6327 21.16,43.2266 10.7045,-8.3428 23.5574,-14.3097 39.3192,-11.6431 4.6169,32.1586 -26.057,75.8389 -60.4792,75.8389 -31.0285,0 -62.2826,-41.1746 -58.943,-75.935 z"
         style="fill:#003e7c;fill-rule:evenodd;stroke:#003e7c;stroke-width:0.216;stroke-linecap:butt;stroke-linejoin:miter;stroke-dasharray:none"
         id="path8" />
      <path
         d="m 398.6156,102.4451 c 12.9191,-2.7858 26.3127,1.5054 39.7434,11.5199 1.385,-21.4623 8.0867,-35.3689 19.1996,-43.0073 11.4922,4.0503 18.8827,18.6327 21.16,43.2266 10.7045,-8.3427 23.5574,-14.3096 39.3192,-11.6431 4.6169,32.1586 -26.057,75.8389 -60.4792,75.8389 -31.0285,0 -62.2826,-41.1746 -58.943,-75.935 z"
         style="fill:#003e7c;fill-rule:evenodd;stroke:#003e7c;stroke-width:0.216;stroke-linecap:butt;stroke-linejoin:miter;stroke-dasharray:none"
         id="path10" />
      <path
         d="m 397.8474,415.6885 c 12.9191,-2.7858 26.3127,1.5054 39.7434,11.5199 1.385,-21.4623 8.0866,-35.369 19.1996,-43.0073 11.4922,4.0503 18.8827,18.6327 21.16,43.2265 10.7045,-8.3427 23.5574,-14.3096 39.3192,-11.643 4.6169,32.1586 -26.057,75.8389 -60.4792,75.8389 -31.0285,0 -62.2826,-41.1747 -58.943,-75.935 z"
         style="fill:#003e7c;fill-rule:evenodd;stroke:#003e7c;stroke-width:0.216;stroke-linecap:butt;stroke-linejoin:miter;stroke-dasharray:none"
         id="path12" />
    </g>
    <g
       id="Layer1002">
      <g
         id="Layer1003">
        <path
           d="m 226.2575,141.4371 4.7238,10.2366 11.1902,-1.3724 -8.2759,7.656 4.7632,10.2183 -9.8386,-5.5049 -8.2464,7.6876 2.1953,-11.0582 -9.8597,-5.4671 11.1954,-1.3293 z"
           style="fill:#003e7c;fill-rule:evenodd;stroke:#003e7c;stroke-width:0.216;stroke-linecap:butt;stroke-linejoin:miter;stroke-dasharray:none"
           id="path15" />
        <path
           d="m 184.7711,155.0685 7.5495,8.3731 10.2784,-4.6321 -5.6303,9.7674 7.5816,8.344 -11.0292,-2.3365 -5.5928,9.7889 -1.1861,-11.2114 -11.0381,-2.294 10.2962,-4.5926 z"
           style="fill:#003e7c;fill-rule:evenodd;stroke:#003e7c;stroke-width:0.216;stroke-linecap:butt;stroke-linejoin:miter;stroke-dasharray:none"
           id="path17" />
      </g>
      <g
         id="Layer1004">
        <path
           d="m 272.1013,141.4371 -4.7238,10.2366 -11.1901,-1.3724 8.2758,7.656 -4.7631,10.2183 9.8385,-5.5049 8.2464,7.6876 -2.1953,-11.0582 9.8597,-5.4671 -11.1953,-1.3293 z"
           style="fill:#003e7c;fill-rule:evenodd;stroke:#003e7c;stroke-width:0.216;stroke-linecap:butt;stroke-linejoin:miter;stroke-dasharray:none"
           id="path20" />
        <path
           d="m 313.5877,155.0685 -7.5494,8.3731 -10.2785,-4.6321 5.6303,9.7674 -7.5816,8.344 11.0293,-2.3365 5.5927,9.7889 1.1861,-11.2114 11.0381,-2.294 -10.2962,-4.5926 z"
           style="fill:#003e7c;fill-rule:evenodd;stroke:#003e7c;stroke-width:0.216;stroke-linecap:butt;stroke-linejoin:miter;stroke-dasharray:none"
           id="path22" />
      </g>
    </g>
    <path
       d="m 160.7312,193.26 c 14.2941,-0.4304 28.9723,-2.6006 43.2658,-4.8897 15.4972,-2.482 30.6113,-5.2398 46.1088,-9.7019 15.4975,4.4621 30.6115,7.2199 46.1087,9.7019 14.2935,2.2891 28.9717,4.4593 43.2658,4.8897 -11.5551,63.2458 -12.3188,131.8858 -7.4881,203.3247 0.1858,3.8806 -6.1731,7.4273 -18.1175,10.689 -13.5138,3.6899 -34.945,5.8635 -60.6012,10.0467 l -3.1677,2.304 -3.1678,-2.304 c -25.6561,-4.1832 -47.0874,-6.3568 -60.6011,-10.0467 -11.9444,-3.2617 -18.3034,-6.8084 -18.1175,-10.689 4.8307,-71.4389 4.067,-140.0789 -7.4882,-203.3247 z"
       style="fill:#003e7c;fill-rule:evenodd"
       id="path26" />
    <path
       d="m 224.3788,243.659 v 165.6404 c -3.8743,-0.5614 -7.7491,-1.1222 -11.6227,-1.6991 -1.7864,-0.2661 -3.5963,-0.534 -5.4171,-0.8129 V 243.659 Z"
       style="fill:#ffe127;fill-rule:evenodd"
       id="path28" />
    <path
       d="M 189.8194,403.4673 V 243.659 h -17.5847 c 1.5161,15.9835 2.4588,32.023 2.9451,48.0524 1.0599,34.9328 -0.0359,69.952 -2.384,104.8124 0.5894,0.8309 2.8016,2.0316 3.5479,2.4008 3.4482,1.707 7.4912,2.9366 11.1948,3.9484 0.7545,0.2059 1.5151,0.4039 2.2809,0.5943 z"
       style="fill:#ffe127;fill-rule:evenodd"
       id="path30" />
    <path
       d="m 275.8328,243.659 v 165.6404 c 3.8742,-0.5614 7.749,-1.1222 11.6227,-1.6991 1.7864,-0.2661 3.5962,-0.534 5.417,-0.8129 V 243.659 Z"
       style="fill:#ffe127;fill-rule:evenodd"
       id="path32" />
    <path
       d="m 258.5531,243.659 v 168.2033 c -2.0054,0.3108 -4.0102,0.6283 -6.0137,0.9549 l -1.0715,0.1752 -1.3621,0.9912 -1.3622,-0.9912 -1.0714,-0.1752 c -2.0036,-0.3266 -4.0084,-0.6441 -6.0137,-0.9549 V 243.659 h 8.4473 z"
       style="fill:#ffe127;fill-rule:evenodd"
       id="path34" />
    <path
       d="M 310.3921,403.4673 V 243.659 h 17.5848 c -1.5161,15.9835 -2.4589,32.023 -2.9452,48.0524 -1.0598,34.9328 0.0359,69.952 2.384,104.8124 -0.5893,0.8309 -2.8015,2.0316 -3.5479,2.4008 -3.4481,1.707 -7.4911,2.9366 -11.1947,3.9484 -0.7546,0.2059 -1.5152,0.4039 -2.281,0.5943 z"
       style="fill:#ffe127;fill-rule:evenodd"
       id="path36" />
    <g
       id="Layer1005">
      <path
         d="m 202.234,225.8745 6.3912,1.9631 c -0.9814,3.5987 -2.6173,6.2692 -4.8997,8.0191 -2.2828,1.7423 -5.1738,2.6173 -8.6812,2.6173 -4.3444,0 -7.913,-1.4835 -10.7128,-4.4509 -2.7924,-2.9673 -4.1923,-7.0225 -4.1923,-12.1734 0,-5.4402 1.4075,-9.6705 4.2151,-12.6835 2.8074,-3.0129 6.5052,-4.5192 11.0856,-4.5192 4.002,0 7.2506,1.1867 9.7463,3.553 1.4914,1.3999 2.602,3.4087 3.3477,6.0335 l -6.528,1.5523 c -0.388,-1.6891 -1.1946,-3.0282 -2.4196,-4.0099 -1.2326,-0.9814 -2.7237,-1.4683 -4.4736,-1.4683 -2.4272,0 -4.3976,0.8674 -5.9043,2.6097 -1.5139,1.7347 -2.2672,4.5497 -2.2672,8.4455 0,4.1236 0.7457,7.0681 2.2292,8.8181 1.4911,1.7575 3.4238,2.6324 5.8051,2.6324 1.7579,0 3.2718,-0.5553 4.5348,-1.6738 1.263,-1.1183 2.176,-2.8682 2.7237,-5.265 z"
         style="fill:#ffe127;fill-rule:evenodd"
         id="path38" />
      <path
         d="m 313.9762,226.0664 6.3912,1.9631 c -0.9814,3.5987 -2.6173,6.2692 -4.8997,8.0191 -2.2828,1.7423 -5.1738,2.6173 -8.6812,2.6173 -4.3444,0 -7.913,-1.4835 -10.7128,-4.4508 -2.7924,-2.9674 -4.1923,-7.0226 -4.1923,-12.1735 0,-5.4402 1.4075,-9.6705 4.2151,-12.6835 2.8074,-3.0129 6.5052,-4.5192 11.0856,-4.5192 4.002,0 7.2506,1.1867 9.7463,3.553 1.4914,1.3999 2.602,3.4087 3.3477,6.0335 l -6.528,1.5523 c -0.388,-1.6891 -1.1946,-3.0282 -2.4196,-4.0099 -1.2326,-0.9814 -2.7237,-1.4683 -4.4736,-1.4683 -2.4272,0 -4.3976,0.8674 -5.9043,2.6097 -1.5139,1.7347 -2.2672,4.5497 -2.2672,8.4455 0,4.1236 0.7457,7.0681 2.2292,8.8181 1.4911,1.7575 3.4238,2.6324 5.8051,2.6324 1.7579,0 3.2718,-0.5553 4.5348,-1.6738 1.263,-1.1183 2.176,-2.8682 2.7237,-5.265 z"
         style="fill:#ffe127;fill-rule:evenodd"
         id="path40" />
      <path
         d="m 249.3385,238.1647 h -8.1013 l -3.2075,-9.1532 h -14.8975 l -3.0869,9.1532 h -7.9543 l 14.4215,-40.2069 h 7.9461 z m -13.7473,-15.9479 -5.1619,-14.8811 -5.0147,14.8811 z"
         style="fill:#ffe127;fill-rule:evenodd"
         id="path42" />
      <path
         d="m 263.6228,215.9476 h 8.2281 c 1.7892,0 3.1054,-0.4313 3.9408,-1.2843 0.8434,-0.8622 1.2612,-2.2119 1.2612,-4.0586 0,-1.7526 -0.4099,-3.0838 -1.2219,-3.9837 -0.8197,-0.909 -2.0331,-1.3591 -3.6568,-1.3591 h -8.5514 z m -6.9987,22.7767 v -40.4359 h 16.5038 c 3.7118,0 6.4547,0.9373 8.2439,2.8213 1.7888,1.8841 2.6796,4.7711 2.6796,8.642 0,2.4652 -0.4334,4.5275 -1.3083,6.1676 -0.8668,1.6499 -2.1201,2.7745 -3.7593,3.3742 1.4738,0.6281 2.5218,1.5748 3.1446,2.8591 0.6226,1.284 0.9772,3.2806 1.0718,5.9894 l 0.1417,4.7802 c 0,0.0374 0,0.0937 0,0.1688 0.0474,2.4184 0.4887,3.8806 1.3241,4.3961 v 1.2372 h -7.6605 c -0.2445,-0.5718 -0.4337,-1.2655 -0.5675,-2.0997 -0.1262,-0.8342 -0.205,-1.8278 -0.2366,-2.9807 l -0.0946,-4.2647 c -0.0788,-2.5121 -0.4726,-4.199 -1.19,-5.0801 -0.7172,-0.8813 -2.0097,-1.3217 -3.8697,-1.3217 h -7.4243 v 15.7469 z"
         style="fill:#ffe127;fill-rule:evenodd"
         id="path44" />
    </g>
    <g
       id="Layer1006">
      <path
         d="m 404.6637,313.5462 c 9.814,-0.0398 20.649,4.0068 33.0232,14.2078 -1.5887,10.6619 -0.5231,21.9133 2.4962,33.5995 -14.2405,-14.6019 -25.8872,-30.6453 -35.5194,-47.8073 z"
         style="fill:#ffe127;fill-rule:evenodd"
         id="path47" />
      <path
         d="m 478.1986,327.9459 c 9.151,-9.3464 19.8404,-14.0776 32.0634,-14.2078 -11.9679,21.1056 -23.9357,37.5182 -36.0955,47.9992 2.596,-10.7614 4.5092,-22.0064 4.0321,-33.7914 z"
         style="fill:#ffe127;fill-rule:evenodd"
         id="path49" />
      <path
         d="m 457.6547,283.0186 c -2.0297,33.5847 -1.7466,66.5088 -0.1919,99.0703 8.8099,-9.4831 16.3865,-26.9417 16.3196,-50.111 -0.069,-23.9427 -6.8604,-42.3166 -16.1277,-48.9593 z"
         style="fill:#ffe127;fill-rule:evenodd"
         id="path51" />
      <path
         d="m 404.6637,209.8679 c 9.814,-0.0399 20.649,4.0068 33.0232,14.2077 -1.5887,10.6619 -0.5231,21.9133 2.4962,33.5995 -14.2405,-14.6019 -25.8872,-30.6453 -35.5194,-47.8072 z"
         style="fill:#ffe127;fill-rule:evenodd"
         id="path53" />
      <path
         d="m 478.1986,224.2675 c 9.151,-9.3463 19.8404,-14.0776 32.0634,-14.2077 -11.9679,21.1055 -23.9357,37.5181 -36.0955,47.9991 2.596,-10.7614 4.5092,-22.0063 4.0321,-33.7914 z"
         style="fill:#ffe127;fill-rule:evenodd"
         id="path55" />
      <path
         d="m 457.6547,179.3403 c -2.0297,33.5846 -1.7466,66.5087 -0.1919,99.0703 8.8099,-9.4832 16.3865,-26.9417 16.3196,-50.1111 -0.069,-23.9427 -6.8604,-42.3166 -16.1277,-48.9592 z"
         style="fill:#ffe127;fill-rule:evenodd"
         id="path57" />
      <path
         d="m 405.4316,105.4213 c 9.814,-0.0399 20.649,4.0068 33.0232,14.2077 -1.5887,10.6619 -0.5231,21.9133 2.4963,33.5995 -14.2406,-14.6018 -25.8873,-30.6453 -35.5195,-47.8072 z"
         style="fill:#ffe127;fill-rule:evenodd"
         id="path59" />
      <path
         d="m 478.9665,119.8209 c 9.151,-9.3463 19.8404,-14.0776 32.0634,-14.2077 -11.9679,21.1055 -23.9357,37.5181 -36.0955,47.9991 2.596,-10.7614 4.5092,-22.0063 4.0321,-33.7914 z"
         style="fill:#ffe127;fill-rule:evenodd"
         id="path61" />
      <path
         d="m 458.4226,74.8937 c -2.0297,33.5846 -1.7465,66.5087 -0.1919,99.0703 8.8099,-9.4832 16.3865,-26.9417 16.3196,-50.111 -0.069,-23.9428 -6.8604,-42.3167 -16.1277,-48.9593 z"
         style="fill:#ffe127;fill-rule:evenodd"
         id="path63" />
      <path
         d="m 404.6634,418.6646 c 9.814,-0.0398 20.649,4.0068 33.0232,14.2077 -1.5887,10.662 -0.5231,21.9133 2.4962,33.5996 -14.2405,-14.6019 -25.8872,-30.6453 -35.5194,-47.8073 z"
         style="fill:#ffe127;fill-rule:evenodd"
         id="path65" />
      <path
         d="m 478.1983,433.0642 c 9.151,-9.3463 19.8404,-14.0775 32.0634,-14.2077 -11.9679,21.1056 -23.9357,37.5182 -36.0955,47.9992 2.596,-10.7614 4.5092,-22.0064 4.0321,-33.7915 z"
         style="fill:#ffe127;fill-rule:evenodd"
         id="path67" />
      <path
         d="m 457.6544,388.137 c -2.0297,33.5847 -1.7466,66.5087 -0.1919,99.0703 8.8099,-9.4832 16.3865,-26.9417 16.3196,-50.111 -0.0691,-23.9427 -6.8604,-42.3166 -16.1277,-48.9593 z"
         style="fill:#ffe127;fill-rule:evenodd"
         id="path69" />
    </g>
  </g>
  <g
     inkscape:groupmode="layer"
     id="layer1"
     inkscape:label="Layer 1" />
</svg>
