<?xml version="1.0" encoding="utf-8"?>
<!-- Generator: Adobe Illustrator 16.0.3, SVG Export Plug-In . SVG Version: 6.00 Build 0)  -->
<!DOCTYPE svg PUBLIC "-//W3C//DTD SVG 1.1//EN" "http://www.w3.org/Graphics/SVG/1.1/DTD/svg11.dtd">
<svg version="1.1" id="Capa_1" xmlns="http://www.w3.org/2000/svg" xmlns:xlink="http://www.w3.org/1999/xlink" x="0px" y="0px"
	 width="107.881px" height="122.719px" viewBox="0 0 107.881 122.719" enable-background="new 0 0 107.881 122.719"
	 xml:space="preserve">
<g>
	<path fill-rule="evenodd" clip-rule="evenodd" fill="#F7D825" d="M106.776,63.546c-0.956,0.897-1.924,1.789-2.814,2.745
		c-1.096,1.177-1.988,2.403-2.776,3.804l-0.415,0.737l-0.235-0.814c-0.559-1.943-1.461-3.844-2.745-5.419l-0.228-0.282l0.284-0.222
		c4.332-3.377,6.961-5.882,8.619-11.296c1.289-4.216,0.808-8.387,0.311-12.669c-0.969,0.908-1.951,1.813-2.85,2.784
		c-1.108,1.196-2.008,2.443-2.801,3.872l-0.41,0.732l-0.24-0.803c-0.594-1.988-1.555-3.926-2.92-5.501l-0.242-0.282l0.293-0.229
		c4.597-3.584,7.488-6.287,9.043-12.125c1.059-3.984,0.594-8.001,0.127-12.027c-0.943,0.885-1.9,1.766-2.782,2.709
		c-1.082,1.156-1.971,2.362-2.753,3.742l-0.424,0.742l-0.227-0.825c-0.785-2.859-2.357-5.755-4.793-7.533l-0.146-0.104v-5.51
		c0-1.868-0.204-3.426-1.609-4.783c-1.285-1.244-3.137-1.772-4.871-1.283c-2.348,0.664-3.187,2.489-4.031,4.583
		c-0.125,0.313-0.26,0.625-0.406,0.928c-0.825,1.737-1.227,2.041-3.046,1.195c-0.87-0.405-1.679-0.912-2.497-1.411
		c-2.766-1.691-5.555-3.365-8.508-4.718c-3.002-1.377-6.108-2.358-9.332-3.069c-7.139-1.578-13.997-1.292-21.044,0.601
		c-4.909,1.319-9.413,3.243-13.731,5.929C18.98,12.465,13.341,18.704,9.061,26.53c-4.66,8.524-7.167,17.142-8.225,26.776
		c-0.874,7.957-0.731,16.161,0.663,24.05c1.095,6.202,3.041,12.097,5.884,17.719c2.004,3.954,4.423,7.696,7.334,11.043
		c5.65,6.492,12.932,11.153,21.11,13.782c6.226,2.005,13.329,2.854,19.852,2.369c5.652-0.418,11.127-2.137,16.275-4.446
		c1.608-0.722,3.16-1.536,4.658-2.464c1.266-0.782,2.501-1.605,3.764-2.393l0.027-0.02c0.428-0.275,0.864-0.539,1.316-0.766
		c0.594-0.295,1.373-0.596,2.006-0.242c0.675,0.371,1.027,1.529,1.318,2.207c0.616,1.447,1.227,2.939,2.504,3.938
		c0.894,0.697,1.945,1.012,3.073,1.002c1.998-0.023,3.796-1.316,4.564-3.143c0.432-1.023,0.466-1.918,0.466-3.01v-2.139l0.146-0.107
		c0.385-0.279,0.744-0.588,1.086-0.918l0.625-0.606l-0.055,1.894c4.207-3.289,7.01-5.678,8.842-11.078
		c1.494-4.412,1.002-8.694,0.48-13.194c-0.932,0.874-1.876,1.741-2.747,2.671c-1.067,1.135-1.95,2.321-2.729,3.672l-0.43,0.748
		l-0.219-0.834c-0.496-1.9-1.307-3.762-2.477-5.351l-0.201-0.275l0.27-0.212c4.116-3.212,6.659-5.887,8.221-10.982
		C107.754,72.002,107.273,67.83,106.776,63.546"/>
	<path fill-rule="evenodd" clip-rule="evenodd" fill="#1A4178" d="M97.081,111.797l0.051-1.773
		c-0.361,0.349-0.735,0.668-1.125,0.951v1.961c0,1.148-0.039,2.059-0.496,3.146c-0.824,1.957-2.746,3.334-4.885,3.358
		c-1.211,0.014-2.339-0.328-3.295-1.078c-1.338-1.049-1.969-2.563-2.615-4.075c-0.727-1.702-0.896-2.747-2.838-1.787
		c-0.474,0.233-0.938,0.524-1.281,0.746l-0.018,0.012l-0.018,0.009c-1.262,0.783-2.498,1.612-3.762,2.396
		c-1.526,0.944-3.062,1.753-4.701,2.487c-5.189,2.326-10.697,4.053-16.393,4.475c-6.535,0.484-13.751-0.38-19.988-2.385
		c-8.24-2.649-15.575-7.344-21.266-13.885c-2.934-3.375-5.368-7.133-7.384-11.119c-2.875-5.678-4.811-11.553-5.917-17.817
		c-1.396-7.907-1.543-16.174-0.667-24.148c1.068-9.723,3.549-18.278,8.267-26.907c4.315-7.89,9.985-14.162,17.637-18.918
		c4.383-2.726,8.844-4.633,13.826-5.971c7.123-1.915,14-2.198,21.214-0.606c3.27,0.721,6.356,1.699,9.402,3.095
		C73.792,5.319,76.596,7,79.375,8.699c0.428,0.262,1.496,0.943,2.463,1.392c1.609,0.75,1.825,0.553,2.576-1.026
		c0.186-0.389,0.332-0.748,0.396-0.906c0.881-2.184,1.781-4.091,4.264-4.793c1.861-0.524,3.831,0.033,5.212,1.367
		c1.486,1.435,1.72,3.075,1.72,5.04v5.329c2.242,1.637,4.008,4.384,4.926,7.725c1.775-3.127,3.591-4.619,6.113-7.017
		c0.553,4.789,1.045,8.724-0.055,12.859c-1.6,6.008-4.604,8.753-9.166,12.315c1.295,1.496,2.331,3.426,2.992,5.629
		c1.809-3.252,3.625-4.746,6.229-7.224c0.579,5.042,1.098,9.135-0.242,13.513c-1.703,5.569-4.437,8.117-8.739,11.472
		c1.224,1.504,2.194,3.399,2.811,5.549c1.796-3.187,3.607-4.679,6.171-7.118c0.579,5.043,1.098,9.138-0.244,13.521
		c-1.582,5.171-4.156,7.891-8.34,11.154c1.113,1.521,1.989,3.385,2.532,5.471c1.761-3.059,3.569-4.551,6.052-6.908
		c0.604,5.246,1.139,9.467-0.414,14.049C104.688,105.824,101.696,108.198,97.081,111.797 M79.807,101.712
		c-2.527,3.021-5.442,5.604-8.887,7.54c-8.947,5.027-20.762,5.521-29.728,0.264c-5.602-3.287-10.033-8.396-13.312-13.947
		c-3.918-6.629-6.369-14.227-7.533-21.826c-1.199-7.816-1.034-15.981,0.146-23.789c0.627-4.136,1.572-8.179,2.74-12.193l0.012-0.043
		l0.013-0.042c1.113-3.314,2.385-6.584,4.014-9.682c3.596-6.839,8.933-12.721,16.091-15.87c2.295-1.01,4.705-1.71,7.178-2.099
		c5.756-0.909,11.752-0.164,17.125,2.082c3.623,1.513,6.952,3.673,9.879,6.283c4.328,3.862,8.032,8.948,9.924,14.458
		c0.479,1.394,0.819,2.806,1.121,4.238c0.151,0.725,0.276,1.494,0.426,2.24c0.133,0.679,0.347,2.038,0.942,2.401
		c0.298,0.181,0.751,0.218,1.075,0.083c0.475-0.201,0.588-0.71,0.625-1.178c0.029-0.365,0.01-0.756,0.016-1.082
		c0-1.205,0.004-2.408,0.004-3.615v-1.752c-0.002-5.846-0.004-11.692-0.004-17.54V9.771c0-0.582,0.062-1.477-0.397-1.92
		c-0.274-0.264-0.647-0.421-1.024-0.315c-0.731,0.207-1.162,1.599-1.422,2.243c-0.841,2.086-2.021,4.336-4.4,4.924
		c-2.586,0.64-5.205-1.016-7.316-2.308c-2.624-1.606-5.288-3.21-8.088-4.494c-2.768-1.267-5.564-2.146-8.533-2.802
		c-6.531-1.442-12.704-1.174-19.155,0.56c-4.571,1.228-8.639,2.963-12.661,5.464c-7.016,4.363-12.17,10.085-16.124,17.317
		c-4.446,8.132-6.756,16.143-7.762,25.301c-0.829,7.566-0.698,15.422,0.628,22.922c1.032,5.847,2.832,11.315,5.516,16.616
		c1.855,3.664,4.086,7.125,6.785,10.228c5.173,5.946,11.838,10.197,19.324,12.604c5.707,1.837,12.361,2.635,18.339,2.191
		c5.183-0.384,10.223-1.992,14.944-4.109c1.463-0.657,2.826-1.375,4.188-2.217c1.26-0.778,2.488-1.603,3.746-2.385
		c1.301-0.835,2.746-1.621,4.301-1.805c1.933-0.227,3.529,0.551,4.687,2.086c0.624,0.829,1.048,1.764,1.453,2.713
		c0.257,0.602,0.779,1.959,1.298,2.366c0.172,0.133,0.362,0.157,0.576,0.153c0.407-0.004,0.791-0.346,0.941-0.705
		c0.185-0.445,0.156-0.996,0.156-1.465v-4.767v-15.59c0-2.142-0.01-4.263-0.01-6.403c0-0.904-0.018-2.15-0.145-3.087
		c-0.02-0.131-0.04-0.254-0.063-0.372c-0.104-0.531-0.252-0.949-0.588-1.164c-0.184-0.115-0.42-0.172-0.736-0.154
		c-1.067,0.068-1.279,0.855-1.55,1.763c-0.571,1.916-0.891,3.676-1.573,5.624C85.368,93.462,83.004,97.887,79.807,101.712
		 M105.389,90.607c0,0-5.694,5.412-6.012,16.652C99.377,107.26,106.651,101.59,105.389,90.607 M82.256,67.368
		c0,0,4.436,4.221,5.696,12.938c0.292-0.218,0.64-0.4,1.047-0.535c0.166-0.057,0.343-0.099,0.546-0.131
		c-0.029-0.129-0.074-0.295-0.135-0.484c-1.203-3.652-1.288-7.991,0.569-11.443c0.862-1.606,2.09-2.976,3.86-3.588v44.044
		c-0.002,1.588,0,3.177,0,4.767c0,0.83,0.01,1.508-0.324,2.303c-0.49,1.162-1.639,2.019-2.916,2.035
		c-3.297,0.035-3.43-3.908-5.082-6.098c-0.696-0.925-1.545-1.373-2.701-1.236c-1.184,0.139-2.418,0.854-3.396,1.486
		c-3.166,1.961-4.599,3.129-8.207,4.746c-4.957,2.221-10.231,3.887-15.67,4.29c-6.22,0.461-13.234-0.38-19.161-2.284
		c-7.862-2.529-14.859-6.998-20.296-13.25c-2.749-3.158-5.09-6.727-7.086-10.672c-2.816-5.564-4.652-11.18-5.716-17.215
		c-1.357-7.677-1.496-15.802-0.646-23.537c1.005-9.16,3.258-17.408,8.013-26.103c4.159-7.604,9.569-13.572,16.881-18.118
		c4.258-2.647,8.41-4.419,13.242-5.718c6.839-1.838,13.319-2.098,20.187-0.581c7.084,1.564,11.17,3.824,17.284,7.562
		c1.484,0.91,3.89,2.493,5.664,2.053c1.531-0.378,2.368-2.28,2.91-3.63c0.594-1.471,1.153-3.041,2.844-3.517
		c1.125-0.318,2.284,0.037,3.117,0.839c0.989,0.954,1.06,2.09,1.06,3.482c0,2.29-0.002,4.579,0,6.869v42.073
		c-0.009,1.196-0.021,2.395-0.033,3.594v0.014c-0.902-0.687-3.357-2.914-4.438-7.506c-0.814-3.48-0.869-7.596,1.078-10.712
		c-0.893-0.05-1.573-0.303-2.088-0.767c-1.035-0.937-1.326-2.97-1.587-4.298c-0.404-2.073-0.75-3.731-1.353-5.489
		c-1.769-5.15-5.27-9.933-9.316-13.544c-2.762-2.464-5.887-4.487-9.274-5.902c-5.003-2.092-10.588-2.788-15.95-1.941
		c-2.295,0.36-4.52,1.008-6.642,1.943c-6.706,2.948-11.684,8.499-15.046,14.894c-1.514,2.877-2.744,5.981-3.878,9.364
		c-1.208,4.155-2.08,7.971-2.676,11.911c-1.147,7.572-1.311,15.558-0.148,23.139c1.13,7.378,3.515,14.718,7.257,21.054
		c3.146,5.325,7.344,10.129,12.543,13.18c8.297,4.865,19.292,4.363,27.571-0.287c3.004-1.688,5.733-3.989,8.282-7.039
		c3.572-4.273,6.06-9.367,7.597-14.703c0.312-1.084,0.481-2.26,0.847-3.289C84.522,79.902,81.393,74.878,82.256,67.368
		 M82.256,43.955c0,0,5.693,5.411,6.014,16.65C88.27,60.605,80.993,54.937,82.256,43.955 M105.389,20.373
		c0,0-5.694,5.414-6.012,16.652C99.377,37.025,106.651,31.355,105.389,20.373 M105.389,43.955c0,0-5.694,5.411-6.012,16.65
		C99.377,60.605,106.651,54.937,105.389,43.955 M105.389,67.368c0,0-5.694,5.416-6.012,16.653
		C99.377,84.021,106.651,78.35,105.389,67.368 M87.321,45.281c-0.172,0.443-0.33,0.902-0.469,1.371
		c-1.816-3.274-3.633-4.772-6.25-7.263c-0.413,3.575-0.831,6.602-0.51,9.721c0.357,3.467,1.809,7.278,3.908,10.078
		c1.498,1.995,3.258,3.374,5.643,5.236c-1.397,1.545-2.344,3.569-2.829,5.584c-1.726-3.103-3.698-4.812-6.212-7.203
		c-0.872,7.556-1.422,13.384,3.59,20.003c-0.182,0.735-0.322,1.475-0.534,2.209c-1.452,5.045-3.798,9.873-7.176,13.914
		c-2.188,2.619-4.701,4.866-7.681,6.541c-7.604,4.271-17.783,4.782-25.416,0.305c-4.952-2.904-8.877-7.51-11.775-12.411
		c-3.634-6.155-5.899-13.229-6.981-20.279c-1.132-7.383-0.966-15.112,0.15-22.487c0.594-3.929,1.495-7.771,2.603-11.589
		c1.034-3.077,2.213-6.125,3.727-9.002c3.131-5.955,7.754-11.173,13.999-13.92c1.952-0.858,4.003-1.454,6.108-1.785
		c4.965-0.783,10.143-0.137,14.777,1.8c3.18,1.329,6.102,3.228,8.667,5.518c3.769,3.365,7.06,7.832,8.709,12.633
		c0.582,1.696,0.933,3.443,1.276,5.202c0.378,1.928,0.723,4.097,2.258,5.487C87.04,45.065,87.178,45.177,87.321,45.281"/>
	<path fill-rule="evenodd" clip-rule="evenodd" fill="#1A4178" d="M48.301,41.03c0.861-0.493,1.679-1.023,2.508-1.563v9.179h-2.508
		V41.03z M38.593,55.496h-4.571V84.17c0.004,3.029,1.201,4.82,3.894,6.152c0.226,0.113,0.452,0.221,0.677,0.325V55.496z
		 M75.148,55.496h-4.569v35.152c0.225-0.104,0.449-0.212,0.678-0.325c2.692-1.332,3.89-3.123,3.892-6.152V55.496z M66.008,55.496
		H61.44v38.877c1.13-0.551,2.306-1.049,3.59-1.522l0.979-0.36V55.496z M56.874,55.496h-4.572v41.558
		c0.235,0.159,0.473,0.323,0.711,0.494c0.529,0.376,1.053,0.756,1.574,1.141c0.521-0.385,1.045-0.765,1.572-1.141
		c0.239-0.171,0.475-0.335,0.715-0.494V55.496z M47.732,55.496h-4.569V92.49l0.979,0.36c1.286,0.474,2.462,0.972,3.59,1.522V55.496z
		 M52.65,35.854c-0.858,0.678-1.75,1.324-2.66,1.947c-1.147,0.783-2.297,1.51-3.53,2.148v12.977h1.842v-2.45h2.508v2.45h1.841
		V35.854z M58.191,39.983c1.082,0.937,2.155,1.817,3.002,3.039c0.515,0.75,0.771,1.392,0.733,1.994
		c-0.066,0.987-1.09,1.982-1.907,2.431c-0.53,0.293-1.126,0.468-1.828,0.555V39.983z M56.35,35.912v16.979h1.841v-3.026
		c0.496-0.033,0.978-0.174,1.474-0.324l1.254,3.35h1.967l-1.564-4.095c3.313-2.29,3.321-5.113-0.002-8.458
		C59.979,38.985,57.891,37.196,56.35,35.912 M73.525,46.288l1.417-1.232c-0.316-0.474-0.76-0.939-1.211-1.288
		c-0.357-0.274-0.736-0.491-1.139-0.652c-1.123-0.449-2.521-0.464-3.66-0.059c-1.229,0.435-2.273,1.39-2.842,2.562
		c-0.623,1.29-0.647,2.869-0.104,4.19c0.509,1.234,1.493,2.244,2.782,2.759c1.389,0.553,3.066,0.472,4.367-0.268
		c0.668-0.382,1.377-1.02,1.807-1.664l-1.417-1.23c-0.116,0.191-0.278,0.401-0.457,0.599c-0.472,0.525-0.958,0.862-1.653,1.016
		c-0.576,0.124-1.228,0.097-1.783-0.09c-0.785-0.266-1.498-0.91-1.867-1.653c-0.368-0.736-0.42-1.658-0.174-2.442
		c0.268-0.856,0.949-1.614,1.771-1.973c0.76-0.331,1.705-0.356,2.48-0.063C72.542,45.065,73.17,45.63,73.525,46.288 M42.073,46.288
		l1.415-1.232c-0.316-0.474-0.757-0.939-1.21-1.288c-0.355-0.274-0.735-0.491-1.14-0.652c-1.122-0.447-2.518-0.464-3.657-0.059
		c-1.23,0.435-2.275,1.39-2.844,2.562c-0.623,1.29-0.648,2.869-0.104,4.19c0.509,1.235,1.492,2.244,2.782,2.759
		c1.388,0.553,3.065,0.472,4.367-0.268c0.669-0.382,1.376-1.02,1.806-1.664l-1.415-1.23c-0.117,0.191-0.277,0.401-0.459,0.601
		c-0.472,0.523-0.958,0.86-1.654,1.014c-0.574,0.124-1.224,0.097-1.781-0.09c-0.787-0.266-1.496-0.91-1.869-1.651
		c-0.366-0.738-0.418-1.66-0.171-2.442c0.266-0.858,0.946-1.616,1.77-1.975c0.759-0.331,1.706-0.356,2.481-0.063
		C41.088,45.065,41.717,45.63,42.073,46.288 M54.586,101.35c-0.971-0.74-1.906-1.43-2.804-2.064
		c-6.476-4.588-8.931-4.147-14.809-7.056c-3.334-1.649-5.079-4.125-5.079-8.075V46.406c0-1.566-0.218-3.025-0.609-4.406
		c8.659-1.328,16.924-4.833,23.301-10.918c6.375,6.085,14.643,9.59,23.299,10.918c-0.39,1.381-0.606,2.84-0.606,4.406v37.749
		c0,3.95-1.747,6.426-5.081,8.075c-5.876,2.908-8.334,2.468-14.809,7.056C56.491,99.92,55.555,100.609,54.586,101.35"/>
	<polygon fill="#1A4178" points="73.435,31.445 74.53,33.666 76.984,34.023 75.209,35.752 75.629,38.193 73.435,37.04 
		71.243,38.193 71.661,35.752 69.887,34.023 72.34,33.666 	"/>
	<polygon fill="#1A4178" points="67.651,25.043 68.877,27.529 71.621,27.928 69.635,29.864 70.103,32.596 67.651,31.306 
		65.197,32.596 65.665,29.864 63.678,27.928 66.422,27.529 	"/>
	<polygon fill="#1A4178" points="59.627,18.946 60.981,21.69 64.008,22.129 61.819,24.265 62.334,27.283 59.627,25.858 
		56.918,27.283 57.436,24.265 55.247,22.129 58.273,21.69 	"/>
	<polygon fill="#1A4178" points="35.798,31.445 36.895,33.666 39.346,34.023 37.572,35.752 37.99,38.193 35.798,37.04 
		33.606,38.193 34.024,35.752 32.25,34.023 34.701,33.666 	"/>
	<polygon fill="#1A4178" points="41.54,25.043 42.766,27.529 45.51,27.928 43.524,29.864 43.992,32.596 41.54,31.306 39.086,32.596 
		39.554,29.864 37.57,27.928 40.314,27.529 	"/>
	<polygon fill="#1A4178" points="49.543,18.946 50.899,21.69 53.926,22.131 51.736,24.267 52.252,27.283 49.543,25.858 
		46.834,27.283 47.354,24.267 45.162,22.131 48.191,21.69 	"/>
</g>
<g>
</g>
<g>
</g>
<g>
</g>
<g>
</g>
<g>
</g>
<g>
</g>
</svg>
