<?xml version="1.0" encoding="UTF-8" standalone="no"?>
<!-- Created with Inkscape (http://www.inkscape.org/) -->

<svg
   xmlns:dc="http://purl.org/dc/elements/1.1/"
   xmlns:cc="http://creativecommons.org/ns#"
   xmlns:rdf="http://www.w3.org/1999/02/22-rdf-syntax-ns#"
   xmlns:svg="http://www.w3.org/2000/svg"
   xmlns="http://www.w3.org/2000/svg"
   xmlns:sodipodi="http://sodipodi.sourceforge.net/DTD/sodipodi-0.dtd"
   xmlns:inkscape="http://www.inkscape.org/namespaces/inkscape"
   width="660.2616"
   height="1001.6595"
   id="svg2"
   version="1.1"
   inkscape:version="0.48.5 r10040"
   sodipodi:docname="Nuovo documento 1">
  <defs
     id="defs4" />
  <sodipodi:namedview
     id="base"
     pagecolor="#ffffff"
     bordercolor="#666666"
     borderopacity="1.0"
     inkscape:pageopacity="0.0"
     inkscape:pageshadow="2"
     inkscape:zoom="0.35"
     inkscape:cx="458.49763"
     inkscape:cy="209.44862"
     inkscape:document-units="px"
     inkscape:current-layer="layer3"
     showgrid="false"
     fit-margin-top="0"
     fit-margin-left="0"
     fit-margin-right="0"
     fit-margin-bottom="0"
     inkscape:window-width="1336"
     inkscape:window-height="840"
     inkscape:window-x="87"
     inkscape:window-y="0"
     inkscape:window-maximized="0" />
  <metadata
     id="metadata7">
    <rdf:RDF>
      <cc:Work
         rdf:about="">
        <dc:format>image/svg+xml</dc:format>
        <dc:type
           rdf:resource="http://purl.org/dc/dcmitype/StillImage" />
        <dc:title></dc:title>
      </cc:Work>
    </rdf:RDF>
  </metadata>
  <g
     inkscape:label="Livello 1"
     inkscape:groupmode="layer"
     id="layer1"
     style="display:inline"
     transform="translate(-4.5856105,-10.076439)">
    <path
       sodipodi:type="arc"
       style="fill:#bb9028;fill-opacity:1;stroke:none"
       id="path2997"
       sodipodi:cx="-407.14285"
       sodipodi:cy="293.79074"
       sodipodi:rx="275.71429"
       sodipodi:ry="418.57144"
       d="m -131.42856,293.79074 c 0,231.17062 -123.44149,418.57144 -275.71429,418.57144 -152.2728,0 -275.7143,-187.40082 -275.7143,-418.57144 0,-231.170623 123.4415,-418.57144 275.7143,-418.57144 152.2728,0 275.71429,187.400817 275.71429,418.57144 z"
       transform="matrix(1.1973655,0,0,1.1965215,822.2152,159.37923)" />
    <path
       transform="matrix(1.1347202,0,0,1.1585338,796.70961,170.53966)"
       d="m -131.42856,293.79074 c 0,231.17062 -123.44149,418.57144 -275.71429,418.57144 -152.2728,0 -275.7143,-187.40082 -275.7143,-418.57144 0,-231.170623 123.4415,-418.57144 275.7143,-418.57144 152.2728,0 275.71429,187.400817 275.71429,418.57144 z"
       sodipodi:ry="418.57144"
       sodipodi:rx="275.71429"
       sodipodi:cy="293.79074"
       sodipodi:cx="-407.14285"
       id="path2999"
       style="fill:#ad001e;fill-opacity:1;stroke:none"
       sodipodi:type="arc" />
    <path
       style="fill:#032250;fill-opacity:1;stroke:none"
       d="m 334.71639,995.83532 c -172.78702,0 -312.858582,-217.11018 -312.858582,-484.92916 0,-267.81898 140.071562,-484.929159 312.858582,-484.929159 l 0,299.832959 -233.34524,0 c -24.220563,112.34836 -16.685153,172.79325 8.17076,253.65465 23.13842,75.27401 70.06242,144.54533 126.3409,199.62977 27.4958,26.91244 55.91294,43.77031 98.83358,59.62054 z"
       id="path3001"
       inkscape:connector-curvature="0"
       sodipodi:nodetypes="cscccaacc" />
    <path
       sodipodi:nodetypes="ccaacc"
       inkscape:connector-curvature="0"
       id="path3008"
       d="m 335.0051,325.80996 233.34524,0 c 24.22056,112.34836 16.68515,172.79325 -8.17076,253.65465 -23.13842,75.27401 -70.06242,144.54533 -126.3409,199.62977 -27.4958,26.91244 -98.83358,59.62054 -98.83358,59.62054 z"
       style="fill:#032250;fill-opacity:1;stroke:none" />
    <rect
       style="fill:#ffffff;stroke:none"
       id="rect3010"
       width="221.2234"
       height="221.2234"
       x="224.25386"
       y="417.98639" />
    <path
       style="fill:#bb9028;fill-opacity:1;stroke:none"
       d="m 236.3125,430.0625 0,197.09375 196.09375,0 0,-197.09375 -196.09375,0 z m 8.84375,8.78125 83.4375,0 0,85.46875 -83.4375,0 0,-85.46875 z m 93.5625,0 83.46875,0 0,85.46875 -83.46875,0 0,-85.46875 z m -93.5625,95.71875 83.4375,0 0,85.46875 -83.4375,0 0,-85.46875 z m 93.5625,0 83.46875,0 0,85.46875 -83.46875,0 0,-85.46875 z"
       id="rect3012"
       inkscape:connector-curvature="0" />
    <path
       style="fill:#192152;fill-opacity:1;stroke:none"
       d="m 317.14286,595.93361 c -2.69141,-3.18213 -5.38706,-8.53042 -4.01151,-12.8392 2.35589,-7.37965 4.37235,-11.75751 4.80873,-18.4631 0.75683,-11.62958 -5.37975,-19.96345 -14.81245,-24.19906 -11.98543,-5.38189 -25.29815,-3.69621 -34.37238,3.49221 -6.35513,5.0344 -7.32668,15.22344 -7.32668,15.22344 6.90829,-1.45328 18.11917,-0.60513 26.18718,2.86085 6.26042,2.68945 15.59854,13.21057 15.59854,13.21057 -7.56403,2.73574 -28.65263,-1.58481 -43.21429,-2.5 -2.19546,3.21705 -3.41571,6.82419 -3.92857,10.71429 5.87751,0.12742 8.4392,5.17535 9.57786,7.56499 L 262.5,592.71932 c 0.0448,2.02016 -0.31058,3.83629 2.87881,6.25898 3.18938,2.42269 13.81976,0.86532 16.3023,2.83919 1.47238,4.24672 3.23809,9.67311 7.24746,12.68755 z"
       id="path3016"
       inkscape:connector-curvature="0"
       sodipodi:nodetypes="csssscaccccczccc" />
    <path
       sodipodi:nodetypes="csssscaccccczccc"
       inkscape:connector-curvature="0"
       id="path3020"
       d="m 317.14286,500.93361 c -2.69141,-3.18213 -5.38706,-8.53042 -4.01151,-12.8392 2.35589,-7.37965 4.37235,-11.75751 4.80873,-18.4631 0.75683,-11.62958 -5.37975,-19.96345 -14.81245,-24.19906 -11.98543,-5.38189 -25.29815,-3.69621 -34.37238,3.49221 -6.35513,5.0344 -7.32668,15.22344 -7.32668,15.22344 6.90829,-1.45328 18.11917,-0.60513 26.18718,2.86085 6.26042,2.68945 15.59854,13.21057 15.59854,13.21057 -7.56403,2.73574 -28.65263,-1.58481 -43.21429,-2.5 -2.19546,3.21705 -3.41571,6.82419 -3.92857,10.71429 5.87751,0.12742 8.4392,5.17535 9.57786,7.56499 L 262.5,497.71932 c 0.0448,2.02016 -0.31058,3.83629 2.87881,6.25898 3.18938,2.42269 13.81976,0.86532 16.3023,2.83919 1.47238,4.24672 3.23809,9.67311 7.24746,12.68755 z"
       style="fill:#192152;fill-opacity:1;stroke:none" />
    <path
       style="fill:#192152;fill-opacity:1;stroke:none"
       d="m 410.71429,500.93361 c -2.69141,-3.18213 -5.38706,-8.53042 -4.01151,-12.8392 2.35589,-7.37965 4.37235,-11.75751 4.80873,-18.4631 0.75683,-11.62958 -5.37975,-19.96345 -14.81245,-24.19906 -11.98543,-5.38189 -25.29815,-3.69621 -34.37238,3.49221 C 355.97155,453.95886 355,464.1479 355,464.1479 c 6.90829,-1.45328 18.11917,-0.60513 26.18718,2.86085 6.26042,2.68945 15.59854,13.21057 15.59854,13.21057 -7.56403,2.73574 -28.65263,-1.58481 -43.21429,-2.5 -2.19546,3.21705 -3.41571,6.82419 -3.92857,10.71429 5.87751,0.12742 8.4392,5.17535 9.57786,7.56499 l -3.14929,1.72072 c 0.0448,2.02016 -0.31058,3.83629 2.87881,6.25898 3.18938,2.42269 13.81976,0.86532 16.3023,2.83919 1.47238,4.24672 3.23809,9.67311 7.24746,12.68755 z"
       id="path3024"
       inkscape:connector-curvature="0"
       sodipodi:nodetypes="csssscaccccczccc" />
    <path
       sodipodi:nodetypes="csssscaccccczccc"
       inkscape:connector-curvature="0"
       id="path3028"
       d="m 410.71429,596.6479 c -2.69141,-3.18213 -5.38706,-8.53042 -4.01151,-12.8392 2.35589,-7.37965 4.37235,-11.75751 4.80873,-18.4631 0.75683,-11.62958 -5.37975,-19.96345 -14.81245,-24.19906 -11.98543,-5.38189 -25.29815,-3.69621 -34.37238,3.49221 -6.35513,5.0344 -7.32668,15.22344 -7.32668,15.22344 6.90829,-1.45328 18.11917,-0.60513 26.18718,2.86085 6.26042,2.68945 15.59854,13.21057 15.59854,13.21057 -7.56403,2.73574 -28.65263,-1.58481 -43.21429,-2.5 -2.19546,3.21705 -3.41571,6.82419 -3.92857,10.71429 5.87751,0.12742 8.4392,5.17535 9.57786,7.56499 l -3.14929,1.72072 c 0.0448,2.02016 -0.31058,3.83629 2.87881,6.25898 3.18938,2.42269 13.81976,0.86532 16.3023,2.83919 1.47238,4.24672 3.23809,9.67311 7.24746,12.68755 z"
       style="fill:#192152;fill-opacity:1;stroke:none" />
  </g>
  <g
     inkscape:groupmode="layer"
     id="layer3"
     inkscape:label="Livello"
     transform="translate(-4.5856105,-10.076439)">
    <g
       transform="scale(0.99376909,1.00627)"
       style="font-size:55.65106964px;font-style:normal;font-variant:normal;font-weight:bold;font-stretch:normal;text-align:start;line-height:125%;writing-mode:lr-tb;text-anchor:start;fill:#bb9028;fill-opacity:1;fill-rule:nonzero;stroke:none;display:inline;font-family:Bodoni MT;-inkscape-font-specification:Bodoni MT Bold"
       id="text3049">
      <path
         d="m 132.61757,274.23896 0.21738,10.19002 -1.76627,0 c -1.64854,-6.23173 -4.63761,-9.34761 -8.96721,-9.34764 -1.97461,3e-5 -3.38763,0.86052 -4.23905,2.58147 -0.85144,1.72101 -1.27716,5.21731 -1.27715,10.48892 -10e-6,9.80054 0.30796,15.69263 0.9239,17.67628 0.61592,1.98366 2.01987,2.97549 4.21187,2.97548 4.49265,10e-6 7.78968,-3.21551 9.89111,-9.64654 l 1.79344,0 -0.57064,11.24977 -1.76627,0 c -0.54349,-0.74274 -1.21377,-1.57605 -2.01083,-2.49995 -2.37316,1.88402 -5.02709,2.82603 -7.9618,2.82603 -3.80428,0 -7.19189,-1.63946 -10.16284,-4.91838 -2.97096,-3.27891 -4.45643,-7.77157 -4.45643,-13.47799 0,-5.65204 1.48095,-10.23981 4.44285,-13.76331 2.96188,-3.52345 6.63482,-5.28519 11.0188,-5.28523 2.60862,4e-5 4.98176,0.8877 7.11942,2.663 0.79706,-0.57967 1.46734,-1.15031 2.01083,-1.71193 z"
         id="path3063"
         inkscape:connector-curvature="0" />
      <path
         d="m 156.61165,300.05367 -11.46716,0 -1.54888,3.72275 c -0.59782,1.48548 -0.89673,2.56336 -0.89672,3.23363 -1e-5,0.96013 0.90577,1.44019 2.71733,1.44019 l 2.01083,0 0,1.79344 -11.73889,0 0,-1.79344 1.05976,0 c 1.39489,0 2.3369,-0.2355 2.82603,-0.70651 0.48911,-0.471 1.08693,-1.56699 1.79344,-3.28798 l 12.74431,-31.3309 1.60323,0 13.3693,35.32539 3.7771,0 0,1.79344 -17.93443,0 0,-1.79344 4.86404,0 z m -10.67913,-1.87497 9.94545,0 -4.78251,-12.63561 z"
         id="path3065"
         inkscape:connector-curvature="0" />
      <path
         d="m 206.31175,297.66241 0,7.06508 c -4.25719,4.00354 -8.85854,6.00531 -13.80407,6.00531 -4.83688,0 -8.88571,-1.82061 -12.1465,-5.46184 -3.26081,-3.64123 -4.89121,-8.07048 -4.89121,-13.28778 0,-5.28973 1.72098,-9.72804 5.16294,-13.31496 3.44195,-3.58685 7.4002,-5.38029 11.87477,-5.38033 3.31513,4e-5 6.34043,1.11415 9.0759,3.34233 0.61591,-0.63401 1.34053,-1.44921 2.17387,-2.4456 l 1.82062,0 0,10.84217 -1.82062,0 c -1.97462,-6.63027 -5.72454,-9.94542 -11.24977,-9.94545 -1.86592,3e-5 -3.34687,0.41669 -4.44285,1.24997 -1.09601,0.83335 -1.77987,2.10597 -2.05159,3.81786 -0.27175,1.71195 -0.40761,5.17655 -0.4076,10.39382 -1e-5,5.05426 0.0226,8.82683 0.0679,11.31771 0.0453,2.4909 0.59328,4.27075 1.64399,5.33956 1.05069,1.06883 2.6358,1.60324 4.75534,1.60323 1.66662,10e-6 2.88036,-0.28531 3.64124,-0.85596 0.76083,-0.57064 1.22277,-1.32696 1.38584,-2.26897 0.16301,-0.94201 0.24453,-2.39125 0.24456,-4.34774 l 0,-3.66841 -4.89121,0 0,-1.76627 16.71163,0 0,1.76627 z"
         id="path3067"
         inkscape:connector-curvature="0" />
      <path
         d="m 241.0665,310.24368 -30.59722,0 0,-1.79344 4.94555,0 0,-32.87978 -4.94555,0 0,-1.76627 19.29309,0 0,1.76627 -5.43467,0 0,32.87978 3.45102,0 c 1.92023,0 3.33777,-0.0996 4.25263,-0.29891 0.91481,-0.19927 1.92928,-0.78349 3.04342,-1.75268 1.11408,-0.96918 2.05609,-2.18745 2.82603,-3.65482 0.76988,-1.46735 1.45374,-3.08869 2.05159,-4.86403 l 1.68475,0 z"
         id="path3069"
         inkscape:connector-curvature="0" />
      <path
         d="m 257.58791,275.57046 0,32.87978 4.94555,0 0,1.79344 -18.64093,0 0,-1.79344 4.78251,0 0,-32.87978 -4.78251,0 0,-1.76627 18.64093,0 0,1.76627 z"
         id="path3071"
         inkscape:connector-curvature="0" />
      <path
         d="m 285.41345,300.05367 -11.46717,0 -1.54888,3.72275 c -0.59782,1.48548 -0.89673,2.56336 -0.89672,3.23363 -10e-6,0.96013 0.90577,1.44019 2.71734,1.44019 l 2.01083,0 0,1.79344 -11.7389,0 0,-1.79344 1.05976,0 c 1.3949,0 2.33691,-0.2355 2.82603,-0.70651 0.48912,-0.471 1.08693,-1.56699 1.79345,-3.28798 l 12.74431,-31.3309 1.60323,0 13.3693,35.32539 3.7771,0 0,1.79344 -17.93443,0 0,-1.79344 4.86403,0 z m -10.67914,-1.87497 9.94546,0 -4.78252,-12.63561 z"
         id="path3073"
         inkscape:connector-curvature="0" />
      <path
         d="m 317.01607,291.6571 0,16.79314 4.75534,0 0,1.79344 -18.2605,0 0,-1.79344 4.61947,0 0,-32.87978 -4.61947,0 0,-1.76627 18.2605,0 c 5.85131,3e-5 9.84579,0.89676 11.98346,2.69016 2.13761,1.79348 3.20642,3.71373 3.20646,5.76076 -4e-5,2.17389 -0.97828,4.03074 -2.93473,5.57054 -1.95651,1.53984 -4.89123,2.55432 -8.80417,3.04342 l 0,0.10869 c 2.95282,0.74276 5.15839,1.72553 6.61672,2.94831 1.45827,1.22282 2.37311,2.57696 2.74451,4.06242 0.37134,1.48549 0.57061,3.25629 0.59781,5.3124 0.0271,2.05612 0.19924,3.32874 0.5163,3.81785 0.31699,0.48913 0.90121,0.73369 1.75268,0.73369 0.94197,0 1.9655,-0.29891 3.07059,-0.89673 l 0,2.06518 c -1.77536,0.9239 -3.7409,1.38584 -5.89662,1.38584 -2.82606,0 -5.09051,-0.7065 -6.79334,-2.11952 -1.70289,-1.41301 -2.6132,-3.97636 -2.73093,-7.69006 -0.11777,-3.71369 -0.60236,-6.13211 -1.45377,-7.2553 -0.85146,-1.12314 -2.4094,-1.68473 -4.67382,-1.68474 z m 0,-16.08664 0,14.29319 3.45102,0 c 2.39124,2e-5 4.04881,-0.43928 4.97273,-1.31791 0.92387,-0.87858 1.38582,-2.88488 1.38584,-6.0189 -2e-5,-3.00715 -0.4348,-4.91835 -1.30432,-5.73358 -0.86957,-0.81517 -2.38222,-1.22277 -4.53796,-1.2228 z"
         id="path3075"
         inkscape:connector-curvature="0" />
      <path
         d="m 356.2816,275.57046 0,32.87978 4.94556,0 0,1.79344 -18.64094,0 0,-1.79344 4.78252,0 0,-32.87978 -4.78252,0 0,-1.76627 18.64094,0 0,1.76627 z"
         id="path3077"
         inkscape:connector-curvature="0" />
      <path
         d="m 404.02522,274.23896 0.21739,10.19002 -1.76627,0 c -1.64855,-6.23173 -4.63761,-9.34761 -8.96722,-9.34764 -1.97461,3e-5 -3.38762,0.86052 -4.23904,2.58147 -0.85145,1.72101 -1.27716,5.21731 -1.27715,10.48892 -10e-6,9.80054 0.30795,15.69263 0.92389,17.67628 0.61592,1.98366 2.01988,2.97549 4.21188,2.97548 4.49264,10e-6 7.78967,-3.21551 9.8911,-9.64654 l 1.79345,0 -0.57064,11.24977 -1.76627,0 c -0.5435,-0.74274 -1.21377,-1.57605 -2.01083,-2.49995 -2.37317,1.88402 -5.0271,2.82603 -7.9618,2.82603 -3.80429,0 -7.1919,-1.63946 -10.16284,-4.91838 -2.97096,-3.27891 -4.45644,-7.77157 -4.45644,-13.47799 0,-5.65204 1.48095,-10.23981 4.44285,-13.76331 2.96189,-3.52345 6.63482,-5.28519 11.0188,-5.28523 2.60863,4e-5 4.98177,0.8877 7.11943,2.663 0.79706,-0.57967 1.46733,-1.15031 2.01083,-1.71193 z"
         id="path3079"
         inkscape:connector-curvature="0" />
      <path
         d="m 428.01931,300.05367 -11.46716,0 -1.54888,3.72275 c -0.59783,1.48548 -0.89673,2.56336 -0.89672,3.23363 -1e-5,0.96013 0.90577,1.44019 2.71733,1.44019 l 2.01083,0 0,1.79344 -11.73889,0 0,-1.79344 1.05976,0 c 1.39489,0 2.3369,-0.2355 2.82603,-0.70651 0.48911,-0.471 1.08693,-1.56699 1.79344,-3.28798 l 12.74431,-31.3309 1.60323,0 13.3693,35.32539 3.7771,0 0,1.79344 -17.93443,0 0,-1.79344 4.86404,0 z m -10.67913,-1.87497 9.94545,0 -4.78251,-12.63561 z"
         id="path3081"
         inkscape:connector-curvature="0" />
      <path
         d="m 476.4966,310.24368 -30.59722,0 0,-1.79344 4.94556,0 0,-32.87978 -4.94556,0 0,-1.76627 19.2931,0 0,1.76627 -5.43468,0 0,32.87978 3.45102,0 c 1.92023,0 3.33778,-0.0996 4.25264,-0.29891 0.91481,-0.19927 1.92928,-0.78349 3.04341,-1.75268 1.11409,-0.96918 2.0561,-2.18745 2.82603,-3.65482 0.76989,-1.46735 1.45375,-3.08869 2.05159,-4.86403 l 1.68475,0 z"
         id="path3083"
         inkscape:connector-curvature="0" />
      <path
         d="m 506.19709,274.23896 0.21739,10.19002 -1.76627,0 c -1.64854,-6.23173 -4.63761,-9.34761 -8.96721,-9.34764 -1.97462,3e-5 -3.38763,0.86052 -4.23905,2.58147 -0.85144,1.72101 -1.27716,5.21731 -1.27715,10.48892 -1e-5,9.80054 0.30796,15.69263 0.9239,17.67628 0.61591,1.98366 2.01987,2.97549 4.21187,2.97548 4.49264,10e-6 7.78968,-3.21551 9.89111,-9.64654 l 1.79344,0 -0.57064,11.24977 -1.76627,0 c -0.54349,-0.74274 -1.21377,-1.57605 -2.01083,-2.49995 -2.37316,1.88402 -5.02709,2.82603 -7.9618,2.82603 -3.80428,0 -7.19189,-1.63946 -10.16284,-4.91838 -2.97096,-3.27891 -4.45643,-7.77157 -4.45643,-13.47799 0,-5.65204 1.48094,-10.23981 4.44285,-13.76331 2.96188,-3.52345 6.63481,-5.28519 11.0188,-5.28523 2.60862,4e-5 4.98176,0.8877 7.11942,2.663 0.79706,-0.57967 1.46734,-1.15031 2.01083,-1.71193 z"
         id="path3085"
         inkscape:connector-curvature="0" />
      <path
         d="m 523.2348,275.57046 0,32.87978 4.94556,0 0,1.79344 -18.64094,0 0,-1.79344 4.78252,0 0,-32.87978 -4.78252,0 0,-1.76627 18.64094,0 0,1.76627 z"
         id="path3087"
         inkscape:connector-curvature="0" />
      <path
         d="m 530.95206,291.87448 c 0,-5.45276 1.61229,-9.91372 4.83686,-13.38288 3.22457,-3.4691 7.09224,-5.20367 11.60303,-5.20371 4.18468,4e-5 7.93007,1.63044 11.23619,4.89121 3.30607,3.26084 4.95911,7.89842 4.95914,13.91277 -3e-5,5.63396 -1.5625,10.14926 -4.6874,13.54593 -3.12497,3.39667 -6.94282,5.095 -11.45358,5.095 -4.8731,0 -8.84041,-1.8025 -11.90194,-5.4075 -3.06153,-3.60499 -4.5923,-8.08859 -4.5923,-13.45082 z m 22.49956,0.16304 c -3e-5,-5.57957 -0.10419,-9.25703 -0.3125,-11.03239 -0.20835,-1.77529 -0.74276,-3.20642 -1.60323,-4.29339 -0.86051,-1.0869 -2.27805,-1.63037 -4.25263,-1.6304 -1.66665,3e-5 -2.99361,0.43933 -3.9809,1.31791 -0.98731,0.87863 -1.60324,2.28712 -1.84779,4.22546 -0.24457,1.93839 -0.36685,5.72454 -0.36684,11.35847 -10e-6,5.57961 0.10415,9.27065 0.3125,11.07315 0.20831,1.8025 0.76084,3.23816 1.65757,4.30698 0.89671,1.06882 2.30519,1.60323 4.22546,1.60322 1.59415,1e-5 2.89394,-0.43024 3.89938,-1.29073 1.00539,-0.86049 1.63491,-2.25992 1.88855,-4.19829 0.25359,-1.93836 0.3804,-5.75168 0.38043,-11.43999 z"
         id="path3089"
         inkscape:connector-curvature="0" />
    </g>
    <g
       transform="scale(1.0683901,0.93598775)"
       style="font-size:59.82984161px;font-style:normal;font-variant:normal;font-weight:bold;font-stretch:normal;text-align:start;line-height:125%;writing-mode:lr-tb;text-anchor:start;fill:#bb9028;fill-opacity:1;fill-rule:nonzero;stroke:none;font-family:Bodoni MT;-inkscape-font-specification:Bodoni MT Bold"
       id="text3058">
      <path
         d="m 270.96693,946.73429 0,36.78017 7.06974,0 0,1.92811 -23.63396,0 0,-1.92811 7.53716,0 0,-34.15092 -7.53716,0 0,-1.8989 4.4405,0 c 1.96705,4e-5 4.43074,-0.12656 7.39109,-0.37978 l 3.68093,-0.35057 z"
         id="path3092"
         inkscape:connector-curvature="0" />
      <path
         d="m 298.63239,969.46262 -0.11686,-0.11685 c -1.14909,1.63598 -2.88244,2.45397 -5.20005,2.45396 -3.09667,1e-5 -5.68696,-1.25618 -7.77087,-3.76858 -2.08392,-2.51237 -3.12588,-5.3461 -3.12588,-8.50122 0,-3.48615 1.2708,-6.53898 3.8124,-9.15852 2.5416,-2.61946 5.53601,-3.92921 8.98324,-3.92925 3.87568,4e-5 7.0892,1.52402 9.64056,4.57195 2.55131,3.04801 3.82697,7.28887 3.827,12.72261 -3e-5,5.04426 -1.19779,9.3046 -3.59329,12.78103 -2.39556,3.47645 -5.50682,6.03265 -9.33381,7.66862 -3.82702,1.63597 -6.99671,2.45396 -9.50909,2.45396 -0.68166,0 -1.02249,-0.32135 -1.02248,-0.96405 -10e-6,-0.60376 0.28239,-0.90563 0.8472,-0.90563 3.15508,-0.23371 5.91578,-1.6165 8.28211,-4.14836 2.3663,-2.53185 3.7929,-6.25174 4.27982,-11.15967 z m -3.71015,0 c 1.34382,2e-5 2.37604,-0.58426 3.09666,-1.75282 0.72059,-1.16854 1.08089,-3.99253 1.08091,-8.472 -2e-5,-4.45994 -0.2386,-7.43001 -0.71574,-8.91021 -0.47717,-1.48013 -1.40715,-2.22021 -2.78992,-2.22025 -1.36332,4e-5 -2.3225,0.53563 -2.87755,1.60676 -0.55508,1.07121 -0.83261,2.98958 -0.8326,5.75512 -1e-5,6.68024 0.20449,10.68253 0.61349,12.00687 0.40898,1.32437 1.21723,1.98655 2.42475,1.98653 z"
         id="path3094"
         inkscape:connector-curvature="0" />
      <path
         d="m 337.19459,972.76378 -0.90563,12.67879 -24.24744,0 0,-5.20006 c 1.14907,-1.09064 2.26893,-2.09365 3.35958,-3.00902 5.37533,-4.47943 8.84203,-7.77085 10.40011,-9.87426 1.55805,-2.10337 2.33709,-5.15134 2.33711,-9.14392 -2e-5,-6.17381 -1.90865,-9.26073 -5.72591,-9.26077 -1.51912,4e-5 -2.87756,0.37008 -4.07532,1.11013 -1.19777,0.74011 -1.79666,1.60679 -1.79665,2.60002 -10e-6,0.66222 0.5015,1.00791 1.50451,1.03709 1.003,0.0293 1.98166,0.36521 2.93599,1.00788 0.9543,0.64273 1.43146,1.75286 1.43147,3.33037 -1e-5,1.30491 -0.45769,2.36147 -1.37305,3.1697 -0.91537,0.80827 -1.8989,1.21239 -2.95059,1.21237 -1.24646,2e-5 -2.39553,-0.51122 -3.44723,-1.53372 -1.0517,-1.02246 -1.57754,-2.46854 -1.57754,-4.33825 0,-2.78502 1.08091,-5.16594 3.24273,-7.14277 2.16181,-1.97677 4.94686,-2.96516 8.35514,-2.9652 3.66145,4e-5 6.76298,1.04686 9.3046,3.14048 2.54157,2.09369 3.81237,4.61094 3.8124,7.55176 -3e-5,4.40157 -2.89219,8.58888 -8.6765,12.56193 l -11.71473,8.09222 0,0.11686 14.63611,0 c 1.20748,1e-5 2.0352,-0.26779 2.48317,-0.80338 0.44792,-0.53558 0.70111,-1.98166 0.75956,-4.33825 z"
         id="path3096"
         inkscape:connector-curvature="0" />
      <path
         d="m 354.43073,946.44216 c 3.66144,4e-5 6.78731,1.88432 9.37762,5.65286 2.59027,3.76861 3.88541,8.56454 3.88544,14.3878 -3e-5,2.86296 -0.61352,5.99371 -1.84047,9.39223 -1.227,3.39854 -2.91653,5.96449 -5.06859,7.69783 -2.1521,1.73336 -4.30905,2.60003 -6.47086,2.60003 -3.56409,0 -6.67049,-1.95245 -9.3192,-5.85736 -2.64872,-3.90491 -3.97307,-8.59371 -3.97307,-14.06644 0,-5.41427 1.30001,-10.06899 3.90004,-13.9642 2.60002,-3.89513 5.76971,-5.84271 9.50909,-5.84275 z m -0.23371,37.80264 c 1.16853,0 2.05955,-0.66705 2.67306,-2.00114 0.61347,-1.3341 0.97864,-5.63339 1.09552,-12.89789 l 0.17528,-8.06301 c -2e-5,-4.38204 -0.30189,-7.6345 -0.90563,-9.7574 -0.60377,-2.12284 -1.55808,-3.18427 -2.86295,-3.18431 -1.55808,4e-5 -2.57569,1.39256 -3.05284,4.17757 -0.47717,2.78508 -0.71575,7.81959 -0.71574,15.10353 -1e-5,5.58959 0.1704,9.50423 0.51124,11.74395 0.34082,2.23973 0.74007,3.61277 1.19777,4.11914 0.45767,0.50638 1.08576,0.75956 1.88429,0.75956 z"
         id="path3098"
         inkscape:connector-curvature="0" />
    </g>
  </g>
</svg>
