<?xml version="1.0" encoding="utf-8"?>
<!-- Generator: Adobe Illustrator 16.0.3, SVG Export Plug-In . SVG Version: 6.00 Build 0)  -->
<!DOCTYPE svg PUBLIC "-//W3C//DTD SVG 1.1//EN" "http://www.w3.org/Graphics/SVG/1.1/DTD/svg11.dtd">
<svg version="1.1" id="Escudo_Nob_Topper" xmlns="http://www.w3.org/2000/svg" xmlns:xlink="http://www.w3.org/1999/xlink" x="0px"
	 y="0px" width="294px" height="313px" viewBox="0 0 294 313" enable-background="new 0 0 294 313" xml:space="preserve">
<g>
	<g>
		<g>
			<path fill="#FFFFFF" d="M262.507,52.57l-0.464-6.332l-6.273,0.964c-11.913,1.83-22.531,2.622-31.976,2.622
				c-33.078-0.035-51.704-9.588-62.33-18.663c-5.308-4.556-8.622-9.06-10.592-12.358c-0.98-1.648-1.629-2.995-2.015-3.883
				c-0.194-0.44-0.323-0.772-0.396-0.97c-0.037-0.099-0.055-0.164-0.068-0.192c-4.053-7.711-5.661-10.372-5.661-10.372
				s-1.119,2.208-5.539,10.447c0,0-0.045,0.135-0.09,0.258c-0.607,1.65-3.998,9.863-13.777,17.945
				c-10.67,8.787-29.021,17.755-61.02,17.791c-9.431,0-20.04-0.797-31.951-2.627l-6.271-0.96l-0.464,6.328
				c-0.453,6.192-0.68,12.338-0.68,18.428c-0.078,83.938,42.93,156.995,117.712,190.77l2.458,1.13l2.36-1.134
				c74.782-33.771,117.79-106.828,117.714-190.76C263.184,64.913,262.96,58.765,262.507,52.57z"/>
		</g>
		<g>
			<path fill="none" stroke="#000000" stroke-width="3" stroke-miterlimit="10" d="M262.507,52.57l-0.464-6.332l-6.273,0.964
				c-11.913,1.83-22.531,2.622-31.976,2.622c-33.078-0.035-51.704-9.588-62.33-18.663c-5.308-4.556-8.622-9.06-10.592-12.358
				c-0.98-1.648-1.629-2.995-2.015-3.883c-0.194-0.44-0.323-0.772-0.396-0.97c-0.037-0.099-0.055-0.164-0.068-0.192
				c-4.053-7.711-5.661-10.372-5.661-10.372s-1.119,2.208-5.539,10.447c0,0-0.045,0.135-0.09,0.258
				c-0.607,1.65-3.998,9.863-13.777,17.945c-10.67,8.787-29.021,17.755-61.02,17.791c-9.431,0-20.04-0.797-31.951-2.627l-6.271-0.96
				l-0.464,6.328c-0.453,6.192-0.68,12.338-0.68,18.428c-0.078,83.938,42.93,156.995,117.712,190.77l2.458,1.13l2.36-1.134
				c74.782-33.771,117.79-106.828,117.714-190.76C263.184,64.913,262.96,58.765,262.507,52.57z"/>
		</g>
	</g>
	<g>
		<path fill="#FF0600" d="M143.066,251.282c0-23.771-0.253-231.587-0.253-231.587S127.519,70.117,33.85,55.711
			C27.559,141.789,68.236,217.434,143.066,251.282z"/>
		<g>
			<path fill="#070606" d="M143.052,251.282c0-23.771-0.239-231.587-0.239-231.587s15.791,50.422,109.456,36.016
				C258.566,141.789,217.885,217.434,143.052,251.282z"/>
		</g>
		<g>
			<path fill="#FFFFFF" d="M76.474,115.573V74.97h15.369l12.333,28.875V74.97h9.24v40.604H98.552l-12.649-29.81v29.81H76.474z"/>
			<path fill="#FFFFFF" d="M122.028,130.721c0-6.499,1.808-11.548,5.426-15.156c3.624-3.604,8.692-5.41,15.197-5.41
				c6.493,0,11.551,1.806,15.168,5.41c3.617,3.608,5.43,8.657,5.43,15.156c0,6.474-1.813,11.529-5.43,15.161
				c-3.617,3.639-8.675,5.454-15.168,5.454c-6.492,0-11.553-1.815-15.182-5.454C123.842,142.25,122.028,137.194,122.028,130.721z
				 M133.572,130.666c0,4.109,0.756,7.206,2.284,9.279c1.521,2.074,3.788,3.112,6.795,3.112c2.991,0,5.239-1.038,6.746-3.112
				c1.5-2.073,2.252-5.17,2.252-9.279c0-4.132-0.752-7.234-2.252-9.31c-1.506-2.072-3.754-3.112-6.746-3.112
				c-3.007,0-5.274,1.04-6.795,3.124C134.328,123.453,133.572,126.554,133.572,130.666z"/>
			<path fill="#FFFFFF" d="M172.278,185.654v-38.872h15.988c6.442,0,11.195,0.818,14.268,2.45c3.08,1.639,4.615,4.165,4.615,7.59
				c0,2.285-0.758,4.15-2.273,5.602c-1.512,1.445-3.79,2.496-6.836,3.149c3.506,0.581,6.11,1.647,7.811,3.201
				c1.693,1.554,2.537,3.64,2.537,6.259c0,3.551-1.385,6.205-4.15,7.972c-2.764,1.769-6.936,2.649-12.529,2.649H172.278z
				 M183.698,162.543h4.568c2.547,0,4.41-0.358,5.582-1.07c1.179-0.711,1.764-1.823,1.764-3.331c0-1.443-0.616-2.52-1.85-3.243
				c-1.235-0.72-3.07-1.081-5.496-1.081h-4.568V162.543z M183.698,178.592h4.568c2.87,0,4.945-0.373,6.217-1.119
				c1.275-0.747,1.908-1.966,1.908-3.651c0-1.565-0.652-2.723-1.968-3.466c-1.304-0.746-3.36-1.123-6.157-1.123h-4.568V178.592z"/>
		</g>
	</g>
	<g>
		<g>
			<polygon fill="#FFFFFF" stroke="#000000" stroke-width="3" stroke-miterlimit="10" points="270.892,185.328 276.978,199.654 
				290.588,199.64 280.743,209.243 283.071,222.802 270.892,216.398 258.72,222.802 261.04,209.243 251.188,199.64 264.8,199.654 
							"/>
			<polygon fill="#FFFFFF" stroke="#000000" stroke-width="3" stroke-miterlimit="10" points="225.756,233.173 231.841,247.495 
				245.451,247.483 235.605,257.083 237.936,270.642 225.756,264.239 213.584,270.642 215.903,257.083 206.051,247.483 
				219.665,247.495 			"/>
			<polygon fill="#FFFFFF" stroke="#000000" stroke-width="3" stroke-miterlimit="10" points="180.621,272.298 186.705,286.619 
				200.315,286.608 190.47,296.209 192.798,309.768 180.621,303.364 168.449,309.768 170.768,296.209 160.915,286.608 
				174.527,286.619 			"/>
		</g>
		<g>
			<polygon fill="#FFFFFF" stroke="#000000" stroke-width="3" stroke-miterlimit="10" points="24.106,185.332 18.02,199.654 
				4.412,199.644 14.255,209.243 11.927,222.802 24.106,216.398 36.278,222.802 33.96,209.243 43.81,199.644 30.197,199.654 			"/>
			<polygon fill="#FFFFFF" stroke="#000000" stroke-width="3" stroke-miterlimit="10" points="69.244,233.173 63.159,247.495 
				49.547,247.483 59.393,257.083 57.062,270.642 69.244,264.243 81.416,270.642 79.097,257.083 88.947,247.483 75.333,247.495 			
				"/>
			<polygon fill="#FFFFFF" stroke="#000000" stroke-width="3" stroke-miterlimit="10" points="114.379,272.298 108.293,286.619 
				94.685,286.608 104.53,296.209 102.202,309.768 114.379,303.368 126.551,309.768 124.232,296.209 134.083,286.608 
				120.473,286.619 			"/>
		</g>
	</g>
</g>
</svg>
