<?xml version="1.0" encoding="UTF-8" standalone="no"?>
<svg
   xmlns:dc="http://purl.org/dc/elements/1.1/"
   xmlns:cc="http://creativecommons.org/ns#"
   xmlns:rdf="http://www.w3.org/1999/02/22-rdf-syntax-ns#"
   xmlns:svg="http://www.w3.org/2000/svg"
   xmlns="http://www.w3.org/2000/svg"
   viewBox="0 0 384.00293 384"
   height="384"
   width="384.00293"
   xml:space="preserve"
   id="svg2"
   version="1.1"><metadata
     id="metadata8"><rdf:RDF><cc:Work
         rdf:about=""><dc:format>image/svg+xml</dc:format><dc:type
           rdf:resource="http://purl.org/dc/dcmitype/StillImage" /></cc:Work></rdf:RDF></metadata><defs
     id="defs6" /><g
     transform="matrix(1.3333333,0,0,-1.3333333,-29.331733,383.99999)"
     id="g10"><g
       transform="scale(0.1)"
       id="g12"><path
         id="path14"
         style="fill:#ed192d;fill-opacity:1;fill-rule:nonzero;stroke:none"
         d="M 3100.01,1439.99 C 3100.01,644.699 2455.29,0 1660,0 864.707,0 219.988,644.699 219.988,1439.99 219.988,2235.29 864.707,2880 1660,2880 c 795.29,0 1440.01,-644.71 1440.01,-1440.01" /><path
         id="path16"
         style="fill:#ffffff;fill-opacity:1;fill-rule:nonzero;stroke:none"
         d="M 281.543,1439.99 C 281.543,679.922 899.922,61.5391 1660,61.5391 c 760.08,0 1378.45,618.3829 1378.45,1378.4509 0,760.08 -618.37,1378.46 -1378.45,1378.46 -760.078,0 -1378.457,-618.38 -1378.457,-1378.46" /><path
         id="path18"
         style="fill:#ed192d;fill-opacity:1;fill-rule:nonzero;stroke:none"
         d="m 2520.77,1246.78 v 695.39 c 143.63,-118.02 145.28,-383.08 145.28,-383.08 -12.55,-222.57 -145.28,-312.31 -145.28,-312.31 z m 355.1,396.85 c -11.46,460.6 -561.66,842.75 -561.66,842.75 V 402.59 c 90.82,49.191 206.56,159.832 206.56,159.832 v 336.469 c 392.78,276.159 355.1,744.739 355.1,744.739 v 0" /><path
         id="path20"
         style="fill:#ed192d;fill-opacity:1;fill-rule:nonzero;stroke:none"
         d="m 1435.06,488.43 c -428.87,104.261 -747.372,490.59 -747.372,951.56 0,460.93 318.502,847.31 747.372,951.55 v 247.28 C 874.746,2530.45 451.531,2031.95 451.531,1439.99 451.531,848.031 874.746,355.148 1435.06,246.789 v 241.641 0" /><path
         id="path22"
         style="fill:#ed192d;fill-opacity:1;fill-rule:nonzero;stroke:none"
         d="m 803.406,1439.99 c 0,-271.75 125.61,-514.06 321.854,-672.342 v 300.042 c -83.58,88.52 -115.92,175.25 -129.408,297.5 H 1238.4 v -78.67 -368.399 -227.75 c 61.24,-35.101 127.18,-62.949 196.66,-82.312 V 2271.93 C 1070.8,2170.51 803.406,1836.56 803.406,1439.99 v 0" /><path
         id="path24"
         style="fill:#ffffff;fill-opacity:1;fill-rule:nonzero;stroke:none"
         d="m 1238.4,1566.81 v 395.1 c -119.59,-98.32 -204.62,-236.97 -234.67,-395.1 h 234.67 v 0" /><path
         id="path26"
         style="fill:#ed192d;fill-opacity:1;fill-rule:nonzero;stroke:none"
         d="m 1954.64,1175.87 c 0,0 154.97,64.21 183.72,276.69 28.82,212.49 28.82,462.63 28.82,469.29 0,6.63 -10.37,351.19 -10.37,351.19 0,0 13.3,349.48 -274.45,380.47 -242.48,26.12 -314.3,6.66 -314.3,6.66 V 221.871 c 0,0 139.68,-9.75 208.28,3.527 v 772.434 c 0,0 133.25,-316.402 195.96,-742.723 0,0 174.55,46.45 231.12,87.262 0,0 -55.45,436.57 -248.78,833.499 v 0" /><path
         id="path28"
         style="fill:#ffffff;fill-opacity:1;fill-rule:nonzero;stroke:none"
         d="m 1943.67,1652.5 c 0,-44.32 0.08,-124.71 -35.28,-155.68 -35.46,-31 -55.08,-58.32 -123.7,-40.61 v 917.1 c 0,0 90.47,-2.16 125.91,-35.36 35.41,-33.22 30.97,-73.07 33.15,-104.06 2.26,-30.9 -0.08,-527.28 -0.08,-581.39 v 0" /></g></g></svg>