<?xml version="1.0" encoding="UTF-8" standalone="no"?>
<svg
   xmlns:dc="http://purl.org/dc/elements/1.1/"
   xmlns:cc="http://creativecommons.org/ns#"
   xmlns:rdf="http://www.w3.org/1999/02/22-rdf-syntax-ns#"
   xmlns:svg="http://www.w3.org/2000/svg"
   xmlns="http://www.w3.org/2000/svg"
   xmlns:sodipodi="http://sodipodi.sourceforge.net/DTD/sodipodi-0.dtd"
   xmlns:inkscape="http://www.inkscape.org/namespaces/inkscape"
   inkscape:version="1.0 (4035a4f, 2020-05-01)"
   sodipodi:docname="Logo Havre Athletic Club - 1990s.svg.2021_09_20_13_05_14.0.svg"
   viewBox="0 0 563.59467 700"
   height="700"
   width="563.59467"
   xml:space="preserve"
   id="svg833"
   version="1.1"><metadata
     id="metadata839"><rdf:RDF><cc:Work
         rdf:about=""><dc:format>image/svg+xml</dc:format><dc:type
           rdf:resource="http://purl.org/dc/dcmitype/StillImage" /><dc:title /></cc:Work></rdf:RDF></metadata><defs
     id="defs837" /><sodipodi:namedview
     inkscape:document-rotation="0"
     inkscape:current-layer="g841"
     inkscape:window-maximized="0"
     inkscape:window-y="0"
     inkscape:window-x="0"
     inkscape:cy="360.74189"
     inkscape:cx="332.01339"
     inkscape:zoom="0.7122483"
     showgrid="false"
     id="namedview835"
     inkscape:window-height="900"
     inkscape:window-width="1440"
     inkscape:pageshadow="2"
     inkscape:pageopacity="0"
     guidetolerance="10"
     gridtolerance="10"
     objecttolerance="10"
     borderopacity="1"
     bordercolor="#666666"
     pagecolor="#ffffff" /><g
     transform="matrix(1.3333333,0,0,-1.3333333,-92.547864,775.21198)"
     inkscape:label="Logo"
     inkscape:groupmode="layer"
     id="g841"><path
       sodipodi:nodetypes="cccccc"
       d="M 492.1069,581.409 V 184.09685 L 280.75709,56.408987 69.4109,184.09685 v 397.31194 z"
       style="fill:#30489c;fill-opacity:1;fill-rule:evenodd;stroke:none;stroke-width:0.0926043"
       id="path847" /><path
       d="M 69.4109,581.409 H 169.84218 V 123.41975 L 69.4109,184.09685 Z m 323.36773,0 H 492.1069 V 184.09685 l -99.32827,-60.0097 V 581.409"
       style="fill:#72bcc3;fill-opacity:1;fill-rule:evenodd;stroke:none;stroke-width:0.0926043"
       id="path849" /><g
       transform="matrix(0.92604273,0,0,0.92604273,5.133441,42.999425)"
       id="g1211"><g
         id="g1167"><g
           id="g1129"><path
             id="path881"
             style="fill:#231f20;fill-opacity:1;fill-rule:nonzero;stroke:none;stroke-width:0.1"
             d="m 241.223,566.338 v -6.714 c -0.225,-0.094 -0.514,-0.29 -0.87,-0.597 -0.355,-0.308 -0.523,-0.718 -0.523,-1.247 v -5.013 h 4.599 v 4.868 c 0,0.743 -0.188,1.247 -0.552,1.52 -0.365,0.282 -0.673,0.435 -0.916,0.469 v 6.714 h 13.745 v -6.56 c -0.448,-0.017 -1.009,-0.205 -1.682,-0.572 -0.681,-0.367 -1.019,-1.136 -1.019,-2.297 v -15.27 c 0,-1.23 0.338,-2.033 1.019,-2.409 0.673,-0.375 1.234,-0.563 1.682,-0.563 v -6.508 h -13.745 v 6.55 c 0.243,0 0.551,0.112 0.916,0.316 0.364,0.205 0.552,0.65 0.552,1.324 v 6.567 h -4.599 v -6.456 c 0,-0.726 0.168,-1.195 0.523,-1.418 0.356,-0.221 0.645,-0.333 0.87,-0.333 v -6.55 h -13.624 v 6.508 c 0.449,0 1.009,0.196 1.681,0.589 0.664,0.401 1,1.247 1,2.537 v 14.757 c 0,1.315 -0.298,2.178 -0.887,2.596 -0.598,0.427 -1.196,0.632 -1.794,0.632 v 6.56 h 13.624" /><path
             id="path885"
             style="fill:#231f20;fill-opacity:1;fill-rule:nonzero;stroke:none;stroke-width:0.1"
             d="m 278.516,566.338 4.54,-23.008 c 0.645,-3.109 1.655,-4.663 3.028,-4.663 h 0.682 v -6.508 h -15.138 v 6.508 h 0.327 c 1.196,0 1.795,0.409 1.795,1.229 0,0.111 -0.038,0.428 -0.122,0.948 -0.083,0.522 -0.149,0.94 -0.206,1.264 h -4.438 c -0.056,-0.213 -0.121,-0.52 -0.206,-0.904 -0.084,-0.394 -0.121,-0.709 -0.121,-0.949 0,-0.375 0.112,-0.734 0.337,-1.076 0.224,-0.341 0.579,-0.512 1.065,-0.512 h 0.393 v -6.508 h -0.967 -11.097 v 6.508 h 0.346 c 0.747,0 1.373,0.265 1.878,0.794 0.505,0.529 0.849,1.17 1.037,1.922 l 5.597,24.955 z m -8.859,-19.045 h 3.205 l -1.467,8.019 z" /><path
             id="path889"
             style="fill:#231f20;fill-opacity:1;fill-rule:nonzero;stroke:none;stroke-width:0.1"
             d="m 310.865,566.338 v -6.457 c -0.317,0 -0.747,-0.137 -1.28,-0.41 -0.532,-0.273 -0.915,-0.872 -1.13,-1.794 l -5.494,-25.518 h -10.756 l -5.382,25.937 c -0.131,0.64 -0.467,1.084 -1.01,1.341 -0.533,0.256 -0.962,0.401 -1.288,0.444 v 6.457 h 13.623 v -6.457 c -0.224,-0.052 -0.514,-0.188 -0.869,-0.427 -0.355,-0.231 -0.524,-0.598 -0.524,-1.11 0,-0.376 0.01,-0.649 0.047,-0.812 l 1.841,-10.052 1.888,10.052 c 0.047,0.163 0.065,0.402 0.065,0.709 0,0.547 -0.139,0.939 -0.439,1.187 -0.289,0.239 -0.532,0.393 -0.739,0.453 v 6.457 h 11.447" /><path
             id="path893"
             style="fill:#231f20;fill-opacity:1;fill-rule:nonzero;stroke:none;stroke-width:0.1"
             d="m 342.038,540.921 v -1.426 c 0,-5.235 -2.317,-7.848 -6.943,-7.848 -2.42,0 -4.102,0.674 -5.037,2.033 -0.944,1.358 -1.41,2.74 -1.41,4.167 v 5.278 c 0,1.247 -0.159,2.229 -0.486,2.955 -0.328,0.725 -1.056,1.084 -2.196,1.084 h -1.289 v -5.525 c 0,-1.982 0.989,-2.972 2.971,-2.972 v -6.508 h -15.185 v 6.508 c 0.58,0 1.178,0.222 1.775,0.674 0.608,0.445 0.907,1.35 0.907,2.716 v 14.595 c 0,1.307 -0.336,2.161 -1.009,2.546 -0.664,0.384 -1.224,0.58 -1.673,0.58 v 6.56 h 14.064 c 3.999,0 7.064,-0.616 9.194,-1.837 1.206,-0.726 2.121,-1.683 2.748,-2.861 0.625,-1.179 0.943,-2.451 0.943,-3.809 0,-2.562 -0.71,-4.441 -2.121,-5.636 -1.411,-1.188 -2.598,-1.93 -3.541,-2.213 0.748,-0.187 1.681,-0.854 2.803,-2.007 1.121,-1.152 1.682,-3.185 1.682,-6.08 0,-0.256 -0.01,-0.598 -0.028,-1.025 -0.019,-0.427 -0.028,-0.717 -0.028,-0.863 0,-0.862 0.224,-1.289 0.673,-1.289 0.299,0 0.448,0.342 0.448,1.025 v 1.178 z m -17.361,11.991 h 1.672 c 1.655,0 2.476,1.195 2.476,3.586 0,1.102 -0.14,1.931 -0.412,2.495 -0.27,0.554 -0.924,0.836 -1.943,0.836 h -1.793 v -6.917" /><path
             id="path897"
             style="fill:#231f20;fill-opacity:1;fill-rule:nonzero;stroke:none;stroke-width:0.1"
             d="m 368.23,566.338 v -14.255 h -6.392 v 3.689 c 0,1.547 -0.392,2.614 -1.168,3.212 -0.785,0.598 -1.57,0.897 -2.364,0.897 h -2.915 v -7.798 c 0.738,0.06 1.205,0.274 1.392,0.633 0.196,0.366 0.29,0.922 0.29,1.682 v 1.179 h 3.475 V 543.74 h -3.475 v 0.974 c 0,0.768 -0.094,1.348 -0.28,1.733 -0.188,0.393 -0.655,0.632 -1.402,0.717 v -8.642 h 2.354 c 1.598,0 2.682,0.444 3.243,1.324 0.57,0.879 0.85,2.126 0.85,3.74 v 3.894 h 6.392 v -15.321 h -24.941 v 6.516 c 0.552,0 1.142,0.214 1.758,0.649 0.617,0.427 0.924,1.307 0.924,2.622 v 14.809 c 0,1.264 -0.335,2.084 -1.009,2.459 -0.664,0.376 -1.223,0.564 -1.673,0.564 v 6.56 h 24.941" /></g><g
           id="g1139"><path
             id="path901"
             style="fill:#231f20;fill-opacity:1;fill-rule:nonzero;stroke:none;stroke-width:0.1"
             d="m 212.252,521.563 4.482,-23.008 c 0.637,-3.109 1.633,-4.663 2.989,-4.663 h 0.673 v -6.507 h -14.941 v 6.507 h 0.322 c 1.181,0 1.772,0.41 1.772,1.23 0,0.111 -0.037,0.428 -0.12,0.948 -0.084,0.521 -0.149,0.939 -0.203,1.264 h -4.381 c -0.056,-0.213 -0.12,-0.521 -0.203,-0.905 -0.083,-0.393 -0.12,-0.709 -0.12,-0.949 0,-0.375 0.11,-0.734 0.332,-1.075 0.221,-0.342 0.572,-0.513 1.051,-0.513 h 0.388 v -6.507 h -11.906 v 6.507 h 0.341 c 0.738,0 1.355,0.265 1.854,0.794 0.497,0.53 0.838,1.171 1.023,1.922 l 5.524,24.955 z m -8.743,-19.045 h 3.163 l -1.448,8.019 z" /><path
             id="path905"
             style="fill:#231f20;fill-opacity:1;fill-rule:nonzero;stroke:none;stroke-width:0.1"
             d="m 224.039,487.385 v 6.507 c 1.964,0 2.942,0.991 2.942,2.972 v 18.19 c -0.488,0 -0.978,-0.204 -1.475,-0.614 -0.499,-0.419 -0.748,-1.281 -0.748,-2.613 v -4.347 h -6.262 v 14.083 H 244.9 V 507.48 h -6.206 v 4.347 c 0,1.357 -0.277,2.229 -0.84,2.63 -0.562,0.402 -1.033,0.597 -1.41,0.597 v -18.19 c 0,-1.981 0.968,-2.972 2.913,-2.972 v -6.507 h -15.318" /><path
             id="path909"
             style="fill:#231f20;fill-opacity:1;fill-rule:nonzero;stroke:none;stroke-width:0.1"
             d="m 260.404,521.563 v -6.713 c -0.221,-0.095 -0.508,-0.29 -0.858,-0.598 -0.351,-0.307 -0.516,-0.717 -0.516,-1.247 v -5.013 h 4.537 v 4.868 c 0,0.743 -0.185,1.247 -0.544,1.52 -0.359,0.282 -0.664,0.436 -0.903,0.47 v 6.713 h 13.566 v -6.559 c -0.443,-0.018 -0.997,-0.205 -1.661,-0.573 -0.673,-0.367 -1.004,-1.136 -1.004,-2.297 v -15.27 c 0,-1.23 0.331,-2.032 1.004,-2.407 0.664,-0.377 1.218,-0.565 1.661,-0.565 v -6.507 H 262.12 v 6.55 c 0.239,0 0.544,0.111 0.903,0.316 0.359,0.206 0.544,0.649 0.544,1.324 v 6.567 h -4.537 v -6.456 c 0,-0.726 0.165,-1.195 0.516,-1.418 0.35,-0.222 0.637,-0.333 0.858,-0.333 v -6.55 h -13.447 v 6.507 c 0.443,0 0.996,0.197 1.66,0.589 0.656,0.402 0.987,1.248 0.987,2.537 v 14.757 c 0,1.316 -0.295,2.178 -0.875,2.596 -0.591,0.428 -1.181,0.633 -1.772,0.633 v 6.559 h 13.447" /><path
             id="path913"
             style="fill:#231f20;fill-opacity:1;fill-rule:nonzero;stroke:none;stroke-width:0.1"
             d="m 301.638,503.175 v -15.79 H 278.84 v 6.507 c 0.443,0 0.996,0.205 1.651,0.615 0.664,0.418 0.996,1.298 0.996,2.665 v 15.167 c 0,1.093 -0.332,1.811 -0.996,2.152 -0.655,0.334 -1.208,0.504 -1.651,0.513 v 6.559 h 15.273 v -6.551 c -1.992,0 -2.988,-0.982 -2.988,-2.929 v -18.088 h 1.328 c 0.94,0 1.632,0.265 2.066,0.802 0.433,0.539 0.645,1.726 0.645,3.562 v 4.816 h 6.474" /><path
             id="path917"
             style="fill:#231f20;fill-opacity:1;fill-rule:nonzero;stroke:none;stroke-width:0.1"
             d="m 329.416,521.563 v -14.254 h -6.309 v 3.689 c 0,1.546 -0.387,2.614 -1.153,3.211 -0.774,0.598 -1.549,0.897 -2.333,0.897 h -2.877 v -7.797 c 0.729,0.06 1.189,0.273 1.374,0.632 0.193,0.367 0.286,0.922 0.286,1.682 v 1.179 h 3.431 v -11.837 h -3.431 v 0.974 c 0,0.768 -0.093,1.349 -0.277,1.733 -0.185,0.393 -0.645,0.632 -1.383,0.717 v -8.641 h 2.324 c 1.577,0 2.647,0.443 3.2,1.323 0.562,0.879 0.839,2.126 0.839,3.74 v 3.895 h 6.309 V 487.385 H 304.8 v 6.516 c 0.544,0 1.125,0.213 1.735,0.649 0.608,0.427 0.912,1.307 0.912,2.622 v 14.808 c 0,1.264 -0.331,2.084 -0.996,2.46 -0.655,0.376 -1.208,0.564 -1.651,0.564 v 6.559 h 24.616" /><path
             id="path921"
             style="fill:#231f20;fill-opacity:1;fill-rule:nonzero;stroke:none;stroke-width:0.1"
             d="m 341.091,487.385 v 6.507 c 1.964,0 2.942,0.991 2.942,2.972 v 18.19 c -0.488,0 -0.978,-0.204 -1.475,-0.614 -0.499,-0.419 -0.747,-1.281 -0.747,-2.613 v -4.347 h -6.262 v 14.083 h 26.404 V 507.48 h -6.207 v 4.347 c 0,1.357 -0.276,2.229 -0.839,2.63 -0.562,0.402 -1.033,0.597 -1.411,0.597 v -18.19 c 0,-1.981 0.968,-2.972 2.914,-2.972 v -6.507 h -15.319" /><path
             id="path925"
             style="fill:#231f20;fill-opacity:1;fill-rule:nonzero;stroke:none;stroke-width:0.1"
             d="m 380.51,521.563 v -6.559 c -0.443,-0.009 -0.996,-0.179 -1.67,-0.522 -0.664,-0.341 -0.995,-1.075 -0.995,-2.186 v -15.175 c 0,-1.307 0.304,-2.17 0.912,-2.596 0.609,-0.419 1.19,-0.633 1.753,-0.633 v -6.507 h -14.84 v 6.507 c 0.443,0 0.996,0.197 1.651,0.599 0.665,0.4 0.996,1.263 0.996,2.578 v 14.911 c 0,1.264 -0.331,2.093 -0.996,2.46 -0.655,0.376 -1.208,0.564 -1.651,0.564 v 6.559 h 14.84" /><path
             id="path929"
             style="fill:#231f20;fill-opacity:1;fill-rule:nonzero;stroke:none;stroke-width:0.1"
             d="m 403.367,521.431 v -13.55 h -7.045 v 3.046 c 0,2.528 -0.642,3.791 -1.928,3.791 -1.021,0 -1.664,-0.546 -1.919,-1.639 -0.198,-1.161 -0.293,-3.767 -0.293,-7.831 0,-3.289 0.038,-5.748 0.113,-7.388 0.085,-1.204 0.218,-2.126 0.407,-2.75 0.188,-0.623 0.7,-0.939 1.531,-0.939 0.88,0 1.447,0.427 1.702,1.281 0.255,0.854 0.387,2.015 0.387,3.484 v 2.093 h 7.12 v -2.093 c 0,-4.252 -0.937,-9.397 -5.285,-11.358 -1.455,-0.658 -2.912,-0.991 -4.377,-0.991 -2.062,0 -3.991,0.53 -5.797,1.598 -1.796,1.058 -3.195,2.442 -4.197,4.142 -1.854,3.185 -2.78,7.506 -2.78,12.963 0,4.202 0.869,7.755 2.619,10.658 0.993,1.682 2.297,3.083 3.886,4.185 1.598,1.101 3.346,1.656 5.238,1.656 0.747,0 1.38,-0.085 1.91,-0.264 0.52,-0.179 1.134,-0.427 1.853,-0.743 0.718,-0.325 1.22,-0.478 1.512,-0.478 0.322,0 0.596,0.145 0.814,0.426 0.217,0.283 0.359,0.513 0.435,0.701 h 4.094" /></g><g
           id="g1145"><path
             id="path933"
             style="fill:#231f20;fill-opacity:1;fill-rule:nonzero;stroke:none;stroke-width:0.1"
             d="m 266.69,479.345 v -13.549 h -7.045 v 3.045 c 0,2.528 -0.642,3.791 -1.928,3.791 -1.021,0 -1.665,-0.546 -1.919,-1.639 -0.199,-1.161 -0.294,-3.766 -0.294,-7.831 0,-3.288 0.038,-5.748 0.114,-7.388 0.085,-1.203 0.217,-2.126 0.406,-2.75 0.189,-0.623 0.7,-0.939 1.531,-0.939 0.88,0 1.448,0.428 1.703,1.281 0.255,0.854 0.387,2.016 0.387,3.485 v 2.092 h 7.119 v -2.092 c 0,-4.253 -0.936,-9.397 -5.284,-11.359 -1.456,-0.657 -2.913,-0.991 -4.378,-0.991 -2.061,0 -3.99,0.53 -5.796,1.598 -1.797,1.058 -3.196,2.442 -4.197,4.142 -1.854,3.185 -2.78,7.506 -2.78,12.964 0,4.201 0.869,7.754 2.618,10.658 0.994,1.682 2.298,3.083 3.886,4.184 1.599,1.101 3.347,1.657 5.239,1.657 0.747,0 1.38,-0.086 1.909,-0.265 0.52,-0.179 1.135,-0.426 1.854,-0.743 0.718,-0.324 1.219,-0.478 1.512,-0.478 0.321,0 0.596,0.145 0.814,0.427 0.217,0.282 0.359,0.512 0.435,0.7 h 4.094" /><path
             id="path937"
             style="fill:#231f20;fill-opacity:1;fill-rule:nonzero;stroke:none;stroke-width:0.1"
             d="m 293.636,460.958 v -15.79 h -23.373 v 6.507 c 0.455,0 1.021,0.205 1.693,0.615 0.68,0.418 1.021,1.298 1.021,2.665 v 15.166 c 0,1.093 -0.341,1.812 -1.021,2.153 -0.672,0.333 -1.238,0.504 -1.693,0.513 v 6.558 h 15.658 v -6.55 c -2.042,0 -3.064,-0.982 -3.064,-2.929 v -18.088 h 1.363 c 0.963,0 1.673,0.265 2.117,0.802 0.444,0.538 0.662,1.726 0.662,3.562 v 4.816 h 6.637" /><path
             id="path941"
             style="fill:#231f20;fill-opacity:1;fill-rule:nonzero;stroke:none;stroke-width:0.1"
             d="m 307.883,479.345 v -6.456 c -0.274,-0.034 -0.624,-0.188 -1.029,-0.47 -0.408,-0.273 -0.616,-0.785 -0.616,-1.529 v -16.396 c 0,-1.392 0.814,-2.093 2.43,-2.093 1.513,0 2.27,0.786 2.27,2.349 v 15.679 c 0,1.034 -0.227,1.7 -0.681,2.007 -0.444,0.299 -0.823,0.453 -1.125,0.453 v 6.456 h 11.781 v -6.507 c -0.586,0 -1.182,-0.188 -1.768,-0.573 -0.596,-0.384 -0.889,-1.186 -0.889,-2.399 v -15.535 c 0,-1.972 -0.463,-3.706 -1.38,-5.184 -0.919,-1.486 -2.213,-2.63 -3.886,-3.442 -1.683,-0.802 -3.613,-1.204 -5.797,-1.204 -2.25,0 -4.179,0.436 -5.814,1.299 -1.626,0.863 -2.855,2.016 -3.678,3.467 -0.822,1.452 -1.23,3.023 -1.23,4.714 v 15.731 c 0,1.315 -0.339,2.169 -1.02,2.553 -0.69,0.385 -1.258,0.573 -1.712,0.573 v 6.507 h 14.144" /><path
             id="path945"
             style="fill:#231f20;fill-opacity:1;fill-rule:nonzero;stroke:none;stroke-width:0.1"
             d="m 346.442,462.692 c 0.841,-0.256 1.9,-0.974 3.157,-2.135 1.267,-1.161 1.9,-3.066 1.9,-5.705 0,-3.672 -1.058,-6.217 -3.185,-7.635 -2.061,-1.366 -4.823,-2.049 -8.273,-2.049 h -15.082 v 6.516 c 0.586,0 1.193,0.221 1.797,0.666 0.615,0.444 0.917,1.349 0.917,2.715 v 14.596 c 0,1.307 -0.34,2.152 -1.021,2.544 -0.672,0.385 -1.239,0.582 -1.693,0.582 v 6.558 h 14.126 c 4.444,0 7.678,-0.973 9.692,-2.912 1.73,-1.683 2.6,-3.664 2.6,-5.961 0,-2.724 -0.614,-4.654 -1.853,-5.782 -1.229,-1.127 -2.26,-1.793 -3.082,-1.998 z m -9.125,3.228 h 2.146 c 1.334,0 1.995,1.127 1.995,3.373 0,1.213 -0.142,2.084 -0.416,2.63 -0.274,0.539 -0.935,0.812 -1.967,0.812 h -1.758 z m 0,-6.507 v -7.883 h 1.692 c 0.955,0 1.608,0.248 1.948,0.743 0.331,0.496 0.501,1.597 0.501,3.288 0,1.281 -0.131,2.237 -0.396,2.887 -0.274,0.64 -0.937,0.965 -1.987,0.965 h -1.758" /></g></g><g
         id="g1122"><g
           id="g1100"><path
             id="path883"
             style="fill:#b68a34;fill-opacity:1;fill-rule:evenodd;stroke:none;stroke-width:0.1"
             d="m 239.833,564.948 h -10.844 v -4.026 c 0.426,-0.153 0.831,-0.373 1.209,-0.643 1.189,-0.845 1.472,-2.363 1.472,-3.729 v -14.757 c 0,-1.43 -0.369,-2.94 -1.684,-3.734 -0.312,-0.183 -0.648,-0.356 -0.997,-0.492 v -4.018 h 10.844 v 4.187 c -0.074,0.041 -0.146,0.084 -0.217,0.128 -0.907,0.568 -1.175,1.588 -1.175,2.596 v 7.846 h 7.377 v -7.957 c 0,-1.014 -0.329,-2.011 -1.26,-2.535 -0.069,-0.039 -0.137,-0.075 -0.208,-0.111 v -4.154 h 10.966 v 4.009 c -0.336,0.127 -0.661,0.287 -0.964,0.456 -1.337,0.736 -1.736,2.192 -1.736,3.625 v 15.27 c 0,1.415 0.43,2.809 1.744,3.518 0.303,0.165 0.624,0.321 0.956,0.446 v 4.075 H 244.35 v -4.426 c 0.126,-0.081 0.248,-0.168 0.364,-0.258 0.838,-0.627 1.104,-1.628 1.104,-2.629 v -6.258 h -7.377 v 6.403 c 0,0.899 0.318,1.704 1.003,2.298 0.123,0.106 0.253,0.214 0.389,0.317 v 4.553" /><path
             id="path887"
             style="fill:#b68a34;fill-opacity:1;fill-rule:evenodd;stroke:none;stroke-width:0.1"
             d="m 277.373,564.948 h -9.014 l -5.36,-23.894 c -0.24,-0.962 -0.696,-1.834 -1.381,-2.552 -0.523,-0.548 -1.145,-0.915 -1.84,-1.095 v -3.858 h 9.284 v 3.895 c -0.494,0.178 -0.919,0.5 -1.23,0.972 -0.364,0.554 -0.565,1.176 -0.565,1.839 0,0.412 0.067,0.839 0.153,1.246 0.071,0.318 0.137,0.643 0.219,0.958 l 0.27,1.039 h 6.683 l 0.2,-1.152 c 0.074,-0.427 0.14,-0.854 0.209,-1.281 0.057,-0.358 0.138,-0.807 0.138,-1.169 0,-1.444 -0.925,-2.229 -2.121,-2.504 v -3.843 h 12.358 v 3.805 c -2.344,0.525 -3.255,3.638 -3.683,5.703 z m -9.44,-19.045 3.577,16.502 3.019,-16.502 z" /><path
             id="path891"
             style="fill:#b68a34;fill-opacity:1;fill-rule:evenodd;stroke:none;stroke-width:0.1"
             d="m 309.475,564.948 h -8.667 v -4.265 c 0.08,-0.058 0.157,-0.12 0.233,-0.183 0.689,-0.568 0.945,-1.39 0.945,-2.259 0,-0.335 -0.016,-0.687 -0.098,-1.015 l -3.262,-17.367 -3.181,17.376 c -0.082,0.355 -0.079,0.745 -0.079,1.109 0,0.93 0.358,1.757 1.142,2.266 0.081,0.055 0.165,0.108 0.251,0.16 v 4.178 h -10.845 v -4.034 c 0.17,-0.07 0.336,-0.145 0.495,-0.221 0.966,-0.457 1.563,-1.28 1.775,-2.316 l 5.153,-24.828 h 8.501 l 5.262,24.438 c 0.259,1.107 0.8,2.181 1.852,2.721 0.167,0.086 0.343,0.169 0.523,0.244 v 3.996" /><path
             id="path895"
             style="fill:#b68a34;fill-opacity:1;fill-rule:evenodd;stroke:none;stroke-width:0.1"
             d="m 340.643,539.123 c -0.148,-0.945 -0.667,-1.795 -1.791,-1.795 -1.519,0 -2.063,1.371 -2.063,2.679 0,0.306 0.016,0.618 0.03,0.922 0.013,0.321 0.026,0.645 0.026,0.966 0,1.507 -0.164,3.955 -1.288,5.111 -0.459,0.472 -1.485,1.462 -2.146,1.628 l -4.905,1.231 4.846,1.449 c 1.004,0.301 2.252,1.278 3.041,1.941 1.317,1.116 1.629,2.937 1.629,4.576 0,1.118 -0.257,2.17 -0.78,3.156 -0.525,0.986 -1.275,1.744 -2.219,2.311 -2.389,1.372 -5.8,1.65 -8.496,1.65 h -12.674 v -4.068 c 0.341,-0.132 0.668,-0.299 0.974,-0.476 1.345,-0.768 1.707,-2.31 1.707,-3.752 v -14.595 c 0,-1.394 -0.269,-2.954 -1.461,-3.827 -0.378,-0.287 -0.786,-0.524 -1.22,-0.689 v -3.992 h 12.405 v 3.886 c -1.896,0.468 -2.971,1.953 -2.971,4.204 v 6.916 h 2.679 c 1.458,0 2.831,-0.503 3.463,-1.904 0.485,-1.078 0.609,-2.356 0.609,-3.526 v -5.278 c 0,-1.246 0.458,-2.362 1.164,-3.378 0.834,-1.21 2.541,-1.432 3.893,-1.432 4.103,0 5.466,2.326 5.548,6.086 z m -17.356,12.399 v 9.697 h 3.183 c 1.28,0 2.592,-0.385 3.195,-1.621 0.447,-0.928 0.55,-2.083 0.55,-3.1 0,-2.539 -0.961,-4.976 -3.866,-4.976 h -3.062" /><path
             id="path899"
             style="fill:#b68a34;fill-opacity:1;fill-rule:evenodd;stroke:none;stroke-width:0.1"
             d="m 366.84,564.948 h -22.161 v -4.062 c 0.337,-0.127 0.66,-0.288 0.963,-0.459 1.34,-0.748 1.719,-2.241 1.719,-3.672 v -14.809 c 0,-1.389 -0.3,-2.917 -1.515,-3.758 -0.365,-0.258 -0.755,-0.478 -1.167,-0.636 v -4.003 h 22.161 v 12.541 h -3.612 v -2.504 c 0,-1.529 -0.225,-3.186 -1.069,-4.49 -0.969,-1.518 -2.715,-1.964 -4.414,-1.964 h -3.744 v 11.591 l 1.547,-0.178 c 1.023,-0.116 2.031,-0.515 2.496,-1.495 0.281,-0.579 0.383,-1.265 0.41,-1.92 h 0.705 v 9.057 h -0.699 c -0.014,-0.721 -0.11,-1.487 -0.446,-2.117 -0.494,-0.947 -1.511,-1.291 -2.511,-1.372 l -1.502,-0.122 v 10.695 h 4.305 c 1.194,0 2.27,-0.468 3.21,-1.185 1.336,-1.029 1.712,-2.71 1.712,-4.314 v -2.299 h 3.612 v 11.475" /></g><g
           id="g1093"><path
             id="path903"
             style="fill:#b68a34;fill-opacity:1;fill-rule:evenodd;stroke:none;stroke-width:0.1"
             d="m 211.107,520.172 h -8.862 l -5.288,-23.888 c -0.236,-0.959 -0.686,-1.83 -1.363,-2.55 -0.515,-0.547 -1.13,-0.916 -1.817,-1.098 v -3.861 h 9.127 v 3.898 c -0.49,0.18 -0.911,0.504 -1.216,0.975 -0.359,0.552 -0.556,1.173 -0.556,1.832 0,0.412 0.065,0.836 0.151,1.24 0.069,0.321 0.135,0.647 0.217,0.964 l 0.271,1.04 h 6.629 l 0.196,-1.158 c 0.072,-0.425 0.137,-0.851 0.205,-1.277 0.057,-0.358 0.138,-0.805 0.138,-1.167 0,-1.433 -0.908,-2.222 -2.094,-2.502 v -3.845 h 12.161 v 3.806 c -2.323,0.536 -3.216,3.657 -3.635,5.705 z m -9.317,-19.043 3.55,16.591 2.995,-16.591 z" /><path
             id="path907"
             style="fill:#b68a34;fill-opacity:1;fill-rule:evenodd;stroke:none;stroke-width:0.1"
             d="m 225.429,488.775 h 12.539 v 3.889 c -1.875,0.477 -2.914,1.977 -2.914,4.2 v 19.58 h 1.39 c 0.811,0 1.573,-0.395 2.217,-0.855 1.184,-0.844 1.423,-2.411 1.423,-3.762 v -2.957 h 3.426 v 11.302 H 219.886 V 508.87 h 3.482 v 2.957 c 0,1.284 0.2,2.8 1.252,3.684 0.676,0.557 1.471,0.933 2.361,0.933 h 1.39 v -19.58 c 0,-2.237 -1.057,-3.73 -2.942,-4.201 v -3.888" /><path
             id="path911"
             style="fill:#b68a34;fill-opacity:1;fill-rule:evenodd;stroke:none;stroke-width:0.1"
             d="m 259.014,520.172 h -10.667 v -4.029 c 0.422,-0.154 0.821,-0.374 1.194,-0.645 1.177,-0.847 1.453,-2.364 1.453,-3.723 v -14.757 c 0,-1.422 -0.361,-2.932 -1.665,-3.73 -0.308,-0.182 -0.638,-0.354 -0.982,-0.491 v -4.022 h 10.667 v 4.191 c -0.072,0.041 -0.143,0.084 -0.211,0.127 -0.901,0.571 -1.163,1.589 -1.163,2.593 v 7.846 h 7.317 v -7.957 c 0,-1.008 -0.323,-2.005 -1.245,-2.531 -0.066,-0.038 -0.134,-0.075 -0.203,-0.11 v -4.159 h 10.787 v 4.012 c -0.332,0.128 -0.651,0.287 -0.95,0.457 -1.326,0.739 -1.715,2.195 -1.715,3.62 v 15.27 c 0,1.407 0.418,2.803 1.723,3.514 0.298,0.165 0.614,0.32 0.942,0.446 v 4.078 h -10.787 v -4.43 c 0.125,-0.081 0.245,-0.169 0.36,-0.259 0.827,-0.63 1.088,-1.628 1.088,-2.623 v -6.258 h -7.317 v 6.403 c 0,0.895 0.312,1.699 0.989,2.291 0.122,0.108 0.251,0.216 0.385,0.318 v 4.558" /><path
             id="path915"
             style="fill:#b68a34;fill-opacity:1;fill-rule:evenodd;stroke:none;stroke-width:0.1"
             d="m 300.248,501.786 h -3.694 v -3.427 c 0,-1.342 -0.074,-3.341 -0.953,-4.434 -0.78,-0.967 -1.941,-1.32 -3.148,-1.32 h -2.718 v 19.478 c 0,2.245 1.099,3.703 2.988,4.163 v 3.926 H 280.23 v -4.053 c 0.31,-0.11 0.611,-0.247 0.895,-0.391 1.298,-0.667 1.752,-2.004 1.752,-3.389 v -15.167 c 0,-1.447 -0.333,-3.014 -1.648,-3.843 -0.312,-0.195 -0.649,-0.379 -0.999,-0.523 v -4.031 h 20.018 v 13.011" /><path
             id="path919"
             style="fill:#b68a34;fill-opacity:1;fill-rule:evenodd;stroke:none;stroke-width:0.1"
             d="m 319.785,500.355 h 0.66 v 9.057 h -0.654 c -0.014,-0.717 -0.107,-1.481 -0.439,-2.11 -0.487,-0.948 -1.497,-1.297 -2.495,-1.378 l -1.503,-0.124 v 10.696 h 4.267 c 1.188,0 2.256,-0.471 3.186,-1.19 1.322,-1.031 1.69,-2.714 1.69,-4.308 v -2.3 h 3.529 v 11.474 H 306.19 v -4.065 c 0.331,-0.128 0.649,-0.287 0.947,-0.459 1.329,-0.751 1.7,-2.243 1.7,-3.668 v -14.808 c 0,-1.382 -0.294,-2.911 -1.497,-3.755 -0.359,-0.257 -0.744,-0.476 -1.15,-0.634 v -4.008 h 21.836 v 12.541 h -3.529 v -2.505 c 0,-1.523 -0.22,-3.179 -1.054,-4.482 -0.953,-1.516 -2.681,-1.971 -4.375,-1.971 h -3.714 v 11.592 l 1.55,-0.18 c 1.02,-0.118 2.019,-0.523 2.478,-1.501 0.275,-0.574 0.376,-1.26 0.403,-1.914" /><path
             id="path923"
             style="fill:#b68a34;fill-opacity:1;fill-rule:evenodd;stroke:none;stroke-width:0.1"
             d="m 342.481,488.775 h 12.539 v 3.889 c -1.874,0.477 -2.914,1.976 -2.914,4.2 v 19.58 h 1.39 c 0.811,0 1.574,-0.395 2.217,-0.856 1.185,-0.843 1.423,-2.41 1.423,-3.761 v -2.957 h 3.427 v 11.302 H 336.939 V 508.87 h 3.482 v 2.957 c 0,1.283 0.199,2.8 1.251,3.684 0.677,0.557 1.471,0.933 2.361,0.933 h 1.39 v -19.58 c 0,-2.237 -1.056,-3.73 -2.942,-4.201 v -3.888" /><path
             id="path927"
             style="fill:#b68a34;fill-opacity:1;fill-rule:evenodd;stroke:none;stroke-width:0.1"
             d="m 379.12,520.172 h -12.06 v -4.064 c 0.329,-0.127 0.644,-0.286 0.939,-0.454 1.339,-0.741 1.708,-2.249 1.708,-3.674 v -14.911 c 0,-1.435 -0.349,-2.973 -1.662,-3.765 -0.308,-0.189 -0.64,-0.366 -0.985,-0.505 v -4.024 h 12.06 v 3.992 c -0.406,0.154 -0.793,0.367 -1.157,0.618 -1.206,0.845 -1.508,2.354 -1.508,3.736 v 15.175 c 0,1.391 0.445,2.751 1.754,3.425 0.289,0.146 0.596,0.285 0.911,0.398 v 4.053" /><path
             id="path931"
             style="fill:#b68a34;fill-opacity:1;fill-rule:evenodd;stroke:none;stroke-width:0.1"
             d="m 401.977,520.041 h -1.919 c -0.039,-0.054 -0.08,-0.108 -0.12,-0.161 -0.469,-0.606 -1.142,-0.966 -1.914,-0.966 -0.677,0 -1.47,0.324 -2.075,0.597 -0.572,0.252 -1.151,0.496 -1.738,0.698 -0.454,0.154 -0.986,0.191 -1.462,0.191 -1.634,0 -3.104,-0.485 -4.447,-1.41 -1.431,-0.991 -2.597,-2.252 -3.486,-3.756 -1.803,-2.995 -2.42,-6.488 -2.42,-9.944 0,-4.05 0.517,-8.698 2.589,-12.26 0.907,-1.541 2.163,-2.741 3.705,-3.649 1.576,-0.931 3.26,-1.404 5.09,-1.404 1.328,0 2.599,0.323 3.806,0.868 3.758,1.695 4.466,6.427 4.466,10.091 v 0.703 h -4.34 v -0.703 c 0,-1.263 -0.082,-2.665 -0.445,-3.881 -0.429,-1.437 -1.532,-2.274 -3.034,-2.274 -1.326,0 -2.464,0.611 -2.862,1.926 -0.287,0.948 -0.393,2.078 -0.464,3.081 -0.113,2.473 -0.115,4.985 -0.115,7.46 0,2.404 -0.09,5.708 0.313,8.065 l 0.008,0.041 0.008,0.04 c 0.386,1.658 1.54,2.714 3.273,2.714 2.784,0 3.318,-2.992 3.318,-5.181 v -1.656 h 4.265 v 10.77" /></g><g
           id="g1083"><path
             id="path935"
             style="fill:#b68a34;fill-opacity:1;fill-rule:evenodd;stroke:none;stroke-width:0.1"
             d="m 265.3,477.955 h -1.919 c -0.04,-0.054 -0.08,-0.107 -0.12,-0.16 -0.47,-0.607 -1.143,-0.966 -1.914,-0.966 -0.678,0 -1.471,0.323 -2.075,0.596 -0.572,0.253 -1.151,0.496 -1.738,0.698 -0.455,0.154 -0.986,0.191 -1.462,0.191 -1.634,0 -3.104,-0.484 -4.448,-1.409 -1.43,-0.992 -2.596,-2.253 -3.485,-3.757 -1.803,-2.994 -2.42,-6.488 -2.42,-9.943 0,-4.051 0.516,-8.699 2.588,-12.26 0.908,-1.542 2.164,-2.741 3.706,-3.649 1.575,-0.932 3.26,-1.405 5.089,-1.405 1.328,0 2.6,0.323 3.806,0.868 3.758,1.695 4.467,6.428 4.467,10.092 v 0.702 h -4.34 v -0.702 c 0,-1.263 -0.082,-2.666 -0.446,-3.882 -0.428,-1.437 -1.531,-2.274 -3.034,-2.274 -1.325,0 -2.463,0.611 -2.86,1.926 -0.288,0.948 -0.395,2.078 -0.465,3.081 -0.114,2.473 -0.115,4.985 -0.115,7.46 0,2.404 -0.09,5.708 0.313,8.065 l 0.007,0.041 0.009,0.04 c 0.386,1.658 1.54,2.714 3.273,2.714 2.783,0 3.318,-2.991 3.318,-5.181 v -1.655 h 4.265 v 10.769" /><path
             id="path939"
             style="fill:#b68a34;fill-opacity:1;fill-rule:evenodd;stroke:none;stroke-width:0.1"
             d="m 292.246,459.568 h -3.857 v -3.426 c 0,-1.354 -0.078,-3.354 -0.98,-4.446 -0.798,-0.966 -1.977,-1.308 -3.189,-1.308 h -2.752 v 19.478 c 0,2.279 1.145,3.72 3.063,4.168 v 3.921 h -12.878 v -4.044 c 0.32,-0.112 0.631,-0.248 0.925,-0.394 1.32,-0.662 1.789,-1.999 1.789,-3.396 v -15.166 c 0,-1.463 -0.349,-3.028 -1.686,-3.85 -0.321,-0.197 -0.667,-0.382 -1.028,-0.525 v -4.022 h 20.593 v 13.01" /><path
             id="path943"
             style="fill:#b68a34;fill-opacity:1;fill-rule:evenodd;stroke:none;stroke-width:0.1"
             d="m 306.493,477.955 h -11.364 v -4.006 c 0.35,-0.131 0.687,-0.297 1.003,-0.472 1.358,-0.767 1.729,-2.313 1.729,-3.765 v -15.731 c 0,-1.438 0.34,-2.777 1.049,-4.029 0.732,-1.29 1.815,-2.232 3.117,-2.923 1.594,-0.84 3.38,-1.138 5.166,-1.138 1.792,0 3.57,0.293 5.192,1.066 1.38,0.67 2.502,1.614 3.309,2.923 0.838,1.35 1.172,2.874 1.172,4.451 v 15.535 c 0,1.346 0.316,2.787 1.519,3.563 0.359,0.235 0.74,0.427 1.138,0.563 v 3.963 h -9.001 v -4.059 c 0.178,-0.093 0.349,-0.198 0.513,-0.308 1.039,-0.704 1.292,-1.986 1.292,-3.159 V 454.75 c 0,-2.295 -1.338,-3.739 -3.659,-3.739 -2.211,0 -3.82,1.161 -3.82,3.483 v 16.396 c 0,1.049 0.319,2.071 1.217,2.674 0.137,0.095 0.281,0.186 0.428,0.271 v 4.12" /><path
             id="path947"
             style="fill:#b68a34;fill-opacity:1;fill-rule:evenodd;stroke:none;stroke-width:0.1"
             d="m 326.349,477.955 v -4.063 c 0.348,-0.134 0.683,-0.303 0.996,-0.482 1.345,-0.775 1.718,-2.299 1.718,-3.749 v -14.596 c 0,-1.401 -0.278,-2.965 -1.486,-3.837 -0.382,-0.28 -0.793,-0.513 -1.228,-0.675 v -3.995 h 13.692 c 2.536,0 5.346,0.386 7.503,1.816 2.114,1.409 2.565,4.115 2.565,6.478 0,1.55 -0.234,3.566 -1.452,4.683 -0.641,0.592 -1.77,1.569 -2.62,1.828 l -4.802,1.464 4.87,1.214 c 0.794,0.198 1.893,1.136 2.482,1.676 1.199,1.091 1.4,3.244 1.4,4.755 0,1.98 -0.764,3.588 -2.176,4.961 -2.182,2.101 -5.845,2.522 -8.726,2.522 z m 9.578,-13.425 v 9.595 h 3.148 c 1.266,0 2.59,-0.359 3.208,-1.576 0.477,-0.949 0.565,-2.21 0.565,-3.256 0,-2.224 -0.708,-4.763 -3.385,-4.763 z m 0,-3.727 h 3.148 c 1.37,0 2.695,-0.476 3.271,-1.825 0.42,-1.028 0.502,-2.317 0.502,-3.417 0,-1.195 -0.054,-3.039 -0.743,-4.071 -0.706,-1.027 -1.91,-1.349 -3.096,-1.349 h -3.082 v 10.662" /></g></g></g><g
       transform="matrix(0.92604273,0,0,0.92604273,5.133441,42.999425)"
       id="g1295"><g
         id="g1262"><g
           id="g1239"><path
             id="path949"
             style="fill:#231f20;fill-opacity:1;fill-rule:nonzero;stroke:none;stroke-width:0.1"
             d="m 228.13,171.807 v -9.424 h -4.586 v 2.118 c 0,1.758 -0.418,2.637 -1.255,2.637 -0.665,0 -1.084,-0.38 -1.249,-1.14 -0.129,-0.808 -0.191,-2.62 -0.191,-5.447 0,-2.287 0.024,-3.998 0.074,-5.138 0.055,-0.838 0.141,-1.48 0.265,-1.913 0.122,-0.434 0.455,-0.654 0.996,-0.654 0.572,0 0.942,0.297 1.108,0.892 0.166,0.594 0.252,1.401 0.252,2.423 v 1.456 h 4.635 v -1.456 c 0,-2.958 -0.61,-6.536 -3.44,-7.9 -0.948,-0.457 -1.896,-0.69 -2.85,-0.69 -1.342,0 -2.598,0.369 -3.773,1.112 -1.17,0.736 -2.08,1.698 -2.732,2.881 -1.207,2.215 -1.81,5.221 -1.81,9.016 0,2.923 0.566,5.394 1.705,7.414 0.646,1.17 1.495,2.144 2.529,2.911 1.04,0.766 2.179,1.152 3.41,1.152 0.486,0 0.898,-0.06 1.243,-0.184 0.339,-0.125 0.739,-0.297 1.207,-0.517 0.468,-0.226 0.793,-0.333 0.984,-0.333 0.209,0 0.388,0.102 0.53,0.297 0.141,0.196 0.234,0.357 0.283,0.487 h 2.665" /><path
             id="path953"
             style="fill:#231f20;fill-opacity:1;fill-rule:nonzero;stroke:none;stroke-width:0.1"
             d="m 245.138,159.013 v -10.868 h -14.815 v 4.479 c 0.287,0 0.647,0.141 1.073,0.423 0.431,0.288 0.647,0.893 0.647,1.834 v 10.439 c 0,0.751 -0.216,1.246 -0.647,1.48 -0.426,0.23 -0.786,0.347 -1.073,0.354 v 4.513 h 9.925 v -4.508 c -1.295,0 -1.942,-0.676 -1.942,-2.016 v -12.449 h 0.863 c 0.612,0 1.061,0.183 1.342,0.553 0.282,0.37 0.42,1.187 0.42,2.451 v 3.315 h 4.207" /><path
             id="path957"
             style="fill:#231f20;fill-opacity:1;fill-rule:nonzero;stroke:none;stroke-width:0.1"
             d="m 254.889,171.667 v -4.444 c -0.174,-0.023 -0.396,-0.129 -0.653,-0.323 -0.257,-0.188 -0.39,-0.54 -0.39,-1.052 v -11.284 c 0,-0.959 0.516,-1.44 1.541,-1.44 0.959,0 1.438,0.54 1.438,1.616 v 10.79 c 0,0.713 -0.144,1.17 -0.432,1.382 -0.281,0.206 -0.52,0.311 -0.713,0.311 v 4.444 h 7.468 v -4.479 c -0.371,0 -0.749,-0.129 -1.12,-0.393 -0.378,-0.265 -0.564,-0.817 -0.564,-1.652 v -10.691 c 0,-1.358 -0.294,-2.55 -0.875,-3.568 -0.582,-1.022 -1.402,-1.81 -2.463,-2.368 -1.067,-0.553 -2.289,-0.829 -3.674,-0.829 -1.427,0 -2.649,0.3 -3.686,0.893 -1.03,0.594 -1.811,1.387 -2.331,2.386 -0.522,1 -0.78,2.081 -0.78,3.245 v 10.827 c 0,0.904 -0.216,1.492 -0.647,1.757 -0.437,0.264 -0.797,0.393 -1.084,0.393 v 4.479 h 8.965" /><path
             id="path961"
             style="fill:#231f20;fill-opacity:1;fill-rule:nonzero;stroke:none;stroke-width:0.1"
             d="m 278.252,160.205 c 0.533,-0.175 1.204,-0.669 2.002,-1.468 0.802,-0.799 1.204,-2.11 1.204,-3.927 0,-2.527 -0.671,-4.278 -2.02,-5.254 -1.306,-0.94 -3.057,-1.411 -5.244,-1.411 h -9.56 v 4.485 c 0.372,0 0.756,0.152 1.139,0.458 0.39,0.306 0.581,0.929 0.581,1.87 v 10.044 c 0,0.899 -0.215,1.481 -0.647,1.752 -0.425,0.264 -0.785,0.4 -1.073,0.4 v 4.513 h 8.954 c 2.818,0 4.868,-0.67 6.144,-2.004 1.097,-1.158 1.648,-2.522 1.648,-4.102 0,-1.875 -0.39,-3.204 -1.175,-3.98 -0.779,-0.776 -1.432,-1.235 -1.953,-1.376 z m -5.784,2.223 h 1.36 c 0.846,0 1.265,0.776 1.265,2.321 0,0.835 -0.089,1.434 -0.263,1.81 -0.175,0.371 -0.594,0.559 -1.248,0.559 h -1.114 z m 0,-4.479 v -5.425 h 1.073 c 0.605,0 1.018,0.17 1.234,0.512 0.21,0.34 0.318,1.099 0.318,2.262 0,0.882 -0.084,1.54 -0.252,1.987 -0.174,0.44 -0.593,0.664 -1.259,0.664 h -1.114" /><path
             id="path965"
             style="fill:#231f20;fill-opacity:1;fill-rule:nonzero;stroke:none;stroke-width:0.1"
             d="m 291.204,148.145 v 4.479 c 0.366,0 0.749,0.153 1.139,0.453 0.389,0.299 0.581,0.911 0.581,1.839 v 10.157 c 0,0.869 -0.216,1.433 -0.647,1.692 -0.426,0.259 -0.785,0.389 -1.073,0.389 v 4.513 h 7.653 c 2.829,0 4.903,-0.564 6.227,-1.698 1.3,-1.094 2.248,-2.592 2.847,-4.491 0.594,-1.898 0.894,-3.738 0.894,-5.519 0,-4.784 -1.236,-8.164 -3.705,-10.15 -1.372,-1.111 -3.278,-1.664 -5.724,-1.664 z m 7.797,4.514 h 1.115 c 0.749,0 1.216,0.253 1.403,0.759 0.191,0.505 0.287,1.205 0.287,2.098 v 8.916 c 0,0.717 -0.15,1.328 -0.449,1.828 -0.294,0.499 -0.755,0.746 -1.385,0.746 h -0.971 v -14.347" /><path
             id="path969"
             style="fill:#231f20;fill-opacity:1;fill-rule:nonzero;stroke:none;stroke-width:0.1"
             d="m 326.942,159.36 c 0,-3.409 -0.636,-6.113 -1.906,-8.117 -1.522,-2.369 -3.584,-3.556 -6.191,-3.556 -2.619,0 -4.663,1.164 -6.149,3.485 -1.439,2.204 -2.158,4.967 -2.158,8.294 0,3.156 0.48,5.813 1.439,7.97 0.593,1.322 1.498,2.397 2.721,3.232 1.216,0.829 2.553,1.246 4.009,1.246 1.337,0 2.572,-0.347 3.698,-1.046 1.127,-0.699 2.026,-1.634 2.703,-2.804 0.707,-1.223 1.193,-2.539 1.45,-3.944 0.258,-1.41 0.384,-2.997 0.384,-4.76 z m -8.097,8.246 c -0.378,0 -0.671,-0.159 -0.881,-0.47 -0.209,-0.312 -0.336,-0.67 -0.372,-1.076 -0.096,-0.881 -0.144,-1.886 -0.144,-3.033 0,-0.341 0.007,-0.852 0.019,-1.54 0.012,-0.682 0.017,-1.187 0.017,-1.528 0,-2.445 0.012,-4.261 0.037,-5.46 0.125,-1.458 0.569,-2.186 1.324,-2.186 0.893,0 1.337,0.869 1.337,2.603 v 5.043 c 0,2.445 -0.012,4.261 -0.037,5.461 -0.125,1.457 -0.563,2.186 -1.3,2.186" /><path
             id="path973"
             style="fill:#231f20;fill-opacity:1;fill-rule:nonzero;stroke:none;stroke-width:0.1"
             d="m 344.731,171.667 v -4.479 c -0.235,0 -0.576,-0.094 -1.025,-0.282 -0.45,-0.188 -0.828,-0.587 -1.138,-1.199 l -3.561,-7.335 v -3.703 c 0,-1.363 0.647,-2.045 1.942,-2.045 v -4.479 h -9.944 v 4.479 c 1.271,0 1.907,0.682 1.907,2.045 v 3.556 l -3.344,7.418 c -0.258,0.57 -0.618,0.963 -1.067,1.181 -0.456,0.217 -0.81,0.335 -1.061,0.364 v 4.479 h 9.332 v -4.479 c -0.174,-0.005 -0.39,-0.052 -0.654,-0.147 -0.258,-0.093 -0.389,-0.293 -0.389,-0.593 0,-0.147 0.036,-0.312 0.108,-0.5 l 1.228,-2.491 1.043,2.491 c 0.072,0.295 0.108,0.506 0.108,0.641 0,0.259 -0.102,0.424 -0.306,0.494 -0.21,0.071 -0.383,0.105 -0.521,0.105 v 4.479 h 7.342" /><path
             id="path977"
             style="fill:#231f20;fill-opacity:1;fill-rule:nonzero;stroke:none;stroke-width:0.1"
             d="m 361.71,171.667 v -9.81 h -4.1 v 2.54 c 0,1.064 -0.252,1.798 -0.749,2.209 -0.504,0.412 -1.007,0.617 -1.516,0.617 h -1.87 v -5.366 c 0.473,0.041 0.773,0.189 0.893,0.435 0.125,0.253 0.186,0.635 0.186,1.158 v 0.811 h 2.229 v -8.146 h -2.229 v 0.67 c 0,0.529 -0.061,0.929 -0.181,1.193 -0.119,0.271 -0.419,0.435 -0.898,0.494 v -5.948 h 1.51 c 1.025,0 1.72,0.306 2.08,0.911 0.365,0.605 0.545,1.463 0.545,2.575 v 2.679 h 4.1 v -10.544 h -15.997 v 4.485 c 0.354,0 0.732,0.147 1.128,0.447 0.395,0.293 0.593,0.899 0.593,1.804 v 10.192 c 0,0.869 -0.216,1.433 -0.648,1.692 -0.426,0.259 -0.785,0.389 -1.073,0.389 v 4.513 h 15.997" /><path
             id="path981"
             style="fill:#231f20;fill-opacity:1;fill-rule:nonzero;stroke:none;stroke-width:0.1"
             d="m 372.899,171.667 3.231,-11.996 v 5.261 c 0,0.934 -0.191,1.534 -0.581,1.81 -0.384,0.276 -0.707,0.412 -0.965,0.412 v 4.513 h 7.671 v -4.513 c -0.287,-0.007 -0.647,-0.13 -1.085,-0.383 -0.431,-0.246 -0.647,-0.782 -0.647,-1.592 v -17.034 h -7.624 l -3.38,13.154 v -6.559 c 0,-0.864 0.199,-1.434 0.587,-1.711 0.396,-0.27 0.774,-0.405 1.134,-0.405 v -4.479 h -7.684 v 4.479 c 1.145,0 1.72,0.776 1.72,2.334 v 9.833 c 0,0.952 -0.185,1.581 -0.563,1.898 -0.378,0.311 -0.768,0.465 -1.157,0.465 v 4.513 h 9.343" /></g><g
           id="g1245"><path
             id="path985"
             style="fill:#231f20;fill-opacity:1;fill-rule:nonzero;stroke:none;stroke-width:0.1"
             d="m 272.586,129.579 v -18.42 c 0,-1.052 0.641,-1.581 1.923,-1.581 v -3.738 h -9.775 v 3.738 c 0.57,0 1.041,0.1 1.394,0.294 0.353,0.199 0.529,0.629 0.529,1.287 v 10.162 c 0,0.593 -0.157,1.075 -0.47,1.451 -0.314,0.376 -0.746,0.565 -1.296,0.565 -0.012,0 -0.085,-0.006 -0.196,-0.012 -0.118,-0.012 -0.209,-0.018 -0.281,-0.024 v 3.556 c 1.675,0 2.761,0.341 3.258,1.023 0.504,0.675 0.753,1.246 0.753,1.699 h 4.161" /><path
             id="path989"
             style="fill:#231f20;fill-opacity:1;fill-rule:nonzero;stroke:none;stroke-width:0.1"
             d="m 291.18,119.193 c 0.523,-0.376 1.177,-1.116 1.97,-2.21 0.784,-1.099 1.177,-2.521 1.177,-4.267 0,-1.369 -0.34,-2.586 -1.021,-3.661 -0.68,-1.082 -1.603,-1.922 -2.767,-2.527 -1.158,-0.606 -2.441,-0.906 -3.828,-0.906 -1.439,0 -2.721,0.283 -3.853,0.841 -1.132,0.564 -2.009,1.334 -2.63,2.31 -0.622,0.975 -0.936,2.051 -0.936,3.232 0,1.576 0.38,2.851 1.133,3.838 0.758,0.982 1.386,1.646 1.889,1.981 -0.405,0.358 -0.922,1.011 -1.543,1.957 -0.623,0.946 -0.929,2.092 -0.929,3.438 0,1.07 0.255,2.098 0.772,3.08 0.516,0.976 1.282,1.775 2.297,2.386 1.013,0.617 2.217,0.923 3.604,0.923 1.374,0 2.598,-0.259 3.664,-0.782 1.073,-0.523 1.904,-1.263 2.506,-2.215 0.595,-0.952 0.896,-2.057 0.896,-3.315 0,-0.971 -0.301,-1.823 -0.896,-2.557 -0.602,-0.741 -1.099,-1.252 -1.505,-1.546 z m -3.415,2.474 c 0.196,0.129 0.431,0.388 0.719,0.776 0.282,0.389 0.426,0.905 0.426,1.546 0,0.517 -0.157,0.982 -0.478,1.399 -0.314,0.411 -0.746,0.617 -1.282,0.617 -0.458,0 -0.805,-0.153 -1.054,-0.459 -0.242,-0.311 -0.366,-0.658 -0.366,-1.057 0,-0.688 0.256,-1.282 0.765,-1.781 0.511,-0.5 0.936,-0.847 1.27,-1.041 z m -2.226,-6.453 c -0.194,-0.176 -0.431,-0.511 -0.719,-0.999 -0.281,-0.488 -0.425,-1.093 -0.425,-1.822 0,-0.823 0.191,-1.528 0.563,-2.116 0.373,-0.587 0.916,-0.881 1.63,-0.881 0.634,0 1.092,0.229 1.38,0.682 0.287,0.452 0.431,0.893 0.431,1.322 0,0.876 -0.36,1.657 -1.073,2.351 -0.713,0.687 -1.308,1.181 -1.787,1.463" /><path
             id="path993"
             style="fill:#231f20;fill-opacity:1;fill-rule:nonzero;stroke:none;stroke-width:0.1"
             d="m 297.932,129.361 h 2.663 v -1.481 c 0.712,1.058 1.727,1.586 3.028,1.586 0.361,0 0.688,-0.058 0.982,-0.164 0.301,-0.111 0.622,-0.264 0.981,-0.458 0.353,-0.194 0.655,-0.341 0.903,-0.435 0.249,-0.095 0.537,-0.141 0.864,-0.141 0.628,0 0.935,0.364 0.935,1.093 h 3.541 c 0,-1.916 -0.23,-3.62 -0.688,-5.107 -0.452,-1.493 -0.994,-2.798 -1.616,-3.926 -0.621,-1.123 -1.229,-2.258 -1.825,-3.392 -0.596,-1.134 -0.889,-2.133 -0.889,-2.986 0,-0.457 0.044,-0.863 0.143,-1.21 0.098,-0.347 0.242,-0.741 0.432,-1.181 0.189,-0.441 0.34,-0.841 0.438,-1.205 0.105,-0.365 0.157,-0.8 0.157,-1.305 0,-1.005 -0.347,-1.828 -1.04,-2.468 -0.694,-0.641 -1.63,-0.959 -2.807,-0.959 -1.216,0 -2.153,0.424 -2.813,1.264 -0.661,0.846 -0.995,1.857 -0.995,3.039 0,1.922 0.314,3.62 0.949,5.101 0.634,1.481 1.466,2.839 2.493,4.085 1.033,1.24 1.871,2.251 2.532,3.021 0.654,0.77 0.981,1.411 0.981,1.904 -0.131,-0.147 -0.366,-0.329 -0.72,-0.553 -0.353,-0.217 -0.779,-0.328 -1.289,-0.328 -0.301,0 -0.733,0.146 -1.281,0.44 -0.551,0.294 -0.884,0.441 -0.996,0.441 -0.916,0 -1.374,-0.87 -1.374,-2.615 v -0.241 h -3.689 v 8.181" /><path
             id="path997"
             style="fill:#231f20;fill-opacity:1;fill-rule:nonzero;stroke:none;stroke-width:0.1"
             d="m 329.297,113.28 v -2.709 c 0,-1.204 -0.294,-2.339 -0.877,-3.408 -0.588,-1.07 -1.76,-1.605 -3.526,-1.605 -0.745,0 -1.394,0.117 -1.943,0.352 -0.543,0.236 -1.139,0.547 -1.78,0.935 -0.648,0.387 -1.079,0.582 -1.302,0.582 -0.786,0 -1.178,-0.529 -1.178,-1.587 h -3.65 v 1.698 c 0,2.116 0.366,3.839 1.099,5.155 0.733,1.322 1.465,2.28 2.192,2.88 l 1.813,1.593 c 0.889,0.758 1.608,1.622 2.159,2.591 0.549,0.976 0.823,1.958 0.823,2.945 0,2.039 -0.602,3.062 -1.799,3.062 -0.353,0 -0.608,-0.088 -0.772,-0.265 -0.157,-0.17 -0.254,-0.323 -0.294,-0.44 0.268,-0.094 0.602,-0.33 1.007,-0.705 0.399,-0.383 0.602,-0.965 0.602,-1.758 0,-0.988 -0.392,-1.751 -1.171,-2.292 -0.779,-0.547 -1.564,-0.817 -2.368,-0.817 -0.642,0 -1.257,0.165 -1.846,0.494 -0.588,0.328 -1.066,0.811 -1.439,1.44 -0.373,0.629 -0.556,1.346 -0.556,2.157 0,1.251 0.367,2.339 1.099,3.25 0.732,0.911 1.662,1.604 2.794,2.074 1.132,0.471 2.283,0.706 3.455,0.706 1.713,0 3.16,-0.335 4.331,-1.012 1.171,-0.675 2.034,-1.521 2.598,-2.538 0.562,-1.017 0.843,-2.045 0.843,-3.08 0,-2.504 -1.034,-4.525 -3.108,-6.065 l -3.022,-2.222 c -0.445,-0.282 -1.033,-0.699 -1.774,-1.252 -0.732,-0.552 -1.216,-1.04 -1.445,-1.457 0.131,0.076 0.352,0.182 0.66,0.306 0.307,0.123 0.661,0.182 1.068,0.182 0.391,0 0.889,-0.124 1.471,-0.371 0.589,-0.247 0.989,-0.37 1.204,-0.37 0.576,0 0.864,0.517 0.864,1.551 h 3.768" /></g></g><g
         id="g1222"><path
           d="m 226.741,170.418 h -0.5 c -0.391,-0.491 -0.953,-0.784 -1.59,-0.784 -0.538,0 -1.108,0.239 -1.578,0.466 -0.359,0.168 -0.719,0.332 -1.084,0.466 -0.234,0.084 -0.526,0.101 -0.771,0.101 -0.964,0 -1.81,-0.31 -2.583,-0.879 -0.892,-0.661 -1.605,-1.497 -2.145,-2.474 -1.148,-2.037 -1.526,-4.421 -1.526,-6.734 0,-2.722 0.315,-5.919 1.638,-8.347 0.545,-0.99 1.3,-1.773 2.256,-2.375 0.931,-0.589 1.929,-0.897 3.03,-0.897 0.791,0 1.539,0.21 2.248,0.552 2.291,1.103 2.652,4.402 2.652,6.648 v 0.066 h -1.854 v -0.066 c 0,-0.915 -0.057,-1.914 -0.304,-2.797 -0.327,-1.169 -1.222,-1.907 -2.447,-1.907 -1.103,0 -2.023,0.578 -2.333,1.665 -0.195,0.688 -0.266,1.492 -0.316,2.223 -0.073,1.725 -0.075,3.478 -0.075,5.205 0,1.716 -0.06,3.979 0.208,5.666 l 0.006,0.039 0.008,0.038 c 0.287,1.321 1.211,2.236 2.608,2.236 2.183,0 2.645,-2.296 2.645,-4.027 v -0.729 h 1.807 v 6.645"
           style="fill:#b68a34;fill-opacity:1;fill-rule:evenodd;stroke:none;stroke-width:0.1"
           id="path951" /><path
           d="m 243.749,157.623 h -1.428 v -1.925 c 0,-1.027 -0.057,-2.444 -0.704,-3.292 -0.592,-0.78 -1.489,-1.102 -2.448,-1.102 h -2.253 v 13.839 c 0,1.562 0.699,2.703 1.942,3.171 v 1.963 h -7.145 v -2.082 c 0.117,-0.054 0.233,-0.113 0.346,-0.173 1.01,-0.55 1.374,-1.607 1.374,-2.702 v -10.439 c 0,-1.129 -0.266,-2.323 -1.268,-2.992 -0.145,-0.096 -0.297,-0.187 -0.452,-0.27 v -2.084 h 12.036 v 8.088"
           style="fill:#b68a34;fill-opacity:1;fill-rule:evenodd;stroke:none;stroke-width:0.1"
           id="path955" /><path
           d="m 253.499,170.277 h -6.185 v -2.065 c 0.143,-0.071 0.283,-0.15 0.419,-0.231 1.025,-0.63 1.312,-1.818 1.312,-2.943 v -10.827 c 0,-0.92 0.196,-1.786 0.621,-2.602 0.413,-0.789 1.022,-1.38 1.791,-1.823 0.916,-0.524 1.949,-0.709 2.995,-0.709 1.055,0 2.09,0.184 3.029,0.67 0.815,0.428 1.445,1.024 1.901,1.826 0.503,0.88 0.693,1.872 0.693,2.879 v 10.691 c 0,1.048 0.243,2.151 1.149,2.786 0.171,0.122 0.349,0.228 0.534,0.319 v 2.029 h -4.688 v -2.143 c 0.05,-0.032 0.098,-0.066 0.147,-0.102 0.795,-0.586 0.998,-1.571 0.998,-2.502 v -10.79 c 0,-1.756 -1.014,-3.006 -2.828,-3.006 -1.744,0 -2.93,1.053 -2.93,2.83 v 11.284 c 0,0.84 0.251,1.657 0.947,2.165 0.031,0.024 0.063,0.047 0.095,0.07 v 2.194"
           style="fill:#b68a34;fill-opacity:1;fill-rule:evenodd;stroke:none;stroke-width:0.1"
           id="path959" /><path
           d="m 266.024,170.277 v -2.107 c 0.145,-0.074 0.285,-0.154 0.421,-0.238 1.013,-0.636 1.299,-1.808 1.299,-2.93 v -10.044 c 0,-1.08 -0.21,-2.256 -1.106,-2.958 -0.194,-0.154 -0.399,-0.291 -0.614,-0.404 v -2.061 h 8.17 c 1.511,0 3.176,0.245 4.431,1.147 1.23,0.891 1.443,2.733 1.443,4.128 0,0.9 -0.113,2.263 -0.798,2.944 -0.939,1.391 -1.629,1.763 -3.028,2.657 0.964,0.548 2.146,1.022 2.985,2.158 0.664,0.657 0.763,2.126 0.763,2.992 0,1.232 -0.419,2.251 -1.264,3.142 -1.254,1.311 -3.423,1.574 -5.138,1.574 z m 5.054,-9.239 v 7.47 h 2.504 c 1.036,0 2.04,-0.369 2.508,-1.363 0.33,-0.713 0.393,-1.62 0.393,-2.396 0,-1.723 -0.578,-3.711 -2.655,-3.711 z m 5.062,-3.26 c 0.287,-0.763 0.343,-1.677 0.343,-2.48 0,-0.907 -0.039,-2.206 -0.531,-3.002 -0.532,-0.842 -1.453,-1.162 -2.411,-1.162 h -2.463 v 8.205 h 2.504 c 1.114,0 2.124,-0.464 2.558,-1.561"
           style="fill:#b68a34;fill-opacity:1;fill-rule:evenodd;stroke:none;stroke-width:0.1"
           id="path963" /><path
           d="m 292.594,149.535 h 6.802 c 1.663,0 3.519,0.276 4.852,1.356 2.631,2.117 3.187,5.9 3.187,9.068 0,1.735 -0.313,3.45 -0.83,5.102 -0.467,1.479 -1.218,2.837 -2.422,3.85 -1.345,1.152 -3.636,1.366 -5.326,1.366 h -6.263 v -2.099 c 0.137,-0.069 0.27,-0.144 0.399,-0.222 1.022,-0.612 1.321,-1.765 1.321,-2.883 v -10.157 c 0,-1.077 -0.218,-2.245 -1.124,-2.942 -0.189,-0.144 -0.388,-0.274 -0.596,-0.383 z m 5.017,1.735 v 17.126 h 2.361 c 1.093,0 2.023,-0.48 2.578,-1.424 0.463,-0.772 0.646,-1.647 0.646,-2.54 v -8.916 c 0,-0.852 -0.073,-1.785 -0.375,-2.581 -0.431,-1.173 -1.511,-1.665 -2.705,-1.665 h -2.505"
           style="fill:#b68a34;fill-opacity:1;fill-rule:evenodd;stroke:none;stroke-width:0.1"
           id="path967" /><path
           d="m 325.553,159.36 c 0,1.502 -0.091,3.031 -0.362,4.51 -0.227,1.237 -0.657,2.409 -1.286,3.498 -0.555,0.96 -1.291,1.734 -2.233,2.319 -0.91,0.565 -1.893,0.837 -2.965,0.837 -1.184,0 -2.248,-0.338 -3.226,-1.004 -0.997,-0.681 -1.742,-1.551 -2.235,-2.65 -1.015,-2.282 -1.318,-4.929 -1.318,-7.404 0,-2.627 0.477,-5.305 1.936,-7.542 1.187,-1.853 2.763,-2.847 4.981,-2.847 2.242,0 3.823,1.052 5.018,2.911 1.346,2.123 1.69,4.91 1.69,7.372 z m -6.708,9.636 c 1.91,0 2.548,-1.866 2.685,-3.458 l 0.004,-0.045 0.001,-0.045 c 0.037,-1.828 0.036,-3.661 0.036,-5.489 v -5.043 c 0,-1.78 -0.528,-3.993 -2.726,-3.993 -1.921,0 -2.57,1.849 -2.709,3.456 l -0.004,0.046 -0.001,0.045 c -0.037,1.828 -0.036,3.66 -0.036,5.489 0,0.501 -0.009,1.003 -0.018,1.503 -0.009,0.521 -0.018,1.044 -0.018,1.565 0,1.061 0.036,2.121 0.15,3.162 0.055,0.623 0.253,1.204 0.601,1.722 0.469,0.697 1.195,1.085 2.035,1.085"
           style="fill:#b68a34;fill-opacity:1;fill-rule:evenodd;stroke:none;stroke-width:0.1"
           id="path971" /><path
           d="m 343.341,170.277 h -4.562 v -2.083 c 0.53,-0.346 0.827,-0.939 0.827,-1.605 0,-0.321 -0.072,-0.658 -0.147,-0.969 l -0.026,-0.107 -2.264,-5.409 -2.608,5.289 -0.023,0.06 c -0.252,0.663 -0.199,0.331 -0.199,0.995 0,0.77 0.381,1.433 1.043,1.783 v 2.046 h -6.552 v -2.075 c 0.093,-0.041 0.185,-0.083 0.275,-0.126 0.8,-0.388 1.367,-1.06 1.73,-1.861 l 3.467,-7.691 v -3.855 c 0,-1.553 -0.674,-2.715 -1.907,-3.194 v -1.94 h 7.164 v 1.935 c -1.248,0.472 -1.941,1.629 -1.941,3.199 v 4.023 l 3.708,7.639 c 0.407,0.802 0.998,1.504 1.843,1.857 0.057,0.024 0.114,0.048 0.172,0.071 v 2.018"
           style="fill:#b68a34;fill-opacity:1;fill-rule:evenodd;stroke:none;stroke-width:0.1"
           id="path975" /><path
           d="m 360.32,170.277 h -13.217 v -2.099 c 0.137,-0.069 0.271,-0.144 0.4,-0.222 1.021,-0.612 1.32,-1.765 1.32,-2.883 v -10.192 c 0,-1.078 -0.233,-2.236 -1.146,-2.915 -0.182,-0.138 -0.374,-0.261 -0.574,-0.366 v -2.065 H 360.32 V 157.3 H 359 v -1.29 c 0,-1.118 -0.157,-2.319 -0.742,-3.287 -0.7,-1.177 -1.964,-1.589 -3.273,-1.589 h -2.9 v 8.908 l 1.558,-0.191 c 0.69,-0.084 1.337,-0.352 1.75,-0.885 v 2.358 c -0.427,-0.542 -1.099,-0.79 -1.798,-0.851 l -1.51,-0.131 v 8.271 h 3.26 c 0.901,0 1.708,-0.368 2.4,-0.934 0.976,-0.808 1.255,-2.072 1.255,-3.282 v -1.15 h 1.32 v 7.03"
           style="fill:#b68a34;fill-opacity:1;fill-rule:evenodd;stroke:none;stroke-width:0.1"
           id="path979" /><path
           d="m 371.834,170.277 h -6.888 v -2.083 c 0.231,-0.121 0.451,-0.269 0.658,-0.439 0.864,-0.724 1.062,-1.898 1.062,-2.964 v -9.833 c 0,-1.507 -0.52,-2.861 -1.72,-3.434 v -1.989 h 4.904 v 2.039 c -0.187,0.092 -0.368,0.199 -0.543,0.319 -0.92,0.654 -1.177,1.782 -1.177,2.847 v 7.785 l 0.134,3.387 1.7,-0.728 4.013,-15.649 h 3.741 l 0.142,1.654 -0.858,-0.102 z m 5.686,-20.742 h 1.614 v 15.644 c 0,1.106 0.328,2.216 1.342,2.796 0.126,0.073 0.257,0.143 0.389,0.207 v 2.095 h -4.891 v -2.154 c 0.131,-0.077 0.258,-0.161 0.381,-0.248 0.946,-0.672 1.165,-1.858 1.165,-2.943 v -15.397"
           style="fill:#b68a34;fill-opacity:1;fill-rule:evenodd;stroke:none;stroke-width:0.1"
           id="path983" /></g><g
         id="g1228"><path
           d="m 271.196,128.189 h -1.715 c -0.186,-0.406 -0.432,-0.786 -0.688,-1.13 -0.695,-0.954 -1.835,-1.355 -2.989,-1.508 v -0.947 c 0.559,-0.158 1.055,-0.469 1.45,-0.941 0.556,-0.667 0.793,-1.482 0.793,-2.342 v -10.162 c 0,-0.998 -0.321,-1.98 -1.247,-2.503 -0.214,-0.118 -0.441,-0.21 -0.676,-0.28 v -1.146 h 6.995 v 1.17 c -1.147,0.384 -1.923,1.299 -1.923,2.759 v 17.03"
           style="fill:#b68a34;fill-opacity:1;fill-rule:evenodd;stroke:none;stroke-width:0.1"
           id="path987" /><path
           d="m 290.364,120.318 c 0.434,0.315 0.905,0.883 1.242,1.296 0.402,0.497 0.585,1.043 0.585,1.682 0,0.918 -0.194,1.793 -0.682,2.573 -0.48,0.76 -1.131,1.314 -1.942,1.709 -0.949,0.466 -1.999,0.64 -3.052,0.64 -1.01,0 -2.011,-0.191 -2.886,-0.723 -0.76,-0.458 -1.371,-1.06 -1.786,-1.844 -0.401,-0.763 -0.611,-1.569 -0.611,-2.432 0,-0.941 0.176,-1.877 0.7,-2.675 0.338,-0.514 0.841,-1.27 1.304,-1.679 l 1.352,-1.197 -1.504,-1.001 c -0.524,-0.35 -1.175,-1.176 -1.555,-1.668 -0.654,-0.857 -0.847,-1.94 -0.847,-2.994 0,-0.904 0.232,-1.724 0.718,-2.486 0.513,-0.805 1.226,-1.388 2.074,-1.81 1.014,-0.5 2.113,-0.697 3.237,-0.697 1.117,0 2.193,0.229 3.186,0.749 0.927,0.482 1.676,1.148 2.234,2.037 0.564,0.891 0.806,1.866 0.806,2.918 0,1.198 -0.206,2.462 -0.914,3.454 -0.406,0.56 -1.089,1.489 -1.654,1.894 l -1.562,1.124 z m -3.298,0.148 c -0.555,0.323 -1.085,0.8 -1.544,1.25 -0.765,0.751 -1.182,1.698 -1.182,2.773 0,0.707 0.23,1.361 0.674,1.929 0.534,0.657 1.295,0.977 2.136,0.977 0.959,0 1.803,-0.399 2.386,-1.162 0.503,-0.656 0.764,-1.416 0.764,-2.244 0,-0.842 -0.192,-1.675 -0.698,-2.371 -0.298,-0.402 -0.652,-0.835 -1.074,-1.112 l -0.718,-0.472 z m -0.82,-4.055 c 0.731,-0.431 1.436,-1.073 2.048,-1.663 0.934,-0.908 1.495,-2.035 1.495,-3.348 0,-0.747 -0.251,-1.443 -0.648,-2.068 -0.572,-0.899 -1.501,-1.326 -2.553,-1.326 -1.18,0 -2.17,0.529 -2.804,1.527 -0.546,0.863 -0.779,1.845 -0.779,2.86 0,0.879 0.17,1.752 0.616,2.525 0.268,0.453 0.594,0.973 0.987,1.328 l 0.758,0.685 0.88,-0.52"
           style="fill:#b68a34;fill-opacity:1;fill-rule:evenodd;stroke:none;stroke-width:0.1"
           id="path991" /><path
           d="m 308.645,126.257 c 0.091,-0.811 0.026,-2.339 -0.319,-3.366 -0.208,-0.614 -0.561,-1.181 -0.971,-1.663 -0.85,-0.991 -1.682,-2.002 -2.516,-3.003 -0.94,-1.139 -1.705,-2.389 -2.287,-3.746 -0.614,-1.434 -0.836,-3.002 -0.836,-4.554 0,-0.811 0.198,-1.541 0.698,-2.181 0.438,-0.557 1.025,-0.732 1.72,-0.732 0.667,0 1.359,0.124 1.863,0.59 0.432,0.398 0.594,0.867 0.594,1.447 0,0.299 -0.022,0.639 -0.107,0.938 -0.093,0.345 -0.235,0.696 -0.375,1.022 -0.189,0.44 -0.362,0.891 -0.492,1.351 -0.146,0.515 -0.196,1.057 -0.196,1.59 0,1.264 0.468,2.527 1.048,3.633 0.602,1.145 1.214,2.285 1.84,3.416 0.635,1.154 1.121,2.398 1.504,3.662 0.328,1.066 0.505,2.188 0.58,3.31 h -1.05 c -0.161,-0.285 -0.414,-0.526 -0.683,-0.708 -0.905,-0.454 -1.699,-0.52 -2.662,-0.154 -0.371,0.139 -0.73,0.325 -1.074,0.512 -0.258,0.14 -0.523,0.275 -0.793,0.374 -0.163,0.059 -0.335,0.082 -0.508,0.082 -1.412,0 -2.887,-1.506 -3.95,-2.814 l 0.04,2.569 -0.615,-0.035 v -5.227 h 1.214 c 0.218,1.472 0.927,2.855 2.683,2.855 0.541,0 1.18,-0.352 1.651,-0.605 0.151,-0.08 0.49,-0.254 0.626,-0.275 1.095,-0.057 2.651,1.087 3.373,1.712"
           style="fill:#b68a34;fill-opacity:1;fill-rule:evenodd;stroke:none;stroke-width:0.1"
           id="path995" /><path
           d="m 327.907,111.891 h -1.198 c -0.296,-0.877 -0.927,-1.552 -2.044,-1.552 -0.563,0 -1.227,0.263 -1.745,0.48 -0.245,0.104 -0.736,0.335 -1.006,0.335 -1.138,0 -2.396,-0.344 -3.455,-0.74 -0.041,0.695 0.179,1.577 0.584,2.235 0.408,0.746 1.157,1.395 1.832,1.903 0.591,0.441 1.198,0.889 1.82,1.286 l 2.981,2.192 c 1.685,1.25 2.545,2.843 2.545,4.948 0,0.858 -0.257,1.661 -0.669,2.407 -0.482,0.87 -1.222,1.515 -2.077,2.008 -1.09,0.629 -2.394,0.825 -3.636,0.825 -1.013,0 -1.988,-0.211 -2.922,-0.599 -0.889,-0.369 -1.641,-0.912 -2.244,-1.662 -0.559,-0.695 -0.793,-1.491 -0.793,-2.379 0,-0.514 0.099,-1.003 0.363,-1.448 0.23,-0.389 0.525,-0.714 0.922,-0.936 0.365,-0.204 0.748,-0.317 1.167,-0.317 0.581,0 1.102,0.237 1.573,0.567 0.421,0.292 0.576,0.643 0.576,1.152 0,0.187 -0.017,0.604 -0.161,0.742 -0.119,0.111 -0.374,0.345 -0.523,0.411 l -1.291,0.451 c -0.074,0.727 0.244,1.49 1.031,2.244 0.47,0.506 1.116,0.71 1.791,0.71 2.502,0 3.189,-2.366 3.189,-4.452 0,-1.29 -0.373,-2.508 -1.004,-3.63 -0.642,-1.131 -1.474,-2.118 -2.455,-2.954 l -1.833,-1.609 c -0.749,-0.618 -1.404,-1.651 -1.87,-2.493 -0.732,-1.313 -0.924,-2.998 -0.924,-4.478 v -0.308 h 1.108 c 0.357,0.935 1.121,1.587 2.33,1.587 0.682,0 1.444,-0.438 2.02,-0.782 0.518,-0.313 1.057,-0.608 1.609,-0.847 0.432,-0.185 0.931,-0.24 1.396,-0.24 0.791,0 1.879,0.104 2.307,0.88 0.467,0.859 0.706,1.765 0.706,2.743 v 1.32"
           style="fill:#b68a34;fill-opacity:1;fill-rule:evenodd;stroke:none;stroke-width:0.1"
           id="path999" /></g></g><g
       transform="matrix(0.92604273,0,0,0.92604273,5.133441,42.999425)"
       id="g1092"><g
         id="g1046"><path
           id="path861"
           d="m 351.877,327.776 c -31.652,-2.744 -63.009,-23.036 -94.661,-25.779 -16.58,-1.436 -33.458,14.674 -50.038,13.237 -0.199,-1.492 0.199,-0.446 0,-1.94 -2.036,1.394 -4.669,0.696 -6.706,2.089 -0.149,-1.045 -0.074,-1.566 0.671,-3.06 -4.905,0.76 -9.004,-1.701 -9.501,-6.942 3.803,2.474 8.783,2.801 9.165,1.605 0.496,-1.547 -2.038,-2.626 -4.323,-3.396 2.708,-0.871 7.018,-2.154 10.284,-0.599 1.936,0.703 1.925,-2.102 0.464,-2.621 -2.437,-0.868 -8.6,-0.14 -10.344,-2.02 1.544,-0.466 2.718,-2.187 1.929,-2.172 -3.139,0.057 -10.535,-1.268 -10.788,-7.704 3.242,2.907 7.796,4.2 8.494,2.649 0.585,-1.298 -1.162,-2.2 -4.467,-2.683 -1.97,-0.288 -3.17,-2.415 -3.84,-2.915 2.812,1.076 3.44,-0.552 5.913,-0.811 2.181,-0.228 5.021,2.024 7.572,0.027 -4.786,-2.581 -9.191,-5.89 -14.135,-4.466 -2.076,0.598 -4.675,2.63 -4.94,6.482 -3.168,-3.271 -3.297,-9.127 -0.329,-11.486 2.383,-1.894 5.413,-2.576 12.363,-1.876 0.038,-5.077 -1.303,-7.531 -3.064,-9.331 -1.76,-1.803 -4.685,-0.859 -5.579,-5.413 1.441,0.797 2.285,0.747 3.726,0.746 -0.522,-3.409 -3.204,-4.427 -3.726,-9.405 5.296,3.26 9.067,2.172 12.592,3.284 -1.555,-3.946 -6.979,-7.887 -8.298,-8.531 -0.99,-0.482 -1.986,-0.92 -3.246,-1.2 -1.633,-0.362 -3.708,-0.458 -6.786,-0.048 2.391,-3.858 5.162,-6.018 9.13,-6.473 5.071,-0.581 8.104,3.981 11.808,3.562 -3.85,-2.985 -4.494,-10.598 -11.847,-13.586 2.484,-0.995 3.7,-1.169 5.886,-0.597 -1.789,-1.237 -1.661,-3.005 -2.827,-4.551 -1.166,-1.545 -2.582,-3.091 -5.368,-4.557 4.378,-1.38 13.062,2.276 17.881,8.287 -0.746,-5.599 -0.87,-11.321 2.534,-16.125 1.215,3.596 2.919,7.944 5.846,10.468 2.265,1.953 5.371,5.064 6.523,8.12 0.645,-1.691 -0.05,-3.757 0.595,-5.449 0.66,0.921 1.758,1.978 2.808,2.993 0.921,0.89 1.224,0.502 0.77,-0.568 -0.772,-1.816 -1.845,-3.594 -2.72,-5.17 -2.081,-3.747 -4.263,-6.475 -8.16,-6.661 2.712,-2.572 6.673,-4.31 10.581,-1.194 0.966,-3.333 2.03,-7.375 7.078,-7.913 -1.547,5.033 -1.106,8.06 -0.058,12.19 0.987,3.892 4.97,6.355 6.392,9.831 0.484,-2.618 0.708,-3.849 0,-6.27 1.619,1.484 2.501,2.572 3.726,5.449 0.067,-4.802 -1.004,-7.762 2.533,-11.495 0.036,2.426 1.153,5.711 2.981,7.539 -0.737,-5.024 1.099,-8.645 6.333,-8.286 -1.716,4.468 -1.443,6.409 2.012,9.481 -2.134,-7.204 0.188,-11.759 6.409,-11.272 -2.029,2.645 -2.358,4.633 -1.998,6.133 0.451,1.875 1.425,2.716 2.89,2.675 4.729,-0.135 0.9,-9.076 -0.894,-12.915 4.858,1.128 7.807,4.549 9.687,9.257 2.16,-3.283 1.861,-6.269 1.043,-8.958 5.054,1.61 6.34,4.748 6.408,10.152 1.787,-1.741 2.284,-2.388 2.086,-7.315 3.558,2.078 5.292,5.087 5.662,8.958 1.698,-3.673 2.101,-6.478 1.12,-12.84 4.819,1.258 5.733,4.113 8.22,6.317 1.934,1.715 3.83,0.357 5.116,2.641 0.84,-3.527 1.075,-5.131 -1.863,-8.062 5.207,-0.006 7.824,3.516 10.507,9.182 0.248,-1.293 0.719,-2.364 1.489,-3.733 1.616,1.046 2.186,2.689 2.683,4.181 1.354,-5.746 2.621,-9.427 8.27,-12.094 -1.286,5.016 -1.671,7.628 1.267,12.242 2.658,-0.919 4.496,-4.528 4.844,-7.613 1.689,1.008 2.187,2.427 3.167,4.264 0.978,1.837 2.521,1.557 3.24,4.021 0.398,-1.542 1.168,-1.293 1.565,-2.836 0.471,0.224 1.911,0.797 2.981,3.732 0.256,-0.139 0.217,-1.333 0.433,-2.659 0.451,-2.77 0.381,-5.468 -1.476,-7.568 4.707,-0.076 9.65,4.18 10.581,12.466 4.42,-2.214 4.892,-5.622 3.427,-9.107 4.191,0.365 7.215,4.027 5.737,9.332 1.962,-1.12 3.105,-3.733 2.012,-7.689 6.227,2.129 4.876,6.647 5.362,10.064 0.142,1.003 1.658,2.07 3.357,1.955 7.176,-0.49 4.742,-8.833 -0.896,-11.795 15.191,0.273 15.349,9.392 14.232,17.692 3.4,-2.987 7.574,-4.325 10.837,-4.188 3.94,0.167 6.553,2.485 4.884,6.651 -2.595,-2.411 -7.763,-0.355 -6.854,2.24 1.015,2.897 4.063,2.346 7.375,1.448 1.858,-0.505 7.974,0.596 1.268,8.405 -4.496,-4.827 -9.518,-0.846 -7.674,3.584 0.322,0.775 1.836,1.55 3.075,1.147 2.537,-0.829 5.707,-3.879 7.952,-3.014 -3.353,2.836 -0.472,5.715 -5.885,8.808 -0.933,0.533 0.27,1.972 1.364,2.922 0.892,0.775 1.836,1.191 3.018,1.351 1.413,0.191 3.13,-0.385 3.366,-5.019 6.253,0.058 6.546,4.724 6.362,6.352 -0.204,1.805 -1.281,2.989 -3.307,3.903 -2.294,1.034 -8.046,0.008 -11.027,2.659 9.917,-0.381 14.008,3.425 14.901,7.688 -7.318,-1.844 -11.857,-0.647 -15.796,3.883 5.571,5.264 11.81,7.826 17.584,6.718 -0.932,2.254 -2.05,3.349 -4.768,3.807 7.65,1.021 9.339,6.521 9.911,12.467 -4.565,-4.18 -5.299,-4.902 -11.849,-5.897 1.466,1.218 2.112,1.393 3.95,3.209 -2.037,-0.291 -4.894,0.841 -5.589,2.389 3.172,1.593 7.059,1.445 10.954,-0.447 -0.571,4.848 -6.479,7.445 -12.966,7.613 1.298,1.829 2.478,4.941 7.452,1.793 0.566,2.243 -0.197,6.763 -7.004,7.016 14.564,6.357 16.154,17.302 14.365,21.999 -0.909,2.388 -5.737,5.385 -10.119,3.083 3.858,-0.973 5.043,-5.095 4.795,-7.187 -0.321,-2.704 -2.486,-5.26 -6.082,-6.886 -4.072,-1.842 -6.793,-2.197 -11.752,-0.707 4.123,4.154 4.257,7.356 3.651,9.703 -2.821,-2.86 -5.762,-2.308 -9.537,-3.433 11.219,9.316 16.894,18.62 12.518,28.739 -3.508,-11.091 -13.03,-17.935 -17.687,-20.696 -10.832,-6.421 -21.506,-3.619 -26.334,-6.306 -2.473,-1.377 -4.403,-6.53 -4.859,-9.351 z"
           style="fill:#231f20;fill-opacity:1;fill-rule:evenodd;stroke:none;stroke-width:0.1" /><path
           id="path962"
           d="m 193.822,308.029 c 1.141,0.437 2.333,0.749 3.497,0.907 1.511,0.207 4.224,0.311 4.812,-1.526 0.487,-1.522 -0.348,-2.65 -1.562,-3.484 1.945,-0.375 3.973,-0.455 5.601,0.32 0.021,0.01 0.041,0.02 0.061,0.029 0.021,0.008 0.041,0.015 0.063,0.023 3.712,1.347 4.585,-4.106 1.404,-5.238 -1.485,-0.529 -5.543,-0.544 -7.991,-0.988 0.722,-0.808 1.096,-1.787 0.427,-2.661 -0.481,-0.629 -0.778,-0.634 -1.343,-0.623 -2.735,0.051 -6.09,-0.779 -7.955,-2.849 2.693,1.348 5.879,2.146 6.955,-0.246 1.463,-3.249 -3.392,-4.316 -5.534,-4.628 -0.187,-0.027 -0.363,-0.082 -0.532,-0.158 0.716,-0.307 1.429,-0.693 2.548,-0.811 0.799,-0.083 2.339,0.46 3.166,0.643 2.06,0.441 9.454,-0.776 4.922,-3.221 -4.647,-2.506 -9.602,-6.185 -15.179,-4.579 -2.325,0.67 -4.083,2.299 -5.068,4.363 -0.91,-2.411 -0.864,-5.423 1.048,-6.943 3.007,-2.391 7.792,-1.941 11.359,-1.581 0.506,0.051 1.012,0.102 1.518,0.153 0.004,-0.509 0.007,-1.017 0.011,-1.526 0.029,-3.923 -0.641,-7.43 -3.459,-10.313 -1.44,-1.474 -2.966,-1.383 -4.037,-2.321 0.364,0.015 0.752,0.016 1.189,0.016 0.539,0 1.078,0 1.618,-10e-4 -0.082,-0.533 -0.163,-1.066 -0.245,-1.599 -0.411,-2.691 -2.032,-4.226 -3.012,-6.577 1.303,0.529 2.656,0.895 4.121,1.125 1.699,0.267 3.499,0.292 5.165,0.655 0.269,0.059 0.537,0.129 0.801,0.212 0.403,0.127 0.806,0.255 1.21,0.382 2.382,0.752 1.504,-0.212 0.502,-2.441 -1.423,-3.164 -5.897,-7.541 -8.983,-9.047 -2.959,-1.444 -5.426,-1.81 -8.365,-1.628 1.494,-2.253 4.022,-3.243 6.955,-3.457 4.543,-0.334 7.615,4.382 11.863,3.556 1.869,-0.363 2.81,-1.057 0.696,-2.703 -1.728,-1.344 -3.142,-4.271 -4.264,-6.176 -1.335,-2.263 -2.806,-4.161 -4.76,-5.613 1.231,-0.004 3.445,0.426 4.471,1.037 1.973,1.175 0.557,-0.797 -0.795,-2.284 -0.469,-0.517 -1.073,-1.226 -1.448,-1.808 -0.65,-1.011 -1.005,-2.437 -1.734,-3.405 -0.693,-0.917 -1.397,-1.707 -2.161,-2.41 3.626,0.776 7.685,3.268 9.815,5.104 0.966,0.832 1.868,1.746 2.665,2.742 0.39,0.486 0.756,0.994 1.171,1.461 0.224,0.253 1.675,1.541 1.537,-0.658 -0.039,-0.623 -0.164,-1.238 -0.246,-1.856 -0.566,-4.251 -0.795,-8.693 0.883,-12.619 1.207,3.054 2.815,6.132 5.212,8.199 1.987,1.713 4.555,4.272 5.79,6.782 0.448,0.915 1.031,2.118 0.937,3.16 -0.083,0.905 0.897,-0.129 1.43,-0.881 0.771,-1.089 0.943,-2.957 0.933,-4.233 0.676,0.65 5.007,4.864 4.294,1.516 -0.616,-2.892 -1.849,-5.559 -3.286,-8.145 -1.575,-2.838 -3.383,-5.436 -6.159,-6.655 2.045,-1.104 4.293,-1.198 6.498,0.561 0.541,0.431 1.082,0.863 1.624,1.294 0.192,-0.665 0.385,-1.329 0.578,-1.994 0.774,-2.672 1.467,-5.211 3.793,-6.347 -0.783,3.654 -0.478,6.548 0.545,10.579 0.793,3.127 3.023,5.085 4.758,7.267 1.525,1.917 2.545,4.268 3.337,6.57 0.287,-1.551 0.723,-2.543 1.011,-4.095 0.144,-0.778 0.267,-1.462 0.352,-2.107 1.266,2.457 1.432,2.914 2.485,5.465 0.515,-1.139 0.971,-4.187 0.865,-6.57 -0.092,-2.066 -0.23,-3.882 0.433,-5.662 0.582,1.837 1.537,3.607 2.755,4.826 0.989,0.99 1.457,1.27 2.743,2.184 -0.218,-1.49 -0.423,-3.055 -0.511,-4.562 -0.165,-2.713 0.614,-4.868 3.11,-5.398 -0.937,3.297 -0.47,5.519 2.124,8.142 1.2,1.214 3.089,2.057 3.943,2.404 -0.425,-1.436 -0.739,-2.606 -1.047,-4.072 -0.764,-3.643 -0.609,-7.294 2.75,-8.195 -0.745,1.524 -1.132,3.195 -0.724,4.895 0.529,2.206 1.887,3.808 4.281,3.74 0.965,-0.027 1.872,-0.333 2.553,-1.039 2.122,-2.202 0.624,-7.149 -0.869,-10.791 2.75,1.537 4.525,4.157 5.779,7.299 0.328,0.825 0.547,1.352 0.876,2.175 0.6,-0.703 1.087,-1.185 1.575,-1.927 1.582,-2.404 2.093,-4.789 1.806,-7.34 2.547,1.624 3.048,4.165 3.094,7.788 0.013,1.079 -0.009,1.747 0.004,2.826 0.773,-0.492 1.583,-1.095 2.355,-1.848 1.988,-1.936 2.493,-3.41 2.563,-5.504 1.313,1.271 2.153,2.811 2.575,4.658 0.349,1.529 0.561,3.215 0.709,4.876 1.2,-1.161 2.06,-2.37 2.677,-3.921 1.416,-3.551 1.504,-6.549 1.068,-10.215 2.518,1.245 3.212,3.149 5.605,5.271 1.717,1.522 3.727,1.036 4.623,2.003 0.729,0.782 1.386,2.142 1.536,3.183 0.637,-1.334 1.115,-2.676 1.426,-4.118 0.484,-2.238 0.583,-3.828 -0.124,-5.423 2.888,1.394 4.512,4.602 5.964,7.67 0.607,1.282 0.916,1.855 1.523,3.136 0.301,-1.571 0.977,-3.626 1.608,-5.134 1.138,1.764 1.757,4.254 2.415,6.228 0.412,-0.992 0.861,-2.469 1.236,-4.058 1,-4.245 1.866,-7.263 4.848,-9.562 -0.642,3.597 -0.302,6.266 2.164,10.138 0.197,0.309 0.393,0.618 0.59,0.927 0.346,-0.12 0.691,-0.24 1.037,-0.36 2.539,-0.879 4.307,-3.497 5.189,-6.167 0.43,0.686 0.762,1.449 1.14,2.158 0.841,1.579 2.223,1.95 2.893,3.174 0.588,1.075 1.206,2.63 1.546,3.795 0.421,-1.632 0.953,-2.182 1.374,-3.255 0.12,-0.465 0.392,-0.784 0.685,-1.155 0.614,0.65 1.91,3.115 2.646,4.325 1.439,-2.151 1.576,-4.455 1.674,-5.056 0.332,-2.044 0.395,-4.087 -0.22,-5.951 4.028,1.543 6.117,6.734 6.571,10.78 0.074,0.66 0.148,1.321 0.222,1.98 0.594,-0.297 1.188,-0.595 1.782,-0.892 3.746,-1.876 5.409,-4.822 4.826,-8.385 2.407,1.212 3.194,4.063 2.377,6.994 -0.302,1.085 -0.418,1.61 -0.72,2.695 0.866,-0.223 1.769,-0.557 2.748,-1.115 2.433,-1.389 3.224,-3.921 3.113,-6.485 2.524,1.822 1.715,4.467 2.196,7.848 0.301,2.122 2.89,3.278 4.827,3.146 2.108,-0.144 4.159,-0.95 5.165,-2.928 1.411,-2.773 0.156,-6.047 -1.911,-8.505 8.209,1.367 9.846,6.582 8.61,15.759 -0.165,1.226 -0.256,2.304 -0.421,3.531 0.93,-0.817 1.785,-1.485 2.716,-2.303 2.597,-2.281 6.349,-3.99 9.861,-3.843 2.506,0.107 4.19,1.09 4.05,3.154 -3.639,-1.251 -8.526,1.229 -7.273,4.809 1.441,4.114 5.777,3.217 9.051,2.329 0.469,-0.127 1.227,-0.029 1.676,0.135 1.957,0.712 0.312,3.322 -0.921,4.92 -2.222,-1.709 -5.181,-2.384 -7.531,-0.316 -1.856,1.635 -2.203,4.219 -1.278,6.442 0.703,1.689 3.133,2.475 4.79,1.935 0.953,-0.311 2.896,-1.542 4.545,-2.352 -0.634,1.968 -0.447,3.817 -3.598,5.618 -2.207,1.26 -0.434,3.97 1.362,5.428 0.971,0.788 2.019,1.068 3.204,1.363 0.589,0.148 1.176,0.205 2.01,-0.036 2.084,-0.602 2.842,-2.777 3.119,-4.8 2.407,0.39 4.042,1.887 3.723,4.702 -0.168,1.484 -1.207,2.21 -2.497,2.792 -1.098,0.495 -4.551,0.545 -5.937,0.737 -1.95,0.271 -3.939,0.813 -5.443,2.15 -0.966,0.859 -1.932,1.718 -2.898,2.577 1.291,-0.049 2.583,-0.099 3.875,-0.149 4.251,-0.163 10.27,0.456 12.647,4.409 -5.712,-0.975 -10.449,0.037 -14.643,4.862 -0.292,0.335 -0.584,0.671 -0.875,1.006 0.322,0.305 0.645,0.61 0.968,0.916 4.243,4.009 9.832,7.318 15.758,7.352 -1.451,1.049 -4.21,2.05 -5.927,2.36 1.995,0.533 3.361,0.857 5.424,1.506 3.845,1.209 5.627,3.649 6.464,7.17 -2.756,-2.262 -4.562,-2.901 -9.677,-3.678 -1.646,-0.25 -2.248,-0.314 -3.894,-0.564 1.549,1.289 2.638,2.931 4.305,4.178 -1.539,0.525 -2.94,1.481 -3.527,2.789 -0.182,0.405 -0.364,0.809 -0.545,1.214 0.396,0.199 0.792,0.398 1.189,0.596 2.892,1.453 6.089,1.533 9.109,0.719 -2.265,2.826 -7.422,3.736 -10.533,3.817 -0.868,0.023 -1.737,0.045 -2.605,0.068 0.502,0.708 1.005,1.417 1.508,2.125 0.372,0.525 0.693,1.076 1.084,1.592 1.784,2.358 3.951,2.538 6.214,1.634 -0.192,0.842 -0.653,1.692 -1.399,2.215 -2.438,1.705 -7.201,1.725 -9.524,1.812 1.859,0.811 2.789,1.213 4.65,2.025 5.151,2.248 10.111,5.776 12.62,10.955 1.284,2.652 2.089,6.422 1.002,9.277 -0.417,1.095 -1.95,2.087 -2.982,2.507 -0.698,0.284 -1.419,0.454 -2.141,0.495 1.775,-1.742 2.771,-4.312 2.478,-6.776 -0.45,-3.784 -3.603,-6.502 -6.889,-7.988 -4.679,-2.117 -7.762,-2.263 -12.725,-0.772 -0.739,0.222 -1.479,0.443 -2.218,0.666 0.543,0.547 1.087,1.096 1.631,1.644 1.722,1.733 3.225,3.747 3.47,6.077 -2.449,-1.372 -4.949,-1.217 -7.972,-2.118 -2.209,-0.425 -3.388,-0.875 -5.433,-1.084 1.743,1.448 2.405,2.037 4.149,3.485 7.055,5.859 14.921,13.959 13.242,23.456 -3.49,-7.433 -9.838,-13.541 -16.815,-17.677 -5.047,-2.992 -10.224,-4.195 -15.997,-4.742 -2.658,-0.252 -8.105,-0.324 -10.37,-1.584 -2.066,-1.149 -3.802,-6.128 -4.163,-8.358 -0.058,-0.356 -0.115,-0.713 -0.172,-1.069 -0.36,-0.032 -0.72,-0.063 -1.079,-0.094 -16.057,-1.391 -31.931,-7.311 -46.973,-12.81 -15.309,-5.597 -31.346,-11.552 -47.689,-12.969 -16.931,-1.466 -32.6,13.822 -48.71,13.316 0.001,-0.265 -0.033,-0.533 -0.07,-0.817 -0.099,-0.747 -0.199,-1.493 -0.298,-2.24 -0.622,0.425 -1.244,0.85 -1.865,1.276 -1.106,0.757 -2.613,0.767 -4.148,1.081 0.045,-0.09 0.092,-0.184 0.142,-0.284 0.4,-0.802 0.799,-1.604 1.2,-2.405 -0.886,0.137 -1.771,0.274 -2.657,0.411 -3.151,0.488 -5.814,-0.514 -7.108,-2.921"
           style="fill:#b28833;fill-opacity:1;fill-rule:evenodd;stroke:none;stroke-width:0.1" /></g><g
         id="g1067"><g
           id="g1012"><path
             style="fill:#231f20;fill-opacity:1;fill-rule:evenodd;stroke:none;stroke-width:0.1"
             d="m 368.568,358.084 c 4.917,0.1 6.45,5.102 10.73,5.599 4.116,0.479 4.421,-2.265 7.749,-3.509 -4.918,-0.796 -7.179,-5.235 -11.176,-5.674 -2.56,-0.281 -5.54,2.389 -7.303,3.584 z"
             id="path857" /><path
             style="fill:#231f20;fill-opacity:1;fill-rule:evenodd;stroke:none;stroke-width:0.1"
             d="m 227.295,380.628 h 30.997 c 1.737,5.847 6.505,10.524 12.815,15.826 -7.787,1.467 -15.265,0.322 -21.459,-5.375 h -13.412 c -6.856,5.93 -14.306,7.32 -21.609,5.226 5.041,-4.138 12.292,-10.474 12.668,-15.677 z"
             id="path877" /><path
             style="fill:#231f20;fill-opacity:1;fill-rule:evenodd;stroke:none;stroke-width:0.1"
             d="m 246.141,398.986 c 0.199,1.673 1.368,7.75 -2.522,10.225 -4.103,-2.37 -2.584,-9.585 -2.522,-10.307 -0.57,-0.438 -1.301,1.775 -2.824,2.783 -0.4,0.265 -0.854,0.44 -1.335,0.54 -1.409,0.294 -2.562,0.004 -3.43,-1.237 -0.942,-1.35 -0.745,-3.001 0.483,-4.116 0.388,-0.351 0.89,-0.626 1.524,-0.745 -0.156,0.763 -0.052,1.004 0.078,1.226 0.417,0.706 1.035,0.681 1.391,0.246 0.212,-0.258 0.136,-0.865 0.18,-1.075 0.182,-0.855 0.413,-1.834 1.151,-2.802 1.298,-1.701 3.145,-2.372 5.298,-2.344 2.104,-0.028 3.884,0.603 5.191,2.213 0.821,1.01 1.066,2.039 1.255,2.933 0.044,0.21 -0.032,0.817 0.181,1.075 0.356,0.435 0.973,0.46 1.39,-0.246 0.131,-0.222 0.234,-0.463 0.078,-1.226 0.635,0.119 1.137,0.394 1.525,0.745 1.28,1.16 1.422,2.88 0.39,4.242 -0.874,1.152 -1.988,1.392 -3.337,1.111 -0.481,-0.1 -0.948,-0.259 -1.335,-0.54 -1.649,-1.196 -2.235,-3.363 -2.81,-2.701 z"
             id="path879" /><path
             id="path855"
             style="fill:#231f20;fill-opacity:1;fill-rule:evenodd;stroke:none;stroke-width:0.0999997"
             d="m 247.52344,367.75539 c -5.214,0 -9.89468,-1.48813 -14.34668,-4.07813 -7.43899,0.412 -14.62507,-3.11942 -19.49707,-8.60742 -4.95099,-5.577 -8.11857,-13.26775 -9.18456,-20.61475 -1.39101,-9.584 0.61027,-19.05914 5.61327,-27.36914 0.10401,-10.816 4.10826,-18.10658 14.53125,-21.76758 2.39901,-6.861 5.95585,-9.90378 11.96485,-13.67578 -1.289,-4.196 -5.9703,-10.20706 -9.1333,-12.91406 -2.349,-2.01101 -4.12932,-2.56305 -6.75732,-3.87305 -1.464,-0.729 -2.61048,-1.5735 -3.68848,-2.8125 -1.517,-1.745 -1.55444,-3.36936 -1.62744,-5.54736 l -0.0527,-1.61719 1.2085,1.06787 c 1.967,1.735 4.12289,3.25947 6.62988,3.95948 -1.47599,-2.27301 -2.36027,-4.03419 -2.78027,-7.13819 l -0.25049,-1.8501 1.39893,1.23194 c 2.829,2.489 5.14478,3.89943 8.42578,5.27343 0.128,-1.205 -0.26014,-2.0176 -0.64014,-3.3706 l -0.34277,-1.22168 1.21582,0.36474 c 1.569,0.47001 5.14225,1.58704 5.90625,3.18604 1.342,2.816 -0.5862,3.92357 -0.2622,6.83057 0.576,5.184 18.31666,11.43228 23.68066,16.00927 0.155,0.13301 0.3031,0.27416 0.4541,0.41016 9.544,-2.198 18.74196,-2.48477 28.31397,-0.34277 7.858,1.759 14.97995,4.942 22.37695,7.979 5.471,2.246 10.93888,4.28568 16.75488,5.45069 4.64,-6.25601 11.0802,-8.48622 18.53321,-8.24122 -0.07,-0.058 -0.13901,-0.11678 -0.20801,-0.17578 -0.624,-0.535 -1.2047,-1.08535 -1.7417,-1.65235 l -0.29297,-0.0176 c -5.034,-0.297 -10.05659,-0.51301 -14.95459,-1.81201 -1.767,-0.469 -3.44349,-1.05514 -5.12549,-1.76513 -4.151,-1.75401 -7.83985,-3.50376 -12.17285,-4.96875 -0.662,-0.22401 -1.33941,-0.40239 -2.02441,-0.54639 -2.307,-0.487 -4.71648,-0.59585 -7.06348,-0.81885 -2.871,-0.272 -5.58064,-0.70665 -8.32764,-1.61865 -6.616,-2.194 -12.3361,-8.57502 -15.66211,-14.49903 l -1.08252,-1.93066 1.99219,0.96094 c 5.84,2.81199 11.83256,6.11405 18.14356,7.72704 6.33199,1.61901 12.94384,0.80836 19.36084,1.86036 4.991,0.818 9.61831,4.03038 14.42431,5.58837 1.756,0.56801 4.83968,0.97088 6.84668,0.79688 -0.567,-1.936 -1.02259,-3.95827 -1.45459,-6.05126 -0.333,-1.611 0.044,-1.6377 -1.58496,-2.0127 -4.07,-0.939 -5.97574,-1.59901 -8.78174,-5.08301 l -1.28613,-1.59814 1.99658,0.48633 c 2.018,0.48999 3.33671,0.68934 5.05372,0.52734 -1.491,-1.437 -2.20163,-3.44238 -2.39063,-5.58838 l -0.1333,-1.51904 1.23339,0.88769 c 2.058,1.483 3.95838,2.63203 6.23438,3.62402 0.415,-1.929 0.23452,-3.77809 0.33252,-5.76709 l 0.063,-1.26416 1.03271,0.72656 c 1.773,1.24401 3.33159,2.66918 4.07959,4.68018 0.776,-0.5 1.51398,-1.22248 2.00098,-1.91748 l 0.95361,-1.35791 0.29883,1.62744 c 0.596,3.246 -1.62461,8.11713 -0.74561,10.93213 0.965,3.096 5.02981,5.92768 7.54981,7.97168 10.654,-0.843 25.27337,-1.14686 34.52636,4.86914 6.41601,4.17 9.71169,10.98301 9.84669,18.58301 0.25899,14.73 -7.04761,27.81289 -19.22461,35.98389 -7.873,5.284 -18.19029,8.08373 -27.46729,9.42773 l -1.10742,0.15528 c -0.566,0.20799 -1.41747,0.37866 -1.70948,0.70166 -0.77799,0.859 -0.59595,2.11446 0.87306,2.62646 0.58499,0.205 1.09683,0.45638 0.23583,1.08838 -0.675,0.497 -2.46884,1.01934 -3.98583,0.42334 -0.909,-0.357 -1.98654,-0.87362 -2.99854,-1.05762 -0.70601,-0.128 -1.0109,0.0308 -1.21289,0.27686 -0.156,0.192 -0.32897,0.46369 -0.18897,0.95068 0.058,0.199 0.40629,0.55408 0.57129,0.58008 1.145,0.179 1.13588,0.77774 0.0469,1.17774 -2.56901,0.944 -7.26813,1.59778 -11.95313,-2.24121 -0.259,-0.213 -1.56109,-1.26704 -2.49609,-0.56104 -0.192,0.144 -0.36496,0.51455 -0.35596,0.89356 0.007,0.33399 0.17815,0.81438 0.68116,0.92138 0.65799,0.141 0.63471,0.4315 0.38671,0.72949 -0.336,0.40401 -0.77141,0.55244 -1.27441,0.66944 -1.36401,0.31699 -2.65405,0.18661 -3.97705,-0.27539 -1.00001,-0.348 -1.77988,-0.82002 -2.29688,-1.16602 -1.589,-1.062 -3.38908,-2.98924 -3.78808,-3.44824 -0.46001,-0.529 -1.2882,-0.31441 -1.5542,-0.0454 -0.82701,0.833 -0.0241,1.85709 0.31494,2.01708 1.029,0.486 0.53364,1.2838 -0.36036,1.2378 -2.99499,-0.034 -5.32989,-1.47708 -7.04589,-3.10107 -1.42,-1.34501 -2.3015,-2.83854 -3.8335,-3.54054 -0.518,-0.23799 -1.8309,-0.40266 -2.0039,0.59034 -0.065,0.375 0.0671,0.95945 0.6621,1.46045 0.567,0.477 0.31009,0.7732 0.0381,1.01221 -0.23499,0.20599 -0.97335,0.23931 -1.48535,0.17431 -1.024,-0.132 -1.55552,-0.50029 -2.31152,-0.94629 -2.394,-1.413 -3.99982,-3.86336 -5.71582,-5.92236 -0.692,-0.83 -1.72268,-1.07322 -2.45068,-0.47022 -1.23801,1.02701 0.13787,3.24209 1.54687,3.30908 1.18,0.056 0.40856,0.88247 -0.12744,1.12647 -0.782,0.357 -1.77604,0.3968 -2.54004,0.2168 -1.679,-0.399 -3.10824,-1.46724 -4.09423,-2.69825 -1.98501,-2.481 -3.81931,-5.15914 -5.27931,-6.20214 -0.637,-0.456 -1.49466,-0.23996 -1.82665,0.12304 -0.60101,0.65801 -0.75492,1.46042 -0.0659,2.23243 0.301,0.337 0.69758,0.42946 1.24658,0.54346 0.719,0.14899 0.75098,0.50371 -0.24903,1.13671 -0.64599,0.409 -2.06512,0.42755 -2.95312,0.20654 -1.3,-0.323 -2.74674,-0.9172 -4.01074,-1.7622 -3.513,-2.353 -4.72399,-6.10375 -9.33399,-7.59375 -11.06699,-0.016 -29.17209,0.84985 -31.37109,13.77685 -0.848,4.97801 2.47666,11.04171 6.22266,14.32471 2.557,-3.666 6.06138,-5.23277 10.56738,-5.38477 2.752,-0.093 5.81407,0.75559 8.24707,1.99658 4.375,0.61401 9.70293,0.32837 14.14893,0.29737 2.629,-0.018 5.25918,-0.10985 7.88818,-0.0688 2.162,0.033 2.06307,1.18983 3.10107,2.27783 3.10801,3.25101 -0.9087,2.99112 -2.9707,3.01611 -0.0433,5.5e-4 -0.0844,-3.4e-4 -0.12744,0 0.25621,0.0187 0.51885,0.042 0.77197,0.0586 1.85,-0.046 5.09847,0.32947 7.02247,0.002 2.18199,-0.374 5.32817,-0.81983 8.32617,-4.25684 0.198,1.22001 0.54497,1.99058 1.04297,2.53858 1.54,-2.139 2.9803,-4.12868 5.21631,-5.07568 0.44699,1.54299 1.93648,2.41293 2.97949,2.83593 3.477,-0.945 6.97756,-2.83593 10.58056,-2.83593 2.79701,0 4.52081,1.59169 8.19581,2.38769 -1.689,1.344 -5.2896,0.85001 -4.76661,3.58301 0.225,1.176 3.26199,2.39909 7.667,0.99609 2.07199,-0.658 3.92521,-1.89481 5.61621,-2.77881 3.172,-1.659 7.97454,-1.12771 11.08154,0.73829 -4.526,0.512 -5.69595,4.90712 -0.14795,3.70312 3.359,-0.729 6.95298,-2.84827 10.35498,-2.50927 6.843,0.68299 10.14697,6.15974 12.66797,8.51073 -5.366,0.67101 -9.58816,3.33357 -10.43116,4.85157 2.83701,1.204 5.34973,4.16526 12.21973,1.34326 -2.20399,3.525 -7.16992,6.28547 -10.94092,6.68848 -5.17699,0.553 -10.78448,-1.39793 -14.77148,-3.27393 -2.639,-1.242 -3.75322,-2.90772 -5.65723,-2.74073 0.843,2.36201 3.25292,4.27835 5.58692,5.29835 -3.824,0.994 -7.80791,-0.32526 -10.62891,-2.09327 -2.722,1.27101 -4.89301,0.89805 -6.58301,0.22706 1.813,-1.443 3.99892,-4.82678 1.56592,-6.71777 -1.219,5.39899 -4.5211,6.24564 -6.5581,6.86865 0.93099,-3.31101 0.37385,-5.64507 -2.45215,-5.99707 1.17,3.14599 -0.89355,2.80614 0.81445,6.36913 -6.11,-1.167 -10.55029,-3.18804 -16.42529,-11.16504 -1.077,-1.52899 -2.58268,-1.65534 -3.09668,-0.25634 -0.649,1.765 0.0762,3.13466 0.97119,4.18067 -4.471,-0.816 -7.37762,-4.64712 -13.26563,-6.12012 -0.23499,-0.0588 -0.47979,-0.0978 -0.7207,-0.14502 1.63991,1.7384 2.53258,5.59086 0.56689,5.7539 -4.128,0.344 -7.57396,-0.47178 -11.70996,0.57422 -5.11999,1.294 -7.38889,6.08098 -12.2959,6.97998 -3.933,2.447 -8.60096,3.67383 -13.20996,3.67383 z" /></g><g
           id="g1042"><path
             style="fill:#b28833;fill-opacity:1;fill-rule:evenodd;stroke:none;stroke-width:0.1"
             d="m 228.477,382.018 h 28.809 c 1.928,5.344 6.266,9.731 10.578,13.495 -6.362,0.599 -12.303,-0.884 -17.275,-5.457 l -0.398,-0.367 -14.473,10e-4 -0.391,0.338 c -5.199,4.497 -11.142,6.585 -17.643,5.54 4.186,-3.56 9.635,-8.728 10.793,-13.55"
             id="path1321" /><path
             style="fill:#b28833;fill-opacity:1;fill-rule:evenodd;stroke:none;stroke-width:0.1"
             d="m 234.569,398.319 c 0.875,1.165 2.492,1.38 3.488,0.165 0.466,-0.567 0.435,-1.078 0.48,-1.729 0.173,-0.811 0.366,-1.509 0.883,-2.188 1.042,-1.365 2.512,-1.819 4.202,-1.797 1.632,-0.022 3.049,0.401 4.103,1.699 0.573,0.705 0.778,1.425 0.962,2.286 0.044,0.651 0.013,1.162 0.478,1.727 0.996,1.216 2.614,1.002 3.49,-0.163 0.386,0.604 0.342,1.321 -0.139,1.957 -0.529,0.697 -1.122,0.762 -1.948,0.591 -0.263,-0.055 -0.579,-0.144 -0.802,-0.305 -1.223,-0.888 -2.839,-4.719 -4.73,-2.544 -0.241,0.32 -0.444,0.661 -0.294,1.132 0.301,2.529 0.858,6.281 -1.152,8.311 -2.033,-1.982 -1.318,-5.997 -1.108,-8.438 l -0.01,-0.645 c -0.033,-0.494 -0.44,-0.778 -0.87,-0.957 -1.736,-0.727 -2.92,2.328 -4.096,3.107 -0.256,0.17 -0.552,0.276 -0.851,0.339 -0.878,0.183 -1.477,0.086 -2.007,-0.673 -0.435,-0.624 -0.448,-1.303 -0.079,-1.875"
             id="path1317" /><path
             id="path956"
             style="fill:#b28833;fill-opacity:1;fill-rule:evenodd;stroke:none;stroke-width:0.0999997"
             d="m 355.24659,364.95753 c -4.658,0.498 -9.8762,-1.19487 -14.0332,-3.15087 -2.129,-1.00101 -3.90007,-3.0837 -6.37207,-2.86671 l -1.7915,0.15675 0.60498,1.69482 c 0.49599,1.391 1.41975,2.62811 2.55175,3.6621 -1.974,-0.288 -3.90289,-1.07304 -5.5459,-2.10204 l -0.64014,-0.40284 -0.687,0.32081 c -1.15101,0.53699 -2.24436,0.77473 -3.36036,0.69873 1.569,-2.201 2.2302,-5.12486 -0.21679,-7.02686 -0.576,-0.447 -1.15106,-0.8958 -1.72706,-1.3418 -0.15999,0.711 -0.32046,1.42181 -0.48046,2.13281 -0.609,2.70101 -1.5852,4.06391 -3.4292,5.00391 0.121,-2.55 -0.86123,-4.80805 -4.05322,-5.20605 -0.695,-0.096 -1.39094,-0.0537 -2.08595,0.0513 l 0.61085,1.81201 c 0.32899,0.883 0.36331,1.25467 0.17431,2.13867 -0.146,0.683 -0.17965,1.28057 -0.11865,1.85156 -5.906,-1.601 -9.22347,-4.6362 -13.23047,-10.0752 -1.49599,-2.12699 -4.51018,-2.71568 -5.53417,0.0704 -0.29201,0.792 -0.38455,1.55662 -0.31056,2.28662 -1.29,-0.65 -2.53253,-1.48191 -3.74853,-2.21192 -2.119,-1.27099 -4.18026,-2.28127 -6.59326,-2.88427 -6.66512,-1.66744 -14.82559,1.04032 -20.93409,-2.77148 0.0547,-0.36679 0.18134,-0.70881 0.36621,-1.00782 0.17785,-0.28763 0.40913,-0.41087 0.63429,-0.62988 4.33053,1.06846 9.39181,1.58664 13.32128,1.84424 l 0.063,0.003 0.063,-0.002 c 2.348,-0.059 4.89968,0.37942 7.22168,-0.0175 3.05901,-0.52301 5.32531,-1.24774 7.46631,-3.05274 0.176,0.319 0.3876,0.62188 0.64161,0.90088 l 1.15429,1.26855 1.00049,-1.3916 c 0.982,-1.36399 2.08462,-2.96498 3.51562,-3.97998 0.747,1.01 1.85576,1.74031 3.03077,2.21631 l 0.43506,0.17578 0.45117,-0.12305 c 3.24099,-0.88099 6.86382,-2.78906 10.21581,-2.78906 0.582,0 1.13583,0.0886 1.69483,0.24463 0.888,0.247 1.70779,0.56709 2.52979,0.89209 -1.413,0.545 -2.59865,1.41952 -2.16065,3.70752 0.677,3.548 7.0641,2.8191 9.45411,2.05811 2.14199,-0.681 3.87786,-1.84756 5.83886,-2.87256 1.871,-0.979 4.42959,-1.03912 6.70459,-0.49512 -2.826,2.268 -1.7991,6.29643 3.87891,5.06543 3.02,-0.656 6.92985,-2.78484 9.92285,-2.48584 2.815,0.281 5.02486,1.47376 7.13086,3.30176 1.03299,0.895 2.01004,1.96006 3.01904,2.95606 -3.405,0.906 -7.68821,2.70084 -8.99121,5.04784 l -0.75,1.35059 1.42236,0.60351 c 1.674,0.71001 2.89549,1.69236 4.75049,2.23536 1.209,0.353 2.41491,0.4536 3.60791,0.3706 -2.055,1.47401 -4.54962,2.53616 -6.68262,2.76416 z" /><path
             style="fill:#b28833;fill-opacity:1;fill-rule:evenodd;stroke:none;stroke-width:0.1"
             d="m 371.852,357.438 c 1.312,-0.889 2.752,-1.679 3.867,-1.556 2.649,0.291 4.911,3.077 8.114,4.675 -1.267,1.026 -2.351,1.981 -4.374,1.745 -2.892,-0.336 -4.496,-3.417 -7.607,-4.864"
             id="path1333" /><path
             style="fill:#698467;fill-opacity:1;fill-rule:evenodd;stroke:none;stroke-width:0.1"
             d="m 265.477,315.353 c 7.893,0.183 15.366,1.542 22.919,3.889 6.663,2.071 13.008,4.813 19.545,7.197 12.362,4.508 25.021,5.29 37.917,3.887 l -0.135,0.403 c -0.39,1.026 -0.126,2.103 0.609,2.895 -0.482,0.033 -0.969,-0.018 -1.305,-0.15 -1.079,-0.423 -2.104,-0.92 -3.258,-1.131 -0.964,-0.174 -1.887,-0.029 -2.538,0.767 -0.529,0.649 -0.681,1.406 -0.447,2.215 0.043,0.15 0.112,0.302 0.2,0.449 -3.32,0.772 -6.614,-0.177 -9.319,-2.394 -1.177,-0.966 -2.839,-1.634 -4.215,-0.595 -0.607,0.459 -0.924,1.288 -0.907,2.035 0.008,0.368 0.095,0.724 0.251,1.04 -0.88,0.098 -1.722,-0.038 -2.589,-0.341 -0.707,-0.246 -1.359,-0.591 -1.98,-1.007 -1.187,-0.794 -2.577,-2.132 -3.512,-3.206 -0.896,-1.031 -2.643,-1.068 -3.591,-0.112 -0.72,0.726 -0.893,1.765 -0.615,2.666 -1.715,-0.374 -3.223,-1.303 -4.533,-2.544 -1.41,-1.333 -2.369,-2.95 -4.21,-3.794 -1.505,-0.691 -3.626,-0.259 -3.953,1.617 -0.081,0.465 -0.023,0.927 0.137,1.358 -0.402,-0.144 -0.73,-0.365 -1.158,-0.618 -2.17,-1.28 -3.765,-3.707 -5.354,-5.614 -1.101,-1.32 -2.993,-1.821 -4.406,-0.651 -1.384,1.147 -1.173,3 -0.188,4.297 -1.204,-0.361 -2.277,-1.17 -3.054,-2.142 -1.5,-1.874 -3.671,-5.115 -5.556,-6.463 -1.08,-0.773 -2.752,-0.681 -3.662,0.315 -1.022,1.119 -1.182,2.56 -0.34,3.763 -0.127,-0.015 -0.237,-0.034 -0.321,-0.055 -1.243,-0.309 -2.506,-0.856 -3.571,-1.568 -1.435,-0.961 -2.51,-2.261 -3.658,-3.527 -1.062,-1.171 -2.077,-2.13 -3.203,-2.881 z"
             id="path932" /><path
             style="fill:#72bcc3;fill-opacity:1;fill-rule:evenodd;stroke:none;stroke-width:0.1"
             d="m 374.415,275.082 -3.167,-1.819 -2.881,1.062 -3.397,-1.455 -0.843,0.118 c -2.143,-3.434 -5.239,-6.766 -9.073,-10.052 -0.3,-0.257 -0.608,-0.505 -0.917,-0.752 10.151,-0.72 23.654,-0.77 32.16,4.761 6.03,3.92 9.092,10.31 9.218,17.449 0.251,14.256 -6.822,26.892 -18.606,34.8 -7.689,5.16 -17.828,7.892 -26.886,9.204 -14.173,2.052 -28.068,1.67 -41.6,-3.265 -6.56,-2.392 -12.922,-5.14 -19.609,-7.218 -8.061,-2.505 -16.035,-3.899 -24.505,-3.97 -11.55,-0.095 -32.311,0.178 -34.821,14.927 -0.943,5.543 2.649,12.164 6.835,15.738 -0.627,1.045 -1.384,2.179 -2.574,2.354 -2.409,0.354 -5.328,-0.944 -7.299,-2.199 l -1.304,-0.83 0.242,1.529 c 0.606,3.829 3.044,7.502 6.182,9.741 l 0.564,0.404 0.812,-1.133 -0.565,-0.403 c -2.419,-1.727 -4.402,-4.416 -5.272,-7.318 2.085,1.093 4.596,1.913 6.836,1.584 1.698,-0.25 2.625,-1.514 3.461,-2.857 l 0.002,10e-4 0.413,-0.66 c 2.341,-3.746 5.566,-5.25 9.869,-5.395 2.551,-0.086 5.431,0.738 7.669,1.897 l 0.103,0.054 0.116,0.016 c 4.482,0.648 9.901,0.36 14.47,0.329 2.62,-0.018 5.239,-0.111 7.859,-0.07 1.344,0.021 1.342,1.035 2.121,1.851 0.102,0.107 0.368,0.393 0.543,0.631 -0.682,0.07 -2.167,0.03 -2.518,0.034 -3.691,0.046 -7.291,-0.843 -10.815,-0.691 -2.724,0.116 -6.002,1.659 -4.073,4.839 1.101,1.811 3.485,2.404 5.43,2.771 4.88,0.92 9.121,0.509 13.993,0.23 0.811,-0.046 2.097,2.98 1.895,3.835 -4.202,0.325 -7.491,-0.486 -11.786,0.601 -5.325,1.345 -7.844,6.235 -12.325,6.98 l -0.138,0.023 -0.119,0.075 c -3.734,2.355 -8.193,3.532 -12.585,3.532 -5.036,0 -9.533,-1.464 -13.827,-3.993 l -0.183,-0.108 -0.213,0.014 c -7.089,0.464 -13.95,-2.912 -18.585,-8.134 -4.771,-5.373 -7.824,-12.818 -8.852,-19.895 -1.206,-8.308 0.218,-16.493 4.004,-23.89 0.979,-1.914 2.07,-3.449 3.682,-4.967 2.13,-2.008 4.732,-3.492 7.574,-4.284 0.962,-0.267 0.827,-1.669 -0.367,-1.338 -3.552,0.992 -6.75,2.978 -9.217,5.691 0.449,-9.023 3.991,-15.161 12.681,-18.513 -0.107,0.506 -0.194,1.018 -0.266,1.535 -0.137,0.992 1.203,1.41 1.377,0.185 0.268,-1.92 0.753,-3.507 1.56,-5.265 2.216,-4.835 5.345,-7.367 10.191,-10.428 0.183,0.648 0.302,1.303 0.377,2.003 0.318,2.97 0.143,5.212 1.043,8.21 0.288,0.964 1.68,0.759 1.332,-0.404 -0.789,-2.635 -0.688,-5.277 -0.987,-7.832 -0.281,-2.383 -1.128,-4.689 -2.242,-6.803 -2.064,-3.909 -5.587,-8.213 -8.233,-10.479 -2.465,-2.109 -4.291,-2.688 -7.04,-4.058 -1.301,-0.649 -2.303,-1.382 -3.262,-2.484 -0.872,-1.003 -1.126,-1.992 -1.22,-3.107 2.274,1.809 4.783,3.215 7.745,3.587 l 1.522,0.191 -0.855,-1.27 c -1.536,-2.283 -2.547,-3.783 -3.131,-6.07 2.536,2.015 4.875,3.286 8.104,4.576 l 0.736,0.294 0.197,-0.77 c 0.393,-1.53 0.214,-2.445 -0.13,-3.632 1.445,0.497 3.457,1.308 3.816,2.058 0.303,0.635 0.451,1.197 0.301,1.895 -0.399,1.843 -0.931,2.325 -0.69,4.493 0.464,4.172 9.252,8.532 12.574,10.278 2.386,1.254 7.463,3.652 10.455,5.756 1.201,0.843 2.146,1.601 2.912,2.893 2.073,3.503 0.361,7.695 -2.017,11.595 -0.521,0.853 0.542,1.78 1.186,0.72 2.887,-4.731 4.902,-9.698 1.538,-13.813 9.045,-1.98 17.781,-2.191 26.873,-0.156 7.77,1.738 14.837,4.904 22.153,7.908 5.391,2.214 10.771,4.222 16.481,5.42 -3.873,6.848 0.574,13.316 5.656,18.298 0.855,0.838 1.643,-0.338 0.975,-0.995 -4.002,-3.923 -7.831,-8.922 -6.389,-14.284 0.474,-1.764 1.424,-3.229 2.59,-4.593 4.724,-5.529 11.152,-7.083 18.546,-6.401 l 2.27,0.21 -1.762,-1.44 c -0.617,-0.506 -1.24,-1.006 -1.846,-1.526 -5.554,-4.753 -7.237,-10.995 -8.681,-17.977 -0.44,-2.126 -0.298,-2.545 -2.626,-3.08 -3.054,-0.704 -4.719,-1.169 -6.632,-3.051 1.696,0.276 3.122,0.251 5.183,-0.133 l 1.889,-0.353 -1.671,-0.937 c -1.58,-0.887 -2.447,-2.337 -2.856,-3.984 1.871,1.25 3.711,2.258 5.902,3.149 l 0.709,0.288 0.221,-0.736 c 0.58,-1.938 0.523,-3.658 0.545,-5.523 1.272,1.035 2.336,2.263 2.73,3.928 l 0.194,0.81 0.763,-0.339 c 0.732,-0.325 1.468,-0.844 2.108,-1.443 -0.148,3.002 -1.663,6.695 -0.789,9.496 0.969,3.105 4.253,5.664 6.945,7.793 1.189,0.937 2.396,1.857 3.545,2.843 12.089,10.361 16.652,20.892 5.765,34.223 -0.633,0.776 0.289,1.837 1.074,0.875 5.68,-6.954 7.37,-13.263 6.067,-19.187 1.525,0.902 3.166,1.362 5.025,1.461 2.273,0.121 5.911,-0.777 6.184,-3.502 0.137,-1.368 -0.129,-1.872 -0.74,-2.98 l -0.251,-0.457 z"
             id="path944" /><path
             style="fill:#72bcc3;fill-opacity:1;fill-rule:evenodd;stroke:none;stroke-width:0.1"
             d="m 364.936,274.371 3.386,1.45 2.791,-1.029 3.076,1.765 2.367,-0.542 c 0.289,0.536 0.407,0.874 0.323,1.717 -0.183,1.814 -3.283,2.323 -4.722,2.246 -2.03,-0.109 -3.735,-0.692 -5.346,-1.914 l -0.356,-0.27 c -0.398,-1.154 -0.905,-2.295 -1.519,-3.423"
             id="path946" /><path
             style="fill:#72bcc3;fill-opacity:1;fill-rule:evenodd;stroke:none;stroke-width:0.1"
             d="m 338.499,262.959 c 0.98,2.978 2.285,5.737 4.253,8.225 -4.58,-0.264 -9.166,-0.528 -13.619,-1.709 -1.704,-0.452 -3.318,-1.017 -4.94,-1.702 -4.184,-1.767 -7.902,-3.527 -12.27,-5.003 -0.714,-0.242 -1.443,-0.436 -2.182,-0.591 -5.22,-1.1 -9.88,-0.618 -15.24,-2.397 -5.529,-1.834 -10.44,-6.855 -13.683,-11.862 5.26,2.591 10.621,5.341 16.28,6.787 6.443,1.647 13.002,0.823 19.479,1.885 4.786,0.784 9.54,4.022 14.221,5.538 2.026,0.657 5.499,1.088 7.701,0.829 z"
             id="path942" /><g
             id="g952"><path
               id="path934"
               d="m 240.707,355.994 c 0.72,2.239 3.63,4.492 6.109,4.628 2.657,0.147 5.192,-1.742 6.484,-4.106 -2.021,-0.17 -3.748,-1.76 -6.364,-1.824 -2.148,-0.053 -4.078,1.379 -6.229,1.302 z"
               style="fill:#231f20;fill-opacity:1;fill-rule:evenodd;stroke:none;stroke-width:0.1" /><path
               id="path940"
               d="m 245.747,357.636 c 0,1.039 0.731,1.885 1.644,1.919 -0.391,-0.392 -0.649,-1.103 -0.649,-1.919 z"
               style="fill:#ffffff;fill-opacity:1;fill-rule:evenodd;stroke:none;stroke-width:0.1" /><path
               id="path938"
               d="m 246.291,355.764 c -0.539,0.409 -0.891,1.095 -0.891,1.873 0,0.773 0.347,1.452 0.881,1.863 -1.431,-0.305 -3.033,-1.384 -3.953,-2.638 1.39,-0.315 2.667,-0.953 3.963,-1.098 z"
               style="fill:#ffffff;fill-opacity:1;fill-rule:evenodd;stroke:none;stroke-width:0.1" /><path
               id="path936"
               d="m 249.264,358.682 c 0.148,-0.312 0.233,-0.668 0.233,-1.045 0,-0.372 -0.083,-0.726 -0.226,-1.036 -0.046,-0.144 -0.098,-0.278 -0.16,-0.401 0.835,0.307 1.638,0.704 2.476,0.991 -0.679,0.823 -1.551,1.532 -2.519,1.961 0.077,-0.141 0.141,-0.3 0.196,-0.47 z"
               style="fill:#ffffff;fill-opacity:1;fill-rule:evenodd;stroke:none;stroke-width:0.1" /></g></g></g></g></g></svg>
