<?xml version="1.0" encoding="UTF-8" standalone="no"?>
<!-- Created with Inkscape (http://www.inkscape.org/) -->

<svg
   xmlns:dc="http://purl.org/dc/elements/1.1/"
   xmlns:cc="http://creativecommons.org/ns#"
   xmlns:rdf="http://www.w3.org/1999/02/22-rdf-syntax-ns#"
   xmlns:svg="http://www.w3.org/2000/svg"
   xmlns="http://www.w3.org/2000/svg"
   xmlns:sodipodi="http://sodipodi.sourceforge.net/DTD/sodipodi-0.dtd"
   xmlns:inkscape="http://www.inkscape.org/namespaces/inkscape"
   id="svg2"
   version="1.1"
   inkscape:version="0.91 r13725"
   width="606"
   height="742.29999"
   sodipodi:docname="Le Havre Athletic Club Association.svg">
  <metadata
     id="metadata8">
    <rdf:RDF>
      <cc:Work
         rdf:about="">
        <dc:format>image/svg+xml</dc:format>
        <dc:type
           rdf:resource="http://purl.org/dc/dcmitype/StillImage" />
      </cc:Work>
    </rdf:RDF>
  </metadata>
  <defs
     id="defs6" />
  <sodipodi:namedview
     pagecolor="#ffffff"
     bordercolor="#666666"
     borderopacity="1"
     objecttolerance="10"
     gridtolerance="10"
     guidetolerance="10"
     inkscape:pageopacity="0"
     inkscape:pageshadow="2"
     inkscape:window-width="1280"
     inkscape:window-height="691"
     id="namedview4"
     showgrid="false"
     inkscape:zoom="0.49857106"
     inkscape:cx="187.40447"
     inkscape:cy="376.83715"
     inkscape:window-x="0"
     inkscape:window-y="1"
     inkscape:window-maximized="1"
     inkscape:current-layer="svg2" />
  <path
     sodipodi:nodetypes="ccsccccsssccsssccccsccc"
     inkscape:connector-curvature="0"
     id="path3015"
     d="M 303.53295,3.0596821 276.28399,14.246821 C 241.87137,28.352147 173.91899,51.538819 132.3034,63.357652 98.541511,72.946034 31.094046,87.451856 22.331798,88.264863 L 4.1425782,89.953489 4.7697915,121.967 3.6827042,173.24464 c -2.0676125,25.64465 0.9982637,131.91583 3.3868772,155.8603 5.4608796,54.74173 13.9878056,86.7492 33.9392706,127.20973 55.671732,112.89929 153.984098,223.52286 242.662338,273.13502 9.19913,5.14657 18.07664,9.4124 19.79209,9.42814 l 0.0696,0.42217 c 1.71545,-0.0158 10.59296,-4.21122 19.79211,-9.35779 88.67821,-49.61219 186.99059,-160.30608 242.6623,-273.2054 19.95147,-40.46051 28.47839,-72.46798 33.93928,-127.2097 2.38863,-23.9445 4.24889,-129.06885 2.18129,-154.71349 l 0.11835,-52.42447 0.6272,-32.013505 -18.18923,-1.688626 C 575.90206,87.874012 508.45462,73.368188 474.69272,63.779809 433.07713,51.960976 365.12475,28.774304 330.71215,14.668977 L 303.53295,3.4818381 Z"
     style="fill:#0a314e;fill-opacity:1;stroke:none" />
  <path
     style="fill:#051f35;fill-opacity:1;stroke:none"
     d="M 303.50639,21.410717 277.61581,32.040169 C 244.91867,45.442334 180.35376,67.473137 140.81274,78.702793 108.7339,87.813187 44.648737,101.59588 36.323294,102.36836 l -17.282476,1.60445 0.595946,30.41761 -1.032894,48.72142 c -1.964542,24.36625 0.948499,125.33974 3.218038,148.09056 5.188652,52.01283 13.290506,82.42469 32.247377,120.86824 52.896455,107.27119 146.307885,212.38009 230.565465,259.51907 8.74053,4.89 17.17551,8.94317 18.80542,8.95814 l 0.0662,0.40112 c 1.62994,-0.0158 10.06489,-4.00129 18.80547,-8.89131 84.25753,-47.13898 177.66898,-152.31471 230.56539,-259.58591 18.95689,-38.44353 27.05875,-68.85541 32.2474,-120.86824 2.26955,-22.75083 4.03708,-122.63466 2.07256,-147.0009 l 0.11248,-49.81108 0.59594,-30.41761 -17.28247,-1.60445 C 562.2977,101.997 498.21257,88.214297 466.13373,79.103904 426.59269,67.874249 362.0278,45.843448 329.33067,32.44128 L 303.50639,21.811828 Z"
     id="path2991"
     inkscape:connector-curvature="0"
     sodipodi:nodetypes="ccsccccsssccsssccccsccc" />
  <path
     style="fill:#b9955d;fill-opacity:1"
     d="m 303.45551,43.513037 -24.20868,9.951672 C 248.61838,66.018948 188.11425,86.704653 151.07494,97.223834 121.02564,105.75783 60.980252,118.66211 53.181543,119.38571 l -16.162645,1.48217 0.564634,28.51401 -0.988109,45.59418 c -1.84025,22.82465 0.908956,117.44735 3.034907,138.75878 4.860377,48.72207 12.450398,77.19778 30.207912,113.20909 49.549818,100.48441 137.045678,198.91828 215.972458,243.07488 8.18755,4.58063 16.04744,8.38491 17.57423,8.39893 l 0.0705,0.42348 c 1.52681,-0.0158 9.45723,-3.7477 17.6448,-8.32835 78.92676,-44.15661 166.42268,-142.73168 215.97246,-243.21604 17.75751,-36.01129 25.34757,-64.487 30.20791,-113.2091 2.12599,-21.31145 3.74585,-114.87546 1.90564,-137.70008 l 0.14127,-46.65288 0.56464,-28.51401 -16.23323,-1.48216 C 545.85997,119.015 485.88535,106.11073 455.83607,97.57673 418.79673,87.057551 358.29264,66.442425 327.66419,53.888184 l -24.20868,-9.951672 z"
     id="path3019"
     inkscape:connector-curvature="0"
     sodipodi:nodetypes="ccsccccsssccsssccccsccc" />
  <path
     inkscape:connector-curvature="0"
     id="path4251"
     d="m 303.45551,57.346567 0,0.352896 23.14999,9.528196 c 29.33794,12.025281 87.25856,31.777523 122.73729,41.853491 28.78318,8.17442 86.32965,20.55123 93.7998,21.24434 l 15.52743,1.48217 -0.56463,27.24358 -0.0705,44.74724 c 1.76267,21.86294 0.13077,111.42851 -1.90564,131.84201 -4.65556,46.66925 -11.92816,73.9863 -28.93749,108.48028 -47.46204,96.25056 -131.26646,190.61536 -206.86773,232.91147 -7.84259,4.38764 -15.40595,7.95965 -16.86844,7.97546 l -0.0707,-0.3529 c -1.46247,-0.0136 -9.02588,-3.65842 -16.86844,-8.04603 C 210.9152,634.31266 127.11084,540.01846 79.648756,443.76787 62.639438,409.27387 55.366859,381.95682 50.71127,335.28759 48.674895,314.87411 46.054809,224.32043 47.817521,202.45747 l 0.91753,-43.75912 -0.494055,-27.24359 15.456853,-1.48216 c 7.470117,-0.69312 65.016611,-13.06992 93.799801,-21.24435 35.4787,-10.075967 93.39934,-29.828208 122.73729,-41.853487 z"
     style="fill:#003259;fill-opacity:1"
     sodipodi:nodetypes="cccsccccsssccsssccccscc" />
  <path
     style="fill:#8bc4e5;fill-opacity:1"
     d="M 303.43359 295.06055 L 170.42969 302.65234 L 78.201172 322.27539 C 71.070737 323.79253 58.512304 328.49969 50.523438 333.03906 C 50.586371 333.78658 50.648946 334.66568 50.710938 335.28711 C 55.366527 381.95634 62.639119 409.27358 79.648438 443.76758 C 127.11052 540.01817 210.91437 634.31327 286.51562 676.60938 C 294.35819 680.99698 301.9223 684.6407 303.38477 684.6543 L 303.39844 684.72461 L 303.4043 608.57422 L 303.41211 530.19531 L 303.41797 451.81641 L 303.42578 373.4375 L 303.43359 295.06055 z "
     id="path4259" />
  <path
     style="color:#000000;display:inline;overflow:visible;visibility:visible;fill:#b9955d;fill-opacity:1;fill-rule:nonzero;stroke:none;stroke-width:0.2;marker:none;enable-background:accumulate"
     d="m 42.100188,341.02944 c 7.481394,-4.62272 5.112016,-2.6893 15.739584,-6.80054 10.627564,-4.11123 22.688586,-7.93767 36.065989,-11.43386 13.377389,-3.49612 28.098839,-6.60953 43.829709,-9.38701 15.73085,-2.7775 32.49382,-5.17324 50.18183,-7.1285 17.68802,-1.95524 36.29706,-3.48763 55.54586,-4.51707 19.24877,-1.02942 39.15566,-1.55275 59.56887,-1.55275 20.41321,0 40.3201,0.52333 59.56888,1.55275 19.24877,1.02944 37.85788,2.56183 55.54585,4.51707 17.68802,1.95526 34.45098,4.351 50.18184,7.1285 15.73086,2.77748 30.38173,5.89089 43.75912,9.38701 13.3774,3.49619 25.50903,7.32263 36.13657,11.43386 10.62756,4.11124 7.683,1.02741 15.1644,5.65014 l 0,-7.41082 c -7.4814,-4.62273 -4.53684,-1.5389 -15.1644,-5.65014 -10.62754,-4.11123 -22.75917,-7.93769 -36.13657,-11.43383 -13.37739,-3.49617 -28.02826,-6.60956 -43.75912,-9.38704 -15.73086,-2.7775 -32.49382,-5.17322 -50.18184,-7.1285 -17.68797,-1.95524 -36.29708,-3.48763 -55.54585,-4.5171 -19.24878,-1.02939 -39.15567,-1.55272 -59.56888,-1.55272 -20.41321,0 -40.3201,0.52333 -59.56887,1.55272 -19.2488,1.02947 -37.85784,2.56186 -55.54586,4.5171 -17.68801,1.95528 -34.45098,4.351 -50.18183,7.1285 -15.73087,2.77748 -30.45232,5.89087 -43.829709,9.38704 -13.377403,3.49614 -25.438425,7.3226 -36.065989,11.43383 -10.627568,4.11124 -8.25819,2.17782 -15.739584,6.80054"
     id="path3074"
     inkscape:connector-curvature="0"
     sodipodi:nodetypes="csssssssssssccsssssssssssc" />
  <g
     id="g4266">
    <path
       id="path3010"
       d="m 140.41748,132.44287 -27.59648,0.0706 -0.14116,67.82665 0,67.19143 27.173,-0.14116 0.28232,-40.08901 53.85196,-0.14116 0,40.23017 29.50212,0.28232 -0.14116,-67.33259 0,-67.54433 -29.36096,0 0,34.86614 0.14115,32.53703 -53.85195,0.21173 0.14116,-30.5608 c 0.0723,-16.15047 0.0502,-35.85425 0,-37.407 z m 162.75571,0.21174 -59.99235,134.52402 25.97316,0.28232 8.46951,-15.17454 25.62026,0 25.69084,0 7.90488,15.24512 28.65516,-0.0705 C 346.04618,222.13907 324.2227,177.24689 303.17319,132.65472 Z m 131.91259,0.21174 c -20.65702,0.64768 -40.80503,10.70453 -53.56964,28.93748 -21.4983,30.70814 -13.98088,73.0073 16.72728,94.5056 30.70816,21.4983 73.0073,14.05143 94.50559,-16.6567 l -21.95014,-18.13886 c -6.7464,12.17093 -19.10012,20.32682 -33.24282,20.32682 -21.36357,0 -38.67742,-18.61921 -38.67742,-41.57117 0,-22.95196 17.31385,-41.50059 38.67742,-41.50059 12.78164,0 24.08229,6.67277 31.12545,16.93901 l 21.80898,-16.93901 c -4.11343,-5.23023 -8.94721,-9.80567 -14.39816,-13.6218 -12.47518,-8.73368 -26.87278,-12.72394 -41.00654,-12.28078 z m -132.61838,58.08671 15.73917,36.41888 -31.33718,0.0705 15.59801,-36.48947 z"
       style="fill:#ececee;fill-opacity:1"
       inkscape:connector-curvature="0" />
    <path
       sodipodi:nodetypes="ccccssccccsssccccsssssssssssssssssscccscssscccccsssssscccsssssscccssssccccccssscssssscsssssssssssssssscccsssssssscsssssscc"
       inkscape:connector-curvature="0"
       id="path3129"
       d="m 225.60661,323.85376 0,8.96356 0,8.96356 -4.72881,-4.02302 c -6.25153,-5.26028 -9.62788,-5.31887 -8.32835,-0.14115 0.62499,2.49019 0.32424,3.88185 -0.84695,3.88185 -1.0034,0 -1.4215,1.18865 -0.98811,2.68202 1.52553,5.67861 2.71851,10.33029 4.23476,16.09206 l 46.65287,-0.0706 4.94055,-18.7035 c -1.46446,0 -1.74982,-1.41425 -1.05869,-4.86996 0.87855,-4.39261 0.64583,-4.68771 -2.0468,-3.24665 -1.6291,0.87186 -4.24198,3.08421 -5.85807,4.86997 -2.25447,2.49116 -3.64842,3.48515 -4.47875,2.69764 l -2.10188,-16.32781 -11.10757,16.82936 z m 107.70391,45.94708 c -4.71216,0.34729 -15.43377,4.13529 -23.22056,9.24588 -4.207,2.7611 -9.34144,6.63289 -11.43384,8.54008 -2.0924,1.90725 -5.8092,3.85363 -8.18719,4.37592 -6.832,1.50055 -6.66871,3.66077 0.56463,7.05792 8.39105,3.94085 25.92237,3.31686 38.11279,-1.34101 4.45521,-1.70228 10.74961,-5.15513 13.97469,-7.69313 6.88751,-5.42019 17.91682,-11.29268 21.31493,-11.29268 1.31404,0 2.39969,-0.56773 2.39969,-1.341 0,-2.21721 -14.31857,-3.63008 -25.90258,-2.54086 -9.69368,0.91146 -10.36627,0.78681 -7.62256,-1.41158 3.45687,-2.7698 2.82731,-3.80792 0,-3.59954 z m -105.16306,2.75259 c -26.54944,0 -48.03846,8.89323 -57.52207,23.85578 -14.0475,22.1631 -10.76036,56.55465 7.26966,75.66094 11.68185,12.37917 32.02994,21.73919 52.15805,23.99694 15.95362,1.78944 16.61768,3.66537 5.92866,17.43307 -4.98274,6.41788 -8.33528,9.05354 -14.39816,11.29268 -4.33741,1.60186 -9.51216,4.71428 -11.575,6.91676 l -3.81128,4.02302 5.85808,-1.12927 c 5.51521,-1.02906 5.7875,-0.87613 5.7875,2.96433 0,4.95161 0.037,4.99633 8.89298,0.28231 7.34257,-3.90873 9.73993,-3.92881 9.73993,0 0,2.87268 0.86642,2.81703 6.35214,-0.42347 5.09162,-3.00769 5.62639,-5.31341 2.04679,-8.89298 -4.05721,-4.05722 1.47309,-12.77175 12.84542,-20.25624 l 9.45762,-6.21098 -0.77637,-9.31646 -0.70579,-9.31646 3.0349,4.79939 c 7.27353,11.36633 18.44065,15.85092 32.60761,13.05716 10.54083,-2.07871 34.19583,-10.64427 36.27773,-12.5631 2.73102,-2.5171 6.87274,-1.43501 11.99847,3.24664 2.80295,2.56007 5.96804,4.65823 7.05792,4.65823 2.90852,0 2.29284,4.14934 -2.39969,16.16265 -3.82583,9.79436 -4.71223,10.88815 -10.37515,12.84542 -3.40569,1.17712 -7.60973,3.54691 -9.31646,5.29344 l -3.10549,3.17606 4.65823,-0.49405 c 3.83375,-0.41982 4.74394,0.089 5.15229,2.96433 0.6021,4.23947 0.54485,4.2654 6.84618,0.42347 5.97995,-3.64595 10.51631,-4.00232 10.51631,-0.84695 0,1.82248 4.41128,1.88091 8.18719,0.56464 5.72107,-1.9944 5.8497,-4.69819 0.56463,-9.59878 -3.8723,-3.5906 -3.90859,-3.99304 -1.90564,-9.73993 1.17372,-3.36768 5.88281,-9.79091 10.72805,-14.60991 l 8.61067,-8.61066 -4.37592,-9.24588 c -4.31651,-9.16263 -5.81645,-21.27308 -2.89375,-23.07941 0.7846,-0.48491 2.22182,1.48447 3.17607,4.37591 2.68599,8.13861 5.71274,9.7819 18.98581,10.58689 15.31238,0.92866 19.83277,3.67332 19.83277,11.85731 0,9.7339 -4.94296,13.04275 -21.10319,14.11584 -3.02813,0.20101 -5.45877,0.0328 -7.41082,-0.28231 -1.95205,-0.31507 -3.66773,0.47705 -4.86997,0.14116 l -5.7875,0.49405 -8.66349,12.42195 c -0.65656,1.41806 27.79029,2.88001 37.74214,2.82317 28.45554,-0.16284 44.57226,-31.47491 28.23169,-54.91065 -1.72859,-2.4791 -3.26627,-5.97602 -3.3878,-7.76371 -0.12196,-1.79382 -2.39251,-4.63953 -5.08171,-6.35214 -2.92089,-1.86013 -4.9047,-4.43027 -4.94054,-6.42271 -0.0492,-2.74468 -1.59643,-3.70368 -8.96357,-5.50518 -7.06844,-1.72845 -8.96356,-2.82362 -8.96356,-5.22286 0,-2.65891 -1.25003,-3.12615 -10.44572,-3.52896 -9.08449,-0.39796 -10.44573,-0.83704 -10.44573,-3.3878 0,-4.61796 -2.43536,-5.01824 -12.84542,-2.25854 -13.42325,3.55846 -14.25504,3.48964 -14.82164,-0.49405 -0.63223,-4.44469 -4.58128,-4.49634 -15.66859,-0.28232 -9.29841,3.53413 -12.56311,3.15197 -12.56311,-1.55274 0,-1.73352 -0.30366,-3.17607 -0.70579,-3.17607 -0.40211,0 -6.4008,2.05536 -13.33947,4.58765 -12.1916,4.44941 -12.63861,4.50273 -13.41006,1.55274 -1.08136,-4.13513 -5.20314,-3.76416 -18.28002,1.55275 -7.45034,3.02923 -11.4856,3.94613 -12.77484,2.89374 -3.52585,-2.87809 -15.82084,2.70295 -35.71309,16.23323 -10.65268,7.2457 -17.6113,9.37983 -27.73764,8.54009 -6.89716,-0.57198 -9.1393,-1.54337 -13.12774,-5.71692 -6.45806,-6.7577 -9.33277,-14.1257 -9.59878,-24.70273 -0.26698,-10.61546 2.45774,-16.76708 9.5282,-21.52667 8.16596,-5.497 17.08228,-4.89763 25.90258,1.83506 5.84186,4.45918 8.44055,5.4346 14.53932,5.4346 10.30552,0 23.61195,-2.72052 26.25548,-5.36402 1.91063,-1.91065 1.64184,-2.35057 -2.25854,-3.17607 -2.47992,-0.52486 -7.3146,-2.2766 -10.72804,-3.88185 l -6.21097,-2.89375 9.31645,-0.28232 c 11.64892,-0.31394 16.32655,-1.53829 18.49176,-5.01113 2.12571,-3.40948 1.01653,-4.1779 -15.10395,-10.37514 -10.34114,-3.97548 -14.34538,-4.65823 -26.46722,-4.65823 z m 1.12927,5.36402 c 3.1573,0 5.71692,2.04614 5.71692,4.51707 0,2.47093 -2.55962,4.44649 -5.71692,4.44649 -3.15729,0 -5.71692,-1.97556 -5.71692,-4.44649 0,-2.47093 2.55963,-4.51707 5.71692,-4.51707 z m 124.71351,125.48988 c -2.34678,0.37119 -19.23288,0.54408 -23.92636,1.12927 -11.48581,1.432 -33.00195,6.37232 -38.748,8.61066 -4.89395,1.90643 -13.19832,9.00792 -13.19832,11.29268 0,0.73714 1.81419,3.5349 4.58765,1.48216 2.77342,-2.05269 11.11624,-6.80557 15.80975,-8.32835 5.6086,-1.81965 15.469,-3.02648 28.72575,-3.52896 10.15354,-0.38487 18.38197,1.5183 21.45609,0.56464 z"
       style="fill:#ffffff" />
    <g
       transform="matrix(2.2585355,0,0,2.2585355,-81.695374,-12.1034)"
       id="g3207">
      <path
         style="color:#000000;display:inline;overflow:visible;visibility:visible;fill:#ffffff;fill-opacity:1;fill-rule:nonzero;stroke:none;stroke-width:0.2;marker:none;enable-background:accumulate"
         d="m 161.7162,259.08372 c -3.74829,0 -6.79503,2.81347 -6.79503,6.27478 0,1.79771 0.84203,3.40585 2.15506,4.5487 -1.31303,1.14285 -2.15506,2.75099 -2.15506,4.5487 0,3.46131 3.04674,6.27478 6.79503,6.27478 3.7483,0 6.79504,-2.81347 6.79504,-6.27478 0,-1.79771 -0.84203,-3.40585 -2.15506,-4.5487 1.31303,-1.14285 2.15506,-2.75099 2.15506,-4.5487 0,-3.46131 -3.04674,-6.27478 -6.79504,-6.27478 z m 0.15394,4.02073 c 1.2867,0 2.33097,0.96432 2.33097,2.15251 0,1.1882 -1.04427,2.13221 -2.33097,2.13221 -1.28671,0 -2.33098,-0.94401 -2.33098,-2.13221 0,-1.18819 1.04427,-2.15251 2.33098,-2.15251 z m 0,8.91465 c 1.2867,0 2.33097,0.96432 2.33097,2.15251 0,1.1882 -1.04427,2.15251 -2.33097,2.15251 -1.28671,0 -2.33098,-0.96431 -2.33098,-2.15251 0,-1.18819 1.04427,-2.15251 2.33098,-2.15251 z"
         id="path3138"
         inkscape:connector-curvature="0" />
      <path
         style="fill:#ffffff;stroke:none"
         d="m 140.26204,263.49776 0.004,5.39043 3.83782,-4.03477 -0.004,15.85261 5.68204,-0.0433 0,-21.70807 -5.70954,0.004 0,0 z"
         id="path3162"
         inkscape:connector-curvature="0"
         sodipodi:nodetypes="ccccccccc" />
      <path
         style="fill:#ffffff;stroke:none"
         d="m 172.99964,259.64457 0.12262,7.60284 4.55205,0 0,-3.43353 4.5223,0 -7.21391,17.19745 5.88606,-0.0359 6.65159,-17.03891 -0.0508,-4.37864 z"
         id="path3164"
         inkscape:connector-curvature="0"
         sodipodi:nodetypes="cccccccccc" />
      <path
         style="color:#000000;display:inline;overflow:visible;visibility:visible;fill:#ffffff;fill-opacity:1;fill-rule:nonzero;stroke:none;stroke-width:0.2;marker:none;enable-background:accumulate"
         d="m 190.20733,264.73188 c -0.007,0.37899 0,1.67093 0,1.67093 l 4.77207,0 c 0,0 -0.052,-1.14742 0,-1.44755 0.41756,-1.80277 3.41485,-1.82848 3.81767,-0.18276 0.0841,0.27298 0.16897,0.54895 0.20306,0.83257 0.0291,0.24194 0.0344,0.4898 0,0.73104 -0.0397,0.27873 -0.23589,0.81104 -0.23589,0.81104 l -8.43507,9.15956 -0.12184,0.3046 0,4.20349 13.52427,0 0,-4.50809 -7.29011,0 6.80274,-7.41195 c 0,0 0.23489,-0.43499 0.29165,-0.67271 0.0959,-0.40149 0.0615,-0.82353 0.0739,-1.23612 0.0155,-0.52098 0.0555,-1.04539 0,-1.56362 0.75767,-7.98648 -13.53132,-8.1379 -13.40243,-0.69043 z"
         id="rect3179"
         inkscape:connector-curvature="0"
         sodipodi:nodetypes="cccccaaccccccccaacc" />
    </g>
  </g>
</svg>
