<?xml version="1.0" encoding="utf-8"?>
<!-- Generator: Adobe Illustrator 13.0.2, SVG Export Plug-In . SVG Version: 6.00 Build 14948)  -->
<!DOCTYPE svg PUBLIC "-//W3C//DTD SVG 1.0//EN" "http://www.w3.org/TR/2001/REC-SVG-20010904/DTD/svg10.dtd">
<svg version="1.0" id="Ebene_1" xmlns="http://www.w3.org/2000/svg" xmlns:xlink="http://www.w3.org/1999/xlink" x="0px" y="0px"
	 width="502.287px" height="566.929px" viewBox="0 0 502.287 566.929" enable-background="new 0 0 502.287 566.929"
	 xml:space="preserve">
<path fill-rule="evenodd" clip-rule="evenodd" d="M86.375,0L0,93.756c19.994,42.388,38.703,102.396,39.477,143.995
	c0.481,25.921-13.089,59.477-19.648,95.51c-6.767,37.176-6.153,77.002,20.059,113.807c22.3,31.316,52.712,46.863,86.697,55.695
	c18.154,4.719,33.556,5.928,55.738,16.314c17.72,8.297,39.346,22.244,68.821,47.852c29.476-25.607,51.102-39.555,68.821-47.852
	c22.182-10.387,37.584-11.596,55.738-16.314c33.984-8.832,64.397-24.379,86.697-55.695c26.212-36.805,26.825-76.631,20.059-113.807
	c-6.56-36.033-20.13-69.588-19.648-95.51c0.773-41.6,19.483-101.607,39.477-143.995L415.911,0
	c-42.777,29.555-113.864,39.128-164.768,40.092C200.24,39.128,129.154,29.555,86.375,0L86.375,0z"/>
<path fill-rule="evenodd" clip-rule="evenodd" fill="#FFFFFF" d="M91.744,35.459L30.124,100.24
	c45.293,43.187,131.128,67.437,202.241,67.94c83.419,0.592,183.281-14.747,240.161-66.36l-63.2-69.521
	C303.463,76.213,197.603,80.03,91.744,35.459L91.744,35.459z"/>
<path fill-rule="evenodd" clip-rule="evenodd" d="M465.427,99.457c0.837-2.034,1.687-4.061,2.542-6.071
	c-30.108,33.095-130.095,66.37-217.602,64.663c-87.507-1.708-172.662-25.827-216.047-64.663c0.766,1.804,1.529,3.622,2.281,5.443
	c44.039,37.642,127.774,61.001,213.372,62.67S432.576,131.624,465.427,99.457L465.427,99.457z"/>
<path fill-rule="evenodd" clip-rule="evenodd" fill="#3BB5CD" d="M49.55,332.738c-6.474,31.184-5.8,63.924,10.63,92.207
	c15.151,24.344,38.955,38.797,65.748,47.408c21.303,6.48,43.091,9.822,63.875,18.217c22.113,10.129,42.299,23.623,61.342,38.658
	c19.044-15.035,39.229-28.529,61.343-38.658c20.783-8.395,42.571-11.736,63.874-18.217c26.793-8.611,50.597-23.064,65.748-47.408
	c16.431-28.283,17.104-61.023,10.63-92.207c-7.005-32.244-19.349-63.573-18.931-97.078c1.634-47.165,15.825-95.547,34.16-138.642
	c-30.108,33.095-130.095,65.582-217.602,63.875c-87.507-1.708-172.662-25.039-216.047-63.875
	c18.335,43.094,32.526,91.477,34.161,138.642C68.899,269.165,56.555,300.494,49.55,332.738L49.55,332.738z"/>
<path fill-rule="evenodd" clip-rule="evenodd" fill="#FFFFFF" d="M194.239,184.373l24.928,100.916
	c8.585-7.397,19.765-11.863,31.98-11.863c11.374,0,21.841,3.872,30.162,10.374l26.738-97.732l-57.467,34.997L194.239,184.373
	L194.239,184.373z"/>
<path fill-rule="evenodd" clip-rule="evenodd" fill="#FFFFFF" d="M113.058,379.363l100.916-24.928
	c-7.397-8.586-11.863-19.766-11.863-31.98c0-11.375,3.872-21.84,10.374-30.162l-97.732-26.738l34.997,57.467L113.058,379.363
	L113.058,379.363z"/>
<path fill-rule="evenodd" clip-rule="evenodd" fill="#FFFFFF" d="M308.047,460.544L283.12,359.628
	c-8.585,7.396-19.765,11.863-31.98,11.863c-11.375,0-21.84-3.873-30.162-10.375l-26.739,97.732l57.467-34.996L308.047,460.544
	L308.047,460.544z"/>
<path fill-rule="evenodd" clip-rule="evenodd" fill="#FFFFFF" d="M389.229,265.554l-100.916,24.928
	c7.397,8.584,11.863,19.766,11.863,31.98c0,11.373-3.872,21.84-10.374,30.162l97.732,26.738l-34.997-57.467L389.229,265.554
	L389.229,265.554z"/>
<path fill-rule="evenodd" clip-rule="evenodd" fill="#FFFFFF" d="M251.15,286.111c20.073,0,36.349,16.277,36.349,36.348
	c0,20.072-16.276,36.35-36.349,36.35c-20.07,0-36.347-16.277-36.347-36.35C214.803,302.388,231.08,286.111,251.15,286.111
	L251.15,286.111z"/>
<path fill-rule="evenodd" clip-rule="evenodd" d="M358.917,242.517l-64.13,136.197h-6.5v9.063h23.512v-9.063h-4.818l21.372-45.771
	h52.722l18.711,45.771h-3.397v9.063h26.464v-9.063h-7.058L358.917,242.517L358.917,242.517z M332.878,323.251l23.586-50.509
	l20.647,50.509H332.878L332.878,323.251z"/>
<path fill-rule="evenodd" clip-rule="evenodd" fill="#F9CB17" d="M358.769,249.229l-62.252,132.209h-5.505v3.613h18.063v-3.613
	h-6.372l23.916-51.221h56.284l20.94,51.221h-4.731v3.613h21.016v-3.613h-6.147L358.769,249.229L358.769,249.229z M328.6,325.976
	l28.029-60.028l24.54,60.028H328.6L328.6,325.976z"/>
<path fill-rule="evenodd" clip-rule="evenodd" d="M150.066,242.517l-64.13,136.197h-6.5v9.063h23.511v-9.063h-4.818l21.372-45.771
	h52.722l18.711,45.771h-3.398v9.063H214v-9.063h-7.058L150.066,242.517L150.066,242.517z M124.027,323.251l23.586-50.509
	l20.647,50.509H124.027L124.027,323.251z"/>
<path fill-rule="evenodd" clip-rule="evenodd" fill="#F9CB17" d="M149.917,249.229L87.665,381.439H82.16v3.613h18.063v-3.613h-6.373
	l23.917-51.221h56.284l20.94,51.221h-4.731v3.613h21.016v-3.613h-6.147L149.917,249.229L149.917,249.229z M119.749,325.976
	l28.029-60.028l24.539,60.028H119.749L119.749,325.976z"/>
<path fill-rule="evenodd" clip-rule="evenodd" d="M262.797,245.803v179.384c0,13.906-6.418,26.258-15.141,33.506
	c-9.009,7.486-19.005,11.252-31.028,11.064c-10.321-0.16-21.695-4.494-28.393-11.617c-6.482-6.895-9.128-14.604-8.848-22.803
	c0.216-6.377,2.488-14.746,5.534-19.875l0.371,0.08c-0.846,15.25,1.582,26.385,14.986,34.824c4.88,3.072,12.611,4.254,17.331,3.971
	c8.427-0.506,16.089-6.352,19.835-13.588c3.208-6.193,4.453-11.836,4.453-18.799V245.803h-15.255V232.45h51.648v13.353H262.797
	L262.797,245.803z"/>
<path fill-rule="evenodd" clip-rule="evenodd" fill="#F9CB17" d="M260.073,243.078v182.037c0,27.525-23.373,42.473-43.401,42.057
	c-12.42-0.256-39.827-8.57-33.238-40.855l0.23-0.074c-0.009,13.086,7.19,21.385,14.952,26.172c6.431,3.967,13.399,4.879,16.83,4.85
	c7.388-0.066,14.282-2.387,20.313-8.99c5.154-5.646,8.862-14.123,8.862-26.262V243.078h-15.255v-7.904h46.2v7.904H260.073
	L260.073,243.078z"/>
<path fill-rule="evenodd" clip-rule="evenodd" fill="#F9CB17" d="M57.645,240.439c-0.9,31.546-13.187,62.154-19.352,92.919
	c-6.952,36.799-5.412,71.477,16.401,103.189c18.621,25.383,43.627,39.434,73.529,47.852c19.451,5.211,38.509,8.326,57.269,16.18
	c24.054,10.883,45.293,25.898,65.636,42.588l0.011,0.014l0.004-0.002l0.003,0.002l0.011-0.014
	c20.342-16.689,41.582-31.705,65.636-42.588c18.761-7.854,37.818-10.969,57.27-16.18c29.902-8.418,54.908-22.469,73.528-47.852
	c21.813-31.713,23.354-66.391,16.401-103.189c-6.166-30.766-18.452-61.374-19.353-92.919c0.116-48.118,16.982-99.537,36.135-143.229
	l-68.309-74.144c-47.764,24.249-108.202,33.718-161.323,35.191c-53.121-1.473-113.56-10.942-161.323-35.191L21.51,97.21
	C40.662,140.902,57.528,192.322,57.645,240.439L57.645,240.439z M49.373,368.146c0.202,29.525,9.249,55.992,31.68,75.834
	c18.666,16.51,42.048,24.354,65.821,30.25c18.854,4.676,37.45,9.119,54.828,18.096c17.019,8.791,32.9,19.527,48.06,31.209v0.02
	l1.362,1.057l0.011-0.01l0.013,0.01l1.362-1.057v-0.021c15.16-11.68,31.042-22.418,48.06-31.207
	c17.378-8.977,35.973-13.42,54.828-18.096c23.772-5.896,47.154-13.74,65.82-30.25c22.431-19.842,31.479-46.309,31.681-75.834
	c0.094-13.818-1.895-27.186-5.087-40.611c-7.011-29.477-16.741-58.123-17.66-88.706c-1.149-38.284,16.471-100.986,33.543-138.699
	l-54.666-59.338C361.753,62.935,294.79,72.457,251.604,72.621h-0.942c-43.184-0.164-110.145-9.687-157.42-31.829l-54.667,59.338
	c17.073,37.713,34.693,100.416,33.543,138.699c-0.919,30.583-10.65,59.229-17.66,88.706
	C51.267,340.96,49.278,354.328,49.373,368.146L49.373,368.146z"/>
<path fill-rule="evenodd" clip-rule="evenodd" fill="#3BB5CD" d="M285.531,88.987l15.397-1.68
	c4.662-0.509,12.115,0.99,12.024,11.456c-0.087,10.076-2.987,13.906-7.592,16.377c5.968,1.427,6.969,6.543,7.007,9.943l0.093,8.379
	c0.007,0.737,0.214,1.4,1.052,1.954l0.023,6.176l-9.54,1.173v-16.904c0-4.939-3.015-5.83-4.711-5.612l-4.797,0.618v22.938
	l-8.957,0.977V88.987L285.531,88.987z M304.581,103.443c0.486-7.513-1.785-9.186-5.416-8.721l-4.677,0.601v18.368l4.45-0.509
	C301.072,112.94,304.581,110.475,304.581,103.443L304.581,103.443z"/>
<path fill-rule="evenodd" clip-rule="evenodd" fill="#3BB5CD" d="M328.359,83.526l15.396-2.642
	c4.662-0.8,12.115,0.233,12.024,10.705c-0.087,10.082-2.987,14.093-7.592,16.852c5.968,1.055,6.969,6.108,7.007,9.505l0.093,8.374
	c0.008,0.737,0.214,1.387,1.052,1.889l0.023,6.175l-9.54,1.769v-16.904c0-4.94-3.015-5.642-4.711-5.317l-4.796,0.917v22.937
	l-8.957,1.537V83.526L328.359,83.526z M347.408,96.792c0.486-7.543-1.785-9.074-5.416-8.382l-4.676,0.893v18.368l4.449-0.787
	C343.899,106.508,347.408,103.824,347.408,96.792L347.408,96.792z"/>
<polygon fill-rule="evenodd" clip-rule="evenodd" fill="#3BB5CD" points="224.552,89.243 233.618,90.162 220.598,116.984 
	232.072,146.556 223.006,145.593 215.86,126.795 207.506,144.095 198.562,143.298 211.721,116.047 200.281,86.781 209.406,87.927 
	216.458,106.238 224.552,89.243 "/>
<path fill-rule="evenodd" clip-rule="evenodd" fill="#3BB5CD" d="M156.573,78.538l8.957,1.774v41.899
	c0,3.088,0.174,7.862,5.989,9.234c5.815,1.372,6.649-3.229,6.649-6.456V82.811l8.957,1.774v40.801
	c0,10.299-7.515,15.211-15.651,13.517c-14.064-2.791-14.901-13.744-14.901-19.667V78.538L156.573,78.538z"/>
<path fill-rule="evenodd" clip-rule="evenodd" fill="#3BB5CD" d="M132.205,71.009l12.583,60.931l-10.223-3.208l-2.227-13.663
	l-13.445-3.682l-2.735,11.601l-8.621-2.75l13.486-52.731L132.205,71.009L132.205,71.009z M130.656,106.346l-4.388-25.475
	l-5.479,22.921L130.656,106.346L130.656,106.346z"/>
<path fill-rule="evenodd" clip-rule="evenodd" fill="#3BB5CD" d="M371.465,75.559c8.232-2.34,16.467-4.68,24.699-7.02v8.194
	l-15.96,4.536v13.655l13.68-3.888v9.364l-13.68,3.888v16.779l15.96-4.536v7.804c-8.232,2.34-16.467,4.681-24.699,7.021V75.559
	L371.465,75.559z"/>
<polygon fill-rule="evenodd" clip-rule="evenodd" fill="#3BB5CD" points="245.98,91.176 250.653,91.176 254.937,91.176 
	271.294,91.176 271.294,99.37 254.937,99.37 254.937,113.025 268.958,113.025 268.958,122.389 254.937,122.389 254.937,139.168 
	271.294,139.168 271.294,146.972 254.937,146.972 251.821,146.972 245.98,146.972 245.98,91.176 "/>
</svg>
