<?xml version="1.0" encoding="UTF-8" standalone="no"?>
<svg xmlns:dc="http://purl.org/dc/elements/1.1/" xmlns:cc="http://creativecommons.org/ns#" xmlns:rdf="http://www.w3.org/1999/02/22-rdf-syntax-ns#" xmlns:svg="http://www.w3.org/2000/svg" xmlns="http://www.w3.org/2000/svg" xmlns:sodipodi="http://sodipodi.sourceforge.net/DTD/sodipodi-0.dtd" xmlns:inkscape="http://www.inkscape.org/namespaces/inkscape" width="544.9826" height="600" viewBox="0 0 144.1933 158.75" version="1.1" id="svg8" inkscape:version="1.0 (4035a4f, 2020-05-01)" sodipodi:docname="Logo ASC Denain Voltaire PH - 2013.svg">
  <defs id="defs2"/>
  <sodipodi:namedview id="base" pagecolor="#ffffff" bordercolor="#666666" borderopacity="1.0" inkscape:pageopacity="0.0" inkscape:pageshadow="2" inkscape:zoom="0.73216236" inkscape:cx="465.57224" inkscape:cy="194.08582" inkscape:document-units="px" inkscape:current-layer="layer1" inkscape:document-rotation="0" showgrid="false" units="px" inkscape:window-width="1434" inkscape:window-height="756" inkscape:window-x="0" inkscape:window-y="25" inkscape:window-maximized="0"/>
  <metadata id="metadata5">
    <rdf:RDF>
      <cc:Work rdf:about="">
        <dc:format>image/svg+xml</dc:format>
        <dc:type rdf:resource="http://purl.org/dc/dcmitype/StillImage"/>
        <dc:title/>
      </cc:Work>
    </rdf:RDF>
  </metadata>
  <g inkscape:label="Calque 1" inkscape:groupmode="layer" id="layer1" transform="translate(-153.19272,164.01434)">
    <g transform="matrix(1.2572679,0,0,1.2572679,-39.411568,42.195624)" id="g1419">
      <path id="path1237" style="fill:#000000;stroke:none;stroke-width:0.2;stroke-linecap:butt;stroke-linejoin:miter;stroke-miterlimit:4;stroke-dasharray:none;stroke-opacity:1" d="M 295.04492,56.857422 C 228.08526,56.701327 150.17259,84.430743 78.535156,106.88477 c -0.847786,28.8353 0.954716,61.53964 1.501953,78.4375 l 18.791016,4.72851 c 1.252835,59.12565 16.050535,109.71461 31.753905,150.98633 13.31327,34.99008 31.03121,64.78804 52.28516,90.23437 34.62312,41.45262 73.54348,72.64395 112.17773,102.81055 38.63426,-30.1666 77.55462,-61.35793 112.17774,-102.81055 21.25394,-25.44633 38.97188,-55.24429 52.28515,-90.23437 15.70337,-41.27172 30.50107,-91.86068 31.75391,-150.98633 l 18.79101,-4.72851 c 0.54724,-16.89786 2.34974,-49.6022 1.50196,-78.4375 C 439.91725,84.430743 362.00458,56.701327 295.04492,56.857422 Z" transform="matrix(0.26458332,0,0,0.26458332,132.47266,-179.05769)"/>
      <path id="path1231" style="fill:#8a5c07;fill-opacity:1;stroke:none;stroke-width:0.2;stroke-linecap:butt;stroke-linejoin:miter;stroke-miterlimit:4;stroke-dasharray:none;stroke-opacity:1" d="M 295.04492,57.757812 C 228.08526,57.601718 151.07298,85.229571 79.435547,107.68359 c 0.359433,27.62809 0.467824,58.63321 2.101562,76.73829 l 18.591801,4.83007 c 1.25283,59.12565 16.15014,110.51344 31.85351,151.78516 13.31327,34.99008 31.52053,64.46753 52.38477,90.23437 33.17446,40.96973 81.9427,77.86413 110.67773,101.51172 28.73503,-23.64759 77.50327,-60.54199 110.67774,-101.51172 20.86424,-25.76684 39.07149,-55.24429 52.38476,-90.23437 15.70337,-41.27172 30.60068,-92.65951 31.85352,-151.78516 l 18.59179,-4.83007 c 1.63374,-18.10508 1.74213,-49.1102 2.10157,-76.73829 C 439.01686,85.229571 362.00458,57.601718 295.04492,57.757812 Z" transform="matrix(0.26458332,0,0,0.26458332,132.47266,-179.05769)"/>
      <path id="path1233" style="fill:#000000;stroke:none;stroke-width:0.2;stroke-linecap:butt;stroke-linejoin:miter;stroke-miterlimit:4;stroke-dasharray:none;stroke-opacity:1" d="m 295.04492,73.757812 c -57.9402,-0.134929 -123.40757,20.533918 -186.40625,40.652348 -4.30148,98.51373 4.25306,141.70238 21.08008,194.95898 C 156.52524,394.2102 205.0874,453.55 295.04492,518.68359 385.00244,453.55 433.5646,394.2102 460.37109,309.36914 477.19812,256.11254 485.75265,212.92389 481.45117,114.41016 418.45249,94.29173 352.98512,73.622883 295.04492,73.757812 Z" transform="matrix(0.26458332,0,0,0.26458332,132.47266,-179.05769)"/>
      <path id="path1235" style="fill:#c00000;fill-opacity:1;stroke:none;stroke-width:0.2;stroke-linecap:butt;stroke-linejoin:miter;stroke-miterlimit:4;stroke-dasharray:none;stroke-opacity:1" d="m 295.04492,77.757812 c -57.9402,-0.134929 -123.27066,20.516791 -182.40625,40.152348 -4.30148,98.51373 4.25306,138.20238 21.08008,191.45898 C 160.52524,394.2102 205.0874,447.55 295.04492,512.68359 385.00244,447.55 429.5646,394.2102 456.37109,309.36914 473.19812,256.11254 481.75265,216.42389 477.45117,117.91016 418.31559,98.274603 352.98512,77.622883 295.04492,77.757812 Z" transform="matrix(0.26458332,0,0,0.26458332,132.47266,-179.05769)"/>
    </g>
    <g transform="matrix(1.2572679,0,0,1.2572679,-39.411568,42.195624)" id="g1413">
      <path id="path1380" style="fill:#000000;fill-rule:evenodd;stroke-width:1.05114" d="m 255.56836,482.33594 c 2.597,2.1289 5.1231,4.24861 7.81641,6.39062 9.46547,7.52798 19.61613,15.1658 30.33203,22.95117 V 383.41406 h -38.14844 z" transform="matrix(0.26458332,0,0,0.26458332,132.47266,-179.05769)"/>
      <path id="path1368" style="fill:#ffffff;fill-rule:evenodd;stroke-width:0.999999" d="m 257.38086,483.81641 c 2.01203,1.63753 3.9349,3.26465 6.00391,4.91015 8.90059,7.07872 18.51776,14.27964 28.52148,21.58203 V 383.41406 h -34.52539 z" transform="matrix(0.26458332,0,0,0.26458332,132.47266,-179.05769)"/>
      <path id="path1384" style="fill:#000000;fill-rule:evenodd;stroke-width:1.05114" d="m 296.37305,511.67773 c 10.71589,-7.78537 20.86655,-15.42319 30.33203,-22.95117 2.6933,-2.14201 5.2194,-4.26172 7.8164,-6.39062 v -98.92188 h -38.14843 z" transform="matrix(0.26458332,0,0,0.26458332,132.47266,-179.05769)"/>
      <path id="path1374" style="fill:#5a9bd5;fill-opacity:1;fill-rule:evenodd;stroke-width:0.999999" d="m 298.18359,510.30859 c 10.00372,-7.30239 19.62089,-14.50331 28.52149,-21.58203 2.06941,-1.64582 3.99345,-3.2723 6.00586,-4.91015 V 383.41406 h -34.52735 z" transform="matrix(0.26458332,0,0,0.26458332,132.47266,-179.05769)"/>
    </g>
    <g transform="matrix(1.2572679,0,0,1.2572679,-39.160094,42.195624)" id="g1249">
      <circle r="40.500587" cy="-114.39671" cx="210.33661" id="circle1245" style="fill:#8a5c07;fill-opacity:1;fill-rule:evenodd;stroke-width:0.311759"/>
      <circle style="fill:#000000;fill-rule:evenodd;stroke-width:0.302023" id="path1243" cx="210.33661" cy="-114.39671" r="39.235783"/>
    </g>
    <g transform="matrix(1.2572679,0,0,1.2572679,-39.411568,42.195624)" id="g1407">
      <rect style="fill:#8a5c07;fill-opacity:1;fill-rule:evenodd;stroke-width:0.264583" id="rect1251" width="58.899395" height="58.899338" x="181.08693" y="-143.66695" ry="9.8378639"/>
      <path style="fill:#000000;fill-opacity:1;stroke:none;stroke-width:0.0529167;stroke-linecap:butt;stroke-linejoin:miter;stroke-miterlimit:4;stroke-dasharray:none;stroke-opacity:1" d="m 207.40631,-87.195041 h -20.11019 v -35.518569 h 14.10536 v -7.28266 h -14.10536 v -8.04903 h 20.23805 z" id="path1253" sodipodi:nodetypes="ccccccccc"/>
      <path sodipodi:nodetypes="cccccc" id="path1255" d="m 233.52961,-87.195041 h -19.24597 v -47.146089 l 9.68417,6.74675 9.68417,-6.74675 z" style="fill:#000000;fill-opacity:1;stroke:none;stroke-width:0.0517672;stroke-linecap:butt;stroke-linejoin:miter;stroke-miterlimit:4;stroke-dasharray:none;stroke-opacity:1"/>
      <path style="fill:#000000;fill-opacity:1;stroke:none;stroke-width:0.0517672;stroke-linecap:butt;stroke-linejoin:miter;stroke-miterlimit:4;stroke-dasharray:none;stroke-opacity:1" d="m 214.28364,-141.96126 9.68417,6.95853 9.68417,-6.95853 z" id="path1257" sodipodi:nodetypes="cccc"/>
      <g id="g1397">
        <path d="m 209.52112,-99.324575 v 6.020302 a 12.515943,12.515943 0 0 0 1.59164,0.515215 12.515943,12.515943 0 0 0 13.91543,-5.927288 l -4.54908,-2.600354 a 7.2760416,7.2760416 0 0 1 -6.31693,3.664889 7.2760416,7.2760416 0 0 1 -4.64106,-1.672764 z" style="fill:#8a5c07;fill-opacity:1;fill-rule:evenodd;stroke:none;stroke-width:0.079375;stroke-miterlimit:4;stroke-dasharray:none" id="circle1263"/>
        <path d="m 209.52112,-116.55092 v 6.01979 a 7.2760416,7.2760416 0 0 1 4.64106,-1.67276 7.2760416,7.2760416 0 0 1 6.11229,3.32899 l 4.4018,-2.84272 a 12.515943,12.515943 0 0 0 -10.59884,-5.72575 12.515943,12.515943 0 0 0 -3.61631,0.55966 12.515943,12.515943 0 0 0 -0.94,0.33279 z" style="fill:#8a5c07;fill-opacity:1;fill-rule:evenodd;stroke:none;stroke-width:0.079375;stroke-miterlimit:4;stroke-dasharray:none" id="path1283"/>
        <path sodipodi:nodetypes="csccccc" d="m 207.70679,-97.651811 c -4.01845,-1e-6 -7.27604,-3.257589 -7.27604,-7.276039 0,-4.01845 3.25759,-7.27604 7.27604,-7.27604 v -5.23999 c -6.91243,-5e-5 -12.51608,5.6036 -12.51603,12.51603 -5e-5,6.912432 5.6036,12.516078 12.51603,12.51603 z" style="fill:#8a5c07;fill-opacity:1;fill-rule:evenodd;stroke:none;stroke-width:0.079375;stroke-miterlimit:4;stroke-dasharray:none" id="circle1265"/>
      </g>
    </g>
  </g>
</svg>