<?xml version="1.0" encoding="utf-8"?>
<!-- Generator: Adobe Illustrator 23.0.3, SVG Export Plug-In . SVG Version: 6.00 Build 0)  -->
<svg version="1.1" id="Ñëîé_1" xmlns="http://www.w3.org/2000/svg" xmlns:xlink="http://www.w3.org/1999/xlink" x="0px" y="0px"
	 viewBox="0 0 542.4 563.5" style="enable-background:new 0 0 542.4 563.5;" xml:space="preserve">
<style type="text/css">
	.st0{fill:#FFFFFF;}
	.st1{fill:#A18D5A;}
</style>
<g>
	<g>
		<path d="M407.1,166.8H133.6c0,0,0,143.9,0,154.5c-9-14.2-21.2-31.7-32.7-42.3c-13.8-12.8-32.3-17.1-52.1-12.1
			c-16.7,4.2-30.1,15.6-38.9,32.9c-12.4,24.5-13.2,58-2.1,85.4c21.8,53.6,49.7,91,90.5,121.4c50,37.3,109.8,57,172.9,57
			c63.1,0,122.9-19.7,172.9-57c40.7-30.4,68.6-67.8,90.5-121.4c11.1-27.3,10.3-60.8-2.1-85.4c-8.7-17.3-22.2-28.7-38.9-32.9
			c-19.8-5-38.3-0.7-52.1,12.1c-11.5,10.6-23.7,28.1-32.7,42.3c0-10.4,0-154.5,0-154.5H407.1z"/>
		<g>
			<path class="st0" d="M393.7,181.9c0,3.2,0,170.5,0,170.5c-0.3,37.1-12.7,54.8-42.9,61.1l-11.6,2.3c0,0-8.6,1.8-12.5,2.5
				c0-4,0-233.6,0-236.5C329.7,181.9,390.6,181.9,393.7,181.9z"/>
			<path class="st0" d="M215.7,181.9c0,3.2,0,232.6,0,236.5c-2.8-0.6-12.5-2.5-12.5-2.5l-11.6-2.3c-30.2-6.3-42.6-24-42.9-61.2
				c0,0,0-153.2,0-170.4C151.8,181.9,213.2,181.9,215.7,181.9z"/>
		</g>
		<g>
			<path class="st0" d="M117.8,330c0.4-3,0.6-5.9,0.6-8.9c0-0.9-0.1-1.9-0.1-2.8c7.4,11.1,13.3,20.9,15.3,24.5c0,0,0,0.2,0,0.2v9.5
				c0.3,44,17.8,68.2,54.9,75.9l11.7,2.4c27.8,5.5,54,10.7,66.1,28.9c-38.8-1-75.4-13.4-106-36.3c-23.1-17.2-38.8-37.6-52.4-68
				C113.2,347.9,116.5,339.4,117.8,330z"/>
			<path class="st0" d="M434.4,355.4c-13.6,30.4-29.3,50.7-52.4,68c-30.6,22.9-67.3,35.3-106,36.3c12.1-18.2,38.3-23.4,66.1-28.9
				l11.7-2.4c37.2-7.8,54.6-31.9,54.9-75.9V343c0,0,0-0.1,0-0.2c2-3.5,7.8-13.4,15.3-24.5c0,0.9-0.1,1.9-0.1,2.8
				c0,2.9,0.2,5.9,0.6,8.9C425.8,339.4,429.2,347.9,434.4,355.4z"/>
		</g>
		<g>
			<path class="st1" d="M82.1,422.1l-12.6,9.8c-0.8,0.6-2,0.5-2.6-0.3l-4.7-6c-0.6-0.8-0.5-2,0.3-2.6L94,398.5
				c0.8-0.6,2-0.5,2.6,0.3l4.7,6c0.6,0.8,0.5,2-0.3,2.6l-11.8,9.2l10,12.9l11.8-9.2c0.8-0.6,2-0.5,2.6,0.3l4.7,6
				c0.6,0.8,0.5,2-0.3,2.6l-31.5,24.4c-0.8,0.6-2,0.5-2.6-0.3l-4.7-6c-0.6-0.8-0.5-2,0.3-2.6l12.6-9.8L82.1,422.1z"/>
			<path class="st1" d="M128.1,478.5l9.5,6.6c0.8,0.6,1,1.8,0.5,2.6l-3.4,4.8c-0.6,0.8-1.8,1-2.6,0.5l-17.3-12
				c-0.8-0.6-1-1.8-0.5-2.6l22.8-32.7c0.6-0.8,1.8-1,2.6-0.5l17.3,12c0.8,0.6,1,1.8,0.5,2.6l-3.4,4.8c-0.6,0.8-1.8,1-2.6,0.5
				l-9.5-6.6l-4.2,6l9,6.2c0.8,0.6,1,1.8,0.5,2.6l-3.4,4.8c-0.6,0.8-1.8,1-2.6,0.5l-9-6.2L128.1,478.5z"/>
			<path class="st1" d="M181.9,499.5l-5.2,14c-0.4,1-1.4,1.5-2.4,1.1l-7.1-2.6c-1-0.4-1.5-1.4-1.1-2.4l13.9-37.4
				c0.4-1,1.4-1.5,2.4-1.1l14.1,5.3c8.1,3,12.8,9.1,9.5,17.8c-2.1,5.6-7.1,9.3-13.2,8.2l6.1,19.7c0.3,1-0.2,1.5-1.2,1.1l-9.7-3.6
				c-1-0.4-1.9-1.5-2.1-2.5L181.9,499.5z M184.4,492.7l1,0.4c3.5,1.3,7.6,2.1,9.3-2.4c1.7-4.4-2-6.5-5.5-7.8l-1-0.4L184.4,492.7z"/>
			<path class="st1" d="M243.3,524l-2.8,5.6c-0.5,0.9-1.7,1.6-2.7,1.5l-8.3-0.6c-1-0.1-1.5-0.9-1.1-1.8l18.5-38.8
				c0.4-0.9,1.6-1.6,2.7-1.5l8.6,0.7c1,0.1,2.1,0.9,2.4,1.9l12,41.1c0.3,1-0.3,1.7-1.3,1.6l-8.3-0.6c-1-0.1-2.1-0.9-2.4-1.9l-1.7-6
				L243.3,524z M252.9,502.2l-0.1,0l-5.7,13.5l9.4,0.7L252.9,502.2z"/>
			<path class="st1" d="M334.4,513.2l1.8,9.2c0.3,1.6,0.2,2.1-1.1,2.8c-2.7,1.5-5,2.5-8,3.1c-6,1.1-12.1,0-17.3-3.2
				c-5.5-3.3-8.8-8.5-10-14.9c-1.1-5.8,0-11.9,3.3-16.9c3.4-5.1,8.9-8.9,15-10.1c3-0.6,5.9-0.6,8.8-0.1c0.9,0.1,1.9,0.6,2.1,2.1
				l1.7,8.9c0.2,1.3,0.6,2.3-1.6,1.2c-2.6-1.4-5.6-1.9-8.6-1.3c-6.8,1.3-10.4,7.4-9.1,14.1c1.3,6.8,6.9,10.7,13.8,9.4
				c3-0.6,5.8-2.4,7.7-4.8C333.5,512,334.1,511.7,334.4,513.2z"/>
			<path class="st1" d="M363.3,471.1c-0.4-0.9-1.5-1.3-2.5-0.9l-6.9,3.2c-0.9,0.4-1.3,1.5-0.9,2.5l16.7,36.2
				c0.4,0.9,1.5,1.3,2.5,0.9l19.2-8.9c0.9-0.4,1.3-1.5,0.9-2.5l-2.5-5.3c-0.4-0.9-1.5-1.3-2.5-0.9l-10.6,4.9L363.3,471.1z"/>
			<path class="st1" d="M408.5,452.5l9.2-7.1c0.8-0.6,1-1.8,0.3-2.6l-3.6-4.6c-0.6-0.8-1.8-1-2.6-0.3l-16.6,13
				c-0.8,0.6-1,1.8-0.3,2.6l24.5,31.4c0.6,0.8,1.8,1,2.6,0.3l16.6-13c0.8-0.6,1-1.8,0.3-2.6l-3.6-4.6c-0.6-0.8-1.8-1-2.6-0.3
				l-9.2,7.1l-4.6-5.9l8.6-6.7c0.8-0.6,1-1.8,0.3-2.6l-3.6-4.6c-0.6-0.8-1.8-1-2.6-0.3l-8.6,6.7L408.5,452.5z"/>
			<path class="st1" d="M452,406.8c-2,0.8-3.9,2.1-5.1,3.9c-1.2,1.7-1.9,4.6,0.1,6.1c2.1,1.5,4.7-0.4,6.3-1.6l2.4-1.8
				c5-3.9,10.2-5.9,15.9-1.8c3.5,2.5,6.5,6,6.9,10.5c0.4,4.5-1.3,8.9-3.9,12.4c-2.9,4-6.9,7.1-11.5,8.9c-1,0.4-1.7,0.2-2.3-1.1
				l-2.9-5.9c-0.6-1.2-0.3-1.8,0.6-2.1c3.1-0.9,6.1-2.4,8.1-5.1c1.6-2.2,2.1-5.2-0.4-7c-2.6-1.9-6.1,1.1-8.1,2.7
				c-5.8,4.6-10,7.3-16.9,2.4c-7.2-5.2-8.2-13.7-3.1-20.7c2.2-3.1,5.8-6.2,9.3-8.2c1-0.6,1.8-0.5,2.3,0.7l2.9,5.6
				C453.3,405.7,453,406.4,452,406.8z"/>
		</g>
		<path class="st1" d="M395.3,178.6h-71.9l-0.1,1.8l0,242.1l2.1-0.4l14.3-2.9l11.6-2.3c32.1-6.7,45.3-25.3,45.6-64.3V178.6H395.3z
			 M227.6,178.6l-0.1,1.7l0,244.1l1.4,0.4c19.4,5.1,32.1,11.4,41.2,20.5l1.2,1.2l1.2-1.2c9-9.1,21.7-15.5,41.1-20.5l1.4-0.4V178.6
			l-1.9,0h-83.8H227.6z M217.3,178.6l-71.9,0l0,173.7c0.3,39.1,13.5,57.7,45.5,64.4l11.6,2.3c0,0,16.3,3.3,16.3,3.3l0.2-2V178.6
			L217.3,178.6z M405.5,170.1c0,3.2,0,161.4,0,161.4l3.2-3.9l0.1-0.1c7.4-12,21.8-34,34.9-46.1c13-12,30.4-16,49.1-11.3
			c15.7,4,28.5,14.8,36.8,31.2c12,23.7,12.8,56.2,2,82.6c-21.6,53-49.2,90-89.4,120c-49.4,36.9-108.5,56.3-170.9,56.3
			c-62.4,0-121.5-19.5-170.9-56.3c-40.2-30-67.8-67-89.4-120c-10.8-26.5-10-58.9,2-82.6c8.3-16.4,21-27.2,36.8-31.2
			c18.7-4.7,36.1-0.7,49.1,11.3c13.1,12.1,27.5,34,34.9,46c0,0,3.3,5.5,3.3,5.5s0-159.6,0-162.8
			C140.1,170.1,402.3,170.1,405.5,170.1z M273,463c40.6-0.4,79-13.2,111-37.1c23.7-17.7,39.8-38.6,53.6-69.7l0.6-1.2l-0.6-0.8
			c-5.3-7.2-8.6-15.5-9.8-24.7c-0.8-5.8-0.8-11.6,0.1-17.2c0.6-4.2,2-7.2,2-7.2s-2.7,3-5.3,6.6c-9.3,13.3-16.8,26.2-18.9,29.8
			l-0.2,0.4c0,0,0,0.9,0,1c0,0.1,0,9.4,0,9.4c-0.3,42.8-16.5,65.2-52.3,72.7l-11.7,2.3c-28.5,5.6-57.9,11.4-69.9,32.9l-0.4,0.7
			l-0.1-0.1l-0.3-0.6c-12-21.5-41.4-27.3-69.9-32.9l-11.7-2.3c-35.9-7.5-52-29.9-52.3-72.7c0,0,0-9.3,0-9.4c0-0.1,0-1,0-1l-0.2-0.4
			c-2.1-3.6-9.7-16.5-18.9-29.8c-2.6-3.6-5.3-6.6-5.3-6.6s1.4,3.1,2,7.2c0.8,5.6,0.9,11.4,0.1,17.2c-1.2,9.2-4.5,17.5-9.8,24.7
			l-0.6,0.8l0.6,1.2c13.8,31.1,29.9,52,53.6,69.7c32,23.9,70.4,36.7,111,37.1C270.2,463,273,463,273,463z M450.3,286.9
			c-11,9.8-16.3,25.3-14.1,41.5c2.3,16.8,13.1,30.5,28.2,35.7c16,5.5,30.2,4.1,39,2.2c-17.3,12.1-40.4,11.1-57.3-2.9l-1.7-1.6
			l-1.1,2c-14.1,30.3-30.4,51-54.4,68.9c-34,25.4-74.8,38.8-117.9,38.8c-43.2,0-83.9-13.4-117.9-38.8c-24.1-18-40.4-38.6-54.4-68.9
			l-0.8-1.8l-1.9,1.3l0,0c-16.9,14-39.9,15-57.3,2.9c8.8,1.9,23.1,3.2,39-2.2c15.1-5.2,26-18.9,28.2-35.7
			c2.2-16.2-3.1-31.7-14.1-41.5c-10.5-9.4-24.9-12.4-40.3-8.5c-16.8,4.2-26.2,16.9-31.2,26.8c-10.9,21.6-11.6,51.3-1.7,75.6
			c21,51.5,47.7,87.3,86.6,116.3c47.9,35.8,105.3,54.7,165.8,54.7c60.5,0,117.9-18.9,165.8-54.7c38.9-29,65.6-64.9,86.6-116.3
			c9.9-24.3,9.2-53.9-1.7-75.6c-5-9.9-14.5-22.5-31.2-26.8C475.2,274.5,460.9,277.5,450.3,286.9z"/>
	</g>
	<g>
		<path d="M289.6,2.1c-44-10.2-87.9,17.3-98.1,61.3c-10.2,44,17.3,87.9,61.3,98.1c44,10.2,87.9-17.3,98.1-61.3
			C361,56.2,333.6,12.3,289.6,2.1z"/>
		<path class="st1" d="M311,101.2c0.4,2.1,0.5,5.6-0.7,10.5c-2.2,8.7-11.9,14.7-17,17.4l-0.2,0c-6.2-9.5-12.5-13.8-19.5-13.6
			c-5.3,0.2-8.8,1.9-11.3,4.5l-0.1-0.2c-1.1-3.4-3.5-6.4-8.1-8.8c-4.8-2.6-10.5-2.4-17.5,0.5l-0.1-0.1c-2.7-4-6.2-11.1-4.7-17.8
			c1.1-4.7,2.6-7.7,3.8-9.5c0.6-0.9,1.4-1.3,2.6-1l70.9,16.4C310.3,99.8,310.8,100,311,101.2z"/>
		<path class="st1" d="M329.5,34.9c-14.6,22-31.6,31.3-38.9,29.5c-3.4-0.9-6.1-2.7-7.8-5.2c-1.2-1.8-1.9-3.9-2-6.1
			c0-1,0.1-1.9,0.3-2.7l1.9-8.1l0.1-0.2c4.8,1.3,7.9,2.4,8.3,1.4c0.4-1.1-2.1-3.2-7.5-5l0-0.1l1.9-8.2l0.1,0.1
			c6,1.4,9.9,3.1,10.3,1.9c0.4-1.2-2.7-3.7-9.5-5.7l-0.1-0.1l3.9-17.1l0-0.1c15.9,4.3,29.4,13.4,39.1,25.5L329.5,34.9z"/>
		<path class="st1" d="M332.9,39.3c-5.9,8.6-12.3,15.5-18.4,20.5l0,0.1c3.5,4.9,9.6,15.5,7.4,25.1c-1.6,7-4.2,11-5.9,13l-0.2,0.3
			c0.8,2.5,1.5,7.4-0.4,14.7c-2.7,10.6-13.4,17.5-19.3,20.6l-0.2,0.1c2.5,4.4,4.9,9.6,7.4,15.7l0.1,0.3c20-9.5,35.7-27.8,41-51
			c4.9-21.4,0.2-42.8-11.4-59.6L332.9,39.3z"/>
		<path class="st1" d="M310.4,63.2c3,4.4,8.1,13.2,6.4,20.6l0,0c-1.5,6.3-3.7,9.5-4.9,10.9c-2.5-0.6-61.6-14.2-72.3-16.7
			c-0.8-0.2-1.8-0.9-1.9-2.4c-0.3-2.1-0.3-5.4,0.8-9.9c1.3-5.5,5.7-9.7,9.6-12.4l0.1,0.1c3.9,5.2,8.2,8.4,12.2,9.3
			c6.4,1.3,12.3-0.4,16.3-4.3l0.1,0.2c1.9,5.2,6.5,9.3,12.7,10.9c5.3,1.3,12.7-0.9,20.9-6.5L310.4,63.2z"/>
		<path class="st1" d="M251.4,154.4c-14.1-3.8-26.3-11.5-35.6-21.7l0.2-0.1c16.9-15.1,28.6-20.7,35.7-16.9c6.6,3.5,6.9,8.1,5,17.1
			l-5,21.6L251.4,154.4z"/>
		<path class="st1" d="M256.8,155.6l4.6-19.9c0.6-2.5,0.9-3.9,1.7-6.2c1.9-5.8,4.6-8.5,10.7-8.7c8.1-0.3,16.2,9.8,24.7,30.8l0.1,0.2
			c-12.8,5-27.1,6.6-41.5,3.9L256.8,155.6z"/>
		<path class="st1" d="M285.5,8.1l-3.9,17.1l-0.1,0c-6.9-1.2-10.9-0.3-11,0.9c-0.1,1.2,4.1,1.5,10.1,2.8l0.2,0l-1.9,8.1l0,0.2
			c-5.6-0.7-8.8,0.1-8.9,1.2c-0.1,1,3.2,1.4,8.1,2.4l0,0.1l-1.9,8.2c-1.6,6.4-7.7,10-14.7,8.5c-7.4-1.5-18.6-17.5-22.1-43.8l0.1,0
			c14-6.6,30-8.9,46.2-5.7L285.5,8.1z"/>
		<path class="st1" d="M212.4,128.7c-13.8-17.3-19.9-40.6-14.5-63.9c4.9-21.4,18.6-38.5,36.3-48.5l0.1-0.1
			c2,13.4,5.9,24.6,10.7,32.6l0.1,0.1c-4.6,3.2-10.1,8.4-11.8,15.6c-1.7,7.3-1,12.1-0.3,14.6l-0.1,0.1c-1.7,1.9-4.4,6-6.1,13.2
			c-1.9,8.3,1.9,16.4,5,21.3l0.1,0.2c-5.7,3.2-12.1,8.1-19.4,14.6L212.4,128.7z"/>
	</g>
</g>
</svg>
