<?xml version="1.0" encoding="utf-8"?>
<!-- Generator: Adobe Illustrator 23.0.3, SVG Export Plug-In . SVG Version: 6.00 Build 0)  -->
<svg version="1.1" id="Ñëîé_1" xmlns="http://www.w3.org/2000/svg" xmlns:xlink="http://www.w3.org/1999/xlink" x="0px" y="0px"
	 viewBox="0 0 526.4 595.7" style="enable-background:new 0 0 526.4 595.7;" xml:space="preserve">
<style type="text/css">
	.st0{fill:#FFFFFF;}
	.st1{fill:#E64937;}
</style>
<g>
	<g>
		<g>
			<path class="st0" d="M177.9,30.5c0-13.7-11.1-24.8-24.8-24.8H37.8C24.1,5.7,13,16.8,13,30.5v402.8c0,13.7,11.1,24.8,24.8,24.8
				h115.3c13.7,0,24.8-11.1,24.8-24.8V326c13.9,8.9,26.7,16.8,36.6,22.7c23.3,13.9,35.3,15,48.6,15h0.3c13.3,0,25.3-1.1,48.6-15
				c9.9-5.9,22.7-13.9,36.6-22.7l0,107.2c0,13.7,11.1,24.8,24.8,24.8h115.3c13.7,0,24.8-11.1,24.8-24.8V30.5
				c0-13.7-11.1-24.8-24.8-24.8H373.3c-13.7,0-24.8,11.1-24.8,24.8l0,63.6c-1.7-0.1-3.5-0.1-5.3-0.1c-40.1,0-66.3,22.9-80,39.3
				c-13.6-16.4-39.9-39.3-80-39.3c-1.8,0-3.6,0-5.3,0.1L177.9,30.5z"/>
			<path d="M373.3,0c-16.8,0-30.5,13.7-30.5,30.5c0,0,0,48.4,0,57.9c-38.9,0.1-65.4,21-79.6,36.4c-14.3-15.4-40.7-36.2-79.6-36.4
				c0-9.5,0-57.9,0-57.9c0-16.8-13.7-30.5-30.5-30.5H37.8C21,0,7.3,13.7,7.3,30.5v402.8c0,16.8,13.7,30.5,30.5,30.5h115.3
				c16.8,0,30.5-13.7,30.5-30.5c0,0,0-80.1,0-96.9c10.8,6.8,20.4,12.7,28,17.3c24.5,14.6,37.8,15.8,51.5,15.8h0.3
				c13.7,0,27-1.2,51.5-15.8c7.6-4.6,17.2-10.5,28-17.3c0,16.8,0,96.9,0,96.9c0,16.8,13.7,30.5,30.5,30.5h115.3
				c16.8,0,30.5-13.7,30.5-30.5V30.5c0-16.8-13.7-30.5-30.5-30.5H373.3z M354.2,94.1l0-63.6c0-10.6,8.6-19.1,19.1-19.1h115.3
				c10.6,0,19.1,8.6,19.1,19.1v402.8c0,10.6-8.6,19.1-19.1,19.1H373.3c-10.6,0-19.1-8.6-19.1-19.1l0-117.5l-8.7,5.5
				c-14.3,9.1-26.9,16.9-36.4,22.6c-22.1,13.2-32.9,14.2-45.7,14.2h-0.3c-12.8,0-23.6-1-45.7-14.2c-9.6-5.7-22.2-13.6-36.5-22.7
				l-8.7-5.5v117.6c0,10.6-8.6,19.1-19.1,19.1H37.8c-10.6,0-19.1-8.6-19.1-19.1V30.5c0-10.6,8.6-19.1,19.1-19.1h115.3
				c10.6,0,19.1,8.6,19.1,19.1l0,69.4l11-0.2c36.9,0,61.5,20.2,75.6,37.2l4.4,5.2l4.4-5.2c14.2-17,38.8-37.2,75.7-37.2l10.9,0.2
				L354.2,94.1z"/>
		</g>
		<g>
			<path class="st1" d="M343.2,119.5c44.6,0,67,23.7,78,43.5c8.9,16.1,11.1,39.9,5.5,59.2c-5.2,17.8-15.8,32.2-31.3,42.6
				c-32.3,21.8-72.9,47.9-96.5,62c-19.1,11.4-26.7,11.4-35.5,11.4h-0.3c-8.8,0-16.4,0-35.5-11.4c-23.6-14.1-64.2-40.2-96.5-62
				c-15.5-10.5-26.1-24.8-31.3-42.6c-5.7-19.3-3.5-43.1,5.5-59.2c11-19.9,33.5-43.5,78-43.5c50.9,0,75,60.3,75.9,62l8,0
				C268.1,179.9,292.3,119.5,343.2,119.5z"/>
			<path d="M263.6,175.9c-0.4,0-0.4,0-0.8,0c-8.3-17.5-33.8-62-79.6-62c-47.3,0-71.2,25.3-83,46.4c-9.6,17.4-12,42.9-5.9,63.5
				c5.6,19.1,16.9,34.5,33.6,45.7c32.4,21.8,73.1,48,96.8,62.2c20.4,12.2,29.2,12.2,38.4,12.2h0.3c9.2,0,17.9,0,38.4-12.2
				c23.7-14.2,64.4-40.3,96.8-62.2c16.7-11.2,28-26.6,33.6-45.7c6.1-20.6,3.7-46.2-5.9-63.5c-11.7-21.2-35.7-46.4-83-46.4
				C297.5,113.9,271.8,158.4,263.6,175.9z M272.2,184.3l0.5-1.1c6.1-13.6,29.2-57.9,70.5-57.9c41.8,0,62.8,22.1,73.1,40.6
				c8.3,14.9,10.3,36.9,5,54.8c-4.9,16.5-14.6,29.8-29.1,39.5c-32.2,21.7-72.7,47.7-96.3,61.8c-17.8,10.6-24.3,10.6-32.6,10.6h-0.3
				c-8.3,0-14.8,0-32.6-10.6c-23.6-14.1-64.1-40.1-96.3-61.8c-14.4-9.7-24.2-23-29-39.5c-5.3-17.9-3.3-40,5-54.8
				c10.3-18.5,31.3-40.6,73.1-40.6c41.3,0,64.3,44.3,70.4,57.9l0.5,1.1c0.9,2,2.8,3,5,3l8,0C269.4,187.2,271.2,186.3,272.2,184.3z"
				/>
		</g>
		<g>
			<path d="M152.4,35.2c0-2.2-1.8-4-4-4H42.5c-2.2,0-4,1.8-4,4v393.4c0,2.2,1.8,4,4,4h105.8c2.2,0,4-1.8,4-4l0-118.9
				c-12.2-7.9-24.4-16-35.6-23.6c-20.6-13.9-34.6-32.9-41.5-56.6c-7.6-25.8-4.6-56.7,7.6-78.8c9.5-17.1,30.1-43.7,69.5-53.2
				L152.4,35.2z"/>
			<path d="M42.5,25.5c-5.3,0-9.7,4.3-9.7,9.7v393.4c0,5.3,4.3,9.7,9.7,9.7h105.8c5.3,0,9.7-4.3,9.7-9.7l0-118.9
				c0-1.9-1-3.7-2.6-4.8c-12.4-8.1-24.7-16.2-35.5-23.5c-19.5-13.1-32.7-31.1-39.3-53.5c-7.2-24.4-4.4-53.6,7.1-74.4
				c8.3-14.9,27.8-41.3,65.9-50.4c2.5-0.6,4.3-2.9,4.3-5.5l0-62.3c0-5.3-4.3-9.7-9.7-9.7H42.5z M146.7,36.9c0,2.9,0,49.1,0,56.4
				c-39.4,11.1-59.9,38.8-68.8,54.7c-8.2,14.8-12.5,33.3-12.5,51.8c0,10.7,1.4,21.4,4.4,31.4c7.3,25,22.1,45,43.8,59.7
				c10.1,6.8,21.5,14.4,33.1,21.9c0,5.7,0,111.1,0,114.2c-3.2,0-99.4,0-102.5,0c0-3.3,0-386.8,0-390
				C47.3,36.9,143.5,36.9,146.7,36.9z"/>
		</g>
		<g>
			<path d="M374,428.6c0,2.2,1.8,4,4,4h105.8c2.2,0,4-1.8,4-4V35.2c0-2.2-1.8-4-4-4H378c-2.2,0-4,1.8-4,4l0,62.3
				c39.4,9.5,60,36,69.5,53.2c12.2,22,15.2,53,7.6,78.8c-7,23.7-20.9,42.7-41.5,56.6c-11.2,7.6-23.4,15.7-35.6,23.6L374,428.6z"/>
			<path d="M378,25.5c-5.3,0-9.7,4.3-9.7,9.7l0,62.3c0,2.6,1.8,4.9,4.3,5.5c38.1,9.1,57.6,35.5,65.9,50.4
				c11.5,20.8,14.3,50,7.1,74.4c-6.6,22.4-19.8,40.4-39.3,53.5c-11.1,7.5-23.4,15.6-35.5,23.5c-1.6,1-2.6,2.8-2.6,4.8l0,118.9l0,0
				c0,5.3,4.3,9.7,9.7,9.7h105.8c5.3,0,9.7-4.3,9.7-9.7V35.2c0-5.3-4.3-9.7-9.7-9.7H378z M379.7,35.2L379.7,35.2L379.7,35.2z
				 M482.2,36.9c0,3.3,0,386.8,0,390c-3.2,0-99.4,0-102.5,0c0-3.1,0-108.5,0-114.2c11.4-7.4,22.8-15,33.1-22
				c21.7-14.6,36.4-34.7,43.8-59.7c2.9-10,4.4-20.7,4.4-31.4c0-18.5-4.3-37-12.5-51.8c-8.8-16-29.4-43.7-68.8-54.7
				c0-7.3,0-53.4,0-56.3C382.8,36.9,479,36.9,482.2,36.9z M379.7,428.6L379.7,428.6L379.7,428.6L379.7,428.6z"/>
		</g>
	</g>
	<g>
		<polygon points="41.6,529.8 29,529.8 29,487.2 0,487.2 0,595.7 29,595.7 29,553.4 41.6,553.4 41.6,595.7 70.5,595.7 70.5,487.2 
			41.6,487.2 		"/>
		<path d="M84.5,491.9c-4.2,4.5-5.4,16.5-5.4,27.7v43.6c0,11.2,1.1,23.2,5.4,27.7c3.7,4.7,10.4,4.7,18.1,4.7h32.5V572h-26.8l0-18.6
			h26.8v-24h-26.8l0-18.6h26.8v-23.7h-32.5C94.9,487.2,88.1,487.2,84.5,491.9z"/>
		<path d="M212.7,555.8c-0.1-9.7-7.8-13.5-12.6-14.6c-3.5-0.8-3.3-1.1,0.4-1.6c5.5-0.8,12.2-5.7,12.3-16.2v-19.2
			c0-5.6-2.1-17-14.9-17h-26.4h-29v108.5h29l0-42.3h7c3,0,5.3,3,5.3,7.1v20.5c0.1,10.7,2.3,14.6,2.3,14.6h28.8c0,0-2.1-6.8-2.1-15.5
			V555.8z M183.7,524.3c0,3.1-1.9,5.4-5.3,5.4h-7l0-18.8l7,0c3.2,0,5.3,2.8,5.3,6V524.3z"/>
		<path d="M266.1,487.2h-19.7c-2.2,0-14.8-0.8-20.5,4.3c-5.2,4.8-4.8,13.2-4.8,17.9v86.3h29v-23.2h12.4v23.2h29v-86.3
			c0-4.7,0.4-13.1-4.8-17.9C280.9,486.5,268.4,487.2,266.1,487.2z M262.5,548.8h-12.4v-29.6c0-8.1,3.8-9.4,6.2-9.4h0
			c2.4,0,6.2,1.3,6.2,9.4V548.8z"/>
		<path d="M305.2,493.1c-4.7,6.6-4.7,16.6-4.9,23.7v49.4c0.1,7.1,0.1,17.1,4.9,23.7c4.9,6.1,12.5,5.9,15.9,5.9l27.3,0V572h-12.6
			c-3.3,0-6.5-2.8-6.5-6.8v-47.5c0-4,3.2-6.9,6.5-6.8h12.6v-23.7l-27.3,0C317.7,487.2,310.1,487,305.2,493.1z"/>
		<path d="M384.1,505.3c0-7.9,2.4-18.1,2.4-18.1h-33.3c0,0,1.8,8.5,1.9,18.1v90.4h43.3l5.2-24.4l-19.5,1V505.3z"/>
		<path d="M412.2,491.9c-4.2,4.5-5.4,16.5-5.4,27.7v43.6c0,11.2,1.1,23.2,5.4,27.7c3.7,4.7,10.4,4.7,18.1,4.7h32.5V572H436l0-18.6
			h26.8v-24H436l0-18.6h26.8v-23.7h-32.5C422.6,487.2,415.9,487.2,412.2,491.9z"/>
		<path d="M522.1,535.5c-3.7-4.7-8.4-5.6-12.2-5.6l-11.9-0.1l0-18.9h25.6v-23.7l-32.9,0c-4.4,0-11.7,0-16.1,4.6
			c-4.1,4.5-5.6,12.5-5.6,19.6V533c0,2.7,0.6,9.7,4.3,14.4c3.7,4.7,8.4,5.6,12.2,5.6l11.5,0.1V572h-27.7v23.7h35.3
			c4.4,0,11.7,0,16.1-4.6c4.1-4.5,5.6-12.5,5.6-19.6v-21.6C526.4,547.2,525.8,540.3,522.1,535.5z"/>
	</g>
</g>
</svg>
