<?xml version="1.0" encoding="UTF-8" standalone="no"?>
<svg
   xmlns:dc="http://purl.org/dc/elements/1.1/"
   xmlns:cc="http://creativecommons.org/ns#"
   xmlns:rdf="http://www.w3.org/1999/02/22-rdf-syntax-ns#"
   xmlns:svg="http://www.w3.org/2000/svg"
   xmlns="http://www.w3.org/2000/svg"
   xmlns:xlink="http://www.w3.org/1999/xlink"
   xmlns:sodipodi="http://sodipodi.sourceforge.net/DTD/sodipodi-0.dtd"
   xmlns:inkscape="http://www.inkscape.org/namespaces/inkscape"
   id="svg1190"
   version="1.1"
   viewBox="0 0 185.20835 125.53704"
   height="125.53704mm"
   width="185.20834mm"
   sodipodi:docname="Logo SO Montpelliérain - 1930.svg"
   inkscape:version="1.0.1 (c497b03c, 2020-09-10)">
  <sodipodi:namedview
     pagecolor="#ffffff"
     bordercolor="#666666"
     borderopacity="1"
     objecttolerance="10"
     gridtolerance="10"
     guidetolerance="10"
     inkscape:pageopacity="0"
     inkscape:pageshadow="2"
     inkscape:window-width="1920"
     inkscape:window-height="911"
     id="namedview878"
     showgrid="false"
     inkscape:zoom="1.03"
     inkscape:cx="212.18041"
     inkscape:cy="61.225755"
     inkscape:window-x="0"
     inkscape:window-y="25"
     inkscape:window-maximized="0"
     inkscape:current-layer="svg1190"
     inkscape:document-rotation="0" />
  <defs
     id="defs1184">
    <g
       id="circles">
      <g
         id="circles-1">
        <circle
           cx="300"
           cy="69"
           r="21"
           id="circle1624" />
        <circle
           cx="219.85001"
           cy="129.05"
           r="21"
           id="circle1626" />
        <circle
           cx="380.14999"
           cy="129.05"
           r="21"
           id="circle1628" />
      </g>
      <use
         xlink:href="#circles-1"
         transform="rotate(90,300,280)"
         id="use1631"
         x="0"
         y="0"
         width="100%"
         height="100%" />
      <use
         xlink:href="#circles-1"
         transform="rotate(180,300,280)"
         id="use1633"
         x="0"
         y="0"
         width="100%"
         height="100%" />
      <use
         xlink:href="#circles-1"
         transform="rotate(-90,300,280)"
         id="use1635"
         x="0"
         y="0"
         width="100%"
         height="100%" />
    </g>
  </defs>
  <metadata
     id="metadata1187">
    <rdf:RDF>
      <cc:Work
         rdf:about="">
        <dc:format>image/svg+xml</dc:format>
        <dc:type
           rdf:resource="http://purl.org/dc/dcmitype/StillImage" />
        <dc:title />
      </cc:Work>
    </rdf:RDF>
  </metadata>
  <g
     id="g1017"
     transform="matrix(2.150548,0,0,2.150548,-100.46826,-103.23587)">
    <path
       id="path954"
       style="fill:#ff0000;fill-opacity:1;stroke:none;stroke-width:0.999999px;stroke-linecap:butt;stroke-linejoin:miter;stroke-opacity:1"
       d="m 339.32031,181.4375 c -12.65497,-0.10672 -22.16831,2.31783 -31.06836,8.49414 l -129,91.86524 c -3.38699,2.75095 -2.5526,6.34208 -2.66992,9.95117 0.11732,3.60909 -0.71707,7.20022 2.66992,9.95117 l 129,91.86523 c 8.90005,6.17628 18.41339,8.60088 31.06836,8.49414 12.65498,0.10674 22.16636,-2.31786 31.06641,-8.49414 l 129,-91.86523 c 3.38698,-2.75095 2.55276,-6.34208 2.66992,-9.95117 -0.11716,-3.60909 0.71706,-7.20022 -2.66992,-9.95117 l -129,-91.86524 c -8.90005,-6.17631 -18.41143,-8.60086 -31.06641,-8.49414 z"
       transform="scale(0.26458333)" />
    <path
       id="path952"
       style="fill:#ffffff;stroke:none;stroke-width:0.999999px;stroke-linecap:butt;stroke-linejoin:miter;stroke-opacity:1"
       d="m 339.32031,185.4375 c -12.65497,-0.10672 -21.1976,2.56002 -30.09765,8.73633 l -125.24219,89.32226 c -3.387,2.75096 -3.28112,4.64287 -3.39844,8.25196 0.11732,3.60909 0.0114,5.501 3.39844,8.25195 l 125.24219,89.32031 c 8.90005,6.17632 17.44268,8.84502 30.09765,8.73828 12.65498,0.10674 21.19566,-2.56196 30.09571,-8.73828 L 494.66016,300 c 3.38626,-2.75095 3.27932,-4.64286 3.39648,-8.25195 -0.11716,-3.60909 -0.0102,-5.501 -3.39648,-8.25196 L 369.41602,194.17383 c -8.90005,-6.17631 -17.44073,-8.84305 -30.09571,-8.73633 z"
       transform="scale(0.26458333)" />
  </g>
  <g
     id="g1013"
     transform="matrix(2.072022,0,0,2.072022,-94.78111,-98.079169)"
     style="fill:#ff0000;fill-opacity:0.988235">
    <path
       d="m 73.785956,80.790897 q 0,1.201488 -0.566217,2.375355 -0.552409,1.173867 -1.560554,1.988669 -1.104816,0.883853 -2.582508,1.38102 -1.46388,0.497167 -3.535411,0.497167 -2.223443,0 -4.004959,-0.414305 -1.767706,-0.414306 -3.604463,-1.229109 v -3.42493 h 0.193343 q 1.560553,1.298159 3.604463,2.00248 2.04391,0.70432 3.839236,0.70432 2.541078,0 3.949718,-0.952904 1.422451,-0.952904 1.422451,-2.541077 0,-1.367211 -0.6767,-2.01629 -0.662889,-0.649079 -2.030099,-1.008145 -1.035766,-0.276203 -2.251064,-0.455737 -1.201487,-0.179532 -2.554887,-0.455737 -2.734421,-0.580027 -4.0602,-1.974858 -1.311969,-1.408641 -1.311969,-3.659704 0,-2.582508 2.182012,-4.225922 2.182012,-1.657224 5.537891,-1.657224 2.168202,0 3.977339,0.414306 1.809136,0.414305 3.203967,1.021955 v 3.231587 h -0.193343 q -1.173867,-0.994335 -3.093486,-1.643414 -1.905807,-0.662889 -3.908287,-0.662889 -2.195822,0 -3.535412,0.911473 -1.32578,0.911473 -1.32578,2.347734 0,1.284349 0.66289,2.01629 0.66289,0.731941 2.333925,1.118626 0.883853,0.193343 2.513457,0.469547 1.629603,0.276204 2.76204,0.566219 2.292493,0.607648 3.452551,1.836756 1.160056,1.229108 1.160056,3.438741 z"
       style="font-style:normal;font-variant:normal;font-weight:normal;font-stretch:normal;font-size:26.4583px;line-height:1.25;font-family:Verdana;-inkscape-font-specification:Verdana;white-space:pre;fill:#ff0000;fill-opacity:0.988235;stroke-width:1.06898"
       id="path942" />
    <path
       d="m 93.718663,68.458386 q 1.256728,1.38102 1.919618,3.3835 0.6767,2.002479 0.6767,4.543557 0,2.541077 -0.69051,4.557366 -0.6767,2.002479 -1.905808,3.342069 -1.270538,1.39483 -3.010624,2.099151 -1.726275,0.704321 -3.949718,0.704321 -2.168201,0 -3.949718,-0.718131 -1.767706,-0.718131 -3.010624,-2.085341 -1.242919,-1.36721 -1.919619,-3.355879 -0.662889,-1.988669 -0.662889,-4.543556 0,-2.513458 0.662889,-4.502127 0.66289,-2.002479 1.933429,-3.42493 1.215298,-1.3534 3.010624,-2.071531 1.809137,-0.71813 3.935908,-0.71813 2.209633,0 3.963528,0.73194 1.767706,0.718131 2.996814,2.057721 z m -0.248584,7.927057 q 0,-4.00496 -1.795325,-6.173161 -1.795327,-2.182013 -4.902623,-2.182013 -3.134916,0 -4.930243,2.182013 -1.781516,2.168201 -1.781516,6.173161 0,4.046389 1.822948,6.20078 1.822946,2.140582 4.888811,2.140582 3.065865,0 4.875001,-2.140582 1.822947,-2.154391 1.822947,-6.20078 z"
       style="font-style:normal;font-variant:normal;font-weight:normal;font-stretch:normal;font-size:26.4583px;line-height:1.25;font-family:Verdana;-inkscape-font-specification:Verdana;white-space:pre;fill:#ff0000;fill-opacity:0.988235;stroke-width:1.06898"
       id="path944" />
    <path
       d="m 118.88416,86.660233 h -2.73442 v -17.71849 l -5.71743,12.056307 h -1.6296 l -5.676,-12.056307 v 17.71849 h -2.55488 V 66.096841 h 3.72875 l 5.48265,11.448658 5.30312,-11.448658 h 3.79781 z"
       style="font-style:normal;font-variant:normal;font-weight:normal;font-stretch:normal;font-size:26.4583px;line-height:1.25;font-family:Verdana;-inkscape-font-specification:Verdana;white-space:pre;fill:#ff0000;fill-opacity:0.988235;stroke-width:1.06898"
       id="path946" />
  </g>
</svg>
