<?xml version="1.0" encoding="UTF-8" standalone="no"?>
<svg
   xmlns:dc="http://purl.org/dc/elements/1.1/"
   xmlns:cc="http://creativecommons.org/ns#"
   xmlns:rdf="http://www.w3.org/1999/02/22-rdf-syntax-ns#"
   xmlns:svg="http://www.w3.org/2000/svg"
   xmlns="http://www.w3.org/2000/svg"
   xmlns:sodipodi="http://sodipodi.sourceforge.net/DTD/sodipodi-0.dtd"
   xmlns:inkscape="http://www.inkscape.org/namespaces/inkscape"
   id="svg2"
   xml:space="preserve"
   height="700"
   width="700"
   version="1.1"
   viewBox="0 0 699.99701 700.00192"
   inkscape:version="0.91 r13725"
   sodipodi:docname="Logo SO Montpellier 1920's.svg"><defs
     id="defs13" /><sodipodi:namedview
     pagecolor="#ffffff"
     bordercolor="#666666"
     borderopacity="1"
     objecttolerance="10"
     gridtolerance="10"
     guidetolerance="10"
     inkscape:pageopacity="0"
     inkscape:pageshadow="2"
     inkscape:window-width="1440"
     inkscape:window-height="788"
     id="namedview11"
     showgrid="false"
     inkscape:zoom="0.31868809"
     inkscape:cx="249.21938"
     inkscape:cy="423.3342"
     inkscape:window-x="0"
     inkscape:window-y="1"
     inkscape:window-maximized="1"
     inkscape:current-layer="svg2" /><metadata
     id="metadata8"><rdf:RDF><cc:Work
         rdf:about=""><dc:format>image/svg+xml</dc:format><dc:type
           rdf:resource="http://purl.org/dc/dcmitype/StillImage" /><dc:title></dc:title></cc:Work></rdf:RDF></metadata><g
     id="g4325"
     transform="matrix(0.93333333,0,0,0.93333333,-16.322986,45.173698)"><circle
       r="375.00101"
       cy="326.60062"
       cx="392.4873"
       id="path4300"
       style="opacity:1;fill:#ff0000;fill-opacity:1;fill-rule:evenodd;stroke:none;stroke-width:0;stroke-linecap:round;stroke-linejoin:round;stroke-miterlimit:4;stroke-dasharray:none;stroke-dashoffset:0;stroke-opacity:1" /><circle
       style="opacity:1;fill:#ffffff;fill-opacity:1;fill-rule:evenodd;stroke:none;stroke-width:0;stroke-linecap:round;stroke-linejoin:round;stroke-miterlimit:4;stroke-dasharray:none;stroke-dashoffset:0;stroke-opacity:1"
       id="circle4302"
       cx="392.4873"
       cy="326.60062"
       r="332.63974" /><g
       style="fill:#ff0000;fill-opacity:1"
       id="g4321"><path
         style="opacity:1;fill:#ff0000;fill-opacity:1;fill-rule:evenodd;stroke:none;stroke-width:0;stroke-linecap:round;stroke-linejoin:round;stroke-miterlimit:4;stroke-dasharray:none;stroke-dashoffset:0;stroke-opacity:1"
         d="m 205.5293,40.1875 -56.48047,51.447266 0,477.367184 56.48047,40 0,-475.2832 186.95898,246.77344 186.95899,-246.77344 0,475.2832 56.48046,-40 0,-477.367184 L 579.44727,40.1875 392.48828,286.95898 205.5293,40.1875 Z"
         transform="matrix(1.0000027,0,0,1.0000027,-0.00244141,0)"
         id="rect4307"
         inkscape:connector-curvature="0" /><path
         style="fill:#ff0000;fill-opacity:1;fill-rule:evenodd;stroke:none;stroke-width:1px;stroke-linecap:butt;stroke-linejoin:miter;stroke-opacity:1"
         d="m 475.77752,130.87021 52.95161,-21.57287 C 512.18097,49.763591 459.11325,17.813364 414.87679,14.028257 333.57144,10.164074 286.70104,62.302303 271.99734,126.98933 c -18.78494,82.64191 105.46841,158.08579 171.20775,184.72062 56.81974,31.43498 77.57732,72.72063 80.66355,109.76562 3.57517,42.91405 -20.28422,75.89297 -31.8276,89.76378 -32.61325,39.18889 -100.61303,52.09415 -148.94643,24.47779 -26.79867,-15.312 -55.69955,-47.51484 -62.41744,-106.41021 l -55.47028,19.4146 c 4.79757,38.02229 32.79133,115.29331 101.9957,143.28538 47.17215,19.0804 135.67997,34.67906 204.6644,-39.48504 C 583.41369,494.17358 595.8432,414.60684 559.73191,346.111 534.61375,298.50437 491.83889,269.57688 444.28344,249.62932 414.21095,237.01514 383.42712,226.05757 356.83658,201.235 299.56083,152.14818 344.8869,93.668451 363.26725,81.866323 396.78896,60.341842 457.91353,67.187536 475.77752,130.87021 Z"
         id="path4319"
         inkscape:connector-curvature="0"
         sodipodi:nodetypes="cccscsssccsccscsc" /></g></g></svg>