<?xml version="1.0" encoding="UTF-8" standalone="no"?>
<!-- Created with Inkscape (http://www.inkscape.org/) -->
<svg
   xmlns:svg="http://www.w3.org/2000/svg"
   xmlns="http://www.w3.org/2000/svg"
   version="1.0"
   width="566.92902"
   height="566.92902"
   viewBox="0 0 566.929 566.929"
   id="Ebene_1"
   xml:space="preserve"><defs
   id="defs52" />
<path
   d="M 283.462,0 C 439.99,0 566.929,126.94 566.929,283.462 C 566.929,439.989 439.99,566.929 283.462,566.929 C 126.939,566.929 0,439.99 0,283.462 C 0,126.94 126.939,0 283.462,0 L 283.462,0 z M 283.464,27.458 C 424.828,27.458 539.472,142.102 539.472,283.465 C 539.472,424.828 424.828,539.472 283.464,539.472 C 142.1,539.472 27.457,424.827 27.457,283.465 C 27.457,142.101 142.101,27.458 283.464,27.458 L 283.464,27.458 z "
   style="fill:#e10321;fill-rule:evenodd"
   id="path3" />
<path
   d="M 282.689,222.484 C 339.555,222.484 385.672,268.601 385.672,325.468 C 385.672,382.333 339.555,428.45 282.689,428.45 C 225.823,428.45 179.706,382.333 179.706,325.468 C 179.706,268.601 225.823,222.484 282.689,222.484 L 282.689,222.484 z M 199.502,287.214 L 213.457,303.439 L 235.13,302.382 C 243.672,291.989 252.513,281.753 262.084,271.884 C 261.375,265.544 262.486,259.1 265.846,252.756 C 257.938,248.408 250.394,244.686 243.242,242.839 C 223.983,252.053 208.446,267.803 199.502,287.214 L 199.502,287.214 z M 206.422,310.4 L 194.913,299.41 C 192.465,307.668 191.147,316.418 191.147,325.469 C 191.147,332.147 191.872,338.655 193.231,344.928 C 197,333.472 201.342,321.849 206.422,310.4 L 206.422,310.4 z M 227.467,377.193 C 227.728,384.109 229.094,392.136 231.964,401.664 C 215.876,390.932 203.374,375.244 196.651,356.779 C 206.431,364.019 217.231,370.427 227.467,377.193 L 227.467,377.193 z M 310.945,412.552 C 308.424,411.945 305.975,411.351 303.964,410.796 C 310.852,401.819 315.716,393.241 318.217,385.255 C 328.582,381.439 338.949,377.814 349.32,370.511 C 351.676,374.044 353.786,377.456 355.646,380.743 C 344.465,395.476 328.92,406.718 310.945,412.552 L 310.945,412.552 z M 310.485,380.162 C 306.547,389.512 299.534,400.488 289.732,409.812 C 275.827,412.439 260.698,410.468 246.797,407.847 C 239.903,397.521 237.814,385.743 236.334,373.115 C 242.583,363.947 253.914,350.42 263.084,343.638 L 290.834,345.921 C 297.534,354.339 304.914,366.097 310.485,380.162 L 310.485,380.162 z M 352.444,359.88 L 362.432,370.423 C 369.937,357.144 374.232,341.806 374.232,325.468 C 374.232,321.279 373.946,317.148 373.399,313.109 L 369.859,312.578 L 357.48,326.019 C 358.135,337.488 357.219,351.101 352.444,359.88 L 352.444,359.88 z M 267.146,335.597 L 296.138,337.816 C 303.117,332.464 309.473,322.91 313.949,313.109 L 301.825,289 C 293.215,284.076 283.95,279.916 274.395,277.196 C 264.375,286.399 254.976,297.141 245.888,308.682 C 251.406,317.287 257.657,326.349 267.146,335.597 L 267.146,335.597 z M 321.395,311.236 L 308.135,284.492 C 311.114,276.699 316.404,269.766 321.653,263.966 C 332.815,265.471 343.74,268.977 354.362,274.83 L 365.054,301.91 L 347.755,319.512 C 338.956,316.802 330.213,313.875 321.395,311.236 L 321.395,311.236 z M 318.639,253.424 C 327.126,253.589 336.485,255.335 344.61,258.057 C 333.267,247.63 319.292,240.027 303.79,236.368 C 308.808,241.801 313.833,247.322 318.639,253.424 L 318.639,253.424 z M 275.395,245.862 C 270.647,243.146 265.441,240.531 257.795,237.348 C 265.712,235.115 274.059,233.925 282.69,233.925 C 285.786,233.925 288.845,234.078 291.858,234.378 C 287.03,238.606 281.291,242.7 275.395,245.862 L 275.395,245.862 z "
   style="fill:#e10321;fill-rule:evenodd"
   id="path5" />
<polygon
   points="136.704,206.82 131.166,224.169 110.37,217.566 111.461,212.928 76.211,201.733 75.93,203.091 129.155,231.203 128.627,233.396 69.484,224.701 69.116,225.893 104.369,237.088 105.79,232.613 126.586,239.217 121.7,254.598 100.906,247.997 102.384,243.333 67.132,232.143 65.82,236.146 46.168,229.908 51.824,212.119 85.617,216.498 85.729,216.141 55.182,200.585 61.002,182.785 80.654,189.023 79.174,193.684 114.428,204.877 115.907,200.219 136.704,206.82 "
   style="fill:#e10321"
   id="polygon7" />
<path
   d="M 146.29,169.043 C 154.584,175.07 156.033,181.806 150.626,189.245 C 148.061,192.778 144.979,194.729 141.382,195.102 C 137.787,195.473 134.019,194.223 130.076,191.359 L 89.915,162.181 C 81.439,156.026 79.907,149.228 85.311,141.789 C 90.716,134.351 97.653,133.707 106.128,139.865 L 146.29,169.043 L 146.29,169.043 z M 130.786,168.329 L 111.806,154.376 C 108.232,151.747 104.596,149.504 101.765,153.415 C 98.935,157.325 102.438,160.664 105.82,163.148 L 124.8,177.101 C 128.559,179.863 131.245,180.19 133.646,177.085 C 136.047,173.98 134.246,170.844 130.786,168.329 L 130.786,168.329 z "
   style="fill:#e10321"
   id="path9" />
<polygon
   points="155.111,100.771 151.914,103.486 189.918,148.176 183.144,153.935 133.894,118.809 133.415,119.218 157.281,147.319 159.306,145.599 173.419,162.206 164.33,169.933 150.199,153.317 152.803,151.124 128.964,123.002 126.328,125.247 112.954,109.516 124.701,99.564 169.33,133.225 169.624,132.965 147.632,107.131 144.768,109.563 131.396,93.835 141.736,85.042 155.111,100.771 "
   style="fill:#e10321"
   id="polygon11" />
<path
   d="M 205.107,88.678 L 200.327,91.083 L 195.686,81.913 C 193.846,78.269 191.973,79.147 189.865,80.204 L 187.376,81.455 L 204.384,115.27 L 208.184,113.36 L 218.05,132.976 L 202.27,140.914 L 192.404,121.298 L 196.133,119.422 L 179.162,85.553 L 175.373,87.475 C 173.302,88.525 173.85,91.092 175.052,93.479 L 179.191,101.717 L 174.477,104.122 L 159.093,73.772 L 189.857,58.366 L 205.107,88.678 L 205.107,88.678 z "
   style="fill:#e10321"
   id="path13" />
<path
   d="M 154.761,426.882 C 146.037,435.173 141.351,435.759 135.028,429.023 L 132.278,426.095 L 122.667,435.376 L 126.021,438.847 L 110.492,453.841 L 98.429,441.351 L 113.839,426.412 L 116.914,429.566 L 143.516,403.851 L 140.475,400.749 L 155.305,386.427 L 165.55,396.884 C 173.235,404.728 171.536,410.943 162.748,419.292 L 154.761,426.882 L 154.761,426.882 z M 150.304,421.39 C 152.304,419.38 153.651,417.511 153.696,416.06 C 153.738,414.607 153.072,412.906 151.238,411.062 L 149.584,409.4 L 136.818,421.66 L 139.567,424.582 C 142.696,427.908 145.981,425.728 150.304,421.39 L 150.304,421.39 z "
   style="fill:#e10321"
   id="path15" />
<path
   d="M 246.292,70.585 C 249.494,82.186 247.802,86.594 238.88,88.997 L 235.002,90.043 L 238.658,102.894 L 243.3,101.572 L 249.208,122.336 L 232.506,127.089 L 226.59,106.456 L 230.821,105.23 L 220.68,69.649 L 216.511,70.87 L 210.867,51.04 L 224.918,46.931 C 235.459,43.849 240.139,48.277 243.362,59.963 L 246.292,70.585 L 246.292,70.585 z M 239.348,71.928 C 238.518,69.217 237.503,67.147 236.246,66.425 C 234.984,65.703 233.17,65.488 230.678,66.237 L 228.433,66.913 L 233.23,83.949 L 237.103,82.902 C 241.512,81.709 241.138,77.785 239.348,71.928 L 239.348,71.928 z "
   style="fill:#e10321"
   id="path17" />
<path
   d="M 497.599,240.606 C 490.72,242.507 484.812,241.083 482.938,237.978 C 482.066,242.049 480.281,243.695 478.413,244.428 C 473.873,246.216 470.457,246.71 468.334,247.42 C 466.212,248.132 465.374,249.162 465.867,250.834 C 466.484,252.929 468.665,252.754 474.048,251.043 C 475.367,250.626 476.876,252.589 474.777,253.158 L 456.048,258.237 C 450.546,259.728 446.195,258.183 444.876,253.513 C 443.519,248.701 446.67,244.624 450.605,243.54 L 472.121,237.605 C 476.359,236.438 478.523,233.082 477.934,230.567 L 476.866,227.085 L 462.04,231.174 L 463.269,235.674 L 442.442,241.353 L 437.873,224.601 L 458.569,218.913 L 459.748,223.157 L 495.438,213.406 L 494.263,209.224 L 514.154,203.799 L 518.108,217.894 C 521.075,228.468 517.955,234.986 506.275,238.212 L 497.599,240.606 L 497.599,240.606 z M 495.407,231.498 C 499.753,230.353 499.89,227.43 498.739,223.439 L 498.089,221.187 L 482.979,225.379 L 483.984,229.264 C 484.698,232.027 486.995,233.719 489.751,232.992 L 495.407,231.498 L 495.407,231.498 z "
   style="fill:#e10321"
   id="path19" />
<path
   d="M 296.29,119.499 L 266.165,119.499 L 266.165,97.68 L 271.055,97.68 L 271.055,60.692 L 266.165,60.692 L 266.165,40.074 L 296.29,40.074 L 296.29,71.382 L 289.542,71.382 L 289.542,66.149 C 289.542,62.511 287.904,60.692 284.65,60.692 L 279.44,60.692 L 279.44,75.75 L 288.702,75.75 L 288.702,81.422 L 279.44,81.422 L 279.44,97.68 L 284.65,97.68 C 287.913,97.68 289.542,96.041 289.542,92.77 L 289.542,86.933 L 296.29,86.933 L 296.29,119.499 L 296.29,119.499 z "
   style="fill:#e10321"
   id="path21" />
<polygon
   points="198.65,511.935 181.737,504.839 190.18,484.72 194.688,486.611 209,452.505 204.491,450.613 212.468,431.601 229.231,438.634 221.235,457.638 216.732,455.75 202.421,489.857 207.04,491.824 198.65,511.935 "
   style="fill:#e10321"
   id="polygon23" />
<polygon
   points="405.063,173.188 392.483,159.842 408.36,144.875 411.713,148.433 438.628,123.063 435.274,119.504 450.277,105.362 462.747,118.59 447.729,132.718 444.38,129.165 417.466,154.535 420.889,158.207 405.063,173.188 "
   style="fill:#e10321"
   id="polygon25" />
<path
   d="M 462.414,446.996 L 440.35,467.506 L 425.495,451.526 L 429.076,448.198 L 403.893,421.106 L 400.312,424.436 L 386.274,409.334 L 408.338,388.824 L 429.654,411.754 L 424.712,416.348 L 421.149,412.516 C 418.671,409.852 416.234,409.635 413.85,411.85 L 410.035,415.397 L 420.287,426.426 L 427.071,420.119 L 430.932,424.273 L 424.148,430.58 L 435.216,442.486 L 439.032,438.939 C 441.422,436.718 441.5,434.41 439.272,432.013 L 435.297,427.738 L 440.239,423.144 L 462.414,446.996 L 462.414,446.996 z "
   style="fill:#e10321"
   id="path27" />
<path
   d="M 431.374,211.077 L 416.085,185.12 L 434.885,174.046 L 437.367,178.259 L 469.236,159.488 L 466.755,155.274 L 484.521,144.811 L 499.81,170.768 L 472.833,186.657 L 469.408,180.843 L 473.917,178.187 C 477.052,176.341 477.788,174.006 476.137,171.202 L 473.492,166.713 L 460.517,174.356 L 465.218,182.336 L 460.33,185.215 L 455.629,177.235 L 441.622,185.485 L 444.266,189.974 C 445.922,192.785 448.161,193.358 450.98,191.697 L 456.009,188.735 L 459.434,194.549 L 431.374,211.077 L 431.374,211.077 z "
   style="fill:#e10321"
   id="path29" />
<path
   d="M 255.878,525.876 L 226.407,519.628 L 230.419,500.273 L 235.203,501.287 L 243.385,463.115 L 238.602,462.101 L 242.877,441.931 L 260.732,445.714 L 256.457,465.884 L 251.588,464.853 L 243.405,503.027 L 248.502,504.107 C 251.694,504.783 253.744,503.531 254.46,500.337 L 256.564,490.95 L 263.165,492.35 L 255.878,525.876 L 255.878,525.876 z "
   style="fill:#e10321"
   id="path31" />
<path
   d="M 310.054,525.675 L 279.948,526.72 L 279.173,506.968 L 284.06,506.798 L 282.795,467.778 L 277.908,467.948 L 277.193,447.343 L 295.435,446.71 L 296.15,467.315 L 291.176,467.487 L 292.442,506.507 L 297.649,506.327 C 300.91,506.214 302.597,504.505 302.523,501.233 L 302.301,491.616 L 309.044,491.382 L 310.054,525.675 L 310.054,525.675 z "
   style="fill:#e10321"
   id="path33" />
<path
   d="M 339.982,129.248 L 311.016,120.97 L 316.362,101.939 L 321.064,103.283 L 331.877,65.77 L 327.176,64.427 L 332.842,44.602 L 350.391,49.618 L 344.726,69.442 L 339.941,68.075 L 329.128,105.587 L 334.138,107.019 C 337.276,107.915 339.408,106.81 340.343,103.674 L 343.094,94.456 L 349.582,96.31 L 339.982,129.248 L 339.982,129.248 z "
   style="fill:#e10321"
   id="path35" />
<path
   d="M 380.876,150.821 L 355.34,134.838 L 365.752,118.035 L 369.897,120.629 L 390.685,87.585 L 386.54,84.99 L 397.479,67.513 L 412.95,77.197 L 402.012,94.674 L 397.793,92.034 L 377.005,125.078 L 381.421,127.842 C 384.187,129.573 386.542,129.101 388.312,126.348 L 393.51,118.254 L 399.23,121.834 L 380.876,150.821 L 380.876,150.821 z "
   style="fill:#e10321"
   id="path37" />
<path
   d="M 163.771,494.964 L 149.665,485.915 L 161.398,467.716 L 164.121,469.489 L 168.92,459.589 L 161.488,454.734 L 154.233,463.146 L 157.78,465.457 L 146.076,483.611 L 133.538,475.476 L 145.221,457.353 L 149.085,459.843 L 187.311,415.984 L 196.718,422.029 L 172.578,475 L 175.455,476.844 L 163.771,494.964 L 163.771,494.964 z M 172.12,453.445 L 182.362,432.234 L 181.702,431.818 L 166.159,449.629 L 172.12,453.445 L 172.12,453.445 z "
   style="fill:#e10321"
   id="path39" />
<path
   d="M 365.773,511.128 L 349.721,515.944 L 343.544,495.19 L 346.664,494.278 L 342.273,484.19 L 333.749,486.669 L 335.411,497.653 L 339.474,496.465 L 345.635,517.166 L 331.297,521.387 L 325.148,500.721 L 329.554,499.41 L 321.147,441.84 L 331.861,438.635 L 356.352,491.444 L 359.624,490.462 L 365.773,511.128 L 365.773,511.128 z M 339.694,477.761 L 330.26,456.179 L 329.515,456.408 L 332.914,479.801 L 339.694,477.761 L 339.694,477.761 z "
   style="fill:#e10321"
   id="path41" />
<path
   d="M 405.423,473.132 C 408.178,478.667 409.272,483.202 408.699,486.736 C 408.055,490.715 405.315,493.906 400.47,496.32 L 386.547,503.254 L 377.145,484.381 L 381.033,482.531 L 363.888,448.111 L 360.003,449.961 L 351.139,432.16 L 365.06,425.224 C 369.904,422.812 373.935,422.345 377.153,423.833 C 380.368,425.317 383.34,428.796 386.065,434.265 L 405.423,473.132 L 405.423,473.132 z M 393.033,466.628 L 383.597,447.683 C 382.238,444.951 380.416,442.691 378.808,442.24 C 377.202,441.789 376.657,441.802 374.101,442.939 L 370.992,444.324 L 388.135,478.742 L 391.858,477.054 C 396.254,475.062 395.367,471.314 393.033,466.628 L 393.033,466.628 z "
   style="fill:#e10321"
   id="path43" />
<path
   d="M 260.263,159.87 C 261.137,161 259.616,163.645 257.698,162.186 C 249.39,155.861 240.482,152.672 234.005,152.672 C 229.907,152.672 227.66,153.951 227.122,156.926 C 226.381,161.04 236.897,163.454 240.269,164.854 C 245.058,166.84 252.254,168.913 257.933,172.851 C 263.269,176.549 266.111,181.663 266.283,187.907 C 266.608,199.677 255.135,207.651 242.45,206.834 C 239.064,206.616 229.328,205.28 222.402,203.109 C 221.535,202.839 218.819,202.594 218.604,205.445 C 218.467,207.266 215.458,208.756 214.337,206.5 L 204.926,187.541 C 203.825,185.321 206.571,183.571 208.038,185.077 C 215.474,192.71 226.642,198.398 237.454,198.398 C 242.367,198.398 250.428,197.625 250.982,190.401 C 251.147,188.25 248.888,185.694 247.323,184.715 C 240.957,180.727 229.498,178.631 222.948,174.353 C 216.267,169.989 211.251,165.985 211.313,159.061 C 211.395,149.599 219.264,144.657 231.197,145.287 C 235.67,145.522 239.823,146.774 242.323,146.289 C 243.309,146.097 244.197,146.229 244.252,144.591 C 244.302,143.04 246.746,142.348 247.874,143.808 L 260.263,159.87 L 260.263,159.87 z "
   style="fill:#e10321"
   id="path45" />
<path
   d="M 334.552,208.131 C 318.733,208.707 300.471,198.079 300.471,176.04 C 300.471,156.408 318.317,146.187 332.818,146.187 C 337.363,146.187 340.547,146.944 345.242,148.212 C 346.969,148.676 348.472,149.002 349.1,147.249 C 349.883,145.061 353.202,144.798 353.947,146.917 L 359.912,163.872 C 361.161,167.423 356.964,168.913 355.149,165.947 C 350.836,158.902 343.105,152.605 333.852,153.747 C 324.378,154.918 318.019,163.837 317.533,174.289 C 316.881,188.331 324.897,199.6 336.705,199.6 C 342.331,199.6 350.012,197.744 354.064,192.825 C 357.847,188.235 362.263,193.1 359.48,196.571 C 353.422,204.118 347.502,207.658 334.552,208.131 L 334.552,208.131 z "
   style="fill:#e10321"
   id="path47" />
<path
   d="M 280.657,192.078 L 287.805,192.078 C 289.502,192.078 290.892,193.467 290.892,195.165 L 290.892,201.338 C 290.892,203.035 289.502,204.424 287.805,204.424 L 280.657,204.424 C 278.959,204.424 277.57,203.035 277.57,201.338 L 277.57,195.165 C 277.57,193.466 278.959,192.078 280.657,192.078 L 280.657,192.078 z "
   style="fill:#e10321;fill-rule:evenodd"
   id="path49" />
</svg>