<?xml version="1.0" encoding="utf-8"?>
<!-- Generator: Adobe Illustrator 13.0.2, SVG Export Plug-In . SVG Version: 6.00 Build 14948)  -->
<!DOCTYPE svg PUBLIC "-//W3C//DTD SVG 1.1 Tiny//EN" "http://www.w3.org/Graphics/SVG/1.1/DTD/svg11-tiny.dtd">
<svg version="1.1" baseProfile="tiny" id="Ñëîé_1"
	 xmlns="http://www.w3.org/2000/svg" xmlns:xlink="http://www.w3.org/1999/xlink" x="0px" y="0px" width="483.996px"
	 height="592.355px" viewBox="0 0 483.996 592.355" xml:space="preserve">
<g>
	<path fill="#FFFFFF" d="M242.025,587.358c0,0-104.544-18.457-171.844-104.593C9.91,405.625,4.922,349.462,4.922,297.166
		c0-52.296,0-292.244,0-292.244h474.153c0,0,0,239.948,0,292.244c0,52.296-4.991,108.459-65.262,185.6
		C346.515,568.901,242.025,587.358,242.025,587.358z"/>
	<path fill="#E21A2C" d="M479.075,0H0v297.166c0,52.506,5.119,110.322,66.303,188.63c35.389,45.294,81.002,71.802,113.036,86.063
		c34.701,15.449,60.739,20.153,61.831,20.346l0.856,0.15l0.855-0.15c1.092-0.193,27.116-4.896,61.804-20.347
		c32.021-14.261,77.619-40.769,113.008-86.063c61.185-78.312,66.304-136.125,66.304-188.63V0H479.075z M474.152,9.844
		c0,9.515,0,287.322,0,287.322c0,50.789-4.958,106.723-64.218,182.568c-62.252,79.679-158.214,100.668-167.909,102.609
		c-9.699-1.941-105.711-22.931-167.966-102.609C14.803,403.893,9.844,347.957,9.844,297.166c0,0,0-277.807,0-287.322
		C19.383,9.844,464.613,9.844,474.152,9.844z"/>
</g>
<g>
	<path fill="#E21A2C" d="M303.113,105.208c4.021-6.915,6.153-14.15,13.536-14.15s105.822,0,105.822,0l3.076,24.199
		c0,0-18.457-0.205-22.148-0.205s-2.988,5.558-2.462,12.305c1.23,15.792,19.688,218.825,20.099,224.157
		c0.41,5.331,3.282,6.562,6.563,6.562c3.281,0,13.536,0,13.536,0l1.641,39.786H293.063l3.691-40.197c0,0,4.922,0,11.075-0.409
		c4.502-0.301,6.153-2.052,5.333-11.075c-0.821-9.023-10.256-108.692-10.256-111.975c0-3.282-2.87-3.282-5.332,2.051
		c-2.46,5.332-27.479,59.064-27.479,59.064s-14.768-6.152-51.682-6.152c-36.915,0-57.012,11.483-57.012,11.483
		s-21.74-54.142-25.021-62.755c-3.281-8.614-3.69-5.743-4.511,2.051c-0.821,7.793-13.125,105.822-13.536,110.334
		c-0.411,4.512,1.641,5.333,3.691,5.333s18.867,0,18.867,0l0.821,42.247H41.222l1.641-41.838c0,0,13.946,0,18.458,0
		c4.511,0,5.743-1.641,6.563-8.203c0.82-6.562,25.43-216.567,25.43-224.361s-3.692-7.793-9.844-7.793s-20.098-0.41-20.098-0.41
		l3.282-24.2c0,0,108.284,0,114.437,0c6.153,0,8.998,9.739,11.075,18.048c2.871,11.484,31.172,165.297,31.172,165.297
		S297.985,114.026,303.113,105.208z"/>
	<path fill="#E21A2C" d="M69.114,80.803c-1.02,0-1.846,0.826-1.846,1.845c0,1.02,0.826,1.846,1.846,1.846h349.666
		c1.021,0,1.847-0.826,1.847-1.846c0-1.02-0.826-1.845-1.847-1.845H69.114z"/>
	<g>
		<g>
			<path fill="#E21A2C" d="M99.706,39.537c-0.804,0-1.123,0.357-1.248,0.656l-0.562,1.45c0,0-6.332,15.314-7.113,17.202
				c-0.791-1.89-7.366-17.627-7.366-17.627c-0.004-0.009-0.58-1.254-0.58-1.254c-0.201-0.354-0.655-0.426-1.274-0.426h-9.362
				c-2.018,0-2.442,0.852-2.442,1.565c0,0.728,0.404,1.012,0.645,1.116c0.001,0,0.94,0.242,0.94,0.242l1.058,0.054
				c1.124,0.033,1.512,0.27,1.563,0.405c0.081,0.212,0.203,0.835,0.12,2.621l-1.006,20.61c-0.081,1.753-0.245,2.483-0.367,2.787
				c-0.163,0.401-0.814,0.575-1.334,0.651l-1.687,0.386c-0.539,0.209-0.836,0.663-0.836,1.276c0,0.424,0.169,1.411,1.737,1.411
				c0.031-0.001,2.105-0.116,2.105-0.116c0.001,0,2.47-0.038,2.47-0.038l2.444,0.038c0,0,2.051,0.115,2.052,0.115
				c1.76,0,2.018-0.964,2.018-1.539c0-1.055-0.973-1.591-2.893-1.591c-1.587,0-1.856-0.678-1.943-0.901
				c-0.239-0.604-0.36-1.44-0.36-2.495c0-0.229,0.005-0.467,0.017-0.717c0,0,0.448-12.245,0.572-15.631
				c1.394,3.369,8.532,20.624,8.532,20.624c0.003,0.006,0.756,1.452,0.756,1.452c0.248,0.302,0.672,0.449,1.298,0.449
				c0.806,0,1.363-0.229,1.659-0.679c0.145-0.222,0.396-0.697,0.914-2.273c0,0,6.597-16.289,8.027-19.82
				c0.066,3.623,0.309,16.889,0.309,16.889c0.014,0.224,0.021,0.435,0.021,0.633c0,0.742-0.093,1.307-0.276,1.693
				c-0.192,0.406-0.712,0.668-1.545,0.781c0.009,0-1.917,0.318-1.917,0.318c-0.374,0.118-0.817,0.46-0.817,1.418
				c0,0.519,0.252,1.39,1.941,1.39l6.4-0.231l7.458,0.231c1.896,0,2.295-0.811,2.295-1.491c0-0.653-0.354-1.122-0.998-1.318
				l-1.449-0.222c-0.761-0.053-1.256-0.314-1.48-0.798c-0.141-0.325-0.338-1.193-0.458-3.414l-0.554-19.194
				c0-1.475,0.079-2.52,0.234-3.09c0.104-0.384,0.581-0.592,1.417-0.619c-0.015,0,1.046-0.054,1.046-0.054l0.944-0.294
				c0.247-0.148,0.541-0.452,0.541-1.065c0-0.471-0.19-1.566-1.941-1.566H99.706z"/>
		</g>
		<g>
			<path fill="#E21A2C" d="M115.892,43.833c-1.683,1.68-2.991,3.597-3.883,5.696c-0.895,2.103-1.349,4.309-1.349,6.557
				c0,2.489,0.515,4.889,1.53,7.132c1.018,2.25,2.497,4.174,4.394,5.719c1.654,1.299,3.687,2.344,6.049,3.111
				c2.354,0.764,4.691,1.151,6.949,1.151c3.189,0,6.226-0.751,9.026-2.233c2.803-1.485,5.063-3.561,6.716-6.167
				c1.657-2.616,2.5-5.611,2.5-8.905c0-3.365-0.903-6.416-2.681-9.068c-1.771-2.641-4.145-4.68-7.052-6.062
				c-2.892-1.376-6.056-2.073-9.406-2.073C123.601,38.691,119.297,40.421,115.892,43.833z M120.386,54.546
				c0-1.968,0.274-3.979,0.814-5.976c0.532-1.972,1.422-3.686,2.643-5.093c1.192-1.374,2.674-2.041,4.529-2.041
				c2.161,0,3.932,0.811,5.412,2.481c1.504,1.698,2.623,3.784,3.321,6.2c0.708,2.44,1.065,4.828,1.065,7.097
				c0,3.196-0.663,6.25-1.97,9.08c-1.27,2.746-3.237,4.082-6.016,4.082c-3.093,0-5.573-1.911-7.583-5.842
				C121.132,61.575,120.386,58.214,120.386,54.546z"/>
		</g>
		<g>
			<path fill="#E21A2C" d="M177.811,39.556h-0.004H177.811l-2.056,0.059c0.032,0-2.019-0.059-2.019-0.059
				c-0.001,0-2.457-0.019-2.457-0.019c-1.939,0-2.346,0.852-2.346,1.565c0,0.567,0.176,0.953,0.526,1.146
				c0.003,0,0.957,0.214,0.957,0.214l0.853,0.049c1.197,0.148,1.96,0.625,2.325,1.457c0.164,0.377,0.361,1.282,0.361,3.44
				c0,0,0,8.885,0,11.074c-1.512-1.909-13.506-17.071-13.506-17.071c-0.849-1.147-1.202-1.444-1.415-1.574
				c-0.229-0.14-0.675-0.3-2.089-0.3h-8.885c-1.814,0-2.196,0.768-2.196,1.412c0,0.637,0.29,0.974,0.534,1.146l0.917,0.365
				l0.994,0.055c1.348,0.041,1.503,0.593,1.554,0.774c0.188,0.673,0.284,1.75,0.284,3.197V62.43c0,3.871-0.231,5.337-0.425,5.885
				c-0.272,0.803-0.806,1.188-1.679,1.216c0.014-0.001-1.593,0.168-1.593,0.168c-0.352,0.094-0.939,0.399-0.939,1.396
				c0,0.471,0.181,1.565,1.845,1.565l4.799-0.231l2.39,0.114l2.358,0.117c1.736,0,1.996-0.98,1.996-1.565
				c0-0.697-0.336-1.182-0.948-1.365l-1.641-0.2c-1.308-0.087-2.122-0.617-2.458-1.617c-0.148-0.453-0.326-1.658-0.326-4.816
				c0,0,0-13.182,0-15.527c1.565,1.991,18.978,24.142,18.978,24.142c-0.005-0.006,1.345,1.586,1.345,1.586
				c0.414,0.393,0.979,0.593,1.678,0.593c0.358,0,1.446,0,1.746-0.769c0.091-0.239,0.211-0.712,0.211-2.075V46.782
				c0-1.524,0.081-2.649,0.239-3.345c0.043-0.19,0.177-0.77,1.408-0.931c0.017,0.001,1.169-0.022,1.169-0.022l1.129-0.245
				c0.257-0.113,0.691-0.42,0.691-1.19c0-0.455-0.185-1.512-1.897-1.512L177.811,39.556z"/>
		</g>
		<g>
			<path fill="#E21A2C" d="M210.991,38.858L211,38.842c-0.333,0.537-0.678,0.853-1.022,0.941c-0.426,0.108-1.201,0.164-2.301,0.164
				h-18.091c0,0-1.4-0.071-1.416-0.073c0-0.019-0.136-0.191-0.35-0.787c-0.18-0.688-0.702-1.09-1.459-1.09
				c-0.846,0-1.46,0.706-1.824,2.097l-1.611,5.965c0.002-0.006-0.27,1.251-0.27,1.251c0,1.454,0.97,1.611,1.387,1.611
				c0.785,0,1.593-0.657,2.468-2.007c0.994-1.43,1.937-2.462,2.792-3.056c0.822-0.571,1.985-0.859,3.458-0.859
				c0.693,0,0.871,0.066,0.907,0.082c-0.005,0.004-0.009,0.01-0.009,0.033c0,0.092,0.034,0.35,0.034,0.884v21.655
				c0,2.351-0.217,3.116-0.347,3.363c-0.07,0.131-0.447,0.585-2.429,0.928c-1.53,0.231-1.761,1.141-1.761,1.663
				c0,0.44,0.166,1.463,1.69,1.463l7.256-0.23l7.76,0.23c1.524,0,1.689-1.023,1.689-1.463c0-0.612-0.35-1.397-2.018-1.663
				c-0.892-0.125-1.525-0.34-1.891-0.641c-0.339-0.279-0.528-0.626-0.58-1.064l-0.097-2.585V43.949c0-0.736,0.078-0.917,0.092-0.943
				c0.016,0.011,0.21-0.056,0.788-0.056c2.403,0,3.413,0.402,3.837,0.739c0.633,0.504,1.312,1.697,2.014,3.543
				c0.442,1.221,1.118,1.844,2.011,1.844c0.988,0,1.253-0.508,1.323-0.81c0-0.001,0.26-1.709,0.26-1.709l0.658-6.542
				c0-0.001-0.012-1.596-0.012-1.596c-0.088-0.357-0.39-0.78-1.323-0.78C211.996,37.64,211.45,38.05,210.991,38.858z"/>
		</g>
		<g>
			<path fill="#E21A2C" d="M229.436,39.614l-5.432,0.077l-6.451-0.154c-1.073,0-1.69,0.571-1.69,1.565l0.388,0.93l0.891,0.376
				l0.75,0.101c1.706,0.284,2.066,0.747,2.142,0.933c0.144,0.358,0.316,1.266,0.316,3.557V65.25c0,2.349-0.217,3.112-0.346,3.359
				c-0.068,0.131-0.447,0.585-2.429,0.927c-1.53,0.231-1.76,1.14-1.76,1.661c0,0.439,0.164,1.463,1.689,1.463l7.256-0.231
				l7.761,0.231c1.524,0,1.688-1.024,1.688-1.464c0-0.613-0.35-1.399-2.019-1.664c-0.89-0.125-1.522-0.341-1.887-0.642
				c-0.34-0.28-0.53-0.628-0.582-1.066l-0.097-2.587v-6.37l0.025-0.896c0.451,0,1.189,0.119,2.706,0.688
				c1.615,0.466,2.964,0.697,4.045,0.697c3.184,0,5.763-1.089,7.664-3.237c1.854-2.132,2.793-4.531,2.793-7.133
				c0-3.336-1.398-5.92-4.156-7.681c-1.708-1.169-4.358-1.767-7.864-1.767L229.436,39.614z M229.623,53.387v-5.425
				c0-2.95,0.102-3.953,0.187-4.275c0.132-0.504,0.499-1.173,2.155-1.173c1.61,0,2.891,0.611,3.913,1.87
				c1.03,1.27,1.553,2.783,1.553,4.499c0,1.898-0.452,3.498-1.345,4.755c-0.87,1.224-2.135,1.819-3.868,1.819
				c-1.119,0-1.943-0.205-2.458-0.604C229.728,54.788,229.623,54.496,229.623,53.387z"/>
		</g>
		<g>
			<path fill="#E21A2C" d="M265.238,39.614l-7.854,0.077l-8.969-0.154c-1.074,0-1.689,0.627-1.689,1.719
				c0,0.826,1.079,1.103,2.02,1.251c1.617,0.261,2.133,0.727,2.28,1.071c0.176,0.414,0.389,1.367,0.389,3.569v18.185
				c0,2.201-0.243,2.938-0.386,3.18c-0.104,0.175-0.558,0.621-2.55,1.001c-1.523,0.23-1.753,1.17-1.753,1.71
				c0,0.424,0.164,1.412,1.689,1.412l14.514-0.206l11.187,0.206c0.757,0,1.238-0.518,1.286-1.384l0.55-4.068l0.407-2.379
				c0-1.061-0.579-1.669-1.587-1.669c-0.858,0-1.563,0.685-2.155,2.094c-1.457,2.937-3.973,4.378-7.674,4.378
				c-1.682,0-2.857-0.437-3.496-1.296c-0.348-0.459-0.761-1.515-0.761-3.968v-6.01c0-0.972,0.111-1.343,0.178-1.478
				c0-0.001,0.109-0.205,0.928-0.244l2.167-0.102c1.35,0,2.287,0.252,2.687,0.727c0.468,0.556,0.907,1.34,1.306,2.33
				c0.5,1.239,1.167,1.867,1.982,1.867c0.464,0,1.538-0.187,1.538-1.918c-0.003-0.035-0.202-4.408-0.202-4.409
				c0.001-0.004,0.075-1.308,0.075-1.308l0.052-1.729c0,0,0.071-1.287,0.071-1.29c0-1.683-1.037-1.859-1.483-1.859
				c-0.871,0-1.52,0.681-1.921,2.025c-0.417,1.417-1.086,2.187-2.042,2.357c-0.617,0.131-2.01,0.196-4.151,0.196
				c-0.711,0-0.965-0.146-0.998-0.223c-0.069-0.155-0.186-0.581-0.186-1.688v-6.28c0-1.706,0.303-1.929,0.307-1.931
				c0.208-0.127,0.997-0.401,4.153-0.401c1.781,0,3.013,0.302,3.658,0.898c0.974,0.86,1.722,1.719,2.231,2.561
				c0.675,1.089,1.318,1.617,1.971,1.617c0.287,0,1.161,0,1.365-0.678c0.003-0.003,0.123-1.401,0.123-1.401v-4.153l-0.093-1.639
				c-0.116-0.428-0.534-0.644-1.243-0.644L265.238,39.614z"/>
		</g>
		<g>
			<path fill="#E21A2C" d="M290.021,39.615l-3.612,0.076l-7.759-0.154c-1.525,0-1.689,1.023-1.689,1.463
				c0,0.787,0.447,1.074,0.715,1.175l1.29,0.33c1.773,0.288,2.139,0.751,2.214,0.937c0.146,0.358,0.316,1.274,0.316,3.607v18.253
				l-0.12,2.666c-0.063,0.395-0.243,0.691-0.551,0.904c-0.25,0.172-0.819,0.428-2.108,0.666c-1.526,0.23-1.756,1.204-1.756,1.763
				c0,0.408,0.164,1.36,1.689,1.36l11.892-0.231l11.49,0.231l1.736-0.102c0.447-0.156,0.564-0.689,0.607-1.442l0.244-1.904
				l0.379-2.217c0-0.001,0.183-2.097,0.183-2.097c0-1.511-1.005-1.674-1.436-1.674c-0.636,0-1.328,0.651-2.246,2.112
				c-0.757,1.207-1.653,2.227-2.662,3.031c-0.966,0.771-2.486,1.162-4.517,1.162c-1.468,0-2.429-0.323-2.853-0.963
				c-0.464-0.7-0.7-1.798-0.7-3.265V47.049c0-2.326,0.196-3.233,0.358-3.585c0.087-0.19,0.499-0.665,2.407-0.956
				c-0.004,0,1.227-0.367,1.227-0.367c0.272-0.159,0.594-0.484,0.594-1.141c0-0.44-0.168-1.463-1.739-1.463L290.021,39.615z"/>
		</g>
		<g>
			<path fill="#E21A2C" d="M318.847,39.615l-3.613,0.076l-7.76-0.154c-1.523,0-1.688,1.023-1.688,1.463
				c0,0.787,0.446,1.074,0.714,1.175l1.29,0.33c1.774,0.288,2.14,0.751,2.213,0.937c0.146,0.358,0.318,1.274,0.318,3.607v18.253
				l-0.12,2.666c-0.063,0.395-0.244,0.691-0.551,0.904c-0.25,0.172-0.819,0.428-2.11,0.666c-1.525,0.23-1.754,1.204-1.754,1.763
				c0,0.408,0.164,1.36,1.688,1.36l11.894-0.231l11.488,0.231l1.738-0.102c0.446-0.156,0.563-0.689,0.606-1.442l0.244-1.904
				l0.378-2.217c0-0.001,0.184-2.097,0.184-2.097c0-1.511-1.003-1.674-1.437-1.674c-0.635,0-1.327,0.651-2.244,2.112
				c-0.757,1.207-1.653,2.227-2.664,3.031c-0.965,0.771-2.485,1.162-4.515,1.162c-1.47,0-2.43-0.323-2.854-0.963
				c-0.464-0.7-0.699-1.798-0.699-3.265V47.049c0-2.326,0.195-3.233,0.357-3.585c0.088-0.19,0.5-0.665,2.408-0.956
				c-0.004,0,1.226-0.367,1.226-0.367c0.271-0.159,0.595-0.484,0.595-1.141c0-0.44-0.169-1.463-1.739-1.463L318.847,39.615z"/>
		</g>
		<g>
			<path fill="#E21A2C" d="M347.686,39.615l-3.613,0.076l-7.76-0.154c-1.524,0-1.688,1.023-1.688,1.463
				c0,0.787,0.446,1.074,0.714,1.175c0.001,0,1.291,0.33,1.291,0.33c1.773,0.288,2.138,0.751,2.213,0.937
				c0.146,0.358,0.317,1.274,0.317,3.607V65.25c0,2.349-0.218,3.112-0.348,3.359c-0.069,0.131-0.448,0.585-2.429,0.927
				c-1.529,0.231-1.759,1.14-1.759,1.661c0,0.439,0.163,1.463,1.688,1.463l7.258-0.231l7.76,0.231c1.524,0,1.688-1.023,1.688-1.463
				c0-0.612-0.351-1.396-2.018-1.662c-0.892-0.125-1.523-0.34-1.891-0.641c-0.339-0.278-0.527-0.625-0.581-1.063l-0.097-2.581
				V47.049c0-2.326,0.194-3.233,0.357-3.585c0.088-0.19,0.499-0.665,2.408-0.956c-0.004,0,1.227-0.367,1.227-0.367
				c0.271-0.159,0.594-0.484,0.594-1.141c0-0.44-0.169-1.463-1.739-1.463L347.686,39.615z"/>
		</g>
		<g>
			<path fill="#E21A2C" d="M372.889,39.614l-7.855,0.077l-8.968-0.154c-1.074,0-1.689,0.627-1.689,1.719
				c0,0.826,1.078,1.103,2.02,1.251c1.615,0.261,2.13,0.727,2.28,1.071c0.177,0.414,0.388,1.367,0.388,3.569v18.185
				c0,2.201-0.242,2.938-0.385,3.18c-0.104,0.175-0.558,0.621-2.551,1.001c-1.522,0.23-1.752,1.17-1.752,1.71
				c0,0.424,0.164,1.412,1.689,1.412l14.514-0.206l11.187,0.206c0.757,0,1.237-0.518,1.286-1.384l0.551-4.068l0.406-2.379
				c0-1.061-0.579-1.669-1.588-1.669c-0.858,0-1.563,0.685-2.155,2.094c-1.457,2.937-3.972,4.378-7.673,4.378
				c-1.682,0-2.857-0.437-3.496-1.296c-0.349-0.459-0.761-1.515-0.761-3.968v-6.01c0-0.972,0.111-1.343,0.177-1.478
				c0-0.001,0.109-0.205,0.929-0.244l2.167-0.102c1.35,0,2.287,0.252,2.688,0.727c0.467,0.556,0.906,1.34,1.305,2.33
				c0.5,1.239,1.166,1.867,1.982,1.867c0.463,0,1.537-0.187,1.537-1.918c-0.001-0.035-0.202-4.408-0.202-4.409
				c0.001-0.004,0.077-1.308,0.077-1.308l0.05-1.729c0,0,0.072-1.287,0.072-1.29c0-1.683-1.037-1.859-1.483-1.859
				c-0.872,0-1.52,0.681-1.922,2.025c-0.418,1.417-1.085,2.187-2.042,2.357c-0.617,0.131-2.009,0.196-4.15,0.196
				c-0.713,0-0.965-0.146-0.999-0.223c-0.069-0.155-0.185-0.581-0.185-1.688v-6.28c0-1.706,0.304-1.929,0.306-1.931
				c0.209-0.127,0.998-0.401,4.153-0.401c1.782,0,3.013,0.302,3.658,0.898c0.976,0.86,1.723,1.719,2.233,2.561
				c0.673,1.089,1.317,1.617,1.971,1.617c0.285,0,1.16,0,1.364-0.678c0.001-0.003,0.122-1.401,0.122-1.401v-4.153l-0.092-1.639
				c-0.116-0.428-0.534-0.644-1.244-0.644L372.889,39.614z"/>
		</g>
		<g>
			<path fill="#E21A2C" d="M399.187,39.614l-5.832,0.077l-6.951-0.154c-1.615,0-1.789,1.095-1.789,1.565l0.387,0.93l0.89,0.376
				l0.747,0.101c0.802,0.121,1.386,0.347,1.733,0.672c0.334,0.313,0.515,0.632,0.553,0.975c0,0.005,0.073,2.843,0.073,2.843V65.25
				c0,2.349-0.218,3.112-0.347,3.359c-0.07,0.131-0.447,0.585-2.429,0.927c-1.531,0.231-1.76,1.14-1.76,1.661
				c0,0.439,0.164,1.463,1.688,1.463l7.25-0.231l7.754,0.231c1.522,0,1.688-1.024,1.688-1.464c0-0.611-0.349-1.396-2.013-1.664
				c-0.889-0.125-1.52-0.341-1.882-0.641c-0.338-0.279-0.528-0.628-0.578-1.065c-0.001-0.001-0.098-2.588-0.098-2.588v-6.831
				c0,0,0.026-0.923,0.033-1.186c0.09-0.01,0.19-0.02,0.19-0.02c0.657,0,1.131,0.127,1.368,0.369
				c0.357,0.321,1.013,1.195,2.226,3.661l4.632,9.367l0.767,1.444c0.219,0.32,0.642,0.463,1.373,0.463
				c0.019-0.001,1.928-0.058,1.928-0.058c0.001,0,2.26-0.02,2.26-0.02l2.262,0.02c0.001,0,1.913,0.057,1.913,0.057
				c1.75,0,2.01-0.915,2.01-1.461c0-0.451-0.186-1.251-1.427-1.552c-1.177-0.278-1.557-0.576-1.679-0.729
				c-0.182-0.229-0.579-0.849-1.434-2.507l-3.333-6.606c-0.763-1.475-1.532-2.61-2.286-3.376c-0.365-0.37-0.817-0.647-1.314-0.874
				c1.613-0.393,3.105-0.954,4.317-1.867c1.771-1.335,2.67-3.247,2.67-5.683c0-2.772-1.066-5-3.171-6.625
				c-1.492-1.122-3.707-1.689-6.585-1.689L399.187,39.614z M398.271,52.34v-6.894l-0.025-1.473l0.016-0.828
				c0.011-0.028,0.072-0.238,0.506-0.409c0.378-0.148,0.81-0.223,1.284-0.223c1.599,0,2.806,0.557,3.689,1.703
				c0.899,1.166,1.355,2.576,1.355,4.191c0,2.063-0.706,3.568-2.156,4.604c-0.996,0.757-2.368,1.137-4.095,1.137
				c0,0-0.407-0.051-0.515-0.065C398.323,53.887,398.271,52.34,398.271,52.34z"/>
		</g>
	</g>
	<g>
		<circle fill="#FFFFFF" cx="217.44" cy="331.599" r="72.89"/>
		<path fill="#E21A2C" d="M142.704,331.599c0,41.21,33.526,74.737,74.736,74.737c41.209,0,74.736-33.527,74.736-74.737
			s-33.526-74.737-74.736-74.737C176.23,256.862,142.704,290.389,142.704,331.599z M146.395,331.599
			c0-39.175,31.871-71.045,71.045-71.045c39.173,0,71.043,31.871,71.043,71.045c0,39.176-31.87,71.046-71.043,71.046
			C178.266,402.645,146.395,370.774,146.395,331.599z"/>
		<path fill="#E21A2C" d="M154.783,331.599c0,34.551,28.108,62.659,62.657,62.659c34.548,0,62.657-28.108,62.657-62.659
			c0-34.55-28.108-62.658-62.657-62.658C182.891,268.941,154.783,297.049,154.783,331.599z M157.244,331.599
			c0-33.191,27.003-60.196,60.196-60.196c33.192,0,60.196,27.005,60.196,60.196c0,33.193-27.004,60.198-60.196,60.198
			C184.247,391.797,157.244,364.792,157.244,331.599z"/>
		<path fill="#E21A2C" d="M234.462,402.559c0,0,0-0.204-0.411-4.922c-0.32-3.684-0.205-6.973-0.205-6.973s-4.307-2.461-8.819-5.127
			c-3.639-2.151-7.998-5.537-7.998-5.537s-4.513,3.486-9.435,5.946c-4.922,2.462-9.229,3.896-9.229,3.896s-0.614,4.103-1.025,5.948
			c-0.41,1.846-1.641,5.127-1.641,5.127s7.383,3.691,20.918,3.691C230.155,404.609,234.462,402.559,234.462,402.559z"/>
		<path fill="#E21A2C" d="M279.17,332.215c0,0-4.512,4.512-7.792,7.178c-3.282,2.667-7.384,5.744-7.384,5.744
			s1.846,4.511,2.461,10.048s0.615,12.92,0.615,12.92s2.665,0,5.947,0s7.999,0,7.999,0s2.255-2.871,5.127-13.33
			c2.87-10.459,3.076-15.997,3.076-15.997s-2.257-1.844-5.333-3.485S279.17,332.215,279.17,332.215z"/>
		<path fill="#E21A2C" d="M170.476,348.417c0,0-1.23,3.076-2.05,9.024c-0.566,4.107-1.026,9.639-1.026,9.639
			s-2.872,1.639-5.948,2.255c-3.076,0.615-6.152,0.615-6.152,0.615s-4.307-6.974-6.768-14.766
			c-2.461-7.793-3.281-17.021-3.281-17.021s2.46-1.641,4.921-2.871c2.461-1.23,5.742-2.257,5.742-2.257s2.126,4.245,5.127,7.998
			C165.144,346.161,170.476,348.417,170.476,348.417z"/>
		<path fill="#E21A2C" d="M271.787,283.611c0,0-1.232,2.461-2.666,5.127c-1.435,2.665-3.077,5.537-3.077,5.537
			s-6.152-2.665-11.689-3.076c-5.537-0.41-9.844,0-9.844,0s-0.819-3.486-2.666-8.203s-6.153-10.05-6.153-10.05
			s1.435-1.23,4.717-4.922c1.937-2.179,3.282-4.102,3.282-4.102s8.202,3.487,13.739,7.178
			C262.968,274.792,271.787,283.611,271.787,283.611z"/>
		<path fill="#E21A2C" d="M185.242,266.589c0,0,1.845,2.05,5.126,4.717c1.815,1.474,4.512,3.076,4.512,3.076
			s-3.486,5.127-5.948,10.459c-2.46,5.332-2.871,7.382-2.871,7.382s-5.537,0-10.049,1.231c-4.512,1.229-9.844,3.896-9.844,3.896
			s-0.821-2.051-2.871-5.948c-2.051-3.897-2.256-5.947-2.256-5.947s3.692-5.331,11.28-11.074
			C179.909,268.639,185.242,266.589,185.242,266.589z"/>
		<path fill="#E21A2C" d="M216.458,362.578c-0.674,0.09-1.147,0.709-1.058,1.382c0.008,0.062,0.81,6.114,0.81,9.478
			c0,3.357-0.8,8.998-0.808,9.055c-0.096,0.673,0.371,1.296,1.044,1.393c0.672,0.096,1.295-0.371,1.391-1.045
			c0.035-0.238,0.833-5.869,0.833-9.402c0-3.527-0.797-9.547-0.831-9.803C217.75,362.961,217.131,362.488,216.458,362.578z"/>
		<path fill="#E21A2C" d="M254.563,343.818c-0.048,0.679,0.465,1.267,1.142,1.314c0.017,0.001,1.663,0.125,4.746,0.795
			c4.599,1,6.655,1.611,6.677,1.617c0.65,0.194,1.336-0.176,1.531-0.825c0.195-0.651-0.174-1.336-0.825-1.532
			c-0.085-0.025-2.15-0.641-6.86-1.665c-3.281-0.714-5.025-0.839-5.098-0.846C255.198,342.631,254.612,343.143,254.563,343.818z"/>
		<path fill="#E21A2C" d="M177.285,342.747c-0.021,0.018-2.214,1.806-4.161,2.975c-1.955,1.172-6.166,2.981-6.209,3
			c-0.624,0.268-0.914,0.991-0.646,1.614c0.268,0.625,0.99,0.915,1.615,0.647c0.179-0.077,4.408-1.894,6.506-3.152
			c2.103-1.261,4.358-3.102,4.453-3.179c0.526-0.431,0.604-1.206,0.173-1.73C178.586,342.395,177.811,342.317,177.285,342.747z"/>
		<path fill="#E21A2C" d="M244.422,289.551l-4.267,4.469l-4.55,4.757c0.47-0.492,1.267-0.528,1.758-0.059
			c0.491,0.471,0.526,1.229,0.057,1.721l4.475-4.679l4.347-4.554c0.47-0.491,0.431-1.248-0.061-1.718
			C245.69,289.02,244.891,289.06,244.422,289.551z"/>
		<path fill="#E21A2C" d="M184.311,289.879c-0.615,0.288-0.881,1.02-0.594,1.635c0.062,0.131,1.512,3.225,3.015,5.158l1.436,1.846
			c0.417,0.535,1.19,0.633,1.727,0.215c0.537-0.417,0.633-1.189,0.216-1.727l-1.436-1.846c-1.332-1.713-2.714-4.658-2.728-4.687
			C185.659,289.857,184.926,289.592,184.311,289.879z"/>
		<path fill="#E21A2C" d="M239.384,343.494c0,0-3.281,1.23-8.613,3.897c-4.846,2.423-13.74,7.383-13.74,7.383
			s-4.307-3.076-8.614-5.947s-10.254-5.537-10.254-5.537s10.665-0.205,19.483-0.205
			C226.464,343.085,239.384,343.494,239.384,343.494z"/>
		<g>
			<path fill="#E21A2C" d="M172.322,335.611c0-0.629,0.051-18.156,0.051-23.404c0-5.247-0.769-5.164-1.692-5.144
				c-1.154,0.026-1.362,0-1.333-1.888c0.026-1.707,3.795-1.313,6.255-1.313c4.615,0,9.819,0,12.074,0
				c4.281,0,12.536,4.406,12.536,13.38c0,8.66-7.921,10.962-10.563,10.918c-3.05-0.054-3.127,0.025-3.127-1.156
				c0-1.416-0.051-1.47,0.667-1.47s5.127-1.681,5.127-8.501c0-6.822-3.589-9.309-6.051-9.341c-4.05-0.052-3.973-0.052-3.973,2.545
				c0,1.472-0.052,9.604,0,11.808c0.077,3.228-0.235,3.532,0.692,3.489c2.23-0.104,2.308-0.025,2.257,1.26
				c-0.034,0.839-0.052,1.392-1.18,1.392c-1.127,0-1.769,0-1.769,0s-0.043,2.912-0.026,5.012c0.026,3.096-0.052,3.366,0.616,3.357
				c1.948-0.026,2.359,0.209,2.359,1.26c0,1.052-0.103,1.68-2.257,1.68c-2.153,0-9.638,0.026-11.074,0.026s-2.014,0.08-2.077-1.182
				c-0.077-1.574,0.77-1.653,1.539-1.653C172.302,336.687,172.322,336.975,172.322,335.611z"/>
			<path fill="#E21A2C" d="M226.844,313.839c0.641,0,1.087-1.03,1.943-3.882c0.855-2.85,1.166-4.039,0.855-4.751
				c-0.311-0.713-0.778-0.476-1.711-0.079c-0.932,0.396-1.307,0.583-2.564,0.237c-2.021-0.554-5.676-1.425-9.718-1.425
				c-7.696,0-12.049,3.255-12.36,8.998c-0.249,4.588,1.71,6.841,5.986,8.821c2.891,1.338,10.805,4.514,12.982,5.622
				c2.177,1.108,2.876,2.375,2.643,4.276c-0.212,1.728-2.41,3.406-6.063,3.406c-3.654,0-6.84-1.983-9.329-4.276
				c-3.265-3.011-1.866-4.199-3.809-4.199c-0.544,0-0.778,1.188-1.633,4.436c-0.775,2.943-0.948,4.27-0.156,4.673
				c1.244,0.634,1.789-1.029,3.965,0.476c1.32,0.912,5.287,3.246,11.039,3.246c5.753,0,12.028-2.617,12.983-8.156
				c1.01-5.86-1.157-9.845-9.795-13.306c-9.095-3.642-10.577-3.805-11.35-5.621c-1.011-2.378,0.777-4.435,5.13-4.435
				c4.121,0,6.841,1.663,8.007,2.771C225.056,311.78,224.979,313.839,226.844,313.839z"/>
			<path fill="#E21A2C" d="M249.058,304.016c-6.397,0.386-11.874,5.182-13.86,11.921c-1.903,6.461-0.117,14.132,3.199,18.149
				c3.046,3.692,6.995,5.461,12.871,5.461c7.539,0,14.012-4.461,14.316-4.999c0.355-0.63-0.241-1.183-1.142-3.153
				c-0.915-1.999-1.623-2.239-2.058-2.384c-0.685-0.23-2.517,3.791-7.311,3.999c-5.331,0.23-9.106-4.01-11.27-8.383
				c-2.59-5.229-2.106-11.367,0.304-14.15c2.132-2.462,6.246-3.23,8.073-1.538c1.589,1.471,1.502,5.721,2.361,5.845
				c0.532,0.076,1.676-0.538,4.645-2.691c2.97-2.153,3.579-2.539,3.579-3.077S257.58,303.505,249.058,304.016z"/>
		</g>
	</g>
	<g>
		<path fill="#E21A2C" d="M227.225,77.324c-12.165-3.262-20.31-0.582-28.253,8.099c-4.146,4.531-7.232,15.428-5.592,22.273
			c1.64,6.846,4.918,10.317,5.979,11.474s1.446,1.446,0.482,2.219c-0.965,0.771-1.253,1.638-2.314,1.638
			c-1.06,0-2.217,1.062-2.7,2.025c-0.482,0.964-1.253,1.062-2.313,1.062c-1.062,0-1.833,1.542-2.701,1.542
			c-0.867,0-1.156,0.482-2.218,2.025c-1.061,1.542-1.157,4.532-2.218,5.882c-1.06,1.351-1.542,4.531-2.7,5.978
			c-1.157,1.445-3.086,3.47-3.857,8.774c-0.771,5.303-1.927,6.749-2.603,8.677c-0.676,1.93-1.447,4.339-2.217,6.653
			c-0.772,2.315-3.471,6.75-3.761,8.678c-0.29,1.929,0.385,5.015,1.351,6.46c0.963,1.448,4.241,4.146,5.109,5.883
			c0.869,1.735,1.929,5.688,1.061,7.327c-0.867,1.64-3.085,4.05-4.339,5.303c-1.254,1.254-3.181,4.243-3.856,6.075
			c-0.675,1.832-1.929,3.471-1.06,5.785c0.868,2.314,3.567,2.988,4.531,3.471c0.965,0.481,0.676,1.928,0.868,3.085
			c0.192,1.156,1.928,2.989,2.892,4.723c0.964,1.736,1.253,4.051,1.253,5.499c0,1.445,0.965,2.698,0.096,3.856
			c-0.868,1.156-1.35,3.953-1.252,5.689c0.095,1.735,0.963,6.267,0.192,8.099c-0.771,1.832-1.928,7.038-1.928,8.292
			c0,1.254,1.542,3.761,0.578,5.11c-0.965,1.349-1.447,3.278-0.965,5.304c0.482,2.024,0.387,4.434,0.194,6.458
			c-0.194,2.026-1.351,4.821-1.929,6.171c-0.579,1.351-2.506,5.882-2.026,7.328c0.484,1.447,3.955,3.278,5.208,3.857
			c1.253,0.578,5.014,3.182,5.785,4.05c0.771,0.867,2.411,1.734,4.146,4.049c1.736,2.314,3.278,4.437,5.881,4.34
			c2.604-0.097,4.147-2.219,5.207-3.567c1.062-1.35,3.086-0.868,3.761-1.35c0.675-0.482-0.771-2.412,0.675-3.087
			c1.447-0.674,1.639-1.638,2.41-2.121c0.772-0.482,1.542-2.121,3.084-2.41c1.543-0.29,3.955,0.097,5.016-0.29
			c1.061-0.384,1.639-0.48,2.796-0.48c1.156,0,1.447,1.639,1.927,2.313c0.483,0.676,1.254,1.542,1.929,1.542
			c0.674,0,2.411,1.254,3.471,1.157c1.061-0.096,3.182-0.193,4.146-0.193c0.964,0,2.121-1.251,3.085-1.927
			c0.965-0.676,1.639-1.64,1.254-2.796c-0.386-1.158-1.156-2.219-1.156-3.954c0-1.737,0.481-2.121,1.348-2.121
			c0.871,0,3.761,1.252,4.918,0.675c1.157-0.58,2.314-1.254,4.628-3.277c2.313-2.025,2.604-2.895,3.567-2.895
			c0.963,0,2.217,0.29,2.989,1.543c0.771,1.254,2.314,1.254,2.795,1.157c0.484-0.097,1.448-0.386,2.509-0.097
			c1.06,0.291,1.543,0.482,2.506,0c0.965-0.48,1.446-0.385,2.508-0.868c1.06-0.481,2.314-1.446,3.278-1.639s2.025-1.543,1.831-3.181
			c-0.192-1.639-1.155-3.954-0.385-4.725c0.771-0.771,2.797-1.832,2.797-3.375s-2.7-5.689-1.832-8.003
			c0.867-2.314,0-6.942,0.867-8.389c0.869-1.446,1.061-5.014,2.314-6.074c1.254-1.062,2.024-2.025,2.603-3.374
			c0.578-1.351,3.472-0.29,3.567-2.122c0.097-1.833,0.483-3.375,1.833-5.015c1.35-1.638,0-4.049-1.253-6.845
			c-1.254-2.796-0.194-4.725-0.869-6.17c-0.675-1.447-1.639-1.447-2.409-2.507c-0.773-1.061-0.387-2.892-0.387-3.664
			s-1.156-2.218-1.831-3.664c-0.676-1.447-2.314-4.724-2.508-6.461c-0.191-1.735-0.578-4.146-1.446-6.074
			c-0.867-1.928-2.313-2.988-2.602-3.953c-0.291-0.965,0.191-1.543,0.769-1.929c0.579-0.386,2.701-1.06,3.088-2.507
			c0.385-1.446,0.288-3.471,0.288-4.821c0-1.349-1.254-2.218-0.288-3.181c0.963-0.964,3.181-2.121,3.663-3.761
			c0.48-1.64,0.674-5.4,0.193-8.388c-0.482-2.99-0.966-5.594-2.219-7.425c-1.253-1.833-3.567-3.472-4.242-4.146
			c-0.675-0.676-1.252-0.965-1.252-0.965s2.794-1.928,5.011-5.11c2.22-3.183,4.244-7.714,3.279-15.236
			c-0.964-7.519-6.413-12.237-9.449-13.787c-4.726-2.411-9.738-3.184-15.524-1.737c-6.128,1.534-10.027,7.04-10.027,7.04
			s-0.771-0.771-1.254-1.157c-0.482-0.385-0.676-0.771-0.676-0.771s2.99-1.544,6.461-5.401c3.471-3.856,7.557-10.077,6.17-20.248
			C243.52,88.124,236.578,79.831,227.225,77.324z"/>
		<path fill="#FFFFFF" d="M249.063,276.047c0.921-0.919,3.037-0.579,3.906,0c0.865,0.58,2.023,0.724,3.76,0.29
			c1.734-0.436,3.182-2.026,3.182-2.893c0-0.869-1.157-2.314-2.604-2.459c-1.446-0.145-3.473-0.867-4.917,0
			c-1.446,0.868-3.761,1.735-4.483,2.169c-0.724,0.435-1.881,1.446-1.014,2.313C247.763,276.337,248.485,276.627,249.063,276.047z"
			/>
		<path fill="#FFFFFF" d="M227.369,282.268c0,1.301,0.144,3.471,0.433,3.904c0.29,0.436,1.447,2.314,0.145,3.326
			c-1.301,1.014-2.748-0.289-4.049,0.146c-1.302,0.433-2.749,0.145-3.327-0.435c-0.577-0.578-1.447-2.458-1.014-3.615
			c0.437-1.157,1.592-1.88,2.605-2.313c1.013-0.437,2.168-0.868,3.037-1.303C226.067,281.545,227.369,282.268,227.369,282.268z"/>
		<path fill="#FFFFFF" d="M204.229,287.185c-0.259,0.517-0.724-2.314,0.145-3.038c0.867-0.723,2.4-0.402,2.892-1.879
			c0.723-2.171,1.736-0.867,2.604-2.171c0.866-1.301,1.302-2.024,2.747-2.748c1.446-0.722,0.869-3.47,2.17-4.628
			c1.302-1.156,2.458-4.628,2.458-6.508c0-1.88,2.17,2.604,2.17-1.302c0-3.905-0.578-13.017,0.723-14.172
			c1.303-1.158,2.604-0.58,2.604,3.614s1.447,11.426,2.316,11.136c0.866-0.289,1.59-5.351,1.445-10.269
			c-0.146-4.917-1.157-8.243-2.314-11.859s0.724-5.641,0.869-7.521c0.143-1.879,1.156-5.062,1.299-7.665
			c0.146-2.604,0.291-4.918,0.291-7.521s0.579-4.049,1.446-5.64c0.868-1.592,1.591-1.736,2.459-1.158
			c0.868,0.578,1.446,3.76,1.446,4.918c0,1.156,0.144,3.616-0.869,4.773c-1.012,1.157-1.301,2.314-1.301,4.048
			c0,1.736,3.037,2.46,4.483,1.591c1.447-0.867,1.591-3.182,2.604-5.351c1.012-2.169,1.301-3.759,1.301-4.338
			c0-0.579,1.302,0.579,2.603,0.29c1.302-0.29,1.88-1.157,2.604-2.749c0.724-1.592,1.302,0.868,2.171,1.158
			c0.866,0.29,3.182,1.734,3.182,4.627c0,2.893,0.144,7.955,0.144,8.968c0,1.011,0.29,2.892,0,5.496
			c-0.289,2.602,0.578,3.47,0.435,7.665c-0.145,4.194-0.29,4.773-0.29,8.099c0,3.327,1.735,4.482,1.735,2.025
			c0-2.459-1.156-7.376,0-8.534c1.157-1.156-0.433,1.736,1.737,1.881c2.168,0.144,2.457,2.168,2.168,4.771
			c-0.29,2.604-0.869,6.798,1.013,7.811s3.471,1.446,4.628,1.881c1.157,0.434,2.749,1.591,2.169,2.602
			c-0.577,1.014-2.458,2.025-2.458,3.183s-1.302,0.145-3.182-0.29c-1.881-0.434-4.051,0-6.798,1.591s-5.786,1.88-7.376,3.326
			c-1.591,1.448-4.051,4.049-6.074,4.918c-2.025,0.867-3.616,0.435-5.93,0.144c-2.313-0.289-4.773,0-7.52,1.592
			c-2.748,1.592-5.352,3.761-6.364,4.773c-1.013,1.012-1.591,0.721-3.616,0.721c-2.024,0-2.893,1.304-4.771,1.304
			C206.542,286.751,204.662,286.316,204.229,287.185z"/>
		<path fill="#FFFFFF" d="M175.591,286.751c0.861,0.446,2.748-0.291,4.339,1.156c1.591,1.446,4.049,2.748,5.931,4.339
			c1.879,1.591,2.313,3.184,2.603,3.905c0.289,0.724,2.313,0.434,3.617,0.434c1.299,0,3.469-1.591,4.481-2.169
			c1.014-0.579,0.435-3.037,1.592-4.484c1.158-1.445,3.182-2.313,3.616-3.76c0.434-1.445,1.157-3.182,2.169-3.904
			c1.012-0.723,1.591-3.615,2.458-4.195c0.868-0.579,1.303-1.735,2.314-3.182c1.012-1.446,3.905-3.037,4.774-4.628
			c0.866-1.591,1.735-4.339,2.457-6.509c0.725-2.168,1.736-3.47,0.58-5.785c-1.157-2.313-2.026-5.785-2.026-7.087
			c0-1.302-1.88,0.867-1.88,3.037c0,2.17,0.579,7.231-0.868,9.69s-1.879,3.905-2.459,3.905c-0.578,0-0.433-2.748,0.291-5.785
			c0.722-3.037,0.434-5.786,0.722-7.666c0.29-1.88,1.303-5.351,2.314-6.654c1.013-1.301,0.289-4.049,0.869-7.81
			c0.577-3.76,1.445-6.074,1.591-8.967c0.144-2.892,1.446-6.942,0.722-10.414c-0.722-3.471-1.736-7.665-0.145-8.389
			c1.59-0.723,2.458,1.591,2.893,3.615c0.434,2.026,1.011,8.245,2.025,8.245c1.012,0,1.012-5.929,0.578-8.967
			c-0.434-3.038,1.88-0.724,1.88,3.182s0,7.521,0.435,7.087c0.433-0.433,1.011-7.955,1.301-9.111
			c0.291-1.157,1.302-2.459,1.446-3.616c0.144-1.157-0.578-4.339-2.17-7.521c-1.59-3.182-1.879-5.64-2.603-5.64
			c-0.724,0-1.157,0.723-2.749,0.723c-1.59,0-3.47,0-5.785,0c-2.313,0-5.062,0.433-6.363,1.446c-1.302,1.012-2.169,1.591-3.47,1.735
			c-1.303,0.144-2.315,1.013-2.749,3.471c-0.435,2.458-2.17,2.169-3.615,3.905c-1.447,1.735-3.906,4.195-5.786,5.207
			c-1.881,1.013-3.183,1.013-0.146-2.024c3.037-3.039,2.169-4.918,0.868-3.328c-1.302,1.591-6.653,5.931-8.533,5.931
			c-1.88,0-3.76-0.725,0.435-3.328c4.193-2.604,5.928-3.615,6.942-4.628c1.011-1.012-1.447-0.722-4.484-0.722
			c-3.039,0-6.364-1.013-6.221-2.025c0.146-1.013,1.303-1.013,5.932-1.013c4.628,0,7.376-0.867,7.52-2.023
			c0.145-1.158-0.29-2.026-2.603-2.026c-2.314,0-2.604-0.868-1.591-1.445c1.012-0.579,2.025-0.725,5.496-0.29
			c3.472,0.434,8.1-0.724,5.063-1.881c-3.038-1.156-9.111-4.05-8.389-4.916c0.723-0.869,1.881-1.158,6.077,1.445
			c4.192,2.604,6.651,4.195,8.532,3.906c1.881-0.29,2.169-1.591-0.434-3.037c-2.604-1.448-1.012-2.46,0.722-1.448
			c1.736,1.013,4.051,2.026,3.616,0.723c-0.434-1.301-2.604-2.169-5.35-3.327c-2.748-1.155-8.019-2.646-10.125-4.048
			c-2.167-1.446-2.893-2.313-3.181-4.628c-0.29-2.314-1.592-2.893-1.881-5.786c-0.288-2.893-1.301-3.181-3.038-5.93
			c-1.735-2.748-3.037-4.049-2.748-5.496c0.29-1.446,2.604,1.013,3.617,1.591c1.011,0.579,1.011,2.17,1.735,3.182
			c0.723,1.012,2.893,3.182,3.472,5.93c0.578,2.748,0.578,5.931,1.446,7.088c0.867,1.156,3.327,2.168,4.772,3.615
			c1.446,1.446,2.749,0.866,3.761,0.866s3.182,1.014,4.774,2.171c1.59,1.157,2.892,1.157,2.892,1.157s-1.013-2.603-4.195-4.194
			c-3.182-1.591-5.93-2.314-7.232-5.497c-1.302-3.182-2.313-3.036-2.17-6.941c0.146-3.906-1.012-9.256-1.735-12.004
			c-0.723-2.749-0.723-3.76-0.723-6.508c0-2.749-0.288-6.653-0.868-8.678c-0.578-2.025-0.865-4.049,0.724-3.471
			c1.591,0.578,1.591,3.904,1.591,6.217c0,2.315,0,7.377,0.579,9.547c0.578,2.169,1.88,5.496,1.88,7.521
			c0,2.025,1.445,4.773,1.445,7.232c0,2.458,1.591,5.786,3.038,7.955c1.446,2.168,4.485,3.181,6.075,4.048
			c1.591,0.868,3.615,4.918,5.061,5.786c1.447,0.867,3.905,2.458,3.761,3.76c-0.145,1.302-0.723,3.326,0.867,3.037
			c1.59-0.289,0.723-1.446,0.869-4.338c0.144-2.892,1.591-3.616,0.288-6.799c-1.301-3.181-1.88-5.206-0.578-5.928
			c1.302-0.723,1.881-4.051-0.289-4.483c-2.169-0.435-5.785-2.46-8.099-2.46s-7.086-1.59-8.389-3.759
			c-1.301-2.169-1.735-4.484-0.723-5.352c1.012-0.868,1.736,2.603,2.026,3.615c0.289,1.013,1.59,2.459,3.181,1.447
			c1.591-1.013,1.591-2.748,0-4.773c-1.591-2.024-2.604-5.351-2.604-6.508s-1.88-1.736-2.458-4.34
			c-0.579-2.603-2.025-5.061-2.169-7.087c-0.146-2.024-0.146-3.616,0.867-3.616s0.868,1.736,1.157,2.46
			c0.289,0.722,2.026,5.351,3.616,6.652c1.591,1.301,1.591,4.194,3.182,5.207s2.025,2.893,2.025,3.76
			c0,0.869,1.59,3.327,1.302,5.208c-0.29,1.879-0.579,4.483,1.445,4.483c2.025,0,2.025-2.748,2.17-6.075
			c0.144-3.326,1.156-7.52,0.579-11.425c-0.579-3.905,0-6.218-1.447-8.823c-1.446-2.603-2.313-2.169-2.313-3.76
			s-0.58-4.049-1.303-4.918c-0.722-0.868-1.013-2.024-1.446-3.905c-0.433-1.88-1.302-3.904-2.459-5.207
			c-1.157-1.302-1.735-3.759-1.735-4.629c0-0.867-0.723-1.012-1.59-1.012c-0.869,0-1.737,1.591-1.737,2.17s1.158,2.025,2.894,4.484
			c1.735,2.458,2.168,5.785,1.735,6.219c-0.434,0.433-0.867-1.302-2.459-3.183c-1.589-1.879-3.181-2.314-4.917-3.037
			c-1.736-0.724-2.892-1.157-3.471-0.578c-0.58,0.578-0.433,2.168,1.591,3.182c2.023,1.012,5.061,3.037,5.785,4.628
			c0.723,1.591,0,1.88-0.578,1.88c-0.58,0-1.303-2.892-2.75-3.761c-1.445-0.867-1.59,0.29-0.723,1.735
			c0.869,1.447,1.881,3.473,0.58,3.473c-1.302,0-2.17-2.459-2.75-4.051c-0.577-1.59-3.037-2.893-4.917-2.603
			c-1.88,0.289-2.314,3.181-3.76,4.338c-1.447,1.159-2.313,5.497-3.47,6.51c-1.159,1.013-3.616,4.338-3.905,7.086
			c-0.291,2.749-1.014,5.932-1.448,7.231c-0.434,1.303-1.445,6.363-2.314,6.654c-0.868,0.29-1.156,3.76-2.313,5.352
			s-2.024,4.484-1.88,6.798c0.145,2.313,1.156,4.338,3.182,6.22c2.024,1.879,4.194,6.073,4.194,9.111
			c0,3.038-1.302,5.931-4.049,8.822c-2.749,2.894-4.917,5.062-5.351,7.232s-0.145,4.338,2.459,4.483s4.628,3.473,4.628,4.485
			c0,1.013,1.011,2.748,1.735,4.338c0.721,1.591,0.867,4.773,0.867,5.641s1.591,4.196,2.17,5.641
			c0.578,1.446,0.866,4.049,2.168,6.217c1.302,2.171,3.76,3.761,5.785,3.761c2.027,0,4.917-2.458,5.642-5.061
			c0.723-2.604,1.735-4.05,3.327-7.232c1.59-3.183,1.446-7.086,2.603-7.811c1.157-0.723,0.29-4.338,2.024-5.062
			c1.736-0.723,2.458,2.893,1.012,4.917c-1.446,2.025-1.88,7.375-2.025,9.689c-0.144,2.315-0.868,3.615-1.157,5.93
			c-0.289,2.313-1.591,5.208-2.604,6.365c-1.011,1.156,0.146,3.76,0.146,5.207c0,1.445-0.435,5.206-2.46,6.797
			c-2.024,1.59-3.47,2.748-5.495,4.34c-2.025,1.59-4.338,6.941-5.93,8.242c-1.59,1.302-2.171,2.749-3.471,4.918
			c-1.302,2.169-3.905,3.182-4.772,4.194c-0.869,1.013-1.013-1.737,1.59-4.194c2.603-2.459,3.182-5.352,5.353-8.389
			c2.168-3.037,3.326-6.075,6.653-7.81c3.325-1.735,3.616-5.93,2.747-6.509c-0.867-0.578,0.291-2.603,0.291-4.483
			c0-1.879-0.435-0.289-2.75-0.289c-2.313,0-3.615,0.866-4.772,1.735c-1.157,0.868-2.313,3.76-2.313,6.219
			c0,2.458-0.725,4.194-2.459,5.207c-1.735,1.011-3.326,2.748-3.182,4.049c0.144,1.301,1.013,4.339,0,6.075
			c-1.012,1.735-2.169,5.495-3.037,7.521c-0.868,2.024-2.604,4.338-2.459,5.785C172.699,283.568,171.685,284.727,175.591,286.751z"
			/>
		<path fill="#FFFFFF" d="M255.139,195.778c-1.445,0.057-3.472,0.289-3.472,2.025c0,1.734-0.579,5.206-1.591,7.086
			c-1.013,1.88-3.616,4.773-4.05,5.64c-0.433,0.869-1.446,2.749-0.723,4.052c0.723,1.301,2.459,2.747,3.472,3.181
			c1.013,0.434,2.604,3.037,2.604,4.628c0,1.59,0,5.205,0.722,5.205c0.723,0,2.024-1.734,2.024-3.181
			c0-1.446,0.579,1.879,0.579,4.194c0,2.315,0.145,6.075,2.025,7.521c1.88,1.446,1.734,4.196,0.869,5.207
			c-0.869,1.013-2.605-4.918-2.895-3.328c-0.29,1.592-0.29,3.907-0.145,5.642c0.145,1.736,0.289,5.64,3.182,6.798
			c2.893,1.156,3.617-1.158,4.772-3.472c1.158-2.314,2.316-5.641,2.171-7.232c-0.145-1.59-1.446-8.822-1.446-11.137
			c0-2.314-1.013-5.495-1.447-9.689c-0.433-4.194-1.735-7.232-1.012-10.414c0.723-3.182,1.591-1.879,2.024-0.29
			c0.435,1.592,1.157,3.183,1.157,5.207c0,2.024,0.869,5.641,1.302,6.654c0.434,1.011,1.301,2.892,1.013,5.639
			c-0.291,2.749,0.144,6.943-0.146,8.824c-0.289,1.879-0.578,4.195,0.579,3.905c1.157-0.29,1.591-3.182,2.892-3.327
			c1.303-0.144,1.737-2.315,2.314-4.194c0.578-1.88,0.578-3.038-0.288-5.496c-0.87-2.458-0.87-6.075-2.46-6.942
			c-1.592-0.869-1.592-3.761-1.446-4.917c0.146-1.158-0.578-2.46-1.591-4.051c-1.012-1.591-2.604-4.917-2.746-6.797
			c-0.146-1.881-1.447-4.629-1.593-5.786c-0.145-1.156-1.012-3.472-2.313-3.472C258.177,193.462,258.754,195.633,255.139,195.778z"
			/>
		<path fill="#E21A2C" d="M197.576,212.988c-0.868,0-1.303,1.88-1.446,3.326c-0.146,1.447-1.159,3.615-2.025,4.195
			c-0.869,0.578-0.578,2.748-0.725,4.483c-0.145,1.736-0.578,2.458-1.59,3.472c-1.013,1.012-1.591,2.458-2.604,3.327
			c-1.013,0.868-2.314,2.024-2.024,3.035c0.29,1.014,1.446,1.592,2.313,0.869c0.868-0.722,1.302,1.158,2.605,1.014
			c1.299-0.146,2.167-1.882,1.446-2.748c-0.724-0.869,0.288-3.038,1.444-4.629c1.159-1.589,1.302-4.917,1.447-6.798
			c0.144-1.879,0.869-2.313,1.302-4.338S199.455,212.988,197.576,212.988z"/>
		<path fill="#FFFFFF" d="M231.949,228.031c-0.858-0.478-1.253-0.772-1.06-2.026c0.192-1.252,1.541-2.795,1.831-4.146
			c0.29-1.35,1.544-1.446,2.411-1.06c0.868,0.386,1.64,1.832,1.061,3.084c-0.578,1.254-1.446,2.989-1.734,3.665
			C234.167,228.223,232.816,228.513,231.949,228.031z"/>
		<path fill="#FFFFFF" d="M232.816,217.423c-0.192-1.252-0.868-2.892-0.482-3.375c0.386-0.48-0.868-1.542-1.253-2.507
			c-0.385-0.964-0.481-3.855-0.192-6.749c0.288-2.893,0.384-4.726,0.868-6.653c0.482-1.929-0.772-2.893-0.193-3.375
			c0.578-0.483,1.929-0.868,3.182-0.868c1.253,0,2.314-0.386,2.892-0.868c0.579-0.482,0.58-1.446,1.544-1.446
			c0.963,0,1.06,1.061,1.06,2.026c0,0.964-0.193,2.313-0.481,3.277c-0.29,0.965-1.157,1.93-0.771,3.279
			c0.385,1.35,1.156,3.567,1.156,4.821s-0.578,3.278-1.06,3.857c-0.483,0.578-0.483,2.218-0.965,3.182
			c-0.483,0.964-2.025,2.893-2.506,4.243c-0.483,1.349-0.581,1.447-1.254,1.253C233.684,217.328,232.816,217.423,232.816,217.423z"
			/>
		<path fill="#FFFFFF" d="M237.251,218.677c-0.674,0.097-1.253-0.868-0.674-2.41c0.579-1.542,1.35-2.796,2.218-3.76
			c0.867-0.965,1.445-2.122,2.121-4.146c0.674-2.024,0.482-4.531,0.386-6.269c-0.097-1.734-0.579-4.048-0.193-7.039
			c0.386-2.988-0.096-3.663,1.543-5.88s3.279-2.989,4.435-2.989s2.604,1.254,4.243,2.122s1.929,2.796,1.735,3.278
			c-0.193,0.482-1.447,0.676-2.508,1.35c-1.061,0.676-1.156,2.025-0.964,4.147c0.194,2.121,0.288,5.012-0.481,6.557
			c-0.771,1.543-2.508,3.278-3.375,4.627c-0.867,1.35-2.989,3.472-2.893,4.918c0.097,1.446-0.192,3.47-0.867,4.531
			c-0.675,1.061-2.218,1.253-2.988,0.963C238.216,218.389,237.927,218.582,237.251,218.677z"/>
		<path fill="#FFFFFF" d="M229.538,194.765c-0.526,0.376-1.155,0-1.542-0.964c-0.386-0.964,0.578-3.182,0.289-3.666
			c-0.289-0.48-1.832-0.095-2.892,0c-1.061,0.099-2.893-0.384-3.471-0.48c-0.58-0.097-0.675-1.93-0.772-3.086
			c-0.096-1.157-0.123-4.258,0.483-5.014c0.771-0.964,1.349-1.061,3.084-0.869c1.736,0.194,3.567,0.675,6.075,1.352
			c2.506,0.674,3.953,0.867,4.822,2.121c0.868,1.254,1.638,3.278,1.638,4.146s0.193,2.603-0.964,3.278
			c-1.157,0.676-2.506,0.869-2.894,0.096c-0.384-0.771-1.347-1.157-1.928-1.157c-0.578,0-0.983,0.953-1.349,1.928
			C229.828,193.222,230.213,194.282,229.538,194.765z"/>
		<path fill="#FFFFFF" d="M258.657,155.907c1.547,1.106,2.797,1.929,5.593,4.821c2.796,2.893,2.989,6.557,3.183,9.739
			c0.192,3.181,0,5.206-1.351,6.364c-1.349,1.156-2.894,1.735-3.278,1.735c-0.386,0-2.411-0.385-3.569-0.096
			c-1.154,0.289-1.636,0.193-2.024-0.096c-0.385-0.289-1.445-0.096-1.83,0.192c-0.387,0.29-2.121,0.29-3.472,0.29
			s-1.446-1.158-1.64-2.122c-0.193-0.965,0.193-2.7,0.771-3.375c0.578-0.675,2.604,0,5.206,0.097
			c2.604,0.096,4.341-0.386,5.016-2.025c0.675-1.639,0.385-3.664-0.482-5.303c-1.736-3.278-4.493-4.624-5.399-5.206
			c-1.351-0.869-2.314-1.447-2.314-2.025s0.385-1.061,1.06-1.061s0.868-0.29,0.868-0.868c0-0.579-0.481-1.35-1.254-1.35
			c-0.77,0-0.77-1.061-0.77-1.64c0-0.578-0.579-1.252-1.255-1.252c-0.675,0-0.867,0.096-0.867,1.06c0,0.965-0.193,1.736-1.157,1.736
			c-0.963,0-1.156,0.096-1.156,1.06c0,0.964,0.287,1.158,1.06,1.158s0.964,0.578,0.964,1.06c0,0.483-0.289,1.158-1.253,1.543
			c-0.963,0.385-3.278,1.735-4.821,3.664c-2.507,3.133-1.157,5.11-1.543,5.4c-0.385,0.29-1.061,0.771-1.061,2.024
			c0,1.253,0.675,2.121,1.639,2.989c0.965,0.868,0.676,2.796,0.771,4.146c0.097,1.351,0.58,2.893,1.543,2.121
			c0.964-0.77,1.831-0.866,3.182-0.866s1.929,0.097,3.375-0.097c1.444-0.193,2.313-0.096,2.797,0c0.48,0.097,2.217,1.446,2.698,1.06
			c0.483-0.385,1.543-1.446,2.314-1.446c0.773,0,1.542,0,2.121,0.771c0.579,0.772,1.543,1.639,1.543,2.988
			c0,1.351-1.254,0.869-2.603,0.097c-1.351-0.771-3.085-1.349-1.929-0.578c1.157,0.771,1.641,2.217,2.506,2.411
			c0.869,0.193,2.025,0.386,1.929,1.446c-0.096,1.06-1.35,1.928-2.409,1.928c-1.061,0-1.93-1.928-2.796-3.182
			c-0.87-1.253-3.087-2.122-3.666-1.639c-0.578,0.482,0.771,2.217,2.508,3.567c1.734,1.35,1.542,3.182,0.867,4.242
			c-0.673,1.062-1.157,1.833-2.41,2.314c-1.254,0.483-0.674-0.771-0.579-2.314c0.098-1.542-0.289-2.795-2.41-4.435
			c-2.121-1.64-4.051-2.507-6.074-2.507c-2.025,0-2.892,1.446-4.242,3.085s-2.217,2.989-2.604,2.989
			c-0.482,0-1.447-0.675-1.447-1.542c0-0.869,0.58-1.64,1.447-1.736s0.867-1.446-0.482-1.446s-1.928-0.771-1.928-1.543
			c0-0.771,1.832-2.41,2.603-3.085c0.772-0.675,0.096-3.084,0.096-4.436c0-1.35-0.289-3.182-0.867-4.821
			c-0.578-1.638-0.771-2.701-0.771-4.917c0-2.217-0.965-3.664-3.181-5.014c-2.218-1.35-4.533-2.121-5.884-2.121
			c-1.35,0-3.267-2.04-4.242-3.665c-1.157-1.928-2.411-3.374-3.47-5.398c-1.062-2.027-1.736-2.605-2.604-3.955
			c-0.868-1.349-1.061-3.76-0.868-4.821c0.193-1.06-0.193-2.506,0.29-3.181c0.481-0.676,0.867-0.676,1.542-0.773
			c0.675-0.095,1.061,0.386,1.64,0.386s0.481,0.868,0.481,1.833c0,0.964,0.674,0.288,1.061,0.385
			c0.385,0.097,0.483,0.675,0.483,1.736c0,1.061,0.095,3.759,0.771,4.82c0.674,1.062,0.482,2.508,2.218,4.338
			c1.735,1.833,2.796,1.352,4.627,1.641c1.832,0.29,3.955,1.35,6.171,1.35c2.218,0,4.243-1.35,4.726-2.218
			c0.481-0.867-1.543-2.025-2.122-3.181c-0.579-1.158-0.482-2.989-0.096-4.34c0.386-1.349,0.964-1.445,1.928-1.445
			s2.123,0.867,2.508,0.963c0.385,0.096,0.481-0.963,0.481-2.314c0-1.35-0.481-1.928-1.542-2.024
			c-1.061-0.096-1.639,0.29-2.411,0.29c-0.77,0-1.061-0.869-0.868-1.833c0.194-0.964,1.158-2.218,2.315-2.41
			c1.157-0.193,2.025-0.771,2.604-1.447c0.578-0.673,1.832,0.869,2.892,1.158c1.062,0.289,2.507-0.385,2.989-0.771
			s1.544,0.676,1.544,1.446s0.963,2.122,2.409,2.122c1.447,0,0.965,1.832,1.447,1.928c0.48,0.096,2.023-2.506,1.06-3.375
			c-0.964-0.868-2.893-1.061-2.411-2.218c0.483-1.156,0.483-1.253,1.544-1.253c1.06,0,2.409,1.156,2.893,1.833
			c0.482,0.674,0.965,1.928,0.965,3.086c0,1.156-0.676,4.821-1.64,5.688c-0.965,0.869-2.41,2.411-3.278,3.087
			c-0.868,0.674-1.833,2.41-1.543,3.567C254.318,152.05,255.958,153.978,258.657,155.907z"/>
		<path fill="#E21A2C" d="M248.342,140.576c0.644-0.276,1.155-0.192,2.216,0c1.061,0.194,1.543,1.157,2.122,1.833
			c0.258,0.301,0.29,0.577-1.157,1.831c-0.618,0.537-1.543,0.482-2.701,0.29c-1.156-0.193-2.278-0.949-1.734-2.217
			C247.665,140.962,247.665,140.866,248.342,140.576z"/>
		<path fill="#FFFFFF" d="M234.938,127.463c-0.963,0.964-2.891,4.34-3.375,7.618c-0.483,3.278-0.397,6.754,0.771,9.449
			c1.254,2.893,2.699,5.689,3.665,6.943c0.964,1.253,1.736,0.675,2.026-1.062c0.289-1.736,0.867-2.894,0.674-5.399
			c-0.193-2.507-0.482-3.568-1.928-2.99c-1.446,0.579-2.796-0.771-2.796-3.567c0-2.795,0.289-5.688,1.831-7.617
			c1.543-1.928,2.7-1.928,4.533-1.928c1.831,0,4.337,0.289,5.012-0.675c0.676-0.964,0.773-2.025-0.385-3.183
			c-1.156-1.157,0-2.122,2.508-2.122c2.506,0,5.785-0.097,8.099,0.581c2.313,0.674,4.242,1.638,3.374,3.375
			c-0.866,1.734-0.963,3.471,0.387,4.242c1.35,0.772,1.832,1.833,1.735,2.507c-0.095,0.676-1.834,0.097-2.988-1.35
			c-1.159-1.446-1.93-2.796-3.473-3.181c-1.542-0.386-2.411,0.77-3.376,0.578c-0.963-0.193-1.06-1.929-2.988-1.349
			c-1.928,0.578-1.06,1.832-2.604,1.735c-1.542-0.096-2.313-0.096-3.374,0.386c-1.061,0.481-1.253,3.181-2.604,3.181
			c-1.349,0-1.831,2.796-1.157,2.989c0.676,0.194,1.542-0.771,2.314-0.963c0.771-0.193,2.797-0.482,3.856-1.35
			c1.062-0.869,1.545-2.218,2.508-2.218c0.964,0,1.638,2.122,2.604,2.025c0.963-0.096,2.12-1.833,2.603-1.64
			c0.481,0.192,1.156,1.833,1.639,1.736c0.482-0.096,1.543-1.446,2.121-1.446c0.579,0,3.568,1.254,3.953,2.023
			c0.387,0.773,0.965,0.58,2.218,0.387c1.254-0.193,2.122-0.482,2.7,0.771c0.578,1.252,0.965,3.278,0.193,4.434
			c-0.771,1.158-1.158,2.701-1.158,3.377c0,0.673-0.673,2.217-1.253,3.276c-0.578,1.061-2.506,0.193-3.665,0.676
			c-1.155,0.481-3.085,0.579-3.085,1.832c0,1.254,0.771,3.084,2.218,4.049c1.447,0.965,5.4-2.072,8.485-7.135
			c1.669-2.737,2.699-10.509-0.289-16.005s-9.734-11.343-18.609-10.221C239.47,121.292,236.866,125.535,234.938,127.463z"/>
		<path fill="#E21A2C" d="M244.098,151.473c0.766-0.128,1.639-0.387,1.639-1.255c0-0.866,0.578-1.638,0.387-2.121
			c-0.193-0.482-0.773-1.061-1.254-0.77c-0.482,0.288-0.386,1.348-0.869,1.639c-0.482,0.288-1.253,0.288-2.121,0
			c-0.867-0.291,0,1.253,0.675,1.928C243.229,151.567,243.52,151.568,244.098,151.473z"/>
		<path fill="#FFFFFF" d="M214.883,172.203c-0.732,0.626,1.252,1.831,2.699,2.217c1.447,0.386,3.279,0.676,4.532,0.579
			c1.253-0.096,1.928,1.061,2.024,2.122c0.096,1.061,1.061,2.699,2.7,2.988c1.639,0.289,7.425,1.639,8.967,1.543
			c1.543-0.097,2.475-1.62,2.026-2.893c-0.58-1.639-4.822-2.7-6.943-2.797c-2.122-0.096-7.424-2.314-2.506-3.759
			c4.916-1.447,8.099-2.121,8.099-4.05c0-1.928,0-4.629-2.7-5.785c-2.701-1.157-4.726-1.06-5.883-1.64
			c-1.156-0.578-4.338-4.435-6.17-7.905c-1.832-3.471-4.243-6.268-4.339-7.329c-0.097-1.061,0-2.893,0.096-4.338
			c0.097-1.447,0.482-3.472,1.544-3.955c1.06-0.481,2.989,0.097,3.47,0.29s0.771,1.157,0.771,1.543c0,0.385,1.35-0.096,1.35,1.639
			c0,1.736,0.482,4.917,0.867,6.46c0.386,1.542,2.121,4.627,5.4,5.015c3.279,0.385,3.952,0.579,2.024-3.182
			c-1.929-3.762-3.664-10.511-2.796-14.464c0.867-3.953,2.313-6.267,1.446-7.039c-0.868-0.771-1.254,2.218-1.64,3.375
			c-0.386,1.157-0.964,3.086-1.736,3.857c-0.771,0.771-2.025,1.928-3.085,2.024c-1.061,0.097-3.375-0.675-2.026-1.156
			c1.352-0.482,2.797-0.579,3.569-1.158c0.771-0.579,0.289-2.7,1.061-3.567c0.771-0.868,1.542-2.701,2.217-3.471
			c0.675-0.771-1.446-0.193-2.411,1.157c-0.964,1.349-2.41,2.795-3.375,2.893c-0.963,0.097-2.217,0-3.182,0.193
			c-0.963,0.193-2.218-0.291-2.99,1.35c-0.771,1.638-1.252,2.507-2.025,1.638c-0.77-0.867-2.603-2.892-3.759-2.024
			c-1.158,0.868-1.255,2.217-0.868,2.893c0.385,0.674,0.097,3.278,1.64,3.471c1.542,0.192,1.349,1.735,1.349,3.084
			c0,1.351,1.447,3.857,1.447,5.111s0,3.761,0.676,4.242c0.674,0.483,1.059,1.833,0.674,3.183s0.097,3.953,0.675,6.267
			c0.578,2.314,0.097,4.34-0.675,5.303c-0.771,0.964-1.35,2.025-0.385,3.472C217.678,171.045,215.557,171.624,214.883,172.203z"/>
		<path fill="#FFFFFF" d="M249.112,161.789c-1.202,0.208-3.086,1.832-3.857,3.182c-0.771,1.351-1.06,2.795-1.06,3.856
			c0,1.062,0.192,1.64,1.735,1.929c1.543,0.29,2.891,0.385,2.891-0.192c0-0.578,1.061-1.832,1.736-2.025
			c0.674-0.192,0.674-1.252,0.674-3.182C251.231,163.429,251.33,161.403,249.112,161.789z"/>
		<path fill="#FFFFFF" d="M252.776,162.464c-0.289,0.674-0.483,4.338-0.483,4.917c0,0.579-0.192,1.736-1.062,1.928
			c-0.865,0.193-1.252,0.58-1.35,1.351c-0.094,0.771-0.577,1.446-1.639,1.446c-1.06,0-2.409-0.289-3.471-0.675
			c-1.06-0.386-1.446-0.29-1.446,0.193c0,0.482,0.869,1.639,1.254,2.313c0.385,0.675,0,0.482,2.12,0.771
			c2.121,0.291,2.701,0.482,2.797-0.771c0.097-1.253,1.061-1.928,1.833-2.025c0.771-0.096,2.604-0.482,3.374-0.964
			c0.771-0.481,0.578-1.542-0.29-1.735c-0.867-0.192-0.48-0.482-0.48-3.279C253.934,163.138,253.072,161.771,252.776,162.464z"/>
		<path fill="#FFFFFF" d="M255.572,163.91c-0.192,0.868,0.096,1.928,0.192,2.604c0.097,0.674,1.061,1.157,1.64,1.832
			c0.579,0.675,2.217,1.06,2.699,0.963c0.483-0.096,0.483-2.121-0.578-3.471s-3.857-4.242-3.857-2.218"/>
		<path fill="#FFFFFF" d="M212.375,117.628c0.285,0.512-0.192,1.349-0.675,1.929c-0.481,0.578-0.675,2.796-1.638,3.47
			c-0.964,0.676-2.024,2.025-1.061,3.472c0.964,1.446,2.755,3.4,4.338,3.665c0.579,0.096,2.411,0.866,3.087,0.385
			c0.674-0.482,1.156-1.736,2.313-1.736s2.507,0.29,3.953-0.481c1.447-0.772,2.893-3.567,3.471-3.954
			c0.579-0.386-0.192-1.253-0.385-2.313c-0.193-1.061-0.675-1.061-2.121,0.191c-1.446,1.255-3.086,1.639-4.339,1.639
			c-1.253,0-2.314-0.384-3.182-0.965c-0.867-0.577-0.963-1.927-0.193-1.541c0.772,0.386,3.182,1.157,4.146,0.964
			c0.965-0.193,3.376-1.833,4.532-2.7c1.157-0.868,1.734-2.412,2.604-4.436c0.867-2.025,0.673-2.7,1.253-4.049
			c0.578-1.35,1.35-2.122,1.35-2.797c0-0.674-1.35-1.446-2.314-1.156c-0.964,0.289-2.024-0.386-2.507-0.386
			c-0.481,0-1.639,0.482-2.314,0.482c-0.674,0-1.445-1.157-0.963-2.025c0.482-0.868,0.482-2.314,1.156-2.795
			c0.676-0.482,1.93-0.482,2.796-0.482c0.868,0,1.736,0.964,1.833,1.35c0.096,0.385,0.482,1.832,1.061,2.024
			c0.579,0.193,1.929,0,2.218-0.964c0.289-0.964,0.192-2.313-0.097-3.278c-0.289-0.964-1.543-2.411-2.989-3.47
			c-1.446-1.061-4.436-3.184-5.592-3.279c-1.157-0.097-3.664,0.097-4.339,0.482c-0.675,0.387-2.41,1.158-2.41,1.158
			s-0.579,1.252-1.254,1.64c-0.675,0.385-0.964,1.446-0.579,1.639c0.386,0.192-0.481,0.193-1.446,0.385
			c-0.964,0.193-1.252,0.868-1.639,1.736c-0.385,0.868,0,2.218-0.385,3.182c-0.385,0.964,0,2.795,0,4.146
			c0,1.351,0,2.989,0.096,3.76c0.096,0.771,0.577,2.411,0.77,2.7C211.122,115.505,211.894,116.76,212.375,117.628z"/>
		<path fill="#E21A2C" d="M216.619,102.586c-1.157,0-2.508,0-3.664,0.482c-1.157,0.482-1.93,1.35-1.157,1.64
			c0.771,0.289,1.446,0.385,2.121,1.061c0.675,0.674,1.735,0.868,2.604,0.674c0.868-0.192,1.253-0.674,1.35-1.735
			C217.967,103.647,217.485,102.586,216.619,102.586z"/>
		<path fill="#E21A2C" d="M219.607,118.496c-0.964,0-2.701-1.061-3.278-1.447c-0.58-0.386-0.387-1.061,0.771-1.157
			c1.157-0.096,1.639-0.867,2.604-0.867c0.964,0,1.832,0.771,2.603,0.964c0.771,0.193,1.061,1.35,0.289,1.35
			C221.825,117.339,220.571,118.496,219.607,118.496z"/>
		<path fill="#E21A2C" d="M219.318,111.264c-0.771,0-0.868,0.868-1.351,0.868c-0.482,0-0.192,0.869,0.386,0.869
			c0.579,0,0.964,0.385,1.254,0.385c0.289,0,1.06-0.674,1.446-0.771c0.386-0.097,0.193-0.578-0.193-0.578
			S220.283,111.264,219.318,111.264z"/>
		<path fill="#E21A2C" d="M216.33,101.719c0.674,0,1.252,0.579,1.252-0.29c0-0.868-0.771-0.868-1.736-0.868
			c-0.963,0-1.543,0.29-2.314,0.675c-0.77,0.385-0.096,0.771,0.483,0.674C214.593,101.815,215.75,101.719,216.33,101.719z"/>
		<path fill="#FFFFFF" d="M203.409,119.749c-0.753-0.167-3.085-2.217-4.437-4.146c-1.349-1.928-4.338-6.459-4.146-12.727
			c0.194-6.267,1.867-12.279,5.979-16.392c4.339-4.338,9.354-8.485,17.163-8.581c7.811-0.097,16.199,4.05,19.864,8.774
			c3.663,4.725,6.093,12.937,5.205,18.802c-1.253,8.292-6.571,13.517-9.159,15.717c-1.929,1.638-2.604,1.445-2.894-0.192
			c-0.289-1.641-0.578-3.954,0.58-5.689c1.156-1.736,2.121-3.664,2.314-5.207c0.193-1.544,2.508-1.158,2.508-3.279
			c0-2.121,0.964-5.11,0.482-7.328s-1.062-5.207-2.7-6.845c-1.64-1.64-4.822-3.182-6.75-4.341c-1.929-1.155-4.725-1.735-7.423-1.831
			c-2.702-0.097-4.918-0.097-6.462,0.868c-1.543,0.963-3.663,0.868-4.724,2.217c-1.06,1.35-2.701,2.025-3.086,3.279
			c-0.386,1.253-0.289,4.435-1.06,5.881c-0.771,1.447-0.385,2.989-0.385,5.207s0.097,4.146,0.867,5.883
			c0.77,1.735,1.735,3.277,1.735,5.398C206.879,117.339,206.879,120.52,203.409,119.749z"/>
	</g>
</g>
</svg>
