<?xml version="1.0" encoding="UTF-8" standalone="no"?>
<!-- Created with Inkscape (http://www.inkscape.org/) -->
<svg
   xmlns:svg="http://www.w3.org/2000/svg"
   xmlns="http://www.w3.org/2000/svg"
   version="1.0"
   width="422.168"
   height="467.716"
   viewBox="0 0 422.168 467.716"
   id="Ebene_1"
   xml:space="preserve"><defs
   id="defs34" />
<path
   d="M 187.58,307.05 C 231.824,307.05 267.911,343.136 267.911,387.382 C 267.911,431.627 231.824,467.716 187.58,467.716 C 143.333,467.716 107.244,431.627 107.244,387.382 C 107.244,343.136 143.333,307.05 187.58,307.05 L 187.58,307.05 z "
   style="fill:#ffffff;fill-rule:evenodd"
   id="path3" />
<path
   d="M 45.382,47.92 L 52.214,9.504 L 63.552,9.504 L 63.552,58.465 L 56.139,58.465 L 56.139,25.322 C 56.139,23.438 56.284,19.297 56.284,17.413 L 49.016,58.465 L 41.455,58.465 L 34.333,17.413 C 34.333,19.297 34.333,23.438 34.333,25.322 L 34.333,58.465 L 27.065,58.465 L 27.065,9.504 L 38.55,9.504 L 45.382,47.92 L 45.382,47.92 z M 87.497,51.12 C 93.747,51.12 97.818,44.907 97.818,33.984 C 97.818,22.874 93.747,16.66 87.497,16.66 C 81.246,16.66 77.321,22.874 77.321,33.984 C 77.321,44.907 81.245,51.12 87.497,51.12 L 87.497,51.12 z M 105.667,33.984 C 105.667,42.647 103.777,49.425 99.997,54.134 C 97.091,57.9 93.019,59.783 87.496,59.783 C 82.117,59.783 78.046,57.9 75.14,54.134 C 71.36,49.426 69.47,42.647 69.47,33.984 C 69.47,24.944 71.36,18.167 75.14,13.835 C 78.047,9.881 82.118,7.998 87.496,7.998 C 93.019,7.998 97.091,9.881 99.997,13.835 C 103.778,18.167 105.667,24.945 105.667,33.984 L 105.667,33.984 z M 111.597,58.465 L 111.597,9.504 L 119.883,9.504 L 134.856,43.776 L 134.856,9.504 L 142.271,9.504 L 142.271,58.465 L 134.275,58.465 L 118.866,23.628 L 118.866,58.465 L 111.597,58.465 L 111.597,58.465 z M 146.443,9.504 L 176.969,9.504 L 176.969,18.168 L 165.776,18.168 L 165.776,58.466 L 157.78,58.466 L 157.78,18.167 L 146.442,18.167 L 146.442,9.504 L 146.443,9.504 z M 202.918,25.134 C 202.918,20.05 200.738,17.979 196.959,17.979 L 189.69,17.979 L 189.69,32.479 L 196.959,32.479 C 200.739,32.479 202.918,30.218 202.918,25.134 L 202.918,25.134 z M 210.769,24.945 C 210.769,36.621 205.972,40.953 197.687,40.953 L 189.691,40.953 L 189.691,58.465 L 181.842,58.465 L 181.842,9.504 L 198.268,9.504 C 205.827,9.504 210.769,14.4 210.769,24.945 L 210.769,24.945 z M 244.61,9.504 L 244.61,18.168 L 224.546,18.168 L 224.546,28.524 L 242.864,28.524 L 242.864,36.998 L 224.546,36.998 L 224.546,49.615 L 245.482,49.615 L 245.482,58.465 L 216.844,58.465 L 216.844,9.504 L 244.61,9.504 L 244.61,9.504 z M 251.553,58.465 L 251.553,9.504 L 259.548,9.504 L 259.548,49.615 L 278.156,49.615 L 278.156,58.465 L 251.553,58.465 L 251.553,58.465 z M 283.608,58.465 L 283.608,9.504 L 291.604,9.504 L 291.604,49.615 L 310.212,49.615 L 310.212,58.465 L 283.608,58.465 L 283.608,58.465 z M 322.932,9.504 L 322.932,58.465 L 315.082,58.465 L 315.082,9.504 L 322.932,9.504 L 322.932,9.504 z M 358.301,9.504 L 358.301,18.168 L 338.24,18.168 L 338.24,28.524 L 356.555,28.524 L 356.555,36.998 L 338.24,36.998 L 338.24,49.615 L 359.173,49.615 L 359.173,58.465 L 330.535,58.465 L 330.535,9.504 L 358.301,9.504 L 358.301,9.504 z M 382.4,17.979 L 373.243,17.979 L 373.243,31.16 L 382.11,31.16 C 383.999,31.16 385.307,30.972 386.179,30.408 C 387.778,29.466 388.506,27.582 388.506,24.946 C 388.506,21.935 387.777,19.863 386.179,18.921 C 385.307,18.355 384.143,17.979 382.4,17.979 L 382.4,17.979 z M 383.999,9.504 C 389.378,9.692 391.849,11.2 393.738,14.212 C 395.337,16.66 396.355,19.672 396.355,23.438 C 396.355,28.146 394.756,33.232 390.542,35.114 C 394.031,36.998 395.337,39.822 395.337,46.601 L 395.337,49.991 C 395.337,52.062 395.483,53.569 395.628,54.51 C 395.774,55.64 396.209,56.582 397.083,57.148 L 397.083,58.465 L 388.36,58.465 C 388.069,57.335 387.924,56.582 387.778,55.828 C 387.634,54.51 387.488,53.003 387.488,51.685 L 387.488,47.166 C 387.344,40.763 386.033,39.256 381.382,39.256 L 373.243,39.256 L 373.243,58.465 L 365.538,58.465 L 365.538,9.504 L 383.999,9.504 L 383.999,9.504 z "
   style="fill:#0f5b90;fill-rule:evenodd"
   id="path5" />
<path
   d="M 27.986,110.988 L 27.986,70.869 L 33.801,70.869 L 33.801,87.512 L 56.574,87.512 L 56.574,70.869 L 62.55,70.869 L 62.55,110.988 L 56.574,110.988 L 56.574,92.266 L 33.801,92.266 L 33.801,110.989 L 27.986,110.989 L 27.986,110.988 z M 89.04,110.988 L 89.04,70.869 L 120.857,70.869 L 120.857,75.772 L 94.854,75.772 L 94.854,87.957 L 118.919,87.957 L 118.919,92.563 L 94.854,92.563 L 94.854,106.232 L 121.342,106.232 L 121.342,110.988 L 89.04,110.988 L 89.04,110.988 z M 152.555,89.294 L 166.123,89.294 C 171.614,89.294 175.167,87.512 175.167,82.162 C 175.167,79.338 174.036,77.408 171.775,76.368 C 170.483,75.922 168.868,75.624 166.929,75.624 L 152.554,75.624 L 152.554,89.294 L 152.555,89.294 z M 146.58,110.988 L 146.58,70.869 L 166.769,70.869 C 169.998,70.869 172.744,71.314 175.006,72.205 C 179.044,73.989 181.144,77.11 181.144,81.715 C 181.144,86.471 178.882,89.443 175.006,91.225 C 178.398,92.563 180.013,94.197 180.174,98.803 L 180.498,104.152 C 180.498,105.787 180.659,106.828 180.82,107.57 C 181.144,108.908 181.789,109.652 182.758,110.096 L 182.758,110.988 L 175.49,110.988 C 175.167,110.245 174.844,109.652 174.683,106.53 L 174.358,99.843 C 174.198,97.168 173.228,95.386 171.291,94.495 C 170.161,94.048 168.383,93.75 165.96,93.75 L 152.555,93.75 L 152.555,110.987 L 146.58,110.987 L 146.58,110.988 z M 212.047,94.496 L 225.615,94.496 L 218.994,76.813 L 212.047,94.496 L 212.047,94.496 z M 199.612,110.988 L 215.925,70.869 L 222.546,70.869 L 238.373,110.988 L 231.914,110.988 L 227.553,98.952 L 210.271,98.952 L 205.587,110.988 L 199.612,110.988 L 199.612,110.988 z M 257.693,70.869 L 263.667,70.869 L 263.667,95.684 C 263.667,98.655 264.314,101.032 265.444,102.963 C 267.221,105.786 270.291,107.273 274.329,107.273 C 279.337,107.273 282.727,105.786 284.666,102.517 C 285.636,100.884 286.118,98.506 286.118,95.684 L 286.118,70.869 L 292.095,70.869 L 292.095,93.454 C 292.095,98.358 291.287,102.074 289.835,104.747 C 287.251,109.652 282.241,112.028 274.813,112.028 C 267.544,112.028 262.538,109.652 259.955,104.747 C 258.502,102.074 257.694,98.358 257.694,93.454 L 257.694,70.869 L 257.693,70.869 z M 318.098,110.988 L 318.098,70.869 L 323.913,70.869 L 323.913,106.232 L 346.039,106.232 L 346.039,110.988 L 318.098,110.988 L 318.098,110.988 z M 361.711,70.869 L 397.082,70.869 L 397.082,75.623 L 382.385,75.623 L 382.385,110.988 L 376.408,110.988 L 376.408,75.624 L 361.711,75.624 L 361.711,70.869 L 361.711,70.869 z "
   style="fill:#0f5b90;fill-rule:evenodd"
   id="path7" />
<polygon
   points="23.141,0 397.083,0 397.083,4.92 23.141,4.92 23.141,0 "
   style="fill:#0f5b90;fill-rule:evenodd"
   id="polygon9" />
<polygon
   points="23.141,62.866 397.083,62.866 397.083,67.788 23.141,67.788 23.141,62.866 "
   style="fill:#0f5b90;fill-rule:evenodd"
   id="polygon11" />
<polygon
   points="23.141,115.107 397.083,115.107 397.083,120.029 23.141,120.029 23.141,115.107 "
   style="fill:#0f5b90;fill-rule:evenodd"
   id="polygon13" />
<path
   d="M 246.641,333.023 C 259.836,347.346 267.914,366.451 267.914,387.381 C 267.914,431.629 231.828,467.715 187.584,467.715 C 143.337,467.715 107.249,431.629 107.249,387.381 C 107.249,371.172 112.098,356.063 120.41,343.416 L 95.674,289.113 L 84.881,406.778 L 105.125,406.778 L 106.899,456.766 L 0,456.766 L 4.585,406.778 L 28.757,406.778 L 51.089,163.305 L 21.257,163.305 L 23.634,137.383 L 150.726,137.383 L 198.152,303.094 L 273.489,137.383 L 393.321,137.383 L 397.003,167.008 L 368.416,167.008 L 400.483,406.778 L 415.872,406.778 L 422.169,456.766 L 266.147,456.766 L 270.229,406.778 L 286.394,406.778 L 269.815,282.805 L 246.641,333.023 L 246.641,333.023 z "
   style="fill:#0f5b90;fill-rule:evenodd"
   id="path15" />
<path
   d="M 187.576,323.517 C 204.076,323.517 217.532,332.042 217.532,342.496 C 217.532,344.335 217.117,346.112 216.341,347.794 C 217.7,346.534 219.263,345.592 221.009,345.023 C 230.952,341.794 243.218,351.957 248.316,367.646 C 253.417,383.339 249.466,398.771 239.523,402.001 C 237.777,402.567 235.956,402.721 234.117,402.503 C 235.734,403.409 237.115,404.603 238.197,406.087 C 244.34,414.544 238.463,429.352 225.119,439.049 C 211.771,448.749 195.874,449.759 189.729,441.302 C 188.648,439.816 187.942,438.131 187.581,436.315 C 187.218,438.131 186.51,439.816 185.431,441.302 C 179.286,449.759 163.389,448.746 150.043,439.052 C 136.693,429.355 130.819,414.547 136.963,406.087 C 138.042,404.603 139.425,403.409 141.042,402.503 C 139.203,402.721 137.382,402.569 135.635,402.001 C 125.692,398.771 121.742,383.339 126.84,367.647 C 131.939,351.956 144.206,341.793 154.149,345.022 C 155.896,345.591 157.456,346.536 158.817,347.793 C 158.043,346.111 157.626,344.334 157.626,342.495 C 157.624,332.042 171.081,323.517 187.576,323.517 L 187.576,323.517 z "
   style="fill:#ffffff;fill-rule:evenodd"
   id="path17" />
<path
   d="M 247.504,343.829 C 256.599,356.395 261.667,371.659 261.692,387.386 L 256.643,387.376 C 256.619,372.718 251.895,358.495 243.418,346.783 L 247.504,343.829 L 247.504,343.829 z "
   style="fill:#ffffff;fill-rule:evenodd;stroke:#046697;stroke-width:0.60039997;stroke-miterlimit:2.61310005"
   id="path19" />
<path
   d="M 247.517,430.919 C 238.376,443.45 225.427,452.987 210.476,457.872 L 208.927,453.065 C 222.859,448.514 234.926,439.625 243.445,427.945 L 247.517,430.919 L 247.517,430.919 z "
   style="fill:#ffffff;fill-rule:evenodd;stroke:#046697;stroke-width:0.60039997;stroke-miterlimit:2.61310005"
   id="path21" />
<path
   d="M 164.694,457.843 C 149.951,453.021 136.88,443.654 127.614,430.941 L 131.707,427.985 C 140.342,439.828 152.523,448.558 166.265,453.05 L 164.694,457.843 L 164.694,457.843 z "
   style="fill:#ffffff;fill-rule:evenodd;stroke:#046697;stroke-width:0.60039997;stroke-miterlimit:2.61310005"
   id="path23" />
<path
   d="M 113.495,387.392 C 113.524,371.881 118.396,356.554 127.621,343.815 L 131.698,346.794 C 123.103,358.664 118.563,372.949 118.538,387.404 L 113.495,387.392 L 113.495,387.392 z "
   style="fill:#ffffff;fill-rule:evenodd;stroke:#046697;stroke-width:0.60039997;stroke-miterlimit:2.61310005"
   id="path25" />
<path
   d="M 164.676,316.93 C 179.436,312.164 195.519,312.06 210.486,316.896 L 208.914,321.696 C 194.968,317.189 179.978,317.287 166.224,321.728 L 164.676,316.93 L 164.676,316.93 z "
   style="fill:#ffffff;fill-rule:evenodd;stroke:#046697;stroke-width:0.60039997;stroke-miterlimit:2.61310005"
   id="path27" />
<path
   d="M 218.342,398.759 C 218.298,404.137 210.984,408.785 200.488,410.919 C 193.95,411.534 188.65,416.689 187.579,423.292 C 186.507,416.69 181.207,411.536 174.67,410.919 C 164.173,408.785 156.857,404.137 156.813,398.759 L 218.342,398.759 L 218.342,398.759 z "
   style="fill:#0f5b90;fill-rule:evenodd"
   id="path29" />
<path
   d="M 149.655,381.562 L 150.153,382.819 L 150.707,383.966 L 151.314,385.009 L 151.971,385.948 L 152.675,386.79 L 153.421,387.538 L 154.208,388.194 L 155.036,388.768 L 155.904,389.256 L 156.811,389.668 L 157.756,390.002 L 158.739,390.259 L 159.76,390.442 L 160.816,390.552 L 161.905,390.591 L 162.929,390.557 L 163.862,390.464 L 164.703,390.322 L 165.456,390.129 L 166.122,389.9 L 166.708,389.636 L 167.658,389.037 L 168.339,388.368 L 168.796,387.66 C 168.954,387.286 169.05,386.964 169.119,386.566 C 169.142,386.143 169.119,385.778 169.052,385.36 L 168.804,384.674 L 168.378,384.075 L 167.701,383.506 C 166.581,382.84 165.424,382.301 164.224,381.785 C 161.82,380.826 159.378,379.947 156.985,378.961 C 155.088,378.157 153.24,377.308 151.447,376.309 C 150.535,375.775 149.686,375.221 148.851,374.579 C 148.302,374.122 147.795,373.643 147.28,373.148 L 146.619,372.352 L 146.064,371.502 L 145.617,370.606 L 145.276,369.674 L 145.04,368.707 L 144.903,367.713 L 144.856,366.688 L 144.921,365.543 L 145.115,364.397 L 145.439,363.267 L 145.895,362.163 L 146.478,361.099 L 147.191,360.078 L 148.032,359.117 L 149,358.221 L 150.091,357.401 L 151.307,356.667 L 152.643,356.022 L 154.097,355.479 L 155.669,355.047 L 157.355,354.73 L 159.158,354.535 L 161.062,354.47 C 162.077,354.49 163.071,354.55 164.084,354.64 C 165.647,354.826 167.179,355.079 168.723,355.388 C 169.807,355.617 170.89,355.867 171.97,356.117 C 172.254,356.179 172.82,356.358 173.056,356.1 C 173.367,355.612 173.539,355.003 173.749,354.469 L 178.324,354.469 L 178.324,368.926 L 173.952,368.926 L 173.223,367.061 L 172.808,366.19 L 172.332,365.34 L 171.793,364.525 L 171.199,363.749 L 170.548,363.017 L 169.846,362.331 L 169.092,361.698 L 168.291,361.124 L 167.445,360.614 L 166.555,360.167 L 165.624,359.794 L 164.649,359.493 L 163.635,359.274 L 162.58,359.139 L 161.499,359.092 L 160.053,359.183 L 158.805,359.434 L 157.755,359.815 L 156.913,360.294 L 156.279,360.839 L 155.843,361.42 L 155.589,362.028 L 155.496,362.725 L 155.581,363.626 C 155.684,364.014 155.791,364.303 155.99,364.651 L 156.426,365.139 C 157.225,365.735 158.161,366.148 159.068,366.57 C 162.681,368.199 166.424,369.578 170.12,371.013 L 171.813,371.672 C 172.601,372.028 173.351,372.404 174.103,372.829 L 175.412,373.718 L 176.95,375.019 L 177.862,375.959 L 178.64,376.952 L 179.28,378.003 L 179.775,379.104 L 180.125,380.25 L 180.332,381.438 L 180.399,382.662 L 180.328,383.828 L 180.113,385.003 L 179.752,386.162 L 179.241,387.305 L 178.583,388.411 L 177.776,389.473 L 176.819,390.477 L 175.713,391.416 L 174.46,392.275 L 173.055,393.046 L 171.504,393.723 L 169.803,394.294 L 167.953,394.753 L 165.952,395.09 L 163.795,395.3 C 162.657,395.334 161.531,395.386 160.397,395.347 C 158.891,395.266 157.431,395.083 155.951,394.817 C 154.315,394.495 152.726,394.065 151.117,393.65 C 150.79,393.567 150.452,393.476 150.118,393.44 C 149.929,393.433 149.662,393.42 149.535,393.572 C 149.219,394.117 149.056,394.778 148.85,395.371 L 144.441,395.371 L 144.441,379.139 L 148.879,379.139 L 149.655,381.562 L 149.655,381.562 z M 210.996,354.903 C 212.17,355.028 213.325,355.184 214.493,355.377 C 216.466,355.748 218.403,356.197 220.347,356.7 C 221.014,356.874 221.683,357.061 222.359,357.203 C 222.674,357.174 222.845,357.12 223.127,356.974 L 223.576,356.576 C 223.98,356.027 224.195,355.422 224.467,354.795 L 228.798,354.795 L 228.798,370.219 L 224.615,370.219 L 222.972,367.641 C 222.398,366.828 221.81,366.039 221.185,365.261 C 220.623,364.612 220.054,363.987 219.447,363.376 C 218.885,362.9 218.316,362.455 217.717,362.023 C 217.131,361.637 216.549,361.286 215.93,360.949 C 215.325,360.658 214.73,360.402 214.098,360.168 C 213.462,359.965 212.842,359.802 212.191,359.662 C 211.512,359.553 210.86,359.476 210.176,359.431 L 209.491,359.418 L 207.936,359.486 L 206.546,359.694 L 205.298,360.021 L 204.18,360.468 L 203.18,361.027 L 202.285,361.701 L 201.484,362.49 L 200.769,363.4 L 200.136,364.435 L 199.588,365.597 L 199.124,366.886 L 198.746,368.297 L 198.454,369.83 L 198.246,371.474 L 198.124,373.229 L 198.09,375.773 C 198.135,377.248 198.264,378.671 198.526,380.121 C 198.709,380.998 198.931,381.826 199.231,382.673 C 199.614,383.65 200.081,384.587 200.606,385.502 L 201.516,386.74 L 202.022,387.279 L 202.562,387.767 L 203.138,388.206 L 203.753,388.597 L 204.408,388.947 L 205.109,389.25 L 205.851,389.509 L 207.483,389.89 L 209.314,390.082 C 210.06,390.1 210.793,390.104 211.541,390.078 C 212.754,390.007 213.917,389.86 215.109,389.621 C 216.079,389.389 216.997,389.113 217.927,388.762 C 218.928,388.35 219.867,387.881 220.805,387.341 C 222.143,386.508 223.401,385.606 224.659,384.665 L 226.397,383.33 L 231.036,386.213 C 229.546,387.439 228.064,388.659 226.526,389.824 C 225.6,390.485 224.675,391.11 223.709,391.711 C 222.454,392.422 221.167,393.083 219.845,393.664 C 219.08,393.967 218.324,394.242 217.54,394.496 C 216.468,394.807 215.415,395.059 214.321,395.266 C 213.201,395.444 212.103,395.571 210.973,395.649 L 209.263,395.698 C 207.957,395.678 206.679,395.62 205.38,395.522 L 202.908,395.206 L 200.533,394.729 L 198.259,394.092 L 196.09,393.293 L 194.033,392.331 L 192.091,391.208 L 190.203,389.922 L 189.259,389.19 L 188.379,388.422 L 187.562,387.619 L 186.809,386.779 L 186.123,385.902 L 185.5,384.994 L 184.943,384.05 L 184.455,383.071 L 184.033,382.065 L 183.679,381.026 L 183.388,379.956 L 183.166,378.86 L 183.007,377.737 L 182.913,376.585 L 182.88,375.405 L 182.913,374.259 L 183.006,373.13 L 183.163,372.026 L 183.382,370.948 L 183.662,369.895 L 184.007,368.868 L 184.411,367.866 L 184.878,366.892 L 185.404,365.945 L 185.99,365.027 L 186.635,364.135 L 187.337,363.274 L 188.095,362.439 L 189.774,360.86 L 190.72,360.09 L 192.681,358.816 L 194.702,357.735 L 196.809,356.824 L 199.005,356.087 L 201.284,355.516 L 203.651,355.113 L 206.104,354.875 L 208.649,354.797 L 210.996,354.903 L 210.996,354.903 z "
   style="fill:#0f5b90;fill-rule:evenodd"
   id="path31" />
</svg>