<?xml version="1.0" encoding="utf-8"?>
<!-- Generator: Adobe Illustrator 26.0.0, SVG Export Plug-In . SVG Version: 6.00 Build 0)  -->
<svg version="1.1" id="Capa_1" xmlns="http://www.w3.org/2000/svg" xmlns:xlink="http://www.w3.org/1999/xlink" x="0px" y="0px"
	 viewBox="0 0 523.3 523.3" style="enable-background:new 0 0 523.3 523.3;" xml:space="preserve">
<style type="text/css">
	.st0{fill:#F7C721;}
	.st1{fill:#26ABD3;}
	.st2{fill:#FFFFFF;}
	.st3{fill:#EB8B7C;}
</style>
<circle class="st0" cx="261.6" cy="261.6" r="260.3"/>
<path d="M2.6,261.6c0-142.8,116.2-259,259-259s259,116.2,259,259s-116.2,259-259,259S2.6,404.4,2.6,261.6z M0,261.6
	c0,144.3,117.4,261.6,261.6,261.6s261.6-117.4,261.6-261.6S405.9,0,261.6,0S0,117.4,0,261.6"/>
<ellipse transform="matrix(0.7071 -0.7071 0.7071 0.7071 -108.3703 261.6283)" class="st1" cx="261.6" cy="261.6" rx="248" ry="248"/>
<path d="M15,261.6C15,125.6,125.6,15,261.6,15c136,0,246.7,110.6,246.7,246.7c0,136-110.6,246.7-246.7,246.7
	C125.6,508.3,15,397.6,15,261.6z M12.3,261.6c0,137.5,111.8,249.3,249.3,249.3c137.5,0,249.3-111.8,249.3-249.3
	c0-137.5-111.8-249.3-249.3-249.3C124.2,12.3,12.3,124.2,12.3,261.6"/>
<ellipse transform="matrix(0.7071 -0.7071 0.7071 0.7071 -108.3701 261.6282)" class="st0" cx="261.6" cy="261.6" rx="178.5" ry="178.5"/>
<path d="M84.4,261.6c0-97.7,79.5-177.2,177.2-177.2s177.2,79.5,177.2,177.2s-79.5,177.2-177.2,177.2S84.4,359.4,84.4,261.6z
	 M81.8,261.6c0,99.2,80.7,179.9,179.9,179.9s179.9-80.7,179.9-179.9S360.8,81.8,261.6,81.8S81.8,162.5,81.8,261.6"/>
<circle class="st2" cx="261.6" cy="261.6" r="166.1"/>
<path d="M96.9,261.6c0-90.8,73.9-164.8,164.8-164.8s164.8,73.9,164.8,164.8s-73.9,164.8-164.8,164.8S96.9,352.5,96.9,261.6z
	 M94.2,261.6c0,92.3,75.1,167.4,167.4,167.4S429,353.9,429,261.6S353.9,94.2,261.6,94.2S94.2,169.3,94.2,261.6"/>
<polygon class="st0" points="103,431.4 89.9,415.8 103.6,394.1 79.8,403.8 66.8,388.2 97.5,362.4 105.7,372.1 82.2,391.8 112,379.6 
	119.3,388.4 102.2,415.6 125.6,395.9 133.8,405.6 "/>
<path d="M97.3,364.2c1.2,1.4,5.3,6.3,6.5,7.7c-1.8,1.5-22.4,18.8-22.4,18.8l1.3,2.2c0,0,27.2-11.1,28.8-11.8
	c0.9,1.1,5.2,6.2,6.1,7.3c-1,1.5-16.6,26.3-16.6,26.3l2,1.7c0,0,20.6-17.3,22.4-18.8c1.2,1.4,5.3,6.3,6.5,7.7
	c-1.8,1.5-26.9,22.6-28.7,24.1c-1.4-1.7-10.6-12.7-11.7-13.9c0.9-1.5,15.4-24.4,15.4-24.4s-25,10.2-26.7,10.9
	c-1-1.2-10.2-12.2-11.6-13.8C70.4,386.8,95.5,365.8,97.3,364.2z M96.7,361.4L64.9,388l14.5,17.3c0,0,15.5-6.3,20.9-8.5
	c-3.1,4.9-12,19.1-12,19.1l14.6,17.4l32.8-27.5l-9.8-11.7c0,0-11.2,9.4-18,15.1c4.9-7.7,13.1-20.8,13.1-20.8l-8.6-10.2
	c0,0-14.4,5.9-22.9,9.3c6.8-5.7,18-15.1,18-15.1l-9.8-11.7L96.7,361.4"/>
<path class="st0" d="M68.2,332.3l-11.4,10.4l15.4-0.2L68.2,332.3z M75,326l6.4,16.2l7.1-0.1l5.8,14.7l-44.2-2.6l-6.3-15.8l30.4-32.2
	l6,15.1L75,326"/>
<path d="M73.8,308.6c1.1,2.7,4.4,11,4.9,12.3c-1,0.9-5.3,4.8-5.3,4.8l7.1,17.9c0,0,5.8-0.1,7.1-0.1c0.5,1.3,3.7,9.2,4.7,11.9
	c-3.7-0.2-39.8-2.3-41.3-2.4c-0.5-1.3-5.1-12.9-5.7-14.3C46.5,337.6,71.3,311.3,73.8,308.6z M73.3,305.3l-31,32.8l6.9,17.4l47.1,2.7
	l-6.9-17.5c0,0-5.8,0.1-7.1,0.1c-0.6-1.4-5.2-13.1-5.8-14.5c1-0.9,5.3-4.8,5.3-4.8l-7.1-17.8L73.3,305.3"/>
<path d="M67.6,334.5c0.8,1.9,1.9,4.7,2.6,6.6c-2.2,0-6.5,0.1-10,0.2C62.8,338.9,66,336,67.6,334.5z M67.3,331.3l-14,12.7l20.8-0.3
	L68.7,330L67.3,331.3"/>
<polygon class="st0" points="33.2,302.2 32.2,287.8 53,267.3 30.8,268.9 29.8,254.4 69.8,251.5 70.8,266 50.1,286.4 72.2,284.8 
	73.2,299.3 "/>
<path d="M68.6,252.9c0.1,2.1,0.8,11.6,0.9,12.6c-0.8,0.8-22.8,22.4-22.8,22.4s22-1.6,24.3-1.8c0.1,2,0.7,9.9,0.9,11.9
	c-2.4,0.2-35.1,2.5-37.4,2.7c-0.1-2.1-0.8-11.5-0.9-12.5c0.8-0.8,22.9-22.5,22.9-22.5s-22.1,1.6-24.4,1.8c-0.1-2-0.7-9.9-0.9-11.9
	C33.5,255.4,66.2,253.1,68.6,252.9z M69.7,250.2l-41.3,3l1.2,17.1c0,0,14.9-1.1,19.9-1.4c-3.9,3.9-18.7,18.4-18.7,18.4l1.2,16.3
	l42.7-3.1l-1.2-17.1c0,0-14.8,1.1-19.8,1.4c3.9-3.8,18.6-18.3,18.6-18.3L71,250.1L69.7,250.2"/>
<path class="st0" d="M62.7,203.4l6.3-12.5c2.8,1.6,4.9,3.6,6.4,5.9c1.5,2.4,2.5,5.1,2.8,8.2c0.3,3.1,0,6.8-1,11.2
	c-1.2,5.3-2.9,9.5-4.9,12.6c-2,3.1-4.9,5.5-8.6,7.2c-3.7,1.7-7.9,2-12.8,0.9c-6.5-1.5-10.9-4.8-13.4-9.9c-2.5-5.1-2.8-11.6-0.9-19.5
	c1.4-6.2,3.6-10.8,6.4-13.8c2.8-3.1,6.5-5,11-5.7l-0.8,13.9c-1.3,0.2-2.3,0.5-2.9,0.9c-1.1,0.6-2.1,1.5-2.8,2.6
	c-0.8,1.1-1.3,2.4-1.7,3.9c-0.8,3.4-0.3,6.3,1.4,8.7c1.3,1.8,3.7,3.1,7.2,3.9c4.3,1,7.5,0.9,9.5-0.4c2-1.3,3.3-3.4,4-6.4
	c0.7-2.9,0.5-5.2-0.4-7C66.6,206.1,65,204.6,62.7,203.4z"/>
<path d="M51.2,235.5c-6.1-1.4-10.2-4.5-12.5-9.2c-1.3-2.7-2-5.9-2-9.5c0-2.8,0.4-5.8,1.1-9.1c1.4-5.9,3.4-10.4,6.1-13.2
	c2.2-2.4,5.2-4.1,8.6-4.9c-0.1,2.5-0.5,9.6-0.6,11.1c-0.9,0.2-1.7,0.5-2.3,0.8c-1.3,0.7-2.4,1.7-3.3,3c-0.9,1.2-1.5,2.7-1.9,4.4
	c-0.3,1.2-0.4,2.3-0.4,3.4c0,2.4,0.7,4.5,2.1,6.4c1.5,2,4.1,3.5,7.9,4.4c4.7,1.1,8.1,0.9,10.5-0.5c2.3-1.5,3.8-3.9,4.6-7.2
	c0.3-1.3,0.5-2.5,0.5-3.6c0-1.6-0.3-3.1-1-4.3c-0.9-1.7-2.4-3.1-4.4-4.3c0.8-1.5,4.1-8.1,5.1-10.1c2,1.3,3.7,2.9,4.8,4.7
	c1.4,2.2,2.3,4.8,2.6,7.6c0.1,0.7,0.1,1.5,0.1,2.3c0,2.4-0.4,5.3-1.1,8.4c-1.2,5.1-2.8,9.2-4.7,12.1c-1.9,2.9-4.6,5.1-8,6.7
	C59.8,236.3,55.8,236.6,51.2,235.5z M53.8,186.6c-4.8,0.8-8.7,2.8-11.7,6.1c-3,3.2-5.2,8.1-6.7,14.4c-1.9,8.1-1.6,15,1,20.3
	c2.6,5.5,7.4,9,14.2,10.7c5.1,1.2,9.7,0.9,13.6-1c3.9-1.8,6.9-4.4,9.1-7.6c2.1-3.2,3.8-7.6,5.1-13c1.1-4.5,1.4-8.4,1.1-11.6
	c-0.4-3.3-1.4-6.2-3-8.7c-1.6-2.5-4-4.7-6.9-6.4l-1.2-0.7l-7.5,14.8l1.1,0.6c2.1,1.1,3.5,2.5,4.3,4c0.8,1.5,0.9,3.5,0.3,6.1
	c-0.6,2.6-1.8,4.5-3.5,5.6c-1.7,1.1-4.5,1.1-8.5,0.2c-3.2-0.7-5.3-1.9-6.4-3.4c-1.5-2-1.9-4.5-1.2-7.6c0.3-1.3,0.8-2.5,1.5-3.5
	c0.7-1,1.5-1.7,2.4-2.2c0.4-0.2,1.1-0.5,2.5-0.7l1.1-0.2l0.9-16.6L53.8,186.6"/>
<polygon class="st0" points="50.9,164.8 58.8,151.5 70.9,158.7 79.5,144.2 67.4,137 75.3,123.6 109.8,144.1 101.9,157.4 88,149.2 
	79.4,163.7 93.3,171.9 85.4,185.3 "/>
<path d="M75.8,125.4c2,1.2,30.2,17.9,32.3,19.1c-1,1.7-5.6,9.4-6.6,11.1c-1.9-1.1-13.9-8.3-13.9-8.3l-9.9,16.7c0,0,12,7.1,13.9,8.3
	c-1,1.7-5.6,9.4-6.6,11.1c-2-1.2-30.2-17.9-32.3-19.1c1-1.7,5.6-9.4,6.6-11.1c1.9,1.1,12.1,7.2,12.1,7.2l9.9-16.7
	c0,0-10.3-6.1-12.1-7.2C70.2,134.8,74.7,127.1,75.8,125.4z M74.2,123l-8.6,14.5c0,0,10.3,6.1,12.1,7.2c-1,1.8-6.2,10.5-7.3,12.2
	c-1.9-1.1-12.1-7.2-12.1-7.2l-9.3,15.6l36.8,21.8l9.3-15.6c0,0-12-7.1-13.9-8.3c1-1.8,6.2-10.5,7.3-12.2c1.9,1.1,13.9,8.3,13.9,8.3
	l9.3-15.6l-36.8-21.8L74.2,123"/>
<polygon class="st0" points="90.7,105.5 121.2,77.4 127,83.7 107.9,101.2 112.2,105.9 129.9,89.6 135.5,95.6 117.8,111.9 
	123.2,117.8 142.8,99.7 148.9,106.4 117.9,135 "/>
<path d="M121.1,79.2c1,1.1,3,3.2,4,4.3c-1.7,1.6-19.1,17.6-19.1,17.6l6.1,6.6c0,0,16-14.7,17.7-16.3c1,1.1,2.8,3,3.8,4.1
	c-1.7,1.6-17.7,16.3-17.7,16.3l7.2,7.8c0,0,17.9-16.5,19.6-18.1c1.1,1.2,3.3,3.6,4.4,4.7c-1.8,1.6-27.4,25.2-29.1,26.8
	c-1.6-1.7-23.8-25.8-25.4-27.6C94.3,104,119.4,80.9,121.1,79.2z M120.3,76.4l-31.4,29l29,31.4l33-30.4l-7.9-8.6
	c0,0-17.9,16.5-19.6,18.1c-1-1.1-2.6-2.9-3.6-3.9c1.7-1.6,17.7-16.3,17.7-16.3l-7.3-8c0,0-16,14.7-17.7,16.3
	c-0.8-0.9-1.7-1.8-2.5-2.7c1.7-1.6,19.1-17.6,19.1-17.6l-7.6-8.2L120.3,76.4"/>
<path class="st0" d="M149.1,90.1l12.8-7.4c1.2,1.6,2.4,2.6,3.7,3c2.2,0.7,4.5,0.4,7.2-0.9c2-1,3.3-2.1,4-3.4
	c0.7-1.3,0.8-2.4,0.3-3.4c-0.5-0.9-1.4-1.5-2.8-1.7c-1.4-0.2-4.1,0.3-8.1,1.5c-6.6,2-11.7,2.8-15.2,2.3c-3.5-0.5-6-2.1-7.4-4.9
	c-0.9-1.8-1.2-3.9-0.7-6.2c0.5-2.3,1.8-4.6,4-6.9c2.2-2.3,5.6-4.6,10.3-7c5.7-2.9,10.5-4.3,14.4-4.1c3.9,0.2,7,1.9,9.5,5.3
	l-12.6,7.2c-1.2-1.4-2.5-2.2-4-2.4c-1.5-0.2-3.2,0.3-5.2,1.3c-1.6,0.8-2.7,1.7-3.2,2.7c-0.5,1-0.6,1.8-0.2,2.6
	c0.3,0.6,0.9,0.9,1.8,1c0.9,0.1,2.7-0.2,5.3-1.1c6.6-2,11.4-3.2,14.6-3.5c3.2-0.3,5.7,0.1,7.7,1c2,1,3.5,2.4,4.5,4.4
	c1.2,2.3,1.5,4.8,0.9,7.6c-0.6,2.7-2.1,5.3-4.4,7.8c-2.3,2.5-5.7,4.8-10,7c-7.6,3.9-13.4,5.4-17.6,4.6
	C154.5,95.6,151.3,93.5,149.1,90.1z"/>
<path d="M157.8,67.4c-0.2,0-0.7-0.1-0.8-0.3c-0.1-0.3-0.2-0.6,0.2-1.4c0.4-0.7,1.3-1.5,2.7-2.2c1.7-0.9,3.2-1.3,4.4-1.1
	c1.1,0.1,2.2,0.7,3.1,1.9c0,0,0.2,0.3,0.4,0.5c-1.6,0.4-3.4,0.9-5.3,1.6C159.2,67.4,158.1,67.4,157.8,67.4z M151.1,78.8
	c-3.1-0.4-5.2-1.8-6.4-4.2c-0.8-1.6-1-3.3-0.5-5.3c0.4-2.1,1.7-4.2,3.7-6.3c2.1-2.2,5.4-4.5,9.9-6.8c5.5-2.8,10.1-4.1,13.7-4
	c3,0.1,5.4,1.4,7.5,3.7c-2,1.2-9.2,5.3-10.5,6c-1.2-1.1-2.5-1.9-4-2.1c-1.7-0.2-3.7,0.3-5.9,1.4c-1.9,1-3.1,2-3.8,3.2
	c-1,1.7-0.7,3-0.2,3.9c0.3,0.7,1.1,1.5,2.8,1.7c0.7,0.1,2.1,0.1,5.9-1.1c6.4-2,11.3-3.2,14.3-3.4c2.9-0.2,5.3,0.1,7,0.9
	c1.7,0.8,3,2.1,3.9,3.8c1,2,1.3,4.2,0.7,6.7c-0.5,2.5-1.9,4.9-4.1,7.2c-2.2,2.3-5.5,4.6-9.6,6.7c-7.3,3.7-12.9,5.2-16.7,4.5
	c-3.3-0.7-5.8-2.2-7.8-4.7c2-1.1,9.2-5.3,10.6-6.1c1.1,1.2,2.3,2.2,3.5,2.6c2.5,0.8,5.2,0.5,8.2-1c2.2-1.1,3.7-2.5,4.5-4
	c0.9-1.7,1-3.2,0.3-4.6c-0.7-1.3-1.9-2.1-3.7-2.4c-1.6-0.3-4.4,0.2-8.7,1.6C159.4,78.5,154.4,79.2,151.1,78.8 M156.6,53.9
	c-4.8,2.4-8.3,4.9-10.6,7.3c-2.4,2.5-3.8,5-4.4,7.5c-0.6,2.6-0.3,5,0.8,7.1c1.6,3.2,4.5,5.1,8.4,5.6c3.7,0.5,8.9-0.2,15.7-2.3
	c5-1.5,6.9-1.6,7.5-1.5c1.4,0.2,1.7,0.8,1.8,1c0.1,0.2,0.4,0.9-0.3,2.2c-0.6,1-1.7,2-3.4,2.9c-2.3,1.2-4.3,1.5-6.2,0.9
	c-1.1-0.4-2.1-1.2-3.1-2.5l-0.7-0.9l-15,8.7l0.8,1.2c2.4,3.7,5.9,6,10.3,6.9c4.5,0.9,10.5-0.6,18.4-4.7c4.4-2.3,7.9-4.7,10.3-7.3
	c2.5-2.6,4.1-5.4,4.7-8.4c0.7-3,0.3-5.9-1-8.4c-1.1-2.2-2.8-3.9-5.1-5c-2.2-1.1-5-1.5-8.4-1.2c-2,0.2-4.7,0.7-8,1.6
	c0.6-0.4,13.6-7.8,13.6-7.8l-0.9-1.2c-2.7-3.7-6.2-5.7-10.5-5.9C167.5,49.4,162.5,50.9,156.6,53.9"/>
<polygon class="st0" points="193.9,39.6 240,30.4 241.9,40.2 226.5,43.3 232.4,72.9 217.1,75.9 211.2,46.3 195.8,49.4 "/>
<path d="M239,32c0.3,1.6,1.1,5.5,1.4,7.2c-2.2,0.4-15.4,3.1-15.4,3.1s5.4,27.3,5.9,29.6c-2,0.4-10.7,2.1-12.7,2.5
	c-0.5-2.4-5.9-29.6-5.9-29.6s-13.3,2.6-15.4,3.1c-0.3-1.6-1.1-5.5-1.4-7.2C197.8,40.2,236.6,32.5,239,32z M239.7,29.2l-47.4,9.4
	l2.4,12.3c0,0,13.3-2.6,15.4-3.1c0.5,2.4,5.9,29.6,5.9,29.6l17.8-3.5c0,0-5.4-27.3-5.9-29.6c2.2-0.4,15.4-3.1,15.4-3.1L241,28.9
	L239.7,29.2"/>
<polygon class="st0" points="260.1,29.7 301.4,33 300.7,41.5 274.9,39.5 274.4,45.8 298.4,47.7 297.7,55.9 273.8,54 273.1,61.9 
	299.7,64 299,73.1 256.9,69.7 "/>
<path d="M261.3,31.1c2.4,0.2,36.3,2.9,38.7,3.1c-0.1,1.5-0.3,4.4-0.5,5.9c-2.4-0.2-25.8-2-25.8-2L273,47c0,0,21.6,1.7,24,1.9
	c-0.1,1.5-0.3,4.1-0.4,5.6c-2.3-0.2-24-1.9-24-1.9l-0.8,10.6c0,0,24.2,1.9,26.6,2.1c-0.1,1.6-0.4,4.8-0.5,6.4
	c-2.4-0.2-37.1-2.9-39.5-3.1C258.5,66.2,261.1,33.5,261.3,31.1z M258.8,29.6L255.5,71l44.7,3.5l0.9-11.7c0,0-24.2-1.9-26.6-2.1
	c0.1-1.5,0.3-3.9,0.4-5.3c2.3,0.2,24,1.9,24,1.9l0.9-10.8c0,0-21.6-1.7-24-1.9c0.1-1.2,0.2-2.5,0.3-3.7c2.4,0.2,25.8,2,25.8,2
	l0.9-11.1l-43.9-3.5L258.8,29.6"/>
<path class="st0" d="M332.3,58.7l6.1,2.3c0.7,0.3,2,0.6,4,0.9c1,0.2,1.9,0.1,2.8-0.3c0.8-0.4,1.4-1,1.7-1.8c0.5-1.2,0.3-2.3-0.4-3.4
	c-0.7-1-2.4-2-5-3l-6.4-2.4L332.3,58.7z M309.2,75.4l14.3-37.5l24.1,9.2c4.5,1.7,7.8,3.3,9.9,4.8c2.1,1.5,3.6,3.4,4.4,5.6
	c0.8,2.2,0.8,4.5-0.2,6.9c-0.8,2.1-2,3.7-3.7,4.7c-1.7,1.1-3.7,1.7-6,1.9c-1.5,0.1-3.4,0-5.7-0.5c1.5,1.1,2.6,2.1,3.2,2.8
	c0.4,0.5,0.9,1.5,1.5,2.9c0.6,1.4,1,2.4,1.1,3.1l2.9,13.5l-16.3-6.2l-3.3-14.4c-0.4-1.9-0.9-3.2-1.5-3.9c-0.8-1-1.9-1.7-3.2-2.2
	l-1.3-0.5l-5.8,15.2L309.2,75.4"/>
<path d="M324.3,39.6c2.2,0.8,22.9,8.7,22.9,8.7c4.3,1.7,7.6,3.2,9.6,4.7c1.9,1.4,3.2,3,3.9,5c0.3,0.9,0.5,1.8,0.5,2.7
	c0,1.1-0.2,2.1-0.6,3.2c-0.7,1.8-1.7,3.2-3.2,4.1c-1.5,1-3.3,1.5-5.4,1.7c-1.3,0.1-3.1,0-5.3-0.4l-1,2.4c1.4,1,2.4,1.9,3,2.6
	c0.2,0.3,0.7,1,1.4,2.6c0.7,1.6,1,2.4,1,2.8c0,0,1.7,8,2.4,11.2c-3.2-1.2-12.4-4.7-13.4-5.1c-0.3-1.2-3.2-13.7-3.2-13.7
	c-0.5-2.1-1-3.5-1.8-4.4c-1-1.2-2.2-2-3.8-2.6l-2.5-1c0,0-5,13.2-5.8,15.2c-1.9-0.7-10.2-3.9-12.1-4.6
	C311.8,72.4,323.5,41.8,324.3,39.6z M322.3,37.4l-14.8,38.7l17,6.5c0,0,5-13.2,5.8-15.2c0,0,0,0,0,0c1.1,0.4,2,1,2.7,1.8
	c0.3,0.4,0.8,1.3,1.2,3.3l3.5,15.1l19.3,7.4l-3.4-15.9c-0.1-0.8-0.5-1.9-1.2-3.4c-0.7-1.5-1.2-2.5-1.7-3.2c-0.1-0.1-0.2-0.1-0.2-0.2
	c0.6,0,1.2,0,1.7,0c2.5-0.2,4.7-0.9,6.6-2.1c1.9-1.2,3.3-3,4.2-5.4c1-2.7,1.1-5.3,0.2-7.8c-0.9-2.5-2.5-4.5-4.9-6.2
	c-2.2-1.6-5.6-3.3-10.2-5l-25.3-9.7L322.3,37.4"/>
<path d="M336,52.7c1.6,0.6,5.1,2,5.1,2c3.1,1.2,4.1,2.1,4.4,2.6c0.3,0.4,0.4,0.8,0.4,1.2c0,0.3-0.1,0.6-0.2,0.9
	c-0.2,0.5-0.5,0.9-1.1,1.1c-0.6,0.3-1.2,0.3-2,0.2c-2.4-0.5-3.4-0.7-3.8-0.9c0,0-3.3-1.3-4.9-1.9C334.5,56.5,335.4,54.1,336,52.7z
	 M334,50.5l-3.4,8.9l7.3,2.8c0.7,0.3,2.1,0.6,4.3,1c1.3,0.3,2.5,0.1,3.6-0.4c1.2-0.6,2-1.4,2.4-2.6c0.6-1.6,0.4-3.2-0.5-4.6
	c-0.9-1.2-2.7-2.4-5.6-3.5l-7.6-2.9L334,50.5"/>
<path class="st0" d="M418,125l7.1,12c-2.8,1.5-5.6,2.2-8.5,2.2c-2.8,0-5.6-0.6-8.4-2c-2.8-1.4-5.7-3.6-8.9-6.9
	c-3.8-3.9-6.5-7.5-8-10.9c-1.5-3.4-2-7-1.5-11.1c0.5-4,2.6-7.8,6.1-11.2c4.7-4.6,9.9-6.6,15.6-5.9c5.6,0.7,11.3,3.9,16.9,9.7
	c4.4,4.5,7.2,8.8,8.2,12.8c1.1,4,0.7,8.1-1.1,12.3l-11.3-8.1c0.5-1.2,0.8-2.2,0.8-2.9c0.1-1.3-0.2-2.5-0.7-3.8
	c-0.5-1.3-1.3-2.4-2.4-3.5c-2.5-2.5-5.2-3.7-8.1-3.4c-2.2,0.2-4.6,1.5-7.1,4c-3.2,3.1-4.8,5.8-4.8,8.2c0,2.4,1.1,4.6,3.2,6.8
	c2.1,2.1,4.1,3.3,6.1,3.4C413.6,126.8,415.7,126.3,418,125z"/>
<path d="M408.8,136.1c-2.6-1.3-5.5-3.5-8.5-6.6c-3.7-3.8-6.3-7.3-7.7-10.5c-1.4-3.1-1.9-6.6-1.4-10.4c0.5-3.7,2.4-7.2,5.7-10.5
	c4.5-4.4,9.2-6.2,14.5-5.6c5.3,0.6,10.7,3.8,16.1,9.3c4.2,4.3,6.9,8.5,7.9,12.2c0.4,1.4,0.5,2.8,0.5,4.2c0,1.9-0.4,3.8-1.1,5.7
	c-2-1.5-7.8-5.6-9-6.5c0.3-0.9,0.5-1.7,0.6-2.4c0-0.2,0-0.3,0-0.5c0-1.3-0.3-2.6-0.8-3.9c-0.6-1.4-1.5-2.7-2.7-4
	c-2.7-2.8-5.8-4.1-9.1-3.8c-2.5,0.2-5.1,1.6-7.9,4.4c-3.5,3.4-5.2,6.4-5.2,9.1c0,2.7,1.2,5.3,3.6,7.7c2.3,2.3,4.6,3.6,7,3.8
	c1.9,0.2,3.9-0.4,6-1.3c0.9,1.5,4.6,7.8,5.8,9.7c-2.2,1-4.4,1.6-6.6,1.6C414,137.9,411.4,137.3,408.8,136.1z M395.2,96.2
	c-3.8,3.7-5.9,7.7-6.5,12c-0.6,4.3,0,8.2,1.6,11.8c1.6,3.5,4.3,7.3,8.2,11.3c3.2,3.3,6.3,5.7,9.2,7.1c2.9,1.4,6,2.2,9,2.1
	c3,0,6.1-0.8,9.1-2.4l1.2-0.6l-8.5-14.3l-1.1,0.6c-2,1.1-4,1.6-5.7,1.5c-1.7-0.1-3.5-1.2-5.3-3c-1.9-2-2.8-3.9-2.8-5.9
	c0-2,1.5-4.4,4.4-7.2c2.3-2.3,4.4-3.5,6.3-3.6c2.5-0.2,4.8,0.8,7,3c1,1,1.7,2,2.1,3.1c0.4,1.1,0.6,2.2,0.6,3.2
	c0,0.4-0.2,1.2-0.7,2.5l-0.4,1l13.5,9.7l0.6-1.5c1.9-4.5,2.3-8.9,1.2-13.2c-1.1-4.2-4-8.7-8.6-13.4c-5.8-6-11.8-9.4-17.7-10.1
	C405.8,89.2,400.2,91.3,395.2,96.2"/>
<rect x="421.8" y="144" transform="matrix(0.8525 -0.5227 0.5227 0.8525 -14.1607 253.3418)" class="st0" width="40.1" height="15.5"/>
<path d="M454.5,136.5c1,1.7,5.7,9.3,6.7,11c-2,1.2-30,18.4-32,19.6c-1-1.7-5.7-9.3-6.7-11C424.5,154.8,452.5,137.7,454.5,136.5z
	 M454.2,133.5l-35.3,21.7l9.5,15.5l36.5-22.4l-9.5-15.5L454.2,133.5"/>
<polygon class="st0" points="472.8,164.4 488.1,208.9 478.7,212.1 473.5,197.2 445,207 439.9,192.4 468.5,182.5 463.3,167.6 "/>
<path d="M471.9,166.1c0.8,2.3,13.7,39.7,14.5,42c-1.6,0.5-5.3,1.8-6.9,2.4c-0.7-2.1-5.1-14.9-5.1-14.9s-26.3,9-28.5,9.8
	c-0.6-1.9-3.6-10.3-4.2-12.2c2.3-0.8,28.5-9.8,28.5-9.8s-4.4-12.8-5.1-14.9C466.6,167.9,470.4,166.6,471.9,166.1z M472.3,163.2
	l-10.7,3.7c0,0,4.4,12.8,5.1,14.9c-2.3,0.8-28.5,9.8-28.5,9.8l5.9,17.2c0,0,26.3-9,28.5-9.8c0.7,2.1,5.1,14.9,5.1,14.9l11.9-4.1
	l-16.2-46.9L472.3,163.2"/>
<polygon class="st0" points="491.5,224 492.3,241.2 479.3,251.9 493.2,261.4 493.9,278.5 469.8,260.1 453,260.8 452.3,245.3 
	469.1,244.6 "/>
<path d="M469.1,245.9l0.5,0c0,0,17.3-15.8,20.7-18.9c0.2,3.7,0.6,12.7,0.6,13.7c-0.9,0.8-13.9,11.4-13.9,11.4s13.8,9.4,14.8,10.1
	c0,1,0.4,9.9,0.6,13.6c-3.7-2.8-22.3-17-22.3-17s-13.7,0.6-16,0.7c-0.1-2-0.5-10.9-0.6-12.9C455.9,246.5,469.1,245.9,469.1,245.9z
	 M490.6,223.1c0,0-21.4,19.6-22.1,20.2c-0.9,0-17.6,0.8-17.6,0.8l0.8,18.1c0,0,16.7-0.8,17.6-0.8c0.7,0.6,26,19.8,26,19.8l-0.9-20.5
	c0,0-10.7-7.3-13-8.9c2.2-1.8,12.2-10,12.2-10l-0.9-20.6L490.6,223.1"/>
<polygon class="st0" points="483.8,328.5 469.8,364.2 461.8,361 470.1,339.8 463.6,337.3 456.5,355.4 448.9,352.5 456,334.3 
	440.7,328.4 446.4,313.9 "/>
<path d="M447.1,315.6c2.2,0.9,32.7,12.8,34.9,13.7c-0.9,2.2-12.1,31-13,33.2c-1.4-0.6-4.2-1.6-5.6-2.2c0.8-2.2,8.3-21.2,8.3-21.2
	l-9-3.5c0,0-6.3,16-7.1,18.1c-1.4-0.5-3.7-1.5-5.1-2c0.8-2.1,7.1-18.1,7.1-18.1s-13.2-5.2-15.3-6
	C443.2,325.8,446.4,317.5,447.1,315.6z M445.2,313.4l-6.1,15.7c0,0,13.2,5.2,15.3,6c-0.8,2.1-7.1,18.1-7.1,18.1l10,3.9
	c0,0,6.3-16,7.1-18.1c1.2,0.5,2.8,1.1,4.1,1.6c-0.8,2.2-8.3,21.2-8.3,21.2l10.5,4.1l14.9-38.1l-39.8-15.6L445.2,313.4"/>
<rect x="425.3" y="352.9" transform="matrix(0.4953 -0.8687 0.8687 0.4953 -93.0728 556.8373)" class="st0" width="14.9" height="11.2"/>
<path d="M432,351.1c1.5,0.9,5.9,3.3,7.4,4.2c-1,1.7-5.1,8.9-6.1,10.6c-1.5-0.9-5.9-3.3-7.4-4.2C426.9,360,431.1,352.8,432,351.1z
	 M430.4,348.6l-8,14.1l12,6.8l8.7-15.2l-12-6.8L430.4,348.6"/>
<path class="st0" d="M408.1,408.7l-11.5,7.9c-1.6-2.7-2.6-5.5-2.8-8.3c-0.2-2.8,0.3-5.7,1.5-8.5c1.2-2.9,3.3-5.9,6.3-9.3
	c3.7-4,7.1-6.9,10.4-8.6c3.3-1.7,6.9-2.4,11-2.2c4,0.3,7.9,2.1,11.6,5.4c4.9,4.4,7.2,9.5,6.9,15.2c-0.3,5.7-3.2,11.5-8.6,17.5
	c-4.2,4.7-8.3,7.7-12.3,9c-3.9,1.3-8.1,1.2-12.4-0.3l7.4-11.8c1.2,0.5,2.2,0.7,3,0.7c1.3,0,2.5-0.3,3.7-0.9c1.2-0.6,2.3-1.5,3.4-2.6
	c2.4-2.6,3.3-5.4,2.9-8.3c-0.3-2.2-1.8-4.5-4.4-6.9c-3.3-3-6.1-4.4-8.5-4.2c-2.4,0.1-4.6,1.4-6.6,3.6c-2,2.2-3,4.3-3,6.3
	C406,404.4,406.7,406.5,408.1,408.7z"/>
<path d="M395.2,408.2c0-0.4,0-0.7,0-1.1c0-2.2,0.5-4.5,1.4-6.8c1.1-2.7,3.2-5.7,6-8.9c3.5-3.9,6.9-6.7,10-8.4c3-1.6,6.5-2.3,10.3-2
	c3.7,0.3,7.4,2,10.8,5.1c4.7,4.2,6.8,8.8,6.5,14.1c-0.3,5.3-3.1,10.9-8.3,16.7c-4.1,4.5-8,7.4-11.7,8.6c-3.1,1.1-6.5,1-9.9,0.1
	c1.3-2.1,5.1-8.2,5.9-9.4c0.9,0.3,1.7,0.4,2.4,0.4c1.5,0,2.9-0.4,4.3-1.1c1.4-0.7,2.6-1.6,3.8-2.9c2.6-2.9,3.7-6,3.2-9.3
	c-0.3-2.5-1.9-5-4.8-7.7c-3.6-3.3-6.7-4.7-9.4-4.6c-2.7,0.2-5.2,1.5-7.5,4.1c-2.2,2.4-3.3,4.9-3.4,7.2c0,0.1,0,0.1,0,0.2
	c0,1.9,0.7,3.8,1.7,5.7c-1.4,0.9-7.5,5.1-9.3,6.4C396.1,412.5,395.3,410.4,395.2,408.2z M411.4,380.7c-3.4,1.8-7,4.8-10.7,8.9
	c-3.1,3.4-5.3,6.7-6.5,9.7c-1.3,3-1.8,6.1-1.6,9.1c0.2,3,1.2,6,3,8.9l0.7,1.2l13.7-9.4l-0.7-1.1c-1.3-2-1.9-3.9-1.9-5.6
	c0-1.7,0.9-3.5,2.7-5.5c1.8-2,3.7-3.1,5.7-3.2c2-0.1,4.5,1.2,7.5,3.9c2.4,2.2,3.8,4.2,4,6.1c0.4,2.5-0.5,4.9-2.6,7.2
	c-0.9,1-1.9,1.8-3,2.3c-1.1,0.5-2.1,0.8-3.2,0.8c-0.4,0-1.2-0.1-2.5-0.6l-1-0.4l-8.8,14.1l1.5,0.5c4.6,1.6,9,1.7,13.2,0.3
	c4.1-1.4,8.5-4.5,12.8-9.4c5.6-6.2,8.6-12.4,8.9-18.3c0.3-6.1-2.1-11.5-7.3-16.2c-3.9-3.5-8.1-5.5-12.4-5.7
	C418.7,378.1,414.8,378.9,411.4,380.7"/>
<rect x="367.7" y="416.4" transform="matrix(0.8157 -0.5784 0.5784 0.8157 -174.9772 294.7572)" class="st0" width="14.9" height="11.2"/>
<path d="M377.7,415c1,1.4,3.9,5.5,4.9,7c-1.6,1.1-8.4,5.9-10,7.1c-1-1.4-3.9-5.5-4.9-7C369.3,420.9,376.1,416.1,377.7,415z
	 M377.2,412.1l-13.2,9.4l8,11.2l14.3-10.1l-8-11.2L377.2,412.1"/>
<circle class="st0" cx="261.9" cy="475.4" r="7.5"/>
<path d="M255.7,475.4c0-3.4,2.8-6.2,6.2-6.2s6.2,2.8,6.2,6.2s-2.8,6.2-6.2,6.2S255.7,478.8,255.7,475.4z M253.1,475.4
	c0,4.9,4,8.9,8.9,8.9s8.9-4,8.9-8.9s-4-8.9-8.9-8.9S253.1,470.5,253.1,475.4"/>
<path class="st0" d="M261.7,425.2c0,0,46.8-18.1,81.2-59.5c34.4-41.4,40.2-70,40.2-113.2c0-43.2,0-100.3,0-100.3s-32.1,1.8-67.7-7.6
	c-31.2-8.2-53.8-24.5-53.8-24.5s-22.5,16.3-53.7,24.5c-35.6,9.3-67.7,7.6-67.7,7.6s0,57.2,0,100.3c0,43.2,5.8,71.8,40.2,113.2
	C215,407.1,261.7,425.2,261.7,425.2z"/>
<path d="M208.3,145.9c28.1-7.4,49.3-21.4,53.4-24.2c4.1,2.8,25.4,16.8,53.5,24.2c31.4,8.2,60.3,7.9,66.7,7.7c0,2.6,0,99,0,99
	c0,43.5-6,71.4-39.9,112.3c-32.2,38.7-75.6,57.1-80.2,58.9c-4.5-1.9-48-20.2-80.1-58.9c-34-40.9-39.9-68.8-39.9-112.3
	c0,0,0-96.3,0-99C148,153.7,176.9,154.1,208.3,145.9z M260.9,119c-0.2,0.2-22.6,16.3-53.3,24.3c-35,9.2-66.9,7.6-67.3,7.5l-1.4-0.1
	v101.7c0,44.2,6.1,72.5,40.6,114c34.2,41.2,81.2,59.7,81.7,59.9l0.5,0.2l0.5-0.2c0.5-0.2,47.5-18.7,81.7-59.9
	c34.5-41.5,40.6-69.8,40.6-114V150.8l-1.4,0.1c-0.3,0-32.3,1.6-67.3-7.5c-30.6-8-53.2-24.1-53.4-24.3l-0.8-0.6L260.9,119"/>
<path class="st2" d="M261.6,130.4c0,0,13.8,12.8,55.2,23c33.9,8.4,58.6,7,58.6,7l0,101.3H148.1l0-101.3c0,0,24.7,1.4,58.6-7
	C248.2,143.2,261.6,130.4,261.6,130.4z"/>
<path class="st3" d="M266.7,414.3c0,0-0.6,0.4-1.9,1c-1.3,0.6-3,1.3-3,1.3s-23-10.1-42.4-24.9c-36-27.4-59.4-60.5-68-98
	c-4-17.3-3-24.1-3-24.1h1.6L266.7,414.3z"/>
<path d="M220.1,390.7c-36.3-27.6-59.1-60.4-67.5-97.3c-2.6-11.5-3.1-18.3-3.1-21.5c0-0.3,0-0.5,0-0.7
	c1.4,1.7,113.2,140.3,115.1,142.6c-0.2,0.1-0.4,0.2-0.4,0.2s-1.8,0.8-2.5,1.1C258.4,413.7,237.7,404.1,220.1,390.7z M149.9,268.3
	h-2.7l-0.2,1.1c0,0.3-1,7.3,3,24.6c8.6,37.5,31.7,70.8,68.5,98.8c19.3,14.7,42.4,24.9,42.7,25l0.5,0.2l3.6-1.5l3.5-1.9l-1.1-1.1
	L150.5,268.3H149.9"/>
<path class="st3" d="M316.1,382.2c0,0-3.1,2.8-10.5,8.3c-10.5,7.7-14.2,9.8-14.2,9.8L186.2,269.6h39.3L316.1,382.2z"/>
<path d="M224.8,270.9c0.8,1,87.9,109.3,89.4,111.2c-1.4,1.2-4.4,3.6-9.5,7.4c-7.5,5.5-11.5,8.1-13.1,9.1
	c-1.4-1.7-99.5-123.6-102.8-127.7C193.5,270.9,223.7,270.9,224.8,270.9z M225.5,268.3h-42L291.1,402l1-0.6c0.2-0.1,3.9-2.2,14.3-9.9
	c7.4-5.4,10.5-8.2,10.6-8.4l0.9-0.8l-91.8-114.1H225.5"/>
<path class="st3" d="M261.5,269.6h38.6l54.4,67.6c0,0-3.3,5.4-7.4,11.3c-5,7-10.9,13.9-10.9,13.9L261.5,269.6z"/>
<path d="M299.5,270.9c0.8,1,52.3,65,53.4,66.4c-1,1.7-3.7,5.9-6.9,10.5c-3.7,5.2-7.9,10.3-9.8,12.6c-1.9-2.4-68.8-85.5-72-89.5
	C268.8,270.9,298.4,270.9,299.5,270.9z M300.1,268.3h-41.4l77.4,96.2l1-1.2c0.1-0.1,6.1-7,11-14c4.1-5.8,7.4-11.3,7.5-11.4l0.5-0.8
	l-55.3-68.8H300.1"/>
<path class="st3" d="M336.2,269.6l31.4,38.9c0,0,3.3-7.8,5.7-20c1.9-9.7,2-18.8,2-18.8L336.2,269.6z"/>
<path d="M338.9,270.9c4.6,0,32.7,0.1,35,0.1c-0.1,2.8-0.5,9.9-1.9,17.3c-1.6,8.3-3.7,14.6-4.8,17.7
	C364.7,302.8,341.8,274.5,338.9,270.9z M335.1,270.4L368,311l0.8-2c0.1-0.3,3.4-8.1,5.8-20.3c1.9-9.7,2-18.7,2-19.1l0-1.3l-43.2-0.1
	L335.1,270.4"/>
<path d="M274.3,161.9l-7.4,66.5l1.7,0.2c0,0,5.4-48.2,6.6-59.5c1.5,11.2,8,59.3,8,59.3l1.7-0.2l-9-66.3L274.3,161.9z"/>
<path d="M219.9,231.2l1.7,0.3c0,0,8.4-46.3,10-55.1c1.3,8.8,8,54.6,8,54.6l1.7-0.3l-8.8-59.9l-1.7,0L219.9,231.2z"/>
<path class="st0" d="M189.6,231.7c0,0,4.1,3.2,6.4,6.1s4.7,6.1,4.7,6.1l130.4-2c0,0,1.8-4.7,3.8-8.8c2-4.1,4.7-7.3,4.7-7.3
	S227.2,231.7,189.6,231.7z"/>
<path d="M337.7,226.9c-1,1.3-2.4,3.4-3.6,5.9c-1.6,3.3-3.1,6.9-3.6,8.3c-1.2,0-128.5,2-129.3,2c-0.5-0.6-4.4-5.8-4.4-5.8
	c-1.4-1.7-3.3-3.5-4.7-4.7C228.5,232.4,323.4,227.6,337.7,226.9z M339.5,225c-1.1,0.1-112.7,5.8-149.9,5.8h-2.5l2,1.6
	c0,0,4,3.2,6.3,6l4.9,6.4l0.5,0l131-2.1l0.2-0.6c0,0,1.8-4.7,3.8-8.7c2-3.9,4.5-7.1,4.6-7.1l1.2-1.5L339.5,225"/>
<line class="st0" x1="304.2" y1="165.5" x2="304.2" y2="227.3"/>
<rect x="303.3" y="164" width="1.8" height="63.4"/>
<rect x="274.5" y="148" width="1.8" height="80.5"/>
<rect x="231" y="159.1" width="1.8" height="71.2"/>
<path d="M328.4,211.6l-0.7,0.1l-0.1,0.7c0,0.2-0.5,4,3.4,9c3.4,4.4,7.3,5.6,7.4,5.6l0.5-1.7c0,0-3.5-1.1-6.6-5
	c-2.5-3.2-2.9-5.7-3-6.9c1.3,0.1,4,0.6,6.2,3.4c3.1,3.9,3.3,8.4,3.3,8.5l1.7-0.1c0-0.2-0.3-5.1-3.7-9.5
	C333.4,211.3,328.6,211.6,328.4,211.6z"/>
<path d="M158.2,212.5c-0.1,0.4,0,0.8,0.4,1l31.1,19.2c0.4,0.3,1,0.1,1.2-0.3c0.1-0.1,0.1-0.3,0.1-0.5c0-0.3-0.1-0.6-0.4-0.7
	c0,0-23.8-14.8-28.3-17.6c3,0.1,6.9,0.1,6.9,0.1l8.9,0.2c0.5,0,0.9-0.4,0.9-0.9c0-0.5-0.3-0.9-0.8-0.9l-9-0.2l-10-0.2
	C158.7,211.9,158.3,212.1,158.2,212.5z"/>
<path class="st0" d="M336.4,177.3c-7.5,0.9-7.8,0.9-18.4,3.7c-10.7,2.8-14.2,4.8-14.2,4.8s-1.3,4.8-1.5,13.1
	c-0.3,10.1,0.3,20.6,1.5,19.7c2-1.4,6.3-3.7,11.8-5.5c6.8-2.2,12.8-0.7,12.8-0.7s-0.5-9.6,0.6-17.2
	C330.3,186.3,336.4,177.3,336.4,177.3z"/>
<path d="M303.6,217.8c-0.1,0.1-0.2,0.1-0.3,0.2C303.5,217.8,303.6,217.8,303.6,217.8z M318.3,181.9c9.6-2.5,10.7-2.8,16.4-3.5
	c-1.8,3-5.6,9.8-6.6,16.7c-0.6,4-0.7,8.4-0.7,11.8c0,1.9,0,3.5,0.1,4.5c-2.1-0.3-6.8-0.8-12.1,1c-4.9,1.6-9.1,3.6-11.4,5.2
	c-0.5-1.7-0.8-6.9-0.8-13.6c0-1.6,0-3.3,0.1-5c0.2-6.9,1.1-11.3,1.4-12.5C305.6,186,309.5,184.2,318.3,181.9 M336.3,176.5
	c-7.5,0.9-7.8,0.9-18.4,3.7c-10.7,2.8-14.3,4.8-14.4,4.9c-0.2,0.1-0.4,0.3-0.4,0.5c-0.1,0.2-1.3,5-1.6,13.3
	c-0.1,4.5-0.3,19.4,1.7,20.5c0.4,0.2,0.8,0.2,1.2-0.1c2.1-1.5,6.5-3.7,11.6-5.4c6.5-2.1,12.2-0.7,12.3-0.7c0.3,0.1,0.6,0,0.8-0.2
	c0.2-0.2,0.3-0.4,0.3-0.7c0-0.1-0.5-9.6,0.6-17c1.3-8.7,7.2-17.5,7.3-17.6c0.2-0.3,0.2-0.6,0-0.9S336.6,176.4,336.3,176.5"/>
<path class="st0" d="M304.3,166.2c0,0-1.1-0.4-3.1-0.2s-5.9,2.6-5.9,2.6s2.2,2.6,5,1.8c1.9-0.6,3.9,1.1,3.9,1.1V166.2z"/>
<path d="M301.3,166.8c1-0.1,1.6,0,2.1,0c0,0.7,0,1.8,0,3c-0.9-0.4-2.1-0.8-3.3-0.4c-1.4,0.4-2.6-0.2-3.3-0.8
	C298.2,168,300.2,166.9,301.3,166.8z M301.1,165.1c-2.1,0.2-5.8,2.5-6.3,2.7l-0.9,0.5l0.6,0.8c0.1,0.1,2.6,3.1,6,2
	c1.4-0.4,3.1,0.9,3.1,0.9l1.4,1.2l0-7.7l-0.6-0.2C304.5,165.3,303.3,164.8,301.1,165.1"/>
<path class="st0" d="M260.1,214.5c0,0-0.9,5-0.4,7.4s2.4,6.3,2.4,6.3s5-5.7,14.7-7.2s24.3,5.7,24.3,5.7s-2.6-7.1-3.9-12.5
	c-1.8-7.2-2.2-10.3-2.2-10.3s-6.7,3.9-19.2,7.2C264.9,214.1,260.1,214.5,260.1,214.5z"/>
<path d="M275.9,212.1c9.8-2.6,16-5.5,18.4-6.7c0.3,1.5,0.8,4.3,2,9.1c0.9,3.7,2.4,8.1,3.3,10.6c-4.3-1.9-15-6.1-22.9-4.9
	c-7.6,1.2-12.4,4.9-14.2,6.6c-0.6-1.3-1.5-3.5-1.8-5c-0.1-0.4-0.1-1-0.1-1.5c0-1.8,0.3-3.9,0.4-4.9
	C262.5,215.1,267.2,214.4,275.9,212.1z M294.4,203.3c-0.1,0-6.8,3.9-19,7.1c-10.5,2.8-15.3,3.3-15.4,3.3l-0.7,0.1l-0.1,0.7
	c0,0.2-0.9,5.2-0.4,7.7c0.5,2.5,2.4,6.4,2.5,6.6l0.6,1.2l0.9-1c0-0.1,5-5.5,14.1-6.9c9.2-1.5,23.6,5.5,23.8,5.6l2,1l-0.8-2.1
	c0-0.1-2.6-7.1-3.9-12.4c-1.7-7.1-2.2-10.2-2.2-10.2l-0.2-1.3L294.4,203.3"/>
<path class="st0" d="M261.2,194.6c0,0-1.5,3.9-1.8,8.1c-0.4,6.1,2,9.8,2,9.8s3.7-9.2,13.8-11.8s17.1,2.6,17.1,2.6s-2.2-5.7-1.5-11.4
	s2.6-10.3,2.6-10.3S271,190.9,261.2,194.6z"/>
<path d="M291.8,183.3c-0.6,1.9-1.6,5-2,8.6c-0.1,0.8-0.1,1.6-0.1,2.3c0,2.9,0.6,5.5,1,7.2c-2.9-1.5-8.5-3.5-15.8-1.6
	c-7.8,2-11.9,7.8-13.5,10.6c-0.5-1.3-1.2-3.5-1.2-6.4c0-0.5,0-0.9,0.1-1.4c0.2-3.4,1.3-6.6,1.6-7.5
	C270.1,192.2,286.4,185.5,291.8,183.3z M293,180.9c-0.2,0.1-22.4,9.2-32.1,12.9c-0.2,0.1-0.4,0.3-0.5,0.5c-0.1,0.2-1.5,4.1-1.8,8.3
	c-0.5,6.3,2,10.2,2.1,10.4c0.2,0.3,0.5,0.4,0.8,0.4s0.6-0.2,0.7-0.5c0-0.1,3.7-8.8,13.2-11.3c9.5-2.5,16.3,2.4,16.3,2.5
	c0.3,0.2,0.7,0.2,1.1,0s0.4-0.6,0.3-1c0-0.1-2.1-5.6-1.5-11c0.6-5.5,2.5-10,2.6-10c0.1-0.3,0.1-0.7-0.2-1S293.3,180.8,293,180.9"/>
<path class="st0" d="M285.9,162c0,0-6.8,3.1-12.7,5s-12.2,4.6-12.2,4.6s-1.5,4.8-1.1,8.8s2.4,8.8,2.4,8.8s5.5-5.9,12.5-7.9
	s13.8,1.3,13.8,1.3s-2.8-6.2-3.5-11.4C284.6,167.7,285.9,162,285.9,162z"/>
<path d="M273.5,167.9c4.2-1.4,8.9-3.4,11.2-4.4c-0.3,1.6-0.7,3.9-0.7,6.1c0,0.6,0,1.2,0.1,1.7c0.4,3.6,1.9,7.5,2.8,9.7
	c-2.6-0.9-7.3-2-12.4-0.6c-5.5,1.5-10,5.3-11.9,7.1c-0.6-1.7-1.6-4.7-1.9-7.3c-0.1-0.5-0.1-0.9-0.1-1.4c0-2.9,0.8-5.7,1-6.6
	C263.1,171.7,268.5,169.5,273.5,167.9z M285.6,161.2c-0.1,0-6.8,3.1-12.6,5c-5.9,2-12.2,4.6-12.3,4.6c-0.2,0.1-0.4,0.3-0.5,0.5
	c-0.1,0.2-1.6,5-1.1,9.1c0.4,4,2.4,8.8,2.5,9c0.1,0.3,0.4,0.5,0.7,0.5c0.3,0.1,0.6,0,0.8-0.3c0.1-0.1,5.4-5.8,12.1-7.6
	c6.6-1.9,13.1,1.2,13.2,1.3c0.3,0.2,0.7,0.1,1-0.2c0.3-0.3,0.3-0.7,0.2-1c0-0.1-2.8-6.1-3.4-11.1c-0.4-3.3,0.8-8.8,0.9-8.9
	c0.1-0.3,0-0.7-0.3-0.9C286.2,161.1,285.9,161.1,285.6,161.2"/>
<path class="st0" d="M275.2,149.5c0,0-2.6,1.1-8.3,1.1s-10.3,0.9-12.7,2s-7,1.1-7,1.1s1.5,2.8,4.6,3.3s6.6-0.9,9-0.7
	s5.9,1.1,9.4,0.4s5-0.7,5-0.7V149.5z"/>
<path d="M254.6,153.4c2-0.9,6.3-1.9,12.3-1.9c3.8,0,6.1-0.5,7.4-0.8c0,1.3,0,3.6,0,4.6c-0.8,0.1-2.2,0.2-4.3,0.6
	c-2.5,0.5-5.1,0.1-7.2-0.2l-2-0.3c-1.2-0.1-2.5,0.1-4,0.3c-1.7,0.3-3.4,0.5-5,0.3c-1.3-0.2-2.3-0.9-3-1.6
	C250.5,154.4,252.9,154.1,254.6,153.4z M274.9,148.7c0,0-2.6,1-8,1c-5.4,0-10.2,0.8-13,2c-2.2,1-6.6,1-6.6,1l-1.5,0l0.7,1.3
	c0.1,0.1,1.8,3.2,5.2,3.7c1.8,0.3,3.8-0.1,5.5-0.3c1.3-0.2,2.6-0.4,3.5-0.3l1.9,0.2c2.2,0.3,4.9,0.7,7.7,0.2
	c3.3-0.6,4.9-0.6,4.9-0.6l0.9,0l0-8.7L274.9,148.7"/>
<path class="st0" d="M231.9,160.7c0,0-2.8,1.1-5.7,1.1c-3.3,0-5.5,3.3-9.6,2.8s-7.4,1.5-7.4,1.5s2.9,3.1,6.3,3.1
	c4.2,0,6.9-1,11.6-1.3c3.9-0.2,4.8,0.7,4.8,0.7V160.7z"/>
<path d="M222.6,163.9c1.3-0.7,2.4-1.2,3.6-1.2c1.9,0,3.7-0.4,4.8-0.8c0,1.4,0,3.9,0,5.4c-0.8-0.2-2.1-0.4-4-0.3l-5.7,0.7
	c-1.9,0.3-3.7,0.6-5.8,0.6c-1.9,0-3.7-1.1-4.7-2c1.2-0.5,3.3-1.1,5.7-0.9C219,165.8,220.9,164.8,222.6,163.9z M231.6,159.9
	c0,0-2.7,1-5.4,1c-1.7,0-3.1,0.7-4.4,1.4c-1.6,0.8-3.1,1.6-5.1,1.4c-4.4-0.5-7.8,1.6-8,1.7l-0.9,0.6l0.8,0.8c0.1,0.1,3.2,3.3,7,3.3
	c2.3,0,4.1-0.3,6.1-0.6l5.6-0.7c3.3-0.2,4.2,0.4,4.2,0.4l1.4,1l0.1-1.7v-9.2L231.6,159.9"/>
<path class="st0" d="M244.8,185.2c0,0-7.7,3.7-15.3,5.7s-14.2,2.2-14.2,2.2s-2,7.7-1.5,11.8s2.4,9,2.4,9s4.8-7.7,13.6-9
	s16.2,2.6,16.2,2.6s-3.9-4.8-3.5-12.7S244.8,185.2,244.8,185.2z"/>
<path d="M229.7,191.7c5.1-1.3,10.3-3.4,13.1-4.7c-0.6,1.6-1.1,4-1.3,7.7c0,0.4,0,0.9,0,1.3c0,4.3,1.2,7.5,2.2,9.6
	c-3-1.1-8.2-2.5-14.2-1.6c-6.8,1-11.3,5.7-13.2,8c-0.6-1.7-1.5-4.6-1.8-7.2c0-0.4-0.1-0.8-0.1-1.3c0-3.4,1-8,1.4-9.6
	C217.8,193.8,223.3,193.4,229.7,191.7z M244.4,184.4c-0.1,0-7.7,3.7-15.1,5.6c-7.5,1.9-14,2.2-14,2.2c-0.4,0-0.7,0.3-0.8,0.7
	c-0.1,0.3-2,7.9-1.6,12.1c0.4,4.2,2.4,9,2.5,9.2c0.1,0.3,0.4,0.5,0.7,0.5c0.3,0,0.6-0.1,0.8-0.4c0-0.1,4.7-7.3,13-8.6
	c8.3-1.3,15.6,2.5,15.6,2.5c0.4,0.2,0.8,0.1,1.1-0.2c0.3-0.3,0.3-0.8,0-1.1c0,0-3.7-4.7-3.3-12.1c0.4-7.2,2.1-9,2.1-9
	c0.3-0.3,0.3-0.8,0.1-1.1C245.2,184.4,244.8,184.2,244.4,184.4"/>
<path class="st0" d="M245,209c0,0-6,2.2-16,3.9c-8.8,1.5-16,3.1-16,3.1s-1.5,4.5-1.5,8.1c0,4.2,2.2,7,2.2,7s7.2-6.8,16.2-7.2
	s18.6,5.7,18.6,5.7s-4.8-5.9-4.8-10.9C243.7,214.3,245,209,245,209z"/>
<path d="M229.2,213.8c7.2-1.3,12.3-2.7,14.6-3.5c-0.4,1.9-1,5.3-1,8.3c0,3,1.5,6.1,2.9,8.4c-3.6-1.8-9.8-4.3-15.8-4
	c-7.6,0.4-13.8,5-15.9,6.8c-0.6-1-1.5-3-1.5-5.7c0-2.8,1-6.3,1.3-7.3C214.7,216.6,229.2,213.8,229.2,213.8z M244.7,208.2
	c-0.1,0-6.1,2.2-15.8,3.9l-16,3.1c-0.3,0.1-0.5,0.3-0.6,0.6c-0.1,0.2-1.6,4.7-1.6,8.4c0,4.4,2.3,7.4,2.4,7.5
	c0.2,0.2,0.4,0.3,0.6,0.3c0.2,0,0.5-0.1,0.7-0.2c0.1-0.1,7.1-6.6,15.6-7c8.6-0.4,18,5.5,18.1,5.6c0.4,0.2,0.8,0.2,1.1-0.2
	c0.3-0.3,0.3-0.8,0-1.1c0-0.1-4.6-5.7-4.6-10.4c0-4.2,1.3-9.4,1.3-9.4c0.1-0.3,0-0.6-0.3-0.9C245.4,208.2,245,208.1,244.7,208.2"/>
<path class="st0" d="M231.7,171c0,0-15.5-2.4-32.2,11.2s-21.4,31.3-21.4,31.3s4.8-0.4,15.1,6.3s14.2,11.6,14.2,11.6
	s-4.4-17.5,1.8-34.1S231.7,171,231.7,171z"/>
<path d="M200.1,182.8c12.2-10,23.9-11.1,28.9-11.1c-4.7,3.2-15.8,11.9-20.7,25.2c-2.6,7-3.3,14.1-3.3,20c0,4.9,0.5,9,1,11.6
	c-2.1-2.1-6-5.4-12.3-9.6c-7.6-5-12.3-6.2-14.4-6.4C180.5,208.8,186.1,194.2,200.1,182.8z M178.1,212.5
	C178.1,212.5,178,212.5,178.1,212.5C178,212.5,178,212.5,178.1,212.5 M199,181.5c-16.7,13.6-21.7,31.5-21.7,31.7
	c-0.1,0.3,0,0.6,0.2,0.8c0.2,0.2,0.5,0.3,0.7,0.3c0,0,4.7-0.3,14.5,6.2c10,6.6,14,11.4,14,11.4c0.3,0.3,0.7,0.4,1.1,0.2
	c0.4-0.2,0.6-0.6,0.5-1c0-0.2-4.2-17.4,1.7-33.6c5.9-16.1,22-25.7,22.2-25.8c0.3-0.2,0.5-0.6,0.4-0.9c-0.1-0.4-0.4-0.6-0.7-0.7
	C231.1,170,215.7,167.8,199,181.5"/>
<path class="st0" d="M286,242L286,242z M275.6,238.9c-2,0.6-3.2,1.8-4.4,2.9c0,0-1.1,1-1.1,1c-2.6,1.8-5.2,0.2-6.5-1
	c-0.6-0.5-1.4-0.8-2.2-0.7c-0.8,0.1-1.5,0.6-2,1.3c-0.8,1.2-0.6,2.9,0.5,3.9c4.1,3.7,9.3,4.2,13.5,1.3l0.1-0.1l0.1-0.1l1.4-1.3
	c0.8-0.7,1.4-1.4,2-1.6c1.7-0.5,3.5,0.1,5.2,1.7c0.6,0.6,1.4,0.8,2.2,0.7c0.8-0.1,1.5-0.5,2-1.2c0.3-0.5,0.5-1.1,0.5-1.7
	c0-0.8-0.3-1.6-0.9-2.2C282.9,239,279.2,237.9,275.6,238.9"/>
<path class="st0" d="M209.4,238.8c-2.5,0.4-4.5,1.8-5.9,4l0.4-0.4c-2.1,1.7-5,1.5-7.2-0.5c-0.6-0.5-1.4-0.8-2.2-0.7
	c-0.8,0.1-1.5,0.5-2,1.2c-0.8,1.2-0.6,2.9,0.4,3.9c4.4,4,10.4,4.3,14.6,0.6c0,0,0.6-0.7,0.6-0.7c0.6-0.9,1.3-1.4,2.2-1.6
	c1.5-0.3,3.5,0.4,4.9,1.7c0.6,0.5,1.4,0.8,2.2,0.7c0.8-0.1,1.5-0.5,2-1.2c0.8-1.2,0.6-2.9-0.4-3.9v0
	C216.3,239.5,212.5,238.3,209.4,238.8z"/>
<path class="st0" d="M232.3,238.8c-2.6,0.3-4.8,1.7-6.4,4l0.3-0.4c-2,1.6-5.1,1.5-6.9-0.4c-0.6-0.6-1.4-0.9-2.2-0.8
	c-0.8,0.1-1.6,0.5-2,1.2c-0.9,1.2-0.7,2.9,0.3,3.9c3.9,3.9,10.3,4.2,14.5,0.7l0.6-0.6c0.7-1,1.5-1.6,2.6-1.7
	c1.5-0.2,3.4,0.5,4.9,1.8c0.6,0.5,1.4,0.8,2.2,0.6c0.8-0.1,1.5-0.6,2-1.3c0.8-1.3,0.5-2.9-0.6-3.9
	C238.7,239.5,235.3,238.4,232.3,238.8z"/>
<path class="st0" d="M254.1,238.8c-2.5,0.4-4.5,1.8-5.9,4l0.4-0.4c-2.1,1.7-5,1.5-7.2-0.5c-0.6-0.5-1.4-0.8-2.2-0.7
	c-0.8,0.1-1.5,0.5-2,1.2c-0.8,1.2-0.6,2.9,0.4,3.9c4.4,4,10.4,4.3,14.6,0.6c0,0,0.6-0.7,0.6-0.7c0.5-0.9,1.3-1.4,2.2-1.6
	c1.5-0.3,3.5,0.4,4.9,1.7c0.6,0.5,1.4,0.8,2.2,0.7c0.8-0.1,1.5-0.5,2-1.2c0.8-1.2,0.6-2.9-0.4-3.9v0
	C261,239.5,257.2,238.3,254.1,238.8z"/>
<path class="st0" d="M284.7,243.2c0.4,0.4,0.5,1.2,0.2,1.7c-0.3,0.5-1,0.6-1.4,0.2c-1.5-1.4-4-2.9-7-2.1c-1,0.3-1.8,1.1-2.8,2
	c-0.4,0.4-0.9,0.8-1.3,1.2c0,0,0,0-0.1,0.1c-3.5,2.5-7.7,2-11.2-1.1c-0.4-0.4-0.5-1.1-0.2-1.7c0.3-0.5,1-0.6,1.4-0.2
	c2.8,2.5,6.1,2.9,8.9,1c0.4-0.3,0.8-0.7,1.2-1.1c1-1,2.1-2,3.6-2.5C279.1,239.8,282.1,240.7,284.7,243.2z"/>
<path class="st0" d="M262.4,243.2c0.4,0.4,0.5,1.1,0.2,1.7c-0.3,0.5-1,0.6-1.4,0.2c-1.8-1.7-4.4-2.5-6.5-2.2
	c-1.5,0.3-2.7,1.1-3.5,2.4c-0.1,0.1-0.1,0.2-0.2,0.3c-3.5,3-8.5,2.8-12.2-0.5c-0.4-0.4-0.5-1.1-0.2-1.7c0.3-0.5,1-0.6,1.4-0.2
	c2.9,2.7,6.9,2.9,9.7,0.6c1.1-1.8,2.7-2.9,4.7-3.2C257,240.1,260.2,241.1,262.4,243.2z"/>
<path class="st0" d="M240.2,243.2c0.4,0.4,0.5,1.1,0.2,1.7c-0.3,0.5-1,0.6-1.4,0.3c-3.1-2.7-7.8-3.5-10.2,0.3
	c-0.1,0.1-0.1,0.2-0.2,0.2c-3.5,2.9-8.7,2.6-12-0.6c-0.4-0.4-0.5-1.2-0.1-1.7c0.4-0.5,1-0.6,1.4-0.1c2.6,2.5,6.7,2.8,9.4,0.5
	C230.6,239,236.4,239.9,240.2,243.2z"/>
<path class="st0" d="M217.7,243.2c0.4,0.4,0.5,1.1,0.2,1.7c-0.3,0.5-1,0.6-1.4,0.2c-1.8-1.7-4.4-2.5-6.5-2.2
	c-1.5,0.3-2.7,1.1-3.5,2.4c-0.1,0.1-0.1,0.2-0.2,0.3c-3.5,3-8.5,2.8-12.2-0.5c-0.4-0.4-0.5-1.1-0.2-1.7c0.3-0.5,1-0.6,1.4-0.2
	c2.9,2.7,6.9,2.9,9.6,0.6c1.1-1.8,2.7-2.9,4.7-3.2C212.3,240.1,215.4,241.1,217.7,243.2z"/>
<path class="st0" d="M298.8,238.8c-2.5,0.4-4.5,1.8-5.9,4l0.4-0.4c-2.1,1.7-5,1.5-7.2-0.5c-0.6-0.5-1.4-0.8-2.2-0.7
	c-0.8,0.1-1.5,0.5-2,1.2c-0.8,1.2-0.6,2.9,0.4,3.9c4.4,4,10.4,4.3,14.6,0.6c0,0,0.6-0.7,0.6-0.7c0.6-0.9,1.3-1.4,2.2-1.6
	c1.5-0.3,3.5,0.4,4.9,1.7c0.6,0.5,1.4,0.8,2.2,0.7c0.8-0.1,1.5-0.5,2-1.2c0.8-1.2,0.6-2.9-0.4-3.9v0
	C305.7,239.5,302,238.3,298.8,238.8z"/>
<path class="st0" d="M321.9,238.9c-2.7,0.3-4.9,1.6-6.6,3.9l0.3-0.3c-2,1.7-4.9,1.5-7-0.5c-0.6-0.5-1.4-0.8-2.2-0.7
	c-0.8,0.1-1.5,0.5-2,1.2c-0.8,1.2-0.6,2.9,0.4,3.9c4.2,3.9,10.2,4.2,14.4,0.6c0,0,0.5-0.6,0.5-0.6c0.7-1,1.6-1.6,2.7-1.7
	c1.5-0.2,3.4,0.5,4.8,1.7c0.6,0.5,1.4,0.8,2.2,0.6c0.8-0.1,1.5-0.6,2-1.3c0.8-1.3,0.5-2.9-0.6-3.9v0
	C328.3,239.6,324.9,238.5,321.9,238.9z"/>
<path class="st0" d="M343.5,238.8c-2.5,0.4-4.5,1.8-5.9,4l0.4-0.4c-2.1,1.7-5,1.5-7.2-0.5c-0.6-0.5-1.4-0.8-2.2-0.7
	c-0.8,0.1-1.5,0.5-2,1.2c-0.8,1.2-0.6,2.9,0.4,3.9c4.4,4,10.4,4.3,14.6,0.6c0,0,0.6-0.7,0.6-0.7c0.6-0.9,1.3-1.4,2.2-1.6
	c1.5-0.3,3.5,0.4,4.9,1.7c0.6,0.5,1.4,0.8,2.2,0.7c0.8-0.1,1.5-0.5,2-1.2c0.8-1.2,0.6-2.9-0.4-3.9v0
	C350.4,239.5,346.7,238.3,343.5,238.8z"/>
<path class="st0" d="M375.4,242L375.4,242z M365,238.9c-2,0.6-3.2,1.8-4.4,2.9c0,0-1.1,1-1.1,1c-2.6,1.8-5.2,0.2-6.5-1
	c-0.6-0.5-1.4-0.8-2.2-0.7c-0.8,0.1-1.5,0.6-2,1.3c-0.8,1.2-0.6,2.9,0.5,3.9c4.1,3.7,9.3,4.2,13.5,1.3l0.1-0.1l0.1-0.1l1.4-1.3
	c0.8-0.7,1.4-1.4,2-1.6c1.7-0.5,3.5,0.1,5.2,1.7c0.6,0.6,2.9,1.8,3.7,1.8c0.8-0.1,0-1.5,0.5-2.2c0.3-0.5,0.5-1.1,0.5-1.7
	c0-0.8-0.3-1.6-0.9-2.2C372.3,239,368.7,237.9,365,238.9"/>
<path class="st0" d="M374.2,243.2c0.4,0.4,0.5,1.2,0.2,1.7c-0.3,0.5-1,0.6-1.4,0.2c-1.5-1.4-4-2.9-7-2.1c-1,0.3-1.8,1.1-2.8,2
	c-0.4,0.4-0.9,0.8-1.3,1.2c0,0,0,0-0.1,0.1c-3.5,2.5-7.7,2-11.2-1.1c-0.4-0.4-0.5-1.1-0.2-1.7c0.3-0.5,1-0.6,1.4-0.2
	c2.8,2.5,6.1,2.9,8.9,1c0.4-0.3,0.8-0.7,1.2-1.1c1-1,2.1-2,3.6-2.5C368.5,239.8,371.5,240.7,374.2,243.2z"/>
<path class="st0" d="M351.8,243.2c0.4,0.4,0.5,1.1,0.2,1.7c-0.3,0.5-1,0.6-1.4,0.2c-1.8-1.7-4.4-2.5-6.5-2.2
	c-1.5,0.3-2.7,1.1-3.5,2.4c-0.1,0.1-0.1,0.2-0.2,0.3c-3.5,3-8.5,2.8-12.2-0.5c-0.4-0.4-0.5-1.1-0.2-1.7c0.3-0.5,1-0.6,1.4-0.2
	c2.9,2.7,6.9,2.9,9.6,0.6c1.1-1.8,2.7-2.9,4.7-3.2C346.4,240.1,349.6,241.1,351.8,243.2z"/>
<path class="st0" d="M329.7,243.2c0.4,0.4,0.5,1.1,0.2,1.7c-0.3,0.5-1,0.6-1.4,0.3c-3.1-2.7-7.8-3.3-10.2,0.3
	c-0.1,0.1-0.1,0.2-0.2,0.2c-3.5,2.9-8.4,2.7-11.9-0.6c-0.4-0.4-0.5-1.1-0.2-1.7c0.3-0.5,1-0.6,1.4-0.2c2.8,2.6,6.7,2.8,9.5,0.5
	C320.1,239.3,325.9,239.9,329.7,243.2z"/>
<path class="st0" d="M307.1,243.2c0.4,0.4,0.5,1.1,0.2,1.7c-0.3,0.5-1,0.6-1.4,0.2c-1.8-1.7-4.4-2.5-6.5-2.2
	c-1.5,0.3-2.7,1.1-3.5,2.4c-0.1,0.1-0.1,0.2-0.2,0.3c-3.5,3-8.5,2.8-12.2-0.5c-0.4-0.4-0.5-1.1-0.2-1.7c0.3-0.5,1-0.6,1.4-0.2
	c2.9,2.7,6.9,2.9,9.7,0.6c1.1-1.8,2.7-2.9,4.7-3.2C301.7,240.1,304.9,241.1,307.1,243.2z"/>
<path class="st0" d="M162.2,239.6c-1.5,0.7-2.5,1.7-3.5,2.6c0,0-1,0.9-1.2,1.1c-1.8,0.8-3.8,0.3-5.6-1.4c-0.6-0.6-2.6-2.5-3.4-2.4
	c-0.8,0.1-0.3,2.1-0.8,2.8c-0.8,1.2-0.7,2.9,0.4,3.9c3.5,3.4,8.2,4.3,12.1,2.3l0.2-0.1l0.1-0.1l2.2-1.9c0.7-0.7,1.2-1.3,1.8-1.5
	c1-0.5,1.5-0.5,2-0.5c1.3,0,2.7,1,4.2,2.1c0.6,0.5,1.4,0.6,2.2,0.5c0.8-0.2,1.5-0.7,1.9-1.4c0.7-1.3,0.3-3-0.8-3.8l0,0
	c-2-1.5-4.3-3.2-7.4-3.2C165.1,238.6,163.8,238.9,162.2,239.6z"/>
<path class="st0" d="M185.7,239c-1.9,0.8-3.1,1.9-4.2,2.9c0,0-1.1,1-1.1,1c-1.7,1.3-4.2,0.9-6.1-0.9c-0.6-0.6-1.4-0.9-2.2-0.8
	c-0.8,0.1-1.6,0.5-2,1.2c-0.8,1.2-0.7,2.9,0.3,3.9c3.9,3.8,9.4,4.3,13.4,1.3l1.3-1.2c0.9-0.8,1.7-1.5,2.6-1.9c2-0.7,4,0.8,5.1,1.8
	c0.6,0.6,1.4,0.8,2.2,0.7c0.8-0.1,1.5-0.5,2-1.2c0.8-1.2,0.7-2.9-0.4-3.9l0,0C193.2,238.7,189.3,237.7,185.7,239z"/>
<path class="st0" d="M195.3,243.2c0.4,0.4,0.5,1.2,0.2,1.7c-0.3,0.5-1,0.6-1.4,0.2c-1.4-1.3-4.1-3.2-7.1-2.2c-1.2,0.5-2,1.3-3,2.2
	l-1.2,1.1c0,0,0,0,0,0c-3.3,2.5-7.8,2-11-1.1c-0.4-0.4-0.5-1.2-0.1-1.7c0.4-0.5,1-0.6,1.4-0.2c2.5,2.5,6.1,2.9,8.6,1
	c0,0,1.1-1,1.1-1c1.1-1,2.1-1.9,3.6-2.6c0,0,0,0,0.1,0C189.3,239.6,192.4,240.5,195.3,243.2z"/>
<path class="st0" d="M172.9,243.1c0.5,0.3,0.6,1.1,0.3,1.6c-0.3,0.6-0.9,0.7-1.4,0.4c-1.7-1.3-3.3-2.4-5.3-2.4
	c-0.9,0-1.7,0.2-2.8,0.7c-0.9,0.4-1.6,1.1-2.4,1.9c-0.6,0.6-1.2,1.2-2,1.7c0,0-0.1,0-0.1,0.1c-3.2,1.6-7,0.9-10-2
	c-0.4-0.4-0.5-1.2-0.1-1.7c0.4-0.5,1-0.6,1.4-0.2c2.4,2.3,5.3,2.9,7.8,1.7c0.6-0.4,1.1-0.9,1.6-1.4c0.9-0.9,1.8-1.8,3-2.3
	c1.3-0.6,2.3-0.9,3.5-0.9C169.1,240.3,171,241.7,172.9,243.1z"/>
<path d="M286,242L286,242z M275.6,238.9c-2,0.6-3.2,1.8-4.4,2.9c0,0-1.1,1-1.1,1c-2.6,1.8-5.2,0.2-6.5-1c-0.6-0.5-1.4-0.8-2.2-0.7
	c-0.8,0.1-1.5,0.6-2,1.3c-0.8,1.2-0.6,2.9,0.5,3.9c4.1,3.7,9.3,4.2,13.5,1.3l0.1-0.1l0.1-0.1l1.4-1.3c0.8-0.7,1.4-1.4,2-1.6
	c1.7-0.5,3.5,0.1,5.2,1.7c0.6,0.6,1.4,0.8,2.2,0.7c0.8-0.1,1.5-0.5,2-1.2c0.3-0.5,0.5-1.1,0.5-1.7c0-0.8-0.3-1.6-0.9-2.2
	C282.9,239,279.2,237.9,275.6,238.9"/>
<path d="M209.4,238.8c-2.5,0.4-4.5,1.8-5.9,4l0.4-0.4c-2.1,1.7-5,1.5-7.2-0.5c-0.6-0.5-1.4-0.8-2.2-0.7c-0.8,0.1-1.5,0.5-2,1.2
	c-0.8,1.2-0.6,2.9,0.4,3.9c4.4,4,10.4,4.3,14.6,0.6c0,0,0.6-0.7,0.6-0.7c0.6-0.9,1.3-1.4,2.2-1.6c1.5-0.3,3.5,0.4,4.9,1.7
	c0.6,0.5,1.4,0.8,2.2,0.7c0.8-0.1,1.5-0.5,2-1.2c0.8-1.2,0.6-2.9-0.4-3.9v0C216.3,239.5,212.5,238.3,209.4,238.8z"/>
<path d="M232.3,238.8c-2.6,0.3-4.8,1.7-6.4,4l0.3-0.4c-2,1.6-5.1,1.5-6.9-0.4c-0.6-0.6-1.4-0.9-2.2-0.8c-0.8,0.1-1.6,0.5-2,1.2
	c-0.9,1.2-0.7,2.9,0.3,3.9c3.9,3.9,10.3,4.2,14.5,0.7l0.6-0.6c0.7-1,1.5-1.6,2.6-1.7c1.5-0.2,3.4,0.5,4.9,1.8
	c0.6,0.5,1.4,0.8,2.2,0.6c0.8-0.1,1.5-0.6,2-1.3c0.8-1.3,0.5-2.9-0.6-3.9C238.7,239.5,235.3,238.4,232.3,238.8z"/>
<path d="M254.1,238.8c-2.5,0.4-4.5,1.8-5.9,4l0.4-0.4c-2.1,1.7-5,1.5-7.2-0.5c-0.6-0.5-1.4-0.8-2.2-0.7c-0.8,0.1-1.5,0.5-2,1.2
	c-0.8,1.2-0.6,2.9,0.4,3.9c4.4,4,10.4,4.3,14.6,0.6c0,0,0.6-0.7,0.6-0.7c0.5-0.9,1.3-1.4,2.2-1.6c1.5-0.3,3.5,0.4,4.9,1.7
	c0.6,0.5,1.4,0.8,2.2,0.7c0.8-0.1,1.5-0.5,2-1.2c0.8-1.2,0.6-2.9-0.4-3.9v0C261,239.5,257.2,238.3,254.1,238.8z"/>
<path class="st0" d="M284.7,243.2c0.4,0.4,0.5,1.2,0.2,1.7c-0.3,0.5-1,0.6-1.4,0.2c-1.5-1.4-4-2.9-7-2.1c-1,0.3-1.8,1.1-2.8,2
	c-0.4,0.4-0.9,0.8-1.3,1.2c0,0,0,0-0.1,0.1c-3.5,2.5-7.7,2-11.2-1.1c-0.4-0.4-0.5-1.1-0.2-1.7c0.3-0.5,1-0.6,1.4-0.2
	c2.8,2.5,6.1,2.9,8.9,1c0.4-0.3,0.8-0.7,1.2-1.1c1-1,2.1-2,3.6-2.5C279.1,239.8,282.1,240.7,284.7,243.2z"/>
<path class="st0" d="M262.4,243.2c0.4,0.4,0.5,1.1,0.2,1.7c-0.3,0.5-1,0.6-1.4,0.2c-1.8-1.7-4.4-2.5-6.5-2.2
	c-1.5,0.3-2.7,1.1-3.5,2.4c-0.1,0.1-0.1,0.2-0.2,0.3c-3.5,3-8.5,2.8-12.2-0.5c-0.4-0.4-0.5-1.1-0.2-1.7c0.3-0.5,1-0.6,1.4-0.2
	c2.9,2.7,6.9,2.9,9.7,0.6c1.1-1.8,2.7-2.9,4.7-3.2C257,240.1,260.2,241.1,262.4,243.2z"/>
<path class="st0" d="M240.2,243.2c0.4,0.4,0.5,1.1,0.2,1.7c-0.3,0.5-1,0.6-1.4,0.3c-3.1-2.7-7.8-3.5-10.2,0.3
	c-0.1,0.1-0.1,0.2-0.2,0.2c-3.5,2.9-8.7,2.6-12-0.6c-0.4-0.4-0.5-1.2-0.1-1.7c0.4-0.5,1-0.6,1.4-0.1c2.6,2.5,6.7,2.8,9.4,0.5
	C230.6,239,236.4,239.9,240.2,243.2z"/>
<path class="st0" d="M217.7,243.2c0.4,0.4,0.5,1.1,0.2,1.7c-0.3,0.5-1,0.6-1.4,0.2c-1.8-1.7-4.4-2.5-6.5-2.2
	c-1.5,0.3-2.7,1.1-3.5,2.4c-0.1,0.1-0.1,0.2-0.2,0.3c-3.5,3-8.5,2.8-12.2-0.5c-0.4-0.4-0.5-1.1-0.2-1.7c0.3-0.5,1-0.6,1.4-0.2
	c2.9,2.7,6.9,2.9,9.6,0.6c1.1-1.8,2.7-2.9,4.7-3.2C212.3,240.1,215.4,241.1,217.7,243.2z"/>
<path d="M298.8,238.8c-2.5,0.4-4.5,1.8-5.9,4l0.4-0.4c-2.1,1.7-5,1.5-7.2-0.5c-0.6-0.5-1.4-0.8-2.2-0.7c-0.8,0.1-1.5,0.5-2,1.2
	c-0.8,1.2-0.6,2.9,0.4,3.9c4.4,4,10.4,4.3,14.6,0.6c0,0,0.6-0.7,0.6-0.7c0.6-0.9,1.3-1.4,2.2-1.6c1.5-0.3,3.5,0.4,4.9,1.7
	c0.6,0.5,1.4,0.8,2.2,0.7c0.8-0.1,1.5-0.5,2-1.2c0.8-1.2,0.6-2.9-0.4-3.9v0C305.7,239.5,302,238.3,298.8,238.8z"/>
<path d="M321.9,238.9c-2.7,0.3-4.9,1.6-6.6,3.9l0.3-0.3c-2,1.7-4.9,1.5-7-0.5c-0.6-0.5-1.4-0.8-2.2-0.7c-0.8,0.1-1.5,0.5-2,1.2
	c-0.8,1.2-0.6,2.9,0.4,3.9c4.2,3.9,10.2,4.2,14.4,0.6c0,0,0.5-0.6,0.5-0.6c0.7-1,1.6-1.6,2.7-1.7c1.5-0.2,3.4,0.5,4.8,1.7
	c0.6,0.5,1.4,0.8,2.2,0.6c0.8-0.1,1.5-0.6,2-1.3c0.8-1.3,0.5-2.9-0.6-3.9v0C328.3,239.6,324.9,238.5,321.9,238.9z"/>
<path d="M343.5,238.8c-2.5,0.4-4.5,1.8-5.9,4l0.4-0.4c-2.1,1.7-5,1.5-7.2-0.5c-0.6-0.5-1.4-0.8-2.2-0.7c-0.8,0.1-1.5,0.5-2,1.2
	c-0.8,1.2-0.6,2.9,0.4,3.9c4.4,4,10.4,4.3,14.6,0.6c0,0,0.6-0.7,0.6-0.7c0.6-0.9,1.3-1.4,2.2-1.6c1.5-0.3,3.5,0.4,4.9,1.7
	c0.6,0.5,1.4,0.8,2.2,0.7c0.8-0.1,1.5-0.5,2-1.2c0.8-1.2,0.6-2.9-0.4-3.9v0C350.4,239.5,346.7,238.3,343.5,238.8z"/>
<path d="M375.4,242L375.4,242z M365,238.9c-2,0.6-3.2,1.8-4.4,2.9c0,0-1.1,1-1.1,1c-2.6,1.8-5.2,0.2-6.5-1c-0.6-0.5-1.4-0.8-2.2-0.7
	c-0.8,0.1-1.5,0.6-2,1.3c-0.8,1.2-0.6,2.9,0.5,3.9c4.1,3.7,9.3,4.2,13.5,1.3l0.1-0.1l0.1-0.1l1.4-1.3c0.8-0.7,1.4-1.4,2-1.6
	c1.7-0.5,3.5,0.1,5.2,1.7c0.6,0.6,2.9,1.8,3.7,1.8c0.8-0.1,0-1.5,0.5-2.2c0.3-0.5,0.5-1.1,0.5-1.7c0-0.8-0.3-1.6-0.9-2.2
	C372.3,239,368.7,237.9,365,238.9"/>
<path class="st0" d="M374.2,243.2c0.4,0.4,0.5,1.2,0.2,1.7c-0.3,0.5-1,0.6-1.4,0.2c-1.5-1.4-4-2.9-7-2.1c-1,0.3-1.8,1.1-2.8,2
	c-0.4,0.4-0.9,0.8-1.3,1.2c0,0,0,0-0.1,0.1c-3.5,2.5-7.7,2-11.2-1.1c-0.4-0.4-0.5-1.1-0.2-1.7c0.3-0.5,1-0.6,1.4-0.2
	c2.8,2.5,6.1,2.9,8.9,1c0.4-0.3,0.8-0.7,1.2-1.1c1-1,2.1-2,3.6-2.5C368.5,239.8,371.5,240.7,374.2,243.2z"/>
<path class="st0" d="M351.8,243.2c0.4,0.4,0.5,1.1,0.2,1.7c-0.3,0.5-1,0.6-1.4,0.2c-1.8-1.7-4.4-2.5-6.5-2.2
	c-1.5,0.3-2.7,1.1-3.5,2.4c-0.1,0.1-0.1,0.2-0.2,0.3c-3.5,3-8.5,2.8-12.2-0.5c-0.4-0.4-0.5-1.1-0.2-1.7c0.3-0.5,1-0.6,1.4-0.2
	c2.9,2.7,6.9,2.9,9.6,0.6c1.1-1.8,2.7-2.9,4.7-3.2C346.4,240.1,349.6,241.1,351.8,243.2z"/>
<path class="st0" d="M329.7,243.2c0.4,0.4,0.5,1.1,0.2,1.7c-0.3,0.5-1,0.6-1.4,0.3c-3.1-2.7-7.8-3.3-10.2,0.3
	c-0.1,0.1-0.1,0.2-0.2,0.2c-3.5,2.9-8.4,2.7-11.9-0.6c-0.4-0.4-0.5-1.1-0.2-1.7c0.3-0.5,1-0.6,1.4-0.2c2.8,2.6,6.7,2.8,9.5,0.5
	C320.1,239.3,325.9,239.9,329.7,243.2z"/>
<path class="st0" d="M307.1,243.2c0.4,0.4,0.5,1.1,0.2,1.7c-0.3,0.5-1,0.6-1.4,0.2c-1.8-1.7-4.4-2.5-6.5-2.2
	c-1.5,0.3-2.7,1.1-3.5,2.4c-0.1,0.1-0.1,0.2-0.2,0.3c-3.5,3-8.5,2.8-12.2-0.5c-0.4-0.4-0.5-1.1-0.2-1.7c0.3-0.5,1-0.6,1.4-0.2
	c2.9,2.7,6.9,2.9,9.7,0.6c1.1-1.8,2.7-2.9,4.7-3.2C301.7,240.1,304.9,241.1,307.1,243.2z"/>
<path d="M162.2,239.6c-1.5,0.7-2.5,1.7-3.5,2.6c0,0-1,0.9-1.2,1.1c-1.8,0.8-3.8,0.3-5.6-1.4c-0.6-0.6-2.6-2.5-3.4-2.4
	c-0.8,0.1-0.3,2.1-0.8,2.8c-0.8,1.2-0.7,2.9,0.4,3.9c3.5,3.4,8.2,4.3,12.1,2.3l0.2-0.1l0.1-0.1l2.2-1.9c0.7-0.7,1.2-1.3,1.8-1.5
	c1-0.5,1.5-0.5,2-0.5c1.3,0,2.7,1,4.2,2.1c0.6,0.5,1.4,0.6,2.2,0.5c0.8-0.2,1.5-0.7,1.9-1.4c0.7-1.3,0.3-3-0.8-3.8l0,0
	c-2-1.5-4.3-3.2-7.4-3.2C165.1,238.6,163.8,238.9,162.2,239.6z"/>
<path d="M185.7,239c-1.9,0.8-3.1,1.9-4.2,2.9c0,0-1.1,1-1.1,1c-1.7,1.3-4.2,0.9-6.1-0.9c-0.6-0.6-1.4-0.9-2.2-0.8
	c-0.8,0.1-1.6,0.5-2,1.2c-0.8,1.2-0.7,2.9,0.3,3.9c3.9,3.8,9.4,4.3,13.4,1.3l1.3-1.2c0.9-0.8,1.7-1.5,2.6-1.9c2-0.7,4,0.8,5.1,1.8
	c0.6,0.6,1.4,0.8,2.2,0.7c0.8-0.1,1.5-0.5,2-1.2c0.8-1.2,0.7-2.9-0.4-3.9l0,0C193.2,238.7,189.3,237.7,185.7,239z"/>
<path class="st0" d="M195.3,243.2c0.4,0.4,0.5,1.2,0.2,1.7c-0.3,0.5-1,0.6-1.4,0.2c-1.4-1.3-4.1-3.2-7.1-2.2c-1.2,0.5-2,1.3-3,2.2
	l-1.2,1.1c0,0,0,0,0,0c-3.3,2.5-7.8,2-11-1.1c-0.4-0.4-0.5-1.2-0.1-1.7c0.4-0.5,1-0.6,1.4-0.2c2.5,2.5,6.1,2.9,8.6,1
	c0,0,1.1-1,1.1-1c1.1-1,2.1-1.9,3.6-2.6c0,0,0,0,0.1,0C189.3,239.6,192.4,240.5,195.3,243.2z"/>
<path class="st0" d="M172.9,243.1c0.5,0.3,0.6,1.1,0.3,1.6c-0.3,0.6-0.9,0.7-1.4,0.4c-1.7-1.3-3.3-2.4-5.3-2.4
	c-0.9,0-1.7,0.2-2.8,0.7c-0.9,0.4-1.6,1.1-2.4,1.9c-0.6,0.6-1.2,1.2-2,1.7c0,0-0.1,0-0.1,0.1c-3.2,1.6-7,0.9-10-2
	c-0.4-0.4-0.5-1.2-0.1-1.7c0.4-0.5,1-0.6,1.4-0.2c2.4,2.3,5.3,2.9,7.8,1.7c0.6-0.4,1.1-0.9,1.6-1.4c0.9-0.9,1.8-1.8,3-2.3
	c1.3-0.6,2.3-0.9,3.5-0.9C169.1,240.3,171,241.7,172.9,243.1z"/>
<path d="M207.1,154.7c36-8.9,50.9-19.6,54.5-22.6c3.7,2.9,18.8,13.7,54.8,22.6c29.3,7.2,52,7.2,57.6,7.1c0,2.6,0,96.1,0,98.6
	c-2.6,0-222.1,0-224.7,0c0-2.5,0-96,0-98.6C155.1,161.9,177.8,161.9,207.1,154.7z M260.7,129.4c-0.1,0.1-13.8,12.7-54.2,22.7
	c-33.3,8.2-58,7-58.2,7l-1.4-0.1l0,104h230l0-104l-1.4,0.1c-0.2,0-25,1.3-58.2-7c-40.5-10-54.4-22.6-54.6-22.7l-0.9-0.8L260.7,129.4
	"/>
<path class="st0" d="M282.7,241.6c0,0,0,0,0.9,0.6c0.7,0.5,0.9,0.8,0.9,0.8l-1.1,1.9c0,0-0.4-0.3-1.1-0.8c-0.8-0.6-1-0.7-1-0.7
	s0-0.5,0.4-1.2S282.7,241.6,282.7,241.6z"/>
<path class="st0" d="M193.9,244.9c0,0,0.6,0.6,1.3,1.1c0.5,0.4,1.1,0.6,1.1,0.6s0.7-0.6,1-1.2c0.4-0.6,0.1-0.8,0.1-0.8
	s-0.7-0.4-1.3-0.8c-0.6-0.4-0.9-0.7-0.9-0.7s0.1,0.6-0.3,1.1C194.6,244.7,193.9,244.9,193.9,244.9z"/>
</svg>
