<svg xmlns="http://www.w3.org/2000/svg" width="792.27551" height="945.7655" x="0px" y="0px" viewBox="0 0 792.27551 945.7655"><path fill="none" d="M-106.126-48.857h975.133V996.385h-975.133z" style="fill:#123a67;fill-opacity:0"/><path d="M317.842 304.191c.083-3.3-1.547-5.46.687-8.554.446-1.058 3.375-1.472 5.087.083 1.382 1.952 3.26 3.83 4.194 5.46 2.4.496 4.517-1.91 6.643-2.366 2.366-2.366 7.04-2.606 10.143-1.87 8.024 1.87 15.279 5.866 20.25 11.731-7.006-2.449-10.183-2.73-17.032-3.177l-5.378-.33-24.693-.249c-1.465.083-9.24.488-9.24.488-12.997-.934-28.963.977-38.899-8.272l-1.63 1.43c.249 5.411 5.42 8.96 9.862 11.326.976 1.87 4.732 1.87 6.394 3.748 10.39 3.052 22.494 3.59 32.388 3.342 0 0 4.806.488 6.601.893 3.59 1.671 10.275.488 14.262 1.464 8.314 0 15.395 2.317 23.387 3.26l.488.248c-4.277 1.224-10.597.248-14.626.976-8.513 1.87-16.992-1.464-23.585-5.46 0 0-4.195-1.059-5.742-.124-.115.935-1.017 2.077-.852 2.97.687 3.549 2.565 5.625 4.732 7.743 0 2.854 4.236 3.301 5.378 4.964 3.342 1.183 5.7 4.483 9.935 3.747 3.747 2.846 8.231 1.423 12.467 2.118 3.995 1.952 9.703 2.16 14.667 2.407.902.687 4.484.687 6.105 1.183v.455c2.366.935 6.61-.695 7.338 2.648 2.325 3.987-1.87 7.983-4.029 10.828-7.09 2.573-14.138 0-20.086 4.443-4.889 2.159-8.719 5.667-12.946 9-4.732 4.683 3.342 3.996 4.517 6.85-4.732 2.035-10.39 3.996-15.114 7.247-4.972 5.46-11.326 9.455-12.02 17.678.529 1.06 2.49 1.994 3.424 2.565l151.422.083c-.207-.86-.455-1.63-.662-2.408 2.854.488 4.732 1.39 7.537 1.39.29-1.39 2.564-2.324 1.67-3.996h.24l.489-11.035.438-.538c-.438-4.682-1.175-10.092-2.556-14.824-.728-4.972-2.854-7.992-3.582-12.715 2.854 2.117 6.841.695 9.207 2.324 3.094-1.348 1.39-5.17 2.565-8.19 0-.736-1.349-.736-.447-1.712-.24-9.166-3.053-18.365-6.114-26.638-1.224-2.771-4.235-4.484-4.483-7.288l4.972-1.183c.157-1.382-.977-2.854 0-3.996-1.225-2.366-1.721-5.7-2.648-7.817-.446-4.443-3.052-7.743-3.747-11.979-3.55-3.053-4.972-9.456-9.902-11.325l1.183-.976c5.658-1.63 8.024-5.874 11.523-9.613 3.582-5.7 7.785-13.683 4.029-19.796-.935 1.141-3.78 1.87-3.78 1.87-9.208 3.747-23.346 3.995-32.512-.249-29.98-8.314-60.613-25.016-94.1-20.284-12.716 3.259-25.017 6.85-33.728 16.536-2.325 4.236-8.48 4.691-11.73 7.007-3.343 2.64-6.635 6.395-8.968 10.837-4.732 12.054.455 25.497 8.967 33.976.331.902 1.994.976 2.4 1.754-.009.008 8.917 1.803 9.24-.108-.083.248-.083.497-.083.737M562.843 557.167c1.787 3.425 3.5 6.925 5.7 9.936 1.712 2.357 4.029 2.606 5.7 5.625 1.141 0 4.484 1.464 4.235-1.141 4.683-3.053 4.683-8.273 7.785-12.955.687-3.748 2.804-7.09 3.3-11.077.24 1.878 1.879 3.507 1.39 4.93.489 12.053 3.343 20.483 4.277 32.553 1.63 12.218 4.195 20.524 6.602 32.056 2.804 11.284 7.288 20.003 12.268 29.45 3.996 7.09 9.158 12.955 13.195 20.053 1.63.48 3.053 4.03 5.212 2.358-1.216-19.308 2.118-34.679 2.573-54.26 1.422 5.46 3.3 11.565 4.434 17.273.976 2.565-.687 6.602 1.464 8.72 1.39 9.654 4.235 18.82 5.625 28.068 3.334 16.504 11.077 29.906 19.309 43.589 2.159 1.431 3.582 3.995 5.451 5.873.687 4.03 4.972 4.964 6.354 8.753 9.91 8.48 20.284 18.365 30.873 25.223 3.996 1.183 6.113 4.674 9.944 5.41-1.432-2.606-.249-5.41-3.094-6.841-.455-4.492-5.626-6.842-5.626-12.02-1.91 0-.968-2.573-1.91-3.301-.456-1.878-2.805-2.126-2.077-4.484-2.209-4.674-5.22-8.71-4.972-14.17-1.423-2.077-3.3-4.89-2.854-7.289l-1.142-1.423c-2.639-9.406-4.277-20.45-5.211-29.657h-.48c-.248-12.053-1.671-24.032-3.102-35.159.248-.248.248 0 .496.282 8.711 15.28 14.874 32.958 30.873 42.653 1.878 1.183 3.35 2.565 4.732 3.748.728 1.19 2.846.695 2.606 2.572h1.39c14.17 9.24 32.098 10.837 45.292 21.956 1.878 0 1.63 2.316 3.756 1.423-5.625-19.342-21.434-31.85-32.263-46.922-1.39-3.541-3.789-6.602-5.667-9.903-3.789-7.09-5.22-14.584-8.512-22.12-1.39-1.457 1.663-4.517-1.39-4.517-.488-3.053-1.216-7.04-2.846-10.151-.695-6.105-3.102-13.89-3.507-19.796h.405c-.157-6.602-1.87-10.598-2.275-17.43 1.638-.977-1.216-2.375.405-2.855 5.212 6.354 9 14.42 16.529 17.919 9.456 8.959 22.41 12.467 34.43 16.743 7.289-1.183 13.154 3.55 19.755 1.432-.91-2.118-3.267-3.988-5.873-4.724-3.053-4.972-9.613-6.353-12.02-12.02-8.273-9.414-12.517-21.956-15.321-34.43-1.911-3.79-1.671-8.968-3.78-12.509-.745-4.442-1.887-8.96-2.855-14.13-.91 0-.661-1.15-.661-1.877-1.911-10.639-4.484-20.285-5.46-31.378l-.894-.728c0-9.406-2.167-19.557-2.606-28.963l.728-.695c7.495.406 16.703.935 23.99-2.605 3.095-1.423 7.09-3.83 7.09-7.586-3.788-.406-9.207-.687-11.523-3.748-4.732-3.094-8.968-8.471-11.127-13.683-2.118-12.955-8.272-23.792-9.902-36.341-1.39-.406.24-2.805-1.638-3.02-2.358-12.707-7.57-26.886-8.223-40.329-.48-2.606-.976-7.09-1.208-10.34 5.212-1.713 11.317-2.118 15.313-5.948.736-1.142 0-2.565-.646-3.508-4.285-.687-7.337-3.26-10.431-6.105-3.02-3.83-6.354-10.142-7.247-14.668-5.212-5.865-6.85-14.336-9.249-21.922-1.423-3.987-2.564-7.776-4.434-11.524-.736-6.403-5.22-10.63-5.915-16.992-.687-1.63-3.053-2.366-2.556-4.732-6.933-17.19-16.785-32.759-31.213-43.828-3.747-5.666-12.218-8.066-16.942-12.756-4.484-3.053-10.349-3.748-15.768-4.922-8.71-.985-17.231 1.423-24.56 5.17-2.805.29-4.683 2.325-7.09 3.549 0 1.63-1.63 1.423-2.565 1.87-10.34 10.828-17.43 26.398-24.272 40.329l-4.93 16.495c-1.63 1.431-.24 4.029-2.118 5.427-3.54 12.947-7.33 24.528-12.756 37.235-2.325 2.854-2.813 5.907-4.037 8.967-1.63 1.911-2.565 4.484-3.756 6.602-.488 3.83-2.118 6.403-4.236 8.96-3.052 7.337-7.338 13.93-11.325 20.532-2.118 1.381-2.118 6.113-4.964 7.536-1.141.488-.165 3.053-2.117 2.805-5.386 10.431-13.286 19.308-21.832 27.572l51.82-.24-.323 152.075M214.782 574.97c-1.671.157-2.689.364-2.937.612-3.789 1.87-1.87-3.02-4.732-3.267-3.747-8.712-9.654-16.777-12.467-26.192-2.366 21.915-.248 43.349-2.854 65.056-1.878 1.92-.248 4.236-1.39 5.915l-.248 2.565h-.488c-1.183 5.915-3.747 12.301-6.353 17.72-.488 2.126-2.606 4.235-2.606 7.09-3.094 6.551-6.353 11.283-8.96 18.364h-.694l-8.273 11.78c.737 1.663-1.381 1.432-1.87 2.565-3.019 6.436-6.113 11.325-10.836 16.289-.488-5.866 0-13.435-.737-19.35.737-9.398 0-21.459-1.63-31.808-2.365 14.874-7.776 28.516-10.836 43.34-1.63 4.037-3.996 8.066-4.484 12.79-3.053 5.41-4.484 11.035-8.471 15.767v1.671c-2.614 1.142-3.094 5.41-5.22 7.048-2.606-.206-.488 3.79-3.301 3.79-6.842 12.26-21.46 19.308-33.24 26.645-6.146 5.378-13.442 9.894-16.983 17.91-2.077.249-1.142-2.605-2.077-3.747.654-7.09 1.175-15.56 6.155-20.764 6.759-10.837 14.089-24.04 18.324-36.755-.893-2.11 1.671-2.838 1.671-5.212 2.556-4.476 2.325-10.589 3.54-16.04 2.607-6.354 1.63-14.13 3.988-21.22 1.431-11.044 3.301-21.227 4.93-33h-1.182c-3.5 9.655-9.406 20.988-14.378 29.948-7.04 6.154-13.89 15.56-22.849 18.414-7.991 4.476-16.702 5.866-22.41 13.443-3.748 1.87-4.923 5.419-7.744 7.992v.934c-1.87.935-2.845 4.03-5.22 4.236-1.183-10.142 2.805-18.365 5.378-26.596 1.464-1.432 1.96-3.797 2.854-5.7 1.712-2.805 4.723-4.682 5.948-7.983 2.324.207 1.141-2.366 3.259-2.606 6.602-11.532 11.813-25.223 15.32-38.46 3.583-8.479 4.725-20.242 6.602-29.657 1.671-3.507 1.225-7.09 3.094-11.077.737-4.483 2.118-8.065 1.63-12.797-1.431.728-.488 2.167-.736 3.333-3.26 1.39-2.325 4.972-4.89 7.09-.736 3.5-3.093 5.419-4.516 8.48-3.988 6.593-11.036 10.175-17.885 14.17-7.338 1.142-13.237 4.443-21.261 4.724v.405c-5.874-.405-11.085 3.343-15.56 6.155H6.22c2.168-9.654 8.025-17.678 15.114-24.52 5.419-6.163 9.208-14.138 11.98-22.12 2.158-8.066 5.947-16.05 6.435-23.875 2.118-6.842 3.26-15.28 6.354-21.914 2.076-5.626 2.605-12.964 4.922-18.58-.687-4.278 3.052-7.33 2.564-11.806 2.118-4.972 2.648-11.085 4.079-16.504-4.732 1.87-8.513 5.419-14.171 6.61-5.46-.455-12.757.935-16.95-2.324-.977-8.066 9.612-10.92 11.324-17.034 5.626-11.325 11.73-22.369 14.337-35.117 5.211-12.955 6.601-27.788 11.085-41.71l-.207-1.473c1.63-.893-.935-2.283 1.183-3.747.687-4.683 2.325-11.524 4.236-17.182-2.366-.737-4.07 1.63-6.105 1.87-4.724 0-9.25 3.788-14.221 1.223-2.076-1.464-1.588-3.83-.455-5.7 1.878-.248-.488-3.3 2.366-3.01 6.155-12.062 12.301-23.875 14.874-37.806 7.785-23.99 10.837-49.495 26.845-70.235 0-2.846 3.3-3.747 3.83-6.601 7.991-11.97 17.885-21.666 29.905-29.244 10.101-7.983 27.383-7.255 39.353-1.63 1.713 1.39 4.732.935 5.708 3.508 2.556 1.224 4.89 2.854 7.528 4.484 2.565 4.765 8.471 8.512 10.597 14.17 2.805 1.424 1.423 3.748 3.301 5.626 11.325 21.012 16.289 43.671 27.374 64.849 4.89 7.826 6.114 17.232 12.269 24.528.686 2.606 2.324 5.41 3.747 7.288 1.183.977.455 3.55 2.804 3.55.489 3.093 3.343 6.154 4.286 9.207 1.87 2.159 2.076 4.732 4.434 5.906 0 3.301 3.102 3.996 4.037 6.85 5.17 6.56 12.02 15.28 17.43 21.426 3.988 5.41 7.536 8.711 12.26 12.748 1.216 1.464 2.689 2.771 4.236 3.988l-70.714.455.587 169.836"/><path fill="#fec66f" d="M563.083 422.324c1.059-1.836 1.96-3.706 2.647-5.625 4.03-6.395 1.175-12.02-.695-18.407.249-.447.489-.984.935-.695 1.878 2.805 5.419 4.443 5.667 8.273 1.183-1.713 4.724-2.854 5.212-5.46.248-1.183 1.878-3.094.901-3.987.977-3.094 2.606-5.948 2.118-9.936.248-3.747-3.507-7.536-1.39-10.837 4.004 2.606 4.004 8.72 5.378 12.947 6.394-4.683 8.959-12.467 11.813-19.549 1.878-7.006-1.63-11.523-2.325-17.885 4.443.439 5.377 6.8 6.312 10.879 4.964-6.85 7.818-15.85 6.842-24.562.24-3.78-2.565-6.8-1.878-9.894 4.244.687 4.244 5.659 5.212 9.406h.934c.687-.455.935-1.63 1.183-2.804 3.5-6.85 5.866-15.321 4.443-24.04.52-3.748-6.85-6.147-2.325-8.72l.695 1.142c2.804.488 2.316 3.094 4.029 4.484.447 1.91.935 4.963 2.804 4.963 4.732-7.784 8.48-18.613 5.17-27.862-.248-2.325-3.747-4.682-2.125-7.255 2.854.488 4.731 3.747 5.426 6.85.935 1.39.24 4.235 1.671 4.69 5.866-8.48 3.988-21.227 2.846-31.568-1.712-2.118-4.972-3.987-4.285-7.578 1.431-2.117 2.573-4.972 6.155-3.747 3.747 1.39 8.71 3.3 11.077 7.09 1.183-.29 1.381.934 1.63 1.63 10.39 11.771 11.085 28.523 18.158 41.47l.935-10.101c1.638-2.846.934-7.776 3.747-9.936l.455.282c-1.39 8.43-1.878 20.251 2.4 28.027 1.869 3.053 2.117 7.537 5.418 9.415 1.39 3.3 3.756 6.841 7.296 8.512.273-5.212-1.638-11.077.687-15.52.728-.289 1.464 0 1.878.654-1.878 3.342.728 6.354.728 9.936 2.117 5.377 3.102 11.978 7.57 15.808 1.629 4.89 6.113 6.842 8.718 11.044 2.366 0 2.118 3.301 4.492 2.805 2.846 2.854 6.354 4.277 9.613 5.906 6.85 2.805 13.691 3.541 20.773.687-1.638-1.63-4.964-1.142-6.354-3.747-5.873-1.142-8.272-7.744-11.325-12.02-3.26-7.777-6.841-16.05-9.86-23.586 0-3.507-3.086-4.93-2.847-8.48-1.679-3.052-3.102-7.577-4.235-11.572-1.878-2.606-1.183-7.049-3.83-9.456.736-3.748-3.508-4.922-2.772-8.72-1.96-.405-1.43-3.499-2.647-4.433-3.507-8.033-8.181-14.387-12.715-21.468-2.076.248-1.63-2.366-2.556-3.582-3.582-2.283-4.492-6.312-8.48-8.43-12.3-10.142-24.28-20.73-42.24-19.597-5.17 1.87-10.39 3.342-14.874 5.7-6.353 4.194-12.963 10.1-16.214 16.702-1.712 2.366-2.167 5.625-4.029 7.776.447 3.789-4.037 4.682-3.549 8.72-2.357 3.052-3.3 6.642-4.235 10.63-6.833 14.584-10.184 32.015-16.992 46.442l-.687.24c-.488 4.235-2.366 6.361-4.235 9.86-2.854 7.587-5.17 15.562-9.216 22.246-2.606 3.02-3.987 7.983-6.353 11.275-3.55 5.866-6.85 12.707-10.639 18.614-6.841 9.695-14.303 19.225-21.873 28.797l43.829-.083-.017 17.24M277.596 404.927c-8.232-7.62-15.321-15.925-22.816-24.562l-.248-1.422c-10.837-13.65-20.98-28.963-28.516-45.707-2.407-5.658-6.601-9.406-7.338-16.007-5.418-8.066-6.353-17.679-12.508-25.505 0-4.723-2.804-8.47-4.277-12.26-.405-1.91-1.141-4.037-1.87-5.17-10.597-24.528-23.791-56.535-55.806-57.073-5.22.249-10.184 2.565-14.66 3.79-5.418 3.052-9.86 5.625-14.336 9.207-.24 1.87-2.358 2.118-2.606 3.267-5.906 4.517-9.207 10.664-13.443 16.29-1.464 1.14-2.366 3.995-3.507 5.22-5.212 10.1-9.944 21.185-13.485 32.014-1.183 1.663-2.076 4.517-2.854 6.842-5.17 13.203-6.312 28.763-12.706 41.751-1.87 9.654-6.842 18.622-11.772 26.44-1.663.157-.976 1.588-1.225 2.77 4.517.737 9.704-.893 13.692-2.77 11.077-6.685 21.508-19.151 28.796-29.989 2.118-8.719 7.049-15.809 5.626-26.646 0-.934-.207-2.854 1.431-2.614 2.118 2.854 1.224 7.338 2.366 10.597.728-1.141 2.358-1.87 2.606-3.507 5.658-5.667 8.231-14.626 7.09-23.792.206-1.952-3.541-4.277 0-5.212 2.779 4.484 3.259 10.11 3.507 16.049 1.224-.976 3.26-.248 4.484-1.671 1.43-.207 0-2.151 1.43-1.63-.239-2.647 2.16-3.342 2.16-5.667 0-14.17 2.043-27.374 8.48-38.939 1.87-1.63 3.052-3.507 4.93-5.625 2.804-3.996 6.601-.736 9.894.207 1.381 1.91-.248 4.037 1.381 5.658-2.357 4.492-6.105 7.098-8.71 11.119-.695 7.784-.249 16.503 4.483 21.426 2.118-.935 2.118-3.541 2.854-5.659 1.87-1.183 2.606-3.995 5.17-3.052v1.183c-3.3 2.605-3.3 7.817-4.723 11.325 1.91.686-1.423 1.39.53 2.366 0 4.235 1.877 8.48 2.804 12.715 1.878 3.3 4.194 6.61 6.072 9.86 1.952-2.572 1.952-5.377 5.46-6.56l.935 1.878c-3.053.53.28 3.301-2.118 3.79-2.805 7.577-.935 15.56 2.804 21.665 2.16 2.366 3.78 6.354 7.09 6.354.935-3.5 1.224-8.918 5.46-9.613.447 1.87-.976 5.41-1.671 7.983.446 6.841 1.87 13.683 5.666 18.613.489 3.789 3.988 5.907 7.04 7.536.282-2.572 2.565-4.723 2.565-7.288 1.224-.248 1.96-2.366 3.094-.446-.687 2.605-2.118 4.922-1.87 7.983.248 0 .488 0 .737.488l-.737.686c0 5.667 3.996 10.87 7.09 15.114 1.142 5.17 7.09 7.992 10.597 11.326l2.366-5.7 1.382.488c-.654 6.85-.406 13.203 3.102 18.415.488.206 1.183-.248 1.39.206-.331.695-.331 1.183-.124 1.465h57.378M394.347 241.286c1.63 3.02 6.353.455 8.231 3.301 8.96 2.118 16.777 6.8 25.703 8.96 3.053 2.812 6.85 2.117 10.837 3.747 11.375 2.804 26.2 9.654 38.211 2.399-.446 7.743-6.394 15.726-13.641 18.82-10.184 2.606-21.02 0-31.122-2.854l-4.037-.24c4.724 3.094 11.276 4.277 17.679 6.155 7.528 1.671 15.76 3.3 21.467 8.513 3.988 7.288 7.537 15.56 8.471 23.792-4.235.736-8.719-.489-12.053 1.216-.165 1.596 2.408 1.141 2.606 2.572 3.987 3.748 8.513 8.96 10.63 14.378 2.565 7.338 5.17 14.585 4.286 23.304 1.141.736-.24 1.712 0 2.4-5.7 0-9.696-2.847-13.692-5.411-6.841.686-5.22-6.602-8.959-9.944-3.83-6.353-8.272-12.02-13.93-16.206.487 5.41 7.089 8.918 8.718 14.337 1.63 3.54 6.155 6.353 5.667 11.325-4.732 0-7.288-3.5-11.284-4.236-2.854-1.67-5.906-4.235-9.009-2.854 3.798 5.907 11.566 7.09 14.626 14.171.935 1.878 2.606 3.102 2.805 5.667 2.854 3.987 2.399 9.894 3.789 14.866l-1.87 7.974c-2.854-.24-4.004-2.109-6.61-3.093-2.606-2.077-4.235-2.606-6.353-4.89l-1.96-.529c-4.443-5.17-10.598-8.711-15.032-14.336-3.3-1.911-4.285-5.419-7.536-6.842-.728 2.118 2.366 2.813 1.878 5.17.976 2.366 3.987 4.732 3.788 7.826 1.878 2.284 2.118 5.378 1.878 8.43 1.183 6.85 0 15.85-5.666 19.838-1.183 2.564-3.301 4.235-5.866 6.312l-8.107-.24-.207-4.69h.282c.455-9.208-4.724-16.05-5.212-25.662-1.183-1.87-2.573 0-3.508.446-2.845 6.56-8.024 12.997-13.443 16.984-3.052.703-5.418 3.508-8.272 3.26-6.354 4.037-12.955 3.582-20.98 4.731-.934-2.564 1.423-5.137 2.325-7.536 2.16-6.312 6.147-11.524 11.367-16.007v-.728c-4.277-.695-8.513 1.174-13.237-.249-3.747-.446-7.784-1.141-10.34-3.747 1.183-.24.934-1.431 1.381-2.366 6.643-2.804 12.02-6.353 20.078-6.147 4.442-1.63 9.902-3.052 12.268-8.024.455-2.564 1.382-5.857-.248-8.48 1.63.249 2.606 2.615 4.724 2.615 1.39 3.987 4.235 7.975 4.235 12.02 2.78-2.325 1.63-8.025 1.142-11.284-.406-.488-.687-.976-1.142-.976v-.488c4.732 1.712 8.231 7.338 10.142 12.756 2.118-4.037-1.224-8.48-3.3-12.02 3.3-1.142 5.625 2.846 8.719 4.227 1.39.737 1.63 4.492 3.02 3.59.736-1.96-.902-4.516-1.879-6.146-2.804-3.549-7.255-6.155-11.978-7.098-7.338-2.118-16.05-5.41-25.496-6.146-12.955-1.878-26.398-1.63-37.723-5.667-3.988-2.325-5.667-5.625-8.223-8.43 20.532 12.219 43.836.935 65.502 4.434 5.46-.686 11.367 3.79 16.545 3.79 0 1.422 1.63.487 2.565.735v.902c4.037.976 9.935 3.094 12.996 7.288 1.142.53 1.142-.653 1.39-1.34v-1.224c-9.208-6.8-14.825-11.325-24.768-15.8-.654-2.119-3.748-1.39-5.13-3.053-5.666-3.541-13.93-7.289-19.15-12.26-3.508-1.878-7.537-4.732-11.044-7.586-5.659-4.195-13.683-8.472-21.716-8.711-3.5-.158-5.658 1.224-8.471 2.647-4.732.198-5.22-7.537-10.837-5.667l-.248-.083c-2.854 1.216-6.362.53-7.826 4.319-.935.488-.935 1.43-.935 1.43-.935 2.077-.935 5.411 0 7.529-2.804-.488-3.053-4.029-5.625-5.22-1.87-4.724-5.659-8.72-4.277-15.073-1.142-2.366.736-5.46 0-7.57 1.183-2.324 1.87-5.377 4.028-7.99.083-.323 1.183-1.184 1.183-1.184 5.626-4.028 13.923-5.41 16.943-12.996.934-1.34 2.117-2.233 3.094-2.804 2.366-2.325 6.105-3.417 8.959-5.17 11.573-4.724 25.463-6.395 38.45-5.171 6.13.207 12.492 3.06 19.334 3.292"/><path d="M340.327 247.888c-.455 3.02-3.748 1.87-5.137 3.996-2.854 2.366-5.709 5.17-6.155 8.512 2.804 3.748 8.43 6.32 13.401 7.785 8.72-1.63 17.927-5.7 26.68-8.48 1.877.406 4.69-.976 6.311-1.464 4.517-.935 9.456-1.382 14.42-.488v.976c-9.456-.488-16.297 4.972-24.769 7.288 11.814 1.183 21.716 5.907 29.252 14.386-.24.737-.934.248-1.464.488-3.02-3.747-8.19-5.625-12.467-7.569 1.183 3.83-.248 8.066-3.499 10.672l-4.732 1.621c17.19 10.597 25.215 31.618 46.442 38.211 5.626 2.118 12.054 2.118 17.67 1.142 1.192-1.142-.727-1.878-.934-3.053-2.556-.248-1.671-3.052-4.277-3.3-2.804-3.343-6.552-4.236-9.646-7.09-.935-.985-3.3-.985-3.507-2.854 1.63 0 4.028 1.464 6.312 1.464 3.093.935 5.7 3.987 8.562 3.987 3.02 2.366 8.223 3.55 11.523 4.484 4.195 1.423 8.033.488 11.772-1.381-1.638-1.961-1.638-4.277-3.549-5.7-3.788-5.874-9.645-9.861-15.56-13.203-2.16-1.63-5.17-2.606-8.472-2.606-.455-.455-.248-1.142-.248-1.87 6.85 1.87 15.123 2.846 21.716 2.846 2.556-1.87-.736-3.053-.935-5.17-2.407 0-2.407-3.55-4.724-3.094-3.3-4.443-10.845-6.32-16.048-8.96v-.934c8.272-.248 12.02 4.235 18.621 8.024 5.212 3.053 6.842 11.118 14.171 12.715 3.02 2.565 5.865 3.54 7.743 7.288l-8.926-5.873c-2.11-.976-4.517-3.301-7.081-1.423-1.878.29-3.756 1.663-6.155.686l-.447.728c3.053 2.854 6.602 5.866 9.903 10.143.446 3.54 4.235 6.154 2.845 10.142-2.117.935-4.277.455-6.394.935 6.394 4.93 15.354 10.142 19.11 17.72.736.694.976 2.324 1.67 3.507-9.406-10.349-20.979-18.903-34.91-22.402-.728 2.813 3.987 4.724 2.366 7.776-12.268 3.54-24.528-2.804-34.919-8.47 0-1.184-1.423-1.672-2.117-1.912-17.439-9.166-22.37-34.62-46.691-32.263-1.381-.488-2.325-1.87-4.037-1.464-3.987-2.284-6.105-6.354-8.43-10.11.455-.24.455-.976 0-1.174-1.91 0-4.517-.695-6.394-1.671-2.325.488.488 2.846-.207 4.517.935 2.316-.53 4.922 1.183 6.312 8.719 0 15.56 5.22 21.426 9.935-1.87-.488-4.922-2.606-7.578-3.78-2.275.446-3.011-2.325-5.625-1.63-2.614-1.423-6.106-2.118-8.471-1.183-1.63-.935-5.46 2.118-5.22-1.464.934-3.988.736-7.744-.695-11.731-2.118-4.236-7.297-8.711-12.509-8.513l-3.747 2.11c-.976-.207-.488-1.183-.488-1.87 2.366-4.442 9.902-.438 9.207-6.841 2.606-2.573 4.972-4.682 7.826-6.842.405 0 1.34.282 1.588-.454 1.696-.472 3.574-1.407 5.444-2.11"/><path fill="#fec66f" d="M144.39 250.006c-6.312 6.113-8.884 17.19-6.312 26.158 1.87 5.22 3.541 9.687 8.471 12.508-.206 4.732-.446 7.536-.686 12.508h-.488c-.248 4.236-.447 8.223-1.87 12.467-.736 8.024-3.996 16.297-6.601 24.288-1.911 6.842-3.094 12.053-5.659 18.895-3.094 8.96-5.17 17.19-7.536 26.158-1.183-.248-1.431 1.183-.935 1.87l.447.736c1.183-1.225 2.118-2.846 2.118-4.724h.488c1.621-5.419 3.54-10.39 5.17-16.537 1.671-.687.248-3.02 1.431-3.996 1.142-4.442 3.094-7.09 3.988-11.565-2.118-1.381 1.141-1.381.736-2.812 1.87-6.842 5.377-14.337 6.841-22.403 1.142-2.564.935-4.93 2.573-7.048.488-3.549 1.175-7.826 1.671-11.573 1.63 3.747 4.724 7.578 7.536 11.325.687 4.236-1.877 7.991-2.117 12.268h-.249c-2.564 5.907-2.854 14.138-6.601 19.309-1.183 9.943-5.41 19.846-7.288 29.491-1.953 1.878-1.953 6.155-2.606 8.728-1.63 2.846-1.39 8.264-3.342 10.382-1.142 3.748-2.077 8.918-4.89 12.02-.727 1.63-.976 4.732-2.845 5.659-2.366 3.747-4.732 6.353-6.85 9.902-.248.447-1.141 0-1.67.447-.936 4.516-5.626 5.948-7.29 9.455-4.93-13.443-3.995-30.145-5.459-44.076 1.712-5.907 3.59-12.508 5.708-17.927 1.87-5.865 3.3-12.02 5.17-18.406 1.87-4.732 3.996-9.853 4.683-14.585 4.285-12.053 7.338-25.256 11.573-37.227 1.878-3.83 0-7.826 2.118-12.053-2.325-9.456.976-19.06 1.183-29.004 1.423-2.614 2.16-6.841 4.963-7.743-.686-2.606 1.672-2.606 3.053-4.029 1.208-.529 1.208.654 1.373 1.134M648.754 268.18c3.508 10.102 5.626 20.244 12.467 29.203 1.431 3.053 3.789 6.85 4.517 10.597.902 3.55 1.15 6.155 2.78 9.696.24 2.804 2.117 5.418 1.91 8.71 1.39 4.691 4.037 8.728 3.79 14.387 2.564 5.873 2.804 12.715 5.376 18.613.737 1.431 1.878 3.789.977 5.419.206.488 2.117 1.67.728 2.366 1.39 1.63 1.638 3.995 1.877 7.09 3.508 3.747 2.317 9.207 4.236 14.17 1.87 7.255 3.3 14.585 5.625 21.178-.901-13.683-5.41-28.756-8.223-41.71-2.126-3.996-.736-9.208-3.755-13.443.24-5.948-2.854-11.822-4.724-17.48-.496-1.183 1.382-1.87-.496-2.325-2.358-6.395-3.334-13.236-4.724-19.391-1.878-2.076-1.382-5.857-2.606-7.975h.728c.695 6.354 5.915 11.325 8.48 16.256 4.285 5.212 10.837 7.09 10.837 14.626 1.216 5.22 3.334 11.325 3.788 16.495 1.672.249 0 2.16 1.423 2.813 4.964 16.049 6.354 35.399 12.054 50.264.653 1.63-1.465 1.63 0 2.573.893 10.879 0 20.078-2.896 29.939l-1.87 2.614c-6.61-6.85-13.641-14.171-18.373-22.899-4.724-8.719-5.667-20.483-8.48-30.832-2.605-13.93-6.6-28.069-9.455-42.248-2.606-3.26-2.854-8.72-4.235-11.979.934-5.22-3.748-8.065-3.334-13.484-3.748-12.748-8.232-25.703-12.467-38.418-2.118-1.423-1.878-3.987-3.102-6.105-.232-7.09-1.622-12.301-2.11-19.598-.902-1.87-2.118-3.549-3.268-5.418 1.15-.488 2.366.736 3.756 1.141 4.732 3.839 6.362 10.432 8.77 15.156M361.348 273.12c0 .686-.282 1.63-.977 1.63l-2.614-.208c.248-.248 0-.488-.207-.488-1.183-.736-.934.935-1.422 1.382 0 2.407 2.605 2.854 3.747 4.277 3.094.934 4.732-1.663 7.09-2.325l.736-5.948c3.052.488 7.048-.207 8.223 2.846-.654 2.606-.488 6.113-3.748 7.098-5.22 2.606-12.996 2.316-17.926-.985-2.606-2.366-5.667-3.747-5.419-7.743 3.317-1.663 9.423-3.532 12.517.463"/><path d="M326.197 274.046c.695 1.621-1.183 2.358-.935 3.987-3.342 1.423-10.34-2.366-12.706 3.094-.29-.488-.497-.248-.737-.248.24-3.052 2.358-3.996 3.541-6.353 1.663-1.225 2.805-2.846 5.17-3.293 2.366.207 4.484.447 5.667 2.813"/><path fill="#fec66f" d="M645.205 301.42c.902 2.118 2.118 6.353 2.846 9.654 1.398 6.155 5.625 10.142 5.146 16.984 2.357 3.987 1.183 6.353 3.3 10.349 2.573 8.959 5.179 17.19 6.602 26.398 1.67 3.995 2.407 8.959 3.789 13.203 2.854 14.874 5.625 26.398 8.48 41.015-.208 5.22-2.119 9.249-1.879 14.874-1.67 1.63-.976 2.366-1.67 4.484-2.325 2.614-.936 7.338-4.443 8.48-9.448-11.566-18.407-22.403-19.788-38.658-.976-2.16-1.92-5.907-1.465-7.785-2.316-2.813-1.141-6.353-2.78-9.646-.239-7.288-3.995-12.996-5.21-20.003-1.432-2.167-.24-7.13-2.119-8.562-2.117-15.56-8.032-28.714-11.325-44.275 2.366-4.732 5.948-9.249 6.114-14.874 1.43.24 1.878 2.804 2.117 4.732 1.216 6.105 4.277 10.589 4.724 17.19 2.118 6.354 3.987 13.195 5.212 19.548 2.366 4.972 1.63 9.936 4.235 15.115.695 5.17 1.68 10.828 3.268 16.007 2.16 7.578 3.83 15.809 6.147 22.65 1.919 2.366 0 7.744 2.572 8.472-1.141-15.313-7.255-32.512-8.876-45.707-1.72-4.235-2.854-8.024-3.83-13.443-1.878-4.235-2.11-8.719-3.988-12.954.48-3.83-1.39-6.602-1.878-10.424 0-5.137-4.243-8.231-3.094-14.336-1.15-1.911-1.39-4.03-2.076-6.354.447-2.854-3.334-5.22-.24-7.09.24-1.877 3.044-2.365 2.316-4.922 2.118-.529.977-2.854 2.606-4.028 1.886 4.459 4.7 8.694 5.187 13.906M111.68 349.732c.935 1.183-1.662 2.118-1.183 3.747-1.224 3.83-1.91 8.554-3.548 12.302-2.805 7.983-4.683 17.678-7.777 25.91-.488 6.61-4.483 11.771-4.972 18.373-2.804 1.911-1.63 6.395-4.235 8.752-4.484 16.703-14.138 33-24.768 46.435-.728 1.141-3.02 2.117-3.301 3.747-6.312 5.46-16.744 16.256-27.82 10.39l-.208-.206c.935-2.366 4.683-1.225 4.93-4.517 2.367-.687 2.367-3.301 3.79-4.683 4.028-2.605 4.277-8.479 7.048-11.565 10.39-28.515 15.354-56.386 23.378-85.547 2.565-3.342 1.142-9.497 4.964-10.837 6.113-6.154 11.979-9.695 15.974-17.273 4.029-6.353 7.338-13.683 9.936-20.69-3.79 15.561-8.48 30.592-13.443 46.153-5.626 19.11-10.597 36.333-18.614 54.219-1.91 5.7-2.564 11.366-5.211 16.537 5.658-7.826 8.71-19.391 12.508-29.252 3.3-11.772 8.272-23.304 11.077-35.117 2.606-2.854 1.63-7.578 4.235-10.598 1.382-7.09 3.988-12.3 5.419-19.39 3.3-8.48 5.667-17.886 7.536-26.597 3.582-4.517 10.424-6.395 10.59-13.484-.166-5.626 7.337-3.02 9.943-6.602-4.964 16.305-11.805 33.297-16.248 49.793M289.202 307.98c3.748 0 8.918.687 12.914.687 21.963-1.63 40.569.488 62.292 3.83 3.781 1.63 7.785.455 11.036 4.484 2.614 1.87 5.22 4.682 8.711 5.377-8.223-.455-14.576-4.442-23.784-4.236-6.353-2.854-15.312-1.423-22.36-3.292-8.968-1.183-22.411.273-31.61-1.878-2.854.447-7.371.687-9.82-.364-7.826 0-15.403-2.929-21.508-8.107 4.889 1.91 8.917 2.068 14.13 3.5M631.762 363.622c-.488 3.3 2.358 6.601 1.431 9.695 2.118 1.423 1.423 4.922 1.589 7.048h.53c2.076 4.732 1.877 8.513 3.507 12.955-.687 1.87.686 1.713.686 2.846.24 4.972 3.582 8.231 2.606 13.89l1.216 1.67c.207 7.984 5.138 17.233 1.39 24.728.687 7.528-2.118 15.114-4.037 21.955-1.175.687-.438 4.484-3.292 2.606-.695-1.63-2.606-2.167-3.02-4.236-8.72-6.85-12.55-18.894-17.033-28.755-.406-2.606-.24-5.452-1.39-8.066-3.053-13.195-4.236-26.845-7.743-40.08.165-5.386-3.582-10.341-2.168-15.561 4.037-5.13 3.79-12.467 5.915-18.134 1.63 2.573 2.317 9 3.988 12.508 1.141 4.682 3.995 9.654 3.3 15.8 1.878 2.814 2.118 6.61 3.053 9.862.736 5.46 3.342 10.68 3.756 15.809 1.456 1.87.281 5.17 1.91 6.85 0 4.516 1.879 5.46 2.367 9.695.935 5.865 1.183 8.223 3.052 13.683l.497-.488c-1.911-9.654-2.854-18.663-4.484-28.31-3.334-9.413-4.724-19.307-7.57-29.21 0-6.601-3.548-13.203-3.548-19.35-2.524-2.804-.447-7.776-2.813-10.836 2.614-5.907 4.484-12.02 6.155-17.43 2.854 13.161 6.353 26.844 10.15 38.856M162.805 336.984c.736 10.142-1.63 16.049-3.26 25.215-1.629 5.708-3.093 10.837-4.036 16.992l-.695.695c1.63.736-1.183.976.24 2.15-2.11.455.695 2.573-1.423 3.541-1.431 7.743-4.285 16.95-6.403 24.727 2.366-.248 1.431-3.748 3.3-4.964 3.79-11.523 5.22-24.238 10.151-35.315 1.216-5.22 3.094-11.077 3.996-16.297 1.423-3.5 1.663-7.975 2.366-11.524.976.207 2.167 2.324 3.59 2.573 1.133.736 3.02.736 3.5 1.878 0 .736.487 3.83-.489 5.211.728 2.118-1.141 3.748-.446 6.85h-.455c-.977 4.484-2.11 9.894-3.541 14.171 1.423 4.682-2.854 7.975-1.671 12.219-1.183 1.381-.736 2.605-1.183 4.037-.439 6.312-3.748 9.406-3.748 16.495-.686.935-1.91 3.26-2.11 4.682-.694 4.972-1.877 9.406-4.731 13.932-1.878 5.17-4.682 10.597-7.297 15.56-4.07 3.301-4.483 8.48-8.752 10.143-3.3-2.366-.687-7.578-3.3-9.936-1.142-12.26-3.301-28.764.736-39.84-.249-.696-.249-1.382.686-1.87.248-7.537 2.366-13.195 4.69-20.533-.694-2.573 2.119-3.508 1.184-5.873 1.91-3.79 2.647-8.72 4.285-12.955 4.724-11.119 5.41-23.139 10.092-33.976 1.217 4.715 3.094 7.818 4.724 12.012M703.618 350.915c2.846 2.573 8.802 4.285 8.066 8.48 1.63 3.052 1.423 6.634 3.5 9.405-.663 2.366 1.215 3.83 1.67 6.842 2.408 9.455 3.748 20.044 7.288 28.764 1.663 12.3 5.7 20.044 7.818 32.064l1.87 1.911c-.737-6.353-2.366-13.691-3.83-19.796-1.622-5.708-3.02-9.704-3.5-16.049-4.492-12.053-4.682-24.032-7.784-34.869-.695-3.342-1.63-6.147-2.813-9.696 1.87.249 5.212.489 7.495 1.225 1.224 6.113 2.854 11.73 3.83 17.43-.248 3.02.736 5.137 1.382 7.992 1.919 9.894 4.731 17.43 6.121 27.134.976.976 1.216 2.366.976 3.788 2.606 10.143 6.114 19.755 9.208 29.45 2.358 1.672.902 5.7 3.3 7.579 1.184 1.39.935 5.137 3.541 6.113-.248 1.63 2.366 2.614 2.366 3.996 3.02 3.052 6.105 5.625 10.597 6.601-3.093 2.854-6.841 3.748-11.085 3.541-3.549.687-7.817-.488-9.687-2.804-3.516.934-3.02-3.094-5.625-3.59-2.366-2.565-6.602-5.626-7.785-10.102-1.92-.934-2.16-2.854-3.789-4.235.488-3.342-3.507-3.996-2.804-7.537-1.671-2.854-3.55-4.516-3.797-7.776-1.87-.935-.728-3.59-1.87-4.972-2.846-11.813-6.841-22.65-9.695-33.934.488-2.804-.687-5.22-1.39-7.379-1.382-2.275-1.878-4.889-2.846-7.743-.935-3.987-1.183-7.975-2.813-11.813.943-1.87-1.183-3.5-.48-5.866-3.052-8.719-4.202-15.064-6.84-24.28 2.812 3.276 6.84 6.097 9.405 10.126"/><path d="M450.931 373.325c-6.84-5.41-10.142-14.137-17.231-18.861-.447-.976-2.118-2.366-.894-3.3 7.735 5.658 14.097 13.16 18.125 22.161"/><path fill="#fec66f" d="M469.545 361.504c3.102 5.907 4.724 12.5 6.601 18.861-.686.488-.24 2.118.249 2.606.48 4.93-.935 8.968-.489 13.94-.446.934-2.126.405-1.39 1.87-4.276-.936-8.553-4.485-11.813-6.842 4.492-12.053.249-26.398-6.353-36.582 4.93.976 12.02 0 13.195 6.147M185.935 368.593c0 6.842-3.342 15.106-2.854 22.85-1.63 3.052-1.63 5.865-2.366 9.207l-.934.686.934.489c-3.094 8.917-2.804 18.133-5.906 27.82.695 2.118-2.565 5.46-.687 7.09 1.63-5.907 3.789-11.325 4.964-17.19-.488-4.278 3.094-6.155 2.117-10.672 2.854-8.223 3.79-15.065 5.667-24.04 2.565-3.988 1.183-11.086 3.54-15.313 0 6.602 4.236 9.406 4.733 15.313-2.854 8.71-1.96 17.438-5.948 25.214-1.142 3.343.488 5.46-1.142 8.753-.736 7.048-1.712 13.443-4.484 19.068 1.183 5.948-4.492 9.944-5.666 15.073-1.87 3.342-4.037 6.155-6.85 8.554-2.565-4.029-4.972-9.456-5.667-15.114-.935-1.183-.728-4.029-2.11-5.22 0-4.922-.248-8.918-.934-13.162 1.431-13.443 6.155-29.244 8.024-42.447 1.382-9.455 4.964-18.654 6.602-27.374 2.82 3.864 5.873 7.603 8.967 10.415"/><path d="M415.128 367.899c.893 7.528 2.804 17.43.405 24.28.935-9.208-2.564-16.29-3.268-25.455l.695-1.423 2.168 2.598"/><path fill="#fec66f" d="M601.815 370.016c3.053 19.797 8.273 36.54 10.598 56.097 2.564 5.907 1.878 12.26 3.788 17.43.902 6.395.902 13.236-1.224 18.862 0 5.708-2.771 11.325-5.418 15.809-1.589-.447-1.589-2.606-3.301-3.541-4.443-7.288-9.613-14.874-11.979-23.345-3.582-19.797-7.338-33.728-10.878-53.036 3.052-2.606 5.906-5.17 7.784-7.991 2.16.157 1.622 3.26 2.16 4.442 2.324 14.13 6.311 26.191 9.414 39.394.24 7.983 4.475 14.138 3.987 22.65.24 0 .488.207.728.207.496-11.771-3.094-20.73-4.715-31.568-.695-2.846-.695-5.7-.935-8.72-3.094-6.84-2.565-15.56-5.41-21.665-.249-2.4-.249-4.972-.977-7.338-3.507-2.606 2.606-4.484 1.671-7.817 2.143-3.02 1.853-7.785 4.707-9.87M466.782 405.134c-2.242-6.031-6.196-11.077-11.408-13.443-.447-.687-1.878.248-1.63-1.225-3.26-.397-4.963-3.26-7.528-4.442 1.183 1.423.687 4.029 2.846 4.442 1.431 4.964 3.996 9 5.873 13.526-.248 1.87-.05 1.464-.05 1.464l-2.398-.364c-2.846-7.536-6.27-11.772-10.068-19.308-3.747-3.3-4.715-9.894-10.142-12.02 2.167 9.944 1.67 21.26-5.17 28.069-.968 1.63-1.142 2.324-2.325 3.26l-.24.529-18.613-.53c2.117-9.654-2.606-13.65-4.079-22.36-1.141 8.272-4.889 15.113-7.007 22.6-2.606-.447.207-1.588-.976-2.564 2.118-5.46 3.748-12.02 4.972-18.415-3.549 3.094-5.7 8.066-10.63 9.704-4.443 3.54-9.654 4.483-15.073 7.288-7.859-.207-6.395 2.978-10.382 3.755-2.366.24 0 0 0 0h-4.567s-.24.447 0 0l2.689-1.836h-2.366c-1.63-.976-5.46 1.142-5.17-1.911.934-4.434 3.54-10.34 5.41-14.378-1.878.935-3.996 1.225-4.484 3.102-.488 0-.686 0-.935-.248-4.028 2.118-9.703 3.053-13.93 4.683 7.089-4.435 16.495-7.777 22.65-13.89l-7.785-.248-.686.488c-1.432-1.911-3.55.248-4.972-.488-2.805 2.117-6.155 1.381-8.968 3.987-7.784 1.96-12.748 9.456-16.983 15.809 3.83 2.606 8.272 5.46 12.706 4.236 2.937.24 6.767-1.961 8.397.405l123.022.323M201.016 390.07c2.366 2.357 7.578 5.128 6.114 8.47 0 8.96-1.142 21.021-2.366 29.004-2.565.893.248 2.854-.447 3.996-.935 8.47-3.053 15.114-3.747 23.585l.446-.29c.488-6.32 3.54-12.218 3.996-18.084l1.183-.736c-1.63-8.471 4.029-12.467 3.102-20.731 1.183-4.972 2.325-11.118 2.325-16.256l2.614 8.48 4.484 5.906c.248 6.56-1.382 12.922-2.366 19.309-.488 0-.488.446-.728.446 1.224 3.301-1.63 6.635-1.142 9.456h.248c-2.854 1.382 2.118 3.342-1.224 4.492l.736 1.423c-.935 3.747-.496 8.033-2.614 11.044-.447 2.11-.24 6.395-1.382 8.554-1.87 1.878-1.63 5.625-4.971 6.56-.687 2.399-2.606 4.517-4.236 7.09-.976-.24-1.87 2.167-2.854.454-1.621-1.39-2.118-5.137-4.442-6.601-3.301-3.508-2.16-8.96-4.724-12.715-4.525-17.919 2.565-37.475 5.658-54.707h.249c.901-6.353 1.87-14.378 3.995-20.483.952.455 2.987.455 2.093 2.333M582.474 414.06c-.736 2.854 2.606 3.789.48 6.403 2.126 7.817 3.996 18.654 5.17 26.886.248 1.878 1.423 4.732 1.663 6.85 1.15 6.353 1.15 15.072 1.15 21.922-1.878 4.483-2.804 10.15-5.658 14.584-7.049-5.137-12.715-12.218-16.744-19.755-1.142-6.634-1.638-13.69-4.236-19.837.497-5.378-3.507-9.208-3.26-15.073 3.26-3.747 6.561-7.048 7.785-12.26 2.118 2.118 1.878 6.635 2.565 9.406 2.126 10.672 3.582 21.509 6.601 32.346h.488c.662-6.395-2.357-11.813-1.381-18.167-1.464-9.943-4.078-20.772-4.285-29.938 1.43-2.366 4.442-4.517 5.418-6.842.488-.488 1.63-1.183.902-2.11.521-.247.976-1.182 1.712-.247-.248 2.084 1.382 3.995 1.63 5.832M101.538 412.463c1.63 8.96.902 18.374 3.988 27.54-2.118 3.342-1.63 8.065-3.79 11.325-.934 7.784-1.869 17.19-4.93 24.04l-.488 3.83c-.207-.248-.488.207-.653.455-1.96 11.044-5.212 21.956-7.818 32.751-1.142 3.053-.984 6.643-3.02 9.208-1.472 7.536-3.342 14.874-5.947 21.88-.207 5.452-2.606 10.176-4.732 14.668-.695 2.366-1.63 4.724-2.854 6.602.52 1.43-.902 4.235-1.87 5.658-5.667 12.996-13.857 28.317-29.252 32.313-7.495 4.963-17.43 3.251-25.173 6.841 5.17-9.207 14.832-16.288 19.06-25.95.248-2.152 2.366-2.847 1.91-5.163 1.912-.984.456-3.83 2.077-5.179 3.102-11.118 7.578-21.219 9.497-32.544.438-1.671 1.34-3.996 1.34-6.362h.53c1.183-4.028.934-7.569 3.54-10.878-.976-2.556 1.142-5.659 1.382-8.72 2.118-6.394 3.789-12.508 4.963-19.556a343.064 343.064 0 0 0 5.659-20.532c2.324-5.667 6.56-10.383 10.142-15.561 7.048-11.772 14.138-23.585 18.82-36.54-.935 6.601-3.995 14.584-5.137 21.666l-1.224.736c1.39 2.854-1.87 7.288-1.63 11.325l-.488.488c1.381 1.63-1.382 3.26-.935 5.874-2.366 6.146-3.053 12.946-5.874 19.093-2.399 11.284-5.906 22.849-8.272 33.975-2.846 1.878-.488 7.744-3.094 9.406.736 3.053-1.63 5.626-1.142 8.968-2.11 2.118-1.87 5.625-3.334 8.471-.248.736.282 2.126-.934 2.126-1.63 5.452-3.053 11.077-3.748 16.942 1.423-.653 1.63-3.747 3.3-4.889 1.87-6.601 3.542-13.277 5.171-19.597 3.301-6.155 3.988-12.715 6.842-18.374-.447-2.846.695-7.33 1.43-10.175 3.988-8.968 3.988-15.57 7.289-24.694-.207-4.732 3.053-10.92 2.804-15.643 2.118-1.63 1.87-6.312 2.854-9.166 2.366-3.748 1.432-9.166 3.988-12.269 1.87-8.71 3.582-16.702 5.873-24.28 2.16-.976.728-3.756 2.4-5.17-1.134-1.431.984-3.797 1.48-4.939"/><path fill="#fec66f" d="M123.692 439.556c-1.423 4.277-.488 10.589-3.3 14.386-.29.935.686 2.366-.695 2.606.397 3.26-.737 7.983-1.225 11.035-.488 1.423 0 3.541-1.39 4.732 0 2.805 0 6.395-1.183 8.96 2.077 1.183-1.422 2.399-.24 3.788-1.182 11.574-4.285 23.553-6.56 32.752 1.589 4.475-1.464 9.207-2.845 13.69.686.977.686 2.119.686 3.26-1.87 1.96-.935 4.037-2.11 6.445.687 6.841-3.101 11.73-3.3 18.365-3.3 1.63.736 5.178-2.366 7.288-.488 3.747-.736 7.743-2.854 10.39 1.671 3.053-2.118 5.915-1.39 9.903-.976 7.09-3.549 12.508-4.484 20.044-.934.935-.248 2.366-.488 3.508 1.183.728 1.183-1.39 1.87-1.63.736-5.915 2.854-9.654 3.996-16.049 1.712-6.105 2.854-11.036 4.723-16.95-.893-3.086 1.713-5.899 1.423-9.894 1.911-5.419 2.16-12.517 4.285-16.992-2.366-1.432 2.325-2.126 0-3.55 1.142-2.804 1.39-5.17 2.325-8.024-1.431-4.235 2.399-7.536 2.399-11.978.405-.737.405-1.465 0-2.16 1.39-2.812.248-8.024 3.02-10.597-.207-3.54 1.224-7.528 1.224-11.085 2.614-6.395 1.39-13.435 4.492-19.102-1.713-.934.397-1.877.24-3.3-.521-4.277 1.63-7.09 1.63-11.565 1.182-8.025 2.812-15.561 4.971-23.304.654-4.517 2.565-11.805 3.02-15.85 1.67 4.971 0 12.053 3.342 16.536-.24 3.996 2.78 6.61 2.78 10.341-.902 4.732-1.39 11.077-2.78 15.362-1.423 11.284-5.212 20.731-5.948 31.329-1.87 7.817-3.5 17.926-5.137 25.703-1.183 2.564.695 5.906-1.87 7.536-.736 17.678-5.948 33.032-8.72 51.166-2.646 13.923-8.313 29.732-12.54 41.71-2.366 4.484-3.988 9.696-7.09 13.683 0 2.854-2.077 4.724-2.606 7.082-2.283 3.102-5.137 7.337-7.255 10.349-2.854 4.971-7.578 9.91-12.467 13.443-4.972 5.46-13.691 7.569-20.077 10.671-1.911 1.39-3.79 2.035-5.659 3.748-3.756 1.15-6.113 3.995-8.967 6.601 0-8.95 8.967-16.288 13.65-24.561 2.159-2.325 3.341-4.93 5.41-8.033 1.712-2.118 2.854-4.194 3.59-6.841 2.573-4.89 3.987-10.837 6.56-16.223-.447-3.334 1.911-6.841 2.16-10.34h.487c.894-4.567 1.63-8.72 3.748-12.79.728-8.918 3.987-15.768 4.723-25.182 0-1.216 0-3.334 1.142-4.525 1.216-11.036 4.079-21.873 7.33-32.751 2.366-10.639 4.492-20.98 7.784-31.37 1.671-1.63 0-4.434 1.431-6.155 2.366-5.377 3.26-11.73 4.484-17.67.488-1.15 1.183-3.507 1.87-4.889.496-5.708 3.747-10.68 3.747-16.545 1.464-5.7 2.606-10.39 4.484-15.56-.695-3.542.976-6.114 1.96-8.472l-.52-1.39c1.91-3.342.52-8.554 3.788-10.672l.24-1.63c4.93-5.906 9.207-11.076 13.94-16.776.215 6.874-1.953 12.094-2.888 17.993M716.862 450.145c.687 4.285 2.118 8.512 1.878 12.748 1.671 3.507 1.671 7.495 2.408 11.077 1.39 6.601 3.02 13.203 3.987 19.804l.455.737c-.935.686.232 1.141.687 2.118 4.277 24.718 8.024 46.682 14.17 70.226-1.182-23.544-10.175-46.674-12.044-70.475-1.638-4.277-.935-9.695-2.805-13.683-.455-9.902-3.3-19.308-4.285-29.74l-.447-1.381h.29l-.53-2.118c.935 1.87 3.103 3.988 3.55 6.354 2.117 2.117 3.987 4.971 4.963 8.272 4.236 4.037 7.983 7.776 7.57 14.866 2.283 23.105 7.263 44.813 11.531 66.694.687 4.285 2.118 8.024 2.565 11.813 1.183 2.564 1.638 6.8 3.342 9.406-1.224 2.606 2.275 4.244 1.15 7.09 2.606 1.877.728 6.593 3.54 8.959l-.694 1.15c4.235 6.626 6.113 16.04 12.508 21.5 1.878.405 1.183 2.573 2.804 3.02 1.183 1.96 3.342 1.96 3.756 4.004-2.118.24-3.26-.455-5.385-.695-9.448-1.34-18.647-7.049-26.68-12.02-1.182-3.02-4.194-3.02-6.56-5.419-8.719-10.15-19.308-20.483-20.284-35.812-4.236-23.337-6.155-41.553-8.968-64.849-2.357-13.443-2.357-28.276-5.451-42.207 2.399.248-.248-2.854 2.118-3.052 1.919-3.781 2.159-8.513 4.276-11.119.687-3.26 1.183-7.495.935-10.837 3.491 6.585 4.707 15.098 5.65 23.569"/><path fill="#fec66f" d="M699.432 449.698c1.87 8.231 1.63 18.407 3.293 26.845l.455.29c1.422 33.487 8.024 67.173 12.02 98.997-1.87 1.415.488 3.293.488 4.923 1.43 11.813 2.606 20.284 4.475 31.37-.728 1.91 1.39 4.723 1.39 7.296l5.452 22.195c4.972 15.32 10.1 30.195 22.162 42.008 5.377 7.007 14.378 13.154 18.167 21.873-9.936-6.312-21.236-8.471-31.61-14.13-3.996-3.3-9.695-4.475-12.301-9.207-1.87.935-1.39-1.39-2.275-1.87-2.4-1.224-3.342-3.35-5.948-4.483-4.923-5.708-9.87-10.15-12.269-16.744-12.218-18.613-19.06-39.146-20.243-62.731-2.366-6.072-1.39-12.467-2.854-18.374-1.87-9.645-.934-19.548-3.499-28.027-1.431-8.033-.248-17.72-2.126-25.753-1.712-1.381-.248-3.26-1.456-4.922-2.804-21.467-4.682-44.118-7.743-65.056 2.126-1.63 3.747 3.053 6.113 1.382 2.366-5.865 6.842-11.036 7.785-17.43 2.407 5.211 1.183 11.077 3.102 16.702.687 8.545 1.87 16.289 3.5 24.81 2.564 11.771 3.052 25.214 4.963 37.433.248 6.403 2.126 11.127 1.886 17.678.935.737.687 2.4.488 3.094l.935 8.273c-.488.935-.728 1.63.455 2.076 1.423 16.546 2.639 33.248 4.508 49.785.166 5.17.455 12.02 2.127 16.992l.206 6.85h1.183c.935-4.277-.934-5.667-.703-9.696 2.077-.447-.48-1.431 0-2.564-.686-16.992-1.91-32.793-3.334-50.438l-.934-1.465c-2.358-18.332-3.748-36.06-5.378-54.657l-.728-1.224c0-1.63.976-3.996.24-5.13 0-1.223-1.381-2.605-.488-4.243-3.292-12.301-2.118-28.11-5.162-40.122.24-2.804-.248-6.312-.935-8.72.48-3.54-1.39-8.959-1.638-12.26 5.104 6.362 10.316 12.509 16.231 18.374"/><path fill="#fec66f" d="m658.4 447.34.662.935 1.216 12.715c1.621 1.911-.248 3.54 1.39 5.41h-.207l1.183 7.578h-.496c.496 4.484.248 9.696 2.374 13.443l-.497.488c3.582 25.43 5.212 53.003 9.456 76.836.48 3.086 0 6.105.976 9.207-.248.24-.976.654-.248 1.183l.405.447c2.16 21.26 4.732 43.142 6.685 63.385h-.24c1.133 9.489 1.63 19.838 3.755 29.492.48 1.63-1.39 3.094.687 4.277.488 12.913 2.804 24.28 5.667 36.738 1.43 5.419 4.723 10.15 5.873 16.099 2.16.397.53 2.771 1.456 3.987 3.053 2.077 2.118 5.874 4.434 7.743 0 2.606 3.343 3.996 2.896 6.395-13.691-6.841-22.41-19.11-32.594-29.252.496-1.663-1.183-2.118-1.878-2.804-1.423-2.846-4.227-4.244-4.476-7.785-1.39-2.118-3.102-3.789-3.987-6.395 0-1.141-2.606-2.564-1.216-3.507-1.878-.935-1.878-3.582-3.268-4.724.935-4.732-4.235-6.155-3.334-10.837-1.63-3.102-1.877-6.85-3.267-10.349-.488-10.672-5.7-17.72-5.46-28.797-3.26-20.532-9.158-40.296-11.276-61.068 1.183-16.049-3.094-28.557-4.037-43.837 1.465-.728-.248-1.464-.248-2.159-1.142-7.048-.157-15.52-2.564-21.873l.694-.736c-1.877-11.325-.934-24.52-3.995-36.333-.736-7.983-.976-13.195-1.87-21.178 2.606 6.8 9.613 12.467 16 16.942.686.497 1.919 0 2.853.248-.29-1.43 1.423-2.117 2.325-2.854 3.334 10.432 2.606 24.289 4.715 34.464.728 1.183.977 3.748.977 5.874h-.48c.728 12.301 3.052 27.125 4.723 40.568l-.728.447c2.358 15.85 3.5 30.915 5.212 45.988 1.87 5.211.687 12.218 2.118 17.678 1.63 15.073 3.26 28.516 6.353 42.199 0-8.223-1.39-14.378-1.39-22.394-.52-7.818-2.399-14.593-2.117-21.923-3.094-29.731-7.57-59.149-9.24-88.88-2.325-4.964-.696-12.22-2.805-17.919-1.224-14.593-1.886-29.707-4.972-44.325 2.854-7.503 4.037-13.939 4.724-22.162 2.117 3.3 6.833 6.842 7.081 11.325M151.96 474.226c-.728 3.02-.894 6.842-2.118 9.456-1.87 17.678-5.625 35.365-8.231 52.556-1.663.935-.728 3.26-.976 4.483-.935 2.805-.687 6.842-1.39 9.208-3.053 4.442-2.606 11.077-3.748 15.974-.24 9.448-3.582 19.391-4.723 28.359-.249 8.223-2.846 13.641-3.582 21.914h-.249c-.405 6.841-3.259 12.707-3.747 20.036-1.39 2.366-.455 5.625-1.63 8.72l.695.48c2.565-3.335 2.366-8.712 3.55-13.196 2.117-9.455 4.723-18.174 6.6-28.118-1.869-2.126 1.142-3.268.489-5.626l.901-7.09.737-.446 1.141-11.606 1.216-1.39c-.488-8.231 3.996-14.833 3.996-24.032.935-.976.728-2.366.728-3.582.447.281.736-.166.902-.405-.447-7.338 3.342-16.05 3.342-23.379 1.87-10.597 4.492-19.068 5.625-29.202 1.63-1.92.488-5.22 1.473-7.545 2.316-12.706 3.507-26.398 6.601-40.08 1.63 0 .406 2.117 1.142 2.845 2.366 8.223 10.63 15.04 7.09 25.67-1.87 8.033-1.87 16.744-4.484 24.289.488 8.024-1.878 12.26-2.614 19.548-1.878 21.964-7.578 41.793-9.456 63.914l-.695.695c-1.423 16.049-4.194 30.873-6.312 47.17-1.216 7.528-4.277 13.683-4.517 21.426-2.324 3.996-1.63 9.696-3.3 14.138-.207.935-1.63.53-1.142 1.431.653 2.358-1.224 5.212-1.713 7.818-3.995 10.109-6.61 21.186-12.714 30.832-1.878 1.67-2.118 4.525-4.236 6.155-1.87 4.723-5.22 8.967-9.456 12.715.737 2.605-2.324 1.422-2.324 3.995-9.414 8.066-19.11 13.923-30.187 18.895-.687 2.118-3.342 2.358-4.236 2.804 2.366-8.72 9.456-15.312 13.692-22.6 3.499-6.395 6.353-13.237 7.983-20.533 3.582-7.743 5.211-16.95 6.353-25.422 1.224-6.85 2.606-14.179 4.484-21.269-.654-5.41 3.54-9.852 1.63-13.881 1.91-7.09 3.102-15.114 4.566-22.89-1.96-1.63 1.39-2.325.653-4.037 0-7.495 3.343-13.849 3.508-21.873 2.639-2.805.976-8.025 2.639-11.532 4.484-12.301 3.508-27.614 7.785-40.32 0-6.156 1.87-11.822 2.117-17.68.728-.247.728-.975.24-1.472 2.077-5.377 1.878-12.467 4.732-17.637-.976-7.081 2.771-12.508 3.02-19.548 1.464-3.55 1.464-8.066 1.712-12.053 1.39-.447.902-3.301 1.39-4.93 1.183-4.03 1.63-9.688 3.3-13.444-.248-9.654 11.036-13.69 13.89-22.162 1.432 0 1.432-1.63 1.671-2.606-.504 12.508-2.142 24.487-3.813 36.06"/><path d="m200.313 458.17.455-2.805-.198 2.804h-.257"/><path fill="#fec66f" d="M183.09 456.548c1.67 9.406-2.118 16.255 0 25.215-3.053 1.43.984 4.492-1.423 6.353-.695 5.22-.455 12.268-2.077 18.365.654.976 0 2.854-.488 4.037.248 10.39-3.747 21.956-3.747 32.553l-.522.24c-.455 11.524-2.324 21.227-3.995 32.511-1.382 15.792-3.053 32.056-4.029 47.576-.165.53-.455 1.464-.695 1.712 0 .248-.695 2.126.695 1.638.521-9.91 4.029-18.87 4.277-29.74l.935-1.141c-1.63-.488.935-1.183.488-2.118-.976-5.692 1.87-9.447.976-15.073 2.043-8.272 1.588-16.289 2.565-25.744.694-1.878.446-3.748 1.43-5.874.894-8.024.894-16.992 3.26-25.256-1.63-1.381 1.175-2.325.248-3.987 2.366-14.345 3.342-28.756 5.659-42.86 3.789 3.747 4.285 9.612 9.406 12.466-1.142 20.5-5.626 41.23-5.857 62.491-1.183.24-.488 2.366-1.878 3.02.198 20.524-.976 39.642-3.3 59.19-.936 3.55-1.432 8.72-2.814 12.757-4.558 16.04-13.443 29.657-21.707 42.893.447 2.325-3.102 3.3-3.3 5.419l-1.672 2.614c-.935-25.257-3.052-53.044-.248-77.812-.207-17.439 3.342-34.87 5.667-51.654 2.118-3.756 1.87-9.166 2.366-14.13 2.11-12.02 4.484-22.61 5.625-34.869 1.464-3.053.728-5.667 1.713-8.968-.249-5.906 2.324-10.15 1.87-16.048.694-.447.446-1.63.975-2.805 4.426-3.565 4.865-10.125 9.597-12.971M602.27 476.832c6.85 42.894 7.983 86.482 16.537 131.535h.447c.488-3.781-.687-9.208-.976-12.5h-.199c-1.15-14.411-2.854-25.703-4.235-39.841-2.118-8.48-1.63-17.919-2.606-25.951-2.358-8.025-.687-19.102-2.358-28.028-.662-1.183.24-2.647-.901-4.037-1.225-2.606 1.141-6.353-.985-8.95 1.638-.696-.48-.936-.24-2.127v-4.964c1.225.977 2.126 2.846 4.037 1.713 4.964-3.342 5.162-8.314 8.471-13.278 2.366 24.289 5.907 47.419 6.809 70.797l.728.894c.488 18.166 3.987 35.845 2.606 55.641.686.976-2.606 2.606-.24 3.094l-.935.455c2.118 1.431 0 3.789.935 5.667-.488 4.227-.249 8.223-1.192 12.467.497 1.414.497 3.334 0 4.517-1.183 5.906-.446 12.466-2.159 18.125-.157 3.747 2.16 7.784.53 11.557-2.408-2.606-5.22-5.948-7.09-9.688-2.846-3.02-3.789-6.353-5.658-10.1-3.508-6.842-4.724-15.561-7.338-22.89-3.02-8-2.118-15.975-5.137-23.553-2.606-7.338-1.465-15.8-4.277-24.073-.207-5.17-1.432-9.654-2.168-14.874-2.275-19.06-3.747-34.87-5.377-53.772 2.804-2.565 1.63-5.874 4.037-8.43-.538-1.92.447-4.492.687-6.85.653-4.277 1.183-10.39.653-13.69a36.225 36.225 0 0 0 7.594 11.134M212.093 484.575l1.183.976-.248 18.82h-.24c-.695 13.932-2.324 27.375-2.813 41.752 4.236-14.625 4.236-31.6 6.354-46.475-.728-.455.248-2.118.248-2.813 2.854 4.923 3.053 10.39 7.586 13.931l4.682-2.564c1.87 8.471-2.564 13.393-2.366 21.633-1.91 9.646-5.658 20.483-9.406 29.285l-5.46 8.918c-2.109-.687-3.019-3.293-3.548-5.17-1.175-.737-2.077-3.053-2.805-4.724-1.878-1.39-1.183-4.724-3.342-5.667-4.161-12.508-5.874-23.834-5.137-37.723 1.381-8.273 1.878-16.504 2.854-25.223 4.682-2.854 9.124-7.338 11.73-11.574.232 2.135 1.423 4.74.728 6.618M584.096 496.38c2.167 12.955 4.971 28.07.736 42.935-.248 4.89-1.671 8.877-2.606 13.393-1.15 2.168-2.565 4.923-3.094 7.289-2.035 1.183-2.573 3.3-3.268 5.46-6.841-7.826-12.946-16.744-14.344-28.07 0-7.089-2.2-13.93-1.456-20.73-2.805-6.354 4.235-10.87 4.483-17.026 1.713-.934 1.423-4.235 2.606-6.113-.736-2.846 2.606-4.724 1.39-7.57 1.878 1.217 0 2.846 1.216 4.517 1.63 5.667 1.183 13.195 3.053 19.102 1.63 12.467 2.324 24.768 4.922 37.235.728-7.338-.207-14.097-.488-20.773h-.157c-.737-13.65-2.846-26.398-4.774-39.8l-1.183-2.572c4.244 4.252 7.595 9.15 12.964 12.723"/><path d="M740.68 567.59h.256l.207.944h-.207l-.257-.943M619.254 608.565h.248l.232 2.862h-.232l-.248-2.862M667.36 655.264h.247l.695 4.235h-.53l-.413-4.235"/><path fill="#00b6dc" d="M388.68 845.492s167.396-54.177 173.956-176.752l.522-263.64H214.21l.488 263.64c6.602 122.583 173.981 176.752 173.981 176.752"/><path fill="#fff" d="M410.561 837.021 259.024 638.065h47.013l138.83 182.295c-.008 0-12.143 7.338-34.306 16.661M476.874 800.597l-123.75-162.532h45.458l107.379 139.319c.008 0-9.44 9.654-29.087 23.213M531.788 749.158l-84.612-111.085h47.054l57.925 76.059s-4.02 13.228-20.367 35.026"/><path fill="none" stroke="#000" stroke-width="82.726" d="M214.666 593.832h348.938"/><path fill="#fec66f" d="M242.768 619.899v-3.128c2.804-.157 4.434-.364 4.922-.612.282-.09.571-.248.737-.488.248-.33.33-.777.405-1.39.207-1.39.33-4.483.438-9.207.083-2.242.133-6.196.133-11.739 0-5.054-.05-9.447-.133-13.277-.033-3.83-.206-6.155-.438-6.85-.083-.397-.248-.645-.488-.802-.166-.207-.612-.331-1.225-.406-1.588-.281-3.052-.447-4.36-.488v-3.144c5.055.133 8.555.207 10.466.207 2.523 0 5.054-.082 7.652-.207l3.176 7.289 2.606 5.542 11.73 24.123c2.49-4.806 4.36-8.562 5.626-11.242l4.89-10.184c2.688-5.7 4.318-9.207 4.971-10.506.571-1.348 1.225-3.011 2.044-5.013 3.176.157 5.253.24 6.196.24l10.92-.24v3.135h-.489c-2.49-.041-4.037.24-4.731.902-.654.57-.977 1.712-.977 3.416 0 2.027 0 3.582-.041 4.633l-.165 10.399V609.3c.206 3.094.364 5.055.52 5.741.083.331.249.613.406.853.157.157.488.33.86.405.364.157 1.911.29 4.608.455v3.127l-11.739-.248-11.482.248v-3.127c3.053-.091 4.757-.248 5.212-.538.405-.24.736-.852.935-1.795.165-.852.248-3.905.248-9.116v-26.77l-8.513 17.273-4.078 8.587c-1.1 2.242-2.647 5.5-4.6 9.778-1.183 2.647-2.117 4.732-2.804 6.32h-2.523c-.902-2.035-2.2-4.889-3.83-8.48-2.846-6.154-5.005-10.704-6.47-13.724l-9.654-19.754v18.05c0 3.053 0 6.643.083 10.83.083 4.11.165 6.477.248 7.006.157.57.281.976.488 1.224.207.24.571.488 1.142.654.488.157 2.002.323 4.484.455v3.127a147.38 147.38 0 0 0-8.389-.248c-3.805.016-6.775.107-9.017.265M324.932 609.227c1.63 0 2.978.57 4.111 1.63 1.1 1.141 1.68 2.531 1.68 4.111 0 1.597-.571 2.978-1.713 4.078-1.142 1.142-2.449 1.713-4.078 1.713-1.547 0-2.937-.57-4.079-1.713-1.141-1.1-1.67-2.481-1.67-4.078 0-1.58.52-2.978 1.67-4.111 1.142-1.06 2.449-1.63 4.079-1.63M382.774 612.892l.901.819-1.712 3.747c-3.094 1.597-5.824 2.738-8.231 3.3-2.482.613-5.535.936-9.208.936-5.212 0-9.778-.86-13.765-2.449-3.177-1.382-5.824-3.086-8.066-5.336-2.118-2.167-3.83-4.525-4.972-7.09-1.837-3.83-2.73-8.032-2.73-12.54 0-7.785 2.647-14.056 7.942-18.986 5.294-4.89 12.756-7.33 22.41-7.33 3.342 0 6.354.24 8.96.736 2.614.53 5.708 1.382 9.165 2.648l.207.446c-.405 1.183-.695 2.648-.901 4.36-.406 2.771-.654 5.303-.728 7.702h-2.854c-.083-2.738-.158-4.89-.406-6.519a16.347 16.347 0 0 0-5.534-3.83c-2.044-.86-4.65-1.258-7.826-1.258-5.783 0-10.39 1.787-13.848 5.46-3.5 3.665-5.212 8.711-5.212 15.271 0 3.947.57 7.371 1.754 10.35 1.183 2.97 2.738 5.377 4.682 7.28 1.87 1.968 3.83 3.35 5.824 4.285 2.647 1.183 5.906 1.745 9.737 1.745 2.481 0 4.847-.323 7.09-.893 2.233-.538 4.682-1.465 7.32-2.854M394.512 609.227c1.63 0 2.937.57 4.079 1.63 1.141 1.141 1.663 2.531 1.663 4.111 0 1.597-.522 2.978-1.663 4.078-1.142 1.142-2.523 1.713-4.079 1.713-1.621 0-2.928-.57-4.07-1.713-1.141-1.1-1.712-2.481-1.712-4.078 0-1.58.57-2.978 1.663-4.111 1.141-1.06 2.49-1.63 4.12-1.63M439.73 601.972h-2.936c-.083-3.011-.323-4.89-.654-5.535-.157-.322-.612-.529-1.299-.694-1.878-.364-4.732-.53-8.636-.53-.571 0-1.547.091-2.97.091v4.103c0 5.783.083 9.903.198 12.219.166 2.325.331 3.706.571 4.111.166.249.53.488.935.662.455.157 2.407.364 5.824.604v2.896l-14.46-.249c-2.077 0-5.41.091-9.895.249v-3.053c2.813-.041 4.443-.157 4.89-.364.248-.075.405-.157.57-.405.157-.24.323-.894.48-1.878.091-.571.166-2.358.281-5.286.133-3.02.207-5.138.207-6.445v-15.271c0-.372-.124-3.789-.364-10.308 0-1.87-.207-3.218-.364-3.995-.083-.323-.157-.48-.33-.654-.158-.124-.572-.24-1.06-.364-.57-.124-1.952-.248-4.318-.405v-3.094l13.08.207 17.678-.282c2.481 0 4.847.116 7.04.364l.33.488c-.28 1.456-.488 3.268-.686 5.386-.207 2.15-.281 4.078-.364 5.658h-2.97c0-.612-.091-1.878-.207-3.954-.05-1.1-.124-1.787-.248-1.952-.083-.158-.157-.323-.33-.406-.448-.281-1.457-.57-3.095-.819-1.547-.322-3.416-.48-5.625-.48-.406 0-1.547.083-3.508.158-1.87.09-3.176.09-3.871.157-.24 2.449-.397 6.932-.397 13.286v5.17c3.176.124 5.294.207 6.394.207 3.177 0 5.212-.207 6.023-.48.33-.132.57-.38.736-.819.157-.662.323-2.035.397-4.236h3.185c-.157 4.129-.232 9.514-.232 15.942M455.291 609.227c1.63 0 2.978.57 4.112 1.63 1.1 1.141 1.67 2.531 1.67 4.111 0 1.597-.57 2.978-1.712 4.078-1.141 1.142-2.448 1.713-4.078 1.713-1.547 0-2.929-.57-4.079-1.713-1.141-1.1-1.67-2.481-1.67-4.078 0-1.58.529-2.978 1.67-4.111 1.159-1.06 2.457-1.63 4.087-1.63M516.4 612.404l.936.852-1.671 3.714c-3.094 1.63-5.824 2.68-8.223 3.334-2.482.57-5.543.902-9.208.902-5.212 0-9.778-.852-13.815-2.49-3.135-1.349-5.824-3.094-8.024-5.262-2.118-2.15-3.83-4.558-5.055-7.123-1.787-3.871-2.647-8.024-2.647-12.59 0-7.694 2.647-14.014 7.941-18.895 5.303-4.922 12.757-7.33 22.41-7.33 3.335 0 6.272.249 8.96.687 2.606.496 5.667 1.398 9.166 2.647l.157.455c-.364 1.183-.653 2.606-.934 4.352-.331 2.78-.571 5.385-.662 7.66h-2.846a99.613 99.613 0 0 0-.405-6.444c-1.63-1.713-3.508-3.02-5.535-3.83-2.035-.894-4.64-1.3-7.9-1.3-5.7 0-10.35 1.837-13.857 5.46-3.425 3.665-5.137 8.761-5.137 15.28 0 3.946.57 7.412 1.712 10.35 1.217 2.969 2.78 5.41 4.641 7.337 1.961 1.91 3.913 3.334 5.915 4.194 2.64 1.183 5.907 1.787 9.737 1.787 2.482 0 4.848-.248 7.082-.852 2.208-.53 4.657-1.547 7.263-2.895M528.611 609.227c1.63 0 3.02.57 4.112 1.63 1.1 1.141 1.67 2.531 1.67 4.111 0 1.597-.57 2.978-1.712 4.078-1.141 1.142-2.448 1.713-4.078 1.713-1.547 0-2.937-.57-4.078-1.713-1.142-1.1-1.713-2.481-1.713-4.078 0-1.58.57-2.978 1.713-4.111 1.116-1.06 2.457-1.63 4.086-1.63M400.618 417.849c0 5.46.248 10.837.165 16.38 5.948.206 11.573.81 16.628 2.398l4.633 15.85c-5.866-2.688-14.46-4.723-20.773-1.464-.488.406-.157 1.092-.323 1.63 8.885.157 17.274.894 24.851 3.5l6.47 22.484c-8.513-3.789-21.79-7.09-30.593-1.547-.57.249-.248.902-.33 1.39 10.597.083 20.863 1.34 30.07 4.41l7.983 28.143c-10.547-4.69-26.273-8.637-37.557-2.407l-.083 3.499 40.941.653.282-.728.57-67.785h1.63v1.307c3.342-.439 7.702-1.795 10.754.248 1.878 1.216 3.094 3.665 5.791 3.996 3.053.24 6.031-.124 8.76-.654-4.243 1.96-8.437 5.625-13.938 4.037-2.118-1.059-4.079-2.325-6.8-2.325-1.39.323-2.929.406-4.286 1.06l.207 8.313c2.689 1.142 5.948 1.746 9.092 2.4 11.565 2.398 24.801.851 34.496-3.583-9.29 13.443-7.743 33.207 2.077 46.079l2.242.81-13.526 19.714c7.007 1.464 17.025 5.741 23.263.083 4.194-3.582 10.349-5.295 16.338-3.913l-1.547 3.02c-7.247-.894-12.83 2.522-17.927 6.353-10.34 2.399-18.489-3.218-28.598-3.218-9.778-1.258-16.04 3.83-24.603 4.847-10.68 1.06-18.497-5.906-29.376-3.664-7.37 1.712-14.055 5.948-22.526 4.103-6.726-2.325-13.236-5.659-21.509-4.558-6.601.86-12.467 2.895-18.985 3.871-12.947.687-23.958-8.72-36.74-2.895-6.6 3.946-17.107 4.36-24.85 1.91-5.7-1.066-10.432-5.211-16.777-3.83l-13.327 3.095-1.506-2.97 16.951-3.79c5.501.158 9.497 3.095 14.502 4.112 4.558 1.183 9.522 2.2 14.742 1.34-6.312-6.072-12.955-12.3-19.598-18.538l-39.469-16.827.612-1.464 39.725 14.874c3.508.447 7.206.86 10.713 1.39l-.612-.86-21.103-18.655c5.294-14.51 24.197-27.862 43.059-31.205 4.277-.86 9.24-1.141 13.93-.819l4.84 3.583c.331-3.83.166-7.818.166-11.648-2.275-1.06-5.626-1.63-8.14-.571-2.118.902-3.996 2.523-6.685 2.035-4.111-.248-6.924-2.854-10.34-4.318 2.936.29 7.743 1.307 10.878-.249 2.325-2.44 5.17-4.806 9.373-4.235l4.922.852.165-1.506 1.63-.082.571 24.933v.248c3.665.489 6.924 1.63 9.985 3.26l3.954 13.575c-4.028-2.242-8.636-3.623-13.6-3.954v2.449c5.377.57 10.258 1.96 14.46 4.4l4.848 17.39c-5.46-3.177-11.73-4.89-18.778-5.336l.157 13.037.935.158 52.878.736c.372-1.026.207-2.209.207-3.301-11.036-6.767-27.002-2.564-37.516 2.118l10.431-28.144c8.637-2.448 17.886-3.83 27.623-4.235l.157-2.035c-8.794-4.807-21.186-1.63-29.327 2.035l8.14-22.485c6.726-1.96 13.932-2.97 21.427-3.342.082-.571.488-1.026.082-1.555-6.146-3.748-14.791-1.34-20.69 1.141l5.626-15.635c4.732-1.39 9.86-2.325 15.404-2.366.157-2.689.405-5.501.157-8.347-2.44-1.183-6.114-1.266-8.587-.124-1.663.893-3.384 2.002-5.824 1.795-4.194-.207-7.172-2.854-10.754-4.484 3.267.571 7.255 1.1 10.588.248 2.4-2.2 5.055-5.054 9.133-4.765 1.961.125 3.582.935 5.535 1.026l.29-1.87h1.505"/><path fill="#00b6dc" d="m446.729 498.879-.976-37.847c5.873 11.077 7.214 26.472.976 37.847M339.673 466.326c-5.782.323-11.002 1.712-15.395 4.566l-2.78 13.526c5.295-2.771 11.21-4.889 17.96-5.137v2.523c-7.04.33-13.319 2.449-18.489 5.948l-3.508 17.108c6.478-3.342 13.6-5.948 21.716-6.395v12.83l-24.603-.33-14.502-1.994c1.349-15.61 8.314-29.492 21.757-41.272 5.055-3.913 10.598-6.998 17.836-6.601l.008 5.228M491.062 505.017l-12.053 8.066-32.098-.406-.33-13.029c9.976-4.442 24.52-3.508 34.008 1.059l10.473 4.31"/><path fill="#fec66f" d="m520.71 528.817-1.96 3.905c-7.412-1.96-11.077 5.054-17.232 6.403-14.708 2.73-26.927-7.61-41.18-1.588-7.09 2.936-17.191 4.632-24.893 1.786-4.442-1.216-8.48-3.094-13.65-2.78-9.695 1.961-19.755 7.868-30.31 3.343-5.295-1.96-10.35-4.484-16.984-3.342-8.926 1.15-16.91 5.303-26.68 3.425-7.006-1.183-12.987-4.277-20.573-4.393-7.048.81-12.26 5.137-19.68 5.336-10.341.612-18.82-2.73-27.457-5.7l-15.967 3.5-1.712-3.947 16.702-3.665c5.709.158 9.936 3.02 15.032 4.195 6.56 1.828 15.28 2.242 21.351-.695 6.635-3.83 16.91-3.913 24.156-1.1 5.543 1.596 11.416 3.714 17.844 2.324 9.779-2.035 21.666-6.155 31.453-1.464 5.865 3.507 15.114 3.83 21.508.935 5.419-1.878 11.648-4.037 18.01-2.408 7.338 1.547 14.742 5.502 23.064 2.937 6.8-1.787 12.79-5.212 21.103-4.235 9.812.082 17.67 5.294 27.78 3.424 3.987-1.72 7.007-5.534 11.73-6.196 2.515-.612 6.023-.852 8.546 0"/><path fill="none" stroke="#000" stroke-width="8.2726" d="M388.68 845.492s167.396-54.177 173.956-176.752l.522-263.64H214.21l.488 263.64c6.602 122.583 173.981 176.752 173.981 176.752z"/><path d="M169.721 740.803c5.303 4.607 12.053 8.52 18.539 11.738 3.913 4.724 9.985 6.106 14.949 9.53 8.793 4.89 17.96 9.34 27.613 13.203 7.173 1.547 13.932 4.923 20.938 7.33 3.83.819 7.255 2.846 11.003 2.846 6.436 3.425 14.742 3.267 21.054 6.643 14.419 3.21 29.533 7.453 44.771 8.835 19.226 2.688 37.194 2.209 56.047 4.566 10.506-.52 21.757.86 32.751-.686 7.288.157 14.742-1.878 21.707-2.002 2.242-.728 4.286.984 6.478-.397 14.254-1.961 26.969-3.35 40.734-5.866 18.34-3.425 36.83-8.388 54.665-13.12 7.992-3.748 16.463-5.625 24.123-10.184 2.854-.661 5.584-1.67 8.314-2.531 2.358-.844 4.559-1.712 6.924-2.556 12.55-6.924 26.158-12.55 37.848-21.178 2.936-.207 4.963-2.573 7.701-3.425 9.282-2.564 22.08-6.924 30.179-.852 5.253 1.01 4.93 6.105 5.75 10.34-.977 6.321-2.201 12.873-2.036 19.723-.662 3.094-.33 6.27-.33 9.488l.487 7.131c2.358.331-.157 1.713.249 2.896 1.133 5.253 1.787 10.382 3.987 15.436 1.224 2.044-.81 4.079 2.076 5.146 15.445-3.59 31.246.819 46.153 4.037 4.765 2.407 9.861 4.434 14.626 6.155 2.2-.157 2.896 1.878 4.93 2.2 15.404 7.123 29.857 16.777 42.24 28.681 1.87 2.689 5.742 5.948 4.435 8.968-9.042-4.41-18.53-5.212-28.557-7.09-3.376 1.506-6.552-.537-9.654 1.878-5.626-.695-10.838 2.68-16.29 3.177-5.79 2.2-11.242 5.087-16.619 7.983v.893c8.802 8.645 18.49 15.892 25.827 25.753 2.854 3.425 6.552 6.974 9.299 10.754v.662c5.046 4.724 7.61 11.201 12.218 15.966h.48c-.157 1.837 1.878 2.854 2.606 4.393 3.508 5.956 7.255 12.053 8.637 18.34-2.565.976-3.425-2.854-5.626-3.582-3.251-.976-6.444-4.4-9.48-5.584-4.285-3.052-9.175-5.253-13.451-8.314-27.16-14.791-61.425-17.678-92.298-12.376-14.957 1.663-30.766 2.565-45.83 2.358-6.643-.53-13.567-1.348-18.696-5.782-3.053-4.037-4.922-8.802-6.064-13.245-.86-3.904-1.712-8.14-3.094-11.888-1.183-.661.521-1.712-.687-2.208-3.548.33-6.394 3.218-9.985 3.375-4.442 2.937-9.207 3.582-14.262 5.667-12.425 4.194-24.47 7.42-37.193 11.168-4.029-.82-6.064 3.094-10.184 1.72-2.556 1.713-5.906 1.208-8.67 2.027-13.575 4.393-28.523 3.02-42.934 5.948-1.878-.207-3.342-.695-5.419.157-13.236-.686-26.315 1.547-39.228-.52-3.218-.332-5.055 1.223-8.314-.166-4.236.33-7.495-.852-11.326.53-1.91-1.018-5.294-.53-7.817-1.217-5.791.86-11.73-2.531-17.679-1.017-1.183-1.506-4.765-.86-6.436-1.672-1.381-.728-2.688-.322-4.078-.157-9.042-1.712-16.984-2.035-25.827-4.4-20.525-3.417-38.005-8.555-57.677-14.461-1.026-1.349-2.895.364-3.425-1.349-8.314-2.936-17.678-4.806-26.158-7.652-7.776-2.688-15.8-5.584-23.742-7.66-1.878 6.155-3.383 12.748-5.096 19.234-1.142 3.582.166 7.776-2.523 11.035-2.035 1.828-2.895 5.096-6.105 4.682-4.079 3.268-10.556 3.79-15.478 3.425-18.49 1.216-34.63-2.688-51.572-4.235-1.555.33-3.747-1.72-5.46-.654-2.688-1.712-5.584-.157-8.148-1.224-2.531-.157-4.732 1.224-6.759-.323-3.913.323-7.495-.488-11.085.48-4.36-.645-9.861 1.39-14.22 1.555-7.86 1.547-15.28 2.689-22.444 5.41-4.567.207-8.314 2.896-12.384 3.947-2.854 1.141-4.732 2.854-7.454 3.35 0 1.704-1.34-.174-1.828 1.05-2.366 1.35-5.088 2.201-7.338 3.55-4.732 2.399-8.48 5.906-13.079 9.157-1.017.158-1.183-.52-1.663-1.009 0-4.194 1.829-8.636 4.765-12.227 4.517-8.48 12.542-16.95 18.291-24.123-.157-1.67 2.035-1.67 2.2-3.218 9.373-12.227 21.592-22.576 31.941-32.594-5.948-6.758-15.966-7.619-23.47-11.044-1.96-1.017-5.211-.52-7.453-1.828-3.54 0-7.288-.728-10.506-.405-2.738-.323-6.155-.323-9 0-2.201 1.224-3.914 1.067-6.602 1.547a308.032 308.032 0 0 0-14.907 5.451c-1.225.53-2.21.852-3.583.687-.33-1.34 1.878-3.26 2.846-4.6.737-2.688 4.401-3.913 5.948-5.948 2.565-2.2 5.13-4.558 6.924-7.28 3.582-1.348 5.46-4.765 8.72-6.27.976-1.878 2.2-2.209 3.913-2.896 4.037-2.357 7.826-5.782 12.053-7.652 2.846-.132 4.723-2.531 7.453-3.02 1.34-.868 3.707-1.397 5.254-2.572 4.93-3.549 11.168-3.706 16.297-6.602 3.582-.686 6.924-1.546 10.506-2.407 2.399-1.34 5.46-.852 8.314-1.183 4.765-.86 9.53-.86 14.419-.86 3.747-1.713 8.48 1.555 12.913.364 1.183 1.505 3.955.662 5.419.819 2.366-2.73 2.035-6.23 4.07-9.48 1.713-9.456 5.13-18.498 4.964-28.525l-.199-6.61c1.059-.843-.165-1.538.364-2.556 2.689-7.288 2.035-15.602 5.212-22.402 5.625-4.235 13.765-3.218 20.408-2.523 4.608 1.464 9.489 3.5 13.89 6.023"/><path fill="#fff" d="M157.916 741.299c13.195 5.981 24.925 14.46 37.64 22.485 1.506-.406 1.878 1.456 3.218 1.456 8.678 5.303 18.862 8.727 27.863 13.93 1.67-.156 2.738 2.036 4.516 1.184 9.042 4.277 18.903 6.469 27.705 10.713.86-.323 2.2 0 3.053.653 7.13 2.044 14.295 4.443 21.715 5.138.364 1.307 1.225-.157 2.077.661 3.21 1.06 6.957 1.382 9.811 3.086 4.972.331 9.861 1.464 14.097 3.715 2.936-1.018 5.625.661 8.314 1.017 5.782 0 11.573 1.506 17.347 1.713.811 1.505 2.035-.207 2.854.653l8.157 1.224v.158c5.46.488 10.548.819 16.123 1.39 5.783.653 12.393.165 18.167.33 3.913.157 9.497.82 13.766 0 9.654.976 20.168 0 30.186-1.059 2.035 1.382 3.748-.976 5.948-.165 7.462.165 13.733-1.878 20.698-1.506.86-1.712 2.888-.53 4.112-1.224 4.724-1.026 10.837-.819 15.23-2.523 5.625-.364 10.92-2.077 16.462-2.556.687.893 1.216.157 1.713-.158 9.157-1.712 16.776-2.366 25.67-4.235 1.174-.662 2.357-1.506 3.664-.82 7.007-3.788 15.478-4.11 22.973-7.006 7.62-2.689 15.23-5.907 23.056-8.149 3.913-2.043 8.513-3.259 12.384-5.22 9.894-4.6 19.88-9.521 29.045-15.312 1.547-.157 2.2-1.87 4.079-1.663 4.607-3.425 10.183-5.096 14.948-8.678 9-3.747 22.568-9.86 31.246-1.017.322 4.765 0 8.843-.207 13.732-.852.331 0 1.059 0 1.547-.157 1.39-.654 3.375-.48 4.922h-.165c-.521 3.218.165 7.288.165 10.515.323 9.158.48 16.338 3.905 24.28.488 1.878.662 3.756 1.547 5.98.165 2.201 2.688 3.831 2.366 6.561 2.366 3.086 1.663 7.28 4.4 10.184-.86 1.538 1.35 2.2.853 4.111 2.738 4.227 3.052 9.117 3.714 14.088-.165.488-.662.811-.819.968-5.98-7.28-16.495-4.227-23.783-2.68-28.359 10.514-53.987 26.803-81.8 38.69-11.739 6.073-24.288 8.844-36.83 13.039-25.338 6.32-51.124 10.92-77.448 13.443-34.256 2.365-68.232.488-102.696-3.053-11.325-1.018-21.914-3.218-32.908-5.79-3.02.33-6.113-1.341-9-1.713-15.603-3.218-30.51-7.95-45.83-12.219-10.664-3.375-21.179-6.932-32.099-10.349-14.055-4.037-27.655-8.314-41.429-14.055-8.264-3.748-16.09-6.643-24.602-10.027-7.777-2.2-14.792-6.965-23.056-8.338l-.364-.662c-1.547 1.506-2.2-1.216-3.913-.521-6.436-2.2-12.872-2.896-19.151-.166-1.382-.364-.687-2.027-.53-2.895 1.183-5.096 3.053-9.332 4.608-14.212 1.713-1.39 1.878-3.26 2.532-4.93 7.983-19.185 12.706-39.263 13.277-60.978.654-2.2 0-4.89 1.307-6.924-.488-2.366.852-4.765.331-7.33 1.547-.86 2.565-5.22 5.981-5.22 2.565-.165 5.741-.58 8.149.165 2.35-.752 4.062 1.126 6.138 1.622"/><path fill="#fff" d="M117.62 812.998c.53.33.695-.571 1.225 0-1.026 1.993-2.4 3.706-2.739 5.906-3.582 10.184-9.166 22.245-8.148 33.769 1.547 2.242.488 5.46 2.523 7.338 3.26 13.037 18.49 18.654 30.757 20.21 11.532 2.688 22.039 5.211 33.562 7.255 1.713.686 3.748 1.39 5.46.52 3.872 1.548 7.992 2.74 11.367 5.097 1.224.364 1.878 1.712 3.425 1.224 1.993 2.358 4.889 4.558 4.566 7.934-.86 3.383-4.889 4.285-7.619 5.418-3.102.571-4.972.174-7.859 1.067-18.985 2.035-38.294-3.218-56.824-4.922-1.183 0-3.55-2.2-4.6 0-8.96-1.72-17.157-.157-25.422-1.183-3.954.654-7.172.157-11.077 1.183-8.148.852-16.776 2.896-24.445 6.072-1.87 1.382-4.401-.165-6.105 1.87-8.149 2.937-16.455 6.519-23.916 11.077-1.911-.364-2.73 2.159-4.443 2.159 2.035-6.56 8.347-10.994 12.219-17.14 5.294-3.351 7.495-9.126 12.227-12.873 1.547-2.854 5.087-5.096 6.146-7.983 1.183-.985 2.366-2.043 3.053-3.02l.165.158c.977-2.739 4.236-3.425 4.89-5.948 2.398-1.713 4.11-2.929 5.947-4.964l.364-.976 11.21-9.53c.653-1.547-.687-2.523-2.044-3.177-4.971-2.035-9.166-5.99-14.419-7.33-.364-1.224-1.712-.496-1.878-1.546-3.259-.323-6.965-2.027-10.39-3.334-2.73-.91-6.23-.91-8.96-2.242-1.38 1.506-2.241-1.712-3.581 0-2.573-1.018-5.096 0-7.62-1.506-6.435.852-12.747.646-18.894 2.515l.248-.81c5.576-3.26 9.696-8.554 15.768-10.755 4.765-3.177 10.142-6.444 15.114-8.794 15.974-8.843 34.464-14.096 52.63-15.072 6.428.455 12.219.28 18.117 2.333M701.906 818.25c12.706 3.541 24.437 9.82 36.292 15.115 9 5.211 18.704 10.506 26.356 18.125.86.34 1.712 1.017 2.2 1.878-19.217-4.12-40.08-.86-56.7 9.009-3.549.653-6.974 2.887-9.373 5.625v1.018c2.937 2.564 5.824 5.41 8 7.941 12.781 10.713 23.461 22.576 33.314 34.472 2.688 3.913 5.542 6.643 7.784 11.044 1.713 3.582 4.277 6.966 6.47 10.217-2.201.976-2.896-2.358-4.766-2.606-18.05-9.778-36.87-17.803-57.412-20.698-16.454-1.059-30.55-1.059-46.36.819-2.853.405-6.278 0-9.29 1.059-1.546-.488-3.424.852-5.46.33-1.877 1.217-4.078-.165-6.104.853-10.027.157-21.55 1.39-31.254.52-4.6-2.2-10.341-2.555-13.236-7.329.86-2.523.537-6.436 4.078-6.924 9-6.8 22.08-6.601 32.958-9.53 15.445-2.035 30.344-3.185 42.405-13.401 3.748-5.419 10.027-9.158 11.086-15.76 2.357-6.312 4.07-12.715 3.02-19.399.322-2.68-1.39-5.534-2.532-8.273-2.2-5.129-3.376-10.547-6.263-15.47 11.69-2.233 23.064.662 34.787 1.366"/><path fill="#b2b2b2" d="M131.394 845.583c6.072 2.2 12.748 3.905 19.193 5.733 8.636 3.425 18.166 8.347 27.332 11.698 6.924 2.738 13.733 6.312 21.178 7.991.86 1.382 3.102.728 4.12 2.035 1.174-.34 2.2.654 3.342 1.059-.81 2.846-1.795 5.733-2.854 8.637.33 3.375-1.87 5.575-2.035 9.157-.323.207-.166.703-.166 1.026-5.137-5.782-13.443-7.172-20.21-9.87-16.826-2.688-33.487-4.888-49.743-9.852-.157-1.464-2.035-.496-3.052-1.141-4.401-3.268-11.044-6.478-12.748-12.55-.852-1.87-3.053-3.905-1.671-6.312 1.836-2.242 1.836-6.47 5.26-6.47 1.184-1.67 4.195-.495 5.908-1.67 2.076.695 4.111 1.01 6.146.53M668.84 851.159c0 3.582 2.2 6.477-1.547 8.678-1.39 2.358-.364 4.401-2.242 6.759-3.052 4.64-8.107 7.503-13.244 9.695-3.02 2.738-7.09 3.913-11.16 4.567-2.523.893-6.113 1.712-9.373 2.035-15.073 3.582-32.23 2.688-45.987 11.077-2.209 0-3.55 1.638-5.253 2.523l-.662-.894c-.57-4.202-2.2-8.314-2.358-13.203 4.724-1.39 7.776-4.442 12.541-5.782 2.854-1.878 6.445-4.079 10.027-5.055 7.784-5.294 17.108-7.867 24.768-12.955 1.72-.165 3.02-2.035 4.724-2.366 6.684-1.712 10.671-6.27 17.844-6.601 5.782-2.358 12.053-3.905 18.125-2.515l3.797 4.037"/><path fill="#fff" d="M667.971 860.656h.158l-.356 1.05h-.166l.364-1.05"/><path d="m181.741 791.489-.521-.091c-.331-.207-.488-.894-.405-2.077 0-1.183 0-2.159-.083-2.978-.083-.777-.488-1.712-1.224-2.846-.406-.653-1.018-1.257-1.713-1.753-.736-.53-1.423-.852-2.118-.977-.935-.206-1.87-.157-2.887.133-1.026.322-1.96.819-2.73 1.621-.819.82-1.39 1.878-1.63 3.193-.24 1.051-.157 2.201.166 3.376.33 1.183.819 2.316 1.464 3.416.571 1.1 1.307 2.242 2.118 3.376a132.916 132.916 0 0 0 2.325 3.3c1.422 2.151 2.481 4.153 3.218 5.981.653 1.713.777 3.657.364 5.783-.53 2.49-1.754 4.64-3.707 6.444-1.952 1.878-4.235 3.136-6.84 3.905-2.615.778-5.089.902-7.421.447-3.177-.687-5.626-1.638-7.413-2.937-1.712-1.349-2.928-2.565-3.499-3.789-.612-1.216-.86-1.96-.819-2.366.083-.405.364-.893.902-1.456a51.126 51.126 0 0 1 2.523-2.738c1.224-1.183 1.91-1.952 2.118-2.16.819.158 1.307.489 1.423 1.06.115.57.115 1.39 0 2.481-.687 5.419 1.183 8.637 5.542 9.49 1.473.338 2.896.247 4.277-.158 1.464-.488 2.606-1.216 3.582-2.283a6.747 6.747 0 0 0 1.787-3.417c.165-.902.165-1.91-.083-2.846a11.04 11.04 0 0 0-1.224-3.02c-.57-.984-1.266-2.034-2.118-3.267-.81-1.175-1.712-2.449-2.564-3.756-1.432-2.117-2.325-4.152-2.813-6.105-.405-1.92-.488-3.913-.083-6.03.406-1.597 1.183-3.301 2.523-5.096 1.307-1.754 3.177-3.136 5.419-4.195 2.325-.976 4.93-1.216 7.942-.57 2.11.496 3.913 1.141 5.377 2.208 1.464 1.018 2.482 2.035 3.176 3.136.687 1.1.977 1.919.853 2.399-.083.53-.613 1.19-1.423 1.96-.844.836-2.11 1.895-3.78 3.202M200.768 819.59l8.14-11.49 8.72.976a93.14 93.14 0 0 1-1.796 2.565c-.934 1.191-2.117 2.804-3.499 4.814-1.34 1.953-2.564 3.748-3.582 5.378-1.017 1.638-1.63 2.804-1.87 3.466-.653 1.87-.33 3.086.977 3.5.728.206 1.547.156 2.606-.125 1.025-.364 2.117-.778 3.259-1.348 1.142-.571 2.035-1.05 2.804-1.423l-1.092 3.375c-3.02 1.431-5.584 2.515-7.825 3.3-2.284.778-4.153.853-5.7.365-.976-.282-1.795-.82-2.366-1.622-.654-.736-1.06-1.712-1.142-2.936-.157-1.183.083-2.515.654-3.988l-.083-.165c-5.584 3.375-9.935 4.608-13.03 3.582-1.555-.521-2.564-1.539-3.176-3.02-.57-1.464-.488-3.507.364-6.064.57-1.836 1.754-4.194 3.466-6.924 1.704-2.804 3.83-5.75 6.436-8.967l8.48 1.017-6.395 8.968c-.778 1.059-1.63 2.44-2.689 4.153-1.017 1.67-1.588 2.854-1.836 3.466-.654 2.076-.248 3.416 1.266 3.946.603.157 1.505 0 2.73-.496 1.224-.439 2.448-1.142 3.664-1.994 1.175-.844 2.06-1.622 2.515-2.308"/><path d="M226.19 819.955c-1.87 1.43-3.748 2.738-5.7 3.913-1.87 1.224-3.582 2.159-5.055 2.73l-1.025 2.448.661.282a35.256 35.256 0 0 0 2.648-1.092c.976-.488 1.795-.902 2.481-1.349.695-.446 1.547-.935 2.573-1.547l.083.207a327.158 327.158 0 0 0-17.033 25.174l7.908 1.786a145.496 145.496 0 0 1 3.83-6.113c1.142-1.746 2.937-4.227 5.22-7.495.166.33.323.612.489.935.124.29.364.612.653.976.248.364.654.703 1.059 1.026.405.33.976.612 1.712.902 1.63.728 3.425.893 5.46.728 2.035-.273 4.079-.894 6.197-1.953a21.297 21.297 0 0 0 5.666-4.153c1.713-1.72 2.97-3.59 3.872-5.708 1.059-2.49 1.307-4.732.736-6.758-.57-2.036-1.795-3.508-3.665-4.286-1.39-.57-2.895-.777-4.517-.612-1.588.157-3.507.894-5.666 2.077l-.083-.166 3.177-4.36-7.007-1.63c-1.25 1.233-2.796 2.574-4.674 4.038m17.761 22.774c-1.712.48-3.053.894-4.153 1.142-1.017.248-1.547.405-1.63.488 0 .157-.082.53-.082 1.142.083.612.083.893.248.934.29.133 1.464-.074 3.59-.604a69.694 69.694 0 0 0 6.602-2.117l1.39-3.268c-2.3.976-4.302 1.795-5.965 2.283zm-11.25-17.107c.736-.728 1.546-1.217 2.398-1.63 1.506-.571 2.739-.728 3.624-.331.81.372 1.307.902 1.63 1.547.248.695.33 1.464.248 2.366a7.848 7.848 0 0 1-.737 2.606c-.653 1.547-1.712 3.26-3.259 5.054-1.547 1.787-3.177 3.26-4.964 4.236-1.753.976-3.375 1.224-4.765.57-.777-.272-1.257-.727-1.588-1.298-.281-.612-.521-1.464-.736-2.606l5.054-6.808c1.382-1.796 2.366-3.053 3.094-3.706z"/><path d="M264.566 852.094a8.362 8.362 0 0 1-4.566-.521c-1.547-.687-2.689-1.754-3.3-3.26-.654-1.505-.737-3.135-.282-5.013 2.076.323 4.235.405 6.436.48 2.2 0 4.318-.323 6.353-.968 2.044-.736 3.425-1.96 4.195-3.748.322-.818.455-1.712.405-2.688-.083-.894-.439-1.87-1.175-2.771-.695-.902-1.712-1.638-3.177-2.21-1.546-.686-3.342-.934-5.302-.81-1.87.157-3.913.736-5.907 1.671-2.035.935-3.871 2.242-5.501 3.863-1.663 1.663-2.929 3.5-3.83 5.543-1.175 2.846-1.307 5.46-.323 7.818.976 2.324 2.689 4.037 5.137 5.054 1.547.687 3.094 1.067 4.65 1.142 1.588.09 3.3-.075 5.17-.48 1.836-.405 3.954-1.15 6.395-2.076l1.39-3.26c-2.937 1.175-5.22 1.87-6.768 2.234m-4.483-15.884c1.183-1.298 2.366-2.241 3.582-2.845 1.265-.613 2.366-.728 3.3-.323 1.34.57 1.63 1.787.86 3.665-.777 1.795-2.117 3.094-3.995 3.904-1.87.91-4.103 1.15-6.759.613l.249-.613a15.754 15.754 0 0 1 2.763-4.4z"/><path d="m273.112 851.846-3.177 1.265 1.06-3.135c2.646-1.216 5.22-1.588 6.56-2.846-1.424-1.39-1.829-2.854-1.258-4.492.165-.48.687-1.265 1.464-2.275.728-1.067 1.795-1.96 3.02-2.622 1.265-.728 2.606-.803 4.078-.232 1.547.53 1.96 1.63 1.34 3.301-.405 1.183-1.505 2.804-3.21 4.773 3.425.844 7.165-.662 11.367-4.483l2.738.893-5.46 6.56c-.206.207-.819.976-1.87 2.242a60.07 60.07 0 0 0-2.779 3.5c-.778 1.108-1.307 2.076-1.63 2.853-.322.977-.322 1.713-.082 2.366.248.571.653.968 1.224 1.216.654.249 1.39.249 2.283.091.811-.248 1.96-.661 3.342-1.307 1.382-.661 2.242-1.025 5.295-2.606l-1.224 3.384c-4.89 2.399-6.8 3.185-8.546 3.756-1.754.604-3.342 1.009-4.641 1.174-1.39.133-2.565.05-3.582-.33-1.224-.406-2.118-1.3-2.565-2.64-.446-1.348-.446-2.804.166-4.434.521-1.464 1.58-3.019 3.135-4.69a34.939 34.939 0 0 1 5.303-4.608l-.091-.157c-1.588.323-3.334.248-5.294-.132-1.829 1.621-2.846 1.67-6.966 3.615"/><path d="M309.859 837.021c-2.035 2.532-4.07 5.386-6.105 8.48-2.035 3.102-3.83 6.072-5.295 8.802-1.472 2.804-2.448 5.22-2.937 7.337-.405 1.547-.57 3.02-.322 4.401.248 1.432.653 2.565 1.464 3.5.728.91 1.754 1.505 2.929 1.795 1.141.33 2.366.405 3.59.248 1.224-.165 2.606-.662 4.235-1.472 1.713-.778 3.508-1.87 5.46-3.218.737 1.108 1.473 1.877 2.118 2.415.612.57 1.382.894 2.283 1.142a7.584 7.584 0 0 0 3.136.157c1.025-.157 1.91-.57 4.93-2.854l.935-3.425c-2.804 2.126-3.384 2.531-3.872 2.895-.57.364-1.141.687-1.952.935-.819.24-1.588.24-2.366.083-1.547-.405-2.688-1.464-3.425-3.094a51.77 51.77 0 0 0 4.112-4.078c1.265-1.382 2.324-2.838 3.267-4.277.935-1.465 1.506-2.73 1.746-3.706.29-1.092.29-2.036.041-2.805-.207-.777-.777-1.257-1.547-1.431-1.183-.364-2.481-.074-3.954.819-1.506.902-2.846 2.126-4.078 3.756a15.264 15.264 0 0 0-2.565 5.418c-.53 1.911-.455 3.864.207 5.824-1.224.935-2.366 1.638-3.375 2.118-1.026.488-2.044.612-3.103.323-.934-.207-1.505-.728-1.828-1.622-.322-.819-.322-1.828-.041-3.02.521-2.2 2.076-5.294 4.36-9.248l5.046-2.937c1.1-.612 2.366-1.431 3.871-2.482a86.827 86.827 0 0 0 4.443-3.507 30.714 30.714 0 0 0 3.913-4.079c1.224-1.456 1.96-2.837 2.324-4.277.323-1.307.364-2.49.083-3.424-.248-1.01-.778-1.465-1.63-1.465l-10.878.207c-1.473 1.29-3.226 3.202-5.22 5.766m14.742-.604c-.207.778-.728 1.721-1.622 2.846-.935 1.109-2.076 2.242-3.425 3.425-1.381 1.183-2.771 2.324-4.318 3.425-1.506 1.026-3.02 1.993-4.484 2.804l-.082-.157c3.176-5.303 5.865-9.166 8.148-11.573 2.2-2.366 3.863-3.425 5.013-3.136.86.207 1.1 1.018.77 2.366z"/><path d="M338.01 838.89c.447.365.853.696 1.183.977.364.323.737.57 1.142.728.405.298.902.405 1.423.538 1.018.165 2.234-.042 3.466-.695-.364 2.564-1.141 4.36-2.448 5.385-1.3 1.06-2.772 1.464-4.36 1.142-1.87-.331-3.3-1.142-4.36-2.4 1.555-1.588 2.854-3.465 3.955-5.674m-5.75 13.525 8.231-.231.331.074-4.765 9.208c-.281.579-.695 1.307-1.1 2.167-.447.852-.728 1.506-.894 1.87-.248.405-.488 1.017-.81 1.96a14.162 14.162 0 0 0-.654 2.317c-.082.612-.033 1.141.133 1.63.206.496.52.818 1.092.91.976.206 1.96-.042 3.02-.662 1.017-.654 2.365-1.63 6.352-4.774l-.653 3.508c-4.848 3.871-7.255 5.418-9.489 6.395-2.242 1.017-3.83 1.464-4.848 1.265-1.224-.248-2.241-1.026-3.019-2.407-.81-1.431-.976-3.3-.57-5.7.496-2.978 1.505-5.948 3.019-8.96a170.366 170.366 0 0 1 4.624-8.57z"/><path d="M373.12 874.827c-.935.86-1.796 1.431-2.482 1.878-.737.405-1.307.57-1.787.521-1.423-.207-2.044-1.216-1.795-3.127.082-.902.488-2.366 1.224-4.327.695-2.035 1.307-3.664 1.87-4.889l3.664-8.876-1.795-.166-6.759 2.896c-.653-2.565-2.49-3.905-5.377-4.194-1.547-.158-3.26.157-5.22.976-1.952.819-3.83 2.035-5.824 3.582a19.425 19.425 0 0 0-4.765 5.542 17.904 17.904 0 0 0-2.242 6.925c-.248 2.605.207 4.806 1.423 6.593 1.225 1.795 2.606 2.738 4.319 2.895 1.547.157 2.97-.124 4.4-.86 1.465-.736 2.772-1.713 3.996-2.805 1.258-1.183 2.449-2.481 3.665-3.946l.083.075c-.248 1.712-.331 3.26-.083 4.64.24 1.39.687 2.45 1.382 3.219.653.777 1.588 1.183 2.688 1.307.81.083 1.837-.083 2.846-.53 1.1-.322 2.118-.893 3.053-1.547.934-.57 2.076-1.381 3.176-2.266 1.183-.935 2.077-1.638 2.722-2.209l.405-3.54c-.868.686-1.762 1.455-2.788 2.233m-10.87-16.496c.447.695.654 1.721.488 2.97-.124 1.225-.488 2.606-1.141 4.327a27.802 27.802 0 0 1-2.44 4.889 17.68 17.68 0 0 1-3.177 3.756c-1.225.976-2.366 1.43-3.417 1.298-.86-.074-1.547-.48-2.035-1.216-.496-.728-.695-1.712-.57-2.845.165-1.878.81-3.955 1.91-6.28 1.1-2.357 2.407-4.326 3.872-5.865 1.547-1.638 3.02-2.366 4.483-2.208.886.074 1.54.48 2.027 1.174zM412.762 838.734c1.059 0 2.275.29 3.706.819 1.464.48 2.639.728 3.789.728.935.09 1.787-.249 2.688-.728.82-.489 1.307-.737 1.547-.737.331 0 .737.083 1.307.439.488.33.778.703.778 1.108-.041.075-.083.232-.157.439-.124.132-.364.405-.687.736-.33.364-.662.778-1.026 1.183-1.183 1.224-2.159 2.771-2.895 4.566-.728 1.787-1.382 4.393-1.96 7.702-.489 3.458-.977 6.23-1.308 8.389-.397 2.167-.852 4.244-1.456 6.229-.53 2.035-1.307 3.83-2.242 5.534-.934 1.721-2.159 3.268-3.582 4.732-1.257 1.266-2.804 2.366-4.765 3.218-2.002.935-4.16 1.39-6.61 1.349-2.448 0-4.442-.406-6.072-1.142-1.63-.778-2.804-1.63-3.582-2.697-.777-1.059-1.183-1.952-1.183-2.68 0-.91.571-1.804 1.713-2.78.405-.231.902-.612 1.431-1.05a5.321 5.321 0 0 1 1.257-.902c.282-.157.522-.29.811-.29.736 0 1.092.207 1.225.613.124.488.157 1.307.157 2.399 0 1.472.33 2.804 1.059 4.111.653 1.299 1.828 1.96 3.416 1.96.902 0 1.63-.156 2.325-.57a6.898 6.898 0 0 0 1.63-1.216c.934-.86 1.679-1.96 2.241-3.26.571-1.224 1.018-2.647 1.34-4.243.373-1.58.695-3.293 1.018-5.212.29-1.87.57-3.334.778-4.393.612-2.44 1.216-4.517 1.878-6.196a21.686 21.686 0 0 1 2.241-4.492 28.722 28.722 0 0 1 2.979-3.748 114.048 114.048 0 0 1 4.558-4.442l-.124-.116c-1.092.48-2.118.81-3.094.968-.976.166-1.754.248-2.275.248-.571 0-1.142-.082-1.795-.281a20.127 20.127 0 0 1-1.953-.57 38.279 38.279 0 0 1-1.638-.522c-.405-.09-.81-.174-1.257-.174-1.754 0-3.177.662-4.285 1.96-1.142 1.217-1.713 2.524-1.713 3.906 0 .976.157 1.753.571 2.241.364.53.852.935 1.547 1.465.612.53.902.935.902 1.265-.042.687-.488 1.456-1.307 2.358-.852.894-1.63 1.299-2.275 1.299-.737 0-1.506-.57-2.284-1.671a7.599 7.599 0 0 1-1.017-4.029c0-1.348.364-2.854 1.216-4.492.852-1.63 1.878-3.177 3.218-4.558a19.298 19.298 0 0 1 4.401-3.508c1.638-.819 3.226-1.265 4.815-1.265M429.224 857.96l7.611-1.961c-.612 1.96-1.142 3.83-1.547 5.625-.447 1.754-.778 3.342-.935 4.724l.157.09c1.547-2.035 2.896-3.755 4.112-5.137 1.183-1.43 2.564-2.771 4.078-3.995 1.547-1.217 3.053-1.911 4.434-2.035.728-.05 1.39.09 2.035.405.654.33 1.142.777 1.465 1.39.364.653.612 1.381.653 2.2.083.935-.041 2.2-.364 3.756a81.01 81.01 0 0 1-1.39 5.46c-.57 2.027-1.017 3.623-1.265 4.724-.331 1.108-.439 1.952-.406 2.514.083 1.225.737 1.878 1.796 1.804.728-.091 1.753-.736 3.093-2.126 1.3-1.258 2.524-2.772 3.79-4.443l.289 3.508a39.786 39.786 0 0 1-5.824 5.907c-2.076 1.72-4.112 2.605-6.072 2.738-1.216.083-2.358-.29-3.417-1.018-.976-.86-1.547-2.242-1.72-4.235-.083-1.142.09-2.515.455-4.236.405-1.712.934-3.83 1.67-6.395.729-2.564 1.06-4.111 1.06-4.525 0-.686-.373-1.017-.902-.976-1.299.091-4.153 3.268-8.554 9.538-.248 2.275-.405 4.27-.405 5.874 0 1.547.082 3.26.206 5.212l-6.841 2.159c-.447-2.4-.687-4.608-.852-6.519a35.96 35.96 0 0 1 .653-9.894 70.01 70.01 0 0 1 2.937-10.134M495.951 835.069c.199-.091.53 0 .976.24.488.24.852.488 1.1.777-.777 1.026-1.265 2.168-1.596 3.301-.323 1.142-.48 2.606-.48 4.393 0 1.878.157 4.285.53 7.429.363 2.771.446 5.377.363 7.652-.082 2.275-.405 4.318-.934 6.113a21.668 21.668 0 0 1-2.325 5.055c-1.183 1.878-2.804 3.582-4.89 5.212-2.117 1.547-4.483 2.605-7.254 3.259-2.78.612-5.055.397-6.842-.662-1.786-1.059-2.895-2.449-3.342-4.235-.157-.82-.082-1.432.248-1.961.447-.736 1.308-1.63 2.606-2.813 1.258-1.141 2.118-1.712 2.449-1.828.364-.05.695-.05 1.059.075.248.165.488.405.57.818.092.249.166.985.249 2.284.083 1.307.157 2.126.24 2.49.57 2.399 1.96 3.416 4.153 2.928.661-.207 1.307-.53 2.043-1.183.687-.57 1.216-1.141 1.63-1.745 1.059-1.837 1.712-4.112 1.87-6.891a43.585 43.585 0 0 0-.323-8.513c-.282-3.052-.406-5.7-.406-7.784.083-2.118.29-3.905.654-5.253.33-1.39.902-2.648 1.638-3.864 1.05-1.638 2.2-2.936 3.416-3.83 1.25-.844 2.102-1.39 2.598-1.464m-5.46-5.667c2.449-.57 4.641-.728 6.51-.48 1.961.19 3.583.687 4.972 1.498 1.34.736 2.45 1.795 3.425 3.02a11.592 11.592 0 0 1 1.795 3.995c.406 1.919.489 3.582.323 5.096-.24 1.505-.778 2.895-1.63 4.235a10.14 10.14 0 0 1-1.96 2.242c-.736.728-1.39 1.142-1.87 1.258-.935.206-1.795-.05-2.78-.687-.33-.174-.488-.405-.488-.662-.082-.322 0-.653.249-1.026.157-.438.446-.934.686-1.464 1.671-3.177 2.16-6.23 1.465-9.158-.364-1.588-1.1-2.895-2.077-3.83-1.067-.968-2.283-1.63-3.756-1.878-1.39-.231-2.845-.157-4.434.174a19.25 19.25 0 0 0-7.536 3.574c-2.2 1.712-3.748 3.706-4.806 5.865-.977 2.167-1.34 4.078-.977 5.874.331 1.348.935 2.283 1.796 2.895.48.24 1.009.447 1.546.53.571.082.935.248 1.183.33.199.083.364.406.447.894.116.496-.53 1.265-1.91 2.366-1.432 1.059-2.4 1.63-2.896 1.787-.935.165-1.986-.158-3.094-1.208-1.018-1.067-1.713-2.283-2.027-3.756-.405-1.638-.405-3.342 0-5.22.323-1.787 1.183-3.747 2.44-5.692a21.919 21.919 0 0 1 6.114-6.518c2.49-1.895 5.617-3.194 9.29-4.054zM512.893 862.683l-.695.165-.852-2.49c1.3-2.647 2.118-4.889 2.4-6.759-1.961-.124-3.219-1.009-3.79-2.647-.157-.488-.33-1.423-.33-2.73-.083-1.257.206-2.564.736-3.904.57-1.34 1.547-2.242 3.052-2.78 1.506-.488 2.565.132 3.136 1.754.405 1.216.52 3.135.438 5.708 3.218-1.39 5.22-4.98 6.072-10.506l2.648-1.067-.166 8.586c0 .249 0 1.183-.041 2.805 0 1.72 0 3.143.082 4.525.083 1.34.24 2.407.489 3.218.322.976.81 1.588 1.39 1.911.57.29 1.14.364 1.745.157.612-.207 1.183-.686 1.754-1.348.57-.687 1.133-1.704 1.828-3.086.695-1.348 1.1-2.2 2.159-4.4l1.15 3.424c-1.92 3.954-2.978 5.79-4.004 7.338a23.91 23.91 0 0 1-2.895 3.83c-.935.976-1.911 1.63-2.888 1.952-1.298.455-2.523.248-3.747-.446-1.142-.728-2.076-1.911-2.606-3.583-.488-1.43-.653-3.333-.488-5.625.157-2.242.57-4.517 1.216-6.89l-.157-.075c-1.059 1.216-2.449 2.283-4.153 3.218-.389 2.415-1.53 5.642-3.483 9.745"/><path d="M560.8 842.572a8.86 8.86 0 0 1-.53 1.299 2.715 2.715 0 0 1-.769 1.059c-.33.33-.778.662-1.39.901-1.257.53-2.647.53-3.995-.082 0-3.02-.282-5.708-.654-8.107-.405-2.325-.976-4.36-1.72-6.072-.398-.968-.729-1.705-1.06-2.16-.363-.405-1.058-.661-2.076-.661-1.017-.034-2.49.364-4.36 1.108-1.621.687-3.176 1.787-4.682 3.26-1.547 1.455-2.804 3.218-3.789 5.211-1.017 2.044-1.547 4.319-1.67 6.85-.117 2.44.363 5.005 1.43 7.578.86 2.076 1.878 3.582 3.26 4.64 1.265 1.051 2.647 1.63 4.078 1.787 1.382.166 2.689 0 3.863-.488 1.961-.819 3.508-2.117 4.683-3.946 1.141-1.828 1.993-3.946 2.407-6.436 1.307.199 2.316.248 3.053.199.81-.042 1.505-.24 2.233-.521a5.726 5.726 0 0 0 2.242-1.597c.612-.728 1.1-1.588 1.878-3.656l-1.34-3.301c-.687 1.902-.935 2.639-1.092 3.135m-10.39 8.67c-.489 1.009-1.018 1.58-1.663 1.878-1.225.488-2.366.28-3.467-.613-1.1-.934-1.96-2.2-2.638-3.83a27.892 27.892 0 0 1-1.878-7.122c-.249-2.325 0-4.36.728-6.155.736-1.713 1.878-2.929 3.582-3.657.661-.248 1.141-.405 1.39-.339-1.796 3.268-2.036 6.478-.729 9.696 1.142 2.77 3.053 4.889 5.824 6.27-.29 1.638-.62 2.854-1.15 3.872z"/><path d="M580.513 836.947c-.81 1.381-1.96 2.357-3.416 3.02-1.547.644-3.094.727-4.65.23-1.538-.57-2.845-1.629-3.83-3.176 1.547-1.381 3.177-2.846 4.641-4.434 1.506-1.597 2.73-3.383 3.582-5.294.902-1.961.935-3.83.166-5.626-.405-.852-.935-1.505-1.72-2.159-.729-.57-1.713-.902-2.805-.976-1.142-.124-2.4.157-3.789.81-1.588.662-2.97 1.796-4.153 3.351-1.224 1.506-2.2 3.334-2.854 5.452a20.38 20.38 0 0 0-.902 6.684c.124 2.366.571 4.525 1.506 6.519 1.257 2.895 3.094 4.765 5.46 5.625 2.399.86 4.806.736 7.288-.372 1.473-.687 2.813-1.539 3.913-2.64 1.224-1.108 2.2-2.448 3.185-4.119.935-1.58 1.87-3.665 2.846-6.064l-1.465-3.3c-1.125 2.961-2.15 5.12-3.003 6.469m-14.667-7.495c-.157-1.713-.041-3.26.331-4.558.405-1.308 1.059-2.201 2.035-2.606 1.299-.571 2.449.041 3.26 1.87.728 1.753.852 3.664.24 5.625-.687 1.96-2.077 3.755-4.236 5.377l-.281-.645c-.695-1.647-1.183-3.318-1.349-5.063z"/><path d="M579.256 803.376c0 2.73.116 5.791.397 9.282.281 3.425.778 6.85 1.423 10.184.662 3.425 1.555 6.353 2.697 8.885 1.142 2.606 2.482 4.392 3.996 5.377 1.464.976 2.77 1.39 3.987 1.299 1.216-.083 2.275-.323 3.135-.687 1.431-.695 2.978-1.96 4.443-3.913 1.538-1.994 3.135-4.856 4.723-8.636l-1.464-3.26c-1.15 2.978-2.2 5.137-3.02 6.56-.777 1.456-1.795 2.482-3.093 3.086-1.06.405-2.118.34-3.136-.438-1.017-.737-1.91-1.878-2.556-3.384-.695-1.456-1.224-2.937-1.638-4.318.695-2.118 1.349-4.327 1.878-6.726a40.526 40.526 0 0 0 1.142-7.172c.248-2.4.165-4.765-.207-7.214-.323-2.49-1.01-4.806-1.986-7.09-.653-1.547-1.43-2.605-2.2-3.333-.82-.695-1.547-.695-2.2 0l-6.106 5.948c-.174.984-.215 2.862-.215 5.55m9.083-5.823c.654 1.34 1.06 3.052 1.3 5.013.247 1.91.28 3.904.206 5.948-.083 2.126-.29 4.078-.612 5.873a35.64 35.64 0 0 1-1.1 4.401l-.158-.09c-1.067-4.476-1.753-8.472-2.167-11.897-.414-3.416-.57-6.105-.488-8.065.083-1.953.405-2.97.819-3.177.728-.331 1.464.314 2.2 1.994z"/><path d="M598.11 792.382c.52.091 1.058.166 1.464.207.488.041.934.041 1.39 0 .48-.041.976-.157 1.464-.364.976-.488 1.828-1.257 2.523-2.449 1.092 2.325 1.464 4.277.935 5.824-.489 1.589-1.506 2.647-3.053 3.301-1.72.778-3.342.91-4.972.405.488-2.2.538-4.492.248-6.924m2.648 14.452 6.717-4.674.33-.157 1.068 10.341c.083.654.157 1.423.24 2.399.124.935.198 1.597.281 2.076.083.406.207 1.051.447 2.036.157.893.405 1.67.686 2.274.249.613.571 1.026 1.026 1.349.406.281.894.364 1.382.116.902-.406 1.67-1.142 2.209-2.2.397-1.068 1.058-2.607 1.712-4.642l1.423 3.26c-1.018 3.094-2.168 5.7-3.5 7.743-1.348 2.076-2.407 3.342-3.375 3.714-1.15.488-2.407.364-3.83-.364-1.431-.695-2.606-2.2-3.582-4.442-1.216-2.738-1.994-5.783-2.366-9.092a136.167 136.167 0 0 1-.868-9.737z"/><path d="M642.426 807.132a6.94 6.94 0 0 1-.522 1.258 3.632 3.632 0 0 1-.777 1.092c-.364.33-.82.612-1.39.819-1.299.57-2.647.57-3.987-.05 0-3.053-.29-5.741-.654-8.099-.397-2.358-.976-4.4-1.671-6.122-.447-.967-.778-1.67-1.092-2.11-.364-.404-1.059-.66-2.043-.66-.968-.084-2.44.33-4.393 1.091-1.547.703-3.135 1.72-4.682 3.185a18.397 18.397 0 0 0-3.79 5.253c-1.017 2.002-1.546 4.327-1.67 6.767-.207 2.482.33 5.088 1.348 7.66.86 2.036 1.953 3.583 3.26 4.641 1.298 1.051 2.647 1.622 4.078 1.787 1.39.166 2.689 0 3.863-.488 1.96-.777 3.55-2.118 4.683-3.904 1.216-1.804 2.035-3.996 2.481-6.436 1.258.206 2.242.28 3.053.206a6.353 6.353 0 0 0 2.2-.537c.894-.323 1.672-.894 2.284-1.547.612-.728 1.05-1.63 1.456-2.697l-1.382-3.301c-.24.96-.48 1.655-.653 2.192m-10.424 8.629c-.488.934-1.059 1.538-1.67 1.786-1.258.489-2.367.323-3.459-.57-1.059-.902-1.96-2.2-2.606-3.79-.976-2.49-1.588-4.855-1.878-7.18-.248-2.316 0-4.351.737-6.064.728-1.836 1.91-3.02 3.623-3.755.695-.24 1.142-.364 1.39-.331-1.828 3.26-2.077 6.519-.778 9.695 1.1 2.805 3.053 4.89 5.783 6.312-.24 1.613-.645 2.879-1.142 3.897z"/><path fill="#fec66f" d="M138.12 68.571 160.2 3.838l22.162 64.733 68.39 1.059-54.708 41.065 20.12 65.337-55.965-39.353-55.898 39.353 20.12-65.337L69.68 69.63z"/><path fill="none" stroke="#000" stroke-width="2.48178" d="M138.12 68.571 160.2 3.838l22.162 64.733 68.39 1.059-54.708 41.065 20.12 65.337-55.965-39.353-55.898 39.353 20.12-65.337L69.68 69.63z"/><path fill="none" stroke="#000" stroke-width="2.48178" d="M160.2 136.68c.28-1.258 0-37.64 0-37.64l35.844 11.639M182.362 68.57l-22.163 30.476V3.838M69.68 69.63l90.52 29.417-35.771 11.648m91.734 65.337L160.191 99.04l90.56-29.417m-112.631-1.05 22.08 30.475-55.89 76.985"/><path fill="#fec66f" d="M366.568 68.571 388.68 3.838l22.121 64.733L479.2 69.63l-54.707 41.065 20.12 65.337-55.932-39.353-55.964 39.353 20.16-65.337L298.17 69.63z"/><path fill="none" stroke="#000" stroke-width="2.48178" d="M366.568 68.571 388.68 3.838l22.121 64.733L479.2 69.63l-54.707 41.065 20.12 65.337-55.932-39.353-55.964 39.353 20.16-65.337L298.17 69.63z"/><path fill="none" stroke="#000" stroke-width="2.48178" d="M388.68 136.68c.207-1.258 0-37.64 0-37.64l35.812 11.639m-13.69-42.108L388.68 99.047V3.838M298.17 69.63l90.51 29.417-35.804 11.648m91.735 65.337-55.94-76.993L479.2 69.622m-112.631-1.05 22.12 30.475-55.964 76.985"/><path fill="#fec66f" d="m592.98 68.571 22.163-64.733 22.112 64.733 68.406 1.059-54.715 41.065 20.169 65.337-55.972-39.353-55.973 39.353 20.16-65.337-54.706-41.065z"/><path fill="none" stroke="#000" stroke-width="2.48178" d="m592.98 68.571 22.163-64.733 22.112 64.733 68.406 1.059-54.715 41.065 20.169 65.337-55.972-39.353-55.973 39.353 20.16-65.337-54.706-41.065z"/><path fill="none" stroke="#000" stroke-width="2.48178" d="M615.143 136.68c.24-1.258 0-37.64 0-37.64l35.803 11.639m-13.69-42.108-22.113 30.476V3.838m-90.52 65.792 90.52 29.417-35.804 11.648m91.776 65.337L615.151 99.04l90.519-29.417m-112.69-1.05 22.163 30.475-55.981 76.985"/></svg>