<?xml version="1.0" encoding="utf-8"?>
<!-- Generator: Adobe Illustrator 13.0.2, SVG Export Plug-In . SVG Version: 6.00 Build 14948)  -->
<!DOCTYPE svg PUBLIC "-//W3C//DTD SVG 1.0//EN" "http://www.w3.org/TR/2001/REC-SVG-20010904/DTD/svg10.dtd">
<svg version="1.0" id="Ñëîé_1" xmlns="http://www.w3.org/2000/svg" xmlns:xlink="http://www.w3.org/1999/xlink" x="0px" y="0px"
	 width="512px" height="570.455px" viewBox="0 0 512 570.455" enable-background="new 0 0 512 570.455" xml:space="preserve">
<g>
	<path fill="#265B93" d="M33.566,345.822c-11.838-12.957-22.688-26.914-22.688-49.842c0-22.926,0-285.09,0-285.09h490.244
		c0,0,0,262.164,0,285.09c0,22.928-10.852,36.885-22.688,49.842C466.598,358.781,256,556.275,256,556.275
		S45.402,358.781,33.566,345.822z"/>
	<path fill="#DCB442" d="M501.123,2H2v293.98c0,26.262,12.912,42.594,25.016,55.842l0,0
		c11.93,13.063,214.309,202.869,222.916,210.941l6.068,5.691l6.068-5.691c8.607-8.072,210.986-197.879,222.916-210.941
		C497.088,338.574,510,322.242,510,295.98V2H501.123z M492.244,19.78c0,16.688,0,276.2,0,276.2c0,19.904-9.631,32.096-20.359,43.842
		C462.953,349.6,330.188,474.504,256,544.094C181.814,474.504,49.047,349.6,40.115,339.822l0,0
		c-10.729-11.746-20.361-23.938-20.361-43.842c0,0,0-259.512,0-276.2C36.559,19.78,475.443,19.78,492.244,19.78z"/>
	<path d="M501.123,0H2C0.896,0,0,0.896,0,2v293.98c0,26.977,13.183,43.666,25.539,57.191
		c11.71,12.82,201.43,190.799,223.024,211.051l6.068,5.691c0.77,0.721,1.967,0.721,2.736,0l6.068-5.691
		c21.595-20.252,211.313-198.23,223.024-211.051C498.816,339.646,512,322.957,512,295.98V2c0-1.104-0.895-2-2-2H501.123z M501.123,4
		c0,0,4.477,0,6.877,0c0,3.945,0,291.98,0,291.98c0,25.545-12.643,41.521-24.492,54.492
		C471.699,363.402,269.311,553.23,260.7,561.305c0,0-3.059,2.869-4.7,4.408c-1.642-1.539-4.7-4.408-4.7-4.408
		c-8.61-8.074-210.999-197.902-222.808-210.832C16.643,337.502,4,321.525,4,295.98C4,295.98,4,7.945,4,4
		C7.968,4,501.123,4,501.123,4z"/>
	<path d="M19.754,17.78c-1.104,0-2,0.896-2,2v276.2c0,20.617,9.879,33.141,20.885,45.191
		c8.913,9.756,139.963,133.061,215.993,204.381c0.77,0.721,1.968,0.721,2.736,0c76.019-71.307,207.054-194.596,215.993-204.381
		c11.006-12.049,20.883-24.57,20.883-45.191V19.78c0-1.104-0.896-2-2-2H19.754z M490.244,21.78c0,3.942,0,274.2,0,274.2
		c0,19.188-9.383,31.049-19.836,42.492c-8.805,9.639-138.242,131.43-214.408,202.879C179.822,469.889,50.371,348.084,41.592,338.473
		c-10.454-11.445-19.838-23.309-19.838-42.492c0,0,0-270.258,0-274.2C25.703,21.78,486.295,21.78,490.244,21.78z"/>
</g>
<g>
	<polygon fill="#FFFFFF" points="285.498,266.328 438.164,306.664 390.5,232.833 438.166,158.333 285.5,198.667 229.164,198.75 
		76.499,158.416 124.164,232.916 76.501,306.746 229.168,266.41 	"/>
	<path d="M437.656,156.399c0,0-151.92,40.137-152.418,40.268c-0.508,0.001-55.301,0.082-55.816,0.083
		c-0.503-0.134-157.373-41.578-157.373-41.578s48.393,75.637,49.738,77.739c-1.354,2.097-49.767,77.087-49.767,77.087
		s156.911-41.457,157.408-41.588c0.51,0,55.296-0.082,55.81-0.082c0.504,0.133,157.406,41.588,157.406,41.588
		s-48.414-74.991-49.768-77.088c1.346-2.103,49.74-77.739,49.74-77.739L437.656,156.399z M229.167,200.75l56.595-0.083
		c0,0,138.668-36.636,147.953-39.09c-4.906,7.671-45.592,71.261-45.592,71.261s40.6,62.889,45.561,70.574
		c-9.34-2.467-147.928-39.084-147.928-39.084l-56.849,0.082c0,0-138.586,36.617-147.926,39.084
		c4.961-7.686,45.56-70.573,45.56-70.573s-40.685-63.59-45.592-71.261c9.287,2.454,147.957,39.09,147.957,39.09H229.167z"/>
	<polygon fill="#FFFFFF" points="223.332,258.164 182.998,410.83 256.83,363.166 331.33,410.832 290.994,258.166 290.998,207.332 
		331.332,54.666 257.502,102.33 183.002,54.664 223.336,207.33 	"/>
	<path d="M330.246,52.985c0,0-70.652,45.613-72.749,46.968c-2.103-1.346-77.739-49.739-77.739-49.739s41.445,156.875,41.578,157.376
		c0,0.512-0.004,49.803-0.004,50.314c-0.132,0.5-41.586,157.406-41.586,157.406s74.992-48.414,77.089-49.768
		c2.103,1.346,77.739,49.738,77.739,49.738s-41.449-156.874-41.58-157.375c0-0.512,0.004-49.803,0.004-50.314
		c0.131-0.5,41.586-157.406,41.586-157.406L330.246,52.985z M225.266,258.675l0.066-0.251l0.004-51.354
		c0,0-36.636-138.669-39.09-147.956c7.671,4.907,71.261,45.593,71.261,45.593s62.888-40.6,70.573-45.561
		c-2.467,9.34-39.082,147.926-39.082,147.926l-0.004,51.354c0,0,36.639,138.668,39.092,147.957
		c-7.672-4.908-71.261-45.594-71.261-45.594s-62.89,40.6-70.575,45.561C188.718,397.01,225.266,258.675,225.266,258.675z"/>
	<g>
		<circle fill="#FFFFFF" cx="257.165" cy="232.333" r="55.38"/>
		<path fill="#265B93" d="M192.785,232.333c0,35.499,28.879,64.382,64.379,64.382s64.381-28.883,64.381-64.382
			s-28.881-64.379-64.381-64.379S192.785,196.834,192.785,232.333z M210.785,232.333c0-25.573,20.805-46.379,46.379-46.379
			s46.381,20.806,46.381,46.379c0,25.577-20.807,46.382-46.381,46.382S210.785,257.91,210.785,232.333z"/>
		<path d="M190.785,232.333c0,36.604,29.777,66.382,66.379,66.382s66.381-29.777,66.381-66.382
			c0-36.602-29.779-66.379-66.381-66.379S190.785,195.731,190.785,232.333z M194.785,232.333c0-34.396,27.983-62.379,62.379-62.379
			c34.396,0,62.381,27.983,62.381,62.379c0,34.397-27.984,62.382-62.381,62.382C222.769,294.715,194.785,266.73,194.785,232.333z"/>
		<path d="M208.785,232.333c0,26.678,21.703,48.382,48.379,48.382c26.678,0,48.381-21.704,48.381-48.382
			c0-26.676-21.703-48.379-48.381-48.379C230.488,183.954,208.785,205.657,208.785,232.333z M212.785,232.333
			c0-24.471,19.908-44.379,44.379-44.379c24.473,0,44.381,19.908,44.381,44.379c0,24.473-19.908,44.382-44.381,44.382
			C232.693,276.715,212.785,256.806,212.785,232.333z"/>
	</g>
</g>
<g>
	<path fill="#DCB442" d="M418.164,252.613h-65.516l-11.328,27.648c-2.813,6.844-4.211,11.945-4.211,15.32
		c0,2.688,1.211,5.047,3.648,7.078s7.695,3.352,15.789,3.953v5H303.5v-5c7.016-1.313,11.555-3.016,13.617-5.117
		c4.203-4.195,8.867-12.719,13.984-25.578l59.75-145.805h4.352l58.117,147.672c4.703,11.781,8.969,19.422,12.813,22.922
		c3.836,3.508,9.18,5.477,16.031,5.906v5h-66.258v-5c6.688-0.344,11.203-1.516,13.555-3.516s3.531-4.43,3.531-7.297
		c0-3.813-1.656-9.852-4.953-18.102L418.164,252.613z M414.227,242.613l-28.156-71.57l-29.32,71.57H414.227z"/>
	<path d="M390.852,128.113c-0.813,0-1.543,0.49-1.852,1.241L329.25,275.16c-4.996,12.555-9.551,20.934-13.547,24.92
		c-1.223,1.246-4.381,3.035-12.57,4.568c-0.947,0.176-1.633,1.002-1.633,1.965v5c0,1.105,0.895,2,2,2h53.047c1.105,0,2-0.895,2-2v-5
		c0-1.047-0.809-1.918-1.852-1.994c-9.496-0.705-13.211-2.291-14.656-3.494c-1.973-1.645-2.93-3.457-2.93-5.543
		c0-3.105,1.367-8.004,4.061-14.561c0,0,9.893-24.143,10.82-26.408c2.521,0,60.254,0,62.811,0c0.9,2.285,9.377,23.818,9.377,23.818
		c3.197,7.998,4.814,13.838,4.814,17.369c0,2.266-0.926,4.156-2.828,5.773c-1.373,1.168-4.633,2.645-12.359,3.043
		c-1.064,0.055-1.898,0.932-1.898,1.996v5c0,1.105,0.895,2,2,2h66.258c1.105,0,2-0.895,2-2v-5c0-1.055-0.82-1.93-1.875-1.996
		c-6.352-0.398-11.334-2.211-14.807-5.387c-3.596-3.273-7.732-10.736-12.305-22.188l-58.113-147.662
		c-0.301-0.765-1.039-1.268-1.861-1.268H390.852z M393.84,132.113c0.98,2.492,57.619,146.404,57.619,146.404
		c4.869,12.195,9.227,19.936,13.326,23.668c3.785,3.461,8.996,5.49,15.379,6.186c0,0.566,0,0.645,0,1.242
		c-3.645,0-58.613,0-62.258,0c0-0.564,0-0.631,0-1.176c6.105-0.498,10.391-1.723,12.852-3.816c2.809-2.391,4.234-5.357,4.234-8.82
		c0-4.1-1.668-10.262-5.096-18.844l-9.871-25.076c-0.303-0.765-1.039-1.268-1.861-1.268h-65.516c-0.813,0-1.543,0.49-1.852,1.242
		l-11.328,27.648c-2.934,7.139-4.359,12.398-4.359,16.078c0,3.301,1.469,6.199,4.367,8.613c2.576,2.148,7.598,3.508,15.07,4.215
		c0,0.553,0,0.625,0,1.203c-3.559,0-45.488,0-49.047,0c0-0.672,0-0.789,0-1.398c6.508-1.357,10.859-3.09,13.045-5.316
		c4.432-4.424,9.15-13.012,14.416-26.242c0,0,58.232-142.102,59.232-144.543C392.896,132.113,393.133,132.113,393.84,132.113z"/>
	<path d="M384.219,170.285l-29.32,71.57c-0.252,0.616-0.18,1.318,0.191,1.872s0.992,0.886,1.66,0.886h57.477
		c0.662,0,1.281-0.327,1.652-0.874c0.373-0.547,0.451-1.242,0.209-1.858l-28.156-71.57c-0.299-0.76-1.029-1.262-1.848-1.268
		C385.268,169.037,384.529,169.529,384.219,170.285z M386.033,176.41c3.061,7.778,23.402,59.488,25.258,64.203
		c-4.998,0-46.49,0-51.561,0C361.68,235.855,382.863,184.147,386.033,176.41z"/>
</g>
<g>
	<path fill="#DCB442" d="M147.664,252.613H82.148L70.82,280.262c-2.813,6.844-4.211,11.945-4.211,15.32
		c0,2.688,1.211,5.047,3.648,7.078s7.695,3.352,15.789,3.953v5H33v-5c7.016-1.313,11.555-3.016,13.617-5.117
		c4.203-4.195,8.867-12.719,13.984-25.578l59.75-145.805h4.352l58.117,147.672c4.703,11.781,8.969,19.422,12.813,22.922
		c3.836,3.508,9.18,5.477,16.031,5.906v5h-66.258v-5c6.688-0.344,11.203-1.516,13.555-3.516s3.531-4.43,3.531-7.297
		c0-3.813-1.656-9.852-4.953-18.102L147.664,252.613z M143.727,242.613l-28.156-71.57l-29.32,71.57H143.727z"/>
	<path d="M120.352,128.113c-0.812,0-1.543,0.49-1.851,1.241L58.751,275.16c-4.996,12.555-9.552,20.934-13.547,24.92
		c-1.223,1.246-4.382,3.035-12.572,4.568C31.686,304.824,31,305.65,31,306.613v5c0,1.105,0.896,2,2,2h53.047c1.104,0,2-0.895,2-2v-5
		c0-1.047-0.808-1.918-1.852-1.994c-9.495-0.705-13.211-2.291-14.657-3.494c-1.971-1.645-2.929-3.457-2.929-5.543
		c0-3.105,1.366-8.004,4.061-14.561c0,0,9.893-24.143,10.82-26.408c2.521,0,60.254,0,62.812,0
		c0.899,2.285,9.376,23.818,9.376,23.818c3.196,7.998,4.814,13.838,4.814,17.369c0,2.266-0.925,4.156-2.827,5.773
		c-1.374,1.168-4.634,2.645-12.361,3.043c-1.063,0.055-1.897,0.932-1.897,1.996v5c0,1.105,0.896,2,2,2h66.258c1.104,0,2-0.895,2-2
		v-5c0-1.055-0.821-1.93-1.875-1.996c-6.353-0.398-11.334-2.211-14.807-5.387c-3.595-3.273-7.733-10.736-12.305-22.188
		l-58.113-147.662c-0.301-0.765-1.039-1.268-1.861-1.268H120.352z M123.341,132.113c0.98,2.492,57.618,146.404,57.618,146.404
		c4.869,12.195,9.227,19.936,13.327,23.668c3.784,3.461,8.995,5.49,15.378,6.186c0,0.566,0,0.645,0,1.242
		c-3.646,0-58.612,0-62.258,0c0-0.564,0-0.631,0-1.176c6.104-0.498,10.39-1.723,12.851-3.816c2.811-2.391,4.235-5.357,4.235-8.82
		c0-4.1-1.667-10.262-5.096-18.844l-9.871-25.076c-0.302-0.765-1.039-1.268-1.861-1.268H82.148c-0.812,0-1.543,0.49-1.851,1.242
		L68.97,279.504c-2.934,7.139-4.36,12.398-4.36,16.078c0,3.301,1.47,6.199,4.368,8.613c2.575,2.148,7.598,3.508,15.069,4.215
		c0,0.553,0,0.625,0,1.203c-3.559,0-45.488,0-49.047,0c0-0.672,0-0.789,0-1.398c6.509-1.357,10.858-3.09,13.045-5.316
		c4.431-4.424,9.15-13.012,14.415-26.242c0,0,58.233-142.102,59.233-144.543C122.396,132.113,122.632,132.113,123.341,132.113z"/>
	<path d="M113.72,170.285l-29.32,71.57c-0.253,0.616-0.182,1.318,0.189,1.872c0.372,0.554,0.994,0.886,1.661,0.886h57.477
		c0.662,0,1.28-0.327,1.653-0.874c0.372-0.547,0.45-1.242,0.208-1.858l-28.156-71.57c-0.299-0.76-1.03-1.262-1.848-1.268
		C114.768,169.037,114.029,169.529,113.72,170.285z M115.533,176.41c3.06,7.778,23.402,59.488,25.258,64.203
		c-4.999,0-46.49,0-51.561,0C91.18,235.855,112.363,184.147,115.533,176.41z"/>
</g>
<path fill="#DCB442" d="M248,374.5c0,18.551-14.68,30.5-32.5,30.5c-18.783,0-38.5-8.826-38.5-31.5
	c0-19.439,16.127-28.332,16.813-28.701c2.909-1.563,4.021-5.189,2.472-8.105s-5.149-4.041-8.073-2.506
	C187.265,334.684,165,346.676,165,373.5c0,30.918,26.437,46.861,51,47c29.5,0.166,55-13.73,55-39.334l-0.001-247.499h19.333v-8.5
	h-62.499v8.5h20.166L248,374.5z"/>
<path d="M227.833,123.167c-1.104,0-2,0.896-2,2v8.5c0,1.104,0.896,2,2,2c0,0,14.92,0,18.166,0c0,3.934,0.001,238.833,0.001,238.833
	c0,16.514-12.827,28.5-30.5,28.5c-16.838,0-36.5-7.727-36.5-29.5c0-18.256,15.117-26.594,15.761-26.939
	c3.873-2.08,5.351-6.928,3.291-10.805c-2.06-3.879-6.891-5.375-10.77-3.34C186.293,332.936,163,345.457,163,373.5
	c0,31.633,27.301,48.855,52.988,49c19.298,0.109,36.212-5.643,46.405-15.779c6.938-6.898,10.606-15.736,10.606-25.555
	c0,0-0.001-241.563-0.001-245.499c3.215,0,17.333,0,17.333,0c1.105,0,2-0.896,2-2v-8.5c0-1.104-0.895-2-2-2H227.833z
	 M288.332,127.167c0,1.619,0,2.881,0,4.5c-3.215,0-17.333,0-17.333,0c-0.53,0-1.039,0.211-1.414,0.586s-0.586,0.884-0.586,1.414
	L269,381.166c0,8.855-3.172,16.498-9.427,22.719c-9.443,9.391-25.321,14.719-43.562,14.615c-24.355-0.137-49.012-15.639-49.012-45
	c0-25.65,21.235-37.066,22.14-37.541c1.938-1.018,4.35-0.264,5.379,1.672c1.03,1.939,0.29,4.365-1.651,5.406
	C192.137,343.43,175,352.881,175,373.5c0,24.727,21.817,33.5,40.5,33.5c19.99,0,34.5-13.668,34.5-32.5l-0.001-240.833
	c0-1.104-0.896-2-2-2c0,0-14.92,0-18.166,0c0-1.619,0-2.881,0-4.5C233.457,127.167,284.709,127.167,288.332,127.167z"/>
</svg>
