<?xml version="1.0" encoding="utf-8"?>
<!-- Generator: Adobe Illustrator 22.0.1, SVG Export Plug-In . SVG Version: 6.00 Build 0)  -->
<svg version="1.1" xmlns="http://www.w3.org/2000/svg" xmlns:xlink="http://www.w3.org/1999/xlink" x="0px" y="0px"
	 viewBox="0 0 750 750" style="enable-background:new 0 0 750 750;" xml:space="preserve">
<style type="text/css">
	.st0{fill:#FFFFFF;}
	.st1{fill:#CE363B;}
</style>
<g id="Layer_2">
</g>
<g id="Layer_1">
	<g id="Circle">
		<path class="st0" d="M375,705.1c-88,0-170.8-34.3-233.1-96.5s-96.5-145-96.5-233.1c0-88,34.3-170.8,96.5-233.1S287,45.9,375,45.9
			c88,0,170.8,34.3,233.1,96.5s96.5,145,96.5,233.1c0,88-34.3,170.8-96.5,233.1S463,705.1,375,705.1z"/>
		<path class="st1" d="M611.6,138.9c63.2,63.2,98,147.2,98,236.6s-34.8,173.4-98,236.6s-147.2,98-236.6,98s-173.4-34.8-236.6-98
			s-98-147.2-98-236.6s34.8-173.4,98-236.6s147.2-98,236.6-98S548.4,75.7,611.6,138.9z M699.6,375.5c0-86.7-33.8-168.2-95.1-229.6
			C543.2,84.6,461.7,50.9,375,50.9s-168.2,33.8-229.6,95.1c-61.3,61.3-95.1,142.8-95.1,229.6S84.1,543.7,145.4,605
			c61.3,61.3,142.8,95.1,229.6,95.1s168.2-33.8,229.5-95.1C665.9,543.7,699.6,462.2,699.6,375.5z"/>
		<path class="st1" d="M375,60.9c173.8,0,314.6,140.9,314.6,314.6S548.8,690.1,375,690.1S60.4,549.3,60.4,375.5S201.2,60.9,375,60.9
			z M619.6,375.5c0-65.3-25.4-126.8-71.7-173c-46.2-46.2-107.6-71.7-173-71.7s-126.8,25.4-173,71.7c-46.2,46.2-71.7,107.6-71.7,173
			s25.4,126.8,71.7,173c46.2,46.2,107.6,71.7,173,71.7s126.8-25.4,173-71.7C594.2,502.3,619.6,440.8,619.6,375.5z"/>
		<g id="XMLID_3_">
			<path class="st1" d="M289.5,585.2c12.9,8.4,25.7,14.9,37.3,19.9c-106.4-22.2-186.4-116.6-186.4-229.6
				c0-62.6,24.5-119.5,64.5-161.6v14.9c-35.3,40.8-54.5,92.2-54.5,146.7c0,60,23.4,116.4,65.8,158.8c19.3,19.3,41.4,34.6,65.5,45.6
				C284.3,581.7,287,583.5,289.5,585.2z"/>
			<path class="st1" d="M599.5,375.4c0-54.5-19.2-106-54.5-146.7v-14.9c40,42.1,64.5,99,64.5,161.6c0,113-80,207.4-186.4,229.6
				c11.6-5,24.4-11.5,37.3-19.9c2.7-1.8,5.3-3.5,7.9-5.4c24.1-11,46.2-26.3,65.5-45.6C576.2,491.8,599.5,435.4,599.5,375.4z"/>
			<path class="st1" d="M523.6,193.9h-16.3c-38.2-28-84.1-43.1-132.3-43.1s-94.1,15.1-132.3,43.1h-16.3
				c40.5-33.2,92.2-53.1,148.6-53.1S483.1,160.8,523.6,193.9z"/>
		</g>
	</g>
	<g id="Text">
		<g>
			<path class="st0" d="M102.3,497.2l14.6-6l-6.8-16.6l-14.6,6l-2.5-6.2l34.7-14.3l2.5,6.2l-14.7,6l6.8,16.6l14.7-6l2.5,6.2
				l-34.7,14.3L102.3,497.2z"/>
			<path class="st0" d="M84.9,445.9l32.7-24l1.7,6.8l-8,5.7l3.8,14.9l9.7,1l1.7,6.8l-39.9-4.6L84.9,445.9z M109.3,448.7l-2.7-10.8
				l-13,9.3L109.3,448.7z"/>
			<path class="st0" d="M79.2,416.5l13.6-12.7L77,393.9l-0.6-5.9l37.3-3.7l0.7,6.6l-26.2,2.6l0,0.2l14.1,8.6l0.1,0.9l-12.2,11.2
				l0,0.2l26.2-2.6l0.7,6.6l-37.3,3.7L79.2,416.5z"/>
			<path class="st0" d="M76.7,369.5l37.5,0.6l-0.1,6.7l-37.5-0.6L76.7,369.5z"/>
			<path class="st0" d="M77.5,351.9l31.7,2.9l1.5-16.7l5.6,0.5l-2.1,23.3l-37.4-3.4L77.5,351.9z"/>
			<path class="st0" d="M85,303.4l5.6,1.1l-2.3,12l31.3,6l-1.3,6.6l-31.3-6l-2.3,12l-5.6-1.1L85,303.4z"/>
			<path class="st0" d="M92,279.2c1.2-3.4,2.9-6.2,5.4-8.4c2.4-2.2,5.4-3.6,8.8-4.2c3.4-0.6,6.8-0.4,10.2,0.8c3.3,1.1,6.1,3,8.4,5.5
				c2.3,2.5,3.8,5.4,4.4,8.7s0.4,6.6-0.8,10.1c-1.2,3.4-3,6.2-5.5,8.4c-2.5,2.2-5.5,3.6-8.8,4.2c-3.3,0.6-6.7,0.3-10-0.8
				c-3.3-1.1-6.1-2.9-8.4-5.4c-2.3-2.5-3.8-5.4-4.5-8.7C90.5,286.1,90.8,282.8,92,279.2z M106.3,297c2.4,0.8,4.6,1,6.9,0.7
				c2.2-0.3,4.1-1.2,5.8-2.6s2.8-3.2,3.6-5.4c1.1-3.4,0.9-6.5-0.6-9.4c-1.6-2.9-4.1-5-7.7-6.2c-2.4-0.8-4.6-1-6.9-0.7
				c-2.2,0.3-4.1,1.2-5.8,2.6c-1.6,1.4-2.8,3.2-3.6,5.4s-0.9,4.4-0.5,6.5c0.4,2.1,1.4,4,3,5.6C102,295,103.9,296.2,106.3,297z"/>
			<path class="st0" d="M105.9,246.1l32.7-6l-23.2-12.2l3-5.8l33.2,17.5l-2.7,5.1l-33.2,5.9l23.6,12.4l-3,5.8l-33.2-17.5
				L105.9,246.1z"/>
			<path class="st0" d="M148.7,180.9l38.5,12.5l-4.5,5.4l-9.3-3.2l-9.9,11.7l4.8,8.4l-4.5,5.3l-19.5-35.1L148.7,180.9z M160.6,202.3
				l7.2-8.5l-15.1-5.1L160.6,202.3z"/>
			<path class="st0" d="M176.6,151.9c1.4-1.3,3-2.4,4.7-3.3s3.8-1.7,6.2-2.3l4.6,5c-2.5,0.4-4.6,1.1-6.3,1.8s-3.3,1.8-4.8,3.1
				c-1.8,1.7-3.1,3.5-3.8,5.7c-0.7,2.1-0.8,4.3-0.3,6.5c0.5,2.2,1.6,4.2,3.3,6.1c1.7,1.9,3.6,3.2,5.7,3.9c2.1,0.7,4.3,0.8,6.5,0.3
				c2.2-0.5,4.2-1.6,6-3.3c1.4-1.3,2.5-2.7,3.4-4.3c0.9-1.6,1.8-3.8,2.7-6.7l4.6,5c-0.8,2.4-1.7,4.5-2.7,6.2c-1,1.7-2.5,3.3-4.3,5
				c-2.7,2.4-5.6,4.1-8.8,4.8s-6.4,0.6-9.6-0.5c-3.2-1.1-6-2.9-8.4-5.5c-2.5-2.8-4.2-5.9-5-9.2c-0.8-3.4-0.6-6.6,0.5-9.8
				C172,157.3,173.9,154.4,176.6,151.9z"/>
			<path class="st0" d="M208.9,127.5l33.8,22.3l-5.8,4l-8.1-5.5l-12.7,8.7l2.4,9.4l-5.8,4l-9.5-39L208.9,127.5z M214.7,151.3
				l9.2-6.3l-13.2-9L214.7,151.3z"/>
			<path class="st0" d="M242,108.3c3.2-1.6,6.4-2.3,9.7-2.1c3.2,0.2,6.2,1.2,8.8,3.1c2.7,1.9,4.8,4.5,6.4,7.7
				c1.6,3.3,2.4,6.6,2.2,9.8s-1.2,6.2-3,8.8c-1.9,2.7-4.5,4.8-7.8,6.5l-12.6,6.2L229,114.7L242,108.3z M255.5,137.2
				c3.3-1.6,5.4-4,6.4-7.2s0.5-6.5-1.2-10c-1.8-3.6-4.2-6-7.3-7.1c-3.1-1.1-6.3-0.8-9.7,0.9l-6.2,3l11.6,23.5L255.5,137.2z"/>
			<path class="st0" d="M289.5,89.3l1.8,5.4l-14.8,5.1l3.2,9.3l14.2-4.8l1.8,5.4l-14.2,4.8l3.4,10.1l15.1-5.2l1.8,5.4l-21.4,7.3
				l-12.1-35.5L289.5,89.3z"/>
			<path class="st0" d="M305.9,84.9l14,12.3l8.3-16.7l5.8-1.2l7.3,36.8l-6.5,1.3l-5.1-25.8l-0.2,0l-7.2,14.9l-0.9,0.2l-12.3-11
				l-0.2,0l5.1,25.8l-6.5,1.3L300,86.1L305.9,84.9z"/>
			<path class="st0" d="M352.3,77.9l3.2,37.4l-6.6,0.6l-3.2-37.4L352.3,77.9z"/>
			<path class="st0" d="M381.9,76.7c2,0,3.9,0.3,5.7,0.8c1.9,0.5,3.9,1.4,6,2.6l-0.1,6.8c-2.1-1.4-4.1-2.3-5.8-3s-3.7-0.9-5.6-1
				c-2.5,0-4.7,0.5-6.7,1.5c-2,1.1-3.6,2.6-4.7,4.6s-1.7,4.2-1.8,6.7c0,2.5,0.5,4.8,1.5,6.8c1.1,2,2.6,3.6,4.5,4.7
				c2,1.1,4.2,1.7,6.6,1.7c1.9,0,3.7-0.2,5.4-0.8c1.7-0.6,3.9-1.6,6.6-3.1l-0.1,6.8c-2.3,1.2-4.3,2.1-6.2,2.6
				c-1.9,0.5-4.1,0.7-6.6,0.7c-3.6-0.1-6.9-0.9-9.7-2.5c-2.8-1.6-5.1-3.9-6.6-6.9c-1.6-3-2.4-6.2-2.3-9.8c0.1-3.8,1-7.2,2.7-10.1
				s4.1-5.3,7.1-6.8C374.8,77.4,378.2,76.6,381.9,76.7z"/>
			<path class="st0" d="M422,80.8l9.6,39.3l-7-1l-2.2-9.6l-15.2-2.3l-4.6,8.5l-6.9-1l19.6-35L422,80.8z M410.1,102.1l11,1.6
				l-3.6-15.5L410.1,102.1z"/>
			<path class="st0" d="M451.5,87l-8.5,30.7l16.1,4.5l-1.5,5.5l-22.6-6.3l10-36.2L451.5,87z"/>
			<path class="st0" d="M520.2,114.5l-2.6,5l-12.8-6.5l-4.4,8.6l12.8,6.5l-2.6,5.1l-12.8-6.5l-7.5,14.6l-5.9-3l17-33.4L520.2,114.5z
				"/>
			<path class="st0" d="M544.3,129.1c2.9,2,5.1,4.5,6.6,7.4c1.4,2.9,2,6.1,1.7,9.6c-0.3,3.4-1.5,6.7-3.5,9.6c-2,2.9-4.5,5.1-7.6,6.6
				s-6.3,2.2-9.6,1.9c-3.3-0.3-6.5-1.4-9.5-3.5c-2.9-2-5.1-4.6-6.6-7.6s-2-6.2-1.7-9.6c0.3-3.4,1.5-6.5,3.5-9.4
				c1.9-2.8,4.5-5,7.5-6.6c3.1-1.6,6.2-2.2,9.6-2C538,125.9,541.2,127,544.3,129.1z M523.3,138.1c-1.4,2.1-2.3,4.2-2.5,6.4
				c-0.3,2.2,0,4.3,1,6.3c0.9,2,2.3,3.6,4.3,4.9c2.9,2,6,2.7,9.2,2c3.2-0.7,6-2.6,8.1-5.8c1.4-2,2.3-4.2,2.5-6.4
				c0.3-2.2,0-4.3-1-6.3s-2.3-3.6-4.3-4.9c-1.9-1.3-4-2.1-6.1-2.2c-2.2-0.2-4.2,0.3-6.2,1.4C526.4,134.5,524.7,136,523.3,138.1z"/>
			<path class="st0" d="M581.4,159.3c2.6,2.5,4.4,5.3,5.3,8.4s1,6.4,0.2,9.7c-0.9,3.4-2.5,6.3-5,8.9c-2.4,2.5-5.3,4.3-8.5,5.3
				c-3.3,1-6.5,1.1-9.8,0.3c-3.2-0.8-6.2-2.4-8.8-5c-2.6-2.5-4.4-5.3-5.3-8.6c-1-3.2-1-6.5-0.1-9.7c0.9-3.3,2.5-6.2,5-8.8
				c2.4-2.5,5.2-4.3,8.5-5.3c3.3-1.1,6.5-1.2,9.7-0.4C575.7,155.1,578.7,156.7,581.4,159.3z M559.3,164.8c-1.7,1.8-2.9,3.8-3.5,5.9
				c-0.6,2.2-0.6,4.3-0.1,6.3c0.6,2.1,1.7,3.9,3.4,5.5c2.6,2.4,5.5,3.6,8.8,3.4c3.3-0.2,6.3-1.6,8.9-4.4c1.7-1.8,2.9-3.8,3.5-5.9
				s0.7-4.3,0.1-6.4c-0.6-2.1-1.7-3.9-3.4-5.5c-1.7-1.6-3.6-2.7-5.7-3.2s-4.2-0.4-6.3,0.4C562.9,161.7,561,163,559.3,164.8z"/>
			<path class="st0" d="M618.2,201.8l-4.4,3.5l-7.6-9.6l-24.9,19.9l-4.2-5.2l24.9-19.9l-7.6-9.6l4.4-3.5L618.2,201.8z"/>
			<path class="st0" d="M629.9,220.3c1.7,2.7,2.2,5.4,1.8,8s-1.9,4.7-4.2,6.1c-1.5,0.9-3,1.3-4.5,1.3c-1.5,0-3.1-0.5-4.5-1.5
				l-0.3,0.2c0.8,2.4,0.7,4.6-0.1,6.6c-0.8,2.1-2.2,3.7-4.2,4.9c-1.8,1.1-3.6,1.6-5.5,1.7c-1.9,0-3.7-0.5-5.3-1.5
				c-1.6-1.1-3-2.6-4.3-4.6l-7.6-12.3l32-19.6L629.9,220.3z M602.6,236.8c1.2,1.9,2.5,3.1,3.9,3.6c1.4,0.5,2.8,0.3,4.4-0.7
				c1.4-0.8,2.1-2,2.3-3.4c0.2-1.5-0.2-3-1.2-4.7l-3.3-5.4l-9,5.5L602.6,236.8z M615.7,226.9c0.9,1.5,2,2.5,3.3,2.8
				c1.3,0.4,2.7,0.2,4.1-0.7c1.2-0.8,2-1.8,2.2-3c0.2-1.2,0-2.5-0.8-3.8l-2.5-4.1l-8.5,5.2L615.7,226.9z"/>
			<path class="st0" d="M648.8,256.6l-28,29.2l-2.9-6.4l6.9-7l-6.3-14l-9.7,0.7l-2.9-6.4l40.1-2.3L648.8,256.6z M624.3,258l4.5,10.2
				l11.2-11.4L624.3,258z"/>
			<path class="st0" d="M659.3,284.7l-30.5,9.3l4.9,16l-5.4,1.7l-6.9-22.4l35.9-11L659.3,284.7z"/>
			<path class="st0" d="M667.4,315.5l-31.3,6l3.2,16.5l-5.6,1.1l-4.4-23l36.8-7.1L667.4,315.5z"/>
			<path class="st0" d="M673.7,386.7c0,2-0.3,3.9-0.9,5.7s-1.4,3.9-2.6,6l-6.8-0.2c1.4-2.1,2.4-4,3-5.8c0.6-1.8,1-3.7,1-5.6
				c0.1-2.5-0.4-4.7-1.5-6.7c-1.1-2-2.6-3.6-4.5-4.7c-2-1.1-4.2-1.7-6.6-1.8c-2.5-0.1-4.8,0.4-6.8,1.5c-2,1-3.6,2.5-4.7,4.5
				s-1.7,4.2-1.8,6.6c0,1.9,0.2,3.7,0.8,5.4c0.5,1.7,1.6,3.9,3,6.6l-6.8-0.2c-1.2-2.3-2.1-4.4-2.6-6.2c-0.5-1.9-0.7-4.1-0.6-6.6
				c0.1-3.6,1-6.9,2.6-9.7c1.6-2.8,4-5,7-6.6c3-1.6,6.3-2.3,9.8-2.2c3.8,0.1,7.1,1,10.1,2.8c3,1.8,5.2,4.1,6.8,7.1
				C673.1,379.7,673.8,383,673.7,386.7z"/>
			<path class="st0" d="M670.7,416l-31.5-4.7l-2.4,16.6l-5.6-0.8l3.4-23.2l37.1,5.5L670.7,416z"/>
			<path class="st0" d="M665.1,446.3l-21-5.8c-2.2-0.6-4-0.8-5.4-0.5c-1.4,0.2-2.8,0.9-4,2s-2,2.6-2.5,4.4c-0.5,2-0.6,3.7-0.2,5.3
				c0.4,1.6,1.2,2.9,2.4,3.9s3,1.8,5.4,2.5l20.6,5.7l-1.8,6.4l-21.5-5.9c-4.9-1.3-8.2-3.7-10.1-7.1s-2.1-7.6-0.8-12.5
				c0.9-3.1,2.2-5.6,4-7.5c1.8-1.9,4-3.2,6.6-3.8c2.6-0.6,5.4-0.4,8.4,0.4l21.7,6L665.1,446.3z"/>
			<path class="st0" d="M649.4,492.9c-1.2,2.9-3.1,4.9-5.5,6.1c-2.4,1.1-4.9,1.2-7.3,0.1c-1.6-0.7-2.8-1.6-3.7-2.9
				c-0.9-1.3-1.4-2.8-1.4-4.6l-0.3-0.1c-1.5,2-3.3,3.2-5.4,3.8c-2.1,0.6-4.3,0.4-6.4-0.6c-1.9-0.8-3.4-2-4.6-3.5
				c-1.1-1.5-1.7-3.3-1.8-5.2c-0.1-1.9,0.3-4,1.3-6.1l5.7-13.3l34.5,14.7L649.4,492.9z M620.2,480.2c-0.9,2.1-1.1,3.8-0.7,5.2
				c0.4,1.4,1.4,2.5,3.1,3.2c1.5,0.6,2.8,0.6,4.1-0.1c1.3-0.7,2.3-1.9,3.1-3.7l2.5-5.8l-9.8-4.2L620.2,480.2z M635.8,485.1
				c-0.7,1.6-0.8,3.1-0.4,4.4c0.4,1.3,1.4,2.3,2.9,2.9c1.3,0.6,2.6,0.6,3.7,0.1c1.2-0.5,2-1.5,2.6-2.9l1.9-4.4l-9.1-3.9L635.8,485.1
				z"/>
		</g>
		<g>
			<path class="st0" d="M338.2,633.8l-5.7,37.1l-6.3-1l5.7-37.1L338.2,633.8z"/>
			<path class="st0" d="M361.6,635.6c3.1,0.2,5.5,1.3,7.4,3.3s2.7,4.6,2.5,7.7c-0.2,3.4-1.7,6-4.6,7.8c1.7,1.1,2.9,2.4,3.7,4
				c0.7,1.5,1,3.3,0.9,5.3c-0.1,2.1-0.7,3.9-1.7,5.5c-1.1,1.6-2.5,2.9-4.2,3.7s-3.7,1.2-5.8,1.1c-3.3-0.2-5.9-1.3-8-3.5
				c-2-2.1-3-4.8-2.8-8c0.1-2.1,0.6-3.9,1.5-5.3c0.9-1.4,2.2-2.6,4-3.5c-2.7-2.1-4-4.8-3.8-8.2c0.2-3.1,1.3-5.5,3.3-7.4
				C356,636.2,358.6,635.4,361.6,635.6z M355.4,662.5c-0.1,1.8,0.3,3.3,1.1,4.4c0.8,1.1,2,1.7,3.5,1.8c1.5,0.1,2.7-0.4,3.6-1.4
				c0.9-1,1.4-2.4,1.5-4.2c0.1-1.8-0.3-3.2-1.1-4.4s-2-1.8-3.4-1.9c-1.5-0.1-2.7,0.4-3.7,1.4S355.4,660.7,355.4,662.5z M356.9,645.9
				c-0.1,1.6,0.2,2.9,1,4c0.7,1.1,1.7,1.6,2.9,1.7c1.2,0.1,2.2-0.4,3-1.4c0.8-1,1.3-2.3,1.4-3.8c0.1-1.6-0.2-2.9-0.9-3.9
				c-0.7-1-1.7-1.5-3-1.6c-1.3-0.1-2.3,0.3-3.1,1.2C357.4,643,357,644.3,356.9,645.9z"/>
			<path class="st0" d="M400.4,635.4l0,0.2l-12,38.4l-5.9-2.1l9.4-29.7l-13.7,0.7l-0.3-6.4L400.4,635.4z"/>
			<path class="st0" d="M422.5,631.7l3.3,21.6l2.9-0.4l0.8,5.4l-2.9,0.4l1.6,10.5l-6.3,1l-1.6-10.5l-13.9,2.1l-0.7-4.4l13.1-25.3
				L422.5,631.7z M417.8,643.9l-6,11.5l7.7-1.2l-1.6-10.4L417.8,643.9z"/>
		</g>
	</g>
	<g id="XMLID_2_">
		<path class="st1" d="M490.6,203.9v25h-24.4v-25h-44.4v25h-24.5v-25h-44.4v25h-24.5v-25h-44.5v25h-24.4v-25H215v226
			c0,151.6,160,180,160,180s160-28.5,160-180l0-156v-70H490.6z M225,263.9v-50h24.5v25h44.4v-25h24.5v25h44.5v-25h24.4v25h44.5v-25
			h24.4v25h44.4v-25H525v50H225z"/>
	</g>
	<g id="Cinquefoils">
		<g>
			<g id="XMLID_13_">
				<path class="st0" d="M395.7,476.7c6.5-2.1,11.6,6.9,15.5,8.7c0.6,0.3,0.8,1,0.5,1.5c-2.1,3.8-0.9,14.1-7.4,16.2
					c-7,2.3-12.2-6.9-14.4-0.2c-2.2,6.7,7.5,2.3,11.8,8.3c4,5.5-3,13.1-3.5,17.4c-0.1,0.6-0.7,1.1-1.3,0.9
					c-4.3-0.8-13.7,3.5-17.7-2.1c-4.3-5.9,2.8-13.7-4.2-13.7c-7,0,0.1,7.8-4.2,13.7c-4,5.5-13.4,1.2-17.7,2.1
					c-0.6,0.1-1.2-0.3-1.3-0.9c-0.5-4.3-7.5-11.9-3.5-17.4c4.3-5.9,13.9-1.6,11.8-8.3c-2.2-6.7-7.4,2.5-14.4,0.2
					c-6.5-2.1-5.3-12.4-7.4-16.2c-0.3-0.6-0.1-1.2,0.5-1.5c3.9-1.8,9-10.8,15.5-8.7c7,2.3,5.8,12.8,11.5,8.6s-4.7-6.3-4.7-13.6
					c0-6.8,10.1-8.9,13.1-12c0.4-0.5,1.2-0.5,1.6,0c3,3.2,13.1,5.2,13.1,12c0,7.3-10.3,9.5-4.7,13.6S388.8,479,395.7,476.7z
					 M384.6,499.7c1.1-6.6-4.6-12.3-11.2-11.2c-4,0.7-7.3,3.9-7.9,7.9c-1.1,6.6,4.6,12.3,11.2,11.2
					C380.7,507,383.9,503.7,384.6,499.7z"/>
			</g>
		</g>
		<g>
			<g>
				<g id="XMLID_15_">
					<path class="st0" d="M313.1,333.6c6.5-2.1,11.6,6.9,15.5,8.7c0.6,0.3,0.8,1,0.5,1.5c-2.1,3.8-0.9,14.1-7.4,16.2
						c-7,2.3-12.2-6.9-14.4-0.2c-2.2,6.7,7.5,2.3,11.8,8.3c4,5.5-3,13.1-3.5,17.4c-0.1,0.6-0.7,1.1-1.3,0.9
						c-4.3-0.8-13.7,3.5-17.7-2.1c-4.3-5.9,2.8-13.7-4.2-13.7c-7,0,0.1,7.8-4.2,13.7c-4,5.5-13.4,1.2-17.7,2.1
						c-0.6,0.1-1.2-0.3-1.3-0.9c-0.5-4.3-7.5-11.9-3.5-17.4c4.3-5.9,13.9-1.6,11.8-8.3c-2.2-6.7-7.4,2.5-14.4,0.2
						c-6.5-2.1-5.3-12.4-7.4-16.2c-0.3-0.6-0.1-1.2,0.5-1.5c3.9-1.8,9-10.8,15.5-8.7c7,2.3,5.8,12.8,11.5,8.6
						c5.7-4.1-4.7-6.3-4.7-13.6c0-6.8,10.1-8.9,13.1-12c0.4-0.5,1.2-0.5,1.6,0c3,3.2,13.1,5.2,13.1,12c0,7.3-10.3,9.5-4.7,13.6
						C307.3,346.3,306.1,335.9,313.1,333.6z M301.9,356.6c1.1-6.6-4.6-12.3-11.2-11.2c-4,0.7-7.3,3.9-7.9,7.9
						c-1.1,6.6,4.6,12.3,11.2,11.2C298,363.8,301.3,360.6,301.9,356.6z"/>
				</g>
			</g>
			<g>
				<g id="XMLID_16_">
					<path class="st0" d="M478.4,333.6c6.5-2.1,11.6,6.9,15.5,8.7c0.6,0.3,0.8,1,0.5,1.5c-2.1,3.8-0.9,14.1-7.4,16.2
						c-7,2.3-12.2-6.9-14.4-0.2c-2.2,6.7,7.5,2.3,11.8,8.3c4,5.5-3,13.1-3.5,17.4c-0.1,0.6-0.7,1.1-1.3,0.9
						c-4.3-0.8-13.7,3.5-17.7-2.1c-4.3-5.9,2.8-13.7-4.2-13.7c-7,0,0.1,7.8-4.2,13.7c-4,5.5-13.4,1.2-17.7,2.1
						c-0.6,0.1-1.2-0.3-1.3-0.9c-0.5-4.3-7.5-11.9-3.5-17.4c4.3-5.9,13.9-1.6,11.8-8.3c-2.2-6.7-7.4,2.5-14.4,0.2
						c-6.5-2.1-5.3-12.4-7.4-16.2c-0.3-0.6-0.1-1.2,0.5-1.5c3.9-1.8,9-10.8,15.5-8.7c7,2.3,5.8,12.8,11.5,8.6
						c5.7-4.1-4.7-6.3-4.7-13.6c0-6.8,10.1-8.9,13.1-12c0.4-0.5,1.2-0.5,1.6,0c3,3.2,13.1,5.2,13.1,12c0,7.3-10.3,9.5-4.7,13.6
						C472.6,346.3,471.4,335.9,478.4,333.6z M467.2,356.6c1.1-6.6-4.6-12.3-11.2-11.2c-4,0.7-7.3,3.9-7.9,7.9
						c-1.1,6.6,4.6,12.3,11.2,11.2C463.3,363.8,466.5,360.6,467.2,356.6z"/>
				</g>
			</g>
		</g>
	</g>
</g>
</svg>
