<?xml version="1.0" encoding="utf-8"?>
<!-- Generator: Adobe Illustrator 16.0.3, SVG Export Plug-In . SVG Version: 6.00 Build 0)  -->
<!DOCTYPE svg PUBLIC "-//W3C//DTD SVG 1.1//EN" "http://www.w3.org/Graphics/SVG/1.1/DTD/svg11.dtd">
<svg version="1.1" id="Capa_1" xmlns="http://www.w3.org/2000/svg" xmlns:xlink="http://www.w3.org/1999/xlink" x="0px" y="0px"
	 width="474px" height="541px" viewBox="0 0 474 541" enable-background="new 0 0 474 541" xml:space="preserve">
<g>
	<path fill="#12356E" d="M427.62,491.11c0,0-0.22-2.57-0.26-6.971c-1.551,1.49-3.17,2.82-4.86,3.98v12.99
		c0,13.27-11.63,24.09-24.83,24.33c-14.08,0.26-21.63-14.271-25.9-25.681c-1.239-3.31-3.6-9.819-11.05-5.75
		c-28.55,19.601-47.18,28.23-61.739,33.54c-18.641,6.83-45.311,12.561-62.341,12.561C88.99,540.11-0.33,433.44,1.33,271.58
		C2.84,125.12,88.83,5.44,231,2.11c34,0,74.33,9.33,124,42.5c5.18,3.13,11.67,7.83,15.17,1.67c5.53-12.92,9.83-29.67,28.49-29.22
		c18.01,0.05,23.84,17.33,23.84,24.05v28.52c10.083,6.73,17.69,18.23,21.5,33.23c6.333-11.667,14.75-19.81,26.5-30.25
		c0,0,15.375,61.125-23.875,95.75c-5.101,4.5-7.647,6.974-16.563,13.875c0,0,10.563,12,13.25,25.313
		c6.709-10.3,10.354-16.938,27.188-31.438c0,0,14.625,58.625-20.935,93.484c-4.737,4.644-11.964,10.541-19.105,15.316
		c6.04,5.7,10.502,14.218,13.182,24.328C450,297.11,458.251,289.611,470.5,278.11c0,0,13.125,57.25-17.625,89.875
		c-5.206,5.522-12.756,12.242-20.235,17.995c5.485,6.505,9.36,15.005,11.61,25.005C450.5,398.86,458,390.61,470.5,380.68
		C470.5,380.68,491.5,450.11,427.62,491.11"/>
	<path fill="#F5DE4A" d="M225.211,12.06c11.895-0.281,23.847,0.552,35.705,2.589c18.667,3.208,36.598,8.617,53.568,16.947
		c8.578,4.211,16.918,9.891,25.096,14.83c8.545,5.162,16.578,10.821,26.756,12.018c7.789,0.916,13.573-9.903,16.1-16.601
		c2.586-6.856,7.427-15.563,15.945-15.65c6.885-0.071,12.834,5.049,13.619,11.917v465c0,0-0.5,13-12.25,13s-15-9.75-15-9.75
		s-7.75-20.75-14.5-22c0,0-6.353-4.209-24.559,8.937c-2.631,1.899-5.351,3.681-8.129,5.358
		c-40.193,24.284-83.669,34.474-121.104,31.327c-37.274-3.133-73.409-12.343-104.762-33.162
		c-13.023-8.647-25.014-18.796-35.946-29.96c-29.19-29.809-46.855-69.355-56.53-109.514C10.009,319.111,7.797,279.6,12,240.609
		c4.155-38.541,14.935-77.058,32.334-111.833c17.231-35.578,47.916-67.167,78.273-85.941
		C153.368,23.812,189.097,12.913,225.211,12.06"/>
	<path fill="#12356E" d="M102.37,170.88c0,0-18.04,52.9-15.42,124.86c0.39,12.63,6.383,106.203,67.75,166.59
		c43.3,41.109,91.64,36.899,91.64,36.899c30.993-1.119,50.11-10.189,54.88-12.43c11.947-5.356,67.28-30.356,88.061-117.53
		l1.059-4.414c1.445-7.386,12.321-7.332,12.321,0.194v137.32c0,4.24-5.83,5.74-8.54,0.64l-5.29-10.979
		c-6.5-15.841-14.85-17.19-22.43-17.36c-3.101-0.07-7.36,0.6-10.53,1.79c-2.32,0.86-5.55,2.54-7.62,3.9
		c-6.93,4.56-30.51,19.81-53.07,28.55c-17.399,6.37-44.779,12.359-58.54,12.359c-60.979,0-109.52-16.02-151.06-58.43
		C43.5,419.86,19.34,352.7,20.17,271.78c0.71-68.6,21.18-131.14,57.66-176.11c37.9-46.72,91.61-73.05,153.42-74.56
		c57.875,0,104.266,33.909,106.021,34.91c9.354,5.34,38.479,27.59,52.35-6.79c0.57-1.4,2.72-6.11,5.11-11.23
		c1.88-4.03,7.93-2.69,7.93,1.76v141.894c0,5.992-8.428,6.117-9.41,0.206L390,164.61c-6.167-25.417-16.875-57.625-60.875-91.625
		C306.646,55.51,276.5,44.61,242.58,44.69C209.5,43.86,136.49,60.21,102.37,170.88"/>
	<path fill="#F5DE4A" d="M463.5,92.86c0,0-24.625,20.5-26.375,71.75C437.125,164.61,469.75,140.235,463.5,92.86"/>
	<path fill="#F5DE4A" d="M463.297,195.36c0,0-24.75,22-26.375,72.75C436.922,268.11,469.797,242.735,463.297,195.36"/>
	<path fill="#F5DE4A" d="M463.392,297.485c0,0-25.142,25.75-26.267,73.125C437.125,370.61,470.625,342.985,463.392,297.485"/>
	<path fill="#F5DE4A" d="M463.887,399.235c0,0-26.762,25.375-26.762,73.125C437.125,472.36,468.625,448.735,463.887,399.235"/>
	<path fill="#12356E" d="M397.83,196.11c-13.83,0.67-15.7-19.75-15.7-19.75c-5.83-47.87-35.96-78.44-60.21-95.65
		c-24.02-17.04-50.37-25.68-78.34-25.68c-20.63,0-96.58,3.08-132.37,119.19C93.1,245.65,96.77,289.94,97.27,295.03
		c0.22,7.939,4.11,102.66,64.19,159.029c24.64,23.11,53.19,34.83,84.87,34.83h0.01c27.19,0,47.15-8.96,50.311-10.47
		c5.989-2.41,64.02-27.81,82.56-111.61l1.021-4.59l-3.16-3.47c-15.641-17.19-16.521-44.36-15.101-61.82
		c25.03,31.181,24.86,56.851,24.86,56.851l6.84-2.67c-17.17-56,22.66-70.17,22.66-70.17v-4.5
		C408.83,279.28,376.67,236.44,397.83,196.11 M388.92,268.11c0,0-32.88-25.38-26.38-72.75
		C362.54,195.36,387.29,217.36,388.92,268.11 M382.36,309.24c-6.36-12.13-14.61-19.63-26.86-31.13c0,0-13.17,55.939,14.86,86.739
		C352.05,447.59,293,470.11,293,470.11s-66,33-125.33-22.67c-59.34-55.66-61.34-153-61.34-153s-5-44.331,13.67-118
		c18.67-73.66,70.67-100.66,83-105.33c12.33-4.67,62-19.67,113.67,17c51.66,36.67,55.45,81.62,56.58,90.38
		c1.13,8.74,2.63,11.62,4.5,15.5c1.87,3.87,6.75,6.62,6.75,6.62l-2.38,6.28c-6.71-10.3-9.79-16.28-26.62-30.78
		c0,0-14.62,58.62,20.94,93.48c4.729,4.65,11.96,10.54,19.1,15.32C389.75,289.11,383.5,300.23,382.36,309.24"/>
	<path fill="#12356E" d="M240.53,449.079c-0.561-0.4-1.32-1.029-1.87-1.43C225.4,438,212.33,428.45,196.85,422.58
		c-9.17-3.48-18.64-6.311-27.6-10.32c-0.04-0.01-0.07-0.03-0.11-0.04c-14.11-6.34-27.2-15.229-27.64-34.62
		c0-0.06-0.44-166.53-0.44-166.53c0-6.15-0.43-10.37-2.78-17.73c18.1-0.81,46.48-9.79,66.19-20.49
		c14.08-7.63,26.92-17.91,36.061-27.03c9.14,9.12,21.979,18.4,36.06,26.03c19.71,10.7,48.09,20.68,66.19,21.49
		c-2.351,7.36-2.78,11.58-2.78,17.73c0,0-0.44,166.47-0.44,166.53c-0.439,19.391-13.529,28.28-27.64,34.62
		c-0.04,0.01-0.07,0.03-0.11,0.04c-8.96,4.01-18.43,6.84-27.6,10.32c-15.479,5.87-28.55,15.42-41.81,25.069
		C241.85,448.05,241.09,448.679,240.53,449.079"/>
	<path fill="#F5DE4A" d="M170.67,252.44v150.8c-14.33-6.84-20.09-14.2-20.38-25.761c-0.01-2.479-0.12-44.47-0.33-125.04H170.67z"/>
	<path fill="#F5DE4A" d="M210.5,252.44v166.57c-3.4-1.71-6.9-3.27-10.53-4.649c-3.16-1.2-6.36-2.32-9.47-3.41V252.44H210.5z"/>
	<path fill="#F5DE4A" d="M250.63,252.44v178.55c-3.43,2.35-6.78,4.75-10.1,7.16c-3.351-2.431-6.74-4.86-10.2-7.23V252.44H250.63z"/>
	<path fill="#F5DE4A" d="M290.5,252.44v158.53c-3.09,1.08-6.27,2.2-9.41,3.391c-3.649,1.39-7.18,2.96-10.59,4.68v-166.6H290.5z"/>
	<path fill="#F5DE4A" d="M331.1,252.44c-0.21,80.58-0.319,122.57-0.33,125.04c-0.289,11.53-6.02,18.881-20.27,25.71V252.44H331.1z"
		/>
	<path fill="#F5DE4A" d="M185.59,226.08l6.47,5.42c-4.01,6.19-10.98,10.28-18.89,10.28c-12.43,0-22.5-10.08-22.5-22.5
		c0-12.43,10.07-22.5,22.5-22.5c8.04,0,15.09,4.22,19.06,10.56l-6.49,5.42c-2.35-4.55-7.1-7.65-12.57-7.65
		c-7.83,0-14.17,6.34-14.17,14.17c0,7.82,6.34,14.16,14.17,14.16C178.53,233.44,183.19,230.47,185.59,226.08"/>
	<path fill="#F5DE4A" d="M204.67,185.36v56.42h8.58v-10.75H224v10.75h8.25v-74.42L204.67,185.36z M224,223.11h-10.75v-33.25l10.75-7
		V223.11z"/>
	<path fill="#F5DE4A" d="M274.098,190.503c-6.456-7.409-14.206-13.77-21.727-20.053c-1.123-0.937-3.59-2.997-3.701-3.09v74.42h7.811
		v-13.94l6.609-1.54l4.91,15.48h9.17c0,0-6.779-18.557-6.78-18.56c0,0,3.257-2.11,4.614-3.465c1.319-1.271,2.483-2.706,3.422-4.28
		c1.812-3.034,2.729-6.545,2.585-10.078C280.771,199.567,277.808,194.759,274.098,190.503 M259.53,219.41l-3.05,0.82v-35.55
		l11.829,11.8C277.81,205.99,270.71,217.19,259.53,219.41"/>
	<path fill="#F5DE4A" d="M323.707,226.08l6.47,5.42c-4.01,6.19-10.98,10.28-18.891,10.28c-12.43,0-22.5-10.08-22.5-22.5
		c0-12.43,10.07-22.5,22.5-22.5c8.04,0,15.091,4.22,19.061,10.56l-6.49,5.42c-2.35-4.55-7.1-7.65-12.57-7.65
		c-7.829,0-14.17,6.34-14.17,14.17c0,7.82,6.341,14.16,14.17,14.16C316.646,233.44,321.307,230.47,323.707,226.08"/>
	<polygon fill="#12356E" points="240.53,78.551 247.69,100.588 270.862,100.588 252.116,114.208 259.276,136.245 240.53,122.626 
		221.784,136.245 228.944,114.208 210.198,100.588 233.37,100.588 	"/>
	<polygon fill="#12356E" points="290,103.753 294.87,118.741 310.628,118.741 297.879,128.003 302.749,142.991 290,133.728 
		277.251,142.991 282.121,128.003 269.372,118.741 285.13,118.741 	"/>
	<polygon fill="#12356E" points="191.519,103.753 196.389,118.741 212.146,118.741 199.397,128.003 204.268,142.991 
		191.519,133.728 178.77,142.991 183.64,128.003 170.891,118.741 186.648,118.741 	"/>
	<polygon fill="#12356E" points="322.152,136.245 327.021,151.232 342.78,151.232 330.031,160.495 334.9,175.482 322.152,166.219 
		309.403,175.482 314.272,160.495 301.523,151.232 317.282,151.232 	"/>
	<polygon fill="#12356E" points="159.345,136.245 164.215,151.232 179.973,151.232 167.224,160.495 172.094,175.482 
		159.345,166.219 146.596,175.482 151.466,160.495 138.717,151.232 154.475,151.232 	"/>
</g>
</svg>
