<?xml version="1.0" encoding="UTF-8" standalone="no"?>
<!-- Created with Inkscape (http://www.inkscape.org/) -->

<svg
   version="1.1"
   id="svg2"
   xml:space="preserve"
   width="877.78839"
   height="1000.2548"
   viewBox="0 0 877.78839 1000.2548"
   sodipodi:docname="club_atletico_rosario_central_de_rosario_santa_fe_2008_2015(1).svg"
   inkscape:version="1.1 (c68e22c387, 2021-05-23)"
   xmlns:inkscape="http://www.inkscape.org/namespaces/inkscape"
   xmlns:sodipodi="http://sodipodi.sourceforge.net/DTD/sodipodi-0.dtd"
   xmlns="http://www.w3.org/2000/svg"
   xmlns:svg="http://www.w3.org/2000/svg"><defs
     id="defs6"><clipPath
       clipPathUnits="userSpaceOnUse"
       id="clipPath16"><path
         d="M 0,455.724 H 399.927 V 0 H 0 Z"
         id="path14" /></clipPath></defs><sodipodi:namedview
     id="namedview4"
     pagecolor="#ffffff"
     bordercolor="#666666"
     borderopacity="1.0"
     inkscape:pageshadow="2"
     inkscape:pageopacity="0.0"
     inkscape:pagecheckerboard="0"
     showgrid="false"
     fit-margin-top="0"
     fit-margin-left="0"
     fit-margin-right="0"
     fit-margin-bottom="0"
     inkscape:zoom="0.42789098"
     inkscape:cx="475.58843"
     inkscape:cy="541.02566"
     inkscape:window-width="1366"
     inkscape:window-height="705"
     inkscape:window-x="-8"
     inkscape:window-y="-8"
     inkscape:window-maximized="1"
     inkscape:current-layer="g8" /><g
     id="g8"
     inkscape:groupmode="layer"
     inkscape:label="50cd92775bf08f68ece48195b30b6acb"
     transform="matrix(1.3333333,0,0,-1.3333333,209.19255,846.00998)"><g
       id="g10"
       transform="matrix(1.6461539,0,0,1.6461539,-156.89442,-115.68369)"><g
         id="g12"
         clip-path="url(#clipPath16)"><g
           id="g18"
           transform="translate(206.8299,411.7308)"><path
             d="M 0,0 C 75.509,0 136.721,-83.326 136.721,-186.113 136.721,-288.9 75.509,-372.226 0,-372.226 c -75.509,0 -136.722,83.326 -136.722,186.113 C -136.722,-83.326 -75.509,0 0,0"
             style="fill:#ffcb00;fill-opacity:1;fill-rule:evenodd;stroke:none"
             id="path20" /></g><g
           id="g22"
           transform="translate(206.8299,411.7308)"><path
             d="M 0,0 C 75.509,0 136.721,-83.326 136.721,-186.113 136.721,-288.9 75.509,-372.226 0,-372.226 c -75.509,0 -136.722,83.326 -136.722,186.113 C -136.722,-83.326 -75.509,0 0,0 Z"
             style="fill:none;stroke:#ffcb00;stroke-width:0.216;stroke-linecap:butt;stroke-linejoin:miter;stroke-miterlimit:4;stroke-dasharray:none;stroke-opacity:1"
             id="path24" /></g><g
           id="g26"
           transform="translate(348.7862,300.734)"><path
             d="m 0,0 c -40.086,19.938 -57.385,51.823 -48.318,97.531 8.267,-7.306 15.832,-15.839 22.19,-26.485 C -22.092,85.83 -13.581,97.481 0,105.584 13.581,97.481 22.092,85.83 26.128,71.046 32.486,81.692 40.051,90.225 48.318,97.531 57.385,51.823 40.086,19.938 0,0"
             style="fill:#102a83;fill-opacity:1;fill-rule:evenodd;stroke:none"
             id="path28" /></g><g
           id="g30"
           transform="translate(348.7862,212.6882)"><path
             d="m 0,0 c -40.086,19.938 -57.385,51.823 -48.318,97.531 8.267,-7.306 15.832,-15.839 22.19,-26.486 C -22.092,85.83 -13.581,97.481 0,105.584 13.581,97.481 22.092,85.83 26.128,71.045 32.486,81.692 40.051,90.225 48.318,97.531 57.385,51.823 40.086,19.938 0,0 Z"
             style="fill:#102a83;fill-opacity:1;fill-rule:evenodd;stroke:none"
             id="path32" /></g><g
           id="g34"
           transform="translate(348.7862,212.6882)"><path
             d="m 0,0 c -40.086,19.938 -57.385,51.823 -48.318,97.531 8.267,-7.306 15.832,-15.839 22.19,-26.486 C -22.092,85.83 -13.581,97.481 0,105.584 13.581,97.481 22.092,85.83 26.128,71.045 32.486,81.692 40.051,90.225 48.318,97.531 57.385,51.823 40.086,19.938 0,0 Z"
             style="fill:none;stroke:#102a83;stroke-width:0.216;stroke-linecap:butt;stroke-linejoin:miter;stroke-miterlimit:4;stroke-dasharray:none;stroke-opacity:1"
             id="path36" /></g><g
           id="g38"
           transform="translate(391.5564,294.4708)"><path
             d="M 0,0 C -15.231,-18.878 -22.648,-39.52 -23.085,-61.739 -6.095,-46.827 2.576,-26.843 0,0"
             style="fill:#ffcb00;fill-opacity:1;fill-rule:evenodd;stroke:none"
             id="path40" /></g><g
           id="g42"
           transform="translate(377.2398,313.4405)"><path
             d="m 0,0 c 3.657,0 6.621,-2.964 6.621,-6.621 0,-3.657 -2.964,-6.621 -6.621,-6.621 -3.657,0 -6.621,2.964 -6.621,6.621 C -6.621,-2.964 -3.657,0 0,0"
             style="fill:#102a83;fill-opacity:1;fill-rule:evenodd;stroke:none"
             id="path44" /></g><g
           id="g46"
           transform="translate(377.2398,313.4405)"><path
             d="m 0,0 c 3.657,0 6.621,-2.964 6.621,-6.621 0,-3.657 -2.964,-6.621 -6.621,-6.621 -3.657,0 -6.621,2.964 -6.621,6.621 C -6.621,-2.964 -3.657,0 0,0 Z"
             style="fill:none;stroke:#102a83;stroke-width:0.216;stroke-linecap:butt;stroke-linejoin:miter;stroke-miterlimit:4;stroke-dasharray:none;stroke-opacity:1"
             id="path48" /></g><g
           id="g50"
           transform="translate(348.7862,125.3581)"><path
             d="m 0,0 c -40.086,19.938 -57.385,51.823 -48.318,97.531 8.267,-7.306 15.832,-15.839 22.19,-26.485 C -22.092,85.83 -13.581,97.481 0,105.584 13.581,97.481 22.092,85.83 26.128,71.046 32.486,81.692 40.051,90.225 48.318,97.531 57.385,51.823 40.086,19.938 0,0"
             style="fill:#102a83;fill-opacity:1;fill-rule:evenodd;stroke:none"
             id="path52" /></g><g
           id="g54"
           transform="translate(348.7862,125.3581)"><path
             d="m 0,0 c -40.086,19.938 -57.385,51.823 -48.318,97.531 8.267,-7.306 15.832,-15.839 22.19,-26.485 C -22.092,85.83 -13.581,97.481 0,105.584 13.581,97.481 22.092,85.83 26.128,71.046 32.486,81.692 40.051,90.225 48.318,97.531 57.385,51.823 40.086,19.938 0,0 Z"
             style="fill:none;stroke:#102a83;stroke-width:0.216;stroke-linecap:butt;stroke-linejoin:miter;stroke-miterlimit:4;stroke-dasharray:none;stroke-opacity:1"
             id="path56" /></g><g
           id="g58"
           transform="translate(377.2398,226.1105)"><path
             d="m 0,0 c 3.657,0 6.621,-2.965 6.621,-6.621 0,-3.657 -2.964,-6.621 -6.621,-6.621 -3.657,0 -6.621,2.964 -6.621,6.621 C -6.621,-2.964 -3.657,0 0,0"
             style="fill:#102a83;fill-opacity:1;fill-rule:evenodd;stroke:none"
             id="path60" /></g><g
           id="g62"
           transform="translate(377.2398,226.1105)"><path
             d="m 0,0 c 3.657,0 6.621,-2.965 6.621,-6.621 0,-3.657 -2.964,-6.621 -6.621,-6.621 -3.657,0 -6.621,2.964 -6.621,6.621 C -6.621,-2.964 -3.657,0 0,0 Z"
             style="fill:none;stroke:#102a83;stroke-width:0.216;stroke-linecap:butt;stroke-linejoin:miter;stroke-miterlimit:4;stroke-dasharray:none;stroke-opacity:1"
             id="path64" /></g><g
           id="g66"
           transform="translate(397.4621,134.8431)"><path
             d="m 0,0 c -8.267,-7.305 -15.832,-15.839 -22.19,-26.485 -3.448,12.63 -10.163,22.974 -20.514,30.772 -10.352,-7.798 -17.067,-18.142 -20.515,-30.772 -6.358,10.646 -13.923,19.18 -22.19,26.485 -8.631,-43.513 6.633,-74.5 42.705,-94.576 C -6.633,-74.5 8.632,-43.513 0,0"
             style="fill:#102a83;fill-opacity:1;fill-rule:evenodd;stroke:none"
             id="path68" /></g><g
           id="g70"
           transform="translate(397.4621,134.8431)"><path
             d="m 0,0 c -8.267,-7.305 -15.832,-15.839 -22.19,-26.485 -3.448,12.63 -10.163,22.974 -20.514,30.772 -10.352,-7.798 -17.067,-18.142 -20.515,-30.772 -6.358,10.646 -13.923,19.18 -22.19,26.485 -8.631,-43.513 6.633,-74.5 42.705,-94.576 C -6.633,-74.5 8.632,-43.513 0,0 Z"
             style="fill:none;stroke:#102a83;stroke-width:0.216;stroke-linecap:butt;stroke-linejoin:miter;stroke-miterlimit:4;stroke-dasharray:none;stroke-opacity:1"
             id="path72" /></g><g
           id="g74"
           transform="translate(377.2398,401.4863)"><path
             d="m 0,0 c 3.657,0 6.621,-2.964 6.621,-6.621 0,-3.657 -2.964,-6.621 -6.621,-6.621 -3.657,0 -6.621,2.964 -6.621,6.621 C -6.621,-2.964 -3.657,0 0,0"
             style="fill:#102a83;fill-opacity:1;fill-rule:evenodd;stroke:none"
             id="path76" /></g><g
           id="g78"
           transform="translate(377.2398,401.4863)"><path
             d="m 0,0 c 3.657,0 6.621,-2.964 6.621,-6.621 0,-3.657 -2.964,-6.621 -6.621,-6.621 -3.657,0 -6.621,2.964 -6.621,6.621 C -6.621,-2.964 -3.657,0 0,0 Z"
             style="fill:none;stroke:#005ca1;stroke-width:0.216;stroke-linecap:butt;stroke-linejoin:miter;stroke-miterlimit:4;stroke-dasharray:none;stroke-opacity:1"
             id="path80" /></g><g
           id="g82"
           transform="translate(348.7862,310.1294)"><path
             d="M 0,0 V -84.825 C -23.719,-60.349 -29.764,-23.069 0,0"
             style="fill:#ffcb00;fill-opacity:1;fill-rule:evenodd;stroke:none"
             id="path84" /></g><g
           id="g86"
           transform="translate(305.7475,207.0515)"><path
             d="M 0,0 C 8.289,-20.222 15.781,-40.176 23.085,-60.397 6.299,-44.116 -4.585,-20.723 0,0"
             style="fill:#ffcb00;fill-opacity:1;fill-rule:evenodd;stroke:none"
             id="path88" /></g><g
           id="g90"
           transform="translate(391.5564,207.1408)"><path
             d="M 0,0 C -15.231,-18.878 -22.648,-39.52 -23.085,-61.74 -6.095,-46.827 2.576,-26.843 0,0"
             style="fill:#ffcb00;fill-opacity:1;fill-rule:evenodd;stroke:none"
             id="path92" /></g><g
           id="g94"
           transform="translate(348.7862,222.7994)"><path
             d="M 0,0 V -84.825 C -23.719,-60.349 -29.764,-23.069 0,0"
             style="fill:#ffcb00;fill-opacity:1;fill-rule:evenodd;stroke:none"
             id="path96" /></g><g
           id="g98"
           transform="translate(391.5564,382.5166)"><path
             d="M 0,0 C -15.231,-18.878 -22.648,-39.52 -23.085,-61.739 -6.095,-46.827 2.576,-26.843 0,0"
             style="fill:#ffcb00;fill-opacity:1;fill-rule:evenodd;stroke:none"
             id="path100" /></g><g
           id="g102"
           transform="translate(391.9145,119.095)"><path
             d="M 0,0 C -15.231,-18.878 -22.648,-39.52 -23.085,-61.74 -6.095,-46.827 2.576,-26.843 0,0"
             style="fill:#ffcb00;fill-opacity:1;fill-rule:evenodd;stroke:none"
             id="path104" /></g><g
           id="g106"
           transform="translate(391.9145,119.095)"><path
             d="M 0,0 C -15.231,-18.878 -22.648,-39.52 -23.085,-61.74 -6.095,-46.827 2.576,-26.843 0,0 Z"
             style="fill:none;stroke:#fcdb00;stroke-width:0.216;stroke-linecap:butt;stroke-linejoin:miter;stroke-miterlimit:4;stroke-dasharray:none;stroke-opacity:1"
             id="path108" /></g><g
           id="g110"
           transform="translate(318.1669,424.5964)"><path
             d="m 0,0 c 0.544,3.861 2.182,7.542 4.711,10.515 4.028,4.734 10.136,7.314 16.343,6.309 9.513,-1.54 15.537,-10.213 15.537,-19.534 v -117.081 c 0,-10.05 -5.67,-19.753 -16.144,-21.578 -11.676,-2.034 -20.361,6.934 -23.249,17.448 -6.992,25.455 -17.987,53.514 -36.316,72.99 -23.328,24.787 -52.019,33.706 -85.445,28.227 -48.344,-7.923 -73.306,-37.808 -90.558,-81.596 -11.549,-29.313 -16.016,-59.928 -16.094,-91.318 -0.099,-39.536 7.112,-77.737 25.145,-113.142 15.006,-29.462 37.536,-51.625 70.31,-59.57 20.112,-4.875 41.568,-6.131 61.35,0.88 40.508,14.359 60.781,58.981 71.738,97.406 2.787,9.775 9.36,18.761 20.63,18.304 12.145,-0.493 18.07,-10.918 18.614,-21.893 l 0.019,-0.387 v -112.593 c 0,-4.12 -0.436,-8.288 -2.052,-12.119 -2.718,-6.443 -8.501,-10.891 -15.572,-11.234 -3.743,-0.181 -7.328,0.814 -10.373,3.014 -5.504,3.976 -7.697,10.54 -9.144,16.859 -0.878,3.836 -3.206,7.189 -7.494,6.921 -6.437,-0.403 -17.093,-6.83 -22.593,-10.175 -8.521,-5.184 -16.73,-10.893 -25.832,-15.06 -38.199,-17.49 -77.698,-20.855 -118.168,-9.403 -60.34,17.074 -99.422,61.293 -123.058,117.789 -20.543,49.101 -25.126,101.531 -15.631,153.759 9.404,51.733 34.139,102.205 74.703,136.529 33.044,27.961 70.816,41.361 114.091,40.731 36.204,-0.527 68.77,-12.104 98.244,-32.918 4.352,-3.074 14.781,-9.419 20.38,-7.797 C -1.883,-8.55 -0.721,-3.647 0,0 Z"
             style="fill:#102a83;fill-opacity:1;fill-rule:evenodd;stroke:none"
             id="path112" /></g><g
           id="g114"
           transform="translate(318.1669,424.5964)"><path
             d="m 0,0 c 0.544,3.861 2.182,7.542 4.711,10.515 4.028,4.734 10.136,7.314 16.343,6.309 9.513,-1.54 15.537,-10.213 15.537,-19.534 v -117.081 c 0,-10.05 -5.67,-19.753 -16.144,-21.578 -11.676,-2.034 -20.361,6.934 -23.249,17.448 -6.992,25.455 -17.987,53.514 -36.316,72.99 -23.328,24.787 -52.019,33.706 -85.445,28.227 -48.344,-7.923 -73.306,-37.808 -90.558,-81.596 -11.549,-29.313 -16.016,-59.928 -16.094,-91.318 -0.099,-39.536 7.112,-77.737 25.145,-113.142 15.006,-29.462 37.536,-51.625 70.31,-59.57 20.112,-4.875 41.568,-6.131 61.35,0.88 40.508,14.359 60.781,58.981 71.738,97.406 2.787,9.775 9.36,18.761 20.63,18.304 12.145,-0.493 18.07,-10.918 18.614,-21.893 l 0.019,-0.387 v -112.593 c 0,-4.12 -0.436,-8.288 -2.052,-12.119 -2.718,-6.443 -8.501,-10.891 -15.572,-11.234 -3.743,-0.181 -7.328,0.814 -10.373,3.014 -5.504,3.976 -7.697,10.54 -9.144,16.859 -0.878,3.836 -3.206,7.189 -7.494,6.921 -6.437,-0.403 -17.093,-6.83 -22.593,-10.175 -8.521,-5.184 -16.73,-10.893 -25.832,-15.06 -38.199,-17.49 -77.698,-20.855 -118.168,-9.403 -60.34,17.074 -99.422,61.293 -123.058,117.789 -20.543,49.101 -25.126,101.531 -15.631,153.759 9.404,51.733 34.139,102.205 74.703,136.529 33.044,27.961 70.816,41.361 114.091,40.731 36.204,-0.527 68.77,-12.104 98.244,-32.918 4.352,-3.074 14.781,-9.419 20.38,-7.797 C -1.883,-8.55 -0.721,-3.647 0,0 Z"
             style="fill:none;stroke:#102a83;stroke-width:0.216;stroke-linecap:butt;stroke-linejoin:miter;stroke-miterlimit:4;stroke-dasharray:none;stroke-opacity:1"
             id="path116" /></g><g
           id="g118"
           transform="translate(282.8858,409.9412)"><path
             d="m 0,0 c 13.76,-9.717 25.274,-12.481 33.711,-10.036 8.037,2.328 14.34,8.432 16.978,22.25 0.191,2.239 1.898,4.078 3.155,3.875 0.807,-0.131 2.437,-1.225 2.437,-4.144 v -117.081 c 0,-7.427 -6.241,-9.202 -8.768,0 -10.093,36.746 -23.84,62.378 -39.997,79.545 -26.306,27.952 -59.828,39.4 -99.32,32.928 -57.248,-9.383 -84.921,-46.544 -102.541,-91.267 -12.802,-32.494 -17.1,-65.134 -17.18,-96.994 -0.105,-42.483 7.789,-82.845 26.844,-120.257 19.144,-37.587 47.042,-59.527 80.529,-67.645 69.23,-16.783 124.191,12.495 151.754,109.162 1.258,4.412 3.014,7.082 5.004,7.001 1.746,-0.071 3.407,-1.741 3.675,-7.09 v -112.205 c 0,-5.858 -1.272,-7.706 -2.789,-7.78 -1.534,-0.074 -2.855,4.685 -3.564,7.78 -3.382,14.773 -15.023,19.542 -23.665,19.001 -16.722,-1.046 -38.554,-19.574 -53.941,-26.619 -37.748,-17.284 -73.607,-18.149 -107.433,-8.577 -49.389,13.976 -88.03,49.311 -112.921,108.804 -17.58,42.019 -24.544,90.66 -14.674,144.954 9.22,50.717 33.091,97.127 69.435,127.416 27.326,23.587 60.717,37.671 103.793,37.044 C -57.809,29.604 -28.191,19.908 0,0 m 43.676,13.271 c 0.289,2.337 1.266,4.594 2.793,6.388 2.105,2.475 5.216,3.958 8.507,3.426 5.355,-0.868 8.392,-6.026 8.392,-11.14 v -117.081 c 0,-15.865 -18.012,-18.903 -22.689,-1.877 -7.369,26.83 -18.968,56 -38.323,76.565 -25.252,26.832 -56.726,36.739 -93.014,30.792 -51.604,-8.458 -78.821,-40.491 -97.094,-86.872 -11.964,-30.367 -16.605,-61.903 -16.686,-94.413 -0.102,-40.945 7.411,-80.387 26.071,-117.024 16.153,-31.714 40.672,-55.438 75.885,-63.974 21.772,-5.278 44.799,-6.454 66.194,1.129 43.482,15.413 65.287,61.747 77.075,103.089 1.637,5.74 5.14,12.422 12.107,12.139 7.488,-0.304 10.145,-7.448 10.465,-13.816 l 0.009,-0.178 v -112.382 c 0,-2.902 -0.244,-6.113 -1.383,-8.814 -1.443,-3.421 -4.354,-5.86 -8.149,-6.045 -7.272,-0.352 -9.537,7.693 -10.815,13.278 -1.828,7.981 -7.752,14.045 -16.315,13.51 -8.334,-0.522 -19.444,-7.117 -26.481,-11.397 -8.062,-4.904 -16.399,-10.677 -24.953,-14.594 -36.438,-16.683 -73.852,-19.836 -112.312,-8.952 -57.667,16.318 -94.839,58.655 -117.529,112.888 -19.954,47.692 -24.334,98.21 -15.109,148.956 9.047,49.768 32.785,98.521 71.829,131.558 31.442,26.606 67.069,39.323 108.475,38.72 34.448,-0.501 65.335,-11.498 93.462,-31.361 6.928,-4.893 18.747,-11.598 27.651,-9.019 7.725,2.238 10.503,9.169 11.937,16.501"
             style="fill:#ffcb00;fill-opacity:1;fill-rule:evenodd;stroke:none"
             id="path120" /></g><g
           id="g122"
           transform="translate(377.5978,138.0647)"><path
             d="m 0,0 c 3.657,0 6.621,-2.965 6.621,-6.621 0,-3.657 -2.964,-6.621 -6.621,-6.621 -3.657,0 -6.621,2.964 -6.621,6.621 C -6.621,-2.964 -3.657,0 0,0"
             style="fill:#102a83;fill-opacity:1;fill-rule:evenodd;stroke:none"
             id="path124" /></g><g
           id="g126"
           transform="translate(377.5978,138.0647)"><path
             d="m 0,0 c 3.657,0 6.621,-2.965 6.621,-6.621 0,-3.657 -2.964,-6.621 -6.621,-6.621 -3.657,0 -6.621,2.964 -6.621,6.621 C -6.621,-2.964 -3.657,0 0,0 Z"
             style="fill:none;stroke:#102a83;stroke-width:0.216;stroke-linecap:butt;stroke-linejoin:miter;stroke-miterlimit:4;stroke-dasharray:none;stroke-opacity:1"
             id="path128" /></g><g
           id="g130"
           transform="translate(105.139,289.1919)"><path
             d="M 0,0 C 38.296,5.096 72.597,17.273 100.394,40.981 128.19,17.273 162.491,5.096 200.787,0 194.763,-10.738 187.723,-24.456 187.723,-35.612 V -147.28 c 0,-29.236 -25.259,-46.924 -60.844,-60.308 -12.015,-4.518 -21.779,-10.437 -26.485,-17.716 -4.707,7.279 -14.47,13.198 -26.486,17.716 -35.585,13.384 -60.844,31.072 -60.844,60.308 V -35.612 C 13.064,-24.457 6.024,-10.738 0,0 Z"
             style="fill:#102a83;fill-opacity:1;fill-rule:evenodd;stroke:none"
             id="path132" /></g><g
           id="g134"
           transform="translate(105.139,289.1919)"><path
             d="M 0,0 C 38.296,5.096 72.597,17.273 100.394,40.981 128.19,17.273 162.491,5.096 200.787,0 194.763,-10.738 187.723,-24.456 187.723,-35.612 V -147.28 c 0,-29.236 -25.259,-46.924 -60.844,-60.308 -12.015,-4.518 -21.779,-10.437 -26.485,-17.716 -4.707,7.279 -14.47,13.198 -26.486,17.716 -35.585,13.384 -60.844,31.072 -60.844,60.308 V -35.612 C 13.064,-24.457 6.024,-10.738 0,0 Z"
             style="fill:none;stroke:#102a83;stroke-width:1;stroke-linecap:butt;stroke-linejoin:miter;stroke-miterlimit:10;stroke-dasharray:none;stroke-opacity:1"
             id="path136" /></g><g
           id="g138"
           transform="translate(142.63,233.3581)"><path
             d="m 0,0 h -18.758 v -85.361 c 0,-13.711 6.909,-27.75 18.758,-37.044 z"
             style="fill:#ffcb00;fill-opacity:1;fill-rule:evenodd;stroke:none"
             id="path140" /></g><g
           id="g142"
           transform="translate(178.8682,233.3581)"><path
             d="m 0,0 h -18.253 v -132.561 c 5.855,-3.291 11.92,-6.164 18.253,-8.5 z"
             style="fill:#ffcb00;fill-opacity:1;fill-rule:evenodd;stroke:none"
             id="path144" /></g><g
           id="g146"
           transform="translate(214.4804,233.3581)"><path
             d="m 0,0 h -17.896 v -153.493 c 3.248,-1.988 6.312,-4.248 8.948,-6.81 2.637,2.562 5.7,4.822 8.948,6.81 z"
             style="fill:#ffcb00;fill-opacity:1;fill-rule:evenodd;stroke:none"
             id="path148" /></g><g
           id="g150"
           transform="translate(268.435,233.3581)"><path
             d="m 0,0 h 18.758 v -85.361 c 0,-13.711 -6.909,-27.75 -18.758,-37.044 z"
             style="fill:#ffcb00;fill-opacity:1;fill-rule:evenodd;stroke:none"
             id="path152" /></g><g
           id="g154"
           transform="translate(232.1969,233.3581)"><path
             d="m 0,0 h 18.253 v -132.561 c -5.855,-3.291 -11.92,-6.164 -18.253,-8.5 z"
             style="fill:#ffcb00;fill-opacity:1;fill-rule:evenodd;stroke:none"
             id="path156" /></g><g
           id="g158"
           transform="translate(201.8639,399.6971)"><path
             d="M 0,0 6.81,-21.096 28.977,-21.053 11.018,-34.049 17.909,-55.118 0,-42.054 l -17.909,-13.064 6.891,21.069 -17.959,12.996 22.167,-0.043 z"
             style="fill:#102a83;fill-opacity:1;fill-rule:evenodd;stroke:none"
             id="path160" /></g><g
           id="g162"
           transform="translate(201.8639,399.6971)"><path
             d="M 0,0 6.81,-21.096 28.977,-21.053 11.018,-34.049 17.909,-55.118 0,-42.054 l -17.909,-13.064 6.891,21.069 -17.959,12.996 22.167,-0.043 z"
             style="fill:none;stroke:#102a83;stroke-width:0.216;stroke-linecap:butt;stroke-linejoin:miter;stroke-miterlimit:4;stroke-dasharray:none;stroke-opacity:1"
             id="path164" /></g><g
           id="g166"
           transform="translate(162.4649,376.4326)"><path
             d="m 0,0 4.952,-15.342 16.122,0.03 -13.061,-9.451 5.012,-15.323 -13.025,9.501 -13.025,-9.501 5.012,15.323 -13.061,9.451 16.121,-0.03 z"
             style="fill:#102a83;fill-opacity:1;fill-rule:evenodd;stroke:none"
             id="path168" /></g><g
           id="g170"
           transform="translate(162.4649,376.4326)"><path
             d="m 0,0 4.952,-15.342 16.122,0.03 -13.061,-9.451 5.012,-15.323 -13.025,9.501 -13.025,-9.501 5.012,15.323 -13.061,9.451 16.121,-0.03 z"
             style="fill:none;stroke:#102a83;stroke-width:0.216;stroke-linecap:butt;stroke-linejoin:miter;stroke-miterlimit:4;stroke-dasharray:none;stroke-opacity:1"
             id="path172" /></g><g
           id="g174"
           transform="translate(135.6217,344.5786)"><path
             d="m 0,0 4.952,-15.343 16.122,0.031 -13.061,-9.451 5.012,-15.323 -13.025,9.501 -13.025,-9.501 5.012,15.323 -13.061,9.451 16.121,-0.031 z"
             style="fill:#102a83;fill-opacity:1;fill-rule:evenodd;stroke:none"
             id="path176" /></g><g
           id="g178"
           transform="translate(135.6217,344.5786)"><path
             d="m 0,0 4.952,-15.343 16.122,0.031 -13.061,-9.451 5.012,-15.323 -13.025,9.501 -13.025,-9.501 5.012,15.323 -13.061,9.451 16.121,-0.031 z"
             style="fill:none;stroke:#102a83;stroke-width:0.216;stroke-linecap:butt;stroke-linejoin:miter;stroke-miterlimit:4;stroke-dasharray:none;stroke-opacity:1"
             id="path180" /></g><g
           id="g182"
           transform="translate(243.0462,376.4326)"><path
             d="m 0,0 -4.952,-15.342 -16.122,0.03 13.061,-9.451 -5.012,-15.323 13.025,9.501 13.025,-9.501 -5.012,15.323 13.061,9.451 -16.121,-0.03 z"
             style="fill:#102a83;fill-opacity:1;fill-rule:evenodd;stroke:none"
             id="path184" /></g><g
           id="g186"
           transform="translate(243.0462,376.4326)"><path
             d="m 0,0 -4.952,-15.342 -16.122,0.03 13.061,-9.451 -5.012,-15.323 13.025,9.501 13.025,-9.501 -5.012,15.323 13.061,9.451 -16.121,-0.03 z"
             style="fill:none;stroke:#102a83;stroke-width:0.216;stroke-linecap:butt;stroke-linejoin:miter;stroke-miterlimit:4;stroke-dasharray:none;stroke-opacity:1"
             id="path188" /></g><g
           id="g190"
           transform="translate(269.8895,344.5786)"><path
             d="m 0,0 -4.952,-15.343 -16.122,0.031 13.061,-9.451 -5.012,-15.323 13.025,9.501 13.025,-9.501 -5.012,15.323 13.061,9.451 -16.121,-0.031 z"
             style="fill:#102a83;fill-opacity:1;fill-rule:evenodd;stroke:none"
             id="path192" /></g><g
           id="g194"
           transform="translate(269.8895,344.5786)"><path
             d="m 0,0 -4.952,-15.343 -16.122,0.031 13.061,-9.451 -5.012,-15.323 13.025,9.501 13.025,-9.501 -5.012,15.323 13.061,9.451 -16.121,-0.031 z"
             style="fill:none;stroke:#102a83;stroke-width:0.216;stroke-linecap:butt;stroke-linejoin:miter;stroke-miterlimit:4;stroke-dasharray:none;stroke-opacity:1"
             id="path196" /></g><g
           id="g198"
           transform="translate(157.5726,280.9606)"><path
             d="m 0,0 c -4.316,3.031 -9.107,3.959 -14.137,3.848 -11.644,-0.259 -18.24,-7.116 -18.97,-21.028 -0.71,-13.534 4.96,-22.24 18.075,-23.711 5.567,-0.625 10.628,0.87 15.032,3.489 v 11.185 c -3.881,-4.395 -8.238,-6.839 -13.064,-6.353 -9.243,0.931 -10.949,12.487 -9.126,20.311 1.099,4.718 5.681,7.506 10.737,7.606 4.039,0.08 7.635,-2.601 11.453,-5.906 z"
             style="fill:#ffcb00;fill-opacity:1;fill-rule:evenodd;stroke:none"
             id="path200" /></g><g
           id="g202"
           transform="translate(282.4832,281.1021)"><path
             d="m 0,0 c -4.316,3.031 -9.107,3.959 -14.138,3.848 -11.643,-0.259 -18.239,-7.116 -18.969,-21.028 -0.71,-13.534 4.96,-22.24 18.075,-23.711 5.567,-0.625 10.628,0.87 15.032,3.489 v 11.185 c -3.881,-4.395 -8.238,-6.839 -13.064,-6.353 -9.243,0.93 -10.949,12.487 -9.126,20.311 1.099,4.718 5.681,7.506 10.737,7.606 4.039,0.08 7.635,-2.601 11.453,-5.906 z"
             style="fill:#ffcb00;fill-opacity:1;fill-rule:evenodd;stroke:none"
             id="path204" /></g><g
           id="g206"
           transform="translate(184.3263,287.1342)"><path
             d="M 0,0 -3.971,-21.832 H 0 3.971 Z M -18.79,-47.065 -5.011,17.359 H 0 5.011 L 18.79,-47.065 H 8.948 L 5.99,-33.286 H 0 -5.99 l -2.958,-13.779 z"
             style="fill:#ffcb00;fill-opacity:1;fill-rule:evenodd;stroke:none"
             id="path208" /></g><g
           id="g210"
           transform="translate(218.8644,293.0396)"><path
             d="m 0,0 h 4.724 c 3.898,0 7.087,-3.189 7.087,-7.087 v -3.185 c 0,-3.897 -3.189,-7.086 -7.087,-7.086 H 0 Z m -9.127,11.453 h 19.149 c 8.155,-0.889 11.062,-8.394 11.99,-18.611 0.581,-6.402 -2.383,-13.821 -7.695,-17.359 2.608,-1.805 4.406,-4.542 5.803,-7.739 l 6.723,-20.715 H 14.674 L 8.769,-32.57 C 7.646,-28.688 4.228,-27.738 0,-27.738 v -25.233 h -9.127 z"
             style="fill:#ffcb00;fill-opacity:1;fill-rule:evenodd;stroke:none"
             id="path212" /></g><g
           id="g214"
           transform="translate(305.7475,294.3815)"><path
             d="M 0,0 C 8.289,-20.222 15.781,-40.175 23.085,-60.397 6.299,-44.116 -4.585,-20.723 0,0 Z"
             style="fill:#ffcb00;fill-opacity:1;fill-rule:evenodd;stroke:none"
             id="path216" /></g></g></g></g></svg>
