<?xml version="1.0" encoding="utf-8"?>
<!-- Generator: Adobe Illustrator 13.0.0, SVG Export Plug-In . SVG Version: 6.00 Build 14948)  -->
<!DOCTYPE svg PUBLIC "-//W3C//DTD SVG 1.0//EN" "http://www.w3.org/TR/2001/REC-SVG-20010904/DTD/svg10.dtd">
<svg version="1.0" id="Ebene_1" xmlns="http://www.w3.org/2000/svg" xmlns:xlink="http://www.w3.org/1999/xlink" x="0px" y="0px"
	 width="371.325px" height="371.325px" viewBox="0 0 371.325 371.325" enable-background="new 0 0 371.325 371.325"
	 xml:space="preserve">
<path fill="#074286" d="M185.665,0C83.125,0,0,83.119,0,185.661c0,102.538,83.125,185.665,185.665,185.665
	c102.536,0,185.661-83.127,185.661-185.665C371.325,83.119,288.2,0,185.665,0"/>
<path fill="#FFFFFF" d="M185.663,9.39C88.306,9.39,9.39,88.315,9.39,185.665c0,97.354,78.917,176.271,176.273,176.271
	c97.346,0,176.273-78.917,176.273-176.271C361.936,88.315,283.008,9.39,185.663,9.39"/>
<path fill="#074286" d="M185.663,48.998c-75.479,0-136.666,61.183-136.666,136.664c0,75.476,61.188,136.667,136.666,136.667
	c75.479,0,136.665-61.191,136.665-136.667C322.327,110.181,261.142,48.998,185.663,48.998"/>
<path fill="#FFFFFF" d="M185.663,56.778c-71.179,0-128.885,57.702-128.885,128.883c0,71.18,57.707,128.887,128.885,128.887
	s128.885-57.707,128.885-128.887C314.547,114.48,256.841,56.778,185.663,56.778"/>
<path fill="#074286" d="M188.985,302.788c-0.981-2.292-1.935-4.521-3.012-6.728c-1.072,2.235-2.05,4.492-2.96,6.807L188.985,302.788
	 M197.743,310.176c-1.039-0.047-1.96-0.12-2.872-0.107c-0.915,0.013-1.858,0.111-2.769,0.179c-0.718-1.924-1.498-3.869-2.343-5.795
	c-1.399-0.009-2.772-0.017-4.178,0c-1.139,0.017-2.25,0.06-3.39,0.106c-0.851,1.941-1.54,3.883-2.132,5.856
	c-0.523-0.053-1.012-0.133-1.535-0.124c-0.523,0.008-1.008,0.102-1.63,0.166c1.549-3.179,6.288-13.364,8.993-19.881
	c0.426,0.05,0.816,0.131,1.246,0.122c0.42-0.003,0.809-0.092,1.239-0.157C191.239,296.986,195.195,305.574,197.743,310.176z"/>
<path fill="#074286" d="M146.588,282.999c-0.976,2.392-1.906,4.771-2.821,7.186c0.234,0.118,0.439,0.229,0.655,0.309
	c2.684,1.021,4.646,0.267,5.59-2.226C151.198,285.131,149.923,284.256,146.588,282.999 M143.609,291.429l-0.275-0.103l-0.41,1.092
	c-1.126,2.97-1.837,5.036-2.539,7.449c-0.651-0.312-1.447-0.701-2.455-1.085c-1.007-0.382-1.867-0.615-2.551-0.815
	c1.063-2.264,1.896-4.288,3.02-7.265l1.37-3.612c1.123-2.97,1.833-5.043,2.535-7.449c0.651,0.311,1.446,0.703,2.454,1.084
	c1.099,0.411,2.462,0.777,4.543,1.567c3.084,1.165,4.126,1.836,4.947,2.903c0.932,1.236,1.25,2.693,0.66,4.256
	c-0.975,2.575-3.31,3.575-6.585,3.094c0.821,3.744,1.999,7.649,3.096,11.494c-0.897-0.402-1.782-0.828-2.701-1.172
	c-0.915-0.347-1.893-0.624-2.829-0.922L143.609,291.429z"/>
<path fill="#074286" d="M159.349,295.019c0.507-3.136,0.791-5.303,0.999-7.802c1.898,0.34,3.807,0.766,5.709,1.075
	c3.152,0.519,5.866,0.901,6.75,0.961c-0.123,0.322-0.237,0.65-0.323,1.151c-0.094,0.591-0.068,0.855-0.072,1.289
	c-2.425-0.541-6.258-1.369-7.219-1.525c-0.499,2.013-0.825,4.031-1.153,6.08c2.807,0.398,4.875,0.679,7.342,0.969
	c-0.23,0.621-0.311,0.869-0.367,1.235c-0.046,0.307-0.025,0.57-0.025,1.175c-2.416-0.57-4.819-1.047-7.265-1.449
	c-0.191,1.181-0.417,2.375-0.616,3.583c-0.192,1.181-0.354,2.388-0.469,3.522c2.413,0.391,4.91,0.684,7.432,0.836
	c-0.132,0.382-0.238,0.656-0.336,1.242c-0.099,0.586-0.082,0.879-0.064,1.223c-1.157-0.216-2.65-0.573-5.61-1.057
	c-5.25-0.859-6.13-0.917-6.85-0.974c0.591-2.439,1.009-4.584,1.514-7.721L159.349,295.019"/>
<path fill="#074286" d="M206.186,301.504c0.32,1.5,1.039,4.89,1.179,5.413c0.647-0.111,1.523-0.239,2.833-0.509
	c4.79-1.007,7.227-4.483,5.998-10.262c-0.966-4.555-4.479-6.777-8.886-5.851c-1.533,0.322-2.324,0.542-3.293,0.832
	c0.076,0.535,0.8,3.927,1.119,5.427L206.186,301.504 M200.525,298.104c-0.66-3.11-1.179-5.24-1.893-7.64
	c0.72-0.093,1.6-0.191,2.654-0.412c1.403-0.299,2.938-0.766,5.751-1.356c7.282-1.53,12.731-0.561,14.216,6.446
	c1.297,6.111-2.894,11.201-8.898,12.462c-3.196,0.676-5.397,0.996-7.059,1.343c-1.056,0.22-1.901,0.484-2.589,0.693
	c-0.329-2.491-0.72-4.64-1.383-7.755L200.525,298.104z"/>
<path fill="#074286" d="M232.978,289.241c0.709-2.695,0.807-6.668,0.963-9.794c0.465-0.149,0.95-0.268,1.427-0.488
	c0.472-0.213,0.88-0.49,1.361-0.773c-0.427,2.531-1.285,8.603-1.706,12.721c0.376,0.829,0.705,1.708,1.087,2.563
	c0.774,1.707,1.604,3.454,2.753,5.272c-0.856,0.322-1.753,0.636-2.582,1.012c-0.834,0.376-1.656,0.844-2.468,1.273
	c-0.663-1.694-1.177-3.556-1.91-5.153c-0.357-0.807-0.756-1.593-1.148-2.379c-3.606-2.521-9.502-6.522-11.089-7.585
	c0.91-0.348,1.838-0.675,2.727-1.079c0.89-0.399,1.718-0.87,2.582-1.325c2.526,1.946,6.575,4.95,7.942,5.762L232.978,289.241"/>
<path fill="#074286" d="M270.375,55.31c-0.714-0.459-1.253-0.753-1.734-1.054c-0.605,0.952-1.245,1.881-2.135,3.28
	c-1.357,2.15-2.941,4.823-3.693,6.017c0.698,0.489,1.272,0.901,2.154,1.453c2.356,1.492,5.447,1.113,7.324-1.853
	C274.299,59.979,273.571,57.328,270.375,55.31 M277.23,45.273c-1.158-0.735-1.46-0.872-2.021-1.135
	c-1.136,1.619-2.425,3.476-3.158,4.635c-0.778,1.229-1.424,2.346-2.16,3.501l1.794,1.138c2.278,1.441,5.458,1.45,7.291-1.448
	C280.356,49.781,280.385,47.266,277.23,45.273z M264.46,47.695c2.417-3.815,3.998-6.493,5.657-9.649
	c0.838,0.629,1.846,1.411,3.168,2.248c2.271,1.44,5.016,2.936,7.292,4.376c4.789,3.034,7.068,6.675,4.722,10.384
	c-2.354,3.722-7.381,2.732-10.07,1.513l-0.042,0.064c2.369,1.644,6.172,6.152,3.56,10.278c-3.084,4.874-8.863,3.935-13.612,0.926
	c-2.119-1.337-3.77-2.622-5.764-3.883c-1.438-0.914-3.22-1.896-4.138-2.384c2.136-2.843,3.875-5.421,6.295-9.237L264.46,47.695z"/>
<path fill="#074286" d="M101.187,330.39c1.931-3.119,3.798-6.224,5.649-9.395c-0.303-0.224-0.57-0.424-0.855-0.594
	c-3.594-2.099-6.551-1.539-8.461,1.734C95.121,326.244,96.737,327.795,101.187,330.39 M107.341,319.288l0.367,0.212l0.838-1.427
	c2.271-3.896,3.751-6.625,5.3-9.829c0.856,0.59,1.893,1.343,3.246,2.129c1.344,0.786,2.513,1.326,3.45,1.776
	c-2.033,2.928-3.679,5.558-5.955,9.454l-2.761,4.733c-2.281,3.896-3.761,6.62-5.301,9.828c-0.859-0.59-1.901-1.342-3.246-2.128
	c-1.47-0.858-3.335-1.708-6.107-3.331c-4.127-2.41-5.454-3.604-6.377-5.312c-1.042-1.958-1.165-4.088,0.03-6.14
	c1.97-3.374,5.517-4.203,10.069-2.706c-0.319-5.457-1.105-11.234-1.791-16.917c1.183,0.791,2.348,1.607,3.574,2.325
	c1.225,0.713,2.556,1.351,3.819,1.996L107.341,319.288z"/>
<path fill="#074286" d="M71.789,287.689c-1.374,3.276-2.73,6.458-3.917,9.746c3.377-1.057,6.687-2.243,9.988-3.556L71.789,287.689
	 M70.619,271.252c1,1.135,1.846,2.168,2.773,3.115c0.927,0.943,1.974,1.844,2.961,2.731c-1.26,2.639-2.489,5.372-3.629,8.142
	c1.4,1.483,2.769,2.932,4.195,4.385c1.157,1.186,2.313,2.303,3.504,3.458c2.858-1.011,5.551-2.196,8.171-3.506
	c0.476,0.596,0.885,1.186,1.416,1.73c0.533,0.539,1.116,0.964,1.805,1.55c-4.832,1.488-20.082,6.497-29.517,10.045
	c-0.375-0.494-0.685-0.986-1.115-1.423c-0.434-0.442-0.916-0.766-1.408-1.147C63.54,291.003,68.432,278.435,70.619,271.252z"/>
<path fill="#074286" d="M39.95,273.344c-0.23-0.68-0.502-1.343-0.843-1.963c-0.34-0.624-0.752-1.211-1.196-1.775
	c2.373-9.056,4.735-18.055,7.036-27.233c-5.636,3.072-15.274,8.328-16.712,9.493c-0.234-0.685-0.498-1.348-0.838-1.967
	c-0.341-0.621-0.753-1.208-1.201-1.772c10.678-4.963,15.391-7.533,24.821-12.679c0.209,0.642,0.435,1.219,0.749,1.802
	c0.319,0.583,0.685,1.083,1.063,1.525c-2.642,8.821-5.075,18.02-7.329,27.555c2.706-1.368,5.653-2.974,8.309-4.424
	c5.674-3.092,7.588-4.299,8.829-5.141c0.257,0.722,0.55,1.427,0.889,2.048c0.341,0.629,0.77,1.25,1.221,1.814
	c-1.145,0.352-10.63,4.721-17.862,8.664C43.701,271.032,41.629,272.375,39.95,273.344"/>
<path fill="#074286" d="M321.247,231.346c3.649-10.257,11.26-15.853,19.027-13.108c9.674,3.421,11.664,13.116,7.934,23.599
	c-1.608,4.5-3.521,7.236-6.108,9.934c-1.119-0.947-2.246-1.896-3.441-2.618l0.222-0.629c2.951-1.062,5.491-3.377,6.932-7.436
	c1.976-5.527,0.086-12.623-7.91-15.453c-6.06-2.142-12.01-0.004-14.457,6.866c0,0-2.002,3.438,0.668,10.547l-4.13-0.073
	C319.984,242.976,318.942,236.445,321.247,231.346"/>
<path fill="#074286" d="M25.256,136.203c3.48,1.168,6.939,2.281,10.448,3.36c0.149-0.344,0.285-0.65,0.383-0.968
	c1.217-3.978-0.009-6.731-3.633-7.844C27.902,129.349,26.762,131.273,25.256,136.203 M37.486,139.669l-0.123,0.404l1.578,0.492
	c4.317,1.326,7.321,2.15,10.796,2.924c-0.383,0.968-0.872,2.158-1.333,3.646c-0.455,1.491-0.714,2.749-0.94,3.769
	c-3.309-1.313-6.249-2.32-10.57-3.65l-5.245-1.614c-4.322-1.326-7.317-2.155-10.792-2.924c0.379-0.977,0.868-2.158,1.327-3.65
	c0.498-1.627,0.898-3.629,1.838-6.705c1.399-4.573,2.259-6.131,3.709-7.419c1.671-1.462,3.713-2.074,5.989-1.373
	c3.739,1.152,5.355,4.423,4.951,9.19c5.245-1.55,10.69-3.632,16.059-5.592c-0.489,1.331-1.021,2.657-1.438,4.008
	c-0.417,1.359-0.732,2.8-1.067,4.177L37.486,139.669z"/>
<path fill="#074286" d="M51.073,90.509c-2.472-0.412-4.458,0.505-6.027,2.927c-1.57,2.426-1.247,5.052,0.378,6.101
	c5.02,3.229,11.583-9.662,19.278-4.699c4.547,2.922,4.947,9.147,0.855,15.47c-1.851,2.86-4.109,4.785-5.598,5.456
	c-1.229-1.517-2.217-2.665-3.564-3.922l0.489-0.761c2.254,0.833,5.13,0.098,7.214-3.123c2.003-3.102,1.447-5.656-0.455-6.879
	c-5.118-3.297-11.425,9.42-19.125,4.466c-4.679-3.018-4.53-8.89-1.472-13.623c1.851-2.859,3.883-4.593,5.875-5.447
	c0.745,1.152,1.382,1.955,2.54,3.438L51.073,90.509"/>
<path fill="#074286" d="M121.741,39.924c-1.621-4.22-2.829-7.088-4.369-10.305c2.625-0.96,5.339-1.823,7.946-2.821
	c4.335-1.652,8.019-3.148,9.172-3.718c0.085,0.488,0.174,0.973,0.434,1.653c0.302,0.785,0.519,1.096,0.83,1.627
	c-3.438,1.096-8.845,2.86-10.172,3.365c0.833,2.834,1.876,5.545,2.935,8.299c3.819-1.542,6.62-2.703,9.925-4.135
	c0.153,0.936,0.242,1.292,0.429,1.776c0.162,0.42,0.379,0.723,0.813,1.461c-3.445,1.059-6.806,2.214-10.17,3.498l0.74,1.921
	c1.621,4.223,2.829,7.087,4.369,10.303c-1.003,0.298-2.242,0.642-3.701,1.199c-1.458,0.557-2.607,1.125-3.557,1.572
	c-1.008-3.416-2.032-6.357-3.657-10.572L121.741,39.924"/>
<path fill="#074286" d="M162.73,18.784c-6.373,1.195-9.069,7.373-7.792,14.201c1.578,8.46,6.682,10.545,11.889,9.568
	c5.581-1.037,9.721-5.923,8.108-14.583C173.653,21.101,168.728,17.663,162.73,18.784 M162.45,16.499
	c9.856-1.848,18.483,1.309,20.265,10.882c1.468,7.86-4.735,15.64-15.105,17.578c-9.81,1.835-18.512-0.977-20.364-10.907
	C145.788,26.229,151.658,18.517,162.45,16.499z"/>
<path fill="#074286" d="M209.122,18.951c-6.458-0.583-10.72,4.627-11.34,11.54c-0.765,8.558,3.585,11.948,8.865,12.424
	c5.658,0.509,10.963-3.068,11.745-11.83C219.008,24.134,215.197,19.494,209.122,18.951 M209.472,16.673
	c9.988,0.892,17.436,6.267,16.569,15.955c-0.711,7.955-8.78,13.75-19.289,12.807c-9.94-0.896-17.559-5.957-16.662-16.002
	C190.796,21.513,198.54,15.687,209.472,16.673z"/>
<path fill="#074286" d="M239.289,31.357c0.519-1.444,1.013-2.817,1.068-3.395c-1.731-0.629-5.551-1.742-8.319-2.439
	c0.338-0.519,0.62-1.02,0.823-1.588c0.209-0.574,0.311-1.135,0.379-1.756c4.012,1.573,5.985,2.372,11.502,4.352
	c5.523,1.988,7.551,2.63,11.375,3.875c-0.338,0.527-0.619,1.028-0.829,1.598c-0.204,0.57-0.302,1.13-0.378,1.755
	c-2.302-1.131-5.965-2.708-7.739-3.349c-0.284,0.501-0.773,1.874-1.297,3.318l-3.41,9.501c-1.536,4.261-2.498,7.219-3.434,10.661
	c-0.949-0.429-2.115-0.978-3.582-1.5c-1.469-0.532-2.709-0.85-3.712-1.125c1.465-3.251,2.606-6.148,4.137-10.402L239.289,31.357"/>
<path fill="#074286" d="M301.57,86.536c1.459-3.239,2.891-6.378,4.172-9.637c-3.397,0.969-6.737,2.065-10.064,3.285L301.57,86.536
	 M302.288,102.991c-0.968-1.168-1.778-2.222-2.678-3.19c-0.902-0.974-1.928-1.896-2.884-2.814c1.33-2.6,2.632-5.294,3.841-8.034
	c-1.357-1.517-2.681-3-4.063-4.497c-1.128-1.211-2.25-2.367-3.407-3.551c-2.881,0.935-5.598,2.039-8.252,3.279
	c-0.456-0.606-0.847-1.215-1.366-1.767c-0.514-0.557-1.083-0.995-1.756-1.601c4.863-1.352,20.214-5.937,29.729-9.229
	c0.362,0.509,0.656,1.006,1.076,1.461c0.418,0.451,0.893,0.782,1.371,1.177C309.891,83.451,304.662,95.87,302.288,102.991z"/>
<path fill="#074286" d="M321.804,104.322c3.99-2.125,6.687-3.667,9.686-5.587c0.42,0.955,0.911,2.146,1.642,3.526
	c0.737,1.376,1.444,2.452,2.004,3.332c-3.271,1.419-6.053,2.792-10.043,4.917l-4.844,2.579c-2.634,1.402-5.318,2.885-7.147,3.917
	c1.664,3.136,3.518,6.28,5.547,9.327c-0.544,0.182-0.946,0.289-1.689,0.683c-0.748,0.4-1.063,0.676-1.446,0.987
	c-0.761-1.526-1.663-3.565-3.704-7.415c-3.625-6.816-4.331-7.891-4.892-8.77c3.271-1.415,6.053-2.792,10.042-4.92L321.804,104.322"
	/>
<path fill="#074286" d="M335.652,134.039c4.351-1.257,7.312-2.214,10.651-3.471c0.211,1.016,0.45,2.278,0.884,3.777
	c0.433,1.5,0.907,2.69,1.271,3.671c-3.499,0.714-6.515,1.487-10.862,2.745l-5.28,1.525c-2.876,0.833-5.814,1.729-7.818,2.358
	c0.982,3.408,2.147,6.857,3.509,10.253c-0.571,0.068-0.988,0.093-1.804,0.327c-0.812,0.234-1.174,0.438-1.616,0.663
	c-0.434-1.649-0.898-3.828-2.101-8.005c-2.14-7.402-2.613-8.592-2.979-9.569c3.494-0.718,6.514-1.491,10.865-2.749L335.652,134.039"
	/>
<path fill="#074286" d="M326.823,257.975c3.918,2.256,6.658,3.723,9.878,5.252c-0.586,0.858-1.326,1.907-2.109,3.263
	c-0.774,1.352-1.308,2.515-1.753,3.462c-2.939-2.018-5.584-3.658-9.502-5.91l-4.757-2.741c-2.585-1.491-5.265-2.981-7.106-3.984
	c-1.769,3.072-3.445,6.313-4.943,9.649c-0.447-0.366-0.744-0.646-1.485-1.071c-0.73-0.42-1.125-0.544-1.594-0.705
	c0.884-1.454,2.131-3.301,4.3-7.075c3.847-6.684,4.373-7.848,4.825-8.791c2.935,2.019,5.581,3.654,9.494,5.907L326.823,257.975"/>
<path fill="#074286" d="M302.905,282.458c3.212,2.94,4.759,4.479,6.903,6.438c3.158,2.889,5.21,4.647,6.262,5.472
	c-0.953,0.863-1.905,1.785-2.765,2.728c-0.864,0.943-1.697,1.971-2.47,2.999c-3.455-3.994-6.521-6.865-9.975-10.019
	c-7.27-6.65-10.696-5.299-14.843-0.76c-5.109,5.583-0.306,10.677,5.236,15.747c2.741,2.507,5.543,4.877,8.44,7.21
	c-0.625,0.514-1.234,1.054-1.773,1.645c-0.541,0.59-0.991,1.207-1.446,1.883c-1.565-1.815-5.604-5.958-10.754-10.666
	c-6.909-6.323-6.542-12.462-0.354-19.23C290.823,279.934,297.303,277.333,302.905,282.458"/>
<path fill="#074286" d="M266.803,317.636c0.723-0.455,1.226-0.816,1.701-1.114c-0.599-0.96-1.16-1.941-2.042-3.343
	c-1.36-2.15-3.091-4.729-3.844-5.927c-0.74,0.42-1.367,0.764-2.25,1.316c-2.364,1.479-3.352,4.431-1.485,7.401
	C260.882,319.148,263.596,319.641,266.803,317.636 M272.92,328.139c1.162-0.728,1.417-0.939,1.898-1.333
	c-0.976-1.722-2.103-3.685-2.833-4.845c-0.771-1.232-1.502-2.299-2.23-3.462l-1.808,1.134c-2.284,1.428-3.666,4.292-1.836,7.194
	C267.488,329.015,269.747,330.123,272.92,328.139z M276.242,315.579c2.407,3.824,4.146,6.408,6.279,9.259
	c-0.927,0.488-2.072,1.062-3.394,1.89c-2.285,1.433-4.825,3.26-7.108,4.691c-4.812,3.008-9.091,3.497-11.435-0.229
	c-2.338-3.722,0.714-7.827,2.987-9.726l-0.039-0.068c-2.514,1.427-8.232,2.911-10.83-1.22c-3.075-4.881,0.268-9.692,5.04-12.678
	c2.123-1.331,3.996-2.265,5.997-3.519c1.447-0.904,3.107-2.086,3.943-2.707c1.656,3.157,3.225,5.839,5.637,9.662L276.242,315.579z"
	/>
<path fill="#074286" d="M20.906,202.291c-1.982,2.436-2.961,5.729-2.107,9.948c1.17,5.753,6.449,10.859,14.761,9.164
	c6.292-1.282,10.205-6.376,8.754-13.523c-0.319-1.572-1.149-4.257-1.74-4.913c-0.66-0.009-1.651,0.191-2.8,0.429
	c-4.274,0.868-5.997,1.514-6.737,1.713c-0.047-0.621-0.115-1.573-0.501-3.476c-0.447-2.223-0.757-3.127-0.958-3.718
	c0.881,0.068,4.19-0.463,6.726-0.981c1.659-0.34,3.748-0.815,4.326-1.029c1.807,3.833,3.419,7.951,4.249,12.034
	c2.165,10.665-1.463,19.375-9.541,21.023c-10.052,2.053-16.76-5.225-18.972-16.128c-0.953-4.687-0.723-8.018,0.103-11.664
	c1.455,0.238,2.896,0.472,4.301,0.475L20.906,202.291"/>
<path fill="#074286" d="M25.265,179.771c-4.492-0.531-7.589-0.803-11.153-0.939c0.374-2.766,0.864-5.57,1.195-8.341
	c0.549-4.606,0.936-8.562,0.965-9.845c0.473,0.152,0.944,0.301,1.664,0.386c0.842,0.098,1.213,0.051,1.83,0.026
	c-0.629,3.553-1.578,9.152-1.749,10.563c2.902,0.582,5.789,0.921,8.717,1.27c0.403-4.096,0.684-7.112,0.944-10.703
	c0.902,0.297,1.256,0.386,1.778,0.45c0.438,0.051,0.813,0,1.671-0.043c-0.663,3.544-1.199,7.054-1.629,10.623
	c1.689,0.199,3.403,0.454,5.126,0.659c1.689,0.199,3.416,0.357,5.032,0.451c0.421-3.523,0.689-7.16,0.757-10.819
	c0.548,0.158,0.94,0.298,1.782,0.399c0.843,0.098,1.255,0.051,1.748,0.013c-0.243,1.688-0.668,3.879-1.183,8.201
	c-0.906,7.661-0.935,8.94-0.978,9.985c-3.496-0.701-6.572-1.156-11.063-1.691L25.265,179.771"/>
<path fill="#074286" d="M243.964,123.45c3.617-2.4,8.283-4.707,13.284-6.541c-18.804-18.715-45.217-29.78-71.586-29.78
	s-52.782,11.065-71.586,29.78c5.001,1.834,9.667,4.141,13.285,6.541c15.135-15.607,36.082-24.591,58.301-24.624
	C207.882,98.858,228.829,107.843,243.964,123.45z"/>
<path fill="#074286" d="M253.43,158.66c17.41-2.291,30.814-8.781,34.314-10.604c-2.918-10.134-7.298-19.641-12.906-28.288
	c-8.72,0.283-19.623,4.34-26.462,8.694C250.849,138.152,252.512,148.257,253.43,158.66z"/>
<path fill="#074286" d="M185.663,274.254c-30.049,0-59.85-13.338-80.044-35.709c-1.977,0.544-3.971,0.986-5.947,1.326
	c19.313,26.582,50.625,43.878,85.991,43.878s66.678-17.296,85.991-43.878c-1.976-0.34-3.97-0.782-5.947-1.326
	C245.513,260.916,215.711,274.254,185.663,274.254z"/>
<path fill="#074286" d="M289.411,154.618c-5.304,2.641-18.491,8.47-35.449,10.633c0.217,3.914,0.365,7.85,0.365,11.836
	c0,3.076-0.144,6.103-0.274,9.135c9.624,4.186,22.215,7.802,36.111,10.381c1.124-6.204,1.747-12.579,1.747-19.104
	C291.91,169.641,291.032,161.989,289.411,154.618z"/>
<path fill="#074286" d="M248.911,223.474c5.947,4.606,17.344,9.395,26.864,10.292c5.857-9.362,10.297-19.692,13.021-30.708
	c-13.272-2.466-25.446-5.881-35.152-9.842C252.843,203.634,251.256,213.751,248.911,223.474z"/>
<path fill="#074286" d="M185.663,249.217c21.868-0.034,42.377-9.388,56.463-25.671c3.684-14.646,5.599-30.245,5.599-46.459
	c0-16.027-1.902-31.431-5.501-45.926c-14.073-16.328-34.679-25.707-56.561-25.741c-21.882,0.035-42.488,9.413-56.562,25.741
	c-3.599,14.496-5.5,29.899-5.5,45.926c0,16.214,1.914,31.813,5.599,46.459C143.286,239.829,163.794,249.183,185.663,249.217z"/>
<path fill="#074286" d="M122.95,128.462c-6.84-4.354-17.742-8.411-26.462-8.694c-5.607,8.647-9.988,18.154-12.906,28.288
	c3.5,1.823,16.903,8.313,34.314,10.604C118.813,148.257,120.477,138.152,122.95,128.462z"/>
<path fill="#074286" d="M185.663,267.66c27.232,0,54.247-11.673,73.147-31.379c-5.083-1.989-9.646-4.454-13.084-6.952
	c-15.273,16.788-36.953,26.448-60.063,26.482c-23.111-0.034-44.79-9.694-60.063-26.482c-3.438,2.499-8.001,4.963-13.084,6.952
	C131.415,255.987,158.43,267.66,185.663,267.66z"/>
<path fill="#074286" d="M185.663,80.534c29.246,0,58.519,12.777,78.665,34.21c2.077-0.521,4.143-0.923,6.169-1.207
	c-19.393-25.685-50.173-42.291-84.833-42.291c-34.661,0-65.441,16.606-84.833,42.291c2.026,0.284,4.092,0.686,6.169,1.207
	C127.144,93.312,156.417,80.534,185.663,80.534z"/>
<path fill="#074286" d="M116.999,177.086c0-3.986,0.147-7.922,0.365-11.836c-16.959-2.163-30.146-7.992-35.449-10.633
	c-1.622,7.371-2.499,15.023-2.499,22.881c0,6.525,0.622,12.899,1.746,19.104c13.896-2.579,26.487-6.195,36.112-10.381
	C117.142,183.189,116.999,180.162,116.999,177.086z"/>
<path fill="#074286" d="M117.682,193.215c-9.706,3.96-21.879,7.376-35.152,9.842c2.723,11.016,7.163,21.346,13.021,30.708
	c9.52-0.897,20.917-5.686,26.864-10.292C120.069,213.751,118.482,203.634,117.682,193.215z"/>
<path fill="#DB0025" d="M215.158,238.708c1.366,0,5.739-6.221,1.847-7.293c-3.888-1.07,0.484-11.277,6.419-6.317
	c0.778-1.751-1.17-10.309-1.17-10.309l0.782-2.329l-2.139-0.488l0.774-2.234l-2.913-0.49c0,0-12.156,1.652-10.504-5.737
	c0,0,1.854-3.769,1.782-8.653h0.261c10.693,6.224,19.055-6.222,20.613-9.915c-1.111-1.181-1.727-3.076-2.064-5.201
	c-0.616-3.794-0.335-8.302-0.462-10.55c1.943-2.143,3.109,0,4.856,1.945c0,0,0.975-5.643,0.197-7.389
	c-2.141-7.002-7.776-5.251-10.695-2.528c0,0-3.11-4.67-3.11-8.167c0-3.497,2.527-3.892,4.668-1.364
	c2.138,2.529,4.469,1.751,6.804-0.194c-2.53-0.387-2.335-1.747-2.335-5.252c0-3.497,0.387-4.661-3.305-6.803
	c3.11,0.778,10.504-1.169,12.84-2.915c-1.753-2.528-6.616-5.442-9.338-5.442c0,0,0.19-6.035-0.197-7.781
	c-2.331-11.082-12.831-5.251-14.967-1.364l-0.196,0.583c1.749-0.773,10.89,2.337,4.471,10.113
	c-6.419,7.78-5.249,19.643-4.663,22.753c-7.394,0.39-5.443,6.998-4.86,9.331c10.694-3.888,9.329,3.115,8.936,5.639
	c-7.963,0.511-7.95,6.047-7.299,9.386c0.094,0.494,0.204,0.935,0.302,1.309c0.778,2.919,4.084,2.919,5.64,1.168
	c1.558-1.746,4.666-0.973,5.055,2.142c-0.389,8.558-8.751,6.221-11.667,5.833l-0.155,0.069c-0.667-2.304-1.91-4.666-4.024-6.876
	c-1.396-1.457-2.564-2.655-3.548-3.646c-4.999-5.141-5.185-5.336-5.108-8.995l2.917,1.164c0,0,1.361-5.15-0.774-7.873
	c2.042-0.29,4.956-2.044,5.347-4.47c-1.753-0.681-7.094-2.626-2.335-6.612c1.847,0.68,3.989-0.88,4.377-2.822
	c-3.11-1.359-2.336-10.107-2.531-13.218c1.165-13.032-1.945-13.228-4.085-13.81c1.753-1.747,0.197-6.417-0.386-7.972
	c0,0-1.75,3.11-5.64,2.916c-3.889-0.192-3.305-0.974-5.832,0.973c-2.531,1.945-6.998,2.336-11.081,2.336
	c-1.171,1.942-3.31,3.884-5.837,4.47c-2.527,0.583-3.777,2.057-3.582,3.617l0.889,5.328c1.556-0.968,10.474-0.777,12.217,0.391
	c1.752,1.164-0.578,1.164-2.135,1.942c-1.552,0.777-5.93,3.297-8.001,3.594c-1.816,0.259,0.889,3.553,3.726,2.626
	c0,0,0.383,1.848,1.068,2.435c0.681,0.581,0.387,3.59-1.753,3.398c-2.136-0.196-4.373-0.484-4.373-0.484
	c1.651,4.185-1.557,3.11-1.557,3.11c-0.876-0.191-9.528-6.612-12.251-6.709c-2.722-0.094-2.722-2.817-1.655-3.208
	c1.071-0.387,0.587-4.954,0.587-4.954c0.872-0.489,1.944-5.639,0.583-8.073c-1.361-2.431-1.949-2.622-1.949-2.622
	c0,0.871,0.495,3.009-0.092,3.009c-1.362-1.165-4.472-2.426-6.42-2.138c-1.748-0.777-3.402-1.168-4.667-0.68
	c0.681,0.488,1.366,1.849,1.654,2.142c-1.071,0.29-5.929,2.04-6.61,4.373c-1.169-0.191-3.21,0.684-3.598,1.755
	c1.17,0.093,2.428-0.2,2.918,0.484c0.484,0.68,0.191,3.986,0.191,3.986l-0.191,2.817c-1.748,0.583-3.114,2.626-3.305,4.083
	c1.165-0.484,2.815-1.848,3.595-1.164c0.097,1.07,1.165,3.79,3.695,3.11c2.527-0.679,4.569-0.391,4.569-0.391
	s1.944,1.555,0.195,1.95c-1.748,0.387-3.208,0.29-3.598,0.192c-0.393-0.103-0.975-1.169-0.291,0c0.681,1.164,2.332,4.856,4.76,4.567
	c2.43-0.289,4.964,3.115,4.964,3.115c-1.169,0.773-2.722,0.969-2.722,0.969s3.007,3.403,5.244,2.821
	c0.294,0.875-0.872,8.945-8.554,3.403c-0.485-1.364-2.526-8.166-6.419-5.931c-1.455-1.165-3.594-1.262-4.471-0.684
	c0.876,0.586,1.651,3.701,1.651,3.701c-1.553,0.191-4.275,1.164-4.858,2.133c-2.434,0.293-2.723,2.24-3.403,3.505
	c1.263-0.194,3.114,0.196,4.181,0.969c0,0.973-3.305,5.737-2.139,7.292c1.65-0.778,3.693-1.942,4.862-1.071
	c1.166,0.875,2.139,3.599,0.969,5.154c1.944-0.387,3.501-1.262,4.671-0.387c0.269,0.208,0.651,0.357,1.089,0.438
	c0.523,0.11,1.136,0.115,1.774,0c1.098-0.183,2.268-0.713,3.16-1.7c1.846-2.047,1.655-0.492,1.655,0.48
	c0,0.323,0.008,0.761-0.013,1.219c-0.038,0.922-0.208,1.929-0.863,2.184c1.484,0.145,6.079-0.484,9.346-2.184
	c1.242-0.624,2.292-1.423,2.906-2.383c0.275,0.836,0.731,1.313,0.604,2.383c-0.004,0.034-0.013,0.094-0.022,0.145
	c0.073-0.035,0.154-0.081,0.239-0.145c1.671-1.1,5.989-6.39,8.027-2.965l2.429,2.817c0,0,1.948-2.916,2.918-2.427
	c0.595,0.293,1.752,2.18,2.949,2.575c0.293,0.11,0.582,0.124,0.867,0c0.468-0.174,0.919-0.684,1.335-1.7
	c0.392,0.277,0.316,0.931,0.359,1.7c0.076,1.334,0.501,3.026,4.41,3.646c6.121,0.974,4.466,7.488,4.374,8.745
	c-0.103,1.267-1.557,0.297-2.723-1.457c-1.17-1.742-8.751-13.316-17.598-4.466c-1.651-0.391-3.888,0.388-4.475,1.941
	c1.366,0,1.948,0.681,1.948,2.044c0,1.356-1.072,5.542,5.151,9.914c1.366,1.168,0.293,8.264-6.805,0.875
	c-0.774-2.039-1.553-8.554-5.739-6.802c-0.97-1.56-2.527-2.43-3.888-1.848c0.779,0.777,1.17,2.332,1.17,2.332s0.68,0.098-0.29,0
	c-0.978-0.096-7.001-0.288-7.001,2.529c-2.043,0-3.212,0.972-3.6,2.332c1.068-0.096,3.11-0.195,3.502,0.102
	c0.386,0.286,1.458,3.396-0.098,5.538c-1.552,2.137-2.14,3.696-2.14,4.083c1.263-0.386,2.624-1.458,3.696-0.679
	c1.068,0.776,2.918,5.055,2.038,6.899c1.557-0.679,6.032-4.079,7.976-2.136c1.945,1.945,2.821,4.083,2.14,4.766
	c2.136-1.168,6.712-4.18,7.388-3.016c0.681,1.168,1.944,1.946,1.264,3.016c-0.681,1.072,6.418-5.543,10.209-2.914
	c1.455-0.879,3.305-8.366,1.067-11.091c-2.238-2.719-1.268-7.58,4.765-5.149c6.026,2.43,5.831,6.709,5.64,8.944
	c-0.195,2.234-0.783,3.11-0.783,3.11l2.336,0.292l-0.093,2.821c0,0,2.336-1.949,4.567-1.456c2.238,0.479,8.754,2.875,10.788,4.566
	c2.825,2.333,3.212,6.413-0.19,6.026c-3.404-0.386-0.874-4.181-5.642-3.404c0,0-3.108-0.099-4.373,0.875
	c-1.269,0.974-3.309,1.652-4.083,3.018c1.166-0.102,3.888-0.783,4.375,0.191c0.481,0.972-1.262,2.337-0.585,3.31
	c-1.945,0.583-3.399,3.498-2.625,5.831c0.97-0.779,3.5-2.916,4.572-1.552c1.067,1.355,0.774,1.845,1.842,1.938
	c-0.774,1.172-0.48,3.212,0.2,4.088c-1.071,1.556,1.064,4.475,2.237,5.536c0.969-1.554-0.489-4.953,0.873-5.634
	c0.969,0.49,3.595,0.681,4.274-0.875c1.072,1.165,1.851,2.432,3.115,2.626c0.141,1.289,1.6,3.309,2.826,4.403
	c0.364-0.147,0.728-0.297,1.09-0.452C215.01,241.598,214.104,239.273,215.158,238.708z M183.663,128.94
	c-1.364,0-4.088-1.556-1.561-2.719l6.029-0.2L183.663,128.94z"/>
<path fill="#DB0025" d="M157.558,134.162l3.964,3.013c4.02,2.536,4.563,1.011,5.661,0.39c0,0-4.7-3.564-6.167-4.177
	C159.548,132.781,158.345,133.737,157.558,134.162z"/>
</svg>
