<?xml version="1.0" encoding="UTF-8"?>
<svg width="124.5" height="158.77" version="1.1" viewBox="0 0 32.941 42.008" xmlns="http://www.w3.org/2000/svg">
 <g transform="translate(-95.978 -105.04)">
  <path transform="scale(.26458)" d="m363.75 398.02v91.75c0 40.706 29.28 65.811 61.25 65 31.97 0.81139 61.25-24.294 61.25-65v-91.75h-61.25z" fill="#ea3602"/>
  <path transform="scale(.26458)" d="m363.75 466.86v22.912c0 40.706 29.28 65.811 61.25 65 31.97 0.81139 61.25-24.294 61.25-65v-22.91c-7.0957 4.6405-15.136 5.4649-24.381 1.4102-4.202 2.261-8.2458 3.3715-12.164 3.5-5.0378 0.16517-9.8662-1.2924-14.551-4.0117-6.6424 4.7108-13.434 4.9642-20.396 0.0117-4.6351 2.7127-9.4424 4.1666-14.471 4-3.9109-0.12964-7.9543-1.239-12.156-3.5-9.2452 4.0548-17.285 3.2284-24.381-1.4121z" fill="#246c9a"/>
  <path transform="scale(.26458)" d="m363.75 463.98v5.75c7.0957 4.6406 15.136 5.4669 24.381 1.4121 9.6044 5.1678 18.387 4.3226 26.627-0.5 6.9624 4.9517 13.754 4.6987 20.396-0.0117 8.3282 4.8343 17.11 5.6795 26.715 0.51172 9.2451 4.0547 17.285 3.2304 24.381-1.4102v-5.75c-7.0957 4.6405-15.136 5.4649-24.381 1.4102-4.2019 2.261-8.2458 3.3715-12.164 3.5-5.0378 0.16517-9.8662-1.2924-14.551-4.0117-6.6424 4.7108-13.434 4.9638-20.396 0.0117-4.6351 2.7127-9.4424 4.1665-14.471 4-3.9109-0.12964-7.9543-1.239-12.156-3.5-9.2452 4.0548-17.285 3.2284-24.381-1.4121z" fill="#fff"/>
  <path d="m96.242 125.57v1.5214c1.8774 1.2278 4.0046 1.4464 6.4508 0.37362 2.5412 1.3673 4.8648 1.1437 7.045-0.1323 1.8421 1.3101 3.6391 1.2432 5.3966-3e-3 2.2035 1.2791 4.5271 1.5027 7.0683 0.1354 2.4461 1.0728 4.5734 0.85469 6.4508-0.37311v-1.5214c-1.8774 1.2278-4.0047 1.4459-6.4508 0.3731-1.1118 0.59821-2.1817 0.89205-3.2184 0.92604-1.3329 0.0437-2.6104-0.34195-3.8499-1.0614-1.7575 1.2464-3.5544 1.3133-5.3966 3e-3 -1.2264 0.71773-2.4983 1.1024-3.8287 1.0583-1.0348-0.0343-2.1046-0.32783-3.2163-0.92604-2.4461 1.0728-4.5734 0.85419-6.4508-0.37362z" fill="#fff"/>
  <g>
   <path d="m111.82 109.85h-1.6123v-1.3461h-2.7533v1.6092h-0.82506v-1.6092h-1.242v3.1915h1.0501v0.94258h-1.0501v2.8071h2.5797v-1.1693h1.3108v1.1693h2.5091z" fill="#f7d132"/>
   <path transform="scale(.26458)" d="m420.62 405.2v78.941c-2.8242 1.4244-2.6509 3.0986-1.25 4.875-3.0071-0.10579-2.8731 4.2262-0.25 5.125-1.2834 0.8818-1.2848 3.4923 0.25 5.25-4.5127-0.17431-5.8472 2.6829-5.625 5.625-5.9572-1.5449-9.1107 3.6397-8.125 7.375-5.5614-0.41454-5.8956 5.871-3.875 6.875 1.2977 0.64483 0.87376 3.1539-0.375 2.375-0.77726-0.48491-2.0661-1.3718-2-0.25 0.78297 13.3 5.064 22.601 18.75 21.125-1.704 1.8092-1.5101 7.1687 3.75 5.25 0 2.3734 1.1306 2.875 3.125 2.875s3.125-0.50157 3.125-2.875c5.2601 1.9187 5.454-3.4408 3.75-5.25 13.686 1.476 17.967-7.8253 18.75-21.125 0.0661-1.1218-1.2227-0.23491-2 0.25-1.2488 0.77889-1.6727-1.7302-0.375-2.375 2.0206-1.004 1.6864-7.2895-3.875-6.875 0.9857-3.7353-2.1678-8.9199-8.125-7.375 0.22224-2.9421-1.1123-5.7993-5.625-5.625 1.5348-1.7577 1.5334-4.3682 0.25-5.25 2.6231-0.89881 2.7571-5.2308-0.25-5.125 1.4009-1.7764 1.5742-3.4506-1.25-4.875v-78.941h-4.375z" fill="#f7d132"/>
   <path d="m111.79 133.42a0.25045 0.25045 0 0 0-0.24604 0.25336v0.62948c-0.53384 0.10379-1.031-0.0294-1.6229 0.49107-0.56435 0.49621-0.95781-0.26375-1.439-0.33212-0.41833-0.0594-0.68624 0.93384-0.25434 1.1069 0.60589 0.24272 1.1165 1.1888 1.8591 0.53118 0.48864-0.43272 0.96843-0.33808 1.4571-0.32526v6.2841h-0.33601a0.25045 0.25045 0 0 0-0.0259 0 0.25082 0.25082 0 0 0 0.0259 0.50084h5.6879a0.25048 0.25048 0 0 0 0-0.50084h-0.37809c-0.0786-0.19818-0.19265-0.38828-0.44314-0.54683-0.19984-0.24002-0.25167-0.6091-0.27683-0.84127-0.0332-0.30614-0.0144-0.71066-0.0113-1.0731 0.84194-0.84977 0.97494-1.6737-0.56444-2.4353l-0.2426-0.39032a0.87774 0.66274 0 0 0 0.29005-0.48716 1.4439 0.31303 15 0 0 0.61774-0.093 1.4439 0.31303 15 0 0-1.3138-0.67595 1.4439 0.31303 15 0 0-1.0956-0.17804 1.4439 0.31303 15 0 0-0.38004 0.10662 1.4439 0.31303 15 0 0 0.59623 0.43581 0.87774 0.66274 0 0 0-0.18 0.40057 0.87774 0.66274 0 0 0 0.20347 0.42407c-0.0236 0.0885-0.10176 0.34165-0.25532 0.45732-0.22935 0.17279-0.81636 0.50185-1.0071 0.21031-0.1027-0.157-0.23468-0.21917-0.40987-0.25483v-3.4443a0.25045 0.25045 0 0 0-0.25531-0.25336zm1.0506 4.626c0.34471-8e-3 0.68312 0.0547 0.85447 0.38934 0.1011 0.47466-0.0494 0.64532-0.22303 1.1098-0.33865 0.90579 0.014 1.0833-0.20885 2.0552-0.22066 0.15795-0.3509 0.30981-0.42994 0.4583h-0.78794v-3.4619c0.20414-0.0893 0.24428-0.5062 0.45437-0.52678 0.11032-0.0108 0.22602-0.0213 0.34092-0.024zm1.7838 2.1599c0.61054 0.32557 0.81134 0.85636 0.79725 1.4942-0.10318 0.11956-0.13419 0.23903-0.14331 0.35852h-1.2898c-0.0264-0.11991-0.0668-0.23701-0.13891-0.34776 0.068-0.65891 0.23093-1.2392 0.77475-1.505z" fill="#246c9a"/>
   <path transform="matrix(.60806 .016474 -.016474 .60806 43.97 48.594)" d="m113.22 99.875-2.1899 1.9399 0.77296 2.8216-2.5217-1.4833-2.4446 1.607 0.63144-2.8566-2.2838-1.8284 2.9119-0.2822 1.0332-2.737 1.1682 2.6822z" fill="#ea3602"/>
  </g>
 </g>
</svg>
