<?xml version="1.0" encoding="utf-8"?>
<!-- Generator: Adobe Illustrator 13.0.2, SVG Export Plug-In . SVG Version: 6.00 Build 14948)  -->
<!DOCTYPE svg PUBLIC "-//W3C//DTD SVG 1.0//EN" "http://www.w3.org/TR/2001/REC-SVG-20010904/DTD/svg10.dtd">
<svg version="1.0" id="Ebene_1" xmlns="http://www.w3.org/2000/svg" xmlns:xlink="http://www.w3.org/1999/xlink" x="0px" y="0px"
	 width="352.655px" height="439.371px" viewBox="0 0 352.655 439.371" enable-background="new 0 0 352.655 439.371"
	 xml:space="preserve">
<path fill="#EB7C39" d="M184.677,340.431c0,0-12.709,8.472-19.364,13.921c-6.655,5.444-12.708,5.439-26.019,4.839
	c-13.313-0.605-26.021-0.605-26.021-0.605s8.473-5.444,23.6-12.705c12.77-6.133,18.152-7.866,18.152-7.866
	S184.677,337.408,184.677,340.431L184.677,340.431z"/>
<path d="M154.997,336.559c-0.142,0.005-0.283,0.029-0.417,0.073c-0.224,0.068-5.622,1.836-18.335,7.939
	c-15.034,7.212-23.671,12.739-23.756,12.793c-0.542,0.347-0.789,1.011-0.608,1.631c0.182,0.62,0.748,1.045,1.393,1.045
	c0.128,0,12.831,0.005,25.954,0.601c13.24,0.601,19.919,0.63,27.004-5.166c6.523-5.337,19.123-13.75,19.25-13.833
	c0.589-0.391,0.931-0.562,0.647-1.211l-0.638-1.45C182.745,336.29,163.25,336.393,154.997,336.559L154.997,336.559z
	 M181.897,340.553c-3.814,2.583-12.346,8.452-17.503,12.676c-6.292,5.146-11.881,5.107-25.034,4.512
	c-8.066-0.366-15.939-0.508-20.895-0.566c3.931-2.275,10.361-5.82,19.036-9.985c11.362-5.454,16.827-7.402,17.773-7.729
	C165.775,339.254,177.593,339.625,181.897,340.553L181.897,340.553z"/>
<path fill="#EB7C39" d="M191.331,341.036c0,0,16.943,6.655,24.811,10.894c7.865,4.233,15.732,7.261,34.489,4.233
	c18.76-3.022,25.415-6.655,25.415-6.655s-19.969-3.628-37.515-7.866c-17.549-4.233-27.229-7.866-27.229-7.866
	S191.937,336.197,191.331,341.036L191.331,341.036z"/>
<path d="M211.119,332.335c-4.802,0.601-20.534,2.988-21.228,8.521c-0.081,0.659,0.293,1.289,0.91,1.533
	c0.168,0.068,16.951,6.675,24.65,10.82c7.898,4.253,16.014,7.52,35.41,4.39c18.789-3.027,25.599-6.66,25.879-6.812
	c0.54-0.298,0.836-0.898,0.74-1.509c-0.1-0.605-0.568-1.089-1.177-1.196c-0.198-0.039-20.13-3.672-37.435-7.852
	c-17.238-4.16-26.963-7.778-27.061-7.817C211.591,332.335,211.354,332.306,211.119,332.335L211.119,332.335z M211.148,335.265
	c1.689,0.615,11.198,3.965,27.041,7.788c12.163,2.939,25.586,5.601,32.634,6.953c-3.842,1.294-10.305,3.096-20.422,4.727
	c-18.498,2.979-26.147-0.083-33.572-4.082c-6.557-3.53-19.057-8.608-23.418-10.352C195.68,338.346,203.775,336.222,211.148,335.265
	L211.148,335.265z"/>
<path d="M212.511,6.416c-12.723-10.177-43.568-7.866-61.116,4.235c-22.326,15.398-29.482,40.565-32.674,62.326
	c-6.657,45.382-26.547,68.749-54.459,90.16C20.089,197.023-3.51,222.438,6.776,241.192c3.516,6.416,24.206-27.228,28.44-25.411
	c4.236,1.813,0.449,25.68,4.841,26.017c7.866,0.61,16.707-21.084,21.178-19.966c4.841,1.211-5.446,16.943,3.026,19.36
	c6.074,1.738,30.256-24.202,30.256-24.202s2.555,12.449-1.816,31.467c-12.102,52.642,26.733,89.731,81.084,93.184
	c49.497,3.145,85.439-15.371,87.617-42.598c1.973-24.624-8.833-42.603-14.886-61.357c-4.473-13.872-4.355-26.747-4.355-26.747
	s16.943,20.575,19.363,20.575c5.578,0,5.584-15.715,9.683-16.944c6.05-1.815,13.916,12.706,21.177,11.495
	c8.315-1.382,3.117-17.417,6.053-18.15c7.26-1.815,25.697,24.313,31.465,22.389c5.446-1.816-0.605-34.491-35.701-69.587
	c-32.388-32.385-79.6-49.833-84.109-93.791C207.669,43.327,233.69,23.359,212.511,6.416L212.511,6.416z"/>
<path fill="#FFFFFF" d="M182.618,19.849c1.223,2.85-1.184,4.816-6.534,6.898c-6.535,2.542-8.714,2.179-9.804,0
	c-1.089-2.179,2.18-4.72,6.536-6.536C177.173,18.396,181.529,17.307,182.618,19.849L182.618,19.849z"/>
<path fill="#F7BA00" d="M203.313,38.364c0,0-3.662-5.052,4.72-13.433c11.618-11.619,9.077-14.523,9.077-14.523
	s15.246-3.666,32.313-3.994c18.879-0.363,30.859,3.994,30.859,3.994s-10.166,5.082-31.224,10.892
	c-21.058,5.809-32.312,16.337-32.312,16.337S213.116,39.816,203.313,38.364L203.313,38.364z"/>
<path d="M249.394,4.963c-17.024,0.327-32.469,3.997-32.623,4.033c-0.463,0.111-0.783,0.516-0.957,0.957
	c-0.173,0.443-0.061,1.017,0.203,1.411l-0.148-0.221c0.012,0.029,0.873,3.026-8.86,12.76c-9.155,9.153-5.049,15.066-4.87,15.313
	c0.229,0.316,0.576,0.527,0.964,0.585c10.026,1.485,13.975-0.668,14.392-0.918c0.086-0.053,0.169-0.113,0.244-0.183
	c0.113-0.103,11.285-10.365,31.707-16c20.955-5.78,31.066-10.783,31.486-10.993c0.521-0.26,0.836-0.803,0.801-1.383
	c-0.031-0.578-0.41-1.083-0.951-1.28C280.279,8.862,268.326,4.6,249.394,4.963L249.394,4.963z M249.452,7.867
	c12.393-0.238,21.74,1.594,26.599,2.831c-4.585,1.932-13.61,5.404-27.378,9.201c-20.459,5.645-31.594,15.473-32.739,16.519
	c-0.296,0.15-3.618,1.659-11.667,0.594c-0.152-0.382-0.309-0.927-0.309-1.775c0-1.947,0.914-5.091,5.104-9.278
	c7.816-7.818,9.68-12.123,9.753-14.438C222.767,10.664,235.507,8.135,249.452,7.867L249.452,7.867z"/>
<path fill="#FFFFFF" d="M195.931,151.881c0,0-12.494-18.699-30.981-16.459c-15.974,1.937-25.833,7.905-21.3,25.172
	c10.166,38.727,12.152,66.345,2.422,85.198c-15.492,30.015-25.587,49.307-7.745,66.802c25.171,24.688,67.285,29.048,97.3,8.716
	c13.789-9.341,30.015-13.071,6.291-74.067c-10.539-27.105-9.196-56.151-7.744-85.679c0.572-11.604-7.676-20.842-16.457-21.785
	C204.161,138.327,195.931,151.881,195.931,151.881L195.931,151.881z"/>
<path fill="#F7BA00" d="M164.513,131.818c-11.52,1.396-18.683,4.692-22.543,10.373c-3.304,4.865-3.919,11.366-1.831,19.325
	c10.573,40.275,11.408,65.751,2.707,82.611l-0.237,0.459c-15.377,29.795-26.488,51.318-6.825,70.601
	c26.864,26.353,70.663,30.273,101.879,9.126l3.235-2.1c6.527-4.15,13.928-8.857,16.091-20.347
	c2.239-11.904-1.472-29.678-11.685-55.938c-10.337-26.578-8.896-55.864-7.502-84.186c0.632-12.871-8.206-24.342-19.7-25.574
	c-10.661-1.141-18.269,5.337-22.204,9.822C190.787,140.152,179.576,129.992,164.513,131.818L164.513,131.818z M140.868,310.006
	c-15.165-14.873-8.036-30.649,8.193-62.09l0.237-0.459c9.585-18.569,8.926-45.645-2.136-87.784
	c-1.554-5.922-1.288-10.306,0.815-13.401c2.559-3.766,8.252-6.135,17.41-7.245c16.001-1.938,27.417,14.708,27.529,14.878
	l3.149,4.673l2.964-4.803c0.071-0.116,7.256-11.567,18.298-10.385c6.777,0.725,13.707,8.13,13.221,17.996
	c-1.431,29.083-2.908,59.156,7.986,87.175c20.752,53.354,10.424,59.922-1.533,67.524l-3.411,2.217
	C205.177,337.55,165.316,333.98,140.868,310.006L140.868,310.006z"/>
<path fill="#B2DDE0" d="M95.666,342.11H64.355l-27.103-35.034H25.596v35.034H0v-95.303h42.985c5.872,0,10.924,0.322,15.149,0.957
	c4.227,0.645,8.189,2.026,11.886,4.155c3.735,2.134,6.704,4.893,8.907,8.281c2.202,3.384,3.305,7.637,3.305,12.749
	c0,7.031-1.707,12.759-5.116,17.188c-3.409,4.434-8.28,8.12-14.608,11.06L95.666,342.11L95.666,342.11z M55.548,275.953
	c0-2.368-0.507-4.395-1.521-6.084c-1.014-1.694-2.756-3.022-5.223-3.994c-1.719-0.679-3.725-1.089-6.016-1.235
	c-2.293-0.151-4.962-0.225-8.002-0.225h-9.19v25.415h7.803c4.054,0,7.446-0.19,10.181-0.571c2.734-0.376,5.025-1.245,6.877-2.598
	c1.762-1.309,3.05-2.754,3.867-4.341C55.14,280.738,55.548,278.614,55.548,275.953L55.548,275.953z"/>
<path fill="#B2DDE0" d="M352.655,276.891c0,4.268-0.781,8.438-2.342,12.515s-3.787,7.5-6.68,10.273
	c-3.965,3.75-8.384,6.592-13.264,8.511c-4.879,1.919-10.945,2.881-18.203,2.881h-15.97v31.04h-25.596v-95.303h42.194
	c6.321,0,11.65,0.527,15.989,1.567c4.341,1.05,8.179,2.617,11.519,4.707c4.004,2.515,7.063,5.737,9.18,9.663
	C351.595,266.671,352.655,271.388,352.655,276.891L352.655,276.891z M325.968,277.545c0-2.666-0.754-4.966-2.258-6.89
	c-1.51-1.929-3.258-3.271-5.25-4.033c-2.658-1.016-5.254-1.577-7.775-1.685c-2.524-0.103-5.891-0.156-10.103-0.156h-4.385v28.32
	h7.31c4.341,0,7.92-0.254,10.732-0.762c2.814-0.508,5.174-1.523,7.078-3.052c1.641-1.353,2.822-2.974,3.555-4.854
	C325.604,282.55,325.968,280.255,325.968,277.545L325.968,277.545z"/>
<path fill="#FFFFFF" d="M193.03,437.921c-9.289,0-17.862-0.786-25.722-2.363c-7.863-1.572-14.616-3.921-20.265-7.041
	c-5.653-3.12-10.033-7.007-13.136-11.67c-3.105-4.663-4.657-10.049-4.657-16.157c0-5.688,1.481-10.85,4.447-15.479
	c2.964-4.629,7.273-8.599,12.926-11.914c5.426-3.184,12.153-5.645,20.184-7.383c8.026-1.733,16.798-2.603,26.31-2.603
	c5.259,0,9.998,0.171,14.224,0.508c4.224,0.337,8.128,0.781,11.706,1.328c3.75,0.615,7.148,1.299,10.198,2.051
	c3.05,0.757,5.72,1.46,8.015,2.1v17.432h-3.686c-1.565-0.776-3.538-1.699-5.914-2.769c-2.373-1.069-5.068-2.124-8.083-3.159
	c-3.076-1.035-6.401-1.909-9.976-2.622c-3.579-0.713-7.404-1.069-11.484-1.069c-4.526,0-8.826,0.41-12.905,1.23
	c-4.079,0.825-7.851,2.183-11.313,4.082c-3.298,1.841-5.968,4.268-8.007,7.3c-2.04,3.027-3.058,6.699-3.058,11.016
	c0,4.512,1.103,8.281,3.308,11.309c2.208,3.027,4.987,5.41,8.34,7.148c3.411,1.772,7.208,3.037,11.401,3.794
	c4.189,0.757,8.323,1.138,12.402,1.138c3.912,0,7.779-0.337,11.609-1.011c3.826-0.669,7.361-1.577,10.604-2.729
	c2.736-0.923,5.277-1.914,7.627-2.969c2.346-1.055,4.274-1.968,5.783-2.734h3.352v17.095c-3.135,0.801-6.125,1.553-8.979,2.256
	c-2.854,0.703-5.85,1.313-8.98,1.821c-4.084,0.674-7.92,1.187-11.498,1.538C204.22,437.745,199.298,437.921,193.03,437.921
	L193.03,437.921z"/>
<path d="M166.5,364.498c-8.137,1.758-15.073,4.297-20.613,7.544c-5.825,3.418-10.338,7.583-13.413,12.383
	c-3.103,4.844-4.676,10.313-4.676,16.265c0,6.372,1.649,12.08,4.901,16.963c3.218,4.834,7.808,8.916,13.643,12.134
	c5.757,3.179,12.716,5.601,20.681,7.197c7.921,1.587,16.672,2.388,26.008,2.388c6.285,0,11.305-0.176,14.912-0.532
	c3.587-0.352,7.486-0.874,11.592-1.553c3.138-0.508,6.197-1.128,9.092-1.846l10.091-2.529l-0.005-1.133v-18.545h-5.132l-6.052,2.861
	c-2.298,1.03-4.82,2.012-7.496,2.915c-3.171,1.128-6.66,2.026-10.388,2.676c-3.726,0.654-7.546,0.986-11.36,0.986
	c-3.979,0-8.066-0.371-12.146-1.108c-4.026-0.732-7.722-1.958-10.987-3.657c-3.139-1.626-5.774-3.887-7.835-6.719
	c-2.012-2.759-3.032-6.274-3.032-10.449c0-4.004,0.946-7.437,2.809-10.205c1.899-2.822,4.427-5.122,7.51-6.841
	c3.304-1.812,6.972-3.135,10.894-3.926c3.967-0.801,8.213-1.206,12.619-1.206c3.96,0,7.727,0.352,11.199,1.04
	c3.503,0.703,6.799,1.567,9.795,2.578c2.959,1.016,5.639,2.065,7.953,3.105l6.155,2.886l0.354,0.015h5.139V368.18l-9.119-2.393
	c-3.073-0.757-6.543-1.46-10.313-2.07c-3.61-0.557-7.585-1.006-11.823-1.348c-4.258-0.337-9.082-0.508-14.341-0.508
	C183.544,361.861,174.59,362.75,166.5,364.498L166.5,364.498z M167.593,434.137c-7.674-1.538-14.351-3.857-19.848-6.89
	c-5.424-2.993-9.673-6.763-12.629-11.206c-2.928-4.395-4.414-9.561-4.414-15.352c0-5.386,1.418-10.327,4.217-14.697
	c2.826-4.414,7.011-8.262,12.438-11.445c5.273-3.091,11.919-5.518,19.756-7.212c7.889-1.704,16.638-2.573,26.003-2.573
	c5.184,0,9.93,0.171,14.109,0.508c4.172,0.332,8.076,0.776,11.602,1.313c3.679,0.601,7.067,1.284,10.068,2.026
	c0,0,4.76,1.245,6.911,1.812c0,1.787,0,12.588,0,14.858c-0.913,0-1.606,0-1.911,0c-0.579-0.273-5.638-2.642-5.638-2.642
	c-2.397-1.079-5.161-2.158-8.21-3.208c-3.123-1.055-6.539-1.953-10.164-2.676c-3.66-0.728-7.617-1.099-11.768-1.099
	c-4.6,0-9.038,0.425-13.191,1.265c-4.211,0.85-8.156,2.271-11.728,4.229c-3.494,1.948-6.355,4.561-8.511,7.764
	c-2.195,3.257-3.306,7.236-3.306,11.826c0,4.805,1.206,8.896,3.589,12.163c2.329,3.193,5.304,5.747,8.845,7.583
	c3.521,1.831,7.495,3.154,11.81,3.936c4.248,0.767,8.508,1.157,12.66,1.157c3.98,0,7.972-0.347,11.861-1.025
	c3.887-0.684,7.533-1.626,10.837-2.798c2.744-0.923,5.352-1.943,7.737-3.013c0,0,4.299-2.031,5.512-2.603c0.273,0,0.801,0,1.575,0
	c0,2.256,0,12.71,0,14.507c-1.685,0.425-7.874,1.978-7.874,1.978c-2.822,0.693-5.805,1.299-8.867,1.802
	c-4.047,0.664-7.885,1.177-11.406,1.523c-3.518,0.347-8.438,0.522-14.629,0.522C183.886,436.471,175.327,435.685,167.593,434.137
	L167.593,434.137z"/>
</svg>
