<?xml version="1.0" encoding="utf-8"?>
<!-- Generator: Adobe Illustrator 13.0.2, SVG Export Plug-In . SVG Version: 6.00 Build 14948)  -->
<!DOCTYPE svg PUBLIC "-//W3C//DTD SVG 1.0//EN" "http://www.w3.org/TR/2001/REC-SVG-20010904/DTD/svg10.dtd">
<svg version="1.0" id="Ebene_1" xmlns="http://www.w3.org/2000/svg" xmlns:xlink="http://www.w3.org/1999/xlink" x="0px" y="0px"
	 width="566.929px" height="566.929px" viewBox="0 0 566.929 566.929" enable-background="new 0 0 566.929 566.929"
	 xml:space="preserve">
<path fill-rule="evenodd" clip-rule="evenodd" fill="#ADCDDE" d="M283.464,18.495c64.218,0,123.099,22.858,168.968,60.879v4.299
	H109.444C156,43.083,216.861,18.495,283.464,18.495L283.464,18.495z"/>
<path fill-rule="evenodd" clip-rule="evenodd" fill="#ADCDDE" d="M507.018,141.196c11.305,17.725,20.562,36.879,27.434,57.139
	H32.478c6.873-20.26,16.129-39.414,27.434-57.139H507.018L507.018,141.196z"/>
<path fill-rule="evenodd" clip-rule="evenodd" fill="#ADCDDE" d="M546.994,255.759c0.947,9.106,1.44,18.351,1.44,27.706
	c0,10.083-0.587,20.027-1.683,29.818H20.177c-1.096-9.791-1.683-19.734-1.683-29.818c0-9.355,0.493-18.6,1.44-27.706H546.994
	L546.994,255.759z"/>
<path fill-rule="evenodd" clip-rule="evenodd" fill="#ADCDDE" d="M533.668,370.806c-7.133,20.432-16.697,39.719-28.347,57.523
	H61.607c-11.649-17.805-21.214-37.092-28.347-57.523H533.668L533.668,370.806z"/>
<path fill-rule="evenodd" clip-rule="evenodd" fill="#ADCDDE" d="M457.275,483.435c-34.153,29.711-75.992,50.811-122.128,59.939
	H231.782c-46.136-9.129-87.975-30.229-122.127-59.939H457.275L457.275,483.435z"/>
<path fill-rule="evenodd" clip-rule="evenodd" d="M283.464,0c156.526,0,283.465,126.939,283.465,283.465
	c0,156.525-126.938,283.464-283.465,283.464C126.939,566.929,0,439.99,0,283.465C0,126.939,126.939,0,283.464,0L283.464,0z
	 M120.027,481.714h326.875c18.271-15.086,34.434-32.639,47.951-52.164H72.076C85.593,449.076,101.757,466.628,120.027,481.714
	L120.027,481.714z M442.675,485.14H124.254c43.775,34.623,99.074,55.303,159.21,55.303S398.9,519.763,442.675,485.14L442.675,485.14
	z M69.745,426.126h427.439c11.11-16.611,20.351-34.576,27.386-53.613H42.359C49.394,391.55,58.635,409.515,69.745,426.126
	L69.745,426.126z M41.138,369.087h484.654c6.048-17.115,10.356-35.053,12.665-53.613H28.473
	C30.781,334.035,35.089,351.972,41.138,369.087L41.138,369.087z M28.08,312.048h510.77c1.039-9.385,1.594-18.918,1.594-28.583
	c0-8.772-0.445-17.447-1.306-25.995H27.792c-0.861,8.548-1.306,17.223-1.306,25.995C26.486,293.13,27.041,302.664,28.08,312.048
	L28.08,312.048z M28.16,254.045h510.609c-2.137-18.716-6.278-36.82-12.218-54.098H40.377
	C34.438,217.225,30.297,235.329,28.16,254.045L28.16,254.045z M41.585,196.522h483.758c-6.838-19.013-15.846-36.98-26.739-53.616
	H68.325C57.431,159.542,48.424,177.509,41.585,196.522L41.585,196.522z M70.606,139.481h425.717
	c-13.754-20.292-30.321-38.507-49.158-54.095h-327.4C100.928,100.974,84.36,119.189,70.606,139.481L70.606,139.481z M124.002,81.961
	h318.924c-43.82-34.729-99.218-55.475-159.462-55.475S167.823,47.232,124.002,81.961L124.002,81.961z"/>
<path fill-rule="evenodd" clip-rule="evenodd" fill="#E5BC4A" d="M283.464,3.425c154.635,0,280.04,125.405,280.04,280.04
	c0,154.634-125.405,280.041-280.04,280.041S3.425,438.099,3.425,283.465C3.425,128.83,128.83,3.425,283.464,3.425L283.464,3.425z
	 M283.464,23.062c143.792,0,260.403,116.611,260.403,260.403c0,143.792-116.611,260.404-260.403,260.404
	S23.061,427.257,23.061,283.465C23.061,139.673,139.672,23.062,283.464,23.062L283.464,23.062z"/>
<path fill-rule="evenodd" clip-rule="evenodd" d="M397.877,188.935v29.27h-30.938V101.168h56.973l18.791,18.549v51.604
	l-17.291,17.631L397.877,188.935L397.877,188.935z M411.764,157.994v-25.861h-13.887v25.861H411.764L411.764,157.994z"/>
<path fill-rule="evenodd" clip-rule="evenodd" fill="#FFFFFF" d="M424.212,186.099l15.636-15.944v-49.244l-17.108-16.89h-52.946
	V215.35h25.229v-29.271L424.212,186.099L424.212,186.099z M414.619,160.848h-19.596v-31.569h19.596V160.848L414.619,160.848z"/>
<path fill-rule="evenodd" clip-rule="evenodd" d="M372.647,106.876h48.922l15.426,15.227v46.887l-13.979,14.252l-30.847-0.018
	v29.272h-19.522V106.876L372.647,106.876z M417.472,163.702v-37.277h-25.303v37.277H417.472L417.472,163.702z"/>
<path fill-rule="evenodd" clip-rule="evenodd" d="M187.131,164.186l7.854,7.734v46.284h-30.938v-37.476l-15.503-0.012v37.487
	h-30.938V101.168h58.657l18.792,18.549v37.95L187.131,164.186L187.131,164.186z M164.115,149.776v-17.643h-15.572v17.643H164.115
	L164.115,149.776z"/>
<path fill-rule="evenodd" clip-rule="evenodd" fill="#FFFFFF" d="M182.87,163.997l9.261,9.12v42.233h-25.23v-37.475l-21.212-0.011
	v37.486h-25.23V104.021h54.632l17.109,16.887v35.412L182.87,163.997L182.87,163.997z M166.969,152.63v-23.351h-21.28v23.351H166.969
	L166.969,152.63z"/>
<path fill-rule="evenodd" clip-rule="evenodd" d="M123.313,106.876h50.606l15.426,15.227v32.87l-10.736,8.834l10.667,10.503v38.186
	h-19.522v-37.474l-26.919-0.016v37.489h-19.522V106.876L123.313,106.876z M169.823,155.485v-29.06h-26.988v29.06H169.823
	L169.823,155.485z"/>
<polygon fill-rule="evenodd" clip-rule="evenodd" points="202.593,186.485 233.531,186.485 233.531,218.202 202.593,218.202 
	202.593,186.485 "/>
<polygon fill-rule="evenodd" clip-rule="evenodd" fill="#FFFFFF" points="205.447,189.339 230.677,189.339 230.677,215.348 
	205.447,215.348 205.447,189.339 "/>
<polygon fill-rule="evenodd" clip-rule="evenodd" points="208.301,192.193 227.823,192.193 227.823,212.496 208.301,212.496 
	208.301,192.193 "/>
<polygon fill-rule="evenodd" clip-rule="evenodd" points="327.02,186.485 357.958,186.485 357.958,218.202 327.02,218.202 
	327.02,186.485 "/>
<polygon fill-rule="evenodd" clip-rule="evenodd" fill="#FFFFFF" points="329.875,189.339 355.105,189.339 355.105,215.348 
	329.875,215.348 329.875,189.339 "/>
<polygon fill-rule="evenodd" clip-rule="evenodd" points="332.729,192.193 352.25,192.193 352.25,212.496 332.729,212.496 
	332.729,192.193 "/>
<polygon fill-rule="evenodd" clip-rule="evenodd" points="446.865,186.485 477.803,186.485 477.803,218.202 446.865,218.202 
	446.865,186.485 "/>
<polygon fill-rule="evenodd" clip-rule="evenodd" fill="#FFFFFF" points="449.719,189.339 474.95,189.339 474.95,215.348 
	449.719,215.348 449.719,189.339 "/>
<polygon fill-rule="evenodd" clip-rule="evenodd" points="452.574,192.193 472.095,192.193 472.095,212.496 452.574,212.496 
	452.574,192.193 "/>
<polygon fill-rule="evenodd" clip-rule="evenodd" points="287.643,132.133 271.84,132.133 271.84,187.24 287.643,187.24 
	287.643,163.282 318.582,163.282 318.582,200.283 301.466,218.204 258.143,218.204 240.902,200.162 240.902,119.073 
	258.157,101.168 301.332,101.168 318.582,119.075 318.582,150.772 287.643,150.772 287.643,132.133 "/>
<polygon fill-rule="evenodd" clip-rule="evenodd" fill="#FFFFFF" points="290.497,129.279 268.986,129.279 268.986,190.095 
	290.497,190.095 290.497,166.136 315.727,166.136 315.727,199.139 300.247,215.35 259.365,215.35 243.756,199.018 243.756,120.226 
	259.372,104.021 300.119,104.021 315.727,120.226 315.727,147.918 290.497,147.918 290.497,129.279 "/>
<polygon fill-rule="evenodd" clip-rule="evenodd" points="260.584,106.876 298.904,106.876 312.874,121.377 312.874,145.063 
	293.351,145.063 293.351,126.425 266.132,126.425 266.132,192.949 293.351,192.949 293.351,168.99 312.874,168.99 312.874,197.995 
	299.025,212.496 260.584,212.496 246.61,197.874 246.61,121.377 260.584,106.876 "/>
</svg>
