<?xml version="1.0" encoding="utf-8"?>
<!-- Generator: Adobe Illustrator 16.0.3, SVG Export Plug-In . SVG Version: 6.00 Build 0)  -->
<!DOCTYPE svg PUBLIC "-//W3C//DTD SVG 1.1//EN" "http://www.w3.org/Graphics/SVG/1.1/DTD/svg11.dtd">
<svg version="1.1" id="Capa_1" xmlns="http://www.w3.org/2000/svg" xmlns:xlink="http://www.w3.org/1999/xlink" x="0px" y="0px"
	 width="155.913px" height="175.749px" viewBox="0 0 155.913 175.749" enable-background="new 0 0 155.913 175.749"
	 xml:space="preserve">
<g>
	<polygon fill-rule="evenodd" clip-rule="evenodd" fill="#FF0000" points="47.544,136.522 86.26,88.698 89.676,83.573 
		92.522,75.602 95.939,72.565 110.932,101.981 76.006,146.968 64.199,146.968 64.199,136.522 47.544,136.522 	"/>
	<path fill-rule="evenodd" clip-rule="evenodd" fill="#FFFFFF" d="M92.973,91.204c6.069,0,11.021,4.951,11.021,11.02
		c0,6.07-4.951,11.021-11.021,11.021s-11.021-4.951-11.021-11.021C81.952,96.155,86.903,91.204,92.973,91.204L92.973,91.204z"/>
	<path fill-rule="evenodd" clip-rule="evenodd" d="M91.172,110.224c-3.65-0.834-6.386-4.111-6.386-8.008
		c0-3.895,2.737-7.18,6.386-8.016l-0.004-1.742c-4.598,0.863-8.096,4.916-8.096,9.758s3.498,8.895,8.096,9.758L91.172,110.224
		L91.172,110.224z M97.207,95.312c0-3.055-2.947-3.055-5.015-2.992v19.791c0.268,0.023,0.535,0.033,0.809,0.033
		c0.3,0,0.613-0.012,0.906-0.039v-5.787c0.716,1.744,1.217,3.596,1.585,5.514c0.688-0.168,1.091-0.342,1.715-0.645
		c-0.375-2.285-1.116-4.393-1.928-6.371c1.04-0.738,1.928-1.559,1.928-3.273V95.312L97.207,95.312z M95.492,101.542
		c0,0.883-0.718,1.715-1.585,1.715v-9.105c0.867,0,1.585,0.779,1.585,1.662V101.542L95.492,101.542z M98.22,93.798
		c4.518,2.807,6.923,9.828,1.723,13.242v2.275c-0.518,0.506-1.102,0.955-1.719,1.338L98.22,93.798L98.22,93.798z M99.942,97.802
		c0.723,1.125,1.135,2.4,1.242,3.697c0.023,1.447-0.466,2.205-1.242,2.781V97.802L99.942,97.802z M91.172,95.446
		c-3.032,0.58-5.184,3.541-5.184,6.77c0,2.125,0.947,4.033,2.448,5.322v-2.627c-0.295-0.496-0.5-1.047-0.621-1.631h1.642v4.986
		c0.52,0.305,1.121,0.57,1.715,0.734V95.446L91.172,95.446z M89.457,98.278c-0.905,0.826-1.546,1.984-1.712,3.264h1.712V98.278
		L89.457,98.278z"/>
	<path fill-rule="evenodd" clip-rule="evenodd" d="M0.289,139.872c0.305,1.43,1.821,3.148,3.218,3.656
		c-0.024,0.656-0.028,1.305,0.118,1.91C1.223,144.548-0.292,142.163,0.289,139.872L0.289,139.872z M3.714,151.173
		c-0.178-0.633-0.236-1.449-0.337-2.152c-1.023-0.66-3.083-1.27-3.376-2.412v4.322L3.714,151.173L3.714,151.173z M3.842,152.073
		c0.21,0.889,0.54,1.303,1.311,2.137H0v-2.443L3.842,152.073L3.842,152.073z M33.822,157.618c1.723,0.289,3.449,0.523,5.177,0.684
		v1.578c-1.728-0.16-3.454-0.395-5.177-0.684V157.618L33.822,157.618z M37.219,154.054c-1.133-0.139-2.266-0.305-3.396-0.494v-1.576
		c1.131,0.189,2.263,0.355,3.396,0.492V154.054L37.219,154.054z M9.978,155.329c2.033-0.084,3.567-0.688,4.145-2.385h-3.124
		l0.043-2.787h2.887v1.613l1.279-0.006l0.007,1.486l1.445-0.025v1.793c-2.187,1.293-4.454,1.617-6.803,1.459L9.978,155.329
		L9.978,155.329z M96.303,161.103c0.517-0.061,1.032-0.121,1.547-0.184v-1.578c-0.505,0.063-1.044,0.158-1.549,0.219L96.303,161.103
		L96.303,161.103z M136.359,162.341c-2.776,1.211-5.757,2.346-8.645,3.063v1.578c2.888-0.719,6.296-1.863,8.645-3.063V162.341
		L136.359,162.341z M129.591,158.491c0.737-0.041,1.87-0.215,1.787-0.957c-0.024-0.813-0.021-1.834-0.258-2.484
		C129.485,155.683,129.647,156.515,129.591,158.491L129.591,158.491z M58.014,172.726l-3.628,3.023
		c-2.022-0.043-4.709-0.227-6.683-0.854c1.758,0.053,4.244,0.293,6.061-0.018v-1.875c-1.154,0.02-3.395-0.148-4.549-0.363
		c1.285-0.047,3.299-0.129,4.565-0.5v-1.822c-1.415,0.014-2.905-0.113-4.38-0.34c1.46-0.064,2.92-0.178,4.38-0.545v-7.744h-4.233
		v-4.547l3.326-2.258l1.932,1.984l-2.99,1.947v1.662h2.873l3.326-2.115v1.428h2.46l-2.46,1.84v2.336h2.59l-2.59,1.914v2.441
		c1.156,0.074,2.313,0.088,3.471,0.098l0.01,1.447c-1.161,0.02-2.321-0.02-3.481-0.113V172.726L58.014,172.726z M41.604,172.636
		l0.008-16.029h0.403l0,2.438c0.554,0.066,1.107,0.09,1.662,0.068l0.008,1.641c-0.557,0-1.115-0.025-1.671-0.109l0,2.203
		c0.634,0.07,1.227,0.098,1.789,0.094l0,1.596c-0.596,0.021-1.193,0.008-1.789-0.082l-0.001,2.146
		c0.659,0.074,1.29,0.135,1.895,0.148l0,1.506c-0.609,0.033-1.237-0.057-1.846-0.139l0.012,2.354
		c0.579,0.09,1.248,0.139,1.828,0.129l-0.007,1.381c-0.567,0.039-1.134-0.025-1.699-0.086l-0.001,0.789L41.604,172.636
		L41.604,172.636z M75.408,160.804c-1.421,0.025-2.843,0.035-4.263,0.033v1.578c1.42,0.002,2.842-0.01,4.263-0.035V160.804
		L75.408,160.804z M82.538,160.575c-1.667,0.004-3.294,0.145-4.982,0.188v1.576c1.674-0.012,3.311-0.057,5.009-0.133L82.538,160.575
		L82.538,160.575z M89.546,160.274c-1.582,0.133-3.169,0.232-4.763,0.275l0.002,1.576c1.571-0.086,3.183-0.197,4.764-0.328
		L89.546,160.274L89.546,160.274z M94.63,159.71c-1.011,0.119-2.021,0.234-3.033,0.34l0.007,1.51c0.91-0.088,2.119-0.184,3.03-0.283
		L94.63,159.71L94.63,159.71z M21.19,154.64c-0.854-0.227-1.706-0.457-2.558-0.693v1.578c0.852,0.234,1.704,0.467,2.558,0.693
		V154.64L21.19,154.64z M25.753,155.849c-0.903-0.215-1.805-0.441-2.707-0.674v1.578c0.901,0.232,1.804,0.457,2.707,0.672V155.849
		L25.753,155.849z M23.81,151.308c0.649,0.168,1.296,0.328,1.944,0.482v-1.576c-0.649-0.154-1.297-0.316-1.946-0.479L23.81,151.308
		L23.81,151.308z M31.697,157.155c-1.328-0.248-2.656-0.525-3.981-0.826v1.578c1.325,0.301,2.653,0.578,3.981,0.824V157.155
		L31.697,157.155z M28.323,152.411c1.072,0.246,2.041,0.479,3.162,0.686v-1.578c-1.121-0.207-2.09-0.438-3.162-0.686V152.411
		L28.323,152.411z M15.468,166.122c7.779,2.203,15.632,4.455,23.531,5.191v-1.578c-7.899-0.736-15.752-2.986-23.533-5.193v-2.225
		c7.781,2.201,15.634,4.453,23.533,5.189v-1.578c-7.899-0.736-15.752-2.986-23.533-5.195v-2.225
		C23.248,160.712,31.1,162.964,39,163.7v-1.578c-7.899-0.736-15.752-2.986-23.511-5.197c-0.833,0.273-1.666,0.49-2.5,0.582v3.033
		c-0.944,0.193-1.682,0.301-2.711,0.256c0.986,0.371,1.725,0.414,2.711,0.633v1.189c-0.952,0.223-2.02,0.303-3.054,0.271
		c1.094,0.428,2.162,0.469,3.054,0.67v1.146c-1.052,0.121-3.011,0.1-4.064-0.098c0.992,0.611,3.012,0.943,4.064,1.133v1.039
		C13.816,166.649,14.642,166.429,15.468,166.122L15.468,166.122z M2.406,159.339c0.615,0.514,1.305,0.92,2.069,1.225l-0.353,1.189
		c-0.844-0.365-1.613-0.836-2.31-1.408L2.406,159.339L2.406,159.339z M108.78,147.878c-0.662,0.125-1.739,0.16-2.914,0.309
		c-0.732,1.438-0.969,2.729,0.104,3.805l1.624-0.068C107.562,150.396,107.911,149.046,108.78,147.878L108.78,147.878z
		 M103.264,148.042c-0.959,0.313-2.72,0.891-4.103,0.891c-0.654,1.453-0.943,3.109-0.694,4.922l1.927-0.355
		C100.605,151.718,102.148,149.823,103.264,148.042L103.264,148.042z M96.12,149.101c-0.882,0.059-1.793,0-2.728,0.051
		c-0.365,0.02-1.469,0.521-1.613,1.133c-0.271,2.16-0.386,3.861,0.961,4.674l3.39-0.592c-0.307-1.084-1.531-1.674-2.295-1.83
		c0.915-0.389,1.652-1.008,2.213-1.855L96.12,149.101L96.12,149.101z M90.066,149.571c-1.523,0.064-3.095,0.121-4.698,0.17
		c-0.858,1.836-0.761,3.67,0.474,5.508l3.782-0.143c-0.352-0.883-1.606-1.736-2.776-1.879
		C88.721,152.22,89.773,151.7,90.066,149.571L90.066,149.571z M82.895,149.808c-1.641,0.039-3.306,0.072-4.979,0.096
		c-0.164,1.822,0.371,3.08,2.452,3.107C81.935,153.106,82.783,152.067,82.895,149.808L82.895,149.808z M76.089,149.923
		c-1.62,0.018-3.431,0.029-5.042,0.033c-0.849,1.873,0.012,4.414,0.606,6.262l3.944-0.059c-0.791-1.053-1.829-2.025-3.41-2.443
		c1.466-0.396,2.844-0.934,3.915-1.967L76.089,149.923L76.089,149.923z M60.796,149.882c-1.298-0.021-2.564-0.049-3.786-0.078v5.438
		h3.732L60.796,149.882L60.796,149.882z M53.998,149.718c-1.514-0.049-2.939-0.105-4.255-0.166l1.786,3.123h3.528v-1.893
		L53.998,149.718L53.998,149.718z M48.465,151.724c-0.151-0.969-0.771-1.762-1.86-2.379c-2.501-0.195-4.353-0.428-5.304-0.693v1.938
		l3.087,1.811l0.242,3.092l2.286-1.188l-0.349-2.201L48.465,151.724L48.465,151.724z M68.914,149.956
		c-1.634-0.004-3.341-0.014-4.921-0.029l-0.036,16.068c10.986,0.449,22.869,0.107,33.894-1.174v-1.578
		c-11.024,1.283-22.066,1.75-33.065,1.367v-2.324c1.375,0.047,2.75,0.082,4.126,0.104v-1.578c-1.376-0.02-2.752-0.055-4.126-0.104
		v-3.033c1.327-0.18,2.654-0.811,3.983-1.553v-1.514c-0.634-0.416-1.467-0.635-2.438-0.715c1.023-0.252,1.877-0.615,2.564-1.092
		L68.914,149.956L68.914,149.956z M123.907,141.081c-0.343-0.949,1.53-1.41,2.221-1.16c1.246,0.795,1.546,1.881,1.433,3.494
		c-2.199,1.777-2.368,3.559-2.688,6.043c-0.88,0.203-1.709,0.418-2.589,0.502c-0.727-1.467-0.399-2.627,1.083-4.092
		C125.128,143.995,124.814,142.772,123.907,141.081L123.907,141.081z M118.527,142.147c-0.342-0.951,1.276-1.41,1.968-1.162
		c1.55,0.693,2.51,1.629,2.295,3.496c-0.118,1.115-3.181,1.324-3.5,5.99c-0.88,0.305-1.607,0.369-2.437,0.301
		c-0.726-1.467-0.603-2.373,0.88-3.838C119.241,145.112,119.334,143.786,118.527,142.147L118.527,142.147z M113.147,143.313
		c-0.342-0.949,1.429-2.17,2.425-1.668c1.55,0.693,2.002,1.578,1.788,3.445c-0.372,1.623-2.876,0.563-3.247,6.143
		c-0.88,0.305-1.606,0.42-2.436,0.453c-0.727-1.467-0.755-2.373,0.728-3.84C113.202,146.685,113.599,145.056,113.147,143.313
		L113.147,143.313z M145.703,138.317c3.028-1.465,5.894-3.115,8.449-5.129c-1.012,5.598-1.561,10.934-1.875,16.531
		c-0.064,1.26-0.748,4.734-1.706,5.527l-2.655,1.832c-0.759,0.502-2.471,1.098-2.181-0.697c0.309-2.215-1.639-3.955-2.823-3.457
		l-3.143,1.391l6.455-9.734c0.519-1.67-2.269-1.67-4.601-1.037c-0.067,0.465-1.209,1.02-1.346,0.385l-1.528,0.494
		c0.021,0.135,0.011,0.287-0.009,0.449c-0.438,0.246-0.921,0.422-1.468,0.463c-0.122-0.143-0.227-0.279-0.313-0.387l-1.416,0.408
		c0.021,0.17,0.016,0.412-0.019,0.68c-0.516,0.359-1.103,0.801-1.762,0.467c-0.144-0.141-0.28-0.277-0.429-0.389l-2.562,0.768
		l-3.301-1.461c1.582-0.627,3.213-1.232,4.826-1.82c0.441-1.943,1.96-0.928-0.097-4.615c-0.594-1.117,1.53-1.41,2.222-1.16
		c1.246,0.795,1.545,1.881,1.433,3.496c-0.688,0.555-0.946,0.98-0.963,1.354c0.553-0.219,1.082-0.412,1.609-0.635
		c1.497-1.951,0.847-2.473-0.062-4.164c-0.594-1.117,1.062-1.305,1.752-1.057c0.911,1.131,1.149,2.143,0.934,3.652
		c-0.447,0.361-0.715,0.654-0.861,0.926c0.62-0.223,1.239-0.461,1.888-0.711c1.367-1.781,0.911-2.215,0.031-3.852
		c-0.594-0.963,0.753-1.191,1.444-0.941c0.975,1.211,1.285,2.813,0.329,4.092c0.482-0.232,0.959-0.434,1.461-0.637
		c1.489-1.383,1.34-2.482,0.277-3.75c-0.594-0.963,0.676-1.074,1.367-0.824C146.052,135.827,145.903,136.839,145.703,138.317
		L145.703,138.317z M110.987,158.979l0.027,2.367c4.853-0.828,9.67-1.865,14.482-3.016v1.578c-4.813,1.15-9.639,2.148-14.491,2.998
		l-0.019,0.879l3.093,0.395l0.002,0.393c3.801-0.713,7.612-1.527,11.415-2.436v1.578c-3.771,0.9-7.55,1.709-11.329,2.418l0.108,2.17
		c3.745-0.539,7.487-1.467,11.221-2.359v1.578c-4.731,1.131-10.859,2.453-15.57,2.93c-2.413,0.957-5.252,1.23-8.684,1.07
		c2.972-0.494,6.058-0.963,8.684-2.289v-2.393c-2.066,1.434-5.176,1.391-7.927,1.568c2.746-0.664,5.367-1.252,7.927-3.025v-2.08
		c-1.596,1.488-5.479,1.922-7.348,1.924c1.832-0.512,5.616-1.723,7.348-3.525V159.7c-1.399,1.102-3.897,1.941-7.047,2.078
		c2.965-1.363,5.028-2.025,7.047-4.096c3.302-0.387,12.71-2.385,19.905-3.67c-4.69,1.891-13.51,4.086-18.879,4.939L110.987,158.979
		L110.987,158.979z M63.956,168.374l-0.008,5.373c10.992,0.389,22.877-0.031,33.901-1.313v-1.576
		c-11.024,1.281-22.066,1.748-33.065,1.367v-2.203c10.999,0.381,22.041-0.113,33.065-1.395v-1.578
		c-11.041,1.219-22.792,1.789-33.894,1.318V168.374L63.956,168.374z M38.606,117.854c-14.607,2.32-25.895,7.066-30.522,12.551
		c-3.487-6.658,14.562-13.375,30.681-15.818l0.774-15.959c0.066-1.529,0.475-2.906,1.168-4.154l5.5-12.488
		c0.646-1.47,0.25-2.451-0.698-3.141l-4.797-3.14l15.002-8.897c7.255,10.239,17.634,10.357,25.392,1.389
		c0.715-0.857,2.521-0.652,3.251-0.415l7.03,1.814l-1.13,3.231l-6.445-1.416c-10.4,8.563-20.147,9.145-29.132,0l-6.051,4.193
		c2.201,1.749,3.214,3.269,2.212,5.254l-6.547,14.422l-1.561,4.846l-1.854,36.404l-3.334-0.01v8.881
		c-2.157-0.104-4.382-0.307-6.377-0.613c1.23-2.389,3.292-3.955,5.701-5.361l-0.024-3.191c-3.903,1.396-7.861,4.379-10.077,7.541
		c-1.896-0.262-3.75-0.984-5.371-1.889c3.123-5.709,8.046-9.215,16.6-11.258l0.281-5.449c-0.913,0.104-2.038,0.248-2.923,0.434
		l-2.284-2.453c1.814-0.508,3.611-0.889,5.335-1.061L38.606,117.854L38.606,117.854z M15.865,139.261
		c-0.917-0.588-1.802-1.223-2.654-1.904c-0.221-1.846,0.149-3.398,1.108-4.656l3.023,2.951
		C16.494,136.831,16.125,137.911,15.865,139.261L15.865,139.261z M19.467,129.243c-1.147,0.686-2.216,1.438-3.18,2.078l2.742,2.527
		c0.927-0.643,1.875-1.51,2.849-2.152L19.467,129.243L19.467,129.243z M29.161,124.413c-1.793,0.699-3.562,1.512-5.25,2.371
		l2.562,2.279c1.542-0.832,3.152-1.59,4.846-2.217L29.161,124.413L29.161,124.413z M110.159,124.61
		c4.421,0.17,8.329,0.584,11.861,1.41v3.041c-3.307-0.738-7.099-1.176-11.873-1.357L110.159,124.61L110.159,124.61z
		 M122.021,115.579v9.391c-3.656-0.822-7.583-1.229-11.88-1.33l0.024-8.721C113.564,114.909,117.682,115.097,122.021,115.579
		L122.021,115.579z M120.856,137.698l3.483-0.705c1.6-0.443,2.395-2.416,2.339-4.639l-0.029-0.867
		c2.052,0.822,4.1,1.893,6.352,3.334l1.217-0.264c-2.544-1.818-4.976-3.172-7.568-4.18v-2.965c3.688,1.326,7.006,3.162,10.126,5.604
		l1.154-0.391c-3.487-2.896-7.212-4.961-11.28-6.369v-9.986c12.433,1.92,25.356,6.135,28.269,14.135
		c0.16-8.641-13.661-14.455-28.269-17.012l0.029-38.335c0.046-3.285,3.102-5.563,6.327-5.618h5.386
		c3.205-0.006,6.953,1.771,7.204,5.179v3.379c-0.313,2.607-2.526,4.306-4.354,5.705c-2.872,4.177-0.535,13.796,3.81,10.978
		c13.781-9.614,14.922-24.56,0.694-29.595h-14.007c-6.122-0.022-9.73,4.437-9.715,11.195l-0.004,36.408
		c-4.104-0.518-8.15-0.781-11.86-0.775l0.004-3.889l-3.604,4.654v31.68h2.103v-4.381c3.629-0.49,7.224-1.123,10.774-1.928
		c-4.112,0.533-9.346-2.928-9.273-6.215l0.019-2.957c4.989,0.242,8.655,0.539,11.838,1.201l0.004,4.219
		C122.063,136.04,121.408,137.294,120.856,137.698L120.856,137.698z M109.066,44.092c1.464,1.707,10.742,6.862,16.263,4.51
		c-4.295-1.238-8.482-2.507-11.686-5.775C112.193,41.049,107.725,42.57,109.066,44.092L109.066,44.092z M107.806,46.948l7.156,8.5
		c2.39,3.128,1.929,7.008,0.294,9.976l-7.446,13.743l-2.166-3.894l6.092-11.806c0.945-2.119,0.847-4.532-0.686-6.552l-8.066-9.093
		C104.656,46.389,106.231,45.642,107.806,46.948L107.806,46.948z M101.075,66.988c1.842-5.542,1.66-11.36-1.748-16.381l-3.477,2.602
		c2.348,1.956,3.072,4.977,2.29,8.498L101.075,66.988L101.075,66.988z M87.203,49.936v8.724c0.018,1.331-0.63,2.496-2.443,2.495
		l-10.324,0.055c-1.998,0-3.09-0.943-3.108-2.886V55.77c0.019-1.702,1.036-2.794,2.72-2.775h2.838
		c1.518-0.019,2.554-1.124,2.692-2.937V37.563h4.772l5.772-4.773H79.875c-2.127,0.019-3.83,1.869-3.774,3.886v10.343
		c-0.037,1.709-0.804,2.75-2.665,2.757h-8.307c-1.861-0.007-2.627-1.047-2.665-2.757V36.675c0.056-2.017-1.646-3.867-3.774-3.886
		h-8.659l5.772,4.773h3.186v12.496c0.137,1.813,1.173,2.918,2.691,2.937h2.838c1.684-0.019,2.702,1.073,2.72,2.775v2.553
		c-0.019,1.943-1.11,2.886-3.108,2.886l-10.325-0.055c-1.813,0.001-2.46-1.164-2.442-2.495v-8.107l-3.386-3.108v13.877
		c0.037,1.961,1.591,3.219,3.719,3.219h13.768c1.332,0.074,2.367-0.444,3.153-1.554c0.786,1.11,1.821,1.628,3.153,1.554h15.1
		c2.127,0,3.682-1.258,3.719-3.219V51.82l23.244-16.628C113.773,13.27,91.034,0.188,74.95,14.687h6.128
		c9.876-7.085,28.129,0.708,29.13,18.754L87.203,49.936L87.203,49.936z M118.328,27.429v-9.821
		C113.58,1.447,85.585-7.814,73.909,8.702C93.471-3.006,114.231,7.887,118.328,27.429L118.328,27.429z M40.805,36.218
		c-4.232-18.815,8.955-24.477,26.287-22.432c-18.294-7.608-33.735,1.378-31.428,18.693L40.805,36.218L40.805,36.218z M31.545,7.446
		v4.796c2.797-1.999,6.337-3.407,10.048-3.882C38.283,6.494,34.971,5.885,31.545,7.446L31.545,7.446z M31.342,29.325l-5.491-3.855
		c1.675-5.257,5.608-10.476,11.683-12.618C32.704,17.701,30.056,23.737,31.342,29.325L31.342,29.325z M21.271,31.307l3.452,2.189
		C15.575,34.94,14.199,46.448,5.577,44.001C12.918,39.69,12.753,32.373,21.271,31.307L21.271,31.307z M29.161,36.205l3.802,2.478
		c-13.046,8.482-17.723,17.35-13.125,27.165c1.466,3.06-2.296,4.408-2.969,2.803C10.501,54.604,16.489,44.253,29.161,36.205
		L29.161,36.205z M37.949,41.827l3.825,2.352c-12.2,8.971-15.235,16.521-6.306,23.843l-0.346,5.385
		C22.086,65.34,21.95,52.52,37.949,41.827L37.949,41.827z"/>
</g>
</svg>
