<?xml version="1.0" encoding="utf-8"?>
<!-- Generator: Adobe Illustrator 16.0.3, SVG Export Plug-In . SVG Version: 6.00 Build 0)  -->
<!DOCTYPE svg PUBLIC "-//W3C//DTD SVG 1.1//EN" "http://www.w3.org/Graphics/SVG/1.1/DTD/svg11.dtd">
<svg version="1.1" id="Capa_1" xmlns="http://www.w3.org/2000/svg" xmlns:xlink="http://www.w3.org/1999/xlink" x="0px" y="0px"
	 width="550.465px" height="666.603px" viewBox="0 0 550.465 666.603" enable-background="new 0 0 550.465 666.603"
	 xml:space="preserve">
<path d="M455.224,0c-70.268,28.394-132.536,32.374-179.992,32.374c-47.455,0-109.724-3.981-179.99-32.374
	C74.649,19.37,20.997,69.835,0,89.586c13.17,35.304,34.403,96.829,39.373,138.726l0.045,0.397c3.169,29.823,4.046,38.07,4.29,41.028
	c-0.027-0.547-0.057-1.174-0.057-1.174c5.084,50.049,12.767,125.684,24.239,158.384l2.44,7.042
	c8.307,24.146,20.823,60.528,52.257,103.2c35.923,48.766,87.24,92.239,152.646,129.414
	c65.405-37.175,116.723-80.648,152.647-129.415c31.431-42.668,43.951-79.053,52.235-103.13c0.02-0.058,2.465-7.128,2.465-7.128
	c11.483-32.728,19.165-108.423,24.247-158.513c3.675-34.575,4.187-39.385,4.302-40.384c5.017-41.858,26.191-103.21,39.336-138.447
	C529.468,69.836,475.817,19.371,455.224,0z"/>
<path fill="#FFFFFF" d="M275.232,40.565c-46.159,0-107.865-3.646-178.129-31.071c-6.624,6.23-80.575,75.79-87.539,82.34
	c12.866,34.933,33.064,94.392,37.942,135.513l0.05,0.437c2.827,26.599,3.827,36.005,4.197,39.958l0.047-0.004
	c3.372,33.188,7.896,77.7,13.854,113.074L311.267,39.641C298.418,40.348,286.369,40.565,275.232,40.565z"/>
<path fill="#FE000C" d="M453.363,9.494c-48.731,19.02-93.339,26.599-131.507,29.46L67.657,392.05
	c2.429,12.828,5.076,23.962,7.961,32.185l2.451,7.072c8.136,23.648,20.421,59.36,51.112,101.024
	c13.795,18.728,29.958,36.685,48.388,53.806L536.442,87.641C518.604,70.861,458.594,14.415,453.363,9.494z"/>
<path fill="#FFFFFF" d="M183.663,591.693c26.251,23.499,56.849,45.374,91.57,65.433c62.47-36.091,111.617-78.05,146.053-124.795
	c30.689-41.661,42.963-77.333,51.085-100.938c-0.006,0.019,2.469-7.14,2.469-7.14c11.174-31.847,18.795-106.959,23.839-156.662
	c0.003-0.039,4.314-40.5,4.314-40.5c4.596-38.349,22.428-92.5,35.219-127.885L183.663,591.693z"/>
<circle cx="269.993" cy="276.418" r="191.618"/>
<path fill="#FFFFFF" d="M86.565,276.418c0,101.142,82.285,183.427,183.427,183.427c101.142,0,183.427-82.285,183.427-183.427
	c0-101.142-82.285-183.427-183.427-183.427C168.851,92.991,86.565,175.276,86.565,276.418z"/>
<path d="M431.786,249.32c-1.525-61.29-74.738-112.142-74.738-112.142v277.283c12.084-6.545,27.485-21.267,27.485-21.267v-44.773
	C436.8,311.673,431.786,249.32,431.786,249.32L431.786,249.32z M384.533,302.128v-92.534c19.114,15.705,19.333,50.976,19.333,50.976
	C402.195,290.187,384.533,302.128,384.533,302.128L384.533,302.128z"/>
<path d="M240.06,403.04c-57.068-13.873-99.451-65.281-99.451-126.622c0-61.335,42.383-112.749,99.451-126.62v-32.905
	c-74.559,14.421-130.875,80.754-130.875,159.525s56.316,144.357,130.875,158.775V403.04L240.06,403.04z"/>
<path d="M156.008,276.418c0,36.163,16.714,68.404,42.829,89.467v-39.926c-11.123-11.778-15.427-23.32-17.22-39.587h32.274v10.468
	v49.023v30.305c8.15,4.67,16.923,8.376,26.169,10.953V165.715C191.589,179.211,156.008,223.648,156.008,276.418L156.008,276.418z"/>
<path fill="#FFFFFF" d="M213.891,259.543v-52.576c-15.913,13.083-27.228,31.533-31.226,52.576H213.891L213.891,259.543z"/>
<path d="M309.2,311.564c0,0,20.621-8.544,24.446-36.819c3.836-28.275,3.836-61.56,3.836-62.446c0-0.882-1.381-46.731-1.381-46.731
	s1.771-46.505-36.518-50.628c-32.267-3.477-41.825-0.887-41.825-0.887v324.459c0,0,18.588,1.295,27.716-0.471V335.256
	c0,0,17.732,42.102,26.077,98.831c0,0,23.227-6.181,30.753-11.611C342.304,422.476,334.926,364.382,309.2,311.564L309.2,311.564z"/>
<path fill="#FFFFFF" d="M307.74,248.14c0,5.898,0.011,16.594-4.695,20.717c-4.718,4.125-7.328,7.76-16.46,5.404V152.224
	c0,0,12.039,0.288,16.755,4.706c4.711,4.42,4.121,9.722,4.412,13.845C308.05,174.888,307.74,240.94,307.74,248.14L307.74,248.14z"/>
</svg>
