<?xml version="1.0" encoding="utf-8"?>
<!-- Generator: Adobe Illustrator 16.0.3, SVG Export Plug-In . SVG Version: 6.00 Build 0)  -->
<!DOCTYPE svg PUBLIC "-//W3C//DTD SVG 1.1//EN" "http://www.w3.org/Graphics/SVG/1.1/DTD/svg11.dtd">
<svg version="1.1" id="Capa_1" xmlns="http://www.w3.org/2000/svg" xmlns:xlink="http://www.w3.org/1999/xlink" x="0px" y="0px"
	 width="148.473px" height="175.748px" viewBox="0 0 148.473 175.748" enable-background="new 0 0 148.473 175.748"
	 xml:space="preserve">
<g>
	<path fill-rule="evenodd" clip-rule="evenodd" d="M118.441,0c-17.226,8.001-32.657,9.04-44.205,9.04
		C62.689,9.04,47.258,8.001,30.032,0L0,28.248c1.414,3.588,9.319,24.023,10.719,35.829c0,0,0.995,9.36,0.995,9.364
		c1.315,12.95,3.115,30.684,6.137,39.297l0.568,1.639c3.979,11.566,13.283,38.598,55.817,61.371
		c42.535-22.773,51.839-49.805,55.818-61.371c0,0,0.567-1.639,0.568-1.643c3.021-8.609,4.821-26.344,6.136-39.297
		c0,0,0.995-9.36,0.996-9.37c1.399-11.796,9.304-32.231,10.718-35.819L118.441,0L118.441,0z"/>
	<path fill-rule="evenodd" clip-rule="evenodd" fill="#FFFFFF" d="M118.115,1.962c-17.128,7.72-32.417,8.73-43.879,8.73
		c-11.463,0-26.751-1.01-43.879-8.73L1.946,28.686c2.199,5.67,9.094,24.073,10.417,35.217c0,0,0.996,9.368,0.996,9.372
		c1.306,12.867,3.095,30.489,6.054,38.923c0,0,0.568,1.641,0.569,1.643c3.886,11.295,12.958,37.648,54.255,60.027
		c41.297-22.379,50.37-48.732,54.256-60.029c0,0,0.574-1.658,0.571-1.65c2.956-8.424,4.745-26.048,6.052-38.925
		c0,0,0.997-9.378,0.999-9.391c1.318-11.117,8.213-29.516,10.413-35.186L118.115,1.962L118.115,1.962z"/>
	<path fill-rule="evenodd" clip-rule="evenodd" fill="#FE000C" d="M114.478,60.618l21.486-34.245L116.861,8.474
		c-14.283,5.831-27.194,7.348-37.691,7.664l-9.218,14.737C82.117,29.65,105.547,35.217,114.478,60.618L114.478,60.618z"/>
	<path fill-rule="evenodd" clip-rule="evenodd" fill="#FE000C" d="M32.722,90.363l-9.548,15.488
		c2.662,10.816,9.708,32.303,32.151,49.469l23.604-37.697C56.659,120.582,39.224,106.881,32.722,90.363L32.722,90.363z"/>
	<path fill-rule="evenodd" clip-rule="evenodd" d="M59.433,157.961c4.296,3.176,9.142,6.34,14.616,9.438
		c40.602-22.982,46.286-48.842,49.041-55.457c3.393-8.148,5.795-32.686,6.271-39.373c1.383-19.403,7.91-37.259,10.214-42.858
		l-23.799,38.015c3.885,23.739-11.953,42.425-29.969,48.099L59.433,157.961L59.433,157.961z"/>
	<path fill-rule="evenodd" clip-rule="evenodd" d="M30.769,84.328c-0.746-3.185-1.144-6.503-1.144-9.916
		c0-20.64,14.425-37.901,33.742-42.279l9.999-15.949c-11.185-0.038-25.725-1.067-42.058-7.735L8.301,30.112
		c0,0,7.813,19.372,9.43,32.999c0.011,0.098,1.006,9.458,1.006,9.458c0.772,7.606,1.794,17.667,3.144,25.982L30.769,84.328
		L30.769,84.328z"/>
	<path fill-rule="evenodd" clip-rule="evenodd" fill="#FFFFFF" d="M28.604,84.157c-0.688-3.14-1.062-6.398-1.062-9.744
		c0-21.455,14.872-39.424,34.866-44.194l7.612-12.354c-10.438-0.241-23.604-1.595-38.272-7.4L10.432,30.533
		c0,0,7.468,18.635,9.094,32.337c0.001,0.01,1.008,9.479,1.008,9.479c0.619,6.105,1.403,13.815,2.382,20.893L28.604,84.157
		L28.604,84.157z"/>
	<path fill-rule="evenodd" clip-rule="evenodd" fill="#FFFFFF" d="M61.95,157.533c3.648,2.625,7.683,5.236,12.151,7.803
		c39.797-22.775,45.839-50.354,47.307-54.041c2.929-7.357,5.189-26.785,6.259-38.945c0.307-3.484,1.512-18.401,5.6-29.362
		l-15.309,24.966c3.306,25.05-12.474,43.689-31.015,49.708L61.95,157.533L61.95,157.533z"/>
	<path fill-rule="evenodd" clip-rule="evenodd" d="M111.286,68.135c-0.361-14.505-17.688-26.539-17.688-26.539v65.621
		c2.86-1.549,6.504-5.033,6.504-5.033V91.588C112.473,82.891,111.286,68.135,111.286,68.135L111.286,68.135z M100.103,80.632V58.733
		c4.524,3.717,4.576,12.064,4.576,12.064C104.283,77.806,100.103,80.632,100.103,80.632L100.103,80.632z"/>
	<path fill-rule="evenodd" clip-rule="evenodd" d="M65.913,104.514c-13.505-3.283-23.536-15.449-23.536-29.966
		c0-14.516,10.03-26.683,23.536-29.966v-7.787C48.268,40.208,34.94,55.906,34.94,74.548c0,18.642,13.327,34.163,30.972,37.575
		V104.514L65.913,104.514z"/>
	<path fill-rule="evenodd" clip-rule="evenodd" d="M46.021,74.548c0,8.558,3.955,16.188,10.136,21.173v-9.449
		c-2.633-2.788-3.651-5.519-4.076-9.369h7.638v2.478v11.602v7.172c1.929,1.105,4.005,1.982,6.193,2.592V48.349
		C54.442,51.543,46.021,62.059,46.021,74.548L46.021,74.548z"/>
	<path fill-rule="evenodd" clip-rule="evenodd" fill="#FFFFFF" d="M59.719,70.554V58.112c-3.766,3.096-6.443,7.462-7.39,12.442
		H59.719L59.719,70.554z"/>
	<path fill-rule="evenodd" clip-rule="evenodd" d="M82.275,82.865c0,0,4.88-2.022,5.785-8.713
		c0.907-6.692,0.907-14.569,0.907-14.778s-0.326-11.06-0.326-11.06s0.419-11.006-8.643-11.981c-7.636-0.823-9.898-0.21-9.898-0.21
		v76.786c0,0,4.399,0.307,6.56-0.111V88.473c0,0,4.196,9.963,6.171,23.389c0,0,5.497-1.463,7.278-2.748
		C90.109,109.113,88.363,95.365,82.275,82.865L82.275,82.865z"/>
	<path fill-rule="evenodd" clip-rule="evenodd" fill="#FFFFFF" d="M81.93,67.855c0,1.396,0.003,3.927-1.111,4.903
		c-1.116,0.976-1.734,1.836-3.896,1.279V45.156c0,0,2.85,0.068,3.965,1.114s0.976,2.301,1.045,3.276
		C82.003,50.52,81.93,66.151,81.93,67.855L81.93,67.855z"/>
</g>
</svg>
