<?xml version="1.0" encoding="utf-8"?>
<!-- Generator: Adobe Illustrator 16.0.3, SVG Export Plug-In . SVG Version: 6.00 Build 0)  -->
<!DOCTYPE svg PUBLIC "-//W3C//DTD SVG 1.1//EN" "http://www.w3.org/Graphics/SVG/1.1/DTD/svg11.dtd">
<svg version="1.1" id="Capa_1" xmlns="http://www.w3.org/2000/svg" xmlns:xlink="http://www.w3.org/1999/xlink" x="0px" y="0px"
	 width="731.768px" height="813.267px" viewBox="73.092 173.878 731.768 813.267"
	 enable-background="new 73.092 173.878 731.768 813.267" xml:space="preserve">
<g id="_x23_ffffffff">
	<path fill="#FFFFFF" d="M397.93,220.94c6.95-1.41,13.84-3.06,20.73-4.74c0.47,123.08,1.37,246.149,1.88,369.229
		c-105.78-0.069-211.56-0.229-317.34-0.47c-1.27-29.33-2.61-58.65-3.42-87.99c-0.54-23.989-1.55-47.96-2.56-71.939
		c-2.37-56.36-4.67-112.72-6.68-169.09c-0.07-5.2-1.01-10.56,0.7-15.6c1.76-5.93,3.55-12.49,8.63-16.49
		c4.34-3.15,10-3.22,15.14-3.37c21.94,0.33,43.43,5.1,65.01,8.54c22.62,2.28,45.28,4.31,68,5.34c20.04,0.58,40.09-0.33,60.08-1.84
		c4.9-0.5,9.83-0.04,14.721-0.64C347.94,228.9,373.2,226.45,397.93,220.94 M233.8,293.67c-9.69,3.9-19.07,9.14-26.23,16.89
		c-6.37,6.95-11.67,14.87-15.78,23.36c-10.69,17.92-16.8,38.39-19.08,59.07c-1.75,11.26-0.67,22.68-1,34.02
		c0.88,14.7,3.17,29.391,7.7,43.431c3.08,8.859,6.23,17.779,11.32,25.72c5.67,11.17,12.79,21.63,21.43,30.7
		c5.97,4.55,11.91,9.449,19.04,12.08c8.38,3.699,17.41,5.76,26.5,6.619c6.1,1.141,12.36,0.921,18.45-0.109
		c19.77-1.13,38.76-10.74,51.6-25.75c5.71-6.72,10.44-14.19,14.75-21.86c-3.84-4.64-8.92-7.96-13.18-12.17
		c-1.521-1.01-4.16-3.3-5.58-1.06c-4.62,6.39-8.34,13.52-14.11,19.01c-3.07,2.92-5.93,6.06-9.06,8.91
		c-8.11,5.87-17.56,10.13-27.59,11.18c-16.02,0.95-32.92-2.86-45.55-13.17c-5.78-5.56-11.97-11.12-15.29-18.6
		c-8.72-19.49-13.7-40.61-14.9-61.9c0.38-12.63-0.9-25.36,1.17-37.88c1.55-15.43,6.32-30.5,13.7-44.13
		c2.92-4.65,5.22-9.82,9.27-13.64c2.71-2.62,5.27-5.4,8.06-7.93c7.69-6.24,17.06-10.33,26.82-11.95c5.38-0.58,10.8-1.88,16.2-0.69
		c8.38,0.49,16.63,2.74,23.97,6.84c12.129,7.23,21.129,18.77,27.629,31.13c1.03,1.41,1.61,3.98,3.86,3.53
		c5.92-3.88,10.33-9.58,16.18-13.51c-1.949-5.56-5.68-10.19-8.6-15.23c-7.77-12.69-19.33-22.78-32.4-29.76
		c-9.04-4.56-19.03-7.01-29.06-8.05c-6.01-0.05-12.03-0.16-18.04,0.06C248.51,289.94,240.95,291.07,233.8,293.67z"/>
	<path fill="#FFFFFF" d="M459.34,216.2c20.29,5.04,40.84,9.12,61.62,11.61c12.32,1.54,24.66,3.02,37.021,4.32
		c14.369,0.15,28.67,1.8,43.039,2.16c32.141,1.24,64.2-2.17,96.15-5.16c22.19-3.41,44.26-8.52,66.811-8.63
		c5.029,0.19,10.649,0.4,14.699,3.81c4.87,4.25,6.54,10.81,8.28,16.79c1.4,4.49,0.6,9.22,0.54,13.83
		c-1.79,49.04-3.67,98.07-5.78,147.089c-1.09,28.851-2.59,57.69-3.26,86.561c-0.81,32.14-2.26,64.26-3.66,96.38
		c-83.26,0.22-166.53,0.25-249.8,0.28c-21.49-0.24-42.99,0.5-64.47-0.26c-0.181-58.66-0.601-117.32-0.9-175.98
		c-0.13-53.33-0.939-106.66-0.37-160C459.17,238.07,459.51,227.14,459.34,216.2 M632.18,284.94c-0.229,0.34-0.71,1.02-0.949,1.36
		c-9.931,28.86-19.7,57.79-29.29,86.77c-6.301,17.56-12.091,35.3-18.011,53c-12.279,36.96-24.72,73.84-37.26,110.71
		c-0.57,1.75-0.85,3.56-1.13,5.38c7.76,0.06,15.54,0.35,23.28-0.08c1.59-1.86,1.93-4.41,2.77-6.63
		c7.49-22.71,15.08-45.38,22.99-67.931c0.57-1.399,1.85-2.579,3.47-2.26c15.66-0.029,31.33,0.04,46.99-0.01
		c11.33-1.52,22.81-0.82,34.21-0.8c3.88,12.28,7.4,24.68,11.19,36.99c4.52,13.46,7.81,27.319,12.71,40.659
		c8.08,0.301,16.18,0.19,24.27,0.061c-2.8-11.93-6.729-23.561-10.08-35.34c-17.479-60.88-35.02-121.73-52.37-182.65
		c-3.54-13.16-7.92-26.09-11.02-39.36C646.7,284.81,639.42,284.45,632.18,284.94z"/>
	<path fill="#FFFFFF" d="M621.32,386.18c6.489-19.8,13.33-39.49,20.109-59.2c6.12,19.42,11.03,39.18,16.721,58.72
		c3.46,12.189,6.96,24.37,10.439,36.56c1.63,6.11,3.83,12.12,4.41,18.471c-14.34,0.09-28.68-0.12-43.02,0.09
		c-8.58,1.529-17.32,0.76-25.99,0.899c0.22-1.689,0.38-3.39,0.85-5.029C609.85,419.7,615.81,403.01,621.32,386.18z"/>
	<path fill="#FFFFFF" d="M103.98,600.02c105.55,0.11,211.09,0.37,316.64,0.421c0.689,103.85,1.11,207.71,1.76,311.56
		c-0.1,12.44,0.3,24.89,0.03,37.33c-41.83-0.59-83.71,0.1-125.48-2.62c-11.62-0.57-23.22-1.54-34.82-2.39
		c-20-1.07-39.73-4.931-59.25-9.25c-13.9-3.25-27.76-6.82-41.14-11.83c-4.51-1.641-9.05-3.311-13.17-5.811
		c-11.25-6.62-22.8-13.58-30.96-24.01c-4.71-5.89-5.26-13.68-5.88-20.88c-1.99-43.51-1.51-87.09-3.94-130.58
		c0.28-13.35-0.6-26.69-1.02-40.03c-0.95-27.3-1.86-54.6-2.52-81.91C104.1,613.35,103.68,606.68,103.98,600.02 M197.88,642.07
		c-0.13,10.649-0.61,21.359,0.83,31.949c0.14,12.66-0.01,25.341,0.04,38.011c-0.05,3.029,0.75,5.979,0.95,8.989
		c0.43,16.33-0.75,32.721,1,49c0.15,13.33,0.01,26.66,0.04,40c-0.02,4.671,1.08,9.261,1.03,13.94c-0.03,14.01,0.02,28.03-0.04,42.05
		c-0.14,4.431,1.06,8.75,1.23,13.17c6.98,0.021,13.96,0.23,20.93-0.029c1.62,0.04,2.53-1.74,2.33-3.17
		c0.08-15.99-0.02-31.98,0.04-47.971c0.12-5.37-1.25-10.63-1.04-15.99c0.17-11.529-0.25-23.06,0.23-34.569
		c18.85-0.5,37.71-0.04,56.57-0.24c6.14-0.27,12.1,1.46,18,2.94c8.6,2.71,15.21,9.8,18.82,17.909c2.54,6.351,3.07,13.23,3.86,19.971
		c0.25,20.68-0.2,41.38,0.21,62.06c7.42,0.141,14.859,0.49,22.28,0.141c0.119-22.091,0.04-44.181,0.04-66.261
		c-1.12-14.26-3.891-29.439-13.591-40.55c-2.8-4.189-7.42-6.47-11.58-9.05c6.761-5.98,14.631-11.3,18.78-19.61
		c6.09-10.55,6.99-22.95,8.391-34.77c0.26-3.7-1.091-7.271-0.971-10.96c0.061-7.53-2.029-14.84-4.189-21.98
		c-2-6.649-5.75-12.66-10.17-17.95c-10.25-10.85-25.15-16.42-39.86-17.35c-16.67-0.05-33.35,0.1-50.02-0.05
		c-9.61-1.25-19.34-0.811-29.02-0.94C207.95,640.95,202.66,639.94,197.88,642.07z"/>
	<path fill="#FFFFFF" d="M460.71,600.8c104.44-0.09,208.89,0.12,313.34,0.22c-0.46,38.99-2.03,77.971-3.41,116.94
		c-0.729,11.36-0.069,22.75-0.899,34.11c-1.69,34.63-1.61,69.31-2.8,103.949c-0.591,10.32,0,20.91-2.99,30.921
		c-3.67,9.26-12,15.52-19.74,21.26c-8.42,5.51-16.87,11.3-26.49,14.51c-16.739,6.33-34.18,10.58-51.64,14.35
		c-12.37,2.591-24.84,4.75-37.38,6.28c-31.19,2.4-62.41,4.811-93.7,5.18c-17,0.461-34.01,0.36-51.01,0.561
		c-7.19-0.04-14.38,0.43-21.561-0.03C462.13,832.97,461.17,716.88,460.71,600.8 M557.93,648.76c-0.569,2.021-1.26,4.061-1.22,6.19
		c-0.01,21.34,0.09,42.689-0.03,64.03c-1.46,8.26-0.84,16.67-0.949,25.02c0.039,49.07-0.07,98.14,0.06,147.21
		c7.47,0.38,15.04-0.66,22.43,0.83c-0.109-6.36,0.16-12.7,1-18.99c0.13-26.66-0.01-53.33,0.061-79.99c-0.3-1.68,1-2.819,2.18-3.729
		c3.2-0.271,6.3,0.97,9.51,0.939c17.34,0.021,34.681-0.029,52.03,0.011c11.34,0.63,22.55-2.721,32.78-7.391
		c7.77-3.37,14.01-9.319,19.529-15.6c3.9-5.17,6.69-11.08,9.011-17.09c7.64-21.59,6.55-45.96-2.46-66.97
		c-4.591-10.37-12.761-18.931-22.42-24.74c-6.641-3.24-13.57-6.3-20.971-7.141c-4.149-0.54-8.26-1.43-12.43-1.619
		c-22.34-0.061-44.68,0.1-67.01-0.07C572.06,648.38,564.98,648.71,557.93,648.76z"/>
	<path fill="#FFFFFF" d="M224.08,664.22c19.32,0.061,38.64-0.01,57.96,0.03c10.69,0.63,22.66,1.98,30.36,10.32
		c5.89,5.729,8.63,13.779,10.159,21.67c0.881,12.87,1.471,26.729-4.949,38.41c-5.45,11.529-18.561,17.02-30.64,18.069
		c-11.65,0.11-23.32-0.02-34.97,0.05c-8.95,0.131-17.83-1.369-26.78-1.01c-0.36-2.91-0.92-5.8-0.97-8.729
		c-0.12-14.681,0.2-29.37-0.15-44.05c-1.33-8.95-0.72-18-0.9-27.011C223.11,669.35,223.37,666.74,224.08,664.22z"/>
	<path fill="#FFFFFF" d="M581.48,672.47c5.51-0.58,11.029-0.1,16.489,0.75c16.66,0.16,33.34-0.05,50,0.08
		c9.12,1.01,18.7,3.681,25.28,10.44c6.3,6.72,8.67,15.979,10.04,24.84c1.64,13.79,0.03,28.46-7.23,40.54
		c-5.29,7.79-13.079,14.38-22.479,16.35c-6.68,2.101-13.73,1-20.6,1.29c-4.711,0.29-9.271-1.229-13.971-1.06
		c-12.93,0.09-25.859-0.04-38.79,0.08c0.13-26.271-0.02-52.54,0.07-78.811C580.76,682.14,581.51,677.34,581.48,672.47z"/>
</g>
<g id="_x23_d64b3eff">
	<path fill="#D64B3E" d="M431.36,174.24c4.859-0.56,9.79-0.13,14.68-0.34c1.65-0.21,2.86,1.14,4.04,2.07
		c3.729,3.42,6.88,7.55,9.04,12.13c0.12,3.54-0.22,7.08-0.04,10.62c19.89,4.74,39.86,9.26,60.18,11.71
		c27.101,3.9,54.431,5.61,81.771,6.85c31.529,1.229,62.989-2.11,94.34-5.09c21.76-3.63,43.52-7.94,65.62-8.82
		c9.29,0.19,19.319,0.82,26.99,6.69c10.479,7.64,14.3,20.91,16.88,32.99c-2.17,68.34-5.21,136.67-8.011,205
		c-1.369,28.641-1.67,57.33-2.949,85.98c-0.721,19.64-1.57,39.279-2.641,58.91c-0.55,36.34-1.71,72.67-3,108.989
		c-0.42,13.34-1.34,26.67-1.029,40.021c-2.341,42.979-1.98,86.04-3.891,129.03c-0.07,11.25-2.16,23.079-9.1,32.25
		c-8.21,10.93-19.561,18.939-31.181,25.869c-3.14,1.771-5.89,4.2-9.22,5.62c-30.899,12.66-63.77,19.74-96.7,24.681
		c-8.279,1.42-16.689,1.529-25.04,2.279c-33.64,2.69-67.369,4-101.1,4.2c-14.36,0.021-28.71,0.16-43.06,0.33
		c-2.301-0.04-4.57,0.31-6.801,0.82c-0.27,3.189-0.6,6.67-3.06,9.029c-3.47,3.551-5.95,8.2-10.45,10.62
		c-3.7,0.551-7.63,0.7-11.31-0.04c-4.95-3.159-10.141-7-12.09-12.81c-0.4-2.49-0.261-5.01-0.36-7.51
		c-42.24-0.59-84.53,0.069-126.71-2.58c-16.45-0.771-32.86-2.24-49.29-3.391c-35.56-4.85-71.12-12.21-104.42-25.939
		c-14.31-8.8-29.47-17.42-39.69-31.18c-6.94-9.171-9.03-21-9.1-32.25c-1.91-42.99-1.54-86.051-3.89-129.021
		c0.29-16.979-0.99-33.93-1.43-50.9c-1.03-31.359-2.05-62.72-2.55-94.09c-1.37-30.31-2.73-60.62-3.71-90.95
		c-0.64-28-1.81-55.989-3.01-83.97c-2.34-55.87-4.63-111.74-6.62-167.62c-0.06-5.41-1.12-11,0.72-16.24
		c2.8-10.43,6.66-21.6,15.85-28.13c7.67-5.87,17.69-6.5,26.98-6.69c21.82,0.91,43.31,5.02,64.78,8.71
		c19.03,1.92,38.08,3.72,57.17,4.77c23.02,1.5,46.09,0.31,69.06-1.32c24.78-1.44,49.471-4.53,73.94-8.68
		c12.41-2.27,24.66-5.31,36.95-8.12c0.22-3.44-0.341-6.98,0.489-10.34C421.99,182.69,426.74,178.31,431.36,174.24 M397.93,220.94
		c-24.729,5.51-49.989,7.96-75.109,10.94c-4.891,0.6-9.82,0.14-14.721,0.64c-19.99,1.51-40.04,2.42-60.08,1.84
		c-22.72-1.03-45.38-3.06-68-5.34c-21.58-3.44-43.07-8.21-65.01-8.54c-5.14,0.15-10.8,0.22-15.14,3.37
		c-5.08,4-6.87,10.56-8.63,16.49c-1.71,5.04-0.77,10.4-0.7,15.6c2.01,56.37,4.31,112.73,6.68,169.09
		c1.01,23.979,2.02,47.95,2.56,71.939c0.81,29.34,2.15,58.66,3.42,87.99c105.78,0.24,211.56,0.4,317.34,0.47
		c-0.51-123.08-1.41-246.149-1.88-369.229C411.77,217.88,404.88,219.53,397.93,220.94 M459.34,216.2
		c0.17,10.94-0.17,21.87-0.08,32.8c-0.569,53.34,0.24,106.67,0.37,160c0.3,58.66,0.72,117.32,0.9,175.98
		c21.479,0.76,42.979,0.02,64.47,0.26c83.27-0.03,166.54-0.061,249.8-0.28c1.4-32.12,2.851-64.24,3.66-96.38
		c0.67-28.87,2.17-57.71,3.26-86.561c2.11-49.02,3.99-98.05,5.78-147.089c0.06-4.61,0.86-9.34-0.54-13.83
		c-1.74-5.98-3.41-12.54-8.28-16.79c-4.05-3.41-9.67-3.62-14.699-3.81c-22.551,0.11-44.62,5.22-66.811,8.63
		c-31.95,2.99-64.01,6.4-96.15,5.16c-14.369-0.36-28.67-2.01-43.039-2.16c-12.36-1.3-24.7-2.78-37.021-4.32
		C500.18,225.32,479.63,221.24,459.34,216.2 M103.98,600.02c-0.3,6.66,0.12,13.33,0.25,20c0.66,27.311,1.57,54.61,2.52,81.91
		c0.42,13.34,1.3,26.681,1.02,40.03c2.43,43.49,1.95,87.07,3.94,130.58c0.62,7.2,1.17,14.99,5.88,20.88
		c8.16,10.43,19.71,17.39,30.96,24.01c4.12,2.5,8.66,4.17,13.17,5.811c13.38,5.01,27.24,8.58,41.14,11.83
		c19.52,4.319,39.25,8.18,59.25,9.25c11.6,0.85,23.2,1.819,34.82,2.39c41.77,2.72,83.65,2.03,125.48,2.62
		c0.27-12.44-0.13-24.89-0.03-37.33c-0.649-103.85-1.07-207.71-1.76-311.56C315.07,600.39,209.53,600.13,103.98,600.02
		 M460.71,600.8c0.46,116.08,1.42,232.17,1.72,348.25c7.181,0.46,14.37-0.01,21.561,0.03c17-0.2,34.01-0.1,51.01-0.561
		c31.29-0.369,62.51-2.779,93.7-5.18c12.54-1.53,25.01-3.689,37.38-6.28c17.46-3.77,34.9-8.02,51.64-14.35
		c9.62-3.21,18.07-9,26.49-14.51c7.74-5.74,16.07-12,19.74-21.26c2.99-10.011,2.399-20.601,2.99-30.921
		c1.189-34.64,1.109-69.319,2.8-103.949c0.83-11.36,0.17-22.75,0.899-34.11c1.38-38.97,2.95-77.95,3.41-116.94
		C669.6,600.92,565.15,600.71,460.71,600.8z"/>
	<path fill="#D64B3E" d="M632.18,284.94c7.24-0.49,14.521-0.13,21.771-0.13c3.1,13.27,7.479,26.2,11.02,39.36
		c17.351,60.92,34.891,121.771,52.37,182.65c3.351,11.779,7.28,23.41,10.08,35.34c-8.09,0.13-16.189,0.24-24.27-0.061
		c-4.9-13.34-8.19-27.199-12.71-40.659c-3.79-12.311-7.311-24.71-11.19-36.99c-11.4-0.021-22.88-0.72-34.21,0.8
		c-15.66,0.05-31.33-0.02-46.99,0.01c-1.62-0.319-2.899,0.86-3.47,2.26c-7.91,22.551-15.5,45.221-22.99,67.931
		c-0.84,2.22-1.18,4.77-2.77,6.63c-7.74,0.43-15.521,0.14-23.28,0.08c0.28-1.82,0.56-3.63,1.13-5.38
		c12.54-36.87,24.98-73.75,37.26-110.71c5.92-17.7,11.71-35.44,18.011-53c9.59-28.98,19.359-57.91,29.29-86.77
		C631.47,285.96,631.95,285.28,632.18,284.94 M621.32,386.18c-5.511,16.83-11.471,33.52-16.48,50.51
		c-0.47,1.64-0.63,3.34-0.85,5.029c8.67-0.14,17.41,0.63,25.99-0.899c14.34-0.21,28.68,0,43.02-0.09
		c-0.58-6.351-2.78-12.36-4.41-18.471c-3.479-12.189-6.979-24.37-10.439-36.56c-5.69-19.54-10.601-39.3-16.721-58.72
		C634.65,346.69,627.81,366.38,621.32,386.18z"/>
	<path fill="#D64B3E" d="M233.8,293.67c7.15-2.6,14.71-3.73,22.2-4.84c6.01-0.22,12.03-0.11,18.04-0.06
		c10.03,1.04,20.02,3.49,29.06,8.05c13.07,6.98,24.63,17.07,32.4,29.76c2.92,5.04,6.65,9.67,8.6,15.23
		c-5.85,3.93-10.26,9.63-16.18,13.51c-2.25,0.45-2.83-2.12-3.86-3.53c-6.5-12.36-15.5-23.9-27.629-31.13
		c-7.34-4.1-15.59-6.35-23.97-6.84c-5.4-1.19-10.82,0.11-16.2,0.69c-9.76,1.62-19.13,5.71-26.82,11.95
		c-2.79,2.53-5.35,5.31-8.06,7.93c-4.05,3.82-6.35,8.99-9.27,13.64c-7.38,13.63-12.15,28.7-13.7,44.13
		c-2.07,12.52-0.79,25.25-1.17,37.88c1.2,21.29,6.18,42.41,14.9,61.9c3.32,7.479,9.51,13.04,15.29,18.6
		c12.63,10.31,29.53,14.12,45.55,13.17c10.03-1.05,19.48-5.31,27.59-11.18c3.13-2.851,5.99-5.99,9.06-8.91
		c5.771-5.49,9.49-12.62,14.11-19.01c1.42-2.24,4.06,0.05,5.58,1.06c4.26,4.21,9.34,7.53,13.18,12.17
		c-4.31,7.67-9.04,15.141-14.75,21.86c-12.84,15.01-31.83,24.62-51.6,25.75c-6.09,1.03-12.35,1.25-18.45,0.109
		c-9.09-0.859-18.12-2.92-26.5-6.619c-7.13-2.631-13.07-7.53-19.04-12.08c-8.64-9.07-15.76-19.53-21.43-30.7
		c-5.09-7.94-8.24-16.86-11.32-25.72c-4.53-14.04-6.82-28.73-7.7-43.431c0.33-11.34-0.75-22.76,1-34.02
		c2.28-20.68,8.39-41.15,19.08-59.07c4.11-8.49,9.41-16.41,15.78-23.36C214.73,302.81,224.11,297.57,233.8,293.67z"/>
	<path fill="#D64B3E" d="M197.88,642.07c4.78-2.13,10.07-1.12,15.12-1.311c9.68,0.13,19.41-0.31,29.02,0.94
		c16.67,0.149,33.35,0,50.02,0.05c14.71,0.93,29.61,6.5,39.86,17.35c4.42,5.29,8.17,11.301,10.17,17.95
		c2.16,7.141,4.25,14.45,4.189,21.98c-0.12,3.689,1.23,7.26,0.971,10.96c-1.4,11.819-2.301,24.22-8.391,34.77
		c-4.149,8.311-12.02,13.63-18.78,19.61c4.16,2.58,8.78,4.86,11.58,9.05c9.7,11.11,12.471,26.29,13.591,40.55
		c0,22.08,0.079,44.17-0.04,66.261c-7.421,0.35-14.86,0-22.28-0.141c-0.41-20.68,0.04-41.38-0.21-62.06
		c-0.79-6.74-1.32-13.62-3.86-19.971c-3.609-8.109-10.22-15.199-18.82-17.909c-5.9-1.48-11.86-3.21-18-2.94
		c-18.86,0.2-37.72-0.26-56.57,0.24c-0.48,11.51-0.06,23.04-0.23,34.569c-0.21,5.36,1.16,10.62,1.04,15.99
		c-0.06,15.99,0.04,31.98-0.04,47.971c0.2,1.43-0.71,3.21-2.33,3.17c-6.97,0.26-13.95,0.05-20.93,0.029
		c-0.17-4.42-1.37-8.739-1.23-13.17c0.06-14.02,0.01-28.04,0.04-42.05c0.05-4.68-1.05-9.27-1.03-13.94
		c-0.03-13.34,0.11-26.67-0.04-40c-1.75-16.279-0.57-32.67-1-49c-0.2-3.01-1-5.96-0.95-8.989c-0.05-12.67,0.1-25.351-0.04-38.011
		C197.27,663.43,197.75,652.72,197.88,642.07 M224.08,664.22c-0.71,2.521-0.97,5.13-0.88,7.75c0.18,9.011-0.43,18.061,0.9,27.011
		c0.35,14.68,0.03,29.369,0.15,44.05c0.05,2.93,0.61,5.819,0.97,8.729c8.95-0.359,17.83,1.141,26.78,1.01
		c11.65-0.069,23.32,0.061,34.97-0.05c12.08-1.05,25.19-6.54,30.64-18.069c6.42-11.681,5.83-25.54,4.949-38.41
		c-1.529-7.891-4.27-15.94-10.159-21.67c-7.7-8.34-19.67-9.69-30.36-10.32C262.72,664.21,243.4,664.28,224.08,664.22z"/>
	<path fill="#D64B3E" d="M557.93,648.76c7.051-0.05,14.13-0.38,21.101,0.9c22.33,0.17,44.67,0.01,67.01,0.07
		c4.17,0.189,8.28,1.079,12.43,1.619c7.4,0.841,14.33,3.9,20.971,7.141c9.659,5.81,17.829,14.37,22.42,24.74
		c9.01,21.01,10.1,45.38,2.46,66.97c-2.32,6.01-5.11,11.92-9.011,17.09c-5.52,6.28-11.76,12.229-19.529,15.6
		c-10.23,4.67-21.44,8.021-32.78,7.391c-17.35-0.04-34.69,0.01-52.03-0.011c-3.21,0.03-6.31-1.21-9.51-0.939
		c-1.18,0.91-2.479,2.05-2.18,3.729c-0.07,26.66,0.069,53.33-0.061,79.99c-0.84,6.29-1.109,12.63-1,18.99
		c-7.39-1.49-14.96-0.45-22.43-0.83c-0.13-49.07-0.021-98.14-0.06-147.21c0.109-8.35-0.511-16.76,0.949-25.02
		c0.12-21.341,0.021-42.69,0.03-64.03C556.67,652.82,557.36,650.78,557.93,648.76 M581.48,672.47c0.029,4.87-0.721,9.67-1.19,14.5
		c-0.09,26.271,0.06,52.54-0.07,78.811c12.931-0.12,25.86,0.01,38.79-0.08c4.7-0.17,9.26,1.35,13.971,1.06
		c6.869-0.29,13.92,0.811,20.6-1.29c9.4-1.97,17.189-8.56,22.479-16.35c7.261-12.08,8.87-26.75,7.23-40.54
		c-1.37-8.86-3.74-18.12-10.04-24.84c-6.58-6.76-16.16-9.431-25.28-10.44c-16.66-0.13-33.34,0.08-50-0.08
		C592.51,672.37,586.99,671.89,581.48,672.47z"/>
</g>
</svg>
