<?xml version="1.0" encoding="utf-8"?>
<!-- Generator: Adobe Illustrator 16.0.3, SVG Export Plug-In . SVG Version: 6.00 Build 0)  -->
<!DOCTYPE svg PUBLIC "-//W3C//DTD SVG 1.1//EN" "http://www.w3.org/Graphics/SVG/1.1/DTD/svg11.dtd">
<svg version="1.1" id="Capa_1" xmlns="http://www.w3.org/2000/svg" xmlns:xlink="http://www.w3.org/1999/xlink" x="0px" y="0px"
	 width="234.977px" height="296.314px" viewBox="0 0 234.977 296.314" enable-background="new 0 0 234.977 296.314"
	 xml:space="preserve">
<g>
	<polygon fill-rule="evenodd" clip-rule="evenodd" points="0,43.811 3.244,40.549 4.47,39.315 5.697,38.081 6.923,36.846 
		8.15,35.612 10.602,33.145 11.829,31.91 13.056,30.676 15.508,28.208 16.735,26.973 17.962,25.739 20.414,23.272 21.641,22.037 
		22.868,20.803 24.094,19.569 25.32,18.335 26.547,17.1 27.774,15.866 30.226,13.399 31.453,12.164 32.68,10.929 35.132,8.462 
		36.359,7.227 37.586,5.993 40.038,3.526 43.54,0 48.767,2.927 51.401,4.147 54.405,5.318 57.749,6.428 61.402,7.468 65.338,8.432 
		69.53,9.317 73.952,10.119 78.581,10.837 83.391,11.467 88.358,12.01 93.46,12.463 98.673,12.826 103.974,13.097 109.34,13.276 
		114.748,13.361 120.176,13.353 125.6,13.25 130.996,13.051 136.344,12.756 141.619,12.365 146.799,11.876 151.859,11.291 
		156.777,10.608 161.531,9.828 166.094,8.951 170.441,7.979 174.551,6.911 178.393,5.752 181.943,4.505 185.176,3.177 190.9,0.397 
		194.281,3.717 195.523,4.936 196.764,6.155 198.006,7.374 199.248,8.593 201.73,11.03 202.973,12.249 204.215,13.469 
		205.455,14.687 206.697,15.906 207.939,17.125 209.182,18.345 211.664,20.781 212.906,22 214.148,23.22 215.391,24.438 
		216.633,25.658 217.873,26.876 219.115,28.096 221.598,30.532 222.842,31.751 224.082,32.971 226.564,35.408 227.809,36.626 
		229.051,37.847 231.531,40.283 234.977,43.662 232.793,48.063 232.012,49.689 231.246,51.329 230.5,52.981 229.77,54.648 
		229.057,56.326 228.361,58.019 227.682,59.724 227.018,61.442 226.371,63.172 225.742,64.915 225.127,66.67 224.527,68.438 
		223.945,70.217 223.379,72.008 222.826,73.812 222.289,75.627 221.768,77.454 221.26,79.292 220.768,81.141 220.289,83.002 
		219.826,84.874 219.377,86.756 218.941,88.649 218.52,90.554 218.111,92.468 217.717,94.393 217.334,96.328 216.965,98.273 
		216.609,100.228 216.268,102.193 215.936,104.169 215.85,104.71 215.766,105.248 215.684,105.782 215.607,106.316 215.531,106.848 
		215.461,107.376 215.393,107.904 215.326,108.433 215.262,108.958 215.203,109.482 215.145,110.008 215.09,110.532 
		215.037,111.055 214.986,111.577 214.939,112.102 214.893,112.626 214.85,113.154 214.807,113.679 214.768,114.203 214.73,114.73 
		214.695,115.26 214.662,115.79 214.631,116.321 214.6,116.858 214.57,117.394 214.545,117.931 214.52,118.473 214.496,119.018 
		214.473,119.564 214.451,120.114 214.432,120.666 214.414,121.237 214.305,124.057 214.164,126.883 213.992,129.706 
		213.789,132.524 213.555,135.337 213.289,138.146 212.992,140.95 212.664,143.75 212.307,146.546 211.916,149.336 211.498,152.123 
		211.049,154.904 210.568,157.684 210.061,160.457 209.521,163.225 208.953,165.988 208.354,168.75 207.727,171.506 207.07,174.256 
		206.387,177.004 205.674,179.746 204.932,182.484 204.16,185.219 203.363,187.947 202.535,190.674 201.682,193.395 
		200.799,196.111 199.891,198.824 198.953,201.533 197.99,204.236 197,206.936 196.014,209.549 194.91,212.785 193.641,216.162 
		192.254,219.549 190.754,222.938 189.143,226.324 187.43,229.703 185.613,233.066 183.703,236.412 181.697,239.732 
		179.604,243.021 177.426,246.273 175.168,249.486 172.832,252.648 170.424,255.758 167.947,258.809 165.404,261.795 
		162.801,264.707 160.139,267.545 157.422,270.299 154.656,272.963 151.842,275.533 148.986,278.002 146.09,280.365 
		143.154,282.615 140.188,284.744 137.191,286.75 134.166,288.623 131.117,290.357 128.049,291.945 124.959,293.383 121.855,294.66 
		117.213,296.314 112.058,293.951 108.463,292.184 104.914,290.313 101.411,288.338 97.957,286.258 94.554,284.072 91.205,281.775 
		87.91,279.369 84.672,276.848 81.495,274.215 78.379,271.467 75.326,268.604 72.339,265.619 69.42,262.518 66.571,259.295 
		63.792,255.949 61.089,252.48 58.461,248.887 55.912,245.168 53.44,241.32 51.051,237.344 48.746,233.238 46.524,229.002 
		44.39,224.633 42.344,220.127 40.388,215.488 38.524,210.713 36.753,205.797 35.078,200.742 33.499,195.547 32.019,190.209 
		30.683,184.902 29.955,182.625 29.226,180.25 28.541,177.92 27.899,175.631 27.299,173.383 26.738,171.166 26.216,168.98 
		25.73,166.818 25.28,164.68 24.862,162.561 24.476,160.455 24.12,158.359 23.792,156.27 23.49,154.182 23.213,152.094 
		22.958,149.998 22.726,147.894 22.512,145.776 22.315,143.641 22.135,141.481 21.968,139.297 21.813,137.083 21.668,134.832 
		21.532,132.542 21.403,130.209 21.278,127.827 21.156,125.393 21.035,122.901 20.915,120.347 20.792,117.727 20.665,115.037 
		20.531,112.265 20.461,110.775 20.354,109.286 20.206,107.742 20.017,106.143 19.789,104.491 19.522,102.79 19.217,101.041 
		18.874,99.245 18.493,97.405 18.076,95.521 17.623,93.598 17.134,91.635 16.612,89.634 16.055,87.596 15.465,85.525 14.843,83.419 
		14.19,81.284 13.506,79.118 12.792,76.923 12.048,74.701 11.276,72.454 10.477,70.182 9.65,67.889 8.797,65.572 7.919,63.237 
		7.016,60.884 6.089,58.514 5.139,56.127 4.167,53.727 3.173,51.313 2.158,48.889 0,43.811 	"/>
	<path fill-rule="evenodd" clip-rule="evenodd" fill="#FFFFFF" d="M5.032,44.78C18.115,31.616,31.198,18.452,44.281,5.288
		c25.271,15.68,113.967,17.105,145.78,0.244c13.246,13.002,26.49,26.003,39.736,39.005c-8.881,17.627-14.545,37.524-18.057,58.942
		c-0.984,6.015-1.379,11.546-1.576,17.607c-0.969,29.71-7.305,58.679-18.152,87.027c-11.117,34.404-43.514,73.42-74.597,83.615
		c-37.907-16.76-68.702-49.76-82.641-107.994c-8.372-25.689-8.54-41.69-9.995-71.671C24.233,95.883,16.269,71.023,5.032,44.78
		L5.032,44.78z"/>
	<polygon fill-rule="evenodd" clip-rule="evenodd" points="192.994,13.46 219.283,40.972 85.115,267.502 80.648,263.086 
		78.767,261.143 76.916,259.141 75.092,257.084 73.3,254.971 71.537,252.805 69.804,250.584 68.101,248.311 66.428,245.984 
		64.787,243.605 63.177,241.178 61.597,238.701 60.049,236.174 58.534,233.6 57.05,230.977 55.599,228.309 54.18,225.592 
		52.795,222.83 51.443,220.025 50.124,217.176 48.838,214.283 47.587,211.35 46.37,208.373 45.187,205.355 44.04,202.297 
		42.927,199.201 41.851,196.064 40.809,192.891 39.804,189.68 38.834,186.432 37.902,183.148 36.7,178.693 127.826,24.939 
		131.209,24.828 133.066,24.751 134.959,24.66 136.885,24.552 138.838,24.428 140.816,24.288 142.82,24.13 144.842,23.956 
		146.881,23.765 148.932,23.556 150.994,23.33 153.063,23.085 155.137,22.823 157.211,22.542 159.283,22.244 161.352,21.926 
		163.412,21.59 165.461,21.235 167.494,20.861 169.51,20.467 171.506,20.055 173.477,19.622 175.422,19.168 177.338,18.696 
		179.219,18.205 181.063,17.692 182.867,17.16 184.629,16.607 186.344,16.035 188.01,15.442 189.621,14.83 192.994,13.46 	"/>
	<path fill-rule="evenodd" clip-rule="evenodd" fill="#FF0000" d="M192.275,16.812l23.473,24.564L84.526,262.936
		c-20.02-19.33-35.524-48.623-44.778-83.826l89.725-151.388C148.9,27.151,175.305,23.94,192.275,16.812L192.275,16.812z"/>
	<polygon fill-rule="evenodd" clip-rule="evenodd" points="102.287,249.506 106.109,243.045 117.577,223.664 121.398,217.203 
		125.221,210.744 132.865,197.824 136.688,191.363 148.154,171.982 151.977,165.521 155.799,159.063 167.266,139.681 
		171.088,133.22 182.555,113.839 186.377,107.378 197.844,87.998 201.666,81.537 224.627,42.731 216.738,69.719 215.32,74.704 
		214.033,79.373 212.867,83.745 211.818,87.836 210.879,91.663 210.043,95.244 209.301,98.594 208.648,101.732 208.08,104.675 
		207.586,107.44 207.16,110.045 206.795,112.508 206.486,114.847 206.225,117.08 206.006,119.224 205.82,121.3 205.664,123.326 
		205.527,125.318 205.408,127.296 205.295,129.278 205.184,131.279 205.068,133.319 204.941,135.413 204.795,137.577 
		204.625,139.826 204.42,142.178 204.18,144.647 203.893,147.252 203.553,150.006 203.154,152.928 202.691,156.039 202.098,159.594 
		201.469,163.104 200.801,166.578 200.096,170.014 199.354,173.416 198.574,176.781 197.756,180.107 196.902,183.398 
		196.01,186.654 195.078,189.873 194.111,193.055 193.105,196.199 192.061,199.309 190.98,202.379 189.861,205.414 188.705,208.412 
		187.51,211.375 186.277,214.301 185.008,217.188 183.701,220.041 182.354,222.855 180.971,225.633 179.551,228.373 178.09,231.078 
		176.594,233.744 175.059,236.375 173.484,238.969 171.875,241.525 170.225,244.043 168.539,246.525 166.814,248.971 
		164.996,251.455 163.813,252.811 162.693,254.08 161.563,255.344 160.418,256.604 159.258,257.857 158.086,259.105 
		156.895,260.348 155.684,261.582 154.455,262.807 153.205,264.025 151.932,265.232 150.637,266.43 149.318,267.615 
		147.975,268.791 146.604,269.951 145.203,271.102 143.775,272.234 142.318,273.354 140.83,274.459 139.307,275.547 
		137.752,276.617 136.162,277.67 134.537,278.705 132.875,279.721 131.174,280.717 129.434,281.691 127.654,282.645 
		125.834,283.576 123.969,284.484 122.063,285.371 120.111,286.23 116.977,287.545 114.622,286.438 113.439,285.877 
		112.296,285.326 111.19,284.789 110.123,284.26 109.09,283.742 108.094,283.234 107.129,282.736 106.199,282.246 105.299,281.764 
		104.431,281.291 103.592,280.826 102.781,280.367 101.997,279.916 101.241,279.471 100.507,279.031 99.799,278.596 99.115,278.166 
		98.453,277.742 97.811,277.32 97.189,276.904 96.587,276.49 96.004,276.082 95.437,275.674 94.885,275.268 94.349,274.865 
		93.83,274.465 93.321,274.064 92.827,273.666 92.343,273.27 91.871,272.871 89.606,270.938 102.287,249.506 	"/>
	<path fill-rule="evenodd" clip-rule="evenodd" fill="#FFFFFF" d="M93.259,270.33c40.772-68.91,81.543-137.821,122.313-206.731
		c-17.377,58.726-10.432,58.221-15.68,91.997c-6.061,37.674-18.432,69.035-37.113,94.088c-11.66,13.457-24.711,26.188-45.737,34.76
		C103.9,278.318,97.941,274.377,93.259,270.33L93.259,270.33z"/>
	<polygon fill-rule="evenodd" clip-rule="evenodd" points="121.912,24.483 114.064,24.545 111.294,24.542 108.562,24.516 
		105.864,24.465 103.204,24.391 100.578,24.292 97.988,24.171 95.432,24.026 92.911,23.859 90.425,23.668 87.974,23.456 
		85.555,23.221 83.171,22.964 80.819,22.685 78.501,22.384 76.215,22.061 73.962,21.718 71.741,21.353 69.552,20.968 67.394,20.562 
		65.268,20.135 63.173,19.688 61.108,19.221 59.074,18.734 57.069,18.228 55.095,17.702 53.15,17.157 51.234,16.592 49.348,16.01 
		47.489,15.408 45.66,14.788 42.105,13.529 39.911,15.836 38.983,16.811 38.055,17.786 37.127,18.761 36.2,19.736 35.272,20.711 
		34.344,21.686 33.417,22.661 32.489,23.636 31.561,24.611 30.633,25.586 29.706,26.561 28.778,27.536 26.923,29.484 25.994,30.459 
		25.066,31.435 24.138,32.41 23.21,33.385 22.282,34.359 21.354,35.335 18.571,38.258 17.644,39.234 16.716,40.208 15.788,41.184 
		14.86,42.159 13.932,43.134 12.078,45.082 9.872,47.397 12.946,54.74 15.087,60.163 17.035,65.408 18.798,70.478 20.386,75.38 
		21.809,80.118 23.078,84.697 24.201,89.123 25.19,93.401 26.055,97.537 26.805,101.536 27.448,105.402 27.998,109.143 
		28.462,112.763 28.851,116.268 29.173,119.663 29.441,122.955 29.662,126.147 29.847,129.249 30.004,132.263 30.146,135.196 
		30.279,138.053 30.417,140.841 30.566,143.564 30.74,146.23 30.947,148.844 31.199,151.408 31.505,153.932 31.877,156.418 
		32.326,158.869 32.863,161.293 35.21,170.143 41.18,160.117 56.308,134.702 58.829,130.466 76.479,100.815 79,96.58 81.521,92.344 
		96.649,66.929 99.17,62.693 106.734,49.986 109.254,45.75 116.819,33.043 121.912,24.483 	"/>
	<path fill-rule="evenodd" clip-rule="evenodd" fill="#FFFFFF" d="M116.904,27.357c-30.387,0.365-54.545-3.496-74.012-10.542
		c-9.897,10.399-19.793,20.798-29.69,31.197c26.401,61.359,16.046,90.749,23.021,114.891C63.116,117.72,90.01,72.539,116.904,27.357
		L116.904,27.357z"/>
	<polygon fill-rule="evenodd" clip-rule="evenodd" points="117.513,197.76 121.109,197.67 124.66,197.402 128.158,196.961 
		131.602,196.35 134.986,195.574 138.305,194.639 141.555,193.547 144.729,192.305 147.826,190.914 150.84,189.381 153.768,187.709 
		156.604,185.904 159.344,183.969 161.984,181.908 164.52,179.729 166.947,177.43 169.26,175.021 171.457,172.504 173.531,169.883 
		175.48,167.162 177.297,164.346 178.98,161.439 180.523,158.449 181.924,155.373 183.176,152.223 184.275,148.998 185.217,145.705 
		185.998,142.348 186.613,138.932 187.059,135.461 187.328,131.94 187.418,128.374 187.328,124.809 187.059,121.289 
		186.613,117.819 185.998,114.405 185.217,111.05 184.275,107.76 183.176,104.539 181.924,101.39 180.523,98.32 178.98,95.333 
		177.297,92.432 175.479,89.621 173.529,86.905 171.455,84.29 169.258,81.777 166.943,79.373 164.516,77.081 161.98,74.905 
		159.34,72.851 156.602,70.921 153.766,69.121 150.838,67.454 147.822,65.926 144.727,64.54 141.551,63.301 138.303,62.213 
		134.984,61.28 131.6,60.508 128.158,59.899 124.658,59.459 121.109,59.192 117.513,59.103 113.917,59.192 110.367,59.459 
		106.867,59.899 103.421,60.507 100.036,61.28 96.714,62.213 93.463,63.301 90.283,64.539 87.182,65.925 84.164,67.453 
		81.232,69.12 78.391,70.919 75.646,72.849 73,74.903 70.459,77.079 68.026,79.37 65.707,81.775 63.505,84.287 61.425,86.902 
		59.47,89.618 57.647,92.428 55.959,95.33 54.41,98.317 53.005,101.387 51.75,104.536 50.646,107.757 49.701,111.048 
		48.917,114.403 48.299,117.818 47.854,121.288 47.583,124.808 47.491,128.374 47.583,131.94 47.854,135.462 48.299,138.934 
		48.917,142.35 49.701,145.708 50.646,149 51.749,152.225 53.004,155.377 54.409,158.451 55.958,161.443 57.646,164.35 
		59.469,167.164 61.423,169.885 63.503,172.506 65.705,175.023 68.024,177.432 70.457,179.73 72.997,181.91 75.643,183.971 
		78.388,185.904 81.229,187.711 84.161,189.381 87.179,190.914 90.28,192.305 93.459,193.547 96.712,194.639 100.034,195.574 
		103.419,196.35 106.865,196.961 110.366,197.402 113.917,197.67 117.513,197.76 	"/>
	<path fill-rule="evenodd" clip-rule="evenodd" fill="#FFFFFF" d="M117.513,194.924c37.069,0,67.071-29.832,67.071-66.55
		c0-36.718-30.002-66.436-67.071-66.436s-67.187,29.718-67.187,66.436C50.326,165.092,80.444,194.924,117.513,194.924
		L117.513,194.924z"/>
	<path fill-rule="evenodd" clip-rule="evenodd" d="M141.689,83.664c0,16.896,0,33.794,0,50.69c0,1.35-0.113,2.022-0.693,3.262
		c-2.721,5.805-6.965,8.328-11.018,12.103l13.092,32.205c-3.107,1.494-6.213,2.646-9.436,3.682l-9.527-21.422
		c-0.686-0.855-1.607-2.982-1.748-1.451l-0.012,25.559l-10.147-0.008V67.354C123.654,66.639,139.301,70.355,141.689,83.664
		L141.689,83.664z M122.123,78.258c0,21.366,0,42.733,0,64.099c3.596-0.327,8.615-5.566,8.982-9.417c0-15.817,0-31.635,0-47.452
		C131.225,81.819,129.225,78.493,122.123,78.258L122.123,78.258z"/>
	<path fill-rule="evenodd" clip-rule="evenodd" d="M104.725,168.283l-9.764,0.049v-14.205v-8.285V132.15l-11.213,0.168
		c0.806,6.443,6.083,13.747,9.995,18.464l-5.629,10.334c-11.708-11.137-14.768-23.606-14.768-34.306
		c0-20.25,13.56-35.269,31.378-43.996V168.283L104.725,168.283z M84.432,122.228H95.21v-20.825
		C88.652,106.465,85.813,113.829,84.432,122.228L84.432,122.228z"/>
	<path fill-rule="evenodd" clip-rule="evenodd" d="M106.368,187.215c-28.994-4.832-51.2-30.029-51.2-60.404
		c1.316-27.48,21.914-52.207,51.2-58.648v10.67c-23.54,4.806-39.119,24.392-39.119,47.978
		c-1.609,25.927,16.798,45.132,39.119,49.849V187.215L106.368,187.215z"/>
	<path fill-rule="evenodd" clip-rule="evenodd" d="M149.215,75.205c29.396,22.74,37.109,67.286,9.795,87.504l0.027,7.277
		l-9.822,9.332V75.205L149.215,75.205z M160.053,145.51c4.82-7.374,6.799-11.208,6.799-19.952c0-8.744-3.361-14.565-6.799-20.772
		V145.51L160.053,145.51z"/>
</g>
</svg>
