<?xml version="1.0" encoding="utf-8"?>
<!-- Generator: Adobe Illustrator 16.0.3, SVG Export Plug-In . SVG Version: 6.00 Build 0)  -->
<!DOCTYPE svg PUBLIC "-//W3C//DTD SVG 1.1//EN" "http://www.w3.org/Graphics/SVG/1.1/DTD/svg11.dtd">
<svg version="1.1" id="Capa_1" xmlns="http://www.w3.org/2000/svg" xmlns:xlink="http://www.w3.org/1999/xlink" x="0px" y="0px"
	 width="175.746px" height="175.748px" viewBox="0 0 175.746 175.748" enable-background="new 0 0 175.746 175.748"
	 xml:space="preserve">
<g>
	<path fill-rule="evenodd" clip-rule="evenodd" fill="#F8130E" d="M0,87.874c0,48.454,39.42,87.874,87.874,87.874
		s87.872-39.42,87.872-87.874C175.746,39.42,136.328,0,87.874,0S0,39.42,0,87.874L0,87.874z"/>
	<path fill-rule="evenodd" clip-rule="evenodd" fill="#FFFFFF" d="M4.24,87.874c0-46.115,37.518-83.633,83.634-83.633
		c46.115,0,83.632,37.518,83.632,83.633c0,46.116-37.517,83.634-83.632,83.634C41.758,171.508,4.24,133.99,4.24,87.874L4.24,87.874z
		"/>
	<path fill-rule="evenodd" clip-rule="evenodd" d="M49.517,110.618l2.539,1.657c0.314-0.48,0.74-0.958,1.257-1.43l-1.66-2.607
		C50.776,108.985,50.058,109.78,49.517,110.618L49.517,110.618z"/>
	<path fill-rule="evenodd" clip-rule="evenodd" d="M56.32,108.753l-1.233-2.825c-0.967,0.522-1.838,1.078-2.62,1.662l1.645,2.586
		C54.746,109.69,55.486,109.217,56.32,108.753L56.32,108.753z"/>
	<path fill-rule="evenodd" clip-rule="evenodd" d="M61.159,106.604l-0.898-2.92c-1.229,0.433-2.381,0.898-3.458,1.395l1.225,2.808
		C58.982,107.441,60.025,107.012,61.159,106.604L61.159,106.604z"/>
	<path fill-rule="evenodd" clip-rule="evenodd" d="M66.549,118.094l0.235,2.953c1.092,0.199,2.221,0.385,3.386,0.555l-0.245-3.065
		C68.766,118.401,67.637,118.254,66.549,118.094L66.549,118.094z"/>
	<path fill-rule="evenodd" clip-rule="evenodd" d="M74.77,119.023c-1.144-0.096-2.263-0.201-3.354-0.318l0.248,3.104
		c1.093,0.146,2.214,0.278,3.361,0.396L74.77,119.023L74.77,119.023z"/>
	<path fill-rule="evenodd" clip-rule="evenodd" d="M76.512,122.354c1.097,0.1,2.213,0.189,3.35,0.266l-0.261-3.262
		c-1.135-0.061-2.25-0.133-3.346-0.216L76.512,122.354L76.512,122.354z"/>
	<path fill-rule="evenodd" clip-rule="evenodd" d="M81.386,122.712c1.147,0.065,2.313,0.116,3.494,0.155l-0.064-3.295
		c-1.249-0.033-2.479-0.079-3.691-0.136L81.386,122.712L81.386,122.712z"/>
	<path fill-rule="evenodd" clip-rule="evenodd" d="M86.6,119.609l0,3.305c1.11,0.023,2.23,0.039,3.365,0.039
		c0.202,0,0.401-0.004,0.604-0.004l-0.064-3.313c-0.18,0.002-0.358,0.004-0.539,0.004C88.832,119.641,87.71,119.629,86.6,119.609
		L86.6,119.609z"/>
	<path fill-rule="evenodd" clip-rule="evenodd" d="M92.238,122.936c1.484-0.021,2.946-0.066,4.386-0.127l-0.002-3.283
		c-1.459,0.049-2.942,0.084-4.448,0.102L92.238,122.936L92.238,122.936z"/>
	<path fill-rule="evenodd" clip-rule="evenodd" d="M98.306,122.726c1.502-0.082,2.971-0.188,4.407-0.311l0.173-3.215
		c-1.457,0.102-2.946,0.186-4.468,0.254L98.306,122.726L98.306,122.726z"/>
	<path fill-rule="evenodd" clip-rule="evenodd" d="M108.963,118.657c-1.286,0.142-2.614,0.269-3.973,0.38l-0.178,3.178
		c1.341-0.137,2.648-0.291,3.918-0.466L108.963,118.657L108.963,118.657z"/>
	<path fill-rule="evenodd" clip-rule="evenodd" d="M114.613,120.767l0.217-2.895c-1.329,0.214-2.721,0.408-4.166,0.586l-0.168,3.037
		C111.927,121.273,113.3,121.029,114.613,120.767L114.613,120.767z"/>
	<path fill-rule="evenodd" clip-rule="evenodd" d="M115.692,120.537c1.082-0.229,2.118-0.474,3.107-0.73l0.203-2.705
		c-1.002,0.205-2.058,0.399-3.152,0.583L115.692,120.537L115.692,120.537z"/>
	<path fill-rule="evenodd" clip-rule="evenodd" d="M119.821,119.527c0.981-0.278,1.903-0.57,2.769-0.874l0.185-2.443
		c-0.884,0.241-1.815,0.474-2.807,0.693L119.821,119.527L119.821,119.527z"/>
	<path fill-rule="evenodd" clip-rule="evenodd" d="M125.935,117.275l0.16-2.112c-0.705,0.26-1.469,0.511-2.285,0.754l-0.131,2.337
		C124.493,117.939,125.247,117.612,125.935,117.275L125.935,117.275z"/>
	<path fill-rule="evenodd" clip-rule="evenodd" d="M128.62,114.066c-0.538,0.28-1.142,0.552-1.801,0.816l-0.112,1.991
		c0.67-0.366,1.272-0.742,1.786-1.13L128.62,114.066L128.62,114.066z"/>
	<path fill-rule="evenodd" clip-rule="evenodd" d="M129.52,113.55l-0.077,1.362c0.719-0.729,1.163-1.486,1.28-2.266
		C130.396,112.954,129.989,113.254,129.52,113.55L129.52,113.55z"/>
	<path fill-rule="evenodd" clip-rule="evenodd" d="M77.727,128.557l-0.059-1.52c-1.611-0.096-3.278,2.521-4.816,2.305l0.063,1.529
		C74.436,131.082,76.134,128.465,77.727,128.557L77.727,128.557z"/>
	<path fill-rule="evenodd" clip-rule="evenodd" d="M77.638,126.252l-0.059-1.509c-1.646-0.09-3.25,2.523-4.82,2.313l0.063,1.527
		C74.371,128.788,76.014,126.164,77.638,126.252L77.638,126.252z"/>
	<path fill-rule="evenodd" clip-rule="evenodd" d="M78.956,124.847l0.08,1.517c3.518,0.274,7.172,0.426,10.929,0.426
		c3.259,0,6.435-0.118,9.516-0.325l0.095-1.512c-3.115,0.218-6.328,0.333-9.61,0.333C86.189,125.285,82.504,125.131,78.956,124.847
		L78.956,124.847z"/>
	<path fill-rule="evenodd" clip-rule="evenodd" d="M77.816,130.865l-0.059-1.523c-1.58-0.104-3.301,2.506-4.811,2.283l0.063,1.537
		C74.502,133.379,76.255,130.768,77.816,130.865L77.816,130.865z"/>
	<path fill-rule="evenodd" clip-rule="evenodd" d="M65.146,127.319c-4.815-1.104-9.537-3.006-12.783-4.59l0.098,1.543
		c3.287,1.541,8.041,3.567,12.766,4.627L65.146,127.319L65.146,127.319z"/>
	<path fill-rule="evenodd" clip-rule="evenodd" d="M105.885,128.22c4.65-0.427,8.602-1.627,12.548-2.391l0.103-1.619
		c-3.994,0.797-7.797,2.04-12.545,2.488L105.885,128.22L105.885,128.22z"/>
	<path fill-rule="evenodd" clip-rule="evenodd" d="M123.236,126.799c2.938-0.834,5.37-3.515,7.508-4.693l0.157-1.582
		c-2.13,1.263-4.456,3.772-7.565,4.678L123.236,126.799L123.236,126.799z"/>
	<path fill-rule="evenodd" clip-rule="evenodd" d="M106.044,125.936c4.766-0.409,8.507-1.604,12.53-2.344l0.1-1.598
		c-4.066,0.769-7.659,2.009-12.526,2.436L106.044,125.936L106.044,125.936z"/>
	<path fill-rule="evenodd" clip-rule="evenodd" d="M79.078,127.169l0.08,1.519c3.48,0.284,7.093,0.441,10.807,0.441
		c3.206,0,6.335-0.122,9.371-0.335l0.094-1.52c-3.072,0.223-6.232,0.351-9.465,0.351C86.232,127.625,82.589,127.464,79.078,127.169
		L79.078,127.169z"/>
	<path fill-rule="evenodd" clip-rule="evenodd" d="M65.034,125.098c-4.861-1.06-9.53-2.677-12.787-4.208l0.095,1.497
		c3.303,1.499,7.999,3.249,12.771,4.272L65.034,125.098L65.034,125.098z"/>
	<path fill-rule="evenodd" clip-rule="evenodd" d="M73.04,133.907l0.064,1.554c1.46,0.221,3.275-2.394,4.802-2.289l-0.06-1.525
		C76.296,131.534,74.521,134.137,73.04,133.907L73.04,133.907z"/>
	<path fill-rule="evenodd" clip-rule="evenodd" d="M103.307,128.248l-0.049,1.53c1.499,0.323,0.684-1.883,2.265-1.672l0.053-1.521
		C103.977,126.369,104.826,128.576,103.307,128.248L103.307,128.248z"/>
	<path fill-rule="evenodd" clip-rule="evenodd" d="M103.332,127.491c1.531,0.317,0.657-1.898,2.271-1.691l0.053-1.509
		c-1.635-0.212-0.725,1.997-2.273,1.672L103.332,127.491L103.332,127.491z"/>
	<path fill-rule="evenodd" clip-rule="evenodd" d="M103.232,130.53l-0.051,1.539c1.472,0.327,0.71-1.87,2.259-1.656l0.053-1.523
		C103.928,128.67,104.722,130.865,103.232,130.53L103.232,130.53z"/>
	<path fill-rule="evenodd" clip-rule="evenodd" d="M103.155,132.815l-0.051,1.553c1.441,0.328,0.74-1.864,2.256-1.647l0.053-1.526
		C103.876,130.969,104.618,133.154,103.155,132.815L103.155,132.815z"/>
	<path fill-rule="evenodd" clip-rule="evenodd" d="M67.941,129.291l-0.071-1.492c-1.947-0.096-0.324-2.196-2.183-2.408l0.076,1.502
		C67.601,127.1,66.017,129.199,67.941,129.291L67.941,129.291z"/>
	<path fill-rule="evenodd" clip-rule="evenodd" d="M67.834,127.027l-0.072-1.48c-1.989-0.09-0.292-2.192-2.189-2.397l0.077,1.5
		C67.523,124.849,65.871,126.941,67.834,127.027L67.834,127.027z"/>
	<path fill-rule="evenodd" clip-rule="evenodd" d="M68.049,131.557l-0.072-1.496c-1.909-0.102-0.353-2.211-2.177-2.43l0.076,1.51
		C67.68,129.354,66.164,131.458,68.049,131.557L68.049,131.557z"/>
	<path fill-rule="evenodd" clip-rule="evenodd" d="M65.914,129.873l0.077,1.524c1.764,0.216,0.321,2.32,2.167,2.422l-0.072-1.497
		C66.213,132.212,67.705,130.098,65.914,129.873L65.914,129.873z"/>
	<path fill-rule="evenodd" clip-rule="evenodd" d="M52.017,122.24l-0.078-1.321c-1.504-0.016-1.73,2.177-2.898,1.985l0.01,1.222
		C50.204,124.311,50.531,122.227,52.017,122.24L52.017,122.24z"/>
	<path fill-rule="evenodd" clip-rule="evenodd" d="M51.898,120.235l-0.078-1.312c-1.536-0.01-1.602,2.344-2.794,2.158l0.01,1.219
		C50.212,122.479,50.383,120.229,51.898,120.235L51.898,120.235z"/>
	<path fill-rule="evenodd" clip-rule="evenodd" d="M52.057,122.924c-1.475-0.025-1.856,1.997-3.002,1.802l0.01,1.226
		c1.132,0.191,1.614-1.724,3.07-1.702L52.057,122.924L52.057,122.924z"/>
	<path fill-rule="evenodd" clip-rule="evenodd" d="M49.069,126.546l0.01,1.239c1.108,0.194,1.749-1.559,3.174-1.531l-0.078-1.325
		C50.729,124.896,50.193,126.748,49.069,126.546L49.069,126.546z"/>
	<path fill-rule="evenodd" clip-rule="evenodd" d="M79.323,131.816l0.081,1.527c3.404,0.3,6.935,0.464,10.562,0.464
		c3.102,0,6.135-0.121,9.079-0.343l0.094-1.527c-2.979,0.233-6.042,0.367-9.173,0.367C86.318,132.305,82.758,132.132,79.323,131.816
		L79.323,131.816z"/>
	<path fill-rule="evenodd" clip-rule="evenodd" d="M123.104,128.884c2.819-0.848,5.391-3.846,7.466-5.021l0.16-1.617
		c-2.079,1.265-4.538,4.101-7.523,5.024L123.104,128.884L123.104,128.884z"/>
	<path fill-rule="evenodd" clip-rule="evenodd" d="M52.481,124.582l0.099,1.561c3.274,1.588,8.076,3.898,12.761,4.994l-0.081-1.591
		C60.492,128.4,55.713,126.219,52.481,124.582L52.481,124.582z"/>
	<path fill-rule="evenodd" clip-rule="evenodd" d="M105.568,132.798c4.421-0.458,8.786-1.667,12.583-2.465l0.104-1.646
		c-3.841,0.843-8.066,2.09-12.581,2.577L105.568,132.798L105.568,132.798z"/>
	<path fill-rule="evenodd" clip-rule="evenodd" d="M105.727,130.509c4.536-0.444,8.693-1.648,12.565-2.432l0.104-1.635
		c-3.919,0.822-7.931,2.069-12.563,2.539L105.727,130.509L105.727,130.509z"/>
	<path fill-rule="evenodd" clip-rule="evenodd" d="M79.2,129.492l0.08,1.521c3.443,0.294,7.014,0.454,10.685,0.454
		c3.155,0,6.234-0.121,9.225-0.341l0.096-1.522c-3.027,0.229-6.138,0.359-9.32,0.359C86.276,129.964,82.674,129.798,79.2,129.492
		L79.2,129.492z"/>
	<path fill-rule="evenodd" clip-rule="evenodd" d="M123.365,124.711c3.066-0.818,5.352-3.181,7.554-4.363l0.152-1.533
		c-2.181,1.255-4.376,3.441-7.608,4.321L123.365,124.711L123.365,124.711z"/>
	<path fill-rule="evenodd" clip-rule="evenodd" d="M65,124.43l-0.078-1.541c-4.898-1.011-9.523-2.342-12.791-3.808l0.092,1.45
		C55.541,121.979,60.184,123.444,65,124.43L65,124.43z"/>
	<path fill-rule="evenodd" clip-rule="evenodd" d="M123.496,122.626c3.184-0.795,5.336-2.827,7.595-4.004l0.146-1.478
		c-2.231,1.241-4.293,3.102-7.645,3.948L123.496,122.626L123.496,122.626z"/>
	<path fill-rule="evenodd" clip-rule="evenodd" d="M124.354,113.003c-0.624,0.206-1.499,0.403-2.188,0.596l1.541,1.643
		c0.881-0.271,1.697-0.555,2.449-0.85L124.354,113.003L124.354,113.003z"/>
	<path fill-rule="evenodd" clip-rule="evenodd" d="M118.408,114.538l1.315,1.749c1.136-0.255,2.204-0.527,3.203-0.815l-1.648-1.612
		C120.405,114.078,119.365,114.343,118.408,114.538L118.408,114.538z"/>
	<path fill-rule="evenodd" clip-rule="evenodd" d="M128.577,113.271l-2.116-1.044c-0.484,0.198-0.999,0.392-1.537,0.578l1.609,1.435
		C127.289,113.93,127.97,113.606,128.577,113.271L128.577,113.271z"/>
	<path fill-rule="evenodd" clip-rule="evenodd" d="M130.561,111.875l-1.759-0.789c-0.501,0.296-1.063,0.58-1.674,0.854l1.87,1.083
		C129.611,112.655,130.136,112.272,130.561,111.875L130.561,111.875z"/>
	<path fill-rule="evenodd" clip-rule="evenodd" d="M108.704,118.012l-1.321-1.899c-1.231,0.115-2.492,0.218-3.784,0.306l1.113,1.948
		C106.079,118.265,107.41,118.145,108.704,118.012L108.704,118.012z"/>
	<path fill-rule="evenodd" clip-rule="evenodd" d="M114.267,115.272l1.338,1.815c1.225-0.208,2.4-0.43,3.514-0.668l-1.423-1.738
		C116.603,114.895,115.455,115.091,114.267,115.272L114.267,115.272z"/>
	<path fill-rule="evenodd" clip-rule="evenodd" d="M109.376,115.911l1.069,1.906c1.474-0.174,2.897-0.366,4.256-0.581l-1.403-1.813
		C112.092,115.596,110.664,115.77,109.376,115.911L109.376,115.911z"/>
	<path fill-rule="evenodd" clip-rule="evenodd" d="M64.996,102.268c-1.09,0.28-2.156,0.574-3.17,0.896l0.791,2.944
		c0.726-0.236,1.491-0.462,2.277-0.68c-0.024,0.826-0.047,1.657-0.068,2.476c-5.386,1.717-8.665,3.987-8.665,6.477
		c0,0.029,0.006,0.059,0.007,0.088c1.516,0.569,3.213,1.099,5.067,1.582l0,0c0.003,0.002,0.006,0.002,0.008,0.002
		c0.005,0.002,0.01,0.004,0.015,0.004h0c1.843,0.479,3.831,0.918,5.961,1.3v-0.092c0.144,0.027,0.285,0.057,0.43,0.082
		c0.075-5.333,0.359-19.527,0.779-21.838l0.257-1.658c0.515-3.556,1.376-9.508,4.685-12.816c0.497-0.498,0.76-1.169,0.76-1.924
		c0-0.137-0.008-0.276-0.026-0.417c-0.086-0.696-0.39-1.405-0.832-2.035c1.051-0.774,1.757-1.295,2.619-1.93
		c1.435,1.354,4.328,3.533,8.202,3.533c4.046,0,7.355-2.126,8.804-3.233c0.863,0.387,2.11,0.945,2.11,0.945
		c0.758,0.34,1.646,0.001,1.987-0.757c0.339-0.758,0-1.646-0.758-1.987l-2.958-1.326c-0.549-0.246-1.192-0.139-1.635,0.268
		c-0.033,0.031-3.403,3.083-7.551,3.083c-4.013,0-6.838-3.423-6.866-3.458c-0.506-0.624-1.417-0.744-2.063-0.267l-5.089,3.75
		c-0.386,0.285-0.612,0.734-0.612,1.211c0,0.023,0,0.047,0.001,0.071c0.023,0.502,0.297,0.959,0.728,1.218
		c0.589,0.354,0.902,1.02,0.919,1.286c-3.896,4.033-4.878,10.732-5.403,14.355l-0.239,1.551c-0.102,0.563-0.194,1.639-0.276,3.023
		c-11.445,2.112-16.863,7.047-17.856,10.022c-0.025,0.074,0.83,1.09,0.836,1.169c2.041-2.199,8.201-6.504,16.88-8.374
		C65.033,101.281,65.015,101.769,64.996,102.268L64.996,102.268z M60.397,114.38c0-1.342,1.599-2.595,4.362-3.659
		c-0.01,0.487-0.021,0.959-0.029,1.415c-2.494,0.857-3.936,1.851-3.936,2.911c0,0.3,0.126,0.594,0.347,0.882
		C60.665,115.429,60.397,114.912,60.397,114.38L60.397,114.38z M64.687,114.485c-0.007,0.401-0.014,0.77-0.019,1.104
		c-0.139-0.179-0.216-0.358-0.216-0.543C64.451,114.857,64.536,114.669,64.687,114.485L64.687,114.485z"/>
	<path fill-rule="evenodd" clip-rule="evenodd" d="M113.931,77.827v19.09c-2.113-0.46-4.382-0.855-6.804-1.159
		c-0.138-1.271-0.366-2.545-0.738-3.521c-0.298-0.776-1.763-0.052-2.468,0.387c-0.703,0.44-0.918,1.369-0.478,2.074
		c0.931,1.487,0.882,4.125,0.852,5.701l-0.009,0.734v13.143l1.619-0.125c1.922-0.148,7.138-0.532,8.189-0.532
		c2.412,0,2.776-2.696,2.831-4.269c1.795,0.563,3.119,1.257,3.973,2.193l1.267-0.931c-0.824-1.271-2.675-2.315-5.228-3.199v-8.068
		c6.007,1.288,10.455,2.984,12.939,4.498c-2.318-2.281-6.79-4.539-12.939-6.197V77.827c0-0.599,0.173-3.586,3.585-3.586h4.02
		c1.482,0,3.058,1.676,3.058,3.586c0,3.969-1.135,4.194-3.326,5.09c-0.91,0.372-1.959,1.519-1.222,3.887
		c0.713,2.293,1.744,3.268,3.098,2.542c3.09-1.66,7.273-5.724,7.273-11.519c0-3.574-3.601-6.593-6.739-6.593h-6.161
		C115.993,71.234,113.931,74.651,113.931,77.827L113.931,77.827z M113.931,108.633c0,1.149-0.083,1.71-0.175,1.988
		c-1.278,0.037-4.46,0.26-6.463,0.409c0-0.765,0-2.047,0-3.44c2.547,0.319,4.76,0.639,6.638,1.017V108.633L113.931,108.633z
		 M113.931,106.528c-1.99-0.511-4.228-0.959-6.638-1.362c0-2.168,0-4.033,0-4.033l0.01-0.678c0.006-0.329,0.012-0.695,0.012-1.087
		c0-0.444-0.01-0.967-0.033-1.527c2.361,0.243,4.579,0.557,6.649,0.921V106.528L113.931,106.528z"/>
	<path fill-rule="evenodd" clip-rule="evenodd" d="M81.709,59.856v-7.373c0-0.469-0.338-0.853-0.752-0.853s-1.135,0-1.604,0h-4.779
		c-0.469,0-0.509,0.384-0.09,0.853l1.166,1.302c0.419,0.469,1.032,0.853,1.36,0.853c0.328,0,1.692,0.383,1.692,0.852v7.374
		c0,0.469,0.384,0.853,0.853,0.853h2.892c0.469,0,0.853,0.384,0.853,0.853v1.764c0,0.469-0.384,0.853-0.853,0.853h-6.45
		c-0.469,0-0.853-0.384-0.853-0.853v-3.744c0-0.469-0.384-1.082-0.853-1.361l-1.302-0.776c-0.469-0.28-0.853-0.125-0.853,0.345
		v8.544c0,0.469,0.384,0.853,0.853,0.853h23.553c0.468,0,0.852-0.384,0.852-0.853v-5.097c0-0.469,0.323-1.06,0.719-1.313
		l12.146-7.808c0.394-0.254,0.727-0.633,0.738-0.842c0.014-0.21,0.033-0.606,0.045-0.881c0,0,0,0,0-0.268
		c0-5.014-4.119-14.594-11.535-14.913c-3.65-0.158-4.226-0.082-5.765,0.25c-3.608,0.778-4.746,2.697-4.762,3.007
		c-0.02,0.351-0.193,0.963,0.21,0.963c0.431,0,2.808-0.057,2.808-0.057c0.636,0.046,0.836-0.645,1.284-0.781
		c0,0,0.961-0.504,5.192-0.504c8.425,0,9.466,11.038,9.466,11.038c0.043,0.467-0.242,1.056-0.636,1.31l-12.199,7.842
		c-0.396,0.254-0.72,0.845-0.72,1.314v3.73c0,0.469-0.383,0.853-0.852,0.853h-6.375c-0.469,0-0.853-0.384-0.853-0.853v-1.764
		c0-0.469,0.384-0.853,0.853-0.853h3.238c0.468,0,0.852-0.384,0.852-0.853v-7.029c0-0.469,0.384-0.853,0.854-0.853h1.39
		c0.469,0,1.21-0.384,1.649-0.853l1.215-1.301c0.439-0.469,0.413-0.853-0.054-0.853h-7.207c-0.47,0-0.854,0.384-0.854,0.853v7.028
		c0,0.469-0.384,0.853-0.853,0.853h-4.826C82.093,60.709,81.709,60.326,81.709,59.856L81.709,59.856z"/>
	<path fill-rule="evenodd" clip-rule="evenodd" d="M66.049,51.501l3.133,2.255c-1.097-5.812,0.962-9.522,2.255-10.275
		c5.808-3.381,12.907-2.256,12.907-2.256c-0.3-0.133-6.806-4.679-13.909-0.501C68.305,41.978,64.796,44.985,66.049,51.501
		L66.049,51.501z"/>
	<path fill-rule="evenodd" clip-rule="evenodd" d="M66.221,39.157c0.545-0.306,3.453-1.462,3.453-1.769
		c0-0.306-2.58-2.588-5.177-0.815c-0.249,0.169-0.792,1.326-0.487,2.482C64.316,40.211,65.677,39.462,66.221,39.157L66.221,39.157z"
		/>
	<path fill-rule="evenodd" clip-rule="evenodd" d="M63.543,49.204c0.752-0.626,0.376-5.096,2.694-7.226
		c0.768-0.705,1.628-1.127,1.378-1.629c-0.339-0.677-4.39,0.642-6.663,5.513c-0.584,1.253-0.165,1.83,0.063,2.361
		C61.267,48.808,62.791,49.831,63.543,49.204L63.543,49.204z"/>
	<path fill-rule="evenodd" clip-rule="evenodd" d="M49.007,58.143c1.504-0.083,3.342-0.501,4.094-1.337
		c0.279-0.311,2.84-3.091,3.759-3.508s3.007-0.584,3.007-1.42c0-1.002-0.773-1.715-2.841-1.42c-2.339,0.334-4.497,3.018-5.931,4.929
		c-0.752,1.003-1.17,1.42-2.005,1.671C48.531,57.225,48.424,58.175,49.007,58.143L49.007,58.143z"/>
	<path fill-rule="evenodd" clip-rule="evenodd" d="M64.044,54.467c-0.119-0.555-0.669-1.36-1.169-1.504
		c-0.532-0.153-1.052,0.229-2.172,0.918c-2.172,1.337-7.531,6.7-7.936,11.361c-0.167,1.922,1.169,3.174,1.671,3.592
		c0.501,0.418,1.419,1.922,1.253,2.84c-0.167,0.919,0.919,0.751,1.086,0.417c0.167-0.333,0.585-2.004-0.417-3.425
		c-1.003-1.42-0.669-5.096,1.253-7.351C58.958,59.737,64.295,55.636,64.044,54.467L64.044,54.467z"/>
	<path fill-rule="evenodd" clip-rule="evenodd" d="M69.307,58.477c0.635-0.412-1.921-2.256-3.174-1.588
		c-1.253,0.669-5.179,3.592-6.265,7.519c-1.086,3.926,0.25,6.349,2.506,8.604c1.459,1.459,2.766,1.613,2.84,1.169
		c0.083-0.501,0.167-1.922,0.083-2.339c-0.083-0.418-2.673-2.423-2.673-5.096C62.625,64.491,65.047,61.233,69.307,58.477
		L69.307,58.477z"/>
	<path fill-rule="evenodd" clip-rule="evenodd" d="M89.012,37.984c0.429,0.19,7.519-4.118,15.495-0.257
		c2.467,1.194,7.25,6.699,8.437,12.655c0.08,0.398,0.556,0.477,0.637-0.239c0.08-0.716,1.433-5.969-0.876-9.074
		c-2.309-3.104-7.798-8.993-15.52-7.8c-7.721,1.194-8.257,3.866-8.407,4.229C88.699,37.687,88.871,37.921,89.012,37.984
		L89.012,37.984z"/>
	<path fill-rule="evenodd" clip-rule="evenodd" d="M102.763,72.16c0.344,0,1.172-2.48,1.172-3.1c0-0.621,0.196-4.209-1.172-5.855
		c-0.343-0.414-2.411-1.24-3.031,0.964c-0.243,0.865,1.033,1.309,1.103,2.824c0.07,1.516,0.275,1.929,0.207,2.411
		C100.973,69.887,102.418,72.16,102.763,72.16L102.763,72.16z"/>
	<path fill-rule="evenodd" clip-rule="evenodd" d="M106.345,79.53c0.966-0.62,5.72-7.991,5.305-11.573
		c-0.413-3.582-5.028-7.646-5.786-8.059c-0.757-0.414-2.206,0.958-1.999,1.86c0.208,0.896,1.379,1.171,2.273,2.411
		c0.896,1.24,2.48,2.893,2.344,4.822c-0.14,1.929-2.963,7.095-3.72,7.922C104.003,77.739,105.38,80.15,106.345,79.53L106.345,79.53z
		"/>
	<path fill-rule="evenodd" clip-rule="evenodd" d="M109.584,57.487c-0.523-0.058-2.687,1.309-2.413,2.066
		c0.276,0.758,3.789,2.617,4.547,2.755c0.758,0.138,5.442,0.551,5.58-0.137c0.137-0.688-4.272-2.342-5.305-3.1
		C110.96,58.313,110.204,57.556,109.584,57.487L109.584,57.487z"/>
	<path fill-rule="evenodd" clip-rule="evenodd" fill="#F8130E" d="M97.961,75.435c0.069-1.168,2.673,1.503,3.509,3.174
		c0.835,1.67,3.75,10.119,4.919,13.627c0.283,0.854,1.002,2.674-1.504,5.181c-2.506,2.506-16.948,20.788-16.948,20.788
		s-4.344,0.502-8.187,0.167l-1.003-5.514l-8.688-0.667C70.059,112.191,97.627,81.115,97.961,75.435L97.961,75.435z"/>
	<path fill-rule="evenodd" clip-rule="evenodd" d="M30.061,56.866c0.526,0.497,1.101,0.937,1.698,1.256
		c0.147,1.435-0.117,3.118-0.855,4.947c-2.09,5.176-6.559,6.926-10.775,5.224c-6.158-2.485-6.838-7.612-4.947-12.297
		c0.63-1.562,1.892-3.335,2.931-4.11c0.619,0.587,1.337,1.059,2.068,1.431l-0.126,0.313c-1.833,0.557-2.895,1.452-3.535,3.036
		c-0.963,2.387,0.021,5.924,4.751,7.833c4.596,1.855,7.501-0.137,8.538-2.703c0.576-1.428,0.573-3.349-0.043-4.713L30.061,56.866
		L30.061,56.866z"/>
	<path fill-rule="evenodd" clip-rule="evenodd" d="M25.658,50.732c-2.236-1.504-3.8-2.5-5.636-3.561
		c0.335-0.413,0.758-0.911,1.201-1.57c0.444-0.658,0.747-1.237,1.002-1.704c1.675,1.303,3.186,2.377,5.421,3.882l2.714,1.827
		c1.478,0.994,3.008,1.996,4.059,2.674c1.007-1.497,1.962-3.086,2.817-4.745c0.252,0.228,0.425,0.402,0.844,0.685
		s0.646,0.377,0.912,0.498c-0.503,0.706-1.214,1.589-2.45,3.425c-2.19,3.253-2.493,3.833-2.749,4.298
		c-1.676-1.302-3.186-2.376-5.421-3.881L25.658,50.732L25.658,50.732z"/>
	<path fill-rule="evenodd" clip-rule="evenodd" d="M35.588,43.155c-1.787-1.885-2.646-2.862-3.838-4.119
		c-1.754-1.851-2.898-2.988-3.479-3.531c0.521-0.395,1.042-0.823,1.514-1.27s0.927-0.945,1.349-1.445
		c1.924,2.485,3.628,4.318,5.548,6.343c4.038,4.261,5.923,3.8,8.193,1.649c2.793-2.648,0.123-5.851-2.956-9.099
		c-1.522-1.606-3.081-3.146-4.691-4.669c0.347-0.229,0.677-0.476,0.973-0.757c0.297-0.281,0.543-0.582,0.79-0.915
		c0.872,1.13,3.117,3.743,5.98,6.763c3.84,4.051,3.665,7.399,0.277,10.609C42.264,45.546,38.7,46.438,35.588,43.155L35.588,43.155z"
		/>
	<path fill-rule="evenodd" clip-rule="evenodd" d="M47.143,27.849c-1.351-2.331-2.321-3.91-3.507-5.669
		c0.482-0.224,1.08-0.487,1.768-0.885c1.187-0.688,2.5-1.588,3.687-2.275c2.498-1.448,4.76-1.479,6.074,0.79
		c1.315,2.269-0.233,4.445-1.403,5.401l0.024,0.041c1.306-0.673,4.313-1.192,5.773,1.327c1.725,2.977,0.039,5.538-2.438,6.973
		c-1.103,0.64-2.08,1.066-3.12,1.669c-0.75,0.434-1.609,1.015-2.042,1.322c-0.937-1.904-1.824-3.532-3.175-5.863L47.143,27.849
		L47.143,27.849z M48.673,20.845c-0.604,0.35-0.737,0.455-0.984,0.653c0.549,1.044,1.183,2.234,1.593,2.942
		c0.434,0.75,0.841,1.403,1.251,2.111l0.937-0.542c1.187-0.688,1.866-2.25,0.841-4.019C51.54,20.658,50.318,19.893,48.673,20.845
		L48.673,20.845z M52.116,27.219c-0.374,0.217-0.633,0.395-0.883,0.54c0.337,0.583,0.655,1.178,1.149,2.031
		c0.76,1.312,1.73,2.89,2.152,3.619c0.387-0.196,0.711-0.356,1.169-0.622c1.228-0.711,1.699-2.347,0.65-4.158
		C55.232,26.694,53.782,26.255,52.116,27.219L52.116,27.219z"/>
	<path fill-rule="evenodd" clip-rule="evenodd" d="M83.23,25.16c-0.765,0.103-1.44,0.163-2.101,0.293
		c-0.661,0.131-1.331,0.337-1.982,0.515c-0.813-1.507-1.678-3.028-2.586-4.516c-1.02,0.178-2.016,0.35-3.03,0.551
		c-0.826,0.164-1.624,0.346-2.445,0.533c-0.32,1.731-0.521,3.438-0.647,5.156c-0.387,0.027-0.755,0.027-1.132,0.102
		c-0.378,0.074-0.718,0.215-1.157,0.351c0.638-2.849,2.516-11.952,3.48-17.733c0.316-0.014,0.613,0.001,0.92-0.06
		c0.306-0.061,0.575-0.188,0.873-0.296C76.494,15.04,80.676,21.668,83.23,25.16L83.23,25.16z M75.743,20.167
		c-1.063-1.776-2.092-3.51-3.212-5.202c-0.438,2-0.801,4.01-1.106,6.057L75.743,20.167L75.743,20.167z"/>
	<path fill-rule="evenodd" clip-rule="evenodd" d="M86.412,12.779c0.003-0.914,0.005-1.78-0.065-2.117
		c-0.938-0.003-2.96,0.134-4.403,0.298c0.073-0.36,0.122-0.697,0.124-1.058c0.001-0.361-0.046-0.698-0.117-1.059
		c2.188,0.079,3.271,0.13,6.253,0.14c2.984,0.009,4.066-0.035,6.112-0.101c-0.074,0.36-0.123,0.697-0.123,1.058
		c-0.002,0.361,0.045,0.698,0.115,1.06c-1.298-0.173-3.318-0.324-4.279-0.327c-0.051,0.336-0.053,1.203-0.055,2.117l-0.021,6.014
		c-0.01,2.695,0.034,4.547,0.171,6.665c-0.528-0.05-1.179-0.124-1.972-0.127c-0.795-0.002-1.445,0.067-1.974,0.114
		c0.151-2.116,0.205-3.969,0.213-6.664L86.412,12.779L86.412,12.779z"/>
	<path fill-rule="evenodd" clip-rule="evenodd" d="M97.889,16.111c0.514-2.645,0.817-4.473,1.079-6.579
		c0.509,0.148,1.134,0.342,1.913,0.493c0.779,0.15,1.431,0.203,1.96,0.257c-0.545,2.051-0.944,3.861-1.455,6.506L100.763,20
		c-0.338,1.748-0.661,3.548-0.875,4.781c1.771,0.343,3.608,0.6,5.469,0.74c-0.111,0.322-0.206,0.549-0.302,1.044
		c-0.096,0.497-0.094,0.742-0.102,1.034c-0.846-0.188-1.938-0.498-4.111-0.918c-3.85-0.745-4.502-0.797-5.03-0.851
		c0.544-2.052,0.944-3.861,1.457-6.507L97.889,16.111L97.889,16.111z"/>
	<path fill-rule="evenodd" clip-rule="evenodd" d="M110.31,18.954c0.978-2.511,1.605-4.255,2.238-6.28
		c1.313,0.538,2.625,1.151,3.947,1.666c2.196,0.856,4.098,1.544,4.73,1.713c-0.151,0.251-0.3,0.503-0.459,0.907
		c-0.182,0.471-0.215,0.69-0.301,1.044c-1.66-0.776-4.29-1.98-4.964-2.242c-0.747,1.592-1.378,3.207-2.015,4.843
		c1.968,0.715,3.421,1.229,5.159,1.803c-0.291,0.48-0.392,0.674-0.505,0.965c-0.096,0.247-0.129,0.466-0.246,0.963
		c-1.651-0.798-3.308-1.52-5.011-2.184c-0.366,0.941-0.764,1.897-1.14,2.861c-0.366,0.941-0.721,1.914-1.024,2.828
		c1.683,0.655,3.442,1.238,5.248,1.708c-0.167,0.297-0.3,0.503-0.484,0.974c-0.182,0.471-0.225,0.713-0.283,0.999
		c-0.799-0.336-1.819-0.837-3.881-1.64c-3.653-1.423-4.286-1.592-4.797-1.739c0.902-1.92,1.621-3.629,2.598-6.14L110.31,18.954
		L110.31,18.954z"/>
	<path fill-rule="evenodd" clip-rule="evenodd" d="M126.331,23.348c0.488-0.774,0.948-1.507,1.065-1.831
		c-0.793-0.499-2.581-1.452-3.895-2.078c0.255-0.267,0.475-0.527,0.666-0.833s0.331-0.616,0.462-0.96
		c1.815,1.226,2.706,1.843,5.231,3.43c2.526,1.587,3.47,2.123,5.239,3.149c-0.254,0.268-0.474,0.527-0.665,0.833
		c-0.192,0.306-0.331,0.617-0.462,0.96c-1.011-0.833-2.644-2.031-3.46-2.543c-0.22,0.26-0.68,0.993-1.167,1.767l-3.199,5.093
		c-1.436,2.281-2.379,3.875-3.384,5.745c-0.423-0.323-0.934-0.729-1.606-1.152c-0.672-0.422-1.26-0.707-1.733-0.948
		c1.247-1.716,2.275-3.259,3.709-5.54L126.331,23.348L126.331,23.348z"/>
	<path fill-rule="evenodd" clip-rule="evenodd" d="M134.185,32.263c1.775-2.027,2.96-3.453,4.245-5.14
		c0.367,0.385,0.809,0.867,1.405,1.39c0.598,0.523,1.134,0.897,1.564,1.209c-1.504,1.498-2.761,2.859-4.536,4.887l-2.156,2.461
		c-1.773,2.027-2.958,3.453-4.244,5.141c-0.366-0.385-0.809-0.867-1.406-1.39c-0.597-0.523-1.134-0.897-1.563-1.209
		c1.504-1.498,2.761-2.86,4.535-4.887L134.185,32.263L134.185,32.263z"/>
	<path fill-rule="evenodd" clip-rule="evenodd" d="M143.324,52.83c-0.691,0.213-1.357,0.498-1.929,0.861
		c-1.321-0.577-2.657-1.635-3.889-3.178c-3.479-4.364-2.806-9.115,0.748-11.951c5.192-4.14,9.991-2.212,13.142,1.737
		c1.049,1.317,1.976,3.288,2.138,4.573c-0.816,0.25-1.578,0.644-2.263,1.097l-0.21-0.263c0.415-1.87,0.158-3.235-0.906-4.57
		c-1.605-2.013-5.169-2.894-9.157,0.286c-3.875,3.09-3.569,6.6-1.845,8.763c0.962,1.204,2.636,2.146,4.128,2.28L143.324,52.83
		L143.324,52.83z"/>
	<path fill-rule="evenodd" clip-rule="evenodd" d="M160.482,55.897c2.062,4.666,1.132,9.468-4.17,11.812
		c-4.358,1.925-9.446-0.009-11.616-4.917c-2.05-4.643-1.327-9.435,4.175-11.865C153.207,49.011,158.227,50.791,160.482,55.897
		L160.482,55.897z M159.2,56.385c-1.333-3.015-5.147-3.434-8.932-1.761c-4.687,2.07-5.364,4.947-4.274,7.411
		c1.167,2.641,4.389,3.979,9.185,1.86C158.987,62.213,160.453,59.224,159.2,56.385L159.2,56.385z"/>
	<path fill-rule="evenodd" clip-rule="evenodd" d="M31.345,131.641l-0.136-0.169l-0.768,0.619c-2.096,1.693-3.506,2.896-5.063,4.339
		c-0.295-0.442-0.647-0.993-1.146-1.611c-0.499-0.617-0.963-1.077-1.333-1.459c1.737-1.218,3.208-2.346,5.305-4.039l2.544-2.056
		c2.097-1.693,3.507-2.894,5.063-4.337c0.295,0.442,0.647,0.992,1.146,1.609c0.544,0.674,1.288,1.404,2.316,2.677
		c1.526,1.89,1.917,2.717,1.979,3.751c0.062,1.187-0.383,2.32-1.487,3.211c-1.816,1.469-3.823,1.356-5.787-0.117
		c-1.147,2.905-2.131,6.052-3.143,9.126c-0.416-0.592-0.813-1.198-1.267-1.761c-0.454-0.56-0.979-1.097-1.469-1.627L31.345,131.641
		L31.345,131.641z M37.149,126.766c-1.733,1.337-3.432,2.68-5.135,4.055c0.102,0.166,0.189,0.311,0.295,0.442
		c1.33,1.646,2.973,1.805,4.732,0.384C39.25,129.862,38.797,128.806,37.149,126.766L37.149,126.766z"/>
	<path fill-rule="evenodd" clip-rule="evenodd" d="M40.554,138.38c1.792-2.012,2.988-3.427,4.289-5.104
		c0.363,0.39,0.8,0.875,1.393,1.401c0.593,0.529,1.125,0.907,1.553,1.224c-1.516,1.484-2.784,2.836-4.577,4.849l-2.176,2.443
		c-1.792,2.013-2.989,3.426-4.289,5.104c-0.363-0.388-0.8-0.873-1.394-1.401c-0.592-0.528-1.125-0.906-1.553-1.222
		c1.516-1.486,2.784-2.837,4.577-4.85L40.554,138.38L40.554,138.38z"/>
	<path fill-rule="evenodd" clip-rule="evenodd" d="M60.012,144.146c0.25,0.237,0.532,0.468,0.839,0.656
		c0.308,0.188,0.641,0.337,0.966,0.45c-3.329,2.391-9.819,6.989-14.299,10.704c-0.283-0.229-0.533-0.467-0.84-0.656
		c-0.308-0.188-0.653-0.315-0.965-0.45c0.88-4.286,2.53-13.604,3.122-17.561c0.598,0.452,1.188,0.871,1.783,1.235
		c0.594,0.364,1.235,0.701,1.868,1.005c-0.952,3.622-1.814,8.342-2.664,12.534C53.337,149.506,56.996,146.669,60.012,144.146
		L60.012,144.146z"/>
	<path fill-rule="evenodd" clip-rule="evenodd" d="M60.813,151.705c0.904-2.539,1.479-4.3,2.053-6.344
		c1.329,0.499,2.657,1.075,3.994,1.551c2.221,0.791,4.141,1.423,4.777,1.572c-0.142,0.257-0.285,0.513-0.43,0.92
		c-0.169,0.477-0.196,0.695-0.272,1.052c-1.682-0.727-4.345-1.853-5.025-2.095c-0.702,1.614-1.283,3.246-1.872,4.9
		c1.988,0.655,3.455,1.128,5.209,1.65c-0.276,0.489-0.372,0.686-0.476,0.979c-0.089,0.251-0.116,0.47-0.218,0.972
		c-1.674-0.75-3.35-1.424-5.072-2.036c-0.339,0.951-0.708,1.919-1.056,2.894c-0.339,0.951-0.663,1.935-0.94,2.856
		c1.7,0.605,3.477,1.136,5.295,1.553c-0.158,0.302-0.284,0.513-0.454,0.988c-0.169,0.477-0.205,0.719-0.256,1.007
		c-0.808-0.313-1.841-0.783-3.926-1.525c-3.694-1.315-4.33-1.464-4.845-1.598c0.847-1.946,1.513-3.675,2.417-6.214L60.813,151.705
		L60.813,151.705z"/>
	<path fill-rule="evenodd" clip-rule="evenodd" d="M76.184,158.413l-0.214-0.031l-0.14,0.977c-0.384,2.667-0.6,4.507-0.759,6.623
		c-0.517-0.123-1.149-0.287-1.936-0.398c-0.786-0.114-1.439-0.136-1.97-0.163c0.445-2.075,0.756-3.901,1.139-6.568l0.466-3.238
		c0.383-2.669,0.6-4.51,0.757-6.624c0.518,0.122,1.15,0.286,1.936,0.399c0.857,0.123,1.898,0.151,3.518,0.384
		c2.404,0.347,3.255,0.688,4.003,1.402c0.854,0.828,1.298,1.962,1.096,3.365c-0.332,2.311-1.878,3.595-4.321,3.852
		c1.137,2.911,2.557,5.885,3.908,8.826c-0.708-0.151-1.412-0.325-2.126-0.427c-0.714-0.104-1.462-0.138-2.184-0.192L76.184,158.413
		L76.184,158.413z M77.12,150.891c-0.359,2.159-0.691,4.3-1.003,6.467c0.188,0.051,0.35,0.098,0.518,0.124
		c2.095,0.301,3.406-0.701,3.728-2.941C80.766,151.73,79.715,151.263,77.12,150.891L77.12,150.891z"/>
	<path fill-rule="evenodd" clip-rule="evenodd" d="M94.34,156.929c-0.432-2.659-0.776-4.481-1.258-6.548
		c0.531-0.036,1.185-0.07,1.968-0.197c1.093-0.176,2.309-0.495,3.448-0.68c2.231-0.362,3.454-0.195,4.29,0.304
		c1.131,0.67,1.766,1.566,1.993,2.966c0.587,3.635-1.743,5.5-5.281,6.072l-1.212,0.197c0.386,2.375,0.795,4.746,1.346,7.094
		c-0.53,0.037-1.183,0.07-1.966,0.197c-0.785,0.126-1.414,0.302-1.929,0.433c-0.196-2.112-0.444-3.948-0.877-6.607L94.34,156.929
		L94.34,156.929z M98.052,150.965c-0.38,0.061-0.736,0.119-0.993,0.187c0.339,2.235,0.676,4.472,1.034,6.68
		c1.592-0.258,3.492-1.004,2.997-4.068C100.696,151.341,99.406,150.745,98.052,150.965L98.052,150.965z"/>
	<path fill-rule="evenodd" clip-rule="evenodd" d="M107.946,154.223c-0.924-2.531-1.604-4.256-2.465-6.194
		c0.514-0.138,1.149-0.292,1.896-0.564c0.744-0.271,1.332-0.562,1.812-0.788c0.589,2.038,1.181,3.796,2.103,6.327l1.122,3.072
		c0.608,1.674,1.259,3.383,1.711,4.55c1.693-0.618,3.4-1.343,5.067-2.181c0.07,0.333,0.107,0.575,0.281,1.049
		c0.173,0.474,0.3,0.684,0.444,0.94c-0.822,0.273-1.916,0.569-3.996,1.329c-3.685,1.343-4.27,1.633-4.751,1.86
		c-0.59-2.039-1.179-3.795-2.104-6.326L107.946,154.223L107.946,154.223z"/>
	<path fill-rule="evenodd" clip-rule="evenodd" d="M134.87,151.999c-0.688,0.353-1.303,0.634-1.882,0.979s-1.142,0.764-1.695,1.149
		c-1.271-1.147-2.595-2.293-3.949-3.391c-0.9,0.509-1.782,1.004-2.671,1.532c-0.725,0.431-1.413,0.87-2.126,1.322
		c0.278,1.736,0.66,3.414,1.116,5.074c-0.356,0.154-0.703,0.278-1.034,0.475c-0.331,0.197-0.603,0.443-0.973,0.718
		c-0.351-2.897-1.627-12.104-2.653-17.875c0.292-0.12,0.578-0.204,0.846-0.364c0.271-0.161,0.482-0.37,0.725-0.572
		C125.135,144.715,131.293,149.563,134.87,151.999L134.87,151.999z M126.144,149.8c-1.596-1.319-3.146-2.607-4.768-3.827
		c0.257,2.03,0.587,4.045,0.982,6.077L126.144,149.8L126.144,149.8z"/>
	<path fill-rule="evenodd" clip-rule="evenodd" d="M130.775,138.644c-0.608-0.683-1.185-1.329-1.462-1.532
		c-0.701,0.624-2.112,2.077-3.08,3.161c-0.186-0.317-0.374-0.601-0.613-0.869c-0.24-0.271-0.501-0.489-0.794-0.711
		c1.684-1.401,2.523-2.087,4.751-4.07c2.227-1.985,3.004-2.741,4.482-4.154c0.186,0.317,0.374,0.602,0.614,0.869
		c0.241,0.271,0.499,0.489,0.793,0.711c-1.081,0.738-2.686,1.976-3.404,2.615c0.188,0.282,0.764,0.931,1.372,1.612l4,4.491
		c1.793,2.013,3.063,3.363,4.578,4.848c-0.428,0.317-0.96,0.694-1.553,1.224c-0.594,0.526-1.03,1.014-1.395,1.402
		c-1.3-1.679-2.496-3.092-4.287-5.104L130.775,138.644L130.775,138.644z"/>
	<path fill-rule="evenodd" clip-rule="evenodd" d="M140.563,132.901c-2.147-1.629-3.651-2.71-5.426-3.873
		c0.877-1.117,1.825-2.208,2.683-3.34c1.425-1.878,2.608-3.519,2.944-4.078c0.2,0.211,0.401,0.425,0.746,0.687
		c0.403,0.306,0.605,0.397,0.921,0.578c-1.2,1.384-3.08,3.583-3.517,4.156c1.327,1.157,2.708,2.205,4.107,3.266
		c1.226-1.697,2.119-2.952,3.146-4.468c0.382,0.411,0.54,0.563,0.789,0.75c0.211,0.161,0.413,0.253,0.859,0.501
		c-1.22,1.369-2.367,2.763-3.474,4.22c0.805,0.61,1.616,1.255,2.439,1.882c0.805,0.61,1.643,1.216,2.439,1.76
		c1.091-1.439,2.135-2.972,3.08-4.579c0.238,0.242,0.401,0.426,0.805,0.731s0.623,0.412,0.883,0.549
		c-0.542,0.676-1.304,1.518-2.641,3.281c-2.369,3.125-2.704,3.685-2.985,4.138c-1.601-1.396-3.047-2.554-5.195-4.183
		L140.563,132.901L140.563,132.901z"/>
</g>
</svg>
