<?xml version="1.0" encoding="UTF-8" ?>
<!DOCTYPE svg PUBLIC "-//W3C//DTD SVG 1.1//EN" "http://www.w3.org/Graphics/SVG/1.1/DTD/svg11.dtd">
<svg width="591pt" height="716pt" viewBox="0 0 591 716" version="1.1" xmlns="http://www.w3.org/2000/svg">
<g id="#372c2cff">
<path fill="#372c2c" opacity="1.00" d=" M 275.12 1.10 C 289.39 0.09 303.76 0.45 317.96 2.34 C 336.13 3.87 354.01 7.96 371.24 13.88 C 387.16 19.21 402.89 25.32 417.65 33.37 C 419.82 34.34 419.56 37.04 419.84 38.99 C 421.00 53.94 423.57 69.15 430.53 82.59 C 437.96 96.41 448.89 108.18 461.59 117.32 C 476.49 128.42 493.77 135.77 511.17 141.99 C 515.11 143.31 518.72 146.52 519.07 150.89 C 521.63 173.58 528.78 195.82 540.55 215.42 C 547.78 227.74 556.80 238.92 566.52 249.35 C 572.89 255.44 579.80 260.95 587.02 266.01 C 588.59 267.37 591.15 268.52 590.75 271.01 C 582.33 316.34 567.59 360.28 550.05 402.85 C 531.57 447.90 507.49 490.42 481.17 531.30 C 476.44 538.44 470.76 544.87 465.97 551.97 C 455.95 566.69 444.43 580.29 432.65 593.61 C 405.91 624.48 376.91 653.52 344.78 678.79 C 331.38 688.98 318.66 700.02 305.33 710.29 C 302.93 712.07 300.66 714.06 298.02 715.48 C 296.50 715.76 295.37 714.45 294.17 713.78 C 262.40 690.25 231.93 664.95 202.89 638.12 C 188.92 625.43 175.37 612.24 162.94 598.02 C 150.92 584.34 139.51 570.14 128.01 556.02 C 103.56 525.11 82.70 491.50 64.42 456.62 C 56.80 441.67 49.31 426.62 42.91 411.10 C 33.32 388.70 25.93 365.45 18.48 342.27 C 12.05 320.68 5.65 299.05 1.02 276.99 C 0.57 274.51 -0.04 271.66 1.54 269.44 C 3.45 267.30 6.15 266.13 8.34 264.32 C 18.67 256.04 28.04 246.56 36.26 236.17 C 53.92 215.05 66.30 189.41 70.62 162.14 C 71.73 156.34 71.79 149.69 76.10 145.14 C 80.77 140.55 87.64 139.91 93.45 137.49 C 111.51 131.16 128.10 121.01 142.42 108.36 C 157.44 94.02 168.09 74.79 170.79 54.08 C 171.67 47.63 170.95 41.07 171.94 34.63 C 174.24 29.65 179.72 27.45 184.45 25.41 C 213.50 13.70 243.79 4.00 275.12 1.10 M 260.08 8.70 C 235.45 12.34 211.63 20.13 188.73 29.73 C 185.39 31.21 181.83 32.40 178.98 34.78 C 183.75 40.71 189.53 45.73 194.66 51.35 C 196.84 53.34 198.64 56.66 202.05 56.34 C 205.84 55.43 209.13 53.15 212.73 51.71 C 236.53 41.29 261.92 33.86 287.95 32.34 C 300.36 31.62 312.84 32.66 325.02 35.09 C 345.94 39.13 366.29 46.11 385.28 55.77 C 387.21 56.67 389.58 58.01 391.64 56.71 C 394.66 54.40 396.89 51.24 399.65 48.64 C 403.33 44.78 407.40 41.25 410.64 36.98 C 405.74 33.42 400.11 31.12 394.59 28.73 C 384.46 24.44 374.07 20.82 363.61 17.45 C 330.37 6.68 294.65 3.48 260.08 8.70 M 219.10 55.11 C 214.40 57.24 209.38 58.83 205.27 62.04 C 208.82 66.51 212.94 70.48 216.86 74.62 C 214.88 75.28 214.17 77.23 213.79 79.10 C 209.37 75.23 205.51 70.79 201.27 66.73 C 195.07 87.54 184.63 107.58 168.61 122.52 C 153.19 137.30 134.01 147.27 114.54 155.60 C 119.46 157.53 124.24 159.81 129.23 161.52 C 128.81 163.31 128.29 165.10 128.22 166.96 C 121.80 164.67 115.50 161.99 109.03 159.86 C 107.44 159.76 107.74 161.99 107.18 162.96 C 102.48 182.23 96.27 201.28 86.71 218.72 C 79.24 231.77 70.40 244.11 59.77 254.78 C 53.65 261.00 46.86 266.51 40.00 271.88 C 46.76 272.69 53.52 273.54 60.29 274.30 C 58.40 275.32 58.94 277.54 59.23 279.27 C 48.38 278.54 37.57 277.37 26.74 276.40 C 20.77 275.90 14.82 275.34 8.84 274.98 C 8.80 275.73 8.76 276.48 8.72 277.24 L 8.91 277.44 C 9.71 283.34 11.37 289.07 12.67 294.87 C 18.05 317.54 24.54 339.96 32.29 361.93 C 38.88 380.59 45.38 399.33 53.69 417.31 C 59.03 428.64 64.12 440.10 69.69 451.32 C 78.46 467.11 87.25 482.90 96.52 498.40 C 104.52 510.75 113.33 522.56 121.19 535.00 C 146.60 569.42 174.51 602.05 205.36 631.72 C 232.59 658.44 261.89 683.12 293.60 704.36 C 293.65 688.13 293.64 671.90 293.71 655.67 C 295.91 656.26 297.49 654.14 299.16 653.12 C 299.24 663.47 299.43 673.81 299.53 684.16 C 299.54 691.21 300.31 698.25 300.02 705.30 C 321.23 688.84 342.43 672.31 362.40 654.35 C 389.14 630.10 414.35 604.11 437.07 576.04 C 449.54 561.94 460.67 546.70 471.06 531.01 C 482.88 514.74 492.78 497.22 503.10 479.99 C 528.73 438.49 547.36 393.12 563.26 347.13 C 571.40 323.58 577.76 299.43 582.77 275.03 C 582.84 274.27 582.96 272.75 583.03 271.99 L 582.09 272.67 C 574.37 273.22 566.71 274.40 559.03 275.26 C 550.58 276.32 542.13 277.37 533.67 278.30 C 534.27 275.87 531.54 274.53 530.12 273.11 C 536.64 272.17 543.18 271.45 549.70 270.47 C 545.34 266.07 540.04 262.73 535.68 258.32 C 521.99 245.52 511.02 229.96 502.83 213.14 C 494.60 196.49 489.27 178.59 484.97 160.57 C 478.40 162.68 472.02 165.37 465.59 167.88 C 465.30 166.15 465.76 163.77 463.91 162.81 C 468.62 160.65 473.51 158.90 478.17 156.63 C 477.04 155.85 475.90 155.08 474.64 154.54 C 459.00 148.11 443.96 139.93 430.82 129.22 C 412.07 114.08 397.58 93.35 391.04 70.07 C 390.70 68.97 390.06 68.08 389.11 67.40 C 385.54 70.82 382.04 74.31 378.70 77.96 C 377.58 76.46 375.93 75.49 374.34 74.57 C 377.80 70.52 382.10 67.21 385.02 62.71 C 361.86 50.93 336.84 42.40 311.00 39.11 C 279.61 35.68 247.91 42.87 219.10 55.11 M 177.00 41.67 C 176.21 57.76 173.53 74.25 165.22 88.31 C 159.24 97.69 152.20 106.44 144.07 114.05 C 127.90 128.18 108.20 137.57 88.08 144.66 C 88.07 144.83 88.05 145.18 88.05 145.36 C 93.09 147.51 98.26 149.37 103.30 151.56 C 105.96 152.86 108.82 151.31 111.38 150.48 C 135.48 141.08 158.89 127.57 175.16 107.03 C 184.33 95.50 190.67 81.93 195.10 67.94 C 195.79 65.40 197.08 62.19 194.98 59.97 C 189.03 53.83 182.97 47.79 177.00 41.67 M 398.13 58.08 C 396.55 59.68 394.26 61.55 395.21 64.10 C 399.27 80.23 407.09 95.39 417.93 108.01 C 435.27 128.92 459.37 143.20 484.76 152.18 C 486.19 152.66 487.76 152.91 489.20 152.28 C 494.66 150.41 500.02 148.20 505.22 145.67 C 499.50 142.98 493.50 140.93 487.74 138.30 C 471.93 131.51 456.81 122.60 444.42 110.53 C 433.40 99.87 424.98 86.52 420.22 71.93 C 416.91 62.17 415.44 51.91 414.56 41.68 C 408.80 46.85 403.73 52.74 398.13 58.08 M 80.99 149.24 C 80.01 150.60 78.99 152.02 78.80 153.76 C 74.88 178.98 66.58 203.87 52.25 225.15 C 45.34 235.27 37.38 244.70 28.46 253.11 C 22.92 258.67 16.76 263.55 10.80 268.65 C 16.86 269.39 22.94 270.10 29.01 270.81 C 30.59 271.05 32.09 270.33 33.60 269.98 L 33.53 269.77 C 52.66 256.34 68.83 238.50 79.88 217.87 C 89.75 200.88 96.05 182.04 100.66 163.01 C 101.03 161.33 101.39 159.65 101.46 157.93 C 100.68 156.74 99.17 156.44 97.96 155.87 C 92.26 153.78 86.70 151.32 80.99 149.24 M 491.19 158.16 C 491.89 165.25 494.37 172.06 496.24 178.92 C 501.65 196.47 508.72 213.68 518.97 228.99 C 528.91 244.03 541.62 257.16 556.01 267.98 C 558.29 269.80 561.29 269.41 564.00 269.21 C 568.92 268.44 573.87 267.84 578.76 266.90 C 575.12 263.29 571.04 260.16 567.17 256.82 C 550.83 242.07 536.89 224.41 527.67 204.34 C 520.27 188.36 516.04 171.15 512.77 153.91 C 512.45 152.58 512.07 149.78 510.02 150.79 C 503.68 153.04 497.30 155.35 491.19 158.16 Z" />
<path fill="#372c2c" opacity="1.00" d=" M 283.26 138.09 C 286.92 137.38 290.66 137.62 294.37 137.62 C 295.09 137.62 296.54 137.62 297.27 137.62 C 301.02 137.62 304.78 137.62 308.54 137.62 C 309.26 137.62 310.70 137.62 311.42 137.62 C 315.34 137.62 319.26 137.62 323.19 137.63 C 323.92 137.63 325.39 137.62 326.12 137.62 C 329.79 137.63 333.46 137.54 337.13 137.68 C 337.87 137.80 339.34 138.04 340.08 138.16 C 343.31 139.88 345.58 143.19 345.26 146.96 C 345.31 167.64 345.25 188.33 345.27 209.02 C 347.20 209.04 349.14 209.05 351.08 209.10 C 351.80 209.12 353.24 209.17 353.97 209.19 C 353.96 210.43 353.96 211.67 353.97 212.92 C 353.25 212.94 351.80 212.99 351.08 213.01 C 347.40 213.10 343.73 213.08 340.06 213.10 C 339.33 213.09 337.87 213.08 337.14 213.08 C 335.14 213.04 333.16 212.94 331.18 212.81 C 331.29 211.66 331.45 210.51 331.65 209.37 C 333.45 209.00 335.30 209.00 337.13 208.95 C 337.87 208.95 339.34 208.96 340.08 208.96 C 340.11 203.09 340.15 197.23 339.99 191.37 C 339.28 191.37 337.85 191.37 337.14 191.37 C 333.46 191.36 329.79 191.37 326.11 191.37 C 325.38 191.37 323.93 191.37 323.20 191.37 C 319.29 191.36 315.39 191.38 311.49 191.37 C 310.50 191.37 309.51 191.37 308.52 191.37 C 304.76 191.37 301.01 191.37 297.27 191.37 C 296.55 191.37 295.11 191.37 294.39 191.37 C 293.66 191.37 292.21 191.36 291.49 191.36 C 291.49 208.23 291.49 225.10 291.49 241.97 C 292.21 241.96 293.66 241.92 294.39 241.90 C 295.19 241.88 296.78 241.84 297.58 241.82 C 297.72 243.23 297.72 244.65 297.59 246.07 C 296.79 246.05 295.18 246.00 294.38 245.98 C 290.64 245.88 286.89 245.91 283.15 245.91 C 282.42 245.91 280.96 245.92 280.23 245.92 C 276.71 245.93 273.19 245.93 269.66 245.90 L 269.13 245.90 C 269.13 244.59 269.12 243.28 269.12 241.97 L 269.68 241.97 C 272.38 241.95 275.09 241.94 277.80 241.93 C 277.80 212.31 277.80 182.68 277.81 153.06 C 277.77 149.61 278.81 146.29 280.12 143.14 C 281.06 141.39 282.12 139.71 283.26 138.09 M 282.20 152.96 C 282.19 182.61 282.21 212.25 282.19 241.90 C 283.81 241.90 285.43 241.90 287.06 241.90 C 287.05 210.61 287.07 179.32 287.06 148.03 C 287.04 146.21 286.90 144.40 286.75 142.60 C 282.91 144.47 282.27 149.15 282.20 152.96 M 291.50 143.14 C 291.64 153.14 291.29 163.16 291.66 173.16 C 292.34 173.25 293.69 173.42 294.37 173.51 C 295.09 173.47 296.53 173.40 297.26 173.36 C 301.20 173.34 305.16 173.63 309.09 173.14 C 309.01 172.36 308.87 170.80 308.80 170.02 C 308.67 168.18 308.64 166.33 308.60 164.49 L 309.56 164.51 C 309.71 162.64 309.23 161.03 308.13 159.67 L 309.40 159.50 C 309.26 154.14 309.29 148.77 309.38 143.40 C 305.35 143.07 301.31 143.14 297.27 143.18 C 296.55 143.18 295.11 143.17 294.39 143.17 C 293.67 143.16 292.23 143.15 291.50 143.14 M 310.64 143.38 C 310.66 153.14 310.82 162.90 310.55 172.66 C 314.59 174.06 318.95 173.15 323.14 173.39 C 323.88 173.39 325.36 173.38 326.10 173.38 C 329.78 173.40 333.46 173.39 337.14 173.39 C 337.87 173.39 339.35 173.39 340.09 173.39 C 340.07 164.35 340.14 155.30 340.05 146.25 C 339.08 145.42 338.12 144.58 337.18 143.71 C 333.56 142.76 329.80 143.25 326.11 143.18 C 325.39 143.18 323.93 143.17 323.20 143.17 C 319.01 143.16 314.82 143.06 310.64 143.38 M 291.53 177.90 C 291.50 180.91 291.50 183.92 291.51 186.93 C 307.70 186.91 323.89 186.92 340.08 186.92 C 340.07 183.90 340.07 180.88 340.08 177.87 C 323.90 177.88 307.71 177.82 291.53 177.90 Z" />
<path fill="#372c2c" opacity="1.00" d=" M 458.96 169.52 C 458.84 172.98 458.94 176.45 459.12 179.91 C 345.44 265.98 231.61 351.87 117.92 437.93 C 116.61 435.58 115.29 433.24 113.95 430.92 C 114.96 430.10 115.97 429.28 117.01 428.49 C 120.62 425.77 124.24 423.06 127.83 420.32 C 128.79 419.58 129.75 418.86 130.71 418.14 C 134.41 415.35 138.10 412.55 141.79 409.75 C 142.74 409.02 143.69 408.31 144.64 407.60 C 148.34 404.81 152.04 402.02 155.68 399.15 C 156.76 398.43 157.95 397.89 159.15 397.41 L 158.88 396.76 C 162.41 394.20 165.86 391.52 169.34 388.90 C 170.31 388.16 171.29 387.42 172.26 386.69 C 175.83 383.98 179.41 381.28 182.97 378.57 C 183.94 377.83 184.91 377.10 185.88 376.37 C 189.35 373.75 192.81 371.13 196.26 368.51 C 197.22 367.77 198.18 367.04 199.14 366.32 C 202.89 363.50 206.63 360.66 210.37 357.83 C 211.34 357.09 212.31 356.35 213.29 355.62 C 216.87 352.91 220.45 350.20 224.03 347.49 C 224.98 346.76 225.94 346.04 226.89 345.32 C 230.62 342.50 234.34 339.68 238.07 336.86 C 239.05 336.11 240.04 335.36 241.02 334.62 C 244.91 331.68 248.80 328.74 252.67 325.79 C 253.62 325.06 254.58 324.34 255.53 323.62 C 259.28 320.80 263.02 317.96 266.76 315.12 C 267.73 314.38 268.70 313.65 269.67 312.92 C 273.20 310.27 276.71 307.59 280.23 304.93 C 281.20 304.18 282.18 303.45 283.16 302.71 C 286.91 299.87 290.67 297.04 294.41 294.19 C 295.35 293.46 296.30 292.74 297.25 292.03 C 301.03 289.19 304.80 286.33 308.56 283.47 C 309.51 282.74 310.46 282.02 311.42 281.31 C 315.36 278.33 319.29 275.36 323.22 272.37 C 324.18 271.64 325.14 270.91 326.10 270.19 C 329.78 267.41 333.46 264.63 337.14 261.85 C 338.11 261.10 339.09 260.36 340.07 259.62 C 343.74 256.84 347.42 254.06 351.09 251.28 C 352.06 250.53 353.04 249.79 354.02 249.05 C 357.71 246.27 361.39 243.48 365.07 240.68 C 366.02 239.94 366.98 239.22 367.95 238.50 C 371.75 235.64 375.53 232.76 379.33 229.90 C 380.29 229.17 381.24 228.44 382.21 227.71 C 385.97 224.86 389.75 222.02 393.50 219.15 C 394.45 218.43 395.39 217.71 396.34 217.00 C 400.19 214.10 404.03 211.20 407.86 208.28 C 408.82 207.55 409.79 206.82 410.76 206.09 C 414.45 203.30 418.14 200.51 421.82 197.71 C 422.77 196.98 423.75 196.26 424.71 195.53 C 428.49 192.66 432.27 189.79 436.05 186.93 C 437.03 186.18 438.01 185.44 439.00 184.70 C 442.63 181.97 446.24 179.22 449.86 176.48 C 450.81 175.76 451.78 175.03 452.74 174.31 C 454.83 172.74 456.90 171.14 458.96 169.52 Z" />
<path fill="#372c2c" opacity="1.00" d=" M 373.36 206.17 C 373.52 203.06 376.42 201.15 379.30 200.87 C 380.32 201.18 381.32 201.58 382.28 202.07 C 384.96 204.55 384.91 208.69 382.27 211.17 C 381.29 211.58 380.31 211.96 379.32 212.31 C 376.13 212.10 373.00 209.59 373.36 206.17 Z" />
<path fill="#372c2c" opacity="1.00" d=" M 144.64 238.02 C 147.98 235.94 151.86 235.09 155.70 234.53 C 156.41 234.44 157.84 234.25 158.55 234.16 C 162.17 233.83 165.83 234.08 169.38 234.92 C 170.37 235.14 171.33 235.48 172.26 235.88 C 177.68 238.04 181.52 242.91 182.85 248.53 C 184.29 253.96 184.71 259.57 185.25 265.14 L 185.85 265.68 C 188.21 265.81 190.58 265.81 192.95 265.86 C 192.94 266.62 192.92 268.15 192.91 268.92 C 190.56 268.95 188.22 268.96 185.88 268.99 C 185.14 269.00 183.68 269.01 182.94 269.02 C 179.31 269.04 175.67 269.10 172.04 269.07 C 172.03 268.22 172.01 266.53 172.01 265.69 C 174.96 265.76 177.92 265.77 180.88 265.71 C 180.49 256.96 179.46 246.84 172.27 240.82 C 171.32 240.35 170.35 239.90 169.37 239.49 C 165.87 238.43 162.17 238.20 158.54 238.58 C 157.82 238.69 156.39 238.92 155.67 239.04 C 154.42 239.27 153.18 239.55 151.94 239.83 C 151.94 271.97 151.97 304.11 151.92 336.25 C 153.17 336.59 154.43 336.92 155.70 337.23 C 156.65 337.41 157.61 337.58 158.57 337.71 C 162.17 337.89 165.83 337.78 169.34 336.88 C 170.33 336.49 171.31 336.07 172.28 335.61 C 175.97 333.63 177.87 329.75 178.98 325.89 C 180.60 321.12 180.72 316.02 180.54 311.04 C 177.68 311.04 174.83 311.07 171.98 311.13 C 171.92 309.86 171.92 308.59 171.98 307.33 C 175.63 307.38 179.29 307.41 182.95 307.38 C 183.68 307.37 185.14 307.35 185.87 307.34 C 188.03 307.35 190.23 307.26 192.37 307.67 C 192.75 308.62 192.86 309.61 192.69 310.63 C 190.39 311.18 188.01 311.09 185.67 311.15 C 185.45 317.40 184.92 323.67 182.98 329.65 C 181.16 334.66 177.22 338.75 172.23 340.65 C 171.28 340.91 170.32 341.15 169.37 341.36 C 165.80 342.02 162.17 342.25 158.56 342.15 C 157.84 342.09 156.40 341.97 155.69 341.91 C 151.80 341.25 148.01 339.93 144.66 337.83 C 143.66 337.09 142.71 336.29 141.77 335.50 C 135.98 330.45 132.77 323.20 130.84 315.91 C 129.96 310.05 128.89 304.22 127.92 298.37 C 127.83 293.02 127.84 287.67 127.92 282.33 C 128.59 274.47 129.48 266.62 131.01 258.88 C 133.43 252.10 136.69 245.40 141.75 240.19 C 142.65 239.38 143.61 238.64 144.64 238.02 M 132.08 283.03 C 131.80 294.20 132.83 305.45 135.73 316.26 C 137.68 322.66 140.86 328.96 146.11 333.28 C 146.16 302.97 146.16 272.67 146.12 242.36 C 135.12 252.74 132.38 268.57 132.08 283.03 Z" />
<path fill="#372c2c" opacity="1.00" d=" M 175.33 528.09 C 289.87 443.10 404.26 357.91 518.84 272.97 C 521.09 274.63 523.28 276.39 525.39 278.23 C 523.39 279.61 521.42 281.01 519.46 282.43 C 518.48 283.13 517.52 283.83 516.56 284.54 C 512.41 287.58 508.29 290.66 504.15 293.72 C 503.17 294.43 502.21 295.15 501.25 295.87 C 497.26 298.75 493.38 301.76 489.45 304.71 C 488.49 305.39 487.54 306.07 486.60 306.75 C 482.72 309.54 478.91 312.43 475.08 315.28 C 474.10 315.99 473.16 316.70 472.20 317.41 C 468.43 320.16 464.70 322.96 460.97 325.75 C 460.01 326.45 459.06 327.15 458.11 327.86 C 454.36 330.60 450.65 333.39 446.92 336.15 C 445.93 336.87 444.95 337.60 443.97 338.33 C 440.24 341.08 436.52 343.85 432.80 346.62 C 431.83 347.33 430.87 348.04 429.91 348.76 C 426.22 351.47 422.54 354.20 418.87 356.93 C 417.89 357.65 416.92 358.37 415.96 359.09 C 412.31 361.79 408.67 364.49 405.04 367.20 C 404.06 367.91 403.11 368.63 402.15 369.34 C 398.72 371.90 395.24 374.39 391.84 376.98 C 390.71 377.83 389.58 378.67 388.44 379.51 C 384.83 382.16 381.23 384.84 377.64 387.51 C 376.68 388.22 375.72 388.93 374.76 389.65 C 371.13 392.32 367.50 395.01 363.89 397.70 C 362.92 398.41 361.95 399.13 360.99 399.86 C 357.35 402.54 353.72 405.23 350.10 407.92 C 349.12 408.64 348.15 409.37 347.18 410.09 C 343.72 412.65 340.26 415.21 336.81 417.77 C 335.84 418.48 334.88 419.20 333.92 419.92 C 330.41 422.52 326.90 425.12 323.39 427.72 C 322.44 428.42 321.48 429.13 320.54 429.84 C 316.98 432.47 313.43 435.10 309.89 437.74 C 308.92 438.45 307.95 439.17 306.98 439.89 C 303.35 442.58 299.72 445.26 296.10 447.96 C 295.12 448.68 294.15 449.40 293.19 450.12 C 289.73 452.67 286.28 455.24 282.83 457.80 C 281.86 458.51 280.89 459.23 279.93 459.95 C 276.57 462.57 272.91 464.81 269.76 467.69 C 267.90 469.31 268.82 471.92 269.09 474.01 C 268.12 483.51 269.01 493.11 268.61 502.66 C 272.37 503.08 276.15 503.37 279.90 503.91 C 280.88 504.06 281.85 504.23 282.83 504.43 C 286.41 505.21 289.94 506.29 293.21 507.96 C 294.19 508.48 295.15 509.04 296.10 509.63 C 300.27 512.37 304.01 515.79 306.94 519.85 C 308.00 521.44 308.95 523.10 309.85 524.80 C 314.01 534.27 314.40 545.34 309.94 554.79 C 309.02 556.25 308.04 557.68 306.97 559.04 C 304.78 561.35 301.50 562.53 299.63 565.09 C 302.84 569.09 305.93 573.31 306.96 578.47 C 307.07 579.61 307.19 580.77 307.32 581.93 C 307.97 581.99 309.26 582.12 309.91 582.18 C 311.32 582.31 312.73 582.51 314.15 582.72 C 314.09 584.75 314.16 586.80 313.80 588.81 C 312.83 589.86 311.17 589.31 309.92 589.55 C 309.19 589.54 307.74 589.53 307.01 589.52 C 303.38 589.45 299.75 589.55 296.12 589.44 C 295.10 589.39 294.09 589.31 293.08 589.22 C 293.00 586.95 293.02 584.68 293.11 582.42 C 294.10 582.36 295.10 582.32 296.10 582.29 C 298.53 582.21 300.95 582.22 303.38 582.21 C 302.14 577.66 300.07 573.12 296.14 570.27 C 295.20 569.60 294.21 568.98 293.22 568.40 C 290.01 566.74 286.36 566.59 282.83 566.70 C 282.11 566.70 280.65 566.72 279.92 566.73 C 276.41 566.75 272.90 566.75 269.40 566.71 C 268.69 566.71 267.28 566.69 266.57 566.68 C 264.76 566.71 262.92 566.67 261.18 567.19 C 260.30 572.15 260.89 577.22 260.81 582.24 C 262.77 582.42 264.73 582.57 266.71 582.69 C 267.16 584.93 267.13 587.21 266.68 589.45 C 263.10 589.41 259.51 589.41 255.92 589.39 C 255.17 589.39 253.68 589.39 252.94 589.39 C 249.40 589.37 245.87 589.43 242.34 589.32 C 241.70 589.29 240.42 589.24 239.78 589.21 C 239.72 587.05 239.67 584.89 239.62 582.75 C 240.30 582.69 241.64 582.57 242.32 582.51 C 243.34 582.02 245.91 582.69 245.61 580.92 C 245.79 559.28 245.59 537.63 245.70 515.99 C 245.71 513.69 245.58 511.39 245.32 509.12 C 244.57 509.07 243.08 508.99 242.33 508.94 C 241.78 508.91 240.69 508.85 240.14 508.82 C 240.41 506.85 239.07 502.82 242.33 503.11 C 245.89 502.97 249.45 503.06 253.02 503.05 C 253.74 503.06 255.19 503.06 255.91 503.07 C 259.74 503.10 263.57 503.07 267.38 502.73 C 267.08 494.17 267.81 485.59 266.82 477.07 C 266.62 474.61 267.16 472.19 267.44 469.76 C 263.27 471.95 259.68 475.00 255.90 477.77 C 254.93 478.48 253.97 479.20 253.00 479.92 C 249.43 482.55 245.86 485.19 242.30 487.85 C 241.33 488.56 240.36 489.30 239.39 490.02 C 235.96 492.53 232.54 495.07 229.13 497.61 C 228.16 498.32 227.20 499.04 226.23 499.75 C 222.55 502.48 218.88 505.21 215.20 507.94 C 214.23 508.65 213.26 509.37 212.29 510.10 C 208.77 512.69 205.25 515.31 201.74 517.93 C 200.77 518.64 199.80 519.35 198.84 520.08 C 195.20 522.77 191.56 525.45 187.94 528.17 C 186.96 528.88 185.99 529.62 185.01 530.35 C 183.30 531.61 181.59 532.88 179.88 534.16 C 178.30 532.18 176.80 530.15 175.33 528.09 M 249.99 510.81 C 249.76 534.20 250.00 557.60 249.87 580.99 C 249.91 582.54 249.79 584.17 250.46 585.63 C 252.24 586.00 254.08 585.82 255.90 585.80 C 256.19 584.21 256.47 582.62 256.47 581.01 C 256.45 558.32 256.45 535.64 256.52 512.96 C 256.36 511.63 256.85 509.45 255.00 509.15 C 253.33 509.17 249.82 508.15 249.99 510.81 M 260.76 513.98 C 261.08 528.98 260.33 544.02 261.00 559.00 C 263.35 562.27 267.32 557.98 270.03 560.18 C 273.33 560.39 276.63 560.30 279.92 560.29 C 280.66 560.32 282.12 560.39 282.85 560.43 C 287.40 559.94 290.76 556.68 293.26 553.10 C 294.30 551.49 295.52 549.93 296.15 548.10 C 299.53 540.49 300.58 531.13 296.06 523.75 C 295.25 522.20 294.22 520.80 293.26 519.36 C 290.43 515.76 287.23 512.23 282.85 510.56 C 282.11 510.53 280.62 510.47 279.88 510.44 L 279.88 510.18 C 274.23 509.16 268.50 509.61 262.81 509.13 C 260.11 509.02 260.89 512.24 260.76 513.98 M 295.37 514.80 C 300.25 521.47 303.93 529.45 303.26 537.92 C 303.06 547.23 298.19 555.58 291.95 562.19 C 299.09 561.84 305.02 556.06 307.49 549.63 C 309.51 543.57 308.90 536.93 307.23 530.87 C 305.48 524.24 300.63 518.94 295.37 514.80 Z" />
<path fill="#372c2c" opacity="1.00" d=" M 200.69 328.01 C 199.33 323.02 205.76 319.29 209.67 322.37 C 211.29 324.78 212.35 327.88 210.41 330.47 C 207.46 333.56 201.49 332.47 200.69 328.01 Z" />
<path fill="#372c2c" opacity="1.00" d=" M 352.89 419.89 C 355.58 419.85 358.27 419.83 360.97 419.84 C 361.70 419.84 363.17 419.84 363.90 419.84 C 367.51 419.84 371.13 419.84 374.75 419.84 C 375.48 419.84 376.93 419.84 377.66 419.84 C 381.25 419.84 384.85 419.85 388.45 419.85 C 389.17 419.84 390.61 419.84 391.34 419.84 C 394.94 419.83 398.56 419.72 402.16 420.11 C 402.89 420.25 404.34 420.53 405.06 420.66 C 408.85 421.50 412.55 422.80 415.95 424.67 C 416.94 425.24 417.89 425.86 418.85 426.50 C 422.90 429.21 426.57 432.45 429.85 436.05 C 430.99 437.66 431.98 439.38 432.90 441.14 C 437.27 450.20 436.62 461.10 432.86 470.26 C 431.97 471.63 431.01 472.97 429.87 474.14 C 426.76 477.16 422.95 479.41 418.86 480.81 C 417.90 481.12 416.93 481.35 415.94 481.51 C 412.33 481.98 408.70 481.95 405.08 481.93 C 404.35 481.93 402.89 481.93 402.16 481.92 C 398.55 481.92 394.93 481.92 391.32 481.92 C 390.60 481.92 389.17 481.92 388.45 481.93 C 384.85 481.94 381.24 481.89 377.64 481.90 C 376.93 481.94 375.51 482.01 374.80 482.05 L 374.08 482.22 C 373.88 490.92 374.06 499.62 374.00 508.31 L 374.82 508.36 C 375.53 508.41 376.93 508.51 377.64 508.56 C 378.27 508.62 379.53 508.75 380.16 508.82 C 379.72 511.12 381.21 515.32 377.72 515.47 C 376.98 515.46 375.49 515.45 374.75 515.45 C 371.14 515.37 367.53 515.38 363.92 515.40 C 363.18 515.40 361.70 515.41 360.97 515.42 C 358.04 515.36 355.05 515.70 352.20 514.93 C 351.89 512.90 351.91 510.83 351.86 508.79 C 353.88 508.60 355.90 508.45 357.93 508.33 C 357.90 480.85 357.92 453.37 357.91 425.88 C 356.30 425.82 354.69 425.76 353.08 425.70 C 352.99 423.76 352.92 421.82 352.89 419.89 M 362.69 425.81 C 361.86 428.81 362.15 431.95 362.13 435.03 C 362.17 459.69 362.10 484.36 362.16 509.02 C 361.93 510.72 363.49 511.78 365.06 511.57 C 366.84 511.58 370.27 511.85 369.84 509.15 C 369.93 484.08 369.82 459.02 369.89 433.95 C 369.92 431.23 369.99 428.48 369.38 425.82 C 367.14 425.83 364.92 425.83 362.69 425.81 M 374.00 425.85 C 373.98 441.23 374.03 456.61 373.97 471.99 C 373.92 473.48 374.13 474.96 374.55 476.40 C 375.32 476.32 376.86 476.16 377.63 476.08 C 381.24 476.13 384.85 476.12 388.47 476.12 C 389.18 476.12 390.60 476.12 391.31 476.12 C 394.93 476.16 398.56 476.18 402.17 475.74 C 402.88 475.53 404.30 475.12 405.01 474.91 L 405.01 474.71 C 409.30 472.25 413.08 468.84 415.98 464.83 C 417.12 463.10 418.40 461.36 418.86 459.31 C 420.50 454.28 420.71 448.73 418.85 443.73 C 418.14 441.85 416.99 440.19 415.93 438.51 C 413.63 433.84 409.35 430.51 405.12 427.67 C 404.13 427.25 403.14 426.83 402.16 426.41 C 398.59 425.65 394.94 425.77 391.32 425.83 C 390.60 425.83 389.18 425.83 388.47 425.83 C 384.85 425.82 381.24 425.82 377.63 425.83 C 376.92 425.82 375.52 425.81 374.81 425.80 L 374.00 425.85 M 417.01 431.97 C 421.96 438.58 426.19 446.56 424.88 455.09 C 424.26 463.83 418.90 471.10 413.05 477.19 C 417.46 476.91 422.13 475.62 425.05 472.05 C 431.56 465.62 433.00 455.36 430.41 446.86 C 428.48 440.12 422.95 435.25 417.01 431.97 Z" />
<path fill="#372c2c" opacity="1.00" d=" M 397.64 505.97 C 397.83 503.46 400.10 502.10 402.14 501.16 C 402.88 501.23 404.34 501.39 405.08 501.46 C 406.96 502.71 408.77 504.55 408.60 507.00 C 408.61 509.30 406.81 510.88 405.12 512.14 C 404.37 512.21 402.87 512.34 402.12 512.41 C 399.41 511.52 397.00 509.02 397.64 505.97 Z" />
<path fill="#372c2c" opacity="1.00" d=" M 328.06 585.03 C 328.04 581.82 331.01 579.83 333.91 579.48 C 334.91 579.81 335.90 580.18 336.88 580.58 C 339.77 583.01 339.70 587.38 336.88 589.82 C 335.90 590.28 334.89 590.64 333.86 590.92 C 330.85 590.57 327.83 588.32 328.06 585.03 Z" />
</g>
<g id="#f3efe6ff">
<path fill="#f3efe6" opacity="1.00" d=" M 260.08 8.70 C 294.65 3.48 330.37 6.68 363.61 17.45 C 374.07 20.82 384.46 24.44 394.59 28.73 C 400.11 31.12 405.74 33.42 410.64 36.98 C 407.40 41.25 403.33 44.78 399.65 48.64 C 396.89 51.24 394.66 54.40 391.64 56.71 C 389.58 58.01 387.21 56.67 385.28 55.77 C 366.29 46.11 345.94 39.13 325.02 35.09 C 312.84 32.66 300.36 31.62 287.95 32.34 C 261.92 33.86 236.53 41.29 212.73 51.71 C 209.13 53.15 205.84 55.43 202.05 56.34 C 198.64 56.66 196.84 53.34 194.66 51.35 C 189.53 45.73 183.75 40.71 178.98 34.78 C 181.83 32.40 185.39 31.21 188.73 29.73 C 211.63 20.13 235.45 12.34 260.08 8.70 Z" />
<path fill="#f3efe6" opacity="1.00" d=" M 219.10 55.11 C 247.91 42.87 279.61 35.68 311.00 39.11 C 336.84 42.40 361.86 50.93 385.02 62.71 C 382.10 67.21 377.80 70.52 374.34 74.57 C 344.87 58.52 310.36 54.02 277.24 56.70 C 256.16 58.41 235.44 64.48 216.86 74.62 C 212.94 70.48 208.82 66.51 205.27 62.04 C 209.38 58.83 214.40 57.24 219.10 55.11 Z" />
<path fill="#f3efe6" opacity="1.00" d=" M 177.00 41.67 C 182.97 47.79 189.03 53.83 194.98 59.97 C 197.08 62.19 195.79 65.40 195.10 67.94 C 190.67 81.93 184.33 95.50 175.16 107.03 C 158.89 127.57 135.48 141.08 111.38 150.48 C 108.82 151.31 105.96 152.86 103.30 151.56 C 98.26 149.37 93.09 147.51 88.05 145.36 C 88.05 145.18 88.07 144.83 88.08 144.66 C 108.20 137.57 127.90 128.18 144.07 114.05 C 152.20 106.44 159.24 97.69 165.22 88.31 C 173.53 74.25 176.21 57.76 177.00 41.67 Z" />
<path fill="#f3efe6" opacity="1.00" d=" M 398.13 58.08 C 403.73 52.74 408.80 46.85 414.56 41.68 C 415.44 51.91 416.91 62.17 420.22 71.93 C 424.98 86.52 433.40 99.87 444.42 110.53 C 456.81 122.60 471.93 131.51 487.74 138.30 C 493.50 140.93 499.50 142.98 505.22 145.67 C 500.02 148.20 494.66 150.41 489.20 152.28 C 487.76 152.91 486.19 152.66 484.76 152.18 C 459.37 143.20 435.27 128.92 417.93 108.01 C 407.09 95.39 399.27 80.23 395.21 64.10 C 394.26 61.55 396.55 59.68 398.13 58.08 Z" />
<path fill="#f3efe6" opacity="1.00" d=" M 283.18 62.35 C 286.92 62.09 290.67 62.04 294.41 62.13 C 294.34 87.29 294.43 112.45 294.37 137.62 C 290.66 137.62 286.92 137.38 283.26 138.09 C 283.01 112.84 283.16 87.59 283.18 62.35 Z" />
<path fill="#f3efe6" opacity="1.00" d=" M 297.28 62.26 C 301.00 62.22 304.73 62.26 308.44 62.55 C 308.68 87.57 308.48 112.60 308.54 137.62 C 304.78 137.62 301.02 137.62 297.27 137.62 C 297.26 112.50 297.24 87.38 297.28 62.26 Z" />
<path fill="#f3efe6" opacity="1.00" d=" M 269.68 64.04 C 273.17 63.35 276.70 62.95 280.25 62.67 C 280.15 89.49 280.41 116.33 280.12 143.14 C 278.81 146.29 277.77 149.61 277.81 153.06 C 277.80 182.68 277.80 212.31 277.80 241.93 C 275.09 241.94 272.38 241.95 269.68 241.97 C 269.70 182.66 269.62 123.35 269.68 64.04 Z" />
<path fill="#f3efe6" opacity="1.00" d=" M 311.41 62.97 C 315.39 63.24 319.30 64.00 323.21 64.81 C 323.19 89.08 323.22 113.35 323.19 137.63 C 319.26 137.62 315.34 137.62 311.42 137.62 C 311.41 112.74 311.43 87.85 311.41 62.97 Z" />
<path fill="#f3efe6" opacity="1.00" d=" M 255.51 67.07 C 259.25 66.25 263.00 65.54 266.76 64.83 C 266.75 148.26 266.78 231.69 266.76 315.12 C 263.02 317.96 259.28 320.80 255.53 323.62 C 255.47 238.11 255.50 152.59 255.51 67.07 Z" />
<path fill="#f3efe6" opacity="1.00" d=" M 326.12 137.62 C 326.15 113.50 326.00 89.37 326.20 65.25 C 329.83 66.20 333.49 67.04 337.16 67.80 C 337.11 91.09 337.18 114.38 337.13 137.68 C 333.46 137.54 329.79 137.63 326.12 137.62 Z" />
<path fill="#f3efe6" opacity="1.00" d=" M 201.27 66.73 C 205.51 70.79 209.37 75.23 213.79 79.10 C 210.21 93.89 206.45 109.07 197.79 121.84 C 191.74 130.26 185.36 138.73 176.81 144.80 C 162.99 154.76 146.21 160.53 129.23 161.52 C 124.24 159.81 119.46 157.53 114.54 155.60 C 134.01 147.27 153.19 137.30 168.61 122.52 C 184.63 107.58 195.07 87.54 201.27 66.73 Z" />
<path fill="#f3efe6" opacity="1.00" d=" M 241.05 71.34 C 244.89 70.19 248.71 68.98 252.60 67.97 C 252.70 153.91 252.55 239.85 252.67 325.79 C 248.80 328.74 244.91 331.68 241.02 334.62 C 240.96 246.86 240.91 159.10 241.05 71.34 Z" />
<path fill="#f3efe6" opacity="1.00" d=" M 378.70 77.96 C 382.04 74.31 385.54 70.82 389.11 67.40 C 390.06 68.08 390.70 68.97 391.04 70.07 C 397.58 93.35 412.07 114.08 430.82 129.22 C 443.96 139.93 459.00 148.11 474.64 154.54 C 475.90 155.08 477.04 155.85 478.17 156.63 C 473.51 158.90 468.62 160.65 463.91 162.81 C 459.17 161.95 454.34 161.65 449.66 160.50 C 436.15 157.42 423.36 151.14 412.67 142.33 C 399.23 131.24 390.52 115.56 384.73 99.36 C 381.94 92.46 380.90 85.04 378.70 77.96 Z" />
<path fill="#f3efe6" opacity="1.00" d=" M 340.06 68.50 C 343.73 69.65 347.35 70.94 351.00 72.16 C 351.19 117.80 351.04 163.45 351.08 209.10 C 349.14 209.05 347.20 209.04 345.27 209.02 C 345.25 188.33 345.31 167.64 345.26 146.96 C 345.58 143.19 343.31 139.88 340.08 138.16 C 340.04 114.94 340.08 91.72 340.06 68.50 Z" />
<path fill="#f3efe6" opacity="1.00" d=" M 226.88 76.84 C 230.55 75.20 234.23 73.57 238.05 72.29 C 238.11 160.48 238.08 248.67 238.07 336.86 C 234.34 339.68 230.62 342.50 226.89 345.32 C 226.88 255.83 226.92 166.33 226.88 76.84 Z" />
<path fill="#f3efe6" opacity="1.00" d=" M 354.02 73.42 C 357.79 74.74 361.44 76.37 365.07 78.05 C 365.03 132.26 365.02 186.47 365.07 240.68 C 361.39 243.48 357.71 246.27 354.02 249.05 C 353.93 237.01 354.02 224.96 353.97 212.92 C 353.96 211.67 353.96 210.43 353.97 209.19 C 354.03 163.93 353.93 118.68 354.02 73.42 Z" />
<path fill="#f3efe6" opacity="1.00" d=" M 219.38 82.22 C 219.91 80.12 222.36 79.63 223.93 78.52 C 224.05 168.17 223.87 257.83 224.03 347.49 C 220.45 350.20 216.87 352.91 213.29 355.62 C 213.25 274.08 213.30 192.55 213.27 111.02 C 213.32 107.33 212.87 103.52 214.09 99.97 C 215.90 94.07 217.61 88.14 219.38 82.22 Z" />
<path fill="#f3efe6" opacity="1.00" d=" M 367.97 79.78 C 369.71 81.06 372.37 81.71 373.01 84.03 C 374.66 89.17 375.55 94.54 377.44 99.61 C 378.32 102.02 379.48 104.43 379.35 107.06 C 379.29 138.33 379.39 169.60 379.30 200.87 C 376.42 201.15 373.52 203.06 373.36 206.17 C 373.00 209.59 376.13 212.10 379.32 212.31 C 379.35 218.17 379.34 224.03 379.33 229.90 C 375.53 232.76 371.75 235.64 367.95 238.50 C 367.98 185.59 367.93 132.68 367.97 79.78 Z" />
<path fill="#f3efe6" opacity="1.00" d=" M 202.46 125.44 C 205.56 121.07 208.00 116.28 210.34 111.47 C 210.44 181.88 210.44 252.30 210.34 322.71 L 209.67 322.37 C 205.76 319.29 199.33 323.02 200.69 328.01 C 201.49 332.47 207.46 333.56 210.41 330.47 C 210.36 339.59 210.44 348.71 210.37 357.83 C 206.63 360.66 202.89 363.50 199.14 366.32 C 199.14 289.21 199.16 212.10 199.13 134.99 C 198.93 131.49 200.50 128.24 202.46 125.44 Z" />
<path fill="#f3efe6" opacity="1.00" d=" M 382.27 112.05 C 384.93 119.27 390.14 125.15 393.40 131.99 C 393.63 161.04 393.41 190.10 393.50 219.15 C 389.75 222.02 385.97 224.86 382.21 227.71 C 382.24 222.20 382.17 216.69 382.27 211.17 C 384.91 208.69 384.96 204.55 382.28 202.07 C 382.16 172.06 382.19 142.05 382.27 112.05 Z" />
<path fill="#f3efe6" opacity="1.00" d=" M 187.00 145.03 C 190.09 141.79 193.12 138.49 196.21 135.26 C 196.32 213.01 196.21 290.76 196.26 368.51 C 192.81 371.13 189.35 373.75 185.88 376.37 C 185.71 354.63 186.13 332.88 185.67 311.15 C 188.01 311.09 190.39 311.18 192.69 310.63 C 192.86 309.61 192.75 308.62 192.37 307.67 C 190.23 307.26 188.03 307.35 185.87 307.34 C 185.87 294.56 185.85 281.77 185.88 268.99 C 188.22 268.96 190.56 268.95 192.91 268.92 C 192.92 268.15 192.94 266.62 192.95 265.86 C 190.58 265.81 188.21 265.81 185.85 265.68 C 185.87 226.81 185.88 187.94 185.84 149.07 C 185.87 147.64 185.73 146.00 187.00 145.03 Z" />
<path fill="#f3efe6" opacity="1.00" d=" M 396.33 135.75 C 399.62 139.09 402.88 142.48 406.42 145.57 C 407.56 146.35 408.10 147.55 407.87 148.93 C 407.83 168.71 407.85 188.50 407.86 208.28 C 404.03 211.20 400.19 214.10 396.34 217.00 C 396.36 189.91 396.38 162.83 396.33 135.75 Z" />
<path fill="#f3efe6" opacity="1.00" d=" M 282.20 152.96 C 282.27 149.15 282.91 144.47 286.75 142.60 C 286.90 144.40 287.04 146.21 287.06 148.03 C 287.07 179.32 287.05 210.61 287.06 241.90 C 285.43 241.90 283.81 241.90 282.19 241.90 C 282.21 212.25 282.19 182.61 282.20 152.96 Z" />
<path fill="#f3efe6" opacity="1.00" d=" M 291.50 143.14 C 292.23 143.15 293.67 143.16 294.39 143.17 C 294.34 153.28 294.39 163.40 294.37 173.51 C 293.69 173.42 292.34 173.25 291.66 173.16 C 291.29 163.16 291.64 153.14 291.50 143.14 Z" />
<path fill="#f3efe6" opacity="1.00" d=" M 297.27 143.18 C 301.31 143.14 305.35 143.07 309.38 143.40 C 309.29 148.77 309.26 154.14 309.40 159.50 L 308.13 159.67 C 309.23 161.03 309.71 162.64 309.56 164.51 L 308.60 164.49 C 308.64 166.33 308.67 168.18 308.80 170.02 C 308.87 170.80 309.01 172.36 309.09 173.14 C 305.16 173.63 301.20 173.34 297.26 173.36 C 297.27 163.30 297.24 153.24 297.27 143.18 Z" />
<path fill="#f3efe6" opacity="1.00" d=" M 310.64 143.38 C 314.82 143.06 319.01 143.16 323.20 143.17 C 323.22 153.24 323.20 163.32 323.14 173.39 C 318.95 173.15 314.59 174.06 310.55 172.66 C 310.82 162.90 310.66 153.14 310.64 143.38 Z" />
<path fill="#f3efe6" opacity="1.00" d=" M 326.11 143.18 C 329.80 143.25 333.56 142.76 337.18 143.71 C 337.11 153.60 337.17 163.50 337.14 173.39 C 333.46 173.39 329.78 173.40 326.10 173.38 C 326.11 163.31 326.10 153.25 326.11 143.18 Z" />
<path fill="#f3efe6" opacity="1.00" d=" M 80.99 149.24 C 86.70 151.32 92.26 153.78 97.96 155.87 C 99.17 156.44 100.68 156.74 101.46 157.93 C 101.39 159.65 101.03 161.33 100.66 163.01 C 96.05 182.04 89.75 200.88 79.88 217.87 C 68.83 238.50 52.66 256.34 33.53 269.77 C 32.66 267.35 32.06 264.84 31.31 262.38 C 30.37 259.28 28.36 256.47 28.46 253.11 C 37.38 244.70 45.34 235.27 52.25 225.15 C 66.58 203.87 74.88 178.98 78.80 153.76 C 78.99 152.02 80.01 150.60 80.99 149.24 Z" />
<path fill="#f3efe6" opacity="1.00" d=" M 172.55 155.76 C 175.97 153.35 179.71 151.41 182.99 148.79 C 182.83 182.04 183.10 215.29 182.85 248.53 C 181.52 242.91 177.68 238.04 172.26 235.88 C 172.18 210.57 172.30 185.25 172.20 159.94 C 172.28 158.55 172.06 157.08 172.55 155.76 Z" />
<path fill="#f3efe6" opacity="1.00" d=" M 410.75 148.72 C 414.33 151.64 418.11 154.30 421.82 157.06 C 421.77 170.61 421.76 184.16 421.82 197.71 C 418.14 200.51 414.45 203.30 410.76 206.09 C 410.74 186.97 410.76 167.84 410.75 148.72 Z" />
<path fill="#f3efe6" opacity="1.00" d=" M 491.19 158.16 C 497.30 155.35 503.68 153.04 510.02 150.79 C 512.07 149.78 512.45 152.58 512.77 153.91 C 516.04 171.15 520.27 188.36 527.67 204.34 C 536.89 224.41 550.83 242.07 567.17 256.82 C 569.66 261.22 566.14 265.52 564.00 269.21 C 561.29 269.41 558.29 269.80 556.01 267.98 C 541.62 257.16 528.91 244.03 518.97 228.99 C 508.72 213.68 501.65 196.47 496.24 178.92 C 494.37 172.06 491.89 165.25 491.19 158.16 Z" />
<path fill="#f3efe6" opacity="1.00" d=" M 158.66 162.30 C 162.29 160.92 165.83 159.31 169.36 157.68 C 169.36 183.42 169.33 209.17 169.38 234.92 C 165.83 234.08 162.17 233.83 158.55 234.16 C 158.61 210.21 158.41 186.25 158.66 162.30 Z" />
<path fill="#f3efe6" opacity="1.00" d=" M 424.67 158.39 C 428.47 159.95 432.24 161.58 436.05 163.12 C 436.07 171.06 436.05 178.99 436.05 186.93 C 432.27 189.79 428.49 192.66 424.71 195.53 C 424.66 183.15 424.72 170.77 424.67 158.39 Z" />
<path fill="#f3efe6" opacity="1.00" d=" M 107.18 162.96 C 107.74 161.99 107.44 159.76 109.03 159.86 C 115.50 161.99 121.80 164.67 128.22 166.96 C 128.96 185.83 123.31 204.52 113.80 220.71 C 101.14 242.99 81.54 260.41 60.29 274.30 C 53.52 273.54 46.76 272.69 40.00 271.88 C 46.86 266.51 53.65 261.00 59.77 254.78 C 70.40 244.11 79.24 231.77 86.71 218.72 C 96.27 201.28 102.48 182.23 107.18 162.96 Z" />
<path fill="#f3efe6" opacity="1.00" d=" M 465.59 167.88 C 472.02 165.37 478.40 162.68 484.97 160.57 C 489.27 178.59 494.60 196.49 502.83 213.14 C 511.02 229.96 521.99 245.52 535.68 258.32 C 540.04 262.73 545.34 266.07 549.70 270.47 C 543.18 271.45 536.64 272.17 530.12 273.11 C 513.14 260.66 496.42 247.10 484.69 229.36 C 472.33 211.39 465.56 189.71 465.59 167.88 Z" />
<path fill="#f3efe6" opacity="1.00" d=" M 144.65 166.32 C 148.33 165.37 152.02 164.44 155.67 163.39 C 155.70 187.10 155.65 210.81 155.70 234.53 C 151.86 235.09 147.98 235.94 144.64 238.02 C 144.62 214.12 144.62 190.22 144.65 166.32 Z" />
<path fill="#f3efe6" opacity="1.00" d=" M 438.97 164.18 C 442.61 165.12 446.26 166.06 449.87 167.13 C 449.85 170.24 449.84 173.36 449.86 176.48 C 446.24 179.22 442.63 181.97 439.00 184.70 C 438.92 177.86 438.96 171.02 438.97 164.18 Z" />
<path fill="#f3efe6" opacity="1.00" d=" M 135.07 168.16 C 137.28 167.80 139.50 167.44 141.71 167.10 C 141.82 191.46 141.73 215.83 141.75 240.19 C 136.69 245.40 133.43 252.10 131.01 258.88 C 130.32 242.62 130.91 226.31 130.71 210.03 C 130.76 203.35 130.48 196.54 132.31 190.05 C 134.25 182.92 134.72 175.50 135.07 168.16 Z" />
<path fill="#f3efe6" opacity="1.00" d=" M 452.73 168.14 C 454.81 168.60 456.88 169.04 458.96 169.52 C 456.90 171.14 454.83 172.74 452.74 174.31 C 452.74 172.25 452.74 170.19 452.73 168.14 Z" />
<path fill="#f3efe6" opacity="1.00" d=" M 291.53 177.90 C 307.71 177.82 323.90 177.88 340.08 177.87 C 340.07 180.88 340.07 183.90 340.08 186.92 C 323.89 186.92 307.70 186.91 291.51 186.93 C 291.50 183.92 291.50 180.91 291.53 177.90 Z" />
<path fill="#f3efe6" opacity="1.00" d=" M 291.49 191.36 C 292.21 191.36 293.66 191.37 294.39 191.37 C 294.39 208.21 294.39 225.06 294.39 241.90 C 293.66 241.92 292.21 241.96 291.49 241.97 C 291.49 225.10 291.49 208.23 291.49 191.36 Z" />
<path fill="#f3efe6" opacity="1.00" d=" M 297.27 191.37 C 301.01 191.37 304.76 191.37 308.52 191.37 C 308.59 222.07 308.50 252.77 308.56 283.47 C 304.80 286.33 301.03 289.19 297.25 292.03 C 297.48 276.71 296.82 261.37 297.59 246.07 C 297.72 244.65 297.72 243.23 297.58 241.82 C 296.83 225.03 297.46 208.18 297.27 191.37 Z" />
<path fill="#f3efe6" opacity="1.00" d=" M 311.49 191.37 C 315.39 191.38 319.29 191.36 323.20 191.37 C 323.22 218.37 323.17 245.37 323.22 272.37 C 319.29 275.36 315.36 278.33 311.42 281.31 C 311.47 251.33 311.32 221.35 311.49 191.37 Z" />
<path fill="#f3efe6" opacity="1.00" d=" M 326.11 191.37 C 329.79 191.37 333.46 191.36 337.14 191.37 C 337.13 197.23 337.13 203.09 337.13 208.95 C 335.30 209.00 333.45 209.00 331.65 209.37 C 331.45 210.51 331.29 211.66 331.18 212.81 C 333.16 212.94 335.14 213.04 337.14 213.08 C 337.15 229.33 337.15 245.59 337.14 261.85 C 333.46 264.63 329.78 267.41 326.10 270.19 C 326.12 243.92 326.10 217.64 326.11 191.37 Z" />
<path fill="#f3efe6" opacity="1.00" d=" M 127.75 207.55 C 127.97 232.47 127.64 257.40 127.92 282.33 C 127.84 287.67 127.83 293.02 127.92 298.37 C 127.70 339.02 127.87 379.67 127.83 420.32 C 124.24 423.06 120.62 425.77 117.01 428.49 C 116.87 371.65 116.99 314.81 116.95 257.96 C 117.06 247.94 116.73 237.90 117.08 227.90 C 120.09 220.84 124.86 214.66 127.75 207.55 Z" />
<path fill="#f3efe6" opacity="1.00" d=" M 340.06 213.10 C 343.73 213.08 347.40 213.10 351.08 213.01 C 351.09 225.77 351.08 238.52 351.09 251.28 C 347.42 254.06 343.74 256.84 340.07 259.62 C 340.06 244.11 340.07 228.61 340.06 213.10 Z" />
<path fill="#f3efe6" opacity="1.00" d=" M 104.05 245.00 C 107.34 240.82 110.76 236.74 114.01 232.52 C 114.04 298.36 114.08 364.20 113.99 430.04 C 109.83 422.68 106.24 414.95 103.18 407.08 C 102.73 355.09 103.14 303.06 102.95 251.05 C 103.06 249.01 102.55 246.66 104.05 245.00 Z" />
<path fill="#f3efe6" opacity="1.00" d=" M 151.94 239.83 C 153.18 239.55 154.42 239.27 155.67 239.04 C 155.63 271.77 155.71 304.50 155.70 337.23 C 154.43 336.92 153.17 336.59 151.92 336.25 C 151.97 304.11 151.94 271.97 151.94 239.83 Z" />
<path fill="#f3efe6" opacity="1.00" d=" M 158.54 238.58 C 162.17 238.20 165.87 238.43 169.37 239.49 C 169.32 271.96 169.39 304.42 169.34 336.88 C 165.83 337.78 162.17 337.89 158.57 337.71 C 158.58 304.67 158.56 271.62 158.54 238.58 Z" />
<path fill="#f3efe6" opacity="1.00" d=" M 172.27 240.82 C 179.46 246.84 180.49 256.96 180.88 265.71 C 177.92 265.77 174.96 265.76 172.01 265.69 C 172.51 257.41 172.09 249.11 172.27 240.82 Z" />
<path fill="#f3efe6" opacity="1.00" d=" M 132.08 283.03 C 132.38 268.57 135.12 252.74 146.12 242.36 C 146.16 272.67 146.16 302.97 146.11 333.28 C 140.86 328.96 137.68 322.66 135.73 316.26 C 132.83 305.45 131.80 294.20 132.08 283.03 Z" />
<path fill="#f3efe6" opacity="1.00" d=" M 269.66 245.90 C 273.19 245.93 276.71 245.93 280.23 245.92 C 280.24 265.59 280.24 285.26 280.23 304.93 C 276.71 307.59 273.20 310.27 269.67 312.92 C 269.63 290.58 269.65 268.24 269.66 245.90 Z" />
<path fill="#f3efe6" opacity="1.00" d=" M 283.15 245.91 C 286.89 245.91 290.64 245.88 294.38 245.98 C 294.42 262.05 294.35 278.12 294.41 294.19 C 290.67 297.04 286.91 299.87 283.16 302.71 C 283.12 283.78 283.13 264.85 283.15 245.91 Z" />
<path fill="#f3efe6" opacity="1.00" d=" M 88.98 260.84 C 92.75 257.26 96.47 253.61 100.05 249.84 C 100.04 299.68 100.25 349.52 99.94 399.36 C 96.70 392.54 93.98 385.50 91.61 378.34 C 90.25 373.93 87.88 369.70 88.06 364.96 C 88.07 331.62 88.10 298.28 88.04 264.93 C 88.19 263.55 87.65 261.80 88.98 260.84 Z" />
<path fill="#f3efe6" opacity="1.00" d=" M 73.90 272.29 C 77.85 269.81 81.44 266.81 85.18 264.04 C 84.95 295.10 85.46 326.18 84.99 357.23 C 81.06 348.09 79.01 338.28 76.31 328.73 C 75.32 324.52 73.73 320.38 73.81 316.00 C 73.87 301.43 73.70 286.85 73.90 272.29 Z" />
<path fill="#f3efe6" opacity="1.00" d=" M 172.04 269.07 C 175.67 269.10 179.31 269.04 182.94 269.02 C 182.96 281.80 182.94 294.59 182.95 307.38 C 179.29 307.41 175.63 307.38 171.98 307.33 C 172.44 294.59 172.34 281.81 172.04 269.07 Z" />
<path fill="#f3efe6" opacity="1.00" d=" M 65.92 278.38 C 67.59 277.22 69.26 276.06 70.93 274.89 C 70.75 284.68 71.21 294.49 70.68 304.27 C 69.12 295.63 67.41 287.02 65.92 278.38 Z" />
<path fill="#f3efe6" opacity="1.00" d=" M 533.67 278.30 C 542.13 277.37 550.58 276.32 559.03 275.26 C 559.57 276.21 560.13 277.16 560.69 278.12 C 559.18 282.46 556.67 286.50 556.13 291.14 C 555.67 294.80 553.30 297.81 552.40 301.35 C 551.46 304.88 550.31 308.36 548.70 311.65 C 546.94 315.20 546.55 319.26 544.74 322.79 C 543.38 325.47 542.15 328.23 541.32 331.13 C 538.90 339.26 535.01 346.82 531.51 354.51 C 528.50 360.91 526.91 368.01 523.01 373.96 C 520.66 376.90 520.65 380.95 518.44 383.97 C 516.15 387.40 515.32 391.58 512.90 394.94 C 506.38 406.55 500.07 418.28 494.02 430.14 C 488.69 437.32 484.86 445.46 479.73 452.77 C 477.67 455.76 476.42 459.25 474.03 462.03 C 470.44 466.18 468.66 471.56 464.91 475.59 C 462.48 478.06 461.46 481.48 459.21 484.07 C 456.03 487.72 453.74 492.03 450.40 495.56 C 446.93 500.75 442.31 505.06 439.11 510.43 C 433.80 516.69 429.09 523.43 423.41 529.38 C 422.69 529.47 421.27 529.67 420.56 529.76 C 437.38 506.51 452.57 482.14 467.85 457.87 C 478.82 437.97 489.03 417.62 497.76 396.63 C 513.64 358.52 525.56 318.78 533.67 278.30 Z" />
<path fill="#f3efe6" opacity="1.00" d=" M 26.74 276.40 C 37.57 277.37 48.38 278.54 59.23 279.27 C 64.61 306.58 68.69 334.34 78.05 360.66 C 85.12 381.90 93.44 402.70 102.78 423.04 C 106.94 430.75 110.34 438.83 114.40 446.58 C 118.64 453.97 123.19 461.17 127.34 468.60 C 143.21 495.47 160.87 521.33 180.68 545.46 C 179.46 545.30 178.04 545.68 176.96 544.99 C 172.12 540.72 169.74 534.42 165.03 530.04 C 161.72 526.99 158.72 523.62 156.19 519.90 C 152.49 514.34 147.45 509.88 143.61 504.44 C 138.02 496.72 131.45 489.76 126.36 481.69 C 122.09 477.76 119.86 472.32 116.21 467.91 C 111.43 461.85 107.97 454.92 103.41 448.71 C 98.54 440.89 94.28 432.70 89.09 425.08 C 86.69 419.95 82.76 415.69 80.85 410.33 C 79.03 405.70 75.80 401.83 73.76 397.32 C 66.55 384.57 62.14 370.46 54.93 357.73 C 50.76 347.25 46.81 336.69 42.91 326.11 C 40.12 319.89 38.78 313.17 36.19 306.89 C 33.71 300.71 32.46 294.15 30.26 287.89 C 28.94 284.10 27.76 280.27 26.74 276.40 Z" />
<path fill="#f3efe6" opacity="1.00" d=" M 519.46 282.43 C 521.42 281.01 523.39 279.61 525.39 278.23 C 524.66 287.49 522.06 296.52 519.49 305.41 C 519.40 297.75 519.52 290.09 519.46 282.43 Z" />
<path fill="#f3efe6" opacity="1.00" d=" M 504.15 293.72 C 508.29 290.66 512.41 287.58 516.56 284.54 C 516.53 295.65 516.79 306.77 516.39 317.86 C 513.35 332.08 508.49 345.85 504.18 359.72 C 504.10 337.72 504.15 315.72 504.15 293.72 Z" />
<path fill="#f3efe6" opacity="1.00" d=" M 489.45 304.71 C 493.38 301.76 497.26 298.75 501.25 295.87 C 501.26 318.91 501.22 341.95 501.27 364.99 C 501.30 366.80 500.97 368.60 500.28 370.29 C 496.71 379.24 493.33 388.28 489.53 397.15 C 489.38 366.34 489.53 335.52 489.45 304.71 Z" />
<path fill="#f3efe6" opacity="1.00" d=" M 475.08 315.28 C 478.91 312.43 482.72 309.54 486.60 306.75 C 486.61 337.16 486.59 367.58 486.60 398.00 C 486.52 401.15 487.06 404.52 485.48 407.42 C 482.14 414.30 478.80 421.19 475.20 427.94 C 474.99 390.39 475.24 352.84 475.08 315.28 Z" />
<path fill="#f3efe6" opacity="1.00" d=" M 171.98 311.13 C 174.83 311.07 177.68 311.04 180.54 311.04 C 180.72 316.02 180.60 321.12 178.98 325.89 C 177.87 329.75 175.97 333.63 172.28 335.61 C 172.07 327.45 172.54 319.28 171.98 311.13 Z" />
<path fill="#f3efe6" opacity="1.00" d=" M 130.84 315.91 C 132.77 323.20 135.98 330.45 141.77 335.50 C 141.77 360.25 141.72 385.00 141.79 409.75 C 138.10 412.55 134.41 415.35 130.71 418.14 C 130.79 384.06 130.55 349.99 130.84 315.91 Z" />
<path fill="#f3efe6" opacity="1.00" d=" M 460.97 325.75 C 464.70 322.96 468.43 320.16 472.20 317.41 C 472.27 355.62 472.19 393.83 472.23 432.04 C 472.41 434.58 471.14 436.85 470.08 439.06 C 467.37 444.65 464.20 449.99 461.07 455.35 C 460.93 412.15 461.11 368.95 460.97 325.75 Z" />
<path fill="#f3efe6" opacity="1.00" d=" M 446.92 336.15 C 450.65 333.39 454.36 330.60 458.11 327.86 C 458.09 360.25 458.10 392.64 458.10 425.03 C 457.91 436.97 458.49 448.97 457.82 460.88 C 454.37 467.41 450.63 473.81 447.00 480.25 C 446.82 432.22 446.97 384.18 446.92 336.15 Z" />
<path fill="#f3efe6" opacity="1.00" d=" M 172.23 340.65 C 177.22 338.75 181.16 334.66 182.98 329.65 C 182.91 345.95 182.95 362.26 182.97 378.57 C 179.41 381.28 175.83 383.98 172.26 386.69 C 172.20 371.34 172.27 355.99 172.23 340.65 Z" />
<path fill="#f3efe6" opacity="1.00" d=" M 144.66 337.83 C 148.01 339.93 151.80 341.25 155.69 341.91 C 155.66 360.99 155.69 380.07 155.68 399.15 C 152.04 402.02 148.34 404.81 144.64 407.60 C 144.63 384.34 144.60 361.08 144.66 337.83 Z" />
<path fill="#f3efe6" opacity="1.00" d=" M 432.80 346.62 C 436.52 343.85 440.24 341.08 443.97 338.33 C 443.94 387.22 444.25 436.13 443.80 485.00 C 440.53 490.69 436.69 496.06 432.88 501.41 C 432.78 491.02 432.77 480.64 432.86 470.26 C 436.62 461.10 437.27 450.20 432.90 441.14 C 432.69 409.63 432.90 378.12 432.80 346.62 Z" />
<path fill="#f3efe6" opacity="1.00" d=" M 158.56 342.15 C 162.17 342.25 165.80 342.02 169.37 341.36 C 169.33 357.21 169.37 373.05 169.34 388.90 C 165.86 391.52 162.41 394.20 158.88 396.76 C 158.34 393.19 158.56 389.57 158.54 385.98 C 158.56 371.37 158.53 356.76 158.56 342.15 Z" />
<path fill="#f3efe6" opacity="1.00" d=" M 418.87 356.93 C 422.54 354.20 426.22 351.47 429.91 348.76 C 429.86 377.86 429.97 406.96 429.85 436.05 C 426.57 432.45 422.90 429.21 418.85 426.50 C 418.90 403.31 418.86 380.12 418.87 356.93 Z" />
<path fill="#f3efe6" opacity="1.00" d=" M 405.04 367.20 C 408.67 364.49 412.31 361.79 415.96 359.09 C 415.96 380.95 415.97 402.81 415.95 424.67 C 412.55 422.80 408.85 421.50 405.06 420.66 C 405.05 402.84 405.09 385.02 405.04 367.20 Z" />
<path fill="#f3efe6" opacity="1.00" d=" M 391.84 376.98 C 395.24 374.39 398.72 371.90 402.15 369.34 C 402.18 386.27 402.16 403.19 402.16 420.11 C 398.56 419.72 394.94 419.83 391.34 419.84 C 391.30 407.58 391.37 395.32 391.29 383.06 C 391.29 381.01 391.41 378.97 391.84 376.98 Z" />
<path fill="#f3efe6" opacity="1.00" d=" M 377.64 387.51 C 381.23 384.84 384.83 382.16 388.44 379.51 C 388.46 392.95 388.45 406.40 388.45 419.85 C 384.85 419.85 381.25 419.84 377.66 419.84 C 377.62 409.06 377.65 398.29 377.64 387.51 Z" />
<path fill="#f3efe6" opacity="1.00" d=" M 363.89 397.70 C 367.50 395.01 371.13 392.32 374.76 389.65 C 374.76 399.71 374.77 409.78 374.75 419.84 C 371.13 419.84 367.51 419.84 363.90 419.84 C 363.90 412.46 363.91 405.08 363.89 397.70 Z" />
<path fill="#f3efe6" opacity="1.00" d=" M 350.10 407.92 C 353.72 405.23 357.35 402.54 360.99 399.86 C 360.97 406.51 361.00 413.17 360.97 419.84 C 358.27 419.83 355.58 419.85 352.89 419.89 C 352.92 421.82 352.99 423.76 353.08 425.70 C 354.69 425.76 356.30 425.82 357.91 425.88 C 357.92 453.37 357.90 480.85 357.93 508.33 C 355.90 508.45 353.88 508.60 351.86 508.79 C 351.91 510.83 351.89 512.90 352.20 514.93 C 355.05 515.70 358.04 515.36 360.97 515.42 C 360.93 539.94 361.13 564.49 360.81 589.01 C 357.91 593.27 353.69 596.52 350.14 600.24 C 350.07 536.14 350.11 472.03 350.10 407.92 Z" />
<path fill="#f3efe6" opacity="1.00" d=" M 336.81 417.77 C 340.26 415.21 343.72 412.65 347.18 410.09 C 347.23 474.42 347.17 538.75 347.21 603.08 C 343.83 606.44 340.28 609.62 336.86 612.93 C 336.85 605.23 336.77 597.52 336.88 589.82 C 339.70 587.38 339.77 583.01 336.88 580.58 C 336.74 526.31 336.88 472.04 336.81 417.77 Z" />
<path fill="#f3efe6" opacity="1.00" d=" M 323.39 427.72 C 326.90 425.12 330.41 422.52 333.92 419.92 C 333.90 473.11 333.92 526.29 333.91 579.48 C 331.01 579.83 328.04 581.82 328.06 585.03 C 327.83 588.32 330.85 590.57 333.86 590.92 C 333.93 599.17 333.89 607.43 333.83 615.68 C 330.47 618.86 327.05 621.96 323.45 624.87 C 323.37 559.15 323.47 493.44 323.39 427.72 Z" />
<path fill="#f3efe6" opacity="1.00" d=" M 362.69 425.81 C 364.92 425.83 367.14 425.83 369.38 425.82 C 369.99 428.48 369.92 431.23 369.89 433.95 C 369.82 459.02 369.93 484.08 369.84 509.15 C 370.27 511.85 366.84 511.58 365.06 511.57 C 363.49 511.78 361.93 510.72 362.16 509.02 C 362.10 484.36 362.17 459.69 362.13 435.03 C 362.15 431.95 361.86 428.81 362.69 425.81 Z" />
<path fill="#f3efe6" opacity="1.00" d=" M 377.63 425.83 C 381.24 425.82 384.85 425.82 388.47 425.83 C 388.44 442.59 388.44 459.35 388.47 476.12 C 384.85 476.12 381.24 476.13 377.63 476.08 C 377.64 459.33 377.65 442.58 377.63 425.83 Z" />
<path fill="#f3efe6" opacity="1.00" d=" M 391.32 425.83 C 394.94 425.77 398.59 425.65 402.16 426.41 C 402.17 442.85 402.16 459.30 402.17 475.74 C 398.56 476.18 394.93 476.16 391.31 476.12 C 391.33 459.36 391.33 442.59 391.32 425.83 Z" />
<path fill="#f3efe6" opacity="1.00" d=" M 405.12 427.67 C 409.35 430.51 413.63 433.84 415.93 438.51 C 416.01 447.28 415.93 456.06 415.98 464.83 C 413.08 468.84 409.30 472.25 405.01 474.71 C 405.16 459.03 404.96 443.35 405.12 427.67 Z" />
<path fill="#f3efe6" opacity="1.00" d=" M 309.89 437.74 C 313.43 435.10 316.98 432.47 320.54 429.84 C 320.50 495.69 320.61 561.53 320.47 627.38 C 317.01 630.50 313.58 633.67 309.96 636.61 C 309.88 620.92 309.91 605.23 309.92 589.55 C 311.17 589.31 312.83 589.86 313.80 588.81 C 314.16 586.80 314.09 584.75 314.15 582.72 C 312.73 582.51 311.32 582.31 309.91 582.18 C 309.95 573.05 309.83 563.92 309.94 554.79 C 314.40 545.34 314.01 534.27 309.85 524.80 C 309.97 495.78 309.89 466.76 309.89 437.74 Z" />
<path fill="#f3efe6" opacity="1.00" d=" M 417.01 431.97 C 422.95 435.25 428.48 440.12 430.41 446.86 C 433.00 455.36 431.56 465.62 425.05 472.05 C 422.13 475.62 417.46 476.91 413.05 477.19 C 418.90 471.10 424.26 463.83 424.88 455.09 C 426.19 446.56 421.96 438.58 417.01 431.97 Z" />
<path fill="#f3efe6" opacity="1.00" d=" M 296.10 447.96 C 299.72 445.26 303.35 442.58 306.98 439.89 C 306.95 466.54 307.04 493.20 306.94 519.85 C 304.01 515.79 300.27 512.37 296.10 509.63 C 296.11 489.08 296.12 468.52 296.10 447.96 Z" />
<path fill="#f3efe6" opacity="1.00" d=" M 418.86 459.31 C 418.92 454.11 418.92 448.92 418.85 443.73 C 420.71 448.73 420.50 454.28 418.86 459.31 Z" />
<path fill="#f3efe6" opacity="1.00" d=" M 282.83 457.80 C 286.28 455.24 289.73 452.67 293.19 450.12 C 293.23 469.40 293.19 488.68 293.21 507.96 C 289.94 506.29 286.41 505.21 282.83 504.43 C 282.81 488.89 282.83 473.34 282.83 457.80 Z" />
<path fill="#f3efe6" opacity="1.00" d=" M 269.76 467.69 C 272.91 464.81 276.57 462.57 279.93 459.95 C 279.90 474.60 279.96 489.26 279.90 503.91 C 276.15 503.37 272.37 503.08 268.61 502.66 C 269.01 493.11 268.12 483.51 269.09 474.01 C 268.82 471.92 267.90 469.31 269.76 467.69 Z" />
<path fill="#f3efe6" opacity="1.00" d=" M 255.90 477.77 C 259.68 475.00 263.27 471.95 267.44 469.76 C 267.16 472.19 266.62 474.61 266.82 477.07 C 267.81 485.59 267.08 494.17 267.38 502.73 C 263.57 503.07 259.74 503.10 255.91 503.07 C 255.90 494.63 255.91 486.20 255.90 477.77 Z" />
<path fill="#f3efe6" opacity="1.00" d=" M 418.86 480.81 C 422.95 479.41 426.76 477.16 429.87 474.14 C 429.91 484.12 429.91 494.10 429.86 504.08 C 430.02 506.17 428.54 507.79 427.50 509.44 C 424.63 513.44 421.92 517.55 418.96 521.48 C 418.77 507.92 418.94 494.37 418.86 480.81 Z" />
<path fill="#f3efe6" opacity="1.00" d=" M 242.30 487.85 C 245.86 485.19 249.43 482.55 253.00 479.92 C 253.03 487.63 253.01 495.34 253.02 503.05 C 249.45 503.06 245.89 502.97 242.33 503.11 C 242.29 498.02 242.31 492.93 242.30 487.85 Z" />
<path fill="#f3efe6" opacity="1.00" d=" M 377.64 481.90 C 381.24 481.89 384.85 481.94 388.45 481.93 C 388.45 506.96 388.47 532.00 388.43 557.04 C 388.71 559.10 387.02 560.49 385.87 561.95 C 383.14 565.06 380.46 568.20 377.72 571.29 C 377.62 552.68 377.58 534.07 377.72 515.47 C 381.21 515.32 379.72 511.12 380.16 508.82 C 379.53 508.75 378.27 508.62 377.64 508.56 C 377.64 499.67 377.63 490.79 377.64 481.90 Z" />
<path fill="#f3efe6" opacity="1.00" d=" M 391.32 481.92 C 394.93 481.92 398.55 481.92 402.16 481.92 C 402.15 488.33 402.19 494.74 402.14 501.16 C 400.10 502.10 397.83 503.46 397.64 505.97 C 397.00 509.02 399.41 511.52 402.12 512.41 C 402.22 522.58 402.12 532.75 402.15 542.91 C 398.65 547.21 394.92 551.31 391.35 555.55 C 391.32 531.01 391.33 506.46 391.32 481.92 Z" />
<path fill="#f3efe6" opacity="1.00" d=" M 405.08 481.93 C 408.70 481.95 412.33 481.98 415.94 481.51 C 416.01 495.02 415.90 508.54 415.96 522.05 C 415.91 523.72 416.14 525.63 414.80 526.91 C 411.53 530.89 408.37 534.95 405.09 538.92 C 405.13 529.99 405.02 521.06 405.12 512.14 C 406.81 510.88 408.61 509.30 408.60 507.00 C 408.77 504.55 406.96 502.71 405.08 501.46 C 405.05 494.95 405.07 488.44 405.08 481.93 Z" />
<path fill="#f3efe6" opacity="1.00" d=" M 229.13 497.61 C 232.54 495.07 235.96 492.53 239.39 490.02 C 239.47 526.68 239.41 563.34 239.40 600.00 C 236.11 596.53 232.26 593.56 229.32 589.78 C 228.94 559.07 229.22 528.33 229.13 497.61 Z" />
<path fill="#f3efe6" opacity="1.00" d=" M 215.20 507.94 C 218.88 505.21 222.55 502.48 226.23 499.75 C 226.25 528.83 226.25 557.90 226.22 586.97 C 222.73 583.37 218.91 580.07 215.62 576.29 C 215.01 573.93 215.29 571.46 215.22 569.06 C 215.22 548.68 215.20 528.31 215.20 507.94 Z" />
<path fill="#f3efe6" opacity="1.00" d=" M 242.33 508.94 C 243.08 508.99 244.57 509.07 245.32 509.12 C 245.58 511.39 245.71 513.69 245.70 515.99 C 245.59 537.63 245.79 559.28 245.61 580.92 C 245.91 582.69 243.34 582.02 242.32 582.51 C 242.32 557.99 242.27 533.47 242.33 508.94 Z" />
<path fill="#f3efe6" opacity="1.00" d=" M 249.99 510.81 C 249.82 508.15 253.33 509.17 255.00 509.15 C 256.85 509.45 256.36 511.63 256.52 512.96 C 256.45 535.64 256.45 558.32 256.47 581.01 C 256.47 582.62 256.19 584.21 255.90 585.80 C 254.08 585.82 252.24 586.00 250.46 585.63 C 249.79 584.17 249.91 582.54 249.87 580.99 C 250.00 557.60 249.76 534.20 249.99 510.81 Z" />
<path fill="#f3efe6" opacity="1.00" d=" M 260.76 513.98 C 260.89 512.24 260.11 509.02 262.81 509.13 C 268.50 509.61 274.23 509.16 279.88 510.18 L 279.88 510.44 C 279.97 527.05 279.89 543.67 279.92 560.29 C 276.63 560.30 273.33 560.39 270.03 560.18 C 267.32 557.98 263.35 562.27 261.00 559.00 C 260.33 544.02 261.08 528.98 260.76 513.98 Z" />
<path fill="#f3efe6" opacity="1.00" d=" M 201.74 517.93 C 205.25 515.31 208.77 512.69 212.29 510.10 C 212.33 531.01 212.32 551.93 212.27 572.85 C 208.99 569.44 205.73 566.00 202.72 562.35 C 201.60 561.19 201.84 559.50 201.74 558.05 C 201.76 544.67 201.73 531.30 201.74 517.93 Z" />
<path fill="#f3efe6" opacity="1.00" d=" M 282.85 510.56 C 287.23 512.23 290.43 515.76 293.26 519.36 C 293.18 530.61 293.17 541.86 293.26 553.10 C 290.76 556.68 287.40 559.94 282.85 560.43 C 282.81 543.80 282.81 527.18 282.85 510.56 Z" />
<path fill="#f3efe6" opacity="1.00" d=" M 295.37 514.80 C 300.63 518.94 305.48 524.24 307.23 530.87 C 308.90 536.93 309.51 543.57 307.49 549.63 C 305.02 556.06 299.09 561.84 291.95 562.19 C 298.19 555.58 303.06 547.23 303.26 537.92 C 303.93 529.45 300.25 521.47 295.37 514.80 Z" />
<path fill="#f3efe6" opacity="1.00" d=" M 363.92 515.40 C 367.53 515.38 371.14 515.37 374.75 515.45 C 374.76 535.19 374.77 554.93 374.71 574.68 C 371.12 578.49 367.54 582.31 363.94 586.11 C 363.89 562.54 363.89 538.97 363.92 515.40 Z" />
<path fill="#f3efe6" opacity="1.00" d=" M 187.94 528.17 C 191.56 525.45 195.20 522.77 198.84 520.08 C 198.83 532.60 198.81 545.13 198.80 557.65 C 195.09 553.49 191.57 549.18 188.11 544.81 C 187.92 539.27 187.99 533.72 187.94 528.17 Z" />
<path fill="#f3efe6" opacity="1.00" d=" M 296.06 523.75 C 300.58 531.13 299.53 540.49 296.15 548.10 C 296.04 539.98 296.21 531.86 296.06 523.75 Z" />
<path fill="#f3efe6" opacity="1.00" d=" M 179.88 534.16 C 181.59 532.88 183.30 531.61 185.01 530.35 C 185.06 533.73 185.07 537.11 184.99 540.50 C 183.22 538.43 181.55 536.29 179.88 534.16 Z" />
<path fill="#f3efe6" opacity="1.00" d=" M 299.63 565.09 C 301.50 562.53 304.78 561.35 306.97 559.04 C 307.01 565.51 306.95 571.99 306.96 578.47 C 305.93 573.31 302.84 569.09 299.63 565.09 Z" />
<path fill="#f3efe6" opacity="1.00" d=" M 261.18 567.19 C 262.92 566.67 264.76 566.71 266.57 566.68 C 266.59 572.02 266.39 577.36 266.71 582.69 C 264.73 582.57 262.77 582.42 260.81 582.24 C 260.89 577.22 260.30 572.15 261.18 567.19 Z" />
<path fill="#f3efe6" opacity="1.00" d=" M 269.40 566.71 C 272.90 566.75 276.41 566.75 279.92 566.73 C 279.92 589.91 279.93 613.10 279.85 636.28 C 276.34 633.48 272.88 630.61 269.47 627.68 C 269.41 607.36 269.45 587.03 269.40 566.71 Z" />
<path fill="#f3efe6" opacity="1.00" d=" M 282.83 566.70 C 286.36 566.59 290.01 566.74 293.22 568.40 C 293.20 573.07 293.27 577.74 293.11 582.42 C 293.02 584.68 293.00 586.95 293.08 589.22 C 293.26 605.65 293.37 622.11 292.99 638.54 C 292.51 636.26 291.97 633.99 291.46 631.72 C 289.12 631.25 286.78 630.78 284.43 630.32 C 283.93 631.61 283.42 632.91 282.97 634.23 C 282.72 611.72 282.87 589.21 282.83 566.70 Z" />
<path fill="#f3efe6" opacity="1.00" d=" M 296.14 570.27 C 300.07 573.12 302.14 577.66 303.38 582.21 C 300.95 582.22 298.53 582.21 296.10 582.29 C 296.10 578.28 296.09 574.27 296.14 570.27 Z" />
<path fill="#f3efe6" opacity="1.00" d=" M 242.34 589.32 C 245.87 589.43 249.40 589.37 252.94 589.39 C 252.99 597.32 252.88 605.25 252.94 613.19 C 249.60 609.77 245.92 606.67 242.71 603.13 C 241.86 598.62 242.57 593.90 242.34 589.32 Z" />
<path fill="#f3efe6" opacity="1.00" d=" M 255.92 589.39 C 259.51 589.41 263.10 589.41 266.68 589.45 C 266.34 601.32 266.63 613.20 266.48 625.08 C 263.19 622.10 259.62 619.46 256.18 616.67 C 255.69 607.59 256.01 598.48 255.92 589.39 Z" />
<path fill="#f3efe6" opacity="1.00" d=" M 296.12 589.44 C 299.75 589.55 303.38 589.45 307.01 589.52 C 306.86 606.03 307.14 622.54 306.79 639.03 C 303.60 642.22 299.66 644.57 296.20 647.46 C 296.15 628.12 296.08 608.78 296.12 589.44 Z" />
</g>
<g id="#dd3a33ff">
<path fill="#dd3a33" opacity="1.00" d=" M 216.86 74.62 C 235.44 64.48 256.16 58.41 277.24 56.70 C 310.36 54.02 344.87 58.52 374.34 74.57 C 375.93 75.49 377.58 76.46 378.70 77.96 C 380.90 85.04 381.94 92.46 384.73 99.36 C 390.52 115.56 399.23 131.24 412.67 142.33 C 423.36 151.14 436.15 157.42 449.66 160.50 C 454.34 161.65 459.17 161.95 463.91 162.81 C 465.76 163.77 465.30 166.15 465.59 167.88 C 465.56 189.71 472.33 211.39 484.69 229.36 C 496.42 247.10 513.14 260.66 530.12 273.11 C 531.54 274.53 534.27 275.87 533.67 278.30 C 525.56 318.78 513.64 358.52 497.76 396.63 C 489.03 417.62 478.82 437.97 467.85 457.87 C 452.57 482.14 437.38 506.51 420.56 529.76 C 408.41 545.75 395.16 560.85 381.76 575.79 C 370.00 589.35 356.85 601.59 343.99 614.08 C 329.81 627.25 315.40 640.19 300.26 652.25 C 299.89 652.54 299.52 652.83 299.16 653.12 C 297.49 654.14 295.91 656.26 293.71 655.67 C 292.99 655.20 292.30 654.71 291.62 654.21 C 269.56 635.76 246.84 617.97 226.96 597.12 C 216.06 585.62 204.85 574.40 194.77 562.15 C 189.99 556.65 185.40 551.00 180.68 545.46 C 160.87 521.33 143.21 495.47 127.34 468.60 C 123.19 461.17 118.64 453.97 114.40 446.58 C 110.34 438.83 106.94 430.75 102.78 423.04 C 93.44 402.70 85.12 381.90 78.05 360.66 C 68.69 334.34 64.61 306.58 59.23 279.27 C 58.94 277.54 58.40 275.32 60.29 274.30 C 81.54 260.41 101.14 242.99 113.80 220.71 C 123.31 204.52 128.96 185.83 128.22 166.96 C 128.29 165.10 128.81 163.31 129.23 161.52 C 146.21 160.53 162.99 154.76 176.81 144.80 C 185.36 138.73 191.74 130.26 197.79 121.84 C 206.45 109.07 210.21 93.89 213.79 79.10 C 214.17 77.23 214.88 75.28 216.86 74.62 M 283.18 62.35 C 283.16 87.59 283.01 112.84 283.26 138.09 C 282.12 139.71 281.06 141.39 280.12 143.14 C 280.41 116.33 280.15 89.49 280.25 62.67 C 276.70 62.95 273.17 63.35 269.68 64.04 C 269.62 123.35 269.70 182.66 269.68 241.97 L 269.12 241.97 C 269.12 243.28 269.13 244.59 269.13 245.90 L 269.66 245.90 C 269.65 268.24 269.63 290.58 269.67 312.92 C 268.70 313.65 267.73 314.38 266.76 315.12 C 266.78 231.69 266.75 148.26 266.76 64.83 C 263.00 65.54 259.25 66.25 255.51 67.07 C 255.50 152.59 255.47 238.11 255.53 323.62 C 254.58 324.34 253.62 325.06 252.67 325.79 C 252.55 239.85 252.70 153.91 252.60 67.97 C 248.71 68.98 244.89 70.19 241.05 71.34 C 240.91 159.10 240.96 246.86 241.02 334.62 C 240.04 335.36 239.05 336.11 238.07 336.86 C 238.08 248.67 238.11 160.48 238.05 72.29 C 234.23 73.57 230.55 75.20 226.88 76.84 C 226.92 166.33 226.88 255.83 226.89 345.32 C 225.94 346.04 224.98 346.76 224.03 347.49 C 223.87 257.83 224.05 168.17 223.93 78.52 C 222.36 79.63 219.91 80.12 219.38 82.22 C 217.61 88.14 215.90 94.07 214.09 99.97 C 212.87 103.52 213.32 107.33 213.27 111.02 C 213.30 192.55 213.25 274.08 213.29 355.62 C 212.31 356.35 211.34 357.09 210.37 357.83 C 210.44 348.71 210.36 339.59 210.41 330.47 C 212.35 327.88 211.29 324.78 209.67 322.37 L 210.34 322.71 C 210.44 252.30 210.44 181.88 210.34 111.47 C 208.00 116.28 205.56 121.07 202.46 125.44 C 200.50 128.24 198.93 131.49 199.13 134.99 C 199.16 212.10 199.14 289.21 199.14 366.32 C 198.18 367.04 197.22 367.77 196.26 368.51 C 196.21 290.76 196.32 213.01 196.21 135.26 C 193.12 138.49 190.09 141.79 187.00 145.03 C 185.73 146.00 185.87 147.64 185.84 149.07 C 185.88 187.94 185.87 226.81 185.85 265.68 L 185.25 265.14 C 184.71 259.57 184.29 253.96 182.85 248.53 C 183.10 215.29 182.83 182.04 182.99 148.79 C 179.71 151.41 175.97 153.35 172.55 155.76 C 172.06 157.08 172.28 158.55 172.20 159.94 C 172.30 185.25 172.18 210.57 172.26 235.88 C 171.33 235.48 170.37 235.14 169.38 234.92 C 169.33 209.17 169.36 183.42 169.36 157.68 C 165.83 159.31 162.29 160.92 158.66 162.30 C 158.41 186.25 158.61 210.21 158.55 234.16 C 157.84 234.25 156.41 234.44 155.70 234.53 C 155.65 210.81 155.70 187.10 155.67 163.39 C 152.02 164.44 148.33 165.37 144.65 166.32 C 144.62 190.22 144.62 214.12 144.64 238.02 C 143.61 238.64 142.65 239.38 141.75 240.19 C 141.73 215.83 141.82 191.46 141.71 167.10 C 139.50 167.44 137.28 167.80 135.07 168.16 C 134.72 175.50 134.25 182.92 132.31 190.05 C 130.48 196.54 130.76 203.35 130.71 210.03 C 130.91 226.31 130.32 242.62 131.01 258.88 C 129.48 266.62 128.59 274.47 127.92 282.33 C 127.64 257.40 127.97 232.47 127.75 207.55 C 124.86 214.66 120.09 220.84 117.08 227.90 C 116.73 237.90 117.06 247.94 116.95 257.96 C 116.99 314.81 116.87 371.65 117.01 428.49 C 115.97 429.28 114.96 430.10 113.95 430.92 C 115.29 433.24 116.61 435.58 117.92 437.93 C 231.61 351.87 345.44 265.98 459.12 179.91 C 458.94 176.45 458.84 172.98 458.96 169.52 C 456.88 169.04 454.81 168.60 452.73 168.14 C 452.74 170.19 452.74 172.25 452.74 174.31 C 451.78 175.03 450.81 175.76 449.86 176.48 C 449.84 173.36 449.85 170.24 449.87 167.13 C 446.26 166.06 442.61 165.12 438.97 164.18 C 438.96 171.02 438.92 177.86 439.00 184.70 C 438.01 185.44 437.03 186.18 436.05 186.93 C 436.05 178.99 436.07 171.06 436.05 163.12 C 432.24 161.58 428.47 159.95 424.67 158.39 C 424.72 170.77 424.66 183.15 424.71 195.53 C 423.75 196.26 422.77 196.98 421.82 197.71 C 421.76 184.16 421.77 170.61 421.82 157.06 C 418.11 154.30 414.33 151.64 410.75 148.72 C 410.76 167.84 410.74 186.97 410.76 206.09 C 409.79 206.82 408.82 207.55 407.86 208.28 C 407.85 188.50 407.83 168.71 407.87 148.93 C 408.10 147.55 407.56 146.35 406.42 145.57 C 402.88 142.48 399.62 139.09 396.33 135.75 C 396.38 162.83 396.36 189.91 396.34 217.00 C 395.39 217.71 394.45 218.43 393.50 219.15 C 393.41 190.10 393.63 161.04 393.40 131.99 C 390.14 125.15 384.93 119.27 382.27 112.05 C 382.19 142.05 382.16 172.06 382.28 202.07 C 381.32 201.58 380.32 201.18 379.30 200.87 C 379.39 169.60 379.29 138.33 379.35 107.06 C 379.48 104.43 378.32 102.02 377.44 99.61 C 375.55 94.54 374.66 89.17 373.01 84.03 C 372.37 81.71 369.71 81.06 367.97 79.78 C 367.93 132.68 367.98 185.59 367.95 238.50 C 366.98 239.22 366.02 239.94 365.07 240.68 C 365.02 186.47 365.03 132.26 365.07 78.05 C 361.44 76.37 357.79 74.74 354.02 73.42 C 353.93 118.68 354.03 163.93 353.97 209.19 C 353.24 209.17 351.80 209.12 351.08 209.10 C 351.04 163.45 351.19 117.80 351.00 72.16 C 347.35 70.94 343.73 69.65 340.06 68.50 C 340.08 91.72 340.04 114.94 340.08 138.16 C 339.34 138.04 337.87 137.80 337.13 137.68 C 337.18 114.38 337.11 91.09 337.16 67.80 C 333.49 67.04 329.83 66.20 326.20 65.25 C 326.00 89.37 326.15 113.50 326.12 137.62 C 325.39 137.62 323.92 137.63 323.19 137.63 C 323.22 113.35 323.19 89.08 323.21 64.81 C 319.30 64.00 315.39 63.24 311.41 62.97 C 311.43 87.85 311.41 112.74 311.42 137.62 C 310.70 137.62 309.26 137.62 308.54 137.62 C 308.48 112.60 308.68 87.57 308.44 62.55 C 304.73 62.26 301.00 62.22 297.28 62.26 C 297.24 87.38 297.26 112.50 297.27 137.62 C 296.54 137.62 295.09 137.62 294.37 137.62 C 294.43 112.45 294.34 87.29 294.41 62.13 C 290.67 62.04 286.92 62.09 283.18 62.35 M 104.05 245.00 C 102.55 246.66 103.06 249.01 102.95 251.05 C 103.14 303.06 102.73 355.09 103.18 407.08 C 106.24 414.95 109.83 422.68 113.99 430.04 C 114.08 364.20 114.04 298.36 114.01 232.52 C 110.76 236.74 107.34 240.82 104.05 245.00 M 88.98 260.84 C 87.65 261.80 88.19 263.55 88.04 264.93 C 88.10 298.28 88.07 331.62 88.06 364.96 C 87.88 369.70 90.25 373.93 91.61 378.34 C 93.98 385.50 96.70 392.54 99.94 399.36 C 100.25 349.52 100.04 299.68 100.05 249.84 C 96.47 253.61 92.75 257.26 88.98 260.84 M 73.90 272.29 C 73.70 286.85 73.87 301.43 73.81 316.00 C 73.73 320.38 75.32 324.52 76.31 328.73 C 79.01 338.28 81.06 348.09 84.99 357.23 C 85.46 326.18 84.95 295.10 85.18 264.04 C 81.44 266.81 77.85 269.81 73.90 272.29 M 175.33 528.09 C 176.80 530.15 178.30 532.18 179.88 534.16 C 181.55 536.29 183.22 538.43 184.99 540.50 C 185.07 537.11 185.06 533.73 185.01 530.35 C 185.99 529.62 186.96 528.88 187.94 528.17 C 187.99 533.72 187.92 539.27 188.11 544.81 C 191.57 549.18 195.09 553.49 198.80 557.65 C 198.81 545.13 198.83 532.60 198.84 520.08 C 199.80 519.35 200.77 518.64 201.74 517.93 C 201.73 531.30 201.76 544.67 201.74 558.05 C 201.84 559.50 201.60 561.19 202.72 562.35 C 205.73 566.00 208.99 569.44 212.27 572.85 C 212.32 551.93 212.33 531.01 212.29 510.10 C 213.26 509.37 214.23 508.65 215.20 507.94 C 215.20 528.31 215.22 548.68 215.22 569.06 C 215.29 571.46 215.01 573.93 215.62 576.29 C 218.91 580.07 222.73 583.37 226.22 586.97 C 226.25 557.90 226.25 528.83 226.23 499.75 C 227.20 499.04 228.16 498.32 229.13 497.61 C 229.22 528.33 228.94 559.07 229.32 589.78 C 232.26 593.56 236.11 596.53 239.40 600.00 C 239.41 563.34 239.47 526.68 239.39 490.02 C 240.36 489.30 241.33 488.56 242.30 487.85 C 242.31 492.93 242.29 498.02 242.33 503.11 C 239.07 502.82 240.41 506.85 240.14 508.82 C 240.69 508.85 241.78 508.91 242.33 508.94 C 242.27 533.47 242.32 557.99 242.32 582.51 C 241.64 582.57 240.30 582.69 239.62 582.75 C 239.67 584.89 239.72 587.05 239.78 589.21 C 240.42 589.24 241.70 589.29 242.34 589.32 C 242.57 593.90 241.86 598.62 242.71 603.13 C 245.92 606.67 249.60 609.77 252.94 613.19 C 252.88 605.25 252.99 597.32 252.94 589.39 C 253.68 589.39 255.17 589.39 255.92 589.39 C 256.01 598.48 255.69 607.59 256.18 616.67 C 259.62 619.46 263.19 622.10 266.48 625.08 C 266.63 613.20 266.34 601.32 266.68 589.45 C 267.13 587.21 267.16 584.93 266.71 582.69 C 266.39 577.36 266.59 572.02 266.57 566.68 C 267.28 566.69 268.69 566.71 269.40 566.71 C 269.45 587.03 269.41 607.36 269.47 627.68 C 272.88 630.61 276.34 633.48 279.85 636.28 C 279.93 613.10 279.92 589.91 279.92 566.73 C 280.65 566.72 282.11 566.70 282.83 566.70 C 282.87 589.21 282.72 611.72 282.97 634.23 C 282.79 635.75 282.86 637.29 282.86 638.83 C 286.25 641.58 289.60 644.38 293.14 646.94 C 293.17 644.14 293.40 641.32 292.99 638.54 C 293.37 622.11 293.26 605.65 293.08 589.22 C 294.09 589.31 295.10 589.39 296.12 589.44 C 296.08 608.78 296.15 628.12 296.20 647.46 C 299.66 644.57 303.60 642.22 306.79 639.03 C 307.14 622.54 306.86 606.03 307.01 589.52 C 307.74 589.53 309.19 589.54 309.92 589.55 C 309.91 605.23 309.88 620.92 309.96 636.61 C 313.58 633.67 317.01 630.50 320.47 627.38 C 320.61 561.53 320.50 495.69 320.54 429.84 C 321.48 429.13 322.44 428.42 323.39 427.72 C 323.47 493.44 323.37 559.15 323.45 624.87 C 327.05 621.96 330.47 618.86 333.83 615.68 C 333.89 607.43 333.93 599.17 333.86 590.92 C 334.89 590.64 335.90 590.28 336.88 589.82 C 336.77 597.52 336.85 605.23 336.86 612.93 C 340.28 609.62 343.83 606.44 347.21 603.08 C 347.17 538.75 347.23 474.42 347.18 410.09 C 348.15 409.37 349.12 408.64 350.10 407.92 C 350.11 472.03 350.07 536.14 350.14 600.24 C 353.69 596.52 357.91 593.27 360.81 589.01 C 361.13 564.49 360.93 539.94 360.97 515.42 C 361.70 515.41 363.18 515.40 363.92 515.40 C 363.89 538.97 363.89 562.54 363.94 586.11 C 367.54 582.31 371.12 578.49 374.71 574.68 C 374.77 554.93 374.76 535.19 374.75 515.45 C 375.49 515.45 376.98 515.46 377.72 515.47 C 377.58 534.07 377.62 552.68 377.72 571.29 C 380.46 568.20 383.14 565.06 385.87 561.95 C 387.02 560.49 388.71 559.10 388.43 557.04 C 388.47 532.00 388.45 506.96 388.45 481.93 C 389.17 481.92 390.60 481.92 391.32 481.92 C 391.33 506.46 391.32 531.01 391.35 555.55 C 394.92 551.31 398.65 547.21 402.15 542.91 C 402.12 532.75 402.22 522.58 402.12 512.41 C 402.87 512.34 404.37 512.21 405.12 512.14 C 405.02 521.06 405.13 529.99 405.09 538.92 C 408.37 534.95 411.53 530.89 414.80 526.91 C 416.14 525.63 415.91 523.72 415.96 522.05 C 415.90 508.54 416.01 495.02 415.94 481.51 C 416.93 481.35 417.90 481.12 418.86 480.81 C 418.94 494.37 418.77 507.92 418.96 521.48 C 421.92 517.55 424.63 513.44 427.50 509.44 C 428.54 507.79 430.02 506.17 429.86 504.08 C 429.91 494.10 429.91 484.12 429.87 474.14 C 431.01 472.97 431.97 471.63 432.86 470.26 C 432.77 480.64 432.78 491.02 432.88 501.41 C 436.69 496.06 440.53 490.69 443.80 485.00 C 444.25 436.13 443.94 387.22 443.97 338.33 C 444.95 337.60 445.93 336.87 446.92 336.15 C 446.97 384.18 446.82 432.22 447.00 480.25 C 450.63 473.81 454.37 467.41 457.82 460.88 C 458.49 448.97 457.91 436.97 458.10 425.03 C 458.10 392.64 458.09 360.25 458.11 327.86 C 459.06 327.15 460.01 326.45 460.97 325.75 C 461.11 368.95 460.93 412.15 461.07 455.35 C 464.20 449.99 467.37 444.65 470.08 439.06 C 471.14 436.85 472.41 434.58 472.23 432.04 C 472.19 393.83 472.27 355.62 472.20 317.41 C 473.16 316.70 474.10 315.99 475.08 315.28 C 475.24 352.84 474.99 390.39 475.20 427.94 C 478.80 421.19 482.14 414.30 485.48 407.42 C 487.06 404.52 486.52 401.15 486.60 398.00 C 486.59 367.58 486.61 337.16 486.60 306.75 C 487.54 306.07 488.49 305.39 489.45 304.71 C 489.53 335.52 489.38 366.34 489.53 397.15 C 493.33 388.28 496.71 379.24 500.28 370.29 C 500.97 368.60 501.30 366.80 501.27 364.99 C 501.22 341.95 501.26 318.91 501.25 295.87 C 502.21 295.15 503.17 294.43 504.15 293.72 C 504.15 315.72 504.10 337.72 504.18 359.72 C 508.49 345.85 513.35 332.08 516.39 317.86 C 516.79 306.77 516.53 295.65 516.56 284.54 C 517.52 283.83 518.48 283.13 519.46 282.43 C 519.52 290.09 519.40 297.75 519.49 305.41 C 522.06 296.52 524.66 287.49 525.39 278.23 C 523.28 276.39 521.09 274.63 518.84 272.97 C 404.26 357.91 289.87 443.10 175.33 528.09 M 65.92 278.38 C 67.41 287.02 69.12 295.63 70.68 304.27 C 71.21 294.49 70.75 284.68 70.93 274.89 C 69.26 276.06 67.59 277.22 65.92 278.38 Z" />
<path fill="#dd3a33" opacity="1.00" d=" M 294.39 143.17 C 295.11 143.17 296.55 143.18 297.27 143.18 C 297.24 153.24 297.27 163.30 297.26 173.36 C 296.53 173.40 295.09 173.47 294.37 173.51 C 294.39 163.40 294.34 153.28 294.39 143.17 Z" />
<path fill="#dd3a33" opacity="1.00" d=" M 323.20 143.17 C 323.93 143.17 325.39 143.18 326.11 143.18 C 326.10 153.25 326.11 163.31 326.10 173.38 C 325.36 173.38 323.88 173.39 323.14 173.39 C 323.20 163.32 323.22 153.24 323.20 143.17 Z" />
<path fill="#dd3a33" opacity="1.00" d=" M 337.18 143.71 C 338.12 144.58 339.08 145.42 340.05 146.25 C 340.14 155.30 340.07 164.35 340.09 173.39 C 339.35 173.39 337.87 173.39 337.14 173.39 C 337.17 163.50 337.11 153.60 337.18 143.71 Z" />
<path fill="#dd3a33" opacity="1.00" d=" M 294.39 191.37 C 295.11 191.37 296.55 191.37 297.27 191.37 C 297.46 208.18 296.83 225.03 297.58 241.82 C 296.78 241.84 295.19 241.88 294.39 241.90 C 294.39 225.06 294.39 208.21 294.39 191.37 Z" />
<path fill="#dd3a33" opacity="1.00" d=" M 308.52 191.37 C 309.51 191.37 310.50 191.37 311.49 191.37 C 311.32 221.35 311.47 251.33 311.42 281.31 C 310.46 282.02 309.51 282.74 308.56 283.47 C 308.50 252.77 308.59 222.07 308.52 191.37 Z" />
<path fill="#dd3a33" opacity="1.00" d=" M 323.20 191.37 C 323.93 191.37 325.38 191.37 326.11 191.37 C 326.10 217.64 326.12 243.92 326.10 270.19 C 325.14 270.91 324.18 271.64 323.22 272.37 C 323.17 245.37 323.22 218.37 323.20 191.37 Z" />
<path fill="#dd3a33" opacity="1.00" d=" M 337.14 191.37 C 337.85 191.37 339.28 191.37 339.99 191.37 C 340.15 197.23 340.11 203.09 340.08 208.96 C 339.34 208.96 337.87 208.95 337.13 208.95 C 337.13 203.09 337.13 197.23 337.14 191.37 Z" />
<path fill="#dd3a33" opacity="1.00" d=" M 379.32 212.31 C 380.31 211.96 381.29 211.58 382.27 211.17 C 382.17 216.69 382.24 222.20 382.21 227.71 C 381.24 228.44 380.29 229.17 379.33 229.90 C 379.34 224.03 379.35 218.17 379.32 212.31 Z" />
<path fill="#dd3a33" opacity="1.00" d=" M 337.14 213.08 C 337.87 213.08 339.33 213.09 340.06 213.10 C 340.07 228.61 340.06 244.11 340.07 259.62 C 339.09 260.36 338.11 261.10 337.14 261.85 C 337.15 245.59 337.15 229.33 337.14 213.08 Z" />
<path fill="#dd3a33" opacity="1.00" d=" M 351.08 213.01 C 351.80 212.99 353.25 212.94 353.97 212.92 C 354.02 224.96 353.93 237.01 354.02 249.05 C 353.04 249.79 352.06 250.53 351.09 251.28 C 351.08 238.52 351.09 225.77 351.08 213.01 Z" />
<path fill="#dd3a33" opacity="1.00" d=" M 155.67 239.04 C 156.39 238.92 157.82 238.69 158.54 238.58 C 158.56 271.62 158.58 304.67 158.57 337.71 C 157.61 337.58 156.65 337.41 155.70 337.23 C 155.71 304.50 155.63 271.77 155.67 239.04 Z" />
<path fill="#dd3a33" opacity="1.00" d=" M 169.37 239.49 C 170.35 239.90 171.32 240.35 172.27 240.82 C 172.09 249.11 172.51 257.41 172.01 265.69 C 172.01 266.53 172.03 268.22 172.04 269.07 C 172.34 281.81 172.44 294.59 171.98 307.33 C 171.92 308.59 171.92 309.86 171.98 311.13 C 172.54 319.28 172.07 327.45 172.28 335.61 C 171.31 336.07 170.33 336.49 169.34 336.88 C 169.39 304.42 169.32 271.96 169.37 239.49 Z" />
<path fill="#dd3a33" opacity="1.00" d=" M 280.23 245.92 C 280.96 245.92 282.42 245.91 283.15 245.91 C 283.13 264.85 283.12 283.78 283.16 302.71 C 282.18 303.45 281.20 304.18 280.23 304.93 C 280.24 285.26 280.24 265.59 280.23 245.92 Z" />
<path fill="#dd3a33" opacity="1.00" d=" M 294.38 245.98 C 295.18 246.00 296.79 246.05 297.59 246.07 C 296.82 261.37 297.48 276.71 297.25 292.03 C 296.30 292.74 295.35 293.46 294.41 294.19 C 294.35 278.12 294.42 262.05 294.38 245.98 Z" />
<path fill="#dd3a33" opacity="1.00" d=" M 182.94 269.02 C 183.68 269.01 185.14 269.00 185.88 268.99 C 185.85 281.77 185.87 294.56 185.87 307.34 C 185.14 307.35 183.68 307.37 182.95 307.38 C 182.94 294.59 182.96 281.80 182.94 269.02 Z" />
<path fill="#dd3a33" opacity="1.00" d=" M 127.92 298.37 C 128.89 304.22 129.96 310.05 130.84 315.91 C 130.55 349.99 130.79 384.06 130.71 418.14 C 129.75 418.86 128.79 419.58 127.83 420.32 C 127.87 379.67 127.70 339.02 127.92 298.37 Z" />
<path fill="#dd3a33" opacity="1.00" d=" M 182.98 329.65 C 184.92 323.67 185.45 317.40 185.67 311.15 C 186.13 332.88 185.71 354.63 185.88 376.37 C 184.91 377.10 183.94 377.83 182.97 378.57 C 182.95 362.26 182.91 345.95 182.98 329.65 Z" />
<path fill="#dd3a33" opacity="1.00" d=" M 141.77 335.50 C 142.71 336.29 143.66 337.09 144.66 337.83 C 144.60 361.08 144.63 384.34 144.64 407.60 C 143.69 408.31 142.74 409.02 141.79 409.75 C 141.72 385.00 141.77 360.25 141.77 335.50 Z" />
<path fill="#dd3a33" opacity="1.00" d=" M 169.37 341.36 C 170.32 341.15 171.28 340.91 172.23 340.65 C 172.27 355.99 172.20 371.34 172.26 386.69 C 171.29 387.42 170.31 388.16 169.34 388.90 C 169.37 373.05 169.33 357.21 169.37 341.36 Z" />
<path fill="#dd3a33" opacity="1.00" d=" M 155.69 341.91 C 156.40 341.97 157.84 342.09 158.56 342.15 C 158.53 356.76 158.56 371.37 158.54 385.98 C 158.56 389.57 158.34 393.19 158.88 396.76 L 159.15 397.41 C 157.95 397.89 156.76 398.43 155.68 399.15 C 155.69 380.07 155.66 360.99 155.69 341.91 Z" />
<path fill="#dd3a33" opacity="1.00" d=" M 429.91 348.76 C 430.87 348.04 431.83 347.33 432.80 346.62 C 432.90 378.12 432.69 409.63 432.90 441.14 C 431.98 439.38 430.99 437.66 429.85 436.05 C 429.97 406.96 429.86 377.86 429.91 348.76 Z" />
<path fill="#dd3a33" opacity="1.00" d=" M 415.96 359.09 C 416.92 358.37 417.89 357.65 418.87 356.93 C 418.86 380.12 418.90 403.31 418.85 426.50 C 417.89 425.86 416.94 425.24 415.95 424.67 C 415.97 402.81 415.96 380.95 415.96 359.09 Z" />
<path fill="#dd3a33" opacity="1.00" d=" M 402.15 369.34 C 403.11 368.63 404.06 367.91 405.04 367.20 C 405.09 385.02 405.05 402.84 405.06 420.66 C 404.34 420.53 402.89 420.25 402.16 420.11 C 402.16 403.19 402.18 386.27 402.15 369.34 Z" />
<path fill="#dd3a33" opacity="1.00" d=" M 388.44 379.51 C 389.58 378.67 390.71 377.83 391.84 376.98 C 391.41 378.97 391.29 381.01 391.29 383.06 C 391.37 395.32 391.30 407.58 391.34 419.84 C 390.61 419.84 389.17 419.84 388.45 419.85 C 388.45 406.40 388.46 392.95 388.44 379.51 Z" />
<path fill="#dd3a33" opacity="1.00" d=" M 374.76 389.65 C 375.72 388.93 376.68 388.22 377.64 387.51 C 377.65 398.29 377.62 409.06 377.66 419.84 C 376.93 419.84 375.48 419.84 374.75 419.84 C 374.77 409.78 374.76 399.71 374.76 389.65 Z" />
<path fill="#dd3a33" opacity="1.00" d=" M 360.99 399.86 C 361.95 399.13 362.92 398.41 363.89 397.70 C 363.91 405.08 363.90 412.46 363.90 419.84 C 363.17 419.84 361.70 419.84 360.97 419.84 C 361.00 413.17 360.97 406.51 360.99 399.86 Z" />
<path fill="#dd3a33" opacity="1.00" d=" M 333.92 419.92 C 334.88 419.20 335.84 418.48 336.81 417.77 C 336.88 472.04 336.74 526.31 336.88 580.58 C 335.90 580.18 334.91 579.81 333.91 579.48 C 333.92 526.29 333.90 473.11 333.92 419.92 Z" />
<path fill="#dd3a33" opacity="1.00" d=" M 374.81 425.80 C 375.52 425.81 376.92 425.82 377.63 425.83 C 377.65 442.58 377.64 459.33 377.63 476.08 C 376.86 476.16 375.32 476.32 374.55 476.40 C 375.12 459.54 374.61 442.67 374.81 425.80 Z" />
<path fill="#dd3a33" opacity="1.00" d=" M 388.47 425.83 C 389.18 425.83 390.60 425.83 391.32 425.83 C 391.33 442.59 391.33 459.36 391.31 476.12 C 390.60 476.12 389.18 476.12 388.47 476.12 C 388.44 459.35 388.44 442.59 388.47 425.83 Z" />
<path fill="#dd3a33" opacity="1.00" d=" M 402.16 426.41 C 403.14 426.83 404.13 427.25 405.12 427.67 C 404.96 443.35 405.16 459.03 405.01 474.71 L 405.01 474.91 C 404.30 475.12 402.88 475.53 402.17 475.74 C 402.16 459.30 402.17 442.85 402.16 426.41 Z" />
<path fill="#dd3a33" opacity="1.00" d=" M 306.98 439.89 C 307.95 439.17 308.92 438.45 309.89 437.74 C 309.89 466.76 309.97 495.78 309.85 524.80 C 308.95 523.10 308.00 521.44 306.94 519.85 C 307.04 493.20 306.95 466.54 306.98 439.89 Z" />
<path fill="#dd3a33" opacity="1.00" d=" M 415.93 438.51 C 416.99 440.19 418.14 441.85 418.85 443.73 C 418.92 448.92 418.92 454.11 418.86 459.31 C 418.40 461.36 417.12 463.10 415.98 464.83 C 415.93 456.06 416.01 447.28 415.93 438.51 Z" />
<path fill="#dd3a33" opacity="1.00" d=" M 293.19 450.12 C 294.15 449.40 295.12 448.68 296.10 447.96 C 296.12 468.52 296.11 489.08 296.10 509.63 C 295.15 509.04 294.19 508.48 293.21 507.96 C 293.19 488.68 293.23 469.40 293.19 450.12 Z" />
<path fill="#dd3a33" opacity="1.00" d=" M 279.93 459.95 C 280.89 459.23 281.86 458.51 282.83 457.80 C 282.83 473.34 282.81 488.89 282.83 504.43 C 281.85 504.23 280.88 504.06 279.90 503.91 C 279.96 489.26 279.90 474.60 279.93 459.95 Z" />
<path fill="#dd3a33" opacity="1.00" d=" M 253.00 479.92 C 253.97 479.20 254.93 478.48 255.90 477.77 C 255.91 486.20 255.90 494.63 255.91 503.07 C 255.19 503.06 253.74 503.06 253.02 503.05 C 253.01 495.34 253.03 487.63 253.00 479.92 Z" />
<path fill="#dd3a33" opacity="1.00" d=" M 374.80 482.05 C 375.51 482.01 376.93 481.94 377.64 481.90 C 377.63 490.79 377.64 499.67 377.64 508.56 C 376.93 508.51 375.53 508.41 374.82 508.36 C 374.77 499.59 374.79 490.82 374.80 482.05 Z" />
<path fill="#dd3a33" opacity="1.00" d=" M 402.16 481.92 C 402.89 481.93 404.35 481.93 405.08 481.93 C 405.07 488.44 405.05 494.95 405.08 501.46 C 404.34 501.39 402.88 501.23 402.14 501.16 C 402.19 494.74 402.15 488.33 402.16 481.92 Z" />
<path fill="#dd3a33" opacity="1.00" d=" M 279.88 510.44 C 280.62 510.47 282.11 510.53 282.85 510.56 C 282.81 527.18 282.81 543.80 282.85 560.43 C 282.12 560.39 280.66 560.32 279.92 560.29 C 279.89 543.67 279.97 527.05 279.88 510.44 Z" />
<path fill="#dd3a33" opacity="1.00" d=" M 293.26 519.36 C 294.22 520.80 295.25 522.20 296.06 523.75 C 296.21 531.86 296.04 539.98 296.15 548.10 C 295.52 549.93 294.30 551.49 293.26 553.10 C 293.17 541.86 293.18 530.61 293.26 519.36 Z" />
<path fill="#dd3a33" opacity="1.00" d=" M 306.97 559.04 C 308.04 557.68 309.02 556.25 309.94 554.79 C 309.83 563.92 309.95 573.05 309.91 582.18 C 309.26 582.12 307.97 581.99 307.32 581.93 C 307.19 580.77 307.07 579.61 306.96 578.47 C 306.95 571.99 307.01 565.51 306.97 559.04 Z" />
<path fill="#dd3a33" opacity="1.00" d=" M 293.22 568.40 C 294.21 568.98 295.20 569.60 296.14 570.27 C 296.09 574.27 296.10 578.28 296.10 582.29 C 295.10 582.32 294.10 582.36 293.11 582.42 C 293.27 577.74 293.20 573.07 293.22 568.40 Z" />
</g>
<g id="#e1dcd5ff">
<path fill="#e1dcd5" opacity="1.00" d=" M 10.80 268.65 C 16.76 263.55 22.92 258.67 28.46 253.11 C 28.36 256.47 30.37 259.28 31.31 262.38 C 32.06 264.84 32.66 267.35 33.53 269.77 L 33.60 269.98 C 32.09 270.33 30.59 271.05 29.01 270.81 C 22.94 270.10 16.86 269.39 10.80 268.65 Z" />
<path fill="#e1dcd5" opacity="1.00" d=" M 567.17 256.82 C 571.04 260.16 575.12 263.29 578.76 266.90 C 573.87 267.84 568.92 268.44 564.00 269.21 C 566.14 265.52 569.66 261.22 567.17 256.82 Z" />
<path fill="#e1dcd5" opacity="1.00" d=" M 559.03 275.26 C 566.71 274.40 574.37 273.22 582.09 272.67 C 581.07 273.63 580.11 274.71 579.69 276.08 C 574.67 290.58 570.35 305.33 564.73 319.62 C 563.05 324.08 562.06 328.78 560.05 333.11 C 556.94 339.24 555.25 345.95 552.10 352.07 C 548.31 361.99 543.54 371.49 539.33 381.23 C 536.34 386.71 533.58 392.30 531.09 398.02 C 522.67 414.11 514.09 430.14 504.63 445.66 C 501.84 449.93 500.02 454.76 496.93 458.84 C 490.47 467.82 485.21 477.61 478.47 486.40 C 473.91 492.56 469.76 499.01 464.96 504.99 C 459.93 511.31 455.65 518.21 450.05 524.05 C 446.20 529.51 441.23 534.02 437.44 539.51 C 432.41 546.09 426.20 551.62 420.79 557.86 C 410.65 569.32 399.67 579.99 388.82 590.77 C 378.87 600.89 367.69 609.67 357.32 619.35 C 351.50 624.56 344.98 628.91 339.17 634.15 C 332.66 639.88 325.02 644.05 317.84 648.85 C 313.86 651.46 309.13 652.48 304.58 653.60 C 302.96 654.23 301.63 652.83 300.26 652.25 C 315.40 640.19 329.81 627.25 343.99 614.08 C 356.85 601.59 370.00 589.35 381.76 575.79 C 395.16 560.85 408.41 545.75 420.56 529.76 C 421.27 529.67 422.69 529.47 423.41 529.38 C 429.09 523.43 433.80 516.69 439.11 510.43 C 442.31 505.06 446.93 500.75 450.40 495.56 C 453.74 492.03 456.03 487.72 459.21 484.07 C 461.46 481.48 462.48 478.06 464.91 475.59 C 468.66 471.56 470.44 466.18 474.03 462.03 C 476.42 459.25 477.67 455.76 479.73 452.77 C 484.86 445.46 488.69 437.32 494.02 430.14 C 500.07 418.28 506.38 406.55 512.90 394.94 C 515.32 391.58 516.15 387.40 518.44 383.97 C 520.65 380.95 520.66 376.90 523.01 373.96 C 526.91 368.01 528.50 360.91 531.51 354.51 C 535.01 346.82 538.90 339.26 541.32 331.13 C 542.15 328.23 543.38 325.47 544.74 322.79 C 546.55 319.26 546.94 315.20 548.70 311.65 C 550.31 308.36 551.46 304.88 552.40 301.35 C 553.30 297.81 555.67 294.80 556.13 291.14 C 556.67 286.50 559.18 282.46 560.69 278.12 C 560.13 277.16 559.57 276.21 559.03 275.26 Z" />
<path fill="#e1dcd5" opacity="1.00" d=" M 8.72 277.24 C 8.76 276.48 8.80 275.73 8.84 274.98 C 14.82 275.34 20.77 275.90 26.74 276.40 C 27.76 280.27 28.94 284.10 30.26 287.89 C 32.46 294.15 33.71 300.71 36.19 306.89 C 38.78 313.17 40.12 319.89 42.91 326.11 C 46.81 336.69 50.76 347.25 54.93 357.73 C 62.14 370.46 66.55 384.57 73.76 397.32 C 75.80 401.83 79.03 405.70 80.85 410.33 C 82.76 415.69 86.69 419.95 89.09 425.08 C 94.28 432.70 98.54 440.89 103.41 448.71 C 107.97 454.92 111.43 461.85 116.21 467.91 C 119.86 472.32 122.09 477.76 126.36 481.69 C 131.45 489.76 138.02 496.72 143.61 504.44 C 147.45 509.88 152.49 514.34 156.19 519.90 C 158.72 523.62 161.72 526.99 165.03 530.04 C 169.74 534.42 172.12 540.72 176.96 544.99 C 178.04 545.68 179.46 545.30 180.68 545.46 C 185.40 551.00 189.99 556.65 194.77 562.15 C 204.85 574.40 216.06 585.62 226.96 597.12 C 246.84 617.97 269.56 635.76 291.62 654.21 C 289.73 654.57 287.65 655.45 285.84 654.31 C 282.41 652.67 278.64 651.75 275.45 649.65 C 272.75 647.90 269.92 646.37 267.16 644.72 C 260.54 640.51 255.05 634.74 248.37 630.61 C 243.91 627.86 240.82 623.52 236.69 620.36 C 231.77 616.64 227.66 611.97 222.59 608.44 C 213.37 601.79 206.43 592.59 197.54 585.56 C 191.60 580.85 186.70 575.03 180.85 570.23 C 177.32 567.39 174.95 563.44 171.85 560.18 C 163.05 550.96 154.87 541.16 146.11 531.90 C 138.48 521.59 129.47 512.36 122.32 501.69 C 120.08 498.59 117.00 496.15 115.22 492.72 C 112.51 487.78 108.35 483.87 105.31 479.16 C 102.91 475.67 101.11 471.80 98.60 468.38 C 92.71 461.09 87.95 453.00 82.77 445.22 C 79.05 437.49 74.43 430.25 70.39 422.68 C 67.67 417.43 64.11 412.64 61.73 407.21 C 55.94 395.06 49.28 383.32 44.25 370.83 C 42.38 367.22 40.41 363.60 39.86 359.50 C 39.32 359.86 38.77 360.22 38.23 360.59 C 38.20 358.63 38.57 356.47 37.30 354.79 C 34.48 350.59 34.31 345.36 32.20 340.85 C 29.09 334.01 27.13 326.73 24.09 319.87 C 22.13 315.43 21.43 310.59 19.87 306.02 C 17.47 298.58 14.28 291.25 13.81 283.35 C 13.31 283.71 12.82 284.07 12.32 284.45 C 11.75 281.87 11.20 279.09 8.91 277.44 L 8.72 277.24 Z" />
<path fill="#e1dcd5" opacity="1.00" d=" M 284.43 630.32 C 286.78 630.78 289.12 631.25 291.46 631.72 C 291.97 633.99 292.51 636.26 292.99 638.54 C 293.40 641.32 293.17 644.14 293.14 646.94 C 289.60 644.38 286.25 641.58 282.86 638.83 C 282.86 637.29 282.79 635.75 282.97 634.23 C 283.42 632.91 283.93 631.61 284.43 630.32 Z" />
</g>
<g id="#d1ccc6ff">
<path fill="#d1ccc6" opacity="1.00" d=" M 582.09 272.67 L 583.03 271.99 C 582.96 272.75 582.84 274.27 582.77 275.03 C 577.76 299.43 571.40 323.58 563.26 347.13 C 547.36 393.12 528.73 438.49 503.10 479.99 C 492.78 497.22 482.88 514.74 471.06 531.01 C 460.67 546.70 449.54 561.94 437.07 576.04 C 414.35 604.11 389.14 630.10 362.40 654.35 C 342.43 672.31 321.23 688.84 300.02 705.30 C 300.31 698.25 299.54 691.21 299.53 684.16 C 299.43 673.81 299.24 663.47 299.16 653.12 C 299.52 652.83 299.89 652.54 300.26 652.25 C 301.63 652.83 302.96 654.23 304.58 653.60 C 309.13 652.48 313.86 651.46 317.84 648.85 C 325.02 644.05 332.66 639.88 339.17 634.15 C 344.98 628.91 351.50 624.56 357.32 619.35 C 367.69 609.67 378.87 600.89 388.82 590.77 C 399.67 579.99 410.65 569.32 420.79 557.86 C 426.20 551.62 432.41 546.09 437.44 539.51 C 441.23 534.02 446.20 529.51 450.05 524.05 C 455.65 518.21 459.93 511.31 464.96 504.99 C 469.76 499.01 473.91 492.56 478.47 486.40 C 485.21 477.61 490.47 467.82 496.93 458.84 C 500.02 454.76 501.84 449.93 504.63 445.66 C 514.09 430.14 522.67 414.11 531.09 398.02 C 533.58 392.30 536.34 386.71 539.33 381.23 C 543.54 371.49 548.31 361.99 552.10 352.07 C 555.25 345.95 556.94 339.24 560.05 333.11 C 562.06 328.78 563.05 324.08 564.73 319.62 C 570.35 305.33 574.67 290.58 579.69 276.08 C 580.11 274.71 581.07 273.63 582.09 272.67 Z" />
<path fill="#d1ccc6" opacity="1.00" d=" M 8.91 277.44 C 11.20 279.09 11.75 281.87 12.32 284.45 C 12.82 284.07 13.31 283.71 13.81 283.35 C 14.28 291.25 17.47 298.58 19.87 306.02 C 21.43 310.59 22.13 315.43 24.09 319.87 C 27.13 326.73 29.09 334.01 32.20 340.85 C 34.31 345.36 34.48 350.59 37.30 354.79 C 38.57 356.47 38.20 358.63 38.23 360.59 C 38.77 360.22 39.32 359.86 39.86 359.50 C 40.41 363.60 42.38 367.22 44.25 370.83 C 49.28 383.32 55.94 395.06 61.73 407.21 C 64.11 412.64 67.67 417.43 70.39 422.68 C 74.43 430.25 79.05 437.49 82.77 445.22 C 87.95 453.00 92.71 461.09 98.60 468.38 C 101.11 471.80 102.91 475.67 105.31 479.16 C 108.35 483.87 112.51 487.78 115.22 492.72 C 117.00 496.15 120.08 498.59 122.32 501.69 C 129.47 512.36 138.48 521.59 146.11 531.90 C 154.87 541.16 163.05 550.96 171.85 560.18 C 174.95 563.44 177.32 567.39 180.85 570.23 C 186.70 575.03 191.60 580.85 197.54 585.56 C 206.43 592.59 213.37 601.79 222.59 608.44 C 227.66 611.97 231.77 616.64 236.69 620.36 C 240.82 623.52 243.91 627.86 248.37 630.61 C 255.05 634.74 260.54 640.51 267.16 644.72 C 269.92 646.37 272.75 647.90 275.45 649.65 C 278.64 651.75 282.41 652.67 285.84 654.31 C 287.65 655.45 289.73 654.57 291.62 654.21 C 292.30 654.71 292.99 655.20 293.71 655.67 C 293.64 671.90 293.65 688.13 293.60 704.36 C 261.89 683.12 232.59 658.44 205.36 631.72 C 174.51 602.05 146.60 569.42 121.19 535.00 C 113.33 522.56 104.52 510.75 96.52 498.40 C 87.25 482.90 78.46 467.11 69.69 451.32 C 64.12 440.10 59.03 428.64 53.69 417.31 C 45.38 399.33 38.88 380.59 32.29 361.93 C 24.54 339.96 18.05 317.54 12.67 294.87 C 11.37 289.07 9.71 283.34 8.91 277.44 Z" />
<path fill="#d1ccc6" opacity="1.00" d=" M 374.00 425.85 L 374.81 425.80 C 374.61 442.67 375.12 459.54 374.55 476.40 C 374.13 474.96 373.92 473.48 373.97 471.99 C 374.03 456.61 373.98 441.23 374.00 425.85 Z" />
<path fill="#d1ccc6" opacity="1.00" d=" M 374.08 482.22 L 374.80 482.05 C 374.79 490.82 374.77 499.59 374.82 508.36 L 374.00 508.31 C 374.06 499.62 373.88 490.92 374.08 482.22 Z" />
</g>
</svg>
