<?xml version="1.0" encoding="utf-8"?>
<!-- Generator: Adobe Illustrator 16.0.3, SVG Export Plug-In . SVG Version: 6.00 Build 0)  -->
<!DOCTYPE svg PUBLIC "-//W3C//DTD SVG 1.1//EN" "http://www.w3.org/Graphics/SVG/1.1/DTD/svg11.dtd">
<svg version="1.1" id="Capa_1" xmlns="http://www.w3.org/2000/svg" xmlns:xlink="http://www.w3.org/1999/xlink" x="0px" y="0px"
	 width="390.563px" height="386.61px" viewBox="20.637 29.64 390.563 386.61" enable-background="new 20.637 29.64 390.563 386.61"
	 xml:space="preserve">
<g id="_x23_ffffffff">
	<path fill="#FFFFFF" d="M23.15,114.13C43.8,86.9,64.05,59.36,84.8,32.2c32.36,10.47,65.48,19.52,99.46,22.63
		c7.58,0.63,15.2,0.91,22.77,1.7c11.66,0.22,23.32-0.51,34.951-1.36c21.41-1.34,42.449-5.79,63.26-10.82
		c-19.461,17.13-38.45,34.79-57.79,52.05c-1.341,1.28-3.81,3.03-2.07,5.03c4.931,2.91,10.29,5.05,15.16,8.08
		c18.021,10.21,31.989,26.94,40.06,45.91c3.51,8.25,5.221,17.11,7.061,25.85c2.59-1.52,4.72-3.64,6.95-5.61
		c28.22-24.26,56.54-48.4,84.71-72.72c3.06,3.91,6.1,7.86,8.91,11.97c-6.841,5.54-14.12,10.69-19.78,17.52
		c-9.061,10.21-13.681,23.41-16.49,36.56c-2.11,6.95-2.78,14.21-4.5,21.26c-3.12,16.43-6.65,32.8-11.13,48.93
		c-5.78,21.74-14.42,42.759-25.95,62.1c-4.689,7.939-9.6,15.76-14.49,23.579c-14.62,18.82-30.46,37.011-49.52,51.49
		c-5.761,4.67-11.771,8.99-17.851,13.221c-4.939,3.3-8.899,7.79-13.47,11.55c-3.989,3.32-7.079,7.49-9.89,11.81
		c-5.08-7.859-12.79-13.279-19.77-19.289c-3.21-2.551-6.82-4.521-10.2-6.82c-16.37-10.551-31.85-22.59-45.37-36.641
		c-6.36-6.32-12.07-13.229-18.03-19.899c23.08-19.48,45.97-39.2,69.23-58.47c-0.1-1.86-2.24-1.851-3.54-2.48
		c-14.28-4.61-28.26-11.16-39.31-21.51c-10.14-8.96-17.94-20.38-23.1-32.86c-1.46-3.27-2.39-6.85-4.71-9.65
		c-14.92,13.9-29.87,27.78-44.68,41.81c-7.91-22.65-13.63-45.97-19.4-69.23c-4.37-16.52-9.51-33.83-21.95-46.23
		C38.18,124.73,29.84,120.41,23.15,114.13 M210.36,104.12c0.16,53.58,0.12,107.18,0.02,160.76c4.47,0.41,8.97,0.39,13.44-0.021
		c0.359-16.689-0.25-33.399,0.31-50.089c6.979,15.13,9.979,31.74,13.14,48c4.98-1.439,9.961-2.93,14.65-5.17
		c-0.42-7-2.42-13.84-3.939-20.68c-2.66-12.03-7.371-23.48-12.101-34.81c4.41-3.32,8.841-7.17,10.56-12.65
		c2.031-7.3,2.23-14.95,2.711-22.47c-0.16-5.66,1.18-11.28,0.56-16.94c-1.319-9.92,0.44-20.07-1.851-29.89
		c-1.209-5.51-4.399-10.82-9.469-13.57c-4.99-3.06-11.061-2.31-16.611-3.18C217.99,103.15,213.96,102.58,210.36,104.12
		 M138.14,167.07c-2.09,7.8-1.83,15.94-1.66,23.94c1.47,20.98,11.94,41.01,27.91,54.61c10.5,8.75,23.09,15.34,36.65,17.6
		c0.07-5.229,0.35-10.479-0.22-15.689c-18.8-4.26-34.92-17.91-43.12-35.25c-5.92-12.79-7.99-27.58-4.71-41.36
		c4.66-23.82,24.15-44.06,47.83-49.46c0.58-5.37,0.27-10.77,0.24-16.16C170.29,111,144.44,136.45,138.14,167.07 M259.99,115.73
		c-0.27,18.42-0.04,36.85-0.11,55.27c0.11,27.32-0.22,54.65,0.16,81.96c4.58-3.02,8.931-6.41,12.91-10.19
		c0.39-7.45-0.511-15.02,0.43-22.38c4.229-3.76,8.771-7.31,12.05-11.99c9.23-12.38,12.78-28.5,10.721-43.7
		c-1.541-6.47-3.68-12.91-7.391-18.49C281.391,134.22,271.4,123.93,259.99,115.73 M169.47,152.42c-6.11,8.65-9.25,19.12-9.94,29.62
		c-0.65,17.4,6.85,35.21,20.58,46.11c0.14-6.31,0.39-12.67-0.06-18.96c-4.49-5.78-7.82-12.58-8.15-20
		c5.4-0.08,10.81-0.04,16.22-0.03c0.24,14.88,0.04,29.77,0.1,44.66c3.98,2.44,8.23,4.46,12.84,5.33
		c0.11-36.43,0.11-72.87,0.01-109.3C188.23,133.02,176.84,141.5,169.47,152.42z"/>
	<path fill="#FFFFFF" d="M224.08,122.62c3.05,0.43,6.779-0.33,9.109,2.18c2.201,2.1,2.32,5.35,2.271,8.2
		c-0.101,13.67,0.09,27.34-0.09,41.01c0.17,5.61-5.2,11.8-11.11,9.94C223.99,163.5,224.35,143.06,224.08,122.62z"/>
	<path fill="#FFFFFF" d="M172.45,176.12c1.79-10.24,7.44-19.97,15.66-26.39c0.36,8.85,0.15,17.73,0.12,26.59
		C182.97,176.09,177.71,176.29,172.45,176.12z"/>
	<path fill="#FFFFFF" d="M272.971,157c0.039-1.99-0.25-4.1,0.76-5.92c6.979,6.62,9.129,16.7,9.6,25.94
		c-0.9,7.52-3.42,16.14-10.221,20.36C272.84,183.92,273.109,170.46,272.971,157z"/>
</g>
<g id="_x23_2c2c2cff">
	<path fill="#2C2C2C" d="M22.45,111.41C43.01,84.2,63.28,56.77,83.93,29.64c32.98,10.72,66.72,20,101.37,23.09
		c18.17,1.51,36.479,1.88,54.671,0.38c36.689-2.2,72.229-12.46,107.1-23.46c18.22,23.9,36.12,48.06,54.189,72.08
		c3.32,4.54,6.91,8.89,9.94,13.65c-3.38,2.92-6.98,5.56-10.46,8.35c-9.57,7.66-17.55,17.56-21.74,29.17
		c-3.86,10.64-6.19,21.77-8.3,32.87c-6.53,33.49-13.36,67.46-28.45,98.339c-6.96,14.61-15.79,28.201-24.26,41.961
		c-2.21,3.369-5.221,6.109-7.601,9.359c-13.52,17.33-29.28,32.93-46.88,46.101c-7.98,6.329-16.89,11.499-24.06,18.83
		c-5.66,4.3-9.82,10.04-13.74,15.89c-1.62-1.38-3.16-2.86-4.34-4.63c-3.91-5.72-9.71-9.66-14.85-14.16
		c-4.52-3.95-9.74-6.95-14.73-10.239c-19.39-12.761-37.41-27.751-52.67-45.291c-3.58-4.1-7.18-8.18-10.9-12.149
		c-12.9-18.55-25.86-37.29-35.08-58.021c-13.92-30.72-21.52-63.729-29.75-96.3c-3.14-10.61-6.07-21.49-11.94-30.99
		c-5.41-8.939-13.14-16.27-21.67-22.21c-3.16-2.28-6.66-4.24-9.11-7.36C20.4,113.48,21.84,112.54,22.45,111.41 M343.19,33.12
		c-12.48,4.28-25.301,7.52-37.95,11.23c-20.811,5.03-41.85,9.48-63.26,10.82c-11.631,0.85-23.291,1.58-34.951,1.36
		c-7.57-0.79-15.19-1.07-22.77-1.7c-33.98-3.11-67.1-12.16-99.46-22.63c-20.75,27.16-41,54.7-61.65,81.93
		c6.69,6.28,15.03,10.6,21.18,17.53c12.44,12.4,17.58,29.71,21.95,46.23c5.77,23.26,11.49,46.58,19.4,69.23
		c6.11,17.87,14.25,35.04,24.06,51.18c4.81,7.771,10,15.29,15.17,22.83c2.23,3.09,4.09,6.49,6.88,9.15
		c5.96,6.67,11.67,13.579,18.03,19.899c13.52,14.051,29,26.09,45.37,36.641c3.38,2.3,6.99,4.27,10.2,6.82
		c6.98,6.01,14.69,11.43,19.77,19.289c2.811-4.319,5.9-8.489,9.89-11.81c4.57-3.76,8.53-8.25,13.47-11.55
		c6.08-4.23,12.09-8.551,17.851-13.221c19.06-14.479,34.899-32.67,49.52-51.49c4.891-7.819,9.801-15.64,14.49-23.579
		c11.53-19.341,20.17-40.36,25.95-62.1c4.479-16.13,8.01-32.5,11.13-48.93c1.72-7.05,2.39-14.31,4.5-21.26
		c2.81-13.15,7.43-26.35,16.49-36.56c5.66-6.83,12.939-11.98,19.78-17.52c-2.811-4.11-5.851-8.06-8.91-11.97
		C382.15,79.7,364.64,56.7,347.4,33.52C346.58,31.72,344.56,32.78,343.19,33.12z"/>
</g>
<g id="_x23_ce001bff">
	<path fill="#CE001B" d="M343.19,33.12c1.369-0.34,3.39-1.4,4.21,0.4c17.239,23.18,34.75,46.18,51.92,69.42
		c-28.17,24.32-56.49,48.46-84.71,72.72c-2.23,1.97-4.36,4.09-6.95,5.61c-1.84-8.74-3.551-17.6-7.061-25.85
		c-8.07-18.97-22.039-35.7-40.06-45.91c-4.87-3.03-10.229-5.17-15.16-8.08c-1.739-2,0.729-3.75,2.07-5.03
		c19.34-17.26,38.329-34.92,57.79-52.05C317.89,40.64,330.71,37.4,343.19,33.12z"/>
	<linearGradient id="SVGID_1_" gradientUnits="userSpaceOnUse" x1="176.8037" y1="137.6763" x2="274.3237" y2="235.1962">
		<stop  offset="0.0739" style="stop-color:#FFA800"/>
		<stop  offset="0.1409" style="stop-color:#FF9600"/>
		<stop  offset="0.2346" style="stop-color:#FF8400"/>
		<stop  offset="0.3005" style="stop-color:#FF7D00"/>
		<stop  offset="0.357" style="stop-color:#FF8C00"/>
		<stop  offset="0.4439" style="stop-color:#FF9E00"/>
		<stop  offset="0.5074" style="stop-color:#FFA400"/>
		<stop  offset="0.7044" style="stop-color:#FF7D00"/>
		<stop  offset="0.9261" style="stop-color:#FFA800"/>
	</linearGradient>
	<path fill="url(#SVGID_1_)" d="M210.36,104.12c3.6-1.54,7.63-0.97,11.419-0.71c5.551,0.87,11.621,0.12,16.611,3.18
		c5.069,2.75,8.26,8.06,9.469,13.57c2.291,9.82,0.531,19.97,1.851,29.89c0.62,5.66-0.72,11.28-0.56,16.94
		c-0.48,7.52-0.68,15.17-2.711,22.47c-1.719,5.48-6.149,9.33-10.56,12.65c4.729,11.33,9.44,22.78,12.101,34.81
		c1.52,6.84,3.52,13.68,3.939,20.68c-4.689,2.24-9.67,3.73-14.65,5.17c-3.16-16.26-6.16-32.87-13.14-48
		c-0.56,16.69,0.05,33.4-0.31,50.089c-4.471,0.41-8.97,0.431-13.44,0.021C210.48,211.3,210.52,157.7,210.36,104.12 M224.08,122.62
		c0.27,20.44-0.09,40.88,0.18,61.33c5.91,1.86,11.28-4.33,11.11-9.94c0.18-13.67-0.011-27.34,0.09-41.01
		c0.05-2.85-0.069-6.1-2.271-8.2C230.859,122.29,227.13,123.05,224.08,122.62z"/>
	<linearGradient id="SVGID_2_" gradientUnits="userSpaceOnUse" x1="147.1733" y1="140.0859" x2="235.6742" y2="228.5868">
		<stop  offset="0.0739" style="stop-color:#FFA800"/>
		<stop  offset="0.1409" style="stop-color:#FF9600"/>
		<stop  offset="0.2346" style="stop-color:#FF8400"/>
		<stop  offset="0.3005" style="stop-color:#FF7D00"/>
		<stop  offset="0.357" style="stop-color:#FF8C00"/>
		<stop  offset="0.4439" style="stop-color:#FF9E00"/>
		<stop  offset="0.5074" style="stop-color:#FFA400"/>
		<stop  offset="0.7044" style="stop-color:#FF7D00"/>
		<stop  offset="0.9261" style="stop-color:#FFA800"/>
	</linearGradient>
	<path fill="url(#SVGID_2_)" d="M138.14,167.07c6.3-30.62,32.15-56.07,62.92-61.77c0.03,5.39,0.34,10.79-0.24,16.16
		c-23.68,5.4-43.17,25.64-47.83,49.46c-3.28,13.78-1.21,28.57,4.71,41.36c8.2,17.34,24.32,30.99,43.12,35.25
		c0.57,5.21,0.29,10.46,0.22,15.689c-13.56-2.26-26.15-8.85-36.65-17.6c-15.97-13.6-26.44-33.63-27.91-54.61
		C136.31,183.01,136.05,174.87,138.14,167.07z"/>
	<linearGradient id="SVGID_3_" gradientUnits="userSpaceOnUse" x1="226.2285" y1="149.4927" x2="296.2286" y2="219.4928">
		<stop  offset="0.0739" style="stop-color:#FFA800"/>
		<stop  offset="0.1409" style="stop-color:#FF9600"/>
		<stop  offset="0.2346" style="stop-color:#FF8400"/>
		<stop  offset="0.3005" style="stop-color:#FF7D00"/>
		<stop  offset="0.357" style="stop-color:#FF8C00"/>
		<stop  offset="0.4439" style="stop-color:#FF9E00"/>
		<stop  offset="0.5074" style="stop-color:#FFA400"/>
		<stop  offset="0.7044" style="stop-color:#FF7D00"/>
		<stop  offset="0.9261" style="stop-color:#FFA800"/>
	</linearGradient>
	<path fill="url(#SVGID_3_)" d="M259.99,115.73c11.41,8.2,21.4,18.49,28.77,30.48c3.711,5.58,5.85,12.02,7.391,18.49
		c2.06,15.2-1.49,31.32-10.721,43.7c-3.279,4.68-7.82,8.23-12.05,11.99c-0.94,7.36-0.04,14.93-0.43,22.38
		c-3.979,3.78-8.33,7.17-12.91,10.19c-0.38-27.31-0.05-54.64-0.16-81.96C259.95,152.58,259.721,134.15,259.99,115.73 M272.971,157
		c0.139,13.46-0.131,26.92,0.139,40.38c6.801-4.22,9.32-12.84,10.221-20.36c-0.471-9.24-2.62-19.32-9.6-25.94
		C272.721,152.9,273.01,155.01,272.971,157z"/>
	<linearGradient id="SVGID_4_" gradientUnits="userSpaceOnUse" x1="165.896" y1="154.5381" x2="225.7846" y2="214.4267">
		<stop  offset="0.0739" style="stop-color:#FFA800"/>
		<stop  offset="0.1409" style="stop-color:#FF9600"/>
		<stop  offset="0.2346" style="stop-color:#FF8400"/>
		<stop  offset="0.3005" style="stop-color:#FF7D00"/>
		<stop  offset="0.357" style="stop-color:#FF8C00"/>
		<stop  offset="0.4439" style="stop-color:#FF9E00"/>
		<stop  offset="0.5074" style="stop-color:#FFA400"/>
		<stop  offset="0.7044" style="stop-color:#FF7D00"/>
		<stop  offset="0.9261" style="stop-color:#FFA800"/>
	</linearGradient>
	<path fill="url(#SVGID_4_)" d="M169.47,152.42c7.37-10.92,18.76-19.4,31.6-22.57c0.1,36.43,0.1,72.87-0.01,109.3
		c-4.61-0.87-8.86-2.89-12.84-5.33c-0.06-14.89,0.14-29.78-0.1-44.66c-5.41-0.01-10.82-0.05-16.22,0.03
		c0.33,7.42,3.66,14.22,8.15,20c0.45,6.29,0.2,12.65,0.06,18.96c-13.73-10.9-21.23-28.71-20.58-46.11
		C160.22,171.54,163.36,161.07,169.47,152.42 M172.45,176.12c5.26,0.17,10.52-0.03,15.78,0.2c0.03-8.86,0.24-17.74-0.12-26.59
		C179.89,156.15,174.24,165.88,172.45,176.12z"/>
	<path fill="#CE001B" d="M85.68,247.12c14.81-14.03,29.76-27.91,44.68-41.81c2.32,2.8,3.25,6.38,4.71,9.65
		c5.16,12.48,12.96,23.9,23.1,32.86c11.05,10.35,25.03,16.9,39.31,21.51c1.3,0.63,3.44,0.62,3.54,2.48
		c-23.26,19.27-46.15,38.989-69.23,58.47c-2.79-2.66-4.65-6.061-6.88-9.15c-5.17-7.54-10.36-15.06-15.17-22.83
		C99.93,282.16,91.79,264.99,85.68,247.12z"/>
</g>
</svg>
