<?xml version="1.0" encoding="UTF-8" ?>
<!DOCTYPE svg PUBLIC "-//W3C//DTD SVG 1.1//EN" "http://www.w3.org/Graphics/SVG/1.1/DTD/svg11.dtd">
<svg width="759pt" height="743pt" viewBox="0 0 759 743" version="1.1" xmlns="http://www.w3.org/2000/svg">
<g id="#000000ff">
<path fill="#000000" opacity="1.00" d=" M 365.22 12.21 C 370.44 6.87 379.78 6.64 385.26 11.73 C 388.13 13.99 389.19 17.61 390.19 20.97 C 391.39 20.97 392.60 20.97 393.81 20.97 C 394.82 17.37 396.09 13.54 399.28 11.27 C 405.39 6.09 415.52 7.35 420.23 13.82 C 422.07 16.24 422.63 19.31 423.22 22.22 C 424.50 22.37 425.79 22.51 427.08 22.65 C 428.62 19.53 430.38 16.30 433.43 14.42 C 439.19 10.51 447.64 11.53 452.28 16.72 C 455.03 19.30 455.41 23.18 456.38 26.61 C 456.88 27.78 458.48 27.42 459.48 27.85 C 461.30 23.81 464.41 20.13 468.78 18.80 C 475.30 16.47 483.24 19.50 486.39 25.69 C 488.04 28.81 487.93 32.43 488.18 35.85 C 488.83 35.88 490.12 35.95 490.76 35.98 C 492.90 32.16 496.11 28.63 500.53 27.57 C 507.63 25.41 516.07 29.61 518.25 36.79 C 519.38 39.75 518.82 42.95 518.25 45.96 C 519.38 46.32 520.51 46.67 521.65 47.02 C 524.22 44.04 527.27 41.08 531.32 40.38 C 538.25 38.69 546.15 42.89 548.25 49.79 C 549.48 53.01 548.68 56.46 548.20 59.74 C 549.93 60.68 551.97 61.21 553.27 59.28 C 559.63 52.37 572.27 54.29 576.38 62.69 C 578.78 66.87 578.08 71.85 576.17 76.07 C 577.30 76.70 578.43 77.33 579.57 77.95 C 582.11 75.15 585.29 72.67 589.16 72.22 C 596.44 70.86 604.33 75.96 605.67 83.33 C 606.90 87.49 604.63 91.38 603.07 95.08 C 603.54 96.95 605.50 97.98 606.79 99.30 C 610.22 96.61 614.45 94.49 618.94 95.10 C 625.64 95.61 631.51 101.31 631.95 108.07 C 632.33 112.14 630.25 115.87 627.94 119.05 C 629.27 119.87 630.69 121.89 632.33 120.44 C 636.20 118.21 640.91 117.21 645.22 118.80 C 651.69 120.81 656.22 127.97 654.67 134.67 C 654.11 137.69 652.30 140.24 650.22 142.43 C 650.82 143.66 651.42 144.89 652.04 146.12 C 655.74 144.81 659.71 143.32 663.68 144.38 C 670.61 145.71 675.93 152.77 674.84 159.82 C 674.39 163.46 672.14 166.47 669.71 169.07 C 670.18 170.16 670.65 171.26 671.13 172.35 C 675.52 171.25 680.36 170.19 684.63 172.35 C 691.15 175.13 694.86 183.30 692.00 189.93 C 690.94 193.00 688.39 195.15 686.03 197.22 C 686.71 198.83 687.39 200.44 688.09 202.05 C 692.65 200.91 697.78 200.37 701.95 203.04 C 707.69 206.22 710.62 213.81 707.99 219.93 C 706.82 223.46 703.73 225.76 700.88 227.89 C 701.29 228.96 701.70 230.04 702.12 231.12 C 706.10 231.07 710.43 230.78 713.95 233.04 C 719.70 236.22 722.62 243.81 719.99 249.93 C 718.77 253.59 715.53 255.91 712.57 258.10 C 713.00 259.41 713.44 260.72 713.90 262.04 C 718.27 261.83 722.97 262.58 726.26 265.73 C 731.60 270.17 732.48 278.71 728.22 284.19 C 726.24 286.86 723.22 288.41 720.31 289.84 C 720.49 291.17 720.69 292.51 720.90 293.84 C 725.01 294.02 729.47 294.41 732.71 297.27 C 738.02 301.28 739.57 309.30 736.03 314.96 C 733.95 318.79 729.86 320.70 725.95 322.12 C 726.06 323.30 726.18 324.47 726.30 325.66 C 730.64 326.22 735.30 327.21 738.28 330.72 C 743.13 335.69 743.12 344.30 738.29 349.28 C 735.79 352.26 731.92 353.30 728.35 354.33 C 728.35 355.43 728.35 356.53 728.35 357.63 C 733.28 358.45 738.48 360.42 741.03 365.04 C 744.28 370.29 743.26 377.58 738.79 381.80 C 736.18 384.60 732.33 385.58 728.69 386.14 C 728.62 388.04 728.66 389.95 728.74 391.86 C 733.68 392.82 738.69 395.51 740.70 400.37 C 743.42 405.90 741.53 413.01 736.72 416.76 C 733.77 419.34 729.72 419.83 725.98 420.22 C 725.79 421.49 725.62 422.75 725.46 424.03 C 729.89 425.61 734.39 428.37 735.99 433.07 C 738.52 438.96 735.90 446.23 730.57 449.61 C 727.23 451.91 723.03 451.95 719.13 452.16 C 718.86 453.49 718.59 454.83 718.33 456.17 C 722.33 458.05 726.51 460.64 727.99 465.07 C 730.74 471.44 727.42 479.34 721.30 482.35 C 718.16 484.01 714.52 483.97 711.07 484.01 C 710.32 485.23 709.58 486.45 708.86 487.69 C 712.41 489.86 716.11 492.54 717.25 496.79 C 719.73 503.53 715.58 511.55 708.93 513.95 C 705.46 515.41 701.63 514.94 698.05 514.21 C 697.45 515.65 696.86 517.11 696.29 518.57 C 699.32 520.58 702.26 523.14 703.25 526.79 C 705.94 534.06 700.89 542.66 693.47 544.42 C 689.62 545.67 685.61 544.57 681.97 543.20 C 681.28 544.38 680.60 545.56 679.93 546.75 C 684.63 550.05 688.10 555.79 686.67 561.67 C 685.34 569.01 677.45 574.24 670.18 572.70 C 668.21 572.40 666.34 571.36 664.34 571.47 C 663.41 572.39 662.65 573.46 661.88 574.51 C 666.15 577.75 668.96 583.27 667.67 588.67 C 666.57 594.39 661.58 598.99 655.84 599.78 C 652.01 600.55 648.24 599.10 644.82 597.52 C 643.80 598.61 642.79 599.72 641.80 600.84 C 644.62 604.41 646.86 609.03 645.67 613.67 C 644.48 620.06 638.42 624.86 631.99 624.97 C 628.45 625.16 625.20 623.57 622.11 622.09 C 621.18 622.77 620.26 623.46 619.34 624.15 C 623.70 629.35 624.60 637.57 619.87 642.83 C 614.72 649.47 603.95 649.80 598.08 643.93 C 596.69 642.29 595.63 645.05 594.51 645.75 C 596.05 649.13 597.70 652.88 596.67 656.67 C 595.53 662.72 590.02 667.42 583.94 667.90 C 579.52 668.48 575.36 666.44 571.90 663.91 C 570.57 664.29 569.25 664.68 567.94 665.09 C 569.18 668.71 570.81 672.61 569.47 676.46 C 567.61 684.35 558.30 688.95 550.79 686.20 C 547.33 685.32 545.13 682.39 542.60 680.15 C 541.10 679.90 539.66 680.64 538.23 680.94 C 539.58 684.51 540.76 688.48 539.25 692.21 C 537.02 699.70 528.03 703.83 520.79 701.20 C 516.86 700.11 514.20 696.84 511.93 693.67 C 510.66 694.18 509.39 694.71 508.13 695.24 C 508.97 699.23 509.52 703.60 507.38 707.31 C 503.81 714.54 493.86 717.12 487.05 712.99 C 483.94 711.28 481.95 708.22 480.54 705.07 C 479.17 705.33 477.82 705.61 476.46 705.91 C 477.63 710.78 476.55 716.30 472.79 719.80 C 467.41 725.33 457.59 725.32 452.21 719.80 C 450.27 718.07 449.32 715.62 448.49 713.24 C 447.01 713.11 445.54 713.00 444.08 712.91 C 444.08 717.26 443.54 722.05 440.29 725.28 C 435.19 731.09 425.39 731.52 419.73 726.29 C 417.17 724.19 416.04 720.99 414.93 717.99 C 413.68 717.98 412.43 717.99 411.20 718.00 C 410.94 722.23 410.11 726.83 406.79 729.80 C 401.24 735.52 390.97 735.28 385.71 729.29 C 383.32 726.87 382.60 723.44 381.63 720.32 C 381.07 720.32 379.96 720.31 379.40 720.31 C 378.58 724.04 377.79 728.13 374.79 730.80 C 369.42 736.33 359.59 736.32 354.21 730.80 C 351.20 728.13 350.39 724.04 349.64 720.28 C 348.16 720.16 346.68 720.05 345.21 719.96 C 344.20 723.59 342.91 727.43 339.73 729.75 C 333.61 734.87 323.44 733.69 318.77 727.18 C 316.51 724.29 316.11 720.52 315.78 717.00 C 314.48 716.77 313.18 716.55 311.88 716.35 C 310.62 718.82 309.39 721.42 307.27 723.29 C 301.62 728.53 291.80 728.08 286.71 722.28 C 283.74 719.33 283.11 715.00 282.77 711.03 C 281.26 710.73 279.76 710.44 278.27 710.16 C 276.08 713.59 273.32 717.06 269.21 718.20 C 262.22 720.72 253.57 717.01 251.00 709.93 C 249.59 706.75 250.08 703.22 250.78 699.94 C 249.30 699.53 247.82 699.15 246.33 698.78 C 244.23 702.72 241.00 706.39 236.47 707.42 C 229.09 709.69 220.34 705.07 218.53 697.47 C 217.31 693.97 218.57 690.37 219.64 687.04 C 217.88 686.65 215.65 685.31 214.30 687.24 C 208.51 693.89 196.89 693.38 191.78 686.18 C 188.32 681.89 188.80 676.13 190.25 671.17 C 188.34 670.58 186.04 668.09 184.32 670.29 C 180.92 673.71 176.00 675.68 171.16 674.78 C 165.41 673.98 160.42 669.39 159.33 663.67 C 158.34 660.06 159.93 656.51 161.05 653.15 C 160.00 652.13 158.96 651.11 157.92 650.10 C 154.46 652.48 150.39 654.48 146.07 653.90 C 139.98 653.42 134.47 648.72 133.33 642.67 C 132.20 638.49 134.18 634.39 136.15 630.82 C 134.85 629.75 133.82 628.03 132.06 627.76 C 128.81 628.75 125.57 630.44 122.06 629.90 C 115.98 629.42 110.47 624.72 109.33 618.67 C 108.14 614.10 110.35 609.58 113.01 605.99 C 111.97 604.62 110.94 603.25 109.91 601.89 C 105.99 603.34 101.70 604.79 97.53 603.42 C 90.66 601.76 85.73 594.29 87.33 587.33 C 87.89 584.24 89.76 581.63 91.94 579.47 C 91.02 578.29 90.45 576.51 88.86 576.11 C 85.43 576.39 81.94 577.58 78.53 576.43 C 71.39 574.71 66.37 566.68 68.52 559.54 C 69.26 556.27 71.56 553.75 73.97 551.58 C 72.86 550.13 72.48 547.17 70.08 547.70 C 66.10 548.09 61.82 547.99 58.43 545.60 C 53.09 542.23 50.48 534.96 53.00 529.07 C 54.06 525.93 56.69 523.78 59.11 521.72 C 58.44 520.27 57.76 518.84 57.07 517.42 C 52.14 518.51 46.54 517.89 42.74 514.29 C 38.08 510.31 36.63 503.09 39.62 497.69 C 41.13 494.50 44.24 492.59 47.07 490.71 C 46.77 489.10 46.45 487.50 46.13 485.92 C 41.45 486.17 36.27 485.72 32.73 482.29 C 27.85 478.14 26.58 470.50 29.97 465.03 C 31.68 461.95 34.81 460.08 37.90 458.61 C 37.82 457.18 37.73 455.75 37.65 454.33 C 33.71 453.83 29.40 453.50 26.27 450.76 C 21.47 447.01 19.58 439.90 22.30 434.37 C 23.89 430.33 27.85 428.12 31.45 426.14 C 31.26 424.83 31.06 423.52 30.87 422.21 C 27.28 421.65 23.44 420.93 20.74 418.29 C 16.30 414.47 14.70 407.68 17.30 402.37 C 19.27 397.58 24.16 394.96 28.98 393.86 C 28.97 392.63 28.96 391.40 28.95 390.18 C 23.97 389.45 18.89 387.05 16.62 382.31 C 13.50 376.70 15.21 369.13 20.29 365.26 C 22.54 363.39 25.42 362.61 28.19 361.84 C 28.25 360.26 28.30 358.68 28.33 357.11 C 23.32 356.25 18.32 353.52 16.30 348.63 C 13.58 343.11 15.45 335.98 20.28 332.27 C 22.99 329.91 26.62 329.29 30.04 328.78 C 29.84 327.22 30.88 324.84 28.77 324.28 C 24.73 322.58 20.98 319.60 19.75 315.21 C 17.16 308.22 21.74 299.88 28.80 297.84 C 30.99 297.22 33.31 297.16 35.48 296.44 C 35.76 294.98 37.16 292.77 35.04 292.06 C 31.64 290.23 28.26 287.77 27.01 283.93 C 24.37 277.81 27.30 270.23 33.05 267.04 C 36.26 264.90 40.23 265.22 43.90 264.96 C 44.95 264.04 45.28 262.61 45.91 261.42 C 41.84 259.66 38.01 256.64 36.75 252.21 C 34.46 245.96 37.82 238.57 43.70 235.68 C 47.42 233.58 51.85 233.90 55.88 234.76 C 56.42 233.53 56.95 232.31 57.48 231.08 C 54.24 228.82 50.83 226.21 49.75 222.21 C 47.25 215.45 51.43 207.50 58.06 205.06 C 61.89 203.41 66.12 204.14 70.00 205.16 C 70.51 204.17 71.02 203.18 71.52 202.18 C 67.29 198.43 64.64 192.34 66.75 186.79 C 69.02 179.23 77.98 175.27 85.29 177.79 C 87.41 178.81 88.70 176.84 89.83 175.41 C 85.86 171.99 83.01 166.67 84.33 161.33 C 85.41 155.60 90.44 151.05 96.16 150.22 C 99.80 149.50 103.36 150.91 106.77 151.98 C 107.52 151.27 108.27 150.56 109.02 149.86 C 105.63 146.31 103.07 141.34 104.33 136.33 C 105.62 129.28 112.90 124.26 119.94 125.10 C 122.99 125.33 125.68 126.88 128.26 128.40 C 129.17 127.60 130.09 126.79 131.01 125.98 C 128.33 122.40 126.14 117.89 127.33 113.33 C 128.62 106.28 135.90 101.27 142.93 102.10 C 146.32 102.33 149.24 104.20 152.00 106.00 C 152.90 105.26 153.80 104.52 154.70 103.79 C 153.16 100.20 151.22 96.33 152.33 92.33 C 153.67 84.95 161.55 79.87 168.84 81.22 C 171.72 81.53 174.09 83.27 176.48 84.74 C 177.70 85.89 179.07 84.57 180.26 84.14 C 178.68 80.27 177.06 75.92 178.75 71.79 C 181.07 64.05 190.59 59.93 197.94 63.05 C 200.83 64.16 202.99 66.46 205.16 68.57 C 206.08 68.09 206.99 67.60 207.90 67.10 C 206.37 63.57 205.24 59.54 206.75 55.79 C 208.99 48.32 217.97 44.16 225.22 46.80 C 228.62 47.72 230.84 50.60 233.39 52.80 C 234.67 53.10 235.89 52.34 237.12 52.10 C 236.20 48.51 235.41 44.61 237.00 41.07 C 239.67 33.76 248.83 30.06 255.93 33.05 C 259.68 34.39 262.18 37.65 264.32 40.83 C 265.37 40.56 266.42 40.29 267.47 40.02 C 266.26 34.69 267.79 28.63 272.29 25.26 C 278.72 19.77 289.84 21.52 293.92 29.05 C 294.99 30.40 295.48 33.47 297.75 31.97 C 298.14 27.69 298.39 22.90 301.72 19.72 C 306.84 13.93 316.60 13.46 322.26 18.72 C 324.43 20.48 325.57 23.09 326.60 25.61 C 327.61 25.67 328.62 25.74 329.64 25.80 C 330.20 21.67 330.90 17.11 334.22 14.21 C 339.27 9.06 348.18 8.63 353.71 13.26 C 356.90 15.48 357.69 19.52 360.01 22.44 C 361.73 19.03 362.19 14.84 365.22 12.21 M 353.78 35.81 C 350.73 36.30 347.56 35.57 344.59 36.60 C 320.53 39.12 296.78 44.55 273.62 51.62 C 228.79 65.67 187.11 89.80 152.59 121.59 C 148.64 124.23 145.70 128.04 142.25 131.25 C 138.23 135.57 133.48 139.25 130.16 144.17 C 118.86 156.32 108.54 169.40 98.99 183.00 C 94.59 188.43 91.51 194.75 87.40 200.40 C 84.19 206.74 79.99 212.53 76.95 218.96 C 74.34 222.37 73.46 226.65 71.34 230.34 C 66.16 239.98 62.32 250.24 58.36 260.42 L 57.57 260.13 L 56.88 260.75 C 57.14 261.03 57.64 261.59 57.90 261.88 C 49.95 284.77 44.03 308.49 41.60 332.60 C 40.68 335.31 41.11 338.20 40.99 341.01 C 41.06 343.06 39.95 344.93 40.01 346.99 C 39.98 361.34 40.03 375.69 39.98 390.03 C 39.88 391.81 40.35 393.52 40.81 395.22 C 41.42 398.92 40.39 402.79 41.61 406.40 C 44.79 437.17 51.50 467.77 62.11 496.88 C 70.23 519.13 80.99 540.37 93.60 560.41 C 101.04 571.79 109.39 582.53 117.77 593.22 C 122.59 598.43 126.51 604.41 131.74 609.25 C 137.82 615.17 143.62 621.39 149.84 627.16 C 153.32 629.26 155.75 632.59 158.84 635.16 C 162.69 637.59 165.33 641.49 169.41 643.61 C 177.24 649.94 185.85 655.29 194.40 660.61 C 205.36 667.75 217.38 673.02 228.99 679.01 C 262.32 694.14 298.16 704.22 334.60 707.39 C 338.21 708.61 342.07 707.58 345.77 708.19 C 347.47 708.65 349.18 709.11 350.97 709.02 C 363.95 708.93 376.94 709.10 389.92 708.94 C 394.55 707.26 399.58 708.77 404.22 707.19 C 412.59 706.89 420.85 705.59 429.12 704.12 C 438.82 703.25 448.17 700.31 457.78 698.79 C 463.49 696.94 469.39 695.81 475.13 694.12 C 494.58 688.32 513.66 681.09 531.66 671.67 C 543.77 665.86 555.36 659.05 566.40 651.40 C 578.07 644.00 588.71 635.13 599.26 626.26 C 603.10 621.70 608.34 618.74 612.25 614.26 C 616.10 610.10 620.67 606.58 623.84 601.84 C 626.35 598.70 629.75 596.35 632.00 593.00 C 652.61 569.41 670.10 543.07 684.00 515.00 C 688.31 506.95 691.04 498.20 694.99 489.99 C 705.30 463.76 711.90 436.00 715.01 408.04 C 715.06 404.60 714.62 401.08 715.81 397.78 C 716.33 393.23 715.74 388.64 716.06 384.08 C 717.75 376.86 717.21 369.24 716.06 361.96 C 715.74 356.72 716.34 351.45 715.81 346.23 C 714.60 342.96 715.14 339.47 714.94 336.08 C 713.71 330.31 713.56 324.38 712.41 318.59 C 709.40 295.82 703.36 273.52 696.31 251.69 C 693.04 243.32 690.14 234.81 686.34 226.66 C 677.45 205.41 665.18 185.79 652.17 166.85 C 648.69 162.92 645.75 158.57 642.59 154.40 C 638.72 149.92 634.91 145.40 631.24 140.76 C 626.70 135.97 621.68 131.63 617.45 126.54 C 611.64 121.72 606.80 115.84 601.16 110.84 C 598.31 109.09 596.14 106.54 593.71 104.29 C 589.91 101.43 586.32 98.31 582.43 95.58 C 572.26 87.66 560.71 81.87 549.66 75.35 C 545.08 72.91 540.78 69.90 535.86 68.15 C 532.44 67.16 529.89 64.42 526.41 63.57 C 496.55 50.06 464.77 40.79 432.24 36.77 C 427.87 35.23 423.12 36.80 418.78 35.19 C 414.95 34.63 411.05 35.37 407.22 34.81 C 405.53 34.35 403.81 33.88 402.04 33.98 C 392.05 34.06 382.06 33.90 372.08 34.06 C 366.14 36.10 359.72 33.90 353.78 35.81 Z" />
<path fill="#000000" opacity="1.00" d=" M 361.95 160.67 C 365.35 160.46 368.85 161.00 372.18 160.01 C 379.76 158.49 387.26 160.81 394.84 160.70 C 403.03 162.39 411.46 163.35 419.26 166.53 C 431.96 171.20 443.65 179.35 451.21 190.70 C 456.86 198.73 460.58 207.98 462.61 217.56 C 463.23 219.62 463.23 222.35 465.52 223.35 C 480.71 230.80 494.20 241.12 507.45 251.52 C 523.34 264.01 539.24 276.48 555.39 288.64 C 559.72 292.59 565.09 295.31 568.80 299.95 C 566.29 302.43 564.55 305.56 561.99 307.98 C 557.96 311.67 555.16 316.44 550.98 319.99 C 547.27 324.34 542.27 327.25 538.47 331.50 C 521.99 345.84 504.20 359.02 484.49 368.66 C 477.91 372.25 471.20 375.67 464.18 378.30 C 467.95 381.42 470.62 385.53 473.92 389.09 C 483.02 400.72 491.74 412.67 499.77 425.08 C 506.24 436.15 513.35 446.94 518.36 458.79 C 523.50 469.34 527.86 480.27 531.83 491.31 C 532.74 494.47 534.47 497.88 538.02 498.60 C 542.55 499.81 544.85 494.90 547.01 491.85 C 550.85 484.92 559.38 481.69 567.00 482.70 C 572.48 483.93 578.03 485.88 582.04 490.00 C 585.40 492.79 585.88 497.38 586.91 501.34 C 588.34 505.96 586.40 510.63 585.08 515.03 C 578.75 527.25 565.65 535.47 552.04 536.78 C 546.69 538.53 541.36 535.79 535.94 536.35 C 521.06 534.67 506.34 529.67 494.05 521.01 C 490.26 518.71 487.53 514.38 483.01 513.56 C 476.12 515.21 469.13 516.82 462.00 516.39 C 454.12 516.91 445.95 514.38 440.18 508.91 C 432.80 499.75 431.12 486.79 433.82 475.56 C 440.03 475.66 446.38 478.81 452.49 476.38 C 454.79 474.46 457.17 472.38 458.42 469.59 C 459.14 462.85 458.99 456.16 458.38 449.42 C 456.07 436.28 450.38 423.44 440.96 413.87 C 437.63 417.60 434.96 421.88 431.49 425.47 C 427.54 428.55 423.83 432.01 419.34 434.31 C 414.13 437.22 408.31 438.75 402.71 440.72 C 396.52 441.75 390.21 441.27 383.96 441.39 C 380.91 441.56 378.05 440.14 375.00 440.38 C 370.32 440.56 366.02 438.23 361.35 438.15 C 360.94 453.14 362.93 468.02 362.36 483.00 C 361.89 487.67 363.46 492.14 363.50 496.77 C 365.05 504.53 367.79 512.13 372.27 518.71 C 374.36 523.06 378.38 525.93 381.06 529.87 C 387.46 535.76 394.85 540.67 402.96 543.91 C 407.04 545.58 411.44 548.11 415.99 546.82 C 419.54 546.43 421.62 543.28 424.00 541.01 C 421.00 538.36 418.21 534.97 418.35 530.72 C 417.74 525.00 421.68 519.77 426.82 517.63 C 430.51 515.44 434.87 515.58 438.94 514.67 C 445.85 515.94 453.13 518.59 457.24 524.64 C 463.84 533.33 464.51 546.29 458.44 555.41 C 453.56 560.64 447.66 564.92 441.51 568.57 C 434.44 571.99 426.76 574.07 419.03 575.34 C 414.01 575.41 408.98 575.44 403.96 575.32 C 387.10 572.57 370.41 568.58 354.27 562.94 C 336.11 556.65 317.11 553.40 298.09 551.13 C 293.71 549.90 289.09 550.86 284.74 549.50 C 278.82 549.14 272.88 549.53 266.95 549.37 C 266.44 549.01 265.41 548.28 264.90 547.92 C 266.42 547.12 268.07 546.69 269.77 546.46 C 277.01 544.82 284.00 542.05 290.44 538.34 C 297.71 532.46 303.32 524.76 307.01 516.18 C 312.51 502.43 315.93 487.82 316.83 473.05 C 318.48 467.36 316.95 461.39 318.02 455.63 C 318.49 453.12 318.69 450.56 318.64 448.00 C 318.58 433.30 318.68 418.60 318.59 403.91 C 310.71 408.43 305.50 416.12 300.69 423.58 C 290.98 440.79 288.59 461.42 291.48 480.76 C 291.89 485.52 296.34 489.58 301.12 489.59 C 302.76 489.57 305.30 489.81 305.36 491.94 C 303.41 497.91 299.54 502.95 295.80 507.90 C 290.05 513.38 281.83 515.99 273.95 515.34 C 269.80 514.80 265.77 513.58 261.76 512.42 C 259.04 511.60 257.59 514.49 256.04 516.15 C 254.37 518.75 252.23 521.00 249.64 522.69 C 242.98 528.44 234.93 532.40 226.44 534.62 C 215.98 537.99 204.88 537.60 194.04 537.20 C 190.23 535.59 184.65 537.96 182.41 533.48 C 174.43 517.79 168.86 499.46 172.99 481.87 C 178.01 478.98 184.35 479.61 190.00 479.69 C 193.12 480.43 196.22 481.48 198.97 483.15 C 203.65 487.11 206.36 492.75 208.75 498.26 C 216.11 491.82 221.54 483.62 226.38 475.21 C 233.55 464.36 237.47 451.83 241.30 439.51 C 245.24 425.43 247.73 410.97 248.98 396.43 C 250.38 389.50 249.08 382.39 249.85 375.40 C 251.18 366.65 250.42 357.77 250.64 348.95 C 250.87 345.92 249.44 343.09 249.61 340.07 C 249.60 336.35 249.91 332.57 248.83 328.95 C 248.10 317.09 245.68 305.37 243.01 293.80 C 241.12 281.38 233.41 269.87 222.41 263.74 C 217.57 261.94 212.23 260.18 209.04 255.84 C 206.51 251.49 204.83 246.40 205.88 241.34 C 214.24 241.89 222.63 241.53 231.00 241.62 C 247.37 239.90 263.42 235.55 278.77 229.59 C 289.67 224.68 300.75 220.15 311.89 215.79 C 303.71 203.62 289.96 197.04 276.65 192.02 C 276.66 191.28 276.66 189.79 276.67 189.05 C 296.44 179.70 316.99 172.05 337.93 165.77 C 345.82 163.50 353.92 162.24 361.95 160.67 M 360.06 170.36 C 344.24 172.67 329.05 177.97 313.96 183.10 C 307.58 185.27 301.60 188.47 295.12 190.39 C 299.72 192.76 303.91 195.85 307.96 199.07 C 312.81 203.31 316.38 208.78 319.79 214.20 C 323.41 221.94 325.49 230.48 325.42 239.03 C 325.96 247.66 325.88 256.33 325.40 264.96 C 325.34 288.89 325.41 312.83 325.36 336.76 C 334.18 342.44 344.34 346.07 354.63 347.90 C 354.61 299.58 354.63 251.27 354.62 202.96 C 354.83 197.49 359.18 193.47 363.10 190.16 C 372.07 183.44 383.80 182.48 394.62 182.46 C 400.34 181.93 400.44 174.70 405.11 172.67 C 405.36 174.49 405.37 176.37 406.03 178.11 C 407.10 182.15 410.72 184.60 413.36 187.57 C 416.77 189.82 420.50 191.71 423.40 194.65 C 425.93 198.03 428.65 201.74 428.61 206.17 C 429.95 206.66 431.29 207.14 432.65 207.62 C 431.46 203.70 430.51 199.51 427.44 196.55 C 423.64 192.92 419.48 189.51 414.61 187.44 C 411.38 184.52 409.36 180.26 410.31 175.86 C 411.50 175.69 412.69 175.64 413.90 175.68 C 418.91 177.95 424.07 180.05 428.40 183.55 C 433.83 188.07 438.84 193.21 442.76 199.13 C 444.61 202.63 446.97 206.13 447.04 210.24 C 442.48 212.06 438.27 208.69 433.86 208.04 C 440.30 211.25 447.41 212.91 454.04 215.73 C 452.69 208.00 448.08 201.51 443.74 195.18 C 437.14 186.57 427.90 180.28 417.94 176.15 C 407.84 171.88 396.88 170.28 386.05 169.36 C 377.38 169.67 368.61 168.59 360.06 170.36 M 397.05 191.34 C 391.73 191.65 386.30 190.73 381.10 192.25 C 373.66 193.64 366.86 197.91 361.89 203.50 C 365.33 204.18 368.55 202.48 371.97 202.60 C 379.33 202.65 386.70 202.59 394.07 202.63 C 403.05 203.98 412.21 204.31 421.00 206.87 C 419.74 203.15 416.89 200.17 413.36 198.50 C 409.03 196.41 405.76 192.85 402.45 189.48 C 400.37 188.73 399.06 191.42 397.05 191.34 M 363.74 212.78 C 363.63 219.75 364.10 226.76 363.26 233.70 C 368.26 234.09 373.01 232.12 378.01 232.61 C 386.71 232.98 395.55 231.78 404.14 233.55 C 416.21 234.92 428.07 238.09 439.29 242.74 C 451.09 247.05 461.67 254.57 469.81 264.10 C 474.81 271.42 480.06 279.09 481.37 288.06 C 483.42 296.58 481.82 305.57 478.84 313.68 C 476.05 321.51 470.10 327.55 464.77 333.67 C 463.19 343.94 461.39 354.17 459.63 364.42 C 459.36 367.00 459.32 369.63 458.41 372.10 C 464.15 370.89 469.29 367.94 474.55 365.47 C 495.88 355.27 515.77 342.09 533.54 326.51 C 537.64 321.91 542.99 318.71 547.02 314.02 C 551.20 310.43 554.19 305.79 558.07 301.92 C 548.62 293.92 538.26 287.08 528.84 279.05 C 520.18 272.74 511.87 265.99 503.26 259.62 C 493.32 251.83 483.51 243.78 472.56 237.42 C 448.54 222.47 420.71 213.34 392.43 212.05 C 382.92 210.43 373.24 211.64 363.74 212.78 M 289.82 233.97 C 272.97 240.14 256.30 247.67 238.27 249.55 C 230.55 251.24 222.57 249.93 214.74 250.46 C 216.22 252.94 219.17 253.64 221.65 254.70 C 232.41 258.50 240.58 267.54 245.52 277.58 C 251.39 293.77 254.83 310.89 255.68 328.08 C 256.94 335.72 256.02 343.54 257.22 351.21 C 257.90 367.35 256.97 383.47 256.12 399.58 C 254.86 408.72 254.13 417.93 252.18 426.98 C 248.02 445.07 242.89 463.26 233.30 479.32 C 225.84 492.33 215.92 503.71 204.99 513.90 C 204.46 513.37 203.41 512.32 202.89 511.80 C 201.99 505.73 201.90 499.06 198.00 493.99 C 193.98 489.00 186.65 485.80 180.49 488.00 C 180.23 493.00 180.32 498.01 180.42 503.02 C 181.28 511.15 183.94 519.06 187.73 526.28 C 189.04 529.44 192.99 529.71 195.96 529.65 C 202.63 529.35 209.42 530.34 215.98 528.74 C 230.57 525.97 244.82 518.83 253.79 506.69 C 254.94 505.16 256.45 502.38 258.68 504.00 C 267.17 507.87 277.24 508.37 285.90 504.72 C 289.79 503.09 292.66 499.73 294.85 496.23 C 291.57 494.26 288.15 492.08 286.43 488.52 C 284.22 485.08 284.66 480.87 283.69 477.05 C 283.66 466.51 282.92 455.84 285.37 445.50 C 288.24 433.29 292.40 421.10 300.03 410.99 C 304.62 404.37 310.96 399.25 317.44 394.59 C 330.40 386.94 345.25 383.21 359.96 380.68 C 363.06 380.69 366.16 380.59 369.16 379.71 C 373.53 379.56 378.02 379.22 382.29 380.45 C 393.46 381.00 404.44 383.81 414.92 387.68 C 417.80 381.61 419.45 374.95 419.88 368.26 C 420.71 364.27 421.10 360.07 419.59 356.18 C 413.67 357.31 407.76 358.45 401.79 359.25 C 395.31 359.51 388.82 359.66 382.35 359.74 C 379.29 360.75 376.14 360.18 373.07 359.60 C 350.07 359.14 327.37 350.83 309.05 336.97 C 306.62 334.72 304.39 332.28 302.01 329.99 C 294.98 323.41 290.53 314.36 288.75 304.96 C 288.33 299.67 288.27 294.36 288.74 289.07 C 290.34 281.94 292.51 274.77 296.63 268.64 C 301.77 260.54 310.17 255.43 317.62 249.71 C 317.54 245.21 317.79 240.71 317.53 236.22 C 316.70 232.13 315.67 228.05 313.92 224.25 C 306.01 227.79 297.82 230.64 289.82 233.97 M 362.35 242.47 C 361.04 245.84 361.60 249.45 361.40 252.97 C 361.29 285.52 361.50 318.07 361.30 350.62 C 363.13 350.63 365.00 350.51 366.80 351.00 C 370.64 352.13 374.68 351.27 378.59 351.90 C 386.31 353.04 394.04 351.56 401.76 351.51 C 408.42 350.29 415.18 349.52 421.68 347.55 C 422.00 335.99 418.03 324.37 410.69 315.41 C 406.25 308.83 399.51 304.44 393.11 299.98 C 394.80 297.12 398.23 297.71 400.97 296.77 C 409.64 294.30 417.12 287.77 419.95 279.11 C 422.48 268.19 423.13 256.94 422.47 245.77 C 412.12 243.53 401.67 240.92 391.00 241.37 C 381.43 241.51 371.81 240.81 362.35 242.47 M 429.51 251.02 C 430.05 256.67 429.37 262.33 429.26 267.99 C 427.84 274.06 426.24 280.10 424.08 285.96 C 421.46 292.98 416.33 299.53 409.16 302.23 C 411.59 304.67 414.13 306.99 416.42 309.56 C 422.72 318.04 426.23 328.24 427.59 338.66 C 429.09 343.11 427.65 347.90 429.13 352.35 C 430.36 357.63 427.82 362.73 428.30 368.04 C 426.09 378.19 426.15 389.70 418.96 397.95 C 414.63 401.21 410.65 405.19 405.44 407.07 C 400.77 408.64 395.89 409.80 390.94 409.38 C 385.14 408.95 379.18 408.70 373.75 406.41 C 366.57 403.75 361.37 397.75 357.61 391.29 C 353.12 391.22 348.86 392.82 344.53 393.74 C 337.91 395.95 330.95 397.89 325.35 402.21 C 325.25 405.55 325.33 408.92 326.30 412.16 C 326.43 426.04 326.44 439.95 326.29 453.84 C 324.47 459.63 325.98 465.75 325.13 471.65 C 324.12 474.57 324.56 477.67 324.19 480.69 C 323.30 484.36 322.54 488.06 322.00 491.80 C 319.08 504.06 315.01 516.10 309.54 527.46 C 306.54 533.62 301.71 538.43 296.89 543.17 C 323.90 546.22 350.41 552.63 376.38 560.50 C 386.29 564.33 396.51 567.65 407.20 568.19 C 422.71 568.32 439.86 564.73 450.54 552.55 C 458.73 545.80 457.01 531.31 448.03 526.00 C 442.32 522.85 434.83 521.40 428.98 525.02 C 426.88 526.79 424.34 528.91 425.45 532.00 C 427.51 534.29 430.97 535.36 432.49 537.98 C 431.38 541.96 429.63 545.82 426.98 549.01 C 422.09 554.23 414.24 555.80 407.52 553.69 C 380.81 546.71 359.71 522.50 356.60 495.05 C 354.52 482.82 356.31 470.30 355.42 457.96 C 354.99 451.66 355.44 445.34 355.20 439.04 C 354.72 435.89 354.50 432.72 354.64 429.55 C 362.85 430.02 370.62 433.89 378.96 433.63 C 382.31 433.38 385.60 434.06 388.92 434.25 C 392.19 433.73 395.48 433.62 398.78 433.51 C 411.62 431.19 424.00 424.35 431.56 413.54 C 439.37 404.04 444.43 392.56 447.51 380.73 C 452.13 360.97 456.07 340.91 456.97 320.62 C 458.31 313.75 456.97 306.70 458.12 299.82 C 458.67 289.01 458.69 278.18 458.62 267.35 C 450.03 260.30 440.45 253.63 429.51 251.02 M 309.45 266.47 C 299.32 275.73 293.86 289.96 295.57 303.61 C 298.27 316.44 307.05 327.93 318.59 334.09 C 318.64 309.35 318.66 284.62 318.58 259.88 C 314.91 261.08 312.05 263.74 309.45 266.47 M 465.95 273.01 C 464.52 279.30 466.14 285.84 464.90 292.17 C 463.72 299.13 465.03 306.24 463.90 313.20 C 463.63 316.53 463.65 319.89 463.50 323.24 C 469.91 317.98 473.26 309.92 474.60 301.94 C 474.64 298.03 474.73 294.12 474.55 290.22 C 473.41 283.79 470.03 278.01 465.95 273.01 M 455.80 382.74 C 454.23 389.39 451.89 395.84 449.15 402.09 C 448.21 404.34 446.66 406.39 446.24 408.84 C 449.15 412.88 452.55 416.60 454.93 421.01 C 459.81 428.75 462.46 437.61 464.70 446.40 C 465.87 449.41 464.97 452.69 465.75 455.77 C 466.81 459.38 466.32 463.20 466.36 466.91 C 465.14 474.68 459.42 481.72 451.92 484.25 C 447.83 484.56 443.73 484.29 439.64 484.41 C 439.26 491.82 441.61 499.75 446.96 505.02 C 454.38 509.86 463.62 508.44 472.02 508.63 C 476.91 508.76 481.22 505.57 486.06 505.59 C 489.65 506.83 491.78 510.14 494.56 512.52 C 506.23 521.44 520.37 527.11 534.99 528.63 C 541.34 528.57 547.71 528.77 554.06 528.53 C 563.00 526.38 571.29 521.30 576.78 513.88 C 579.72 508.08 580.59 500.18 576.04 494.98 C 570.91 489.93 561.07 487.87 555.94 493.95 C 552.84 496.63 550.68 500.08 548.45 503.45 C 545.12 506.13 540.37 507.21 536.25 505.99 C 532.56 504.20 527.75 502.72 526.82 498.13 C 514.60 462.68 496.66 429.13 473.10 399.91 C 468.29 393.71 462.91 388.02 458.05 381.88 C 457.49 382.09 456.36 382.53 455.80 382.74 M 364.12 387.69 C 365.44 391.14 368.39 393.50 370.99 395.96 C 378.56 401.34 388.39 402.46 397.40 401.29 C 402.59 400.09 408.75 399.13 412.08 394.52 C 400.62 389.93 388.32 387.97 376.07 387.16 C 372.07 385.81 368.18 388.19 364.12 387.69 Z" />
<path fill="#000000" opacity="1.00" d=" M 360.53 173.29 C 364.63 172.07 369.00 173.19 373.06 171.74 C 381.78 171.17 390.50 172.14 399.23 172.02 C 400.17 175.90 397.55 179.93 393.94 181.29 C 388.61 181.74 383.16 180.67 377.95 182.19 C 370.49 183.20 363.64 186.48 357.24 190.30 C 353.35 192.61 350.50 196.19 347.33 199.34 C 347.39 246.42 347.44 293.50 347.30 340.58 C 342.57 340.01 338.67 337.05 334.12 335.89 C 333.46 334.32 332.48 332.79 332.62 331.02 C 332.59 306.72 332.68 282.41 332.58 258.12 C 330.17 248.56 333.05 238.48 330.77 228.91 C 330.64 215.39 322.73 202.86 311.81 195.27 C 309.81 193.98 307.31 191.89 309.07 189.32 C 325.12 181.05 342.61 175.51 360.53 173.29 M 323.90 195.63 C 327.17 196.77 328.83 199.78 330.98 202.22 C 333.66 200.04 335.94 197.42 338.36 194.97 C 335.95 192.79 333.66 190.46 331.58 187.96 C 329.75 191.17 327.08 193.76 323.90 195.63 Z" />
<path fill="#000000" opacity="1.00" d=" M 369.92 215.63 C 377.69 216.02 385.64 214.70 393.27 216.49 C 407.73 217.07 422.04 220.31 435.68 225.14 C 440.35 226.69 445.12 228.03 449.40 230.50 C 470.95 239.43 489.46 254.02 507.74 268.23 C 519.46 277.89 531.65 286.96 543.62 296.31 C 545.39 297.69 547.00 299.26 548.66 300.78 C 545.18 306.44 539.87 310.59 534.88 314.83 C 527.23 322.66 518.29 329.04 509.63 335.69 C 497.77 343.85 485.43 351.35 472.41 357.51 C 471.21 358.06 469.97 358.41 468.67 358.58 C 468.10 354.33 469.58 350.29 469.81 346.10 C 470.78 341.89 470.56 337.47 472.15 333.41 C 480.15 325.15 486.71 314.78 487.82 303.10 C 490.10 294.72 487.13 286.15 484.66 278.17 C 480.92 269.08 474.55 261.25 467.10 254.92 C 461.83 251.14 456.41 247.59 450.89 244.19 C 436.68 236.46 421.05 231.16 404.95 229.41 C 401.91 229.56 399.06 228.19 396.03 228.36 C 386.91 228.37 377.78 228.41 368.66 228.35 C 368.59 224.07 368.19 219.67 369.92 215.63 M 514.83 293.74 C 513.00 298.11 508.40 300.00 504.84 302.67 C 507.11 303.83 509.40 304.98 511.50 306.44 C 514.83 308.34 515.92 312.27 517.70 315.41 C 521.28 310.75 525.45 306.44 530.35 303.16 C 525.81 299.88 521.07 296.66 518.18 291.72 C 516.66 289.75 515.38 292.38 514.83 293.74 Z" />
<path fill="#000000" opacity="1.00" d=" M 252.35 250.14 C 272.57 245.28 291.94 237.60 311.03 229.47 C 311.54 232.71 312.63 235.82 313.29 239.02 C 313.44 242.33 313.44 245.66 313.28 248.97 C 310.07 252.20 305.88 254.36 302.97 257.96 C 293.54 266.30 286.35 277.58 284.43 290.14 C 284.47 293.42 282.94 296.53 283.37 299.83 C 284.78 307.42 285.52 315.51 290.01 322.06 C 297.15 334.90 309.24 344.06 321.95 350.96 C 339.03 359.54 357.96 364.30 376.95 365.66 C 384.97 365.33 393.12 366.44 401.01 364.71 C 405.50 364.49 409.97 363.71 414.32 362.58 C 414.62 368.20 414.45 373.81 412.90 379.25 C 411.41 379.14 409.69 379.77 408.38 378.86 C 404.15 376.01 398.76 376.57 394.02 375.19 C 389.78 373.90 385.32 374.51 380.96 374.26 C 377.78 374.38 374.68 372.62 371.51 373.65 C 369.40 374.35 367.18 374.39 364.98 374.37 C 349.35 375.72 333.73 379.51 319.79 386.94 C 313.69 389.84 308.42 394.09 302.98 398.03 C 289.90 409.84 280.60 425.87 277.50 443.29 C 275.87 448.46 276.84 453.93 275.40 459.12 C 275.51 468.64 274.16 478.74 278.53 487.59 C 280.59 491.07 283.14 494.27 285.89 497.24 C 279.55 500.74 271.93 502.54 264.83 500.45 C 261.78 500.90 259.40 498.11 256.50 498.43 C 252.27 502.56 248.08 506.72 243.96 510.97 C 231.57 522.03 214.56 527.53 198.05 526.25 C 195.72 525.66 193.37 525.23 190.97 525.22 C 188.32 517.69 184.88 510.27 184.55 502.15 C 184.10 498.54 181.94 493.70 185.86 491.26 C 190.78 493.93 194.64 498.45 196.39 503.77 C 197.82 508.34 200.12 512.84 199.29 517.78 C 201.34 517.64 203.42 517.79 205.45 517.43 C 209.82 514.13 214.98 511.83 218.53 507.54 C 223.71 502.66 228.52 497.46 232.50 491.54 C 239.34 480.92 245.50 469.76 249.65 457.78 C 255.99 442.16 258.97 425.44 261.56 408.86 C 261.70 404.19 263.13 399.69 262.68 394.98 C 264.50 387.81 263.19 380.34 263.75 373.04 C 265.33 367.54 264.48 361.76 264.60 356.12 C 262.56 348.40 264.41 340.30 263.34 332.47 C 261.81 328.00 263.40 323.17 262.15 318.66 C 261.40 316.26 261.79 313.72 261.51 311.26 C 258.88 298.90 257.15 286.06 251.08 274.79 C 249.12 270.96 245.97 267.96 243.55 264.45 C 239.29 261.54 235.85 257.57 231.20 255.19 C 231.69 254.56 232.68 253.30 233.17 252.67 C 239.67 253.02 246.01 251.32 252.35 250.14 M 280.77 370.83 C 277.02 372.77 273.70 375.42 269.95 377.36 C 274.40 378.02 277.69 381.32 281.40 383.55 C 284.22 386.25 285.42 390.19 287.88 393.20 C 289.08 391.98 290.40 390.86 291.38 389.45 C 294.82 384.17 299.99 380.38 305.19 376.96 C 302.27 375.27 299.28 373.55 297.04 370.97 C 294.14 367.74 290.39 365.17 288.61 361.09 C 285.66 364.10 284.67 368.70 280.77 370.83 Z" />
<path fill="#000000" opacity="1.00" d=" M 434.83 260.80 C 441.54 259.93 447.13 264.63 452.35 268.12 C 452.32 279.39 452.53 290.68 452.26 301.94 C 450.51 308.15 451.79 314.66 451.33 321.01 C 448.90 345.49 445.64 370.18 437.82 393.66 C 435.11 401.31 430.06 407.76 424.66 413.67 C 418.22 418.87 410.86 423.24 402.67 424.91 C 385.52 427.27 367.43 427.65 350.98 421.41 C 349.30 420.95 349.37 422.97 349.37 424.05 C 349.38 435.69 349.37 447.34 349.37 458.98 C 351.44 469.74 349.78 480.83 350.51 491.72 C 351.66 495.42 351.10 499.35 352.18 503.07 C 354.90 515.82 360.55 528.09 368.96 538.09 C 382.17 550.30 400.01 557.14 417.92 557.75 C 420.24 558.31 422.81 558.33 424.82 559.77 C 421.83 561.27 418.54 561.43 415.28 561.53 C 411.96 562.46 408.48 562.64 405.06 562.25 C 399.09 560.93 392.78 560.71 387.21 557.93 C 366.48 549.04 344.53 542.54 322.03 540.38 C 318.08 540.79 314.32 539.47 310.44 539.12 C 310.56 537.10 311.86 535.53 312.82 533.85 C 320.40 517.63 327.14 500.72 329.54 482.86 C 329.35 479.51 330.72 476.36 330.64 473.03 C 330.59 452.01 330.66 431.00 330.60 409.98 C 330.79 408.62 330.10 406.43 331.84 405.86 C 339.28 402.08 347.43 398.67 355.87 398.67 C 359.47 401.13 361.86 405.02 365.47 407.49 C 370.12 410.06 375.02 412.37 380.25 413.49 C 385.24 413.70 390.26 415.73 395.22 413.95 C 402.36 413.70 409.03 410.65 415.11 407.10 C 420.94 402.20 425.92 396.21 429.11 389.26 C 431.61 382.44 434.03 375.37 433.67 368.01 C 435.29 361.18 434.47 354.09 434.58 347.12 C 433.18 339.56 432.44 331.72 429.23 324.64 C 426.89 318.68 424.03 312.87 420.27 307.68 C 418.83 305.78 417.50 302.66 419.65 300.78 C 423.30 297.03 427.61 293.56 429.23 288.36 C 433.76 279.90 434.90 270.25 434.83 260.80 M 428.08 302.45 C 432.02 303.75 435.35 306.82 436.17 310.99 C 438.68 308.02 441.85 305.70 443.88 302.30 C 441.11 299.94 438.66 297.25 436.01 294.78 C 433.60 297.56 431.54 300.79 428.08 302.45 M 330.10 529.37 C 333.82 531.44 337.59 533.93 339.31 538.01 C 342.36 535.12 345.31 532.12 348.25 529.11 C 344.73 526.78 342.06 523.48 338.98 520.65 C 337.61 524.95 333.76 527.22 330.10 529.37 Z" />
<path fill="#000000" opacity="1.00" d=" M 460.11 396.50 C 460.76 396.59 462.07 396.79 462.72 396.89 C 468.38 402.79 473.33 409.34 477.94 416.08 C 489.84 432.15 500.17 449.52 506.64 468.52 C 509.98 476.66 513.02 484.91 515.92 493.22 C 518.18 498.13 518.85 504.12 523.28 507.75 C 531.15 514.41 541.71 516.32 551.72 516.86 C 548.08 521.65 541.24 520.12 535.99 520.39 C 528.94 521.02 522.48 517.69 516.22 514.94 C 505.46 510.38 496.49 502.61 487.91 494.92 C 479.79 498.75 471.24 503.11 461.98 502.38 C 455.76 501.72 447.97 497.72 448.58 490.47 C 450.37 490.75 452.10 491.46 453.92 491.60 C 459.44 490.42 463.99 486.78 467.74 482.73 C 471.80 479.20 473.10 473.72 474.55 468.78 C 474.74 463.86 474.59 458.94 474.62 454.02 C 473.05 441.15 468.54 428.60 460.89 418.07 C 458.97 414.91 455.89 412.36 454.52 408.98 C 456.02 404.67 458.83 400.91 460.11 396.50 Z" />
<path fill="#000000" opacity="1.00" d=" M 566.35 493.24 C 570.77 492.30 575.02 495.55 576.48 499.58 C 577.24 501.67 578.23 503.73 578.55 505.96 C 577.56 508.41 574.45 508.04 572.40 507.49 C 567.93 505.93 566.27 501.07 565.19 496.94 C 565.24 495.73 564.64 493.54 566.35 493.24 Z" />
<path fill="#000000" opacity="1.00" d=" M 440.31 528.27 C 444.97 526.85 448.63 530.50 450.52 534.35 C 451.71 536.44 452.43 539.15 451.40 541.44 C 449.72 542.31 447.60 541.77 446.06 540.84 C 442.84 538.72 440.41 535.47 439.28 531.79 C 439.17 530.65 438.67 528.54 440.31 528.27 Z" />
</g>
<g id="#ffffffff">
<path fill="#ffffff" opacity="1.00" d=" M 353.78 35.81 C 359.72 33.90 366.14 36.10 372.08 34.06 C 382.06 33.90 392.05 34.06 402.04 33.98 C 403.81 33.88 405.53 34.35 407.22 34.81 C 411.05 35.37 414.95 34.63 418.78 35.19 C 423.12 36.80 427.87 35.23 432.24 36.77 C 464.77 40.79 496.55 50.06 526.41 63.57 C 529.89 64.42 532.44 67.16 535.86 68.15 C 540.78 69.90 545.08 72.91 549.66 75.35 C 560.71 81.87 572.26 87.66 582.43 95.58 C 586.32 98.31 589.91 101.43 593.71 104.29 C 596.14 106.54 598.31 109.09 601.16 110.84 C 606.80 115.84 611.64 121.72 617.45 126.54 C 621.68 131.63 626.70 135.97 631.24 140.76 C 634.91 145.40 638.72 149.92 642.59 154.40 C 645.75 158.57 648.69 162.92 652.17 166.85 C 665.18 185.79 677.45 205.41 686.34 226.66 C 690.14 234.81 693.04 243.32 696.31 251.69 C 703.36 273.52 709.40 295.82 712.41 318.59 C 713.56 324.38 713.71 330.31 714.94 336.08 C 715.14 339.47 714.60 342.96 715.81 346.23 C 716.34 351.45 715.74 356.72 716.06 361.96 C 717.21 369.24 717.75 376.86 716.06 384.08 C 715.74 388.64 716.33 393.23 715.81 397.78 C 714.62 401.08 715.06 404.60 715.01 408.04 C 711.90 436.00 705.30 463.76 694.99 489.99 C 691.04 498.20 688.31 506.95 684.00 515.00 C 670.10 543.07 652.61 569.41 632.00 593.00 C 629.75 596.35 626.35 598.70 623.84 601.84 C 620.67 606.58 616.10 610.10 612.25 614.26 C 608.34 618.74 603.10 621.70 599.26 626.26 C 588.71 635.13 578.07 644.00 566.40 651.40 C 555.36 659.05 543.77 665.86 531.66 671.67 C 513.66 681.09 494.58 688.32 475.13 694.12 C 469.39 695.81 463.49 696.94 457.78 698.79 C 448.17 700.31 438.82 703.25 429.12 704.12 C 420.85 705.59 412.59 706.89 404.22 707.19 C 399.58 708.77 394.55 707.26 389.92 708.94 C 376.94 709.10 363.95 708.93 350.97 709.02 C 349.18 709.11 347.47 708.65 345.77 708.19 C 342.07 707.58 338.21 708.61 334.60 707.39 C 298.16 704.22 262.32 694.14 228.99 679.01 C 217.38 673.02 205.36 667.75 194.40 660.61 C 185.85 655.29 177.24 649.94 169.41 643.61 C 165.33 641.49 162.69 637.59 158.84 635.16 C 155.75 632.59 153.32 629.26 149.84 627.16 C 143.62 621.39 137.82 615.17 131.74 609.25 C 126.51 604.41 122.59 598.43 117.77 593.22 C 109.39 582.53 101.04 571.79 93.60 560.41 C 80.99 540.37 70.23 519.13 62.11 496.88 C 51.50 467.77 44.79 437.17 41.61 406.40 C 40.39 402.79 41.42 398.92 40.81 395.22 C 40.35 393.52 39.88 391.81 39.98 390.03 C 40.03 375.69 39.98 361.34 40.01 346.99 C 39.95 344.93 41.06 343.06 40.99 341.01 C 41.11 338.20 40.68 335.31 41.60 332.60 C 44.03 308.49 49.95 284.77 57.90 261.88 C 58.01 261.51 58.24 260.78 58.36 260.42 C 62.32 250.24 66.16 239.98 71.34 230.34 C 73.46 226.65 74.34 222.37 76.95 218.96 C 79.99 212.53 84.19 206.74 87.40 200.40 C 91.51 194.75 94.59 188.43 98.99 183.00 C 108.54 169.40 118.86 156.32 130.16 144.17 C 133.48 139.25 138.23 135.57 142.25 131.25 C 145.70 128.04 148.64 124.23 152.59 121.59 C 187.11 89.80 228.79 65.67 273.62 51.62 C 296.78 44.55 320.53 39.12 344.59 36.60 C 347.56 35.57 350.73 36.30 353.78 35.81 M 361.95 160.67 C 353.92 162.24 345.82 163.50 337.93 165.77 C 316.99 172.05 296.44 179.70 276.67 189.05 C 276.66 189.79 276.66 191.28 276.65 192.02 C 289.96 197.04 303.71 203.62 311.89 215.79 C 300.75 220.15 289.67 224.68 278.77 229.59 C 263.42 235.55 247.37 239.90 231.00 241.62 C 222.63 241.53 214.24 241.89 205.88 241.34 C 204.83 246.40 206.51 251.49 209.04 255.84 C 212.23 260.18 217.57 261.94 222.41 263.74 C 233.41 269.87 241.12 281.38 243.01 293.80 C 245.68 305.37 248.10 317.09 248.83 328.95 C 249.91 332.57 249.60 336.35 249.61 340.07 C 249.44 343.09 250.87 345.92 250.64 348.95 C 250.42 357.77 251.18 366.65 249.85 375.40 C 249.08 382.39 250.38 389.50 248.98 396.43 C 247.73 410.97 245.24 425.43 241.30 439.51 C 237.47 451.83 233.55 464.36 226.38 475.21 C 221.54 483.62 216.11 491.82 208.75 498.26 C 206.36 492.75 203.65 487.11 198.97 483.15 C 196.22 481.48 193.12 480.43 190.00 479.69 C 184.35 479.61 178.01 478.98 172.99 481.87 C 168.86 499.46 174.43 517.79 182.41 533.48 C 184.65 537.96 190.23 535.59 194.04 537.20 C 204.88 537.60 215.98 537.99 226.44 534.62 C 234.93 532.40 242.98 528.44 249.64 522.69 C 252.23 521.00 254.37 518.75 256.04 516.15 C 257.59 514.49 259.04 511.60 261.76 512.42 C 265.77 513.58 269.80 514.80 273.95 515.34 C 281.83 515.99 290.05 513.38 295.80 507.90 C 299.54 502.95 303.41 497.91 305.36 491.94 C 305.30 489.81 302.76 489.57 301.12 489.59 C 296.34 489.58 291.89 485.52 291.48 480.76 C 288.59 461.42 290.98 440.79 300.69 423.58 C 305.50 416.12 310.71 408.43 318.59 403.91 C 318.68 418.60 318.58 433.30 318.64 448.00 C 318.69 450.56 318.49 453.12 318.02 455.63 C 316.95 461.39 318.48 467.36 316.83 473.05 C 315.93 487.82 312.51 502.43 307.01 516.18 C 303.32 524.76 297.71 532.46 290.44 538.34 C 284.00 542.05 277.01 544.82 269.77 546.46 C 268.07 546.69 266.42 547.12 264.90 547.92 C 265.41 548.28 266.44 549.01 266.95 549.37 C 272.88 549.53 278.82 549.14 284.74 549.50 C 289.09 550.86 293.71 549.90 298.09 551.13 C 317.11 553.40 336.11 556.65 354.27 562.94 C 370.41 568.58 387.10 572.57 403.96 575.32 C 408.98 575.44 414.01 575.41 419.03 575.34 C 426.76 574.07 434.44 571.99 441.51 568.57 C 447.66 564.92 453.56 560.64 458.44 555.41 C 464.51 546.29 463.84 533.33 457.24 524.64 C 453.13 518.59 445.85 515.94 438.94 514.67 C 434.87 515.58 430.51 515.44 426.82 517.63 C 421.68 519.77 417.74 525.00 418.35 530.72 C 418.21 534.97 421.00 538.36 424.00 541.01 C 421.62 543.28 419.54 546.43 415.99 546.82 C 411.44 548.11 407.04 545.58 402.96 543.91 C 394.85 540.67 387.46 535.76 381.06 529.87 C 378.38 525.93 374.36 523.06 372.27 518.71 C 367.79 512.13 365.05 504.53 363.50 496.77 C 363.46 492.14 361.89 487.67 362.36 483.00 C 362.93 468.02 360.94 453.14 361.35 438.15 C 366.02 438.23 370.32 440.56 375.00 440.38 C 378.05 440.14 380.91 441.56 383.96 441.39 C 390.21 441.27 396.52 441.75 402.71 440.72 C 408.31 438.75 414.13 437.22 419.34 434.31 C 423.83 432.01 427.54 428.55 431.49 425.47 C 434.96 421.88 437.63 417.60 440.96 413.87 C 450.38 423.44 456.07 436.28 458.38 449.42 C 458.99 456.16 459.14 462.85 458.42 469.59 C 457.17 472.38 454.79 474.46 452.49 476.38 C 446.38 478.81 440.03 475.66 433.82 475.56 C 431.12 486.79 432.80 499.75 440.18 508.91 C 445.95 514.38 454.12 516.91 462.00 516.39 C 469.13 516.82 476.12 515.21 483.01 513.56 C 487.53 514.38 490.26 518.71 494.05 521.01 C 506.34 529.67 521.06 534.67 535.94 536.35 C 541.36 535.79 546.69 538.53 552.04 536.78 C 565.65 535.47 578.75 527.25 585.08 515.03 C 586.40 510.63 588.34 505.96 586.91 501.34 C 585.88 497.38 585.40 492.79 582.04 490.00 C 578.03 485.88 572.48 483.93 567.00 482.70 C 559.38 481.69 550.85 484.92 547.01 491.85 C 544.85 494.90 542.55 499.81 538.02 498.60 C 534.47 497.88 532.74 494.47 531.83 491.31 C 527.86 480.27 523.50 469.34 518.36 458.79 C 513.35 446.94 506.24 436.15 499.77 425.08 C 491.74 412.67 483.02 400.72 473.92 389.09 C 470.62 385.53 467.95 381.42 464.18 378.30 C 471.20 375.67 477.91 372.25 484.49 368.66 C 504.20 359.02 521.99 345.84 538.47 331.50 C 542.27 327.25 547.27 324.34 550.98 319.99 C 555.16 316.44 557.96 311.67 561.99 307.98 C 564.55 305.56 566.29 302.43 568.80 299.95 C 565.09 295.31 559.72 292.59 555.39 288.64 C 539.24 276.48 523.34 264.01 507.45 251.52 C 494.20 241.12 480.71 230.80 465.52 223.35 C 463.23 222.35 463.23 219.62 462.61 217.56 C 460.58 207.98 456.86 198.73 451.21 190.70 C 443.65 179.35 431.96 171.20 419.26 166.53 C 411.46 163.35 403.03 162.39 394.84 160.70 C 387.26 160.81 379.76 158.49 372.18 160.01 C 368.85 161.00 365.35 160.46 361.95 160.67 Z" />
<path fill="#ffffff" opacity="1.00" d=" M 360.06 170.36 C 368.61 168.59 377.38 169.67 386.05 169.36 C 396.88 170.28 407.84 171.88 417.94 176.15 C 427.90 180.28 437.14 186.57 443.74 195.18 C 448.08 201.51 452.69 208.00 454.04 215.73 C 447.41 212.91 440.30 211.25 433.86 208.04 C 438.27 208.69 442.48 212.06 447.04 210.24 C 446.97 206.13 444.61 202.63 442.76 199.13 C 438.84 193.21 433.83 188.07 428.40 183.55 C 424.07 180.05 418.91 177.95 413.90 175.68 C 412.69 175.64 411.50 175.69 410.31 175.86 C 409.36 180.26 411.38 184.52 414.61 187.44 C 419.48 189.51 423.64 192.92 427.44 196.55 C 430.51 199.51 431.46 203.70 432.65 207.62 C 431.29 207.14 429.95 206.66 428.61 206.17 C 428.65 201.74 425.93 198.03 423.40 194.65 C 420.50 191.71 416.77 189.82 413.36 187.57 C 410.72 184.60 407.10 182.15 406.03 178.11 C 405.37 176.37 405.36 174.49 405.11 172.67 C 400.44 174.70 400.34 181.93 394.62 182.46 C 383.80 182.48 372.07 183.44 363.10 190.16 C 359.18 193.47 354.83 197.49 354.62 202.96 C 354.63 251.27 354.61 299.58 354.63 347.90 C 344.34 346.07 334.18 342.44 325.36 336.76 C 325.41 312.83 325.34 288.89 325.40 264.96 C 325.88 256.33 325.96 247.66 325.42 239.03 C 325.49 230.48 323.41 221.94 319.79 214.20 C 316.38 208.78 312.81 203.31 307.96 199.07 C 303.91 195.85 299.72 192.76 295.12 190.39 C 301.60 188.47 307.58 185.27 313.96 183.10 C 329.05 177.97 344.24 172.67 360.06 170.36 M 360.53 173.29 C 342.61 175.51 325.12 181.05 309.07 189.32 C 307.31 191.89 309.81 193.98 311.81 195.27 C 322.73 202.86 330.64 215.39 330.77 228.91 C 333.05 238.48 330.17 248.56 332.58 258.12 C 332.68 282.41 332.59 306.72 332.62 331.02 C 332.48 332.79 333.46 334.32 334.12 335.89 C 338.67 337.05 342.57 340.01 347.30 340.58 C 347.44 293.50 347.39 246.42 347.33 199.34 C 350.50 196.19 353.35 192.61 357.24 190.30 C 363.64 186.48 370.49 183.20 377.95 182.19 C 383.16 180.67 388.61 181.74 393.94 181.29 C 397.55 179.93 400.17 175.90 399.23 172.02 C 390.50 172.14 381.78 171.17 373.06 171.74 C 369.00 173.19 364.63 172.07 360.53 173.29 Z" />
<path fill="#ffffff" opacity="1.00" d=" M 323.90 195.63 C 327.08 193.76 329.75 191.17 331.58 187.96 C 333.66 190.46 335.95 192.79 338.36 194.97 C 335.94 197.42 333.66 200.04 330.98 202.22 C 328.83 199.78 327.17 196.77 323.90 195.63 Z" />
<path fill="#ffffff" opacity="1.00" d=" M 397.05 191.34 C 399.06 191.42 400.37 188.73 402.45 189.48 C 405.76 192.85 409.03 196.41 413.36 198.50 C 416.89 200.17 419.74 203.15 421.00 206.87 C 412.21 204.31 403.05 203.98 394.07 202.63 C 386.70 202.59 379.33 202.65 371.97 202.60 C 368.55 202.48 365.33 204.18 361.89 203.50 C 366.86 197.91 373.66 193.64 381.10 192.25 C 386.30 190.73 391.73 191.65 397.05 191.34 Z" />
<path fill="#ffffff" opacity="1.00" d=" M 363.74 212.78 C 373.24 211.64 382.92 210.43 392.43 212.05 C 420.71 213.34 448.54 222.47 472.56 237.42 C 483.51 243.78 493.32 251.83 503.26 259.62 C 511.87 265.99 520.18 272.74 528.84 279.05 C 538.26 287.08 548.62 293.92 558.07 301.92 C 554.19 305.79 551.20 310.43 547.02 314.02 C 542.99 318.71 537.64 321.91 533.54 326.51 C 515.77 342.09 495.88 355.27 474.55 365.47 C 469.29 367.94 464.15 370.89 458.41 372.10 C 459.32 369.63 459.36 367.00 459.63 364.42 C 461.39 354.17 463.19 343.94 464.77 333.67 C 470.10 327.55 476.05 321.51 478.84 313.68 C 481.82 305.57 483.42 296.58 481.37 288.06 C 480.06 279.09 474.81 271.42 469.81 264.10 C 461.67 254.57 451.09 247.05 439.29 242.74 C 428.07 238.09 416.21 234.92 404.14 233.55 C 395.55 231.78 386.71 232.98 378.01 232.61 C 373.01 232.12 368.26 234.09 363.26 233.70 C 364.10 226.76 363.63 219.75 363.74 212.78 M 369.92 215.63 C 368.19 219.67 368.59 224.07 368.66 228.35 C 377.78 228.41 386.91 228.37 396.03 228.36 C 399.06 228.19 401.91 229.56 404.95 229.41 C 421.05 231.16 436.68 236.46 450.89 244.19 C 456.41 247.59 461.83 251.14 467.10 254.92 C 474.55 261.25 480.92 269.08 484.66 278.17 C 487.13 286.15 490.10 294.72 487.82 303.10 C 486.71 314.78 480.15 325.15 472.15 333.41 C 470.56 337.47 470.78 341.89 469.81 346.10 C 469.58 350.29 468.10 354.33 468.67 358.58 C 469.97 358.41 471.21 358.06 472.41 357.51 C 485.43 351.35 497.77 343.85 509.63 335.69 C 518.29 329.04 527.23 322.66 534.88 314.83 C 539.87 310.59 545.18 306.44 548.66 300.78 C 547.00 299.26 545.39 297.69 543.62 296.31 C 531.65 286.96 519.46 277.89 507.74 268.23 C 489.46 254.02 470.95 239.43 449.40 230.50 C 445.12 228.03 440.35 226.69 435.68 225.14 C 422.04 220.31 407.73 217.07 393.27 216.49 C 385.64 214.70 377.69 216.02 369.92 215.63 Z" />
<path fill="#ffffff" opacity="1.00" d=" M 289.82 233.97 C 297.82 230.64 306.01 227.79 313.92 224.25 C 315.67 228.05 316.70 232.13 317.53 236.22 C 317.79 240.71 317.54 245.21 317.62 249.71 C 310.17 255.43 301.77 260.54 296.63 268.64 C 292.51 274.77 290.34 281.94 288.74 289.07 C 288.27 294.36 288.33 299.67 288.75 304.96 C 290.53 314.36 294.98 323.41 302.01 329.99 C 304.39 332.28 306.62 334.72 309.05 336.97 C 327.37 350.83 350.07 359.14 373.07 359.60 C 376.14 360.18 379.29 360.75 382.35 359.74 C 388.82 359.66 395.31 359.51 401.79 359.25 C 407.76 358.45 413.67 357.31 419.59 356.18 C 421.10 360.07 420.71 364.27 419.88 368.26 C 419.45 374.95 417.80 381.61 414.92 387.68 C 404.44 383.81 393.46 381.00 382.29 380.45 C 378.02 379.22 373.53 379.56 369.16 379.71 C 366.16 380.59 363.06 380.69 359.96 380.68 C 345.25 383.21 330.40 386.94 317.44 394.59 C 310.96 399.25 304.62 404.37 300.03 410.99 C 292.40 421.10 288.24 433.29 285.37 445.50 C 282.92 455.84 283.66 466.51 283.69 477.05 C 284.66 480.87 284.22 485.08 286.43 488.52 C 288.15 492.08 291.57 494.26 294.85 496.23 C 292.66 499.73 289.79 503.09 285.90 504.72 C 277.24 508.37 267.17 507.87 258.68 504.00 C 256.45 502.38 254.94 505.16 253.79 506.69 C 244.82 518.83 230.57 525.97 215.98 528.74 C 209.42 530.34 202.63 529.35 195.96 529.65 C 192.99 529.71 189.04 529.44 187.73 526.28 C 183.94 519.06 181.28 511.15 180.42 503.02 C 180.32 498.01 180.23 493.00 180.49 488.00 C 186.65 485.80 193.98 489.00 198.00 493.99 C 201.90 499.06 201.99 505.73 202.89 511.80 C 203.41 512.32 204.46 513.37 204.99 513.90 C 215.92 503.71 225.84 492.33 233.30 479.32 C 242.89 463.26 248.02 445.07 252.18 426.98 C 254.13 417.93 254.86 408.72 256.12 399.58 C 256.97 383.47 257.90 367.35 257.22 351.21 C 256.02 343.54 256.94 335.72 255.68 328.08 C 254.83 310.89 251.39 293.77 245.52 277.58 C 240.58 267.54 232.41 258.50 221.65 254.70 C 219.17 253.64 216.22 252.94 214.74 250.46 C 222.57 249.93 230.55 251.24 238.27 249.55 C 256.30 247.67 272.97 240.14 289.82 233.97 M 252.35 250.14 C 246.01 251.32 239.67 253.02 233.17 252.67 C 232.68 253.30 231.69 254.56 231.20 255.19 C 235.85 257.57 239.29 261.54 243.55 264.45 C 245.97 267.96 249.12 270.96 251.08 274.79 C 257.15 286.06 258.88 298.90 261.51 311.26 C 261.79 313.72 261.40 316.26 262.15 318.66 C 263.40 323.17 261.81 328.00 263.34 332.47 C 264.41 340.30 262.56 348.40 264.60 356.12 C 264.48 361.76 265.33 367.54 263.75 373.04 C 263.19 380.34 264.50 387.81 262.68 394.98 C 263.13 399.69 261.70 404.19 261.56 408.86 C 258.97 425.44 255.99 442.16 249.65 457.78 C 245.50 469.76 239.34 480.92 232.50 491.54 C 228.52 497.46 223.71 502.66 218.53 507.54 C 214.98 511.83 209.82 514.13 205.45 517.43 C 203.42 517.79 201.34 517.64 199.29 517.78 C 200.12 512.84 197.82 508.34 196.39 503.77 C 194.64 498.45 190.78 493.93 185.86 491.26 C 181.94 493.70 184.10 498.54 184.55 502.15 C 184.88 510.27 188.32 517.69 190.97 525.22 C 193.37 525.23 195.72 525.66 198.05 526.25 C 214.56 527.53 231.57 522.03 243.96 510.97 C 248.08 506.72 252.27 502.56 256.50 498.43 C 259.40 498.11 261.78 500.90 264.83 500.45 C 271.93 502.54 279.55 500.74 285.89 497.24 C 283.14 494.27 280.59 491.07 278.53 487.59 C 274.16 478.74 275.51 468.64 275.40 459.12 C 276.84 453.93 275.87 448.46 277.50 443.29 C 280.60 425.87 289.90 409.84 302.98 398.03 C 308.42 394.09 313.69 389.84 319.79 386.94 C 333.73 379.51 349.35 375.72 364.98 374.37 C 367.18 374.39 369.40 374.35 371.51 373.65 C 374.68 372.62 377.78 374.38 380.96 374.26 C 385.32 374.51 389.78 373.90 394.02 375.19 C 398.76 376.57 404.15 376.01 408.38 378.86 C 409.69 379.77 411.41 379.14 412.90 379.25 C 414.45 373.81 414.62 368.20 414.32 362.58 C 409.97 363.71 405.50 364.49 401.01 364.71 C 393.12 366.44 384.97 365.33 376.95 365.66 C 357.96 364.30 339.03 359.54 321.95 350.96 C 309.24 344.06 297.15 334.90 290.01 322.06 C 285.52 315.51 284.78 307.42 283.37 299.83 C 282.94 296.53 284.47 293.42 284.43 290.14 C 286.35 277.58 293.54 266.30 302.97 257.96 C 305.88 254.36 310.07 252.20 313.28 248.97 C 313.44 245.66 313.44 242.33 313.29 239.02 C 312.63 235.82 311.54 232.71 311.03 229.47 C 291.94 237.60 272.57 245.28 252.35 250.14 Z" />
<path fill="#ffffff" opacity="1.00" d=" M 362.35 242.47 C 371.81 240.81 381.43 241.51 391.00 241.37 C 401.67 240.92 412.12 243.53 422.47 245.77 C 423.13 256.94 422.48 268.19 419.95 279.11 C 417.12 287.77 409.64 294.30 400.97 296.77 C 398.23 297.71 394.80 297.12 393.11 299.98 C 399.51 304.44 406.25 308.83 410.69 315.41 C 418.03 324.37 422.00 335.99 421.68 347.55 C 415.18 349.52 408.42 350.29 401.76 351.51 C 394.04 351.56 386.31 353.04 378.59 351.90 C 374.68 351.27 370.64 352.13 366.80 351.00 C 365.00 350.51 363.13 350.63 361.30 350.62 C 361.50 318.07 361.29 285.52 361.40 252.97 C 361.60 249.45 361.04 245.84 362.35 242.47 Z" />
<path fill="#ffffff" opacity="1.00" d=" M 429.51 251.02 C 440.45 253.63 450.03 260.30 458.62 267.35 C 458.69 278.18 458.67 289.01 458.12 299.82 C 456.97 306.70 458.31 313.75 456.97 320.62 C 456.07 340.91 452.13 360.97 447.51 380.73 C 444.43 392.56 439.37 404.04 431.56 413.54 C 424.00 424.35 411.62 431.19 398.78 433.51 C 395.48 433.62 392.19 433.73 388.92 434.25 C 385.60 434.06 382.31 433.38 378.96 433.63 C 370.62 433.89 362.85 430.02 354.64 429.55 C 354.50 432.72 354.72 435.89 355.20 439.04 C 355.44 445.34 354.99 451.66 355.42 457.96 C 356.31 470.30 354.52 482.82 356.60 495.05 C 359.71 522.50 380.81 546.71 407.52 553.69 C 414.24 555.80 422.09 554.23 426.98 549.01 C 429.63 545.82 431.38 541.96 432.49 537.98 C 430.97 535.36 427.51 534.29 425.45 532.00 C 424.34 528.91 426.88 526.79 428.98 525.02 C 434.83 521.40 442.32 522.85 448.03 526.00 C 457.01 531.31 458.73 545.80 450.54 552.55 C 439.86 564.73 422.71 568.32 407.20 568.19 C 396.51 567.65 386.29 564.33 376.38 560.50 C 350.41 552.63 323.90 546.22 296.89 543.17 C 301.71 538.43 306.54 533.62 309.54 527.46 C 315.01 516.10 319.08 504.06 322.00 491.80 C 322.54 488.06 323.30 484.36 324.19 480.69 C 324.56 477.67 324.12 474.57 325.13 471.65 C 325.98 465.75 324.47 459.63 326.29 453.84 C 326.44 439.95 326.43 426.04 326.30 412.16 C 325.33 408.92 325.25 405.55 325.35 402.21 C 330.95 397.89 337.91 395.95 344.53 393.74 C 348.86 392.82 353.12 391.22 357.61 391.29 C 361.37 397.75 366.57 403.75 373.75 406.41 C 379.18 408.70 385.14 408.95 390.94 409.38 C 395.89 409.80 400.77 408.64 405.44 407.07 C 410.65 405.19 414.63 401.21 418.96 397.95 C 426.15 389.70 426.09 378.19 428.30 368.04 C 427.82 362.73 430.36 357.63 429.13 352.35 C 427.65 347.90 429.09 343.11 427.59 338.66 C 426.23 328.24 422.72 318.04 416.42 309.56 C 414.13 306.99 411.59 304.67 409.16 302.23 C 416.33 299.53 421.46 292.98 424.08 285.96 C 426.24 280.10 427.84 274.06 429.26 267.99 C 429.37 262.33 430.05 256.67 429.51 251.02 M 434.83 260.80 C 434.90 270.25 433.76 279.90 429.23 288.36 C 427.61 293.56 423.30 297.03 419.65 300.78 C 417.50 302.66 418.83 305.78 420.27 307.68 C 424.03 312.87 426.89 318.68 429.23 324.64 C 432.44 331.72 433.18 339.56 434.58 347.12 C 434.47 354.09 435.29 361.18 433.67 368.01 C 434.03 375.37 431.61 382.44 429.11 389.26 C 425.92 396.21 420.94 402.20 415.11 407.10 C 409.03 410.65 402.36 413.70 395.22 413.95 C 390.26 415.73 385.24 413.70 380.25 413.49 C 375.02 412.37 370.12 410.06 365.47 407.49 C 361.86 405.02 359.47 401.13 355.87 398.67 C 347.43 398.67 339.28 402.08 331.84 405.86 C 330.10 406.43 330.79 408.62 330.60 409.98 C 330.66 431.00 330.59 452.01 330.64 473.03 C 330.72 476.36 329.35 479.51 329.54 482.86 C 327.14 500.72 320.40 517.63 312.82 533.85 C 311.86 535.53 310.56 537.10 310.44 539.12 C 314.32 539.47 318.08 540.79 322.03 540.38 C 344.53 542.54 366.48 549.04 387.21 557.93 C 392.78 560.71 399.09 560.93 405.06 562.25 C 408.48 562.64 411.96 562.46 415.28 561.53 C 418.54 561.43 421.83 561.27 424.82 559.77 C 422.81 558.33 420.24 558.31 417.92 557.75 C 400.01 557.14 382.17 550.30 368.96 538.09 C 360.55 528.09 354.90 515.82 352.18 503.07 C 351.10 499.35 351.66 495.42 350.51 491.72 C 349.78 480.83 351.44 469.74 349.37 458.98 C 349.37 447.34 349.38 435.69 349.37 424.05 C 349.37 422.97 349.30 420.95 350.98 421.41 C 367.43 427.65 385.52 427.27 402.67 424.91 C 410.86 423.24 418.22 418.87 424.66 413.67 C 430.06 407.76 435.11 401.31 437.82 393.66 C 445.64 370.18 448.90 345.49 451.33 321.01 C 451.79 314.66 450.51 308.15 452.26 301.94 C 452.53 290.68 452.32 279.39 452.35 268.12 C 447.13 264.63 441.54 259.93 434.83 260.80 M 440.31 528.27 C 438.67 528.54 439.17 530.65 439.28 531.79 C 440.41 535.47 442.84 538.72 446.06 540.84 C 447.60 541.77 449.72 542.31 451.40 541.44 C 452.43 539.15 451.71 536.44 450.52 534.35 C 448.63 530.50 444.97 526.85 440.31 528.27 Z" />
<path fill="#ffffff" opacity="1.00" d=" M 309.45 266.47 C 312.05 263.74 314.91 261.08 318.58 259.88 C 318.66 284.62 318.64 309.35 318.59 334.09 C 307.05 327.93 298.27 316.44 295.57 303.61 C 293.86 289.96 299.32 275.73 309.45 266.47 Z" />
<path fill="#ffffff" opacity="1.00" d=" M 465.95 273.01 C 470.03 278.01 473.41 283.79 474.55 290.22 C 474.73 294.12 474.64 298.03 474.60 301.94 C 473.26 309.92 469.91 317.98 463.50 323.24 C 463.65 319.89 463.63 316.53 463.90 313.20 C 465.03 306.24 463.72 299.13 464.90 292.17 C 466.14 285.84 464.52 279.30 465.95 273.01 Z" />
<path fill="#ffffff" opacity="1.00" d=" M 514.83 293.74 C 515.38 292.38 516.66 289.75 518.18 291.72 C 521.07 296.66 525.81 299.88 530.35 303.16 C 525.45 306.44 521.28 310.75 517.70 315.41 C 515.92 312.27 514.83 308.34 511.50 306.44 C 509.40 304.98 507.11 303.83 504.84 302.67 C 508.40 300.00 513.00 298.11 514.83 293.74 Z" />
<path fill="#ffffff" opacity="1.00" d=" M 428.08 302.45 C 431.54 300.79 433.60 297.56 436.01 294.78 C 438.66 297.25 441.11 299.94 443.88 302.30 C 441.85 305.70 438.68 308.02 436.17 310.99 C 435.35 306.82 432.02 303.75 428.08 302.45 Z" />
<path fill="#ffffff" opacity="1.00" d=" M 280.77 370.83 C 284.67 368.70 285.66 364.10 288.61 361.09 C 290.39 365.17 294.14 367.74 297.04 370.97 C 299.28 373.55 302.27 375.27 305.19 376.96 C 299.99 380.38 294.82 384.17 291.38 389.45 C 290.40 390.86 289.08 391.98 287.88 393.20 C 285.42 390.19 284.22 386.25 281.40 383.55 C 277.69 381.32 274.40 378.02 269.95 377.36 C 273.70 375.42 277.02 372.77 280.77 370.83 Z" />
<path fill="#ffffff" opacity="1.00" d=" M 455.80 382.74 C 456.36 382.53 457.49 382.09 458.05 381.88 C 462.91 388.02 468.29 393.71 473.10 399.91 C 496.66 429.13 514.60 462.68 526.82 498.13 C 527.75 502.72 532.56 504.20 536.25 505.99 C 540.37 507.21 545.12 506.13 548.45 503.45 C 550.68 500.08 552.84 496.63 555.94 493.95 C 561.07 487.87 570.91 489.93 576.04 494.98 C 580.59 500.18 579.72 508.08 576.78 513.88 C 571.29 521.30 563.00 526.38 554.06 528.53 C 547.71 528.77 541.34 528.57 534.99 528.63 C 520.37 527.11 506.23 521.44 494.56 512.52 C 491.78 510.14 489.65 506.83 486.06 505.59 C 481.22 505.57 476.91 508.76 472.02 508.63 C 463.62 508.44 454.38 509.86 446.96 505.02 C 441.61 499.75 439.26 491.82 439.64 484.41 C 443.73 484.29 447.83 484.56 451.92 484.25 C 459.42 481.72 465.14 474.68 466.36 466.91 C 466.32 463.20 466.81 459.38 465.75 455.77 C 464.97 452.69 465.87 449.41 464.70 446.40 C 462.46 437.61 459.81 428.75 454.93 421.01 C 452.55 416.60 449.15 412.88 446.24 408.84 C 446.66 406.39 448.21 404.34 449.15 402.09 C 451.89 395.84 454.23 389.39 455.80 382.74 M 460.11 396.50 C 458.83 400.91 456.02 404.67 454.52 408.98 C 455.89 412.36 458.97 414.91 460.89 418.07 C 468.54 428.60 473.05 441.15 474.62 454.02 C 474.59 458.94 474.74 463.86 474.55 468.78 C 473.10 473.72 471.80 479.20 467.74 482.73 C 463.99 486.78 459.44 490.42 453.92 491.60 C 452.10 491.46 450.37 490.75 448.58 490.47 C 447.97 497.72 455.76 501.72 461.98 502.38 C 471.24 503.11 479.79 498.75 487.91 494.92 C 496.49 502.61 505.46 510.38 516.22 514.94 C 522.48 517.69 528.94 521.02 535.99 520.39 C 541.24 520.12 548.08 521.65 551.72 516.86 C 541.71 516.32 531.15 514.41 523.28 507.75 C 518.85 504.12 518.18 498.13 515.92 493.22 C 513.02 484.91 509.98 476.66 506.64 468.52 C 500.17 449.52 489.84 432.15 477.94 416.08 C 473.33 409.34 468.38 402.79 462.72 396.89 C 462.07 396.79 460.76 396.59 460.11 396.50 M 566.35 493.24 C 564.64 493.54 565.24 495.73 565.19 496.94 C 566.27 501.07 567.93 505.93 572.40 507.49 C 574.45 508.04 577.56 508.41 578.55 505.96 C 578.23 503.73 577.24 501.67 576.48 499.58 C 575.02 495.55 570.77 492.30 566.35 493.24 Z" />
<path fill="#ffffff" opacity="1.00" d=" M 364.12 387.69 C 368.18 388.19 372.07 385.81 376.07 387.16 C 388.32 387.97 400.62 389.93 412.08 394.52 C 408.75 399.13 402.59 400.09 397.40 401.29 C 388.39 402.46 378.56 401.34 370.99 395.96 C 368.39 393.50 365.44 391.14 364.12 387.69 Z" />
<path fill="#ffffff" opacity="1.00" d=" M 330.10 529.37 C 333.76 527.22 337.61 524.95 338.98 520.65 C 342.06 523.48 344.73 526.78 348.25 529.11 C 345.31 532.12 342.36 535.12 339.31 538.01 C 337.59 533.93 333.82 531.44 330.10 529.37 Z" />
</g>
</svg>
