<?xml version="1.0" encoding="utf-8"?>
<!-- Generator: Adobe Illustrator 16.0.3, SVG Export Plug-In . SVG Version: 6.00 Build 0)  -->
<!DOCTYPE svg PUBLIC "-//W3C//DTD SVG 1.1//EN" "http://www.w3.org/Graphics/SVG/1.1/DTD/svg11.dtd">
<svg version="1.1" id="Capa_1" xmlns="http://www.w3.org/2000/svg" xmlns:xlink="http://www.w3.org/1999/xlink" x="0px" y="0px"
	 width="319.71px" height="388.53px" viewBox="26.5 36.71 319.71 388.53" enable-background="new 26.5 36.71 319.71 388.53"
	 xml:space="preserve">
<g id="_x23_7c3029ff">
	<path fill="#7C3029" d="M157.64,59.61c10.86-5.82,19.39-14.87,28.56-22.9c6.69,4.96,12.37,11.16,19.21,15.94
		c12.74,9.03,27.85,15.24,43.57,15.91c7.319,0.2,14.59-0.79,21.81-1.88c2.3-0.42,4.59,0.17,6.87,0.45
		c7.529,9.11,15.23,18.76,26.07,24.09c11.56,5.91,24.68,7.33,37.42,8.59c3.159-0.32,5.619,3.24,5.06,6.13
		c-4.42,31.46-9.1,63-17.69,93.65c-4.93,18.67-11.72,36.811-19.38,54.53c-14.919,33.47-33.6,65.229-55.26,94.78
		c-16.68,22.709-35.43,43.81-54.76,64.29c-3.86,4.069-7.601,8.26-11.75,12.05c-1.8-1.05-3.72-1.98-5.15-3.521
		c-21.86-23.189-43.64-46.569-62.71-72.159c-30.9-41.641-56.5-87.771-71.52-137.57c-10.82-36.17-16.34-73.62-21.49-110.94
		c4.78-1.28,9.76-1.16,14.63-1.88c17.85-2.09,35.88-9.38,47.61-23.45c3.21-3.229,5.18-7.93,9.46-9.91
		c8.25,0.95,16.46,3.2,24.87,2.89C135.06,68.26,147.02,65.22,157.64,59.61 M186.35,45.07c-4.32,3.8-8.3,8-12.899,11.48
		c-10.6,8.45-23.24,14.27-36.52,16.9c-12.25,2.67-24.84,1.1-37.01-1.14c-5.62,6.21-10.8,12.94-17.64,17.91
		c-14.01,10.39-31.57,14.89-48.78,15.91c5.39,39.56,11.65,79.31,24.62,117.2c59.53-34.18,119.1-68.31,178.58-102.59
		c17.729-10.35,35.71-20.29,53.271-30.92c-5.771-5.31-10.99-11.14-15.851-17.28c-8.021,0.87-15.99,2.51-24.091,2.27
		c-9.899,0.08-19.689-2.28-28.829-5.99C208.04,63.42,197.08,54.16,186.35,45.07 M60.23,229.27c2.45,7.36,5.36,14.551,8.54,21.621
		c82.55-47.831,165.05-95.741,247.57-143.601c1.891-1.13,3.66-2.44,5.46-3.71c-9.05-2.04-18.04-4.78-25.95-9.75
		C217.221,138.83,138.67,183.95,60.23,229.27 M330.22,106.19c-85.47,49.98-171.25,99.47-256.79,149.32
		c-2.13,0.771-1.01,2.99-0.41,4.45c6.7,14.29,14.11,28.229,22.1,41.83c0.7,0.93,1.37,2.68,2.87,2.09
		c3.52-1.09,6.49-3.399,9.69-5.149c71.22-41.44,142.41-82.94,213.64-124.371c3.109-2.03,7.77-3.27,8.41-7.51
		c2.81-13.52,4.859-27.19,6.989-40.84c0.84-6.57,2.23-13.07,2.38-19.72C336.19,106.02,332.98,104.64,330.22,106.19 M100.46,310.24
		c3.83,6.41,7.9,12.689,12.25,18.77c68.1-39.369,136.21-78.729,204.3-118.12c1.57-0.76,2.48-2.27,2.9-3.92
		c2.81-9.59,5.359-19.27,7.47-29.04C251.67,221.91,176.16,266.24,100.46,310.24 M116.03,334.08
		c20.76,29.99,45.56,56.891,70.55,83.35c20.33-21.39,40.33-43.16,58.199-66.67c18.061-23.699,33.811-49.14,47.311-75.699
		c9.381-18.311,17.61-37.221,24.32-56.681C249.609,256.93,182.75,295.4,116.03,334.08z"/>
	<path fill="#7C3029" d="M161.51,104.74c3.75-1.97,7.49-3.95,11.35-5.71c9.48,8.979,19.35,17.55,29.05,26.31
		c-3.53,2.04-7.15,3.9-10.84,5.62c-1.35-1.52-2.711-3.03-4.061-4.54c-3.72,1.97-7.6,3.64-11.19,5.85c-0.6,2.07,0.5,4.29,0.78,6.38
		c-3.44,1.71-6.86,3.49-10.26,5.29C164.49,130.91,163.24,117.8,161.51,104.74 M171.56,110.84c0.62,4.43,1.6,8.8,2.29,13.22
		c2.45-1.18,4.87-2.42,7.26-3.71C177.97,117.14,174.88,113.87,171.56,110.84z"/>
	<path fill="#7C3029" d="M213.35,108.4c3.561-2.5,8.91,0.33,9.16,4.58c0.551,4.33-4.449,7.98-8.39,6.04
		C209.73,117.39,209.26,110.66,213.35,108.4z"/>
	<path fill="#7C3029" d="M84.62,154.14c2.86-6.42,9.74-10.06,16.31-11.55c5.03-1.15,9.63,1.49,13.42,4.5
		c-2.47,2.19-4.8,4.54-7.47,6.48c-2.72-0.85-5.7-3.04-8.54-1.27c-3.5,1.39-4.7,5.43-3.67,8.84c1.28,3.75,3.15,7.58,6.37,10.05
		c3.39,1.69,8.27,0.36,9.73-3.32c1.04-1.96,0.31-4.2,0.02-6.24c3.45-0.79,6.96-1.36,10.43-2.07c0.4,4.09,0.93,8.6-1.42,12.25
		c-3.22,5.11-9.01,7.96-14.7,9.41c-7.03,1.57-14.28-2.729-17.66-8.82C83.96,167.12,81.93,160.2,84.62,154.14z"/>
	<path fill="#7C3029" d="M140.35,152.4c3.56-2.51,8.92,0.34,9.16,4.59c0.54,4.34-4.48,7.979-8.41,6.02
		C136.73,161.37,136.26,154.65,140.35,152.4z"/>
	<path fill="#7C3029" d="M214.75,300.23c8.939-3.19,16.77,8.779,12.641,16.399c-2.381,4.84-7.951,6.46-12.371,8.851
		c1.41,4.449,4.041,8.359,5.951,12.6c-3.361,1.71-6.701,3.439-10.041,5.17c-5.66-10.95-11.39-21.859-16.97-32.84
		C200.9,307.04,207.43,302.71,214.75,300.23 M207.4,311.77c1.25,2.371,2.47,4.75,3.649,7.16c2.75-0.64,4.931-2.41,6.81-4.42
		c-0.409-1.59-0.5-3.439-1.799-4.609C213.05,308.48,210.141,310.73,207.4,311.77z"/>
	<path fill="#7C3029" d="M232.359,323.4c3.541-2.49,8.861,0.31,9.141,4.529c0.6,4.37-4.471,8.07-8.42,6.07
		C228.721,332.34,228.27,325.641,232.359,323.4z"/>
	<path fill="#7C3029" d="M162.2,327.15c3.31-1.62,7.21-2.771,10.84-1.57c3.32,1.46,5.4,4.82,6.27,8.23
		c0.58,2.979-1.03,5.67-2.16,8.289c-0.78,0.33-1.56,0.67-2.34,1c7.3,0.351,12.53,5.87,18.29,9.641
		c-3.8,1.99-7.619,3.949-11.419,5.949c-4.94-3.049-9.38-6.979-14.81-9.17c-0.7,0.351-2.1,1.051-2.8,1.4
		c2.11,4.53,4.58,8.87,6.8,13.34c-3.35,1.771-6.73,3.49-10.07,5.26c-5.69-10.959-11.5-21.859-16.99-32.91
		C149.96,333.49,156.01,330.189,162.2,327.15 M158.44,337.03c-0.69,2.84,1.11,5.29,2.29,7.71c2.76-1.51,6.06-2.6,7.79-5.44
		c0.44-2.1-0.29-4.08-2.42-4.78C163.46,335.05,160.95,336.08,158.44,337.03z"/>
	<path fill="#7C3029" d="M197.38,341.38c3.57-2.47,8.89,0.38,9.13,4.62c0.53,4.33-4.46,7.96-8.39,6.01
		C193.71,350.38,193.26,343.62,197.38,341.38z"/>
</g>
<g id="_x23_f6ede4ff">
	<path fill="#F6EDE4" d="M186.35,45.07c10.73,9.09,21.69,18.35,34.851,23.75c9.14,3.71,18.93,6.07,28.829,5.99
		c8.101,0.24,16.07-1.4,24.091-2.27c4.86,6.14,10.08,11.97,15.851,17.28c-17.561,10.63-35.541,20.57-53.271,30.92
		c-59.48,34.28-119.05,68.41-178.58,102.59c-12.97-37.89-19.23-77.64-24.62-117.2c17.21-1.02,34.77-5.52,48.78-15.91
		c6.84-4.97,12.02-11.7,17.64-17.91c12.17,2.24,24.76,3.81,37.01,1.14c13.28-2.63,25.92-8.45,36.52-16.9
		C178.05,53.07,182.03,48.87,186.35,45.07 M161.51,104.74c1.73,13.06,2.98,26.17,4.83,39.2c3.4-1.8,6.82-3.58,10.26-5.29
		c-0.28-2.09-1.38-4.31-0.78-6.38c3.59-2.21,7.47-3.88,11.19-5.85c1.35,1.51,2.711,3.02,4.061,4.54c3.689-1.72,7.31-3.58,10.84-5.62
		c-9.7-8.76-19.57-17.33-29.05-26.31C169,100.79,165.26,102.77,161.51,104.74 M213.35,108.4c-4.09,2.26-3.619,8.99,0.771,10.62
		c3.94,1.94,8.94-1.71,8.39-6.04C222.26,108.73,216.91,105.9,213.35,108.4 M84.62,154.14c-2.69,6.06-0.66,12.98,2.82,18.26
		c3.38,6.09,10.63,10.39,17.66,8.82c5.69-1.45,11.48-4.3,14.7-9.41c2.35-3.65,1.82-8.16,1.42-12.25c-3.47,0.71-6.98,1.28-10.43,2.07
		c0.29,2.04,1.02,4.28-0.02,6.24c-1.46,3.68-6.34,5.01-9.73,3.32c-3.22-2.47-5.09-6.3-6.37-10.05c-1.03-3.41,0.17-7.45,3.67-8.84
		c2.84-1.77,5.82,0.42,8.54,1.27c2.67-1.94,5-4.29,7.47-6.48c-3.79-3.01-8.39-5.65-13.42-4.5
		C94.36,144.08,87.48,147.72,84.62,154.14 M140.35,152.4c-4.09,2.25-3.62,8.97,0.75,10.61c3.93,1.96,8.95-1.68,8.41-6.02
		C149.27,152.74,143.91,149.89,140.35,152.4z"/>
	<path fill="#F6EDE4" d="M171.56,110.84c3.32,3.03,6.41,6.3,9.55,9.51c-2.39,1.29-4.81,2.53-7.26,3.71
		C173.16,119.64,172.18,115.27,171.56,110.84z"/>
	<path fill="#F6EDE4" d="M116.03,334.08c66.72-38.68,133.58-77.15,200.38-115.7c-6.71,19.46-14.939,38.37-24.32,56.681
		c-13.5,26.56-29.25,52-47.311,75.699c-17.869,23.51-37.869,45.28-58.199,66.67C161.59,390.971,136.79,364.07,116.03,334.08
		 M214.75,300.23c-7.32,2.479-13.85,6.81-20.79,10.18c5.58,10.98,11.31,21.89,16.97,32.84c3.34-1.73,6.68-3.46,10.041-5.17
		c-1.91-4.24-4.541-8.15-5.951-12.6c4.42-2.391,9.99-4.011,12.371-8.851C231.52,309.01,223.689,297.04,214.75,300.23 M232.359,323.4
		c-4.09,2.24-3.639,8.939,0.721,10.6c3.949,2,9.02-1.7,8.42-6.07C241.221,323.71,235.9,320.91,232.359,323.4 M162.2,327.15
		c-6.19,3.039-12.24,6.34-18.39,9.459c5.49,11.051,11.3,21.951,16.99,32.91c3.34-1.77,6.72-3.489,10.07-5.26
		c-2.22-4.47-4.69-8.81-6.8-13.34c0.7-0.35,2.1-1.05,2.8-1.4c5.43,2.19,9.87,6.121,14.81,9.17c3.8-2,7.62-3.959,11.419-5.949
		c-5.76-3.771-10.99-9.29-18.29-9.641c0.78-0.33,1.56-0.67,2.34-1c1.13-2.619,2.74-5.31,2.16-8.289c-0.87-3.41-2.95-6.771-6.27-8.23
		C169.41,324.38,165.51,325.53,162.2,327.15 M197.38,341.38c-4.12,2.24-3.67,9,0.74,10.63c3.93,1.95,8.92-1.68,8.39-6.01
		C206.27,341.76,200.95,338.91,197.38,341.38z"/>
	<path fill="#F6EDE4" d="M207.4,311.77c2.74-1.039,5.649-3.289,8.66-1.869c1.299,1.17,1.39,3.02,1.799,4.609
		c-1.879,2.01-4.06,3.78-6.81,4.42C209.87,316.52,208.65,314.141,207.4,311.77z"/>
	<path fill="#F6EDE4" d="M158.44,337.03c2.51-0.95,5.02-1.98,7.66-2.511c2.13,0.7,2.86,2.681,2.42,4.78
		c-1.73,2.841-5.03,3.931-7.79,5.44C159.55,342.32,157.75,339.87,158.44,337.03z"/>
</g>
<g id="_x23_24231fff">
	<path fill="#24231F" d="M60.23,229.27C138.67,183.95,217.221,138.83,295.85,93.83c7.91,4.97,16.9,7.71,25.95,9.75
		c-1.8,1.27-3.569,2.58-5.46,3.71c-82.52,47.86-165.02,95.77-247.57,143.601C65.59,243.82,62.68,236.63,60.23,229.27z"/>
	<path fill="#24231F" d="M100.46,310.24c75.7-44,151.21-88.33,226.92-132.31c-2.11,9.77-4.66,19.45-7.47,29.04
		c-0.42,1.65-1.33,3.16-2.9,3.92c-68.09,39.39-136.2,78.75-204.3,118.12C108.36,322.93,104.29,316.65,100.46,310.24z"/>
</g>
<g id="_x23_9d3029ff">
	<path fill="#9D3029" d="M330.22,106.19c2.761-1.55,5.971-0.17,8.88,0.1c-0.149,6.65-1.54,13.15-2.38,19.72
		c-2.13,13.65-4.18,27.32-6.989,40.84c-0.641,4.24-5.301,5.48-8.41,7.51c-71.23,41.43-142.42,82.93-213.64,124.371
		c-3.2,1.75-6.17,4.06-9.69,5.149c-1.5,0.59-2.17-1.16-2.87-2.09c-7.99-13.601-15.4-27.54-22.1-41.83c-0.6-1.46-1.72-3.68,0.41-4.45
		C158.97,205.66,244.75,156.17,330.22,106.19z"/>
</g>
</svg>
