<?xml version="1.0" encoding="UTF-8" standalone="no"?>
<!-- Created with Inkscape (http://www.inkscape.org/) -->

<svg
   xmlns:osb="http://www.openswatchbook.org/uri/2009/osb"
   xmlns:dc="http://purl.org/dc/elements/1.1/"
   xmlns:cc="http://creativecommons.org/ns#"
   xmlns:rdf="http://www.w3.org/1999/02/22-rdf-syntax-ns#"
   xmlns:svg="http://www.w3.org/2000/svg"
   xmlns="http://www.w3.org/2000/svg"
   xmlns:xlink="http://www.w3.org/1999/xlink"
   xmlns:sodipodi="http://sodipodi.sourceforge.net/DTD/sodipodi-0.dtd"
   xmlns:inkscape="http://www.inkscape.org/namespaces/inkscape"
   width="1302.8572"
   height="1302.8572"
   id="svg2"
   version="1.1"
   inkscape:version="0.48.4 r9939"
   sodipodi:docname="Pisa SC 1988.svg"
   inkscape:export-filename="F:\Diavolerie di Filippo\Pisa SC 1988.png"
   inkscape:export-xdpi="90"
   inkscape:export-ydpi="90">
  <defs
     id="defs4">
    <linearGradient
       id="linearGradient3843"
       osb:paint="solid">
      <stop
         style="stop-color:#ff0000;stop-opacity:1;"
         offset="0"
         id="stop3845" />
    </linearGradient>
    <linearGradient
       id="linearGradient3811"
       osb:paint="solid">
      <stop
         style="stop-color:#000000;stop-opacity:1;"
         offset="0"
         id="stop3813" />
    </linearGradient>
    <linearGradient
       id="linearGradient3803"
       osb:paint="solid">
      <stop
         style="stop-color:#ff0000;stop-opacity:1;"
         offset="0"
         id="stop3805" />
    </linearGradient>
    <linearGradient
       id="linearGradient3797"
       osb:paint="solid">
      <stop
         style="stop-color:#ff0000;stop-opacity:1;"
         offset="0"
         id="stop3799" />
    </linearGradient>
    <linearGradient
       id="linearGradient3789"
       osb:paint="solid">
      <stop
         style="stop-color:#ff0000;stop-opacity:1;"
         offset="0"
         id="stop3791" />
    </linearGradient>
    <linearGradient
       id="linearGradient3779"
       osb:paint="solid">
      <stop
         style="stop-color:#000000;stop-opacity:1;"
         offset="0"
         id="stop3781" />
    </linearGradient>
    <linearGradient
       inkscape:collect="always"
       xlink:href="#linearGradient3779"
       id="linearGradient3783"
       x1="-244.35715"
       y1="475.21933"
       x2="1061.5"
       y2="475.21933"
       gradientUnits="userSpaceOnUse" />
    <linearGradient
       inkscape:collect="always"
       xlink:href="#linearGradient3811"
       id="linearGradient3815"
       x1="1760.5172"
       y1="440.23721"
       x2="2051.1628"
       y2="440.23721"
       gradientUnits="userSpaceOnUse"
       gradientTransform="matrix(1.5528699,0,-2.2628959e-8,1.5207532,-2185.1442,-241.13532)" />
    <linearGradient
       inkscape:collect="always"
       xlink:href="#linearGradient3811"
       id="linearGradient3819"
       gradientUnits="userSpaceOnUse"
       gradientTransform="matrix(1.5528699,0,-2.2628959e-8,1.5207532,-2182.8978,113.41455)"
       x1="1760.5172"
       y1="440.23721"
       x2="2051.1628"
       y2="440.23721" />
    <linearGradient
       inkscape:collect="always"
       xlink:href="#linearGradient3811"
       id="linearGradient3823"
       gradientUnits="userSpaceOnUse"
       gradientTransform="matrix(1.5528699,0,-2.2628959e-8,1.5207532,-2185.2391,-63.660576)"
       x1="1760.5172"
       y1="440.23721"
       x2="2051.1628"
       y2="440.23721" />
  </defs>
  <sodipodi:namedview
     id="base"
     pagecolor="#ffffff"
     bordercolor="#666666"
     borderopacity="1.0"
     inkscape:pageopacity="0.0"
     inkscape:pageshadow="2"
     inkscape:zoom="0.35"
     inkscape:cx="724.34084"
     inkscape:cy="562.91123"
     inkscape:document-units="px"
     inkscape:current-layer="layer1"
     showgrid="false"
     fit-margin-top="0"
     fit-margin-left="0"
     fit-margin-right="0"
     fit-margin-bottom="0"
     inkscape:window-width="1600"
     inkscape:window-height="837"
     inkscape:window-x="-8"
     inkscape:window-y="-8"
     inkscape:window-maximized="1" />
  <metadata
     id="metadata7">
    <rdf:RDF>
      <cc:Work
         rdf:about="">
        <dc:format>image/svg+xml</dc:format>
        <dc:type
           rdf:resource="http://purl.org/dc/dcmitype/StillImage" />
        <dc:title></dc:title>
      </cc:Work>
    </rdf:RDF>
  </metadata>
  <g
     inkscape:label="Livello 1"
     inkscape:groupmode="layer"
     id="layer1"
     transform="translate(242.85715,176.20926)">
    <path
       style="fill:#0748b8;fill-opacity:1;stroke:none"
       d="m 1060,475.21933 c 0,359.77408 -291.65448,651.42857 -651.42856,651.42857 -359.774074,0 -651.42859,-291.65449 -651.42859,-651.42857 0,-359.77408 291.654516,-651.42859 651.42859,-651.42859 359.77408,0 651.42856,291.65451 651.42856,651.42859 z"
       id="path3007" />
    <path
       transform="matrix(0.92342195,0,0,0.92342195,31.287605,36.391371)"
       style="fill:#ffffff;fill-opacity:1;stroke:url(#linearGradient3783);stroke-width:36.78708267;stroke-linecap:square;stroke-linejoin:bevel;stroke-miterlimit:4;stroke-opacity:1"
       d="m 1060,475.21933 c 0,359.77408 -291.65448,651.42857 -651.42856,651.42857 -359.774074,0 -651.42859,-291.65449 -651.42859,-651.42857 0,-359.77408 291.654516,-651.42859 651.42859,-651.42859 359.77408,0 651.42856,291.65451 651.42856,651.42859 z"
       id="path3009" />
    <path
       transform="matrix(1,0,-0.38351213,0.92353584,0,0)"
       style="fill:#000000;fill-opacity:1;stroke:none"
       d="m 607.77197,164.48044 312.43067,0 0,165.72603 -312.43067,0 z"
       id="rect3787" />
    <path
       transform="matrix(1,0,-0.39555542,0.91844211,0,0)"
       style="fill:#0748b8;fill-opacity:1;stroke:url(#linearGradient3815);stroke-width:9.60286808;stroke-miterlimit:4"
       d="m 548.70966,349.30801 451.33494,0 0,158.09761 -451.33494,0 z"
       id="rect3795" />
    <path
       transform="matrix(1,0,-0.39555542,0.91844211,0,0)"
       style="fill:#0748b8;fill-opacity:1;stroke:url(#linearGradient3819);stroke-width:9.60286808;stroke-miterlimit:4"
       d="m 550.95636,703.85779 451.33494,0 0,158.09761 -451.33494,0 z"
       id="rect3817" />
    <path
       transform="matrix(1,0,-0.39555542,0.91844211,0,0)"
       style="fill:#000000;fill-opacity:1;stroke:url(#linearGradient3823);stroke-width:9.60286808;stroke-miterlimit:4"
       d="m 548.61499,526.78278 451.3349,0 0,158.09761 -451.3349,0 z"
       id="rect3821" />
    <path
       style="fill:#d90102;fill-opacity:1;stroke:#000000;stroke-width:9.39973164;stroke-linecap:butt;stroke-linejoin:miter;stroke-miterlimit:4;stroke-opacity:1;stroke-dasharray:none"
       d="m -19.679764,464.80799 349.174954,0 14.31705,-35.79244 c -12.56901,-5.92221 -19.44131,-12.98214 -19.74633,-21.08243 -0.47845,-12.69888 16.99581,-26.19747 29.76112,-44.17405 8.3609,-11.77459 14.70164,-25.47033 12.65376,-42.12081 l -195.26768,0 c -0.93245,8.9109 2.23024,19.17225 7.83123,29.01883 5.79776,10.1925 13.87102,20.3997 18.25601,30.16143 2.66058,5.92338 3.96324,11.68273 2.5752,17.17526 -4.30711,22.42961 -24.71816,29.10005 -41.83287,17.77978 -35.08356,-29.2159 -49.40907,-45.76207 -98.699847,-36.56501 -28.089062,5.30193 -55.0384001,22.68345 -69.0530854,49.96002 -5.5069886,10.71803 -9.0539776,22.7328 -9.9695116,35.63942 z"
       id="path3825"
       inkscape:connector-curvature="0"
       sodipodi:nodetypes="cccssccsscccsc" />
    <path
       style="fill:#d90102;fill-opacity:1;stroke:#000000;stroke-width:9.39973164;stroke-linecap:butt;stroke-linejoin:miter;stroke-miterlimit:4;stroke-opacity:1;stroke-dasharray:none"
       d="m 170.23648,302.22781 196.03548,0 c -0.0298,-21.43301 -6.75951,-38.67736 -17.07415,-52.17557 -22.69032,-28.64049 -53.15141,-40.31135 -82.32724,-39.29643 -33.50378,1.16546 -65.31246,19.05961 -81.71171,47.19531 -7.15507,12.0087 -12.48895,26.64161 -14.92238,44.27669 z"
       id="path3827"
       inkscape:connector-curvature="0"
       sodipodi:nodetypes="cccscc" />
    <path
       style="fill:#d90102;fill-opacity:1;stroke:#000000;stroke-width:9.39973164;stroke-linecap:butt;stroke-linejoin:miter;stroke-miterlimit:4;stroke-opacity:1;stroke-dasharray:none"
       d="m 182.6988,647.81217 68.84002,0 -45.2998,110.18344 z"
       id="path3831"
       inkscape:connector-curvature="0" />
    <path
       style="fill:#d90102;fill-opacity:1;stroke:#000000;stroke-width:9.39973164;stroke-linecap:butt;stroke-linejoin:miter;stroke-miterlimit:4;stroke-opacity:1;stroke-dasharray:none"
       d="m -17.931257,485.0906 337.942747,0 -58.74833,140.99596 -82.80724,0 c -5.76579,-29.69995 -23.48429,-48.09692 -36.99578,-53.81482 -17.6906,-7.48643 -42.652214,-0.01 -65.947104,-0.34604 -23.203866,-0.33504 -43.355481,-7.16845 -62.593598,-24.83211 -17.8599544,-16.3982 -28.93409,-34.33991 -30.850695,-62.00299 z"
       id="path3833"
       inkscape:connector-curvature="0"
       sodipodi:nodetypes="ccccsssc" />
    <g
       transform="matrix(2.6523441,0,0,2.5516163,-3521.1776,-785.74272)"
       style="font-size:40px;font-style:normal;font-variant:normal;font-weight:bold;font-stretch:normal;line-height:125%;letter-spacing:0px;word-spacing:0px;fill:#000000;fill-opacity:1;stroke:#000000;stroke-width:1.84333766;stroke-miterlimit:4;font-family:Arial;-inkscape-font-specification:Arial Bold"
       id="flowRoot3835">
      <path
         d="m 1300.0664,580.79794 0,-28.63281 9.2774,0 c 3.5156,3e-5 5.8072,0.14325 6.875,0.42968 1.6406,0.42972 3.0143,1.36396 4.121,2.80274 1.1068,1.43882 1.6602,3.29755 1.6602,5.57617 0,1.75783 -0.319,3.23569 -0.957,4.43359 -0.6381,1.19793 -1.4486,2.13869 -2.4317,2.82227 -0.9831,0.68361 -1.9824,1.13608 -2.998,1.35742 -1.3802,0.27345 -3.3789,0.41017 -5.9961,0.41016 l -3.7695,0 0,10.80078 z m 5.7813,-23.78906 0,8.125 3.164,0 c 2.2787,10e-6 3.8021,-0.14973 4.5703,-0.44922 0.7682,-0.29946 1.3705,-0.76821 1.8067,-1.40625 0.4362,-0.638 0.6542,-1.38019 0.6543,-2.22656 -10e-5,-1.04165 -0.306,-1.90102 -0.918,-2.57813 -0.612,-0.67706 -1.3867,-1.10024 -2.3242,-1.26953 -0.6901,-0.13019 -2.0769,-0.19529 -4.1602,-0.19531 z"
         style="fill:#000000;stroke:#000000;font-family:Arial;-inkscape-font-specification:Arial Bold"
         id="path3873" />
      <path
         d="m 1326.6094,580.79794 0,-28.63281 5.7812,0 0,28.63281 z"
         style="fill:#000000;stroke:#000000;font-family:Arial;-inkscape-font-specification:Arial Bold"
         id="path3875" />
      <path
         d="m 1336.4141,571.48153 5.625,-0.54687 c 0.3385,1.88803 1.0253,3.27474 2.0605,4.16015 1.0352,0.88543 2.4316,1.32813 4.1895,1.32813 1.8619,0 3.2649,-0.39388 4.2089,-1.18164 0.944,-0.78776 1.416,-1.70898 1.4161,-2.76367 -10e-5,-0.67708 -0.1986,-1.25325 -0.5957,-1.72852 -0.3972,-0.47525 -1.0906,-0.88866 -2.0801,-1.24023 -0.6771,-0.23437 -2.2201,-0.65103 -4.6289,-1.25 -3.099,-0.76822 -5.2735,-1.71223 -6.5235,-2.83203 -1.7578,-1.57551 -2.6367,-3.49608 -2.6367,-5.76172 0,-1.45831 0.4134,-2.82225 1.2403,-4.0918 0.8268,-1.26951 2.0182,-2.2363 3.5742,-2.90039 1.556,-0.66403 3.4342,-0.99607 5.6347,-0.99609 3.5938,2e-5 6.2988,0.78778 8.1153,2.36328 1.8164,1.57554 2.7701,3.67841 2.8613,6.30859 l -5.7812,0.25391 c -0.2475,-1.47134 -0.7781,-2.52928 -1.5918,-3.17383 -0.8139,-0.64451 -2.0346,-0.96677 -3.6622,-0.9668 -1.6797,3e-5 -2.9948,0.34508 -3.9453,1.03516 -0.612,0.44273 -0.9179,1.03518 -0.9179,1.77734 0,0.67711 0.2864,1.25653 0.8593,1.73828 0.7292,0.612 2.5,1.25002 5.3125,1.91407 2.8125,0.66408 4.8926,1.35092 6.2403,2.06054 1.3476,0.70965 2.4023,1.6797 3.164,2.91016 0.7617,1.23048 1.1426,2.75066 1.1426,4.56055 0,1.64063 -0.4557,3.17708 -1.3672,4.60937 -0.9115,1.43229 -2.2005,2.49675 -3.8672,3.19336 -1.6666,0.69661 -3.7435,1.04492 -6.2304,1.04492 -3.6198,0 -6.3998,-0.83659 -8.3399,-2.50976 -1.9401,-1.67318 -3.0989,-4.11133 -3.4765,-7.31446 z"
         style="fill:#000000;stroke:#000000;font-family:Arial;-inkscape-font-specification:Arial Bold"
         id="path3877" />
      <path
         d="m 1390.418,580.79794 -6.2891,0 -2.5,-6.50391 -11.4453,0 -2.3633,6.50391 -6.1328,0 11.1523,-28.63281 6.1133,0 z m -10.6446,-11.32813 -3.9453,-10.625 -3.8672,10.625 z"
         style="fill:#000000;stroke:#000000;font-family:Arial;-inkscape-font-specification:Arial Bold"
         id="path3879" />
    </g>
    <g
       transform="matrix(2.8006467,0,0,2.5516163,-3609.8595,-690.7911)"
       style="font-size:40px;font-style:normal;font-variant:normal;font-weight:bold;font-stretch:normal;line-height:125%;letter-spacing:0px;word-spacing:0px;fill:#000000;fill-opacity:1;stroke:#000000;stroke-width:1.84333766;stroke-miterlimit:4;font-family:Arial;-inkscape-font-specification:Arial Bold"
       id="flowRoot3857">
      <path
         d="m 1298.6016,571.48153 5.625,-0.54687 c 0.3385,1.88803 1.0253,3.27474 2.0605,4.16015 1.0352,0.88543 2.4316,1.32813 4.1895,1.32813 1.8619,0 3.2649,-0.39388 4.2089,-1.18164 0.944,-0.78776 1.416,-1.70898 1.4161,-2.76367 -10e-5,-0.67708 -0.1986,-1.25325 -0.5957,-1.72852 -0.3972,-0.47525 -1.0906,-0.88866 -2.0801,-1.24023 -0.6771,-0.23437 -2.2201,-0.65103 -4.6289,-1.25 -3.099,-0.76822 -5.2735,-1.71223 -6.5235,-2.83203 -1.7578,-1.57551 -2.6367,-3.49608 -2.6367,-5.76172 0,-1.45831 0.4134,-2.82225 1.2403,-4.0918 0.8268,-1.26951 2.0182,-2.2363 3.5742,-2.90039 1.556,-0.66403 3.4342,-0.99607 5.6347,-0.99609 3.5938,2e-5 6.2988,0.78778 8.1153,2.36328 1.8164,1.57554 2.7701,3.67841 2.8613,6.30859 l -5.7812,0.25391 c -0.2475,-1.47134 -0.7781,-2.52928 -1.5918,-3.17383 -0.8139,-0.64451 -2.0346,-0.96677 -3.6622,-0.9668 -1.6797,3e-5 -2.9948,0.34508 -3.9453,1.03516 -0.612,0.44273 -0.9179,1.03518 -0.9179,1.77734 0,0.67711 0.2864,1.25653 0.8593,1.73828 0.7292,0.612 2.5,1.25002 5.3125,1.91407 2.8125,0.66408 4.8926,1.35092 6.2403,2.06054 1.3476,0.70965 2.4023,1.6797 3.164,2.91016 0.7617,1.23048 1.1426,2.75066 1.1426,4.56055 0,1.64063 -0.4557,3.17708 -1.3672,4.60937 -0.9115,1.43229 -2.2005,2.49675 -3.8672,3.19336 -1.6666,0.69661 -3.7435,1.04492 -6.2304,1.04492 -3.6198,0 -6.3998,-0.83659 -8.3399,-2.50976 -1.9401,-1.67318 -3.0989,-4.11133 -3.4765,-7.31446 z"
         style="fill:#000000;stroke:#000000;font-family:Arial;-inkscape-font-specification:Arial Bold"
         id="path3868" />
      <path
         d="m 1345.1055,570.2706 5.6054,1.77734 c -0.8594,3.125 -2.2884,5.44597 -4.2871,6.96289 -1.9987,1.51693 -4.5345,2.27539 -7.6074,2.27539 -3.8021,0 -6.9271,-1.29883 -9.375,-3.89648 -2.4479,-2.59765 -3.6719,-6.14908 -3.6719,-10.6543 0,-4.76561 1.2305,-8.46678 3.6914,-11.10352 2.461,-2.63669 5.6966,-3.95505 9.7071,-3.95507 3.5026,2e-5 6.3476,1.03518 8.5351,3.10546 1.3021,1.22399 2.2786,2.9818 2.9297,5.27344 l -5.7226,1.36719 c -0.3386,-1.48436 -1.045,-2.65623 -2.1192,-3.51563 -1.0742,-0.85935 -2.3796,-1.28903 -3.916,-1.28906 -2.1224,3e-5 -3.8444,0.76174 -5.166,2.28516 -1.3216,1.52346 -1.9824,3.9909 -1.9824,7.40234 0,3.6198 0.651,6.19793 1.9531,7.73438 1.3021,1.53646 2.9948,2.30469 5.0781,2.30468 1.5365,10e-6 2.8581,-0.48827 3.9649,-1.46484 1.1067,-0.97656 1.901,-2.51301 2.3828,-4.60937 z"
         style="fill:#000000;stroke:#000000;font-family:Arial;-inkscape-font-specification:Arial Bold"
         id="path3870" />
    </g>
  </g>
</svg>
