<?xml version="1.0" encoding="utf-8"?>
<!-- Generator: Adobe Illustrator 26.0.0, SVG Export Plug-In . SVG Version: 6.00 Build 0)  -->
<svg version="1.1" id="Layer_1" xmlns="http://www.w3.org/2000/svg" xmlns:xlink="http://www.w3.org/1999/xlink" x="0px" y="0px"
	 viewBox="0 0 506.9 648.3" style="enable-background:new 0 0 506.9 648.3;" xml:space="preserve">
<style type="text/css">
	.st0{fill:#FFFFFF;}
	.st1{fill:#F0A452;}
	.st2{fill:#135DA0;}
</style>
<g>
	<path class="st0" d="M492.5,123.8c-46.5,19.3-100.1,6.2-132.4-32.4c-1-1.2-2.8-1.4-4-0.4l-0.4,0.4c-4.9,5.9-10.4,11.3-16.2,16.2
		C283,155.3,198.6,148,151.1,91.5c-1-1.2-2.8-1.4-4-0.3l-0.4,0.4c-32.3,38.5-85.9,51.6-132.4,32.4c-1.5-0.6-3.1,0.1-3.7,1.5
		l-0.2,0.7c-26.9,204.1,67.4,405.3,241.5,515.2c0.9,0.6,2.1,0.6,3.1,0C429,531.4,523.3,330.2,496.4,126.1c-0.2-1.6-1.6-2.7-3.2-2.5
		L492.5,123.8"/>
	<path class="st1" d="M252.2,65.6l-26.8,17.9c-0.6,0.4-1.3,0.5-1.9,0.3c-1.2-0.4-1.8-1.7-1.4-2.8l8.7-26c0.3-0.8,0.1-1.7-0.5-2.3
		l-18.4-18.4c-0.3-0.3-0.5-0.7-0.6-1.1c-0.2-1.2,0.5-2.4,1.7-2.6l22.8-4.6c0.6-0.1,1.1-0.5,1.5-1l14.3-23.8c0.2-0.3,0.4-0.6,0.8-0.8
		c1.1-0.6,2.4-0.3,3.1,0.8l14.8,24.7l23.8,4.8c0.4,0.1,0.8,0.3,1.1,0.6c0.9,0.9,0.9,2.3,0,3.2l-18.4,18.4c-0.6,0.6-0.8,1.5-0.5,2.3
		l8.7,26c0.2,0.7,0.1,1.4-0.3,1.9c-0.7,1-2.1,1.3-3.1,0.6l-26.8-17.9C253.9,65.1,253,65.1,252.2,65.6"/>
	<path class="st2" d="M217.1,550c1.2,1.1,3.1,1,4.1-0.2c0.5-0.5,0.8-1.2,0.8-2v-97c0-0.8,0.3-1.6,0.9-2.1c1.2-1.1,3-1,4.1,0.1
		l17.1,18.3c0.5,0.5,0.8,1.3,0.8,2V596c0,0.6-0.2,1.2-0.6,1.7c-1,1.3-2.8,1.6-4.1,0.6c-79-58.2-139.4-138.1-173.7-230.1l0,0
		c-0.6-1.5,0.2-3.2,1.7-3.7l16-5.9c1.5-0.6,3.2,0.2,3.7,1.7C115.1,433,159.4,498,217.1,550"/>
	<path class="st2" d="M22.5,204.6l228.8,245c1.1,1.2,2.9,1.2,4.1,0.1l0.1-0.1l228.8-245c0.6-0.6,1.4-1,2.2-0.9
		c1.6,0.1,2.9,1.4,2.8,3c-5.1,170-92.6,326.9-234.4,420.7c-1,0.6-2.2,0.6-3.2,0C110,533.6,22.6,376.7,17.4,206.7
		c0-0.8,0.3-1.6,0.9-2.2C19.5,203.4,21.4,203.5,22.5,204.6 M498.2,118.1c-47.6,19.7-102.4,6.3-135.5-33.1c-1-1.2-2.9-1.4-4.1-0.4
		l-0.4,0.4c-5.1,6-10.6,11.6-16.6,16.6c-57.9,48.7-144.2,41.2-192.9-16.6c-1-1.2-2.9-1.4-4.1-0.4l-0.4,0.4
		c-33.1,39.5-88,52.9-135.5,33.1c-1.5-0.6-3.2,0.1-3.8,1.6l-0.2,0.7c-27.5,209,69,414.9,247.2,527.5c1,0.6,2.2,0.6,3.1,0
		c178.2-112.6,274.7-318.5,247.2-527.5c-0.2-1.6-1.7-2.7-3.3-2.5L498.2,118.1 M43.1,143.8c38,3,75.5-10.1,103.3-36.2
		c59.7,57.7,154.4,57.7,214.2,0c27.8,26.1,65.3,39.3,103.3,36.2c0.8-0.1,1.6,0.2,2.2,0.8c1.2,1.1,1.2,2.9,0.1,4.1L255.6,374.2
		l-0.1,0.1c-1.2,1.1-3,1-4.1-0.1L40.7,148.7c-0.6-0.6-0.8-1.4-0.8-2.2C40.1,144.9,41.5,143.7,43.1,143.8"/>
	<path class="st2" d="M310.6,256.6l13.9-14.9c1.1-1.2,1-3-0.1-4.1c-0.5-0.5-1.3-0.8-2-0.8h-34.5c-1.6,0-2.9,1.3-2.9,2.9v76.8
		c0,0.7-0.3,1.5-0.8,2l-17.1,18.3c-0.6,0.6-1.3,0.9-2.1,0.9c-1.6,0-2.9-1.3-2.9-2.9V171c0-1.6,1.3-2.9,2.9-2.9h152.9
		c0.7,0,1.5,0.3,2,0.8c1.2,1.1,1.2,2.9,0.1,4.1l-92.7,99.2c-1.1,1.2-2.9,1.2-4.1,0.1l-12.5-11.6
		C309.5,259.6,309.5,257.8,310.6,256.6 M284.9,210.9c0,1.6,1.3,2.9,2.9,2.9h61.4c0.8,0,1.6-0.3,2.1-0.9l15.9-17.1
		c1.1-1.2,1-3-0.1-4.1c-0.5-0.5-1.3-0.8-2-0.8h-77.3c-1.6,0-2.9,1.3-2.9,2.9V210.9z"/>
	<path class="st2" d="M379.1,381.9L379.1,381.9c0.8,1.5,0.3,3.3-1.1,4c-35.6,19.5-65.3,48.3-85.8,83.3c-1.9,3.1-1,7.2,2.1,9.2
		c2.4,1.5,5.5,1.3,7.7-0.5c20.2-18.6,39.7-38,58.5-58.1c8.7-8.4,22.1-9.5,32.1-2.8c11.8,7.9,14.9,23.9,7,35.6
		c-34.4,56.6-79.6,105.9-132.9,145.1c-0.5,0.3-1.1,0.5-1.6,0.5c-1.6,0-2.9-1.3-2.9-2.9v-18.9c0-1,0.5-1.9,1.3-2.4
		c46.6-32.5,85.7-74.5,114.8-123.3c2.1-3.5,0.9-8.1-2.6-10.1c-3.3-1.9-7.5-1.1-9.7,2c-17.3,23.2-37.6,44-60.5,61.7l-0.4,0.3
		c-10.7,7.6-25.6,5-33.2-5.7c-6.7-11.4-6.9-25.6-0.4-37.2c22.7-39.9,55.4-73.1,94.9-96.4l0,0c1.4-0.8,3.2-0.3,4,1.1L379.1,381.9"/>
	<path class="st2" d="M244.9,334.7v-25c0-0.7-0.3-1.5-0.8-2L139.6,195.9c-0.5-0.5-0.8-1.3-0.8-2c0-1.6,1.3-2.9,2.9-2.9h100.2
		c1.6,0,2.9-1.3,2.9-2.9V171c0-1.6-1.3-2.9-2.9-2.9H89c-1.6,0-2.9,1.3-2.9,2.9c0,0.7,0.3,1.5,0.8,2l152.9,163.7
		c1.1,1.2,2.9,1.2,4.1,0.1C244.5,336.3,244.9,335.5,244.9,334.7"/>
</g>
</svg>
