<?xml version="1.0" encoding="utf-8"?>
<!-- Generator: Adobe Illustrator 13.0.2, SVG Export Plug-In . SVG Version: 6.00 Build 14948)  -->
<!DOCTYPE svg PUBLIC "-//W3C//DTD SVG 1.0//EN" "http://www.w3.org/TR/2001/REC-SVG-20010904/DTD/svg10.dtd">
<svg version="1.0" id="Ebene_1" xmlns="http://www.w3.org/2000/svg" xmlns:xlink="http://www.w3.org/1999/xlink" x="0px" y="0px"
	 width="369.187px" height="566.929px" viewBox="0 0 369.187 566.929" enable-background="new 0 0 369.187 566.929"
	 xml:space="preserve">
<path fill-rule="evenodd" clip-rule="evenodd" fill="#E23623" d="M5.593,377.779c2.094,102.625,82.996,185.863,175.029,184.904
	c98.411-1.027,187.595-76.596,183.108-184.006c-20.645-0.6-41.289-1.197-61.934-1.795c-3.89,75.098-47.98,110.727-105.915,122.969
	c-30.738,6.494-64.626-11.969-88.861-31.416c81.082-8.676,144.212-50.863,189.391-126.559
	c-12.865-22.439-24.534-35.904-42.187-51.162c-17.354,30.219-40.989,60.438-69.114,80.781
	c-34.695,21.266-64.619,34.123-110.403,43.084c-3.292-12.566-3.89-26.029-7.181-38.596C46.583,377.181,26.537,376.582,5.593,377.779
	L5.593,377.779z"/>
<path fill-rule="evenodd" clip-rule="evenodd" fill="#529C45" d="M134.452,268.768l1.456-33.929l2.923,0.973
	c33.83,9.224,72.412,7.756,95.966-1.786l2.832,34.428c1.188,23.892-35.901,28.694-49.742,28.362
	c-19.081,0.047-52.355-0.133-54.995-24.846L134.452,268.768L134.452,268.768z M232.566,195.193
	c-31.375,6.621-62.211,6.769-92.396-0.893l-2.066-0.72l0.431-8.875c0.201-3.349-0.024-3.931,0.237-7.749
	c6.061-35.459,12.33-28.029,22.93-59.375c9.208,0.203,30.161,0.65,47.138-1.197c3.648,9.967,3.007,6.558,6.481,15.144
	c4.128,9.953,17.521,38.708,16.596,53.653L232.566,195.193L232.566,195.193z"/>
<path fill-rule="evenodd" clip-rule="evenodd" d="M232.786,270.866l-0.006-1.389l-1.403-27.023
	c-15.07,3.845-29.744,5.896-44.408,5.96c-15.201,0.067-30.39-1.999-45.997-6.41l-1.284,27.492c-0.21,4.513,0.099,7.115,3.156,11.173
	c8.787,10.153,32.975,12.942,43.771,12.803c10.936-0.141,31.741-2.977,41.236-12.168
	C231.16,278.046,232.801,274.644,232.786,270.866L232.786,270.866z M349.375,371.175l19.478-0.002
	c0.222,3.703,0.334,7.406,0.334,11.162c0,101.932-82.662,184.594-184.594,184.594C82.663,566.929,0,484.267,0,382.335
	c0-3.738,0.111-7.451,0.331-11.135l17.607-0.002l0,0h10.771l34.558-0.004c3.809-41.986,28.93-77.828,64.452-96.62
	c-0.043-0.806-0.051-1.628-0.011-2.471l4.244-89.394c1.161-18.232,10.284-34.263,18.248-50.271
	c5.107-10.375,9.637-20.986,12.337-32.264c1.846-8.128,3.535-16.322,4.36-24.625l0.19-2.055l0.008-0.008l0.33-5.458
	c0.025-5.788-0.203-11.492-0.488-17.272c-0.48-9.742-5.147-7.525-5.071-14.62c0.034-3.124,2.605-5.841,3.053-8.791
	c1.409-9.292,1.742-17.325,7.693-22.641c3.126-2.792,7.792-4.728,14.825-4.706c16.723,0.053,18.898,11.813,20.609,24.782
	c0.542,4.105,3.441,6.309,3.366,10.369c-0.092,4.89-3.562,6.616-4.088,13.565c-0.491,6.473-0.852,12.824-0.852,19.313l0.434,6.973
	c0.849,8.867,2.503,17.524,4.646,26.191c2.721,10.547,6.865,20.575,11.298,30.5c8.176,17.843,15.369,32.782,16.627,52.862
	l4.514,85.208c0.111,2.095-0.022,4.087-0.368,5.985c34.37,19.083,58.549,54.306,62.285,95.427l35.161-0.002l0,0H349.375
	L349.375,371.175z M17.938,382.121l-6.401-0.004c-0.202,0,0,0.404,0.001,0.605c0.327,95.283,77.698,172.67,173.055,172.67
	c46.113,0,88.018-18.049,119.04-47.463h-0.021c0.296-0.281,0.59-0.563,0.884-0.846v0.016
	c32.678-31.414,53.054-75.531,53.152-124.404c0-0.121,0.12-0.359,0.001-0.359l-16.581-0.01v0.004l-30.346-0.02l-4.302-0.004
	l0.001,0.029c0,67.275-54.559,121.834-121.834,121.834c-67.275,0-121.834-54.559-121.834-121.834c0-0.061,0.002-0.121,0.002-0.184
	l-15.923-0.01l-13.973-0.008l-4.151-0.004l-10.771-0.006V382.121L17.938,382.121z M238.894,286.326
	c-10.382,13.682-34.585,19.621-54.5,19.361c-17.616-0.23-43.416-5.627-52.971-20c-6.467,3.566-12.541,7.764-18.133,12.508
	c-0.005,0.014-0.016,0.027-0.03,0.037c39.938,0.41,73.716,11.281,107.382,32.211c9.89-12.213,18.63-25.018,26.461-38.887
	l0.033-0.059l0.002-0.004C244.474,289.654,241.722,287.929,238.894,286.326L238.894,286.326z M143.475,189.265
	c28.596,8.235,55.801,8.081,85.12,0.518l-0.3-5.686c-0.482-9.148-2.456-17.755-5.54-26.128
	c-2.785-7.563-10.128-20.507-13.568-29.875c-5.669,6.243-9.703,13.452-12.88,20.616c-3.532,7.97-5.719,16.91-8.153,25.557
	c-0.619,2.024-2.738,2.008-3.198,0.045c-1.93-9.115-4.003-18.378-7.122-26.324c-2.93-7.464-6.548-13.218-12.475-20.202
	c-7.976,18.104-20.244,34.125-21.55,54.442L143.475,189.265L143.475,189.265z M229.206,201.34
	c-14.233,3.461-28.13,5.304-42.018,5.366c-14.636,0.064-29.262-1.85-44.26-5.929l-1.409,29.687
	c30.009,8.981,58.415,8.739,89.245,0.398L229.206,201.34L229.206,201.34z M291.674,355.855
	c-17.418,28.994-38.771,53.975-65.776,73.711c6.537,5.07,13.196,8.723,18.214,10.607c11.574-7.537,22.642-18.105,31.824-29.479
	c7.609-9.422,13.974-19.439,18.948-28.373C294.883,373.197,293.766,364.333,291.674,355.855L291.674,355.855z M291.596,409.138
	c-6.461,9.219-13.619,17.361-19.957,23.463c-6.712,6.463-12.35,10.953-14.578,12.693c4.668,1.576,7.622,2.428,15.125,4.043
	l0.002,0.002c0.018-0.025,0.036-0.047,0.055-0.068C281.226,437.523,287.904,423.921,291.596,409.138L291.596,409.138z
	 M263.674,459.197c-17.209-4.324-33.938-11.342-47.636-22.828c-10.496,6.83-21.592,12.809-33.064,17.83
	c13.131,13.133,30.698,22.023,47.983,28.229C243.26,476.716,254.335,468.806,263.674,459.197L263.674,459.197z M120.627,472.181
	l0.37,0.268c0.012,0.008,0.019,0.016,0.023,0.023c17.969,12.697,39.898,20.16,63.568,20.16c10.52,0,20.698-1.475,30.334-4.229
	c-15.998-7.125-31.187-16.102-43.45-29.508C155.025,465.093,137.987,469.464,120.627,472.181L120.627,472.181z M101.505,309.81
	H101.5c-9.606,10.994-17.06,23.912-21.719,38.098h0.001c35.17-0.902,65.437,4.98,95.383,24.861
	c13.871-9.586,26.615-20.902,37.875-33.445C178.432,318.394,143.225,308.267,101.505,309.81L101.505,309.81z M76.672,359.472
	l-0.003,0.01c-1.557,7.373-2.378,15.018-2.378,22.854c0,8.328,0.93,16.439,2.681,24.24l0.155-0.006
	c30.895-1.486,60.599-11.174,87.271-26.896l0.167-0.104C139.335,362.992,106.923,358.238,76.672,359.472L76.672,359.472z
	 M256.373,298.605l-0.003,0.004c-17.366,30.131-38.936,56.297-64.358,76.18c-31.377,24.539-69.19,40.092-111.849,43.104
	l-0.007,0.006c5.773,16.951,15.558,32.051,28.223,44.16c0.03,0.025,0.06,0.051,0.09,0.076l0.065,0.061
	c43.525-5.313,77.908-18.656,108.53-40.393c26.211-18.605,50.982-46.811,69.854-80.678
	C280.25,324.587,269.689,310.035,256.373,298.605L256.373,298.605z"/>
<path fill-rule="evenodd" clip-rule="evenodd" fill="#E5C263" d="M171.067,64.848c0.021-4.409,0.15-9.265-0.549-14.41
	c-0.741-5.459-1.12-7.58-1.711-9.93l2.804-0.818c0.906,8.474,2.928,15.585,4.897,23.86
	C174.718,63.852,173.029,64.396,171.067,64.848L171.067,64.848z M167.035,33.017c0.475-0.901,1.042-2.316,1.237-3.089
	c2.065-8.165,0.879-17.634,7.836-22.132c-1.161,2.34-2.093,4.775-2.289,6.829c-0.308,3.225,0.072,5.974-0.332,9.785
	c-0.228,2.148-1.275,5.217-1.764,7.312C170.194,32.131,168.536,32.505,167.035,33.017L167.035,33.017z M186.948,5.167
	c2.082-0.03,1.603,0.595,2.267,1.821c1.694,3.126,1.029,14.855,1.585,21.931c-3.467-0.034-6.929,0.311-10.346,0.897
	c0.586-2.309,0.822-5.2,0.814-7.421c-0.008-2.518-0.32-5.027,0.144-7.601c0.421-2.338,0.751-3.259,2.055-6.036
	C184.343,6.892,184.865,5.197,186.948,5.167L186.948,5.167z M196.875,7.343c6.067,3.78,6.044,11.864,7.584,19.341
	c0.231,1.124,0.734,2.22,1.271,3.295c-2.284-0.482-4.794-0.292-6.994-1.292l0.106-0.06C198.532,21.499,198.089,13.639,196.875,7.343
	L196.875,7.343z M206.864,37.936c-0.979,2.11-2.707,4.428-3.304,9.822c-0.293,2.641-0.832,15.01-0.977,17.529
	c-1.538-0.844-3.903-1.048-5.634-1.289l0.015-0.058c1.002-4.2,1.267-8.626,1.513-13.143c0.262-4.809,0.476-9.824,0.539-14.422
	C201.391,36.445,204.997,37.515,206.864,37.936L206.864,37.936z M188.919,63.484c-0.239-0.238-4.008,0.089-4.764,0.09
	c-2.454-8.42-4.061-17.658-4.969-26.377c1.908-0.405,3.819-0.464,5.742-0.807c1.021-0.182,1.83-0.621,2.861-0.785
	c0.909-0.145,2.154-0.087,3.075-0.092c0.258,3.581-0.356,15.611-0.741,19.367c-0.139,1.357-0.292,2.718-0.537,4.069
	C189.309,60.479,188.945,61.997,188.919,63.484L188.919,63.484z"/>
<path fill-rule="evenodd" clip-rule="evenodd" fill="#E5C263" d="M180.149,5.737c-1.944,3.12-4.032,7.888-3.964,10.789
	c0.075,3.229,0.125,7.564-0.33,9.471c-0.559,2.337-1.437,4.736-1.82,7.139c-2.134,0.541-4.273,1.163-6.403,1.858
	c-2.31,1.246-1.503,3.592,1.1,2.969c1.792-0.635,3.494-1.18,5.153-1.651c0.788,10.858,3.261,20.43,5.608,30.393
	c-2.08,0.398-4.17,0.935-6.252,1.615c-2.273,1.319-1.283,3.849,0.88,3.299c2.012-0.75,4.288-1.513,6.538-1.872
	c1.75-0.279,3.443-0.228,5.265-0.296c1.165-0.043,2.45-0.376,3.623-0.34c1.64,0.051,3.188,0.467,4.843,0.743
	c2.129,0.354,3.817,0.623,5.908,1.106c1.613,0.403,2.566-2.603,0.88-3.3c-2.118-0.656-4.343-1.141-6.646-1.447
	c-0.104-1.007-0.351-1.826-0.056-2.9c0.667-2.427,0.854-5.527,1.105-8.09c0.688-7.04,0.97-14.299,0.838-21.688
	c3.043,0.294,6.422,1.09,9.377,1.79c1.906,0.586,2.273-1.577,0.33-2.64c-2.945-0.629-6.39-1.364-9.769-1.735
	c-0.241-7.862-0.943-15.86-2.115-23.892c-0.867-2.905-1.685-2.901-2.863-3.303c1.23,8.894,1.877,18.293,2.046,26.974
	c-0.193-0.007-0.386-0.011-0.577-0.015c-5.034-0.09-10.438,0.539-15.93,1.741c0.52-2.228,1.339-4.454,1.578-6.678
	c0.354-3.292,0.091-6.16,0.109-9.471c0.018-3.239,2.386-8.439,3.854-11.449C181.947,5.076,180.664,5.517,180.149,5.737
	L180.149,5.737z M182.317,66.248c-2.85-9.146-4.837-19.378-5.802-29.571c-0.033-0.35-0.045-0.701-0.039-1.05
	c2.61-0.641,5.178-1.118,7.902-1.511c0.461-0.066,1.803-0.463,2.696-0.65c0.894-0.188,1.892-0.15,2.774-0.175
	c1.2-0.033,2.405,0.001,3.614,0.059c0.057,6.577-0.157,13.095-0.594,19.562c-0.226,3.33-0.73,7.418-1.398,9.953
	c-0.261,0.992-0.074,2.027,0.052,3.054C188.536,65.729,185.447,65.833,182.317,66.248L182.317,66.248z"/>
<path fill-rule="evenodd" clip-rule="evenodd" fill="#E5C263" d="M318.109,378.875h-11.39h-4.192c0.033,1.15,0.05,2.305,0.05,3.461
	c0,65.152-52.837,117.988-117.989,117.988c-65.152,0-117.988-52.836-117.988-117.988c0-1.158,0.02-2.311,0.055-3.461h-2.283H50.628
	l-4.34,0.002v-0.002H7.725c-0.022,1.152-0.034,2.305-0.034,3.461c0,97.684,79.218,176.902,176.902,176.902
	c97.106,0,175.952-78.287,176.881-175.176h-0.006c0.006-0.576,0.021-1.148,0.021-1.727c0-1.156-0.014-2.311-0.039-3.461h-41.466
	v-0.006L318.109,378.875L318.109,378.875z M48.914,375.039l1.715-0.01h13.742h2.461c2.636-43.1,28.42-79.949,65.073-98.281
	c-0.285-1.451-0.412-2.973-0.349-4.573l4.237-89.251c0.819-17.245,10.449-33.652,18.625-50.344
	c5.241-10.701,9.683-21.676,12.097-32.552c2.096-9.443,3.432-16.48,4.142-23.417c4.292-6.661,31.023-5.276,32.427-0.957
	c0.746,8.918,2.362,16.702,4.481,25.433c2.723,11.213,7.034,21.445,11.118,30.705c7.046,15.974,15.658,28.199,16.955,52.985
	l4.502,86.073c-0.036,2.437-0.424,4.695-1.105,6.791c35.646,18.578,60.621,54.824,63.303,97.119l0.018,0.27h4.365h11.39l1.876,0.014
	v-0.014h44.442h0.005v0.129h0.749h0.005c0.094,2.383,0.155,4.773,0.155,7.178c0,99.807-80.94,180.748-180.748,180.748
	c-99.807,0-180.748-80.941-180.748-180.748c0-0.621,0.003-1.244,0.01-1.863H3.85c0.018-1.713,0.058-3.42,0.123-5.123
	c0.002-0.063,0.007-0.127,0.01-0.191h0.006h0.026v-0.129h0.006h44.893V375.039L48.914,375.039z M135.502,275.021
	c0.049,1.374,0.374,2.526,0.972,3.79c5.864,14.726,34.037,19.384,49.849,19.181c14.242-0.184,38.854-4.219,47.159-17.173
	c1.313-2.051,2.167-4.199,2.576-6.615c0.224-1.318,0.306-2.704,0.229-4.161l-1.718-32.543l-0.399,0.105
	c-31.45,8.91-65.627,9.392-97.087-0.784l-1.682,35.425C135.356,273.202,135.393,274.126,135.502,275.021L135.502,275.021z
	 M237.52,281.194c-8.249,15.438-34.15,20.392-51.144,20.644c-17.587,0.26-46.435-5.285-53.322-21.364
	c-11.02,5.59-21.014,12.915-29.618,21.616c46.604-0.965,80.473,10.381,118.059,33.359c11.252-13.434,21.423-28.469,30.695-45.078
	C247.556,286.957,242.653,283.887,237.52,281.194L237.52,281.194z M137.258,233.139c30.623,10.371,65.046,10.097,97.118,0.686
	l-1.979-37.486c-30.316,8.215-63.042,8.615-93.354-0.784L137.258,233.139L137.258,233.139z M139.216,191.9
	c29.42,9.533,62.209,9.358,92.988,0.793l-0.406-7.696c-1.166-22.085-8.701-33.809-16.631-51.646
	c-1.644-3.697-3.241-7.403-4.734-11.146c-10.878,9.914-18.606,23.71-23.626,41.826c-3.887-19.52-12.427-32.777-22.761-43.507
	c-1.871,4.656-3.961,9.232-6.175,13.746c-7.597,15.493-17.439,32.03-18.238,48.865L139.216,191.9L139.216,191.9z M244.379,444.724
	c23.612-15.576,40.282-35.943,54.346-61.391c0.003-0.332,0.005-0.664,0.005-0.998c0-2.461-0.078-4.906-0.231-7.33
	c-0.635-10.014-2.563-19.676-5.617-28.822c-19.766,34.861-43.481,62.432-73.271,83.148
	C226.913,435.837,235.383,440.849,244.379,444.724L244.379,444.724z M298.353,391.656c-13.043,22.07-28.979,40.803-49.69,54.814
	c8.175,3.152,16.689,5.441,25.086,7.117C287.558,436.332,296.466,414.986,298.353,391.656L298.353,391.656z M176.364,452.832
	c14.661,16.395,34.33,26.508,54.774,33.748c15.377-6.879,28.955-17.059,39.831-29.641c-19.934-4.227-39.396-11.723-54.618-25.383
	c-2.351,1.572-4.738,3.105-7.164,4.596C198.797,442.531,187.857,448.105,176.364,452.832L176.364,452.832z M225.931,488.755
	c-19.714-7.561-38.754-17.668-53.371-34.396c-19.022,7.439-39.523,12.592-61.498,15.268c19.861,16.75,45.513,26.852,73.525,26.852
	C199.168,496.478,213.111,493.742,225.931,488.755L225.931,488.755z M218.973,338.412c-40.155-24.639-74.542-33.982-119.241-32.398
	c-11.653,12.947-20.388,28.576-25.163,45.846c41.624-1.162,69.725,4.73,100.625,25.537c0.905-0.605,1.804-1.217,2.696-1.836
	C193.019,365.072,206.636,352.677,218.973,338.412L218.973,338.412z M171.706,379.677c-29.467-20.467-61.197-25.254-98.13-23.959
	c-2.043,8.541-3.13,17.451-3.13,26.617c0,9.738,1.224,19.191,3.52,28.217C109.845,409.382,143.588,397.666,171.706,379.677
	L171.706,379.677z M107.21,466.228c36.592-4.182,70.038-15.039,98.055-31.969c35.092-21.205,63.214-52.148,85.905-92.842
	c-7.418-19.303-19.93-36.082-35.889-48.689c-19.752,35.518-45.365,65.703-76.526,86.949
	c-29.447,20.076-64.923,32.975-103.754,34.658C80.882,434.5,92.18,452.357,107.21,466.228L107.21,466.228z"/>
<path fill="#E6C962" d="M319.536,413.755c-1.545,1.145-6.458,6.178-3.341,8.203c2.281,1.482,4.313-1.088,5.829-4.068
	c3.304-6.502,10.424-8.93,17.239-4.197c4.821,3.348,6.049,9.125,4.313,14.469c-1.299,4.004-3.741,7.703-6.665,10.691l-7.482-6.115
	c4.04-3.131,6.158-8.393,3.432-9.807c-3.622-1.877-4.409,4.42-8.051,7.936c-2.657,2.566-7.939,3.816-13.037,0.684
	c-4.477-2.75-5.774-6.869-5.569-9.934c0.294-4.408,3.337-9.844,6.572-12.641L319.536,413.755L319.536,413.755z"/>
<path fill="#E6C962" d="M57.343,408.875l0.124,0.492l3.154,12.576c1.207,4.814,1.194,8.682-0.041,11.604
	c-1.234,2.92-2.842,5.15-4.823,6.691c-1.481,1.172-3.02,2.045-4.617,2.621l-3.278,1.082c-4.455,1.117-8.775,0.756-12.961-1.084
	s-7.076-5.936-8.669-12.289l-0.124-0.492L22.953,417.5L57.343,408.875L57.343,408.875z M33.893,426.14l0.468,1.865
	c0.147,0.59,0.497,1.285,1.045,2.088c0.746,1.275,1.892,2.336,3.452,3.182c1.561,0.844,3.671,0.934,6.341,0.264
	c3.259-0.816,5.35-2.299,6.266-4.443c0.916-2.145,1.016-4.623,0.31-7.441l-0.147-0.588l-17.883,4.484L33.893,426.14L33.893,426.14z"
	/>
<polygon fill="#E6C962" points="75.288,450.753 75.565,451.177 86.287,467.548 79.251,472.173 73.535,463.525 69.382,466.246 
	74.562,474.226 67.55,478.818 62.28,470.765 58.05,473.525 63.835,482.328 56.677,487.05 45.627,470.177 75.288,450.753 "/>
<polygon fill="#E6C962" points="190.08,510.998 190.583,510.945 210.049,508.939 210.927,517.312 200.621,518.419 201.128,523.357 
	210.597,522.421 211.456,530.757 201.883,531.742 202.392,536.767 212.868,535.669 213.776,544.197 193.712,546.265 190.08,510.998 
	"/>
<path fill="#E6C962" d="M138.031,502.041l0.452,0.15l13.1,4.377l1.985,0.822c0.482,0.16,0.99,0.418,1.524,0.771
	c0.535,0.354,1.043,0.756,1.534,1.197c3.262,2.928,3.622,7.65,2.481,11.605c-1.225,4.244-4.93,6.914-9.309,7.006l5.335,16.619
	l-11.277-3.945l-3.307-12.963l-0.789-0.248l-3.482,10.846l-0.451-0.15l-8.854-2.959L138.031,502.041L138.031,502.041z
	 M144.077,520.63c1.506,0.504,2.671,0.498,3.495-0.016s1.429-1.197,1.814-2.051l0.063-0.189l0.063-0.188l0.063-0.189l0.095-0.285
	c0.194-0.881,0.103-1.762-0.272-2.643c-0.376-0.879-1.302-1.564-2.778-2.059l-1.716-0.572l-2.543,7.619L144.077,520.63
	L144.077,520.63z"/>
<polygon fill="#E6C962" points="238.389,499.953 238.831,499.722 247.498,495.191 263.677,526.142 263.235,526.375 254.569,530.904 
	238.389,499.953 "/>
<polygon fill="#E6C962" points="271.691,478.875 277.917,471.289 295.532,477.421 286.323,461.234 292.629,453.617 323.543,471.466 
	317.073,479.248 301.848,469.501 311.291,486.306 307.195,491.199 289.025,485.08 301.365,498.197 294.917,505.951 271.691,478.875 
	"/>
<path fill="#E6C962" d="M125.282,425.595c-1.798-0.68-8.687-2.098-8.708,1.619c-0.016,2.721,3.245,3.045,6.572,2.709
	c7.257-0.732,13.145,3.951,12.843,12.242c-0.213,5.865-4.412,10.02-9.847,11.445c-4.072,1.068-8.504,1.012-12.598,0.164l1.105-9.6
	c4.818,1.709,10.391,0.65,10.107-2.408c-0.376-4.063-6.101-1.324-11.027-2.49c-3.595-0.85-7.5-4.619-7.617-10.602
	c-0.103-5.254,2.663-8.57,5.351-10.053c3.87-2.135,10.088-2.508,14.188-1.297L125.282,425.595L125.282,425.595z"/>
<polygon fill="#E6C962" points="153.326,414.496 146.256,417.792 142.66,410.082 143.119,409.867 166.255,399.078 169.851,406.791 
	162.782,410.087 174.169,434.507 173.71,434.722 164.713,438.917 153.326,414.496 "/>
<path fill="#E5C263" d="M209.318,370.582l0.346-0.35l8.841-8.92c3.384-3.414,6.617-5.322,9.699-5.721
	c3.082-0.4,5.783-0.141,8.104,0.779c1.753,0.678,3.286,1.553,4.601,2.625l2.619,2.25c3.261,3.232,5.22,7.086,5.875,11.557
	c0.655,4.473-1.251,8.961-5.718,13.469l-0.346,0.348l-8.84,8.922L209.318,370.582L209.318,370.582z M235.984,381.953l1.313-1.324
	c0.414-0.418,0.813-1.059,1.194-1.924c0.674-1.268,0.96-2.768,0.849-4.514c-0.112-1.746-1.143-3.584-3.098-5.521
	c-2.386-2.365-4.716-3.408-6.983-3.123s-4.389,1.43-6.368,3.428l-0.414,0.418l13.094,12.979L235.984,381.953L235.984,381.953z"/>
<polygon fill="#E6C962" points="239.667,337.195 239.962,336.785 251.372,320.884 258.22,325.781 252.213,334.23 256.246,337.123 
	261.825,329.417 268.634,334.302 263.022,342.121 267.121,345.072 273.248,336.503 280.232,341.48 268.472,357.867 239.667,337.195 
	"/>
<path fill-rule="evenodd" clip-rule="evenodd" fill="#E5C263" d="M193.195,426.617l9.021-6.258l-1.705-6.352l9.339-6.479
	l5.353,3.822l9.021-6.258l-31.905-21.229l-7.831,5.432L193.195,426.617L193.195,426.617z M198.396,406.126l-2.25-8.383l7.064,5.043
	L198.396,406.126L198.396,406.126z"/>
</svg>
