<?xml version="1.0" encoding="utf-8"?>
<!-- Generator: Adobe Illustrator 23.0.5, SVG Export Plug-In . SVG Version: 6.00 Build 0)  -->
<svg version="1.0" id="Layer_1" xmlns="http://www.w3.org/2000/svg" xmlns:xlink="http://www.w3.org/1999/xlink" x="0px" y="0px"
	 viewBox="0 0 149.6 183.9" style="enable-background:new 0 0 149.6 183.9;" xml:space="preserve">
<style type="text/css">
	.st0{fill:#FFFFFF;}
	.st1{fill:#135CA3;}
	.st2{fill:#DCDDDD;}
	.st3{fill:#FCF118;}
	.st4{fill:#EB1B24;}
	.st5{fill:#D9D9D9;}
	.st6{fill:#D5B715;}
	.st7{fill:#EA5A41;}
	.st8{fill:#12997B;}
	.st9{fill:#9EA5AB;}
	.st10{fill:#E6E7E7;}
	.st11{fill:#E5D5BA;}
	.st12{fill:#666E71;}
	.st13{fill:#F0837D;}
	.st14{fill:#8A8E92;}
	.st15{fill:#9E8B9D;}
</style>
<path class="st0" d="M117.7,47.7l3.2-5l-1.4-0.8l5.9-16l0.9,0.6l1.8-2.8l2.3,1.4l4.3-8.2c-5.6-3.5-11.4-6.6-17.6-9l-3.6,8.3l2.3,1.2
	l-0.9,1.7c-3.2-1.5-6.5-2.7-9.9-3.6l0.4-1.8l3,0.9l2.5-8.8C101.6,2.5,91.7,0.5,81.6,0l-0.8,9.1l2.1,0.3l0.8,0.1l-0.2,1.9
	c-2.9-0.2-5.8-0.3-8.7-0.3s-5.8,0.1-8.7,0.3l-0.2-1.9l0.8-0.1l2.1-0.3L68.1,0C58,0.5,48,2.5,38.4,5.8l2.5,8.8l3-0.9l0.4,1.8
	c-3.4,0.9-6.7,2.1-9.9,3.6l-0.8-1.7l2.3-1.2l-3.6-8.3c-6.1,2.4-12,5.5-17.5,9l4.3,8.2l2.3-1.4l1.8,2.8l0.9-0.6l5.9,16l-1.4,0.9
	l3.2,5C-2,71.5-10.2,118.2,13.6,152s70.4,42,104.2,18.3s42-70.4,18.3-104.2C131.1,59,124.9,52.8,117.7,47.7L117.7,47.7z"/>
<path class="st1" d="M115.4,48.2L115.4,48.2L115.4,48.2L115.4,48.2l-0.4-0.3c-0.5-0.3-1-0.6-1.5-0.9l1.1-1.8l1.5,0.9l0.5,0.3
	l2.1-3.2l-0.5-0.3l-0.6-0.4l7.1-19.1l0.6,0.3l0.7,0.4l1.8-2.8l1.5,0.9l0.7,0.4l2.8-5.3l-0.5-0.3c-0.7-0.4-1.4-0.8-2.1-1.2l-0.7-0.4
	l-1.3,2l-1.5-0.8l1-2.1l-0.3-0.2l-0.4-0.2c-0.8-0.4-1.6-0.8-2.4-1.2l-0.7-0.4l-1.1,2.1c-0.6-0.3-1.1-0.5-1.7-0.8l1-2.1l-0.6-0.3
	c-0.9-0.4-1.8-0.8-2.6-1.2l-0.7-0.3l-2.3,5.4l0.3,0.2l2.1,0.9l-1.4,2.9l0.5,0.3c0.6,0.3,1.2,0.6,1.8,0.9l-1.1,1.6
	c-0.4-0.2-0.9-0.4-1.4-0.6l-0.4-0.2l-1.6,2.6l-0.7-0.3l1.3-2.7l-0.5-0.2l-0.3-0.1l-1.4-0.6l-0.8-0.3l-1.4,2.7l-0.7-0.3l1-2.8
	l-0.8-0.3l-1.4-0.5l-0.8-0.3l-1.4,2.7l-0.8-0.3l0.8-2.9l-0.7-0.2h-0.1l-1.3-0.4l-0.8-0.3l-1.1,2.9l-0.7-0.2l0.6-3l-0.6-0.2l-1.6-0.4
	l0.1-1.9c0.8,0.2,1.6,0.4,2.3,0.6l0.6,0.2l0.7-3.2c0.8,0.2,1.6,0.5,2.4,0.7l0.2,0.1l0.6,0.1l1.7-5.6l-0.5-0.2
	c-0.9-0.3-1.9-0.6-2.8-0.9l-0.5-0.1l-0.7,2.2l-1.6-0.4l0.3-2.3L103.1,5c-0.8-0.2-1.6-0.4-2.4-0.6l-0.3-0.1l-0.4-0.1l-0.6,2.3
	l-1.6-0.4L98,3.8l-0.8-0.2c-0.7-0.1-1.4-0.3-2.1-0.4l-0.7-0.2l-0.6,2.3l-1.7-0.3l0.2-2.3l-0.6-0.1h-0.3c-0.7-0.1-1.5-0.2-2.3-0.3
	l-0.6-0.1l-0.5,2.3l-1.5-0.2l0.1-2.3l-0.7-0.1c-0.8-0.1-1.7-0.2-2.5-0.2H83l-0.5,5.9H83c0.8,0.1,1.6,0.1,2.4,0.2l-0.3,3.3l0.7,0.1
	l2.6,0.3l-0.7,1.9l-1.6-0.2h-0.3l-0.5,0l-0.6,3l-1.1-0.1l0.1-3h-0.4l-2.1-0.1h-0.6l-0.3,3l-1.3-0.2l0.1-3h-0.6c-0.9,0-1.2,0-2,0
	h-0.8l-0.3,3h-0.9l-0.3-3h-0.8c-0.8,0-1.1,0-2,0h-0.6v3l-1.3,0.1l-0.3-3h-0.6l-2.1,0.1H66l0.1,3L64.9,16l-0.6-3l-0.5,0h-0.3
	l-1.6,0.2l-0.7-1.9l2.6-0.3l0.7-0.1l-0.3-3.3l2.4-0.2H67l-0.4-5.8h-0.5c-0.8,0.1-1.7,0.1-2.5,0.2l-0.7,0.1l0.1,2.3l-1.5,0.2L61,2.3
	l-0.6,0.1c-0.8,0.1-1.5,0.2-2.2,0.3h-0.3l-0.6,0.1l0.2,2.3l-1.7,0.3l-0.6-2.3l-0.7,0.2c-0.7,0.1-1.4,0.3-2.1,0.4l-0.8,0.2L52,6.1
	l-1.6,0.4l-0.6-2.2l-0.4,0.1L49,4.4L46.6,5l-0.5,0.1l0.3,2.3l-1.7,0.4l-0.7-2.2l-0.5,0.1c-0.9,0.3-1.9,0.6-2.8,0.9l-0.5,0.2l1.7,5.7
	l0.6-0.1l0.2-0.1c0.8-0.3,1.6-0.5,2.4-0.7l0.7,3.2l0.5-0.2c0.8-0.2,1.6-0.4,2.3-0.6l0.1,1.9l-1.5,0.4l-0.6,0.2l0.6,3l-0.7,0.2
	l-1-2.9l-0.8,0.3l-1.3,0.4h-0.1l-0.7,0.2l0.8,2.9l-0.8,0.3l-1.4-2.7l-0.8,0.3L39.2,19l-0.8,0.3l1,2.8l-0.7,0.3l-1.4-2.7L36.6,20
	l-1.4,0.6l-0.3,0.1l-0.5,0.2l1.3,2.7L35,24l-1.6-2.6l-0.4,0.2c-0.5,0.2-0.9,0.4-1.4,0.6l-1.1-1.6c0.6-0.3,1.2-0.6,1.8-0.9l0.5-0.3
	l-1.4-2.9c0.7-0.3,1.4-0.6,2.1-0.9l0.3-0.2l-2.4-5.4l-0.7,0.3c-0.9,0.4-1.8,0.8-2.6,1.2l-0.6,0.3l1,2.1c-0.6,0.3-1.1,0.5-1.7,0.8
	l-1.1-2.1L25,13c-0.8,0.4-1.6,0.8-2.4,1.2l-0.4,0.2l-0.3,0.2l1,2.1l-1.5,0.8l-1.3-2L19.3,16c-0.7,0.4-1.4,0.8-2,1.2l-0.5,0.3
	l2.8,5.2l0.7-0.4l1.5-0.9l1.8,2.8l0.7-0.4l0.6-0.3l7.1,19.1l-0.6,0.4L31,43.2l2.1,3.2l0.5-0.3l1.5-0.9l1,1.8l-1.4,0.9l-0.4,0.3l0,0
	h0l0,0C0.6,70.6-8.5,116,14,149.6s67.8,42.7,101.4,20.2s42.7-67.8,20.2-101.4C130.3,60.4,123.4,53.5,115.4,48.2L115.4,48.2z"/>
<path class="st2" d="M116.6,42c-1-0.6-1.9-1.1-2.9-1.6c0.9-1.4,3.6-5.5,4.5-6.6c0.4-0.5,1.1-0.8,1.8-0.8L116.6,42z"/>
<path class="st2" d="M120.4,32c-1.1-0.1-2.3,0.3-3,1.2c-0.9,1.1-3.8,5.5-4.6,6.7l-0.7-0.4c0.8-1.3,3.5-5.5,4.9-7.4
	c1-1.4,2.8-1.3,3.8-1.2L120.4,32z"/>
<path class="st2" d="M117.1,15l1.6-3.6l2,0.9l-1,2.1l0.6,0.3l0.1,0.1c0.8,0.4,1.5,0.7,2.3,1.1l0.5,0.3l1.1-2.1
	c0.7,0.4,1.4,0.7,2.1,1.1l-1,2l0.5,0.3l0.2,0.1c0.7,0.4,1.3,0.7,2,1.1l0.5,0.3l1.3-2l1.5,0.9l-1.9,3.4
	C125.6,18.9,121.4,16.8,117.1,15z"/>
<path class="st2" d="M118.2,19.1l1-2c2.6,1.2,5.1,2.5,7.6,3.8l-1.2,1.9C123.2,21.5,120.7,20.2,118.2,19.1z"/>
<path class="st2" d="M120.1,21.1c1.2,0.6,2.4,1.2,3.6,1.9l-2.6,7c-1.8-0.5-3.8,0.1-5,1.5c-1.4,1.9-4.2,6.3-5,7.5
	c-0.9-0.4-1.8-0.8-2.7-1.2L120.1,21.1z"/>
<path class="st2" d="M107,28.1l1-2.8c2.1,0.8,4.1,1.6,6.1,2.6l-1.7,2.4C110.6,29.5,108.8,28.8,107,28.1z"/>
<path class="st2" d="M111.8,31.2l-2,2.9l-1-0.4l1.3-3.3L111.8,31.2z"/>
<path class="st2" d="M106,27.7c-1.9-0.7-3.8-1.3-5.8-1.9l0.2-3c2.2,0.6,4.4,1.3,6.6,2.1L106,27.7z"/>
<path class="st2" d="M102.4,27.6l-1,3.3l-1.4-0.4l0.2-3.6C100.9,27.2,101.7,27.4,102.4,27.6z"/>
<path class="st2" d="M104.1,33l-1,2.7c-1.1-0.4-2.3-0.8-3.4-1.2l0.2-3C101.3,32,102.7,32.5,104.1,33z"/>
<path class="st2" d="M102.3,31.3l1-3.3c2,0.7,3.9,1.4,5.8,2.1l-1.3,3.3C106.1,32.6,104.2,31.9,102.3,31.3z"/>
<path class="st2" d="M105.1,33.3c1.3,0.5,2.7,1.1,4,1.7l-1.7,2.4c-1.1-0.5-2.2-0.9-3.3-1.3L105.1,33.3z"/>
<path class="st2" d="M101.6,17.2l-0.6,3l0.8,0.2l1.3,0.4l0.5,0.1l1-2.8l1,0.3l-0.8,2.9l0.5,0.2l0.3,0.1l1.3,0.5l0.4,0.1l1.4-2.7
	l1.1,0.4l-1,2.8l0.5,0.2l1.4,0.5l0.7,0.3l1.3-2.7l1,0.4l-1.3,2.7l0.5,0.2l0.3,0.1l1.3,0.6l0.4,0.2l1.6-2.6l0.8,0.4l-2.8,4
	c-4.6-2.1-9.3-3.8-14.2-5.2l0.3-4.9L101.6,17.2z"/>
<path class="st2" d="M83.7,6.8L84,2.9c0.6,0,1.2,0.1,1.7,0.1l-0.1,2.3l0.6,0.1l2.1,0.2L89,5.8l0.4-2.3l1.7,0.2L90.9,6l0.5,0.1
	c0.8,0.1,1.7,0.3,2.5,0.4l0.6,0.1l0.6-2.3l1.7,0.3L96.4,7l0.8,0.1l1.9,0.4l0.8,0.2l0.6-2.3l1.8,0.4L102,8.2l0.8,0.2
	c0.6,0.2,1.2,0.3,1.9,0.5l0.8,0.2l0.7-2.2l1.8,0.6l-1.1,3.7C99.3,8.9,91.5,7.4,83.7,6.8z"/>
<path class="st2" d="M86.2,10.3l0.2-2.2c5.7,0.6,11.4,1.7,17,3.2l-0.5,2.2C97.5,12,91.9,10.9,86.2,10.3z"/>
<path class="st2" d="M89.3,11.7c3.5,0.5,7.1,1.2,10.5,2l-1.1,20.6c-0.7-0.2-1.5-0.4-2.2-0.6c0-1.4-0.1-7-0.2-9.3
	c-0.2-4.3-6.8-4.9-8.4-1.4c-0.8,1.9-2.9,7-3.4,8.4c-0.8-0.1-1.5-0.2-2.3-0.2L89.3,11.7z"/>
<path class="st2" d="M89.7,25c-0.8,1.5-2.4,5.3-2.9,6.6l-1.1-0.1c0.7-1.7,2.6-6.3,3.3-8.1c1.2-2.8,6.3-1.9,6.4,1
	c0.1,2.1,0.2,7.2,0.2,9l-1.2-0.3v-7.2C94.3,22.6,91,21.6,89.7,25z"/>
<path class="st2" d="M93.3,25.9v6.9c-1.8-0.4-3.7-0.8-5.5-1c0.6-1.5,2.1-4.9,2.8-6.4C91.5,23.2,93.3,23.6,93.3,25.9z"/>
<path class="st2" d="M69.2,23.5l0.1,3.5c-0.8,0-1.6,0.1-2.3,0.2l-1.2-3.4C66.9,23.7,68.1,23.6,69.2,23.5z"/>
<path class="st2" d="M65.4,22.8l-1-2.8c3.3-0.4,6.6-0.5,9.9-0.5v2.9C71.3,22.4,68.3,22.5,65.4,22.8z"/>
<path class="st2" d="M74.3,27.9v2.9c-2,0-3.9,0.1-5.9,0.2l-1-2.8C69.7,28,72,27.9,74.3,27.9z"/>
<path class="st2" d="M70.4,27l-0.1-3.5c1.4-0.1,3.1-0.1,4.5-0.1s3.1,0,4.5,0.1L79.2,27c-1.3-0.1-3-0.1-4.4-0.1S71.7,26.9,70.4,27z"
	/>
<path class="st2" d="M75.3,22.4v-2.9c3.3,0,6.6,0.2,9.9,0.5l-1,2.8C81.3,22.5,78.3,22.4,75.3,22.4z"/>
<path class="st2" d="M82.2,28.2l-1,2.8c-1.9-0.1-3.9-0.2-5.9-0.2v-2.9C77.6,27.9,79.9,28,82.2,28.2z"/>
<path class="st2" d="M80.3,27l0.1-3.5c1.2,0.1,2.3,0.2,3.4,0.3l-1.2,3.4C81.8,27.1,81,27.1,80.3,27z"/>
<path class="st2" d="M63.6,14.3l0.6,3l0.8-0.1l1.5-0.1l0.7,0l-0.1-3l1.2-0.1l0.3,3h0.5l1.9-0.1h0.8l-0.1-3h1.4l0.2,2.1l0.1,0.8h0.2
	h0.6h0.6h0.6H76h0.2l0.1-0.8l0.2-2.2h1.4l-0.1,3h0.8l1.9,0.1H81l0.3-3l1.2,0.1l-0.1,3l0.7,0l1.5,0.1l0.8,0.1l0.6-3l1.2,0.1L85.6,19
	c-7.2-0.8-14.4-0.8-21.5,0l-1.7-4.6L63.6,14.3z"/>
<path class="st2" d="M67.4,31.1c-0.8,0.1-1.6,0.1-2.3,0.2c-0.6-1.3-2.6-6.5-3.4-8.4c-1.5-3.6-8.2-2.9-8.4,1.4
	c-0.1,2.3-0.2,7.9-0.2,9.3c-0.8,0.2-1.5,0.4-2.2,0.6l-1.1-20.5c3.5-0.8,7-1.5,10.5-2L67.4,31.1z"/>
<path class="st2" d="M60,25c-1.4-3.3-4.7-2.3-4.7,1v7.1l-1.2,0.3c0-1.8,0.1-6.8,0.2-9c0.1-2.9,5.2-3.8,6.4-1
	c0.8,1.8,2.7,6.5,3.3,8.1l-1.1,0.1C62.3,30.3,60.7,26.5,60,25z"/>
<path class="st2" d="M61.8,31.8c-1.9,0.3-3.7,0.6-5.5,1v-6.9c0-2.3,1.8-2.7,2.7-0.5C59.7,26.9,61.2,30.3,61.8,31.8z"/>
<path class="st2" d="M43.6,27.7l-1-2.8c2.2-0.8,4.4-1.5,6.6-2.1l0.2,3C47.4,26.4,45.5,27.1,43.6,27.7z"/>
<path class="st2" d="M49.5,26.9l0.2,3.6l-1.4,0.4l-1-3.3C48,27.4,48.7,27.1,49.5,26.9z"/>
<path class="st2" d="M42.7,28.1c-1.8,0.7-3.7,1.4-5.4,2.2l-1.7-2.4c2-0.9,4-1.8,6.1-2.6L42.7,28.1z"/>
<path class="st2" d="M39.5,30.5l1.3,3.3l-1,0.4l-2-2.9L39.5,30.5z"/>
<path class="st2" d="M44.5,33.3l1,2.7c-1.1,0.4-2.2,0.9-3.3,1.3L40.5,35C41.9,34.4,43.2,33.8,44.5,33.3z"/>
<path class="st2" d="M41.7,33.3l-1.3-3.3c1.9-0.8,3.8-1.5,5.8-2.2l1,3.3C45.4,31.9,43.5,32.6,41.7,33.3z"/>
<path class="st2" d="M49.7,31.6l0.2,3c-1.2,0.4-2.3,0.8-3.4,1.2l-1-2.7C46.9,32.5,48.3,32,49.7,31.6z"/>
<path class="st2" d="M42.8,11.2l-1.1-3.7L43.5,7l0.7,2.2L45,9c0.6-0.2,1.2-0.4,1.8-0.5l0.8-0.2l-0.4-2.3L49,5.5l0.6,2.3l0.8-0.2
	l1.9-0.4L53.2,7l-0.3-2.3l1.7-0.3l0.6,2.3l0.6-0.1c0.8-0.1,1.7-0.3,2.5-0.4L58.7,6l-0.2-2.3l1.7-0.2l0.4,2.3l0.7-0.1l2.1-0.2L64,5.3
	L63.9,3c0.6-0.1,1.1-0.1,1.7-0.1L66,6.8C58.1,7.4,50.3,8.9,42.8,11.2z"/>
<path class="st2" d="M46.7,13.5l-0.5-2.2c5.6-1.5,11.3-2.6,17-3.2l0.2,2.2C57.8,10.9,52.2,12,46.7,13.5z"/>
<path class="st2" d="M33,22.7l1.6,2.6l0.4-0.2l1.3-0.6l0.3-0.1l0.5-0.2l-1.3-2.7l1-0.4l1.4,2.7l0.7-0.3l1.4-0.5l0.5-0.2l-1-2.8
	l1.1-0.4l1.4,2.7l0.4-0.1l1.3-0.5l0.3-0.1l0.5-0.2L44,18.4l1-0.3l1,2.8l0.5-0.1l1.3-0.4l0.8-0.2l-0.6-3l1-0.3l0.2,5
	c-4.9,1.3-9.6,3.1-14.2,5.2l-2.8-4L33,22.7z"/>
<path class="st2" d="M20.1,21.3l-1.8-3.4l1.5-0.9l1.3,2l0.5-0.3c0.7-0.4,1.3-0.8,2-1.1l0.2-0.1l0.5-0.3l-1-2
	c0.7-0.4,1.4-0.7,2.1-1.1l1.1,2.1l0.5-0.3c0.8-0.4,1.5-0.7,2.3-1.1l0.1-0.1l0.6-0.3l-1-2.1l2-0.9l1.6,3.6
	C28.2,16.9,24.1,19,20.1,21.3z"/>
<path class="st2" d="M24,22.8l-1.2-1.9c2.5-1.4,5-2.7,7.6-3.9l1,2C28.9,20.2,26.4,21.5,24,22.8z"/>
<path class="st2" d="M25.9,22.9c1.2-0.6,2.4-1.3,3.6-1.9l11.7,16.7c-0.9,0.4-1.8,0.8-2.7,1.2c-0.8-1.2-3.6-5.6-5-7.5
	c-1.2-1.4-3.2-2-5-1.5L25.9,22.9z"/>
<path class="st2" d="M28.9,31c1.4-0.4,2.8,0.1,3.8,1.2c1.4,1.9,4.1,6,4.9,7.4l-0.7,0.4c-0.8-1.3-3.7-5.6-4.6-6.7
	c-0.7-0.9-1.9-1.3-3-1.2L28.9,31z"/>
<path class="st2" d="M29.6,33c0.7,0,1.3,0.3,1.8,0.8c0.9,1.1,3.6,5.2,4.5,6.6c-1,0.5-2,1.1-3,1.6L29.6,33z"/>
<path class="st2" d="M33.4,45l-1-1.5c26.1-15.6,58.6-15.6,84.7,0l-1,1.5C90.6,29.8,58.8,29.8,33.4,45L33.4,45z"/>
<path class="st2" d="M36,44.7c24.2-13.4,53.5-13.4,77.7,0l-1.1,1.8c-23.5-13-52.1-13-75.6,0L36,44.7z"/>
<path class="st2" d="M74.8,37.7c13.5,0,26.9,3.6,38.6,10.4h-2.8c-22.3-12.3-49.3-12.3-71.6,0h-2.7C48,41.3,61.3,37.7,74.8,37.7z"/>
<path class="st2" d="M41.2,48.1c21.1-10.9,46.2-10.9,67.2,0H41.2z"/>
<polygon class="st1" points="97.6,14.7 96.5,14.5 96.5,21.3 97.6,21.5 "/>
<polygon class="st1" points="91.7,13.4 90.6,13.2 88.2,19.7 89.3,19.9 "/>
<polygon class="st1" points="122.1,23.4 121.2,22.9 117.6,28.5 118.5,29 "/>
<polygon class="st1" points="52,21.5 53.1,21.3 53.1,14.5 52,14.7 "/>
<polygon class="st1" points="57.9,13.4 60.3,19.9 61.4,19.7 59,13.2 "/>
<polygon class="st1" points="32,28.5 28.4,22.9 27.5,23.4 31.1,29 "/>
<path class="st3" d="M115.1,63c0.8,1.3,1.5,2.7,2.2,4.1l-2.2,1.1V63z"/>
<path class="st3" d="M115.1,69.9c1-0.4,2-0.9,2.9-1.4c2.5,5.1,4.4,10.4,5.9,15.8c-2.8,1.5-5.7,2.8-8.8,4V69.9z"/>
<path class="st3" d="M119.6,67.8c3.3-1.6,6.4-3.5,9.5-5.5c3.4,4,6.4,8.4,8.9,13c-3.9,3.1-8.1,5.9-12.5,8.2
	C124,78.1,122,72.8,119.6,67.8z"/>
<path class="st3" d="M138.7,76.7c2.6,5.1,4.6,10.6,5.9,16.2c-4.7,5.4-10.2,10.2-16.2,14.1c0-0.2,0-0.4,0-0.6
	c0-7.2-0.9-14.4-2.6-21.3C130.3,82.7,134.7,79.9,138.7,76.7z"/>
<path class="st3" d="M127.9,61c-2.9,1.9-6,3.7-9.1,5.3c-1.1-2.2-2.4-4.4-3.7-6.6v-9.9C119.8,53,124.1,56.8,127.9,61z"/>
<path class="st3" d="M115.1,99.3V90c3.2-1.3,6.3-2.6,9.2-4.2c1.6,6.7,2.5,13.6,2.5,20.6c0,0.6,0,1.1,0,1.7c-4.8,3-9.9,5.6-15.1,7.7
	C114,110.6,115.2,105,115.1,99.3z"/>
<path class="st3" d="M38,115.8c-5.3-2.1-10.3-4.7-15.2-7.7c0-0.6,0-1.1,0-1.7c0-6.9,0.8-13.8,2.4-20.5c2.9,1.5,6,2.9,9.2,4.2v9.3
	C34.5,105,35.7,110.6,38,115.8z"/>
<path class="st3" d="M34.5,68.1l-2.2-1.1c0.7-1.4,1.5-2.8,2.2-4.1V68.1z"/>
<path class="st3" d="M34.5,69.9v18.4c-3.1-1.2-6-2.6-8.8-4c1.4-5.4,3.4-10.7,5.8-15.8C32.5,69,33.5,69.4,34.5,69.9z"/>
<path class="st3" d="M24.2,83.5c-4.4-2.4-8.6-5.1-12.5-8.2c2.5-4.7,5.5-9,8.9-13c3,2,6.2,3.9,9.5,5.5C27.6,72.8,25.6,78.1,24.2,83.5
	z"/>
<path class="st3" d="M23.8,85.1c-1.7,7-2.6,14.1-2.6,21.3c0,0.2,0,0.4,0,0.6C15.2,103.1,9.8,98.4,5,93c1.3-5.6,3.3-11.1,5.9-16.2
	C15,79.9,19.3,82.7,23.8,85.1z"/>
<path class="st3" d="M34.5,49.8v9.9c-1.3,2.2-2.6,4.3-3.7,6.6c-3.1-1.6-6.2-3.4-9.1-5.3C25.5,56.8,29.8,53,34.5,49.8z"/>
<path class="st3" d="M21.3,133c-6.8-4.5-12.7-10.1-17.7-16.6c-0.7-7.2-0.4-14.4,1-21.4c4.9,5.4,10.5,10.1,16.6,14
	c0.1,5.6,0.8,11.2,2,16.6h1.7c-1.1-5.1-1.8-10.4-2-15.6c5.1,3.1,10.5,5.8,16.1,7.9c3.8,7.3,9.8,13.3,17.2,17.2
	c0.3,4.2,0.8,8.3,1.7,12.4c-8.3-1.5-16.4-3.9-24.1-7.4c-0.5,0.4-1,0.7-1.7,0.9c8.3,3.9,17.1,6.6,26.1,8.1c1.7,7.4,4.3,14.6,7.8,21.3
	c-6.3-0.5-12.5-1.7-18.6-3.4c-6.5-6.6-11.9-14.2-15.9-22.5l-0.2,0.3l-1.2,0.6c3.7,7.5,8.5,14.5,14.2,20.7c-9.5-3-18.4-7.5-26.3-13.5
	c-7.4-9.7-12.2-21.1-14-33.1c4.9,6,10.7,11.2,17.2,15.4V133z"/>
<path class="st3" d="M21.9,157.2c7.6,4.9,15.9,8.6,24.6,11.1c3.8,3.9,8,7.4,12.5,10.5C44.7,175.6,31.8,168.1,21.9,157.2z"/>
<path class="st3" d="M63.3,179.7c-4.9-3-9.4-6.5-13.6-10.5c5.6,1.4,11.4,2.3,17.2,2.8c1.6,3,3.5,5.8,5.5,8.6
	C69.4,180.5,66.3,180.2,63.3,179.7z"/>
<path class="st3" d="M74.8,180.6h-0.4c-9.7-13-15.5-28.5-16.6-44.7c10.8,5,23.2,5,34,0c-1.2,16.2-6.9,31.7-16.6,44.7L74.8,180.6z"/>
<path class="st3" d="M82.7,172c5.8-0.4,11.6-1.4,17.2-2.8c-4.2,3.9-8.7,7.4-13.6,10.4c-3,0.5-6.1,0.8-9.1,0.9
	C79.2,177.8,81,175,82.7,172z"/>
<path class="st3" d="M90.6,178.8c4.5-3.1,8.7-6.6,12.5-10.5c8.7-2.5,17-6.2,24.6-11.1C117.9,168.1,104.9,175.6,90.6,178.8z"/>
<path class="st3" d="M127.6,135.3c6.8-4.3,12.9-9.7,18-15.8c-1.8,12.1-6.6,23.5-14.1,33.1c-7.9,5.9-16.8,10.5-26.3,13.5
	c5.7-6.2,10.5-13.2,14.2-20.8l-0.1,0.1h-0.6h-1.1c-4,8-9.2,15.3-15.5,21.7c-6.1,1.7-12.3,2.8-18.6,3.4c3.5-6.7,6.2-13.9,7.8-21.3
	c6.6-1.1,13.1-2.9,19.3-5.2c-0.2-0.5-0.4-1-0.4-1.5c-6,2.3-12.2,4-18.5,5.1c0.8-4.1,1.4-8.2,1.7-12.4c7.4-3.8,13.4-9.8,17.2-17.2
	c5.6-2.1,11-4.8,16.1-7.9c-0.2,5.8-1,11.6-2.4,17.3c0.5,0.4,0.9,1,1.1,1.5l0.1,0.3c1.8-6.6,2.7-13.4,2.9-20.3
	c6.1-3.9,11.7-8.6,16.6-14c1.4,7.1,1.7,14.3,1,21.4c-5.3,6.9-11.7,12.8-18.9,17.4L127.6,135.3z"/>
<path class="st1" d="M78.6,153.7c-0.8-0.4-1.7-0.6-2.6-0.6c-2.3,0-4,1.8-4,6c0,3.1,1.4,6.4,5,6.4c0.8,0.1,1.5-0.2,2.2-0.7
	c0.7-0.7,1.3-1.5,1.7-2.3l0.1-0.1H81c0.3,0.1,0.6,0.3,0.8,0.6v0.1c-0.4,1.2-1,2.4-1.9,3.3c-1.1,0.4-2.3,0.6-3.5,0.6
	c-5.2,0-8.4-2.6-8.4-7.7c-0.1-2.7,1.4-5.2,3.9-6.4c1.5-0.7,3.1-1,4.8-1c1.8,0,3.7,0.3,4.7,0.4h0.2v0.2c-0.2,1.3-0.3,2.5-0.4,3.8
	c-0.1,0.3-1,0.4-1.1,0.1C79.6,155,79.4,154.2,78.6,153.7z"/>
<path class="st1" d="M27.6,136.5c0,1.5,0,2.8,0,3.8c0,0.7,0.2,0.9,0.6,1s0.9,0.1,1.5,0.2h0.1v0.1c0,0.3,0,0.6-0.1,0.9h-0.1
	c-1.3,0-2.3-0.1-3.6-0.1s-2.3,0.1-3.7,0.1l-0.1-0.1c-0.1-0.2-0.2-0.8,0-0.9c0.4-0.1,0.8-0.1,1.2-0.2c0.5-0.1,0.6-0.4,0.6-1
	s0.1-3.7,0.1-5.1c0-2.6,0-4,0-4.9c0-0.7-0.2-0.8-0.6-0.9s-0.8-0.1-1.3-0.2l-0.1-0.1c-0.1-0.3-0.1-0.7,0-1h0.1c0.8,0,2.1,0.1,3.5,0.1
	h5.2c0.9,0,1.9,0,2.8-0.2h0.1c0,0,0.3,0.2,0.2,0.4c-0.2,1.2-0.3,2.4-0.4,3.6l-0.1,0.1c-0.2,0.1-0.8,0.2-1,0l0-0.1
	c-0.1-0.7-0.3-1.3-0.5-1.9c-0.2-0.3-0.5-0.5-0.8-0.5c-1.1-0.1-2.2-0.1-3.3,0c-0.1,0.1-0.1,0.2-0.1,0.3c0,1.2,0,3,0,4.8
	c0.7,0,1.5,0,2.2,0c0.5,0,0.7-0.2,0.8-0.6c0.1-0.3,0.2-0.7,0.3-1l0.1-0.1c0.3-0.1,0.7-0.1,1,0l0.1,0.1c0,0.6-0.1,1.4-0.1,2.4
	s0,1.7,0,2.4v0.1c-0.1,0.1-0.1,0.1-0.2,0.1h-0.3c-0.2,0-0.3,0-0.5,0h-0.1v-0.1c-0.1-0.4-0.2-0.7-0.3-1.1c-0.2-0.4-0.4-0.5-0.6-0.5
	C29.3,136.5,28.2,136.5,27.6,136.5z"/>
<path class="st1" d="M115.6,139.8c1.3-3,3.1-8.1,3.7-9.8c0.2-0.5,0.4-1,0.5-1.6v-0.1h0.1c0.3,0,0.8,0,1.2,0s0.8,0,1.1,0h0.1l0.4,1.4
	c0.8,2.2,2.6,7.5,3.4,9.5c0.8,1.9,0.8,2,2.5,2.3l0.1,0.1c0.1,0.3,0,0.6-0.1,0.9h-0.1c-0.6,0-1.6-0.1-3.4-0.1c-1.9,0-2.7,0.1-3.5,0.1
	h-0.1v-0.1c-0.1-0.3-0.1-0.6,0-0.9l0.1-0.1c0.4,0,0.7-0.1,1.1-0.3c0.1-0.1,0.2-0.2,0.2-0.3c-0.2-0.8-0.7-2.3-1-3.1l-0.1-0.1
	c-0.4,0-1.2,0-1.8,0c-0.9,0-1.5,0-1.9,0c-0.1,0-0.1,0.1-0.1,0.1c-0.2,0.6-0.4,1.2-0.6,1.7c-0.1,0.4-0.2,0.7-0.3,1.1
	c0,0.3,0.1,0.5,0.5,0.6s0.7,0.2,1.1,0.2l0.1,0.1c0.1,0.3,0.1,0.7-0.1,0.9l-0.1,0.1c-0.7,0-1.6-0.1-2.9-0.1c-0.9,0-1.8,0.1-2.6,0.1
	l-0.1-0.1c-0.1-0.3-0.1-0.6,0-0.9l0.1-0.1C114.7,141.3,115,141.1,115.6,139.8z M121.3,136.1c-0.2-0.7-0.9-2.8-1.4-4
	c-0.4,1.3-1,3-1.4,4c0.3,0,0.7,0,1.2,0S121.1,136.1,121.3,136.1L121.3,136.1z"/>
<rect x="36" y="49.7" class="st2" width="77.6" height="27.8"/>
<polygon class="st4" points="68.4,77.5 68.4,68.8 58.5,68.8 58.5,77.5 45.7,77.5 45.8,68.8 36,68.8 36,58.3 45.8,58.3 45.7,49.7 
	58.5,49.7 58.5,58.3 68.4,58.3 68.4,49.7 81.2,49.7 81.2,58.3 91.1,58.3 91.1,49.7 103.9,49.7 103.9,58.3 113.6,58.3 113.6,68.8 
	103.9,68.8 103.9,77.5 91.1,77.5 91.1,68.8 81.2,68.8 81.2,77.5 "/>
<path class="st5" d="M98.5,119.7c-5.1,0-7-1.5-12.2-1.5s-5.8,2-11.5,2s-6.3-2-11.5-2s-7.1,1.5-12.2,1.5c-3.4-0.1-6.8-0.6-10.1-1.4
	c1,1.9,2.2,3.6,3.6,5.3c2.2,0.4,4.4,0.6,6.6,0.6c5.1,0,7-1.5,12.2-1.5s5.8,1.9,11.5,1.9s6.3-1.9,11.5-1.9s7.1,1.5,12.2,1.5
	c2.2,0,4.4-0.2,6.6-0.6c1.3-1.7,2.5-3.4,3.6-5.3C105.3,119.2,101.9,119.6,98.5,119.7z"/>
<path class="st5" d="M86.3,127.1c-5.2,0-5.8,2-11.5,2s-6.3-2-11.5-2s-7.1,1.5-12.2,1.5c-0.6,0-1.3,0-1.9-0.1c1.8,1.6,3.8,3,5.9,4.2
	c2.6-0.4,4.6-1.1,8.2-1.1c5.2,0,5.8,2,11.5,2s6.3-2,11.5-2c3.6,0,5.6,0.7,8.2,1.1c2.1-1.2,4.1-2.6,5.9-4.2c-0.6,0-1.2,0.1-1.9,0.1
	C93.3,128.6,91.5,127.1,86.3,127.1z"/>
<path class="st4" d="M61.5,114.9c0,0-0.8-1.4-1.8-1.3s-1.6,0.6-2.6,0.6s-5.1-1.9-5.1-1.9c0.1,0.5,0.2,1.1,0.2,1.7
	c-0.1,0.6-0.4,1.1-0.8,1.5c0,0,1.5,0.1,5.2,0.6S61.5,114.9,61.5,114.9z"/>
<path class="st4" d="M71.7,115.9c0.5-0.3,1.2-0.2,1.6,0.2c0.6,0.3,0.8,1,0.6,1.6c-0.3,0.9-1.1,1.4-2,1.5c-1,0-2.3,0-2.9-1.2
	c-0.7-1.7-1.6-3.4-2.6-5c-0.6-0.6-1.5-0.9-2.3-0.7c-0.9,0.1-1,0.1-1.1-0.1c-0.2-0.5,0.5-1,1.6-1.2c1.1-0.2,2.4-0.3,3.2,0.7
	s2.8,4.2,3,5.2s-0.1,1.6,0.6,1.6s0.9-1,0.8-1.2s-0.8-0.2-0.9-0.6S71.5,116.1,71.7,115.9z"/>
<path class="st6" d="M51.3,92.6c0.3-0.1,0.6-0.1,0.9-0.2c-0.2-0.1-0.3-0.1-0.5-0.2L51.3,92.6z M56,108c-0.1,0.1-0.1,0.2-0.2,0.3
	c0.1,0.1,0.1,0.3,0.2,0.5C55.9,108.5,55.9,108.3,56,108z M54.5,106.6c-0.2-1-0.3-2.1-0.1-3.1c0.1-0.4,0.2-0.9,0.4-1.3
	c0.7,1.4,1.2,2.8,1.5,4.4c0.1-0.6,0.4-1.2,0.8-1.7c0.3,1.3,0.5,2.7,0.4,4c0,0.6-0.3,1.1-0.7,1.4c-0.3-0.2-0.5-0.5-0.6-0.8
	c0,0,0,0.1,0,0.1c0,0.1,0,0.2-0.1,0.3c-0.2,0-0.3,0-0.5-0.1c0.7,0.3,8.6,4.3,11.3,5.4l-0.1,1c-2.7-1.2-13.6-6.8-15-7.6
	c0,0.1,0,0.1,0,0.2c-0.2,0.7-0.6,1.4-1.2,1.8c0-0.3,0-0.5,0-0.8c0-0.6,0.3-1.1,0.8-1.5l-1.4-0.9c-0.2,0.5-0.5,0.9-1,1.1
	c-1.3,0.7-2.8,1.1-4.3,0.9c0.4-0.3,3.4-2.7,5-2.2c-0.6-0.7-2.9-3.1-3.5-5.3l0,0c-0.6,0.2-2.7-2-3.5-3.3c1.5,0.3,2.7,1.2,3.4,2.5
	c0-0.3,0-0.7,0.2-1c0.2-0.6,0.3-1.3,0.3-1.9c0,0.2-0.1,0.3-0.3,0.3c-1,0.6-4.1-0.6-5.3-1.5c0.6-0.2,1.2-0.4,1.8-0.4
	c-1-0.8-1.8-1.8-2.4-3c0.4,0,3.7,0.5,4.5,3.2h0.1c-0.6-1.2-0.7-2.5-0.6-3.8c0-0.2,0.1-0.3,0.1-0.4c0.3,0.3,1.9,2.1,1.7,3.9
	c0,0.3-0.1,0.5-0.2,0.8h-0.1c0.2,0.2,0.5,0.3,0.7,0.6c-0.2-1.9-0.5-3.7-1-5.6v-0.1c-0.2,0-0.4-0.1-0.5-0.3c-0.5-0.6-0.8-1.3-0.9-2.1
	c0.5,0.4,0.9,0.8,1.2,1.3L45,89.9h-0.2c-1.3-0.4-2.5-1.2-3.2-2.3c0.8,0.1,1.5,0.3,2.2,0.5c-1-1.1-1.7-2.5-1.9-4
	c1.3,0.7,2.4,1.6,3.2,2.8c0-0.2,0-0.4,0-0.6v-0.1c-0.2-0.1-0.3-0.3-0.4-0.5c-0.6-1.1-0.9-2.4-0.8-3.6c0-0.1,0-0.2,0.1-0.3
	c0.7,0.8,1.2,1.7,1.6,2.7c0.3-0.7,0.7-1.3,1.2-1.8c0,0.7,0,1.4-0.1,2.2c-0.2,1.2-0.5,2.3-1.3,2.6h-0.1c0.1,0.3,0.2,0.7,0.1,1.1
	c0,0,0,0.1,0,0.1c-0.1,0.1-0.2,0.1-0.4,0.1c0.3,0.2,0.5,0.6,0.6,0.9l0,0l0.3,2.4c0,0.1,0,0.2,0.1,0.4c1.4-0.9,2.6-2.1,3.6-3.5
	c-0.2-0.2-0.3-0.4-0.4-0.7c-0.3-0.9-0.3-1.8-0.2-2.7c0-0.4,0.2-0.8,0.3-1.2c0.3,0.5,0.5,1.1,0.6,1.6c0.5-0.9,1.2-1.7,2-2.3
	c0,0.3,0,0.7-0.1,1c-0.1,0.6-0.2,1.2-0.4,1.8c0.7-0.7,1.6-1.3,2.6-1.5c-0.4,1-1.1,1.9-1.8,2.7c0.2,0,0.4,0,0.6,0c1,0,2,0.3,2.8,0.8
	c-0.7,0.1-3.3,0.3-4.2-0.2c-0.2,0.1-0.5,0.1-0.7,0.1c-0.1-0.1-0.1-0.3-0.1-0.4c-0.1,0.1-0.2,0.2-0.3,0.3v0.1c0,0.3-0.2,0.6-0.4,0.8
	h-0.1l0.1,0.1c-1,1.5-2.4,2.7-3.9,3.6c0.2,0.6,0.4,1.5,0.5,2.5c0.9-0.6,2.9-2.1,4.6-3.5c0,0-0.1-0.1-0.1-0.1l0,0
	c0.1-0.3,0.3-0.6,0.6-0.7c0.2-0.1,0.3-0.1,0.5-0.2c-0.1,0-0.3-0.1-0.4-0.1c0-0.1,0-0.2,0-0.3c0-0.2,0.2-0.4,0.3-0.6
	c1.3-0.9,2.8-1.4,4.4-1.2c-0.9,1-2,1.7-3.2,2.2c1,0,2.1,0.3,3,0.8c-0.9,0.4-1.9,0.7-2.9,0.8c0.8,0.1,1.6,0.4,2.3,0.9
	c-0.7,0.1-4.4,0.5-5-0.5c-1.6,1.3-3.3,2.4-4,2.9c0.2,1.2,0.3,2.5,0.2,3.7c0,0.3-0.1,0.6-0.2,0.9c0,0.1-0.1,0.2-0.1,0.3
	c-0.2,1.7,2.3,4.8,3.4,5.9c0,0,2,1.2,5,2.8c-0.2-0.1-0.3-0.3-0.5-0.4c-0.9-1.1-1.5-2.5-1.6-4C53.6,105.6,54.1,106,54.5,106.6z
	 M45.7,88.6v-0.2c0.2-1.3,0.8-2.4,1.7-3.3c0,0.7,0,1.4-0.1,2.1c-0.2,1.1-0.5,2.3-1.3,2.6C45.8,89.4,45.7,89,45.7,88.6L45.7,88.6z
	 M49.5,92.4c0.1-0.3,0.2-0.7,0.3-1c0.5-1.1,1.3-2.1,2.3-2.8c-0.2,0.7-1.3,4.4-2.5,4.5C49.5,92.9,49.4,92.6,49.5,92.4L49.5,92.4z
	 M49.8,102.7c0.4-0.9,1-1.6,1.8-2.2c0,0.1,0,0.2,0,0.4c-0.2,1.3-0.8,4.5-2.2,4.8c-0.2-0.3-0.3-0.6-0.3-0.9c-0.1,0.1-0.2,0.2-0.3,0.3
	c-0.4-0.5-0.5-1.1-0.4-1.7v-0.3c0.1-1.2,0.6-2.4,1.3-3.4C49.9,100.6,49.9,101.6,49.8,102.7z M42.6,104.2c-0.5,0.3-1,0.3-1.5,0.1
	c-1.4-0.5-2.7-1.4-3.5-2.6C38.2,101.8,42.3,102.6,42.6,104.2L42.6,104.2z M48.7,106.4c-0.2,0.5-0.5,0.8-1,0.9
	c-1.7,0.4-3.4,0.3-5-0.5c0.4-0.2,0.9-0.4,1.3-0.5c-1.6,0-3.2-0.6-4.4-1.6c0.6-0.1,4.9-0.9,5.8,0.9c-0.1,0.1-0.2,0.3-0.3,0.4
	c0.5-0.1,1.1-0.2,1.6-0.2l-0.3-0.2c-0.3-0.3-0.6-0.6-0.8-0.9c-0.5,0.1-1,0.1-1.4-0.1c-1.4-0.6-2.5-1.7-3.2-3
	c1.3,0.4,2.5,0.9,3.7,1.6c-0.2-0.3-0.3-0.6-0.3-0.9c0.5,0.3,3.6,2.3,3.7,3.7C48.3,106.1,48.5,106.2,48.7,106.4L48.7,106.4z
	 M51.3,107.3c-0.2-0.5-0.3-1-0.2-1.5c0-0.3,0.1-0.6,0.2-0.8c0.4,0.6,0.6,1.3,0.5,2c0,0.2-0.1,0.4-0.3,0.6
	C51.5,107.5,51.3,107.4,51.3,107.3L51.3,107.3z"/>
<path class="st4" d="M88.2,114.9c0,0,0.8-1.4,1.8-1.3s1.6,0.6,2.6,0.6s5.1-1.9,5.1-1.9c-0.1,0.5-0.2,1.1-0.2,1.7
	c0.1,0.6,0.4,1.1,0.8,1.5c0,0-1.5,0.1-5.2,0.6S88.2,114.9,88.2,114.9z"/>
<path class="st4" d="M77.9,115.9c-0.5-0.3-1.2-0.2-1.6,0.2c-0.6,0.3-0.8,1-0.6,1.6c0.3,0.9,1.1,1.4,2,1.5c1,0,2.3,0,2.9-1.2
	c0.7-1.7,1.6-3.4,2.6-5c0.6-0.6,1.5-0.9,2.3-0.7c0.9,0.1,1,0.1,1.1-0.1c0.2-0.5-0.5-1-1.6-1.2s-2.4-0.3-3.2,0.7s-2.8,4.2-3,5.2
	s0.1,1.6-0.6,1.6s-0.9-1-0.8-1.2s0.8-0.2,0.9-0.6S78.2,116.1,77.9,115.9z"/>
<path class="st6" d="M98.3,92.6c-0.3-0.1-0.6-0.1-0.9-0.2c0.2-0.1,0.3-0.1,0.5-0.2L98.3,92.6z M93.7,108c0.1,0.1,0.1,0.2,0.2,0.3
	c-0.1,0.1-0.1,0.3-0.2,0.5C93.7,108.5,93.7,108.3,93.7,108z M95.1,106.6c0.2-1,0.3-2.1,0.1-3.1c-0.1-0.4-0.2-0.9-0.4-1.3
	c-0.7,1.4-1.2,2.8-1.5,4.4c-0.1-0.6-0.4-1.2-0.8-1.7c-0.3,1.3-0.5,2.7-0.4,4c0,0.6,0.3,1.1,0.7,1.4c0.3-0.2,0.5-0.5,0.6-0.8
	c0,0,0,0.1,0,0.1c0,0.1,0,0.2,0.1,0.3c0.2,0,0.3,0,0.5-0.1c-0.6,0.3-8.6,4.3-11.3,5.4l0.1,1c2.7-1.2,13.6-6.8,15-7.6
	c0,0.1,0,0.1,0,0.2c0.2,0.7,0.6,1.4,1.2,1.8c0-0.3,0-0.5-0.1-0.8c0-0.6-0.3-1.1-0.8-1.5l1.4-0.8c0.2,0.5,0.5,0.9,1,1.1
	c1.3,0.7,2.8,1.1,4.3,0.9c-0.4-0.3-3.5-2.7-5-2.2c0.6-0.7,2.9-3.1,3.5-5.3l0,0c0.6,0.2,2.7-2,3.5-3.3c-1.5,0.3-2.7,1.2-3.4,2.5
	c0-0.3,0-0.7-0.2-1c-0.2-0.6-0.3-1.3-0.3-1.9c0,0.2,0.1,0.3,0.3,0.3c1,0.6,4.1-0.6,5.3-1.5c-0.6-0.2-1.2-0.4-1.8-0.4
	c1-0.8,1.8-1.8,2.4-3c-0.4,0-3.7,0.5-4.5,3.2h-0.1c0.6-1.2,0.7-2.5,0.6-3.8c0-0.2-0.1-0.3-0.1-0.4c-0.3,0.3-1.9,2.1-1.6,3.9
	c0,0.3,0.1,0.5,0.2,0.8h0.1c-0.2,0.2-0.5,0.3-0.7,0.6c0.2-1.9,0.5-3.7,1-5.6v-0.1c0.2,0,0.3-0.1,0.5-0.3c0.5-0.6,0.8-1.3,0.9-2.1
	c-0.5,0.4-0.9,0.8-1.2,1.3l0.2-1.3h0.2c1.3-0.4,2.5-1.2,3.2-2.3c-0.8,0.1-1.5,0.2-2.2,0.5c1-1.1,1.7-2.5,1.9-4
	c-1.3,0.7-2.4,1.7-3.2,2.9c0-0.2,0-0.4,0-0.6v-0.1c0.2-0.1,0.3-0.3,0.4-0.5c0.6-1.1,0.9-2.4,0.8-3.6c0-0.1,0-0.2-0.1-0.3
	c-0.7,0.8-1.2,1.7-1.6,2.7c-0.3-0.7-0.6-1.3-1.2-1.8c0,0.7,0,1.4,0.1,2.1c0.2,1.2,0.5,2.3,1.3,2.6l0,0c-0.1,0.3-0.2,0.7-0.1,1.1v0.1
	c0.1,0.1,0.2,0.1,0.4,0.1c-0.3,0.2-0.6,0.6-0.6,0.9l0,0l-0.3,2.4c0,0.1,0,0.2-0.1,0.4c-1.4-0.9-2.6-2.1-3.6-3.5
	c0.2-0.2,0.3-0.4,0.4-0.7c0.3-0.9,0.3-1.8,0.2-2.7c0-0.4-0.2-0.8-0.3-1.2c-0.3,0.5-0.5,1.1-0.6,1.6c-0.5-0.9-1.2-1.7-2-2.3
	c0,0.3,0,0.7,0.1,1c0.1,0.6,0.2,1.2,0.4,1.8c-0.7-0.7-1.6-1.3-2.6-1.5c0.5,1,1.1,1.9,1.8,2.7c-0.2,0-0.4,0-0.6,0
	c-1,0-1.9,0.3-2.8,0.8c0.6,0.1,3.3,0.3,4.2-0.2c0.2,0.1,0.5,0.1,0.7,0.1c0.1-0.1,0.1-0.3,0.1-0.4c0.1,0.1,0.2,0.2,0.3,0.3v0.1
	c0,0.3,0.2,0.6,0.4,0.8h0.1l-0.1,0.1c1,1.5,2.3,2.8,3.9,3.7c-0.1,0.6-0.4,1.5-0.5,2.5c-0.9-0.6-2.9-2.1-4.6-3.5c0,0,0.1,0,0.1-0.1
	l0,0c-0.1-0.3-0.3-0.6-0.6-0.7c-0.2-0.1-0.3-0.1-0.5-0.2c0.1,0,0.3-0.1,0.4-0.1c0-0.1,0-0.2,0-0.3c0-0.2-0.1-0.4-0.3-0.6
	c-1.3-0.9-2.8-1.4-4.4-1.2c0.9,0.9,2,1.7,3.2,2.1c-1,0-2.1,0.3-3,0.8c0.9,0.4,1.9,0.7,2.9,0.8c-0.8,0.1-1.6,0.4-2.3,0.9
	c0.7,0.1,4.4,0.5,5-0.5c1.6,1.3,3.3,2.4,4,2.9c-0.2,1.2-0.3,2.5-0.2,3.7c0,0.3,0.1,0.6,0.2,0.9c0,0.1,0.1,0.2,0.1,0.3
	c0.2,1.7-2.3,4.8-3.4,5.9c0,0-2,1.2-5,2.8c0.2-0.1,0.3-0.3,0.5-0.4c0.9-1.1,1.5-2.5,1.6-4C96,105.6,95.5,106,95.1,106.6z
	 M103.9,88.6c0-0.1,0-0.1,0-0.2c-0.2-1.3-0.8-2.4-1.7-3.3c0,0.7,0,1.4,0.1,2.1c0.2,1.1,0.5,2.3,1.3,2.6
	C103.8,89.4,104,89,103.9,88.6L103.9,88.6z M100.1,92.4c-0.1-0.3-0.2-0.7-0.3-1c-0.5-1.1-1.3-2.1-2.3-2.8c0.2,0.7,1.3,4.4,2.5,4.5
	C100.1,92.9,100.2,92.6,100.1,92.4L100.1,92.4z M99.8,102.7c-0.4-0.9-1-1.6-1.8-2.2c0,0.1,0,0.2,0,0.4c0.2,1.3,0.8,4.5,2.2,4.8
	c0.2-0.3,0.3-0.6,0.3-0.9c0.1,0.1,0.2,0.2,0.3,0.3c0.3-0.5,0.5-1.1,0.4-1.7v-0.3c-0.2-1.2-0.6-2.4-1.4-3.4
	C99.7,100.6,99.7,101.6,99.8,102.7z M107,104.2c0.5,0.3,1,0.3,1.5,0.1c1.4-0.5,2.7-1.4,3.5-2.6C111.4,101.8,107.3,102.6,107,104.2
	L107,104.2z M100.9,106.4c0.2,0.5,0.5,0.8,1,0.9c1.7,0.4,3.4,0.3,5-0.5c-0.4-0.2-0.9-0.4-1.4-0.5c1.6,0,3.2-0.6,4.4-1.6
	c-0.6-0.1-4.9-0.9-5.9,0.9c0.1,0.1,0.2,0.3,0.3,0.4c-0.5-0.1-1.1-0.2-1.6-0.2l0.3-0.2c0.3-0.3,0.6-0.6,0.8-0.9
	c0.5,0.1,1,0.1,1.4-0.1c1.4-0.6,2.5-1.7,3.2-3c-1.3,0.4-2.5,0.9-3.7,1.6c0.2-0.3,0.3-0.6,0.3-0.9c-0.5,0.3-3.6,2.3-3.7,3.7
	C101.3,106.1,101.1,106.2,100.9,106.4L100.9,106.4z M98.3,107.3c0.2-0.5,0.3-1,0.2-1.5c0-0.3-0.1-0.6-0.2-0.8
	c-0.4,0.6-0.6,1.3-0.5,2c0,0.2,0.1,0.4,0.3,0.6C98.1,107.5,98.3,107.4,98.3,107.3L98.3,107.3z"/>
<path class="st1" d="M47.3,67.8h-0.6c-1.4,0.4-2.9-0.4-3.4-1.8c-0.2-0.5-0.3-1-0.4-1.5c0-0.2,0-0.5,0-0.7c0.5-3.5,3.2-3.9,4.9-3.6
	c0.5,0.1,1,0.3,1.5,0.5l0.5,0.3l-0.1-0.6c-0.2-1.3-0.4-2.6-0.7-3.8c0.1-1.5,0.6-2.9,1.4-4.1c0.5-0.9,1.1-1.7,1.7-2.5
	c0.6,0.8,1.2,1.6,1.7,2.5c0.8,1.2,1.2,2.6,1.3,4l-0.1,0.4l-0.2,1c-0.1,0.6-0.3,1.5-0.4,2.6L54.3,61l0.5-0.3c0.5-0.3,1-0.4,1.5-0.5
	c1.7-0.3,4.4,0.1,4.9,3.6c0,0.2,0,0.5,0,0.7c-0.1,0.5-0.2,1-0.4,1.5c-0.4,1.4-1.8,2.3-3.3,2l-0.7-0.1c-0.2,0.2-0.4,0.3-0.7,0.3h-2.3
	v1.4l0.5,0.1c0.3-0.5,0.4-0.5,0.6-0.4c0.1,0,0.2,0.1,0.3,0.1c0.2,0.1,0.4,0.3,0.6,0.5c0.5,0.7,0.7,1.6,0.3,2.3
	c-0.3,0.8-1.1,1.4-2,1.3h-0.3v0.8c0.1,1.4-3.6,1.4-3.5,0v-0.8H50c-0.9,0.1-1.7-0.5-2-1.3c-0.4-0.8-0.2-1.7,0.3-2.3
	c0.2-0.2,0.4-0.4,0.6-0.5l0.3-0.2l1-0.4l-0.1-0.5l-2.2-0.1C47.7,68.1,47.5,68,47.3,67.8z"/>
<path class="st6" d="M54.9,70c0.6,0.5,0.9,1.3,0.5,2c-0.3,0.7-1.1,1.1-1.9,0.8c0,0-0.1,0-0.1-0.1l-0.3-0.2l0.1,1.8
	c0,0.5-2.2,0.5-2.2,0l0.1-1.8l-0.3,0.2c-0.7,0.4-1.6,0.1-1.9-0.6c0,0,0-0.1-0.1-0.1c-0.3-0.7-0.1-1.6,0.6-2c0,0.3,0,0.5,0.1,0.8
	c0.2,0.6,0.6,1.1,1.6,0.6l0.1-0.2c0-1.2,0-2.4,0-3.5v-0.2h-3c-0.2,0-0.4-0.2-0.4-0.7s0.3-0.7,0.4-0.7h1.3l-0.1-0.3
	c-0.1-0.6-0.6-1.1-1.1-1.3c-0.2-0.1-0.3-0.1-0.5-0.1h-0.2c-1.4,0.1-1.8,1.7-1.1,3c-2.7,0.1-2.6-3.4-2.6-3.5c0.4-3,2.6-3.3,4.2-3
	c1.2,0.1,2.1,0.9,2.6,2l0.4-0.1c-0.2-2.1-0.5-4.2-1-6.2c0-2,1.8-4.6,2.4-5.4c0.6,0.8,2.4,3.5,2.4,5.4c-0.5,2.1-0.8,4.1-1,6.2
	l0.4,0.1c0.4-1.1,1.4-1.9,2.6-2c1.6-0.3,3.7,0.1,4.2,3c0,0.3-0.1,3.5-2.6,3.5c0.7-1.3,0.3-2.9-1.2-3h-0.2c-0.2,0-0.4,0.1-0.5,0.1
	c-0.5,0.2-1,0.7-1.1,1.3L55,66h1.3c0.2,0,0.4,0.3,0.4,0.7s-0.3,0.7-0.4,0.7h-3v0.2c0,1.1,0,2.2,0,3.5l0.1,0.2c1,0.5,1.5,0,1.6-0.6
	C55,70.5,55,70.2,54.9,70z"/>
<polygon class="st1" points="52.1,52.7 51.3,66 52.9,66 "/>
<path class="st1" d="M92.7,67.8h-0.6c-1.4,0.4-2.9-0.4-3.3-1.8c-0.2-0.5-0.3-1-0.3-1.5c0-0.2,0-0.5,0-0.7c0.5-3.5,3.2-3.9,4.9-3.6
	c0.5,0.1,1,0.3,1.5,0.5l0.5,0.3l-0.1-0.6c-0.2-1.3-0.4-2.6-0.7-3.8c0.1-1.4,0.5-2.8,1.2-4.1c0.5-0.9,1.1-1.7,1.7-2.5
	c0.4,0.5,1.2,1.7,1.7,2.5c0.8,1.2,1.2,2.6,1.4,4l-0.1,0.4l-0.2,1c-0.1,0.6-0.3,1.5-0.4,2.6L99.7,61l0.5-0.3c0.5-0.3,1-0.4,1.5-0.5
	c1.8-0.3,4.4,0.1,4.9,3.6c0,0.2,0,0.5,0,0.7c-0.1,0.5-0.2,1-0.4,1.5c-0.4,1.4-1.8,2.3-3.3,2l-0.7-0.1c-0.2,0.2-0.4,0.3-0.7,0.3h-2.4
	v1.4l0.5,0.1c0.3-0.5,0.4-0.5,0.6-0.4c0.1,0,0.2,0.1,0.3,0.1c0.2,0.1,0.4,0.3,0.6,0.5c0.5,0.7,0.7,1.6,0.3,2.3
	c-0.3,0.8-1.1,1.4-2,1.3h-0.3v0.8c0.1,1.4-3.6,1.4-3.4,0v-0.8h-0.3c-0.9,0.1-1.7-0.5-2-1.3c-0.4-0.8-0.2-1.7,0.4-2.4
	c0.2-0.2,0.4-0.4,0.6-0.5c0.1-0.1,0.2-0.1,0.3-0.2l1-0.4l-0.1-0.5l-2.2-0.1C93.2,68.1,92.9,68,92.7,67.8z"/>
<path class="st6" d="M100.3,70c0.6,0.4,0.9,1.3,0.6,2c-0.3,0.7-1.1,1.1-1.9,0.8c0,0-0.1,0-0.1-0.1l-0.3-0.2l0.1,1.8
	c0,0.5-2.2,0.5-2.2,0l0.1-1.8l-0.3,0.2c-0.7,0.4-1.6,0.1-1.9-0.6c0,0,0-0.1-0.1-0.1c-0.3-0.7-0.1-1.5,0.5-2c0,0.3,0,0.5,0.1,0.8
	c0.2,0.6,0.6,1.1,1.6,0.6l0.1-0.2c0-1.2,0-2.4,0-3.5v-0.2h-3c-0.2,0-0.4-0.2-0.4-0.7s0.3-0.7,0.4-0.7h1.3l-0.1-0.3
	c-0.1-0.6-0.6-1-1.1-1.3c-0.2-0.1-0.3-0.1-0.5-0.1h-0.3c-1.4,0.1-1.8,1.7-1.1,3c-2.7,0.1-2.6-3.4-2.6-3.5c0.4-3,2.6-3.3,4.2-3
	c1.2,0.1,2.1,0.9,2.6,2l0.4-0.1c-0.2-2.1-0.5-4.2-1-6.2c0-2,1.8-4.6,2.4-5.4c0.6,0.8,2.4,3.5,2.4,5.4c-0.5,2-0.8,4.1-1,6.2l0.4,0.1
	c0.4-1.1,1.4-1.9,2.6-2c1.6-0.3,3.7,0.1,4.2,3c0,0.3-0.1,3.5-2.6,3.5c0.7-1.3,0.3-2.9-1.2-3h-0.2c-0.2,0-0.4,0.1-0.5,0.1
	c-0.6,0.2-1,0.7-1.1,1.3l-0.1,0.3h1.3c0.2,0,0.4,0.3,0.4,0.7s-0.3,0.7-0.4,0.7h-3v0.2c0,1.1-0.1,2.2-0.1,3.5l0.1,0.2
	c1,0.5,1.5,0,1.6-0.6C100.4,70.5,100.4,70.2,100.3,70z"/>
<polygon class="st1" points="97.5,52.7 96.8,66 98.3,66 "/>
<path class="st1" d="M70,67.8h-0.6c-1.4,0.4-2.9-0.4-3.4-1.8c-0.2-0.5-0.3-1-0.3-1.5c0-0.2,0-0.5,0-0.7c0.5-3.5,3.2-3.9,4.9-3.6
	c0.5,0.1,1,0.3,1.5,0.5l0.5,0.3l-0.1-0.6c-0.2-1.3-0.4-2.6-0.7-3.9c0.1-1.5,0.6-2.9,1.4-4.1c0.5-0.9,1.1-1.7,1.6-2.5
	c0.6,0.8,1.2,1.6,1.7,2.5c0.8,1.2,1.2,2.6,1.4,4l0,0.4l-0.2,1c-0.1,0.6-0.3,1.5-0.4,2.6l-0.1,0.6l0.5-0.3c0.5-0.3,1-0.4,1.5-0.5
	c1.8-0.3,4.4,0.1,4.9,3.6c0,0.2,0,0.5,0,0.7c0,0.5-0.2,1-0.3,1.5c-0.4,1.4-1.8,2.3-3.3,2L79.6,68c-0.2,0.2-0.4,0.3-0.7,0.3h-2.4v1.4
	l0.5,0.1c0.3-0.5,0.4-0.5,0.6-0.4c0.1,0,0.2,0.1,0.3,0.1c0.2,0.1,0.4,0.3,0.6,0.5c0.5,0.7,0.7,1.6,0.3,2.3c-0.3,0.8-1.1,1.4-2,1.3
	h-0.3v0.8c0.1,1.4-3.6,1.4-3.5,0v-0.8h-0.3c-0.9,0-1.7-0.6-2-1.4c-0.4-0.8-0.2-1.7,0.3-2.3c0.2-0.2,0.4-0.4,0.6-0.5l0.3-0.2l1-0.4
	l-0.1-0.5l-2.2-0.1C70.5,68.1,70.2,68,70,67.8z"/>
<path class="st6" d="M77.6,70c0.6,0.5,0.9,1.3,0.5,2c-0.3,0.7-1.1,1.1-1.9,0.8c0,0-0.1,0-0.1-0.1l-0.3-0.2l0.1,1.8
	c0,0.5-2.2,0.5-2.2,0l0.1-1.8l-0.3,0.2c-0.7,0.4-1.6,0.1-1.9-0.6c0,0,0-0.1-0.1-0.1c-0.3-0.7-0.1-1.5,0.5-2c0,0.3,0,0.5,0.1,0.8
	c0.2,0.6,0.6,1.1,1.6,0.6l0.1-0.2c0-1.2,0-2.4,0-3.5v-0.2h-3c-0.2,0-0.4-0.2-0.4-0.7s0.3-0.7,0.4-0.7H72l-0.1-0.3
	c-0.1-0.6-0.6-1.1-1.1-1.3c-0.2-0.1-0.3-0.1-0.5-0.1H70c-1.4,0.1-1.8,1.7-1.1,3c-2.7,0.1-2.6-3.4-2.6-3.5c0.4-3,2.6-3.3,4.2-3
	c1.2,0.1,2.1,0.9,2.6,2l0.4-0.1c-0.2-2.1-0.5-4.2-1-6.2c0-2,1.8-4.6,2.4-5.4c0.6,0.8,2.4,3.5,2.4,5.4c-0.5,2.1-0.8,4.1-1,6.2
	l0.4,0.1c0.4-1.1,1.4-1.9,2.6-2c1.6-0.3,3.7,0.1,4.2,3c0,0.3,0,3.5-2.6,3.5c0.7-1.3,0.3-2.9-1.2-3h-0.2c-0.2,0-0.4,0.1-0.5,0.1
	c-0.6,0.2-1,0.7-1.1,1.3L77.6,66h1.3c0.2,0,0.4,0.3,0.4,0.7s-0.3,0.7-0.4,0.7h-3v0.2c0,1.1,0,2.2,0,3.5l0.1,0.2c1,0.5,1.5,0,1.6-0.6
	C77.7,70.5,77.7,70.2,77.6,70z"/>
<polygon class="st1" points="74.8,52.7 74,66 75.6,66 "/>
<path class="st6" d="M88.9,98.3l-4.7-2.4c0.3-0.9,0.5-1.8,0.5-2.7l5.5-0.5l-5.6-0.5c0-0.9-0.2-1.7-0.5-2.6l5.2-1.9l-5.5,1
	c-0.4-0.9-1-1.7-1.6-2.5l4-3.9l-4.6,3.2c-0.6-0.6-1.3-1.1-2.1-1.5l1.9-5.1l-2.8,4.7c-1.1-0.4-2.2-0.7-3.3-0.8l-0.4-5.4l-0.4,5.4
	c-1.1,0-2.3,0.3-3.3,0.8l-2.8-4.8l1.9,5.1c-0.8,0.4-1.5,0.9-2.1,1.5l-4.6-3.2l4,3.9c-0.7,0.7-1.2,1.6-1.6,2.5l-5.5-1l5.2,1.9
	c-0.3,0.8-0.4,1.7-0.5,2.6l-5.5,0.5l5.5,0.5c0,0.9,0.2,1.8,0.5,2.7l-4.7,2.4l5-1.6c0.4,1,1,1.9,1.7,2.7l-3.4,4.1l4.1-3.5l0.1,0.1
	l0,0c0,0,0.2,0,0.7-1.1c-3.4-3.2-3.6-8.6-0.3-12.1s8.6-3.6,12.1-0.3s3.6,8.6,0.3,12.1c-0.1,0.1-0.2,0.2-0.2,0.3
	c0.2,0.3,0.4,0.7,0.6,1v0.2l0.1-0.1l4.1,3.4l-3.4-4.1c0.7-0.8,1.3-1.7,1.7-2.7L88.9,98.3z"/>
<path class="st6" d="M73.7,87.8c0,0.1-0.1,0.2,0,0.2S73.7,87.9,73.7,87.8C73.7,87.8,73.8,87.9,73.7,87.8
	C73.8,87.7,73.7,87.7,73.7,87.8z M74.7,87.7v-0.4l0,0V87.7c-0.2,0-0.3,0.2-0.3,0.5c-0.2-0.2-0.3-0.2-0.4-0.1s0,0.1,0,0.1
	s0.2,0,0.4,0.1c0,0.3,0.2,0.5,0.3,0.5s0.3-0.2,0.3-0.5c0.2-0.1,0.3-0.2,0.4-0.1s0.1,0,0-0.1s-0.2-0.1-0.4,0.1
	C75,87.9,74.9,87.7,74.7,87.7L74.7,87.7z M75.5,87.7C75.5,87.7,75.6,87.7,75.5,87.7c0.1,0.1,0.1,0.2,0.1,0.2S75.6,87.8,75.5,87.7
	C75.6,87.7,75.5,87.7,75.5,87.7L75.5,87.7z M70.2,90.7c-0.2-0.1-0.4-0.3-0.6-0.6c0.1-0.2,0.1-0.5,0.1-0.7c0.1-0.2,0.2-0.3,0.1-0.3
	s-0.1,0.2-0.2,0.3c-0.2-0.1-0.3-0.2-0.4,0c0-0.2-0.1-0.4-0.3-0.6c-0.1,0-0.2,0-0.3-0.2c0.2,0.1,0.3-0.2,0.7-0.1s0.1,0.6,0.2,0.6
	s0-0.7,0.5-0.6s0.4,0.5,0.3,0.8c-0.1,0.2-0.1,0.4,0,0.6c-0.3,0-0.1-0.4-0.3-0.4s-0.4,0.3-0.2,0.6c0.3,0.4,0.9,0.4,1.2,0.1
	c0,0,0,0,0,0c0.4-0.3,0.6-0.7,0.5-1.2c0.1,0,0.2,0,0.2-0.1c0.2,0.5,0.7,0.8,1.3,0.7c0.5,0,0.9-0.3,0.9-0.6s-0.1-0.6-0.3-0.5
	s-0.2,0.4-0.3,0.4c0.1-0.3,0.1-0.5,0-0.8c-0.1-0.3,0-0.7,0.3-0.7s0.4,0.3,0.5,0.3s-0.3-0.4-0.1-0.8s0.5-0.2,0.5-0.4
	c0,0.2,0.3,0.1,0.5,0.4S75,87.8,75,87.9s0.1-0.3,0.5-0.3s0.4,0.3,0.3,0.7c-0.1,0.3-0.1,0.5,0,0.8c-0.2-0.1-0.2-0.4-0.3-0.4
	s-0.3,0.3-0.3,0.5s0.4,0.5,0.9,0.6c0.5,0,1-0.3,1.2-0.8c0.1,0.1,0.2,0.1,0.2,0.1c0,0.5,0.2,0.9,0.6,1.2c0.4,0.3,0.9,0.3,1.2-0.1
	c0,0,0,0,0,0c0.2-0.3,0.1-0.7-0.2-0.6s-0.1,0.4-0.3,0.4c0.1-0.2,0.1-0.4,0-0.6c0-0.3-0.2-0.7,0.3-0.8s0.4,0.6,0.5,0.6
	s-0.2-0.5,0.2-0.6s0.5,0.1,0.7,0.1c-0.1,0.2-0.2,0.1-0.3,0.2c-0.1,0.2-0.2,0.4-0.3,0.6c-0.1-0.1-0.3-0.1-0.4,0
	c0-0.1-0.1-0.3-0.2-0.3s0.1,0.2,0.1,0.3c-0.1,0.2-0.1,0.5,0.1,0.7c-0.1,0.2-0.3,0.4-0.6,0.6C76.3,89.3,73,89.3,70.2,90.7L70.2,90.7z
	"/>
<path class="st6" d="M72.4,90.4c0.5,0.2,0.5,0.3,0.1,0.6c-0.1,0-0.3,0.1-0.4,0.1c-0.5-0.1-0.5-0.3-0.1-0.7
	C72.1,90.4,72.3,90.4,72.4,90.4"/>
<path class="st6" d="M77.7,88.6c0-0.1,0-0.3-0.2-0.3c-0.1,0-0.3,0-0.3,0.2c0,0,0,0.1,0,0.1c0,0.2,0.1,0.3,0.3,0.3
	S77.7,88.8,77.7,88.6"/>
<path class="st6" d="M70.5,91l0.6,0.2l-0.3,0.5l-0.2,0.1c0,0,0,0,0-0.1s0.2-0.4,0.3-0.4s-0.3-0.1-0.5-0.1c0,0,0,0,0-0.1
	C70.4,91.1,70.4,91.1,70.5,91"/>
<path class="st7" d="M70.4,91.5c0-0.1,0-0.2,0.1-0.2c0,0,0,0,0,0c0.1,0,0.2,0,0.3,0.1c-0.1,0.1-0.1,0.2-0.2,0.3
	C70.5,91.6,70.4,91.6,70.4,91.5C70.4,91.5,70.4,91.5,70.4,91.5"/>
<path class="st8" d="M72,90.8c0-0.1,0.1-0.2,0.2-0.3s0.3,0,0.3,0.1s-0.1,0.2-0.3,0.3S72,90.9,72,90.8"/>
<path class="st6" d="M74.6,90c-1.5,0-2.9,0.4-4.2,0.9c-0.2,0.1-0.3-0.1-0.1-0.1c2.8-1.4,6-1.4,8.7,0c0.1,0,0.1,0.2-0.1,0.1
	C77.5,90.4,76.1,90.1,74.6,90"/>
<path class="st6" d="M74.6,91.2c-1.3-0.1-2.7,0.2-3.9,0.8c-0.2,0.1-0.2-0.1-0.1-0.1c2.5-1.2,5.5-1.2,8,0c0.1,0.1,0.1,0.3-0.1,0.1
	C77.3,91.4,76,91.1,74.6,91.2"/>
<polyline class="st6" points="74.6,90.8 74.1,90.5 74.6,90.1 74.3,90.1 73.8,90.5 74.3,90.8 74.6,90.8 "/>
<path class="st6" d="M73.6,90.5c0-0.1,0-0.1,0.1-0.1s0.1,0.1,0.1,0.1s0,0.1-0.1,0.1S73.6,90.6,73.6,90.5"/>
<path class="st6" d="M73.8,90.4c0-0.1-0.1-0.1-0.1-0.1s-0.2,0.1-0.2,0.2c0,0.1,0.1,0.2,0.2,0.2c0,0,0,0,0,0c0.1,0,0.1-0.1,0.1-0.1
	l0.5,0.3c-0.5,0-1.1,0.1-1.6,0.2c0.4-0.3,0.4-0.5-0.1-0.7c0.6-0.2,1.1-0.2,1.7-0.3L73.8,90.4"/>
<path class="st6" d="M78.8,91l-0.6,0.2l0.3,0.5l0.2,0.1c0,0,0,0,0-0.1l-0.3-0.4c0.2,0,0.3-0.1,0.5-0.1L78.8,91
	C78.9,91.1,78.9,91.1,78.8,91"/>
<path class="st7" d="M78.9,91.5c0-0.1,0-0.2-0.1-0.2c0,0,0,0,0,0c-0.1,0-0.2,0-0.3,0.1c0.1,0.1,0.1,0.2,0.2,0.3
	C78.8,91.6,78.9,91.6,78.9,91.5"/>
<path class="st6" d="M76.9,90.4c-0.5,0.2-0.5,0.3-0.1,0.6c0.1,0,0.3,0.1,0.4,0.1c0.5-0.1,0.5-0.3,0.2-0.6
	C77.2,90.4,77,90.4,76.9,90.4"/>
<polyline class="st6" points="74.6,90.8 75.2,90.5 74.6,90.1 75,90.1 75.5,90.5 74.9,90.8 74.6,90.8 "/>
<path class="st6" d="M75.7,90.5c0-0.1-0.1-0.1-0.1-0.1c-0.1,0-0.1,0.1-0.1,0.1c0,0.1,0,0.1,0.1,0.1c0,0,0,0,0,0
	C75.6,90.6,75.7,90.6,75.7,90.5"/>
<path class="st6" d="M75.5,90.4c0-0.1,0.1-0.1,0.1-0.1c0.1,0,0.2,0.1,0.2,0.2s-0.1,0.2-0.2,0.2s-0.1,0-0.2-0.1L75,90.9
	c0.5,0,1.1,0.1,1.6,0.2c-0.4-0.3-0.4-0.5,0.1-0.7c-0.6-0.2-1.1-0.2-1.7-0.3L75.5,90.4"/>
<polyline class="st7" points="74.6,90.2 74.2,90.5 74.6,90.8 75.1,90.5 74.6,90.2 "/>
<path class="st9" d="M74.6,91.3c-1.3-0.1-2.7,0.2-3.8,0.8c1.3,0,2,0,3.8,0s2.5,0,3.8,0C77.3,91.5,76,91.2,74.6,91.3"/>
<path class="st6" d="M71.6,88.4c-0.1,0.2-0.1,0.4,0.1,0.5c-0.1,0.3-0.3,0.1-0.4-0.1S71.2,88.3,71.6,88.4"/>
<path class="st6" d="M72,88.3c-0.1-0.1-0.3-0.1-0.3,0c0,0,0,0,0,0.1c-0.1-0.1-0.2-0.3-0.1-0.4c0,0,0.1-0.1,0.1-0.1
	C71.8,87.9,72.1,87.9,72,88.3"/>
<path class="st6" d="M72.1,88.8c0.1-0.2,0.1-0.4-0.1-0.5c0.1-0.3,0.3-0.1,0.4,0.1S72.4,89,72.1,88.8"/>
<path class="st8" d="M69.3,89.8c-0.1-0.1,0-0.2,0-0.3s0.2,0,0.2,0.2s0,0.3,0,0.3S69.4,90,69.3,89.8"/>
<path class="st6" d="M69.6,90.1c0.1-0.2,0.1-0.4,0-0.6c-0.1-0.2-0.2-0.2-0.4-0.1l0,0v0.1c0,0,0.2,0,0.3,0.2s0,0.3,0,0.4s0,0.1,0,0.1
	"/>
<path class="st6" d="M71.1,91.1c0-0.1,0-0.1,0.1-0.1c0,0,0.1,0.1,0.1,0.1c0,0.1,0,0.1-0.1,0.1C71.2,91.2,71.2,91.2,71.1,91.1
	C71.1,91.1,71.1,91.1,71.1,91.1"/>
<path class="st6" d="M71.1,91.1c0-0.1,0.1-0.2,0.1-0.2c0,0,0,0,0,0c0.1,0,0.2,0.1,0.2,0.2s-0.1,0.2-0.2,0.2c0,0-0.1,0-0.1-0.1
	l-0.3,0.4c0.4-0.2,0.8-0.3,1.2-0.5c-0.4-0.1-0.5-0.3-0.2-0.6c-0.4,0.1-0.9,0.3-1.3,0.4L71.1,91.1"/>
<path class="st8" d="M77.3,88.6c0-0.1,0.1-0.2,0.1-0.2c0.1,0,0.2,0.1,0.1,0.2c0,0.1-0.1,0.1-0.1,0.1C77.4,88.8,77.3,88.7,77.3,88.6"
	/>
<path class="st6" d="M77.7,88.4c0.1,0.2,0.1,0.4-0.1,0.5c0.1,0.3,0.3,0.1,0.4-0.1S78,88.3,77.7,88.4"/>
<path class="st6" d="M77.3,88.3c0.1-0.1,0.3-0.1,0.3,0.1c0,0,0,0,0,0.1c0.1-0.1,0.2-0.3,0.1-0.4c0,0-0.1-0.1-0.1-0.1
	C77.5,87.9,77.2,87.9,77.3,88.3"/>
<path class="st6" d="M77.2,88.8c-0.1-0.2-0.1-0.4,0.1-0.5C77.2,88,77,88.2,77,88.4S76.9,89,77.2,88.8"/>
<path class="st8" d="M80,89.8c0-0.1,0-0.3,0-0.3s-0.2,0.1-0.2,0.2s0,0.3,0,0.3S79.9,89.9,80,89.8"/>
<path class="st6" d="M79.7,90.1c-0.1-0.2-0.1-0.4-0.1-0.6c0-0.1,0.2-0.2,0.3-0.2c0,0,0.1,0,0.1,0l0,0v0.1c0,0-0.2,0-0.3,0.2
	s0,0.3,0,0.4S79.7,90.1,79.7,90.1"/>
<path class="st6" d="M79.4,88.8c0,0-0.2-0.2-0.3,0s-0.1,0.3,0,0.3s0-0.1,0.1-0.2S79.4,88.9,79.4,88.8"/>
<path class="st6" d="M70.1,88.9c0.1,0.1,0.1,0.2,0.1,0.2S70.2,89,70.1,88.9c0-0.2-0.3,0-0.2,0S70.1,88.8,70.1,88.9"/>
<path class="st6" d="M78.1,91.1c0-0.1,0-0.1-0.1-0.1c-0.1,0-0.1,0.1-0.1,0.1s0,0.1,0.1,0.1C78.1,91.2,78.2,91.1,78.1,91.1
	C78.1,91.1,78.1,91.1,78.1,91.1"/>
<path class="st6" d="M78.2,91.1c0-0.1-0.1-0.2-0.1-0.2c0,0,0,0,0,0c-0.1,0-0.2,0.1-0.2,0.2c0,0.1,0.1,0.2,0.2,0.2c0,0,0,0,0,0
	c0,0,0.1,0,0.1-0.1l0.2,0.4c-0.4-0.2-0.8-0.3-1.2-0.5c0.4-0.1,0.5-0.3,0.2-0.6c0.4,0.1,0.8,0.3,1.3,0.4L78.2,91.1"/>
<path class="st8" d="M77.3,90.8c0-0.1-0.1-0.2-0.2-0.3s-0.3,0-0.3,0.1s0.1,0.2,0.3,0.3S77.3,90.9,77.3,90.8"/>
<path class="st6" d="M74.3,88.3c0-0.3,0.1-0.5,0.3-0.5S75,88,75,88.3s-0.1,0.5-0.3,0.5S74.3,88.5,74.3,88.3"/>
<path class="st8" d="M74.4,88.3c0-0.2,0.1-0.3,0.2-0.3s0.2,0.1,0.2,0.3s-0.1,0.3-0.2,0.3S74.4,88.4,74.4,88.3"/>
<path class="st6" d="M72.1,88.6c0-0.1,0-0.3-0.2-0.3c-0.1,0-0.3,0-0.3,0.2c0,0,0,0.1,0,0.1c0,0.2,0.1,0.3,0.3,0.3
	S72.1,88.8,72.1,88.6"/>
<path class="st8" d="M71.7,88.6c0-0.1,0.1-0.1,0.2-0.1c0.1,0,0.1,0.1,0.1,0.2c0,0.1-0.1,0.1-0.1,0.1C71.7,88.8,71.7,88.7,71.7,88.6
	C71.7,88.6,71.7,88.6,71.7,88.6"/>
<path class="st10" d="M68.2,101.7L68.2,101.7L68.2,101.7c0.5-0.8,1-1.3,1.6-1.3c0.3,0,0.5,0,0.7,0.2c0-0.3,0-0.9,0-1.8
	c0-1.1,0.1-2.3,0.2-3.4c0.1-0.7,0.2-1.5,0.3-2.2v-0.1h6.5c0.1,0,0.2,0.1,0.3,0.1c0.3,0.1,0.5,0.4,0.5,0.8c0.1,1,0.3,2,0.6,3
	c0.3,1.1,0.6,2,0.3,2.4c-0.1,0.1-0.2,0.1-0.3,0.2c0.5,0.7,0.8,1.4,1,2.2c0.4,1.2,0.4,2.5,0.2,3.7c0.6-1,0.9-2.1,1-3.2
	c0-0.8,0-1.5,0.1-2.3c-1.3-2.4-2.3-4.9-3-7.6H71c-2,7.8-2.7,7.6-2.8,7.7s-0.2,0.3-0.5,0.7c1.1,5.7-0.9,8.7-2.2,9.9h0.8
	c1.1,0,2.2,0.1,3.3,0.5C70.9,108.5,68.3,101.9,68.2,101.7"/>
<path class="st11" d="M71.3,93.3c-0.2,1-0.3,2-0.3,3.1c-0.1,1.4,0.3,2.7,1,3.9c0.7,0.9,1.7,1.5,2.9,1.6c0.6,0,1.2-0.2,1.7-0.7
	c0.8-0.8,1.8-2.6,1.6-6.9c-0.1-0.8-0.6-0.9-0.6-0.9h-0.8h-0.6L71.3,93.3"/>
<path class="st12" d="M75.4,98.4c-0.2-0.1-0.3,0.1-0.2,0.2s0.2,0.2,0.2,0.3S75.2,99,75.1,99c-0.3,0.2-0.6,0.2-0.7,0.1
	c-0.1-0.1-0.2-0.3-0.2-0.4v-2.6c-0.1-0.2-0.1-0.3-0.2-0.3l0,0h-0.1c-0.1,0-1.2-0.4-1.7,0.3c0,0,0,0.1,0,0.2c0.1,0.3,0.4,0.5,0.7,0.5
	c0.4,0.1,0.8,0,1.1-0.2v2.3c0,0.2,0.1,0.5,0.3,0.6c0.3,0.2,0.7,0.1,1-0.1c0,0,0.4-0.1,0.4-0.3C75.8,98.7,75.6,98.5,75.4,98.4z
	 M72.4,96.1c0.2-0.2,0.6-0.3,0.9-0.2c-0.2,0-0.3,0.1-0.4,0.3c0,0,0,0.2,0.1,0.3h-0.2C72.7,96.4,72.5,96.3,72.4,96.1L72.4,96.1z"/>
<path class="st12" d="M77.3,95.8L77.3,95.8c-0.1,0-1.3-0.4-1.8,0.3l-0.1,0.1l0.2,0.3c0.1,0.2,0.2,0.2,0.6,0.4c0.4,0.1,0.7,0,1-0.2
	c0.1-0.1,0.2-0.3,0.3-0.5l0,0L77.3,95.8z M75.8,96.3C75.8,96.2,75.8,96.2,75.8,96.3c0.2-0.3,0.6-0.4,1-0.3c-0.2,0-0.5,0.1-0.6,0.3
	c0,0.1,0.1,0.2,0.2,0.3h-0.2C75.9,96.4,75.9,96.4,75.8,96.3L75.8,96.3z"/>
<path class="st12" d="M71.7,94.8c-0.1,0-0.1,0.1-0.1,0.1c0,0.1,0.1,0.1,0.1,0.1c0.7-0.1,2.1-0.2,2.3,0.2H74
	C73.7,94.6,71.9,94.8,71.7,94.8z"/>
<path class="st12" d="M75.2,95.3L75.2,95.3c0.8-0.4,1.7-0.5,2.4-0.1c0.1,0.1,0.2-0.1,0.1-0.2C76.9,94.5,75.9,94.6,75.2,95.3"/>
<path class="st13" d="M74,99.8c-0.2,0-0.3,0.2-0.4,0.3v0.1l0.1,0.1c0.3,0.3,0.8,0.5,1.2,0.4c0.3-0.1,0.6-0.3,0.8-0.6l0.1-0.1
	l-0.1-0.1c-0.2-0.3-0.6-0.1-0.9,0C74.6,99.8,74.3,99.7,74,99.8"/>
<polyline class="st14" points="73.4,108.9 76.7,108.9 76.4,109.5 73.4,108.9 "/>
<path class="st14" d="M88.3,110.5c-0.4,0-0.7-0.1-1.1-0.2l-2.3-1.4h0.5c0.4,0,0.7-0.1,0.8-0.2c0.1-0.2,0.1-0.4,0-0.6
	c-0.8-2-3.4-3.4-3.4-3.4l-0.3-0.2l0.4-0.1c0.4,0,0.7-0.2,0.9-0.5c0.1-0.3,0-0.7-0.2-1c-0.8-0.9-1.4-1.8-2-2.8
	c-0.3,3.7,0.3,7.3,1.7,10.7c1.7-0.1,3.3-0.1,5,0.2c0.1,0,0.3-0.1,0.3-0.2S88.5,110.7,88.3,110.5"/>
<path class="st15" d="M77.9,110.1c0.1,0,0.3-0.1,0.3-1.1c0-0.2,0-0.4-0.2-0.5s-0.8,0.2-1.1,0.5C77.3,109.6,77.7,110.2,77.9,110.1"/>
<path class="st14" d="M70.8,101.7c0.2-0.5,0.5-1,0.9-1.4c-0.5-0.9-0.9-1.9-0.9-3c0,0.5,0,1,0,1.5c0,1,0,1.7,0.1,1.9
	C71,100.9,71,101.3,70.8,101.7"/>
<path class="st15" d="M78.8,97c-0.2-0.5-0.3-1.1-0.4-1.7c0,1.1-0.1,2.3-0.3,3.4c0.3,0.2,0.6,0.4,0.8,0.7c0.1,0,0.2,0,0.2-0.1
	C79.3,98.9,79.1,98,78.8,97"/>
<path class="st14" d="M67.6,100.9c-0.5,0.6-0.8,1.3-0.9,2.1c0,0.1,0.1,0.3,0.1,0.4c0,2-4.1,4.3-4.4,4.5c-0.1,0.2-0.2,0.4-0.2,0.7
	c0,0.2,0.1,0.4,0.2,0.5c0,0,0.2,0.2,0.2,0.3c0,0,0,0.1,0,0.1c0,0.1-0.2,0.2-1.1-0.1c-0.2,0.1-0.6,0.3-0.6,0.6v0.1
	c0,0.2,0.1,0.4,0.3,0.5c1.4,0.2,2.8,0.2,4.3,0.2C66.6,109.5,68.7,106.7,67.6,100.9"/>
<path class="st0" d="M78.2,105.3c0.4-0.8,0.7-1.7,0.6-2.6c0-1.2-0.3-2.4-0.7-3.6c-0.4,4-1.2,6.7-2.6,8
	C76.6,106.9,77.6,106.3,78.2,105.3"/>
<path class="st0" d="M75.3,106.4C75.3,106.3,75.3,106.3,75.3,106.4c0-0.3-0.2-0.7-0.9-1.4l-3-2.4c0.8,2.4,2.8,3.8,3.6,3.8
	C75.1,106.4,75.2,106.4,75.3,106.4"/>
<path class="st15" d="M81.3,103.1c-0.2,1-0.6,2-1.2,2.8c0,0,0,0.1-0.1,0.1c-0.9,0.9-1.9,1.6-3.1,2c0.8-0.1,1.6-0.2,2,0.4
	c2.2,0.3,2.5,0.6,2.5,0.8s-0.7,0.7-1.6,1.1c-1.3,0.6-2.9,1.3-3.3,2.4c1.5-1,3.3-1.5,5.1-1.6c0.4-0.2,0.9-0.3,1.4-0.4
	C82,108.4,81.4,105.8,81.3,103.1"/>
<path class="st6" d="M73.8,109.9l0.1,3.3c0.5-0.4,0.7-1.1,0.7-1.7C74.5,110.9,74.3,110.3,73.8,109.9"/>
<path class="st15" d="M72.4,108.4c-0.1,0.1-0.2,0.3-0.2,0.5c0,1,0.3,1.1,0.3,1.1c0.2,0,0.5-0.4,0.8-0.9v-0.3
	C73,108.5,72.6,108.3,72.4,108.4"/>
<path class="st6" d="M79.7,110.3c0.8-0.3,1.5-0.7,1.5-0.9s-0.8-0.5-2.4-0.7c-0.5-0.6-1.3-0.5-2-0.4l-0.5,0.1v-0.2
	c1.4-0.4,2.7-1.2,3.7-2.3c0.4-1.3,0.4-2.8,0-4.1c-0.2-1.1-0.8-2-1.7-2.8c0.6,1.6,1.3,4.5,0.1,6.5c-0.7,1.1-1.8,1.8-3,1.9h-0.3
	l0.2-0.2c1.4-1.2,2.3-3.8,2.7-7.8c-0.4,2.2-1,3.4-1.8,3.8c-1.1,0.4-2.5-0.5-3.9-1.6l0.1-0.1c1.9,1.4,3,1.9,3.8,1.6s1.3-1.4,1.7-3.4
	c-0.2,0.7-0.6,1.2-1.1,1.7c-0.5,0.5-1.2,0.8-1.9,0.7c-1.2,0-2.4-0.7-3.1-1.7l0,0c-2.1,3-1.2,4.2,0.2,5.9c0.6,0.7,1.2,1.5,1.6,2.3
	l0.2,0.1h3.3c0.3-0.2,0.8-0.6,1.2-0.4s0.3,0.3,0.3,0.7c0,0.8-0.2,1.3-0.5,1.3s-1-0.7-1.2-1.1l-0.3,0.5l-0.5-0.1l0.1,3.4l0.2-0.1
	C76.6,111.7,78.4,110.9,79.7,110.3z M74.2,103.5c0,0,1.6,1.6,2.5,1l0.1,0.1c-1,0.7-2.6-1-2.7-1L74.2,103.5z M71.2,102.4l-0.1-0.3
	l3.4,2.8c0.5,0.5,1.1,1.2,1,1.6c0,0.1-0.1,0.2-0.4,0.2C74.2,106.6,72,105,71.2,102.4"/>
<path class="st15" d="M73.4,113.2l-0.1-3.5c-0.2,0.3-0.5,0.6-0.8,0.6s-0.5-0.5-0.5-1.4c0-0.4,0.1-0.7,0.3-0.8c0.3-0.1,0.7,0,1,0.2
	c-0.4-0.7-0.9-1.4-1.4-2c-1-1.3-1.9-2.3-1.3-4c0,0.1-0.1,0.2-0.2,0.3l-0.2,0.3l0,0l-0.2,0.2v0.1l-0.1,0.1c-0.3,0.4-0.5,0.7-0.7,0.9
	c0.5,1.6,0.8,3.2,0.9,4.9c0,0.7-0.1,1.4-0.4,2C71.2,111.6,72.4,112.3,73.4,113.2"/>
<path class="st14" d="M70.7,101c0-0.1,0-0.1-0.1-0.2l0,0c-0.2-0.2-0.5-0.3-0.7-0.2c-0.5,0.1-1,0.5-1.5,1.2c0.1,0.2,0.5,1.2,0.9,2.4
	l-0.1-0.2C69.6,103.6,70.9,101.9,70.7,101"/>
<path class="st6" d="M75.6,113.3l-0.1-3.7l-1.9-0.3c0,0.1-0.1,0.1-0.1,0.2c0.7,0.5,1.2,1.2,1.3,2c0,0.7-0.3,1.4-0.8,1.9l-0.1,0.1
	l-0.1,0.1c0.3,0.3,0.6,0.5,0.8,0.8C75,113.9,75.6,113.3,75.6,113.3"/>
</svg>
