<?xml version="1.0" encoding="utf-8"?>
<!-- Generator: Adobe Illustrator 26.0.0, SVG Export Plug-In . SVG Version: 6.00 Build 0)  -->
<svg version="1.1"
	 id="svg2" inkscape:export-ydpi="561.73999" xmlns:cc="http://creativecommons.org/ns#" xmlns:dc="http://purl.org/dc/elements/1.1/" xmlns:inkscape="http://www.inkscape.org/namespaces/inkscape" xmlns:rdf="http://www.w3.org/1999/02/22-rdf-syntax-ns#" xmlns:sodipodi="http://sodipodi.sourceforge.net/DTD/sodipodi-0.dtd" xmlns:svg="http://www.w3.org/2000/svg"
	 xmlns="http://www.w3.org/2000/svg" xmlns:xlink="http://www.w3.org/1999/xlink" x="0px" y="0px" viewBox="0 0 323.4 495.8"
	 style="enable-background:new 0 0 323.4 495.8;" xml:space="preserve">
<style type="text/css">
	.st0{fill:#15155C;}
	.st1{fill:#121A61;}
	.st2{fill:#039D53;}
	.st3{fill:none;stroke:#15155C;stroke-width:0.1756;stroke-miterlimit:7.0238;}
	.st4{fill:#607F4E;}
	.st5{fill:#039D53;stroke:#15155C;stroke-width:0.1756;stroke-miterlimit:7.0238;}
	.st6{fill:#FFFFFF;}
	.st7{fill:none;stroke:#15155C;stroke-width:1.0536;stroke-miterlimit:7.0238;}
	.st8{fill:#C4C26A;}
</style>
<sodipodi:namedview  bordercolor="#666666" borderopacity="1" gridtolerance="10" guidetolerance="10" id="namedview94" inkscape:current-layer="g14" inkscape:cx="31.204926" inkscape:cy="410.74773" inkscape:pageopacity="0" inkscape:pageshadow="2" inkscape:window-height="838" inkscape:window-maximized="1" inkscape:window-width="1600" inkscape:window-x="-8" inkscape:window-y="-8" inkscape:zoom="0.59465202" objecttolerance="10" pagecolor="#ffffff" showgrid="false">
	</sodipodi:namedview>
<g id="g10" transform="matrix(0.6594928,0,0,-0.6594928,151.82245,628.30254)">
	<g id="g12">
		<g>
			<g id="g14">
				
					<g id="g20" transform="matrix(1.0650241,0,0,1.0650241,540.07718,524.94557)" inkscape:export-xdpi="118.72222" inkscape:export-ydpi="118.72222">
					<path id="path22" inkscape:connector-curvature="0" class="st0" d="M-268.1,145.4c-0.3-1.4-1.3-2.5-2.3-3.5
						c-4.1-3.9-8.4-4.6-13.8-3.8c-16.2,2.2-26.9,16.5-36.4,28.4c-0.1,0.1-1.8,2.1-1.8,2.2l3.2,4.5c6.4-7.7,13.6-15.2,21.8-21
						c2.7-1.9,6.1-4.4,9.5-4.8c1.8-0.2,3.2,0.6,4.6,1.6c1.7,1.2,2.8,3.1,4.8,4c2.4,1.1,4.6,0.4,6.5-1.3
						C-270,149.9-267.3,148.5-268.1,145.4 M-307.9,142.8c-1.9,0.1-2.9,1.6-4.4,2.6c-1.2,0.8-2.6,1.3-4,1.6c-0.2,0.1-4,0.4-3.9,0.1
						c0.2-2.4,0-4.8-1-7c-3-6.2-12.2-7.1-18.1-5.7c-3.7,0.9-7.2,2.8-10.4,4.9c-6.8,4.6-12.8,10.5-15.8,18.2c-2.2,5.8-3,12-3.1,18.2
						c0,2.1,0,4.1,0.2,6.2c0,0.2,0,2.2,0.3,2.4c5.2,2.6,9.6,0.9,9.6,0.9s5.5-12.5,18.2-22.5s31.6-12.8,31.6-12.8l4.6-4.4
						C-304.9,143.9-306.2,142.8-307.9,142.8 M-379.9,184.3c-2.8,0.3-5,1.8-4.8,4.8c0.5,7.5,10.1,7.8,10.1,7.8s25.4,2.1,43.8-14l0,0
						l-3.6-5.8c0,0-9.3,6.5-10.2,7c-6.2,3.5-12.5,4.8-19.6,3.5C-369.6,186.6-374.4,183.7-379.9,184.3 M-324.7,167.9l-5.6-9.4
						l-9.2,5.9l5.4,9.3L-324.7,167.9z M-320,175.8l-3.9-6.6l-9.4,5.7l4,6.9L-320,175.8z M-327.5,187.1c3.3,10.9,10.2,15.3,10.2,15.3
						l9.2-5.5c-0.5-8.2-6.7-15.3-9.6-18.2c-0.9-0.9-1.5-1.5-1.5-1.5l-9.3,5.9C-328.2,184.6-327.9,185.9-327.5,187.1 M-305.5,222.8
						l9.3-5.8c-0.6-8.8-10.7-18.3-10.7-18.3l-9.4,5.6C-315.8,216-305.5,222.8-305.5,222.8 M-288.4,242.8c11.1-5.4-5.6-23-6.7-23.8
						l-9.9,5.9C-305,224.9-299.5,248.2-288.4,242.8 M-276.5,159.4c-2.8,0.2-7.5-2.4-11-6.2c0,0-3.2-1.3-16.5,11.7
						c0,0-3.8,4.4-9.7,10.1c8.5,5.5,11.4,19.9,11.4,19.9c10.3,8.9,11.4,18.9,11.5,20.1c-0.1,0-0.1,0,0,0.1c0,0,0,0,0-0.1
						c1.2,0.7,22.8,24.6,5.3,32.9c-17.9,8.5-24.5-21-24.5-21c-12-10-11.8-20.5-11.8-20.5c-7.2-6.4-9.8-11.7-10.5-15.7
						c-5.4,3.8-11.1,7.1-16.5,8.9c-20.7,7-34.2,1.5-34.2,1.5s-8.5-3.5-8-13.5c0.5-10,14.5-9,16.8-8.2c0,0-3.6-23.8,14.8-40.4
						c-13.8-23.6-114.2-194.3-198.3-324.5c-25.7-43.8-38.8-67.8-64.4-114.4l6.2-4.3c0,0,32.2,43.2,76.8,106
						c63.6,89.5,145.4,223,196.8,327.3c23.6-7.4,46.8,7,46.8,7s17.8-9,28.2,1.2c0,0,4.5,2.2,4.5,10S-273.8,159.1-276.5,159.4"/>
				</g>
				
					<g id="g24" transform="matrix(1.0650241,0,0,1.0650241,450.3063,533.1995)" inkscape:export-xdpi="118.72222" inkscape:export-ydpi="118.72222">
					<path id="path26" inkscape:connector-curvature="0" class="st0" d="M-268.1,145.4c0.5-1.7,0.7-3.4,0.9-5.1
						c-16.9,9.9-12.5,35.1-12.5,35.1c7.7-18.8,18.8-21.7,18.8-21.7s-2.9,0-6.6-0.2c-1.1-0.1-2-0.6-2.3-1.7
						C-270.5,149.5-268.7,147.6-268.1,145.4"/>
				</g>
				
					<g id="g28" transform="matrix(1.0650241,0,0,1.0650241,128.11722,529.30641)" inkscape:export-xdpi="118.72222" inkscape:export-ydpi="118.72222">
					<path id="path30" inkscape:connector-curvature="0" class="st1" d="M-268.1,145.4c-0.6-0.2-1.2-0.1-1.7,0.2
						c-1.5,1-4.8,3.5-4.7,8.7c0,0.3,0.1,0.6,0.3,0.8c0.5,0.5,1.5,1.4,3.4,2.5c1.2,0.7,2.9,1.6,5.2,2.5c1.9,0.7,4,0.2,5.2-1.4
						c1.3-1.6,2.4-3.5,2.7-6.6c0-0.5-0.1-1-0.5-1.4c-1.3-1.5-3.2-2.9-5-3.6C-264.7,146.4-266.4,145.9-268.1,145.4 M-272.6,143.1
						c-1.9-0.5-3.8-0.9-5.8-1.2c-2.7-0.5-5.4-0.8-8.1-1c-11.7-1.1-22.7,5.1-30.4,15.2c-1.3,1.7-2.5,3.5-3.5,5.3
						c-5.7,0.1-10.3,4.8-10.3,10.6c0,3.2,1.4,6.1,3.7,8c-0.3,1.6-0.5,3.1-0.6,4.7c0,0.6,0,1.1,0,1.7c0.2,14.5,3.7,24,10.9,30.6
						c0.6,0.6,1.2,1.1,1.8,1.6c0,0,0,0,0,0c0.7,0.6,1.5,1.1,2.2,1.6c0.4-0.5,0.9-1,1.3-1.4c0.8-0.8,1.7-1.3,2.6-1.8
						c-0.3-0.3-0.6-0.6-1-1c-0.4-0.4-0.8-0.8-1.1-1.2c-1.7-2-3.2-4.2-4.5-6.5c-3.2-5.7-5-12.4-5-19.4c0-0.2,0-0.4,0-0.7
						c0-1.9,0.2-3.8,0.5-5.7c0.2,0,0.4,0,0.6,0c0.1,0,0.3,0,0.4-0.1c0.2,0,0.4,0,0.5-0.1c0.1,0,0.1,0,0.2,0c0,0,0.1,0,0.1,0
						c0,0,0.1,0,0.1,0c0.1,0,0.2,0,0.3-0.1c0.1,0,0.2-0.1,0.3-0.1c0.2-0.1,0.3-0.1,0.5-0.2c0.1,0,0.2-0.1,0.3-0.1
						c0.1,0,0.1-0.1,0.2-0.1c0.3-0.1,0.6-0.3,0.9-0.4c0.2-0.1,0.3-0.2,0.5-0.3c0.3-0.2,0.7-0.4,1-0.6c0.1-0.1,0.3-0.2,0.4-0.3
						c0.1-0.1,0.1-0.1,0.2-0.2c0.1-0.1,0.2-0.2,0.4-0.3c0.1-0.1,0.2-0.2,0.4-0.4c0.2-0.2,0.4-0.4,0.5-0.6c0,0,0.1-0.1,0.1-0.1v0
						c0.1-0.1,0.2-0.3,0.3-0.4c0.1-0.1,0.1-0.2,0.2-0.3c0.2-0.2,0.3-0.5,0.4-0.7c0.1-0.2,0.3-0.5,0.4-0.7c0-0.1,0.1-0.2,0.1-0.3
						c0,0,0-0.1,0-0.1c0.1-0.1,0.1-0.2,0.1-0.4c0-0.1,0.1-0.2,0.1-0.3c0-0.1,0.1-0.2,0.1-0.3c0.1-0.4,0.2-0.9,0.3-1.3v0c0,0,0,0,0,0
						c0-0.1,0-0.3,0.1-0.4c0-0.2,0-0.3,0.1-0.4c0-0.3,0-0.6,0-1c0-2.2-0.7-4.2-1.8-6c1.2-1.5,2.5-2.9,3.9-4.3
						c5.8-5.9,12.8-10.3,21-10.9c0.2,0,0.3,0,0.5,0c2.1-0.1,4.1,0.2,6.1,0.8c1.2,0.4,2.4,0.9,3.6,1.6c0.1-3.6,3.5-7.4,5.8-9.6
						C-271.3,143.5-271.9,143.3-272.6,143.1 M-320.5,241c0,4,3.2,7.2,7.2,7.2c3.4,0,6.3-2.4,7-5.6c0.1-0.5,0.2-1.1,0.2-1.7
						c0-0.4,0-0.9-0.1-1.3c0,0-0.1,0-0.1,0c-1.6-0.6-3-1.3-4.4-2.3c-0.4-0.3-0.8-0.6-1.1-0.9c-0.8-0.7-1.5-1.4-2.2-2.2
						c-1.2,0.1-2.3,0.4-3.2,0.9c0,0,0,0-0.1,0C-319.1,236.4-320.5,238.4-320.5,241 M-302.9,237.4c0.5-0.1,0.9-0.2,1.4-0.3
						c1.9-0.5,3.7-1.5,4.8-2.8c0.9-1.1,1.4-2.4,1.4-3.9c0-0.1,0-0.1,0-0.1c0-1-0.4-1.9-1-2.7c-0.5-0.7-1.1-1.3-1.8-1.8
						c-2.2-1.6-5.2-2.5-6.7-2.5c-0.8,0-1.7,0-2.4,0.1c-1.8,0.1-3.4,0.5-4.5,1.4c-0.7,0.5-1.2,1.2-1.5,2.2c-0.2,0.6-0.3,1.2-0.4,2
						c0,0.2,0,0.4,0,0.6c0,1.8,0.7,3.5,1.8,4.8c0,0.1,0.1,0.1,0.1,0.2c0.7,0.8,1.5,1.4,2.5,1.9c0.7,0.4,1.4,0.6,2.2,0.8
						c0.7,0.2,1.5,0.3,2.2,0.3C-304.2,237.6-303.5,237.5-302.9,237.4 M-313.9,187c-0.1,0.9-0.1,1.8-0.1,2.7c0,3.3,0.4,6.4,1.1,9.5
						c0.8,3.1,1.9,6.1,3.4,8.8c2.1-8.8,5.8-19,12.4-31.2c3.8-7.1,8.4-13.9,13.1-20.1c-2.4-0.2-4.8,0-7.2,0.8
						c-4.9,1.5-9.7,4.8-13.6,9.3c0.6,1.7,0.9,3.4,0.9,5.3C-304,178.7-308.1,184.5-313.9,187 M-294.3,221.3c0.1-0.1,0.2-0.2,0.3-0.3
						c0.4-0.5,0.8-0.9,1.1-1.4l0.4-0.5c5.4-6.9,11-15.2,15.9-24.3c5.9-11,9.7-20.9,12.2-29.8c0.1-0.4,0.2-2.1,0.4-2.6
						c-0.4-0.4-2.1-0.5-2.5-0.7c-2.3-0.9-4.4-1.3-5.1-1.2c-1.2,0.2-0.8,4.6-0.8,4.6s-3.4-5.8-5.5-4.6c-1.3,0.8-2.6,2.1-1.2,8.4
						c1.3,5.7,0.8,6.8,0.8,6.8s-1.6-5.9-6.2-4.9c-5.2,1.1-0.2,18.6,0,19.3c-0.2-0.5-4.1-8.8-6.7-7.6c-4.3,1.8-2.5,7.7-2.1,10.4
						c0.4,2.7,2.3,9.4,2.4,9.8c-0.2-0.5-5-9.5-7.7-6.4c-2.8,3.1,2.5,18,2.5,18c-3.6-6.1-6.1-5.5-6.1-5.5c-1.6-0.2-2,2.9-2,5.9
						c0,0.2,0,0.3,0,0.5c0,0.3,0,0.6,0,0.8c0.5,0,1,0,1.6,0.1c0.2,0,0.5,0.1,0.8,0.1c3.8,0.7,5.7,2.2,7.2,4.4
						C-294.6,220.9-294.4,221.1-294.3,221.3 M-243.3,168.1c6-1.7,4-11.5,4-11.5s-0.3-4-5.3-3.8c-2.2,0.1-3.3,0.9-3.9,1.7
						c0.8,1.3,1.6,2.6,2.4,4.1c0.3,0.6-0.4,1.2-0.9,0.8c-2.2-1.7-5.1-3.5-8.9-5.7l-0.2-0.1c-0.3,2.8-1.2,6.7-4.3,8.5
						C-260.5,161.9-249.3,169.9-243.3,168.1 M-43-192l-210,340.6c0.2,0.2,0.4,0.4,0.6,0.6c3.9-1.8,15.7-6.2,18.6,4.2
						c3.5,12.5-4.4,18.6-4.4,18.6c-8.1,4.9-17.4-0.5-21.4-3.4c-0.2,0.7-0.4,1.4-0.7,2.1c-0.2,0.6-0.4,1.2-0.6,1.7
						c-2.4,7.3-5.8,15.2-10.4,23.8c-5.2,9.6-11,18.2-16.7,25.3c-0.1,0.2-0.3,0.4-0.4,0.5c-0.3,0.4-0.6,0.7-0.9,1.1
						c0.2,0.5,0.4,1,0.6,1.5c0.4,1.2,0.1,1.9-0.3,2.7c0.1,0.6,0.1,1.2,0.1,1.8c0,0.2,0,0.3,0,0.5c0,0,0,0.1,0,0.1
						c-0.1,2.2-0.6,4.2-1.6,6.1c-2,3.7-5.6,6.5-10.5,7.1c-0.7,6.1-5.4,10.8-12.8,10.8c-6.8,0-12.4-5.5-12.4-12.4
						c0-4.8,2.7-8.9,6.7-11c-0.2-0.9-0.3-1.8-0.3-2.8c0-1.7,0.4-3.2,1-4.6c-10-8.8-15.1-21.4-15.1-38c0-1.2,0.1-2.5,0.2-3.7
						c-1.8-2.6-2.9-5.8-2.9-9.3c0-7.4,5-13.7,11.9-15.6c9.5-14.1,25.1-23.5,40.8-21c3.5,0.6,6.8,1.2,9.8,2c1.9,0.5,3.7,1,5.4,1.6
						c0.3,0.1,0.5,0.2,0.8,0.3l30.6-58.6l42.6-64.2c11.3-39.9,78.3-144.4,133.4-223.7l74-101.2L19-304L-43-192z"/>
				</g>
				
					<g id="g32" transform="matrix(1.0650241,0,0,1.0650241,170.03455,278.10492)" inkscape:export-xdpi="118.72222" inkscape:export-ydpi="118.72222">
					<path id="path34" inkscape:connector-curvature="0" class="st0" d="M-268.1,145.4c-14.8,1-25.1,2.7-32.2,4.5
						c8.3-8.7,16.1-21.2,22.1-39.1c0,0-56.2-19.8-79.6,55.6c0,0,13.1,4.5,29.4,0.3c-25.2,23.6-32.9,64.2-32.9,64.2
						c10.9-0.4,21-3.7,30.3-8.7c-17.4,23.4-13.3,55.5-13.3,55.5c7.9-3.4,15.1-7.6,21.6-12.2c-19.9,25.7-23.6,65.8-23.6,65.8
						c50.2-31.2,75.5-85.7,75.5-85.7c-13.1-2.5-24-0.7-33.1,3.9c28.3-28.9,39.8-63.9,39.8-63.9c-16.3,2.8-28,7-36.3,11.1
						C-279.6,172.7-268.1,145.4-268.1,145.4"/>
				</g>
				
					<g id="g36" transform="matrix(1.0650241,0,0,1.0650241,152.46165,245.14243)" inkscape:export-xdpi="118.72222" inkscape:export-ydpi="118.72222">
					<path id="path38" inkscape:connector-curvature="0" class="st2" d="M-268.1,145.4c-8.4,2-45.3-9.5-65.5,48.1
						c24.2,3.2,47.1-7.9,64.2-45.3c-0.6,0.2-1.2,0.5-1.8,0.8c-1.1,0.5-2.3,1.1-3.6,1.7c-1.3,0.6-2.8,1.4-4.2,2.2
						c-1.5,0.8-4.9,2.7-5,2.8c-0.4,1.9-1.9,6.5-7.1,10.7c0,0,3.8-6.1,3.2-8.4c-0.2,0.1-0.4,0.2-0.6,0.4c-1.7,1-3.3,2.1-5,3.1
						c-1.7,1.1-3.3,2.2-4.9,3.3c0,0-0.1,0-0.1,0.1c-0.2,1.4-0.8,5.4-2.5,7.9c0,0,1.4-5.1,0.7-6.7c-0.9,0.7-1.9,1.4-2.8,2
						c-1.5,1.1-2.9,2.2-4.2,3.3c-1.1,0.8-2.1,1.7-3,2.4c0.1,0.9,0.2,3.3-0.5,4.7l-0.4-4c-1.1,0.9-2.1,1.7-2.9,2.5
						c-0.9,0.8-1.7,1.5-2.3,2.1c-0.9,0.8-1.5,1.3-1.8,1.6c0.3-0.3,0.9-0.9,1.7-1.7c0.6-0.6,1.4-1.3,2.2-2.2c0.9-0.8,1.9-1.7,3-2.7
						c0,0-3.3,0.1-4.2,0.3c0.4-0.1,3.7-1.2,5-1.1c0.8-0.8,1.8-1.6,2.8-2.4c1.3-1.1,2.7-2.3,4.1-3.4c0.9-0.7,1.8-1.4,2.7-2.1
						c-0.6-0.5-2.2-1.3-5.9,0c0,0,3.2-2.3,7.6-1.3c0,0,0.1-0.1,0.1-0.1c1.6-1.1,3.1-2.4,4.8-3.5c1.6-1.1,3.2-2.3,4.9-3.3
						c0.2-0.1,0.3-0.2,0.5-0.3c-1.8-1.3-5.7-1.6-9.7-0.1c0.8-0.4,8.8-4.2,13.7-2.5c0.1-0.1,3.5-2.1,4.9-2.9c1.5-0.8,2.9-1.6,4.2-2.3
						c1.3-0.7,2.5-1.3,3.6-1.9c1.1-0.6,2-1,2.8-1.4c0.4-0.2,0.7-0.3,1-0.4C-268.1,145.5-268.1,145.4-268.1,145.4"/>
				</g>
				
					<g id="g40" transform="matrix(1.0650241,0,0,1.0650241,152.46165,245.14243)" inkscape:export-xdpi="118.72222" inkscape:export-ydpi="118.72222">
					<path id="path42" inkscape:connector-curvature="0" class="st3" d="M-268.1,145.4c-8.4,2-45.3-9.5-65.5,48.1
						c24.2,3.2,47.1-7.9,64.2-45.3c-0.6,0.2-1.2,0.5-1.8,0.8c-1.1,0.5-2.3,1.1-3.6,1.7c-1.3,0.6-2.8,1.4-4.2,2.2
						c-1.5,0.8-4.9,2.7-5,2.8c-0.4,1.9-1.9,6.5-7.1,10.7c0,0,3.8-6.1,3.2-8.4c-0.2,0.1-0.4,0.2-0.6,0.4c-1.7,1-3.3,2.1-5,3.1
						c-1.7,1.1-3.3,2.2-4.9,3.3c0,0-0.1,0-0.1,0.1c-0.2,1.4-0.8,5.4-2.5,7.9c0,0,1.4-5.1,0.7-6.7c-0.9,0.7-1.9,1.4-2.8,2
						c-1.5,1.1-2.9,2.2-4.2,3.3c-1.1,0.8-2.1,1.7-3,2.4c0.1,0.9,0.2,3.3-0.5,4.7l-0.4-4c-1.1,0.9-2.1,1.7-2.9,2.5
						c-0.9,0.8-1.7,1.5-2.3,2.1c-0.9,0.8-1.5,1.3-1.8,1.6c0.3-0.3,0.9-0.9,1.7-1.7c0.6-0.6,1.4-1.3,2.2-2.2c0.9-0.8,1.9-1.7,3-2.7
						c0,0-3.3,0.1-4.2,0.3c0.4-0.1,3.7-1.2,5-1.1c0.8-0.8,1.8-1.6,2.8-2.4c1.3-1.1,2.7-2.3,4.1-3.4c0.9-0.7,1.8-1.4,2.7-2.1
						c-0.6-0.5-2.2-1.3-5.9,0c0,0,3.2-2.3,7.6-1.3c0,0,0.1-0.1,0.1-0.1c1.6-1.1,3.1-2.4,4.8-3.5c1.6-1.1,3.2-2.3,4.9-3.3
						c0.2-0.1,0.3-0.2,0.5-0.3c-1.8-1.3-5.7-1.6-9.7-0.1c0.8-0.4,8.8-4.2,13.7-2.5c0.1-0.1,3.5-2.1,4.9-2.9c1.5-0.8,2.9-1.6,4.2-2.3
						c1.3-0.7,2.5-1.3,3.6-1.9c1.1-0.6,2-1,2.8-1.4c0.4-0.2,0.7-0.3,1-0.4C-268.1,145.5-268.1,145.4-268.1,145.4z"/>
				</g>
				
					<g id="g44" transform="matrix(1.0650241,0,0,1.0650241,139.87306,296.14643)" inkscape:export-xdpi="118.72222" inkscape:export-ydpi="118.72222">
					<path id="path46" inkscape:connector-curvature="0" class="st2" d="M-268.1,145.4c5.5-4.2,11.1-7.8,16.6-10.1
						c-28.1,0.3-58.8,18.8-73.7,71.9c40.2-5.9,64.3-50,74.8-70.5c-3.4,1.2-9,3.8-16.9,9.8c-0.1,1.9-0.8,6.6-5.1,11.2
						c0.1-0.3,2.1-6.3,1.6-8.5c-2.8,2.2-5.8,4.8-9.1,7.9c-0.1,2.1-0.8,7.8-5.5,14.8c0.1-0.4,2.5-8.7,1.7-11.2
						c-3.9,3.8-8.2,8.2-12.8,13.3c0.3,1.3,0.6,5.3-4.1,12.1c0.1-0.4,1.9-8,1.4-9.2c-3.1,3.6-6.4,7.4-9.9,11.6
						c0.8-1.1,4.4-5.9,9.8-12.3c-0.3-0.4-2.3-0.1-9.9,3.1c0,0,8-7.4,12.3-5.9c3.6-4.2,7.9-8.9,12.5-13.6c-0.9-0.5-3.7-1.1-11.6,2.1
						c0,0,7.4-5.8,15.3-5.7c2.8-2.7,5.7-5.3,8.7-7.8c-1.5-0.2-5-0.7-8.2-0.3C-280,148-271.7,144.7-268.1,145.4"/>
				</g>
				
					<g id="g48" transform="matrix(1.0650241,0,0,1.0650241,159.13935,330.46151)" inkscape:export-xdpi="118.72222" inkscape:export-ydpi="118.72222">
					<path id="path50" inkscape:connector-curvature="0" class="st2" d="M-268.1,145.4c-57.9,15.2-60.3,60.7-60.5,73.8
						c37.2-18.8,55.9-54.7,64.2-73.1c-4,1.7-11.4,6.1-22.2,17c0.3,1.8,0.4,5.9-2.5,11.2c0,0-1-1.9-0.6-4.3c0,0,0.3-2.4,0-3.6
						c-2.7,2.9-5.5,6.1-8.5,9.7c0.4,1.7,1.3,6.3-0.8,10.9c0,0-0.3-6.3-2.1-7.4c-2.8,3.5-5.7,7.3-8.8,11.5c0.2,1.1,0.9,4.6-0.1,7.1
						c0,0-0.7-4.4-1.3-5.3c-1.3,1.7-2.5,3.5-3.8,5.4c0.1-0.3,1.3-2.3,3.3-5.5c-0.9,0.1-4.2,0.5-6,1.5c0.3-0.2,5.1-4,7.4-3.7
						c2.1-3.2,4.9-7.2,8.2-11.6c-0.8-0.5-3.1-1.4-8.4,0.1c0,0,2.3-4.2,11.3-3.9h0c2.6-3.2,5.4-6.6,8.4-9.9c-0.9-0.4-3.3-0.8-8.6,0.7
						c0.4-0.3,7.4-5.3,11.9-4.2C-281.6,155.9-275.1,150.1-268.1,145.4"/>
				</g>
				
					<g id="g52" transform="matrix(1.0650241,0,0,1.0650241,138.85064,401.30691)" inkscape:export-xdpi="118.72222" inkscape:export-ydpi="118.72222">
					<path id="path54" inkscape:connector-curvature="0" class="st2" d="M-268.1,145.4c3.6-3.4,9.5-8.4,15-10.9
						c-38.6-2.1-49.7,45-55.8,68.2c30-22.4,49.3-52.4,57.5-67c-3.1,1.4-9.3,4.7-15.5,11c-0.2,2-0.9,6.7-4.3,10.4
						c0.1-0.3,1.7-5.7,1.4-7.6c-2.7,2.6-5.6,5.8-8.9,9.6c0.4,1.4,0.9,4.6-1.5,8.8c0,0-0.7-4-0.1-7c-2.8,3.4-5.9,7.2-9.1,11.4
						c0.5,3.7-0.7,7.4-0.7,7.4c0.4-2.9-0.1-4.4-1-5.1c-1.6,2.2-3.2,4.4-4.9,6.8c0.3-0.6,1.9-3.3,4.4-7.1c-1.7-0.9-4.2,0.4-4.5,0.6
						c2.4-2.4,4.9-2.8,6-2.9c2.2-3.3,5-7.2,8.2-11.3c0,0-1.5-1.4-7,1.2c0.2-0.2,4.3-4.7,9-3.8c2.7-3.4,5.7-6.8,8.9-10
						c-1-1-2.4-0.9-7.9,0.2C-278.9,148.4-272.5,144.3-268.1,145.4"/>
				</g>
				
					<g id="g56" transform="matrix(1.0650241,0,0,1.0650241,426.72102,278.10492)" inkscape:export-xdpi="118.72222" inkscape:export-ydpi="118.72222">
					<path id="path58" inkscape:connector-curvature="0" class="st0" d="M-268.1,145.4c14.8,1,25.1,2.7,32.3,4.5
						c-8.3-8.7-16.1-21.2-22.1-39.1c0,0,56.2-19.8,79.6,55.6c0,0-13.1,4.5-29.4,0.3c25.2,23.6,32.9,64.2,32.9,64.2
						c-10.9-0.4-21.1-3.7-30.3-8.7c17.4,23.4,13.3,55.5,13.3,55.5c-7.9-3.4-15.1-7.6-21.6-12.2c19.9,25.7,23.6,65.8,23.6,65.8
						c-50.2-31.2-75.5-85.7-75.5-85.7c13.2-2.5,24.1-0.7,33.1,3.9c-28.4-28.9-39.8-63.9-39.8-63.9c16.3,2.8,28,7,36.3,11.1
						C-256.5,172.7-268.1,145.4-268.1,145.4"/>
				</g>
				
					<g id="g60" transform="matrix(1.0650241,0,0,1.0650241,444.29392,245.14243)" inkscape:export-xdpi="118.72222" inkscape:export-ydpi="118.72222">
					<path id="path62" inkscape:connector-curvature="0" class="st4" d="M-268.1,145.4c8.4,2,45.3-9.5,65.5,48.1
						c-24.2,3.2-47.1-7.9-64.2-45.3c0.6,0.2,1.2,0.5,1.9,0.8c1.1,0.5,2.3,1.1,3.6,1.7c1.3,0.6,2.8,1.4,4.2,2.2
						c1.5,0.8,4.9,2.7,5,2.8c0.4,1.9,1.9,6.5,7.1,10.7c0,0-3.8-6.1-3.2-8.4c0.2,0.1,0.4,0.2,0.6,0.4c1.7,1,3.3,2.1,5,3.1
						c1.7,1.1,3.3,2.2,4.9,3.3c0,0,0.1,0,0.1,0.1c0.2,1.4,0.8,5.4,2.5,7.9c0,0-1.4-5.1-0.7-6.7c0.9,0.7,1.8,1.4,2.8,2
						c1.5,1.1,2.9,2.2,4.2,3.3c1.1,0.8,2.1,1.7,3,2.4c-0.1,0.9-0.2,3.3,0.5,4.7l0.4-4c1.1,0.9,2.1,1.7,2.9,2.5
						c0.9,0.8,1.7,1.5,2.3,2.1c0.9,0.8,1.5,1.3,1.8,1.6c-0.3-0.3-0.9-0.9-1.7-1.7c-0.6-0.6-1.4-1.3-2.2-2.2c-0.9-0.8-1.9-1.7-3-2.7
						c0,0,3.3,0.1,4.1,0.3c-0.4-0.1-3.7-1.2-5-1.1c-0.9-0.8-1.8-1.6-2.8-2.4c-1.3-1.1-2.7-2.3-4.1-3.4c-0.9-0.7-1.8-1.4-2.7-2.1
						c0.6-0.5,2.2-1.3,5.9,0c0,0-3.2-2.3-7.6-1.3c0,0-0.1-0.1-0.1-0.1c-1.6-1.1-3.1-2.4-4.8-3.5c-1.6-1.1-3.2-2.3-4.9-3.3
						c-0.2-0.1-0.3-0.2-0.5-0.3c1.8-1.3,5.7-1.6,9.7-0.1c-0.8-0.4-8.8-4.2-13.7-2.5c-0.1-0.1-3.4-2.1-4.9-2.9
						c-1.5-0.8-2.9-1.6-4.2-2.3c-1.3-0.7-2.5-1.3-3.6-1.9c-1.1-0.6-2.1-1-2.8-1.4c-0.4-0.2-0.7-0.3-1-0.4
						C-268,145.5-268,145.4-268.1,145.4"/>
				</g>
				
					<g id="g64" transform="matrix(1.0650241,0,0,1.0650241,444.29392,245.14243)" inkscape:export-xdpi="118.72222" inkscape:export-ydpi="118.72222">
					<path id="path66" inkscape:connector-curvature="0" class="st5" d="M-268.1,145.4c8.4,2,45.3-9.5,65.5,48.1
						c-24.2,3.2-47.1-7.9-64.2-45.3c0.6,0.2,1.2,0.5,1.9,0.8c1.1,0.5,2.3,1.1,3.6,1.7c1.3,0.6,2.8,1.4,4.2,2.2
						c1.5,0.8,4.9,2.7,5,2.8c0.4,1.9,1.9,6.5,7.1,10.7c0,0-3.8-6.1-3.2-8.4c0.2,0.1,0.4,0.2,0.6,0.4c1.7,1,3.3,2.1,5,3.1
						c1.7,1.1,3.3,2.2,4.9,3.3c0,0,0.1,0,0.1,0.1c0.2,1.4,0.8,5.4,2.5,7.9c0,0-1.4-5.1-0.7-6.7c0.9,0.7,1.8,1.4,2.8,2
						c1.5,1.1,2.9,2.2,4.2,3.3c1.1,0.8,2.1,1.7,3,2.4c-0.1,0.9-0.2,3.3,0.5,4.7l0.4-4c1.1,0.9,2.1,1.7,2.9,2.5
						c0.9,0.8,1.7,1.5,2.3,2.1c0.9,0.8,1.5,1.3,1.8,1.6c-0.3-0.3-0.9-0.9-1.7-1.7c-0.6-0.6-1.4-1.3-2.2-2.2c-0.9-0.8-1.9-1.7-3-2.7
						c0,0,3.3,0.1,4.1,0.3c-0.4-0.1-3.7-1.2-5-1.1c-0.9-0.8-1.8-1.6-2.8-2.4c-1.3-1.1-2.7-2.3-4.1-3.4c-0.9-0.7-1.8-1.4-2.7-2.1
						c0.6-0.5,2.2-1.3,5.9,0c0,0-3.2-2.3-7.6-1.3c0,0-0.1-0.1-0.1-0.1c-1.6-1.1-3.1-2.4-4.8-3.5c-1.6-1.1-3.2-2.3-4.9-3.3
						c-0.2-0.1-0.3-0.2-0.5-0.3c1.8-1.3,5.7-1.6,9.7-0.1c-0.8-0.4-8.8-4.2-13.7-2.5c-0.1-0.1-3.4-2.1-4.9-2.9
						c-1.5-0.8-2.9-1.6-4.2-2.3c-1.3-0.7-2.5-1.3-3.6-1.9c-1.1-0.6-2.1-1-2.8-1.4c-0.4-0.2-0.7-0.3-1-0.4
						C-268,145.5-268,145.4-268.1,145.4z"/>
				</g>
				
					<g id="g68" transform="matrix(1.0650241,0,0,1.0650241,456.8825,296.14643)" inkscape:export-xdpi="118.72222" inkscape:export-ydpi="118.72222">
					<path id="path70" inkscape:connector-curvature="0" class="st2" d="M-268.1,145.4c-5.5-4.2-11.1-7.8-16.6-10.1
						c28.1,0.3,58.8,18.8,73.7,71.9c-40.2-5.9-64.3-50-74.8-70.5c3.4,1.2,9,3.8,16.9,9.8c0.1,1.9,0.8,6.6,5.1,11.2
						c-0.1-0.3-2.1-6.3-1.6-8.5c2.8,2.2,5.8,4.8,9.1,7.9c0.1,2.1,0.8,7.8,5.5,14.8c-0.1-0.4-2.5-8.7-1.7-11.2
						c3.9,3.8,8.2,8.2,12.8,13.3c-0.3,1.3-0.6,5.3,4.1,12.1c-0.1-0.4-1.9-8-1.4-9.2c3.1,3.6,6.4,7.4,9.9,11.6
						c-0.8-1.1-4.4-5.9-9.8-12.3c0.3-0.4,2.3-0.1,9.9,3.1c0,0-7.9-7.4-12.3-5.9c-3.6-4.2-7.9-8.9-12.5-13.6
						c0.9-0.5,3.7-1.1,11.6,2.1c0,0-7.4-5.8-15.3-5.7c-2.8-2.7-5.7-5.3-8.7-7.8c1.5-0.2,5-0.7,8.2-0.3
						C-256.1,148-264.4,144.7-268.1,145.4"/>
				</g>
				
					<g id="g72" transform="matrix(1.0650241,0,0,1.0650241,437.61622,330.46151)" inkscape:export-xdpi="118.72222" inkscape:export-ydpi="118.72222">
					<path id="path74" inkscape:connector-curvature="0" class="st2" d="M-268.1,145.4c57.9,15.2,60.3,60.7,60.5,73.8
						c-37.2-18.8-55.9-54.7-64.2-73.1c4,1.7,11.4,6.1,22.2,17c-0.3,1.8-0.4,5.9,2.5,11.2c0,0,1-1.9,0.6-4.3c0,0-0.3-2.4,0-3.6
						c2.7,2.9,5.5,6.1,8.5,9.7c-0.4,1.7-1.3,6.3,0.8,10.9c0,0,0.3-6.3,2.1-7.4c2.8,3.5,5.7,7.3,8.8,11.5c-0.2,1.1-0.9,4.6,0.1,7.1
						c0,0,0.7-4.4,1.3-5.3c1.3,1.7,2.5,3.5,3.8,5.4c-0.1-0.3-1.3-2.3-3.3-5.5c0.9,0.1,4.2,0.5,6,1.5c-0.3-0.2-5.1-4-7.4-3.7
						c-2.1-3.2-4.9-7.2-8.2-11.6c0.8-0.5,3.1-1.4,8.4,0.1c0,0-2.3-4.2-11.3-3.9h0c-2.6-3.2-5.4-6.6-8.4-9.9c0.9-0.4,3.3-0.8,8.6,0.7
						c-0.4-0.3-7.4-5.3-11.9-4.2C-254.5,155.9-261,150.1-268.1,145.4"/>
				</g>
				
					<g id="g76" transform="matrix(1.0650241,0,0,1.0650241,457.90492,401.30691)" inkscape:export-xdpi="118.72222" inkscape:export-ydpi="118.72222">
					<path id="path78" inkscape:connector-curvature="0" class="st2" d="M-268.1,145.4c-3.6-3.4-9.5-8.4-14.9-10.9
						c38.6-2.1,49.7,45,55.8,68.2c-30-22.4-49.3-52.4-57.5-67c3.1,1.4,9.3,4.7,15.5,11c0.2,2,0.9,6.7,4.3,10.4
						c-0.1-0.3-1.7-5.7-1.4-7.6c2.6,2.6,5.6,5.8,8.9,9.6c-0.4,1.4-0.9,4.6,1.5,8.8c0,0,0.7-4,0.1-7c2.8,3.4,5.9,7.1,9.1,11.4
						c-0.5,3.7,0.7,7.4,0.7,7.4c-0.4-2.8,0.1-4.4,1-5.1c1.6,2.2,3.2,4.4,4.9,6.8c-0.3-0.6-1.9-3.3-4.4-7.1c1.7-0.9,4.2,0.4,4.5,0.6
						c-2.4-2.4-4.9-2.8-6-2.9c-2.2-3.3-5-7.2-8.2-11.3c0,0,1.5-1.4,6.9,1.2c-0.2-0.2-4.3-4.7-9-3.8c-2.7-3.4-5.7-6.8-8.9-10
						c1-1,2.4-0.9,7.9,0.2C-257.3,148.4-263.6,144.3-268.1,145.4"/>
				</g>
				
					<g id="g80" transform="matrix(1.0650241,0,0,1.0650241,235.35248,419.03957)" inkscape:export-xdpi="118.72222" inkscape:export-ydpi="118.72222">
					<path id="path82" inkscape:connector-curvature="0" class="st0" d="M-268.1,145.4c-7.5,4.6-12.6,11.4-16,19.5
						c-31.7,34.2-14.3,95.2-14.3,95.2c5.8-4.3,10.7-8.7,14.9-13c3.5,15,7.1,25.4,7.1,25.4C-202.1,198-268.1,145.4-268.1,145.4"/>
				</g>
				
					<g id="g84" transform="matrix(1.0650241,0,0,1.0650241,232.91357,451.99141)" inkscape:export-xdpi="118.72222" inkscape:export-ydpi="118.72222">
					<path id="path86" inkscape:connector-curvature="0" class="st2" d="M-268.1,145.4c-0.9,0.2-1.8,0.2-2.8,0.2h-0.1
						c-0.5,3.8-1.3,8.2-2.4,12.8v0c1.1,1.4,3.4,4.7,2.2,8.8c0,0-1.8-3.7-3.4-4.1c-1.1,4.3-2.4,8.7-3.6,13c1.6,1.5,4.9,5.2,4,9.6
						c0,0-2.7-6-5.3-5.5c-1,3.1-1.9,6-2.8,8.6c0.5,1.6,2.2,6.5,2.3,8.8c0,0-2.4-4.1-3.6-5.1c-2,5.8-3.5,9.8-3.8,10.7
						c0.3-0.9,1.5-4.7,3.1-10.2c0.1-0.2,0.1-0.4,0.2-0.6c0,0-0.7-0.5-5.6,2.5c0.3-0.3,4.8-4.8,6.7-6.4c0.5-2,1.1-4.1,1.7-6.3
						c0.2-0.8,0.4-1.6,0.6-2.4c-0.6-0.7-2.6-1.4-8.1,2.3c0,0,3.3-5.3,9.3-6.8c0.5-1.8,0.9-3.6,1.4-5.4c0.6-2.4,1.1-4.8,1.7-7.1
						c-0.9-0.5-3.1-0.9-7,2c0,0,3.2-5.8,8.1-7c0-0.1,0-0.2,0-0.2c0.4-2,0.8-3.9,1.1-5.7c0.3-1.8,0.6-3.6,0.8-5.2
						c0-0.5,0.1-0.9,0.2-1.3c-5.1-0.7-9.4-3.8-11.9-8c-16.5,42-7.9,81.6-7.9,81.6C-266.5,198.8-264.8,167.8-268.1,145.4"/>
				</g>
				
					<g id="g88" transform="matrix(1.0650241,0,0,1.0650241,257.78188,455.04803)" inkscape:export-xdpi="118.72222" inkscape:export-ydpi="118.72222">
					<path id="path90" inkscape:connector-curvature="0" class="st2" d="M-268.1,145.4c-2.2,1-4.6,1.6-7.1,1.6
						c-1.1,0-2.2-0.1-3.2-0.3c0,1.4,0,2.9-0.1,4.6c0,1.6-0.1,3.4-0.2,5.3c0,0.5-0.1,1.1-0.1,1.6c1.4,1,4.8,3.8,6.3,7.9
						c-0.2-0.2-4.2-4.1-6.7-3.3c-0.2,1.9-0.3,3.9-0.6,5.9c-0.2,2.1-0.5,4.3-0.8,6.5c-0.3,2.2-0.7,4.3-1,6.4
						c-0.3,2.1-0.8,4.2-1.2,6.2c-0.4,2-0.9,3.9-1.3,5.8c-0.4,1.8-0.9,3.5-1.3,5.1c-0.2,0.8-0.4,1.6-0.6,2.3c0.7,0.8,3.1,3.8,2.4,6.9
						c0,0-2.4-4.4-3.1-4.1c-0.3,0.9-0.6,1.7-0.8,2.4c-0.4,1.2-0.7,2.1-0.8,2.6c0.1-0.4,0.4-1.3,0.7-2.6c0.2-0.7,0.4-1.5,0.7-2.4
						c-0.2-0.1-1.4-0.5-5.8,2.2c0.1-0.2,2.1-4.1,6.6-5.3c0.2-0.7,0.3-1.4,0.5-2.2c0.4-1.6,0.8-3.3,1.1-5.1c0.4-1.8,0.8-3.8,1.1-5.8
						c0.3-2,0.7-4.1,1-6.2c0.3-2.1,0.6-4.3,0.8-6.4c0.2-2.1,0.5-4.3,0.6-6.4c0.2-1.9,0.3-3.8,0.4-5.7c-1-0.4-3.2-0.4-6.1,3.8
						c0.1-0.3,1.4-5.5,6.4-8.5c0-0.6,0-1.2,0.1-1.7c0-1.9,0.1-3.6,0.1-5.2c0-1.9,0-3.6-0.1-5.1v0c-3.7-1.2-7-3.7-9.7-7.1
						c0,0,0,0.1,0,0.1c3,17.7,3.4,41.8-9.9,61.7c1.2,16.5,5,26.8,5,26.8C-265.7,195.8-263.8,165.9-268.1,145.4"/>
				</g>
				
					<g id="g92" transform="matrix(1.0650241,0,0,1.0650241,361.55091,419.3218)" inkscape:export-xdpi="118.72222" inkscape:export-ydpi="118.72222">
					<path id="path94" inkscape:connector-curvature="0" class="st0" d="M-268.1,145.4c7.6,4.6,12.8,11.4,16.2,19.5
						c32.1,34.2,14.5,95.2,14.5,95.2c-5.9-4.3-10.9-8.7-15.1-13c-3.5,15-7.2,25.4-7.2,25.4C-334.9,198-268.1,145.4-268.1,145.4"/>
				</g>
				
					<g id="g96" transform="matrix(1.0650241,0,0,1.0650241,364.01975,452.27364)" inkscape:export-xdpi="118.72222" inkscape:export-ydpi="118.72222">
					<path id="path98" inkscape:connector-curvature="0" class="st2" d="M-268.1,145.4c0.9,0.2,1.8,0.2,2.8,0.2h0.1
						c0.5,3.8,1.3,8.2,2.4,12.8v0c-1.2,1.4-3.4,4.7-2.3,8.8c0,0,1.8-3.7,3.4-4.1c1.1,4.3,2.4,8.7,3.7,13c-1.6,1.5-4.9,5.2-4.1,9.6
						c0,0,2.8-6,5.3-5.5c1,3.1,1.9,6,2.8,8.6c-0.6,1.6-2.2,6.5-2.3,8.8c0,0,2.5-4.1,3.6-5.1c2,5.8,3.5,9.8,3.8,10.7
						c-0.3-0.9-1.5-4.7-3.1-10.2c-0.1-0.2-0.1-0.4-0.2-0.6c0,0,0.7-0.5,5.7,2.5c-0.3-0.3-4.8-4.8-6.8-6.4c-0.6-2-1.2-4.1-1.8-6.3
						c-0.2-0.8-0.4-1.6-0.7-2.4c0.7-0.7,2.6-1.4,8.2,2.3c0,0-3.3-5.3-9.4-6.8c-0.5-1.8-0.9-3.6-1.4-5.4c-0.6-2.4-1.2-4.8-1.7-7.1
						c0.9-0.5,3.1-0.9,7.1,2c0,0-3.3-5.8-8.2-7c0-0.1,0-0.2,0-0.2c-0.4-2-0.8-3.9-1.1-5.7c-0.3-1.8-0.6-3.6-0.8-5.2
						c-0.1-0.5-0.1-0.9-0.2-1.3c5.2-0.7,9.5-3.8,12-8c16.7,42,8,81.6,8,81.6C-269.6,198.8-271.3,167.8-268.1,145.4"/>
				</g>
				
					<g id="g100" transform="matrix(1.0650241,0,0,1.0650241,338.84694,455.33026)" inkscape:export-xdpi="118.72222" inkscape:export-ydpi="118.72222">
					<path id="path102" inkscape:connector-curvature="0" class="st2" d="M-268.1,145.4c2.2,1,4.6,1.6,7.1,1.6
						c1.1,0,2.2-0.1,3.2-0.3c0,1.4,0,2.9,0.1,4.6c0,1.6,0.1,3.4,0.2,5.3c0,0.5,0.1,1.1,0.1,1.6c-1.5,1-4.9,3.8-6.4,7.9
						c0.2-0.2,4.3-4.1,6.7-3.3c0.2,1.9,0.3,3.9,0.6,5.9c0.2,2.1,0.5,4.3,0.8,6.5c0.3,2.2,0.7,4.3,1,6.4c0.3,2.1,0.8,4.2,1.2,6.2
						c0.4,2,0.9,3.9,1.3,5.8c0.4,1.8,0.9,3.5,1.3,5.1c0.2,0.8,0.4,1.6,0.6,2.3c-0.7,0.8-3.2,3.8-2.4,6.9c0,0,2.4-4.4,3.1-4.1
						c0.3,0.9,0.6,1.7,0.8,2.4c0.4,1.2,0.7,2.1,0.8,2.6c-0.1-0.4-0.4-1.3-0.7-2.6c-0.2-0.7-0.4-1.5-0.7-2.4c0.2-0.1,1.4-0.5,5.9,2.2
						c-0.1-0.2-2.1-4.1-6.7-5.3c-0.2-0.7-0.3-1.4-0.5-2.2c-0.4-1.6-0.8-3.3-1.2-5.1c-0.4-1.8-0.8-3.8-1.1-5.8c-0.3-2-0.7-4.1-1-6.2
						c-0.3-2.1-0.6-4.3-0.8-6.4c-0.3-2.1-0.5-4.3-0.6-6.4c-0.2-1.9-0.3-3.8-0.4-5.7c1-0.4,3.2-0.4,6.2,3.8c-0.1-0.3-1.4-5.5-6.4-8.5
						c0-0.6,0-1.2-0.1-1.7c0-1.9-0.1-3.6-0.1-5.2c0-1.9,0-3.6,0.1-5.1v0c3.7-1.2,7.1-3.7,9.8-7.1c0,0,0,0.1,0,0.1
						c-3,17.7-3.4,41.8,10,61.7c-1.2,16.5-5.1,26.8-5.1,26.8C-270.5,195.8-272.4,165.9-268.1,145.4"/>
				</g>
				
					<g id="g104" transform="matrix(1.0650241,0,0,1.0650241,419.78271,685.97721)" inkscape:export-xdpi="118.72222" inkscape:export-ydpi="118.72222">
					<path id="path106" inkscape:connector-curvature="0" class="st1" d="M-268.1,145.4C-268.1,145.4-268.1,145.4-268.1,145.4
						c-1.6,2.9-4.8,5.1-8,5.1c-1.6,0-3.1-0.4-4.3-1.2c-2.1,1.4-5.1,2.3-7.3,2.3c-1.6,0-3.1-0.5-4.3-1.4c-1.1-0.8-2.6-1.1-3.9-0.6
						c-0.8,0.3-1.6,0.5-2.5,0.5c-2.7,0-5-1.5-6.2-3.8c-0.6,0-1.3,0-1.9,0c-3.2,0-5.9-1.9-7.3-4.7c-4.1,0.2-6.1-2.7-11-7.6
						c-4.3-4.3-7.1-3.8-7.6-8.6c-2-1.2-3.7-3.3-5.1-6.1c-2.3,3.8-3.9,5.7-3.9,5.7c-0.8,1-1.5,1.9-2.3,2.9c2.6,2.5,5,6.1,6.9,10.4
						c2.2,5.1,2.6,10.4,2.1,14.4c3.3,2.1,5.9,5.4,7.3,9.2c1.2-0.5,2.5-0.8,3.8-0.8c4.1,0,7.6,2.5,9.6,6.3c0.4-0.3,1-0.5,1.7-0.5
						c1.3,0,2.3,0.7,2.4,1.7c1.5-0.1,3.1-0.2,4.8-0.2c1.8,0,3.5,0.1,5,0.2c2.8-3.8,8.9-6.4,16-6.4c0.7,0,1.4,0,2.1,0.1
						c0.9-3.2,3.8-5.5,7.2-5.5c0.2,0,0.4,0,0.6,0c0.6-1.4,1.4-2.7,2.1-3.9c1.2-1.9,2.4-3.6,3.9-4.8V145.4z M-350.2,188.7
						c-3.9-0.5-7-3.9-7-7.9c0-1.6,0.4-3,1.2-4.3c-2.8-1.6-4.7-4.4-4.7-7.6c0-1,0.2-2,0.5-2.9v0c-1-3-1.7-7.8-1.7-13.2
						c0-2.4,0.1-4.6,0.4-6.6c-6.4,4.9-12.3,7.4-18.1,8.1c1.1,2.1,2.2,4.5,3.1,7c1.1,3.1,1.9,6.2,2.4,9c3,1.3,5.1,4.4,5.1,8.1
						c0,1.1-0.2,2.1-0.5,3.1c4.6,0.1,8.2,3,8.2,6.6c0,0.7-0.2,1.5-0.4,2.1c0.3-0.1,0.6-0.1,1-0.1c3.3,0,6,2.1,6.4,4.9
						c3.9,0.9,6.9,3.4,8,6.6c0.1,0,0.3,0,0.4,0c2.4,0,4.5,1.2,5.4,2.8h7.4v-1.8c-5.1-0.2-9.5-3.5-11.8-8.1
						C-347.9,194.1-350.2,191.7-350.2,188.7 M-410.1,139.9c-4.2-4.1-8-8.7-11.3-13.5c0.2,0.8,0.3,1.8,0.3,2.8c0,2.9-0.8,6.4-1.9,7.1
						c1.2,0.5,1.9,2.1,1.9,3.8c0,2.1-1.4,3.9-3.1,3.9h0c1,0.9,2.1,2.6,3.1,4.3c1.9,3.3,2,7,1.1,7.5c-0.2,0.1-0.6,0.1-1-0.1
						c1,1.5,1.9,3.6,2.6,6c1,3.6,1.4,8.1,0.7,10.4c0.8,0,1.4,0.6,1.6,1.4c0.3-0.4,0.8-0.7,1.4-0.7c0.1,0,0.2,0,0.3,0
						c0-0.3,0-0.7,0-1.1c0-0.3,0-0.7,0-0.9c-0.5-0.9-0.8-2.1-0.8-3.3c0-1.6,0.5-3.1,1.4-4.1c0.6-2.4,2.3-3.6,4.9-6.9
						c0.3-0.4-0.2-1.7,0.1-2.2c2.3-3.2,4.6-6,6.6-7.7C-404.9,144.7-407.4,142.4-410.1,139.9 M-240.8,97.2c1.4,1.4,2.3,3.8,2.3,6.5
						c0,2.8-1,5.3-2.4,6.6c0.3,1,0.5,2.1,0.5,3.3c0,4.5-3,7.8-6,9.4l0,4.5l4.9-0.3l-9.2,6.4c-1.1,4.1-4.1,7-7.6,7
						c-0.3,0-0.6,0-0.8-0.1c-0.9-0.1-1.7,0.3-2.1,1.1c-0.8,1.8-2,3.1-3.3,3.8v0.6c0.6-0.2,1.3-0.3,2.1-0.3c4,0,7.6,2.9,10,6.8
						c0.4,0.6,0.9,1.2,1.5,1.6c2.9,1.9,4.9,5,4.9,9c0,1.8-0.4,3.6-1.1,5.1c-0.8,1.6-0.6,3.5,0.4,4.9c0.9,1.3,1.5,2.8,1.5,4.3
						c0,3.2-1.3,6.1-3.3,7.9c-1.2,1.1-1.9,2.5-1.9,4.1c0,3.6-1.6,5.4-3.2,6.3c-1.8,1-3.2,2.7-3.7,4.7c-0.7,2.9-2.6,6.5-7.6,7.3
						c-1,2.8-3.8,4.8-7.2,4.8c-0.6,0-1.2-0.1-1.8-0.2c-1.5,2.7-4.8,4.6-8.6,4.6c-0.6,0-1.7,0-2.3-0.1c-2.8,2.1-5.9,3.3-9.9,3.3
						c-3.9,0-7.5-1.2-10.3-3.2c-1,0.3-2.1,0.4-3.3,0.4c-4.7,0-8.8-2.5-10-5.6h-1.7c3.7,15.7-9.8,24.9-16.8,26.7h0
						c-2.3,3.9-7.6,7.7-10,7.7c-1,0-1.8-0.4-2.6-1c-0.5,2-2.3,3.5-4.6,3.5c-0.5,0-1.1-0.1-1.5-0.2c-1.1-0.4-2.4-0.1-3.4,0.6
						c-1.2,0.8-2.7,1.3-4.3,1.3c-2.5,0-4.8-0.9-6.2-2.8c-0.8,0.2-1.8,0.3-2.7,0.3c-3.6,0-6.3-2.1-6.4-4.4c-1.4,0.8-2.9,1.2-4.5,1.2
						c-5.3,0-9.6-4.5-9.9-10.1c-0.7,0.3-1.4,0.4-2.2,0.4c-3.6,0-6.5-3.3-6.5-7.4h-2.9c-0.5,1.8-1.5,3-2.7,3c-0.5,0-1-0.2-1.4-0.6
						c0,0.1,0,0.1,0,0.1c0,5-3.1,9.1-6.9,9.1c-1.3,0-2.5-0.5-3.5-1.3c-1.5,4.3-5,5.1-9.4,5.1c-2.9,0-7.1-2.9-10-5.8
						c-1.1,0.5-2.2,0.7-3.5,0.7c-3.9,0-7.1-2.5-7.9-5.8c-0.7,0.4-1.5,0.6-2.3,0.6c-2.9-0.2-4-1.6-4.4-2.9c-0.3-1-1.2-1.7-2.2-1.9
						c-2.5-0.4-5-3.5-5.3-4.8c-0.1-0.3-0.1-0.7-0.2-0.9c-0.7,1-2,1-4.3-1.2c-3-3.1-2.5-4.6-2.5-10.2c0-1.6,0.1-3,0.3-4.4
						c-0.1,0-0.2,0-0.3,0c-1.9,0-3.5-2.6-3.5-5.8c0-1.3,0.3-2.6,0.7-3.5c-2.5-1.8-4.1-4.9-4.1-8.4c0-1.8,0.4-3.4,1.1-4.9l-5-6.4
						l3-0.5c-0.1-0.4-0.5-2-0.5-2.4c0-2.4,1.4-3.3,2.9-4.4c-0.2-1-0.7-3-0.7-4.1c0-5.4,2.6-8.2,4.3-10.4c-1.5-3.3,1.9-7.4,4-8.3
						c-0.8-1.1-1.2-2.5-1.2-3.9c0-3.1,2-5.7,4.6-6.3c-0.5-0.2-0.9-0.7-0.9-1.4c0-0.3,0.1-0.6,0.3-0.9c-3.2,1.9-7,2.9-11.1,2.9
						c-3.5,0-6.8-0.8-9.6-2.1c-0.9,0.3-2,0.5-3,0.5c-4.1,0-9.6-5.6-9.9-5.5c-1.3,0.4-2.6,0-3.5-1.2v3.3l-4.4-6.1
						c-1.4-1.5-2.4-3.3-2.8-5.4c-0.1,0-0.1,0-0.2,0c-4-0.2-5.5-2.6-6.1-4.6c-0.4-1.5-1.4-2.8-2.7-3.7c-1.5-1-2.5-2.7-2.5-4.7
						c0-0.2,0-0.5,0.1-0.7c-2.3-1.5-3.7-4.1-3.7-7.4c0-2.5,0.3-4.9,1.5-6.8c1.4-2.1,1-4.9-0.6-6.8c-1.3-1.5-1.9-2-1.9-5.2
						c0.2-7.3,5.3-8.2,5.3-8.3c0-2.6,1.3-4.8,3.3-6.1c1.4-0.9,2.5-2.2,2.8-3.8c0.6-2.8,3.4-6,5.8-6.4c2-0.3,3.5-2.1,4.3-3.9
						c0.9-2.1,3.3-4.6,8.7-6.5c2.7-1,5.4-2.1,8-3.4c2.8-1.4,6.3-2.3,9.9-2.4c11.6-0.5,15.8,5,15.8,12.1c0,2.8-1.2,5.5-3.2,7.6
						c0,0.3,0,0.6,0,0.9c0,3.4-1.5,6.4-3.8,8.3c-1.3,1-1.3,3,0,4.1c1.7,1.5,2.8,3.7,2.8,6.1c0,0.9-0.1,1.8-0.4,2.6
						c3.1,0.7,5.4,3.3,5.6,6.6c3.1,0.8,5.6,3,6.6,5.8c0.5,1.3,1.9,2,3.2,1.5c2-0.7,4.1-1.1,6.3-1.1c2.1,0,4.2,0.3,6.1,1
						c0-0.1,0-0.2,0-0.2c0-1.1,0.5-2.1,1.3-2.8c-4.7-13.4-6.5-23.6-6.5-23.6c-13.3-1.2-6.2-24.2-6.2-24.2
						c6-20.2,18.1-14.5,18.1-14.5c14.5-24,14.8-32.5,14.8-32.5C-417.1-8.7-425-14-425-14l1.7-3.4c-6.2-8.1-20.2-13.1-20.2-13.1
						c21.2-28.7,22.7-47.8,22.7-47.8l78-2.8c0.4,23.7,22.6,50.4,22.6,50.4c-9.3,3.4-19.3,11.1-19.3,11.1l0.2,5c0,0-5.9,4.5-6.7,11.7
						s14.9,33.5,14.9,33.5c6.2-1,13.4-0.9,18.1,18.3c5,20.8-6.8,20.2-6.8,20.2c-0.8,5.1-1.8,9.9-2.9,14.3c-1,3.8-2,7.3-3.1,10.6
						c2.8,1.4,5.7,3.2,8.5,5.3c0.5,0.4,1.1,0.8,1.6,1.2c2.1,1.7,4,3.4,5.7,5.1c0.5-0.2,1.1-0.3,1.7-0.3c0.8,0,1.5,0.2,2.2,0.6
						c1.8-2.2,5.1-3.7,8.9-3.7c1.1,0,2.2,0.1,3.2,0.4c0-0.2,0-0.3,0-0.5c0-0.9,0.2-1.7,0.5-2.3c-1.3-2-2-4.5-2-7.2
						c0-1,0.1-1.9,0.3-2.8h-3.9l0.7-1.5c-1.7-0.7-3.1-1.9-3.9-3.4c-11.8,0.5-15.8-2.4-15.9-7.1c-0.1-3.4,4.4-8.6,9.5-13.9
						c4.1-4.3,7.1-8.4,13.2-9.1c3.2-0.4,9.5,1.7,10.3,1.2l-0.3-1.7l4.6,0.6c1.4-0.5,1.2-1,2.9-1c4.8,0,8.8,2.3,10.3,5.5
						c0.1,0,0.3,0,0.4,0c4.7,0,8.6,3.3,9.4,7.7c0.5-0.1,1-0.1,1.5-0.1c4.4,0,8,3.4,7.9,7.6l0,0c3.5,0.3,8.3,2.9,7.8,15.9
						C-240.8,92.9-240.7,95.2-240.8,97.2"/>
				</g>
				
					<g id="g108" transform="matrix(1.0650241,0,0,1.0650241,335.8162,468.70164)" inkscape:export-xdpi="118.72222" inkscape:export-ydpi="118.72222">
					<path id="path110" inkscape:connector-curvature="0" class="st6" d="M-268.1,145.4c-19.7,2.3-35,1.7-35,1.7s-15.4,0.6-35.2-1.7
						c-2.7,6.7-6.7,15.1-13,24.7c7.4,4.1,16.3,10.3,21.4,18c7.5-4.7,16.8-7.3,26.8-7.3c9.8,0,19,2.5,26.4,7.1
						c5.2-7.7,14.1-13.8,21.5-17.9C-259.2,163.7-264.4,155-268.1,145.4 M-273.3,200.6c-6.2-7.3-17.2-12.2-29.8-12.2
						c-12.9,0-24.2,5.1-30.3,12.8c0-0.1,0-0.2,0-0.4c0-9.7-12.5-20.3-29.2-27.9c8.2-11.3,13.3-21,16.4-28.6
						c4.6-11.1,5.1-17.6,5.1-17.6l76-2.8c0.1,6.8,2,13.8,4.7,20.4c5.3,13.1,13.5,24.4,16.6,28.4
						C-260.4,180.3-273.1,190.9-273.3,200.6"/>
				</g>
				
					<g id="g112" transform="matrix(1.0650241,0,0,1.0650241,335.8162,468.70164)" inkscape:export-xdpi="118.72222" inkscape:export-ydpi="118.72222">
					<path id="path114" inkscape:connector-curvature="0" class="st7" d="M-268.1,145.4c-19.7,2.3-35,1.7-35,1.7s-15.4,0.6-35.2-1.7
						c-2.7,6.7-6.7,15.1-13,24.7c7.4,4.1,16.3,10.3,21.4,18c7.5-4.7,16.8-7.3,26.8-7.3c9.8,0,19,2.5,26.4,7.1
						c5.2-7.7,14.1-13.8,21.5-17.9C-259.2,163.7-264.4,155-268.1,145.4z M-273.3,200.6c-6.2-7.3-17.2-12.2-29.8-12.2
						c-12.9,0-24.2,5.1-30.3,12.8c0-0.1,0-0.2,0-0.4c0-9.7-12.5-20.3-29.2-27.9c8.2-11.3,13.3-21,16.4-28.6
						c4.6-11.1,5.1-17.6,5.1-17.6l76-2.8c0.1,6.8,2,13.8,4.7,20.4c5.3,13.1,13.5,24.4,16.6,28.4
						C-260.4,180.3-273.1,190.9-273.3,200.6z"/>
				</g>
				
					<g id="g116" transform="matrix(1.0650241,0,0,1.0650241,306.68492,663.75644)" inkscape:export-xdpi="118.72222" inkscape:export-ydpi="118.72222">
					<path id="path118" inkscape:connector-curvature="0" class="st6" d="M-268.1,145.4c0-8.5-3.3-15.4-7.4-15.4
						c-4.1,0-7.4,6.9-7.4,15.4c0,8.5,3.3,15.4,7.4,15.4C-271.4,160.8-268.1,153.9-268.1,145.4"/>
				</g>
				
					<g id="g120" transform="matrix(1.0650241,0,0,1.0650241,321.77205,651.53817)" inkscape:export-xdpi="118.72222" inkscape:export-ydpi="118.72222">
					<path id="path122" inkscape:connector-curvature="0" class="st6" d="M-268.1,145.4c-3.3-7.2-8.2-11.5-11-10.2
						c-2.8,1.3-2.6,8,0.7,15.2c3.3,7.2,8,11.4,10.8,10.1C-264.8,159.1-264.8,152.5-268.1,145.4"/>
				</g>
				
					<g id="g124" transform="matrix(1.0650241,0,0,1.0650241,334.42177,639.31393)" inkscape:export-xdpi="118.72222" inkscape:export-ydpi="118.72222">
					<path id="path126" inkscape:connector-curvature="0" class="st6" d="M-268.1,145.4c-3-5.8-8.5-9.8-10.8-8.6
						c-2.3,1.2-1.1,7.9,1.9,13.7c3,5.8,8.5,9.4,10.8,8.2C-263.9,157.5-265.1,151.2-268.1,145.4"/>
				</g>
				
					<g id="g128" transform="matrix(1.0650241,0,0,1.0650241,344.25471,625.21397)" inkscape:export-xdpi="118.72222" inkscape:export-ydpi="118.72222">
					<path id="path130" inkscape:connector-curvature="0" class="st6" d="M-268.1,145.4c-3.7-5.5-8.2-8.1-10.3-6.7
						c-2.2,1.5-1.1,6.2,2.7,11.6c3.7,5.5,7.9,7.8,10.1,6.4C-263.5,155.2-264.3,150.8-268.1,145.4"/>
				</g>
				
					<g id="g132" transform="matrix(1.0650241,0,0,1.0650241,350.51386,614.72508)" inkscape:export-xdpi="118.72222" inkscape:export-ydpi="118.72222">
					<path id="path134" inkscape:connector-curvature="0" class="st6" d="M-268.1,145.4c-2.2-3.3-5.1-5.1-6.5-4.2
						c-1.4,1-0.8,4.4,1.4,7.6c2.2,3.3,5.1,5.1,6.5,4.2C-265.3,152-265.9,148.6-268.1,145.4"/>
				</g>
				
					<g id="g136" transform="matrix(1.0650241,0,0,1.0650241,275.07181,651.53817)" inkscape:export-xdpi="118.72222" inkscape:export-ydpi="118.72222">
					<path id="path138" inkscape:connector-curvature="0" class="st6" d="M-268.1,145.4c3.3-7.2,8.2-11.5,11-10.2
						c2.8,1.3,2.6,8-0.7,15.2c-3.3,7.2-8,11.4-10.8,10.1C-271.3,159.1-271.3,152.5-268.1,145.4"/>
				</g>
				
					<g id="g140" transform="matrix(1.0650241,0,0,1.0650241,262.4222,639.31393)" inkscape:export-xdpi="118.72222" inkscape:export-ydpi="118.72222">
					<path id="path142" inkscape:connector-curvature="0" class="st6" d="M-268.1,145.4c3-5.8,8.5-9.8,10.8-8.6
						c2.3,1.2,1.1,7.9-1.9,13.7c-3,5.8-8.5,9.4-10.8,8.2C-272.2,157.5-271.1,151.2-268.1,145.4"/>
				</g>
				
					<g id="g144" transform="matrix(1.0650241,0,0,1.0650241,252.58915,625.21397)" inkscape:export-xdpi="118.72222" inkscape:export-ydpi="118.72222">
					<path id="path146" inkscape:connector-curvature="0" class="st6" d="M-268.1,145.4c3.7-5.5,8.2-8.1,10.3-6.7
						c2.2,1.5,1.1,6.2-2.7,11.6c-3.7,5.5-7.9,7.8-10.1,6.4C-272.6,155.2-271.8,150.8-268.1,145.4"/>
				</g>
				
					<g id="g148" transform="matrix(1.0650241,0,0,1.0650241,246.33011,614.72508)" inkscape:export-xdpi="118.72222" inkscape:export-ydpi="118.72222">
					<path id="path150" inkscape:connector-curvature="0" class="st6" d="M-268.1,145.4c2.2-3.3,5.1-5.1,6.5-4.2
						c1.4,1,0.8,4.4-1.4,7.6c-2.2,3.3-5.1,5.1-6.5,4.2C-270.9,152-270.2,148.6-268.1,145.4"/>
				</g>
				
					<g id="g152" transform="matrix(1.0650241,0,0,1.0650241,346.09369,577.58971)" inkscape:export-xdpi="118.72222" inkscape:export-ydpi="118.72222">
					<path id="path154" inkscape:connector-curvature="0" class="st6" d="M-268.1,145.4c-7.4-5.3-19.6-13-34.8-17.8
						c0,0-9.1-3.6-26.7,1.6c-10.5,3.1-21.1,10.5-27.9,15.9c-4.6,3.7-7.5,6.4-7.5,6.4s1.4,1.4,4.1,3.6c12.2,9.7,50.3,33.5,95.9-0.1
						c1.5-1.1,3-2.2,4.5-3.5C-260.3,151.6-263.1,149-268.1,145.4 M-250.4,165.3c-1.3,0.8-3.8-0.2-6.4-2.1
						c-12.2,12.8-56.2,38.6-56.2,38.6s-45.7-28.7-55.8-38.4c-2.6,1.8-5.1,2.7-6.3,1.9c-2.9-1.8-3.1-8.5-0.2-17.2
						c2.9-8.7,5.3-10.8,9.2-10.6c1.2,0.1,3,0.5,4.7,1.4c16.8-17.3,48.4-34.8,48.4-34.8s31.7,17.7,48.5,35.1c1.8-1.1,3.8-1.6,5.1-1.7
						c3.8-0.2,6.3,1.8,9.2,10.6C-247.3,156.8-247.4,163.6-250.4,165.3"/>
				</g>
				
					<g id="g156" transform="matrix(1.0650241,0,0,1.0650241,298.51916,50.711731)" inkscape:export-xdpi="118.72222" inkscape:export-ydpi="118.72222">
					<path id="path158" inkscape:connector-curvature="0" class="st1" d="M-268.1,145.4c-24.5,51.6-64,89.5-115.8,112.6
						c-14.6,6.5-30.1,11.8-46.6,15.7c2.6,5,5.1,10.1,7.5,15.3c16.1,35.5,25.5,74,25.5,110.6c0,30-5.9,60-16.4,88.2
						c-7.7,20.7-17.9,40.4-30,58.4l73.4,40.7c13.1-19.7,24.3-41.4,32.7-63.9c33,10.3,69.6,8.8,69.6,8.8s36.6,1.5,69.6-8.8
						c8.5,22.5,19.6,44.2,32.7,63.9l73.4-40.7c-12.1-18-22.3-37.7-30-58.4c-10.5-28.2-16.4-58.2-16.4-88.2
						c0-36.6,9.4-75.2,25.5-110.6c2.4-5.2,4.9-10.3,7.5-15.3c-16.5-4-32-9.2-46.6-15.8C-204,234.8-243.5,197-268.1,145.4"/>
				</g>
				
					<g id="g160" transform="matrix(1.0650241,0,0,1.0650241,298.51916,73.548511)" inkscape:export-xdpi="118.72222" inkscape:export-ydpi="118.72222">
					<path id="path162" inkscape:connector-curvature="0" class="st6" d="M-268.1,145.4c-25.6,44.8-63.1,77.5-111.8,99.2
						c-11.5,5.2-24.4,10-36.9,13.6c19,42.9,29.3,87.9,29.3,125c0,30.5-6.1,51.7-17,86.7c-5.7,18.3-15.2,32.8-25.2,51.4l56,31
						c12.7-18.8,21-39.6,28.1-58.5l5,1.4c47.4,13.7,97.7,13.6,145-0.1l4.6-1.3c7.1,18.9,16.3,40.9,28.5,58.5l56-31
						c-10.1-16.2-18.5-33.5-25.2-51.4c-11.3-30.3-17-61.2-17-91.7c0-37,11.3-80.9,29.6-119.8c-12.6-3.6-25.7-8.7-37.3-13.8
						C-205,222.8-242.5,190.2-268.1,145.4"/>
				</g>
				
					<g id="g164" transform="matrix(1.0650241,0,0,1.0650241,381.05843,263.82295)" inkscape:export-xdpi="118.72222" inkscape:export-ydpi="118.72222">
					<path id="path166" inkscape:connector-curvature="0" class="st1" d="M-268.1,145.4c-0.4-0.6-0.8-1.3-1.2-1.9
						c-15.8-24.8-43.4-42-75.3-42c-42.2,0-77.6,28.2-87.5,67h9.5c10.1-33.9,42-58.7,79-58.7c28.5,0,54.9,14.5,69.6,36.7
						c0.5,0.8,1,1.6,1.5,2.4l-2.6,1.6l-5.2,3.3l-2.4,1.5c-0.4-0.8-0.9-1.7-1.4-2.5c-12.4-21.4-37.6-32.2-61.5-31.6
						c-29.6,0.7-56.1,21.5-64.9,47.3h10.8c8.3-21.6,29.4-37.1,53.6-37.9c0.7,0,1.3,0,2,0c0.3,0,0.7,0,1,0.1v37.8h8.1v-36.7
						c0.9,0.1,1.8,0.2,2.8,0.4c1.4,0.2,2.8,0.5,4.1,0.9c0.9,0.2,1.8,0.4,2.6,0.7c13.8,4.1,25.4,12.9,33.1,24.4
						c0.5,0.8,1,1.6,1.5,2.4l-2.9,2l-2.6,1.8l-2.3,1.6c-0.5-0.8-1-1.6-1.5-2.4c-6-8.8-15.1-15.7-25.3-19.6v24.5h67.2
						C-260.4,160.3-263.7,152.6-268.1,145.4 M-414,168.5c9.5-29.1,37.1-50.5,69.2-50.5c26.4,0,50.5,12,63.1,33.4l5.2-3.2
						c-13.7-22.6-40.6-35.8-68.6-35.8c-34.8,0-64.6,24.1-74.4,56.2c-2.2,7.3-3.5,15-3.5,23c0,7.7,1.2,15.1,3.3,22.2
						c9.8,32.1,40.3,55.8,74.6,55.8c28.1,0,56.1-14.4,69.8-37.1l-5.3-3.2c-12.7,21.3-37.9,34.6-64.2,34.6c-31.3,0-59.2-21.2-69-50.2
						c-2.5-7.2-3.8-14.8-3.8-22.7C-417.6,183.1-416.3,175.5-414,168.5 M-388.4,168.5h35.3v-27.2c-12.3,2.3-23,9.6-30.4,19.4
						C-385.4,163.1-387,165.7-388.4,168.5 M-396.3,187.3L-396.3,187.3c0.1-5.3,1.3-10.7,3.2-15.7c0.4-1,0.9-2.1,1.3-3.1
						c6.8-14.6,20.7-26.6,38.6-30c1-0.2,1.9-0.3,2.9-0.5v50.8h-22.3v4.5h26.4v-59.6c-21.9,0.2-42.4,14.6-50.8,34.7
						c-2.6,6.2-4,12.9-4,20c0,4.3,0.5,8.4,1.5,12.4c1.1,4.5,2.8,8.7,5,12.7c1.7,3.1,3.7,6,5.9,8.7c1.9,2.3,4,4.5,6.2,6.5
						c0,0,0.1,0.1,0.1,0.1c3,2.7,6.3,5,9.8,7c5.4,3.1,11.4,5.3,17.5,6.5c0.4,0.1,5.2,1,8.8,0.8v0v-4.7c-18.5-1-34.5-10.7-43.2-24.9
						c-1-1.6-1.8-3.2-2.6-4.9c-1.1-2.3-2-4.8-2.7-7.3c-1.1-4.1-1.8-8.5-1.8-13C-396.3,188.1-396.3,187.7-396.3,187.3 M-325.4,140.7
						c11.7,4.1,21.4,11.6,27.7,21.3l2.7-1.8c-6.6-10.8-17.3-19.2-30.3-23.2c-0.9-0.3-1.7-0.5-2.6-0.7c-1.4-0.4-2.7-0.7-4.1-0.9v109
						c1.4-0.3,2.8-0.6,4.1-1c0.9-0.3,1.8-0.6,2.6-0.9c11.2-3.9,21.1-11.3,27.9-19.9l-2.8-2c-6.3,7.8-15.1,14.6-25.2,18.7
						c-0.9,0.4-1.7,0.7-2.6,1v-46.9h21.1v-4.5h-21.1v-49C-327.2,140.1-326.3,140.4-325.4,140.7 M-344.6,281.1
						c33,0,61.4-17.7,76.9-44.1c0.8-1.4,1.6-2.8,2.3-4.2c3.1-6,5.6-12.5,7.3-19.2h-67.4v22.8c9-4.2,16.9-10.5,22.7-17.7
						c0.6-0.8,1.2-1.5,1.7-2.3l2.5,1.8l2.8,2l2.5,1.8c-0.5,0.8-1.1,1.5-1.7,2.3c-7.2,9.3-18.2,17.3-30.4,21.1
						c-0.9,0.3-1.8,0.5-2.6,0.7c-0.3,0.1-0.6,0.2-0.9,0.2c-2,0.5-3.9,0.8-6,1.1v-33.8h-50.9c8.6,12.6,23.2,21.2,39.8,22.1
						c1,0.1,2,0.1,3,0.1h0v10.6c-0.7,0-2.4,0-3,0c-4.8-0.1-9.5-0.9-14.1-2.1c0,0,0,0,0,0c-16.5-4.5-30.2-15.7-37.6-30.6h-12.7
						c8.8,25.6,35.1,45.8,64.9,47.1c24.3,1,50.3-12.4,62.7-33c0.5-0.8,1-1.6,1.4-2.5l2.3,1.4l5.3,3.3l2.1,1.3
						c-0.5,0.8-0.9,1.6-1.4,2.4c-14.4,23.3-41.1,38.8-70.4,38.8c-37.1,0-69.1-24.9-79.1-58.8h-9.3
						C-421.9,252.5-386.6,281.1-344.6,281.1 M-345.6,288.1c-53.4,0-96.7-43.3-96.7-96.7c0-53.4,43.3-96.7,96.7-96.7
						s96.7,43.3,96.7,96.7C-248.9,244.8-292.2,288.1-345.6,288.1"/>
				</g>
				
					<g id="g168" transform="matrix(1.0650241,0,0,1.0650241,245.86426,638.26424)" inkscape:export-xdpi="118.72222" inkscape:export-ydpi="118.72222">
					<path id="path170" inkscape:connector-curvature="0" class="st8" d="M-268.1,145.4l-1.6-4.9c-5.1,7.6-10.9,4.9-12.3,4.9
						c-1.5,0-3.8-0.6-4.4,0.8c-1.1,2.5-5.6-0.1-8.8-1.8c-1.2-0.6-2.2-2.3-2.8-3.7c-0.6-1.7-4.5-3.2-5-4.6c-0.2-0.6-2.1-3.8-2.7-4.2
						c-1.4-1-3.9-3.3-3.4-7.6c0,0,0-0.1,0-0.1c0-0.9-0.5-1.6-0.9-1.8c-1.9-1.6-2.9-4-2.9-6.5c0-2.5,1.1-4.8,3-6.3
						c1.1-0.9,1.7-2.3,1.7-3.9c0-0.1,0-0.2,0-0.3l0-0.3c-0.1-1.5,0.4-3,1.5-4.1l0.1-0.1c0.7-0.8,1.5-2.4,1.5-4
						c0-3.1-2.9-5.9-8.8-5.9c-0.4,0-1,0-1.4,0c-2.8,0.1-6.2,1.2-8.3,2.2c-2.6,1.3-4.4,1.7-7.6,2.8c-3.4,1.2-5.1,4-5.5,4.9
						c-1.6,3.7-3.8,5.4-7,6.2c-0.5,0.1-1,0.4-1.4,0.7c-0.5,0.4-0.9,1-0.9,1.4c0,7.1-2.8,5.3-5.6,7.1c-0.2,0.1-0.7,0.6-0.7,1.4
						c0,1.9-0.5,4.6-3.4,5.6c-0.4,0.2-1.9,0.3-1.9,2.8c0,0.4,0,0.6,0,0.8c0.1,0.1,0.4,0.5,0.4,0.5c1.6,1.8,2.7,3.9,3.1,6.1h0.4
						c0.4,0,0.8,0.4,0.8,0.8v1.5c0,0.4-0.4,0.8-0.8,0.8h-0.2c-0.1,1.6-0.6,3.2-1.5,4.6c-0.6,0.9-1.1,2.9-1.1,3.6
						c0,1.7,0.4,2.4,0.9,2.7l1.2,0.8c1.1,0.7,1.3,1.3,1.2,2.6l-0.1,0.7c-0.2,1.4,0.7,2.9,2.1,3.3c2.3,0.7,3.2,2.3,3.2,4.8
						c0,1.6,6.5,0.8,6.7,5.3c0.1,1,0.6,1.9,1.2,2.6c0.9,0.9,2.1,1.9,3.3,2.2c2.1,0.6,4.2,1.3,4.9,1.8c3.4,2.8,4.8,3.4,5.3,3.4
						c0.4,0,0.8-0.1,1.2-0.2l0.1,0c1.3-0.4,2.7-0.3,4,0.3l1.5,0.6c2.2,1,3.2,1,5.8,1c3,0,6.1,0,8.5-1.4c0,0,1.6-1.8,3.7-3.2
						c1.4-1,3.1-1.6,4.9-1.6c2.9,0,3.7-1.5,3.7-1.5c2.5-1.3,5.4-3.7,8.3-6.3c-6.4,0.9-17.5,2.2-20.1,0.2c0,0-6.5,5.6-20.4,0.8
						c0,0,12.3,2.1,17-0.8c0,0-8-3.8-8.1-4.4c0,0-11.4,0.7-25-8.7c1,0.4,18.1,7.4,20.6,5.9c0,0-7.6-7.5-8.7-9.8c0,0-1-1.9-5.6-4
						c-4.5-2.1-9.8-9.5-10.1-10c0.5,0.4,10.8,9,12.9,8.5c0,0-8.5-10.1-0.8-25.9c0,0-3.2,17.5,2.6,25.6c0,0,4.2-10.1,4.5-13.5
						c-0.1,1.8-0.6,10.9-3.4,15.3c0,0,7.8,10.6,11.2,13.1c0,0,2.4-9-0.2-19.1c0.2,0.6,5,11.9,2.6,20.6c0,0,8.5,5.1,9.8,4.1
						c0,0-0.4-16.6-4-20.5c0.4,0.3,7.2,6.3,6.1,21.4c0,0,12.4,0.4,12.5-0.2c0,0-3.7-8.2-6.9-10.1c0.8,0.4,7.2,3.4,9.9,9.5
						c0,0,3.1-0.2,6.4-0.7C-274.6,153.3-268.1,145.4-268.1,145.4"/>
				</g>
				
					<g id="g172" transform="matrix(1.0650241,0,0,1.0650241,221.5995,674.82641)" inkscape:export-xdpi="118.72222" inkscape:export-ydpi="118.72222">
					<path id="path174" inkscape:connector-curvature="0" class="st8" d="M-268.1,145.4l-9.9,7.4c-0.1,0-0.3,0.6-0.3,1.1
						c0,0.3,0.2,0.7,0.2,0.7c1.9,2.7-2,8.1-2,8.1c0,0.2-0.1,0.3-0.3,0.5c-0.3,0.3-0.7,0.8-0.9,1.2c0.7,1.7,0.5,3.6-0.7,5l-0.6,0.8
						c-1.5,1.9-2.7,3.4-2.7,6.4c0,0.2,0.1,3.1,0.1,3.1c0.1,1.8-0.1,3.3-1.4,5c-0.4,0.5-0.6,1.3-0.5,1.9l0.4,2.5
						c0.2,1.1,1.5,2.3,1.5,2.3c1.2,1,1.4,3.2,0.5,4.4l-0.9,1.2c-0.4,0.7-0.5,1.5-0.5,2.3c0,0.8,0,1.4,0.2,2c0.3,1,1.2,1.6,2.1,1.6
						l0,0c1,0,1.8,0.8,1.7,1.8c-0.2,2.2-0.5,5.4-0.5,5.4c0,0,0,0.2,0,0.5c0.1,1.9,1.4,3.2,2.8,4.6c0.5,0.7,0.7,1.5,0.7,2.4
						c-0.1,1.3-0.2,3-0.2,3.9c0,0.8,0,1.6,0,2.3c0,0.3,0,2.6,0,2.9c0,0,6.1,1.2,6.7,5.5c0.1,0.3,0.7,0.8,1,0.9
						c2.4,0.7,4,1.9,5.2,3.6c0.4,0.6,1.1,1,1.9,1l2.9-0.1c0.5,0,0.9,0.2,1.2,0.6l2,3.4c0.5,0.7,1.3,1.4,2.6,1.4
						c0.4,0,4.8-1.4,7.8,1.2c0,0,4.4,3.6,5.8,3.8c1.7,0.3,2.9-0.2,3.7-0.8c0.9-0.7,1.3-1.8,1.4-2.9l0.1-2.4c0,0,2,1,3.8,1.9
						c2,1,4.6,0,5-2.2c0-0.1,0.1-0.9,0.1-1.8c0.1-1.8,1.3-3.2,3-3.7l1.9-0.5v-3.1c0,0-2.8-2.6-0.9-10.5c0,0,1.8-2.8-0.2-7.2
						c0,0-3.3-5-3.6-7.3c-0.2-1.3-1.7-3.9-3.2-5.4c-0.9-0.9-0.7-2.4,0.4-3c1.1-0.6,1.8-0.9,1.8-1.7c0-1.5-2.5-2.3-2.5-2.3
						s-1.3-0.8-1-4.3c0.1-0.8-0.2-1.6-0.9-2.1c-2-1.5-6-5.4-4.2-11c0.4-1.2,0.3-2.5-0.3-3.6c-1.5-3.1-3.8-8.9-1.4-10.2
						c0,0-2.3-6.2-6.1-9.2c0,0,4-2,4.6-4.4l-4-2.9c0,0,4.8-2.8,3.3-9.6c0,0-2.5-1.2,1.6-5.2l-0.6-7.1c0,0-11.5,15.4-14.8,23.4
						c0,0,3.3,1.6,6.8,17.7c0,0-6.3-14.3-7.7-14.2c0,0-5,12.3-4.2,14c0,0,8,8.7,11.8,19.7c0,0-9.9-16.3-12.3-16.8
						c0,0-1.9,8.6-1.3,16.3c0,0,7.8,6.6,14,18.8c0,0-12.7-15.5-13.9-15.2c0,0,1.8,14.9,4.2,19.3c0,0,3-0.1,13.1,12.6
						c0,0-10-9.8-12.2-10.3c0,0,4.8,13.9,9.2,18.2c0,0-5.8-3.8-11.2-18.9c0,0-2,6.5-1.3,16.6c0,0-3.8-9.2,0.2-19.2
						c0,0-4.2-12.8-3.8-17.8c0,0-5.9,10.2-6.2,16.7c0,0-0.1-13.4,5.5-20.7c0,0-0.1-14.3,1-17.1c0,0-9.3,7.2-12.9,11.7
						c-0.2,0.3-0.6,0-0.4-0.3c1.5-2.5,5.2-7.2,14-15.1c0,0,3.2-11.7,4.2-13.6c0,0-5.4,1.4-13.9,10c0,0,4.2-8.1,15.6-14.2
						c0,0,6.4-13,12.6-20.4C-244.2,126.7-268.1,140.2-268.1,145.4"/>
				</g>
				
					<g id="g176" transform="matrix(1.0650241,0,0,1.0650241,285.19028,687.34045)" inkscape:export-xdpi="118.72222" inkscape:export-ydpi="118.72222">
					<path id="path178" inkscape:connector-curvature="0" class="st8" d="M-268.1,145.4c0,0-9.6,9.6-8.9,11.7c0,0-9,7.8-4.5,11.9
						c0,0,0.7,2.1-1.2,4.2c-1.5,1.7-0.4,6,1.4,9.1c0.9,1.7,1.3,3.6,1,5.6c-0.5,2.9-1.1,7.1-0.8,9.4c0.1,0.5,0.4,1,0.9,1.2
						c1,0.4,2.8,1.5,2.8,3.4c-0.1,2.6,0.3,10.9,0.3,10.9s4-0.2,3.4,7.4c0,0,0,1.8,3.1,3.4c0,0,0.1,4.4,4.6,5.1
						c2.1,0.3,3.8,1.7,4.5,3.7l1.1,2.7c1,2.5,4.3,3.9,6.6,2.3c1.2-0.8,3-1,4,0.2l0.9,1.1c1.9,2.4,3.3,3.2,5.9,2.1
						c1.6-0.8,2.8,0.6,3.7,2.2c0,0,2.2,2.2,5,0.1l0.9-1.1c0.5-0.6,1.2-0.7,1.9-0.4c1.5,0.8,5.1,2.4,4.8-1.5c-0.1-1,1.1-1.7,2.1-1.6
						c0.4,0.1,0.8,0.2,1.3,0.4c0,0,4,1.2,6.8-2.8c0,0,3.9-5.2,8.4-4.7l3.7-3.7c7.8-6.4,5.4-7.9,5.9-11.6c0.4-3.5-0.3-5.1-1.2-5.8
						c-0.7-0.6-2-0.9-2.8-0.5c-2,1.1-5,1-6.2-1l-5.4,0c-1.5,0-2.9-0.6-4-1.7l-1.1-1.1l-0.3,0c-1.3,0.1-2.5-0.4-3.5-1.2l-6-5.4h-1.6
						c-1.1,0-2-0.8-2.3-1.8l-0.1-0.5c-0.2-1.1-1-2.1-2.1-2.6l-1-0.4c-2.9-1.1-3.9-2-4-5.1c-0.1-2.1-1.6-3.8-3.7-4l-0.8-0.1
						c-4-0.4-4.2-4.1-4.1-5.2c0.7-4.7-2.8-6.7-2.8-6.7c-1.7-0.8-1.9-4.4-1.9-4.4c0.3-2.5-2.3-7-2.3-7c-1.9-1.6-3.4-4-3.4-6.4
						c0-2.2,0.4-4.6,0.8-5.4l-5.9-2.1c0,0-4.9,11-4.7,28.7c0,0,9.5,6.1,12.3,11.8c0,0-9.7-8.4-12-8.5c0,0,0.3,7.4,2.4,12.2
						c0,0,10,1.8,12,5.4c0,0-6.6-2.9-11.1-2.8c0,0,5,11.2,10.5,16.5c0,0,8.5-2.2,16.4-0.5c0,0-13.1,1.4-13.4,2.6
						c0,0,5.6,6.2,8.6,7.6c0,0,13-1.1,19.5,0.2c0,0-14,1.9-16.2,1.9c0,0,11.2,4.4,18.1,5.2c0,0-10.6,0.1-16.7-2.9c0,0,5.7,6.9,9.4,9
						c0,0-9.4-3.2-13.3-10.8c0,0-8.8-5.2-10.6-8.3c0,0-1.3,4.9,4,12.3c0,0-6.6-6.1-7.7-15.8c0,0-8.1-7.9-10.1-15.1
						c0,0-2.6,3.2-3.8,12.1c0,0-0.9-6.6,1.9-15.7c0,0-2.8-9.1-2.2-12.8c0,0-4.2,4.6-6.1,10.6c0,0,0.2-8.4,5.6-15
						c0,0,1.1-21.9,4.6-30.2H-268.1z"/>
				</g>
				
					<g id="g180" transform="matrix(1.0650241,0,0,1.0650241,437.86682,721.62357)" inkscape:export-xdpi="118.72222" inkscape:export-ydpi="118.72222">
					<path id="path182" inkscape:connector-curvature="0" class="st8" d="M-268.1,145.4l-4.9,6.5c-0.7,1-0.9,2.4-0.2,3.4
						c0.5,0.6,0,1.9-1,2.5c-2.6,1.8-4.6,4.1-5.9,6.9c-1,2.2-0.8,4.4-3.7,4.1c-1-0.1-2.4,1-2.6,2.1c-0.9,1.4-1.7,2.1-2.6,2.4
						c-1,0.4-2.1,0.5-3.6,0.7l-1-0.2c-1.3-0.2-2.5,0.9-2.3,2.2l0.6,1l-7.6,0.7c-1.8,0-4.5,0.9-5.1,2.6c0,0-0.4,0.7-2.3,0.7
						c-2,0-5.6-0.8-12.2-3.9c-0.9,0.4-1.8,0.6-2.9,0.6c-2.8,0-5.3-1.7-6.7-4.3c-0.8-1.4-2.2-2.3-3.8-2.2c-0.1,0-0.1,0-0.2,0
						c-4.2,0-5.9,1.9-9.5-5.1c-0.8-1.6-2.5-2.6-4.3-2.5h-0.1c-3.4,0-6.2-2.7-6.2-6.1c0-0.3,0.1-0.7,0.2-1.1
						c-0.4,0.1-0.9,0.2-1.3,0.2c-3.1,0-5.6-2.9-5.8-6.5c-3.5-0.2-4.9-1.5-4.9-4c0-0.9-1-2.6-0.4-3.3v-3.6c-2.1-0.8-3.5-2.6-3.5-4.7
						c0-0.5,0.1-1,0.3-1.5c0.4-1.1,0.5-2.4,0-3.5c-0.3-0.6-0.6-1.1-1-1.6c0,0-1.3-11.7,1.1-15.5c0,0-1.4-4.2,0.2-9.2
						c1.4,6,4.9,20.4,9.1,27.3c1,0.7,1.8,1.6,2.1,2.8c0,0,0,0,0,0c0.1,0.4,0.2,0.8,0.2,1.3c0,0.5-0.1,0.9-0.2,1.3
						c0,1.4,0.1,3.1,0.3,4.9c0.1,1,0.2,2,0.4,2.9c0.4,1.9,0.9,3.7,1.8,5c0.2,0.4,0.5,0.7,0.8,0.9c0-0.1-0.2-0.6-0.3-1.3
						c-0.2-0.8-0.4-1.9-0.5-3.1c-0.1-1.1-0.2-2.4-0.2-3.7c0.1-1.6,0.4-3.1,1-4.3c0,0-0.2,4.5,8.8,10.9c0,0,0.7,5.3,2.6,7.9
						c0,0-0.5-6.5,0.7-5.4c7.6,6.8,10.7,6.4,17.3,8.8c0,0,0,0,0,0c0.4,0.7,0.9,1.4,1.4,2.1c0.6,0.7,1.2,1.4,1.9,2.1
						c2.2,2.2,4.7,3.9,6.7,5.1c1.8,1.1,3.1,1.7,3.2,1.8c-1.2-0.9-2.3-1.7-3.2-2.5c-6.7-5.5-6.4-8.3-6.4-8.3c0.8,0.3,1.7,0.5,2.6,0.6
						c6.8,0.8,15.9-3,15.9-3c8.7,4.3,16.1,2.4,16.1,2.4c-9.1-0.7-15-3.3-12.2-3.9c0.1,0,11.8-7.7,15.4-10c-8.9,5.7-16,8.6-16,8.6
						c-1.2-1.9,9.8-15.5,9.8-15.5c-6.2,3-14,16.8-14,16.8c-4,2.8-16.4,2.3-16.4,2.3c0.2-2.7,8.8-10.2,8.8-10.2
						c-6.8,2-12.4,9.5-12.4,9.5c-6.7-1.5-8-2.6-9.3-3.3c-14.4-7.8-9.4-6.9,2.1-6.3c0.5,0-0.8-0.9-2.4-1.2
						c-6.3-1.1-10.8-1.1-11.4-1.1c0,0-0.1,0-0.1,0c-3.3-2.2-9.3-9.3-9.3-9.3c5-1.1,11.5,2.1,11.9,2.3c-4.3-3.1-12.9-5.1-12.9-5.1
						c-6-7.2-10-26.9-11.4-34.5c1-1.5,2.3-2.9,4.1-4.3c0,0,0.6,0.7,0.9,2.4c0.4,2.6,1.6,5,3.3,7.1c1.8,2.2,4.4,6,3.6,17.7
						c0,0,4.4,2.6,6.1,5.9c3.5,6.8,5.9,6,9.7,5.6c1.9-0.2,3.8,0.8,4.7,2.5c1.1,1.9,2.8,4.2,4.9,3.2c1-0.4,2.1-0.1,2.8,0.7
						c1.5,1.6,2.4,2.9,6,0.2c0,0,3.9-0.2,6.6,0.9c0.8,0.3,1.7,0.1,2.3-0.5c1.8-1.9,5.4-5.5,7.2-5.8l5.5,0.1c3.2,0.1,6.3-1.4,8.4-3.9
						l1.2-1.5c0.5-0.6,1.2-0.9,2-0.9l1.6,0.1c0,0,4-3.2,6.1-9c0,0,4.4-3.1,7,1c0.5,0.8,1,1.6,1.5,2.3c0.5,0.8,1.1,1.4,1.9,1.9
						c1.1,0.7,2.4,2.1,2.6,4.7c0.4,4.8-1.7,7.9-1.5,10.3C-270.4,142.2-268.4,142.5-268.1,145.4"/>
				</g>
				
					<g id="g184" transform="matrix(1.0650241,0,0,1.0650241,346.47358,648.91075)" inkscape:export-xdpi="118.72222" inkscape:export-ydpi="118.72222">
					<path id="path186" inkscape:connector-curvature="0" class="st8" d="M-268.1,145.4c0,0,4.5,9.5,9.7,11c0,0-0.1,3.1,3.3,5
						c1.2,0.7,2.3,1.5,3.3,2.5c1.4,1.4,3.3,3.4,4.4,4.9c0.5,0.7,1.3,1.1,2.1,1.1l0.9,0.2c0.7,0.2,1.4,0.6,1.9,1.1l3.4,3
						c1,0.9,2.6,1.8,3.9,1.4c0.4-0.1,0.8,0,1.1,0.3l2.7,2.4c0.9,0.8,2.2,1.1,3.3,0.6c2.1-0.8,5.5-1.7,7,0.1c0.5,0.6,1.1,1.1,1.9,1.2
						c1,0.2,2.4,0.2,4.2-0.5c2.8-1,3.9-1.6,6.4-0.6c1.5,0.5,3.1,0,4-1.3c1.1-1.6,3.8-3.3,6.3-2c0,0,0.3-0.8,1.8-3.3
						c0.9-1.7,2.6-2.7,4.5-2.7l1.1,0.2c2.1,0.1,4.3-0.9,4.1-3.5l0,0c-0.4-1.4,0.4-2.9,1.8-3.4l0.2-0.1c1.3-0.5,2.1-1.8,1.9-3.2
						l0-0.1c-0.3-2.2,0.4-4.3,1.9-5.9l1.3-1.4c0.5-0.6,1.1-1.2,1.5-1.9c0.9-1.5,1.5-1.4,0.4-3.9l0,0c-1.2-1.4-0.8-3.5,0.7-4.5
						l0.6-0.4c1.8-1.1,2.2-3.5,1-5.2l-0.1-0.1c-1.6-2.2-2.5-4.8-2.4-7.5l0.2-9c0-1.8-1.4-3.5-3.1-3.8c-2.4-0.4-4.1-2.6-3.9-5l0,0
						c0.1-2-1.6-3.6-3.5-3.3l-2.7-0.1l-5-6.9c0,0-2.4,0.4-3,1.2l-6.4-5.7c-1.5-1.3-3.6-1.7-5.4-0.8l-1.2,0.6
						c-2.9,1.4-6.3,1.4-9.2,0.2c-2.8-1.2-6.1-0.6-8.2,1.6l-13.3,13c-1.3,1.2-0.3,3.4,1.4,3.3l4.7-0.2l1.1,1.3l0.8-0.8
						c0.7-0.7,1.7-0.7,2.5-0.2l7.7,5.5c0,0,3.8-4.2,5.5,0c0,0,0,2-0.8,5.5c-0.7,2.7-0.3,5.6,1.1,8c0.1,0.2,0.3,0.5,0.4,0.7
						c1.8,2.9-4,8.9-5.8,8.8c-1.4-0.1-6.4,0.1-6.4,0.1l-3.3,2.3c-2.7,1.9-6.3,1.9-9.1,0.1l-5.2-3.5c0,0-3.5-3.5-7.7-4.7l-6.4-6.2
						l-1.8,6.9c0,0,13.9,17.4,27.4,21.9c0,0,4.1-7.5,7-9.4c0,0-4.7,8.7-4.7,10.5c0,0,11.9,4.4,18.1,0c0,0-2.4-7.9-0.1-16.6
						c0,0,0.4,13.5,2.6,16c0,0,7.4-2.5,14.1-14c0,0-10-10.2-13-20.4c0,0,6.5,12.1,13.8,18.4c0,0,4.6-5.5,2.2-17.4
						c0,0-9.6-3.7-14.2-10.4c0,0,9.8,7.7,13.1,7c0,0-2.1-8.6-8.2-15.6c0,0,7.6,6.6,10.6,15.4c0,0,3.2-1.4,4.1-6.8
						c0,0,0.1,6.6-2.9,9.4c0,0,2.2,10.8-1.9,18.4c0,0,4.4-0.7,8.5-4.4c0,0-2.6,4.2-9.6,7.1c0,0-5.6,10.8-16.4,15.5
						c0,0,4.8,4.8,7.9,5.6c0,0-5.1-0.8-9.2-4.6c0,0-11.2,4.1-19.5-0.6c0,0,0.6,3.9,5.1,7.5c0,0-4.9-1.6-8.9-8.5c0,0-8.5-2-27-21.4
						L-268.1,145.4z"/>
				</g>
			</g>
		</g>
	</g>
</g>
</svg>
