<?xml version="1.0" encoding="utf-8"?>
<!-- Generator: Adobe Illustrator 14.0.0, SVG Export Plug-In . SVG Version: 6.00 Build 43363)  -->
<!DOCTYPE svg PUBLIC "-//W3C//DTD SVG 1.1//EN" "http://www.w3.org/Graphics/SVG/1.1/DTD/svg11.dtd">
<svg version="1.1" id="Layer_1" xmlns="http://www.w3.org/2000/svg" xmlns:xlink="http://www.w3.org/1999/xlink" x="0px" y="0px"
	 width="68px" height="107.5px" viewBox="0 0 68 107.5" enable-background="new 0 0 68 107.5" xml:space="preserve">
<path fill="#FFFFFF" d="M10.512,80.662c0.706,0,0.938,0.621,1.142,1.297c0.197,0.645,0.479,1.275,0.732,1.908
	c0.08,0.045,0.17,0.041,0.273,0.055c0.055,0.041,0.09,0.035,0.139,0.035l2.707,0.051c0.647,0.098,0.908,0.553,0.908,0.982
	c0,1.045-2.705,2.238-2.705,2.582c0,0.123,0.836,2.705,0.836,2.828c0,0.627-0.491,0.984-0.983,0.984
	c-0.529,0-2.958-1.771-3.049-1.771c-0.093,0-2.509,1.771-3.05,1.771c-0.504,0-0.959-0.381-0.983-0.986l0.886-2.82
	c-0.483-0.379-1.039-0.883-1.661-1.252c-0.726-0.436-1.094-0.861-1.094-1.336c0-0.43,0.237-0.885,0.908-0.982l2.756-0.051
	c0.099,0,0.192-0.049,0.28-0.063c0.238-0.514,0.441-1.107,0.662-1.643C9.523,81.52,9.608,80.662,10.512,80.662z"/>
<path fill="#FFFFFF" d="M22.435,89.703c0.706,0,0.939,0.619,1.142,1.295c0.196,0.646,0.479,1.277,0.732,1.91
	c0.08,0.043,0.169,0.039,0.274,0.055c0.055,0.041,0.088,0.035,0.138,0.035l2.708,0.049c0.646,0.1,0.906,0.553,0.906,0.984
	c0,1.045-2.705,2.236-2.705,2.58c0,0.125,0.836,2.707,0.836,2.828c0,0.627-0.49,0.984-0.982,0.984c-0.529,0-2.958-1.77-3.049-1.77
	c-0.094,0-2.509,1.77-3.05,1.77c-0.505,0-0.96-0.381-0.983-0.986l0.887-2.818c-0.484-0.381-1.041-0.883-1.662-1.252
	c-0.726-0.436-1.094-0.863-1.094-1.336c0-0.432,0.236-0.885,0.907-0.984l2.757-0.049c0.099,0,0.191-0.049,0.279-0.063
	c0.238-0.514,0.441-1.109,0.662-1.645C21.446,90.561,21.53,89.703,22.435,89.703z"/>
<path fill="#FFFFFF" d="M34.173,14.865c0.717,0,5.056,2.92,5.588,3.209c3.039,1.645,6.268,3.408,9.436,4.261
	c1.689,0.449,3.604,0.593,5.414,0.753l2.984,0.122h5.594c0.662,0,1.744,0.213,1.744,1.074v11.983c0,7.37,0.092,6.979,0.016,7.564
	c-0.207,1.507-0.1,1.763-0.123,2.738c-0.031,1.035-0.053,2.081-0.137,2.926c-0.305,3.053-0.541,6.109-1.182,9.14
	c-0.479,2.26-1.088,4.715-1.789,7.066c-0.586,1.957-1.486,4.123-2.438,6.156c-1.227,2.619-3.119,5.572-5.158,8.107
	c-1.873,2.33-4.451,5.037-6.805,6.803c-1.324,0.998-2.719,2.064-4.143,3.047c-0.518,0.357-7.874,4.779-9.002,4.779
	c-0.426,0-3.348-1.512-3.881-1.793c-3.617-1.941-7.483-4.42-11.092-7.74c-2.444-2.246-4.541-4.693-6.323-7.107
	c-0.685-0.928-1.235-1.996-1.806-2.926c-2.779-4.545-4.229-9.021-5.486-13.529c-1.117-4.004-1.454-8.303-1.865-12.309l-0.365-8.042
	v-16.94c0-0.312,0.678-1.126,1.131-0.998l10.105-0.122c2.687-0.16,5.555-0.493,8.334-1.665c0.912-0.381,1.914-0.851,2.858-1.399
	c2.521-1.462,5.168-3.159,7.794-5.016C33.737,14.894,34.021,14.865,34.173,14.865z"/>
<path fill="#162577" d="M33.599,16.503c-11.677,7.949-13.846,7.949-27.949,7.949H4.57L4.56,31.494
	C4.457,54.788,4.35,78.875,33.717,93.158l0.469,0.227l0.47-0.225c29.613-14.162,29.367-38.169,29.131-61.386l-0.051-7.315
	l-1.072-0.007c-13.01,0-14.682,0-27.898-7.98l-0.594-0.358L33.599,16.503z M34.239,18.677c12.824,7.706,15.244,7.929,27.352,7.935
	c0.01,1.48,0.033,5.185,0.033,5.185c0.021,2.045,0.043,4.104,0.043,6.166c0,9.349-0.434,18.738-3.281,27.173
	C54.511,76.609,46.81,84.83,34.193,90.977c-12.517-6.199-20.179-14.469-24.078-25.998c-3.077-9.103-3.406-19.303-3.406-29.37
	c0-1.373,0.005-2.742,0.013-4.105c0,0,0.004-3.438,0.006-4.892C19.915,26.606,22.814,26.399,34.239,18.677z"/>
<path fill="#162577" d="M46.89,35.338c-0.229-0.426-0.326-1.197-0.311-2.296c0.016-0.902,0.115-1.542,0.295-1.936
	c0.264-0.508,0.607-0.722,1.066-0.623c0.197,0.033,0.377,0.115,0.541,0.279c0.148,0.147,0.295,0.344,0.395,0.59
	c0.066,0.131,0.115,0.361,0.18,0.656l1.773-0.312c-0.215-0.984-0.543-1.756-1.002-2.313c-0.459-0.574-1.082-0.968-1.902-1.164
	c-1.035-0.247-1.839,0-2.412,0.771c-0.592,0.804-0.902,2.083-0.936,3.806c-0.016,1.313,0.147,2.379,0.476,3.232
	c0.312,0.836,0.69,1.428,1.132,1.755c0.443,0.313,1.018,0.477,1.725,0.477c0.572,0,1.049-0.131,1.426-0.361
	c0.377-0.247,0.689-0.591,0.936-1.051c0.246-0.458,0.443-1.033,0.559-1.706l-1.74-0.902c-0.082,0.59-0.246,1.034-0.426,1.346
	c-0.197,0.295-0.492,0.442-0.871,0.426C47.399,35.979,47.104,35.765,46.89,35.338z M56.077,38.111h2.084l-2.313-8.351l-2.184-0.132
	l-2.525,8.467h2.035l0.311-1.41l1.148,0.016l1.133,0.032L56.077,38.111z M13.308,34.994c0.787-0.032,1.394-0.294,1.787-0.804
	c0.165-0.229,0.297-0.476,0.395-0.77c0.132-0.378,0.197-0.822,0.197-1.313c0-0.508-0.051-0.879-0.182-1.224
	c-0.082-0.246-0.196-0.442-0.345-0.607c-0.36-0.41-0.886-0.558-1.624-0.509l-0.541,0.017l-2.789,0.075v8.252h2.002v-3.084
	l0.771-0.033H13.308z M20.231,38.079h2.099l-2.331-9.166l-2.246,0.208l-2.264,8.285l-0.181,0.688h0.181h1.854l0.313-1.477
	l1.131-0.049l1.133-0.033L20.231,38.079z M28.27,36.455c0.263-0.607,0.46-1.362,0.574-2.281l-1.755-0.739
	c-0.082,0.722-0.23,1.28-0.428,1.674c-0.18,0.377-0.475,0.59-0.869,0.606c-0.394,0.033-0.689-0.164-0.902-0.591
	c-0.229-0.41-0.328-1.197-0.311-2.362c0-0.952,0.098-1.657,0.277-2.133c0.246-0.656,0.592-1.05,1.051-1.165
	c0.197-0.049,0.377-0.017,0.541,0.083c0.164,0.099,0.296,0.278,0.41,0.508c0.066,0.147,0.115,0.395,0.182,0.722l1.771-1.083
	c-0.214-1.182-0.559-2.018-1.018-2.478c-0.459-0.442-1.1-0.525-1.92-0.263c-1.033,0.329-1.837,1.034-2.428,2.084
	c-0.558,1.033-0.869,2.362-0.869,4.019c-0.017,1.23,0.147,2.248,0.476,3.019c0.311,0.804,0.705,1.362,1.147,1.69
	c0.443,0.312,1.018,0.492,1.724,0.492c0.573,0,1.05-0.148,1.411-0.442C27.712,37.504,28.023,37.062,28.27,36.455z M35.964,38.029
	l0.099-12.583l-2.019-0.164l-0.033,4.462l-2.164,0.131l0.033-4.38l-2.003,0.442l-0.065,12.107l1.986-0.016l0.016-5.07l2.166-0.082
	l-0.017,5.151H35.964z M43.478,33.714l0.1-6.414l-1.986-0.493l-0.098,6.858c0,0.623-0.099,1.116-0.295,1.428
	c-0.197,0.344-0.46,0.492-0.805,0.476c-0.361-0.033-0.623-0.23-0.82-0.607c-0.18-0.361-0.295-0.886-0.279-1.526l0.1-7.218
	l-2.002-0.509l-0.082,7.35c-0.017,0.607,0.049,1.313,0.18,2.1c0.066,0.492,0.197,0.968,0.411,1.427
	c0.196,0.459,0.442,0.804,0.688,1.051c0.246,0.262,0.559,0.409,0.936,0.492c0.361,0.082,0.705,0.131,1.018,0.131
	c0.541,0,1.018-0.131,1.395-0.378c0.277-0.163,0.541-0.475,0.804-0.901c0.246-0.428,0.442-0.903,0.558-1.478
	C43.412,34.945,43.478,34.354,43.478,33.714z M59.466,28.261l0.084,11.163H8.813L8.798,28.21c12.569,0,14.847,0.051,25.426-7.164
	C46.175,28.261,47.933,28.261,59.466,28.261z M54.634,32.091l0.066-0.247l0.641,3.069l-0.707-0.033l-0.705-0.034L54.634,32.091z
	 M12.979,31.451c0.262,0,0.459,0.082,0.559,0.23c0.146,0.163,0.195,0.394,0.195,0.655c0,0.262-0.065,0.492-0.229,0.672
	c-0.114,0.148-0.294,0.23-0.524,0.279c-0.1,0.017-0.181,0.017-0.279,0.033l-0.492,0.017v-1.854l0.574-0.033
	C12.848,31.451,12.913,31.434,12.979,31.451z M18.786,31.336l0.723,3.199l-0.723,0.066l-0.705,0.049L18.786,31.336z"/>
<path fill="#162577" d="M43.466,76.102l-0.521-0.33l-0.313-4.256l-0.255-0.412L42.1,64.566l-2.655-1.301l0.313-0.121
	c0,0,1.795,0.957,2.369,1.148c0.243-0.383,0.313-0.695,0.627-0.887c0.139-0.262-0.384-0.959-0.384-0.959l-0.958-2.299l-0.473,0.096
	l-0.346-2.898v-0.453c0.818-3.884,0.959-2.107-0.191-5.521l-3.256-0.767v-1.289l0.19-0.122c0.069,0.07,0.697,0.575,0.697,0.697
	l-0.123,0.07c0,0.261,0.507,0.504,0.646,0.696h0.436c0.191-0.191,0.383-0.382,0.453-0.435c0.191,0.191,0.191,0.122,0.191,0.244
	c0.07,0-0.262,0.383-0.191,0.383l0.452-0.052c0.122-0.14,0.505-0.575,0.122-0.905c-0.122-0.505-0.574-0.697-0.645-1.081
	l-0.505-0.452v-1.271l-0.122-0.122v-0.262L38.173,46.2c-0.263,0,0,0-0.576,0.191c0,0.07,0,0.07,0,0.07c-0.068,0-0.191,0.052-0.191,0
	c0-0.07-0.069-0.14,0-0.331c-0.069-0.191-0.451-0.505-0.574-0.628L36.5,45.747c-0.052-0.122-0.191-0.244-0.243-0.122l-0.262,0.314
	c-0.191,0-0.191-0.575-0.191-0.697c0-0.07-0.123-0.07-0.123-0.07v0.331l-0.33,0.628h-0.053c-0.574-0.505-0.695-0.819-1.41-0.767
	l-0.435,0.383l-0.122-0.122c-0.191,0.505-0.627,0.505-0.384,0.888c0,0.191,0,0.382-0.122,0.522c-0.191,0.053-0.121,0-0.26-0.14
	c-0.054,0.14-0.123,0.192-0.315,0.332c0-0.07-0.069-0.139-0.122-0.139l-0.383,0.191c0,0,0,0-0.068,0
	c-0.192,0.14-0.314,0.193-0.453,0.314l-0.053,0.574c-0.331,0-0.191,0-0.191,0.07c0,0.191-0.262,0.069-0.262,0.069
	s-0.069-0.261-0.191-0.069c0,0.191,0,0.453,0.191,0.453c0.383,0.191,0.575,0.313,0.645,0.505c0,0.122-0.069,0.575-0.069,0.888
	l-0.575,0.383c0,0.139-0.121,0.139-0.121,0.139c0,0.123,0.243,0.314,0.243,0.314c0,0.122,0,0.122-0.122,0.192
	c-0.121,0-0.191-0.07-0.261-0.07c-0.052,0-0.191,0.07-0.191,0.191c0,0.192,0,0.505,0,0.888c0-0.383-0.052,0.437-0.175,0.437
	l-0.452,0.26l0.122,0.888l0.14,0.192c0.19,0.121,0.052,0.574,0.052,0.574L29.3,61.189l-0.619,0.039c0,0,0,0-0.123,0
	c0.123,0.193,0.123,0.453,0.123,0.576c-0.07,0-0.191,0-0.191,0.068l-0.191,0.123c0,0.139,0,0.139-0.123,0.139l-0.139,0.557
	l-0.383,0.262v0.574l0.846,0.684l-0.201,3.531l-0.123,0.123l-0.139,2.994l-0.383,0.383l-0.053,0.959v0.068l-0.139,1.969
	l-0.122,1.289l-0.452,0.436v1.41l9.878,0.584l6.698-0.656L43.466,76.102z M42.456,72.846l-0.053,0.209l-2.524-0.262l0.036,0.766
	h-0.523l0.139-1.01L42.456,72.846z M41.951,71.592l-3.691-0.244l0.138-0.68l0.959,0.123l0.818,0.191l0.053,0.295l1.898,0.053
	L41.951,71.592z M40.942,68.51l0.416,0.678l0.401,0.141l0.035,0.834l-0.558-0.051l-0.504-0.07L40.942,68.51z M41.115,70.477
	l-1.706-0.07l-1.499-0.104l0.419-0.609l0.836,0.469l0.992-0.016L41.115,70.477z M37.808,68.926l-0.002-4.094l0.596-1.357
	l0.204,0.604l0.004,5.127L37.808,68.926z M39.856,69.881l-1.066-0.037v-1.162l1.066,0.189V69.881z M39.548,64.537l0.314,0.697
	l-0.006,3.24l-1.066-0.195v-3.488l0.393-0.148L39.548,64.537z M39.374,58.355c0.086,0.105,0.209,0.191,0.297,0.262l-0.471,0.4
	l-0.244-0.367L39.374,58.355z M40.019,60.828l-1.08,0.018l-0.836-0.018l1.027-0.627C39.217,60.289,39.915,60.74,40.019,60.828z
	 M38.05,56.458l0.088-2.039l0.4,0.21l0.035,1.933l0.017,1.862c-0.156,0.141-0.365,0.176-0.575,0.07
	C37.998,57.641,38.067,57.641,38.05,56.458z M37.876,59.818c0.088,0.088,0.191,0.174,0.297,0.262l-0.488,0.383l-0.227-0.348
	L37.876,59.818z M37.249,61.07l3.588-0.086c0.088,0.105-0.279,0.367-0.174,0.453l-3.919,0.297L37.249,61.07z M29.412,63.633
	l-0.609-0.279l5.485-0.715l0.175-0.016l-0.035,0.209l-0.226,0.189L29.412,63.633z M29.534,63.98l-0.4,0.088
	c0,0-0.175,0.139-0.244,0.277c-0.035,0-0.248-0.121-0.23-0.207c0.017-0.018,0.438-0.398,0.438-0.398L29.534,63.98z M30.928,61.229
	l0.673-0.494l0.938,0.219l-0.914,0.902L30.928,61.229z M33.453,68.23l0.087-3.5l0.521-0.402l0.209-0.418l0.418,0.158l-0.002,3.949
	L33.453,68.23z M34.687,68.367v1.299l-1.408,0.098l0.088-1.15L34.687,68.367z M33.593,63.859c0.035-0.053,0.365-0.697,0.469-0.664
	l0.105,0.193L33.8,63.998L33.593,63.859z M33.226,69.102l-0.017,0.504l-0.401-0.156l-0.418,0.506l-1.707-0.018v-0.75L33.226,69.102z
	 M30.509,64.66l-0.018,1.393l-0.313,0.105l0.053-1.377h0.069l0.139-0.209L30.509,64.66z M30.144,67.01l0.209-0.469l0.104,0.209
	l-0.034,3.291l-0.471,0.209l0.104-3.203L30.144,67.01z M30.579,70.285l2.143-0.227l1.984-0.174l-0.383,0.33l-1.566,0.156
	l-3.102,0.279L30.579,70.285z M34.968,69.988l0.818,0.07l1.672,0.104l-0.627,0.279l-1.098,0.088l-1.306-0.176L34.968,69.988z
	 M34.881,53.296l0.522,0.219v3.784c-0.141,0.158-0.297,0.188-0.522,0.084C34.881,57.359,34.881,53.296,34.881,53.296z
	 M34.884,57.602l0.52,0.16v2.631l-0.522,0.311L34.884,57.602z M35.909,60.533c0.086,0.086,0.854,0.469,0.957,0.557l-0.992,0.539
	l-0.697-0.609L35.909,60.533z M35.403,69.814l-0.521-0.148l-0.001-5.633l0.296,0.104l0.227-0.418V69.814z M35.714,69.844
	l0.002-5.428l0.819-0.209l0.569-1.672l0.406,0.66l0.001,6.668L35.714,69.844z M36.063,50.031l0.873-0.417l-0.004,1.003l-0.973,0.303
	L36.063,50.031z M30.597,51.232c0.052,0.122,0.07,0.105,0.227,0.035l0.208,0.086l0.662-0.574l0.14,0.086l0.574-0.436
	c0.07-0.069-0.383-0.539-0.418-0.574l0.244-0.157l0.348,0.262l0.244,0.174l0.609-0.437c-0.033-0.104-0.539-0.47-0.644-0.591
	c0.156-0.21,0.278-0.21,0.435-0.366v0.018l0.383,0.47l-0.016,0.209l0.557,0.54l0.348-0.017l0.088,0.104
	c-0.053,0.278,0.713,0.244,0.992,0.139c0.123,0,0.244,0,0.332,0.035c-0.071,0.819-1.168,0.453-1.168,1.185
	c-0.156,0.017-0.731-0.402-0.609-0.663l0.227-0.279c0-0.052-0.836-0.54-0.73-0.47c-0.697-0.157-1.656,1.167-2.213,1.671l0.139,0.14
	c0,0-0.156,0.191-0.174,0.209l-0.94,0.053c0,0-0.052-0.714-0.052-0.749C30.423,51.268,30.491,51.215,30.597,51.232z M33.278,51.808
	l-0.244-0.123l0.244-0.348l0.262-0.018C33.487,51.441,33.331,51.685,33.278,51.808z M33.366,52.452
	c-0.035,0.105-0.211,0.383-0.262,0.505l-0.262-0.122l0.262-0.366L33.366,52.452z M33.575,51.808l0.033-0.105l0.158-0.104h0.017
	c0.053,0,0.087,0.018,0.122,0.053L33.8,51.772c-0.017,0-0.033,0-0.051,0.018c-0.018,0.018-0.035,0.052-0.035,0.07
	c-0.105,0.052-0.121,0.123-0.191,0.208c-0.053-0.017-0.069-0.069-0.088-0.121C33.435,51.876,33.522,51.86,33.575,51.808z
	 M32.738,52.156l-0.173,0.209l-0.279-0.349l0.069-0.278C32.442,51.825,32.651,52.068,32.738,52.156z M31.031,52.783
	c0.087,0.086,0.157,1.028,0.243,1.114l-0.73,0.052l-0.191-0.662L31.031,52.783z M30.188,54.386l1.14,0.469l-0.365,4.858
	l-1.324,0.488L30.188,54.386z M29.626,60.479l1.496-0.607l0.342-4.98c0,0,0.143-0.123,0.09-0.244
	c0.244-0.297,0.436-0.522,0.715-0.784c-0.174-0.139-0.401-0.296-0.592-0.383c0.068-0.175-0.053-0.697,0.173-0.75l1.167,1.045
	c0.139-0.018,0.035-0.191,0.018-0.227l-0.679-0.505l0.07-0.034c0.104,0.018,0.25,0.155,0.478,0.23
	c0.355,0.118,0.842-0.112,0.968-0.245c0.038-0.044,1.034-0.967,1.114-1.031c0.365,0.157,0.139,0.418,0.348,0.575
	c0.244-0.104,0.297-0.174,0.488-0.279c0.558,0.087,0.558,0.209,1.027-0.052l0.191,0.086c0,0.105,0.053,7.629,0.053,7.629
	l-0.297,0.174c-0.052,0.104-0.174,0.191-0.313,0.209c-0.07,0-0.104-0.07-0.14-0.053c-0.069-0.018-0.069,0.053-0.122,0.086
	l-0.498-0.27v-7.039l-0.407-0.423l-0.645,0.366l-0.069,1.985c-0.209-0.087-0.297-0.297-0.436-0.453
	c-0.175-0.157,0.035-0.436-0.105-0.592l-0.243-0.227c0.069-0.191,0.226-0.227,0.296-0.417c0.121-0.035,0.191-0.228,0.053-0.262
	c-0.141,0.034-0.209,0.227-0.331,0.313c-0.069,0.122-0.14,0.174-0.208,0.261l0.086,0.297l0.227,0.174l-0.035,0.296l-0.297,0.087
	l-0.068-0.104l-0.539,0.453c-0.018-0.018-0.244-0.192-0.279-0.175c-0.07,0.088-0.697,0.609-0.819,0.871
	c0,0.052,0.069,0.052,0.104,0.104c0.104,0,0.54-0.47,0.594-0.574l0.156,0.14c-0.35,0.365-0.594,0.8-0.941,1.166L31.71,58.25
	l-0.052,0.785c0.052,0.033,0.14,0.07,0.209,0.051c0.104-0.277,0.07-0.643,0.087-0.975c0.07-0.523,0.123-1.08,0.123-1.602l0.8-0.957
	l0.07,0.104c0,0.036-0.313,0.662-0.347,0.68v2.02l-0.02,0.73l0.035,0.123c0.141,0,0.559,0,0.732,0.121l-0.07,0.35
	c-0.018,0.033-0.035,0.051-0.053,0.104h-0.818c-0.018,0.018-0.018,0.035-0.018,0.053c0,0.053,0.053,0.104,0.122,0.139
	c0.089-0.068,0.227-0.068,0.313,0l0.14-0.051l0.21,0.068l-0.02,0.123l-0.158,0.422c0,0-0.98-0.283-1.182-0.35
	s-0.29-0.064-0.421,0.029c-0.118,0.092-1.784,1.328-1.888,1.418L29.626,60.479z M34.254,60.184l-0.087-0.086l-0.313-0.141
	l0.069-0.121c0-0.035-0.035-0.053-0.069-0.07l-0.122,0.035c-0.018,0.018-0.018,0.07-0.018,0.105
	c-0.018-0.035-0.018-0.07-0.069-0.088c0.017,0,0.069-0.018,0.069-0.07c0.018-0.035-0.018-0.068-0.053-0.104
	c-0.017,0-0.033,0-0.053,0l-0.033-0.279c0.033-0.035,0.121,0,0.156-0.053c0.035,0.018,0.035,0.035,0.068,0.053
	c0.088-0.053,0.422-0.25,0.422-0.25l-0.002-3.214l-0.437-0.523l-0.069-0.209l0.574,0.227l-0.783-0.522
	c-0.104,0.035-0.33,0.313-0.296,0.296l-0.192-0.069l0.453-0.523l0.784,0.383l0.174,0.209c0.018,0,0.035,0.035,0.052,0.07
	l0.105,1.654l-0.018,3.378L34.254,60.184z M34.567,60.514l-0.035,0.455l-1.463-0.4l0.453-0.611
	C33.608,60.063,34.463,60.445,34.567,60.514z M33.175,57.588v1.15c0,0-0.262,0.156-0.314,0.139l-0.122-2.315
	C32.931,56.962,33.001,57.172,33.175,57.588z M27.88,63.041l3.727-2.752l3.605,1.045l-0.54,0.033l-3.1-0.766l-3.71,2.734
	L27.88,63.041z M27.914,63.527l0.644-0.131l0.387,0.25l-0.42,0.369L27.914,63.527z M28.681,64.766l0.313-0.055l0.661-0.613
	l0.314,0.301l-0.123,3.953l-1.398,0.234L28.681,64.766z M28.397,68.916l1.438-0.229l-0.127,1.318l-1.375,0.078L28.397,68.916z
	 M28.296,70.934l0.037-0.527l1.288-0.121l-0.278,0.592l-0.227,0.365l-1.15-0.016L28.296,70.934z M29.36,76.049
	c0,0.088,0.018,0.035,0.018,0.158l-1.08,0.033l-1.063-0.104L27.2,75.98L29.36,76.049z M27.045,77.17v-0.369l2.472,0.113
	l-0.004,0.375L27.045,77.17z M29.639,75.754l-1.673-0.4l1.673,0.068C29.639,75.527,29.639,75.613,29.639,75.754z M29.587,74.865
	l-1.848,0.018l0.262-1.133l0.141-1.254l1.41,0.053l0.174,1.219L29.587,74.865z M30.126,72.514l0.018-0.627l0.539,0.141l1.795-0.105
	l0.139,0.297l-0.33,0.209L30.126,72.514z M34.445,73.803L34.288,74.9l-1.984,0.088l0.104-1.516l0.453-0.941l1.619,0.139
	L34.445,73.803z M35.399,77.252l-0.525,0.068l0.01-5.252l0.516,0.127V77.252z M37.354,77.355h-1.55
	c-0.07-0.053,0.088-0.053,0.227-0.068h0.157h1.427C37.563,77.303,37.511,77.338,37.354,77.355z M35.665,74.918l0.209-1.445
	l0.486-0.141l-0.139-1.08l1.324,0.279l0.068,1.219l0.088,1.254L35.665,74.918z M33.052,71.277l-3.588,0.088l1.393-0.609l2.404-0.105
	l4.546,0.105l0.14,0.592L33.052,71.277z M38.817,73.855l-0.088,1.148l-0.696,0.035L38.19,74.1l0.139-0.627l0.14-0.889l0.4,0.016
	L38.817,73.855z M39.983,75.824c-0.018,0.051-0.068,0.051-0.087,0.104l-0.226,0.088c-0.018,0-0.053,0-0.07,0
	c-0.035,0-0.053-0.02-0.07-0.053l-0.227-0.156l-0.087-0.105c0.018,0,0.036,0,0.053-0.018c0.034,0.018,0.069,0.018,0.087,0
	l0.104,0.018c0.018-0.035,0.088,0,0.141,0c0.018-0.035,0.07,0,0.121,0c0.035-0.035,0.087,0,0.141,0c0-0.018,0.017-0.018,0.053-0.018
	l0.068,0.07C39.983,75.754,39.983,75.807,39.983,75.824z M43.118,77.146l-2.857,0.242l-0.104-0.678l0.992-0.033l1.186,0.068
	l0.836,0.018L43.118,77.146z"/>
<path fill="#162577" d="M15.167,52.782l-0.027-0.615c0.317-0.249,0.545-0.519,0.684-0.809c0.14-0.291,0.201-0.619,0.186-0.986
	c-0.025-0.58-0.262-1.065-0.707-1.456c-0.447-0.389-0.973-0.571-1.579-0.544c-0.61,0.026-1.122,0.254-1.532,0.684
	c-0.411,0.43-0.604,0.933-0.578,1.508c0.016,0.36,0.104,0.679,0.266,0.958c0.162,0.279,0.398,0.52,0.709,0.722l0.025,0.604
	c-0.461-0.222-0.818-0.526-1.074-0.913c-0.256-0.387-0.395-0.838-0.416-1.353c-0.032-0.742,0.202-1.377,0.703-1.905
	s1.137-0.809,1.908-0.842c0.363-0.016,0.71,0.038,1.041,0.161c0.33,0.123,0.633,0.312,0.905,0.563
	c0.26,0.238,0.46,0.507,0.599,0.807c0.139,0.299,0.216,0.627,0.231,0.982c0.022,0.515-0.083,0.983-0.315,1.405
	C15.962,52.174,15.618,52.517,15.167,52.782z"/>
<path fill="#162577" d="M16.643,53.72l0.062,0.51l-4.65,0.569l0.221,1.811l-0.498,0.061l-0.283-2.32L16.643,53.72z"/>
<path fill="#162577" d="M17.061,56.979l0.106,0.501l-3.056,0.645c-0.329,0.07-0.563,0.135-0.704,0.193
	c-0.141,0.061-0.259,0.137-0.352,0.223c-0.144,0.141-0.242,0.299-0.297,0.48s-0.061,0.369-0.018,0.568
	c0.041,0.199,0.125,0.373,0.249,0.518c0.124,0.146,0.278,0.252,0.462,0.318c0.124,0.043,0.262,0.063,0.414,0.061
	s0.393-0.039,0.721-0.107l3.055-0.645l0.104,0.49l-3.229,0.682c-0.658,0.139-1.178,0.111-1.557-0.082s-0.623-0.559-0.737-1.094
	c-0.12-0.566-0.05-1.018,0.21-1.354c0.261-0.336,0.726-0.574,1.398-0.717L17.061,56.979z"/>
<path fill="#162577" d="M15.864,63.428c0.131,0.391,0.149,0.709,0.059,0.955c-0.09,0.248-0.291,0.424-0.604,0.527
	c-0.314,0.104-0.578,0.088-0.793-0.053s-0.389-0.408-0.521-0.803l-0.229-0.686l1.86-0.621L15.864,63.428z M17.93,62.521
	c0.122,0.365,0.146,0.662,0.07,0.889c-0.075,0.229-0.249,0.389-0.521,0.479c-0.305,0.102-0.553,0.08-0.748-0.066
	c-0.195-0.145-0.371-0.455-0.529-0.932l-0.1-0.299l1.666-0.555L17.93,62.521z M13.157,63.059l0.365,1.094
	c0.188,0.564,0.457,0.949,0.807,1.15c0.351,0.201,0.773,0.221,1.268,0.055c0.277-0.092,0.495-0.238,0.654-0.441
	c0.158-0.203,0.238-0.432,0.237-0.689c0.153,0.127,0.323,0.205,0.511,0.236c0.188,0.029,0.387,0.01,0.598-0.059
	c0.408-0.139,0.687-0.379,0.838-0.725c0.15-0.346,0.148-0.75-0.005-1.209l-0.352-1.053L13.157,63.059z"/>
<path fill="#162577" d="M20.551,68.541c0.313,0.541,0.401,1.063,0.261,1.563c-0.143,0.5-0.487,0.91-1.038,1.23
	c-0.56,0.326-1.095,0.434-1.604,0.326c-0.511-0.107-0.913-0.414-1.207-0.918l-0.602-1.039l3.637-2.113L20.551,68.541z
	 M15.685,69.518l0.679,1.168c0.235,0.404,0.444,0.695,0.626,0.875c0.182,0.178,0.397,0.32,0.648,0.432
	c0.387,0.166,0.781,0.236,1.189,0.205c0.405-0.031,0.806-0.162,1.2-0.391c0.659-0.385,1.075-0.902,1.25-1.559
	c0.175-0.654,0.066-1.316-0.323-1.988l-0.785-1.35L15.685,69.518z"/>
<path fill="#162577" d="M22.806,71.188l1.686,2.107l-0.383,0.307l-1.365-1.705l-1.442,1.152l1.36,1.701l-0.383,0.307l-1.359-1.701
	l-1.461,1.17l1.361,1.699l-0.383,0.307l-1.682-2.102L22.806,71.188z"/>
<path fill="#162577" d="M52.021,50.301l0.016-0.512l4.684,0.136l0.053-1.823l0.502,0.015l-0.068,2.337L52.021,50.301z"/>
<path fill="#162577" d="M52.892,52.975c0.471-0.369,0.998-0.52,1.584-0.453c0.625,0.069,1.129,0.331,1.514,0.783
	c0.383,0.452,0.541,0.97,0.475,1.556c-0.066,0.596-0.334,1.075-0.801,1.438s-1.008,0.511-1.619,0.441
	c-0.605-0.066-1.098-0.328-1.48-0.785c-0.383-0.455-0.541-0.972-0.477-1.55C52.153,53.82,52.421,53.343,52.892,52.975z
	 M51.679,55.358c0.092,0.321,0.246,0.618,0.463,0.891c0.232,0.294,0.5,0.527,0.809,0.701c0.307,0.173,0.641,0.281,1.002,0.32
	c0.768,0.086,1.439-0.092,2.016-0.537c0.578-0.445,0.908-1.038,0.99-1.779c0.045-0.388,0.012-0.754-0.098-1.102
	s-0.293-0.668-0.551-0.963c-0.225-0.255-0.484-0.456-0.777-0.604c-0.291-0.147-0.621-0.242-0.986-0.283
	c-0.369-0.042-0.723-0.013-1.061,0.085c-0.336,0.099-0.643,0.263-0.924,0.492c-0.279,0.227-0.498,0.487-0.658,0.781
	c-0.162,0.295-0.262,0.623-0.303,0.984C51.56,54.701,51.587,55.04,51.679,55.358z"/>
<path fill="#162577" d="M53.421,60.463c0.094-0.398,0.246-0.68,0.453-0.844c0.205-0.162,0.469-0.205,0.789-0.129
	c0.322,0.074,0.537,0.229,0.646,0.461c0.111,0.232,0.117,0.551,0.021,0.955l-0.166,0.705l-1.908-0.449L53.421,60.463z M51.187,60.15
	c0.088-0.373,0.225-0.639,0.408-0.793c0.184-0.156,0.416-0.199,0.693-0.133c0.313,0.072,0.514,0.223,0.602,0.447
	c0.09,0.227,0.076,0.584-0.039,1.072l-0.07,0.305l-1.711-0.402L51.187,60.15z M55.53,62.201l0.264-1.123
	c0.137-0.58,0.109-1.047-0.082-1.402c-0.191-0.357-0.541-0.594-1.049-0.713c-0.285-0.068-0.547-0.057-0.789,0.031
	c-0.242,0.09-0.43,0.244-0.564,0.463c-0.063-0.189-0.166-0.346-0.311-0.469c-0.145-0.125-0.324-0.213-0.539-0.264
	c-0.42-0.1-0.783-0.041-1.094,0.176c-0.311,0.215-0.52,0.559-0.631,1.031l-0.256,1.08L55.53,62.201z"/>
<path fill="#162577" d="M49.306,64.568l0.859-2.467l0.484,0.17l-0.346,0.99l4.414,1.539l-0.168,0.484l-4.416-1.539l-0.344,0.99
	L49.306,64.568z"/>
<path fill="#162577" d="M47.401,68.604l0.229-0.459l2.793,1.396c0.301,0.15,0.523,0.246,0.672,0.287s0.287,0.055,0.414,0.045
	c0.199-0.021,0.375-0.086,0.531-0.193c0.154-0.107,0.275-0.252,0.367-0.432c0.092-0.184,0.135-0.371,0.127-0.563
	c-0.006-0.191-0.061-0.369-0.164-0.535c-0.07-0.111-0.164-0.213-0.285-0.305c-0.121-0.094-0.332-0.215-0.633-0.365l-2.793-1.396
	l0.225-0.447l2.953,1.475c0.602,0.303,0.99,0.645,1.166,1.033c0.176,0.387,0.143,0.824-0.102,1.314
	c-0.26,0.52-0.596,0.828-1.008,0.93s-0.926-0.002-1.539-0.309L47.401,68.604z"/>
<path fill="#162577" d="M45.229,71.857l1.464-2.107l0.422,0.293l-1.178,1.695l1.49,1.033l1.176-1.695l0.422,0.293l-1.178,1.695
	l1.93,1.34l-0.285,0.412L45.229,71.857z"/>
<path fill="#FFFFFF" d="M34.109,2.468c0.706,0,0.938,0.62,1.142,1.296c0.197,0.646,0.479,1.277,0.733,1.909
	c0.079,0.044,0.169,0.041,0.273,0.055c0.054,0.04,0.089,0.035,0.138,0.035l2.707,0.049c0.647,0.099,0.908,0.554,0.908,0.983
	c0,1.046-2.705,2.238-2.705,2.582c0,0.123,0.836,2.705,0.836,2.828c0,0.627-0.491,0.983-0.983,0.983c-0.529,0-2.957-1.77-3.049-1.77
	c-0.093,0-2.509,1.77-3.05,1.77c-0.504,0-0.959-0.38-0.983-0.986l0.887-2.818c-0.484-0.381-1.04-0.883-1.662-1.252
	c-0.726-0.437-1.094-0.863-1.094-1.337c0-0.43,0.237-0.885,0.908-0.983l2.756-0.049c0.099,0,0.192-0.048,0.28-0.063
	c0.238-0.513,0.441-1.109,0.662-1.643C33.121,3.325,33.206,2.468,34.109,2.468z"/>
<polygon fill="#162577" points="34.109,3.45 35.351,6.713 39.034,6.803 36.1,8.899 37.163,12.207 34.109,10.245 31.071,12.207 
	32.118,8.899 29.185,6.803 32.882,6.713 "/>
<path fill="#FFFFFF" d="M46.981,7.056c0.707,0,0.939,0.62,1.143,1.296c0.195,0.646,0.479,1.276,0.732,1.909
	c0.078,0.044,0.168,0.041,0.273,0.055c0.055,0.04,0.088,0.035,0.139,0.035l2.707,0.049c0.646,0.099,0.908,0.554,0.908,0.984
	c0,1.045-2.707,2.237-2.707,2.582c0,0.123,0.836,2.705,0.836,2.828c0,0.627-0.49,0.984-0.982,0.984
	c-0.529,0-2.957-1.771-3.049-1.771s-2.51,1.771-3.05,1.771c-0.505,0-0.959-0.38-0.983-0.986l0.886-2.818
	c-0.483-0.382-1.04-0.884-1.661-1.252c-0.725-0.437-1.094-0.864-1.094-1.337c0-0.43,0.236-0.885,0.908-0.984l2.756-0.049
	c0.098,0,0.191-0.049,0.279-0.063c0.239-0.513,0.441-1.109,0.664-1.643C45.993,7.913,46.077,7.056,46.981,7.056z"/>
<polygon fill="#162577" points="46.981,8.038 48.224,11.301 51.905,11.392 48.972,13.487 50.034,16.794 46.981,14.833 
	43.942,16.794 44.99,13.487 42.057,11.392 45.755,11.301 "/>
<path fill="#FFFFFF" d="M59.04,10.588c0.707,0,0.941,0.62,1.143,1.296c0.197,0.645,0.479,1.276,0.732,1.909
	c0.08,0.044,0.17,0.041,0.273,0.055c0.055,0.04,0.09,0.035,0.141,0.035l2.705,0.049c0.646,0.099,0.908,0.554,0.908,0.984
	c0,1.045-2.705,2.238-2.705,2.582c0,0.123,0.836,2.705,0.836,2.828c0,0.627-0.49,0.984-0.982,0.984
	c-0.529,0-2.959-1.771-3.051-1.771c-0.09,0-2.508,1.771-3.049,1.771c-0.504,0-0.959-0.38-0.982-0.987l0.885-2.818
	c-0.484-0.382-1.039-0.883-1.66-1.252c-0.727-0.437-1.096-0.864-1.096-1.337c0-0.43,0.238-0.885,0.91-0.984l2.756-0.049
	c0.098,0,0.191-0.049,0.279-0.063c0.238-0.514,0.441-1.109,0.662-1.643C58.052,11.446,58.138,10.588,59.04,10.588z"/>
<polygon fill="#162577" points="59.042,11.571 60.282,14.834 63.966,14.924 61.03,17.019 62.095,20.327 59.042,18.366 
	56.003,20.327 57.05,17.019 54.116,14.924 57.813,14.834 "/>
<path fill="#FFFFFF" d="M9.34,10.588c0.707,0,0.938,0.62,1.142,1.296c0.197,0.645,0.479,1.276,0.733,1.909
	c0.079,0.044,0.169,0.041,0.272,0.055c0.056,0.04,0.09,0.035,0.139,0.035l2.707,0.049c0.648,0.099,0.908,0.554,0.908,0.984
	c0,1.045-2.705,2.238-2.705,2.582c0,0.123,0.836,2.705,0.836,2.828c0,0.627-0.491,0.984-0.983,0.984
	c-0.528,0-2.957-1.771-3.049-1.771c-0.093,0-2.509,1.771-3.05,1.771c-0.504,0-0.959-0.38-0.983-0.987l0.886-2.818
	c-0.482-0.382-1.04-0.883-1.66-1.252c-0.726-0.437-1.094-0.864-1.094-1.337c0-0.43,0.236-0.885,0.908-0.984l2.755-0.049
	c0.099,0,0.192-0.049,0.28-0.063c0.238-0.514,0.441-1.109,0.662-1.643C8.352,11.446,8.437,10.588,9.34,10.588z"/>
<polygon fill="#162577" points="9.341,11.571 10.581,14.834 14.264,14.924 11.33,17.019 12.394,20.327 9.341,18.366 6.302,20.327 
	7.349,17.019 4.416,14.924 8.113,14.834 "/>
<path fill="#FFFFFF" d="M20.912,7.117c0.707,0,0.939,0.62,1.142,1.295c0.197,0.646,0.479,1.277,0.733,1.909
	c0.079,0.044,0.169,0.041,0.273,0.055c0.055,0.04,0.089,0.035,0.138,0.035l2.708,0.049c0.646,0.099,0.907,0.554,0.907,0.984
	c0,1.045-2.705,2.238-2.705,2.582c0,0.123,0.836,2.705,0.836,2.828c0,0.627-0.49,0.984-0.982,0.984c-0.529,0-2.958-1.771-3.05-1.771
	c-0.093,0-2.509,1.771-3.05,1.771c-0.504,0-0.959-0.38-0.982-0.987l0.886-2.818c-0.483-0.381-1.04-0.884-1.661-1.252
	c-0.726-0.437-1.095-0.863-1.095-1.336c0-0.43,0.237-0.885,0.908-0.984l2.757-0.049c0.098,0,0.191-0.049,0.279-0.063
	c0.238-0.514,0.441-1.109,0.662-1.644C19.925,7.974,20.009,7.117,20.912,7.117z"/>
<polygon fill="#162577" points="20.912,8.099 22.153,11.362 25.837,11.453 22.902,13.548 23.966,16.855 20.912,14.895 
	17.874,16.855 18.921,13.548 15.987,11.453 19.686,11.362 "/>
<path fill="#162577" d="M8.8,44.128c0.465,20.569,5.197,34.569,25.41,44.347c20.287-9.621,24.98-23.656,25.35-44.347H8.8z
	 M34.208,87.979C14.448,78.42,9.823,64.732,9.368,44.625h49.625C58.628,64.854,54.042,78.572,34.208,87.979z"/>
<rect x="8.715" y="40.433" fill="#12692C" width="18.354" height="2.761"/>
<rect x="41.118" y="40.433" fill="#D8141D" width="18.354" height="2.761"/>
<polygon fill="#AB830D" points="22.373,90.623 23.614,93.887 27.298,93.977 24.363,96.072 25.427,99.381 22.373,97.42 
	19.335,99.381 20.382,96.072 17.449,93.977 21.146,93.887 "/>
<polygon fill="#AB830D" points="10.512,81.584 11.753,84.848 15.436,84.938 12.502,87.033 13.565,90.34 10.512,88.379 7.474,90.34 
	8.521,87.033 5.587,84.938 9.284,84.848 "/>
<path fill="#FFFFFF" d="M58.182,80.662c-0.706,0-0.938,0.621-1.142,1.297c-0.197,0.645-0.479,1.275-0.732,1.908
	c-0.08,0.045-0.17,0.041-0.273,0.055c-0.055,0.041-0.09,0.035-0.139,0.035l-2.707,0.051c-0.647,0.098-0.908,0.553-0.908,0.982
	c0,1.045,2.705,2.238,2.705,2.582c0,0.123-0.836,2.705-0.836,2.828c0,0.627,0.491,0.984,0.983,0.984
	c0.529,0,2.958-1.771,3.049-1.771c0.093,0,2.509,1.771,3.05,1.771c0.504,0,0.959-0.381,0.983-0.986l-0.886-2.82
	c0.483-0.379,1.039-0.883,1.661-1.252c0.726-0.436,1.094-0.861,1.094-1.336c0-0.43-0.237-0.885-0.908-0.982l-2.756-0.051
	c-0.099,0-0.192-0.049-0.28-0.063c-0.238-0.514-0.441-1.107-0.662-1.643C59.17,81.52,59.085,80.662,58.182,80.662z"/>
<path fill="#FFFFFF" d="M46.259,89.703c-0.706,0-0.939,0.619-1.142,1.295c-0.196,0.646-0.479,1.277-0.732,1.91
	c-0.08,0.043-0.169,0.039-0.274,0.055c-0.055,0.041-0.088,0.035-0.138,0.035l-2.708,0.049c-0.646,0.1-0.906,0.553-0.906,0.984
	c0,1.045,2.705,2.236,2.705,2.58c0,0.125-0.836,2.707-0.836,2.828c0,0.627,0.49,0.984,0.982,0.984c0.529,0,2.958-1.77,3.049-1.77
	c0.094,0,2.509,1.77,3.05,1.77c0.505,0,0.96-0.381,0.983-0.986l-0.887-2.818c0.484-0.381,1.041-0.883,1.662-1.252
	c0.726-0.436,1.094-0.863,1.094-1.336c0-0.432-0.236-0.885-0.907-0.984l-2.757-0.049c-0.099,0-0.191-0.049-0.279-0.063
	c-0.238-0.514-0.441-1.109-0.662-1.645C47.247,90.561,47.163,89.703,46.259,89.703z"/>
<polygon fill="#AB830D" points="46.32,90.623 45.079,93.887 41.396,93.977 44.33,96.072 43.267,99.381 46.32,97.42 49.358,99.381 
	48.312,96.072 51.244,93.977 47.548,93.887 "/>
<polygon fill="#AB830D" points="58.182,81.584 56.94,84.848 53.258,84.938 56.191,87.033 55.128,90.34 58.182,88.379 61.22,90.34 
	60.173,87.033 63.106,84.938 59.409,84.848 "/>
<path fill="#FFFFFF" d="M34.084,94.594c-0.706,0-0.938,0.621-1.142,1.297c-0.197,0.645-0.479,1.275-0.732,1.908
	c-0.08,0.045-0.17,0.041-0.273,0.055c-0.055,0.041-0.09,0.035-0.139,0.035l-2.707,0.051c-0.647,0.098-0.908,0.553-0.908,0.982
	c0,1.045,2.705,2.238,2.705,2.582c0,0.123-0.836,2.705-0.836,2.828c0,0.627,0.491,0.984,0.983,0.984
	c0.529,0,2.958-1.771,3.049-1.771c0.093,0,2.509,1.771,3.05,1.771c0.504,0,0.959-0.381,0.983-0.986l-0.886-2.82
	c0.483-0.379,1.039-0.883,1.661-1.252c0.726-0.436,1.094-0.861,1.094-1.336c0-0.43-0.237-0.885-0.908-0.982l-2.756-0.051
	c-0.099,0-0.192-0.049-0.28-0.063c-0.238-0.514-0.441-1.107-0.662-1.643C35.072,95.451,34.987,94.594,34.084,94.594z"/>
<polygon fill="#AB830D" points="34.084,95.516 32.843,98.779 29.16,98.869 32.094,100.965 31.03,104.271 34.084,102.311 
	37.122,104.271 36.075,100.965 39.009,98.869 35.312,98.779 "/>
</svg>
