<?xml version="1.0" encoding="UTF-8" standalone="no"?>
<!-- Generator: Adobe InDesign 3.0 SVG Export Plug-in, SVG Library version: 6.0 build 78 -->
<svg
   xmlns:dc="http://purl.org/dc/elements/1.1/"
   xmlns:cc="http://web.resource.org/cc/"
   xmlns:rdf="http://www.w3.org/1999/02/22-rdf-syntax-ns#"
   xmlns:svg="http://www.w3.org/2000/svg"
   xmlns="http://www.w3.org/2000/svg"
   xmlns:sodipodi="http://sodipodi.sourceforge.net/DTD/sodipodi-0.dtd"
   xmlns:inkscape="http://www.inkscape.org/namespaces/inkscape"
   width="200"
   height="85"
   xml:space="preserve"
   id="svg2"
   sodipodi:version="0.32"
   inkscape:version="0.45.1"
   sodipodi:docname="tsc.svg"
   inkscape:output_extension="org.inkscape.output.svg.inkscape"
   sodipodi:docbase="D:\Inline\_INFO\_WIKI\wikipedia\Logo\Mannschaftsverfolgung"
   version="1.0"><metadata
   id="metadata52"><rdf:RDF><cc:Work
       rdf:about=""><dc:format>image/svg+xml</dc:format><dc:type
         rdf:resource="http://purl.org/dc/dcmitype/StillImage" /></cc:Work></rdf:RDF></metadata><defs
   id="defs50" /><sodipodi:namedview
   inkscape:window-height="719"
   inkscape:window-width="1024"
   inkscape:pageshadow="2"
   inkscape:pageopacity="0.0"
   guidetolerance="10.0"
   gridtolerance="10.0"
   objecttolerance="10.0"
   borderopacity="1.0"
   bordercolor="#666666"
   pagecolor="#ffffff"
   id="base"
   width="200px"
   height="85px"
   inkscape:zoom="4.7"
   inkscape:cx="100"
   inkscape:cy="42.5"
   inkscape:window-x="-4"
   inkscape:window-y="-4"
   inkscape:current-layer="svg2" />
	<clipPath
   id="clp1"
   fill="none">
		<path
   shape-rendering="crispEdges"
   d="M 0,0 L 200.976,0 L 200.976,200.976 L 0,200.976 L 0,0 z "
   id="path5"
   style="stroke:#000000" />
	</clipPath>
	<g
   clip-path="url(#clp1)"
   id="g7"
   style="fill:none"
   transform="translate(-0.8341951,-83.726)">
		<g
   transform="translate(2.559,85.054)"
   id="g9">
			<path
   d="M 183.457,0.672 C 189.345,0.672 197.132,5.878 195.838,15.541 C 194.563,25.059 189.223,62.97 188.442,68.371 C 187.577,74.352 180.013,82.191 171.959,82.191 C 171.95,82.191 12.668,82.19 12.552,82.19 C 6.266,82.19 -0.746,76.196 0.399,67.925 C 1.434,60.446 7.796,14.953 7.802,14.915 C 9.038,6.875 17.519,0.676 24.49,0.676 C 24.49,0.676 173.957,0.672 183.457,0.672 z "
   id="path11"
   style="fill:#e60003" />
		</g>
		<g
   transform="translate(1.496,85.054)"
   id="g13">
			<path
   d="M 18.153,11.059 L 68.32,11.059 L 65.779,29.009 L 52.694,29.009 L 46.428,73.227 L 22.566,73.227 L 28.754,28.97 L 15.671,28.97 L 18.153,11.059 z "
   id="path15"
   style="fill:#ffffff" />
		</g>
		<g
   transform="translate(1.496,85.054)"
   id="g17">
			<path
   d="M 138.807,11.039 C 138.807,11.039 111.218,11.039 111.2,11.039 C 108.979,11.035 106.266,13.427 105.957,15.226 C 105.955,15.239 98.399,68.732 98.397,68.745 C 98.135,71.04 100.705,73.256 102.292,73.246 C 102.292,73.246 130.1,73.246 130.1,73.246 C 130.1,73.246 132.595,55.268 132.595,55.268 C 132.595,55.268 128.692,55.254 128.692,55.268 C 127.097,55.268 124.626,53.416 124.858,50.892 C 124.86,50.87 127.272,33.534 127.28,33.502 C 128.087,30.228 131.363,28.983 132.483,28.983 C 132.483,28.983 136.274,28.99 136.274,28.99 C 136.274,28.99 138.807,11.039 138.807,11.039 z "
   id="path19"
   style="fill:#ffffff" />
		</g>
		<g
   transform="translate(1.496,85.054)"
   id="g21">
			<path
   d="M 103.563,11.044 C 103.563,11.044 75.894,11.052 75.88,11.052 C 73.818,11.052 70.842,13.536 70.534,15.715 C 70.532,15.73 65.728,50.349 65.724,50.369 C 65.118,53.857 61.741,55.259 60.451,55.275 C 60.451,55.275 56.8,55.275 56.8,55.275 C 56.8,55.275 54.24,73.225 54.24,73.225 C 54.24,73.225 81.709,73.225 81.724,73.225 C 83.441,73.21 86.717,71.235 87.055,68.583 C 87.057,68.565 91.964,33.415 91.967,33.401 C 92.73,30.519 95.978,29.008 97.005,29.008 C 96.99,29.008 100.994,28.993 100.994,28.993 C 100.994,28.993 103.563,11.044 103.563,11.044 z "
   id="path23"
   style="fill:#ffffff" />
		</g>
		<g
   transform="translate(1.496,85.054)"
   id="g25">
			<path
   d="M 160.567,24.887 C 159.632,24.564 152.663,22.727 151.838,22.076 C 151.013,21.425 150.051,21.151 149.526,18.656 C 149.113,16.697 148.227,15.718 147.859,15.442 C 147.795,15.394 147.713,14.875 147.449,14.532 C 147.104,14.082 146.895,13.986 146.606,13.938 C 146.595,13.936 147.125,14.745 146.847,15.498 C 146.845,15.503 146.357,14.243 145.76,14.312 C 145.754,14.312 146.012,15.289 145.892,15.787 C 145.89,15.797 145.434,14.669 144.866,14.698 C 144.848,14.699 145.358,15.804 145.089,16.044 C 145.084,16.048 144.334,15.024 143.91,15.218 C 143.908,15.219 144.512,16.288 144.286,16.566 C 144.283,16.57 143.612,15.554 143.186,15.755 C 143.174,15.76 143.644,16.677 143.718,17.16 C 143.719,17.166 144.449,18.251 144.784,19.119 C 145.443,20.831 145.545,22.465 146.696,24.112 C 148.616,26.861 156.17,31.939 158.094,32.696 C 158.117,32.705 158.13,32.176 158.146,30.968 C 158.175,28.68 159.017,27.141 159.647,26.246 C 160.276,25.354 160.567,24.887 160.567,24.887 z "
   id="path27"
   style="fill:#000000" />
		</g>
		<g
   transform="translate(1.496,85.054)"
   id="g29">
			<path
   d="M 151.253,42.572 C 151.87,42.614 153.071,42.606 153.465,42.585 C 153.859,42.564 155.331,42.336 156.306,42.212 C 157.281,42.088 159.474,41.424 160.096,41.217 C 160.718,41.01 162.294,40.47 162.294,40.47 C 162.294,40.47 162.626,41.092 162.626,41.092 C 162.626,41.092 160.677,41.984 160.677,41.984 C 160.677,41.984 160.988,43.125 161.154,43.519 C 161.32,43.913 162.544,46.402 163.186,47.039 C 163.829,47.677 164.887,48.76 164.887,48.76 C 164.887,48.76 164.389,49.071 164.389,49.071 C 164.389,49.071 163.103,47.702 162.875,47.723 C 162.647,47.744 160.365,48.947 159.702,49.403 C 159.038,49.859 157.401,51.226 156.882,51.807 C 156.363,52.388 154.886,54.238 154.584,55.288 C 154.419,55.863 153.879,58.233 153.858,58.814 C 153.837,59.395 153.962,61.8 154.003,62.07 C 154.045,62.34 154.314,63.579 154.376,64.035 C 154.438,64.491 154.293,64.595 154.127,64.782 C 153.961,64.969 153.629,64.969 153.318,64.927 C 153.007,64.885 152.583,64.501 152.583,64.501 C 152.583,64.501 151.397,63.541 151.397,63.541 C 150.09,62.503 149.441,62.687 148.987,62.76 C 148.908,62.773 148.477,62.608 148.029,62.587 C 147.463,62.562 147.038,62.819 146.826,63.075 C 146.819,63.084 147.721,63.062 148.198,63.619 C 148.201,63.623 146.574,63.453 146.395,64.09 C 146.393,64.095 147.628,64.168 147.902,64.6 C 147.908,64.609 146.375,64.488 146.216,65.098 C 146.211,65.115 147.556,65.05 147.542,65.41 C 147.542,65.416 146.309,65.609 146.256,66.172 C 146.256,66.174 147.818,66.128 147.86,66.484 C 147.861,66.489 146.335,66.61 146.302,67.154 C 146.301,67.167 147.071,67.008 147.343,67.287 C 147.347,67.291 147.819,67.7 148.676,68.063 C 148.676,68.063 149.856,68.395 149.856,68.395 C 149.856,68.395 150.761,68.732 151.189,68.891 C 151.617,69.05 153.347,69.827 153.665,70.002 C 153.983,70.177 155.601,70.811 156.03,70.859 C 156.459,70.907 157.76,70.843 157.982,70.526 C 158.204,70.209 158.808,69.97 159.015,68.717 C 159.222,67.464 159.904,65.384 160.158,64.813 C 160.412,64.242 161.793,61.939 162.396,61.289 C 162.999,60.638 164.602,59.305 165.189,59.035 C 165.776,58.765 166.617,58.432 166.617,58.432 C 166.617,58.432 166.284,57.21 166.188,56.543 C 166.093,55.876 165.76,53.987 165.728,53.558 C 165.696,53.129 165.791,51.701 165.887,51.622 C 165.982,51.543 166.538,51.844 166.538,51.844 C 166.538,51.844 166.475,52.606 166.554,53.193 C 166.633,53.78 167.126,56.813 167.285,57.225 C 167.444,57.638 168.206,59.637 168.666,60.463 C 169.126,61.288 170.221,63.003 170.618,63.368 C 171.015,63.733 172.253,64.939 172.554,65.225 C 172.856,65.511 173.332,66.209 173.427,66.368 C 173.522,66.527 173.633,66.844 173.506,67.019 C 173.379,67.194 173.268,67.432 173.125,67.527 C 172.982,67.622 172.839,67.718 172.681,67.749 C 172.681,67.749 172.312,67.752 172.312,67.752 C 171.556,67.798 171.556,67.929 170.714,67.952 C 170.634,67.954 170.299,67.947 169.883,68.062 C 169.337,68.214 168.878,68.631 168.725,68.881 C 168.719,68.891 169.696,68.751 170.37,69.173 C 170.374,69.176 168.955,69.233 168.796,69.813 C 168.795,69.818 170.026,69.766 170.378,70.279 C 170.384,70.287 169.109,70.539 168.924,71.077 C 168.918,71.094 170.384,70.964 170.506,71.303 C 170.508,71.309 169.209,71.741 169.257,72.323 C 169.257,72.325 170.621,71.955 170.887,72.165 C 170.891,72.168 169.674,72.782 169.701,73.252 C 169.702,73.265 170.621,72.809 171.028,73.125 C 171.033,73.129 171.841,73.21 172.578,73.128 C 172.953,73.112 173.547,72.815 173.937,72.659 C 174.327,72.503 175.703,71.659 176.187,71.331 C 176.671,71.003 178,69.581 178.296,69.237 C 178.592,68.893 179.765,67.424 179.89,67.253 C 180.015,67.082 180.359,66.503 180.453,66.222 C 180.547,65.941 180.469,65.675 180.375,65.441 C 180.281,65.207 180.078,64.832 179.969,64.582 C 179.86,64.332 179.719,63.769 179.672,63.394 C 179.625,63.019 179.469,61.972 179.453,61.628 C 179.437,61.284 179.297,60.003 179.25,59.675 C 179.203,59.347 179.141,58.003 179.094,57.566 C 179.047,57.129 178.953,55.66 178.922,55.175 C 178.891,54.69 178.906,53.394 178.906,53.394 C 178.906,53.394 179.812,53.363 179.812,53.363 C 179.812,53.363 179.984,51.738 179.921,51.629 C 179.858,51.52 178.874,49.816 178.733,49.582 C 178.592,49.348 178.358,48.598 178.202,47.988 C 178.046,47.378 177.718,45.394 177.608,44.707 C 177.498,44.02 177.17,42.004 176.967,41.394 C 176.764,40.784 176.326,38.894 176.217,38.535 C 176.108,38.176 175.733,36.504 175.717,36.113 C 175.701,35.722 175.936,34.738 176.03,34.535 C 176.124,34.332 176.514,33.082 176.593,32.879 C 176.672,32.676 177.156,31.16 177.281,30.801 C 177.406,30.442 177.797,28.879 177.875,28.52 C 177.953,28.161 177.938,27.317 177.875,26.832 C 177.812,26.347 177.594,25.348 177.469,25.019 C 177.344,24.69 177.203,23.628 177.156,23.331 C 177.109,23.034 177.203,22.815 177.344,22.503 C 177.485,22.191 177.922,20.831 178.047,20.519 C 178.172,20.207 178.438,18.753 178.438,18.144 C 178.438,17.535 178.375,16.191 178.36,15.769 C 178.345,15.347 178.163,13.835 178.052,13.531 C 177.941,13.227 177.941,13.16 177.978,13.064 C 178.015,12.968 178.237,12.701 178.326,12.597 C 178.415,12.493 178.534,12.293 178.682,11.989 C 178.83,11.685 178.793,11.359 178.756,11.144 C 178.719,10.929 178.637,10.647 178.548,10.455 C 178.459,10.262 178.251,10.033 178.163,9.914 C 178.074,9.795 177.6,9.521 177.481,9.425 C 177.362,9.329 176.866,9.262 176.569,9.24 C 176.272,9.218 175.954,9.277 175.739,9.373 C 175.524,9.469 175.205,9.618 175.087,9.64 C 174.968,9.662 174.708,9.484 174.27,9.373 C 173.832,9.262 173.362,9.225 173.043,9.166 C 172.724,9.107 171.296,9.03 170.343,9.03 C 169.557,9.03 168.519,9.108 168.258,9.144 C 167.599,9.233 166.559,9.871 166.381,10.026 C 166.203,10.182 165.254,10.626 165.128,10.678 C 165.002,10.73 163.638,10.715 163.327,10.715 C 163.016,10.715 161.318,10.796 161.199,10.856 C 161.08,10.915 161.058,11.019 161.14,11.931 C 161.222,12.843 161.955,13.673 162.03,13.777 C 162.104,13.881 162.371,14.066 162.452,14.118 C 162.533,14.17 166.381,15.683 166.426,15.735 C 166.47,15.787 166.76,16.083 167.028,16.284 C 167.296,16.484 167.406,16.729 167.458,16.803 C 167.51,16.877 167.539,17.07 167.488,17.07 C 167.437,17.07 166.998,16.988 166.864,16.936 C 166.73,16.884 166.115,16.906 165.841,16.877 C 165.567,16.848 164.499,16.803 164.01,16.766 C 163.521,16.729 163.002,16.707 162.453,16.462 C 161.905,16.217 161,15.728 160.889,15.595 C 160.778,15.462 160.511,15.076 160.437,14.927 C 160.363,14.778 160.24,14.411 160.222,14.356 C 160.174,14.208 160.028,14.259 159.998,14.266 C 159.968,14.273 159.91,14.368 159.875,14.765 C 159.857,14.964 159.868,15.419 159.928,15.597 C 159.987,15.775 160.37,16.477 160.637,16.707 C 160.904,16.937 161.756,17.293 162.016,17.352 C 162.275,17.411 163.009,17.5 163.135,17.5 C 163.261,17.5 166.471,17.507 166.471,17.507 C 166.471,17.507 166.983,17.589 167.08,17.603 C 167.178,17.618 167.564,17.689 167.629,17.759 C 167.733,17.87 167.755,17.918 167.755,18.27 C 167.755,18.655 167.607,18.67 167.481,18.789 C 167.355,18.908 167.001,19.13 166.872,19.13 C 166.743,19.13 163.225,19.049 162.95,19.197 C 162.701,19.332 162.707,19.546 162.861,19.849 C 163.028,20.18 163.816,20.347 163.816,20.347 C 163.816,20.347 167.015,20.433 167.015,20.433 C 167.058,21.447 165.73,22.333 165.03,22.662 C 164.33,22.991 162.973,24.047 161.858,24.79 C 160.743,25.533 159.672,27.605 159.457,28.076 C 159.243,28.547 158.844,30.348 158.83,30.962 C 158.816,31.577 158.901,32.575 158.901,32.575 C 158.901,32.575 160,32.085 160,32.085 C 160,32.085 160.186,32.599 160.186,32.599 C 160.186,32.599 156.401,34.456 156.144,34.656 C 155.887,34.856 152.043,36.756 151.258,36.913 C 150.473,37.07 150.059,36.913 150.059,36.913 C 149.673,36.884 149.155,35.735 148.971,35.416 C 147.973,33.68 146.993,32.279 146.558,32.13 C 146.482,32.104 146.451,31.606 146.256,31.411 C 145.855,31.01 145.571,30.806 145.085,30.841 C 145.074,30.842 145.793,31.807 145.503,32.556 C 145.501,32.56 144.859,31.263 144.058,31.56 C 144.053,31.562 144.725,32.29 144.561,33.123 C 144.559,33.133 143.732,31.974 142.891,32.471 C 142.876,32.48 143.678,32.733 143.822,33.776 C 143.823,33.782 143.113,32.948 142.225,33.337 C 142.223,33.338 143.14,33.908 143.126,34.804 C 143.126,34.809 142.528,34.07 141.636,34.215 C 141.623,34.217 142.367,34.849 142.482,35.81 C 142.483,35.816 143.696,37.743 144.283,38.465 C 144.825,39.133 146.194,40.867 149.408,42.208 C 150.081,42.465 150.636,42.53 151.253,42.572 z "
   id="path31"
   style="fill:#000000" />
		</g>
		<g
   transform="translate(1.496,85.054)"
   id="g33">
			<path
   d="M 174.132,11.503 C 174.478,11.107 175.34,9.83 176.934,9.83 C 176.934,9.83 177.335,10.995 177.326,10.995 C 176.652,10.995 175.407,11.884 175.04,12.392 C 175.035,12.399 174.132,11.503 174.132,11.503 z "
   id="path35"
   style="fill:#ffffff" />
		</g>
		<g
   transform="translate(1.496,85.054)"
   id="g37">
			<path
   d="M 166.501,12.231 C 166.583,11.81 166.638,11.534 166.98,11.288 C 167.324,11.04 167.451,10.962 167.954,10.962 C 168.164,10.962 169.305,10.987 169.826,11.947 C 170.205,12.736 170.8,13.226 170.813,13.517 C 170.823,13.736 170.719,13.83 170.438,13.83 C 170.27,13.83 169.852,13.9 169.079,13.26 C 168.735,12.975 168.407,12.19 168.079,12.19 C 167.641,12.19 167.846,13.009 167.641,13.206 C 167.438,13.401 166.501,13.396 166.508,13.097 C 166.508,13.094 166.501,12.231 166.501,12.231 z "
   id="path39"
   style="fill:#ffffff" />
		</g>
		<g
   transform="translate(1.496,85.054)"
   id="g41">
			<path
   d="M 162.499,13.838 C 162.688,13.838 163.048,14.141 164.192,14.415 C 165.337,14.689 166.508,15.249 166.508,15.523 C 166.508,15.797 166.15,16.095 165.838,16.095 C 165.526,16.095 165.091,15.71 165.015,15.71 C 164.939,15.71 164.759,15.792 164.541,15.792 C 164.14,15.792 163.811,15.575 163.811,15.124 C 163.811,14.78 163.881,14.717 163.803,14.717 C 163.481,14.717 163.046,15.44 163.046,15.78 C 163.046,15.885 162.859,15.918 162.838,15.848 C 162.757,15.576 162.319,15.131 162.319,14.576 C 162.32,13.672 162.499,13.838 162.499,13.838 z "
   id="path43"
   style="fill:#ffffff" />
		</g>
		<g
   transform="translate(1.496,85.054)"
   id="g45">
			<path
   d="M 163.674,19.515 C 164.137,19.488 164.401,19.342 164.825,19.364 C 165.423,19.394 165.729,19.25 166.112,19.25 C 166.495,19.25 166.809,19.28 167.039,19.099 C 167.252,18.931 167.277,18.899 167.228,18.622 C 167.187,18.391 166.822,18.093 166.694,18.003 C 166.566,17.914 166.375,17.914 166.208,17.952 C 165.96,18.008 165.795,18.261 165.718,18.311 C 165.612,18.379 165.48,18.246 165.39,18.169 C 165.3,18.092 165.058,18.041 164.917,18.118 C 164.776,18.195 164.479,18.323 164.415,18.387 C 164.351,18.451 164.339,18.538 164.218,18.501 C 164.097,18.464 164.009,18.093 163.983,18.004 C 163.957,17.915 163.907,17.661 163.907,17.661 C 163.907,17.661 163.797,17.751 163.695,17.828 C 163.593,17.905 163.459,18.158 163.42,18.235 C 163.382,18.312 163.187,18.631 163.187,18.919 C 163.187,19.154 163.266,19.256 163.33,19.386 C 163.409,19.538 163.674,19.515 163.674,19.515 z "
   id="path47"
   style="fill:#ffffff" />
		</g>
	</g>
</svg>