<?xml version="1.0" encoding="utf-8"?>
<!-- Generator: Adobe Illustrator 14.0.0, SVG Export Plug-In . SVG Version: 6.00 Build 43363)  -->
<!DOCTYPE svg PUBLIC "-//W3C//DTD SVG 1.1//EN" "http://www.w3.org/Graphics/SVG/1.1/DTD/svg11.dtd">
<svg version="1.1" id="Ebene_1" xmlns="http://www.w3.org/2000/svg" xmlns:xlink="http://www.w3.org/1999/xlink" x="0px" y="0px"
	 width="509px" height="514px" viewBox="0 0 509 514" enable-background="new 0 0 509 514" xml:space="preserve">
<polygon fill="#133689" points="1.634,0.195 1.634,170.888 1.634,513.945 509.384,513.945 509.384,170.888 509.384,0.195 "/>
<path fill="#FDCC35" d="M504.884,509.445c-8.763,0-489.988,0-498.75,0c0-5.416,0-193.537,0-338.557h172.292v220.833h154.167
	l-0.001-220.833h172.292C504.884,315.908,504.884,504.029,504.884,509.445z"/>
<path fill="#FDCC35" d="M14.858,42.792v-11h61.375v11h-25v101H39.858v-101H14.858z"/>
<path fill="#FDCC35" d="M90.78,31.792h11.25v112H90.78V31.792z"/>
<path fill="#FDCC35" d="M235.673,50.69l-8.684,8.227c-6.258-6.148-13.113-10.811-20.566-13.986s-14.717-4.764-21.787-4.764
	c-8.801,0-17.184,2.156-25.145,6.465c-7.963,4.311-14.131,10.154-18.506,17.531s-6.563,15.172-6.563,23.385
	c0,8.418,2.262,16.416,6.787,23.994c4.523,7.58,10.777,13.537,18.76,17.873c7.98,4.336,16.727,6.502,26.234,6.502
	c11.539,0,21.301-3.223,29.283-9.67c7.982-6.445,12.711-14.807,14.186-25.08h-35.75v-11h48.375
	c-0.102,17.273-5.246,30.986-15.434,41.143s-23.816,15.232-40.887,15.232c-20.73,0-37.141-7.047-49.232-21.143
	c-9.299-10.85-13.947-23.398-13.947-37.645c0-10.598,2.666-20.459,8.002-29.584s12.652-16.262,21.951-21.408
	c9.297-5.146,19.814-7.721,31.553-7.721c9.5,0,18.443,1.717,26.826,5.146S227.694,43.12,235.673,50.69z"/>
<path fill="#FDCC35" d="M264.341,31.792h22.293c12.428,0,20.848,0.51,25.262,1.525c6.645,1.525,12.045,4.791,16.205,9.797
	s6.24,11.168,6.24,18.486c0,6.102-1.432,11.463-4.293,16.088c-2.863,4.625-6.953,8.119-12.271,10.482
	c-5.32,2.363-12.664,3.57-22.035,3.621l40.225,52h-13.873l-40.229-52h-6.273v52h-11.25V31.792z M275.591,42.792v38l19.23,0.154
	c7.447,0,12.957-0.709,16.531-2.127c3.572-1.418,6.359-3.686,8.361-6.803c2-3.117,3.002-6.6,3.002-10.451
	c0-3.75-1.014-7.156-3.041-10.223c-2.027-3.064-4.688-5.256-7.98-6.574c-3.293-1.316-8.766-1.977-16.418-1.977H275.591z"/>
<path fill="#FDCC35" d="M358.522,31.792h64.25v11h-53v35.125h52.5v11h-52.5v43.875h52.5v11h-63.75V31.792z"/>
<path fill="#FDCC35" d="M430.409,122.88l9.521-5.713c6.727,12.334,14.496,18.5,23.313,18.5c3.77,0,7.313-0.871,10.625-2.617
	c3.313-1.744,5.834-4.082,7.566-7.016s2.6-6.043,2.6-9.33c0-3.742-1.273-7.41-3.818-11c-3.512-4.977-9.926-10.969-19.24-17.977
	c-9.367-7.059-15.195-12.162-17.486-15.311c-3.971-5.275-5.955-10.982-5.955-17.121c0-4.871,1.17-9.311,3.514-13.318
	c2.342-4.008,5.639-7.164,9.891-9.473s8.873-3.463,13.863-3.463c5.295,0,10.246,1.314,14.855,3.941
	c4.607,2.629,9.482,7.463,14.627,14.502l-9.141,6.932c-4.229-5.602-7.832-9.293-10.811-11.076c-2.98-1.781-6.227-2.674-9.74-2.674
	c-4.535,0-8.24,1.369-11.117,4.105c-2.879,2.736-4.316,6.105-4.316,10.107c0,2.432,0.508,4.787,1.525,7.068s2.875,4.764,5.57,7.447
	c1.475,1.42,6.307,5.145,14.496,11.172c9.715,7.145,16.379,13.504,19.99,19.078s5.418,11.174,5.418,16.797
	c0,8.109-3.094,15.152-9.279,21.131c-6.186,5.98-13.707,8.969-22.564,8.969c-6.822,0-13.008-1.814-18.557-5.439
	C440.208,137.476,435.093,131.401,430.409,122.88z"/>
<path fill="#133689" d="M112.913,408.239h8.25v49.86c0,5.915,0.112,9.603,0.337,11.062c0.412,3.258,1.366,5.981,2.864,8.171
	c1.497,2.189,3.8,4.023,6.907,5.502s6.233,2.218,9.379,2.218c2.732,0,5.353-0.58,7.861-1.74c2.508-1.16,4.604-2.771,6.29-4.829
	c1.685-2.059,2.92-4.548,3.706-7.468c0.562-2.096,0.843-6.401,0.843-12.915v-49.86h8.25v49.869c0,7.376-0.721,13.338-2.162,17.887
	s-4.323,8.509-8.646,11.878c-4.323,3.368-9.555,5.054-15.693,5.054c-6.663,0-12.371-1.592-17.125-4.773s-7.936-7.394-9.545-12.636
	c-1.011-3.22-1.516-9.022-1.516-17.409V408.239z"/>
<path fill="#133689" d="M221.651,408.239l38.5,82.625h-8.887l-12.92-27.188h-35.651l-12.834,27.188h-9.207l39-82.625H221.651z
	 M220.622,425.696l-14.153,29.98h28.251L220.622,425.696z"/>
<path fill="#133689" d="M273.097,490.864v-82.625h1.803l54.947,63.188v-63.188h8.125v82.625h-1.85l-54.463-62.444v62.444H273.097z"
	/>
<path fill="#133689" d="M358.105,408.239h8.25v74.625h31.75v8h-40V408.239z"/>
<polygon fill="#133689" points="451.572,410.309 461.568,441.076 493.916,441.076 467.746,460.092 477.744,490.856 451.572,471.841 
	425.401,490.856 435.396,460.092 409.228,441.076 441.575,441.076 "/>
<polygon fill="#133689" points="59.445,410.309 49.449,441.076 17.102,441.076 43.271,460.092 33.273,490.856 59.445,471.841 
	85.616,490.856 75.621,460.092 101.79,441.076 69.442,441.076 "/>
</svg>
