<?xml version="1.0" encoding="utf-8"?>
<!-- Generator: Adobe Illustrator 14.0.0, SVG Export Plug-In . SVG Version: 6.00 Build 43363)  -->
<!DOCTYPE svg PUBLIC "-//W3C//DTD SVG 1.1//EN" "http://www.w3.org/Graphics/SVG/1.1/DTD/svg11.dtd">
<svg version="1.1" id="Ebene_1" xmlns="http://www.w3.org/2000/svg" xmlns:xlink="http://www.w3.org/1999/xlink" x="0px" y="0px"
	 width="314px" height="566px" viewBox="0 0 314 566" enable-background="new 0 0 314 566" xml:space="preserve">
<rect x="7.097" y="104.795" fill="#00559F" width="299.807" height="458.524"/>
<path fill="#F8B322" d="M201.089,192.974v79.884c-10.5-3.533-17.106-13.516-44.089-13.516c-26.983,0-33.589,9.983-44.089,13.516
	v-79.885H7.097v35.269h8.817c4.872,0,8.818,3.948,8.818,8.819l0.358,142.07c0,0-3.627,112.784,131.541,113.646h0.735
	c135.165-0.862,131.543-113.646,131.543-113.646l0.357-142.07c0-4.871,3.946-8.819,8.818-8.819h8.817v-35.269H201.089z"/>
<polygon fill="#F8B322" points="64.045,521.758 44.722,521.758 37.774,502.047 30.828,521.758 11.505,521.758 26.978,533.802 
	20.749,553.457 37.774,541.324 54.802,553.457 48.573,533.802 "/>
<polygon fill="#F8B322" points="249.956,521.758 269.279,521.758 276.227,502.047 283.173,521.758 302.496,521.758 287.022,533.802 
	293.252,553.457 276.227,541.324 259.199,553.457 265.428,533.802 "/>
<path fill="#F8B322" d="M71.434,501.596h5.265v31.169c0,3.7,0.072,6.002,0.212,6.916c0.264,2.035,0.872,3.736,1.825,5.107
	c0.951,1.367,2.414,2.518,4.391,3.44c1.975,0.926,3.962,1.386,5.961,1.386c1.738,0,3.406-0.36,5.001-1.088s2.926-1.73,3.999-3.018
	c1.07-1.288,1.856-2.843,2.356-4.67c0.355-1.31,0.535-4.001,0.535-8.074v-31.169h5.267v31.156c0,4.608-0.459,8.331-1.377,11.175
	c-0.92,2.844-2.753,5.314-5.505,7.418c-2.753,2.106-6.081,3.16-9.989,3.16c-4.241,0-7.872-0.995-10.899-2.983
	c-3.024-1.987-5.051-4.619-6.076-7.895c-0.643-2.011-0.965-5.635-0.965-10.875V501.596z"/>
<path fill="#F8B322" d="M138.229,501.596l24.498,51.612h-5.64l-8.2-16.964h-22.761l-8.151,16.964h-5.853l24.789-51.612H138.229z
	 M137.565,512.423l-9.023,18.791h18.017L137.565,512.423z"/>
<polygon fill="#F8B322" points="167.828,553.208 167.828,501.596 168.968,501.596 203.88,541.075 203.88,501.596 209.145,501.596 
	209.145,553.208 207.946,553.208 173.239,514.076 173.239,553.208 "/>
<polygon fill="#F8B322" points="220.611,501.596 225.88,501.596 225.88,548.177 246.136,548.177 246.136,553.208 220.611,553.208 
	"/>
<polygon fill="#F8B322" points="11.507,121.846 11.507,115.296 48.413,115.296 48.413,121.846 33.387,121.846 33.387,182.473 
	26.532,182.473 26.532,121.846 "/>
<rect x="57.198" y="115.296" fill="#F8B322" width="6.762" height="67.176"/>
<path fill="#F8B322" d="M145.116,126.548l-5.229,4.932c-3.772-3.68-7.903-6.471-12.398-8.372c-4.494-1.906-8.873-2.853-13.138-2.853
	c-5.308,0-10.359,1.295-15.159,3.883c-4.8,2.593-8.521,6.103-11.157,10.533c-2.638,4.435-3.957,9.12-3.957,14.056
	c0,5.056,1.363,9.863,4.089,14.416c2.723,4.555,6.49,8.137,11.301,10.742c4.808,2.604,10.075,3.909,15.802,3.909
	c6.95,0,12.832-1.946,17.642-5.833c4.808-3.889,7.655-8.931,8.543-15.129h-21.504v-6.548h29.111
	c-0.063,10.378-3.163,18.62-9.301,24.718c-6.142,6.103-14.354,9.152-24.645,9.152c-12.497,0-22.389-4.232-29.675-12.691
	c-5.604-6.518-8.406-14.049-8.406-22.604c0-6.362,1.61-12.283,4.825-17.759c3.221-5.481,7.633-9.766,13.24-12.854
	c5.608-3.09,11.951-4.634,19.031-4.634c5.732,0,11.126,1.026,16.181,3.074C135.37,118.738,140.305,122.025,145.116,126.548z"/>
<path fill="#F8B322" d="M162.215,115.296h13.461c7.5,0,12.586,0.304,15.247,0.913c4.013,0.913,7.274,2.868,9.783,5.866
	c2.513,3,3.768,6.688,3.768,11.069c0,3.651-0.866,6.864-2.593,9.631c-1.732,2.774-4.206,4.865-7.422,6.281
	c-3.215,1.414-7.655,2.136-13.321,2.167l24.276,31.25h-8.286l-24.274-31.25h-3.876v31.25h-6.763V115.296z M168.978,121.846v22.829
	l11.648,0.094c4.512,0,7.852-0.43,10.016-1.281c2.163-0.853,3.854-2.216,5.065-4.087c1.211-1.871,1.817-3.965,1.817-6.273
	c0-2.258-0.613-4.303-1.84-6.146c-1.228-1.839-2.84-3.156-4.835-3.95c-1.997-0.79-5.313-1.185-9.945-1.185H168.978z"/>
<polygon fill="#F8B322" points="219.555,115.296 258.152,115.296 258.152,121.846 226.315,121.846 226.315,142.895 257.871,142.895 
	257.871,149.446 226.315,149.446 226.315,175.921 257.871,175.921 257.871,182.473 219.555,182.473 "/>
<path fill="#F8B322" d="M262.961,169.896l5.73-3.422c4.035,7.419,8.702,11.133,13.996,11.133c2.265,0,4.39-0.526,6.38-1.574
	c1.988-1.05,3.502-2.459,4.542-4.223c1.039-1.766,1.562-3.633,1.562-5.613c0-2.251-0.768-4.457-2.299-6.616
	c-2.115-2.989-5.974-6.581-11.58-10.784c-5.635-4.233-9.144-7.291-10.522-9.182c-2.39-3.165-3.584-6.583-3.584-10.265
	c0-2.917,0.706-5.583,2.116-7.985c1.411-2.402,3.397-4.292,5.958-5.678c2.562-1.383,5.345-2.077,8.349-2.077
	c3.191,0,6.172,0.782,8.949,2.349c2.776,1.572,5.714,4.455,8.81,8.652l-5.502,4.156c-2.554-3.354-4.729-5.564-6.527-6.633
	c-1.801-1.067-3.762-1.6-5.882-1.6c-2.74,0-4.977,0.821-6.714,2.464c-1.737,1.646-2.607,3.667-2.607,6.074
	c0,1.461,0.307,2.877,0.921,4.245c0.614,1.371,1.734,2.864,3.361,4.474c0.889,0.853,3.807,3.091,8.747,6.711
	c5.862,4.294,9.885,8.118,12.063,11.467c2.179,3.351,3.268,6.714,3.268,10.095c0,4.872-1.859,9.105-5.578,12.7
	c-3.72,3.595-8.241,5.39-13.57,5.39c-4.103,0-7.82-1.093-11.157-3.278C268.854,178.691,265.775,175.036,262.961,169.896z"/>
<polygon fill="#00559F" points="188.892,27.928 165.434,27.928 157,4 148.566,27.928 125.109,27.928 143.893,42.548 136.331,66.41 
	157,51.681 177.67,66.41 170.108,42.548 "/>
<path fill="#00559F" d="M173.95,430.863c-4.262,0.057-12.449,6.948-16.95,6.902c-4.5,0.046-12.688-6.846-16.949-6.902
	c-1.588-0.008-2.521,0.414-2.987,1.177c-0.454,0.753-0.431,1.666-0.437,2.604c0.052,5.678,7.146,9.303,10.739,11.62
	c3.605,2.311,6.767,7.515,8.857,11.397l0.095,0.174h0.197H157h0.484h0.197l0.095-0.174c2.091-3.883,5.252-9.087,8.857-11.397
	c3.593-2.317,10.688-5.942,10.739-11.62c-0.006-0.938,0.018-1.852-0.437-2.604C176.471,431.277,175.537,430.855,173.95,430.863z"/>
<path fill="#00559F" d="M214.601,374.685c1.129-0.338,2.17-1.087,2.164-2.438c-0.02-0.927-0.639-2.026-0.617-2.667
	c-0.078-1.014,2.334-3.277,5.055-5.237c2.644-1.95,5.527-3.769,6.673-4.638h1.201c3.707,4.926,5.282,5.357,5.273,8.777
	c-0.019,0.407-0.17,0.515-0.669,0.67c-0.739,0.195-1.99,0.117-3.083,0.336c-1.09,0.19-2.151,0.888-2.122,2.443
	c0.004,0.854,0.932,7.122,0.928,7.843c0.027,3.226-3.41,6.15-7.517,8.217c-4.086,2.072-8.785,3.302-10.966,3.353l-0.437,0.012
	l0.13,0.419c0.714,2.283,2.687,6.051,4.897,9.288c2.243,3.22,4.568,5.938,6.49,6.006c2.785-0.034,6.996-3.228,10.658-7.074
	c3.634-3.873,6.654-8.352,6.682-11.289c-0.011-0.596-0.458-0.896-0.749-1.123c-0.305-0.227-0.477-0.388-0.491-0.56
	c0.189-0.68,3.393-10.18,3.404-12.896c0.04-10.594-2.886-18.409-13.346-19.604l-0.021-0.719c3.606-0.651,6.588-2.805,6.562-7.741
	c-0.015-3.888-2.178-7.651-2.163-11.287c-0.002-0.437-0.071-0.961-0.071-1.484c0.06-1.154,0.177-2.059,2.06-2.106
	c1.086-0.015,1.85,0.928,2.777,2.037c0.913,1.083,2.015,2.294,3.863,2.354l0.076,0.002l1.161-0.506l0.036-0.164
	c0.073-0.375,0.304-0.684,0.304-1.385c-0.029-2.37-3.302-8.541-3.852-9.57c-7.197-12.64-19.907-26.34-26.646-38.933l-0.093-0.17
	l-0.19-0.004c-12.14-0.35-17.628-3.323-20.838-6.182c-3.211-2.826-4.147-5.783-7.319-5.833c-0.904,0.029-2.563,0.982-4.33,1.92
	c-1.713,0.943-3.532,1.873-4.018,1.843c-0.258,0.057-2.122-1.104-4.297-2.634c-2.221-1.53-4.952-3.436-7.524-4.926l-0.443,0.466
	c1.302,2.009,2.275,3.006,2.882,3.766c0.603,0.769,0.844,1.217,0.856,2.404c0.033,0.598-1.512,3.575-1.545,4.548
	c0,0.466,0.106,1.913,0.398,3.29c0.327,1.341,0.657,2.724,1.787,2.839c0.88-0.01,5.83-1.266,6.495-1.255
	c1.271-0.007,5.219,0.915,8.796,1.855c1.793,0.468,3.508,0.94,4.786,1.304c0.641,0.183,1.17,0.335,1.545,0.448
	c0.188,0.055,0.336,0.102,0.438,0.133c0.051,0.017,0.091,0.029,0.118,0.038v-0.002c0.528,0.303,3.119,2.436,4.263,2.496
	c0.979-0.042,3.606-1.611,4.175-1.569c0.935-0.057,4.249,2.272,7.173,4.709c2.956,2.426,5.736,5.004,6.034,5.361
	c1.322,1.429,14.681,19.259,14.605,23.62c-0.015,1.229-0.628,1.646-1.385,2.107c-0.718,0.425-1.694,0.823-1.711,1.971
	c0.059,0.955,1.228,2.188,2.369,4.088c1.146,1.863,2.271,4.216,2.271,6.885c0.002,2.206-0.924,4.865-2.405,6.941
	c-1.479,2.082-3.494,3.554-5.611,3.549c-0.72,0.002-8.293-0.94-9.126-0.944c-12.396-0.061-20.702,3.163-22.854,19.519l-0.724,0.061
	c-0.203-0.667-0.429-1.371-0.774-2.355l-0.145-0.407l-0.354,0.243c-3.535,2.475-5.301,9.527-5.322,13.222
	c0.009,3.545,1.237,10.232,3.869,13.81l0.099,0.133h1.251h0.231l0.079-0.219c1.259-3.498,1.785-6.671,2.406-9.806
	c3.397-5.493,5.305-12.367,9.549-15.688c2.21-1.781,7.489-1.56,10.462-3.296c3.47-2.064,6.188-6.758,8.639-10.466
	c1.801,0.24,3.706,0.569,5.277,0.83v0.738c-0.414,0.104-0.728,0.272-0.936,0.529c-5.357,6.651-11.165,15.048-19.781,15.761
	l-0.671,0.057l0.454,0.497c2.522,2.732,7.273,3.832,10.019,3.84C212.117,375.083,213.454,375.039,214.601,374.685z"/>
<path fill="#00559F" d="M278.922,383.326l0.002-28.523c0.022-8.879-1.41-17.797-13.866-24.339
	c-5.987-3.092-25.5-22.563-25.407-31.436c0.027-2.494,1.61-2.916,3.227-2.962c2.159-0.011,6.008,1.687,9.231,4.098
	c3.247,2.403,5.86,5.537,5.84,8.184c0,0.071,0,0.144-0.005,0.212l-0.044,0.814l0.599-0.554c1.786-1.671,2.995-4.225,5.09-5.884
	c2.027-1.654,5.991-2.113,8.13-4.988c3.646-4.979,5.94-12.639,8.112-18.535l0.025-0.071l-0.451-4.956l-0.643-0.078
	c-2.457,7.302-7.928,18.785-16.521,19.556l-0.181,0.016l-0.082,0.161c-0.83,1.695-4.184,6.154-6.271,6.068
	c-2.752,0.051-6.186-3.802-10.334-7.749c-4.168-3.931-9.17-7.927-15.486-7.933c-3.396,0.019-7.833,1.66-7.907,5.035
	c0.065,7.757,11.563,17.383,22.982,28.711c11.44,11.295,22.802,24.162,22.785,37.766l-1.236,18.794
	c0.002,4.246,1.479,11.104,2.611,14.743c0.233,0.749,1.954,3.94,3.974,7.053c2.07,3.091,4.165,6.041,5.806,6.148
	c0.89-0.084,1.188-1.033,1.482-1.87c0.264-0.88,0.39-1.704,0.395-1.912L278.922,383.326z"/>
<path fill="#00559F" d="M219.835,268.16c4.434-0.034,9.171-4.645,14.435-9.174c5.248-4.547,10.962-9.024,16.957-9.012
	c0.387-0.076,1.936,1.31,3.312,2.727c1.464,1.406,2.766,2.848,3.84,2.917h8.89c5.015-0.099,8.356,9.903,10.732,12.43l0.566,0.578
	v-3.501c-0.004-0.051-0.002-0.057-0.002-0.057c-0.031-3.176-3.782-15.088-4.432-16.161c-0.936-1.367-3.949-2.072-7.208-2.62
	c-3.248-0.514-6.686-0.739-8.278-0.741c-19.746,0.008-33.931,14.523-39.275,14.427c-0.655,0.01-5.246-1.217-6.198-1.228
	c-0.036,0-0.044,0.002-0.044,0h-2.575l0.022,0.353C211.055,267.327,215.264,268.233,219.835,268.16z"/>
<path fill="#00559F" d="M246.42,337.975l-0.811-0.511l0.321,0.901c1.27,3.54,2.675,6.918,2.646,7.384
	c-0.029,1.132-0.46,1.34-1.044,1.633c-0.542,0.239-1.423,0.485-1.432,1.503c0.038,1.006,1.496,3.55,1.785,5.407
	c0.575,3.34,0.69,6.858,1.001,10.309l0.307,9.706c0,2.311-0.228,10.019-1.672,17.114c-1.43,7.133-4.155,13.486-8.705,13.416h-6.725
	c-1.812,0.063-3.039,2.192-4.282,4.563c-1.153,2.259-2.255,4.839-3.372,6.311l-22.417-16.614l-0.195,0.146
	c-0.362,0.199-0.627,0.568-0.564,1.224c0.089,0.686,1.008,1.589,2.458,3.434c4.335,5.353,13.224,16.866,15.218,32.646l0.036,0.289
	h1.29h0.015h0.12l0.005-0.005c1.63-0.1,3.251-1.629,4.559-3.33c1.329-1.77,2.301-3.694,2.319-4.813
	c-0.063-1.512-1.903-3.232-1.855-4.547c-0.017-1.298,1.242-3.694,2.929-5.671c1.669-1.999,3.795-3.588,5.245-3.563
	c0.661-0.011,8.393,1.872,9.278,1.882c0.57-0.008,1.79-0.354,3.003-0.82c1.205-0.504,2.316-0.966,2.635-1.704
	c2.095-6.098,9.032-18.013,9.07-25.401l-1.236-12.89c0.033-2.672,0.909-3.358,1.905-4.252c1.012-0.866,2.139-1.937,2.116-4.81
	C260.347,359.783,255.27,343.64,246.42,337.975z"/>
<path fill="#00559F" d="M163.675,302.674c-0.504,0.219-1.412,0.227-2.216,0.376c-0.781,0.12-1.653,0.559-1.639,1.619
	c0.03,1.868,1.657,3.308,2.65,5.136c5.038,9.104,12.004,10.109,18.554,10.091c1.863-0.005,2.785-0.057,3.264-0.951
	c0.379-0.798,0.317-1.938,0.595-4.052c2.339,0.253,6.744,3.789,7.963,4.508c1.621,0.921,4.853,0.771,5.86,1.441
	c1.022,0.544,4.813,6.497,4.719,7.349c0.046,3.354-8.085,15.778-9.21,18.04l-0.044,0.092l0.015,0.101
	c0,0.225,0.302,0.755,1.005,0.755c0.021,0,0.04,0,0.061-0.001c0.403-0.04,1.415-0.529,3.165-1.358
	c5.122-2.492,15.021-7.76,17.555-11.066c1.3-1.742,1.398-5.424,1.413-6.251c-0.009-1.969-0.831-5.732-3.396-7.904l-0.273-0.229
	l-0.208,0.288c-0.729,1.016-1.228,1.943-2.264,3.713c-4.142-9.879-22.4-16.694-29.29-16.735c-0.763,0-1.544,0.281-2.448,0.742
	l-0.181,0.093v1.291v0.132l0.092,0.097c1.092,1.101,2.101,2.37,2.054,2.838c-0.029,1.024-0.585,1.031-1.216,1.081
	c-0.115,0.053-1.525-0.764-2.873-1.819c-1.274-0.965-2.659-2.143-3.551-3.068c0.352-0.278,0.619-0.376,1.038-0.381
	c0.355-0.002,0.831,0.09,1.503,0.277l0.143,0.04l0.126-0.082c0.315-0.173,0.902-0.403,0.851-1.222
	c-0.089-1.708-3.582-5.215-7.292-8.629c-1.855-1.679-3.761-3.271-5.313-4.45c-1.591-1.178-2.661-1.941-3.341-1.987
	c-0.701-0.009-1.204,0.209-1.462,0.616c-0.252,0.397-0.258,0.849-0.261,1.28c0.021,1.333,1.149,2.874,2.23,4.329
	c1.093,1.408,2.153,2.831,2.099,3.196C164.131,302.397,164.009,302.513,163.675,302.674z"/>
<path fill="#00559F" d="M128.446,365.141l-0.354-0.243l-0.145,0.407c-0.346,0.984-0.571,1.688-0.774,2.355l-0.723-0.061
	c-2.152-16.355-10.458-19.579-22.854-19.519c-0.833,0.004-8.406,0.946-9.126,0.944c-2.116,0.005-4.132-1.467-5.611-3.549
	c-1.481-2.076-2.407-4.735-2.405-6.941c0-2.669,1.125-5.021,2.271-6.885c1.142-1.9,2.311-3.133,2.369-4.088
	c-0.017-1.147-0.993-1.546-1.711-1.971c-0.757-0.461-1.37-0.879-1.385-2.107c-0.075-4.361,13.283-22.191,14.605-23.62
	c0.298-0.357,3.079-2.936,6.034-5.361c2.924-2.437,6.238-4.766,7.173-4.709c0.568-0.042,3.197,1.527,4.175,1.569
	c1.144-0.061,3.734-2.193,4.263-2.496v0.002c0.027-0.009,0.067-0.021,0.118-0.038c0.103-0.031,0.251-0.078,0.438-0.133
	c0.376-0.113,0.905-0.266,1.546-0.448c1.277-0.363,2.992-0.836,4.785-1.304c3.577-0.94,7.525-1.862,8.797-1.855
	c0.664-0.011,5.615,1.245,6.495,1.255c1.129-0.115,1.459-1.498,1.786-2.839c0.292-1.377,0.398-2.824,0.398-3.29
	c-0.033-0.974-1.578-3.95-1.545-4.548c0.013-1.187,0.254-1.635,0.856-2.404c0.606-0.759,1.58-1.757,2.882-3.766l-0.443-0.466
	c-2.572,1.49-5.304,3.396-7.524,4.926c-2.175,1.531-4.038,2.691-4.297,2.634c-0.485,0.03-2.305-0.9-4.018-1.843
	c-1.767-0.938-3.426-1.891-4.33-1.92c-3.172,0.05-4.107,3.008-7.319,5.833c-3.209,2.858-8.698,5.832-20.838,6.182l-0.19,0.004
	l-0.093,0.17c-6.738,12.593-19.448,26.293-26.646,38.933c-0.55,1.029-3.821,7.2-3.851,9.57c0,0.701,0.23,1.01,0.304,1.385
	l0.036,0.164l1.16,0.506l0.076-0.002c1.849-0.06,2.95-1.271,3.863-2.354c0.928-1.109,1.692-2.052,2.777-2.037
	c1.883,0.048,2,0.952,2.06,2.106c0,0.523-0.069,1.048-0.071,1.484c0.015,3.636-2.147,7.399-2.162,11.287
	c-0.026,4.937,2.954,7.09,6.562,7.741l-0.021,0.719c-10.461,1.194-13.386,9.01-13.346,19.604c0.012,2.716,3.214,12.216,3.403,12.896
	c-0.015,0.172-0.187,0.333-0.491,0.56c-0.291,0.227-0.738,0.527-0.749,1.123c0.027,2.938,3.048,7.416,6.682,11.289
	c3.663,3.847,7.873,7.04,10.659,7.074c1.921-0.067,4.246-2.786,6.49-6.006c2.21-3.237,4.183-7.005,4.896-9.288l0.13-0.419
	l-0.437-0.012c-2.181-0.051-6.88-1.28-10.965-3.353c-4.107-2.066-7.545-4.991-7.518-8.217c-0.004-0.721,0.925-6.988,0.929-7.843
	c0.029-1.556-1.033-2.253-2.123-2.443c-1.093-0.219-2.344-0.141-3.083-0.336c-0.499-0.155-0.65-0.263-0.669-0.67
	c-0.009-3.42,1.566-3.852,5.274-8.777h1.201c1.145,0.869,4.028,2.688,6.673,4.638c2.72,1.96,5.132,4.224,5.054,5.237
	c0.021,0.641-0.598,1.74-0.617,2.667c-0.006,1.352,1.036,2.101,2.165,2.438c1.146,0.354,2.482,0.398,3.421,0.398
	c2.746-0.008,7.496-1.107,10.02-3.84l0.453-0.497l-0.67-0.057c-8.617-0.713-14.424-9.109-19.781-15.761
	c-0.208-0.257-0.521-0.426-0.936-0.529v-0.738c1.57-0.261,3.476-0.59,5.276-0.83c2.45,3.708,5.169,8.401,8.64,10.466
	c2.972,1.736,8.251,1.515,10.461,3.296c4.244,3.32,6.151,10.194,9.55,15.688c0.621,3.135,1.146,6.308,2.405,9.806l0.079,0.219h0.231
	h1.251l0.099-0.133c2.633-3.577,3.86-10.265,3.869-13.81C133.747,374.668,131.982,367.615,128.446,365.141z"/>
<path fill="#00559F" d="M69.037,318.174c11.419-11.328,22.918-20.954,22.983-28.711c-0.074-3.375-4.512-5.017-7.908-5.035
	c-6.316,0.006-11.317,4.002-15.486,7.933c-4.147,3.947-7.582,7.8-10.333,7.749c-2.088,0.086-5.441-4.373-6.271-6.068l-0.082-0.161
	l-0.181-0.016c-8.594-0.771-14.063-12.254-16.521-19.556l-0.643,0.078l-0.451,4.956l0.025,0.071
	c2.172,5.896,4.467,13.556,8.112,18.535c2.14,2.875,6.103,3.334,8.13,4.988c2.096,1.659,3.304,4.213,5.09,5.884l0.599,0.554
	l-0.044-0.814c-0.005-0.068-0.005-0.141-0.005-0.212c-0.021-2.646,2.594-5.78,5.84-8.184c3.225-2.411,7.072-4.108,9.231-4.098
	c1.617,0.046,3.199,0.468,3.227,2.962c0.093,8.873-19.42,28.344-25.407,31.436c-12.456,6.542-13.889,15.46-13.866,24.339
	l0.002,28.523l-1.857,15.569c0.005,0.208,0.131,1.032,0.395,1.912c0.294,0.837,0.593,1.786,1.482,1.87
	c1.641-0.107,3.736-3.058,5.806-6.148c2.02-3.112,3.741-6.304,3.975-7.053c1.131-3.64,2.608-10.497,2.61-14.743l-1.236-18.794
	C46.235,342.336,57.597,329.469,69.037,318.174z"/>
<path fill="#00559F" d="M46.732,255.618h8.89c1.074-0.069,2.377-1.512,3.84-2.917c1.376-1.417,2.925-2.803,3.312-2.727
	c5.995-0.013,11.709,4.465,16.957,9.012c5.265,4.529,10.001,9.141,14.435,9.174c4.572,0.074,8.78-0.833,9.259-9.061l0.022-0.353
	h-2.575c0,0.002-0.008,0-0.044,0c-0.952,0.01-5.543,1.238-6.198,1.228c-5.345,0.097-19.529-14.418-39.275-14.427
	c-1.593,0.002-5.03,0.227-8.278,0.741c-3.259,0.548-6.272,1.253-7.208,2.62c-0.649,1.072-4.4,12.985-4.432,16.161
	c0,0,0.002,0.006-0.002,0.057v3.501L36,268.048C38.377,265.521,41.718,255.52,46.732,255.618z"/>
<path fill="#00559F" d="M112.176,399.242l-0.195-0.146l-22.418,16.614c-1.117-1.472-2.219-4.052-3.371-6.311
	c-1.243-2.371-2.472-4.501-4.283-4.563h-6.725c-4.55,0.07-7.275-6.283-8.705-13.416c-1.443-7.096-1.671-14.804-1.671-17.114
	l0.307-9.706c0.311-3.45,0.426-6.969,1.001-10.309c0.288-1.857,1.746-4.401,1.784-5.407c-0.009-1.018-0.89-1.264-1.432-1.503
	c-0.583-0.293-1.014-0.501-1.043-1.633c-0.029-0.466,1.375-3.844,2.645-7.384l0.321-0.901l-0.811,0.511
	c-8.849,5.665-13.927,21.809-13.95,28.938c-0.022,2.873,1.104,3.943,2.116,4.81c0.996,0.894,1.872,1.58,1.905,4.252l-1.236,12.89
	c0.038,7.389,6.976,19.304,9.071,25.401c0.318,0.738,1.429,1.2,2.634,1.704c1.213,0.466,2.433,0.813,3.003,0.82
	c0.887-0.01,8.617-1.893,9.278-1.882c1.45-0.025,3.576,1.563,5.246,3.563c1.686,1.977,2.944,4.373,2.928,5.671
	c0.048,1.314-1.792,3.035-1.855,4.547c0.019,1.118,0.99,3.043,2.319,4.813c1.308,1.701,2.93,3.23,4.559,3.33l0.005,0.005h0.12h0.015
	h1.29l0.036-0.289c1.994-15.78,10.884-27.294,15.218-32.646c1.451-1.845,2.37-2.748,2.459-3.434
	C112.803,399.811,112.538,399.441,112.176,399.242z"/>
<path fill="#00559F" d="M143.803,299.022c-3.71,3.414-7.203,6.921-7.292,8.629c-0.052,0.818,0.535,1.049,0.851,1.222l0.126,0.082
	l0.143-0.04c0.672-0.188,1.148-0.279,1.504-0.277c0.419,0.005,0.687,0.103,1.038,0.381c-0.892,0.926-2.277,2.104-3.552,3.068
	c-1.348,1.056-2.758,1.872-2.873,1.819c-0.63-0.05-1.186-0.057-1.215-1.081c-0.047-0.468,0.961-1.737,2.053-2.838l0.092-0.097
	v-0.132v-1.291l-0.181-0.093c-0.904-0.461-1.685-0.742-2.447-0.742c-6.89,0.041-25.149,6.856-29.291,16.735
	c-1.036-1.77-1.535-2.697-2.264-3.713l-0.208-0.288l-0.273,0.229c-2.565,2.172-3.388,5.936-3.396,7.904
	c0.015,0.827,0.113,4.509,1.413,6.251c2.534,3.307,12.433,8.574,17.555,11.066c1.75,0.829,2.762,1.318,3.166,1.358
	c0.021,0.001,0.04,0.001,0.061,0.001c0.703,0,1.005-0.53,1.005-0.755l0.015-0.101l-0.044-0.092
	c-1.125-2.262-9.257-14.686-9.211-18.04c-0.095-0.852,3.696-6.805,4.719-7.349c1.008-0.67,4.24-0.521,5.86-1.441
	c1.219-0.719,5.624-4.255,7.963-4.508c0.277,2.113,0.216,3.254,0.595,4.052c0.479,0.895,1.4,0.946,3.265,0.951
	c6.55,0.019,13.516-0.986,18.553-10.091c0.994-1.828,2.62-3.268,2.65-5.136c0.015-1.061-0.856-1.499-1.638-1.619
	c-0.805-0.149-1.713-0.157-2.217-0.376c-0.334-0.161-0.456-0.276-0.475-0.667c-0.055-0.365,1.006-1.788,2.099-3.196
	c1.082-1.455,2.209-2.996,2.23-4.329c-0.003-0.432-0.009-0.883-0.261-1.28c-0.258-0.407-0.76-0.625-1.461-0.616
	c-0.681,0.046-1.751,0.81-3.342,1.987C147.563,295.752,145.659,297.344,143.803,299.022z"/>
<path fill="#FFFFFF" d="M202.575,351.268c-0.956,3.534-0.042,5.614-3.304,5.614c-1.38,0-1.813-0.378-3.1-3.189
	c-1.252,1.518-1.732,2.352-2.616,3.673c3.4,3.496,3.57,3.904,6.181,3.904c2.253,0,6.803-1.493,6.779-4.507l0.002-5.518
	C204.412,351.236,203.752,351.241,202.575,351.268z"/>
<path fill="#FFFFFF" d="M111.425,351.268c0.957,3.534,0.042,5.614,3.304,5.614c1.38,0,1.813-0.378,3.1-3.189
	c1.253,1.518,1.733,2.352,2.616,3.673c-3.4,3.496-3.57,3.904-6.181,3.904c-2.252,0-6.803-1.493-6.779-4.507l-0.002-5.518
	C109.588,351.236,110.248,351.241,111.425,351.268z"/>
<path fill="#FFFFFF" d="M201.81,371.835c0.126,0.149,0.268,0.291,0.422,0.427c0.017-0.006,0.032-0.012,0.049-0.018
	C202.112,372.117,201.967,371.972,201.81,371.835z"/>
<path fill="#FFFFFF" d="M221.158,354.929c0.208-0.257,0.521-0.426,0.936-0.529v-0.738c-1.571-0.261-3.477-0.59-5.277-0.83
	c-2.45,3.708-5.169,8.401-8.639,10.466c-2.973,1.736-8.252,1.515-10.462,3.296c-2.518,1.97-4.214,5.193-5.886,8.635
	c2.612-2.218,5.741-3.856,9.042-4.541l0.276-0.057l0.029,0.076l0.199-0.017C209.993,369.977,215.801,361.58,221.158,354.929z"/>
<path fill="#FFFFFF" d="M210.404,348.081c0.833,0.004,8.406,0.946,9.126,0.944c2.117,0.005,4.132-1.467,5.611-3.549
	c1.481-2.076,2.407-4.735,2.405-6.941c0-2.669-1.125-5.021-2.271-6.885c-1.142-1.9-2.311-3.133-2.369-4.088
	c0.013-0.878,0.587-1.316,1.178-1.665c0.24-0.236,0.533-0.383,0.837-0.497c0.61-0.401,1.068-0.857,1.081-1.916
	c0.03-1.783-2.186-5.819-4.905-10.065c-0.295-0.291-0.545-0.522-0.73-0.678l-0.335-0.135c-1.833-0.752-20.679-9.356-25.504-9.331
	c-1.363,0.031-3.065,0.565-3.074,2.81c-0.05,0.09,1.299,3.221,2.065,4.105l0.038,0.046l0.021,0.059
	c0.029,0.088,0.062,0.166,0.092,0.253c7.254,2.902,15.045,7.789,17.573,13.82c1.036-1.77,1.535-2.697,2.264-3.713l0.208-0.288
	l0.273,0.229c2.565,2.172,3.388,5.936,3.396,7.904c-0.015,0.827-0.113,4.509-1.413,6.251c-2.534,3.307-12.433,8.574-17.555,11.066
	c-1.75,0.829-2.762,1.318-3.165,1.358c-0.021,0.001-0.04,0.001-0.061,0.001c-0.614,0-0.907-0.395-0.976-0.646
	c-2.92,2.887-7.442,6.267-7.399,10.036c-0.014,0.6,1.236,5.225,1.494,6.801C191.283,350.673,199.161,348.026,210.404,348.081z"/>
<path fill="#FFFFFF" d="M224.438,415.711c1.117-1.472,2.219-4.052,3.372-6.311c1.243-2.371,2.471-4.501,4.282-4.563h6.725
	c4.55,0.07,7.275-6.283,8.705-13.416c1.444-7.096,1.672-14.804,1.672-17.114l-0.307-9.706c-0.291-3.232-0.424-6.519-0.911-9.669
	l-0.268,0.015c-3.591,0.221-4.896,2.4-5.532,5.223c-0.613,2.817-0.397,6.157-0.8,8.373l-0.088,0.481l-0.051-0.031
	c0.188,1.62,0.275,3.334,0.269,5.134c-0.012,2.716-3.215,12.216-3.404,12.896c0.015,0.172,0.187,0.333,0.491,0.56
	c0.291,0.227,0.738,0.527,0.749,1.123c-0.027,2.938-3.048,7.416-6.682,11.289c-2.724,2.86-5.75,5.358-8.269,6.465l0.076,0.068
	l-0.362,0.049c-0.759,0.306-1.47,0.484-2.104,0.492c-0.036-0.001-0.074-0.01-0.11-0.013c-1.189,0.296-2.563,0.634-3.09,0.64
	c-3.55-0.017-7.463-2.002-11.299-4.559c-0.01,0.001-0.018,0.002-0.029,0.003L224.438,415.711z"/>
<path fill="#FFFFFF" d="M112.191,371.835c-0.157,0.137-0.303,0.282-0.471,0.409c0.017,0.006,0.032,0.012,0.049,0.018
	C111.924,372.126,112.065,371.984,112.191,371.835z"/>
<path fill="#FFFFFF" d="M116.284,366.593c-2.21-1.781-7.489-1.56-10.461-3.296c-3.471-2.064-6.189-6.758-8.64-10.466
	c-1.801,0.24-3.706,0.569-5.276,0.83v0.738c0.414,0.104,0.728,0.272,0.936,0.529c5.357,6.651,11.164,15.048,19.781,15.761
	l0.199,0.017l0.029-0.076l0.276,0.057c3.3,0.685,6.43,2.323,9.041,4.541C120.498,371.786,118.803,368.563,116.284,366.593z"/>
<path fill="#FFFFFF" d="M89.079,325.4c0.304,0.114,0.597,0.261,0.837,0.497c0.591,0.349,1.165,0.787,1.178,1.665
	c-0.059,0.955-1.228,2.188-2.369,4.088c-1.146,1.863-2.271,4.216-2.271,6.885c-0.002,2.206,0.924,4.865,2.405,6.941
	c1.479,2.082,3.495,3.554,5.611,3.549c0.72,0.002,8.293-0.94,9.126-0.944c11.243-0.055,19.121,2.592,22.096,15.287
	c0.258-1.576,1.506-6.201,1.493-6.801c0.043-3.77-4.479-7.149-7.398-10.036c-0.068,0.252-0.362,0.646-0.976,0.646
	c-0.021,0-0.04,0-0.061-0.001c-0.404-0.04-1.416-0.529-3.166-1.358c-5.122-2.492-15.021-7.76-17.555-11.066
	c-1.3-1.742-1.398-5.424-1.413-6.251c0.009-1.969,0.831-5.732,3.396-7.904l0.273-0.229l0.208,0.288
	c0.729,1.016,1.228,1.943,2.264,3.713c2.529-6.031,10.32-10.918,17.573-13.82c0.03-0.087,0.063-0.165,0.092-0.253l0.021-0.059
	l0.038-0.046c0.767-0.885,2.115-4.016,2.065-4.105c-0.009-2.244-1.711-2.778-3.073-2.81c-4.826-0.025-23.672,8.579-25.505,9.331
	l-0.335,0.135c-0.186,0.155-0.436,0.387-0.729,0.678c-2.721,4.246-4.938,8.282-4.906,10.065
	C88.011,324.543,88.469,324.999,89.079,325.4z"/>
<path fill="#FFFFFF" d="M92.109,407.055c-0.036,0.003-0.074,0.012-0.11,0.013c-0.635-0.008-1.346-0.187-2.104-0.492l-0.362-0.049
	l0.076-0.068c-2.519-1.106-5.545-3.604-8.269-6.465c-3.634-3.873-6.654-8.352-6.682-11.289c0.011-0.596,0.458-0.896,0.749-1.123
	c0.305-0.227,0.477-0.388,0.491-0.56c-0.189-0.68-3.392-10.18-3.403-12.896c-0.007-1.8,0.081-3.514,0.268-5.134l-0.05,0.031
	l-0.088-0.481c-0.402-2.216-0.187-5.556-0.8-8.373c-0.637-2.822-1.942-5.002-5.533-5.223l-0.267-0.015
	c-0.487,3.15-0.62,6.437-0.911,9.669l-0.307,9.706c0,2.311,0.228,10.019,1.671,17.114c1.43,7.133,4.155,13.486,8.705,13.416h6.725
	c1.812,0.063,3.04,2.192,4.283,4.563c1.152,2.259,2.254,4.839,3.371,6.311l16.964-12.572c-0.011-0.001-0.02-0.002-0.029-0.003
	c-3.836,2.557-7.748,4.542-11.299,4.559C94.67,407.688,93.298,407.351,92.109,407.055z"/>
</svg>
