<?xml version="1.0" encoding="utf-8"?>
<!-- Generator: Adobe Illustrator 23.0.3, SVG Export Plug-In . SVG Version: 6.00 Build 0)  -->
<svg version="1.1" id="Ñëîé_1" xmlns="http://www.w3.org/2000/svg" xmlns:xlink="http://www.w3.org/1999/xlink" x="0px" y="0px"
	 viewBox="0 0 595.3 841.9" style="enable-background:new 0 0 595.3 841.9;" xml:space="preserve">
<style type="text/css">
	.st0{fill:#E22F2C;}
	.st1{fill:#DAD7C5;}
</style>
<g>
	<g>
		<path class="st0" d="M124.7,730.7h168.6v-72.2h-197c0,0,0.1,1.4,0.9,4.7c0.4,1.5,0.8,3,1.2,4.5c6.7,25.4,17.1,46.4,24.3,59.6
			C123.3,728.6,124.7,730.7,124.7,730.7z"/>
		<path d="M293.2,656.4H94.1l0.1,2.2c0,0.2,0.1,1.7,0.9,5.1l1.2,4.6c5.3,19.9,13.5,40.1,24.5,60.1l2.7,4.5l1.2,0h170.7v-76.4H293.2z
			 M291.1,660.6c0,3.8,0,64.1,0,68c-4.1,0-163,0-165.3,0c-0.6-1-1.4-2.3-1.4-2.3c-10.8-19.6-19-39.5-24.1-59.1l-1.1-4.5
			c-0.2-0.8-0.3-1.5-0.5-2.1C103.4,660.6,287.1,660.6,291.1,660.6z"/>
	</g>
	<g>
		<path class="st1" d="M81.7,647.5c-1.8-10.7-2.9-22-2.9-33.6c0-48.8,12.7-78.2,31.7-115.5c19.1-37.5,31.1-52,32.7-96.6
			c0.5-15.3,1.1-45.5-16.9-84c-13.7-29.4-39.3-53.4-39.3-53.4V136.9h45.8v59.6h45.8v-59.6h45.8v59.6h45.8v-59.6h45.8l0,59.6H362
			v-59.6h45.8v59.6h45.9v-59.6h45.8v127.4c0,0-25.6,24-39.3,53.4c-18,38.5-17.4,68.7-16.9,84c1.6,44.6,13.6,59.1,32.7,96.6
			c19,37.3,31.7,66.7,31.7,115.5c0,11.2-1,22-2.7,32.4L81.7,647.5z"/>
		<path d="M499.5,132.7h-50c0,0,0,52.3,0,59.6c-6.2,0-31.2,0-37.5,0c0-7.3,0-59.6,0-59.6h-54.2c0,0,0,52.3,0,59.6
			c-6.2,0-31.2,0-37.4,0c0-7.3,0-59.6,0-59.6h-54.2c0,0,0,52.3,0,59.6c-6.2,0-31.2,0-37.4,0c0-7.3,0-59.6,0-59.6h-54.2
			c0,0,0,52.3,0,59.6c-6.2,0-31.2,0-37.4,0c0-7.3,0-59.6,0-59.6H82.7v133.4l1.3,1.2c0.3,0.2,25.2,23.9,38.4,52.2
			c18,38.6,17,69.1,16.5,82.1c-1.3,36.4-9.6,52.1-23.5,78l-8.8,16.8c-18.8,36.9-32.1,66.9-32.1,117.4c0,71.4,39.2,128.6,40.8,131
			l1.3,1.8h353.1l1.3-1.8c1.7-2.4,40.8-59.7,40.8-131c0-50.5-13.3-80.5-32.1-117.4l-8.8-16.8c-13.8-26-22.2-41.7-23.5-78
			c-0.5-13-1.5-43.4,16.5-82.1c13.2-28.3,38.1-51.9,38.4-52.2l1.3-1.2l0-133.4H499.5z M495.3,141.1c0,7.7,0,118.1,0,121.4
			c-5.5,5.4-26.6,27.1-38.9,53.5c-15.3,32.9-17.5,60.1-17.5,76.4c0,3.8,0.1,7,0.2,9.5c1.4,38.3,10.5,55.6,24.4,81.7l8.7,16.7
			c18.3,35.8,31.2,65,31.2,113.6c0,61.9-31.6,114.2-38.2,124.4c-4.4,0-339.8,0-344.2,0C114.6,728.1,83,675.8,83,613.9
			c0-48.6,12.9-77.7,31.2-113.6l8.7-16.7c13.9-26.1,23.1-43.4,24.4-81.7c0.1-2.5,0.2-5.7,0.2-9.5c0-16.3-2.1-43.5-17.5-76.4
			c-12.3-26.3-33.4-48.1-38.9-53.5c0-3.3,0-113.7,0-121.4c6.2,0,31.2,0,37.4,0c0,7.3,0,59.6,0,59.6h54.2c0,0,0-52.3,0-59.6
			c6.2,0,31.2,0,37.4,0c0,7.3,0,59.6,0,59.6h54.2c0,0,0-52.3,0-59.6c6.2,0,31.2,0,37.4,0c0,7.3,0,59.6,0,59.6h54.2
			c0,0,0-52.3,0-59.6c6.2,0,31.2,0,37.4,0c0,7.3,0,59.6,0,59.6h54.2c0,0,0-52.3,0-59.6C464.1,141.1,489.1,141.1,495.3,141.1z"/>
		<rect x="80.4" y="642.8" width="424.2" height="8.4"/>
	</g>
	<g>
		<g>
			<rect x="271.9" y="246.9" class="st1" width="42.7" height="61.9"/>
			<path d="M314.6,242.7h-46.9V313h51.1v-70.4H314.6z M310.4,304.6c-6.1,0-28.2,0-34.3,0c0-6.8,0-46.8,0-53.6c6.1,0,28.2,0,34.3,0
				C310.4,257.9,310.4,297.9,310.4,304.6z"/>
			<path d="M286.4,260.7c-1.5,0.1-2.5,1.6-2.5,3.1c0,1.6,0.8,3.2,2.3,3.2s3.1-1,3.1-3.1C289.1,261.9,288.3,260.6,286.4,260.7z"/>
			<path d="M299.6,263c-1.5-0.1-3,1.7-3,3s0.8,3,2.8,3.1c2,0.1,2.9-1.1,3.1-2.8C302.6,264.6,301.2,263.1,299.6,263z"/>
			<path d="M291,269.7c-1.2,0-2.9,1.6-3,3.9c-0.1,2.4,1,4.2,2.7,4.2c1.8,0,3.5-1,3.5-3.6C294.2,271.7,292.5,269.7,291,269.7z"/>
			<path d="M283.2,272.6c-1.1,0.1-2.7,1.8-2.8,4c-0.1,2.2,1.1,4.3,2.7,4.2c1.6-0.1,3-1.9,3-3.8S284.5,272.5,283.2,272.6z"/>
			<path d="M292.3,280.3c-1.5-0.1-3.7,1.8-3.7,3.6s1.1,4,3.2,4.2c1.3,0.1,3.4-1.2,3.5-3.5C295.4,282.3,294.1,280.4,292.3,280.3z"/>
			<path d="M297.7,273.5c-1.3,0-2.6,1.6-2.5,3.6c0.1,2,1.7,3.8,3.7,3.9c1.4,0.1,2.4-1.2,2.4-3.1
				C301.3,276.2,299.6,273.5,297.7,273.5z"/>
			<path d="M306.5,269c-1.4-0.2-4,2.4-4,4c0,1.7,1.5,3.6,2.9,3.5c1.4-0.1,3.1-1.2,3.3-3.2C308.8,271.3,307.9,269.2,306.5,269z"/>
			<path d="M306.5,279c-1.3,0-3.8,2.5-3.8,3.9c0,2,1.5,3.3,2.9,3.3c1.4,0,3.1-0.7,3.1-3.2C308.7,280.4,307.8,279,306.5,279z"/>
			<path d="M299.6,285.4c-1.6-0.1-3.2,2.2-3.2,3.6c0,1.4,0.9,4,2.6,3.9c1.8-0.2,3.9-1.2,3.9-3.1
				C302.8,287.8,301.4,285.5,299.6,285.4z"/>
			<path d="M284.1,284.6c-1.5-0.1-3.7,2.5-3.8,4.4c-0.1,1.8,1.8,3.3,3.3,3.3s3.3-1.8,3.4-3.8C287.1,286.6,286.3,284.7,284.1,284.6z"
				/>
			<path d="M279.6,282.5c0.2-1.6-1.2-3.8-2.5-3.8c-1.2,0-1.9,0-1.9,0l-0.1,8.5C275.1,287.2,279.1,286,279.6,282.5z"/>
			<path d="M291.6,289.6c-1.1,0-3.8,2.4-4.1,4.7c-0.4,2.3,0.6,5,2.9,5s4.4-2,4.6-4.8C295.3,291.7,293.6,289.6,291.6,289.6z"/>
			<path d="M282.2,293.6c-1.3,0.1-3.1,2-3.1,4.9c0,2.9,0,2.9,0,2.9l8-0.8c0,0-0.5-1.9-1.2-3.9C284.9,293.8,284.2,293.4,282.2,293.6z
				"/>
			<path d="M301.1,293.8c-1,0-3,2.1-3.1,4.1c-0.1,2-0.1,2-0.1,2l8,0.4C306,300.4,305.8,294,301.1,293.8z"/>
			<path d="M310.9,286.1c0,0-2.4,1.6-3.5,3.6c-1.1,2-0.8,3.1,0.7,4.7c1.5,1.6,3.3,0.9,3.3,0.9L310.9,286.1z"/>
			<path d="M293.3,254.4c-1.6-0.1-2.6,1.9-2.7,3.4c-0.1,1.5,0.8,3.1,2.1,3.1s2.5-1.4,2.7-3.6C295.6,255.1,294.8,254.5,293.3,254.4z"
				/>
		</g>
		<g>
			<path d="M355.1,380.9v62c0,34.2,5.9,76.6,15.3,110.5c8.4,30,19.8,51.1,26.1,61.2c-11.5,0-52.1,0-58.5,0
				c-0.5-6.7-2.6-20-11.4-29.8c-7.8-8.7-16-14.1-32.9-14.3l-0.8,0c-16.9,0.2-25.1,5.7-32.9,14.3c-8.8,9.8-10.9,23-11.4,29.8
				c-6.3,0-46.9,0-58.5,0c6.2-10.1,17.7-31.2,26.1-61.2c9.4-33.9,15.3-76.3,15.3-110.5v-62H223v62c0,33-5.9,75.5-15,108.2
				c-11.3,40.6-29,64.9-29.1,65.1l-4.9,6.7l8.3,0h74.6l-0.1-4.3c0-0.2-0.3-17.4,9.4-28.2c6.6-7.3,12.8-11.4,26.7-11.6l0.7,0
				c13.8,0.2,20.1,4.2,26.7,11.6c9.7,10.8,9.4,28.1,9.4,28.2l-0.1,4.3l4.3,0h78.6l-4.9-6.7c-0.2-0.2-17.8-24.6-29.1-65.1
				c-9.1-32.7-15-75.2-15-108.2v-62H355.1z"/>
			<rect x="293.2" y="384.1" width="7.5" height="190.2"/>
			<path d="M278,510.2h-3.9V568h22.6v-8.4c0,0-10.7,0-15.6,0c0-6.4,0-34.6,0-40.9c4.9,0,15.6,0,15.6,0v-8.4H278z"/>
			<path d="M339.5,457.2c0,0.1,2.3,12.7,2.6,28.2c0,0.6,0,1.2,0,1.8c0,7.3-0.7,15.2-1.1,19.7c-4.2,0-11.2,0-11.2,0v8.4h18.7l0.5-3.7
				c0.1-0.6,1.8-14.3,1.6-26.3c-0.3-16.2-2.6-29-2.7-29.6L339.5,457.2z"/>
			<rect x="322.9" y="458.8" width="20.5" height="8.4"/>
			<path d="M355.5,598.9c-1.6,0-3.4-1.8-16.5-40.7c-14.6-43.2-22.6-124.2-22.6-124.2l10,8.1c0,0-2.3,23.2,3.7,57.2
				c5.5,31.5,10.5,52.2,17.3,73.8C352,587.9,357,598.9,355.5,598.9z"/>
			<path d="M237.6,597.6c-2.4,0,0-4.5,5.5-20.2c4.9-13.9,16.8-54.6,19.7-102.4s2.6-68.5,2.6-68.5l7.6-8.4c0,0,0.8,33.1-3.9,76.1
				c-4.7,43.1-18.4,93.7-22.3,104.7S240.2,597.6,237.6,597.6z"/>
		</g>
		<g>
			<path class="st1" d="M218.9,381.9c0,0-0.1-13.2,0.5-20.8c1.6-19.6,16-57.8,73.4-58.1h1c57.4,0.3,71.8,38.5,73.4,58.1
				c0.6,7.7,0.5,20.8,0.5,20.8H218.9z"/>
			<path d="M215.2,360.7c-0.6,7.8-0.5,20.7-0.5,21.2l0,4.2h157.1l0-4.2c0-0.5,0.1-13.4-0.5-21.2c-2.4-28.4-24.1-61.6-77.6-62h-1
				C239.3,299.1,217.5,332.3,215.2,360.7z M223.5,361.4c0.7-9,7.6-53.9,69.2-54.2h1c61.6,0.4,68.5,45.3,69.2,54.2
				c0.4,4.8,0.5,11.8,0.5,16.3c-7.7,0-132.7,0-140.4,0C223.1,373.2,223.2,366.2,223.5,361.4z"/>
			<path d="M353.5,354.9c-1.5,0.1-3.7,1.9-3.7,4.1s1.2,3.1,2.9,3.1s3.4-1.1,3.4-3.5C356.2,356.2,355.5,354.8,353.5,354.9z"/>
			<path d="M343.7,357c-1.2-0.1-3.4,1.4-3.4,3.1c0,1.7,1.9,3.3,3.1,3.3c1.2,0,3.1-0.8,3.1-3.3C346.6,357.5,345.1,357.1,343.7,357z"
				/>
			<path d="M347.3,365.5c-1.3-0.1-3.6,1.3-3.6,3.4s1.3,3.9,3.3,3.9c2,0,3.9-1.4,3.8-3.4C350.8,367.4,349.3,365.6,347.3,365.5z"/>
			<path d="M352.2,374.1c-1.6,0-2.7,1.7-2.7,3.3s0,1.7,0,1.7l6.5,0.1C356,379.1,355.7,374.1,352.2,374.1z"/>
			<path d="M342.6,372.6c-1.9,0-3.8,1.9-4.2,4.2c-0.4,2.3-0.4,2.3-0.4,2.3l7.4-0.3C345.3,378.8,346,372.7,342.6,372.6z"/>
			<path d="M336.7,365c-1.6,0-3.2,1.8-3.2,4c0,2.2,2.3,3.9,4,3.9c1.8,0,2.5-1.6,2.5-4S338.4,365,336.7,365z"/>
			<path d="M325.3,366.4c-2-0.1-2.9,2.9-2.9,4.8c0,1.9,0,1.9,0,1.9l4.6,3.8c0,0,3-1.1,3-4.3C329.9,369.3,328.8,366.5,325.3,366.4z"
				/>
			<path d="M323.4,358.3c0,0-0.5,3.2,0.5,4.5c1.1,1.3,4.6,0.8,4.6,0.8L323.4,358.3z"/>
			<path d="M321,356.2c0,0-2.6,0.4-3.9-0.6c-1.2-1-0.8-4.5-0.8-4.5L321,356.2z"/>
			<path d="M315.3,350c0,0-1.8,0.7-2.7-0.3c-1-1-0.3-3.8-0.3-3.8L315.3,350z"/>
			<path d="M310.9,356.5c-1.6,0.1-3.9-1.5-3.9-3.2c0-1.8,1.7-3.9,3.1-3.9s3.5,1.7,3.5,3.6C313.6,354.7,312.4,356.4,310.9,356.5z"/>
			<path d="M309.1,358.2c-1.8,0.1-2.5,1.8-2.5,3.7c0,1.8,1.4,2.7,2.9,2.6c2.3-0.1,2.9-1,3-2.7C312.6,360.1,311.8,358.1,309.1,358.2z
				"/>
			<path d="M317.9,357.4c-1.9,0-3.1,1.6-3,3.3c0.1,1.8,0.5,3.2,3,3.2s3.2-1.7,3.2-3.4C321.2,358.8,319.2,357.4,317.9,357.4z"/>
			<path d="M312.3,365.5c-1.7-0.2-3.5,1.6-3.5,4s0.5,3.7,2.8,3.6c2.3-0.1,3.8-1.4,3.9-3.7C315.7,367.2,314.4,365.8,312.3,365.5z"/>
			<path d="M299.6,356.6c0,0,2.1-0.9,3.6,0.3c1.5,1.1,1.5,3.8-0.3,5.2c-1.8,1.4-3.5,1.8-4.6,0.8c-1-1-1.2-4.1-1.2-4.1L299.6,356.6z"
				/>
			<path d="M303.8,365.1c-2-0.3-2.9,1.5-3.3,3.2c-0.4,1.7-0.4,3.2-0.4,3.2l4.3,2.8c0,0,1.7-1.9,1.7-4.7
				C306,366.8,305.4,365.3,303.8,365.1z"/>
			<path d="M297.4,367.6c0,0,0.8-1.3,0.1-2.9c-0.7-1.6-3.1-3-3.1-3l-2.1,1.9L297.4,367.6z"/>
			<path d="M290.5,378.5c0,0-1.6-5.1-4.5-5c-2.9,0.1-5.1,4.9-5.1,4.9L290.5,378.5z"/>
			<path d="M290.3,367.7c0,0-1.1,1.8-0.4,4.1c0.7,2.3,1.5,3,2.9,3.1c1.4,0.1,2.9-2,2.9-2L290.3,367.7z"/>
			<path d="M271.7,357.8c-2.2,0-2.5,2.4-2.5,3.8c0,1.5,1.1,3.7,3.4,3.6c2.3-0.1,3.6-2.1,3.5-3.3C276,360.7,274.2,357.8,271.7,357.8z
				"/>
			<path d="M261.2,357.5c-1.9,0.3-3.9,2.5-3.9,4.8s0.3,3.4,3.1,3.4c2.8,0,4.6-2.2,4.9-4.7C265.7,358.5,263.1,357.3,261.2,357.5z"/>
			<path d="M267.7,347.9c-1.6,0.2-3.5,2.7-3.5,4.6s1.9,3.7,3.7,3.6c1.8-0.1,3.4-1.7,3.4-4.3C271.3,349.2,269.8,347.6,267.7,347.9z"
				/>
			<path d="M262,343.9c0,0,1.3,2.6,0.4,5c-0.9,2.4-2.5,2.8-4.4,2.4s-2.2-0.7-2.2-0.7L262,343.9z"/>
			<path d="M275.4,352.8c0,0-0.7,2.7,1.1,4.5s4.5,1.4,4.5,1.4L275.4,352.8z"/>
			<path d="M283,360.6c0,0-2.5-0.3-3.5,1.9c-1,2.2,1.5,5.4,1.5,5.4l5.2-4.8L283,360.6z"/>
			<path d="M280.8,367.9c0,0-2.3-1.8-3.9-1c-1.7,0.9-2,3-1.6,3.8c0.4,0.9,0.8,1.4,0.8,1.4L280.8,367.9z"/>
			<path d="M274.4,373.7c0,0,0.3-3-1.3-4c-1.7-1-4.1-1.7-5.8-0.4c-1.7,1.2-1.6,2.7-0.4,4.1c2.5,3.2,5.9,2.5,5.9,2.5L274.4,373.7z"/>
			<path d="M262.8,376.7c0,0,1.8-2,0.6-5c-0.8-1.9-2.7-2.9-4.3-2.6c-1.6,0.3-2.9,1.7-2.9,1.7L262.8,376.7z"/>
			<path d="M284.5,355.3c0,0,0.6-2.1-1.2-4.2c-1.8-2.1-4.6-1.8-4.6-1.8L284.5,355.3z"/>
			<path d="M286.3,356.4c0,0-0.1-2.3,2.8-3.2c2.6-0.9,5.4,0.9,5.4,0.9l-4.6,5.5L286.3,356.4z"/>
			<path d="M287,332c-1.7,0-2.9,1.5-2.9,3.4c0,1.9,1.3,3.6,2.9,3.6c1.6,0,3.4-0.7,3.5-3.2C290.6,333.2,289.1,332,287,332z"/>
			<path d="M290.5,322.5c-1.8,0.1-3.2,1.5-3.2,3.4c0,1.9,0.9,3.9,2.8,3.9c1.9,0,3.2-0.7,3.2-3.1
				C293.3,324.5,292.3,322.4,290.5,322.5z"/>
			<path d="M299,316.4c-1.5,0.1-3.7,1.8-3.4,3.8c0.3,1.9,1,3.1,3.1,3.1c2.1-0.1,3.1-1.3,3.1-3.5C301.9,317.5,300.9,316.3,299,316.4z
				"/>
			<path d="M290.7,310.8c-1.6,0.1-2.7,2.2-2.3,3.5c0.4,1.3,2,3.2,3.9,3.1c1.9-0.2,2.1-2.2,1.8-4C294,311.5,292.3,310.7,290.7,310.8z
				"/>
			<path d="M279.2,327.1c0,0,1.8,3.3,0,5.5s-5.3,0.1-5.3,0.1L279.2,327.1z"/>
			<path d="M279.5,336.7c-1.7,0.2-3.6,1.5-3.5,3.5c0.1,2,1.9,3.6,3.5,3.5c1.6-0.1,3-1.6,2.9-3.8
				C282.3,337.8,281.2,336.5,279.5,336.7z"/>
			<path d="M287.3,343c-2.1,0.1-2.6,1.6-2.5,3.7c0.1,2.1,1.6,3.3,3.5,3.2c1.9-0.1,3.4-1.4,2.6-3.8
				C290.1,343.8,288.5,342.9,287.3,343z"/>
			<path d="M296,337.8c-1.3,0-3.1,1.6-3.1,3.6c0,2,0.9,3.7,3,3.7c2.1,0,3.1-1.6,3.1-4S297.4,337.8,296,337.8z"/>
			<path d="M300.3,334.6c0,0-1.4,2.7,0,4.5c1.4,1.8,4.1-0.1,4.1-0.1L300.3,334.6z"/>
			<path d="M304.8,343.7c0,0-4.1-1.2-5.6,1c-1.5,2.2,0.4,4.2,0.4,4.2L304.8,343.7z"/>
			<path d="M298.8,349.6c0,0-1.8-1.7-3.5-0.2s-0.6,4.4-0.6,4.4L298.8,349.6z"/>
			<path d="M276.9,347.6c0,0,1.9-1.2-0.3-3.9c-2.2-2.7-4.3-0.7-4.3-0.7L276.9,347.6z"/>
			<path d="M297.5,331c0,0-1.1-1.9,1-3.9c2.1-2,3.5-0.6,3.5-0.6L297.5,331z"/>
			<path d="M307.7,321c0,0-1.2-2.4,0.8-4.1c2-1.8,3.9-0.3,3.9-0.3L307.7,321z"/>
			<path d="M307.5,316.2c1.1-0.9,0.9-3.2-0.3-4.4c-1.1-1.2-3.5-1.4-3.9-0.2c-0.4,1.2-0.4,2.7,0.8,3.8
				C305.3,316.5,306.5,317.1,307.5,316.2z"/>
			<path d="M306.7,321.8c0,0-1.8-0.8-3.1,0.7c-1.4,1.5-0.7,3.5-0.7,3.5L306.7,321.8z"/>
			<path d="M249,347.2c0,0-2.6,1.5-4.3,0c-1.7-1.5-0.2-4.8-0.2-4.8L249,347.2z"/>
			<path d="M237.1,344.6c-1.7-0.3-3.5,1.2-3.9,3.2c-0.4,2,0.2,4.5,2.4,4.5c2.2,0,4.1-1.7,4.2-4.3
				C239.8,345.5,238.5,344.8,237.1,344.6z"/>
			<path d="M228.9,356.4c-2.6-0.3-3.2,2.8-3.4,4.7c-0.3,1.9,1.3,4.2,2.9,3.9c1.6-0.3,4-1.8,3.9-4.8
				C232.3,357.3,230.6,356.6,228.9,356.4z"/>
			<path d="M242.1,354.4c-1.8-0.2-5.2,1.8-5.2,5.4c0,3.6,1.3,3.4,3.6,3.4c2.3,0,4.2-2.1,4.1-5.7
				C244.6,354.9,243.5,354.6,242.1,354.4z"/>
			<path d="M250.5,355.3c-1.6-0.3-3.2,1.5-3.5,4.4c-0.2,2.6,0.4,3.1,0.4,3.1l3.8,1.8c0,0,1.6-1.9,1.6-5
				C252.7,356.6,251.6,355.5,250.5,355.3z"/>
			<path d="M233.9,365c-1.5,0-3.5,0.8-3.5,4.7s0.9,4.3,3,4.3s3.1-1.8,3.3-4.4C237,367.1,235.8,365,233.9,365z"/>
			<path d="M226.8,370.7c-1.5,0.4-2.6,2.3-2.6,4.5c0,2.2,0.3,3.3,2.3,3.3c2,0,2.7-0.9,2.7-3.9C229.1,371.4,228,370.3,226.8,370.7z"
				/>
			<path d="M356.2,367.9c-1.4-0.2-3.1,1.4-3.1,3c0,1.6,0.5,3.6,2.5,3.6c2,0,3.6-0.9,3.6-3.3C359.1,368.7,357.5,368.1,356.2,367.9z"
				/>
		</g>
		<g>
			<polygon class="st1" points="386.4,500.2 416.9,469.5 320.9,374.5 290.4,405.2 			"/>
			<path d="M318.7,372.3L286,405.2l100.4,99.4l34.9-35.1l-100.5-99.4L318.7,372.3z M320.9,379c4.2,4.1,87.3,86.4,91.5,90.6
				c-3.5,3.5-22.5,22.6-26,26.2c-4.2-4.1-87.3-86.4-91.5-90.6C298.4,401.6,317.4,382.5,320.9,379z"/>
			<polygon class="st1" points="254.4,349.2 284.8,318.6 193.8,228.6 163.4,259.2 			"/>
			<path d="M191.6,226.4l-32.7,32.9l95.5,94.4l34.9-35.1l-95.5-94.4L191.6,226.4z M193.8,233c4.1,4.1,82.4,81.5,86.5,85.6
				c-3.5,3.5-22.5,22.6-26,26.1c-4.1-4.1-82.4-81.5-86.5-85.6C171.3,255.6,190.3,236.6,193.8,233z"/>
			
				<rect x="293.4" y="270.9" transform="matrix(0.7099 -0.7043 0.7043 0.7099 -98.3895 346.124)" class="st1" width="155" height="43.2"/>
			<path d="M408.5,220.3L296.2,331.7l34.9,35.1l114.5-113.6l-34.9-35.1L408.5,220.3z M410.7,227c3.5,3.5,22.5,22.6,26,26.2
				c-4.2,4.2-101.4,100.6-105.6,104.8c-3.5-3.5-22.5-22.6-26-26.2C309.3,327.6,406.5,231.2,410.7,227z"/>
			
				<rect x="145.7" y="406.1" transform="matrix(0.7098 -0.7044 0.7044 0.7098 -239.245 274.6418)" class="st1" width="136.1" height="43.2"/>
			<path d="M244.6,362.2l-98.9,98.1l34.9,35.1l101.1-100.3L246.9,360L244.6,362.2z M246.8,368.9c3.5,3.5,22.5,22.6,26,26.2
				c-4.2,4.1-88,87.3-92.2,91.4c-3.5-3.5-22.5-22.6-26-26.2C158.8,456.2,242.7,373,246.8,368.9z"/>
			<rect x="119.4" y="353.5" transform="matrix(0.7099 -0.7043 0.7043 0.7099 -165.4054 311.627)" width="352.4" height="6.3"/>
			<rect x="287.3" y="200" transform="matrix(0.7034 -0.7108 0.7108 0.7034 -172.7169 314.4636)" width="6.3" height="328.4"/>
			<rect x="334.3" y="321.2" transform="matrix(0.7099 -0.7043 0.7043 0.7099 -138.5438 335.0398)" width="6.3" height="29.1"/>
			<rect x="217.7" y="283.4" transform="matrix(0.7052 -0.709 0.709 0.7052 -134.8017 248.8762)" width="28.5" height="6.3"/>
			<rect x="342.4" y="313.1" transform="matrix(0.7099 -0.7043 0.7043 0.7099 -130.5815 338.4381)" width="6.3" height="29.3"/>
			<rect x="350.2" y="305.3" transform="matrix(0.7099 -0.7044 0.7044 0.7099 -122.5961 341.6423)" width="6.3" height="28.7"/>
			<rect x="410.4" y="245.5" transform="matrix(0.7099 -0.7043 0.7043 0.7099 -63.2436 366.719)" width="6.3" height="29.2"/>
			<rect x="419" y="237.1" transform="matrix(0.7099 -0.7044 0.7044 0.7099 -54.7339 370.305)" width="6.3" height="29"/>
			<rect x="229.4" y="385" transform="matrix(0.7098 -0.7044 0.7044 0.7098 -213.7155 279.5988)" width="6.3" height="28.5"/>
			<rect x="237.8" y="376.4" transform="matrix(0.7098 -0.7044 0.7044 0.7098 -205.2572 283.0739)" width="6.3" height="28.6"/>
			<rect x="245.9" y="367.7" transform="matrix(0.7098 -0.7044 0.7044 0.7098 -197.0232 286.3444)" width="6.3" height="29.2"/>
			<rect x="204.9" y="408.9" transform="matrix(0.7098 -0.7044 0.7044 0.7098 -237.8469 269.379)" width="6.3" height="29"/>
			<rect x="212.9" y="401.4" transform="matrix(0.7099 -0.7044 0.7044 0.7099 -230.0655 272.7618)" width="6.3" height="28.4"/>
			<rect x="221" y="392.9" transform="matrix(0.7098 -0.7044 0.7044 0.7098 -221.9231 276.1355)" width="6.3" height="29"/>
			<rect x="189.5" y="424.3" transform="matrix(0.7099 -0.7043 0.7043 0.7099 -253.0608 262.9998)" width="6.3" height="28.7"/>
			<rect x="197.2" y="416.6" transform="matrix(0.7099 -0.7044 0.7044 0.7099 -245.5011 266.1782)" width="6.3" height="29"/>
			<rect x="181.5" y="431.9" transform="matrix(0.7098 -0.7044 0.7044 0.7098 -260.9289 259.5802)" width="6.3" height="29.1"/>
			<rect x="326.3" y="329.2" transform="matrix(0.7099 -0.7043 0.7043 0.7099 -146.5438 331.7791)" width="6.3" height="29.1"/>
			<rect x="401.7" y="254.3" transform="matrix(0.7099 -0.7043 0.7043 0.7099 -71.8344 363.0969)" width="6.3" height="29"/>
			<rect x="393.4" y="262.6" transform="matrix(0.7099 -0.7043 0.7043 0.7099 -80.2449 359.7312)" width="6.3" height="29.4"/>
			<rect x="358.5" y="297.1" transform="matrix(0.7098 -0.7044 0.7044 0.7098 -114.5716 345.1783)" width="6.3" height="29"/>
			<rect x="384.5" y="271.4" transform="matrix(0.7098 -0.7044 0.7044 0.7098 -88.7748 355.9456)" width="6.3" height="28.7"/>
			<rect x="375.7" y="279.9" transform="matrix(0.7099 -0.7043 0.7043 0.7099 -97.4572 352.2687)" width="6.3" height="29.1"/>
			<rect x="367.3" y="288.4" transform="matrix(0.7099 -0.7044 0.7044 0.7099 -105.9411 348.8262)" width="6.3" height="29.2"/>
			<rect x="298.5" y="294.5" transform="matrix(0.7099 -0.7043 0.7043 0.7099 -100.5374 351.2124)" width="155" height="6.3"/>
			<rect x="226.1" y="219.5" transform="matrix(0.7032 -0.711 0.711 0.7032 -133.5401 247.1709)" width="6.3" height="128"/>
			<rect x="373.4" y="478.2" transform="matrix(0.7051 -0.7091 0.7091 0.7051 -226.9325 416.9876)" width="28.9" height="6.3"/>
			<rect x="364.7" y="469.6" transform="matrix(0.705 -0.7092 0.7092 0.705 -223.4316 408.3403)" width="28.9" height="6.3"/>
			<rect x="295.2" y="400.7" transform="matrix(0.705 -0.7092 0.7092 0.705 -195.0532 338.6727)" width="28.9" height="6.3"/>
			<rect x="304.3" y="409.6" transform="matrix(0.7051 -0.7091 0.7091 0.7051 -198.6683 347.7097)" width="28.9" height="6.3"/>
			<rect x="313.4" y="418.8" transform="matrix(0.7051 -0.7091 0.7091 0.7051 -202.5035 356.901)" width="28.9" height="6.3"/>
			<rect x="330.5" y="436" transform="matrix(0.7051 -0.7091 0.7091 0.7051 -209.6618 374.2517)" width="29.3" height="6.3"/>
			<rect x="339.1" y="444.5" transform="matrix(0.705 -0.7092 0.7092 0.705 -213.1155 382.832)" width="29.2" height="6.3"/>
			<rect x="348" y="452.9" transform="matrix(0.705 -0.7092 0.7092 0.705 -216.4901 391.5158)" width="28.7" height="6.3"/>
			<rect x="356" y="461.3" transform="matrix(0.705 -0.7092 0.7092 0.705 -219.9951 399.9386)" width="29.7" height="6.3"/>
			<rect x="322.1" y="427.4" transform="matrix(0.705 -0.7092 0.7092 0.705 -206.0262 365.7082)" width="29" height="6.3"/>
			<rect x="345.6" y="374.9" transform="matrix(0.7035 -0.7107 0.7107 0.7035 -211.0023 379.0057)" width="6.3" height="135"/>
			<rect x="165.2" y="448.3" transform="matrix(0.7098 -0.7044 0.7044 0.7098 -277.0189 252.8546)" width="6.3" height="28.8"/>
			<rect x="173.4" y="440.4" transform="matrix(0.7098 -0.7044 0.7044 0.7098 -269.0492 256.2764)" width="6.3" height="28.5"/>
			<rect x="140.8" y="419.4" transform="matrix(0.7099 -0.7043 0.7043 0.7099 -236.9938 269.6958)" width="136.1" height="6.3"/>
			<rect x="177.5" y="243.3" transform="matrix(0.7053 -0.7089 0.7089 0.7053 -118.2286 208.5767)" width="28.6" height="6.3"/>
			<rect x="185.1" y="251" transform="matrix(0.7053 -0.7089 0.7089 0.7053 -121.382 216.2368)" width="28.5" height="6.3"/>
			<rect x="193.2" y="259" transform="matrix(0.7052 -0.709 0.709 0.7052 -124.6941 224.3298)" width="28.4" height="6.3"/>
			<rect x="201.1" y="267" transform="matrix(0.7052 -0.709 0.709 0.7052 -128.031 232.2699)" width="28.4" height="6.3"/>
			<rect x="209.2" y="275" transform="matrix(0.7053 -0.7089 0.7089 0.7053 -131.2722 240.4892)" width="28.7" height="6.3"/>
			<rect x="226" y="291.7" transform="matrix(0.7053 -0.7089 0.7089 0.7053 -138.226 257.2477)" width="28.6" height="6.3"/>
			<rect x="234.3" y="299.9" transform="matrix(0.7052 -0.709 0.709 0.7052 -141.593 265.5623)" width="28.5" height="6.3"/>
			<rect x="242.8" y="308.1" transform="matrix(0.7052 -0.709 0.709 0.7052 -144.8783 274.0486)" width="28.7" height="6.3"/>
			<rect x="251.8" y="316.8" transform="matrix(0.7052 -0.709 0.709 0.7052 -148.4779 282.8512)" width="28.3" height="6.3"/>
		</g>
	</g>
	<g>
		<rect x="142.9" y="516.4" class="st1" width="57.4" height="57.4"/>
		<path d="M200.2,512.2h-61.6V578h65.8v-65.8H200.2z M196,520.6c0,6.6,0,42.3,0,49c-6.6,0-42.3,0-49,0c0-6.6,0-42.3,0-49
			C153.7,520.6,189.4,520.6,196,520.6z"/>
		<path d="M179.1,542.8c-1.6,0.2-2.9,1.1-2.7,3.7c0.2,2.5,1.3,3.2,3.1,3.2c1.8,0,3.2-1.4,3.2-3.6
			C182.6,543.8,180.7,542.6,179.1,542.8z"/>
		<path d="M172.3,533.1c-1.9,0-3.7,2.1-3.8,4.3c-0.1,2.2,1.1,4.1,3,4.1c1.8,0,4.8-1.2,4.8-4C176.4,534.6,174.1,533.1,172.3,533.1z"
			/>
		<path d="M162.6,530.3c-1.6,0-3.6,2.1-3.7,3.6c-0.1,1.5,0.8,4.3,3.1,4.3c2.4,0,4.1-1.4,3.9-3.7
			C165.9,532.2,164.2,530.3,162.6,530.3z"/>
		<path d="M159.3,541.8c-2,0-4.1,2.9-4.1,4.6c0,2.9,2.2,4.2,4,4.2c1.8,0,4.2-1.9,4.2-4.1S162.1,541.8,159.3,541.8z"/>
		<path d="M189.5,535.6c-1.5-0.1-4.3,1.8-4.4,4.6c-0.1,2.7,1.8,4.5,4.2,4.3c2.4-0.2,4.2-1.4,4.2-4.2S191.8,535.7,189.5,535.6z"/>
		<path d="M187,546.3c-1.5,0-2.5,1.7-2.6,3.3c-0.1,1.7,0.9,3,2.6,3c1.8,0,3.1-0.4,3.1-3.1S188.4,546.3,187,546.3z"/>
		<path d="M169.8,545.4c-2.2,0-4.4,2.2-4.3,4.5c0.1,2.3,1.9,5.1,5.5,5c3.6-0.1,4.4-3.2,4.3-4.8C175.2,548.4,172.2,545.4,169.8,545.4
			z"/>
		<path d="M152.6,532.1c-1.6,0.1-3.1,1.9-3.1,3.8s0.8,3.4,2.7,3.4c1.9,0,3.9-1.3,3.9-3.3C156.1,533.9,154.2,532,152.6,532.1z"/>
		<path d="M146.2,539c0.4,0,3.9,1.3,3.9,4.6c0.1,3.2-3.8,4.8-3.8,4.8L146.2,539z"/>
		<path d="M151.3,549.9c-1.6,0.1-4.3,2.2-4.7,3.9c-0.4,1.7,0.4,4.3,3.8,4.3s4.6-2.1,4.6-4C155.1,552.2,153.4,549.9,151.3,549.9z"/>
		<path d="M162,553.2c-1.8,0.1-4.3,3-4.3,4.5s1.4,4,4.5,4s4-1.8,4.1-4C166.5,555.8,163.9,553.1,162,553.2z"/>
		<path d="M183.7,554.1c-1.8,0.1-3.9,1.7-4.1,4.1c-0.2,2.5,1,4.9,3.8,4.9c2.8,0,4.7-1.7,4.6-4.5
			C187.9,555.9,185.9,554.1,183.7,554.1z"/>
		<path d="M172.6,555.7c-1.8,0.1-3.8,3.4-3.9,4.5c-0.1,1.1,0.4,3.7,2.9,3.6c2.5-0.1,5-2.4,5-5C176.5,556.3,174.8,555.6,172.6,555.7z
			"/>
		<path d="M166.3,564.1c-1.5,0-4.6,3.4-4.6,5.4s0,2,0,2l7.6-0.3c0,0,0.9-1.4,0-3.9S167.5,564.1,166.3,564.1z"/>
		<path d="M155.1,560.9c-2,0.1-4,3.5-3.9,6c0.2,2.5,0.9,3.6,3.7,3.9c2.8,0.4,3.7-1.2,3.6-4.4C158.4,563.2,156.8,560.8,155.1,560.9z"
			/>
		<path d="M148,559.7c-1.3-0.7-3.2,0.2-3.4,2.2c-0.2,2,0.6,5.9,0.6,5.9s3.5-1.8,3.9-4.6S148.8,560.2,148,559.7z"/>
		<path d="M178.7,563.5c-1.9-0.1-3.6,2.4-4.5,4.4s-0.9,2.8-0.9,2.8h8c0,0,0.4-1.8,0.3-3.7C181.4,565.2,180.6,563.6,178.7,563.5z"/>
		<path d="M189.7,563.3c-1.5,0.1-3.7,2.2-4.3,4.4c-0.6,2.2-0.7,2.6-0.7,2.6l8.2,0.1c0,0,0.8-2.4,0.1-4.2
			C192.3,564.5,191.5,563.2,189.7,563.3z"/>
		<path d="M196.6,556.2c0,0-3.2,2.1-3.1,4c0.1,3.4,3.3,4.7,3.3,4.7L196.6,556.2z"/>
		<path d="M196.6,546.6c0,0-4.9,2.6-4.9,5.4c0,4,5.2,3.4,5.2,3.4L196.6,546.6z"/>
		<path d="M182.5,524.1c-1.7-0.1-3.9,2.3-3.9,3.9c0,1.7,0.5,3.8,3,3.9c2.4,0.1,4.5-2.2,4.4-4.6C185.8,524.8,183.8,524.2,182.5,524.1
			z"/>
		<path d="M165.6,521.5c-2,0.2-2.5,1.4-2.5,3.1s-0.2,3,2.7,3.1c2.9,0.1,3.6-1.5,3.6-3.1C169.4,522.8,166.7,521.4,165.6,521.5z"/>
	</g>
	<g>
		<g>
			<rect x="395.8" y="516.4" width="57.4" height="57.4"/>
			<path d="M453.2,512.2h-61.6V578h65.8v-65.8H453.2z M449,520.6c0,6.6,0,42.3,0,49c-6.6,0-42.3,0-49,0c0-6.6,0-42.3,0-49
				C406.7,520.6,442.4,520.6,449,520.6z"/>
			<path d="M441.7,531.7c-1.7,0.1-3.7,1.3-3.7,3.4s1,4.6,3.2,4.6s4-1.5,4-3.9C445.3,533.5,443.9,531.5,441.7,531.7z"/>
			<path d="M431.9,538.2c-1.6,0.1-3.9,2.1-4,3.9c-0.1,1.8,0.3,3.8,2.4,3.8s5-2.1,5-4.9S434,538.1,431.9,538.2z"/>
			<path d="M423.9,530.5c-1.3,0.1-3,2.2-3,3.6c0,1.4,1.1,3.4,3.2,3.3c2.1-0.1,3-1.5,3-3.8C427.1,531.4,424.9,530.4,423.9,530.5z"/>
			<path d="M410.3,536.1c-1.5,0.1-4.1,2.5-4,4.3c0.1,1.7,1.6,4.2,3.8,4.2c2.2,0,4.5-2.4,4.5-4.4
				C414.6,538.2,412.2,535.9,410.3,536.1z"/>
			<path d="M406.3,526.4c-1.4,0.1-3.8,1.1-3.8,2.9s1.5,3.5,3.2,3.5c1.8,0,3.3-1.6,3.3-3.2C409.1,527.9,408,526.2,406.3,526.4z"/>
			<path d="M404.1,546.6c-1.6,0-3.5,0.5-4.8,1.6s-0.9,5.5-0.9,5.5s6.4,1,7.4-1.7S406.1,546.6,404.1,546.6z"/>
			<path d="M413.2,546.3c-1.7,0.2-3.7,2.4-3.9,4c-0.2,1.6,0.3,3.6,3,3.6c2.7,0,4.2-1.7,4.4-3.7C416.9,548.2,414.9,546.1,413.2,546.3
				z"/>
			<path d="M420.9,539.4c-1.4,0.1-3.9,2.4-3.9,4.5c0,2.2,1.7,3.3,3.4,3.3c1.7,0,3.8-1.8,3.8-4.4S422.6,539.3,420.9,539.4z"/>
			<path d="M440.6,544.8c-1.9,0.1-4.6,2.4-4.8,4.5c-0.2,2.1,0.6,3.9,2.8,3.9c2.2-0.1,4.8-1.7,4.9-4.7
				C443.6,545.3,442.1,544.7,440.6,544.8z"/>
			<path d="M428.4,548.3c-2.6,0.2-3.8,2.8-3.8,4.5c0,1.8,1.8,3.1,3.3,3c1.6-0.1,3.6-2.4,3.7-4.2
				C431.7,549.8,431.1,548.1,428.4,548.3z"/>
			<path d="M417.2,554.8c-1.5-0.1-3.3,2.4-3.6,4.9c-0.2,1.8,0.9,2.5,3,2.5c2.9,0,3.7-1.8,3.9-4.3
				C420.7,555.4,419.3,554.9,417.2,554.8z"/>
			<path d="M427.9,558.2c-1.8-0.2-3.2,1.8-3.2,3.8s0.5,3.7,2.7,3.6c2.2-0.1,3.6-1.3,3.6-4.3C431,558.3,429.7,558.3,427.9,558.2z"/>
			<path d="M438.2,556c-2-0.1-3,2.8-3,4.4c0,1.6,0.6,3.6,3.3,3.6c2.7,0,3.4-1.2,3.4-3.4C442,558.3,441,556.1,438.2,556z"/>
			<path d="M449.8,553.1c0,0-2.9-0.7-4.3,0.8c-1.4,1.5-1.1,4.4-0.1,5.6c1.7,1.9,4.3,2.1,4.3,2.1L449.8,553.1z"/>
			<path d="M406.4,556.2c-1.4,0.1-3.5,1.9-3.4,4.2c0.1,2.3,1.2,3.3,3.2,3.3c1.9,0,3.7-0.8,3.7-3
				C409.8,558.5,408.1,556.1,406.4,556.2z"/>
			<path d="M419.7,562.8c-1.7,0-3.4,1.4-3.4,3.4s0.5,4.7,2.7,4.7s3.5-1.5,3.5-3.8S421.4,562.8,419.7,562.8z"/>
			<path d="M409.4,564.1c-1.4,0.1-2.5,2.2-2.5,4.1s0.5,3.2,3.3,3.2s2.6-2,2.7-4C413,565.4,411.8,563.9,409.4,564.1z"/>
			<path d="M399.2,563.8c0,0,2.4-0.6,3.4,1.8c1.1,2.5,0.5,3.4-0.5,4.8c-1,1.4-2.9,0.7-2.9,0.7V563.8z"/>
			<path d="M433.2,564.8c-1.4,0-2.9,1.3-3,3.6c-0.1,2.3-0.1,2.3-0.1,2.3h6.2C436.3,570.7,436.5,564.9,433.2,564.8z"/>
			<path d="M443.7,564.3c-1.9,0.1-2.4,2.2-2.4,3.9s0.4,2.1,0.4,2.1l5.5,0.2c0,0,0.3-1.1-0.1-3.1S445.4,564.2,443.7,564.3z"/>
		</g>
		<g>
			<rect x="395.8" y="516.4" class="st1" width="57.4" height="57.4"/>
			<path d="M453.2,512.2h-61.6V578h65.8v-65.8H453.2z M449,520.6c0,6.6,0,42.3,0,49c-6.6,0-42.3,0-49,0c0-6.6,0-42.3,0-49
				C406.7,520.6,442.4,520.6,449,520.6z"/>
			<path d="M441.7,531.7c-1.7,0.1-3.7,1.3-3.7,3.4s1,4.6,3.2,4.6s4-1.5,4-3.9C445.3,533.5,443.9,531.5,441.7,531.7z"/>
			<path d="M431.9,538.2c-1.6,0.1-3.9,2.1-4,3.9c-0.1,1.8,0.3,3.8,2.4,3.8s5-2.1,5-4.9S434,538.1,431.9,538.2z"/>
			<path d="M423.9,530.5c-1.3,0.1-3,2.2-3,3.6c0,1.4,1.1,3.4,3.2,3.3c2.1-0.1,3-1.5,3-3.8C427.1,531.4,424.9,530.4,423.9,530.5z"/>
			<path d="M410.3,536.1c-1.5,0.1-4.1,2.5-4,4.3c0.1,1.7,1.6,4.2,3.8,4.2c2.2,0,4.5-2.4,4.5-4.4
				C414.6,538.2,412.2,535.9,410.3,536.1z"/>
			<path d="M406.3,526.4c-1.4,0.1-3.8,1.1-3.8,2.9s1.5,3.5,3.2,3.5c1.8,0,3.3-1.6,3.3-3.2C409.1,527.9,408,526.2,406.3,526.4z"/>
			<path d="M404.1,546.6c-1.6,0-3.5,0.5-4.8,1.6s-0.9,5.5-0.9,5.5s6.4,1,7.4-1.7S406.1,546.6,404.1,546.6z"/>
			<path d="M413.2,546.3c-1.7,0.2-3.7,2.4-3.9,4c-0.2,1.6,0.3,3.6,3,3.6c2.7,0,4.2-1.7,4.4-3.7C416.9,548.2,414.9,546.1,413.2,546.3
				z"/>
			<path d="M420.9,539.4c-1.4,0.1-3.9,2.4-3.9,4.5c0,2.2,1.7,3.3,3.4,3.3c1.7,0,3.8-1.8,3.8-4.4S422.6,539.3,420.9,539.4z"/>
			<path d="M440.6,544.8c-1.9,0.1-4.6,2.4-4.8,4.5c-0.2,2.1,0.6,3.9,2.8,3.9c2.2-0.1,4.8-1.7,4.9-4.7
				C443.6,545.3,442.1,544.7,440.6,544.8z"/>
			<path d="M428.4,548.3c-2.6,0.2-3.8,2.8-3.8,4.5c0,1.8,1.8,3.1,3.3,3c1.6-0.1,3.6-2.4,3.7-4.2
				C431.7,549.8,431.1,548.1,428.4,548.3z"/>
			<path d="M417.2,554.8c-1.5-0.1-3.3,2.4-3.6,4.9c-0.2,1.8,0.9,2.5,3,2.5c2.9,0,3.7-1.8,3.9-4.3
				C420.7,555.4,419.3,554.9,417.2,554.8z"/>
			<path d="M427.9,558.2c-1.8-0.2-3.2,1.8-3.2,3.8s0.5,3.7,2.7,3.6c2.2-0.1,3.6-1.3,3.6-4.3C431,558.3,429.7,558.3,427.9,558.2z"/>
			<path d="M438.2,556c-2-0.1-3,2.8-3,4.4c0,1.6,0.6,3.6,3.3,3.6c2.7,0,3.4-1.2,3.4-3.4C442,558.3,441,556.1,438.2,556z"/>
			<path d="M449.8,553.1c0,0-2.9-0.7-4.3,0.8c-1.4,1.5-1.1,4.4-0.1,5.6c1.7,1.9,4.3,2.1,4.3,2.1L449.8,553.1z"/>
			<path d="M406.4,556.2c-1.4,0.1-3.5,1.9-3.4,4.2c0.1,2.3,1.2,3.3,3.2,3.3c1.9,0,3.7-0.8,3.7-3
				C409.8,558.5,408.1,556.1,406.4,556.2z"/>
			<path d="M419.7,562.8c-1.7,0-3.4,1.4-3.4,3.4s0.5,4.7,2.7,4.7s3.5-1.5,3.5-3.8S421.4,562.8,419.7,562.8z"/>
			<path d="M409.4,564.1c-1.4,0.1-2.5,2.2-2.5,4.1s0.5,3.2,3.3,3.2s2.6-2,2.7-4C413,565.4,411.8,563.9,409.4,564.1z"/>
			<path d="M399.2,563.8c0,0,2.4-0.6,3.4,1.8c1.1,2.5,0.5,3.4-0.5,4.8c-1,1.4-2.9,0.7-2.9,0.7V563.8z"/>
			<path d="M433.2,564.8c-1.4,0-2.9,1.3-3,3.6c-0.1,2.3-0.1,2.3-0.1,2.3h6.2C436.3,570.7,436.5,564.9,433.2,564.8z"/>
			<path d="M443.7,564.3c-1.9,0.1-2.4,2.2-2.4,3.9s0.4,2.1,0.4,2.1l5.5,0.2c0,0,0.3-1.1-0.1-3.1S445.4,564.2,443.7,564.3z"/>
		</g>
	</g>
	<g>
		<polygon points="322.6,659.2 322.6,680.4 339.4,659.2 		"/>
		<path d="M344.4,718.1c5.3,6.5,14.2,10.5,24,10.5c16.5,0,30-11.7,29.9-26c-0.1-15-10.7-23.7-24.8-25.7c-0.3,0,2.9-2.9,8.4-6.6
			c7.1-4.9,17-11.1,17-11.1l-27.6,0c-3.7,2.4-8,5.4-12.5,8.8c-5.1,3.9-8.9,7.4-11.7,10.6C335.9,691.2,333.9,705.3,344.4,718.1z
			 M354.2,702.7c0-6.5,6.4-11.8,14.3-11.8c7.9,0,14.3,5.3,14.3,11.8c0,6.5-6.4,11.8-14.3,11.8C360.7,714.5,354.2,709.2,354.2,702.7z
			"/>
		<path d="M409.4,659.2v15c0,0,21.7,0,38.1,0c-15.2,15.9-52.5,54.5-52.5,54.5l21,0l67.1-69.4H409.4z"/>
	</g>
	<g>
		<path d="M178.7,671c-0.4-0.7-1.1-1.3-1.7-1.3c-0.5,0-1.6,0-2.4,0h-10.6c-0.8,0-1.8,0.6-2.2,1.3l-28.2,49.5
			c-0.4,0.7-0.1,1.3,0.8,1.3l4.2,0c0.8,0,1.8-0.6,2.2-1.3l5.7-10c0.4-0.7,1.4-1.3,2.2-1.3l42.9,0c0.8,0,1.8,0.6,2.2,1.3l5.7,10
			c0.4,0.7,1.4,1.3,2.2,1.3l4.3,0c0.8,0,1.2-0.6,0.8-1.3L178.7,671z M188.2,703l-35.8,0c-0.8,0-1.2-0.6-0.8-1.3l13.9-24.3
			c0.4-0.7,1.4-1.3,2.2-1.3h5.1c0.8,0,1.8,0.6,2.2,1.3l13.9,24.3C189.3,702.4,189,703,188.2,703z"/>
		<path d="M276.5,715.6h-32.7c-0.8,0-1.1-0.5-0.6-1.2l32.5-43.4c0.5-0.7,0.2-1.2-0.6-1.2h-3.3c-0.8,0-2.2,0-3,0h-39
			c-0.8,0-1.5,0.7-1.5,1.5v3.3c0,0.8,0.7,1.5,1.5,1.5h32.7c0.8,0,1.1,0.5,0.6,1.2l-32.5,43.4c-0.5,0.7-0.2,1.2,0.6,1.2h45.3
			c0.8,0,1.5-0.7,1.5-1.5v-3.3C278,716.2,277.3,715.6,276.5,715.6z"/>
	</g>
</g>
</svg>
