<?xml version="1.0" encoding="utf-8"?>
<!-- Generator: Adobe Illustrator 14.0.0, SVG Export Plug-In . SVG Version: 6.00 Build 43363)  -->
<!DOCTYPE svg PUBLIC "-//W3C//DTD SVG 1.1//EN" "http://www.w3.org/Graphics/SVG/1.1/DTD/svg11.dtd">
<svg version="1.1" id="Layer_1" xmlns="http://www.w3.org/2000/svg" xmlns:xlink="http://www.w3.org/1999/xlink" x="0px" y="0px"
	 width="99.056px" height="125.829px" viewBox="0 0 99.056 125.829" enable-background="new 0 0 99.056 125.829"
	 xml:space="preserve">
<path fill="#286AB4" d="M49.231,51.052c-5.268,0-9.979,2.273-13.179,5.852l28.424,2.842C61.492,54.562,55.787,51.052,49.231,51.052z
	 M61.513,73.699l2.738,2.86c1.109-1.82,1.877-3.856,2.223-6.028v-4.049c0-2.108-0.992-3.816-2.221-3.816
	c-1.227,0-2.219,1.708-2.219,3.816v4.983l-1.666,0.088v-6.182c0-2.108-1.459-3.816-3.262-3.816c-1.801,0-3.26,1.708-3.26,3.816
	v6.523l-2.359,0.123v-7.479c0-2.108-1.553-3.816-3.47-3.816c-1.916,0-3.469,1.708-3.469,3.816v7.845l-2.083,0.109v-9.064
	c0-2.107-1.708-3.816-3.816-3.816c-2.108,0-3.816,1.709-3.816,3.816v9.465l-2.266,0.119c2.211,6.885,8.836,11.885,16.664,11.885
	c3.313,0,6.399-0.912,9.04-2.468l-2.379-2.485L61.513,73.699z M58.287,96.229v23.527c3.121-0.855,6.398-2.314,9.16-3.727V93.739
	l-1.277-1.359C63.771,94.026,61.123,95.336,58.287,96.229z M58.287,22.697v16.676c3.348,1.053,6.438,2.685,9.16,4.771V22.697H58.287
	z"/>
<path fill="#010101" d="M43.923,46.923c0.181,0.036,0.378,0.054,0.594,0.054c0.205,0,0.406-0.019,0.602-0.054
	c-0.401,0.972-1.054,1.721-1.958,2.25h1.596c0.678-0.6,1.22-1.325,1.625-2.173c0.324-0.667,0.486-1.333,0.486-1.995
	c0-0.314-0.049-0.581-0.146-0.801c-0.293-0.664-0.804-1.059-1.534-1.187c-0.186-0.036-0.395-0.054-0.632-0.054
	c-0.23,0-0.441,0.018-0.632,0.054c-0.724,0.124-1.245,0.508-1.563,1.156c-0.113,0.241-0.17,0.508-0.17,0.801
	c0,0.294,0.057,0.556,0.17,0.793C42.678,46.415,43.199,46.8,43.923,46.923z M43.339,44.682c0.165-0.324,0.433-0.517,0.802-0.578
	c0.134-0.025,0.268-0.039,0.4-0.039c0.129,0,0.26,0.013,0.393,0.039c0.37,0.062,0.637,0.254,0.802,0.578
	c0.041,0.092,0.062,0.194,0.062,0.308c0,0.22-0.087,0.415-0.262,0.582c-0.175,0.166-0.375,0.268-0.602,0.303
	c-0.138,0.026-0.27,0.038-0.393,0.038c-0.128,0-0.262-0.012-0.4-0.038c-0.227-0.035-0.427-0.137-0.601-0.303
	c-0.175-0.167-0.263-0.361-0.263-0.582C43.277,44.876,43.298,44.773,43.339,44.682z M37.263,47.93l1.868,3.967l1.019-0.481
	l-2.626-5.575l-0.788,0.371l-0.388,1.383l0.296,0.627L37.263,47.93z M53.275,47.541c-0.216,0.245-0.484,0.359-0.807,0.345
	c-0.119-0.008-0.239-0.028-0.358-0.062c-0.476-0.131-0.84-0.406-1.092-0.826l-0.975,0.523c0.402,0.702,0.999,1.162,1.786,1.378
	c0.188,0.052,0.387,0.085,0.595,0.102c0.666,0.019,1.232-0.214,1.696-0.7c0.185-0.22,0.316-0.469,0.392-0.746
	c0.045-0.168,0.07-0.341,0.068-0.518c0.012-0.663-0.244-1.196-0.765-1.601c-0.262-0.209-0.555-0.359-0.877-0.448
	c-0.094-0.027-0.19-0.054-0.288-0.081c-0.171-0.022-0.339-0.032-0.506-0.029l0.534-1.034l2.376,0.655l0.299-1.084l-3.253-0.897
	l-1.529,2.967l0.782,0.703c0.326-0.164,0.669-0.223,1.023-0.179c0.069,0.019,0.137,0.038,0.2,0.055
	c0.209,0.057,0.402,0.15,0.58,0.276c0.206,0.179,0.306,0.41,0.298,0.69c-0.003,0.073-0.016,0.142-0.032,0.206
	C53.395,47.348,53.344,47.448,53.275,47.541z M82.982,16.078h0.031c0.557,0,1.008-0.194,1.354-0.584
	c0.549-0.628,0.824-1.375,0.824-2.24V13.21c0-0.873-0.275-1.621-0.824-2.241c-0.346-0.397-0.797-0.595-1.354-0.595h-0.031
	c-0.557,0-1.008,0.198-1.354,0.595c-0.549,0.62-0.822,1.368-0.822,2.241v0.043c0,0.866,0.273,1.612,0.822,2.24
	C81.974,15.884,82.425,16.078,82.982,16.078z M65.07,10.428L63.804,14.4h2.523L65.07,10.428z M58.869,51.335l0.008,0.001
	l0.016,0.004c0.699,0.208,1.352,0.126,1.953-0.246c0.746-0.469,1.248-1.135,1.504-1.998l0.012-0.036
	c0.256-0.861,0.201-1.691-0.168-2.488c-0.301-0.646-0.801-1.074-1.5-1.282l-0.014-0.004l-0.008-0.002
	c-0.699-0.208-1.352-0.124-1.957,0.253c-0.744,0.464-1.244,1.128-1.502,1.989l-0.01,0.037c-0.26,0.866-0.203,1.698,0.164,2.493
	C57.669,50.702,58.171,51.126,58.869,51.335z M58.281,47.886l0.012-0.037c0.176-0.592,0.514-1.045,1.016-1.361
	c0.314-0.196,0.662-0.237,1.041-0.124l0.008,0.002l0.016,0.004c0.379,0.114,0.646,0.336,0.803,0.674
	c0.248,0.54,0.283,1.104,0.107,1.695l-0.012,0.038c-0.176,0.59-0.514,1.045-1.016,1.361c-0.316,0.195-0.664,0.236-1.043,0.125
	l-0.014-0.006l-0.008-0.001c-0.379-0.113-0.648-0.337-0.805-0.674C58.14,49.042,58.105,48.478,58.281,47.886z M28.405,71.573
	l0.899-0.109l0.2,1.642l0.821-0.1l-0.301-2.462l-4.498,0.549l0.1,0.82l1.957-0.238l0.168,1.377l0.821-0.1L28.405,71.573z
	 M74.998,12.181c0.195-0.192,0.293-0.425,0.293-0.699c0-0.275-0.098-0.51-0.293-0.705s-0.43-0.293-0.703-0.293h-1.789v1.984h1.789
	C74.568,12.468,74.802,12.372,74.998,12.181z M42.643,12.181c0.195-0.192,0.293-0.425,0.293-0.699c0-0.275-0.098-0.51-0.293-0.705
	s-0.43-0.293-0.704-0.293h-1.788v1.984h1.788C42.213,12.468,42.447,12.372,42.643,12.181z M16.092,16.078h0.055
	c0.31,0,0.603-0.071,0.876-0.216l-0.606-0.758h1.342c0.361-0.563,0.542-1.18,0.542-1.851v-0.055c0-0.866-0.274-1.612-0.823-2.24
	c-0.347-0.39-0.798-0.584-1.353-0.584h-0.033c-0.555,0-1.007,0.194-1.353,0.584c-0.548,0.628-0.823,1.374-0.823,2.24v0.043
	c0,0.874,0.275,1.624,0.823,2.252C15.085,15.884,15.537,16.078,16.092,16.078z M6.452,5.626v72.826
	c0,23.243,19.386,42.085,43.3,42.085s43.3-18.842,43.3-42.085V5.626H6.452z M79.226,13.209c0-1.271,0.406-2.367,1.223-3.291
	c0.664-0.75,1.508-1.126,2.533-1.126h0.031c1.025,0,1.871,0.376,2.533,1.126c0.816,0.924,1.223,2.021,1.223,3.291v0.043
	c0,1.271-0.406,2.368-1.223,3.292c-0.662,0.744-1.508,1.115-2.533,1.115h-0.031c-1.025,0-1.869-0.372-2.533-1.115
	c-0.816-0.923-1.223-2.021-1.223-3.292V13.209z M70.925,8.903h3.367c0.707,0,1.313,0.25,1.818,0.752
	c0.506,0.502,0.758,1.109,0.758,1.824c0,0.533-0.156,1.023-0.465,1.466c-0.313,0.444-0.719,0.759-1.225,0.947l1.916,3.669H75.31
	l-1.83-3.518h-0.975v3.518h-1.58V8.903z M63.902,8.903h2.338l2.75,8.659h-1.656l-0.498-1.581h-3.529l-0.498,1.581h-1.666
	L63.902,8.903z M53.956,8.903h5.446v1.581h-1.939v7.078h-1.58v-7.078h-1.926V8.903z M47.071,8.903h4.742v1.581h-3.161v1.73h2.652
	v1.581h-2.652v2.186h3.161v1.581h-4.742V8.903z M38.57,8.903h3.367c0.707,0,1.313,0.25,1.818,0.752
	c0.506,0.502,0.758,1.109,0.758,1.824c0,0.533-0.154,1.023-0.465,1.466c-0.311,0.444-0.719,0.759-1.224,0.947l1.916,3.669h-1.785
	l-1.83-3.518h-0.974v3.518H38.57V8.903z M31.484,8.903h4.742v1.581h-3.161v1.73h2.652v1.581h-2.652v2.186h3.161v1.581h-4.742V8.903z
	 M22.576,8.903h1.581v5.595c0,0.433,0.153,0.804,0.459,1.115c0.307,0.31,0.68,0.465,1.12,0.465c0.433,0,0.802-0.155,1.109-0.465
	c0.306-0.311,0.459-0.683,0.459-1.115V8.903h1.581v5.595c0,0.873-0.308,1.616-0.925,2.229c-0.617,0.613-1.359,0.919-2.224,0.919
	c-0.873,0-1.618-0.307-2.235-0.919s-0.925-1.356-0.925-2.229V8.903z M12.336,13.199c0-1.27,0.407-2.367,1.223-3.292
	c0.665-0.743,1.509-1.115,2.533-1.115h0.033c1.024,0,1.869,0.372,2.533,1.116c0.816,0.924,1.224,2.021,1.224,3.292v0.054
	c0,0.967-0.257,1.859-0.77,2.675l1.375,1.678l-2.035-0.002l-0.422-0.508c-0.57,0.375-1.198,0.563-1.883,0.563h-0.055
	c-1.024,0-1.869-0.376-2.533-1.126c-0.815-0.924-1.223-2.021-1.223-3.291V13.199z M78.828,87.231l-8.432,8.951l-0.035-0.039v14.627
	c-4.484,2.668-9.559,4.484-14.988,5.234V97.194c-1.949,0.402-3.967,0.613-6.036,0.613c-1.198,0-2.378-0.078-3.54-0.217v18.617
	c-19.987-1.93-35.598-18.318-35.598-38.252V23.607h35.598v14.821c1.162-0.137,2.342-0.216,3.54-0.216
	c2.068,0,4.087,0.211,6.036,0.612V23.607h14.988v23.288c5.42,5.396,8.773,12.863,8.773,21.113c0,5.573-1.738,11.085-4.402,15.545
	L78.828,87.231z M89.304,77.956c0,9.242-3.357,17.723-8.951,24.354V23.607h8.951V77.956z M89.304,21.786H10.199v-2.003h79.105
	V21.786z M69.437,78.723l-2.441-1.615l-0.457,0.689l2.441,1.615c0.189,0.125,0.307,0.3,0.354,0.523
	c0.047,0.223,0.008,0.43-0.117,0.617c-0.127,0.192-0.303,0.311-0.527,0.355c-0.223,0.045-0.43,0.003-0.619-0.122l-2.441-1.616
	l-0.455,0.689l2.441,1.616c0.381,0.253,0.793,0.333,1.238,0.241s0.795-0.33,1.047-0.711c0.25-0.377,0.33-0.789,0.242-1.236
	C70.052,79.325,69.818,78.975,69.437,78.723z M64.833,76.014c1.268-2.434,1.994-5.193,1.994-8.127
	c0-9.734-7.891-17.625-17.625-17.625c-9.735,0-17.626,7.891-17.626,17.625c0,9.735,7.891,17.627,17.626,17.627
	c3.309,0,6.394-0.93,9.039-2.516l0.93-0.748l-2.588-2.504l5.031-5.428l2.553,2.52L64.833,76.014z M61.33,72.765L54.8,79.808
	l2.596,2.407c-2.416,1.385-5.208,2.188-8.193,2.188c-9.122,0-16.517-7.394-16.517-16.516c0-9.121,7.395-16.515,16.517-16.515
	c9.121,0,16.515,7.394,16.515,16.515c0,2.639-0.635,5.125-1.736,7.338L61.33,72.765z M73.322,74.399
	c0.127-0.36,0.107-0.711-0.059-1.057c-0.164-0.344-0.428-0.58-0.787-0.707c-0.381-0.135-0.75-0.106-1.109,0.083
	c-0.16-0.261-0.385-0.444-0.678-0.548c-0.342-0.12-0.676-0.104-1,0.053s-0.547,0.404-0.666,0.741l-0.596,1.69l4.271,1.508
	L73.322,74.399z M70.705,73.558l-0.322,0.909l-0.9-0.318l0.32-0.908c0.045-0.125,0.125-0.215,0.244-0.271
	c0.115-0.058,0.238-0.063,0.369-0.018c0.123,0.044,0.213,0.125,0.27,0.243C70.742,73.311,70.748,73.433,70.705,73.558z
	 M72.541,74.124l-0.346,0.982l-1.031-0.363l0.338-0.956c0.029-0.082,0.064-0.154,0.104-0.216c0.166-0.186,0.365-0.237,0.598-0.154
	c0.146,0.051,0.25,0.146,0.316,0.285C72.583,73.84,72.591,73.981,72.541,74.124z M32.292,77.458l-2.387,1.695
	c-0.184,0.131-0.389,0.179-0.614,0.143c-0.225-0.037-0.403-0.147-0.534-0.333c-0.133-0.187-0.181-0.394-0.142-0.618
	c0.04-0.225,0.151-0.403,0.336-0.534l2.388-1.696l-0.479-0.674l-2.388,1.696c-0.372,0.265-0.595,0.62-0.67,1.069
	c-0.074,0.449,0.021,0.859,0.285,1.232c0.263,0.369,0.618,0.592,1.067,0.67c0.448,0.078,0.86-0.016,1.231-0.28l2.387-1.695
	L32.292,77.458z M48.952,39.994C33.548,40.132,21.17,52.732,21.308,68.137c0.138,15.404,12.737,27.783,28.144,27.645
	c6.208-0.055,11.922-2.137,16.528-5.609l4.57,4.236l6.527-7.043l-4.533-4.204c2.92-4.456,4.602-9.794,4.553-15.523
	C76.958,52.233,64.359,39.856,48.952,39.994z M74.884,87.268l-4.455,5.027l-4.439-4.303l-1.666,1.389
	c-4.287,3.086-9.199,4.959-14.885,5.01c-14.637,0.131-26.61-11.629-26.74-26.266c-0.132-14.638,11.63-26.61,26.265-26.741
	c14.639-0.131,26.61,11.63,26.743,26.267c0.047,5.357-1.504,10.355-4.201,14.55l-0.867,1.144L74.884,87.268z M64.617,85.493
	l-1.748-3.266l-0.73,0.391l2.139,3.996l1.998-1.07l-0.391-0.729L64.617,85.493z M36.656,82.92l-1.804-2.205l-0.641,0.523
	l0.639,0.779l-2.867,2.346l0.524,0.641l2.866-2.346l0.643,0.785L36.656,82.92z M39.059,84.721l-3.15,3.256l1.344,1.299
	c0.274,0.266,0.602,0.395,0.984,0.389c0.381-0.006,0.704-0.146,0.969-0.422c0.281-0.289,0.41-0.637,0.387-1.043
	c0.304-0.037,0.565-0.166,0.781-0.389c0.252-0.26,0.375-0.57,0.368-0.932c-0.006-0.359-0.138-0.664-0.396-0.914L39.059,84.721z
	 M38.612,88.668c-0.107,0.111-0.238,0.168-0.392,0.17c-0.153,0-0.285-0.053-0.393-0.156l-0.748-0.725l0.759-0.785l0.729,0.705
	c0.063,0.061,0.113,0.121,0.151,0.186C38.819,88.29,38.783,88.493,38.612,88.668z M39.778,87.237
	c-0.091,0.096-0.202,0.145-0.333,0.145c-0.13,0.004-0.243-0.041-0.338-0.133l-0.693-0.67l0.665-0.689l0.692,0.67
	c0.095,0.092,0.144,0.205,0.146,0.336C39.92,87.026,39.874,87.139,39.778,87.237z M45.589,87.702l-0.011-0.006l-0.006-0.002
	c-0.495-0.207-0.979-0.195-1.45,0.035c-0.58,0.281-0.997,0.729-1.254,1.342l-0.009,0.021c-0.256,0.613-0.279,1.225-0.072,1.836
	c0.171,0.492,0.503,0.842,0.999,1.049l0.005,0.002l0.011,0.004c0.495,0.207,0.978,0.197,1.447-0.027
	c0.581-0.283,0.998-0.73,1.254-1.344l0.01-0.02c0.256-0.615,0.279-1.227,0.072-1.836C46.416,88.26,46.083,87.907,45.589,87.702z
	 M45.749,90.272l-0.009,0.021c-0.175,0.418-0.457,0.725-0.85,0.918c-0.246,0.117-0.502,0.121-0.771,0.01l-0.012-0.006l-0.004-0.002
	c-0.27-0.111-0.447-0.297-0.536-0.555c-0.138-0.414-0.12-0.83,0.055-1.248l0.009-0.021c0.176-0.422,0.458-0.727,0.849-0.916
	c0.247-0.121,0.505-0.127,0.773-0.014h0.005l0.011,0.006c0.268,0.111,0.446,0.299,0.533,0.559
	C45.943,89.436,45.925,89.85,45.749,90.272z M50.891,88.372h-0.827v4.531h2.266v-0.826h-1.438V88.372z M60.427,88.868
	c-0.027,0.031-0.053,0.061-0.076,0.084c-0.25,0.262-0.551,0.359-0.91,0.293c-0.311-0.061-0.592-0.191-0.842-0.393
	c-0.016-0.01-0.027-0.02-0.037-0.025c-0.02-0.018-0.035-0.031-0.047-0.041c-0.223-0.18-0.395-0.4-0.514-0.662
	c-0.137-0.35-0.113-0.688,0.066-1.014c0.016-0.025,0.033-0.053,0.055-0.078c0.17-0.213,0.389-0.342,0.654-0.391l-0.16-0.805
	c-0.461,0.086-0.838,0.313-1.135,0.68c-0.043,0.053-0.084,0.105-0.127,0.16c-0.32,0.561-0.355,1.148-0.105,1.76
	c0.17,0.389,0.422,0.719,0.754,0.986c0.023,0.018,0.043,0.029,0.057,0.037c0.008,0.01,0.016,0.02,0.029,0.029
	c0.355,0.287,0.756,0.473,1.205,0.561c0.305,0.057,0.604,0.039,0.895-0.055c0.291-0.092,0.545-0.248,0.76-0.467
	c0.041-0.051,0.08-0.1,0.117-0.146c0.295-0.365,0.432-0.781,0.412-1.244l-0.82,0.016C60.671,88.42,60.593,88.659,60.427,88.868z"/>
<g>
	<circle fill="#23221A" cx="49.676" cy="79.526" r="3.249"/>
	<circle fill="#FFFFFF" cx="49.641" cy="79.598" r="3.008"/>
	<path fill="#23221A" d="M52.431,80.573c0,0-0.258,0.523-0.538,0.68c0,0,0,0.004,0,0.012c-0.286,0.056-0.475-0.023-0.587-0.107
		c-0.004-0.19-0.023-0.809-0.117-1.003c0.193-0.231,0.49-0.628,0.66-1.054c0.125-0.011,0.383-0.021,0.524,0.035
		c0.283,0.283,0.244,1.049,0.244,1.049c0.106-0.522-0.049-0.877-0.158-1.049c0.018-0.188,0.047-0.783-0.208-1.049
		c0,0-0.227-0.461-0.71-0.68c0,0-0.163,0.342-0.313,0.495c-0.364-0.144-0.949-0.16-1.306-0.155c-0.153-0.28-0.702-0.535-0.833-0.593
		c0.061-0.126,0.18-0.295,0.413-0.426c0.122-0.024,0.533-0.103,0.783-0.063c0,0-0.687-0.139-0.89-0.045c0,0,0.032,0.05,0.054,0.086
		c-0.126,0.071-0.319,0.21-0.416,0.439c-0.368,0.055-0.926,0.498-1.008,0.564c-0.364-0.113-0.682,0.025-0.682,0.025
		c-0.007,0.002-0.015,0.004-0.021,0.006l0.025-0.096c-0.11,0.063-0.297,0.399-0.297,0.399c0.061-0.092,0.184-0.192,0.234-0.232
		c0.288-0.133,0.553-0.088,0.695-0.044c-0.088,0.203,0.028,0.805,0.063,0.973c-0.165,0.133-0.465,0.453-0.638,1.13
		c-0.129,0.02-0.386,0.046-0.56-0.017c-0.089-0.092-0.206-0.234-0.214-0.445l-0.008,0.147c0,0,0.054,0.18,0.187,0.321
		c-0.013,0.199-0.018,1.17,0.966,1.678c0.469,0.659,1.145,0.875,1.418,0.938c-0.095,0.013-0.195,0.021-0.299,0.023
		c0,0,0.46,0.195,1.101,0.07c0,0-0.102-0.055-0.189-0.172c0.078-0.111,0.23-0.338,0.341-0.603c0.005,0.001,0.008,0.001,0.012,0.003
		c0,0,0.9-0.217,1.13-0.576c0.205,0.123,0.449,0.109,0.604,0.078c0.001,0.085-0.012,0.234-0.097,0.372
		C51.798,81.689,52.477,80.963,52.431,80.573z M51.171,77.95c-0.002,0.001-0.002,0.003-0.004,0.003c0,0,0.592,0.655,0.608,1.155
		c0,0,0.002-0.002,0.009-0.002c-0.086,0.203-0.287,0.604-0.674,1.043c-0.141,0.035-0.527,0.086-1.205-0.126
		c-0.122-0.271-0.383-0.835-0.584-1.179c0.042-0.201,0.529-0.921,0.608-1.039C50.539,77.79,50.959,77.884,51.171,77.95z
		 M47.484,79.883c0.063-0.236,0.268-0.875,0.647-1.109c0.329-0.037,0.985,0.061,1.148,0.086c0.108,0.211,0.454,0.902,0.574,1.236
		c-0.104,0.193-0.384,0.708-0.572,0.981c-0.501,0.083-1.045-0.04-1.239-0.093C47.927,80.839,47.48,80.254,47.484,79.883z
		 M49.769,82.361c-0.021,0.007-0.191,0.065-0.427,0.108c-0.928-0.145-1.369-0.693-1.521-0.934c0.027-0.103,0.112-0.404,0.226-0.5
		c0.701,0.166,1.083,0.146,1.253,0.119c0.109,0.145,0.442,0.555,0.795,0.646C50.051,81.909,49.956,82.102,49.769,82.361z"/>
</g>
</svg>
