<?xml version="1.0" encoding="utf-8"?>
<!-- Generator: Adobe Illustrator 15.0.0, SVG Export Plug-In . SVG Version: 6.00 Build 0)  -->
<!DOCTYPE svg PUBLIC "-//W3C//DTD SVG 1.1//EN" "http://www.w3.org/Graphics/SVG/1.1/DTD/svg11.dtd">
<svg version="1.1" id="Layer_1" xmlns="http://www.w3.org/2000/svg" xmlns:xlink="http://www.w3.org/1999/xlink" x="0px" y="0px"
	 width="500px" height="645.09px" viewBox="0 0 500 645.09" enable-background="new 0 0 500 645.09" xml:space="preserve">
<path d="M0,0v441.706c0,26.442,7.599,52.727,22.587,78.121c13.405,22.717,32.109,43.735,55.589,62.469
	c49.567,39.333,113.763,62.794,171.77,62.794c58.006,0,122.2-23.46,171.721-62.755c23.558-18.745,42.298-39.765,55.728-62.498
	C492.396,494.449,500,468.162,500,441.706V0H0z"/>
<path fill="#FFFFFF" d="M10.531,10.531v431.175c0,24.533,7.107,49.017,21.125,72.769c12.751,21.608,30.613,41.657,53.088,59.588
	c47.744,37.888,109.492,60.496,165.201,60.496c55.707,0,117.454-22.607,165.175-60.474c22.536-17.934,40.433-37.983,53.208-59.605
	c14.028-23.744,21.141-48.229,21.141-72.774V10.531H10.531z"/>
<path d="M23.32,104.416h453.361v337.29c0,46.231-28.467,89.702-69.51,122.361c-44.353,35.194-103.383,57.703-157.225,57.703
	c-53.846,0-112.875-22.509-157.226-57.703c-40.933-32.66-69.4-76.13-69.4-122.361V104.416z"/>
<path fill="#FFFFFF" d="M25.969,107.063v334.643c0,45.347,27.914,88.156,68.406,120.265C138.287,596.836,196.71,619.234,250,619.234
	c53.291,0,111.715-22.397,155.625-57.262c40.494-32.109,68.408-74.918,68.408-120.265V107.063H25.969z"/>
<rect x="23.32" y="23.32" width="453.361" height="70.835"/>
<path fill="#FFFFFF" d="M132.549,61.605c0,2.207-0.553,3.863-1.766,5.185c-1.214,1.215-2.869,1.764-5.075,1.764
	c-2.095,0-3.859-0.549-5.073-1.872c-1.213-1.215-1.876-2.871-1.876-5.078V37.002h-12.359v24.053c0,1.875,0.332,4.19,1.104,6.728
	c0.551,1.656,1.324,3.2,2.648,4.746c1.324,1.434,2.758,2.537,4.304,3.419c1.544,0.884,3.53,1.327,5.736,1.656
	c1.987,0.219,3.752,0.442,5.517,0.442c0.333,0,0.664,0,0.995,0c3.418,0,6.287-0.442,8.714-1.435
	c1.766-0.549,3.422-1.656,5.078-3.309c1.434-1.547,2.648-3.42,3.42-5.627c0.773-2.098,1.102-4.303,1.102-6.619V37.002h-12.468
	V61.605z"/>
<polygon fill="#FFFFFF" points="165.649,60.171 185.067,60.171 185.067,52.007 165.649,52.007 165.649,45.608 186.502,45.608 
	186.502,37.002 153.182,37.002 153.182,77.274 187.165,77.274 187.165,68.117 165.649,68.117 "/>
<polygon fill="#FFFFFF" points="250.166,60.171 269.585,60.171 269.585,52.007 250.166,52.007 250.166,45.608 271.129,45.608 
	271.129,37.002 237.698,37.002 237.698,77.274 271.682,77.274 271.682,68.117 250.166,68.117 "/>
<polygon fill="#FFFFFF" points="313.496,37.002 275.541,37.002 275.541,46.93 288.34,46.93 288.34,77.274 300.699,77.274 
	300.699,46.93 313.496,46.93 "/>
<path fill="#FFFFFF" d="M436.74,41.635c-3.641-3.531-8.827-5.295-15.446-5.406h-0.111c-6.512,0-11.587,1.875-15.336,5.516
	c-3.643,3.641-5.516,8.826-5.516,15.339c0,4.741,0.881,8.714,2.758,11.804c1.875,3.201,4.302,5.515,7.282,6.949
	c2.869,1.437,6.51,2.098,10.813,2.208h0.111c0.109,0,0.22,0,0.439,0c4.415,0,8.056-0.883,11.144-2.539
	c2.98-1.766,5.298-4.081,6.953-7.061c1.544-2.978,2.317-6.949,2.317-11.583C442.147,50.352,440.271,45.276,436.74,41.635z
	 M427.471,66.02c-1.433,1.763-3.529,2.646-6.177,2.646h-0.111c-2.54,0-4.633-0.992-6.068-2.646
	c-1.544-1.876-2.315-4.745-2.315-8.828c0-4.083,0.771-7.061,2.315-8.827c1.435-1.765,3.529-2.648,6.068-2.648h0.111
	c2.536,0,4.524,0.883,6.066,2.648c1.545,1.656,2.317,4.525,2.317,8.277C429.678,61.164,428.906,64.364,427.471,66.02z"/>
<path fill="#FFFFFF" d="M391.172,63.041c-0.883-0.993-1.544-1.766-2.095-1.985c-0.662-0.554-1.656-1.105-3.2-1.546
	c1.875-0.442,3.31-0.993,4.412-1.656c1.655-0.992,2.981-2.317,3.863-3.861c0.995-1.656,1.434-3.532,1.434-5.848
	c0-2.537-0.552-4.746-1.875-6.51c-1.215-1.876-2.87-2.98-4.854-3.753c-2.097-0.661-5.077-0.88-8.828-0.88h-0.993h-1.654h-18.206
	v40.272h12.469V60.942h1.102c1.214,0,2.206,0.332,3.09,0.883c0.439,0.332,0.992,0.993,1.544,1.768
	c0.218,0.439,0.551,0.88,0.77,1.322l0.885,1.654l5.737,10.705h14.123l-6.068-11.698C392.605,65.027,391.943,64.144,391.172,63.041z
	 M382.346,51.564c-0.553,0.664-1.215,1.105-2.097,1.215c-0.441,0.11-0.884,0.22-1.213,0.22c-0.663,0.109-1.215,0.222-1.654,0.222
	c-0.222,0.11-0.331,0.11-0.444,0.11h-5.292v-8.274h5.514h0.222c0.551,0,1.104,0.11,1.654,0.219c1.324,0,2.206,0.332,2.868,0.884
	c0.772,0.661,1.215,1.653,1.215,2.979C383.119,50.02,382.787,50.793,382.346,51.564z"/>
<path fill="#FFFFFF" d="M333.025,37.002h-6.62l-15.116,40.272h12.69l1.986-6.621h7.06h7.063l1.985,6.621h13.02l-15.115-40.272
	H333.025z M333.025,61.825h-4.412l4.412-14.343l4.416,14.343H333.025z"/>
<path fill="#FFFFFF" d="M225.893,63.041c-0.772-0.993-1.544-1.766-1.878-1.985c-0.771-0.554-1.874-1.105-3.307-1.546
	c1.763-0.442,3.307-0.993,4.412-1.656c1.656-0.992,2.868-2.317,3.971-3.861c0.884-1.656,1.324-3.532,1.324-5.848
	c0-2.537-0.551-4.746-1.875-6.51c-1.214-1.876-2.869-2.98-4.966-3.753c-1.985-0.661-4.853-0.88-8.826-0.88h-0.884h-1.655h-18.095
	v40.272h12.469V60.942h1.104c1.104,0,2.097,0.332,3.088,0.883c0.444,0.332,0.883,0.993,1.434,1.768
	c0.333,0.439,0.553,0.88,0.773,1.322l0.882,1.654l5.738,10.705h14.124l-6.069-11.698C227.437,65.027,226.886,64.144,225.893,63.041z
	 M217.176,51.564c-0.551,0.664-1.214,1.105-1.985,1.215c-0.551,0.11-0.883,0.22-1.327,0.22c-0.66,0.109-1.214,0.222-1.655,0.222
	c-0.108,0.11-0.22,0.11-0.331,0.11h-5.295v-8.274h5.517h0.108c0.663,0,1.215,0.11,1.655,0.219c1.327,0,2.208,0.332,2.761,0.884
	c0.882,0.661,1.322,1.653,1.322,2.979C217.947,50.02,217.728,50.793,217.176,51.564z"/>
<path fill="#FFFFFF" d="M95.147,71.426c2.978-3.642,4.523-8.385,4.523-14.341c0-6.623-1.874-11.808-5.517-15.449
	c-3.419-3.419-8.387-5.187-14.673-5.295c-0.222-0.11-0.552-0.11-0.772-0.11h-0.111c-6.508,0-11.585,1.875-15.337,5.516
	c-3.641,3.749-5.405,8.936-5.405,15.558c0,6.729,1.984,12.136,6.288,15.888c3.421,3.199,8.276,4.854,14.454,4.854h0.111h0.772
	c3.751-0.11,6.841-0.771,9.488-1.874c0.663,0.661,1.766,1.544,3.641,2.646c1.654,1.104,3.311,2.207,5.074,2.978l3.421-6.95
	c-1.102-0.442-2.096-0.994-2.868-1.435C97.796,73.191,96.804,72.529,95.147,71.426z M85.658,65.027
	c-0.442-0.331-0.883-0.663-1.323-0.995c-1.766-1.102-2.978-1.875-3.641-2.207c-0.331-0.22-0.665-0.329-1.214-0.439
	c-0.222-0.112-0.442-0.112-0.772-0.222c-0.111,0-0.331-0.109-0.553-0.109l-1.985,4.412c0.993,0.441,1.766,0.883,2.538,1.215
	c0.33,0.219,0.551,0.329,0.772,0.439c0.661,0.441,1.214,0.883,1.653,1.324c-0.549,0-0.992,0.109-1.653,0.22h-0.772
	c-2.649,0-4.634-0.992-6.179-2.646c-1.434-1.876-2.207-4.964-2.207-9.378c0-3.642,0.772-6.511,2.317-8.277
	c1.542-1.765,3.531-2.648,5.958-2.648h0.111h0.772c2.315,0.222,4.083,0.993,5.405,2.539c1.436,1.764,2.207,4.744,2.207,8.829
	C87.092,60.613,86.76,63.26,85.658,65.027z"/>
<path d="M232.513,511.066v102.606c5.921,0.535,11.764,0.817,17.487,0.817c11.489,0,23.445-1.099,35.582-3.222V507.831
	c-11.616,2.835-23.527,4.268-35.582,4.268C244.083,512.099,238.25,511.742,232.513,511.066z"/>
<path d="M285.582,218.391V107.063h-53.069v108.059c5.737-0.676,11.57-1.036,17.487-1.036
	C262.259,214.086,274.177,215.586,285.582,218.391z"/>
<path fill="#F47421" d="M363.286,107.063v159.322c22.29,26.059,35.776,59.863,35.776,96.764c0,14.099-1.932,27.808-5.739,40.745
	c-3.199,11.487-7.848,22.574-13.846,33.023l20.994,20.706l0.663,0.661l4.44,4.444l-4.827,4.02l-0.438,0.366l-31.244,31.899
	l-0.022,0.021l-0.023,0.023l-0.661,0.663l-4.443,4.431l-0.63-0.756v80.644c14.021-7.511,27.313-16.195,39.389-25.783
	c4.771-3.78,9.332-7.71,13.682-11.75V107.063H363.286z"/>
<path fill="#1955A6" d="M350.968,107.063H297.9v114.92c19.905,6.771,37.93,17.651,53.068,31.616V107.063z"/>
<path fill="#1955A6" d="M301.393,503.035c-1.161,0.423-2.326,0.827-3.493,1.223v104.516c10.583-2.438,21.235-5.62,31.775-9.542
	c7.201-2.68,14.314-5.697,21.292-8.998V490.061l-9.281-9.57C329.493,490.129,315.964,497.702,301.393,503.035z"/>
<path d="M250,219.823c78.998,0,143.323,64.438,143.323,143.326c0,13.571-1.875,26.811-5.516,39.168
	c-3.532,12.688-8.827,24.604-15.557,35.527l24.164,23.833l0.66,0.662l-0.66,0.553l-31.446,32.105l-0.663,0.663l-0.549-0.663
	L342.13,472.71c-12.581,10.702-27.033,19.198-42.701,24.935c-15.447,5.628-32.109,8.717-49.43,8.717
	c-79,0-143.214-64.104-143.214-143.213C106.786,284.261,171,219.823,250,219.823z"/>
<path fill="#FFFFFF" d="M250,221.701c-78.006,0-141.447,63.554-141.447,141.448c0,78.006,63.44,141.448,141.447,141.448
	c17.101,0,33.542-3.09,48.767-8.717c15.778-5.848,30.231-14.342,42.809-25.045l0.663-0.662l0.552,0.662l21.514,22.176l30.12-30.672
	l-23.941-23.722l-0.549-0.441l0.331-0.661c6.837-11.035,12.247-22.95,15.888-35.639c3.421-12.247,5.295-25.267,5.295-38.727
	C391.448,285.255,328.006,221.701,250,221.701z"/>
<path d="M250,273.227c49.54,0,89.922,40.492,89.922,89.922c0,6.29-0.661,12.468-1.878,18.425
	c-1.212,6.179-3.197,12.028-5.625,17.543l-0.55,1.324l-0.994-0.993l-4.635-5.077l-30.45,30.563l8.053,8.938l0.661,0.773
	l-0.773,0.552c-7.613,5.738-16.218,10.37-25.377,13.351c-8.935,2.976-18.425,4.633-28.355,4.633
	c-49.54,0-89.923-40.382-89.923-90.032C160.077,313.719,200.46,273.227,250,273.227z"/>
<path fill="#1955A6" d="M335.509,342.074c-2.428,1.325-4.633,2.981-6.289,5.075c-1.543,1.989-2.539,4.305-2.539,6.732l-0.441,26.702
	v0.883h-0.773l-9.487,0.77h-1.104v-0.994l0.112-30.671c0-6.841-4.305-11.475-9.821-13.461c-2.206-0.772-4.636-1.212-7.063-1.212
	c-2.427,0-4.854,0.44-7.06,1.324c-5.628,2.207-10.151,7.392-10.151,16.107l-0.112,30.674v0.884H279.9l-10.041,0.771l-0.992,0.109
	v-0.993V346.71c0-8.275-3.753-12.8-8.938-14.786c-2.208-0.884-4.746-1.213-7.279-1.103c-2.541,0.11-5.188,0.552-7.617,1.433
	c-6.731,2.428-12.356,7.615-12.356,13.903v41.596v0.772h-0.884l-9.819,0.773l-0.992,0.109v-0.992l-0.111-47.112
	c0-8.497-5.405-14.344-12.356-16.771c-2.65-0.994-5.627-1.545-8.607-1.545c-2.979,0-5.958,0.552-8.826,1.657
	c-6.951,2.647-12.468,8.826-12.356,18.866v48.325v0.774l-0.884,0.11l-7.613,0.551h-0.883v-0.881v-47.997
	c0-2.978-0.109-5.956-0.331-8.938c-0.222-1.875-0.44-3.529-0.661-5.183c-4.084,10.147-6.4,21.295-6.4,32.878
	c0,48.546,39.499,88.156,88.046,88.156c9.599,0,18.977-1.656,27.694-4.522c8.715-2.869,16.88-7.061,24.163-12.357l-8.055-8.827
	l-0.552-0.663l0.663-0.661l31.667-31.777l0.661-0.662l0.772,0.662l4.303,4.634c2.096-5.075,3.75-10.48,4.854-15.889
	c1.325-5.845,1.874-11.915,1.874-18.093C338.044,355.979,337.272,348.917,335.509,342.074z"/>
<path fill="#1955A6" d="M186.557,302.245l142.112,21.405c-14.564-28.688-44.356-48.548-78.669-48.548
	C225.064,275.102,202.557,285.583,186.557,302.245z"/>
<path fill="#FFFFFF" d="M329.549,325.635l-144.537-21.736c-6.176,6.841-11.363,14.564-15.226,23.06
	c0.331,2.649,0.663,5.408,0.994,8.276c0.332,3.089,0.439,6.179,0.439,9.157l-0.107,47.002l5.736-0.44V343.51
	c0-11.034,5.959-17.652,13.684-20.634c2.866-1.102,6.068-1.764,9.376-1.764c3.09,0,6.288,0.662,9.27,1.655
	c7.612,2.758,13.571,9.048,13.571,18.536v46.118l8.055-0.661v-40.603c0-7.172,6.176-12.909,13.68-15.556
	c2.647-0.994,5.406-1.544,8.167-1.655c2.756-0.11,5.512,0.331,7.94,1.324c5.849,2.205,10.042,7.392,10.042,16.439v37.071
	l8.387-0.663v-29.79c0-9.488,4.963-15.335,11.363-17.875c2.428-0.88,5.075-1.434,7.722-1.434c2.649,0,5.297,0.442,7.615,1.434
	c6.289,2.208,11.143,7.394,11.143,15.117l-0.11,29.79l7.722-0.662l0.332-25.818c0-2.868,1.104-5.517,2.979-7.944
	c1.875-2.317,4.413-4.193,7.28-5.737c-0.661-2.429-1.432-4.854-2.315-7.281C331.757,330.49,330.764,328.062,329.549,325.635z"/>
<path d="M237.091,238.14c-1.104-1.765-2.539-2.978-4.304-3.75c-1.104-0.443-2.208-0.662-3.42-0.774l0,0v2.979l0,0
	c1.103,0,2.206,0.331,3.199,1.214c1.215,0.881,2.096,2.427,2.43,4.523c0.331,1.985,0.109,3.641-0.774,4.965
	c-0.773,1.322-1.986,2.095-3.642,2.317c-0.441,0.112-0.77,0.22-1.212,0.22l0,0v3.2l0,0c0.333,0,0.662-0.11,0.882-0.11
	c1.435-0.22,2.758-0.774,3.752-1.765c1.104-0.883,1.986-1.875,2.429-3.201c0.112,0.333,0.112,0.553,0.112,0.66
	c0.219,1.549,0.326,2.981,0.219,4.415c0,1.436-0.331,2.649-0.663,3.642c-0.443,0.881-0.885,1.656-1.656,2.317
	c-0.661,0.551-1.655,0.992-2.758,1.211c-0.771,0.113-1.545,0.113-2.317-0.109l0,0v3.2l0,0c0.882,0,1.875,0,2.758-0.109
	c2.097-0.442,3.973-1.327,5.297-2.76c1.322-1.322,2.207-3.2,2.648-5.518c0.442-2.315,0.331-5.295-0.333-8.936
	C239.077,242.444,238.302,239.794,237.091,238.14z M229.367,233.616c-0.662,0-1.213,0.112-1.876,0.222
	c-2.648,0.441-4.634,1.655-6.066,3.75c-1.327,2.098-1.766,4.636-1.213,7.504c0.329,2.757,1.652,4.964,3.639,6.398
	c1.656,1.215,3.532,1.767,5.517,1.545v-3.2c-1.103-0.108-2.208-0.442-3.2-1.102c-1.213-0.884-2.097-2.428-2.427-4.193
	c-0.331-1.986,0-3.751,0.885-5.187c0.991-1.543,2.205-2.426,3.749-2.647c0.331-0.11,0.663-0.11,0.993-0.11V233.616L229.367,233.616z
	 M229.367,260.096c-0.331-0.11-0.662-0.221-0.993-0.441c-0.883-0.55-1.544-1.544-2.207-3.09l-3.31,0.883
	c0.664,2.207,1.876,3.752,3.531,4.745c0.882,0.66,1.875,0.994,2.979,1.103V260.096z"/>
<path d="M188.213,247.298c0.109,1.435-0.109,3.09-0.773,4.966c-0.771,1.875-1.655,3.749-2.978,5.516l1.654,2.979
	c0.773-0.772,1.656-1.986,2.429-3.418c0.773-1.436,1.434-2.649,1.767-3.753l11.032,19.859l3.088-1.653l-14.121-25.6L188.213,247.298
	z"/>
<path d="M260.371,247.298l3.312,0.883c0.661-0.661,1.432-1.103,2.426-1.545c0.992-0.331,2.095-0.442,3.199-0.221
	c1.875,0.331,3.203,1.105,4.194,2.539c0.882,1.324,1.214,2.977,0.882,5.075c-0.441,2.095-1.324,3.643-2.758,4.744
	c-1.326,1.103-2.87,1.433-4.636,1.214c-1.433-0.331-2.537-0.992-3.307-2.097c-0.884-1.102-1.215-2.538-1.215-4.412l-3.751-0.333
	c-0.222,2.429,0.439,4.634,1.762,6.4c1.438,1.656,3.422,2.758,6.07,3.309c3.09,0.442,5.848-0.22,8.167-2.207
	c1.763-1.653,2.978-3.751,3.309-6.288c0.551-2.757,0.112-5.073-1.324-7.169c-1.435-1.988-3.421-3.313-5.846-3.753
	c-1.878-0.33-3.864,0-5.739,0.882l2.869-7.392l11.475,1.986l0.552-3.311l-14.233-2.538L260.371,247.298z"/>
<path d="M305.608,274.55L305.608,274.55c1.104-0.551,2.207-1.322,3.31-2.206c1.655-1.544,3.309-3.752,4.856-6.841
	c1.434-2.427,2.427-4.522,2.87-6.29c0.439-1.655,0.549-3.201,0.439-4.631c0-1.438-0.439-2.652-1.214-3.863
	c-0.661-1.105-1.764-1.987-3.198-2.76c-1.766-0.994-3.642-1.325-5.296-0.994c-0.663,0.112-1.215,0.224-1.766,0.44l0,0v3.866l0,0
	c0.44-0.334,0.773-0.553,1.215-0.885c1.544-0.661,2.979-0.661,4.412,0.108c1.436,0.886,2.317,2.209,2.54,4.195
	c0.22,1.875-0.774,4.854-3.091,9.158c-1.985,3.309-3.64,5.627-5.075,6.839l0,0V274.55z M298.326,273.998
	c1.876,0.994,3.641,1.437,5.518,1.104l1.764-0.552v-3.861c-0.331,0.332-0.772,0.441-1.103,0.663c-1.764,0.771-3.309,0.771-4.745,0
	c-1.435-0.663-2.207-2.097-2.427-4.082c-0.22-1.874,0.771-4.966,3.198-9.158c1.767-3.201,3.424-5.406,5.077-6.838v-3.866
	c-1.214,0.442-2.317,1.214-3.42,2.208c-1.656,1.546-3.2,3.752-4.965,6.73c-2.649,4.744-3.752,8.717-3.2,11.694
	C294.463,270.688,295.898,272.564,298.326,273.998z"/>
<path d="M379.753,381.574c-0.112-1.213-0.332-2.318-0.773-3.421c-0.552-0.882-1.325-1.763-2.318-2.536
	c-1.102-0.772-2.313-1.215-3.641-1.544c-0.771,0-1.543-0.11-2.315,0v3.971c0.442-0.113,1.103-0.113,1.544,0.109
	c0.992,0.11,1.764,0.333,2.427,0.884c0.551,0.552,0.995,1.103,1.325,1.766c0.331,0.663,0.331,1.433,0.331,2.315
	c0,0.553,0,1.326-0.331,2.648l-1.104,7.173l-4.192-0.773v3.861l6.841,1.214l1.875-10.924
	C379.753,384.444,379.863,383.009,379.753,381.574z M370.706,374.073c-0.771,0.111-1.546,0.441-2.208,0.772
	c-1.434,0.661-2.536,1.876-3.311,3.418c-0.439-1.432-1.21-2.536-2.093-3.418c-0.995-0.772-2.098-1.433-3.312-1.544
	c-0.663-0.22-1.215-0.22-1.766-0.112v3.863c0.442-0.112,0.995-0.112,1.544,0c0.996,0.22,1.767,0.553,2.427,1.102
	c0.554,0.773,0.885,1.437,0.996,2.539c0.11,0.774,0,1.987-0.22,3.641l-1.103,6.181l-3.644-0.554v3.861l12.69,2.207v-3.861
	l-5.737-1.104l1.102-6.618c0.333-1.766,0.774-3.091,1.324-4.083c0.443-0.882,1.215-1.544,1.988-1.986
	c0.44-0.222,0.883-0.222,1.324-0.331V374.073z M358.016,373.188h-0.109c-0.662,0.112-1.436,0.224-2.096,0.553
	c-1.326,0.442-2.429,1.432-3.2,2.537c-0.882,1.215-1.436,2.979-1.875,5.188l-1.876,10.7l9.047,1.655h0.109v-3.861h-0.109
	l-4.964-0.992l0.993-5.628c0.33-2.097,0.772-3.529,1.103-4.413c0.441-0.773,1.103-1.322,1.875-1.655
	c0.332-0.11,0.661-0.22,0.994-0.22h0.109V373.188z"/>
<polygon points="178.836,442.258 180.819,444.466 183.357,442.258 178.836,437.293 167.69,425.268 165.153,427.696 171.663,434.646 
	158.202,447.334 152.905,452.188 155.554,454.946 158.202,452.52 174.311,437.515 "/>
<path d="M320.283,462.781l-2.097,0.661c0.773,2.428,0.883,4.524,0.331,6.287c-0.771,1.877-1.984,3.31-3.749,4.415
	c-1.546,0.993-3.202,1.436-5.078,1.436c-1.765,0-3.309-0.661-4.965-1.768c-1.544-1.211-2.978-2.977-4.193-5.075
	c-0.991-1.544-1.764-3.42-2.094-5.295c-0.442-1.765-0.221-3.642,0.441-5.295c0.771-1.543,1.985-2.979,3.972-4.081
	c1.655-0.994,3.309-1.436,4.965-1.215c1.544,0.112,3.201,0.881,4.855,2.316l2.758-2.647c-2.097-1.767-4.304-2.871-6.731-3.202
	c-2.539-0.222-4.965,0.443-7.501,1.876c-2.208,1.325-3.863,2.979-5.077,5.076c-1.213,2.096-1.764,4.304-1.545,6.839
	c0.112,2.539,0.995,5.187,2.539,7.725c1.434,2.316,3.198,4.302,5.295,5.958c2.097,1.434,4.304,2.207,6.73,2.317
	c2.428,0.11,4.856-0.663,7.505-2.317c1.542-0.773,2.646-1.875,3.64-2.981c0.772-0.99,1.325-1.983,1.654-2.977
	c0.993-2.539,0.993-5.406,0-8.496L320.283,462.781z"/>
<path d="M163.389,419.75l-1.656-3.421l-3.531,1.766l-11.475,5.626c-3.309,1.546-5.737,2.098-7.392,1.546
	c-1.765-0.443-3.199-1.989-4.415-4.525c-0.772-1.545-1.103-2.87-0.993-4.303c0.11-1.215,0.553-2.317,1.434-3.309
	c0.882-0.993,2.429-1.986,4.635-3.091l15.004-7.28l-1.655-3.532l-15.007,7.391c-2.756,1.436-4.743,2.76-6.067,4.195
	c-1.214,1.432-1.875,3.088-1.985,5.075c-0.11,2.097,0.441,4.302,1.655,6.619c1.213,2.539,2.649,4.303,4.415,5.408
	c1.763,1.103,3.531,1.542,5.404,1.434c1.769-0.22,4.083-0.883,6.622-2.209l9.818-4.745L163.389,419.75z"/>
<polygon points="134.921,391.945 138.231,391.393 135.915,377.931 144.852,376.39 147.499,391.945 150.81,391.393 147.499,371.976 
	118.813,377.051 119.474,380.803 132.604,378.487 "/>
<path d="M198.806,451.969l-5.409-3.421l-3.751-2.318l-2.647,4.082v7.283l4.083-6.51l2.315,1.436l2.649,1.545
	c1.654,1.102,2.868,2.093,3.53,2.756c0.553,0.663,0.883,1.325,0.883,2.207c0,0.883-0.222,1.766-0.771,2.539
	c-0.552,0.881-1.214,1.434-1.988,1.763c-0.771,0.332-1.654,0.332-2.647,0.112c-0.44-0.22-0.993-0.332-1.656-0.773
	c-0.439-0.22-0.992-0.55-1.653-0.992l-4.745-2.869v3.972l3.312,2.097c1.433,0.881,2.427,1.654,3.086,2.315
	c0.113,0.112,0.222,0.221,0.332,0.331c0.663,0.773,0.993,1.656,0.993,2.649c0.11,0.993-0.22,1.876-0.773,2.866
	c-0.22,0.224-0.331,0.442-0.552,0.666c-0.331,0.439-0.771,0.881-1.212,1.104c-0.662,0.441-1.434,0.549-2.207,0.549
	c-0.661,0-1.434-0.108-2.207-0.439c-0.222-0.11-0.441-0.222-0.773-0.442v3.861c0.332,0.11,0.663,0.222,0.881,0.222
	c1.215,0.441,2.431,0.661,3.422,0.441c0.662,0,1.435-0.11,2.095-0.441c0.444-0.222,0.774-0.442,1.215-0.661
	c1.103-0.664,1.987-1.547,2.759-2.761c0.77-1.433,1.212-2.868,1.103-4.523c-0.111-1.544-0.774-2.979-2.096-4.304
	c1.544,0.11,2.868-0.108,3.97-0.661c1.214-0.663,2.208-1.434,2.759-2.539c0.773-1.102,1.102-2.315,1.102-3.75
	c0-1.325-0.439-2.757-1.322-3.861C202.114,454.284,200.791,453.181,198.806,451.969z M186.999,450.312l-8.163,13.019l-4.636,7.284
	l4.636,2.868l4.853,2.979c1.104,0.773,2.317,1.437,3.31,1.876v-3.861c-0.442-0.22-0.883-0.44-1.544-0.883l-6.18-3.864l5.295-8.494
	l2.429,1.545v-3.972l-0.551-0.442l0.551-0.772V450.312z"/>
<polygon points="254.191,491.137 251.985,465.537 248.235,465.87 250.661,494.777 268.868,493.231 268.426,489.812 "/>
<polygon points="339.261,454.946 320.503,437.515 320.283,437.737 317.857,440.383 320.283,442.591 339.147,460.022 
	351.398,446.893 348.968,444.466 "/>
<path d="M366.512,412.357c-1.213-1.433-3.09-2.756-5.737-3.972l-2.869-1.434l-12.137-5.958l-1.765,3.42l13.901,6.951l1.104,0.441
	c3.312,1.656,5.185,3.2,5.958,4.854c0.549,1.654,0.218,3.75-0.992,6.288c-0.775,1.546-1.655,2.649-2.759,3.311
	c-0.994,0.774-2.099,0.993-3.311,0.993c0,0-0.109,0-0.218,0c-1.218-0.111-3.092-0.772-5.299-1.875l-15.004-7.282l-1.655,3.421
	l15.006,7.392c2.756,1.323,5.075,2.098,7.061,2.207h0.109c1.875,0.11,3.642-0.44,5.187-1.544c1.543-1.215,2.977-2.981,4.082-5.407
	c1.322-2.538,1.766-4.747,1.544-6.841C368.609,415.336,367.837,413.571,366.512,412.357z"/>
<path d="M234.775,466.091c-1.768-1.769-3.972-2.981-6.511-3.642c-1.324-0.33-2.538-0.441-3.751-0.441v3.309
	c0.883,0,1.985,0.112,2.979,0.442c1.766,0.332,3.421,1.325,4.634,2.537c1.215,1.433,2.097,2.979,2.427,4.854
	c0.331,1.986,0.223,4.083-0.331,6.4c-0.881,3.531-2.538,6.18-4.854,7.724c-1.434,0.994-3.09,1.544-4.854,1.544v3.31
	c1.324,0,2.428-0.221,3.751-0.44c2.315-0.663,4.413-1.986,6.178-3.863c1.656-2.095,2.868-4.414,3.532-7.394
	c0.77-2.757,0.883-5.405,0.328-7.944C237.754,470.062,236.542,467.966,234.775,466.091z M224.513,462.008L224.513,462.008
	c-2.539,0-4.854,0.661-7.063,1.985c-3.09,2.098-5.296,5.405-6.398,10.151c-0.772,2.429-0.772,4.856-0.22,7.394
	c0.552,2.537,1.655,4.632,3.529,6.4c1.655,1.874,3.864,3.088,6.622,3.751c1.102,0.219,2.317,0.44,3.53,0.44l0,0v-3.31l0,0
	c-0.991,0-1.876-0.11-2.869-0.331c-2.758-0.663-4.743-2.207-6.178-4.746c-1.215-2.315-1.546-5.183-0.661-8.605
	c0.993-4.302,2.759-7.061,5.075-8.385c1.545-0.882,3.088-1.323,4.633-1.435l0,0V462.008z"/>
<path d="M261.805,436.409c-5.075,1.767-10.481,1.436-15.005-0.661c-4.523-2.096-8.276-6.067-10.15-11.142
	c-1.874-5.075-1.436-10.374,0.661-14.896c2.098-4.635,5.959-8.384,11.033-10.152c5.075-1.873,10.483-1.544,15.007,0.663
	c4.633,2.097,8.385,5.958,10.262,11.033c1.874,5.076,1.433,10.372-0.773,15.005C270.743,430.784,266.99,434.535,261.805,436.409z"/>
<path fill="#FFFFFF" d="M272.839,412.246c-0.11-0.331-0.222-0.661-0.222-0.661c-0.107-0.22-0.107-0.332-0.22-0.44
	c0.22,0.55,0.332,0.881,0.332,0.993L272.839,412.246z"/>
<polygon fill="#FFFFFF" points="240.29,429.571 240.29,429.571 240.29,429.571 "/>
<path fill="#FFFFFF" d="M268.204,405.297c2.65,2.537,3.863,5.957,4.193,7.171c0.332,0.22,0.882,0.663,1.325,1.212
	c-0.221-0.771-0.332-1.542-0.663-2.315c-1.104-2.87-2.759-5.407-4.855-7.393C268.204,404.302,268.316,404.855,268.204,405.297z"/>
<path fill="#FFFFFF" d="M248.235,400.994c3.971-1.545,7.392-1.324,8.826-1.102c0.22-0.222,0.773-0.555,1.214-0.774
	c-3.199-0.554-6.51-0.332-9.708,0.774c-0.773,0.329-1.544,0.661-2.318,1.102C246.8,400.994,247.573,400.884,248.235,400.994z"/>
<path fill="#FFFFFF" d="M255.296,436.301c-0.33,0.221-0.772,0.441-1.435,0.771c2.537,0.11,5.186-0.22,7.835-1.103
	c0.549-0.221,1.102-0.552,1.763-0.772c-0.442,0-0.882,0-1.102,0C259.156,436.409,256.399,436.409,255.296,436.301z"/>
<path fill="#FFFFFF" d="M237.201,422.728c-0.222-0.332-0.552-0.551-0.771-0.883c0.112,0.883,0.438,1.768,0.771,2.649
	c0.773,2.317,1.987,4.303,3.529,6.069c-0.108-0.663-0.218-1.105-0.218-1.213C238.417,426.59,237.532,423.831,237.201,422.728z"/>
<path fill="#FFFFFF" d="M265.115,430.674c-0.22,0.77-0.771,2.646-1.765,3.751c0.551,0,1.103,0.11,1.323,0h0.113l0,0
	c3.417-1.987,6.068-4.854,7.724-8.385c0.329-0.772,0.549-1.546,0.88-2.318c-0.551,0.333-1.435,0.884-2.648,1.213
	C268.977,427.696,267.212,429.571,265.115,430.674z"/>
<path fill="#FFFFFF" d="M236.208,420.523c0,0,0.441,0.661,1.103,1.212c0.221-0.771,0.882-2.318,1.767-3.309
	c-0.109-1.324-0.22-4.194,1.101-8.165c-0.328-0.551-0.77-1.766-0.66-3.42c-0.661,0.883-1.216,1.986-1.764,2.978
	c-1.546,3.312-2.099,6.951-1.656,10.591h0.11V420.523z"/>
<path fill="#FFFFFF" d="M252.427,436.852c0.662-0.331,1.324-0.551,1.878-0.883c-0.443-0.334-1.216-0.994-1.878-2.758
	c-2.316-0.663-5.957-2.647-7.279-3.641c-0.775,0.331-2.54,0.771-3.754,0.44c0.111,0.553,0.222,1.214,0.332,1.656l0,0
	c1.544,1.544,3.309,2.758,5.297,3.639c1.656,0.773,3.419,1.326,5.293,1.546l0,0H252.427z"/>
<path fill="#FFFFFF" d="M251.765,410.372c0.993-0.441,4.083-1.434,7.173-1.105l2.646-5.183c-1.322-2.098-3.42-3.09-4.414-3.531
	c-1.101-0.112-4.632-0.553-8.715,1.103c-0.551,0.662-1.544,2.206-1.767,4.744C249.337,407.724,250.993,409.489,251.765,410.372z"/>
<path fill="#FFFFFF" d="M251.215,410.925c-0.662-0.773-2.43-2.76-5.076-3.863c-2.761,0.663-4.523,2.427-5.186,3.311
	c-1.324,3.86-1.324,6.618-1.102,8.054c0.55,0.661,2.205,2.317,4.412,3.199c2.207-2.209,4.964-3.311,6.178-3.752
	C250.11,415.116,250.993,411.806,251.215,410.925z"/>
<path fill="#FFFFFF" d="M262.246,404.302l-2.537,5.298c1.543,1.324,2.979,4.852,3.421,6.067c2.979-0.11,5.406,0.772,6.29,1.322
	c1.212-1.102,1.983-3.198,2.315-4.191c-0.333-0.993-1.436-4.634-4.082-7.171C266.99,405.187,265.005,404.084,262.246,404.302z"/>
<path fill="#FFFFFF" d="M263.018,416.44c-0.66,0.883-2.426,3.091-5.075,5.186c0.995,3.089,1.214,5.848,1.214,7.063
	c2.32,0.881,4.636,1.212,5.517,1.322c3.202-1.655,5.187-5.076,5.627-5.847c0.11-1.215,0.11-3.753-0.88-6.398
	C268.647,417.323,266.22,416.219,263.018,416.44z"/>
<path fill="#FFFFFF" d="M250.771,418.538c-0.992,0.329-3.75,1.433-6.179,3.749c-0.109,3.42,0.441,5.737,0.772,6.621
	c1.105,0.773,4.855,2.979,7.172,3.53c0.881-0.331,3.42-1.654,5.848-3.749c0-1.104-0.222-3.864-1.215-6.954
	C256.068,421.294,252.537,419.86,250.771,418.538z"/>
</svg>
