<?xml version="1.0" encoding="utf-8"?>
<!-- Generator: Adobe Illustrator 26.0.0, SVG Export Plug-In . SVG Version: 6.00 Build 0)  -->
<svg version="1.1" id="Capa_1" xmlns="http://www.w3.org/2000/svg" xmlns:xlink="http://www.w3.org/1999/xlink" x="0px" y="0px"
	 viewBox="0 0 514.8 592.4" style="enable-background:new 0 0 514.8 592.4;" xml:space="preserve">
<style type="text/css">
	.st0{fill:#E42313;}
	.st1{fill:#FFFFFF;}
</style>
<polygon class="st0" points="514.8,443.1 514.8,149.3 257.4,0 0,149.3 0,443.1 257.4,592.4 "/>
<polygon class="st1" points="470.8,174.7 257.4,51 44.1,174.7 44.1,417.7 257.4,541.4 470.8,417.7 "/>
<polygon class="st0" points="410.2,191 431.2,240.8 257.4,170.5 144.3,211.6 107.9,294.6 143.9,376.8 144.4,377.8 257.4,418.7 
	430.7,348.8 430.9,349.2 410.2,398.2 257.4,451.4 114.9,411.4 58.7,294.6 114.9,177.8 257.4,137.8 "/>
<polygon class="st0" points="166.2,211.4 217.7,192.8 148.2,368.2 116.2,295.4 "/>
<path class="st0" d="M260.4,229.1c13.1,0.4,24.7,4.4,35,11.6c-3.9,5.5-7.6,9.7-11.3,12.7c-8.2,6.2-16.2,5.7-23.7-1.4V229.1z"/>
<polygon class="st0" points="311.3,148.8 274.6,136.1 257.4,92.6 240.6,135 206,144.7 257.4,58.3 "/>
<path class="st0" d="M219.5,240.6c10.3-7.1,21.9-11.2,35-11.6v22.8c-7.5,7.1-15.4,7.6-23.5,1.4C227.1,250.4,223.3,246.1,219.5,240.6
	z"/>
<path class="st0" d="M285.6,259.4c10.6,8.8,16,19.6,16.2,32.6h-13.3c-1.2-3-4.4-5.9-9.6-8.1c-5.9-2.5-13.2-3.7-21.9-3.7
	c-8.2,0-15.3,1.2-21.2,3.7h-0.2c-5.1,2.2-8.4,5-9.5,8.1h-13.1c0.2-12.9,5.4-23.8,16.2-32.6c9.7,6.5,19.1,5.7,28-2.2
	C266.4,265.1,275.8,265.8,285.6,259.4z"/>
<path class="st0" d="M307.5,295c0-0.2,0-0.2,0-0.3c0.8-15.6-5-28.7-17.2-39.3c3.1-2.9,6.3-6.6,9.7-11.2c1.4,1.2,2.9,2.5,4.4,3.9
	c12.8,13,19.1,28.5,19.2,46.6c-0.1,18.1-6.5,33.7-19.2,46.8c-1.4,1.3-2.9,2.6-4.4,3.9c-3.4-4.5-6.6-8.4-9.7-11.3
	C302.5,323.6,308.3,310.6,307.5,295z"/>
<path class="st0" d="M288.6,297.8h13.3c-0.2,12.9-5.6,23.8-16.2,32.6c-9.8-6.5-19.2-5.7-28.2,2.2c-9-7.9-18.4-8.6-28-2.2
	c-10.8-8.8-16-19.7-16.2-32.6h13.1c1.1,3.1,4.4,5.9,9.5,8.1h0.2c5.7,2.4,13.1,3.6,21.7,3.8c8.3-0.2,15.4-1.3,21.3-3.8
	C284.2,303.7,287.4,300.9,288.6,297.8z"/>
<path class="st0" d="M238.2,289.3c5.1-2.2,11.4-3.3,18.9-3.3c7.8,0,14.3,1.1,19.7,3.3h-0.2c3.9,1.6,6,3.5,6.5,5.5
	c-0.4,2.1-2.6,4-6.5,5.6h0.2c-5.3,2.2-11.6,3.2-19.1,3.4c-7.7-0.2-14.2-1.2-19.5-3.4c-3.9-1.6-6-3.5-6.5-5.6
	C232.2,292.8,234.3,290.9,238.2,289.3z"/>
<path class="st0" d="M231,336.6c8.1-6.3,16-5.7,23.5,1.5v22.7c-13.1-0.6-24.7-4.5-35-11.8C223.3,343.6,227.1,339.4,231,336.6z"/>
<path class="st0" d="M260.4,360.8v-22.7c7.5-7.2,15.4-7.8,23.7-1.5c3.7,2.9,7.5,7.1,11.3,12.5C285,356.3,273.5,360.2,260.4,360.8z"
	/>
<path class="st0" d="M215,345.5c-1.6-1.3-3.1-2.6-4.4-3.9c-12.8-13.1-19.3-28.6-19.3-46.8c0-18,6.5-33.6,19.3-46.6
	c1.3-1.4,2.8-2.8,4.4-3.9c3.2,4.5,6.5,8.2,9.5,11.2c-12.1,10.6-17.9,23.7-17.1,39.3c0,0.1,0,0.1,0,0.3c-0.8,15.6,5,28.6,17.1,39.2
	C221.4,337.2,218.1,341,215,345.5z"/>
<polygon class="st0" points="126.8,422.4 114.7,453.2 96.9,396.8 44.7,415.4 80.1,355.9 109.8,417.6 "/>
<polygon class="st0" points="426.8,342.4 366.1,366.9 298,194.8 351.8,216.5 "/>
<polygon class="st0" points="415.8,404.1 400.2,453.2 385.1,414.8 415.6,404.1 "/>
<polygon class="st0" points="435.6,357.2 470.3,415.4 418.7,397.2 "/>
</svg>
