<?xml version="1.0" encoding="utf-8"?>
<!-- Generator: Adobe Illustrator 13.0.0, SVG Export Plug-In . SVG Version: 6.00 Build 14948)  -->
<!DOCTYPE svg PUBLIC "-//W3C//DTD SVG 1.0//EN" "http://www.w3.org/TR/2001/REC-SVG-20010904/DTD/svg10.dtd">
<svg version="1.0" id="Ebene_1" xmlns="http://www.w3.org/2000/svg" xmlns:xlink="http://www.w3.org/1999/xlink" x="0px" y="0px"
	 width="374.171px" height="374.175px" viewBox="0 0 374.171 374.175" enable-background="new 0 0 374.171 374.175"
	 xml:space="preserve">
<path fill-rule="evenodd" clip-rule="evenodd" d="M187.086,0C290.13,0,374.171,84.043,374.171,187.086
	c0,103.042-84.041,187.089-187.085,187.089S0,290.128,0,187.086C0,84.043,84.042,0,187.086,0L187.086,0z"/>
<path fill-rule="evenodd" clip-rule="evenodd" fill="#FFED00" d="M187.086,4.132c100.769,0,182.954,82.188,182.954,182.954
	c0,100.769-82.186,182.956-182.954,182.956S4.13,287.854,4.13,187.086C4.13,86.319,86.317,4.132,187.086,4.132L187.086,4.132z"/>
<path fill-rule="evenodd" clip-rule="evenodd" d="M210.692,20.854c81.369,11.534,144.299,81.765,144.299,166.231
	c0,30.53-8.229,59.198-22.572,83.909l-25.535-14.742c9.488-16.348,15.723-34.797,17.818-54.453h-84.578v113.078v19.906v11.586
	c-9.467,3.168-19.309,5.512-29.432,6.949v-18.535v-11.328V50.719V37.436V20.854L210.692,20.854z M324.696,172.372
	c-5.441-51.08-38.865-94.005-84.572-113.079v113.079H324.696L324.696,172.372z M134.048,314.878V59.291
	C105.93,71.027,82.461,91.79,67.294,117.925l-25.546-14.749C67.086,59.52,111.52,28.22,163.479,20.854v17.519v12.346v272.737v15.078
	v14.785c-51.958-7.367-96.394-38.668-121.73-82.32l25.545-14.75C82.461,282.382,105.931,303.144,134.048,314.878L134.048,314.878z"
	/>
</svg>
