<?xml version="1.0" encoding="UTF-8" standalone="no"?>
<!-- Generator: Adobe Illustrator 15.0.2, SVG Export Plug-In . SVG Version: 6.00 Build 0)  -->

<svg
   xmlns:dc="http://purl.org/dc/elements/1.1/"
   xmlns:cc="http://creativecommons.org/ns#"
   xmlns:rdf="http://www.w3.org/1999/02/22-rdf-syntax-ns#"
   xmlns:svg="http://www.w3.org/2000/svg"
   xmlns="http://www.w3.org/2000/svg"
   xmlns:sodipodi="http://sodipodi.sourceforge.net/DTD/sodipodi-0.dtd"
   xmlns:inkscape="http://www.inkscape.org/namespaces/inkscape"
   version="1.1"
   id="Layer_1"
   x="0px"
   y="0px"
   width="1000"
   height="1192.1327"
   viewBox="0 0 1000 1192.1327"
   enable-background="new 0 0 684.566 123.643"
   xml:space="preserve"
   inkscape:version="0.48.2 r9819"
   sodipodi:docname="Logo.svg"><metadata
   id="metadata219"><rdf:RDF><cc:Work
       rdf:about=""><dc:format>image/svg+xml</dc:format><dc:type
         rdf:resource="http://purl.org/dc/dcmitype/StillImage" /></cc:Work></rdf:RDF></metadata><defs
   id="defs217" /><sodipodi:namedview
   pagecolor="#ffffff"
   bordercolor="#666666"
   borderopacity="1"
   objecttolerance="10"
   gridtolerance="10"
   guidetolerance="10"
   inkscape:pageopacity="0"
   inkscape:pageshadow="2"
   inkscape:window-width="1051"
   inkscape:window-height="1033"
   id="namedview215"
   showgrid="false"
   fit-margin-left="0.5"
   fit-margin-bottom="0.5"
   fit-margin-top="0.5"
   fit-margin-right="0.5"
   inkscape:zoom="0.19154758"
   inkscape:cx="827.3801"
   inkscape:cy="-156.73692"
   inkscape:window-x="859"
   inkscape:window-y="-15"
   inkscape:window-maximized="0"
   inkscape:current-layer="g3" />
<g
   id="g3"
   transform="translate(0.49872077,1068.1027)">
	<path
   d="m 950.89514,-539.26045 -0.42389,-5.67427 c -0.10597,0.0193 -5.26964,0.20231 -11.84947,-0.44315 1.54139,-13.41014 5.49122,-70.3647 -36.00122,-91.10611 -21.69515,-10.84757 -42.50399,-12.94772 -60.15297,-6.05961 -8.89192,3.47777 -16.90718,9.23874 -23.86272,17.01315 0.29864,-1.06934 0.64545,-2.14832 0.90556,-3.25619 7.79369,-32.08993 0.37572,-89.60325 0.0482,-92.04059 l -0.74179,-5.81876 -36.90679,37.92796 c -9.18094,-9.67226 -21.23273,-25.54863 -19.49866,-33.03403 l 2.22539,-9.66263 -7.00371,7.01335 c -0.51059,0.52022 -12.44677,12.58164 -12.44677,23.31361 v 22.56218 c -8.85339,5.17331 -55.83706,33.92033 -68.55357,68.43796 l -0.50095,1.33909 0.7996,1.19458 c 0.21194,0.34681 17.52374,25.539 57.62892,20.64507 -8.97863,22.67778 -23.53518,55.67328 -29.93197,60.78878 -6.26192,5.01917 -10.6838,2.67818 -12.14813,1.58957 -1.76297,-6.69544 -13.256,-45.76982 -41.25159,-45.76982 -9.58556,0 -16.65671,2.77452 -21.00152,8.2272 -3.12132,3.92093 -4.2003,8.49695 -4.48931,12.3408 -17.87056,-14.61436 -38.33258,-26.14592 -60.57685,-33.92034 v -37.23433 c 2.49514,-18.48711 40.54834,-57.98538 40.94332,-58.38036 l 0.7418,-0.7707 0.0482,-1.05007 c 3.04425,-57.88904 42.66775,-86.08694 43.0531,-86.35669 l 0.80923,-0.56839 0.28901,-0.95374 c 0.13488,-0.44315 3.32364,-11.07878 -2.80341,-19.37341 -4.40261,-5.95364 -12.23483,-8.969 -23.31361,-8.969 -33.17854,0 -53.17814,30.17282 -62.38798,48.88151 l -1.80151,-158.00268 c 0,-5.9729 -4.16176,-17.35996 -19.92253,-17.35996 -8.76669,0 -14.8263,3.77641 -18.77613,8.08269 -1.97491,-11.30999 -8.20793,-25.19219 -22.85119,-25.19219 -17.84165,0 -25.00914,15.24055 -26.30969,23.30398 l -0.0771,0.47205 0.0867,0.48169 c 2.18686,12.01325 2.44697,96.40466 2.47587,115.69137 -2.97682,-1.22349 -6.20412,-1.45469 -9.7686,-0.70326 -7.09042,1.51249 -11.32925,5.00953 -13.39087,12.38896 -21.02078,-11.83984 -34.40202,7.58174 -34.5369,7.80332 l -0.30827,0.47205 -0.11561,0.56839 c -8.23683,42.44618 16.85901,122.47351 21.23272,129.7566 l 0.92484,1.24275 c 0.89594,10.24065 9.18094,29.19982 11.14622,33.58316 l -1.5414,1.53176 -0.8285,0.8285 v 1.17532 24.07467 c -27.96669,7.35053 -53.55386,20.59689 -75.32607,38.33258 -0.30828,-3.80532 -1.38726,-8.29464 -4.47005,-12.18666 -4.34481,-5.45269 -11.41596,-8.2272 -21.00151,-8.2272 -27.9956,0 -39.48863,39.08401 -41.2516,45.76981 -1.46433,1.08861 -5.87657,3.41998 -12.15776,-1.58956 -6.38716,-5.09624 -20.94371,-38.0821 -29.92234,-60.78879 40.09555,4.92284 57.39772,-20.26935 57.61929,-20.64506 l 0.7996,-1.19459 -0.49132,-1.33908 c -12.71651,-34.51763 -59.70017,-63.24539 -68.55356,-68.43796 v -22.56218 c 0,-10.73197 -11.94582,-22.79339 -12.44677,-23.31361 l -7.00372,-7.01335 2.23502,9.66262 c 1.71481,7.46614 -10.32735,23.36178 -19.49865,33.03404 l -32.80282,-33.71803 -4.0847,-4.2003 -0.7707,5.81876 c -0.31791,2.43734 -7.72625,59.96029 0.0578,92.04059 0.26975,1.10787 0.60693,2.18685 0.91521,3.25619 -6.95555,-7.77441 -14.96117,-13.51611 -23.87237,-17.01315 -17.64898,-6.87848 -38.44818,-4.78796 -60.152959,6.05961 -41.492442,20.74141 -37.542616,77.69597 -35.991586,91.10611 -6.579833,0.6551 -11.753141,0.47206 -11.849479,0.45279 l -0.41425,5.67426 c 16.974619,1.77261 33.10147,22.94753 34.392388,39.07438 0.712896,8.98826 -0.905569,17.61044 -2.620372,26.76248 -1.184948,6.32935 -2.418064,12.89955 -2.784146,19.51792 -0.732163,13.03443 0.346814,26.30006 1.377623,39.15145 l 0.211942,2.63 c 1.830407,22.9668 6.945913,43.63113 15.173112,61.50168 4.489315,9.7397 11.107677,17.98616 17.504477,25.98215 4.9999,6.22339 10.16357,12.69725 14.13267,19.69133 6.42569,11.31963 14.92263,22.50438 23.1402,33.34231 10.32735,13.64135 20.94371,27.69696 27.63915,42.13791 l -0.0771,-0.0193 1.40652,4.48931 c 0.0578,0.20231 0.54912,1.60883 1.7726,3.51631 -20.51019,4.1136 -61.27047,19.0844 -61.27047,73.25482 0,20.44276 8.37171,35.76038 24.90317,45.52898 32.1381,18.978428 89.52618,10.972805 117.14607,-3.04426 6.34862,8.044157 33.75656,32.908794 116.09598,6.088512 9.70116,5.568291 79.69979,42.349842 167.5208,0.231209 7.99599,6.242652 47.44608,31.656411 126.45223,0.0578 5.35635,5.327449 26.34823,18.381142 103.13863,18.381142 92.09839,0 123.09007,-60.470873 123.09007,-88.081123 0,-39.99921 -48.56359,-56.2513 -72.62863,-61.82923 6.72434,-13.93999 16.94572,-27.53317 26.94552,-40.74101 8.20793,-10.83793 16.71451,-22.02269 23.13057,-33.34231 3.97873,-7.00372 9.1424,-13.44868 14.1423,-19.69133 6.40643,-7.99599 13.01516,-16.26172 17.50448,-25.98215 8.2272,-17.86092 13.3427,-38.53489 15.17311,-61.50168 l 0.21194,-2.63001 c 1.03081,-12.85138 2.10015,-26.14592 1.37762,-39.15144 -0.37571,-6.628 -1.60883,-13.18857 -2.78414,-19.51792 -1.71481,-9.15204 -3.3429,-17.80312 -2.62038,-26.77212 1.26202,-16.09795 17.38887,-37.2825 34.35386,-39.04547 z m -646.98152,266.58436 c 0.67436,-14.33498 7.35053,-25.19219 14.72033,-35.29796 8.59328,17.86092 19.75876,34.22861 33.01477,48.68883 -12.09996,-6.27155 -34.6236,-11.02098 -47.7351,-13.39087 z m 55.95266,49.16088 0.0289,-0.35645 c 0,-5.26001 -2.10015,-10.25991 -5.87657,-14.53728 3.24657,-2.09052 6.36789,-5.99218 5.87657,-12.45641 11.4545,11.08842 24.21918,20.83775 38.05321,28.96861 -11.68571,-1.36799 -24.75867,-2.17722 -38.08211,-1.61847 z m 279.0793,2.60111 c -13.1982,-1.84004 -30.01868,-1.25239 -48.90077,6.31972 -0.50096,-0.12524 -1.28129,-0.29865 -2.18686,-0.51059 18.82429,-9.29654 35.96269,-21.4832 50.85642,-35.97232 -0.59729,6.60874 2.5722,10.57783 5.86694,12.65871 -3.76679,4.24847 -5.87657,9.27728 -5.87657,14.53729 0.01,1.04044 0.12524,2.01345 0.24084,2.96719 z m 7.57211,-38.15918 c 13.4005,-14.54692 24.69123,-31.07838 33.32304,-49.10308 7.4276,10.16358 14.18084,21.07859 14.84557,35.5099 -13.27527,2.38916 -36.1939,7.21566 -48.16861,13.59318 z"
   id="path5"
   inkscape:connector-curvature="0" />
	<path
   d="m 507.41637,-685.22098 c -0.60692,-11.10768 -2.46623,-26.23262 -5.41415,-47.1089 -4.89393,-34.67177 -11.76278,-55.92376 -20.93408,-64.82532 0,-5.34671 -0.0385,-104.26577 -2.49513,-119.97837 0.54912,-2.70708 4.40261,-18.13067 20.6258,-18.13067 17.09985,0 17.90909,26.70468 17.91872,26.98406 v 0.27938 l -0.52022,1.39689 0.52022,0.16377 v 119.53522 h 5.6839 v -119.93984 c 1.64736,-3.60301 6.51239,-11.29072 18.01506,-11.29072 13.68951,0 14.229,10.51039 14.23864,11.71461 v 0.0289 l 1.90747,165.68075 2.06162,-0.0289 c -1.03081,2.46623 -1.73407,4.38334 -2.16759,5.53939 -20.89554,9.30618 -40.47126,36.2228 -49.44026,49.97975 z"
   id="path7"
   inkscape:connector-curvature="0"
   style="fill:#fbcfcc" />
	<path
   d="m 466.79096,-796.12439 c 2.3988,-0.52022 5.26965,-0.73216 8.50658,1.52213 6.15595,4.30627 14.81667,18.72796 21.07859,63.08161 2.7167,19.23855 4.38334,33.12074 5.12514,43.24578 -14.78777,-5.32745 -26.03996,0.63583 -30.59671,3.81496 l -0.54912,-1.41616 0.24084,-0.50095 -0.51058,-0.20231 c -3.35254,-9.03643 -6.4257,-21.17492 -8.66072,-37.46555 -8.2561,-60.336 -6.27155,-69.59401 5.36598,-72.07951 z"
   id="path9"
   inkscape:connector-curvature="0"
   style="fill:#fbcfcc" />
	<path
   d="m 422.72632,-778.81259 c 1.91711,-2.5722 12.3408,-14.87447 28.35204,-4.61455 -1.30055,11.73387 0.64546,30.40403 4.72053,60.14333 1.96528,14.32534 4.61455,25.64496 7.61064,34.64286 -12.60091,-2.02308 -24.08431,5.60683 -28.66033,9.20021 -7.85148,-27.59099 -17.27326,-71.05834 -12.02288,-99.37185 z"
   id="path11"
   inkscape:connector-curvature="0"
   style="fill:#fbcfcc" />
	<path
   d="m 461.45388,-648.53576 c -7.18675,2.5722 -14.7974,0.41425 -18.1114,-5.09624 -0.8574,-1.41616 -3.61264,-8.969 -6.90737,-19.93217 l 0.0771,0.0771 h -0.01 c 0.15414,-0.14451 14.84557,-13.44868 29.22871,-8.67035 2.07126,5.1733 4.24848,9.39287 6.43533,12.80321 -1.42579,7.23493 -5.49122,18.94953 -10.7127,20.81848 z"
   id="path13"
   inkscape:connector-curvature="0"
   style="fill:#fbcfcc" />
	<path
   d="m 492.513,-660.06733 c -0.46242,0 -10.23101,-0.1156 -19.29634,-19.06514 2.6589,-2.16758 13.45831,-9.57592 28.66032,-2.85158 0.75143,18.59309 -2.78415,20.64507 -9.36398,21.91672 z"
   id="path15"
   inkscape:connector-curvature="0"
   style="fill:#fbcfcc" />
	<path
   d="m 629.08065,-754.99803 c -3.01536,-0.22157 -5.19258,-3.76678 -5.78987,-4.8843 -0.38535,-2.69744 3.15986,-9.46031 7.00372,-14.81666 5.84767,-0.65509 11.43523,3.78605 13.03442,5.20221 -3.27546,2.68781 -8.49694,7.47577 -14.24827,14.49875 z"
   id="path17"
   inkscape:connector-curvature="0"
   style="fill:#fbcfcc" />
	<path
   d="m 499.18917,-594.85666 c -15.59699,0 -30.76047,1.81114 -45.32666,5.19257 v -21.49283 l 8.33317,-8.33317 -4.01726,-4.00763 -3.32364,3.33327 c -2.16759,-4.98064 -6.53166,-15.44286 -8.66071,-23.65079 5.01917,2.3988 11.22328,2.78415 17.15766,0.64546 7.26382,-2.60111 11.33889,-13.47758 13.21746,-20.25972 5.81877,6.628 11.18475,8.43914 14.13267,8.89193 1.36799,3.3429 5.00954,10.01907 13.0248,13.21746 l 2.10978,-5.27928 c -5.15404,-2.05198 -7.90929,-6.04034 -9.23874,-8.70888 7.06152,-2.19649 10.53929,-6.87848 11.00171,-19.46975 3.21766,-5.42379 27.72585,-45.54824 52.64829,-55.72145 l 1.20422,-0.51059 0.40461,-1.24275 c 0.20231,-0.60692 20.14412,-59.3919 63.07198,-59.3919 9.15204,0 15.45249,2.22539 18.72796,6.628 2.52404,3.41034 2.79378,7.55284 2.5722,10.5393 -3.05389,-2.52404 -10.19247,-7.3987 -18.08249,-5.70317 l -1.05008,0.22158 -0.64546,0.84777 c -1.70517,2.27355 -10.18284,14.03633 -8.71852,20.67396 l 0.0674,0.27938 0.12524,0.26011 c 0.13487,0.27938 2.64927,5.54903 7.4276,7.68771 -10.86684,14.72996 -22.15756,37.08983 -24.00724,67.65763 -5.43342,5.69353 -39.35375,41.89706 -41.81999,60.97183 l -0.0193,0.19268 v 0.18304 35.58697 c -19.04587,-6.00181 -39.28632,-9.23874 -60.31674,-9.23874 z"
   id="path19"
   inkscape:connector-curvature="0"
   style="fill:#fbcfcc" />
	<path
   d="m 485.9139,-878.48308 0,0 c 0.41425,-0.41425 10.50076,-9.9709 24.67197,1.45469 l 3.57411,-4.41224 c -18.21737,-14.70106 -32.1092,-1.20422 -32.24407,-1.06934 l 3.99799,4.02689 z"
   id="path21"
   inkscape:connector-curvature="0" />
	<path
   d="m 485.28771,-830.95993 c 4.76869,-1.31018 18.53528,-3.81495 24.90317,0.28901 l 3.07316,-4.77832 c -9.80713,-6.30046 -28.67959,-1.20422 -29.47919,-0.99228 l 1.50286,5.48159 z"
   id="path23"
   inkscape:connector-curvature="0" />
	<path
   d="m 527.56048,-865.75693 -0.0193,0.0289 c 0.29864,-0.24084 7.28309,-6.04998 22.76448,1.6859 l 2.5433,-5.07697 c -19.87436,-9.92273 -29.30578,-0.62619 -29.39248,-0.53949 l 4.10396,3.90166 z"
   id="path25"
   inkscape:connector-curvature="0" />
	<path
   d="m 526.2503,-818.26268 c 0.13487,-0.0385 13.97853,-2.95755 25.10548,0.57802 l 1.70517,-5.42378 c -12.60091,-3.95946 -27.38868,-0.83814 -28.01487,-0.69363 l 1.20422,5.53939 z"
   id="path27"
   inkscape:connector-curvature="0" />
	<rect
   x="528.81287"
   y="-791.63507"
   width="21.492834"
   height="5.6935301"
   id="rect29" />
	<polygon
   points="56.266,58.162 55.269,62.377 59.693,68.755 64.663,68.342 66.319,62.462 63.336,57.988 "
   id="polygon31"
   transform="matrix(9.6337222,0,0,9.6337222,-0.01104465,-1066.5237)"
   style="fill:#ffffff" />
	<polygon
   points="55.532,57.94 50.072,54.04 44.723,56.834 43.512,62.366 46.425,65.115 54.591,61.922 "
   id="polygon33"
   transform="matrix(9.6337222,0,0,9.6337222,-0.01104465,-1066.5237)"
   style="fill:#ffffff" />
	<polygon
   points="37.292,73.624 42.208,76.251 45.651,73.298 45.828,65.607 43.168,63.095 37.548,65.948 "
   id="polygon35"
   transform="matrix(9.6337222,0,0,9.6337222,-0.01104465,-1066.5237)"
   style="fill:#ffffff" />
	<polygon
   points="45.995,74.013 42.727,76.814 44.711,82.021 44.719,82.005 51.849,85.338 56.834,81.042 54.593,76.727 "
   id="polygon37"
   transform="matrix(9.6337222,0,0,9.6337222,-0.01104465,-1066.5237)"
   style="fill:#ffffff" />
	<path
   d="m 426.08849,-524.85804 58.64046,-30.64487 30.05722,-32.50418 c -5.14441,-0.40461 -10.33699,-0.67436 -15.58736,-0.67436 -39.84508,0 -76.87711,12.02289 -107.69538,32.62942 l 34.58506,31.19399 z"
   id="path39"
   inkscape:connector-curvature="0"
   style="fill:#ffffff" />
	<polygon
   points="64.529,81.236 68.296,75.49 64.638,69.112 59.766,69.517 55.279,76.384 57.576,80.806 "
   id="polygon41"
   transform="matrix(9.6337222,0,0,9.6337222,-0.01104465,-1066.5237)"
   style="fill:#ffffff" />
	<path
   d="m 441.32904,-213.65028 c 29.83563,-4.12323 54.93148,-5.8862 75.58618,-6.33899 l -16.24245,-15.92454 -0.0963,0.20231 -70.27801,-32.84136 -46.62721,29.87417 c 10.09614,7.49504 20.95334,14.03634 32.42711,19.46976 13.44867,2.35062 22.95716,4.92283 25.23072,5.55865 z"
   id="path43"
   inkscape:connector-curvature="0"
   style="fill:#ffffff" />
	<path
   d="m 663.29963,-333.9851 -35.90488,54.75808 1.7148,28.69885 c 19.50829,-17.58154 35.43283,-39.12254 46.54051,-63.27428 -5.00953,-6.6569 -9.66262,-13.1404 -12.35043,-20.18265 z"
   id="path45"
   inkscape:connector-curvature="0"
   style="fill:#ffffff" />
	<path
   d="m 351.78359,-355.08295 2.5433,-76.20274 -31.31923,-44.65231 c -0.76106,1.64737 -1.44506,3.35254 -2.16759,5.01917 0.69363,4.01726 1.30056,10.93428 -0.73216,18.38114 -0.97301,3.54521 -3.2562,7.81295 -5.90547,12.69725 -2.10979,3.91129 -4.41225,8.20793 -6.31009,12.64908 -1.33909,7.86111 -2.16759,15.886 -2.5144,24.0843 24.00723,13.15967 32.26333,46.2804 32.26333,57.26285 0,3.20803 -0.51058,6.25228 -1.37762,9.18093 l 15.51993,-18.41967 z"
   id="path47"
   inkscape:connector-curvature="0"
   style="fill:#ffffff" />
	<path
   d="m 676.99878,-457.31601 c -0.27938,-2.12905 -0.45278,-4.16177 -0.45278,-5.95364 0,-1.70517 0.0963,-3.2273 0.22157,-4.50858 0,0 0.17341,-1.77261 0.39499,-3.97873 -9.16167,-21.09785 -21.93599,-40.3075 -37.59079,-56.72336 -5.9151,-5.55866 -10.55856,-9.43141 -11.93618,-10.55856 l -1.87858,-1.53176 -0.1734,-1.18495 c -3.06353,-2.63 -6.16559,-5.24074 -9.40252,-7.68771 l -1.17531,35.52917 30.34623,45.51934 31.64677,11.07878 z"
   id="path49"
   inkscape:connector-curvature="0"
   style="fill:#ffffff" />
	<path
   d="m 257.75846,-111.06077 c -26.15556,13.61245 -81.53982,21.637341 -112.25213,3.51631 -14.68179,-8.65108 -22.11903,-22.33097 -22.11903,-40.63504 0,-53.6791 42.1668,-65.68272 59.79652,-68.37053 4.92283,4.47968 13.61245,9.03643 28.68922,9.03643 14.58546,0 18.95917,-4.21957 22.81266,-7.95745 3.4874,-3.38144 6.78214,-6.57983 19.78766,-6.57983 12.09996,0 18.61235,5.7995 26.14592,12.49494 4.13287,3.67044 8.56438,7.53357 14.17121,10.63562 -37.75456,16.43513 -37.44628,76.46286 -37.03203,87.85955 z"
   id="path51"
   inkscape:connector-curvature="0"
   style="fill:#0054a6" />
	<path
   d="m 890.3761,-169.00761 c 0,16.33879 -20.90518,82.37796 -117.41581,82.37796 -73.24519,0 -93.75539,-12.225193 -98.54335,-16.26172 l 5.01917,-6.46423 -6.05961,2.46623 c -0.30828,-14.66252 0.57803,-66.08733 26.08812,-89.89226 7.79368,-3.2851 13.41014,-8.17903 18.53528,-12.73578 7.53357,-6.69544 14.04597,-12.4853 26.15556,-12.4853 13.00552,0 16.29062,3.18876 19.77803,6.57019 3.85349,3.74752 8.21757,7.95746 22.80302,7.95746 28.86263,0 34.44056,-16.77231 34.66213,-17.46594 l 0.12524,-0.39498 c 22.52365,5.25038 68.85222,20.49093 68.85222,56.32837 z"
   id="path53"
   inkscape:connector-curvature="0"
   style="fill:#0054a6" />
	<path
   d="m 380.94487,-103.29599 c -0.6551,-5.66463 -7.92856,-83.5051 59.6809,-104.62222 l 0.26012,0.0771 0.60692,-0.0771 c 76.7326,-10.66453 122.68545,-5.52976 139.98762,-2.57221 -42.1379,24.27698 -41.18417,93.22553 -40.62541,105.99985 -80.34524,38.525254 -145.10312,9.094233 -159.91015,1.19458 z"
   id="path55"
   inkscape:connector-curvature="0"
   style="fill:#0054a6" />
	<path
   d="m 375.0972,-105.34797 c -84.80566,27.918525 -108.73583,-0.80923 -111.61631,-4.92283 -0.36608,-7.35053 -2.46623,-73.60164 38.91061,-85.30661 4.75905,1.57993 10.24064,2.61073 16.91681,2.61073 20.63543,0 24.00724,-9.26764 24.48892,-13.24636 l 0.01,-0.39499 c 2.81304,-0.21194 7.53357,-1.12714 11.19438,-4.59528 1.88821,-1.76297 3.17913,-4.00763 3.97873,-6.61837 19.53719,-0.89593 38.66013,1.18495 53.47679,3.68972 4.43151,2.14832 8.97863,4.05579 13.57392,5.83803 -52.50379,25.34633 -51.83906,88.41831 -50.93349,102.94596 z"
   id="path57"
   inkscape:connector-curvature="0"
   style="fill:#ffffff" />
	<path
   d="m 667.75041,-104.61581 c -77.03124,30.808645 -115.21932,5.125141 -121.17296,0.51059 -0.43352,-10.46222 -1.93638,-86.32779 44.6812,-104.86307 l 0.0193,-0.0193 c 19.37342,-8.00562 36.64668,-8.00562 49.66184,-5.72243 0.72253,1.30056 1.5703,2.51441 2.65891,3.51631 3.65118,3.42961 8.38134,4.35444 11.19438,4.59529 l 0.01,0.39498 c 0.48168,3.97873 3.85349,13.24637 24.48892,13.24637 3.56448,0 6.70507,-0.35645 9.68189,-0.8574 -22.3984,28.87226 -21.67588,78.33179 -21.22309,89.19863 z"
   id="path59"
   inkscape:connector-curvature="0"
   style="fill:#ffffff" />
	<path
   d="m 314.74193,-474.84939 c 5.25038,-29.59479 45.69274,-63.65963 52.28221,-69.03525 0.28901,-1.95565 0.72253,-6.94591 -1.26202,-11.53157 -12.04215,3.78606 -18.41004,15.90528 -18.47748,16.04015 h 0.01 l -5.0866,-2.5433 c 0.29864,-0.60693 6.82067,-13.3138 19.92254,-18.36188 -1.19459,-1.0019 -2.54331,-1.8882 -4.15214,-2.5722 v 0.47205 c -11.41596,0 -18.2848,11.10769 -18.35224,11.23292 v -0.01 l -4.86503,-2.93829 c 0.23121,-0.37571 4.01726,-6.39679 10.80904,-10.41405 -24.14211,1.97491 -34.03594,41.74292 -34.13228,42.14754 l -0.18304,0.78996 -0.56839,0.58766 c -2.96719,2.95755 -11.01134,6.628 -20.24045,-0.76107 -9.99017,-7.98635 -30.51,-60.12406 -32.82209,-66.02953 l 0.34681,-0.13487 c -11.50266,-2.17722 -24.68159,-6.72434 -39.7102,-14.8552 l 2.69744,-5.00954 c 13.94963,7.53358 26.13629,11.89765 36.74302,14.13268 -5.7128,-5.80914 -11.63754,-13.57392 -13.256,-15.74151 l 4.54711,-3.41033 c 5.80914,7.75514 15.52956,19.1711 18.94953,20.30788 l -0.12523,0.37572 c 19.49865,1.78224 32.40784,-4.19067 40.11482,-9.83603 -1.40653,-2.40843 -2.27356,-5.18295 -2.27356,-8.18867 0,-4.23884 1.64736,-8.07306 4.29664,-10.98244 -19.01697,-29.56589 -60.26857,-53.07218 -60.75026,-53.34192 l -1.44505,-0.80923 v -1.657 -24.19028 c 0,-4.56638 -3.35254,-10.11541 -6.49313,-14.24827 -3.71862,13.53537 -20.29825,30.49073 -22.53328,32.71612 l -2.03271,2.03271 -2.00382,-2.06162 -30.67377,-31.5119 c -1.69553,15.66443 -5.49122,58.83314 0.61656,84.06386 2.17722,8.96899 5.52012,16.91682 9.07496,25.25962 1.66664,3.39107 3.26584,6.88811 4.70126,10.63563 l -0.19267,0.0771 c 7.93818,19.49865 15.53919,43.9105 15.53919,89.57435 0,2.46623 -0.0385,4.87466 -0.10597,7.19639 l 0.0482,0.21194 -0.0578,0.01 c -1.06935,35.09565 -9.68189,55.08563 -18.01506,74.45904 -8.09233,18.79539 -15.75114,36.57924 -15.75114,67.17595 0,62.7926 41.2516,101.09628 41.66585,101.47199 l 1.00191,0.92484 -0.0771,1.36799 c -0.0289,0.59729 -0.98264,14.53729 -11.96509,23.17873 -6.42569,5.03844 -14.8552,7.13859 -25.04767,6.32936 3.49704,3.94019 11.02097,9.0846 26.42529,9.0846 12.283,0 15.33689,-2.95755 18.86283,-6.35826 3.94983,-3.81495 8.42951,-8.15976 23.72786,-8.15976 14.25791,0 22.225,7.05188 29.91271,13.89183 8.36207,7.4276 17.02279,15.12494 34.93187,15.12494 11.16549,0 18.21737,-3.08279 18.8532,-8.23683 0.9152,-7.40833 -10.07687,-18.66052 -27.2827,-22.94753 l 1.37762,-5.51049 c 15.52956,3.86313 27.85109,13.46795 30.89535,23.1113 1.92674,-0.15414 5.46232,-0.70326 7.98635,-3.09242 2.05199,-1.93638 3.08279,-4.81686 3.08279,-8.55475 0,-4.93246 -2.5433,-9.70116 -7.15785,-13.43904 -7.84185,-6.31009 -20.10558,-8.63181 -31.99359,-6.05961 l -1.20422,-5.54902 c 13.04406,-2.85159 26.56017,-0.32755 35.72184,6.48349 1.74371,-0.69363 5.19258,-2.76488 4.65309,-8.2561 -0.92484,-4.10397 -26.05922,-11.96508 -53.81397,-16.84938 l -2.35063,-0.40462 v -2.37953 c 0,-19.80693 10.39479,-33.62169 19.56609,-45.83725 7.67808,-10.24064 14.31571,-19.06513 14.31571,-29.67186 0,-12.11922 -12.11922,-57.17614 -48.45762,-57.17614 -27.66805,0 -47.0222,8.07306 -57.54222,23.95907 -22.98606,34.75847 2.78414,96.31795 3.04425,96.94414 l -5.22147,2.22539 c -1.12715,-2.62037 -27.23454,-64.96019 -2.56257,-102.29086 11.63753,-17.59118 32.59088,-26.53127 62.29164,-26.53127 5.56829,0 10.57783,0.973 15.15385,2.5433 -1.96528,-12.89955 4.8843,-25.83764 10.56819,-36.35767 2.47587,-4.61455 4.61455,-8.58364 5.41415,-11.50266 1.33909,-4.9132 1.32946,-9.63372 0.99228,-13.10186 -5.13478,5.42378 -14.72996,13.3716 -26.59871,13.17893 -10.95354,-0.19268 -21.09785,-7.24456 -30.16318,-20.99188 l 4.74942,-3.12133 c 5.655,8.60292 11.63754,14.15194 17.84165,16.72414 v -17.5719 h 5.67427 v 19.06513 l 1.96528,0.20231 c 3.08279,0.0578 6.01144,-0.63583 8.72815,-1.72444 v -16.92645 h 5.68389 v 13.94963 c 5.97291,-3.90165 10.13468,-9.06533 11.21366,-10.48149 z"
   id="path61"
   inkscape:connector-curvature="0"
   style="fill:#f8982f" />
	<path
   d="m 788.1334,-228.59218 c -10.98244,-8.64145 -11.92655,-22.61035 -11.96508,-23.17874 l -0.0771,-1.36798 1.00191,-0.92484 c 0.40461,-0.37572 41.65621,-38.7083 41.65621,-101.472 0,-30.5967 -7.63954,-48.37092 -15.7415,-67.17594 -8.3428,-19.38305 -16.94572,-39.37302 -18.0247,-74.45904 l -0.0578,-0.0193 0.0482,-0.21194 c -0.0674,-2.32173 -0.0963,-4.73016 -0.0963,-7.19639 0,-45.66384 7.59138,-70.05643 15.52956,-89.57435 l -0.19267,-0.0771 c 1.42579,-3.76678 3.02499,-7.26383 4.69162,-10.63563 3.57411,-8.3428 6.91701,-16.29062 9.07497,-25.25962 6.11741,-25.21145 2.32173,-68.39943 0.63582,-84.06386 l -32.69685,33.57352 -2.04235,-2.03271 c -2.23502,-2.22539 -18.81466,-19.18074 -22.53327,-32.71612 -3.15023,4.16177 -6.49313,9.71079 -6.49313,14.24827 v 25.86655 l -1.4547,0.80923 c -0.47205,0.26011 -41.71401,23.78566 -60.73098,53.36119 2.63001,2.90938 4.28701,6.70507 4.28701,10.96317 0,3.01536 -0.86704,5.78024 -2.29283,8.18867 7.70698,5.66463 20.61617,11.60863 40.13409,9.83603 l -0.13487,-0.37572 c 3.41997,-1.13678 13.14039,-12.57201 18.93989,-20.30788 l 4.56639,3.41033 c -1.6281,2.16759 -7.56247,9.93237 -13.256,15.74151 10.59709,-2.20613 22.78375,-6.5991 36.73338,-14.13268 l 2.69744,5.00954 c -15.01897,8.13086 -28.1979,12.67798 -39.7102,14.8552 l 0.33718,0.13487 c -2.30246,5.91511 -22.82229,58.04318 -32.81246,66.02953 -9.23874,7.3987 -17.26363,3.71862 -20.24045,0.76107 l -0.57802,-0.58766 -0.18304,-0.78996 c -0.0867,-0.40462 -9.99981,-40.18226 -34.12265,-42.14754 6.78214,4.01726 10.56819,10.03834 10.80904,10.41405 l -4.87467,2.93829 v 0.01 c -0.0771,-0.12523 -6.93628,-11.23292 -18.35224,-11.23292 v -0.47205 c -1.60883,0.64546 -2.95755,1.5414 -4.15213,2.5722 13.09223,5.04808 19.62389,17.75495 19.92254,18.36188 l -5.08661,2.5433 h 0.01 -0.01 c -0.0867,-0.18304 -6.45459,-12.25409 -18.47748,-16.04015 -1.97491,4.60492 -1.56066,9.57592 -1.26202,11.53157 6.5991,5.37562 47.03184,39.43083 52.28222,69.03525 1.07897,1.40653 5.25037,6.57984 11.25218,10.52003 v -13.95927 h 5.6839 v 16.92645 c 2.71671,1.05971 5.63573,1.78224 8.72815,1.73407 l 1.96528,-0.2023 v -19.06514 h 5.6839 v 17.56228 c 6.20411,-2.60111 12.17702,-8.15013 17.84165,-16.72415 l 4.73979,3.12133 c -9.04606,13.74732 -19.20001,20.79921 -30.15355,20.99188 -11.87838,0.19268 -21.47357,-7.78405 -26.60834,-13.17893 -0.33718,3.47777 -0.33718,8.21756 1.00191,13.11149 0.7996,2.93829 2.92865,6.90738 5.41415,11.49304 5.67426,10.54892 12.53347,23.48701 10.56819,36.35766 4.57602,-1.57029 9.59519,-2.5433 15.14421,-2.5433 29.70077,0 50.66375,8.94009 62.29165,26.5409 24.67196,37.33068 -1.43542,99.66086 -2.55293,102.28123 l -5.23112,-2.22539 c 0.26011,-0.60692 26.03996,-62.15677 3.04426,-96.94414 -10.52002,-15.88601 -29.88381,-23.95907 -57.55186,-23.95907 -36.32876,0 -48.44799,45.05692 -48.44799,57.17614 0,10.61636 6.62801,19.45049 14.31572,29.67187 9.15203,12.21556 19.55645,26.03031 19.55645,45.83725 v 2.37952 l -2.35063,0.41426 c -27.75475,4.87466 -52.89876,12.73578 -53.80433,16.83974 -0.54913,5.49122 2.90938,7.56247 4.65308,8.2561 9.16167,-6.81104 22.66815,-9.33508 35.71221,-6.47386 l -1.20421,5.53939 c -11.88802,-2.6011 -24.13248,-0.25048 -31.9936,6.05961 -4.61455,3.73789 -7.14822,8.50658 -7.14822,13.43904 0,3.73789 1.02118,6.61837 3.08279,8.55475 2.52404,2.38916 6.04998,2.97682 7.98636,3.09242 3.04426,-9.64335 15.38505,-19.24817 30.90498,-23.1113 l 1.37762,5.51049 c -17.21546,4.28701 -28.18827,15.5392 -27.29233,22.94753 0.62619,5.15404 7.67807,8.23683 18.85319,8.23683 17.91873,0 26.56017,-7.69734 34.93188,-15.12494 7.70698,-6.83994 15.6548,-13.89183 29.92234,-13.89183 15.30798,0 19.77803,4.31591 23.73749,8.15976 3.52594,3.41034 6.56057,6.35826 18.8532,6.35826 15.41395,0 22.92825,-5.14441 26.44456,-9.0846 -10.21174,0.78033 -18.63162,-1.31982 -25.05731,-6.36789 z"
   id="path63"
   inkscape:connector-curvature="0"
   style="fill:#f8982f" />
	<path
   d="m 900.08689,-631.38774 c -20.22119,-10.12504 -39.43083,-12.14812 -55.54804,-5.83803 -14.15194,5.51048 -25.89545,17.49484 -34.4791,34.7681 l -0.36608,0.8863 c -7.75514,18.09213 -16.37733,38.33258 -18.57381,77.18538 26.86845,-100.20997 79.59381,-98.32176 82.01187,-98.15799 l -0.34681,5.65499 c -0.7707,-0.0289 -59.16069,-1.49322 -82.08895,119.95911 0.31791,10.06724 1.30055,18.83393 2.72635,26.69505 30.34622,-128.8125 100.43155,-123.29238 103.49507,-122.9841 l -0.57802,5.65499 c -0.8574,-0.0867 -72.39742,-5.15404 -99.97877,130.48877 1.83041,6.73397 3.96909,12.82249 6.23302,18.60272 6.34862,-8.73779 12.14812,-23.50628 18.227,-39.09365 7.57211,-19.38305 16.16539,-41.34793 28.0534,-57.67709 23.17874,-31.87799 54.35346,-24.99951 69.11232,-15.88601 4.21957,2.5722 9.69153,4.10397 14.97081,4.9999 1.33908,-12.55274 4.72052,-66.49195 -32.87026,-85.25844 z"
   id="path65"
   inkscape:connector-curvature="0"
   style="fill:#f8982f" />
	<path
   d="m 836.55249,-304.92979 -0.0674,-0.38535 0.36608,-0.0674 c 6.23302,-9.27727 12.17703,-19.99961 17.38887,-32.3115 13.95927,-33.07257 20.27899,-71.27028 22.76449,-105.76864 l -0.9152,-0.44315 1.07897,-1.69554 c 0.684,-10.1154 1.03081,-19.84546 1.17532,-29.04567 l -0.0578,-0.0771 0.0578,-0.0674 c 0.1734,-11.5412 0,-22.15757 -0.34682,-31.47337 l -0.0867,-0.0289 0.0771,-0.16377 c -0.32755,-8.66072 -0.78033,-16.26172 -1.24275,-22.18646 l -0.0482,-0.66473 0.25048,-0.60692 c 1.24275,-3.11169 6.48349,-15.67407 12.96699,-23.07277 -11.89765,0.32755 -25.19219,5.57793 -36.44437,21.06895 -11.4545,15.75114 -19.89364,37.35958 -27.34051,56.39581 -7.15785,18.26554 -13.38124,34.05521 -21.10748,43.02421 1.06934,2.5433 2.14832,5.0288 3.21766,7.52393 8.33317,19.36378 16.20392,37.63896 16.20392,69.41097 0,49.41136 -23.84346,83.55327 -36.2517,97.98459 11.49303,-6.97481 30.91462,-21.50247 48.36129,-47.34974 z"
   id="path67"
   inkscape:connector-curvature="0"
   style="fill:#f8982f" />
	<path
   d="m 868.56535,-307.70431 c 4.2003,-7.38906 9.50848,-14.0267 14.65289,-20.43312 6.46423,-8.08269 12.57201,-15.72224 16.77231,-24.81647 7.94782,-17.24436 12.88029,-37.29214 14.65289,-59.58457 l 0.22158,-2.62037 c 1.01154,-12.64908 2.06161,-25.76058 1.36799,-38.39039 -0.34682,-6.26192 -1.5414,-12.64907 -2.69745,-18.78576 -1.72443,-9.12313 -3.47777,-18.55454 -2.71671,-28.30387 1.11752,-13.87256 11.67608,-30.90498 25.44266,-39.24779 -6.97481,-0.84776 -15.12494,-2.61073 -21.24235,-6.38715 -4.32554,-2.64928 -10.24065,-5.05771 -16.96499,-6.11742 -5.14441,2.23503 -12.11922,15.54883 -15.60663,24.06504 0.33718,4.47968 0.684,9.7686 0.95374,15.75114 6.44496,-5.26002 16.11722,-10.03834 18.61235,-11.23292 l 2.44697,5.13477 c -7.312,3.46814 -17.92836,9.7686 -20.73177,13.76659 0.26011,7.5432 0.40461,15.91491 0.33718,24.91281 7.83221,-5.43342 17.96689,-7.89002 18.52565,-8.01526 l 1.30055,5.52976 c -0.15414,0.0289 -13.35234,3.21766 -19.91291,9.87456 -0.12523,7.02298 -0.41425,14.37351 -0.83813,21.95525 7.58174,-4.78796 18.39078,-8.14049 21.20382,-8.94009 l 1.58957,5.43342 c -7.23493,2.11942 -18.80503,6.628 -23.26544,10.8572 -0.51059,7.12896 -1.21385,14.46022 -2.09052,21.86855 13.34271,-7.4565 31.49264,-6.16558 32.35004,-6.07888 l -0.44315,5.655 c -0.25048,-0.01 -21.37723,-1.5125 -32.86063,7.93819 -1.05971,7.84185 -2.33136,15.78003 -3.89202,23.67969 12.11922,-8.57402 29.17091,-10.64527 30.02831,-10.75124 l 0.65509,5.655 c -0.23121,0.0193 -23.01496,2.81304 -32.76429,14.61435 -1.28128,5.61646 -2.66854,11.17512 -4.24847,16.68561 12.55274,-7.49504 29.20945,-7.62027 30.05722,-7.62027 v 5.67426 c -0.22158,0 -22.57182,0.1734 -32.9377,11.41596 l -0.0482,-0.0385 c -1.99418,6.11742 -4.13287,12.13849 -6.5702,17.98616 9.90347,-2.73597 21.40613,-1.0019 22.01306,-0.92483 l -0.88631,5.61646 c -0.18304,-0.0193 -15.84747,-2.3699 -24.48892,2.76487 -3.79568,8.20794 -7.86111,15.6837 -12.09032,22.42731 l 13.80513,-2.37953 0.973,5.57793 -18.97843,3.314 c -4.31591,6.28118 -8.69925,11.89764 -13.0826,16.91681 l 16.54111,0.65509 -0.23121,5.69353 -21.27126,-0.86703 c -17.59118,18.44858 -33.77583,27.12856 -39.63314,29.90307 1.04045,4.15214 3.48741,10.48149 9.11351,14.89374 5.89583,4.61455 14.0845,6.17521 24.31551,4.71089 6.81104,-16.27136 18.47748,-31.74312 29.826,-46.70429 8.12123,-10.65489 16.49294,-21.72404 22.73559,-32.68722 z"
   id="path69"
   inkscape:connector-curvature="0"
   style="fill:#f8982f" />
	<path
   d="m 98.513032,-631.38774 c 20.230818,-10.12504 39.440458,-12.14812 55.548038,-5.83803 14.15194,5.51048 25.90508,17.49484 34.4791,34.7681 l 0.37571,0.8863 c 7.74551,18.09213 16.35806,38.33258 18.57382,77.18538 -26.87809,-100.20997 -79.61308,-98.32176 -82.01188,-98.15799 l 0.34681,5.65499 c 0.7707,-0.0289 59.15106,-1.49322 82.08895,119.95911 -0.32755,10.06724 -1.31018,18.83393 -2.73598,26.69505 -30.34622,-128.79324 -100.42192,-123.28275 -103.48544,-122.96483 l 0.57802,5.65499 c 0.85741,-0.0867 72.38779,-5.15404 99.96914,130.48877 -1.83041,6.73397 -3.95946,12.82248 -6.22339,18.60272 -6.35825,-8.72816 -12.13849,-23.50629 -18.227,-39.09365 -7.58174,-19.38305 -16.16538,-41.34793 -28.0534,-57.67709 -23.1691,-31.87799 -54.353457,-24.99951 -69.121954,-15.88601 -4.209936,2.5722 -9.691524,4.10396 -14.970804,4.9999 -1.339087,-12.57201 -4.701256,-66.51122 32.87026,-85.27771 z"
   id="path71"
   inkscape:connector-curvature="0"
   style="fill:#f8982f" />
	<path
   d="m 162.05706,-304.92979 0.0578,-0.38535 -0.37572,-0.0674 c -6.22338,-9.27727 -12.16739,-19.99961 -17.37923,-32.3115 -13.95927,-33.07257 -20.26936,-71.27028 -22.77412,-105.76864 l 0.92483,-0.44315 -1.07897,-1.69554 c -0.69363,-10.1154 -1.04044,-19.84546 -1.17532,-29.04567 l 0.0578,-0.0771 -0.0578,-0.0674 c -0.18304,-11.5412 0,-22.15757 0.33718,-31.47337 l 0.0867,-0.0289 -0.0674,-0.16377 c 0.32755,-8.66072 0.78033,-16.26172 1.24275,-22.18646 l 0.0482,-0.66473 -0.24084,-0.60692 c -1.24275,-3.11169 -6.50277,-15.67407 -12.97663,-23.07277 11.90728,0.32755 25.20182,5.57793 36.45401,21.06895 11.45449,15.75114 19.89363,37.35958 27.35013,56.39581 7.13859,18.26554 13.36198,34.05521 21.08822,43.02421 -1.05971,2.5433 -2.13868,5.0288 -3.20803,7.52393 -8.33317,19.36378 -16.20392,37.63896 -16.20392,69.41097 0,49.41136 23.83383,83.55327 36.24207,97.98459 -11.47377,-6.97481 -30.90499,-21.50247 -48.35166,-47.34974 z"
   id="path73"
   inkscape:connector-curvature="0"
   style="fill:#f8982f" />
	<path
   d="m 130.0442,-307.70431 c -4.2003,-7.38906 -9.50848,-14.0267 -14.64325,-20.43312 -6.46423,-8.08269 -12.57201,-15.72224 -16.772313,-24.81647 -7.957455,-17.24436 -12.88992,-37.29214 -14.672159,-59.58457 l -0.202308,-2.62037 c -1.021175,-12.64908 -2.07125,-25.76058 -1.377622,-38.40002 0.356447,-6.26192 1.551029,-12.64908 2.707075,-18.78576 1.714803,-9.12313 3.477774,-18.55455 2.697443,-28.30387 -1.117512,-13.87256 -11.666438,-30.90499 -25.433027,-39.24779 6.974815,-0.84777 15.11531,-2.61074 21.251991,-6.38716 4.315908,-2.64927 10.231013,-5.0577 16.94572,-6.11741 5.14441,2.23502 12.12885,15.54883 15.60663,24.06504 -0.33718,4.47968 -0.67436,9.76859 -0.96337,15.75113 -6.44496,-5.26001 -16.117222,-10.03833 -18.612356,-11.23292 l -2.437332,5.13478 c 7.302358,3.46814 17.928358,9.76859 20.731768,13.76659 -0.26011,7.5432 -0.40461,15.91491 -0.34681,24.9128 -7.83222,-5.43342 -17.966893,-7.89002 -18.516016,-8.01525 l -1.290918,5.52975 c 0.134872,0.0289 13.361974,3.21766 19.903274,9.87457 0.12523,7.02298 0.41425,14.37351 0.8574,21.95525 -7.59138,-4.78796 -18.400412,-8.1405 -21.213459,-8.94009 l -1.599198,5.45268 c 7.234925,2.11942 18.805027,6.628 23.255807,10.85721 0.52022,7.12895 1.22348,14.46021 2.10015,21.86855 -13.33307,-7.4565 -31.483004,-6.16559 -32.359673,-6.07888 l 0.452785,5.65499 c 0.250477,-0.01 21.377228,-1.51249 32.860628,7.93819 1.06934,7.84185 2.33136,15.78004 3.90166,23.67969 -12.13849,-8.57401 -29.161281,-10.64526 -30.03795,-10.75123 l -0.64546,5.65499 c 0.23121,0.0193 23.00533,2.81305 32.76429,14.61436 1.27165,5.61646 2.66854,11.17511 4.23884,16.6856 -12.54311,-7.49503 -29.209448,-7.62027 -30.057216,-7.62027 v 5.67426 c 0.221576,0 22.571816,0.17341 32.947326,11.41596 l 0.0385,-0.0385 c 1.99418,6.11741 4.13287,12.13849 6.57983,17.98616 -9.90347,-2.73598 -21.41576,-1.00191 -22.02269,-0.92484 l 0.89594,5.61646 c 0.19267,-0.0193 15.83784,-2.3699 24.47929,2.76488 3.79568,8.20793 7.85148,15.6837 12.09032,22.4273 l -13.80513,-2.37953 -0.973,5.5683 18.98806,3.314 c 4.30628,6.28118 8.69926,11.89764 13.07297,16.91681 l -16.53147,0.65509 0.23121,5.69353 21.25199,-0.86703 c 17.60081,18.44858 33.78546,27.12856 39.63313,29.90307 -1.04044,4.15214 -3.47777,10.48149 -9.10387,14.89374 -5.89583,4.61455 -14.09413,6.17521 -24.32514,4.71089 -6.81105,-16.27136 -18.47748,-31.74312 -29.82601,-46.70429 -8.09232,-10.65489 -16.47366,-21.72404 -22.71632,-32.68722 z"
   id="path75"
   inkscape:connector-curvature="0"
   style="fill:#f8982f" />
	<path
   d="m 651.33455,-539.36642 0,0 0,0 z"
   id="path77"
   inkscape:connector-curvature="0"
   style="fill:#f8982f" />
	<ellipse
   cx="79.764999"
   cy="44.59"
   rx="1.2410001"
   ry="0.72799999"
   id="ellipse79"
   sodipodi:cx="79.764999"
   sodipodi:cy="44.59"
   sodipodi:rx="1.2410001"
   sodipodi:ry="0.72799999"
   transform="matrix(9.6337222,0,0,9.6337222,-0.01104465,-1066.5237)"
   d="m 81.005999,44.59 c 0,0.402063 -0.555614,0.728 -1.241,0.728 -0.685385,0 -1.241,-0.325937 -1.241,-0.728 0,-0.402063 0.555615,-0.728 1.241,-0.728 0.685386,0 1.241,0.325937 1.241,0.728 z" />
	<ellipse
   cx="23.895"
   cy="44.59"
   rx="1.2410001"
   ry="0.72799999"
   id="ellipse81"
   sodipodi:cx="23.895"
   sodipodi:cy="44.59"
   sodipodi:rx="1.2410001"
   sodipodi:ry="0.72799999"
   transform="matrix(9.6337222,0,0,9.6337222,-0.01104465,-1066.5237)"
   d="m 25.136001,44.59 c 0,0.402063 -0.555615,0.728 -1.241001,0.728 -0.685385,0 -1.241,-0.325937 -1.241,-0.728 0,-0.402063 0.555615,-0.728 1.241,-0.728 0.685386,0 1.241001,0.325937 1.241001,0.728 z" />
	<path
   d="m 766.45753,-325.6134 c -0.12524,-0.0771 -11.16549,-6.16558 -20.64507,-5.23111 1.36799,6.05961 2.40843,12.02289 3.20803,17.38887 8.68962,-1.49323 17.67788,2.47587 18.10176,2.65891 l -2.35062,5.15404 c -0.10598,-0.0482 -8.01526,-3.48741 -14.99971,-2.19649 0.98264,7.70698 1.35835,13.15003 1.39689,13.8822 l -5.67426,0.35644 c -1.05008,-16.6567 -7.13859,-62.15677 -22.2828,-72.05061 -3.1984,-2.10978 -6.61837,-2.43733 -10.43332,-1.0308 -10.52003,3.81495 -5.73207,23.88199 -0.684,45.16289 3.35254,14.0556 6.82068,28.61215 6.32936,40.47126 l -5.6839,-0.22157 c 0.47205,-11.07878 -2.89975,-25.24035 -6.16558,-38.93951 -5.655,-23.76639 -11.02098,-46.24186 4.2581,-51.80052 4.73016,-1.7148 9.19058,-1.43543 13.34271,0.55875 6.5124,-1.59919 15.46212,-0.32754 16.6278,-0.1734 l -0.86703,5.61646 c -1.83041,-0.26975 -5.61646,-0.64546 -9.24837,-0.56839 2.07125,2.27356 3.96909,5.03843 5.65499,8.19829 6.90738,-1.63773 15.22128,-1.0019 15.6259,-0.95373 l -0.47205,5.64536 c -0.0867,0 -6.88812,-0.52022 -12.62018,0.58765 0.8574,1.97492 1.66663,4.09434 2.40843,6.22339 8.969,-2.50477 19.99961,-0.20231 20.5102,-0.10597 l -1.19459,5.55866 c -0.12523,-0.0482 -10.0576,-2.07125 -17.56227,-0.0674 0.50095,1.67627 0.96337,3.38144 1.40652,5.0577 11.5412,-1.47396 24.18064,5.48159 24.7683,5.81877 l -2.78414,4.9421 0.0289,0.0578 z"
   id="path83"
   inkscape:connector-curvature="0" />
	<path
   d="m 232.15203,-325.6134 c 0.13487,-0.0771 11.16548,-6.16558 20.64506,-5.23111 -1.37762,6.05961 -2.41806,12.02289 -3.20803,17.38887 -8.68961,-1.49323 -17.68751,2.47587 -18.11139,2.65891 l 2.35062,5.15404 c 0.11561,-0.0482 8.02489,-3.48741 14.99008,-2.19649 -0.98264,7.70698 -1.34873,13.15003 -1.39689,13.8822 l 5.66462,0.35644 c 1.06935,-16.6567 7.13859,-62.15677 22.2828,-72.05061 3.1984,-2.10978 6.61837,-2.43733 10.44296,-1.0308 10.51039,3.81495 5.73206,23.88199 0.66473,45.16289 -3.35254,14.0556 -6.81105,28.61215 -6.31973,40.47126 l 5.67427,-0.22157 c -0.45279,-11.07878 2.91901,-25.24035 6.16558,-38.93951 5.66463,-23.76639 11.02098,-46.24186 -4.24847,-51.80052 -4.73016,-1.7148 -9.19057,-1.43543 -13.34271,0.55875 -6.51239,-1.59919 -15.47176,-0.32754 -16.63744,-0.1734 l 0.86704,5.61646 c 1.82077,-0.26975 5.60683,-0.64546 9.25801,-0.56839 -2.07125,2.27356 -3.95946,5.03843 -5.655,8.19829 -6.91701,-1.63773 -15.22128,-1.0019 -15.63553,-0.95373 l 0.47205,5.64536 c 0.0771,0 6.87848,-0.52022 12.62981,0.58765 -0.8574,1.97492 -1.66663,4.09434 -2.41806,6.22339 -8.95936,-2.50477 -19.98998,-0.20231 -20.50056,-0.10597 l 1.19458,5.55866 c 0.12524,-0.0482 10.06724,-2.07125 17.57191,-0.0674 -0.50096,1.67627 -0.97301,3.38144 -1.41616,5.0577 -11.5412,-1.47396 -24.18064,5.48159 -24.7683,5.81877 l 2.78415,4.9421 v 0.0578 l 0,0 z"
   id="path85"
   inkscape:connector-curvature="0" />
	<path
   d="m 499.51672,-951.19841 c -113.93803,0.68399 -212.69332,41.65621 -292.17153,74.64208 -57.74453,23.95906 -107.608675,44.67157 -149.072215,44.67157 -19.604625,0 -28.824097,-11.24256 -29.209446,-11.72424 l -0.366082,-0.46242 -0.154139,-0.57803 -28.48691659,-105.38328 -0.0096337,-0.27938 c -0.41425006,-7.18676 2.00381419,-13.63172 7.15785559,-19.19038 20.1152117,-21.6566 76.3279807,-22.84155 78.7075107,-22.87045 l 2.013448,-0.0289 0.693628,1.87857 11.261821,30.4811 c 13.390869,-5.24075 28.111199,-11.40633 44.006839,-18.0536 89.57435,-37.53293 212.03823,-88.81333 355.60959,-89.50693 143.581,0.684 266.01597,51.9836 355.59995,89.50693 15.90528,6.64727 30.62561,12.81285 44.01648,18.0536 l 11.94582,-32.35967 2.01344,0.0289 c 2.3988,0.0289 58.5923,1.21385 78.71715,22.87045 5.15404,5.55866 7.5721,12.01326 7.16749,19.19038 l -0.0193,0.27938 -0.0771,0.28901 -28.57362,105.68193 -0.36608,0.46242 c -0.37572,0.48169 -9.60482,11.72424 -29.19981,11.72424 -41.45391,0 -91.31806,-20.6836 -149.07222,-44.67157 -79.44931,-32.9955 -178.19496,-73.96772 -292.13299,-74.65171 z"
   id="path87"
   inkscape:connector-curvature="0" />
	<path
   d="M 499.51672,7.1064673 C 385.57869,6.4321067 286.8234,-34.540114 207.34519,-67.545246 149.60066,-91.485046 99.736515,-112.19755 58.272975,-112.19755 c -19.604625,0 -28.824097,11.24256 -29.209446,11.71461 l -0.366082,0.47205 -0.154139,0.578024 L 0.05639141,5.9504206 0.04675769,6.249066 C -0.36749237,13.406922 2.0505719,19.880783 7.2046133,25.410539 27.319825,47.067147 83.532594,48.252095 85.912124,48.29063 L 87.925572,48.32917 88.6192,46.450594 99.881021,15.97913 c 13.390869,5.231112 28.111199,11.406328 44.006839,18.043962 89.57435,37.532982 212.03823,88.832548 355.60959,89.506908 143.581,-0.67436 266.01597,-51.98356 355.59995,-89.506908 15.90528,-6.637634 30.62561,-12.81285 44.01648,-18.043962 l 11.94582,32.35004 2.01344,-0.03854 c 2.3988,-0.03854 58.5923,-1.223483 78.71715,-22.880091 5.15404,-5.529756 7.5721,-12.003617 7.16749,-19.161473 l -0.0193,-0.2986454 -0.0771,-0.2697442 -28.57362,-105.6915664 -0.36608,-0.47205 c -0.37572,-0.47205 -9.60482,-11.71461 -29.19981,-11.71461 -41.45391,0 -91.31806,20.683603 -149.07222,44.652304 C 712.2004,-34.549747 613.45475,6.422473 499.51672,7.1064673 z"
   id="path89"
   inkscape:connector-curvature="0" />
	<path
   d="m 499.51672,-1061.9381 c -142.44422,0.6937 -264.2819,51.7331 -353.4131,89.06381 -46.579047,19.50829 -83.370232,34.92224 -106.067281,34.92224 -15.519927,0 -26.386766,-3.70898 -32.6294176,-6.67617 l 26.4542016,97.86899 c 1.551029,1.7148 9.238739,9.19057 24.411852,9.19057 40.317127,0 89.709225,-20.50056 146.894995,-44.22842 79.95026,-33.15927 179.28357,-74.40124 294.34875,-75.0756 115.06518,0.67436 214.39849,41.91633 294.34875,75.0756 57.18577,23.72786 106.57787,44.22842 146.89499,44.22842 15.16348,0 22.86083,-7.47577 24.41185,-9.19057 l 26.44457,-97.86899 c -6.24265,2.98646 -17.10949,6.67617 -32.62942,6.67617 -22.69704,0 -59.48823,-15.41395 -106.07691,-34.92224 -89.11193,-37.33071 -210.95925,-88.37011 -353.39383,-89.06381 z"
   id="path91"
   inkscape:connector-curvature="0"
   style="fill:#ffffff" />
	<path
   d="M 499.51672,117.8461 C 357.0725,117.17174 235.23482,66.122649 146.10362,28.782342 99.524573,9.2933222 62.733388,-6.130267 40.036339,-6.130267 c -15.519927,0 -26.386766,3.7282505 -32.6294176,6.6858032 L 33.861123,-97.313448 c 1.551029,-1.714802 9.238739,-9.190572 24.411852,-9.190572 40.317127,0 89.709225,20.490929 146.894995,44.238054 79.95026,33.149638 179.28357,74.391603 294.34875,75.065963 115.06518,-0.67436 214.39849,-41.916325 294.34875,-75.065963 57.18577,-23.747125 106.57787,-44.238054 146.89499,-44.238054 15.16348,0 22.86083,7.47577 24.41185,9.190572 l 26.44457,97.8689842 c -6.24265,-2.9864539 -17.10949,-6.6858032 -32.62942,-6.6858032 -22.69704,0 -59.48823,15.4235892 -106.07691,34.912609 C 763.79862,66.113016 641.9513,117.15248 499.51672,117.8461 z"
   id="path93"
   inkscape:connector-curvature="0"
   style="fill:#ffffff" />
	<path
   d="m 993.26425,7.9060662 c -0.0289,5.0577038 -1.81114,9.5855538 -5.60683,13.6606178 -16.47366,17.764584 -62.52285,20.596898 -72.63826,21.001515 L 913.5163,38.4835 c 1.89784,-2.437331 3.87275,-4.604919 5.8573,-6.570198 26.28079,4.113599 44.36329,2.215756 53.66947,-5.683896 5.66462,-4.816861 5.8284,-10.019071 5.8284,-10.606728 V 15.237329 L 974.94091,1.0853909 c 9.87456,2.0327154 16.00161,5.3563496 18.32334,6.8206753 z"
   id="path95"
   inkscape:connector-curvature="0"
   style="fill:#ffffff" />
	<path
   d="M 5.7691887,7.9060662 C 8.0909157,6.4513742 14.198696,3.1181063 24.092528,1.1142921 L 20.267941,14.890515 20.16197,15.26623 v 0.385349 c 0,0.587657 0.163773,5.789867 5.828402,10.606728 9.306175,7.899652 27.398305,9.797495 53.659832,5.683896 1.994181,1.965279 3.95946,4.132867 5.866937,6.579832 L 84.01428,42.5971 C 73.908506,42.192484 27.859314,39.360169 11.366381,21.595585 7.5803284,17.501254 5.8173573,12.983038 5.7691887,7.9060662 z"
   id="path97"
   inkscape:connector-curvature="0"
   style="fill:#ffffff" />
	<path
   d="m 904.4317,13.927143 c 22.88009,-8.7377864 41.46354,-14.38314763 54.5654,-14.38314763 3.55484,0 6.75324,0.2601105 9.79749,0.61655822 l 3.1695,11.44486241 C 960.83714,9.1584501 933.30396,6.6151475 911.26201,32.356453 l -6.83031,-18.42931 z"
   id="path99"
   inkscape:connector-curvature="0"
   style="fill:#ffffff" />
	<path
   d="M 94.601741,13.927143 87.781066,32.385354 C 65.739109,6.6440486 38.215565,9.1873513 27.078982,11.634317 L 30.25811,0.18945476 c 3.034623,-0.35644772 6.242652,-0.6069245 9.797496,-0.6069245 13.092228,-0.0481686 31.675679,5.58755884 54.546135,14.34461274 z"
   id="path101"
   inkscape:connector-curvature="0"
   style="fill:#ffffff" />
	<path
   d="m 972.66735,17.56869 c -0.51059,1.233116 -1.50286,2.89975 -3.52594,4.547116 -5.30818,4.325542 -17.2829,8.496943 -44.18025,4.913199 19.71059,-15.259816 40.76028,-11.38706 47.70619,-9.460315 z"
   id="path103"
   inkscape:connector-curvature="0"
   style="fill:#ffffff" />
	<path
   d="M 26.37572,17.56869 C 33.331268,15.651579 54.371317,11.749921 74.081913,27.000104 47.18456,30.583848 35.219477,26.412447 29.911296,22.086905 27.878581,20.458806 26.86704,18.792172 26.37572,17.56869 z"
   id="path105"
   inkscape:connector-curvature="0"
   style="fill:#ffffff" />
	<path
   d="m 993.26425,-951.99801 c -0.0289,-5.06734 -1.81114,-9.56629 -5.60683,-13.65099 -16.47366,-17.74531 -62.52285,-20.57763 -72.63826,-20.99188 l -1.50286,4.07507 c 1.89784,2.44696 3.87275,4.61455 5.8573,6.57983 26.28079,-4.12323 44.36329,-2.22539 53.66947,5.67426 5.66462,4.80723 5.8284,10.02871 5.8284,10.60673 v 0.39498 l -3.93056,14.14231 c 9.87456,-2.03272 16.00161,-5.36599 18.32334,-6.83031 z"
   id="path107"
   inkscape:connector-curvature="0"
   style="fill:#ffffff" />
	<path
   d="m 5.7691887,-951.99801 c 2.321727,1.46432 8.4295073,4.79759 18.3233393,6.8014 l -3.930558,-14.1423 v -0.39498 c 0,-0.58766 0.163773,-5.7995 5.828402,-10.60673 9.306175,-7.89965 27.398305,-9.7975 53.659832,-5.67426 1.994181,-1.95565 3.95946,-4.12324 5.866937,-6.5702 l -1.502861,-4.07507 c -10.105774,0.41425 -56.154966,3.24657 -72.647899,20.99189 -3.7860526,4.09433 -5.5490237,8.59328 -5.5971923,13.67025 z"
   id="path109"
   inkscape:connector-curvature="0"
   style="fill:#ffffff" />
	<path
   d="m 904.4317,-958.01909 c 22.88009,8.73779 41.46354,14.38315 54.5654,14.38315 3.55484,0 6.75324,-0.25048 9.79749,-0.60693 l 3.1695,-11.44486 c -11.12695,2.43733 -38.66013,4.971 -60.70208,-20.7703 l -6.83031,18.43894 z"
   id="path111"
   inkscape:connector-curvature="0"
   style="fill:#ffffff" />
	<path
   d="m 94.601741,-958.01909 -6.820675,-18.45821 c -22.041957,25.73167 -49.565501,23.20764 -60.702084,20.7703 l 3.179128,11.44487 c 3.034623,0.35644 6.242652,0.60692 9.797496,0.60692 13.092228,0.0193 31.675679,-5.62609 54.546135,-14.36388 z"
   id="path113"
   inkscape:connector-curvature="0"
   style="fill:#ffffff" />
	<path
   d="m 972.66735,-961.66064 c -0.51059,-1.23311 -1.50286,-2.88048 -3.52594,-4.53748 -5.30818,-4.33517 -17.2829,-8.50658 -44.18025,-4.9132 19.71059,15.25982 40.76028,11.38706 47.70619,9.45068 z"
   id="path115"
   inkscape:connector-curvature="0"
   style="fill:#ffffff" />
	<path
   d="m 26.37572,-961.66064 c 6.955548,1.92675 27.995597,5.81877 47.706193,-9.43141 -26.897353,-3.59338 -38.862436,0.58766 -44.170617,4.9132 -2.032715,1.64736 -3.044256,3.2851 -3.535576,4.51821 z"
   id="path117"
   inkscape:connector-curvature="0"
   style="fill:#ffffff" />
	<path
   d="m 256.08219,-966.09215 c -2.28319,-3.03462 -6.628,-8.74742 -16.46403,-4.90356 -5.7128,2.22539 -12.64908,9.34471 -6.31972,25.45229 4.01726,10.24065 11.66644,17.86092 21.74331,13.90146 6.58947,-2.59147 9.73006,-8.12123 8.41987,-15.6548 l 11.89765,-4.66272 c 2.46623,13.32344 -2.23502,25.13438 -16.5122,30.72194 -15.16348,5.93437 -30.03795,-0.0385 -37.74492,-19.72023 -7.80332,-19.90327 -0.27938,-34.58506 14.40241,-40.34603 17.06132,-6.67617 28.56399,2.35063 32.49455,10.52003 l -11.91692,4.69162 z"
   id="path119"
   inkscape:connector-curvature="0" />
	<path
   d="m 291.34162,-967.75878 c -5.32745,-16.27136 2.58183,-23.36178 9.1424,-25.49083 6.5702,-2.14832 17.11912,-1.11751 22.44657,15.16348 5.32745,16.26172 -2.58184,23.36177 -9.1424,25.49083 -6.56057,2.12905 -17.11913,1.11751 -22.44657,-15.16348 z m -12.15776,3.96909 c 8.93046,27.29234 30.26915,23.98797 37.9665,21.47357 7.68771,-2.5144 26.84918,-12.45641 17.92835,-39.75837 -8.93046,-27.30201 -30.26915,-23.98801 -37.96649,-21.47361 -7.68772,2.5241 -26.84919,12.46608 -17.92836,39.75841 z"
   id="path121"
   inkscape:connector-curvature="0" />
	<polygon
   points="36.789,6.861 36.772,6.864 37.814,11.272 36.608,11.557 35.148,5.375 36.509,5.054 39.979,8.779 39.996,8.776 38.98,4.47 40.185,4.186 41.644,10.366 40.354,10.673 "
   id="polygon123"
   transform="matrix(9.6337222,0,0,9.6337222,-0.01104465,-1066.5237)" />
	<polygon
   points="46.51,4.375 43.347,4.816 43.545,6.236 46.314,5.849 46.469,6.961 43.7,7.349 44.071,9.993 42.757,10.178 41.878,3.888 46.354,3.262 "
   id="polygon125"
   transform="matrix(9.6337222,0,0,9.6337222,-0.01104465,-1066.5237)" />
	<rect
   x="-540.60706"
   y="940.33258"
   transform="matrix(-0.99760279,0.06920019,-0.06920019,-0.99760279,0,0)"
   width="12.77428"
   height="61.173965"
   id="rect127" />
	<path
   d="m 498.90979,-1026.9773 12.26373,0.3179 c 5.44306,0.1542 14.01707,1.8112 13.54502,19.8744 -0.25048,10.05761 -4.01727,20.44277 -14.41205,20.18266 l -12.43714,-0.31792 1.04044,-40.05704 z m -13.84365,50.27842 26.50236,0.684 c 20.18265,0.52022 25.87618,-18.26554 26.20373,-31.37702 0.30828,-11.5894 -3.49704,-29.248 -24.11321,-29.7875 l -27.00332,-0.6936 -1.58956,61.17412 z"
   id="path129"
   inkscape:connector-curvature="0" />
	<polygon
   points="61.344,7.434 58.276,7.01 58.051,8.64 61.539,9.123 61.384,10.236 56.608,9.574 57.481,3.282 62.107,3.924 61.953,5.037 58.614,4.573 58.43,5.898 61.498,6.322 "
   id="polygon131"
   transform="matrix(9.6337222,0,0,9.6337222,-0.01104465,-1066.5237)" />
	<polygon
   points="65.863,11.275 64.599,10.964 64.745,5.532 64.729,5.529 63.458,10.683 62.256,10.386 63.776,4.219 65.656,4.683 65.575,9.82 65.592,9.823 67.89,5.234 69.755,5.693 68.233,11.86 67.031,11.563 68.301,6.409 68.285,6.406 "
   id="polygon133"
   transform="matrix(9.6337222,0,0,9.6337222,-0.01104465,-1066.5237)" />
	<path
   d="m 720.78405,-953.50087 c -5.16368,15.25981 -16.57,18.67978 -31.18436,13.75695 -5.32745,-1.81114 -12.79358,-5.7706 -16.03051,-13.24637 -1.95565,-4.61455 -1.57993,-9.71079 0.22157,-15.56809 l 12.98626,-38.42892 12.35043,4.181 -12.70688,37.61009 c -2.72634,8.08269 0.76107,13.20783 6.40643,15.12494 8.32353,2.80341 13.08259,-0.0963 15.45249,-7.10969 l 12.88992,-38.1977 12.36006,4.19066 -12.74541,37.68713 z"
   id="path135"
   inkscape:connector-curvature="0" />
	<path
   d="m 740.35977,-943.15426 c -1.17531,3.20803 -1.96528,9.8553 8.41988,13.94963 5.61646,2.20613 12.41786,3.34291 14.79739,-2.67817 1.75334,-4.44115 -2.06161,-7.32163 -7.52393,-11.11732 l -5.53939,-3.82458 c -8.34281,-5.78024 -16.41587,-11.3389 -11.47377,-23.87237 2.5144,-6.32935 10.33699,-16.18465 28.80483,-8.87266 17.44667,6.88812 17.61045,20.14412 14.93227,27.1382 l -11.41596,-4.50858 c 0.684,-2.65891 2.10979,-9.0557 -8.26573,-13.15967 -4.52785,-1.79187 -10.5682,-2.23502 -12.60091,2.91902 -1.75334,4.44115 1.52213,6.83031 3.67045,8.3139 l 12.53347,8.88229 c 7.01335,4.98064 12.89955,10.97281 8.85339,21.18456 -6.75324,17.10949 -24.78757,11.74351 -29.77783,9.78786 -20.77031,-8.21756 -19.61426,-21.57954 -16.83012,-28.64105 l 11.41596,4.49894 z"
   id="path137"
   inkscape:connector-curvature="0" />
	<polygon
   points="15.771,107.692 19.004,106.243 20.587,106.907 17.192,108.307 18.273,112.824 16.698,112.166 15.963,108.837 15.146,109.186 14.315,111.168 13.092,110.655 15.545,104.796 16.769,105.309 "
   id="polygon139"
   transform="matrix(9.6337222,0,0,9.6337222,-0.01104465,-1066.5237)" />
	<rect
   x="-189.48285"
   y="47.42535"
   transform="matrix(-0.92637938,-0.37659162,0.37659162,-0.92637938,0,0)"
   width="12.793867"
   height="61.194767"
   id="rect141" />
	<polygon
   points="23.594,108.132 24.835,108.603 22.989,113.467 25.942,114.586 25.534,115.66 21.341,114.071 "
   id="polygon143"
   transform="matrix(9.6337222,0,0,9.6337222,-0.01104465,-1066.5237)" />
	<polygon
   points="30.116,117.177 28.877,116.783 29.377,111.373 29.36,111.368 27.755,116.428 26.574,116.052 28.495,110 30.342,110.585 29.925,115.705 29.941,115.71 32.534,111.28 34.364,111.861 32.444,117.915 31.263,117.54 32.868,112.481 32.852,112.476 "
   id="polygon145"
   transform="matrix(9.6337222,0,0,9.6337222,-0.01104465,-1066.5237)" />
	<path
   d="m 361.8701,32.732168 0.16377,0.03853 1.93638,25.298155 -15.19238,-3.525943 13.09223,-21.810747 z m -18.7954,31.348132 22.01306,5.067338 0.973,13.169298 13.53538,3.121326 -7.21565,-64.459235 -14.36388,-3.323634 -35.04748,54.709908 13.11149,3.015355 6.99408,-11.300356 z"
   id="path147"
   inkscape:connector-curvature="0" />
	<path
   d="m 408.38171,55.265445 2.24465,-16.232822 15.78967,2.206122 c 7.4276,1.001907 8.20794,5.934373 7.75515,9.152036 -0.8285,6.001809 -4.34481,7.832216 -10.93427,6.907379 l -14.8552,-2.032715 z m -17.10949,32.215167 12.40823,1.714802 3.2851,-23.70859 13.09223,1.81114 c 9.35434,1.300552 9.43141,4.576018 8.27537,12.851385 -0.86704,6.223384 -0.78997,9.431414 -0.34682,12.417868 l 14.01707,1.926744 0.22157,-1.599198 c -2.5722,-1.387256 -2.26392,-3.574111 -1.03081,-12.446769 1.56067,-11.319623 -0.87666,-13.535379 -5.55865,-16.415862 6.27155,-1.184948 10.45259,-6.473862 11.37742,-13.130764 0.72253,-5.231111 -0.58765,-17.533374 -16.70487,-19.787665 l -30.64487,-4.238838 -8.39097,60.605747 z"
   id="path149"
   inkscape:connector-curvature="0" />
	<polygon
   points="48.732,116.155 48.715,116.154 48.552,120.681 47.315,120.637 47.542,114.289 48.939,114.339 51.3,118.849 51.318,118.851 51.477,114.43 52.714,114.474 52.487,120.821 51.16,120.775 "
   id="polygon151"
   transform="matrix(9.6337222,0,0,9.6337222,-0.01104465,-1066.5237)" />
	<path
   d="m 530.17122,65.592795 c -1.45469,-17.061322 7.86112,-22.147928 14.7396,-22.716317 6.87848,-0.587657 16.90718,2.832314 18.38114,19.893636 1.45469,17.061322 -7.85148,22.12866 -14.72996,22.716317 -6.87848,0.587657 -16.92645,-2.851582 -18.39078,-19.893636 z m -12.73578,1.078977 c 2.44697,28.621788 23.9687,30.30769 32.04176,29.594794 8.07306,-0.693628 28.98787,-5.982541 26.55054,-34.60433 -2.43733,-28.621789 -23.95907,-30.30769 -32.03213,-29.585161 -8.07306,0.693628 -28.9975,5.972908 -26.56017,34.594697 z"
   id="path153"
   inkscape:connector-curvature="0" />
	<path
   d="m 623.40639,42.308088 c -1.67627,-3.410337 -4.87467,-9.83603 -15.26945,-7.880385 -6.03071,1.107878 -14.15194,6.791775 -10.97281,23.814562 2.01344,10.809036 8.11159,19.729863 18.75685,17.735682 6.93628,-1.290919 11.06915,-6.146315 11.19439,-13.814757 l 12.57201,-2.331361 c -0.0771,13.506478 -6.89775,24.257712 -21.98416,27.09966 -16.00161,2.996088 -29.49845,-5.674262 -33.38085,-26.444567 -3.93055,-21.030416 6.20412,-33.997406 21.69515,-36.916423 18.00542,-3.391071 27.61988,7.658809 29.95124,16.406228 l -12.56237,2.331361 z"
   id="path155"
   inkscape:connector-curvature="0" />
	<polygon
   points="68.488,114.72 70.142,111.589 71.798,111.136 69.985,114.326 73.619,117.222 71.972,117.673 69.343,115.504 68.913,116.28 69.481,118.356 68.202,118.705 66.524,112.579 67.804,112.229 "
   id="polygon157"
   transform="matrix(9.6337222,0,0,9.6337222,-0.01104465,-1066.5237)" />
	<polygon
   points="79.366,109.638 76.366,110.734 76.858,112.079 79.482,111.119 79.868,112.176 77.241,113.135 78.158,115.645 76.912,116.099 74.734,110.133 78.981,108.582 "
   id="polygon159"
   transform="matrix(9.6337222,0,0,9.6337222,-0.01104465,-1066.5237)" />
	
		<rect
   x="-727.73401"
   y="-318.2471"
   transform="matrix(-0.93174356,0.36311698,-0.36311698,-0.93174356,0,0)"
   width="12.773718"
   height="12.446188"
   id="rect161" />
	<path
   d="m 825.80126,-25.378444 c -2.341,-3.015355 -6.79178,-8.631815 -16.57001,-4.595285 -5.66463,2.340994 -12.44677,9.575919 -5.8284,25.5486308 4.2003,10.1635769 12.00362,17.6297112 21.99379,13.4775774 6.5413,-2.707076 9.57592,-8.27536739 8.12123,-15.8282056 l 11.81094,-4.8842976 c 2.72634,13.2656359 -1.75334,25.153649 -15.92454,31.049487 -15.04788,6.223385 -30.02831,0.539489 -38.12064,-19.0073338 -8.17903,-19.7780312 -0.94411,-34.5850622 13.63172,-40.6061392 16.93608,-7.022983 28.61215,1.81114 32.68722,9.893833 l -11.80131,4.951733 z"
   id="path163"
   inkscape:connector-curvature="0" />
	
		<rect
   x="-806.19653"
   y="-334.92712"
   transform="matrix(-0.92325729,0.38418223,-0.38418223,-0.92325729,0,0)"
   width="12.784541"
   height="12.437711"
   id="rect165"
   style="fill:#ffffff" />
	
	
	
	
	
	
	
	
	
	
	
	
</g>

</svg>