<?xml version="1.0" encoding="UTF-8" standalone="no"?>
<!-- Created with Inkscape (http://www.inkscape.org/) -->
<!DOCTYPE svg PUBLIC "-//W3C//DTD SVG 1.1//EN" "http://www.w3.org/Graphics/SVG/1.1/DTD/svg11.dtd">
<svg
   xmlns:svg="http://www.w3.org/2000/svg"
   xmlns="http://www.w3.org/2000/svg"
   version="1.1"
   width="400"
   height="400"
   id="svg2861"
   xml:space="preserve"><defs
     id="defs2865" /><g
     transform="matrix(1.25,0,0,-1.25,-0.625,399.37504)"
     id="g2871"><g
       transform="matrix(0.66666667,0,0,0.66666667,-38.315268,-120.79654)"
       id="g4314"><path
         d="m 58.2229,660.44486 480,0 0,-480 -480,0 0,480 z"
         id="path2873"
         style="fill:#00448b;fill-opacity:1;fill-rule:nonzero;stroke:none" /><path
         d="m 382.59185,330.6842 c -3.75,-26.25 -10.5,-54.75 -16.5,-79.5 -2.25,-6.75 -5.25,-14.25 12,-6 39,18.75 74.25,49.5 96,98.25 l -28.5,-13.5 c -10.5,-17.25 -23.25,-31.5 -36.75,-42 -6,-4.5 -8.25,-3 -7.5,2.25 1.5,9.75 4.5,21.75 6,33 1.5,7.5 0,8.25 9,12.75 12,6 21.75,12 33.75,21 3.75,3 4.5,0.75 4.5,-0.75 l 0,-6.75 27.75,15.75 c 3,11.25 6,25.5 6.75,36 0.75,9 -1.5,10.5 -7.5,3.75 -25.5,-26.25 -54,-45 -85.5,-58.5 -10.5,-4.5 -12,-5.25 -13.5,-15.75 l 0,0 z"
         id="path2875"
         style="fill:white;fill-opacity:1;fill-rule:nonzero;stroke:none" /><path
         d="m 361.59185,326.1842 -2.25,-18.75 c -4.5,-1.5 -14.25,-3.75 -21.75,-3.75 l 0.75,3.75 c 0,1.5 -1.5,3 -3.75,2.25 -21,-3.75 -41.25,-3 -62.25,-0.75 -7.5,0.75 -9,-0.75 -8.25,-6 l 1.5,-8.25 c 0,-2.25 2.25,-2.25 6,-3 24,-2.25 48,0 70.5,2.25 11.25,1.5 12.75,-3.75 10.5,-10.5 l -9,-35.25 c -2.25,-10.5 -3,-16.5 -18,-18 -21,-3 -36.75,-2.25 -57.75,0 -5.25,0.75 -12.75001,1.5 -16.50001,21 l -1.5,11.25 21.00001,0 0,-4.5 c 0.75,-5.25 2.25,-6 6.75,-6.75 13.5,-1.5 26.25,-0.75 39.75,0 6,0.75 6.75,2.25 7.5,6 l 0.75,9.75 c 0.75,3 0,4.5 -3.75,3.75 -23.25,-1.5 -42,-1.5 -65.25,0.75 -3.75001,0 -8.25001,0.75 -9.75001,5.25 l -8.25,42.75 c -1.5,9.75 3.75,13.5 9,12.75 36.00001,-7.5 71.25001,-6.75 107.25001,0.75 5.25,1.5 8.25,0 6.75,-6.75 l 0,0 z"
         id="path2877"
         style="fill:white;fill-opacity:1;fill-rule:nonzero;stroke:none" /><path
         d="m 105.85396,414.68677 c 3,-78.75 48.74999,-141.75 116.99999,-171 7.5,-3 15,0 12.75,9.75 -3,9.75 -6,20.25 -8.25,33 -1.5,7.5 -3.75,11.25 -12.75,15.75 6,3 6.75,9 6,13.5 -1.5,5.25 -2.25,11.25 -3.75,17.25 -2.25,6 -6.75,9 -13.5,12 -33.75,13.5 -67.5,35.25 -97.49999,69.75 z m 35.99999,-57.75 c 14.25,-9.75 27.75,-18 47.25,-26.25 6,-2.25 6,-5.25 6,-9 0,-1.5 -0.75,-4.5 -6,-3 -18,8.25 -36,21.75 -45.75,35.25 0,0.75 -1.5,1.5 -1.5,3 z m 14.25,-34.5 c 12.75,-9.75 25.5,-18 38.25,-23.25 4.5,-1.5 5.25,-5.25 5.25,-9 0,-4.5 -0.75,-6.75 -6.75,-3.75 -14.25,7.5 -24.75,18 -35.25,32.25 0,1.5 -0.75,3 -1.5,3.75 z"
         id="path2879"
         style="fill:white;fill-opacity:1;fill-rule:nonzero;stroke:none" /><path
         d="m 348.09185,605.9342 c 12,-105.75 13.5,-199.5 3,-264 6,1.5 15.75,3 22.5,6 6,30.75 9.75,78 6,141 0,1.5 0,3 0,4.5 l 9,-2.25 c 3,-52.5 1.5,-101.25 -5.25,-139.5 7.5,3 15,5.25 22.5,9.75 8.25,72 4.5,154.5 -8.25,223.5 -7.5,4.5 -12.75,7.5 -21,10.5 5.25,-27 8.25,-55.5 10.5,-82.5 l -9,3 c -2.25,25.5 -6,54.75 -9.75,83.25 -6.75,3 -13.5,5.25 -20.25,6.75 l 0,0 z"
         id="path2885"
         style="fill:white;fill-opacity:1;fill-rule:nonzero;stroke:none" /><path
         d="m 412.60396,574.43677 c 11.25,-71.25 15,-140.25 8.25,-204.75 8.25,4.5 13.5,8.25 21.75,13.5 3,24 4.5,51.75 4.5,78 l 16.5,-9 c 1.5,-13.5 3,-29.25 4.5,-47.25 6.75,6.75 15.75,16.5 22.5,23.25 -6.75,79.5 -45.75,120 -78,146.25 z m 32.25,-64.5 c 5.25,-5.25 9.75,-16.5 13.5,-32.25 l -12,6 c 0,9 -0.75,18 -1.5,26.25 z"
         id="path2887"
         style="fill:white;fill-opacity:1;fill-rule:nonzero;stroke:none" /><path
         d="m 297.09185,612.6842 0.75,-20.25 c 6,-0.75 11.25,-0.75 15.75,-2.25 3,-85.5 5.25,-210.75 3.75,-253.5 l 18,2.25 c 5.25,86.25 0.75,173.25 -1.5,249.75 l 10.5,-2.25 -1.5,21 c -15,3.75 -30,5.25 -45.75,5.25 l 0,0 z"
         id="path2891"
         style="fill:white;fill-opacity:1;fill-rule:nonzero;stroke:none" /><path
         d="m 274.60396,611.18677 c -11.25,-1.5 -19.5,-3 -30.75,-6 -10.5,-129.75 -12.75,-207 -5.25,-261.75 6.75,-2.25 13.5,-3 21,-4.5 -2.25,52.5 -2.25,92.25 -2.25,165.75 l 6.75,1.5 c 5.25,1.5 8.25,-3.75 8.25,-9 l 0.75,-159.75 c 7.5,-0.75 15.75,-1.5 22.5,-1.5 0.75,55.5 0.75,111.75 -0.75,167.25 -0.75,8.25 -5.25,14.25 -11.25,15.75 6.75,2.25 8.25,6.75 10.5,15.75 0,18 0,36.75 -1.5,55.5 0,12.75 -4.5,21 -18,21 z m -7.225,-26.75 c 3.79394,-0.0923 4.88125,-4.84375 4.225,-10.75 0.75,-10.5 1.5,-19.5 1.5,-30 0,-9.75 -3,-13.5 -9,-14.25 l -6,0 c 0,16.5 0.75,36 1.5,54.75 l 6,0 c 0.65625,0.1875 1.23301,0.26318 1.775,0.25 z"
         id="path2893"
         style="fill:white;fill-opacity:1;fill-rule:nonzero;stroke:none" /><path
         d="m 198.09184,584.9342 c -13.5,-72.75 -18.75,-162.75 -12.75,-222 13.5,-6.75 27.75,-12.75 42,-16.5 l -0.75,19.5 -19.5,9 c -2.25,36 -1.5,78 1.5,118.5 l 16.5,5.25 0,20.25 -15.75,-6 c 1.5,19.5 3.75,38.25 6.75,57.75 l 15,6.75 1.5,24 c -12,-4.5 -22.5,-9.75 -34.5,-16.5 l 0,0 z"
         id="path2897"
         style="fill:white;fill-opacity:1;fill-rule:nonzero;stroke:none" /><path
         d="m 186.09184,576.6842 c -15,-60 -24,-155.25 -15.75,-204.75 -9,5.25 -18,12 -25.5,17.25 -1.5,17.25 -0.75,37.5 0.75,59.25 -6,-2.25 -11.25,-5.25 -16.5,-9 -2.25,-11.25 -2.25,-24 -0.75,-35.25 -8.25,7.5 -15.75,15.75 -22.5,24 1.5,48.75 18,81.75 41.25,111.75 -5.25,-22.5 -11.25,-46.5 -12.75,-68.25 5.25,3 10.5,6 15.75,9 3.75,25.5 9.75,59.25 15,78.75 6.75,6 13.5,12 21,17.25 l 0,0 z"
         id="path2899"
         style="fill:white;fill-opacity:1;fill-rule:nonzero;stroke:none" /></g></g></svg>