<?xml version="1.0" encoding="UTF-8" standalone="no"?>
<!-- Created with Inkscape (http://www.inkscape.org/) -->
<!DOCTYPE svg PUBLIC "-//W3C//DTD SVG 1.1//EN" "http://www.w3.org/Graphics/SVG/1.1/DTD/svg11.dtd">
<svg
   xmlns:svg="http://www.w3.org/2000/svg"
   xmlns="http://www.w3.org/2000/svg"
   version="1.1"
   width="400"
   height="400"
   id="svg2816"
   xml:space="preserve"><defs
     id="defs2820" /><g
     transform="matrix(1.25,0,0,-1.25,-310.53139,-354.22863)"
     id="g2826"><g
       transform="matrix(0.27564413,0,0,0.27564413,187.94819,-429.06395)"
       id="g3866"><path
         d="m -608.67551,853.92938 a 366.76602,367.8808 0 1 1 -733.53209,0 366.76602,367.8808 0 1 1 733.53209,0 z"
         transform="matrix(1.503508,0,0,-1.498952,2266.4449,1228.0519)"
         id="path3048"
         style="fill:white;fill-opacity:1;fill-rule:evenodd;stroke:none" /><path
         d="m -608.67551,853.92938 a 366.76602,367.8808 0 1 1 -733.53209,0 366.76602,367.8808 0 1 1 733.53209,0 z"
         transform="matrix(1.3624745,0,0,-1.3583459,2128.875,1107.9842)"
         id="path3048-0"
         style="fill:none;stroke:black;stroke-width:11.76117229;stroke-miterlimit:4;stroke-opacity:1;stroke-dasharray:none" /><g
         transform="translate(1041.7853,-35.314756)"
         id="g3035"><path
           d="m -466.6875,1033.7812 -18.03125,0.9376 c -0.80259,0.042 -1.53633,0.4034 -2.0625,1 -0.47795,0.5416 -0.74864,1.2441 -0.75,1.9687 6.5e-4,0.073 -0.005,0.145 0,0.2187 0,0 5.62712,78.6094 6.03125,84.25 -4.17215,0.2172 -16.8308,0.8753 -21,1.0938 -0.40415,-5.6352 -6.03125,-84.25 -6.03125,-84.25 -0.11875,-1.6707 -1.58024,-2.9631 -3.25,-2.875 l -18.03125,0.9688 c -0.80289,0.04 -1.5667,0.4033 -2.09375,1 -0.52439,0.5963 -0.77593,1.3546 -0.71875,2.1562 l 14.125,197.5625 c 0.0564,0.8026 0.42609,1.556 1.03125,2.0937 0.60877,0.5382 1.41734,0.7939 2.21875,0.75 l 18.03125,-0.9374 c 1.59439,-0.084 2.80839,-1.3987 2.8125,-2.9688 -8e-4,-0.074 0.006,-0.1425 0,-0.2188 0,0 -6.18861,-86.2366 -6.59375,-91.9062 4.1689,-0.2203 16.86233,-0.8734 21.03125,-1.0938 0.40555,5.6723 6.5625,91.9063 6.5625,91.9063 0.057,0.8007 0.45441,1.5537 1.0625,2.0937 0.6076,0.5366 1.3867,0.8232 2.1875,0.7813 l 18.03125,-0.9687 c 1.66785,-0.089 2.93284,-1.5189 2.8125,-3.1876 l -14.125,-197.5312 c -0.1195,-1.6696 -1.5823,-2.9334 -3.25,-2.8438 z"
           transform="matrix(0.8,0,0,-0.8,0.5,841.38968)"
           id="path2828"
           style="fill:#003882;fill-opacity:1;fill-rule:nonzero;stroke:none" /><path
           d="m -406.84375,1088.7188 c -0.61221,0.01 -1.2154,0.029 -1.84375,0.062 -20.10374,1.0583 -30.37476,12.9323 -28.90625,33.4063 l 6.78125,94.9375 c 0.74226,10.3575 4.03506,18.2001 9.8125,23.3125 5.69884,5.04 13.65075,7.3089 23.625,6.7813 20.10537,-1.0594 30.37427,-12.8982 28.90625,-33.375 l -1.5,-21.0626 c -0.0565,-0.8035 -0.42445,-1.5562 -1.03125,-2.0937 -0.60789,-0.5383 -1.41808,-0.8241 -2.21875,-0.7813 l -16.9375,0.9063 c -1.66888,0.088 -2.9321,1.4866 -2.8125,3.1563 l 1.53125,21.0624 c 0.3505,4.9121 -0.3563,8.4078 -2.0625,10.3438 -1.15347,1.3075 -2.8816,1.9987 -5.28125,2.125 -2.39812,0.1242 -4.19929,-0.3826 -5.53125,-1.5625 -1.9724,-1.7462 -3.1489,-5.1211 -3.5,-10.0313 0,0 -2.50047,-34.9565 -2.875,-40.1874 5.15109,-0.2717 36.3125,-1.9376 36.3125,-1.9376 1.59455,-0.083 2.84054,-1.3675 2.84375,-2.9374 -6.5e-4,-0.073 -0.0263,-0.1442 -0.0312,-0.2188 l -3.6875,-51.7188 c -1.41859,-19.8365 -12.6153,-30.4989 -31.59375,-30.1874 z m 0.4375,19.7812 c 1.9764,0.029 3.4908,0.5614 4.65625,1.5938 1.97213,1.7444 3.15109,5.0922 3.5,10 0,0 2.04358,28.2912 2.40625,33.375 -3.81784,0.2022 -12.55539,0.6724 -16.375,0.875 -0.365,-5.0871 -2.40625,-33.375 -2.40625,-33.375 -0.0594,-0.8549 -0.0635,-1.6713 -0.0625,-2.4376 0.007,-3.6439 0.71266,-6.2739 2.125,-7.875 1.15525,-1.3077 2.88621,-2.0039 5.28125,-2.125 0.30062,-0.016 0.59266,-0.035 0.875,-0.031 z"
           transform="matrix(0.8,0,0,-0.8,0.5,841.38968)"
           id="path2830"
           style="fill:#003882;fill-opacity:1;fill-rule:nonzero;stroke:none" /><path
           d="m -319.0625,1095.1875 c -8.35565,0.4368 -14.75779,3.1728 -19.6875,8.4375 -0.0744,-1.0379 -0.1875,-2.7188 -0.1875,-2.7188 -0.0577,-0.7997 -0.4544,-1.5546 -1.0625,-2.0937 -0.60596,-0.5376 -1.38596,-0.7929 -2.1875,-0.75 l -15.84375,0.8125 c -1.66886,0.088 -2.93328,1.5162 -2.8125,3.1875 l 10.65625,149.125 c 0.0551,0.801 0.42325,1.5546 1.03125,2.0937 0.60849,0.5364 1.4185,0.7955 2.21875,0.75 l 16.9375,-0.875 c 1.66901,-0.087 2.9336,-1.5198 2.8125,-3.1874 l -8,-111.9063 c -0.5176,-7.244 0.4448,-11.9739 3.03125,-14.9063 2.63377,-2.9926 7.2972,-4.5782 14.71875,-4.9687 0.80184,-0.041 1.56684,-0.4024 2.09375,-1 0.52424,-0.5973 0.77594,-1.3546 0.71875,-2.1563 l -1.21875,-16.9687 c -0.11875,-1.6707 -1.54975,-2.9621 -3.21875,-2.875 z"
           transform="matrix(0.8,0,0,-0.8,0.5,841.38968)"
           id="path2832"
           style="fill:#003882;fill-opacity:1;fill-rule:nonzero;stroke:none" /><path
           d="m -229.625,1088.125 -16.9375,0.875 c -0.80095,0.041 -1.53725,0.4034 -2.0625,1 -0.52616,0.5966 -0.80808,1.386 -0.75,2.1875 l 14.125,197.5313 c 0.12062,1.6704 1.58175,2.961 3.25,2.875 l 16.9375,-0.875 c 0.80199,-0.04 1.53648,-0.4026 2.0625,-1 0.52439,-0.5964 0.8072,-1.3859 0.75,-2.1876 l -8.71875,-121.75 c -0.22254,-3.1283 0.81715,-6.5099 2.65625,-8.5937 1.38043,-1.563 3.17359,-2.422 5.3125,-2.5313 2.21312,-0.1206 3.9107,0.3704 5.1875,1.5 1.81397,1.6054 2.92769,4.6311 3.21875,8.75 l 8.71875,121.75 c 0.11862,1.6698 1.54916,2.964 3.21875,2.875 l 16.96875,-0.875 c 0.80185,-0.041 1.53722,-0.4035 2.0625,-1 0.52691,-0.5976 0.80731,-1.385 0.75,-2.1874 l -9.1875,-128.3438 c -1.1072,-15.4609 -10.74129,-24.9705 -24.53125,-24.25 -6.23089,0.3296 -11.93875,3.2763 -16.15625,7.75 -0.8442,-11.8381 -3.625,-50.625 -3.625,-50.625 -0.11863,-1.6698 -1.5804,-2.964 -3.25,-2.875 z"
           transform="matrix(0.8,0,0,-0.8,0.5,841.38968)"
           id="path2834"
           style="fill:#003882;fill-opacity:1;fill-rule:nonzero;stroke:none" /><path
           d="m -129.84375,1120.875 c -1.1569,-0.014 -2.36327,0.029 -3.59375,0.094 -9.62359,0.5069 -17.91141,4.1463 -23.3125,10.2812 -4.55998,5.1768 -6.67746,11.7447 -6.15625,19 l 1.25,17.5312 c 0.0564,0.8027 0.4243,1.5554 1.03125,2.0938 0.60939,0.5362 1.41733,0.8251 2.21875,0.7812 l 16.9375,-0.9062 c 1.66813,-0.087 2.89921,-1.5167 2.78125,-3.1875 l -0.96875,-13.9687 c -0.29051,-4.0029 -0.33701,-7.9613 1.375,-9.9063 1.03571,-1.1782 2.89681,-1.8196 5.6875,-1.9687 2.28387,-0.1199 3.90772,0.2769 4.9375,1.1874 1.42378,1.2613 2.30359,3.963 2.59375,8.0313 0,0 1.75417,24.7118 2.09375,29.4375 -29.92882,2.5487 -37.19089,17.2973 -37.21875,30.6562 -9.2e-4,0.9978 0.0563,1.9936 0.125,2.9688 l 2.875,40.5 c 0.66645,9.2762 3.75679,16.6059 8.9375,21.1875 4.26464,3.7702 9.9231,5.559 16.3125,5.2187 7.88528,-0.4118 12.83607,-2.8829 16.78125,-6.6562 0.0194,0.2677 0.0625,1.0938 0.0625,1.0938 0.11943,1.6687 1.58379,2.9625 3.25,2.875 L -96,1276.375 c 0.801115,-0.04 1.568495,-0.4034 2.09375,-1 0.526302,-0.5957 0.775944,-1.3546 0.71875,-2.1562 l -8.90625,-124.7813 c -1.3095,-18.3053 -10.39656,-27.3545 -27.75,-27.5625 z m 8.28125,78.25 c 0.40488,5.6624 3.4375,47.9375 3.4375,47.9375 0.40015,5.6104 -0.62877,12.3697 -7.84375,12.75 -5.63455,0.294 -7.80501,-1.6341 -8.625,-13 L -137,1212.9062 c -0.0245,-0.3442 -0.0325,-0.7006 -0.0312,-1.0312 0.005,-2.685 0.852,-4.9375 2.5625,-6.875 3.02641,-3.4342 8.20833,-5.1829 12.90625,-5.875 z"
           transform="matrix(0.8,0,0,-0.8,0.5,841.38968)"
           id="path2836"
           style="fill:#003882;fill-opacity:1;fill-rule:nonzero;stroke:none" /><path
           d="m -37.40625,1073.7188 c -1.920759,0 -3.858282,0.053 -5.8125,0.1562 l -33.625,1.7812 c -0.801857,0.041 -1.566835,0.4025 -2.09375,1 -0.526302,0.5958 -0.777118,1.3843 -0.71875,2.1876 l 14.125,197.5312 c 0.119712,1.6706 1.58129,2.9638 3.25,2.875 l 33.59375,-1.7812 c 11.318381,-0.5913 19.9468402,-2.1803 25.15625,-8.0938 3.25591236,-3.6964 4.8604759,-8.8451 4.875,-15.6562 0.00156,-1.1631 -0.035295,-2.3927 -0.125,-3.6563 l -4.4375,-61.8125 c -0.7765314,-10.802 -5.8363621,-15.9087 -11.9375,-18.25 5.7010024,-3.4325 8.3573059,-9.27 8.375,-18.125 0.00274,-1.2122 -0.030027,-2.4879 -0.125,-3.8125 L -10.5,1098 c -1.491071,-20.7823 -13.46094,-24.2818 -26.90625,-24.2812 z m -6.75,21.75 c 6.52489,0.061 9.440509,1.991 10,9.8124 l 3.1875,44.3126 c 0.06658,0.9273 0.09514,1.8074 0.09375,2.5937 -0.01584,7.395 -3.047441,8.8066 -9.65625,9.1563 0,0 -5.612461,0.293 -9,0.4687 -0.379574,-5.3074 -4.339176,-60.5989 -4.71875,-65.9063 2.970581,-0.1564 7.09375,-0.375 7.09375,-0.375 1.082773,-0.056 2.067873,-0.071 3,-0.062 z m 6.78125,87.1874 c 3.650274,-0.017 6.191329,0.6473 7.71875,2 1.453401,1.288 2.250356,3.4201 2.46875,6.5 l 3.875,54.1563 c 0.0466,0.6679 0.09423,1.3116 0.09375,1.9063 -0.0065,2.8576 -0.595314,4.9075 -1.75,6.2187 -1.560368,1.7674 -4.51398,2.6284 -9.875,2.9063 0,0 -4.740012,0.2392 -7.90625,0.4062 -0.385361,-5.3774 -4.86711,-68.1893 -5.25,-73.5625 3.385351,-0.1781 9,-0.4687 9,-0.4687 0.567469,-0.03 1.103532,-0.06 1.625,-0.063 z"
           transform="matrix(0.8,0,0,-0.8,0.5,841.38968)"
           id="path2838"
           style="fill:#003882;fill-opacity:1;fill-rule:nonzero;stroke:none" /><path
           d="m 40.3125,1081.5 c -0.641355,0.014 -1.307585,0.059 -1.96875,0.094 -20.283641,1.071 -30.6354434,13.0085 -29.15625,33.6562 l 1.71875,23.8125 c 0.76775,10.7079 4.229056,17.7246 9.96875,26.25 l 29.8125,44.8437 c 3.937129,6.0553 5.571151,10.7071 6.03125,17.125 l 1.96875,27.625 c 0.332814,4.6441 -0.379539,8.1512 -2.09375,10.0938 -1.138793,1.2918 -2.767577,1.9775 -4.96875,2.0938 -2.500331,0.1305 -4.4025,-0.4389 -5.8125,-1.6876 -1.980908,-1.7541 -3.169229,-4.9824 -3.5,-9.625 l -1.84375,-26 c -0.05714,-0.8016 -0.455434,-1.5544 -1.0625,-2.0937 -0.608494,-0.5364 -1.385798,-0.8233 -2.1875,-0.7813 l -18.03125,0.9688 c -1.669765,0.088 -2.934021,1.5172 -2.8125,3.1875 l 1.9375,27.0625 c 0.766662,10.7462 3.947471,18.449 9.6875,23.5312 5.827876,5.1615 14.0546,7.3949 25.15625,6.8126 20.030586,-1.0515 31.118812,-13.6625 29.6875,-33.7188 L 80.625,1223.5625 c -0.647645,-9.0238 -3.800951,-17.9864 -8.84375,-25.25 l -32.1875,-47.7187 C 36.851615,1146.4949 35.221584,1141.057 34.75,1134.5 l -1.5,-20.7812 c -0.623038,-8.7296 1.848599,-10.5016 6.625,-10.75 4.772276,-0.2515 7.498567,1.2405 8.125,9.9687 l 1.71875,24.0937 c 0.118662,1.6698 1.55004,2.9326 3.21875,2.8438 L 71,1138.9375 c 0.801712,-0.042 1.535438,-0.4033 2.0625,-1 0.52513,-0.5974 0.776811,-1.386 0.71875,-2.1875 L 72,1110.5938 C 70.569641,1090.6129 60.194497,1081.0663 40.3125,1081.5 z"
           transform="matrix(0.8,0,0,-0.8,0.5,841.38968)"
           id="path2840"
           style="fill:#003882;fill-opacity:1;fill-rule:nonzero;stroke:none" /><path
           d="m 122.65625,1107.375 c -0.60652,0.01 -1.22192,0.03 -1.84375,0.062 -9.93838,0.5198 -17.51671,3.6803 -22.5625,9.4063 -4.859289,5.5115 -7.101866,13.3448 -6.4375,22.625 l 10.46875,146.0937 c 0.66216,9.2778 3.98603,16.7869 9.59375,21.75 5.82304,5.154 13.80421,7.5245 23.75,7 19.80676,-1.0415 30.38135,-12.7258 29,-32.0313 l -2.03125,-28.1874 c -0.0573,-0.8025 -0.42266,-1.5565 -1.03125,-2.0938 -0.60671,-0.5366 -1.38669,-0.8232 -2.1875,-0.7812 l -18.03125,0.9687 c -0.80196,0.04 -1.56846,0.4036 -2.09375,1 -0.52705,0.5968 -0.77624,1.3841 -0.71875,2.1875 L 140.5,1283 c 0.6302,8.8193 -2.81284,9.7471 -6.40625,9.9375 -2.31011,0.12 -3.97405,-0.29 -5.09375,-1.2813 -1.49258,-1.3232 -2.40931,-3.9915 -2.6875,-7.9062 l -10.375,-145 c -0.27919,-3.9209 0.23595,-6.6576 1.53125,-8.125 0.96879,-1.0988 2.56738,-1.6938 4.875,-1.8125 2.31706,-0.1218 4.004,0.2875 5.125,1.2813 1.49318,1.3213 2.37705,3.9907 2.65625,7.9062 2.9e-4,0 1.8125,25.4375 1.8125,25.4375 0.0579,0.8006 0.45646,1.5552 1.0625,2.0937 0.60953,0.5372 1.38403,0.8236 2.1875,0.7813 l 18.03125,-0.9687 c 1.66888,-0.088 2.93226,-1.517 2.8125,-3.1876 l -1.84375,-25.9687 c -0.66083,-9.2807 -3.9878,-16.8179 -9.59375,-21.7813 -5.46089,-4.8324 -12.83971,-7.187 -21.9375,-7.0312 z"
           transform="matrix(0.8,0,0,-0.8,0.5,841.38968)"
           id="path2842"
           style="fill:#003882;fill-opacity:1;fill-rule:nonzero;stroke:none" /><path
           d="m -280.8125,1094.4688 -16.9375,0.875 c -1.59175,0.083 -2.80866,1.3968 -2.8125,2.9687 7.9e-4,0.074 -0.006,0.1416 0,0.2187 0,0 2.96196,41.2613 3.34375,46.5938 -2.50108,0.1316 -5.46875,0.3125 -5.46875,0.3125 -1.59234,0.085 -2.80956,1.3657 -2.8125,2.9375 5.2e-4,0.073 0.025,0.1728 0.0312,0.25 l 0.96875,13.6562 c 0.11987,1.6715 1.58115,2.963 3.25,2.875 0,0 2.93479,-0.1484 5.4375,-0.2812 0.41019,5.7406 8.15625,114.0625 8.15625,114.0625 0.45693,6.432 2.67402,11.4347 6.59375,14.9063 4.36992,3.8678 10.66598,5.6416 18.71875,5.2187 l 8.21875,-0.4375 c 1.67049,-0.089 2.93326,-1.5162 2.8125,-3.1875 l -1,-13.6875 c -0.12038,-1.6687 -1.55197,-2.959 -3.21875,-2.875 l -3.5625,0.1875 c -2.1472,0.1141 -3.57626,-0.1686 -4.375,-0.875 -0.82529,-0.7307 -1.31658,-2.1605 -1.46875,-4.2813 0,0 -7.46549,-104.5193 -7.875,-110.25 3.38829,-0.1767 9,-0.4687 9,-0.4687 0.80185,-0.041 1.53619,-0.4043 2.0625,-1 0.47618,-0.5414 0.74879,-1.2433 0.75,-1.9687 -5.4e-4,-0.073 0.006,-0.1443 0,-0.2188 l -1,-13.6875 c -0.1185,-1.6689 -1.55065,-2.9307 -3.21875,-2.8437 0,0 -5.64222,0.291 -9.03125,0.4687 -0.3812,-5.3344 -3.3125,-46.5937 -3.3125,-46.5937 -0.0565,-0.8036 -0.42534,-1.5562 -1.03125,-2.0938 -0.60849,-0.5364 -1.41708,-0.8233 -2.21875,-0.7812 z"
           transform="matrix(0.8,0,0,-0.8,0.5,841.38968)"
           id="path2844"
           style="fill:#003882;fill-opacity:1;fill-rule:nonzero;stroke:none" /><path
           d="m -321.34043,255.4917 c -82.84295,37.50309 -181.948,28.73048 -218.99212,22.8215 15.54367,-28.25435 62.73417,-123.02874 83.3539,-236.365076 21.38332,4.787532 92.62064,19.140665 172.03802,-2.611591 41.47927,-11.361978 63.57068,-18.508701 78.1879,-23.238266 19.77348,-6.391431 24.61533,-7.949053 45.98311,-9.60085 11.24784,0.183671 177.515045,1.9814727 190.851637,1.7004837 14.634593,-0.308834 45.361445,-3.1488313 93.582743,-17.6455325 0.87687,13.0240846 0.40844,28.9709178 0.43295,40.6772508 0.18884,90.123181 -22.33456,144.815441 -28.392896,156.917821 -36.01288,15.17979 -71.354325,19.6468 -90.5368009,21.74378 -7.7567986,0.84841 -13.3653367,1.46135 -17.4523291,2.57126 -8.771417,2.04791 -85.506011,1.94872 -153.579014,0.81943 -8.23234,-1.42239 -50.90735,-5.13119 -155.4771,42.20979 z"
           id="path2900"
           style="fill:#003882;fill-opacity:1;fill-rule:nonzero;stroke:none" /><path
           d="m -488.7256,-202.04956 c -3.81029,-3.48911 -7.49093,-6.36943 -10.4338,-7.7776 -14.10645,-6.74031 -25.27277,-26.23975 -25.32342,-50.48126 -0.0165,-7.93981 1.16105,-16.3928 3.82039,-25.07778 8.55304,-27.91959 37.3184,-39.14388 52.28228,-43.17938 l 17.9768,-111.79056 19.38286,2.75354 -16.56013,102.98299 c 13.67058,-5.0992 35.28202,-14.67857 49.33217,-28.40281 7.3909,-7.22125 9.62126,-17.18351 9.60204,-26.63132 -0.0303,-14.44859 -2.23589,-18.98086 -2.3878,-19.34736 l -0.7498,-4.56823 c -2.66869,-6.63209 -2.4259,-13.84594 2.56822,-15.99559 4.992,-2.14996 13.30998,4.56704 16.00188,11.19444 0.82044,1.96754 17.00726,41.44791 -11.4498,69.25536 -21.12186,20.64004 -54.52364,32.58908 -66.43503,36.3802 l -16.64949,103.52149 c 4.44631,4.64545 8.12451,8.96403 10.34143,11.6526 40.64915,4.75609 131.16219,10.15836 164.79755,-10.90487 2.9908,-1.80649 70.77335,-41.9061 142.8502,-14.62865 51.465392,19.46878 158.5399883,1.65797 159.6104774,1.47728 0.5642456,-0.0906 52.6133136,-9.08917 118.5283826,-49.2272 l 10.95725,-6.62656 5.12813,10.65645 c 19.4892,41.84079 26.32798,81.67361 26.40136,116.85215 0.14713,70.057197 -26.47081,121.567662 -33.53875,134.008247 1.39634,17.0556359 2.09532,33.16339 2.12614,48.145823 0.22816,108.6885 -31.18375,163.01462 -32.71259,165.58994 l -1.65572,2.78826 -2.96306,1.2999 c -40.115784,17.57066 -75.061247,21.39295 -95.9364795,23.67601 -6.34405088,0.69667 -11.82483,1.29434 -14.4765752,2.01316 -13.3944953,3.63222 -125.7043453,2.05322 -159.8118153,1.48178 l -0.85801,-0.015 -0.99049,-0.19573 c -0.38354,-0.0741 -39.33721,-6.86909 -144.32222,40.65842 -87.68228,39.69468 -181.21565,31.07733 -221.12166,24.63843 -0.0423,0.75941 -0.0746,1.51589 -0.23144,2.28485 l -1.1e-4,7e-4 c -1.75005,8.5722 -10.12447,14.25519 -18.66722,12.66856 l -17.44618,-3.23646 c -8.54352,-1.58637 -14.06934,-9.85157 -12.32383,-18.4226 1.75028,-8.57361 10.12493,-14.25802 18.6669,-12.67549 l 76.67096,-476.79615 m -13.17398,-77.91446 c -8.34627,27.24305 2.86073,48.27983 11.48464,52.39684 1.72595,0.82735 3.50249,1.88772 5.29684,3.09659 l 13.25913,-82.45961 c -11.329,4.27099 -25.57408,12.38448 -30.04061,26.96618 m 29.89816,97.2135 -69.33442,431.16079 c 32.15633,-63.70333 105.10883,-236.165967 69.33442,-431.16079 m -61.05305,457.20936 c 37.04422,5.90826 128.12387,14.68321 210.96846,-22.82111 104.56762,-47.34127 147.24158,-43.63045 155.47543,-42.21291 68.071229,1.1312 144.806759,1.22909 153.576429,-0.8169 4.08864,-1.11112 9.699069,-1.72235 17.4546897,-2.57238 C 23.601708,203.93765 55.375948,200.36613 91.389285,185.18349 97.441511,173.08314 119.97055,121.95467 119.78137,31.833609 119.75767,20.126663 119.33603,7.7452372 118.45613,-5.2734622 70.236371,9.2227136 39.509035,12.061199 24.874442,12.370033 11.537724,12.651718 -150.26994,9.964325 -161.5183,9.774765 c -21.36845,1.656059 -26.21032,3.20932 -45.98307,9.605213 -14.61793,4.729464 -36.71337,11.874174 -78.19041,23.23574 -79.41515,21.751858 -147.08559,10.077044 -168.46669,5.284754 -20.62112,113.340508 -63.35118,198.301288 -78.896,226.558368 m 663.47954,-523.92602 c -65.601878,38.25949 -115.529761,46.85756 -117.702031,47.21087 -4.5468941,0.7716 -113.339249,18.87458 -169.736099,-2.46612 -63.00941,-23.83894 -124.94093,12.5587 -125.55813,12.92934 -39.2997,24.61305 -130.52628,18.51693 -168.43793,14.68671 12.20761,73.27194 9.73482,143.213694 0.12771,205.507678 17.53377,3.967461 83.90506,16.227686 160.33807,-4.709886 41.04067,-11.241939 62.87549,-18.3016308 77.3226,-22.97762621 20.65458,-6.67816299 26.88968,-8.69455619 50.99132,-10.54372909 l 0.4589,-0.034378 0.45961,0.00633 c 1.72546,0.029883 172.989317,2.882002 186.144203,2.6050179 14.362217,-0.3039238 45.552826,-3.2807216 96.002267,-19.1779806 6.78205,-12.53199 30.12892,-60.332395 29.99596,-123.968626 -0.0632,-30.15827 -5.52819,-63.88262 -20.40644,-99.06769 z"
           id="path2902"
           style="fill:black;fill-opacity:1;fill-rule:nonzero;stroke:none" /></g></g></g></svg>