<?xml version="1.0" encoding="utf-8"?>
<!-- Generator: Adobe Illustrator 13.0.0, SVG Export Plug-In . SVG Version: 6.00 Build 14948)  -->
<!DOCTYPE svg PUBLIC "-//W3C//DTD SVG 1.0//EN" "http://www.w3.org/TR/2001/REC-SVG-20010904/DTD/svg10.dtd">
<svg version="1.0" id="Ebene_1" xmlns="http://www.w3.org/2000/svg" xmlns:xlink="http://www.w3.org/1999/xlink" x="0px" y="0px"
	 width="281.572px" height="467.719px" viewBox="0 0 281.572 467.719" enable-background="new 0 0 281.572 467.719"
	 xml:space="preserve">
<path fill-rule="evenodd" clip-rule="evenodd" fill="#FFFFFF" d="M139.835,142.829c74.762,0,135.738,60.977,135.738,135.74
	c0,74.761-60.977,135.742-135.738,135.742c-74.765,0-135.742-60.981-135.742-135.742C4.093,203.805,65.071,142.829,139.835,142.829
	L139.835,142.829z"/>
<path fill-rule="evenodd" clip-rule="evenodd" d="M1.821,467.719v-34.453h30.658v7.568H13.574v6.475h17.458v7.539H13.574v12.871
	H1.821L1.821,467.719z M64.645,453.979l-5.507-12.52l-5.824,12.52H64.645L64.645,453.979z M47.108,467.719H35.57l17.815-34.453
	h12.771l16.996,34.453H70.333l-2.594-6.221H49.885L47.108,467.719L47.108,467.719z M118.69,460.199v7.52H88.997v-34.453h11.752
	v26.934H118.69L118.69,460.199z M127.201,467.719v-34.453h11.562v12.915l12.077-12.915h14.124l-13.711,14.78l15.898,19.673h-14.546
	l-13.843-17.52v17.52H127.201L127.201,467.719z M173.328,467.719v-34.453h11.756v34.453H173.328L173.328,467.719z M207.818,440.248
	v6.89h6.533c1.566,0,2.712-0.278,3.444-0.83c0.729-0.547,1.099-1.416,1.099-2.607c0-1.226-0.352-2.109-1.053-2.646
	c-0.697-0.532-1.859-0.806-3.49-0.806H207.818L207.818,440.248z M196.306,467.719v-34.453h19.722c4.114,0,6.914,0.137,8.403,0.4
	c1.479,0.259,2.69,0.708,3.621,1.328c1.042,0.703,1.846,1.66,2.426,2.886c0.572,1.221,0.859,2.583,0.859,4.102
	c0,2.271-0.764,4.121-2.285,5.537c-1.518,1.431-3.617,2.241-6.291,2.451c2.801,0.151,4.797,0.693,5.998,1.616
	c1.209,0.928,1.927,2.471,2.156,4.644l0.63,5.723c0.078,0.728,0.229,1.597,0.462,2.593c0.222,0.996,0.5,2.046,0.824,3.174h-11.934
	c-0.229-0.64-0.414-1.333-0.531-2.085c-0.13-0.742-0.225-1.65-0.289-2.7l-0.324-4.771c-0.088-1.538-0.439-2.583-1.035-3.125
	c-0.596-0.547-1.814-0.82-3.652-0.82h-7.248v13.501H196.306L196.306,467.719z M241.624,467.719v-34.453h11.56v12.915l12.078-12.915
	h14.123l-13.708,14.78l15.896,19.673h-14.543l-13.846-17.52v17.52H241.624L241.624,467.719z"/>
<path fill-rule="evenodd" clip-rule="evenodd" d="M153.808,139.432L138.763,0L123.69,139.672
	c-10.598,1.225-20.836,3.637-30.582,7.102l-0.023-0.068l-2.516,0.999C37.702,167.672,0,218.797,0,278.568
	c0,77.104,62.729,139.834,139.835,139.834c77.104,0,139.832-62.729,139.832-139.834C279.667,206.18,224.377,146.466,153.808,139.432
	L153.808,139.432z M28.933,349.438l0.033-0.024c0,0-1.386-2.256-2.005-3.267c-1.751-19.844-3.272-44.551-3.272-70.596
	c0-21.646,1.067-44.192,3.906-65.602c0.715-1.111,3.495-5.424,3.495-5.424l-0.033-0.022c1.195-1.753,2.434-3.474,3.711-5.164
	l8.148,10.526l3.911,5.104c-5.078,16.516-12.557,88.55-1.194,142.964c-1.756,2.456-3.385,4.893-4.88,7.217
	C36.439,360.224,32.483,354.975,28.933,349.438L28.933,349.438z M190.227,156.956c12.476,5.188,23.984,12.243,34.183,20.813
	l-0.029,0.034c5.01,4.213,9.652,8.887,13.996,13.798c-3.608,4.562-7.109,9.146-10.256,13.276c0,0-2.4,3.13-3.99,5.201
	c-15.9-3.022-31.689-5.205-47.424-6.553C181.626,185.5,186.072,170.188,190.227,156.956L190.227,156.956z M222.871,218.158
	c1.5,6.694,3.689,22.09,5.055,41.523c-18.688-4.136-39.959-6.807-62.002-8.003l-4.427-41.017
	C181.853,211.728,202.263,214.228,222.871,218.158L222.871,218.158z M224.15,354.774c-3.708,1.533-7.582,2.954-11.605,4.268
	l-3.167-21.67l-17.087,25.337l-1.834-37.402c12.617-1.494,25.275-3.535,37.998-6.123
	C227.717,331.337,226.357,343.432,224.15,354.774L224.15,354.774z M61.318,384.096c-5.223-3.906-10.164-8.213-14.753-12.827
	c1.658-2.627,3.506-5.43,5.512-8.247c3.775,1.509,7.695,2.886,11.714,4.17L61.318,384.096L61.318,384.096z M107.227,292.23
	l-17.347-24.219l-2.407,49.097c-13.032-1.563-26.106-3.721-39.253-6.47c-0.675-14.805-0.458-29.292,0.227-42.31
	c18.595-4.346,40.019-7.148,62.27-8.428L107.227,292.23L107.227,292.23z M87.069,325.307l-1.833,37.402l-17.088-25.332
	l-3.166,21.665c-4.036-1.318-7.923-2.744-11.64-4.282c-2.335-11.538-3.806-23.628-4.639-35.654
	C61.55,321.732,74.329,323.798,87.069,325.307L87.069,325.307z M228.87,310.731c-12.998,2.705-25.928,4.834-38.815,6.377
	l-2.41-49.097l-17.346,24.219l-3.486-32.329c22.002,1.265,43.188,4.023,61.638,8.286C229.16,281.386,229.433,295.98,228.87,310.731
	L228.87,310.731z M111.603,251.679c-22.293,1.211-43.798,3.931-62.636,8.145c1.441-20.376,3.893-36.002,5.401-41.611
	c20.705-3.961,41.21-6.479,61.66-7.55L111.603,251.679L111.603,251.679z M53.394,210.078c-1.583-2.065-3.966-5.176-3.966-5.176
	s-6.545-8.454-9.325-12.046c4.575-5.311,9.572-10.309,14.943-14.847l-0.029-0.036c9.88-8.343,20.998-15.264,33.042-20.435
	c4.75,14.544,9.074,29.969,12.894,45.975C85.172,204.861,69.341,207.047,53.394,210.078L53.394,210.078z M213.736,367.191
	c4.001-1.279,7.902-2.651,11.664-4.15c2.254,3.169,4.385,6.392,6.377,9.546c-4.348,4.253-8.981,8.237-13.85,11.841l0.027,0.034
	c-0.506,0.376-1.019,0.747-1.531,1.118L213.736,367.191L213.736,367.191z M231.873,357.938c6.232-30.767,6.333-66.841,4.497-95.483
	l0.188-0.723c-0.078-0.02-0.159-0.039-0.237-0.059c-1.433-21.885-3.989-39.321-5.755-46.531l4.063-5.304
	c2.84-3.722,5.965-7.822,9.183-11.917c1.091,1.403,2.158,2.827,3.193,4.276l-0.034,0.024c0,0,1.428,2.077,2.088,3.037
	c3.542,23.862,4.772,49.018,4.772,72.367c0,28.848-1.862,54.893-3.519,72.368c-0.6,0.908-1.599,2.422-1.599,2.422l0.034,0.024
	c-3.374,4.961-7.08,9.678-11.084,14.121C235.855,363.705,233.925,360.81,231.873,357.938L231.873,357.938z M259.587,223.917
	c7.632,16.653,11.893,35.164,11.893,54.651c0,19.141-4.109,37.339-11.487,53.765C262.058,303.456,263.411,263.153,259.587,223.917
	L259.587,223.917z M182.561,154.043c-4.346,13.807-9.001,29.858-14.167,48.853c-2.596-0.174-5.191-0.331-7.786-0.459l-5.898-54.67
	C164.343,148.855,173.667,150.983,182.561,154.043L182.561,154.043z M116.917,202.437c-2.564,0.127-5.129,0.281-7.696,0.452
	c-3.984-16.844-8.527-33.071-13.529-48.345c8.655-3.09,17.721-5.303,27.097-6.52L116.917,202.437L116.917,202.437z M17.167,230.784
	c-2.632,33.233-1.774,67.438,0.076,95.772c-5.843-14.878-9.056-31.064-9.056-47.988C8.187,261.723,11.372,245.604,17.167,230.784
	L17.167,230.784z"/>
</svg>
