<?xml version="1.0" encoding="utf-8"?>
<!-- Generator: Adobe Illustrator 26.0.0, SVG Export Plug-In . SVG Version: 6.00 Build 0)  -->
<svg version="1.1" id="Capa_1" xmlns="http://www.w3.org/2000/svg" xmlns:xlink="http://www.w3.org/1999/xlink" x="0px" y="0px"
	 viewBox="0 0 154.2 173" style="enable-background:new 0 0 154.2 173;" xml:space="preserve">
<style type="text/css">
	.st0{fill-rule:evenodd;clip-rule:evenodd;fill:#164194;}
	.st1{fill-rule:evenodd;clip-rule:evenodd;fill:#FFFFFF;}
	.st2{fill-rule:evenodd;clip-rule:evenodd;fill:#E42313;}
</style>
<g>
	<path class="st0" d="M153.9,33.6l-0.9-14.4l-14.4-0.4C117.2,18.2,99.2,13.6,85.4,5l-8.2-5L69,5C55,13.5,37.1,18.2,15.6,18.8
		L1.2,19.2L0.3,33.6C-3,90.3,19.9,135.3,68.5,167.3l8.7,5.7l8.7-5.7c24.2-16,42.3-35.6,53.7-58.1C150.7,87,155.6,61.5,153.9,33.6
		L153.9,33.6z"/>
	<path class="st1" d="M151.1,33.7L150.4,22l-11.8-0.3c-22-0.6-40.4-5.4-54.7-14.2l-6.7-4.1l-6.7,4.1C56.1,16.2,37.6,21,15.6,21.6
		L3.9,22L3.2,33.7c-3.3,55.6,19.2,99.7,66.9,131.2l7.1,4.7l7.1-4.7C131.9,133.5,154.4,89.3,151.1,33.7L151.1,33.7z"/>
	<path class="st2" d="M148.2,33.9l-0.5-9.1l-9.1-0.3C116,23.9,97.1,19,82.4,9.9l-5.2-3.2l-5.2,3.2c-14.8,9-33.7,14-56.2,14.6
		l-9.1,0.3L6,33.9c-3.2,54.5,18.8,97.8,65.6,128.6l5.5,3.6l5.5-3.6C129.4,131.7,151.4,88.4,148.2,33.9L148.2,33.9z"/>
	<path class="st1" d="M142.5,34.2l-0.2-3.9l-3.9-0.1c-23.5-0.7-43.4-5.9-59-15.4l-2.2-1.4l-2.2,1.4c-15.7,9.6-35.5,14.8-59,15.4
		L12,30.3l-0.2,3.9c-3.1,52.3,18.1,93.9,63.1,123.5l2.4,1.6l2.4-1.6C124.4,128.1,145.6,86.6,142.5,34.2L142.5,34.2z"/>
	<path class="st2" d="M76.4,17.2C60.3,27.1,40,32.4,16,33.1l-1.3,0l-0.1,1.3c-1.5,25.4,2.8,48.4,12.9,68.4
		c10.2,20.3,26.7,38,48.9,52.6l0.8,0.5l0.8-0.5c22.1-14.6,38.6-32.3,48.8-52.6c10.1-20,14.4-43,12.9-68.4l-0.1-1.3l-1.3,0
		c-24-0.7-44.4-6-60.4-15.9l-0.7-0.5L76.4,17.2L76.4,17.2z"/>
	<path class="st1" d="M17.4,35.9c-0.1,2.8-0.2,5.5-0.2,8.2c0,16.8,2.7,32.4,8.2,46.6V35.4C22.7,35.6,20.1,35.8,17.4,35.9L17.4,35.9z
		"/>
	<path class="st1" d="M77.2,20.1c-2.4,1.4-4.9,2.8-7.4,4v123.1c2.4,1.8,4.9,3.5,7.4,5.2c2.5-1.7,5-3.4,7.4-5.2V24.1
		C82,22.8,79.5,21.5,77.2,20.1L77.2,20.1z"/>
	<path class="st1" d="M99.3,29.9v104.9c5.5-5.3,10.5-11,14.8-16.9V33.5C109,32.5,104,31.3,99.3,29.9L99.3,29.9z"/>
	<path class="st1" d="M137.1,44.1c0-2.7-0.1-5.5-0.2-8.2c-2.7-0.1-5.3-0.3-7.9-0.5v55.3C134.3,76.5,137.1,60.9,137.1,44.1
		L137.1,44.1z"/>
	<path class="st1" d="M40.1,33.5v84.4c4.3,5.9,9.3,11.5,14.8,16.9V29.9C50.2,31.3,45.3,32.5,40.1,33.5L40.1,33.5z"/>
	<path class="st0" d="M78.8,58.8H75l-9.9,25.3h4.9c0,0,2.5-6.4,2.7-7c0.7,0,8,0,8.6,0c0.2,0.6,2.7,7,2.7,7h5l-9.9-25.3H78.8
		L78.8,58.8z M79.7,72.5c-1.1,0-4.2,0-5.3,0c0.4-1.1,2-5.3,2.7-7.1C77.8,67.3,79.3,71.5,79.7,72.5L79.7,72.5z"/>
	<path class="st0" d="M115.4,81.7h-4v15.9c0,2.2-0.3,3.4-0.9,4.2c-0.6,0.8-1.8,1.1-3.5,1.1c-2.1,0-3.3-0.4-3.9-1.3
		c-0.5-0.8-0.8-2-0.8-3.9V81.7h-4.6v15.9c0,1.3,0,2.6,0.3,3.8c0.2,1.1,0.6,2,1.2,2.8c0.9,1.3,2.1,2.1,3.6,2.6
		c1.2,0.4,2.5,0.6,4.3,0.6c1.6,0,2.9-0.2,4-0.6c1.4-0.5,2.4-1.3,3.3-2.4c0.7-0.9,1.2-2,1.4-3.4c0.2-1.1,0.2-2.3,0.2-3.5V81.7H115.4
		L115.4,81.7z"/>
	<path class="st0" d="M54.6,58.8c-0.7,0.9-1.5,1.6-2.5,2.1c-1,0.5-2.2,0.7-3.5,0.7c-1,0-2.1-0.2-3.1-0.7c-1-0.4-1.9-1.1-2.7-1.9
		c-0.7-0.8-1.3-1.7-1.7-2.7c-0.4-1.1-0.6-2.2-0.6-3.4c0-1.1,0.2-2.2,0.7-3.2c0.4-1.1,1.1-2,1.8-2.8c0.7-0.8,1.6-1.4,2.6-1.8
		c1-0.4,2-0.6,3-0.6c1.3,0,2.5,0.3,3.6,0.8c1,0.5,1.9,1.3,2.6,2.3l0.2,0.2h5.2l-0.3-0.8c-1-2.2-2.5-4-4.4-5.2
		c-2-1.2-4.3-1.8-6.8-1.8c-1.7,0-3.3,0.3-4.8,0.9c-1.5,0.6-2.9,1.5-4.1,2.7c-1.3,1.3-2.3,2.7-2.9,4.3c-0.7,1.6-1,3.3-1,5
		c0,1.7,0.3,3.4,0.8,4.9c0.5,1.5,1.4,2.9,2.4,4.1c1.3,1.4,2.7,2.5,4.3,3.2c1.6,0.7,3.4,1.1,5.2,1.1c2.5,0,4.8-0.6,6.7-1.8
		c1.9-1.2,3.5-2.9,4.6-5.1l0.4-0.8h-5.5L54.6,58.8L54.6,58.8z"/>
</g>
</svg>
