<?xml version="1.0" encoding="utf-8"?>
<!-- Generator: Adobe Illustrator 26.0.0, SVG Export Plug-In . SVG Version: 6.00 Build 0)  -->
<svg version="1.1" id="Capa_1" xmlns="http://www.w3.org/2000/svg" xmlns:xlink="http://www.w3.org/1999/xlink" x="0px" y="0px"
	 viewBox="0 0 167.9 175.7" style="enable-background:new 0 0 167.9 175.7;" xml:space="preserve">
<style type="text/css">
	.st0{fill-rule:evenodd;clip-rule:evenodd;}
	.st1{fill-rule:evenodd;clip-rule:evenodd;fill:#FFFFFF;}
</style>
<g>
	<path class="st0" d="M84,0h-22C45.8,4.3,69,26.8,0,22.7c0.6,77.2,31.8,125.1,84,153.1v0c52.2-28,83.4-75.9,84-153.1
		C98.9,26.8,122.2,4.3,106,0H84L84,0L84,0z"/>
	<path class="st1" d="M53.8,23.1l-2,1.4l-2.2,1.3L47,27l-2.7,1l-2.9,0.9l-3.2,0.8l-3.5,0.6l-8,0.9l-9.5,0.4l-8.6-0.1l0.7,11.5
		l0.6,6.4l0.8,6.2l1,6.1l1.1,5.9l1.3,5.7l1.4,5.6l1.6,5.4l1.8,5.3l1.9,5.1l2,5l2.2,4.8l2.3,4.7l2.5,4.5l2.6,4.4l2.8,4.2l2.9,4.1l3,4
		l3.2,3.8l3.3,3.7l3.4,3.6l3.6,3.5l3.7,3.3l3.8,3.2l4,3.1c5.8,4.2,11.6,8.3,17.9,11.7c6.2-3.5,12.1-7.5,17.9-11.7l4-3.1l3.8-3.2
		l3.7-3.3l3.6-3.5l3.4-3.6l3.3-3.7l3.2-3.8l3-4l2.9-4.1l2.8-4.2l2.6-4.4l2.5-4.5l2.3-4.7l2.2-4.8l2-5l1.9-5.1l1.8-5.3l1.6-5.4
		l1.4-5.6l1.3-5.7l1.1-5.9l1-6.1l0.8-6.2l0.6-6.4l0.7-11.5c-4.5,0.1-9,0.1-13.6,0l-8.7-0.6l-3.8-0.5l-3.5-0.6l-3.2-0.8l-2.9-0.9
		l-2.7-1l-2.5-1.2l-2.2-1.3l-2-1.4l-1.8-1.6l-1.5-1.6l-1.3-1.7l-1.9-3.2c-0.9-1.9-1.6-3.8-2.4-5.7c-0.1-0.2-0.3-0.9-0.6-1H75.6l0,0
		l-12.3,0c-0.3,0.2-0.5,0.7-0.6,1c-0.6,1.4-1.1,2.8-1.7,4.2c-0.8,1.7-1.6,3.2-2.6,4.7l-1.3,1.7l-1.5,1.6L53.8,23.1L53.8,23.1z"/>
	<path class="st0" d="M143.4,28.2l21.8-0.5c-2.7,35.4-10,63.8-21.8,85V28.2L143.4,28.2z M96.5,4.9h10.2l12.1,15.5v125.7l-22.2,18
		V4.9L96.5,4.9z M49.1,21.4l11.6-18h10.6v160.7l-22.2-17V21.4L49.1,21.4z M24.5,26.7H3.7c1.3,35.4,9.2,62.5,20.8,85V26.7L24.5,26.7z
		"/>
	<path class="st0" d="M84,52.2c17.3,0,31.3,14,31.3,31.3c0,17.3-14,31.3-31.3,31.3s-31.3-14-31.3-31.3C52.7,66.2,66.7,52.2,84,52.2
		L84,52.2z"/>
	<path class="st1" d="M84,54.7c15.9,0,28.8,12.9,28.8,28.8c0,15.9-12.9,28.8-28.8,28.8c-15.9,0-28.8-12.9-28.8-28.8
		C55.2,67.6,68.1,54.7,84,54.7L84,54.7z"/>
	<path class="st0" d="M84,58c14.1,0,25.5,11.4,25.5,25.5c0,14.1-11.4,25.5-25.5,25.5c-14.1,0-25.5-11.4-25.5-25.5
		C58.5,69.4,69.9,58,84,58L84,58z"/>
	<path class="st1" d="M84,60.9c12.4,0,22.5,10.1,22.5,22.5c0,12.4-10.1,22.5-22.5,22.5S61.4,95.9,61.4,83.5
		C61.4,71,71.5,60.9,84,60.9L84,60.9z"/>
	<path class="st0" d="M84,65.6c9.9,0,17.9,8,17.9,17.9c0,9.9-8,17.9-17.9,17.9c-9.9,0-17.9-8-17.9-17.9C66.1,73.6,74.1,65.6,84,65.6
		L84,65.6z"/>
	<path class="st1" d="M84,68.6c8.2,0,14.9,6.7,14.9,14.9c0,8.2-6.7,14.9-14.9,14.9c-8.2,0-14.9-6.7-14.9-14.9
		C69.1,75.2,75.8,68.6,84,68.6L84,68.6z"/>
	<path class="st0" d="M99.4,66.1h3.1v34.5h-3.1V66.1L99.4,66.1z M84.1,59.2h3.1v48.4h-3.1V59.2L84.1,59.2z M67.1,82.3v-3.1h11V67.4
		h3.1v11.9l0,0v3.1l0,0v17.5h-3.1V82.3H67.1L67.1,82.3z"/>
	<path class="st1" d="M104.1,77.7l5.9-3.9v19.8l-5.9-3.6V77.7L104.1,77.7z M95.3,64.8h-8.2v37.6h8.2v4.9h4.1V59.7h-4.1V64.8
		L95.3,64.8z M81.2,55.8h2.8v55.1h-2.8V55.8L81.2,55.8z M65.1,89h13.1v13.9C72,100.1,67.1,96,65.1,89L65.1,89z"/>
</g>
</svg>
