<?xml version="1.0" encoding="utf-8"?>
<!-- Generator: Adobe Illustrator 13.0.2, SVG Export Plug-In . SVG Version: 6.00 Build 14948)  -->
<!DOCTYPE svg PUBLIC "-//W3C//DTD SVG 1.0//EN" "http://www.w3.org/TR/2001/REC-SVG-20010904/DTD/svg10.dtd">
<svg version="1.0" id="Ebene_1" xmlns="http://www.w3.org/2000/svg" xmlns:xlink="http://www.w3.org/1999/xlink" x="0px" y="0px"
	 width="469.467px" height="566.929px" viewBox="0 0 469.467 566.929" enable-background="new 0 0 469.467 566.929"
	 xml:space="preserve">
<path fill-rule="evenodd" clip-rule="evenodd" d="M0,83.536L88.815,0l2.096,1.03c39.686,19.472,99.505,29.58,143.826,29.461
	c47.315,0,101.089-8.496,143.818-29.461L380.652,0l88.814,83.536l-1.55,2.367c-24.566,37.529-37.401,77.048-37.435,122.125
	c-0.02,27.941,5.959,51.908,16.873,77.399c6.874,16.057,12.965,36.135,14.702,53.521c5.221,52.26-12.267,100.273-48.446,138.197
	c-17.3,18.133-37.618,33.244-61.79,40.793c-41.456,12.949-82.873,8.859-113.948,45.305l-3.137,3.686l-3.059-3.586
	c-31.083-36.551-72.52-32.438-114.032-45.404c-24.171-7.549-44.49-22.66-61.79-40.793C19.676,439.222,2.189,391.208,7.41,338.951
	c1.737-17.389,7.828-37.467,14.702-53.523c10.914-25.491,16.893-49.458,16.873-77.399C38.952,162.952,26.116,123.433,1.55,85.903
	L0,83.536L0,83.536z M21.698,86.29c22.571,37.693,34.125,77.525,34.158,121.727c0.021,30.017-6.469,56.569-18.234,84.051
	c-6.325,14.77-11.825,32.553-13.423,48.561C19.465,388,35.324,431.185,68.063,465.5c15.273,16.01,33.268,29.67,54.611,36.336
	c21.748,6.793,44.691,8.752,66.513,15.438c17.153,5.252,32.356,12.982,45.546,24.986c13.189-12,28.388-19.73,45.538-24.984
	c21.825-6.688,44.771-8.646,66.521-15.439c21.343-6.666,39.338-20.326,54.61-36.336c32.739-34.316,48.599-77.502,43.865-124.873
	c-1.598-16.006-7.1-33.789-13.423-48.559c-11.765-27.482-18.256-54.034-18.234-84.051c0.032-44.202,11.588-84.034,34.158-121.727
	l-70.317-66.137c-43.52,19.247-95.419,27.209-142.685,27.209C190,47.482,133.537,38.125,92.044,20.125L21.698,86.29L21.698,86.29z"
	/>
<path fill-rule="evenodd" clip-rule="evenodd" fill="#E0B13C" d="M4.373,84.056L89.425,4.059
	c37.253,18.279,97.07,29.936,145.315,29.807c47.642,0,102.142-8.63,145.302-29.807l85.053,79.997
	c-21.462,32.786-37.95,72.635-37.986,123.97c-0.024,33.625,8.612,58.801,17.146,78.729c6.636,15.5,12.813,36.178,14.445,52.531
	c4.408,44.119-7.055,93.105-47.529,135.529c-12.624,13.232-32.898,31.328-60.354,39.902c-39.838,12.443-83.541,8.84-115.512,46.338
	l-0.571,0.67l-0.486-0.57c-31.979-37.604-75.724-33.982-115.596-46.438c-27.456-8.574-47.73-26.67-60.354-39.902
	c-40.474-42.424-51.937-91.41-47.529-135.529c1.633-16.354,7.809-37.031,14.445-52.531c8.533-19.929,17.169-45.105,17.146-78.729
	C42.322,156.69,25.834,116.841,4.373,84.056L4.373,84.056z M17.397,85.703c23.035,37.614,35.051,77.48,35.084,122.316
	c0.021,29.784-6.325,55.538-17.962,82.721c-6.324,14.771-12.081,33.553-13.679,49.553c-4.831,48.344,11.318,92.461,44.781,127.535
	c15.68,16.436,34.126,30.383,56.047,37.229c21.723,6.785,44.686,8.75,66.53,15.443c18.048,5.527,33.39,13.676,46.534,26.385
	c13.149-12.711,28.489-20.857,46.526-26.385c21.848-6.693,44.813-8.658,66.538-15.443c21.922-6.846,40.368-20.793,56.048-37.229
	c33.463-35.074,49.611-79.191,44.781-127.537c-1.599-15.998-7.354-34.779-13.68-49.551c-11.637-27.183-17.983-52.937-17.962-82.721
	c0.033-44.836,12.049-84.702,35.084-122.316l-73.943-69.549c-43.482,19.71-96.276,27.834-143.365,27.834
	C190.65,44.106,132.7,34.583,91.359,16.137L17.397,85.703L17.397,85.703z"/>
<path fill-rule="evenodd" clip-rule="evenodd" d="M147.057,213.641h64.99v62.677h-64.99V213.641L147.057,213.641z M255.949,213.641
	h64.984v62.677h-64.984V213.641L255.949,213.641z M320.934,320.22v0.705c0,39.645-27.708,73.217-64.984,82.865v-83.57H320.934
	L320.934,320.22z M212.047,403.792c-37.281-9.643-64.99-43.219-64.99-82.867v-0.705h64.99V403.792L212.047,403.792z"/>
<path fill-rule="evenodd" clip-rule="evenodd" fill="#345696" d="M150.431,217.015v55.928h58.241v-55.928H150.431L150.431,217.015z
	 M259.323,217.015v55.928h58.236v-55.928H259.323L259.323,217.015z M317.516,323.593h-58.192v75.721
	C292.507,388.849,316.358,358.656,317.516,323.593L317.516,323.593z M208.672,399.316v-75.723h-58.197
	C151.632,358.66,175.484,388.855,208.672,399.316L208.672,399.316z"/>
<polygon fill-rule="evenodd" clip-rule="evenodd" points="85.824,226.349 100.266,226.349 100.266,367.876 85.824,367.876 
	85.824,226.349 "/>
<polygon fill-rule="evenodd" clip-rule="evenodd" fill="#708E4C" points="88.793,229.318 97.296,229.318 97.296,364.908 
	88.793,364.908 88.793,229.318 "/>
<polygon fill-rule="evenodd" clip-rule="evenodd" points="108.931,226.349 123.372,226.349 123.372,367.876 108.931,367.876 
	108.931,226.349 "/>
<polygon fill-rule="evenodd" clip-rule="evenodd" fill="#708E4C" points="111.9,229.318 120.403,229.318 120.403,364.908 
	111.9,364.908 111.9,229.318 "/>
<polygon fill-rule="evenodd" clip-rule="evenodd" points="344.618,226.349 359.06,226.349 359.06,367.876 344.618,367.876 
	344.618,226.349 "/>
<polygon fill-rule="evenodd" clip-rule="evenodd" fill="#DC442B" points="347.588,229.318 356.091,229.318 356.091,364.908 
	347.588,364.908 347.588,229.318 "/>
<polygon fill-rule="evenodd" clip-rule="evenodd" points="367.725,226.349 382.167,226.349 382.167,367.876 367.725,367.876 
	367.725,226.349 "/>
<polygon fill-rule="evenodd" clip-rule="evenodd" fill="#345696" points="370.694,229.318 379.197,229.318 379.197,364.908 
	370.694,364.908 370.694,229.318 "/>
<path fill-rule="evenodd" clip-rule="evenodd" d="M167.141,293.363c-1.274,3.012,0.081,5.252,3.215,5.523
	c2.771,0.24,5.319-2.264,5.484-4.973c0.345-5.688-3.809-9.836-9.485-9.732c-7.795,0.143-13.436,5.998-13.436,13.729
	c0,7.611,5.264,13.828,13.251,13.729c7.723-0.096,12.406-6.938,16.666-12.424c3.243-4.176,6.072-7.51,9.365-9.916
	c-0.154-0.631-0.233-1.297-0.237-1.984c-0.018-2.586,1.039-5.95,3.143-7.602c1.965-1.543,3.192,0.277,1.297,1.764
	c-1.404,1.103-1.826,3.684-1.813,5.393c0.003,0.293,0.021,0.586,0.06,0.869c3.581-1.967,7.842-2.975,13.66-2.92
	c7.525,0.068,13.105,2.611,17.836,8.635c1.131,1.438,2.131,2.969,3.07,4.551c0.664-3.254,2.529-6.357,4.434-8.949
	c3.192-4.342,8.372-9.494,8.326-15.202c-0.033-4.142-2.679-8.313-6.168-12.573c-1.936-1.755-4.668-1.316-6.242-0.851
	c-3.208,0.949-5.528,3.628-5.597,7.781c-0.067,4.066,3.102,8.064,7.327,8.052c1.71-0.004,4.141-0.448,5.232-1.864
	c1.471-1.908,3.303-0.698,1.775,1.282c-1.633,2.121-4.553,2.981-7.141,2.991c-5.736,0.02-9.988-4.925-9.893-10.507
	c0.116-6.838,5.111-10.849,11.158-10.816c-3.094-3.481-6.39-7.031-8.962-10.675c-2.239-0.942-4.313-0.161-4.783,1.479
	c-0.491,1.719,0.299,3.017,1.292,3.74c0.763,0.553,0.998,1.281,0.649,1.799c-0.204,0.305-0.749,0.476-1.453,0.193
	c-1.927-0.777-3.193-3.105-3.236-5.133c-0.053-2.412,1.404-5.303,5.423-5.4c-1.477-2.666-2.432-5.387-2.533-8.171
	c-0.161-4.447,1.606-8.273,4.596-10.722c-0.067-2.149-1.679-3.678-3.257-3.657c-1.787,0.024-3.107,1.154-3.404,2.603
	c-0.19,0.929-0.298,1.484-1.099,1.408c-1.223-0.12-0.757-2.849-0.502-3.504c0.562-1.448,1.813-2.633,3.122-3.099
	c2.488-0.881,6.885-0.272,7.901,4.545c1.791-0.805,3.837-1.222,6.045-1.15c4.426,0.142,8.502,3.052,10.479,6.971
	c2.058,0.201,4.132-0.233,5.622-2.3c0.996-1.382,1.209-4.127,0.484-5.756c-0.979-2.199,0.957-3.235,1.972-0.953
	c1.274,2.862,1.014,6.995-1.007,9.492c-1.389,1.717-3.759,2.474-6.012,2.613c0.105,0.552,0.172,1.112,0.189,1.679
	c0.166,5.381-3.222,11.686-9.248,11.54c-4.257-0.103-7.438-3.403-7.049-7.706c0.32-3.535,3.81-6.221,7.333-5.555
	c2.364,0.448,1.465,3.026-0.502,2.653c-1.956-0.37-3.965,1.196-4.142,3.145c-0.25,2.756,1.722,4.698,4.425,4.763
	c4.393,0.107,6.602-4.997,6.484-8.757c-0.144-4.688-4.442-8.982-9.115-9.133c-6.341-0.204-10.847,4.457-10.62,10.782
	c0.466,12.853,23.048,25.162,23.155,38.748c0.053,6.685-5.15,11.788-8.85,16.821c-2.325,3.162-4.97,7.635-3.926,11.709l0.233,0.91
	c0.753,1.404,1.505,2.805,2.303,4.174c1.78-12.27,11.587-23.664,24.774-22.477c3.54,0.318,6.508,1.449,8.724,3.283
	c2.09-0.084,3.55-1.191,3.669-2.82c0.128-1.791-0.855-3.343-2.651-3.857c-1.125-0.321-1.557-0.653-1.506-1.08
	c0.081-0.69,0.59-1.074,1.904-0.744c1.885,0.474,3.338,1.583,4.282,3.385c1.169,2.229,0.553,6.266-3.53,7.479
	c1.082,1.566,1.799,3.43,2.089,5.559c9.618,3.162,14.932,16.906,24.464,16.482c7.131-0.32,12.521-7.008,12.171-13.953
	c-0.329-6.535-4.307-12.908-11.418-13.07c-4.827-0.111-8.479,4.117-8.46,8.793c0.014,3.594,2.861,6.707,6.489,6.775
	c2.049,0.037,4.961-1.324,5.836-3.266c0.798-1.771,3.45-1.084,2.462,1.109c-1.327,2.941-5.204,4.912-8.348,4.855
	c-5.101-0.096-9.12-4.412-9.139-9.463c-0.009-2.166,0.581-4.236,1.625-6.014c-3.953-0.512-4.729-5.578-3.42-7.055
	c0.542-0.614,0.927-0.581,1.198-0.505c0.449,0.125,0.556,0.769,0.29,1.652c-0.282,0.933,0.011,2.412,1.017,3.041
	c0.627,0.393,1.971,0.719,3.311-0.014c1.929-1.667,4.427-2.674,7.2-2.61c3.668,0.085,6.694,1.507,8.992,3.728
	c1.573,1.121,3.443,1.549,4.982,1.188c2.098-0.494,3.21-3.006,3.149-4.868c-0.038-1.169,0.146-1.683,0.566-1.766
	c0.681-0.133,1.138,0.243,1.29,1.586c0.372,3.274-0.808,6.26-3.69,7.372c-1.014,0.393-2.191,0.555-3.363,0.445
	c1.256,2.389,1.985,5.137,2.127,7.949c0.426,8.453-6.134,16.4-14.747,16.785c-5.034,0.225-8.811-2.449-12.252-5.746
	c0.663,5.549-4.228,7.566-7.046,6.916c-1.984-0.459-3.614-1.455-4.342-3.213c-0.521-1.262-0.41-1.779,0.236-2.031
	c0.398-0.158,0.828,0.174,1.427,1.182c0.954,1.607,3.014,1.934,4.733,1.424c2.712-0.803,3.305-4.307,1.142-8.201
	c-2.62-2.717-5.251-5.281-8.35-6.586l-0.022,0.494c-0.455,7.217-5.984,13.754-13.429,14.166c-6.363,0.355-11.015-3.844-10.685-10.26
	c0.336-6.533,7.406-9.953,13.34-8.029c2.286,0.742,1.017,3.166-0.831,2.566c-4.23-1.371-9.569,0.857-9.813,5.602
	c-0.248,4.818,3.088,7.693,7.838,7.428c6.073-0.338,10.517-5.799,10.885-11.643c0.444-7.051-3.685-11.137-10.641-11.762
	c-8.34-0.75-15.09,4.295-18.853,11.189c-2.914,5.338-4.746,10.578-0.967,15.537c3.313,4.354,5.78,7.18,7.375,14.857
	c1.021,4.914-0.04,9.641-2.184,14.057c-1.225,4.959-0.46,9.566,2.417,10.203c1.755,0.389,3.783-0.084,4.62-1.754
	c0.526-1.049,0.932-1.41,1.341-1.281c0.662,0.207,0.811,0.715,0.379,2.01c-0.601,1.807-2.154,3.055-4.104,3.654
	c-2.722,0.84-7.967-1.188-8.233-6.91c-3.003,4.193-6.656,7.996-9.899,11.262c-5.979,6.02-8.967,13.537-8.479,22.023
	c0.412,7.135,4.531,13.998,12.363,14.033c7.031,0.031,11.393-5.316,11.423-12.078c0.02-4.061-2.831-9.355-7.381-9.52
	c-3.134-0.111-5.26,2.398-4.975,5.488c0.173,1.891,2.392,3.152,4.138,3.309c1.926,0.172,3.022,1.525,2.957,3.67
	c-0.078,2.4-2.757,1.859-2.699-0.082c0.024-0.77-0.418-1.039-1.121-1.031c-2.348,0.021-5.668-2.402-5.963-5.617
	c-0.433-4.695,3.004-8.604,7.76-8.432c6.067,0.215,10.01,6.668,9.984,12.227c-0.02,3.893-1.267,7.404-3.476,10.025
	c3.141,0.576,5.177,3.5,5.245,5.803c0.06,2.043-0.773,4.578-2.289,5.73c-1.087,0.83-1.614,0.852-2.024,0.293
	c-0.254-0.346-0.044-0.844,0.779-1.682c1.311-1.336,1.427-3.363,0.879-4.879c-0.901-2.49-3.615-3.15-5.723-2.557
	c-2.105,1.301-4.645,2.045-7.526,2.031c-2.061-0.008-3.926-0.406-5.581-1.113c-0.464,3.891-4.435,5.834-7.188,5.447
	c-2.136-0.303-4.424-1.5-5.375-3.197c-0.68-1.219-0.617-1.744,0.037-2.049c0.402-0.188,1,0.031,1.623,1.066
	c1.018,1.699,3.263,2.004,4.938,1.729c2.558-0.418,3.559-2.561,3.396-4.449c-4.21-3.033-6.572-8.383-6.896-14.012
	c-0.533-9.244,2.741-17.52,9.258-24.082c2.161-2.176,4.605-4.68,6.898-7.418c-6.313,1.318-13.553-0.949-16.879-6.588
	c-3.665-6.215-3.369-13.805,1.958-18.975c4.088-3.969,11.13-3.846,14.679,0.871c2.55,3.387,2.494,8.881-0.946,11.707
	c-2.744,2.252-6.741,1.779-8.638-0.41c-1.551-1.791,0.054-3.482,1.602-1.541c1.226,1.533,3.963,1.375,5.539,0.082
	c2.301-1.891,2.177-5.994,0.503-8.217c-2.569-3.414-7.935-3.393-10.861-0.555c-4.425,4.297-4.543,10.527-1.513,15.666
	c2.041,3.459,5.969,5.338,10.005,5.596c3.023,0.193,7.112-0.963,9.836-5.174c2.407-4.365,3.744-9.057,2.751-13.83
	c-1.965-9.443-5.506-11.223-10.272-18.543c-3.375-5.184-5.794-11.307-9.583-16.129c-4.222-5.373-9.036-7.543-15.739-7.604
	c-0.507-0.004-1.002,0.002-1.483,0.016c-6.813,0.979-12.297,7.531-10.924,15.066c1.08,5.922,5.909,10.1,12.027,9.623
	c4.593-0.357,8.63-3.926,8.666-8.67c0.024-3.121-1.991-6.336-5.342-6.25c-2.342,0.059-3.745,1.811-3.756,4.047
	c-0.013,2.504-2.324,2.045-2.331-0.205c-0.011-3.637,2.633-5.936,6.085-6.18c4.88-0.346,8.009,3.936,7.972,8.609
	c-0.049,6.154-5.098,10.873-11.084,11.34c-7.495,0.586-13.711-4.701-15.038-11.975c-0.909-4.982,0.861-10.055,4.308-13.535
	c-4.866,2.139-8.206,6.041-12.418,11.465c-0.683,0.881-1.371,1.771-2.07,2.66c-1.937,4.213-0.61,8.174,2.208,8.797
	c1.753,0.387,3.783-0.084,4.62-1.754c0.526-1.049,0.931-1.412,1.34-1.281c0.662,0.207,0.81,0.713,0.379,2.01
	c-0.601,1.805-2.156,2.912-4.104,3.512c-2.796,0.861-8.328-1.029-7.983-7.102c-3.477,3.691-7.549,6.557-13.157,6.627
	c-9.507,0.117-15.983-7.32-15.983-16.428c0-8.258,5.493-14.785,13.323-16.159c-0.347-0.834-0.917-1.582-1.708-2.079
	c-2.037-1.282-1.347-3.093,0.899-1.997c1.496,0.73,2.739,2.196,3.587,3.808c4.052-0.07,7.533,1.619,9.734,4.392
	c1.369-3.709,6.453-3.384,7.611-1.794c0.483,0.661,0.368,1.032,0.236,1.28c-0.218,0.41-0.869,0.379-1.676-0.07
	c-0.852-0.477-2.274-0.332-3.203,0.408c-0.861,0.686-1.348,1.873-1.198,3.336c0.561,1.531,0.819,3.23,0.708,5.043
	c-0.255,4.211-4.142,7.865-8.41,7.496c-4.922-0.426-7.476-4.521-5.469-9.264C165.411,290.525,168.08,291.15,167.141,293.363
	L167.141,293.363z"/>
<polygon fill-rule="evenodd" clip-rule="evenodd" points="166.929,188.446 298.622,188.446 298.877,189.745 294.446,196.277 
	296.778,200.323 296.776,202.464 296.457,203.241 168.956,203.243 168.647,202.415 168.647,200.335 170.987,196.203 
	166.468,189.765 166.929,188.446 "/>
<polygon fill-rule="evenodd" clip-rule="evenodd" fill="#E0B13C" points="168.139,189.795 172.581,196.125 169.997,200.69 
	169.997,201.893 295.428,201.892 295.429,200.684 292.855,196.219 297.212,189.795 168.139,189.795 "/>
<polygon fill-rule="evenodd" clip-rule="evenodd" points="299.003,205.409 165.717,205.409 165.717,210.918 299.003,210.918 
	299.003,205.409 "/>
<polygon fill-rule="evenodd" clip-rule="evenodd" fill="#E0B13C" points="297.653,206.759 167.067,206.759 167.067,209.568 
	297.653,209.568 297.653,206.759 "/>
<polygon fill-rule="evenodd" clip-rule="evenodd" fill="#DC442B" points="172.011,109.747 157.569,149.606 173.166,181.378 
	295.054,181.378 310.073,151.339 302.563,121.878 291.588,110.902 259.816,95.306 233.243,102.815 217.069,97.039 195.118,101.082 
	172.011,109.747 "/>
<path fill-rule="evenodd" clip-rule="evenodd" d="M301.894,184.386h-2.315H171.069h-5.042h-0.747l1.598-2.465l0.451-1.305
	l-8.509-7.539l1.136-7.104l-3.893-4.625l-0.833-2.114c-4.466,0-7.514-5.074-7.113-9.021c0.411-4.043,3.681-7.224,7.853-7.397
	c1.698-10.609,5.951-22.14,11.275-29.488l0.099-0.102c-1.093-1.185-1.759-2.771-1.759-4.511c0-3.672,2.98-6.652,6.653-6.652
	c2.104,0,3.978,0.979,5.196,2.505c4.137-2.897,8.531-5.277,13.19-7.234c0.115-3.571,3.05-6.435,6.65-6.435
	c2.092,0,3.956,0.969,5.176,2.478c1.505-0.392,3.032-0.748,4.583-1.079c0.443-3.245,3.228-5.75,6.594-5.75
	c2.62,0,4.885,1.519,5.97,3.72c0.702-0.081,5.816-0.398,8.271-0.702c0,3.362,2.727,6.088,6.088,6.088c3.363,0,6.09-2.726,6.09-6.088
	c3.184,0.059,3.945,0.394,8.277,0.702c1.086-2.201,3.351-3.72,5.97-3.72c3.366,0,6.152,2.505,6.595,5.75
	c1.551,0.331,3.077,0.687,4.582,1.079c1.221-1.509,3.084-2.478,5.176-2.478c3.601,0,6.536,2.864,6.65,6.435
	c4.659,1.957,9.054,4.337,13.19,7.234c1.219-1.525,3.092-2.505,5.196-2.505c3.673,0,6.652,2.98,6.652,6.652
	c0,1.74-0.665,3.326-1.758,4.511l0.098,0.102c5.325,7.348,9.578,18.879,11.275,29.488c4.186,0.174,7.707,3.274,7.87,7.681
	c0.161,4.323-2.849,8.124-7.129,8.738l-0.834,2.114l-3.893,4.625l1.137,7.104l-8.51,7.539L301.894,184.386L301.894,184.386z
	 M295.237,119.867c4.635,8.113,8.152,17.346,10.418,26.242c-2.027,2.706-3.476,5.8-4.342,9.281c-3.86-1.16-8.469,0.11-10.563,5.509
	c-1.609,4.144,0.146,9.036,4.632,11.454c-2.365,4.688-6.439,6.716-10.276,6.088c-4.242-0.694-8.198-2.804-8.537-8.699l4.631,2.174
	l7.38-4.929l-4.341-7.83l-6.369,1.595l1.739-5.944l-6.368-7.395l-8.248,6.67l1.013,5.651l-4.343-2.316l-7.959,7.394l7.09,7.104
	l5.789-2.176c-0.289,5.993-4.443,7.466-7.38,7.25c-2.663-0.196-4.533-1.595-6.657-4.205c-1.688,2.175-4.226,4.125-7.668,4.349
	c-4.295,0.281-5.887-3.866-6.804-7.248l6.801,2.319l6.657-6.523l-6.656-7.395l-6.367,2.174l2.894-7.25l-7.278-7.291l-0.177-0.073
	l-0.119,0.048l-7.312,7.325l2.894,7.25l-6.368-2.174l-6.656,7.395l6.658,6.523l6.801-2.318c-0.917,3.382-2.509,7.528-6.804,7.248
	c-3.443-0.224-5.98-2.174-7.668-4.349c-2.124,2.609-4.137,4.006-6.803,4.204c-2.939,0.219-6.802-1.256-7.091-7.249l5.646,2.174
	l7.09-7.104l-7.67-7.394l-4.486,2.173l0.869-5.363l-8.249-6.67l-6.368,7.25l1.74,5.944l-6.37-1.886l-4.341,8.12l7.381,4.929
	l4.629-2.173c-0.194,5.46-4.296,8.003-8.537,8.697c-3.837,0.626-7.912-1.401-10.276-6.088c4.485-2.417,6.241-7.31,4.632-11.454
	c-2.095-5.398-6.704-6.669-10.564-5.509c-0.867-3.481-2.314-6.574-4.342-9.28c2.266-8.896,5.783-18.129,10.418-26.242
	c6.1,9.349,8.897,21.868,11.722,35.232l8.684-9.859l8.538,2.899c-3.28-14.305-4.101-28.03-4.052-41.755
	c3.543-3.669,9.911-5.026,15.918-5.075c6.172,10.632,10.081,28.175,12.736,45.961l7.457-3.597l0.193-0.183l0.092,0.044l0.073-0.035
	l0.254,0.192l7.396,3.568c2.654-17.786,6.563-35.329,12.735-45.96c6.008,0.048,12.375,1.405,15.918,5.075
	c0.049,13.725-0.771,27.45-4.052,41.755l8.538-2.899l8.685,9.859C286.34,141.735,289.138,129.216,295.237,119.867L295.237,119.867z"
	/>
<path fill-rule="evenodd" clip-rule="evenodd" fill="#E0B13C" d="M157.237,160.648l4.149,4.929l-1.118,6.982l8.63,7.646
	l-0.799,2.313l-0.336,0.518h132.236l-0.978-2.832l8.63-7.646l-1.117-6.982l4.148-4.929l1.041-2.637l0.776-0.112
	c3.614-0.518,6.105-3.747,5.972-7.352c-0.135-3.627-3.016-6.234-6.578-6.383l-1.101-0.046l-0.175-1.089
	c-1.513-9.445-5.342-21.009-10.979-28.831l-0.922-0.947l0.868-0.939c0.906-0.982,1.4-2.259,1.4-3.596
	c0-2.927-2.375-5.303-5.303-5.303c-1.621,0-3.133,0.734-4.143,1.998l-0.79,0.991l-1.038-0.728c-4.05-2.836-8.383-5.182-12.938-7.096
	l-0.799-0.336l-0.027-0.865c-0.092-2.856-2.442-5.129-5.302-5.129c-1.611,0-3.114,0.727-4.125,1.978l-0.549,0.676l-0.842-0.219
	c-1.5-0.39-3.009-0.742-4.524-1.065l-0.927-0.198l-0.128-0.939c-0.358-2.62-2.611-4.582-5.258-4.582
	c-2.024,0-3.864,1.153-4.759,2.967l-0.421,0.854c-2.609-0.305-5.226-0.563-7.845-0.776c-0.646,3.45-3.675,6.062-7.313,6.062
	c-3.632,0-6.657-2.609-7.309-6.06c-2.618,0.204-5.232,0.47-7.84,0.774l-0.421-0.854c-0.895-1.814-2.735-2.967-4.759-2.967
	c-2.646,0-4.899,1.962-5.257,4.582l-0.128,0.939l-0.927,0.198c-1.516,0.323-3.024,0.675-4.524,1.065l-0.842,0.219l-0.548-0.676
	c-1.011-1.251-2.515-1.978-4.126-1.978c-2.858,0-5.21,2.273-5.302,5.129l-0.027,0.865l-0.799,0.336
	c-4.555,1.914-8.889,4.26-12.938,7.096l-1.038,0.728l-0.791-0.991c-1.009-1.263-2.521-1.998-4.142-1.998
	c-2.928,0-5.303,2.375-5.303,5.303c0,1.336,0.494,2.613,1.401,3.596l0.868,0.939l-0.922,0.947
	c-5.638,7.821-9.467,19.386-10.979,28.831l-0.174,1.089l-1.102,0.046c-3.448,0.145-6.218,2.756-6.566,6.186
	c-0.33,3.235,2.198,7.536,5.77,7.536h0.919L157.237,160.648L157.237,160.648z M185.167,152.199l7.501-8.516l7.124,2.418
	c-2.776-13.131-3.616-26.278-3.568-39.713l0.001-0.542l0.377-0.391c4.092-4.238,11.204-5.44,16.878-5.486l0.784-0.007l0.394,0.679
	c6.934,11.945,10.48,30.598,12.629,44.629l5.622-2.712l0.719-0.679l0.343,0.166l0.227-0.109l0.805,0.607l5.628,2.716
	c2.148-14.03,5.695-32.684,12.629-44.627l0.394-0.679l0.784,0.007c5.675,0.046,12.786,1.249,16.878,5.486l0.378,0.392l0.001,0.541
	c0.048,13.435-0.792,26.583-3.568,39.713l7.124-2.418l7.501,8.517c2.359-11.12,5.226-23.662,11.355-33.06l1.208-1.85l1.095,1.918
	c4.694,8.215,8.221,17.416,10.555,26.578l0.159,0.626l-0.388,0.517c-1.975,2.636-3.317,5.604-4.112,8.797l-0.342,1.373l-1.356-0.407
	c-4.049-1.216-7.411,0.825-8.917,4.706c-1.493,3.847,0.491,7.878,4.014,9.777l1.157,0.622l-0.592,1.173
	c-2.24,4.441-6.561,7.654-11.699,6.813c-5.586-0.914-9.323-3.975-9.666-9.954l-0.131-2.262l5.992,2.814l5.713-3.816l-3.234-5.836
	l-7.649,1.916l2.195-7.5l-5.036-5.848l-6.609,5.346l1.362,7.603l-5.948-3.172l-6.229,5.786l5.486,5.497l6.896-2.591l-0.099,2.05
	c-0.247,5.114-3.51,8.923-8.827,8.532c-2.808-0.207-4.795-1.585-6.561-3.489c-2.02,2.079-4.585,3.44-7.579,3.635
	c-5.041,0.33-7.08-4.137-8.193-8.241l-0.666-2.451l8.417,2.871l5.14-5.036l-5.194-5.771l-8.302,2.834l3.652-9.151l-5.853-5.866
	l-5.864,5.875l3.652,9.151l-8.302-2.834l-5.195,5.771l5.14,5.036l8.418-2.871l-0.666,2.451c-1.113,4.104-3.153,8.57-8.194,8.241
	c-2.997-0.196-5.565-1.558-7.584-3.64c-1.812,1.92-3.891,3.285-6.7,3.495c-5.325,0.396-8.298-3.508-8.54-8.53l-0.1-2.069
	l6.759,2.604l5.499-5.509l-6.003-5.788l-5.975,2.894l1.159-7.152l-6.632-5.364l-5.023,5.72l2.227,7.607l-7.689-2.276l-3.246,6.071
	l5.731,3.826l5.941-2.789l-0.08,2.209c-0.204,5.749-4.314,9.105-9.667,9.981c-5.138,0.838-9.458-2.373-11.699-6.813l-0.591-1.173
	l1.157-0.622c3.522-1.899,5.506-5.931,4.014-9.777c-1.506-3.88-4.868-5.921-8.917-4.705l-1.357,0.406l-0.341-1.373
	c-0.795-3.193-2.138-6.161-4.112-8.797l-0.388-0.517l0.159-0.626c2.334-9.162,5.86-18.362,10.555-26.578l1.095-1.918l1.208,1.851
	C179.941,128.538,182.807,141.079,185.167,152.199L185.167,152.199z"/>
<path fill-rule="evenodd" clip-rule="evenodd" d="M183.389,94.785c3.363,0,6.09,2.726,6.09,6.088c0,3.363-2.727,6.089-6.09,6.089
	c-3.362,0-6.088-2.726-6.088-6.089C177.3,97.511,180.026,94.785,183.389,94.785L183.389,94.785z"/>
<path fill-rule="evenodd" clip-rule="evenodd" fill="#FFFFFF" d="M183.39,96.134c2.619,0,4.74,2.122,4.74,4.739
	c0,2.618-2.122,4.74-4.74,4.74c-2.617,0-4.739-2.122-4.739-4.74C178.651,98.256,180.773,96.134,183.39,96.134L183.39,96.134z"/>
<path fill-rule="evenodd" clip-rule="evenodd" d="M185.904,108.414c2.675,0,4.843,2.168,4.843,4.842
	c0,2.675-2.168,4.843-4.843,4.843c-2.673,0-4.842-2.168-4.842-4.843C181.062,110.582,183.23,108.414,185.904,108.414
	L185.904,108.414z"/>
<path fill-rule="evenodd" clip-rule="evenodd" fill="#FFFFFF" d="M185.904,109.763c1.929,0,3.493,1.564,3.493,3.493
	s-1.564,3.493-3.493,3.493c-1.928,0-3.493-1.564-3.493-3.493S183.976,109.763,185.904,109.763L185.904,109.763z"/>
<path fill-rule="evenodd" clip-rule="evenodd" d="M187.641,119.578c2.195,0,3.974,1.779,3.974,3.973
	c0,2.195-1.779,3.974-3.974,3.974c-2.194,0-3.973-1.779-3.973-3.974C183.668,121.357,185.447,119.578,187.641,119.578
	L187.641,119.578z"/>
<path fill-rule="evenodd" clip-rule="evenodd" fill="#FFFFFF" d="M187.642,120.928c1.448,0,2.624,1.176,2.624,2.624
	s-1.175,2.624-2.624,2.624s-2.624-1.176-2.624-2.624S186.193,120.928,187.642,120.928L187.642,120.928z"/>
<path fill-rule="evenodd" clip-rule="evenodd" d="M190.969,137.265c1.958,0,3.545,1.587,3.545,3.545
	c0,1.958-1.587,3.546-3.545,3.546s-3.546-1.587-3.546-3.546C187.423,138.852,189.01,137.265,190.969,137.265L190.969,137.265z"/>
<path fill-rule="evenodd" clip-rule="evenodd" fill="#FFFFFF" d="M190.969,138.614c-1.213,0-2.196,0.982-2.196,2.196
	s0.983,2.196,2.196,2.196s2.196-0.982,2.196-2.196S192.182,138.614,190.969,138.614L190.969,138.614z"/>
<path fill-rule="evenodd" clip-rule="evenodd" d="M189.236,128.704c2.037,0,3.688,1.65,3.688,3.686c0,2.037-1.651,3.687-3.688,3.687
	c-2.036,0-3.686-1.65-3.686-3.687C185.55,130.354,187.2,128.704,189.236,128.704L189.236,128.704z"/>
<path fill-rule="evenodd" clip-rule="evenodd" fill="#FFFFFF" d="M189.237,130.053c1.292,0,2.338,1.046,2.338,2.336
	c0,1.292-1.046,2.337-2.338,2.337c-1.29,0-2.336-1.046-2.336-2.337C186.9,131.099,187.947,130.053,189.237,130.053L189.237,130.053z
	"/>
<path fill-rule="evenodd" clip-rule="evenodd" d="M284.389,94.785c-3.363,0-6.09,2.726-6.09,6.088c0,3.363,2.727,6.089,6.09,6.089
	c3.362,0,6.088-2.726,6.088-6.089C290.477,97.511,287.751,94.785,284.389,94.785L284.389,94.785z"/>
<path fill-rule="evenodd" clip-rule="evenodd" fill="#FFFFFF" d="M284.388,96.134c-2.619,0-4.74,2.122-4.74,4.739
	c0,2.618,2.121,4.74,4.74,4.74c2.616,0,4.738-2.122,4.738-4.74C289.126,98.256,287.004,96.134,284.388,96.134L284.388,96.134z"/>
<path fill-rule="evenodd" clip-rule="evenodd" d="M281.873,108.414c-2.675,0-4.843,2.168-4.843,4.842
	c0,2.675,2.168,4.843,4.843,4.843c2.674,0,4.843-2.168,4.843-4.843C286.716,110.582,284.547,108.414,281.873,108.414
	L281.873,108.414z"/>
<path fill-rule="evenodd" clip-rule="evenodd" fill="#FFFFFF" d="M281.873,109.763c-1.929,0-3.493,1.564-3.493,3.493
	s1.564,3.493,3.493,3.493s3.493-1.564,3.493-3.493S283.802,109.763,281.873,109.763L281.873,109.763z"/>
<path fill-rule="evenodd" clip-rule="evenodd" d="M280.136,119.578c-2.194,0-3.974,1.779-3.974,3.973
	c0,2.195,1.779,3.974,3.974,3.974s3.974-1.779,3.974-3.974C284.109,121.357,282.33,119.578,280.136,119.578L280.136,119.578z"/>
<path fill-rule="evenodd" clip-rule="evenodd" fill="#FFFFFF" d="M280.136,120.928c-1.448,0-2.624,1.176-2.624,2.624
	s1.176,2.624,2.624,2.624s2.624-1.176,2.624-2.624S281.584,120.928,280.136,120.928L280.136,120.928z"/>
<path fill-rule="evenodd" clip-rule="evenodd" d="M276.809,137.265c-1.958,0-3.545,1.587-3.545,3.545
	c0,1.958,1.587,3.546,3.545,3.546c1.959,0,3.546-1.587,3.546-3.546C280.354,138.852,278.768,137.265,276.809,137.265
	L276.809,137.265z"/>
<path fill-rule="evenodd" clip-rule="evenodd" fill="#FFFFFF" d="M276.809,138.614c1.214,0,2.196,0.982,2.196,2.196
	s-0.982,2.196-2.196,2.196c-1.213,0-2.196-0.982-2.196-2.196S275.596,138.614,276.809,138.614L276.809,138.614z"/>
<path fill-rule="evenodd" clip-rule="evenodd" d="M278.541,128.704c-2.036,0-3.687,1.65-3.687,3.686c0,2.037,1.65,3.687,3.687,3.687
	s3.687-1.65,3.687-3.687C282.228,130.354,280.577,128.704,278.541,128.704L278.541,128.704z"/>
<path fill-rule="evenodd" clip-rule="evenodd" fill="#FFFFFF" d="M278.54,130.053c-1.291,0-2.337,1.046-2.337,2.336
	c0,1.292,1.046,2.337,2.337,2.337c1.29,0,2.337-1.046,2.337-2.337C280.877,131.099,279.83,130.053,278.54,130.053L278.54,130.053z"
	/>
<path fill-rule="evenodd" clip-rule="evenodd" d="M233.95,100.148c2.564,0,4.644,2.08,4.644,4.643c0,2.564-2.08,4.645-4.644,4.645
	c-2.563,0-4.644-2.08-4.644-4.645C229.306,102.228,231.386,100.148,233.95,100.148L233.95,100.148z"/>
<path fill-rule="evenodd" clip-rule="evenodd" fill="#FFFFFF" d="M233.951,101.498c1.819,0,3.294,1.475,3.294,3.293
	c0,1.819-1.475,3.295-3.294,3.295c-1.818,0-3.293-1.476-3.293-3.295C230.658,102.973,232.133,101.498,233.951,101.498
	L233.951,101.498z"/>
<path fill-rule="evenodd" clip-rule="evenodd" d="M233.95,111.602c2.197,0,3.98,1.782,3.98,3.979c0,2.198-1.783,3.98-3.98,3.98
	c-2.197,0-3.979-1.782-3.979-3.98C229.971,113.384,231.753,111.602,233.95,111.602L233.95,111.602z"/>
<path fill-rule="evenodd" clip-rule="evenodd" fill="#FFFFFF" d="M233.951,112.951c1.453,0,2.63,1.178,2.63,2.629
	c0,1.452-1.178,2.63-2.63,2.63c-1.451,0-2.629-1.178-2.629-2.63C231.321,114.129,232.5,112.951,233.951,112.951L233.951,112.951z"/>
<path fill-rule="evenodd" clip-rule="evenodd" d="M233.95,122.188c2.042,0,3.697,1.655,3.697,3.696c0,2.042-1.656,3.698-3.697,3.698
	c-2.041,0-3.696-1.656-3.696-3.698C230.254,123.843,231.91,122.188,233.95,122.188L233.95,122.188z"/>
<path fill-rule="evenodd" clip-rule="evenodd" fill="#FFFFFF" d="M233.951,123.537c1.296,0,2.347,1.051,2.347,2.347
	c0,1.296-1.051,2.347-2.347,2.347s-2.347-1.051-2.347-2.347C231.604,124.588,232.655,123.537,233.951,123.537L233.951,123.537z"/>
<path fill-rule="evenodd" clip-rule="evenodd" d="M233.95,131.901c1.921,0,3.479,1.559,3.479,3.479c0,1.921-1.558,3.48-3.479,3.48
	c-1.92,0-3.479-1.559-3.479-3.48C230.471,133.459,232.03,131.901,233.95,131.901L233.95,131.901z"/>
<path fill-rule="evenodd" clip-rule="evenodd" fill="#FFFFFF" d="M233.951,133.25c1.176,0,2.13,0.954,2.13,2.13
	c0,1.175-0.954,2.13-2.13,2.13s-2.13-0.955-2.13-2.13C231.821,134.205,232.775,133.25,233.951,133.25L233.951,133.25z"/>
<path fill-rule="evenodd" clip-rule="evenodd" d="M181.9,190.56c2.854,0,5.169,2.314,5.169,5.167c0,2.854-2.314,5.169-5.169,5.169
	c-2.853,0-5.167-2.314-5.167-5.169C176.733,192.874,179.048,190.56,181.9,190.56L181.9,190.56z"/>
<path fill-rule="evenodd" clip-rule="evenodd" fill="#DC442B" d="M181.901,191.909c2.108,0,3.818,1.71,3.818,3.818
	s-1.71,3.818-3.818,3.818c-2.108,0-3.818-1.71-3.818-3.818S179.793,191.909,181.901,191.909L181.901,191.909z"/>
<path fill-rule="evenodd" clip-rule="evenodd" d="M216.624,190.56c2.854,0,5.169,2.314,5.169,5.167c0,2.854-2.314,5.169-5.169,5.169
	c-2.853,0-5.167-2.314-5.167-5.169C211.457,192.874,213.771,190.56,216.624,190.56L216.624,190.56z"/>
<path fill-rule="evenodd" clip-rule="evenodd" fill="#DC442B" d="M216.625,191.909c2.109,0,3.818,1.71,3.818,3.818
	s-1.709,3.818-3.818,3.818c-2.108,0-3.818-1.71-3.818-3.818S214.517,191.909,216.625,191.909L216.625,191.909z"/>
<polygon fill-rule="evenodd" clip-rule="evenodd" points="163.848,190.693 168.267,196.292 163.737,203.372 157.564,196.786 
	163.848,190.693 "/>
<polygon fill-rule="evenodd" clip-rule="evenodd" fill="#DC442B" points="163.714,192.703 159.456,196.832 163.535,201.183 
	166.612,196.374 163.714,192.703 "/>
<polygon fill-rule="evenodd" clip-rule="evenodd" points="153.941,162.372 157.399,165.665 156.411,170.275 145.873,168.958 
	153.941,162.372 "/>
<polygon fill-rule="evenodd" clip-rule="evenodd" fill="#DC442B" points="153.873,164.169 149.169,168.009 155.351,168.782 
	155.921,166.121 153.873,164.169 "/>
<path fill-rule="evenodd" clip-rule="evenodd" d="M193.625,192.505h10.209c1.903,0,3.458,1.555,3.458,3.458l0,0
	c0,1.903-1.555,3.458-3.458,3.458h-10.209c-1.903,0-3.458-1.555-3.458-3.458l0,0C190.167,194.06,191.722,192.505,193.625,192.505
	L193.625,192.505z"/>
<path fill-rule="evenodd" clip-rule="evenodd" fill="#708E4C" d="M193.625,193.854c-1.158,0-2.108,0.95-2.108,2.108
	s0.95,2.108,2.108,2.108h10.209c1.158,0,2.108-0.95,2.108-2.108s-0.95-2.108-2.108-2.108H193.625L193.625,193.854z"/>
<polygon fill-rule="evenodd" clip-rule="evenodd" points="233.983,190.556 242.416,195.761 233.983,200.967 225.55,195.761 
	233.983,190.556 "/>
<polygon fill-rule="evenodd" clip-rule="evenodd" fill="#DC442B" points="233.983,192.142 228.12,195.761 233.983,199.381 
	239.846,195.761 233.983,192.142 "/>
<path fill-rule="evenodd" clip-rule="evenodd" d="M196.323,160.082c2.699,0,4.887,2.188,4.887,4.887
	c0,2.699-2.188,4.887-4.887,4.887s-4.887-2.188-4.887-4.887C191.436,162.271,193.624,160.082,196.323,160.082L196.323,160.082z"/>
<path fill-rule="evenodd" clip-rule="evenodd" fill="#DC442B" d="M196.323,161.432c1.953,0,3.538,1.584,3.538,3.537
	c0,1.953-1.584,3.538-3.538,3.538c-1.953,0-3.538-1.584-3.538-3.538C192.785,163.017,194.37,161.432,196.323,161.432
	L196.323,161.432z"/>
<path fill-rule="evenodd" clip-rule="evenodd" d="M286.094,190.56c-2.854,0-5.169,2.314-5.169,5.167
	c0,2.854,2.314,5.169,5.169,5.169c2.853,0,5.167-2.314,5.167-5.169C291.261,192.874,288.946,190.56,286.094,190.56L286.094,190.56z"
	/>
<path fill-rule="evenodd" clip-rule="evenodd" fill="#DC442B" d="M286.093,191.909c-2.107,0-3.818,1.71-3.818,3.818
	s1.711,3.818,3.818,3.818c2.108,0,3.818-1.71,3.818-3.818S288.201,191.909,286.093,191.909L286.093,191.909z"/>
<path fill-rule="evenodd" clip-rule="evenodd" d="M251.371,190.56c-2.854,0-5.169,2.314-5.169,5.167
	c0,2.854,2.314,5.169,5.169,5.169c2.853,0,5.167-2.314,5.167-5.169C256.538,192.874,254.224,190.56,251.371,190.56L251.371,190.56z"
	/>
<path fill-rule="evenodd" clip-rule="evenodd" fill="#DC442B" d="M251.37,191.909c-2.108,0-3.818,1.71-3.818,3.818
	s1.71,3.818,3.818,3.818c2.107,0,3.818-1.71,3.818-3.818S253.478,191.909,251.37,191.909L251.37,191.909z"/>
<polygon fill-rule="evenodd" clip-rule="evenodd" points="302.224,190.309 297.805,195.907 302.334,202.987 308.508,196.401 
	302.224,190.309 "/>
<polygon fill-rule="evenodd" clip-rule="evenodd" fill="#DC442B" points="302.356,192.318 306.615,196.447 302.536,200.798 
	299.459,195.989 302.356,192.318 "/>
<polygon fill-rule="evenodd" clip-rule="evenodd" points="314.053,162.372 310.596,165.665 311.583,170.275 322.122,168.958 
	314.053,162.372 "/>
<polygon fill-rule="evenodd" clip-rule="evenodd" fill="#DC442B" points="314.122,164.169 318.826,168.009 312.645,168.782 
	312.073,166.121 314.122,164.169 "/>
<path fill-rule="evenodd" clip-rule="evenodd" d="M274.37,192.505h-10.209c-1.903,0-3.458,1.555-3.458,3.458l0,0
	c0,1.903,1.555,3.458,3.458,3.458h10.209c1.902,0,3.458-1.555,3.458-3.458l0,0C277.828,194.06,276.272,192.505,274.37,192.505
	L274.37,192.505z"/>
<path fill-rule="evenodd" clip-rule="evenodd" fill="#708E4C" d="M274.37,193.854c1.157,0,2.107,0.95,2.107,2.108
	s-0.95,2.108-2.107,2.108h-10.209c-1.158,0-2.108-0.95-2.108-2.108s0.95-2.108,2.108-2.108H274.37L274.37,193.854z"/>
<path fill-rule="evenodd" clip-rule="evenodd" d="M233.916,160.082c-2.699,0-4.888,2.188-4.888,4.887
	c0,2.699,2.188,4.887,4.888,4.887s4.887-2.188,4.887-4.887C238.803,162.271,236.615,160.082,233.916,160.082L233.916,160.082z"/>
<path fill-rule="evenodd" clip-rule="evenodd" fill="#DC442B" d="M233.916,161.432c-1.953,0-3.538,1.584-3.538,3.537
	c0,1.953,1.585,3.538,3.538,3.538c1.953,0,3.537-1.584,3.537-3.538C237.453,163.017,235.869,161.432,233.916,161.432
	L233.916,161.432z"/>
<path fill-rule="evenodd" clip-rule="evenodd" d="M271.672,160.082c-2.699,0-4.888,2.188-4.888,4.887
	c0,2.699,2.188,4.887,4.888,4.887s4.887-2.188,4.887-4.887C276.559,162.271,274.371,160.082,271.672,160.082L271.672,160.082z"/>
<path fill-rule="evenodd" clip-rule="evenodd" fill="#DC442B" d="M271.672,161.432c-1.953,0-3.538,1.584-3.538,3.537
	c0,1.953,1.585,3.538,3.538,3.538s3.537-1.584,3.537-3.538C275.209,163.017,273.625,161.432,271.672,161.432L271.672,161.432z"/>
<path fill-rule="evenodd" clip-rule="evenodd" d="M220.727,60.038c2.819,1.095,5.608,1.806,8.372,2.179
	c-0.155-2.766-0.783-5.541-1.856-8.312h13.608c-1.332,2.856-2.069,5.631-2.273,8.289c2.89-0.393,5.757-1.125,8.598-2.156v11.116
	c-2.759-1.119-5.521-1.891-8.279-2.311l0.024,3.842l-10.036-0.194l0.003-3.63c-2.721,0.422-5.439,1.189-8.16,2.293V60.038
	L220.727,60.038z"/>
<path fill-rule="evenodd" clip-rule="evenodd" fill="#E8BC50" d="M222.076,61.958v7.243c2.146-0.753,4.352-1.324,6.604-1.673
	l1.558-0.242l-0.003,3.882l7.328,0.142l-0.025-4.039l1.562,0.238c2.294,0.35,4.541,0.926,6.727,1.692v-7.279
	c-2.305,0.733-4.666,1.282-7.065,1.609l-1.656,0.225l0.128-1.666c0.182-2.351,0.741-4.643,1.581-6.836h-9.663
	c0.711,2.232,1.165,4.536,1.296,6.886l0.092,1.632l-1.62-0.219C226.587,63.24,224.302,62.7,222.076,61.958L222.076,61.958z"/>
<path fill-rule="evenodd" clip-rule="evenodd" d="M233.945,69.008c5.273,0,9.551,4.277,9.551,9.55c0,5.273-4.277,9.55-9.551,9.55
	c-5.273,0-9.55-4.277-9.55-9.55C224.395,73.285,228.672,69.008,233.945,69.008L233.945,69.008z"/>
<path fill-rule="evenodd" clip-rule="evenodd" fill="#D83C29" d="M241.614,81.456c-1.172,3.098-4.162,5.303-7.669,5.303
	c-3.506,0-6.498-2.206-7.669-5.303H241.614L241.614,81.456z"/>
<path fill-rule="evenodd" clip-rule="evenodd" fill="#EDD083" d="M241.998,77.01c0.096,0.501,0.148,1.021,0.148,1.548
	c0,0.53-0.053,1.046-0.15,1.548h-16.102c-0.097-0.502-0.15-1.018-0.15-1.548c0-0.528,0.053-1.047,0.148-1.548H241.998L241.998,77.01
	z"/>
<path fill-rule="evenodd" clip-rule="evenodd" fill="#D83C29" d="M233.945,70.358c3.509,0,6.502,2.203,7.672,5.303h-15.343
	C227.444,72.561,230.436,70.358,233.945,70.358L233.945,70.358z"/>
<path d="M113.867,447.064c-0.114-6.01-2.938-9.082-8.474-9.213H92.9v28.758h5.709v-10.951h6.557
	C110.579,455.658,113.867,452.361,113.867,447.064L113.867,447.064z M108.157,446.771c0,0.326-0.014,0.74-0.041,1.254
	c-0.059,0.48-0.22,0.975-0.474,1.482c-0.26,0.475-0.68,0.883-1.249,1.236c-0.565,0.354-1.397,0.816-2.483,0.816H98.61v-9.611h4.526
	C106.535,441.949,108.211,444.107,108.157,446.771L108.157,446.771z"/>
<polygon points="116.346,466.609 116.346,461.988 111.566,461.988 111.566,466.609 116.346,466.609 "/>
<polygon points="150.5,466.609 150.5,461.988 145.72,461.988 145.72,466.609 150.5,466.609 "/>
<polygon points="185.232,466.609 185.232,461.988 180.453,461.988 180.453,466.609 185.232,466.609 "/>
<polygon points="374.212,466.609 374.212,462.486 360.218,462.486 360.218,453.585 372.39,453.585 372.39,449.462 360.218,449.462 
	360.218,441.97 373.565,441.97 373.565,437.851 354.583,437.851 354.583,466.609 374.212,466.609 "/>
<polygon points="141.329,466.609 141.329,462.486 127.335,462.486 127.335,453.585 139.506,453.585 139.506,449.462 
	127.335,449.462 127.335,441.97 140.682,441.97 140.682,437.851 121.7,437.851 121.7,466.609 141.329,466.609 "/>
<polygon points="231.423,466.609 231.423,462.486 215.919,462.488 231.343,442.564 231.343,437.851 209.783,437.851 209.785,441.97 
	224.641,441.97 209.375,461.519 209.375,466.609 231.423,466.609 "/>
<path d="M278.252,437.851h-5.963l-5.729,22.873l-7.157-22.873h-6.242l-7.003,22.871c-1.314-7.07-3.693-15.871-5.338-22.871h-6.243
	l8.746,28.758h5.482l7.62-23.768l7.292,23.764h5.637L278.252,437.851L278.252,437.851z"/>
<path d="M306.269,452.226c0-8.33-4.62-15.137-13.886-15.137s-13.843,6.936-13.861,15.137s4.625,15.143,13.668,15.143
	S306.269,460.556,306.269,452.226L306.269,452.226z M300.62,452.226c0,5.371-1.745,10.926-8.237,10.926s-8.31-5.473-8.213-10.926
	s1.972-10.92,8.213-10.92S300.62,446.855,300.62,452.226L300.62,452.226z"/>
<path d="M178.545,447.101c-1.472-6.021-5.917-10.396-13.342-10.396c-9.266,0-13.841,6.936-13.861,15.137
	c-0.02,8.201,4.625,15.143,13.668,15.143c7.17,0,11.826-4.289,13.443-10.217h-5.617c-0.953,3.379-3.176,6-7.633,6
	c-6.493,0-8.31-5.473-8.213-10.926s1.972-10.918,8.213-10.918c4.362,0,6.653,2.711,7.635,6.178H178.545L178.545,447.101z"/>
<polygon points="328.642,466.609 328.642,462.47 315.041,462.47 315.041,437.851 309.332,437.851 309.332,466.609 328.642,466.609 
	"/>
<polygon points="351.895,466.609 351.895,462.47 338.294,462.47 338.294,437.851 332.584,437.851 332.584,466.609 351.895,466.609 
	"/>
<polygon fill-rule="evenodd" clip-rule="evenodd" points="192.324,449.712 203.807,449.712 203.807,453.869 192.324,453.869 
	192.324,449.712 "/>
</svg>
