<?xml version="1.0" encoding="UTF-8" standalone="no"?>
<svg
   xmlns:dc="http://purl.org/dc/elements/1.1/"
   xmlns:cc="http://creativecommons.org/ns#"
   xmlns:rdf="http://www.w3.org/1999/02/22-rdf-syntax-ns#"
   xmlns:svg="http://www.w3.org/2000/svg"
   xmlns="http://www.w3.org/2000/svg"
   xmlns:sodipodi="http://sodipodi.sourceforge.net/DTD/sodipodi-0.dtd"
   xmlns:inkscape="http://www.inkscape.org/namespaces/inkscape"
   inkscape:version="1.0 (6e3e5246a0, 2020-05-07)"
   sodipodi:docname="De Volwijckers.svg"
   viewBox="0 0 487.06894 480.00003"
   height="480.00003"
   width="487.06894"
   id="svg867"
   version="1.1">
  <metadata
     id="metadata873">
    <rdf:RDF>
      <cc:Work
         rdf:about="">
        <dc:format>image/svg+xml</dc:format>
        <dc:type
           rdf:resource="http://purl.org/dc/dcmitype/StillImage" />
        <dc:title></dc:title>
      </cc:Work>
    </rdf:RDF>
  </metadata>
  <defs
     id="defs871" />
  <sodipodi:namedview
     fit-margin-bottom="0"
     fit-margin-right="0"
     fit-margin-left="0"
     fit-margin-top="0"
     inkscape:current-layer="g875"
     inkscape:window-maximized="1"
     inkscape:window-y="27"
     inkscape:window-x="0"
     inkscape:cy="276.52629"
     inkscape:cx="258.08854"
     inkscape:zoom="0.91642446"
     inkscape:guide-bbox="true"
     showguides="true"
     showgrid="false"
     id="namedview869"
     inkscape:window-height="704"
     inkscape:window-width="1366"
     inkscape:pageshadow="2"
     inkscape:pageopacity="0"
     guidetolerance="10"
     gridtolerance="10"
     objecttolerance="10"
     borderopacity="1"
     bordercolor="#666666"
     pagecolor="#ffffff" />
  <g
     transform="translate(-34.900626,253.7407)"
     id="g875"
     inkscape:label="Logo"
     inkscape:groupmode="layer">
    <path
       sodipodi:nodetypes="ccsccccccccccccscc"
       id="path881"
       d="m 46.629024,-240.06481 7.568274,37.84137 c 0,0 30.273091,-3.78415 37.841364,7.56827 7.568273,11.35241 196.775098,397.33433 196.775098,397.33433 l 162.71786,-374.62952 c 18.92068,-34.05723 26.48896,-34.05723 60.54619,-26.48895 v -37.84137 c -24.47557,-14.16391 -49.81464,-6.73273 -83.251,7.56828 -34.23674,-11.62817 -53.98351,-13.3214 -94.60341,-11.35241 v 41.6255 c 51.00913,-4.011 64.90365,-6.23418 49.19377,37.84136 l -83.251,192.990964 -94.60341,-219.479924 c -7.56827,-18.92068 12.56538,-20.05131 37.84137,-15.13653 v -34.05724 c 0,0 -15.13655,-7.56827 -41.62551,-7.56827 -26.48896,0 -34.05723,11.35241 -75.68273,11.35241 -38.687653,-3.12393 -30.273092,-15.13654 -79.466866,-7.56827 z"
       style="opacity:1;fill:none;stroke:#ffffff;stroke-width:19.7835;stroke-linecap:butt;stroke-linejoin:miter;stroke-miterlimit:4;stroke-dasharray:none;stroke-opacity:1" />
    <path
       style="opacity:1;fill:#00894d;fill-opacity:1;stroke:none;stroke-width:3.78413px;stroke-linecap:butt;stroke-linejoin:miter;stroke-opacity:1"
       d="m 46.629024,-240.06481 7.568274,37.84137 c 0,0 30.273091,-3.78415 37.841364,7.56827 7.568273,11.35241 196.775098,397.33433 196.775098,397.33433 l 162.71786,-374.62952 c 18.92068,-34.05723 26.48896,-34.05723 60.54619,-26.48895 v -37.84137 c -24.47557,-14.16391 -49.81464,-6.73273 -83.251,7.56828 -34.23674,-11.62817 -53.98351,-13.3214 -94.60341,-11.35241 v 41.6255 c 51.00913,-4.011 64.90365,-6.23418 49.19377,37.84136 l -83.251,192.990964 -94.60341,-219.479924 c -7.56827,-18.92068 12.56538,-20.05131 37.84137,-15.13653 v -34.05724 c 0,0 -15.13655,-7.56827 -41.62551,-7.56827 -26.48896,0 -34.05723,11.35241 -75.68273,11.35241 -38.687653,-3.12393 -30.273092,-15.13654 -79.466866,-7.56827 z"
       id="path897"
       sodipodi:nodetypes="ccsccccccccccccscc" />
    <path
       style="fill:none;fill-opacity:1;stroke:#00894d;stroke-width:19.7835;stroke-linecap:butt;stroke-linejoin:miter;stroke-miterlimit:4;stroke-dasharray:none;stroke-opacity:1"
       d="m 237.82324,-73.946277 10.39737,-34.019363 77.85857,0.3456 10.13164,33.673763 h 109.73996 l 15.13655,41.625486 h 30.27309 L 506.49697,5.5205748 H 67.537098 L 82.673643,-32.320791 h 30.273097 l 15.13654,-41.625486 z"
       id="path1567"
       sodipodi:nodetypes="ccccccccccccc" />
    <path
       sodipodi:nodetypes="ccccccccccccc"
       id="path1563"
       d="m 237.82324,-73.946277 10.39737,-34.019363 77.85857,0.3456 10.13164,33.673763 h 109.73996 l 15.13655,41.625486 h 30.27309 L 506.49697,5.5205748 H 67.537098 L 82.673643,-32.320791 h 30.273097 l 15.13654,-41.625486 z"
       style="fill:#ffffff;fill-opacity:1;stroke:none;stroke-width:3.02731;stroke-linecap:butt;stroke-linejoin:miter;stroke-miterlimit:4;stroke-dasharray:none;stroke-opacity:1" />
    <g
       style="font-size:11.1413px;line-height:1.05;font-family:monospace;-inkscape-font-specification:monospace;fill:#1a1a1a;stroke:#1a1a1a;stroke-width:0.179;stroke-miterlimit:4;stroke-dasharray:none;stroke-opacity:1"
       id="text889"
       transform="matrix(3.6273562,0,0,3.8342834,-86.149514,-423.04245)">
      <path
         id="path1532"
         style="font-style:normal;font-variant:normal;font-weight:bold;font-stretch:normal;font-family:'Liberation Sans';-inkscape-font-specification:'Liberation Sans Bold';text-align:center;text-anchor:middle;fill:#1a1a1a;stroke:#1a1a1a;stroke-width:0.179;stroke-miterlimit:4;stroke-dasharray:none;stroke-opacity:1"
         d="m 102.40536,90.795464 q 0,1.18594 -0.46785,2.072674 -0.4624,0.881294 -1.3165,1.349142 -0.84865,0.467847 -1.94755,0.467847 h -3.10085 v -7.665084 h 2.774445 q 1.936675,0 2.997485,0.979216 1.06082,0.973776 1.06082,2.796205 z m -1.61571,0 q 0,-1.2349 -0.64193,-1.88227 -0.641926,-0.652811 -1.833306,-0.652811 h -1.136978 v 5.184404 h 1.360022 q 1.033612,0 1.642902,-0.712651 0.60929,-0.712652 0.60929,-1.936672 z" />
      <path
         id="path1534"
         style="font-style:normal;font-variant:normal;font-weight:bold;font-stretch:normal;font-family:'Liberation Sans';-inkscape-font-specification:'Liberation Sans Bold';text-align:center;text-anchor:middle;fill:#1a1a1a;stroke:#1a1a1a;stroke-width:0.179;stroke-miterlimit:4;stroke-dasharray:none;stroke-opacity:1"
         d="m 103.62394,94.685127 v -7.665084 h 6.02762 v 1.24034 h -4.42279 v 1.925791 h 4.09094 v 1.240341 h -4.09094 v 2.018272 h 4.64583 v 1.24034 z" />
      <path
         id="path1536"
         style="font-style:normal;font-variant:normal;font-weight:bold;font-stretch:normal;font-family:'Liberation Sans';-inkscape-font-specification:'Liberation Sans Bold';text-align:center;text-anchor:middle;fill:#1a1a1a;stroke:#1a1a1a;stroke-width:0.179;stroke-miterlimit:4;stroke-dasharray:none;stroke-opacity:1"
         d="m 62.956045,106.99566 h -1.626586 l -2.834286,-7.665089 h 1.675547 l 1.577626,4.923279 q 0.146882,0.47873 0.402566,1.44707 l 0.114242,-0.46785 0.277445,-0.97922 1.572185,-4.923279 h 1.659227 z" />
      <path
         id="path1538"
         style="font-style:normal;font-variant:normal;font-weight:bold;font-stretch:normal;font-family:'Liberation Sans';-inkscape-font-specification:'Liberation Sans Bold';text-align:center;text-anchor:middle;fill:#1a1a1a;stroke:#1a1a1a;stroke-width:0.179;stroke-miterlimit:4;stroke-dasharray:none;stroke-opacity:1"
         d="m 74.059265,103.12776 q 0,1.19681 -0.473288,2.10531 -0.473287,0.90849 -1.354582,1.39266 -0.881294,0.47873 -2.056353,0.47873 -1.806109,0 -2.834286,-1.06082 -1.022736,-1.06625 -1.022736,-2.91588 0,-1.84419 1.022736,-2.87781 1.022737,-1.033621 2.845166,-1.033621 1.82243,0 2.845166,1.044501 1.028177,1.0445 1.028177,2.86693 z m -1.637466,0 q 0,-1.24034 -0.58753,-1.94212 -0.587529,-0.70721 -1.648347,-0.70721 -1.077137,0 -1.664667,0.70177 -0.587529,0.69634 -0.587529,1.94756 0,1.2621 0.59841,1.99107 0.603849,0.72353 1.642906,0.72353 1.077138,0 1.659227,-0.70721 0.58753,-0.70721 0.58753,-2.00739 z" />
      <path
         id="path1540"
         style="font-style:normal;font-variant:normal;font-weight:bold;font-stretch:normal;font-family:'Liberation Sans';-inkscape-font-specification:'Liberation Sans Bold';text-align:center;text-anchor:middle;fill:#1a1a1a;stroke:#1a1a1a;stroke-width:0.179;stroke-miterlimit:4;stroke-dasharray:none;stroke-opacity:1"
         d="m 75.266965,106.99566 v -7.665089 h 1.604826 v 6.424749 h 4.112707 v 1.24034 z" />
      <path
         id="path1542"
         style="font-style:normal;font-variant:normal;font-weight:bold;font-stretch:normal;font-family:'Liberation Sans';-inkscape-font-specification:'Liberation Sans Bold';text-align:center;text-anchor:middle;fill:#1a1a1a;stroke:#1a1a1a;stroke-width:0.179;stroke-miterlimit:4;stroke-dasharray:none;stroke-opacity:1"
         d="m 82.077955,106.99566 v -7.665089 h 6.027617 v 1.240339 h -4.422791 v 1.9258 h 4.090946 v 1.24034 h -4.090946 v 2.01827 h 4.645835 v 1.24034 z" />
      <path
         id="path1544"
         style="font-style:normal;font-variant:normal;font-weight:bold;font-stretch:normal;font-family:'Liberation Sans';-inkscape-font-specification:'Liberation Sans Bold';text-align:center;text-anchor:middle;fill:#1a1a1a;stroke:#1a1a1a;stroke-width:0.179;stroke-miterlimit:4;stroke-dasharray:none;stroke-opacity:1"
         d="m 97.29932,106.99566 h -1.904031 l -1.039057,-4.43367 q -0.190403,-0.78338 -0.320965,-1.63747 -0.130562,0.71265 -0.212163,1.08802 -0.0816,0.36992 -1.158739,4.98312 h -1.904031 l -1.974752,-7.665089 h 1.626586 l 1.109778,4.950479 0.250244,1.19682 q 0.152323,-0.75617 0.293765,-1.44162 0.146883,-0.69089 1.088018,-4.705679 h 1.795229 l 0.968336,4.080069 q 0.114241,0.45697 0.386246,2.06723 l 0.136002,-0.63105 0.288325,-1.25122 0.924815,-4.265029 h 1.626586 z" />
      <path
         id="path1546"
         style="font-style:normal;font-variant:normal;font-weight:bold;font-stretch:normal;font-family:'Liberation Sans';-inkscape-font-specification:'Liberation Sans Bold';text-align:center;text-anchor:middle;fill:#1a1a1a;stroke:#1a1a1a;stroke-width:0.179;stroke-miterlimit:4;stroke-dasharray:none;stroke-opacity:1"
         d="m 100.03024,106.99566 v -7.665089 h 1.60483 v 7.665089 z" />
      <path
         sodipodi:nodetypes="sccccscscccssss"
         id="path1548"
         style="font-style:normal;font-variant:normal;font-weight:bold;font-stretch:normal;font-family:'Liberation Sans';-inkscape-font-specification:'Liberation Sans Bold';text-align:center;text-anchor:middle;fill:#1a1a1a;stroke:#1a1a1a;stroke-width:0.179;stroke-miterlimit:4;stroke-dasharray:none;stroke-opacity:1"
         d="m 105.22553,107.10446 c -0.79425,0 -1.40536,-0.17227 -1.83331,-0.51681 -0.42433,-0.34454 -0.70721,-0.90124 -0.84866,-1.67011 l 1.59395,-0.23392 c 0.0653,0.39531 0.18676,0.68908 0.36449,0.88129 0.17771,0.18859 0.42251,0.28289 0.73441,0.28289 0.31915,0 0.56033,-0.10699 0.72353,-0.32097 0.16683,-0.21397 0.25024,-0.52043 0.25024,-0.91937 v -4.02023 l -0.002,-1.256659 h 1.60124 v 5.238809 c 0,0.79788 -0.22667,1.41986 -0.68001,1.86595 -0.45334,0.44609 -1.08802,0.66913 -1.90403,0.66913 z" />
      <path
         id="path1550"
         style="font-style:normal;font-variant:normal;font-weight:bold;font-stretch:normal;font-family:'Liberation Sans';-inkscape-font-specification:'Liberation Sans Bold';text-align:center;text-anchor:middle;fill:#1a1a1a;stroke:#1a1a1a;stroke-width:0.179;stroke-miterlimit:4;stroke-dasharray:none;stroke-opacity:1"
         d="m 112.90149,105.84236 q 1.45251,0 2.01828,-1.45794 l 1.3981,0.52768 q -0.45153,1.10978 -1.32738,1.65379 -0.87042,0.53857 -2.089,0.53857 -1.84963,0 -2.86148,-1.0445 -1.00642,-1.04993 -1.00642,-2.9322 0,-1.88772 0.97378,-2.89958 0.97377,-1.011851 2.8234,-1.011851 1.34914,0 2.1978,0.544009 0.84865,0.538572 1.19138,1.588512 l -1.41443,0.38624 q -0.17952,-0.57665 -0.70721,-0.91393 -0.52225,-0.34273 -1.2349,-0.34273 -1.08801,0 -1.65378,0.67457 -0.56033,0.67457 -0.56033,1.97476 0,1.32194 0.57665,2.01827 0.58209,0.69633 1.67554,0.69633 z" />
      <path
         id="path1552"
         style="font-style:normal;font-variant:normal;font-weight:bold;font-stretch:normal;font-family:'Liberation Sans';-inkscape-font-specification:'Liberation Sans Bold';text-align:center;text-anchor:middle;fill:#1a1a1a;stroke:#1a1a1a;stroke-width:0.179;stroke-miterlimit:4;stroke-dasharray:none;stroke-opacity:1"
         d="m 122.67733,106.99566 -2.75268,-3.51974 -0.94658,0.72353 v 2.79621 h -1.60482 v -7.665089 h 1.60482 v 3.476219 l 3.45446,-3.476219 h 1.87139 l -3.27493,3.242299 3.54149,4.42279 z" />
      <path
         id="path1554"
         style="font-style:normal;font-variant:normal;font-weight:bold;font-stretch:normal;font-family:'Liberation Sans';-inkscape-font-specification:'Liberation Sans Bold';text-align:center;text-anchor:middle;fill:#1a1a1a;stroke:#1a1a1a;stroke-width:0.179;stroke-miterlimit:4;stroke-dasharray:none;stroke-opacity:1"
         d="m 125.42457,106.99566 v -7.665089 h 6.02762 v 1.240339 h -4.42279 v 1.9258 h 4.09095 v 1.24034 h -4.09095 v 2.01827 h 4.64583 v 1.24034 z" />
      <path
         id="path1556"
         style="font-style:normal;font-variant:normal;font-weight:bold;font-stretch:normal;font-family:'Liberation Sans';-inkscape-font-specification:'Liberation Sans Bold';text-align:center;text-anchor:middle;fill:#1a1a1a;stroke:#1a1a1a;stroke-width:0.179;stroke-miterlimit:4;stroke-dasharray:none;stroke-opacity:1"
         d="m 138.13263,106.99566 -1.77891,-2.91045 h -1.88227 v 2.91045 h -1.60483 v -7.665089 h 3.82982 q 1.3709,0 2.1162,0.59297 0.74529,0.587529 0.74529,1.691869 0,0.80513 -0.45697,1.39266 -0.45697,0.58209 -1.2349,0.76706 l 2.07267,3.22053 z m -0.19041,-5.31497 q 0,-1.10434 -1.41442,-1.10434 h -2.05635 v 2.26308 h 2.09987 q 0.67457,0 1.02274,-0.30464 0.34816,-0.30465 0.34816,-0.8541 z" />
      <path
         id="path1558"
         style="font-style:normal;font-variant:normal;font-weight:bold;font-stretch:normal;font-family:'Liberation Sans';-inkscape-font-specification:'Liberation Sans Bold';text-align:center;text-anchor:middle;fill:#1a1a1a;stroke:#1a1a1a;stroke-width:0.179;stroke-miterlimit:4;stroke-dasharray:none;stroke-opacity:1"
         d="m 147.16861,104.78698 q 0,1.1261 -0.83777,1.72451 -0.83234,0.59297 -2.44804,0.59297 -1.47426,0 -2.31204,-0.52225 -0.83777,-0.52225 -1.07714,-1.58306 l 1.55043,-0.25569 q 0.15776,0.60929 0.61473,0.88674 0.45697,0.272 1.26754,0.272 1.68099,0 1.68099,-1.02274 0,-0.3264 -0.19585,-0.53857 -0.1904,-0.21216 -0.54401,-0.3536 -0.34816,-0.14144 -1.3437,-0.34273 -0.85953,-0.20128 -1.19682,-0.32096 -0.33728,-0.12512 -0.60929,-0.28833 -0.272,-0.16864 -0.4624,-0.40256 -0.19041,-0.23393 -0.29921,-0.54945 -0.10336,-0.31553 -0.10336,-0.72353 0,-1.03906 0.77793,-1.588512 0.78338,-0.554889 2.27396,-0.554889 1.4253,0 2.13795,0.446087 0.7181,0.446084 0.92482,1.474264 l -1.55587,0.21217 q -0.11968,-0.49505 -0.4896,-0.7453 -0.36449,-0.25024 -1.04994,-0.25024 -1.45794,0 -1.45794,0.91394 0,0.2992 0.15232,0.4896 0.15776,0.19041 0.46241,0.32641 0.30464,0.13056 1.2349,0.33184 1.10433,0.23393 1.57762,0.43521 0.47873,0.19584 0.75617,0.46241 0.27745,0.26112 0.42433,0.63105 0.14688,0.36448 0.14688,0.84321 z" />
    </g>
  </g>
</svg>
