<?xml version="1.0" encoding="UTF-8" standalone="no"?>
<svg
   xmlns:dc="http://purl.org/dc/elements/1.1/"
   xmlns:cc="http://creativecommons.org/ns#"
   xmlns:rdf="http://www.w3.org/1999/02/22-rdf-syntax-ns#"
   xmlns:svg="http://www.w3.org/2000/svg"
   xmlns="http://www.w3.org/2000/svg"
   xmlns:sodipodi="http://sodipodi.sourceforge.net/DTD/sodipodi-0.dtd"
   xmlns:inkscape="http://www.inkscape.org/namespaces/inkscape"
   viewBox="0 0 429.66669 759.66669"
   height="759.66669"
   width="429.66669"
   xml:space="preserve"
   id="svg2"
   version="1.1"
   sodipodi:docname="Carcavelinhos FC.svg"
   inkscape:version="1.0.2 (e86c870879, 2021-01-15)"><sodipodi:namedview
     pagecolor="#ffffff"
     bordercolor="#666666"
     borderopacity="1"
     objecttolerance="10"
     gridtolerance="10"
     guidetolerance="10"
     inkscape:pageopacity="0"
     inkscape:pageshadow="2"
     inkscape:window-width="1280"
     inkscape:window-height="961"
     id="namedview69"
     showgrid="false"
     inkscape:zoom="0.81504046"
     inkscape:cx="397.33334"
     inkscape:cy="397.33334"
     inkscape:window-x="-8"
     inkscape:window-y="-8"
     inkscape:window-maximized="1"
     inkscape:current-layer="g12" /><metadata
     id="metadata8"><rdf:RDF><cc:Work
         rdf:about=""><dc:format>image/svg+xml</dc:format><dc:type
           rdf:resource="http://purl.org/dc/dcmitype/StillImage" /><dc:title></dc:title></cc:Work></rdf:RDF></metadata><defs
     id="defs6" /><g
     transform="matrix(1.3333333,0,0,-1.3333333,0,794.66667)"
     id="g10"><g
       transform="scale(0.1)"
       id="g12"><path
         id="path16"
         style="fill:#e41e2a;fill-opacity:1;fill-rule:evenodd;stroke:none"
         d="m 647.92036,4766.408 1934.24004,2.96 c -222.47,130.91 -635.07,251.51 -968.6,251 -332.82,-0.5 -696.92,-107.29 -965.64004,-253.96" /><path
         id="path18"
         style="fill:#e41e2a;fill-opacity:1;fill-rule:evenodd;stroke:none"
         d="M 55.81036,4776.068 H 3175.6104 c 23.79,-202.59 34.88,-394.1 32.87,-581.14 -15.83,-1473.15 -495.41,-2662.97 -1592.77,-3921.29504 C 356.03036,1683.878 61.10036,3051.698 24.51036,3970.898 c -13.23,332.47 0.65,593.67 31.3,805.17" /><path
         id="path20"
         style="fill:#2c609b;fill-opacity:1;fill-rule:evenodd;stroke:none"
         d="M 55.81036,4776.068 H 3175.6104 c 23.79,-202.59 34.88,-394.1 32.87,-581.14 -0.87,-80.96 -3.23,-161.01 -6.93,-240.31 H 25.23036 c -0.23,5.41 -0.5,10.89 -0.72,16.28 -13.23,332.47 0.65,593.67 31.3,805.17" /><path
         id="path22"
         style="fill:#ffffff;fill-opacity:1;fill-rule:evenodd;stroke:none"
         d="m 1640.8704,2445.068 308.6,-989.02 -335.36,180.6 -335.34,-180.6 308.59,989.02 -989.02004,-308.59 180.6,335.35 -180.6,335.35 989.02004,-308.59 -308.59,989.01 335.34,-180.6 335.36,180.6 -308.6,-989.01 989.02,308.59 -180.6,-335.35 180.6,-335.35 -989.02,308.59" /><path
         id="path24"
         style="fill:#f4861f;fill-opacity:1;fill-rule:nonzero;stroke:none"
         d="m 903.0604,4539.528 -4.18,90.78 c -30.32004,20.21 -62.03004,35.02 -95.14004,44.96 -33.28,9.93 -67.78,14.81 -103.85,14.81 -92.01,0 -165.54,-27.88 -220.95,-83.64 -55.24,-55.94 -82.94,-130.52 -82.94,-224.26 0,-65.52 14.11,-124.07 42.16,-175.47 28.06,-51.4 67.96,-92.18 119.71,-122.15 51.75,-29.8 106.3,-44.78 163.97,-44.78 45.48,0 90.61,5.23 135.22,15.68 33.28004,7.84 66.91004,24.22 100.54004,49.14 l 10.81,-10.29 c -7.15,-15.68 -13.95,-31.53 -20.04,-47.39 -39.73,-19.86 -79.81004,-34.68 -120.23004,-44.78 -40.26,-9.93 -80.86,-14.99 -121.63,-14.99 -83.82,0 -157.35,16.21 -220.78,48.45 -63.6,32.41 -112.21,77.02 -146.36,133.99 -33.98,56.99 -51.06,121.45 -51.06,193.25 0,71.79 17.25,136.08 51.58,192.72 34.32,56.63 82.94,100.54 145.84,131.73 62.73,31.19 139.93,46.7 231.41,46.7 48.09,0 104.2,-7.84 168.50004,-23.53 32.06,-7.49 58.02,-13.06 78.06,-16.72 -15.33,-36.42 -24.04,-87.83 -26.49,-154.21 h -34.15" /><path
         id="path26"
         style="fill:#f4861f;fill-opacity:1;fill-rule:nonzero;stroke:none"
         d="m 1149.8004,4106.518 c 16.38,0 30.32,-5.76 41.82,-17.26 11.67,-11.67 17.43,-25.79 17.43,-42.34 0,-16.38 -5.76,-30.49 -17.43,-42.17 -11.5,-11.67 -25.44,-17.6 -41.82,-17.6 -16.73,0 -30.84,5.93 -42.34,17.6 -11.68,11.68 -17.43,25.79 -17.43,42.17 0,16.55 5.75,30.67 17.43,42.34 11.5,11.5 25.61,17.26 42.34,17.26" /><path
         id="path28"
         style="fill:#f4861f;fill-opacity:1;fill-rule:nonzero;stroke:none"
         d="m 1500.0404,4344.538 v -175.64 c 0,-69.88 3.66,-110.48 11.15,-122.33 7.5,-11.67 26.67,-17.6 57.16,-17.6 h 36.24 v -31.71 c -64.65,2.44 -116.22,3.66 -154.56,3.66 -38.86,0 -89.04,-1.22 -150.73,-3.66 v 31.71 h 40.95 c 29.28,0 47.23,5.58 53.85,16.91 6.62,11.15 9.93,52.27 9.93,123.02 v 385.44 c 0,69 -3.66,109.25 -10.98,120.4 -7.32,11.33 -26.31,16.9 -56.98,16.9 h -36.77 v 32.07 c 56.63,-2.27 107.52,-4.2 152.64,-3.49 l 352.68,5.58 c 30.66,0.48 59.59,-1.57 86.77,-4.53 -10.8,-36.42 -25.75,-90.95 -26.8,-157.69 h -32.59 c -2.09,35.38 2.77,70.04 -3.34,97.92 -53.71,14.03 -113.2,15.73 -168.31,17.65 -51.42,1.8 -103.09,-0.14 -154.21,-5.98 -4.18,-44.08 -6.1,-84.33 -6.1,-120.4 v -162.4 c 20.39,-1.05 40.43,-1.4 60.12,-1.4 51.05,0 66.29,1.4 104.81,4.01 12.89,0.88 21.7,3.4 26.31,8.37 4.63,4.96 8.71,18.07 11.5,39.55 l 5.06,38.86 h 32.23 c -3.13,-62.21 -4.78,-102.29 -4.7,-119.89 l 0.52,-120.58 h -33.11 v 39.38 c 0,31.2 -5.94,50.33 -17.94,57.16 -11.87,6.75 -27.97,10.11 -107.26,10.11 -21.78,0 -47.57,-0.36 -77.54,-1.4" /><path
         id="path30"
         style="fill:#f4861f;fill-opacity:1;fill-rule:nonzero;stroke:none"
         d="m 1825.3704,4106.518 c 16.38,0 30.32,-5.76 41.82,-17.26 11.67,-11.67 17.42,-25.79 17.42,-42.34 0,-16.38 -5.75,-30.49 -17.42,-42.17 -11.5,-11.67 -25.44,-17.6 -41.82,-17.6 -16.73,0 -30.85,5.93 -42.35,17.6 -11.67,11.68 -17.42,25.79 -17.42,42.17 0,16.55 5.75,30.67 17.42,42.34 11.5,11.5 25.62,17.26 42.35,17.26" /><path
         id="path32"
         style="fill:#f4861f;fill-opacity:1;fill-rule:nonzero;stroke:none"
         d="m 2581.2604,4539.528 -4.18,90.78 c -30.32,20.21 -62.04,35.02 -95.14,44.96 -33.28,9.93 -67.79,14.81 -103.85,14.81 -92.01,0 -165.54,-27.88 -220.95,-83.64 -55.24,-55.94 -82.95,-130.52 -82.95,-224.26 0,-65.52 14.12,-124.07 42.17,-175.47 28.06,-51.4 67.96,-92.18 119.71,-122.15 51.75,-29.8 106.29,-44.78 163.97,-44.78 45.48,0 90.61,5.23 135.22,15.68 33.28,7.84 66.91,24.22 100.54,49.14 l 10.8,-10.29 c -7.14,-15.68 -13.94,-31.53 -20.03,-47.39 -39.73,-19.86 -79.81,-34.68 -120.24,-44.78 -40.25,-9.93 -80.85,-14.99 -121.62,-14.99 -83.82,0 -157.35,16.21 -220.78,48.45 -63.6,32.41 -112.22,77.02 -146.37,133.99 -33.97,56.99 -51.05,121.45 -51.05,193.25 0,71.79 17.25,136.08 51.58,192.72 34.32,56.63 82.94,100.54 145.84,131.73 62.73,31.19 139.93,46.7 231.41,46.7 48.09,0 104.19,-7.84 168.49,-23.53 32.07,-7.49 58.03,-13.06 78.07,-16.72 -15.33,-36.42 -24.04,-87.83 -26.49,-154.21 h -34.15" /><path
         id="path34"
         style="fill:#f4861f;fill-opacity:1;fill-rule:nonzero;stroke:none"
         d="m 2848.9104,4106.518 c 16.37,0 30.32,-5.76 41.82,-17.26 11.67,-11.67 17.42,-25.79 17.42,-42.34 0,-16.38 -5.75,-30.49 -17.42,-42.17 -11.5,-11.67 -25.45,-17.6 -41.82,-17.6 -16.73,0 -30.84,5.93 -42.34,17.6 -11.68,11.68 -17.43,25.79 -17.43,42.17 0,16.55 5.75,30.67 17.43,42.34 11.5,11.5 25.61,17.26 42.34,17.26" /><path
         id="path36"
         style="fill:#f4861f;fill-opacity:1;fill-rule:evenodd;stroke:none"
         d="m 546.78036,5458.368 97.45,-230.33 c 649.66004,281.52 1295.39004,283.49 1937.19004,5.9 l 100.4,224.43 c -308.46,148.03 -687.9,227.19 -1065.65,220.26 -445.21,-8.17 -732.02,-68.48 -1069.39004,-220.26" /><path
         id="path38"
         style="fill:#231f20;fill-opacity:1;fill-rule:evenodd;stroke:none"
         d="m 584.56036,5283.528 c 144.12,64.22 291.69,124.35 445.23004,162.1 152.51,37.49 312.31,55.95 469.11,60.13 l 8.74,0.23 0.47,-17.48 -8.75,-0.24 c -155.54,-4.15 -314.1,-22.44 -465.39,-59.63 -152.5,-37.49 -299.15004,-97.31 -442.29004,-161.09 l -7.99,-3.56 -7.12,15.98 7.99,3.56" /><path
         id="path40"
         style="fill:#231f20;fill-opacity:1;fill-rule:evenodd;stroke:none"
         d="m 557.98036,5401.648 c 143.8,64.09 290.52,124.43 443.76004,162.1 152.65,37.53 312.26,52.99 469.1,57.18 l 8.75,0.23 0.46,-17.49 -8.74,-0.23 c -155.58,-4.15 -313.97,-19.45 -465.4,-56.68 -152.18004,-37.41 -297.99004,-97.44 -440.81004,-161.09 l -7.99,-3.56 -7.12,15.98 7.99,3.56" /><path
         id="path42"
         style="fill:#231f20;fill-opacity:1;fill-rule:evenodd;stroke:none"
         d="m 549.12036,5466.618 c 143.71,64.04 290.84,118.6 443.76004,156.19 152.65,37.53 312.26,53 469.11,57.18 l 8.74,0.23 0.46,-17.49 -8.74,-0.23 c -155.58,-4.15 -313.97,-19.45 -465.39,-56.67 -151.91004,-37.35 -298.06004,-91.58 -440.82004,-155.19 l -7.99,-3.56 -7.12,15.98 7.99,3.56" /><path
         id="path44"
         style="fill:#231f20;fill-opacity:1;fill-rule:evenodd;stroke:none"
         d="m 583.08036,5345.538 c 143.49,63.95 289.35,124.51 442.28004,162.1 152.8,37.57 312.23,50.04 469.11,54.23 l 8.74,0.23 0.47,-17.49 -8.75,-0.23 c -155.59,-4.15 -313.84,-16.47 -465.39,-53.72 -151.88004,-37.34 -296.84004,-97.6 -439.34004,-161.1 l -7.99,-3.56 -7.12,15.98 7.99,3.56" /><path
         id="path46"
         style="fill:#231f20;fill-opacity:1;fill-rule:evenodd;stroke:none"
         d="m 2638.0304,5267.548 c -143.14,63.78 -289.8,123.6 -442.29,161.09 -151.3,37.19 -309.85,55.48 -465.4,59.63 l -8.74,0.24 0.46,17.48 8.75,-0.23 c 156.8,-4.18 316.59,-22.64 469.1,-60.13 153.55,-37.75 301.12,-97.88 445.24,-162.1 l 7.99,-3.56 -7.12,-15.98 -7.99,3.56" /><path
         id="path48"
         style="fill:#231f20;fill-opacity:1;fill-rule:evenodd;stroke:none"
         d="m 2639.5004,5329.558 c -142.5,63.5 -287.46,123.76 -439.34,161.1 -151.54,37.25 -309.79,49.57 -465.39,53.72 l -8.74,0.23 0.46,17.49 8.75,-0.23 c 156.88,-4.19 316.3,-16.66 469.1,-54.23 152.93,-37.59 298.8,-98.15 442.28,-162.1 l 8,-3.56 -7.12,-15.98 -8,3.56" /><path
         id="path50"
         style="fill:#231f20;fill-opacity:1;fill-rule:evenodd;stroke:none"
         d="m 2664.6104,5385.668 c -142.83,63.65 -288.64,123.68 -440.82,161.09 -151.42,37.23 -309.82,52.53 -465.39,56.68 l -8.75,0.23 0.47,17.49 8.74,-0.23 c 156.85,-4.19 316.45,-19.65 469.11,-57.18 153.23,-37.67 299.95,-98.01 443.76,-162.1 l 7.99,-3.56 -7.12,-15.98 -7.99,3.56" /><path
         id="path52"
         style="fill:#231f20;fill-opacity:1;fill-rule:evenodd;stroke:none"
         d="m 2673.4604,5450.638 c -142.75,63.61 -288.9,117.84 -440.81,155.19 -151.42,37.22 -309.82,52.52 -465.39,56.67 l -8.75,0.23 0.47,17.49 8.74,-0.23 c 156.85,-4.18 316.46,-19.65 469.11,-57.18 152.92,-37.59 300.05,-92.15 443.76,-156.19 l 7.98,-3.56 -7.12,-15.98 -7.99,3.56" /><path
         id="path54"
         style="fill:#f4861f;fill-opacity:1;fill-rule:evenodd;stroke:none"
         d="m 540.00036,5098.088 122.59,-254.05 c 334.98004,186.31 638.91004,241.52 959.10004,243.6 323.76,2.1 659.36,-79.93 963.9,-240.64 l 116.68,248.15 c -338.35,194.22 -725.09,268.29 -1082.28,273.05 -362.33,4.83 -779.29004,-95.08 -1079.99004,-270.11" /><path
         id="path56"
         style="fill:#231f20;fill-opacity:1;fill-rule:evenodd;stroke:none"
         d="m 1468.8604,5942.918 h 81.16 v -73.82 h 28.99 v 73.82 h 80.89 v -73.45 h 28.12 v 73.45 h 81.32 v -162.41 l -76.05,-14.77 -0.72,-53.15 94.48,-19.25 v -257.6 c -110.25,4.52 -220.49,4.58 -330.74,-0.73 v 257.55 l 89.33,20.03 0.01,53.15 -76.79,11.82 v 165.36" /><path
         id="path58"
         style="fill:#231f20;fill-opacity:1;fill-rule:evenodd;stroke:none"
         d="m 799.94036,5831.178 78.96,19.25 17.04004,-71.71 28.21,6.88 -17.03,71.71 78.71,19.2 16.94,-71.37 27.37,6.68 -16.95,71.36 79.12,19.29 37.47,-157.78 -70.59,-32.38 11.56,-51.81 96.38,3.71 49.09,-253.19 c -108.32,-21.77 -197.89,-40.48 -303.94,-71.81 l -66.80004,245.78 82.32004,40.65 -12.27,51.63 -77.44004,-6.74 -38.15,160.65" /><path
         id="path60"
         style="fill:#231f20;fill-opacity:1;fill-rule:evenodd;stroke:none"
         d="m 283.83036,5613.558 48.5,23.53 29.32,-64.6 26.21,12.72 -29.32,64.6 75.77,36.76 64.83,-142.83 -64.97,-47.37 20.29,-46.52 95.18,25.52 99.81,-239.1 -150.8,-79.03 -214.82,456.32" /><path
         id="path62"
         style="fill:#231f20;fill-opacity:1;fill-rule:evenodd;stroke:none"
         d="m 2431.2504,5831.178 -78.97,19.25 -17.03,-71.71 -28.21,6.88 17.03,71.71 -78.71,19.2 -16.95,-71.37 -27.37,6.68 16.95,71.36 -79.12,19.29 -37.47,-157.78 70.59,-32.38 0.71,-0.18 -12.27,-51.63 -0.71,0.17 -97.15,5.02 -49.09,-253.19 c 108.32,-21.77 197.9,-39.01 303.95,-70.33 l 66.8,241.35 -80.83,42.11 -0.01,0.01 12.26,51.63 0.73,-0.17 76.71,-6.57 38.16,160.65" /><path
         id="path64"
         style="fill:#231f20;fill-opacity:1;fill-rule:evenodd;stroke:none"
         d="m 2730.9304,5156.978 213.47,455.1 -48.5,23.54 -29.32,-64.61 -26.21,12.72 29.32,64.6 -75.77,36.77 -64.83,-142.84 64.97,-47.36 -20.29,-46.53 -95.18,25.52 -99.81,-236.14 152.15,-80.77" /><path
         id="path66"
         style="fill:#f4861f;fill-opacity:1;fill-rule:evenodd;stroke:none"
         d="m 1486.3604,5925.428 v -132.89 l 59.89,-9.3 h 145.36 l 60.23,11.69 v 130.5 h -46.32 v -73.46 h -63.11 v 73.46 h -45.91 v -73.83 h -63.98 v 73.83 h -46.16" /><path
         id="path68"
         style="fill:#f4861f;fill-opacity:1;fill-rule:evenodd;stroke:none"
         d="m 1547.5804,5695.098 -73.77,-16.54 v -234.93 h 82.9 v 93.99 c 0,40.2 32.9,73.09 73.09,73.09 v 0 c 40.2,0 73.09,-32.89 73.09,-73.09 v -93.99 h 66.67 c 0,83.25 0,162.04 0,235.44 l -2.6,0.53 -75.44,15.5 h -143.94" /><path
         id="path70"
         style="fill:#f4861f;fill-opacity:1;fill-rule:evenodd;stroke:none"
         d="m 1563.1404,5765.748 h 111.93 v -53.16 h -111.93 v 53.16" /><path
         id="path72"
         style="fill:#f4861f;fill-opacity:1;fill-rule:evenodd;stroke:none"
         d="m 821.00036,5818.328 30.65,-129.09 60.43004,5.17 141.44,34.49 55.91,25.65 -30.1,126.78 -45.08,-11 16.95,-71.36 -61.42,-14.97 -16.94,71.36 -44.66,-10.89 17.03,-71.72 -62.26,-15.18 -17.03004,71.72 -44.92,-10.96" /><path
         id="path74"
         style="fill:#f4861f;fill-opacity:1;fill-rule:evenodd;stroke:none"
         d="m 933.7104,5609.098 -67.97004,-33.57 60.10004,-225.25 67.67,16.78 -21.97,91.23 c -9.27,39.06 15.14,78.81 54.26,88.34 v 0 c 39.11,9.54 78.7,-14.61 87.98,-53.66 l 20.27,-85.34 63.33,6.91 -43.98,231.66 -79.63,-2.95 -140.06,-34.15" /><path
         id="path76"
         style="fill:#f4861f;fill-opacity:1;fill-rule:evenodd;stroke:none"
         d="m 932.5504,5681.428 108.91,26.56 12.26,-51.64 -108.9,-26.56 -12.27,51.64" /><path
         id="path78"
         style="fill:#f4861f;fill-opacity:1;fill-rule:evenodd;stroke:none"
         d="m 362.59036,5482.598 61.56,29.87 52.93,36.04 -52.09,114.77 -43.17,-20.95 29.33,-64.6 -58.82,-28.53 -29.32,64.59 -18.25,-9.61 57.83,-121.58" /><path
         id="path80"
         style="fill:#f4861f;fill-opacity:1;fill-rule:evenodd;stroke:none"
         d="m 576.43036,5202.458 57.39,27.41 -93.97,224.76 -2.64,-0.7 -76.49,-20.49 -60.4,-29.31 34.26,-73.98 c 0.76,0.4 1.53,0.8 2.31,1.18 v 0 c 37.47,18.17 81.88,4.4 97.29,-31.23 l 42.25,-97.64" /><path
         id="path82"
         style="fill:#f4861f;fill-opacity:1;fill-rule:evenodd;stroke:none"
         d="m 371.03036,5465.738 46.16,22.4 21.22,-46.75 -46.22,-22.42 -21.16,46.77" /><path
         id="path84"
         style="fill:#f4861f;fill-opacity:1;fill-rule:evenodd;stroke:none"
         d="m 2408.7104,5819.808 -30.66,-129.09 -60.43,5.17 -141.43,34.49 -55.91,25.65 30.1,126.77 45.07,-10.99 -16.94,-71.36 61.41,-14.98 16.95,71.37 44.66,-10.89 -17.03,-71.73 62.26,-15.17 17.03,71.71 44.92,-10.95" /><path
         id="path86"
         style="fill:#f4861f;fill-opacity:1;fill-rule:evenodd;stroke:none"
         d="m 2304.8604,5609.098 59.11,-32.09 -58.63,-226.73 -67.66,16.78 1.69,5.89 20.27,85.34 c 9.27,39.06 -15.14,78.81 -54.26,88.34 v 0 c -39.11,9.54 -78.7,-14.6 -87.97,-53.66 l -20.27,-85.34 -0.51,-6 -65.78,15.86 46.93,228.71 87.02,-2.95 140.06,-34.15" /><path
         id="path88"
         style="fill:#f4861f;fill-opacity:1;fill-rule:evenodd;stroke:none"
         d="m 2297.1504,5681.428 -108.9,26.56 -12.27,-51.64 108.91,-26.56 12.26,51.64" /><path
         id="path90"
         style="fill:#f4861f;fill-opacity:1;fill-rule:evenodd;stroke:none"
         d="m 2867.1204,5482.598 -61.56,29.87 -52.94,36.04 52.09,114.77 43.17,-20.95 -29.32,-64.6 58.82,-28.53 29.32,64.59 18.25,-9.61 -57.83,-121.58" /><path
         id="path92"
         style="fill:#f4861f;fill-opacity:1;fill-rule:evenodd;stroke:none"
         d="m 2653.2804,5200.978 -57.39,28.89 93.97,224.76 79.12,-21.19 60.41,-29.31 -34.26,-73.98 c -34.7,18.22 -83.06,8.76 -99.6,-30.05 l -42.25,-99.12" /><path
         id="path94"
         style="fill:#f4861f;fill-opacity:1;fill-rule:evenodd;stroke:none"
         d="m 2858.6804,5465.738 -46.16,22.4 -21.22,-46.75 46.22,-22.42 21.16,46.77" /><path
         id="path96"
         style="fill:#231f20;fill-opacity:1;fill-rule:evenodd;stroke:none"
         d="m 667.73036,4863.868 c 300.47004,157.55 624.98004,235.17 959.26004,235.39 225.46,0.14 453.6,-43.39 654.52,-111.2 112.71,-38.03 216.36,-81.68 307.39,-134.45 19.44,-11.86 29.35,-39.85 16.6,-60.42 -12.62,-20.35 -36.55,-21.65 -56.46,-12.02 -304.78,140.3 -580.87,225.46 -921.98,224.21 -327.05,-1.21 -631.57,-77.28 -924.01004,-219.6 -20.66,-10.06 -51.88,-18.2 -68.72,6.75 -6.86,10.14 -8.27,22.93 -4.72,34.55 6.01,19.66 21.49,28.07 38.12,36.79" /><path
         id="path98"
         style="fill:#f4861f;fill-opacity:1;fill-rule:evenodd;stroke:none"
         d="m 661.11036,4841.258 c 13.33,7.46 7.55,3.68 21.05,10.81 288.84004,152.68 613.02004,229.48 944.84004,229.69 324.92,0.21 649.37,-84.11 940.47,-234.25 34.53,-17.6 32.62,-44.24 17.05,-53.57 -9.34,-5.59 -24.56,-1.18 -37.11,4.59 -281.99,139.02 -596.21,225.53 -920.41,224.34 -327.2,-1.2 -632.03,-76.35 -926.69004,-218.97 -11.98,-5.8 -4.01,-2.12 -15.95,-8.13 -38.26,-19.28 -57.72,24.74 -23.25,45.49" /><path
         id="path100"
         style="fill:#231f20;fill-opacity:1;fill-rule:evenodd;stroke:none"
         d="m 547.85036,5100.598 119.92,-247.88 -15.75,-7.62 -119.92,247.88 15.75,7.62" /><path
         id="path102"
         style="fill:#231f20;fill-opacity:1;fill-rule:evenodd;stroke:none"
         d="m 2693.3604,5101.088 -117.56,-249.01 15.82,-7.47 117.56,249.01 -15.82,7.47" /><path
         id="path104"
         style="fill:#231f20;fill-opacity:1;fill-rule:evenodd;stroke:none"
         d="m 502.95036,5171.818 c 28.44,15.65 57.49,30.62 86.4,45.36 151.13,77.04 308.49004,137.66 474.35004,177.18 165.09,39.33 330.75,55.7 500.15,58.7 20.85,0.37 41.7,0.55 62.55,0.56 60.99,0.04 121.99,-1.5 182.87,-5.31 147.78,-9.24 291.76,-32.11 434.41,-72.13 166.09,-46.6 324.42,-114.37 476.46,-195.35 36.72,-20.66 42.31,-34.23 40.92,-54.94 -1.17,-17.45 -11.22,-34.64 -27.5,-41.97 -12.78,-5.75 -30.34,-3.43 -51.9,9.41 -311.83,180.65 -696.91,267.73 -1055.19,266.41 -347.24,-1.27 -688.48,-67.83 -997.10004,-227.21 -27.13,-14.02 -54.35,-28.96 -80.9,-44.11 -16.42,-9.36 -37.19,-10.3 -52.68,1.51 -12.22,9.31 -18.93,24.69 -18.48,39.94 0.52,17.6 10.49,33.23 25.64,41.95" /><path
         id="path106"
         style="fill:none;stroke:#231f20;stroke-width:2.16;stroke-linecap:butt;stroke-linejoin:miter;stroke-miterlimit:22.9256;stroke-dasharray:none;stroke-opacity:1"
         d="m 502.95036,5171.818 c 28.44,15.65 57.49,30.62 86.4,45.36 151.13,77.04 308.49004,137.66 474.35004,177.18 165.09,39.33 330.75,55.7 500.15,58.7 20.85,0.37 41.7,0.55 62.55,0.56 60.99,0.04 121.99,-1.5 182.87,-5.31 147.78,-9.24 291.76,-32.11 434.41,-72.13 166.09,-46.6 324.42,-114.37 476.46,-195.35 36.72,-20.66 42.31,-34.23 40.92,-54.94 -1.17,-17.45 -11.22,-34.64 -27.5,-41.97 -12.78,-5.75 -30.34,-3.43 -51.9,9.41 -311.83,180.65 -696.91,267.73 -1055.19,266.41 -347.24,-1.27 -688.48,-67.83 -997.10004,-227.21 -27.13,-14.02 -54.35,-28.96 -80.9,-44.11 -16.42,-9.36 -37.19,-10.3 -52.68,1.51 -12.22,9.31 -18.93,24.69 -18.48,39.94 0.52,17.6 10.49,33.23 25.64,41.95 z" /><path
         id="path108"
         style="fill:#f4861f;fill-opacity:1;fill-rule:evenodd;stroke:none"
         d="m 512.87036,5157.228 c 31.11,17.13 62.84,33.52 94.55,49.51 375.35004,189.31 694.82004,229.18 1018.99004,229.39 345.37,0.21 667.2,-50.3 1073.62,-264.44 3.98,-2.09 19.78,-10.11 23.77,-12.24 37.33,-19.61 11.59,-76.09 -21.56,-56.89 -3.51,2.03 -18.83,9.96 -22.35,11.96 -324.23,184.72 -713.1,263.97 -1053.48,262.72 -314.48,-1.16 -662.46,-55.52 -991.94004,-222.45 -31.78,-16.1 -63.71,-32.78 -94.67,-50.43 -37.2,-21.23 -61.41,32.13 -26.93,52.87" /><path
         id="path110"
         style="fill:#231f20;fill-opacity:1;fill-rule:evenodd;stroke:none"
         d="m 700.99036,5524.278 24.65,-66.56 -16.36,-6.19 -24.65,66.56 z m 45.39,-116.07 21.9,-60.11 -16.55,-5.67 -21.9,60.11 z m -104.72,27.6 26.51,-67.16 -16.21,-6.57 -26.51,67.15 z m 43.44,-113.24 25.61,-65.27 -16.55,-5.67 -25.61,65.27 z m 117.96,178 25.85,-69.62 -16.47,-5.91 -25.84,69.62 z m 39.91,-118.14 22.09,-62.26 -16.49,-5.85 -22.09,62.26 16.49,5.85" /><path
         id="path112"
         style="fill:#231f20;fill-opacity:1;fill-rule:evenodd;stroke:none"
         d="m 1318.8704,5670.588 6.9,-65.48 -17.39,-1.82 -6.91,65.47 z m 14.38,-118.63 5.89,-63.71 -17.45,-1.27 -5.89,63.7 z m -94.26,49.62 8.56,-67.99 -17.36,-2.23 -8.55,67.99 z m 13.21,-116.86 8.16,-65.95 -17.44,-1.28 -8.17,65.95 z m 161.57,128.85 2.85,-59.87 -17.43,-1.53 -2.85,59.87 z m 3.38,-113.33 3.31,-65.83 -17.43,-1.46 -3.32,65.83 17.44,1.46" /><path
         id="path114"
         style="fill:#231f20;fill-opacity:1;fill-rule:evenodd;stroke:none"
         d="m 1914.1904,5672.058 -6.91,-65.47 17.4,-1.83 6.91,65.48 z m -14.38,-118.63 -5.9,-63.71 17.45,-1.26 5.9,63.7 z m 94.26,49.63 -8.56,-67.99 17.35,-2.23 8.55,67.99 z m -13.21,-116.86 -8.17,-65.95 17.45,-1.28 8.16,65.95 z m -161.57,128.85 -2.86,-59.88 17.43,-1.52 2.85,59.87 z m -3.38,-113.33 -3.32,-65.83 17.43,-1.47 3.32,65.84 -17.43,1.46" /><path
         id="path116"
         style="fill:#231f20;fill-opacity:1;fill-rule:evenodd;stroke:none"
         d="m 2523.9904,5525.758 -24.65,-66.56 16.36,-6.19 24.65,66.56 z m -45.4,-116.08 -21.9,-61.58 16.55,-5.67 21.9,61.59 z m 104.72,27.6 -27.24,-64.93 16.21,-6.57 27.24,64.93 z m -43.44,-113.23 -23.39,-60.11 16.55,-5.67 23.4,60.1 z m -117.96,177.99 -25.84,-69.62 16.47,-5.91 25.84,69.62 z m -39.9,-118.14 -20.62,-57.82 16.49,-5.86 22.09,62.27 -17.96,1.41" /><path
         id="path118"
         style="fill:#231f20;fill-opacity:1;fill-rule:evenodd;stroke:none"
         d="m 1109.3704,5268.368 229.04,-49.61 -179.42,-150.76 -229.05,49.61 179.43,150.76" /><path
         id="path120"
         style="fill:#e41e2a;fill-opacity:1;fill-rule:evenodd;stroke:none"
         d="m 1114.0504,5249.458 185.81,-40.25 -145.56,-122.29 -185.8,40.24 145.55,122.3" /><path
         id="path122"
         style="fill:#231f20;fill-opacity:1;fill-rule:evenodd;stroke:none"
         d="m 549.93036,5065.508 297.15,31.88 -200.52,-227.02 -101.56,68.05 4.93,127.09" /><path
         id="path124"
         style="fill:#2c609b;fill-opacity:1;fill-rule:evenodd;stroke:none"
         d="m 566.82036,5049.718 237.31,25.47 -160.55,-181.77 -80.72,54.09 3.96,102.21" /><path
         id="path126"
         style="fill:#231f20;fill-opacity:1;fill-rule:evenodd;stroke:none"
         d="m 1631.2104,5327.508 210.4,-103.22 -210.4,-103.21 -210.4,103.21 210.4,103.22" /><path
         id="path128"
         style="fill:#231f20;fill-opacity:1;fill-rule:evenodd;stroke:none"
         d="m 2152.1304,5268.368 179.42,-150.76 -229.04,-49.61 -179.42,150.76 229.04,49.61" /><path
         id="path130"
         style="fill:#e41e2a;fill-opacity:1;fill-rule:evenodd;stroke:none"
         d="m 2147.4404,5249.458 -185.79,-40.25 145.55,-122.29 185.8,40.24 -145.56,122.3" /><path
         id="path132"
         style="fill:#231f20;fill-opacity:1;fill-rule:evenodd;stroke:none"
         d="m 2693.8404,5068.838 4.94,-127.47 -101.34,-67.91 -200.73,219.87 297.13,-24.49" /><path
         id="path134"
         style="fill:#2c609b;fill-opacity:1;fill-rule:evenodd;stroke:none"
         d="m 2676.9604,5052.678 -237.31,19.56 160.56,-175.86 80.71,54.08 -3.96,102.22" /><path
         id="path136"
         style="fill:#2c609b;fill-opacity:1;fill-rule:evenodd;stroke:none"
         d="m 1630.2904,5308.018 170.68,-83.73 -170.68,-83.72 -170.68,83.72 170.68,83.73" /></g></g></svg>
