<?xml version="1.0" encoding="UTF-8" standalone="no"?>
<svg
   xmlns:dc="http://purl.org/dc/elements/1.1/"
   xmlns:cc="http://creativecommons.org/ns#"
   xmlns:rdf="http://www.w3.org/1999/02/22-rdf-syntax-ns#"
   xmlns:svg="http://www.w3.org/2000/svg"
   xmlns="http://www.w3.org/2000/svg"
   id="svg7254"
   version="1.1"
   viewBox="0 0 53.356579 68.145836"
   height="68.145836mm"
   width="53.356579mm">
  <defs
     id="defs7248">
    <clipPath
       id="clipPath5318"
       clipPathUnits="userSpaceOnUse">
      <path
         id="path5316"
         d="M 0,0 H 595.276 V 765.354 H 0 Z" />
    </clipPath>
    <clipPath
       id="clipPath5346"
       clipPathUnits="userSpaceOnUse">
      <path
         id="path5344"
         d="M 0,0 H 595.276 V 765.354 H 0 Z" />
    </clipPath>
    <clipPath
       id="clipPath5370"
       clipPathUnits="userSpaceOnUse">
      <path
         id="path5368"
         d="M 0,0 H 595.276 V 765.354 H 0 Z" />
    </clipPath>
    <clipPath
       id="clipPath5394"
       clipPathUnits="userSpaceOnUse">
      <path
         id="path5392"
         d="M 0,0 H 595.276 V 765.354 H 0 Z" />
    </clipPath>
    <clipPath
       id="clipPath5432"
       clipPathUnits="userSpaceOnUse">
      <path
         id="path5430"
         d="M 0,0 H 595.276 V 765.354 H 0 Z" />
    </clipPath>
  </defs>
  <metadata
     id="metadata7251">
    <rdf:RDF>
      <cc:Work
         rdf:about="">
        <dc:format>image/svg+xml</dc:format>
        <dc:type
           rdf:resource="http://purl.org/dc/dcmitype/StillImage" />
        <dc:title></dc:title>
      </cc:Work>
    </rdf:RDF>
  </metadata>
  <g
     transform="translate(-103.3129,-91.664589)"
     id="layer1">
    <g
       id="g7246"
       transform="matrix(0.6653165,0,0,-0.6653165,-6.5207773,572.27675)">
      <g
         id="g5308"
         transform="translate(239.067,667.3142)">
        <path
           d="M 0,0 -0.002,0.038 V 0.055 L -0.134,1.716 -0.14,1.749 -0.141,1.767 -0.347,3.387 -0.351,3.438 -0.357,3.469 -0.653,5.081 -0.658,5.11 -0.659,5.121 -1.019,6.68 -1.035,6.737 -1.039,6.756 -1.488,8.324 -1.5,8.353 l -0.005,0.015 -0.503,1.503 -0.017,0.045 -0.012,0.028 -0.588,1.478 -0.016,0.04 -0.013,0.02 -0.65,1.44 -0.016,0.036 -0.01,0.02 -0.731,1.424 -0.015,0.028 -0.008,0.016 -0.793,1.374 -0.019,0.032 -0.01,0.012 -0.886,1.375 -0.916,1.292 -0.018,0.028 -0.009,0.01 -0.976,1.242 -0.025,0.031 -0.013,0.016 -1.07,1.217 -1.08,1.14 -0.026,0.025 -0.012,0.016 -1.131,1.08 -0.031,0.029 -0.02,0.018 -1.194,1.037 -0.028,0.022 -0.012,0.009 -1.247,0.978 -0.025,0.018 -0.013,0.007 -1.324,0.938 -1.344,0.866 -0.028,0.016 -0.012,0.009 -1.377,0.79 -0.028,0.016 -0.013,0.006 -0.178,0.092 0.121,0.251 0.203,0.422 0.128,0.262 0.127,0.267 4.649,9.682 0.352,0.731 0.161,0.328 0.158,0.33 0.255,0.529 0.257,0.529 -0.451,0.372 -0.453,0.374 -0.283,0.236 -0.287,0.234 -0.596,0.491 -1.439,1.19 -0.376,0.304 -0.043,0.032 -0.03,0.021 -0.019,0.015 -0.008,0.003 -0.385,0.265 -0.424,0.278 -0.388,0.23 -0.415,0.244 -0.034,0.015 -0.018,0.011 -0.447,0.228 -0.382,0.178 -0.453,0.212 -0.46,0.194 -0.032,0.01 -0.01,0.005 -0.422,0.154 -0.452,0.156 -0.407,0.133 -0.477,0.151 -0.045,0.015 -0.026,0.006 -0.325,0.08 -0.058,0.022 -0.046,0.012 -0.027,0.006 -0.421,0.107 -0.419,0.092 -0.491,0.112 -0.039,0.008 -0.017,0.001 -0.424,0.073 -0.917,0.151 -0.484,0.065 -0.432,0.049 -0.434,0.046 -0.503,0.055 -0.033,0.004 h -0.022 l -0.358,0.02 -0.503,0.04 -0.033,0.002 h -0.016 l -0.373,0.008 -0.489,0.027 -0.274,0.008 v 1.321 0.463 0.47 0.746 0.749 h -0.746 -0.617 v 0.057 0.748 0.747 h -0.747 -0.748 -0.467 -0.468 -3.567 -0.466 -0.467 -0.747 -0.746 v -0.747 -0.748 -0.057 h -0.585 -0.747 v -0.749 -0.746 -0.47 -0.463 -1.319 l -0.376,-0.015 -0.368,-0.018 -0.493,-0.016 -0.034,-10e-4 -0.017,-0.002 -0.375,-0.033 -0.504,-0.027 -0.036,-0.004 -0.017,-0.002 -0.848,-0.094 -0.491,-0.055 -0.488,-0.071 -0.424,-0.069 -0.426,-0.072 -0.488,-0.083 -0.051,-0.008 -0.029,-0.007 -0.39,-0.089 -0.507,-0.115 -0.429,-0.111 -0.501,-0.136 -0.439,-0.137 -0.475,-0.156 -0.396,-0.143 -0.447,-0.163 -0.039,-0.017 -0.021,-0.008 -0.461,-0.198 -0.384,-0.179 -0.462,-0.22 -0.411,-0.212 -0.037,-0.021 -0.019,-0.012 -0.393,-0.228 -0.396,-0.238 -0.033,-0.02 -0.017,-0.011 -0.387,-0.257 -0.026,-0.016 -0.008,-0.007 -0.027,-0.02 -0.009,-0.007 -0.72,-0.54 -0.03,-0.026 -0.017,-0.012 -1.169,-0.988 -0.228,-0.201 -0.246,-0.22 -0.244,-0.221 -0.391,-0.349 -0.392,-0.352 0.2,-0.487 0.195,-0.485 0.124,-0.309 0.125,-0.303 0.48,-1.185 3.945,-9.759 0.12,-0.299 0.118,-0.288 0.176,-0.427 -0.83,-0.425 -0.035,-0.019 -0.019,-0.01 -1.375,-0.792 -0.03,-0.017 -0.015,-0.013 -1.373,-0.884 -1.296,-0.918 -0.023,-0.02 -0.011,-0.007 -1.249,-0.977 -0.026,-0.021 -0.008,-0.01 -1.185,-1.028 -0.029,-0.027 -0.016,-0.013 -1.138,-1.091 -0.028,-0.029 -0.013,-0.012 -1.112,-1.177 -1.061,-1.225 -0.986,-1.242 -0.024,-0.034 -0.012,-0.016 -0.934,-1.324 -0.858,-1.325 -0.023,-0.037 -0.012,-0.022 -0.792,-1.377 -0.014,-0.029 -0.008,-0.013 -0.732,-1.427 -0.014,-0.03 -0.005,-0.012 -0.651,-1.432 -0.018,-0.043 -0.011,-0.027 -0.597,-1.533 -0.523,-1.522 -0.011,-0.043 -0.008,-0.018 -0.445,-1.602 -0.38,-1.592 -0.007,-0.034 -0.003,-0.015 -0.289,-1.591 -0.008,-0.048 -0.002,-0.027 -0.205,-1.631 -0.005,-0.042 -0.003,-0.026 -0.123,-1.708 -0.047,-1.668 v -0.033 -0.01 -0.031 -0.014 l 0.051,-1.72 0.12,-1.659 0.004,-0.041 0.003,-0.021 0.205,-1.625 0.006,-0.045 0.006,-0.029 0.289,-1.606 0.011,-0.044 0.003,-0.025 0.388,-1.632 0.436,-1.552 0.014,-0.039 0.006,-0.022 0.52,-1.525 0.013,-0.033 0.006,-0.017 0.575,-1.462 0.017,-0.044 0.012,-0.027 0.649,-1.438 0.011,-0.027 0.004,-0.009 0.012,-0.025 0.006,-0.009 0.725,-1.412 0.017,-0.035 0.012,-0.019 0.784,-1.364 0.025,-0.043 0.014,-0.02 0.886,-1.354 0.898,-1.272 0.015,-0.023 0.005,-0.007 0.018,-0.023 0.008,-0.01 0.989,-1.258 0.019,-0.023 0.01,-0.01 1.063,-1.224 1.071,-1.13 0.034,-0.035 0.021,-0.02 1.177,-1.113 1.224,-1.059 1.242,-0.986 0.033,-0.025 0.017,-0.013 1.276,-0.904 0.036,-0.024 0.019,-0.011 1.369,-0.87 1.375,-0.803 0.041,-0.023 0.02,-0.01 1.455,-0.733 1.466,-0.672 0.031,-0.011 0.013,-0.006 1.138,-0.453 0.396,-0.149 1.528,-0.523 0.041,-0.012 0.021,-0.005 1.597,-0.446 1.582,-0.376 0.051,-0.01 0.027,-0.005 1.639,-0.286 0.808,-0.108 0.819,-0.108 0.053,-0.005 0.031,-0.003 1.653,-0.121 0.037,-0.002 0.02,-0.002 1.67,-0.048 h 0.061 0.023 l 1.691,0.05 0.03,0.002 h 0.012 l 1.657,0.121 0.051,0.006 0.025,0.002 1.615,0.216 0.04,0.008 0.027,0.004 0.117,0.021 1.49,0.258 0.043,0.008 0.019,0.005 1.618,0.386 1.559,0.439 0.039,0.011 0.017,0.007 1.531,0.523 0.03,0.011 0.016,0.005 1.21,0.476 0.269,0.102 0.049,0.022 0.026,0.011 1.478,0.683 1.403,0.708 0.027,0.013 0.005,0.003 0.034,0.018 0.014,0.008 1.405,0.823 1.321,0.842 0.037,0.025 0.021,0.014 1.295,0.916 0.028,0.022 0.012,0.011 1.278,1.015 1.223,1.063 1.13,1.071 0.036,0.033 0.022,0.021 1.104,1.169 1.033,1.177 0.019,0.022 0.004,0.007 0.023,0.028 0.01,0.011 0.978,1.259 0.017,0.02 0.005,0.012 0.93,1.318 0.858,1.312 0.024,0.041 0.015,0.025 0.793,1.376 0.016,0.031 0.004,0.013 0.727,1.415 0.019,0.037 0.008,0.021 0.67,1.494 0.595,1.475 0.016,0.048 0.01,0.027 0.523,1.57 0.444,1.535 0.014,0.059 0.006,0.022 0.361,1.581 0.007,0.039 0.007,0.022 0.288,1.597 0.006,0.047 0.003,0.029 0.209,1.641 0.004,0.032 v 0.016 l 0.132,1.655 0.003,0.047 v 0.028 l 0.036,1.721 z"
           style="fill:#211f1f;fill-opacity:1;fill-rule:nonzero;stroke:none"
           id="path5310" />
      </g>
      <g
         id="g5312">
        <g
           id="g5314"
           clip-path="url(#clipPath5318)">
          <g
             id="g5320"
             transform="translate(205.189,695.7505)">
            <path
               d="M 0,0 C 16.611,0 30.166,-13.56 30.166,-30.168 30.166,-46.79 16.611,-60.346 0,-60.347 c -16.622,0 -30.177,13.557 -30.177,30.179 C -30.177,-13.56 -16.622,0 0,0"
               style="fill:#ffffff;fill-opacity:1;fill-rule:nonzero;stroke:none"
               id="path5322" />
          </g>
          <g
             id="g5324"
             transform="translate(184.7865,682.1458)">
            <path
               d="m 0,0 -6.362,-2.599 c -2.043,-3.894 -3.261,-8.279 -3.42,-12.928 l 4.274,-5.098 5.546,9.629 z m -2.902,-28.463 -0.302,-6.902 c 0.71,-0.889 1.464,-1.737 2.266,-2.538 2.381,-2.381 5.154,-4.367 8.21,-5.85 l 6.25,1.659 -6.41,9.073 z m 32.956,40.505 c -3.032,1.029 -6.281,1.587 -9.651,1.587 -2.93,0 -5.766,-0.422 -8.449,-1.206 L 10.668,7.903 21.241,4.594 31.987,7.066 Z m 16.92,-14.298 -6.047,2.35 -0.188,-11.101 5.438,-9.607 4.381,5.499 c 10e-4,0.004 10e-4,0.01 10e-4,0.012 -0.223,4.629 -1.498,8.989 -3.585,12.847 m -15.029,-31.74 -6.851,-8.617 6.602,-1.953 c 3.784,1.535 7.191,3.816 10.036,6.663 0.234,0.233 0.46,0.473 0.687,0.713 l -0.102,7.221 z"
               style="fill:#008066;fill-opacity:1;fill-rule:nonzero;stroke:none"
               id="path5326" />
          </g>
          <g
             id="g5328"
             transform="translate(218.2068,704.7959)">
            <path
               d="m 0,0 -0.75,-3.238 h -0.942 l 0.033,0.752 c 0.073,0.073 0.073,0.283 0.261,0.353 -0.294,0 -0.647,0.331 -0.718,0.508 -0.119,-0.177 -0.435,-0.508 -0.768,-0.508 0.19,-0.07 0.19,-0.28 0.261,-0.353 V -3.238 H -4.6 l 0.032,1.105 c 0.072,0.083 0.393,0.576 0.546,0.65 -0.296,0 -0.976,0.293 -1.085,0.468 -0.106,-0.175 -0.931,-0.468 -1.224,-0.468 0.142,-0.074 0.541,-0.567 0.612,-0.65 v -1.105 h -2.447 l 0.032,0.752 c 0.084,0.073 0.084,0.283 0.261,0.353 -0.293,0 -0.647,0.331 -0.716,0.508 -0.109,-0.177 -0.437,-0.508 -0.753,-0.508 0.175,-0.07 0.175,-0.28 0.245,-0.353 v -0.752 h -1.895 l 0.035,1.681 c 0.107,0.109 0.858,1.119 1.155,1.154 -0.544,0 -2.485,1.084 -2.732,1.66 -0.023,-0.045 -0.047,-0.08 -0.071,-0.13 -0.449,-0.586 -2.235,-1.53 -2.742,-1.53 0.291,-0.035 1.364,-0.999 1.518,-1.08 v -1.755 h -1.838 l 0.036,0.752 c 0.07,0.073 0.07,0.283 0.248,0.353 -0.317,0 -0.649,0.331 -0.717,0.508 -0.107,-0.177 -0.437,-0.508 -0.754,-0.508 0.176,-0.07 0.176,-0.28 0.247,-0.353 v -0.752 h -2.662 v 1.105 c 0.07,0.083 0.402,0.576 0.543,0.65 -0.283,0 -0.966,0.293 -1.084,0.468 -0.105,-0.175 -0.931,-0.468 -1.213,-0.468 0.141,-0.074 0.532,-0.567 0.613,-0.65 v -1.105 l -1.66,-0.035 0.035,0.717 c 0.071,0.107 0.106,0.316 0.248,0.353 -0.283,0 -0.613,0.331 -0.717,0.508 -0.038,-0.061 -0.095,-0.142 -0.178,-0.225 -0.153,-0.14 -0.353,-0.283 -0.542,-0.283 0.141,-0.037 0.189,-0.246 0.26,-0.353 v -0.751 h -1.26 v 2.904 l -4.638,2.38 3.19,-7.911 H 0.685 l 3.847,8.016 z m -22.682,-4.933 c -0.211,0 -0.401,0.14 -0.401,0.363 0,0.213 0.19,0.39 0.401,0.39 0.212,0 0.4,-0.177 0.4,-0.39 0,-0.223 -0.188,-0.363 -0.4,-0.363 m 4.86,0 c -0.224,0 -0.399,0.14 -0.399,0.363 0,0.213 0.175,0.39 0.399,0.39 0.215,0 0.391,-0.177 0.391,-0.39 0,-0.223 -0.176,-0.363 -0.391,-0.363 m 5.217,0 c -0.224,0 -0.401,0.14 -0.401,0.363 0,0.213 0.177,0.39 0.401,0.39 0.21,0 0.386,-0.177 0.386,-0.39 0,-0.223 -0.176,-0.363 -0.386,-0.363 m 5.248,0 h -0.01 c -0.224,0 -0.365,0.14 -0.365,0.363 0,0.213 0.141,0.39 0.365,0.39 h 0.01 c 0.215,-0.013 0.379,-0.189 0.379,-0.39 0,-0.21 -0.164,-0.354 -0.379,-0.363 m 4.159,0 c -0.216,0 -0.401,0.14 -0.401,0.363 0,0.213 0.185,0.39 0.401,0.39 0.21,0 0.398,-0.177 0.398,-0.39 0,-0.223 -0.188,-0.363 -0.398,-0.363 M -25.99,1.869 c 0.471,0.436 1.731,1.392 3.308,2.192 1.225,0.611 2.637,1.129 4.025,1.258 -0.717,-0.623 -3.544,-2.377 -4.025,-3.801 -0.047,-0.13 -0.07,-0.246 -0.07,-0.375 l 0.07,-0.025 2.624,-1.189 c 0.39,0.73 1.272,1.825 2.236,2.836 1.206,1.296 2.534,2.449 3.085,2.59 -0.176,-0.472 0.402,-1.153 0.789,-1.117 -0.753,-0.285 -1.613,-1.508 -1.542,-2.369 h 1.977 c 0,0.496 0.215,1.368 0.908,1.331 h 0.035 c 0.719,0.071 0.967,-0.835 0.929,-1.331 h 2.001 c 0.072,0.861 -0.81,2.084 -1.563,2.369 0.423,-0.036 0.999,0.645 0.822,1.117 0.531,-0.141 1.825,-1.271 3.024,-2.541 0.978,-1.025 1.897,-2.144 2.284,-2.885 l 1.875,0.858 0.788,0.356 c 0,0.468 -0.319,0.975 -0.788,1.481 -1.039,1.129 -2.768,2.225 -3.31,2.695 1.132,-0.105 2.271,-0.458 3.31,-0.918 C -1.281,3.564 0.308,2.377 0.862,1.869 1.155,3.237 2.769,4.095 3.956,3.953 2.075,5.579 -0.48,6.472 -3.198,6.909 -4.568,7.121 -5.966,7.226 -7.357,7.25 -7.591,7.263 -7.826,7.263 -8.05,7.263 h -3.378 c -0.106,0.245 -0.283,0.424 -0.494,0.505 v 2.12 h 1.4 v 1.116 h -1.366 v 1.545 h -1.364 v -1.545 h -1.342 V 9.888 h 1.412 v -2.12 c -0.224,-0.081 -0.436,-0.26 -0.543,-0.505 h -3.376 c -0.248,0 -0.484,0 -0.721,-0.013 -1.623,-0.024 -3.27,-0.165 -4.86,-0.47 -2.437,-0.471 -4.708,-1.342 -6.404,-2.827 1.154,0.142 2.814,-0.716 3.096,-2.084 m 13.385,5.605 h 0.035 c 0.422,0 0.791,-0.353 0.791,-0.788 0,-0.437 -0.369,-0.79 -0.791,-0.79 h -0.035 c -0.424,0.012 -0.729,0.364 -0.729,0.79 0,0.423 0.305,0.766 0.729,0.788"
               style="fill:#fdb927;fill-opacity:1;fill-rule:nonzero;stroke:none"
               id="path5330" />
          </g>
          <g
             id="g5332"
             transform="translate(200.645,678.8452)">
            <path
               d="m 0,0 h -1.591 c -0.034,0.247 -0.105,0.424 -0.246,0.576 -0.176,0.141 -0.364,0.211 -0.609,0.211 -0.298,0 -0.545,-0.104 -0.72,-0.328 -0.189,-0.249 -0.296,-0.611 -0.296,-1.142 0,-0.365 0.035,-0.613 0.154,-0.801 0.07,-0.176 0.176,-0.318 0.317,-0.424 0.142,-0.069 0.33,-0.141 0.545,-0.141 0.245,0 0.469,0.072 0.609,0.211 0.141,0.142 0.246,0.354 0.246,0.649 H 0.035 C 0,-1.519 -0.037,-1.765 -0.155,-1.977 -0.26,-2.201 -0.402,-2.413 -0.614,-2.625 -0.837,-2.849 -1.085,-3.027 -1.365,-3.13 c -0.296,-0.143 -0.648,-0.179 -1.049,-0.179 -0.4,0 -0.752,0.036 -1.084,0.179 -0.318,0.103 -0.611,0.246 -0.823,0.469 -0.211,0.211 -0.401,0.46 -0.542,0.753 -0.175,0.353 -0.246,0.789 -0.246,1.26 0,0.389 0.071,0.753 0.176,1.107 0.14,0.364 0.329,0.647 0.541,0.871 0.213,0.247 0.472,0.387 0.753,0.541 0.366,0.143 0.717,0.213 1.155,0.213 0.353,0 0.716,-0.07 1.036,-0.178 0.33,-0.116 0.611,-0.259 0.8,-0.469 0.21,-0.213 0.388,-0.47 0.493,-0.754 C -0.07,0.494 -0.037,0.247 0,0"
               style="fill:#211f1f;fill-opacity:1;fill-rule:nonzero;stroke:none"
               id="path5334" />
          </g>
        </g>
      </g>
      <g
         id="g5336"
         transform="translate(204.742,675.6772)">
        <path
           d="m 0,0 h -3.956 v 5.108 h 1.648 V 1.33 H 0 Z"
           style="fill:#211f1f;fill-opacity:1;fill-rule:nonzero;stroke:none"
           id="path5338" />
      </g>
      <g
         id="g5340">
        <g
           id="g5342"
           clip-path="url(#clipPath5346)">
          <g
             id="g5348"
             transform="translate(204.8478,677.7976)">
            <path
               d="m 0,0 v 2.988 h 1.693 v -3.166 c 0,-0.176 0,-0.364 0.071,-0.47 0.038,-0.106 0.143,-0.178 0.249,-0.247 0.142,-0.072 0.294,-0.106 0.47,-0.106 0.248,0 0.435,0.072 0.579,0.21 0.139,0.108 0.21,0.319 0.21,0.613 V 2.988 H 4.918 V 0 C 4.918,-0.402 4.884,-0.683 4.85,-0.895 4.768,-1.118 4.66,-1.295 4.519,-1.472 4.414,-1.649 4.239,-1.801 4.047,-1.908 3.838,-2.014 3.637,-2.12 3.377,-2.19 3.096,-2.225 2.802,-2.261 2.517,-2.261 2.118,-2.261 1.835,-2.225 1.541,-2.19 1.295,-2.12 1.083,-2.014 0.859,-1.908 0.682,-1.801 0.505,-1.649 0.402,-1.472 0.248,-1.295 0.141,-1.083 0.071,-0.791 0.034,-0.648 0,-0.354 0,0"
               style="fill:#211f1f;fill-opacity:1;fill-rule:nonzero;stroke:none"
               id="path5350" />
          </g>
          <g
             id="g5352"
             transform="translate(214.5828,677.9714)">
            <path
               d="m 0,0 c -0.143,0.192 -0.367,0.332 -0.613,0.403 0.437,0.282 0.647,0.646 0.647,1.082 0,0.459 -0.177,0.826 -0.575,1.036 -0.284,0.19 -0.755,0.293 -1.403,0.293 H -2.18 -4.462 v -5.108 h 2.282 0.307 c 0.401,0 0.683,0 0.825,0.037 0.189,0.034 0.33,0.104 0.507,0.175 0.141,0.072 0.293,0.179 0.365,0.259 0.14,0.143 0.246,0.284 0.317,0.461 C 0.21,-1.175 0.246,-1 0.246,-0.786 0.246,-0.457 0.141,-0.209 0,0 m -2.837,1.661 h 0.542 0.115 c 0.177,0 0.286,-0.01 0.343,-0.035 0.108,-0.035 0.192,-0.07 0.259,-0.141 0.037,-0.069 0.07,-0.187 0.07,-0.293 0,-0.106 -0.033,-0.213 -0.137,-0.318 C -1.753,0.802 -1.93,0.768 -2.18,0.768 H -2.19 -2.837 Z M -1.508,-1 C -1.613,-1.103 -1.837,-1.14 -2.153,-1.14 H -2.18 -2.837 v 0.966 h 0.657 0.027 c 0.316,0 0.54,-0.035 0.645,-0.106 0.107,-0.072 0.176,-0.212 0.176,-0.366 0,-0.14 -0.069,-0.282 -0.176,-0.354"
               style="fill:#211f1f;fill-opacity:1;fill-rule:nonzero;stroke:none"
               id="path5354" />
          </g>
        </g>
      </g>
      <g
         id="g5356"
         transform="translate(194.5223,653.2231)">
        <path
           d="m 0,0 h -3.554 v 4.603 h 1.506 V 1.222 H 0 Z"
           style="fill:#211f1f;fill-opacity:1;fill-rule:nonzero;stroke:none"
           id="path5358" />
      </g>
      <g
         id="g5360"
         transform="translate(198.0544,657.8257)">
        <path
           d="m 0,0 h -0.778 -0.775 l -1.649,-4.603 h 1.471 l 0.178,0.577 h 0.775 0.744 L 0.144,-4.603 H 1.649 Z M -0.778,-3.061 H -1.26 l 0.462,1.66 0.02,-0.058 0.485,-1.602 z"
           style="fill:#211f1f;fill-opacity:1;fill-rule:nonzero;stroke:none"
           id="path5362" />
      </g>
      <g
         id="g5364">
        <g
           id="g5366"
           clip-path="url(#clipPath5370)">
          <g
             id="g5372"
             transform="translate(204.0936,656.1309)">
            <path
               d="m 0,0 h -1.436 c -0.037,0.188 -0.152,0.294 -0.26,0.401 -0.139,0.104 -0.284,0.14 -0.457,0.14 -0.296,0 -0.508,-0.105 -0.648,-0.318 -0.187,-0.187 -0.294,-0.54 -0.294,-0.976 0,-0.473 0.107,-0.789 0.294,-0.966 0.14,-0.224 0.352,-0.33 0.648,-0.33 0.211,0 0.389,0.071 0.529,0.178 0.151,0.116 0.259,0.223 0.296,0.363 h -0.684 v 1.002 h 2.083 v -2.543 h -0.967 l -0.081,0.46 c -0.105,-0.141 -0.212,-0.247 -0.318,-0.285 -0.108,-0.105 -0.246,-0.175 -0.436,-0.211 -0.175,-0.046 -0.351,-0.081 -0.611,-0.081 -0.389,0 -0.788,0.081 -1.107,0.258 -0.363,0.178 -0.613,0.471 -0.837,0.824 -0.209,0.365 -0.281,0.79 -0.281,1.296 0,0.399 0.033,0.752 0.177,1.082 0.104,0.247 0.257,0.495 0.471,0.718 0.21,0.212 0.433,0.354 0.682,0.472 0.365,0.14 0.683,0.211 1.084,0.211 0.422,0 0.825,-0.071 1.142,-0.26 C -0.682,1.259 -0.436,1.047 -0.248,0.718 -0.141,0.541 -0.035,0.294 0,0"
               style="fill:#211f1f;fill-opacity:1;fill-rule:nonzero;stroke:none"
               id="path5374" />
          </g>
          <g
             id="g5376"
             transform="translate(204.7192,655.1658)">
            <path
               d="m 0,0 v 2.66 h 1.506 v -2.801 c 0,-0.223 0,-0.365 0.069,-0.435 0.037,-0.107 0.108,-0.178 0.223,-0.261 0.142,-0.069 0.248,-0.069 0.425,-0.069 0.224,0 0.4,0.034 0.507,0.186 0.14,0.107 0.177,0.284 0.177,0.579 V 2.66 H 4.414 V 0 c 0,-0.364 -0.037,-0.613 -0.07,-0.837 C 4.259,-1.013 4.191,-1.19 4.083,-1.329 3.943,-1.472 3.812,-1.624 3.624,-1.732 3.447,-1.836 3.272,-1.909 3.023,-1.978 2.766,-2.014 2.519,-2.049 2.223,-2.049 1.906,-2.049 1.612,-2.014 1.399,-1.978 1.152,-1.909 0.93,-1.836 0.785,-1.732 0.611,-1.624 0.469,-1.472 0.316,-1.329 0.209,-1.19 0.104,-0.978 0.068,-0.72 0,-0.576 0,-0.329 0,0"
               style="fill:#211f1f;fill-opacity:1;fill-rule:nonzero;stroke:none"
               id="path5378" />
          </g>
        </g>
      </g>
      <g
         id="g5380"
         transform="translate(211.1557,653.2231)">
        <path
           d="m 0,0 h -1.47 v 4.603 h 1.4 L 1.52,2.155 V 4.603 H 2.992 V 0 H 1.554 L 0,2.402 Z"
           style="fill:#211f1f;fill-opacity:1;fill-rule:nonzero;stroke:none"
           id="path5382" />
      </g>
      <g
         id="g5384"
         transform="translate(217.7497,657.8257)">
        <path
           d="m 0,0 h -0.776 -0.733 l -1.658,-4.603 h 1.47 l 0.188,0.613 H -0.776 0 L 0.14,-4.603 H 1.648 Z M -0.776,-3.061 H -1.26 l 0.484,1.636 0.022,0.061 0.46,-1.697 z"
           style="fill:#211f1f;fill-opacity:1;fill-rule:nonzero;stroke:none"
           id="path5386" />
      </g>
      <g
         id="g5388">
        <g
           id="g5390"
           clip-path="url(#clipPath5394)">
          <g
             id="g5396"
             transform="translate(187.3702,662.8604)">
            <path
               d="m 0,0 c -0.312,0.075 -0.641,0.112 -0.984,0.106 -3.085,-0.052 -4.963,-3.581 -3.207,-3.698 1.433,-0.094 2.931,1.61 3.583,2.627 C -0.404,-0.646 -0.202,-0.324 0,0 M 1.701,1.325 C 2.79,0.903 3.527,0.134 4.111,-0.839 4.826,-0.292 5.568,0.349 6.04,1.07 6.147,1.233 6.216,1.421 6.251,1.627 6.39,2.45 5.85,3.215 5.283,3.749 4.847,4.161 4.382,4.478 3.892,4.743 3.818,4.636 3.745,4.528 3.671,4.42 4.162,4.151 4.626,3.834 5.016,3.466 5.48,3.029 5.981,2.369 5.867,1.693 5.752,1.014 5.156,0.678 4.6,0.41 4.45,1.751 3.698,2.346 2.63,2.82 2.317,2.326 2.009,1.825 1.701,1.325 m -6.17,-5.48 C -6.878,-4.037 -5.465,1.948 -0.033,1.672 0.322,1.654 0.649,1.611 0.954,1.546 1.276,2.069 1.599,2.591 1.926,3.106 1.742,3.176 1.551,3.247 1.355,3.32 0.182,3.756 -0.489,3.962 -1.45,4.869 -2.844,6.182 -2.318,7.533 -1.555,8.17 -1.519,7.936 -1.463,7.663 -1.385,7.439 -0.979,6.257 0.632,5.655 1.691,5.26 1.893,5.185 2.096,5.111 2.299,5.037 2.534,4.951 2.772,4.855 3.008,4.749 3.082,4.856 3.156,4.962 3.23,5.067 2.779,5.269 2.311,5.445 1.827,5.625 c -0.876,0.326 -2.307,0.86 -2.76,1.742 -1.106,2.154 1.021,4.434 3.259,4.434 1.237,0 2.323,-0.609 2.975,-1.543 L 6.358,11.285 6.881,10.664 4.089,8.659 C 3.674,9.231 2.629,10.692 1.87,10.778 1.78,10.788 1.685,10.788 1.595,10.788 0.701,10.788 0.073,9.91 0.374,9.076 0.75,8.036 2.366,7.413 3.305,7.063 3.664,6.929 4.043,6.794 4.42,6.646 5.239,7.651 6.118,8.556 7.096,9.3 L 7.932,9.223 C 6.888,8.429 5.957,7.452 5.092,6.367 6.38,5.787 7.495,4.982 7.509,3.501 7.53,1.351 4.362,-1.311 2.583,-1.984 2.119,-1.219 1.486,-0.613 0.724,-0.255 0.565,-0.509 0.406,-0.762 0.245,-1.013 -0.58,-2.303 -2.686,-4.242 -4.469,-4.155"
               style="fill:#211f1f;fill-opacity:1;fill-rule:nonzero;stroke:none"
               id="path5398" />
          </g>
          <g
             id="g5400"
             transform="translate(201.3658,663.708)">
            <path
               d="m 0,0 -0.223,-0.342 c -0.342,-0.072 -0.636,0.086 -0.818,0.45 v 3.359 c 0.22,0.344 1.076,1.271 1.076,1.271 L -0.33,5.153 -0.821,4.774 C -1.149,4.847 -1.49,5.373 -1.602,5.775 L -2.31,5.811 C -2.676,5.349 -3.078,4.677 -3.8,4.544 -3.884,4.518 -3.971,4.518 -4.07,4.518 -4.032,4.922 -4.105,5.995 -5.374,5.727 -5.813,5.301 -6.193,4.774 -5.52,3.958 -4.887,3.174 -4.434,2.466 -4.434,2.466 -5.777,1.709 -7.792,-1.013 -5.07,-1.905 c 0.598,-0.047 0.977,0.085 1.27,0.295 0.391,0.267 0.649,0.657 1.112,0.976 0.036,-0.379 0.524,-1.797 1.684,-1.233 0.439,0.378 1.039,0.708 1.307,1.646 z m -2.652,0.328 c 0,0 -0.366,-0.475 -0.818,-0.742 -0.122,-0.062 -0.231,-0.11 -0.33,-0.135 -0.305,-0.111 -0.525,-0.051 -0.868,0.171 -0.743,1.122 0.196,2.246 0.598,2.429 l 0.27,-0.317 0.366,-0.427 0.49,0.523 c 0,0 -0.453,0.577 -0.856,1.077 -0.219,0.282 -0.414,0.538 -0.525,0.672 0.196,0.011 0.378,0.046 0.525,0.109 0.318,0.123 0.525,0.329 0.635,0.599 0,-0.329 0.292,-0.476 0.513,-0.672 z"
               style="fill:#211f1f;fill-opacity:1;fill-rule:nonzero;stroke:none"
               id="path5402" />
          </g>
          <g
             id="g5404"
             transform="translate(201.4742,668.0676)">
            <path
               d="M 0,0 1.306,1.416 C 2.089,1.525 2.575,1.11 2.575,-0.708 3.357,0.121 4.59,1.368 4.59,1.368 c 0.268,0.23 0.819,0.303 1.051,0 0.182,-0.294 0.367,-0.953 1.001,-0.66 0.659,0.306 0.513,0.33 0.513,0.33 l 0.33,-0.44 C 7.155,0.158 6.787,-0.441 6.422,-0.635 v -4.139 c 0.108,-0.185 0.146,-0.292 0.294,-0.292 0.158,0 0.328,0.328 0.328,0.328 L 7.449,-5.214 6.348,-6.375 C 6.044,-6.63 5.788,-6.63 5.567,-6.52 5.334,-6.447 4.738,-5.739 4.738,-5.14 v 4.175 L 4.225,-0.146 2.65,-1.747 v -3.137 c 0.194,-0.182 0.342,-0.182 0.487,-0.22 0.184,-0.036 0.341,0.366 0.341,0.366 L 3.955,-4.92 2.759,-6.484 C 2.502,-6.667 1.978,-6.667 1.832,-6.375 1.647,-6.081 1.344,-5.776 1.124,-5.812 0.939,-5.848 0.561,-6.117 0.488,-6.227 l -0.416,0.379 c 0,0 0.83,0.964 1.016,1.038 v 4.261 c -0.112,0.256 -0.256,0.513 -0.711,0.147 z"
               style="fill:#211f1f;fill-opacity:1;fill-rule:nonzero;stroke:none"
               id="path5406" />
          </g>
          <g
             id="g5408"
             transform="translate(210.1932,669.5569)">
            <path
               d="M 0,0 V 3.054 L 1.682,4.03 V 0.036 c 0.221,-0.074 0.404,-0.158 0.526,-0.074 0.145,0.074 0.254,0.33 0.254,0.33 h 0.601 c 0,-0.45 -0.415,-1.074 -0.634,-1.294 H 1.682 v -4.774 c 0.221,-0.294 0.221,-0.451 0.404,-0.328 0.16,0.108 0.525,0.438 0.525,0.438 L 3.063,-6.191 C 2.842,-6.556 1.903,-7.376 1.682,-7.536 1.449,-7.716 0.976,-7.827 0.742,-7.679 c -0.256,0.195 -0.22,0.903 -0.926,0.524 -0.49,-0.221 -0.49,-0.257 -0.49,-0.257 l -0.331,0.55 c 0,0 0.674,0.721 1.005,0.866 v 4.849 c 0,0 -0.257,0.073 -0.404,-0.037 -0.11,-0.111 -0.307,-0.221 -0.27,-0.378 h -0.56 c 0.121,0.378 0.267,1.182 0.634,1.524 z"
               style="fill:#211f1f;fill-opacity:1;fill-rule:nonzero;stroke:none"
               id="path5410" />
          </g>
          <g
             id="g5412"
             transform="translate(218.8849,667.627)">
            <path
               d="M 0,0 C 0.343,0.295 0.855,0.855 0.939,1.111 L 0.635,1.624 C 0.453,1.271 0.378,1.076 -0.037,1.003 -0.402,0.927 -1.308,1.735 -1.379,1.93 -1.635,2.111 -1.832,2.039 -1.942,1.892 -1.99,1.833 -2.199,1.685 -2.505,1.502 -3.103,1.148 -4.079,0.696 -5.067,0.746 -5.334,0.441 -5.371,0.295 -5.298,0.147 -5.187,0 -4.921,0 -4.848,-0.268 v -3.993 c -0.29,-0.218 -0.855,-0.671 -0.928,-0.817 l 0.257,-0.257 c 0.381,0.11 0.745,0.365 0.855,0.257 0.196,-0.184 0.636,-0.746 0.781,-0.928 0.343,-0.073 0.636,-0.073 0.866,0.036 0.076,0.036 0.271,0.207 0.512,0.404 0.392,0.292 0.893,0.634 1.163,0.634 0.413,0.048 1.685,0.232 1.831,0.195 v 0.404 C 0.27,-4.261 0,-4.066 0,-4.066 Z M -1.599,-4.297 C -1.78,-4.333 -2.271,-4.59 -2.271,-4.59 l -0.234,0.147 -0.89,0.561 v 4.177 l 0.675,0.487 c 0.008,-0.157 0.094,-0.305 0.215,-0.439 0.285,-0.294 0.725,-0.525 0.906,-0.611 z"
               style="fill:#211f1f;fill-opacity:1;fill-rule:nonzero;stroke:none"
               id="path5414" />
          </g>
          <g
             id="g5416"
             transform="translate(225.748,663.5996)">
            <path
               d="m 0,0 v 2.343 c 0,0 0.195,-0.035 0.305,0.073 0.222,0.194 0.109,0.415 -0.148,0.489 h -2.051 l 1.857,2.783 c 0,0 -0.147,0.378 -0.292,0.49 C -0.514,6.031 -0.636,5.883 -1.184,5.688 -1.711,5.482 -2.306,6.104 -2.455,6.288 -2.628,6.421 -2.674,6.411 -2.884,6.225 L -2.944,6.178 C -3.199,5.762 -3.687,5.506 -4.395,5.262 -5.177,5.176 -5.374,5.103 -5.703,4.955 -5.776,4.663 -5.337,4.468 -5.069,4.323 V 2.308 c 0,0 -0.268,-0.149 -0.561,-0.296 -0.294,-0.195 -0.182,-0.451 0.112,-0.56 h 1.755 l -1.904,-2.979 0.525,-0.195 c 0.915,0.78 1.845,0.414 2.258,0.046 0.016,-0.01 0.037,-0.023 0.051,-0.046 0.147,-0.221 0.414,-0.184 0.56,-0.074 0.257,0.598 1.759,1.124 2.468,1.27 0.182,0.035 0.219,0.11 0.219,0.293 C 0.414,-0.039 0.266,-0.147 0,0 m -2.884,4.359 c 0.551,-0.111 1.271,0.133 1.735,0.561 L -2.614,2.795 h -0.27 -0.73 L -3.652,5.03 C -3.54,4.638 -3.249,4.432 -2.884,4.359 m 1.321,-4.738 C -1.954,-0.113 -2.225,0.279 -2.884,0.169 -3.054,0.145 -3.249,0.097 -3.466,0 -4.544,-0.452 -4.141,-0.147 -4.141,-0.147 l 1.257,1.807 0.233,0.352 h 1.088 z"
               style="fill:#211f1f;fill-opacity:1;fill-rule:nonzero;stroke:none"
               id="path5418" />
          </g>
        </g>
      </g>
      <g
         id="g5420"
         transform="translate(223.8906,653.2231)">
        <path
           d="M 0,0 H -0.54 V 2.224 L -1.002,0 H -1.576 L -2.048,2.224 V 0 h -0.506 v 2.661 h 0.786 L -1.296,0.577 -0.79,2.661 H 0 Z"
           style="fill:#211f1f;fill-opacity:1;fill-rule:nonzero;stroke:none"
           id="path5422" />
      </g>
      <path
         d="m 224.36,653.223 h 0.579 v 0.542 h -0.579 z"
         style="fill:#211f1f;fill-opacity:1;fill-rule:nonzero;stroke:none"
         id="path5424" />
      <g
         id="g5426">
        <g
           id="g5428"
           clip-path="url(#clipPath5432)">
          <g
             id="g5434"
             transform="translate(227.5297,653.8362)">
            <path
               d="M 0,0 C 0,0.506 -0.107,0.577 -0.332,0.646 -0.072,0.751 0.07,1 0.07,1.293 c 0,0.212 -0.142,0.755 -0.825,0.755 h -0.258 -1.071 v -2.661 h 0.527 v 1.047 h 0.544 0.035 c 0.399,0 0.436,-0.152 0.436,-0.506 0,-0.259 0,-0.4 0.036,-0.541 h 0.611 v 0.072 C 0,-0.472 0,-0.401 0,0 m -0.907,0.858 h -0.106 -0.544 v 0.719 h 0.544 0.142 c 0.329,0 0.4,-0.214 0.4,-0.353 0,-0.261 -0.14,-0.366 -0.436,-0.366"
               style="fill:#211f1f;fill-opacity:1;fill-rule:nonzero;stroke:none"
               id="path5436" />
          </g>
        </g>
      </g>
      <path
         d="m 228.023,653.223 h 0.577 v 0.542 h -0.577 z"
         style="fill:#211f1f;fill-opacity:1;fill-rule:nonzero;stroke:none"
         id="path5438" />
      <g
         id="g5440"
         transform="translate(201.2786,626.3901)">
        <path
           d="M 0,0 -3.158,0.064 -4.196,3.048 -5.233,0.064 -8.391,0 l 2.517,-1.908 -0.915,-3.024 2.593,1.804 2.593,-1.804 -0.914,3.024 z"
           style="fill:#fdb927;fill-opacity:1;fill-rule:nonzero;stroke:none"
           id="path5442" />
      </g>
      <g
         id="g5444"
         transform="translate(186.3647,632.5447)">
        <path
           d="M 0,0 -3.158,0.064 -4.196,3.048 -5.233,0.064 -8.391,0 l 2.517,-1.909 -0.915,-3.023 2.593,1.804 2.593,-1.804 -0.914,3.023 z"
           style="fill:#fdb927;fill-opacity:1;fill-rule:nonzero;stroke:none"
           id="path5446" />
      </g>
      <g
         id="g5448"
         transform="translate(174.9789,643.9827)">
        <path
           d="M 0,0 -3.159,0.064 -4.196,3.048 -5.233,0.064 -8.391,0 l 2.517,-1.908 -0.915,-3.024 2.593,1.804 2.593,-1.804 -0.914,3.024 z"
           style="fill:#fdb927;fill-opacity:1;fill-rule:nonzero;stroke:none"
           id="path5450" />
      </g>
      <g
         id="g5452"
         transform="translate(209.0884,626.3901)">
        <path
           d="M 0,0 3.158,0.064 4.196,3.048 5.233,0.064 8.391,0 5.874,-1.908 6.789,-4.932 4.196,-3.128 1.603,-4.932 2.517,-1.908 Z"
           style="fill:#fdb927;fill-opacity:1;fill-rule:nonzero;stroke:none"
           id="path5454" />
      </g>
      <g
         id="g5456"
         transform="translate(224.0023,632.5447)">
        <path
           d="M 0,0 3.158,0.064 4.196,3.048 5.233,0.064 8.391,0 5.874,-1.909 6.789,-4.932 4.196,-3.128 1.603,-4.932 2.517,-1.909 Z"
           style="fill:#fdb927;fill-opacity:1;fill-rule:nonzero;stroke:none"
           id="path5458" />
      </g>
      <g
         id="g5460"
         transform="translate(235.3881,643.9827)">
        <path
           d="M 0,0 3.159,0.064 4.196,3.048 5.233,0.064 8.391,0 5.874,-1.908 6.789,-4.932 4.196,-3.128 1.603,-4.932 2.517,-1.908 Z"
           style="fill:#fdb927;fill-opacity:1;fill-rule:nonzero;stroke:none"
           id="path5462" />
      </g>
    </g>
  </g>
</svg>
