<?xml version="1.0" encoding="UTF-8" standalone="no"?>
<!-- Generator: Adobe Illustrator 25.2.3, SVG Export Plug-In . SVG Version: 6.00 Build 0)  -->

<svg
   xmlns:dc="http://purl.org/dc/elements/1.1/"
   xmlns:cc="http://creativecommons.org/ns#"
   xmlns:rdf="http://www.w3.org/1999/02/22-rdf-syntax-ns#"
   xmlns:svg="http://www.w3.org/2000/svg"
   xmlns="http://www.w3.org/2000/svg"
   xmlns:sodipodi="http://sodipodi.sourceforge.net/DTD/sodipodi-0.dtd"
   xmlns:inkscape="http://www.inkscape.org/namespaces/inkscape"
   version="1.1"
   id="Calque_1"
   x="0px"
   y="0px"
   viewBox="0 0 1000 1431.0658"
   xml:space="preserve"
   sodipodi:docname="Logo-Splash.svg"
   width="1000"
   height="1431.0658"
   inkscape:version="0.92.4 (5da689c313, 2019-01-14)"><metadata
   id="metadata15"><rdf:RDF><cc:Work
       rdf:about=""><dc:format>image/svg+xml</dc:format><dc:type
         rdf:resource="http://purl.org/dc/dcmitype/StillImage" /><dc:title></dc:title></cc:Work></rdf:RDF></metadata><defs
   id="defs13" /><sodipodi:namedview
   pagecolor="#ffffff"
   bordercolor="#666666"
   borderopacity="1"
   objecttolerance="10"
   gridtolerance="10"
   guidetolerance="10"
   inkscape:pageopacity="0"
   inkscape:pageshadow="2"
   inkscape:window-width="1920"
   inkscape:window-height="1017"
   id="namedview11"
   showgrid="false"
   fit-margin-top="0"
   fit-margin-left="0"
   fit-margin-right="0"
   fit-margin-bottom="0"
   inkscape:zoom="0.28771931"
   inkscape:cx="757.84511"
   inkscape:cy="84.339974"
   inkscape:window-x="1912"
   inkscape:window-y="-8"
   inkscape:window-maximized="1"
   inkscape:current-layer="Calque_1" />
<style
   type="text/css"
   id="style2">
	.st0{fill:#FFFFFF;}
</style>
<g
   id="g8"
   style="fill:#791417;fill-opacity:1"
   transform="matrix(10.092854,0,0,10.092854,-4.6427128,-16.249495)">
	<path
   class="st0"
   d="M 39.22,28.45 V 57.19 H 24.86 v 21.55 h 14.37 v 7.18 H 10.49 v 21.56 h 28.74 v 14.37 L 60.78,143.4 V 107.48 H 89.52 V 85.92 H 60.78 V 78.74 H 75.15 V 57.18 H 60.78 V 50 C 53.59,42.81 46.41,35.63 39.22,28.45"
   id="path4"
   style="fill:#791417;fill-opacity:1"
   inkscape:connector-curvature="0" />
	<path
   class="st0"
   d="M 4.48,5.45 H 12.4 V 1.61 H 4.48 0.46 V 21.99 H 4.48 V 14.48 H 12.2 V 10.64 H 4.48 Z m 13.46,9.26 c 0,-2.33 1.72,-3.99 3.93,-3.99 1.54,0 2.8,0.79 3.32,2.01 h 3.96 C 28.48,9.41 25.48,7.02 21.87,7.02 c -4.43,0 -7.69,3.35 -7.69,7.69 0,4.34 3.26,7.69 7.69,7.69 3.61,0 6.61,-2.39 7.28,-5.74 h -3.96 c -0.5,1.25 -1.78,2.01 -3.32,2.01 -2.21,0 -3.93,-1.66 -3.93,-3.96 m 36.89,7.28 h 3.99 V 1.61 H 54.25 L 48.86,14.07 43.45,1.61 H 42.9 38.88 V 21.99 H 42.9 V 8.3 l 4.51,10.43 h 2.91 L 54.83,8.3 Z m 18.06,-8.68 h -7.34 c 0.47,-1.83 1.81,-2.91 3.81,-2.91 1.58,0 3.09,0.82 3.53,2.91 m 3.61,2.94 c 0.12,-0.5 0.15,-0.99 0.15,-1.54 0,-4.28 -2.97,-7.69 -7.25,-7.69 -4.6,0 -7.72,3.35 -7.72,7.69 0,4.34 3.06,7.69 7.8,7.69 3.26,0 5.82,-1.66 6.73,-4.6 l -3.7,0.03 c -0.5,0.82 -1.66,1.46 -3,1.46 -1.86,0 -3.44,-0.96 -3.93,-3.03 H 76.5 Z m 23.04,2.22 H 93.08 L 99.25,9.94 V 7.44 H 84.1 V 2.77 h -3.76 v 4.66 h -2.53 v 3.61 h 2.53 V 21.99 H 84.1 V 10.95 h 10.08 l -6.14,8.53 v 2.5 h 11.5 z"
   id="path6"
   style="fill:#791417;fill-opacity:1"
   inkscape:connector-curvature="0" />
</g>
</svg>