<?xml version="1.0" encoding="utf-8"?>
<!-- Generator: Adobe Illustrator 13.0.0, SVG Export Plug-In . SVG Version: 6.00 Build 14948)  -->
<!DOCTYPE svg PUBLIC "-//W3C//DTD SVG 1.1//EN" "http://www.w3.org/Graphics/SVG/1.1/DTD/svg11.dtd">
<svg version="1.1" id="Ebene_1" xmlns="http://www.w3.org/2000/svg" xmlns:xlink="http://www.w3.org/1999/xlink" x="0px" y="0px"
	 width="116.384px" height="173.242px" viewBox="0 0 116.384 173.242" enable-background="new 0 0 116.384 173.242"
	 xml:space="preserve">
<g>
	<path fill-rule="evenodd" clip-rule="evenodd" fill="#172980" d="M58.192,173.242c34.61-20.584,58.221-44.238,58.192-76.574
		c0-6.392,0-12.784,0-19.175c0-7.962,0-15.923,0-23.885c0-1.484,0-2.97,0-4.454c0-1.056,0-2.112,0-3.168c0-8.546,0-17.093,0-25.639
		H0C0,32.47,0,44.594,0,56.718c0,0.833,0,1.665,0,2.497c0,1.756,0,3.512,0,5.267c0,7.879,0,15.757,0,23.636c0,2.85,0,5.699,0,8.55
		C-0.029,129.004,23.581,152.658,58.192,173.242L58.192,173.242z"/>
	<path fill-rule="evenodd" clip-rule="evenodd" fill="#FFFFFF" d="M116.384,45.985c-22.061,14.057-39.561,9.74-57.439,5.297
		C39.796,46.523,19.648,42.742,0,56.718c0,10.466,0,20.933,0,31.4c20.249-13.021,38.863-10.457,57.326-5.233
		c19.179,5.425,35.951,9.836,59.058-5.392C116.384,66.99,116.384,56.488,116.384,45.985L116.384,45.985z"/>
	<path fill-rule="evenodd" clip-rule="evenodd" fill="#DC1D25" d="M116.384,49.153c-22.061,14.057-39.624,9.104-57.439,4.41
		C37.515,47.917,19.648,45.91,0,59.886c0,10.467,0-6.119,0,4.348c20.249-13.021,36.676-12.264,57.326-6.374
		c19.128,5.455,35.951,10.977,59.058-4.252C116.384,43.105,116.384,59.655,116.384,49.153L116.384,49.153z"/>
	<polygon fill-rule="evenodd" clip-rule="evenodd" fill="#FFFFFF" points="0,17.359 116.384,17.359 116.384,20.346 0,20.346 
		0,17.359 	"/>
	<polygon fill-rule="evenodd" clip-rule="evenodd" fill="#DC1D25" points="0,0 116.384,0 116.384,17.359 0,17.359 0,0 	"/>
	<path fill-rule="evenodd" clip-rule="evenodd" fill="#FFFFFF" d="M58.192,138.492c-0.274-0.084-0.611-0.06-0.824-0.253
		c-0.512-0.466-0.91-1.054-1.267-1.647c-0.512-0.849-0.812-1.815-1.33-2.661c-0.458-0.745-0.932-1.509-1.584-2.09
		c-1.12-0.998-2.442-1.743-3.675-2.598c-1.598-1.109-3.346-2.021-4.815-3.295c-0.775-0.672-1.347-1.568-1.837-2.471
		c-0.449-0.827-0.793-1.732-0.95-2.661c-0.082-0.485,0.003-1.032,0.253-1.457c0.471-0.799,1.181-1.435,1.837-2.091
		c0.572-0.571,1.194-1.094,1.837-1.584c0.332-0.252,0.723-0.415,1.077-0.633c0.194-0.12,0.498-0.164,0.57-0.381
		c0.045-0.134-0.239-0.172-0.38-0.189c-0.524-0.067-1.065-0.163-1.584-0.063c-0.604,0.116-1.171,0.401-1.711,0.697
		c-0.585,0.32-1.094,0.767-1.647,1.14c-0.228,0.154-0.422,0.419-0.697,0.443c-0.254,0.023-0.507-0.146-0.697-0.316
		c-0.227-0.203-0.313-0.525-0.507-0.76c-0.104-0.128-0.219-0.28-0.38-0.317c-0.149-0.034-0.321,0.033-0.443,0.127
		c-0.167,0.129-0.327,0.303-0.38,0.507c-0.08,0.307,0.052,0.638,0,0.95c-0.034,0.205-0.141,0.396-0.254,0.57
		c-0.163,0.252-0.309,0.549-0.57,0.697c-0.26,0.146-0.588,0.117-0.887,0.126c-0.359,0.012-0.717-0.063-1.077-0.063
		c-0.296,0-0.605-0.03-0.887,0.063c-0.245,0.082-0.475,0.241-0.634,0.443c-0.092,0.118-0.196,0.377-0.063,0.444
		c0.211,0.105,0.461-0.118,0.697-0.127c0.317-0.013,0.651-0.044,0.95,0.063c0.605,0.216,1.209,0.485,1.711,0.887
		c0.572,0.458,1.031,1.051,1.457,1.647c0.633,0.887,1.079,1.898,1.71,2.787c0.512,0.721,1.085,1.402,1.71,2.027
		c0.395,0.395,0.896,0.664,1.331,1.014c0.221,0.179,0.473,0.336,0.633,0.57c0.125,0.182,0.169,0.414,0.19,0.634
		c0.022,0.232,0.141,0.584-0.063,0.696c-0.352,0.193-0.803,0.02-1.204,0c-0.466-0.022-0.93-0.072-1.394-0.126
		c-0.255-0.03-0.518-0.043-0.76-0.127c-0.312-0.108-0.612-0.261-0.887-0.443c-0.174-0.116-0.28-0.313-0.443-0.443
		c-0.155-0.125-0.334-0.417-0.507-0.317c-0.23,0.135-0.253,0.493-0.253,0.761c0,0.308,0.102,0.619,0.253,0.887
		c0.215,0.379,0.501,0.722,0.824,1.014c0.339,0.307,0.702,0.633,1.14,0.761c0.61,0.178,1.267,0.099,1.901,0.126
		c0.823,0.036,1.647,0.063,2.471,0.063c0.528,0,1.056-0.063,1.583-0.063c0.296,0,0.602-0.017,0.887,0.063
		c0.254,0.071,0.458,0.265,0.697,0.38c0.417,0.202,0.864,0.343,1.267,0.57c0.423,0.239,0.84,0.502,1.204,0.824
		c0.381,0.337,0.695,0.744,1.014,1.14c0.209,0.26,0.446,0.514,0.57,0.824c0.094,0.235,0.116,0.512,0.063,0.76
		c-0.037,0.178-0.165,0.343-0.316,0.443c-0.184,0.123-0.413,0.19-0.634,0.19c-0.24,0-0.483-0.079-0.697-0.19
		c-0.406-0.209-0.769-0.493-1.14-0.76c-0.306-0.22-0.559-0.514-0.887-0.697c-0.21-0.117-0.457-0.176-0.697-0.189
		c-0.133-0.008-0.316,0.009-0.38,0.126c-0.091,0.167-0.056,0.389,0,0.57c0.096,0.316,0.226,0.639,0.443,0.888
		c0.384,0.439,0.924,0.72,1.33,1.14c0.212,0.219,0.466,0.459,0.507,0.761c0.032,0.233-0.116,0.509-0.316,0.634
		c-0.292,0.181-0.673,0.149-1.014,0.189c-0.378,0.045-0.76,0.052-1.141,0.063c-0.295,0.009-0.654-0.183-0.887,0
		c-0.183,0.144-0.061,0.473,0,0.697c0.091,0.337,0.183,0.717,0.443,0.95c0.366,0.327,0.852,0.522,1.33,0.634
		c0.453,0.104,0.934,0.06,1.394,0c0.351-0.047,0.677-0.209,1.014-0.317c0.254-0.081,0.498-0.208,0.76-0.253
		c0.229-0.04,0.509-0.137,0.697,0c0.252,0.183,0.345,0.527,0.443,0.823c0.178,0.534,0.236,1.103,0.38,1.647
		c0.174,0.659,0.345,1.32,0.57,1.964c0.197,0.563,0.44,1.109,0.697,1.647c0.187,0.392,0.425,0.759,0.633,1.14
		c0.172,0.315,0.366,0.621,0.507,0.95c0.113,0.265,0.282,0.538,0.254,0.824c-0.039,0.386-0.321,0.709-0.443,1.077
		c-0.089,0.267-0.226,0.544-0.19,0.823c0.033,0.263,0.213,0.492,0.38,0.697c0.218,0.266,0.478,0.501,0.761,0.696
		c0.271,0.188,0.591,0.296,0.95,0.443c0.359-0.147,0.679-0.255,0.95-0.443c0.283-0.195,0.543-0.431,0.76-0.696
		c0.168-0.205,0.348-0.435,0.381-0.697c0.035-0.279-0.102-0.557-0.19-0.823c-0.122-0.368-0.405-0.691-0.443-1.077
		c-0.028-0.286,0.14-0.56,0.253-0.824c0.143-0.329,0.336-0.635,0.508-0.95c0.207-0.381,0.445-0.748,0.633-1.14
		c0.257-0.538,0.5-1.085,0.697-1.647c0.226-0.644,0.396-1.305,0.57-1.964c0.143-0.545,0.201-1.113,0.38-1.647
		c0.099-0.296,0.19-0.641,0.443-0.823c0.188-0.137,0.468-0.04,0.697,0c0.263,0.045,0.506,0.172,0.761,0.253
		c0.336,0.108,0.662,0.271,1.014,0.317c0.46,0.06,0.941,0.104,1.393,0c0.479-0.111,0.965-0.307,1.331-0.634
		c0.261-0.233,0.353-0.613,0.443-0.95c0.061-0.225,0.183-0.554,0-0.697c-0.232-0.183-0.592,0.009-0.887,0
		c-0.381-0.012-0.763-0.019-1.141-0.063c-0.341-0.04-0.722-0.009-1.014-0.189c-0.2-0.125-0.349-0.4-0.317-0.634
		c0.041-0.302,0.296-0.542,0.508-0.761c0.406-0.42,0.945-0.7,1.33-1.14c0.218-0.249,0.348-0.571,0.443-0.888
		c0.055-0.182,0.092-0.403,0-0.57c-0.064-0.117-0.246-0.134-0.38-0.126c-0.24,0.014-0.487,0.072-0.696,0.189
		c-0.328,0.184-0.582,0.478-0.888,0.697c-0.371,0.267-0.734,0.551-1.14,0.76c-0.215,0.111-0.457,0.19-0.697,0.19
		c-0.221,0-0.451-0.067-0.634-0.19c-0.151-0.101-0.279-0.266-0.317-0.443c-0.052-0.248-0.031-0.524,0.064-0.76
		c0.123-0.311,0.36-0.564,0.57-0.824c0.318-0.396,0.633-0.803,1.014-1.14c0.363-0.322,0.779-0.585,1.203-0.824
		c0.403-0.228,0.85-0.368,1.268-0.57c0.237-0.115,0.441-0.309,0.696-0.38c0.285-0.08,0.591-0.063,0.888-0.063
		c0.527,0,1.055,0.063,1.583,0.063c0.823,0,1.647-0.027,2.472-0.063c0.633-0.027,1.291,0.052,1.9-0.126
		c0.438-0.128,0.801-0.454,1.141-0.761c0.322-0.292,0.608-0.635,0.822-1.014c0.152-0.268,0.254-0.579,0.254-0.887
		c0-0.268-0.022-0.626-0.254-0.761c-0.172-0.1-0.351,0.192-0.506,0.317c-0.164,0.13-0.27,0.327-0.443,0.443
		c-0.275,0.183-0.575,0.335-0.887,0.443c-0.243,0.084-0.506,0.097-0.762,0.127c-0.463,0.054-0.928,0.104-1.393,0.126
		c-0.401,0.02-0.853,0.193-1.204,0c-0.204-0.112-0.085-0.464-0.063-0.696c0.021-0.22,0.065-0.452,0.189-0.634
		c0.161-0.234,0.413-0.392,0.635-0.57c0.434-0.35,0.936-0.619,1.33-1.014c0.625-0.625,1.198-1.307,1.711-2.027
		c0.631-0.889,1.076-1.9,1.71-2.787c0.427-0.597,0.885-1.189,1.457-1.647c0.501-0.401,1.106-0.671,1.71-0.887
		c0.3-0.107,0.634-0.076,0.951-0.063c0.236,0.009,0.485,0.232,0.697,0.127c0.133-0.067,0.028-0.326-0.064-0.444
		c-0.158-0.202-0.389-0.361-0.633-0.443c-0.281-0.094-0.591-0.063-0.887-0.063c-0.359,0-0.718,0.075-1.078,0.063
		c-0.298-0.009-0.627,0.021-0.887-0.126c-0.261-0.148-0.406-0.445-0.57-0.697c-0.113-0.175-0.219-0.365-0.253-0.57
		c-0.052-0.313,0.08-0.644,0-0.95c-0.054-0.204-0.212-0.378-0.38-0.507c-0.122-0.094-0.294-0.161-0.443-0.127
		c-0.16,0.037-0.275,0.189-0.381,0.317c-0.193,0.234-0.279,0.557-0.506,0.76c-0.19,0.17-0.443,0.34-0.697,0.316
		c-0.274-0.024-0.469-0.289-0.697-0.443c-0.553-0.373-1.061-0.819-1.646-1.14c-0.541-0.296-1.106-0.581-1.711-0.697
		c-0.52-0.1-1.061-0.004-1.584,0.063c-0.141,0.018-0.425,0.056-0.38,0.189c0.071,0.217,0.376,0.261,0.569,0.381
		c0.355,0.218,0.746,0.381,1.078,0.633c0.643,0.49,1.266,1.013,1.837,1.584c0.655,0.656,1.366,1.292,1.837,2.091
		c0.25,0.425,0.336,0.972,0.254,1.457c-0.157,0.929-0.501,1.834-0.951,2.661c-0.489,0.902-1.061,1.799-1.836,2.471
		c-1.471,1.273-3.219,2.186-4.815,3.295c-1.232,0.854-2.556,1.6-3.675,2.598c-0.652,0.581-1.127,1.345-1.584,2.09
		c-0.518,0.846-0.818,1.813-1.33,2.661c-0.357,0.594-0.755,1.182-1.267,1.647C58.803,138.433,58.466,138.408,58.192,138.492
		L58.192,138.492z"/>
	<path fill-rule="evenodd" clip-rule="evenodd" fill="#FFFFFF" d="M18.183,128.482c-0.239,0-0.425-0.058-0.552-0.172
		c-0.126-0.119-0.19-0.28-0.19-0.49c0-0.284,0.232-0.563,0.7-0.839c0.049-0.031,0.081-0.05,0.095-0.058
		c0.088-0.046,0.151-0.111,0.183-0.203c0.035-0.089,0.053-0.237,0.053-0.448v-0.157V114.42c0-0.299-0.025-0.506-0.074-0.62
		c-0.045-0.119-0.141-0.23-0.277-0.345c-0.024-0.023-0.07-0.054-0.134-0.1c-0.267-0.195-0.4-0.438-0.4-0.732
		c0-0.229,0.088-0.413,0.267-0.544c0.18-0.13,0.436-0.195,0.773-0.195h9.275c0.64,0,1.055,0.169,1.248,0.51s0.288,1.068,0.288,2.184
		c0,0.414-0.049,0.709-0.144,0.893c-0.095,0.184-0.25,0.275-0.464,0.275c-0.26,0-0.58-0.253-0.956-0.762
		c-0.102-0.142-0.187-0.257-0.246-0.337c-0.285-0.353-0.636-0.602-1.062-0.747s-1.072-0.219-1.937-0.219h-1.223
		c-0.439,0-0.734,0.088-0.886,0.269c-0.151,0.18-0.229,0.598-0.229,1.245v3.838h3.181c0.235,0,0.429-0.016,0.584-0.046
		c0.154-0.03,0.288-0.073,0.404-0.134c0.078-0.047,0.214-0.185,0.411-0.414c0.201-0.233,0.39-0.349,0.566-0.349
		c0.193,0,0.345,0.092,0.46,0.275c0.113,0.185,0.168,0.434,0.168,0.755v1.819c0,0.314-0.056,0.563-0.168,0.744
		c-0.116,0.18-0.267,0.268-0.46,0.268c-0.162,0-0.387-0.146-0.668-0.437c-0.095-0.107-0.176-0.188-0.235-0.249
		c-0.091-0.08-0.225-0.146-0.4-0.188c-0.18-0.046-0.401-0.069-0.661-0.069h-3.181v5.106c0,0.219,0.028,0.387,0.081,0.506
		c0.056,0.118,0.147,0.211,0.281,0.279c0.046,0.023,0.12,0.058,0.214,0.1c0.433,0.203,0.65,0.46,0.65,0.774
		c0,0.249-0.074,0.429-0.218,0.54c-0.144,0.11-0.373,0.168-0.689,0.168H18.183L18.183,128.482z"/>
	<path fill-rule="evenodd" clip-rule="evenodd" fill="#FFFFFF" d="M85.883,120.526c0-0.95,0.12-1.862,0.354-2.728
		c0.236-0.869,0.598-1.701,1.076-2.494c0.77-1.233,1.732-2.176,2.889-2.827s2.461-0.977,3.908-0.977c1.016,0,2,0.149,2.949,0.448
		c0.953,0.299,1.732,0.701,2.345,1.203c0.222,0.176,0.372,0.437,0.456,0.773c0.088,0.337,0.131,1.065,0.131,2.188
		c0,0.36-0.057,0.628-0.169,0.809c-0.116,0.18-0.284,0.268-0.51,0.268c-0.372,0-0.653-0.279-0.847-0.843
		c-0.066-0.191-0.123-0.337-0.166-0.437c-0.305-0.785-0.812-1.409-1.508-1.877c-0.695-0.468-1.479-0.701-2.351-0.701
		c-1.424,0-2.548,0.609-3.374,1.823c-0.826,1.215-1.241,2.877-1.241,4.988c0,2.072,0.433,3.723,1.294,4.953
		c0.861,1.229,2.021,1.846,3.476,1.846c0.665,0,1.269-0.122,1.811-0.363c0.544-0.245,1.106-0.655,1.69-1.23
		c0.095-0.088,0.225-0.226,0.391-0.401c0.439-0.464,0.787-0.697,1.04-0.697c0.192,0,0.354,0.08,0.491,0.245
		c0.138,0.164,0.208,0.367,0.208,0.608c0,0.207-0.067,0.44-0.2,0.693c-0.134,0.257-0.327,0.521-0.584,0.797
		c-0.727,0.789-1.563,1.376-2.516,1.767c-0.949,0.387-2.012,0.582-3.178,0.582c-0.938,0-1.8-0.123-2.58-0.372
		c-0.777-0.245-1.494-0.62-2.145-1.122c-1.005-0.77-1.777-1.755-2.322-2.957C86.158,123.292,85.883,121.971,85.883,120.526
		L85.883,120.526z"/>
	<path fill-rule="evenodd" clip-rule="evenodd" fill="#FFFFFF" d="M29.889,33.498c1.988-0.075,3.461-0.409,4.424-1.009
		c0.959-0.596,1.438-1.489,1.438-2.669c0-0.951-0.287-1.644-0.856-2.077c-0.574-0.43-1.497-0.646-2.77-0.646
		c-0.946,0-1.555,0.091-1.83,0.279c-0.279,0.188-0.417,0.55-0.417,1.089L29.889,33.498L29.889,33.498z M34.128,25.285
		c1.972,0,3.43,0.346,4.376,1.039c0.947,0.692,1.422,1.756,1.422,3.191c0,1.034-0.268,1.936-0.806,2.699
		c-0.538,0.768-1.324,1.369-2.357,1.81c0.888,1.598,1.639,3.225,2.248,4.889c0.609,1.66,0.923,2.499,0.939,2.515
		c0.035,0.05,0.224,0.171,0.558,0.367s0.499,0.459,0.499,0.792c0,0.288-0.07,0.488-0.212,0.601s-0.448,0.171-0.916,0.171h-4.553
		c-0.295,0-0.519-0.063-0.676-0.184s-0.235-0.292-0.235-0.514c0-0.195,0.035-0.354,0.102-0.483c0.071-0.125,0.193-0.242,0.37-0.347
		c0.023-0.017,0.071-0.041,0.137-0.075c0.201-0.096,0.303-0.288,0.303-0.576c0-0.463-0.235-1.239-0.699-2.327
		c-0.464-1.085-1.081-2.253-1.847-3.5c-0.432,0.088-0.884,0.163-1.367,0.221c-0.479,0.055-0.986,0.088-1.524,0.096l-0.012,5.281
		c0,0.25,0.036,0.426,0.103,0.525c0.07,0.096,0.235,0.196,0.499,0.305c0.243,0.096,0.412,0.204,0.499,0.317
		c0.09,0.112,0.133,0.279,0.133,0.488c0,0.296-0.075,0.497-0.22,0.605c-0.146,0.112-0.432,0.167-0.864,0.167h-4.671
		c-0.299,0-0.526-0.063-0.684-0.188c-0.157-0.129-0.236-0.313-0.236-0.559c0-0.221,0.04-0.388,0.114-0.509
		c0.079-0.117,0.244-0.242,0.495-0.371c0.271-0.129,0.448-0.279,0.534-0.451c0.091-0.171,0.134-0.563,0.134-1.176V28.343
		c0-0.488-0.043-0.813-0.126-0.968c-0.086-0.154-0.267-0.296-0.542-0.426c-0.228-0.117-0.389-0.237-0.476-0.367
		c-0.09-0.133-0.133-0.304-0.133-0.513c0-0.271,0.079-0.467,0.232-0.597c0.153-0.125,0.389-0.188,0.711-0.188H34.128L34.128,25.285z
		"/>
	<path fill-rule="evenodd" clip-rule="evenodd" fill="#FFFFFF" d="M46.649,34.378c0,2.427,0.413,4.309,1.237,5.644
		c0.825,1.339,1.984,2.006,3.473,2.006c1.571,0,2.75-0.659,3.54-1.973c0.786-1.318,1.179-3.296,1.179-5.936
		c0-2.34-0.413-4.155-1.237-5.448c-0.825-1.289-1.988-1.936-3.481-1.936c-1.521,0-2.687,0.655-3.497,1.961
		C47.053,30.007,46.649,31.9,46.649,34.378L46.649,34.378z M42.265,34.378c0-1.477,0.24-2.791,0.719-3.95
		c0.479-1.156,1.222-2.211,2.227-3.166c0.821-0.763,1.76-1.352,2.813-1.76c1.057-0.404,2.169-0.609,3.335-0.609
		c1.257,0,2.412,0.201,3.461,0.601c1.053,0.396,1.979,0.989,2.785,1.769c0.974,0.947,1.697,1.998,2.161,3.154
		c0.463,1.159,0.696,2.478,0.696,3.962c0,1.514-0.232,2.836-0.696,3.971c-0.464,1.13-1.198,2.165-2.204,3.104
		c-0.852,0.788-1.807,1.393-2.868,1.81c-1.057,0.413-2.173,0.622-3.335,0.622c-1.214,0-2.326-0.2-3.335-0.601
		c-1.006-0.396-1.944-1.01-2.813-1.831c-1.021-0.977-1.768-2.036-2.239-3.171C42.5,37.144,42.265,35.843,42.265,34.378
		L42.265,34.378z"/>
	<path fill-rule="evenodd" clip-rule="evenodd" fill="#FFFFFF" d="M69.164,43.885c-1.135,0-2.145-0.138-3.037-0.417
		c-0.891-0.275-1.67-0.697-2.337-1.256c-0.483-0.417-0.876-0.88-1.179-1.393s-0.455-0.963-0.455-1.356
		c0-0.384,0.137-0.713,0.408-0.988c0.271-0.279,0.601-0.417,0.986-0.417c0.475,0,0.887,0.371,1.24,1.113
		c0.135,0.268,0.236,0.472,0.314,0.609c0.397,0.659,0.947,1.176,1.65,1.547c0.703,0.372,1.489,0.555,2.365,0.555
		c1.135,0,2.023-0.246,2.664-0.738c0.64-0.492,0.962-1.172,0.962-2.036c0-0.692-0.239-1.214-0.715-1.564
		c-0.476-0.35-1.61-0.688-3.406-1.014c-0.099-0.016-0.255-0.045-0.472-0.087c-1.873-0.317-3.193-0.839-3.96-1.564
		c-0.515-0.488-0.896-1.051-1.14-1.685c-0.247-0.638-0.369-1.376-0.369-2.228c0-1.756,0.645-3.207,1.93-4.342
		c1.284-1.139,2.941-1.706,4.977-1.706c0.885,0,1.701,0.088,2.46,0.259c0.755,0.171,1.45,0.425,2.086,0.768
		c0.386,0.204,0.652,0.467,0.806,0.784c0.152,0.316,0.231,0.78,0.231,1.393c0,0.592-0.063,1.001-0.185,1.222
		c-0.121,0.221-0.346,0.329-0.668,0.329c-0.396,0-0.77-0.309-1.115-0.93c-0.099-0.188-0.186-0.33-0.252-0.426
		c-0.354-0.538-0.793-0.942-1.324-1.218c-0.529-0.271-1.146-0.409-1.854-0.409c-1.006,0-1.8,0.246-2.381,0.738
		c-0.586,0.492-0.876,1.164-0.876,2.011c0,0.676,0.235,1.193,0.707,1.548s1.599,0.696,3.378,1.034
		c1.258,0.226,2.169,0.451,2.734,0.672c0.563,0.217,1.049,0.505,1.454,0.854c0.577,0.488,1.006,1.06,1.284,1.711
		c0.279,0.65,0.421,1.41,0.421,2.273c0,1.931-0.664,3.47-1.991,4.622C73.179,43.309,71.399,43.885,69.164,43.885L69.164,43.885z"/>
	<path fill-rule="evenodd" clip-rule="evenodd" fill="#FFFFFF" d="M85.22,43.885c-1.136,0-2.146-0.138-3.037-0.417
		c-0.892-0.275-1.67-0.697-2.338-1.256c-0.482-0.417-0.875-0.88-1.178-1.393s-0.456-0.963-0.456-1.356
		c0-0.384,0.138-0.713,0.409-0.988c0.271-0.279,0.601-0.417,0.985-0.417c0.476,0,0.888,0.371,1.241,1.113
		c0.134,0.268,0.236,0.472,0.314,0.609c0.396,0.659,0.947,1.176,1.65,1.547c0.703,0.372,1.488,0.555,2.365,0.555
		c1.135,0,2.023-0.246,2.663-0.738s0.962-1.172,0.962-2.036c0-0.692-0.239-1.214-0.715-1.564c-0.475-0.35-1.61-0.688-3.406-1.014
		c-0.098-0.016-0.255-0.045-0.471-0.087c-1.874-0.317-3.194-0.839-3.961-1.564c-0.514-0.488-0.895-1.051-1.139-1.685
		c-0.248-0.638-0.369-1.376-0.369-2.228c0-1.756,0.645-3.207,1.93-4.342c1.283-1.139,2.941-1.706,4.977-1.706
		c0.885,0,1.701,0.088,2.459,0.259c0.755,0.171,1.45,0.425,2.086,0.768c0.386,0.204,0.652,0.467,0.807,0.784
		c0.152,0.316,0.23,0.78,0.23,1.393c0,0.592-0.063,1.001-0.184,1.222c-0.122,0.221-0.346,0.329-0.668,0.329
		c-0.396,0-0.77-0.309-1.116-0.93c-0.099-0.188-0.185-0.33-0.251-0.426c-0.354-0.538-0.794-0.942-1.324-1.218
		c-0.53-0.271-1.146-0.409-1.854-0.409c-1.006,0-1.801,0.246-2.381,0.738c-0.586,0.492-0.877,1.164-0.877,2.011
		c0,0.676,0.236,1.193,0.707,1.548c0.472,0.354,1.6,0.696,3.379,1.034c1.258,0.226,2.169,0.451,2.734,0.672
		c0.563,0.217,1.049,0.505,1.453,0.854c0.578,0.488,1.006,1.06,1.285,1.711c0.279,0.65,0.42,1.41,0.42,2.273
		c0,1.931-0.664,3.47-1.991,4.622C89.235,43.309,87.455,43.885,85.22,43.885L85.22,43.885z"/>
	<path fill-rule="evenodd" clip-rule="evenodd" fill="#172980" d="M11.171,71.005c-0.169-0.968-0.225-1.924-0.162-2.868
		c0.063-0.94,0.245-1.876,0.543-2.796c0.488-1.444,1.207-2.636,2.155-3.572c0.952-0.94,2.096-1.58,3.432-1.924
		c0.935-0.24,1.87-0.32,2.801-0.236c0.932,0.08,1.724,0.304,2.377,0.672c0.235,0.132,0.421,0.36,0.56,0.68
		c0.14,0.324,0.312,1.06,0.514,2.208c0.063,0.364,0.06,0.652-0.01,0.864c-0.073,0.212-0.215,0.345-0.424,0.396
		c-0.342,0.088-0.65-0.132-0.929-0.66c-0.099-0.184-0.176-0.32-0.232-0.408c-0.427-0.728-1.001-1.252-1.73-1.563
		c-0.726-0.313-1.492-0.368-2.297-0.16c-1.31,0.336-2.238,1.224-2.782,2.66c-0.543,1.436-0.626,3.231-0.249,5.388
		c0.375,2.116,1.067,3.7,2.085,4.752c1.015,1.052,2.195,1.408,3.538,1.063c0.614-0.156,1.15-0.424,1.608-0.8
		c0.454-0.38,0.902-0.932,1.336-1.656c0.073-0.116,0.169-0.284,0.289-0.508c0.322-0.576,0.6-0.896,0.833-0.956
		c0.179-0.044,0.345,0,0.5,0.136c0.156,0.136,0.259,0.324,0.302,0.572c0.037,0.212,0.017,0.464-0.063,0.756
		c-0.076,0.292-0.209,0.608-0.392,0.952c-0.53,0.977-1.2,1.772-2.006,2.396c-0.805,0.62-1.75,1.072-2.824,1.348
		c-0.869,0.22-1.685,0.3-2.447,0.232c-0.762-0.068-1.492-0.28-2.181-0.641c-1.064-0.548-1.956-1.372-2.676-2.468
		C11.92,73.765,11.434,72.481,11.171,71.005L11.171,71.005z"/>
	<path fill-rule="evenodd" clip-rule="evenodd" fill="#172980" d="M32.56,67.077c-0.066,2.328,0.229,4.145,0.889,5.452
		c0.656,1.312,1.615,1.992,2.871,2.044c1.326,0.056,2.337-0.532,3.04-1.764c0.7-1.232,1.084-3.112,1.157-5.645
		c0.066-2.239-0.232-3.992-0.892-5.26c-0.66-1.264-1.621-1.924-2.88-1.979c-1.283-0.053-2.285,0.532-3.004,1.756
		C33.024,62.905,32.63,64.705,32.56,67.077L32.56,67.077z M28.864,66.921c0.04-1.412,0.278-2.664,0.716-3.756
		c0.438-1.092,1.091-2.075,1.966-2.952c0.713-0.708,1.522-1.236,2.42-1.588c0.901-0.352,1.843-0.508,2.828-0.468
		c1.061,0.044,2.029,0.28,2.904,0.7c0.875,0.416,1.642,1.016,2.301,1.796c0.795,0.94,1.373,1.972,1.73,3.096
		c0.361,1.124,0.521,2.4,0.477,3.82c-0.043,1.452-0.275,2.712-0.696,3.78c-0.424,1.067-1.071,2.031-1.946,2.896
		c-0.74,0.729-1.562,1.272-2.467,1.632c-0.905,0.36-1.847,0.521-2.831,0.477c-1.021-0.04-1.953-0.272-2.792-0.692
		c-0.842-0.416-1.614-1.036-2.324-1.855c-0.832-0.973-1.432-2.013-1.8-3.116C28.987,69.581,28.824,68.325,28.864,66.921
		L28.864,66.921z"/>
	<path fill-rule="evenodd" clip-rule="evenodd" fill="#172980" d="M50.226,60.149l3.401,0.872c0.468,0.12,0.786,0.28,0.951,0.484
		c0.166,0.204,0.219,0.479,0.156,0.832c-0.063,0.355-0.295,0.6-0.693,0.731c-0.199,0.06-0.338,0.124-0.421,0.188
		c-0.231,0.184-0.527,0.928-0.885,2.235c-0.361,1.308-0.716,2.956-1.067,4.944c-0.372,2.12-0.372,3.736,0.003,4.836
		c0.375,1.104,1.164,1.808,2.367,2.116c1.233,0.316,2.218,0.1,2.954-0.648c0.732-0.752,1.27-2.088,1.607-4.012
		c0.335-1.888,0.577-3.592,0.726-5.108c0.153-1.52,0.192-2.448,0.123-2.796c-0.046-0.196-0.222-0.448-0.527-0.764
		c-0.305-0.312-0.431-0.628-0.375-0.94c0.05-0.275,0.159-0.456,0.335-0.548c0.176-0.092,0.427-0.096,0.756-0.012l2.337,0.6
		c0.354,0.092,0.597,0.22,0.726,0.384c0.13,0.167,0.17,0.388,0.12,0.672c-0.03,0.168-0.079,0.3-0.152,0.392
		s-0.199,0.184-0.382,0.272c-0.043,0.023-0.1,0.048-0.172,0.076c-0.299,0.116-0.484,0.376-0.554,0.78
		c-0.054,0.3-0.163,1.324-0.329,3.072c-0.165,1.752-0.371,3.324-0.615,4.724c-0.426,2.396-1.267,4.06-2.527,4.988
		c-1.263,0.924-2.951,1.116-5.066,0.572c-2.108-0.54-3.58-1.508-4.413-2.908c-0.832-1.4-1.041-3.265-0.633-5.592
		c0.223-1.252,0.544-2.7,0.968-4.34s0.673-2.66,0.746-3.064c0.063-0.368,0.073-0.648,0.033-0.836
		c-0.043-0.192-0.152-0.364-0.321-0.52c-0.169-0.164-0.285-0.324-0.345-0.48c-0.057-0.152-0.069-0.332-0.033-0.528
		c0.05-0.3,0.183-0.508,0.392-0.624C49.626,60.082,49.898,60.065,50.226,60.149L50.226,60.149z"/>
	<path fill-rule="evenodd" clip-rule="evenodd" fill="#172980" d="M67.023,69.854l-1.555,9.664c-0.09,0.552-0.113,0.92-0.066,1.111
		c0.047,0.188,0.162,0.36,0.348,0.517c0.063,0.048,0.153,0.107,0.266,0.184c0.361,0.224,0.511,0.516,0.455,0.868
		c-0.044,0.276-0.13,0.456-0.252,0.532c-0.127,0.08-0.346,0.08-0.657,0.008l-3.202-0.752c-0.279-0.064-0.471-0.168-0.574-0.313
		c-0.103-0.144-0.133-0.344-0.092-0.596c0.059-0.368,0.265-0.576,0.616-0.624c0.351-0.052,0.544-0.088,0.58-0.108
		c0.186-0.116,0.325-0.28,0.421-0.492c0.096-0.212,0.199-0.656,0.309-1.332l1.688-10.468c0.066-0.412,0.076-0.704,0.036-0.868
		c-0.043-0.164-0.152-0.32-0.328-0.464c-0.063-0.057-0.152-0.124-0.272-0.208c-0.361-0.252-0.51-0.572-0.447-0.964
		c0.04-0.244,0.129-0.416,0.266-0.512c0.136-0.096,0.322-0.116,0.557-0.06l3.023,0.708c0.584,0.14,1.074,0.676,1.473,1.612
		c0.049,0.108,0.086,0.196,0.115,0.268c0.66,1.472,1.354,3.156,2.086,5.048c0.729,1.888,1.472,3.928,2.228,6.12l1.296-8.052
		c0.061-0.368,0.076-0.664,0.051-0.888c-0.027-0.228-0.097-0.4-0.209-0.52c-0.073-0.076-0.176-0.168-0.303-0.276
		c-0.351-0.304-0.5-0.64-0.44-1c0.04-0.26,0.146-0.439,0.315-0.544c0.168-0.104,0.391-0.124,0.67-0.06l2.814,0.66
		c0.248,0.06,0.424,0.18,0.529,0.364c0.104,0.184,0.137,0.416,0.09,0.692c-0.049,0.312-0.262,0.516-0.633,0.612
		c-0.116,0.028-0.205,0.056-0.269,0.081c-0.186,0.084-0.328,0.216-0.425,0.392c-0.096,0.176-0.191,0.552-0.285,1.128l-1.936,12.02
		c-0.126,0.78-0.292,1.26-0.494,1.44c-0.205,0.18-0.554,0.212-1.051,0.096c-0.395-0.092-0.684-0.208-0.865-0.34
		c-0.182-0.136-0.335-0.352-0.457-0.652c-0.043-0.104-0.199-0.524-0.471-1.256C70.417,78.429,68.77,74.169,67.023,69.854
		L67.023,69.854z"/>
	<path fill-rule="evenodd" clip-rule="evenodd" fill="#172980" d="M87.513,82.577c0.007,0.484,0.03,0.816,0.073,0.996
		c0.04,0.176,0.106,0.296,0.199,0.356c0.056,0.048,0.132,0.1,0.226,0.16c0.377,0.26,0.57,0.548,0.573,0.868
		c0.003,0.228-0.069,0.396-0.219,0.508c-0.153,0.112-0.382,0.172-0.692,0.181l-3.797,0.08c-0.288,0.004-0.51-0.048-0.656-0.164
		c-0.146-0.112-0.223-0.284-0.226-0.512c-0.003-0.304,0.179-0.584,0.551-0.84c0.089-0.068,0.152-0.112,0.192-0.136
		c0.096-0.072,0.166-0.2,0.209-0.384c0.039-0.185,0.059-0.477,0.053-0.872l-0.18-12.404l-0.814,0.017
		c-0.418,0.008-0.786,0.12-1.098,0.336c-0.313,0.212-0.664,0.607-1.055,1.188c-0.014,0.017-0.036,0.048-0.069,0.092
		c-0.335,0.5-0.634,0.752-0.892,0.76c-0.186,0.004-0.332-0.064-0.432-0.196c-0.1-0.136-0.148-0.332-0.152-0.588
		c-0.003-0.112,0-0.196,0.007-0.26c0.003-0.064,0.013-0.12,0.026-0.176l0.312-1.964c0.057-0.44,0.159-0.74,0.302-0.904
		c0.143-0.164,0.375-0.248,0.689-0.255l9.787-0.204c0.318-0.009,0.551,0.067,0.693,0.224c0.146,0.16,0.258,0.456,0.334,0.892
		l0.368,1.959c0.013,0.057,0.026,0.112,0.033,0.177c0.007,0.063,0.01,0.144,0.013,0.244c0.004,0.26-0.043,0.456-0.143,0.596
		c-0.1,0.14-0.238,0.212-0.42,0.216c-0.26,0.004-0.564-0.236-0.912-0.72c-0.033-0.048-0.06-0.08-0.08-0.104
		c-0.404-0.556-0.766-0.932-1.084-1.132c-0.321-0.2-0.689-0.296-1.104-0.288l-0.796,0.016L87.513,82.577L87.513,82.577z"/>
	<path fill-rule="evenodd" clip-rule="evenodd" fill="#172980" d="M99.279,76.177c-2.036-1.628-3.896-3.46-5.58-5.504
		c-0.137-0.168-0.235-0.288-0.292-0.356c-0.212-0.244-0.517-0.452-0.919-0.632c-0.4-0.176-0.629-0.392-0.692-0.636
		c-0.076-0.3-0.05-0.572,0.083-0.816c0.129-0.244,0.342-0.42,0.633-0.528l3.332-1.228c0.313-0.116,0.567-0.128,0.775-0.036
		c0.206,0.092,0.342,0.276,0.415,0.552c0.06,0.248,0.007,0.532-0.159,0.856c-0.169,0.324-0.245,0.523-0.226,0.596
		c0.063,0.256,0.527,0.84,1.39,1.76c0.861,0.92,1.879,1.872,3.05,2.853c0.474-1.54,0.825-2.904,1.048-4.101
		c0.222-1.191,0.285-1.987,0.182-2.384c-0.063-0.244-0.255-0.408-0.58-0.492c-0.08-0.02-0.139-0.036-0.176-0.048
		c-0.182-0.056-0.314-0.124-0.391-0.204c-0.08-0.08-0.137-0.196-0.176-0.348c-0.066-0.268-0.043-0.5,0.076-0.7
		c0.119-0.2,0.328-0.355,0.623-0.464l2.284-0.844c0.298-0.108,0.534-0.12,0.713-0.032c0.176,0.084,0.302,0.264,0.372,0.54
		c0.076,0.308,0.02,0.632-0.176,0.972c-0.196,0.34-0.296,0.528-0.303,0.553c-0.023,0.092-0.072,0.352-0.148,0.779
		c-0.461,2.744-1.094,5.5-1.894,8.268l1.011,3.992c0.104,0.408,0.196,0.676,0.272,0.8c0.079,0.12,0.179,0.2,0.306,0.236
		c0.072,0.021,0.176,0.044,0.311,0.068c0.401,0.063,0.654,0.288,0.75,0.668c0.066,0.26,0.039,0.48-0.076,0.66
		c-0.119,0.176-0.332,0.324-0.644,0.436l-3.703,1.368c-0.325,0.12-0.573,0.144-0.749,0.072c-0.18-0.068-0.299-0.232-0.365-0.496
		c-0.1-0.388,0.037-0.784,0.408-1.192c0.05-0.048,0.086-0.092,0.113-0.124c0.096-0.104,0.145-0.248,0.145-0.436
		c0.004-0.188-0.039-0.464-0.129-0.82L99.279,76.177L99.279,76.177z"/>
</g>
</svg>
