<?xml version="1.0" encoding="UTF-8"?>
<!DOCTYPE svg PUBLIC "-//W3C//DTD SVG 1.1//EN" "http://www.w3.org/Graphics/SVG/1.1/DTD/svg11.dtd">
<!-- Creator: CorelDRAW X5 -->
<svg xmlns="http://www.w3.org/2000/svg" xml:space="preserve" width="502px" height="600px" style="shape-rendering:geometricPrecision; text-rendering:geometricPrecision; image-rendering:optimizeQuality; fill-rule:evenodd; clip-rule:evenodd"
viewBox="0 0 502000 600411"
 xmlns:xlink="http://www.w3.org/1999/xlink">
 <defs>
  <style type="text/css">
   <![CDATA[
    .fil0 {fill:#FEFEFE}
    .fil1 {fill:#EE3123}
    .fil2 {fill:#EE3123;fill-rule:nonzero}
   ]]>
  </style>
 </defs>
 <g id="Vicenza_x0020_-_x0020_Ayun_x0020_G._x0020_Aribowo">
  <metadata id="CorelCorpID_0Corel-Layer"/>
  <g id="Ostiamare">
   <path class="fil0" d="M494873 80154l0 443381c0,20390 -16683,37073 -37073,37073l-413600 0c-20390,0 -37073,-16683 -37073,-37073l0 -443381 487747 0z"/>
   <path class="fil1" d="M121139 79839l55283 114890 -47510 0 -55293 -114890 47520 0zm65843 136835l52195 108473 -23750 49348 -75954 -157821 47508 0zm194588 -136835l45357 0 -212079 440667 -146199 -303832 46550 0 100258 208321 166112 -345156zm-323480 114890l-55283 -114890 46539 0 55293 114890 -46549 0zm393192 -114890l48788 0 -20941 43521 -18 -9 -227683 473173 -24402 -50713 224257 -465972zm-81386 516968l1024 2129 -2666 1283 1641 -3411z"/>
   <path class="fil2" d="M501779 80154l0 443381c0,12102 -4946,23098 -12913,31066 -7968,7968 -18964,12913 -31066,12913l-413600 0c-12101,0 -23098,-4946 -31066,-12913 -7968,-7968 -12913,-18964 -12913,-31066l0 -443381 13812 0 0 443381c0,8289 3396,15829 8867,21300 5471,5471 13012,8867 21300,8867l413600 0c8289,0 15829,-3396 21300,-8867 5471,-5471 8867,-13011 8867,-21300l0 -443381 13812 0z"/>
   <path class="fil2" d="M26606 51444l-1722 0 -14157 -40525c-756,-2194 -1388,-3797 -1881,-4833 -501,-1036 -1011,-1738 -1521,-2121 -518,-370 -1169,-555 -1960,-555l0 -2318 15528 0 0 2318c-2215,0 -3322,1023 -3322,3070 0,579 88,1184 255,1800 176,629 624,1985 1362,4081l8709 24855 7101 -24559c791,-2725 1187,-4636 1187,-5745 0,-1258 -264,-2145 -800,-2688 -527,-543 -1406,-814 -2628,-814l0 -2318 10537 0 0 2318c-949,185 -1670,530 -2162,1011 -501,481 -1011,1406 -1538,2774 -519,1381 -1204,3538 -2048,6473l-10941 37776zm38342 -1369l-19518 0 0 -2343 1344 0c2021,0 3357,-543 4016,-1615 650,-1073 975,-3058 975,-5980l0 -29146c0,-2022 -140,-3563 -413,-4636 -272,-1073 -756,-1837 -1459,-2281 -694,-444 -1731,-666 -3120,-666l-1344 0 0 -2318 19518 0 0 2318 -1081 0c-1327,0 -2329,209 -3023,653 -694,431 -1195,1196 -1485,2293 -290,1085 -439,2638 -439,4636l0 29146c0,1997 150,3551 439,4648 290,1097 791,1861 1485,2293 694,431 1696,653 3023,653l1081 0 0 2343zm38307 -13981l1626 1628c-3533,9148 -9025,13722 -16478,13722 -3129,0 -5949,-691 -8480,-2096 -2540,-1393 -4684,-3316 -6450,-5758 -1766,-2441 -3102,-5178 -4007,-8211 -896,-3033 -1353,-6140 -1353,-9320 0,-4673 914,-8988 2742,-12958 1828,-3958 4332,-7102 7505,-9419 3181,-2330 6644,-3489 10405,-3489 1512,0 2874,173 4078,530 1213,345 2514,801 3919,1381 1397,579 2276,875 2636,875 501,0 905,-246 1222,-740 316,-493 474,-1183 474,-2046l1679 0 870 16323 -1722 0c-519,-1948 -1221,-3711 -2127,-5301 -896,-1590 -1872,-2934 -2918,-4019 -1046,-1073 -2223,-1936 -3533,-2564 -1301,-617 -2601,-937 -3911,-937 -2540,0 -4825,937 -6846,2799 -2030,1874 -3594,4500 -4710,7890 -1116,3403 -1679,7212 -1679,11454 0,4068 589,7705 1766,10911 1178,3205 2839,5696 4983,7496 2144,1788 4579,2688 7311,2688 5405,0 9737,-3612 12998,-10837zm34765 -35001l0 11342 -1573 0c-721,-2959 -1555,-4944 -2496,-5942 -940,-999 -2259,-1492 -3937,-1492l-10739 0 0 17334 9298 0c1661,0 2847,-493 3550,-1467 703,-974 1055,-2737 1055,-5289l1722 0 0 17778 -1722 0c0,-2774 -325,-4648 -967,-5622 -641,-974 -1854,-1467 -3638,-1467l-9298 0 0 15140c0,1393 70,2416 202,3045 140,641 413,1085 817,1319 404,247 1046,370 1942,370l7874 0c1793,0 3260,-358 4420,-1073 1160,-703 2144,-1775 2962,-3193 817,-1418 1661,-3390 2531,-5930l1679 0 -2935 14129 -31927 0 0 -2343c1441,0 2531,-197 3269,-579 738,-394 1257,-1122 1556,-2194 299,-1060 457,-2675 457,-4821l0 -29146c0,-2121 -150,-3723 -439,-4808 -290,-1073 -809,-1812 -1547,-2194 -738,-395 -1837,-579 -3295,-579l0 -2318 31179 0zm34475 0l15010 0 0 2318 -1643 0c-1116,0 -1986,246 -2601,740 -624,493 -1063,1294 -1344,2416 -273,1122 -404,2601 -404,4426l0 39514 -1011 0 -27313 -38355 0 27987c0,1997 140,3551 439,4648 290,1097 791,1861 1494,2293 703,431 1705,653 3005,653l1573 0 0 2343 -15528 0 0 -2343 1986 0c1511,0 2619,-530 3331,-1578 720,-1048 1072,-2774 1072,-5178l0 -32363c-843,-1541 -1810,-2761 -2918,-3649 -1107,-888 -2267,-1406 -3471,-1553l0 -2318 11178 0 23534 33411 0 -24300c0,-2367 -334,-4081 -1011,-5166 -668,-1085 -1784,-1627 -3339,-1627l-2039 0 0 -2318zm50355 35655l1749 0 -1749 13327 -32955 0 0 -2343 23763 -43200 -11556 0c-1801,0 -3278,321 -4420,974 -1133,641 -1977,1603 -2522,2848 -536,1258 -835,2848 -888,4771l-1722 0 826 -12033 30301 0 0 1233 -24018 44063 12971 0c2232,0 3990,-321 5281,-949 1283,-641 2294,-1652 3032,-3021 738,-1368 1380,-3267 1907,-5671zm13806 222l-975 2996c-607,1825 -905,3119 -905,3859 0,2527 1441,3834 4324,3908l0 2343 -12558 0 0 -2343c1230,-49 2329,-678 3295,-1886 958,-1196 1881,-3169 2777,-5881l13076 -39773 1494 0 15581 43422c395,1073 800,1899 1204,2466 413,567 879,962 1406,1196 527,234 1230,382 2127,456l0 2343 -15889 0 0 -2343c1424,-25 2399,-222 2926,-604 519,-370 782,-1011 782,-1936 0,-962 -316,-2293 -949,-4007l-1626 -4216 -16091 0zm14650 -3908l-6978 -19393 -6389 19393 13367 0zm65180 3033l1626 1628c-3533,9148 -9025,13722 -16478,13722 -3129,0 -5949,-691 -8480,-2096 -2540,-1393 -4684,-3316 -6450,-5758 -1766,-2441 -3102,-5178 -4007,-8211 -896,-3033 -1353,-6140 -1353,-9320 0,-4673 914,-8988 2742,-12958 1828,-3958 4332,-7102 7505,-9419 3181,-2330 6644,-3489 10405,-3489 1512,0 2874,173 4078,530 1213,345 2514,801 3919,1381 1397,579 2276,875 2636,875 501,0 905,-246 1222,-740 316,-493 474,-1183 474,-2046l1679 0 870 16323 -1722 0c-519,-1948 -1221,-3711 -2127,-5301 -896,-1590 -1872,-2934 -2918,-4019 -1046,-1073 -2223,-1936 -3533,-2564 -1301,-617 -2601,-937 -3911,-937 -2540,0 -4825,937 -6846,2799 -2030,1874 -3594,4500 -4710,7890 -1116,3403 -1679,7212 -1679,11454 0,4068 589,7705 1766,10911 1178,3205 2839,5696 4983,7496 2144,1788 4578,2688 7311,2688 5405,0 9737,-3612 12998,-10837zm13832 876l-975 2996c-607,1825 -905,3119 -905,3859 0,2527 1441,3834 4324,3908l0 2343 -12558 0 0 -2343c1230,-49 2329,-678 3296,-1886 958,-1196 1881,-3169 2777,-5881l13076 -39773 1494 0 15581 43422c395,1073 800,1899 1204,2466 413,567 879,962 1406,1196 527,234 1230,382 2126,456l0 2343 -15889 0 0 -2343c1424,-25 2399,-222 2927,-604 519,-370 782,-1011 782,-1936 0,-962 -316,-2293 -949,-4007l-1626 -4216 -16091 0zm14650 -3908l-6978 -19393 -6389 19393 13367 0zm51155 3760l1696 0 -3164 13254 -31646 0 0 -2343 1213 0c1309,0 2302,-222 2997,-641 703,-419 1195,-1171 1494,-2256 308,-1085 457,-2614 457,-4586l0 -29257c0,-2836 -325,-4820 -984,-5918 -650,-1109 -1968,-1664 -3963,-1664l-897 0 0 -2318 19149 0 0 2318 -1178 0c-1327,0 -2338,209 -3041,653 -703,431 -1204,1196 -1512,2293 -299,1085 -448,2638 -448,4636l0 30119c0,1615 70,2749 211,3403 132,654 422,1085 861,1294 439,222 1151,333 2144,333l6336 0c1749,0 3181,-234 4297,-691 1116,-456 2136,-1331 3059,-2638 914,-1294 1889,-3292 2917,-5992zm39985 -728l1626 1628c-3533,9148 -9025,13722 -16477,13722 -3129,0 -5950,-691 -8481,-2096 -2540,-1393 -4684,-3316 -6450,-5758 -1766,-2441 -3102,-5178 -4007,-8211 -896,-3033 -1353,-6140 -1353,-9320 0,-4673 914,-8988 2742,-12958 1828,-3958 4332,-7102 7505,-9419 3181,-2330 6644,-3489 10405,-3489 1512,0 2874,173 4078,530 1213,345 2514,801 3919,1381 1397,579 2276,875 2636,875 501,0 905,-246 1222,-740 316,-493 475,-1183 475,-2046l1678 0 870 16323 -1722 0c-519,-1948 -1221,-3711 -2127,-5301 -896,-1590 -1872,-2934 -2918,-4019 -1046,-1073 -2223,-1936 -3533,-2564 -1301,-617 -2601,-937 -3911,-937 -2540,0 -4825,937 -6846,2799 -2030,1874 -3594,4500 -4710,7890 -1116,3403 -1679,7212 -1679,11454 0,4068 589,7705 1766,10911 1178,3205 2839,5696 4983,7496 2144,1788 4578,2688 7311,2688 5404,0 9737,-3612 12997,-10837zm23385 13981l-19518 0 0 -2343 1344 0c2021,0 3357,-543 4016,-1615 650,-1073 975,-3058 975,-5980l0 -29146c0,-2022 -141,-3563 -413,-4636 -272,-1073 -756,-1837 -1459,-2281 -694,-444 -1731,-666 -3120,-666l-1344 0 0 -2318 19518 0 0 2318 -1081 0c-1327,0 -2329,209 -3023,653 -694,431 -1195,1196 -1485,2293 -290,1085 -439,2638 -439,4636l0 29146c0,1997 150,3551 439,4648 290,1097 791,1861 1485,2293 694,431 1696,653 3023,653l1081 0 0 2343zm2962 -24239c0,-4673 861,-8975 2584,-12908 1731,-3945 4077,-7040 7056,-9321 2979,-2281 6248,-3415 9825,-3415 3568,0 6846,1134 9816,3415 2979,2281 5334,5375 7074,9321 1731,3933 2592,8235 2592,12908 0,4673 -861,8975 -2592,12896 -1740,3921 -4095,7028 -7074,9296 -2970,2281 -6248,3415 -9816,3415 -3577,0 -6846,-1134 -9825,-3415 -2979,-2268 -5325,-5375 -7056,-9296 -1722,-3920 -2584,-8223 -2584,-12896zm8085 0c0,3514 246,6620 747,9320 492,2700 1239,5018 2223,6966 984,1960 2180,3415 3577,4389 1406,986 3014,1467 4833,1467 1837,0 3445,-481 4833,-1467 1397,-974 2575,-2404 3559,-4315 975,-1899 1722,-4216 2223,-6966 510,-2749 764,-5881 764,-9395 0,-4673 -448,-8655 -1327,-11959 -888,-3292 -2188,-5819 -3919,-7558 -1722,-1751 -3770,-2626 -6134,-2626 -2408,0 -4464,875 -6169,2626 -1705,1738 -3005,4266 -3884,7558 -887,3304 -1327,7286 -1327,11959z"/>
   <path class="fil2" d="M213464 84431l0 39946c0,2046 148,3612 442,4697 304,1085 820,1837 1567,2256 746,419 1778,641 3096,641l0 2343 -17627 0 0 -2343c1400,0 2488,-197 3252,-579 765,-394 1318,-1134 1659,-2244 341,-1109 516,-2700 516,-4771l0 -25755c0,-2047 -147,-3452 -433,-4216 -295,-777 -793,-1159 -1511,-1159 -958,0 -2119,543 -3483,1628l-811 -2022 11794 -8421 1539 0zm12338 51252l0 -2195c2893,-296 5584,-1443 8062,-3440 2470,-1997 4497,-4451 6072,-7348 1576,-2897 2598,-5844 3087,-8827 -2156,1726 -4423,2601 -6800,2601 -1530,0 -2995,-382 -4404,-1147 -1400,-752 -2617,-1825 -3658,-3193 -1032,-1368 -1843,-2983 -2423,-4833 -590,-1862 -885,-3797 -885,-5819 0,-3008 580,-5832 1742,-8470 1161,-2638 2709,-4722 4644,-6263 1935,-1541 4017,-2318 6257,-2318 2350,0 4589,777 6689,2330 2110,1553 3787,3785 5050,6707 1262,2910 1889,6386 1889,10430 0,4981 -737,9493 -2230,13525 -1483,4044 -3455,7397 -5906,10085 -2460,2688 -5178,4722 -8164,6103 -2994,1381 -5998,2071 -9020,2071zm17572 -26508c147,-1849 221,-4056 221,-6608 0,-5881 -599,-9987 -1797,-12342 -1198,-2343 -2691,-3514 -4469,-3514 -1714,0 -3041,937 -3981,2811 -949,1886 -1419,4488 -1419,7841 0,3822 451,7225 1354,10208 894,2971 2423,4451 4589,4451 839,0 1769,-259 2792,-777 1014,-518 1917,-1208 2709,-2071zm10209 900c0,-2860 304,-5819 931,-8852 617,-3033 1502,-5819 2654,-8359 1152,-2540 2552,-4574 4202,-6115 1650,-1541 3455,-2318 5437,-2318 1751,0 3409,678 4994,2022 1585,1356 3004,3218 4257,5622 1244,2392 2211,5129 2884,8211 672,3082 1013,6349 1013,9789 0,4525 -599,8766 -1797,12699 -1198,3933 -2810,7077 -4847,9407 -2027,2343 -4202,3501 -6505,3501 -1926,0 -3695,-740 -5317,-2232 -1622,-1492 -3022,-3501 -4211,-6016 -1189,-2515 -2101,-5289 -2737,-8322 -645,-3045 -958,-6054 -958,-9037zm7851 0c0,15559 1797,23339 5372,23339 3547,0 5317,-7780 5317,-23339 0,-7853 -424,-13710 -1290,-17569 -866,-3871 -2202,-5795 -4027,-5795 -3575,0 -5372,7792 -5372,23363zm23837 -10689l-1861 0c415,-3033 1198,-5659 2350,-7891 1152,-2232 2598,-3958 4331,-5203 1741,-1245 3639,-1862 5713,-1862 1400,0 2727,333 3971,1011 1235,678 2313,1615 3225,2836 903,1221 1613,2663 2119,4352 497,1689 756,3464 756,5351 0,2170 -405,4500 -1207,7028 -802,2515 -2230,5486 -4294,8938 -2055,3440 -4810,7336 -8265,11700l12117 0c571,0 1005,-173 1281,-530 276,-345 654,-1122 1124,-2330l1916 0 -2893 11528 -23460 0 0 -1874 5888 -6941c2847,-3341 5086,-6386 6735,-9123 1650,-2725 2783,-5178 3419,-7323 626,-2158 940,-4291 940,-6411 0,-3058 -654,-5585 -1953,-7570 -1309,-1985 -2995,-2984 -5068,-2984 -1576,0 -2995,654 -4238,1948 -1235,1307 -2119,3082 -2644,5351z"/>
  </g>
 </g>
</svg>
