<?xml version="1.0" encoding="UTF-8"?>
<svg id="Calque_2" data-name="Calque 2" xmlns="http://www.w3.org/2000/svg" viewBox="0 0 727.27 727.27">
  <defs>
    <style>
      .cls-1 {
        fill: #f4e5a6;
      }

      .cls-1, .cls-2, .cls-3 {
        fill-rule: evenodd;
      }

      .cls-4 {
        fill: #fff;
      }

      .cls-5 {
        fill: #60babf;
      }

      .cls-3 {
        fill: #3c9844;
      }
    </style>
  </defs>
  <g id="svg1">
    <g id="g1">
      <g id="g2">
        <path id="path2" class="cls-2" d="M363.64,727.27c200.23,0,363.64-163.41,363.64-363.64S563.86,0,363.64,0,0,163.41,0,363.64s163.41,363.64,363.64,363.64Z"/>
        <path id="path3" class="cls-1" d="M363.64,618.9c140.61,0,255.27-114.66,255.27-255.27s-114.66-255.27-255.27-255.27-255.27,114.66-255.27,255.27,114.66,255.27,255.27,255.27Z"/>
        <path id="path4" class="cls-3" d="M463.9,597.65c87.36-35.19,123.76-110.41,123.76-110.41H139.94s23.9,53.16,97.07,97.07c69.77,41.86,155.92,41.93,226.89,13.35Z"/>
        <path id="path5" class="cls-5" d="M170.27,529.09s17.59-9.71,39.43-9.71,46.71,10.92,75.83,10.31c29.12-.61,44.94-16.83,79.5-16.3,34.56.53,50.33,17.52,82.48,16.91,32.15-.61,43.09-11.37,66.44-10.84,23.35.53,44.58,10.24,44.58,10.24,0,0-77.05,89.18-189.28,89.18-134.68,0-198.99-89.79-198.99-89.79Z"/>
        <g>
          <path id="path6" class="cls-4" d="M74.67,302.49c3.62.9,6.69,1.5,9.21,1.8,2.52.3,5.18.38,7.97.24l-1.57,6.16-1.58,6.2c-2.34-1.41-4.7-2.57-7.06-3.49-2.37-.92-5.38-1.83-9.05-2.74l-32.34-8.04c-2.06.95-3.77,1.78-5.12,2.49-2.99,1.54-4.77,2.6-5.33,3.18l1.84-7.23,1.84-7.23c3.32-.96,6.28-1.94,8.87-2.94,2.6-.99,5.54-2.27,8.82-3.82l34.42-16.11-26.85-6.67c-3.6-.89-6.66-1.49-9.19-1.8-2.53-.3-5.2-.39-8.02-.25l1.57-6.16,1.58-6.2c2.37,1.41,4.73,2.58,7.1,3.5,2.37.92,5.37,1.83,9.01,2.73l27.02,6.72c2.81.7,5.6,1.19,8.36,1.46,2.76.28,4.74.26,5.94-.05l-1.58,6.18-1.59,6.22c-.86-.08-2.53.3-4.99,1.14-2.46.83-5.04,1.89-7.73,3.18l-34.16,15.93,22.59,5.62Z"/>
          <path id="path7" class="cls-4" d="M106.25,256.6c-2.02-1.83-4.1-3.42-6.24-4.78-2.14-1.35-4.92-2.83-8.33-4.43l-22.52-10.53c-3.35-1.57-6.23-2.74-8.64-3.52-2.42-.78-5.02-1.37-7.81-1.78l5.08-10.59,9.92-20.66,3.36,4.25,3.38,4.31c-2.15,1.65-3.96,3.42-5.42,5.31-1.46,1.89-2.9,4.32-4.33,7.29l-1.07,2.23,17.5,8.18,8.98-18.71,3.12,4.67,3.12,4.67c-1.94,1.34-3.61,2.89-5,4.66-1.39,1.77-2.81,4.16-4.24,7.15l-.14.29,18.54,8.67c2.31-5.16,3.98-9.53,4.99-13.09,1.36-4.73,1.94-9.22,1.76-13.46l4.24,4.85,4.22,4.89-9.39,19.56-5.07,10.56Z"/>
          <path id="path8" class="cls-4" d="M132.19,207.62l-40.68-15.91c-4.77-1.83-8.46-3.11-11.08-3.84-2.62-.72-4.85-1.1-6.71-1.12l4.73-6.07,4.75-6.1c.75,1.45,2.13,2.92,4.13,4.43,2.01,1.51,4.27,2.76,6.79,3.76l27.46,11.34h0s-25.22-38.29-25.22-38.29l.04-.05,43.72,14.3h0s-17.96-23.27-17.96-23.27c-1.47-1.99-3.25-3.8-5.34-5.42-2.09-1.62-3.91-2.6-5.46-2.93l4.75-6.1,4.75-6.1c.5,1.73,1.44,3.74,2.82,6.03,1.38,2.29,3.59,5.5,6.63,9.63l26.01,34.74-4.7,6.03-34.42-10.86-.02.02,19.73,29.73-4.7,6.03h0Z"/>
          <path id="path9" class="cls-4" d="M200.06,131.65c-1.69,3.56-3.4,6.45-5.13,8.66-1.73,2.22-4.04,4.5-6.95,6.85-7.02,5.69-14.63,8.31-22.82,7.85-8.19-.45-14.94-3.87-20.25-10.26-5.81-6.98-8.15-14.79-7.03-23.42,1.12-8.63,5.41-15.97,12.87-22.01,2.36-1.91,4.66-3.51,6.9-4.8,2.24-1.29,4.7-2.42,7.39-3.39l6.21,7.48c-2.99.23-5.93.93-8.81,2.11-2.88,1.18-5.55,2.75-7.99,4.73-4.89,3.96-7.55,8.95-7.98,14.97-.43,6.02,1.48,11.59,5.73,16.69,4.26,5.13,9.33,8.15,15.21,9.06,5.88.92,11.12-.49,15.71-4.21,3.09-2.5,5.48-5.14,7.18-7.91,1.7-2.77,3.01-6.17,3.93-10.19l5.83,7.77Z"/>
          <path id="path10" class="cls-4" d="M206.91,110.54l-.55-47.76.08-.04,39.2,28.03c4.51,3.21,8.06,5.56,10.64,7.04,2.58,1.49,4.88,2.51,6.91,3.07l-6.98,3.56-6.98,3.56c-.25-1.18-1.24-2.72-2.95-4.62-1.71-1.9-3.84-3.83-6.39-5.79l-3.95-3.04-21.03,10.74.15.89c.16,3.79.63,7.36,1.41,10.7.78,3.34,1.64,5.52,2.6,6.53l-7.05,3.6-7.08,3.62c.8-2.2,1.34-4.77,1.62-7.72.28-2.94.41-7.07.37-12.37M214.56,97.01l14.75-7.53-15.59-11.94-.07.03.9,19.44h0Z"/>
          <path id="path11" class="cls-4" d="M286.2,47.17c-2.37-1.26-4.58-2.02-6.65-2.29-2.07-.27-4.2-.09-6.38.56-2.55.75-4.45,2.09-5.7,4.01-1.25,1.92-1.55,3.94-.91,6.06.55,1.82,1.7,3.27,3.44,4.37,1.72,1.08,4.53,2.1,8.45,3.05,5.94,1.47,10.34,3.19,13.17,5.15,2.83,1.97,4.76,4.68,5.8,8.11,1.41,4.65.78,9.04-1.88,13.18-2.66,4.13-6.71,7-12.14,8.6-2.71.8-5.07,1.3-7.11,1.52-2.03.21-4.48.22-7.35.01l-3.17-10.46c2.53,1.59,4.94,2.59,7.26,2.99,2.31.41,4.67.26,7.06-.45,3.02-.89,5.3-2.43,6.81-4.6,1.51-2.18,1.91-4.46,1.19-6.85-.63-2.08-1.86-3.72-3.69-4.92-1.81-1.19-4.73-2.27-8.78-3.27-5.81-1.4-10.09-3.04-12.84-4.9-2.74-1.87-4.59-4.39-5.55-7.56-1.33-4.39-.61-8.58,2.16-12.58,2.77-4,6.9-6.81,12.41-8.43,2.21-.65,4.23-1.05,6.06-1.21,1.83-.16,3.63-.09,5.39.21l2.94,9.7h0Z"/>
          <path id="path12" class="cls-4" d="M322.81,71.14l-4.47-34.9c-3.31.54-6.13,1.11-8.48,1.73-4.56,1.19-8.24,2.68-11.06,4.49l1.19-5.23,1.18-5.27,21.13-2.64,24.27-3.03-.85,4.98-.89,4.99c-3.87-.81-7.14-1.33-9.81-1.54-2.34-.15-4.71-.12-7.11.1l4.5,35.12c.43,3.35.98,6.24,1.65,8.66.67,2.42,1.64,5.03,2.9,7.83l-7.18.9-7.22.9c.54-2.95.83-5.68.86-8.18.03-2.51-.17-5.47-.61-8.9Z"/>
          <path id="path13" class="cls-4" d="M358.41,84.86c.91-2.55,1.58-5.06,2.01-7.54.42-2.47.71-5.57.86-9.3l.99-24.57c.15-3.65.11-6.73-.11-9.23-.22-2.5-.69-5.09-1.4-7.79l7.01.27,7.05.27c-.92,2.58-1.59,5.1-2.01,7.56-.42,2.46-.71,5.55-.86,9.28l-1.41,35.02c4.78.01,8.81-.2,12.07-.62,4.95-.63,9.36-1.88,13.25-3.74l-2.87,5.81-2.91,5.81-19.83-.77-11.84-.46Z"/>
          <path id="path14" class="cls-4" d="M401.56,87.37c1.3-2.38,2.36-4.76,3.17-7.14s1.58-5.4,2.31-9.06l4.84-24.12c.72-3.59,1.17-6.63,1.34-9.13.18-2.5.12-5.14-.16-7.91l11.64,2.27,22.73,4.44-3.36,4.25-3.41,4.28c-2.15-1.66-4.33-2.95-6.54-3.89-2.21-.93-4.95-1.72-8.22-2.36l-2.46-.48-3.76,18.75,20.58,4.02-3.82,4.12-3.82,4.12c-1.79-1.53-3.72-2.75-5.81-3.65-2.08-.9-4.77-1.67-8.06-2.31l-.32-.06-3.99,19.86c5.64.95,10.33,1.48,14.08,1.58,4.98.14,9.53-.4,13.65-1.61l-3.73,5.24-3.77,5.23-21.52-4.2-11.61-2.27Z"/>
          <g>
            <path id="path15" class="cls-4" d="M496.74,72.13l-7.03,13.33c-3.22,6.05-4.48,11.14-3.76,15.26.72,4.12,3.39,7.37,8.04,9.76,4.26,2.19,8.07,2.64,11.43,1.37,3.36-1.27,6.29-4.27,8.78-8.99l9.04-17.14c1.71-3.24,3-6.04,3.88-8.39.88-2.35,1.58-4.89,2.09-7.63l6.22,3.19,6.25,3.21c-1.94,1.95-3.64,3.95-5.09,6.01-1.45,2.06-3.04,4.73-4.78,8.02l-11.5,21.82c-1.72,3.27-3.02,6.08-3.91,8.43s-1.57,4.89-2.08,7.6l-4.82-2.47-4.85-2.49,3-5.7-2.06.37c-6.88,1.03-13.13.1-18.76-2.79-6.06-3.11-9.66-7.39-10.79-12.83-1.13-5.44.24-11.85,4.13-19.22l7.97-15.12c1.71-3.24,3-6.04,3.88-8.39.88-2.35,1.58-4.89,2.09-7.63l6.22,3.19,6.26,3.21c-1.94,1.95-3.64,3.95-5.09,6.01-1.44,2.04-3.03,4.71-4.77,8.02Z"/>
            <path id="path16" class="cls-4" d="M542.87,128.18c-2.42,2.8-4.33,5.25-5.73,7.34-1.4,2.1-2.65,4.41-3.76,6.94l-4.89-4.12-4.92-4.15c2.32-1.45,4.42-3.01,6.3-4.69,1.89-1.68,4.05-3.94,6.51-6.78l21.66-25.02c.06-2.24.06-4.12.02-5.63-.07-3.33-.24-5.37-.51-6.13l5.74,4.84,5.74,4.84c-.6,3.36-1.03,6.41-1.28,9.15-.25,2.74-.4,5.9-.45,9.5l-.67,37.59,17.99-20.77c2.41-2.78,4.32-5.23,5.71-7.33,1.4-2.1,2.66-4.43,3.79-6.98l4.89,4.13,4.92,4.15c-2.34,1.47-4.45,3.04-6.33,4.72-1.88,1.68-4.05,3.93-6.49,6.75l-18.1,20.9c-1.88,2.18-3.56,4.42-5.04,6.75-1.48,2.32-2.34,4.08-2.59,5.28l-4.91-4.14-4.94-4.17c.45-.73.85-2.37,1.18-4.92.34-2.55.52-5.3.55-8.25l.72-37.28-15.13,17.48h0Z"/>
            <path id="path17" class="cls-4" d="M584.69,167.33l18.97-15.94c2.82-2.37,5.09-4.48,6.8-6.33,1.71-1.85,3.33-3.95,4.85-6.29l4.55,5.27,4.57,5.3c-2.54,1.08-4.87,2.31-6.99,3.67-2.12,1.36-4.62,3.25-7.5,5.67l-18.97,15.94c-2.84,2.39-5.12,4.5-6.83,6.36-1.71,1.85-3.32,3.94-4.82,6.27l-4.54-5.27-4.57-5.3c2.52-1.07,4.85-2.29,6.98-3.65,2.11-1.35,4.61-3.24,7.51-5.68Z"/>
            <path id="path18" class="cls-4" d="M609.1,198.89l29.98-19.03c-1.92-2.71-3.66-4.98-5.23-6.8-3.05-3.55-6.01-6.18-8.88-7.91l5.29-1.2,5.33-1.22,11.52,17.68,13.23,20.3-4.92,1.39-4.94,1.36c-.92-3.8-1.86-6.93-2.82-9.4-.87-2.15-1.92-4.24-3.16-6.28l-30.17,19.15c-2.88,1.83-5.28,3.56-7.21,5.2-1.92,1.64-3.89,3.63-5.9,5.96l-3.92-6.01-3.94-6.04c2.93-.79,5.55-1.71,7.85-2.76,2.31-1.05,4.93-2.51,7.87-4.38Z"/>
            <path id="path19" class="cls-4" d="M612.27,237.2c2.73-.28,5.32-.76,7.76-1.44,2.45-.68,5.41-1.75,8.89-3.22l22.92-9.65c3.41-1.43,6.21-2.79,8.4-4.05,2.19-1.27,4.37-2.79,6.53-4.58l4.66,10.77,9.09,21.03-5.45-.34-5.5-.36c.17-2.69.03-5.2-.43-7.53-.47-2.33-1.35-5.01-2.65-8.03l-.98-2.27-17.81,7.5,8.23,19.04-5.61-.79-5.61-.79c.28-2.32.2-4.59-.22-6.79-.42-2.2-1.29-4.83-2.61-7.87l-.13-.3-18.87,7.94c2.38,5.13,4.59,9.26,6.62,12.37,2.69,4.14,5.7,7.54,9.04,10.22l-6.49-.09-6.51-.13-8.61-19.91-4.64-10.74h0Z"/>
            <path id="path20" class="cls-4" d="M645.9,274.14l24.3-5.43c3.61-.81,6.61-1.64,9-2.5,2.39-.86,4.81-1.97,7.26-3.35l1.56,6.79.83,3.63c2.55,11.09,1.92,20.48-1.89,28.18-3.81,7.69-10.22,12.55-19.24,14.56-8.7,1.95-16.3.46-22.79-4.46-6.49-4.92-10.92-12.55-13.3-22.9l-1.41-6.14-1.55-6.76c2.74.21,5.37.2,7.9-.04,2.53-.24,5.64-.77,9.33-1.59M637.6,285.79c1.75,7.65,5.11,13.36,10.06,17.13,4.95,3.78,10.6,4.96,16.94,3.54,7.21-1.61,12.5-5.11,15.89-10.51,3.39-5.39,4.26-11.72,2.59-18.97l-.3-1.29-45.19,10.1Z"/>
          </g>
        </g>
        <g>
          <path id="path21" class="cls-4" d="M82.3,513.69l21.5-12.12c3.2-1.8,5.8-3.45,7.82-4.96,2.02-1.5,3.99-3.26,5.92-5.28l5.8,10.18,11.17,19.6-5.41.26-5.47.25c-.14-2.71-.58-5.2-1.3-7.47-.72-2.26-1.89-4.81-3.5-7.65l-1.06-1.85-16.71,9.42,10.03,17.61-5.61-.17-5.62-.17c.02-2.33-.3-4.56-.96-6.69-.66-2.13-1.79-4.61-3.41-7.45l-8.48,4.78c-3.22,1.81-5.84,3.47-7.85,4.97-2.02,1.5-3.98,3.25-5.88,5.26l-3.43-6.02-3.45-6.05c2.66-.58,5.16-1.34,7.49-2.29,2.33-.95,5.13-2.34,8.39-4.18h0Z"/>
          <path id="path22" class="cls-4" d="M101.86,563.36c.59-8.24,4.25-15.22,10.95-20.93,6.5-5.54,13.95-7.76,22.36-6.66,8.4,1.1,15.68,5.23,21.84,12.39,5.81,6.76,8.42,14.27,7.81,22.52-.61,8.25-4.27,15.24-10.98,20.95-6.48,5.52-13.92,7.72-22.32,6.63-8.4-1.1-15.69-5.24-21.87-12.43-5.8-6.74-8.4-14.23-7.8-22.47M130.61,590.06c5.63.36,10.76-1.43,15.39-5.36,5.48-4.67,8.64-10.18,9.46-16.53.82-6.35-.89-12-5.14-16.94-3.85-4.47-8.59-6.89-14.23-7.25-5.64-.36-10.78,1.44-15.43,5.4-5.46,4.65-8.6,10.15-9.42,16.5-.82,6.35.89,11.98,5.12,16.9,3.86,4.49,8.61,6.92,14.25,7.28Z"/>
          <path id="path23" class="cls-4" d="M155.73,620.13c-1.39-8.15.5-15.79,5.66-22.91,5-6.91,11.71-10.82,20.13-11.74,8.42-.91,16.48,1.38,24.17,6.89,7.26,5.2,11.57,11.88,12.95,20.04,1.37,8.16-.52,15.81-5.68,22.94-4.98,6.89-11.68,10.78-20.1,11.7-8.42.91-16.49-1.39-24.2-6.92-7.24-5.18-11.55-11.85-12.93-20M190.01,639.29c5.56-.98,10.12-3.92,13.68-8.84,4.22-5.83,5.97-11.93,5.26-18.29s-3.72-11.45-9.02-15.25c-4.8-3.44-9.99-4.67-15.55-3.69-5.56.98-10.13,3.94-13.71,8.88-4.2,5.8-5.94,11.89-5.23,18.25.72,6.36,3.71,11.43,8.99,15.22,4.82,3.46,10.02,4.7,15.58,3.72Z"/>
          <path id="path24" class="cls-4" d="M231.45,656.2l14.3-32.17c-3.09-1.22-5.79-2.17-8.09-2.84-4.49-1.3-8.4-1.9-11.73-1.78l3.72-3.88,3.74-3.91,19.32,8.5,22.19,9.76-3.31,3.83-3.34,3.82c-2.87-2.67-5.38-4.77-7.53-6.32-1.91-1.32-3.94-2.5-6.09-3.53l-14.39,32.38c-1.37,3.09-2.4,5.84-3.09,8.26-.69,2.41-1.22,5.14-1.59,8.18l-6.57-2.89-6.61-2.91c1.99-2.25,3.65-4.44,4.98-6.57,1.33-2.13,2.69-4.78,4.1-7.94h0Z"/>
          <path id="path25" class="cls-4" d="M271.71,672.01l6.06-23.84c.9-3.54,1.5-6.56,1.81-9.05.31-2.49.39-5.12.26-7.9l6.78,1.71,6.43,1.62c6.32,1.59,10.99,4.19,14.01,7.8,3.02,3.61,3.96,7.69,2.8,12.25-1.06,4.15-4.11,7-9.15,8.55-.99.31-2.05.56-3.18.74,1.84,1.16,3.4,2.45,4.7,3.88,3.78,4.08,5.03,8.65,3.74,13.69-1.28,5.02-4.48,8.32-9.61,9.92-5.13,1.6-11.79,1.36-19.99-.7l-4.22-1.06-6.75-1.7c1.42-2.31,2.59-4.63,3.52-6.97.92-2.31,1.84-5.28,2.77-8.92M278.25,685.26l.12.03c4.69,1.18,8.66,1.15,11.9-.08,3.24-1.24,5.28-3.51,6.12-6.81.91-3.59.22-6.81-2.08-9.65-2.24-2.75-5.69-4.74-10.33-5.99l-5.72,22.5M285.01,658.69l.39.1c3.75.94,6.96.79,9.63-.46,2.66-1.25,4.39-3.42,5.17-6.5.7-2.77.18-5.24-1.57-7.41-1.75-2.17-4.47-3.72-8.14-4.65l-.63-.16-4.85,19.08h0Z"/>
          <path id="path26" class="cls-4" d="M324.69,683.67l23.96-41.4h.09s19.13,43.82,19.13,43.82c2.21,5.03,4.04,8.83,5.48,11.4,1.44,2.57,2.88,4.61,4.33,6.11l-7.78-.44-7.78-.44c.39-1.14.33-2.96-.16-5.46-.49-2.49-1.32-5.22-2.5-8.19l-1.82-4.6-23.44-1.31-.33.84c-1.8,3.35-3.23,6.65-4.27,9.91-1.04,3.26-1.42,5.57-1.12,6.93l-7.86-.44-7.9-.44c1.8-1.49,3.58-3.43,5.33-5.83,1.75-2.39,3.96-5.88,6.64-10.46M338.14,675.86l16.45.92-7.2-18.11h-.07s-9.18,17.19-9.18,17.19h0Z"/>
          <path id="path27" class="cls-4" d="M390.73,701.67c.47-2.67.7-5.25.7-7.76,0-2.51-.24-5.61-.72-9.31l-3.15-24.39c-.47-3.63-1.02-6.65-1.65-9.08-.63-2.43-1.52-4.91-2.67-7.45l6.9-.88,6.94-.89c-.46,2.69-.7,5.29-.7,7.78,0,2.5.24,5.6.71,9.3l4.49,34.76c4.68-.77,8.58-1.64,11.7-2.6,4.73-1.44,8.84-3.4,12.33-5.87l-1.83,6.2-1.87,6.2-19.53,2.5-11.66,1.49Z"/>
          <path id="path28" class="cls-4" d="M439.95,694.06c.06-2.71-.1-5.3-.48-7.78-.38-2.48-1.08-5.51-2.11-9.1l-6.79-23.64c-1.01-3.51-2.01-6.43-3-8.73-.99-2.31-2.25-4.63-3.77-6.96l6.69-1.9,6.72-1.91c-.05,2.73.11,5.33.48,7.8.37,2.47,1.08,5.5,2.11,9.08l9.68,33.69c4.51-1.46,8.24-2.9,11.18-4.31,4.46-2.13,8.23-4.68,11.31-7.64l-.88,6.4-.92,6.41-18.93,5.38-11.3,3.21Z"/>
          <path id="path29" class="cls-4" d="M554.86,639.46c-2.2,3.27-4.3,5.87-6.33,7.81-2.03,1.94-4.64,3.85-7.84,5.75-7.74,4.59-15.6,6.05-23.56,4.4s-14.07-6.03-18.32-13.13c-4.65-7.76-5.77-15.83-3.38-24.2,2.39-8.37,7.7-14.99,15.93-19.87,2.6-1.54,5.1-2.79,7.49-3.73s4.97-1.69,7.76-2.26l4.97,8.31c-2.97-.21-5.95.05-8.96.78-3.01.74-5.86,1.9-8.55,3.5-5.39,3.19-8.75,7.74-10.07,13.63-1.33,5.89-.29,11.68,3.11,17.35,3.41,5.7,7.93,9.43,13.56,11.2,5.63,1.77,10.98,1.16,16.04-1.85,3.41-2.02,6.15-4.27,8.23-6.76,2.08-2.49,3.88-5.65,5.38-9.5l4.55,8.54Z"/>
          <path id="path30" class="cls-4" d="M568.63,631.77c-1.07-2.49-2.3-4.78-3.67-6.88-1.38-2.1-3.28-4.57-5.72-7.41l-16.03-18.72c-2.38-2.78-4.51-5.02-6.37-6.71-1.86-1.69-3.97-3.28-6.33-4.78l5.29-4.49,5.32-4.51c1.09,2.51,2.32,4.81,3.69,6.9,1.37,2.09,3.27,4.56,5.7,7.4l22.84,26.67c3.5-3.19,6.29-6.04,8.38-8.53,3.17-3.78,5.54-7.65,7.11-11.62l1.87,6.19,1.84,6.21-14.98,12.7-8.95,7.59Z"/>
          <path id="path31" class="cls-4" d="M581.14,564.82l11.73,9.47c5.32,4.33,10.08,6.56,14.28,6.7,4.2.13,7.93-1.8,11.2-5.81,3-3.68,4.21-7.27,3.62-10.78-.58-3.5-2.96-6.93-7.11-10.29l-15.09-12.17c-2.85-2.3-5.35-4.12-7.49-5.44-2.14-1.32-4.51-2.51-7.1-3.55l4.38-5.37,4.41-5.4c1.53,2.27,3.17,4.31,4.91,6.13,1.74,1.82,4.06,3.89,6.95,6.23l19.2,15.49c2.87,2.32,5.38,4.14,7.52,5.47,2.14,1.32,4.5,2.5,7.07,3.53l-3.39,4.16-3.42,4.19-5.01-4.04-.05,2.07c-.35,6.85-2.51,12.71-6.48,17.58-4.27,5.24-9.2,7.86-14.78,7.86-5.59,0-11.62-2.61-18.1-7.84l-13.31-10.74c-2.85-2.3-5.35-4.11-7.49-5.44-2.14-1.32-4.51-2.51-7.1-3.55l4.38-5.37,4.41-5.4c1.53,2.27,3.17,4.31,4.9,6.12,1.72,1.8,4.03,3.87,6.94,6.22Z"/>
          <path id="path32" class="cls-4" d="M635.77,532.51l-21.78-11.62c-3.24-1.73-6.03-3.04-8.39-3.94-2.35-.9-4.9-1.62-7.64-2.16l3.31-6.14,3.14-5.82c3.08-5.71,6.75-9.59,11-11.64s8.46-1.96,12.62.26c3.79,2.02,5.83,5.66,6.12,10.9.07,1.04.05,2.12-.05,3.25,1.57-1.49,3.21-2.69,4.92-3.6,4.9-2.66,9.65-2.76,14.25-.3,4.58,2.45,7.03,6.34,7.35,11.67.32,5.34-1.52,11.71-5.52,19.12l-2.06,3.81-3.29,6.11c-1.91-1.93-3.89-3.62-5.94-5.08-2.03-1.44-4.71-3.06-8.03-4.83M625.99,516.45l.19-.35c1.83-3.4,2.46-6.53,1.88-9.4-.58-2.87-2.27-5.06-5.09-6.57-2.53-1.35-5.07-1.44-7.61-.28-2.54,1.16-4.71,3.41-6.5,6.74l-.3.57,17.43,9.3M650.27,529.41l.06-.11c2.29-4.24,3.22-8.08,2.8-11.51-.42-3.43-2.14-5.95-5.16-7.56-3.28-1.75-6.59-1.86-9.91-.32-3.22,1.5-6,4.34-8.34,8.53l20.55,10.97h0Z"/>
        </g>
        <path id="path33" class="cls-4" d="M680.18,399.88c0,5.03-4.07,9.1-9.1,9.1s-9.1-4.07-9.1-9.1,4.07-9.1,9.1-9.1,9.1,4.07,9.1,9.1Z"/>
        <path id="path34" class="cls-4" d="M64.11,399.88c0,5.03-4.07,9.1-9.1,9.1s-9.1-4.07-9.1-9.1,4.07-9.1,9.1-9.1,9.1,4.07,9.1,9.1Z"/>
        <path id="path35" d="M130.84,485.11v5.46h461.67v-5.46H130.84Z"/>
        <path id="path36" d="M319.12,519.7c-9.71,3.91-18.88,7.6-35.69,7.88-19.09.32-29.78-2.82-40.11-5.87-8.83-2.6-17.16-5.05-29.67-5.05-26.97,0-49.8,12.55-50.76,13.08l2.66,4.77c.22-.12,22.6-12.4,48.11-12.4,11.72,0,19.69,2.35,28.13,4.83,10.23,3.01,21.83,6.43,41.75,6.09,17.82-.3,27.9-4.36,37.64-8.28,10.27-4.13,20.88-8.4,41.45-8.71l2.35.08c20.61.31,31.23,4.58,41.49,8.71,9.74,3.92,19.82,7.98,37.64,8.28,19.92.34,31.52-3.08,41.75-6.09,8.44-2.48,16.41-4.83,28.13-4.83,25.51,0,47.88,12.27,48.11,12.39l2.66-4.77c-.96-.53-23.79-13.09-50.76-13.09-12.5,0-20.84,2.45-29.67,5.05-10.34,3.04-21.02,6.19-40.11,5.87-16.81-.28-25.98-3.98-35.69-7.88-10.73-4.32-21.82-8.78-43.41-9.1l-2.43-.08c-21.71.32-32.8,4.79-43.53,9.1Z"/>
        <path id="path37" d="M364.1,561.4c-12.06,0-22.28,3.2-33.09,6.58-11.09,3.47-22.57,7.07-36.58,7.07-12.26,0-19.82-2.11-27.13-4.15-6.59-1.84-12.81-3.58-21.64-3.58-18.26,0-30.38,3.14-30.88,3.28l1.39,5.28c.12-.03,12-3.1,29.49-3.1,8.08,0,13.95,1.64,20.17,3.38,7.31,2.04,15.59,4.36,28.6,4.36,14.85,0,26.73-3.72,38.21-7.32,10.4-3.26,20.23-6.34,31.46-6.34h.93c11.23,0,21.05,3.08,31.46,6.34,11.49,3.6,23.36,7.32,38.21,7.32,13.01,0,21.29-2.31,28.6-4.36,6.22-1.74,12.09-3.38,20.17-3.38,17.5,0,29.38,3.06,29.49,3.1l1.39-5.28c-.51-.13-12.63-3.28-30.88-3.28-8.82,0-15.05,1.74-21.64,3.58-7.31,2.04-14.87,4.15-27.13,4.15-14.01,0-25.49-3.59-36.58-7.07-10.81-3.39-21.03-6.58-33.09-6.58h-.93Z"/>
        <path id="path38" class="cls-5" d="M293.88,264.21l18.96.08v-13.19h17.74v13.19h9.99s0-13.19,0-13.19h17.74v13.19l9.99-.02v-13.2h17.74v13.2h9.99s0-13.19,0-13.19h17.74v13.19l18.65-.06-.23,222.27h-138.32v-222.27Z"/>
        <path id="path39" d="M368.3,249.7c-.75,0-1.37.61-1.37,1.36v11.83c-1.71,0-5.54.01-7.26.02v-11.83c0-.75-.61-1.37-1.36-1.37h-17.74c-.75,0-1.36.61-1.36,1.37v11.83c-1.71,0-5.55,0-7.26,0v-11.83c0-.75-.61-1.37-1.37-1.37h-17.74c-.75,0-1.37.61-1.37,1.37v11.82c-2.36,0-17.59-.07-17.59-.07-.36,0-.71.14-.97.4-.26.26-.4.6-.4.97v222.27c0,.75.61,1.37,1.37,1.37h138.32c.75,0,1.36-.61,1.37-1.36l.23-222.27c0-.36-.14-.71-.4-.97-.26-.26-.61-.4-.97-.4,0,0-14.93.04-17.28.05v-11.83c0-.75-.61-1.37-1.37-1.37h-17.74c-.75,0-1.37.61-1.37,1.37v11.83c-1.71,0-5.55,0-7.26,0v-11.83c0-.75-.61-1.36-1.37-1.36h-17.74M384.68,252.43v11.83c0,.75.61,1.37,1.36,1.37h9.99c.36,0,.71-.14.96-.4.26-.26.4-.6.4-.96v-11.83h15.01v11.83c0,.36.14.71.4.97.26.26.61.4.97.4,0,0,14.93-.04,17.28-.05,0,2.69-.22,216.86-.22,219.53h-135.59v-219.53c2.36,0,17.59.07,17.59.07.36,0,.71-.14.96-.4.26-.26.4-.6.4-.97v-11.83h15.01v11.83c0,.75.61,1.37,1.37,1.37h9.99c.36,0,.71-.14.97-.4s.4-.6.4-.97v-11.83h15.01v11.83c0,.36.14.71.4.97.26.26.6.4.97.4l9.99-.02c.75,0,1.36-.61,1.36-1.37v-11.83h15.01Z"/>
        <path id="path40" class="cls-5" d="M465.87,182.39c0,2.6-2.1,4.7-4.7,4.7h0c-2.6,0-4.7-2.1-4.7-4.7v-29.42c0-2.6,2.11-4.7,4.7-4.7h0c2.6,0,4.7,2.11,4.7,4.7v29.42Z"/>
        <path id="path41" d="M455.1,152.96v29.42c0,3.35,2.72,6.07,6.07,6.07s6.07-2.72,6.07-6.07v-29.42c0-3.35-2.72-6.07-6.07-6.07s-6.07,2.72-6.07,6.07M457.83,182.39v-29.42c0-1.84,1.5-3.34,3.34-3.34s3.34,1.5,3.34,3.34v29.42c0,1.84-1.5,3.34-3.34,3.34s-3.34-1.5-3.34-3.34Z"/>
        <path id="path42" class="cls-5" d="M490.97,207.56c0,16.5-13.44,29.88-30.03,29.88s-30.03-13.38-30.03-29.88,13.44-29.88,30.03-29.88,30.03,13.38,30.03,29.88Z"/>
        <path id="path43" d="M429.55,207.56c0,17.23,14.08,31.24,31.4,31.24s31.4-14.02,31.4-31.24-14.08-31.24-31.4-31.24-31.4,14.01-31.4,31.24M432.28,207.56c0-15.72,12.86-28.51,28.66-28.51s28.66,12.79,28.66,28.51-12.86,28.51-28.66,28.51-28.66-12.79-28.66-28.51Z"/>
        <path id="path44" class="cls-5" d="M498.78,486.33h-72.8v-250.55h72.8v250.55Z"/>
        <path id="path45" d="M425.98,234.41c-.75,0-1.37.61-1.37,1.36v250.55c0,.75.61,1.37,1.37,1.37h72.8c.75,0,1.37-.61,1.37-1.37v-250.55c0-.75-.61-1.36-1.37-1.36h-72.8M497.42,237.14v247.82h-70.07v-247.82h70.07Z"/>
        <path id="path47" d="M426.29,250.48c-.75,0-1.36.61-1.36,1.37s.61,1.36,1.36,1.36h71.59c.75,0,1.37-.61,1.37-1.36s-.61-1.37-1.37-1.37h-71.59Z"/>
        <path id="path48" d="M469.89,294.16c0,4.1-3.43,7.43-7.66,7.43h0c-4.23,0-7.66-3.33-7.66-7.43v-15.77c0-4.1,3.43-7.43,7.66-7.43h0c4.23,0,7.66,3.33,7.66,7.43v15.77Z"/>
        <path id="path49" class="cls-5" d="M500.61,235.85s4.32-12.55,8.83-23.36c5.7-13.65,6.55-14.26-4.56-14.26s-10.82,0-14.52,8.19c-3.43,7.59-3.99,9.1-6.27,9.1s-2.28-3.64-2.28-9.1c0-6.98-1.42-8.49-7.12-8.49s-8.58.89-8.26,8.8c.28,6.98-.29,9.71-3.42,9.71h-1.39c-3.13,0-3.7-2.73-3.42-9.71.32-7.9-2.56-8.8-8.26-8.8s-7.12,1.52-7.12,8.49c0,5.46,0,9.1-2.28,9.1s-2.83-1.51-6.26-9.1c-3.7-8.19-3.42-8.19-14.52-8.19s-10.25.61-4.56,14.26c4.51,10.81,8.83,23.36,8.83,23.36h76.56Z"/>
        <path id="path50" d="M467.06,198.67c-1.54,1.6-2.15,4.1-1.99,8.11.14,3.33.14,6.88-.84,7.9-.17.18-.46.38-1.21.38h-1.39c-.75,0-1.04-.2-1.21-.38-.98-1.02-.98-4.57-.84-7.9.16-4.01-.45-6.51-1.98-8.11-1.87-1.95-4.8-2.11-7.64-2.11-6.58,0-8.48,2.21-8.48,9.86,0,3.26,0,7.74-.91,7.74-1.17,0-1.55-.6-4.51-7.17l-.78-1.72c-3.68-8.16-4.11-8.4-15.5-8.4-5.18,0-8.17.09-9.46,2.02-1.4,2.11-.17,5.04,2.81,12.13l.83,1.99c4.44,10.65,8.75,23.15,8.8,23.28.19.55.71.92,1.29.92h76.56c.58,0,1.1-.37,1.29-.92.04-.12,4.35-12.63,8.8-23.28l.83-1.99c2.98-7.09,4.21-10.02,2.81-12.13-1.28-1.93-4.28-2.02-9.46-2.02-11.38,0-11.82.24-15.5,8.4l-.78,1.73c-2.96,6.57-3.34,7.17-4.51,7.17-.91,0-.91-4.47-.91-7.74,0-7.65-1.9-9.86-8.49-9.86-2.84,0-5.77.16-7.64,2.11M463.02,217.8c1.33,0,2.4-.41,3.18-1.22,1.61-1.68,1.8-4.9,1.6-9.91-.13-3.12.27-5.12,1.23-6.11,1.02-1.06,2.92-1.27,5.67-1.27,4.66,0,5.75.66,5.75,7.13,0,6.08,0,10.47,3.64,10.47,3.04,0,3.88-1.86,7-8.78l.78-1.73q3.06-6.79,13.01-6.79c2.81,0,6.65,0,7.18.8.08.13.12.31.12.55,0,1.45-1.43,4.85-3.17,9.01l-.84,2c-3.8,9.12-7.48,19.51-8.54,22.52h-74.62c-1.05-3.01-4.73-13.4-8.54-22.52,0,0-.84-2-.84-2-1.74-4.16-3.17-7.56-3.17-9.01,0-.24.04-.43.12-.55.53-.8,4.38-.8,7.18-.8q9.95,0,13.01,6.79l.78,1.72c3.12,6.92,3.96,8.78,7,8.78,3.64,0,3.64-4.39,3.64-10.47,0-6.47,1.09-7.13,5.75-7.13,2.75,0,4.65.21,5.67,1.27.95.99,1.35,2.99,1.23,6.11-.2,5.01,0,8.23,1.6,9.91.78.81,1.85,1.22,3.18,1.22h1.39,0Z"/>
        <path id="path51" class="cls-5" d="M227.34,486.48h72.8v-250.55h-72.8v250.55Z"/>
        <path id="path52" d="M227.34,234.56c-.75,0-1.37.61-1.37,1.37v250.55c0,.75.61,1.37,1.37,1.37h72.8c.75,0,1.36-.61,1.36-1.37v-250.55c0-.75-.61-1.37-1.36-1.37h-72.8M298.77,237.29v247.82h-70.07v-247.82h70.07Z"/>
        <path id="path54" d="M228.25,250.64c-.75,0-1.36.61-1.36,1.36s.61,1.37,1.36,1.37h71.59c.75,0,1.36-.61,1.36-1.37s-.61-1.36-1.36-1.36h-71.59Z"/>
        <path id="path55" d="M256.23,294.32c0,4.1,3.43,7.43,7.66,7.43h0c4.23,0,7.66-3.33,7.66-7.43v-15.77c0-4.1-3.43-7.43-7.66-7.43h0c-4.23,0-7.66,3.33-7.66,7.43v15.77Z"/>
        <path id="path56" class="cls-5" d="M225.51,236s-4.32-12.55-8.83-23.36c-5.7-13.65-6.55-14.26,4.56-14.26s10.82,0,14.52,8.19c3.43,7.59,3.99,9.1,6.26,9.1s2.28-3.64,2.28-9.1c0-6.98,1.42-8.49,7.12-8.49s8.58.89,8.26,8.8c-.28,6.98.28,9.71,3.42,9.71h1.39c3.13,0,3.7-2.73,3.42-9.71-.32-7.9,2.56-8.8,8.26-8.8s7.12,1.52,7.12,8.49c0,5.46,0,9.1,2.28,9.1s2.83-1.51,6.27-9.1c3.7-8.19,3.42-8.19,14.52-8.19s10.25.61,4.56,14.26c-4.51,10.81-8.83,23.36-8.83,23.36h-76.56Z"/>
        <path id="path57" d="M268.53,198.83c-1.54,1.6-2.15,4.1-1.98,8.11.14,3.33.14,6.88-.84,7.9-.17.18-.46.38-1.21.38h-1.39c-.75,0-1.04-.2-1.21-.38-.98-1.02-.98-4.57-.84-7.9.16-4.01-.45-6.51-1.98-8.11-1.87-1.95-4.8-2.11-7.64-2.11-6.58,0-8.48,2.21-8.48,9.86,0,3.26,0,7.74-.91,7.74-1.17,0-1.55-.6-4.51-7.17l-.78-1.73c-3.68-8.16-4.12-8.4-15.5-8.4-5.18,0-8.17.09-9.46,2.02-1.4,2.11-.17,5.04,2.81,12.13l.83,1.99c4.44,10.65,8.75,23.15,8.8,23.28.19.55.71.92,1.29.92h76.56c.58,0,1.1-.37,1.29-.92.04-.13,4.35-12.63,8.8-23.28l.83-1.99c2.98-7.09,4.21-10.03,2.81-12.13-1.28-1.93-4.27-2.02-9.46-2.02-11.38,0-11.82.24-15.5,8.4l-.78,1.72c-2.96,6.57-3.34,7.17-4.51,7.17-.91,0-.91-4.47-.91-7.74,0-7.65-1.9-9.86-8.48-9.86-2.84,0-5.77.16-7.64,2.11M264.49,217.95c1.33,0,2.4-.41,3.18-1.22,1.61-1.68,1.8-4.9,1.6-9.91-.13-3.12.27-5.12,1.23-6.11,1.02-1.06,2.92-1.27,5.67-1.27,4.66,0,5.75.66,5.75,7.13,0,6.08,0,10.46,3.64,10.46,3.04,0,3.88-1.86,7-8.78l.78-1.72q3.06-6.79,13.01-6.79c2.81,0,6.65,0,7.18.8.08.13.12.31.12.55,0,1.45-1.43,4.85-3.17,9.01l-.84,2c-3.8,9.12-7.48,19.51-8.54,22.52h-74.62c-1.05-3.01-4.73-13.4-8.54-22.52,0,0-.84-2-.84-2-1.74-4.16-3.18-7.56-3.18-9.01,0-.24.04-.43.12-.55.53-.8,4.38-.8,7.18-.8h0q9.95,0,13.01,6.79l.78,1.73c3.12,6.92,3.96,8.78,7,8.78,3.64,0,3.64-4.39,3.64-10.46,0-6.47,1.09-7.13,5.75-7.13,2.75,0,4.65.21,5.67,1.27.95.99,1.35,2.99,1.23,6.11-.2,5.01,0,8.23,1.6,9.91.78.81,1.85,1.22,3.18,1.22h1.39,0Z"/>
        <path id="path58" d="M404.22,341.1h-17.74v-25.93h17.74v25.93Z"/>
        <path id="path59" d="M339.38,341.33h-17.74v-25.94h17.74v25.94Z"/>
        <path id="path60" d="M300.02,284.46v2.73h126.04v-2.73h-126.04Z"/>
        <path id="path61" d="M442.06,390.17s.36,10.08-18.81,27.91c-26.09,24.27-36.4,27.3-36.4,27.3,0,0,3.03,3.64,8.49,6.07,5.46,2.43,0,10.31-10.92,11.53-7.26.81-13.35-9.1-13.35-9.1,0,0-4.25,0-9.1.61-4.85.61-4.25-3.64-6.67-3.64s-27.3,5.46-55.21-3.64c-40.85-13.32-52.78-53.39-52.78-66.13s-2.43-21.84-8.49-29.73c-5.14-6.68-10.92-9.71-18.2-9.71s-16.38-3.03-16.38-3.03c0,0,1.82-6.07,14.56-10.31,11.65-3.89,16.99-4.85,16.99-4.85,0,0,3.64-10.92,16.38-15.77,12.74-4.85,33.97-3.03,47.32,7.28,13.35,10.31,22.45,30.33,22.45,30.33,0,0,21.01-4.42,49.75-3.64,33.67.91,40.04,6.07,55.81,3.03,15.77-3.03,27.91-12.13,70.98-38.83,43.07-26.69,70.37-46.71,70.37-46.71,0,0,0,4.25.61,7.89.61,3.64,3.03,7.28,3.03,7.28,0,0-98.89,64.91-98.89,69.16s9.1,7.28,20.02,7.28,20.44,5.18,10.92,11.53c-25.48,16.99-37.61,21.23-62.49,27.91Z"/>
        <path id="path62" d="M382.58,456.69c-1.53.77-2.16,2.66-1.45,4.22.07.15,1.58,3.67-2.92,9.9l-5.51,7.22c-9.65,12.4-15.48,20.27-15.11,24.93.76,9.48-1.56,12.73-1.58,12.76-1.01,1.37-.81,3.36.52,4.43,1.33,1.07,3.23.96,4.35-.33.68-.78,4.02-5.26,3.05-17.37.1-2.92,9.34-14.8,13.78-20.51l5.64-7.4c6.89-9.54,3.78-15.89,3.4-16.58-.82-1.5-2.66-2.03-4.19-1.27Z"/>
        <path id="path63" d="M359.14,496.33c-.14.08-3.62,2.08-21.91,9.82-13.1,5.54-15.82,14.88-15.93,15.28-.47,1.68.51,3.4,2.18,3.89,1.68.49,3.44-.48,3.94-2.15.08-.28,2.19-6.88,12.29-11.15,18.82-7.96,22.36-10.01,22.71-10.22,1.49-.91,1.97-2.84,1.07-4.35-.89-1.5-2.84-2-4.35-1.12Z"/>
        <path id="path64" d="M347.12,495.88c-7.11,0-14.96,1.83-15.29,1.9-1.71.4-2.77,2.12-2.37,3.83.4,1.71,2.12,2.77,3.83,2.37.07-.02,7.47-1.74,13.83-1.74h13.65c1.76,0,3.19-1.43,3.19-3.18s-1.43-3.18-3.19-3.18h-13.65Z"/>
        <path id="path65" d="M360.84,448.18c-.1.16-10.51,15.97-18.1,26.25-2.95,3.99-4.69,7.21-5.96,9.56-2.21,4.09-2.78,4.98-5.77,5.59-23.58,4.81-29.3,16.28-29.54,16.76-.75,1.57-.09,3.43,1.47,4.21,1.56.77,3.46.13,4.26-1.42.05-.09,4.95-9.2,25.08-13.31,6-1.23,7.81-4.57,10.1-8.8,1.25-2.31,2.8-5.18,5.48-8.8,7.7-10.42,18.2-26.37,18.3-26.53.97-1.47.56-3.44-.91-4.41-1.47-.97-3.44-.56-4.41.91Z"/>
        <path id="path66" d="M318.41,486.36c-8.86,1.4-16.24,4.14-16.55,4.26-1.65.62-2.48,2.45-1.87,4.1.62,1.65,2.45,2.48,4.1,1.87.07-.03,7.11-2.64,15.31-3.93,6.81-1.07,14.38.32,16.4.74.97.68,11.76,8.27,11.76,8.27,1.44,1.01,3.43.67,4.44-.77,1.01-1.44.67-3.43-.77-4.44l-12.28-8.65c-.33-.23-.7-.4-1.1-.49-.42-.1-10.27-2.4-19.43-.96Z"/>
        <path id="path67" class="cls-4" d="M273.41,327.53c0,3.02-2.75,5.46-6.14,5.46s-6.14-2.44-6.14-5.46,2.75-5.46,6.14-5.46,6.14,2.45,6.14,5.46Z"/>
        <path id="path68" class="cls-4" d="M287.51,393.51c-1.53,1.74,5.92,16.83,37.31,13.65,31.39-3.19,50.51-26.85,60.06-39.13,9.56-12.28,14.11-18.2,3.64-15.47-10.46,2.73-84.63,22.29-101.01,40.95Z"/>
        <path id="path69" class="cls-4" d="M498.63,353.92s-19.26,18.35-46.87,22.3c-13.44,1.92-18.71,2.27-18.2-1.82.46-3.64,7.63-2.72,16.84-4.55,24.42-4.85,37.31-16.38,37.31-16.38l10.92.45Z"/>
        <path id="path70" class="cls-4" d="M358.04,396.69s12.74,1.97,30.64,1.37c16.83-.57,31.24-3.19,39.43-5.92,8.19-2.73,14.56,1.37,3.64,5.46-10.92,4.1-25.93,7.74-45.5,7.28-20.1-.47-35.49,0-28.21-8.19Z"/>
        <path id="path71" class="cls-4" d="M294.34,404.43s-3.64,12.44-3.94,22.75c-.3,10.31-.61,18.65,40.34,21.84,36.91,2.87,52.48-19.41,59.76-30.03,7.28-10.62,7.28-12.44,7.28-12.44,0,0-13.11-.53-16.08,1.97-5.76,4.85-25.48,17.75-50.66,15.62-25.55-2.15-30.94-17.59-30.94-17.59l-5.76-2.12Z"/>
        <path id="path72" class="cls-2" d="M106.55,363.64c0,141.76,115.33,257.09,257.09,257.09s257.09-115.33,257.09-257.09S505.39,106.55,363.64,106.55,106.55,221.88,106.55,363.64M110.19,363.64c0-139.75,113.7-253.45,253.45-253.45s253.45,113.7,253.45,253.45-113.7,253.45-253.45,253.45-253.45-113.7-253.45-253.45Z"/>
      </g>
    </g>
  </g>
</svg>