<?xml version="1.0" encoding="UTF-8"?>
<svg id="Calque_2" data-name="Calque 2" xmlns="http://www.w3.org/2000/svg" viewBox="0 0 536.53 538.54">
  <defs>
    <style>
      .cls-1 {
        fill: #FFFFFF;
        fill-rule: evenodd;
      }
    </style>
  </defs>
  <g id="Calque_1-2" data-name="Calque 1">
    <g>
      <path class="cls-1" d="M264.43,313.13c87.55-1.71,162.86,54.17,189.81,132.83,3.15,9.44,3.56,12.93-3.62,19.22-25.38,23.46-55.27,42.14-88.3,54.45-8,2.67-8.82,1.98-8.35-7.8v-3.76c-.89-47.4-40.01-85.09-87.35-84.2-47.47.96-85.09,40.08-84.2,87.48.07,1.44.14,2.87.21,4.31.61,5.88-2.88,5.06-7.8,4.04-33.38-12.45-63.68-31.32-89.33-55.27-5.75-4.86-6.91-8.14-3.21-18.81,26.13-75.79,97.4-130.92,182.15-132.49"/>
      <path class="cls-1" d="M289.4.34c18.33,1.43,36.11,4.72,53.28,9.64,12.86,3.69,11.7,7.11,11.7,16.28v287.69c0,4.58.07,10.67-12.38,5.81-24.08-9.37-50.34-14.29-77.63-13.75-25.17.48-49.18,5.47-71.21,14.29-2.19.82-4.17,1.44-5.54,1.3-4.04-.27-4.52-4.45-4.52-7.32V28.11c0-9.98-.55-14.84,11.08-18.12C211.22,5.06,228.87,1.64,247.06.07c11.21-.89,10.19,7.52,10.19,9.44v216.76l22.43.34V9.78c0-4.38-1.3-10.26,9.71-9.44M536.53,252.8v.96c-.21,5.13-4.52,5.54-8.41,1.64-15.8-16.76-34.41-31.53-52.19-43.84-3.28-2.33-6.77-3.01-6.63,2.73v14.5c0,6.56,1.5,7.59,5.27,10.12,20.93,15.39,37.21,31.05,52.74,49.11,4.86,5.47,8.21,8.89,6.63,20.18-2.87,18.74-7.59,37-14.16,54.31-3.07,5.82-6.22.55-8.21-2.8-9.09-15.18-22.16-33.38-36.52-46.44-4.04-3.83-5.82-.21-5.82,3.55v129.41c0,6.23-5.13,6.09-7.18.68-14.91-46.3-45.21-86.53-86.46-110.33-11.7-6.77-12.04-12.66-12.04-19.15V30.5c0-5.95-2.19-14.84,11.49-8.96,90.29,39.12,155.13,126.34,161.43,229.96,0,.48.07.89.07,1.3M0,272.57v-9.3c.68-39.33,9.85-76.68,25.79-110.26,5.06-10.74,9.3-9.16,14.78-3.29l29.07,33.04-.14-75.99c0-14.09,1.71-21.82,14.98-34.2,22.5-21.2,48.84-38.65,77.57-51.1,11.15-4.79,11.97,2.46,11.97,8.76v290.77c0,5.74-.07,7.66-6.7,11.76-9.17,5.2-17.86,11.08-26,17.58-6.97,6.09-9.44,2.94-13.2-.55l-41.93-40.08c-1.98-1.91-5.06-.75-3.62,3.35l19.7,56.64c2.39,12.72,3.01,17.24-2.6,25.58-10.19,15.05-18.4,31.39-24.35,48.91-1.09,2.8-3.15,6.63-7.11,2.6C26.88,400.62,1.3,339.94,0,273.12v-.55"/>
      <path class="cls-1" d="M329.21,460.95c-3.28,1.98-7.25,4.44-10.6,6.49-.61.34-1.85.41-2.46.75-2.53,1.58-4.31,3.22-6.98,4.79-2.46,1.51-3.28,1.85-5.67,3.42-.82.55-2.06.82-2.95,1.44-4.86,3.21-11.42,7.11-16.21,9.37-6.15-.62-11.69-.48-17.51,0-1.5.14-3.01.27-4.58.41-.41.07-.75.07-1.09.14-3.97.48-4.66,1.02-7.6-2.46-3.9-4.59-7.66-7.39-13.74-7.87-2.81-.21-5.48.55-7.87,3.01-1.37,1.43-1.17,1.51-3.15,1.78-2.66.41-6.77,1.3-7.86,3.01,3.82,0,9.84,1.57,10.32,4.58,1.65,9.92,3.36,31.53,29.9,29.28h.27c1.37-.21,2.32,1.16,1.43,2.39-.68.96-1.23,1.84-1.7,2.66-.55.83-1.1,1.72-1.85,2.67-.34.55-.96,1.44-1.44,1.65-.61.34-3.55.27-6.16.34-2.53.07-5.67,1.36-5.47,1.91.07.28,1.24.14,2.26.41.89.14,1.64.62,1.92,1.3.27.55-1.58,2.47-1.3,2.81.54.27,1.84-.75,3.35-1.23,2.26-.76,4.92-1.31,5.33-.82.34.34-.07,1.3-.89,2.25-1.02,1.23-2.46,2.46-2.12,3.08.28.27,2.26-1.3,4.65-2.6.55-.27,1.1-.55,1.72-.75,2.25-.96,4.51-1.37,4.58-.82.06.48.2.68-.21,1.98-.34.96-.68,1.71-.2,1.78.2.07.75-.62,1.5-1.51,1.1-1.36,2.53-3.35,3.49-4.72.48-.68.21-2.66.68-3.35,3.22-4.92,5.14-5.2,8.01-8.48,1.77-1.16-.28-2.87.89-3.62,4.85-2.94,9.16-4.31,8.82-12.73-.07-1.09,2.19-1.23,4.86-1.91,3.08-.82,6.77-2.26,9.1-3.42,4.1-2.12,8-5.27,11.35-8.75-3.56-.9-13.41-.14-10.53-3.49,9.71-6.57,18.39-12.93,28.18-19.5.34-.82.61-1.57.61-2.19v-.13c-.07-1.23-.96-2.12-3.08-3.35ZM249.05,499.73c3.48-1.16,6.63-2.87,9.78-4.31.75-.35,1.5-.69,2.33-1.03,1.98-.82,3.89-1.64,5.67-2.53,1.03-.55,1.99-1.09,2.94-1.71.48-.27,1.92-1.03,2.6-.68.96.41.82,1.71.55,2.39-1.78,4.04-3.76,7.05-6.09,9.37-1.71,1.64-3.62,2.94-5.67,3.83-3.08,1.37-6.5,1.99-10.33,2.12-1.3,0-2.19-1.02-3.22-2.39-.61-.96-1.02-1.37-1.37-2.19-.68-1.64,1.58-2.46,2.81-2.87ZM271.21,523.94c-.68,1.3-2.26,3.76-3.21,4.79-.28.27-.69.27-1.17.14-.48-.07-1.03-.28-1.71-.35-.89,0-1.78.28-2.19.14-1.02-.41-1.23-.75-.75-1.98.55-1.3,2.26-3.36,3.21-4.31.62-.62,1.03-.69,1.44-.69h.82c.89-.06,2.53-.06,3.35.14.82.21.89.82.21,2.12ZM276.07,508c-2.26,4.04-5.54,6.84-9.24,8.55-1.78.82-3.76,1.37-5.67,1.64-5.2.83-10.61,0-15.33-2.18,1.17-1.99,1.78-3.42,2.26-4.79.96-2.87,2.05-3.01,5.06-1.3,2.46,1.5,5.2,2.46,8.01,2.74.61.06,1.29.13,1.98.13,1.23,0,2.46-.2,3.69-.54,2.94-.96,5.88-3.02,8.35-6.3.41-.54,1.78.55.89,2.05Z"/>
    </g>
  </g>
</svg>