<?xml version="1.0" encoding="UTF-8" standalone="no"?>
<!-- Created with Inkscape (http://www.inkscape.org/) -->

<svg
   version="1.1"
   id="svg1167"
   width="788.44238"
   height="906.8299"
   viewBox="0 0 788.44238 906.82989"
   sodipodi:docname="Logo del Club Atlético Tucumán - 2015.svg"
   inkscape:version="1.1 (c68e22c387, 2021-05-23)"
   xmlns:inkscape="http://www.inkscape.org/namespaces/inkscape"
   xmlns:sodipodi="http://sodipodi.sourceforge.net/DTD/sodipodi-0.dtd"
   xmlns="http://www.w3.org/2000/svg"
   xmlns:svg="http://www.w3.org/2000/svg">
  <defs
     id="defs1171" />
  <sodipodi:namedview
     id="namedview1169"
     pagecolor="#ffffff"
     bordercolor="#666666"
     borderopacity="1.0"
     inkscape:pageshadow="2"
     inkscape:pageopacity="0.0"
     inkscape:pagecheckerboard="0"
     showgrid="false"
     inkscape:zoom="0.27523712"
     inkscape:cx="575.86709"
     inkscape:cy="684.86401"
     inkscape:window-width="1366"
     inkscape:window-height="705"
     inkscape:window-x="-8"
     inkscape:window-y="-8"
     inkscape:window-maximized="1"
     inkscape:current-layer="g1252" />
  <g
     inkscape:groupmode="layer"
     inkscape:label="Image"
     id="g1173"
     transform="translate(-78.117652,-19.2)">
    <g
       id="g1252">
      <g
         id="g1821">
        <path
           style="fill:#ffffff;fill-opacity:1;stroke-width:0.64"
           d="m 462.72154,902.33659 c -29.99697,-7.728 -62.6703,-18.3138 -87.47017,-28.3394 C 314.37364,849.3867 262.87589,815.53914 221.71484,773.08346 194.08821,744.58791 174.9022,718.2457 156.7156,683.84001 127.21279,628.02618 109.32633,569.51364 103.40396,509.44001 100.00068,474.91872 99.856897,464.13403 99.848084,242.72 L 99.840001,39.68 H 472.66284 845.4857 l -0.23251,217.76 c -0.23782,222.73257 -0.22803,221.83725 -2.7088,247.84001 -4.64358,48.67207 -18.93184,102.74872 -39.14726,148.16 -9.57229,21.50297 -26.22247,51.02675 -38.70823,68.63667 -7.07788,9.98266 -22.54553,29.64051 -28.58073,36.32333 -17.15559,18.99629 -42.09568,41.94432 -61.1072,56.22624 -34.10752,25.6224 -75.67082,48.14733 -119.23823,64.62022 -27.3979,10.35924 -76.62762,25.15226 -83.29623,25.0297 -1.31258,-0.0243 -5.69781,-0.89696 -9.74497,-1.93958 z m 28.50509,-17.25933 c 17.10797,-4.65741 50.3777,-15.30887 52.3082,-16.74675 1.01988,-0.75962 1.09373,-13.36628 1.17634,-200.8105 C 544.76276,550.55043 544.5621,467.52 544.22791,467.52 c -0.31428,0 -32.89413,12.37003 -72.39966,27.48897 L 400,522.49792 v 172.94503 172.94509 l 3.36,1.25325 c 8.35879,3.11763 32.67932,10.74394 44.32,13.8976 19.41433,5.25965 22.20877,5.93971 24.66663,6.00288 1.24664,0.032 9.74264,-1.97702 18.88,-4.46451 z M 252.70795,626.08001 c 0.0759,-38.09915 -0.0579,-46.24 -0.75931,-46.24 -0.68023,0 -63.43583,23.84414 -100.45183,38.16692 -6.87462,2.66003 -7.50749,3.04078 -7.14045,4.2959 0.89034,3.04455 8.35145,21.16975 12.55393,30.49718 14.5203,32.22777 34.82329,64.43475 57.69332,91.52 3.71524,4.4 13.6133,14.912 21.99569,23.36 l 15.2407,15.36 0.38795,-55.36 c 0.21337,-30.448 0.42937,-76.168 0.48,-101.6 z m 456.19542,140.17824 c 34.60691,-34.41587 61.10893,-73.06701 81.50163,-118.86388 22.95456,-51.54999 35.50189,-102.47071 39.74938,-161.31436 0.74784,-10.36068 1.80646,-121.16798 1.20563,-126.20031 l -0.32,-2.68032 -69.12,26.463 -69.12,26.46299 -0.16109,185.68042 c -0.15757,181.65412 -0.13498,185.66641 1.0439,185.03556 0.66272,-0.35469 7.51194,-6.91712 15.22055,-14.5831 z M 267.50643,490.56286 c 12.60105,-2.65071 26.70221,-8.70675 35.22267,-15.1271 17.60022,-13.26217 22.87572,-32.41487 15.63987,-56.78061 -0.69655,-2.34554 -1.29418,-3.28185 -2.07376,-3.249 -1.84789,0.0779 -18.38241,6.76915 -18.26488,7.39153 0.0607,0.32134 0.59694,2.98584 1.19171,5.92113 0.73023,3.60388 1.00079,7.34354 0.83318,11.51648 -0.22009,5.47958 -0.50642,6.72249 -2.52773,10.97215 -5.19789,10.92826 -15.69585,17.1062 -28.06321,16.51491 -4.71424,-0.2254 -6.26256,-0.60737 -10.3714,-2.55865 -9.07805,-4.31114 -16.53455,-12.84763 -22.91242,-26.23102 -6.06502,-12.7269 -8.98046,-23.89271 -8.98046,-34.39419 0,-8.05495 0.83679,-12.0576 3.65077,-17.46298 7.31995,-14.06087 25.23403,-19.72578 39.83961,-12.59833 5.57776,2.7219 12.33158,9.54641 15.57584,15.73883 1.3301,2.5388 2.67817,4.77657 2.99572,4.97283 0.84774,0.52393 17.29806,-6.0301 17.29806,-6.89179 0,-1.63918 -18.28146,-48.45705 -18.92152,-48.45705 -0.38069,0 -4.12708,1.2612 -8.32532,2.80267 l -7.63316,2.80266 -0.18542,5.5524 c -0.16339,4.89235 -0.31555,5.51354 -1.28,5.22554 -0.60202,-0.17977 -3.83058,-0.80189 -7.17458,-1.3825 -26.27837,-4.56265 -57.53382,11.94006 -68.75346,36.30145 -8.04293,17.46377 -8.6105,32.77453 -1.95757,52.80754 3.97816,11.97888 8.9814,20.33863 17.39761,29.06911 10.11269,10.49031 21.09873,16.16563 35.76766,18.47735 5.00457,0.78869 16.0529,0.32021 22.01219,-0.93336 z M 380.16,448.56354 c 7.63607,-3.37303 11.09482,-11.09397 8.6843,-19.38587 -1.26154,-4.33957 -5.12168,-8.92675 -9.0043,-10.70022 -5.22663,-2.38738 -12.70238,-1.08114 -17.54745,3.06606 -3.84289,3.28936 -5.40272,6.6761 -5.40551,11.73649 -0.003,5.19436 1.66198,9.14384 5.37225,12.74454 4.70642,4.56742 11.21785,5.49099 17.90071,2.539 z m 57.92,-26.28618 c 11.968,-4.58728 22.37227,-8.66831 23.12059,-9.06894 1.3546,-0.72521 1.34786,-0.76225 -1.52928,-8.40842 -1.58942,-4.224 -2.9572,-7.76351 -3.0395,-7.86558 -0.0823,-0.10208 -2.34434,0.68623 -5.02674,1.75179 -11.77657,4.67815 -12.76641,3.77143 -13.58713,-12.44621 l -0.42105,-8.32 17.0886,-6.59765 c 9.39873,-3.62871 17.32248,-6.50871 17.60833,-6.4 1.34775,0.51255 12.82619,16.18796 12.82619,17.51595 0,2.49295 -3.04082,4.59687 -10.93087,7.56298 l -3.64825,1.37149 2.96641,7.83362 c 1.63152,4.30849 3.2251,7.83361 3.54128,7.83361 0.55379,0 65.80467,-24.90314 66.17167,-25.25456 0.42321,-0.40524 -5.52419,-15.35342 -6.19799,-15.57802 -0.40832,-0.1361 -2.60839,0.49955 -4.88906,1.41256 -2.28066,0.91302 -5.0191,1.66002 -6.08542,1.66002 -2.71585,0 -6.23268,-1.97379 -9.31358,-5.22718 -1.44419,-1.52505 -17.2315,-21.13282 -35.08291,-43.57282 -20.05438,-25.20922 -32.86869,-40.79556 -33.5342,-40.78837 -0.88228,0.01 -11.70043,3.99877 -32.59709,12.02035 l -2.72,1.04412 0.006,5.14195 c 0.006,4.48675 1.1813,31.2345 3.91127,88.98195 0.41601,8.8 0.54034,17.43959 0.27629,19.1991 -0.6101,4.06529 -3.73189,7.2209 -9.26672,9.36708 -2.13798,0.82902 -3.88518,1.79677 -3.88267,2.15057 0.004,0.53911 1.8146,5.5365 5.02743,13.87479 l 0.65947,1.71153 3.39427,-1.28259 c 1.86685,-0.70543 13.18626,-5.03583 25.15426,-9.62312 z m -1.61415,-64.31043 c -0.008,-0.99381 -0.43203,-9.29493 -0.94279,-18.44693 -0.51074,-9.152 -0.93638,-17.87402 -0.94585,-19.38227 l -0.0172,-2.74226 1.8429,2.10226 c 4.57207,5.21557 24.38522,30.32871 24.38052,30.90227 -0.004,0.50516 -19.9513,8.29712 -23.46703,9.16693 -0.53766,0.13302 -0.84144,-0.43844 -0.85054,-1.6 z m 139.61369,15.44818 c 9.19798,-3.23482 13.23463,-11.07584 10.51613,-20.42714 -1.56526,-5.38432 -6.38535,-10.12685 -11.44276,-11.25864 -9.23852,-2.0675 -18.24504,3.65388 -20.21551,12.84184 -2.61214,12.18 9.47009,22.94887 21.14214,18.84394 z m 83.69973,-36.19683 c 33.144,-12.54717 43.6496,-16.62097 46.28704,-17.94887 l 2.38637,-1.20146 -2.15354,-5.91398 c -3.12089,-8.57049 -3.63968,-9.54974 -4.81312,-9.08495 -4.89804,1.9401 -12.49696,4.13098 -14.32806,4.13098 -3.40282,0 -4.19744,-0.52362 -5.90342,-3.89022 -1.68896,-3.33309 -31.65453,-80.80304 -31.65453,-81.83654 0,-0.83543 5.848,-2.54059 10.35737,-3.01998 9.9673,-1.05963 18.49127,5.29716 24.21786,18.06064 1.08966,2.42877 2.08262,4.5173 2.20653,4.64119 0.21254,0.21257 4.28985,-1.18533 12.65824,-4.33985 2.024,-0.76296 3.68,-1.65355 3.68,-1.97908 0,-0.50489 -13.10931,-35.27979 -16.32922,-43.31616 -0.59936,-1.496 -1.45222,-2.72 -1.89523,-2.72 -0.44301,0 -6.67571,2.27696 -13.8505,5.05991 -7.17478,2.78294 -30.32505,11.69733 -51.44505,19.80974 -50.70992,19.47821 -51.10113,19.63373 -51.36253,20.41792 -0.20957,0.62873 16.63733,45.32057 17.3541,46.03734 0.178,0.178 3.95284,-1.05519 8.38854,-2.74043 6.38652,-2.42641 7.98432,-3.27222 7.6777,-4.06427 -0.21295,-0.55011 -1.12186,-3.84661 -2.01979,-7.32554 -2.95378,-11.44408 -1.49591,-18.87583 4.97155,-25.34329 3.2304,-3.2304 9.5549,-6.7922 11.04513,-6.22034 0.47844,0.18359 1.4725,1.87171 2.20901,3.75139 11.7361,29.95197 29.82973,78.27038 30.05923,80.27217 0.2727,2.37873 0.0943,2.78393 -1.97766,4.49184 -1.25261,1.03249 -4.81274,2.99928 -7.91137,4.37063 -3.09866,1.37134 -5.89119,2.71769 -6.20565,2.99188 -0.66305,0.57814 4.7549,15.29049 5.63099,15.29083 0.31859,1.2e-4 10.5426,-3.77155 22.72001,-8.3815 z m -532.8845,-17.15355 c 6.41587,-2.4284 24.72142,-9.49172 40.67897,-15.69627 15.95756,-6.20455 44.18156,-17.05555 62.72,-24.11335 C 271.4141,264.60012 339.4861,238.51229 419.2,207.85888 c 32.912,-12.65608 80.86401,-31.07352 106.56001,-40.92765 25.696,-9.85413 77.824,-29.88049 115.84,-44.50303 38.016,-14.62253 86.256,-33.135399 107.2,-41.139694 20.944,-8.0043 45.40973,-17.400697 54.36832,-20.880887 L 819.45665,54.080001 467.48832,53.916396 C 273.90574,53.826414 115.16,53.889375 114.72,54.05631 113.6744,54.453007 113.52938,324.48 114.57477,324.48 c 0.36012,0 5.90412,-1.98687 12.32,-4.41527 z m 626.06524,-14.62009 c 5.67187,-2.94099 8.296,-7.44937 8.2912,-14.24464 0,-3.96318 -0.30362,-5.37447 -1.72531,-8.09524 -3.26004,-6.2391 -8.29978,-8.95633 -15.54471,-8.38117 -9.04217,0.71785 -15.02118,7.14272 -15.02118,16.14137 0,6.54002 3.15392,12.02301 8.46688,14.71932 2.97574,1.51021 3.93862,1.68101 8.17312,1.44983 3.18489,-0.17388 5.66137,-0.7087 7.36,-1.58947 z"
           id="path1258"
           sodipodi:nodetypes="cssssscccsssssssscssssscccssssssssssscsscssscccsscssssssssssssssssssscsssssssssssscsscssssscsssscsssssssscsccssscscsccssscscsssssssssscsssssssssssssssssssssssssssssssssssscssssscssssss" />
        <path
           style="fill:#70a3c4;stroke-width:0.64"
           d="m 465.28,888.24507 c -22.13038,-5.70989 -48.97141,-13.77421 -61.92,-18.60378 L 400,868.38804 V 695.44295 522.49792 l 71.82825,-27.48895 C 511.33378,479.89003 543.91363,467.52 544.22791,467.52 c 0.33419,0 0.53482,83.03043 0.48326,200.00001 -0.0826,187.44422 -0.15646,200.05088 -1.17634,200.8105 -3.67041,2.73376 -66.12064,21.3415 -71.1882,21.21126 -1.24664,-0.032 -4.42663,-0.61555 -7.06663,-1.2967 z M 236.5993,767.68001 c -8.38239,-8.448 -18.28045,-18.96 -21.99569,-23.36 -22.87003,-27.08525 -43.17302,-59.29223 -57.69332,-91.52 -4.20248,-9.32743 -11.66359,-27.45263 -12.55393,-30.49718 -0.36704,-1.25512 0.26583,-1.63587 7.14045,-4.2959 37.016,-14.32278 99.7716,-38.16692 100.45183,-38.16692 0.94517,0 1.02377,41.6058 0.27931,147.84 l -0.38795,55.36 z m 456.03962,-171.87422 0.16109,-185.68042 69.12,-26.46299 69.12,-26.463 0.32,2.68032 c 0.60083,5.03233 -0.45779,115.83963 -1.20563,126.20031 -3.22298,44.65033 -10.44608,81.07735 -24.00884,121.07961 -21.53606,63.51866 -53.16153,115.26132 -97.24217,159.09863 -7.70861,7.66598 -14.55783,14.22841 -15.22055,14.5831 -1.17888,0.63085 -1.20147,-3.38144 -1.0439,-185.03556 z M 113.92,189.41992 c 0,-107.459529 0.16349,-135.122118 0.8,-135.36361 0.44,-0.166935 159.18574,-0.229896 352.76832,-0.139914 l 351.96833,0.163605 -16.28832,6.327618 c -8.95859,3.48019 -33.42432,12.876587 -54.36832,20.880887 -20.944,8.004295 -69.184,26.517164 -107.2,41.139694 -38.016,14.62254 -90.144,34.6489 -115.84,44.50303 -25.696,9.85413 -73.64801,28.27157 -106.56001,40.92765 -79.7139,30.65341 -147.7859,56.74124 -188.90626,72.39623 -18.53844,7.0578 -46.76244,17.9088 -62.72,24.11335 -35.30458,13.72697 -52.12952,20.11154 -52.99897,20.11154 -0.44429,0 -0.65477,-43.4163 -0.65477,-135.06008 z"
           id="path1256" />
        <path
           style="fill:#bf9b4e;stroke-width:0.64"
           d="M 459.2,923.15476 C 413.82614,911.37972 389.3002,903.27764 357.12,889.43284 319.29065,873.15764 287.17271,854.74369 256.0552,831.49006 235.69172,816.27271 220.16053,802.17716 200.75555,781.30196 176.25002,754.93985 160.71228,733.86042 142.90883,702.82388 109.9662,645.39527 87.842471,574.06143 81.641876,505.28001 78.833927,474.13229 78.898593,480.09611 78.441076,210.08 L 78.117652,19.2 H 472.33883 866.56001 l -0.006,221.28 c -0.006,136.12372 -0.25005,226.69848 -0.64013,235.36001 -1.8128,40.25837 -6.10054,70.22592 -15.01779,104.96 -11.6553,45.39955 -29.45786,89.73408 -49.59955,123.52 -23.97312,40.21293 -47.0178,68.86016 -79.37972,98.67853 -17.75865,16.36281 -21.49478,19.55347 -32.31673,27.59846 -21.96007,16.32493 -48.61556,32.73581 -73.8987,45.49677 -26.60429,13.42784 -45.70047,21.35443 -74.2613,30.8249 -25.18294,8.3504 -64.51035,19.21779 -69.1575,19.11046 -1.21138,-0.0282 -7.09851,-1.32147 -13.08251,-2.87437 z m 25.42651,-21.35712 c 11.37441,-2.93561 42.16997,-12.21337 53.2935,-16.05574 51.87447,-17.91885 98.39165,-42.05127 137.08096,-71.11565 19.01152,-14.28192 43.95161,-37.22995 61.1072,-56.22624 6.0352,-6.68282 21.50285,-26.34067 28.58073,-36.32333 12.48576,-17.60992 29.13594,-47.1337 38.70823,-68.63667 20.21542,-45.41128 34.50368,-99.48793 39.14726,-148.16 2.48077,-26.00276 2.47098,-25.10744 2.7088,-247.84001 L 845.4857,39.68 H 472.66284 99.840001 l 0.0081,203.04 c 0.0088,221.41403 0.152599,232.19872 3.555879,266.72001 5.92237,60.07363 23.80884,118.58617 53.31164,174.4 14.04637,26.57312 28.26584,47.66848 46.58406,69.10989 49.51618,57.95859 112.27178,99.89197 193.42067,129.24384 23.55784,8.52102 69.69416,21.9712 75.74618,22.08243 1.31259,0.0243 6.78459,-1.09126 12.16,-2.47853 z M 245.49424,491.49622 c -14.66893,-2.31172 -25.65497,-7.98704 -35.76766,-18.47735 -8.41621,-8.73048 -13.41945,-17.09023 -17.39761,-29.06911 -6.65293,-20.03301 -6.08536,-35.34377 1.95757,-52.80754 11.21964,-24.36139 42.47509,-40.8641 68.75346,-36.30145 3.344,0.58061 6.57256,1.20273 7.17458,1.3825 0.96445,0.288 1.11661,-0.33319 1.28,-5.22554 l 0.18542,-5.5524 7.63316,-2.80266 c 4.19824,-1.54147 7.94463,-2.80267 8.32532,-2.80267 0.64006,0 18.92152,46.81787 18.92152,48.45705 0,0.86169 -16.45032,7.41572 -17.29806,6.89179 -0.31755,-0.19626 -1.66562,-2.43403 -2.99572,-4.97283 -3.24426,-6.19242 -9.99808,-13.01693 -15.57584,-15.73883 -14.60558,-7.12745 -32.51966,-1.46254 -39.83961,12.59833 -2.81398,5.40538 -3.65077,9.40803 -3.65077,17.46298 0,10.50148 2.91544,21.66729 8.98046,34.39419 6.37787,13.38339 13.83437,21.91988 22.91242,26.23102 14.27463,6.77899 31.55702,0.50347 38.43461,-13.95626 2.02131,-4.24966 2.30764,-5.49257 2.52773,-10.97215 0.16761,-4.17294 -0.10295,-7.9126 -0.83318,-11.51648 -0.59477,-2.93529 -1.13104,-5.59979 -1.19171,-5.92113 -0.11753,-0.62238 16.41699,-7.31365 18.26488,-7.39153 2.11626,-0.0892 5.09747,13.23081 5.14635,22.99385 0.0771,15.4002 -6.02334,27.47421 -18.71246,37.03576 -8.52046,6.42035 -22.62162,12.47639 -35.22267,15.1271 -5.95929,1.25357 -17.00762,1.72205 -22.01219,0.93336 z M 367.9218,449.5911 c -3.67058,-1.169 -7.91394,-5.18017 -9.70193,-9.17104 -1.83967,-4.10623 -1.82054,-10.35406 0.0428,-13.95129 2.84182,-5.48644 9.23067,-9.20303 15.77142,-9.17471 11.30895,0.049 19.21741,13.76206 13.89994,24.10218 -3.47408,6.75554 -12.68645,10.52796 -20.01216,8.19486 z m 40.9502,-18.11956 c -3.21283,-8.33829 -5.02359,-13.33568 -5.02743,-13.87479 -0.003,-0.3538 1.74469,-1.32155 3.88267,-2.15057 5.53483,-2.14618 8.65662,-5.30179 9.26672,-9.36708 0.26405,-1.75951 0.13972,-10.3991 -0.27629,-19.1991 -2.72997,-57.74745 -3.90568,-84.4952 -3.91127,-88.98195 l -0.006,-5.14195 2.72,-1.04412 c 20.89666,-8.02158 31.71481,-12.01083 32.59709,-12.02035 0.66551,-0.007 13.47982,15.57915 33.5342,40.78837 17.85141,22.44 33.63872,42.04777 35.08291,43.57282 3.0809,3.25339 6.59773,5.22718 9.31358,5.22718 1.06632,0 3.80476,-0.747 6.08542,-1.66002 2.28067,-0.91301 4.48074,-1.54866 4.88906,-1.41256 0.6738,0.2246 6.6212,15.17278 6.19799,15.57802 -0.367,0.35142 -65.61788,25.25456 -66.17167,25.25456 -0.31618,0 -1.90976,-3.52512 -3.54128,-7.83361 l -2.96641,-7.83362 3.64825,-1.37149 c 7.89005,-2.96611 10.93087,-5.07003 10.93087,-7.56298 0,-1.32799 -11.47844,-17.0034 -12.82619,-17.51595 -0.28585,-0.10871 -8.2096,2.77129 -17.60833,6.4 l -17.0886,6.59765 0.42105,8.32 c 0.82072,16.21764 1.81056,17.12436 13.58713,12.44621 2.6824,-1.06556 4.94443,-1.85387 5.02674,-1.75179 0.0823,0.10207 1.45008,3.64158 3.0395,7.86558 2.87714,7.64617 2.88388,7.68321 1.52928,8.40842 -1.08383,0.58026 -31.06303,12.18822 -48.27485,18.69206 l -3.39427,1.28259 z M 449.46547,355.2 c 6.22198,-2.288 11.31506,-4.448 11.31795,-4.8 0.004,-0.57356 -19.80845,-25.6867 -24.38052,-30.90227 l -1.8429,-2.10226 0.0172,2.74226 c 0.009,1.50825 0.4351,10.23027 0.94585,19.38227 0.51075,9.152 0.93501,17.45312 0.94279,18.44693 0.017,2.17505 -1.06712,2.40581 12.99962,-2.76693 z m 116.0326,18.19312 c -7.56629,-2.77224 -12.22285,-11.07148 -10.56067,-18.82195 1.97047,-9.18796 10.97699,-14.90934 20.21551,-12.84184 5.05741,1.13179 9.8775,5.87432 11.44276,11.25864 1.39965,4.81461 0.93102,9.63609 -1.30791,13.45655 -3.69908,6.312 -12.80285,9.50853 -19.78969,6.9486 z m 68.1702,-35.1896 c -1.58956,-4.18122 -2.56322,-7.61274 -2.24,-7.89457 0.31446,-0.27419 3.10699,-1.62054 6.20565,-2.99188 3.09863,-1.37135 6.65876,-3.33814 7.91137,-4.37063 2.072,-1.70791 2.25036,-2.11311 1.97766,-4.49184 -0.2295,-2.00179 -18.32313,-50.3202 -30.05923,-80.27217 -0.73651,-1.87968 -1.73057,-3.5678 -2.20901,-3.75139 -1.49023,-0.57186 -7.81473,2.98994 -11.04513,6.22034 -6.46746,6.46746 -7.92533,13.89921 -4.97155,25.34329 0.89793,3.47893 1.80684,6.77543 2.01979,7.32554 0.30662,0.79205 -1.29118,1.63786 -7.6777,4.06427 -4.4357,1.68524 -8.21054,2.91843 -8.38854,2.74043 -0.71677,-0.71677 -17.56367,-45.40861 -17.3541,-46.03734 0.2614,-0.78419 0.65261,-0.93971 51.36253,-20.41792 21.12,-8.11241 44.27027,-17.0268 51.44505,-19.80974 7.17479,-2.78295 13.40749,-5.05991 13.8505,-5.05991 0.44301,0 1.29587,1.224 1.89523,2.72 3.21991,8.03637 16.32922,42.81127 16.32922,43.31616 0,0.32553 -1.656,1.21612 -3.68,1.97908 -8.36839,3.15452 -12.4457,4.55242 -12.65824,4.33985 -0.12391,-0.12389 -1.11687,-2.21242 -2.20653,-4.64119 -5.72659,-12.76348 -14.25056,-19.12027 -24.21786,-18.06064 -4.50937,0.47939 -10.35737,2.18455 -10.35737,3.01998 0,1.0335 29.96557,78.50345 31.65453,81.83654 1.70598,3.3666 2.5006,3.89022 5.90342,3.89022 1.8311,0 9.43002,-2.19088 14.32806,-4.13098 1.17344,-0.46479 1.69223,0.51446 4.81312,9.08495 l 2.15354,5.91398 -2.38637,1.20146 c -2.63744,1.3279 -13.14304,5.4017 -46.28704,17.94887 -12.17741,4.60995 -22.40142,8.38162 -22.72001,8.3815 -0.31859,-1.2e-4 -1.84453,-3.32844 -3.39099,-7.39626 z m 103.75862,-32.61924 c -5.31296,-2.69631 -8.46688,-8.1793 -8.46688,-14.71932 0,-8.99865 5.97901,-15.42352 15.02118,-16.14137 7.24493,-0.57516 12.28467,2.14207 15.54471,8.38117 2.18368,4.17904 2.44985,11.52668 0.54835,15.13524 -3.02797,5.74626 -7.40967,8.40843 -14.47424,8.79411 -4.2345,0.23118 -5.19738,0.0604 -8.17312,-1.44983 z"
           id="path1254" />
      </g>
    </g>
  </g>
</svg>
