<?xml version="1.0" encoding="UTF-8" standalone="no"?>
<!DOCTYPE svg PUBLIC "-//W3C//DTD SVG 1.1//EN" "http://www.w3.org/Graphics/SVG/1.1/DTD/svg11.dtd">
<svg width="100%" height="100%" viewBox="0 0 500 500" version="1.1" xmlns="http://www.w3.org/2000/svg" xmlns:xlink="http://www.w3.org/1999/xlink" xml:space="preserve" xmlns:serif="http://www.serif.com/" style="fill-rule:evenodd;clip-rule:evenodd;stroke-linejoin:round;stroke-miterlimit:2;">
    <g transform="matrix(1.10375,0,0,1.07066,-9.90889,-17.1306)">
        <ellipse cx="236.5" cy="249.5" rx="226.5" ry="233.5" style="fill:white;"/>
    </g>
    <path d="M145,188C143.055,176.279 137.827,167.84 130,162C137.186,155.333 141.806,148.667 142,142C155.221,125.859 161.902,133.782 176,138C174.504,123.171 182,116.11 193,115L200.933,108C202.563,103.991 205.276,101.026 210,100C210.973,89.491 211.104,77.198 216,75C221.702,80.782 228.348,85.473 236,89C241.431,88.81 243.728,81.931 246,75C246.415,81.421 246.38,90 249,90C252.821,87.413 254.603,83.244 255,78C256.769,81.47 258.411,85.001 257,90C259.246,88.538 260.609,86.555 261,84C265.057,82.877 263.817,87.207 264,91C270.282,91.302 271.029,81.956 272,73C275.001,79.848 278.945,85.153 285,87C284.597,91.157 284.68,93.518 285,95C290.656,95.929 292.846,90 295,84L294,98C296.977,100.628 299.936,96.605 304,92C306.612,96.379 304.194,100.345 298,104C297.799,107.776 302.943,108.25 307,106.253C309.772,104.889 310.879,101.837 314,100C313.693,106.614 311.564,111.777 307,115C315.335,125.45 327.007,119.822 341,103C349.626,126.323 344.66,142.881 326,153L326,157.471C349.106,160.597 357.721,148.476 366,136C373.357,179.477 350.78,180.367 331,188C342.715,200.529 352.338,191.564 362,183C363.062,195.363 357.038,204.515 343,210C346.153,219.354 345.427,228.687 341,238C326.418,221.439 312.256,212.514 299,220C301.079,240.544 314.012,246.64 329,250C322.917,254.9 316.271,259.385 303,259C302.327,269.296 310.806,278.928 327,288C310.644,288.864 294.647,287.366 280,277C279.61,294.105 279.192,311.218 287,326C273.989,318.375 264.327,304.071 254,290C245.347,289.753 246.838,316.311 248,342C234.323,327.947 227.559,304.429 225,281C222.463,282.152 218.858,282.481 216,283.714C212.947,285.031 210.649,287.238 208.308,288C194.746,292.417 187.582,291.379 182,286C192.645,281.827 209.453,272.148 214,254C198.076,254.949 183.975,250.891 172,241C199.37,242.331 218.941,232.19 231,211C227.851,202.066 213.48,199.736 193,201C189.729,197.012 185.096,191.905 176,189C185.333,188.63 194.667,189.322 204,192C214.665,189.948 225.332,190.383 236,192C237.369,185.435 236.093,180.524 231,178L188,176C169.447,158.836 156.033,167.445 145,188Z" style="fill:rgb(184,7,33);"/>
    <path d="M185,139C186.686,138.346 189.076,136.229 192,133C192.587,135.444 193.545,137.19 195,138L195,144C192.171,144.689 190.336,143.614 189,142C187.681,141.35 186.35,141.242 185,142L185,139Z" style="fill:white;"/>
    <path d="M204,130C202.22,123.291 217.351,125.488 223.752,129C230.075,132.47 227.638,136.173 231,143C223.134,143.92 215.266,145.896 207,144.212C211.424,135.588 209.844,131.898 204,130Z" style="fill:white;"/>
    <g transform="matrix(1,0,0,1,0,1)">
        <path d="M199.428,138.606C198.17,136.525 198.263,133.893 199,131C201.989,130.376 203.99,131.041 205,133C205.839,134.939 205.719,136.798 205,138.606C203.143,139.949 201.285,140.335 199.428,138.606Z" style="fill:white;"/>
    </g>
    <path d="M195,265C183.448,261.187 173.092,255.227 164,247C133.375,260.466 111.024,251.181 93,230C89.689,257.297 97.461,278.236 116,293C96.568,317.479 100.753,341.376 116,365C117.898,342.681 126.283,324.803 145,314C137.478,369.397 146.939,397.591 170,404C175.067,361.478 183.525,341.944 191,345C216.364,355.369 227.658,383.65 229,423C249.633,420.674 267.65,408.562 281,379C311.579,405.348 341.343,408.144 370,379C346.782,370.003 337.464,356.216 341,338C377.379,344.408 396.029,327.531 402,294C389.389,300.902 381.641,301.998 379,297C403.735,279.212 410.044,265.417 410,253C389.085,268.087 367.732,267.386 346,253C339.177,261.845 329.982,266.864 319,269C327.795,278.029 337.225,286.064 348,292C332.917,303.823 313.761,304.392 291,295C288.722,312.625 293.422,326.529 306,342C299.664,351.504 281.864,338.267 258,313C254.802,321.183 252.374,332.236 255.765,345C258.106,353.811 259.137,360.155 258,365C244.426,362.894 230.304,334.358 216,297C191.833,301.103 169.458,298.155 159,284C173.148,279.406 186.543,274.026 195,265Z" style="fill:rgb(20,23,84);"/>
</svg>
