<?xml version="1.0" encoding="UTF-8" standalone="no"?>
<!-- Generator: Adobe Illustrator 13.0.0, SVG Export Plug-In . SVG Version: 6.00 Build 14948)  -->

<svg
   xmlns:dc="http://purl.org/dc/elements/1.1/"
   xmlns:cc="http://creativecommons.org/ns#"
   xmlns:rdf="http://www.w3.org/1999/02/22-rdf-syntax-ns#"
   xmlns:svg="http://www.w3.org/2000/svg"
   xmlns="http://www.w3.org/2000/svg"
   xmlns:sodipodi="http://sodipodi.sourceforge.net/DTD/sodipodi-0.dtd"
   xmlns:inkscape="http://www.inkscape.org/namespaces/inkscape"
   version="1.1"
   id="Layer_1"
   x="0px"
   y="0px"
   width="700"
   height="296"
   viewBox="0 0 700.00001 296"
   enable-background="new 0 0 192.756 192.756"
   xml:space="preserve"
   sodipodi:version="0.32"
   inkscape:version="0.91 r13725"
   sodipodi:docname="Logo Everton FC 1976.svg"
   inkscape:output_extension="org.inkscape.output.svg.inkscape"><metadata
     id="metadata2915"><rdf:RDF><cc:Work
         rdf:about=""><dc:format>image/svg+xml</dc:format><dc:type
           rdf:resource="http://purl.org/dc/dcmitype/StillImage" /><dc:title></dc:title></cc:Work></rdf:RDF></metadata><defs
     id="defs2913" /><sodipodi:namedview
     inkscape:window-height="788"
     inkscape:window-width="1440"
     inkscape:pageshadow="2"
     inkscape:pageopacity="0.0"
     guidetolerance="10.0"
     gridtolerance="10.0"
     objecttolerance="10.0"
     borderopacity="1.0"
     bordercolor="#666666"
     pagecolor="#ffffff"
     id="base"
     showgrid="false"
     inkscape:zoom="0.22150992"
     inkscape:cx="794.50535"
     inkscape:cy="84.00466"
     inkscape:window-x="0"
     inkscape:window-y="1"
     inkscape:current-layer="Layer_1"
     inkscape:window-maximized="1"
     showguides="false" /><g
     id="g4369"
     transform="matrix(0.41454435,0,0,0.41464631,68.656421,-163.6655)"><path
       sodipodi:nodetypes="ccccccccccccc"
       inkscape:connector-curvature="0"
       id="path4341"
       d="m -165.619,1098.6418 0,-694.00001 393.035,0 0,87.31593 -293.802,1.41517 0,212.5809 284.1,0 0,88.821 -284.1,0 0,215.13601 303.503,0 0,88.731 z"
       style="fill:#053a99;fill-opacity:1;stroke:none" /><path
       style="fill:#053a99;fill-opacity:1;stroke:none"
       d="m 384.381,1098.6418 0,-694.00001 369.035,0 0,87.31593 -269.802,1.41517 0,194.5809 270.1,0 0,88.821 -270.1,0 0,321.86701 z"
       id="path4349"
       inkscape:connector-curvature="0"
       sodipodi:nodetypes="ccccccccccc" /><path
       style="fill:#053a99;fill-opacity:1;fill-rule:evenodd;stroke:none;stroke-width:3;stroke-linecap:butt;stroke-linejoin:miter;stroke-miterlimit:4;stroke-dasharray:none;stroke-opacity:1"
       d="m 1132.1659,980.08217 c 89.9514,47.88853 237.1996,55.64463 390.8161,-36.27654 l 0,107.22337 C 1170.633,1217.8666 896.10253,992.29929 898.37965,752.49681 896.10253,512.69434 1166.633,285.12706 1518.982,451.96461 l 0,107.22339 c -153.6165,-91.92116 -296.8647,-82.16505 -386.8161,-34.27654 -67.7909,36.09064 -124.8786,109.48693 -129.9534,227.58535 5.0748,118.09843 62.1625,191.49472 129.9534,227.58536 z"
       id="path4357"
       inkscape:connector-curvature="0"
       sodipodi:nodetypes="scccccscs" /></g></svg>