<?xml version="1.0" encoding="UTF-8" standalone="no"?>
<!-- Generator: Adobe Illustrator 13.0.0, SVG Export Plug-In . SVG Version: 6.00 Build 14948)  -->

<svg
   xmlns:dc="http://purl.org/dc/elements/1.1/"
   xmlns:cc="http://creativecommons.org/ns#"
   xmlns:rdf="http://www.w3.org/1999/02/22-rdf-syntax-ns#"
   xmlns:svg="http://www.w3.org/2000/svg"
   xmlns="http://www.w3.org/2000/svg"
   xmlns:sodipodi="http://sodipodi.sourceforge.net/DTD/sodipodi-0.dtd"
   xmlns:inkscape="http://www.inkscape.org/namespaces/inkscape"
   version="1.1"
   id="Layer_1"
   x="0px"
   y="0px"
   width="700"
   height="700"
   viewBox="0 0 700.00001 700.00001"
   enable-background="new 0 0 192.756 192.756"
   xml:space="preserve"
   sodipodi:version="0.32"
   inkscape:version="0.91 r13725"
   sodipodi:docname="Logo Everton FC 1978.svg"
   inkscape:output_extension="org.inkscape.output.svg.inkscape"><metadata
     id="metadata2915"><rdf:RDF><cc:Work
         rdf:about=""><dc:format>image/svg+xml</dc:format><dc:type
           rdf:resource="http://purl.org/dc/dcmitype/StillImage" /><dc:title></dc:title></cc:Work></rdf:RDF></metadata><defs
     id="defs2913" /><sodipodi:namedview
     inkscape:window-height="788"
     inkscape:window-width="1440"
     inkscape:pageshadow="2"
     inkscape:pageopacity="0.0"
     guidetolerance="10.0"
     gridtolerance="10.0"
     objecttolerance="10.0"
     borderopacity="1.0"
     bordercolor="#666666"
     pagecolor="#ffffff"
     id="base"
     showgrid="false"
     inkscape:zoom="0.7235284"
     inkscape:cx="356.82478"
     inkscape:cy="249.09227"
     inkscape:window-x="0"
     inkscape:window-y="1"
     inkscape:current-layer="Layer_1"
     inkscape:window-maximized="1"
     showguides="false" /><g
     id="g4671"
     transform="matrix(1.003369,0,0,1.003369,-2.4753249,2.8343367)"><g
       transform="translate(680.00513,-4)"
       id="g5969"><circle
         r="348.8248"
         cy="350"
         cx="-328.71332"
         id="circle5967"
         style="opacity:1;fill:#1e3a7b;fill-opacity:1;fill-rule:evenodd;stroke:none;stroke-width:2;stroke-linecap:round;stroke-linejoin:miter;stroke-miterlimit:4;stroke-dasharray:none;stroke-dashoffset:0;stroke-opacity:1" /><circle
         style="opacity:1;fill:#ffffff;fill-opacity:1;fill-rule:evenodd;stroke:none;stroke-width:2;stroke-linecap:round;stroke-linejoin:miter;stroke-miterlimit:4;stroke-dasharray:none;stroke-dashoffset:0;stroke-opacity:1"
         id="path4536"
         cx="-328.71332"
         cy="350"
         r="313.28122" /></g><g
       id="g4530"><g
         id="g4401"><g
           id="g4397"><path
             style="fill:#058b38;fill-opacity:1;fill-rule:evenodd;stroke:none;stroke-width:1.06906772px;stroke-linecap:butt;stroke-linejoin:miter;stroke-opacity:1"
             d="M 242.49927,177.11523 171.64771,242.125 c 44.38354,36.01159 37.34516,51.08834 24.34375,96.17969 -9.71439,33.69135 -26.70972,64.88868 -7.05664,126.38476 7.32454,22.91909 26.95356,42.95201 47.67969,55.47071 25.10115,15.16125 55.68986,20.1693 78.9082,27.50195 14.25078,4.50057 25.16601,14.44247 33.33398,20.2832 8.16797,-5.84073 19.08125,-15.78263 33.33203,-20.2832 23.21834,-7.33265 53.809,-12.3407 78.91016,-27.50195 20.72612,-12.5187 40.35319,-32.55162 47.67773,-55.47071 19.65308,-61.49608 2.65775,-92.69341 -7.05664,-126.38476 -13.00141,-45.09135 -20.03979,-60.1681 24.34375,-96.17969 l -70.85156,-65.00977 c -34.66537,37.42719 -71.46301,43.072 -106.35547,14.60743 -34.89246,28.46457 -71.69205,22.81976 -106.35742,-14.60743 z"
             id="path5725"
             inkscape:connector-curvature="0" /><path
             style="fill:#1e3a7b;fill-opacity:1;fill-rule:evenodd;stroke:none;stroke-width:1px;stroke-linecap:butt;stroke-linejoin:miter;stroke-opacity:1"
             d="m 241.63404,203.25586 -42.10157,38.7168 c 39.96385,35.0056 21.75565,72.97201 12.71485,107.23046 -7.48077,28.34702 -20.91331,49.82972 -7.0625,105.15235 4.19084,16.73898 17.99306,34.51595 37.54687,47.58203 22.56333,15.07708 52.33454,20.04107 75.56641,26.45312 14.25908,3.93554 22.38587,10.59568 30.55859,15.70313 8.17272,-5.10745 16.29756,-11.76759 30.55664,-15.70313 23.23187,-6.41205 53.00503,-11.37604 75.56836,-26.45312 19.55381,-13.06608 33.35408,-30.84305 37.54492,-47.58203 13.85081,-55.32263 0.41827,-76.80533 -7.0625,-105.15235 -9.0408,-34.25845 -27.24705,-72.22486 12.7168,-107.23046 l -42.10351,-38.7168 c -37.64925,32.35832 -77.81192,29.89334 -107.22071,11.84766 -29.40879,18.04568 -69.5734,20.51066 -107.22265,-11.84766 z"
             id="path5723"
             inkscape:connector-curvature="0" /></g><g
           id="g4311"><g
             id="g5909"
             transform="translate(678.69473,-4)"
             style="fill:#058b38;fill-opacity:1"><g
               transform="matrix(0.94390873,0,0,0.96575504,-310.61306,710.84435)"
               id="g5016"
               style="fill:#058b38;fill-opacity:1"><path
                 inkscape:connector-curvature="0"
                 d="m -58.524525,-442.83819 c 0,3.99079 1.333076,5.98618 3.990791,5.98618 7.985801,0 6.977557,-13.30545 6.319456,-18.95837 -0.999807,5.98197 -10.310247,7.98581 -10.310247,12.97219 l 0,0 z"
                 id="path2772"
                 style="clip-rule:evenodd;fill:#058b38;fill-opacity:1;fill-rule:evenodd" /><path
                 inkscape:connector-curvature="0"
                 d="m -119.71525,-478.42205 c 8.97295,0 7.31504,-14.63431 13.96355,-15.62989 -4.9906,0.33326 -18.6251,3.32425 -18.6251,10.97678 0,2.6535 2.33288,4.65311 4.66155,4.65311 l 0,0 z"
                 id="path2774"
                 style="clip-rule:evenodd;fill:#058b38;fill-opacity:1;fill-rule:evenodd" /><path
                 inkscape:connector-curvature="0"
                 d="m -133.34976,-466.1164 c 1.98696,0 4.98638,-2.99521 4.98638,-5.65714 0,-2.66193 -2.99942,-8.98139 0.34171,-12.30564 -2.67037,0.99558 -9.3231,3.99079 -9.3231,13.96355 0,1.99539 1.67057,3.99923 3.99501,3.99923 l 0,0 z"
                 id="path2776"
                 style="clip-rule:evenodd;fill:#058b38;fill-opacity:1;fill-rule:evenodd" /><path
                 inkscape:connector-curvature="0"
                 d="m -122.04392,-466.78716 c 3.65752,0 11.96816,-7.31083 11.30162,-13.29701 -2.32023,5.31964 -15.95473,1.99539 -15.95473,9.64371 0,1.6579 1.66213,3.6533 4.65311,3.6533 l 0,0 z"
                 id="path2778"
                 style="clip-rule:evenodd;fill:#058b38;fill-opacity:1;fill-rule:evenodd" /><path
                 inkscape:connector-curvature="0"
                 d="m -139.99826,-451.81958 c 2.32444,0 3.98235,-2.32867 3.98235,-6.64851 0,-3.32425 -5.97775,-10.31025 -6.63585,-13.6345 -1.67478,3.32003 -5.32809,20.28301 2.6535,20.28301 l 0,0 z"
                 id="path2780"
                 style="clip-rule:evenodd;fill:#058b38;fill-opacity:1;fill-rule:evenodd" /><path
                 inkscape:connector-curvature="0"
                 d="m -134.01629,-457.47672 c 0,0.99981 1.33307,2.99098 3.99501,2.99098 1.99961,0 11.97237,-4.65311 12.95952,-11.97237 -3.64908,4.32828 -16.95453,0.34171 -16.95453,8.98139 l 0,0 z"
                 id="path2782"
                 style="clip-rule:evenodd;fill:#058b38;fill-opacity:1;fill-rule:evenodd" /><path
                 inkscape:connector-curvature="0"
                 d="m -142.98925,-436.85201 c 2.64928,0 3.98236,-1.99539 3.98236,-5.98618 0,-4.98638 -9.31466,-6.986 -10.29759,-12.97219 -0.68342,5.65292 -1.67479,18.95837 6.31523,18.95837 l 0,0 z"
                 id="path2784"
                 style="clip-rule:evenodd;fill:#058b38;fill-opacity:1;fill-rule:evenodd" /><path
                 inkscape:connector-curvature="0"
                 d="m -139.33594,-419.88903 c 2.32866,0 4.65733,-1.32886 4.65733,-4.65733 0,-7.64832 -11.9766,-4.65311 -14.62587,-11.97238 -0.34593,3.98658 2.98676,16.62971 9.96854,16.62971 l 0,0 z"
                 id="path2786"
                 style="clip-rule:evenodd;fill:#058b38;fill-opacity:1;fill-rule:evenodd" /><path
                 inkscape:connector-curvature="0"
                 d="m -123.48246,-453.9331 c 0.26999,-0.0717 0.53154,-0.14343 0.76778,-0.21937 -0.26999,0.0253 -0.52732,0.097 -0.76778,0.21937 l 0,0 z"
                 id="path2788"
                 style="clip-rule:evenodd;fill:#058b38;fill-opacity:1;fill-rule:evenodd" /><path
                 inkscape:connector-curvature="0"
                 d="m -123.48246,-453.9331 c -4.59405,1.21496 -13.18733,2.24007 -13.18733,10.0951 0,2.65771 2.32866,3.65752 4.64889,3.65752 4.67421,0 4.96529,-11.97237 8.53844,-13.75262 l 0,0 z"
                 id="path2790"
                 style="clip-rule:evenodd;fill:#058b38;fill-opacity:1;fill-rule:evenodd" /><path
                 inkscape:connector-curvature="0"
                 d="m -130.35455,-425.87522 c 5.97775,0 3.65752,-12.63891 5.6487,-15.30085 -2.99099,1.9954 -9.97698,4.65733 -9.97698,10.98101 0,1.32464 0.66654,4.31984 4.32828,4.31984 l 0,0 z"
                 id="path2792"
                 style="clip-rule:evenodd;fill:#058b38;fill-opacity:1;fill-rule:evenodd" /><path
                 inkscape:connector-curvature="0"
                 d="m -127.69684,-408.91647 c 0,-8.31907 -15.29241,-4.99481 -17.29202,-10.31446 0.99137,5.31965 7.98158,13.97199 11.6391,13.97199 1.65791,0 5.65292,0.32905 5.65292,-3.65753 l 0,0 z"
                 id="path2794"
                 style="clip-rule:evenodd;fill:#058b38;fill-opacity:1;fill-rule:evenodd" /><path
                 inkscape:connector-curvature="0"
                 d="m -121.70643,-411.5784 c 1.99118,0 3.32003,-2.33288 3.32003,-4.65733 0,-2.65772 -7.64409,-8.31485 -5.32808,-12.96796 -2.64928,3.6533 -7.6441,17.62529 2.00805,17.62529 l 0,0 z"
                 id="path2796"
                 style="clip-rule:evenodd;fill:#058b38;fill-opacity:1;fill-rule:evenodd" /><path
                 inkscape:connector-curvature="0"
                 d="m -116.06617,-403.60104 c -4.64467,0 -9.96432,5.65714 -16.28378,2.66194 3.99079,3.32847 10.97257,6.97755 15.63412,6.97755 2.65771,0 6.31523,-1.6579 6.31523,-5.31964 -0.004,-2.32445 -2.32866,-4.31985 -5.66557,-4.31985 l 0,0 z"
                 id="path2798"
                 style="clip-rule:evenodd;fill:#058b38;fill-opacity:1;fill-rule:evenodd" /><path
                 inkscape:connector-curvature="0"
                 d="m -77.816163,-478.42205 c 2.328665,0 4.665767,-1.99961 4.665767,-4.65733 0,-7.64831 -13.630283,-10.64351 -18.6251,-10.97678 6.644288,0.9998 4.994817,15.63411 13.959333,15.63411 l 0,0 z"
                 id="path2800"
                 style="clip-rule:evenodd;fill:#058b38;fill-opacity:1;fill-rule:evenodd" /><path
                 inkscape:connector-curvature="0"
                 d="m -69.168042,-471.77354 c 0,2.66193 2.990984,5.65714 4.98638,5.65714 2.328665,0 4.003447,-2.00384 4.003447,-3.99501 0,-9.97276 -6.652725,-12.96797 -9.318878,-13.96356 3.320035,3.32004 0.329051,9.6395 0.329051,12.30143 l 0,0 z"
                 id="path2802"
                 style="clip-rule:evenodd;fill:#058b38;fill-opacity:1;fill-rule:evenodd" /><path
                 inkscape:connector-curvature="0"
                 d="m -86.780679,-480.08417 c -0.679194,5.98618 7.648314,13.29701 11.297399,13.29701 2.990985,0 4.661548,-1.9954 4.661548,-3.65752 0,-7.64832 -13.638719,-4.31985 -15.958947,-9.63949 l 0,0 z"
                 id="path2804"
                 style="clip-rule:evenodd;fill:#058b38;fill-opacity:1;fill-rule:evenodd" /><path
                 inkscape:connector-curvature="0"
                 d="m -57.524718,-451.81958 c 7.99002,0 4.32406,-16.96298 2.653496,-20.28723 -0.662319,3.32425 -6.640069,10.31025 -6.640069,13.6345 0.0042,4.31984 1.653689,6.65273 3.986573,6.65273 l 0,0 z"
                 id="path2806"
                 style="clip-rule:evenodd;fill:#058b38;fill-opacity:1;fill-rule:evenodd" /><path
                 inkscape:connector-curvature="0"
                 d="m -63.510905,-457.47672 c 0,-8.63968 -13.301232,-4.65733 -16.962973,-8.97717 1.004025,7.31926 10.976785,11.97237 12.967963,11.97237 2.666152,0 3.99501,-1.99117 3.99501,-2.9952 l 0,0 z"
                 id="path2808"
                 style="clip-rule:evenodd;fill:#058b38;fill-opacity:1;fill-rule:evenodd" /><path
                 inkscape:connector-curvature="0"
                 d="m -62.848586,-424.54636 c 0,3.32847 2.332883,4.65733 4.661548,4.65733 6.977557,0 10.310248,-12.64313 9.97276,-16.62971 -2.661934,7.31927 -14.634308,4.32406 -14.634308,11.97238 l 0,0 z"
                 id="path2810"
                 style="clip-rule:evenodd;fill:#058b38;fill-opacity:1;fill-rule:evenodd" /><path
                 inkscape:connector-curvature="0"
                 d="m -74.057394,-453.9331 c -0.24046,-0.12234 -0.497795,-0.19406 -0.767785,-0.21937 0.24046,0.0759 0.502013,0.14765 0.767785,0.21937 l 0,0 z"
                 id="path2812"
                 style="clip-rule:evenodd;fill:#058b38;fill-opacity:1;fill-rule:evenodd" /><path
                 inkscape:connector-curvature="0"
                 d="m -60.85319,-443.838 c 0,-7.85503 -8.605935,-8.88014 -13.204204,-10.0951 3.577369,1.78025 3.87267,13.75262 8.555311,13.75262 2.324447,0 4.648893,-0.99981 4.648893,-3.65752 l 0,0 z"
                 id="path2814"
                 style="clip-rule:evenodd;fill:#058b38;fill-opacity:1;fill-rule:evenodd" /><path
                 inkscape:connector-curvature="0"
                 d="m -67.176865,-425.87522 c 3.661741,0 4.328279,-2.9952 4.328279,-4.32406 0,-6.31946 -6.977557,-8.98561 -9.981197,-10.98101 2.008051,2.66616 -0.320613,15.30507 5.652918,15.30507 l 0,0 z"
                 id="path2816"
                 style="clip-rule:evenodd;fill:#058b38;fill-opacity:1;fill-rule:evenodd" /><path
                 inkscape:connector-curvature="0"
                 d="m -69.826143,-408.91647 c 0,3.98658 3.986573,3.65753 5.644481,3.65753 3.665959,0 10.639298,-8.65234 11.639105,-13.97199 -1.991177,5.31965 -17.283586,1.99539 -17.283586,10.31446 l 0,0 z"
                 id="path2818"
                 style="clip-rule:evenodd;fill:#058b38;fill-opacity:1;fill-rule:evenodd" /><path
                 inkscape:connector-curvature="0"
                 d="m -75.81233,-411.5784 c 9.639491,0 4.657329,-13.97199 1.995395,-17.62107 2.332884,4.65311 -5.31543,10.31024 -5.31543,12.96796 0,2.32023 1.316202,4.65311 3.320035,4.65311 l 0,0 z"
                 id="path2820"
                 style="clip-rule:evenodd;fill:#058b38;fill-opacity:1;fill-rule:evenodd" /><path
                 inkscape:connector-curvature="0"
                 d="m -81.465248,-403.60104 c -3.324254,0 -5.661356,1.9954 -5.661356,4.32406 0,3.66175 3.670179,5.31965 6.323675,5.31965 4.648893,0 11.634887,-3.6533 15.629897,-6.97755 -6.315238,2.99098 -11.643324,-2.66616 -16.292216,-2.66616 l 0,0 z"
                 id="path2822"
                 style="clip-rule:evenodd;fill:#058b38;fill-opacity:1;fill-rule:evenodd" /><path
                 inkscape:connector-curvature="0"
                 d="m -92.771085,-405.59221 c 0,-0.38811 -0.01265,-0.75935 -0.03797,-1.11793 0.826845,1.20652 2.328665,2.45522 3.691271,2.45522 7.315045,0 8.310634,-11.31005 8.310634,-15.30084 -0.615915,4.32406 -10.985223,4.92731 -12.457513,10.05713 -1.067305,-3.84314 -3.687053,-5.07075 -5.505267,-5.07075 -1.82243,0 -4.43796,1.23183 -5.49683,5.09184 -1.44698,-5.15091 -11.85003,-5.74573 -12.45751,-10.07822 0,3.99079 0.99559,15.30084 8.31063,15.30084 1.37105,0 2.8813,-1.25714 3.70393,-2.4721 -0.0211,0.3628 -0.038,0.74248 -0.038,1.13903 0,2.32444 0.32062,16.29643 -4.32828,17.95856 5.64448,1.32885 6.64429,-2.99521 10.30603,-2.99521 3.657522,0 4.661548,4.32406 10.314466,2.99521 -4.65733,-1.66635 -4.315624,-15.63834 -4.315624,-17.96278 l 0,0 z"
                 id="path2824"
                 style="clip-rule:evenodd;fill:#058b38;fill-opacity:1;fill-rule:evenodd" /></g><g
               id="g5516"
               transform="matrix(0.94390873,0,0,0.96575504,-162.61306,710.84435)"
               style="fill:#058b38;fill-opacity:1"><path
                 style="clip-rule:evenodd;fill:#058b38;fill-opacity:1;fill-rule:evenodd"
                 id="path5518"
                 d="m -58.524525,-442.83819 c 0,3.99079 1.333076,5.98618 3.990791,5.98618 7.985801,0 6.977557,-13.30545 6.319456,-18.95837 -0.999807,5.98197 -10.310247,7.98581 -10.310247,12.97219 l 0,0 z"
                 inkscape:connector-curvature="0" /><path
                 style="clip-rule:evenodd;fill:#058b38;fill-opacity:1;fill-rule:evenodd"
                 id="path5520"
                 d="m -119.71525,-478.42205 c 8.97295,0 7.31504,-14.63431 13.96355,-15.62989 -4.9906,0.33326 -18.6251,3.32425 -18.6251,10.97678 0,2.6535 2.33288,4.65311 4.66155,4.65311 l 0,0 z"
                 inkscape:connector-curvature="0" /><path
                 style="clip-rule:evenodd;fill:#058b38;fill-opacity:1;fill-rule:evenodd"
                 id="path5522"
                 d="m -133.34976,-466.1164 c 1.98696,0 4.98638,-2.99521 4.98638,-5.65714 0,-2.66193 -2.99942,-8.98139 0.34171,-12.30564 -2.67037,0.99558 -9.3231,3.99079 -9.3231,13.96355 0,1.99539 1.67057,3.99923 3.99501,3.99923 l 0,0 z"
                 inkscape:connector-curvature="0" /><path
                 style="clip-rule:evenodd;fill:#058b38;fill-opacity:1;fill-rule:evenodd"
                 id="path5524"
                 d="m -122.04392,-466.78716 c 3.65752,0 11.96816,-7.31083 11.30162,-13.29701 -2.32023,5.31964 -15.95473,1.99539 -15.95473,9.64371 0,1.6579 1.66213,3.6533 4.65311,3.6533 l 0,0 z"
                 inkscape:connector-curvature="0" /><path
                 style="clip-rule:evenodd;fill:#058b38;fill-opacity:1;fill-rule:evenodd"
                 id="path5526"
                 d="m -139.99826,-451.81958 c 2.32444,0 3.98235,-2.32867 3.98235,-6.64851 0,-3.32425 -5.97775,-10.31025 -6.63585,-13.6345 -1.67478,3.32003 -5.32809,20.28301 2.6535,20.28301 l 0,0 z"
                 inkscape:connector-curvature="0" /><path
                 style="clip-rule:evenodd;fill:#058b38;fill-opacity:1;fill-rule:evenodd"
                 id="path5528"
                 d="m -134.01629,-457.47672 c 0,0.99981 1.33307,2.99098 3.99501,2.99098 1.99961,0 11.97237,-4.65311 12.95952,-11.97237 -3.64908,4.32828 -16.95453,0.34171 -16.95453,8.98139 l 0,0 z"
                 inkscape:connector-curvature="0" /><path
                 style="clip-rule:evenodd;fill:#058b38;fill-opacity:1;fill-rule:evenodd"
                 id="path5530"
                 d="m -142.98925,-436.85201 c 2.64928,0 3.98236,-1.99539 3.98236,-5.98618 0,-4.98638 -9.31466,-6.986 -10.29759,-12.97219 -0.68342,5.65292 -1.67479,18.95837 6.31523,18.95837 l 0,0 z"
                 inkscape:connector-curvature="0" /><path
                 style="clip-rule:evenodd;fill:#058b38;fill-opacity:1;fill-rule:evenodd"
                 id="path5532"
                 d="m -139.33594,-419.88903 c 2.32866,0 4.65733,-1.32886 4.65733,-4.65733 0,-7.64832 -11.9766,-4.65311 -14.62587,-11.97238 -0.34593,3.98658 2.98676,16.62971 9.96854,16.62971 l 0,0 z"
                 inkscape:connector-curvature="0" /><path
                 style="clip-rule:evenodd;fill:#058b38;fill-opacity:1;fill-rule:evenodd"
                 id="path5534"
                 d="m -123.48246,-453.9331 c 0.26999,-0.0717 0.53154,-0.14343 0.76778,-0.21937 -0.26999,0.0253 -0.52732,0.097 -0.76778,0.21937 l 0,0 z"
                 inkscape:connector-curvature="0" /><path
                 style="clip-rule:evenodd;fill:#058b38;fill-opacity:1;fill-rule:evenodd"
                 id="path5536"
                 d="m -123.48246,-453.9331 c -4.59405,1.21496 -13.18733,2.24007 -13.18733,10.0951 0,2.65771 2.32866,3.65752 4.64889,3.65752 4.67421,0 4.96529,-11.97237 8.53844,-13.75262 l 0,0 z"
                 inkscape:connector-curvature="0" /><path
                 style="clip-rule:evenodd;fill:#058b38;fill-opacity:1;fill-rule:evenodd"
                 id="path5538"
                 d="m -130.35455,-425.87522 c 5.97775,0 3.65752,-12.63891 5.6487,-15.30085 -2.99099,1.9954 -9.97698,4.65733 -9.97698,10.98101 0,1.32464 0.66654,4.31984 4.32828,4.31984 l 0,0 z"
                 inkscape:connector-curvature="0" /><path
                 style="clip-rule:evenodd;fill:#058b38;fill-opacity:1;fill-rule:evenodd"
                 id="path5540"
                 d="m -127.69684,-408.91647 c 0,-8.31907 -15.29241,-4.99481 -17.29202,-10.31446 0.99137,5.31965 7.98158,13.97199 11.6391,13.97199 1.65791,0 5.65292,0.32905 5.65292,-3.65753 l 0,0 z"
                 inkscape:connector-curvature="0" /><path
                 style="clip-rule:evenodd;fill:#058b38;fill-opacity:1;fill-rule:evenodd"
                 id="path5542"
                 d="m -121.70643,-411.5784 c 1.99118,0 3.32003,-2.33288 3.32003,-4.65733 0,-2.65772 -7.64409,-8.31485 -5.32808,-12.96796 -2.64928,3.6533 -7.6441,17.62529 2.00805,17.62529 l 0,0 z"
                 inkscape:connector-curvature="0" /><path
                 style="clip-rule:evenodd;fill:#058b38;fill-opacity:1;fill-rule:evenodd"
                 id="path5544"
                 d="m -116.06617,-403.60104 c -4.64467,0 -9.96432,5.65714 -16.28378,2.66194 3.99079,3.32847 10.97257,6.97755 15.63412,6.97755 2.65771,0 6.31523,-1.6579 6.31523,-5.31964 -0.004,-2.32445 -2.32866,-4.31985 -5.66557,-4.31985 l 0,0 z"
                 inkscape:connector-curvature="0" /><path
                 style="clip-rule:evenodd;fill:#058b38;fill-opacity:1;fill-rule:evenodd"
                 id="path5546"
                 d="m -77.816163,-478.42205 c 2.328665,0 4.665767,-1.99961 4.665767,-4.65733 0,-7.64831 -13.630283,-10.64351 -18.6251,-10.97678 6.644288,0.9998 4.994817,15.63411 13.959333,15.63411 l 0,0 z"
                 inkscape:connector-curvature="0" /><path
                 style="clip-rule:evenodd;fill:#058b38;fill-opacity:1;fill-rule:evenodd"
                 id="path5548"
                 d="m -69.168042,-471.77354 c 0,2.66193 2.990984,5.65714 4.98638,5.65714 2.328665,0 4.003447,-2.00384 4.003447,-3.99501 0,-9.97276 -6.652725,-12.96797 -9.318878,-13.96356 3.320035,3.32004 0.329051,9.6395 0.329051,12.30143 l 0,0 z"
                 inkscape:connector-curvature="0" /><path
                 style="clip-rule:evenodd;fill:#058b38;fill-opacity:1;fill-rule:evenodd"
                 id="path5550"
                 d="m -86.780679,-480.08417 c -0.679194,5.98618 7.648314,13.29701 11.297399,13.29701 2.990985,0 4.661548,-1.9954 4.661548,-3.65752 0,-7.64832 -13.638719,-4.31985 -15.958947,-9.63949 l 0,0 z"
                 inkscape:connector-curvature="0" /><path
                 style="clip-rule:evenodd;fill:#058b38;fill-opacity:1;fill-rule:evenodd"
                 id="path5552"
                 d="m -57.524718,-451.81958 c 7.99002,0 4.32406,-16.96298 2.653496,-20.28723 -0.662319,3.32425 -6.640069,10.31025 -6.640069,13.6345 0.0042,4.31984 1.653689,6.65273 3.986573,6.65273 l 0,0 z"
                 inkscape:connector-curvature="0" /><path
                 style="clip-rule:evenodd;fill:#058b38;fill-opacity:1;fill-rule:evenodd"
                 id="path5554"
                 d="m -63.510905,-457.47672 c 0,-8.63968 -13.301232,-4.65733 -16.962973,-8.97717 1.004025,7.31926 10.976785,11.97237 12.967963,11.97237 2.666152,0 3.99501,-1.99117 3.99501,-2.9952 l 0,0 z"
                 inkscape:connector-curvature="0" /><path
                 style="clip-rule:evenodd;fill:#058b38;fill-opacity:1;fill-rule:evenodd"
                 id="path5556"
                 d="m -62.848586,-424.54636 c 0,3.32847 2.332883,4.65733 4.661548,4.65733 6.977557,0 10.310248,-12.64313 9.97276,-16.62971 -2.661934,7.31927 -14.634308,4.32406 -14.634308,11.97238 l 0,0 z"
                 inkscape:connector-curvature="0" /><path
                 style="clip-rule:evenodd;fill:#058b38;fill-opacity:1;fill-rule:evenodd"
                 id="path5558"
                 d="m -74.057394,-453.9331 c -0.24046,-0.12234 -0.497795,-0.19406 -0.767785,-0.21937 0.24046,0.0759 0.502013,0.14765 0.767785,0.21937 l 0,0 z"
                 inkscape:connector-curvature="0" /><path
                 style="clip-rule:evenodd;fill:#058b38;fill-opacity:1;fill-rule:evenodd"
                 id="path5560"
                 d="m -60.85319,-443.838 c 0,-7.85503 -8.605935,-8.88014 -13.204204,-10.0951 3.577369,1.78025 3.87267,13.75262 8.555311,13.75262 2.324447,0 4.648893,-0.99981 4.648893,-3.65752 l 0,0 z"
                 inkscape:connector-curvature="0" /><path
                 style="clip-rule:evenodd;fill:#058b38;fill-opacity:1;fill-rule:evenodd"
                 id="path5562"
                 d="m -67.176865,-425.87522 c 3.661741,0 4.328279,-2.9952 4.328279,-4.32406 0,-6.31946 -6.977557,-8.98561 -9.981197,-10.98101 2.008051,2.66616 -0.320613,15.30507 5.652918,15.30507 l 0,0 z"
                 inkscape:connector-curvature="0" /><path
                 style="clip-rule:evenodd;fill:#058b38;fill-opacity:1;fill-rule:evenodd"
                 id="path5564"
                 d="m -69.826143,-408.91647 c 0,3.98658 3.986573,3.65753 5.644481,3.65753 3.665959,0 10.639298,-8.65234 11.639105,-13.97199 -1.991177,5.31965 -17.283586,1.99539 -17.283586,10.31446 l 0,0 z"
                 inkscape:connector-curvature="0" /><path
                 style="clip-rule:evenodd;fill:#058b38;fill-opacity:1;fill-rule:evenodd"
                 id="path5566"
                 d="m -75.81233,-411.5784 c 9.639491,0 4.657329,-13.97199 1.995395,-17.62107 2.332884,4.65311 -5.31543,10.31024 -5.31543,12.96796 0,2.32023 1.316202,4.65311 3.320035,4.65311 l 0,0 z"
                 inkscape:connector-curvature="0" /><path
                 style="clip-rule:evenodd;fill:#058b38;fill-opacity:1;fill-rule:evenodd"
                 id="path5568"
                 d="m -81.465248,-403.60104 c -3.324254,0 -5.661356,1.9954 -5.661356,4.32406 0,3.66175 3.670179,5.31965 6.323675,5.31965 4.648893,0 11.634887,-3.6533 15.629897,-6.97755 -6.315238,2.99098 -11.643324,-2.66616 -16.292216,-2.66616 l 0,0 z"
                 inkscape:connector-curvature="0" /><path
                 style="clip-rule:evenodd;fill:#058b38;fill-opacity:1;fill-rule:evenodd"
                 id="path5570"
                 d="m -92.771085,-405.59221 c 0,-0.38811 -0.01265,-0.75935 -0.03797,-1.11793 0.826845,1.20652 2.328665,2.45522 3.691271,2.45522 7.315045,0 8.310634,-11.31005 8.310634,-15.30084 -0.615915,4.32406 -10.985223,4.92731 -12.457513,10.05713 -1.067305,-3.84314 -3.687053,-5.07075 -5.505267,-5.07075 -1.82243,0 -4.43796,1.23183 -5.49683,5.09184 -1.44698,-5.15091 -11.85003,-5.74573 -12.45751,-10.07822 0,3.99079 0.99559,15.30084 8.31063,15.30084 1.37105,0 2.8813,-1.25714 3.70393,-2.4721 -0.0211,0.3628 -0.038,0.74248 -0.038,1.13903 0,2.32444 0.32062,16.29643 -4.32828,17.95856 5.64448,1.32885 6.64429,-2.99521 10.30603,-2.99521 3.657522,0 4.661548,4.32406 10.314466,2.99521 -4.65733,-1.66635 -4.315624,-15.63834 -4.315624,-17.96278 l 0,0 z"
                 inkscape:connector-curvature="0" /></g></g><g
             id="g4506"
             style="fill:#ffffff;fill-opacity:1"
             transform="matrix(0.15773849,0,0,0.17711236,270.13667,332.40344)"><path
               id="path4288"
               d="m 777.433,700.17268 -4.37532,-1.62588 c -2.40628,-0.89418 -10.5625,-4.4375 -18.125,-7.874 -29.41763,-13.36775 -67.77412,-23.84287 -119.9475,-32.75787 -77.6995,-13.2765 -192.68676,-13.48913 -270.0525,-0.49925 -32.48428,5.45425 -63.82741,12.52962 -86.25,19.47025 l -12.5,3.86924 11.25,2.23138 c 6.1875,1.22738 19.125,3.68712 28.75,5.46638 9.625,1.77912 22,4.08137 27.5,5.116 10.34291,1.94549 44.92679,8.37199 74.375,13.82049 9.28125,1.71713 31.78125,5.94463 50,9.39438 18.21875,3.44962 35.9375,6.77787 39.375,7.396 3.4375,0.61812 19.75,3.70975 36.25,6.87037 16.5,3.1605 34.21875,6.52688 39.375,7.4805 5.15625,0.95375 18.375,3.47963 29.375,5.613 11,2.13338 22.53125,4.33363 25.625,4.88925 14.11213,2.53475 83.708,16.176 112.5,22.05075 17.53125,3.57713 35.68532,7.4309 36.87532,7.5189 z"
               style="fill:#ffffff;fill-opacity:1"
               inkscape:connector-curvature="0" /><path
               id="path4284"
               d="m 777.433,608.26955 c -1.17276,-0.42175 -9.93782,-3.71163 -17.50032,-7.311 -14.945,-7.113 -40.434,-15.88375 -63.125,-21.72113 -16.67875,-4.29075 -54.99087,-12.12675 -65,-13.2945 l -6.48168,-0.802 0,26.2355 c 0,27.79028 -1.74165,34.68825 -7.43539,40.9865 -1.28313,1.41925 -2.33288,2.93163 -2.33288,3.36088 0,0.42912 2.67188,1.14537 5.9375,1.59162 51.911,7.09288 110.83825,22.174 144.0625,36.86963 5.84375,2.58487 11.40515,4.761 11.87527,4.836 z"
               style="fill:#ffffff;fill-opacity:1"
               inkscape:connector-curvature="0" /><path
               id="path4282"
               d="m 237.78284,671.15705 c 29.23488,-12.26762 73.72511,-23.61 124.97099,-31.86013 l 20.32115,-3.27149 -2.8634,-3.12163 c -5.11218,-5.57301 -6.87951,-8.86433 -7.63767,-21.3636 l -0.75798,-46.40421 c -2.30227,-1.86356 -9.17599,0.9584 -18.75825,2.71419 -50.58775,9.26936 -87.70539,19.92487 -116.1203,33.3345 l -17.62938,8.60493 0,61.94819 2.81218,1.1305 c 4.58769,1.84413 8.10616,1.45963 15.66266,-1.71125 z"
               style="fill:#ffffff;fill-opacity:1"
               inkscape:connector-curvature="0" /><path
               id="path4276"
               d="m 453.68268,630.28143 c 29.28405,-1.61163 88.483,-0.87163 113.17075,1.41462 17.83437,1.65163 23.58687,0.75225 30.06737,-4.70075 7.53163,-6.3375 7.38688,-4.69188 7.38688,-83.97125 l 0,-72.46363 -5.3125,-0.77599 c -2.92188,-0.42688 -10.51563,-1.18263 -16.875,-1.67963 l -11.5625,-0.9035 0,34.95838 c 0,32.80274 -0.15963,35.288 -2.58875,40.30587 -2.67388,5.5235 -7.9845,9.66125 -15.17938,11.827 -2.43612,0.73338 -24.28737,1.194 -53.71237,1.1325 -55.24011,-0.115 -58.71049,-0.528 -65.5911,-7.796 -2.13313,-2.25325 -4.50841,-5.32537 -5.27841,-6.82712 -0.93574,-1.82488 -1.39999,-14.42688 -1.39999,-38.00238 l 0,-35.27212 -12.8125,0.813 c -7.04688,0.44725 -14.90418,1.16587 -17.46066,1.59712 l -4.64817,0.78413 -0.0584,71.12912 c -0.0574,69.74463 -0.008,71.249 2.58889,77.28313 4.22067,9.81125 12.25141,14.05912 24.89087,13.16625 4.46875,-0.31575 19.9375,-1.22413 34.375,-2.01875 z"
               style="fill:#ffffff;fill-opacity:1"
               inkscape:connector-curvature="0" /><path
               id="path4274"
               d="m 260.55768,571.65593 c 26.94629,-9.07475 50.12205,-14.49738 105.625,-24.71363 l 5,-0.92025 0.66285,-73.17188 -2.83143,0.62438 c -1.55728,0.34337 -9.45083,1.78963 -17.54121,3.21387 -51.04406,8.98575 -96.98969,22.81063 -124.10226,37.34213 -2.69551,1.44475 -7.19308,3.92645 -8.06263,3.92645 l 0,69.75867 11.56218,-4.97787 c 6.35936,-2.7379 19.71875,-7.72475 29.6875,-11.08187 z"
               style="fill:#ffffff;fill-opacity:1"
               inkscape:connector-curvature="0" /><path
               id="path4272"
               d="m 777.433,518.44155 c -1.81587,-2.67912 -30.80719,-15.40513 -48.75032,-21.50287 -22.98725,-7.81188 -62.08362,-17.1395 -90.38838,-21.565 -4.59887,-0.719 -11.76518,-1.606 -12.9683,-1.97113 l 0,72.91175 9.91918,1.53888 c 49.37039,7.65941 103.481,22.30737 130.9255,34.992 8.792,4.0635 10.54357,6.37525 11.26232,4.55762 z"
               style="fill:#ffffff;fill-opacity:1"
               inkscape:connector-curvature="0" /><path
               id="path4270"
               d="m 550.667,537.731 0,-71.94757 -9.61819,-0.81313 c -12.43075,-1.05075 -72.26277,-1.054 -84.67753,0 l -9.56328,0.8085 0,71.9522 z"
               style="fill:#ffffff;fill-opacity:1"
               inkscape:connector-curvature="0" /><path
               id="path4262"
               d="m 255.31257,207.12793 c 34.21285,-12.00025 84.73257,-23.26638 128.37011,-28.62725 38.0803,-4.678 74.85981,-6.84338 116.22163,-6.84238 22.70312,6.3e-4 47.18462,0.54913 54.40337,1.219 7.21875,0.66988 19.875,1.77975 28.125,2.46638 32.47863,2.70337 47.2085,4.78537 81.25,11.48425 42.52013,8.3675 79.86525,19.29975 103.96438,30.43425 5.232,2.41725 9.713,4.39512 9.95762,4.39512 l -0.17168,-55.625 -12.27457,-28.471 -10.32375,-4.76959 c -26.58187,-12.28083 -77.73637,-25.87006 -123.652,-32.84821 -51.42575,-7.815562 -66.52325,-8.83145 -131.875,-8.873662 -57.88844,-0.03737 -66.66797,0.387012 -106.05296,5.126537 -18.57926,2.2358 -21.82234,1.674313 -24.04146,-4.162425 -1.88333,-4.953537 -0.49133,-8.565487 4.14337,-10.75115 4.38671,-2.068725 42.55275,-6.243425 76.55471,-8.373762 79.16209,-4.959788 176.54034,3.622387 248.77134,21.924775 19.19375,4.86345 42.31475,11.895917 53.6545,16.319517 1.80875,0.70558 2.21663,0.49708 1.64625,-0.84152 L 714.68318,17.870175 C 713.52181,16.8102 686.92768,10.15645 669.44781,6.552475 640.47918,0.57975 622.50243,-1.978875 573.05768,-7.1666875 c -7.21875,-0.7574 -27.1875,-1.653775 -44.375,-1.991925 -17.1875,-0.3381625 -32.74862,-1.1849125 -34.58025,-1.8816875 -4.40741,-1.676612 -6.89999,-7.5561 -4.9851,-11.758825 2.5925,-5.689887 5.4841,-5.98285 43.94035,-4.451675 60.944,2.42655 109.0785,8.413338 157.96488,19.6470375 7.4745,1.717575 13.81762,2.8952125 14.09587,2.616975 0.67713,-0.6770625 -35.67162,-88.1228995 -36.96087,-88.9185875 -0.39875,-0.246037 -6.06863,-1.391125 -12.59988,-2.544637 -52.256,-9.229108 -87.14362,-12.151858 -150.625,-12.618748 -28.1875,-0.20731 -51.95312,-0.41001 -52.8125,-0.45044 -2.84764,-0.13395 -6.5625,-5.01904 -6.5625,-8.62976 0,-2.02901 1.13066,-4.5789 2.6328,-5.9375 2.50889,-2.26918 5.31775,-2.38013 59.68745,-2.35751 45.58188,0.019 61.32788,0.46812 78.30475,2.23371 29.0645,3.02269 49.87238,5.63196 62.16675,7.79561 5.68325,1.00019 10.69538,1.8193 11.138,1.82024 l -35.80475,-87.35096 -8.125,-0.75507 c -4.46875,-0.41528 -12.90625,-1.34016 -18.75,-2.05528 -5.84375,-0.71513 -27.14037,-2.25213 -47.32587,-3.41558 -35.7185,-2.05875 -36.76413,-2.19342 -39.0625,-5.03186 -2.91125,-3.59524 -3.009,-7.409 -0.2895,-11.29165 l 2.07212,-2.95839 25.74038,0.73251 c 23.92412,0.68083 68.37412,3.82013 74.793,5.28228 l 2.80275,0.63841 -77.48038,-189.33379 c 0,-2.07517 9.22175,-25.67682 23.72062,-60.70891 25.76638,-62.25687 27.52938,-67.04237 27.52938,-74.72456 0,-4.10858 -0.893,-9.6482 -1.98463,-12.31029 -2.67112,-6.51456 -11.01024,-14.96572 -18.64037,-18.89056 -8.4245,-4.3335 -21.99588,-5.32284 -30.17388,-2.19965 -10.88837,4.15835 -13.56212,8.36106 -27.32612,42.95295 -6.875,17.27836 -12.839,31.41675 -13.25338,31.41865 -0.41425,0.002 -6.32052,-13.91841 -13.12495,-30.93404 -13.62591,-34.07394 -17.09898,-39.58076 -27.4581,-43.53695 -7.58771,-2.89776 -21.46403,-1.93571 -29.91357,2.07393 -13.46198,6.38825 -21.22665,17.85427 -21.09479,31.15052 0.0851,8.58924 -1.43076,4.50162 31.05976,83.75 3.24143,7.90625 9.49015,23.20993 13.88605,34.00816 l 7.99255,19.63318 -239.96825,575.77566 0,54.14225 10.31218,-4.472 c 5.67185,-2.45967 17.23345,-6.89963 25.69239,-9.86663 z"
               style="fill:#ffffff;fill-opacity:1"
               inkscape:connector-curvature="0" /><path
               id="path4504"
               d="m 140.12695,677.97266 c -9.5154,-0.0718 -15.29969,3.58877 -17.00586,11.32617 l 1.45703,36.38672 109.97657,20.81054 0,-51.18554 -90.12305,-17.07813 c -1.51061,-0.16153 -2.94534,-0.2495 -4.30469,-0.25976 z"
               style="opacity:1;fill:#ffffff;fill-opacity:1;fill-rule:evenodd;stroke:none;stroke-width:2;stroke-linecap:round;stroke-linejoin:miter;stroke-miterlimit:4;stroke-dasharray:none;stroke-dashoffset:0;stroke-opacity:1"
               inkscape:connector-curvature="0" /><path
               id="path4502"
               d="m 257.0332,699.57031 0,51.17969 147.52149,27.91602 0,-51.14258 -147.52149,-27.95313 z"
               style="opacity:1;fill:#ffffff;fill-opacity:1;fill-rule:evenodd;stroke:none;stroke-width:2;stroke-linecap:round;stroke-linejoin:miter;stroke-miterlimit:4;stroke-dasharray:none;stroke-dashoffset:0;stroke-opacity:1"
               inkscape:connector-curvature="0" /><path
               id="path4500"
               d="m 427.0332,731.7832 0,51.13477 153.52149,29.05078 0,-51.09375 -153.52149,-29.0918 z"
               style="opacity:1;fill:#ffffff;fill-opacity:1;fill-rule:evenodd;stroke:none;stroke-width:2;stroke-linecap:round;stroke-linejoin:miter;stroke-miterlimit:4;stroke-dasharray:none;stroke-dashoffset:0;stroke-opacity:1"
               inkscape:connector-curvature="0" /><path
               id="path4498"
               d="m 125.27539,743.11523 2.69141,67.21289 106.58789,20.16797 0,-66.70312 -109.2793,-20.67774 z"
               style="opacity:1;fill:#ffffff;fill-opacity:1;fill-rule:evenodd;stroke:none;stroke-width:2;stroke-linecap:round;stroke-linejoin:miter;stroke-miterlimit:4;stroke-dasharray:none;stroke-dashoffset:0;stroke-opacity:1"
               inkscape:connector-curvature="0" /><path
               id="path4496"
               d="m 603.0332,765.13477 0,51.08789 149.52149,28.29296 0,-51.04882 -149.52149,-28.33203 z"
               style="opacity:1;fill:#ffffff;fill-opacity:1;fill-rule:evenodd;stroke:none;stroke-width:2;stroke-linecap:round;stroke-linejoin:miter;stroke-miterlimit:4;stroke-dasharray:none;stroke-dashoffset:0;stroke-opacity:1"
               inkscape:connector-curvature="0" /><path
               id="path4494"
               d="m 257.0332,768.04688 0,66.70312 147.52149,27.91602 0,-66.70313 -147.52149,-27.91601 z"
               style="opacity:1;fill:#ffffff;fill-opacity:1;fill-rule:evenodd;stroke:none;stroke-width:2;stroke-linecap:round;stroke-linejoin:miter;stroke-miterlimit:4;stroke-dasharray:none;stroke-dashoffset:0;stroke-opacity:1"
               inkscape:connector-curvature="0" /><path
               id="path4492"
               d="m 775.0332,797.72656 0,51.04297 108.49805,20.5293 -0.80273,-10.50195 c -2.31643,-23.13739 -7.19023,-41.61623 -71.56836,-54.22461 l -36.12696,-6.84571 z"
               style="opacity:1;fill:#ffffff;fill-opacity:1;fill-rule:evenodd;stroke:none;stroke-width:2;stroke-linecap:round;stroke-linejoin:miter;stroke-miterlimit:4;stroke-dasharray:none;stroke-dashoffset:0;stroke-opacity:1"
               inkscape:connector-curvature="0" /><path
               id="path4490"
               d="m 427.0332,800.21484 0,66.70313 153.52149,29.05078 0,-66.70313 -153.52149,-29.05078 z"
               style="opacity:1;fill:#ffffff;fill-opacity:1;fill-rule:evenodd;stroke:none;stroke-width:2;stroke-linecap:round;stroke-linejoin:miter;stroke-miterlimit:4;stroke-dasharray:none;stroke-dashoffset:0;stroke-opacity:1"
               inkscape:connector-curvature="0" /><path
               id="path4488"
               d="m 128.66406,827.75586 0.75196,18.7832 c 2.66405,20.476 11.11613,44.74477 36.43945,48.33203 l 68.69922,12.49219 0,-59.57031 -105.89063,-20.03711 z"
               style="opacity:1;fill:#ffffff;fill-opacity:1;fill-rule:evenodd;stroke:none;stroke-width:2;stroke-linecap:round;stroke-linejoin:miter;stroke-miterlimit:4;stroke-dasharray:none;stroke-dashoffset:0;stroke-opacity:1"
               inkscape:connector-curvature="0" /><path
               id="path4486"
               d="m 603.0332,833.51953 0,66.70313 149.52149,28.29296 0,-66.70312 -149.52149,-28.29297 z"
               style="opacity:1;fill:#ffffff;fill-opacity:1;fill-rule:evenodd;stroke:none;stroke-width:2;stroke-linecap:round;stroke-linejoin:miter;stroke-miterlimit:4;stroke-dasharray:none;stroke-dashoffset:0;stroke-opacity:1"
               inkscape:connector-curvature="0" /><path
               id="path4484"
               d="m 257.0332,852.04688 0,59.40234 147.52149,26.82422 0,-58.31055 -147.52149,-27.91601 z"
               style="opacity:1;fill:#ffffff;fill-opacity:1;fill-rule:evenodd;stroke:none;stroke-width:2;stroke-linecap:round;stroke-linejoin:miter;stroke-miterlimit:4;stroke-dasharray:none;stroke-dashoffset:0;stroke-opacity:1"
               inkscape:connector-curvature="0" /><path
               id="path4482"
               d="m 775.0332,866.06641 0,66.70312 115.00586,21.76172 -5.16797,-67.68164 -109.83789,-20.7832 z"
               style="opacity:1;fill:#ffffff;fill-opacity:1;fill-rule:evenodd;stroke:none;stroke-width:2;stroke-linecap:round;stroke-linejoin:miter;stroke-miterlimit:4;stroke-dasharray:none;stroke-dashoffset:0;stroke-opacity:1"
               inkscape:connector-curvature="0" /><path
               id="path4480"
               d="m 427.0332,884.21484 0,58.14649 153.52149,27.91406 0,-57.00977 -153.52149,-29.05078 z"
               style="opacity:1;fill:#ffffff;fill-opacity:1;fill-rule:evenodd;stroke:none;stroke-width:2;stroke-linecap:round;stroke-linejoin:miter;stroke-miterlimit:4;stroke-dasharray:none;stroke-dashoffset:0;stroke-opacity:1"
               inkscape:connector-curvature="0" /><path
               id="path4478"
               d="m 603.0332,917.51953 0,56.84375 149.52149,27.18752 0,-55.7383 -149.52149,-28.29297 z"
               style="opacity:1;fill:#ffffff;fill-opacity:1;fill-rule:evenodd;stroke:none;stroke-width:2;stroke-linecap:round;stroke-linejoin:miter;stroke-miterlimit:4;stroke-dasharray:none;stroke-dashoffset:0;stroke-opacity:1"
               inkscape:connector-curvature="0" /><path
               id="path4434"
               d="m 775.0332,950.06641 0,55.57229 120.58399,21.9258 -4.23633,-55.48247 -116.34766,-22.01562 z"
               style="opacity:1;fill:#ffffff;fill-opacity:1;fill-rule:evenodd;stroke:none;stroke-width:2;stroke-linecap:round;stroke-linejoin:miter;stroke-miterlimit:4;stroke-dasharray:none;stroke-dashoffset:0;stroke-opacity:1"
               inkscape:connector-curvature="0" /><path
               id="path4448"
               d="m 777.433,312.9073 -5e-5,-70.89787 C 593.36353,163.46735 365.75181,177.18624 219.308,243.158 l 0,69.74955 c 180.41612,-75.17899 409.55422,-59.17864 558.125,-2.5e-4 z"
               style="fill:#ffffff;fill-opacity:1"
               inkscape:connector-curvature="0" /><path
               id="path4450"
               d="m 777.433,405.54917 -5e-5,-70.89787 C 593.36353,256.10922 365.75181,269.82811 219.308,335.79987 l 0,69.74955 c 180.41612,-75.17899 409.55422,-59.17864 558.125,-2.5e-4 z"
               style="fill:#ffffff;fill-opacity:1"
               inkscape:connector-curvature="0" /><path
               id="path4452"
               d="m 777.433,496.66058 -5e-5,-70.89787 C 593.36353,347.22063 365.75181,360.93952 219.308,426.91128 l 0,69.74955 c 180.41612,-75.17899 409.55422,-59.17864 558.125,-2.5e-4 z"
               style="fill:#ffffff;fill-opacity:1"
               inkscape:connector-curvature="0" /></g></g></g><g
         id="g4491"><g
           transform="translate(680.00513,-4)"
           id="g5973"><path
             inkscape:connector-curvature="0"
             style="fill:#1e3a7b;fill-opacity:1;fill-rule:evenodd;stroke:none;stroke-width:0.5;stroke-linecap:butt;stroke-linejoin:miter;stroke-miterlimit:4;stroke-dasharray:none;stroke-opacity:1"
             d="m -541.88867,463.12891 c -5.12793,-0.14953 -9.21011,1.88424 -10.85352,7.53125 -5.28327,13.98093 -11.61899,25.3308 -18.49414,35.33203 -3.53355,4.10407 -4.38268,7.59511 -0.19922,12.22265 3.23307,3.41162 5.08855,5.80746 6.46289,7.22461 2.25134,2.32145 5.62049,2.97222 8.77149,0.0391 1.3827,-2.37371 2.39677,-4.47306 3.39062,-5.06836 3.37492,-2.02153 13.43806,9.19852 11.19336,11.18164 l -6.3457,8.88476 c 13.902,19.98359 28.57689,34.38354 43.13867,46.22461 25.07294,20.38832 45.63744,35.67354 75.4082,47.06836 11.14196,4.2646 22.5157,7.98457 38.01368,11.22266 l 6.76953,-33.85157 c 1.40029,5.49076 6.81837,5.54158 12.80078,6.8711 11.64879,2.58882 28.3504,3.99514 40.68359,4.55469 12.33319,-0.55955 29.03285,-1.96587 40.68164,-4.55469 5.98241,-1.32952 11.40049,-1.38034 12.80078,-6.8711 l 6.77149,33.85157 c 15.49798,-3.23809 26.87171,-6.95806 38.01367,-11.22266 29.77076,-11.39482 50.33331,-26.68004 75.40625,-47.06836 14.56178,-11.84107 29.23863,-26.24102 43.14063,-46.22461 l -6.34766,-8.88476 c -2.2447,-1.98312 7.81844,-13.20317 11.19336,-11.18164 0.99385,0.5953 2.00988,2.69465 3.39258,5.06836 3.151,2.93315 6.518188,2.28238 8.769528,-0.0391 1.37434,-1.41715 3.231774,-3.81299 6.464844,-7.22461 4.18346,-4.62754 3.332378,-8.11858 -0.201172,-12.22265 -6.87515,-10.00123 -13.21087,-21.3511 -18.49414,-35.33203 -4.78081,-16.42764 -30.19409,-2.26378 -41.97852,7.20898 -6.57097,5.28199 -14.85327,17.46037 -16.32617,26.21875 l 8.03906,8.00195 c -18.67241,21.04876 -33.9099,35.11273 -47.20312,45.08594 -24.84301,18.63843 -42.1442,25.23701 -63.86914,31.96289 1.01958,-3.52615 2.01292,-7.05393 -2.75195,-10.58008 5.69604,-4.55046 3.71276,-8.73582 0.92187,-11.0039 -2.43489,-1.97877 -6.6796,-3.21285 -12.34375,-2.84571 -9.82651,0.63695 -24.11455,4.69747 -46.08008,5.17579 -21.96553,-0.47832 -36.25357,-4.53884 -46.08008,-5.17579 -5.66415,-0.36714 -9.90886,0.86694 -12.34375,2.84571 -2.79089,2.26808 -4.77611,6.45344 0.91993,11.0039 -4.76487,3.52615 -3.76958,7.05393 -2.75,10.58008 -21.72494,-6.72588 -39.02809,-13.32446 -63.8711,-31.96289 -13.29322,-9.97321 -28.53071,-24.03718 -47.20312,-45.08594 l 8.03906,-8.00195 c -1.4729,-8.75838 -9.75325,-20.93676 -16.32422,-26.21875 -7.73353,-6.2165 -21.33726,-14.45478 -31.12695,-14.74023 z"
             id="path5749" /><g
             id="g5898"
             style="fill:none;stroke:#ffffff;stroke-width:1.5;stroke-miterlimit:4;stroke-dasharray:none"><path
               style="fill:none;fill-rule:evenodd;stroke:#ffffff;stroke-width:1.5;stroke-linecap:butt;stroke-linejoin:miter;stroke-miterlimit:4;stroke-dasharray:none;stroke-opacity:1"
               d="m -384.9256,594.68029 -9.42492,46.07737 c -50.49083,-12.57926 -68.48166,-26.84943 -97.24847,-47.4675 -19.34518,-13.8653 -48.94819,-44.94084 -51.68019,-52.76575 l 27.67634,-37.99888 c 17.26084,20.30171 36.29436,41.58595 57.16597,56.73544 22.36617,16.2343 40.07289,27.25004 73.51127,35.41932 z"
               id="path5751"
               inkscape:connector-curvature="0"
               sodipodi:nodetypes="ccsccsc" /><path
               style="fill:none;fill-rule:evenodd;stroke:#ffffff;stroke-width:1.5;stroke-linecap:butt;stroke-linejoin:miter;stroke-miterlimit:4;stroke-dasharray:none;stroke-opacity:1"
               d="m -505.89035,506.30867 c -1.69808,-1.83831 -3.47066,-4.01653 -5.14963,-5.87756 -1.5389,-2.2667 0.41744,-3.69192 3.14164,-1.94482 3.34086,2.37539 5.44076,3.59044 9.35012,3.59044 -0.39725,3.53342 -4.76368,6.89692 -7.34213,4.23194 z"
               id="path5753"
               inkscape:connector-curvature="0"
               sodipodi:nodetypes="ccccc" /><path
               style="fill:none;fill-rule:evenodd;stroke:#ffffff;stroke-width:1.5;stroke-linecap:butt;stroke-linejoin:miter;stroke-miterlimit:4;stroke-dasharray:none;stroke-opacity:1"
               d="m -558.7537,522.70519 c 7.70584,-11.57699 14.56442,-23.53054 23.90729,-34.37996 2.08854,-2.23503 1.5407,-4.18965 -1.35704,-5.02852 -1.42141,-0.46414 -6.34638,-6.71391 -9.93077,-12.77853 -1.39968,-2.50294 -1.76095,-2.34849 -2.37516,-0.55197 -2.7158,9.00012 -6.19767,16.20354 -10.59261,23.56619 -3.47582,5.82288 -7.03135,11.17852 -10.75908,16.05551 -2.59134,2.70972 0.94159,6.16647 2.72662,8.33219 1.94631,2.36139 6.12699,9.16197 8.38075,4.78509 z"
               id="path5755"
               inkscape:connector-curvature="0"
               sodipodi:nodetypes="cccccscsc" /><path
               style="fill:none;fill-rule:evenodd;stroke:#ffffff;stroke-width:1.5;stroke-linecap:butt;stroke-linejoin:miter;stroke-miterlimit:4;stroke-dasharray:none;stroke-opacity:1"
               d="m -385.8225,582.55276 c -2.65822,-1.68343 -2.44066,0.28602 -2.6975,1.66611 -0.53131,3.46565 0.85428,3.39663 2.14213,3.51733 l 4.0727,0.13224 c 1.10896,0.008 1.85051,-1.89472 0.15868,-3.33222 -1.15448,-0.84993 -2.17739,-1.27118 -3.67601,-1.98346 z"
               id="path5757"
               inkscape:connector-curvature="0"
               sodipodi:nodetypes="cccccc" /><path
               inkscape:connector-curvature="0"
               id="path5759"
               d="m -379.32227,568.125 c -1.3257,0.0187 -2.38119,0.14704 -3.12304,0.24023 -4.14291,0.52043 -6.12358,1.73825 -6.42578,3.44532 -0.43929,2.48147 3.77679,3.89249 7.95898,6.38281 3.87645,2.30827 8.77137,7.10222 7.81055,9.99219 -0.98895,4.08341 -2.28936,5.89879 -3.82032,8.24609 -1.913,2.93307 -2.12222,7.27045 -2.78515,10.44727 -0.71826,3.44197 -2.03848,5.95874 4.71094,6.33007 15.36117,3.38098 35.25411,4.88691 43.84765,4.8086 8.59354,0.0783 28.48454,-1.42762 43.84571,-4.8086 6.74942,-0.37133 5.42919,-2.8881 4.71093,-6.33007 -0.66293,-3.17682 -0.87214,-7.5142 -2.78515,-10.44727 -1.53096,-2.3473 -2.82941,-4.16268 -3.81836,-8.24609 -0.96082,-2.88997 3.93409,-7.68392 7.81054,-9.99219 4.18219,-2.49032 8.39633,-3.90134 7.95704,-6.38281 -0.3022,-1.70707 -2.28092,-2.92489 -6.42383,-3.44532 -1.4837,-0.18638 -4.22147,-0.50803 -7.86719,0.16993 -15.52897,2.53485 -27.58829,4.55804 -43.42969,4.73437 -15.8414,-0.17633 -27.90072,-2.19952 -43.42968,-4.73437 -1.82286,-0.33898 -3.41844,-0.42883 -4.74415,-0.41016 z"
               style="fill:none;fill-rule:evenodd;stroke:#ffffff;stroke-width:1.5;stroke-linecap:butt;stroke-linejoin:miter;stroke-miterlimit:4;stroke-dasharray:none;stroke-opacity:1" /><path
               sodipodi:nodetypes="ccsccsc"
               inkscape:connector-curvature="0"
               id="path5868"
               d="m -277.3724,594.68029 9.42492,46.07737 c 50.49083,-12.57926 68.48166,-26.84943 97.24847,-47.4675 19.34518,-13.8653 48.94819,-44.94084 51.68019,-52.76575 l -27.67634,-37.99888 c -17.26084,20.30171 -36.29436,41.58595 -57.16597,56.73544 -22.36617,16.2343 -40.07289,27.25004 -73.51127,35.41932 z"
               style="fill:none;fill-rule:evenodd;stroke:#ffffff;stroke-width:1.5;stroke-linecap:butt;stroke-linejoin:miter;stroke-miterlimit:4;stroke-dasharray:none;stroke-opacity:1" /><path
               sodipodi:nodetypes="ccccc"
               inkscape:connector-curvature="0"
               id="path5870"
               d="m -156.40765,506.30867 c 1.69808,-1.83831 3.47066,-4.01653 5.14963,-5.87756 1.5389,-2.2667 -0.41744,-3.69192 -3.14164,-1.94482 -3.34086,2.37539 -5.44076,3.59044 -9.35012,3.59044 0.39725,3.53342 4.76368,6.89692 7.34213,4.23194 z"
               style="fill:none;fill-rule:evenodd;stroke:#ffffff;stroke-width:1.5;stroke-linecap:butt;stroke-linejoin:miter;stroke-miterlimit:4;stroke-dasharray:none;stroke-opacity:1" /><path
               sodipodi:nodetypes="cccccscsc"
               inkscape:connector-curvature="0"
               id="path5872"
               d="m -103.5443,522.70519 c -7.70584,-11.57699 -14.56442,-23.53054 -23.90729,-34.37996 -2.08854,-2.23503 -1.5407,-4.18965 1.35704,-5.02852 1.42141,-0.46414 6.34638,-6.71391 9.93077,-12.77853 1.39968,-2.50294 1.76095,-2.34849 2.37516,-0.55197 2.7158,9.00012 6.19767,16.20354 10.59261,23.56619 3.47582,5.82288 7.03135,11.17852 10.75908,16.05551 2.59134,2.70972 -0.94159,6.16647 -2.72662,8.33219 -1.94631,2.36139 -6.12699,9.16197 -8.38075,4.78509 z"
               style="fill:none;fill-rule:evenodd;stroke:#ffffff;stroke-width:1.5;stroke-linecap:butt;stroke-linejoin:miter;stroke-miterlimit:4;stroke-dasharray:none;stroke-opacity:1" /><path
               sodipodi:nodetypes="cccccc"
               inkscape:connector-curvature="0"
               id="path5874"
               d="m -276.4755,582.55276 c 2.65822,-1.68343 2.44066,0.28602 2.6975,1.66611 0.53131,3.46565 -0.85428,3.39663 -2.14213,3.51733 l -4.0727,0.13224 c -1.10896,0.008 -1.85051,-1.89472 -0.15868,-3.33222 1.15448,-0.84993 2.17739,-1.27118 3.67601,-1.98346 z"
               style="fill:none;fill-rule:evenodd;stroke:#ffffff;stroke-width:1.5;stroke-linecap:butt;stroke-linejoin:miter;stroke-miterlimit:4;stroke-dasharray:none;stroke-opacity:1" /></g></g><g
           id="g7014"><g
             id="g6988"><polygon
               transform="matrix(2.484654,0.49348815,-0.49348815,2.484654,120.19733,226.83799)"
               style="clip-rule:evenodd;fill:#ffffff;fill-rule:evenodd"
               id="polygon2732"
               points="37.113,119.182 36.161,118.547 40.93,111.375 42.005,112.092 40.626,118.375 40.639,118.387 43.96,113.391 43.96,113.391 44.916,114.025 40.145,121.197 39.123,120.52 40.528,114.076 40.515,114.068 " /><polygon
               transform="matrix(2.4846662,0.49342662,-0.49342662,2.4846662,119.3434,226.41592)"
               style="clip-rule:evenodd;fill:#ffffff;fill-rule:evenodd"
               id="polygon2734"
               points="46.793,115.158 47.846,115.789 43.426,123.182 43.426,123.182 42.374,122.555 " /><polygon
               transform="matrix(2.4846662,0.49342662,-0.49342662,2.4846662,118.07399,225.99278)"
               style="clip-rule:evenodd;fill:#ffffff;fill-rule:evenodd"
               id="polygon2736"
               points="47.552,123.736 50.121,125.125 49.38,126.496 45.733,124.523 49.83,116.945 50.907,117.531 47.552,123.736 " /><path
               inkscape:connector-curvature="0"
               style="clip-rule:evenodd;fill:#ffffff;fill-rule:evenodd"
               id="path2738"
               d="m 203.57027,576.0019 c -0.74442,0.9431 -1.88543,2.99316 0.21228,4.70982 1.14612,0.92783 2.73238,1.56223 4.1899,-0.22246 1.07106,-1.31848 0.49579,-2.37936 -0.37855,-3.79527 l -0.88513,-1.4242 c -1.34096,-2.1545 -2.63407,-4.22719 0.38957,-7.93928 1.53223,-1.88181 4.92803,-4.63241 8.65927,-1.59286 3.52203,2.87804 1.71003,7.03469 0.0392,9.11906 l -2.31283,-1.88512 c 0.55245,-0.8029 1.81778,-2.7443 -0.28235,-4.46164 -0.91358,-0.74658 -2.40114,-1.13507 -3.65251,0.38471 -1.07487,1.32265 -0.56578,2.19933 -0.22062,2.7539 l 1.97659,3.30859 c 1.11006,1.83712 1.78586,3.9562 -0.6847,6.98381 -4.13798,5.08141 -8.02878,2.65355 -9.03637,1.83052 -4.19676,-3.42845 -2.02422,-7.5595 -0.32353,-9.65644 l 2.30972,1.88685 0,0 z" /><path
               inkscape:connector-curvature="0"
               style="clip-rule:evenodd;fill:#ffffff;fill-rule:evenodd"
               id="path2740"
               d="m 226.28787,580.27282 0.0281,0.0228 -3.28242,8.1761 -3.13997,-2.11959 6.39423,-6.07924 0,0 0,0 z m -9.18269,8.73807 4.54643,3.05743 -1.72149,4.25166 2.79878,1.87995 7.82824,-20.96941 -2.96722,-2.00835 -16.55843,15.10219 2.70934,1.83137 3.36435,-3.14484 0,0 z" /><polygon
               transform="matrix(2.4615932,0.57653473,-0.57653473,2.4615932,138.00402,231.17755)"
               style="clip-rule:evenodd;fill:#ffffff;fill-rule:evenodd"
               id="polygon2742"
               points="69.872,134.713 68.694,134.361 70.717,127.568 69.017,127.061 69.451,125.602 74.03,126.963 73.593,128.424 71.893,127.918 69.872,134.713 " /><polygon
               transform="matrix(2.4643627,0.56457937,-0.56457937,2.4643627,135.4386,232.3963)"
               style="clip-rule:evenodd;fill:#ffffff;fill-rule:evenodd"
               id="polygon2744"
               points="74.838,136.027 73.645,135.736 75.695,127.369 76.888,127.662 74.838,136.027 " /><path
               inkscape:connector-curvature="0"
               style="clip-rule:evenodd;fill:#ffffff;fill-rule:evenodd"
               id="path2746"
               d="m 253.51723,606.88971 c -0.42746,1.1461 -0.89275,3.43294 1.63317,4.42523 1.36375,0.54113 3.07201,0.66677 3.92026,-1.48256 0.62358,-1.57965 -0.24483,-2.40966 -1.51058,-3.49062 l -1.28278,-1.09966 c -1.927,-1.63458 -3.79465,-3.2295 -2.03598,-7.67843 0.89195,-2.25681 3.28668,-5.9124 7.77285,-4.1466 4.22853,1.67281 3.76399,6.17855 2.80165,8.669 l -2.77268,-1.08834 c 0.28201,-0.93709 0.89852,-3.16672 -1.62443,-4.16101 -1.0956,-0.43586 -2.63699,-0.35715 -3.35662,1.46927 -0.627,1.58415 0.1237,2.27583 0.62465,2.69844 l 2.88135,2.54023 c 1.62367,1.41703 2.90567,3.23467 1.47174,6.87308 -2.40797,6.09574 -6.85003,4.96126 -8.0635,4.4823 -5.03692,-1.98172 -4.21871,-6.58718 -3.22928,-9.09819 l 2.77018,1.08786 0,0 z" /><polygon
               transform="matrix(2.6961486,-0.41581287,0.45645119,2.4561077,66.791609,328.48329)"
               style="clip-rule:evenodd;fill:#ffffff;fill-rule:evenodd"
               id="polygon2748"
               points="110.029,128.68 111.166,128.527 112.337,137.061 111.121,137.227 107.912,131.469 107.896,131.471 108.732,137.555 107.598,137.709 106.425,129.18 107.704,128.998 110.833,134.625 110.848,134.623 110.029,128.68 " /><polygon
               transform="matrix(2.520966,-0.42679322,0.42679322,2.520966,90.747616,320.73318)"
               style="clip-rule:evenodd;fill:#ffffff;fill-rule:evenodd"
               id="polygon2750"
               points="114.874,136.572 113.669,136.801 112.08,128.334 113.286,128.107 114.874,136.572 " /><path
               inkscape:connector-curvature="0"
               style="clip-rule:evenodd;fill:#ffffff;fill-rule:evenodd"
               id="path2752"
               d="m 441.91647,607.18516 c 0.50589,1.08114 1.8042,2.98166 4.30752,1.8708 1.36069,-0.60478 2.65838,-1.74044 1.74371,-3.81272 -0.67788,-1.52724 -1.89649,-1.48096 -3.55602,-1.32019 l -1.69595,0.1603 c -2.54089,0.24999 -4.99438,0.49554 -6.90848,-3.81515 -0.96572,-2.18158 -1.85032,-6.39481 2.60188,-8.37062 4.20656,-1.87174 7.06935,1.55203 8.15382,3.94386 l -2.74927,1.22766 c -0.462,-0.84101 -1.61227,-2.81119 -4.1156,-1.70032 -1.08928,0.48552 -2.13537,1.63524 -1.35051,3.40804 0.67623,1.53266 1.70177,1.46588 2.36002,1.4052 l 3.86381,-0.32185 c 2.16358,-0.17086 4.36963,0.14753 5.93077,3.67451 2.60841,5.88549 -1.36463,8.26991 -2.56924,8.80594 -5.00414,2.22125 -7.69139,-1.50608 -8.77002,-3.93713 l 2.75353,-1.21839 0,0 z" /><polygon
               transform="matrix(2.520966,-0.42679322,0.42679322,2.520966,92.01703,320.09847)"
               style="clip-rule:evenodd;fill:#ffffff;fill-rule:evenodd"
               id="polygon2754"
               points="122.882,134.633 121.703,134.971 119.355,126.68 120.537,126.344 122.882,134.633 " /><path
               inkscape:connector-curvature="0"
               style="clip-rule:evenodd;fill:#ffffff;fill-rule:evenodd"
               id="path2756"
               d="m 465.84403,591.64435 c -3.22815,-5.07226 -1.84117,-7.70669 -0.27766,-8.68454 1.55233,-0.99324 4.55245,-1.10425 7.7819,3.95991 3.22639,5.07792 1.83851,7.70738 0.27773,8.70012 -1.55241,0.97761 -4.55337,1.09928 -7.78197,-3.97549 l 0,0 0,0 z m -2.88083,1.821 c 5.41528,8.50817 10.87933,6.50965 12.71163,5.35249 1.8225,-1.1495 5.97046,-5.20599 0.56318,-13.71617 -5.41348,-8.49824 -10.88377,-6.50335 -12.71162,-5.3525 -1.83584,1.15289 -5.98023,5.21366 -0.56319,13.71618 l 0,0 z" /><path
               inkscape:connector-curvature="0"
               style="clip-rule:evenodd;fill:#ffffff;fill-rule:evenodd"
               id="path2758"
               d="m 480.37618,582.20066 -3.82485,-5.21785 2.34839,-1.70502 c 1.82944,-1.33473 3.11985,-1.17547 4.38607,0.55808 0.58158,0.79302 2.03358,2.77056 -0.17539,4.37488 l -2.7343,1.98995 0,0 0,0 z m 2.24376,3.0755 3.3855,-2.46971 c 3.79989,-2.75978 1.54012,-7.33077 0.36181,-8.9369 -2.55461,-3.49626 -5.82246,-4.49477 -8.56042,-2.50928 l -6.45603,4.70647 13.00994,17.76793 2.95231,-2.15009 -4.6931,-6.40846 0,0 z" /><polygon
               transform="matrix(2.7397804,-0.59687187,0.31824232,2.6054484,77.65629,331.10801)"
               style="clip-rule:evenodd;fill:#ffffff;fill-rule:evenodd"
               id="polygon2760"
               points="140.227,127.697 139.132,128.252 135.93,121.926 134.347,122.727 133.658,121.365 137.92,119.209 138.609,120.57 137.024,121.371 140.227,127.697 " /><polygon
               transform="matrix(2.5044159,-0.5150954,0.5150954,2.5044159,86.415758,332.06103)"
               style="clip-rule:evenodd;fill:#ffffff;fill-rule:evenodd"
               id="polygon2762"
               points="138.372,118.936 139.444,118.342 143.61,125.883 143.61,125.883 142.538,126.477 " /><polygon
               transform="matrix(2.8268642,-0.71401927,0.25950795,2.6792825,71.038803,339.55369)"
               style="clip-rule:evenodd;fill:#ffffff;fill-rule:evenodd"
               id="polygon2764"
               points="144.921,116.736 144.908,116.746 147.725,123.459 146.698,124.086 142.032,118.502 142.017,118.51 145.77,124.652 144.79,125.252 140.301,117.898 141.831,116.965 146.277,122.205 146.291,122.195 143.647,115.857 145.159,114.93 149.649,122.283 149.649,122.283 148.672,122.879 " /><path
               inkscape:connector-curvature="0"
               style="clip-rule:evenodd;fill:#ffffff;fill-rule:evenodd"
               id="path2766"
               d="m 532.3619,543.15225 c 4.17118,4.0212 4.12947,7.64092 1.22234,10.64148 -1.0578,1.10637 -2.98359,2.38722 -5.57739,1.93956 -1.59781,-0.2876 -3.12187,-1.27193 -4.73819,-2.77342 l -10.50916,-10.13482 2.44939,-2.54237 10.29085,9.91487 c 2.21031,2.13809 4.11407,2.11679 5.23353,0.9436 1.65096,-1.70934 1.22411,-3.46783 -0.69435,-5.32317 l -10.44451,-10.07209 2.45564,-2.53833 10.31198,9.9449 0,0 z" /><polygon
               points="147.725,123.459 146.698,124.086 142.032,118.502 142.017,118.51 145.77,124.652 144.79,125.252 140.301,117.898 141.831,116.965 146.277,122.205 146.291,122.195 143.647,115.857 145.159,114.93 149.649,122.283 149.649,122.283 148.672,122.879 144.921,116.736 144.908,116.746 "
               id="polygon6815"
               style="clip-rule:evenodd;fill:#ffffff;fill-rule:evenodd"
               transform="matrix(2.747393,-0.97612324,0.50976917,2.6431108,78.317407,357.14253)" /></g><g
             id="g7009"><path
               inkscape:connector-curvature="0"
               id="rect6871"
               d="m 368.13086,578.66602 c -4.89349,0 -8.83399,5.40109 -8.83398,12.11132 l 0,0.74024 c -10e-6,6.71023 3.94049,12.11328 8.83398,12.11328 l 0.31641,0 c 3.98417,0 7.33502,-3.58249 8.44335,-8.53516 l -4.75585,-1.88086 a 4.0208902,7.0875607 0 0 1 -3.84571,5.01954 4.0208902,7.0875607 0 0 1 -4.02148,-7.08594 4.0208902,7.0875607 0 0 1 4.02148,-7.08789 4.0208902,7.0875607 0 0 1 3.6211,4.01367 l 4.84179,-1.40625 c -1.22379,-4.67175 -4.46612,-8.00195 -8.30468,-8.00195 l -0.31641,0 z"
               style="opacity:1;fill:#ffffff;fill-opacity:1;fill-rule:evenodd;stroke:none;stroke-width:1.5;stroke-linecap:round;stroke-linejoin:miter;stroke-miterlimit:4;stroke-dasharray:none;stroke-dashoffset:0;stroke-opacity:1" /><path
               sodipodi:nodetypes="ccccccccccc"
               inkscape:connector-curvature="0"
               id="path6877"
               d="m 343.288,578.66586 0,24.965 4.84877,0 0,-9.94081 7.71023,0 0,-5.3093 -7.71,0 0,-4.29262 8.77989,0 0,-5.42227 z"
               style="fill:#ffffff;fill-rule:evenodd;stroke:none;stroke-width:1px;stroke-linecap:butt;stroke-linejoin:miter;stroke-opacity:1" /><path
               sodipodi:nodetypes="ccccccccccccc"
               inkscape:connector-curvature="0"
               id="path6881"
               d="m 324.28711,578.66602 0,24.96484 15.12891,0 0,-5.42188 -10.2793,0 0,-4.29296 9.21094,0 0,-5.53516 -9.21094,0 0,-4.29297 10.2793,0 0,-5.42187 z"
               style="fill:#ffffff;fill-rule:evenodd;stroke:none;stroke-width:1px;stroke-linecap:butt;stroke-linejoin:miter;stroke-opacity:1" /></g></g></g><g
         id="g4298"><path
           d="m 189.04331,174.47648 -34.99403,0 q -1.22608,0 -1.22608,-0.90496 l 0,-1.6591 q 0,-0.79185 1.68585,-1.73452 1.4815,-0.86727 1.4815,-2.7149 l 0,-44.64499 q 0,-1.96076 -1.89018,-2.94114 -1.27717,-0.64102 -1.27717,-1.50828 l 0,-1.80993 q 0,-0.71643 1.22608,-0.71643 l 26.25828,0 q 0.71522,0 2.70758,-0.11312 1.78802,-0.11312 2.24779,-0.11312 1.68585,0 1.68585,0.67873 l 0,11.08583 q 0,0.86726 -0.25544,1.05579 -0.20435,0.15083 -1.27716,0.15083 l -1.89018,0 q -1.22607,0 -1.37933,-1.0558 -0.56196,-2.94113 -2.04346,-5.01501 -1.4304,-2.11159 -5.82381,-2.11159 l -6.43687,0 0,21.34212 2.34997,0 q 2.19672,0 3.0141,-0.60331 0.81737,-0.64103 2.04343,-3.92153 0.4087,-1.05579 0.56196,-1.16891 0.15327,-0.11313 0.91954,-0.11313 l 2.24779,0 q 1.32824,0 1.32824,0.94267 l 0,14.2155 q 0,0.90497 -1.22606,0.90497 l -2.34997,0 q -0.76628,0 -1.0728,-0.26395 -0.30651,-0.30166 -0.81738,-1.77222 -0.91956,-2.67719 -1.99236,-3.2428 -1.07282,-0.60331 -2.963,-0.60331 l -2.04346,0 0,23.86848 6.89664,0 q 3.83147,0 5.31297,-1.31974 1.4815,-1.35745 3.6782,-7.35286 0.51086,-1.35744 1.8391,-1.35744 l 2.19672,0 q 1.27715,0 1.27715,0.94267 l 0,13.57449 z"
           style="font-style:normal;font-variant:normal;font-weight:normal;font-stretch:extra-condensed;font-size:60px;line-height:125%;font-family:'Gloucester MT Extra Condensed';-inkscape-font-specification:'Gloucester MT Extra Condensed, Extra-Condensed';letter-spacing:-0.66751212px;word-spacing:1.33502412px;fill:#1e3a7b;fill-opacity:1;stroke:none;stroke-width:1px;stroke-linecap:butt;stroke-linejoin:miter;stroke-opacity:1"
           id="path4264"
           inkscape:connector-curvature="0" /><path
           d="m 213.67785,150.0424 7.0499,-26.2063 q 0.20433,-0.64102 0.20433,-1.0935 0,-1.58369 -2.29888,-2.48866 -1.73692,-0.71643 -1.73692,-1.58369 l 0,-1.88535 q 0,-0.94267 1.4304,-0.94267 l 12.05635,0 q 1.53258,0 1.53258,0.94267 l 0,1.88535 q 0,0.94267 -1.43041,1.47057 -2.45214,0.94267 -3.11626,3.39362 l -13.33348,50.56498 q -0.30653,1.16891 -1.4815,1.16891 l -2.09455,0 q -1.17497,0 -1.4815,-1.16891 L 195.54226,123.8361 q -0.7663,-2.7149 -3.21844,-3.88382 -1.32824,-0.64101 -1.32824,-1.50827 l 0,-1.73452 q 0,-0.86726 1.32824,-0.86726 l 15.78564,0 q 1.22606,0 1.22606,0.94267 l 0,1.88535 q 0,0.71643 -1.27715,1.28203 -1.73693,0.82956 -1.73693,2.11159 0,0.49019 0.15328,1.16892 l 7.20315,26.80961 z"
           style="font-style:normal;font-variant:normal;font-weight:normal;font-stretch:extra-condensed;font-size:60px;line-height:125%;font-family:'Gloucester MT Extra Condensed';-inkscape-font-specification:'Gloucester MT Extra Condensed, Extra-Condensed';letter-spacing:-0.66751212px;word-spacing:1.33502412px;fill:#1e3a7b;fill-opacity:1;stroke:none;stroke-width:1px;stroke-linecap:butt;stroke-linejoin:miter;stroke-opacity:1"
           id="path4266"
           inkscape:connector-curvature="0" /><path
           d="m 269.88364,174.47648 -34.99401,0 q -1.22608,0 -1.22608,-0.90496 l 0,-1.6591 q 0,-0.79185 1.68585,-1.73452 1.4815,-0.86727 1.4815,-2.7149 l 0,-44.64499 q 0,-1.96076 -1.8902,-2.94114 -1.27715,-0.64102 -1.27715,-1.50828 l 0,-1.80993 q 0,-0.71643 1.22608,-0.71643 l 26.25828,0 q 0.71521,0 2.70756,-0.11312 1.78802,-0.11312 2.24781,-0.11312 1.68583,0 1.68583,0.67873 l 0,11.08583 q 0,0.86726 -0.25543,1.05579 -0.20435,0.15083 -1.27715,0.15083 l -1.8902,0 q -1.22605,0 -1.37931,-1.0558 -0.56196,-2.94113 -2.04346,-5.01501 -1.43041,-2.11159 -5.82381,-2.11159 l -6.43687,0 0,21.34212 2.34997,0 q 2.1967,0 3.01408,-0.60331 0.81738,-0.64103 2.04345,-3.92153 0.40868,-1.05579 0.56194,-1.16891 0.15327,-0.11313 0.91956,-0.11313 l 2.24779,0 q 1.32824,0 1.32824,0.94267 l 0,14.2155 q 0,0.90497 -1.22608,0.90497 l -2.34995,0 q -0.7663,0 -1.07282,-0.26395 -0.30651,-0.30166 -0.81738,-1.77222 -0.91954,-2.67719 -1.99234,-3.2428 -1.07282,-0.60331 -2.963,-0.60331 l -2.04346,0 0,23.86848 6.89664,0 q 3.83147,0 5.31295,-1.31974 1.4815,-1.35745 3.67821,-7.35286 0.51087,-1.35744 1.83911,-1.35744 l 2.1967,0 q 1.27715,0 1.27715,0.94267 l 0,13.57449 z"
           style="font-style:normal;font-variant:normal;font-weight:normal;font-stretch:extra-condensed;font-size:60px;line-height:125%;font-family:'Gloucester MT Extra Condensed';-inkscape-font-specification:'Gloucester MT Extra Condensed, Extra-Condensed';letter-spacing:-0.66751212px;word-spacing:1.33502412px;fill:#1e3a7b;fill-opacity:1;stroke:none;stroke-width:1px;stroke-linecap:butt;stroke-linejoin:miter;stroke-opacity:1"
           id="path4268"
           inkscape:connector-curvature="0" /><path
           d="m 288.54876,147.02585 0,20.43715 q 0,1.96075 1.94127,2.94113 1.32825,0.64103 1.32825,1.50829 l 0,1.69681 q 0,0.86725 -1.32825,0.86725 l -15.93889,0 q -1.12389,0 -1.12389,-0.79184 l 0,-1.77222 q 0,-0.82955 1.32824,-1.50829 1.94127,-1.01807 1.94127,-2.94113 l 0,-44.64499 q 0,-1.92305 -1.94127,-2.90343 -1.32824,-0.64102 -1.32824,-1.54599 l 0,-1.6591 q 0,-0.86726 1.32824,-0.86726 l 13.38457,0 q 11.34114,0 17.26714,3.77069 5.92598,3.77069 5.92598,10.8973 0,11.34979 -14.25302,14.66799 4.18906,1.50828 6.33468,3.43133 2.19669,1.88534 3.37168,5.58063 l 3.72928,11.95308 q 0.71522,2.30012 1.37934,3.12969 0.71521,0.79184 2.29888,1.50827 0.45977,0.22624 0.45977,0.71643 l 0,2.14929 q 0,0.82955 -1.12389,0.82955 l -10.21725,0 q -1.4815,0 -1.89018,-1.20662 l -6.94772,-20.7388 q -1.1239,-3.43133 -2.50322,-4.44942 -1.32824,-1.01808 -3.42277,-1.05579 z m 0,-26.62108 0,22.13396 q 5.5173,0 8.1227,-2.56408 2.60539,-2.56406 2.60539,-9.12507 0,-6.41017 -2.65648,-8.40864 -2.6054,-2.03617 -8.07161,-2.03617 z"
           style="font-style:normal;font-variant:normal;font-weight:normal;font-stretch:extra-condensed;font-size:60px;line-height:125%;font-family:'Gloucester MT Extra Condensed';-inkscape-font-specification:'Gloucester MT Extra Condensed, Extra-Condensed';letter-spacing:-0.66751212px;word-spacing:1.33502412px;fill:#1e3a7b;fill-opacity:1;stroke:none;stroke-width:1px;stroke-linecap:butt;stroke-linejoin:miter;stroke-opacity:1"
           id="path4271"
           inkscape:connector-curvature="0" /><path
           d="m 340.56549,120.21623 0,47.24677 q 0,1.96075 1.94127,2.94113 1.32824,0.64103 1.32824,1.50829 l 0,1.69681 q 0,0.86725 -1.32824,0.86725 l -15.93889,0 q -1.1239,0 -1.1239,-0.79184 l 0,-1.77222 q 0,-0.82955 1.32825,-1.50829 1.94127,-1.01807 1.94127,-2.94113 l 0,-47.24677 -2.24779,0 q -2.50323,0 -3.72929,1.39516 -1.17498,1.39515 -2.14562,6.14623 -0.10218,0.64101 -1.07282,0.64101 l -1.99236,0 q -1.73692,0 -1.73692,-1.0935 l 0,-10.97271 q 0,-1.28203 1.63475,-1.28203 1.02173,0 3.62712,0.30165 4.18906,0.49019 6.33468,0.49019 l 18.08452,0 q 1.37932,-0.15083 3.37168,-0.41477 3.06517,-0.33937 3.37168,-0.33937 1.37933,0 1.37933,0.94268 l 0,11.27436 q 0,1.0935 -1.32824,1.0935 l -1.94127,0 q -1.17499,0 -1.43041,-0.49019 -0.20435,-0.49019 -0.71521,-2.45095 -0.91955,-3.24279 -1.89018,-4.22317 -0.97066,-1.01809 -3.42279,-1.01809 l -2.29886,0 z"
           style="font-style:normal;font-variant:normal;font-weight:normal;font-stretch:extra-condensed;font-size:60px;line-height:125%;font-family:'Gloucester MT Extra Condensed';-inkscape-font-specification:'Gloucester MT Extra Condensed, Extra-Condensed';letter-spacing:-0.66751212px;word-spacing:1.33502412px;fill:#1e3a7b;fill-opacity:1;stroke:none;stroke-width:1px;stroke-linecap:butt;stroke-linejoin:miter;stroke-opacity:1"
           id="path4273"
           inkscape:connector-curvature="0" /><path
           d="m 377.46071,175.26833 q -10.67701,0 -15.93889,-7.91846 -5.21079,-7.91845 -5.21079,-21.90771 0,-13.98927 5.26188,-22.17167 5.31296,-8.2201 15.37694,-8.2201 9.45094,0 14.96824,7.57909 5.56839,7.54138 5.56839,22.3602 0,15.12046 -5.5173,22.69956 -5.46623,7.57909 -14.50847,7.57909 z m -0.56195,-4.07234 q 2.29888,0 4.18906,-2.18701 1.94129,-2.187 2.75867,-11.9908 0.81737,-9.8038 0.81737,-17.9862 0,-7.39055 -1.22607,-12.14162 -1.22606,-4.78878 -2.65649,-6.14623 -1.43041,-1.39516 -3.67819,-1.39516 -1.8902,0 -3.42277,1.0558 -1.4815,1.05579 -2.34997,3.8084 -0.81738,2.71489 -1.4815,10.67106 -0.61303,7.95616 -0.61303,16.51563 0,10.67105 1.89018,15.23358 1.89019,4.56255 5.77274,4.56255 z"
           style="font-style:normal;font-variant:normal;font-weight:normal;font-stretch:extra-condensed;font-size:60px;line-height:125%;font-family:'Gloucester MT Extra Condensed';-inkscape-font-specification:'Gloucester MT Extra Condensed, Extra-Condensed';letter-spacing:-0.66751212px;word-spacing:1.33502412px;fill:#1e3a7b;fill-opacity:1;stroke:none;stroke-width:1px;stroke-linecap:butt;stroke-linejoin:miter;stroke-opacity:1"
           id="path4275"
           inkscape:connector-curvature="0" /><path
           d="m 431.31656,147.51604 0,-24.69803 q 0,-1.92305 -1.94127,-2.90343 -1.32824,-0.64102 -1.32824,-1.54599 l 0,-1.6591 q 0,-0.86726 1.32824,-0.86726 l 11.54547,0 q 1.12389,0 1.12389,0.79185 l 0,1.73451 q 0,0.86726 -1.27715,1.54599 -1.99236,1.01808 -1.99236,2.90343 l 0,50.7158 q 0,1.20662 -1.4815,1.20662 l -2.24779,0 q -1.53259,0 -2.14562,-1.20662 l -21.14968,-41.10054 0,35.02973 q 0,1.96075 1.99236,2.94113 1.32824,0.64103 1.32824,1.50829 l 0,1.69681 q 0,0.86725 -1.32824,0.86725 l -11.49437,0 q -1.12392,0 -1.12392,-0.79184 l 0,-1.77222 q 0,-0.82955 1.32825,-1.50829 1.94127,-1.01807 1.94127,-2.94113 l 0,-44.64499 q 0,-1.92305 -1.94127,-2.90343 -1.32825,-0.64102 -1.32825,-1.54599 l 0,-1.6591 q 0,-0.86726 1.32825,-0.86726 l 10.83027,0 q 1.17498,0 1.58367,0.22624 0.40869,0.18854 0.81737,0.98038 l 15.63238,30.46719 z"
           style="font-style:normal;font-variant:normal;font-weight:normal;font-stretch:extra-condensed;font-size:60px;line-height:125%;font-family:'Gloucester MT Extra Condensed';-inkscape-font-specification:'Gloucester MT Extra Condensed, Extra-Condensed';letter-spacing:-0.66751212px;word-spacing:1.33502412px;fill:#1e3a7b;fill-opacity:1;stroke:none;stroke-width:1px;stroke-linecap:butt;stroke-linejoin:miter;stroke-opacity:1"
           id="path4277"
           inkscape:connector-curvature="0" /><path
           d="m 480.57127,120.40477 0,22.13396 3.37168,0 q 1.99236,0 2.75865,-0.64103 0.81738,-0.67872 1.63476,-2.67718 0.61303,-1.47057 0.81738,-1.65911 0.25544,-0.22624 1.22607,-0.22624 l 2.24779,0 q 1.32824,0 1.32824,0.90497 l 0,13.00889 q 0,0.94267 -1.07282,0.94267 l -2.50321,0 q -0.86847,0 -1.17498,-0.22624 -0.25544,-0.26395 -0.71522,-1.35746 -0.97063,-2.52636 -2.09452,-3.05425 -1.1239,-0.56561 -2.45214,-0.56561 l -3.37168,0 0,20.47486 q 0,1.96075 1.94127,2.94113 1.32824,0.64103 1.32824,1.50829 l 0,1.69681 q 0,0.86725 -1.32824,0.86725 l -15.93889,0 q -1.1239,0 -1.1239,-0.79184 l 0,-1.77222 q 0,-0.82955 1.32825,-1.50829 1.94127,-1.01807 1.94127,-2.94113 l 0,-44.64499 q 0,-1.92305 -2.04344,-2.94114 -1.37933,-0.64102 -1.37933,-1.50828 l 0,-1.69681 q 0,-0.82955 1.12389,-0.82955 l 26.46263,0 q 1.17499,0 3.72931,-0.15083 1.37931,-0.11312 1.63475,-0.11312 1.22606,0 1.48149,0.22624 0.25544,0.22625 0.25544,0.98038 l 0,11.23667 q 0,0.98038 -1.4815,0.98038 l -1.99237,0 q -0.91954,0 -1.22606,-0.26395 -0.25544,-0.30166 -0.61304,-1.88535 -0.81738,-3.8084 -2.86082,-5.12814 -1.99236,-1.31974 -5.87491,-1.31974 l -5.36404,0 z"
           style="font-style:normal;font-variant:normal;font-weight:normal;font-stretch:extra-condensed;font-size:60px;line-height:125%;font-family:'Gloucester MT Extra Condensed';-inkscape-font-specification:'Gloucester MT Extra Condensed, Extra-Condensed';letter-spacing:-0.66751212px;word-spacing:1.33502412px;fill:#1e3a7b;fill-opacity:1;stroke:none;stroke-width:1px;stroke-linecap:butt;stroke-linejoin:miter;stroke-opacity:1"
           id="path4279"
           inkscape:connector-curvature="0" /><path
           d="m 514.72574,168.67828 q 0,2.70755 -1.94126,4.6488 -1.94125,1.94125 -4.64879,1.94125 -2.70752,0 -4.64878,-1.94125 -1.89017,-1.94125 -1.89017,-4.6488 0,-2.70753 1.89017,-4.5977 1.94126,-1.94125 4.64878,-1.94125 2.75862,0 4.64879,1.94125 1.94126,1.89017 1.94126,4.5977 z"
           style="font-style:normal;font-variant:normal;font-weight:normal;font-stretch:extra-condensed;font-size:60px;line-height:125%;font-family:'Gloucester MT Extra Condensed';-inkscape-font-specification:'Gloucester MT Extra Condensed, Extra-Condensed';letter-spacing:-0.66751212px;word-spacing:1.33502412px;fill:#1e3a7b;fill-opacity:1;stroke:none;stroke-width:1px;stroke-linecap:butt;stroke-linejoin:miter;stroke-opacity:1"
           id="path4281"
           inkscape:connector-curvature="0" /><path
           d="m 555.86611,160.14785 q -0.51086,7.01349 -4.69992,11.08584 -4.13798,4.03464 -10.7792,4.03464 -9.50201,0 -15.27475,-7.6168 -5.72165,-7.65451 -5.72165,-22.3602 0,-14.51716 5.56839,-22.3602 5.61947,-7.88074 14.4063,-7.88074 3.62712,0 8.02053,1.80993 0.61303,0.22624 0.91955,0.22624 0.3576,0 1.02172,-0.45248 0.35761,-0.37707 0.86846,-0.41478 l 2.91192,0 q 0.97064,0 0.97064,1.0935 l 0,12.36787 q 0,1.05579 -0.97064,1.05579 l -2.2478,0 q -1.0728,0 -1.4815,-0.41477 -0.35759,-0.41478 -1.02171,-2.26242 -3.11626,-8.7103 -8.22488,-8.7103 -3.01409,0 -4.64885,2.26242 -1.63476,2.26241 -2.50321,8.55947 -0.86847,6.29705 -0.86847,12.74494 0,14.10238 2.14562,20.70109 2.14562,6.59872 7.50967,6.59872 6.43686,0 8.42921,-10.52024 l 5.67057,0.45248 z"
           style="font-style:normal;font-variant:normal;font-weight:normal;font-stretch:extra-condensed;font-size:60px;line-height:125%;font-family:'Gloucester MT Extra Condensed';-inkscape-font-specification:'Gloucester MT Extra Condensed, Extra-Condensed';letter-spacing:-0.66751212px;word-spacing:1.33502412px;fill:#1e3a7b;fill-opacity:1;stroke:none;stroke-width:1px;stroke-linecap:butt;stroke-linejoin:miter;stroke-opacity:1"
           id="path4283"
           inkscape:connector-curvature="0" /><path
           d="m 571.6626,168.67828 q 0,2.70755 -1.94125,4.6488 -1.94125,1.94125 -4.64879,1.94125 -2.70753,0 -4.64878,-1.94125 -1.89018,-1.94125 -1.89018,-4.6488 0,-2.70753 1.89018,-4.5977 1.94125,-1.94125 4.64878,-1.94125 2.75861,0 4.64879,1.94125 1.94125,1.89017 1.94125,4.5977 z"
           style="font-style:normal;font-variant:normal;font-weight:normal;font-stretch:extra-condensed;font-size:60px;line-height:125%;font-family:'Gloucester MT Extra Condensed';-inkscape-font-specification:'Gloucester MT Extra Condensed, Extra-Condensed';letter-spacing:-0.66751212px;word-spacing:1.33502412px;fill:#1e3a7b;fill-opacity:1;stroke:none;stroke-width:1px;stroke-linecap:butt;stroke-linejoin:miter;stroke-opacity:1"
           id="path4285"
           inkscape:connector-curvature="0" /></g></g></g></svg>