<?xml version="1.0" encoding="UTF-8" standalone="no"?>
<svg
   xmlns:dc="http://purl.org/dc/elements/1.1/"
   xmlns:cc="http://creativecommons.org/ns#"
   xmlns:rdf="http://www.w3.org/1999/02/22-rdf-syntax-ns#"
   xmlns:svg="http://www.w3.org/2000/svg"
   xmlns="http://www.w3.org/2000/svg"
   xmlns:sodipodi="http://sodipodi.sourceforge.net/DTD/sodipodi-0.dtd"
   xmlns:inkscape="http://www.inkscape.org/namespaces/inkscape"
   version="1.1"
   id="Capa_1"
   viewBox="0 0 542.3 542.3"
   xml:space="preserve">
<ellipse
   transform="matrix(0.7071 -0.7071 0.7071 0.7071 -112.3065 271.132)"
   cx="271.1"
   cy="271.1"
   rx="266.6"
   ry="266.6"
   id="ellipse4"
   style="fill:#ffffff" />
<path
   d="M9.1,271.1c0-144.5,117.5-262,262-262c144.5,0,262,117.5,262,262s-117.5,262-262,262  C126.7,533.1,9.1,415.6,9.1,271.1z M0,271.1c0,149.5,121.6,271.1,271.1,271.1c149.5,0,271.1-121.6,271.1-271.1  C542.3,121.6,420.6,0,271.1,0C121.6,0,0,121.6,0,271.1"
   id="path6"
   style="fill:#1f0e00" />
<ellipse
   cx="271.1"
   cy="271.1"
   rx="181.1"
   ry="180.5"
   id="ellipse8"
   style="fill:#75a8de" />
<path
   d="M94.5,271.1c0-97,79.2-176,176.6-176c97.4,0,176.6,78.9,176.6,176s-79.2,176-176.6,176  C173.8,447.1,94.5,368.2,94.5,271.1z M85.4,271.1c0,102.1,83.3,185.1,185.7,185.1c102.4,0,185.7-83,185.7-185.1  C456.8,169.1,373.5,86,271.1,86C168.7,86,85.4,169.1,85.4,271.1"
   id="path10"
   style="fill:#1f0e00" />
<path
   d="M91.4,360.4l-36.2,25.4l11.7,16.7l24.4-7c1.4-0.4,3.1-1.1,5-1.9c-1.3,1.5-2.5,2.9-3.3,4l-14.9,20.9l11.6,16.6l37.2-26.1  l-7.9-11.3c0,0-18.8,13.2-20.8,14.6c0.8-1,1.6-2,2.3-3l13.1-19.3l-7.7-11l-22.8,5.7c-1.1,0.3-2.4,0.7-3.8,1.1  c1.7-1.2,21-14.7,21-14.7l-7.9-11.3L91.4,360.4z"
   id="path12"
   style="fill:#1f0e00" />
<path
   d="M57.1,319.5c0.6,2.2,2,8,2.6,10.2c-2.4-0.3-10.5-1.4-14.2-1.9C48.6,325.6,55.2,320.9,57.1,319.5z M71,293.3l-38.3,27.6  l4.7,18.8l48.5,6.6l-3.5-14.1c0,0-10.1-1.4-11.5-1.6c-0.3-1.4-4-15.8-4.3-17.2c1.1-0.8,9.4-6.8,9.4-6.8l-3.6-14.3L71,293.3"
   id="path14"
   style="fill:#1f0e00" />
<path
   d="M30.5,228.8l-1,12.6l20.4,1.7c1.8,0.1,3.8,0.2,6,0.2c-2.7,0.9-4.7,1.7-5.9,2.4l-21.7,11.3l-1.5,18.5l45.3,3.7l1.1-13.8  l-23-1.9c0,0-5.7-0.2-5.8-0.2c2.3-0.9,4.2-1.9,5.8-2.7l24.5-13.2l1.3-16l-45.3-3.7L30.5,228.8z"
   id="path16"
   style="fill:#1f0e00" />
<path
   d="M55.4,164.8c-5.5,3.3-9.5,8.2-12,14.7c-2.9,7.5-3.4,14.1-1.4,19.6c2.1,5.5,6.6,9.7,13.4,12.4c7,2.7,13.4,2.8,19.1,0.3  c5.6-2.5,9.9-7.4,12.7-14.5c1.3-3.3,2-6.7,2.1-9.9c0.1-3.2-0.3-6.5-1.3-9.8l-0.2-0.6l-12.1-4.7l1.4,2.8c2.8,5.5,3.1,10.8,1,16.1  c-1.5,3.8-3.7,6.4-6.6,7.7c-2.9,1.3-6.3,1.1-10.2-0.4c-3.6-1.4-6-3.5-7.3-6.4c-1.3-2.9-1.3-6.1,0.2-9.8c1-2.6,2.6-5,4.7-7  c2.1-2.1,4.5-3.5,7.1-4.4l3.1-1.1l-13.2-5.2L55.4,164.8z"
   id="path18"
   style="fill:#1f0e00" />
<path
   d="M93.6,103.7L85.5,114c0,0,11,8.6,12.6,9.9c-1.2,1.6-9.5,12.2-10.8,13.7c-1.6-1.3-12.6-9.9-12.6-9.9L65.9,139l35.8,28  l8.8-11.3c0,0-13.1-10.3-14.8-11.6c1.2-1.6,9.5-12.2,10.8-13.7c1.6,1.3,14.8,11.6,14.8,11.6l8.8-11.3l-35.8-28L93.6,103.7z"
   id="path20"
   style="fill:#1f0e00" />
<path
   d="M143.6,63.4l-30.5,22.9l27.3,36.4L171.9,99l-6.4-8.5c0,0-18.3,13.8-20,15.1c-0.9-1.2-3.1-4.1-4-5.3c1.7-1.3,20-15.1,20-15.1  l-6.4-8.5c0,0-18.3,13.8-20,15.1c-0.9-1.2-3-4-3.9-5.2c1.7-1.3,20-15.1,20-15.1l-6.7-8.9L143.6,63.4z"
   id="path22"
   style="fill:#1f0e00" />
<path
   d="M195.9,38.6c-2.6,0.2-5.6,0.9-8.8,2c-5.6,1.9-9.8,4.7-12.5,8.5c-2.8,3.9-3.6,7.9-2.1,12.1c1.6,4.7,5.2,7.4,10.8,8  c0.8,0.1,3.1,0.1,13.5-0.7c4-0.3,6.4,0.2,6.9,1.6c0.2,0.7,0.4,1.7-0.8,3.1c-1,1.2-2.8,2.2-5.1,3c-2.8,1-5.7,1.4-8.5,1.3  c-2.4-0.1-5.1-0.6-7.8-1.6l-2.3-0.9l4.1,11.9l0.7,0.1c6,1.1,12.1,0.6,18-1.4c5.4-1.8,9.6-4.7,12.4-8.5c2.9-3.9,3.7-7.9,2.4-11.8  c-1.4-4-4.1-6.6-8.1-7.8c-3-0.8-7.2-0.9-12.8-0.2c-5.2,0.7-7.2,0.7-8,0.6c-0.8-0.1-1.3-0.5-1.6-1.4c-0.2-0.6-0.4-1.6,0.8-2.9  c1.1-1.2,2.8-2.2,5.3-3c2.7-0.9,5.4-1.4,7.8-1.2c2.4,0.1,4.9,0.7,7.5,1.6l2.4,0.9l-4.3-12.7l-0.7-0.1  C201.5,38.5,198.5,38.3,195.9,38.6z"
   id="path24"
   style="fill:#1f0e00" />
<path
   d="M269.4,26.2l-45,4.8l1.2,11c0,0,13.9-1.5,16-1.7c0.2,2.2,3.7,34.2,3.7,34.2l14.2-1.5c0,0-3.4-32-3.7-34.2  c2-0.2,16-1.7,16-1.7l-1.2-11L269.4,26.2z"
   id="path26"
   style="fill:#1f0e00" />
<path
   d="M290.8,28.7l-7.4,43.7l38.8,6.6l1.8-10.5c0,0-22.6-3.8-24.7-4.2c0.3-1.5,0.9-5.1,1.1-6.6c2.1,0.4,24.7,4.2,24.7,4.2  l1.8-10.5c0,0-22.6-3.8-24.7-4.2c0.3-1.5,0.8-4.9,1.1-6.4c2.1,0.4,24.7,4.2,24.7,4.2l1.9-10.9L291,27.5L290.8,28.7z"
   id="path28"
   style="fill:#1f0e00" />
<path
   d="M363.3,57.4c1.5,0.6,5.5,2.3,5.5,2.3c4,1.6,5.5,2.8,6.1,3.5c0.3,0.4,0.6,0.9,0.5,1.7c0,0.4-0.1,0.9-0.4,1.5  c-0.4,1.1-1.1,1.8-2,2.1c-1.7,0.7-4.3,0.3-7.8-1.1c0,0-3.7-1.5-5.2-2.2C360.7,63.8,362.7,59,363.3,57.4z M353.7,43.2l-16.9,40.9  l13.2,5.5c0,0,4.5-10.9,6.1-14.8c1.6,4.5,7.2,20.3,7.2,20.3L380,102c0,0-8.5-20.9-10.1-24.8c4,1.3,7.6,1.6,10.7,0.8  c3.9-1,6.8-3.6,8.4-7.6c1.7-4.2,1.2-8.1-1.4-11.5c-2.3-2.9-6.1-5.5-11.4-7.7l-21.9-9L353.7,43.2"
   id="path30"
   style="fill:#1f0e00" />
<path
   d="M421.6,104.4L421.6,104.4c-5.8,4.8-9.1,10.3-9.6,16.5c-0.6,6.2,1.6,12.3,6.4,18.2c2.3,2.8,4.8,5,7.6,6.7  c2.8,1.7,5.8,2.9,9.2,3.7l0.6,0.1l10.1-8.2l-3.1-0.1c-6.2-0.3-10.9-2.6-14.5-7c-2.6-3.2-3.8-6.4-3.4-9.5c0.3-3.1,2.1-6.1,5.3-8.7  c3-2.4,6-3.5,9.2-3.2c3.2,0.3,5.9,1.9,8.4,5c1.8,2.2,3,4.7,3.8,7.5c0.8,2.8,0.9,5.7,0.4,8.4l-0.6,3.2l11-9l0-0.6  c-0.2-6.4-2.5-12.3-6.9-17.7c-5.1-6.2-10.6-9.9-16.4-10.8C433.1,97.9,427.2,99.8,421.6,104.4z"
   id="path32"
   style="fill:#1f0e00" />
<polygon
   points="476,142.5 437.8,164.9 445,177.3 484.3,154.3 477.1,141.9 "
   id="polygon34"
   style="fill:#1f0e00" />
<path
   d="M491.9,169.6l-9.3,3.4c0,0,4.8,13.2,5.5,15.1c-2.1,0.8-32.3,11.7-32.3,11.7l4.9,13.5c0,0,30.2-11,32.3-11.7  c0.7,1.9,5.5,15.1,5.5,15.1l10.4-3.8L493,169.2L491.9,169.6z"
   id="path36"
   style="fill:#1f0e00" />
<path
   d="M510.7,229.5c0,0-25.2,19.9-25.8,20.3c-0.7,0.1-16.4,1.2-16.4,1.2l1.1,14.3c0,0,15.9-1.2,16.5-1.3  c0.6,0.3,30.3,17.1,30.3,17.1l-1.3-16.7l-13.1-6.5c-1.6-0.8-3.5-1.5-5.4-2c1.8-0.8,3.5-1.8,5.1-2.9l11.9-8.6l-1.2-16.4L510.7,229.5z  "
   id="path38"
   style="fill:#1f0e00" />
<path
   d="M462.6,320.2l-3.9,12.5c0,0,13.9,4.4,15.9,5c-0.6,2.1-7.3,23.4-7.3,23.4l10.2,3.2c0,0,6.7-21.4,7.3-23.4  c1.5,0.5,5.3,1.6,6.8,2.1c-0.6,2.1-7.3,23.4-7.3,23.4l10.6,3.3l11.6-37.1l-43.4-13.6L462.6,320.2z"
   id="path40"
   style="fill:#1f0e00" />
<path
   d="M439.8,387L439.8,387c-6.1,0.7-11.7,4.2-16.4,10.1c-2.2,2.8-3.9,5.8-4.9,8.8c-1,3-1.6,6.3-1.7,9.7l0,0.6l10.2,8.1l-0.5-3.1  c-1-6.1,0.2-11.2,3.8-15.7c2.6-3.2,5.5-5,8.6-5.4c3.1-0.3,6.4,0.8,9.6,3.4c3,2.4,4.7,5.1,5.1,8.3c0.4,3.2-0.6,6.2-3.1,9.3  c-1.7,2.2-3.9,4-6.6,5.3c-2.6,1.3-5.3,2.1-8.1,2.1l-3.3,0.1l11.1,8.8l0.6-0.1c6.2-1.5,11.5-5,15.8-10.4c5-6.3,7.4-12.5,7.1-18.3  c-0.3-5.9-3.4-11.2-9.1-15.8C452.1,388.2,446,386.2,439.8,387z"
   id="path42"
   style="fill:#1f0e00" />
<path
   d="M409.6,428.5c0,4-3.2,7.3-7.3,7.3c-4,0-7.3-3.2-7.3-7.3c0-4,3.2-7.3,7.3-7.3C406.3,421.2,409.6,424.5,409.6,428.5z"
   id="path44"
   style="fill:#1f0e00" />
<path
   d="M280.2,496.4c0,5.3-4.3,9.6-9.6,9.6c-5.3,0-9.6-4.3-9.6-9.6c0-5.3,4.3-9.6,9.6-9.6C275.9,486.8,280.2,491.1,280.2,496.4z"
   id="path46" />
<path
   d="M458.9,367.6c0,4-3.2,7.3-7.3,7.3c-4,0-7.3-3.2-7.3-7.3s3.2-7.3,7.3-7.3C455.7,360.4,458.9,363.6,458.9,367.6z"
   id="path48"
   style="fill:#1f0e00" />
<path
   d="M271.1,421.7c0,0-60.8-29.5-92.2-81.9c-26.1-43.6-27.1-81-27.1-114.7c0-33.7,0-62.7,0-62.7s30,2.8,61.3-4.7  c29.9-7.2,58.1-27.1,58.1-27.1s28.1,20,58.1,27.1c31.4,7.5,61.3,4.7,61.3,4.7s0,29,0,62.7c0,33.7-1,71-27.1,114.7  C332,392.2,271.1,421.7,271.1,421.7z"
   id="path50"
   style="fill:#ffffff" />
<path
   d="M387,277.3c0,0,4.2-23.2,4.2-57.6s-0.7-57.3-0.7-57.3s-26.7,3.3-51.3-3c-24.6-6.3-68.1-28.8-68.1-28.8  s-40,24.5-61.8,29.5c-21.8,4.9-57.6,2.3-57.6,2.3s-2.1,51.7,0,74.9c2.1,23.2,2.1,37.9,2.1,37.9L387,277.3z"
   id="path52"
   style="fill:#75a8de" />
<path
   d="M158.7,271.9c-2.3-15.6-2.7-30.9-2.7-46.8c0,0,0-50.5,0-58.2c9.7,0.5,33.3,0.8,58.1-5.1  c25.7-6.1,49.6-21.1,57.1-26.1c7.5,5,31.4,20,57.1,26.1c24.8,5.9,48.4,5.6,58.1,5.1c0,7.8,0,58.2,0,58.2c0,15.9-0.4,31.2-2.7,46.8  L158.7,271.9z M382.2,280.4c-3.6,18.2-10.2,36.9-22.4,57.3c-27.3,45.7-78.4,74-88.6,79.3c-10.3-5.4-61.3-33.7-88.6-79.3  c-12.2-20.4-18.8-39.1-22.4-57.3L382.2,280.4 M268.7,127.2c-0.3,0.2-27.8,19.6-56.6,26.5c-30.3,7.2-59.6,4.6-59.9,4.6l-4.6-0.4  l0,67.3c0,29.7,0,70.4,27.7,116.8c31.6,52.9,91.4,82.3,94,83.5l1.8,0.9l1.8-0.9c2.5-1.2,62.4-30.6,94-83.5  c27.7-46.4,27.7-87.1,27.7-116.8v-67.3l-4.6,0.4c-0.3,0-29.7,2.6-59.9-4.6c-28.8-6.9-56.3-26.3-56.6-26.5l-2.4-1.7L268.7,127.2"
   id="path54"
   style="fill:#f6b438" />
<path
   d="M212.3,154.3c28.8-6.9,56.6-26.4,56.8-26.6c0,0,1.5-1,2-1.4c0.6,0.4,2,1.4,2,1.4c0.3,0.2,28,19.7,56.8,26.6  c30.2,7.2,59.9,4.6,60.2,4.6c0,0,2.8-0.3,3.8-0.4c0,1.5,0,66.6,0,66.6c0,29.6,0,70.3-27.6,116.5c-31.5,52.7-91.2,82-93.7,83.3  c0,0-1.1,0.5-1.5,0.7c-0.4-0.2-1.5-0.7-1.5-0.7c-2.5-1.2-62.1-30.5-93.7-83.3c-27.6-46.2-27.6-86.8-27.6-116.5c0,0,0-65.1,0-66.6  c1.1,0.1,3.8,0.4,3.8,0.4C152.4,159,182.1,161.6,212.3,154.3z M270.8,124.9l-2.4,1.7l0,0c-0.3,0.2-27.8,19.5-56.4,26.3  c-30,7.2-59.4,4.6-59.7,4.6l-4.6-0.4c-0.2,0-0.4,0-0.5,0.2s-0.2,0.3-0.2,0.5l0,67.3c0,29.8,0,70.6,27.8,117.2  c31.8,53.1,91.7,82.6,94.3,83.8l1.8,0.9c0.2,0.1,0.4,0.1,0.6,0l1.8-0.9c2.5-1.2,62.6-30.7,94.3-83.8c27.8-46.5,27.8-87.4,27.8-117.2  v-67.3c0-0.2-0.1-0.4-0.2-0.5c-0.1-0.1-0.3-0.2-0.5-0.2l-4.6,0.4c-0.3,0-29.7,2.6-59.7-4.6c-28.6-6.8-56.1-26.1-56.4-26.3l-2.4-1.7  C271.3,124.7,271,124.7,270.8,124.9"
   id="path56" />
<path
   d="M381.3,281.1c-3.9,19.5-11.2,37.9-22.1,56.2c-27,45.2-77.4,73.3-88,78.9c-10.6-5.6-61-33.7-88-78.9  c-11-18.3-18.2-36.7-22.1-56.2C162.8,281.1,379.6,281.1,381.3,281.1z M382.2,279.7l-222,0c-0.2,0-0.4,0.1-0.5,0.3  c-0.1,0.2-0.2,0.4-0.1,0.6c3.9,20,11.3,38.8,22.5,57.5c27.5,45.9,78.8,74.4,88.9,79.6c0.2,0.1,0.4,0.1,0.7,0  c10-5.2,61.4-33.7,88.9-79.6c11.2-18.7,18.6-37.5,22.5-57.5c0-0.2,0-0.4-0.1-0.6C382.6,279.8,382.4,279.7,382.2,279.7"
   id="path58" />
<path
   d="M214.3,162.5c25.6-6.1,49.6-21.1,56.9-26c7.3,4.8,31.3,19.8,56.9,26c24.5,5.8,47.9,5.6,57.5,5.1  c0,1.4,0,57.5,0,57.5c0,17-0.5,31.4-2.6,46.1c-1.2,0-222.4,0-223.7,0c-2.1-14.7-2.6-29.1-2.6-46.1c0,0,0-56,0-57.5  C166.4,168.1,189.8,168.4,214.3,162.5z M270.8,135.1c-6.8,4.5-31.1,19.9-56.8,26c-24.9,5.9-48.8,5.5-57.9,5.1  c-0.2,0-0.4,0.1-0.5,0.2c-0.1,0.1-0.2,0.3-0.2,0.5v58.2c0,17.3,0.5,31.9,2.7,46.9c0.1,0.3,0.3,0.6,0.7,0.6l224.9,0  c0.3,0,0.6-0.3,0.7-0.6c2.2-15,2.7-29.6,2.7-46.9v-58.2c0-0.2-0.1-0.4-0.2-0.5c-0.1-0.1-0.3-0.2-0.5-0.2c-9.1,0.5-33,0.9-57.9-5.1  c-25.8-6.2-50-21.5-56.8-26C271.3,135,271,135,270.8,135.1"
   id="path60" />
<polygon
   points="319.5,239.5 317.8,180.4 316.4,239.4 "
   id="polygon62"
   style="fill:#f6b438"
   transform="translate(0,-2.0493503e-5)" />
<path
   d="M317.8,200.1c0.5,17.3,1.1,38.1,1.2,38.9c-0.6,0-1.5-0.1-2.1-0.1C316.9,238.2,317.4,217.3,317.8,200.1z   M317.8,179.9c-0.3,0-0.5,0.2-0.5,0.5l-1.4,59c0,0.3,0.2,0.5,0.5,0.5l3.2,0.2c0.1,0,0.3,0,0.4-0.1c0.1-0.1,0.2-0.2,0.2-0.4  l-1.8-59.1C318.3,180.1,318.1,179.9,317.8,179.9"
   id="path64" />
<polygon
   points="287.9,241.1 284.1,158.8 282.8,240.8 "
   id="polygon66"
   style="fill:#f6b438"
   transform="translate(0,-2.0493503e-5)" />
<path
   d="M284.3,175.8c1,21.2,3,63.8,3,64.7c-0.8-0.1-3.3-0.2-4-0.3C283.4,239.5,284,197,284.3,175.8z M284.1,158.3  c-0.3,0-0.5,0.2-0.5,0.5l-1.2,82c0,0.3,0.2,0.5,0.5,0.5l5.1,0.4c0.1,0,0.3,0,0.4-0.1c0.1-0.1,0.2-0.3,0.2-0.4l-3.9-82.3  C284.6,158.5,284.3,158.3,284.1,158.3"
   id="path68" />
<polygon
   points="247.7,174.6 245.8,240.6 249.3,240.6 "
   id="polygon70"
   style="fill:#f6b438" />
<path
   d="M247.7,194.4c0.5,19.2,1.1,44.9,1.1,45.7c-0.6,0-1.8,0-2.4,0C246.4,239.3,247.1,213.6,247.7,194.4z   M247.2,174.6l-1.9,66c0,0.1,0,0.3,0.1,0.4c0.1,0.1,0.2,0.2,0.4,0.2h3.5c0.1,0,0.3-0.1,0.4-0.2c0.1-0.1,0.2-0.2,0.1-0.4l-1.6-66  c0-0.3-0.2-0.5-0.5-0.5C247.5,174.1,247.2,174.3,247.2,174.6"
   id="path72" />
<path
   d="M312.4,238c0,0-1.1-7.9-3.4-16.8c-2.1-8.4-3.3-11.3-3.3-11.3s-8.9-1.7-20.8-1.4c-12.3,0.4-17.4,2.6-17.4,2.6  s-1.3,4.8-2.7,14.2c-1.3,8.7-1.9,13.8-1.9,13.8s4.7-4,11.5-4c6.8,0,9.1,3.6,11.9,3.6c4.1,0,6.2-3.3,13.7-3.2  C307.5,235.6,312.4,238,312.4,238z"
   id="path74"
   style="fill:#f6b438" />
<path
   d="M285,208.9c10.7-0.3,18.9,1.1,20.4,1.3c0.3,0.9,1.4,4,3.2,11c1.8,7.1,2.9,13.6,3.2,15.9  c-1.7-0.7-6-2.1-11.7-2.2c-4.4-0.1-7.1,1.1-9.2,2c-1.5,0.6-2.8,1.2-4.5,1.2c-1,0-1.9-0.5-3.1-1.2c-1.9-1-4.5-2.5-8.8-2.5  c-5.1,0-9,2.2-10.8,3.3c0.3-2,1.7-12.6,1.7-12.6c1.2-8,2.3-12.7,2.6-13.8C269,211,274.3,209.2,285,208.9z M284.9,207.9  c-12.2,0.4-17.4,2.5-17.6,2.6c-0.1,0.1-0.3,0.2-0.3,0.3c0,0-1.3,4.9-2.7,14.2l-1.9,13.8c0,0.2,0.1,0.4,0.3,0.5  c0.2,0.1,0.4,0.1,0.6-0.1c0,0,4.6-3.9,11.1-3.9c4,0,6.4,1.3,8.3,2.3c1.3,0.7,2.4,1.3,3.6,1.3c1.8,0,3.3-0.6,4.9-1.3  c2.1-0.9,4.6-1.9,8.8-1.9c7.3,0.1,12.1,2.5,12.2,2.5c0.2,0.1,0.4,0.1,0.5,0c0.2-0.1,0.2-0.3,0.2-0.5c0-0.1-1.2-8-3.4-16.9  c-2.1-8.4-3.2-11.3-3.3-11.4c-0.1-0.2-0.2-0.3-0.4-0.3C305.8,209.3,296.8,207.5,284.9,207.9"
   id="path76" />
<path
   d="m 306.8,209.20001 c 0,0 0.1,-3.9 -2.2,-11.3 C 302.5,191 301.2,188.5 301.2,188.5 c 0,0 -6.4,-1.8 -14.7,-1.5 -9.2,0.4 -16.8,3.7 -16.8,3.7 0,0 -1.3,3 -2.2,9.10001 -1,6.7 -0.7,10.8 -0.7,10.8 0,0 2.8,-2.9 6.2,-3.3 7.8,-0.9 8.1,0.7 13.2,0.7 5.1,0 6.3,-1.6 11.3,-1.6 5,0 9.3,2.8 9.3,2.8 z"
   id="path78"
   style="fill:#f6b438" />
<path
   d="M286.5,187.5c7.3-0.3,13.2,1.1,14.3,1.4c0.3,0.7,1.5,3.4,3.3,9.1c1.7,5.3,2.1,8.8,2.2,10.3  c-1.5-0.8-4.9-2.4-8.8-2.4c-2.6,0-4.2,0.4-5.7,0.8c-1.6,0.4-3.1,0.8-5.6,0.8c-2,0-3.2-0.2-4.4-0.5c-2-0.4-4-0.8-8.9-0.2  c-2.5,0.3-4.5,1.7-5.6,2.7c0-0.2,0-0.3,0-0.6c0-1.8,0.1-4.9,0.7-8.9c0.8-5.4,1.9-8.3,2.1-8.8C271,190.7,278.1,187.8,286.5,187.5z   M286.4,186.5c-9.2,0.4-17,3.8-17,3.8c-0.1,0.1-0.2,0.2-0.3,0.3c-0.1,0.1-1.3,3.2-2.3,9.3c-1,6.7-0.7,10.7-0.7,10.9  c0,0.2,0.2,0.4,0.3,0.5c0.2,0.1,0.4,0,0.6-0.1c0,0,2.7-2.7,5.9-3.1c4.7-0.6,6.6-0.2,8.5,0.2c1.3,0.2,2.6,0.5,4.6,0.5  c2.7,0,4.3-0.4,5.9-0.8c1.6-0.4,3-0.8,5.5-0.8c4.8,0,9,2.7,9.1,2.7c0.2,0.1,0.4,0.1,0.5,0s0.3-0.3,0.3-0.5c0-0.2,0.1-4-2.2-11.5  c-2.1-6.8-3.4-9.3-3.4-9.4c-0.1-0.1-0.2-0.2-0.3-0.3C301.3,188,294.7,186.2,286.4,186.5"
   id="path80" />
<path
   d="m 299.9,187.8 c 0,0 -0.2,-3.9 -1.5,-8.5 -1.3,-4.7 -2,-6.3 -2,-6.3 0,0 -5,-1.8 -12.9,-0.8 -7.8,0.9 -11,3.9 -11,3.9 0,0 -0.7,2.7 -1.1,7 -0.4,4.3 -0.4,6.9 -0.4,6.9 0,0 3,-2.5 5.5,-3 2.5,-0.6 4.7,0.4 8.8,0.1 4.1,-0.2 5.4,-1.3 8,-1.3 2.8,-0.1 6.6,2 6.6,2 z"
   id="path82"
   style="fill:#f6b438" />
<path
   d="M283.6,172.7c7-0.8,11.7,0.5,12.4,0.7c0.2,0.5,0.8,2.2,1.9,6c0.9,3.2,1.3,6.1,1.4,7.5c-1.3-0.6-3.9-1.7-5.9-1.7  c-1.3,0-2.2,0.2-3.4,0.5c-1.2,0.3-2.5,0.6-4.6,0.8c-1.9,0.1-3.3,0-4.6-0.2c-1.5-0.1-2.8-0.3-4.2,0.1c-1.8,0.4-3.7,1.7-4.8,2.5  c0.1-1.5,0.3-5.8,0.3-5.8c0.3-3.9,0.9-6.4,1-6.8C273.6,175.8,276.8,173.5,283.6,172.7z M283.5,171.6c-7.9,0.9-11.2,3.9-11.3,4  c-0.1,0.1-0.1,0.2-0.2,0.3c0,0.1-0.7,2.8-1.1,7.1l-0.4,6.9c0,0.2,0.1,0.4,0.3,0.5c0.2,0.1,0.4,0.1,0.6-0.1c0,0,3-2.4,5.3-2.9  c1.2-0.3,2.4-0.2,3.9,0c1.3,0.1,2.9,0.3,4.8,0.2c2.2-0.1,3.6-0.5,4.8-0.8c1-0.3,1.9-0.5,3.1-0.5c2.6,0,6.3,2,6.3,2  c0.2,0.1,0.4,0.1,0.5,0c0.2-0.1,0.3-0.3,0.2-0.5c0-0.2-0.3-4-1.5-8.6c-1.3-4.7-2-6.3-2-6.4c-0.1-0.1-0.2-0.2-0.3-0.3  C296.4,172.4,291.4,170.7,283.5,171.6"
   id="path84" />
<path
   d="m 284.4,158.2 c 0,0 -2.7,0.5 -4.8,0.4 -1.9,-0.1 -4.1,-1.1 -7.3,-1.1 -4.4,0 -6.8,3.6 -6.8,3.6 0,0 2.8,-0.1 6.4,0.4 3,0.4 4.9,1.4 7.1,1.6 2.6,0.3 5.1,-0.5 5.1,-0.5 z"
   id="path86"
   style="fill:#f6b438" />
<path
   d="M272.3,158c1.8,0,3.4,0.3,4.7,0.6l2.5,0.4c1.6,0.1,3.4-0.1,4.3-0.3c0,0.8-0.1,2.9-0.1,3.4  c-0.8,0.2-2.7,0.6-4.6,0.4l-3-0.7c-1.2-0.3-2.5-0.7-4.1-0.9c-2.3-0.3-4.2-0.4-5.4-0.4C267.6,159.6,269.5,158,272.3,158z   M265.1,160.9c-0.1,0.2-0.1,0.4,0,0.5c0.1,0.2,0.3,0.3,0.5,0.3c0,0,2.8-0.1,6.3,0.3c1.5,0.2,2.8,0.6,3.9,0.9l3.2,0.7  c2.6,0.3,5.2-0.5,5.3-0.5c0.2-0.1,0.4-0.3,0.4-0.5l0.1-4.4c0-0.2-0.1-0.3-0.2-0.4c-0.1-0.1-0.3-0.1-0.4-0.1c0,0-2.7,0.5-4.7,0.3  l-2.4-0.4c-1.4-0.3-3-0.7-4.9-0.7C267.6,157,265.2,160.7,265.1,160.9"
   id="path88" />
<path
   d="M317.8,192.3c0,0,6.9,1.2,12.2,0.6c5.3-0.6,13.5-4.4,13.5-4.4s-1.9,10.3-1.5,19c0.3,8.4,5.4,20.6,5.4,20.6  s-7.1-2.6-15.9-4c-8.8-1.4-13.1-0.8-13.1-0.8s0.6-3.5,0.6-12.5C318.9,201.6,317.8,192.3,317.8,192.3z"
   id="path90"
   style="fill:#f6b438" />
<path
   d="M330.1,193.4c4.4-0.5,10.5-3.1,12.7-4.1c-0.4,2.4-1.4,9.3-1.4,15.8c0,0.8,0,1.5,0,2.2c0.3,7.1,3.8,16.6,5,19.7  c-2.3-0.8-8.1-2.5-14.9-3.6c-7-1.1-11.1-1-12.6-0.9c0.2-1.4,0.5-5,0.5-11.9c0-7.6-0.8-15.5-1-17.7  C320.3,193.2,325.7,193.9,330.1,193.4z M343.2,187.9c-0.1,0-8.2,3.8-13.3,4.4c-5.1,0.6-12-0.6-12-0.6c-0.2,0-0.3,0-0.4,0.1  c-0.1,0.1-0.2,0.3-0.2,0.4c0,0.1,1,9.4,1,18.3c0,8.8-0.6,12.4-0.6,12.4c0,0.2,0,0.3,0.1,0.5c0.1,0.1,0.3,0.2,0.4,0.2  c0,0,4.4-0.6,12.9,0.8c8.7,1.4,15.7,3.9,15.8,4c0.2,0.1,0.4,0,0.6-0.1c0.1-0.2,0.2-0.4,0.1-0.6c0-0.1-5-12.2-5.3-20.4  c-0.3-8.5,1.5-18.7,1.5-18.8c0-0.2,0-0.4-0.2-0.5C343.6,187.9,343.4,187.8,343.2,187.9"
   id="path92" />
<path
   d="M 317.9,183.8 V 179 c 0,0 1.1,-0.8 3.5,0 2.2,0.7 4,2.9 6.7,3.4 2.9,0.5 5.7,-0.6 5.7,-0.6 0,0 -1.4,3.9 -5.7,3.9 -3.3,0 -5.1,-1.7 -6.8,-2.1 -1.4,-0.3 -3.4,0.2 -3.4,0.2 z"
   id="path94"
   style="fill:#f6b438" />
<path
   d="M321.3,179.5c0.9,0.3,1.7,0.8,2.6,1.4c1.2,0.8,2.5,1.7,4.1,2c1.8,0.3,3.6,0,4.8-0.2c-0.7,1-2.1,2.5-4.7,2.5  c-2.1,0-3.5-0.7-4.8-1.3l-1.9-0.8c-1-0.3-2.2-0.1-3,0.1c0-0.9,0-3.3,0-3.8C318.8,179.3,319.7,179,321.3,179.5z M317.6,178.6  c-0.1,0.1-0.2,0.3-0.2,0.4v4.8c0,0.2,0.1,0.3,0.2,0.4c0.1,0.1,0.3,0.1,0.5,0.1c0,0,1.9-0.5,3.1-0.2l1.7,0.7c1.3,0.6,2.9,1.4,5.2,1.4  c4.6,0,6.2-4.2,6.2-4.2c0.1-0.2,0-0.4-0.1-0.6c-0.1-0.1-0.4-0.2-0.6-0.1c0,0-2.8,1-5.5,0.6c-1.4-0.2-2.6-1-3.7-1.8  c-0.9-0.6-1.8-1.2-2.9-1.6C319,177.7,317.8,178.5,317.6,178.6"
   id="path96" />
<path
   d="m 247.5,176.7 v -5.1 c 0,0 -2.5,1.5 -4.6,1.2 -2.1,-0.4 -5.7,-1.4 -7.8,-0.9 -3.7,0.8 -5.4,4.2 -5.4,4.2 0,0 4,-0.2 5.9,-0.5 1.9,-0.2 4.4,1.2 6.4,1.6 2.6,0.6 5.5,-0.5 5.5,-0.5 z"
   id="path98"
   style="fill:#f6b438" />
<path
   d="M235.2,172.3c1.5-0.3,3.9,0.2,5.9,0.6l1.8,0.3c1.6,0.3,3.2-0.4,4.1-0.8c0,1.1,0,3.4,0,3.9  c-0.8,0.2-3,0.8-4.9,0.3l-2.2-0.7c-1.5-0.5-3-1.1-4.4-0.9c0,0-3.3,0.3-4.8,0.4C231.5,174.4,232.9,172.8,235.2,172.3z M247.2,171.1  c0,0-2.3,1.4-4.2,1.1l-1.7-0.3c-2.1-0.4-4.6-1-6.3-0.6c-3.9,0.9-5.7,4.3-5.7,4.5c-0.1,0.2-0.1,0.4,0,0.5c0.1,0.2,0.3,0.2,0.5,0.2  l5.9-0.5c1.1-0.1,2.5,0.4,3.9,0.9l2.4,0.8c2.7,0.6,5.7-0.4,5.8-0.5c0.2-0.1,0.3-0.3,0.3-0.5v-5.1c0-0.2-0.1-0.4-0.3-0.5  C247.6,171,247.4,171,247.2,171.1"
   id="path100" />
<path
   d="M232.2,228.3c0,0-0.1-3.4-0.1-7.5c0-4.7,0.4-7.1,0.4-7.1s3.7-4.7,14.7-4.9c11-0.2,12.2,3.5,12.2,3.5  s0.4,2.1,0.5,6.6c0.1,4.3-0.2,7.8-0.2,7.8s-5.4-2.1-12.9-2C239.2,224.8,232.2,228.3,232.2,228.3z"
   id="path102"
   style="fill:#f6b438" />
<path
   d="M247.2,209.3c10.3-0.2,11.6,3.1,11.7,3.2l0,0c0,0,0.3,2.2,0.4,6.4c0,0.6,0,1.2,0,1.7c0,2.4-0.1,4.4-0.2,5.4  c-1.6-0.5-6.3-1.9-12.4-1.8c-6.2,0.1-12,2.5-14,3.3c0-1.3-0.1-6.7-0.1-6.7c0-4.2,0.3-6.5,0.3-6.9  C233.4,213.4,237.2,209.5,247.2,209.3z M247.1,208.2c-11.1,0.2-15,4.9-15.1,5.1c-0.1,0.1-0.1,0.2-0.1,0.3c0,0.1-0.4,2.5-0.4,7.2  l0.1,7.5c0,0.2,0.1,0.3,0.3,0.4s0.3,0.1,0.5,0c0.1,0,7-3.5,14.3-3.6c7.3-0.1,12.6,1.9,12.7,2c0.2,0.1,0.3,0,0.5,0  c0.1-0.1,0.2-0.2,0.2-0.4c0,0,0.4-3.6,0.2-7.9c-0.1-4.4-0.5-6.5-0.5-6.6C259.8,211.9,258.4,208,247.1,208.2"
   id="path104" />
<path
   d="m 233.6,208.80001 c 0,0 -0.4,-3.6 -0.4,-6.7 0,-3 0.5,-5.50001 0.5,-5.50001 0,0 3.4,-3.3 12.4,-3.5 9,-0.2 10.5,2.2 10.5,2.2 0,0 0.7,1.3 1.3,6.60001 0.5,4.7 0.4,5.6 0.4,5.6 0,0 -6.4,-1.6 -11.2,-1.6 -6.7,-0.1 -13.5,2.9 -13.5,2.9 z"
   id="path106"
   style="fill:#f6b438" />
<path
   d="M246.1,193.6c8.4-0.2,10.1,2,10.1,2c0,0,0.7,1.4,1.2,6.3c0.3,2.8,0.4,4.2,0.4,4.9c-1.7-0.4-6.7-1.5-10.7-1.5  c-5.6,0-11.2,2-13,2.7c-0.1-1.2-0.3-3.7-0.3-5.9c0-2.7,0.4-4.8,0.4-5.2C234.8,196.4,238.2,193.8,246.1,193.6z M246.1,192.6  c-9.1,0.2-12.6,3.5-12.8,3.7c-0.1,0.1-0.1,0.2-0.2,0.3c0,0.1-0.5,2.5-0.5,5.6c0,3,0.4,6.7,0.4,6.7c0,0.2,0.1,0.3,0.3,0.4  c0.1,0.1,0.3,0.1,0.5,0c0.1,0,6.8-2.9,13.2-2.9c4.7,0,11,1.6,11.1,1.6c0.1,0,0.3,0,0.4-0.1c0.1-0.1,0.2-0.2,0.2-0.4  c0-0.1,0.2-1.2-0.3-5.8c-0.6-5.2-1.3-6.6-1.3-6.7C256.9,194.8,255.1,192.3,246.1,192.6"
   id="path108" />
<path
   d="M248,186.9c0,0-2.1-3.5-6.7-4.2c-4.3-0.7-17.5,1.5-28.4,13.7c-9,10.1-8.9,14.7-8.9,16c0,3.9,18.1,24,18.1,24  s-0.2-20,1.5-26C226.7,199.9,234.3,188.5,248,186.9z"
   id="path110"
   style="fill:#f6b438" />
<path
   d="M204.5,212.4C204.5,212.4,204.5,212.4,204.5,212.4c0-3.9,2.9-9.2,8.8-15.7c10.6-11.8,23.4-14.2,28-13.5  c3.1,0.5,5,2.4,5.8,3.3c-11.2,1.7-20.1,10.5-23.9,23.7c-1.4,4.9-1.6,18.6-1.6,24c0,0.3,0,0.5,0,0.7  C214.4,226.9,204.5,215,204.5,212.4z M212.5,196c-6,6.7-9,12.2-9,16.3c0,4,16.4,22.3,18.3,24.4c0.1,0.2,0.4,0.2,0.6,0.1  c0.2-0.1,0.3-0.3,0.3-0.5c0-0.2-0.2-20,1.5-25.8c1.4-4.9,7.4-21.2,23.9-23.1c0.2,0,0.3-0.1,0.4-0.3c0.1-0.2,0.1-0.3,0-0.5  c-0.1-0.2-2.3-3.7-7-4.5C236.7,181.4,223.4,183.9,212.5,196"
   id="path112" />
<path
   d="M180.1,219.3c16.3,9.9,16.2,10,27.8,16.8c6.3,3.7,10.5,8.9,12.6,12.2c1,1.5,1.6,2.9,1.9,4  c0.4,1.2,8.2,1.4,8.2,1.4s2.3,4,10.8,3.7c4-0.1,15.9-5.8,21.3-5.6c6.7,0.3,7.2,6.4,15,5.6c6.5-0.6,13.8-5,19.9-4.9  c6.4,0.1,8.1,4.7,13.6,4.7c11.3,0,12.2-5.1,24.3-4c6.1,0.6,4.1,6.2,10.3,3.7c1.3-0.5,1.2-0.5,1.4-1.4c1.4-5.1,6.1-19.7,5.9-21.3  c-0.5-2.6-3.7-5.4-4.9-5.4c-1.9,0-5.4,9.6-5.4,9.6s-23.4,1.4-79.6,0.9c-20.8-0.2-34.4-1.2-41.7-3.3c-7.3-2.1-25-10.5-31.1-13.6  C184.3,219.5,181.3,217.7,180.1,219.3z"
   id="path114"
   style="fill:#f6b438" />
<path
   d="M188,221.9l2.2,1.1c6.8,3.4,24.1,11.5,31.2,13.6c7.1,2.1,20.4,3.1,41.8,3.3c55.5,0.5,79.4-0.9,79.6-0.9  c0.2,0,0.4-0.1,0.5-0.3c1.8-4.9,4.1-9.2,4.9-9.2c0.9,0,4,2.6,4.4,4.9c0.2,1-2.2,9-3.8,14.3l-2,6.8l-0.1,0.2c-0.1,0.5-0.1,0.5-1,0.8  c-3.1,1.2-3.8,0.3-4.9-1c-1-1.1-2.2-2.5-5.1-2.8c-6.7-0.6-10,0.6-13.5,1.8c-2.9,1-5.8,2.1-10.9,2.1c-2.5,0-4.2-1-6-2.1  c-2-1.2-4.1-2.5-7.6-2.6c-3.4-0.1-7.2,1.2-10.8,2.5c-3.1,1.1-6.2,2.2-9.2,2.4c-4,0.4-5.9-1.1-8-2.7c-1.8-1.4-3.7-2.8-6.9-2.9  c-3.1-0.1-8.3,1.7-12.9,3.2c-3.5,1.2-6.7,2.3-8.4,2.4c-8,0.3-10.3-3.4-10.3-3.5c-0.1-0.2-0.3-0.3-0.4-0.3c-3.4-0.1-7.3-0.6-7.7-1.1  c-0.4-1.3-1.1-2.7-1.9-4c-1.5-2.3-5.7-8.1-12.8-12.3L191,225.3c0,0-8.5-5.2-9.9-6C182.3,219.1,184.6,220.2,188,221.9z M179.7,219  c-0.1,0.1-0.1,0.2-0.1,0.3c0,0,0,0.1,0,0.1c0,0.1,0.1,0.3,0.2,0.3l10.7,6.5l17.2,10.4c6.9,4.1,11,9.8,12.5,12  c0.8,1.3,1.4,2.6,1.8,3.8c0.4,1.2,4.7,1.6,8.4,1.8c0.7,0.9,3.5,4,11.1,3.8c1.8-0.1,5-1.2,8.7-2.4c4.5-1.5,9.6-3.3,12.5-3.2  c2.9,0.1,4.6,1.4,6.3,2.7c2.1,1.6,4.3,3.3,8.7,2.9c3.1-0.3,6.3-1.4,9.4-2.5c3.7-1.3,7.2-2.5,10.4-2.4c3.1,0.1,5.1,1.3,7,2.4  c1.8,1.1,3.7,2.3,6.6,2.3c5.3,0,8.3-1.1,11.3-2.2c3.4-1.2,6.6-2.4,13-1.8c2.5,0.2,3.5,1.4,4.4,2.5c1.2,1.4,2.3,2.7,6.1,1.3  c1.2-0.5,1.4-0.7,1.7-1.6l0.1-0.2l2-6.7c2.5-8.2,4.1-13.7,3.9-14.8c-0.5-2.7-3.9-5.8-5.4-5.8c-2,0-4.6,6.5-5.8,9.6  c-3,0.2-27.1,1.4-79.2,0.9c-21.3-0.2-34.5-1.2-41.5-3.3c-7.1-2-24.3-10.2-31-13.5l-2.2-1.1C183.5,218.5,181,217.2,179.7,219"
   id="path116" />
<path
   d="M178,264.6c0-0.1,3.7-3.2,12.6-3.2h0.1c8.9,0,9.9,4.8,17.8,4.8h0c7.9,0,8.9-4.8,17.8-4.8l0,0  c8.9,0,9.9,4.8,17.8,4.8h0c7.9,0,8.9-4.8,17.8-4.8h0.1c8.9,0,9.9,4.8,17.8,4.8h0c7.9,0,8.9-4.8,17.8-4.8l0,0c8.9,0,9.9,4.8,17.8,4.8  h0c7.9,0,8.9-4.8,17.8-4.8h0c8.9,0,9.9,4.8,17.8,4.8h0c7.9,0,12.5-6,15.6-5.6c0,0-1.5-1.1-4.7,0c-2.3,0.8-4.9,2.1-8.5,2.1h0  c-7.9,0-8.9-5.5-17.7-5.5h-0.1c-8.9,0-9.8,5.5-17.7,5.5h0c-7.9,0-8.9-5.5-17.7-5.5l0,0c-8.9,0-9.8,5.5-17.7,5.5h0  c-7.9,0-8.9-5.5-17.7-5.5h-0.1c-8.9,0-9.8,5.5-17.7,5.5h0c-7.9,0-8.9-5.5-17.7-5.5l0,0c-8.9,0-9.8,5.5-17.7,5.5h0  c-7.9,0-8.9-5.5-17.7-5.5h0c-5.8,0-8.3,1.4-11.3,3.3C178.4,263.1,178,264.6,178,264.6z"
   id="path118"
   style="fill:#ffffff" />
<path
   d="M366.9,260.2C366.9,260.2,366.9,260.2,366.9,260.2C366.9,260.2,366.9,260.2,366.9,260.2z M220.2,260.6  c2.3-1.4,4.7-2.8,9.2-2.8c4.5,0,6.9,1.4,9.2,2.8c2.3,1.3,4.6,2.7,8.6,2.7c4,0,6.3-1.4,8.6-2.7c2.3-1.4,4.7-2.8,9.2-2.8  c4.5,0,6.9,1.4,9.2,2.8c2.3,1.3,4.6,2.7,8.6,2.7c4,0,6.3-1.4,8.6-2.7c2.3-1.4,4.7-2.8,9.2-2.8c4.4,0,6.9,1.4,9.2,2.8  c2.3,1.3,4.6,2.7,8.6,2.7c4,0,6.3-1.4,8.6-2.7c2.3-1.4,4.7-2.8,9.2-2.8c4.5,0,6.9,1.4,9.2,2.8c2.3,1.3,4.6,2.7,8.6,2.7  c3.1,0,5.4-0.9,7.4-1.7l1.2-0.5c0.8-0.3,1.4-0.4,2-0.4c-0.7,0.3-1.5,0.8-2.4,1.3c-2.7,1.6-6.1,3.7-10.7,3.7c-3.7,0-5.9-1.1-8.1-2.2  c-2.5-1.3-5-2.6-9.7-2.6c-4.8,0-7.3,1.3-9.8,2.6c-2.2,1.2-4.4,2.2-8.1,2.2c-3.7,0-5.9-1.1-8.1-2.2c-2.5-1.3-5-2.6-9.7-2.6  c-4.7,0-7.3,1.3-9.7,2.6c-2.2,1.2-4.4,2.3-8.1,2.3c-3.7,0-5.9-1.1-8.1-2.3c-2.5-1.3-5-2.6-9.7-2.6c-4.8,0-7.3,1.3-9.8,2.6  c-2.2,1.2-4.4,2.3-8.1,2.3c-3.7,0-5.9-1.1-8.1-2.3c-2.5-1.3-5-2.6-9.7-2.6c-4.8,0-7.3,1.3-9.8,2.6c-2.2,1.2-4.4,2.3-8.1,2.3  c-3.7,0-5.9-1.1-8.1-2.3c-2.5-1.3-5-2.6-9.7-2.6c-4.6,0-8,0.9-10.2,1.7c0.6-0.5,1.3-1,2.3-1.6c3.1-1.9,5.5-3.2,11.1-3.2  c4.5,0,6.9,1.4,9.2,2.8c2.3,1.3,4.6,2.7,8.6,2.7C215.6,263.3,218,261.9,220.2,260.6 M182.2,260.1c-4.1,2.6-4.7,4.1-4.7,4.3  c0,0,0,0.1,0,0.1c0,0,0,0,0,0c0,0,0,0,0,0c0,0,0,0,0,0c0,0.2,0.1,0.3,0.2,0.4c0,0,0.1,0,0.1,0c0,0,0,0,0,0c0,0,0.1,0,0.1,0  c0.1,0,0.3,0,0.4-0.1c0,0,3.6-3,12.3-3c4.5,0,6.9,1.3,9.3,2.5c2.3,1.2,4.6,2.4,8.6,2.4c4,0,6.3-1.2,8.6-2.4c2.3-1.2,4.8-2.5,9.2-2.5  c4.5,0,6.9,1.3,9.3,2.5c2.3,1.2,4.6,2.4,8.6,2.4c4,0,6.3-1.2,8.6-2.4c2.3-1.2,4.8-2.5,9.2-2.5c4.5,0,6.9,1.3,9.3,2.5  c2.3,1.2,4.6,2.4,8.6,2.4c4,0,6.3-1.2,8.6-2.4c2.4-1.2,4.8-2.5,9.2-2.5c4.5,0,6.9,1.3,9.3,2.5c2.3,1.2,4.6,2.4,8.6,2.4  c4,0,6.3-1.2,8.6-2.4c2.4-1.2,4.8-2.5,9.2-2.5c4.5,0,6.9,1.3,9.3,2.5c2.3,1.2,4.6,2.4,8.6,2.4c4.9,0,8.5-2.2,11.2-3.8  c1.8-1.1,3.2-1.9,4.3-1.8c0.2,0,0.5-0.1,0.6-0.3c0.1-0.2,0-0.5-0.2-0.6c-0.1-0.1-1.8-1.3-5.2-0.1l-1.2,0.5c-2,0.8-4.2,1.6-7,1.6  c-3.7,0-5.8-1.2-8.1-2.5c-2.5-1.4-5-2.9-9.7-2.9c-4.8,0-7.3,1.5-9.7,2.9c-2.2,1.3-4.3,2.5-8,2.5c-3.7,0-5.8-1.2-8.1-2.5  c-2.5-1.4-5-2.9-9.7-2.9c-4.7,0-7.3,1.5-9.7,2.9c-2.2,1.3-4.3,2.5-8,2.5c-3.7,0-5.8-1.2-8.1-2.5c-2.5-1.4-5-2.9-9.7-2.9  c-4.8,0-7.3,1.5-9.7,2.9c-2.2,1.3-4.3,2.5-8,2.5c-3.7,0-5.8-1.2-8-2.5c-2.5-1.4-5-2.9-9.7-2.9c-4.7,0-7.3,1.5-9.7,2.9  c-2.2,1.3-4.3,2.5-8,2.5c-3.7,0-5.8-1.2-8.1-2.5c-2.5-1.4-5-2.9-9.7-2.9C188,256.8,185.5,258.1,182.2,260.1"
   id="path120" />
<path
   d="M174.5,257.6c0-0.1,3.7-3.2,12.6-3.2h0c8.9,0,9.9,4.8,17.8,4.8h0c7.9,0,8.9-4.8,17.8-4.8l0,0  c8.9,0,9.9,4.8,17.8,4.8h0c7.9,0,8.9-4.8,17.8-4.8h0.1c8.9,0,9.9,4.8,17.8,4.8h0c7.9,0,8.9-4.8,17.8-4.8l0,0c8.9,0,9.9,4.8,17.8,4.8  h0c7.9,0,8.9-4.8,17.8-4.8h0c8.9,0,9.9,4.8,17.8,4.8h0c7.9,0,12.5-6,15.6-5.6c0,0-1.5-1.1-4.7,0c-2.3,0.8-4.9,2.1-8.5,2.1h0  c-7.9,0-8.9-5.5-17.7-5.5h-0.1c-8.9,0-9.8,5.5-17.7,5.5h0c-7.9,0-8.9-5.5-17.7-5.5l0,0c-8.9,0-9.8,5.5-17.7,5.5h0  c-7.9,0-8.9-5.5-17.7-5.5h0c-8.9,0-9.8,5.5-17.7,5.5h0c-7.9,0-8.9-5.5-17.7-5.5l0,0c-8.9,0-9.8,5.5-17.7,5.5h0  c-7.9,0-8.9-5.5-17.7-5.5h0c-5.8,0-8.3,1.4-11.3,3.3C174.9,256.1,174.5,257.6,174.5,257.6z"
   id="path122"
   style="fill:#ffffff" />
<path
   d="M363.4,253.1C363.4,253.1,363.4,253.1,363.4,253.1C363.4,253.1,363.4,253.1,363.4,253.1z M216.7,253.6  c2.3-1.4,4.7-2.8,9.2-2.8c4.5,0,6.9,1.4,9.2,2.8c2.3,1.3,4.6,2.7,8.6,2.7c4,0,6.3-1.4,8.6-2.7c2.3-1.4,4.7-2.8,9.2-2.8  c4.5,0,6.9,1.4,9.2,2.8c2.3,1.3,4.6,2.7,8.6,2.7c4,0,6.3-1.4,8.6-2.7c2.3-1.4,4.7-2.8,9.2-2.8c4.4,0,6.9,1.4,9.2,2.8  c2.3,1.3,4.6,2.7,8.6,2.7c4,0,6.3-1.4,8.6-2.7c2.3-1.4,4.7-2.8,9.2-2.8c4.5,0,6.9,1.4,9.2,2.8c2.3,1.3,4.6,2.7,8.6,2.7  c3.1,0,5.4-0.9,7.4-1.7l1.2-0.5c0.8-0.3,1.4-0.4,2-0.4c-0.7,0.3-1.5,0.8-2.4,1.3c-2.7,1.6-6.1,3.7-10.7,3.7c-3.7,0-5.9-1.1-8.1-2.2  c-2.5-1.3-5-2.6-9.7-2.6c-4.8,0-7.3,1.3-9.8,2.6c-2.2,1.2-4.4,2.2-8.1,2.2c-3.7,0-5.9-1.1-8.1-2.2c-2.5-1.3-5-2.6-9.7-2.6  c-4.7,0-7.3,1.3-9.7,2.6c-2.2,1.2-4.4,2.3-8.1,2.3c-3.7,0-5.9-1.1-8.1-2.3c-2.5-1.3-5-2.6-9.7-2.6c-4.8,0-7.3,1.3-9.8,2.6  c-2.2,1.2-4.4,2.3-8.1,2.3c-3.7,0-5.9-1.1-8.1-2.3c-2.5-1.3-5-2.6-9.7-2.6c-4.8,0-7.3,1.3-9.8,2.6c-2.2,1.2-4.4,2.3-8.1,2.3  c-3.7,0-5.9-1.1-8.1-2.3c-2.5-1.3-5-2.6-9.7-2.6c-4.6,0-8,0.9-10.2,1.7c0.6-0.5,1.3-1,2.3-1.6c3.1-1.9,5.5-3.2,11.1-3.2  c4.5,0,6.9,1.4,9.2,2.8c2.3,1.3,4.6,2.7,8.6,2.7C212.1,256.3,214.5,254.9,216.7,253.6 M178.7,253.1c-4.1,2.6-4.7,4.1-4.7,4.3  c0,0,0,0.1,0,0.1c0,0,0,0,0,0c0,0,0,0,0,0c0,0,0,0,0,0c0,0.2,0.1,0.3,0.2,0.4c0,0,0.1,0,0.1,0c0,0,0,0,0,0c0,0,0.1,0,0.1,0  c0.1,0,0.3,0,0.4-0.1c0,0,3.6-3,12.3-3c4.5,0,6.9,1.3,9.3,2.5c2.3,1.2,4.6,2.4,8.6,2.4c4,0,6.3-1.2,8.6-2.4c2.4-1.2,4.8-2.5,9.2-2.5  c4.5,0,6.9,1.3,9.3,2.5c2.3,1.2,4.6,2.4,8.6,2.4c4,0,6.3-1.2,8.6-2.4c2.4-1.2,4.8-2.5,9.2-2.5c4.5,0,6.9,1.3,9.3,2.5  c2.3,1.2,4.6,2.4,8.6,2.4c4,0,6.3-1.2,8.6-2.4c2.4-1.2,4.8-2.5,9.2-2.5c4.5,0,6.9,1.3,9.3,2.5c2.3,1.2,4.6,2.4,8.6,2.4  c4,0,6.3-1.2,8.6-2.4c2.4-1.2,4.8-2.5,9.2-2.5c4.5,0,6.9,1.3,9.3,2.5c2.3,1.2,4.6,2.4,8.6,2.4c4.9,0,8.5-2.2,11.2-3.8  c1.8-1.1,3.2-1.9,4.3-1.8c0.2,0,0.5-0.1,0.6-0.3c0.1-0.2,0-0.5-0.2-0.6c-0.1-0.1-1.8-1.3-5.2-0.1c0,0-1.2,0.5-1.2,0.5  c-2,0.8-4.2,1.6-7,1.6c-3.7,0-5.8-1.2-8.1-2.5c-2.5-1.4-5-2.9-9.7-2.9c-4.8,0-7.3,1.5-9.7,2.9c-2.2,1.3-4.3,2.5-8,2.5  c-3.7,0-5.8-1.2-8.1-2.5c-2.5-1.4-5-2.9-9.7-2.9c-4.7,0-7.3,1.5-9.7,2.9c-2.2,1.3-4.3,2.5-8,2.5c-3.7,0-5.8-1.2-8.1-2.5  c-2.5-1.4-5-2.9-9.7-2.9c-4.8,0-7.3,1.5-9.7,2.9c-2.2,1.3-4.3,2.5-8,2.5c-3.7,0-5.8-1.2-8-2.5c-2.5-1.4-5-2.9-9.7-2.9  c-4.7,0-7.3,1.5-9.7,2.9c-2.2,1.3-4.3,2.5-8,2.5c-3.7,0-5.8-1.2-8.1-2.5c-2.5-1.4-5-2.9-9.7-2.9C184.5,249.8,182,251.1,178.7,253.1"
   id="path124" />
<path
   d="M215.2,325.4c0,0,1.5,1.8,3.8,3.8c2.3,2,5.8,4.3,5.8,4.3s9.2,2.2,10.1,0.2l1.2-3.6c0.4-2.1-8.3-5.7-8.3-5.7  s-4.2-0.2-7.2,0.1C217.6,324.7,215.3,325.3,215.2,325.4L215.2,325.4z"
   id="path126"
   style="fill:#57ba58" />
<path
   d="M220.7,325c2.8-0.3,6.6-0.1,7-0.1c3.9,1.6,7.9,4,7.9,5c0,0,0,0,0,0.1l-1.1,3.5c-0.4,0.9-5.2,0.4-9.4-0.6  c-0.4-0.3-3.6-2.3-5.7-4.2c-1.5-1.3-2.6-2.5-3.2-3.2C217.1,325.4,218.7,325.2,220.7,325z M220.6,323.9c-3.1,0.3-5.3,0.8-5.4,0.9  c-0.2,0-0.3,0.2-0.4,0.4c-0.1,0.2,0,0.4,0.1,0.5c0.1,0.1,1.6,1.8,3.9,3.9c2.3,2,5.7,4.2,5.9,4.3c0,0,0.1,0.1,0.2,0.1  c2.2,0.5,9.7,2.1,10.7-0.1l1.2-3.6c0.5-2.4-6.5-5.5-8.6-6.4c-0.1,0-0.1,0-0.2,0C227.7,323.8,223.6,323.6,220.6,323.9"
   id="path128" />
<path
   d="M305.4,390.2c0,0-0.2-2.4-0.8-5.3c-0.7-3-2.2-6.9-2.2-6.9s-6.2-7.1-8-6.1l-3.1,2.2c-1.5,1.5,3.3,9.5,3.3,9.5  s3.2,2.6,5.9,4.2C303.2,389.3,305.3,390.2,305.4,390.2L305.4,390.2z"
   id="path130"
   style="fill:#57ba58" />
<path
   d="M291.5,375c0-0.3,0.1-0.4,0.2-0.5l3-2.2c0.8-0.5,4.4,2.7,7.2,6c0.2,0.4,1.5,4,2.1,6.7c0.4,1.9,0.6,3.5,0.7,4.5  c-0.8-0.4-2.3-1.1-4-2.1c-2.4-1.4-5.3-3.8-5.7-4.1C293.2,380.1,291.5,376.4,291.5,375z M294.1,371.4l-3.1,2.3  c-1.8,1.7,2,8.2,3.2,10.2c0,0.1,0.1,0.1,0.1,0.1c0.1,0.1,3.3,2.7,5.9,4.2c2.6,1.5,4.8,2.5,4.9,2.5c0.2,0.1,0.4,0,0.5-0.1  c0.1-0.1,0.3-0.3,0.2-0.5c0-0.1-0.2-2.4-0.9-5.4c-0.7-3-2.1-6.8-2.2-7c0-0.1-0.1-0.1-0.1-0.2C301.3,375.9,296.2,370.2,294.1,371.4"
   id="path132" />
<path
   d="M326.6,324.7c0,0-2.3-0.5-5.3-0.8c-3.1-0.3-7.2-0.1-7.2-0.1s-8.7,3.7-8.3,5.7l1.2,3.6  c0.9,1.9,10.1-0.2,10.1-0.2s3.5-2.2,5.8-4.3C325.1,326.6,326.7,324.8,326.6,324.7L326.6,324.7z"
   id="path134"
   style="fill:#57ba58" />
<path
   d="M321.2,324.4c2,0.2,3.6,0.5,4.5,0.7c-0.6,0.7-1.7,1.9-3.2,3.2c-2.1,1.9-5.3,3.9-5.7,4.2c-4.2,1-9,1.4-9.4,0.5l-1.1-3.5  c0,0,0,0,0-0.1c0-1,4-3.3,7.9-5C314.6,324.3,318.4,324.1,321.2,324.4z M314,323.3c-0.1,0-0.1,0-0.2,0c-2.1,0.9-9,4-8.6,6.3l1.2,3.7  c1,2.2,8.4,0.6,10.7,0.1c0.1,0,0.1,0,0.2-0.1c0.1-0.1,3.6-2.3,5.9-4.3c2.3-2,3.8-3.8,3.9-3.9c0.1-0.1,0.1-0.4,0.1-0.5  c-0.1-0.2-0.2-0.3-0.4-0.4c-0.1,0-2.4-0.6-5.4-0.9C318.3,323,314.2,323.3,314,323.3"
   id="path136" />
<path
   d="M270.5,284.5c0,0-1.2,2-2.5,4.8c-1.2,2.8-2.3,6.8-2.3,6.8s0.8,9.4,2.9,9.7h3.8c2.1-0.3,2.9-9.7,2.9-9.7  s-1.1-4-2.3-6.8C271.8,286.5,270.6,284.5,270.5,284.5L270.5,284.5z"
   id="path138"
   style="fill:#57ba58" />
<path
   d="M268.6,289.6c0.8-1.8,1.6-3.2,2-4.1c0.5,0.8,1.2,2.2,2,4.1c1.1,2.6,2.1,6.2,2.2,6.7c-0.4,4.3-1.4,9-2.4,9.1l-3.7,0  c-0.9-0.1-2-4.8-2.4-9.1C266.4,295.8,267.4,292.1,268.6,289.6z M270.1,284.2c-0.1,0.1-1.3,2.1-2.5,4.9c-1.2,2.8-2.3,6.8-2.3,6.9  c0,0.1,0,0.1,0,0.2c0.2,2.3,1,9.8,3.4,10.1l3.8,0c2.4-0.3,3.2-7.8,3.4-10.1c0-0.1,0-0.1,0-0.2c0-0.2-1.1-4.1-2.3-6.9  c-1.2-2.8-2.4-4.8-2.5-4.9c-0.1-0.2-0.3-0.3-0.5-0.3C270.4,284,270.2,284.1,270.1,284.2"
   id="path140" />
<path
   d="M236.9,390.4c0,0,2.2-0.9,4.8-2.5c2.6-1.5,5.9-4.2,5.9-4.2s4.9-8.1,3.3-9.5l-3.1-2.2c-1.9-1-8,6.1-8,6.1  s-1.5,3.9-2.2,6.9C237,388,236.8,390.4,236.9,390.4L236.9,390.4z"
   id="path142"
   style="fill:#57ba58" />
<path
   d="M247.6,372.5l3,2.2c0.1,0.1,0.1,0.3,0.1,0.5c0,1.4-1.7,5.1-3.6,8.2c-0.4,0.3-3.3,2.7-5.7,4.1c-1.7,1-3.2,1.7-4,2.1  c0.1-0.9,0.3-2.5,0.7-4.5c0.6-2.7,1.9-6.2,2.1-6.7C243.1,375.2,246.7,372,247.6,372.5z M239.4,377.8c0,0-0.1,0.1-0.1,0.2  c-0.1,0.2-1.5,4-2.2,7c-0.7,3-0.9,5.3-0.9,5.4c0,0.2,0.1,0.4,0.3,0.5c0.1,0.1,0.4,0.2,0.5,0.1c0.1,0,2.2-0.9,4.9-2.5  c2.6-1.6,5.8-4.1,5.9-4.2c0,0,0.1-0.1,0.1-0.1c1.2-2,5-8.6,3.2-10.2l-3.1-2.3C246,370.5,240.9,376.1,239.4,377.8"
   id="path144" />
<path
   d="M270.7,332.9c0.1-6-0.1-16.5-0.1-27.1c-0.1-6.7-1.5-7.8-5-10.1c-3-2-8.6-1.8-11.9,0.4c-2.6,1.8-5,6.1-9.8,9.7  c-5.5,4-11.8,6.6-14.3,9.3c-3.3,3.7-3.3,8.4-1.5,11.5c1.7,2.8,3.5,3.1,9.3,5.1c9.2,3.1,19.2,6.4,24.3,8.1c9.9,3.2,7.8,1,7.8,1  S270.5,343.2,270.7,332.9z"
   id="path146"
   style="fill:#ff4342" />
<path
   d="M241.5,332.8c-1.5-2.3-1.7-5.5,0.8-8.1c1.9-1.9,6.4-3.4,10.7-6.2c3.7-2.5,5.7-5.8,7.7-7  c2.6-1.5,7.4-1.8,9.7-0.3c0,0,0,13.5-0.2,18.4c-0.2,4.9-0.5,10.2-1,10.8c-0.5,0.6-5.7-0.8-12.6-2.7  C249.7,335.6,241.5,332.8,241.5,332.8z"
   id="path148"
   style="fill:#e54219" />
<path
   d="M260.5,311c-1,0.6-1.9,1.6-2.9,2.7c-1.3,1.4-2.8,3-4.8,4.3c-1.9,1.3-3.9,2.3-5.7,3.1c-2.2,1.1-4,2-5.1,3.1  c-2.9,3-2.3,6.6-0.9,8.8c0.2,0.2,0.5,0.3,0.7,0.2c0.2-0.2,0.3-0.5,0.2-0.7c-1.3-1.9-1.7-4.9,0.8-7.4c1-1,2.8-1.9,4.9-2.9  c1.8-0.9,3.8-1.9,5.8-3.2c2.1-1.4,3.7-3.1,5-4.5c1-1.1,1.9-2,2.7-2.5c2.5-1.5,7.1-1.6,9.2-0.3c0.2,0.2,0.6,0.1,0.7-0.2  c0.2-0.2,0.1-0.6-0.2-0.7C268.4,309.1,263.4,309.3,260.5,311z"
   id="path150" />
<path
   d="M269.8,340.5C269.8,340.5,269.8,340.5,269.8,340.5c0.1,0.1,0.1,0.2,0.1,0.3C269.8,340.6,269.8,340.5,269.8,340.5   M261.7,339.2l-17.8-5.9l-6.5-2.2l-1.5-0.5c-4.5-1.5-6-2-7.4-4.3c-1.6-2.7-1.9-7.3,1.4-10.9c1.3-1.4,3.8-2.9,6.7-4.5  c2.4-1.4,5-2.9,7.6-4.7c2.7-2,4.7-4.3,6.3-6.2c1.3-1.5,2.4-2.7,3.5-3.5c3.1-2.1,8.5-2.3,11.4-0.4c3.3,2.2,4.7,3.1,4.8,9.7l0.1,8.3  l0.1,18.8c-0.1,5.1-0.4,6.8-0.6,7.3c-0.2-0.1-0.4-0.1-0.5,0c-0.1,0.1-0.2,0.3-0.2,0.4c0,0.1,0,0.1,0,0.2  C268.3,340.9,266.7,340.8,261.7,339.2 M253.3,295.6c-1.2,0.8-2.4,2.1-3.7,3.7c-1.7,1.9-3.5,4.1-6.2,6c-2.5,1.8-5.1,3.3-7.5,4.7  c-3,1.7-5.5,3.2-6.9,4.7c-3.6,4-3.3,9.1-1.5,12.2c1.6,2.7,3.4,3.2,8,4.8l1.5,0.5l6.5,2.2l17.8,5.9c7.2,2.3,8.2,1.8,8.5,1.3  c0,0,0,0,0-0.1c0.5-0.2,1.1-1.2,1.3-8.5l-0.1-18.8l-0.1-8.3c-0.1-6.9-1.6-8.2-5.2-10.6C262.6,293.1,256.8,293.3,253.3,295.6"
   id="path152" />
<path
   d="M259,327c-0.2,0.2-0.3,0.5-0.1,0.7l10.2,13.5c0.2,0.2,0.5,0.3,0.7,0.1c0.2-0.2,0.3-0.5,0.1-0.7l-10.2-13.5  C259.6,326.9,259.2,326.8,259,327z"
   id="path154" />
<path
   d="M261.1,340.2c-5.6-2-15.7-5.1-25.8-8.2c-6.4-2-7.9-1-11.2,1.6c-2.8,2.2-4.4,7.6-3.3,11.5  c0.9,3,4.3,6.7,6.1,12.3c2.1,6.5,2.6,13.3,4.4,16.5c2.5,4.3,7,5.8,10.5,4.9c3.1-0.7,4-2.3,7.7-7.2c5.7-7.8,12.1-16.2,15.2-20.6  c6.1-8.5,3.3-7.1,3.3-7.1S270.9,343.6,261.1,340.2z"
   id="path156"
   style="fill:#ff4342" />
<path
   d="M252,367.9c-2.6,0.7-5.8-0.1-7.4-3.3c-1.2-2.4-1.2-7.2-2.6-12.1c-1.2-4.3-3.8-7.2-4.3-9.5  c-0.7-2.9,0.6-7.6,2.7-9.3c0,0,12.8,4.2,17.4,5.9c4.6,1.7,9.5,3.6,9.9,4.3c0.4,0.7-2.5,5.2-6.5,11.2C257.3,361,252,367.9,252,367.9z  "
   id="path158"
   style="fill:#e54219" />
<path
   d="M237.1,343.1c0.3,1.1,0.9,2.3,1.7,3.6c0.9,1.7,2,3.6,2.6,5.9c0.6,2.2,0.9,4.4,1.2,6.4c0.4,2.4,0.7,4.5,1.4,5.8  c1.9,3.7,5.5,4.2,8,3.6c0.3-0.1,0.4-0.4,0.4-0.6c-0.1-0.3-0.4-0.4-0.6-0.4c-2.2,0.6-5.2,0.1-6.8-3c-0.6-1.2-0.9-3.2-1.3-5.5  c-0.3-2-0.6-4.2-1.3-6.5c-0.7-2.5-1.8-4.5-2.7-6.2c-0.7-1.3-1.3-2.4-1.5-3.3c-0.6-2.8,0.6-7.2,2.5-8.8c0.2-0.2,0.3-0.5,0.1-0.7  s-0.5-0.3-0.7-0.1C237.8,335.1,236.4,339.9,237.1,343.1z"
   id="path160" />
<path
   d="M268,343.4C268,343.4,268.1,343.4,268,343.4c0.1-0.1,0.2-0.1,0.3,0C268.2,343.4,268.1,343.4,268,343.4 M264.3,350.7  l-11.1,15.1l-4.1,5.5l-1,1.3c-2.8,3.8-3.8,5.1-6.4,5.7c-3.1,0.7-7.5-0.4-9.9-4.7c-1-1.7-1.6-4.5-2.2-7.7c-0.6-2.7-1.2-5.7-2.2-8.6  c-1.1-3.2-2.6-5.8-3.9-7.9c-1-1.7-1.9-3.1-2.2-4.4c-1-3.6,0.5-8.8,3.1-10.9c3.1-2.5,4.4-3.5,10.7-1.5l7.9,2.5c0,0,17.9,5.7,17.9,5.8  c4.8,1.7,6.3,2.5,6.8,2.9c-0.1,0.1-0.2,0.3-0.2,0.5c0.1,0.2,0.2,0.3,0.3,0.3c0.1,0,0.1,0,0.2,0C268,345,267.4,346.4,264.3,350.7   M220.3,345.2c0.4,1.4,1.3,2.9,2.3,4.6c1.3,2.2,2.8,4.6,3.8,7.7c0.9,2.9,1.6,5.9,2.1,8.5c0.7,3.3,1.3,6.2,2.3,8  c2.7,4.7,7.7,6,11.1,5.2c3-0.7,4.1-2.2,7-6.1l1-1.3l4.1-5.5l11.1-15.1c4.4-6.1,4.3-7.2,3.8-7.7c0,0,0,0-0.1,0c0-0.5-0.8-1.4-7.7-3.8  l-17.9-5.8l-7.9-2.5c-6.6-2.1-8.2-1-11.7,1.7C220.8,335.6,219.2,341.2,220.3,345.2"
   id="path162" />
<path
   d="M268.2,343.3l-15.9,5.5c-0.3,0.1-0.4,0.4-0.3,0.7c0.1,0.3,0.4,0.4,0.7,0.3l15.9-5.5c0.3-0.1,0.4-0.4,0.3-0.7  C268.7,343.4,268.4,343.2,268.2,343.3z"
   id="path164" />
<path
   d="M265.2,351.6c-3.6,4.8-9.7,13.4-15.8,22c-3.9,5.5-3.4,7.2-1.9,11.1c1.3,3.3,5.9,6.5,9.9,6.7  c3.2,0.1,7.7-2,13.6-2c6.8,0,13.5,1.6,17,0.9c4.9-1,7.6-4.9,8-8.5c0.3-3.2-1-4.6-4.5-9.5c-5.6-7.9-11.7-16.5-14.9-20.8  c-6.2-8.4-5.7-5.3-5.7-5.3S271.4,343.4,265.2,351.6z"
   id="path166"
   style="fill:#ff4342" />
<path
   d="M288.7,368.9c-0.1,2.7-1.8,5.5-5.4,6.1c-2.7,0.4-7.2-1-12.3-1.3c-4.5-0.2-8,1.4-10.4,1.1c-3-0.3-7-2.9-8-5.5  c0,0,7.9-10.9,11-14.7c3.1-3.8,6.4-8,7.1-8.1c0.8-0.2,4.2,4,8.6,9.6C283.7,361.7,288.7,368.9,288.7,368.9z"
   id="path168"
   style="fill:#e54219" />
<path
   d="M260.5,375.3c1.1,0.1,2.4-0.2,3.9-0.5c1.9-0.4,4-0.8,6.4-0.7c2.3,0.1,4.5,0.5,6.4,0.8c2.4,0.4,4.5,0.7,6,0.5  c4.1-0.7,5.7-4,5.9-6.5c0-0.3-0.2-0.5-0.5-0.6c-0.3,0-0.5,0.2-0.6,0.5c-0.1,2.3-1.5,5-5,5.6c-1.4,0.2-3.4-0.1-5.6-0.5  c-2-0.3-4.2-0.7-6.5-0.8c-2.6-0.1-4.9,0.3-6.7,0.7c-1.4,0.3-2.7,0.5-3.7,0.4c-2.9-0.3-6.7-2.8-7.6-5.1c-0.1-0.3-0.4-0.4-0.7-0.3  c-0.3,0.1-0.4,0.4-0.3,0.7C253.1,372.2,257.2,375,260.5,375.3z"
   id="path170" />
<path
   d="M270.3,346C270.3,346,270.3,346,270.3,346c0-0.1,0-0.2,0.1-0.3C270.4,345.8,270.3,345.9,270.3,346 M276.1,351.8L287,367  l4,5.6l0.9,1.3c2.8,3.9,3.7,5.2,3.5,7.9c-0.3,3.1-2.7,7-7.5,8c-1.9,0.4-4.7,0.1-8-0.3c-2.7-0.3-5.8-0.6-8.9-0.6  c-3.4,0-6.4,0.7-8.8,1.3c-1.9,0.4-3.5,0.8-4.8,0.8c-3.7-0.2-8.2-3.2-9.4-6.3c-1.4-3.7-2-5.3,1.9-10.7l4.8-6.7c0,0,11-15.3,11-15.3  c3.1-4.1,4.3-5.2,4.8-5.6c0.1,0.2,0.2,0.3,0.4,0.3c0.2,0,0.3-0.1,0.4-0.2c0-0.1,0.1-0.1,0.1-0.2C271.8,346.5,273,347.5,276.1,351.8   M257.3,392c1.5,0.1,3.2-0.3,5.1-0.8c2.5-0.6,5.2-1.2,8.5-1.2c3,0,6.1,0.3,8.8,0.6c3.4,0.4,6.3,0.7,8.4,0.3c5.3-1.1,8.1-5.4,8.4-8.9  c0.3-3.1-0.8-4.6-3.7-8.6l-0.9-1.3l-4-5.6L277,351.2c-4.5-6.1-5.5-6.3-6.2-6c0,0,0,0-0.1,0c-0.5-0.1-1.6,0.3-6,6.1l-11,15.3  l-4.8,6.7c-4,5.6-3.5,7.5-2,11.6C248.3,388.5,253.1,391.8,257.3,392"
   id="path172" />
<path
   d="M270.8,345.3c-0.3,0-0.5,0.2-0.5,0.5l0.3,16.9c0,0.3,0.2,0.5,0.5,0.5c0.3,0,0.5-0.2,0.5-0.5l-0.3-16.9  C271.3,345.5,271.1,345.3,270.8,345.3z"
   id="path174" />
<path
   d="M277.3,351.2c3.4,4.9,9.8,13.3,16,21.8c4,5.4,5.8,5.5,10,5.3c3.6-0.2,8-3.6,9.4-7.3c1.1-3,0.4-7.9,2.3-13.6  c2.1-6.5,5.7-12.3,6.1-15.9c0.5-4.9-2.3-8.8-5.6-10.2c-3-1.2-4.6-0.5-10.5,1.4c-9.2,2.9-19.3,6-24.4,7.7c-9.9,3.3-6.8,3.8-6.8,3.8  S271.4,342.7,277.3,351.2z"
   id="path176"
   style="fill:#ff4342" />
<path
   d="M300.9,334.2c2.5,1,4.6,3.4,4.1,7c-0.4,2.7-3.2,6.5-5,11.3c-1.6,4.2-1.2,8-2.1,10.2c-1.2,2.8-4.9,5.8-7.7,6  c0,0-7.9-10.9-10.6-15c-2.7-4.1-5.6-8.5-5.5-9.3c0.1-0.8,5.1-2.8,11.8-5.3C292.6,336.6,300.9,334.2,300.9,334.2z"
   id="path178"
   style="fill:#e54219" />
<path
   d="M298.4,362.9c0.4-1,0.6-2.4,0.8-3.9c0.2-1.9,0.5-4.1,1.3-6.3c0.8-2.1,1.8-4.1,2.7-5.9c1.1-2.1,2.1-4,2.3-5.5  c0.6-4.1-2-6.7-4.4-7.6c-0.3-0.1-0.6,0-0.7,0.3c-0.1,0.3,0,0.6,0.3,0.7c2.2,0.8,4.3,3,3.8,6.5c-0.2,1.4-1.1,3.2-2.2,5.2  c-0.9,1.8-2,3.8-2.8,6c-0.9,2.4-1.2,4.7-1.4,6.6c-0.2,1.5-0.3,2.7-0.7,3.6c-1.1,2.6-4.8,5.5-7.2,5.6c-0.3,0-0.5,0.3-0.5,0.6  c0,0.3,0.3,0.5,0.6,0.5C293.1,369,297.1,366,298.4,362.9z"
   id="path180" />
<path
   d="M273.6,344.5C273.5,344.5,273.5,344.5,273.6,344.5c-0.1,0-0.2-0.1-0.3-0.2C273.4,344.4,273.5,344.5,273.6,344.5   M280.8,340.8l17.9-5.7l6.5-2.1l1.6-0.5c4.5-1.4,6-1.9,8.6-0.9c2.9,1.2,5.8,4.8,5.3,9.6c-0.2,1.9-1.4,4.5-2.7,7.6  c-1.1,2.5-2.4,5.3-3.3,8.3c-1,3.2-1.3,6.3-1.5,8.7c-0.2,1.9-0.3,3.6-0.8,4.8c-1.3,3.5-5.6,6.8-8.9,7c-4,0.2-5.6,0.3-9.6-5.1  l-4.9-6.6c0,0-11.1-15.2-11.1-15.2c-2.9-4.2-3.6-5.7-3.8-6.3c0.2,0,0.4-0.1,0.4-0.3c0.1-0.2,0-0.3-0.1-0.5c0-0.1-0.1-0.1-0.2-0.1  C274.5,343.3,275.8,342.5,280.8,340.8 M313.2,371.1c0.5-1.4,0.7-3.1,0.8-5.1c0.2-2.5,0.5-5.4,1.5-8.5c0.9-2.9,2.2-5.7,3.3-8.1  c1.4-3.1,2.6-5.8,2.8-7.9c0.6-5.4-2.7-9.4-5.9-10.7c-2.9-1.2-4.6-0.6-9.3,0.8l-1.5,0.5l-6.5,2.1l-17.9,5.7c-7.2,2.4-7.7,3.3-7.6,4  c0,0,0,0,0,0.1c-0.3,0.5-0.2,1.6,4,7.6l11.1,15.2l4.9,6.6c4.1,5.5,6,5.7,10.5,5.5C307.1,378.6,311.8,375,313.2,371.1"
   id="path182" />
<path
   d="M273,343.9c-0.1,0.3,0.1,0.6,0.4,0.7l16.1,4.9c0.3,0.1,0.6-0.1,0.7-0.4c0.1-0.3-0.1-0.6-0.4-0.7l-16.1-4.9  C273.4,343.5,273.1,343.6,273,343.9z"
   id="path184" />
<path
   d="M280.7,339.6c5.7-1.7,15.7-5.2,25.7-8.5c6.4-2.1,7-3.8,8.1-7.9c0.9-3.4-0.9-8.7-4.1-11.2  c-2.5-2-7.4-2.9-12.2-6.4c-5.5-4-9.9-9.2-13.3-10.7c-4.5-2-9-0.6-11.4,2.2c-2.1,2.4-1.9,4.3-1.9,10.4c-0.1,9.7-0.2,20.2-0.2,25.6  c0.1,10.4,1.5,7.7,1.5,7.7S270.8,342.5,280.7,339.6z"
   id="path186"
   style="fill:#ff4342" />
<path
   d="M271.8,311.8c1.7-2.1,4.7-3.3,8-1.7c2.4,1.2,5.2,5.1,9.2,8.3c3.5,2.8,7.3,3.6,9.1,5.2c2.3,2,4,6.5,3.3,9.2  c0,0-12.8,4.1-17.6,5.4c-4.7,1.3-9.8,2.7-10.5,2.4c-0.7-0.3-1-5.7-1.3-12.9C271.6,320.5,271.8,311.8,271.8,311.8z"
   id="path188"
   style="fill:#e54219" />
<path
   d="M298.4,323.1c-0.8-0.7-2.1-1.3-3.5-1.9c-1.7-0.8-3.7-1.7-5.6-3.2c-1.8-1.4-3.4-3-4.7-4.4c-1.7-1.7-3.2-3.2-4.6-3.9  c-3.7-1.9-7-0.2-8.6,1.8c-0.2,0.2-0.1,0.6,0.1,0.7c0.2,0.2,0.6,0.1,0.7-0.1c1.5-1.8,4.2-3.2,7.3-1.6c1.2,0.6,2.7,2.1,4.3,3.7  c1.4,1.4,3,3,4.8,4.5c2,1.6,4.1,2.6,5.8,3.4c1.3,0.6,2.5,1.1,3.2,1.8c2.2,1.9,3.7,6.2,3.1,8.6c-0.1,0.3,0.1,0.6,0.4,0.6  c0.3,0.1,0.6-0.1,0.6-0.4C302.5,330,300.9,325.3,298.4,323.1z"
   id="path190" />
<path
   d="M273.2,341C273.2,341,273.2,341.1,273.2,341c-0.1,0.1-0.1,0.2-0.2,0.2C273,341.2,273.1,341.1,273.2,341 M271.9,333l0.1-18.7  l0.1-6.8l0-1.6c0-4.7,0-6.3,1.8-8.4c2.1-2.4,6.3-4,10.8-2c1.8,0.8,3.9,2.7,6.4,4.9c2,1.8,4.3,3.9,6.8,5.7c2.7,2,5.6,3.2,7.8,4.1  c1.8,0.8,3.3,1.4,4.4,2.2c2.9,2.3,4.8,7.4,3.9,10.7c-1.1,3.8-1.5,5.4-7.8,7.5l-7.8,2.6l-17.9,5.9c-4.9,1.5-6.6,1.7-7.2,1.7  c0-0.2,0-0.4-0.2-0.5c-0.1-0.1-0.3-0.1-0.5-0.1c-0.1,0-0.1,0.1-0.2,0.1C272.3,339.8,271.9,338.2,271.9,333 M310.7,311.5  c-1.2-0.9-2.8-1.6-4.6-2.4c-2.3-1-5-2.1-7.6-4c-2.5-1.8-4.7-3.8-6.7-5.7c-2.5-2.3-4.7-4.3-6.6-5.1c-5-2.2-9.7-0.4-12,2.3  c-2,2.4-2,4.2-2.1,9.1l0,1.6l-0.1,6.8l-0.1,18.8c0.1,7.5,0.8,8.3,1.4,8.5c0,0,0,0,0.1,0c0.3,0.4,1.5,0.7,8.5-1.4l17.9-5.9l7.8-2.6  c6.5-2.2,7.3-4,8.4-8.3C316,319.6,314,314.1,310.7,311.5"
   id="path192" />
<path
   d="M281.9,326.8l-9.7,13.8c-0.2,0.2-0.1,0.6,0.1,0.7c0.2,0.2,0.6,0.1,0.7-0.1l9.7-13.8c0.2-0.2,0.1-0.6-0.1-0.7  C282.4,326.5,282.1,326.5,281.9,326.8z"
   id="path194" />
<path
   d="M277,341.1c0,0-3.4,1.5-3.6,2.8c-0.2,1.3,1.3,4.6,1.3,4.6s-3-2.8-4-2.8c-1,0-3.5,2.6-3.5,2.6s1.5-3.9,1.1-4.7  c-0.4-0.8-3.6-2.6-3.6-2.6s4,0.8,4.9,0c0.8-0.8,1.2-4.2,1.2-4.2s0.5,4.2,1.9,4.4C274.3,341.4,277,341.1,277,341.1z"
   id="path196" />
</svg>
